<svg version="1.1" id="Layer_1" xmlns="http://www.w3.org/2000/svg" x="0" y="0" width="612" height="792" style="enable-background:new 0 0 612 792" xml:space="preserve"><style>.st0{fill:#bcbec0}.st1{fill:#fff}.st5{fill:#004b91}.st6{fill:#6d6e71}</style><path class="st0" d="M175.3 97.1c0 .1.1.1.1.2 0 0 0 .1.1.1l-.2-.3z"/><path class="st0" d="M179.3 118.2c-.1-1.5-.3-6.1-.3-6.1-.2-4.8-.4-10.1-3.6-14.8-4.7-7.4-12.8-8.4-17.6-9h-.3l-26.7-.5h-.3c-2.2.2-4.5.3-6.9.3-9 .2-20.1.4-27.2 10.2-2.7 3.6-4.1 8.4-4.1 13.7 0 3 .4 6.2 1.3 9.4v.2c.9 2.8 2.5 5.3 4.7 7.4l-6-.1.1 5.7c.1 6.4.7 13 4.1 18.5l.1.2.1.2c3.6 4.7 8.9 7.5 16.1 8.3h.2c12.1 1 26.1 1.1 42.8.2 6.4-.1 13.7-1.1 19-7.4l.1-.1.1-.1c3.2-4.1 5.2-9.7 5.6-15.5l9.1.1-10.4-20.8z"/><path class="st1" d="M174.1 97.9s0 .1.1.1l.1.1-.2-.2z"/><path class="st1" d="M177.6 118h.3l-.2-5.8c-.2-4.6-.4-9.8-3.4-14.1-4.3-6.8-11.7-7.8-16.6-8.4h-.2l-26.6-.5h-.2c-2.2.2-4.5.3-7 .3-9.1.2-19.5.4-26.1 9.6-2.5 3.4-3.8 7.9-3.8 12.9 0 2.9.4 5.9 1.3 9.1v.1c1.2 3.8 3.8 6.9 7.5 9.2-1.7 0-8.7-.1-8.7-.1l.1 4.3c.1 6.2.7 12.6 3.9 17.8l.1.2.1.1c4.5 5.9 10.8 7.2 15.2 7.7h.1c12 1 26 1 42.6.2 6.1-.1 13-1.1 18-6.9l.1-.1c3.3-4.2 5.2-10 5.4-16 .5 0 8.2.1 8.2.1s-9.8-19-10.1-19.7z"/><linearGradient id="SVGID_1_" gradientUnits="userSpaceOnUse" x1="139.274" y1="157.099" x2="139.274" y2="93.255"><stop offset=".506" style="stop-color:#52595c"/><stop offset="1" style="stop-color:#a7a9ac"/></linearGradient><path d="M173.7 119.4c0 .1-2.1-.1-13.1-.7-.2 0-.3 0-.5-.1l-8.7-.6c-.2 0-.4 0-.6-.1-11.3-.6-22.4-1-33.7-1.9l-1.8-1.3c-1.3-1.1-1.3-3-1-4.6.3-1 1.6-2.2 2.6-2.6 8.5-.9 17.1-.6 26.3-.7 4.6.3 9.6-.9 13.1 1.8.9 1.4.9 3.2.9 5.1h16.5c-.2-4.9-.1-9.8-2.8-13.6-3.1-5-8.5-5.9-13.7-6.6l-26.1-.4c-10.7 1-23.1-1.4-30.1 8.2-3.8 5.1-3.6 12.4-1.9 18.5 1.9 6.1 8.3 9 14 9.9l41.4 2.4 2.8.7c1.9 1.2 2.3 3.3 2 5.6-.3 1.2-1.2 2.6-2.4 3-12.7 1.3-26.8 1.1-39.6.2-2.7-1.4-2.7-4.3-2.6-7.1l-16.5-.2c.1 5.6.5 11.3 3.3 15.7 3.1 4.1 7.6 5.6 12.3 6.1 13.7 1.1 28.4.9 42.1.2 5.7-.1 11.1-.9 15-5.5 3.6-4.6 5.1-11.4 4.3-17.6h5.7c-.1.3-7.3-13.8-7.2-13.8z" style="fill:url(#SVGID_1_)"/><path class="st0" d="M211.7 179c5.5-.5 6.1-4.7 6.2-5.6.2-2.8-1.6-5.9-5.9-6.6-.6-.1-5.8-1.2-7.7-1.6L185 129.5l-25.2-.1-1.6 2.9-12.7 23.4c-2.9-.2-5.8-.4-8.4-.5 0 0-1.2-.1-1.4-.1 0-.2-.1-2.2-.1-2.2-.2-4.8-.4-10.1-3.6-14.8-4.7-7.4-12.8-8.4-17.6-9h-.3l-26.7-.5h-.3c-2.2.2-4.5.3-6.9.3-9 .2-20.1.4-27.2 10.2-2.7 3.6-4.1 8.4-4.1 13.7 0 3 .4 6.2 1.3 9.4v.2c.9 2.8 2.5 5.3 4.7 7.4l-6-.1.1 5.7c.1 6.4.7 13 4.1 18.5l.1.2.1.2c3.6 4.7 8.9 7.5 16.1 8.3h.2c12.1 1 26.1 1.1 42.8.2 2.5-.1 5.1-.2 7.7-.8l-.3.5h31.3l3.3-6.2c.8-1.6 1.6-3.1 2.5-4.6h4.8c0 .3.1.5.2.8 0-.1.5 2.6.6 3.5.4 4.1 3.1 6.1 5.8 6.3 2.4.2 5.5-1.2 6.5-5.4l1.1-3.4.6-1.8h10c.9 1.7 1.8 3.2 2.7 4.9l3.1 5.8h3.3l28.7.2-12.6-23.6z"/><path class="st0" d="M131.8 137.9c0 .1.1.1.1.2 0 0 0 .1.1.1l-.2-.3zM168.5 202.3s-.1 0 0 0h-.1.1z"/><path class="st1" d="M209.5 177.8c.8 0 1.3-.1 1.3-.1h.2c4.9-.1 5.5-3.4 5.6-4.3.2-2.2-1.3-4.6-4.8-5.1l-8.3-1.7-19.2-35.6-23.6-.1-1.2 2.2-13.2 24.2c-3.2-.2-6.4-.4-9.3-.6 0 0-2-.1-2.6-.2 0-1-.1-3.5-.1-3.5-.2-4.6-.4-9.8-3.4-14.1-4.3-6.8-11.7-7.8-16.6-8.4h-.2l-26.8-.5h-.2c-2.2.2-4.5.3-7 .3-9.1.2-19.5.4-26.1 9.6-2.5 3.4-3.8 7.9-3.8 12.9 0 2.9.4 5.9 1.3 9.1v.1c1.2 3.8 3.8 6.9 7.5 9.2-1.7 0-8.7-.1-8.7-.1l.1 4.3c.1 6.2.7 12.6 3.9 17.8l.1.2.1.1c4.5 5.9 10.8 7.2 15.2 7.7h.1c12 1 26 1 42.6.2 3.5-.1 7.2-.4 10.6-1.7l-.8 1.4h28.2l2.9-5.5c.9-1.8 1.9-3.5 3-5.4h6.7c.1.6.2 1.2.4 2 0 0 .5 2.8.6 3.5.3 3.6 2.6 5 4.5 5.1 1.8.1 4.3-.9 5.1-4.4l1.1-3.4c.3-1 .6-1.9.9-2.7h11.8c1.1 1.9 2.1 3.7 3.1 5.6l2.7 5h2.5l26.4.2-12.6-23.3z"/><path class="st1" d="M130.6 138.7s0 .1.1.1l.1.1-.2-.2z"/><linearGradient id="SVGID_2_" gradientUnits="userSpaceOnUse" x1="134.705" y1="197.947" x2="134.705" y2="134.104"><stop offset="0" style="stop-color:#19459d"/><stop offset="1" style="stop-color:#0073ae"/></linearGradient><path d="M181.7 135H163l-14.4 26.5c-13.1-.8-26.5-1.6-31.6-1.9-.2 0-.3 0-.5-.1l-8.7-.6c-.2 0-.4 0-.6-.1-11.3-.6-22.4-1-33.7-1.9l-1.8-1.3c-1.3-1.1-1.3-3-1-4.6.3-1 1.6-2.2 2.6-2.6 8.5-.9 17.1-.6 26.3-.7 4.6.3 9.6-.9 13.1 1.8.9 1.4.9 3.2.9 5.1h16.5c-.2-4.9-.1-9.8-2.8-13.6-3.1-5-8.5-5.9-13.7-6.6l-26.1-.4c-10.7 1-23.1-1.4-30.1 8.2-3.8 5.1-3.6 12.4-1.9 18.5 1.9 6.1 8.3 9 14 9.9l41.4 2.4 2.8.7c1.9 1.2 2.3 3.3 2 5.6-.3 1.2-1.2 2.6-2.5 3-12.7 1.3-26.8 1.1-39.6.2-2.7-1.4-2.7-4.3-2.6-7.1l-16.5-.2c.1 5.6.5 11.3 3.3 15.7 3.1 4.1 7.6 5.6 12.3 6.1 13.7 1.1 28.4.9 42.1.2 5.7-.1 11.1-.9 15-5.5 3.6-4.6 5.1-11.4 4.3-17.6l9.8.6-12.1 22.2h18.7c2-3.6 3.6-6.9 6-10.9h36c2.4 3.9 3.8 6.9 5.9 10.6l19.4.1-33.5-61.7z" style="fill:url(#SVGID_2_)"/><path d="m210.9 172.3-8.5-1.8s-4.8-1.1-14-3c-3-.6-5.2-1.2-6.8-1.8v-.1c-1.6-.6-3.7-1.2-5.3-4.9 0-.1-.1-.2-.1-.3-.4-1-.9-2.9-1.5-4.8-1.5-6.4-1.6-6.9-1.6-6.9s-.1-1.4-.8-1.4c-.7-.1-1 1.3-1 1.3s-.2.5-2.6 6.6c-.8 1.9-1.6 3.6-2.1 4.6-.1.1-.1.2-.2.3-2.1 3.4-4.3 3.7-5.9 4.1v.1c-1.7.4-3.9.7-7 .8-9.4.6-14.3 1-14.3 1l-8.7.6s-1.5 0-1.6.6c0 .6 1.3.7 1.7.8.5.1 9.5 2 9.5 2s14.5 3 15.9 3.4c.6.1 1.8.4 3 .8 5.1 1.7 5.8 5.5 6.3 7.4.4 1.3 1.3 6.5 2 10.1.3 2 .6 3.4.7 3.7 0 .1.1 1.5.7 1.6.6 0 .9-1.3.9-1.5.1-.3.5-1.6 1.2-3.5 1.2-3.5 2.8-8.5 3.4-9.7.8-1.8 2-5.5 7.3-6.5 1.3-.2 2.5-.3 3.1-.4 1.4-.1 16.2-1.1 16.2-1.1s9.2-.6 9.7-.6 1.8.1 1.8-.5c.1-.8-1.4-1-1.4-1z" style="fill:#fff;stroke:#bcbec0;stroke-width:1.3814"/><g><path class="st5" d="M95.7 224.1H86c0-.4-.1-.6-.1-.8-.2-2.2-.9-3.6-2-4.2-1.1-.5-3.6-.8-7.6-.8-4.7 0-7.8.3-9.2 1-1.4.7-2.2 2-2.2 4.1 0 2.5.6 4 1.8 4.5 1.2.5 5.1.9 11.7 1.1 7.8.3 12.9 1.2 15.2 2.5 2.3 1.3 3.4 4.1 3.4 8.4 0 5.2-1.3 8.6-4 10.1s-8.6 2.3-17.8 2.3c-8.2 0-13.7-.7-16.4-2.2-2.7-1.5-4-4.6-4-9.1v-1.4h9.7v.9c0 2.8.6 4.5 1.9 5.1 1.3.6 4.8.9 10.5.9 4.4 0 7.3-.4 8.5-1.1 1.2-.7 1.9-2.4 1.9-4.9 0-1.9-.5-3.2-1.4-3.8-.9-.6-3-1-6.1-1.1l-5.5-.3c-8.3-.4-13.6-1.2-15.9-2.6-2.3-1.4-3.5-4.3-3.5-8.8 0-4.6 1.4-7.7 4.2-9.2 2.8-1.5 8.3-2.3 16.7-2.3 7.9 0 13.2.7 16 2.1 2.7 1.4 4.1 4.1 4.1 8.2l-.2 1.4zM124.2 219.4v32.7h-9.9v-32.6H99.2v-6.7h40.7v6.7l-15.7-.1zM153.8 218.9v10.2h24.5v5.5h-24.5v11.1h26.1v6.2h-36.1v-39.3h35.8v6.3h-25.8zM182.7 229h17.5v5.7h-17.5V229zM236.7 244.4H214l-3.3 7.6h-10.5l17.4-39.3h15l17.7 39.3H240l-3.3-7.6zm-2.3-5.5-9.1-20.4-8.9 20.4h18zM273.1 231.1h23.1l.1 7.8c0 5.7-1.4 9.4-4.3 11-2.9 1.6-9.2 2.5-19.1 2.5-9.1 0-15.1-1.1-18-3.3-2.9-2.2-4.4-6.7-4.4-13.4 0-8.6.6-14 1.8-16.3 1.5-2.7 3.7-4.6 6.7-5.6s8-1.4 15.1-1.4c9.3 0 15.3.7 18.1 2.2 2.7 1.5 4.1 4.8 4.1 9.9h-10.1c-.2-2.6-.9-4.2-2.3-4.8-1.3-.6-4.6-.9-9.9-.9-5.8 0-9.4.5-11 1.6-1.6 1.1-2.3 3.6-2.3 7.6v3.9l.1 5c0 3.9.8 6.4 2.3 7.4 1.5 1.1 5.1 1.6 10.7 1.6 5.4 0 8.9-.4 10.4-1.4 1.5-.9 2.2-3 2.2-6.4v-1.6h-13.2v-5.4zM332.7 244.4h-22.6l-3.3 7.6h-10.5l17.4-39.3h15l17.7 39.3h-10.3l-3.4-7.6zm-2.3-5.5-9.1-20.4-8.9 20.4h18zM366.6 219.4V252h-10v-32.6h-15.1v-6.7h40.7v6.7h-15.6zM431.8 212.7V252h-9.9v-17.1h-24.6V252h-10v-39.3h10v16h24.6v-16h9.9zM447.5 218.9v10.2h24.6v5.5h-24.6v11.1h26.1v6.2h-36.1v-39.3h35.8v6.3h-25.8z"/></g><g><path class="st6" d="M275.9 172.6c2.4.3 4.9.7 6.3 3 1.2 1.7 1.2 4 1.3 6.3h-7.6c0-.9 0-1.7-.4-2.4-1.6-1.2-4-.7-6.1-.8-4.2 0-8.2-.1-12.1.3-.5.2-1 .7-1.2 1.2-.2.7-.2 1.6.5 2.1l.8.6c6.7.6 13.1.7 19.9 1.2 2.3.3 4.5 1.2 5.8 3.4 1.9 3.3 1.5 8.6-.9 11.6-1.8 2.1-4.3 2.5-6.9 2.5-6.4.3-13.1.4-19.5-.1-2.2-.3-4.3-.9-5.7-2.8-1.3-2-1.5-4.7-1.5-7.3l7.6.1c-.1 1.3-.1 2.6 1.2 3.3 5.9.4 12.4.5 18.3-.1.6-.2 1-.8 1.1-1.4.2-1-.1-2-.9-2.6l-1.3-.3-19.1-1.1c-2.6-.4-5.6-1.7-6.5-4.6-.8-2.8-.9-6.2.9-8.5 3.2-4.5 9-3.3 13.9-3.8l12.1.2zM294.8 192.7c.3.7.9 1.4 1.6 1.8 5.1.5 11.2.8 16.3-.3.8-.5 1.3-1.3 1.3-2.3v-19.3h7.8l-.1 22.2c-.4 2.2-1.2 4.5-3.8 6.2-1.6 1-3.7 1.1-5.7 1.1l-18-.1c-2.5-.2-4.9-2.2-6.1-4.5l-.8-2.3-.1-22.6h7.5l.1 20.1zM447 192.7c.3.7.8 1.4 1.5 1.8 4.9.6 10.6.5 15.5.1.7-.2 1.3-.8 1.8-1.4l.2-1.1v-19.5h7.7V195c-.4 2.2-1.5 4.4-3.7 5.6-1.6 1-3.8 1.3-5.8 1.3l-18-.1c-2.5-.2-5-2-6.2-4.3-.5-1.2-.8-2.6-.9-4.1v-20.8h7.7l.2 20.1zM432.7 188l1.1-.8c2.9-3.4 2.1-7.9.6-11.1-2.1-3.4-4.9-3.3-6.1-3.5h-26.4l-.1 29.2h7.7v-10.3h15.6c3 .3 3.2 2.3 3.2 4.9v5.5h7.7c0-5.2 1-11.3-3.3-13.9zm-6.1-3.6h-17.2V179l16.8.1c.7.3 1.3.7 1.6 1.4.2 1.1.7 3-1.2 3.9zM384.1 172.7h-8.8l-16 29.3h8.8c.9-1.7 1.7-3.3 2.8-5.1h17c1.1 1.8 1.8 3.2 2.8 5l9.1.1-15.7-29.3zm-10 18c1.6-3.5 3.6-6.8 5.3-10.3 2 3.2 3.5 6.8 5.4 10.2l-10.7.1zM356.7 186.2c2.8-1.7 2.7-5.5 2.1-8.4-.6-2.7-3.5-4.8-6-5.1l-27-.1v29.3h24.1c2.2 0 4.4-.2 6.2-1 2.2-1.1 3.3-3.3 3.7-5.5.4-3.4.1-7.5-3.1-9.2zm-23.4-7.2 16.6.1c.6.2 1.3.7 1.5 1.3.2.8.2 1.9-.5 2.4-.5.6-1.2.7-1.9.9h-15.7V179zm18 15.5c-1.2.9-2.9.9-4.6.8-4.4 0-8.9.1-13.3-.1v-5.4l16.4.1c.7.3 1.5.6 1.9 1.4.4 1 .4 2.3-.4 3.2z"/></g></svg>