<svg version="1.1" id="Layer_1" xmlns="http://www.w3.org/2000/svg" x="0" y="0" width="792" height="612" style="enable-background:new 0 0 792 612" xml:space="preserve"><style>.st1{fill:#e86929}</style><path d="M550.4 258H232.3c-10.1 0-18.3 8.2-18.3 18.3v64.1c0 10.1 8.2 18.3 18.3 18.3h318.2c10.1 0 18.3-8.2 18.3-18.3v-64.1c-.1-10.1-8.3-18.3-18.4-18.3z"/><path d="M549.9 264H232.8c-7 0-12.8 5.7-12.8 12.8v63.1c0 7 5.7 12.8 12.8 12.8H550c7 0 12.8-5.7 12.8-12.8v-63.1c-.1-7.1-5.8-12.8-12.9-12.8zm0 7c3.2 0 5.8 2.6 5.8 5.8v63.1c0 3.2-2.6 5.8-5.8 5.8H232.8c-3.2 0-5.8-2.6-5.8-5.8v-63.1c0-3.2 2.6-5.8 5.8-5.8h317.1" style="fill:#fff"/><path class="st1" d="M299.1 338c1.8-3.7 2.7-6.8 2.7-9.3v-40.3c0-2.9-.9-6.2-2.7-9.8h16c-1.7 4.1-2.5 7.4-2.5 9.8v40.3c0 2.6.9 5.7 2.8 9.3h-16.3zM369.4 338h16.5c-1.9-3.7-2.9-6.8-2.9-9.3v-40c0-3.1.9-6.5 2.8-10.1h-13l-16.9 42.8-17.2-42.8H326c1.9 3.6 2.8 7 2.8 10.1v40c0 2.5-1 5.6-2.9 9.3h16.5c-2.1-3.4-3.1-6.5-3.1-9.3v-24.4l12.5 33.6h8.2l12.5-33.6v24.4c0 2.8-1 5.9-3.1 9.3zM427.8 295c0-1.7-.1-3-.4-4-.3-1-.7-1.7-1.3-2.2-.6-.5-1.4-.8-2.5-1-1-.1-2.3-.2-3.9-.2h-10.1v13.9h10.1c1.6 0 2.9-.1 3.9-.2s1.9-.4 2.5-1c.6-.5 1-1.3 1.3-2.2.2-1 .4-2.3.4-4v.9zm9.5 3.6c0 2.4-.1 4.4-.4 5.9-.3 1.5-.9 2.8-1.9 3.7-.9.9-2.4 1.6-4.2 1.9-1.9.4-4.3.5-7.4.5h-13.8v16.6c0 3.5.9 7.1 2.7 10.7H397c1.7-3.9 2.5-7.5 2.5-10.7v-37.6c0-3.4-.8-7.1-2.5-11.1h26.4c3.1 0 5.5.2 7.4.5 1.9.4 3.3 1 4.2 1.9.9.9 1.6 2.2 1.9 3.7.3 1.6.4 3.5.4 5.9v8.1zM289.5 292.4c-3.1-3.1-5.4-4.7-7.4-4.7h-9.9V329c0 2.5 1 5.5 2.9 9h-16.5c1.8-3.3 2.7-6.3 2.7-9v-41.3h-11.8c-1.1 0-3.2 1.7-6.3 5v-14h46.4v13.7h-.1zM490.8 292.4c-3.1-3.1-5.4-4.7-7.4-4.7h-9.9V329c0 2.5 1 5.5 2.9 9h-16.5c1.8-3.3 2.7-6.3 2.7-9v-41.3h-11.8c-1.1 0-3.2 1.7-6.3 5v-14h46.4v13.7h-.1zM499.2 338c1.9-3.4 2.9-6.7 2.9-9.7v-39.5c0-2.3-.9-5.7-2.6-10.1h40.1V292c-3.5-2.9-6.3-4.3-8.3-4.3H513v16.1h8.8c1.4 0 3.8-1.5 7.3-4.4v18.1c-3.1-3.1-5.5-4.7-7.3-4.7H513v16h18.3c2 0 4.8-1.4 8.3-4.3V338h-40.4zM548.7 335.2c0 1.5-1.2 2.8-2.8 2.8-1.6 0-2.8-1.2-2.8-2.8 0-1.5 1.3-2.8 2.8-2.8 1.6.1 2.8 1.3 2.8 2.8zm-4.9 0c0 1.2.9 2.2 2.1 2.2 1.2 0 2.1-1 2.1-2.2 0-1.2-.9-2.2-2.1-2.2-1.2 0-2.1 1-2.1 2.2zm1.7 1.4h-.6v-2.8c.3 0 .6-.1 1.1-.1.5 0 .8.1.9.2.2.1.3.3.3.6s-.3.6-.6.7c.3.1.4.3.5.7.1.4.2.6.2.7h-.7c-.1-.1-.1-.3-.2-.7-.1-.3-.2-.4-.6-.4h-.3v1.1zm0-1.5h.3c.4 0 .6-.1.6-.4 0-.3-.2-.4-.6-.4h-.4v.8z"/><g><path class="st1" d="M549 335c0 1.7-1.4 3-3.1 3-1.7 0-3.1-1.3-3.1-3s1.4-3 3.1-3c1.7-.1 3.1 1.3 3.1 3zm-5.4 0c0 1.3 1 2.4 2.4 2.4 1.3 0 2.3-1.1 2.3-2.4 0-1.3-1-2.4-2.3-2.4-1.4-.1-2.4 1-2.4 2.4zm1.8 1.5h-.7v-3c.3 0 .7-.1 1.2-.1.6 0 .8.1 1 .2.2.1.3.3.3.6 0 .4-.3.6-.6.7.3.1.4.3.5.7.1.5.2.6.2.7h-.7c-.1-.1-.1-.4-.2-.7-.1-.3-.2-.5-.6-.5h-.3v1.4zm0-1.7h.3c.4 0 .7-.1.7-.4 0-.3-.2-.5-.6-.5h-.4v.9z"/></g></svg>