<svg xmlns="http://www.w3.org/2000/svg" xml:space="preserve" width="585.32" height="750.067"><path d="M2202.43 971.398c20.16 0 40.67-1.808 61.55-5.406 17.12-2.89 29.33-6.844 36.72-11.871 7.4-5.062 11.08-11.98 11.08-20.801 0-5.59-1.35-9.961-4.05-13.09-2.71-3.148-8.56-6.992-17.55-11.468-10.43-5.41-16.42-11.762-17.96-19.051-1.54-7.289-2.91-35.59-4.19-84.922-.53-47.687-1.03-76.309-1.48-85.848-.45-9.539-1.56-18.812-3.36-27.82-5.22-26.281-15.77-46.902-31.61-61.82-12.96-12.242-29.6-21.879-49.95-28.903-20.35-7.019-41.76-10.519-64.25-10.519-19.98 0-40.01 2.601-60.07 7.82-20.08 5.211-37.49 12.422-52.25 21.621-12.24 7.551-21.96 17.75-29.17 30.629-7.18 12.871-10.79 26.602-10.79 41.172 0 17.988 5.67 32.91 17.01 44.699 11.35 11.789 25.55 17.672 42.66 17.672 16.72 0 30.95-4.953 42.66-14.844 11.69-10.089 17.54-22.519 17.54-37.277 0-3.762-1.08-10.062-3.23-18.891-.37-1.8-.56-3.789-.56-5.929 0-5.781 2.07-10.442 6.23-14.051 4.13-3.602 9.62-5.398 16.45-5.398 12.06 0 21.78 5.398 29.18 16.207 7.36 10.793 11.07 25.023 11.07 42.66l-.26 24.57-.56 66.16c-1.62 40.141-2.83 63.75-3.63 70.871-.82 7.102-2.83 12.91-6.09 17.41-2.71 3.602-5.09 5.942-7.16 7.02-2.06 1.09-7.68 2.781-16.88 5.121-4.31.899-8 3.41-11.04 7.57-3.08 4.141-4.61 8.539-4.61 13.231 0 9.719 3.84 17.508 11.47 23.367 7.66 5.82 20.14 10.57 37.41 14.172 19.26 3.949 39.14 5.937 59.67 5.937m271.03-221.668h52.91c9.73 0 14.57 2.149 14.57 6.461 0 5.938-6.73 20.539-20.24 43.75-6.12 10.618-10.81 17.731-14.04 21.329-3.23 3.601-6.65 5.402-10.26 5.402-6.49 0-11.87-6.043-16.19-18.09-.74-1.621-3.33-8-7.84-19.191-7.55-18.332-11.34-29.332-11.34-32.93 0-4.5 4.14-6.731 12.43-6.731zm187.91 33.989 51.03-109.348c4.88-10.062 8.9-16.691 12.16-19.84 3.23-3.152 8.19-5.25 14.84-6.332 12.96-1.988 19.45-8.558 19.45-19.719 0-13.14-7.92-22.601-23.77-28.351-15.84-5.75-41.76-8.629-77.77-8.629-40.67 0-70.82 1.719-90.43 5.141-9.01 1.609-16.16 4.898-21.48 9.851-5.3 4.93-7.95 10.918-7.95 17.938 0 5.41 1.37 9.59 4.18 12.558 2.78 2.973 7.95 5.723 15.53 8.242 8.45 2.86 12.69 7.739 12.69 14.571 0 12.058-7.29 19.191-21.88 21.328-15.66 2.172-37.71 3.23-66.14 3.23-23.95 0-38.26-1.429-42.95-4.32-2.86-1.801-5.38-5.027-7.55-9.687-2.15-4.692-3.23-9.204-3.23-13.52 0-3.941.77-6.512 2.28-7.684 1.53-1.187 6.54-3.128 14.99-5.796 10.97-3.262 16.48-9.731 16.48-19.454 0-21.437-25.65-32.136-76.97-32.136-29.14 0-50.58 1.988-64.25 5.937-12.61 3.781-18.89 12.051-18.89 24.852 0 5.558 1.37 9.879 4.18 12.961 2.79 3.039 7.77 5.847 14.97 8.367 11.72 4.133 20.56 9.93 26.61 17.41 6.04 7.473 14.62 23.441 25.78 47.93l38.07 83.429c14.04 30.614 23.45 53.5 28.22 68.711 4.77 15.211 7.23 30.102 7.42 44.7.18 15.472 1.11 26.23 2.83 32.242 1.73 6.039 5.54 11.929 11.48 17.699 12.42 12.59 28.27 18.891 47.53 18.891 18.18 0 35.53-7.102 52.09-21.332 23.05-19.438 56.54-76.039 100.45-169.84m271.37 189.562c18.52 0 42.85-4.59 72.89-13.781 3.61-1.059 6.49-1.621 8.64-1.621 1.8 0 7.21 1.621 16.22 4.883 2.86 1.058 5.93 1.609 9.16 1.609 12.06 0 24.8-9.531 38.21-28.609 13.41-19.102 20.11-37.282 20.11-54.563 0-10.07-3.02-18.57-9.03-25.508-6.05-6.921-13.38-10.39-22.02-10.39-7.18 0-13.04 1.429-17.54 4.32-4.51 2.891-14.42 11.418-29.7 25.649-21.6 20.16-42.85 30.23-63.73 30.23-10.07 0-18.12-2.41-24.16-7.289-6.04-4.852-9.04-11.231-9.04-19.152 0-15.661 13.75-27.45 41.31-35.379 37.25-10.989 61.1-18.989 71.54-24.032 45.92-22.328 68.86-55.187 68.86-98.558 0-38.34-15.66-69.66-46.97-93.961-32.06-24.82-73.9-37.25-125.57-37.25-23.02 0-47.35 2.75-72.89 8.242-25.57 5.481-44.01 11.918-55.35 19.289-8.64 5.77-16.43 18.309-23.37 37.68-6.92 19.34-10.39 38.199-10.39 56.558 0 8.801 1.8 15.481 5.41 19.981 4.5 5.75 10.17 8.641 17.01 8.641 6.83 0 13.41-3.52 19.71-10.54 3.76-3.949 12.69-16.64 26.74-38.05 6.65-10.098 17.22-18.469 31.71-25.121 14.5-6.68 29.47-9.989 44.97-9.989 13.3 0 24.11 2.461 32.37 7.422 8.3 4.949 12.43 11.289 12.43 19.047 0 7.18-3.23 13.41-9.72 18.633-6.47 5.219-17.01 10.058-31.59 14.57-25.72 8.11-45.36 15.528-58.84 22.278-13.52 6.73-26.13 15.242-37.81 25.519-28.46 25.199-42.66 53.813-42.66 85.852 0 15.839 3.68 31.257 11.07 46.308 7.37 15.02 17.81 28.031 31.32 39 30.23 25.391 67.14 38.082 110.7 38.082m388.09-72.629V808.84c0-7.02 1.54-11.231 4.58-12.692 5.22-2.519 11.79-3.757 19.72-3.757 11.87 0 21.88 3.308 29.96 9.988 11.72 9.543 17.57 25.543 17.57 48.031 0 23.43-6.86 40.328-20.53 50.77-8.64 6.679-19.08 9.992-31.32 9.992-13.33 0-19.98-3.5-19.98-10.52zm-121.78-176.3v142.019c0 18.359-1.24 29.988-3.79 34.938-2.51 4.961-9.35 8.961-20.5 12.031-16.19 4.672-24.3 12.769-24.3 24.301 0 8.109 3.42 14.308 10.25 18.629 6.84 4.32 16.75 6.492 29.71 6.492 4.32 0 15.02-.293 32.14-.821h16.18c29.89.18 47.41.391 52.52.688 5.14.262 23.45 1.82 54.95 4.711 10.44 1.09 19.98 1.621 28.62 1.621 29.52 0 55.8-6.039 78.85-18.102 40.12-20.879 60.2-54 60.2-99.359 0-36.719-14.04-66.129-42.13-88.281-26.44-20.699-58.5-31.059-96.1-31.059-9.56 0-21.25.641-35.11 1.879-7.39.563-11.97.832-13.77.832-5.22 0-7.82-2.969-7.82-8.91v-1.609l1.88-44.313c.34-8.629 1.93-15.07 4.72-19.277 2.8-4.242 8.5-8.621 17.14-13.09 11.71-6.313 17.57-13.152 17.57-20.543 0-11.34-8.64-20.059-25.94-26.18-17.28-6.117-41.76-9.187-73.42-9.187-66.62 0-99.92 11.449-99.92 34.289 0 5.398 1.46 9.531 4.32 12.418 2.89 2.89 9.64 7.019 20.27 12.429 6.46 3.422 10.25 8.192 11.34 14.313 1.06 6.121 1.77 25.828 2.14 59.141m416.73 241.378h138.79c28.06 0 48.54.579 61.42 1.739a196.52 196.52 0 0 1 37.65 7.16c3.79 1.082 6.76 1.613 8.93 1.613 9.35 0 17.62-5.031 24.83-15.101 11.89-16.399 17.83-36.192 17.83-59.403 0-11.707-2.49-20.929-7.42-27.687-4.96-6.762-11.77-10.121-20.4-10.121-5.94 0-10.57 1.218-13.91 3.652-3.32 2.418-7.79 7.867-13.36 16.328-7.92 12.051-17.96 20.11-30.1 24.16-12.16 4.051-32.08 6.071-59.8 6.071-20.72 0-33.3-3.68-37.81-11.051-2.33-3.981-3.73-9.27-4.19-15.949-.45-6.653-.68-23.661-.68-51.032 0-10.789 1.8-17.488 5.4-20.109 3.6-2.602 13.06-3.918 28.35-3.918 7.58 0 13.06 1.578 16.48 4.738 3.42 3.149 5.57 8.77 6.47 16.879 1.27 10.442 2.57 17.59 3.92 21.461 1.35 3.871 3.81 7.231 7.42 10.121 3.79 3.231 8.21 4.848 13.25 4.848 7.36 0 13.67-3.5 18.89-10.52 3.79-5.218 6.97-14.437 9.59-27.687 2.6-13.223 3.92-27.031 3.92-41.442 0-28.429-4.42-51.75-13.25-69.921-4.85-9.907-12.24-14.868-22.12-14.868-6.12 0-10.36 1.59-12.69 4.75-2.36 3.149-4.16 9.668-5.41 19.579-2.7 20.32-14.57 30.492-35.64 30.492-8.1 0-13.64-2.571-16.61-7.68-2.97-5.141-4.45-14.633-4.45-28.48 0-8.481.58-19.403 1.75-32.813 1.16-13.43 2.38-22.277 3.66-26.598 1.43-5.402 5.88-9.14 13.35-11.211 7.47-2.058 19.95-3.101 37.41-3.101 27 0 47.32 3.453 61.02 10.391 13.67 6.921 24.83 19.48 33.47 37.679 5.03 10.41 9.59 17.43 13.64 21.043 4.06 3.598 9.3 5.399 15.79 5.399 7.56 0 13.81-3.282 18.76-9.86 4.96-6.57 7.42-14.812 7.42-24.691 0-10.809-2.78-24.301-8.37-40.508-5.56-16.191-12.4-30.613-20.51-43.191-4.13-6.121-7.55-10.231-10.25-12.289-2.71-2.071-6.12-3.102-10.26-3.102-3.44 0-8.37.52-14.86 1.609-11.53 2.172-26.92 3.532-46.16 4.063h-228.98c-9.16 0-16.29 2.008-21.33 6.058-5.03 4.059-7.55 9.782-7.55 17.149 0 5.223 1.09 9 3.24 11.34 2.17 2.351 7.1 5.32 14.86 8.933 5.38 2.328 9.38 5.207 12 8.629 2.6 3.418 4.64 8.461 6.07 15.11 5.93 27.179 8.93 63.82 8.93 109.898 0 69.473-4.32 113.301-12.98 131.5-1.81 3.582-3.77 6.102-5.94 7.551-2.15 1.43-6.65 3.16-13.49 5.121-10.25 3.07-15.39 9.91-15.39 20.531 0 5.75 1.7 10.887 5.14 15.399 3.39 4.468 7.9 7.468 13.49 8.898 7.02 1.609 20.61 2.441 40.77 2.441m514.74-75.89-2.96-62.899V824.5c0-6.461.92-10.781 2.83-12.949 1.88-2.149 5.7-3.242 11.47-3.242 15.82 0 27.35 4.082 34.56 12.273 7.2 8.207 10.81 21.297 10.81 39.289 0 34.738-12.35 52.117-36.99 52.117-7.02 0-11.98-1.609-14.87-4.867-2.89-3.242-4.5-8.992-4.85-17.281zm15.66-137.699c-6.83 0-11.2-2.071-13.09-6.2-1.9-4.16-2.83-13.781-2.83-28.91 0-22.84 1.43-40.672 4.32-53.441.9-3.598 2.22-6.379 4.03-8.371 1.8-1.989 5.22-4.43 10.28-7.289 10.78-5.93 16.19-13.782 16.19-23.5 0-11.871-7.53-20.301-22.55-25.25-15.03-4.93-40.46-7.418-76.29-7.418-66.58 0-99.89 12.609-99.89 37.808 0 4.321.98 7.789 2.97 10.391 1.99 2.621 6.49 6.25 13.51 10.937 7.93 5.223 13.28 11.372 16.06 18.493 2.78 7.101 4.72 19.398 5.8 36.859.91 12.77 1.36 58.582 1.36 137.43 0 25.019-1.28 42.031-3.79 51.039-2.52 8.98-7.93 15.551-16.19 19.711-7.92 3.761-13.22 7.23-15.93 10.39-2.7 3.149-4.05 7.231-4.05 12.289 0 6.653 2.57 12.45 7.68 17.411 5.14 4.949 12.3 8.582 21.46 10.941 7.74 1.961 18.37 2.969 31.88 2.969 5.94 0 20.8-.899 44.54-2.7 4.5-.371 11.61-.558 21.33-.558 16.21 0 37.81 1.09 64.81 3.258 17.09 1.242 29.06 1.879 35.9 1.879 38.53 0 70.37-9.27 95.6-27.817 22.68-16.722 34.02-39.961 34.02-69.66 0-16.562-3.97-31.641-11.9-45.23-7.92-13.59-18.81-23.793-32.67-30.633-5.75-2.887-8.63-6.297-8.63-10.25 0-5.25 4.42-9.457 13.22-12.688 18.92-6.871 32.77-17.199 41.6-31.062 8.82-13.848 15.1-35.098 18.89-63.719 1.61-11.898 3.95-19.578 7.02-23.078 3.05-3.524 10.17-6.891 21.33-10.152 3.42-1.059 6.3-3.36 8.64-6.86 2.33-3.519 3.52-7.441 3.52-11.762 0-5.566-2.17-11.207-6.49-16.878-4.32-5.668-9.91-10.122-16.75-13.348-15.1-7.031-35.82-10.524-62.08-10.524-35.1 0-60.22 9.274-75.35 27.793-6.84 8.289-12.64 18.731-17.41 31.321-4.77 12.609-10.39 32.218-16.88 58.867-4.13 17.09-9.4 29.152-15.79 36.172-6.39 7.019-15.53 10.808-27.4 11.34M2256.58 365.68v-53.989h49.15c8.77 0 15.61 1.2 20.51 3.579 8.87 4.39 13.31 12.812 13.31 25.269 0 10.543-4.3 17.762-12.91 21.723-4.79 2.187-11.55 3.34-20.24 3.418zm0 78.16v-44.629h49.2c8.8 0 15.94 1.66 21.42 5 5.48 3.34 8.21 9.281 8.21 17.809 0 9.41-3.61 15.64-10.86 18.671-6.25 2.11-14.22 3.149-23.93 3.149zm109.93 13.609c6.2-8.609 9.3-18.898 9.3-30.91 0-12.348-3.13-22.297-9.38-29.82-3.51-4.188-8.64-8.039-15.43-11.52 10.32-3.769 18.13-9.707 23.37-17.859 5.27-8.16 7.89-18.051 7.89-29.68 0-12.008-3-22.762-9.01-32.281-3.83-6.309-8.61-11.629-14.34-15.938-6.47-4.941-14.09-8.339-22.89-10.16-8.77-1.84-18.31-2.75-28.61-2.75h-91.24v202.5h97.87c24.68-.371 42.17-7.57 52.47-21.582m108.54-13.609v-54.391h45.53c9.04 0 15.83 1.102 20.35 3.293 8 3.848 12.01 11.449 12.01 22.809 0 12.269-3.88 20.512-11.63 24.73-4.33 2.379-10.86 3.559-19.55 3.559zm87.44 29.949c7.46-3.18 13.77-7.918 18.95-14.148a63.378 63.378 0 0 0 10.19-17.032c2.49-6.23 3.75-13.32 3.75-21.277 0-9.633-2.44-19.07-7.28-28.383-4.86-9.301-12.86-15.847-24.04-19.699 9.34-3.77 15.97-9.09 19.84-16.02 3.91-6.902 5.86-17.46 5.86-31.66v-13.609c0-9.25.35-15.512 1.1-18.801 1.12-5.238 3.71-9.058 7.83-11.551v-5.078h-46.71c-1.29 4.489-2.2 8.098-2.76 10.848-1.09 5.672-1.68 11.5-1.79 17.441l-.27 18.821c-.18 12.918-2.4 21.531-6.68 25.839-4.31 4.301-12.33 6.442-24.12 6.442h-41.31v-79.391h-41.37v202.5h96.88c13.82-.293 24.47-2.031 31.93-5.242m230.2-30.617h-107.15v-43h98.38v-35.16h-98.38v-52.09h112.1v-36.391H2644.2v202.5h148.49v-35.859m72.52 35.859 26.71-115.972 5.83-32.278 5.86 31.61 22.86 116.64h44.66l24.04-115.941 6.17-32.309 6.26 31.051 26.98 117.199h43.08l-56.96-202.5h-40.51l-24.46 118.43-7.14 39.148-7.14-39.148-24.47-118.43h-39.28l-57.41 202.5h44.92m290.64-202.5h-42.04v202.5h42.04v-202.5m52.97 202.5h44.36l80.38-141.211v141.211h39.42v-202.5h-42.31l-82.44 143.668V276.531h-39.41v202.5m347.03-63.211c-3.21 13.852-11.04 23.5-23.5 28.981-6.95 3.019-14.71 4.551-23.21 4.551-16.31 0-29.71-6.153-40.19-18.454-10.48-12.296-15.73-30.777-15.73-55.457 0-24.871 5.67-42.461 17.04-52.789 11.36-10.32 24.28-15.48 38.74-15.48 14.2 0 25.84 4.066 34.9 12.219 9.06 8.129 14.65 18.8 16.77 32.011h-46.85v33.797h84.34V276.531h-28.03l-4.25 25.27c-8.16-9.582-15.48-16.309-21.98-20.242-11.18-6.817-24.92-10.25-41.23-10.25-26.82 0-48.8 9.281-65.94 27.871-17.84 18.66-26.77 44.199-26.77 76.609 0 32.75 9.01 59.043 27.06 78.801 18.02 19.762 41.9 29.66 71.56 29.66 25.75 0 46.42-6.531 62.03-19.578 15.62-13.051 24.58-29.332 26.85-48.852h-41.61m208.36 42.032c16.31 16.687 37.06 25.027 62.25 25.027 33.7 0 58.35-11.18 73.94-33.527 8.58-12.543 13.21-25.141 13.85-37.782h-42.3c-2.7 9.7-6.15 17.032-10.38 21.981-7.54 8.789-18.72 13.179-33.5 13.179-15.08 0-26.96-6.199-35.67-18.609-8.69-12.41-13.05-29.98-13.05-52.68 0-22.699 4.6-39.742 13.77-51.05 9.17-11.309 20.85-16.95 35-16.95 14.52 0 25.59 4.84 33.21 14.571 4.2 5.218 7.7 13.047 10.46 23.48h42.06c-3.64-22.062-12.89-40.031-27.81-53.851-14.89-13.832-33.99-20.75-57.28-20.75-28.82 0-51.47 9.351-67.94 28.019-16.5 18.77-24.74 44.52-24.74 77.219 0 35.363 9.36 62.601 28.13 81.723m327.38-132.551c9.84 12.359 14.76 29.949 14.76 52.758 0 22.703-4.92 40.273-14.76 52.679-9.87 12.414-23.16 18.614-39.92 18.614-16.77 0-30.14-6.18-40.11-18.563-9.98-12.348-14.98-29.949-14.98-52.73 0-22.809 5-40.399 14.98-52.758 9.97-12.379 23.34-18.559 40.11-18.559 16.76 0 30.05 6.18 39.92 18.559zm26.42-30.781c-15.3-15.75-37.41-23.629-66.34-23.629-28.94 0-51.05 7.879-66.34 23.629-20.54 19.339-30.78 47.171-30.78 83.539 0 37.093 10.24 64.933 30.78 83.511 15.29 15.75 37.4 23.641 66.34 23.641 28.93 0 51.04-7.891 66.34-23.641 20.43-18.578 30.64-46.418 30.64-83.511 0-36.368-10.21-64.2-30.64-83.539m55.33 23.082h41.6v-41.071h-41.6v41.071" style="fill:#db571d;fill-opacity:1;fill-rule:nonzero;stroke:none" transform="matrix(.13333 0 0 -.13333 0 750.067)"/><path d="M1665.87 1240.05c-321.01-61.24-602.18 24.31-602.18 24.31-12.78 3.83-25.3 7.83-37.59 11.98-585.963 178.2-671.393 683.56-683.233 795.43-4.289 26.98-7.785 54.17-10.758 81.03-8.664 66.74-9.421 109.95-9.421 109.95l.046-.07c-.101 1.63-.164 3.11-.261 4.73-1.93 20.42-3.114 52.49-3.801 87.34-.406 14.66-.719 28.5-.863 40.32v36.72c-.118 26.1-.075 49.26 0 65.53v23.39l-.301-.51.301 179.42v84.93l.039-.06v23.18H.902v-341.82s-28.699-540.31 237.543-958.83c20.75-32.04 169.785-252.16 424.508-379.86 141.578-65.14 287.414-105.15 426.527-128.07 37.78 14.02 87.16 32.56 87.16 32.56 32.2 12.91 143.31 66.47 143.31 66.47l327.98 133.34c3.04 1.41 5.99 2.86 8.96 4.29l11.32 4.72-4.08-1.25c.58.28 1.16.56 1.74.83zm1179.16 1465.3v1060.74l.32 27.71-159.28 42.24-4.95 1.42-64.78 20.21-14.4 4.91-72.82 24.46v-.29l1.5-.57V2404.5l-.8-132.68v-.13l-.07-10.88c-.05-5.72-.16-13.94-.31-23.14-.07-1.43-.83-17.41-2.17-40-1.31-38.17-4.19-82.05-10.03-122.81-1.73-14.52-3.6-27.28-5.62-36.7-23.65-110.26-59.95-204.89-104.03-286.69 127.26 125.8 197.7 219.4 197.7 219.4 49.26 58.02 103.76 140.03 149.41 213.7l87.98 154.7 3.94 139.41c1.03 125.56-1.59 226.67-1.59 226.67zm-314.41 1270.37 83.64-16.19 30.36-5.88 200.41-37.46v888.32c-28.39 65.37-136.58 222.47-136.58 222.47-21.33 31.1-120.23 167.29-120.23 167.29-27.75 37.59-4.6 58.27-4.6 58.27 28.82 22.89 128.78-47.29 128.78-47.29 42.46-26.63 132.63-122.96 132.63-122.96v543.21h-315.91v-.07h1.5V3975.72" style="fill:#ebe883;fill-opacity:1;fill-rule:nonzero;stroke:none" transform="matrix(.13333 0 0 -.13333 0 750.067)"/><path d="M4353.13 1586.93s-307.6-99.8-418.91-107.17c0 0-411.51-74.39-661.48 26.08 0 0-207.81 50.79-63.1 235.15l165.73 287.03s75.2 120.13-9.18 75.39c0 0-73.17-51.08-260.09-329.84 0 0-94.91-168.13-213.54-149.19l-60.7 12.32s-81.6 5.25-134.47 6.76c-14.84-32.28-30.73-63.27-47.8-92.81-39.04-67.51-83.93-128.74-134.08-184.32 79.58 27.48 166.44 41 252.12 22.84l.04.38c121.8-21.48 260.03-47.64 334.47-67.78 21.59-5.85 66.32-19.47 99.25-24.79 129.03-20.85 462.78-66.16 625.27-7.76 0 0 332.45 78.37 486.34 187.34 0 0 141.96 100.92 40.13 110.37zm-719.04 1333.71c9.82 5.22 31.06 16.34 41.81 24.02 55.87 39.88 232.24 177.59 274.66 354.09 0 0 33 266.32-43.79 131.53 0 0-103.94-308.76-395.92-347.11-5.56-.73-23.91-4.86-34.88-7.28-27.38-6.03-79.28-8.58-107.64 47.2l-.08-.17c-.07.22-.13.53-.2.78-1.88 3.74-4.95 20.58-4.88 29.66.09 13.02-.03 29.91-.19 39.86-.94 59.37 1.45 132.48 1.45 132.48-1.8 231.27-17.78 485.88-18.37 495.25-.98 11.78-2 23.48-3.08 34.94-1.31 13.88-3.52 38.46-5.84 65.84-2.28 26.99-13.82 127.38-23.61 181.2-26.24 144.15-87.44 431.54-182.55 595.17-11.83 20.35-56.73 85.89-89.06 132.63-46.38 67.05-118.82 166.2-196.57 251.89v-278.14c.98-2.18 2.03-4.43 2.91-6.51 0 0 233.54-416.31 218.24-723.47 0 0 21.85-236.93-221.15-158.54V3793.8c32.99-7.06 213.27-51.01 234.85-173.68 0 0 22.65-118.68 36.9-167.33 11.32-95.99 12.86-223.24-17.99-370.24-5.6-26.7-34.01-144.31-40.59-173.73-25.29-113.09-85.38-324.96-215.84-569.55-11-271.06-57.54-498.5-139.46-682.52 207.93 257.61 403.64 592.59 542.94 1025.23 107.26 69.03 302.73 193.42 387.93 238.66zM2420.67 128.879s-293.44-36.367-487.28 73.652c0 0-311.24 127.641-421.56 396.11l-70.86 153.519s8.02 44.231 147.88 90.149l210.31 91.312c35.75 16.75 75.6 36.699 118.73 60.219 35.42 19.31 73.27 41.35 112.66 65.68-166.88-54.43-359-81.731-576.52-81.731-101.07 0-195.86 5.109-285.11 14.731l.41-.168-79.85 6.738-68.87-19.711c-9.49-2.84-19.01-5.559-28.653-8.207l-10.867-3.113.746.421c-81.676-21.648-167.277-35.539-245.309-30.25 0 0-44.269 68.31-67.531-9.691 0 0-140.586-181 1.828-332.859 0 0 48.289-76.348 85.278-73.918 0 0 61.144-65.891 98.086-3.153 0 0 83.558 98.153 181.662 74.903 0 0 104.49 9.699 283.75-224.223 7.46-9.73 29.79-38.148 42.74-51.16 70.56-70.899 316.63-299.95 555.1-304.547 0 0 292.69-38.402 437.38 13.957 0 0 219.45 71.703 65.85 101.34" style="fill:#ebe883;fill-opacity:1;fill-rule:nonzero;stroke:none" transform="matrix(.13333 0 0 -.13333 0 750.067)"/><path d="M1897.68 5625.44V2370.28c-3.17-134.98-24.08-402.67-136.84-503.14 0 0-141.19-170.42-497.01-102.96 0 0-130.07 24.24-215.68 128.01-5.71 6.92-21.8 29.42-29.98 44.93-5.78 10.96-12.99 25.87-20.775 44.86-2.356 5.75-20.407 66.99-22.489 80.42-12.07 78.06-20.144 183.68-24.242 246.52-2.113 32.4-3.168 140.02-3.168 140.02v358.74H631.594v-448.89l1.636 3.56s.098-47.74 3.407-105.57c.097-1.67.211-3.4.312-5.08.574-9.61 1.235-19.43 2.004-29.36.102-1.29.199-2.56.301-3.85 1.898-23.72 4.383-47.74 7.664-69.81 0 0 4.758-40.11 12.086-83.71 7.285-37.56 51.633-242.24 168.414-369.13C928.625 1592.3 1080.67 1505 1309.17 1491.46c92.37-9.58 206.56-12.66 307.34 10.2l-.16.04c70.67 12.3 153.95 36.37 236.2 81.39l-1.17.61s135.57 68.7 221.27 194.58c0 0 66.1 88.36 105.84 211.68 0 0 14.8 58.64 22.46 123.47.84 7.13 1.58 14.3 2.21 21.5.21 2.32.44 4.64.62 6.96 0 0 5.61 80.6 9.8 166.02v3317.53h-315.9" style="fill:#db571d;fill-opacity:1;fill-rule:nonzero;stroke:none" transform="matrix(.13333 0 0 -.13333 0 750.067)"/><path d="m2434.17 3993.31 11.53-2.18 84.92-15.41v1649.71h-316.8V2307.91c-4.19-85.43-9.8-166.03-9.8-166.03-.18-2.32-.42-4.64-.62-6.96-.63-7.2-1.37-14.37-2.21-21.49-7.67-64.84-22.46-123.47-22.46-123.47-39.74-123.33-105.85-211.69-105.85-211.69-85.7-125.88-221.26-194.58-221.26-194.58l1.17-.6c-82.26-45.03-165.54-69.1-236.2-81.4l.16-.03c-100.78-22.87-214.97-19.79-307.34-10.21-228.51 13.54-380.547 100.84-481.754 204.38-116.785 126.89-161.129 331.57-168.418 369.13-7.324 43.6-12.082 83.71-12.082 83.71-3.281 22.07-5.769 46.1-7.664 69.81-.101 1.29-.203 2.57-.301 3.85-.769 9.93-1.429 19.75-2.007 29.36-.098 1.68-.211 3.41-.309 5.08-.59 10.32-1.051 20.13-1.453 29.6-.66 11.96-1.242 23.55-1.672 34.27v19.64c-.215 11.4-.27 18.73-.277 20.89l-1.36-2.95v1.18l-.281-.62v448.89H317.848v-23.18l-.039.06v-389.48c.421-33.65 1.699-80.02 4.925-132.39l-.046.07s.757-43.21 9.421-109.95c2.973-26.86 6.469-54.05 10.758-81.03 11.84-111.88 97.274-617.23 683.233-795.43 12.29-4.15 24.81-8.15 37.6-11.98 0 0 282.53-86 604.51-23.89 0 0 36.86 15.93 40.72 17.87l2.14.94-.12.07c302.36 149.99 516.85 326.5 516.85 326.5 43.28 35.92 82.7 71.1 119 104.97l61.07 61.2c43.95 81.69 80.16 176.12 103.75 286.14 10.75 50.24 17.61 195.04 17.82 199.51.15 9.2.26 17.42.31 23.14l.07 10.88v.13l.8 132.68v1481.68l-46.95 17.82c-51.18 19.4-91.88 43.01-91.88 43.01-14.43 12.33-23.06 24.97-23.06 24.97-20.63 36.02 65.44 21.33 65.44 21.33" style="fill:#fbcf06;fill-opacity:1;fill-rule:nonzero;stroke:none" transform="matrix(.13333 0 0 -.13333 0 750.067)"/></svg>