<svg version="1.1" id="Layer_1" xmlns="http://www.w3.org/2000/svg" x="0" y="0" width="612" height="792" style="enable-background:new 0 0 612 792" xml:space="preserve"><style>.st0{fill:#145631}.st1{fill:#125631}.st3{fill:#747474}.st4{fill:#747475}</style><path class="st0" d="M161.7 112.8c2.1-.5 4.3-.8 6.4-.3.7.2 1.5.3 2.2.4.7.2 1.4.3 2.1.4l.5.5c.1 2.2.6 4.3.9 6.5-.2 0-.5.1-.7.2-.3.1-.7.1-1 .2-.5-2.5-2-5.1-4.5-6-.3-.1-.5-.1-.8-.2-1.4-.4-2.8-.3-4.1 0-.9.4-1.7.9-2.4 1.5-.9 1.1-1.5 2.5-1.4 4 .2.9.5 1.8.9 2.6.5.6 1.1 1.2 1.8 1.7 1.6 1.1 3.4 1.7 5.1 2.5 1.5.7 3.1 1.4 4.6 2.2.2.2.5.3.7.5 1.8 1.2 2.9 3.3 3.4 5.3.3 2.7-.3 5.5-2 7.6-1.5 1.7-3.6 2.9-5.8 3.6-.6.1-1.2.3-1.8.3h-6.3c-.3-.1-.6-.2-1-.3-1.3-.2-2.5-.7-3.7-1.1-.7-1.8-.9-3.8-1.3-5.7l-.3-1.2c-.1-.3-.1-.7-.2-1 .4 0 .8 0 1.2.1.1-.1.2-.3.2-.4 1 1.6 1.8 3.4 3 4.8 1.1 1.2 2.2 2.3 3.7 2.8 1.2.3 2.5.7 3.8.5.5-.2 1.1-.2 1.7-.4.4-.1.7-.2 1.1-.4.7-.5 1.5-.9 2-1.7.8-1 .9-2.2 1.1-3.4.1-.4 0-.9-.1-1.3-.2-2-1.5-3.6-3.1-4.7-1.7-1.1-3.7-1.8-5.5-2.8-2.5-1.2-5.1-2.6-6.7-5-1.2-2-1.1-4.5-.5-6.7.2-.5.5-.9.7-1.4 1.4-2.2 3.7-3.5 6.1-4.2zM256.8 112.7c1.6-.2 3.3-.7 4.9-.3 1.1.1 2.2.4 3.4.6.4.1.8.2 1.2.4h.9c.1.3.3.6.4.8 0 1.8.6 3.6.7 5.4.1.2.2.5.3.7-.2 0-.5.1-.7.2-.3.1-.7.1-1 .2-.3-1.1-.7-2.2-1.2-3.2-.8-1.2-1.8-2.1-3-2.8-1.6-.4-3.4-.8-5-.3-1.3.4-2.5 1.2-3.3 2.4-.4 1-.8 2-.6 3.2.3 2.4 2.2 4.2 4.3 5.2 1.2.6 2.4 1 3.6 1.7h.4c1.3.7 2.6 1.3 3.9 1.9 1.8 1.2 3.4 2.9 4 5.1.1.6.1 1.2.3 1.7.1 1.1-.2 2.3-.3 3.4-.7 2.1-2 3.9-3.9 5.2-1.1.7-2.2 1.3-3.5 1.7-.4.1-.8.2-1.2.4h-6c-.8 0-1.7-.2-2.5-.3-1.1-.4-2.3-.6-3.3-1.2-.5-1.3-.7-2.7-.9-4.1l-.3-1.2c-.1-.4-.1-.8-.2-1.2l-.3-1.2h1.2l.4-.4c.6 1.4 1.4 2.7 2.3 3.9 0 .1.1.2.1.3.9.9 1.7 1.9 2.7 2.6.5.3 1.1.6 1.6.9.3.1.6.1 1 .2.9.2 1.9.4 2.8.3.8-.3 1.6-.3 2.4-.6 1.4-.6 2.4-1.8 3-3.1.4-1.3.2-2.7.2-4.1-.1-.3-.3-.6-.4-1-.8-2-2.7-3.1-4.6-3.9-2.7-1.4-5.7-2.6-8.2-4.5-1.1-1-2.2-2-2.7-3.4-.4-1.3-.3-2.7-.3-4 .4-1.2.7-2.5 1.5-3.6 1.4-1.5 3-2.9 5.1-3.4.2-.4.5-.5.8-.6z"/><path class="st1" d="M179.5 113.1h9.5v1.3c-.3 0-.6 0-1 .1s-.9.2-1.3.2c-1 .2-1.7.9-2.3 1.7 0 .5 0 1.1-.2 1.6-.1 4.7 0 9.4 0 14 .1 1.7.4 3.4.8 5 .3 1 .8 1.9 1.2 2.8.7 1.1 1.7 2 2.8 2.7.2.1.5.2.7.3 1.6.8 3.3 1 5.1.9 3.9.2 7.7-2.4 8.8-6.2.6-1.7.9-3.5 1-5.2.4-2 0-4.1.2-6.1-.2-2.5.2-5.1-.2-7.6 0-1.3-.2-2.7-1.3-3.5-.1-.1-.4-.2-.6-.3-.1 0-.4-.1-.6-.1-.6-.1-1.2-.2-1.7-.4h-1.5V113h13.6v1.3c-.4 0-.7.1-1.1.1-.4.1-.8.2-1.2.2-1.1.2-1.9 1.1-2.5 2-.1 1.3-.4 2.6-.5 3.9V131c-.1.9-.2 1.9-.2 2.8 0 .1-.1.2-.2.3l-.3 2.1c-.1.3-.2.6-.3 1-.3 1.2-.9 2.3-1.4 3.4-.9 1.2-1.7 2.5-3 3.3-1.5 1.1-3.2 1.7-5 2.1-2.1.5-4.3.2-6.5.3-.8-.2-1.5-.3-2.3-.5l-1.2-.3c-1.3-.5-2.6-1.1-3.7-2.1-.7-.5-1.1-1.2-1.7-1.8-.5-.8-1-1.6-1.2-2.5-.1-.2-.1-.5-.2-.7-.1-.4-.2-.8-.4-1.2 0-.9-.3-1.8-.3-2.8.2-7.1.2-14.2.2-21.3zM270.2 113.1h30c0 1.5.3 2.9.3 4.4.1 1 .3 2.1.2 3.1l-1.5.3c-.1-.2-.1-.4-.2-.6-.3-1.1-.7-2.2-1.2-3.2l-.6-.9c-1.4-1.1-3.3-1.2-5-1.4h-4.7v23.5c.3 1.7-.1 3.6 1.1 5 1.4 1.1 3.3.8 4.9 1.2v1.2h-16.4v-1.2c.4-.1.7-.2 1.1-.3.6 0 1.1 0 1.7-.1.4-.1.9-.3 1.3-.4.3-.3.8-.5 1-1 .2-.7.3-1.3.5-2v-25.9h-12.5v-1.7z"/><path class="st0" d="M339.3 113.1h2.5c2.2 2.5 4.6 4.9 6.8 7.4 1.3 1.3 2.4 2.7 3.8 4 1 1.4 2.3 2.4 3.3 3.7.6.7 1.3 1.3 1.9 2 1 1.4 2.4 2.3 3.3 3.7 1.4 1.2 2.5 2.7 3.8 4 .1-8.3 0-16.6 0-24.9h7.6v1.3c-.4 0-.7 0-1.1.1-.7.2-1.4.3-2 .5-.6.3-1 .8-1.4 1.2-.2.7-.3 1.4-.5 2.1-.1 1.2.2 2.4-.2 3.5-.1 8.1 0 16.2 0 24.3h-1.5c-4.3-4.8-8.6-9.5-13-14.3-.8-1.1-1.9-2-2.8-3.1-1.3-1.2-2.3-2.6-3.6-3.9-.7-.9-1.6-1.7-2.3-2.6-.7-.9-1.7-1.6-2.4-2.6.1 4.6 0 9.2 0 13.8 0 1.3-.1 2.6.1 3.9.2 1.6-.1 3.2.4 4.7.5.8 1.3 1.5 2.2 1.8 1 .3 2 .2 3 .5v1.3h-13.4v-1.3c.2 0 .5-.1.7-.1 1-.3 2.3-.2 3.1-1 1.7-1.4.9-3.7 1.4-5.6.3-8 .2-16.2.3-24.4zM374.5 113.1h30v4.3c.3.9.1 1.8.2 2.7l.4.4c-.6.1-1.2.3-1.8.4-.1-.3-.1-.6-.2-.9-.3-1.1-.7-2.2-1.3-3.2-.3-.3-.5-.6-.8-1-.6-.3-1.3-.6-1.9-.8-.6-.1-1.3-.1-1.9-.1-.1-.1-.2-.2-.3-.2h-5.1v25.2c0 .9.3 1.7.5 2.5l.3.6c1.2.7 2.6 1.2 4 1.1.3.1.7.2 1.1.3v1.2h-16.4v-1.2c1.5-.4 3.2-.2 4.6-1.1.7-.5.7-1.5 1-2.3v-26.2h-12.3c-.1-.6-.1-1.2-.1-1.7z"/><path class="st1" d="M406.8 113.1h9.9v26.7c0 1.1.1 2.3.7 3.2 1.1 1.3 2.8 1.1 4.3 1.4v1.3h-9.9v-27c0-1.1-.2-2.1-.6-3.1-.9-.6-1.8-1.1-2.9-1-.1-.1-.3-.2-.4-.2h-1c-.1-.5-.1-.9-.1-1.3z"/><path d="M153 150.2h303.2v2H152.9c.1-.7.1-1.4.1-2z" style="fill:#155632"/><path class="st3" d="M375.4 156.5c1.1 1 2.4 1.7 3.5 2.8 1.2 2 2.5 4 3.8 6.1.1 0 .3.1.3.2.9-1.8 2.2-3.5 2.9-5.4-.6-.2-1.3-.3-1.9-.4v-.6h5.4v.6c-1 0-1.9.6-2.4 1.4-1.2 1.9-2.6 3.7-3.5 5.7-.2 1.5-.1 3.1.2 4.6.4.2.7.4 1.1.6h1v.7h-6.7v-.6c.8-.1 1.5-.3 2.2-.7v-4.3c0-.4-.2-.7-.4-1-1.9-3.1-3.6-6.3-5.4-9.4-.2 0-.1-.2-.1-.3zM263.1 159.3h10.4c0 1.1.1 2.2.3 3.2h-.9c-.3-.7-.5-1.4-.9-2.1-1.6-.4-3.2-.2-4.8-.3v5.2c1.5 0 3 .3 4.3-.6v-.9l.9-.3v4.5l-.9-.3v-.7c-.2-.2-.3-.4-.5-.6-1.2-.3-2.5-.3-3.8-.2v5.8c1.2.1 2.4.1 3.7.1.6 0 1.2.1 1.7-.3.8-.6 1-1.5 1.5-2.3.3 0 .5 0 .8.1-.2 1.1-.6 2.3-.8 3.4H263v-.7h1.5c.3-.5.7-1 .6-1.6v-9.1c.1-.6-.3-1.1-.6-1.7h-1.3c-.1-.1-.1-.5-.1-.6z"/><path class="st4" d="M323.9 159.3h4.3v.6c-.8 0-1.5.2-2.2.7v10.7c.2.2.3.4.5.5 1.4.3 2.8.3 4.2 0 .7-.7 1.2-1.5 1.5-2.3h.9c-.3 1.1-.6 2.3-.9 3.5h-10.5v-.6c.7-.1 1.3-.3 1.9-.7.4-1.8.2-3.7.3-5.5v-6.9zM347.5 160.1v-.9h12.7c0 1.1.1 2.2.3 3.3h-.8c-.3-.9-.6-2-1.6-2.3-1.1-.2-2.1-.1-3.2-.1.1 3.8-.2 7.7.3 11.5.7.5 1.5.7 2.3.7v.6h-6.9v-.6c.8 0 1.5-.3 2.1-.7.4-3.8.2-7.6.2-11.4-1.8-.1-3.6-.1-5.4-.1z"/><path class="st1" d="M370.1 100.9c-2.2-.6-4.5-.4-6.5-1.5-1.5-.8-2.8-1.9-3.7-3.3-.9-1.2-1.6-2.5-2.6-3.6 0-.1-.1-.3-.2-.3-.2-.2-.3-.4-.4-.6-1.5-2.3-3.1-4.4-4.6-6.7-.6-.8-1.2-1.6-1.7-2.5l-.3-.3-1.2-1.8-1.5-2.1c-.5-.7-1-1.5-1.5-2.1-.6-1-1.3-1.9-2-2.8-.3-.4-.6-.8-.8-1.3-1.7-2.4-3.3-4.8-5-7.2-.6-.9-1.2-1.7-1.8-2.6.2-.1.6-.2.8-.2 2.2-.8 4.3-1.8 6.4-2.9 2-1.2 4-2.5 5.8-4.2 3-2.9 5.2-6.6 6.2-10.6.1-.4.1-.8.2-1.2.4-1.6.2-3.2.5-4.8-.3-.9-.1-1.9-.2-2.8-.1-.8-.3-1.7-.4-2.5l-.3-1.2c-.5-1.3-.9-2.6-1.7-3.8-3-5.2-8.7-8.1-14.3-9.6-1.2-.3-2.5-.6-3.7-.9-1.4-.2-2.9-.5-4.3-.5-1-.4-2.1 0-3-.4-8.1-.1-16.2 0-24.3 0-1.1 0-2.2.1-3.2-.1-1.4-.5-2.9-.7-4.4-1-.3-.1-.6-.2-1-.2-.5-.1-.9-.2-1.4-.3-2.4-.6-4.7-.9-7.1-1.3-.8 0-1.6-.1-2.4-.2-1.3-.1-2.5 0-3.8 0-.9.3-1.8.1-2.7.2-.6.2-1.2.2-1.9.3-2 .3-3.9.8-5.8 1.5-.3.1-.6.2-1 .3-3.2 1.3-6.3 2.9-8.9 5.2-2.6 2-4.5 4.7-6 7.6-.4 1.1-1 2.2-1.2 3.4l-.3 1.2c-.2.8-.2 1.7-.5 2.5 0 2.2-.2 4.4.3 6.6.1.5.2.9.3 1.4.8 2.8 2.4 5.4 4.5 7.5 2.4 2.6 5.3 4.7 8.4 6.5 3.9 2.3 8.1 4.1 12.1 6.1 2.3 1 4.5 2.2 6.7 3.3 1.5.7 3 1.5 4.4 2.5 2.3 1.6 4.3 3.8 5.6 6.3.1.2.2.5.3.7.4.8.7 1.7 1 2.6.1.3.1.7.2 1 .1.6.2 1.2.3 1.7v4.5c-.3 1-.3 2-.5 3-.5 2.2-1.3 4.3-2.8 6l-2.1 2.1c-2.2 1.7-4.8 2.7-7.5 3.2-.6.1-1.3.1-1.9.3-2.2 0-4.3.1-6.5 0-1.7-.3-3.4-.7-5-1.3-.2-.1-.5-.2-.7-.3-3.6-1.4-6.6-4-9.1-6.9-.2-.4-.5-.7-.8-1 0-.1-.1-.2-.2-.3-2.8-3.4-4.8-7.4-6.9-11.3-1.4-.2-2.7.3-4.1.4v.2c.3 1.4.6 2.7.9 4.1.1.7.3 1.3.4 2 .4 2.1.9 4.1 1.3 6.2.2.8.3 1.5.5 2.3.1.4.1.8.2 1.2.3 1.6.7 3.1 1 4.7h.5c.2.1.5.2.7.4 1.5.4 3 1.2 4.6 1.5 1.1.4 2.2.8 3.3 1 2.5.6 5.1 1.3 7.7 1.5 3.1.5 6.2.4 9.3.3.8-.3 1.7-.1 2.6-.3 1.4-.1 2.8-.6 4.2-.5h38v-3.4c-2.2.1-4.5-.4-6.6-.8-1.9-.7-4-1.6-5.2-3.4-.9-1.7-1.3-3.6-1.4-5.5-.3-1.6 0-3.3-.4-4.9V66c4.8 0 9.6-.1 14.4.1.8 1.4 1.8 2.6 2.6 4 1.2 2 2.6 3.8 3.8 5.9l2.4 3.6c1 1.7 2.2 3.3 3.2 5l1.5 2.4c1.6 2.6 3.3 5.1 4.9 7.6.6.9 1.1 1.7 1.7 2.6.9 1.4 1.7 2.7 2.6 4.1.9 1.2 1.6 2.5 2.5 3.8h22.2v-3.4c-.4-.6-1-.7-1.7-.8zm-72.7-42.4c-.1-.1-.3-.2-.3-.2-.9-.4-1.7-.9-2.6-1.2-4.4-2-8.7-4-13.1-6l-3.9-1.8c-1.2-.5-2.4-1-3.5-1.7-.8-.4-1.6-.9-2.4-1.4-1.6-1-2.9-2.5-4.3-3.8-.7-.7-1.1-1.5-1.6-2.3-.8-1.2-1.2-2.7-1.6-4-.1-.5-.1-1-.1-1.5-.3-1.1-.3-2.2 0-3.3 0-1.6.5-3.1 1.2-4.6.1-.1.2-.4.2-.5.6-1.4 1.7-2.5 2.6-3.7 1.2-.9 2.3-1.9 3.7-2.6 1.4-.6 2.8-1.1 4.3-1.5.7-.1 1.4 0 2.1-.3 1.3-.1 2.6-.1 3.9 0 .7.2 1.4.1 2.1.3 1.3.3 2.6.6 3.8 1 2.7 1.1 5.1 2.8 7 5 .4.6.9 1.1 1.3 1.7.1.2.3.4.4.7.3.7 1 1.3.9 2.1-.1 9.8-.1 19.7-.1 29.6zm36.4-3.2c-.4.2-.8.5-1.2.7-.7.5-1.5.9-2.3 1.2-.2.1-.5.2-.7.3-.8.2-1.5.5-2.3.8-.3.1-.7.1-1 .2l-1.2.3c-.5 0-.9.1-1.3.2-1.2 0-2.5.3-3.7.3h-10.3V21.4c0-.9.3-1.8.7-2.6.4-.2.8-.6 1.3-.5h10c1 0 2 .2 3 .3 2.9.4 5.6 1.4 8.1 2.7 3.1 1.8 5.8 4.4 7.2 7.7.4.9.7 1.7 1 2.6l.3 1.2c.6 3.1.7 6.2.2 9.3-.2.7-.3 1.5-.4 2.2l-.3 1.2c-.7 2.1-1.6 4-2.9 5.8-1.2 1.6-2.6 2.9-4.2 4z"/><path class="st0" d="M330.3 144.1c-.7-.3-1.5-.5-2-1.1-1-1.3-1.7-2.8-2.3-4.3-.1-.2-.2-.5-.3-.7-1.1-2.4-2-4.9-3-7.3-.1-.2-.2-.5-.3-.7-1.1-2.3-1.9-4.8-2.9-7.1-.5-1.4-1.1-2.7-1.7-4.1l-2.7-6.6-1.5.6c-1.1 2.8-2.3 5.4-3.5 8.2l-4.5 10.5c0 .1-.1.4-.2.5-.1.2-.2.4-.3.7-1.4 3.2-2.6 6.4-4.2 9.5-.5 1-1.6 1.5-2.6 1.9-.4 0-.8.1-1.3.1l-.6.3v1.2h11.9v-1.3c-1.4 0-2.8-.2-3.9-1.1-.1-1.7.6-3.3 1.1-4.8.4-1.2.9-2.3 1.3-3.5.2-.5.5-1.1.7-1.6h11c.4.8.7 1.7 1.1 2.6.3.8.7 1.6 1 2.4.6 1.5 1.2 3 1.7 4.6 0 .9-1 1.2-1.7 1.3-.6.2-1.3.1-2 .2 0 .4.1.8.1 1.3H332v-1.3c-.4-.3-1.1-.4-1.7-.4zm-21.9-12.9c.7-1.7 1.4-3.4 2.1-5.2.3-1.1.8-2.1 1.2-3.1.1-.2.2-.5.3-.7.3-.9.7-1.7 1.1-2.6h.3v.5c.1.3.3.5.4.8 1.4 3.5 2.7 6.9 4.1 10.4-3.2-.1-6.3-.1-9.5-.1zM446.1 144.4v1.3h13.6v-1.2c-.2-.1-.6-.2-.8-.3-1.2 0-2.3-.4-3.2-1.3-.9-.8-1.4-2-1.9-3.1-1-2.4-1.9-4.8-3-7.3-1.9-4.7-3.8-9.4-5.8-14.2-.1-.2-.2-.5-.3-.7-.9-1.8-1.4-3.7-2.3-5.5-.5.2-.9.4-1.4.6-1.7 3.9-3.4 7.9-5.1 11.8l-.6 1.2v.4c-.9 2-1.7 4-2.6 6-.6 1.3-1.1 2.7-1.7 4-.5 1.2-1 2.5-1.7 3.7v.4c-.7 1.3-1.3 2.8-2.7 3.5-.4.1-.7.2-1.1.3-.6.1-1.3.2-1.9.4v1.3h12.1v-1.3h-1.3c-.8-.2-1.8-.2-2.5-.9-.6-.9-.1-2 .2-3l.3-.9c.8-2.1 1.6-4.1 2.4-6.1h11.1c0 .2.1.5.1.7.6 1.1.9 2.2 1.5 3.3v.4c.1.2.2.4.4.7.4 1.1.9 2.1 1.2 3.2.1.2.2.5.3.7 0 .4.1.8.1 1.1-.6.5-1.4.7-2.2.9-.2-.1-.7-.1-1.2-.1zm-10.2-13.3c.9-2.3 1.8-4.6 2.8-6.9.6-1.6 1.2-3.2 1.9-4.8 1.5 3.6 2.9 7.2 4.4 10.8.1.3.3.6.4.9-3.2.1-6.4.1-9.5 0zM243.8 133.5c-.1-.2-.1-.5-.2-.7-1-2.1-2.9-3.6-5.1-4.4-.1-.1-.4-.2-.5-.2-.9-.3-1.9-.4-2.8-.7 3-.8 5.9-2.9 6.6-6 .4-2.6-.7-5.4-3-6.8-1.1-.6-2.2-1-3.4-1.3-.5-.1-1-.1-1.5-.1-.6-.2-1.3-.2-2-.2h-11.2v25.4c0 1-.3 2-.2 3.1-.1.3-.2.6-.3 1l-.3.6c-.2.2-.5.3-.7.5-.4.1-.7.3-1.1.4-.8.1-1.7.1-2.5.4v1.2h14.9c2-.2 3.9-.4 5.8-.9.2-.1.5-.2.7-.3l.9-.3c1-.4 1.9-.9 2.8-1.5 1.5-.9 2.5-2.5 3.1-4.2.4-1.6.5-3.4 0-5zm-18.2-18.2c.1-.1.2-.4.3-.6 2 .1 3.9-.1 5.9.1 1.1.3 2.1.8 3 1.3 1.9 1.7 2.3 4.4 1.7 6.8-.6 1.7-2 3.1-3.8 3.6-2.3.8-4.8.3-7.2.5 0-3.8 0-7.7.1-11.7zm12.8 23.3c-.4 1.8-1.5 3.4-3.3 4.1-2.7 1-5.6 1.1-8.4 1-.4 0-.8-.2-1.2-.4v-14.5h4.5c1.9.2 3.8.7 5.5 1.6l.3.3c2.5 1.7 3.3 5.1 2.6 7.9z"/><path class="st3" d="M244.1 171.5c-1.2-1.5-2.1-3.1-3.3-4.6 0-.1-.1-.4-.1-.6 1.1-.5 2.3-1.3 2.6-2.5.2-1.2.3-2.7-.8-3.5-1-.7-2.3-1-3.6-1h-4.6v9.6c0 .9 0 1.9-.4 2.7-.4.6-1.2.6-1.8.7v.6h6.3v-.6c-.2 0-.5 0-.7-.1l-.9-.3c-.6-1.6-.2-3.3-.3-4.9h2c1.1 2 2.6 3.8 3.7 5.9h3.8v-.6c-.6-.2-1.4-.2-1.9-.8zm-5.6-5.3h-2c.1-2.1-.1-4.2.1-6.3 1.4-.1 2.8.2 3.9 1.1.3.7.5 1.4.7 2.1-.2.7-.4 1.4-.8 2-.4.6-1.2.8-1.9 1.1zM300 172.2v.7h5.8v-.5c-.8-.2-1.7-.5-2-1.3-1.1-2.4-2-5-3.1-7.4-.8-1.7-1.2-3.5-2.2-5-.5.6-.8 1.2-1.1 1.9-1.1 2.7-2.3 5.4-3.4 8.1-.7 1.3-.9 3.1-2.4 3.7h-.8v.7h5.1v-.6c-.5-.1-1.1-.2-1.6-.3.2-1.5.7-2.9 1.4-4.3 1.4 0 2.9-.1 4.3.1.7 1.2 1.1 2.6 1.6 3.9-.1.1-.2.4-.3.6-.4-.3-.9-.3-1.3-.3zm-4.1-5.4c.6-1.6 1.3-3.1 1.9-4.7.7 1.5 1.3 3.1 1.9 4.6-1.3.1-2.5.1-3.8.1z"/></svg>