<svg version="1.1" id="Layer_1" xmlns="http://www.w3.org/2000/svg" x="0" y="0" width="348.9" height="188.6" style="enable-background:new 0 0 348.9 188.6" xml:space="preserve"><style>.st1{fill:#ffb548}.st2{fill:#002d74}</style><path style="fill:#fff" d="M-.2 0H349v188.6H-.2z"/><path class="st1" d="M186.9 51c3.7-2.8 7.7-5.8 11.7-9 2.5-2 3.6-5.1-.3-7.6-3.1-2.1-17.2-12.3-22.2-15.5-3-1.9-10.8 1.6-8.5 9.4 1.6 5.3 9 13.7 19.3 22.7zM161.7 70.3c-3.7 2.8-7.7 5.8-11.7 9-2.5 2-3.6 5.1.3 7.7 3.1 2.1 17.2 12.3 22.2 15.5 3 1.9 10.8-1.6 8.5-9.4-1.5-5.4-8.9-13.8-19.3-22.8zM192.5 66.5c-.8-.8-22.7-23.6-22.7-23.6-6.6-7-8.8-11.9-8.5-15.6.2-2.1-1.2-1-8.8 4.4-10.6 7.5-1.9 17.1 3.7 22.9.8.8 22.7 23.6 22.7 23.6 6.6 7 8.8 11.9 8.5 15.6-.2 2.1 1.2 1 8.8-4.4 10.6-7.4 1.9-17-3.7-22.9z"/><path class="st2" d="m52.5 134.7-2.4.8c-3.1-5.1-9.5-11.7-15.9-11.7-4.4 0-8 2.4-8 6.9 0 5.2 5.5 6.6 9.6 7.9l3.8 1.2c7.8 2.5 15.5 6.2 15.5 15.6 0 8.7-7.3 14.8-15.6 14.8-2.7 0-5.4-.6-8-1.4-1.2-.4-2-.7-3.2-.7-1.1 0-1.7.1-5.7 2l-4.1-14.7 2.5-.8c3.8 6 9.9 13.1 17.6 13.1 4.6 0 9.3-3.2 9.3-8.2 0-5.2-5.1-6.8-9.2-8.1-8.5-2.7-19.1-5.9-19.1-16.7 0-8.1 6.4-13.4 14.3-13.4 2.6 0 4.6.4 7 1.3.9.3 1.7.6 2.7.6 1.6 0 3.8-1.3 4.9-2.4l4 13.9zM57.3 154.2c0-11 9.4-16.6 17.2-16.6 10.4 0 15.5 8.2 15.5 15.2 0 9.7-6.6 17-16.4 17-8.8.1-16.3-6.5-16.3-15.6zm9.2-.2c0 4.7 1 13.4 7.3 13.4 6.2 0 7.1-8.9 7.1-13.4 0-4.6-.5-13.9-6.9-13.9s-7.5 9.2-7.5 13.9zM114.1 164.7c-3.4 2.7-7.1 5.2-11.6 5.2-6.1 0-8.7-4.1-8.7-9.4V149c0-3.4-.8-5.7-4.5-6.1v-2L103 137v23.3c0 2.5 1.8 4.1 4.5 4.1 2.5 0 4.9-1.8 6.7-3.4v-12c0-3.4-.8-5.7-4.5-6.1v-2l13.7-3.9v24.1c0 3.4.8 5.7 4.6 6v2h-13.8v-4.4zM125.8 141.2v-3c8.2-.8 9.4-5.3 11.3-11.1h2.4v11.1h8.9v3h-9v19.5c0 2.4.8 4.6 4.1 4.6 1.7 0 3.6-1.2 4.9-2.3l1.5 1.4c-2.4 3.1-6.7 5.5-10.6 5.5-6.8 0-9-5.2-9-8.9v-19.9h-4.5zM163.3 142.6c3.4-2.7 6.4-4.9 11-4.9 4.8 0 9 3.9 9 8.8V163c.1 3.8 2.2 4.1 4.1 4.1v2H170v-2c2.3 0 4-.3 4.2-5.2v-14.5c0-.9-.8-4.3-4.6-4.3-2.2 0-4.2 1.5-6.1 2.4V163c.1 3.8 2.2 4.1 4.1 4.1v2h-17.4v-2c2.3 0 4-.3 4.2-5.2v-28.6c-.1-3.4-.8-5.7-4.5-6.1v-2l13.7-3.9v21.3zM222.9 134.7l-2.4.8c-3.1-5.1-9.5-11.7-15.9-11.7-4.4 0-8 2.4-8 6.9 0 5.2 5.5 6.6 9.6 7.9l3.8 1.2c7.8 2.5 15.5 6.2 15.5 15.6 0 8.7-7.3 14.8-15.6 14.8-2.7 0-5.4-.6-8-1.4-1.2-.4-2-.7-3.2-.7-1.1 0-1.7.1-5.7 2l-4.1-14.7 2.5-.8c3.8 6 9.9 13.1 17.6 13.1 4.6 0 9.3-3.2 9.3-8.2 0-5.2-5.1-6.8-9.2-8.1-8.5-2.7-19.1-5.9-19.1-16.7 0-8.1 6.4-13.4 14.3-13.4 2.6 0 4.6.4 7 1.3.9.3 1.7.6 2.7.6 1.6 0 3.8-1.3 4.9-2.4l4 13.9zM224.7 141.2v-3c8.2-.8 9.4-5.3 11.3-11.1h2.4v11.1h8.9v3h-9v19.5c0 2.4.8 4.6 4.1 4.6 1.7 0 3.6-1.2 4.9-2.3l1.5 1.4c-2.4 3.1-6.7 5.5-10.6 5.5-6.8 0-9-5.2-9-8.9v-19.9h-4.5z"/><path class="st2" d="M276.7 161.7c.1 1.6-.1 3.6 2.2 3.6.5 0 1.1-.2 1.6-.4l.4 1.1c-1.5 2.2-4.4 3.8-7.1 3.8s-5-1.5-6.3-3.8c-3.2 2.5-6.6 3.8-10.8 3.8-5.2 0-9.4-2.4-9.4-8 0-8.9 13.4-11.3 20.1-12.4v-1.7c0-3.1.3-8-4.2-8-3.1 0-3.9 2.4-4.8 4.8-.8 2.2-2.2 4.5-4.7 4.5-2 0-4-1.5-4-3.7 0-3.1 3.8-7.7 14.6-7.7 2.8 0 7.1.5 9.4 2.4 2.9 2.4 2.9 5.2 2.9 8.2v13.5zm-9.2-9.5c-5.1.6-10.6 2.7-10.6 8.7 0 2.9 1.5 5.1 4.5 5.1 2.4 0 4.6-1.8 6.1-3.5v-10.3zM279.9 141.2v-3c8.2-.8 9.4-5.3 11.3-11.1h2.4v11.1h8.9v3h-9v19.5c0 2.4.8 4.6 4.1 4.6 1.7 0 3.6-1.2 4.9-2.3l1.5 1.4c-2.4 3.1-6.7 5.5-10.6 5.5-6.8 0-9-5.2-9-8.9v-19.9h-4.5z"/><path class="st2" d="M308.8 153.6c0 5.9 4.1 12.4 10.8 12.4 3.6 0 6.9-2.1 9.4-4.6l1.5 1.3c-3.9 4.6-8.2 7.1-14.5 7.1-8.8 0-16.4-5.9-16.4-15.2 0-4.1 1.5-8.3 4.1-11.5 3-3.6 7.1-5.5 11.8-5.5 8.9 0 14.9 7 14.7 16h-21.4zm13.4-2.7c0-6.2-1.2-10.5-6.2-10.5-5.5 0-7.1 6.4-7.2 10.5h13.4z"/></svg>