<svg version="1.1" id="Layer_1" xmlns="http://www.w3.org/2000/svg" x="0" y="0" width="720" height="720" style="enable-background:new 0 0 720 720" xml:space="preserve"><style>.st0{fill:#12284b}.st1{fill:#6dbe4b}</style><path class="st0" d="m97.5 384.9 2.9 5c.1.1.2.2.4.3.2 0 .3 0 .5-.1l23.4-13.5c.1-.1.2-.2.3-.4 0-.1 0-.3-.1-.4l-2.9-5c-.1-.1-.2-.2-.4-.3-.2 0-.3 0-.4.1l-23.4 13.5c-.1.1-.2.2-.3.4-.1.1 0 .2 0 .4z"/><path class="st0" d="M97.5 335.6c0 .2.1.3.3.4l23.4 13.5c.1.1.3.1.4.1.2 0 .3-.1.4-.3l2.9-5c.1-.1.1-.3.1-.4 0-.2-.1-.3-.3-.4L101.3 330c-.1-.1-.3-.1-.5-.1-.1 0-.3.1-.4.3l-2.9 5c0 .1-.1.2 0 .4zm0 49.3 2.9 5c.1.1.2.2.4.3.2 0 .3 0 .5-.1l23.4-13.5c.1-.1.2-.2.3-.4 0-.1 0-.3-.1-.4l-2.9-5c-.1-.1-.2-.2-.4-.3-.2 0-.3 0-.4.1l-23.4 13.5c-.1.1-.2.2-.3.4-.1.1 0 .2 0 .4z"/><path class="st0" d="M143.2 305.9h5.7c.2 0 .3.1.4.2.1.1.2.3.2.4v27.1c0 .2-.1.3-.2.4-.1.1-.3.2-.4.2h-5.7c-.2 0-.3-.1-.4-.2-.1-.1-.2-.3-.2-.4v-27.1c0-.2.1-.3.2-.4.1-.1.2-.2.4-.2zm-45.7 29.7c0 .2.1.3.3.4l23.4 13.5c.1.1.3.1.4.1.2 0 .3-.1.4-.3l2.9-5c.1-.1.1-.3.1-.4 0-.2-.1-.3-.3-.4L101.3 330c-.1-.1-.3-.1-.5-.1-.1 0-.3.1-.4.3l-2.9 5c0 .1-.1.2 0 .4zm0 49.3 2.9 5c.1.1.2.2.4.3.2 0 .3 0 .5-.1l23.4-13.5c.1-.1.2-.2.3-.4 0-.1 0-.3-.1-.4l-2.9-5c-.1-.1-.2-.2-.4-.3-.2 0-.3 0-.4.1l-23.4 13.5c-.1.1-.2.2-.3.4-.1.1 0 .2 0 .4z"/><path class="st0" d="M143.2 305.9h5.7c.2 0 .3.1.4.2.1.1.2.3.2.4v27.1c0 .2-.1.3-.2.4-.1.1-.3.2-.4.2h-5.7c-.2 0-.3-.1-.4-.2-.1-.1-.2-.3-.2-.4v-27.1c0-.2.1-.3.2-.4.1-.1.2-.2.4-.2zm-45.7 29.7c0 .2.1.3.3.4l23.4 13.5c.1.1.3.1.4.1.2 0 .3-.1.4-.3l2.9-5c.1-.1.1-.3.1-.4 0-.2-.1-.3-.3-.4L101.3 330c-.1-.1-.3-.1-.5-.1-.1 0-.3.1-.4.3l-2.9 5c0 .1-.1.2 0 .4zm93.4-5.1c-.2 0-.3 0-.4.1L167 344.1c-.1.1-.2.2-.3.4 0 .2 0 .3.1.4l2.9 5c.1.1.2.2.4.3.2 0 .3 0 .5-.1l23.4-13.5c.1-.1.2-.2.3-.4 0-.1 0-.3-.1-.4l-2.9-5c-.1-.2-.2-.2-.4-.3zm-93.4 54.4 2.9 5c.1.1.2.2.4.3.2 0 .3 0 .5-.1l23.4-13.5c.1-.1.2-.2.3-.4 0-.1 0-.3-.1-.4l-2.9-5c-.1-.1-.2-.2-.4-.3-.2 0-.3 0-.4.1l-23.4 13.5c-.1.1-.2.2-.3.4-.1.1 0 .2 0 .4z"/><path class="st0" d="M143.2 305.9h5.7c.2 0 .3.1.4.2.1.1.2.3.2.4v27.1c0 .2-.1.3-.2.4-.1.1-.3.2-.4.2h-5.7c-.2 0-.3-.1-.4-.2-.1-.1-.2-.3-.2-.4v-27.1c0-.2.1-.3.2-.4.1-.1.2-.2.4-.2zm-45.7 29.7c0 .2.1.3.3.4l23.4 13.5c.1.1.3.1.4.1.2 0 .3-.1.4-.3l2.9-5c.1-.1.1-.3.1-.4 0-.2-.1-.3-.3-.4L101.3 330c-.1-.1-.3-.1-.5-.1-.1 0-.3.1-.4.3l-2.9 5c0 .1-.1.2 0 .4zm93.7 53.6 2.9-5c.1-.1.1-.3.1-.4 0-.2-.1-.3-.3-.4l-23.4-13.5c-.1-.1-.3-.1-.5-.1s-.3.1-.4.3l-2.9 5c-.1.1-.1.3-.1.4 0 .2.1.3.3.4l23.4 13.5c.1.1.3.1.4.1.3 0 .5-.1.5-.3zm-.3-58.7c-.2 0-.3 0-.4.1L167 344.1c-.1.1-.2.2-.3.4 0 .2 0 .3.1.4l2.9 5c.1.1.2.2.4.3.2 0 .3 0 .5-.1l23.4-13.5c.1-.1.2-.2.3-.4 0-.1 0-.3-.1-.4l-2.9-5c-.1-.2-.2-.2-.4-.3zm-93.4 54.4 2.9 5c.1.1.2.2.4.3.2 0 .3 0 .5-.1l23.4-13.5c.1-.1.2-.2.3-.4 0-.1 0-.3-.1-.4l-2.9-5c-.1-.1-.2-.2-.4-.3-.2 0-.3 0-.4.1l-23.4 13.5c-.1.1-.2.2-.3.4-.1.1 0 .2 0 .4z"/><path class="st0" d="M143.2 305.9h5.7c.2 0 .3.1.4.2.1.1.2.3.2.4v27.1c0 .2-.1.3-.2.4-.1.1-.3.2-.4.2h-5.7c-.2 0-.3-.1-.4-.2-.1-.1-.2-.3-.2-.4v-27.1c0-.2.1-.3.2-.4.1-.1.2-.2.4-.2z"/><path class="st1" d="M143.1 414.1h5.7c.2 0 .3-.1.4-.2.1-.1.2-.3.2-.4v-27.1c0-.2-.1-.3-.2-.4-.1-.1-.3-.2-.4-.2h-5.7c-.2 0-.3.1-.4.2-.1.1-.2.3-.2.4v27.1c0 .2.1.3.2.4.1.1.3.2.4.2z"/><path class="st0" d="M97.5 335.6c0 .2.1.3.3.4l23.4 13.5c.1.1.3.1.4.1.2 0 .3-.1.4-.3l2.9-5c.1-.1.1-.3.1-.4 0-.2-.1-.3-.3-.4L101.3 330c-.1-.1-.3-.1-.5-.1-.1 0-.3.1-.4.3l-2.9 5c0 .1-.1.2 0 .4zM191.2 389.2l2.9-5c.1-.1.1-.3.1-.4 0-.2-.1-.3-.3-.4l-23.4-13.5c-.1-.1-.3-.1-.5-.1s-.3.1-.4.3l-2.9 5c-.1.1-.1.3-.1.4 0 .2.1.3.3.4l23.4 13.5c.1.1.3.1.4.1.3 0 .5-.1.5-.3zM190.9 330.5c-.2 0-.3 0-.4.1L167 344.1c-.1.1-.2.2-.3.4 0 .2 0 .3.1.4l2.9 5c.1.1.2.2.4.3.2 0 .3 0 .5-.1l23.4-13.5c.1-.1.2-.2.3-.4 0-.1 0-.3-.1-.4l-2.9-5c-.1-.2-.2-.2-.4-.3zM97.5 384.9l2.9 5c.1.1.2.2.4.3.2 0 .3 0 .5-.1l23.4-13.5c.1-.1.2-.2.3-.4 0-.1 0-.3-.1-.4l-2.9-5c-.1-.1-.2-.2-.4-.3-.2 0-.3 0-.4.1l-23.4 13.5c-.1.1-.2.2-.3.4-.1.1 0 .2 0 .4z"/><path class="st1" d="M145.8 354c1.7 0 3.2.6 4.3 1.7 1.2 1.2 1.7 2.6 1.7 4.3 0 1.8-.6 3.2-1.7 4.3-1.1 1.1-2.6 1.7-4.3 1.7-1.8 0-3.2-.6-4.4-1.7-1.1-1.1-1.7-2.6-1.7-4.3 0-1.7.6-3.2 1.7-4.3 1.3-1.2 2.7-1.7 4.4-1.7z"/><path class="st0" d="M241.6 355.4c-.1.1-.3.2-.5.2h-5.4c-.2 0-.3.1-.3.3v11.9c0 1.2.3 2.1.8 2.7.5.6 1.3.9 2.4.9h1.8c.2 0 .3.1.5.2.1.1.2.3.2.5v5.3c0 .4-.2.7-.7.7-1.6.1-2.7.1-3.4.1-3.1 0-5.4-.5-6.9-1.5s-2.3-3-2.4-5.8v-15c0-.2-.1-.3-.3-.3h-3.2c-.2 0-.3-.1-.5-.2-.1-.1-.2-.3-.2-.5v-5c0-.2.1-.3.2-.5.1-.1.3-.2.5-.2h3.2c.2 0 .3-.1.3-.3v-6.7c0-.2.1-.3.2-.5.1-.1.3-.2.5-.2h6.3c.2 0 .3.1.5.2.1.1.2.3.2.5v6.7c0 .2.1.3.3.3h5.4c.2 0 .3.1.5.2.1.1.2.3.2.5v5c-.1.2-.1.3-.2.5zM268.7 351.5c1.8 1.8 2.7 4.3 2.7 7.4v18.4c0 .2-.1.3-.2.5-.1.1-.3.2-.5.2h-6.6c-.2 0-.3-.1-.5-.2-.1-.1-.2-.3-.2-.5v-16.7c0-1.5-.4-2.7-1.3-3.6-.8-.9-2-1.4-3.3-1.4-1.4 0-2.5.5-3.3 1.4-.8.9-1.3 2.1-1.3 3.6v16.7c0 .2-.1.3-.2.5-.1.1-.3.2-.5.2h-6.6c-.2 0-.3-.1-.5-.2-.1-.1-.2-.3-.2-.5v-37.9c0-.2.1-.3.2-.5.1-.1.3-.2.5-.2h6.6c.2 0 .3.1.5.2.1.1.2.3.2.5v12.4c0 .1 0 .2.1.2s.1 0 .2-.1c1.5-2.2 3.8-3.2 6.8-3.2 3.2.1 5.6 1 7.4 2.8zM302.7 365.4c0 .4-.3.7-.7.7h-17.3c-.2 0-.3.1-.2.3.1.7.3 1.5.6 2.2 1 2.1 2.9 3.1 5.9 3.1 2.4 0 4.3-1 5.7-2.9.1-.2.3-.3.5-.3.1 0 .2.1.4.2l4 4c.2.2.3.4.3.5 0 .1-.1.2-.2.4-1.2 1.5-2.8 2.7-4.8 3.6-1.9.8-4.1 1.3-6.4 1.3-3.2 0-5.9-.7-8.1-2.2-2.2-1.5-3.8-3.5-4.8-6.1-.8-1.9-1.2-4.3-1.2-7.3 0-2.1.3-3.9.8-5.4.9-2.7 2.4-4.8 4.5-6.3s4.7-2.4 7.6-2.4c3.7 0 6.7 1.1 9 3.2 2.3 2.2 3.6 5.1 4.1 8.7.3 1.4.4 3 .3 4.7zm-17.9-6.5c-.2.5-.3 1.1-.4 1.8 0 .2.1.3.3.3h9.7c.2 0 .3-.1.2-.3-.2-1.1-.3-1.6-.3-1.6-.3-1.1-.9-2-1.8-2.6-.8-.6-1.9-.9-3.1-.9-2.3 0-3.9 1.1-4.6 3.3z"/><path class="st1" d="M319.8 344.7c-.8-.8-1.3-1.9-1.3-3.2 0-1.3.4-2.4 1.2-3.2.8-.8 1.9-1.2 3.2-1.2 1.3 0 2.4.4 3.2 1.2.8.8 1.2 1.9 1.2 3.2 0 1.3-.4 2.3-1.3 3.2s-1.9 1.3-3.2 1.3c-1.1 0-2.1-.4-3-1.3zm-.6 33.1c-.1-.1-.2-.3-.2-.5v-27.5c0-.2.1-.3.2-.5.1-.1.3-.2.5-.2h6.6c.2 0 .3.1.5.2.1.1.2.3.2.5v27.5c0 .2-.1.3-.2.5-.1.1-.3.2-.5.2h-6.6c-.2 0-.4-.1-.5-.2zM371.8 351.4c1.6 1.8 2.5 4.2 2.5 7.4v18.5c0 .2-.1.3-.2.5-.1.1-.3.2-.5.2H367c-.2 0-.3-.1-.5-.2-.1-.1-.2-.3-.2-.5v-16.8c0-1.5-.4-2.7-1.2-3.6-.8-.9-1.8-1.3-3.1-1.3s-2.4.4-3.2 1.3-1.2 2.1-1.2 3.6v16.9c0 .2-.1.3-.2.5-.1.1-.3.2-.5.2h-6.5c-.2 0-.3-.1-.5-.2-.1-.1-.2-.3-.2-.5v-16.8c0-1.5-.4-2.7-1.2-3.6-.8-.9-1.9-1.4-3.2-1.4-1.2 0-2.2.4-3 1.1-.8.7-1.3 1.7-1.4 3v17.8c0 .2-.1.3-.2.5-.1.1-.3.2-.5.2h-6.6c-.2 0-.3-.1-.5-.2-.1-.1-.2-.3-.2-.5v-27.4c0-.2.1-.3.2-.5.1-.1.3-.2.5-.2h6.6c.2 0 .3.1.5.2.1.1.2.3.2.5v2.2c0 .1 0 .2.1.2s.1 0 .2-.1c1.5-2.3 3.9-3.4 7.1-3.4 1.9 0 3.5.4 4.9 1.2 1.4.8 2.5 1.9 3.2 3.4.1.2.2.2.4 0 .8-1.5 1.9-2.7 3.3-3.4 1.4-.7 3-1.1 4.7-1.1 3.1-.3 5.3.6 7 2.3zM397.8 350c1.9.8 3.4 2 4.5 3.4 1.1 1.5 1.6 3.1 1.6 4.9v19c0 .2-.1.3-.2.5-.1.1-.3.2-.5.2h-6.6c-.2 0-.3-.1-.5-.2-.1-.1-.2-.3-.2-.5v-1.8c0-.1 0-.2-.1-.2s-.1 0-.2.1c-1.6 2.1-4.1 3.1-7.6 3.1-2.9 0-5.3-.7-7.1-2.1-1.8-1.4-2.7-3.5-2.7-6.3 0-2.9 1-5.1 3-6.7 2-1.6 4.9-2.4 8.6-2.4h5.7c.2 0 .3-.1.3-.3v-1.2c0-1.2-.4-2.2-1.1-2.9-.7-.7-1.9-1-3.4-1-1.2 0-2.1.2-2.9.6-.8.4-1.3 1-1.5 1.7-.1.4-.4.6-.7.6l-6.8-.9c-.4-.1-.7-.2-.6-.5.1-1.6.8-3 1.9-4.3 1.1-1.3 2.6-2.3 4.4-3 1.8-.7 3.8-1.1 6.1-1.1 2.5.1 4.7.5 6.6 1.3zm-3.6 21.3c1.1-.9 1.7-2 1.7-3.3v-2c0-.2-.1-.3-.3-.3h-4c-1.7 0-3 .3-3.9 1-1 .6-1.4 1.5-1.4 2.7 0 1 .4 1.8 1.1 2.4.7.6 1.7.9 2.9.9 1.5-.1 2.8-.6 3.9-1.4zM427.1 349.4c.1-.1.3-.2.5-.2h6.6c.2 0 .3.1.5.2.1.1.2.3.2.5v25.5c0 4.9-1.4 8.4-4.2 10.5-2.8 2.1-6.4 3.1-10.9 3.1-1.3 0-2.8-.1-4.4-.3-.4 0-.6-.3-.6-.7l.2-5.8c0-.5.3-.7.8-.6 1.3.2 2.6.3 3.7.3 2.4 0 4.2-.5 5.5-1.6 1.3-1 1.9-2.7 1.9-5 0-.1 0-.2-.1-.2s-.1 0-.2.1c-1.4 1.5-3.5 2.3-6.2 2.3-2.4 0-4.7-.6-6.7-1.8-2-1.2-3.5-3.1-4.3-5.7-.6-1.7-.8-3.9-.8-6.7 0-2.9.3-5.3 1-7.1.8-2.3 2.1-4.1 4-5.5 1.9-1.4 4-2.1 6.5-2.1 2.9 0 5.1.9 6.6 2.6.1.1.1.1.2.1s.1-.1.1-.2v-1.3c-.1-.1 0-.2.1-.4zm-.2 14c0-1.2 0-2.1-.1-2.7-.1-.6-.2-1.2-.4-1.8-.3-1-.9-1.8-1.7-2.4-.8-.6-1.8-.9-2.9-.9-1.1 0-2.1.3-2.9.9-.8.6-1.4 1.4-1.7 2.4-.5 1.1-.8 2.6-.8 4.5 0 2.1.2 3.6.7 4.5.3 1 .9 1.8 1.8 2.4.8.6 1.8.9 3 .9s2.2-.3 3-.9c.8-.6 1.3-1.4 1.6-2.4.3-1 .4-2.6.4-4.5zM466.2 365.4c0 .4-.3.7-.7.7h-17.3c-.2 0-.3.1-.2.3.1.7.3 1.5.6 2.2 1 2.1 2.9 3.1 5.9 3.1 2.4 0 4.3-1 5.7-2.9.1-.2.3-.3.5-.3.1 0 .2.1.4.2l4 4c.2.2.3.4.3.5 0 .1-.1.2-.2.4-1.2 1.5-2.8 2.7-4.8 3.6-1.9.8-4.1 1.3-6.4 1.3-3.2 0-5.9-.7-8.1-2.2-2.2-1.5-3.8-3.5-4.8-6.1-.8-1.9-1.2-4.3-1.2-7.3 0-2.1.3-3.9.8-5.4.9-2.7 2.4-4.8 4.5-6.3s4.7-2.4 7.6-2.4c3.7 0 6.7 1.1 9 3.2 2.3 2.2 3.6 5.1 4.1 8.7.3 1.4.4 3 .3 4.7zm-17.9-6.5c-.2.5-.3 1.1-.4 1.8 0 .2.1.3.3.3h9.7c.2 0 .3-.1.2-.3-.2-1.1-.3-1.6-.3-1.6-.3-1.1-.9-2-1.8-2.6-.8-.6-1.9-.9-3.1-.9-2.3 0-3.9 1.1-4.6 3.3z"/><path class="st0" d="M500 349.4c.1-.1.3-.2.5-.2h6.6c.2 0 .3.1.5.2.1.1.2.3.2.5v25.5c0 4.9-1.4 8.4-4.2 10.5-2.8 2.1-6.4 3.1-10.9 3.1-1.3 0-2.8-.1-4.4-.3-.4 0-.6-.3-.6-.7l.2-5.8c0-.5.3-.7.8-.6 1.3.2 2.6.3 3.7.3 2.4 0 4.2-.5 5.5-1.6 1.3-1 1.9-2.7 1.9-5 0-.1 0-.2-.1-.2s-.1 0-.2.1c-1.4 1.5-3.5 2.3-6.2 2.3-2.4 0-4.7-.6-6.7-1.8-2-1.2-3.5-3.1-4.3-5.7-.6-1.7-.8-3.9-.8-6.7 0-2.9.3-5.3 1-7.1.8-2.3 2.1-4.1 4-5.5 1.9-1.4 4-2.1 6.5-2.1 2.9 0 5.1.9 6.6 2.6.1.1.1.1.2.1s.1-.1.1-.2v-1.3c-.1-.1 0-.2.1-.4zm-.2 14c0-1.2 0-2.1-.1-2.7-.1-.6-.2-1.2-.4-1.8-.3-1-.9-1.8-1.7-2.4-.8-.6-1.8-.9-2.9-.9-1.1 0-2.1.3-2.9.9-.8.6-1.4 1.4-1.7 2.4-.5 1.1-.8 2.6-.8 4.5 0 2.1.2 3.6.7 4.5.3 1 .9 1.8 1.8 2.4.8.6 1.8.9 3 .9s2.2-.3 3-.9c.8-.6 1.3-1.4 1.6-2.4.3-1 .4-2.6.4-4.5zM530.9 349.6c.3.1.4.4.3.8l-1.2 6.4c0 .4-.3.6-.8.4-.6-.2-1.2-.3-2-.3-.3 0-.7 0-1.2.1-1.3.1-2.5.6-3.4 1.5-.9.9-1.4 2-1.4 3.5v15.3c0 .2-.1.3-.2.5-.1.1-.3.2-.5.2h-6.6c-.2 0-.3-.1-.5-.2-.1-.1-.2-.3-.2-.5v-27.4c0-.2.1-.3.2-.5.1-.1.3-.2.5-.2h6.6c.2 0 .3.1.5.2.1.1.2.3.2.5v2.1c0 .1 0 .2.1.2s.1 0 .2-.1c1.5-2.2 3.6-3.4 6.2-3.4 1.4.1 2.4.4 3.2.9zM538.8 376c-2.2-1.6-3.8-3.9-4.6-6.7-.5-1.8-.8-3.7-.8-5.7 0-2.2.3-4.2.8-5.9.9-2.8 2.4-4.9 4.6-6.5 2.2-1.6 4.9-2.4 8.1-2.4 3.1 0 5.7.8 7.8 2.3 2.2 1.5 3.7 3.7 4.6 6.5.6 1.9.9 3.8.9 5.9 0 2-.3 3.9-.8 5.7-.8 2.9-2.3 5.2-4.6 6.9-2.2 1.7-4.9 2.5-8 2.5s-5.8-1-8-2.6zm11.2-5.4c.9-.7 1.5-1.8 1.8-3.1.3-1.2.4-2.5.4-3.9 0-1.6-.1-2.9-.4-4-.4-1.3-1-2.3-1.9-3-.9-.7-1.9-1.1-3.1-1.1-1.3 0-2.3.4-3.2 1.1-.8.7-1.4 1.7-1.8 3-.3.9-.4 2.2-.4 4 0 1.7.1 3 .4 3.9.4 1.3 1 2.3 1.9 3.1.9.7 2 1.1 3.2 1.1 1.2 0 2.2-.4 3.1-1.1zM582.3 349.4c.1-.1.3-.2.5-.2h6.6c.2 0 .3.1.5.2.1.1.2.3.2.5v27.4c0 .2-.1.3-.2.5-.1.1-.3.2-.5.2h-6.6c-.2 0-.3-.1-.5-.2-.1-.1-.2-.3-.2-.5v-1.9c0-.1 0-.2-.1-.2s-.1 0-.2.1c-1.5 2-3.8 3-6.9 3-2.8 0-5.2-.9-7-2.6-1.8-1.7-2.7-4.1-2.7-7.2v-18.7c0-.2.1-.3.2-.5.1-.1.3-.2.5-.2h6.5c.2 0 .3.1.5.2.1.1.2.3.2.5v16.7c0 1.5.4 2.7 1.2 3.6.8.9 1.9 1.4 3.3 1.4 1.3 0 2.3-.4 3.1-1.1.8-.8 1.3-1.8 1.5-3v-17.6c-.1-.1 0-.2.1-.4zM622.5 363.7c0 2.6-.4 4.9-1.1 7-.9 2.4-2.2 4.3-4.1 5.7s-4.1 2.1-6.9 2.1c-2.7 0-4.8-.9-6.3-2.8-.1-.1-.1-.1-.2-.1s-.1.1-.1.2v12c0 .2-.1.3-.2.5-.1.1-.3.2-.5.2h-6.6c-.2 0-.3-.1-.5-.2-.1-.1-.2-.3-.2-.5v-37.9c0-.2.1-.3.2-.5.1-.1.3-.2.5-.2h6.6c.2 0 .3.1.5.2.1.1.2.3.2.5v1.8c0 .1 0 .2.1.2s.1 0 .2-.1c1.6-2.1 3.7-3.1 6.5-3.1 2.6 0 4.8.7 6.7 2.2 1.9 1.4 3.2 3.4 4.1 6 .8 2 1.1 4.2 1.1 6.8zm-8.1-.1c0-2.4-.4-4.2-1.2-5.6-.9-1.6-2.2-2.4-4.1-2.4-1.7 0-3 .8-3.9 2.4-.8 1.3-1.2 3.2-1.2 5.7s.4 4.4 1.2 5.8c.9 1.5 2.1 2.2 3.8 2.2s3-.7 3.9-2.2c1-1.5 1.5-3.4 1.5-5.9z"/></svg>