<svg xmlns="http://www.w3.org/2000/svg" width="792" height="612" style="enable-background:new 0 0 792 612" xml:space="preserve"><path d="M260.4 259.6h12v37.7c0 5.7 2.8 8.6 7.4 8.6.5 0 .7-.1.8-.1-2 3-4.6 5.5-10.5 5.5-6.3 0-9.7-4.3-9.7-10.9v-40.8zm71.4 42.5c0 5.3-5.1 9.3-14.2 9.3-12.5 0-18.7-7.8-18.7-17.3s6.3-22.4 21.7-22.4c10.1 0 17.7 5 17.7 16.5 0 2.8-.6 5.9-.9 7.1h-26.9c0 2.8 2.3 7.5 11.6 7.5 4.2 0 8.9-1.5 9.7-1.8v1.1zm-5.3-14.2c.6-3.5-1.4-7.1-6-7.1-5.6 0-8.1 3.8-9.1 7.1h15.1zm220 14.2c0 5.3-5.1 9.3-14.2 9.3-12.5 0-18.7-7.8-18.7-17.3s6.3-22.4 21.7-22.4c10.1 0 17.7 5 17.7 16.5 0 2.8-.6 5.9-.9 7.1h-26.9c0 2.8 2.3 7.5 11.6 7.5 4.2 0 8.9-1.5 9.7-1.8v1.1zm-5.3-14.2c.6-3.5-1.4-7.1-6-7.1-5.6 0-8.1 3.8-9.1 7.1h15.1zm-172.4-16.2c-6 0-9.2 4.1-10.5 7.4h-.1l.5-6.6H347c-.1 2.3-.6 6.1-1.8 12.2-1.2 6.1-2.4 12.3-3.6 18.2-.2 1-.3 2-.3 2.9 0 3.1 1.5 5.6 6.1 5.6 2.3 0 3.8-.6 4.6-.9l3.5-17.6c1.3-6.7 3.5-11.2 10.2-11.2 3 0 5.9.6 6.5.8l2-10.1c-.6-.1-2.3-.7-5.4-.7zm27.4 30.5c-.3 1.4-.4 2.3-.4 3.5 0 4.4 2.9 5.6 6 5.6 2.5 0 4-.7 4.6-.9l5.7-28.8h9.2l1.8-9.2h-9.2l.4-2.3c.8-4.2 2.8-6.1 6.3-6.1 2.3 0 4.2.4 4.8.6l1.7-8.7c-.7-.2-4.2-1-9.2-1-8.1 0-13.3 4.9-14.9 12.8l-1 4.8h-6l-1.8 9.2h6c.1 0-2.3 11.9-4 20.5zm44.5 9.2c-12.7 0-18.8-7.6-18.8-17.3 0-13.3 9.2-22.4 23.3-22.4 12.3 0 18.8 7.4 18.8 17 0 14.2-9.8 22.7-23.3 22.7zm3.5-30.5c-6.6 0-10.3 6.8-10.3 12.8 0 5.1 2.3 8.5 7.5 8.5 5.9 0 10.6-5 10.6-13.6 0-4-2.1-7.7-7.8-7.7zm52.8-9.2c-7.9 0-11.1 4.6-12.5 7.4h-.1l.5-6.6H473c-.1 1.4-.6 6-1.3 9.9 0 0-2.7 13.8-3.2 16.4-.4 2-1.1 5-1.1 6.7 0 3.7 1.9 5.8 6 5.8 2.3 0 4-.6 4.6-.9l3.9-19.8c1.1-5.5 5-9 9.7-9 3.8 0 5.6 2.8 5.6 5 0 2-.5 4.1-.9 6.1l-1.7 8.5c-.2 1-.6 3-.6 4.5 0 3.7 2.1 5.6 6.1 5.6 2.2 0 3.6-.5 4.6-.9l3.5-17.7c.8-4 1-6.1 1-8.7.2-7.2-4.1-12.3-12.2-12.3zm-118 .8h11.9l-7.5 38c-.6.2-2.3.9-4.6.9-3.2 0-6.1-1.2-6.1-5.6 0-.8.1-1.8.3-2.8 2.3-11.9 6-30.5 6-30.5zm1.2-6.1h11.9l1.9-9.6h-11.9l-1.9 9.6z"/><path d="M275.7 293.5v4c0 3.8 2.1 5.2 4.3 5.2 2.3 0 3.5-1.6 4.7-3.3 1.9-3 25.1-39.7 25.1-39.7h-12.4l-21.7 33.8z" style="fill:#00aeef"/><path d="M565.4 271.7c3.2 0 5.6 2.6 5.2 5.9-.4 3.2-3 5.9-6.5 5.9-3.2 0-5.6-2.6-5.2-5.9.4-3.3 3.1-5.9 6.5-5.9zm-1.2 11c3.2 0 5.4-2.3 5.7-5.2.3-2.9-1.7-5.2-4.6-5.2-3.2 0-5.4 2.3-5.7 5.2-.3 2.9 1.8 5.2 4.6 5.2zm-.5-8.6h1.9c1.2 0 1.9.6 1.9 1.5 0 1.5-1.4 1.8-2.1 1.9l1.3 3.2h-.7l-1.2-3.2h-1.2l-.6 3.2h-.6l1.3-6.6zm0 3h1.3c1.2 0 1.8-.6 1.8-1.3 0-.4-.2-1.1-1.4-1.1h-1.3l-.4 2.4z"/></svg>