<svg version="1.1" id="Layer_1" xmlns="http://www.w3.org/2000/svg" x="0" y="0" width="841.9" height="595.3" style="enable-background:new 0 0 841.9 595.3" xml:space="preserve"><style>.st0{fill:#ed1a3b}.st5{fill:#414042}</style><path class="st0" d="M421.6 377.2c0-13.9 11.2-25.2 25.2-25.2 13.7 0 25 11.3 25.2 25.2-.3 13.8-11.5 25-25.2 25.2-14-.1-25.3-11.4-25.2-25.2zm25.2 16c7.6-.1 13.9-7.2 13.9-15.9-.1-8.9-6.4-16-13.9-15.9-7.9-.1-14.2 7.1-13.9 15.9-.3 8.6 6 15.8 13.9 15.9M500.6 362.6v38.5h-10.7v-38.5h-15.2V354h40.5v8.6h-14.6M527.8 390.5l-4 10.6h-12.6l19.9-47.1h13.3l19.3 47.1H551l-4-10.6h-19.2zm9.9-8h6.6l-6.6-17.3-6.6 17.3h6.6M305.4 362.6v38.5h-10.6v-38.5h-14.6V354H320v8.6h-14.6M322.7 377.2c0-13.9 11.3-25.2 25.2-25.2 13.8 0 25 11.3 25.2 25.2-.2 13.8-11.4 25-25.2 25.2-14-.1-25.2-11.4-25.2-25.2zm25.2 16c7.7-.1 13.9-7.2 13.9-15.9 0-8.9-6.3-16-13.9-15.9-7.8-.1-14.1 7.1-13.9 15.9-.2 8.6 6 15.8 13.9 15.9M397 401.1h5.3v-17.9l18.6-29.2H409l-12 19.9-11.3-19.9h-12.6l18.6 29.2v17.9h5.3"/><path d="M290.1 250.3c0 44.2 57.9 80.2 129 80.2s129-36 129-80.2-57.9-80.2-129-80.2-129 36-129 80.2zm1.3 0c0-43.5 57.3-78.9 127.7-78.9s127.7 35.4 127.7 78.9c0 43.5-57.3 78.9-127.7 78.9-70.5 0-127.7-35.4-127.7-78.9z"/><path d="M406.8 184.9c-29.5 1.8-51.7 9.7-55.2 19.7-.3 1-.5 1.9-.5 2.9 0 1.6.4 3.1 1.3 4.6 4 6.9 16.8 12.6 35.1 15.7l.6.1.1-.6c3.1-19.1 10.1-34.1 19-41.3l1.5-1.2-1.9.1zm-53.3 26.6c-.8-1.3-1.2-2.6-1.2-4 0-.8.1-1.6.4-2.5 3.3-9.2 24.7-16.8 52.4-18.7-8.4 7.6-14.9 22.1-18 40.2-17.3-3.1-29.9-8.6-33.6-15zm-1.9-6.9zM402.5 228.9l-.1.7.7.1c5.2.4 10.6.6 16 .6s10.8-.2 16-.6l.7-.1-.1-.7c-2.8-15.9-9.2-25.9-16.5-25.9-7.5.1-13.8 10-16.7 25.9zm16.6-24.6c6.6 0 12.4 9.2 15.2 24.1-4.9.4-10 .6-15.2.6-5.1 0-10.2-.2-15.2-.6 2.8-14.8 8.6-24.1 15.2-24.1zM430.9 186c8.9 7.2 15.9 22.2 19 41.3l.1.6.6-.1c18.3-3.1 31.1-8.8 35.1-15.7 1.4-2.5 1.7-5 .8-7.5-3.5-10-25.7-17.9-55.2-19.7l-2-.1 1.6 1.2zm2.1.3c27.7 2 49.1 9.6 52.4 18.7.3.8.4 1.6.4 2.5 0 1.3-.4 2.7-1.2 4-3.7 6.4-16.3 11.9-33.7 15-3-18.1-9.5-32.6-17.9-40.2zM331.9 213.1c-13.4 11.2-20.5 24.5-20.5 38.4 0 33 40.6 60.9 94.4 64.9l1.9.1-1.4-1.2c-12.2-10.5-19.8-35.1-19.8-64.3l.1-5.7-.5-.1c-29.7-5.3-50-17.5-53.1-31.8l-.2-1-.9.7zm-19.2 38.4c0-13.3 6.7-26 19.3-36.8 3.9 14.2 24.1 26.3 53.3 31.6 0 .9-.1 4.7-.1 4.7 0 28.5 7.2 52.7 18.9 64-52.2-4.5-91.4-31.6-91.4-63.5zM400.9 247.9v.7c0 25.6 8 45.6 18.2 45.6s18.2-20 18.2-45.6v-1.4l-.7.1c-5.7.5-11.6.8-17.5.8s-11.8-.3-17.5-.8l-.7-.1v.7zm1.3.7s0-.1 0 0c5.5.4 11.2.7 16.9.7 5.7 0 11.4-.2 16.9-.7v.1c0 24.9-7.4 44.4-16.9 44.4-9.5-.1-16.9-19.6-16.9-44.5zM505.2 213.4c-3.1 14.3-23.4 26.4-53.1 31.8l-.5.1.1 5.7c0 29.2-7.6 53.8-19.8 64.3l-1.4 1.2 1.9-.1c53.8-4 94.4-31.9 94.4-64.9 0-13.9-7.1-27.2-20.5-38.4l-.8-.7-.3 1zm1 1.3c12.6 10.8 19.3 23.5 19.3 36.8 0 32-39.2 59-91.4 63.5 11.7-11.3 18.9-35.5 18.9-64 0 0-.1-3.8-.1-4.7 29.2-5.3 49.4-17.4 53.3-31.6z"/><linearGradient id="SVGID_1_" gradientUnits="userSpaceOnUse" x1="419.079" y1="312.983" x2="419.079" y2="222.332"><stop offset="0" style="stop-color:#d1d3d4"/><stop offset=".158" style="stop-color:#f1f2f2"/><stop offset=".175" style="stop-color:#efeff0"/><stop offset=".267" style="stop-color:#e8e9ea"/><stop offset=".44" style="stop-color:#e6e7e8"/><stop offset=".538" style="stop-color:#d3d4d6"/><stop offset=".743" style="stop-color:#a2a4a7"/><stop offset="1" style="stop-color:#636466"/></linearGradient><path d="M505.3 202.8c.2.5.4 1 .5 1.6.8 3 .6 5.9-.4 8.8 13 10.7 20.7 24 20.7 38.3 0 35.8-47.9 64.8-107 64.8s-107-29-107-64.8c0-14.3 7.7-27.6 20.7-38.3-1-2.9-1.1-5.8-.4-8.8.1-.5.4-1.1.6-1.7-17.7 12.6-28.5 29.2-28.5 47.4 0 39.6 51.3 71.8 114.6 71.8s114.6-32.1 114.6-71.8c0-18.1-10.7-34.7-28.4-47.3z" style="fill:url(#SVGID_1_)"/><linearGradient id="SVGID_2_" gradientUnits="userSpaceOnUse" x1="435.432" y1="234.892" x2="404.668" y2="209.078"><stop offset="0" style="stop-color:#e6e7e8"/><stop offset=".44" style="stop-color:#e6e7e8"/><stop offset=".538" style="stop-color:#d3d4d6"/><stop offset=".743" style="stop-color:#a2a4a7"/><stop offset="1" style="stop-color:#636466"/></linearGradient><path d="m403.1 229.1-3.3 2.4c2.7-20.6 10.3-33.7 19.2-33.7 8.9 0 16.5 13.2 19.2 33.7l-3.3-2.4c-2.8-15.6-8.9-25.3-15.9-25.3-7-.1-13.1 9.7-15.9 25.3z" style="fill:url(#SVGID_2_)"/><linearGradient id="SVGID_3_" gradientUnits="userSpaceOnUse" x1="438.397" y1="277.298" x2="393.904" y2="251.61"><stop offset="0" style="stop-color:#e6e7e8"/><stop offset=".44" style="stop-color:#e6e7e8"/><stop offset=".538" style="stop-color:#d3d4d6"/><stop offset=".743" style="stop-color:#a2a4a7"/><stop offset="1" style="stop-color:#636466"/></linearGradient><path d="m439.3 243-2.7 4.9v.7c0 25.6-7.9 45-17.5 45-9.7 0-17.5-19.4-17.5-45v-.8l-2.7-4.7c-.1 1.8-.1 3.7-.1 5.6 0 29 9.1 51 20.3 51 11.2 0 20.3-22 20.3-51 0-2 0-3.9-.1-5.7z" style="fill:url(#SVGID_3_)"/><linearGradient id="SVGID_4_" gradientUnits="userSpaceOnUse" x1="419.077" y1="243.906" x2="419.077" y2="194.785"><stop offset="0" style="stop-color:#e6e7e8"/><stop offset=".44" style="stop-color:#e6e7e8"/><stop offset=".538" style="stop-color:#d3d4d6"/><stop offset=".743" style="stop-color:#a2a4a7"/><stop offset="1" style="stop-color:#636466"/></linearGradient><path d="M435 229.1c-5.1.4-10.4.6-15.9.6s-10.9-.2-15.9-.6l-3.3 2.4c6.1.5 12.5.8 19.2.8 6.7 0 13.1-.3 19.2-.8l-3.3-2.4zm58.5-25.2c-4-13.3-37.2-23.1-74.5-23.1s-70.4 9.8-74.5 23.1c-3.5 11.5 15.6 22.2 45.6 26.4l-2.6-3.2c-24.3-4.1-38.8-13-35.5-22.4 4-11.4 33.4-19.7 66.9-19.7 33.5 0 62.8 8.3 66.9 19.7 3.3 9.4-11.1 18.2-35.5 22.4l-2.6 3.2c30.3-4.2 49.3-14.8 45.8-26.4z" style="fill:url(#SVGID_4_)"/><path class="st5" d="M505.4 213.2c5 4.1 9.2 8.6 12.4 13.3-1.2-7.7-4.3-14.8-8.8-20.8-1.2-1-2.5-1.9-3.8-2.9.2.5.4 1 .5 1.6.9 3 .7 5.9-.3 8.8zM332.7 213.2c-1-2.9-1.1-5.8-.4-8.8.1-.5.4-1.1.6-1.7-1.4 1-2.7 2-3.9 3-4.5 6-7.6 13.1-8.8 20.8 3.4-4.7 7.6-9.2 12.5-13.3z"/><linearGradient id="SVGID_5_" gradientUnits="userSpaceOnUse" x1="419.077" y1="170.727" x2="419.077" y2="329.844"><stop offset="0" style="stop-color:#c7c8ca"/><stop offset=".056" style="stop-color:#d7d8da"/><stop offset=".12" style="stop-color:#e6e7e8"/><stop offset=".127" style="stop-color:#eaebeb"/><stop offset=".149" style="stop-color:#eff0f1"/><stop offset=".21" style="stop-color:#f1f2f2"/><stop offset=".545" style="stop-color:#f1f2f2"/><stop offset=".581" style="stop-color:#dbddde"/><stop offset=".653" style="stop-color:#b5b7b9"/><stop offset=".726" style="stop-color:#97999b"/><stop offset=".797" style="stop-color:#808285"/><stop offset=".867" style="stop-color:#707274"/><stop offset=".936" style="stop-color:#66686a"/><stop offset="1" style="stop-color:#636466"/></linearGradient><path d="M290.7 250.3c0-43.9 57.5-79.6 128.4-79.6s128.3 35.6 128.3 79.6c0 43.9-57.5 79.6-128.3 79.6-70.9-.1-128.4-35.7-128.4-79.6zm128.4 71.5c63.3 0 114.6-32.1 114.6-71.8 0-39.6-51.3-71.8-114.6-71.8S304.5 210.3 304.5 250c0 39.7 51.3 71.8 114.6 71.8z" style="fill:url(#SVGID_5_)"/><path d="M303.7 250.1c0 40 51.8 72.5 115.4 72.5 63.6 0 115.4-32.5 115.4-72.5s-51.7-72.5-115.4-72.5c-63.6 0-115.4 32.5-115.4 72.5zm1.5 0c0-39.2 51.1-71 113.9-71 62.8 0 113.9 31.9 113.9 71 0 39.2-51.1 71-113.9 71-62.8 0-113.9-31.9-113.9-71z" style="fill:#fff"/><linearGradient id="SVGID_6_" gradientUnits="userSpaceOnUse" x1="419.079" y1="170.721" x2="419.079" y2="329.834"><stop offset="0" style="stop-color:#c7c8ca"/><stop offset=".056" style="stop-color:#d7d8da"/><stop offset=".12" style="stop-color:#e6e7e8"/><stop offset=".127" style="stop-color:#eaebeb"/><stop offset=".149" style="stop-color:#eff0f1"/><stop offset=".21" style="stop-color:#f1f2f2"/><stop offset=".545" style="stop-color:#f1f2f2"/><stop offset=".581" style="stop-color:#dbddde"/><stop offset=".653" style="stop-color:#b5b7b9"/><stop offset=".726" style="stop-color:#97999b"/><stop offset=".797" style="stop-color:#808285"/><stop offset=".867" style="stop-color:#707274"/><stop offset=".936" style="stop-color:#66686a"/><stop offset="1" style="stop-color:#636466"/></linearGradient><path d="M388.9 251c0-38.3 13.5-70.1 30.1-70.1s30.1 31.8 30.1 70.1c0 38.7-13.5 70.1-30.1 70.1s-30.1-31.4-30.1-70.1zm30.2 48.6c11.2 0 20.3-22 20.3-51 0-30.1-9.1-50.8-20.3-50.8-11.2 0-20.3 20.7-20.3 50.8 0 29 9.1 51 20.3 51z" style="fill:url(#SVGID_6_)"/><linearGradient id="SVGID_7_" gradientUnits="userSpaceOnUse" x1="419.077" y1="170.732" x2="419.077" y2="329.85"><stop offset="0" style="stop-color:#c7c8ca"/><stop offset=".056" style="stop-color:#d7d8da"/><stop offset=".12" style="stop-color:#e6e7e8"/><stop offset=".127" style="stop-color:#eaebeb"/><stop offset=".149" style="stop-color:#eff0f1"/><stop offset=".21" style="stop-color:#f1f2f2"/><stop offset=".545" style="stop-color:#f1f2f2"/><stop offset=".581" style="stop-color:#dbddde"/><stop offset=".653" style="stop-color:#b5b7b9"/><stop offset=".726" style="stop-color:#97999b"/><stop offset=".797" style="stop-color:#808285"/><stop offset=".867" style="stop-color:#707274"/><stop offset=".936" style="stop-color:#66686a"/><stop offset="1" style="stop-color:#636466"/></linearGradient><path d="M332.4 204.4c3.3-13.1 43.3-32.2 86.7-32.2 43.4 0 82 13.6 86.7 32.2 5.3 20.8-33.3 39.6-86.7 39.6-53.4 0-92-18.8-86.7-39.6zm86.7-23.5c-37.3 0-70.4 9.8-74.5 23.1-4.5 14.9 28.6 28.4 74.5 28.4s79-13.5 74.5-28.4c-4.1-13.4-37.3-23.1-74.5-23.1z" style="fill:url(#SVGID_7_)"/><linearGradient id="SVGID_8_" gradientUnits="userSpaceOnUse" x1="419.079" y1="203.72" x2="419.079" y2="249.071"><stop offset=".006" style="stop-color:#e6e7e8"/><stop offset="1" style="stop-color:#6d6e71"/></linearGradient><path d="m398.8 243 2.8 4.9c5.6.5 11.4.8 17.5.8s11.9-.3 17.5-.8l2.7-4.8c-6.4.6-13.2.9-20.2.9-7.1 0-13.8-.4-20.3-1zm107.5-34.1c-.7 14.9-23.5 28-57.3 33l3.3 3.9c33-5.9 54.7-20.5 54-36.9zm-174.4 0c-.8 16.4 20.9 31 54 36.9l3.3-3.9c-33.8-5-56.6-18.2-57.3-33z" style="fill:url(#SVGID_8_)"/><linearGradient id="SVGID_9_" gradientUnits="userSpaceOnUse" x1="434.786" y1="170.725" x2="434.786" y2="248.624"><stop offset="0" style="stop-color:#e6e7e8"/><stop offset=".44" style="stop-color:#e6e7e8"/><stop offset=".538" style="stop-color:#d3d4d6"/><stop offset=".743" style="stop-color:#a2a4a7"/><stop offset="1" style="stop-color:#636466"/></linearGradient><path d="m447.9 230.4 2.6-3.2c-4.5-27.7-16.9-46.3-31.4-46.3 13.5 0 25 21 28.8 49.5z" style="fill:url(#SVGID_9_)"/><linearGradient id="SVGID_10_" gradientUnits="userSpaceOnUse" x1="403.37" y1="170.725" x2="403.37" y2="248.624"><stop offset="0" style="stop-color:#e6e7e8"/><stop offset=".44" style="stop-color:#e6e7e8"/><stop offset=".538" style="stop-color:#d3d4d6"/><stop offset=".743" style="stop-color:#a2a4a7"/><stop offset="1" style="stop-color:#636466"/></linearGradient><path d="M390.3 230.4c3.8-28.5 15.3-49.5 28.8-49.5-14.5 0-26.9 18.6-31.4 46.3l2.6 3.2z" style="fill:url(#SVGID_10_)"/><linearGradient id="SVGID_11_" gradientUnits="userSpaceOnUse" x1="402.437" y1="170.725" x2="402.437" y2="299.551"><stop offset="0" style="stop-color:#e6e7e8"/><stop offset=".44" style="stop-color:#e6e7e8"/><stop offset=".538" style="stop-color:#d3d4d6"/><stop offset=".743" style="stop-color:#a2a4a7"/><stop offset="1" style="stop-color:#636466"/></linearGradient><path d="M388.9 251c0-3.1.1-6.1.3-9.1l-3.3 3.9c-.1 1.7-.1 3.4-.1 5.2 0 41 14.6 70.1 33.3 70.1-16.7 0-30.2-31.4-30.2-70.1z" style="fill:url(#SVGID_11_)"/><linearGradient id="SVGID_12_" gradientUnits="userSpaceOnUse" x1="435.722" y1="170.725" x2="435.722" y2="299.551"><stop offset="0" style="stop-color:#e6e7e8"/><stop offset=".44" style="stop-color:#e6e7e8"/><stop offset=".538" style="stop-color:#d3d4d6"/><stop offset=".743" style="stop-color:#a2a4a7"/><stop offset="1" style="stop-color:#636466"/></linearGradient><path d="m452.3 245.8-3.3-3.9c.2 3 .3 6 .3 9.1 0 38.7-13.5 70.1-30.1 70.1 18.7 0 33.3-29.1 33.3-70.1-.1-1.8-.2-3.5-.2-5.2z" style="fill:url(#SVGID_12_)"/></svg>