<svg version="1.1" id="Layer_1" xmlns="http://www.w3.org/2000/svg" x="0" y="0" width="612" height="792" style="enable-background:new 0 0 612 792" xml:space="preserve"><style>.st0{fill:#f7941d}</style><path class="st0" d="m48.2 77.7 3.3.6c-.4 1.2-1.1 2.1-2 2.7-.9.6-2 .9-3.4.9-2.2 0-3.8-.7-4.8-2.1-.8-1.1-1.2-2.6-1.2-4.3 0-2.1.5-3.7 1.6-4.9 1.1-1.2 2.4-1.8 4.1-1.8 1.9 0 3.3.6 4.4 1.8 1.1 1.2 1.6 3.1 1.5 5.6h-8.3c0 1 .3 1.7.8 2.3.5.5 1.1.8 1.9.8.5 0 .9-.1 1.3-.4.3-.1.6-.5.8-1.2zm.2-3.3c0-.9-.3-1.7-.7-2.2-.5-.5-1-.7-1.7-.7s-1.3.3-1.8.8-.7 1.2-.7 2.1h4.9zM54.3 81.7V64.5h3.3v17.2h-3.3zM61 67.6v-3.1h3.3v3.1H61zm0 14.1V69.2h3.3v12.5H61zM67.4 69.2h3v1.7c1.1-1.3 2.4-1.9 3.9-1.9.8 0 1.5.2 2.1.5.6.3 1.1.8 1.4 1.5.5-.7 1.1-1.2 1.8-1.5.6-.3 1.3-.5 2-.5.9 0 1.7.2 2.3.6.6.4 1.1.9 1.4 1.6.2.5.3 1.4.3 2.6v8h-3.3v-7.1c0-1.2-.1-2-.3-2.4-.3-.5-.8-.7-1.4-.7-.5 0-.9.1-1.3.4-.4.3-.7.7-.9 1.2-.2.5-.3 1.4-.3 2.6v6h-3.3V75c0-1.2-.1-2-.2-2.3-.1-.4-.3-.6-.5-.8-.2-.2-.6-.3-1-.3-.5 0-1 .1-1.4.4-.4.3-.7.7-.9 1.2-.2.5-.3 1.4-.3 2.6v6h-3.3V69.2zM89 67.6v-3.1h3.3v3.1H89zm0 14.1V69.2h3.3v12.5H89zM107 81.7h-3.3v-6.3c0-1.3-.1-2.2-.2-2.6-.1-.4-.4-.7-.7-.9-.3-.2-.7-.3-1.1-.3-.6 0-1.1.2-1.5.5-.5.3-.8.7-.9 1.2-.2.5-.3 1.5-.3 2.9v5.6h-3.3V69.2h3.1V71c1.1-1.4 2.4-2.1 4.1-2.1.7 0 1.4.1 2 .4.6.3 1.1.6 1.4 1 .3.4.5.9.6 1.4.1.5.2 1.3.2 2.2v7.8zM112.8 73.1l-3-.5c.3-1.2.9-2.1 1.7-2.7.8-.6 2-.9 3.7-.9 1.5 0 2.6.2 3.3.5.7.3 1.2.8 1.5 1.3.3.5.4 1.5.4 2.9l-.1 3.8c0 1.1.1 1.9.2 2.4s.3 1.1.6 1.7h-3.3c-.1-.2-.2-.5-.3-1-.1-.2-.1-.3-.1-.4-.6.5-1.2 1-1.8 1.2-.6.3-1.3.4-2.1.4-1.3 0-2.3-.3-3-1-.7-.7-1.1-1.6-1.1-2.6 0-.7.2-1.3.5-1.9.3-.5.8-1 1.4-1.3.6-.3 1.5-.5 2.6-.8 1.5-.3 2.6-.6 3.2-.8v-.3c0-.6-.2-1.1-.5-1.4-.3-.3-.9-.4-1.8-.4-.6 0-1.1.1-1.4.4-.2.4-.4.8-.6 1.4zm4.4 2.7c-.4.1-1.1.3-2 .5-.9.2-1.5.4-1.8.6-.4.3-.6.7-.6 1.2s.2.9.5 1.2c.3.3.8.5 1.3.5.6 0 1.2-.2 1.7-.6.4-.3.7-.7.8-1.1.1-.3.1-.8.1-1.6v-.7zM129.4 69.2v2.6h-2.3v5.1c0 1 0 1.6.1 1.8 0 .2.1.3.3.4.1.1.3.2.5.2.3 0 .7-.1 1.3-.3l.3 2.5c-.8.3-1.6.5-2.6.5-.6 0-1.1-.1-1.6-.3-.5-.2-.8-.5-1-.8-.2-.3-.4-.7-.5-1.3-.1-.4-.1-1.2-.1-2.3v-5.5h-1.5v-2.6h1.5v-2.5l3.3-1.9v4.4h2.3zM131.6 67.6v-3.1h3.3v3.1h-3.3zm0 14.1V69.2h3.3v12.5h-3.3zM149.6 81.7h-3.3v-6.3c0-1.3-.1-2.2-.2-2.6-.1-.4-.4-.7-.7-.9-.3-.2-.7-.3-1.1-.3-.6 0-1.1.2-1.5.5-.5.3-.8.7-.9 1.2-.2.5-.3 1.5-.3 2.9v5.6h-3.3V69.2h3.1V71c1.1-1.4 2.4-2.1 4.1-2.1.7 0 1.4.1 2 .4.6.3 1.1.6 1.4 1 .3.4.5.9.6 1.4.1.5.2 1.3.2 2.2v7.8zM152.7 82.5l3.8.4c.1.4.2.8.4.9.3.2.8.4 1.5.4.9 0 1.5-.1 1.9-.4.3-.2.5-.5.7-.8.1-.3.2-.8.2-1.5v-1.8c-1 1.4-2.3 2.1-3.8 2.1-1.7 0-3-.7-4-2.1-.8-1.1-1.1-2.5-1.1-4.2 0-2.1.5-3.7 1.5-4.8 1-1.1 2.2-1.7 3.7-1.7s2.8.7 3.8 2v-1.8h3.1v11.2c0 1.5-.1 2.6-.4 3.3-.2.7-.6 1.3-1 1.7-.4.4-1 .7-1.7 1-.7.2-1.7.4-2.8.4-2.1 0-3.6-.4-4.5-1.1-.9-.7-1.3-1.6-1.3-2.8v-.4zm3-7.3c0 1.3.3 2.3.8 2.9.5.6 1.1.9 1.9.9.8 0 1.5-.3 2-.9.6-.6.8-1.6.8-2.8 0-1.3-.3-2.2-.8-2.9-.5-.6-1.2-.9-2-.9s-1.4.3-2 .9c-.5.6-.7 1.6-.7 2.8zM177.5 81.7h-3.3V69.2h3.1V71c.5-.8 1-1.4 1.4-1.6.4-.3.9-.4 1.4-.4.7 0 1.5.2 2.2.6l-1 2.9c-.6-.4-1.1-.5-1.6-.5s-.9.1-1.2.4c-.3.3-.6.7-.8 1.4-.2.7-.3 2-.3 4.2v3.7zM186.1 73.1l-3-.5c.3-1.2.9-2.1 1.7-2.7.8-.6 2-.9 3.7-.9 1.5 0 2.6.2 3.3.5.7.3 1.2.8 1.5 1.3.3.5.4 1.5.4 2.9l-.1 3.8c0 1.1.1 1.9.2 2.4s.3 1.1.6 1.7h-3.3c-.1-.2-.2-.5-.3-1-.1-.2-.1-.3-.1-.4-.6.5-1.2 1-1.8 1.2-.6.3-1.3.4-2.1.4-1.3 0-2.3-.3-3-1-.7-.7-1.1-1.6-1.1-2.6 0-.7.2-1.3.5-1.9.3-.5.8-1 1.4-1.3.6-.3 1.5-.5 2.6-.8 1.5-.3 2.6-.6 3.2-.8v-.3c0-.6-.2-1.1-.5-1.4-.3-.3-.9-.4-1.8-.4-.6 0-1.1.1-1.4.4-.1.4-.4.8-.6 1.4zm4.4 2.7c-.4.1-1.1.3-2 .5-.9.2-1.5.4-1.8.6-.4.3-.6.7-.6 1.2s.2.9.5 1.2c.3.3.8.5 1.3.5.6 0 1.2-.2 1.7-.6.4-.3.7-.7.8-1.1.1-.3.1-.8.1-1.6v-.7zM207.9 72.9l-3.3.6c-.1-.6-.4-1.1-.7-1.5-.4-.3-.9-.5-1.5-.5-.8 0-1.5.3-2 .9-.5.6-.7 1.5-.7 2.8 0 1.5.2 2.5.7 3.1.5.6 1.2.9 2 .9.6 0 1.1-.2 1.5-.5.4-.4.7-1 .8-1.9l3.3.6c-.3 1.5-1 2.6-1.9 3.4-1 .8-2.2 1.1-3.8 1.1-1.8 0-3.3-.6-4.3-1.7-1.1-1.2-1.6-2.7-1.6-4.8 0-2.1.5-3.7 1.6-4.8 1.1-1.1 2.6-1.7 4.4-1.7 1.5 0 2.7.3 3.6 1 .8.7 1.5 1.7 1.9 3zM210.3 67.6v-3.1h3.3v3.1h-3.3zm0 14.1V69.2h3.3v12.5h-3.3zM215.9 78.2l3.3-.5c.1.6.4 1.1.9 1.4.4.3 1 .5 1.8.5s1.5-.2 1.9-.5c.3-.2.4-.5.4-.9 0-.3-.1-.5-.2-.6-.2-.2-.5-.3-1.1-.4-2.7-.6-4.3-1.1-5.1-1.6-1-.7-1.5-1.6-1.5-2.8 0-1.1.4-2 1.3-2.7.9-.7 2.2-1.1 4-1.1 1.7 0 3 .3 3.8.8.8.6 1.4 1.4 1.7 2.5l-3.1.6c-.1-.5-.4-.9-.8-1.1-.4-.3-.9-.4-1.6-.4-.9 0-1.5.1-1.9.4-.3.2-.4.4-.4.7 0 .2.1.4.3.6.3.2 1.3.5 3.1.9s3 .9 3.7 1.5c.7.6 1 1.4 1 2.5s-.5 2.1-1.4 2.9c-1 .8-2.4 1.2-4.2 1.2-1.7 0-3-.3-4-1-1-.8-1.6-1.7-1.9-2.9zM230.1 69.2h3v1.7c1.1-1.3 2.4-1.9 3.9-1.9.8 0 1.5.2 2.1.5.6.3 1.1.8 1.4 1.5.5-.7 1.1-1.2 1.8-1.5.6-.3 1.3-.5 2-.5.9 0 1.7.2 2.3.6.6.4 1.1.9 1.4 1.6.2.5.3 1.4.3 2.6v8H245v-7.1c0-1.2-.1-2-.3-2.4-.3-.5-.8-.7-1.4-.7-.5 0-.9.1-1.3.4-.4.3-.7.7-.9 1.2-.2.5-.3 1.4-.3 2.6v6h-3.3V75c0-1.2-.1-2-.2-2.3-.1-.4-.3-.6-.5-.8-.2-.2-.6-.3-1-.3-.5 0-1 .1-1.4.4-.4.3-.7.7-.9 1.2-.2.5-.3 1.4-.3 2.6v6h-3.3V69.2zM48.2 106.7l3.3.6c-.4 1.2-1.1 2.1-2 2.7-.9.6-2 .9-3.4.9-2.2 0-3.8-.7-4.8-2.1-.8-1.1-1.2-2.6-1.2-4.3 0-2.1.5-3.7 1.6-4.9 1.1-1.2 2.4-1.8 4.1-1.8 1.9 0 3.3.6 4.4 1.8 1.1 1.2 1.6 3.1 1.5 5.6h-8.3c0 1 .3 1.7.8 2.3.5.5 1.1.8 1.9.8.5 0 .9-.1 1.3-.4.3-.1.6-.5.8-1.2zm.2-3.3c0-.9-.3-1.7-.7-2.2-.5-.5-1-.7-1.7-.7s-1.3.3-1.8.8-.7 1.2-.7 2.1h4.9zM54.1 98.2h3v1.7c1.1-1.3 2.4-1.9 3.9-1.9.8 0 1.5.2 2.1.5.6.3 1.1.8 1.4 1.5.5-.7 1.1-1.2 1.8-1.5.6-.3 1.3-.5 2-.5.9 0 1.7.2 2.3.6.6.4 1.1.9 1.4 1.6.2.5.3 1.4.3 2.6v8H69v-7.1c0-1.2-.1-2-.3-2.4-.3-.5-.8-.7-1.4-.7-.5 0-.9.1-1.3.4-.4.3-.7.7-.9 1.2-.2.5-.3 1.4-.3 2.6v6h-3.3V104c0-1.2-.1-2-.2-2.3-.1-.4-.3-.6-.5-.8-.2-.2-.6-.3-1-.3-.5 0-1 .1-1.4.4-.4.3-.7.7-.9 1.2-.2.5-.3 1.4-.3 2.6v6h-3.3V98.2zM75.6 98.2h3.1v1.8c.4-.6.9-1.1 1.6-1.5.7-.4 1.4-.6 2.3-.6 1.4 0 2.7.6 3.7 1.7s1.5 2.7 1.5 4.7c0 2.1-.5 3.7-1.5 4.9-1 1.2-2.3 1.7-3.7 1.7-.7 0-1.3-.1-1.9-.4-.6-.3-1.1-.7-1.8-1.4v6.3h-3.3V98.2zm3.2 6.1c0 1.4.3 2.4.8 3.1.6.7 1.2 1 2 1s1.4-.3 1.9-.9c.5-.6.8-1.6.8-3 0-1.3-.3-2.3-.8-2.9-.5-.6-1.2-1-2-1s-1.5.3-2 .9c-.4.6-.7 1.5-.7 2.8zM89.6 104.3c0-1.1.3-2.2.8-3.2s1.3-1.8 2.3-2.3c1-.5 2.1-.8 3.3-.8 1.9 0 3.4.6 4.6 1.8 1.2 1.2 1.8 2.8 1.8 4.6 0 1.9-.6 3.4-1.8 4.7-1.2 1.2-2.7 1.9-4.6 1.9-1.1 0-2.2-.3-3.3-.8-1-.5-1.8-1.3-2.4-2.3-.5-.9-.7-2.2-.7-3.6zm3.4.2c0 1.2.3 2.2.9 2.8.6.7 1.3 1 2.2 1 .9 0 1.6-.3 2.2-1 .6-.7.9-1.6.9-2.9 0-1.2-.3-2.2-.9-2.8-.6-.7-1.3-1-2.2-1-.9 0-1.6.3-2.2 1-.7.7-.9 1.6-.9 2.9zM107.4 110.7l-3.9-12.5h3.2l2.3 8.2 2.1-8.2h3.2l2.1 8.2 2.4-8.2h3.3l-4 12.5h-3.2l-2.1-8-2.1 8h-3.3zM130.8 106.7l3.3.6c-.4 1.2-1.1 2.1-2 2.7-.9.6-2 .9-3.4.9-2.2 0-3.8-.7-4.8-2.1-.8-1.1-1.2-2.6-1.2-4.3 0-2.1.5-3.7 1.6-4.9 1.1-1.2 2.4-1.8 4.1-1.8 1.9 0 3.3.6 4.4 1.8 1.1 1.2 1.6 3.1 1.5 5.6h-8.2c0 1 .3 1.7.8 2.3.5.5 1.1.8 1.9.8.5 0 .9-.1 1.3-.4.3-.1.6-.5.7-1.2zm.2-3.3c0-.9-.3-1.7-.7-2.2-.5-.5-1-.7-1.7-.7s-1.3.3-1.8.8-.7 1.2-.7 2.1h4.9zM140.2 110.7h-3.3V98.2h3.1v1.8c.5-.8 1-1.4 1.4-1.6.4-.3.9-.4 1.4-.4.7 0 1.5.2 2.2.6l-1 2.9c-.6-.4-1.1-.5-1.6-.5s-.9.1-1.2.4c-.3.3-.6.7-.8 1.4-.2.7-.3 2-.3 4.2v3.7zM146.3 96.6v-3.1h3.3v3.1h-3.3zm0 14.1V98.2h3.3v12.5h-3.3zM164.3 110.7H161v-6.3c0-1.3-.1-2.2-.2-2.6-.1-.4-.4-.7-.7-.9-.3-.2-.7-.3-1.1-.3-.6 0-1.1.2-1.5.5-.5.3-.8.7-.9 1.2-.2.5-.3 1.5-.3 2.9v5.6H153V98.2h3.1v1.8c1.1-1.4 2.4-2.1 4.1-2.1.7 0 1.4.1 2 .4.6.3 1.1.6 1.4 1 .3.4.5.9.6 1.4s.2 1.3.2 2.2v7.8zM167.4 111.5l3.8.4c.1.4.2.8.4.9.3.2.8.4 1.5.4.9 0 1.5-.1 1.9-.4.3-.2.5-.5.7-.8.1-.3.2-.8.2-1.5v-1.8c-1 1.4-2.3 2.1-3.8 2.1-1.7 0-3-.7-4-2.1-.8-1.1-1.1-2.5-1.1-4.2 0-2.1.5-3.7 1.5-4.8 1-1.1 2.2-1.7 3.7-1.7s2.8.7 3.8 2v-1.8h3.1v11.2c0 1.5-.1 2.6-.4 3.3-.2.7-.6 1.3-1 1.7-.4.4-1 .7-1.7 1-.7.2-1.7.4-2.8.4-2.1 0-3.6-.4-4.5-1.1-.9-.7-1.3-1.6-1.3-2.8v-.4zm2.9-7.3c0 1.3.3 2.3.8 2.9.5.6 1.1.9 1.9.9.8 0 1.5-.3 2-.9.6-.6.8-1.6.8-2.8 0-1.3-.3-2.2-.8-2.9-.5-.6-1.2-.9-2-.9s-1.4.3-2 .9c-.4.6-.7 1.6-.7 2.8zM191.4 110.7l-3.9-12.5h3.2l2.3 8.2 2.1-8.2h3.2l2.1 8.2 2.4-8.2h3.3l-4 12.5h-3.2l-2.1-8-2.1 8h-3.3zM206.9 104.3c0-1.1.3-2.2.8-3.2s1.3-1.8 2.3-2.3c1-.5 2.1-.8 3.3-.8 1.9 0 3.4.6 4.6 1.8 1.2 1.2 1.8 2.8 1.8 4.6 0 1.9-.6 3.4-1.8 4.7-1.2 1.2-2.7 1.9-4.6 1.9-1.1 0-2.2-.3-3.3-.8-1-.5-1.8-1.3-2.4-2.3-.4-.9-.7-2.2-.7-3.6zm3.4.2c0 1.2.3 2.2.9 2.8.6.7 1.3 1 2.2 1 .9 0 1.6-.3 2.2-1 .6-.7.9-1.6.9-2.9 0-1.2-.3-2.2-.9-2.8-.6-.7-1.3-1-2.2-1-.9 0-1.6.3-2.2 1-.6.7-.9 1.6-.9 2.9zM222.1 98.2h3v1.7c1.1-1.3 2.4-1.9 3.9-1.9.8 0 1.5.2 2.1.5.6.3 1.1.8 1.4 1.5.5-.7 1.1-1.2 1.8-1.5.6-.3 1.3-.5 2-.5.9 0 1.7.2 2.3.6.6.4 1.1.9 1.4 1.6.2.5.3 1.4.3 2.6v8H237v-7.1c0-1.2-.1-2-.3-2.4-.3-.5-.8-.7-1.4-.7-.5 0-.9.1-1.3.4-.4.3-.7.7-.9 1.2-.2.5-.3 1.4-.3 2.6v6h-3.3V104c0-1.2-.1-2-.2-2.3-.1-.4-.3-.6-.5-.8-.2-.2-.6-.3-1-.3-.5 0-1 .1-1.4.4-.4.3-.7.7-.9 1.2-.2.5-.3 1.4-.3 2.6v6h-3.3V98.2zM250.9 106.7l3.3.6c-.4 1.2-1.1 2.1-2 2.7-.9.6-2 .9-3.4.9-2.2 0-3.8-.7-4.8-2.1-.8-1.1-1.2-2.6-1.2-4.3 0-2.1.5-3.7 1.6-4.9 1.1-1.2 2.4-1.8 4.1-1.8 1.9 0 3.3.6 4.4 1.8 1.1 1.2 1.6 3.1 1.5 5.6h-8.3c0 1 .3 1.7.8 2.3.5.5 1.1.8 1.9.8.5 0 .9-.1 1.3-.4.3-.1.6-.5.8-1.2zm.1-3.3c0-.9-.3-1.7-.7-2.2-.5-.5-1-.7-1.7-.7s-1.3.3-1.8.8-.7 1.2-.7 2.1h4.9zM268.3 110.7H265v-6.3c0-1.3-.1-2.2-.2-2.6-.1-.4-.4-.7-.7-.9-.3-.2-.7-.3-1.1-.3-.6 0-1.1.2-1.5.5-.5.3-.8.7-.9 1.2-.2.5-.3 1.5-.3 2.9v5.6H257V98.2h3.1v1.8c1.1-1.4 2.4-2.1 4.1-2.1.7 0 1.4.1 2 .4.6.3 1.1.6 1.4 1 .3.4.5.9.6 1.4s.2 1.3.2 2.2v7.8z"/><g><path class="st0" d="M41 126.4h9.5l8.2 24.3 7.8-24.3H76l-12 32.9-2.2 6.1c-.8 2-1.5 3.5-2.3 4.6-.7 1.1-1.5 1.9-2.5 2.6-.9.7-2.1 1.2-3.4 1.5-1.4.4-2.9.6-4.6.6-1.7 0-3.4-.2-5.1-.6l-.6-7.1c1.4.3 2.6.4 3.7.4 2.1 0 3.6-.6 4.6-1.9 1-1.2 1.7-2.8 2.3-4.8L41 126.4zM88.5 160.6l-10.8-34.3h8.8l6.4 22.4 5.9-22.4h8.8l5.7 22.4 6.5-22.4h8.9l-11 34.3H109l-5.9-22-5.8 22h-8.8zM163.2 136.4l-8.9 1.6c-.3-1.8-1-3.1-2.1-4-1.1-.9-2.5-1.4-4.2-1.4-2.3 0-4.1.8-5.5 2.4-1.4 1.6-2 4.2-2 7.9 0 4.1.7 7 2.1 8.7 1.4 1.7 3.2 2.5 5.6 2.5 1.7 0 3.2-.5 4.3-1.5 1.1-1 1.9-2.7 2.3-5.1l8.9 1.5c-.9 4.1-2.7 7.2-5.3 9.3-2.6 2.1-6.2 3.2-10.6 3.2-5 0-9-1.6-12-4.8-3-3.2-4.5-7.6-4.5-13.2 0-5.7 1.5-10.1 4.5-13.3 3-3.2 7-4.8 12.1-4.8 4.2 0 7.5.9 10 2.7 2.5 1.9 4.3 4.6 5.3 8.3zM176.7 136.8l-8.1-1.5c.9-3.3 2.5-5.8 4.8-7.4 2.3-1.6 5.6-2.4 10.1-2.4 4 0 7.1.5 9 1.4 2 1 3.4 2.2 4.2 3.7.8 1.5 1.2 4.2 1.2 8.1l-.1 10.6c0 3 .1 5.2.4 6.7.3 1.4.9 3 1.7 4.6h-9c-.2-.6-.5-1.5-.9-2.6-.2-.5-.3-.9-.3-1-1.5 1.5-3.2 2.6-5 3.4-1.8.8-3.6 1.1-5.6 1.1-3.5 0-6.3-1-8.3-2.9-2-1.9-3-4.4-3-7.3 0-1.9.5-3.7 1.4-5.2.9-1.5 2.2-2.7 3.9-3.5 1.7-.8 4.1-1.5 7.2-2.1 4.2-.8 7.2-1.5 8.8-2.2v-.9c0-1.8-.4-3.1-1.3-3.8-.9-.8-2.5-1.1-4.9-1.1-1.6 0-2.9.3-3.8 1-1.1.5-1.8 1.6-2.4 3.3zm12.3 7.3c-1.2.4-3 .9-5.5 1.4-2.5.5-4.2 1.1-4.9 1.6-1.2.9-1.8 1.9-1.8 3.2 0 1.3.5 2.4 1.4 3.3.9.9 2.2 1.4 3.6 1.4 1.6 0 3.2-.5 4.7-1.6 1.1-.8 1.8-1.8 2.2-3 .2-.8.4-2.3.4-4.5v-1.8z"/></g></svg>