<svg version="1.1" id="Layer_1" xmlns="http://www.w3.org/2000/svg" x="0" y="0" width="792" height="612" style="enable-background:new 0 0 792 612" xml:space="preserve"><style>.st0{fill:#3b7739}.st1{fill:#6b6764}</style><path class="st0" d="M197.4 268.5v-2.7h-48.7v2.7H160l30.1 76.6h7.7l8.5-22.9-21.3-53.7zM254.2 268.5v-2.7h-47.9v2.7h9.7l30.6 76.6h7.6l8.5-22.8-21.3-53.8z"/><circle class="st0" cx="328.6" cy="233.5" r="12.3"/><path class="st0" d="M302.2 244.2c0-17.3 1.2-24.3 13.1-27.2.3-.1.7-.2 1-.2-.8-.1-5 .1-5.7.2-3.7.4-7 1.1-9.8 2.2-4.4 1.7-7.9 3.9-10.8 6.8-2.8 2.9-5 6.2-6.5 10s-2.7 7.8-3.4 12c-.7 4.2-1.1 8.6-1.3 13.1 0 1.7-.1 3.3-.1 4.9H266v2.7h12.7v76.6h23.4v-76.6H318V266h-15.9l.1-21.8z"/><path class="st1" d="M340.8 285.6c0-9.4 7.1-15.4 15-15.4 8.2 0 12.4 5 13.5 9.8l-5.4 1.7c-.7-2.8-3-6-8.1-6-4.4 0-9.1 3.2-9.1 9.9 0 6.3 4.4 9.7 9.2 9.7 5 0 7.5-3.3 8.3-6l5.4 1.6c-1.1 4.5-5.4 10-13.7 10-8.2.1-15.1-5.9-15.1-15.3zM400.6 293.6h-12l-2.5 6.7H380l11.3-29.5h6.7l11.2 29.5H403l-2.4-6.7zm-10.1-5.2h8.2l-4.1-11.2-4.1 11.2zM431.6 270.8c5.7 0 9 3.4 9 8 0 3-1.8 5.5-4.3 6.3 2.9.7 5.2 3.3 5.2 7 0 4.8-3.6 8.2-9.1 8.2H421v-29.5h10.6zm-.9 12.2c2.6 0 4.2-1.5 4.2-3.7s-1.5-3.7-4.2-3.7h-4v7.4h4zm.6 12.6c2.8 0 4.5-1.5 4.5-3.8s-1.5-4-4.4-4h-4.7v7.8h4.6zM454.6 300.4v-29.5h5.8v29.5h-5.8zM494.3 300.4l-13.4-21v20.9h-5.7v-29.5h7.2l12.3 19.5v-19.5h5.7v29.5l-6.1.1zM515 300.4v-29.5h18.5v5.4h-12.7v6.7h11.5v5.1h-11.5v6.8h12.7v5.4l-18.5.1zM559.9 276.3v24.1h-5.8v-24.1h-9.3v-5.5h24.4v5.5h-9.3zM589.7 289h-3v11.4h-5.8v-29.5h11.5c5.7 0 9.4 4 9.4 9.1 0 4.1-2.4 7.2-6.3 8.4l6.3 12.1h-6.4l-5.7-11.5zm1.7-4.9c2.9 0 4.6-1.7 4.6-4.1 0-2.5-1.7-4.1-4.6-4.1h-4.7v8.2h4.7zM611 270.9h6.7l6.6 11.7 6.6-11.7h6.5L627 288v12.4h-5.7V288L611 270.9z"/><g><path class="st1" d="M362.3 312.9h2.4l5 11.7H367l-1-2.6h-4.9l-1.1 2.6h-2.6l4.9-11.7zm2.7 6.9-1.5-3.8-1.5 3.8h3zM378.9 313h2.7l2.4 7.9 2.6-7.9h2.2l2.6 7.9 2.4-7.9h2.7l-4 11.7h-2.2l-2.6-7.6-2.6 7.6h-2.2l-4-11.7zM400.2 313h8.8v2.3h-6.2v2.4h5.5v2.3h-5.5v2.4h6.3v2.3h-8.9V313zM413 313h2.6v9.3h5.8v2.3H413V313zM424.9 313h2.6v9.3h5.8v2.3h-8.4V313zM436.9 313h5.4c1.3 0 2.4.4 3 1 .5.5.8 1.2.8 2 0 1.3-.7 2-1.5 2.5 1.3.5 2.2 1.3 2.2 2.9 0 2.1-1.7 3.2-4.4 3.2h-5.5V313zm4.9 4.7c1.1 0 1.8-.4 1.8-1.2 0-.8-.6-1.2-1.7-1.2h-2.5v2.5l2.4-.1zm.6 4.7c1.1 0 1.8-.4 1.8-1.3 0-.8-.6-1.3-1.9-1.3h-3v2.6h3.1zM450.1 318.9c0-3.3 2.6-6.1 6.2-6.1s6.2 2.7 6.2 6-2.6 6-6.2 6-6.2-2.6-6.2-5.9zm9.7 0c0-2-1.5-3.7-3.5-3.7-2.1 0-3.5 1.6-3.5 3.6s1.5 3.7 3.5 3.7 3.5-1.6 3.5-3.6zM466.4 313h5.3c1.5 0 2.6.4 3.4 1.2.6.6 1 1.6 1 2.7 0 1.9-1 3.1-2.5 3.6l2.8 4.2h-3l-2.5-3.7h-2v3.7h-2.6l.1-11.7zm5.2 5.7c1.2 0 2-.7 2-1.6 0-1.1-.8-1.7-2-1.7h-2.5v3.3h2.5zM480.1 313h2.4l5.5 7.2V313h2.5v11.6h-2.2l-5.6-7.4v7.4h-2.5l-.1-11.6zM501.6 313h8.9v2.3h-6.3v2.5h5.6v2.3h-5.6v4.5h-2.6V313zM513.6 318.9c0-3.3 2.6-6.1 6.2-6.1s6.2 2.7 6.2 6-2.6 6-6.2 6c-3.6.1-6.2-2.6-6.2-5.9zm9.7 0c0-2-1.5-3.7-3.5-3.7-2.1 0-3.5 1.6-3.5 3.6s1.5 3.7 3.5 3.7c2.1 0 3.5-1.6 3.5-3.6zM530 313h5.3c1.5 0 2.6.4 3.4 1.2.6.6 1 1.6 1 2.7 0 1.9-1 3.1-2.5 3.6l2.8 4.2h-3l-2.5-3.7h-2v3.7h-2.6l.1-11.7zm5.1 5.7c1.2 0 2-.7 2-1.6 0-1.1-.8-1.7-2-1.7h-2.5v3.3h2.5zM543.7 313h8.8v2.3h-6.2v2.4h5.5v2.3h-5.5v2.4h6.3v2.3h-8.9V313zM555.7 323l1.5-1.8c1 .9 2.1 1.4 3.5 1.4 1 0 1.7-.4 1.7-1.1 0-.6-.4-1-2.3-1.5-2.3-.6-3.9-1.2-3.9-3.6 0-2.1 1.7-3.5 4.1-3.5 1.7 0 3.1.5 4.3 1.5l-1.3 1.9c-1-.7-2-1.1-3-1.1s-1.5.4-1.5 1c0 .8.5 1 2.5 1.5 2.4.6 3.7 1.5 3.7 3.5 0 2.3-1.8 3.6-4.3 3.6-1.8.1-3.6-.6-5-1.8zM571.3 315.4h-3.5V313h9.6v2.4h-3.5v9.3h-2.6v-9.3zM587.1 318.9c0-3.3 2.5-6.1 6.1-6.1 2.2 0 3.5.7 4.6 1.8l-1.6 1.9c-.9-.8-1.8-1.3-3-1.3-2 0-3.4 1.6-3.4 3.6s1.4 3.7 3.4 3.7c1.3 0 2.1-.5 3.1-1.4l1.6 1.6c-1.2 1.3-2.5 2.1-4.8 2.1-3.4.1-6-2.5-6-5.9zM600.8 318.9c0-3.3 2.6-6.1 6.2-6.1s6.2 2.7 6.2 6-2.6 6-6.2 6c-3.7.1-6.2-2.6-6.2-5.9zm9.6 0c0-2-1.5-3.7-3.5-3.7s-3.5 1.6-3.5 3.6 1.5 3.7 3.5 3.7c2.1 0 3.5-1.6 3.5-3.6zM616 322h2.7v2.7H616V322z"/></g><path class="st1" d="m494 336.1-2 .5-.5-2.1 3.3-1h1.7v11.7H494v-9.1zM500.9 344l1.4-1.9c.8.7 1.6 1 2.5 1 1.4 0 2.2-1.1 2.4-2.6-.6.5-1.3.8-2.4.8-2.5 0-4.2-1.4-4.2-3.8 0-2.3 1.8-4.1 4.4-4.1 1.6 0 2.5.4 3.4 1.3.8.8 1.4 2.1 1.4 4.4 0 3.8-1.8 6.4-5.1 6.4-1.7-.1-2.8-.6-3.8-1.5zm6.3-6.6c0-1.1-.8-1.8-2-1.8-1.3 0-2 .7-2 1.8 0 1 .8 1.7 2 1.7 1.3 0 2-.7 2-1.7zM533.9 334.7l-1.4 1.9c-.8-.7-1.6-1-2.5-1-1.4 0-2.2 1.1-2.4 2.6.6-.5 1.3-.8 2.4-.8 2.5 0 4.2 1.4 4.2 3.8 0 2.3-1.8 4.1-4.4 4.1-1.6 0-2.5-.4-3.4-1.3-.8-.8-1.4-2.1-1.4-4.4 0-3.8 1.8-6.4 5.1-6.4 1.7.2 2.8.7 3.8 1.5zm-6.3 6.7c0 1.1.8 1.8 2 1.8 1.3 0 2-.7 2-1.8 0-1-.8-1.7-2-1.7-1.3 0-2 .7-2 1.7z"/><g><path class="st1" d="M445.7 333.7h8.7v2.3h-6.2v2.4h5.5v2.3h-5.5v2.4h6.3v2.3h-8.8v-11.7zM457.6 343.6l1.5-1.8c1 .9 2.1 1.4 3.5 1.4 1 0 1.7-.4 1.7-1.1 0-.6-.4-1-2.3-1.5-2.3-.6-3.8-1.2-3.8-3.5 0-2.1 1.7-3.5 4.1-3.5 1.7 0 3.1.5 4.3 1.5l-1.3 1.9c-1-.7-2-1.1-3-1.1s-1.5.4-1.5 1c0 .8.5 1 2.5 1.5 2.4.6 3.7 1.5 3.7 3.5 0 2.3-1.8 3.6-4.3 3.6-1.9-.1-3.7-.7-5.1-1.9zM473.1 336h-3.5v-2.4h9.6v2.4h-3.5v9.2h-2.5l-.1-9.2zM479.3 342.8h2.7v2.7h-2.7v-2.7z"/></g><path class="st1" d="M513.2 342c0-1.5.7-2.3 1.9-2.9-.9-.6-1.5-1.3-1.5-2.6 0-1.8 1.6-3.2 4.1-3.2 2.5 0 4.1 1.4 4.1 3.2 0 1.3-.6 2-1.5 2.6 1.2.6 1.9 1.4 1.9 2.8 0 2.2-1.9 3.4-4.5 3.4s-4.5-1.2-4.5-3.3zm6.5-.2c0-.9-.9-1.5-2-1.5-1.2 0-2 .5-2 1.4 0 .8.8 1.5 2 1.5 1.3.1 2-.6 2-1.4zm-.3-4.9c0-.8-.6-1.4-1.7-1.4s-1.7.6-1.7 1.4c0 .8.7 1.4 1.7 1.4s1.7-.6 1.7-1.4z"/><g><path class="st1" d="M642.6 272.3h-2.1v-1.4h5.7v1.4h-2.1v5.6h-1.6v-5.6zm5.2-1.4h1.7l1.8 2.9 1.8-2.9h1.6v7h-1.5v-4.7l-1.9 3.1h-.1l-1.9-3.1v4.7h-1.5v-7z"/></g></svg>