<svg xmlns="http://www.w3.org/2000/svg" width="792" height="612" style="enable-background:new 0 0 792 612" xml:space="preserve"><path d="M329.9 271.9c.2-.1.4-.2.5-.2h1c1.1-.1 1.8-.2 2-.3.5-.3.9-.7 1.3-1.4.7-1.5 1.6-3.6 2.5-6.2.4-1.3.7-2.1.8-2.3.4-.9.7-1.8 1-2.7l2-5.7c.3-.9 1.1-2.9 2.3-6.1.3-.8.7-1.9 1.1-3.2h1.4c.6 1.2 1.2 2.5 1.6 4 .3.7.7 1.9 1.3 3.4l3.3 8.9 1.7 4.8c.9 2.7 1.5 4.4 1.8 5 .3.6.6 1 .8 1.2.1.1.3.1.8.3.5.1.8.2 1 .3.7.2 1.1.3 1.4.5.1.2.1.3.1.4 0 .1 0 .2-.1.3h-1c-.7 0-2 0-3.9-.1H348.3c-.2 0-.3-.1-.4-.1 0-.2 0-.4.1-.6.2-.1.3-.1.5-.2l2.3-.2c.6 0 1-.1 1.3-.2.1-.3.1-.5.1-.6 0-.3-.2-.9-.6-2-.3-.7-.5-1.4-.7-2.1-.2-.6-1-2.8-2.3-6.4-.6-.1-1.1-.2-1.6-.2h-6c-.5 0-1 0-1.6.1-.2.4-.3.7-.4.9l-1.9 5.9c-.8 2.3-1.2 3.5-1.2 3.7 0 .1.1.3.2.6.3.1.7.2 1.2.2l2.9.3c.2.1.2.2.2.3 0 .1 0 .2-.1.3h-1.5c-1.2 0-2.5 0-4-.1h-4.2c-.3 0-.8 0-1.3-.1v-.1c.5 0 .6-.2.6-.3zm10.3-13c1.5.1 3.3.1 5.3.1 1.1 0 2.1 0 3-.1-.1-.6-.3-1.1-.5-1.6-.9-2.5-1.5-3.9-1.6-4.1l-2-5-.2-.4c-.1.2-.4.9-1 2.2-.9 2.2-1.6 4-2 5.3-.2.6-.4 1.1-.6 1.7l-.4 1.2c-.1.2-.1.5-.2.7h.2zM369.1 271.9c2.1-.2 3.3-.4 3.6-.5.2-.1.4-.3.5-.6v-.2c0-.4.1-1.7.2-3.9v-1.9l-.1-2.6V250c0-1.6-.1-2.6-.4-3-.3-.4-1-.6-2.1-.8-1.1-.2-1.7-.3-1.8-.3-.1-.1-.2-.2-.2-.3 0-.1 0-.2.1-.4.1-.1.5-.2 1-.2.1 0 .3 0 .6-.1.3 0 .6-.1.9-.1h1.8l5.7-.1c3.2 0 5.5.2 6.8.7 1.3.5 2.3 1.3 3.1 2.4.8 1.1 1.1 2.4 1.1 3.8 0 2.7-1.4 4.7-4.2 6.1-.5.2-.8.5-1.1.6.5 1 1.2 2.3 2.1 3.7l2.7 4.7c1.1 1.7 1.9 2.8 2.3 3.3.4.4.9.8 1.5 1.1.6.3 1.6.6 3 .8v.6h-7.7c-1-2-2.2-4.1-3.6-6.5l-3.2-5.8c-.4-.6-.8-1-1.1-1.1-.3-.2-.7-.2-1.1-.2h-2.4c0 .5-.1 1.4-.1 2.8v7.4c0 .3 0 .7.2 1.1.1.3.3.5.6.7.3.2 1.1.4 2.4.7l.9.2c.1.1.2.3.2.6-.4.1-.7.1-.8.1H371.3c-.1 0-.8 0-2 .1l-.4-.1v-.2c-.1-.1 0-.2.2-.4zm8-14.1h.9c1 0 2.2-.1 3.6-.4 1-.2 1.7-.5 2.3-.9.6-.4 1.1-1.1 1.5-1.9s.6-1.7.6-2.6c0-1-.3-2-.9-3.1-.5-.8-1.3-1.5-2.4-2.1-1.1-.6-2.5-.8-4.1-.8-.4 0-.9 0-1.5.1-.1.7-.1 1.3-.1 1.7l.1 4v1.7c-.1 1.1 0 2.5 0 4.3zM404.5 271.9c2.1-.2 3.3-.4 3.6-.5.2-.1.4-.3.5-.6v-.2c0-.4.1-1.7.2-3.9v-1.9l-.1-2.6V250c0-1.6-.1-2.6-.4-3-.3-.4-1-.6-2.1-.8-1.1-.2-1.7-.3-1.8-.3s-.2-.2-.2-.3c0-.1 0-.2.1-.4.1-.1.5-.2 1-.2.1 0 .3 0 .6-.1.3 0 .6-.1.9-.1h1.8l5.7-.1c3.2 0 5.5.2 6.8.7 1.3.5 2.3 1.3 3.1 2.4.8 1.1 1.1 2.4 1.1 3.8 0 2.7-1.4 4.7-4.2 6.1-.5.2-.8.5-1.1.6.5 1 1.2 2.3 2.1 3.7l2.7 4.7c1.1 1.7 1.9 2.8 2.3 3.3.4.4.9.8 1.5 1.1.6.3 1.6.6 3 .8v.6h-7.7c-1-2-2.2-4.1-3.6-6.5l-3.2-5.8c-.4-.6-.8-1-1.1-1.1-.3-.2-.7-.2-1.1-.2h-2.4c0 .5-.1 1.4-.1 2.8v7.4c0 .3 0 .7.2 1.1.1.3.3.5.6.7.3.2 1.1.4 2.4.7l.9.2c.1.1.2.3.2.6-.4.1-.7.1-.8.1H406.7c-.1 0-.8 0-2 .1l-.4-.1v-.2c-.1-.1 0-.2.2-.4zm8-14.1h.9c1 0 2.2-.1 3.6-.4 1-.2 1.7-.5 2.3-.9.6-.4 1.1-1.1 1.5-1.9.4-.8.6-1.7.6-2.6 0-1-.3-2-.9-3.1-.5-.8-1.3-1.5-2.4-2.1-1.1-.6-2.5-.8-4.1-.8-.4 0-.9 0-1.5.1-.1.7-.1 1.3-.1 1.7l.1 4v1.7c-.1 1.1-.1 2.5 0 4.3zM439.5 271.9c.3-.1.6-.2 1-.2 2.2-.1 3.5-.4 3.8-.8.3-.4.5-2.2.5-5.6V260.6l-.1-2.6V249.9c0-.9 0-1.9-.1-2.9-.1-.2-.1-.4-.2-.6-.5-.3-1.4-.5-2.6-.6-1.2-.1-1.9-.2-2-.3-.1-.1-.2-.3-.2-.7h1.8l5.7.1c1.5 0 3.4 0 5.9-.1v.6c-.3.1-.8.2-1.4.2-1.4.2-2.2.3-2.5.5-.2.1-.3.2-.4.4-.1.3-.2.7-.3 1.5l-.1 2.8.1 9.6V266.6c0 1.6 0 2.6.1 3.1.1.4.2.8.4 1 .2.2.5.4 1 .5.7.2 1.2.2 1.6.3.8 0 1.3.1 1.5.3 0 .2.1.3.1.5v.2c-1.3 0-2.3.1-2.9.1-.4 0-1 0-1.9-.1h-8.5l-.3-.6zM464 258.7c0-1.5.2-2.8.5-3.9.4-1.1.9-2.4 1.8-3.7.8-1.3 1.8-2.5 3-3.4 1.2-.9 2.8-1.7 4.9-2.4 1.5-.5 3.3-.7 5.6-.7 1.5 0 3 .2 4.4.6 1.4.4 2.8 1 3.9 1.7 1.2.7 2.4 1.8 3.5 3.3.8 1 1.4 2.2 1.9 3.4.5 1.6.8 3.2.8 4.9 0 1.9-.2 3.5-.6 4.7-.4 1.3-1 2.5-1.8 3.7-.7 1-1.8 2-3.5 3.3-1.1.8-2.5 1.5-4.1 2-1.6.5-3.4.8-5.3.8s-3.6-.2-5.1-.7c-1.5-.4-2.7-1-3.8-1.6-1-.6-2-1.6-3.1-2.8-1.1-1.3-1.9-2.6-2.4-4.2-.3-1.5-.6-3.2-.6-5zm15 13.5c1.2 0 2.5-.2 3.8-.5 1.3-.3 2.5-.9 3.5-1.7 1-.8 1.8-1.7 2.4-2.7.6-1 1-2.3 1.4-3.9.3-1.6.5-3.1.5-4.7 0-2-.3-3.9-.9-5.8-.4-1.5-1.2-2.8-2.2-3.9-1-1.1-2.2-2-3.7-2.7-1.4-.6-2.9-.9-4.6-.9-1.3 0-2.6.2-3.8.6-1.3.4-2.3 1-3.1 1.7-.8.7-1.6 1.6-2.2 2.9-.7 1.2-1.2 2.6-1.6 4.1-.4 1.5-.5 2.8-.5 3.9 0 1.2.2 2.6.5 4.1.4 1.5.9 2.8 1.5 3.9s1.4 2.1 2.3 3c.9.9 1.9 1.5 3.1 2 1.1.4 2.3.6 3.6.6zM505.5 271.9c2.1-.2 3.3-.4 3.6-.5.2-.1.4-.3.5-.6v-.2c0-.4.1-1.7.2-3.9v-1.9l-.1-2.6V250c0-1.6-.1-2.6-.4-3-.3-.4-1-.6-2.1-.8-1.1-.2-1.7-.3-1.8-.3s-.2-.2-.2-.3c0-.1 0-.2.1-.4.1-.1.5-.2 1-.2.1 0 .3 0 .6-.1.3 0 .6-.1.9-.1h1.8l5.7-.1c3.2 0 5.5.2 6.8.7 1.3.5 2.3 1.3 3.1 2.4.8 1.1 1.1 2.4 1.1 3.8 0 2.7-1.4 4.7-4.2 6.1-.5.2-.8.5-1.1.6.5 1 1.2 2.3 2.1 3.7l2.7 4.7c1.1 1.7 1.9 2.8 2.3 3.3.4.4.9.8 1.5 1.1.6.3 1.6.6 3 .8v.6h-7.7c-1-2-2.2-4.1-3.6-6.5l-3.2-5.8c-.4-.6-.8-1-1.1-1.1-.3-.2-.7-.2-1.1-.2h-2.4c0 .5-.1 1.4-.1 2.8v7.4c0 .3 0 .7.2 1.1.1.3.3.5.6.7.3.2 1.1.4 2.4.7l.9.2c.1.1.2.3.2.6-.4.1-.7.1-.8.1H507.7c-.1 0-.8 0-2 .1l-.4-.1v-.2c-.1-.1 0-.2.2-.4zm8-14.1h.9c1 0 2.2-.1 3.6-.4 1-.2 1.7-.5 2.3-.9.6-.4 1.1-1.1 1.5-1.9s.6-1.7.6-2.6c0-1-.3-2-.9-3.1-.5-.8-1.3-1.5-2.4-2.1-1.1-.6-2.5-.8-4.1-.8-.4 0-.9 0-1.5.1-.1.7-.1 1.3-.1 1.7l.1 4v6zM270.4 236v-.5c.3-.4 1.1-.5 2.3-.5H277.7c2.6 0 4.1 0 4.7.1v.5c0 .2 0 .4-.1.8l-2.8.1c-.1 0-.3.1-.6.1-.1.2-.1.3-.1.4 0 .1.1.3.2.6.2.3.3.7.4 1.1l1.9 5.2 4.4 11.1c.5 1.4.9 2.2 1 2.6.6 1.2 1.2 3 2.1 5.2.3.8 1 2.4 2.1 5l.4.8c.9-1.4 2.2-3.9 3.9-7.5 1.3-2.8 2.2-4.7 2.5-5.7l-.2-.6-5.1-11.5c-.7-1.4-1.2-2.6-1.6-3.4-.8-1.8-1.3-2.8-1.7-3-.4-.3-1.4-.4-3.1-.5l-.6-.1c-.2-.2-.2-.4-.2-.6 0-.2.1-.3.3-.4h1.3l1.9.1h5.4l2.8-.1h1.3c.3 0 .5.1.6.2.1.1.2.3.2.4 0 .1 0 .3-.1.5-.3.1-.9.2-1.7.3-1.2.1-1.8.3-2 .4-.2.1-.3.3-.3.5 0 .4.8 2.4 2.3 5.9l3 6.8c.9-1.8 2.2-4.7 3.8-8.6.7-1.6 1-2.8 1-3.6 0-.4-.2-.8-.5-1.1-.3-.2-.8-.4-1.7-.5l-.6-.1-.5-.2v-.2c0-.1 0-.3.1-.5.2-.2.4-.2.5-.3.3 0 1.7 0 4.1.1H311.7c.2 0 .4.1.7.1.2.2.2.3.2.4 0 .2-.1.4-.3.5-.2.1-.5.3-1.1.4-1.5.3-2.6.6-3.4 1.2-.5.4-.9.9-1.3 1.6l-2.1 4.8c-.5 1.5-.9 2.5-1.3 3.3-.1.5-.4 1.1-.8 1.8l-1.2 2.8c.2.5.6 1.3 1.1 2.5l3 7.1c.1.3.5 1.2 1.2 2.6.7 1.4 1.2 2.8 1.7 4l.4-1.4.1-.1 1.8-4.7c.6-1.4 1.3-3 1.9-4.5l2.3-5.7 3.4-9.7c.4-1.1.6-2.2.9-3.2l.1-.5c.1-.2.1-.4.1-.5 0-.3-.1-.5-.4-.8-.3-.2-1.2-.5-2.9-.9-.2-.1-.3-.1-.5-.3-.1-.2-.1-.4-.1-.6v-.2c.8 0 1.3-.1 1.6-.1l2.3.1H323.9l.9.1v.3c0 .1 0 .3-.1.6-1.4.6-2.3.9-2.6 1.2-.3.2-.6.5-.8.8-.2.3-.5 1-1.1 2.2-.1.1-.7 1.9-1.9 5.3-.3.5-.5 1.2-.8 2-.1.2-.2.7-.5 1.3l-.5 1.2-.3.9c-1.3 3.6-2.7 7.3-4.3 11.2l-3.2 8.9-1.3 3.4c-.3 0-.5.1-.7.1h-.6c-.3-.7-.8-2.1-1.7-4.1-2.3-5.2-4.3-9.4-6.1-12.8l-.4.6c-1 1.9-2.2 4.4-3.6 7.6l-2.3 4.7c-.9 2-1.7 3.4-2.3 4.1h-1.3l-4.8-11.7-3.9-9.3-3.5-8.8c-.2-.6-.4-1.1-.6-1.6-.1-.4-.3-.8-.4-1.2-.2-.6-.7-2-1.6-4.2-.4-.6-.9-.9-1.7-1.1-.5-.7-1.1-.9-1.5-1zM301.7 342.5v-.4c.3-.1.7-.2 1.3-.3.6-.1 1-.2 1.3-.3.2-.1.4-.2.6-.4.1-.5.2-1.5.2-2.9v-14l.1-2.3c0-.5-.1-.8-.3-1s-.7-.3-1.5-.5c-.8-.1-1.3-.3-1.4-.4-.1-.1-.2-.2-.2-.3 0-.1 0-.1.1-.2.2-.1.3-.1.5-.1h5.5l5.2-.1 5.5-.2h1.3c.2 0 .4.1.6.2.1.2.1.3.1.4v.7l.2 3.2v.5c-.2.1-.4.1-.5.1-.1 0-.2 0-.3-.1-.1-.1-.2-.4-.2-.8 0-.5-.2-1.2-.6-2-.2-.4-.4-.6-.8-.8-.7-.3-1.9-.4-3.6-.4-.8 0-1.5 0-2.2.1-.7 0-1.1.1-1.3.1h-1.4c-.6 0-1 .1-1.4.3-.3.1-.4.4-.4.8v.3c0 .6.1 1.3.1 2l-.1 4.9c0 .5 0 .9.1 1.4h.5l1-.1h3.4c1.4 0 2.3-.1 2.9-.3.4-.1.6-.3.8-.6.1-.1.2-.6.4-1.4l.2-1.5c.1-.1.3-.1.3-.1.1 0 .2 0 .3.1 0 .3.1.7.1 1.3l.2 6.6c-.2.1-.4.1-.5.1h-.2c-.2-1.2-.5-2.1-.9-2.8-.1-.2-.3-.4-.5-.4-.3-.1-1.7-.1-4.3-.1h-1.6c-.7 0-1.1.1-1.3.1h-.2c-.4 0-.6 0-.8.1 0 .1-.1.2-.1.3v8.9c0 .2 0 .4.1.6.3.2.7.3 1.4.4.7.1 1.3.2 1.9.5.3.2.5.3.5.5 0 .1 0 .2-.1.2 0 .1-.1.1-.3.2-1-.2-2.3-.3-4.1-.3-.9 0-1.9.1-2.9.3-.7.1-1.5.2-2.4.2l-.3-.3zM331.4 341.7c.3-.1.5-.2.8-.2 1.8-.1 2.9-.3 3.1-.7.3-.3.4-1.9.4-4.6v-3.9l-.1-2.2V323.3c0-.8 0-1.6-.1-2.4 0-.2-.1-.3-.2-.5-.4-.2-1.2-.4-2.1-.5-1-.1-1.5-.2-1.7-.3-.1-.1-.1-.3-.2-.6h1.5l4.8.1c1.2 0 2.9 0 4.9-.1v.5c-.2.1-.6.1-1.2.2-1.1.1-1.8.3-2.1.4-.2.1-.3.2-.3.3-.1.2-.2.6-.2 1.2l-.1 2.3.1 8v5.2c0 1.3 0 2.2.1 2.6.1.4.2.6.3.8.2.2.4.3.8.4.6.1 1 .2 1.3.2.7 0 1.1.1 1.3.3 0 .2.1.3.1.4v.1c-1.1 0-1.9.1-2.4.1-.3 0-.8 0-1.6-.1h-7l-.2-.2zM353.7 322l.7-2.7c0-.4.1-.6.2-.7.1-.1.2-.2.3-.2.2 0 .5.3.7.8.2.4.4.6.5.7.1.1.3.2.6.2h.2l.8.1 4.2.1h6.5l2.8-.1h.4c.8.1 1.3.1 1.5.1.2 0 .3-.1.4-.2l.6-1.2c.2-.3.3-.5.6-.5.1 0 .2 0 .4.1.1.2.1.5.1.6v2.2c0 .4 0 1.6-.1 3.6 0 .1 0 .2-.1.4-.1.1-.2.1-.3.1-.1 0-.2 0-.3-.1-.1-.1-.2-.4-.3-.8-.2-1.1-.5-1.8-.9-2.3-.2-.3-.6-.5-1-.6-.4-.1-1.5-.2-3.2-.2h-3v1.3l.1 11.2c0 .4 0 1.3-.1 2.5v3.7c0 .4.1.7.2.9.1.2.5.4 1.2.5 1.1.3 1.8.4 2.2.5.2 0 .4.1.6.1v.5l-2.6-.1c-1.4 0-2.5 0-3.2-.1l-2.6.1-1.9.1h-1l-.3-.1c0-.3.1-.5.2-.5.1-.1.3-.1.7-.2.5-.1 1.1-.2 1.8-.4s1.1-.4 1.3-.6c.1-.1.2-.3.3-.5.1-.5.2-1.6.2-3.1v-3.1l-.1-6.7-.1-1.4v-4.8H360c-1.7 0-2.8.1-3.1.3-.6.3-1.5 1.3-2.6 2.9-.4.6-.7.9-1 .9h-.2c0-.1-.1-.1-.1-.2s.1-.6.3-1.3c.2-.9.4-1.5.4-1.8zM385.6 320.3v-.9c1.9 0 3.2 0 4.1-.1.3 0 .6-.1.7-.1h.5c.5.4 1 .9 1.4 1.4.1.1.2.2.3.4l3.8 4.2.5.6c.8.9 1.5 1.7 2.1 2.3.6.6 1.9 2 3.7 4l4.3 4.8c.4.5 1 1 1.6 1.7v-.3c-.1-1.7-.1-2.5-.1-2.6l.1-1.1v-2.5c0-.5 0-2-.1-4.5 0-.3-.1-1-.1-2-.1-1-.1-1.8-.1-2.5 0-1.3-.1-2.1-.2-2.3-.1-.2-.6-.3-1.5-.5-.2 0-.6 0-1-.1-.5 0-.9-.1-1-.1-.1 0-.2-.1-.3-.3 0-.2.1-.4.2-.5.3-.1.6-.1 1-.1.3 0 .8 0 1.2.1s.9.1 1.3.1c.6 0 1.4 0 2.6-.1.7 0 1.1-.1 1.4-.1h.3v.6c-.2.1-.5.1-.8.2-.3 0-.6.1-.9.2-.4.1-.7.2-.8.3-.3.3-.4.6-.4 1l.2 5.7.1 2.6v.8l.1 3.6c.1 2.5.1 4.6.1 6.4 0 .4 0 1.3-.1 2.6l-.8.1c-.4-.5-1.9-2-4.3-4.5l-1.2-1.2-1.5-1.8c-.6-.7-1-1.1-1.2-1.3l-.4-.4c-1.3-1.5-3-3.3-5.1-5.6-.6-.6-1.4-1.5-2.5-2.8-.7-.8-1.1-1.3-1.3-1.5-.2-.2-.4-.4-.7-.6l-.1.6c0 2.3.1 5.6.2 9.7l.1 5.9c0 .5 0 1 .1 1.5l.6.1c1.1.1 2.3.3 3.4.5.1.1.2.1.2.2v.7c-.2.1-.3.1-.5.1h-.5c-1.2-.1-2.6-.1-4.3-.1-1.2 0-2.3 0-3.2.1h-.8v-.5l.5-.2.8-.1c.8-.1 1.3-.2 1.7-.4.2-.1.4-.2.6-.4.1-.8.2-2 .2-3.6 0-.7 0-2.1-.1-4.1v-7.5c0-2.3-.1-3.6-.2-4-.1-.2-.2-.4-.4-.6-.5-.3-1.1-.5-1.8-.6-1-.5-1.5-.5-1.7-.6zM423.7 342c.1-.1.2-.2.3-.2.2-.1.6-.1 1-.1 1.2-.1 1.9-.2 2.2-.3.2-.2.3-.6.3-1v-12.6l-.1-5.1c0-1.2-.1-1.9-.2-2.1-.2-.2-.9-.4-1.9-.4-.5 0-.9 0-1.2-.1-.2-.1-.2-.2-.2-.3 0-.1 0-.2.1-.3.1-.1.2-.1.3-.1h.6c.7.1 1.4.1 2.2.1h1.3l3.2.1c1.6 0 2.8 0 3.7-.1.9 0 1.5-.1 1.8-.1.3 0 1 0 2 .1h2.6l.3.1 1.5-.1.2.1c.1.1.1.2.1.3 0 .2 0 .4-.1.8-.1.3-.1.6-.1.6 0 1.2 0 2.3.1 3.2 0 .1 0 .1-.1.1s-.2 0-.4-.1c-.1-.2-.3-.6-.5-1.2s-.6-1.2-1-2c-.3-.5-.5-.8-.7-.9-.2-.1-.5-.1-1-.1H437.6l-5.1.1h-.4c-.7 0-1.1.1-1.2.3-.2.3-.3 1.1-.3 2.5 0 .1 0 1.6.1 4.3v2.5c.1 0 .3.1.4.1h2.9c1.3 0 3-.1 5-.1.6-.1 1-.2 1.1-.4.2-.2.3-.8.4-1.7.1-.9.3-1.4.6-1.5.2 0 .3 0 .4.1v.7c-.1.4-.1 1.8-.1 4.2 0 .6 0 1.3.1 2.1s.1 1.2.1 1.2c0 .1 0 .3-.1.4-.1 0-.2.1-.2.1h-.3c-.2-.3-.4-.9-.6-1.6-.3-1.2-.6-2-1-2.3-.3-.3-.9-.5-1.7-.5h-4.1c-1.7 0-2.8 0-3.3.1v8c0 1.2.1 1.9.2 2.1.2.3.6.4 1.3.4h4.6c2.3 0 3.9-.1 4.6-.3.8-.2 1.4-.5 1.9-1.1.5-.5 1.1-1.6 1.9-3.3.2-.5.5-.7.7-.7.1 0 .2 0 .4.1-.3 1.2-.5 2-.6 2.3-.1.8-.2 1.7-.2 2.6 0 .4-.1.7-.3 1h-.4l-5 .1h-2.3l-5.4.1h-3c-2.2.1-3.7.1-4.8.1-.2 0-.3 0-.4-.1-.1-.1-.1-.1-.1-.3l.3.1zM470.6 320.1c.1.8.1 1.2.1 1.4l-.1 1.6c0 .7-.1 1.1-.1 1.3-.1 0-.2.1-.3.1h-.2c-.4-1.7-1-2.9-1.9-3.7-.9-.8-2-1.1-3.4-1.1s-2.5.4-3.4 1.1c-.9.8-1.3 1.7-1.3 2.7 0 .8.3 1.5.9 2.1.6.6 2.2 1.6 4.7 2.9 1.9 1 3.3 1.8 4.1 2.4.8.6 1.4 1.4 1.9 2.2.4.8.6 1.8.6 2.8 0 1.3-.3 2.5-1 3.6s-1.6 2-2.7 2.5c-1.1.6-2.6.9-4.5.9-1.6 0-3.2-.3-4.7-.8-.9-.3-1.4-.6-1.6-.8-.2-.2-.3-.4-.3-.6v-.5c.2-1.4.3-2.6.3-3.5 0-.6.1-.9.1-1 0-.1.1-.1.3-.1.1 0 .2 0 .3.1.1.1.1.2.1.4.1 1.5.8 2.8 2 4 1.2 1.2 2.6 1.7 4.1 1.7.9 0 1.8-.2 2.6-.6.8-.4 1.4-1 1.9-1.7.4-.7.7-1.5.7-2.2 0-1-.3-1.9-1-2.7-.7-.8-2.1-1.7-4.1-2.8-2.1-1.1-3.4-1.9-4-2.3-1-.8-1.8-1.7-2.3-2.6-.4-.7-.6-1.5-.6-2.4 0-1.7.7-3.1 2-4.2 1.3-1.2 3.1-1.7 5.3-1.7 1.2 0 2.3.1 3.2.4 1 .3 1.7.6 2.3 1.1zM497.7 320.1c.1.8.1 1.2.1 1.4l-.1 1.6c0 .7-.1 1.1-.1 1.3-.1 0-.2.1-.3.1h-.2c-.4-1.7-1-2.9-1.9-3.7-.9-.8-2-1.1-3.4-1.1s-2.5.4-3.4 1.1c-.9.8-1.3 1.7-1.3 2.7 0 .8.3 1.5.9 2.1.6.6 2.2 1.6 4.7 2.9 1.9 1 3.3 1.8 4.1 2.4.8.6 1.4 1.4 1.9 2.2.4.8.6 1.8.6 2.8 0 1.3-.3 2.5-1 3.6s-1.6 2-2.7 2.5c-1.1.6-2.6.9-4.5.9-1.6 0-3.2-.3-4.7-.8-.9-.3-1.4-.6-1.6-.8-.2-.2-.3-.4-.3-.6v-.5c.2-1.4.3-2.6.3-3.5 0-.6.1-.9.1-1 0-.1.1-.1.3-.1.1 0 .2 0 .3.1.1.1.1.2.1.4.1 1.5.8 2.8 2 4 1.2 1.2 2.6 1.7 4.2 1.7.9 0 1.8-.2 2.6-.6.8-.4 1.4-1 1.9-1.7.4-.7.7-1.5.7-2.2 0-1-.3-1.9-1-2.7-.7-.8-2.1-1.7-4.1-2.8-2.1-1.1-3.4-1.9-4-2.3-1-.8-1.8-1.7-2.3-2.6-.4-.7-.6-1.5-.6-2.4 0-1.7.7-3.1 2-4.2 1.3-1.2 3.1-1.7 5.3-1.7 1.2 0 2.3.1 3.2.4.8.3 1.5.6 2.2 1.1z"/><g><path d="m256.3 293.3 291.9.4M256.3 294.2l291.9.5v-1.9l-291.9-.5"/></g></svg>