<svg version="1.1" id="Layer_1" xmlns="http://www.w3.org/2000/svg" x="0" y="0" width="288" height="144" style="enable-background:new 0 0 288 144" xml:space="preserve"><style>.st0{fill-rule:evenodd;clip-rule:evenodd}</style><path class="st0" d="M173 84.5h-7.6c-5.4 0-8.7-.6-9.8-1.8-1.1-1.2-1.6-3.5-1.6-6.9V54.1h-5.4v-5.3h5.4v-7.2h12v7.2h6.5v5.3H166v21.7c0 1 .4 1.7 1.3 2.1.9.4 2.7.5 5.6.5v6.1h.1zM203.7 84.5H193v-1.4c-.9 1.3-3.5 1.9-7.7 1.9-6.6 0-9.8-1.9-9.8-5.6v-7.2c0-1.6.8-3 2.4-4.2 1.6-1.2 4.8-2.7 9.6-4.5 2.8-1 4.2-1.8 4.2-2.5v-5.3c0-1.2-.7-1.8-2.1-1.8-1.6 0-2.4 1.4-2.4 4.3 0 .5 0 1.3.1 2.3.1 1 .2 1.8.2 2.3h-11.6v-7.1c0-4.8 4.8-7.2 14.4-7.2 8.9 0 13.4 2.5 13.4 7.5v28.5zm-12.1-6.6v-9.2c-2.8.5-4.2 1.4-4.2 2.7v6.5c0 1.1.7 1.6 2.2 1.6 1.4 0 2-.5 2-1.6zM230.3 84.5h-7.6c-5.4 0-8.7-.6-9.8-1.8-1.1-1.2-1.6-3.5-1.6-6.9V54.1H206v-5.3h5.4v-7.2h12v7.2h6.5v5.3h-6.5v21.7c0 1 .4 1.7 1.3 2.1.9.4 2.7.5 5.6.5v6.1zM260.8 69.4h-16.2v8.3c0 1.2.7 1.8 2.1 1.8 1.4 0 2.1-.6 2.1-1.8v-7.2h12v7.3c0 4.8-4.7 7.2-14.2 7.2-9.3 0-14-2.5-14-7.5V56.1c0-5 4.7-7.5 14-7.5 9.4 0 14.2 2.4 14.2 7.2v13.6zm-16-17.6 4.2.1V54c1.8 2.6 3.1 5.2 4.9 7.8.8 2-.4 3.1-2 3.2h-10.3c-1.7-.5-2-1.7-1.3-3.2l4.5-7.8v-2.2z"/><path class="st0" d="M96 38.7h1.9l-.3.5v.6l.3 1.2-.5.3-.4.1-.5-.2-.5-.3.1-.4.1-.2.2-.6-.1-.1-.2-.2-.6-.1.1-.2.2-.2.2-.2zm-3.5 62.5.5.5.3-.2 1.3-.5-.3-.2-.2-.3-.4-.7h.2l.1.2.3.2.1-.3v-.5l-.1-.7-.2-.8h.7v.6l.1.6.4.5.6.2.2-.1v-.3l-.1-.3-.1-.2-.2-.2-.1-.3.1-.4.3-.3.3-.2h.2l.7.2.6.2h.7l.2-.2-.1-.6.2.1.2.1.2.2.3.1.3-.2.4-.3.5-.4.5-.2 1.4-.3c1.6-.5 2.6-1.6 3.8-2.7l1-.5h1.2l.6-.2.2-.2.2-.4.8.6.6.6.1-.5V92l.6-.3.3-.4 1-.4 1-.2.3-.5.2-.6 1.3.2.9.1.5-.1.2-.2.2-.2.5-.3 1.3-.1.4-.3.1-.2.1-.2v-2.6l1-.1.2-.2V85h1.2v.1l.1.3.6-.6.2-.3.2-.3-.1-.3-.1-.2-.2-.1v-.2h2.2l.1.4.1.2.2.2.3-.2v-.4l-.1-.5-.3-.2.5-.8.3-.9-.2-.2-.6-.1-.1-.6-.2-.5-.2-1-.6-.3-.6-.2-1.1-.2.2-.4-.1-.4-.5-.6-.6-.6-.5-.3-.1.6-.1.9-.2-.2-.2-.2-.5-.1-.2.1v.2l.1.2h.3l-.4.5-.4.6h-.6l-.5-.2-.7-.3-.7-.4-.6-.2-1-.3-1.1-.2-.2-.2-.4-.4h-1l-.8-.3-.6-.3-.8-.2-.2-1h.6l-1-1.4-.5-.5-.9.6-.4.6-.2.7h-.7v-1l-.2-.1h-.9l-.2.2-.3 1h-.7v-1l-.1-.1h-.3l-.4.1v.2H103V73l-.2-.5-.4.2-.3.4-.9.2-1.8-.4-1.9-.4-.2.1-.3.2-.3.5-.5-.3-.2-.4-.2-.8-.4.2-.6.2-.3-.1-.2-.2-.3-.1-.3-.1-.7.2-.6.2-.8-.1-.6-.2-.9-.4-.4.1v.3h-4.6l-.8-.8-.6-.6-.2-.4-.1-.3.2-.5.2-.2-.2-1h-.9l.2 1 .1.3-.2.6-.6-1-.4-.6-.5.2-.2.5-.1 1.2-.4.1-.2.1-.2.2h-2.6V70l-.2-.1h-.7l-.2.1-.2.2H76l-.8-.2-2.2-.8-.7-.2c-1.5.3-2 .3-3.5 0h-.6l-.3.4-.2-.2-.2-.2-1-.1-.9-.3-.9-.3-1-.2-.3-.2-.3-.5-.3.3-.2.4-.2.5-.3-.1H62l-.1-.2-.2-.1h-2.9l-.4-.1-.3-.2-.7-.4-.5-.1c-1.1 0-1.6-.1-2.6-.5l-.5-.2-.4-.1-.2.1v.3l-1.1-1-1.3-1-.4.3-.4.5-.9.1-1.5-.3-2.1-.6-.3-.2-.3-.2-.3-.2-.3-.2-.4.2-.3.2-.4.4-.3.1-.7-.1-.6-.3-1.7-1.4-.8-.6-.6-.2-.2.1-.1.2v.1l-.2-.1-.4-.2-.3-.3-.6-.7-.2.1-.1.3h-1.1v-.7l.3-.2.5-.3-.1-.3-.2-.1.2-.7.1-.6-.1-.5-.3-.6-.9-1h-.5l-.2.3v.4h-.8l-.6.2-.6.5-.4.6-.9-.6-.6-.2h-.8l-.1-.8-.3-1.1.6.5.3.7h.6l.1-.2v-.9l-.7-.4-.7-.3-.3-.4c-1.1-.7-.9-3.5-1.3-3.9l-.5-.3v-.6l.1-.2.1-.2.3-.3.8-.8.3-.6v-.5l.6-.3.6-.4.8-.7V46l-.5-.3-.3-.2h-.6l-.2.2-.2.2h-.6l-.3-.2-.3-.4-.6-.4-.4-.2-.7-.3.3-1 .1-.8-.2-.9-.2-.9.2-1 .2-1.2.6.3.3.3.2.4v.4l-.2.6-.2.7.2.7.2.2.5.2.2.3.2.6h1.4v-1.6l1-.2.5-.4.3-.5.1-.5.1-.4.2-.4.4-.2.8-.1.9.1.3.6.2.6.9.4c.8.5 1.5 1.1 2.2 1.8l.2 1 .2.5.5.3v.7l-.5.3-.5.7h-.7l-.1-.1v-.3l-.8.3.1.2.3.1v.7l-.6.1-.8.6-.4.3-.5.2v.6l.1.4.2.3.2.5 1-.9.9-1 .2.1.2.3.5-.3.2-.4v-.5h1l.2.1v.1l-.1.2.2.1.2-.1.1-.2.1-.1.2-.1.2.6.4.2.3.1.3.3.6-.9.6-1 .7-.2.7-.3-.2-.3-.2-.4-.2-.4-.2-.4v-1l.6-.1.6-.2h-.1l-.2.1-.1-.1-.1-.2v-2h.4l.4-.1v-.2l-.2-.2-.4-.1-.3-.2.2-.4.2-.3h.7l.6 1 .7 1h.9l.6-2.3h1l.1-.1v-.3l-.1-.5h-.2v-1.1l.6-.2.9-.2V39l-.3.1-.1.4.1.3.3.6.5.6.3.2.3.2.2 1.1.1.6.2.6-.3-.1-.2.1-.4.4-.2.7-.5.2-.3.4-.1.5v.6l.1.2.8 1 .2-.2.2-.2.1-.4.2-.3.3.2.2.2.5-.2.2-.4v-.7l.1-.6-.2-.2-.2-.2v-1h1.1v.3l.2.6h.3l.2-.2V44l-.1-.4-.1-.4-.6-.6v-1.1h.6l.3.1.1.1v.2l.1.1.2-.6v-2.1l1 .7.1-1 .1-1.3.3.3.2.5.2.5v.6l.2.1.4.1.5-.2.2-.2h2.7l.1.1v.3l1-1.7-.2-1.1-.2.2-.3-.2-.2.1v-.7h1.8l.7 1.2.6 1.1.4-.3.3-.5 3 1.2.1-.1v-.3l-.1-.4-.2-.5-.3-.5-.1-.4v-.2l.1-.1h.3l-.6-.6-.4-.3-.5-.2-.1-.4-.1-.3-.6.6-.4.2-.3.1-.4-.4-.5-.4-.5-.4-.4-.2-.4.2-.4.3-1 .7V34l.6-.1.5-.2v-.5l-.5-.1-.6-.1-.1-.2-.3-.2.6-.6.6-.6v-.1h-.3l-.4.1-.1.3H59V31l-.3-.2-.3-.1-.4-.6-.3-.2-.6-.2v-1.1l.2.1.2.2.2.1.2.1.4-.1.1-.3 2.5 2 1.1.8.6.3.4-.1v-.3l1.1.6.5.4.5.6.7-.6 1-.3.2-.3v-.3l1-.6.3-.6.2-.6.2-.6.3-.6.8-.2.6-.2.6.1.2.2.2.4.1.2.2.2.6.2h.7l.1.4.1.2.2.2-.4.4-.5.9-.5.8-.2.6.1.3.2.2.3.2.4.1.3.4.2.2.3.2v.6l-.4.2-.5.2-1 .2.2 1h1.6l.2-.6v-.6l.7-.2.4-.2.2-.2.1-.3.1-.2.1-.2.3-.2.5-.1.6.2.6.4.3.2.2.3v.3l-.1.4.6.2h.8l.6.7.7.8.3-.2.5-.1 1-.1 1-1 1-.9.4.6.6.8.8.6.6.2h.4l.2-.2.2-.4.1-.6-.2-.9-.6-.8.6-.6.3-.2.2-.2.1-.6-.2-.7-.2-.7.1-.2.1-.1.2-.2.1-.2-.1-.2-.3.5h-.1l-.1-.2v-1.1l.8-.4.3-.4-.1-.3-.2-.3-.6-.6h-1l-.2.2v.2l.1.6-.5.6-.6.4-1.3.6-.3.1-.3.1-.4.1-.5.2-.5-.2-.6-.2h-.6l-.2.2.1.2.2.2v.6l-.1.2-.1.3.1.3.1.2.2.2.1.3-.2.4-.2.4v.4l.1.2.2.2H79l-.2-.2-.2-.2-.5-.7-.3-.2-.4-.2-.3-.6-.3-.2-.6-.4-.1-.7-.1-.4-.2-.4h1l.2-.2v-.8l-.2-.2-.7-.3 1-.2.2-.3.1-.3.6-.2.2-.3v-1.1l.3.1.2.3.6-.7.5-.9-.1-.3-.2-.3-.5-.6v-1.1h.6l.4-.2.7-.6.6-.6.4-.2.5-.1.4.2.3.4.2.6.3.4 1.4.1-.1.3-.2.2v.6l1.1.6 1.1.7.2.6.2.3.3.2.4.1h.5v.5l.2.2.2.2.2.1.6.2.2.2.2.2 1-.1-1.3-1-.6-.7-.7-.4V25l.8.3.7.1v.6l-.1.2-.2.1-.2.1.6.2h.5l.4.6.2.5.4-.2.3-.5.6.4.4.6.2.6.2.7.2.8.2.6.4.6.6.6h.6l.4-.7.5-.6v-1.4l-.2-.1h-.4l-.6.1-.7.2v-.7l.3-.2.5-.3v-.5l-.7-.2-.8-.1-.6-.8-.6-1h.8v.4l.2.4h.6l.2-.2.1-.2-.2-.7.9-.7.5-.6.2-.6-.1-.3H95l-.5-.5.4-1 .4-.8.3-.7.1-.4-.1-.5.3-.2.1-.2h.2l.2.2.3.2.2.6.2.3.1.3-.1.2H96.8V21.2h.4l.1.2-.1.2-.2.2-.2.1v.6l.2.2.5.3.6.2.6.3v.7l-.6.4-.6.6v.5l.2.2h.4l.3-.2.3-.2.3-.3.4-.2-.1-.2-.3-.1v-1.1h.7l.1.9.5.6.6-.2.7-.2.2-.2v-.4l-.1-.6-.3-.3 1-.1 1-.2-.5-.8-.5-.4-.6-.2v-1.4l.2-.2.1-.4.1-.6h1.1l.1 1.8.4.2.4.3.3.3.4.1.4-.1v-.2h1.1l-.3.4v.3l.3.5.1.7-.1.3-.2.2-.2.2v.6l.2.2.2.2.1.3-.3 1-.5 1 .6.1.2-.3v-.4h.6l.2.1.1.1.1.2.2-.6.1-.6.2.2.2.2.6-1 .4-.5.5-.5.1.7.1.8.4-.3.2-.5.2-1 2.3-2.8.3.1.2.2.2-.1.2-.2h.3l.3.2.2.2h.6l.2-.2.2-.2.3-.1.6.2.6.2-.2-.4.1-.6.2.1.2.3.2-.2.1-.6h1.1l.2 1 .3 1h1l.2-.1.2-.1.4-.3-1.2-1.1v-.6l.6-.4.2-.3v-.5l.9.2.6.2-.5.5-.2.3-.1.3.1.3.3.3.2.4.1.3-.2.8v.8l-.4.3-.6.2-.6.2-.6.3.6.6.4.3.3.1.3-.1.1-.1.2-.2.2-.1c.8.2 1.6-.1 2 .1l.2.1.2.2h.5l.2-.5v-.6h.5l.5-.2.4-.3.6-.2v1l-.1.2h-.1l-.2-.1-.1.2v1.4l.6.1.2-.1v-.2l-.1-.2h-.3l.1-.4.3-.2.4-.2h.5l.1-.5.1-.6.2-.1.2-.3 1.6 1.4.7.7.9.6.6-.2.2-.3.2-.6h1l.2.1V25.1c1.1.1 1.7.5 2.7.7l.9.1 1-.2 1.9 1.7 1.9 1.8.4.1h.5l.4.4.6.2 1 .6 1.1 1 1.1 1.2 1 1.4.3.7.2.6h.9l.2-.1v-.5l.2-.1h.6l.6 1.1.1.1h-.5l-.3.1-.1.2-.2.3-.2.3.1.2.2.2.1.2-.1.2-.1.2-.4.2.2.2.2.2h.3l-.3.4-.5.2-1.1.3v.4l.2.1h.4l.5-.1.3-.2V40.4H150.2l-.1 1.5-.5.4-.6.3.2.2.4.1v.5l-.6-.2-.4-.1-.5.1-.3.2-.6.6-.4.8-.4.6h-2.6l-.2-.1-.1-.1-.1-.1-.2-.1-.3.1-.2.2-.3-.3-.2-.4-.8-.3-.9-.4v-.8h.5l.1-.2v-.2l-.2-.4-.2-.3-.4.3-.2.5-.1.6v.6h-.8l-.8-1-.5-.6-.2-.6v-1l.6-1.1.4-.6.6-.5h.8l.1.1v.2l.3-.2.1-.1.1-.2.4-.2.4-.2-.2-.1-.2.1h-.2.1l-.4.2-.5.2v-.8l.1-.2.2-.2.6-.2.5.2.6.1.4-.1.2-.1.1-.2.2-.8.1-.4-1.2-.2-1.1-.2.1-.1-.1-.1h-.2l-.3.1-.1.1-.2.2-.2.1-.2-.1-.2-.2-.2-.1-.2-.1-.3.1-.2.1-.3.2-.3.1-3.1-.4-.2.1-.1.1-.1.2-.2.1-.3-.1-.1-.2-.2-.1-.2-.1-.4.1v.2h-.7l-.2-1.4-.5-.6-.2-.2-.3-.1h-.3l-.1.2-.2.2h-.5l-.2-.2-.2-.2-.2.2v.4l.2.6.2.7-.5.3-.5.2-.3-.1-.3-.2-.2-.1-.3-.1h-.4l-.2.4-.2.3-.9.5-1.8.4-.2.3v.4l-.3-.2-.2-.2-.3.2-.4.1c-.8.1-1.9-.4-2.4-.2l-.2.2-.2.1-.3.1-.6-.2-.7-.2-.9.2c-.9.3-1.6.8-2.4 1l-.2-.1-.2-.2-.2-.1-.2-.1-.4.2-.2.2-.3.2-.6.2-.5-.1-.3-.2-.6-1h-.9l-.6 1.2-.6-.7-.6-.9-.6.3-.7.2-1 1-.6.6-.6.3-1.3.1-.2.2-.1.1h-.5l-.2-.2-.2-.4-.2-.2-.3-.2-.5-.2-.6-.1v-.7l-.1-.7-.5-.7-.2-.2-.4-.1h-.4l-.2.3-.6.7h-.8V36.7l-.2-.1-.2.1-.1.1v.2l-1 .1-.8-.2-.8-.2-.2.1-.3.2-.4.4-1 .8-.6.6-.2.3-.1.3.1.2.2.2.1.2-.1.3-.1.2-.2.2-.1.2.1.2.2.1.6.1v.7l-.6.3-.2.5h-.2l-.2-.2-.2-.2h-.3l-.1.3-.3.3-.7.6-.8.1h-.7l-.4-.2-.3-.5-.5-.8h-.5l-.2.2v.4l.1.6.2.8-.3-.2h-.3l-.2.1-.2.2-.2.5-.3.5-.3-.3-.6-.1-.6.2-.5.5-.8.9-.4-.3-.6-.2-.6.2-.6.3v-2.3h-.6l-.2 1.4-.2.6-.3.6-1.1.7-.6.3-.5.2-.2-.1-.2-.1-.1-.2-.6.5-.3.2-.4.1-.6-.2-.3-.4-.1-.4v-.2l.2-.6.3-.6.7.3.6.1.8-.2.8-.2.2-.2.3-.4-.6-.1-.4-.1-.3-.5-.6-.3.5-.5.7-.4v-.9l-.6-.4-.3-.6-.3-.7-.5-.7-1 .6v1.1h.1l.2-.1v.7l-1-.7-.2.1v.3l.1.3.3.1v3l-.1.3v.1l-.5.2.2.6-.1.6-.2.6-.4.6-.5.6-.6.4-.6.2-.4.1-.5-.2-.2-.2-1.1 1.2-.2-.1-.1-.2-.2-.1-.2-.1-.3.1-.2.1-.3.2-.3.1-.6-.1-.2-.2-.2-.2-.6.5-.5.6-.4.9v.5l.1.6-1.2-.1-1.1.2-.5.2-.4.4-.2.4-.2.6.1.6.3.3-.3.5-.5.3.6.6.4.9 1-.6-.1-.2-.3-.2v-1.1l.3.2.2.2h.6l.6-1.5.5-.6.3-.2h.4l.5.1.4.2.2.3.2.4.2.9.4.8.2-.2.2-.6.2.2.2.2 1.9-1.1h2.6l.1.6.4.2.3.2.5.7.7 1.6.1.2h.3l.4-.1.2-.3.2-.6-.1-.5-.3-.2v-1.1l.6-.1.3-.2.4-.1.3.2.3.2.3.2.4.2.4-.1v-.2h.7l-.1.4-.1.5v.4l.2.3.3.7 1-.2v-.5l-.3-.1-.4-.1V57l.2.2.2.2.4-.3.6-.1.6.2.7.2.6-.2.7-.2h.5l.4.2.4.4.4.6.2-.2.2-.2h.7l.1.2.2.2v.7h-1l.1.1v.4l.1 2.2.6-.8.6-1 .3-.1.4-.2-.1-.2-.3-.1v-1.1l.6-.3.6-.5 1.3 1.1h.5l.2-.5v-.6l.9.6.6.2h.8v.6l-.2.3h-.1l-.2-.1-.1.2.1.2H92.8l.1.2v.2l-.2.1-.2.1.2.6h1.7l.1-.2v-.5l-.3-.8-.6-1 .2-.3.2-.4h.7l.4.6.2.2h.4l.5-.1.2-.2 1.2 1.1.6.5.7.4.1.3v1l-.2.7-.2.6-.3.6.2.3.3.3.5.4.4-.2.4-.3.6-.7h1.1v.6l.2.6h.5l.2-.5V63l-.1-.8-.2-.2-.6-.3V61l1.8-.7.9-.3.6-.2.3.1.3.2.6.5.6.4.5.2.6-.1.1 1.4.5 1.3.4-.3.2-.5.1-1.1h.7l.4.5.2.2.4.1.6-.1c.1-.1 3.3 1.5 4.6 1.7h.6l.9.6.4.3.4.3.6.9.3.5.2.2.4-.1.1-.3 1.8 1.2v.7l-.6.2-.5.3.2.2.3.2.2.1.2.2 1.1-1.2h.7v.7l.1.2.3.1.6-.1 1 1.1.3-.3.6-.1 1.4.4 1.1.2 1 .2.2.6.2.3.3.2-.1.2-.2.2.5 1 .4.5.4.3.5.6h.7l.6.2.5.1.3-.1.1-.2v-.1l.1.1 1 .8.8.9c1.1 1.6 1.8 2.2 3.3 3.4l1 1 .7 1 .4.7.2.7 1.4.1.2.9.2.8v1l-.2.2-.5.3.2.4.4.3.2 1.4.6.5.5.2.3.3.2.5-.1.3-.1.2-.2.2h.1l.1.3.2.2.1.2.1.2-.1.3-.1.1-.2.2.3.4.4.2.7.2.9 1h-1.2l-.2-.2-.1-.2-.2-.2-.5-.2-.6-.2H143v.6l.6.2h.6v.7h-.8l-.1-.1v-.2l-.6.2V96l.2.1h.4l.5-.1.2-.2h1.1v1.1l-.4.2-.4.3.2.6 1-1v-2.1l-.2-.1-.1-.1-.1-.3 1.2.8.6.2.3.2.1.6v.3l-.2.2-.1.3-.1.2.1.4.2.3.2.6 1.1 1.2-.6.1-.6.4-.3.5-.2.5-.3.1h.3v.1h-.2l-.2-.1-.2-.3-.2.1-.1.2-.1.1h-.8v-.4l-.2-.1.2.1-.2.2-.2.1h-.3l-.3-.1h-.3l-.4-.2-.4-.1h-.4l-.5.2-.5.1v-.7l.1-.2.2.1h.1l.1-.2-.1-.2H141.6l-.1-.2.1-.2h.1l.2-.1-.2-.2-.3-.4-.5.3-.2.2-.1.3.2.4h.2l-.4 1h-.7v2l.6.2.8.1.4.4.4.3v1.1l-.4-.3-.6-.2-.6.2-.4.3-.4-.2-.5-.2-.4-.2-.3-.2-.5.6-.3.4-.1.6h-1l-.3.8-.2.7.1.4.2.4.6.7h-.2l-.2-.2-.2-.2-.2.6v.6l-.6.2-.5.2-.1-.6-.3-.2-.3-.1-1-1.1-.2.2-.2.5-1 .4-.5.1h-.6l-.2.5-.1.6-1.1-.8.3-.6.1-.8h.2l.2.2.2.2.2-.2v-.6l-.2-.9-.2-.9-.1-.2h-.3l-.4.3-.5.8-.6 1 .1.4.2.1v.7l-.3-.2-.2-.2h-.6l.1 1.5h-1l-.2-.2-.2-.2-.2-.2-.1-.3-.1-.3-.9-.1-.8-.2h-.6l-.4.2.1.2.2.2.1.1.1.2-.3-.1-.2-.2-.6.6-.8.4v.5l.3.2h.3l.1.4.2.3h.2l.1-.5.1-.6.9-.1.2-.2v-.6h.7l.6.7.6.3.7.3.8.6.1-.2.1-.1h.2v.2l-.2.1-.1.2-.1.3.1.2.1.2.2.2.1.2-.2.5-.4.6-.4.6-.2.5.1.5.2.2-.8-.6-.2-.5v-.6l-.2-.2h-.4l-.3.1-.3.2-.4.6-.1-.1-.1-.1-.1-.2-.3-.1h-1l-.2.2v.5l.1.5.3.2-.4.5-.4.6h-.2v-.2l-.2-.2-.2-.1h-3.3v-.2l-.4-.1-.4.1v.2h-.7l-.2-.9-.4-1-.5-.1-.1.1v.2l.1.2h.2l-.5.8-.3 1-.5-.5-.2-.4-.2-.5-.3-.6h-.5l-.3.6-.6.3 1.1 1.1v1.1l-1.4-.2.2-.1v-.2l-.2-.6v-1.2l-.1-.2h-.3l-.2.1-.2.2-.3.6-.5 1-.2.6-.4.6-.9 1.2h-.7l-.2-.8-.1-.6-.3-.6h-.5l-.2.2v.4l.2.6.2.7h-1.9V117.9h.2l.1.1.2-.1-.2-.2-.4-.2-.9-.2-.6-.6-.3-.3-.3-.1-.3.1-.4.3-.3.6-.2.6-1.4.1-.2.3-.1.3-.7.2-.4.2-.3.1-.7-.2-.6-.2-.6.2-.6.4-.6.9 1 .2.8.3.3.3.2.3.2.5v.5l.3-.2.5-.2.7.2.6.2v1.1l-.6.2-.3.2h-.4l-.3-.1-.4-.3-.4-.2-.4-.1h-.2v.2l.1.2h-.8l-.2-1-.2-.4-.4-.2-.3.1-.3.2-.5.3-.1.4-.1.6-.2.5-.2.2-.3.2v-.5l-.2-.5-.6-.6v-.8h.2l.1.1.2-.1-.2-.6h-.5l-.2.6v.6l-.6.2-.4.2-.7.7-.7-.6-.6-.7-.2-.5-.2-.2H89v-.7l.1-.2h.2l.1.1.1-.2-.1-.3-.2-.2-.3-.5H88l-.2.7v.7l-.2.6-.2.2-.3.2.3.5.4.6v.7h-.6l-.2.6v.6l-.2-.1-.2-.2-.2-.1-.3-.1-.2.1-.2.1-.2.2-.3.1-.3-.1-.2-.2-.2-.1-.2-.1-.4.1-.4.2-.8.9-1.2 1.5-.4-.2-.5-.1-1-.2-.7-1-.2.8-.2.4-.2.3h-1.1l.1-.1h.1l.2-.1.1-.2V125h-.6l-.2.5v.6l-.3.2-.1.2-.5-.5-.6-.2V124.2l.2-.2.2-.2.1-.3-.1-.4-.2-.4-.4-.9-.2-.6v-.7l-.4-.6-.6 1.1-.6 1.2-1.4.2v.5l1.5 1 1.6 1.2-.5 1.1-.3 1.1h-1.9v-.6l-.3-.2h-.5l-.3.1-.2.2-.3.1-.3.1-.7-.2-2.2-1-.7-.2h-.2l-.2.2-.2.2-.2.1-.6-.2-.5-.4-.8-1-.2.1-.1.3h-.7l-.3-.6-.2-.8-.5-.2-.2-.2-.2-.2-.2.2-.4.3.7 1.2.1.4.2.5-.1.3-.2.2-.1.2-.2.3h-.4l-.5.2-.7.5-.7.2-.4.2-.3.1-.3-.1-.3-.2-.5-.8-.3-.9-.1-.6-.3-.1h-.5l-.6.1-.4.3-.2.4.1.7H54v-.7l-.1-.6-.3-.5-.4-.2-.3.1-.2.1-.2.2h-.2l-.1-.9-.4-.7-.4-.6-.4-.5-1 1.3.2.6.2-.2.2-.2h.2v1.4h-.4l-.2-.2-.2-.1-.3-.1-.3.1-.2.1-.3.2-.3.1-.2-.1-.2-.2-.2-.1-.3-.1-.2.1V125.1l-.2.1-.2-.1V124.8l-.2-.1h-2.4l-.2-.1-.1-.2-.1-.1-.3-.1-.6.2-.7.2-.4-.1-.3-.2-.6-1h-3l-.5-.5-.8-.4c-1.3-.3-1.4.1-2.6.1l-.2-.2-.2-.2h-.2l-.3.1.1.2-.2-.1-.2-.1-.3-.2.6-.3.3-.1.2-.2v-1.1l-.1-.3-.6.2-.4.2-.5.2-.6.1-.9-.2-.9-.2-1.4.4-.5-.2-.7-.5-.9-.5-.8-.5v-2.6l-.1-.2-.2-.2-.3-.4-.9-.1-.8-.4-.6-.6-.4-.8-.7-.4-.8-.6v-.7l.3-.2.2-.3.2-.2.2-.2-.2-.2-.3-.4h-.5l-.6 1.2-.6-.2-.8-.2-.2-.4-.2-.2-.6-.4-1.4-.5-.6-.2-.6-.4-.1-.2-.1-.3.2-1-.5-.1-.6-.1-.3-.5-.5-.3v-1.1h1.1l.3.6.2.2.3.1.3-.1.3-.2.6-.6h1.8l.2.7.4.6.3.6v.4l-.1.4.6.1.8.1.6.7.4.8.6-.2.2-.1.2-.3-.1-.2-.2-.1-.1-.1-.1-.2.4-.2.2-.2h.2l.2.2.2.1v.2l-.2.2-.2.2.9.2v-1.8l.7.2.8-.1-.3-.4-.5-.3v-.7l.1-.2.2.1.1.1.1-.2-.1-.2H24.3l-.1-.2.2-.2.2-.2.1-.2-.1-.2-.4-.9h2v.4h.4l.1-.2v-.2h.2l1.7.2 2.2.6v.4l.2.3.6-.3.4-.3.2-.2.4-.1.9.2 1 .2.1.6.3.8-1.2.6.8 1.2.4.5.4.2.3-.2.2-.5.2-.9.6-.1.6-.1-.1-.2-.3-.1v-.7l1.9-1.2v.7l-.4.4-.4.5-.7.9.2.5.1.6.2 1.2.6-.6.4-.6.3-.7.2-.8.3-.3.4-.3.1-.4v-.6l.5-.3c.9-.2 1.5.1 2.4.2l.7-.1.6-.3.5 1.3.4.6.5.6h.4l.2-.9.2-.3.2-.3.6-.1.2-.2.2-.2h1.1l.2.6.2.3.3.2.4.4h-.6l-.2.1v.3l.1.3.2.2.5.3.2 1.5h.5v-.6l.2-.4.2-.3.3-.3.7-.3.7-.2-.1-.2-.3-.1.4-1.5.2-.6.3-.6.8.3.6.1.6-.1.3-.2.4-.1.6-.1h.7l.6-.2H59v1.1h-.6l-.2.1v.3l.2.7.1.3.1.4.1.1h.3l.6-.5c.8-.9 1.3-1.3 2.3-1.9l.8-.5.4-.2c1.1-.2 2.1.8 3.4.6l.5-.2.5-.3.6-.2h2.6l.3-.1.5-.5.4-.5.6-.2.5.2.2.2.5-.3.4-.4.4-.3.6-.2.2.1.2.2.2.1.3.1c1.1-.4 1.3-.1 2.7.4l.4-.1.3-.2.7-.6.2.1.1.2.2.1.3.1.3-.2.6-.4.6-.4.5-.2.9.3.8.5.7-.2-.1-.2-.3-.1v-1.1h1l.6-.2.5-.2.2-.2.3-.4.4-.2.6-.1 1 .2 1 .2h.9l.2-.2.3-.6h.6l.6.6.2.4.1.3-.1.5-.2.1-.2.1-.1.2h-.3v.2zm3.4.4zm-.8-.2-.7-.2h.4l.3.2zm49.1 1.5.3.1.2.1.2.2.2.1v.7h-1.9v-.7l.3-.1.2-.2.2-.1.3-.1zm-122.5 1.2H23l-.2.8.2 1.1h-1.4v-1.9h.1zm81.8 15.2.2.1.2.2.2.4.2.3.2.2h.4v.7l-.8-.2-.6-.2-.3.1-.2.1-.7.6v-1.1l1.2-1.2zm10.8-1.2h.7v1.1l-.2.1-.1.2-.2.6h-.6l-.6.2-1.1.6.1-1-.1-.3-.1-.2-.3-.1h-.4v-.7h.7l.3.6.2.2.2.1.6-.3.4-.4.5-.7zM98 20h.7l.2.6.2.2.3.1.2-.1.2-.2.1-.1.2-.1v.7h-.4l-.5.2-.2.3-.3.3H98l-.2-.3-.2-.1.2-.9.2-.6z"/><path d="M268.7 44.9c1 0 1.8.2 2.7.5.8.4 1.6.9 2.3 1.5.6.6 1.1 1.4 1.5 2.2.3.8.5 1.7.5 2.6 0 .9-.2 1.8-.5 2.7-.3.8-.9 1.6-1.5 2.2-.7.6-1.4 1.1-2.3 1.5-.8.3-1.7.5-2.6.5-.9 0-1.8-.2-2.6-.5-.8-.4-1.6-.9-2.3-1.5-.6-.6-1.1-1.4-1.5-2.2-.3-.8-.5-1.7-.5-2.6 0-.6.1-1.2.3-1.8.2-.6.4-1.2.8-1.7.6-1.1 1.5-1.9 2.5-2.5.8-.6 1.9-.9 3.2-.9zm0 1.1c-.8 0-1.5.1-2.2.4-.7.3-1.3.7-1.8 1.2-.6.6-1 1.2-1.3 1.9-.3.7-.5 1.4-.5 2.2 0 .8.1 1.5.4 2.2.3.7.7 1.3 1.2 1.8.6.6 1.2 1 1.9 1.3.7.3 1.4.4 2.2.4.7 0 1.5-.1 2.2-.4.7-.3 1.3-.7 1.9-1.2.5-.5 1-1.1 1.3-1.8.3-.7.4-1.4.4-2.1 0-.8-.1-1.6-.4-2.3-.3-.7-.7-1.3-1.2-1.9-.6-.6-1.2-1-1.9-1.3-.7-.2-1.4-.4-2.2-.4zm-2.9 1.8h3c1.1 0 1.9.2 2.5.6.6.4.8.9.8 1.6 0 .5-.1.9-.4 1.3-.3.4-.7.6-1.2.7l1.7 3.4h-2.1l-1.5-3.1h-.9v3.1h-1.9v-7.6zm1.9 1.2v2.2h.9c.5 0 .9-.1 1.2-.3.3-.2.4-.4.4-.8s-.1-.7-.4-.9c-.3-.2-.7-.3-1.3-.3h-.8zM153.9 101.2h3.8v.5c0 1 .1 1.7.3 2.1.2.4.6.6 1.2.6.4 0 .8-.2 1-.5.3-.3.4-.7.4-1.2 0-.9-.6-1.7-1.9-2.5-.2-.1-.4-.2-.5-.3l-.2-.1c-1.7-1.1-2.7-2-3.1-2.5-.3-.4-.5-.9-.7-1.5-.2-.5-.2-1.1-.2-1.8 0-1.6.5-2.8 1.4-3.7.9-.9 2.1-1.3 3.7-1.3 1.7 0 3 .4 3.9 1.3.9.9 1.4 2.1 1.4 3.8v.6h-3.7v-.2c0-.8-.1-1.4-.4-1.8-.2-.4-.6-.6-1.1-.6-.4 0-.7.1-.9.4-.2.3-.4.7-.4 1.1 0 .8.7 1.6 2 2.4.2.2.4.3.6.4.1.1.3.2.5.3 1.5.9 2.4 1.7 2.8 2.3.3.4.4.9.6 1.4.1.5.2 1.1.2 1.7 0 1.8-.5 3.1-1.4 4.1-.9 1-2.2 1.4-4 1.4-1.8 0-3.2-.5-4.1-1.4-.9-.9-1.4-2.3-1.4-4.1v-.4c.1 0 .2-.2.2-.5zM166.7 92.6v-3.2h3.7v3.2h-3.7zm0 14.7V93.9h3.7v13.4h-3.7zM172.9 107.3V93.9h3.5v1.6c.4-.6.9-1.1 1.4-1.4.5-.3 1.1-.5 1.8-.5 1 0 1.8.3 2.3 1 .5.7.7 1.8.7 3.3v9.3h-3.7V99c0-1.1-.1-1.7-.2-2-.1-.3-.4-.4-.7-.4-.4 0-.7.2-1 .6-.2.4-.4 1-.4 1.7v8.3h-3.7zM190.8 102h3.7v.5c0 1.7-.4 3-1.2 3.8-.8.8-2 1.3-3.6 1.3-1.8 0-3.1-.5-3.9-1.6-.7-1-1.1-2.9-1.1-5.5s.4-4.4 1.1-5.5c.7-1 2-1.6 3.8-1.6 1.6 0 2.8.4 3.6 1.3.8.8 1.2 2.1 1.2 3.9v.2h-3.6v-.4c0-.8-.1-1.4-.3-1.7-.2-.3-.5-.5-.9-.5-.5 0-.8.2-1 .7-.2.5-.2 1.6-.2 3.6 0 1.8.1 3 .2 3.5.2.5.5.8.9.8s.7-.2.9-.5c.2-.4.3-.9.3-1.7v-.3c.1-.1.1-.2.1-.3zM202.8 102.6h3.5v.3c0 1.6-.4 2.7-1.2 3.5-.8.8-2 1.2-3.6 1.2-.8 0-1.6-.1-2.2-.3-.7-.2-1.2-.6-1.5-1-.4-.5-.7-1.1-.9-1.9-.2-.8-.3-2-.3-3.7 0-1.9.1-3.2.3-3.9.2-.7.5-1.4.9-1.8.4-.5 1-.8 1.6-1 .7-.2 1.4-.3 2.3-.3.9 0 1.6.1 2.3.4.6.3 1.2.6 1.6 1.1.3.4.6.9.7 1.5.1.6.2 1.6.2 3v1.6h-6.1v1.3c0 .9.1 1.6.3 2 .2.4.5.5 1 .5.4 0 .7-.1 1-.4.2-.3.3-.7.3-1.3v-.5c-.2-.2-.2-.3-.2-.3zm-2.4-3.8h2.5V98c0-.7-.1-1.1-.3-1.4-.2-.3-.5-.5-1-.5s-.8.2-1 .5c-.2.3-.3.8-.3 1.5v.5s0 .1.1.2zM218.8 107.3V95h-3.5v-2.7h.2c1.3 0 2.3-.2 3.1-.7.8-.5 1.3-1.2 1.5-2.2h2.7v17.9h-4zM233.8 100.6c-.4.3-.9.5-1.3.6-.4.1-.9.2-1.3.2-1.3 0-2.3-.5-2.9-1.4-.6-.9-1-2.3-1-4.2 0-2.2.4-3.8 1.3-4.9.9-1.1 2.2-1.6 4-1.6.9 0 1.6.1 2.3.4.7.2 1.2.6 1.7 1.1.5.6.9 1.3 1.1 2.3.2 1 .3 2.7.3 5.2 0 2.1-.1 3.7-.2 4.6-.1.9-.3 1.7-.6 2.2-.4.8-1 1.4-1.8 1.8-.8.4-1.8.6-3 .6-1.6 0-2.8-.4-3.6-1.2-.9-.8-1.3-1.9-1.3-3.4h3.8c0 .6.1 1 .3 1.3.2.3.5.4.9.4.5 0 .8-.2 1-.6.2-.4.3-1.2.3-2.2V100.6zm.1-5.2c0-1.1-.1-1.8-.3-2.3-.2-.4-.6-.7-1.1-.7-.4 0-.8.2-.9.7-.2.4-.3 1.2-.3 2.4 0 1.1.1 1.8.3 2.3.2.4.5.7 1 .7s.8-.2 1-.6c.2-.5.3-1.3.3-2.5zM244.1 107.3V95h-3.5v-2.7h.2c1.3 0 2.3-.2 3.1-.7.8-.5 1.3-1.2 1.5-2.2h2.7v17.9h-4zM256.8 107.3V95h-3.5v-2.7h.2c1.3 0 2.3-.2 3.1-.7.8-.5 1.3-1.2 1.5-2.2h2.7v17.9h-4z"/></svg>