<svg xmlns="http://www.w3.org/2000/svg" width="324" height="288" style="enable-background:new 0 0 324 288" xml:space="preserve"><style>.st2{fill:#07202b}.st3{fill:#9e8300}</style><g id="Layer_1"><path d="M50.2 250.9 18 170.6h25.7L60 214.5l16.3-43.9h25.3l-32.3 80.3z"/><path d="M66.8 250.9h-14l-29.2-76.5h17.5L60 225.3l18.9-50.9H96z"/><linearGradient id="SVGID_1_" gradientUnits="userSpaceOnUse" x1="49.204" y1="185.4" x2="197.186" y2="185.4"><stop offset="0" style="stop-color:#6f7633"/><stop offset=".183" style="stop-color:#6b7231"/><stop offset=".476" style="stop-color:#60682b"/><stop offset=".842" style="stop-color:#4e5621"/><stop offset="1" style="stop-color:#464e1b"/></linearGradient><path d="M49.8 132.3c-1.1.8-.5 2.5.8 2.5 69.9 1.9 118.9 66.5 144 114.5.8 1.5 3.1.5 2.6-1.1C162.6 137.5 95.5 98.9 49.8 132.3z" style="fill:url(#SVGID_1_)"/><path class="st2" d="M182.2 84.7h-31.5l-19.4 44.8c12.1 9.7 23 25.4 23 25.4l10.2-23.7c.3-.6 1.2-.6 1.4 0L216 250.6l37.5 1.2-71.3-167.1zM115.6 164.6 78 250.9h37.5l26.6-64.5c-5.9-8.5-26.5-21.8-26.5-21.8z"/><path class="st3" d="M137 36.2s-6.9 43 26.9 41.1c0 0 5-22-10.4-31S137 36.2 137 36.2zM169.2 77.3s24 3.3 20.3-27c0 0-4.9 2.2-8.6 4.5-3.2 2-12.3 6.8-11.7 22.5z"/><linearGradient id="SVGID_2_" gradientUnits="userSpaceOnUse" x1="250.343" y1="211.16" x2="306" y2="211.16"><stop offset="0" style="stop-color:#464e1b"/><stop offset=".158" style="stop-color:#4e5621"/><stop offset=".524" style="stop-color:#60682b"/><stop offset=".817" style="stop-color:#6b7231"/><stop offset="1" style="stop-color:#6f7633"/></linearGradient><path d="M250.4 224.7c.8-3 14.6-55.3 55.3-50.6.5.1.5.7.1.9-6 1.8-23.8 8.2-31 20.3-5.2 8.7-7 24.3-7 24.3s-3.2 19.3-6.6 28.5c-.1.4-.7.4-.8 0l-9.9-23.2c-.2 0-.2-.1-.1-.2z" style="fill:url(#SVGID_2_)"/></g></svg>