<svg xmlns="http://www.w3.org/2000/svg" width="612" height="792" style="enable-background:new 0 0 612 792" xml:space="preserve"><path d="m339.3 389.9-14.2 30.2h-.8l-14.2-30.2h2.7l12 25.3 11.9-25.3h2.6zM358.9 389.5c5 0 9.3 1.5 12.7 4.5 3.5 3 5.2 6.6 5.2 10.9 0 4.3-1.7 7.9-5.2 10.8-3.5 3-7.7 4.5-12.7 4.5-5 0-9.2-1.5-12.7-4.5s-5.2-6.6-5.2-10.8c0-4.3 1.7-7.9 5.2-10.9s7.7-4.5 12.7-4.5zm.1 28.5c4.2 0 7.8-1.3 10.7-3.8 2.9-2.5 4.3-5.7 4.3-9.4s-1.4-6.8-4.3-9.4c-2.9-2.5-6.5-3.8-10.7-3.8-4.2 0-7.8 1.3-10.7 3.8-2.9 2.5-4.4 5.7-4.4 9.4s1.5 6.8 4.4 9.4c2.9 2.6 6.5 3.8 10.7 3.8zM384.3 389.9h11.8c6 0 10.6 1.4 13.7 4.2 3.2 2.8 4.7 6.4 4.7 10.8 0 4.3-1.6 7.9-4.7 10.7-3.1 2.8-7.6 4.2-13.3 4.2h-12.3v-29.9zm2.6 1.9v26h9.6c4.4 0 8-1.2 10.9-3.6 2.9-2.4 4.4-5.5 4.4-9.4 0-3.8-1.4-7-4.3-9.4-2.9-2.4-6.6-3.6-11.2-3.6h-9.4zM444 389.9l-16.2 14.9 17.8 15h-3.3l-17.7-14.9v14.9H422v-29.9h2.6v14.9l16.2-14.9h3.2zM462.7 389.7l15.7 30.1h-2.7l-5.4-10.3h-16.6l-5.3 10.3h-2.7l15.7-30.1h1.3zm6.5 17.8-7.3-14.1-7.3 14.1h14.6zM208.4 270h-4.8 3.1s10.2-5.9 11.7-14.5c1.5-8.7 0-54.6 0-54.6s-5.1-16.2-17.9-16.2h-75.7v21.4h12.4v147.8H125v21.4h82.4s12.4-2.1 12.8-23.2v-66S218 270 208.4 270zm-42.1-63.8h15s6 2.7 5.7 7.6l.3 22.4s.8 9.3-6.6 13.2c-7.4 3.9-14.4 4.7-14.4 4.7v-47.9zM187.5 337c0 8.9-6.8 9.1-6.8 9.1h-14.4v-64.8l15.2-5.6c6-2.4 5.9 4.7 5.9 4.7s.1 47.7.1 56.6zM299.7 351.3h-28.3V226.1h9.6v-20.5h-49.5v20.8h10.4v124.1h-10.4s.5 4.4-.7 14.5c-.9 7-7.9 10.7-7.9 10.7h87.3c0-.1-12.1-8.5-10.5-24.4zM244.5 196.1c-1.8-2.4-3-5.8-3-10.4 0-16.2 15.2-20.6 15.2-43.3 0 22.7 15.2 27.1 15.2 43.3 0 4.6-1.2 8-3 10.4 5.6-3.4 11-9.7 11-21.6 0-24.8-23.1-31.4-23.1-66 0 34.6-23.1 41.2-23.1 66-.2 11.9 5.2 18.2 10.8 21.6zM379.5 359V233l-22.3.5c-6.5 1.8-6 8.4-6 8.4v99.7s-.5 8.6-8.6 8.6-8.1-8.9-8.1-8.9v-108H293c8.9 0 10.3 8.6 10.3 8.6v12.3h5.5V351c.8 20.4 16.2 24.6 16.2 24.6h15c6-1.8 7.9-8.1 7.9-8.1v7.9h39.3v-22.6h-4.6l-3.1 6.2zM450.7 123.3v6.5h7v75.4h-6.1v11.9h26.5v-12.4H471v-74.5h6.9v-11.4h-27.3c.1 0 .2 4.5.1 4.5zM347.8 208.8c-.3 10.7 19.5 8.2 19.5 8.2v-10.5c-.4 0-.7 0-1-.1-5.1-.8-3.7-7.4-3.7-7.4v-47.4H373v-11.7h-9.7v-10.1h5.2l-1.7-10.7h-21.6l-1.1 11.2h5.3l-.5 10.3h-8.6v11.5h8.3l-.8 56.7zM399.7 213.7v3.3h8.7v-25.1H397l-.7 11.1s0 5.6-3.3 5.6-3.8-5.2-3.8-5.2v-18.6l18.3-7v-21.4c0-7.4-9.3-11.2-14.5-11.2-5.3 0-14.3 2.6-16.5 10.5-2.2 7.9-.6 48.3-.6 48.3 0 5.6 6.6 14.4 14 14.4 7.4-.2 9.8-4.7 9.8-4.7zm-6.6-59.2c4.2 0 3.3 5.1 3.3 5.1V172l-7.4 3v-15.7c0-.1-.8-4.8 4.1-4.8zM427.7 218.2c7.4 0 9.8-4.6 9.8-4.6v3.3h8.7v-25.1h-11.4l-.7 11.1s0 5.6-3.3 5.6-3.8-5.2-3.8-5.2v-18.6l18.3-7v-21.4c0-7.4-9.3-11.2-14.5-11.2-5.3 0-14.3 2.6-16.5 10.5-2.2 7.9-.6 48.3-.6 48.3 0 5.5 6.7 14.3 14 14.3zm3-64.8c4 0 3.3 5.1 3.3 5.1v12.4l-7.4 3v-15.3c0-.2-.8-5.2 4.1-5.2zM429.7 294.6c.4-.6.8-1.2 1.2-1.7.1-.1.3-.2.5-.2.4 0 .7.1 1.1.1.9.2 1.9.1 2.8 0 .6 0 .9-.4 1.1-.9.2-.4.4-.7.8-.9.7-.4.9-1.4.4-2.1-.3-.4-.8-.7-1.2-1.2-.4-.5-.8-1.1-.8-1.8 0-.1 0-.2.1-.2.1-.3.3-.5.5-.9.3 0 .6-.1.8-.5.1-.2.3-.2.5-.4s.3-.6.6-.8c.3-.2.7-.2.9-.4.3-.3.6-.6.5-1.1 0-.3.1-.6.1-1.1-.2-.1-.4-.2-.7-.3.2-.3.4-.5.2-.8 0-.1.1-.2.1-.3 0-.2 0-.4.1-.7-.5.2-.8.3-1.1.5-.3.2-.6.5-1.1.3h-.1c-.5.6-1.2.2-1.8.5-.1.1-.3.1-.4.2-.2.4-.6.6-.9.7-.6.3-1.2.6-1.8.8-.6.2-.8.1-1.1-.4-.3-.4-.6-.7-1-1-.5-.4-.7-1-1.1-1.5-.1-.1-.2-.3-.4-.4-.5-.4-.9-.8-.8-1.6.1-.5 0-1 .1-1.4 0-.2 0-.3.1-.5.1-.4.2-.8.3-1.1-.7-.4-1.3-.4-1.9.1-.1.1-.2.2-.4.2-.5.1-.8.4-1.1.9-.1.1-.1.2-.1.3.2 1.4.1 2.7.1 4.1 0 1.4 0 2.8.1 4.1 0 .6 0 1.1-.1 1.7-.7.4-1.4.9-2.2 1.3-.7.4-1.3.8-2 1.2-.1 0-.1.1-.2.1-.5-.1-.8.3-1.3.5-.3.1-.5.3-.7.6-.1.2-.3.3-.5.4-.6.7-1.1 1.5-1.5 2.3-.2.4-.1.9-.1 1.3.6.4 1.2.2 1.8.2.8.1 1.6.1 2.4.1h2.9c.2 0 .4 0 .7.1 0 .2.1.4.1.6 0 .7 0 1.5-.1 2.2 0 .4-.3.8-.4 1.2-.1.5-.1 1-.1 1.5 0 .1.1.2.2.3.2.3.5.5.4.9v.1c.6.4.8 1.1 1.5 1.4h.1c.1-.3.2-.7.3-1 .1-.3.2-.6.6-.6.1 0 .3-.2.3-.3.4-.8.9-1.5 1.3-2.3.6-.8 1-1.6 1.4-2.4zm-5.2-6h-.9v-.1c.3-.2.6-.4 1-.6-.1.3-.1.5-.1.7zm3.3-.8c.1-.9.4-1.6 1.4-1.8 0 0 .1 0 .1-.1.5-.2.6-.2.9.2.3.4.5.8.8 1.3-.2.3-.3.6-.6.9-.1.1-.3.2-.4.2-.7 0-1.5 0-2.3-.1.1-.2.1-.4.1-.6zM397.8 280.6l1.2-1.8c0-.1.1-.2.1-.2.6.1.5-.5.7-.8.2.1.3.1.5.2-.1-.3-.1-.6-.2-.9-.1-.4-.1-.7.1-1 .1-.2.2-.5.2-.8.2-.7.4-1.4.8-1.9.2-.2.2-.5.3-.8.2-.4.4-.7.6-1.1 1.1-.1 2.1 0 3.1.3.7.2 1.4.2 2.1.4.8.2 1.6.4 2.4.7h.1c.9.1 1.8.2 2.6-.3.4-.2.8-.5 1.3-.8l.2-.2c.1-.6.3-1.2 0-1.8-.2-.4-.3-.8-.6-1.1-.8-1.1-1.6-2.2-2.6-3.1-.8-.7-1.1-1.6-1.4-2.6-.1-.3-.2-.6 0-.9 0-.1 0-.2-.1-.3-.2-.4-.2-.9 0-1.3.1-.1.2-.4.4-.1.1.1.3 0 .4 0 .9-.4.9-.4 1.8-.3.1-.4.4-.5.7-.6.4-.1.4-.2.3-.6-.1-.2-.2-.4-.3-.5-.2-.2-.4-.5-.5-.7-.2-.3-.4-.3-.7-.2-1.2.5-2.5.9-3.7 1.4-.2.1-.5.1-.8.2-.6.3-1.2-3.2-1.7-3.5 0 0-.3-.6-.4-.6 0 .1-.4-.4-.5-.3-.4.1-.3.5-.9.6-.5-.1-.4 1.8-.8 2.4 0 .4-.1 1.6-.5 1.8-.7.3-1 .9-1.1 1.6-.1.4-.2.6-.6.7-1.1.5-2.1 1.1-3.2 1.7-.8.4-1.5 1-2.3 1.5-.9.6-1.5 1.4-2.4 2-.7.4-1 1.1-1.3 1.8-.1.3-.1.6-.1.8 0 .8.5 1.3 1.4 1.4.9.1 1.9.1 2.9.4.5.1 1.1 0 1.6 0 .2 0 .3 0 .6.2-.2.1-.3.3-.6.5-.1.4-.2.9-.3 1.4-.1.4 0 .8-.2 1.1-.1.1 0 .4 0 .6 0 .1.1.2 0 .3-.3.3 0 .5.1.7-.2.4-.3.7-.4.9.2.7.4 1.4.5 2.1 0 .1 0 .2.1.3.2.4.5.8.7 1.1.1-.1.3-.1.4 0zm7.4-13.2c.3-.3.5-.3.8 0 .3.4.6.8 1 1.2.1.1.1.2.2.4-.6-.1-1-.2-1.5-.2-.4-.1-.8-.3-.9-.8.1-.2.2-.4.4-.6zm-3.4-7.6c.3-.2.6-.3.9-.2.1 0 .2.2.2.3 0 .4-.3.6-.6.7-.1.1-.3.1-.4.2-.2.4-.5.3-.9.4.1-.6.4-1 .8-1.4zm-6.9 8.1c-.3 0-.6-.1-1-.3l.6-.6c.6-.4 1-.9 1.7-1.2.9-.5 1.7-1.2 2.7-1.6.2-.1.5-.3.7-.4.2-.1.5-.2.6.2.2-.1.1-.6.6-.5-.3.5-.5 1-.7 1.4h-.1c0-.3.1-.6.1-.9-.1.4-.4.7-.4 1.1-.1.5-.3.9-.5 1.4-.1.3-.2.5-.3.8-.3 1-.5 1.1-1.6 1-.6-.2-1.5-.3-2.4-.4zM407 233.6c-.3.1-.7.3-1 .4-.1 0-.2 0-.3.1-.1-.6-.2-1.2-.2-1.8v-1.1c0-.7 0-.7-.5-1.1-.2.1-.4.1-.6.1-.5.1-.6.2-.8.7v.2c-.5.7-.4 1.5-.4 2.3v1.6c0 .4-.1.6-.5.7-.5.2-1 .2-1.5.5-.1.1-.4 0-.6-.1-.4-.1-.8-.1-1.1.3-.2.3-.6.4-.9.5l-2.1.6v.6c0 .1 0 .4-.1.4-.4.2-.4.6-.7.8-.1.1-.2.3-.2.4-.1.3-.2.6-.5.8-.2.1-.3.4-.3.7 0 .2.1.4.4.5.4.1.8.1 1.2.2.1 0 .2 0 .3.1 1.1.5 2.3.5 3.4.8.3.1.6.1.9.2-.1.2-.1.4-.1.6-.3.1-.7-.1-1 .2-.2.3-.3.6-.4.9-.1.2-.1.5-.3.7-.2.2-.2.6-.3.9-.1.1-.3.2-.5.3 0 .3.1.7-.2.9-.1.1-.1.2 0 .3.2.4 0 .8-.2 1.1-.3.6-.2 1.1.3 1.6.7-.4 1-1.2 1.7-1.4.5.5.5.4 1.1.2.6-.2 1-.7 1.4-1.1.1 0 0-.2 0-.2 0-.1 0-.3.1-.3.4-.2.6-.4.6-.8 0-.1.2-.1.3-.2-.1-.3-.2-.5.1-.7 0-.7.8-1 .9-1.6 0-.1.3-.2.4-.2.4.1.8.2 1.2.5.6.3 1.1.7 1.6 1.1.3.3.6.6.8.9.1.1.2.2.3.5.4-.5 1-.6 1-1.5.3.2.5.3.6.4.5.4.7.4.9-.1.2-.4.5-.7.9-.9.2-.1.4-.4.5-.5-.1-.3-.2-.6-.2-.8-.2-.7-.6-1.2-.9-1.9-.1-.2-.2-.3-.3-.5-.1-.2-.2-.5-.4-.5-.5-.2-.6-.5-.3-.9-.1-.1-.1-.1-.2-.1-.6-.2-.7-.3-.4-.9.3-.5.7-.8 1.2-1.1.1-.1.3 0 .4 0 .3-.3.2-.9.7-1 .4-.1.8-.1 1.3-.2-.1-.2-.2-.4-.3-.5.1-.3.4-.3.8-.3.1-.2.2-.5.3-.8h.1c.3.2.4-.4.8-.2.2.1.6 0 .9 0l.1-.1c.1-.4.1-.8.2-1.3 0-.1.2-.2.3-.3-.1-.5-.3-1.1-.4-1.6-.3-.2-.6-.5-.9-.7-.1-.1-.3-.2-.4-.1-.5.4-1.1.5-1.7.7-.1 0-.1.1-.3.2-.1-.1-.3-.2-.4-.3-.2.4-.6.4-1 .5-.2 0-.5.2-.7.3-.6.3-1.2.6-2 .3-.3-.1-1 .3-1.2.6.3.1-.1.4-.7.5zM433.9 259.2c.1 0 .1-.2.2-.3.2-.6.7-.9 1.2-1.2.2-.1.3-.2.5-.4.3-.4.5-.8.8-1.1.1-.1.3-.2.5-.4.2.2.3.4.4.5.5-.3.9-.6 1.3-.9l.1-.1c0-.7.6-.9 1-1.2v-.1c-.1-.2-.1-.4-.2-.6-.1-.2-.2-.4-.5-.4-.1 0-.1 0-.2-.1-.6-.6-1.3-.4-1.9-.3-.3 0-.6.1-.9-.1-.3-.2-.7 0-1 .2-.2.2-.4.3-.8.3-.2 0-.4.1-.5.2-.3.4-.7.4-1 .4-.4.5-.8.8-1.5.7h-.3c-.5.3-.9.7-1.3 1-.5.4-.7.4-1.1-.1-.2-.3-.5-3.7-.8-3.5-.3.2-.6.3-.9-.1-.1-.2-.4-.1-.6 0-.4.3-.5 2.4-.6 2.8-.1.2-.2 2.2-.3 2.4-.1.1-.2.2-.2.3 0 .6-.4.7-.8.8-.7.3-1.4.8-2.1 1.1-1.2.6-2.3 1.3-3.7 1.5-.1 0-.2.1-.3.2-.2.1-.4.3-.6.4-.3.2-.6.3-.7.7 0 .1-.2.3-.3.4-.4.2-.4.4-.4.8 0 .2.1.4.1.7h-.6c0 .1 0 .1.1.2l.2.2c.5.1 1 .3 1.5.4.7.2 1.3.2 2 .4.5.1 1 0 1.6 0 .4 0 .8.1 1.2.1.1 1-.4 1.8-.5 2.6-.2.1-.3.2-.5.3-.1.1-.3.2-.3.3.3.5-.3 1 .1 1.5.1.1.1.3 0 .4-.3.7.2 1.4.1 2 .3.5.7.9 1 1.4h.1c.3-.3.5-.6.7-.9.2-.2.4-.3.7-.4.6-.2 1.3-.9 1.4-1.6v-.8c.3.1.4.2.6.2l.1-.1c-.2-.2-.3-.4-.5-.6l1.2-1.8c.4-.6.9-1.1 1.4-1.6h.7c.4 0 .8 0 1 .5.1.2.3.3.7.3.7-.1 1.4 0 2.2 0 .3 0 .6 0 .9-.2.3-.2.7-.4 1.1-.6.4-.2.7-.4 1-.5v-1.2c0-.2 0-.4-.2-.5-.6-.6-1.2-1.2-1.8-1.7-.4-.4-.8-.9-1.2-1.3.6-.4.8-1.2 1.4-1.5zm-10.4 2.5c-.6-.1-1.1-.1-1.6-.2 0 0-.1-.1-.1-.2.7-.2 1.3-.5 2.1-.7-.2.4-.3.7-.4 1.1z"/><path d="M413.2 297.7c.5.4.7.4.9-.1.2-.5.5-.7 1-.9.2-.1.4-.4.5-.5-.1-.3-.2-.6-.2-.8-.2-.7-.6-1.2-.9-1.9-.1-.2-.2-.3-.3-.5-.1-.2-.2-.5-.4-.5-.5-.2-.6-.5-.3-.9-.1-.1-.1-.1-.2-.1-.6-.2-.7-.3-.4-.9.3-.5.7-.8 1.2-1.1.1-.1.2 0 .4 0 .3-.3.2-.9.7-1 .4-.1.8-.1 1.3-.2-.1-.2-.2-.4-.3-.5.1-.3.4-.4.8-.3.1-.2.2-.5.3-.8h.1c.3.2.4-.4.8-.2.2.1.6 0 .9 0l.1-.1c.1-.4.1-.8.3-1.3 0-.1.2-.2.3-.3-.1-.5-.3-1.1-.4-1.6-.3-.2-.6-.5-.9-.7-.1-.1-.3-.2-.4-.1-.5.4-1.1.5-1.7.7-.1 0-.1.1-.3.2-.1-.1-.3-.2-.4-.3-.2.4-.6.4-1 .5-.2 0-.5.2-.7.3-.6.3-1.2.6-2 .3-.3-.1-1 .3-1.2.5-.3.5-.7.8-1.2.9-.3.1-.7.3-1 .4-.1 0-.2 0-.3.1-.1-.6-.2-1.2-.2-1.8v-1.1c0-.7 0-.7-.6-1.1-.2.1-.4.1-.6.1-.5.1-.6.2-.8.7 0 .1 0 .1-.1.2-.5.7-.4 1.5-.4 2.3v1.6c0 .4-.1.6-.5.7-.5.2-1 .2-1.5.5-.1.1-.4 0-.6-.1-.4-.1-.8-.1-1.1.3-.2.3-.6.4-.9.5l-2.1.6v.6c0 .1 0 .4-.1.4-.4.2-.4.6-.7.8-.1.1-.2.2-.2.4-.1.3-.2.6-.5.8-.2.1-.3.4-.3.7 0 .2.1.4.4.5.4.1.8.1 1.2.2.1 0 .2 0 .3.1 1.1.5 2.3.5 3.4.8.3.1.6.1.9.2-.1.2-.1.4-.1.6-.3.1-.7-.2-1 .2-.2.3-.3.6-.4.9-.1.2-.1.5-.3.7-.2.2-.2.6-.3.9-.1.1-.3.2-.5.3 0 .3.1.7-.2.9-.1.1-.1.2 0 .3.2.4 0 .8-.2 1.1-.3.6-.2 1.1.3 1.6.7-.4 1-1.2 1.7-1.4.5.5.5.4 1.1.2.6-.2 1-.7 1.4-1.1.1 0 0-.2 0-.2 0-.1 0-.3.1-.3.4-.2.6-.4.6-.8 0-.1.2-.1.3-.2-.1-.3-.2-.5.1-.7 0-.7.8-1 .9-1.6 0-.1.3-.2.4-.2.4.1.9.2 1.2.5.6.3 1.1.7 1.6 1.1.3.3.6.6.8.9.1.1.2.2.3.5.4-.5 1.1-.6 1-1.5.8-.1 1 0 1.1.1zM462.4 359.8v-1.7c0-.2.2-.6.1-.7-.3-.2 0-.4 0-.6-.4-.2-.4-.6-.4-1 0-.6-.1-1.1-.1-1.7 0-.3-.1-.6.3-.7 0 0 .1-.1.1-.2 0-.4.1-.9.1-1.3-.1-.4.1-1-.3-1.4-.1-.1 0-.2 0-.3.1-.6.1-1.1-.1-1.6v-.1c-.5-.3-.3-1-.5-1.4-.1-.2 0-.5 0-.7 0-.4.3-.7-.1-1.1-.1-.1.1-.4.1-.7l-.3-.3v-.1c.3-.4.4-.9.3-1.4v-.4c0-.2 0-.4-.1-.5-.3-.8-.3-.9.1-1.7-.1-.2-.3-.4-.4-.6-.2-.3.1-.4.4-.7-.5-.1-.6-.4-.7-.7-.1-.5-.1-1.1 0-1.6.1-.4.4-.8.2-1.2 0-.1.1-.4.2-.4.5-.2.3-.6.4-.9.1-.3-.2-.6-.8-.6 0-.3 0-.5.4-.6.4-.1.5-.6.5-1-.2 0-.4.1-.7.1-.4.1-.6-.2-.7-.4-.1-.3-.1-.6.3-.8.1 0 .1-.1.2-.2.1-.2.3-.4.5-.7v-.1c-.4-.5.2-1 0-1.4-.3-.5-.2-.8 0-1.3-.3-.1-.5-.2-.9-.4.7-.7.3-1.6.5-2.4-.2.1-.4.2-.6.2-.2 0-.3-.2-.6-.3.4-.2.6-.2.8-.4.2-.1.3-.4.4-.5-.1-.1-.3-.2-.3-.4 0-.1.1-.3.2-.4 0-.1.1-.3.1-.4 0-.4-.1-.8-.2-1.2-.1-.1-.4-.2-.7-.4.2-.2.4-.3.5-.4 0-.2-.1-.4 0-.6.2-.4.2-.7-.1-.9-.1-.1-.1-.2-.2-.4.2-.1.3-.2.4-.3-.2-.6-.4-1.1-.5-1.6 0-.2.2-.5.3-.8h.2c-.1-.3-.2-.7-.3-1-.1-.3-.2-.5 0-.8.1-.1 0-.3 0-.3-.3-.3-.1-.6-.2-.9.5-.5.1-1 .1-1.5-.4-.2-.4-.2-.7 0-.1-.8.7-1.3.6-2.1-.1.2-.2.3-.4.4-.1-.5-.1-1 .2-1.3.4-.4.2-.9.4-1.3 0 0-.1 0-.1-.1-.1.1-.2.2-.3.4 0-.2-.1-.4-.1-.5-.2 0-.4-.1-.7-.1.3-.1.5-.2.7-.3-.1-.4-.3-.7-.1-1.1.2-.3-.1-.7-.2-.6-.4.3-.5-.2-.8-.2.2-.4.5-.4.8-.4v-.6c-.2-.1-.4-.2-.5-.3.2-.4.3-.7.5-1.1-.2-.1-.3-.2-.4-.2 0-.2 0-.5.1-.7.1 0 .2 0 .4-.1-.4-.2-.7-.3-.4-.7.1-.1 0-.4 0-.6 0-.2.1-.4.2-.7-.2 0-.4 0-.5.1v-.1c.1-.1.2-.3.2-.4-.1-.5.1-.9.3-1.3.1-.2 0-.6.1-1-.3.2-.4.3-.6.4-.1.1-.2.2-.4.3 0-.8.1-.9.6-.9l.3-.9c-.4-.3-.7-.6-1-.9l.6-.6c-.3-.4.1-.8.4-1.2-.2-.3-.1-.7 0-1.1.2-.6.2-1.2 0-1.8-.1-.2 0-.5 0-.8h-.5c-.1-.4.2-.7-.1-1 .3-.2.3-.5.3-.8 0-.1 0-.3-.1-.4-.3-.6-.3-.6.2-.9-.1-.3.2-.7-.2-1 0 0 .1-.1.1-.2s.1-.3.1-.4c0-.2-.1-.4-.2-.5-.1-.2-.3-.3-.2-.6.1-.1-.1-.3-.1-.5.6-.4.4-1 .5-1.6-.4-.6.1-1.3-.1-2-.2-.1-.4-.1-.2-.4.1-.2.3-.4.5-.6-.2-.1-.4-.1-.6-.2.1-.2.1-.4.2-.6.1-.3.1-.6 0-.9-.1-.3-.2-.7 0-1.1.2-.2.1-.7.1-1 .1-1 .1-1.9.2-2.9v-.4c.2-.8.1-1.5 0-2.3-.1-.4 0-.7 0-1.1.1-1.4.2-2.8.1-4.2-.1-.7-.1-1.4 0-2.1.1-.7.1-1.4.1-2.2 0-.4-.1-.9-.1-1.3 0-.1-.1-.1 0-.2.3-1.4.1-2.9.2-4.3v-1.7c-.1-.6 0-1.3 0-1.9 0-2 0-4-.1-6 0-.4-.2-.9-.3-1.3-.1-.4-.1-.9-.2-1.3 0-.2 0-.4-.1-.5-.4-.8-.4-1.7-.4-2.7v-.7h-.2c0 .2-.1.4-.1.6 0 .3-.1.4-.4.2.1-.4.3-.8-.2-1.1-.2-.2-.5-.4-.6-.6-.2-.3-.2-.7-.3-1.1-.1-.1-.2-.1-.2-.2s-.1-.2 0-.2l.1-.1c.1 0 .2.1.2.2s0 .2-.1.4h.9v1.7c.1-.1.2-.1.2-.2 0-.4-.1-.8-.1-1.2 0-.2 0-.5.1-.7 0-.3.1-.5.1-.7-.3-.2-.4.1-.5.2-.4-.1-.5-.6-.3-1.3h-.7c.2-.1.3-.1.5-.2-.5-.4-.6-.8-.5-1.4.1-.5-.1-1-.1-1.4-.3-.1-.5-.3-.8-.4.1.4.2.9.3 1.3-.7.2-.6-.4-.8-.7 0 .1-.1.1-.1.2 0 .2.2.5-.2.6-.3.1-.5-.2-.6-.5v-.1c-.3.5-.2.6.2 1.1l.6-.3c.1.5-.1.9-.3 1.3-.3 0-.5.1-.7.1-.1.4.1.8-.3 1.1-.4-.3-.2-.8-.3-1.1-.1-.4.2-.7-.1-1.2-.1.7-.1 1.4-.2 2v.1c.3.3 0 .5 0 .8 0 .2-.2.5-.1.7.1.2 0 .5-.3.6-.1-.7 0-1.4-.6-1.9V232l.3-3.3c0-.7.2-1.3.9-1.7 0 .1.1.2.1.3 0 .7.1 1.5.1 2.2 0 .4.2.7.5.9 0-.7.5-1.2.5-1.9 0-.2.1-.4.2-.6.3.6.3 1.1 0 1.7.3 0 .4-.1.6-.1 0-.3-.1-.6 0-.9 0-.4.2-.8.1-1.2l-2.1-1.2c-.6.1-1-.5-1.7-.3-.5.1-1.1 0-1.6.5-.1 0-.3-.1-.4-.1-.4-.1-.6.1-.6.5s-.1.8-.2 1.2c-.3 1.2-.6 2.4-.7 3.7 0 .8-.3 1.6-.4 2.5-.1.5-.1 1-.1 1.5-.1.9-.2 1.7-.3 2.6-.2 1.9-.3 3.9-.5 5.8l-.3 4.2c-.1 2.3-.2 4.7-.3 7 0 .8-.1 1.7-.1 2.5 0 1.4-.1 2.8-.1 4.2 0 1.1-.1 2.1-.2 3.2 0 1.3 0 2.6-.1 3.9-.1.7-.1 1.3 0 2v3.4c0 1.6-.1 3.1-.1 4.7v8.3c0 .4.1.7.1 1.1v1.8c0 .3 0 .6-.1.9 0 .1-.1.2 0 .3.3 1 .1 2 .1 3 0 .2.1.5.1.8 0 .8 0 1.6-.1 2.4v.2c.4 1.1.1 2.3.1 3.4 0 .4.2.7.2 1.1.1 1.3.1 2.5.1 3.8 0 .9 0 1.8.1 2.6 0 .8.2 1.6.3 2.4.1 1 .1 1.9.2 2.9 0 .9.1 1.9.1 2.8 0 .8 0 1.5.1 2.3.1.8.2 1.7.3 2.5.1.4.1.8.1 1.3-.1.5.1.9.2 1.4v.4c-.1.2 0 .4.1.6.1.3.2.7.2 1.1.1.6 0 1.2.1 1.8.1.7.2 1.5.1 2.2 0 .1.1.2.1.2.2.3.2.7.2 1.1 0 .6 0 1.2.4 1.7-.1.4-.2.8-.2 1.2 0 .5.1.9.2 1.4 0 .1.1.3.1.4 0 .5-.1 1.1.1 1.5.3.8.2 1.5.3 2.2.1.9.3 1.7.3 2.6.5.6-.1 1.4.4 1.9.1.1.1.3.1.4 0 1.3.5 2.5.5 3.8 0 .5 0 1 .1 1.5 0 .3.2.6.2.9.1.5.3.9.1 1.4-.1.2.2.5.2.7l.6 3.6c0 .3.1.6.4.8.1.1.2.4.1.5-.2.4-.1.7.1 1.1.1.1.1.2.2.3v.9c0 .3.2.6.2.9v.3c-.2 1 .1 1.9.4 2.8 0 .1.1.2.1.3 0 1.1.3 2.2.5 3.3.1.6.2 1.3.2 2 0 .5.3 1.1.4 1.6 0 .1.1.2.2.3 0 .2 0 .4.1.7.2 1.1.5 2.2.5 3.3v.8c0 .3-.2.7.2 1 .1.1 0 .4 0 .6.4.1.8.2 1.1.3.1 0 .3.1.4.2.3.1.6.4.9.4.7 0 1.3.3 1.9.7.1 0 .2.1.3.1 0-.4-.1-.8.2-1.2l.2.2c.9-.2 1.2-.8 1-1.8-.3-.1-.6-.3-.7-.7-.3-.6-.5-1.1-.5-1.8 0-.6-.2-1.3-.3-1.9v-.4c0-.4 0-.8-.2-1.1-.2-.3-.3-.6 0-.9-.2-.3-.3-.6-.4-.8-.1-.2-.3-.3 0-.5.1 0 0-.3-.1-.5 0-.1-.2-.2-.2-.3.1-.6-.3-1-.4-1.6-.1-.5-.1-1.1-.1-1.6 0-.1 0-.1-.1-.2-.3-.5-.3-.5.2-.8-.1-.3-.3-.6-.3-1 0-.3.1-.6.3-1 .2 0 .4 0 .6.1l1.8.9c.3.2.6-.1.8-.1v-.3c.3-.2.5-.4.8-.6.2-.2.4-.5.7-.8 0-.2 0-.4-.2-.5-.7-.5-.6-.9-.6-1.3zm-8.1-132.9.2.2c-.1.1-.1.2-.2.1-.1 0-.1-.1-.2-.2.1 0 .2-.1.2-.1zm-2.2 13c0 .3 0 .6-.3.8-.4-1.4-.2-5.2.2-5.9v.9c0 1.4.2 2.8.1 4.2zm7.1 79.9c-.1-.1-.2-.1-.2-.1 0-.1.1-.1.1-.2l.1.1c.1 0 0 .1 0 .2zm-.1-5.1c.2.1.3.1.6.2-.4.4-.5.1-.6-.2zm1 10.9c.1 0 .3.1.4.1 0 0 0 .1-.1.2-.2-.1-.3-.1-.5-.1.2-.1.2-.2.2-.2zm-.4 4.6c.1 0 .1 0 .1-.1.1.2.2.4 0 .6 0-.1 0-.3-.1-.5zm.4 7.4c-.3-.5 0-.9.1-1.3 0 0 .2-.1.3-.1-.2.7.2 1.3 0 2-.1.4.1 1 .1 1.5-.2-.5-.5-1-.5-1.6.1-.1.1-.3 0-.5zm.5 4.6c.1-.2 0-.5.1-.7 0 .5.6.8.3 1.3-.4 0-.5-.2-.4-.6zm.3 3.5-.1-.1.3-.3.1.1-.3.3zM478.1 373.4V372.5c.1-.1.3-.2.5-.3-.3-.4-.4-.7-.1-1.1.2-.2 0-.6 0-.9-.1-.8-.3-1.6 0-2.3.1-.2 0-.4 0-.6v-.8c.1-.3.1-.4-.2-.7-.7-.6-.6-.9-.1-1.6-.4-.4-.5-.8-.4-1.3.1-.2-.2-.5-.5-.7.2-.2.5-.5.5-.7 0-.5.1-1.1-.5-1.4-.8-.4-.7-1-.6-1.6.1-.4.3-.7.4-1.1.1-.4.2-.7.3-1.1-.3-.1-.8-.2-1-.4-.4-.3.1-.6.3-1-.8-.2-.8-.7-.6-1.2.2-.5.2-.9-.2-1.3-.5-.5-.2-1 0-1.6-.7-.1-.5-.7-.7-1-.1-.1.3-.3.4-.4.3 0 .5-.1.4-.3 0-.3-.3-.5-.6-.5.1-.4.2-.9.2-1.3 0-.1-.1-.3-.2-.3-.7-.1-.2-.6-.5-.8 0 0 0-.1.1-.2.3-.1.5-.3.3-.6-.1-.2-.3-.3-.6-.5.1-.2.2-.4.4-.7.3-.3.1-.5-.3-.6l.6-.6c-.5-.3-1-.7-1.4-1 0-.1.1-.2.1-.2 1.3-.5.9-1.4.7-2.1-.1-.4-.2-.8.2-1.2.2-.1.2-.4.3-.7-.3.1-.5.2-.7.3 0-.2-.1-.3 0-.4.2-.2.2-.4-.1-.6-.1-.1-.1-.2-.1-.3.1-.6.2-1.1.4-1.7.2-.7.5-1.5.7-2.2l-.1-.1c-.5.1-.4.5-.7.7-.6-.2-.2-.6-.4-.9.7-.5.7-.5 1.3-.2.8-.5.8-.5.8-1.1-.6 0-.7 0-.9.6h-.5c.1-.6.2-1.2.4-1.7 0-.2.2-.2.7-.1-.1.3-.2.6-.2.8.7 0 1-.3 1.1-.9 0-.4.1-.8.1-1.1-.5.1-.5.1-.7.9-.5-.2 0-.6-.3-.8-.1 0-.2.1-.4.1 0-.3.2-.7 0-.9-.3-.4.1-.6.2-.8-.1-.2-.2-.3-.3-.4-.1.8-.4 1-1.2.9.2-.3.1-.6.1-.9-.1-.3.2-.6.4-.9-.2.1-.3.2-.5.3-.1 0-.2 0-.2-.1 0-.3.1-.5 0-.8-.1-.3-.2-.5-.1-.7.1-.2.1-.4.1-.6 0-.7-.1-1.3.7-1.9-.4-.1-.8-.3-1.3-.5.4-.5.8-1 1.3-1.5-.3 0-.4-.1-.7-.1l.3-.6c.1-.9.1-1.9.2-2.8-.6-.2-.6-.2-.3-.9-.1-.1-.2-.3-.4-.5.1-.1.3-.3.4-.5-.2-.1-.4-.1-.6-.1 0-.2.1-.4.1-.6-.4-.2-.8-.5-.3-.9.3-.3.7-.4 1.2-.5-.3-.5-.9.2-1.1-.4.1-.3.2-.8.4-1.3.3-.3 1-.6.8-1.3-.1.1-.2.1-.3.2-.3-.1-.6-.2-.9-.4.1-.1.2-.3.3-.5-.5 0-.9.3-1.3-.2.5-.2.8-.3 1.4-.5.2-.3.1-.7-.2-1.2.3-.4.6-.9.8-1.3.1-.2.1-.6 0-.8-.2-.5-.3-.9.2-1.3.3-.3.7-.6.4-1.1-.2-.4.4-.4.6-.6v-1.4c-.7.5-.7 1.1-1.2 1.5-.2-.7-.4-1.3-.5-2 0-.2 0-.3.1-.5.3-.4.7-.8.4-1.3 0 0 .1-.1.2-.1-.1-.2-.1-.3-.2-.5-.4.1-.7.1-1.2.2.1-.2.2-.3.3-.5-.3.1-.5.1-.8.3.3-.6.5-1.2.7-1.7-.1 0-.1-.1-.1-.1-.3.1-.6.2-1 .4-.2-.6.2-1.1.4-1.6.1-.3.3-.6.3-.9.1-.2 0-.5 0-.6-.2-.2-.5-.3-.5-.5 0-.4.4-.5.8-.5.1-.5.3-.9.4-1.4-.1-.1-.4-.2-.4-.4 0-.5 0-1.1.1-1.6 0-.2.3-.3.5-.5 0 0-.1-.1-.1-.2.3-.3.5-.6.8-.9-.3-.1-.4-.1-.6-.2.2-.3.4-.6.6-1 .1-.3.2-.6.1-1l-1.5 1.8c-.4-.1-.2-.3-.1-.5s.2-.3.2-.5c-.2.1-.5.2-.8.3 0 0-.1 0-.2-.1.2-.2.4-.4.2-.6-.1-.1 0-.5.1-.6.4-.3.4-.6.5-.9-.1.1-.3.2-.5.3 0-.4 0-.7.1-1 0-.1.1-.2.2-.2.6-.3.4-.7.3-1.1-.2-.1-.4-.1-.6-.2.1-.3.1-.6.2-.9.1-.3.3-.5.5-.8-.4 0-.5.1-.8.1 0-.1 0-.3.1-.4.6-.5.7-.5.9-1.4 0-.1 0-.2.1-.2.5-.3.6-.8.5-1.2 0-.5.5-.7.8-1 .1-.1.2-.2.1-.4-.2.1-.5.2-.7.4-.1-.2-.2-.3-.3-.6-.2.2-.5.3-.6.5-.1.2-.2.4-.5.3-.4-.1-.4-.3-.3-.5-.2-.7-.2-.8.4-1 .1 0 .3-.1.3 0 .5.3.6-.1 1.1-.2-.5-.4-.1-.9-.8-1.2-.3.2-.6.4-1 .7-.2-.3-.3-.7-.2-1 .1-.3.1-.6.1-.9v-.6h.2c-.1.2-.1.4-.1.6.2-.1.3-.2.5-.2.5-.1.6-.4.6-.7 0-.2.1-.4.1-.6 0-.1-.1-.2-.1-.4-.3.1-.5.1-.7.1l-.1-.1c.4-.4.8-.7 1.3-1.1.1-.1.3-.1.6-.2 0-.1-.4-.3 0-.6.2-.1 0-.5-.1-.9.7-.6 1.1-1.4 1-2.3 0-.5.1-.9.1-1.4v-2.2h-.2c-.1.7-.3 1.4-.3 2.1 0 .7-.1 1.4-.2 2.1-.1.5-.5.9-.7 1.4-.1.1-.2.3-.1.5.4.8-.3 1.3-.9 2-.1-.5.3-.8-.2-1-.1.1-.2.3-.3.5-.4-.4-.5-.4-.3-.6.3-.2.4 0 .6.1l.3-.6c.4-.4.3-.6-.1-.9-.1 0-.1-.1-.2-.1 0 0-.6-.3-.8-.3.3-.3.5-.6.7-.8.2-.2.3-.4.1-.6-.4-.2-.2-.3-.1-.6.2-.3 0-.4-.5-.3 0-.3 0-.6-.1-.8-.6-.1-.1-.5-.6-.7.3-.1.4-.1.6-.1 0-.5-.1-.9-.1-1.4 0 0 .2-.1.3-.1-.1-.2-.3-.4-.3-.6v-2.8c0-.2.1-.3.1-.5v-.7c.1-.1.4-.2.6-.3-.7-.1-.7-.2-.7-.6 0-.5.1-1.1 0-1.6-.2-.8.2-1.6.1-2.4 0-.1.2-.3.3-.4.4-.4.4-.5 0-.9-.1-.1-.1-.2-.1-.3 0-.2.1-.4 0-.6v-.4c.1-.2.1-.5.1-.7.1-.4-.2-.9.1-1.3-.3-.3-.3-.6-.3-1 0-.3 0-.6.1-.8 0-.1.3-.3.4-.3.1 0 .4.2.4.3-.1.3.2.7-.1 1-.1.1-.1.2 0 .3.2.4.3.7.1 1.1.3-.4.6-.7 1-1.2l.5.5c0-.4-.1-.7-.1-1h-.8c0-.5.9-.8.2-1.3.2-.2.3-.4.5-.5.3-.2.5-.3.4-.7-.1-.2.3-.4.6-.6.1-.1.3-.2.3-.2.1-.5.1-1 .1-1.6 0-.1-.1-.1-.2-.2-.2.3-.4.5-.6.7.1-.4-.2-.9.6-1 0-.2-.1-.4-.2-.6-.2 0-.3.1-.7.1.2-.8.8-1.4.8-2.3-.4.5-.7.8-.9 1.2-.2.3-.5.4-1 .2.4-.5.8-1 1.3-1.5.1 0 .4-.1.8-.2-.4-.4-.2-.9.1-1.2.3-.3.2-.5-.2-.7.5-.6.8-1.2.5-1.9-.1-.2-.1-.5-.1-.7 0-.4 0-.4-.7-.7-.1.2-.2.5-.3.7h-.6c.4.9.3 1-.5 1.5-.4.2-.7.2-1.1 0-.1-.5.7-.9.7-1.6-1.1.6-1.8 1.3-2.3 2.1-.5 0-.5-.2-.4-.4.1-.4.1-.8.2-1.2.1-.3-.4-.1-.4-.3 0-.2.1-.4 0-.6 0-.2-.1-.4-.2-.5-.1-.3-.1-.5.3-.7 0 .2.1.4.2.8.1-.3.2-.5.2-.6 0-.4 0-.9-.1-1.3 0-.1 0-.3-.1-.3-.8-.3-.6-.9-.6-1.4v-.8c0-.3 0-.5-.1-.9-.2 0-.4-.1-.7-.1.1-.2.1-.3.2-.4h-.3c-.4.2-.6.7-1.2.7-.2 0-.5.1-.8 0-.4.3-.7.6-1.1.8-.5.2-.9.5-1.6.3-.6-.2-1.3-.1-2-.2-.1.4-.3.9.3 1.3.2.2.4.4.6.5.5.4.4.8-.1 1.1-.2.1-.5.2-.7.4-.7.4-.8.9-.3 1.5-.5.5-.9 1.1-.6 1.8v.5c0 .2 0 .4.1.4.4.3.4.6.4 1s.1.6.7.5c-.2.3-.2.3-.8.3.6.3-.2 1 .7 1.3.1-.2.2-.3.3-.4.1 0 .3 0 .3.1.1.4.2.8.5 1.2v.2c0 .2 0 .5.1.8-.8.2-.6.8-.3 1.2.4.5.4.9-.3 1.2.2.4.4.7.6 1 .1.3 0 .6-.3.9-.2.2-.2.7-.1 1 .1.4.3.9.5 1.3 0 .1 0 .2-.1.2-.3.3-.2.5.1.8.1.1.2.3.2.4-.1.9-.3 1.9-.4 2.8 0 .2-.1.4 0 .6.2.3.1.5 0 .8-.1.3-.2.7-.1 1 0 .6.1 1.1.2 1.7v1.7c0 .4 0 .8.1 1.2.2.9-.1 1.8 0 2.7 0 .3 0 .5.1.8 0 .2.1.3.1.5-.4.8-.1 1.6-.1 2.4 0 1.1.1 2.1.2 3.2 0 .5 0 .9.2 1.4.1.2.1.4 0 .6-.3.5-.1.9.2 1.3.3.4.4.7.3 1.1 0 .1 0 .3.2.4.1-.2.1-.4.2-.7.7.4.3.9.5 1.4.2.4 0 .8-.1 1.3-.4 0-.4-.1-.4-.3.1-.3.1-.6-.2-.9-.1.2-.2.5-.2.7-.2 0-.3.1-.6.1.3.6.6 1.2.8 1.8.1.3.3.6-.1 1-.2-.1-.3-.1-.5-.2 0 .1-.1.1-.1.2.2.3.3.6.5.8.5.4.4.8.3 1.3v1.3c0 .2.1.4 0 .5-.1.3-.3.5-.1.8.1.2.1.2.3.3.4.2.2.6 0 .9-.3-.2-.5-.3-.8-.4.1 1.6.2 3.1.2 4.5 0 .8 0 1.6.3 2.4.2.6.1 1.3.2 1.9.2 1 .2 2 .1 2.9 0 .2.1.3.1.5s.1.4.1.6c-.1.8-.2 1.6.4 2.4.1.2 0 .4 0 .6-.2.7-.3 1.4-.1 2.1.1.3 0 .7 0 1.1v.8c.1 1 .3 2 .4 3 0 .3-.1.6 0 .9 0 .9.1 1.9.2 2.9.2 1.8.3 3.6.5 5.3 0 .4.1.9.5 1.2.4 0 .8-.1 1.2-.2.1-.5-.4-.7-.7-1-.1-.1-.3-.2-.3-.2 0-.5-.2-1.1.1-1.5.3-.4.3-.8.4-1.1.1-.4 0-1-.2-1.4-.2-.4-.4-.7.1-1 .1-.1.1-.2.2-.3.1.2.1.4.2.6.2.8.6 1.6.4 2.4 0 .1 0 .3.1.4.2.3.2.6-.3.8.3.3.5.6.4 1-.1.3.2.5.2.8.1.2 0 .4 0 .6v.5c.1.3.2.5.2.8-.1.9 0 1.7-.1 2.6 0 .1-.1.2-.3.3-.2-.7-.4-1.3-.5-2-.1-.4-.4-.4-.8-.5.1-.3.1-.7.2-1h-.1c-.2.3-.4.6-.5.9-.1.1-.1.2-.1.3.3 1.1.2 2.3.3 3.4.1 1.3.3 2.5.3 3.7 0 1.2-.1 2.3-.1 3.5 0 .8.1 1.5.2 2.3 0 .6.2 1.1.1 1.7-.1.9 0 1.8.2 2.7.1.4 0 .9.4 1.3.1.1.1.2.1.3-.4.6 0 1.1.1 1.7 0 .6-.2 1.1.2 1.7.1.1 0 .3-.1.4 0 0-.3.1-.3 0-.1-.1-.3-.3-.3-.4v-1c.1-.6-.6-1-.7-1.5v.5c.1.4.3.8 0 1.2-.2.3.1.7.2 1.1.1.3.3.7 0 1v.2c.4.5.4 1.1.3 1.7 0 .6.3 1.2.8 1.6 0 0 0 .1.1.2h-.7v.2c.1.7.4 1.4.3 2.1-.1.6 0 .9.3 1.4.2.4 0 .8 0 1.2.1.8.3 1.5.4 2.2 0 .6.3 1.2-.2 1.7-.1.1 0 .4.1.6.3.6.6 1.1.3 1.7-.2.4-.1.9 0 1.4.1 1 .4 1.9.5 2.9.1.7.1 1.4.2 2.2l.3 3c.1.5.1 1 .1 1.5.1 1 .1 1.9.2 2.9.1.7.3 1.4.2 2.2 0 .4.3.7.4 1.1.1.4.4.7.3 1.1-.1.5 0 .9 0 1.4 1.5.6 3 1.2 4.6 1.8-.1-.2-.2-.3-.4-.5.2-.1.3-.2.5-.3.5-.3 1-.5.9-1.1-.1-.3.2-.6.4-.9-.4-.8-.2-1-.8-1.2zm-4.6-75.1c.1-.1.3-.1.4-.2.3.5.3.5-.4 1-.1-.2-.2-.4-.4-.5.1-.1.2-.2.4-.3zm.4-24.5c.1 0 .1 0 .2.1-.1.2 0 .4-.5.6 0-.4.2-.6.3-.7zm-1 2.7c.3.1.6.1 1 .2-.3.2-.5.5-.7.7-.5-.5-.5-.5-.3-.9zm-7-6.5c.2-.1.3-.2.5-.3.1 0 .1.1.2.1 0 .2-.1.4-.1.8-.3-.4-.4-.5-.6-.6zm.6 1.6c-.1 0-.1 0 0 0-.2-.2-.3-.4-.4-.5-.2-.2 0-.3.4-.4.1.3.1.6.1.8l-.1.1zm0-2.2c-.2-.1-.3-.1-.5-.2.1-.3.2-.5.1-.9-.2-.5 0-1 0-1.5 0 0 .1-.1.3-.2 0 .6.1 1 .1 1.5 0 .3.5.8 0 1.3zm.3 10.3v-.5.5zm2 27.7c-.2-.3-.4-.6-.3-.8.1-.6-.4-1.2-.3-1.8 0-.2 0-.5-.2-.7-.5-.5 0-.9.3-1.3.8 1.3 1 3.3.5 4.6zm.3 12.5c-.1-.1-.2-.1-.2-.2v-.1c.1 0 .2 0 .2.1.1 0 0 0 0 .2zm5.3-76.2c-.6.1-.8.4-1 .7 0 0-.1 0-.2.1-.1-.1-.3-.2-.4-.4.7-.5 1.4-.9 2-1.4 0 0 .1 0 .2.1-.2.3 0 .8-.6.9zm-.7-5.5.1-.2c.1 0 .2.1.3.1 0 0-.1.1-.1.3-.2-.1-.3-.2-.3-.2zm1.6-1.6c.1.7.3 1.3-.8 1.5.3-.4-.1-1.1.8-1.5zm-.3 3.4h.2c0 .3-.2.7-.1 1.1 0 .6 0 .7-1.1 1 .3-.7.4-1.5 1-2.1zm-1.3-2.4c-.1 0-.1-.1-.2-.1.1-.2-.1-.5.5-.4.1 0 .1.1.2.1-.1.2-.3.3-.5.4zm.5-.5c-.4-.3-.3-.4 0-.6v.6zm-.7-2.4c.2.1.3.2.6.4-.6.1-.5.7-1.2.5 0-.2 0-.5-.1-.7.1-.2.4-.4.7-.2zm-.5 4.6c.1 0 .2 0 .2.1-.1.1-.2.2-.2.4-.1 0-.1 0-.2-.1.1-.1.1-.2.2-.4zm-.1.8c.2.1.3.3 0 .4h-.3c-.1-.2 0-.3.3-.4zm0 .7c.4.8.4 1.5 0 2.2-.2-.5.2-1.1-.6-1.4.2-.3.3-.5.6-.8zm-.9-4.4c-.7-.4-.7-.4.1-.8 0 .3 0 .6-.1.8zm.1 21.8c0-.1.1-.1.1-.2.1 0 .2.1.2.1s0 .1-.1.2c0 0-.1-.1-.2-.1zM473.5 284zM474.2 319.5s0 .1 0 0c0 .1 0 .1 0 0zM474.8 298.2s-.1 0 0 0c-.1 0-.1 0 0 0zM475.4 232.8zM443 373.1c-.2 0-.3.1-.5.1-.2-.3-.3-.6-.5-1l.2-.2c.4-.3.4-.3.2-.8-.1-.2-.1-.4-.1-.5 0-.1-.1-.3-.1-.4 0-.1-.2-.6-.2-.7-.2.2-.4.3-.5.4.1.2.2.3.3.5-.3.1-.6.1-.9.2-.1-.2-.2-.5-.4-.9-.2.3-.3.4-.5.6-.2-.2-.3-.5-.1-.8.2-.4.3-.8.3-1.3 0-.3.1-.6.2-1.1-.2.2-.2.3-.3.4-.4-.6-.5-1.2-.1-1.8.5 0 .5 0 .3.8.1-.1.2-.1.3-.1h.3c.2-.5 0-.9-.2-1.4-.3.1-.5.2-.8.3-.2-.5.1-1 .3-1.3.4-.5.4-1.1.4-1.7-.2 0-.5 0-.6-.1-.3-.2-.4.1-.6.2-.2-.2-.4-.4-.7-.6 0 .1-.1.2-.2.3-.6-.3-.4-.9-.5-1.3v-.4c-.4-.8-.3-1.8-.5-2.6-.1-.5 0-1.1-.2-1.6-.1-.3 0-.6.2-1 .3-.5.5-1.1.7-1.6l.6.3c-.1.3-.1.3.2.4-.2-.6.2-.8.5-1.2-.1.1-.2.1-.4.2.2-.5.4-.8.4-1.3 0-.4-.1-.8-.1-1.2h-.2c0 .1-.1.3-.1.4 0 .4 0 .9-.5 1.1h.4c.3.5-.4.7-.3 1.1-.9 0-1.1-.2-.9-.9.1-.3-.5-.4-.1-.7-.3-.2-.1-.5-.1-.8-.1-.3 0-.6.2-.9.2-.2.3-.5.1-.7-.1-.2-.1-.5-.1-.8-.3 0-.5 0-.5-.4 0-.6-.1-1.1.2-1.7 0-.1-.1-.2-.1-.3-.2-.3-.3-.5 0-.8.2-.2.1-.5 0-.7-.2-.4-.4-.8-.6-1.1.2-.4.5-.4.9-.4-.5-.5-.4-1.1-.7-1.6-.2-.2 0-.5.5-.8-.1-.4-.2-.9-.1-1.3 0-.5-.3-1.1.2-1.6.3-.3.1-.7.1-1.1-.7-.5-.3-1-.1-1.5 0-.1.1-.1.1-.2-.5-.4-.4-.9-.2-1.4.2-.5.1-1 .1-1.5v-.5c.1-.4.1-.8.1-1.1 0-.4.1-.7.2-1.1v-1c-.1-.5 0-1.1 0-1.6v-1.7c0-.2 0-.4.1-.5 0-.2.1-.3.1-.5 0-1.4-.1-2.8-.1-4.2 0-.5.1-1 .1-1.5 0-1.2-.1-2.3-.1-3.5 0-.8.1-1.7.2-2.5s0-1.5-.2-2.3v-.4c-.2-.8-.2-1.6-.8-2.1-.4-.4-1-.4-1.5 0-.4.2-.8.3-1.3.2.2-.6.3-1.1.5-1.6.2-.7.2-.8-.5-1.1-.5-.2-1.1-.5-1.7-.7-.2-.1-.4-.1-.5-.1-.4.1-.9.1-1.3-.1-.2-.1-.4-.1-.6-.1-.1.1-.1.3-.2.3-.4.1-.5.4-.6.8-.6 2.4-1.1 4.8-1.4 7.3-.1 1-.3 2-.4 2.9-.1 1-.1 1.9-.2 2.9-.1 1.7-.2 3.4-.2 5s.1 3.3.1 4.9c.1 1.7.2 3.3.3 5 .1.8.3 1.6.3 2.4 0 2.6.4 5.1.7 7.6 0 .2.1.5.2.6.1.3.2.5 0 .8v.3c.2 1.4.5 2.8.7 4.3.5 3 1 6 1.7 9l.6 3.3.6 2.7c.2 1 .4 2.1.6 3.1.1.4.1.8.2 1.2.5.3.9.8 1.5.9.1 0 .3.1.4.1.7 0 .9.4 1.1.9.1.4.3.8.3 1.1.2.9.5 1.7 1 2.5.3.5.7 1.1 1.4 1.1.1 0 .3.1.4.1.4.4.9.4 1.3.5.4 0 .9 0 1.3-.4.5-.5.9-1.1 1.5-1.5.1-.1.1-.3.1-.5-.3.1-.5-.1-.6-.4zm-4.5-10.5c.1.3.1.4.1.6-.2-.3-.2-.3-.1-.6zm1.3.4c0 .2 0 .5-.2.7-.3-.9-.3-.9.4-1.3.2.3-.2.4-.2.6zm2.3 8.7c-.1-.1-.2-.3-.4-.4.5 0 .5 0 .4.4zM422.6 359.2c-.1-.3-.2-.5-.1-.8 0-.1.1-.2 0-.3-.2-.8-.1-1.6-.3-2.4v-.1c-.4-.5-.2-.9 0-1.3.3-.5.3-1.1.2-1.6-.2 0-.4.1-.5.1 0-.1-.1-.1-.1-.2.2-1 .3-2.1 0-3.1-.2-.8 0-1.5-.1-2.2-.1-1.2 0-2.4 0-3.5 0-.4-.1-.8-.2-1.2-.1-.4-.1-.7-.1-1.2-.3-.1-.2-.7-.4-1.1 0-.1 0-.2.1-.3.2-.3.3-.6.1-1 .5-.6.6-.7.5-1.7-.1.1-.3.2-.4.3-.3-.6-.2-3.2.1-4.1.2.2.4.5.7.7.4-.4.1-.9.2-1.2h-.5c-.1-.5 0-.8.2-1.2 0-.4.1-.8.2-1.1h-.1c-.2.6-.4 1.1-.6 1.7-.3-.5-.3-.5-.1-.9-.3-.6-.6-1.2-.1-1.7 0-.4.1-.8.1-1.1 0-.4 0-.8-.1-1.2-.1-.3-.1-.6.2-.8.3-.2.2-.4.1-.6-.3-.8-.3-1.5-.2-2.3.1-.5 0-1 0-1.5 0-.3 0-.5.1-.8 0-.1.1-.2.1-.3-.3-.4 0-.8 0-1.3v-.5c-.1-.6-.3-1.1-.1-1.7.1-.4 0-.9-.1-1.3-.1-1.2-.3-2.3-.6-3.4-.1-.2-.1-.5-.1-.7v-.2l-.9-1.8c-.1-.2 1.6-.3 1.5-.4-.2-.4-.5-.9-1-1-.3-.1-.6-.4-1-.6-.1-.6-.2-1.3-.1-2 0-.2-.2-.5-.3-.7-.6-.6-1.2-1.1-2.1-1.2-.2 0-.3-.1-.4-.2-.4-.3-.9-.4-1.3-.4-.6 0-1 .2-1.1.8-.3 1.4-.6 2.7-.5 4.1 0 .2 0 .3-.1.5-.1.3-.1.6-.2.9-.1 1.9-.3 3.7-.4 5.6v3.1c0 1.2-.1 2.4-.1 3.7v6.2c0 2 .1 4 .2 6.1 0 .8 0 1.7.1 2.5l.3 4.2c.1 1 .1 2 .2 3 .1.9.2 1.9.2 2.8l.3 3.9c.1.9.1 1.8.2 2.7.1.9.1 1.9.2 2.8l.3 1.8c.1.5.1 1 .2 1.5.1 1 .1 2.1.2 3.1.2 1.3.4 2.5.5 3.7v1.5c.2.7.3 1.4.2 2.1 0 .5.4.8.8 1 .4.3.9.4 1.3.5.3.1.6.2.8.3.4.2.8.4 1.3.3.1 0 .3.1.5.1.3 0 .7.1.9 0 .4-.4.9-.3 1.5-.3.3-.8-1.4-1.5-1.8-2.4l.6-.3c-.1-.2-.1-.4-.2-.6-.1-.1-.4.2-.4-.1 0-.3.1-.6.4-.7.9-.2 1.3-1.2 1.2-2.2 0-.4.1-.9.1-1.3 0-1.1-.1-2.2-.1-3.4 0-.2-.1-.3-.2-.4.2-.5.4-.9.5-1.4-.2.2-.3-.1-.4-.3zM409.2 373c.1-.2.2-.3.2-.5 0-1-.1-2-.2-3v-1.4c-.1-1.4-.2-2.7-.4-4.1-.1-.4-.1-.8-.1-1.2 0-.4-.2-.9-.3-1.3-.1-.7-.3-1.5 0-2.2.1-.3 0-.7 0-1 0-.7-.1-1.3-.1-2 0-1-.2-2-.1-3.1 0-.6-.1-1.2-.2-1.8-.1-.4 0-.7-.2-1.1-.1-.1.1-.5.1-.7-.1-1.4-.2-2.8-.2-4.2-.1-1.4-.2-2.9-.2-4.3-.1-1.4-.1-2.9-.1-4.3 0-1-.1-2.1-.1-3.1s0-2-.1-3c0-1-.1-2.1-.2-3.1 0-.4 0-.8-.1-1.2-.1-.4.1-.8.1-1.2 0-1.3 0-2.6-.1-3.9 0-.7.1-1.4 0-2-.1-1 0-2.1 0-3.1 0-.9 0-1.8.1-2.7 0-.3.2-.6.3-1-.1-.2-.3-.4-.6-.7.1-.2.2-.5.3-.7-.3-.1-.5-.1-.7-.2-.1-.4-.2-.9-.3-1.3-.2-.8-.8-1.4-1.7-1.5-.2 0-.3 0-.5-.2-.3-.5-.8-.6-1.3-.7-.3-.1-.7 0-1 .1-.9.2-.9.9-.9 1.5-.1 1-.1 2-.2 3 0 .1-.1.3-.2.4-.2.4-.4.9-.3 1.4.1 1.4 0 2.7.1 4 0 .7.1 1.4.1 2.1 0 1.3.1 2.6 0 3.9-.1 2.5.1 4.9.1 7.4 0 2 .2 4 .2 6.1.1 1.5.1 3 .1 4.5.1 1.9.3 3.8.4 5.8.1 1.2.1 2.4.2 3.6.1 1.2 0 2.3.3 3.5.1.3 0 .7 0 1 0 .3.1.6.2 1.1.3-.3.1-.7.6-.7.2.3.3.7.3 1.1 0 1 0 1.9.3 2.9.1.2 0 .4 0 .7 0 1 0 1.9.1 2.9 0 .4-.1.8-.2 1.3-.2.7-.5 1.4-.3 2.1.1.4 0 .9 0 1.3 0 .2.1.5.1.8.2-.1.3-.2.4-.2l.1.1c-.3.6-.3.6-.2 1.4.1 1 .2 2.1.3 3.1l.3 1.8c0 .3.1.7.5.9.1 0 .1.1.1.1 0 .5.5.5.9.7.8.3 1.6.2 2.4.2h.1c.8.2 1.6-.1 2.4 0 .1-.8.4-1.6.2-2.4-.4-.5-.3-1.2-.8-1.7zM321.1 208.5s-1.7 4.1-4.3-.2v-13.5h-12.9l-.4 23.3h9.7v-2.9s9.1 8.7 20.2-.1c6.8-5.5 7.9-22.6 1.7-30.4-6.2-7.8-19.6-16.4-18.1-27.2 1.5-10.9 8-4.1 8-4.1v8.4h13.1v-20.9h-9.5v3.7s-11-9.8-20.4 1c-9.5 10.9-4.7 24.9-1.3 29.7 3.1 4.4 26.6 20.9 14.2 33.2zM422.1 237.7c-.7.4-1.3.8-2 1.2-.1 0-.1.1-.2.1-.5-.1-.8.3-1.3.5-.3.1-.5.3-.7.6-.1.2-.3.3-.5.4-.6.7-1.1 1.5-1.5 2.3-.2.4-.1.9-.1 1.3.6.4 1.2.2 1.8.2.8.1 1.6.1 2.4.1h2.9c.2 0 .4 0 .7.1 0 .2.1.4.1.6 0 .7 0 1.5-.1 2.2 0 .4-.3.8-.4 1.2-.1.5-.1 1-.1 1.5 0 .1.1.2.2.3.2.3.5.5.4.9v.1c.6.4.8 1.1 1.5 1.4h.1c.1-.3.2-.7.3-1 .1-.3.3-.6.6-.6.1 0 .3-.2.3-.3.4-.8.9-1.5 1.3-2.3.5-.7.8-1.5 1.3-2.3l1.2-1.8c.1-.1.3-.2.5-.2.4 0 .7.1 1.1.1.9.2 1.9.1 2.8 0 .6 0 .9-.3 1.1-.9.2-.4.4-.7.8-.9.7-.4.9-1.4.4-2.1l-1.2-1.2c-.4-.5-.8-1.1-.8-1.8 0-.1 0-.2.1-.2.1-.3.3-.5.5-.9.3 0 .6-.1.8-.5.1-.2.3-.2.5-.4s.3-.6.6-.8c.2-.2.7-.2.9-.4.3-.3.6-.6.5-1.1-.1-.3.1-.6.1-1.1-.2-.1-.4-.2-.7-.3.2-.3.4-.5.2-.8 0-.1.1-.2.1-.3 0-.2 0-.4.1-.7-.5.2-.8.3-1.1.5-.4.2-.6.5-1.1.3h-.1c-.5.6-1.2.2-1.8.5-.1.1-.3.1-.4.2-.2.4-.6.6-.9.7-.6.3-1.2.6-1.8.8-.5.2-.8.1-1.1-.4-.3-.4-.6-.7-1-1-.5-.4-.7-1-1.1-1.5-.1-.1-.2-.3-.4-.4-.5-.4-.9-.8-.8-1.6.1-.5 0-1 .1-1.4 0-.2 0-.3.1-.5.1-.4.2-.8.3-1.1-.8-.4-1.4-.4-1.9.1-.1.1-.2.2-.4.2-.5.1-.8.4-1.1.9-.1.1-.1.2-.1.3.2 1.4.1 2.7.1 4.1 0 1.4 0 2.8.1 4.1 0 .6 0 1.1-.1 1.7-.6.4-1.3.8-2.1 1.3zm1.9 2.2h-.9v-.2c.3-.2.6-.4 1-.6 0 .4 0 .5-.1.8zm3.4-.8c.1-.9.4-1.6 1.4-1.8 0 0 .1 0 .1-.1.5-.2.6-.2.9.3.3.4.5.8.8 1.3-.2.3-.3.6-.6.9-.1.1-.3.2-.4.2-.7 0-1.5 0-2.3-.1.1-.3.1-.5.1-.7z"/></svg>