<svg version="1.1" id="Layer_1" xmlns="http://www.w3.org/2000/svg" xmlns:xlink="http://www.w3.org/1999/xlink" x="0" y="0" width="216" height="144" style="enable-background:new 0 0 216 144" xml:space="preserve"><style>.st0{fill:#ed1c24}.st1{fill:#fff}.st2{clip-path:url(#SVGID_2_)}.st3{clip-path:url(#SVGID_4_)}.st4{clip-path:url(#SVGID_6_)}</style><path d="M207.5 48.6c-1.3-2.3-3.5-3.8-6.5-4.5-2.2-.5-4.2-.5-5.8-.5h-50.7c-2.4 0-4.5.9-6 2.6-1.1-1-2.6-1.9-4.7-2.4-1.4-.3-2.6-.4-3.7-.5h-10.3c-1-1.2-2.5-2-4.1-2.1-1.5-.1-37.5-2.9-43.5-3.3-10.4-.7-21.6-1.4-35.4-2.3h-.7c-3.2 0-5.9 1.8-7.2 4.8-4.8 11.2-9.8 23-15.3 35.8-1.6 3.7-.8 7.5 2.2 10.2 2 1.8 4.1 3.8 6.6 6.2.4.4.9.7 1.3 1l-5.9 3.6c-2.3 1.4-3.4 4.2-2.7 6.9.7 2.6 3.1 4.4 5.9 4.4h158.5c.8 0 1.5-.1 2.2-.2 3-.5 5.3-2.4 6.5-5.3l1.1-2.5 6.6-15.6c1.3-3.1 2.6-6.3 4-9.5l1.6-3.8c.8-1.5 1.3-2.9 1.7-4 1.8-4 3.3-7.5 4.7-11.1.9-2.9.8-5.6-.4-7.9zm-21.4 6.9c-.1.2-.2.5-.3.7-1 2.5-2.1 4.9-3.1 7.4 1-2.5 2.1-5 3.1-7.4.1-.2.3-.4.3-.7.1-.2.2-.5.1-.5.1.1 0 .3-.1.5zM67.6 72.7c-.4 1.1-.9 2-1.3 3 .5-1 .9-2 1.3-3zm-2.3 5.4c-.2.5-.4.9-.5 1.3.1-.4.3-.9.5-1.3zm-4.5 4.1c-.1 0-.1 0-.2.1.1-.1.1-.1.2-.1zm-.5.2c-.1 0-.1 0-.2.1.1-.1.1-.1.2-.1zm-.4.1h-.1c0 .1.1 0 .1 0zm-.3.1h-.2c0-.1.1 0 .2 0zm-.4-.1c-.1 0-.2-.1-.2-.1.1 0 .1.1.2.1zm-.4-.2c-.1-.1-.2-.1-.3-.2.1.1.2.1.3.2zm-.4-.3c-.2-.1-.3-.3-.6-.4.2.1.4.3.6.4zm47.3-9.1h.3-.3zm-1.3.2c0-.1.1-.2.2-.2l-.2.2zm.2-.2c.1 0 .1 0 .2-.1-.1 0-.1 0-.2.1zm.3-.1s.1 0 0 0c.1 0 0 0 0 0zm13.6-17.2zm.1 0zm-.3 0s.1 0 0 0c.1 0 0 0 0 0zm-3.1 0h-2.9 2.9zm-3.4.2zm.1-.2zm.1 0c0-.1.1-.1 0 0 .1-.1 0-.1 0 0zm-1.6 11.6h-2.1 2.1zM78.1 49.7h6.6-6.6zM75.5 54c.2-.6.5-1.1.7-1.6-.2.5-.4 1-.7 1.6zm-1.6 3.9c.3-.7.6-1.4.9-2-.3.6-.6 1.3-.9 2zm-2.4 5.6c-.3.8-.7 1.6-1 2.4.3-.8.7-1.6 1-2.4.7-1.6 1.3-3.1 1.9-4.6-.6 1.5-1.2 3.1-1.9 4.6zm-2.9 7c.3-.7.6-1.5 1-2.3-.4.8-.7 1.5-1 2.3zM53.9 50.8c0 .1-.1.1-.1.2 0 0 .1-.1.1-.2.1-.2.2-.5.4-.7-.2.2-.3.5-.4.7zM36.8 82.5h.1-.1zm.4-.1h.2-.2zm.4-.1c.1 0 .1 0 .2-.1-.1 0-.1.1-.2.1zm126.1-27.4zm-7.3.2zm0-.1c.1 0 .1 0 0 0 .1 0 .1 0 0 0zm.1-.1c.1 0 .1 0 0 0 .1 0 .1 0 0 0zm.2 0h6.8-6.8zm6.6 33.9h-2.8c.9-.1 1.9-.1 2.8 0zm-3.7-.1h-2 2zm-3 0h-3 3zm14.3 2.6c-.1.1-.1.2-.2.3.1-.1.2-.2.2-.3zm-36.7-2.6h7.2-7.2zm-1.6-14.2-1.9 4.6c-.4 1-.8 2-1.3 3 .4-1 .8-2 1.3-3l1.9-4.6.6-1.5-.6 1.5zM57.4 47.2h-8.5 13.9-5.4zm-9.5.4s0-.1 0 0c0-.1 0 0 0 0zm.2-.2s.1 0 .1-.1l-.1.1zm.3-.2h.2-.2zM36.6 82.5h-.2.2zm-.4-.1c-.1 0-.2-.1-.2-.1.1 0 .2.1.2.1zm-.4-.2c-.1-.1-.2-.1-.3-.2.1.1.2.1.3.2zm-.5-.3c-.2-.1-.4-.3-.6-.5.3.2.5.3.6.5zm143.6-26.6c.1 0 .1 0 0 0 .1 0 .1 0 0 0zm.3-.2s.1 0 .1-.1c0 0-.1 0-.1.1zm.3-.2h.2-.2zm2.5 0h1.4-1.4zM143.2 50c.3-.2.7-.3 1.3-.3-.5 0-.9.1-1.3.3s-.6.6-.8 1.1c-.6 1.5-1.3 3-1.9 4.5.6-1.5 1.3-3 1.9-4.5.2-.5.5-.8.8-1.1zM36.3 41.6H36h.3zm-.7.1zm-.4.1s0 .1 0 0c0 .1 0 0 0 0zm-.4.4zm-.3.5c-1.2 2.8-2.4 5.6-3.6 8.5 1.2-2.9 2.4-5.7 3.6-8.5zM19.2 78.5l2.1-4.8-2.1 4.8-.3.9c0-.2.1-.5.3-.9zm7.4 9.6c.2.1.3.3.5.3-.2-.1-.4-.2-.5-.3-1.3-1.2-2.4-2.3-3.5-3.3 1 1 2.2 2.1 3.5 3.3zm1.8.6h-.2.2zm-.5 0c-.1 0-.2 0-.3-.1.2.1.2.1.3.1zm-.4-.1c-.1 0-.2-.1-.3-.1.1.1.2.1.3.1zm150.4 13.7h.8-.8zm1.5.1h-.1.4-.3zm1.1-.1c-.2 0-.4.1-.6.1.2-.1.4-.1.6-.1z"/><path class="st0" d="m181.3 61.3 1.8-4.2h-2.5c-2.3 5.4-4.6 10.8-6.8 16.2l-6.3 15c-.2.4-.4.8-.6 1.1h2.6c.3-.7.6-1.3.9-2 .2-.3.3-.6.4-1 .8-2.2 1.7-4.4 2.7-6.4l7.4-17.2.4-1.5zM160.5 57.1H158c-.9 2-1.7 4.1-2.6 6.1l-1.9 4.5c-.1.4-.3.7-.5.9l-.1.2c-2.2 5.4-4.4 10.7-6.7 15.8-.1.2-.1.3-.2.5l-.1.3-1.3 3.2c-.1.3-.2.5-.3.7h3.2c-.2-.5-.1-1 .1-1.5l12.9-30.7z"/><path class="st0" d="M205.5 49.7c-.9-1.7-2.6-2.9-5.1-3.4-1.9-.4-3.7-.4-5.3-.4h-50.7c-1.9 0-4.4.7-5.7 3.8-3.4 8.1-7 16.5-9.8 23.3l-1.9 4.6c-.8 2-1.7 4-2.6 6l-1.6 3.7c-.1.2-.1.3-.2.5h-84c-.7 0-1.4.2-2 .6L18.9 99.1c-1.5.9-2.2 2.7-1.7 4.4.5 1.7 2 2.8 3.7 2.8h158.5c.7 0 1.2 0 1.8-.1 2.2-.4 4-1.8 4.9-4l1.1-2.5 6.6-15.6c1.3-3.1 2.6-6.3 4-9.4l1.6-3.9c.8-1.4 1.3-2.8 1.7-3.9 1.8-4 3.3-7.4 4.7-11.1.7-2.4.7-4.4-.3-6.1zm-1.4 5.4c-1.3 3.6-2.8 7-4.7 11-.4 1.1-.9 2.4-1.6 3.8l-1.7 4c-1.3 3.1-2.6 6.3-4 9.4-2.2 5.2-4.4 10.4-6.6 15.5l-1.1 2.5c-.9 2.1-2.5 2.8-3.7 3-.4.1-.9.1-1.5.1H20.7c-1 0-1.9-.7-2.1-1.6-.3-1 .1-2 1-2.5l17.7-10.8c.3-.2.7-.3 1.2-.3h85.8c-.2-.5-.1-1 .1-1.5L126 84c.9-2 1.7-4 2.6-6l1.9-4.6c2.9-6.8 6.4-15.2 9.8-23.3.8-1.9 2.1-2.8 4.1-2.8h50.7c1.5 0 3.2 0 4.9.4 2 .4 3.3 1.3 4 2.6.8 1.5.8 3 .1 4.8z"/><path class="st0" d="M115.2 57.8h-1.9l-1.2 2.8c-.6 1.3-1.1 2.6-1.7 3.9-.1.2-.2.4-.2.6h2.1c1-2.4 2-4.8 3.1-7.2-.1-.1-.1-.1-.2-.1z"/><path class="st0" d="M138.1 49.3c-.6-1.2-2-2.7-4.9-3.4-1.2-.3-2.3-.4-3.3-.4-4.6 0-9.1 0-13.7-.1h-.7c-5.2 0-10.3 0-15.5-.1h-.2c-2.4 0-4.3 1.3-5.2 3.6-.2.6-1.4 3.3-2.8 6.5-13.8 32-13.8 32-12.6 34.3.4.9 1.8 2.8 4.9 2.8h12.2c.7 0 1.7 0 2.9-.5.2-.1.3-.1.4-.2.5-.3 1-.6 1.5-1 .6-.6.9-1.1 1.9-3.4.3 2.9 2.3 4.8 5.2 4.8h14.3c1.1 0 2.1-.5 2.9-1.3.7-.8 1.1-1.9 1-3l-.4-4.2c-.2-2.5-.4-5-.7-7.6 3.6-1 6.1-3.5 7.3-7.2.4-1.1.9-2.3 1.4-3.5l.9-2.1.8-1.9c.9-2 1.7-4.1 2.6-6.3 1.1-2.6.5-4.6-.2-5.8zm-1.3 5.3c-.8 2.1-1.7 4.2-2.5 6.2l-.8 1.9-.9 2.1c-.5 1.2-1.1 2.5-1.5 3.7-1.2 3.7-3.8 5.8-7.5 6.4.3 3 .5 6.1.8 9l.4 4.2c.1.6-.2 1.2-.6 1.7-.4.5-1 .7-1.6.7H108.2c-.8 0-3.4-.3-3.6-3.5-.1-2.4-.3-4.8-.4-7.2 0 .1 0 .1-.1.2-3.2 8.2-3.6 9-4.3 9.7-.3.3-.6.5-1 .7-.1 0-.2.1-.3.1-.9.3-1.7.4-2.3.4H84c-2.1 0-3-1.2-3.4-1.9-.8-1.5-.9-1.7 12.8-32.8 1.5-3.3 2.6-6 2.9-6.5.7-1.7 2-2.6 3.7-2.6h.1c5.2 0 10.3 0 15.5.1h.7c4.5 0 9.1 0 13.6.1.9 0 1.8.1 2.9.4 2.2.5 3.3 1.7 3.8 2.5.6.8 1 2.3.2 4.4z"/><path class="st0" d="M115.4 43.4c-1.5-.1-37.5-2.9-43.4-3.3-10.4-.7-21.6-1.4-35.4-2.3h-.5c-2.3 0-4.2 1.3-5.1 3.4-4.8 11.2-9.8 23-15.3 35.8-1.2 2.9-.6 5.7 1.6 7.7 2 1.8 4.1 3.8 6.6 6.2 1.2 1.1 2.7 1.7 4.5 1.7h4.9c1.1 0 2.1 0 2.9.1h1.5c3.4 0 6.3-.7 8.8-2.2 1.6 1.5 3.7 2.2 6.1 2.2h.5c1.2 0 2.5-.1 4.1-.1H63.5c.7 0 1.8-.1 2.8-.6 2-1 4-2.1 6-3.2l1.7-.9c2.3-1 4.5-2.2 6.4-3.3l.1-.1c1.5-.9 2.7-2.2 3.4-3.7 1.4-3.2 2.7-6.5 4.1-9.7l8.5-19.9c0-.1.1-.1.1-.2h11l7.4.1c2.1 0 3.8-1.6 3.9-3.7.2-2.1-1.4-3.9-3.5-4zm-.3 6.1-7.5-.1H95.1c.1.4 0 .8-.2 1.2l-8.5 19.9c-1.4 3.2-2.7 6.5-4.1 9.7-.5 1.2-1.4 2.2-2.6 2.9l-.1.1c-2 1.1-4 2.3-6.3 3.2l-1.7.9c-2 1.1-4 2.1-6 3.2-.8.4-1.5.4-2.1.4H57.2c-1.7 0-3 0-4.2.1h-.4c-2.3 0-4.1-.8-5.5-2.3-.2-.2-.3-.3-.4-.3-.1 0-.2.1-.4.2-2.4 1.6-5.2 2.4-8.6 2.4h-1.5c-.9-.1-1.9-.1-3-.1H28.3c-.5 0-2 0-3.3-1.3-2.5-2.4-4.6-4.4-6.7-6.2-1.7-1.6-2.2-3.6-1.2-5.8C22.6 64.7 27.7 53 32.4 41.8c.7-1.6 1.9-2.4 3.6-2.4h.4c13.8.9 25 1.7 35.4 2.3 5.9.4 43 3.3 43.4 3.3 1.2.1 2.1 1.1 2 2.3.1 1.2-.9 2.2-2.1 2.2z"/><path class="st1" d="M144.5 49.7h50.7c1.4 0 2.9 0 4.5.3 1.3.3 2.1.8 2.5 1.5.4.7.4 1.6-.1 2.8-1.3 3.5-2.8 6.9-4.6 11-.4 1.1-.8 2.4-1.5 3.6l-1.7 4.1c-1.3 3.1-2.6 6.3-3.9 9.4-2.2 5.2-4.4 10.4-6.6 15.5l-1.1 2.5c-.4.9-1 1.5-2 1.7-.3.1-.7.1-1.1.1H21.1l17.7-10.8H171c.1-.2.2-.4.3-.7.3-.9.7-1.7 1.1-2.6.2-.4.3-.7.5-1.1.8-2.2 1.7-4.3 2.6-6.4l7.4-17.3c1-2.5 2.1-5 3.1-7.4.2-.4.5-1.1.4-1.3-.1-.1-.9-.1-1.3-.1H180c-.6 0-.9.2-1.2.9-2.3 5.6-4.7 11.1-7.1 16.7l-6.3 15c-.4.8-.8 1.3-2 1.4h-13.8L163.4 56c.2-.4.3-.7.4-1.1v-.2h-7c-.2 0-.2.1-.3.4 0 .1-.1.2-.1.3-1 2.3-1.9 4.5-2.9 6.8l-1.9 4.5c-.1.3-.2.5-.4.8l-.2.3c-2.2 5.5-4.5 10.8-6.8 16 0 .1-.1.2-.1.3l-.2.5-1.3 3.1c-.1.3-.3.9-1.1.9H126.6l1.6-3.7c.9-2 1.7-4 2.6-6l1.9-4.6c3.3-7.8 6.6-15.5 9.8-23.3.4-.9.9-1.3 2-1.3m0-2.2c-2 0-3.4.9-4.1 2.8-3.4 8.1-7 16.5-9.8 23.3l-1.9 4.6c-.8 2-1.7 4-2.6 6l-1.6 3.7c-.2.5-.2 1-.1 1.5H38.6c-.4 0-.8.1-1.2.3l-17.7 10.8c-.8.5-1.2 1.5-1 2.5.3 1 1.1 1.6 2.1 1.6h158.5c.6 0 1 0 1.5-.1 1.2-.2 2.8-.9 3.7-3l1.1-2.5c2.2-5.2 4.4-10.4 6.6-15.5 1.3-3.1 2.6-6.3 4-9.4l1.7-4c.8-1.3 1.3-2.7 1.6-3.8 1.8-4 3.3-7.4 4.7-11 .7-1.8.7-3.3 0-4.6-.7-1.3-2-2.1-4-2.6-1.7-.4-3.4-.4-4.9-.4h-20.2c-10.3-.2-20.4-.2-30.6-.2zm22.2 41.9c.3-.3.5-.7.6-1.1l6.3-15c2.3-5.4 4.6-10.8 6.8-16.2h2.5l-1.8 4.2-.6 1.5-7.2 17.2c-1 2.1-1.9 4.3-2.7 6.4-.1.3-.3.6-.4 1-.3.6-.6 1.3-.9 2h-2.6zm-13.8-20.5.1-.2c.1-.3.3-.6.5-.9l1.9-4.5c.9-2 1.7-4.1 2.6-6.1h2.5l-13 30.7c-.2.5-.2 1-.1 1.5h-3.2c.1-.2.2-.4.3-.7l1.3-3.2.1-.3c.1-.1.1-.3.2-.5 2.4-5 4.6-10.3 6.8-15.8z"/><path class="st0" d="M71.1 52.7c-3.7 8.7-7.6 18.1-11.6 27.4.1.1.2.1.2.2.2-.1.4-.2.7-.3.3-.1.5-.3.8-.4.5-.3 1-.5 1.4-.7 2.2-5.2 10.3-24.2 12.3-29 0-.1.1-.2.2-.3h-3.4v.2c.3 1.4-.2 2.5-.5 3 0-.2 0-.1-.1-.1zM36.6 80c.1.1.2.2.3.2.2-.1.4-.2.7-.3l.3-.1c1.1-.5 1.9-1.1 2.6-2.9 2.7-6.7 5.6-13.4 8.4-19.9 1-2.3 1.9-4.5 2.9-6.8v-.1c.1-.2.2-.5.3-.6h-2.6c-5 11.9-9.1 21.6-12.9 30.5z"/><path class="st1" d="M36.1 41.6h.3c11.8.8 23.6 1.6 35.4 2.3 6 .4 43.4 3.3 43.4 3.3l-7.5-.1H48.9c-.6 0-.9.2-1.1.8-5.2 12.4-9.5 22.5-13.4 31.7-.4.8-.3 1.2.4 1.8 1 .8 1.4 1.1 1.9 1.1.4 0 .9-.2 1.7-.5l.3-.1c1.8-.8 3-2 3.8-4.1 2.7-6.6 5.6-13.4 8.4-19.9 1-2.3 1.9-4.5 2.9-6.8 0-.1.1-.1.1-.2.2-.4.4-1.1 1.4-1.1h14.3l.1.3c.1.6-.1 1.1-.3 1.5-.1.1-.1.2-.1.3-3.8 8.9-7.8 18.5-11.8 27.8-.3.8-.2 1.2.5 1.8l.1.1c.9.7 1.3 1 1.8 1 .4 0 .9-.2 1.8-.7.3-.1.5-.2.8-.4.8-.4 1.5-.7 2.2-1.2 1.7-4 10.4-24.5 12.6-29.7.1-.3.4-.9 1.1-.9H93l-8.5 19.9c-1.4 3.2-2.7 6.5-4.1 9.7-.3.7-.9 1.4-1.7 1.8l-.1.1c-2 1.1-4 2.3-6.1 3.1l-1.8 1c-2 1.1-4 2.1-6 3.2-.3.2-.7.2-1.1.2h-6.4c-1.4 0-2.9 0-4.3.1h-.3c-1.7 0-2.9-.5-3.9-1.6-.7-.7-1.3-1.1-2-1.1-.5 0-1.1.2-1.7.6-2 1.4-4.4 2-7.4 2h-1.3c-1-.1-2.1-.1-3.1-.1H28.3c-.5 0-1.2-.1-1.8-.7-2.5-2.4-4.7-4.4-6.7-6.2-1-.9-1.2-2-.7-3.3 5.6-12.9 10.6-24.6 15.3-35.8.5-.8 1-1 1.7-1m0-2.2c-1.6 0-2.9.9-3.6 2.4-4.8 11.2-9.8 23-15.3 35.8-.9 2.2-.5 4.3 1.2 5.8 2 1.9 4.2 3.8 6.7 6.2 1.3 1.3 2.8 1.3 3.3 1.3h4.9c1.2 0 2.1 0 3 .1h1.5c3.4 0 6.3-.8 8.6-2.4.2-.1.3-.2.4-.2.1 0 .2.1.4.3 1.4 1.5 3.3 2.3 5.5 2.3h.4c1.2 0 2.5-.1 4.2-.1H63.6c.6 0 1.3-.1 2.1-.4 2-1 4-2.1 6-3.2l1.7-.9c2.2-.9 4.3-2.1 6.3-3.2l.1-.1c1.2-.7 2.1-1.7 2.6-2.9 1.4-3.2 2.7-6.5 4.1-9.7L95 50.6c.2-.4.2-.8.2-1.2h12.5l7.4.1c1.2 0 2.2-.9 2.2-2.1.1-1.2-.8-2.2-2-2.3-.4 0-37.5-2.9-43.4-3.3-10.4-.7-21.6-1.4-35.4-2.3-.2-.1-.3-.1-.4-.1zm.5 40.6a3712 3712 0 0 0 12.9-30.6h2.6l-.3.6v.1c-1 2.3-1.9 4.5-2.9 6.8-2.8 6.5-5.6 13.2-8.4 19.9-.7 1.8-1.6 2.4-2.6 2.9l-.3.1c-.2.1-.5.2-.7.3-.1.1-.2 0-.3-.1zm35.1-30.6h3.4c-.1.1-.1.2-.2.3-2 4.9-10.1 23.8-12.3 29-.4.2-.9.5-1.4.7-.3.1-.5.3-.8.4-.2.1-.5.2-.7.3-.1-.1-.2-.1-.2-.2 4-9.3 7.9-18.6 11.6-27.4 0 0 0-.1.1-.1.3-.5.8-1.6.5-3z"/><path class="st1" d="M100 49.3s.1 0 0 0c5.5 0 10.9 0 16.3.1 4.6 0 9.1 0 13.7.1.7 0 1.5.1 2.4.3 1.1.3 1.9.7 2.3 1.4.4.7.4 1.6 0 2.6-.8 2.1-1.6 4.2-2.5 6.2l-.8 1.9c-.3.7-.6 1.4-.9 2-.6 1.3-1.2 2.6-1.6 3.9-1.1 3.3-3.4 4.9-7.1 5-.5 0-.6.1-.6.1 0 .1-.1.2-.1.6L122 84l.4 4.2H108.1c-1.1 0-1.3-.5-1.4-1.4-.2-4.2-.5-8.5-.7-12.7v-1.3h-1.1c-.2 0-.3.1-.4.3-.6 1.5-1.5 3.7-2.4 6.1-2.3 5.8-3.4 8.5-3.8 8.9-.1.1-.3.2-.5.3-.6.2-1.1.2-1.6.2H84c-.5 0-1.1-.1-1.4-.7-.2-.5.5-2.8 12.8-30.9 1.5-3.5 2.6-6 2.9-6.6.4-.7.9-1.1 1.7-1.1m6.9 17.9h6.3c.4 0 .6-.2.8-.6 1.5-3.5 3-7 4.5-10.6.1-.3.1-.5.1-.5s-.1-.1-.5-.1H112.2c-.3 0-.4.1-.6.6l-1.5 3.6c-.6 1.3-1.1 2.6-1.7 3.9-.4.9-.8 1.9-1.2 2.8l-.3.9M100 47.1c-1.7 0-3 .9-3.7 2.6-.2.6-1.4 3.2-2.9 6.5C79.8 87.3 79.9 87.4 80.7 89c.4.7 1.3 1.9 3.4 1.9h12.2c.6 0 1.4 0 2.3-.4.1 0 .2-.1.3-.1.4-.2.7-.4 1-.7.6-.6 1-1.4 4.3-9.7 0-.1 0-.1.1-.2.1 2.4.3 4.8.4 7.2.2 3.3 2.8 3.5 3.6 3.5H122.7c.6 0 1.2-.3 1.6-.7.4-.5.6-1.1.6-1.7l-.4-4.2c-.3-3-.5-6-.8-9 3.7-.6 6.3-2.8 7.5-6.4.4-1.2 1-2.5 1.5-3.7l.9-2.1.8-1.9c.9-2 1.7-4.1 2.5-6.2.8-2.1.4-3.6-.1-4.4-.5-.9-1.5-2.1-3.8-2.5-1.1-.2-2-.4-2.9-.4-4.5 0-9.1 0-13.6-.1h-.7c-5.2 0-10.3 0-15.5-.1h-.3zM110.3 65c.1-.2.2-.4.2-.6.5-1.3 1.1-2.6 1.7-3.9l1.2-2.8h2.1c-1 2.4-2 4.8-3.1 7.2-.8.1-1.4.1-2.1.1z"/><defs><path id="SVGID_1_" d="M202.1 51.6c-.4-.7-1.2-1.2-2.5-1.5-1.5-.3-3-.3-4.5-.3h-50.7c-1.1 0-1.7.4-2.1 1.4-3.3 7.8-6.6 15.6-9.8 23.3l-1.9 4.6c-.8 2-1.7 4-2.6 6l-1.6 3.7H141.3c.8 0 1-.6 1.1-.9l1.3-3.1.2-.5c.1-.1.1-.2.1-.3 2.3-5.1 4.6-10.5 6.8-16l.2-.3c.1-.2.3-.5.4-.8l1.9-4.5c1-2.3 1.9-4.5 2.9-6.8 0-.1.1-.2.1-.3.1-.4.2-.4.4-.4h7v.2c-.1.4-.2.7-.4 1.1l-13.8 32.5H163.4c1.1 0 1.6-.5 2-1.4l6.3-15c2.4-5.6 4.7-11.1 7.1-16.7.3-.7.6-.9 1.3-.9 1.1.1 2.3 0 3.4 0h1.5c.4 0 1.2 0 1.3.1 0 .2-.3.9-.4 1.3-1 2.5-2.1 4.9-3.1 7.4l-7.4 17.3c-1 2.1-1.9 4.2-2.6 6.4-.2.4-.3.7-.5 1.1-.4.8-.8 1.7-1.1 2.6-.1.3-.2.5-.3.7H38.6l-17.7 10.8h157c.8 0 1.7.1 2.6 0 1-.2 1.6-.8 2-1.7l1.1-2.5c2.2-5.2 4.4-10.4 6.6-15.5 1.3-3.1 2.6-6.3 3.9-9.4l1.7-4.1c.7-1.2 1.2-2.5 1.5-3.6 1.8-4 3.3-7.4 4.6-11 .6-1.4.6-2.3.2-3z"/></defs><use xlink:href="#SVGID_1_" style="overflow:visible"/><clipPath id="SVGID_2_"><use xlink:href="#SVGID_1_" style="overflow:visible"/></clipPath><path class="st2" d="M20.9 94.4h181.6v8.1H20.9zM20.9 89.4h181.6v5H20.9z"/><path class="st2" d="M20.9 84.5h181.6v5H20.9zM20.9 84.1h181.6v.3H20.9zM20.9 83.8h181.6v.3H20.9zM20.9 83.5h181.6v.3H20.9zM20.9 83.2h181.6v.3H20.9zM20.9 82.9h181.6v.3H20.9zM20.9 82.5h181.6v.3H20.9zM20.9 82.2h181.6v.3H20.9zM20.9 81.9h181.6v.3H20.9zM20.9 81.6h181.6v.3H20.9zM20.9 81.3h181.6v.3H20.9zM20.9 80.9h181.6v.3H20.9zM20.9 80.6h181.6v.3H20.9zM20.9 80.3h181.6v.3H20.9zM20.9 80h181.6v.3H20.9zM20.9 79.6h181.6v.3H20.9zM20.9 79.3h181.6v.3H20.9zM20.9 79h181.6v.3H20.9zM20.9 78.7h181.6v.3H20.9zM20.9 78.4h181.6v.3H20.9zM20.9 78h181.6v.3H20.9zM20.9 77.7h181.6v.3H20.9zM20.9 77.4h181.6v.3H20.9zM20.9 77.1h181.6v.3H20.9zM20.9 76.8h181.6v.3H20.9zM20.9 76.6h181.6v.2H20.9z"/><path class="st2" d="M20.9 76.4h181.6v.2H20.9zM20.9 76.2h181.6v.2H20.9zM20.9 76h181.6v.2H20.9zM20.9 75.8h181.6v.2H20.9zM20.9 75.6h181.6v.2H20.9z"/><path class="st2" d="M20.9 75.4h181.6v.2H20.9zM20.9 75.2h181.6v.2H20.9zM20.9 75h181.6v.2H20.9zM20.9 74.8h181.6v.2H20.9zM20.9 74.6h181.6v.2H20.9z"/><path class="st2" d="M20.9 74.5h181.6v.2H20.9zM20.9 74.3h181.6v.2H20.9zM20.9 74.1h181.6v.1H20.9zM20.9 74h181.6v.1H20.9zM20.9 73.8h181.6v.1H20.9zM20.9 73.7h181.6v.1H20.9zM20.9 73.6h181.6v.1H20.9zM20.9 73.4h181.6v.1H20.9zM20.9 73.3h181.6v.1H20.9zM20.9 73.1h181.6v.1H20.9zM20.9 73h181.6v.1H20.9zM20.9 72.9h181.6v.1H20.9zM20.9 72.7h181.6v.1H20.9zM20.9 72.6h181.6v.1H20.9zM20.9 72.4h181.6v.1H20.9zM20.9 72.3h181.6v.1H20.9zM20.9 72.2h181.6v.1H20.9zM20.9 72h181.6v.1H20.9zM20.9 71.9h181.6v.1H20.9zM20.9 71.7h181.6v.1H20.9zM20.9 71.6h181.6v.1H20.9zM20.9 71.4h181.6v.1H20.9zM20.9 71.3h181.6v.1H20.9zM20.9 71.2h181.6v.1H20.9zM20.9 71h181.6v.1H20.9zM20.9 70.9h181.6v.1H20.9zM20.9 70.7h181.6v.1H20.9zM20.9 70.6h181.6v.1H20.9zM20.9 70.5h181.6v.1H20.9zM20.9 70.3h181.6v.1H20.9zM20.9 70.2h181.6v.1H20.9zM20.9 70h181.6v.1H20.9zM20.9 69.9h181.6v.1H20.9zM20.9 69.8h181.6v.1H20.9zM20.9 69.6h181.6v.1H20.9zM20.9 69.5h181.6v.1H20.9zM20.9 69.3h181.6v.1H20.9zM20.9 69.2h181.6v.1H20.9zM20.9 69.1h181.6v.1H20.9zM20.9 68.9h181.6v.1H20.9zM20.9 66.7h181.6v.1H20.9zM20.9 66.6h181.6v.1H20.9zM20.9 66.5h181.6v.1H20.9zM20.9 66.4h181.6v.1H20.9zM20.9 66.2h181.6v.1H20.9zM20.9 66.1h181.6v.1H20.9zM20.9 66h181.6v.1H20.9zM20.9 65.8h181.6v.1H20.9zM20.9 65.7h181.6v.1H20.9zM20.9 65.6h181.6v.1H20.9zM20.9 65.4h181.6v.1H20.9zM20.9 65.3h181.6v.1H20.9zM20.9 65.2h181.6v.1H20.9zM20.9 65.1h181.6v.1H20.9zM20.9 64.9h181.6v.1H20.9zM20.9 64.8h181.6v.1H20.9zM20.9 64.7h181.6v.1H20.9zM20.9 64.5h181.6v.1H20.9zM20.9 64.4h181.6v.1H20.9zM20.9 64.3h181.6v.1H20.9zM20.9 64.2h181.6v.1H20.9zM20.9 64h181.6v.1H20.9zM20.9 63.9h181.6v.1H20.9zM20.9 63.8h181.6v.1H20.9zM20.9 63.6h181.6v.1H20.9zM20.9 49.7h181.6v13.9H20.9z"/><g><defs><path id="SVGID_3_" d="M28.4 88.7h1.9c2 0 4-.1 6.1 0h1.3c3 0 5.4-.7 7.4-2 1.4-1 2.5-.8 3.7.4 1 1.1 2.4 1.6 4.2 1.6 2.3-.1 4.7-.1 7-.1h3.5c.4 0 .9 0 1.3-.2 2-1 4-2.1 6-3.2l1.8-1c2.1-.9 4.2-2 6.1-3.1l.1-.1c.8-.5 1.4-1.1 1.7-1.8 1.4-3.2 2.7-6.5 4.1-9.7L93 49.7H78.1c-.8 0-1 .6-1.1.9-2.1 5.1-10.8 25.7-12.6 29.7-.7.5-1.4.9-2.2 1.2-.3.1-.5.2-.8.4-1.9 1-1.9 1-3.6-.3l-.1-.1c-.7-.6-.8-1-.5-1.8 4-9.4 8.1-18.9 11.8-27.8 0-.1.1-.2.1-.3.2-.4.4-.8.3-1.5l-.1-.3H55.1c-1 0-1.2.7-1.4 1.1 0 .1-.1.1-.1.2-1 2.3-1.9 4.5-2.9 6.8-2.8 6.5-5.6 13.2-8.4 19.9-.9 2.1-2 3.3-3.8 4.1l-.1.1c-1.9.8-1.9.8-3.6-.6-.7-.6-.8-.9-.4-1.8 3.9-9.2 8.2-19.2 13.4-31.7.3-.6.5-.8 1.2-.8h58.8l7.5.1s-37.4-2.9-43.4-3.3c-11.8-.7-23.6-1.5-35.4-2.3-.8-.1-1.4.1-1.8 1.1-4.8 11.2-9.8 22.9-15.3 35.8-.6 1.3-.4 2.4.7 3.3 2 1.9 4.2 3.8 6.7 6.2.4.7 1 .8 1.6.7z"/></defs><use xlink:href="#SVGID_3_" style="overflow:visible"/><clipPath id="SVGID_4_"><use xlink:href="#SVGID_3_" style="overflow:visible"/></clipPath><path class="st3" d="M18.6 81.8h96.5v7H18.6zM18.6 81.7h96.5v.1H18.6z"/><path class="st3" d="M18.6 81.7h96.5v.1H18.6zM18.6 81.6h96.5v.1H18.6z"/><path class="st3" d="M18.6 81.6h96.5v.1H18.6zM18.6 81.5h96.5v.1H18.6zM18.6 81.4h96.5v.1H18.6zM18.6 81.1h96.5v.3H18.6zM18.6 80.8h96.5v.3H18.6zM18.6 80.4h96.5v.3H18.6zM18.6 80.1h96.5v.3H18.6zM18.6 79.8h96.5v.3H18.6zM18.6 79.4h96.5v.3H18.6zM18.6 79.1h96.5v.3H18.6zM18.6 78.8h96.5v.3H18.6zM18.6 78.5h96.5v.3H18.6zM18.6 78.1h96.5v.3H18.6zM18.6 77.8h96.5v.3H18.6zM18.6 77.5h96.5v.3H18.6zM18.6 77.1h96.5v.3H18.6zM18.6 76.8h96.5v.3H18.6zM18.6 76.5h96.5v.3H18.6zM18.6 76.1h96.5v.3H18.6zM18.6 75.8h96.5v.3H18.6zM18.6 75.5h96.5v.3H18.6zM18.6 75.2h96.5v.3H18.6zM18.6 75h96.5v.2H18.6zM18.6 74.8h96.5v.2H18.6zM18.6 74.6h96.5v.2H18.6z"/><path class="st3" d="M18.6 74.4h96.5v.2H18.6zM18.6 74.2h96.5v.2H18.6zM18.6 74h96.5v.2H18.6zM18.6 73.8h96.5v.2H18.6zM18.6 73.6h96.5v.2H18.6z"/><path class="st3" d="M18.6 73.4h96.5v.2H18.6z"/><path class="st3" d="M18.6 73.3h96.5v.2H18.6zM18.6 73.1h96.5v.2H18.6z"/><path class="st3" d="M18.6 72.9h96.5v.2H18.6zM18.6 72.7h96.5v.2H18.6zM18.6 72.6h96.5v.1H18.6zM18.6 72.5h96.5v.1H18.6zM18.6 72.4h96.5v.1H18.6zM18.6 72.3h96.5v.1H18.6zM18.6 72.2h96.5v.1H18.6zM18.6 72.1h96.5v.1H18.6zM18.6 72h96.5v.1H18.6zM18.6 71.9h96.5v.1H18.6zM18.6 71.8h96.5v.1H18.6zM18.6 71.7h96.5v.1H18.6zM18.6 71.6h96.5v.1H18.6zM18.6 71.5h96.5v.1H18.6zM18.6 71.4h96.5v.1H18.6z"/><path class="st3" d="M18.6 71.4h96.5v.1H18.6zM18.6 71.3h96.5v.1H18.6zM18.6 71.2h96.5v.1H18.6zM18.6 71.1h96.5v.1H18.6zM18.6 71h96.5v.1H18.6zM18.6 70.9h96.5v.1H18.6zM18.6 70.8h96.5v.1H18.6zM18.6 70.7h96.5v.1H18.6zM18.6 70.6h96.5v.1H18.6zM18.6 70.5h96.5v.1H18.6zM18.6 70.4h96.5v.1H18.6zM18.6 70.3h96.5v.1H18.6zM18.6 70.2h96.5v.1H18.6zM18.6 70.1h96.5v.1H18.6zM18.6 70h96.5v.1H18.6zM18.6 69.9h96.5v.1H18.6zM18.6 69.8h96.5v.1H18.6zM18.6 69.7h96.5v.1H18.6zM18.6 69.6h96.5v.1H18.6zM18.6 69.5h96.5v.1H18.6z"/><path class="st3" d="M18.6 69.5h96.5v.1H18.6zM18.6 69.4h96.5v.1H18.6zM18.6 69.3h96.5v.1H18.6zM18.6 69.2h96.5v.1H18.6zM18.6 69.1h96.5v.1H18.6zM18.6 66.9h96.5v.2H18.6zM18.6 66.6h96.5v.2H18.6z"/><path class="st3" d="M18.6 66.4h96.5v.2H18.6zM18.6 66.2h96.5v.2H18.6zM18.6 66h96.5v.2H18.6zM18.6 65.7h96.5v.2H18.6zM18.6 65.5h96.5v.2H18.6zM18.6 65.3h96.5v.2H18.6zM18.6 65.1h96.5v.2H18.6zM18.6 64.8h96.5v.2H18.6zM18.6 64.6h96.5v.2H18.6z"/><path class="st3" d="M18.6 64.4h96.5v.2H18.6zM18.6 64.1h96.5v.2H18.6zM18.6 63.9h96.5v.2H18.6z"/><path class="st3" d="M18.6 63.7h96.5v.2H18.6zM18.6 63.5h96.5v.2H18.6zM18.6 63.2h96.5v.2H18.6zM18.6 63h96.5v.2H18.6zM18.6 62.8h96.5v.2H18.6z"/><path class="st3" d="M18.6 62.6h96.5v.2H18.6zM18.6 62.3h96.5v.2H18.6z"/><path class="st3" d="M18.6 62.1h96.5v.2H18.6zM18.6 61.9h96.5v.2H18.6zM18.6 61.6h96.5v.2H18.6zM18.6 61.4h96.5v.2H18.6z"/><path class="st3" d="M18.6 41.6h96.5v19.9H18.6z"/></g><g><defs><path id="SVGID_5_" d="M98.4 50.5c-.2.6-1.3 3.1-2.9 6.6C83.2 85.2 82.4 87.5 82.6 88c.3.6.9.7 1.4.7h11.6c.7 0 1.4 0 2.1-.2.2-.1.3-.2.5-.3.4-.4 1.5-3.1 3.8-8.9.9-2.3 1.8-4.5 2.4-6.1.1-.4.3-.4.9-.3.2 0 .4.1.7 0V74.2c.3 4.2.5 8.5.7 12.7 0 .9.3 1.5 1.5 1.4H122.4l-.4-4.2c-.3-3.6-.6-7-.9-10.5 0-.4 0-.6.1-.6 0 0 .2-.1.6-.1 3.7-.1 6-1.7 7.1-5 .4-1.3 1-2.6 1.6-3.9.3-.7.6-1.3.9-2l.8-1.9c.8-2 1.7-4.1 2.5-6.2.4-1 .4-1.9 0-2.6-.4-.7-1.2-1.2-2.3-1.4-.9-.2-1.7-.3-2.4-.3-4.6 0-9.1 0-13.7-.1-5.4 0-10.8 0-16.2-.1-.9-.1-1.4.2-1.7 1.1zm8.9 15.9c.4-1 .8-1.9 1.2-2.8.5-1.3 1.1-2.6 1.7-3.9l1.5-3.6c.2-.5.2-.6.6-.5 2 .1 3.9 0 5.9 0 .4 0 .5.1.5.1s0 .1-.1.5c-1.5 3.5-3 7-4.5 10.6-.2.4-.4.6-.8.6H107l.3-1z"/></defs><use xlink:href="#SVGID_5_" style="overflow:visible"/><clipPath id="SVGID_6_"><use xlink:href="#SVGID_5_" style="overflow:visible"/></clipPath><path class="st4" d="M106.9 67h11.7v.1h-11.7zM106.9 66.9h11.7v.1h-11.7z"/><path class="st4" d="M106.9 66.9h11.7v.1h-11.7zM106.9 66.8h11.7v.1h-11.7zM106.9 66.7h11.7v.1h-11.7zM106.9 66.6h11.7v.1h-11.7zM106.9 66.5h11.7v.1h-11.7zM106.9 66.4h11.7v.1h-11.7zM106.9 66.3h11.7v.1h-11.7zM106.9 66.2h11.7v.1h-11.7zM106.9 66.1h11.7v.1h-11.7zM106.9 66h11.7v.1h-11.7zM106.9 65.9h11.7v.1h-11.7zM106.9 65.8h11.7v.1h-11.7zM106.9 65.7h11.7v.1h-11.7zM106.9 65.6h11.7v.1h-11.7zM106.9 65.5h11.7v.1h-11.7zM106.9 65.4h11.7v.1h-11.7zM106.9 65.3h11.7v.1h-11.7zM106.9 65.2h11.7v.1h-11.7zM106.9 65.1h11.7v.1h-11.7zM106.9 65h11.7v.1h-11.7zM106.9 64.9h11.7v.1h-11.7zM106.9 64.8h11.7v.1h-11.7zM106.9 64.7h11.7v.1h-11.7zM106.9 55.5h11.7v9.2h-11.7zM82.4 83.7h52.7v5H82.4zM82.4 83.3h52.7v.4H82.4z"/><path class="st4" d="M82.4 83h52.7v.4H82.4zM82.4 82.6h52.7v.4H82.4z"/><path class="st4" d="M82.4 82.3h52.7v.4H82.4z"/><path class="st4" d="M82.4 81.9h52.7v.4H82.4z"/><path class="st4" d="M82.4 81.6h52.7v.4H82.4z"/><path class="st4" d="M82.4 81.2h52.7v.4H82.4z"/><path class="st4" d="M82.4 80.9h52.7v.4H82.4zM82.4 80.5h52.7v.4H82.4z"/><path class="st4" d="M82.4 80.2h52.7v.4H82.4zM82.4 79.8h52.7v.4H82.4z"/><path class="st4" d="M82.4 79.4h52.7v.4H82.4z"/><path class="st4" d="M82.4 79.1h52.7v.4H82.4z"/><path class="st4" d="M82.4 78.7h52.7v.4H82.4z"/><path class="st4" d="M82.4 78.4h52.7v.4H82.4zM82.4 78h52.7v.4H82.4z"/><path class="st4" d="M82.4 77.7h52.7v.4H82.4zM82.4 77.3h52.7v.4H82.4z"/><path class="st4" d="M82.4 77h52.7v.4H82.4zM82.4 76.6h52.7v.4H82.4z"/><path class="st4" d="M82.4 76.3h52.7v.4H82.4z"/><path class="st4" d="M82.4 75.9h52.7v.4H82.4zM82.4 75.5h52.7v.4H82.4z"/><path class="st4" d="M82.4 75.2h52.7v.4H82.4zM82.4 74.8h52.7v.4H82.4zM82.4 74.7h52.7v.1H82.4zM82.4 74.6h52.7v.1H82.4zM82.4 74.4h52.7v.1H82.4zM82.4 74.3h52.7v.1H82.4zM82.4 74.1h52.7v.1H82.4zM82.4 74h52.7v.1H82.4zM82.4 73.8h52.7v.1H82.4zM82.4 73.7h52.7v.1H82.4zM82.4 73.5h52.7v.1H82.4zM82.4 73.4h52.7v.1H82.4zM82.4 73.3h52.7v.1H82.4zM82.4 73.1h52.7v.1H82.4zM82.4 73h52.7v.1H82.4zM82.4 72.9h52.7v.1H82.4zM82.4 72.8h52.7v.1H82.4zM82.4 72.7h52.7v.1H82.4zM82.4 72.6h52.7v.1H82.4zM82.4 72.5h52.7v.1H82.4zM82.4 72.4h52.7v.1H82.4zM82.4 72.3h52.7v.1H82.4zM82.4 72.2h52.7v.1H82.4zM82.4 72.1h52.7v.1H82.4zM82.4 72h52.7v.1H82.4zM82.4 71.9h52.7v.1H82.4zM82.4 71.8h52.7v.1H82.4zM82.4 71.7h52.7v.1H82.4zM82.4 71.6h52.7v.1H82.4zM82.4 71.5h52.7v.1H82.4zM82.4 71.4h52.7v.1H82.4zM82.4 71.3h52.7v.1H82.4zM82.4 71.2h52.7v.1H82.4zM82.4 71h52.7v.1H82.4zM82.4 70.9h52.7v.1H82.4zM82.4 70.8h52.7v.1H82.4zM82.4 70.7h52.7v.1H82.4zM82.4 70.6h52.7v.1H82.4zM82.4 70.5h52.7v.1H82.4zM82.4 70.4h52.7v.1H82.4zM82.4 70.3h52.7v.1H82.4zM82.4 70.2h52.7v.1H82.4zM82.4 70.1h52.7v.1H82.4zM82.4 70h52.7v.1H82.4zM82.4 69.9h52.7v.1H82.4zM82.4 69.8h52.7v.1H82.4zM82.4 69.7h52.7v.1H82.4zM82.4 69.6h52.7v.1H82.4zM82.4 69.5h52.7v.1H82.4zM82.4 69.4h52.7v.1H82.4zM82.4 69.3h52.7v.1H82.4zM82.4 69.2h52.7v.1H82.4zM82.4 69.1h52.7v.1H82.4zM82.4 67h52.7v.1H82.4zM82.4 66.9h52.7v.1H82.4z"/><path class="st4" d="M82.4 66.9h52.7v.1H82.4zM82.4 66.8h52.7v.1H82.4zM82.4 66.7h52.7v.1H82.4zM82.4 66.6h52.7v.1H82.4zM82.4 66.5h52.7v.1H82.4zM82.4 66.4h52.7v.1H82.4zM82.4 66.3h52.7v.1H82.4zM82.4 66.2h52.7v.1H82.4zM82.4 66.1h52.7v.1H82.4zM82.4 66h52.7v.1H82.4zM82.4 65.9h52.7v.1H82.4zM82.4 65.8h52.7v.1H82.4zM82.4 65.7h52.7v.1H82.4zM82.4 65.6h52.7v.1H82.4zM82.4 65.5h52.7v.1H82.4zM82.4 65.4h52.7v.1H82.4zM82.4 65.3h52.7v.1H82.4zM82.4 65.2h52.7v.1H82.4zM82.4 65.1h52.7v.1H82.4zM82.4 65h52.7v.1H82.4zM82.4 64.9h52.7v.1H82.4zM82.4 64.8h52.7v.1H82.4zM82.4 64.7h52.7v.1H82.4zM82.4 49.3h52.7v15.4H82.4z"/></g><g><path class="st1" d="m55.2 93.1-.6 2.7H53l.6-2.7H48.3l-1.6 3.5v.1l-.2-3.6h-2.6l-1.7 3.5-.2-3.5h-2.7l.2 8h3.2l1.4-2.9.1 2.9h3.2l3.3-7.1-1.5 7.1h2.7l.6-2.8h1.7l-.6 2.8h2.7l1.7-8h-2.8zm-8.2 7.5h-2.3l-.1-2.8v-2h-.1l-.2.5c-.3.7-.3.8-.6 1.4l-1.4 2.8H40l-.2-6.9h1.6l.1 3.2V99.1h.1c.4-1 .8-1.8 1.1-2.3l1.5-3.2h1.7l.1 3.2c0 .9 0 1 .1 2.3h.1l.2-.6c.4-1 .5-1.2.7-1.8l1.4-3.2h1.6l-3.1 7.1zm8.8 0h-1.6l.6-2.8H52l-.6 2.8h-1.6l1.5-6.9h1.6l-.6 2.7h2.8l.6-2.7h1.6l-1.5 6.9zM58.4 93.1l-1.7 8h2.7l1.7-8h-2.7zm.6 7.5h-1.6l1.5-6.9h1.6l-1.5 6.9zM73.1 95.5l.5-2.4H61.1l-.5 2.5h1.9l-1.2 5.5H64l1.2-5.5h1.9l-1.2 5.5h6l.5-2.4h-3.3l.1-.5h3.1l.5-2.2h-3.1l.1-.4h3.3zm-6.3-.5h-1.9l-1.2 5.5h-1.6l1.2-5.5h-1.9l.3-1.4h5.4l-.3 1.4zm5.4 1.5-.2 1.1h-3.1l-.4 1.6h3.3l-.3 1.3h-4.9l1.5-6.9H73l-.3 1.4h-3.3l-.3 1.5h3.1zM84.5 94.9c0-.7-.3-1.2-.9-1.5-.4-.2-.9-.3-1.7-.3H78l-1.7 8H79l.4-2.1h1.4v.3l-.4 1.7h2.7l.4-1.8c.1-.2.1-.4.1-.6 0-.2 0-.6-.3-.9.1-.1.3-.2.4-.4.4-.4.8-1.6.8-2.4zm-1.2 2.2c-.2.3-.5.5-1.2.6v.1c.7 0 1 .3 1 .9 0 .1 0 .2-.1.5l-.3 1.4h-1.6l.2-1.1c0-.2.1-.3.1-.4 0-.4-.2-.6-.7-.6H79l-.4 2.1H77l1.5-6.9h3.4c.7 0 1.1.1 1.4.2.4.2.6.6.6 1 0 .7-.3 1.8-.6 2.2z"/><path class="st1" d="M81.4 95h-1.6l-.5 2.1H81c.5 0 .8-.1 1-.5.1-.2.2-.9.2-1.1 0-.4-.2-.5-.8-.5zm0 1.4c-.1.1-.1.2-.5.2h-1l.2-1h1.4c.1.2 0 .6-.1.8zM100.9 95.5l.5-2.4h-8.5l-2 3.7c-.1.1-.1.2-.2.3v-.3l-.4-3.8H85.1l-1.7 8h2.7l1.5-7.1.6 7.1h3.3l3.5-6.8-1.4 6.8h6l.5-2.4H97l.1-.5h3.1l.5-2.2h-3.1l.1-.4h3.2zm-15.1 5.1h-1.6l1.5-6.9h1.6l-1.5 6.9zm5.5 0h-2.4l-.6-6.9h1.6l.3 3.3c.1.7.1 1 .2 2.3.7-1.4.7-1.5 1.1-2.3l1.7-3.3h1.7l-3.6 6.9zm8.6-4.1-.2 1.1h-3.1l-.4 1.6h3.3l-.3 1.3h-4.9l1.5-6.9h4.8l-.3 1.3H97l-.3 1.5h3.2zM104.9 95h-1.6l-.5 2.1h1.7c.5 0 .8-.1 1-.5.1-.2.2-.9.2-1.1 0-.4-.2-.5-.8-.5zm0 1.4c-.1.1-.1.2-.5.2h-1l.2-1h1.4c.1.2 0 .6-.1.8z"/><path class="st1" d="M108 94.9c0-.7-.3-1.2-.9-1.5-.4-.2-.9-.3-1.7-.3h-3.9l-1.7 8h2.7l.5-2.1h1.4v.3l-.4 1.7h2.7l.4-1.8c.1-.2.1-.4.1-.6 0-.2 0-.6-.3-.9.1-.1.3-.2.4-.4.3-.4.7-1.6.7-2.4zm-1.2 2.2c-.2.3-.5.5-1.2.6v.1c.7 0 1 .3 1 .9 0 .1 0 .2-.1.5l-.3 1.4h-1.6l.2-1.1c0-.2.1-.3.1-.4 0-.4-.2-.6-.7-.6h-1.6l-.4 2.1h-1.6l1.5-6.9h3.4c.7 0 1.1.1 1.4.2.4.2.6.6.6 1-.1.7-.4 1.8-.7 2.2zM127.1 93.1h-1.5v-.2l-.1.2h-1.6l-3.2 6.1 1.3-6.1h-3.6l-1.6 2.9c-.1.2-.2.3-.3.5v-.4l-.5-3h-3.4l-1.7 8h2.7l.5-2.6.4 2.6h2.2l1.4-2.4-.5 2.4h5l.6-1.3h1.9l.1 1.3h2.8l-.9-8zm-7.3 7.5h-1.6l.6-2.9c.1-.5.2-.8.5-2l.2-.7h-.1l-.3.6c-.6 1.1-.7 1.4-1 1.9l-1.7 3H115l-.5-3c-.1-.5-.1-.8-.2-1.9l-.1-.6h-.1l-.1.7c-.2 1.2-.2 1.5-.3 2l-.6 2.9h-1.6l1.5-6.9h2.5l.4 2.6c.1.4.1.6.2 1.6v.5h.1l.3-.5c.5-.9.6-1.2.8-1.6l1.5-2.6h2.6l-1.6 6.9zm5.8-1.3h-2.7l-.7 1.3h-1.7l3.7-6.9h2.4l.8 6.9h-1.6l-.2-1.3z"/><path class="st1" d="M123.5 98.1h2l-.3-3.3-1.7 3.3zm.9-.5.4-.8.1.8h-.5zM139.8 95.5l.5-2.4h-12.2l-.5 2.5h1.9l-1.2 5.5h2.7l1.2-5.5h1.6l-1.2 5.5h6l.5-2.4h-3.3l.1-.5h3.1l.5-2.2h-3.1l.1-.4h3.3zm-6.1-.5h-1.9l-1.2 5.5H129l1.2-5.5h-1.9l.3-1.4h5.4l-.3 1.4zm5.2 1.5-.2 1.1h-3.1l-.4 1.6h3.3l-.3 1.3h-4.9l1.5-6.9h4.8l-.3 1.3H136l-.3 1.5h3.2z"/><g><path class="st1" d="M143.9 95h-1.6l-.5 2.1h1.7c.5 0 .8-.1 1-.5.1-.2.2-.9.2-1.1-.1-.4-.2-.5-.8-.5zm0 1.4c-.1.1-.1.2-.5.2h-1l.2-1h1.4c0 .2-.1.7-.1.8z"/><path class="st1" d="M146.9 94.9c0-.7-.3-1.2-.9-1.5-.4-.2-.9-.3-1.7-.3h-3.9l-1.7 8h2.7l.4-2.1h1.4v.3l-.4 1.7h2.7l.4-1.8c.1-.2.1-.4.1-.6 0-.2 0-.6-.3-.9.1-.1.3-.2.4-.4.5-.4.8-1.6.8-2.4zm-1.2 2.2c-.2.3-.5.5-1.2.6v.1c.7 0 1 .3 1 .9 0 .1 0 .2-.1.5l-.3 1.4h-1.6l.2-1.1c0-.2.1-.3.1-.4 0-.4-.2-.6-.7-.6h-1.6l-.4 2.1h-1.6l1.5-6.9h3.4c.7 0 1.1.1 1.4.2.4.2.6.6.6 1 0 .7-.4 1.8-.7 2.2z"/></g><path class="st1" d="M151.7 98.1h2l-.3-3.3-1.7 3.3zm.9-.5.4-.8.1.8h-.5z"/><path class="st1" d="M168.6 93.5c-.5-.4-1.2-.5-2.3-.5-1.5 0-2.4.1-3.1.8-.5.5-.9 1.6-.9 2.6 0 .6.2 1 .6 1.3h-1l-.1.4c0 .2-.1.3-.1.4h-2.6l1.2-5.5h-2.7l-1.5 7-.8-7h-1.5v-.2l-.1.2h-1.6l-3.2 6.1 1.3-6.1h-2.7l-1.7 8h5l.7-1.3h1.9l.1 1.3h8.1l.2-.9c.1.2.2.4.4.5.6.4 1.2.5 2.6.5 1.1 0 1.7-.1 2.2-.3.8-.3 1.2-.9 1.5-1.8.1-.4.2-1.1.2-1.4 0-.7-.3-1.1-.6-1.3l-.1-.1h.9l.1-.4c.1-.5.1-.7.1-1.1 0-.4-.2-.9-.5-1.2zm-20.6 7.1h-1.6l1.5-6.9h1.6l-1.5 6.9zm5.9 0-.1-1.3h-2.7l-.7 1.3h-1.7l3.7-6.9h2.4l.8 6.9h-1.7zm7.3 0h-4.6l1.5-6.9h1.6l-1.2 5.5h3l-.3 1.4zm7.2-4.9h-1.5c.1-.2.1-.3.1-.5 0-.4-.2-.5-1-.5s-1.1.1-1.3.3c-.1.2-.2.5-.2.8 0 .2.1.3.3.4.1 0 .1 0 1.2.1 1.1.1 1.4.1 1.8.4.2.2.4.5.4.8 0 .3-.1.8-.2 1.3-.2.8-.6 1.2-1.2 1.5-.4.2-1 .2-2 .2-1.3 0-1.8-.1-2.2-.4-.2-.2-.4-.5-.4-.8 0-.3 0-.5.1-1.1h1.5c-.1.3-.1.4-.1.5 0 .2.1.3.2.4.2.1.3.1 1.1.1.6 0 .7 0 .9-.1.2-.1.3-.2.4-.5.1-.2.1-.4.1-.5 0-.2-.1-.3-.3-.4-.1 0-.1 0-1.2-.1-1.1-.1-1.4-.1-1.7-.3-.3-.2-.5-.5-.5-.9 0-.8.3-1.8.7-2.2.5-.5 1.1-.7 2.7-.7 1.2 0 1.6.1 2 .4.2.2.3.5.3.8.2.4.1.6 0 1zm-2-.3v.2l-.1.3h-.2c-.7 0-.9-.1-1-.1 0-.2.1-.3.1-.3.1-.1.3-.1.8-.1h.4zm-2.1 3.4c0-.1 0-.1.1-.3l.1-.3h.6c.6 0 .8.1.9.1v.2l-.1.2h-.7c-.4.1-.7.1-.9.1z"/></g><g><path class="st0" d="M47 100.6h-2.3l-.1-2.8v-2h-.1l-.2.5c-.3.7-.3.8-.6 1.4l-1.4 2.8H40l-.2-6.9h1.6l.1 3.2V99.1h.1c.4-1 .8-1.8 1.1-2.3l1.5-3.2h1.7l.1 3.2c0 .9 0 1 .1 2.3h.1l.2-.6c.4-1 .5-1.2.7-1.8l1.4-3.2h1.6l-3.1 7.1zM55.8 100.6h-1.6l.6-2.8H52l-.6 2.8h-1.6l1.5-6.9h1.6l-.6 2.7h2.8l.6-2.7h1.6l-1.5 6.9zM59 100.6h-1.6l1.5-6.9h1.6l-1.5 6.9zM63.7 100.6h-1.6l1.2-5.5h-1.9l.3-1.4h5.4l-.3 1.3h-1.9l-1.2 5.6zM69.1 96.5h3.1l-.2 1.1h-3.1l-.4 1.6h3.3l-.3 1.3h-4.9l1.5-6.9H73l-.3 1.4h-3.3l-.3 1.5zM78.5 93.7h3.4c.7 0 1.1.1 1.4.2.4.2.6.6.6 1 0 .7-.3 1.8-.6 2.2-.2.3-.5.5-1.2.6v.1c.7 0 1 .3 1 .9 0 .1 0 .2-.1.5l-.3 1.4h-1.6l.2-1.1c0-.2.1-.3.1-.4 0-.4-.2-.6-.7-.6H79l-.4 2.1H77l1.5-6.9zm2.5 3.4c.5 0 .8-.1 1-.5.1-.2.2-.9.2-1.1 0-.4-.2-.5-.8-.5h-1.6l-.5 2.1H81zM85.8 100.6h-1.6l1.5-6.9h1.6l-1.5 6.9zM94.9 93.7l-3.6 6.9h-2.4l-.6-6.9h1.6l.3 3.3c.1.7.1 1 .2 2.3.7-1.4.7-1.5 1.1-2.3l1.7-3.3h1.7zM96.9 96.5h3.1l-.2 1.1h-3.1l-.4 1.6h3.3l-.3 1.3h-4.9l1.5-6.9h4.8l-.3 1.3h-3.3l-.2 1.6zM102 93.7h3.4c.7 0 1.1.1 1.4.2.4.2.6.6.6 1 0 .7-.3 1.8-.6 2.2-.2.3-.5.5-1.2.6v.1c.7 0 1 .3 1 .9 0 .1 0 .2-.1.5l-.3 1.4h-1.6l.2-1.1c0-.2.1-.3.1-.4 0-.4-.2-.6-.7-.6h-1.6l-.4 2.1h-1.6l1.4-6.9zm2.5 3.4c.5 0 .8-.1 1-.5.1-.2.2-.9.2-1.1 0-.4-.2-.5-.8-.5h-1.6l-.5 2.1h1.7zM119.8 100.6h-1.6l.6-2.9c.1-.5.2-.8.5-2l.2-.7h-.1l-.3.6c-.6 1.1-.7 1.4-1 1.9l-1.7 3H115l-.5-3c-.1-.5-.1-.8-.2-1.9l-.1-.6h-.1l-.1.7c-.2 1.2-.2 1.5-.3 2l-.6 2.9h-1.6l1.5-6.9h2.5l.4 2.6c.1.4.1.6.2 1.6v.5h.1l.3-.5c.5-.9.6-1.2.8-1.6l1.5-2.6h2.6l-1.6 6.9zM122.9 99.3l-.7 1.3h-1.7l3.7-6.9h2.4l.8 6.9h-1.6l-.1-1.3h-2.8zm2.3-4.4-1.7 3.3h2l-.3-3.3zM130.6 100.6H129l1.2-5.5h-1.9l.3-1.4h5.4l-.3 1.4h-1.9l-1.2 5.5zM135.8 96.5h3.1l-.2 1.1h-3.1l-.4 1.6h3.3l-.3 1.3h-4.9l1.5-6.9h4.8l-.3 1.3H136l-.2 1.6zM140.9 93.7h3.4c.7 0 1.1.1 1.4.2.4.2.6.6.6 1 0 .7-.3 1.8-.6 2.2-.2.3-.5.5-1.2.6v.1c.7 0 1 .3 1 .9 0 .1 0 .2-.1.5l-.3 1.4h-1.6l.2-1.1c0-.2.1-.3.1-.4 0-.4-.2-.6-.7-.6h-1.6l-.4 2.1h-1.6l1.4-6.9zm2.5 3.4c.5 0 .8-.1 1-.5.1-.2.2-.9.2-1.1 0-.4-.2-.5-.8-.5h-1.6l-.5 2.1h1.7zM148 100.6h-1.6l1.5-6.9h1.6l-1.5 6.9zM151.1 99.3l-.7 1.3h-1.7l3.7-6.9h2.4l.8 6.9H154l-.1-1.3h-2.8zm2.3-4.4-1.7 3.3h2l-.3-3.3zM158.4 99.2h3l-.3 1.4h-4.6l1.5-6.9h1.6l-1.2 5.5zM166.9 95.7c.1-.2.1-.3.1-.5 0-.4-.2-.5-1-.5s-1.1.1-1.3.3c-.1.2-.2.5-.2.8 0 .2.1.3.3.4.1 0 .1 0 1.2.1 1.1.1 1.4.1 1.8.4.2.2.4.5.4.8 0 .3-.1.8-.2 1.3-.2.8-.6 1.2-1.2 1.5-.4.2-1 .2-2 .2-1.3 0-1.8-.1-2.2-.4-.2-.2-.4-.5-.4-.8 0-.3 0-.5.1-1.1h1.5c-.1.3-.1.4-.1.5 0 .2.1.3.2.4.2.1.3.1 1.1.1.6 0 .7 0 .9-.1.2-.1.3-.2.4-.5.1-.2.1-.4.1-.5 0-.2-.1-.3-.3-.4-.1 0-.1 0-1.2-.1-1.1-.1-1.4-.1-1.7-.3-.3-.2-.5-.5-.5-.9 0-.8.3-1.8.7-2.2.5-.5 1.1-.7 2.7-.7 1.2 0 1.6.1 2 .4.2.2.3.5.3.8 0 .3 0 .5-.1.9h-1.4z"/></g></svg>