<svg version="1.1" id="Layer_1" xmlns="http://www.w3.org/2000/svg" xmlns:xlink="http://www.w3.org/1999/xlink" x="0" y="0" width="595.3" height="408.9" style="enable-background:new 0 0 595.3 408.9" xml:space="preserve"><style>.st0,.st1{clip-path:url(#SVGID_2_);fill:#ab0033}.st1{fill:#502c1e}</style><defs><path id="SVGID_1_" d="M0 0h595.3v408.9H0z"/></defs><clipPath id="SVGID_2_"><use xlink:href="#SVGID_1_" style="overflow:visible"/></clipPath><path class="st0" d="m97.4 205.5.6.3c0 .4.1.7.3 1.1.3.5.9 1 1.8 1.5s1.9 1 3 1.4c1.1.4 2.3.7 3.6 1 1.2.2 2.4.4 3.4.4.7 0 1.7-.1 2.8-.2 1.2-.1 2.3-.3 3.4-.7 1.1-.4 2.1-.8 2.9-1.5.8-.6 1.2-1.4 1.2-2.4s-.4-1.8-1.1-2.2c-.8-.5-1.7-.8-3-1.1-1.2-.2-2.6-.4-4.2-.4l-4.8-.3c-1.6-.1-3.2-.4-4.8-.7-1.6-.3-3-.8-4.2-1.6-1.2-.7-2.2-1.7-3-3-.8-1.3-1.1-2.9-1.1-4.9 0-1.4.3-2.7.9-4 .6-1.3 1.6-2.5 2.9-3.5 1.3-1 2.9-1.8 4.9-2.5 2-.6 4.3-1 7-1 2.3 0 4.3.2 5.9.5 1.7.4 3.1.7 4.4 1.1 1.2.4 2.3.8 3.1 1.1.8.4 1.5.5 2.1.5.6 0 1-.1 1.3-.4l.8.5-4.5 8.2-.6-.3c-.1-.6-.3-1.1-.5-1.5-.3-.5-.9-1-1.7-1.5-.8-.5-1.7-1-2.8-1.4-1.1-.4-2.2-.7-3.5-1-1.3-.2-2.5-.4-3.7-.4-.9 0-1.9.1-2.9.2-1 .2-1.9.4-2.7.7-.8.3-1.5.7-2 1.2s-.8 1.1-.8 1.9c0 1.1.4 1.8 1.1 2.4.8.5 1.7.9 3 1.2 1.2.3 2.6.4 4.2.5l4.8.3c1.6.1 3.2.4 4.8.7 1.6.3 3 .9 4.2 1.6 1.2.7 2.2 1.7 3 2.9.8 1.2 1.1 2.8 1.1 4.8 0 2.3-.6 4.2-1.8 5.6-1.2 1.5-2.7 2.6-4.4 3.4-1.8.8-3.7 1.4-5.7 1.7-2 .3-4 .4-5.7.4-2.5 0-4.5-.1-6.2-.4-1.7-.3-3-.6-4.1-1.1-1.1-.4-2-.8-2.6-1.1-.6-.3-1.2-.5-1.7-.5-.3 0-.6.2-.8.5l-.9-.5 3.3-7.5zM157.2 215.2v1.2h-10v-1.2c.3 0 .6-.1.8-.3.2-.2.4-.5.4-.9v-26.2h-10.7c-.4 0-.8.1-1.1.3-.4.2-.5.6-.5 1.3h-1.2v-9.2h1.2c0 .6.2 1 .5 1.3.4.2.7.3 1.1.3h28.7c.4 0 .8-.1 1.1-.3.4-.2.5-.6.5-1.3h1.2v9.2H168c0-.6-.2-1-.5-1.3-.4-.2-.7-.3-1.1-.3h-10.7V214c.1.8.5 1.2 1.5 1.2M202.9 182.4c2.5.7 4.7 1.8 6.7 3.3 2 1.5 3.7 3.3 5 5.5 1.3 2.2 1.9 4.8 1.9 7.9 0 3-.6 5.7-1.9 7.9-1.3 2.2-3 4.1-5 5.5-2 1.5-4.3 2.5-6.7 3.2-2.5.7-4.9 1-7.2 1-2.4 0-4.8-.3-7.2-1-2.5-.7-4.7-1.7-6.7-3.2-2-1.5-3.7-3.3-5-5.5-1.3-2.2-1.9-4.8-1.9-7.9 0-3 .6-5.7 1.9-7.9 1.3-2.2 3-4.1 5-5.5 2-1.5 4.3-2.5 6.7-3.3 2.5-.7 4.9-1.1 7.2-1.1 2.4 0 4.8.3 7.2 1.1m-12.1 5.7c-1.6.5-3.1 1.3-4.4 2.3-1.3 1-2.4 2.2-3.2 3.7-.8 1.4-1.2 3.1-1.2 4.9 0 1.8.4 3.5 1.2 4.9.8 1.5 1.9 2.7 3.2 3.7 1.3 1 2.8 1.7 4.4 2.3 1.6.5 3.3.8 4.9.8 1.6 0 3.3-.3 4.9-.8 1.6-.5 3.1-1.3 4.4-2.3 1.3-1 2.4-2.2 3.2-3.7.8-1.4 1.2-3.1 1.2-4.9 0-1.8-.4-3.5-1.2-4.9-.8-1.5-1.9-2.7-3.2-3.7-1.3-1-2.8-1.7-4.4-2.3-1.6-.5-3.3-.8-4.9-.8-1.6 0-3.3.3-4.9.8M226.7 215.2c.8 0 1.2-.4 1.2-1.2v-30c0-.8-.4-1.2-1.2-1.2v-1.2h11v1.2c-.3 0-.5.2-.5.7 0 .4.4 1 1.3 1.8l18.5 19.6v-21c0-.8-.6-1.2-1.7-1.2v-1.2h9.8v1.2c-.8 0-1.2.4-1.2 1.2V214c0 .8.4 1.2 1.2 1.2v1.2h-10.5v-1.2c.6 0 .8-.2.8-.6 0-.3-.3-.8-1-1.5l-19.7-21V214c0 .8.5 1.2 1.5 1.2v1.2h-9.6v-1.2zM309.9 188.8c0-.5-.2-.8-.5-1.1-.4-.2-1-.4-1.9-.4h-20.9v8.2h12.7c.9 0 1.5-.1 2-.4.5-.2.7-.9.7-1.9h1.2v10.3H302c0-1-.2-1.7-.7-1.9-.5-.3-1.1-.4-2-.4h-12.7v9.1h21.6c.6 0 1.2-.2 1.6-.5.4-.3.6-.7.6-1.3h1.2v9h-1.2c0-.7-.2-1-.6-1.1-.4-.1-.9-.1-1.6-.1H278v-1.2c.3 0 .6-.1.8-.3.2-.2.4-.5.4-.9V184c0-.4-.1-.7-.4-.9-.2-.2-.5-.3-.8-.3v-1.2h29.5c.9 0 1.5-.1 1.9-.4.4-.3.5-.7.5-1.2h1.2v8.7h-1.2zM326.2 182.8c-.6 0-1 .4-1 1.3 0 .2 0 .5.1.8.1.3.2.8.5 1.5l6.9 18.3h.1l6.8-18.6c.2-.6.4-1 .4-1.3.1-.3.1-.5.1-.8 0-.8-.3-1.3-.8-1.3v-1.2h11v1.2c-.3 0-.5.1-.6.3-.1.2-.2.5-.2.7 0 .4.2 1.2.6 2.2l6.9 18.6h.1l7-19c.3-.7.5-1.3.5-1.8 0-.3-.1-.5-.3-.8-.2-.2-.5-.4-.8-.4v-1.2h9.6v1.2c-.5 0-.8.3-1.1.8-.2.5-.5 1.2-.8 2l-9.3 25.2c-.3.7-.5 1.3-.7 1.8-.2.5-.3 1-.3 1.3 0 .3.1.6.3.8.2.2.5.4.9.4v1.2h-10.2v-1.2c.3-.1.5-.2.8-.4.3-.2.4-.4.4-.7 0-.4-.1-.7-.2-1.2-.2-.4-.4-1.1-.7-1.8l-7.4-19.5h-.1l-7 19.1c-.6 1.7-1 2.8-1 3.2 0 .7.3 1.1.8 1.3v1.2h-10v-1.2c.3 0 .5-.1.8-.2.3-.1.4-.4.4-.7 0-.4-.1-.7-.2-1.1-.2-.4-.3-.8-.5-1.3l-10.3-27.2c-.2-.5-.4-.9-.5-1.2-.2-.3-.5-.5-.9-.6v-1.2h10v1.5zM376.9 215.2c.6-.1 1-.4 1.3-.9.3-.5.6-1 .9-1.6l12-25.6c.3-.6.6-1.1.8-1.6.2-.5.4-.9.4-1.3s-.2-.7-.5-.9c-.3-.2-.6-.3-1-.4v-1.2h10.9v1.2c-.3.1-.6.2-.9.4-.3.2-.5.5-.5 1 0 .4.1.7.2 1.1l.7 1.4 13.4 26.8c.2.5.5.8.9 1.1.4.2.8.4 1.3.7v1.2h-11.4v-1.2c.2 0 .4-.1.6-.2.3-.1.4-.3.4-.6 0-.4-.2-1-.5-1.7l-2.5-4.9h-15.8l-2.3 4.7c-.4.9-.6 1.6-.6 2 0 .5.4.7 1.2.7v1.2h-9.2v-1.4zm24.3-12.3-5.4-12.3-6.1 12.3h11.5zM456.4 216.5c-.4-.1-.9-.1-1.6-.1H424v-1.2c1.3 0 1.9-.4 1.9-1.2v-30c0-.8-.6-1.2-1.9-1.2v-1.2h11.1v1.2c-1.2 0-1.8.4-1.8 1.2v26.2h21.5c.6 0 1.2-.2 1.6-.5.4-.3.6-.7.6-1.3h1.2v9H457c0-.5-.2-.8-.6-.9M498.4 216.5c-.4-.1-.9-.1-1.6-.1H466v-1.2c1.3 0 1.9-.4 1.9-1.2v-30c0-.8-.6-1.2-1.9-1.2v-1.2h11.1v1.2c-1.2 0-1.8.4-1.8 1.2v26.2h21.5c.6 0 1.2-.2 1.6-.5.4-.3.6-.7.6-1.3h1.2v9H499c.1-.5-.1-.8-.6-.9M162.4 267.2c0 .4.1.7.4.9.3.2.6.3.9.3v1.2h-10.1v-1.2c.9 0 1.4-.4 1.4-1.2v-29.9c0-.8-.5-1.2-1.4-1.2v-1.2h10.1v1.2c-.3 0-.6.1-.9.3-.3.2-.4.5-.4.9v12.5l13.4-10.7c.6-.5 1.1-1 1.4-1.3.3-.3.5-.6.5-.8 0-.3-.1-.5-.3-.7-.2-.1-.4-.2-.7-.2v-1.2h13.6v1.2c-.8 0-1.6.3-2.3 1l-14.9 12.1 13.6 16c.6.7 1.2 1.3 2 1.9.8.6 1.5 1.1 2.2 1.3v1.2h-12v-1.2c.6 0 .8-.2.8-.5 0-.2-.3-.7-.9-1.5l-11-13-5.4 4.3v9.5zM198.6 268.4c1.1 0 1.7-.4 1.7-1.2v-29.9c0-.8-.6-1.2-1.7-1.2v-1.2h10.7v1.2c-1.1 0-1.7.4-1.7 1.2v29.9c0 .8.6 1.2 1.7 1.2v1.2h-10.7v-1.2zM240.9 268.4v1.2h-10v-1.2c.3 0 .6-.1.8-.3.2-.2.4-.5.4-.9V241h-10.7c-.4 0-.8.1-1.1.3-.4.2-.5.6-.5 1.3h-1.2v-9.2h1.2c0 .6.2 1 .5 1.3.4.2.7.3 1.1.3h28.7c.4 0 .8-.1 1.1-.3.4-.2.5-.6.5-1.3h1.2v9.2h-1.2c0-.6-.2-1-.5-1.3-.4-.2-.7-.3-1.1-.3h-10.7v26.2c0 .8.5 1.2 1.5 1.2M297 264.8h-.8c-.3 0-.9.3-1.8.8-1 .5-2.2 1.1-3.7 1.8s-3.2 1.2-5.1 1.7c-1.9.5-3.9.7-5.9.7-2.7 0-5.3-.4-7.8-1.1-2.5-.7-4.7-1.8-6.6-3.3-1.9-1.5-3.4-3.3-4.6-5.5-1.1-2.2-1.7-4.8-1.7-7.7 0-2.9.6-5.5 1.7-7.7s2.6-4.1 4.6-5.6c1.9-1.5 4.1-2.6 6.6-3.4 2.5-.7 5.1-1.1 7.8-1.1 2.2 0 4.2.2 6 .5 1.8.4 3.3.7 4.7 1.1 1.3.4 2.4.8 3.2 1.1.8.4 1.2.5 1.4.5.2 0 .4-.1.5-.3.1-.2.3-.4.4-.5l1 .8-5 8-.6-.5v-.4c0-.1-.1-.3-.1-.5-.1-.5-.5-1-1.3-1.5s-1.7-1-2.9-1.4c-1.1-.4-2.3-.7-3.6-1-1.3-.3-2.4-.4-3.5-.4-1.8 0-3.5.3-5.2.8-1.7.5-3.1 1.3-4.3 2.3-1.2 1-2.2 2.3-2.9 3.7-.7 1.5-1.1 3.2-1.1 5 0 1.9.4 3.6 1.1 5 .7 1.5 1.7 2.7 2.9 3.7s2.7 1.8 4.3 2.3c1.7.5 3.4.8 5.2.8 1.4 0 2.8-.2 4.3-.5s2.9-.7 4.1-1.3c1.2-.5 2.3-1.1 3.1-1.7.8-.6 1.3-1.2 1.3-1.8 0-.3-.1-.6-.3-.8l.9-.5 4.3 7-.6.9zM335.1 237.3c0-.8-.5-1.2-1.4-1.2v-1.2h10v1.2c-.3 0-.6.1-.8.3-.2.2-.4.5-.4.9v29.9c0 .4.1.7.4.9.2.2.5.3.8.3v1.2h-10v-1.2c.9 0 1.4-.4 1.4-1.2v-12.4h-20.8v12.4c0 .4.1.7.4.9.2.2.5.3.8.3v1.2h-9.8v-1.2c.8 0 1.2-.4 1.2-1.2v-29.9c0-.8-.4-1.2-1.2-1.2v-1.2h9.8v1.2c-.3 0-.6.1-.8.3-.2.2-.4.5-.4.9v11.2h20.8v-11.2zM388.6 242c0-.5-.2-.8-.5-1.1-.4-.2-1-.4-1.9-.4h-20.9v8.2H378c.9 0 1.5-.1 2-.4.5-.2.7-.9.7-1.9h1.2v10.3h-1.2c0-1-.2-1.7-.7-1.9-.5-.3-1.1-.4-2-.4h-12.7v9.1h21.6c.6 0 1.2-.2 1.6-.5.4-.3.6-.7.6-1.3h1.2v9H389c0-.7-.2-1-.6-1.1-.4-.1-.9-.1-1.6-.1h-30.1v-1.2c.3 0 .6-.1.8-.3.2-.2.4-.5.4-.9v-29.9c0-.4-.1-.7-.4-.9-.2-.2-.5-.3-.8-.3v-1.2h29.5c.9 0 1.5-.1 1.9-.4.4-.3.5-.7.5-1.2h1.2v8.7h-1.2zM401.4 268.4c.8 0 1.2-.4 1.2-1.2v-29.9c0-.8-.4-1.2-1.2-1.2v-1.2h11v1.2c-.3 0-.5.2-.5.7 0 .4.4 1 1.3 1.8l18.5 19.6v-21c0-.8-.6-1.2-1.7-1.2v-1.2h9.8v1.2c-.8 0-1.2.4-1.2 1.2v29.9c0 .8.4 1.2 1.2 1.2v1.2h-10.5v-1.2c.6 0 .8-.2.8-.6 0-.3-.3-.8-1-1.5l-19.7-21v21.9c0 .8.5 1.2 1.5 1.2v1.2h-9.6v-1.1z"/><path class="st1" d="M275.2 88.7c-3.8 1.9-6.3 5.8-6.3 5.8s33.6.9 51.6 20.1c15.5 17 14 28.9 14 28.9s-8.4-23.8-38.1-23.8c-29.8 0-53.1 28.3-52.5 51.8 10.1-10 20.1-16.8 23.2-21.6s4.5-10.9 6.5-15.1 10.1-11 22.9-11c12.7 0 33.1 6.5 33.1 25.5 0 17.3-13 16.9-15.1 13.8 5.6.3 9-5.3 9-9.4s-2.9-10.1-11-10.1S301 150.7 301 156s3.3 13.9 14.5 13.9 23.3-10 23.3-28.8-18.6-45.6-63.6-52.4"/><path class="st1" d="M285.7 117.4c10.4-1.6 19.6 0 19.6 0s-5.5-9.1-16-14.1-27.9-2.5-27.9-2.5c2.9 4.9 13.9 18.2 24.3 16.6M289.8 130c-8.8 4.4-13.8 16.9-13.8 16.9s14.9 1.1 21.5-5.4 11-10.3 18.1-10.3c-5.4-4.8-17-5.5-25.8-1.2M99.9 289c-2.1-2.3-5.1-3.7-8.1-3.7-5.9 0-10.8 5.3-10.8 11.4 0 6.1 4.8 11.4 10.8 11.4 3 0 5.9-1.5 8.1-3.7v3.8c-2.3 1.7-5.1 2.7-8 2.7-7.5 0-13.9-6.3-13.9-14.2 0-7.9 6.3-14.4 13.9-14.4 3 0 5.6.9 8 2.7v4zM108.3 295.2c1.1-1.4 1.9-2.3 3.8-2.3 1 0 1.7.3 2.5.8l-1.3 2.7c-.6-.4-1-.8-1.7-.8-3.1 0-3.3 4.1-3.3 6.4v8.6h-2.8v-17.2h2.8v1.8zM119.6 302.6c0 3.2 2.2 5.7 5.5 5.7 2.4 0 4-1.5 5.1-3.6l2.4 1.4c-1.6 3.1-4.3 4.8-7.7 4.8-5 0-8.1-3.9-8.1-8.9 0-5.1 2.9-9.3 8.1-9.3 5.3 0 8.2 4.6 7.9 9.7h-13.2zm10.1-2.5c-.4-2.5-2.4-4.5-4.9-4.5-2.4 0-4.7 2-5.1 4.5h10zM152.5 310.6h-2.8v-2.4h-.1c-1.5 1.9-3.4 2.9-5.7 2.9-4.9 0-8-4.3-8-9 0-4.9 3-9.1 8-9.1 2.3 0 4.3 1.1 5.7 2.9h.1v-2.5h2.8v17.2zm-13.7-8.8c0 3.4 1.9 6.6 5.5 6.6s5.6-3 5.6-6.5c0-3.4-2.1-6.2-5.6-6.2-3.4-.1-5.5 2.9-5.5 6.1M161.4 310.6h-2.8v-14.5h-1.8v-2.7h1.8v-6.2h2.8v6.2h3v2.7h-3zM166.1 302c0-5.1 3.9-9.1 8.7-9.1 4.9 0 8.7 4.1 8.7 9.1 0 5.1-3.9 9-8.7 9s-8.7-4-8.7-9m2.9 0c0 3.5 2.4 6.4 5.9 6.4 3.5 0 5.9-2.9 5.9-6.4 0-3.5-2.4-6.4-5.9-6.4-3.5 0-5.9 2.9-5.9 6.4M190.9 295.2c1.1-1.4 1.9-2.3 3.8-2.3 1 0 1.7.3 2.5.8l-1.3 2.7c-.6-.4-1-.8-1.7-.8-3.1 0-3.3 4.1-3.3 6.4v8.6h-2.8v-17.2h2.8v1.8zM207.5 297.3c-.4-.9-1.2-1.8-2.3-1.8-1 0-2.1.8-2.1 1.9 0 1.6 1.9 2.2 3.9 3 1.9.8 3.9 2 3.9 4.9 0 3.3-2.5 5.6-5.6 5.6-2.8 0-5-1.6-5.9-4.4l2.5-1.1c.7 1.6 1.5 2.7 3.4 2.7 1.5 0 2.7-1.1 2.7-2.6 0-3.8-7.5-2.5-7.5-7.9 0-2.9 2.3-4.9 5-4.9 1.9 0 3.7 1.4 4.4 3.2l-2.4 1.4zM225.8 302c0-5.1 3.9-9.1 8.7-9.1 4.9 0 8.7 4.1 8.7 9.1 0 5.1-3.9 9-8.7 9s-8.7-4-8.7-9m2.8 0c0 3.5 2.4 6.4 5.9 6.4s5.9-2.9 5.9-6.4c0-3.5-2.4-6.4-5.9-6.4s-5.9 2.9-5.9 6.4M250.9 310.6h-2.8v-14.5h-1.6v-2.7h1.6v-6.8c0-1.4 0-3.2.7-4.5.9-1.5 2.6-2.2 4.3-2.2.7 0 1.3.1 2 .4v3c-.6-.2-1.2-.4-1.9-.4-2.3 0-2.3 1.7-2.3 4.7v5.8h4.2v2.7h-4.2v14.5zM282 288.3c-1.1-1.9-2.3-3-4.6-3-2.4 0-4.4 1.8-4.4 4.3 0 2.4 2.4 3.5 4.2 4.3l1.8.8c3.5 1.6 6.4 3.4 6.4 7.8 0 4.8-3.8 8.5-8.4 8.5-4.3 0-7.5-2.9-8.3-7.1l2.9-.8c.4 2.8 2.5 5.1 5.3 5.1 2.9 0 5.5-2.3 5.5-5.4 0-3.2-2.4-4.3-4.9-5.5l-1.6-.7c-3.1-1.5-5.8-3.1-5.8-7.1 0-4.3 3.5-7 7.5-7 3 0 5.5 1.6 6.9 4.3l-2.5 1.5zM293.1 295.8c1.5-1.9 3.5-2.9 5.8-2.9 4.9 0 8 4.4 8 9.1 0 4.9-3 9-8 9-2.3 0-4.4-1-5.7-2.9h-.1v12.1h-2.8v-26.9h2.8v2.5zm-.2 6c0 3.4 1.9 6.6 5.5 6.6s5.6-3 5.6-6.5c0-3.4-2.1-6.2-5.6-6.2-3.4-.1-5.5 2.9-5.5 6.1M312.9 302.6c0 3.2 2.2 5.7 5.5 5.7 2.4 0 4-1.5 5.1-3.6l2.4 1.4c-1.6 3.1-4.3 4.8-7.7 4.8-5 0-8.1-3.9-8.1-8.9 0-5.1 2.9-9.3 8.1-9.3 5.3 0 8.2 4.6 7.9 9.7h-13.2zm10.1-2.5c-.4-2.5-2.4-4.5-4.9-4.5-2.4 0-4.7 2-5.1 4.5h10zM342.9 298.5c-1.4-1.7-3-2.9-5.2-2.9-3.4 0-5.9 2.9-5.9 6.4 0 3.4 2.3 6.4 5.7 6.4 2.4 0 4-1.1 5.4-3h.1v3.9c-1.6 1.1-3.3 1.8-5.3 1.8-5 0-8.9-3.9-8.9-9.1 0-5.1 4-9.1 8.9-9.1 1.8 0 3.6.6 5.1 1.7v3.9zM352.1 286.9c0 1.2-.9 2.1-2 2.1s-2-.9-2-2.1c0-1.1.9-2.1 2-2.1s2 .9 2 2.1m-.6 23.7h-2.8v-17.2h2.8v17.2zM373.3 310.6h-2.8v-2.4h-.1c-1.5 1.9-3.4 2.9-5.7 2.9-4.9 0-8-4.3-8-9 0-4.9 3-9.1 8-9.1 2.3 0 4.3 1.1 5.7 2.9h.1v-2.5h2.8v17.2zm-13.7-8.8c0 3.4 1.9 6.6 5.5 6.6s5.6-3 5.6-6.5c0-3.4-2.1-6.2-5.6-6.2-3.4-.1-5.5 2.9-5.5 6.1M379.2 280.4h2.8v30.2h-2.8zM391 310.6h-2.9v-14.5h-1.7v-2.7h1.7v-6.2h2.9v6.2h2.9v2.7H391zM394.4 293.4h3.3l5.9 12.3 5.4-12.3h3.2l-12.3 26.8h-3.2l5.4-11.2zM430.1 285.8v8.2h8.9v2.9h-8.9v13.7h-2.9V283h12.1v2.8zM443.3 302c0-5.1 3.9-9.1 8.7-9.1 4.9 0 8.7 4.1 8.7 9.1 0 5.1-3.9 9-8.7 9-4.8 0-8.7-4-8.7-9m2.8 0c0 3.5 2.4 6.4 5.9 6.4 3.5 0 5.9-2.9 5.9-6.4 0-3.5-2.4-6.4-5.9-6.4-3.5 0-5.9 2.9-5.9 6.4M463.9 302c0-5.1 3.9-9.1 8.7-9.1 4.9 0 8.7 4.1 8.7 9.1 0 5.1-3.9 9-8.7 9s-8.7-4-8.7-9m2.8 0c0 3.5 2.4 6.4 5.9 6.4 3.5 0 5.9-2.9 5.9-6.4 0-3.5-2.4-6.4-5.9-6.4-3.5 0-5.9 2.9-5.9 6.4M498.3 308.2c-1.5 1.9-3.5 2.9-5.8 2.9-4.9 0-8-4.3-8-9 0-4.9 3-9.1 8-9.1 2.2 0 4.4 1.1 5.7 2.9h.1v-15.4h2.8v30.2h-2.8v-2.5zm-10.8-6.4c0 3.4 1.9 6.6 5.5 6.6s5.6-3 5.6-6.5c0-3.4-2.1-6.2-5.6-6.2-3.4-.1-5.5 2.9-5.5 6.1M513.9 297.3c-.4-.9-1.2-1.8-2.3-1.8-1 0-2.1.8-2.1 1.9 0 1.6 1.9 2.2 3.9 3 1.9.8 3.9 2 3.9 4.9 0 3.3-2.5 5.6-5.6 5.6-2.8 0-5-1.6-5.9-4.4l2.5-1.1c.7 1.6 1.5 2.7 3.4 2.7 1.5 0 2.7-1.1 2.7-2.6 0-3.8-7.5-2.5-7.5-7.9 0-2.9 2.3-4.9 5-4.9 1.9 0 3.7 1.4 4.4 3.2l-2.4 1.4z"/></svg>