<svg version="1.1" id="Layer_1" xmlns="http://www.w3.org/2000/svg" x="0" y="0" width="100.8" height="100.8" style="enable-background:new 0 0 100.8 100.8" xml:space="preserve"><style>.st0{fill:#5c6670}.st1{fill:#004a97}</style><path class="st0" d="M39.1 52.4h.9l1.5 4.1 1.5-4.1h.9v4.9h-.6v-4.1l-1.5 4.1h-.6l-1.5-4.1v4.1h-.6v-4.9zM47.8 56.2c-.2.8-.7 1.2-1.5 1.2-1.1 0-1.7-.8-1.7-1.9 0-1.1.7-1.8 1.7-1.8 1.2 0 1.6 1.2 1.6 2h-2.6c0 .6.3 1.2 1.1 1.2.5 0 .8-.2.9-.7h.5zm-.6-1c0-.6-.4-1-1-1s-1 .5-1 1h2zM51.7 57.3h-.6v-.5c-.2.4-.6.6-1.1.6-1.1 0-1.6-.9-1.6-1.9 0-1 .5-1.8 1.6-1.8.4 0 .9.1 1.1.6v-1.8h.6v4.8zm-1.6-.4c.8 0 1.1-.7 1.1-1.3 0-.7-.3-1.3-1.1-1.3S49 55 49 55.7c0 .5.3 1.2 1.1 1.2zM53.2 53.1h-.6v-.7h.6v.7zm-.5.7h.6v3.5h-.6v-3.5zM56.6 54.9c-.1-.4-.4-.7-.9-.7-.8 0-1.1.7-1.1 1.4s.3 1.3 1 1.3c.6 0 .9-.3 1-.9h.6c-.1.9-.7 1.4-1.6 1.4-1.1 0-1.7-.8-1.7-1.8 0-1.1.5-1.9 1.7-1.9.8 0 1.4.4 1.5 1.2h-.5zM61 57.3c-.1.1-.2.1-.4.1-.3 0-.5-.2-.5-.5-.3.4-.8.5-1.2.5-.6 0-1.2-.3-1.2-1 0-.8.6-1 1.2-1.1.6-.1 1.2-.1 1.2-.5 0-.5-.4-.6-.8-.6-.5 0-.9.2-.9.7h-.6c0-.9.7-1.2 1.5-1.2.6 0 1.3.1 1.3 1v1.8c0 .3 0 .4.2.4h.2v.4zm-1-1.8c-.2.2-.7.2-1.1.2-.4.1-.7.2-.7.6 0 .4.3.5.7.5.8 0 1.1-.5 1.1-.8v-.5zM61.8 52.4h.6v4.9h-.6v-4.9zM68.1 53.9c-.1-.7-.7-1-1.4-1-1.2 0-1.7 1-1.7 2 0 1.1.5 2 1.7 2 .9 0 1.3-.6 1.4-1.4h.6c-.1 1.2-.9 2-2.1 2-1.5 0-2.3-1.1-2.3-2.5s.8-2.6 2.3-2.6c1 0 1.9.5 2 1.6h-.5zM72.4 56.2c-.2.8-.7 1.2-1.5 1.2-1.1 0-1.7-.8-1.7-1.9 0-1.1.7-1.8 1.7-1.8 1.2 0 1.6 1.2 1.6 2h-2.6c0 .6.3 1.2 1.1 1.2.5 0 .8-.2.9-.7h.5zm-.5-1c0-.6-.4-1-1-1s-1 .5-1 1h2zM73 53.8h.5v.6c.2-.4.6-.6 1.1-.6.9 0 1.2.5 1.2 1.3v2.3h-.6V55c0-.4-.3-.7-.7-.7-.7 0-1 .5-1 1.1v2H73v-3.6zM77.7 53.8h.7v.5h-.7v2.2c0 .3.1.3.4.3h.3v.5H78c-.6 0-.8-.1-.8-.8v-2.2h-.6v-.5h.6v-1.1h.6v1.1zM82 56.2c-.2.8-.7 1.2-1.5 1.2-1.1 0-1.7-.8-1.7-1.9 0-1.1.7-1.8 1.7-1.8 1.2 0 1.6 1.2 1.6 2h-2.6c0 .6.3 1.2 1.1 1.2.5 0 .8-.2.9-.7h.5zm-.5-1c0-.6-.4-1-1-1s-1 .5-1 1h2zM82.7 53.8h.5v.7c.3-.6.7-.8 1.3-.8v.6c-.9 0-1.3.5-1.3 1.4v1.6h-.6v-3.5z"/><g><path class="st1" d="M26.8 48.1c0 .7.5.9 1.1.9.5 0 .9-.2.9-.6 0-.5-.8-.6-1.7-.9-.8-.2-1.7-.6-1.7-1.7 0-1.3 1.3-1.8 2.4-1.8 1.2 0 2.3.6 2.4 2h-1.5c0-.6-.5-.7-.9-.7-.3 0-.7.1-.7.5 0 .5.8.6 1.7.8.8.2 1.7.7 1.7 1.7 0 1.5-1.3 2-2.6 2s-2.5-.6-2.6-2.2h1.5zM33.1 45.1c1.5 0 2.5 1.1 2.5 2.6s-1 2.6-2.5 2.6-2.5-1.1-2.5-2.6 1-2.6 2.5-2.6zm0 4c.7 0 1-.7 1-1.4 0-.6-.2-1.4-1-1.4-.7 0-.9.8-.9 1.4-.1.6.2 1.4.9 1.4zM40.7 50.2h-1.5v-.7c-.3.5-.9.8-1.5.8-1.4 0-1.8-.8-1.8-2.1v-3h1.6v2.9c0 .7.3.9.8.9.3 0 .9-.2.9-1.1v-2.6h1.6v4.9zM44.3 46.3h-1v2.2c0 .4.2.5.6.5h.4v1.2h-.9c-1.3 0-1.7-.4-1.7-1.7v-2.2H41v-1h.7v-1.5h1.6v1.5h1v1zM44.8 43.4h1.6v2.5c.2-.5.9-.8 1.5-.8 1.6 0 1.7 1.2 1.7 1.9v3.2H48v-2.4c0-.7.1-1.4-.8-1.4-.6 0-.8.5-.8 1.1v2.7h-1.6v-6.8zM55.8 50.2h-1.6l-.8-3.3-.7 3.3h-1.6l-1.5-4.9h1.6l.8 3.2.7-3.2h1.5l.7 3.2.8-3.2h1.6l-1.5 4.9zM58.7 48.1c0 .7.4 1.1 1.1 1.1.4 0 .7-.2.9-.5h1.5c-.3 1.1-1.3 1.6-2.4 1.6-1.6 0-2.6-1-2.6-2.6 0-1.5 1.2-2.6 2.6-2.6 1.7 0 2.6 1.3 2.5 3h-3.6zm1.9-.9c0-.5-.4-1-.9-1-.6 0-.9.4-1 1h1.9zM64 48.5c0 .2.1.4.3.5.1.1.4.2.6.2.3 0 .7-.1.7-.5s-.5-.5-.8-.5c-1-.3-2.2-.3-2.2-1.6 0-1.2 1.2-1.5 2.2-1.5 1.1 0 2.1.3 2.2 1.6h-1.4c0-.2-.1-.3-.2-.4-.1-.1-.3-.1-.5-.1-.3 0-.7 0-.7.4 0 .5 1 .6 1.8.7 1 .2 1.2.9 1.2 1.3 0 1.3-1.2 1.8-2.3 1.8-1.1 0-2.3-.4-2.3-1.8H64zM70.4 46.3h-1v2.2c0 .4.2.5.6.5h.4v1.2h-.9c-1.3 0-1.7-.4-1.7-1.7v-2.2H67v-1h.8v-1.5h1.6v1.5h1v1zM72.1 48.1c0 .7.4 1.1 1.1 1.1.4 0 .7-.2.9-.5h1.5c-.3 1.1-1.3 1.6-2.4 1.6-1.6 0-2.6-1-2.6-2.6 0-1.5 1.2-2.6 2.6-2.6 1.7 0 2.6 1.3 2.5 3h-3.6zm1.9-.9c0-.5-.4-1-.9-1-.6 0-.9.4-1 1H74zM76.1 45.2h1.5v.9c.2-.6.8-1 1.4-1h.4v1.5c-.2-.1-.4-.1-.6-.1-.8 0-1.2.5-1.2 1.2v2.4H76v-4.9zM79.8 45.2h1.5v.7c.3-.5.9-.8 1.5-.8 1.6 0 1.7 1.2 1.7 1.9v3.2H83v-2.4c0-.7.1-1.4-.8-1.4-.6 0-.8.5-.8 1.1v2.7h-1.6v-5zM24.5 45.5h-1.8v4.6h-1.6v-4.6h-1.7v-1.3h5v1.3z"/><path class="st1" d="M17 50.3c1.8 0 2.6-.9 2.6-2.6v-3.4H18v3.5c0 .8-.3 1.2-1 1.2s-1-.4-1-1.2v-3.5h-1.6v3.4c0 1.7.8 2.6 2.6 2.6z"/></g><g><path class="st0" d="M84.2 56.2h.9v.2h-.3v.9h-.2v-.9h-.3v-.2zM85.3 56.2h.3l.3.9.3-.9h.3v1.1h-.2v-.8l-.3.8h-.2l-.3-.8v.8h-.2v-1.1z"/></g></svg>