<svg version="1.1" id="Layer_1" xmlns="http://www.w3.org/2000/svg" xmlns:xlink="http://www.w3.org/1999/xlink" x="0" y="0" width="294" height="186" style="enable-background:new 0 0 294 186" xml:space="preserve"><style>.st0{clip-path:url(#SVGID_2_)}.st4{fill:#ab7c3b}.st5{clip-path:url(#SVGID_10_)}.st6{clip-path:url(#SVGID_12_)}.st7{fill:#fecf8c}.st8{clip-path:url(#SVGID_14_)}</style><defs><path id="SVGID_1_" d="M0 0h294v186H0z"/></defs><clipPath id="SVGID_2_"><use xlink:href="#SVGID_1_" style="overflow:visible"/></clipPath><g class="st0"><defs><path id="SVGID_3_" d="M12 12h270v162H12z"/></defs><clipPath id="SVGID_4_"><use xlink:href="#SVGID_3_" style="overflow:visible"/></clipPath><g style="opacity:.54;clip-path:url(#SVGID_4_)"><defs><path id="SVGID_5_" d="M-338.2-27.4h614v794h-614z"/></defs><clipPath id="SVGID_6_"><use xlink:href="#SVGID_5_" style="overflow:visible"/></clipPath><g style="clip-path:url(#SVGID_6_)"><defs><path id="SVGID_7_" d="M-337.2-26.4h612v792h-612z"/></defs><clipPath id="SVGID_8_"><use xlink:href="#SVGID_7_" style="overflow:visible"/></clipPath></g></g><path d="M60.5 102.1c7.6-2.7 13.2-9.9 13.2-20.2v-4.7s-6.6-1.5-13.2-1.5-13.2 1.5-13.2 1.5v4.7c0 10.3 5.6 17.5 13.2 20.2" style="clip-path:url(#SVGID_4_);fill:#ab7c3b"/></g><g class="st0"><path class="st4" d="M86.2 57.3c-.3.1-.9.3-1.7.3-.8 0-1.5-.2-2-.7-.5-.4-.8-1.2-.8-2 0-1.6 1.1-2.8 2.9-2.8.6 0 1.1.1 1.3.2l-.2.6c-.3-.1-.6-.2-1.2-.2-1.3 0-2.2.8-2.2 2.2 0 1.4.8 2.2 2.1 2.2.5 0 .8-.1.9-.1v-1.6h-1.1v-.6H86v2.5zM89.7 57.5V57c-.2.3-.6.6-1.2.6-.8 0-1.2-.6-1.2-1.1 0-.9.8-1.4 2.3-1.4V55c0-.3-.1-.9-.9-.9-.4 0-.7.1-1 .3l-.2-.5c.3-.2.8-.3 1.3-.3 1.2 0 1.5.8 1.5 1.6v1.4c0 .3 0 .7.1.9h-.7zm-.1-2c-.8 0-1.6.1-1.6.9 0 .5.3.7.7.7.5 0 .8-.3.9-.6v-1zM91.8 54.8v-1.2h.6v.8c.2-.5.6-.8 1.1-.8h.2v.7h-.2c-.5 0-.8.4-.9.9v2.4h-.7v-2.8zM94.7 51.8h.7v5.7h-.7v-5.7zM99 57.5V57c-.2.3-.6.6-1.2.6-.8 0-1.2-.6-1.2-1.1 0-.9.8-1.4 2.3-1.4V55c0-.3-.1-.9-.9-.9-.4 0-.7.1-1 .3l-.2-.5c.3-.2.8-.3 1.3-.3 1.2 0 1.5.8 1.5 1.6v1.4c0 .3 0 .7.1.9H99zm-.1-2c-.8 0-1.6.1-1.6.9 0 .5.3.7.7.7.5 0 .8-.3.9-.6v-1zM101.1 54.7v-1h.6v.6c.2-.4.6-.7 1.3-.7.5 0 1.4.3 1.4 1.6v2.3h-.7v-2.2c0-.6-.2-1.1-.9-1.1-.5 0-.8.3-.9.7V57.5h-.7v-2.8zM109.2 51.8v5.7h-.6v-.7c-.2.4-.7.8-1.3.8-.9 0-1.7-.8-1.7-2 0-1.3.8-2.1 1.7-2.1.6 0 1 .3 1.2.6v-2.3h.7zm-.7 3.4v-.3c-.1-.4-.5-.8-1-.8-.7 0-1.2.6-1.2 1.5 0 .8.4 1.4 1.1 1.4.5 0 .9-.3 1-.8v-1zM113.4 52.1v2.3h2.6v-2.3h.7v5.4h-.7V55h-2.6v2.5h-.7v-5.4h.7zM119 52.6c0 .2-.2.4-.4.4s-.4-.2-.4-.4.2-.4.4-.4c.2-.1.4.1.4.4zm-.8 4.9v-3.9h.7v3.9h-.7zM120.4 51.8h.7v5.7h-.7v-5.7zM122.6 51.8h.7v5.7h-.7v-5.7zM125.6 52.6c0 .2-.2.4-.4.4s-.4-.2-.4-.4.2-.4.4-.4c.2-.1.4.1.4.4zm-.8 4.9v-3.9h.7v3.9h-.7zM129.1 57.5l-.1-.5c-.2.3-.6.6-1.2.6-.8 0-1.2-.6-1.2-1.1 0-.9.8-1.4 2.3-1.4V55c0-.3-.1-.9-.9-.9-.4 0-.7.1-1 .3l-.2-.5c.3-.2.8-.3 1.3-.3 1.2 0 1.5.8 1.5 1.6v1.4c0 .3 0 .7.1.9h-.6zm-.1-2c-.8 0-1.6.1-1.6.9 0 .5.3.7.7.7.5 0 .8-.3.9-.6v-1zM131.2 54.8v-1.2h.6v.8c.2-.5.6-.8 1.1-.8h.2v.7h-.2c-.5 0-.8.4-.9.9v2.4h-.7v-2.8zM137.3 51.8v5.7h-.6v-.7c-.2.4-.7.8-1.3.8-.9 0-1.7-.8-1.7-2 0-1.3.8-2.1 1.7-2.1.6 0 1 .3 1.2.6v-2.3h.7zm-.7 3.4v-.3c-.1-.4-.5-.8-1-.8-.7 0-1.2.6-1.2 1.5 0 .8.4 1.4 1.1 1.4.5 0 .9-.3 1-.8v-1z"/></g><g class="st0"><path class="st4" d="M148.7 52.2c.3-.1.8-.1 1.3-.1.7 0 1.1.1 1.5.4.3.2.4.5.4 1s-.3 1-.9 1.2c.5.1 1.1.6 1.1 1.4 0 .5-.2.8-.5 1.1-.4.3-1 .5-1.9.5-.5 0-.8 0-1.1-.1v-5.4zm.7 2.2h.6c.7 0 1.2-.4 1.2-.9 0-.6-.5-.9-1.2-.9h-.6v1.8zm0 2.6h.6c.7 0 1.4-.3 1.4-1s-.6-1-1.4-1h-.6v2zM152.6 56.7c.3.2.8.4 1.2.4.7 0 1.1-.4 1.1-.9s-.3-.8-1-1.1c-.9-.3-1.4-.8-1.4-1.5 0-.8.7-1.5 1.7-1.5.6 0 1 .1 1.2.3l-.2.6c-.2-.1-.5-.3-1-.3-.7 0-1 .4-1 .8 0 .5.3.8 1.1 1 .9.4 1.4.8 1.4 1.6s-.6 1.6-1.9 1.6c-.5 0-1.1-.2-1.4-.3l.2-.7zM156.9 52.1v5.4h-.7v-5.4h.7zM160.5 55h-2.1v1.9h2.3v.6h-3v-5.4h2.9v.6h-2.2v1.7h2.1v.6z"/></g><g class="st0"><path class="st4" d="M82.1 61.8c.3 0 .7-.1 1.2-.1.6 0 1 .1 1.3.4.3.2.4.6.4 1s-.1.8-.4 1c-.3.3-.8.5-1.4.5h-.5v1.9h-.6v-4.7zm.6 2.3h.5c.7 0 1.2-.4 1.2-1s-.4-.9-1.1-.9h-.6v1.9zM85.9 64.2v-1.1h.5v.7c.2-.5.5-.7.9-.7h.2v.6h-.2c-.4 0-.7.3-.8.8v2.1h-.6v-2.4zM91.3 64.8c0 1.3-.9 1.8-1.7 1.8-.9 0-1.6-.7-1.6-1.7 0-1.1.7-1.8 1.7-1.8 1-.1 1.6.6 1.6 1.7zm-2.7 0c0 .7.4 1.3 1 1.3s1-.6 1-1.3c0-.6-.3-1.3-1-1.3s-1 .7-1 1.3zM94.7 66.4c-.2.1-.5.2-1 .2-1 0-1.7-.7-1.7-1.7s.7-1.8 1.8-1.8c.4 0 .7.1.9.2l-.1.5c-.1-.1-.4-.2-.7-.2-.8 0-1.2.6-1.2 1.3 0 .8.5 1.3 1.2 1.3.4 0 .6-.1.8-.2v.4zM98.4 65.6v.9h-.5v-.6c-.2.3-.5.6-1.1.6-.5 0-1.2-.3-1.2-1.5v-2h.6v2c0 .6.2 1.1.8 1.1.4 0 .7-.3.8-.6 0-.1.1-.2.1-.3v-2.1h.6v2.5zM99.6 64.2v-1.1h.5v.7c.2-.5.5-.7.9-.7h.2v.6h-.2c-.4 0-.7.3-.8.8v2.1h-.6v-2.4zM102.3 64.9c0 .8.5 1.2 1.2 1.2.4 0 .7-.1.9-.2l.1.4c-.2.1-.6.2-1.1.2-1 0-1.7-.7-1.7-1.7s.6-1.8 1.6-1.8c1.1 0 1.4 1 1.4 1.6v.3h-2.4zm1.8-.4c0-.4-.2-1-.9-1-.6 0-.9.6-.9 1h1.8zM105.6 64v-.9h.5v.5c.2-.3.5-.6 1.1-.6.5 0 .8.3 1 .7.1-.2.2-.3.4-.4.2-.2.4-.2.7-.2.4 0 1.1.3 1.1 1.5v2h-.6v-1.9c0-.7-.2-1-.7-1-.4 0-.6.3-.7.6v2.4h-.6v-2c0-.5-.2-.9-.7-.9-.4 0-.7.3-.8.6v2.3h-.6V64zM112 64.9c0 .8.5 1.2 1.2 1.2.4 0 .7-.1.9-.2l.1.4c-.2.1-.6.2-1.1.2-1 0-1.7-.7-1.7-1.7S112 63 113 63c1.1 0 1.4 1 1.4 1.6v.3H112zm1.8-.4c0-.4-.2-1-.9-1-.6 0-.9.6-.9 1h1.8zM115.3 64v-.9h.5v.6c.2-.3.6-.6 1.1-.6.5 0 1.2.3 1.2 1.4v2h-.6v-2c0-.5-.2-1-.8-1-.4 0-.7.3-.8.6v2.3h-.6V64zM120.1 62.1v1h.9v.5h-.9v1.8c0 .4.1.7.5.7h.4v.5c-.1 0-.3.1-.5.1-.3 0-.5-.1-.7-.3-.2-.2-.2-.5-.2-.9v-1.8h-.6v-.5h.5v-.8l.6-.3zM123.5 65.8c.3.2.7.3 1.1.3.6 0 1-.3 1-.8 0-.4-.3-.7-.9-.9-.8-.3-1.2-.7-1.2-1.3 0-.7.6-1.3 1.5-1.3.5 0 .8.1 1 .2l-.2.5c-.2-.1-.5-.2-.9-.2-.6 0-.9.4-.9.7 0 .4.3.7.9.9.8.3 1.2.7 1.2 1.4s-.5 1.4-1.7 1.4c-.5 0-1-.1-1.2-.3l.3-.6zM127.2 64.2v-1.1h.6v.6c.3-.4.7-.7 1.2-.7.8 0 1.4.7 1.4 1.7 0 1.2-.7 1.8-1.5 1.8-.4 0-.8-.2-1-.5v1.8h-.6v-3.6zm.6.9v.3c.1.4.5.7.9.7.7 0 1-.5 1-1.3 0-.7-.4-1.3-1-1.3-.4 0-.8.3-.9.8v.8zM131.7 64.9c0 .8.5 1.2 1.2 1.2.4 0 .7-.1.9-.2l.1.4c-.2.1-.6.2-1.1.2-1 0-1.7-.7-1.7-1.7s.6-1.8 1.6-1.8c1.1 0 1.4 1 1.4 1.6v.3h-2.4zm1.8-.4c0-.4-.2-1-.9-1-.6 0-.9.6-.9 1h1.8zM137.4 66.4c-.2.1-.5.2-1 .2-1 0-1.7-.7-1.7-1.7s.7-1.8 1.8-1.8c.4 0 .7.1.9.2l-.1.5c-.1-.1-.4-.2-.7-.2-.8 0-1.2.6-1.2 1.3 0 .8.5 1.3 1.2 1.3.4 0 .6-.1.8-.2v.4zM139 62.2c0 .2-.1.4-.4.4-.2 0-.4-.2-.4-.4s.2-.4.4-.4c.3 0 .4.1.4.4zm-.7 4.3v-3.4h.6v3.4h-.6zM142 66.5v-.4c-.2.3-.6.5-1 .5-.7 0-1-.5-1-1 0-.8.7-1.3 2-1.3v-.1c0-.3-.1-.8-.8-.8-.3 0-.6.1-.9.3l-.1-.4c.3-.2.7-.3 1.1-.3 1 0 1.3.7 1.3 1.4v1.3c0 .3 0 .6.1.8h-.7zm-.1-1.7c-.7 0-1.4.1-1.4.8 0 .4.3.6.6.6.4 0 .7-.3.8-.6v-.8zM143.7 61.5h.6v5h-.6v-5zM146.2 62.2c0 .2-.1.4-.4.4-.2 0-.4-.2-.4-.4s.2-.4.4-.4.4.1.4.4zm-.7 4.3v-3.4h.6v3.4h-.6zM147.2 65.9c.2.1.5.2.8.2.4 0 .7-.2.7-.5s-.2-.5-.6-.6c-.6-.2-.9-.6-.9-1 0-.5.4-1 1.2-1 .3 0 .6.1.8.2l-.2.4c-.1-.1-.4-.2-.7-.2-.4 0-.6.2-.6.5s.2.4.6.6c.6.2.9.5.9 1 0 .6-.5 1-1.3 1-.4 0-.7-.1-1-.2l.3-.4zM151 62.1v1h.9v.5h-.9v1.8c0 .4.1.7.5.7h.4v.5c-.1 0-.3.1-.5.1-.3 0-.5-.1-.7-.3-.2-.2-.2-.5-.2-.9v-1.8h-.5v-.5h.5v-.8l.5-.3z"/></g><g class="st0"><path class="st4" d="M82.1 112.2c.3-.1.8-.1 1.3-.1.7 0 1.2.2 1.5.4.3.3.5.6.5 1.1 0 .5-.1.9-.4 1.2-.4.4-1 .6-1.6.6h-.6v2.2h-.7v-5.4zm.7 2.6c.2 0 .3.1.6.1.8 0 1.4-.4 1.4-1.2 0-.7-.5-1.1-1.3-1.1-.3 0-.5 0-.7.1v2.1zM86.7 114.9v-1.2h.6v.8c.2-.5.6-.8 1.1-.8h.2v.7h-.2c-.5 0-.8.4-.9.9v2.4h-.7v-2.8zM93 115.6c0 1.4-1 2.1-1.9 2.1-1 0-1.9-.8-1.9-2 0-1.3.8-2.1 1.9-2.1 1.1 0 1.9.8 1.9 2zm-3.1 0c0 .8.5 1.5 1.2 1.5s1.2-.6 1.2-1.5c0-.7-.3-1.5-1.2-1.5-.8 0-1.2.8-1.2 1.5zM96.9 117.4c-.2.1-.6.2-1.1.2-1.2 0-1.9-.8-1.9-2s.8-2.1 2.1-2.1c.4 0 .8.1 1 .2l-.2.5c-.2-.1-.4-.2-.8-.2-.9 0-1.4.7-1.4 1.5 0 .9.6 1.4 1.3 1.4.4 0 .7-.1.9-.2l.1.7zM101.3 116.5v1.1h-.6v-.6c-.2.3-.6.7-1.3.7-.6 0-1.3-.3-1.3-1.7v-2.3h.7v2.1c0 .7.2 1.2.9 1.2.5 0 .8-.3.9-.6 0-.1.1-.2.1-.4v-2.4h.7v2.9zM102.8 114.9v-1.2h.6v.8c.2-.5.6-.8 1.1-.8h.2v.7h-.2c-.5 0-.8.4-.9.9v2.4h-.7v-2.8zM106 115.8c0 1 .6 1.3 1.3 1.3.5 0 .8-.1 1.1-.2l.1.5c-.2.1-.7.2-1.3.2-1.2 0-1.9-.8-1.9-2s.7-2.1 1.8-2.1c1.3 0 1.6 1.1 1.6 1.8v.3H106zm2-.6c0-.4-.2-1.1-1-1.1-.7 0-1 .7-1.1 1.1h2.1zM109.9 114.7v-1h.6v.6c.2-.4.6-.7 1.2-.7.5 0 .9.3 1.1.8.1-.2.3-.4.4-.5.2-.2.5-.3.9-.3.5 0 1.3.3 1.3 1.7v2.3h-.7v-2.2c0-.7-.3-1.2-.8-1.2-.4 0-.7.3-.8.6 0 .1-.1.2-.1.4v2.4h-.7v-2.3c0-.6-.3-1.1-.8-1.1-.4 0-.8.4-.9.7 0 .1-.1.2-.1.3v2.3h-.7v-2.8zM117.3 115.8c0 1 .6 1.3 1.3 1.3.5 0 .8-.1 1.1-.2l.1.5c-.2.1-.7.2-1.3.2-1.2 0-1.9-.8-1.9-2s.7-2.1 1.8-2.1c1.3 0 1.6 1.1 1.6 1.8v.3h-2.7zm2.1-.6c0-.4-.2-1.1-1-1.1-.7 0-1 .7-1.1 1.1h2.1zM121.2 114.7v-1h.6v.6c.2-.4.6-.7 1.3-.7.5 0 1.4.3 1.4 1.6v2.3h-.7v-2.2c0-.6-.2-1.1-.9-1.1-.5 0-.8.3-.9.7V117.5h-.7v-2.8zM126.8 112.6v1.1h1v.5h-1v2.1c0 .5.1.8.5.8h.4v.5c-.1.1-.4.1-.6.1-.3 0-.6-.1-.8-.3-.2-.2-.3-.6-.3-1v-2.1h-.6v-.5h.6v-.9l.8-.3zM134.4 117.6l-.5-.5c-.5.4-1 .6-1.6.6-1 0-1.7-.7-1.7-1.5 0-.7.4-1.2 1.1-1.6-.3-.4-.4-.7-.4-1.1 0-.7.5-1.3 1.4-1.3.7 0 1.2.4 1.2 1.1 0 .6-.3 1-1.2 1.4.5.5 1 1.1 1.3 1.5.2-.4.4-.9.5-1.6h.6c-.1.8-.4 1.5-.8 2 .3.3.6.6.9 1h-.8zm-.9-1c-.3-.4-.9-1-1.5-1.7-.3.2-.7.5-.7 1.1 0 .6.5 1.1 1.1 1.1.5 0 .9-.2 1.1-.5zm-1.6-3.3c0 .4.2.7.4 1 .5-.3.9-.6.9-1.1 0-.3-.2-.7-.6-.7-.5.1-.7.4-.7.8zM138.2 112.2c.3-.1.8-.1 1.3-.1.7 0 1.2.2 1.5.4.3.3.5.6.5 1.1 0 .5-.1.9-.4 1.2-.4.4-1 .6-1.6.6h-.6v2.2h-.7v-5.4zm.7 2.6c.2 0 .3.1.6.1.8 0 1.4-.4 1.4-1.2 0-.7-.5-1.1-1.3-1.1-.3 0-.5 0-.7.1v2.1zM144.9 117.6l-.1-.5c-.2.3-.6.6-1.2.6-.8 0-1.2-.6-1.2-1.1 0-.9.8-1.4 2.3-1.4v-.2c0-.3-.1-.9-.9-.9-.4 0-.7.1-1 .3l-.2-.5c.3-.2.8-.3 1.3-.3 1.2 0 1.5.8 1.5 1.6v1.4c0 .3 0 .7.1.9h-.6zm-.1-2c-.8 0-1.6.1-1.6.9 0 .5.3.7.7.7.5 0 .8-.3.9-.6v-1zM147.2 113.7l.8 2.3c.1.3.2.6.2.8.1-.2.2-.5.2-.8l.8-2.3h.7l-1.1 2.8c-.5 1.3-.8 2-1.3 2.4-.3.3-.7.4-.9.5l-.2-.6.6-.3c.2-.2.4-.4.6-.8 0-.1.1-.1.1-.2v-.2l-1.4-3.6h.9zM151 114.7v-1h.6v.6c.2-.4.6-.7 1.2-.7.5 0 .9.3 1.1.8.1-.2.3-.4.4-.5.2-.2.5-.3.9-.3.5 0 1.3.3 1.3 1.7v2.3h-.7v-2.2c0-.7-.3-1.2-.8-1.2-.4 0-.7.3-.8.6 0 .1-.1.2-.1.4v2.4h-.7v-2.3c0-.6-.3-1.1-.8-1.1-.4 0-.8.4-.9.7 0 .1-.1.2-.1.3v2.3h-.6v-2.8zM158.4 115.8c0 1 .6 1.3 1.3 1.3.5 0 .8-.1 1.1-.2l.1.5c-.2.1-.7.2-1.3.2-1.2 0-1.9-.8-1.9-2s.7-2.1 1.8-2.1c1.3 0 1.6 1.1 1.6 1.8v.3h-2.7zm2-.6c0-.4-.2-1.1-1-1.1-.7 0-1 .7-1.1 1.1h2.1zM162.3 114.7v-1h.6v.6c.2-.4.6-.7 1.3-.7.5 0 1.4.3 1.4 1.6v2.3h-.7v-2.2c0-.6-.2-1.1-.9-1.1-.5 0-.8.3-.9.7V117.5h-.7v-2.8zM167.9 112.6v1.1h1v.5h-1v2.1c0 .5.1.8.5.8h.4v.5c-.1.1-.4.1-.6.1-.3 0-.6-.1-.8-.3-.2-.2-.3-.6-.3-1v-2.1h-.6v-.5h.6v-.9l.8-.3zM172 116.7c.3.2.8.4 1.2.4.7 0 1.1-.4 1.1-.9s-.3-.8-1-1.1c-.9-.3-1.4-.8-1.4-1.5 0-.8.7-1.5 1.7-1.5.6 0 1 .1 1.2.3l-.2.6c-.2-.1-.5-.3-1-.3-.7 0-1 .4-1 .8 0 .5.3.8 1.1 1 .9.4 1.4.8 1.4 1.6s-.6 1.6-1.9 1.6c-.5 0-1.1-.2-1.4-.3l.2-.7zM176.7 115.8c0 1 .6 1.3 1.3 1.3.5 0 .8-.1 1.1-.2l.1.5c-.2.1-.7.2-1.3.2-1.2 0-1.9-.8-1.9-2s.7-2.1 1.8-2.1c1.3 0 1.6 1.1 1.6 1.8v.3h-2.7zm2.1-.6c0-.4-.2-1.1-1-1.1-.7 0-1 .7-1.1 1.1h2.1zM180.7 114.9v-1.2h.6v.8c.2-.5.6-.8 1.1-.8h.2v.7h-.2c-.5 0-.8.4-.9.9v2.4h-.7v-2.8zM183.9 113.7l.8 2.2c.1.4.2.7.3 1 .1-.3.2-.6.3-1l.8-2.2h.7l-1.5 3.9h-.7l-1.5-3.9h.8zM188.5 112.6c0 .2-.2.4-.4.4s-.4-.2-.4-.4.2-.4.4-.4c.3 0 .4.2.4.4zm-.7 5v-3.9h.7v3.9h-.7zM192.7 117.4c-.2.1-.6.2-1.1.2-1.2 0-1.9-.8-1.9-2s.8-2.1 2.1-2.1c.4 0 .8.1 1 .2l-.2.5c-.2-.1-.4-.2-.8-.2-.9 0-1.4.7-1.4 1.5 0 .9.6 1.4 1.3 1.4.4 0 .7-.1.9-.2l.1.7zM194.2 115.8c0 1 .6 1.3 1.3 1.3.5 0 .8-.1 1.1-.2l.1.5c-.2.1-.7.2-1.3.2-1.2 0-1.9-.8-1.9-2s.7-2.1 1.8-2.1c1.3 0 1.6 1.1 1.6 1.8v.3h-2.7zm2.1-.6c0-.4-.2-1.1-1-1.1-.7 0-1 .7-1.1 1.1h2.1zM198.1 116.8c.2.1.6.3.9.3.5 0 .8-.3.8-.6s-.2-.5-.7-.7c-.7-.2-1-.6-1-1.1 0-.6.5-1.1 1.3-1.1.4 0 .7.1 1 .2l-.2.5c-.2-.1-.4-.2-.8-.2s-.6.2-.6.5.2.5.7.7c.7.3 1 .6 1 1.2 0 .7-.5 1.2-1.4 1.2-.4 0-.8-.1-1.1-.3l.1-.6z"/></g><g class="st0"><path class="st4" d="M82.1 121.4c.3 0 .7-.1 1.2-.1.6 0 1 .1 1.3.4.3.2.4.6.4 1s-.1.8-.4 1c-.3.3-.8.5-1.4.5h-.5v1.9h-.6v-4.7zm.6 2.3h.5c.7 0 1.2-.4 1.2-1s-.4-.9-1.1-.9h-.6v1.9zM84.5 125.7c0-.3.2-.4.4-.4s.4.2.4.4c0 .3-.2.4-.4.4s-.4-.2-.4-.4zM90.2 123.7c0 1.6-1 2.5-2.2 2.5-1.2 0-2.1-1-2.1-2.4 0-1.5.9-2.5 2.2-2.5 1.3 0 2.1 1 2.1 2.4zm-3.7 0c0 1 .5 1.9 1.5 1.9s1.5-.9 1.5-2c0-.9-.5-1.9-1.5-1.9-1 .1-1.5 1-1.5 2zM90.8 125.7c0-.3.2-.4.4-.4s.4.2.4.4c0 .3-.2.4-.4.4s-.4-.2-.4-.4zM93.9 121.4c.3-.1.7-.1 1.1-.1.6 0 1 .1 1.3.3.2.2.4.5.4.8 0 .5-.3.9-.8 1 .4.1 1 .5 1 1.2 0 .4-.2.7-.4.9-.3.3-.9.4-1.6.4-.4 0-.7 0-.9-.1v-4.4zm.6 1.9h.6c.6 0 1-.3 1-.8 0-.6-.4-.8-1-.8h-.5v1.6zm0 2.3h.5c.6 0 1.2-.2 1.2-.9 0-.6-.6-.9-1.2-.9h-.5v1.8zM100.8 124.3c0 1.3-.9 1.8-1.7 1.8-.9 0-1.6-.7-1.6-1.7 0-1.1.7-1.8 1.7-1.8.9 0 1.6.7 1.6 1.7zm-2.7.1c0 .7.4 1.3 1 1.3s1-.6 1-1.3c0-.6-.3-1.3-1-1.3s-1 .6-1 1.3zM101.8 122.7l.5.7.3.6.3-.6.5-.7h.7l-1.2 1.6 1.2 1.8h-.7l-.5-.8c-.1-.2-.2-.4-.4-.6-.1.2-.2.4-.4.6l-.5.8h-.7l1.2-1.7-1.1-1.7h.8zM109 121.5v.4l-2 4.1h-.6l2-4h-2.2v-.5h2.8zM109.7 126.1v-.4l.5-.5c1.2-1.1 1.7-1.7 1.7-2.4 0-.5-.2-.9-.9-.9-.4 0-.8.2-1 .4l-.2-.4c.3-.3.8-.5 1.3-.5 1 0 1.4.7 1.4 1.3 0 .8-.6 1.5-1.6 2.4l-.4.3h2v.5h-2.8zM115.2 126.1v-1.2H113v-.4l2-2.9h.7v2.8h.6v.5h-.6v1.2h-.5zm0-1.8v-2.2c-.1.3-.3.5-.4.7l-1.1 1.5h1.5zM119.6 122h-1.7l-.2 1.2h.4c.4 0 .7.1 1 .2.4.2.7.6.7 1.2 0 .9-.7 1.6-1.7 1.6-.5 0-.9-.1-1.1-.3l.2-.5c.2.1.6.3 1 .3.6 0 1.1-.4 1.1-1s-.4-1-1.3-1h-.6l.3-2.2h2.2v.5z"/></g><g class="st0"><path class="st4" d="M129.6 120.5v8.7h-.5v-8.7h.5z"/></g><g class="st0"><path class="st4" d="m134.8 126.1-1.2-4.7h.6l.6 2.4c.1.6.3 1.2.4 1.6.1-.5.2-1 .4-1.6l.6-2.4h.6l.6 2.4c.1.6.3 1.1.3 1.6.1-.5.2-1 .4-1.6l.6-2.4h.6l-1.3 4.7h-.6l-.6-2.5c-.1-.6-.2-1.1-.3-1.5-.1.5-.2.9-.4 1.5l-.7 2.5h-.6zM140.8 121.7c0 .2-.1.4-.4.4-.2 0-.4-.2-.4-.4s.2-.4.4-.4.4.2.4.4zm-.7 4.4v-3.4h.6v3.4h-.6zM141.7 123.6v-.9h.5v.6c.2-.3.6-.6 1.1-.6.5 0 1.2.3 1.2 1.4v2h-.5v-2c0-.5-.2-1-.8-1-.4 0-.7.3-.8.6v2.3h-.6v-2.4zM145.5 125.4c.2.1.5.2.8.2.4 0 .7-.2.7-.5s-.2-.5-.6-.6c-.6-.2-.9-.6-.9-1 0-.5.4-1 1.2-1 .3 0 .6.1.8.2l-.2.4c-.1-.1-.4-.2-.7-.2-.4 0-.6.2-.6.5s.2.4.6.6c.6.2.9.5.9 1 0 .6-.5 1-1.3 1-.4 0-.7-.1-1-.2l.3-.4zM149.1 121.7v1h.9v.5h-.9v1.8c0 .4.1.7.5.7h.4v.5c-.1 0-.3.1-.5.1-.3 0-.5-.1-.7-.3-.2-.2-.2-.5-.2-.9v-1.8h-.6v-.5h.5v-.8l.6-.3zM153.8 124.3c0 1.3-.9 1.8-1.7 1.8-.9 0-1.6-.7-1.6-1.7 0-1.1.7-1.8 1.7-1.8.9 0 1.6.7 1.6 1.7zm-2.7.1c0 .7.4 1.3 1 1.3s1-.6 1-1.3c0-.6-.3-1.3-1-1.3s-1 .6-1 1.3zM154.5 123.6v-.9h.5v.6c.2-.3.6-.6 1.1-.6.5 0 1.2.3 1.2 1.4v2h-.6v-2c0-.5-.2-1-.8-1-.4 0-.7.3-.8.6v2.3h-.6v-2.4zM159.9 123.9v.5h-1.7v-.5h1.7zM160.5 125.3c.3.2.7.3 1.1.3.6 0 1-.3 1-.8 0-.4-.3-.7-.9-.9-.8-.3-1.2-.7-1.2-1.3 0-.7.6-1.3 1.5-1.3.5 0 .8.1 1 .2l-.2.5c-.2-.1-.5-.2-.9-.2-.6 0-.9.4-.9.7 0 .4.3.7.9.9.8.3 1.2.7 1.2 1.4s-.5 1.4-1.7 1.4c-.5 0-1-.1-1.2-.3l.3-.6zM165.9 126.1v-.4c-.2.3-.6.5-1 .5-.7 0-1-.5-1-1 0-.8.7-1.3 2-1.3v-.1c0-.3-.1-.8-.8-.8-.3 0-.6.1-.9.3l-.1-.4c.3-.2.7-.3 1.1-.3 1 0 1.3.7 1.3 1.4v1.3c0 .3 0 .6.1.8h-.7zm-.1-1.8c-.7 0-1.4.1-1.4.8 0 .4.3.6.6.6.4 0 .7-.3.8-.6v-.8zM167.4 121.1h.6v5h-.6v-5zM169.4 124.5c0 .8.5 1.2 1.2 1.2.4 0 .7-.1.9-.2l.1.4c-.2.1-.6.2-1.1.2-1 0-1.7-.7-1.7-1.7s.6-1.8 1.6-1.8c1.1 0 1.4 1 1.4 1.6v.3h-2.4zm1.8-.5c0-.4-.2-1-.9-1-.6 0-.9.6-.9 1h1.8zM172.6 123.6v-.9h.5v.5c.2-.3.5-.6 1.1-.6.5 0 .8.3 1 .7.1-.2.2-.3.4-.4.2-.2.4-.2.7-.2.4 0 1.1.3 1.1 1.5v2h-.6v-1.9c0-.7-.2-1-.7-1-.3 0-.6.3-.7.6v2.4h-.6v-2c0-.5-.2-.9-.7-.9-.4 0-.7.3-.8.6v2.3h-.6v-2.7zM178 126.9c.2-.4.3-1.2.4-1.7l.7-.1c-.2.6-.5 1.4-.7 1.7l-.4.1zM181.4 126.1v-4.7h.7l1.5 2.4c.3.6.6 1.1.8 1.5-.1-.6-.1-1.2-.1-1.9v-2h.6v4.7h-.6l-1.5-2.4c-.3-.5-.6-1.1-.9-1.6v3.9h-.5zM189.3 125.9c-.2.1-.7.2-1.2.2-1.3 0-2.3-.8-2.3-2.4 0-1.5 1-2.5 2.5-2.5.6 0 1 .1 1.1.2l-.1.5c-.2-.1-.6-.2-1-.2-1.1 0-1.8.7-1.8 1.9s.7 1.9 1.8 1.9c.4 0 .7-.1 1-.2v.6zM191.3 126.1v-.4l.5-.5c1.2-1.1 1.7-1.7 1.7-2.4 0-.5-.2-.9-.9-.9-.4 0-.8.2-1 .4l-.2-.4c.3-.3.8-.5 1.3-.5 1 0 1.4.7 1.4 1.3 0 .8-.6 1.5-1.6 2.4l-.4.3h2v.5h-2.8zM197.8 121.5v.4l-2 4.1h-.6l2-4H195v-.5h2.8zM199.8 122.1l-.8.4-.1-.5 1-.5h.5v4.6h-.6v-4zM205.1 123.7c0 1.5-.6 2.4-1.6 2.4-.9 0-1.5-.8-1.5-2.3 0-1.5.7-2.4 1.6-2.4.9 0 1.5.9 1.5 2.3zm-2.5.1c0 1.2.4 1.9.9 1.9.6 0 .9-.7.9-1.9 0-1.1-.3-1.9-.9-1.9-.5 0-.9.7-.9 1.9zM206 125.6h.5c.4 0 .7-.2 1-.4.3-.3.5-.7.6-1.2-.3.3-.6.5-1.1.5-.8 0-1.3-.6-1.3-1.4 0-.9.6-1.6 1.6-1.6s1.5.8 1.5 1.9c0 1-.3 1.7-.8 2.1-.4.3-.8.6-1.3.6h-.6v-.5zm.2-2.6c0 .6.3 1 .9 1 .4 0 .7-.2.9-.5 0-.1.1-.1.1-.2 0-.8-.3-1.4-.9-1.4-.6 0-1 .5-1 1.1z"/></g><g class="st0"><path class="st4" d="M82 132.8v-1.1h.6v.6c.3-.4.7-.7 1.2-.7.8 0 1.4.7 1.4 1.7 0 1.2-.7 1.8-1.5 1.8-.4 0-.8-.2-1-.5v1.8H82v-3.6zm.6.9v.3c.1.4.5.7.9.7.7 0 1-.5 1-1.3 0-.7-.4-1.3-1-1.3-.4 0-.8.3-.9.8v.8zM87.5 134.4c.2.1.6.3 1 .3.8 0 1-.5 1-.9 0-.6-.6-.9-1.2-.9H88v-.5h.3c.4 0 1-.2 1-.8 0-.4-.2-.7-.8-.7-.4 0-.7.2-.9.3l-.2-.4c.2-.2.7-.4 1.2-.4.9 0 1.3.5 1.3 1.1 0 .5-.3.9-.8 1.1.6.1 1 .5 1 1.2s-.6 1.4-1.7 1.4c-.5 0-1-.2-1.2-.3l.3-.5zM91 134.4c.2.1.6.3 1 .3.8 0 1-.5 1-.9 0-.6-.6-.9-1.2-.9h-.3v-.5h.3c.4 0 1-.2 1-.8 0-.4-.2-.7-.8-.7-.4 0-.7.2-.9.3l-.2-.4c.2-.2.7-.4 1.2-.4.9 0 1.3.5 1.3 1.1 0 .5-.3.9-.8 1.1.6.1 1 .5 1 1.2s-.6 1.4-1.7 1.4c-.5 0-1-.2-1.2-.3l.3-.5zM97.1 130.9h-.5c-1 .2-1.5.9-1.6 1.6.2-.3.6-.5 1.1-.5.8 0 1.4.6 1.4 1.5 0 .8-.6 1.6-1.5 1.6-1 0-1.6-.8-1.6-1.9 0-.9.3-1.6.8-2.1.4-.4.9-.6 1.5-.7h.4v.5zm-.2 2.7c0-.7-.4-1-.9-1-.4 0-.7.2-.9.6 0 .1-.1.2-.1.3 0 .8.4 1.3 1 1.3.6-.1.9-.6.9-1.2zM98.1 134.7c0-.3.2-.4.4-.4s.4.2.4.4c0 .3-.2.4-.4.4s-.4-.2-.4-.4zM102.5 130.5v.4l-2 4.1h-.6l2-4h-2.2v-.5h2.8zM105.8 131h-1.7l-.2 1.2h.4c.4 0 .7.1 1 .2.4.2.7.6.7 1.2 0 .9-.7 1.6-1.7 1.6-.5 0-.9-.1-1.1-.3l.2-.5c.2.1.6.3 1 .3.6 0 1.1-.4 1.1-1s-.4-1-1.3-1h-.6l.3-2.2h2.2v.5zM106.7 133.9c0-.6.3-1 .9-1.2-.5-.2-.7-.6-.7-1 0-.7.6-1.2 1.4-1.2.9 0 1.3.6 1.3 1.1 0 .4-.2.8-.7 1.1.6.2.9.6.9 1.2 0 .8-.7 1.3-1.5 1.3-1.1-.1-1.6-.6-1.6-1.3zm2.4 0c0-.6-.4-.8-1-1-.5.2-.8.5-.8.9 0 .5.3.9.9.9.5 0 .9-.4.9-.8zm-1.7-2.3c0 .5.3.7.9.8.4-.1.7-.4.7-.8s-.2-.7-.8-.7c-.5 0-.8.3-.8.7zM110.3 134.7c0-.3.2-.4.4-.4s.4.2.4.4c0 .3-.2.4-.4.4s-.4-.2-.4-.4zM111.7 135.1v-.4l.5-.5c1.2-1.1 1.7-1.7 1.7-2.4 0-.5-.2-.9-.9-.9-.4 0-.8.2-1 .4l-.2-.4c.3-.3.8-.5 1.3-.5 1 0 1.4.7 1.4 1.3 0 .8-.6 1.5-1.6 2.4l-.4.3h2v.5h-2.8zM117.2 135.1v-1.2h-2.1v-.4l2-2.9h.7v2.8h.6v.5h-.6v1.2h-.6zm0-1.8v-2.2c-.1.3-.3.5-.4.7l-1.1 1.5h1.5zM120.3 131.1l-.8.4-.1-.5 1-.5h.5v4.6h-.6v-4zM122.5 135.1v-.4l.5-.5c1.2-1.1 1.7-1.7 1.7-2.4 0-.5-.2-.9-.9-.9-.4 0-.8.2-1 .4l-.2-.4c.3-.3.8-.5 1.3-.5 1 0 1.4.7 1.4 1.3 0 .8-.6 1.5-1.6 2.4l-.4.3h2v.5h-2.8z"/></g><g class="st0"><path class="st4" d="M135.3 129.5v8.7h-.5v-8.7h.5z"/></g><g class="st0"><path class="st4" d="M138.7 135.1v-2.9h-.5v-.5h.5v-.2c0-.5.1-.9.4-1.2.2-.2.5-.3.8-.3.2 0 .4 0 .5.1l-.1.5c-.1 0-.2-.1-.4-.1-.5 0-.7.5-.7 1v.2h.8v.5h-.8v2.9h-.5zM142.1 134.4c.2.1.6.3 1 .3.8 0 1-.5 1-.9 0-.6-.6-.9-1.2-.9h-.3v-.5h.3c.4 0 1-.2 1-.8 0-.4-.2-.7-.8-.7-.4 0-.7.2-.9.3l-.2-.4c.2-.2.7-.4 1.2-.4.9 0 1.3.5 1.3 1.1 0 .5-.3.9-.8 1.1.6.1 1 .5 1 1.2s-.6 1.4-1.7 1.4c-.5 0-1-.2-1.2-.3l.3-.5zM145.7 134.4c.2.1.6.3 1 .3.8 0 1-.5 1-.9 0-.6-.6-.9-1.2-.9h-.3v-.5h.3c.4 0 1-.2 1-.8 0-.4-.2-.7-.8-.7-.4 0-.7.2-.9.3l-.2-.4c.2-.2.7-.4 1.2-.4.9 0 1.3.5 1.3 1.1 0 .5-.3.9-.8 1.1.6.1 1 .5 1 1.2s-.6 1.4-1.7 1.4c-.5 0-1-.2-1.2-.3l.3-.5zM151.7 130.9h-.5c-1 .2-1.5.9-1.6 1.6.2-.3.6-.5 1.1-.5.8 0 1.4.6 1.4 1.5 0 .8-.6 1.6-1.5 1.6-1 0-1.6-.8-1.6-1.9 0-.9.3-1.6.8-2.1.4-.4.9-.6 1.5-.7h.4v.5zm-.1 2.7c0-.7-.4-1-.9-1-.4 0-.7.2-.9.6 0 .1-.1.2-.1.3 0 .8.4 1.3 1 1.3.5-.1.9-.6.9-1.2zM152.8 134.7c0-.3.2-.4.4-.4s.4.2.4.4c0 .3-.2.4-.4.4-.3 0-.4-.2-.4-.4zM157.1 130.5v.4l-2 4.1h-.6l2-4h-2.2v-.5h2.8zM160.5 131h-1.7l-.2 1.2h.4c.3 0 .7.1 1 .2.4.2.7.6.7 1.2 0 .9-.7 1.6-1.7 1.6-.5 0-.9-.1-1.1-.3l.2-.5c.2.1.6.3 1 .3.6 0 1.1-.4 1.1-1s-.4-1-1.3-1h-.6l.3-2.2h2.2v.5zM161.3 133.9c0-.6.3-1 .9-1.2-.5-.2-.7-.6-.7-1 0-.7.6-1.2 1.4-1.2.9 0 1.3.6 1.3 1.1 0 .4-.2.8-.8 1.1.6.2.9.6.9 1.2 0 .8-.7 1.3-1.5 1.3-.9-.1-1.5-.6-1.5-1.3zm2.4 0c0-.6-.4-.8-1-1-.5.2-.8.5-.8.9 0 .5.3.9.9.9.6 0 .9-.4.9-.8zm-1.6-2.3c0 .5.3.7.9.8.4-.1.7-.4.7-.8s-.2-.7-.8-.7c-.6 0-.8.3-.8.7zM165 134.7c0-.3.2-.4.4-.4s.4.2.4.4c0 .3-.2.4-.4.4s-.4-.2-.4-.4zM168.3 135.1v-1.2h-2.1v-.4l2-2.9h.7v2.8h.6v.5h-.6v1.2h-.6zm0-1.8v-2.2c-.1.3-.3.5-.4.7l-1.1 1.5h1.5zM169.9 133.9c0-.6.3-1 .9-1.2-.5-.2-.7-.6-.7-1 0-.7.6-1.2 1.4-1.2.9 0 1.3.6 1.3 1.1 0 .4-.2.8-.8 1.1.6.2.9.6.9 1.2 0 .8-.7 1.3-1.5 1.3-.9-.1-1.5-.6-1.5-1.3zm2.5 0c0-.6-.4-.8-1-1-.5.2-.8.5-.8.9 0 .5.3.9.9.9.5 0 .9-.4.9-.8zm-1.7-2.3c0 .5.3.7.9.8.4-.1.7-.4.7-.8s-.2-.7-.8-.7c-.5 0-.8.3-.8.7zM173.6 135.1v-.4l.5-.5c1.2-1.1 1.7-1.7 1.7-2.4 0-.5-.2-.9-.9-.9-.4 0-.8.2-1 .4l-.2-.4c.3-.3.8-.5 1.3-.5 1 0 1.4.7 1.4 1.3 0 .8-.6 1.5-1.6 2.4l-.4.3h2v.5h-2.8zM177.3 134.4c.2.1.6.3 1 .3.8 0 1-.5 1-.9 0-.6-.6-.9-1.2-.9h-.3v-.5h.3c.4 0 1-.2 1-.8 0-.4-.2-.7-.8-.7-.4 0-.7.2-.9.3l-.2-.4c.2-.2.7-.4 1.2-.4.9 0 1.3.5 1.3 1.1 0 .5-.3.9-.8 1.1.6.1 1 .5 1 1.2s-.6 1.4-1.7 1.4c-.5 0-1-.2-1.2-.3l.3-.5z"/></g><g class="st0"><path class="st4" d="M190.8 129.5v8.7h-.5v-8.7h.5z"/></g><g class="st0"><path class="st4" d="M196.5 134.9c-.2.1-.5.2-1 .2-1 0-1.7-.7-1.7-1.7s.7-1.8 1.8-1.8c.4 0 .7.1.9.2l-.1.5c-.1-.1-.4-.2-.7-.2-.8 0-1.2.6-1.2 1.3 0 .8.5 1.3 1.2 1.3.3 0 .6-.1.8-.2v.4zM198.7 134.4c.2.1.6.3 1 .3.8 0 1-.5 1-.9 0-.6-.6-.9-1.2-.9h-.3v-.5h.3c.4 0 1-.2 1-.8 0-.4-.2-.7-.8-.7-.4 0-.7.2-.9.3l-.2-.4c.2-.2.7-.4 1.2-.4.9 0 1.3.5 1.3 1.1 0 .5-.3.9-.8 1.1.6.1 1 .5 1 1.2s-.6 1.4-1.7 1.4c-.5 0-1-.2-1.2-.3l.3-.5zM202.2 134.4c.2.1.6.3 1 .3.8 0 1-.5 1-.9 0-.6-.6-.9-1.2-.9h-.3v-.5h.3c.4 0 1-.2 1-.8 0-.4-.2-.7-.8-.7-.4 0-.7.2-.9.3l-.2-.4c.2-.2.7-.4 1.2-.4.9 0 1.3.5 1.3 1.1 0 .5-.3.9-.8 1.1.6.1 1 .5 1 1.2s-.6 1.4-1.7 1.4c-.5 0-1-.2-1.2-.3l.3-.5zM208.3 130.9h-.5c-1 .2-1.5.9-1.6 1.6.2-.3.6-.5 1.1-.5.8 0 1.4.6 1.4 1.5 0 .8-.6 1.6-1.5 1.6-1 0-1.6-.8-1.6-1.9 0-.9.3-1.6.8-2.1.4-.4.9-.6 1.5-.7h.4v.5zm-.2 2.7c0-.7-.4-1-.9-1-.4 0-.7.2-.9.6 0 .1-.1.2-.1.3 0 .8.4 1.3 1 1.3.6-.1.9-.6.9-1.2zM209.3 134.7c0-.3.2-.4.4-.4s.4.2.4.4c0 .3-.2.4-.4.4s-.4-.2-.4-.4zM213.4 131h-1.7l-.2 1.2h.4c.3 0 .7.1 1 .2.4.2.7.6.7 1.2 0 .9-.7 1.6-1.7 1.6-.5 0-.9-.1-1.1-.3l.2-.5c.2.1.6.3 1 .3.6 0 1.1-.4 1.1-1s-.4-1-1.3-1h-.6l.3-2.2h2.2v.5zM217 131h-1.7l-.2 1.2h.4c.3 0 .7.1 1 .2.4.2.7.6.7 1.2 0 .9-.7 1.6-1.7 1.6-.5 0-.9-.1-1.1-.3l.2-.5c.2.1.6.3 1 .3.6 0 1.1-.4 1.1-1s-.4-1-1.3-1h-.6l.3-2.2h2.2v.5zM217.9 135.1v-.4l.5-.5c1.2-1.1 1.7-1.7 1.7-2.4 0-.5-.2-.9-.9-.9-.4 0-.8.2-1 .4l-.2-.4c.3-.3.8-.5 1.3-.5 1 0 1.4.7 1.4 1.3 0 .8-.6 1.5-1.6 2.4l-.4.3h2v.5h-2.8zM221.5 134.7c0-.3.2-.4.4-.4s.4.2.4.4c0 .3-.2.4-.4.4s-.4-.2-.4-.4zM223.3 134.6h.5c.4 0 .7-.2 1-.4.3-.3.5-.7.6-1.2-.3.3-.6.5-1.1.5-.8 0-1.3-.6-1.3-1.4 0-.9.6-1.6 1.6-1.6s1.5.8 1.5 1.9c0 1-.3 1.7-.8 2.1-.4.3-.8.6-1.3.6h-.6v-.5zm.2-2.6c0 .6.3 1 .9 1 .4 0 .7-.2.9-.5 0-.1.1-.1.1-.2 0-.8-.3-1.4-.9-1.4-.6 0-1 .5-1 1.1zM226.9 134.6h.5c.4 0 .7-.2 1-.4.3-.3.5-.7.6-1.2-.3.3-.6.5-1.1.5-.8 0-1.3-.6-1.3-1.4 0-.9.6-1.6 1.6-1.6s1.5.8 1.5 1.9c0 1-.3 1.7-.8 2.1-.4.3-.8.6-1.3.6h-.6v-.5zm.2-2.6c0 .6.3 1 .9 1 .4 0 .7-.2.9-.5 0-.1.1-.1.1-.2 0-.8-.3-1.4-.9-1.4-.6 0-1 .5-1 1.1zM230.3 134.4c.2.1.6.3 1 .3.8 0 1-.5 1-.9 0-.6-.6-.9-1.2-.9h-.3v-.5h.3c.4 0 1-.2 1-.8 0-.4-.2-.7-.8-.7-.4 0-.7.2-.9.3l-.2-.4c.2-.2.7-.4 1.2-.4.9 0 1.3.5 1.3 1.1 0 .5-.3.9-.8 1.1.6.1 1 .5 1 1.2s-.6 1.4-1.7 1.4c-.5 0-1-.2-1.2-.3l.3-.5zM233.9 134.4c.2.1.6.3 1 .3.8 0 1-.5 1-.9 0-.6-.6-.9-1.2-.9h-.3v-.5h.3c.4 0 1-.2 1-.8 0-.4-.2-.7-.8-.7-.4 0-.7.2-.9.3l-.2-.4c.2-.2.7-.4 1.2-.4.9 0 1.3.5 1.3 1.1 0 .5-.3.9-.8 1.1.6.1 1 .5 1 1.2s-.6 1.4-1.7 1.4c-.5 0-1-.2-1.2-.3l.3-.5z"/></g><g class="st0"><path class="st4" d="M82 140.1h.6v2.1c.1-.2.3-.3.4-.4.2-.1.4-.2.6-.2.5 0 1.2.3 1.2 1.5v2h-.6v-1.9c0-.5-.2-1-.8-1-.4 0-.7.3-.8.6v2.3H82v-5zM86.7 140.7c0 .2-.1.4-.4.4-.2 0-.4-.2-.4-.4s.2-.4.4-.4c.3 0 .4.2.4.4zm-.6 4.4v-3.4h.6v3.4h-.6zM87.8 140.1h.6v5h-.6v-5zM89.6 140.1h.6v5h-.6v-5zM92.1 140.7c0 .2-.1.4-.4.4-.2 0-.4-.2-.4-.4s.2-.4.4-.4c.3 0 .4.2.4.4zm-.7 4.4v-3.4h.6v3.4h-.6zM95.1 145.1v-.4c-.2.3-.6.5-1 .5-.7 0-1-.5-1-1 0-.8.7-1.3 2-1.3v-.1c0-.3-.1-.8-.8-.8-.3 0-.6.1-.9.3l-.1-.4c.3-.2.7-.3 1.1-.3 1 0 1.3.7 1.3 1.4v1.3c0 .3 0 .6.1.8h-.7zm-.1-1.8c-.7 0-1.4.1-1.4.8 0 .4.3.6.6.6.4 0 .7-.3.8-.6v-.8zM96.7 142.7v-1.1h.5v.7c.2-.5.5-.7.9-.7h.2v.6h-.2c-.4 0-.7.3-.8.8v2.1h-.6v-2.4zM101.9 141.7v2.9c0 .8-.2 1.3-.5 1.5-.3.3-.8.4-1.2.4-.4 0-.9-.1-1.1-.3l.2-.5c.2.1.6.3 1 .3.6 0 1.1-.3 1.1-1.2v-.4c-.2.3-.6.6-1.1.6-.8 0-1.4-.7-1.4-1.7 0-1.1.7-1.8 1.5-1.8.6 0 .9.3 1.1.6v-.5h.4zm-.6 1.3v-.3c-.1-.4-.4-.7-.9-.7-.6 0-1 .5-1 1.3 0 .7.3 1.2 1 1.2.4 0 .7-.2.9-.6V143zM106.2 145.5c-.4.2-.8.3-1.2.3-1.1 0-2.1-.8-2.1-2.2 0-1.4 1-2.7 2.6-2.7 1.2 0 2 .9 2 2s-.6 1.7-1.2 1.7c-.3 0-.5-.2-.5-.6-.2.4-.6.6-1 .6s-.8-.3-.8-.9c0-.9.7-1.7 1.7-1.7.3 0 .6.1.7.1l-.2 1.3c-.1.5 0 .8.2.8.4 0 .8-.5.8-1.3 0-1-.6-1.7-1.7-1.7s-2.1.9-2.1 2.3c0 1.2.8 1.9 1.8 1.9.4 0 .8-.1 1.1-.2l-.1.3zm-.4-3h-.4c-.6 0-1.1.6-1.1 1.3 0 .3.2.5.5.5.4 0 .8-.5.9-1l.1-.8zM108.6 141.7l.4 1.7c.1.4.2.7.3 1.1.1-.3.2-.7.3-1.1l.6-1.7h.5l.5 1.7c.1.4.2.8.3 1.1.1-.3.1-.7.3-1.1l.5-1.7h.6l-1.1 3.4h-.6l-.5-1.6c-.1-.4-.2-.7-.3-1.1-.1.4-.2.8-.3 1.1l-.5 1.6h-.6l-1-3.4h.6zM113.7 145.1v-2.9h-.5v-.5h.5v-.2c0-.5.1-.9.4-1.2.2-.2.5-.3.8-.3.2 0 .4 0 .5.1l-.1.5c-.1 0-.2-.1-.4-.1-.5 0-.7.5-.7 1v.2h.8v.5h-.8v2.9h-.5zM118.7 144.1v.9h-.5v-.6c-.2.3-.5.6-1.1.6-.5 0-1.2-.3-1.2-1.5v-2h.6v1.9c0 .6.2 1.1.8 1.1.4 0 .7-.3.8-.6 0-.1.1-.2.1-.3v-2.1h.6v2.6zM119.7 144.7c0-.3.2-.4.4-.4s.4.2.4.4c0 .3-.2.4-.4.4-.3 0-.4-.2-.4-.4zM121.7 143.5c0 .8.5 1.2 1.2 1.2.4 0 .7-.1.9-.2l.1.4c-.2.1-.6.2-1.1.2-1 0-1.7-.7-1.7-1.7s.6-1.8 1.6-1.8c1.1 0 1.4 1 1.4 1.6v.3h-2.4zm1.8-.5c0-.4-.2-1-.9-1-.6 0-.9.6-.9 1h1.8zM128 140.1v5h-.6v-.6c-.2.4-.6.7-1.2.7-.8 0-1.4-.7-1.4-1.7 0-1.1.7-1.8 1.5-1.8.5 0 .9.2 1 .5v-2h.7zm-.7 2.9v-.3c-.1-.4-.4-.7-.9-.7-.6 0-1 .6-1 1.3 0 .7.3 1.3 1 1.3.4 0 .8-.3.9-.7V143zM132 144.1v.9h-.5v-.6c-.2.3-.5.6-1.1.6-.5 0-1.2-.3-1.2-1.5v-2h.6v1.9c0 .6.2 1.1.8 1.1.4 0 .7-.3.8-.6 0-.1.1-.2.1-.3v-2.1h.6v2.6z"/></g><g class="st0"><path class="st4" d="M140.4 139.5v8.7h-.5v-8.7h.5z"/></g><g class="st0"><path class="st4" d="M145.2 145.1v-2.9h-.5v-.5h.5v-.2c0-.9.5-1.5 1.5-1.5.3 0 .7.1.9.2l-.2.5c-.1-.1-.4-.2-.7-.2-.7 0-.8.5-.8 1v.2h2v3.4h-.6v-2.9h-1.4v2.9h-.7zM148.9 142.6v-.9h.5v.6c.2-.3.6-.6 1.1-.6.5 0 1.2.3 1.2 1.4v2h-.6v-2c0-.5-.2-1-.8-1-.4 0-.7.3-.8.6v2.3h-.6v-2.4zM154.7 145.1v-.4c-.2.3-.6.5-1 .5-.7 0-1-.5-1-1 0-.8.7-1.3 2-1.3v-.1c0-.3-.1-.8-.8-.8-.3 0-.6.1-.9.3l-.1-.4c.3-.2.7-.3 1.1-.3 1 0 1.3.7 1.3 1.4v1.3c0 .3 0 .6.1.8h-.7zm-.1-1.8c-.7 0-1.4.1-1.4.8 0 .4.3.6.6.6.4 0 .7-.3.8-.6v-.8zM156.2 142.6v-.9h.5v.6c.2-.3.6-.6 1.1-.6.5 0 1.2.3 1.2 1.4v2h-.6v-2c0-.5-.2-1-.8-1-.4 0-.7.3-.8.6v2.3h-.6v-2.4zM162.6 144.9c-.2.1-.5.2-1 .2-1 0-1.7-.7-1.7-1.7s.7-1.8 1.8-1.8c.4 0 .7.1.9.2l-.1.5c-.1-.1-.4-.2-.7-.2-.8 0-1.2.6-1.2 1.3 0 .8.5 1.3 1.2 1.3.3 0 .6-.1.8-.2v.4zM163.7 143.5c0 .8.5 1.2 1.2 1.2.4 0 .7-.1.9-.2l.1.4c-.2.1-.6.2-1.1.2-1 0-1.7-.7-1.7-1.7s.6-1.8 1.6-1.8c1.1 0 1.4 1 1.4 1.6v.3h-2.4zm1.9-.5c0-.4-.2-1-.9-1-.6 0-.9.6-.9 1h1.8zM166.8 144.7c0-.3.2-.4.4-.4s.4.2.4.4c0 .3-.2.4-.4.4s-.4-.2-.4-.4zM168.7 141.7l.4 1.7c.1.4.2.7.3 1.1.1-.3.2-.7.3-1.1l.6-1.7h.5l.5 1.7c.1.4.2.8.3 1.1.1-.3.1-.7.3-1.1l.5-1.7h.6l-1.1 3.4h-.6l-.5-1.6c-.1-.4-.2-.7-.3-1.1-.1.4-.2.8-.3 1.1l-.5 1.6h-.6l-1-3.4h.6zM173.8 145.1v-2.9h-.5v-.5h.5v-.2c0-.5.1-.9.4-1.2.2-.2.5-.3.8-.3.2 0 .4 0 .5.1l-.1.5c-.1 0-.2-.1-.4-.1-.5 0-.7.5-.7 1v.2h.8v.5h-.8v2.9h-.5zM178.7 144.1v.9h-.5v-.6c-.2.3-.5.6-1.1.6-.5 0-1.2-.3-1.2-1.5v-2h.6v1.9c0 .6.2 1.1.8 1.1.4 0 .7-.3.8-.6 0-.1.1-.2.1-.3v-2.1h.6v2.6zM179.6 144.7c0-.3.2-.4.4-.4s.4.2.4.4c0 .3-.2.4-.4.4s-.4-.2-.4-.4zM181.6 143.5c0 .8.5 1.2 1.2 1.2.4 0 .7-.1.9-.2l.1.4c-.2.1-.6.2-1.1.2-1 0-1.7-.7-1.7-1.7s.6-1.8 1.6-1.8c1.1 0 1.4 1 1.4 1.6v.3h-2.4zm1.8-.5c0-.4-.2-1-.9-1-.6 0-.9.6-.9 1h1.8zM187.8 140.1v5h-.6v-.6c-.2.4-.6.7-1.2.7-.8 0-1.4-.7-1.4-1.7 0-1.1.7-1.8 1.5-1.8.5 0 .9.2 1 .5v-2h.7zm-.6 2.9v-.3c-.1-.4-.4-.7-.9-.7-.6 0-1 .6-1 1.3 0 .7.3 1.3 1 1.3.4 0 .8-.3.9-.7V143zM191.7 144.1v.9h-.5v-.6c-.2.3-.5.6-1.1.6-.5 0-1.2-.3-1.2-1.5v-2h.6v1.9c0 .6.2 1.1.8 1.1.4 0 .7-.3.8-.6 0-.1.1-.2.1-.3v-2.1h.6v2.6z"/></g><g class="st0"><defs><path id="SVGID_9_" d="M12 12h270v162H12z"/></defs><clipPath id="SVGID_10_"><use xlink:href="#SVGID_9_" style="overflow:visible"/></clipPath><g class="st5"><defs><path id="SVGID_11_" d="M76.4 43.3H265v29.5H76.4z"/></defs><clipPath id="SVGID_12_"><use xlink:href="#SVGID_11_" style="overflow:visible"/></clipPath><g class="st6"><path class="st7" d="M86.2 57.3c-.3.1-.9.3-1.7.3-.8 0-1.5-.2-2-.7-.5-.4-.8-1.2-.8-2 0-1.6 1.1-2.8 2.9-2.8.6 0 1.1.1 1.3.2l-.2.6c-.3-.1-.6-.2-1.2-.2-1.3 0-2.2.8-2.2 2.2 0 1.4.8 2.2 2.1 2.2.5 0 .8-.1.9-.1v-1.6h-1.1v-.6H86v2.5zM89.7 57.5V57c-.2.3-.6.6-1.2.6-.8 0-1.2-.6-1.2-1.1 0-.9.8-1.4 2.3-1.4V55c0-.3-.1-.9-.9-.9-.4 0-.7.1-1 .3l-.2-.5c.3-.2.8-.3 1.3-.3 1.2 0 1.5.8 1.5 1.6v1.4c0 .3 0 .7.1.9h-.7zm-.1-2c-.8 0-1.6.1-1.6.9 0 .5.3.7.7.7.5 0 .8-.3.9-.6v-1zM91.8 54.8v-1.2h.6v.8c.2-.5.6-.8 1.1-.8h.2v.7h-.2c-.5 0-.8.4-.9.9v2.4h-.7v-2.8zM94.7 51.8h.7v5.7h-.7v-5.7zM99 57.5V57c-.2.3-.6.6-1.2.6-.8 0-1.2-.6-1.2-1.1 0-.9.8-1.4 2.3-1.4V55c0-.3-.1-.9-.9-.9-.4 0-.7.1-1 .3l-.2-.5c.3-.2.8-.3 1.3-.3 1.2 0 1.5.8 1.5 1.6v1.4c0 .3 0 .7.1.9H99zm-.1-2c-.8 0-1.6.1-1.6.9 0 .5.3.7.7.7.5 0 .8-.3.9-.6v-1zM101.1 54.7v-1h.6v.6c.2-.4.6-.7 1.3-.7.5 0 1.4.3 1.4 1.6v2.3h-.7v-2.2c0-.6-.2-1.1-.9-1.1-.5 0-.8.3-.9.7V57.5h-.7v-2.8zM109.2 51.8v5.7h-.6v-.7c-.2.4-.7.8-1.3.8-.9 0-1.7-.8-1.7-2 0-1.3.8-2.1 1.7-2.1.6 0 1 .3 1.2.6v-2.3h.7zm-.7 3.4v-.3c-.1-.4-.5-.8-1-.8-.7 0-1.2.6-1.2 1.5 0 .8.4 1.4 1.1 1.4.5 0 .9-.3 1-.8v-1zM113.4 52.1v2.3h2.6v-2.3h.7v5.4h-.7V55h-2.6v2.5h-.7v-5.4h.7zM119 52.6c0 .2-.2.4-.4.4s-.4-.2-.4-.4.2-.4.4-.4c.2-.1.4.1.4.4zm-.8 4.9v-3.9h.7v3.9h-.7zM120.4 51.8h.7v5.7h-.7v-5.7zM122.6 51.8h.7v5.7h-.7v-5.7zM125.6 52.6c0 .2-.2.4-.4.4s-.4-.2-.4-.4.2-.4.4-.4c.2-.1.4.1.4.4zm-.8 4.9v-3.9h.7v3.9h-.7zM129.1 57.5l-.1-.5c-.2.3-.6.6-1.2.6-.8 0-1.2-.6-1.2-1.1 0-.9.8-1.4 2.3-1.4V55c0-.3-.1-.9-.9-.9-.4 0-.7.1-1 .3l-.2-.5c.3-.2.8-.3 1.3-.3 1.2 0 1.5.8 1.5 1.6v1.4c0 .3 0 .7.1.9h-.6zm-.1-2c-.8 0-1.6.1-1.6.9 0 .5.3.7.7.7.5 0 .8-.3.9-.6v-1zM131.2 54.8v-1.2h.6v.8c.2-.5.6-.8 1.1-.8h.2v.7h-.2c-.5 0-.8.4-.9.9v2.4h-.7v-2.8zM137.3 51.8v5.7h-.6v-.7c-.2.4-.7.8-1.3.8-.9 0-1.7-.8-1.7-2 0-1.3.8-2.1 1.7-2.1.6 0 1 .3 1.2.6v-2.3h.7zm-.7 3.4v-.3c-.1-.4-.5-.8-1-.8-.7 0-1.2.6-1.2 1.5 0 .8.4 1.4 1.1 1.4.5 0 .9-.3 1-.8v-1z"/></g><g class="st6"><path class="st7" d="M148.7 52.2c.3-.1.8-.1 1.3-.1.7 0 1.1.1 1.5.4.3.2.4.5.4 1s-.3 1-.9 1.2c.5.1 1.1.6 1.1 1.4 0 .5-.2.8-.5 1.1-.4.3-1 .5-1.9.5-.5 0-.8 0-1.1-.1v-5.4zm.7 2.2h.6c.7 0 1.2-.4 1.2-.9 0-.6-.5-.9-1.2-.9h-.6v1.8zm0 2.6h.6c.7 0 1.4-.3 1.4-1s-.6-1-1.4-1h-.6v2zM152.6 56.7c.3.2.8.4 1.2.4.7 0 1.1-.4 1.1-.9s-.3-.8-1-1.1c-.9-.3-1.4-.8-1.4-1.5 0-.8.7-1.5 1.7-1.5.6 0 1 .1 1.2.3l-.2.6c-.2-.1-.5-.3-1-.3-.7 0-1 .4-1 .8 0 .5.3.8 1.1 1 .9.4 1.4.8 1.4 1.6s-.6 1.6-1.9 1.6c-.5 0-1.1-.2-1.4-.3l.2-.7zM156.9 52.1v5.4h-.7v-5.4h.7zM160.5 55h-2.1v1.9h2.3v.6h-3v-5.4h2.9v.6h-2.2v1.7h2.1v.6z"/></g><g class="st6"><path class="st7" d="M82.1 61.8c.3 0 .7-.1 1.2-.1.6 0 1 .1 1.3.4.3.2.4.6.4 1s-.1.8-.4 1c-.3.3-.8.5-1.4.5h-.5v1.9h-.6v-4.7zm.6 2.3h.5c.7 0 1.2-.4 1.2-1s-.4-.9-1.1-.9h-.6v1.9zM85.9 64.2v-1.1h.5v.7c.2-.5.5-.7.9-.7h.2v.6h-.2c-.4 0-.7.3-.8.8v2.1h-.6v-2.4zM91.3 64.8c0 1.3-.9 1.8-1.7 1.8-.9 0-1.6-.7-1.6-1.7 0-1.1.7-1.8 1.7-1.8 1-.1 1.6.6 1.6 1.7zm-2.7 0c0 .7.4 1.3 1 1.3s1-.6 1-1.3c0-.6-.3-1.3-1-1.3s-1 .7-1 1.3zM94.7 66.4c-.2.1-.5.2-1 .2-1 0-1.7-.7-1.7-1.7s.7-1.8 1.8-1.8c.4 0 .7.1.9.2l-.1.5c-.1-.1-.4-.2-.7-.2-.8 0-1.2.6-1.2 1.3 0 .8.5 1.3 1.2 1.3.4 0 .6-.1.8-.2v.4zM98.4 65.6v.9h-.5v-.6c-.2.3-.5.6-1.1.6-.5 0-1.2-.3-1.2-1.5v-2h.6v2c0 .6.2 1.1.8 1.1.4 0 .7-.3.8-.6 0-.1.1-.2.1-.3v-2.1h.6v2.5zM99.6 64.2v-1.1h.5v.7c.2-.5.5-.7.9-.7h.2v.6h-.2c-.4 0-.7.3-.8.8v2.1h-.6v-2.4zM102.3 64.9c0 .8.5 1.2 1.2 1.2.4 0 .7-.1.9-.2l.1.4c-.2.1-.6.2-1.1.2-1 0-1.7-.7-1.7-1.7s.6-1.8 1.6-1.8c1.1 0 1.4 1 1.4 1.6v.3h-2.4zm1.8-.4c0-.4-.2-1-.9-1-.6 0-.9.6-.9 1h1.8zM105.6 64v-.9h.5v.5c.2-.3.5-.6 1.1-.6.5 0 .8.3 1 .7.1-.2.2-.3.4-.4.2-.2.4-.2.7-.2.4 0 1.1.3 1.1 1.5v2h-.6v-1.9c0-.7-.2-1-.7-1-.4 0-.6.3-.7.6v2.4h-.6v-2c0-.5-.2-.9-.7-.9-.4 0-.7.3-.8.6v2.3h-.6V64zM112 64.9c0 .8.5 1.2 1.2 1.2.4 0 .7-.1.9-.2l.1.4c-.2.1-.6.2-1.1.2-1 0-1.7-.7-1.7-1.7S112 63 113 63c1.1 0 1.4 1 1.4 1.6v.3H112zm1.8-.4c0-.4-.2-1-.9-1-.6 0-.9.6-.9 1h1.8zM115.3 64v-.9h.5v.6c.2-.3.6-.6 1.1-.6.5 0 1.2.3 1.2 1.4v2h-.6v-2c0-.5-.2-1-.8-1-.4 0-.7.3-.8.6v2.3h-.6V64zM120.1 62.1v1h.9v.5h-.9v1.8c0 .4.1.7.5.7h.4v.5c-.1 0-.3.1-.5.1-.3 0-.5-.1-.7-.3-.2-.2-.2-.5-.2-.9v-1.8h-.6v-.5h.5v-.8l.6-.3zM123.5 65.8c.3.2.7.3 1.1.3.6 0 1-.3 1-.8 0-.4-.3-.7-.9-.9-.8-.3-1.2-.7-1.2-1.3 0-.7.6-1.3 1.5-1.3.5 0 .8.1 1 .2l-.2.5c-.2-.1-.5-.2-.9-.2-.6 0-.9.4-.9.7 0 .4.3.7.9.9.8.3 1.2.7 1.2 1.4s-.5 1.4-1.7 1.4c-.5 0-1-.1-1.2-.3l.3-.6zM127.2 64.2v-1.1h.6v.6c.3-.4.7-.7 1.2-.7.8 0 1.4.7 1.4 1.7 0 1.2-.7 1.8-1.5 1.8-.4 0-.8-.2-1-.5v1.8h-.6v-3.6zm.6.9v.3c.1.4.5.7.9.7.7 0 1-.5 1-1.3 0-.7-.4-1.3-1-1.3-.4 0-.8.3-.9.8v.8zM131.7 64.9c0 .8.5 1.2 1.2 1.2.4 0 .7-.1.9-.2l.1.4c-.2.1-.6.2-1.1.2-1 0-1.7-.7-1.7-1.7s.6-1.8 1.6-1.8c1.1 0 1.4 1 1.4 1.6v.3h-2.4zm1.8-.4c0-.4-.2-1-.9-1-.6 0-.9.6-.9 1h1.8zM137.4 66.4c-.2.1-.5.2-1 .2-1 0-1.7-.7-1.7-1.7s.7-1.8 1.8-1.8c.4 0 .7.1.9.2l-.1.5c-.1-.1-.4-.2-.7-.2-.8 0-1.2.6-1.2 1.3 0 .8.5 1.3 1.2 1.3.4 0 .6-.1.8-.2v.4zM139 62.2c0 .2-.1.4-.4.4-.2 0-.4-.2-.4-.4s.2-.4.4-.4c.3 0 .4.1.4.4zm-.7 4.3v-3.4h.6v3.4h-.6zM142 66.5v-.4c-.2.3-.6.5-1 .5-.7 0-1-.5-1-1 0-.8.7-1.3 2-1.3v-.1c0-.3-.1-.8-.8-.8-.3 0-.6.1-.9.3l-.1-.4c.3-.2.7-.3 1.1-.3 1 0 1.3.7 1.3 1.4v1.3c0 .3 0 .6.1.8h-.7zm-.1-1.7c-.7 0-1.4.1-1.4.8 0 .4.3.6.6.6.4 0 .7-.3.8-.6v-.8zM143.7 61.5h.6v5h-.6v-5zM146.2 62.2c0 .2-.1.4-.4.4-.2 0-.4-.2-.4-.4s.2-.4.4-.4.4.1.4.4zm-.7 4.3v-3.4h.6v3.4h-.6zM147.2 65.9c.2.1.5.2.8.2.4 0 .7-.2.7-.5s-.2-.5-.6-.6c-.6-.2-.9-.6-.9-1 0-.5.4-1 1.2-1 .3 0 .6.1.8.2l-.2.4c-.1-.1-.4-.2-.7-.2-.4 0-.6.2-.6.5s.2.4.6.6c.6.2.9.5.9 1 0 .6-.5 1-1.3 1-.4 0-.7-.1-1-.2l.3-.4zM151 62.1v1h.9v.5h-.9v1.8c0 .4.1.7.5.7h.4v.5c-.1 0-.3.1-.5.1-.3 0-.5-.1-.7-.3-.2-.2-.2-.5-.2-.9v-1.8h-.5v-.5h.5v-.8l.5-.3z"/></g></g><g class="st5"><defs><path id="SVGID_13_" d="M76.4 106.9H265V157H76.4z"/></defs><clipPath id="SVGID_14_"><use xlink:href="#SVGID_13_" style="overflow:visible"/></clipPath><g class="st8"><path class="st7" d="M82.1 112.2c.3-.1.8-.1 1.3-.1.7 0 1.2.2 1.5.4.3.3.5.6.5 1.1 0 .5-.1.9-.4 1.2-.4.4-1 .6-1.6.6h-.6v2.2h-.7v-5.4zm.7 2.6c.2 0 .3.1.6.1.8 0 1.4-.4 1.4-1.2 0-.7-.5-1.1-1.3-1.1-.3 0-.5 0-.7.1v2.1zM86.7 114.9v-1.2h.6v.8c.2-.5.6-.8 1.1-.8h.2v.7h-.2c-.5 0-.8.4-.9.9v2.4h-.7v-2.8zM93 115.6c0 1.4-1 2.1-1.9 2.1-1 0-1.9-.8-1.9-2 0-1.3.8-2.1 1.9-2.1 1.1 0 1.9.8 1.9 2zm-3.1 0c0 .8.5 1.5 1.2 1.5s1.2-.6 1.2-1.5c0-.7-.3-1.5-1.2-1.5-.8 0-1.2.8-1.2 1.5zM96.9 117.4c-.2.1-.6.2-1.1.2-1.2 0-1.9-.8-1.9-2s.8-2.1 2.1-2.1c.4 0 .8.1 1 .2l-.2.5c-.2-.1-.4-.2-.8-.2-.9 0-1.4.7-1.4 1.5 0 .9.6 1.4 1.3 1.4.4 0 .7-.1.9-.2l.1.7zM101.3 116.5v1.1h-.6v-.6c-.2.3-.6.7-1.3.7-.6 0-1.3-.3-1.3-1.7v-2.3h.7v2.1c0 .7.2 1.2.9 1.2.5 0 .8-.3.9-.6 0-.1.1-.2.1-.4v-2.4h.7v2.9zM102.8 114.9v-1.2h.6v.8c.2-.5.6-.8 1.1-.8h.2v.7h-.2c-.5 0-.8.4-.9.9v2.4h-.7v-2.8zM106 115.8c0 1 .6 1.3 1.3 1.3.5 0 .8-.1 1.1-.2l.1.5c-.2.1-.7.2-1.3.2-1.2 0-1.9-.8-1.9-2s.7-2.1 1.8-2.1c1.3 0 1.6 1.1 1.6 1.8v.3H106zm2-.6c0-.4-.2-1.1-1-1.1-.7 0-1 .7-1.1 1.1h2.1zM109.9 114.7v-1h.6v.6c.2-.4.6-.7 1.2-.7.5 0 .9.3 1.1.8.1-.2.3-.4.4-.5.2-.2.5-.3.9-.3.5 0 1.3.3 1.3 1.7v2.3h-.7v-2.2c0-.7-.3-1.2-.8-1.2-.4 0-.7.3-.8.6 0 .1-.1.2-.1.4v2.4h-.7v-2.3c0-.6-.3-1.1-.8-1.1-.4 0-.8.4-.9.7 0 .1-.1.2-.1.3v2.3h-.7v-2.8zM117.3 115.8c0 1 .6 1.3 1.3 1.3.5 0 .8-.1 1.1-.2l.1.5c-.2.1-.7.2-1.3.2-1.2 0-1.9-.8-1.9-2s.7-2.1 1.8-2.1c1.3 0 1.6 1.1 1.6 1.8v.3h-2.7zm2.1-.6c0-.4-.2-1.1-1-1.1-.7 0-1 .7-1.1 1.1h2.1zM121.2 114.7v-1h.6v.6c.2-.4.6-.7 1.3-.7.5 0 1.4.3 1.4 1.6v2.3h-.7v-2.2c0-.6-.2-1.1-.9-1.1-.5 0-.8.3-.9.7V117.5h-.7v-2.8zM126.8 112.6v1.1h1v.5h-1v2.1c0 .5.1.8.5.8h.4v.5c-.1.1-.4.1-.6.1-.3 0-.6-.1-.8-.3-.2-.2-.3-.6-.3-1v-2.1h-.6v-.5h.6v-.9l.8-.3zM134.4 117.6l-.5-.5c-.5.4-1 .6-1.6.6-1 0-1.7-.7-1.7-1.5 0-.7.4-1.2 1.1-1.6-.3-.4-.4-.7-.4-1.1 0-.7.5-1.3 1.4-1.3.7 0 1.2.4 1.2 1.1 0 .6-.3 1-1.2 1.4.5.5 1 1.1 1.3 1.5.2-.4.4-.9.5-1.6h.6c-.1.8-.4 1.5-.8 2 .3.3.6.6.9 1h-.8zm-.9-1c-.3-.4-.9-1-1.5-1.7-.3.2-.7.5-.7 1.1 0 .6.5 1.1 1.1 1.1.5 0 .9-.2 1.1-.5zm-1.6-3.3c0 .4.2.7.4 1 .5-.3.9-.6.9-1.1 0-.3-.2-.7-.6-.7-.5.1-.7.4-.7.8zM138.2 112.2c.3-.1.8-.1 1.3-.1.7 0 1.2.2 1.5.4.3.3.5.6.5 1.1 0 .5-.1.9-.4 1.2-.4.4-1 .6-1.6.6h-.6v2.2h-.7v-5.4zm.7 2.6c.2 0 .3.1.6.1.8 0 1.4-.4 1.4-1.2 0-.7-.5-1.1-1.3-1.1-.3 0-.5 0-.7.1v2.1zM144.9 117.6l-.1-.5c-.2.3-.6.6-1.2.6-.8 0-1.2-.6-1.2-1.1 0-.9.8-1.4 2.3-1.4v-.2c0-.3-.1-.9-.9-.9-.4 0-.7.1-1 .3l-.2-.5c.3-.2.8-.3 1.3-.3 1.2 0 1.5.8 1.5 1.6v1.4c0 .3 0 .7.1.9h-.6zm-.1-2c-.8 0-1.6.1-1.6.9 0 .5.3.7.7.7.5 0 .8-.3.9-.6v-1zM147.2 113.7l.8 2.3c.1.3.2.6.2.8.1-.2.2-.5.2-.8l.8-2.3h.7l-1.1 2.8c-.5 1.3-.8 2-1.3 2.4-.3.3-.7.4-.9.5l-.2-.6.6-.3c.2-.2.4-.4.6-.8 0-.1.1-.1.1-.2v-.2l-1.4-3.6h.9zM151 114.7v-1h.6v.6c.2-.4.6-.7 1.2-.7.5 0 .9.3 1.1.8.1-.2.3-.4.4-.5.2-.2.5-.3.9-.3.5 0 1.3.3 1.3 1.7v2.3h-.7v-2.2c0-.7-.3-1.2-.8-1.2-.4 0-.7.3-.8.6 0 .1-.1.2-.1.4v2.4h-.7v-2.3c0-.6-.3-1.1-.8-1.1-.4 0-.8.4-.9.7 0 .1-.1.2-.1.3v2.3h-.6v-2.8zM158.4 115.8c0 1 .6 1.3 1.3 1.3.5 0 .8-.1 1.1-.2l.1.5c-.2.1-.7.2-1.3.2-1.2 0-1.9-.8-1.9-2s.7-2.1 1.8-2.1c1.3 0 1.6 1.1 1.6 1.8v.3h-2.7zm2-.6c0-.4-.2-1.1-1-1.1-.7 0-1 .7-1.1 1.1h2.1zM162.3 114.7v-1h.6v.6c.2-.4.6-.7 1.3-.7.5 0 1.4.3 1.4 1.6v2.3h-.7v-2.2c0-.6-.2-1.1-.9-1.1-.5 0-.8.3-.9.7V117.5h-.7v-2.8zM167.9 112.6v1.1h1v.5h-1v2.1c0 .5.1.8.5.8h.4v.5c-.1.1-.4.1-.6.1-.3 0-.6-.1-.8-.3-.2-.2-.3-.6-.3-1v-2.1h-.6v-.5h.6v-.9l.8-.3zM172 116.7c.3.2.8.4 1.2.4.7 0 1.1-.4 1.1-.9s-.3-.8-1-1.1c-.9-.3-1.4-.8-1.4-1.5 0-.8.7-1.5 1.7-1.5.6 0 1 .1 1.2.3l-.2.6c-.2-.1-.5-.3-1-.3-.7 0-1 .4-1 .8 0 .5.3.8 1.1 1 .9.4 1.4.8 1.4 1.6s-.6 1.6-1.9 1.6c-.5 0-1.1-.2-1.4-.3l.2-.7zM176.7 115.8c0 1 .6 1.3 1.3 1.3.5 0 .8-.1 1.1-.2l.1.5c-.2.1-.7.2-1.3.2-1.2 0-1.9-.8-1.9-2s.7-2.1 1.8-2.1c1.3 0 1.6 1.1 1.6 1.8v.3h-2.7zm2.1-.6c0-.4-.2-1.1-1-1.1-.7 0-1 .7-1.1 1.1h2.1zM180.7 114.9v-1.2h.6v.8c.2-.5.6-.8 1.1-.8h.2v.7h-.2c-.5 0-.8.4-.9.9v2.4h-.7v-2.8zM183.9 113.7l.8 2.2c.1.4.2.7.3 1 .1-.3.2-.6.3-1l.8-2.2h.7l-1.5 3.9h-.7l-1.5-3.9h.8zM188.5 112.6c0 .2-.2.4-.4.4s-.4-.2-.4-.4.2-.4.4-.4c.3 0 .4.2.4.4zm-.7 5v-3.9h.7v3.9h-.7zM192.7 117.4c-.2.1-.6.2-1.1.2-1.2 0-1.9-.8-1.9-2s.8-2.1 2.1-2.1c.4 0 .8.1 1 .2l-.2.5c-.2-.1-.4-.2-.8-.2-.9 0-1.4.7-1.4 1.5 0 .9.6 1.4 1.3 1.4.4 0 .7-.1.9-.2l.1.7zM194.2 115.8c0 1 .6 1.3 1.3 1.3.5 0 .8-.1 1.1-.2l.1.5c-.2.1-.7.2-1.3.2-1.2 0-1.9-.8-1.9-2s.7-2.1 1.8-2.1c1.3 0 1.6 1.1 1.6 1.8v.3h-2.7zm2.1-.6c0-.4-.2-1.1-1-1.1-.7 0-1 .7-1.1 1.1h2.1zM198.1 116.8c.2.1.6.3.9.3.5 0 .8-.3.8-.6s-.2-.5-.7-.7c-.7-.2-1-.6-1-1.1 0-.6.5-1.1 1.3-1.1.4 0 .7.1 1 .2l-.2.5c-.2-.1-.4-.2-.8-.2s-.6.2-.6.5.2.5.7.7c.7.3 1 .6 1 1.2 0 .7-.5 1.2-1.4 1.2-.4 0-.8-.1-1.1-.3l.1-.6z"/></g><g class="st8"><path class="st7" d="M82.1 121.4c.3 0 .7-.1 1.2-.1.6 0 1 .1 1.3.4.3.2.4.6.4 1s-.1.8-.4 1c-.3.3-.8.5-1.4.5h-.5v1.9h-.6v-4.7zm.6 2.3h.5c.7 0 1.2-.4 1.2-1s-.4-.9-1.1-.9h-.6v1.9zM84.5 125.7c0-.3.2-.4.4-.4s.4.2.4.4c0 .3-.2.4-.4.4s-.4-.2-.4-.4zM90.2 123.7c0 1.6-1 2.5-2.2 2.5-1.2 0-2.1-1-2.1-2.4 0-1.5.9-2.5 2.2-2.5 1.3 0 2.1 1 2.1 2.4zm-3.7 0c0 1 .5 1.9 1.5 1.9s1.5-.9 1.5-2c0-.9-.5-1.9-1.5-1.9-1 .1-1.5 1-1.5 2zM90.8 125.7c0-.3.2-.4.4-.4s.4.2.4.4c0 .3-.2.4-.4.4s-.4-.2-.4-.4zM93.9 121.4c.3-.1.7-.1 1.1-.1.6 0 1 .1 1.3.3.2.2.4.5.4.8 0 .5-.3.9-.8 1 .4.1 1 .5 1 1.2 0 .4-.2.7-.4.9-.3.3-.9.4-1.6.4-.4 0-.7 0-.9-.1v-4.4zm.6 1.9h.6c.6 0 1-.3 1-.8 0-.6-.4-.8-1-.8h-.5v1.6zm0 2.3h.5c.6 0 1.2-.2 1.2-.9 0-.6-.6-.9-1.2-.9h-.5v1.8zM100.8 124.3c0 1.3-.9 1.8-1.7 1.8-.9 0-1.6-.7-1.6-1.7 0-1.1.7-1.8 1.7-1.8.9 0 1.6.7 1.6 1.7zm-2.7.1c0 .7.4 1.3 1 1.3s1-.6 1-1.3c0-.6-.3-1.3-1-1.3s-1 .6-1 1.3zM101.8 122.7l.5.7.3.6.3-.6.5-.7h.7l-1.2 1.6 1.2 1.8h-.7l-.5-.8c-.1-.2-.2-.4-.4-.6-.1.2-.2.4-.4.6l-.5.8h-.7l1.2-1.7-1.1-1.7h.8zM109 121.5v.4l-2 4.1h-.6l2-4h-2.2v-.5h2.8zM109.7 126.1v-.4l.5-.5c1.2-1.1 1.7-1.7 1.7-2.4 0-.5-.2-.9-.9-.9-.4 0-.8.2-1 .4l-.2-.4c.3-.3.8-.5 1.3-.5 1 0 1.4.7 1.4 1.3 0 .8-.6 1.5-1.6 2.4l-.4.3h2v.5h-2.8zM115.2 126.1v-1.2H113v-.4l2-2.9h.7v2.8h.6v.5h-.6v1.2h-.5zm0-1.8v-2.2c-.1.3-.3.5-.4.7l-1.1 1.5h1.5zM119.6 122h-1.7l-.2 1.2h.4c.4 0 .7.1 1 .2.4.2.7.6.7 1.2 0 .9-.7 1.6-1.7 1.6-.5 0-.9-.1-1.1-.3l.2-.5c.2.1.6.3 1 .3.6 0 1.1-.4 1.1-1s-.4-1-1.3-1h-.6l.3-2.2h2.2v.5z"/></g><g class="st8"><path class="st7" d="M129.6 120.5v8.7h-.5v-8.7h.5z"/></g><g class="st8"><path class="st7" d="m134.8 126.1-1.2-4.7h.6l.6 2.4c.1.6.3 1.2.4 1.6.1-.5.2-1 .4-1.6l.6-2.4h.6l.6 2.4c.1.6.3 1.1.3 1.6.1-.5.2-1 .4-1.6l.6-2.4h.6l-1.3 4.7h-.6l-.6-2.5c-.1-.6-.2-1.1-.3-1.5-.1.5-.2.9-.4 1.5l-.7 2.5h-.6zM140.8 121.7c0 .2-.1.4-.4.4-.2 0-.4-.2-.4-.4s.2-.4.4-.4.4.2.4.4zm-.7 4.4v-3.4h.6v3.4h-.6zM141.7 123.6v-.9h.5v.6c.2-.3.6-.6 1.1-.6.5 0 1.2.3 1.2 1.4v2h-.5v-2c0-.5-.2-1-.8-1-.4 0-.7.3-.8.6v2.3h-.6v-2.4zM145.5 125.4c.2.1.5.2.8.2.4 0 .7-.2.7-.5s-.2-.5-.6-.6c-.6-.2-.9-.6-.9-1 0-.5.4-1 1.2-1 .3 0 .6.1.8.2l-.2.4c-.1-.1-.4-.2-.7-.2-.4 0-.6.2-.6.5s.2.4.6.6c.6.2.9.5.9 1 0 .6-.5 1-1.3 1-.4 0-.7-.1-1-.2l.3-.4zM149.1 121.7v1h.9v.5h-.9v1.8c0 .4.1.7.5.7h.4v.5c-.1 0-.3.1-.5.1-.3 0-.5-.1-.7-.3-.2-.2-.2-.5-.2-.9v-1.8h-.6v-.5h.5v-.8l.6-.3zM153.8 124.3c0 1.3-.9 1.8-1.7 1.8-.9 0-1.6-.7-1.6-1.7 0-1.1.7-1.8 1.7-1.8.9 0 1.6.7 1.6 1.7zm-2.7.1c0 .7.4 1.3 1 1.3s1-.6 1-1.3c0-.6-.3-1.3-1-1.3s-1 .6-1 1.3zM154.5 123.6v-.9h.5v.6c.2-.3.6-.6 1.1-.6.5 0 1.2.3 1.2 1.4v2h-.6v-2c0-.5-.2-1-.8-1-.4 0-.7.3-.8.6v2.3h-.6v-2.4zM159.9 123.9v.5h-1.7v-.5h1.7zM160.5 125.3c.3.2.7.3 1.1.3.6 0 1-.3 1-.8 0-.4-.3-.7-.9-.9-.8-.3-1.2-.7-1.2-1.3 0-.7.6-1.3 1.5-1.3.5 0 .8.1 1 .2l-.2.5c-.2-.1-.5-.2-.9-.2-.6 0-.9.4-.9.7 0 .4.3.7.9.9.8.3 1.2.7 1.2 1.4s-.5 1.4-1.7 1.4c-.5 0-1-.1-1.2-.3l.3-.6zM165.9 126.1v-.4c-.2.3-.6.5-1 .5-.7 0-1-.5-1-1 0-.8.7-1.3 2-1.3v-.1c0-.3-.1-.8-.8-.8-.3 0-.6.1-.9.3l-.1-.4c.3-.2.7-.3 1.1-.3 1 0 1.3.7 1.3 1.4v1.3c0 .3 0 .6.1.8h-.7zm-.1-1.8c-.7 0-1.4.1-1.4.8 0 .4.3.6.6.6.4 0 .7-.3.8-.6v-.8zM167.4 121.1h.6v5h-.6v-5zM169.4 124.5c0 .8.5 1.2 1.2 1.2.4 0 .7-.1.9-.2l.1.4c-.2.1-.6.2-1.1.2-1 0-1.7-.7-1.7-1.7s.6-1.8 1.6-1.8c1.1 0 1.4 1 1.4 1.6v.3h-2.4zm1.8-.5c0-.4-.2-1-.9-1-.6 0-.9.6-.9 1h1.8zM172.6 123.6v-.9h.5v.5c.2-.3.5-.6 1.1-.6.5 0 .8.3 1 .7.1-.2.2-.3.4-.4.2-.2.4-.2.7-.2.4 0 1.1.3 1.1 1.5v2h-.6v-1.9c0-.7-.2-1-.7-1-.3 0-.6.3-.7.6v2.4h-.6v-2c0-.5-.2-.9-.7-.9-.4 0-.7.3-.8.6v2.3h-.6v-2.7zM178 126.9c.2-.4.3-1.2.4-1.7l.7-.1c-.2.6-.5 1.4-.7 1.7l-.4.1zM181.4 126.1v-4.7h.7l1.5 2.4c.3.6.6 1.1.8 1.5-.1-.6-.1-1.2-.1-1.9v-2h.6v4.7h-.6l-1.5-2.4c-.3-.5-.6-1.1-.9-1.6v3.9h-.5zM189.3 125.9c-.2.1-.7.2-1.2.2-1.3 0-2.3-.8-2.3-2.4 0-1.5 1-2.5 2.5-2.5.6 0 1 .1 1.1.2l-.1.5c-.2-.1-.6-.2-1-.2-1.1 0-1.8.7-1.8 1.9s.7 1.9 1.8 1.9c.4 0 .7-.1 1-.2v.6zM191.3 126.1v-.4l.5-.5c1.2-1.1 1.7-1.7 1.7-2.4 0-.5-.2-.9-.9-.9-.4 0-.8.2-1 .4l-.2-.4c.3-.3.8-.5 1.3-.5 1 0 1.4.7 1.4 1.3 0 .8-.6 1.5-1.6 2.4l-.4.3h2v.5h-2.8zM197.8 121.5v.4l-2 4.1h-.6l2-4H195v-.5h2.8zM199.8 122.1l-.8.4-.1-.5 1-.5h.5v4.6h-.6v-4zM205.1 123.7c0 1.5-.6 2.4-1.6 2.4-.9 0-1.5-.8-1.5-2.3 0-1.5.7-2.4 1.6-2.4.9 0 1.5.9 1.5 2.3zm-2.5.1c0 1.2.4 1.9.9 1.9.6 0 .9-.7.9-1.9 0-1.1-.3-1.9-.9-1.9-.5 0-.9.7-.9 1.9zM206 125.6h.5c.4 0 .7-.2 1-.4.3-.3.5-.7.6-1.2-.3.3-.6.5-1.1.5-.8 0-1.3-.6-1.3-1.4 0-.9.6-1.6 1.6-1.6s1.5.8 1.5 1.9c0 1-.3 1.7-.8 2.1-.4.3-.8.6-1.3.6h-.6v-.5zm.2-2.6c0 .6.3 1 .9 1 .4 0 .7-.2.9-.5 0-.1.1-.1.1-.2 0-.8-.3-1.4-.9-1.4-.6 0-1 .5-1 1.1z"/></g><g class="st8"><path class="st7" d="M82 132.8v-1.1h.6v.6c.3-.4.7-.7 1.2-.7.8 0 1.4.7 1.4 1.7 0 1.2-.7 1.8-1.5 1.8-.4 0-.8-.2-1-.5v1.8H82v-3.6zm.6.9v.3c.1.4.5.7.9.7.7 0 1-.5 1-1.3 0-.7-.4-1.3-1-1.3-.4 0-.8.3-.9.8v.8zM87.5 134.4c.2.1.6.3 1 .3.8 0 1-.5 1-.9 0-.6-.6-.9-1.2-.9H88v-.5h.3c.4 0 1-.2 1-.8 0-.4-.2-.7-.8-.7-.4 0-.7.2-.9.3l-.2-.4c.2-.2.7-.4 1.2-.4.9 0 1.3.5 1.3 1.1 0 .5-.3.9-.8 1.1.6.1 1 .5 1 1.2s-.6 1.4-1.7 1.4c-.5 0-1-.2-1.2-.3l.3-.5zM91 134.4c.2.1.6.3 1 .3.8 0 1-.5 1-.9 0-.6-.6-.9-1.2-.9h-.3v-.5h.3c.4 0 1-.2 1-.8 0-.4-.2-.7-.8-.7-.4 0-.7.2-.9.3l-.2-.4c.2-.2.7-.4 1.2-.4.9 0 1.3.5 1.3 1.1 0 .5-.3.9-.8 1.1.6.1 1 .5 1 1.2s-.6 1.4-1.7 1.4c-.5 0-1-.2-1.2-.3l.3-.5zM97.1 130.9h-.5c-1 .2-1.5.9-1.6 1.6.2-.3.6-.5 1.1-.5.8 0 1.4.6 1.4 1.5 0 .8-.6 1.6-1.5 1.6-1 0-1.6-.8-1.6-1.9 0-.9.3-1.6.8-2.1.4-.4.9-.6 1.5-.7h.4v.5zm-.2 2.7c0-.7-.4-1-.9-1-.4 0-.7.2-.9.6 0 .1-.1.2-.1.3 0 .8.4 1.3 1 1.3.6-.1.9-.6.9-1.2zM98.1 134.7c0-.3.2-.4.4-.4s.4.2.4.4c0 .3-.2.4-.4.4s-.4-.2-.4-.4zM102.5 130.5v.4l-2 4.1h-.6l2-4h-2.2v-.5h2.8zM105.8 131h-1.7l-.2 1.2h.4c.4 0 .7.1 1 .2.4.2.7.6.7 1.2 0 .9-.7 1.6-1.7 1.6-.5 0-.9-.1-1.1-.3l.2-.5c.2.1.6.3 1 .3.6 0 1.1-.4 1.1-1s-.4-1-1.3-1h-.6l.3-2.2h2.2v.5zM106.7 133.9c0-.6.3-1 .9-1.2-.5-.2-.7-.6-.7-1 0-.7.6-1.2 1.4-1.2.9 0 1.3.6 1.3 1.1 0 .4-.2.8-.7 1.1.6.2.9.6.9 1.2 0 .8-.7 1.3-1.5 1.3-1.1-.1-1.6-.6-1.6-1.3zm2.4 0c0-.6-.4-.8-1-1-.5.2-.8.5-.8.9 0 .5.3.9.9.9.5 0 .9-.4.9-.8zm-1.7-2.3c0 .5.3.7.9.8.4-.1.7-.4.7-.8s-.2-.7-.8-.7c-.5 0-.8.3-.8.7zM110.3 134.7c0-.3.2-.4.4-.4s.4.2.4.4c0 .3-.2.4-.4.4s-.4-.2-.4-.4zM111.7 135.1v-.4l.5-.5c1.2-1.1 1.7-1.7 1.7-2.4 0-.5-.2-.9-.9-.9-.4 0-.8.2-1 .4l-.2-.4c.3-.3.8-.5 1.3-.5 1 0 1.4.7 1.4 1.3 0 .8-.6 1.5-1.6 2.4l-.4.3h2v.5h-2.8zM117.2 135.1v-1.2h-2.1v-.4l2-2.9h.7v2.8h.6v.5h-.6v1.2h-.6zm0-1.8v-2.2c-.1.3-.3.5-.4.7l-1.1 1.5h1.5zM120.3 131.1l-.8.4-.1-.5 1-.5h.5v4.6h-.6v-4zM122.5 135.1v-.4l.5-.5c1.2-1.1 1.7-1.7 1.7-2.4 0-.5-.2-.9-.9-.9-.4 0-.8.2-1 .4l-.2-.4c.3-.3.8-.5 1.3-.5 1 0 1.4.7 1.4 1.3 0 .8-.6 1.5-1.6 2.4l-.4.3h2v.5h-2.8z"/></g><g class="st8"><path class="st7" d="M135.3 129.5v8.7h-.5v-8.7h.5z"/></g><g class="st8"><path class="st7" d="M138.7 135.1v-2.9h-.5v-.5h.5v-.2c0-.5.1-.9.4-1.2.2-.2.5-.3.8-.3.2 0 .4 0 .5.1l-.1.5c-.1 0-.2-.1-.4-.1-.5 0-.7.5-.7 1v.2h.8v.5h-.8v2.9h-.5zM142.1 134.4c.2.1.6.3 1 .3.8 0 1-.5 1-.9 0-.6-.6-.9-1.2-.9h-.3v-.5h.3c.4 0 1-.2 1-.8 0-.4-.2-.7-.8-.7-.4 0-.7.2-.9.3l-.2-.4c.2-.2.7-.4 1.2-.4.9 0 1.3.5 1.3 1.1 0 .5-.3.9-.8 1.1.6.1 1 .5 1 1.2s-.6 1.4-1.7 1.4c-.5 0-1-.2-1.2-.3l.3-.5zM145.7 134.4c.2.1.6.3 1 .3.8 0 1-.5 1-.9 0-.6-.6-.9-1.2-.9h-.3v-.5h.3c.4 0 1-.2 1-.8 0-.4-.2-.7-.8-.7-.4 0-.7.2-.9.3l-.2-.4c.2-.2.7-.4 1.2-.4.9 0 1.3.5 1.3 1.1 0 .5-.3.9-.8 1.1.6.1 1 .5 1 1.2s-.6 1.4-1.7 1.4c-.5 0-1-.2-1.2-.3l.3-.5zM151.7 130.9h-.5c-1 .2-1.5.9-1.6 1.6.2-.3.6-.5 1.1-.5.8 0 1.4.6 1.4 1.5 0 .8-.6 1.6-1.5 1.6-1 0-1.6-.8-1.6-1.9 0-.9.3-1.6.8-2.1.4-.4.9-.6 1.5-.7h.4v.5zm-.1 2.7c0-.7-.4-1-.9-1-.4 0-.7.2-.9.6 0 .1-.1.2-.1.3 0 .8.4 1.3 1 1.3.5-.1.9-.6.9-1.2zM152.8 134.7c0-.3.2-.4.4-.4s.4.2.4.4c0 .3-.2.4-.4.4-.3 0-.4-.2-.4-.4zM157.1 130.5v.4l-2 4.1h-.6l2-4h-2.2v-.5h2.8zM160.5 131h-1.7l-.2 1.2h.4c.3 0 .7.1 1 .2.4.2.7.6.7 1.2 0 .9-.7 1.6-1.7 1.6-.5 0-.9-.1-1.1-.3l.2-.5c.2.1.6.3 1 .3.6 0 1.1-.4 1.1-1s-.4-1-1.3-1h-.6l.3-2.2h2.2v.5zM161.3 133.9c0-.6.3-1 .9-1.2-.5-.2-.7-.6-.7-1 0-.7.6-1.2 1.4-1.2.9 0 1.3.6 1.3 1.1 0 .4-.2.8-.8 1.1.6.2.9.6.9 1.2 0 .8-.7 1.3-1.5 1.3-.9-.1-1.5-.6-1.5-1.3zm2.4 0c0-.6-.4-.8-1-1-.5.2-.8.5-.8.9 0 .5.3.9.9.9.6 0 .9-.4.9-.8zm-1.6-2.3c0 .5.3.7.9.8.4-.1.7-.4.7-.8s-.2-.7-.8-.7c-.6 0-.8.3-.8.7zM165 134.7c0-.3.2-.4.4-.4s.4.2.4.4c0 .3-.2.4-.4.4s-.4-.2-.4-.4zM168.3 135.1v-1.2h-2.1v-.4l2-2.9h.7v2.8h.6v.5h-.6v1.2h-.6zm0-1.8v-2.2c-.1.3-.3.5-.4.7l-1.1 1.5h1.5zM169.9 133.9c0-.6.3-1 .9-1.2-.5-.2-.7-.6-.7-1 0-.7.6-1.2 1.4-1.2.9 0 1.3.6 1.3 1.1 0 .4-.2.8-.8 1.1.6.2.9.6.9 1.2 0 .8-.7 1.3-1.5 1.3-.9-.1-1.5-.6-1.5-1.3zm2.5 0c0-.6-.4-.8-1-1-.5.2-.8.5-.8.9 0 .5.3.9.9.9.5 0 .9-.4.9-.8zm-1.7-2.3c0 .5.3.7.9.8.4-.1.7-.4.7-.8s-.2-.7-.8-.7c-.5 0-.8.3-.8.7zM173.6 135.1v-.4l.5-.5c1.2-1.1 1.7-1.7 1.7-2.4 0-.5-.2-.9-.9-.9-.4 0-.8.2-1 .4l-.2-.4c.3-.3.8-.5 1.3-.5 1 0 1.4.7 1.4 1.3 0 .8-.6 1.5-1.6 2.4l-.4.3h2v.5h-2.8zM177.3 134.4c.2.1.6.3 1 .3.8 0 1-.5 1-.9 0-.6-.6-.9-1.2-.9h-.3v-.5h.3c.4 0 1-.2 1-.8 0-.4-.2-.7-.8-.7-.4 0-.7.2-.9.3l-.2-.4c.2-.2.7-.4 1.2-.4.9 0 1.3.5 1.3 1.1 0 .5-.3.9-.8 1.1.6.1 1 .5 1 1.2s-.6 1.4-1.7 1.4c-.5 0-1-.2-1.2-.3l.3-.5z"/></g><g class="st8"><path class="st7" d="M190.8 129.5v8.7h-.5v-8.7h.5z"/></g><g class="st8"><path class="st7" d="M196.5 134.9c-.2.1-.5.2-1 .2-1 0-1.7-.7-1.7-1.7s.7-1.8 1.8-1.8c.4 0 .7.1.9.2l-.1.5c-.1-.1-.4-.2-.7-.2-.8 0-1.2.6-1.2 1.3 0 .8.5 1.3 1.2 1.3.3 0 .6-.1.8-.2v.4zM198.7 134.4c.2.1.6.3 1 .3.8 0 1-.5 1-.9 0-.6-.6-.9-1.2-.9h-.3v-.5h.3c.4 0 1-.2 1-.8 0-.4-.2-.7-.8-.7-.4 0-.7.2-.9.3l-.2-.4c.2-.2.7-.4 1.2-.4.9 0 1.3.5 1.3 1.1 0 .5-.3.9-.8 1.1.6.1 1 .5 1 1.2s-.6 1.4-1.7 1.4c-.5 0-1-.2-1.2-.3l.3-.5zM202.2 134.4c.2.1.6.3 1 .3.8 0 1-.5 1-.9 0-.6-.6-.9-1.2-.9h-.3v-.5h.3c.4 0 1-.2 1-.8 0-.4-.2-.7-.8-.7-.4 0-.7.2-.9.3l-.2-.4c.2-.2.7-.4 1.2-.4.9 0 1.3.5 1.3 1.1 0 .5-.3.9-.8 1.1.6.1 1 .5 1 1.2s-.6 1.4-1.7 1.4c-.5 0-1-.2-1.2-.3l.3-.5zM208.3 130.9h-.5c-1 .2-1.5.9-1.6 1.6.2-.3.6-.5 1.1-.5.8 0 1.4.6 1.4 1.5 0 .8-.6 1.6-1.5 1.6-1 0-1.6-.8-1.6-1.9 0-.9.3-1.6.8-2.1.4-.4.9-.6 1.5-.7h.4v.5zm-.2 2.7c0-.7-.4-1-.9-1-.4 0-.7.2-.9.6 0 .1-.1.2-.1.3 0 .8.4 1.3 1 1.3.6-.1.9-.6.9-1.2zM209.3 134.7c0-.3.2-.4.4-.4s.4.2.4.4c0 .3-.2.4-.4.4s-.4-.2-.4-.4zM213.4 131h-1.7l-.2 1.2h.4c.3 0 .7.1 1 .2.4.2.7.6.7 1.2 0 .9-.7 1.6-1.7 1.6-.5 0-.9-.1-1.1-.3l.2-.5c.2.1.6.3 1 .3.6 0 1.1-.4 1.1-1s-.4-1-1.3-1h-.6l.3-2.2h2.2v.5zM217 131h-1.7l-.2 1.2h.4c.3 0 .7.1 1 .2.4.2.7.6.7 1.2 0 .9-.7 1.6-1.7 1.6-.5 0-.9-.1-1.1-.3l.2-.5c.2.1.6.3 1 .3.6 0 1.1-.4 1.1-1s-.4-1-1.3-1h-.6l.3-2.2h2.2v.5zM217.9 135.1v-.4l.5-.5c1.2-1.1 1.7-1.7 1.7-2.4 0-.5-.2-.9-.9-.9-.4 0-.8.2-1 .4l-.2-.4c.3-.3.8-.5 1.3-.5 1 0 1.4.7 1.4 1.3 0 .8-.6 1.5-1.6 2.4l-.4.3h2v.5h-2.8zM221.5 134.7c0-.3.2-.4.4-.4s.4.2.4.4c0 .3-.2.4-.4.4s-.4-.2-.4-.4zM223.3 134.6h.5c.4 0 .7-.2 1-.4.3-.3.5-.7.6-1.2-.3.3-.6.5-1.1.5-.8 0-1.3-.6-1.3-1.4 0-.9.6-1.6 1.6-1.6s1.5.8 1.5 1.9c0 1-.3 1.7-.8 2.1-.4.3-.8.6-1.3.6h-.6v-.5zm.2-2.6c0 .6.3 1 .9 1 .4 0 .7-.2.9-.5 0-.1.1-.1.1-.2 0-.8-.3-1.4-.9-1.4-.6 0-1 .5-1 1.1zM226.9 134.6h.5c.4 0 .7-.2 1-.4.3-.3.5-.7.6-1.2-.3.3-.6.5-1.1.5-.8 0-1.3-.6-1.3-1.4 0-.9.6-1.6 1.6-1.6s1.5.8 1.5 1.9c0 1-.3 1.7-.8 2.1-.4.3-.8.6-1.3.6h-.6v-.5zm.2-2.6c0 .6.3 1 .9 1 .4 0 .7-.2.9-.5 0-.1.1-.1.1-.2 0-.8-.3-1.4-.9-1.4-.6 0-1 .5-1 1.1zM230.3 134.4c.2.1.6.3 1 .3.8 0 1-.5 1-.9 0-.6-.6-.9-1.2-.9h-.3v-.5h.3c.4 0 1-.2 1-.8 0-.4-.2-.7-.8-.7-.4 0-.7.2-.9.3l-.2-.4c.2-.2.7-.4 1.2-.4.9 0 1.3.5 1.3 1.1 0 .5-.3.9-.8 1.1.6.1 1 .5 1 1.2s-.6 1.4-1.7 1.4c-.5 0-1-.2-1.2-.3l.3-.5zM233.9 134.4c.2.1.6.3 1 .3.8 0 1-.5 1-.9 0-.6-.6-.9-1.2-.9h-.3v-.5h.3c.4 0 1-.2 1-.8 0-.4-.2-.7-.8-.7-.4 0-.7.2-.9.3l-.2-.4c.2-.2.7-.4 1.2-.4.9 0 1.3.5 1.3 1.1 0 .5-.3.9-.8 1.1.6.1 1 .5 1 1.2s-.6 1.4-1.7 1.4c-.5 0-1-.2-1.2-.3l.3-.5z"/></g><g class="st8"><path class="st7" d="M82 140.1h.6v2.1c.1-.2.3-.3.4-.4.2-.1.4-.2.6-.2.5 0 1.2.3 1.2 1.5v2h-.6v-1.9c0-.5-.2-1-.8-1-.4 0-.7.3-.8.6v2.3H82v-5zM86.7 140.7c0 .2-.1.4-.4.4-.2 0-.4-.2-.4-.4s.2-.4.4-.4c.3 0 .4.2.4.4zm-.6 4.4v-3.4h.6v3.4h-.6zM87.8 140.1h.6v5h-.6v-5zM89.6 140.1h.6v5h-.6v-5zM92.1 140.7c0 .2-.1.4-.4.4-.2 0-.4-.2-.4-.4s.2-.4.4-.4c.3 0 .4.2.4.4zm-.7 4.4v-3.4h.6v3.4h-.6zM95.1 145.1v-.4c-.2.3-.6.5-1 .5-.7 0-1-.5-1-1 0-.8.7-1.3 2-1.3v-.1c0-.3-.1-.8-.8-.8-.3 0-.6.1-.9.3l-.1-.4c.3-.2.7-.3 1.1-.3 1 0 1.3.7 1.3 1.4v1.3c0 .3 0 .6.1.8h-.7zm-.1-1.8c-.7 0-1.4.1-1.4.8 0 .4.3.6.6.6.4 0 .7-.3.8-.6v-.8zM96.7 142.7v-1.1h.5v.7c.2-.5.5-.7.9-.7h.2v.6h-.2c-.4 0-.7.3-.8.8v2.1h-.6v-2.4zM101.9 141.7v2.9c0 .8-.2 1.3-.5 1.5-.3.3-.8.4-1.2.4-.4 0-.9-.1-1.1-.3l.2-.5c.2.1.6.3 1 .3.6 0 1.1-.3 1.1-1.2v-.4c-.2.3-.6.6-1.1.6-.8 0-1.4-.7-1.4-1.7 0-1.1.7-1.8 1.5-1.8.6 0 .9.3 1.1.6v-.5h.4zm-.6 1.3v-.3c-.1-.4-.4-.7-.9-.7-.6 0-1 .5-1 1.3 0 .7.3 1.2 1 1.2.4 0 .7-.2.9-.6V143zM106.2 145.5c-.4.2-.8.3-1.2.3-1.1 0-2.1-.8-2.1-2.2 0-1.4 1-2.7 2.6-2.7 1.2 0 2 .9 2 2s-.6 1.7-1.2 1.7c-.3 0-.5-.2-.5-.6-.2.4-.6.6-1 .6s-.8-.3-.8-.9c0-.9.7-1.7 1.7-1.7.3 0 .6.1.7.1l-.2 1.3c-.1.5 0 .8.2.8.4 0 .8-.5.8-1.3 0-1-.6-1.7-1.7-1.7s-2.1.9-2.1 2.3c0 1.2.8 1.9 1.8 1.9.4 0 .8-.1 1.1-.2l-.1.3zm-.4-3h-.4c-.6 0-1.1.6-1.1 1.3 0 .3.2.5.5.5.4 0 .8-.5.9-1l.1-.8zM108.6 141.7l.4 1.7c.1.4.2.7.3 1.1.1-.3.2-.7.3-1.1l.6-1.7h.5l.5 1.7c.1.4.2.8.3 1.1.1-.3.1-.7.3-1.1l.5-1.7h.6l-1.1 3.4h-.6l-.5-1.6c-.1-.4-.2-.7-.3-1.1-.1.4-.2.8-.3 1.1l-.5 1.6h-.6l-1-3.4h.6zM113.7 145.1v-2.9h-.5v-.5h.5v-.2c0-.5.1-.9.4-1.2.2-.2.5-.3.8-.3.2 0 .4 0 .5.1l-.1.5c-.1 0-.2-.1-.4-.1-.5 0-.7.5-.7 1v.2h.8v.5h-.8v2.9h-.5zM118.7 144.1v.9h-.5v-.6c-.2.3-.5.6-1.1.6-.5 0-1.2-.3-1.2-1.5v-2h.6v1.9c0 .6.2 1.1.8 1.1.4 0 .7-.3.8-.6 0-.1.1-.2.1-.3v-2.1h.6v2.6zM119.7 144.7c0-.3.2-.4.4-.4s.4.2.4.4c0 .3-.2.4-.4.4-.3 0-.4-.2-.4-.4zM121.7 143.5c0 .8.5 1.2 1.2 1.2.4 0 .7-.1.9-.2l.1.4c-.2.1-.6.2-1.1.2-1 0-1.7-.7-1.7-1.7s.6-1.8 1.6-1.8c1.1 0 1.4 1 1.4 1.6v.3h-2.4zm1.8-.5c0-.4-.2-1-.9-1-.6 0-.9.6-.9 1h1.8zM128 140.1v5h-.6v-.6c-.2.4-.6.7-1.2.7-.8 0-1.4-.7-1.4-1.7 0-1.1.7-1.8 1.5-1.8.5 0 .9.2 1 .5v-2h.7zm-.7 2.9v-.3c-.1-.4-.4-.7-.9-.7-.6 0-1 .6-1 1.3 0 .7.3 1.3 1 1.3.4 0 .8-.3.9-.7V143zM132 144.1v.9h-.5v-.6c-.2.3-.5.6-1.1.6-.5 0-1.2-.3-1.2-1.5v-2h.6v1.9c0 .6.2 1.1.8 1.1.4 0 .7-.3.8-.6 0-.1.1-.2.1-.3v-2.1h.6v2.6z"/></g><g class="st8"><path class="st7" d="M140.4 139.5v8.7h-.5v-8.7h.5z"/></g><g class="st8"><path class="st7" d="M145.2 145.1v-2.9h-.5v-.5h.5v-.2c0-.9.5-1.5 1.5-1.5.3 0 .7.1.9.2l-.2.5c-.1-.1-.4-.2-.7-.2-.7 0-.8.5-.8 1v.2h2v3.4h-.6v-2.9h-1.4v2.9h-.7zM148.9 142.6v-.9h.5v.6c.2-.3.6-.6 1.1-.6.5 0 1.2.3 1.2 1.4v2h-.6v-2c0-.5-.2-1-.8-1-.4 0-.7.3-.8.6v2.3h-.6v-2.4zM154.7 145.1v-.4c-.2.3-.6.5-1 .5-.7 0-1-.5-1-1 0-.8.7-1.3 2-1.3v-.1c0-.3-.1-.8-.8-.8-.3 0-.6.1-.9.3l-.1-.4c.3-.2.7-.3 1.1-.3 1 0 1.3.7 1.3 1.4v1.3c0 .3 0 .6.1.8h-.7zm-.1-1.8c-.7 0-1.4.1-1.4.8 0 .4.3.6.6.6.4 0 .7-.3.8-.6v-.8zM156.2 142.6v-.9h.5v.6c.2-.3.6-.6 1.1-.6.5 0 1.2.3 1.2 1.4v2h-.6v-2c0-.5-.2-1-.8-1-.4 0-.7.3-.8.6v2.3h-.6v-2.4zM162.6 144.9c-.2.1-.5.2-1 .2-1 0-1.7-.7-1.7-1.7s.7-1.8 1.8-1.8c.4 0 .7.1.9.2l-.1.5c-.1-.1-.4-.2-.7-.2-.8 0-1.2.6-1.2 1.3 0 .8.5 1.3 1.2 1.3.3 0 .6-.1.8-.2v.4zM163.7 143.5c0 .8.5 1.2 1.2 1.2.4 0 .7-.1.9-.2l.1.4c-.2.1-.6.2-1.1.2-1 0-1.7-.7-1.7-1.7s.6-1.8 1.6-1.8c1.1 0 1.4 1 1.4 1.6v.3h-2.4zm1.9-.5c0-.4-.2-1-.9-1-.6 0-.9.6-.9 1h1.8zM166.8 144.7c0-.3.2-.4.4-.4s.4.2.4.4c0 .3-.2.4-.4.4s-.4-.2-.4-.4zM168.7 141.7l.4 1.7c.1.4.2.7.3 1.1.1-.3.2-.7.3-1.1l.6-1.7h.5l.5 1.7c.1.4.2.8.3 1.1.1-.3.1-.7.3-1.1l.5-1.7h.6l-1.1 3.4h-.6l-.5-1.6c-.1-.4-.2-.7-.3-1.1-.1.4-.2.8-.3 1.1l-.5 1.6h-.6l-1-3.4h.6zM173.8 145.1v-2.9h-.5v-.5h.5v-.2c0-.5.1-.9.4-1.2.2-.2.5-.3.8-.3.2 0 .4 0 .5.1l-.1.5c-.1 0-.2-.1-.4-.1-.5 0-.7.5-.7 1v.2h.8v.5h-.8v2.9h-.5zM178.7 144.1v.9h-.5v-.6c-.2.3-.5.6-1.1.6-.5 0-1.2-.3-1.2-1.5v-2h.6v1.9c0 .6.2 1.1.8 1.1.4 0 .7-.3.8-.6 0-.1.1-.2.1-.3v-2.1h.6v2.6zM179.6 144.7c0-.3.2-.4.4-.4s.4.2.4.4c0 .3-.2.4-.4.4s-.4-.2-.4-.4zM181.6 143.5c0 .8.5 1.2 1.2 1.2.4 0 .7-.1.9-.2l.1.4c-.2.1-.6.2-1.1.2-1 0-1.7-.7-1.7-1.7s.6-1.8 1.6-1.8c1.1 0 1.4 1 1.4 1.6v.3h-2.4zm1.8-.5c0-.4-.2-1-.9-1-.6 0-.9.6-.9 1h1.8zM187.8 140.1v5h-.6v-.6c-.2.4-.6.7-1.2.7-.8 0-1.4-.7-1.4-1.7 0-1.1.7-1.8 1.5-1.8.5 0 .9.2 1 .5v-2h.7zm-.6 2.9v-.3c-.1-.4-.4-.7-.9-.7-.6 0-1 .6-1 1.3 0 .7.3 1.3 1 1.3.4 0 .8-.3.9-.7V143zM191.7 144.1v.9h-.5v-.6c-.2.3-.5.6-1.1.6-.5 0-1.2-.3-1.2-1.5v-2h.6v1.9c0 .6.2 1.1.8 1.1.4 0 .7-.3.8-.6 0-.1.1-.2.1-.3v-2.1h.6v2.6z"/></g></g><g class="st5"><defs><path id="SVGID_15_" d="M47 75.4h27v27H47z"/></defs><clipPath id="SVGID_16_"><use xlink:href="#SVGID_15_" style="overflow:visible"/></clipPath><path d="M60.5 102.1c7.6-2.7 13.2-9.9 13.2-20.2v-4.7s-6.6-1.5-13.2-1.5-13.2 1.5-13.2 1.5v4.7c0 10.3 5.6 17.5 13.2 20.2" style="clip-path:url(#SVGID_16_);fill:#fecf8c"/></g><path class="st5" d="M80.7 80.7c-.2-.7-.5-1.5-1.1-1.6l-.5-.1v-.4h4.3v.4l-.5.1c-.3 0-.9.1-.9.4 0 .1.2.8.3 1.1l2.3 7.2 2.9-8.6c.2-.1.3-.1.5-.2l3.2 8.8c.3-1.1 2.3-7.4 2.3-8.2 0-.3-.3-.4-.6-.4l-.7-.2v-.4h3.6v.4l-.5.1c-.2.1-.4.1-.5.3-.3.3-1.5 4-1.7 4.7l-1 3.1c-.4 1.4-.8 2.6-.9 2.9-.3.1-.3.2-.6.2l-3.2-8.7c-.5 1.2-2.7 7.5-3 8.4-.1.1-.3.2-.6.2l-3.1-9.5zM97.6 85.7c.4 0 .9-.1 1.3-.1.5 0 .9 0 1.4.1L99 82.1l-1.4 3.6zm-3.1 4.1h.3c.6-.1.6-.3 1-1.1l3.1-7.5c.1-.3.2-.6.4-.9l.4-.1 3.3 8.6c.2.6.4.9.8 1l.6.1v.3h-3.7v-.3l.7-.1c.3 0 .5-.1.5-.3 0-.1-.1-.2-.1-.3l-1-2.8c-.5-.1-1.1-.1-1.6-.1s-1 .1-1.6.1l-.8 2.1c-.2.5-.3.9-.3 1 0 .3.2.3.4.3l.9.1v.3h-3.1v-.4zM105.2 89.8h.5c.6-.1.6-.1.6-1.9v-5.2c0-1.8 0-1.9-.6-1.9h-.5v-.3h3.6v.3h-.5c-.6.1-.6.1-.6 1.9v2.2h.3c.7 0 1-.3 2.4-2.1l1-1.3c.4-.5.4-.6.4-.7 0-.2-.2-.2-.5-.2h-.5v-.3h3.3v.3h-.3c-.3 0-.5.1-.7.3-.5.4-2.3 2.4-2.5 2.7l-.7.9c.4.6 1.3 2.1 2 3 1.6 2.1 1.6 2.2 2.4 2.2v.3H113c-.7 0-1.2-.1-1.6-.6-.6-.7-1.1-1.3-1.4-1.9l-1.1-1.7c-.4-.5-.7-.6-.9-.6h-.3v2.5c0 1.8 0 1.9.6 1.9h.5v.3h-3.6v-.1zM115.2 89.8h.5c.6-.1.6-.1.6-1.9v-5.2c0-1.8 0-1.9-.6-1.9h-.5v-.3h6.4c.1.3.2.9.2 1.6v.6l-.4.1c-.3-1.6-.4-1.8-2.4-1.8h-1.2v4.1h1.3c1.2 0 1.4 0 1.5-.6l.1-.5h.4v2.7h-.4l-.1-.5c-.1-.6-.4-.6-1.5-.6h-1.3v4.3c.5.1 1.1.2 1.6.2 2.4 0 2.5-.9 2.8-2.1l.4.1c0 .9-.2 1.6-.5 2.5h-6.8v-.8zM128.2 89.7l.6-.1c.7-.1.7-.2.7-2.3v-6c0-2.1 0-2.2-.7-2.3l-.6-.1v-.4h7.7c.1.4.2 1 .2 1.8v.7l-.4.1c-.4-1.9-.4-2.1-2.9-2.1h-1.6v5.1h1.7c1.4 0 1.7 0 1.8-.7l.1-.6h.5V86h-.5l-.1-.6c-.1-.7-.4-.7-1.8-.7h-1.7v2.7c0 2.1 0 2.2 1 2.3l.6.1v.4h-4.5v-.5zM141.8 89.8c2.5 0 3.5-2.2 3.5-4.3 0-2.8-1.4-4.9-3.7-4.9-2.2 0-3.5 1.9-3.5 4.4 0 3 1.5 4.8 3.7 4.8m-5.3-4.5c0-3.2 2.5-5.2 5.3-5.2 2.7 0 5 1.7 5 5s-2.4 5.2-5.3 5.2-5-1.8-5-5M150.5 85.4h.8c1.2 0 2.4-.7 2.4-2.3 0-1.7-1.1-2.3-2.3-2.3-.3 0-.6.1-.9.1v4.5zm-2.5 4.4h.5c.6-.1.6-.1.6-1.9v-5.2c0-1.8 0-1.9-.6-1.9h-.5v-.3h3.9c1.4 0 3.4.2 3.4 2.5 0 1.4-1.2 2.2-2 2.6.2.4.7 1.4 1.1 2.1.6 1.1 1.3 2 1.6 2.2.1.1.4.1.7.1v.3h-1.1c-1 0-1.7-.7-2.1-1.5l-.6-1.1c-.4-.7-.7-1.3-.9-1.5-.2-.2-.6-.2-.9-.2h-.5v2c0 1.8 0 1.9.6 1.9h.5v.3H148v-.4zM157.5 89.8h.5c.6-.1.6-.1.6-1.9v-5.2c0-1.8 0-1.9-.6-1.9h-.5v-.3h6.4c.1.3.2.9.2 1.6v.6l-.4.1c-.3-1.6-.4-1.8-2.4-1.8H160v4.1h1.3c1.2 0 1.4 0 1.5-.6l.1-.5h.4v2.7h-.4l-.1-.5c-.1-.6-.4-.6-1.5-.6H160v4.3c.5.1 1.1.2 1.6.2 2.4 0 2.5-.9 2.8-2.1l.4.1c0 .9-.2 1.6-.5 2.5h-6.8v-.8zM169.9 84.5c1.2.7 2.4 1.3 2.4 3.1 0 2-1.9 2.8-3.4 2.8-1.2 0-1.9-.3-2.3-.6-.3-.6-.5-1.7-.5-2.6l.5-.1c.2 1.1.7 2.8 2.7 2.8 1 0 1.8-.7 1.8-1.8s-.9-1.8-2.1-2.3l-.9-.5c-.8-.5-1.6-1.4-1.6-2.5 0-1.8 1.5-2.6 3.1-2.6.9 0 1.7.2 2 .5.1.5.1 1.7.1 2h-.4c-.1-.7-.4-2-2.1-2-.9 0-1.6.6-1.6 1.6 0 .9.6 1.3 1.4 1.8l.9.4zM175.2 89.8h.5c.8-.1.8-.1.8-1.9v-7.1h-.8c-2.1 0-2.1.2-2.4 1.9h-.3V82c0-.7.1-1.4.2-1.7h8.3c.1.3.2 1 .2 1.7v.7h-.4c-.3-1.7-.4-1.9-2.4-1.9h-.9v7.1c0 1.8 0 1.9.8 1.9h.5v.3h-4.1v-.3zM83.9 95.2v.2c-.5 0-.5.1-.5.8v1.4c0 1 .3 1.6 1.1 1.6s1.2-.6 1.2-1.7V97c0-.7 0-1.1-.1-1.3 0-.2-.2-.3-.6-.3v-.2h1.7v.2c-.3 0-.5.1-.5.3 0 .2-.1.6-.1 1.3v.5c0 .6-.1 1.2-.5 1.6-.3.3-.8.5-1.2.5-.4 0-.9-.1-1.2-.4-.4-.3-.5-.8-.5-1.5v-1.5c0-.7-.1-.8-.6-.8v-.2h1.8zM91.3 99.3h.2c.3 0 .3-.3.3-1.2v-3h.3l3 3.2v-1.8c0-1.1-.1-1.1-.4-1.2h-.2v-.2H96v.2h-.2c-.3 0-.3.3-.3 1.2v3c-.1 0-.3.1-.3.1l-3-3.2v1.8c0 1 .1 1.1.4 1.1h.2v.2h-1.5v-.2zM102.4 98.5c0 .7 0 .7.3.8h.2v.2h-1.8v-.2h.2c.3 0 .3-.1.3-.8v-2.4c0-.7 0-.7-.3-.8h-.2v-.2h1.8v.2h-.2c-.3 0-.3.1-.3.8v2.4zM108.3 95.9c-.1-.3-.1-.4-.4-.5h-.2v-.2h1.9v.2h-.3c-.1 0-.3.1-.3.2s.1.2.1.3l1 2.7.9-2.6c.1-.2.1-.4.1-.4 0-.1-.1-.2-.3-.2h-.3v-.2h1.5v.2h-.2c-.3.1-.4.4-.7 1.1l-1.3 3.1c-.2.1-.2.1-.4.1l-1.1-3.8zM116.7 99.3h.2c.3-.1.3 0 .3-.8v-2.4c0-.8 0-.7-.3-.8h-.2v-.2h3.1c.1.3.1.7.1 1.1h-.2c-.2-.8-.4-.9-1.1-.9h-.6V97h.5c.6 0 .7 0 .7-.3v-.2h.2v1.3h-.2v-.2c0-.3-.1-.3-.7-.3h-.5v1.8c.2.1.4.1.7.1 1 0 1.1-.5 1.2-1h.2c0 .5-.1.8-.2 1.2h-3.2v-.1zM126.4 97.3h.3c.9 0 1-.7 1-1 0-.6-.4-1-.9-1h-.3v2zm0 1.2c0 .7 0 .7.3.8h.2v.2h-1.8v-.2h.2c.3 0 .3-.1.3-.8v-2.4c0-.7 0-.7-.3-.8h-.2v-.2h1.9c.6 0 1.6.1 1.6 1.1 0 .6-.5 1-.9 1.1.1.2.6 1.2 1.1 1.8.1.2.3.2.4.2v.2h-.6c-.7 0-.9-.4-1.1-.7l-.3-.5c-.2-.4-.2-.7-.7-.7h-.2v.9zM136.3 96.3c-.1-.3-.2-1-.9-1-.4 0-.7.3-.7.7 0 1 2.1 1 2.1 2.4 0 .9-.8 1.3-1.6 1.3-.6 0-1-.2-1.2-.3-.2-.4-.2-.7-.2-1.3l.3-.1c.1.4.3 1.3 1.2 1.3.4 0 .7-.3.7-.7 0-1.1-2.1-1-2.1-2.4 0-.8.6-1.2 1.5-1.2.5 0 .8.1 1 .2.1.3.1.7.1 1h-.2zM143.4 98.5c0 .7 0 .7.3.8h.2v.2H142v-.2h.2c.3 0 .3-.1.3-.8v-2.4c0-.7 0-.7-.3-.8h-.2v-.2h1.8v.2h-.2c-.3 0-.3.1-.3.8v2.4zM150.2 95.4h-.3c-.8 0-.8.2-1 .9h-.2c0-.1.1-1 .1-1.1h3.7c0 .1.1 1 .1 1.1h-.2c-.2-.7-.2-.9-1-.9h-.3v3.2c0 .7 0 .7.4.8h.2v.2h-2.1v-.2h.2c.4-.1.4-.1.4-.8v-3.2zM158.1 99.3h.3c.3 0 .3-.2.3-.4v-.4c0-.7-.1-.9-.3-1.3l-.9-1.7c-.1-.1-.1-.1-.3-.2h-.1v-.2h1.9v.2l-.3.1c-.1 0-.2 0-.2.1s.1.2.2.5l.8 1.5.7-1.5c.1-.2.1-.4.1-.4 0-.1-.1-.1-.2-.1h-.3v-.2h1.5v.2h-.2c-.1 0-.2.1-.4.4l-.6 1.1c-.4.7-.4.9-.4 1.7v.4c0 .2 0 .3.3.4h.3v.2h-2v-.4zM60.5 83c.8-1 1.7-1.9 2.6-2.7 1.1-1 2.2-1.8 3.4-2.5-1.9-.2-4-.4-6.1-.4V83zM61.6 84.4c1.5 2.1 2.6 4.4 3.4 6.9.9-3.2 2.8-6.2 5.3-8.4.6-.5 1.2-1 1.8-1.4v-3c-.6-.1-1.5-.3-2.5-.4-3.1 1.5-5.9 3.6-8 6.3M68.5 93.9c1.9-2.8 3.1-6.3 3.4-10.1-3 2.4-5.2 6-5.8 10.2-.1 1-.2 1.9-.2 2.9 1-.9 1.9-1.9 2.6-3M60.5 100.3c1.3-.5 2.6-1.2 3.7-2 0-1-.1-2.1-.2-3.1-.5-3.4-1.7-6.5-3.5-9.2v14.3z"/><path class="st5" d="M52.5 93.9c-1.9-2.8-3.1-6.3-3.4-10.1 3 2.4 5.2 6 5.8 10.2.1 1 .2 1.9.2 2.9-1-.9-1.9-1.9-2.6-3m-1-15.8c3.1 1.4 5.8 3.6 8 6.3-1.5 2.1-2.6 4.4-3.4 6.9-.9-3.2-2.8-6.2-5.3-8.4-.6-.5-1.2-1-1.8-1.4v-3c.6-.1 1.5-.2 2.5-.4m9 7.8V83c-.8-1-1.7-1.9-2.6-2.7-1.1-.9-2.2-1.8-3.4-2.5 1.9-.2 4-.4 6.1-.4v-1.7c-6.7 0-13.2 1.5-13.2 1.5v4.7c0 10.3 5.6 17.5 13.2 20.2v-1.8c-1.3-.5-2.6-1.2-3.7-2 0-1 .1-2.1.2-3.2.4-3.4 1.6-6.5 3.4-9.2"/></g><g class="st0"><defs><path id="SVGID_17_" d="M0 0h294v186H0z"/></defs><clipPath id="SVGID_18_"><use xlink:href="#SVGID_17_" style="overflow:visible"/></clipPath><path d="M273 171v15m0-171V0M21 171v15m0-171V0m258 165h15m-279 0H0M279 21h15M15 21H0" style="clip-path:url(#SVGID_18_);fill:none;stroke:#fff;stroke-width:1.25;stroke-miterlimit:10"/><path d="M273 171v15m0-171V0M21 171v15m0-171V0m258 165h15m-279 0H0M279 21h15M15 21H0" style="clip-path:url(#SVGID_18_);fill:none;stroke:#000;stroke-width:.25;stroke-miterlimit:10"/></g></svg>