<svg version="1.1" id="Layer_1" xmlns="http://www.w3.org/2000/svg" x="0" y="0" width="664.9" height="800" style="enable-background:new 0 0 664.9 800" xml:space="preserve"><style>.st0{fill:#6ebf4d;stroke:#20231e;stroke-width:2.0579;stroke-miterlimit:10}.st1{fill:#6dbe4d}</style><path class="st1" d="M136.9 331.3s75.8-96 75.8-111.8l-1.4 294.2s27 22.6 66.9 3.6L304 223s-35.7 5.6-35.7 12.7l55-114.8v558.2s-28.7-83.8-47.9-109.1c-12.2-16-91.6-7.1-122.9 42.2l21.6-294.1s-16.8 0-37.2 13.2zM528 331.3s-75.8-96-75.8-111.8l1.4 294.2s-27 22.6-66.9 3.6L360.8 223s35.7 5.6 35.7 12.7l-55-114.8v558.2s28.7-83.8 47.9-109.1c12.2-16 91.6-7.1 122.9 42.2l-21.6-294.1s16.9 0 37.3 13.2z"/><ellipse cx="332.4" cy="400" rx="280.6" ry="353.1" style="fill:none;stroke:#6dbe4d;stroke-width:36;stroke-miterlimit:10"/></svg>