<svg version="1.1" id="Layer_1" xmlns="http://www.w3.org/2000/svg" x="0" y="0" width="528.7" height="187.6" style="enable-background:new 0 0 528.7 187.6" xml:space="preserve"><style>.st1{display:none}.st2,.st3{display:inline;fill:#717073}.st3{fill:#e11e34}.st6{fill:#fff}</style><path style="fill:#809ead" d="M0 0h528.7v187.6H0z"/><path d="M1097.3 0H1626v187.6h-528.7zM548.7 0h528.7v187.6H548.7z"/><path d="M398.3 76.9h-10.1v-9.3h10.1v9.3zm0 35.3h3.6v6.3h-17.1v-6.3h3.5V90.5h-3.5v-6.3h13.6v28zm25.1-28.6c-9.9 0-17.6 7.9-17.6 17.7 0 10.3 7.8 17.7 17.6 17.7 9.9 0 17.6-7.5 17.6-17.7 0-9.8-7.8-17.7-17.6-17.7m-.1 27c-5.2 0-8.1-4.3-8.1-9.3 0-4.9 2.9-9.2 8.1-9.2 5.1 0 8.1 4.3 8.1 9.2 0 5-2.9 9.3-8.1 9.3m-46.3 1.6h3.5v6.3h-16.8v-6.3h3.2v-10.8c0-.4 0-2-.1-2.5-.1-2.7-1.2-6.7-5.8-6.7-5.7 0-6.1 5.3-6.1 6.9v13h3.2v6.3h-16.8v-6.3h3.5V73.9h-3.5v-6.3H355v20.2c2-3.1 5.7-4.4 9.2-4.4 3.2 0 7.4 1.3 9.5 3.9 2.8 3.3 3.2 6.4 3.2 12.4v12.5z" style="fill:#820024"/><path d="M311.7 66.5c-14.7 0-26.4 11.9-26.4 26.6 0 14.7 11.7 26.6 26.4 26.6s26.4-11.9 26.4-26.6c.1-14.7-11.7-26.6-26.4-26.6m0 48.8c-12.1 0-21.8-10-21.8-22.2s9.7-22.2 21.8-22.2c12.1 0 21.8 10 21.8 22.2s-9.6 22.2-21.8 22.2" style="fill:#e31937"/><path class="st6" d="m106.8 73.3-2.1 11.3h5.9l2.1-11.3h8l-2.1 11.3h5.2v6.9h-6.4L116 99h5.1v6.9h-6.4l-2 10.9h-8l2.1-10.9h-6l-2.1 10.9h-8l2-10.9h-5.1V99H94l1.4-7.5h-5.1v-6.9h6.4l2.1-11.3h8zm-3.3 18.2-1.4 7.5h5.9l1.4-7.5h-5.9zM160.3 71.7v7.5h-13.4v37.6h-9.7V79.2h-13.4v-7.5h36.5z"/><path class="st6" d="M182.8 92.8c.9 2 1.5 5.6 1.5 8.6 0 .9 0 1.2-.1 2h-21.1c0 6 2.3 8.4 6.4 8.4 2.9 0 4.7-1.4 5.5-4.4h8.4c-.7 7.5-6.5 10.5-14 10.5-9.8 0-15.2-5.4-15.2-16.2 0-10.4 5.3-17.3 15.4-17.5 6.1 0 10.6 2.7 13.2 8.6zm-7.9 4.8c0-4.5-1.9-7-5.5-7-3.4 0-5.7 2.4-5.9 7h11.4zM213.8 87.5c2 1.7 3.1 4.4 3.1 8.3l.1 11.5c0 3.9.2 7 .7 9.4h-8.4c-.1-.8-.2-1.5-.2-2.1-.1-.6-.1-1.3-.1-2.2-2.2 3.2-4.9 5.1-9.5 5.1-1.8 0-4.2-.2-6-1.2-2.6-1.4-4.6-4.6-4.6-7.9 0-4.6 2.1-7.5 5.4-9.4s7.5-2.4 12.2-2.4h1.6v-1.2c0-3.6-1.5-5.5-4.6-5.5-1.6 0-3 .8-3.7 2.2-.3.7-.4 1.4-.4 2.4h-9c.1-7.4 6.2-10 13-10 4-.2 7.9.8 10.4 3zm-11.4 24c3.9 0 5.7-3.6 5.7-8v-1.6l-1.6-.1c-5.7 0-8.5 2.1-8.5 5.2-.1 2.6 1.8 4.5 4.4 4.5zM263.9 84.7c4.1 0 7.2 1.6 8.9 4 1.6 2.2 2.2 4.6 2.2 8.7v19.4h-9.3v-19c0-4.6-1.7-6.7-5.3-6.7-3.9 0-5.7 2.6-5.7 8.4v17.2h-9.3v-19c0-3.4-.7-6.7-5.2-6.7-3.7 0-5.8 1.9-5.8 6.9v18.8h-9.3v-26c0-1.1-.1-3.1-.3-5.5h8.9l.3 4.1c2.3-3.3 5.6-4.7 9.7-4.7 5 0 8.3 2.1 9.9 5.9 2.2-3.7 5.4-5.8 10.3-5.8z"/><g><path class="st6" d="M947 76.9h-10.1v-9.3H947v9.3zm0 35.3h3.6v6.3h-17.1v-6.3h3.5V90.5h-3.5v-6.3H947v28zm25-28.6c-9.9 0-17.6 7.9-17.6 17.7 0 10.3 7.8 17.7 17.6 17.7 9.9 0 17.6-7.5 17.6-17.7 0-9.8-7.7-17.7-17.6-17.7m0 27c-5.2 0-8.1-4.3-8.1-9.3 0-4.9 2.9-9.2 8.1-9.2 5.1 0 8.1 4.3 8.1 9.2 0 5-3 9.3-8.1 9.3m-46.4 1.6h3.5v6.3h-16.8v-6.3h3.2v-10.8c0-.4 0-2-.1-2.5-.1-2.7-1.2-6.7-5.8-6.7-5.7 0-6.1 5.3-6.1 6.9v13h3.2v6.3h-16.8v-6.3h3.5V73.9h-3.5v-6.3h13.6v20.2c2-3.1 5.7-4.4 9.2-4.4 3.2 0 7.4 1.3 9.5 3.9 2.8 3.3 3.2 6.4 3.2 12.4v12.5zM860.4 66.5C845.7 66.5 834 78.4 834 93c0 14.7 11.7 26.6 26.4 26.6s26.4-11.9 26.4-26.6c0-14.6-11.7-26.5-26.4-26.5m0 48.8c-12.1 0-21.8-10-21.8-22.2s9.7-22.2 21.8-22.2c12.1 0 21.8 10 21.8 22.2s-9.7 22.2-21.8 22.2"/></g><g><path class="st6" d="m655.5 73.3-2.1 11.3h5.9l2.1-11.3h8l-2.1 11.3h5.2v6.9h-6.4l-1.4 7.5h5.1v6.9h-6.4l-2 10.9h-8l2.1-10.9h-6l-2.1 10.9h-8l2-10.9h-5.1V99h6.4l1.4-7.5H639v-6.9h6.4l2.1-11.3h8zm-3.3 18.2-1.4 7.5h5.9l1.4-7.5h-5.9zM709 71.7v7.5h-13.4v37.6h-9.7V79.2h-13.4v-7.5H709z"/><path class="st6" d="M731.5 92.8c.9 2 1.5 5.6 1.5 8.6 0 .9 0 1.2-.1 2h-21.1c0 6 2.3 8.4 6.4 8.4 2.9 0 4.7-1.4 5.5-4.4h8.4c-.7 7.5-6.5 10.5-14 10.5-9.8 0-15.2-5.4-15.2-16.2 0-10.4 5.3-17.3 15.4-17.5 6.1 0 10.5 2.7 13.2 8.6zm-8 4.8c0-4.5-1.9-7-5.5-7-3.4 0-5.7 2.4-5.9 7h11.4zM762.4 87.5c2 1.7 3.1 4.4 3.1 8.3l.1 11.5c0 3.9.3 7 .7 9.4H758c-.1-.8-.2-1.5-.2-2.1-.1-.6-.1-1.3-.1-2.2-2.2 3.2-4.9 5.1-9.5 5.1-1.8 0-4.2-.2-6-1.2-2.6-1.4-4.6-4.6-4.6-7.9 0-4.6 2.1-7.5 5.4-9.4 3.2-1.9 7.5-2.4 12.2-2.4h1.6v-1.2c0-3.6-1.5-5.5-4.6-5.5-1.6 0-3 .8-3.7 2.2-.3.7-.4 1.4-.4 2.4h-9c.1-7.4 6.2-10 13-10 4-.2 7.8.8 10.3 3zm-11.3 24c3.9 0 5.7-3.6 5.7-8v-1.6l-1.6-.1c-5.7 0-8.5 2.1-8.5 5.2-.1 2.6 1.8 4.5 4.4 4.5zM812.6 84.7c4.1 0 7.2 1.6 8.9 4 1.6 2.2 2.2 4.6 2.2 8.7v19.4h-9.3v-19c0-4.6-1.7-6.7-5.3-6.7-3.9 0-5.7 2.6-5.7 8.4v17.2h-9.3v-19c0-3.4-.7-6.7-5.2-6.7-3.7 0-5.8 1.9-5.8 6.9v18.8h-9.3v-26c0-1.1-.1-3.1-.3-5.5h8.9l.3 4.1c2.3-3.3 5.5-4.7 9.7-4.7 5 0 8.3 2.1 9.9 5.9 2.1-3.7 5.4-5.8 10.3-5.8z"/></g><g><path class="st6" d="m1203.4 73.3-2.1 11.3h5.9l2.1-11.3h8l-2.1 11.3h5.2v6.9h-6.4l-1.4 7.5h5.1v6.9h-6.4l-2 10.9h-8l2.1-10.9h-6l-2.1 10.9h-8l2-10.9h-5.1V99h6.4l1.4-7.5h-5.1v-6.9h6.4l2.1-11.3h8zm-3.3 18.2-1.4 7.5h5.9l1.4-7.5h-5.9zM1256.9 71.7v7.5h-13.4v37.6h-9.7V79.2h-13.4v-7.5h36.5z"/><path class="st6" d="M1279.5 92.8c.9 2 1.5 5.6 1.5 8.6 0 .9 0 1.2-.1 2h-21.1c0 6 2.3 8.4 6.4 8.4 2.9 0 4.7-1.4 5.5-4.4h8.4c-.7 7.5-6.5 10.5-14 10.5-9.8 0-15.2-5.4-15.2-16.2 0-10.4 5.3-17.3 15.4-17.5 6.1 0 10.5 2.7 13.2 8.6zm-8 4.8c0-4.5-1.9-7-5.5-7-3.4 0-5.7 2.4-5.9 7h11.4zM1310.4 87.5c2 1.7 3.1 4.4 3.1 8.3l.1 11.5c0 3.9.2 7 .7 9.4h-8.4c-.1-.8-.2-1.5-.2-2.1-.1-.6-.1-1.3-.1-2.2-2.2 3.2-4.9 5.1-9.5 5.1-1.8 0-4.2-.2-6-1.2-2.6-1.4-4.6-4.6-4.6-7.9 0-4.6 2.1-7.5 5.4-9.4 3.2-1.9 7.5-2.4 12.2-2.4h1.6v-1.2c0-3.6-1.5-5.5-4.6-5.5-1.6 0-3 .8-3.7 2.2-.3.7-.4 1.4-.4 2.4h-9c.1-7.4 6.2-10 13-10 4-.2 7.9.8 10.4 3zm-11.4 24c3.9 0 5.7-3.6 5.7-8v-1.6l-1.6-.1c-5.7 0-8.5 2.1-8.5 5.2 0 2.6 1.8 4.5 4.4 4.5zM1360.5 84.7c4.1 0 7.2 1.6 8.9 4 1.6 2.2 2.2 4.6 2.2 8.7v19.4h-9.3v-19c0-4.6-1.7-6.7-5.3-6.7-3.9 0-5.7 2.6-5.7 8.4v17.2h-9.3v-19c0-3.4-.7-6.7-5.2-6.7-3.7 0-5.8 1.9-5.8 6.9v18.8h-9.3v-26c0-1.1-.1-3.1-.3-5.5h8.9l.3 4.1c2.3-3.3 5.6-4.7 9.7-4.7 5 0 8.3 2.1 9.9 5.9 2.2-3.7 5.4-5.8 10.3-5.8z"/><g><path class="st6" d="M1435.6 109.7h5.4V77.2h-5.4v-6.7h20.5c7.8 0 16.9.2 16.9 11.2 0 6.1-2.9 9.7-8.8 10.4v.1c5.5.2 10.1 4.6 10.1 10.7 0 13.8-11.9 13.4-18.6 13.4h-20.1v-6.6zm14.4-20h5.2c4.3 0 8.9-.9 8.9-6.6 0-5.5-4.6-5.9-8.6-5.9h-5.4v12.5zm0 20h6c5.6 0 9.3-1 9.3-7.2 0-6.6-4.7-6.6-9.3-6.6h-6.1v13.8zM1479.2 109.7h5.4V77.2h-5.4v-6.7h19.9l9 34h.1l8.9-34h20v6.7h-5.4v32.5h5.4v6.7h-18.9v-6.7h4.9V77.2h-.1l-10.7 39.2h-9.3l-10.7-39.2h-.1v32.5h4.9v6.7h-17.8v-6.7zM1419.6 113.6h-4.3V94.3h4.3v19.3M1412.3 96.5v18.7h-4.3V96.5h4.3zM1404.3 114.5h-4.3V99.3h4.3v15.2M1397.7 100.9v12.7h-4.3v-12.7h4.3M1420.3 82.3l-8.1 2.3 1.2 1.3.6-.6 2.3 2.8s-.2.1-.5.4l1.3 1.3 3.2-7.5"/><path class="st6" d="m1414.1 85.3-.6.6c-8.8 9.1-20.1 12.3-20.1 12.3 11.1-1 20.4-8 22.5-9.8.3-.2.5-.4.5-.4l-2.3-2.7"/><path class="st6" d="m1412 84.6 5.1 4.9 3-7.3z"/><path class="st6" d="M1393.3 98.2s11.8-3.5 20.5-13l2.3 2.6c.1 0-10.1 9-22.8 10.4zM1397.9 100.7h-4.2l-.4.2h4.4l.2-.2"/><path class="st6" d="m1397.9 100.7-.2.2v12.7l.2-.2v-12.7M1404.5 99.1h-4.2l-.4.2h4.4l.2-.2"/><path class="st6" d="m1404.5 99.1-.2.2v15.2l.2-.2V99.1M1408 96.5l.4-.2h4.2l-.3.2z"/><path class="st6" d="m1412.3 96.5.3-.2v18.6l-.3.2zM1419.8 94.1h-4.2l-.3.2h4.3l.2-.2"/><path class="st6" d="m1419.8 94.1-.3.2v19.3l.3-.2V94.1M1419.6 94.3v19.3-19.3M1409.3 71.7c10.2 1 18.3 9.1 19.3 19.3h2.8c-1-11.7-10.4-21.1-22.1-22.1v2.8z"/><path class="st6" d="m1409.3 71.7-.2 2.1c4.6.4 8.7 2.5 11.8 5.6 3.1 3.1 5.1 7.2 5.6 11.8l.2 1.9h7.1l-.2-2.3c-.5-6.4-3.4-12.1-7.6-16.4-4.3-4.3-10-7.1-16.4-7.6l-2.3-.2v7.1l1.9.2.1-2.2h2.2v-2.8h-2.2l-.2 2.1c5.3.5 10.1 2.8 13.7 6.4 3.6 3.6 5.9 8.4 6.4 13.7l2.1-.2v-2.2h-2.8V91l2.1-.2c-.5-5.6-3.1-10.6-6.8-14.4-3.8-3.8-8.8-6.3-14.4-6.8l-.1 2.1h2.2-2.2zM1385.9 91c1-10.2 9.1-18.3 19.3-19.3v-2.8c-11.7 1-21.1 10.4-22.1 22.1h2.8z"/><path class="st6" d="m1385.9 91 2.1.2c.4-4.6 2.5-8.7 5.6-11.8 3.1-3.1 7.2-5.1 11.8-5.6l1.9-.2v-7.1l-2.3.2c-6.4.5-12.1 3.4-16.4 7.6-4.3 4.3-7.1 10-7.6 16.4l-.2 2.3h7.1l.2-1.9-2.2-.1v-2.2h-2.8V91l2.1.2c.5-5.3 2.8-10.1 6.4-13.7 3.6-3.6 8.4-5.9 13.7-6.4l-.2-2.1h-2.2v2.8h2.2l-.2-2.1c-5.6.5-10.6 3.1-14.4 6.8-3.8 3.8-6.3 8.8-6.8 14.4l2.2.1v-2.2V91zM1428.6 95.1c-1 10.2-9.1 18.3-19.3 19.3v2.8c11.7-1 21.1-10.4 22.1-22.1h-2.8z"/><path class="st6" d="m1428.6 95.1-2.1-.2c-.4 4.6-2.5 8.7-5.6 11.8-3.1 3.1-7.2 5.1-11.8 5.6l-1.9.2v7.1l2.3-.2c6.4-.5 12.1-3.4 16.4-7.6 4.3-4.3 7.1-10 7.6-16.4l.2-2.3h-7.1l-.2 1.9 2.2.1v2.2h2.8v-2.2l-2.1-.2c-.5 5.3-2.8 10.1-6.4 13.7-3.6 3.6-8.4 5.9-13.7 6.4l.2 2.1h2.2v-2.8h-2.2l.2 2.1c5.6-.5 10.6-3.1 14.4-6.8 3.8-3.8 6.3-8.8 6.8-14.4l-2.2-.1v2.2-2.2zM1405.1 114.4c-10.2-1-18.3-9.1-19.3-19.3h-2.8c1 11.7 10.4 21.1 22.1 22.1v-2.8z"/><path class="st6" d="m1405.1 114.4.2-2.1c-4.6-.4-8.7-2.5-11.8-5.6-3.1-3.1-5.1-7.2-5.6-11.8l-.2-1.9h-7.1l.2 2.3c.5 6.4 3.4 12.1 7.6 16.4 4.3 4.3 10 7.1 16.4 7.6l2.3.2v-7.1l-1.9-.2-.1 2.2h-2.2v2.8h2.2l.2-2.1c-5.3-.5-10.1-2.8-13.7-6.4-3.6-3.6-5.9-8.4-6.4-13.7l-2.1.2v2.2h2.8v-2.2l-2.1.2c.5 5.6 3.1 10.6 6.8 14.4 3.8 3.8 8.8 6.3 14.4 6.8l.1-2.2h-2.2 2.2z"/></g></g><g><path d="m2011.8 106.4 1-.4c0-.1-.1-.2-.1-.3-.1-.2-.2-.4-.4-.6-.1-.1-.2-.2-.4-.3-.2-.1-.3-.1-.5-.1-.3 0-.5.1-.7.2-.2.1-.3.3-.5.4-.4.5-.7 1-1.1 1.5-.2.3-.2.6-.2.8V108.2h.2l-.2-.1h.2l-.2-.1.4.2-.3-.3-.1.1.4.2-.3-.3.2.2-.2-.3.2.2-.2-.3.1.1-.1-.1.1.1-.1-.1c-.2.1-.5.2-.7.5-.2.2-.3.6-.3.9 0 .2.1.4.1.6.1.2.2.3.3.4l.1.1h.1-.1.1-.1.1-.1.1-.1v.3c0 .2 0 .4.1.5v.1h.5l-.4-.2v.2h.5l-.4-.2.7.3-.5-.5c-.1.1-.1.2-.1.2l.7.3-.5-.5.5.5-.2-.6c-.1 0-.2.1-.3.2l.5.5-.2-.6.1.3v-.3l.1.3v-.3h-.2c-.2 0-.4 0-.6.1-.2 0-.4.1-.6.3-.2.1-.3.3-.4.4-.1.2-.2.4-.2.6v1.1l.3.1-.2-.2v.1l.3.1-.2-.2.3.2-.2-.3-.1.1.3.2-.2-.3.4.6-.2-.7c-.1 0-.2.1-.2.1l.4.6-.2-.7c-.6.2-1.2.3-1.9.4v.2-.2.2-.2h-.2l-.1.5.2-.5h-.1l-.1.5.2-.5-.3.7.6-.4-.3-.3-.3.7.6-.4-.6.4h.7c0-.1 0-.2-.1-.4l-.6.4h.7-.7l.7.1v-.1h-.7l.7.1v-.1c0-.2 0-.3-.1-.5-.1-.3-.3-.5-.4-.7-.2-.2-.4-.3-.5-.4l-.2.5.4-.3s0-.1-.2-.1l-.2.5.4-.3-.4.3.5-.1c0-.2-.1-.2-.1-.2l-.4.3.5-.1c0-.2-.1-.4-.2-.5-.1-.3-.4-.5-.6-.7-.3-.2-.5-.2-.8-.3v.2-.2.2-.2h-.2c-.2 0-.4-.1-.4-.1l-.2.3.3-.2-.1-.1-.2.3.3-.2-.3.3.4-.2-.1-.1-.3.3.4-.2-.2.1.2-.1-.2.1.2-.1V110.3c0-.2 0-.3-.1-.5-.1-.3-.3-.5-.5-.7-.3-.2-.6-.3-.9-.3-.2 0-.4 0-.6.1-.1 0-.3.1-.5.1-.2.1-.4.1-.7.3-.5.3-1 .6-1.4.9-.2.1-.3.3-.3.4-.1.2-.2.3-.2.3v.1l.1.1-.1-.1.1.1-.1-.1.4.2-.3-.2.4.2-.3-.2.4.3-.3-.4-.1.1.4.3-.3-.4.4.6v-.8c-.2 0-.4.1-.4.1l.4.6v-.8.8l.3-.7c-.1 0-.2-.1-.3-.1v.8l.3-.7-.2.5.4-.4-.1-.1-.2.5.4-.4c-.1-.1-.3-.2-.4-.3-.2-.1-.4-.1-.6-.1-.3 0-.5.1-.7.2-.2.1-.3.2-.4.3l.3.4-.2-.4c-.1 0-.1.1-.1.1l.3.4-.2-.4.3.7v-.8c-.1 0-.2 0-.3.1l.3.7v-.8.8l.3-.8c-.1 0-.2-.1-.3-.1v.8l.3-.8-.3.7.5-.5s-.1-.1-.3-.2l-.3.7.5-.5-.3.2.3-.2-.3.2.3-.2h-.1.1-.1.1c-.2-.3-.4-.6-.7-.9-.3-.2-.7-.3-1.1-.3h-.2c-.1-.1-.3-.2-.5-.3-.2-.1-.5-.2-.7-.2-.2 0-.4 0-.6.1-.2.1-.3.2-.5.3l.5.5-.2-.7c-.1 0-.1 0-.3.1l.5.5-.2-.7.1.4v-.4h-.1l.1.4v-.4.5l.1-.5h-.1v.5l.1-.5h-.2c-.1 0-.3 0-.5.1-.1 0-.3.1-.4.2-.2.2-.3.4-.4.5-.1.2-.1.3-.1.5l.5.1-.4-.2v.1l.5.1-.4-.2.7.4-.4-.7c-.2.1-.3.2-.3.3l.7.4-.4-.7.4.7v-.8c-.1 0-.2 0-.4.1l.4.7v-.8.4l.1-.4h-.1v.4l.1-.4h-.1c-.2-.1-.3-.1-.3-.1l-.1.1.1-.1-.1.1.1-.1h-.1.1-.1.1c-.1-.2-.2-.3-.2-.4l-.3-.3-.1-.1-.1.1.1-.1-.1.1.1-.1c-.1-.1-.2-.1-.2-.2h-.1l-.4.5.5-.5-.1-.1-.4.5.5-.5-.7.7.9-.3c-.1-.2-.2-.3-.2-.4l-.7.7.9-.3c-.1-.4-.4-.8-.7-1.1-.3-.3-.6-.4-.8-.5-.1-.1-.3-.1-.4-.2-.2-.1-.4-.1-.6-.1-.2 0-.4 0-.5.1-.1 0-.2.1-.4.1s-.3 0-.6-.1c-.2-.1-.5-.1-.7-.2l-.2.5.4-.3c-.1-.1-.2-.2-.3-.2l-.2.5.4-.3-.5.3h.6c0-.1 0-.2-.1-.3l-.5.3h.6-.3.3-.3.3v-.4c0-.3-.1-.7-.2-1-.2-.3-.4-.6-.6-.8l-.4.5.6-.3-.2-.2-.4.5.6-.3-.2.1.3-.1-.2.1.3-.1v-.1c0-.2 0-.4-.1-.6 0-.2-.1-.3-.2-.5-.1-.1-.2-.3-.3-.4-.2-.2-.4-.3-.6-.3-.2-.1-.3-.1-.5-.1-.1 0-.2 0-.3-.1l-.1.3.2-.3h-.1l-.1.3.2-.3-.3.5.6-.3c-.1-.1-.2-.2-.2-.3l-.3.5.6-.3-.4.2h.4s0-.1-.1-.2l-.4.2h.4-.9l.9.1v-.1h-.9l.9.1v-.5c0-.1-.1-.2-.1-.4-.1-.2-.3-.4-.5-.6-.2-.1-.5-.2-.7-.2-.4 0-.6.1-.8.2-.3.2-.6.3-.8.4h-.1l.1.3v-.3h-.1l.1.3v-.3.5l.2-.5c-.1 0-.2-.1-.2-.1v.5l.2-.5-.2.4.3-.3s-.1 0-.1-.1l-.2.4.3-.3-.2.2.2-.2-.2.2.2-.2-.1.1.1-.1-.1.1.1-.1c-.3-.4-.7-.7-1-.9-.2-.1-.3-.2-.5-.2h-.4c-.2 0-.4 0-.6.1-.3.1-.5.2-.6.3l-.2.2.7.9h1.1c.3-12.3.6-24.7 1-37h-1.1v1.1c4.8 0 9.6-.1 14.4-.1v-1.1l-1.1.2c0 .1 0 .2.1.3 0 .1.1.2.1.3 0 .1.1.2.2.3.1.2.4.3.6.4.2.1.4.1.5.1h.7c.1 0 .2 0 .4.1.1.1.3.2.5.3.5.3 1 .5 1.5.7.1 0 .2.1.4.2l.5.5.2.2.4.4c.1.1.3.2.4.3.2.1.4.1.6.1.2 0 .4 0 .6-.1.2-.1.3-.2.5-.3l-.3-.3.2.4h.1l-.3-.3.2.4-1.9.4.1.1-.1-.1.1.1h.1c.1 0 .1-.1.3-.1.2-.1.3-.2.5-.4s.3-.4.3-.4l-.9-.6-.5 1s.1 0 .1.1l.3-.8-.5.7.1.1.3-.8-.5.7.6-.9-.7.7.2.2.6-.9-.7.7.8-.8-1 .4c.1.2.2.3.2.4l.8-.8-1 .4c.1.2.2.3.3.5.2.2.5.4.7.5.3.1.5.1.7.1v-.9l-.4.8c.1 0 .2.1.4.1v-.9l-.4.8.3-.6-.4.5.1.1.3-.6-.4.5.2-.2-.2.2.2-.2-.2.2.2.2.6-.9-.6-.9-.2.2.3.4-.2-.4h-.1l.3.4-.2-.4.4.7-.1-.8c-.1 0-.2.1-.2.1l.4.7-.1-.8c-.6.1-1.3.2-2 .3-.2.1-.4.1-.5.2-.2.1-.3.2-.4.4-.1.1-.1.2-.2.3-.1.1-.1.3-.1.6h1-1 1-1v.2l1.1-.2-1.1.1c0 .3.1.6.3.9.1.2.3.3.5.5.2.1.5.2.7.2h.1c.5 0 .9-.2 1.3-.4.1 0 .1 0 .2-.1h.4c.1 0 .2 0 .3.1.1 0 .3.1.5.2.6.4 1.2.6 1.9.6.6 0 1.3-.2 1.9-.6l-.1-.2.1.2-.1-.2.1.2s.2 0 .3-.1c.4 0 .8-.1 1.2-.3.2-.1.4-.3.6-.5.2-.2.3-.4.4-.7l-.3-.1.2.2v-.1l-.3-.1.2.2-.4-.3.2.5c.1 0 .2-.1.2-.2l-.4-.3.2.5-.1-.3v.4h.1l-.1-.3v.4h.1c.6.1 1.3.3 2 .4h.9c.2 0 .3-.1.4-.1l-.1-.5v.5h.1l-.1-.5v.5c.8 0 1.5-.2 2.1-.6.6-.3 1.1-.7 1.5-1.1.8-.7 1.8-1.4 2.7-2 1.4-.9 2.9-1.5 4.5-2.1 1.1-.4 2.2-.8 3.2-1.2.1 0 .2-.1.4-.1l-.4-1-1.1.1v.4c.1 6.1.2 12.2.3 18.4v.2h.5l-.5-.1v.1h.5l-.5-.1.8.3-.7-.5c-.1.1-.1.2-.1.2l.8.3-.7-.5.8.5-.3-.9c-.1.1-.3.2-.4.3l.8.5-.3-.9.3.7V82s-.1 0-.3.1l.3.7v-1.1.3-.3h-.5c-.2 0-.4 0-.6.1-.3.1-.6.3-.8.6-.2.3-.3.7-.3 1 0 .3.1.5.1.7.1.4.3.7.4.9v.1-.1.1h.1-.1.1-.1.1-.1.1-.1c-.2.3-.2.7-.2 1.1 0 .3.1.6.1.9v.2c0 .1-.1.2-.1.3-.2.3-.4.7-.5 1.1-.2.4-.3.9-.3 1.4h.5l-.5-.1v.1h.5l-.5-.1.6.2-.5-.3c0 .1-.1.1-.1.2l.6.2-.5-.3c-.2.2-.2.5-.3.8-.1.2-.1.5-.1.7v.7c0 .1 0 .4-.1.6l1 .2-.8-.6c-.1.1-.1.2-.1.4l1 .2-.8-.6.7.5-.5-.7-.2.2.7.5-.5-.7.3.5-.2-.5s-.1 0-.1.1l.3.5-.2-.5.2.6v-.7h-.2l.2.6v-.7c-.1 0-.2 0-.3.1-.1 0-.2.1-.3.1-.2.1-.4.3-.5.5-.1.2-.2.5-.2.6 0 .2 0 .4.1.5v.1l.4-.1-.4.1.4-.1-.4.1.9-.2h-.9v.2l.9-.2h-.9 1l-1-.3v.3h1l-1-.3 1 .3-.7-.8c-.2.2-.3.4-.3.5l1 .3-.7-.8.8.8-.7-.8c-.3.2-.4.5-.5.8-.1.4-.1.6-.2.7l.2.1-.2-.2v.1l.2.1-.2-.2.3.2-.2-.3-.1.1.3.2-.2-.3c-.2.1-.3.3-.4.5-.1.2-.2.5-.2.7 0 .2.1.5.2.6.1.2.2.3.3.4l.4.4.8-.7-.3-1.1-.6.3c-.3.2-.5.5-.5.8-.1.3-.1.5-.1.6v.1h.6-.6.6-.6.3l-.3-.1v.1h.3l-.3-.1.6.2-.5-.4c0 .1-.1.1-.1.2l.6.2-.5-.4.6.4-.3-.6c-.1 0-.2.1-.3.2l.6.4-.3-.6.2.4v-.4s-.1 0-.2.1l.2.4v-.4c-.2 0-.4.1-.6.2-.2.1-.3.2-.5.4-.6.6-1.2 1.2-1.7 1.8 0 .1-.1.1-.2.2 0 0-.1.1-.2.1-.1.1-.2.2-.4.3-.1.1-.2.3-.3.3 0 .1-.1.1-.1.1l.2.2-.1-.3c-.1 0-.1.1-.1.1l.2.2-.1-.3.1.3v-.4h-.1l.1.3v-.4.1-.1.1-.1h-.1c-.2 0-.3 0-.5.1s-.3.2-.4.2l-.2.2.1.1-.1-.1.1.1-.1-.1.3.4-.3-.4.3.4-.3-.4h-.1l.2.3v-.4h-.2l.2.3v-.4.6l.2-.5h-.2v.6l.2-.5-.2.4.3-.3s-.1-.1-.2-.1l-.2.4.3-.3-.1.1.1-.1-.1.1.1-.1v-.1c0-.1-.1-.2-.2-.5-.1-.1-.2-.3-.4-.4-.1-.1-.2-.1-.3-.2-.1-.1-.3-.1-.5-.1-.3 0-.6.1-.7.2-.2.1-.3.2-.4.3 0 .1-.1.1-.3.2l-.5.5-.3.6c-.1.2-.1.4-.1.7v.1l.5.1-.5-.2v.1l.5.1-.5-.2.8.3-.6-.5c-.1.1-.1.2-.1.2l.8.3-.6-.5.7.6-.3-.8c-.1 0-.3.2-.4.3l.7.6-.3-.8.2.6v-.7h-.2l.2.6v-.7.2-.2.2-.2h-.1c-.2 0-.4-.1-.5-.1h-.2c-.1 0-.3 0-.5.1-.1 0-.3.1-.4.2-.2.2-.3.4-.4.6-.1.2-.1.4-.1.5h.3l-.3-.1v.1h.3l-.3-.1h.2l-.1.1c-.1.1-.2.3-.4.5-.1.2-.2.5-.2.8v.2h.1-.1.1-.1v.5l1.1-.1-1.1.1h.5l-.4-.1v.1h.5l-.4-.1.7.2-.6-.4c0 .1-.1.1-.1.2l.7.2-.6-.4.6.4-.3-.6c-.1 0-.2.1-.3.2l.6.4-.3-.6.2.4-.1-.5h-.1l.2.4-.1-.5.1.3-.1-.3.1.3-.1-.3v-.2c-.2 0-.4.1-.7.3-.1.1-.3.2-.4.4-.1.2-.2.4-.2.6 0 .3.1.5.2.7.1.2.2.3.3.4v.1l.2.2.1-.1-.1.1.1-.1-.1.1.1.1.4-.3-.5.3c0 .1 0 .1.1.1l.4-.3-.5.3.8-.4h-.9c0 .3.1.4.1.4l.8-.4h-.9 1l-1-.2v.2h1l-1-.2 1.1.2-1.1-.2c-.1.3-.1.5-.1.8v.6l.8-.1h-.8v.1l.8-.1h-.8 1l-.9-.3c-.1.1-.1.3-.1.3h1l-.9-.3 1 .4-.8-.7c-.1.1-.2.2-.2.3l1 .4-.8-.7.8.7-.3-1c-.1 0-.3.1-.4.3l.8.7-.3-1 .3.9v-1c-.1 0-.2 0-.3.1l.3.9v-1 .8l.2-.7h-.2v.8l.2-.7-.1.4.2-.4h-.1l-.1.4.2-.4c-.1 0-.2-.1-.3-.1-.1 0-.3-.1-.5-.1s-.4 0-.6.1c-.1.1-.2.2-.3.2l-.3.3c-.1.1-.1.2-.1.2l.4.2-.3-.3-.1.1.4.2-.3-.3.6.6-.3-.7c-.2.1-.2.1-.3.2l.6.6-.3-.7.1.2-.1-.3.1.2-.1-.3s-.1 0-.4.1l.2 1.1 1.1.2c0-.2.1-.3.1-.6v-.1.1-.5c0-.3-.1-.5-.2-.6 0-.1-.1-.1-.1-.1l-.6.5.7-.5c0-.1-.1-.1-.1-.1l-.6.5.7-.5-.9.6 1-.2c0-.2-.1-.2-.1-.3l-.9.6 1-.2c-.1-.2-.1-.5-.4-.8-.1-.1-.3-.3-.5-.4-.2-.1-.4-.1-.6-.1-.3 0-.6.1-.8.2l-.4 1.1 1-.4-1 .4.5 1-.2-.5v.5h.2l-.2-.5v.5-.8l-.3.7c.1.1.2.1.3.1v-.8l-.3.7.3-.6-.6.4c0 .1.1.2.3.3l.3-.6-.6.4.3-.2-.3.1.3-.2-.3.1c.1.2.1.3.2.4 0 .1.1.1.1.1l.7-.6-.8.4c0 .1.1.1.1.1l.7-.6-.8.4.9-.5h-1c0 .2.1.4.1.5l.9-.5h-1 1.1-1.1V107c0 .1 0 .3-.1.5l-.2 1.5 1.5-.3h.3c.1 0 .3-.1.5-.1.3-.2.5-.3.6-.5.1-.1.2-.3.2-.3v-.1l-.3-.2.3.2-.3-.2.3.2-.6-.5.4.7.2-.2-.6-.5.4.7-.5-.8v.9c.1 0 .3 0 .5-.1l-.5-.8v.9-.7l-.3.7h.3v-.7l-.3.7.1-.1-.1.1.1-.1-.1.1h.1c.1 0 .2.1.3.1.1 0 .2.1.4.1.1 0 .2 0 .4-.1.1 0 .2-.1.3-.2.2-.1.3-.3.4-.5.1-.2.1-.4.1-.5v-1c0-.3-.1-.4-.1-.5-.1-.2-.2-.3-.2-.3l-.1-.1-.3-.3-.1-.1-.4.3.4-.2c0-.1-.1-.1-.1-.1l-.4.3.4-.2-.8.4h.9c0-.2-.1-.3-.1-.4l-.8.4h.9-1l.8.5c.1-.1.1-.3.1-.5h-1l.8.5-.8-.5.6.7c.1-.1.1-.1.2-.3l-.8-.5.6.7-.5-.6.3.8s.1-.1.2-.1l-.5-.6.3.8-.1-.4.1.4h.1l-.1-.4.1.4c.2 0 .3-.1.5-.2.1-.1.3-.1.4-.3.2-.2.3-.4.4-.6.1-.2.1-.4.1-.6v-.8l-.4.1h.4v-.1l-.4.1h.4-.5l.4.2.1-.2h-.5l.4.2-.2-.1.2.2-.2-.1.2.2.1-.1c.2-.2.3-.3.4-.5.1-.2.2-.5.3-.8l-.4-.1.4.2v-.1l-.4-.1.4.2-.7-.3.6.5c.1-.1.1-.1.1-.2l-.7-.3.6.5-.6-.5.3.8c.1 0 .3-.1.4-.2l-.6-.5.3.8-.2-.6v.6h.2l-.2-.6v.6-.2.2-.2.2h.7c.2 0 .4 0 .6-.1.2-.1.4-.2.5-.4.2-.2.2-.5.3-.6v-.4h-.3l.3.1h-.3l.3.1.2-.2.4-.4-.4-.4.3.5c.1 0 .1-.1.1-.1l-.4-.4.3.5-.4-.8v.9c.2 0 .4-.1.4-.1l-.4-.8v.9-.9l-.3.9c.1 0 .2.1.3.1v-.9l-.3.9.3-.8-.6.6s.1.1.3.2l.3-.8-.6.6.4-.4-.4.3.4-.4-.4.3.2-.2-.2.2.2-.2-.2.2.2-.1-.2.1.2-.1-.2.1v.1c.1.3.3.6.6.8.1.1.3.2.5.3.2.1.4.1.6.1.3 0 .5-.1.7-.1l.6-.3.2-.2.1-.1-.4-.4.3.5c.1 0 .1-.1.1-.1l-.4-.4.3.5-.5-.8.3.8c.1 0 .1-.1.2-.1l-.5-.8.3.8-.3-.9v1c.1 0 .2 0 .3-.1l-.3-.9v1-1l-.1 1h.1v-1l-.1 1h.2c.3 0 .6-.1.8-.2.2-.1.3-.2.5-.3l.4-.4c.1-.1.1-.2.1-.2l-.1-.1.1.1-.1-.1.1.1.3-.3c.1-.1.3-.2.4-.4.6-.6 1.1-1.2 1.7-1.8l-.2-.2.1.3.1-.1-.2-.2.1.3-.2-.4v.4h.1l-.2-.4v.4c.2 0 .4-.1.6-.2.1-.1.3-.2.4-.3.2-.2.3-.4.4-.6.1-.2.1-.4.1-.6h-.1.1-.1.1v-.1h-.3l.3.1v-.1h-.3l.3.1-.6-.2.4.4c.1-.1.1-.2.2-.3l-.6-.2.4.4-.3-.3.1.4s.1 0 .2-.1l-.3-.3.1.4 1.6-.5-1.1-1.3c-.2-.2-.3-.3-.4-.5l-.4.3.4-.2c0-.1-.1-.1-.1-.1l-.4.3.4-.2-.7.3h.8c0-.2 0-.3-.1-.3l-.7.3h.8-.8l.7.4c.1-.1.1-.3.1-.4h-.8l.7.4-.6-.4.4.6c.1 0 .1-.1.2-.2l-.6-.4.4.6c.3-.2.5-.5.6-.8.1-.2.1-.4.2-.5 0-.2.1-.3.1-.3h-.1.1-.1.1l-.3-.2.2.3.1-.1-.3-.2.2.3c.2-.2.3-.4.3-.5v-.6c0-.1 0-.1-.1-.2v-.1l-.6.2h.6v-.2l-.6.2h.6-.9l.8.4c.1-.1.1-.3.1-.4h-.9l.8.4-.9-.4.6.7c.1-.1.2-.2.2-.3l-.9-.4.6.7-.6-.6.3.8c.1 0 .2-.1.3-.2l-.6-.6.3.8-.1-.5v.5h.1l-.1-.5v.5c.2 0 .3 0 .4-.1.2-.1.3-.1.4-.2.1-.1.2-.1.3-.2.1-.1.2-.3.3-.6.1-.3.1-.7.1-1.1V90.7c.1-.2.1-.3.2-.4 0-.1 0-.3.1-.4 0-.2 0-.4.1-.7.1-.2.2-.5.4-.8l.3-.6c.1-.2.1-.5.1-.8 0-.3 0-.5-.1-.8v-.4c.1-.3.2-.6.2-.9 0-.4-.1-.7-.2-1-.1-.3-.3-.5-.3-.7h-.1.1-.1.1-.4l.4.2v-.2h-.4l.4.2-.5-.2.3.5c.1-.1.2-.2.2-.3l-.5-.2.3.5-.2-.3v.3s.1 0 .2-.1l-.2-.3v.3c.1 0 .3 0 .5.1.1 0 .3 0 .6-.1.2-.1.4-.2.5-.4.1-.1.2-.2.2-.4.1-.2.1-.3.1-.4V82c-.1-6.1-.2-12.2-.3-18.4v-.5l-.1-1.5-1.4.5c-.1.1-.3.1-.4.1-1.1.4-2.1.9-3 1.2-1.8.5-3.5 1.3-5 2.3-1 .7-2 1.4-2.9 2.2-.4.4-.8.6-1.1.8-.3.2-.6.3-1 .3-.2 0-.4 0-.4.1h-.1l.1.4v-.4h-.1l.1.4v-.4h-.4v.2-.2.2-.2c-.6-.1-1.3-.3-1.9-.4-.2 0-.4-.1-.6-.1-.2 0-.3 0-.5.1-.3.1-.5.2-.7.4-.2.2-.4.4-.4.6v.1s-.1 0-.3.1c-.2 0-.4 0-.6.1-.2.1-.5.1-.8.3-.3.2-.4.2-.6.2-.2 0-.5-.1-.7-.2-.3-.2-.6-.3-.9-.5-.3-.1-.7-.2-1.1-.2h-.3c-.2 0-.4 0-.6.1-.2 0-.4.1-.7.2-.1.1-.3.1-.5.1l.1.6V70h-.1l.1.6V70v.7l.3-.6c-.1-.1-.3-.1-.3-.1v.7l.3-.6-.4.6.5-.5c0-.1-.1-.1-.2-.2l-.4.6.5-.5-.4.4.5-.2s0-.1-.1-.2l-.4.4.5-.2-.3.1h.3v-.1l-.3.1h.3v-.2l-1.1.2h1.1v-.2l-1.1.2h1.1-1.1 1.1-1.1 1.1-.7.7-.7.7-1l.9.3c0-.1.1-.2.1-.3h-1l.9.3-.7-.3.6.5s.1-.1.1-.2l-.7-.3.6.5-.4-.3.3.4s.1 0 .1-.1l-.4-.3.3.4-.4-.5.3.5s.1 0 .1-.1l-.4-.5.3.5-.4-.8.2.8c.1 0 .2-.1.2-.1l-.4-.8.2.8c.6-.1 1.3-.2 2-.3.2 0 .3-.1.4-.1.2-.1.2-.2.3-.2l-.2-.2.2.2-.2-.2.2.2 1.3-.9-1.3-.9-.3.4.3-.3-.3.4.3-.3-.2-.2c-.1 0-.1-.1-.3-.2-.1-.1-.3-.1-.5-.1v.2l.1-.2h-.1v.2l.1-.2-.2.5.3-.3c-.1-.1-.1-.1-.2-.1l-.2.5.3-.3-.2.2.3-.1s0-.1-.1-.1l-.2.2.3-.1c-.1-.1-.1-.3-.2-.3-.1-.1-.2-.2-.3-.2l-.1-.1-.1.3.2-.3-.1.3.2-.3-.8.1-.6.8c-.1.1-.1.1-.1.2l.1.1-.1-.1.1.1-.1-.1.1.2-.1-.2.1.2-.1-.2-.1.1c-.1 0-.2.1-.4.3l.3.3-.2-.4c-.1 0-.1.1-.1.1l.3.3-.2-.4.3.6v-.7c-.1 0-.2 0-.3.1l.3.6v-.7.7l.2-.6h-.2v.7l.2-.6-.2.5.3-.4s-.1 0-.1-.1l-.2.5.3-.4-.1.1.1-.1-.1.1.1-.1-.3-.3c-.2-.2-.4-.5-.7-.8-.3-.3-.7-.5-1.3-.7-.2-.1-.5-.2-.7-.3-.3-.2-.6-.4-1-.6-.4-.2-.8-.3-1.2-.3h-.6v.3-.3.3-.3.8l.3-.7c-.2-.1-.3-.1-.3-.1v.8l.3-.7-.4.8.7-.6-.3-.3-.4.8.7-.6-.6.5.7-.3s0-.1-.1-.2l-.6.5.7-.3-.3.2.4-.1-.3.2.4-.1V66.8l-.2-.9h-.9c-4.8 0-9.6.1-14.4.1h-1.1v1.1c-.3 12.4-.6 24.7-1 37l-.1 2.3 1.8-1.4c.1-.1.2-.2.3-.2l-.3-.4.2.4c.1 0 .1-.1.1-.1l-.3-.4.2.4-.1-.3v.3h.1l-.1-.3v.3-.5l-.1.5h.1v-.5l-.1.5.2-.8-.4.7c.1.1.2.1.3.1l.2-.8-.4.7c.2.1.4.3.5.4.2.2.4.4.6.5.3.1.5.2.8.2.4 0 .6-.1.9-.2.4-.2.7-.3.9-.4v-.1.1-.1.1l-.2-.5v.6h.2l-.2-.5v.6-.8l-.4.8c.1.1.3.1.4.1v-.8l-.4.8.4-.8-.7.6c.1.1.2.2.3.2l.4-.8-.7.6.6-.5-.7.2c0 .1.1.2.2.3l.6-.5-.7.2.4-.1h-.4v.1l.4-.1h-.4.3-.3.3-.3 1.1l-1.1-.1v.1c0 .2 0 .4.1.6.1.3.3.6.6.8.3.2.5.3.8.3.2 0 .3 0 .4.1h.1l.2-.5-.3.4c.1.1.1.1.2.1l.2-.5-.3.4.4-.5-.6.3c0 .1.1.1.1.2l.4-.5-.6.3.5-.3-.5.2v.1l.5-.3-.5.2.3-.1-.3.1.3-.1-.3.1v.1c0 .2 0 .4.1.7 0 .1.1.3.2.4.1.1.2.3.4.5l.1.1v.4c0 .3.1.6.3.9.2.3.5.5.8.6l.9.3c.3.1.7.2 1.1.2.3 0 .7 0 1-.1l-.1-.3v.3h.1l-.1-.3v.3-.3.2-.2.2s.1 0 .2.1c.2.1.3.1.3.2.1.3.2.4.3.5.2.2.2.2.3.2l.3-.4-.4.4h.1l.3-.4-.4.4.1.1.3-.4-.4.3.1.1.3-.4-.4.3.6-.5-.8.3c0 .1.1.2.1.3l.6-.5-.8.3.3.6c.2.3.5.5.7.6l.6.3c.2.1.4.1.7.1.2 0 .4 0 .6-.1.2-.1.3-.2.4-.3.2-.2.3-.4.3-.5.1-.2.1-.3.1-.4l-.4-.1.4.1v-.1l-.4-.1.4.1-.7-.3.6.5c.1-.1.1-.1.1-.2l-.7-.3.6.5-.7-.5.3.8c.1-.1.3-.2.3-.3l-.7-.5.3.8-.3-.6v.7s.1 0 .3-.1l-.3-.6v.7-.3.3-.3.3h.2c.2 0 .3 0 .5-.1.2 0 .4-.1.6-.3l-.2-.3.1.3c.1 0 .1 0 .1-.1l-.2-.3.1.3-.2-.6v.6h.2l-.2-.6v.6-.6l-.3.6c.1 0 .2.1.3.1v-.6l-.3.6.2-.4-.2.3h.1l.2-.4-.2.3.1-.1-.1.1.1-.1-.1.1c.2.2.5.4.8.5.3.1.6.2.9.2h.1v-.1.1-.1.1l.1-.3-.2.2.1.1.1-.3-.2.2.1-.2-.2.1.1-.2-.2.1c.1.2.2.4.4.6.1.1.2.2.4.3.2.1.4.1.5.1.3 0 .5-.1.7-.2.2-.1.3-.2.4-.3l-.3-.3.2.4c.1 0 .1-.1.1-.1l-.3-.3.2.4-.3-.7v.8c.1 0 .3 0 .3-.1l-.3-.7v.8-.8l-.3.7c.1 0 .2.1.3.1v-.8l-.3.7.2-.5-.3.4s.1 0 .1.1l.2-.5-.3.4c.1.1.3.2.4.3.2.1.4.1.6.1.3 0 .6-.1.8-.2.2-.1.3-.3.4-.4.2-.2.2-.4.3-.5l-.3-.2.3.2-.3-.2.3.2-.6-.4.4.6.1-.1-.6-.4.4.6c.4-.3.7-.5 1.1-.7 0 0 .1 0 .2-.1.1 0 .3-.1.5-.1l-.1-.3v.3h.1l-.1-.3v.3-.7l-.3.6c.1 0 .2.1.3.1v-.7l-.3.6.3-.7-.5.6c.1.1.1.1.2.1l.3-.7-.5.6.5-.5-.6.3c0 .1.1.2.2.3l.5-.5-.6.3.4-.2-.4.1v.1l.4-.2-.4.1h.2-.2.2-.2v.7c0 .3 0 .5.1.8 0 .2.1.4.3.6.1.2.2.3.4.4.2.2.5.3.7.3.2.1.4.1.7.2v-.2.2-.2.2h.2l.1-.2-.1.2.1-.2-.1.2.2-.3-.3.2.1.1.2-.3-.3.2.2-.2-.3.1v.1l.2-.2-.3.1h.1-.1.1-.1c.1.3.2.5.3.7.2.2.3.3.6.5l.2-.3-.2.2h.1l.2-.3-.2.2.4-.5-.6.2c0 .1.1.2.2.2l.4-.5-.6.2.5-.2h-.5v.2l.5-.2h-.5.2-.2.2-.2l1.1.1-1.1-.1v.1c0 .2 0 .4.1.6.1.3.3.6.6.7.3.2.5.2.7.3h.9c.7-.1 1.4-.2 2.1-.4.2-.1.4-.2.5-.3.2-.1.3-.3.4-.4.1-.2.2-.3.3-.5.2-.5.1-.9.1-1.2V112.3h-.1.1-.1.1l-.6-.1.5.3c.1-.1.1-.2.1-.2l-.6-.1.5.3-.7-.4.5.7c.1-.1.2-.1.2-.2l-.7-.4.5.7-.3-.5.1.6s.1 0 .2-.1l-.3-.5.1.6v-.1.1-.1.1h.4c.2 0 .3 0 .5-.1.1 0 .3-.1.5-.2s.4-.4.6-.6c.1-.3.1-.5.1-.7v-.3c0-.2-.1-.3-.1-.4v-.1h-.1.1-.1.1-.4.4-.4.4-.6l.6.1v-.1h-.6l.6.1v-.5c0-.3-.1-.6-.2-.9-.1-.3-.3-.5-.4-.7l-.3.3.4-.2c0-.1-.1-.1-.1-.1l-.3.3.4-.2-.7.3h.7c0-.1 0-.2-.1-.3l-.7.3h.7-.8l.6.5c.1-.1.2-.3.2-.5h-.8l.6.5-.5-.4.2.6s.2-.1.3-.2l-.5-.4.2.6c.2-.1.5-.2.6-.4.3-.2.5-.6.6-.9.1-.3.1-.5.1-.7v-.3h-.3l.3.1h-.3l.3.1-.6-.2.5.3c0-.1.1-.1.1-.1l-.6-.2.5.3c.3-.5.6-.9.9-1.3l-.5-.4.3.5c.1-.1.1-.1.2-.1l-.5-.4.3.5-.4-.7v.8c.2 0 .3-.1.4-.1l-.4-.7v.8-.9l-.3.8c.1 0 .2.1.3.1v-.9l-.3.8.3-.7-.6.5c.1.1.2.2.3.2l.3-.7-.6.5.4-.3-.5.2s0 .1.1.1l.4-.3-.5.2s0 .1.1.2l.4 1.2 1.1-.5-.3-.7zM1853.7 108h6.1V71.2h-6.1v-7.5h23.2c8.8 0 19.1.2 19.1 12.7 0 6.9-3.3 10.9-9.9 11.8v.2c6.2.2 11.4 5.2 11.4 12.1 0 15.6-13.5 15.2-21.1 15.2h-22.8V108zm16.2-22.7h5.8c4.9 0 10.1-1 10.1-7.5 0-6.3-5.2-6.7-9.8-6.7h-6.1v14.2zm0 22.7h6.8c6.3 0 10.6-1.1 10.6-8.1 0-7.5-5.3-7.5-10.5-7.5h-6.9V108zM1903 108h6.1V71.2h-6.1v-7.5h22.5l10.2 38.5h.1l10.1-38.5h22.6v7.5h-6.1V108h6.1v7.5h-21.4V108h5.5V71.2h-.1l-12.1 44.3h-10.5l-12.1-44.3h-.1V108h5.5v7.5H1903V108zM1835.6 112.4h-4.9V90.6h4.9v21.8M1827.3 93.1v21.1h-4.9V93.1h4.9zM1818.2 113.5h-4.9V96.2h4.9v17.3M1810.8 98v14.4h-4.9V98h4.9M1836.4 77l-9.2 2.6 1.4 1.5.7-.7 2.6 3.1s-.2.2-.5.4l1.5 1.5 3.5-8.4"/><path d="m1829.3 80.4-.7.7c-10 10.3-22.7 13.9-22.7 13.9 12.5-1.2 23-9.1 25.5-11 .3-.3.5-.4.5-.4l-2.6-3.2"/><path d="m1827 79.6 5.7 5.5 3.5-8.3z"/><path d="M1805.9 95s13.3-3.9 23.2-14.7l2.6 3s-11.5 10.1-25.8 11.7zM1811.1 97.8h-4.8l-.4.2h4.9l.3-.2"/><path d="m1811.1 97.8-.3.2v14.4l.3-.2V97.8M1818.5 96h-4.7l-.5.2h4.9l.3-.2"/><path d="m1818.5 96-.3.2v17.3l.3-.3V96M1822.5 93l.4-.2h4.8l-.4.2z"/><path d="m1827.3 93 .4-.2v21.1l-.4.3zM1835.9 90.4h-4.8l-.4.2h4.8l.4-.2M1835.9 90.4l-.3.2v21.8l.3-.3V90.4M1835.6 90.6v21.8-21.8M1823.9 65c11.5 1.1 20.7 10.3 21.8 21.8h3.2c-1.1-13.3-11.7-23.9-25-25V65z"/><path d="m1823.9 65-.2 2.4c5.2.5 9.8 2.8 13.3 6.3s5.8 8.1 6.3 13.3l.2 2.2h8l-.2-2.6c-.6-7.2-3.8-13.7-8.7-18.6-4.8-4.8-11.3-8-18.6-8.7l-2.6-.2v8l2.2.2.3-2.3h2.4v-3.2h-2.4l-.2 2.4c6 .5 11.5 3.2 15.5 7.2 4.1 4.1 6.7 9.5 7.2 15.5l2.4-.2v-2.4h-3.2v2.4l2.4-.2c-.6-6.3-3.5-12-7.7-16.3-4.3-4.3-10-7.1-16.3-7.7l-.1 2.5h2.4-2.4zM1797.4 86.8c1.1-11.5 10.3-20.7 21.8-21.8v-3.2c-13.3 1.1-23.9 11.7-25 25h3.2z"/><path d="m1797.4 86.8 2.4.2c.5-5.2 2.8-9.8 6.3-13.3s8.1-5.8 13.3-6.3l2.2-.2v-8l-2.6.2c-7.2.6-13.7 3.8-18.6 8.7-4.8 4.8-8 11.3-8.7 18.6l-.2 2.6h8l.2-2.2-2.3-.3v-2.4h-3.2v2.4l2.4.2c.5-6 3.2-11.5 7.2-15.5 4.1-4.1 9.5-6.7 15.5-7.2l-.2-2.4h-2.4V65h2.4l-.2-2.4c-6.3.6-12 3.5-16.3 7.7-4.3 4.3-7.1 10-7.7 16.3l2.5.2v-2.4 2.4zM1845.8 91.5c-1.1 11.5-10.3 20.7-21.8 21.8v3.2c13.3-1.1 23.9-11.7 25-25h-3.2z"/><path d="m1845.8 91.5-2.4-.2c-.5 5.2-2.8 9.8-6.3 13.3s-8.1 5.8-13.3 6.3l-2.2.2v8l2.6-.2c7.2-.6 13.7-3.8 18.6-8.7 4.8-4.8 8-11.3 8.7-18.6l.2-2.6h-8l-.2 2.2 2.3.3V94h3.2v-2.4l-2.4-.2c-.5 6-3.2 11.5-7.2 15.5-4.1 4.1-9.5 6.7-15.5 7.2l.2 2.4h2.4v-3.2h-2.4l.2 2.4c6.3-.6 12-3.5 16.3-7.7 4.3-4.3 7.1-10 7.7-16.3l-2.5-.2V94v-2.5zM1819.2 113.3c-11.5-1.1-20.7-10.3-21.8-21.8h-3.2c1.1 13.3 11.7 23.9 25 25v-3.2z"/><path d="m1819.2 113.3.2-2.4c-5.2-.5-9.8-2.8-13.3-6.3s-5.8-8.1-6.3-13.3l-.2-2.2h-8l.2 2.6c.6 7.2 3.8 13.7 8.7 18.6 4.8 4.8 11.3 8 18.6 8.7l2.6.2v-8l-2.2-.2-.3 2.3h-2.4v3.2h2.4l.2-2.4c-6-.5-11.5-3.2-15.5-7.2-4.1-4.1-6.7-9.5-7.2-15.5l-2.4.2V94h3.2v-2.4l-2.4.2c.6 6.3 3.5 12 7.7 16.3 4.3 4.3 10 7.1 16.3 7.7l.1-2.5h-2.4 2.4z"/><g><path d="M1792.4 128.8c0-.9.1-1.6.4-2.2.2-.4.5-.8.8-1.2.3-.3.7-.6 1.1-.8.5-.2 1.2-.3 1.9-.3 1.3 0 2.3.4 3.1 1.2.8.8 1.1 1.9 1.1 3.3s-.4 2.5-1.1 3.3c-.8.8-1.8 1.2-3 1.2-1.3 0-2.3-.4-3.1-1.2-.8-.8-1.2-1.9-1.2-3.3zm1.8 0c0 1 .2 1.7.7 2.2.5.5 1 .8 1.7.8s1.3-.3 1.7-.8c.4-.5.7-1.3.7-2.3 0-1-.2-1.7-.7-2.2-.4-.5-1-.7-1.7-.7s-1.3.2-1.7.7c-.4.5-.7 1.3-.7 2.3zM1802.1 133.1v-8.6h5.9v1.5h-4.2v2h3.6v1.5h-3.6v3.7h-1.7zM1809.4 133.1v-8.6h5.9v1.5h-4.2v2h3.6v1.5h-3.6v3.7h-1.7zM1816.7 133.1v-8.6h1.7v8.6h-1.7zM1825.6 129.9l1.7.5c-.3.9-.7 1.6-1.3 2.1-.6.5-1.4.7-2.3.7-1.1 0-2.1-.4-2.8-1.2-.7-.8-1.1-1.9-1.1-3.2 0-1.4.4-2.6 1.1-3.3.7-.8 1.7-1.2 2.9-1.2 1.1 0 1.9.3 2.6.9.4.4.7.9.9 1.6l-1.7.4c-.1-.4-.3-.8-.6-1.1-.3-.3-.7-.4-1.2-.4-.6 0-1.2.2-1.6.7-.4.5-.6 1.2-.6 2.2 0 1.1.2 1.9.6 2.3.4.5.9.7 1.5.7.5 0 .9-.1 1.2-.4.3-.2.5-.7.7-1.3zM1828.7 133.1v-8.6h6.4v1.5h-4.7v1.9h4.3v1.5h-4.3v2.4h4.8v1.5h-6.5zM1839.6 128.8c0-.9.1-1.6.4-2.2.2-.4.5-.8.8-1.2.3-.3.7-.6 1.1-.8.5-.2 1.2-.3 1.9-.3 1.3 0 2.3.4 3.1 1.2.8.8 1.1 1.9 1.1 3.3s-.4 2.5-1.1 3.3c-.8.8-1.8 1.2-3 1.2-1.3 0-2.3-.4-3.1-1.2-.8-.8-1.2-1.9-1.2-3.3zm1.8 0c0 1 .2 1.7.7 2.2.5.5 1 .8 1.7.8s1.3-.3 1.7-.8c.4-.5.7-1.3.7-2.3 0-1-.2-1.7-.7-2.2-.4-.5-1-.7-1.7-.7s-1.3.2-1.7.7c-.5.5-.7 1.3-.7 2.3zM1849.3 133.1v-8.6h5.9v1.5h-4.2v2h3.6v1.5h-3.6v3.7h-1.7zM1859.9 124.4h3.5c.7 0 1.2 0 1.5.1s.6.2.9.4c.3.2.5.4.7.7s.3.6.3 1-.1.8-.3 1.1c-.2.3-.5.6-.9.8.5.2.9.4 1.2.8.3.4.4.8.4 1.3 0 .4-.1.8-.3 1.1s-.4.7-.7.9c-.3.2-.7.4-1.2.4-.3 0-1 .1-2.1.1h-2.9v-8.7zm1.8 1.5v2H1864.1c.3 0 .5-.1.7-.3.2-.2.3-.4.3-.7 0-.3-.1-.5-.2-.7-.1-.2-.4-.3-.7-.3h-2.5zm0 3.4v2.3h1.6c.6 0 1 0 1.2-.1.3 0 .5-.2.6-.3s.2-.4.2-.7c0-.3-.1-.5-.2-.7-.1-.2-.3-.3-.5-.4-.2-.1-.8-.1-1.5-.1h-1.4zM1868.6 124.4h1.7v4.7c0 .7 0 1.2.1 1.4.1.4.3.6.5.9.3.2.7.3 1.2.3s.9-.1 1.1-.3.4-.5.5-.7c.1-.3.1-.8.1-1.5v-4.8h1.7v4.5c0 1 0 1.8-.1 2.2-.1.4-.3.8-.5 1.1-.3.3-.6.5-1 .7-.4.2-1 .3-1.7.3-.8 0-1.5-.1-1.9-.3s-.8-.4-1-.7c-.2-.3-.4-.6-.5-1-.1-.5-.2-1.2-.2-2.2v-4.6zM1877.2 124.4h3.2c.7 0 1.3.1 1.6.2.5.1.9.4 1.3.8s.6.8.8 1.4.3 1.2.3 2c0 .7-.1 1.3-.3 1.8-.2.6-.5 1.1-.9 1.5-.3.3-.7.5-1.2.7-.4.1-.9.2-1.5.2h-3.3v-8.6zm1.8 1.5v5.7h1.3c.5 0 .8 0 1.1-.1.3-.1.5-.2.7-.4s.3-.4.5-.8c.1-.4.2-.9.2-1.6 0-.7-.1-1.2-.2-1.5-.1-.4-.3-.6-.5-.8s-.5-.3-.8-.4c-.2-.1-.7-.1-1.4-.1h-.9zM1889.9 129.9v-1.5h3.8v3.4c-.4.4-.9.7-1.6.9-.7.3-1.4.4-2.1.4-.9 0-1.7-.2-2.4-.6-.7-.4-1.2-.9-1.5-1.6s-.5-1.5-.5-2.3c0-.9.2-1.7.6-2.4s.9-1.2 1.7-1.6c.6-.3 1.2-.4 2.1-.4 1.1 0 1.9.2 2.5.7.6.4 1 1.1 1.2 1.9l-1.7.3c-.1-.4-.4-.8-.7-1-.3-.2-.8-.4-1.3-.4-.8 0-1.4.2-1.8.7-.5.5-.7 1.2-.7 2.2 0 1 .2 1.8.7 2.3.5.5 1.1.8 1.8.8.4 0 .7-.1 1.1-.2.4-.1.7-.3.9-.5v-1.1h-2.1zM1895.2 133.1v-8.6h6.4v1.5h-4.7v1.9h4.3v1.5h-4.3v2.4h4.8v1.5h-6.5zM1905.1 133.1v-7.2h-2.6v-1.5h6.9v1.5h-2.6v7.2h-1.7zM1921.1 133.1h-1.9l-.8-2h-3.5l-.7 2h-1.8l3.4-8.6h1.8l3.5 8.6zm-3.2-3.4-1.2-3.2-1.2 3.2h2.4zM1922 133.1v-8.6h1.7l3.5 5.8v-5.8h1.6v8.6h-1.7l-3.5-5.6v5.6h-1.6zM1930.7 124.4h3.2c.7 0 1.3.1 1.6.2.5.1.9.4 1.3.8s.6.8.8 1.4.3 1.2.3 2c0 .7-.1 1.3-.3 1.8-.2.6-.5 1.1-.9 1.5-.3.3-.7.5-1.2.7-.4.1-.9.2-1.5.2h-3.3v-8.6zm1.7 1.5v5.7h1.3c.5 0 .8 0 1.1-.1.3-.1.5-.2.7-.4s.3-.4.5-.8c.1-.4.2-.9.2-1.6 0-.7-.1-1.2-.2-1.5-.1-.4-.3-.6-.5-.8s-.5-.3-.8-.4c-.2-.1-.7-.1-1.4-.1h-.9zM1942.6 133.1v-8.6h2.6l1.6 5.9 1.5-5.9h2.6v8.6h-1.6v-6.8l-1.7 6.8h-1.7l-1.7-6.8v6.8h-1.6zM1960.4 133.1h-1.9l-.8-2h-3.5l-.7 2h-1.8l3.4-8.6h1.8l3.5 8.6zm-3.2-3.4-1.2-3.2-1.2 3.2h2.4zM1961.3 133.1v-8.6h1.7l3.5 5.8v-5.8h1.6v8.6h-1.7l-3.5-5.6v5.6h-1.6zM1977.7 133.1h-1.9l-.8-2h-3.5l-.7 2h-1.8l3.4-8.6h1.8l3.5 8.6zm-3.2-3.4-1.2-3.2-1.2 3.2h2.4zM1982.6 129.9v-1.5h3.8v3.4c-.4.4-.9.7-1.6.9-.7.3-1.4.4-2.1.4-.9 0-1.7-.2-2.4-.6-.7-.4-1.2-.9-1.5-1.6s-.5-1.5-.5-2.3c0-.9.2-1.7.6-2.4s.9-1.2 1.7-1.6c.6-.3 1.2-.4 2.1-.4 1.1 0 1.9.2 2.5.7.6.4 1 1.1 1.2 1.9l-1.7.3c-.1-.4-.4-.8-.7-1-.3-.2-.8-.4-1.3-.4-.8 0-1.4.2-1.8.7-.5.5-.7 1.2-.7 2.2 0 1 .2 1.8.7 2.3.5.5 1.1.8 1.8.8.4 0 .7-.1 1.1-.2.4-.1.7-.3.9-.5v-1.1h-2.1zM1987.9 133.1v-8.6h6.4v1.5h-4.7v1.9h4.3v1.5h-4.3v2.4h4.8v1.5h-6.5zM1995.9 133.1v-8.6h2.6l1.6 5.9 1.5-5.9h2.6v8.6h-1.6v-6.8l-1.7 6.8h-1.7l-1.7-6.8v6.8h-1.6zM2005.9 133.1v-8.6h6.4v1.5h-4.7v1.9h4.3v1.5h-4.3v2.4h4.8v1.5h-6.5zM2013.9 133.1v-8.6h1.7l3.5 5.8v-5.8h1.6v8.6h-1.7l-3.5-5.6v5.6h-1.6zM2024.5 133.1v-7.2h-2.6v-1.5h6.9v1.5h-2.6v7.2h-1.7z"/></g></g></svg>