<svg version="1.1" id="Layer_1" xmlns="http://www.w3.org/2000/svg" xmlns:xlink="http://www.w3.org/1999/xlink" x="0" y="0" width="540" height="396" style="enable-background:new 0 0 540 396" xml:space="preserve"><style>.st0,.st1,.st2{clip-path:url(#SVGID_2_);fill:#0086cc}.st1,.st2{fill:#fff}.st2{fill:#ed1c24}</style><defs><path id="SVGID_1_" d="M44.4 172.5h451.2v50.9H44.4z"/></defs><clipPath id="SVGID_2_"><use xlink:href="#SVGID_1_" style="overflow:visible"/></clipPath><path class="st0" d="M107.2 211.1H67.3c-.6 0-1.3-.1-1.8-.3 1 1 2.5 1.6 4 1.6h38.1l-.4-1.3zM490.8 199.2c-1 1-2.5 1.6-4 1.6h-5c-.3-.5-.7-1-1.1-1.4h8.3c.6.1 1.2 0 1.8-.2"/><path class="st1" d="M95.2 186.1H51.1a6.7 6.7 0 0 0 0 13.4h8.3c-1.3 1.2-2.2 3-2.2 4.9 0 3.7 3 6.7 6.7 6.7h39.9l-8.6-25z"/><path class="st0" d="M49.2 199.2c1.1 1 2.5 1.6 4 1.6h5c.3-.5.7-1 1.1-1.4H51c-.6.1-1.2 0-1.8-.2"/><path class="st2" d="M95.8 188.6H51.1c-2.4 0-4.3 1.9-4.3 4.3s1.9 4.3 4.3 4.3h47.7l-3-8.6zM100 200.2H63.9c-2.4 0-4.3 1.9-4.3 4.3s1.9 4.3 4.3 4.3H103c-1.4-4.3-2.5-7.5-3-8.6"/><path class="st1" d="M436.3 211.1h39.9c3.7 0 6.7-3 6.7-6.7 0-2-.9-3.7-2.2-4.9h8.3a6.7 6.7 0 0 0 0-13.4h-44.1l-8.6 25z"/><path class="st0" d="M436.3 211.1h39.9c.6 0 1.3-.1 1.8-.3-1 1-2.5 1.6-4 1.6h-38.1l.4-1.3z"/><path class="st2" d="M444.8 197.1h44.1c2.4 0 4.3-1.9 4.3-4.3s-1.9-4.3-4.3-4.3h-41.1l-3 8.6zM437.1 208.7h39.1c2.4 0 4.3-1.9 4.3-4.3s-1.9-4.3-4.3-4.3H440c-.5 1.2-1.6 4.4-2.9 8.6"/><path class="st0" d="M265 222.2c.5-.6 8.5-10.6 3.8-22.8 0 0 4.2-.4 5.6 5.1.9 2.9.5-2.7.7-3.6.2-.9 4.2 2.9 4 5.6-.4 2.5 2.2-4 .4-6-1.6-2.2-3.6-4.9-7.6-6-1.8-.4 3.6-1.8 6.5 1.6 1.1 1.1-.2-2.7-.9-2.7s2.9-2 7.1 2.9c.9 1.1-1.8-9.4-8-6.9-1.1.2 0-2 1.1-2.5.9-.2-5.6-.5-10.1 3.4-1.1 1.1 1.6-5.6 4.7-6 3.1-.4-3.6-.7-5.8 1.6-1.8 1.8-.4-.7-.9-1.6-.2-.7-2.9 2.9-3.1 4.5 0 1.1-5.8-7.6-12.7.2 0 0 6-1.6 7.8.4 1.3.9-1.6.4-2.5.9-.7.4 4.9.2 5.6 1.8.2.9-9.2-2.2-12.9 5.6 0 0 1.3-.2 2.9-.4 1.3 0-6.5 5.1-2 11.4 0 .2.2-6.3 5.8-8.7.2-.2.2 1.8.2 2.7 0 .9 2.2-4 5.1-4 .5 0-6 7.6-4.7 10 0 .2.5-.9 2.2-1.8 1.6-.9-.2 6.5 3.6 7.6 0 0-.4-6.5.9-8 1.1-1.8 2.7-.2 3.1.4.4.9-2.9-5.6 0-7.4 1.3-.7 6.6 13.8-8.1 22.8h8.2zM233.8 175.9c-4.2-2.1-9-3.1-15.5-3.1-2.2 0-4.2.1-6 .1-1.5 0-2.8.1-4.1.1-1.3 0-3.2 0-5 .1h-7.1v8.9h4.5c.4 1.6.4 6.2.4 11.5v9h-7.5l-.5 3.1c-.1.7-.3 1.1-.3 1.3-.2.2-.6.4-1.5.4h-5v-13.8c0-4.9 0-10 .5-11.6h4.3v-9.1l-3.7.1c-2.2.1-5.9.1-9.7.1-3.5 0-7.1 0-9.4-.1v-.1l-2.3.1-2.1-.1v.1c-2.1 0-5.6.1-9.1.1h-5.5v-.2l-4.1.1h-.3l-3.7-.1v.2h-3.8c-4.1 0-7.4-.1-10.1-.1l-3.7-.1v9.1h4.1c-.1.5-.3 1.2-.7 2.2-.4 1.3-.8 2.4-1.1 3.4-.4-.9-1-1.9-1.5-3.1-1.2-2.3-3.1-5.7-4.7-8.5l-1.1-1.8h-5.7l-1 1.9c-1.5 2.8-3.7 6.7-4.8 8.9l-1.4 2.8c-.3-1.1-.7-2.2-1-3.5-.1-.5-.5-1.5-.6-2.4h4.2v-9l-5.2.1c-3.4 0-6.5.1-9.9.1-3.3 0-5.3 0-7.6-.1l-4.6-.1v9.1h3.9c.8 1.1 2.2 5.5 4.2 11.5l9.6 29.7h6.4l1-1.9c4.7-8.6 7.6-13.8 9.3-17 1.7 3.3 4.3 8.4 8.8 17l1 2h6.5l9.9-29.9c1.9-5.8 3.3-10 4.1-11.3h.1c.4 1.6.4 6.3.4 11.6v7.8c0 6.1 0 11-.5 12.5H141v9.1l3.7-.1c2.3-.1 5.8-.1 10.1-.1 3.7 0 7 0 9.5.1v.1h2.2l2.4.1v-.1c3.1 0 8.5-.1 14.6-.1 5.1 0 11.1.1 14.5.1l3.6.1v-.1H211.8c1.2.1 2.5.1 3.9.1 6.8 0 14.6-.6 20.7-5.5 6.2-4.9 9.4-11.9 9.4-20.6-.3-9.5-4.6-17.4-12-21.1m-65.1 26.2c0 5.6 0 10.2-.4 11.8h-4.4c-.5-1.6-.5-6.8-.5-12.7v-7.6c0-5.1 0-9.9.4-11.6h4.5c.4 1.5.4 6.2.4 11.6v8.5zm55.5 3.2c-1.1 1-3.5 1.7-5.8 1.8v-18.7c2.4 0 4.4.6 5.8 1.7 1.5 1.1 3 4.1 3 7.6 0 3.4-1 5.9-3 7.6"/><path class="st0" d="M450.9 203.2h3.9V194s-4.3.2-4.6.2v-3.1c.1-7.6.2-10.2.4-14l.2-3.3-3.2-.5c-1.8-.3-3.2-.5-4.4-.6-2.7-.2-4.3-.3-5.9-.3-9.1 0-16.7 2.6-22 7.2v-6.9l-3.7.1c-2.3.1-5.3.1-9 .1-2.5 0-5.3 0-8.4-.1l-4.7-.1v9.1h4.7c.4 1.3.4 4.9.4 9.3-.8-.8-1.6-1.6-2.5-2.4-3.4-3.2-8.6-7.8-16.1-14.6l-1.8-1.6h-6.7v28.4c0 6.1 0 11.1-.5 12.7h-3.8c-.6 0-.9 0-1.1-.1-.5-1.6-.5-6.8-.5-12.7v-7.6c0-5.1 0-9.9.4-11.6h4.3v-9.1l-3.7.1c-1.9.1-5.8.1-9.8.1h-6.3v-.1l-3.7.1-3.6-.1v.2h-4.6c-4.1 0-7.4-.1-10.1-.1l-3.7-.1v9.1h4.1c-.1.5-.3 1.2-.7 2.2-.4 1.3-.8 2.4-1.1 3.4-.4-.9-1-1.9-1.5-3.1-1-1.9-2.8-5.3-4.7-8.5l-1-1.8h-5.7l-1 1.9c-2.3 4.2-4 7.2-4.8 8.9l-1.4 2.8c-.3-1.1-.7-2.2-1-3.5-.1-.5-.4-1.5-.6-2.4h4.2v-9l-5.2.1c-3.4 0-6.5.1-9.9.1-3.3 0-5.3 0-7.6-.1l-4.6-.1v9.1h3.9c.8 1.1 2.2 5.6 4.2 11.6l9.5 29.7h6.4l1-1.9c4.7-8.6 7.6-13.8 9.3-17 1.7 3.3 4.3 8.4 8.8 17l1 2h6.5l9.9-29.9c1.9-5.8 3.3-10.1 4.1-11.3h.9c.4 1.6.4 6.3.4 11.6v7.8c0 6.1 0 11-.5 12.5h-4.6v9.1l3.7-.1c2.3-.1 5.8-.1 10.1-.1 3.8 0 7.3 0 9.7.1v.1H366.9v-.1c2.2 0 5-.1 8.4-.1 2.5 0 5.2 0 8.1.1l5.1.1v-9.1h-4.2c-.3-1.2-.4-4.3-.4-8.3.7.7 1.4 1.3 2 1.9 2.2 1.9 5.1 4.5 9 7.8l9.4 8.1h6.7V212c4.6 7.2 13 11.5 24.1 11.5 5.4 0 9.8-.5 13.5-1.6l2.9-.8-.3-3c-.1-1.2-.2-3.7-.2-7.1v-3.9c-.1-1.5-.1-2.9-.1-3.9m-37.8-21.3c-.8.9-1.5 1.8-2.1 2.8.1-1.2.1-2.2.3-2.8h1.8m19.9 12.3-3.8-.2v9.1l3.6.1c.4 0 .7 0 .9.1.1.4.1 1.1.1 2.3v1.7c-4.1-.4-8-3.8-8-9.9 0-5.3 4.2-9.1 9.9-9.1 2.1 0 3.6.3 4.8 1.1.2.2.7.8.8 1.9l.2 3.2c-3.2-.1-6.4-.2-8.5-.3"/><path class="st1" d="M128.8 219.5h-1.6c-9.9-19-10.8-20.9-11.9-23.5h-.1c-1.1 2.6-2.1 4.6-12.5 23.5h-1.6l-8.3-26c-4.4-13.7-4.8-15.3-8.3-15.3v-1.7c2.7.1 4.8.1 8.6.1 3.9 0 7.4-.1 11.5-.1v1.7c-5.2 0-5 1.7-3.4 7 2.2 7.2 3.2 10.8 3.7 12.5h.1c1-2.3 1.8-4.1 5.4-11.2 1-2.1 3.1-5.8 4.7-8.8h1.5c1.7 2.9 3.5 6.3 4.6 8.3 3.6 7.1 4.4 8.8 5.5 11.2h.1c.4-1.7 1.1-4.2 3.7-12.1 1.7-5.2 1.7-7-3.3-7v-1.7c2.7.1 6.1.1 10.2.1 3.6 0 5.7-.1 8.3-.1v1.7c-3.2 0-3.6 1.5-8.1 15.3l-8.8 26.1z"/><path class="st1" d="M159.8 201.1c0 14.7 0 16.4 5.2 16.4v1.7c-2.5-.1-6.3-.1-10.4-.1-4.3 0-7.8.1-10.1.1v-1.7c5.1 0 5.1-1.6 5.1-16.2v-7.8c0-13.6 0-15.3-4.9-15.3v-1.7c2.3.1 6.2.1 10 .1 4 0 7.9-.1 9.9-.1v1.7c-4.7 0-4.7 1.6-4.7 15.2v7.7zM172.4 193.6c0-13.6 0-15.3-5-15.3v-1.7c2.2.1 6.2.1 10.1.1 3.8 0 7.6-.1 9.8-.1v1.7c-4.7 0-4.8 1.6-4.8 15.3v15.5c0 1.5.4 1.9 2.1 1.9h6.6c1.8 0 3-.4 4-1.4.7-.6 1.2-1.9 1.4-3.4h1.7c-.3 5.6-.4 9.9-.5 13-3.4-.1-9.4-.1-14.6-.1-6.8 0-12.7.1-15.6.1v-1.7c4.8-.1 4.7-1.6 4.7-16.4v-7.5zM233.9 214.7c-4.6 3.7-10.7 4.7-18.5 4.7-1.4 0-2.6-.1-3.8-.1-1.3 0-2.5-.1-3.8-.1-3.3 0-6.3.1-8.3.1v-1.7c5.1 0 5.1-1.6 5.1-16.4v-7.6c0-13.6 0-15.1-4.9-15.1v-1.7c1.6 0 6.2-.1 8.5-.1 3 0 6-.2 10.1-.2 6.1 0 10.3.9 13.9 2.7 6.5 3.3 9.8 10.4 9.8 17.8-.1 7.9-3.1 13.7-8.1 17.7m-7.5-27.4c-2-1.6-4.9-2.5-8.2-2.5-1.4 0-2.3.1-3.4.2v23.6c0 .8.2 1.6.9 1.9.5.2 1.5.3 2.3.3 2.8 0 6.5-.9 8.6-2.7 2.8-2.4 4.2-5.9 4.2-10.3 0-4.5-1.9-8.6-4.4-10.5M326.4 219.5h-1.6c-9.9-19-10.8-20.9-11.9-23.5h-.1c-1.1 2.6-2.1 4.6-12.5 23.5h-1.6l-8.3-26c-4.4-13.7-4.8-15.3-8.3-15.3v-1.7c2.7.1 4.8.1 8.6.1 3.9 0 7.4-.1 11.5-.1v1.7c-5.2 0-5 1.7-3.4 7 2.2 7.2 3.2 10.8 3.7 12.5h.1c1-2.3 1.8-4.1 5.4-11.2 1-2.1 3.1-5.8 4.7-8.8h1.5c1.7 2.9 3.5 6.3 4.6 8.3 3.6 7.1 4.4 8.8 5.5 11.2h.1c.4-1.7 1.1-4.2 3.7-12.1 1.7-5.2 1.7-7-3.3-7v-1.7c2.7.1 6.1.1 10.2.1 3.6 0 5.7-.1 8.3-.1v1.7c-3.2 0-3.6 1.5-8.1 15.3l-8.8 26.1z"/><path class="st1" d="M358.1 201.1c0 14.7 0 16.4 5.2 16.4v1.7c-2.5-.1-6.3-.1-10.4-.1-4.3 0-7.8.1-10.1.1v-1.7c5.1 0 5.1-1.6 5.1-16.2v-7.8c0-13.6 0-15.3-4.9-15.3v-1.7c2.3.1 6.2.1 10 .1 4 0 7.9-.1 9.9-.1v1.7c-4.7 0-4.8 1.6-4.8 15.2v7.7zM407.3 219.7h-1.7c-8.3-7.2-13.8-11.9-17.4-15.1-2.1-1.9-4.9-4.6-8-8.1h-.2c.1 2.2.1 3.6.1 4.6 0 14.7 0 16.3 4.8 16.3v1.8c-3.5-.1-6.7-.1-9.6-.1-3.7 0-6.8.1-9.1.1v-1.7c5 0 5-1.6 5-16.4v-24.8h1.7c8 7.1 13.3 11.9 16.9 15.2 2.9 2.7 5 4.9 8.5 8.8h.2c-.1-2.5-.1-5.1-.1-6.8 0-13.6 0-15.3-5.1-15.3v-1.7c3.5.1 6.7.1 9.4.1 3.7 0 6.7-.1 9.1-.1v1.7c-4.4 0-4.4 1.6-4.4 15.3v26.2zM435 219.8c-14.2 0-24.2-7.9-24.2-21.7 0-13.7 11-22 26.5-22 1.7 0 3.2.1 5.6.3 1.1.1 2.5.3 4.1.5-.2 3.9-.3 6.6-.4 14.1h-1.7c-.1-2.4-1.3-4-2.5-4.8-1.7-1.1-3.8-1.6-6.7-1.6-7.7 0-13.5 5.5-13.5 12.8 0 8.7 6.3 13.6 12.5 13.6 1 0 1.9-.1 2.7-.3.1-1.3.1-3.9.1-5.1 0-4.4-.5-5.9-4.6-6v-1.8c2.7.1 6.2.2 9.6.2 3.4 0 6.7-.1 8.7-.2v1.7c-3.9-.1-3.9 1.4-3.9 7.5v3.9c0 2.9.1 5.9.2 7.5-3.3 1-7.2 1.4-12.5 1.4"/></svg>