<svg version="1.1" id="Layer_1" xmlns="http://www.w3.org/2000/svg" x="0" y="0" width="792" height="612" style="enable-background:new 0 0 792 612" xml:space="preserve"><style>.st0{fill:#e1251b}.st1{fill:#5d6770}.st2{fill:#5b6670}</style><path class="st0" d="M249.2 236.3c-.1-.5-.1-1-.2-1.6-.1-.5-.2-1-.4-1.5s-.3-1-.5-1.5-.4-.9-.7-1.4c-.2-.4-.5-.9-.8-1.3l-.9-1.2c-.3-.4-.6-.7-1-1.1-.3-.3-.7-.7-1.1-1-.4-.3-.7-.6-1.1-.9-.4-.3-.8-.5-1.2-.8-.4-.2-.8-.5-1.2-.7-.4-.2-.8-.4-1.2-.5-.4-.2-.9-.3-1.3-.4-.4-.1-.9-.2-1.3-.3-.4-.1-.9-.2-1.3-.2s-.9-.1-1.3-.1l-6.3-.1-3.2-.1.3-3.2h9.2c.4 0 .8-.1 1.1-.2.4-.1.7-.3.9-.5.3-.2.5-.5.6-.8.2-.3.2-.6.2-1 0-.3-.1-.6-.2-.9-.1-.3-.4-.5-.6-.7-.3-.2-.6-.4-.9-.5-.3-.1-.7-.2-1.1-.1l-21.2.6c-.3 0-.6.1-.9.2-.3.1-.5.3-.8.4-.2.2-.4.4-.6.7-.2.2-.3.5-.4.8-.1.3-.1.6 0 .8 0 .2.2.5.3.7.2.2.3.3.6.5.2.1.5.2.8.2h7.8l-.5 3.1-2.9-.1-5.1-.1h-.5c-.2 0-.3 0-.5-.1-.2 0-.3-.1-.5-.1-.2-.1-.3-.1-.4-.2-.1-.1-.3-.1-.4-.2-.1-.1-.2-.2-.4-.3l-.3-.3-.3-.3c-.1-.1-.2-.2-.2-.4-.1-.1-.1-.3-.2-.4-.1-.1-.1-.3-.1-.4 0-.1-.1-.3-.1-.4v-1c0-.2 0-.3.1-.5 0-.2.1-.3.1-.5s.1-.3.1-.5c.1-.2.1-.3.2-.5s.1-.3.2-.4c.1-.1.2-.3.3-.4.1-.1.2-.3.3-.4.1-.1.2-.3.3-.4l.4-.4c.1-.1.3-.2.4-.3.1-.1.3-.2.4-.3.1-.1.3-.2.4-.3.1-.1.3-.2.4-.2.2-.1.3-.1.5-.2s.3-.1.5-.2.3-.1.5-.1.3-.1.5-.1h.5l20.7-1h1.2c.2 0 .4.1.6.1.2 0 .4.1.6.1.2.1.4.1.6.2.2.1.4.2.5.2.2.1.4.2.5.3.2.1.3.2.5.3.2.1.3.2.5.4l.4.4c.1.1.2.3.4.4.1.2.2.3.3.5 0 0 0 .1.1.1 0 0 0 .1.1.1 0 0 0 .1.1.1 0 0 0 .1.1.1.1.2.3.5.5.7.2.2.4.4.7.5.3.1.6.3.9.3.3.1.7.1 1 .1.5 0 1-.1 1.5-.3.4-.2.8-.4 1.1-.8.3-.3.4-.7.5-1 .1-.4 0-.8-.2-1.1 0-.1-.1-.2-.1-.2 0-.1-.1-.2-.1-.2 0-.1-.1-.2-.1-.2 0-.1-.1-.2-.2-.2l-.6-.9c-.2-.3-.5-.5-.7-.8-.3-.2-.5-.5-.8-.7l-.9-.6-.9-.6c-.3-.2-.7-.3-1-.5-.3-.1-.7-.3-1-.4-.3-.1-.7-.2-1.1-.3-.4-.1-.8-.2-1.1-.2-.4-.1-.8-.1-1.1-.1h-2.2l-20 1.4c-.3 0-.6.1-.9.1-.3 0-.6.1-.9.2-.3.1-.6.2-.9.2l-.9.3c-.3.1-.5.2-.8.4-.3.1-.5.3-.8.4-.3.2-.5.3-.8.5-.2.2-.5.4-.7.5-.2.2-.5.4-.7.6l-.6.6c-.2.2-.4.4-.6.7-.2.2-.4.5-.5.7-.2.3-.4.5-.5.8-.2.3-.3.5-.4.8-.1.3-.3.5-.4.8-.1.3-.2.6-.3.8-.1.3-.2.6-.2.9-.1.3-.1.6-.1.9v1.8c0 .3.1.5.1.8.1.3.1.5.2.8.1.3.2.5.3.7.1.2.2.5.4.7.1.2.3.5.5.7l.6.6c.2.2.4.4.6.5.2.2.5.3.7.5.3.1.5.3.8.4l.9.3c.3.1.6.2.9.2.3.1.7.1 1 .1l5.2.3 3 .2-.5 3.6-8.4-.6c-.3 0-.7 0-1 .1-.3.1-.6.3-.9.5-.3.2-.5.5-.7.8-.2.3-.3.7-.4 1-.1.4-.1.7-.1 1.1 0 .3.1.7.3.9.2.3.4.5.6.7.3.2.6.3.9.3l25.2 2.9c.5.1.9 0 1.3-.1s.8-.3 1.1-.6c.3-.3.6-.6.8-1 .2-.4.3-.8.3-1.3s-.1-.9-.3-1.3c-.2-.4-.4-.8-.7-1.1-.3-.3-.7-.6-1.1-.8-.4-.2-.8-.3-1.3-.3l-10.2-.8.4-3.8 3.3.2 6.6.3c.2 0 .5 0 .7.1.2 0 .5.1.7.1.2.1.5.1.7.2.2.1.5.2.7.3.2.1.5.2.7.3.2.1.4.3.6.4.2.1.4.3.6.4.2.2.4.3.6.5.2.2.4.4.5.6.2.2.3.4.5.6.2.2.3.4.4.6.1.2.3.5.4.7.1.2.2.5.3.7.1.3.2.5.2.8.1.3.1.5.2.8 0 .3.1.5.1.8v.8c0 .3-.1.5-.1.8 0 .3-.1.5-.2.8-.1.3-.2.5-.3.8-.1.2-.2.5-.3.7-.1.2-.3.4-.4.6-.2.2-.3.4-.5.6-.2.2-.4.4-.6.5-.2.2-.4.3-.6.5-.2.1-.4.3-.7.4-.2.1-.5.2-.7.3-.2.1-.5.2-.7.3-.3.1-.5.1-.8.2-.3 0-.5.1-.8.1h-.8c-.3 0-.6 0-.8-.1l-26-3.7c-.2 0-.4-.1-.6-.1-.2-.1-.4-.1-.6-.2-.2-.1-.4-.2-.5-.3-.2-.1-.3-.2-.5-.3-.1-.1-.3-.2-.4-.4l-.4-.4c-.1-.1-.2-.3-.3-.4-.1-.2-.2-.3-.3-.5-.1-.2-.2-.3-.2-.5-.1-.2-.1-.4-.2-.5-.1-.2-.1-.4-.1-.6 0-.2-.1-.4-.1-.6v-.8c0-.3 0-.6-.1-.8-.1-.2-.2-.5-.3-.6-.1-.2-.3-.3-.5-.4-.2-.1-.4-.2-.7-.2-.4 0-.7 0-1.1.2-.3.2-.7.4-1 .7-.3.3-.5.6-.7 1-.2.4-.3.8-.3 1.3v1.2c0 .4 0 .7.1 1.1 0 .4.1.7.2 1.1.1.4.2.7.3 1 .1.3.2.7.4 1 .1.3.3.6.5 1l.6.9c.2.3.4.6.7.8.2.3.5.5.8.7.3.2.6.5.9.7.3.2.6.4 1 .5.3.2.7.3 1 .4.4.1.7.2 1.1.3l27.2 5.2c.5.1 1.1.2 1.6.2.6 0 1.1.1 1.6 0 .5 0 1.1-.1 1.6-.1.5-.1 1.1-.2 1.6-.3.5-.1 1-.3 1.5-.5s1-.4 1.4-.7c.5-.2.9-.5 1.3-.8.4-.3.8-.6 1.2-1 .4-.3.7-.7 1.1-1.1.3-.4.7-.8.9-1.2.3-.4.5-.9.8-1.3.2-.5.4-.9.6-1.4.2-.5.3-1 .5-1.5.1-.5.2-1 .3-1.6.1-.5.1-1 .1-1.6-.1-.1-.1-.7-.1-1.2z"/><path class="st1" d="M269.6 219.5H262v-5.1h20.9v5.1h-7.7v20.1h-5.5v-20.1zM281.8 230c0-5.6 3.9-10.1 9.5-10.1 6.4 0 9.4 5 9.4 10.5 0 .4 0 .9-.1 1.4h-13.4c.5 2.5 2.3 3.8 4.7 3.8 1.8 0 3.2-.6 4.7-2l3.1 2.8c-1.8 2.2-4.4 3.6-7.9 3.6-5.7 0-10-4.1-10-10zm13.6-1.6c-.3-2.4-1.8-4.1-4.1-4.1s-3.7 1.6-4.2 4.1h8.3zM302.8 234c0-4.3 3.2-6.2 7.8-6.2 1.9 0 3.3.3 4.7.8v-.3c0-2.3-1.4-3.5-4.1-3.5-2.1 0-3.6.4-5.3 1l-1.4-4.2c2.1-.9 4.2-1.5 7.5-1.5 3 0 5.1.8 6.5 2.2 1.4 1.4 2.1 3.6 2.1 6.1v11.2h-5.3v-2.1c-1.3 1.5-3.2 2.4-5.8 2.4-3.7 0-6.7-2-6.7-5.9zm12.6-1.2v-1c-.9-.4-2.2-.7-3.5-.7-2.3 0-3.8.9-3.8 2.7v.1c0 1.5 1.2 2.3 3 2.3 2.5 0 4.3-1.4 4.3-3.4zM324 220.3h5.5v2.7c1.3-1.6 2.9-3.1 5.7-3.1 2.5 0 4.4 1.1 5.4 3.1 1.7-2 3.7-3.1 6.3-3.1 4.1 0 6.5 2.4 6.5 7.1v12.6h-5.5v-10.8c0-2.6-1.2-3.9-3.2-3.9s-3.3 1.3-3.3 3.9v10.8H336v-10.8c0-2.6-1.2-3.9-3.2-3.9s-3.3 1.3-3.3 3.9v10.8H324v-19.3zM367.8 235.9l3.3-3.9c2.3 1.9 4.6 3.1 7.5 3.1 2.3 0 3.6-.9 3.6-2.4v-.1c0-1.4-.9-2.1-5.1-3.2-5.1-1.3-8.3-2.7-8.3-7.7v-.1c0-4.6 3.7-7.6 8.8-7.6 3.7 0 6.8 1.2 9.4 3.2l-2.9 4.2c-2.2-1.5-4.4-2.5-6.5-2.5s-3.2 1-3.2 2.2v.1c0 1.7 1.1 2.2 5.4 3.3 5.1 1.3 8 3.2 8 7.6v.1c0 5-3.8 7.8-9.2 7.8-3.9-.1-7.8-1.4-10.8-4.1zM390.9 214.4h5.5v25.2h-5.5v-25.2z"/><path class="st0" d="M365 305.5c0 3-2.5 5-6.2 5h-5.6v-9.8h5.7c3.7 0 6.1 1.6 6.1 4.8z"/><path class="st0" d="M341.9 286.4c-4.4 0-7.9 3.5-7.9 7.8v38.3h38.9c4.4 0 7.9-3.5 7.9-7.8v-38.3h-38.9zm11.3 34.2h-2.6V315h2.6v5.6zm14.4-15.1c0 4.8-4.1 7.3-8.9 7.3h-8.1v-14.4h8.5c5.1-.1 8.5 2.6 8.5 7.1z"/><path class="st2" d="M282.2 286.4v46.2h46.9v-46.2h-46.9zm15.1 34.2h-2.6v-7.9h2.6v7.9zm15.7 0h-2.6v-7.9h2.6v7.9zm0-10.1h-18.2v-12.2h2.6v9.9h13.1v-9.9h2.6v12.2zM230.4 286.4v46.2h46.9v-46.2h-46.9zm15.1 34.2H243V302l2.5 3.8v14.8zm19.2 0h-2.6v-18.1l-8.3 11.9h-.1l-7.9-11.3-2.9-4.4v-.5h2.6l8.2 12.2 8.2-12.2h2.6v22.4z"/><path style="fill:none;stroke:#5b6670;stroke-width:3;stroke-miterlimit:10" d="M192 266.5h226.8"/></svg>