<svg version="1.1" id="Layer_1" xmlns="http://www.w3.org/2000/svg" x="0" y="0" width="164.9" height="163.5" style="enable-background:new 0 0 164.9 163.5" xml:space="preserve"><style>.st0{fill:#0079d0}.st1{fill:#00c08b}.st2{fill:#394459}</style><path class="st0" d="M48.5 101.8V54.3H24.2v47.5l12.1-12.2z"/><path class="st1" d="M48.5 139.2v-26.6l-12.2-12.2-12.1 12.2v26.6zM85.8 118.6v20.6H110v-20.6l-12.1 12.1z"/><path class="st0" d="M85.8 54.3v53.1l12.1 12.1 12.1-12.1V54.3zM67 90.1c-5 0-9.5-2.6-12.1-6.4v55.6h24.2V83.7c-2.6 3.9-7 6.4-12.1 6.4z"/><path class="st1" d="M54.9 54.4v15.7c.1 1.3.4 2.6.8 3.8.4 1.1 1 2.1 1.8 3.1 2.2 2.8 5.6 4.6 9.5 4.6s7.2-1.8 9.5-4.6c.7-.9 1.3-2 1.8-3.1.5-1.2.8-2.5.8-3.8V54.4H54.9zM128.6 80c5 0 9.5 2.6 12.1 6.4v-32h-24.2v32.1c2.6-3.9 7.1-6.5 12.1-6.5z"/><path class="st0" d="M140.7 120.1V114h-24.2v6.1h24.2zM139.2 125.7c-.9-1.2-2.8-2.5-5.3-2.5-1.8 0-3.9.7-5.2 2.5-1.3-1.8-3.5-2.5-5.2-2.5-2.5 0-4.4 1.3-5.3 2.5-1.6 2-1.6 4.4-1.6 5.7v8h24.2v-8c-.1-1.3-.1-3.7-1.6-5.7z"/><ellipse class="st0" cx="128.6" cy="99.5" rx="12.1" ry="11.6"/><g><path class="st2" d="M36.9 24.2H24.2v3.7h4.3v16.3h4.2V27.9h4.2zM44.6 32.6v-3.7h-.1c-1.8 0-3.1.7-4 2.1v-1.6H37v14.9h3.7v-8c0-2.4 1.1-3.6 3.6-3.6h.3zM71.6 28.9c-2.4 0-3.7 1.1-4.4 2.1V29.3h-3.5v14.9h3.7V36c0-1.6.6-3.6 3.2-3.6 2.1 0 3.1 1.2 3.1 3.8v8.1h3.7v-8.9c0-2.5-.7-6.5-5.8-6.5zM85.4 35c-1.7-.5-2.4-1-2.4-1.7s.5-1.4 1.6-1.4c1.3 0 1.7.8 1.7 1.5v.1H90v-.1c-.3-3.3-2.9-4.5-5.3-4.5-3.1 0-5.4 2-5.4 4.8 0 1.9 1.2 3.2 3.7 3.9l.2.1c2.5.9 3.5 1.2 3.5 2.4 0 .4-.1.7-.4 1-.4.4-.9.6-1.5.6-.2 0-1.9-.1-2.1-1.8v-.1H79v.1c.3 3.3 3 4.8 5.7 4.8 1.7 0 3.3-.6 4.3-1.7.9-.9 1.3-2.1 1.3-3.4.1-3.2-2.6-4-4.9-4.6zM92.5 24.2h3.7v20h-3.7zM124.7 29.3h-2.5v-5.1h-3.7v5.1H116v2.9h2.5v12h3.7v-12h2.5zM138.5 31.1c-1.4-1.5-3.4-2.3-5.5-2.3-4.3 0-7.8 3.6-7.8 7.9 0 4.3 3.5 7.8 7.8 7.8 1.6 0 3-.4 4.2-1.3 1.3-.9 2.3-2.2 3-3.7l.1-.1h-3.8v.1c-.7 1.3-1.9 1.9-3.4 1.9-1.9 0-3.9-1.2-4.1-3.4h11.8v-.1c.2-2.7-.6-4.9-2.3-6.8zm-9.5 4c.2-1.3 1.5-3.1 4-3.1h.1c2.4 0 3.8 1.8 4 3.1H129zM57.6 29.4v1.4c-1.3-1.2-3-1.9-4.9-1.9-4.2 0-7.5 3.5-7.5 7.9s3.4 7.9 7.5 7.9c1.8 0 3.5-.7 4.9-1.9v1.4h3.7V29.4h-3.7zm-4.4 11.8c-2.4 0-4.4-2-4.4-4.4 0-2.4 2-4.4 4.4-4.4 2.4 0 4.4 2 4.4 4.4 0 2.4-2 4.4-4.4 4.4zM110.7 29.4v1.4c-1.3-1.2-3-1.9-4.9-1.9-4.2 0-7.5 3.5-7.5 7.9s3.4 7.9 7.5 7.9c1.8 0 3.5-.7 4.9-1.9v1.4h3.7V29.4h-3.7zm-4.4 11.8c-2.4 0-4.4-2-4.4-4.4 0-2.4 2-4.4 4.4-4.4s4.4 2 4.4 4.4c-.1 2.4-2 4.4-4.4 4.4z"/></g></svg>