<svg version="1.1" id="Layer_1" xmlns="http://www.w3.org/2000/svg" x="0" y="0" width="612" height="792" style="enable-background:new 0 0 612 792" xml:space="preserve"><style>.st2{fill-rule:evenodd;clip-rule:evenodd;fill:#0060a9}</style><path style="fill-rule:evenodd;clip-rule:evenodd;fill:#fff" d="M209 300h192.8v192.8H209V300z"/><path d="M225.5 396.4c0-28.1 35.7-50.9 80-50.9 44 0 79.7 22.7 79.7 50.9 0 28.1-35.7 50.9-79.7 50.9-44.3-.1-80-22.8-80-50.9z" style="fill-rule:evenodd;clip-rule:evenodd;fill:#ffd520;stroke:#0060a9;stroke-width:8.8843;stroke-miterlimit:2.6131"/><path class="st2" d="M374.7 435.7c-.6 1-.9 1.9-.9 2.9 0 1.3.3 2.2.9 3.2.9.6 1.9 1 3.1 1 .9 0 1.9-.3 2.8-1 .9-1 1.2-1.9 1.2-3.2 0-1-.3-1.9-1.2-2.9-.6-1-1.9-1.3-2.8-1.3-1.3 0-2.2.4-3.1 1.3zm6.5 6.7c-.9 1-2.2 1.3-3.4 1.3-1.6 0-2.8-.3-3.7-1.3-.9-1.3-1.2-2.2-1.2-3.8 0-1.6.3-2.6 1.6-3.5.9-1 2.2-1.6 3.4-1.6 1.2 0 2.5.6 3.4 1.6.9 1 1.6 2.2 1.6 3.5-.2 1.6-.8 2.9-1.7 3.8zm-3.1-5.4s-.3-.3-.6-.3h-.6v1.9h.6c.3 0 .6-.3.9-.3 0 0 .3-.3.3-.6 0-.4-.3-.7-.6-.7zm-2.5 4.5v-5.8h2.4c.6 0 .9.3 1.2.3.3.3.6 1 .6 1.6 0 .3 0 .6-.3 1-.3 0-.6.3-.9.3.3 0 .6.3.6.3.3.3.6.6.6 1.3V441.4h-1.2v-.6c0-.3-.3-.6-.3-1 0 0 0-.3-.3-.3h-1.2v1.9h-1.2v.1zM293.8 367l-6.2 12.7-16.8 31.7h51.5l-2.5 12.5h-70.7l13.3-25 10.6-19.5h-18.9V367h39.7z"/><path class="st2" d="M301.5 393.5c-.3 1.9-.9-1.3-.3.6 1.2 3.2 3.4 4.5 6.5 4.5 2.5 0 5.9-1 7.8-2.2l5.9 9.9c-6.2 3.2-7.8 3.8-14.6 3.8-3.4 0-8.4-1.6-10.9-3.2-3.1-2.2-5.9-7-6.8-9.9-.3-.3-.9-3.5-1.2-6.1-.3-2.9.3-5.8.9-8.3 3.7-13.8 14.6-15.4 20.2-15.7 7.8 0 12.7 3.5 14.9 7 4 7.4 2.8 15.7 2.2 19.5h-24.6v.1zm12.7-10.6c0-2.6-1.5-4.5-5.3-4.8-3.1 0-6.2 1.6-6.2 4.8h11.5zM334.7 367.9h14c3.4 0 13.3 2.2 16.7 9.6 1.9 4.5 1.9 9.6.9 13.4-1.9 6.7-7.8 14.4-13.6 15.4-3.4.3-11.8.6-11.8.6l-2.8 17.3h-12.7l9.3-56.3zm8.7 25.9 3.1.3c4-.3 6.2-2.2 6.8-3.5.6-1.6 1.6-4.5.9-6.4-.9-3.2-2.5-4.5-5.3-4.8-2.5-.3-3.7.6-3.7.6l-1.8 13.8z"/></svg>