<svg version="1.1" id="Layer_1" xmlns="http://www.w3.org/2000/svg" x="0" y="0" width="720" height="720" style="enable-background:new 0 0 720 720" xml:space="preserve"><style>.st0{fill:none}</style><path class="st0" d="M387.8 325.9h-53.7l26.8 46.3zM360.2 269.2l30.4 51.8 27.5-47.5-57.2-99.4-57.6 98.6 27.6 47.6z"/><path class="st0" d="m360.2 275.1-27.3 47.8h55.4zM419.8 276.5 392.4 324l1.1 1.9h-2.3l-28.5 49.3 57.6 99.5h113.6zM330.7 325.9h-3l1.5-2.6-27.6-47.7-116.4 199.1h116.4l57.6-99.5zM305 474.7h111.8l-55.9-96.5z"/><path d="M360.9 168.2 181.3 475.5l-1.3 2.2h359L360.9 168.2zm0 5.9 57.2 99.4-27.5 47.5-30.4-51.8-29.3 51.1-27.6-47.6 57.6-98.6zm-28 148.8 27.4-47.8 28 47.8h-55.4zm54.9 3L361 372.2l-26.8-46.3h53.6zM185.2 474.7l116.4-199.1 27.6 47.7 1.5 2.6 28.5 49.3-57.7 99.5H185.2zm119.8 0 55.9-96.6 55.9 96.6H305zm57.7-99.5 28.6-49.3 1.1-1.9 27.5-47.4 114 198.2H420.3l-57.6-99.6z"/><g><path d="M193.7 517.8H181v-8.5h34.7v8.5H203v33.4h-9.2v-33.4zM236.2 509.3h19.1c5.3 0 9.4 1.4 12.2 4.2 2.4 2.4 3.6 5.6 3.6 9.6v.1c0 3.4-.8 6.1-2.5 8.3-1.7 2.1-3.8 3.7-6.5 4.7l10.2 14.9h-10.8l-9-13.4H245.3v13.4h-9.2v-41.8zm18.5 20.3c2.3 0 4-.5 5.2-1.6 1.2-1.1 1.8-2.5 1.8-4.3v-.1c0-2-.6-3.5-1.9-4.5-1.3-1-3-1.5-5.3-1.5h-9.1v12h9.3zM298.1 509.3h9.2v41.9h-9.2v-41.9zM333.7 509.3h9.2v33.5h20.9v8.3h-30.1v-41.8zM402.1 551.8c-3.2 0-6.2-.6-8.9-1.7s-5.1-2.7-7-4.6c-2-1.9-3.5-4.2-4.6-6.8-1.1-2.6-1.6-5.4-1.6-8.4v-.1c0-3 .6-5.8 1.7-8.4 1.1-2.6 2.7-4.9 4.6-6.9 2-2 4.3-3.5 7.1-4.7 2.7-1.1 5.7-1.7 8.9-1.7s6.2.6 8.9 1.7 5.1 2.7 7 4.6c2 1.9 3.5 4.2 4.6 6.8 1.1 2.6 1.6 5.4 1.6 8.4v.1c0 3-.6 5.8-1.7 8.4-1.1 2.6-2.7 4.9-4.6 6.9-2 2-4.3 3.5-7.1 4.7-2.7 1.2-5.6 1.7-8.9 1.7zm.1-8.5c1.8 0 3.5-.3 5.1-1 1.6-.7 2.9-1.6 4-2.8 1.1-1.2 2-2.6 2.6-4.2.6-1.6.9-3.3.9-5.1v-.1c0-1.8-.3-3.5-.9-5.1-.6-1.6-1.5-3-2.6-4.2-1.1-1.2-2.5-2.1-4-2.8-1.6-.7-3.2-1-5.1-1-1.9 0-3.6.3-5.1 1-1.5.7-2.8 1.6-3.9 2.8-1.1 1.2-2 2.6-2.6 4.2-.6 1.6-.9 3.3-.9 5.1v.1c0 1.8.3 3.5.9 5.1.6 1.6 1.5 3 2.6 4.2 1.1 1.2 2.5 2.1 4 2.8 1.5.7 3.2 1 5 1zM466.3 551.8c-3.3 0-6.2-.5-8.9-1.6s-5-2.6-6.9-4.5c-1.9-1.9-3.4-4.2-4.5-6.8-1.1-2.6-1.6-5.5-1.6-8.6v-.1c0-3 .5-5.8 1.6-8.4 1.1-2.6 2.6-4.9 4.6-6.9 2-2 4.3-3.5 6.9-4.7 2.7-1.1 5.6-1.7 8.8-1.7 1.9 0 3.6.1 5.1.4 1.5.3 3 .6 4.3 1.1 1.3.5 2.6 1.1 3.7 1.8 1.2.7 2.3 1.5 3.3 2.4l-5.8 7c-.8-.7-1.6-1.3-2.4-1.8-.8-.5-1.6-1-2.5-1.3-.9-.4-1.8-.6-2.8-.8-1-.2-2.1-.3-3.3-.3-1.7 0-3.2.4-4.7 1.1-1.5.7-2.7 1.6-3.8 2.8-1.1 1.2-2 2.6-2.6 4.1-.6 1.6-.9 3.3-.9 5.1v.1c0 1.9.3 3.7.9 5.3.6 1.6 1.5 3 2.6 4.2 1.1 1.2 2.5 2.1 4 2.8 1.5.7 3.2 1 5.1 1 3.4 0 6.3-.8 8.7-2.5v-6H466v-8h18.2v18.2c-2.2 1.8-4.7 3.4-7.7 4.7-3 1.3-6.4 1.9-10.2 1.9zM514.7 534.6l-16.1-25.4h10.8l10 16.8 10.2-16.8H540l-16.1 25.2v16.7h-9.2v-16.5z"/></g></svg>