<svg xmlns="http://www.w3.org/2000/svg" width="792" height="792" style="enable-background:new 0 0 792 792" xml:space="preserve"><path d="M338.9 239.2h8.1v7.1h6.4v5.7H347v13.8c0 2.5 1.5 4.2 3.9 4.2 1.3 0 2.1-.1 2.3-.2v4.9c-.4.1-2.6.8-5.6.8-6.6 0-8.7-4.2-8.7-9.6v-26.7m75.1 7.1h-8.1v28.4h8.2v-17.1c0-3.4 1.8-5.7 5.1-5.7 3.7 0 5.1 2.7 5.1 5.7v17.1h8.2v-19c0-5.9-3.3-10.2-10.2-10.2-5.6 0-7.6 3.3-8.1 4.3h-.2v-3.5zm-10.9-.8c-7.4 0-9.1 4.2-9.7 5.5h-.1v-4.6H386v28.4h8.2v-14.1c0-6.1 4.1-8.6 8.9-8.6v-6.6zm-73.5 8.8 5.2-3.5c-.7-1.1-3.5-5.3-11.6-5.3-6.1 0-11.1 3.1-11.1 8.7 0 5.2 3.7 7.6 7.8 8.9 1.2.4 2.4.7 3.5 1.1 2.2.7 3.9 1.3 3.9 3 0 1.5-1.7 2.6-4.6 2.6-3.8 0-5.6-2.3-6.2-3.3l-5.5 3.1c.5 1.3 3.5 6.1 12.2 6.1 6.6 0 12.3-2.8 12.3-9 0-5.2-3.7-7.6-8.1-8.9-1.1-.3-2.2-.7-3.2-1-2-.6-4.1-1.1-4.1-3 0-1.4 1.3-2.3 3.7-2.3 3.9-.2 5.2 2 5.8 2.8zm-54-20.4-7.4 29.1-7.4-29.1h-10.2l-7.6 29.9-7.6-29.9h-8.6l10.5 40.8h10.8l7.4-28.9 7.4 28.9H273l10.5-40.8h-7.9zm26.2 32.1c-.4.7-1.8 3.6-6.2 3.6-3.6 0-6.1-2.8-6.3-6.7h20.1v-2.5c0-7.4-4.5-15-14.1-15-8.7 0-14.1 6.5-14.1 15 0 8.4 5.4 15 14.5 15 8 0 11-4.7 11.7-6.3l-5.6-3.1zm-6.5-14.7c3.7 0 5.6 2.6 5.9 6h-11.9c.3-3.2 2.1-6 6-6zm79.4 14.7c-.4.7-1.8 3.6-6.2 3.6-3.6 0-6.1-2.8-6.4-6.7h20.1v-2.5c0-7.4-4.5-15-14.1-15-8.6 0-14.1 6.5-14.1 15 0 8.4 5.4 15 14.5 15 8 0 11-4.7 11.8-6.3l-5.6-3.1zm-6.6-14.7c3.7 0 5.6 2.6 5.9 6h-11.9c.4-3.2 2.1-6 6-6zM546 239.2h8.1v7.1h6.4v5.7h-6.4v13.8c0 2.5 1.5 4.2 3.9 4.2 1.3 0 2.1-.1 2.3-.2v4.9c-.4.1-2.6.8-5.6.8-6.6 0-8.7-4.2-8.7-9.6v-26.7m-98-5.3h13.9c12.7 0 20.6 6.2 20.6 20.4s-7.7 20.4-20.6 20.4H448v-40.8zm8.8 34h4.6c10.6 0 12.2-7.1 12.2-13.6s-1.6-13.6-12.2-13.6h-4.6v27.2zm136.5-34h8.4v40.8h-8.4v-40.8zm12.9 38.1c0-1.9 1.6-3.5 3.5-3.5s3.5 1.6 3.5 3.5c0 2-1.6 3.5-3.5 3.5s-3.5-1.6-3.5-3.5zm6.4 0c0-1.6-1.3-2.9-2.9-2.9-1.6 0-2.9 1.3-2.9 2.9 0 1.6 1.3 2.9 2.9 2.9 1.6 0 2.9-1.3 2.9-2.9zm-3.5.3v1.7h-.7v-4.1h1.3c.8 0 1.5.3 1.5 1.1 0 .6-.4.9-.8 1 .4.1.6.4.7.8.1.4.1 1.2.1 1.2h-.7s-.1-.5-.1-.7c-.1-.7-.3-1-.9-1h-.4zm.6-.6c.5 0 .7-.3.7-.6s-.2-.6-.7-.6h-.6v1.2h.6zm-90.9-25.4v3h-.1c-.5-.9-2.5-3.9-7.8-3.9-8.7 0-11.9 7.1-11.9 14.3 0 7.2 3.2 14.3 11.9 14.3 5.4 0 7.4-3.1 7.8-3.9h.1v3.2c0 3.9-2.8 6.3-6 6.3-3.7 0-5.7-2.5-6.2-3.4-.7.4-5.5 3.2-5.5 3.2.6 1.2 3 6.3 11.9 6.3 9.4 0 13.9-6 13.9-14.4v-25.2h-8.1zm-5.5 21.7c-4.6 0-5.5-4.5-5.5-8.2 0-4.2 1.2-8.2 5.5-8.2s5.5 4 5.5 8.2c0 3.7-1 8.2-5.5 8.2zm49.7-17.5c.8-1 3.6-5 11.1-5 7 0 13.5 3.1 13.5 11.2v18h-7.9v-2.8h-.1c-.4.6-2.4 3.7-8.1 3.7-5.3 0-9.3-3.7-9.3-9.2 0-6.5 5.4-9.6 13.7-9.6h3.6v-.6c0-3.1-2.3-4.8-5.9-4.8-3.2 0-5.1 1.8-5.8 2.8l-4.8-3.7zm7.4 15.3c0 2.4 1.8 3.8 4.1 3.8 3.5 0 5-2.9 5-6.3v-1.7h-3.2c-4.3.1-5.9 1.9-5.9 4.2zm-83.6-19.5h8.4v28.4h-8.4v-28.4zm4.2-13.1c-2.5 0-4.6 2-4.6 4.6 0 2.5 2 4.6 4.6 4.6 2.5 0 4.6-2 4.6-4.6 0-2.6-2-4.6-4.6-4.6zm41.4 13.1h8.4v28.4h-8.4v-28.4zm4.2-13.1c-2.5 0-4.6 2-4.6 4.6 0 2.5 2 4.6 4.6 4.6 2.5 0 4.6-2 4.6-4.6-.1-2.6-2.1-4.6-4.6-4.6z"/></svg>