<svg version="1.1" id="Layer_1" xmlns="http://www.w3.org/2000/svg" xmlns:xlink="http://www.w3.org/1999/xlink" x="0" y="0" width="424.6" height="436.4" style="enable-background:new 0 0 424.6 436.4" xml:space="preserve"><style>.st0{clip-path:url(#SVGID_2_)}</style><defs><path id="SVGID_1_" d="M0 0h424.6v436.4H0z"/></defs><clipPath id="SVGID_2_"><use xlink:href="#SVGID_1_" style="overflow:visible"/></clipPath><path class="st0" d="M329.3 265c-3.5 10-7.4 18.8-11.7 26.4-7.5 13.2-17.9 26-31.1 38-10.8 9.9-23.5 19.4-37.6 28-14.4 8.8-27.4 15.1-35.8 18.7 0 0-.5.2-.8.3v20.9l.5-.2c14.9-5.9 87.9-37.3 121.4-96.3 6.1-10.7 11.1-22.9 15.3-35.9h-20.2zM348.6 152.5c-.6 10.1-1.4 19.8-2.3 29.1h19.3c6.2-61.3 2.4-116.4 2.4-116.4L212.3 38.9v19.9l137.2 22.8c.5 15.5.8 41.5-.9 70.9M78.3 181.6c-1-9.3-1.8-19-2.3-29.1-1.7-29.5-1.4-55.4-.9-70.9l137.2-22.8V38.9L56.6 65.2s-3.8 55.1 2.4 116.4h19.3zM175.7 357.4c-14.1-8.7-26.8-18.1-37.6-28-13.1-12-23.6-24.8-31.1-38-4.3-7.6-8.2-16.5-11.7-26.4H75.1c4.2 13 9.2 25.2 15.3 35.9 33.5 59.1 106.5 90.4 121.4 96.3l.5.2v-20.9c-.3-.1-.8-.3-.8-.3-8.4-3.7-21.4-9.9-35.8-18.8M214.9 331.6c0-.8-.3-1.8-.3-2.6 0-.9.3-1.7.3-2.6 0-.9-.2-2-.2-2.9 0-1 .1-2.1.1-3.1 0-1.1-.3-2.2-.3-3.3 0-1.4.4-2.7.4-4.1 0-.6-.2-1.8-.2-3.3 0-1.4.4-2.8.4-3.4-.1-.8-.3-1.7-.2-2.6.1-.5.3-.9.3-1.5 0-.7-.3-1.6.2-1.6 1 1 1.2 2.6 1.2 4.2 0 1.1-.1 1.5-.1 2.6 0 .4.3 1.9.3 3.1 0 1.3-.3 2.7-.3 3.1 0 1.1.1 2.6.1 3.7s-.2 1.9-.1 2.8c.1.5.4 6.8.4 8 0 .9-.1 1.7-.2 2.4-.1.4-.1.9-.1 1.3s-.3 1.6-.5 2c-.2.4-.4-.1-.6-.1-.5.1-.6-1.4-.6-2.1M217.2 348.7c0 .8.3 2.1.3 2.9 0 1.2-.3 2.7-.4 3.8 0 .3 0 .7-.1 1.1-.6.3-1.3.6-1.9.9l-.2.1c.1-.8.2-1.4.3-1.6.3-.8.1-1.5.3-3.6.1-1.1.3-2.3.3-3.4 0-1-.4-2-.3-3 0-1 .3-1.9.3-2.9 0-.7.4-1.6.9-1.6s.5 1 .5 1.7c0 .8.3 1.7.3 2.4-.1 1.1-.3 2.2-.3 3.2M218.9 267.2l-.2-2.1v-.1h1.6v2c.1.6-.2 1.2-.6 1.3-.4.2-.8-.5-.8-1.1M220 312c0-.7.3-1.1.3-1.8 0-1.3.1-2.7.4-2.5.2.1.6.7.7 1.4.2.7.1 1.6.1 2.2 0 .6.2 1.2.2 1.7 0 .6-.2 1.2-.2 1.7s.1.9 0 1.1c-.2 1-.9-1-1.3-1.3-.5-.6-.2-1.3-.2-2.5M222.7 270.9c-.1-1.1-.2-2.5-.2-3.3-.1-.7.7-1 1.2-.4.3.3.5 1.8.6 2.5 0 .3.2.6.3.9.1.4.1 1.3.2 2.1 0 .6-.3.7-.9.4-.4-.1-1-.4-1.2-2.2M224.5 300.8c0 .7.1 1.6.4 2.2.4.7 1 .9 1.6 1.2.4.2.4-1.3.4-1.9 0-.8.6-.8 1.1-.2.3.4.5 1.9.5 2.6 0 .3.1 1.3.2 2.1.1 1.1.1 2-1 1.1-.5-.4-1.1-.6-1.6-1.1-.6-1.1-1.5-1.3-2.3-2-.9-.6-.5-2.1-.6-3.4-.1-.7 0-1.5.4-1.7.5-.1.9.2 1 .9-.2.1-.2.1-.1.2M226.4 265.5v-.5h1.5v.3c.1.1.1 1.2.4 2.5.1.5.3.6.5 1.1.2.7.2 1.4.3 2 .2.8.4 1.5.5 1.8.1.7-.1 1.6 0 2.3.1.8.1 2-.4 2.2-.6.1-1-1-1.1-1.8-.1-.5-.6-1.4-.7-2.1 0-.3 0-1-.1-1.7-.1-.5-.4-1.1-.5-1.7 0-.6.1-1.2 0-1.8-.2-1-.4-2.3-.4-2.6M246.1 336.5c-.3-1.1-.6-.9-.7-2-.1-1-.8-1-2-1.6-1.2-.6-1.5-.4-.9 2 .1.3.2.6.2.9.2.7 0 1.5-.5 1.7-.5.3-1-.1-1.1-.8-.1-.2-.2-.5-.3-.8-.3-1.2-.8-1.4-.9-2-.1-.6-.4-1.1-.8-1.7-.4-.4-.8-.8-1.5-1-.8-.3.2 1.2.4 3v.1c0 .3.1.6.1.9.1.8.2 1.3.7 1.7.3.2.6 1.3 1.1 1.1.5-.2 1.1.7 1.2 1.5s-.2 1.1-.7 1.3c-.2.1-.9-.3-1.7-.4-.6-.1-1.3 0-1.9-.2-.8-.3-1.1-1.3-1.8-1.6-.6-.2-1-.4-1.3-.6-.4-.3-.8-1.6-.5-2.3.2-.7.7-.6 1.1-.3.6.4 1 .4 1 0 0-.2 0-.5-.1-1-.1-.2-.2-.5-.4-.8-.3-.7-.4-.6-.8-2-.4-1.1-.9-2.3-1.2-2.7-.5-.7-.7-1.5-1.1-2.7-.3-1.3-.5-1-.7-2.2-.2-.7-.6-.8-1.1-.6-.4.3-.4 1.1-.2 1.8.1.6.4.7.5 1.4.1 1 .1 2 .3 2.6.5 2 .3.6.9 2.6.1.5 0 1.1.3 1.8.2.6.1 1.6-.3 1.9-.4.4-.9.1-1.2-.5-.2-.6-.7-1.1-1.1-2-.4-1.1-.6-2.6-1-3.4-.7-1.5-.4-1.9-1.1-3.3-.5-1.1-.7-1.8-.9-2.8-.1-.7-1-1.5-1.5-1.4-.5.2-.3 1.3-.3 2 .2 1.6.3 1.7.5 2.8.2 1 .6 1.6.8 2.6.1.5-.1 1.1 0 1.7.2.7 0 1.5-.5 1.8-.5.3-1 0-1.2-.8-.1-.5-.5-.9-.7-1.5-.2-.9-.4-1.8-.9-3-.4-.8-.9-2.1-1.1-3-.1-.4-.1-1.7-.4-2.9-.3-1.2-.9-2.3-1.3-2.3-.5 0-.7-.1-.7.6 0 .9.3 2.9.2 4.3v3.7c0 2.2.2 2.7.2 5.1.2 2.3.2 4.2.2 6.6 0 1.7-.2 3.3 0 4.7.2 1.4.2 2.9.4 4.2.1 1-.1 2.8 0 4.2 0 .6.1 1.3.2 1.9 4.4-2.2 9.2-4.8 14.3-7.7h-.2c-.4 0-.9.6-1.4.7-.6.1-1.2-.5-1.7-.4-.8.1-1 .4-1.8.4-.3 0-1-.2-1.4-.2-1.1-.1-1.4 0-1.9.1-.8.1-1.2.2-2 .2-.6 0-1.5-.4-2.1-.4-.5 0-.5-.5-.5-1s.3-1.2.7-1.2c.6 0 1.3-.3 1.9-.3 1 0 1.3.3 2.3.4.6.1 1.1-.3 1.7-.5.3-.1.8 0 1.1 0 1 0 1.4.3 2.3.4.4.1 1-.2 1.5-.2s1 .4 1.3.4c.5 0 .8.2.8.8 0 .2 0 .3-.1.4 2-1.1 4-2.3 6-3.6 1.1-.6 2.1-1.3 3.2-2-.1-.4-.2-.9-.4-1.3-.5-.2-.3-1.1-.2-1.8.2-.8.2-1 .7-.8.4.2.9.2 1.4.4.8 1 1 .3.6-1.1m-22.6 5.3c-.5.1-.9.6-1.3.5-.2 0-1-.1-1.4-.4-.3-.2-.2-1.2-.2-1.6 0-.7.8-.7 1.3-.7.3 0 .8-.3.9-.3.3 0 .5.5.8.5.5-.1.9.1 1 .9-.1.8-.6 1-1.1 1.1M252.5 335.8l-1.8 1.2c-.3 0-.5.2-.7.2-.3 0-.6.3-.6.6-.1.1-.3.2-.4.3-.1-.3-.1-.6-.1-.9-.1-.9-.1-1.4 1.6-1 .5.1.7-.1.7-.4.1 0 .3.1.4.1.2 0 .5 0 .9-.1M252.8 333.6c.1.5.2.8.4 1.1-.1 0-.2.1-.4.1-.5 0-.7 0-1.2-.1-.2 0-.5.1-.8.1l-.3-1.2c-.3-1.6-.2-2 .8-1.2 1.2.8 1.4.5 1.5 1.2M235 265.6v-.6h1.9c.1.3.1.7.2 1.1 0 .7-.1 2-.6 2-.3 0-.6-.3-.9-.7-.2-.3-.3-.6-.3-.9 0-.4-.2-.7-.3-.9"/><path class="st0" d="M261.6 299.9c-.4.3-.8-.2-1-.9-.1-.3-.5-1.1-.9-1.6-.3-.4-.7-.4-1-.4-.7.1-.8.1-.5 1.4.1.3 0 .6.1 1.1.2.7.5 1.6 0 1.9-.4.3-1-.4-1.2-1.1-.2-.6-.4-1.1-.5-1.6-.2-.6-.1-1.2-.1-1.9-.1-.5-.5-1-.5-1.6-.1-.6-.1-.3-.1-.8-.1-.7.3-1.4.8-1.5.4-.1.8.4.9.9 1.3.6 1.4-.3 2.4-.6.5-.2.9.3 1 1 .1.7.2 1.3.3 1.9.2.7.2 1.2.4 1.8.3 1 .3 1.7-.1 2m2.5 22.5c-.1-2 .1-3.7.1-4.8 0-1.6.2-2.9.2-4.4 0-.9-.3-1.9-.3-2.7 0-.7 0-1.5.1-2.2-.1-.6 0-1.3-.1-1.7-.1-.4-.2-.8-.1-1.1.1-.3 0-.6.3-.7h.2v-.3c0-1.9-.4-3.9-.4-5.7v-1c-.2-.5-.5-.9-.6-1.3-.1-.4 0-.7-.1-1.1-.2-.7-.3-1.3.2-1.6.3-.2.5 0 .7.2v-.1c0-1.2-.3-2.5-.3-3.8v-.3h-.6c-.1 0-.3.1-.4.1-.5 0-.9-.3-1.1-.5-.1 0-.1-.1-.1-.1-.1 0-.2-.1-.3-.1-.6-.2-1.3-.4-1.4-1.1-.1-.4 0-.7.3-1 .4-.4 1.2-.5 4-.8v-.5c0-1.8.3-3.1.3-4.7 0-.1-.1-.2-.1-.3-.3-1-.7-2-.9-2.6-.2-.6-.1-1.5.3-1.8.1-.1.3-.1.5-.1v-.6c0-1.4-.4-3.1-.4-4.6 0-.7.2-1.8.3-2.7-.1-.3-.1-.5-.1-.8 0-.6-.1-1.2-.2-1.8h-.2c-.4-.1-.9-.4-1.4-.6-.2-.1-.3-.1-.5-.2h-15.2c.7.6 1.4 1.2 1.9 1.8.9 1 2.4 1 4.6 3.7 1.3 1.5 3 1.5 4.6 2.2 1.2.5 2.4 1.8 2.8 2.5.4.5.6 1.1 1.1 2.4.4.9.7 2 .9 2.9.3 1.1.5 2 .4 2.1-.5.2-.4.3-1.3.2-.3-.7-1-1.2-1.2-1.7-.3-.7-.4-.7-.8-1.8-.2-.7-.8-1.8-1.2-1.5-.4.3-.3 1.2 0 1.9.3.9.3 1.9.6 2.8.4 1.2.7 2.3.8 3 .1 1-.2 1.4-.7 1-.4-.3-1-1-1.6-2.2-.3-.6-.4-1.3-.8-2.1-.3-.7-.6-1.3-.9-2-.5-1.3-.8-2.6-1-3.2-.2-.3-.3-.5-.4-.8-.2-.7-.7-1-1.1-.6-.4.4-.3 1.2-.1 1.8.3.7.1 1.4.2 2.1.2 1.2.5 2.5.5 3.6 0 1.5.2 1.4-2-.5-.3-.3-.9-.2-1.3-.8-.5-.6-1.1-2-1.4-3.2-.2-.8-.6-1.6-.7-2.3-.3-1.9-1.4-2.2-1.5-2.9-.1-.7-.6-2-1.1-1.8-.5.1-.3 1.1-.2 1.8.1 1 0 2.4.6 4 .6 1.5.3 2.5 0 3.1-.2.5-.2 1-1.4-.5-.6-.7-1.2-2.4-1.7-4.8-.2-.7-.7-1.8-1.1-1.6-.4.2-.7 1.4-.5 2.1.2.7.7 2 .9 3.7.2 1.4.2 2.7.2 3.1.2 1 .8 1.7-.6 1.8-.7 0-.8-.4-1.2-1.2-.2-.5-.6-1.1-.8-2.1 0-.1-.1-.2-.1-.3-.2-.4-.4-.9-.7-1.6l-.3-.9c-.2-1.3-.2-2.6-.3-3-.2-.8-.6-1.8-.6-2.7 0-.7-.5-1.7-1.1-1.6-.5.1-.6 1-.6 1.7.1.9-.1 1.4-.2 1.8 0 .4 0 .4-.9 0h-.1c-.8-.4-.8-.7-.8-1.3 0-.3 0-.6-.1-1.1 0-.2-.1-.3-.1-.4-.2-.5-.6-1.5-.9-3.1-.1-.9-.1-2.1-.3-2.9 0-.2-.1-.4-.1-.6H231v2.1c.1.7.4 1.3.5 1.9.2 1.5.3 2.7.2 3.1h.1c.3.3.4 1 .2 1.5.2.5.4 1.1.5 1.8.2 1.2.1 2.9.3 4 .2.8.6 1.1.8 1.7.2.7.7 1 1.2.7.4-.3.3-1.4.1-2.1-.2-.7 0-1.1 0-1.5 0-.9.3-1.4.7-1.4.3 0 .6.8 1 1.5.3.5.4 1.1.6 1.9.3 1.6.8 3.1 1.1 3.6.6 1 1.3 2.2 2.6 3.6 1.6 1.9 2 1.9 2.4 3.2.1.5.3 1.1.4 2.3 0 .5.3 1.1.3 1.5.1.8.4 1.2.9 1.1.5-.1.5-.7.4-1.4-.1-1.2 0-2 .3-2.1.3-.2.7.4 1 1 .4.7.6 1.8.7 2.3.1.6 0 .9.2 2.3.1 1 .6 1.8.8 3.1.1.7.2 1.3.7 1.2.5-.1.7-.7.6-1.4-.2-1.1 0-1.8.1-2.6 0-.8-.3-1.4-.4-2.2-.1-1.5-.3-2.1-.6-2.8-.4-.8-.9-1.1-1.5-1.9-.2-.2-.3-.5-.4-.8-.2-.2-.5-.4-.7-.6-.3-.2-.6-.5-.8-.8-.5-.5-.8-.9-1.2-1.1-.5-.2-.7-.9-.6-1.7.1-.7.5-1.6 1-1.4.7.3 1.1 1 1.7 1.5l.6.6c.2 0 .4.1.5.3.3.4.8.6 1.2 1 .1.1.3.6.4.7.3.1.5.5.6.9.3.5.7 1.1 1.1 1.2.7.2 1.2-.1 1.7.4.4.4.7 1.1 1.2 1.4.2.3.4.6.5.9.5.3.8.8.6 1.5-.2.7-.5.7-.9.4-.4-.3-.8-.1-.9-.2-1-.7-1.2-.3-1.4-.2-.3.2 0 .8 0 1.4 0 .5-.2.9 0 1.5.1.9.4 2 .4 2.5s0 .6.1.7c0 .8.3 1.1.5 2.1.2.7.5 1.3.9 1.1.5-.3.5-.7.3-1.4-.1-.6-.3-1.7-.3-2.3 0-.9.4-1.3 1.1-.4.6.6.8 2 1 2.5.2.6.5.9.7 1.3.3.8.9 1.3 1.2 1.8.6.7.5 1 1.1.9.5.2 1 .2.9-.1-.1-.4-.2-.8-.4-1.4-.3-1-.7-2.2.2-2.2.2 0 .4.2.7.5.2.3.5 1 .5 1.3 0 .2 1.2.5 1.5 1.4.2.6.4 1.5.6 2.2.2.7.6 1.2.8 1.9.2.6.2 1.5.4 2 .2.7.2 1.3-.2 1.6-.4.3-.8-.2-1-.8-.2-.5-.6-.6-.8-1.1-.4-.8-.4-1.3-.6-1.5-.3-.4-1.1-.8-1.7-.8-.4 0-.8 0-.4.9.2.4.2.8.4 1.5.3.9.9 1.7 1.1 2.5.2.5.2 1.5.4 2 .2.3.3.7.5 1.1.2.6.2 1.4-.2 1.8-.4.4-.9.2-1.2-.4-.1-.3-.3-.7-.5-1-.6-1.1-1.3-1-1.8-2.1-.2-.6-.3-1.5-.5-2-.7-1.7-1.6-2.6-2.2-4.3-.2-.7-.7-1.7-1.1-1.3-.4.3-.3 1.4-.1 2.1.2.5.4.7.6 1.2.2.5.2 1.3.4 1.9.2.8.6 1.2.9 1.9.6 1.4.7 2.2.3 2.3-.4.1-.8-.1-1.2-.1-.5-.1-.9-.2-1.3-.6-.4-.5-.7-1.3-1-2.3-.2-.7-.8-1.1-1.3-.8-.1.1-.2.7-.1 1.3.1.6.2 1.2.1 1.5-.1.2-.4.1-1.6-.6-.4-.2-.7-1.2-1-2.1-.2-.6-.6-1.1-.7-1.5-.3-.9-.4-1.8-.7-2.7-.2-1-.8-1.6-.9-2.5-.2-.7-.5-1.6-.9-1.3-.5.2-.3.9-.2 1.6.1.6 0 1.2.1 1.9 0 .2.6 1.1.9 2 .3.9.3 1.9.6 2.9.3.9.7 1.6.8 1.9.4 1.6.5 2.2 0 2.1-.5-.1-.7 0-1-.2-.5-.3-1.2-.8-1.4-1.8 0-.2-.4-1.2-.8-2.2-.2-.6-.4-1.5-.6-2.2-.3-1.1-.3-1.1-.4-1.4-.2-.6-.5-2.1-.7-2.7-.2-.8-.6-1.3-.8-2.2-.1-.7-.5-1.4-1-1.1-.4.2-.4.8-.2 1.5.2 1.1.1 2.1.4 2.9.2.5.3 1 .5 1.6.2.7.8 2.6.6 2.6-.3 0-.7.2-1.3.1-.8-.2-1.4-1.9-1.9-2.5-.5-.7-.8-1.2-1-2.3-.2-1-.5-2-.8-3.2-.1-.6-.4-1.9-.7-3.2-.2-.9-.3-2.2-.9-2-.4.2-.2.8-.2 1.8 0 .5-.2 1.2-.1 1.8.1 1.1.5 1.8.7 2.9.2.8 0 1.8.1 2.5.1 1.1.1 2-.3 2.2-.4.2-1.6-.9-2-1.4-.3-.4-.8-1.1-.9-2-.1-.5-.2-.9-.2-1.4-.1-.5.2-1.1.1-1.5-.2-.9-.8-1.3-.8-2.3 0-.8-.6-1.3-1-1.3-.5 0-.3.8-.3 1.5 0 1.3-.3 1.9-.1 2.9.1.4.4.9.4 1.3.1.4.1 1.8.2 2.2.3 2 .6 1.7.9 2.4.1.2.2.4.4.5.1 0 .1.1.2.1l.2.2c1 .9 2.5 1.5 4 3.1.7.8 1.4 2 2.3 2.8.9.8 1.8.6 2.8 1.3 1.3.9 2.7 2.8 3.9 3.6 1.4 1.1 2 .8 2.5 1.5.8 1.1 1.1.5 1.6 1.6.3.6.3 1.3.4 2.1.4.4.9 1.1 1.3.6.3-.3-.1-1.7.8-2.1.5-.2 1.1.3 1.3 1 0 .3.5 1 .6 1.8.1.7 0 1.5.1 2 .2 1 .4 1.3.5 2l.9-.6c-.1-.1-.2-.1-.3-.1-.2 0-.4-.1-.4-.4 0-.3.2-.4.4-.4s.4-.1.7-.1v-.9c-.2-.8-.1-1.5.4-1.8.5-.2.9.4 1.1 1.2 0 .3.2.6.4.9 2.2-1.6 4.3-3.2 6.4-4.8-.2-2.3-.3-4.2-.4-4.5M266.1 272.1c-.1-1.4-.3-2.7-.3-4.1 0-.6.1-1.3.2-2l.1-.1c.1-.2.1-.3 0-.4v-.4h.5v7.9c0 .2.1.5 0 .8 0 .3 0 .7.1 1.1.1.2 0 .4 0 .7v2c-.3-.4-.4-.7-.5-1.1-.2-1.1.1-1.9-.1-4.4M266.8 282.1c.1 0 .3 0 .5.1V286.1c-.3 0-.5.1-.8.1-.1-.7-.1-1.3-.1-1.8 0 0 .1 0 .1-.1.4-.3.5-.7.3-1.4-.1-.3-.1-.5-.2-.7.1-.1.1-.1.2-.1M267 292.7c-.3.2-.6.1-1 .4 0-1.5.2-2.4.4-3.3h.5c-.1.1-.1.2-.2.4-.1.3-.1.7.3 1.2.1.1.2.2.3.4v.8c-.1-.1-.2 0-.3.1M266.1 302.9c0-1.9.1-4 0-6.1 0-.3 0-.6-.1-1 .3-.2.7-.4 1-.7l.3-.3V297.4c0 .2-.1.4 0 .6v8.5c0 .3 0 .6.1.9l.1.3c.1.4.1.8.1 1.2v.6c-.1.3-.3.4-.5.4-.5 0-.8-1.9-.8-2.7.1-1-.2-2.5-.2-4.3M267.9 316v4.9c0 .8 0 1.7-.1 2.5V324.3c-.4.3-.7.6-1.1.9-.2-1.8-.3-3.1-.3-3.3-.1-1-.2-2.3-.2-3.1 0-.7.1-1.7.1-2.3 0-.8.1-2.4.6-2.5.5-.1 1 1.2 1 2M282.8 308.2c-.1.2-.2.4-.1.7-.3.3-.3.6-.5.7-.6.3-1.1 1-1 1.7.1.3.2.5.3.6-1.8 1.8-3.7 3.6-5.7 5.4-.7.7-1.5 1.4-2.3 2v-9.9c.1-.7 0-1.3-.1-1.9 0-.2 0-.4-.1-.5 0-.2 0-.4-.1-.6 0-.3-.1-.7-.1-1-.1-.5-.1-1.1-.1-1.7.5 0 1.1.1 1.6.1-.5.1-.8.3-1 .5-.3.3-.4.7-.2 1.1.4.9 2.3 1.2 2.6 1.2 0 .2 0 .3.1.5s.3.7 1.1.7 2.4-.6 3.6-1.1v.4c.4.8 1.2 1 2 1.1M273.1 300.9V298c0-.7 0-1.5-.2-2.5v-.5c.3-.3.6-.8.7-1.2.2-.1.4-.2.6-.2.2-.1.5-.3.8-.4l1-.5c-.3.3-.4.6-.3 1 0 .4.3.7.7.9.2.1.4.1.6.1.8 0 2-.6 3.6-1.5.4-.2.7-.4.9-.5.1 0 .2-.1.3-.1v.3c0 .3.2.7.8.9.2.1.4.1.5.1v.5c-.8.5-1.4.4-2.1.9-.6.4-1.1 1.6-1.9 2.2l-.3.3c-.1 0-.2-.1-.3-.1-.1 0-.3-.1-.4-.1-.5 0-.9.3-1 .7-.3.8.4 1.8.9 2.2.1.1.3.2.5.3h-2.1c-1.8 0-2.7 0-3.3.1M296.3 294.1c0 .1.1.3.2.3-1.6 2.2-3.3 4.3-5 6.5h-.9c-.7-.1-1.1-.3-1.6-.5-.5-.3-1.2-.6-2.1-.7-.6-.1-1.2-.1-1.7-.1h-.5c-.9 0-1.7 0-2.3-.2-.5-.2-1.3-.5-2-.9.4-.2.7-.4 1-.6.8-.5 1.2-1.3 2.3-2.2.2-.2.4-.4.5-.6.2 0 .5 0 .8-.1v.1c-.3.4-.5.8-.5 1.2 0 .4.2.8.6 1 .1.1.3.1.4.1.5 0 .9-.3 2-1.1.2-.2.6-.4.8-.6.1.3.2.6.4.8l-.1.1c-.5.4-.9.9-.6 1.4.2.6.8.7 1.3.3.7-.6 1.4-.8 2-1.2.8-.5 1.2-1.3 2.3-2.2.2-.2.4-.4.5-.6.1 0 .2-.1.3-.1.1.1.3.2.5.3h.2c.3.1.7 0 1.2-.4M308.6 273.7c-1.3 2.7-2.5 5.3-3.9 7.8-1.3.5-2.8 1-3.5 1.1-.5.1-1.2.2-2 .3-1.3.2-3 .5-3.7.5-.2-.2-.6-.6-1.2-.6h-.2c-.5.1-5.5.6-7.3 1-1.8.4-4.5.9-5.5.9-.4 0-.6-.1-1-.2-.3-.1-.6-.2-1-.2-.2 0-.5 0-.7.2-.5.3-1.9.8-2.8.9-.4 0-.7.1-1 .1-.3 0-.5.1-.8.1h-.3c-.2-.1-.5-.2-.7-.2-.1 0-.3 0-.4.1v-1.1c0-.5 0-1-.1-1.6v-.2c0 .1.1.2.1.3.1.3.6.5.8 1.1.3.6.5.9.9.5s.6-.9.3-1.5-.4-1.6-.6-1.9c-.2-.4-.5-.5-.8-1.4-.1-.5-.4-.8-.7-.9.1 0 .2-.1.3-.1.3-.1 1-.5 1.5-.9.4-.3.3-.5.6-.9.4-.5.6-1 .3-1.6-.3-.6-.5-.4-1-.1-.3.2-.6.1-1 .4-.4.3-.4.7-.6.8-.2.1-.4.2-.5.4 0-.4 0-.8-.1-1.3v-1.6c0-.4-.1-.8-.1-1.2 0-.3-.1-.7-.1-1v-.2c0-.3-.1-.6 0-.9V267.9c0-.2 0-.4-.1-.6 0-.4-.1-.7-.1-1v-1h13c.3.2.7.5 1.4.9.7.5 1.6 1.1 2 1.4.6.5 1.1.8 1.6 1h-.3c-.4 0-.8 0-1 .1-.2.1-.3.1-.5.2-.6.2-1.1.4-1.6.4h-.3c-.2 0-.5-.1-.8-.2h-.2c.1-.3-.2-.6-.7-.7-.5-.1-.8-.4-1.1-.6-.5-.3-.9-.6-1.3-.8-.7-.4-2.1-.5-3-.8-.6-.2-.9-.2-1.3.2s-.3.9.3 1.1c.7.2.9.7 1.5 1.1.1 0 .2.1.3.1h-.8c-.4 0-.7 0-1-.1-1.2-.2-2.8-.4-3.6-.4-.6 0-1.1.4-1.2.9-.2.9.7 1.9 1.6 2.3.5.2 1.3.4 2.2.5.6.1 1.2.2 1.7.4h-2.6c-.2 0-.4 0-.6-.1-.2 0-.4-.1-.6-.1-.6 0-1.1.4-1.1 1 0 .3.1.6.3.8.7.8 2.6 1 2.6 1 .1 0 .2 0 .3.1 0 .2.2.6.7.9.3.2.6.2 1.1.2.4 0 .9-.1 1.4-.2 0 0-.1 0-.1.1-.9.8-1.7.6-2.4 1.1-.6.4-1.1 1.6-1.9 2.2-.5.4-.9.9-.6 1.4.2.6.8.7 1.3.3.7-.5 1.4-.8 1.9-1.2.8-.5 1.2-1.3 2.3-2.2.5-.4.9-1.1.7-1.6-.1-.1-.1-.2-.2-.3.4-.1.7-.1 1-.1h2.1c-.1.2-.3.4-.5.7-.6.7-1 1.8-.8 2.6.3.7.9.2 1.5-.5.7-.8 1.3-.4 1.7-.8.4-.4.6-1.5 1.3-2.4.4.1 1 .2 1.6.3 0 0-.1 0-.1.1-.7.4-1.3.8-1.1 1.5 0 .1.2.7 1 .7h.1c-.1 0-.2.1-.4.2-.6.4-1.1 1.6-1.9 2.2-.5.4-.9.9-.6 1.4.2.6.8.7 1.3.3.7-.6 1.4-.8 2-1.2.8-.5 1.2-1.3 2.3-2.2l.1-.1c.1.7.3 1.3 1.1 1.3.6 0 .9-.4 1.6-1.3.4-.5 1.2-1.5 1.5-1.6l.3-.1c-.1.3-.2.6-.2.9.1.7.6.8 1.2.5.3-.1 1-.5 1.5-.9.4-.4.3-.5.6-.9.2-.2.3-.4.4-.7.4 0 .8-.1 1.4-.2.4-.1.9-.1 1.4-.2-.3.4-.5.7-.5 1.1-.1 0-.2.1-.3.2-.6.4-1.1 1.6-1.9 2.2-.5.4-.8.9-.6 1.4.2.6.8.7 1.3.3.7-.6 1.4-.8 2-1.2.7-.5 1.1-1.2 2-2l.1-.1h.1c0 .4 0 .8.2 1.2 0-.1.1-.1.1-.2.6-.6.9-1.2 1.3-1.7.6-.7 1.4-1.1 2.4-2-.5-.4-.2-.6 0-.7M219.3 181.5v.2h-1.8c0-.6.1-1.2.1-1.6-.1-.7-.1-1.6.3-1.8.5-.1.8.6.8 1.3.2.5.4 1.1.6 1.9M218 131.6c-.1-.7-.2-1.2.3-1.4.5-.2.8.3.9 1 .1.4.4.9.5 1.3.1.4 0 .9.2 1.3.1.4.3.7.4 1.1.1.4.1 1.3.2 1.6.2.6.2 1.1-.2 1.5-.4.4-.8-.2-1-.8-.2-.4-.5-.6-.7-1-.2-.4 0-1.1-.2-1.6s-.4-1.2-.5-1.7c0-.4.2-.9.1-1.3M214.8 120c-.2-.8.1-1.3.1-1.7 0-.7-.1-1.1.4-1.2.5 0 .9 0 .9.7 0 .3.3.6.5 1.1.1.4.1 1.1.2 1.4.2.4 0-.1.2.2.1.2.2.6.4.9.2.3.4.1.7.3.5.3.7 0 .5-1.2-.2-.7 0-1.3.4-1.5.5-.2.8.2.9.9 0 .2.3.5.4.8.2.2.2.9.4 1.1.1.1.1.6.2 1 .4 1 .2 1.4-.1 1.7-.2.1-.9.3-1.6 0-1-.3-2.1-.9-2.3-1.1-.4-.2-1.3-.4-1.7-.9-.2-.2-.3-.9-.5-1.7-.1-.4.1-.3 0-.8M222.5 181.2c0 .2.1.3.1.5H221v-.1c-.1-.7.1-1.5.6-1.6.4-.3.8.5.9 1.2M217.7 150.5c0-.3-.2-.4-.3-.9l-1-1c-.4-.4-.2.2-.6-.4-.3-.3-.8-.7-1.1-1-.1-.1 0-.8 0-1.5 0-.9-.1-1.8.5-.9.5.6.4.8.8 1.1.6.5.8.7.9.7.2 0 .3-.2.2-.7v-.5c0-.1-.2-.7-.2-1.1 0-.6-.1-1.2.3-1.2.4-.1.9.6 1 1.3 0 .8.1 1.7.2 2.2.2.9.5 1.3 1 1.7.3.3 1.4.4 1.3-.4 0-.3-.2-1.2-.1-1.7 0-.6-.1-1.4.1-1.4.5-.1 1.1.8 1.1 1.5 0 .4.2.8.3 1.3.1.7.2 1.4.3 2 .1.9.5 1.2.6 2 .1.6 0 1.5.1 2 .2.6.2.9-.2 1.2-.4.3-.8 0-.9-.6-.1-.4-.4-.9-.6-1.5-.1-.6 0-.7-.3-1.1-.2-.3-.8-.7-1.1-.9 0 0-.9-.9-1.1-.5-.3.8-.1 1.3 0 1.8 0 .4.2.9-.2 1.2-.4.3-.9-.1-1.1-1.6.2-.3.2-.6.1-1.1M225.1 166.4c0 .3.1 1.1.1 2 0 1.3-.2 2.4-1.3 1.5-.3-.3-.1-.9-.5-1.3-.4-.5-1.5-.8-1.8-1-.4-.4-.6.5-1.1.2-1-.6-1-.8-1.1-2.3 0-.7-.1-1.8-.1-2.1 0-.5.2-1 .2-1.4 0-.7.1-.9.6-.9s.6.5.6 1.2c0 .4.3.5.3.9 0 1-.1 1.7.6 2.1 1.3.8 1.6 1 1.6.3v-1c0-.3.4-.7.4-1.1 0-.7.1-1.1.5-1.1.5 0 .7.5.7 1.3 0 .3.4 1 .4 1.3 0 .5-.1.9-.1 1.4M229.3 171.4c.2.7.1 1-.4 1.3-.4.3-.6-.1-.8-.7-.1-.4-.5-.7-.6-1.2-.1-.6-.2-1.4-.3-2-.2-1.1-.1-.7-.2-1.4s0-1.3.4-1.4c.3 0 .8.8 1 1.3l.4.8c.2.7.3 1.6.4 1.9.2.5.1 1 .1 1.4M233.7 173.3c.1.7 0 1.3-.4 1.5-.5.2-.8-.5-.8-1.2-.1-.7-.4-1.3-.6-2-.1-.6-.1-1.1-.2-1.7 0-.5-.2-1.1-.2-1.5-.1-.7-.2-1.1.3-1.3.5-.1 1.2.4 1.3 1 0 .4.2 1.1.2 1.5.1.6.3.9.3 1.4.1.9-.1 1.6.1 2.3M231.7 157c-.2-.2-1-.3-1.7-.5-.8-.2-1.6-.8-1.8-.5-.2.9.7 2-.9 1.7h-.2v.1s-.2-.1-.1-.1c0-.1 0-.1-.1-.1-.5-.4-.6-.9-.7-1.3-.2-.4-.4-.8-.4-1.2-.1-.4-.1-.9-.1-1.3-.2-.4-.2-.8-.2-1.4 0-.7 0-1-.2-1.4-.2-.4-.3-.8-.5-1.4-.1-.7.1-.8 0-1.5-.2-1.3.5-2 1-1.1.3.5.6 1 .7 1.6.1.8 0 1.5.2 2.3.2.9.6 1.7.9 2.4.1.1.2.1.3.2.2 0 .5.2.8.2.2 0 .6.2.9 0 .5-.3 0-2 0-2.4 0-.4-.1-.8-.2-1.1-.2-.6-.4-1.3-.4-1.8 0-.7 0-1.2.5-1.2s1.1.9 1.1 1.6c0 .3 0 .4.2.9v.1c.3.1.5 1 .8.9.6-.3 1-.1 1.3-.1.4 0 .6 0 .7.5.2.5.4 1 .4 1.4 0 .4-.2.8-.7.4-.3-.3-.6-.1-.9-.1-.7-.1-.7.9-.5 1.6.2.6.6.7 1.5 1.1 1.3.7 1.3 1.1.8 1.5-.2.2-.5.5-.9.6-.5-.1-1.2-.1-1.6-.6M235.9 164.5c-.1-.1-.3 0-.5-.1-.5-.4-.8-.6-1.3-1-.1-.1-.2-.5-.4-.7-.4-.3-.7-.8-.5-1.5.2-.6.6-.5 1-.2.2.2.5.3.8.4.4.3.6.4 1 .7.1 0 .4.4.5.5.4.2.8.7.7 1.3-.2.8-.9.9-1.3.6M249.1 164.4c-.1.2-.1.4 0 .6v.1H248.8s0-.1-.1-.1c-.1-.1-.3-.2-.5-.3-.3 0-.5.2-.6.4h-.2s-.1-.1-.2-.1c-.2-.2-.4-.5-.8-.8.2 0 .3-.1.4-.1.1-.1.2-.2.2-.3.1 0 .1-.1.1-.1v.3c.1.3.3.4.6.4h.5c.2 0 .3-.1.4-.2.1-.1.2-.1.3-.1h.3c0 .1-.1.2-.1.3M254.6 163.2l.1.1s-.1 0-.2.1c-.2.1-.4.2-.5.4 0 0-.1 0-.2.1-.2.1-.5.2-.7.3 0-.1 0-.2-.1-.3l-.3-.3-.1-.1c0-.1 0-.2-.1-.4s-.3-.4-.6-.4h-.2c-.2.1-.4.2-.4.4-.1.1-.2.3-.2.5h-.2s-.1-.1-.2-.1h-.5c.1 0 .3-.1.4-.2.1-.1.2-.2.2-.3.2 0 .3-.1.5-.2.1-.1.2-.2.4-.2l.1-.1c.2-.1.4-.2.5-.3h.6c.1.1.2.1.3.1h.2c.1 0 .1 0 .2-.1l.1.1h.1v.3c.1.3.3.4.6.4.1.2.2.2.2.2zM254.7 166.8h.4c.1 0 .2 0 .3-.1 0 0 .1 0 .1-.1 0 0 .1 0 .2-.1.1 0 .2-.1.3-.2l.1-.1c0-.1.1-.1.1-.2.1 0 .2 0 .3-.1h.1l.1.1c.1.1.3.2.5.2.1 0 .3 0 .4-.1v.1c-.1.1-.2.3-.2.6-.1.2-.1.3-.2.5s-.1.4-.2.6l-.2.2s-.1.1-.2.1c-.1-.2-.4-.3-.7-.3h-.5c-.1 0-.2 0-.3.1l-.3.3-.1.1h-.1c-.1 0-.2-.1-.3-.1 0-.1-.1-.2-.1-.3 0-.1-.1-.1-.1-.1 0-.1 0-.3-.1-.4 0-.1-.1-.3-.2-.4 0-.2-.1-.3-.3-.4-.1-.1-.2-.1-.4-.1h-.2c-.1.1-.3.1-.4.3v-.1l.3-.3.2-.4v-.1c.2-.1.4-.2.5-.3.1.1.3.3.5.4v.2c.2.2.4.5.7.5M264.6 181.4c-.1.1-.1.2-.1.2h-22.4c-.5-.4-1-.8-1.6-1.6-1.2-1.6-2.7-2.2-3.8-3.5-.2-.1-.4-.3-.4-.6-.2-.4-.3-.7-.3-1.1-.1-.5-.1-1.1-.2-1.7-.1-.9-.2-1.8-.1-2.3 0-.8 0-1.4.5-1.3.5 0 1.1.9 1.1 1.6 0 .3.2.8.3 1.5.1.6.5 1.1.6 1.4.2.8.9 2.4 1.3 2.5.9.4 1.4 1 1.6.7.2-.2-.4-2.1-.5-3-.1-.5-.1-1.1-.2-1.7-.1-.7-.1-1 .4-1.2.1-.1.4-.4.6-.4.1-.1.4.2.5.2.1 0 .2.1.2.1-.2 0-.3.1-.4.2-.2.2-.3.6 0 1v.2c.1.2.2.3.4.4 0 0 .1 0 .2.1h.1c.2.2.4.3.6.3-.1 0-.1 0-.2.1-.2 0-.5 0-.7.1-.3.2-.1.6 0 .9v.5c.1.2.2.3.4.4-.1.3-.1.5.1.7.2.2.5 0 .8-.3.2.1.4.1.6.2.5.2.5.3.6.4.2.2.4.2.7 1.4l.5 1.5c.2.7.4 1 .9.8.4-.2.5-.7.3-1.4-.1-.4 0-.5 0-.7-.2-.8-.1-.8 0-1 .1-.1.2-.1.6-.1.4 0 2.2 0 2.4-.1.4-.3-.2-1.4-.9-2v-.1c.1-.3 0-.5.1-.7.1-.1.1-.3.1-.4.1 0 .3-.1.4-.2l.1-.1c.3.2.6.5 1 .5s.4-.1.7-.3c.3-.1.5-.2.7-.5.4.1.9.3 1.4.3h.3c.1.1.3.1.4.1-.1 0-.1.1-.2.1h-.2c-.1 0-.2.1-.3.3-.3.2-.6.4-.8.6-.2.2-.4.3-.7.3-.4 0-.6.2-.7.3-.5.2-.6.6-.6.8 0 .3.2.5.4.6.1 0 .2.1.3.1.3 0 .4-.1.6-.2.1 0 .2-.1.2-.1.4-.1 1-.3 1.4-.8.1 0 .1-.1.2-.1.1-.1.3-.2.5-.3.1-.1.3-.2.4-.2.1-.1.2-.1.3-.2.2-.1.3-.2.5-.3.1 0 .1 0 .1-.1.2-.1.4-.2.6-.4.2-.2.4-.3.7-.3.1 0 .3-.1.4-.2l.2-.2.4.4c0 .1.1.1.1.2.1.1.3.2.5.2s.3-.1.5-.2c.1-.1.2-.2.2-.4v-.1s0-.1.1-.1v-.5s0-.1-.1-.1v-.1h.2c.1.1.3.2.4.2h.4c.2 0 .3-.1.4-.2.1-.1.2-.2.2-.4H261.5v.1c-.1.2-.1.4 0 .6 0 .1.1.1.1.2v.1c.1.2 0 .4 0 .7V174c0 .2-.1.4 0 .7 0 .1 0 .3-.1.5 0 .1-.1.2-.1.3v.4H260.6c-.1 0-.1 0-.2.1-.1 0-.1 0-.2.1-.1-.1-.2-.1-.4-.1s-.4.1-.5.3c-.1 0-.2 0-.3.1-.2 0-.4.1-.6.1h-.2c-.1-.1-.2-.1-.3-.1-.1 0-.3.1-.4.1-.1 0-.1.1-.1.1-.1.1-.2.2-.2.4-.1 0-.2.1-.3.2-.1.1-.2.1-.3.2-.4.2-.8.5-1.1.9-.2.4-.7.6-1.2.8h-.1c-.1 0-.1.1-.2.1-.2-.1-.4-.1-.7-.1-.5-.1-1.1-.3-1.5-.2-.4.1-.6.2-1 .2-.6 0-1.2.1-1.4.5-.2.4.5.6 1.1.6.3 0 .7.3 1.2.3v.2c.1.3.4.5.8.5h.4c.2.1.3.2.4.2.2 0 .4-.1.6-.3.4-.4.9-.7 1.5-.9.4-.1.7-.4.9-.6l.3-.3c.3-.3.6-.6.9-.8l.6-.3h.1c.1 0 .3 0 .4-.1.2-.2.5-.2.8-.3h.1c.1.1.2.1.3.1h.1c.3 0 .4-.1.6-.2 0 0 .1 0 .2-.1.1.1.2.1.4.1h.2c.1 0 .1-.1.2-.1s.1.1.2.1.3.1.4.1h.2c0 .1.1.2.1.3 0 .1 0 .1.1.2v.2c-.1.3 0 .6.3.7.1 0 .2.1.3.1.2 0 .3-.1.4-.2.2-.1.4-.2.4-.4v-.3c0-.3 0-.5-.1-.6 0 0 0-.1-.1-.1.1 0 .1 0 .1.1.1.1.2.2.4.2s.4.1.6.2c0 0 0 .1.1.1v.2c0 .1-.1.3 0 .6.1.4.1.7.1 1.1-.4.6-.4.9-.4 1.2"/><path class="st0" d="M264.9 173.7v.4c-.1.3-.1.5 0 .6v.1c0 .1-.1.3-.1.4 0 .3 0 .4-.1.6-.1 0-.1.1-.2.1v.1c-.1.1-.2.3-.2.4-.4-.1-.7-.2-1.1-.3 0 0 0-.1-.1-.1 0-.1-.1-.2-.1-.3-.1-.4-.1-.6 0-.7v-.1c.1-.2 0-.4-.1-.6.1-.3.1-.7.1-1.1.1-.1.2-.1.2-.2h.2c.1 0 .3 0 .4-.1l.2-.2c.4.1.6.2.7.3v.3c.2.2.2.3.2.4zM258 128.8c0 .1 0 .3.1.4 0 .1 0 .2.1.3.1.1.3.2.5.2h.4l-.3.2c-.2.1-.3.2-.4.3-.1 0-.2.1-.3.1h-.1c-.1 0-.2 0-.3.1h-.1v-.1c.1-.1.2-.1.3-.3.1-.1.1-.3.1-.4v-.4c0-.1-.1-.3-.1-.4v-.1c-.1-.1-.2-.3-.3-.3h.1c.2 0 .3-.1.5-.2.1-.1.2-.3.2-.4 0-.1 0-.2-.1-.4.1 0 .3-.1.5-.1.1 0 .2-.1.3-.1.1.1.3.2.6.2.2 0 .4-.1.6-.2.1.2.3.4.4.4.1.2.3.5.6.7v.1c-.1.2 0 .4.1.6l.2.2c.1.2.3.3.4.3.1.1.2.2.4.2.1 0 .1.1.2.1s.2.1.3.1H263.5c.1 0 .2.1.3.1.1 0 .3 0 .3-.1.1 0 .2 0 .3-.1h.1c.1.1.2.1.3.1.2 0 .3-.1.4-.2H265.5c.1.1.1.2.2.3l-.1.1-.2.2c-.1.1-.1.2-.1.4h-.1c-.2 0-.4.1-.6.3h-.1c-.2-.1-.3-.1-.5-.1h-.1c-.3 0-.4-.1-.4-.2-.1-.1-.3-.2-.5-.2h-.2c-.1-.1-.1-.1-.2-.1h-.1l-.2-.2h-.5l-.3-.3c-.1-.3-.2-.5-.3-.8l-.1-.2c-.1-.2-.2-.3-.2-.4-.1-.1-.2-.2-.4-.2s-.4-.1-.6-.1c-.3 0-.5 0-.6-.1-.1-.1-.2-.1-.4-.1-.1 0-.2 0-.3.1h-.1c-.4.3-.5.5-.5.7M265.5 166.5v.8h-.1c-.3 0-.5.1-.7.3-.2.2-.2.4-.1.7.1.2.3.4.6.4h.3v.1c-.2 0-.3-.1-.5-.1h-.3c-.3 0-.6 0-.9.1-.1 0-.1-.1-.2-.1s-.1-.1-.2-.1c-.2-.1-.5-.2-.7-.2-.2 0-.5.1-.7.2h-.1c-.1 0-.1 0-.2.1h-.2c-.2 0-.4.1-.5.2 0 0-.1.1-.2.1s-.2-.1-.3-.1c-.3-.1-.6-.2-.9-.4-.1-.1-.2-.1-.3-.2-.1-.1-.2-.1-.3-.2 0-.2.1-.4.2-.5.1-.1.2-.1.3-.2.1-.2.1-.4.1-.5v-.1c0-.1 0-.1.1-.2v-.1c.1.1.2.1.4.1.1 0 .3.1.4.1.1 0 .2.1.3.1.1 0 .1 0 .2.1 0 .1.1.2.2.3.2.2.4.2.5.3l.1.1c.1.1.1.1.2.1H262.3c.1 0 .2 0 .3-.1.1 0 .2 0 .3-.1.1-.1.3-.2.3-.4.1-.1.1-.1.1-.2v-.1c.1 0 .1-.1.2-.1.1-.1.2-.2.2-.3l.3-.3.2-.2.1-.1.2-.1c.1 0 .2-.1.3-.1v.1c.1.3.3.4.6.4h.4c-.3.1-.3.3-.3.4M263 140.3c.2.2.5.3.6.3.1 0 .3 0 .4-.1.1 0 .2-.1.2-.2.1 0 .2 0 .3-.1l.3-.3c.1.1.3.2.4.2h.2s.1 0 .1-.1c0 0 .1 0 .1.1 0 0 0 .1-.1.1-.3 0-.5.1-.7.4-.1.1-.1.2-.1.3h-.4c-.2 0-.3.1-.4.2-.1.1-.2.2-.2.3h-.2c-.1 0-.2 0-.3.1-.1-.2-.2-.3-.4-.4-.1-.2-.3-.3-.5-.3.2-.1.3-.2.5-.3.1-.2.2-.2.2-.2M265.7 155.6c0 .1 0 .2-.1.3h-.2c-.1-.1-.2-.2-.3-.2h-.2c-.2 0-.4.1-.5.3h-.2c-.1 0-.2 0-.2.1H263.7c-.1 0-.3 0-.4.1v-.2c0-.2-.1-.4-.2-.5-.1-.1-.2-.1-.4-.2-.1-.2-.3-.3-.5-.4h-.2l.2-.1c.4-.2.7-.4 1.1-.4h.1c.1 0 .2.1.3.1l.3.1c.4.2.7.3 1.1.5.1.2.3.4.5.4l.1.1"/><path class="st0" d="M265.9 152.2c-.2-.3-.1-.6 0-.7 0-.1.1-.1.1-.1 0-.1-.1-.1-.2-.2-.4-.2-.9-.3-1.5-.5h-.5c-.1 0-.2 0-.3-.1-.1-.1-.3-.1-.4-.2h-.1c-.1 0-.3 0-.4-.1l-.9-.3c-.2 0-.4-.1-.5-.2h-.2c-.1.1-.3.1-.5.1H260.2c-.1 0-.1-.1-.2-.1 0 .2 0 .4-.1.6 0 .1-.1.1 0 .4.1.2.1.5-.1.7l-.1.1c-.1.2-.3.2-.5.2h-.1c-.2 0-.4-.1-.5-.3-.1-.2-.4-.8-.1-1.5v-.5H258.2c-.1 0-.3 0-.4-.1 0 .1-.1.2-.2.3-.1.1-.3.2-.4.2h-.1c-.2 0-.3-.1-.4-.2-.1 0-.1 0-.1-.1-.1 0-.1-.1-.2-.1s-.1 0-.2-.1c-.1 0-.2-.1-.2-.2-.2 0-.3 0-.5.1h-.4c-.1 0-.2.1-.4.1l-.4.2c-.4.2-.9.4-1.3.5-.2.1-.3.2-.4.3-.3.4-1.5.9-1.8 1h-.1c-.1 0-.3-.1-.4-.1-.1-.1-.2-.2-.2-.4-.1 0-.1.1-.2.1-.2.1-.4.3-.6.4-.1.1-.2.1-.3.2 0 .2-.2.4-.4.5l-.4.4-.1.1c-.1.2-.3.4-.4.6v.9c-.1.2-.2.3-.4.4-.1 0-.1.1-.2.2s-.2.3-.4.4c-.1.1-.3.1-.4.1h-.1c-.4 0-.6-.3-.6-.4h-.2c-.2 0-.3-.1-.4-.2-.1-.1-.2-.3-.2-.5l-.1-.1s0-.1-.1-.1h-.1c-.1.1-.2.2-.4.2-.1 0-.1.1-.2.1-.2.3-.5.3-.7.3h-.1c-.1.1-.3.1-.5.1-.1 0-.3 0-.4-.1h-.4c-.1 0-.2 0-.3-.1-.2-.1-.3-.3-.3-.5v-.1c0-.1-.1-.3 0-.5-.3-.1-.4-.2-.8-.4-.1-.1-.2-.3-.2-.4v-.1c-.3.1-1.4-.2-1.7-.3-.6-.2-1.1-.2-1.5-.3-.4-.1-.8-.5-1.1-.5-.2 0-.1.2-.5 0-.1-.1-.2.3 0 1.1.2 1 .8 1.7 1.5 1.7.5 0 1.3.7 1.3 1.5.1.5.2.9-.1 1.2-.4.2-1.1.4-1.4.3-.8 0-1-.4-.8.6.2 1.4-.1 1.2.8 1.7.6.3 1.2.7 1.3.8.1 0 .2.1.2.2.4.2.9 0 1.2.2.6.4 1.1 1.4 1.8 1.6.4.2.7.8.6 1.4-.1.7-.5 1-.9.8-.3-.2-1.3-.7-1.8-.6-.5.1-.7.3 0 1.6.3.5 1 .9 1.9 1.4.1 0 .2 0 .3.1.6.4 1.3.4 1.9.8.7.4 1.3 1.1 2.1 1.3.5.1 1 .3 1.5.5v-.1c-.1-.1-.1-.3-.1-.4h-.8c-.1 0-.2 0-.3-.1-.3 0-.5-.2-.6-.3-.1-.1-.2-.2-.2-.3v-.1s-.1-.1-.1-.2l-.1-.1c-.7-.4-.4-1-.3-1.2.1-.2.2-.3.3-.4-.4-.3-.7-.5-1.1-.8-.4-.4-.4-1-.2-1.6.2-.6.7-.8 1.1-.5.1.1.2.1.3.1-.1-.2-.2-.4-.2-.7v.2c0-.1 0-.3.1-.5s.2-.4.4-.4c0-.1.1-.2.2-.2 0-.1-.1-.3-.1-.4 0-.2.1-.5.3-.6l.1-.1v-.1c-.2-.1-.3-.3-.3-.4-.3-.1-.4-.4-.3-.8.1-.2.2-.4.4-.4.1-.3.3-.5.6-.7.1-.1.2-.1.3-.1h.1c.1-.2.2-.3.3-.4.1-.1.2-.3.4-.4.1-.1.2-.1.3-.1h.5c-.1-.2 0-.4.1-.6.1-.2.4-.4.8-.4h.6l.1-.1c.1-.1.3-.2.4-.2.2 0 .4.1.5.2l.1-.1s0-.1.1-.1c.1-.1.3-.2.5-.2h.1c0-.1.1-.2.2-.3-.1-.1-.1-.2-.1-.3 0-.1 0-.2.1-.3 0-.1 0-.2.1-.3.1-.2.3-.4.5-.4h.1c.1-.1.2-.2.3-.2.1-.1.2-.2.4-.2 0-.1-.1-.3 0-.4.1-.2.1-.3.2-.4l.1-.1.1-.1v-.2c0-.1 0-.3.1-.4 0-.1.1-.1.1-.2.2-.2.5-.3.8-.3h.4c0-.2.1-.4.3-.5.1 0 .1-.1.2-.1.1-.1.3-.2.5-.2h.1c.1 0 .3.1.4.2.1.1.2.2.2.4.1 0 .1.1.1.1.1 0 .1-.1.2-.1h.2c.2 0 .4.1.6.3.1.1.2.3.1.6 0 .1-.1.3-.1.3.1.2.1.5-.1.7v.1c0 .2-.1.3-.3.4-.1.1-.2.1-.3.2-.1.2-.2.3-.3.4l-.1.1c-.1.1-.2.2-.4.2-.2.2-.5.3-.7.4.1 0 .1 0 .1.1.2.1.4.2.7.3H256.2l1.2-.6v-.2c.1-.3.4-.5.7-.5h.2s0-.1.1-.1V154c0-.2 0-.3.1-.5.1-.1.2-.2.4-.3h.2c.1 0 .3 0 .4.1.1-.1.3-.1.4-.1.1 0 .3 0 .4-.1.2 0 .5-.1.8-.1h.1c.3-.2.6-.2.7-.2H262.2c.3-.1.6-.3.9-.4.1-.1.3-.1.5-.1h.2c.1 0 .2.1.3.1.3.1.6.1.9.2.5.2 1 .4 1.4.6 0-.2 0-.4.1-.6-.6 0-.6-.2-.6-.4m-23.4 5.1c-.1.8-.7.7-1.2.7-.4 0-.7-.2-1.1-.4-.4-.1-.6-.5-.7-.8-.1-.3-.1-.5-.2-.9-.1-.5.1-.6.3-.8.3-.2.6-.3 1-.1.4.2.4.1.7.3.5.4 1.3 1.1 1.2 2M270.3 118.3c-.2.3-.3.7-.4 1-.2.3-.5.5-.7.8-.3.5-.5.7-.8.4-.3-.3-.2-.8.1-1.2.2-.3.3-.8.4-1 .2-.3.6-.6.7-.8.3-.5.5-.7.7-.3.3.1.3.6 0 1.1M270.6 145.9c.1.1.4 0 .9-.3.4-.3 1.1-.4 1.4-.1.2.4-.3.9-.7 1.1-.3.2-.5.6-.9.8-.5.3-.9.6-1.1.9-.2.3-.1.8 0 .9.1.1.4 0 .6-.1.4-.3 1-.5 1.2-.2.2.4 0 .7-.4.9-.2.1-.4.5-.7.7s-.5.4-.7.5c-.1.2-.1 1-.4 1.2-.1.1-.1.4-.2.6.1 0 .2-.1.3-.1h.4v.1c.1.4.3.8.8 1.1h.1c.3.2.7.5.9.7.1.1.3.2.4.3h.1c.2 0 .3-.1.4-.1l.1.1s.1 0 .1.1c.1.2.3.3.5.3.1 0 .2.1.4.1l-.1.1h-.1c-.2 0-.3.1-.4.2 0 0 0-.1-.1-.1-.1-.2-.3-.2-.5-.2-.1 0-.2 0-.3.1h-.2c-.2 0-.5.1-.8.3h-.2c-.1 0-.2.1-.3.2 0-.1-.1-.2-.2-.3-.1-.1-.3-.2-.5-.2-.1 0-.2 0-.3.1-.2.1-.3.2-.4.3 0 0-.1 0-.1.1-.1-.2-.2-.5-.5-.8.2.1.3.1.5.1s.5-.1.6-.2c.2-.1.2-.3.3-.5 0-.2-.1-.4-.2-.5-.1-.1-.3-.3-.6-.3-.2-.2-.5-.3-.6-.4-.3.1-.5 0-.6-.2-.1-.2 0-1.7 0-2-.3-1.3.2-1.6.1-2.1-.1-.3-.1-.5-.1-.8v-1.2c.1-.4.4-.9.5-1.3.1-.4.4-.8.8-.8 1.1.1.7.8.8.9M275.4 161.1c.2-.2.2-.6 0-.8-.1-.1-.3-.2-.5-.2h-.2l.1-.1c.1-.1.1-.2.1-.4h.4c.1 0 .2 0 .3-.1H277.5s0 .1.1.1c.1.1.3.2.4.2h.3s0 .1.1.1c-.1.2-.2.3-.3.5-.2.2-.2.4-.3.5s-.1.3-.3.5c-.1.2-.2.3-.3.5 0 .1-.1.2-.1.3-.1.3-.2.5-.3.5 0 0-.1 0-.1.1-.1 0-.1.1-.2.1s-.1.1-.2.1c-.3-.2-.6-.4-1-.7-.5-.4-1-.6-1.6-.7-.1 0-.2 0-.2-.1l-.2-.2h.4c.1.1.2.2.4.2h.1c.1 0 .3 0 .4-.1.1 0 .1-.1.2-.2.4.1.6 0 .6-.1M279.9 178c-.6 0-1.9.5-2.1.5.1 0 .2 0 .1.2h.2c.8 0 1.5.2 1.9.3.9.1 1.9.2 1.5.4-.3.3-1.2.3-2.1.2-.5 0-.9 0-1.5.1h-.4c-.1 0-.2 0-.2.1s-.2.2-.3.1c-.1 0-.2-.1-.3-.1-.3 0-.6.2-.8.5-.1 0-.2-.1-.3-.1h-.3c-.1 0-.1 0-.2-.1-.2-.2-.5-.3-.6-.3-.1 0-.3 0-.4.1-.1 0-.1.1-.2.1h-.1c0-.1-.1-.2-.1-.3-.3-.4-.7-.6-1.1-.6-.2 0-.3.1-.5.2-.1.1-.1.2 0 .2.2.2.5.7-1.1.5-2.1-.3-1.2.9-2.7-.6-1.3-1.4.2-1.6.4-1.6h.1c.1-.1.3-.2.3-.3 0-.1.1-.2.1-.3.1-.1.2-.2.3-.4v-.2h.1c.3-.1.5-.2.5-.5 0-.1 0-.2.1-.3.1-.1.3-.3.3-.5v-.5c.1-.1.2-.3.2-.4v-.3c.1-.1.1-.3.2-.5.1-.3.2-.4.2-.4.2-.1.4-.2.4-.3h.1c.2-.1.3-.3.5-.4.2-.2.3-.3.5-.4.2-.1.3-.4.4-.6.1-.3.1-.5.3-.7.2-.3.5-.6.7-1 .3-.4.6-.7.8-.4.2.3.2.7-.1 1.1-.1.1-.1.2-.1.3-.1.2-.1.5-.1.8v.2c-.1.4 0 .7.3 1 .1.1.3.2.5.2.1 0 .2 0 .3-.1.3-.1.4-.4.4-.7V171.3c0-.2.3-.1.5.1.1.1.3.2.4.2.1 0 .2 0 .3-.1.2-.1.4-.4.4-.6v-.2c0-.1.2-.1.4 0 0 0 .3.9.4 1 0 .1.1.1.1.2.1.1.2.3.4.5l-.2.4h-1.1c-.2 0-.4.1-.4.1-.2.1-.3.3-.4.4l-.3.1c-.3.1-.5.4-.4.8.1.3.3.5.7.6h.1c.2 0 .5 0 .8-.3.1-.1.2-.1.4-.1s.5-.1.7-.1c.3-.1.7-.1 1-.1-.1.2-.2.2-.3.3h-.1c-.2.1-.3.3-.3.5v.2c-.2.1 1.6.8 1.3 1-.3.3-1.1.3-2.1.3h-.1s1.2.8 1.9.8c.9.1 1.6.1 1.3.3-.1.4-.7.4-1.5.4M307.5 179.6c-.8.7-.8 1.3-1.1 1.9 0 .1-.1.1-.2.2h-.1v-.4c.1-.3 0-.5-.2-.7-.1-.2-.3-.3-.5-.3h-.4c-.2 0-.3.1-.4.3-.1-.1-.1-.1-.2-.1.4-.4 1-.7 1.6-1.3.5-.4 1.2-.8 1.6-.6.5.1.4.5-.1 1M304 170.8c-.3.3-.5.7-.4 1.1 0 .3.2.5.4.8h-.4c-.4 0-.7 0-.9-.1l-1.2-.3c-.6-.1-1.1-.3-1.5-.3h-.1c-.5 0-.9.3-1 .8-.1.7.7 1.7 1.5 2.4h-.3c-.3 0-.6-.1-.9-.1-.3 0-.6-.1-.8-.1-.5 0-.8.2-.9.4-.1.1-.1.3-.2.5h-.2c-.3-.1-.6-.1-.8-.2-.5-.1-.9-.2-1.3-.2-.5 0-1 .4-1 .9 0 .3.1.6.3.9-.1 0-.3 0-.4.1-.1 0-.2 0-.3.1-.2-.1-.3-.2-.5-.2h-.2s-.1-.1-.2-.1v-.2c.1-.1.1-.2.1-.4 0-.3 0-.5-.1-.8-.1-.2-.3-.4-.5-.4-.1 0-.2-.1-.3-.1-.1 0-.2 0-.3.1-.2.1-.3.2-.3.4-.2-.1-.4-.3-.6-.3-.1 0-.2 0-.3.1 0 0-.1 0-.1-.1-.1-.1-.2-.1-.4-.1h-.3c-.1-.3-.3-.4-.6-.4h-.2v-.4c.2-.1.2-.2.3-.4.1-.3.1-.6-.1-.7.1-.2 0-.4 0-.5l-.3-.3h.2c.1 0 .3 0 .4-.1.1 0 .1 0 .2-.1H289.8c.1 0 .2 0 .3-.1h.4c.3 0 .5-.3.5-.5.1-.1.4-.4.4-.7v-.3c-.2-.4-.5-.7-.9-.7 0 0-.1 0-.1-.1-.1-.1-.2-.2-.4-.3h-.5v-.1c.2 0 .3.1.4.1.1 0 .3 0 .4-.1.2 0 .4-.1.5-.2h.1c.2-.1.3-.2.4-.4s.1-.4 0-.5c-.1-.2-.3-.4-.5-.4 0 0-.1-.1-.2-.1.1-.1.3-.2.3-.4 0 0 .1-.1.1-.2.1-.1.1-.2.2-.3h.1c.2 0 .3 0 .5-.2.1 0 .1-.1.2-.2.3.1.6.2 1 .2h.3c.2.1.5.1.7.1h.5c.2.1.4.3.6.4.1.1.3.1.4.1.1 0 .3-.1.4-.2.3 0 .5.1.7.1.1.1.3.1.5.1.3 0 .5-.1.8-.3.1-.1.3-.3.3-.4 0-.2-.4-.7-.4-.7s-.1-.1-.2-.1c.1 0 .2-.1.3-.2l.1-.1c.1 0 .1 0 .2-.1 0 0 .2.4.2.6 0 .2.1.5.3.6h.1c.1.1.3.2.5.2s.3-.1.4-.2c0 0 .1 0 .2-.1h.2c.2-.1.4-.1.7-.3.1 0 .1-.1.1-.1.1 0 .3-.1.4-.1h.3c0 .6 0 1.5.8 2 .1.1.2.1.3.1-.1.2-.1.5 0 .7.1.2.4.6 1.1.6.5 0 1.1-.2 1.8-.6v-.1c0-.3.1-.7.2-1.1.1-.4.1-.9.3-1.3.1-.3.1-.5.2-.6.1-.5.5-1.1.8-1s.3.8.2 1.3c-.2 1-.2 1.4.1 1.2.4-.3.8-.9.9-1.3.1-.2.2-.4.3-.7.1-.3.1-.8.3-1.1.2-.4.4-.7.4-.9.1-1 .4-1.3.6-1.5.3-.3.5-.2.7.2.2.4-.3 1.9-.1 2.1.2.1.9-.7 1.2-.9.3-.3.6-.7.7-.2.1.5-.3 1.7-.6 2-.2.2-.6 1-1.1 1.5-.4.4-.9.4-1.3.8-.3.3-.7.8-1 1-.4.3-.8.4-1.2.6-.1.1-.3.1-.4.2 0 .2.1.4.2.5h-.2c-.3 0-.5.1-.7.2-.1.1-.3.2-.4.5h-.5c-.6-.1-.9 0-1.2.3M312.9 176.4c-.1.7-.3 1.4-.3 1.7-.1.7 0 1.4-.1 2.1-.1.5-.2 1-.3 1.4h-1.7c.3-.4 1.1-1 1.1-1.4.1-.6.2-1.3.3-1.9v-1.6c.1-.6 1.1-1 1-.3M313.3 170.4c-.2.5-.9.6-1.5.7-.8.1-1.4.6-1.8.7-.4 0-.4-.4-1.1-.3-.6.1-1.1.2-.9-.3.2-.5.9-.8 1.5-1 .9-.2 1.3-.4 1.8-.4.3 0 .7 0 1.3-.1.7 0 1 .3.7.7M319.6 181.5v.2h-2.4s0-.1-.1-.1c-.2-.3-.3-.7-.7-1.3-.3-.5-.2-1 .4-1.1.6-.1 1 .4 1.3 1 .5.6 1.3.9 1.5 1.3M331.1 170.6c.1.1.2.2.3.2-.1 1.5-.3 3.1-.4 4.6-.9 0-2.2.1-3 .4l-.3.1c-1 .3-4 1.2-5 1.2h-.2c0 .2-.3.3-.9.2-1.1-.1-2.5-.8-3.1-1.5-.3-.3-.8-.3-1.5-.8s-.6-.8-1-1.1c-.6-.6-1.1-.8-.2-.9h.2c0-.2.1-.4.1-.6 0-.4-.1-.7-.1-1.1 0-.6.1-1.3.2-1.8 0-.4-.1-1.4 0-2.4s.2-1.9.2-2.3c.1-1 0-1.9 0-2.9 0-.8.2-1.6.3-2.3 0-.7 0-1.5.1-2.2 0-.6.2-1.4.2-2v-1.8c0-.6.2-1.2.2-1.8 0-.5.1-1.5.3-1.5.1 0 .2-.3.3 0 .1.3.1 1.2.1 1.4v2.6c0 .8-.1.9 0 .9l-.2 2.7c-.1.1-.1.2-.1.4 0 0 .1 0 .1-.1.3-.2.2-.5.6-.8.4-.3.7-.2.8-.4.4-.5 1.2-.7 1.8-.5.6.2.6.6.2 1.1-.2.2-.6.8-1.1 1.1.3 0 .6-.1.8-.1h.1c.3 0 .7 0 1.1.1h.9-.2c-1.9.1-2.5.2-2.9.5l.2-.2c-.3.2-.8.6-1.2.7-.1 0-.2-.1-.3-.1-.3.7-1.1 1.5-1.1 2.1 0 .8-.1 1.8-.2 2.6v2.2c0 .8-.2 1.9-.3 2.2 0 .8 0 1.1-.1 1.8 0 .9-.2 1.8-.4 2.4.7.1 1.4.4 2.2.8.7.4.9.4 1.6.8.8.3 1.8.7 3 .7 6.2 0 6.4-.5 6.6-1 .1-.3.1-.6-.1-.9-.2-.4-.6-.5-1.7-.6 0-.1.1-.1.1-.2-.2.3-.6.3-.9 0-.7-.5-1.3-.7-1.9-1.1-.4-.2-.6-.5-.9-.8h-.1v-.1c-.4-.4-.7-.8-1.3-1.2-.5-.4-1-1-.8-1.5.1-.5.6-.5 1-.1.9.8 1.5.5 2.3 1 .5.3 1 1.2 1.7 1.8 1.6 0 3.1 0 3.7-.2 0 .2.1.2.2.3M331.6 166.2l.1.1c-.1.9-.1 1.8-.2 2.7 0 0-.1 0-.1-.1-.8-.5-1.3-1.2-2.3-2.1-.5-.4-1-1-.8-1.5.1-.5.6-.5 1.1-.1.9.7 1.5.5 2.2 1M332.6 154.5s-.1 1-.2 3.1c-.9 0-2.4.5-3.1.8-.3.1-.5.1-.9.1h-1.2c-.2 0-.3 0-.5.1-.3.1-.5.3-.7.5-.1-.2-.3-.4-.6-.5.7 0 1.1-.1 1.4-.4.3-.3.5-.7.3-1.1 0-.1-.1-.3-.2-.4 1 .1 2 .1 2.6.1h.7c.4-.1.7-.4.8-.8.1-.7-.3-1-1.1-1.5h.2c.4 0 .9 0 1.4.1.4-.1.8-.1 1.1-.1"/><path class="st0" d="M334 95.4c0-.5-.4-.9-.8-.9L213.9 74.7h-.3c.1.3.2.8.2 1.1 0 .3 0 .5.1.8.1.3.1.5.2.8v2.2c0 1.1-.1 2.2-.1 2.4 0 1 .3 1.3 0 1.8l-.4.4c-.4.4-.7 1.4-.5 2 .2.4.5.5.9.3.2 0 .3-.1.4-.3.5-.5.9-1 1.3-1.6.3-.5.7-.9 1-1.5.2-.2.4-.3.5-.5.4-.5.5-.8 1-.3.3.4.3.6.2 1.1 0 0 0 .4-.1.7-.1.3-.2.6-.2.8-.1.3-.3.5-.1.7.1.2.1.4.2.5.3.2.7.2.9 0 .3-.2.5-.5.8-.8.3-.1.5 0 .8.8.4 1 .1 1.7-.4 2.4-.6.8-1 .5-1.3.8-.5.3-.9.7-2 .6-.4 0-.6.4-1 .1-.5-.2-1.1-.4-1.3.3-.2.7.2 1.3.7 1.5.3.1.5.3.8.4 0 0 .5.3 1.1.5.6.1 1.2-.1 1.9 0 .7.2 1.1.1 1.6.5.5.3.8.9.8 1.5s-.2 1.2-1.5.9c-.4-.1-.8.4-1.3.1-.4-.2-1.1-.5-1.2.2-.2.7.2.9.7 1.1.2.1.7.2.9.6.2.4.1.9-.2 1.2-.2.2-.7.3-.9.4-.4.1-.8.3-1.3 0-.2-.1-.3-.2-.4-.4-.4-.5-.7-.3-1.1-.8-.4-.4-.6-.7-.9-.1-.1.2-.2.4-.2.6 0 .4.1.7.4 1 .4.4.2.4.6.9.2.3.8.3 1.1.6.4.4.8 1.2 1.1 1.6.6.8.7.6.9.6.2.1.2-.1.3-.4.2-1.1-.6-1.4-.2-2.3.4-.6 1.5-.1 1.8.2.2.2.4.9.8 1.1.3.1 1.6 1.1 1.8 1.3.5.3.9.6.7 1.4-.2.8-.7.9-1.2.6-.3-.2-.7-.2-1.1 0-.5.2-.5.5-.1.9.2.2 0 .8 1 1.1.4.2 1.3.8 1.2 1.5-.1.3 0 .8-.2 1.1-.3.3-1.2.4-1.4.3-.3-.1-2 .7-2-2.1 0-.7-.3-1.3-.7-1.3-.5 0-.5.6-.6 1.1-.2.9-.3 1.6-1.1.8-.2-.2-.3-.6-.5-1-.1-.4-.2-.9-.4-1.3-.2-.8-.4-1.5-.9-1.4-.4.1-.4.3-.4.9-.1.5 0 1 0 1.6 0 .7 0 1.4.1 1.7.1.5.5.8.8.8.3.4.6.3.9.6.5.5 1.3.7 1.8 1 .1.1.4.3.6.3.2.2.8.5 1.4.6.2.1.3.2.5.2.9.4 1.8 1.1 2.8 1.7 1.3.9 2.4.6 3.6.8.7.2 1.5 1.1 2.4 1.1.5 0 1.1.5 1.6.5.4-.5.8 0 1.2 0 .5 0 1 .1 1.5.2s1.2.4 1.2 1.1c-.1.7-.6 1.7-1 1.6-.5-.1-1.3 0-1.6 0-1.4 0-1.4.8-.9 1.6.3.5.7.3 1.1.5.4.2.6.8.6.9.2.7-.2 1.4-.7 1.6-.4.2-1.2-.1-1.7-.2-.4-.1-.8.1-1.2 0-.3-.1-.6-.2-.8-.4-.5-.2-.8-.6-.7-1.3.2-.7.7-1.1 1.1-.9.4.2.8-.5.7-1.1 0-.5-.4-1.1-.7-1.2-.8-.1-1.8-.4-2.4-.3-.4 0-.7-.1-.5.8.1.3.2 1 .4 1.6.2 1.1.3 2.3 0 2.6-.2.1-.6-.2-1.2-.7-.4-.3-.8-1.9-1-2.4-.3-.8-.2-1.3-.4-2.1-.2-.7-.8-.6-1.2-.4-.4.2-.3.5-.1 1.2.1.3-.1 1.3.2 2.3.1.5.5.8.6 1.1.6 2.2.7 1.5 1.3 1.9.4.3.9 1.8 2 2.1.6.5 1.1.7 1.6 1.1.5.4.8 1.1 1.1 1.4.3.4.5.7.8 1.3.4 1 .2 1.5.4 2.4 0 .1.3.7.6 1.7.2.5.2 1.2.3 1.7 0 .3.4 1.6.2 1.9-.3.4-1.1.3-1.3.3-.3-.1-.6-.5-1.1-1.1-.3-.4-.6-1.1-.9-1.6-.2-.6-.3-1.1-.6-1.8l-.5-.9c-.2-.6-.6-1.5-1-1.2-.4.3-.4.7-.2 1.3l.4 1.1c0 .2.1.4.1.6v.1c-.1.4.3 1.8 0 2.1-.3.4-1.1 0-1.4-.1-.2 0-.5-.3-.8-.6v-.2c-.4-.8-.5-1.8-.8-2.7-.2-.8-.6-1.1-.7-1.8-.1-.7-.5-1.6-.9-1.4-.5.2-.3.9-.2 1.6.2.9 0 1.8.2 2.7.3.9.6 1.9 1 2.6.5.9.9 1.6 1.5 2.2.4.4.8.7 1.3 1 .5.4 1.1.9 1.6 1.2.5.3.9.4 1.4.7.5.3.9 1 1.4 1.3.6.5 1.1 1 1.6 1.4.3.2.6.5 1 .8 0 0 .1 0 .2.1l.9.6c.4.3.9.4 1.4.6.6.4 1.3.9 1.9 1.3.4.2 1.6 1.1 2 1.2.4.2 1 .7 1.1 1.4v-.1c.1-.1.2-.1.3-.2 0-.1.1-.1.1-.2l-.1-.1c-.1-.1-.2-.3-.2-.5s.1-.4.2-.5c.1-.1.1-.1.2-.1.1-.1.2-.1.2-.1.1 0 .2-.1.3-.1h.1c.1-.1.2-.1.3-.1.1-.1.2-.1.3-.1h.1c.1 0 .2 0 .3.1h.5v-.1c.1-.2.2-.4.5-.5H244.4c.1-.1.1-.2.2-.3.1-.1.3-.1.4-.1.1 0 .2 0 .3.1h.2c.2 0 .4.1.5.2h1.1c.1 0 .1 0 .2-.1l.1-.1c0-.1.1-.2.2-.2.1-.1.2-.2.4-.2.1 0 .2-.1.2-.1h.4c.1 0 .2 0 .3.1l.4.2c.3.2.4.5.3.8 0 .1-.1.1-.1.2 0 0 .1 0 .1.1.1-.1.3-.1.4-.1h.1c.1-.1.3-.1.3-.1l.9-.3c.1 0 .3-.1.5-.1.1 0 .3 0 .4.1h.2c.1 0 .2 0 .3-.1l.6-.3c.1 0 .2 0 .3-.1.1 0 .3-.1.4-.2.2-.1.4-.2.5-.2h-.1c-.1 0-.1-.1-.1-.2s-.1-.1-.1-.2c-.1 0-.2 0-.3-.1l-.1.1c-.1.1-.3.1-.4.1-.2 0-.3-.1-.4-.2h-.1l-.3-.3h-.2c0 .1-.1.2-.2.3-.1.1-.3.2-.5.2h-.1c-.4 0-.8-.3-.8-.7-.2-.1-.3-.2-.4-.3-.1-.1-.2-.3-.1-.5 0-.2.1-.3.2-.4h-.8c-.1 0-.2 0-.3-.1l-.2-.1h-.2c-.2 0-.3-.1-.5-.2-.1-.1-.1-.2-.1-.4-.1-.1-.3-.3-.3-.6v-.2c-.1 0-.1-.1-.2-.1H247.6c-.6-.2-.6-.8-.6-1v-.1c-.1-.2-.1-.5 0-.6l.3-.4c.1-.2.3-.3.5-.3h.4c.1-.1.2-.1.4-.2.1 0 .2 0 .3.1 0-.1.1-.2.1-.2v-.2c-.1-.1-.2-.2-.2-.3 0-.1-.1-.2-.1-.3-.1 0-.1-.1-.1-.2-.1-.1-.1-.3-.1-.4V139.3c0-.2.1-.4.3-.5h.1c0-.1.1-.2.2-.3.2-.2.4-.2.6-.2.3 0 .5.1.6.3h.1l.1.1c.1-.2.3-.3.5-.3h.1c.1 0 .2 0 .3.1.1-.1.2-.2.3-.2H252c.1-.1.3-.2.6-.2h.1c.1 0 .2 0 .3.1h.1c0-.1.1-.2.2-.3l.1-.1c.2-.1.3-.2.5-.2.3 0 .5.1.6.2l.1.1h.2c.3 0 .5.1.6.3.2 0 .4.1.6.2.1 0 .1.1.2.2 0-.1 0-.3.1-.5s.3-.3.5-.3.4.1.5.2h.2c.1 0 .3 0 .5.1.1-.1.2-.1.4-.2h.1c.1-.2.3-.4.5-.4h.3c.2.1.3.1.5.1 0-.1.1-.3.3-.4.1-.1.3-.1.4-.1.2 0 .3 0 .4.1.2-.2.4-.3.7-.3.2 0 .4.1.5.2l.2.2h.1c.1 0 .2-.1.4-.1.2-.3.5-.4.7-.4h.5c.2 0 .4 0 .6.3.1 0 .2 0 .3.1v-.3c0-.3.1-.5.2-.6.1-.1.1-.1.2-.1s.2-.1.3-.1c.2-.2.3-.2.5-.2-.1-.2-.1-.4.1-.7l-.1-.1c-.1.1-.2.1-.4.2h-.2c-.1 0-.2.1-.3.1H264.9s-.1 0-.1-.1l-.1-.1s-.1-.1-.1-.2H264.3c-.2 0-.5-.1-.6-.4 0-.1 0-.1-.1-.2-.1 0-.1 0-.2-.1h-.2c-.1 0-.3 0-.4-.1l-.3-.3c-.1-.1-.2-.2-.2-.4v-.1h-.3c-.3 0-.5-.1-.7-.2h-.1c-.1-.1-.2-.1-.3-.2l-.2-.1s-.1 0-.1-.1h-.4c-.1 0-.1-.1-.2-.1v.2c.1.1.1.1.1.2.1.1.1.3 0 .5v.4c0 .2-.2.4-.4.5-.1.2-.2.3-.3.4-.1.1-.3.2-.4.3h-.1c-.1 0-.3 0-.4-.1-.1 0-.2.1-.3.1h-.2c-.2 0-.3-.1-.4-.3-.1-.1-.2-.1-.2-.2-.1 0-.1-.1-.2-.1-.1.1-.2.1-.3.1 0 .1 0 .2-.1.3 0 .2-.1.3-.2.4 0 .1-.1.3-.2.4-.1.1-.3.2-.5.2-.1 0-.2 0-.3-.1h-.1c0 .1-.1.1-.2.2s-.1.2-.3.2l-.1.1c-.1.1-.2.2-.4.2H254.2c-.2 0-.4-.1-.6-.3l-.2-.3v-.1c-.1-.1-.1-.2-.1-.3-.1 0-.2-.1-.3-.2-.1-.1-.2-.3-.2-.4l-.2.2c-.2.2-.2.4-.3.7-.2.3-.6.6-.9.8-.3.3-.6.7-.8.3-.3-.3-.1-.5 0-.9.2-.3.2-.6.4-.9.1-.1.2-.2.4-.3-.4-.1-.6-.3-.7-.4 0-.1-.1-.1-.1-.2 0 0 0 .1-.1.1-.2.2-.3.4-.4.6-.2.3-.7.5-1 .7-.4.3-.6.6-.9.2-.2-.3-.1-.6.2-.9.2-.3.3-.6.6-.9s.8-.4.9-.6c.1 0 .1-.1.2-.1 0-.1-.1-.1-.1-.2h-.2c0 .1-.1.1-.1.2-.1.2-.3.3-.5.3h-.4c-.1 0-.3 0-.4-.1l-.1.1c-.2.3-.3.6-.6.9s-.8.4-1 .5c-.4.3-.8.6-1 .3-.2-.3.1-.7.4-1 .2-.2.3-.4.4-.6.1-.2.4-.3.7-.5h-.2c-.1 0-.1-.1-.2-.2 0 0-.1-.2-.1-.3l-.1-.1c-.1-.2 0-.4 0-.5-.2-.1-.3-.2-.5-.3-.1-.1-.2-.1-.3-.2-.1 0-.2-.1-.3-.1-.2-.1-.2-.2-.3-.2h-.2c-.4 0-.6-.1-.8-.2-.2 0-.5-.1-.8-.3l-.1-.1c-.1 0-.1-.1-.2-.2-.1-.2-.2-.3-.2-.5l-.3-.3c0-.1-.1-.2-.1-.3 0-.2.1-.4.1-.5.1-.3.3-.4.5-.5H243.4c0-.1 0-.3.1-.4.1-.2.3-.3.5-.3H244.3c.1-.1.2-.1.3-.1.3 0 .5.1.6.2.1 0 .2 0 .3.1 0 0 .1 0 .1-.1.1-.1.3-.2.5-.2v-.1c.1-.1.2-.2.4-.2h.3c.3 0 .5.1.7.2.2-.1.5-.2.8-.2h.1c.3 0 .6.1.8.4h.3c.2 0 .3.1.5.2.1-.1.2-.1.3-.1h.2v-.3c0-.2.1-.4.2-.5.1-.1.3-.2.5-.2h.2v-.2c-.2-.2-.3-.4-.2-.6 0-.2.2-.4.4-.5h.1c.1 0 .3-.1.5-.1h.2c.1 0 .2 0 .2-.1.1-.2.2-.3.4-.4h.7c.1 0 .2 0 .3.1.1 0 .2.1.2.2 0 0 .1-.1.2-.1.1-.1.3-.2.4-.2h.1c0-.1-.1-.1-.1-.2 0-.2-.1-.4 0-.7v-.2c-.1 0-.1-.1-.2-.1s-.2 0-.3-.1h-.1c-.1-.1-.3-.1-.4-.1h-.2c-.4 0-.7-.3-.8-.4-.1-.1-.2-.1-.3-.2-.1-.1-.2-.2-.2-.3v-.3c-.1-.2 0-.3 0-.5.1-.2.2-.3.3-.4 0-.1.1-.2.1-.3l.3-.3c0-.1.1-.3.2-.4.1-.1.3-.2.5-.2H254c.1-.1.3-.1.4-.1h.4c.2-.1.4-.1.5-.1h.2c.2-.1.4-.2.6-.2h.4c.1 0 .2-.1.3-.1h.5c.1-.1.2-.1.4-.2.1-.1.3-.3.6-.3.1 0 .2 0 .3.1h.1c0 .1.1.3.2.4.4.4 1 .1 1.5-.3.3-.3.6-.4.8-.2.3.2.4.8.2 1.2-.2.4-.6.9-1.1 1.3-.4.3-.6.9-.9 1.1-.5.4-1 1.1-.6 1.5.4.5 1.2.2 1.7-.2.6-.4 1-.6 1.1-.4.1.2-.1 1.2.7 1.2.6 0 .8-.5.9-1.1 0-.5.4-1.1.4-1.7 0-.5-.2-1-.2-1.6 0-.4-.1-.7-.3-1.1 0 0 .3-1-.3-2.7 0-.4-.2-2.3-.4-2.6-.1-.2-.4-.4-.7-.2-.1 0-.2-.1-.2-.2-.1 0-.2-.1-.2-.2v-.1s0-.1-.1-.1c0-.1-.1-.2-.1-.3v-.1c-.1.1-.3.1-.4.1-.1 0-.2 0-.3-.1-.1 0-.2 0-.3-.1H259.8c-.2-.1-.3-.2-.4-.3-.1-.1-.3-.2-.3-.4-.2.1-.3.1-.5.1s-.3 0-.4-.1c-.3.1-.5.2-.8.2s-.6-.1-.9-.3h-.8c-.1 0-.3 0-.4-.1h-.1c-.3 0-.5-.3-.6-.6-.2-.1-.4-.3-.5-.6 0-.3.1-.5.3-.6 0-.2 0-.3.1-.5s.2-.3.4-.3c.1-.3.3-.4.7-.5 0-.1.1-.2.2-.2.1-.1.2-.1.4-.1.1 0 .2 0 .3.1.2-.1.5-.1.7-.2h.1l.1-.1c.1 0 .2-.1.4-.1.3 0 .5.1.6.3h.1c.1 0 .2 0 .3.1h.1s0-.1.1-.1c-.1-.1-.2-.3-.2-.4 0-.3.1-.5.3-.6-.1-.2-.2-.4-.1-.7-.2.1-.4.1-.6.2-.5.1-1-.2-1.3-.2-.6 0-1.3 0-1.1-.5.1-.4.7-.6 1.3-.6.3 0 .6-.2.9-.3.4-.1 1 .1 1.5.1h.4v-.1h-.2c-.2 0-.5-.1-.6-.4 0-.1-.1-.2-.1-.3H258.9c-.1.1-.3.1-.4.2-.1.1-.2.1-.4.1H257.8c-.2 0-.4.1-.6.1H256.9c-.4-.1-.7-.2-.9-.2-.6 0-1.3-.1-1.1-.6.2-.4.7-.5 1.4-.5h.1c-.1-.1-.1-.2-.1-.4s0-.4.1-.5v-.1c-.1-.2-.1-.4 0-.7.1-.1.1-.2.3-.3 0-.3.2-.5.3-.7.1 0 .1-.1.2-.1l-.3-.3c-.3-.1-.5-.4-.7-.7-.1-.1 0-.3 0-.5.1-.2.3-.4.7-.4h.1c.3 0 .5.2.6.4 0 0 0 .1.1.1.1-.1.3-.2.6-.2h.2c.1.1.3.1.4.2h.1c.1 0 .2 0 .2.1 0-.1 0-.3.1-.4.1-.2.3-.4.6-.4h.2s.1 0 .1-.1c.1-.1.3-.2.5-.2h.3s.1-.1.2-.1c.1-.1.2-.1.3-.1h.1c.1-.1.3-.2.4-.2.1-.1.2-.1.3-.1V97.9l.2-.2.1-.1c.1-.2.2-.3.4-.3h.2c.1 0 .2 0 .2.1l.1-.1c0-.1.1-.1.1-.1.1-.1.3-.1.4-.1h.1l.2-.2.1-.1c.1-.1.3-.2.4-.2h.1c.1-.1.1-.1.2-.1l.2-.2c.1-.1.1-.1.2-.1h.2c.2 0 .3.1.4.2l.1.1c.1-.1.3-.3.5-.3h.1c.1 0 .3.1.4.2.1-.1.3-.1.4-.1h.1c.3.1.5.2.7.4.1 0 .2 0 .2.1.2 0 .3.1.5.2.1 0 .2.1.2.1h.4c.2 0 .5.1.6.4.1 0 .1 0 .2.1.1-.1.3-.2.4-.2h.1c.1 0 .2 0 .3.1.1.1.3.2.4.5h.1c.2.1.3.2.4.4 0 .1.1.3 0 .4.1.1.1.2.2.4v.4l.1.1c.1 0 .1.1.1.1l.1.1H273.4c.2 0 .4.1.5.2.1.1.2.2.2.4.1 0 .1.1.1.1.2.1.3.3.3.5.1 0 .2.1.3.2l.2.2c0 .1 0 .1.1.2l.2.1c.1.1.3.1.4.2.2.1.3.3.4.4.1.2.1.5 0 .8-.3.4-.7.7-1.1.9 0 .1-.1.2-.2.2-.1.1-.2.1-.4.1-.1.1-.2.2-.4.3-.2.1-.5.2-.8.3 0 .1 0 .2-.1.3-.1.2-.4.4-.6.4h-.4.9c-.1 0-.3.1-.5.1-.1 0-.3.1-.5.1.2.2.2.4.1.6 0 .1-.1.3-.2.4v.1c-.1.2-.3.4-.6.4h-.5c-.1 0-.1.1-.2.1v.2c0 .2-.2.4-.4.5h-.1c0 .2 0 .4-.1.5.3 0 .6.2.6.5 0 .2 0 .4-.1.5h.2c.3 0 .5.2.6.4.1 0 .1.1.2.1.3 0 .5.1.7.3h.1c.1 0 .1-.1.2-.1h.2c.2 0 .4.1.5.3.1.1.3.3.3.6.2 0 .4-.1.6-.1.7-.1 1.4-.3 2.1-.4h.1c.2 0 .3.1.5.2.2.2.3.6 0 .9-.2.2-.4.3-.6.3l-.1.1-.1.1s-.1 0-.1.1c-.1 0-.1.1-.2.1.2 0 .4.1.4.2l.1.1h.3c.3 0 .5.1.6.2.1 0 .1-.1.2-.1h.1c.2 0 .5.1.6.4l.1-.1c.1-.2.3-.3.5-.3h.1c.1 0 .1 0 .2.1.1-.2.3-.3.5-.3h.1c.1-.1.2-.2.4-.3h.2c.2 0 .4.1.5.3.2.1.3.3.4.5v.1c0 .1 0 .1.1.2.1 0 .2.1.3.1.3.1.4.4.3.7 0 .2-.1.3-.2.4 0 0 .1 0 .1.1.2.1.3.3.3.5 0 .1 0 .3-.1.4.1.1.1.3.2.4 0 .2-.1.4-.2.5l-.1.1-.3.3c-.1.1-.3.2-.5.2H280.6c-.1 0-.1 0-.2-.1H280.1c-.1.1-.2.2-.3.2h-.1c-.1.1-.3.1-.6.1h-.2v.2c0 .1-.1.1-.1.2v.1c0 .1 0 .1-.1.2 0 0 0 .1.1.1.2.2.3.5.2.8-.1.3-.3.5-.6.5v.1l-.1.3.3.3s0 .1.1.2c0 0 .1.1.2.1.1.1.2.2.2.3 0 .2.1.5-.2.8-.1.1-.2.2-.3.2v.2c0 .1 0 .2-.1.3 0 .3-.1.5-.3.6v.1c0 .2-.1.4-.4.5-.1 0-.1 0-.2.1v.1c-.1.2-.2.4-.4.4h-.2c-.1 0-.2.1-.3.1h-.7c-.1 0-.2.1-.3.2-.1 0-.2.1-.3.1 0 .1-.1.3-.2.4-.1.2-.3.3-.5.3h-.1c-.3 0-.5-.2-.5-.5v-.2c-.1 0-.1-.1-.2-.1-.1-.1-.3-.1-.4-.4-.1-.2-.1-.3 0-.5H273.2c-.5-.2-.7-.6-.7-.9v-.2c0-.1-.1-.2 0-.3v-.2l-.1-.1c-.1.1-.2.2-.4.3h-.4c0 .1-.1.1-.2.1-.1.1-.2.1-.3.1h-.1c.2-.3.4-.3.5-.5.3-.5.4-1.1.7-1.6.3-.6.6-.7.8-1.3.2-.5.5-1.6.3-1.9-.3-.3-.8.1-1 .6-.3.6-.5.9-.7 1.3-.1.2-.4.3-.6.6-.2.3-.6 1.4-.6 1.5-.3.4-.5 1-.3 1.4.1.2.3.2.4.2v.1c.1-.1.2-.1.3-.1.2 0 .4.1.4.1.1.1.2.1.2.2.1 0 .2.1.2.1.1 0 .2 0 .3.1h.1c.4 0 .6.3.6.6s-.1.5-.2.6c0 .1-.1.3-.1.3-.1.2-.2.4-.3.5 0 .1-.1.1-.1.2-.1.2-.2.3-.3.4.1.1.2.3.2.4v.1h.1c.1 0 .2.1.3.2.3.1.6.1.8.1H273.6c.2 0 .4 0 .5.1h.1c.1 0 .3.1.4.1l.2.1c.2.1.4.2.4.4.1.2 0 .4-.1.6-.1.1-.3.2-.4.2.3.1.5.3.5.6v.1c.1.1.2.2.2.3v.4c.1.1.1.3.1.4 0 .1 0 .2-.1.2 0 .1.1.3 0 .5v.1c.1.3 0 .6-.3.7-.2.1-.4.1-.6.1h-.1c0 .1-.1.1-.1.2s-.1.2-.2.3v.1c-.1.2-.2.3-.4.4h-.2c-.1 0-.3 0-.4-.1l-.1-.1c-.1.1-.2.3-.5.4l-.1.1v.2c.1 0 .1.1.2.1.2 0 .3.1.4.2.1-.1.2-.1.3-.1 0 0 0-.1.1-.1.2-.2.4-.3.6-.3h.1l.1-.1c.1-.1.2-.1.3-.1h.1v-.1c0-.1.1-.2.2-.3.2-.2.4-.2.5-.2.2 0 .4.1.5.2.1 0 .3.1.4.2.1 0 .2 0 .3.1.1-.2.3-.3.5-.3h.2c.2.1.4.2.5.3h.5c.1.1.3.1.3.3.1.3.2.5.2.7v.1c.1.2.1.4 0 .6.1 0 .3.1.4.1.1-.1.3-.2.4-.2.1 0 .2 0 .3.1.1-.2.3-.3.4-.3.1-.1.3-.1.4-.1.1 0 .3 0 .4.1.1 0 .1.1.2.1.2 0 .3 0 .5.1s.3.3.3.5c0 .3-.1.6-.2.7 0 0 0 .1-.1.1.1 0 .2 0 .2.1.1.1.2.1.2.2.1.1.3.2.3.3 0 .1.1.1.1.2h.1c.1 0 .2-.1.3-.1.1 0 .2 0 .4.1.1 0 .1.1.2.1l.1-.1c.1-.1.2-.1.4-.1.1 0 .3 0 .3.1.2.1.2.2.3.3.3.2.4.3.6.6.1.2.1.3 0 .5 0 .1-.1.2-.2.3v.4c0 .1.1.2.1.3.1.2 0 .4-.1.6-.2.3-.4.4-.6.4h-.4c.2.2.3.5.4.8.1 0 .2-.1.3-.1.1 0 .3 0 .4.1.4.3.5.6.6.8 0 0 0 .1.1.1.1.2.1.5 0 .7-.1.2-.3.3-.5.3.1 0 .2.1.3.1.2 0 .3.1.5.2H286.4c.1 0 .2.1.3.1h.2c.1 0 .2 0 .3.1.2.1.3.4.3.6 0 .1 0 .2-.1.3l.1.1c.2.2.2.5 0 .8l-.1.1c0 .1-.1.2-.2.3-.1.1-.3.3-.6.3h-.1c.1.2.1.5 0 .6v.1c-.1.1-.2.3-.4.4.1.1.2.1.3.2.2.2.2.5 0 .8l-.3.3c0 .2-.1.3-.2.5-.2.2-.5.3-.8.3h-.1c-.1 0-.2 0-.3-.1H284.4c-.2 0-.4-.1-.6-.3h.2c.1.1.2.3.2.5h.1c.1 0 .3.1.3.2h.1c.1 0 .2-.1.3-.1.2 0 .3 0 .4.1.1 0 .2.1.3.2.1.1.1.2.2.3l.1.1c.1 0 .3 0 .4.1.2.1.3.3.3.5.2.1.2.3.3.4v.1c.1 0 .1.1.2.1s.2-.1.3-.1h.1c.2 0 .4.1.5.2l.2-.1h.1c.2 0 .4.1.6.3l.3.5c.1.2.1.5 0 .7-.1.2-.3.3-.5.3H288.5c-.1.2-.3.3-.5.3 0 0-.1.1-.2.1-.2.1-.4.2-.6.2h-.2c-.2.1-.5.1-.6.1-.1 0-.2.1-.3.1-.2 0-.3-.1-.5-.2l-.1-.1c-.1-.1-.2-.3-.2-.4h-.2c-.2 0-.4-.1-.5-.3-.1-.1-.1-.2-.1-.3l-.1-.1H284.1v.1c0 .2-.1.4-.2.5-.1.1-.3.2-.5.2h-.1c-.1.2-.4.3-.6.3h-.1s0 .1-.1.1c-.1.1-.3.3-.5.3h-.1c-.2 0-.4-.1-.6-.1-.1 0-.2.1-.4.1h-.4c.1.1.2.3.3.4h.4c.1 0 .2-.1.3-.1.2 0 .4.1.5.3.2.2.2.5.1.8.2.1.3.2.4.4v.5c0 .2-.1.6-.4.9v.4c.1.1.1.3.1.4 0 .2-.1.3-.3.4-.1.1-.2.1-.4.1l-.1.1c0 .1.1.2.2.2.2.1.3.3.4.4 0-.2 0-.4.2-.5.1-.1.2-.1.3-.2.1-.1.3-.3.5-.3l.2-.2h.1c.1-.1.3-.2.4-.2h.1c.1 0 .3 0 .5.2 0-.1.1-.1.1-.1l.1-.1c.1-.1.2-.1.4-.1h.2c.1 0 .2.1.2.1.3 0 .5.2.6.4H286.5c.1-.2.3-.3.4-.3h.2c.2 0 .4.1.5.2.1 0 .2 0 .3.1 0 0 .1 0 .1-.1h.2c.1 0 .2 0 .3.1h.1c.2.1.4.1.6.4l.1.1c.1 0 .2.1.3.2.1.1.2.3.2.4.1 0 .2.1.2.2s.1.2.1.3h.1c.1-.1.2-.1.4-.1h.2c.1-.1.2-.3.4-.3.1-.2.2-.3.4-.4l.3-.1h.2c.1 0 .3 0 .4.1h.4c.1-.1.2-.2.3-.2h.5c.1 0 .2 0 .2.1.1-.1.3-.1.4-.1.1 0 .2 0 .3.1.2.1.3.3.4.4l.1.1c.1 0 .1 0 .2-.1h.4c.6 0 1.5.2 2.8.5.1-.1.2-.1.3-.1h.1c.2 0 .3.2.4.3.5.1 1.7.2 2.8.2-.3-.3-.4-.8-.2-1.1.3-.6 1-.6 1.2-.6.4 0 1 .1 1.5.1.2 0 .5.1.7.1h.7c.6 0 1.1-.1 1.6-.2-.2-.3-.3-.6-.1-1 .1-.2.3-.6 1-.6h.2c.5.1 1.3.1 1.9.2v-1.6l-1.6.5h-.3c-.2 0-.3 0-.5-.1s-.4-.4-.4-.6v-.2c.1-.1.1-.2.2-.3.3-.4.8-.9 1.1-1.5.1-.3.3-.5.4-.8l.1-.1c.2.1.4 0 .6-.1.3-.1 1-.4 1.4-.8.4-.3.3-.4.6-.8.4-.5.6-.9.5-1.3.1-.2.1-.5.1-.8 0-.3.1-.6.1-.9v-1.8c0-.3.2-1.3.3-2.2v-2.2c0-.8.2-1.8.2-2.6.1-.8 1.2-1.8 1.3-2.5.1-.4-1-.2-.9-.5s-.1-.7.1-1l.2-2.7c-.1-.1 0-.1 0-.9V128c0-.3-.1-1.1-.1-1.4-.1-.3-.2 0-.3 0-.2 0-.3 1-.3 1.5 0 .6-.2 1.2-.2 1.8v1.8c0 .6-.2 1.4-.2 2 0 .7 0 1.5-.1 2.2 0 .3-.1.6-.1.9-.3 0-.7.2-1 .4-.8.6-2 .9-2.5 1.3l-.1.1c0-.2.1-.4.2-.7.2-.6.6-.9 1-1.2v-1.3c.5-.4.8-1.1.7-1.6-.1-.7-.7-.4-1.4 0-.8.5-1.2 0-1.7.2-.2.1-.4.3-.6.6h-.1l.1.1c-.3.4-.6.8-1.1 1.1-.5.3-1.1.7-1.2 1.2h-.3c-1 0-1.4-.1-1.6-.2-.3-.2-.5-.4-.6-.8 0-.4.1-.7.3-1h-.6c-.3 0-.5 0-.7-.1-.4-.1-.7-.5-.7-.9 0-.2 0-.3.1-.5-1.1-.1-3.1-.3-3.6-1.3-.2-.3-.2-.7 0-1 .3-.5 1-.5 1.3-.5h.4c.1-.2.2-.3.3-.5.3-.3.8-.4 1.5-.4.4 0 .9.1 1.4.2h.9c-.7-.4-1.1-1-1-1.7.1-.6.6-1.2 1.7-1.2.3 0 .6 0 .9.1.8.2 1.4.2 1.9.2.6 0 1-.1 1.6-.2l.4-.1c.3 0 .6-.3 1-.6 0 .2-.1.5-.2.8-.2.4-.2.8.2 1 .4.2.9-.3 1.1-.7.5-1 1-1.4 1.3-2.1.2-.5.2-1.1.5-1.7.2-.4 0-.9-.5-1-.4-.1-.8.2-.9.7-.1.3-.3.5-.5.7v-.3c-.2.2-.3.4-.6.6-.5.4-1.1.7-1.7 1.3-.4.4-.9.3-1.1-.2-.2-.5.2-1 .6-1.5.2-.2.4-.4.6-.7.3 0 .6-.3.9-.5.5-.6 1-.9 1.4-1.2l.4-.4c0-.1.1-.1.1-.2.2-.4.4-.9.8-1.3.3-.4.2-.9-.2-1.1-.4-.2-.8 0-1.1.4-.5.6-1.4.9-1.7 1.4-.2.3-.2.5-.3.8h-.2c-.3 0-.7-.1-1-.5-.2-.3-.3-.6-.3-1 .2-1.1 1.9-2.3 2.3-2.6.4-.2 1-.8 1.4-1.2 0-.7 0-2.3.1-3.8.2-4.3.3-5 1.3-5 .5 0 .9.3.9.8l.8 8.9c.2 0 .4.1.6.2 1.2.6 2.1.6 2.9 1.1.5.3 1 .8 1.8 1.2.5.3.6.8.2 1.1-.4.3-1 .2-1.6-.1-.1 0-.1-.1-.2-.1.1.2.1.4.1.7.5.3 1.1.7.8 1.5-.2.5-.6.6-.9.7-.3.7-1.1 1.2-1.9 1.2-.3 0-.5-.1-.7-.2v1.1c.3 0 .5.1.8.2.4.2.7.5 1 .8.3.4.7.8 1.1.9 1.2.3 3 1.3 4.2 2 .4.2 1.5.3 2.2.4 1.4.1 2.3.2 2.6 1 .1.3.1.6 0 .9-.2.5-.8.8-1.5 1 .1.1.2.3.2.4.2 0 .6 0 1 .4.6.5.6 1 1 1.4.6.6 1 .8.3 1.6-.6.7-1.4.6-2.3.3-.6-.2-.8-.1-1.4-.5-.6-.4-1.1-1-1.5-1.5-.1 0-.2-.1-.3-.1-.3-.1-.7-.2-1-.2.7.6 1.3 1.1 2 1.7.8.7 1.5 1.5 2.3 2.2.8.7 1.4 1.3 2.3 2.1.5.4.8.7.9 1.1 0 .5-.7.3-1.2-.1-.8-.6-1.5-1.2-2.3-1.9-.5-.4-.9-.6-1.4-1v.1c.1.6-.3.8-.9.7-.2 0-.5-.1-.8-.2.4.4.6.9.5 1.2-.1.4-.5.1-1-.4-.5-.4-1.1-.8-1.7-1.4-.2-.2-.3-.4-.5-.6v-.1c-.1-.2-.3-.5-.5-.8-.3-.3-.6-.7-.8-1.1-.3-.7-.7-1.4-1.3-1.5-.3 0-.4 0-.6.1-.2.2-.2.5 0 .9.3.7.4 1.1.6 1.5.1.4.3.7.6 1.2.2.1.3.1.5.3l.1.1c.4.3.3.7.5.8.3.2.6.6.8 1.1 0 .1 0 .3.1.4.2 0 .4.1.6.3.6.5.6 1 1 1.4.6.6 1 .8.3 1.6l-.1.1c.6 0 1.1-.1 1.5-.1.4 0 .6 0 .9.2.5.3.6.8.5 1.1-.2.8-1.2.8-1.9.8-.1 0-.3 0-.6.1 0 .2.2.8.4 1 .5-.1 1.4-.3 1.7-.5.4-.3 2.6-1.3 3.8-1.3.2 0 .4 0 .6.1.4.1.7.5.8.8v.4s.1-.1.2-.1c.5-.3 2.3-1.3 3.3-1.3.2 0 .4 0 .6.1.7-17.6.8-35.7.6-50m-106.6 15c-.1.9-.4 1-.9 1.2-.4.1-.4.3-.8.2-.5-.1-.8-.6-1.1-.8-.5-.3-.8-.9-.6-1.7.2-.8.5-1 1-.6.2.1.3-.3.7-.1.4.1.6.5.9.7.6.2.9.2.8 1.1m7.9 27.9c-.4 0-.7-.3-1.1-.9-.3-.4-.6-1-.7-1.5 0-.4-.1-.7-.2-.9-.2-.7-.2-1.1-.4-1.7-.2-.7-.6-2 .4-1.8.3.1.9.8 1.2 1.1.5.5.6 1.3 1 2 .2.4.2 1.3.3 2 .2 1 .3 1.7-.5 1.7m4.4-.1c-.3.7-.7.6-1.2.3-.3-.2-.4-.1-.7-.4-.4-.5-.5-1.1-.6-1.5-.3-.7-.3-1.4.1-1.9.5-.5.8-.4 1.1.3.1.3.4 0 .7.5.3.5.3.9.5 1.3.3.5.5.7.1 1.4m15.2-24.8h.2c.1-.1.2-.1.3-.1h.1c.1-.2.2-.3.4-.3.1-.1.3-.2.4-.2l.1-.1c.1-.1.2-.1.3-.1.1 0 .2 0 .3.1.3 0 .5.2.7.3.1-.1.2-.1.3-.1h.1c.2 0 .4.1.5.2.1.1.2.3.2.5.1 0 .2 0 .3.1h.1c.1 0 .2-.1.3-.1h.7c.1.1.3.2.4.4 0 .1.1.1.1.1.1.3.3.5.6.7.1 0 .2-.1.3-.1h.2c0 .1 0 .2-.1.3-.3.3 0 1.4-.2 1.6-.1.2-.5.4-.7.7-.3.3-.5.8-.7.9-.3.2-.5.5-.5.8-.2-.2-.3-.4-.3-.8l-.1-.1c-.2-.1-.4-.3-.4-.5v-.3h-.2c-.1 0-.2-.1-.3-.2-.1.1-.3.2-.5.2-.1 0-.3 0-.4-.1h-.1c-.3 0-.6-.1-.8-.4-.1-.1-.1-.1-.1-.2H255.5c-.1 0-.2 0-.3-.1-.1 0-.2.1-.3.1-.3 0-.6-.2-.8-.5-.1-.1-.1-.3-.1-.4 0-.1 0-.1.1-.2-.1-.3-.1-.5-.1-.6 0-.2.1-.4.3-.5.1 0 .1-.1.2-.1-.1-.3 0-.6.2-.8-.2 0 0-.1.2-.1m42.8 31.5c.3-1.4 3.6-1.4 3.6-1.4.2 0 .5-.1.9-.1-.2-.2-.3-.5-.3-.8 0-.4.3-.7.6-.9.2-.1.6-.2 1.5-.2.6 0 1.3 0 1.7.1.5 0 1.6-.2 2.5-.3.2 0 .3 0 .4-.1-.2.3-.4.6-.9.9-.5.4-.7.8-.2 1 .5.3 1.2 0 1.7-.4 1.1-.8 1.9-1 2.6-1.6.3-.2.5-.5.8-.8v2.5c0 .4-.2 1.3-.3 2.3-.1 1 .1 2 0 2.4 0 .2-.1.5-.1.8 0 .3-.1.7-.1 1v.5c-.1.1-.2.1-.4.2s-.4.1-.6.2c-.1 0-.3.1-.4.2-.4.3-.4.6-.6.7-.1.1-.2.1-.3.2-.3.3-.6.7-.7 1.1-.2.1-.5.3-.8.5-.3.2-.5.2-.7.1-.1 0-.2-.1-.2-.2-.1-.1-.1-.2-.1-.3-.1-.5.3-1 .8-1.4l.1-.1c.1-.1.2-.1.2-.2.1-.6.4-1.5 1-2.5.3-.5.5-1.1.2-1.4-.2-.2-.6.1-.9.6-.4.7-.9 1-1.4 1.8-.2.3-.5 1.2-.7 1.5-.3.5-.6.9-.9 1.3-.8 0-1.9-.5-2.8-1-.1-.1-.2-.1-.3-.1-.5-.2-.6-.7-.6-1 .1-.7.8-.8 1.2-.9h.2c.2-.9.7-1.3 1.2-1.4-.6-.1-1.2-.4-1.7-.6l-.1-.1c-.1.3-.2.5-.4.7-.2.2-.2.3-.3.5.1.1.2.1.2.3.1.5-.4 1.1-.8 1.5-1 .9-1.5 1.6-2.3 2.1-.5.3-1.2.6-1.9 1.1-.5.3-1 .2-1.1-.3-.1-.6.3-1 .8-1.4.8-.6 1.4-1.7 2-2.1-.4 0-.8-.3-1-.8-.3-.8.3-1.5 1-1.7.3-.1.2-.3.5-.6-.5-.1-1-.2-1.4-.3-.6-.3-.5-1-.4-1.1m.2 2.7c.2.6-.1 1-.5 1.5-.3.4-.3.5-.6.8-.5.4-1.2.7-1.5.8-.5.3-.9.1-.9-.5 0-.7.5-1.4 1.1-1.6.2-.1.2-.4.6-.7.4-.3.7-.2 1-.4.4-.3.6-.5.8.1M266 325.8c.2-.2.5-.4.7-.6-.3.2-.5.4-.7.6M171.8 334.7c-.1 0-.3 0-.4-.1.2-.3.3-.5.4-1.1.1-.6.4-.3 1.4-1.2 1-.8 1.2-.4.8 1.2l-.3 1.2c-.3 0-.5-.1-.7-.1-.5.1-.7.1-1.2.1M175.7 337.3c0 .3-.1.6-.1.9-.1-.1-.3-.2-.4-.3v-.1c0-.4-.3-.6-.6-.6-.2 0-.4-.1-.7-.2l-1.8-1.2c.4 0 .7.1 1 .1.1 0 .2 0 .3-.1 0 .4.2.6.7.4 1.8-.3 1.7.2 1.6 1.1M153.1 265v1c0 .3-.1.7-.1 1 0 .2 0 .4-.1.6v.3c0 .3-.1.7 0 1v2.5c0 .4-.1.7-.1 1 0 .4-.1.8-.1 1.2 0 .4 0 .7-.1 1.1v.5c-.1.4-.1.9-.1 1.3-.2-.2-.3-.3-.5-.4-.2-.1-.2-.4-.6-.8-.4-.3-.7-.2-1-.4-.5-.3-.7-.5-1 .1-.3.6-.1 1 .3 1.6.3.4.2.5.6.9.5.4 1.2.8 1.5.9.1 0 .2.1.3.1-.3.1-.6.4-.7.9-.3 1-.6 1-.8 1.4-.2.4-.3 1.3-.6 1.9-.3.6-.1 1.2.3 1.5.4.4.7.1 1-.5.2-.6.7-.8.8-1.1.1-.2.1-.3.2-.5v.4c0 .5-.1 1-.1 1.6v1.1c-.1 0-.3-.1-.4-.1-.3 0-.5.1-.7.2h-.3c-.2 0-.4 0-.7-.1-.3 0-.7-.1-1.1-.1-.9 0-2.3-.6-2.8-.9-.2-.1-.4-.2-.7-.2-.3 0-.7.1-1 .2-.3.1-.6.2-1 .2-.9 0-3.7-.5-5.5-.9-1.9-.5-6.8-1-7.3-1h-.2c-.7 0-1.1.4-1.2.6-.6 0-2.4-.3-3.7-.5-.8-.1-1.5-.2-2-.3-.7-.1-2.2-.6-3.5-1.1-1.3-2.5-2.6-5.1-3.9-7.8.3.1.6.3.8.5 1 .9 1.8 1.3 2.3 2 .4.5.7 1.1 1.3 1.7 0 0 .1.1.1.2.3-.4.3-.8.2-1.2h.1s.1 0 .1.1c.8.8 1.2 1.5 2 2 .6.4 1.2.6 1.9 1.2.5.4 1.1.3 1.3-.3.2-.5-.1-1.1-.6-1.4-.8-.6-1.3-1.8-1.9-2.2-.1-.1-.2-.1-.3-.2-.1-.4-.3-.7-.5-1.1.4.1.9.1 1.4.2.5.1 1 .1 1.4.2.1.2.2.4.4.7.3.4.2.5.6.9.5.4 1.2.8 1.5.9.6.3 1 .2 1.2-.5.1-.3 0-.6-.2-.9l.3.1c.3.1 1.1 1.1 1.5 1.6.7.9 1.1 1.3 1.6 1.3.8 0 1-.6 1.1-1.3l.1.1c1.1.9 1.4 1.7 2.3 2.2.6.4 1.2.6 1.9 1.2.5.4 1.1.3 1.3-.3.2-.5-.2-1-.6-1.4-.8-.6-1.3-1.8-1.9-2.2-.1-.1-.2-.1-.4-.2h.1c.8 0 1-.6 1-.7.2-.7-.4-1.1-1.1-1.5 0 0-.1 0-.1-.1.6-.1 1.2-.2 1.6-.3.7.9.9 2 1.3 2.4.4.4 1-.1 1.7.8.6.7 1.2 1.3 1.5.5.3-.7-.2-1.8-.8-2.6-.2-.3-.4-.5-.5-.7h2c.3 0 .6.1 1 .1-.1.1-.1.2-.2.3-.2.5.2 1.2.7 1.6 1.1.9 1.4 1.7 2.3 2.2.6.4 1.3.6 1.9 1.2.5.4 1.1.3 1.3-.3.2-.6-.1-1.1-.6-1.4-.8-.6-1.3-1.8-1.9-2.2-.7-.5-1.5-.3-2.4-1.1 0 0-.1 0-.1-.1.5.1 1 .1 1.4.1.5 0 .8-.1 1.1-.2.5-.3.6-.6.7-.9.1 0 .2-.1.3-.1 0 0 2-.2 2.6-1 .2-.2.3-.5.3-.8-.1-.6-.5-1-1.1-1-.2 0-.4 0-.6.1-.2 0-.4.1-.6.1h-2.5c.5-.1 1.1-.3 1.7-.4.8-.1 1.6-.3 2.2-.5.9-.4 1.8-1.4 1.6-2.3-.1-.6-.6-.9-1.2-.9-.8 0-2.4.2-3.6.4-.3.1-.6.1-1 .1h-.8c.1 0 .2-.1.3-.1.6-.3.8-.8 1.5-1.1.6-.2.7-.7.3-1.1-.4-.4-.7-.4-1.3-.2-.9.3-2.3.3-3 .8-.5.3-.9.6-1.3.8-.3.2-.6.6-1.1.6-.5.1-.8.3-.7.7h-.2c-.3.1-.6.1-.8.2h-.3c-.5 0-1.1-.2-1.6-.4-.2-.1-.3-.1-.5-.2-.3-.1-.6-.1-1-.1h-1c.5-.2 1.1-.6 1.6-1 .4-.3 1.3-.9 2-1.4.6-.4 1.1-.7 1.4-.9h1.3c.4.3 1.1.3 1.6.1.2-.1.4-.1.6-.1h9.6zM142.3 299.5c-.6.2-1.4.2-2.3.2h-.5c-.6 0-1.1 0-1.7.1-.9.1-1.5.4-2.1.6-.5.2-.9.4-1.6.5h-1c-1.8-2.1-3.4-4.3-5-6.5.1-.1.2-.2.2-.4.5.3.9.5 1.2.5h.2c.3-.1.4-.2.5-.3.1 0 .2.1.3.1.1.2.3.5.5.6 1 .9 1.4 1.7 2.3 2.2.6.4 1.2.6 1.9 1.2.5.4 1.1.3 1.3-.3.2-.5-.1-1-.6-1.4l-.1-.1c.2-.2.3-.5.3-.8.3.2.6.4.8.6 1.1.8 1.6 1.1 2 1.1.1 0 .3 0 .4-.1.4-.2.6-.5.6-1 0-.4-.2-.8-.5-1.2v-.1c.3.1.6.1.8.1.1.2.3.5.5.6 1.1.9 1.4 1.7 2.3 2.2.3.2.6.4 1 .6-.5.5-1.2.8-1.7 1M149.8 303.9c.6-.1 1.2-.1 1.7-.1 0 .5 0 1.1-.1 1.7 0 .3-.1.7-.1 1 0 .2 0 .4-.1.6 0 .2 0 .4-.1.5-.1.6-.2 1.3-.1 1.9V319.7c-.8-.7-1.5-1.4-2.3-2.1-1.9-1.8-3.8-3.6-5.6-5.4.2-.1.3-.3.4-.6.1-.7-.4-1.4-.9-1.7-.2-.1-.2-.4-.5-.7 0-.3 0-.5-.1-.7.8-.1 1.6-.3 1.8-1.1 0-.1.1-.3 0-.4 1.2.5 2.8 1.1 3.6 1.1.8 0 1-.5 1.1-.7.1-.2.1-.3.1-.5.4 0 2.2-.2 2.6-1.2.2-.4.1-.8-.2-1.1-.4-.5-.7-.6-1.2-.7M151.1 293.9c0 .4.3.8.7 1.1v.5c-.1 1-.2 1.8-.2 2.5v2.9c-.6-.1-1.5-.1-3-.1h-2c.2-.1.4-.2.5-.3.5-.4 1.2-1.4.9-2.2-.2-.4-.6-.7-1-.7-.1 0-.3 0-.4.1-.1 0-.2.1-.3.1l-.3-.3c-.8-.6-1.3-1.8-1.9-2.2-.7-.4-1.3-.3-2.1-.9v-.5c.2 0 .4 0 .5-.1.5-.2.7-.6.8-.9v-.3c.1 0 .2.1.3.1.2.1.5.3.9.5 1.6.9 2.8 1.5 3.6 1.5.2 0 .4 0 .6-.1.4-.2.6-.5.7-.9 0-.4-.1-.7-.3-1l1 .5c.3.2.6.3.8.4-.2.1 0 .2.2.3M157.4 285v-2.8c.2-.1.4-.1.5-.1l.1.1c0 .2-.1.4-.2.7-.2.7-.1 1.1.3 1.4.1.1.1.1.2.1 0 .5 0 1.1-.1 1.8-.3 0-.5-.1-.8-.1V285M158.3 316.4c0 .6.1 1.6.1 2.3 0 .8-.1 2.1-.2 3.1 0 .3-.1 1.6-.3 3.4-.4-.3-.7-.6-1.1-.9v-1c0-.8-.1-1.6-.1-2.5V315.9c0-.8.5-2.1 1-2.1.6.2.7 1.8.6 2.6M158.6 296.8c-.1 2 0 4.2 0 6.1 0 1.9-.4 3.3-.4 4.6 0 .8-.3 2.7-.9 2.7-.2 0-.3-.2-.4-.4v-.6c0-.4 0-.8.1-1.2l.1-.3c0-.3.1-.6.1-.9v-8.5c.1-.2.1-.4 0-.6V295.1c.1.1.1.2.3.3.3.3.7.5 1 .7.1.1.1.4.1.7M158.3 289.7c.2.9.4 1.8.4 3.4-.4-.3-.7-.2-1-.4-.1-.1-.2-.1-.3-.2v-.8c.1-.1.3-.2.3-.3.4-.5.4-.9.3-1.2 0-.1-.1-.3-.2-.4h.5zM158.6 265.9c.1.7.2 1.4.2 2 0 1.4-.2 2.8-.3 4.1-.2 2.5 0 3.3-.3 4.3-.1.3-.3.6-.5 1v-2.7c.1-.4.1-.8.1-1.1v-8.7h.5v.4c-.1.1-.2.3 0 .4.2.3.3.3.3.3M189.6 265h-1.9c-.1.3-.2.7-.2 1.1 0 .7.1 2 .6 2 .3 0 .6-.3.9-.7.2-.3.3-.6.3-.9 0-.4.2-.7.2-.9.1-.2.1-.4.1-.6m4.1 37.9c0-.7.2-1.5-.3-1.5s-1 .6-1 1.3c0 .9-.7 1.4-.8 2.3-.1.4.1.9.1 1.5-.1.5-.1.9-.2 1.4-.2.8-.6 1.5-.9 2-.4.5-1.6 1.6-2.1 1.4-.4-.2-.4-1.1-.3-2.2.1-.8-.1-1.7.1-2.5.2-1.1.6-1.8.7-2.9 0-.6-.1-1.3-.1-1.8 0-.9.2-1.6-.2-1.8-.6-.2-.7 1.1-.9 2-.3 1.3-.6 2.6-.7 3.2-.2 1.2-.6 2.2-.7 3.2-.2 1.1-.5 1.6-1 2.3-.4.6-1.1 2.3-1.8 2.5-.6.2-1.1 0-1.3-.1-.2 0 .4-1.9.6-2.6.2-.6.3-1.1.5-1.6.3-.9.2-1.9.4-2.9.2-.7.2-1.3-.2-1.5-.5-.2-.9.4-1 1.1-.2.8-.6 1.4-.8 2.2-.2.6-.5 2.1-.7 2.7-.1.3-.1.4-.4 1.4-.2.7-.3 1.5-.6 2.1-.4 1-.7 2-.8 2.2-.3 1-.9 1.4-1.4 1.8-.3.2-.6.1-1 .2-.5.1-.4-.4 0-2.1.1-.3.5-1 .8-1.9.3-.9.3-1.9.6-2.9.3-.9.9-1.8.9-2 .1-.7 0-1.3.1-1.9.2-.8.3-1.4-.2-1.6-.5-.2-.8.6-.9 1.3-.2 1-.7 1.5-.9 2.5-.2.9-.4 1.8-.7 2.7-.1.4-.5.9-.7 1.5-.3.9-.5 1.8-1 2.1-1.1.6-1.4.8-1.6.6-.1-.3 0-.9.1-1.5s0-1.2-.1-1.3c-.5-.3-1.1.2-1.3.8-.4 1-.6 1.8-1 2.3-.4.4-.8.5-1.3.6-.3 0-.8.2-1.2.1-.4-.1-.3-.9.3-2.3.3-.7.7-1.2.9-1.9.2-.6.2-1.4.4-1.9s.4-.7.6-1.2c.2-.7.4-1.8-.1-2.1-.4-.4-.9.6-1.1 1.3-.6 1.7-1.4 2.6-2.2 4.3-.2.5-.3 1.5-.5 2-.5 1.1-1.2 1-1.8 2.1-.2.4-.4.7-.5 1-.3.6-.8.8-1.2.4-.4-.4-.4-1.1-.2-1.8.2-.5.4-.8.6-1.1.2-.5.2-1.5.4-2 .2-.8.8-1.5 1.1-2.5.2-.7.3-1.1.4-1.5.4-.9-.1-.9-.4-.9-.6 0-1.4.4-1.7.8-.2.3-.2.8-.6 1.5-.2.5-.6.6-.8 1.1-.2.7-.6 1.2-1 .8-.4-.3-.5-.9-.2-1.6.2-.5.1-1.4.4-2 .2-.7.6-1.2.8-1.9.2-.7.3-1.6.6-2.2.4-.8 1.5-1.1 1.5-1.4 0-.3.4-1 .6-1.3.2-.3.4-.5.7-.5.9.1.5 1.3.2 2.2-.2.6-.4 1-.4 1.4 0 .3.4.4 1 .1.7.1.5-.2 1.1-.9.4-.5.9-1 1.2-1.8.2-.4.5-.8.7-1.3.2-.5.4-1.9 1-2.5.8-.9 1.1-.5 1.1.4 0 .5-.2 1.7-.3 2.3-.2.7-.1 1.1.4 1.4.5.3.7-.4.9-1.1.2-1.1.5-1.3.6-2.1 0-.1 0-.2.1-.7 0-.5.3-1.6.4-2.5.1-.6-.1-1 0-1.5 0-.7.3-1.3 0-1.4-.2-.2-.4-.5-1.4.2-.1.1-.5-.1-.9.2-.4.3-.7.2-.9-.4-.2-.7.1-1.2.6-1.5.2-.3.3-.6.5-.9.5-.3.8-1.1 1.2-1.5.5-.5 1.1-.2 1.7-.4.4-.1.7-.7 1.1-1.2.1-.4.3-.8.6-.9.1-.1.3-.6.4-.7.4-.3.9-.5 1.2-1 .1-.2.4-.3.6-.3l.6-.6c.6-.5 1-1.3 1.7-1.5.5-.2.9.8 1 1.4.2.8-.1 1.5-.6 1.7-.4.2-.7.7-1.2 1.1-.3.3-.6.5-.8.8-.2.2-.5.4-.7.6-.2.3-.3.7-.4.8-.6.9-1.1 1.1-1.5 1.9-.4.7-.5 1.3-.6 2.8-.1.8-.4 1.5-.4 2.2 0 .8.2 1.5.1 2.6-.1.7.1 1.3.6 1.4.5.2.5-.5.7-1.2.2-1.3.7-2.1.8-3.1.2-1.3.1-1.7.2-2.3.1-.5.3-1.6.7-2.3.3-.6.7-1.1 1-1 .3.1.5.9.4 2.1-.1.7-.1 1.3.4 1.4.5.1.8-.3.9-1.1 0-.4.3-1 .3-1.5.1-1.1.3-1.8.4-2.3.3-1.3.8-1.3 2.4-3.2 1.3-1.5 2-2.6 2.6-3.6.3-.5.8-2 1.1-3.6.2-.8.3-1.3.6-1.9.4-.7.7-1.6 1-1.5.4 0 .7.4.7 1.4 0 .4.2.8 0 1.5s-.3 1.8.1 2.1c.5.3 1 0 1.2-.7.1-.6.6-.9.7-1.7.2-1.1.2-2.8.3-4 .1-.7.3-1.3.5-1.8-.2-.5-.1-1.2.2-1.5h.1c0-.4 0-1.6.2-3.1.1-.6.5-1.3.6-1.9.1-.8.1-1.5 0-2.1h-1.9c0 .2-.1.4-.1.6-.2.8-.2 2-.3 2.9-.2 1.6-.7 2.7-.9 3.1 0 .2-.1.3-.1.4-.1.5-.1.9-.1 1.1 0 .6 0 .9-.8 1.3h-.1c-.8.4-.8.4-.9 0-.1-.3-.2-.8-.1-1.8.1-.7-.1-1.6-.6-1.7-.5-.1-1 .9-1.1 1.6-.1.9-.4 1.9-.6 2.7-.1.4-.1 1.7-.3 3-.1.3-.2.7-.3.9-.2.7-.5 1.2-.7 1.6 0 .2-.1.3-.1.3-.2 1-.6 1.6-.8 2.1-.4.8-.5 1.2-1.2 1.2-1.4 0-.8-.8-.6-1.8.1-.4 0-1.8.2-3.1.2-1.6.7-2.9.9-3.6.2-.7-.1-1.9-.5-2.1-.5-.2-1 .9-1.1 1.6-.5 2.3-1.1 4-1.7 4.8-1.2 1.5-1.2 1-1.4.5-.2-.6-.5-1.6 0-3.1.6-1.6.4-3 .6-4 .1-.7.3-1.7-.2-1.8-.5-.2-1 1.1-1.1 1.8-.1.7-1.1 1-1.5 2.9-.1.7-.5 1.5-.7 2.3-.3 1.2-.9 2.6-1.4 3.2-.5.6-1 .6-1.3.8-2.2 1.9-2 1.9-2 .5 0-1.1.3-2.3.5-3.6.1-.7-.1-1.4.2-2.1.2-.6.4-1.4-.1-1.8-.4-.4-.9 0-1.1.6-.1.2-.3.5-.4.8-.2.6-.5 1.9-1 3.2-.3.7-.6 1.3-.9 2-.4.8-.5 1.6-.8 2.1-.6 1.2-1.2 1.9-1.6 2.2-.5.4-.8 0-.7-1 .1-.7.4-1.8.8-3 .3-.9.3-1.9.6-2.8.2-.7.4-1.6 0-1.9-.5-.3-1 .8-1.2 1.5-.4 1.1-.5 1.2-.8 1.8-.2.5-.9 1-1.2 1.7-.9.1-.8 0-1.3-.2-.2-.1.1-1 .4-2.1.2-.9.6-2 .9-2.9.5-1.3.7-1.9 1.1-2.4.4-.7 1.6-2 2.8-2.5 1.6-.7 3.3-.7 4.6-2.2 2.2-2.8 3.7-2.8 4.6-3.7.6-.6 1.2-1.2 1.9-1.8h-15.2c-.1.1-.3.1-.5.2-.5.2-1 .6-1.4.6h-.2c-.1.6-.1 1.2-.2 1.8 0 .3 0 .5-.1.8.1.9.3 2 .3 2.7 0 1.5-.3 3.2-.4 4.6v.6c.2-.1.4 0 .5.1.4.4.6 1.2.3 1.8-.2.7-.6 1.6-.9 2.6 0 .1 0 .1-.1.2.1 1.6.4 3 .3 4.8v.5c2.8.3 3.5.4 4 .8.3.3.4.6.3 1-.2.7-.8.9-1.5 1.1-.1 0-.2.1-.3.1l-.1.1c-.2.2-.6.5-1.1.5-.1 0-.3 0-.4-.1h-.6v.3c0 1.3-.3 2.6-.3 3.8v.1c.2-.2.4-.4.6-.2.4.3.4.9.2 1.6-.1.4 0 .7-.1 1.1-.1.4-.3.8-.6 1.2v1.1c0 1.8-.4 3.8-.4 5.7v.3h.1c.2.1.2.4.3.7.1.3-.1.7-.1 1.1-.1.4-.1.8-.1 1.3.1.9.1 1.8.1 2.6s-.3 1.8-.3 2.7c0 1.5.2 2.9.2 4.4 0 1.1.2 2.9.2 4.8 0 .3-.2 2.1-.5 4.5l6.3 4.8c.1-.3.3-.6.3-.9.2-.7.6-1.4 1.1-1.2.5.2.6 1 .4 1.8v.9h.1c.3 0 .5.1.7.1.2 0 .4.1.4.4 0 .3-.2.4-.4.4-.1 0-.2.1-.3.2.3.2.6.4.8.6.1-.6.3-1 .5-2 .1-.5 0-1.3.1-2 .1-.8.6-1.5.6-1.8.1-.7.8-1.2 1.3-1 .9.4.5 1.8.8 2.1.4.5.9-.2 1.3-.6 0-.7.1-1.5.4-2.1.5-1.1.9-.5 1.6-1.6.6-.8 1.1-.4 2.5-1.5 1.2-.9 2.6-2.8 3.9-3.6 1-.7 1.9-.5 2.8-1.3.9-.7 1.6-2 2.3-2.8 1.4-1.6 3-2.3 3.9-3.1 0-.1.1-.2.2-.2.1-.1.1-.1.2-.1.2-.2.3-.3.3-.5.4-.7.6-.4 1-2.4.1-.5.1-1.8.2-2.2 0-.4.4-.8.4-1.3-.3-.9-.6-1.6-.6-2.9m-30.9-4.7c.2-.6.3-1.2.4-1.8.2-.6.2-1.3.3-1.9.1-.7.5-1.2 1-1.1.9.3 1.1 1.1 2.4.6.2-.5.5-1 .9-.9.5.1.9.7.8 1.5 0 .5 0 .1-.1.8-.1.6-.5 1.1-.5 1.6-.1.7 0 1.2-.1 1.9-.1.5-.3 1-.5 1.6-.2.7-.8 1.4-1.2 1.1-.4-.3-.2-1.3 0-1.9.2-.5.1-.8.1-1.1.3-1.3.2-1.3-.4-1.4-.2 0-.6 0-1 .4-.3.5-.8 1.2-.9 1.5-.2.7-.6 1.2-1 .9-.4-.4-.4-1.1-.2-1.8M195.1 272.7c0-.3.3-.9.5-1.8.1-.6.1-1.4.3-2 .1-.5.3-.7.5-1.1.3-1.3.3-2.4.4-2.5v-.3h1.5v.5c0 .3-.2 1.6-.3 2.7-.1.6.1 1.2 0 1.8 0 .6-.4 1.2-.5 1.7-.1.7-.1 1.4-.1 1.7-.1.7-.7 1.6-.8 2.1-.1.8-.6 1.9-1.1 1.8-.5-.1-.5-1.3-.4-2.2 0-.8-.2-1.7 0-2.4M198.2 304.2c.5-.2 1.2-.5 1.6-1.2.3-.5.3-1.5.4-2.2v-.1c.1-.8.5-1 1-.9.5.1.5.9.4 1.7-.1 1.3.2 2.8-.6 3.4-.8.7-1.8.9-2.4 2-.5.5-1.1.7-1.6 1.1-1.1.9-1.1 0-1-1.1.1-.9.2-1.8.2-2.1 0-.7.2-2.2.5-2.6.5-.6 1.1-.5 1.1.2 0 .5 0 2 .4 1.8M199.9 272.7c0-.7 0-1.7.2-2.1 0-.2.3-.6.3-.9.1-.7.2-2.2.6-2.5.6-.5 1.3-.3 1.2.4-.1.8-.2 2.2-.2 3.3-.2 1.7-.8 2.1-1.1 2.2-.7.3-1.1.1-1-.4M201.8 309.1c.1-.7.5-1.3.7-1.4.3-.2.4 1.1.4 2.5 0 .7.3 1.1.3 1.8 0 1.2.3 1.9-.3 2.4-.3.3-1 2.3-1.3 1.3 0-.3.1-.7 0-1.1 0-.5-.2-1.1-.1-1.7 0-.5.2-1.1.2-1.7 0-.5-.1-1.4.1-2.1M205.2 319.8c-.4 0-1 1.1-1.3 2.3-.3 1.2-.3 2.5-.4 2.9-.2.9-.7 2.2-1.1 3-.6 1.2-.7 2.1-.9 3-.2.6-.6 1-.7 1.5-.2.7-.7 1-1.2.8-.4-.3-.7-1.1-.5-1.8.1-.6-.1-1.2 0-1.7.2-.9.6-1.6.8-2.5.2-1 .3-1.1.5-2.8.1-.8.2-1.9-.3-2-.5-.2-1.5.6-1.5 1.4-.2 1-.4 1.7-.9 2.8-.6 1.5-.4 1.8-1.1 3.3-.4.8-.6 2.3-1 3.4-.4.9-.9 1.4-1.1 2-.2.7-.7.9-1.2.5-.4-.4-.6-1.3-.3-1.9.2-.7.2-1.3.3-1.8.6-2 .4-.6.9-2.6.2-.7.2-1.7.3-2.6.1-.8.4-.9.5-1.4.2-.7.2-1.6-.2-1.8-.5-.3-.9-.2-1.1.6-.3 1.1-.4.9-.8 2.2-.3 1.2-.6 2-1.1 2.7-.2.4-.8 1.6-1.2 2.7-.4 1.4-.5 1.3-.8 2-.2.3-.3.5-.4.8-.1.4-.2.8-.1 1 0 .4.3.5 1 0 .4-.4.9-.4 1.1.3.2.7-.1 2-.5 2.3-.3.2-.6.4-1.3.6-.7.2-1 1.3-1.8 1.6-.6.2-1.3.2-1.9.2-.8.1-1.4.4-1.7.4-.5-.2-.8-.5-.7-1.3.1-.7.7-1.7 1.2-1.5.5.3.8-.8 1.1-1.1.5-.4.6-1 .7-1.7 0-.3.1-.5.1-.9v-.1c.2-1.8 1.2-3.3.4-3-.6.2-1.1.6-1.4 1-.4.6-.7 1.1-.8 1.7-.2.6-.6.8-.9 2-.1.3-.2.6-.3.8-.2.7-.7 1.1-1.1.8-.5-.3-.7-1.1-.5-1.7.1-.3.2-.6.2-.9.6-2.4.3-2.6-.9-2-1.2.6-1.9.6-2 1.6-.1 1.2-.4 1-.7 2.1-.4 1.4-.2 2.1.8 1.6.5-.2 1-.2 1.4-.4.5-.2.6.1.7.8.1.7.3 1.6-.2 1.8-.1.4-.3.9-.4 1.3 1 .7 2.1 1.3 3.2 2l6 3.6c-.1-.1-.1-.2-.1-.4 0-.6.3-.8.8-.8.4 0 .9-.4 1.3-.4.5 0 1.2.2 1.5.2.9-.1 1.3-.5 2.3-.5.3 0 .8-.1 1.1 0 .6.1 1.1.5 1.7.5.9-.1 1.3-.5 2.3-.5.6 0 1.3.3 1.9.3.5 0 .7.7.7 1.2 0 .6-.1 1-.5 1-.6 0-1.5.4-2.1.4-.8 0-1.2-.1-2-.2-.4-.1-.7-.2-1.9-.1-.4.1-1.1.2-1.4.2-.8 0-1-.3-1.8-.4-.5-.1-1.1.5-1.7.4-.6-.1-1-.7-1.4-.7h-.1c5.1 2.9 9.9 5.5 14.3 7.7.1-.6.2-1.3.2-1.9 0-1.4-.1-3.2 0-4.2.2-1.3.2-2.8.4-4.2.2-1.4 0-2.9 0-4.7 0-2.4 0-4.3.2-6.6 0-2.4.2-2.9.2-5.1v-3.7c0-1.4.3-3.4.2-4.3-.3-1.2-.5-1.1-1-1.1m-1.4 22.1c-.4.3-1.2.4-1.4.4-.5.1-.9-.5-1.3-.5-.5-.1-1-.3-1-1 .1-.7.5-.9 1-.9.3 0 .4-.4.8-.5.2 0 .7.3.9.3.5-.1 1.2-.1 1.3.7-.1.3 0 1.3-.3 1.5M204.4 265h1.6v.1l-.2 2.1c-.1.6-.4 1.3-.8 1.1-.4-.1-.6-.7-.6-1.3v-2M209.3 288.1c0 .9.3 1.7.3 2.6 0 .8-.3 1.8-.3 2.6 0 .7-.1 2.2-.6 2.2-.2 0-.4.5-.6.1-.2-.4-.5-1.7-.5-2 0-.3 0-.9-.1-1.3-.1-.7-.2-1.4-.3-2.4 0-1.2.3-7.5.4-8 .1-1-.1-1.8-.1-2.9 0-1.1.1-2.5.1-3.7 0-.4-.3-1.8-.3-3.1 0-1.2.3-2.7.3-3.1 0-1.1-.1-1.5-.1-2.6 0-.5 0-1 .1-1.5h1.6c0 .1.1.3.1.5.1.8-.1 1.8-.1 2.6 0 .6.4 2 .4 3.4s-.2 2.7-.2 3.3c0 1.4.4 2.7.4 4.1 0 1.1-.3 2.2-.3 3.3 0 1 .2 2.1.1 3.1-.2.8-.3 1.8-.3 2.8M209.5 350.6c0 .3 0 3.3-.1 6.9h-.1l-2.4-1.2c.1-.8.1-1.6.1-2.4 0-1-.3-2.1-.3-3.1 0-1.2.3-2.3.2-3.5 0-1.7.3-2.9.3-4.4 0-1.2-.1-2.7-.2-4 0-1.2-.4-2.6-.4-3.8 0-.8.3-2.1.3-2.9 0-1.1-.2-2.1-.2-3.2 0-.8.3-1.7.3-2.4s0-1.7.5-1.7.9.9.9 1.6c.1 1 .3 1.9.3 2.9s-.4 2-.3 3c0 1.1.2 2.3.3 3.4.1 2.1-.1 2.8.3 3.6.2.4.6 3.4.3 4.4-.3.9.1 6 .2 6.8M95.5 166.8c-1.1.9-1.5 1.6-2.3 2.1-.1 0-.1.1-.1.1-.1-.9-.2-1.8-.2-2.6.1 0 .1-.1.2-.1.7-.5 1.3-.2 2.3-1 .5-.4.9-.4 1 .1 0 .4-.4 1-.9 1.4M99.1 158.5c-.3.2-.5.4-.6.5-.2-.2-.4-.4-.7-.5-.1 0-.3-.1-.5-.1h-1.2c-.3 0-.6 0-.9-.1-.8-.3-2.3-.7-3.2-.8-.1-1-.1-2.1-.2-3.1h2.7c-.8.5-1.2.8-1.1 1.5.1.4.3.7.8.8.2 0 .4.1.7.1.6 0 1.6-.1 2.6-.1-.1.1-.2.3-.2.4-.1.4 0 .8.4 1.1.3.2.7.3 1.4.3M108.2 180.2c-.4.5-.5.9-.7 1.3 0 .1 0 .1-.1.1H105c0-.1 0-.1.1-.2.2-.4.9-.6 1.4-1.3.4-.5.8-1 1.3-1 .6.1.7.6.4 1.1M108.7 173.8c-.4.4-.4.6-1 1.1-.7.5-1.2.5-1.5.8-.7.6-2 1.3-3.1 1.5-.6.1-.9 0-.9-.2h-.2c-1 0-4-.9-5-1.2l-.3-.1c-.8-.2-2.1-.4-3-.4h-.1c-.2-1.5-.3-3-.4-4.5l.3-.3c.1-.1.2-.2.3-.2.6.1 2.1.1 3.7.2.7-.6 1.2-1.5 1.7-1.8.7-.4 1.3-.2 2.3-1 .5-.4.9-.4 1 .1.1.5-.3 1.1-.8 1.6-.5.4-.9.8-1.3 1.2v.1h-.1c-.3.3-.6.6-1 .8-.5.3-1.2.5-1.9 1.1-.4.3-.7.3-.9 0 0 .1 0 .1.1.2-1.1.1-1.5.2-1.7.6-.2.3-.2.6-.1.9.2.5.4 1 6.6 1 1.2 0 2.2-.4 3-.7.6-.4.8-.4 1.6-.8s1.5-.8 2.2-.8c-.3-.6-.4-1.5-.4-2.4 0-.8 0-1.1-.1-1.8 0-.3-.2-1.3-.3-2.2-.1-.9 0-1.9 0-2.2-.1-.8-.2-1.8-.2-2.6 0-.6-.9-1.5-1.2-2.1-.1.1-.3.1-.3.1-.4-.1-.9-.5-1.2-.7l-.1-.1c-.4-.3-.9-.3-2.9-.5h-.2.9c.4 0 .8 0 1.1-.1h.2c.3 0 .6 0 .8.1-.5-.3-1-.9-1.2-1.1-.4-.4-.4-.9.2-1.1.6-.2 1.4.1 1.8.5.2.2.5.1.9.4.4.3.4.6.6.8l.1.1c0-.1 0-.3-.1-.4l-.2-2.7c.1-.1 0-.1 0-.9v-2.6c0-.3.1-1.1.1-1.4.1-.3.2 0 .3 0 .2 0 .3 1 .3 1.5 0 .6.2 1.3.2 1.8v1.8c0 .6.2 1.4.2 2 0 .7 0 1.5.1 2.2.1.8.2 1.6.3 2.3.1 1 0 1.9 0 2.9 0 .4.2 1.3.3 2.3.1 1-.1 2 0 2.4.1.5.2 1.2.2 1.8 0 .3-.1.7-.1 1.1 0 .2 0 .4.1.6h.2c1.2.2.7.4.1 1M114.1 181.6h-1.7c-.1-.5-.2-1-.3-1.4-.1-.7 0-1.4-.1-2.1 0-.3-.2-.9-.3-1.6-.1-.7.9-.3.9.3.1.7 0 1.4 0 1.6.1.6.2 1.3.3 1.9.1.3.9.9 1.2 1.3M115.7 171.6c-.7-.2-.8.3-1.1.3-.4 0-1-.5-1.8-.7-.6-.1-1.2-.3-1.5-.7-.2-.5.1-.8.6-.6.6.1 1 .1 1.3.1.5 0 .8.2 1.8.4.6.1 1.3.5 1.6 1s-.3.3-.9.2M120.3 180.4c-.1 0-.2.1-.2.1-.1-.1-.3-.3-.4-.3h-.5c-.2 0-.4.1-.5.3-.2.2-.2.5-.2.7 0 .1 0 .1-.1.2v.2h-.2c-.1-.1-.1-.2-.2-.2-.3-.6-.3-1.1-1.1-1.8-.5-.4-.5-.9-.1-1.1.5-.2 1.2.2 1.6.6.9.6 1.4 1 1.9 1.3M135.6 172.8c-.1.2-.1.4-.1.5-.2.2-.2.5-.1.7.1.2.2.3.3.4v.3s0 .1.1.1h-.2c-.3 0-.5.2-.6.4h-.3c-.1 0-.3 0-.4.1 0 0-.1 0-.1.1-.1-.1-.2-.1-.3-.1-.3 0-.4.1-.6.3-.1-.2-.2-.3-.3-.4-.1 0-.2-.1-.3-.1-.1 0-.2 0-.3.1-.2 0-.4.2-.5.4-.1.2-.1.5-.1.8 0 .1.1.3.1.4v.2c-.1.1-.1.1-.2.1h-.3c-.2 0-.3.1-.5.2-.1 0-.2-.1-.3-.1-.1-.1-.2-.1-.4-.1.2-.3.4-.6.3-.9-.1-.5-.5-.9-1-.9-.4 0-.8.1-1.3.2-.3.1-.5.1-.8.2h-.2c0-.2-.1-.3-.2-.5s-.4-.4-.9-.4c-.2 0-.5.1-.8.1-.3.1-.6.1-.9.1h-.3c.8-.7 1.6-1.7 1.5-2.4-.1-.5-.5-.8-1-.8h-.1c-.4 0-1 .2-1.5.3l-1.2.3c-.2 0-.5.1-.9.1h-.4c.2-.2.3-.5.4-.8.1-.4-.1-.8-.4-1.1-.3-.2-.6-.3-1.1-.3h-.5c-.1-.3-.3-.4-.4-.5-.2-.1-.4-.2-.7-.2h-.2c.1-.1.2-.3.2-.5-.1-.1-.2-.1-.4-.2-.4-.2-.8-.3-1.2-.6l-1-1c-.4-.4-.9-.4-1.3-.8-.6-.5-.9-1.3-1.1-1.5-.3-.3-.7-1.5-.6-2 .1-.5.3 0 .7.2.3.3 1.1 1.1 1.2.9.3-.3-.2-1.8-.1-2.1.2-.5.4-.5.7-.2.2.2.4.6.6 1.5 0 .2.2.5.4.9.1.3.2.8.3 1.1.1.3.2.5.3.7.2.4.5 1 .9 1.3.3.3.4-.2.2-1.2-.1-.5-.1-1.2.2-1.3.3-.1.7.5.8 1 0 .2.1.3.2.6.1.4.2.9.3 1.3.1.4.2.8.2 1.1v.1c.7.3 1.3.6 1.8.6.7 0 1-.4 1.1-.6.1-.3.1-.5 0-.7.1 0 .2-.1.3-.1.8-.5.8-1.4.8-2h.3c.1.1.2.1.4.1 0 0 .1 0 .1.1.2.2.5.3.7.3h.2c.1 0 .1 0 .2.1s.3.2.4.2c.3 0 .5-.1.6-.2.2-.1.3-.3.3-.6 0-.1.2-.6.2-.6s.1 0 .2.1l.1.1c.1.1.2.1.3.2-.1 0-.2.1-.2.1-.1 0-.4.5-.4.7 0 .2.1.3.3.4.2.2.5.3.8.3.2 0 .3 0 .5-.1s.4-.1.7-.1c.1.1.3.1.4.1s.3 0 .4-.1c.2-.1.4-.3.6-.4h.5c.2 0 .5 0 .7-.1h.3c.4 0 .7-.1 1-.2l.2.2c.1.1.3.2.4.2h.1c0 .1.1.2.2.3 0 .1.1.2.1.2.1.1.2.3.3.4-.1 0-.1 0-.1.1-.2 0-.4.2-.5.4-.1.2-.1.4 0 .5s.2.3.4.4h.1c.1.1.3.2.5.2.1 0 .2.1.4.1.1 0 .3 0 .4-.1v.1h-.4c-.1 0-.3.1-.4.3 0 0-.1 0-.1.1-.4 0-.8.3-.9.7 0 .1-.1.2-.1.3 0 .4.3.6.4.7 0 .3.3.5.5.5h.4c.1 0 .2.1.3.1H135.2c.1 0 .1.1.2.1.1.1.3.1.4.1h.2c-.3.2-.4.3-.4.4M151.1 161.4c-.1 0-.2.1-.2.2l-.2.1c-.6.1-1.1.4-1.6.7-.3.2-.6.5-1 .7-.1-.1-.1-.1-.2-.1s-.1-.1-.2-.1-.1-.1-.2-.1c-.1-.1-.2-.2-.3-.5 0-.1-.1-.2-.1-.3v-.1c-.1-.2-.2-.3-.3-.5-.1-.2-.2-.3-.3-.5 0-.2-.1-.4-.3-.5-.1-.1-.2-.3-.3-.4 0 0 0-.1.1-.1h.3c.2 0 .3 0 .4-.2 0 0 0-.1.1-.1H148.8c.1.1.2.1.3.1h.4c0 .1.1.3.1.4 0 .1.1.1.1.1h-.1c-.2 0-.4.1-.5.2-.2.2-.2.6 0 .8.1.1.2.2.4.3l.2.2c.1.1.3.1.4.1h.1c.1 0 .3-.1.4-.2.2-.2.3-.2.5-.2M155.8 151.1c0 .3.1 1.8 0 2-.1.2-.3.3-.6.2h-.1c-.2.1-.4.2-.6.4h-.1c-.4 0-.6.2-.7.3-.1.1-.2.3-.2.5s.1.4.3.5c.2.1.4.2.6.2.2 0 .3 0 .4-.1-.3.3-.4.5-.5.8l-.1-.1c-.1-.1-.2-.2-.4-.3-.1-.1-.2-.1-.3-.1-.2 0-.3.1-.4.2-.1.1-.1.2-.2.3-.1-.1-.2-.1-.3-.2h-.2c-.3-.2-.6-.2-.8-.3h-.1c-.1 0-.2-.1-.3-.1-.2 0-.4.1-.5.2v.1l-.1.1c-.1-.1-.3-.2-.4-.2h-.1l-.1-.1c.2 0 .3-.1.4-.1.2 0 .4-.1.5-.3h.1s.1-.1.2-.1c.1.1.3.1.4.1h.1c.2 0 .3-.1.4-.3.2-.3.5-.5.9-.7h.1c.5-.3.7-.7.8-1.1v-.1h.4c.1.1.2.1.3.1-.1-.2-.1-.5-.2-.6-.3-.2-.2-1-.3-1.2-.1-.1-.4-.3-.7-.5-.3-.2-.5-.6-.7-.7-.4-.3-.6-.6-.4-.9.2-.4.8-.1 1.2.2.3.2.5.3.6.1.2-.2.2-.6 0-.9-.2-.3-.6-.6-1.1-.9-.3-.3-.6-.7-.9-.8-.4-.3-.9-.8-.7-1.1.2-.4 1-.2 1.4.1.6.3.9.4.9.3.1-.2-.3-.9.4-.9.5 0 .7.4.8.8.1.4.4.9.5 1.3.1.4 0 .8.1 1.2 0 .3 0 .5-.1.8.2.3.7.6.4 1.9M156.2 120.4c-.3.3-.5.1-.8-.4-.2-.3-.5-.4-.7-.8-.1-.2-.3-.6-.4-1-.3-.5-.3-1-.1-1.3.3-.3.4-.1.7.3.1.3.5.5.7.8.1.3.2.8.4 1 .4.6.5 1.1.2 1.4M156.3 179.6c-1.5 1.5-.6.3-2.7.6-1.7.2-1.3-.2-1.1-.4.1-.1.1-.2 0-.2-.1-.1-.3-.2-.5-.2-.4 0-.8.2-1.1.6-.1.1-.1.2-.1.3h-.1s-.1-.1-.2-.1c-.1-.1-.2-.1-.4-.1s-.4.1-.6.3c0 0-.1.1-.2.1h-.7c-.2-.3-.5-.5-.8-.5-.1 0-.2 0-.3.1-.1.1-.3 0-.3-.1s-.1-.1-.2-.1h-.4c-.5 0-1-.1-1.5 0-.9 0-1.8 0-2.1-.2-.4-.2.6-.4 1.5-.4.4 0 1.1-.2 1.9-.3h.2c-.1-.1.1-.2.2-.2-.1-.1-1.4-.5-2.1-.5-.8 0-1.4-.1-1.7-.3-.3-.3.5-.3 1.3-.4.7 0 1.8-.8 1.8-.8h-.1c-.9 0-1.8 0-2.1-.3-.3-.3 1.5-.9 1.3-1v-.2c0-.2-.1-.4-.3-.5-.2-.1-.2-.1-.3-.3.3 0 .7 0 1 .1.2 0 .5.1.7.1.1 0 .3.1.4.1.3.2.6.3.8.3h.1c.3 0 .6-.3.7-.6.1-.3-.1-.6-.4-.8l-.3-.1c-.1-.2-.2-.4-.4-.4 0 0-.2-.1-.4-.1H145.7l-.2-.4c.2-.1.3-.3.4-.5 0-.1.1-.1.1-.2.2-.1.4-1 .4-1 .2-.1.4-.1.4 0v.2c0 .3.2.5.4.6.1 0 .2.1.3.1.2 0 .3-.1.4-.2.2-.2.5-.3.5-.1V172.5c0 .3.1.6.4.7.1 0 .2.1.3.1.2 0 .3-.1.5-.2.3-.3.4-.6.3-1v-.2c0-.2 0-.6-.1-.8 0-.1-.1-.2-.1-.3-.3-.4-.4-.8-.1-1.1.2-.3.6 0 .8.4.3.4.5.7.7 1 .1.2.2.4.3.7.1.2.2.4.4.6.2.1.3.3.5.4l.4.4h.1c.1.1.2.2.4.3 0 0 .2.1.2.4 0 .2.1.3.2.5v.4c0 .1.1.3.2.4 0 .1.1.1 0 .1 0 .1-.1.3 0 .4 0 .2.1.3.3.5 0 .1 0 .2.1.3.1.3.3.4.5.5h.1v.2c0 .2.1.3.3.4 0 .1 0 .2.1.3.1.2.2.3.3.3h.1c.5-.2 2 0 .7 1.4M161.7 175.4c0 .1 0 .2-.1.4 0 .1-.1.2-.1.3 0 .1 0 .1-.1.1-.3 0-.7.1-1.1.3 0-.2 0-.3-.2-.4l-.1-.1c-.1-.1-.1-.1-.2-.1-.1-.1-.1-.3-.1-.6 0-.2 0-.3-.1-.4v-.1c.1-.1.1-.4 0-.6v-.4c0-.1.1-.1.1-.2v-.2c.1-.1.3-.1.7-.3l.2.2c.1.1.3.1.4.1h.2l.2.2c0 .4 0 .8.1 1.1-.1.2-.1.4-.1.6v.1c.2-.2.3-.1.3 0M162.3 140.6c-.2 0-.4.1-.5.3-.2.1-.4.2-.4.4-.1 0-.2-.1-.3-.1h-.2c0-.1-.1-.2-.2-.3-.1-.1-.3-.2-.4-.2h-.4c0-.1 0-.2-.1-.3-.2-.3-.4-.4-.7-.4 0-.1 0-.1-.1-.1.1 0 .1 0 .1-.1 0 0 .1 0 .1.1h.2c.1 0 .3-.1.4-.1.1.1.1.2.3.3.1 0 .2.1.3.1l.2.2c.1 0 .2.1.4.1.1 0 .4 0 .6-.3 0 0 .1 0 .1-.1.2.2.4.3.6.5M162.5 154.8h-.2c-.2 0-.4.2-.5.4-.1 0-.3.1-.4.2-.1.1-.2.3-.2.5v.2c-.1 0-.2-.1-.4-.1H160.5c-.1 0-.2 0-.2-.1h-.2c-.1-.2-.3-.3-.5-.3h-.2c-.1 0-.2.1-.3.2h-.2c0-.1 0-.2-.1-.3l.1-.1c.2 0 .4-.2.5-.4.3-.2.7-.4 1.1-.5l.3-.1c.1-.1.3-.1.3-.1h.1c.4 0 .7.2 1.1.4.1 0 .2.1.2.1M165.9 168.1c-.1.1-.3.1-.4.2-.1.1-.2.1-.4.2-.3.1-.6.2-.9.4-.1 0-.2.1-.4.1-.1 0-.1-.1-.1-.1-.1-.1-.3-.2-.5-.2h-.2c-.1 0-.1-.1-.2-.1h-.1c-.3-.1-.5-.2-.7-.2-.3 0-.5.1-.7.2-.1 0-.1.1-.2.1s-.1.1-.2.1c-.3-.1-.7-.1-.9-.1h-.3c-.2 0-.3 0-.5.1v-.1h.3c.3 0 .5-.2.6-.4.1-.2 0-.5-.1-.7-.2-.2-.5-.3-.7-.3h-.1V166H159.5c.3 0 .5-.2.6-.4v-.1c.1 0 .2.1.3.1.1 0 .2.1.2.1l.1.1c0 .1.1.2.2.2.1.1.1.2.3.3 0 .1.1.2.2.3.1 0 .1.1.2.1v.1c0 .1.1.2.1.2 0 .2.1.3.3.4.1.1.2.1.3.1.1.1.2.1.3.1H162.9c.1 0 .1-.1.2-.1l.1-.1c.1 0 .4-.1.5-.3.1-.1.1-.2.2-.3.1 0 .2 0 .2-.1.1 0 .2-.1.3-.1.2-.1.3-.1.5-.1.1 0 .3-.1.4-.1v.1c0 .1 0 .1.1.2v.1c-.1.2 0 .4.1.5.1.1.1.2.3.2 0 .3.1.4.1.6M167.1 130.3s0 .1-.1.1h-.1c-.1 0-.2-.1-.3-.1h-.1c-.1-.1-.2-.1-.3-.1-.1-.1-.2-.2-.4-.3l-.3-.2c.1 0 .3 0 .4-.1.2 0 .3-.1.4-.2.1-.1.1-.2.1-.3.1-.1.1-.3.1-.4 0-.2-.2-.4-.3-.5h-.1c-.1 0-.2-.1-.3-.1-.1 0-.3 0-.4.1-.1.1-.3.1-.6.1-.2 0-.4 0-.6.1-.1 0-.3.1-.3.2-.1.1-.2.2-.3.4l-.1.2c-.1.2-.2.5-.3.8-.1 0-.3.1-.3.3h-.5c-.1 0-.2.1-.2.2h-.1c-.1 0-.1.1-.2.1h-.2c-.2 0-.3.1-.5.2-.1.1-.2.1-.4.2h.2c-.1 0-.3 0-.5.1h-.1c-.1-.2-.3-.3-.6-.3h-.1c0-.1-.1-.3-.1-.4l-.2-.2c0-.1-.1-.1-.1-.1.1-.1.1-.1.2-.3H159.8c.1.1.3.2.4.2.1 0 .2 0 .3-.1h.1c.1 0 .2.1.3.1.1 0 .2.1.3.1H162.1c.1 0 .2 0 .3-.1.1 0 .1-.1.2-.1s.3-.1.3-.2c.2-.1.3-.2.4-.3.1 0 .2-.1.2-.2.1-.2.2-.4.1-.6v-.1c.3-.2.5-.5.6-.7.1-.1.3-.2.4-.4.2.1.4.2.6.2.2 0 .4-.1.6-.2.1 0 .2.1.3.1.2 0 .3.1.5.1-.1.1-.1.2-.1.4s.1.3.2.5c.1.1.3.2.5.2h.2c-.1.1-.3.2-.3.3v.1c-.1.1-.1.3-.1.4v.4c0 .2 0 .3.1.4-.2-.2-.1-.1 0 0M172.1 166.7c-.2-.1-.3-.2-.5-.2h-.2c-.1 0-.3.1-.4.1-.1.1-.2.3-.3.4-.1.1-.1.3-.1.4-.1.1-.1.3-.1.4l-.1.1c-.1.1-.1.2-.1.3-.1 0-.2.1-.3.1h-.1l-.1-.1-.3-.3c-.1 0-.2-.1-.3-.1h-.5c-.4 0-.6.1-.7.3-.1 0-.1-.1-.2-.1s-.2-.1-.2-.2c-.1-.2-.1-.4-.2-.6-.1-.2-.1-.3-.2-.5 0-.3-.1-.5-.2-.6v-.1c.2.1.3.1.4.1.2 0 .4-.1.5-.2l.1-.1h.1c.1.1.2.1.3.1 0 .1.1.2.1.2l.1.1c.1.1.2.2.3.2.1 0 .1.1.2.1l.1.1c.1.1.2.1.3.1h.4c.3 0 .6-.3.6-.6 0-.1 0-.1.1-.2.2-.1.4-.2.5-.4.2.1.4.2.5.3v.1l.2.4c.1.2.2.3.3.4M174.2 163.6h-.2c-.1 0-.2 0-.3.1-.1 0-.1 0-.2.1h-.2c0-.2-.1-.4-.2-.5-.1-.2-.2-.4-.4-.4h-.2c-.2 0-.4.1-.6.4-.1.1-.1.3-.1.4l-.1.1-.3.3c0 .1-.1.2-.1.3-.2-.1-.5-.3-.7-.3-.1 0-.2-.1-.2-.1-.1-.2-.3-.3-.5-.4-.1 0-.1 0-.2-.1 0 0 .1 0 .1-.1h.2c.3 0 .5-.2.6-.5v-.3h.1c.1 0 .1-.1.1-.1.1 0 .1.1.2.1h.2c.1 0 .2 0 .3-.1H172.1c.1.1.2.2.4.3l.1.1c.1.1.3.1.4.2.1.1.3.2.5.2 0 .1.1.2.2.3.2-.1.4 0 .5 0M178.2 164.3c-.4.3-.6.6-.8.8 0 0-.1 0-.1.1h-.2c-.1-.2-.3-.4-.6-.4-.2 0-.4.1-.5.3 0 0-.1 0-.1.1H175.6v-.1c.1-.2.1-.4 0-.6-.1-.1-.1-.2-.2-.3h.3c.1 0 .2 0 .3.1.1.1.3.2.4.2h.5c.3 0 .5-.2.6-.4v-.3l.1.1c0 .1.1.2.2.3.1 0 .3.1.4.1"/><path class="st0" d="M188.6 173.2c-.1.6 0 1.2-.2 1.7 0 .4 0 .7-.3 1.1-.1.3-.2.5-.4.6-1.1 1.3-2.6 1.9-3.8 3.5-.5.7-1.1 1.2-1.6 1.6H160c0-.1-.1-.2-.1-.2v-.9c0-.4 0-.8.1-1.1.1-.2 0-.4 0-.6V178.6s0-.1.1-.1c.2-.1.4-.2.6-.2.1 0 .3-.1.3-.2l.1-.1s0 .1-.1.1c-.1.2-.2.4-.1.6v.3c.1.2.2.4.4.4.1.1.3.2.4.2.1 0 .2 0 .3-.1.3-.1.4-.4.3-.7v-.2c0-.1 0-.1.1-.2 0-.1.1-.2.1-.3H163.1c.1 0 .1-.1.2-.1s.1.1.2.1h.2c.1 0 .3 0 .4-.1.1 0 .1.1.2.1.1.1.3.2.6.2h.1c.1 0 .2 0 .3-.1h.1c.3.1.6.1.8.3.1.1.3.1.4.1h.1l.6.3c.3.2.6.5.9.8l.3.3c.2.2.5.5.9.6.6.2 1 .6 1.4.9.2.2.4.3.6.3.1 0 .3 0 .4-.2h.4c.3 0 .6-.2.8-.5v-.3c.5 0 .9-.3 1.2-.3.6 0 1.3-.1 1.1-.6-.2-.4-.7-.5-1.3-.5-.3 0-.6-.1-1-.2s-1 .1-1.5.2c-.3 0-.5 0-.7.1-.1 0-.1-.1-.2-.1h-.1c-.5-.2-.9-.4-1.2-.8-.3-.5-.7-.7-1.1-1-.1 0-.2-.1-.3-.2-.1-.1-.2-.1-.3-.2 0-.1-.1-.3-.2-.4-.1 0-.1-.1-.1-.1-.1-.1-.3-.1-.4-.1-.1 0-.2 0-.3.1h-.2c-.2-.1-.4-.1-.6-.1-.1 0-.2 0-.3-.1-.1-.2-.3-.3-.5-.3-.1 0-.3 0-.4.1-.1 0-.1 0-.2-.1-.1 0-.1-.1-.2-.1h-.8c.1-.1.1-.3 0-.4 0-.1-.1-.2-.1-.3-.1-.2-.1-.4-.1-.5.1-.3 0-.5 0-.7V173.9c0-.3-.1-.5 0-.7v-.1c.1-.1.1-.1.1-.2.1-.2.1-.4 0-.6H163.9c0 .1.1.3.2.4.1.1.3.2.4.2h.4c.1 0 .3-.1.4-.2h.2l-.1.1s0 .1-.1.1v.4c0 .1 0 .1.1.1v.1c0 .2.1.3.2.4.1.1.3.2.5.2s.4-.1.5-.2l.2-.2c.1-.2.3-.3.4-.4l.2.2c.1.1.3.2.4.2.3 0 .5.1.6.3.2.2.4.3.6.4.1 0 .1 0 .1.1.2.1.4.2.5.3.1.1.2.1.3.2.1.1.3.2.4.2.2.1.3.2.5.3.1 0 .1.1.2.1.4.5 1 .6 1.4.8.1 0 .2 0 .3.1.1.1.3.2.5.2.1 0 .2 0 .3-.1.2-.1.4-.3.4-.6 0-.2 0-.6-.6-.8-.1-.2-.3-.3-.7-.3-.2 0-.4-.1-.7-.3-.2-.2-.5-.4-.8-.6-.1-.2-.3-.3-.3-.3-.1 0-.1-.1-.2-.1s-.1 0-.2-.1c.1 0 .3-.1.4-.1h.3c.5 0 1-.1 1.4-.3.1.3.4.4.7.5.4.1.4.3.8.3.5 0 .8-.4 1-.6l.1.1c.1.1.3.2.4.2 0 .1.1.3.1.4.1.2.1.5.1.7-.6.5-1.3 1.8-.9 2 .2.2 2 .1 2.4.1.4 0 .6 0 .6.1.1.2.1.3 0 1 0 .1.1.2 0 .7-.1.7-.1 1.2.3 1.4.5.2.7-.1.9-.8l.5-1.5c.2-1.2.4-1.2.7-1.4.1-.1.2-.2.6-.4.2-.1.4-.1.6-.2.2.3.5.6.8.3.2-.2.2-.5.1-.7.1-.1.2-.2.3-.4.1-.2 0-.4 0-.5.1-.3.2-.7 0-.9-.2-.2-.5-.1-.7-.1-.1 0-.1 0-.2-.1.3 0 .5-.1.7-.3h.1c.1 0 .1 0 .2-.1.2-.1.3-.2.4-.4v-.2c.3-.5.1-.8 0-1-.1-.1-.3-.2-.4-.3.1 0 .1-.1.2-.1.2 0 .4-.3.5-.2.2-.1.5.3.6.4.5.1.5.5.4 1.2-.1.6-.2 1.2-.2 1.7-.1.9-.6 2.8-.5 3 .2.4.8-.3 1.6-.7.4-.2 1-1.7 1.3-2.5.1-.4.5-.8.6-1.4.1-.7.3-1.2.3-1.5 0-.7.6-1.6 1.1-1.6.5-.1.5.5.6 1.3-.4.8-.4 1.7-.6 2.6M187.6 154.2c.8 0 1.3-.7 1.5-1.7.2-.8.1-1.3 0-1.1-.3.2-.2 0-.5 0s-.7.4-1.1.5c-.4.1-.9 0-1.5.3-.2.1-1.2.4-1.6.3v.1c0 .2-.1.3-.2.4-.4.3-.5.4-.8.4.1.2 0 .4 0 .5v.1c0 .2-.1.4-.3.5-.1.1-.2.1-.3.1h-.4c-.2.1-.3.1-.4.1-.2 0-.3 0-.5-.1h-.2c-.2 0-.5 0-.7-.3-.1 0-.1 0-.2-.1-.1 0-.3-.1-.4-.2h-.1s0 .1-.1.1l-.1.1c0 .2-.1.3-.2.5-.1.1-.3.2-.5.2h-.2c-.1.1-.3.4-.6.4h-.1c-.1 0-.3 0-.4-.1-.2-.1-.3-.3-.4-.4l-.2-.2c-.2-.1-.3-.2-.4-.4-.1-.1-.1-.2 0-.4v-.5c-.1-.2-.3-.4-.4-.6l-.1-.1c-.1-.2-.3-.4-.4-.4-.2-.1-.3-.3-.4-.5-.1 0-.2-.1-.3-.2-.2-.1-.4-.3-.6-.4-.1 0-.2-.1-.2-.1 0 .1-.1.3-.2.4-.1.1-.3.1-.4.1h-.1c-.3-.1-1.5-.6-1.8-1-.1-.1-.2-.2-.4-.3-.4-.2-.9-.4-1.3-.5l-.4-.2c-.2 0-.3-.1-.4-.1h-.4c-.1 0-.3 0-.5-.1l-.2.2c-.1 0-.1 0-.2.1 0 .1-.1.1-.2.1 0 0-.1 0-.1.1-.1.1-.3.2-.4.2-.2 0-.3-.1-.5-.2-.1-.1-.1-.2-.2-.3-.1.1-.3.1-.4.1H165.9v.5c.3.6 0 1.2-.1 1.5-.1.2-.3.3-.5.3h-.1c-.2 0-.4-.1-.5-.2l-.1-.1c-.1-.2-.2-.5-.1-.7s.1-.3 0-.4c-.1-.2-.1-.4-.1-.6-.1 0-.1.1-.2.1H163.9c-.2 0-.3 0-.5-.1h-.2c-.2.1-.4.1-.5.2l-.9.3c-.2.1-.3.1-.4.1h-.1c-.2 0-.3.1-.4.2-.1.1-.2.1-.3.1h-.4c-.5.2-1 .3-1.4.5-.1 0-.1.1-.2.2l.1.1c.1.1.1.4 0 .7-.1.2-.1.4 0 .7 0 .2.1.4.1.6.4-.2.9-.4 1.4-.6.3-.1.6-.2.9-.2.1 0 .2 0 .3-.1h.2c.2 0 .4.1.5.1.3.1.6.3.9.4h.2c.1 0 .4 0 .7.2h.1c.3 0 .5.1.8.1.1 0 .3.1.4.1.1 0 .3.1.4.1.1-.1.3-.1.4-.1h.1c.2 0 .3.1.4.3.1.1.1.3.1.5V154.7l.1.1h.2c.3 0 .6.2.7.5 0 0 0 .1.1.2.4.3.9.5 1.2.6H169.2c.3-.1.5-.2.7-.3 0 0 .1 0 .1-.1-.2-.1-.5-.2-.7-.4-.1 0-.3-.1-.3-.2-.1 0-.1-.1-.1-.1-.1-.1-.2-.2-.3-.4-.1 0-.2-.1-.3-.2-.1-.1-.2-.2-.3-.4v-.1c-.1-.2-.2-.5-.1-.7 0-.1-.1-.2-.1-.3-.1-.3.1-.5.1-.6.1-.2.3-.3.6-.3h.2c.1 0 .1 0 .2.1l.1-.1c0-.1.1-.3.2-.4.1-.1.2-.2.4-.2h.1c.2 0 .4.1.5.2.1 0 .2.1.2.1.1.1.3.3.3.5h.4c.3 0 .6.1.8.3.1 0 .1.1.1.2.1.1.1.3.1.4v.2s.1 0 .1.1l.1.1c.1.1.2.2.2.4v.4c.1 0 .3.1.4.2.1 0 .2.1.3.2h.1c.2 0 .4.2.5.4 0 .1.1.2.1.3.1.1.1.2.1.3 0 .1-.1.2-.1.3.1.1.1.2.2.3h.1c.2 0 .4.1.5.2 0 0 0 .1.1.1 0 0 .1 0 .1.1.1-.1.3-.2.5-.2s.3.1.4.1l.1.1H176.5c.4 0 .7.2.8.4.1.2.2.4.1.6h.5c.1 0 .2 0 .3.1.2.1.3.3.4.4.1.1.3.2.3.4h.1c.1 0 .2 0 .3.1.4.2.6.5.6.7.2 0 .4.2.4.4.1.3-.1.6-.3.8-.1.1-.2.3-.4.4 0 0 0 .1.1.1v.1c.2.1.3.3.3.6 0 .2 0 .3-.1.4l.2.2c.2.1.3.2.4.4.1.2.1.4.1.5v.1c0 .3 0 .5-.2.7.1 0 .2 0 .2-.1.4-.3.9-.1 1.1.5.2.6.1 1.3-.2 1.6-.3.3-.7.5-1 .8.1.1.2.2.3.4s.3.8-.3 1.2l-.1.1c0 .1-.1.1-.2.2v.1c0 .1-.1.2-.2.3-.1.1-.3.3-.6.3-.1.1-.2.1-.3.1h-.8c0 .1-.1.2-.1.4v.1c.5-.2.9-.4 1.4-.5.8-.2 1.4-.9 2.1-1.3.6-.4 1.2-.5 1.8-.8.1 0 .2-.1.4-.1.8-.4 1.6-.9 1.8-1.4.8-1.3.5-1.6 0-1.6-.6-.1-1.4.4-1.8.6-.5.2-.8-.1-.9-.8-.2-.7.1-1.2.6-1.4.6-.3 1.1-1.3 1.8-1.6.4-.2.8 0 1.2-.2.1 0 .2-.1.2-.2.1-.1.7-.4 1.3-.8.9-.5.6-.3.8-1.7.2-1-.1-.6-.8-.6-.3.1-1-.1-1.4-.3-.3-.2-.2-.7-.1-1.2-.3-1.3.6-2 1-2m-2.3 1.8c-.1.4-.1.6-.2.9-.1.3-.3.7-.7.8-.4.1-.8.4-1.1.4-.5-.1-1.1.1-1.2-.7-.1-.9.7-1.6 1.1-1.9.3-.2.3-.1.7-.3.4-.2.8-.1 1 .1.3 0 .5.2.4.7M190.9 162.8c-.2.2-.3.6-.4.7-.5.4-.8.6-1.3 1-.2.1-.3 0-.5.1-.4.3-1.1.2-1.3-.4-.1-.7.2-1.1.7-1.3.2-.1.4-.5.5-.5.5-.3.6-.4 1-.7.3-.1.6-.3.8-.4.4-.3.7-.4 1 .2.2.4-.1.9-.5 1.3M193.2 168.4c0 .5-.2 1-.2 1.5-.1.5-.1 1.1-.2 1.6-.1.7-.5 1.3-.6 2-.1.7-.4 1.3-.8 1.2-.4-.1-.5-.8-.4-1.5.1-.7 0-1.4 0-2.2 0-.5.2-.8.3-1.4.1-.4.2-1.1.2-1.5.1-.7.9-1.1 1.3-1 .5.2.5.6.4 1.3M197.4 167.2c0 .7 0 .4-.2 1.5-.1.6-.2 1.5-.3 2-.1.5-.5.8-.6 1.2-.2.7-.3 1-.8.7-.5-.2-.6-.6-.4-1.3.1-.4-.1-.9 0-1.5 0-.4.2-1.3.3-1.9.1-.4.2-.4.4-.8.2-.5.7-1.3 1-1.3.6.1.7.7.6 1.4M199.8 148.1c-.1.7.1.8 0 1.5-.1.6-.3 1-.5 1.4-.2.4-.2.8-.2 1.4 0 .6 0 1-.2 1.4 0 .4 0 .9-.1 1.3s-.3.8-.4 1.2c-.2.4-.2.8-.7 1.3l-.1.1c.1 0 0 .1-.1.1v-.1h-.2c-1.6.3-.7-.8-.9-1.7-.2-.3-1 .3-1.8.5s-1.5.3-1.7.5c-.4.5-1.1.5-1.4.4-.4-.1-.6-.4-.9-.6-.5-.4-.5-.8.8-1.5.9-.4 1.3-.5 1.4-1.1.2-.8.2-1.8-.5-1.6-.3 0-.6-.2-.9.1-.5.4-.7.1-.7-.4 0-.4.2-.9.4-1.4.1-.5.4-.4.8-.5.4 0 .8-.2 1.3.1.2.1.5-.8.7-.9v-.1c.2-.5.2-.6.2-.9 0-.7.6-1.6 1.1-1.6.5 0 .5.5.5 1.2 0 .5-.2 1.2-.4 1.8-.1.4-.2.8-.2 1.1 0 .4-.6 2.1 0 2.4.2.1.6-.1.9 0 .3 0 .6-.2.8-.2.1 0 .2-.1.3-.2.4-.8.7-1.5.9-2.4.2-.8 0-1.5.2-2.3.1-.7.4-1.1.7-1.6.4-.7 1.1.1.9 1.3M203.6 181.6l-1.6.1c0-.2.1-.3.1-.5.1-.7.5-1.4.9-1.2.5.1.7.9.6 1.6M205.3 163.5c0 .3-.1 1.5-.1 2.1-.1 1.5-.1 1.7-1.1 2.3-.5.3-.6-.6-1.1-.2-.3.2-1.4.5-1.8 1-.4.4-.2 1-.5 1.3-1.1.9-1.3-.1-1.3-1.5 0-1 0-1.8.1-2v-1.4c0-.3.3-1 .3-1.3 0-.7.2-1.3.7-1.3.5 0 .6.4.5 1.1 0 .4.3.8.4 1.1v1c0 .7.3.6 1.6-.3.7-.4.5-1.1.6-2.1 0-.4.3-.6.3-.9 0-.8.1-1.2.6-1.2s.6.2.6.9c0 .4.1.9.2 1.4M206.6 133c-.1.6-.4 1.2-.5 1.7-.1.6 0 1.2-.1 1.6-.2.4-.5.6-.7 1-.2.6-.6 1.1-1 .8-.4-.4-.4-.8-.2-1.5.2-.4.1-1.2.2-1.6.1-.4.3-.8.4-1.1.1-.5.1-.9.2-1.3s.4-.9.5-1.3c.1-.7.4-1.1.9-1 .5.2.4.7.3 1.4-.1.3.1.8 0 1.3M207 181.6h-1.8v-.1c.2-.8.4-1.4.5-2 .1-.7.3-1.4.8-1.3.5.2.5 1.1.4 1.8 0 .4.1 1 .1 1.6M209.8 120.9c-.2.8-.3 1.5-.5 1.7-.4.5-1.3.6-1.7.9-.2.2-1.4.7-2.3 1.1-.8.3-1.4.1-1.6 0-.3-.3-.5-.7-.1-1.7.2-.4.2-.9.2-1 .2-.2.2-.9.4-1.1.1-.4.4-.6.4-.8.1-.7.5-1.1.9-.9.4.2.6.8.4 1.5-.2 1.2 0 1.5.5 1.2.2-.2.4 0 .7-.3.2-.3.3-.7.4-.9.2-.3 0 .2.2-.2.1-.3.1-1 .2-1.4.2-.5.5-.8.5-1.1 0-.7.4-.7.9-.7s.4.5.4 1.2c0 .4.3.9.1 1.7-.1.4.1.3 0 .8M209.9 147.2c-.4.4-.9.7-1.1 1-.4.5-.2 0-.6.4l-1 1c-.1.5-.3.5-.3.9s-.1.7-.2 1.2c-.3 1.5-.8 1.9-1.1 1.6-.3-.3-.2-.9-.1-1.2.1-.5.3-1 0-1.8-.2-.4-1.1.5-1.1.5-.3.2-.9.5-1.1.9-.3.4-.1.6-.3 1.1-.1.6-.4 1.1-.5 1.5-.2.7-.5.9-.9.6-.4-.3-.4-.5-.2-1.2.1-.5 0-1.3.1-2 .2-.9.5-1.2.6-2 .1-.5.2-1.3.3-2 .1-.5.3-.9.3-1.3 0-.7.6-1.6 1.1-1.5.2 0 .1.8.1 1.4 0 .5-.1 1.4-.1 1.7-.1.8 1 .7 1.3.4.5-.4.8-.8 1-1.7.1-.6.2-1.4.2-2.2.1-.7.6-1.4 1-1.3.4 0 .3.6.3 1.2 0 .3-.1.9-.2 1.1v.5c0 .5.1.7.2.7s.3-.2.9-.7c.4-.3.2-.5.8-1.1.6-.9.5 0 .5.9.1.7.2 1.3.1 1.4"/><path class="st0" d="M127 153.2c-.7-.5-1.3-.7-1.9-1.1-.8-.5-1.3-1.2-2.3-2.1-.5-.4-1-1-.8-1.5.1-.2.1-.3.2-.3-.1-.1-.1-.3-.3-.5-.2-.3-.4-.5-.4-.7l-.1.1c-.5.2-1 .5-1.7.6.5.1 1 .5 1.2 1.4h.2c.5.1 1.1.2 1.2.9 0 .3-.1.8-.6 1-.1 0-.1.1-.3.1-.9.5-2 1-2.8 1-.3-.4-.6-.8-.9-1.3-.2-.3-.5-1.2-.7-1.5-.5-.8-.9-1.1-1.4-1.8-.3-.5-.7-.9-.9-.6-.2.2-.1.8.3 1.4.6 1 .9 1.9 1 2.5l.2.2.1.1c.5.4.9.8.8 1.4 0 .1-.1.2-.1.3l-.2.2c-.2.1-.4 0-.7-.1-.3-.2-.5-.3-.8-.5-.1-.4-.4-.8-.7-1.1-.1-.1-.2-.2-.3-.2-.2-.1-.2-.4-.6-.7-.1-.1-.3-.2-.4-.2-.2-.1-.4-.1-.6-.2-.1-.1-.3-.2-.4-.2v-.5c0-.3 0-.7-.1-1 0-.3-.1-.5-.1-.8 0-.4.1-1.4 0-2.4s-.2-1.9-.2-2.3c-.1-.9 0-1.6 0-2.5.3.3.5.6.8.8.7.6 1.5.9 2.6 1.6.5.3 1.3.6 1.7.4s.3-.7-.2-1c-.4-.3-.7-.6-.8-.9.1 0 .3 0 .4.1.9.1 2.1.3 2.5.3.4-.1 1.1-.1 1.7-.1.9 0 1.3.1 1.5.2.3.2.6.5.6.9 0 .3-.1.6-.3.8.4.1.7.1.9.1 0 0 3.3 0 3.6 1.4 0 .1.1.9-.8 1.2-.4.2-.9.3-1.4.3.2.2.2.5.5.6.8.2 1.3.9 1 1.7-.2.5-.5.7-1 .8.6.4 1.2 1.5 2 2.1.5.4.9.8.8 1.4 0 .4-.5.6-1 .2m84.1-69.1c-.8-.7-.4-.9-.4-2.2 0-.3-.1-1.3-.1-2.4v-2.2c0-.5.2-1.3.2-1.8 0-.3.1-.6.2-.8L91.4 94.5c-.5.1-.8.5-.8.9-.2 14.3-.1 32.4 1 52.1.2-.1.4-.1.6-.1 1 0 2.8 1 3.3 1.3.1 0 .1.1.2.1v-.4c.1-.4.3-.7.8-.8.2-.1.4-.1.6-.1 1.3 0 3.4 1 3.8 1.3.3.2 1.2.4 1.7.5.2-.3.3-.8.4-1-.3-.1-.5-.1-.6-.1-.7 0-1.7 0-1.9-.8-.1-.3 0-.8.5-1.1.2-.1.5-.2.9-.2s.9 0 1.5.1l-.1-.1c-.7-.8-.3-1 .3-1.6.4-.4.4-.9 1-1.4.2-.2.4-.3.6-.3 0-.1 0-.3.1-.4.1-.4.4-.8.8-1.1.2-.1.1-.4.5-.8l.1-.1c.2-.1.4-.2.5-.3.3-.5.5-.8.6-1.2.1-.4.3-.9.6-1.5.2-.4.2-.7 0-.9-.1-.1-.3-.1-.6-.1-.6.1-1 .8-1.3 1.5-.2.4-.5.8-.8 1.1-.3.3-.5.5-.5.8v.1c-.2.2-.3.4-.5.6-.6.6-1.2 1-1.7 1.4-.5.5-1 .7-1.1.4 0-.3.2-.8.5-1.2-.3.1-.6.2-.8.2-.6.2-1 0-.9-.7v-.1c-.4.3-.8.6-1.4 1-.8.6-1.5 1.3-2.3 1.9-.5.4-1.3.6-1.2.1 0-.5.3-.8.9-1.1.9-.8 1.5-1.4 2.3-2.1.8-.7 1.5-1.5 2.3-2.2.7-.6 1.3-1.1 2-1.7-.3 0-.6.1-1 .2-.1 0-.2.1-.3.1-.4.5-.9 1.1-1.5 1.5-.6.4-.8.3-1.4.5-.9.3-1.6.5-2.2-.3-.7-.8-.3-1 .3-1.6.4-.4.4-.9 1-1.4.4-.3.7-.3 1-.4 0-.2.1-.3.2-.4-.8-.3-1.3-.5-1.5-1-.1-.3-.1-.6 0-.9.3-.8 1.2-.9 2.6-1 .7-.1 1.8-.2 2.2-.4 1.3-.8 3-1.7 4.2-2 .4-.1.8-.5 1.1-.9.3-.3.6-.7 1-.8.3-.1.5-.2.8-.2v-1.1c-.2.1-.4.2-.7.2-.8 0-1.6-.5-1.9-1.2-.3-.1-.7-.2-.9-.7-.3-.8.3-1.2.8-1.5v-.3c0-.2 0-.3.1-.4-.1 0-.1.1-.2.1-.5.3-1.1.4-1.6.1-.4-.3-.4-.8.2-1.1.8-.4 1.2-.9 1.8-1.2.8-.5 1.6-.6 2.9-1.1.2-.1.4-.1.6-.2l.8-8.9c0-.5.4-.8.9-.8 1.1 0 1.2.8 1.3 5 .1 1.6.1 3.1.1 3.8.4.4 1 1 1.4 1.2.3.2 2.1 1.4 2.3 2.6 0 .4 0 .7-.3 1-.4.4-.8.5-1 .5h-.2c-.1-.3-.2-.5-.3-.8-.3-.4-1.2-.8-1.7-1.4-.3-.4-.7-.6-1.1-.4-.4.2-.5.7-.2 1.1.4.5.6.9.8 1.3 0 .1.1.1.1.2.1.2.2.3.4.4.4.4.8.7 1.3 1.2.2.3.6.5.9.5.2.3.4.5.6.7.4.4.8.9.6 1.5-.2.5-.7.6-1.1.2-.6-.6-1.2-.9-1.7-1.3l-.6-.6v.3c-.2-.2-.4-.4-.5-.7-.2-.4-.5-.8-1-.7-.4.1-.7.6-.5 1 .3.6.3 1.2.5 1.7.3.7.7 1.1 1.2 2.1.2.4.7.9 1.1.7.4-.1.5-.5.3-1-.2-.3-.2-.5-.2-.8.3.3.7.5 1 .6l.4.1c.6.1 1 .2 1.6.2.5 0 1.2-.1 1.9-.2.3-.1.6-.1.9-.1 1.2 0 1.7.6 1.7 1.2.1.6-.3 1.3-1 1.7h.9c.5-.1 1-.2 1.4-.2.7 0 1.1.1 1.5.4.1.1.3.3.3.5h.4c.3 0 .9 0 1.3.5.2.3.2.7 0 1-.5 1-2.5 1.3-3.7 1.3.1.1.1.3.1.5 0 .4-.3.7-.7.9-.2.1-.4.1-.7.1h-.6c.2.3.3.6.3 1-.1.3-.3.6-.6.8-.2.1-.6.2-1.6.2h-.3c-.2-.5-.7-.9-1.2-1.2-.5-.3-.8-.7-1.1-1.1 0 0 0-.1.1-.1h-.1c-.2-.3-.4-.5-.6-.6-.5-.2-.9.3-1.7-.2-.7-.5-1.3-.7-1.4 0-.1.5.3 1.1.8 1.6v1.3c.3.2.7.6 1 1.2.1.2.1.4.2.7l-.1-.1c-.5-.5-1.8-.7-2.5-1.3-.3-.2-.7-.4-1-.4 0-.3-.1-.6-.1-.9 0-.7 0-1.5-.1-2.2 0-.7-.2-1.4-.2-2.1v-1.8c0-.6-.2-1.2-.2-1.8 0-.5-.1-1.5-.3-1.5-.1 0-.2-.3-.3 0-.1.3-.2 1.2-.1 1.4v2.6c0 .8.1.9 0 .9l.2 2.7c.1.3 0 .6.1 1s-1 .2-.9.5c.1.7 1.2 1.7 1.3 2.5 0 .8.1 1.8.2 2.6 0 .3-.1 1.3 0 2.2 0 .8.2 1.9.3 2.2v1.8c0 .3 0 .6.1.9 0 .3.1.5.1.8-.1.5.2.9.5 1.4.3.4.3.5.6.8.5.4 1.2.7 1.5.8.2.1.4.1.6.1l.1.1c.1.3.2.5.4.8.3.6.8 1.1 1.1 1.5.1.1.1.2.2.3v.2c0 .3-.2.5-.4.6-.2.1-.3.1-.5.1h-.3l-1.6-.5-.1 1.6c.6-.1 1.3-.1 1.9-.2h.2c.7 0 .9.4 1 .6.2.4.1.7-.1 1 .4.1 1 .2 1.6.2h.7c.2 0 .4 0 .7-.1.5-.1 1.1-.1 1.5-.1.2 0 .9 0 1.2.6.2.4.1.8-.2 1.1 1.1 0 2.2-.1 2.8-.2.1-.1.2-.3.4-.3h.1c.1 0 .2 0 .3.1 1.3-.3 2.2-.5 2.8-.5h.4c.1 0 .1 0 .2.1l.1-.1c.1-.1.1-.3.4-.4.1-.1.2-.1.3-.1.1 0 .3 0 .4.1.1 0 .1-.1.2-.1H131.7c.1 0 .2.1.3.2h.5c.1-.1.2-.1.4-.1h.2l.3.1c.2.1.3.2.4.4.2 0 .3.1.4.3h.2c.1 0 .3.1.4.1h.1c0-.1.1-.2.1-.3.1-.1.1-.2.2-.2 0-.1.1-.3.2-.4.1-.1.2-.2.3-.2l.1-.1c.2-.2.4-.3.6-.4h.1c.1 0 .2-.1.3-.1h.2s.1 0 .1.1c.1 0 .2 0 .3-.1.2-.2.4-.2.6-.2h.2c.2 0 .4.2.4.3h.6c.1-.2.3-.4.6-.4.1-.1.1-.1.2-.1h.2c.1 0 .3 0 .4.1l.1.1c.1 0 .1.1.1.1.2-.1.3-.2.5-.2h.1c.2 0 .3.1.4.2h.1c.1 0 .2.1.2.2.2 0 .4.1.5.3.1 0 .2.1.3.2.1.1.2.3.2.5l.4-.4c.1 0 .1-.1.2-.2l-.1-.1c-.1 0-.3-.1-.3-.1-.2-.1-.2-.3-.3-.4 0-.1 0-.3.1-.4v-.4c-.3-.3-.4-.6-.4-.9-.1-.1-.1-.3 0-.5s.2-.4.4-.4c-.1-.3-.1-.5.1-.8.1-.2.3-.3.5-.3.1 0 .2 0 .3.1h.4c0-.2.1-.3.3-.4h-1c-.2 0-.3-.1-.4-.1-.2 0-.4.1-.6.1h-.1c-.2 0-.4-.1-.5-.3l-.1-.1h-.1c-.3 0-.5-.1-.6-.3h-.1c-.2 0-.4-.1-.5-.2-.1-.1-.2-.3-.2-.5v-.2H140.2s0 .1-.1.1c0 .1 0 .2-.1.3-.1.2-.3.3-.5.3h-.2c0 .1 0 .3-.2.4l-.1.1c-.1.1-.3.2-.5.2-.1 0-.2 0-.3-.1h-.1c-.2 0-.4-.1-.6-.1h-.2c-.3 0-.4-.1-.6-.2-.1-.1-.2-.1-.2-.1-.2 0-.4-.1-.5-.3-.1 0-.1 0-.2.1h-.1c-.2 0-.4-.1-.5-.3-.1-.2-.1-.5 0-.7l.3-.5c.1-.2.3-.3.6-.3h.1l.2.1c.1-.1.3-.2.5-.2h.1c.1 0 .2 0 .3.1.1 0 .1-.1.2-.1v-.1c0-.2.1-.3.3-.4h.1c0-.2.1-.4.3-.5.1-.1.2-.1.4-.1 0 0 .1 0 .1-.1s.1-.2.2-.3c.1-.1.2-.1.3-.2.1-.1.3-.1.4-.1.1 0 .2 0 .3.1h.1c.1-.1.2-.1.3-.2h.1c0-.2.1-.4.2-.5h-.2c-.1.2-.3.3-.6.3H139.5c-.1 0-.2.1-.3.1h-.1c-.3 0-.6-.1-.8-.3-.1-.1-.2-.3-.2-.5-.1-.1-.2-.1-.3-.3-.2-.2-.2-.6 0-.8.1-.1.2-.2.3-.2-.2-.1-.3-.3-.4-.4v-.1c-.1-.2-.1-.4-.1-.6-.4 0-.6-.3-.6-.3-.1-.1-.2-.2-.2-.3l-.1-.1c-.2-.2-.2-.6.1-.8l.1-.1c0-.1-.1-.2-.1-.3 0-.3.1-.5.3-.6.1-.1.2-.1.3-.1h.2c.1 0 .2-.1.3-.1H138.2c.1-.1.3-.2.4-.2.1-.1.2-.1.3-.1-.2 0-.4-.1-.5-.3-.1-.2-.2-.5 0-.7 0 0 0-.1.1-.1.1-.2.2-.5.6-.8.1-.1.2-.1.4-.1.1 0 .2 0 .3.1.1-.3.2-.6.4-.8h-.4c-.2-.1-.5-.2-.7-.4-.1-.2-.2-.4-.1-.6 0-.1 0-.2.1-.3v-.4c-.1-.1-.1-.2-.2-.3-.1-.2-.1-.3 0-.5.2-.3.3-.5.6-.6l.3-.3c.1-.1.2-.1.3-.1.1 0 .3 0 .4.1.1 0 .1.1.2.1s.1-.1.2-.1.2-.1.3-.1c.1 0 .2 0 .3.1h.1c0-.1 0-.1.1-.2l.3-.3c0-.1.1-.1.2-.2.1 0 .2-.1.2-.1l-.1-.1c-.1-.1-.2-.3-.2-.7 0-.2.1-.4.3-.5.1-.1.3-.1.5-.1 0 0 .1-.1.2-.1.1-.1.3-.1.4-.1.1 0 .3 0 .4.1.1 0 .3.1.4.3h.3c.2 0 .3.1.4.2h.1c.1-.1.2-.1.4-.1-.1-.2-.1-.4 0-.6v-.1c0-.2 0-.4.2-.7l.3-.3h.5c.1-.1.3-.2.5-.3h.2c.2 0 .4.1.5.3.1 0 .2-.1.3-.1.1-.1.3-.2.4-.2.1-.1.3-.2.5-.2.1 0 .3 0 .5.2.1.1.1.2.2.3v.1h.1c.1 0 .2 0 .3.1l.1.1h.1c.1 0 .4 0 .6.3l.1.1c.1 0 .2.1.3.1.1-.1.2-.2.4-.2.1 0 .1-.1.2-.1v-.2l-.1-.1c-.3-.1-.4-.3-.5-.4l-.1.1c-.1.1-.2.1-.4.1h-.2c-.2-.1-.3-.2-.4-.4v-.1c-.1-.1-.1-.2-.2-.3 0 0-.1-.1-.1-.2h-.1c-.2 0-.4-.1-.6-.1-.3-.1-.4-.5-.3-.7v-.1c-.1-.2 0-.4 0-.5 0-.1-.1-.2-.1-.2 0-.1 0-.3.1-.4v-.4c0-.1.1-.3.2-.3v-2c0-.3.2-.5.5-.6-.2 0-.3-.1-.4-.2-.1-.2-.2-.4-.1-.6.1-.2.2-.4.4-.4l.2-.1c.1 0 .3-.1.4-.1h.1c.1 0 .3-.1.5-.1h.7c.3 0 .5-.1.8-.1.1-.1.2-.2.3-.2h.1v-.1c0-.2.1-.3.2-.4-.1-.1-.2-.2-.3-.4 0-.1-.1-.1-.1-.2-.1-.1-.2-.3-.3-.5 0-.1-.1-.2-.1-.3-.1-.1-.2-.3-.2-.6s.3-.6.6-.6h.1c.1-.1.2-.1.3-.1.1-.1.1-.1.2-.1l.2-.2c.1 0 .2-.1.4-.1.1 0 .2 0 .3.1v-.1c.1 0 .3 0 .4-.2.2-.4 0-.9-.3-1.4 0-.1-.4-1.3-.6-1.5-.2-.3-.5-.4-.6-.6-.3-.3-.4-.7-.7-1.3-.2-.5-.7-.9-1-.6-.3.3 0 1.4.2 1.9.3.6.5.8.8 1.3.3.6.3 1.1.7 1.6.1.1.3.1.5.5h-.2c-.1 0-.2 0-.3-.1-.1 0-.1-.1-.2-.1h-.4c-.2 0-.3-.1-.4-.3l-.1.1v.2c0 .1 0 .2-.1.3v.2c-.1.2-.2.7-.7.9H150.5c.1.2 0 .3 0 .5-.1.2-.3.3-.4.4-.1 0-.1.1-.2.1 0 .1 0 .2-.1.2-.1.2-.3.4-.5.5h-.1c-.2 0-.4-.1-.5-.3-.1-.2-.1-.3-.2-.5h-.3c-.1-.1-.2-.1-.3-.2h-.6c-.1 0-.3 0-.3-.1h-.2c-.2-.1-.4-.2-.4-.4v-.1c-.1 0-.1 0-.2-.1-.2-.1-.3-.3-.4-.5v-.1c-.2-.1-.4-.4-.3-.6-.1-.1-.1-.2-.1-.3v-.2c-.1 0-.3-.1-.3-.2-.3-.3-.3-.6-.2-.8 0-.1.1-.2.2-.3.1-.1.1-.1.2-.1 0-.1 0-.1.1-.2l.3-.3-.1-.3v-.1h-.1c-.3 0-.6-.2-.6-.5-.1-.3 0-.6.2-.8 0-.1.1-.1.1-.1-.1-.1-.1-.2-.1-.2v-.1c-.1-.1-.1-.1-.1-.2v-.2h-.2c-.2 0-.4-.1-.6-.1h-.1c-.1 0-.2-.1-.3-.2h-.4s-.1 0-.1.1H143c-.2 0-.3-.1-.5-.2l-.3-.3-.1-.1c-.1-.1-.2-.3-.2-.5 0-.1.1-.3.2-.4 0-.1-.1-.2-.1-.4s.1-.4.3-.5l.1-.1c-.1-.1-.1-.3-.2-.4-.1-.3.1-.6.3-.7.1 0 .2-.1.3-.1 0-.1 0-.1.1-.1v-.2c0-.2.1-.4.4-.5.1-.2.3-.3.5-.3h.2c.2 0 .3.1.4.3h.1c.2 0 .4.1.4.3.1 0 .1-.1.2-.1h.1c.2 0 .4.1.5.3 0 .1.1.1.1.1.1-.2.3-.4.6-.4h.1c.1 0 .1 0 .2.1.2-.1.4-.2.6-.2h.3l.1-.1c.1 0 .2-.1.4-.2h-.2s-.1 0-.1-.1l-.1-.1-.1-.1c-.2 0-.4-.1-.6-.3-.2-.3-.2-.6 0-.9.1-.1.3-.2.5-.2h.1c.7.1 1.4.2 2.1.4l.6.1c0-.3.2-.5.3-.6.1-.2.3-.3.5-.3h.2c.1 0 .2.1.2.1h.1c.2-.2.4-.3.7-.3.1-.1.2-.1.2-.1.1-.2.3-.4.6-.4h.2c-.1-.1-.1-.3-.1-.5.1-.3.3-.5.6-.5-.1-.1-.1-.3-.1-.5h-.1c-.2-.1-.4-.3-.4-.5v-.2c-.1 0-.1-.1-.2-.1h-.5c-.2 0-.5-.2-.6-.4v-.1c-.1-.1-.2-.2-.2-.4-.1-.2 0-.5.2-.6-.2 0-.3-.1-.5-.1s-.3-.1-.5-.1h-.5c-.3 0-.5-.1-.6-.4-.1-.1-.1-.2-.1-.3-.3-.1-.5-.2-.8-.3-.2-.1-.3-.2-.4-.3-.1 0-.2 0-.3-.1l-.2-.2c-.4-.2-.7-.5-1.1-.9-.2-.2-.2-.5 0-.8.1-.1.2-.3.4-.4.1-.1.3-.1.4-.2l.2-.1s0-.1.1-.2c0-.1.1-.2.2-.2.1-.1.2-.1.3-.2 0-.2.1-.4.3-.5 0 0 .1-.1.2-.1 0-.2.1-.3.2-.4.1-.1.3-.2.5-.2h.7l.1-.1.1-.1.1-.1v-.4c0-.1.1-.3.2-.4v-.4c.1-.2.2-.3.4-.4h.1c0-.3.3-.5.4-.5.1-.1.2-.1.3-.1h.1c.1 0 .3.1.4.2h.1c.1 0 .1 0 .1-.1.1-.2.3-.4.6-.4h.4c.1-.1.2-.1.2-.1.1-.1.3-.2.5-.2.1 0 .1-.1.2-.1.2-.2.4-.3.7-.4h.1c.1 0 .3 0 .4.1.1-.1.2-.2.4-.2h.1c.2 0 .4.1.5.3l.2-.1c.1-.1.3-.2.4-.2h.2c.1 0 .1.1.2.1s.2.1.2.2c.1 0 .2.1.3.1h.1c.2 0 .3.1.4.2 0 0 .1 0 .1.1l.2.2h.1c.1 0 .3.1.4.1l.1.1s.1 0 .1.1c.1 0 .2-.1.3-.1h.2c.1.1.3.2.4.3.1 0 .1 0 .1.1.1 0 .2.1.2.2v.1s0 .1.1.1v.1c.1 0 .2 0 .3.1.1 0 .2.1.3.2h.2c.1 0 .2 0 .3.1.1 0 .1.1.2.1H162.8c.2 0 .3.1.4.2 0 0 .1 0 .1.1h.2c.3 0 .5.2.6.4.1.1.1.3.1.4.1 0 .2-.1.3-.1h.1c.1-.1.2-.2.4-.2h.2c.3 0 .5.1.6.2.1 0 .1-.1.1-.1.1-.3.4-.4.6-.4h.1c.4 0 .6.3.6.4.1.1.1.3 0 .5-.1.4-.4.6-.7.7l-.3.3c.1 0 .1.1.2.1.2.1.3.3.3.7l.3.3c.1.2.1.5 0 .7v.1c.1.1.2.3.1.5 0 .1-.1.3-.1.4h.1c.6 0 1.2.1 1.3.5.2.4-.5.5-1.1.6-.2 0-.5.1-.9.2-.1 0-.2.1-.3.1h-.1c-.2 0-.4 0-.6-.1H165.1c-.1 0-.2 0-.4-.1-.1-.1-.2-.1-.4-.2 0 0-.1 0-.1-.1h.8-.2c0 .1 0 .2-.1.3-.1.2-.3.4-.6.4h-.2v.1h.4c.5 0 1.1-.2 1.5-.1.4.1.6.3.9.3.6.1 1.2.2 1.3.6.1.4-.5.5-1.1.5-.3 0-.8.2-1.3.2-.2 0-.4-.1-.6-.2.1.2.1.5-.1.7.2.1.4.4.3.6 0 .2-.1.3-.3.4l.1.1h.1c.1-.1.2-.1.3-.1h.1c.1-.1.3-.3.6-.3.1 0 .2 0 .3.1l.1.1h.1c.3 0 .5.1.8.2.1-.1.2-.1.3-.1.1 0 .3 0 .4.1.1 0 .1.1.2.2.4.1.6.2.7.5.2 0 .3.1.4.3.1.1.1.3.1.5.2.1.3.4.3.6-.1.3-.3.5-.4.6 0 .3-.2.6-.5.6h-.1c-.1.1-.2.1-.4.1h-.8c-.3.2-.6.3-.9.3-.3 0-.6-.1-.8-.2-.1 0-.2.1-.4.1s-.3 0-.4-.1c0 .2-.1.3-.3.4-.1.1-.2.3-.4.3H164.1c-.1.1-.2.1-.3.1-.1 0-.2.1-.3.1-.2 0-.3-.1-.4-.1v.1c0 .1-.1.2-.1.3 0 0 0 .1-.1.1v.1l-.2.2c-.1.1-.1.2-.2.2-.4-.1-.6 0-.7.2-.2.3-.4 2.2-.4 2.6-.6 1.7-.3 2.7-.3 2.7-.1.4-.3.7-.3 1.1 0 .5-.2 1.1-.2 1.6s.4 1.2.4 1.7c0 .6.3 1.1.9 1.1.8 0 .5-1 .7-1.2.1-.1.4 0 1.1.4.5.4 1.3.7 1.7.2.4-.4-.1-1.2-.6-1.5-.3-.2-.5-.8-.9-1.1-.5-.4-1-.9-1.2-1.3-.2-.4 0-1 .2-1.2.2-.2.5 0 .8.2.5.4 1.1.8 1.5.3.1-.1.2-.3.2-.4h.1c.1 0 .2-.1.3-.1.3 0 .5.2.6.3.2 0 .3.1.4.2h.4c.1 0 .3 0 .3.1h.4c.2 0 .4 0 .6.2h.2c.1 0 .3 0 .5.1h.4c.2 0 .3 0 .4.1H170.3c.2 0 .4.1.5.2.1.1.2.3.2.4.1.1.2.1.4.3.1.1.1.2.1.3.1.1.3.2.3.4.1.2.1.3 0 .5v.3c0 .1-.1.3-.2.3-.1.1-.2.2-.3.2-.1.1-.4.4-.8.4h-.2c-.1 0-.2.1-.4.1h-.1c-.1.1-.2.1-.3.1-.1.1-.1.1-.2.1v.5c0 .2 0 .3-.1.4 0 .1 0 .1-.1.2h.1c.2 0 .3.1.4.2.1 0 .1.1.2.1l.2-.2c.1-.1.2-.1.3-.1h.7c.2.1.3.2.4.4.1 0 .2 0 .3.1h.2c.2 0 .4.1.5.1h.1c.2.1.4.3.5.5 0 .2 0 .4-.2.6v.2h.2c.2 0 .4.1.5.2.2.1.2.3.2.5v.3H174c.1 0 .2.1.3.1.1-.1.3-.2.5-.2.1 0 .2 0 .3.1.2-.2.5-.4.8-.4h.1c.3 0 .6.1.8.2.2-.1.5-.2.7-.2h.3c.1 0 .3.1.4.2v.1c.2 0 .3.1.5.2 0 0 .1 0 .1.1.1 0 .2-.1.3-.1.1-.1.3-.2.6-.2.1 0 .2 0 .3.1h.4c.2 0 .4.1.5.3.1.1.1.3.1.4H181.3c.3 0 .4.2.5.5.1.1.2.4.1.8-.1.1-.1.3-.3.3 0 .1-.1.3-.2.5l-.2.2-.1.1c-.3.3-.6.3-.8.3-.2.2-.4.2-.8.2h-.2c-.1 0-.2.1-.3.2-.1 0-.1.1-.3.1-.1 0-.2.1-.3.2-.1.1-.3.2-.5.3.1.2.1.4.1.5 0 0 0 .1-.1.1 0 .1-.1.3-.1.3l-.2.2h-.2c.3.2.6.3.7.5.2.2.2.4.4.6.4.3.6.7.4 1-.2.4-.7.1-1.1-.3-.2-.1-.7-.2-1-.5-.3-.3-.4-.6-.6-.9 0 0 0-.1-.1-.1s-.3.1-.4.1h-.4c-.2 0-.4-.1-.5-.3 0 0-.1-.1-.1-.2h-.2c0 .1-.1.1-.1.1.1 0 .1.1.2.2.2.1.7.3 1 .6s.4.6.6.9c.3.4.4.6.2.9-.3.4-.5.1-.9-.2-.3-.3-.8-.4-1-.7-.2-.2-.2-.5-.4-.6l-.1-.1c0 .1 0 .1-.1.2s-.3.4-.7.4c.1.1.3.2.4.3.2.3.3.6.4.9.2.4.3.6 0 .9-.3.3-.5 0-.8-.3-.3-.3-.8-.5-.9-.8-.1-.2-.1-.5-.3-.7l-.2-.2c0 .1-.1.3-.2.4-.1.1-.2.1-.3.2 0 .1 0 .2-.1.3v.1l-.2.3c-.1.2-.3.3-.6.3-.1 0-.2.1-.2.1h-.1c-.2 0-.3-.1-.4-.2l-.1-.1c-.1 0-.2-.1-.3-.2l-.2-.2h-.1c-.1 0-.2.1-.3.1-.2 0-.4-.1-.5-.2-.1-.1-.2-.3-.2-.4-.1-.1-.2-.3-.2-.4 0-.1-.1-.2-.1-.3-.1 0-.2-.1-.3-.1l-.1.1c-.1.1-.1.2-.2.2-.1.1-.2.2-.4.3h-.2c-.1 0-.2 0-.3-.1-.1.1-.3.1-.4.1h-.1c-.2 0-.3-.1-.4-.3-.1-.1-.2-.2-.3-.4-.2-.1-.4-.3-.4-.5v-.4c-.1-.1 0-.3 0-.5 0-.1.1-.1.2-.2v-.2c-.1 0-.1.1-.2.1h-.4s-.1 0-.1.1l-.2.1c-.1.1-.2.1-.3.2h-.1c-.2.1-.4.2-.7.2h-.3v.1c0 .2-.1.3-.2.4-.1.1-.1.3-.3.3-.1.1-.2.1-.4.1h-.2c-.1 0-.1.1-.2.1 0 .1 0 .1-.1.2-.1.2-.3.4-.6.4H160.2c0 .1-.1.1-.1.2l-.1.1h-.5c-.1 0-.2 0-.3-.1H158.9c-.1 0-.3-.1-.4-.2l-.1.1c.2.3.2.6.1.7.1 0 .3.1.5.2.1 0 .2 0 .3.1.1 0 .1.1.2.1.1.1.2.3.2.6v.3c.1 0 .2-.1.3-.1h.1c.2-.2.4-.3.6-.3h.5c.2 0 .5.1.7.4h.1c.2 0 .3.1.4.1h.1l.2-.2c.2-.1.3-.2.5-.2.3 0 .5.1.7.3.1 0 .2-.1.4-.1.1 0 .3 0 .4.1.1.1.2.2.3.4.1 0 .3 0 .5-.1h.3c.2 0 .4.1.5.4h.1c.2 0 .3.1.4.1.2-.1.4-.1.5-.1h.2c.1-.1.3-.2.5-.2s.4.1.5.3c.1.2.1.3.1.4v.1l.2-.2c.2-.1.4-.2.6-.2.2-.2.4-.3.7-.3h.2l.1-.1c.1-.1.4-.2.6-.2.2 0 .4.1.5.2l.1.1c.1.1.1.2.1.3h.1c.1-.1.2-.1.3-.1h.1c.3 0 .4.1.6.2H173.1c.1 0 .2.1.3.2h.1c.1-.1.2-.1.3-.1h.1c.2 0 .4.1.6.3l.1-.1h.1c.1-.1.3-.3.6-.3.2 0 .4.1.6.2.1.1.2.2.2.3h.1c.2.1.3.3.3.5V140c0 .1 0 .3-.1.4 0 .1-.1.1-.1.2s0 .2-.1.3c0 .2-.1.3-.2.3v.2c.1.1.1.1.1.2.1 0 .2-.1.3-.1.1 0 .3.1.4.2h.4c.2 0 .4.1.5.3l.3.4c.1.2.1.4 0 .6v.1c0 .2 0 .8-.6 1H177.1c-.1 0-.1.1-.2.1v.2c0 .3-.2.5-.3.6 0 .1-.1.3-.2.4-.1.1-.3.2-.5.2h-.1l-.2.1c-.1 0-.2.1-.3.1H174.6c.1.1.2.2.2.4s0 .4-.1.5c-.1.2-.2.3-.4.3-.1.4-.4.7-.8.7h-.1c-.2 0-.3-.1-.5-.2-.1-.1-.1-.2-.1-.3h-.2c-.1 0-.2.1-.3.3h-.1c-.1.1-.3.2-.4.2-.1 0-.3 0-.4-.1l-.1-.1c-.1 0-.2.1-.3.1 0 .1 0 .1-.1.2 0 .1-.1.1-.2.2.2.1.4.2.5.2.1.1.3.1.4.2.1 0 .2.1.3.1.2.1.4.1.6.3.1.1.3.1.3.1h.2c.1-.1.3-.1.4-.1.2 0 .4.1.5.1.3.1.5.2.9.3.1 0 .2 0 .3.1h.1c.1 0 .3.1.4.1 0 0 .1-.1.2-.1 0-.1-.1-.1-.1-.2-.2-.3 0-.7.3-.8l.4-.2c.1-.1.2-.1.3-.1h.4c.1 0 .2 0 .3.1.1 0 .3.1.4.2l.2.2.1.1c.1 0 .1 0 .2.1H179.4c.1-.1.3-.2.5-.2h.3c.1 0 .2-.1.3-.1.2 0 .3 0 .4.1.1.1.2.2.2.3H181.4c.2.1.4.3.4.5v.1H182.4c.1-.1.2-.1.3-.1.1 0 .2 0 .3.1.1 0 .2 0 .3.1h.1c.1 0 .2 0 .3.1 0 0 .1 0 .2.1.1 0 .1.1.2.1.1.1.2.3.2.5s-.1.4-.2.5l-.1.1c0 .1.1.1.1.2.1 0 .2.1.3.2.1-.6.6-1.1 1.1-1.3.4-.1 1.6-1 2-1.2.7-.4 1.3-.9 1.9-1.3.5-.3 1-.3 1.4-.6.4-.2.6-.4.9-.6 0 0 .1-.1.2-.1.4-.2.7-.5 1-.8.5-.4 1-.9 1.6-1.4.5-.4.9-1.1 1.5-1.3.5-.3 1-.4 1.4-.7.6-.3 1.1-.8 1.6-1.2.5-.4.9-.7 1.3-1 .7-.6 1-1.3 1.5-2.2.4-.6.7-1.6 1-2.6.3-.9.1-1.8.2-2.7.1-.7.3-1.4-.2-1.6-.4-.2-.8.7-.9 1.4-.1.7-.4 1-.7 1.8-.3.9-.5 1.9-.8 2.7v.2c-.2.3-.6.6-.7.6-.4 0-1.1.4-1.4.1-.3-.3.2-1.7 0-2.1v-.1c0-.2.1-.4.2-.6l.4-1.1c.2-.6.2-1-.2-1.3-.4-.3-.8.5-1 1.2l-.5.9c-.2.7-.4 1.2-.6 1.8-.3.5-.6 1.1-.9 1.6-.4.5-.8 1-1.1 1.1-.3 0-1.1.1-1.3-.3-.2-.3.1-1.6.2-1.9.1-.5.2-1.1.3-1.7.3-1 .6-1.6.6-1.7.3-.9 0-1.4.4-2.4.3-.6.5-.9.8-1.3.3-.3.7-1 1.1-1.4.4-.4.9-.6 1.6-1.1 1.2-.4 1.7-1.9 2-2.1.6-.4.7.2 1.3-1.9 0-.4.4-.7.6-1.1.3-1 .1-2 .2-2.3.2-.7.3-.9-.1-1.2-.4-.3-1-.3-1.2.4-.2.8-.2 1.3-.4 2.1-.2.5-.7 2.2-1 2.4-.6.5-1 .9-1.2.7-.3-.3-.2-1.5 0-2.6.1-.6.3-1.3.4-1.6.2-.9-.1-.8-.5-.8-.6-.1-1.6.2-2.4.3-.3 0-.6.6-.7 1.2 0 .5.3 1.3.7 1.1.4-.2 1 .2 1.1.9.2.7-.2 1.1-.7 1.3-.2.1-.5.3-.8.4-.4.1-.8-.1-1.2 0-.5.1-1.3.4-1.7.2-.5-.2-.9-.9-.7-1.6 0 0 .3-.6.6-.9.3-.2.8 0 1.1-.5.4-.8.4-1.5-1-1.6-.3 0-1.2-.2-1.6 0-.4.1-.9-.9-1-1.6-.1-.7.7-1 1.2-1.1s1-.2 1.4-.2c.4 0 .8-.5 1.2 0 .6 0 1.1-.4 1.6-.5.8-.1 1.7-1 2.4-1.1 1.2-.3 2.3.1 3.6-.8.9-.6 1.8-1.3 2.8-1.7.1-.1.3-.2.5-.2.6-.1 1.2-.4 1.4-.6.1 0 .4-.2.5-.3.5-.3 1.3-.5 1.8-1 .4-.3.6-.3.9-.6.3 0 .7-.4.8-.8.1-.4.1-1 .1-1.7 0-.6.1-1.1 0-1.6s0-.8-.4-.9c-.6-.1-.7.6-.9 1.4-.1.5-.2.9-.3 1.3-.2.4-.3.8-.5 1-.8.8-.9 0-1.1-.8-.1-.5-.1-1.1-.6-1.1s-.8.6-.8 1.3c0 2.8-1.7 2-2 2.1-.2.1-1.1 0-1.4-.3-.2-.3-.1-.8-.2-1.1-.1-.7.8-1.3 1.2-1.5 1-.4.8-.9 1-1.1.4-.4.4-.7-.1-.9-.4-.2-.7-.2-1.1 0-.5.3-.9.1-1.2-.6-.2-.8.2-1.1.7-1.4.2-.1 1.5-1.1 1.8-1.3.4-.2.6-.8.8-1.1.4-.3 1.4-.8 1.8-.2.5.9-.3 1.1-.2 2.3 0 .3 0 .5.3.4.2-.1.4.2 1-.6.3-.4.6-1.2 1.1-1.6.3-.4.9-.3 1.1-.6.4-.5.2-.5.6-.9.4-.4.5-1 .2-1.6-.3-.6-.5-.3-.9.1-.4.5-.7.3-1.1.8-.1.1-.2.3-.4.4-.5.3-.9.1-1.3 0-.3-.1-.8-.2-.9-.4-.3-.3-.4-.9-.2-1.2.2-.4.7-.5.9-.6.5-.3.9-.4.7-1.1-.2-.7-.8-.4-1.2-.2-.4.2-.9-.2-1.3-.1-1.3.2-1.5-.4-1.5-1 0-.5.4-1.1.8-1.5.5-.3.9-.3 1.6-.5.6-.1 1.3.1 1.8 0 .6-.2 1-.5 1.1-.5.3-.1.5-.2.8-.4.5-.2.8-.9.7-1.5-.2-.7-.8-.5-1.3-.3-.4.2-.6-.2-1-.1-1.1.1-1.4-.4-2-.6-.3-.2-.8 0-1.3-.8-.5-.7-.8-1.4-.4-2.4.3-.7.5-.9.8-.8.2.3.5.5.7.8.3.2.7.2.9 0 .1-.1.2-.3.2-.5.1-.3-.1-.4-.2-.7 0-.2-.1-.5-.2-.8-.1-.3-.1-.7-.1-.7-.1-.5-.1-.7.2-1.1.5-.5.6-.2 1 .3.1.2.3.3.5.5.3.5.7 1 1 1.4.4.6.7 1.2 1.3 1.6.4.4 1.1.5 1.3-.1-.3-.8-.6-1.8-1-2.2m-81.7 66.7c-.3-.1-1-.4-1.5-.8-.4-.3-.3-.4-.6-.8-.4-.5-.7-1-.5-1.5.2-.6.4-.4.9-.1.3.2.5.1 1 .4.4.3.4.6.6.7.6.3 1.1.9 1.1 1.6-.1.6-.5.7-1 .5m41.5-35c0 .1 0 .3-.1.4-.2.3-.5.5-.8.5-.1 0-.2 0-.3-.1-.1 0-.2.1-.4.1H168.4c0 .1-.1.2-.2.2-.2.2-.4.4-.8.4h-.1c-.2.1-.3.1-.4.1-.2 0-.4-.1-.5-.2-.1.1-.2.1-.3.2h-.2c.1.1.1.2.1.3 0 .2-.2.4-.4.5 0 .1-.1.1-.1.1.1.4-.1.7-.3.8 0-.3-.2-.6-.5-.8-.2-.2-.4-.7-.7-.9-.3-.3-.6-.5-.7-.7-.2-.2.1-1.3-.2-1.6-.1-.1-.1-.2-.1-.3h.2c.1 0 .2 0 .3.1.2-.2.4-.4.6-.7 0-.1.1-.1.1-.1.1-.2.3-.4.4-.4h.7c.1 0 .2 0 .3.1h.1c.1-.1.2-.1.3-.1 0-.2.1-.4.2-.5.1-.1.3-.2.5-.2h.1c.1 0 .2.1.3.1.1-.1.3-.3.6-.3.1-.1.2-.1.3-.1.1 0 .2 0 .3.1 0 0 .1 0 .1.1.2 0 .3.1.4.2.2.1.3.2.4.3h.1c.1 0 .2 0 .3.1h.2c.2 0 .3.1.5.1.3.2.4.5.2.8.1 0 .1.1.2.1.1.1.2.3.2.5 0 .1 0 .4-.1.6 0 .1 0 .1.1.2m16.5 20.8c-.2.4-.2 1-.6 1.5-.3.4-.4.2-.7.4-.5.3-.8.4-1.2-.3-.4-.7-.2-.9.2-1.5.2-.4.2-.8.5-1.3s.5-.2.7-.5c.3-.7.6-.8 1.1-.3.4.6.3 1.3 0 2m2.7-4c.3-.4.9-1.1 1.2-1.1 1-.2.6 1 .4 1.8-.1.6-.2 1-.3 1.7-.1.2-.1.6-.2.9-.1.5-.4 1.1-.7 1.5-.4.6-.8.9-1.1.9-.9 0-.7-.7-.6-1.6.1-.7.1-1.6.3-2 .3-.8.5-1.6 1-2.1m9.8-21.6c-.3.2-.5.7-1.1.8-.4.1-.4-.1-.8-.2-.5-.1-.9-.3-.9-1.2-.1-.9.2-.9.6-1.1.3-.1.4-.5.9-.7.4-.1.5.2.7.1.5-.4.8-.2 1 .6.4.8.1 1.4-.4 1.7M151.1 319.4c.5.4.9.8 1.4 1.3-.5-.4-.9-.9-1.4-1.3m-8.2-7.7.3.3-.3-.3m-23.1-30.2c.1.2.1.3.2.4 0-.1-.1-.3-.2-.4M115.9 273.7c-.2-.5-.4-.9-.6-1.4.2.5.4.9.6 1.4M172.3 181.6h.3H172.3M40.1 235.6v-.1c0-10.7 8.1-19.5 19.7-19.5 7.1 0 11.4 2.4 14.9 5.8l-5.3 6.1c-2.9-2.6-5.9-4.3-9.7-4.3-6.4 0-11 5.3-11 11.8v.1c0 6.5 4.5 11.9 11 11.9 4.3 0 7-1.7 9.9-4.4l5.3 5.3c-3.9 4.2-8.2 6.7-15.5 6.7-11 .1-19.3-8.5-19.3-19.4M101.7 216c-11.7 0-20.1 8.8-20.1 19.5v.1c0 10.7 8.4 19.4 20 19.4 11.7 0 20.1-8.8 20.1-19.5v-.1c0-10.7-8.3-19.4-20-19.4m11.4 19.6c0 6.5-4.6 11.8-11.3 11.8-6.7 0-11.4-5.4-11.4-11.9v-.1c0-6.5 4.6-11.8 11.3-11.8 6.7 0 11.4 5.4 11.4 11.9v.1zM131.8 216.6h8.3v30.3H159v7.5h-27.2zM184.2 216c-11.7 0-20.1 8.8-20.1 19.5v.1c0 10.7 8.4 19.4 20 19.4 11.7 0 20.1-8.8 20.1-19.5v-.1c.1-10.7-8.3-19.4-20-19.4m11.4 19.6c0 6.5-4.6 11.8-11.3 11.8-6.7 0-11.4-5.4-11.4-11.9v-.1c0-6.5 4.6-11.8 11.3-11.8 6.7 0 11.4 5.4 11.4 11.9v.1zM212.3 216.6h9l9.9 16 10-16h8.9v37.8h-8.2v-24.7l-10.7 16.2h-.2l-10.5-16v24.5h-8.2zM286.9 234.7c2.7-1.5 5-3.9 5-8.1v-.1c0-2.6-.9-4.7-2.6-6.4-2.2-2.2-5.6-3.4-9.9-3.4h-17.5v37.8h18c8.5 0 14.1-3.4 14.1-10.4v-.1c0-5.1-2.7-7.7-7.1-9.3M270 223.9h8.2c3.5 0 5.5 1.4 5.5 3.9v.1c0 2.8-2.3 4-6 4H270v-8zm15.7 19.1c0 2.8-2.2 4.1-5.9 4.1H270v-8.3h9.6c4.3 0 6.2 1.6 6.2 4.1v.1zM325.5 216.4h-7.7l-16.2 38h8.5l3.4-8.5h16l3.5 8.5h8.7l-16.2-38zm-9 22.2 5-12.3 5 12.3h-10zM350.9 216.6h7.6l17.7 23.3v-23.3h8.2v37.8h-7l-18.3-24v24h-8.2zM181.4 204.2l1.8-2.2c1.3 1 2.6 1.7 4.2 1.7 1.3 0 2-.5 2-1.3s-.5-1.2-2.8-1.8c-2.8-.7-4.6-1.5-4.6-4.3 0-2.5 2-4.2 4.9-4.2 2 0 3.8.6 5.2 1.8l-1.6 2.3c-1.2-.9-2.5-1.4-3.6-1.4-1.2 0-1.8.5-1.8 1.2 0 .9.6 1.2 3 1.8 2.8.7 4.4 1.8 4.4 4.2 0 2.8-2.1 4.3-5.1 4.3-2.2.1-4.3-.6-6-2.1M203 192.1h-2.8l-6 14.1h3.1l1.3-3.1h5.9l1.3 3.1h3.2l-6-14.1zm-3.3 8.3 1.8-4.5 1.9 4.5h-3.7zM212.3 192.2h3.1v14h-3.1zM218.9 192.2h2.8l6.5 8.6v-8.6h3.1v14h-2.6l-6.8-8.9v8.9h-3zM238.4 195.1h-4.3v-2.9h11.6v2.9h-4.2v11.1h-3.1z"/></svg>