<svg version="1.1" id="Layer_1" xmlns="http://www.w3.org/2000/svg" x="0" y="0" width="414.7" height="212.6" style="enable-background:new 0 0 414.7 212.6" xml:space="preserve"><style>.st0{fill:#002f87}.st2{fill:#ff4713}</style><path class="st0" d="M322.1 107.7c-.5-1.4-1.6-2.3-2.9-2.7 1.7-5.2 2.2-10.7 1.6-16.3v-.2c-1-5.7-3.8-9.4-5.9-12-1.1-1.4-2.1-2.8-2.1-3.5.1-1.7-.6-3.5-1.8-4.7-1.2-1.3-2.9-2-4.6-2-3.4 0-5.2 2.9-5.9 4l-.1.2c-.5.8-1.2 1.9-1.2 1.9-2.3 3.8-4.3 7.5-6.3 11.4l-.1.1c-1.7 3.2-3.6 6.9-5.9 10.9l-.4.8c-3.5 6-4.8 8.2-8.3 12.3l-.1.1v.1l-.1.1c-.9 1.2-1.6 1.9-2.1 2.2-.1-2.4 2.1-8.2 6.8-17.2l.1-.1c.7-1.3 1.2-2.4 1.7-3.3v-.2c.3-.6.5-1.3.8-1.9l.1-.2c1.8-3.9 4.2-9.2.6-14.9l-.1-.1c-1.9-2.9-5.7-4.4-10.9-4.4-2.3 0-4.1.3-5 .5l-1.2.3c-1.2-2.1-3.1-2.6-4.6-2.7h-.2c-1.4 0-5 .5-6.5 5.1l-.1.3c-.4 1.4-1.4 4.3-3.3 6.6-2.5-7.8-9.9-11.6-16.8-12h-.8c-6 0-16.6 3.3-20.1 25.7-1.2 7.6-5 13.5-7.5 13.5h-.3c-.4-.7-1.7-3.9-1-15.9.4-7.1 1.3-13.5 1.7-16.1h4c3.2 0 5.7-2.6 5.7-5.7v-.8c0-3.2-2.6-5.7-5.7-5.7h-3c.1-.9.2-1.9.3-2.7.3-2.8.7-5.5.5-7.1-.4-3.6-4-7.7-8.8-7.7-2.1 0-4.1.8-5.7 2.4-2.1 2-2.6 6-3.2 12.2-.1.9-.2 2-.3 2.9h-3.7c-3.2 0-5.7 2.6-5.7 5.7v.8c0 3.2 2.6 5.7 5.7 5.7h2.6c0 5.6-1.2 18.4-3.3 27.1.8-8.8 1.7-20.5-2.7-27.3v-.1c-1.5-1.9-3.1-2.3-4.2-2.3-.2 0-.5 0-.7.1-2.4-2.2-5.3-3.8-8.2-4.3-.9-.2-1.8-.2-2.7-.2-6 0-11.1 3.6-14.7 10.2-.1-.8-.2-1.6-.2-2.2l-.1-.7v-.1c-.6-4.3-3.2-6.7-7.5-7h-.5c-6 0-19 6.2-21.2 14.7-.7 2.7-.8 7.8 5.9 12.2-.5 2.4-1.3 4.2-2.6 5.6-1.1 1.3-2.6 2.1-4 2.1-.4 0-.9-.1-1.3-.2h-.2c-1.4-.4-5.2-3.8-7.9-9.9-2.2-4.9-5.2-14.8-.1-26.4 1-2.3 6.2-8.3 11.8-8.3.3 0 .7 0 1 .1 1.8.2 2.1 2.2 2.1 2.7 0 .3 0 .7.1 1.2 0 1.4.1 3.1 1 4.7l.1.1v.2l.1.1c1.5 2.1 3.6 3.3 5.9 3.3h.1c4.1 0 15.9-8.5 16.2-13.5.1-3.3-3.3-7.4-4.8-9-2.8-2.9-10.5-9.7-22.3-9.7-2.1 0-4.3.2-6.5.7-14.5 2.9-24.4 17.6-26.4 30-4.4 27.5 8.5 50.3 22.9 55.7 2.4.9 5.2 1.4 8 1.4 4.2 0 8.2-1.1 11.3-3 5.9-3.7 10.5-8.5 13.7-14.1.6 4.8 2.1 8.7 4.5 11.5 3 3.6 7.4 5.6 12.6 5.6 4.2 0 8.1-1.3 10.5-2.6 2.3 1.6 5.4 2.6 8.3 2.6 4.7 0 8.1-3.9 10.2-6.9 1.8 2.7 4.7 6 9.7 6.8.5.1 1.1.1 1.6.1 4.3 0 8.2-2.7 11.7-8.4 2.3 5.1 6.5 8 12.1 8.3h1c16.3 0 21-22.1 22.2-30.3 5.6-2.3 10.3-6.9 12.3-9.8h.1c.6 0 1.2.3 1.5.6-1.7 3.6-10.8 23.5-4.9 33.6 1.5 2.6 4.6 5.7 10.9 5.7.7 0 1.4 0 2.1-.1 3.7-.4 6.8-2.8 9.1-5.1 1.5 1.9 4 3.9 6.3 4.9 4.5 1.9 9 2.9 13.5 2.9 5.3 0 10.1-1.4 12.5-3.7 2.6-3.1 5.7-11.5 4.2-15.3zm-27.7 3.8c-1 0-1.9-.1-2.7-.2 1-1.3 2-2.6 3.1-3.8 1.1-1.4 2.5-3.1 3.8-4.8v-.1c1.5-1.9 3.5-4.5 5.2-6.5.3 3.8 0 8.9-2.3 12.1-1.8 2.2-4 3.3-7.1 3.3zm-62.8-19.8c2.1 1.9 4.7 3.2 7.8 3.7-.7 2.9-2.5 7.5-5.4 9.8l-.1.1c-.1.1-.5.3-.6.3-.2-.1-.8-.9-1.2-2.6v-.4c-.7-2-.8-7-.5-10.9zm-64.7 3.5c.9-7.9 3.1-11.4 5-11.4.7 0 1.4.5 1.6.7.7 1.7 1.4 15.4-2 20.8-.7 1.2-1.2 1.2-1.4 1.2-.6 0-1-.2-1.3-.6-1.9-1.8-2.3-6.9-1.9-10.7z"/><path d="M320.8 108.2c-.5-1.3-1.6-2-2.9-2-.2 0-.4 0-.6.1 2.1-5.5 2.8-11.4 2.2-17.4v-.2c-.9-5.4-3.6-8.8-5.6-11.4-1.4-1.8-2.5-3.2-2.4-4.4.1-1.3-.5-2.7-1.4-3.7-1-1-2.3-1.6-3.6-1.6-2.6 0-4.1 2.4-4.7 3.4-.1.1-.1.2-.2.2-.5.7-1.2 1.9-1.2 1.9-2.3 3.9-4.3 7.6-6.3 11.5-1.8 3.4-3.6 7-5.9 10.9l-.4.7c-3.5 6-4.9 8.3-8.5 12.5l-.1.1-.1.1c-1.7 2.3-3.2 3.2-3.7 3.2h-.1c-.3-.1-.5-.2-.6-.5-1.4-3.4 4.3-14.4 6.7-19.1.7-1.3 1.3-2.5 1.7-3.4V89l.9-2.1c1.7-3.8 3.9-8.5.7-13.6-2.1-3.1-6.4-3.7-9.7-3.7-2.2 0-3.9.3-4.7.4-.6.1-1.1.3-1.7.5-.2.1-.4.1-.6.2-.3-1-1.2-2.9-3.8-3h-.1c-1.4 0-4 .5-5.1 4.1l-.1.3c-.6 1.9-2 6.2-5.5 9-1.4-8.7-8.9-13-16.1-13.4h-.8c-5.6 0-15.4 3.2-18.6 24.5-1.2 8-5.3 14.7-8.9 14.7-.4 0-.7-.1-1.1-.2 0 0-2.6-1.4-1.7-17.2.4-7.5 1.4-14.7 1.9-17.5h5.2c2.4 0 4.3-1.9 4.3-4.3v-.8c0-2.4-1.9-4.3-4.3-4.3h-4.5c.1-1.2.3-3 .5-4.3.3-2.7.6-5.3.5-6.8-.3-3-3.5-6.4-7.3-6.4-1.7 0-3.4.7-4.7 2-1.8 1.7-2.3 5.6-2.8 11.3-.1 1.4-.3 3.1-.5 4.2h-4.9c-2.4 0-4.3 1.9-4.3 4.3v.8c0 2.4 1.9 4.3 4.3 4.3h4c.2 5.7-1.9 31.2-6.6 37l-.2.2c-.1-1.8.2-5.1.5-8 .8-8.7 1.9-20.7-2.4-27.3v-.1l-.1-.1c-.9-1.2-1.9-1.8-3-1.8-.4 0-.8.1-1.1.2-2.3-2.3-5.2-4-8-4.4-.8-.1-1.7-.2-2.5-.2-7 0-12.5 5.3-15.8 14.9-.1-3.3-.4-6.2-.6-8.3l-.1-.7c-.5-3.6-2.5-5.5-6.1-5.7h-.4c-5.4 0-17.8 5.9-19.9 13.6-.8 3-.3 7.3 6.1 11.1v.4c-.5 3-1.4 5.1-3 6.9-1.4 1.7-3.3 2.6-5.1 2.6-.6 0-1.2-.1-1.8-.3h-.2c-1.9-.6-5.9-4.3-8.8-10.6-2.3-5.1-5.4-15.5-.1-27.6 1.2-2.6 6.7-9.2 13.1-9.2.4 0 .8 0 1.2.1 3 .4 3.3 3.7 3.4 3.9.1.4.1.9.1 1.4 0 1.3 0 2.7.8 4.1V64l.1.1c1.2 1.7 2.9 2.7 4.7 2.7h.2c3.4 0 14.5-8.1 14.7-12.1.1-2.3-2.2-5.6-4.4-7.9-2.6-2.8-10-9.2-21.3-9.2-2 0-4.1.2-6.2.6-13.9 2.7-23.4 16.8-25.3 28.7-4.3 26.8 8.1 49 22 54.2 2.3.9 4.9 1.3 7.5 1.3 4 0 7.7-1 10.6-2.8 8.3-5.3 13-11.9 15.6-18.6-.1 7.2 1.4 12.7 4.4 16.3 2.8 3.3 6.7 5 11.5 5 4.3 0 8.5-1.4 10.5-2.9 2.1 1.7 5.3 2.9 8.2 2.9 4.6 0 8-4.5 10.2-8.1 1.6 2.7 4.2 7.1 9.9 8 .4.1.9.1 1.3.1 3.8 0 7.3-2.5 10.6-7.8.5-.9 1-1.7 1.5-2.5 1.1 4.1 3.9 9.8 11.9 10.2h.9c16 0 20.1-23.7 20.9-29.9 6.1-2.2 11-7.4 12.7-9.9.3-.2.6-.3 1.1-.3 1.2 0 2.6.8 3 1.5.2.3.1.5 0 .7-.1.2-11.2 22.4-5.2 32.8 1.3 2.3 4 4.9 9.6 4.9.6 0 1.3 0 1.9-.1 3.5-.3 6.6-2.8 9.5-6 .7 1.7 3.7 4.7 6.6 5.9 4.3 1.8 8.6 2.8 12.9 2.8 4.9 0 9.4-1.3 11.5-3.3 2.6-2.1 5.4-9.9 4.2-13.1zm-18.2.7c-1.9 2.7-4.6 4-8.2 4-1.3 0-2.4-.2-3.3-.3-.3 0-.5-.1-.7-.1-.5-.1-.9-.2-1.3-.2.5-.6 1-1.2 1.5-1.9 1.1-1.4 2.1-2.7 3.1-3.9 1.1-1.4 2.4-3 3.8-4.8 2.1-2.7 5.3-6.9 7.3-9 .7 3.6 1.2 11.5-2.2 16.2zm-67.6-2.6-.1.1c-.3.3-1 .6-1.6.6-1.5 0-2.3-2.6-2.5-3.7v-.2c-1.1-3-1-10.8-.1-14.6.3.4.6.9 1 1.3 2.3 2.6 5.5 4.1 9.5 4.4-.4 2.8-2.4 9.1-6.2 12.1zm6.6-22.1c-.8-.2-1.9-.8-2.9-1.9-1-1.1-1.4-2.1-1.5-2.7.6.2 1.6.7 2.6 1.7.9 1.2 1.5 2.2 1.8 2.9zM170 108c-1 0-1.7-.4-2.4-1.1-2.1-2.3-2.6-7.8-2.1-11.9.9-7.9 3.2-12.6 6.4-12.6 1.3 0 2.5.9 2.8 1.5.9 2 1.6 16.4-2 22.2-1.1 1.7-2.1 1.9-2.7 1.9z" style="fill:#fff"/><path class="st2" d="M147.4 69.8c-6.7-.4-28.6 11.9-12.4 21 .7.5.6 1.1.5 2.3-.5 3-1.5 5.7-3.5 8-2.3 2.6-5.8 4.2-9.3 2.9-6.1-1.9-19.4-20.2-10.2-41.2 1.6-3.7 8.7-11.4 16.5-10.4 3.6.5 5 3.7 5.2 5.7.2 1.5-.1 3.4.6 4.7.7 1 1.8 1.8 3.1 1.8 2.2.2 12.7-7.6 12.7-10.1.2-3.1-10.9-18.1-29.4-14.3-12.4 2.5-21.7 15.3-23.6 27-4.2 25.8 7.7 47 20.7 51.8 5 1.9 11.7 1.5 16.2-1.3 20.9-13.3 17.8-36.2 17-44-.2-1.2-.5-3.7-4.1-3.9zM317.2 108.4c-1.6.5-3.6 4.6-5.2 5.7-.7.5-1.9 1.1-2.2.8 5.7-7.3 8.4-16.1 7.4-25.8-1.5-8.8-8.2-11.9-8-16.3.1-1.6-1.3-3-2.9-3-1.6 0-2.6 1.9-3 2.6-.5.7-1.1 1.8-1.1 1.8-4.3 7.1-7.3 13.8-12.2 22.4-3.9 6.7-5.3 9-9.2 13.6-1.7 2.3-4.2 4.6-6.3 3.9-6.8-2.3 3.9-20.3 6.6-26 1.8-4.4 4.8-8.8 1.8-13.7-2.3-3.4-9-3-12.2-2.4-1.1.2-2.5.9-3.4.9-1.8-.1-.7-3.1-3.2-3.1-2.2 0-2.9 1.8-3.1 2.6-.7 2-2.8 9.5-9.6 12.2.4-10.2-7.7-14.5-14.2-14.8-6.5-.3-14.3 4.1-17.2 22.7-1.4 9.3-6.8 18.4-12.9 16.2-6.6-2.4-1.2-37.5-.9-38.5.1-.4.8-.3 1.5-.4h2.3c1 0 1.9.1 2.5 0h.8c1.2 0 2.1-1 2.1-2.1v-.8c0-1.2-1-2.1-2.1-2.1h-5.6c-.4 0-.7-.1-.9-.2-.9-.6 1-10 .7-12.9-.3-2.7-4.8-6.6-8.5-3.1-2.3 2.2-1.9 15.2-3.2 15.9-.4.2-1.1.2-1.9.2h-4.5c-1.2 0-2.1 1-2.1 2.1v.8c0 1.2 1 2.1 2.1 2.1h4c1 .1 1.8.2 2 .4 1.2 1.8-1.8 43.6-9.8 41.5-3.5-.9 4.1-26.4-2.6-36.7-1.7-2.2-2.3.3-3.2-.5-1.9-2.4-4.7-4.2-7.6-4.7-10.5-1.8-15.7 9.4-17.7 20.5-6.6 36.9 17.8 30.4 22 27.3 1.1-.8 1.3-1.2 1.8-.7 1.6 1.9 4.8 3.2 7.7 3.2 4.1 0 7.3-5.3 9.3-8.5 2.2-3.7 2.8 7.1 11.2 8.4 8 1.3 12.6-13.5 13.8-13.5 1.2.1-.2 12.8 11.2 13.5 16.9 1 19.7-29.3 19.7-29.3 6.7-1.9 11.8-7.7 13-9.6 2.8-3 9.6.7 7.6 4.3-1.8 3.2-16.4 36.4 4.3 34.4 5.8-.6 11-9.1 15.8-14.7 4.3-5.2 11.6-15.6 13.5-15.6 1.6 0 4.1 13.5-1.1 20.6-5.4 7.5-14.3 4-16 4.2-.3 0-.5.4-.4.8.2.7 2.7 3.6 5.4 4.8 10.8 4.6 19.7 2.1 22.1-.1 2.3-2.1 5.6-12.6 1.8-11.3zM170 110.2c-6.5 0-7.3-10-6.7-15.3 2-18.7 11.5-15.3 13.3-11.9 1.6 2.9 2.3 27.1-6.6 27.2zm66.4-2.3c-1.6 1.5-6 2.8-7.6-4.2-1.3-3.7-1.5-17.6 1.7-19.2 1.1-.5 1.9 7.6 12.5 7.4 1.4.1-.9 11.5-6.6 16zm7-21.8c-1.1 1.1-4.3-.1-6.3-2.3-2-2.2-2.7-4.8-1.6-5.9 1.1-1.1 3.7-.2 5.8 2 2 2.2 3.3 5.1 2.1 6.2z"/><path class="st0" d="M336.3 109.7c4.1 0 7.5 3.2 7.5 7.5 0 4.2-3.4 7.5-7.5 7.5s-7.5-3.3-7.5-7.5 3.4-7.5 7.5-7.5zm0 16.4c5 0 8.9-3.9 8.9-8.9s-3.9-8.9-8.9-8.9-8.9 4-8.9 8.9c-.1 5 3.9 8.9 8.9 8.9zm1.5-8.5c1.3 0 2.7-.8 2.7-2.8 0-2.1-1.6-2.7-3.5-2.7h-4.2v10h1.4v-4.6h1.9l2.6 4.6h1.7l-2.6-4.5zm-1-3.9c1.2 0 2.3.1 2.3 1.4 0 1.4-1.9 1.1-3.2 1.1h-1.5v-2.5h2.4z"/><g><path class="st0" d="M97.3 147.4v-.6c.5 0 .8-.1.9-.1l.1-.1c0-.1.1-.5.1-1.1v-5c0-.8-.1-1.4-.1-1.5 0-.1-.1-.1-.1-.1-.1 0-.4-.1-.9-.1v-.6h5.1c.7 0 1.2.1 1.6.2.3.1.6.4.8.7.2.3.3.7.3 1.1 0 .5-.2 1-.5 1.4-.3.4-.8.7-1.6 1.1l1.4 2.1 1.1 1.6c.2.3.4.4.5.5.1.1.3.1.5.1v.5h-2.6c-.4-.6-1-1.5-1.7-2.7l-1.4-2.1c0-.1.1-.2.1-.2h.4c.4 0 .8-.2 1.2-.5.4-.3.6-.8.6-1.4 0-.5-.2-.9-.5-1.2-.3-.3-.8-.4-1.4-.4h-.8v1.9l-.1 2.5c0 .6 0 1.3.1 2.1 0 .7.1 1 .1 1.1 0 .1.1.1.1.1.1.1.4.1.9.1v.6h-2.1c-.7-.1-1.4 0-2.1 0zM107 147.4v-.6c.6 0 .9-.1 1-.2.1-.1.1-.2.1-.5 0-.6.1-1.7.1-3.2v-2.6c0-.8 0-1.2-.1-1.3 0-.1-.1-.1-.1-.2-.1 0-.4-.1-1-.1v-.6H111.3v.6c-.6 0-.9.1-1 .1-.1.1-.1.2-.1.4 0 .4-.1 1.3-.1 2.6v3.6c0 .7.1 1.1.1 1.2 0 .1.1.1.2.1s.4.1.9.1v.6H107zM112.3 147.4v-.6c.5 0 .9-.1.9-.1.1 0 .1-.1.1-.2s.1-.5.1-1.1V140.2c0-.7 0-1.2-.1-1.3 0-.1-.1-.1-.1-.1-.1-.1-.4-.1-1-.2v-.6h2.7c1 1.3 2.2 2.7 3.4 4.2.9 1 1.6 1.9 2.2 2.5v-5.2c0-.4-.1-.7-.1-.8 0-.1-.1-.1-.1-.1-.1 0-.4-.1-.9-.1v-.6h3.2v.6c-.5 0-.8.1-.9.1-.1 0-.1.1-.1.1s-.1.1-.1.2 0 .4-.1 1v7.4l-.1.1c-.5-.1-.9-.2-1.1-.2-1.1-1.3-2.5-2.8-4.1-4.7-.8-1-1.5-1.8-2-2.4v5.1c0 .7 0 1.1.1 1.3l.1.1c.1 0 .4.1.9.1v.6h-1.5c-.1 0-.6.1-1.4.1zM123.5 147.4v-.6c.5 0 .8-.1.9-.1l.1-.1c0-.1.1-.2.1-.4 0-.3.1-1 .1-1.9v-4.5c0-.5-.1-.8-.1-.9 0-.1-.1-.1-.1-.1-.1 0-.4-.1-.9-.1v-.6h4.2v.6c-.6 0-.9.1-1 .1s-.1.2-.2.4v3.3h.1c.4-.4 1.1-1 1.9-1.8.8-.8 1.5-1.5 1.9-2.1v-.4l.1-.1h2.4v.6h-.4c-.3 0-.5.1-.6.1-.2.1-.4.2-.7.5-.4.4-1 .9-1.7 1.5l-1.2 1.1.6.7c.7.9 1.6 1.9 2.6 3 .6.6.9 1 1 1.1.1 0 .3.1.6.1v.6h-2.7c-.4-.5-1-1.2-1.8-2.2-.6-.8-1.2-1.4-1.8-2.1-.1-.1-.1-.1-.2-.1h-.1c-.1 0-.1 0-.1.1v2.5c0 .6 0 .9.1 1 0 .1.1.1.1.1.1 0 .4.1.9.1v.6h-2.2c-.2-.1-.9 0-1.9 0zM134.5 147.4v-.4c.2-.1.4-.2.6-.4.1-.7.1-2.1.1-4.3v-3c0-.3-.1-.4-.1-.5-.1-.1-.4-.1-1-.2v-.6c1 0 1.9.1 2.5.1l3.6-.1h1v.1c-.1.5-.2 1.1-.2 1.9h-.5c0-.6 0-1-.1-1 0 0-.1-.1-.3-.1-.4-.1-.9-.1-1.7-.1h-1.3c-.1 1.4-.1 2.4-.1 3.2h1.3c.6 0 1 0 1.1-.1.1 0 .1-.1.2-.2 0-.1.1-.4.1-.8h.6v3h-.6c0-.6-.1-.9-.1-1 0-.1-.1-.1-.2-.1-.2 0-.7-.1-1.5-.1h-.9v.7c0 1.3 0 2.2.1 2.9h1.3c.7 0 1.4 0 2-.1.1-.4.2-.9.3-1.4h.5c-.1.8-.2 1.5-.2 2.3H136.6c-.5.2-1.3.3-2.1.3zM142.3 147.4v-.6c.5 0 .8-.1.9-.1l.1-.1c0-.1.1-.5.1-1.1v-5c0-.8-.1-1.4-.1-1.5 0-.1-.1-.1-.1-.1-.1 0-.4-.1-.9-.1v-.6h5.1c.7 0 1.2.1 1.6.2.3.1.6.4.8.7.2.3.3.7.3 1.1 0 .5-.2 1-.5 1.4-.3.4-.8.7-1.6 1.1l1.4 2.1 1.1 1.6c.2.3.4.4.5.5.1.1.3.1.5.1v.5h-2.6c-.4-.6-1-1.5-1.7-2.7l-1.4-2.1c0-.1.1-.2.1-.2h.4c.4 0 .8-.2 1.2-.5.4-.3.6-.8.6-1.4 0-.5-.2-.9-.5-1.2-.3-.3-.8-.4-1.4-.4h-.8v1.9l-.1 2.5c0 .6 0 1.3.1 2.1 0 .7.1 1 .1 1.1 0 .1.1.1.1.1.1.1.4.1.9.1v.6h-2.1c-.7-.1-1.4 0-2.1 0zM155.9 144.6h.6c0 .6 0 1 .1 1.1 0 .1.2.3.4.4.2.2.5.3.8.4.3.1.7.2 1.1.2.6 0 1.1-.2 1.5-.5.4-.3.6-.7.6-1.2s-.1-.8-.4-1c-.2-.2-.7-.4-1.4-.5-1-.1-1.7-.3-2.1-.5-.4-.2-.6-.4-.9-.8-.2-.4-.3-.8-.3-1.3 0-.8.3-1.5.9-2.1.6-.6 1.5-.9 2.8-.9.5 0 .9 0 1.3.1s.8.2 1.2.4l.1.2c-.1.3-.1.5-.1.8 0 .2-.1.6-.1 1.2h-.6c0-.7-.1-1.1-.1-1.1-.1-.1-.3-.3-.6-.5s-.7-.2-1.2-.2c-.6 0-1.1.1-1.4.4-.3.3-.5.7-.5 1.1 0 .3.1.5.2.7.1.2.3.4.6.5.2.1.8.2 1.6.3.7.1 1.2.2 1.5.3.4.2.7.4 1 .8.2.4.3.8.3 1.3 0 .9-.4 1.7-1.1 2.3-.7.6-1.7.9-2.9.9-.5 0-1-.1-1.5-.2-.4-.1-.9-.3-1.4-.5.1-.3.1-.6.2-.8-.2-.2-.2-.7-.2-1.3zM172.4 146l.2.2c-.1.2-.2.4-.3.7-.5.3-1 .5-1.5.6-.5.1-1 .2-1.6.2-1.2 0-2.1-.2-2.9-.6-.8-.4-1.4-1-1.8-1.7-.4-.7-.6-1.6-.6-2.5 0-1.4.5-2.5 1.5-3.4 1-.9 2.3-1.3 4-1.3.6 0 1.1.1 1.7.2.6.1 1.1.3 1.7.5v.1c-.1.2-.1.5-.2.7-.1.4-.1.9-.1 1.4h-.6c0-.7-.1-1.1-.1-1.1 0-.1-.1-.2-.4-.3-.2-.2-.5-.3-.9-.4-.4-.1-.8-.2-1.2-.2-1.1 0-1.9.3-2.5 1-.6.7-.9 1.6-.9 2.7 0 1.3.4 2.3 1.1 3.1.7.7 1.6 1.1 2.8 1.1.5 0 .9 0 1.3-.1.3-.5.8-.7 1.3-.9zM173.4 147.4v-.6c.6 0 .9-.1 1-.1.1-.1.1-.2.2-.3 0-.2.1-.9.1-1.8V141c0-1.2 0-1.9-.1-2 0-.1-.1-.1-.1-.2-.1-.1-.4-.1-1-.1v-.6H177.8v.6c-.5 0-.9.1-1 .1-.1 0-.1.1-.1.1 0 .1-.1.3-.1.8v2.4h4.1v-2.8c0-.3-.1-.4-.1-.5-.1-.1-.4-.1-1-.2v-.6H183.9v.6c-.6 0-.9.1-1 .1-.1 0-.1.1-.1.1 0 .1-.1.5-.1 1.1v5.3c0 .7 0 1.1.1 1.2 0 .1.1.2.2.2s.4.1 1 .1v.6h-4.3v-.6c.6 0 .9-.1 1-.1.1-.1.1-.2.1-.5 0-.5.1-1.6.1-3.2h-4.1v3c0 .4.1.6.2.7.1.1.4.1 1 .2v.6h-4.6zM189.8 147.5c-1.6 0-2.9-.4-3.7-1.2-.9-.8-1.3-2-1.3-3.4 0-1 .2-1.9.6-2.6.4-.7 1-1.3 1.7-1.6.7-.4 1.7-.6 2.9-.6 1.1 0 2 .2 2.8.6.7.4 1.3.9 1.6 1.5.4.7.6 1.5.6 2.4 0 1-.2 1.9-.6 2.7-.4.8-1 1.3-1.8 1.7-.9.3-1.8.5-2.8.5zm.2-.7c.9 0 1.6-.3 2.1-1s.8-1.6.8-3-.3-2.5-.9-3.2c-.5-.6-1.2-.9-2.3-.9-.9 0-1.7.3-2.2.9-.5.6-.8 1.6-.8 2.9 0 .9.1 1.7.4 2.4.3.7.6 1.1 1.1 1.4.5.4 1.1.5 1.8.5zM201 147.5c-1.6 0-2.9-.4-3.7-1.2-.9-.8-1.3-2-1.3-3.4 0-1 .2-1.9.6-2.6.4-.7 1-1.3 1.7-1.6.7-.4 1.7-.6 2.9-.6 1.1 0 2 .2 2.8.6.7.4 1.3.9 1.6 1.5.4.7.6 1.5.6 2.4 0 1-.2 1.9-.6 2.7-.4.8-1 1.3-1.8 1.7-.8.3-1.7.5-2.8.5zm.3-.7c.9 0 1.6-.3 2.1-1s.8-1.6.8-3-.3-2.5-.9-3.2c-.5-.6-1.2-.9-2.3-.9-.9 0-1.7.3-2.2.9-.5.6-.8 1.6-.8 2.9 0 .9.1 1.7.4 2.4.3.7.6 1.1 1.1 1.4.5.4 1 .5 1.8.5zM207.6 147.4v-.3c.2-.1.5-.2.7-.4.1-1.2.1-2.4.1-3.7v-2.9c0-.6 0-1-.1-1.1 0-.1-.1-.1-.1-.1-.1 0-.4-.1-1-.1v-.6h4.4v.6c-.6 0-1 .1-1 .2-.1 0-.1.1-.1.2s0 .8-.1 2.1V146.6h1.3c.8 0 1.5-.1 2.1-.2.1-.4.2-.9.3-1.4h.6c-.1.6-.2 1.4-.3 2.4H209.7c-.5-.1-1.2 0-2.1 0zM223.9 147.5c-1.6 0-2.9-.4-3.7-1.2-.9-.8-1.3-2-1.3-3.4 0-1 .2-1.9.6-2.6.4-.7 1-1.3 1.7-1.6.7-.4 1.7-.6 2.9-.6 1.1 0 2 .2 2.8.6.7.4 1.3.9 1.6 1.5.4.7.6 1.5.6 2.4 0 1-.2 1.9-.6 2.7-.4.8-1 1.3-1.8 1.7-.8.3-1.7.5-2.8.5zm.2-.7c.9 0 1.6-.3 2.1-1s.8-1.6.8-3-.3-2.5-.9-3.2c-.5-.6-1.2-.9-2.3-.9-.9 0-1.7.3-2.2.9-.5.6-.8 1.6-.8 2.9 0 .9.1 1.7.4 2.4.3.7.6 1.1 1.1 1.4.6.4 1.1.5 1.8.5zM230.1 147.4v-.6c.6 0 .9 0 1-.1.1-.1.1-.2.1-.5.1-.9.1-1.8.1-3v-2.7c0-1-.1-1.5-.1-1.6 0-.1-.1-.1-.1-.1-.1 0-.4-.1-.9-.1v-.6h6.8l.1.1c-.1.6-.1 1.2-.2 1.9h-.6l-.1-.7c0-.2 0-.4-.1-.4 0-.1-.2-.1-.5-.2s-.7-.1-1.2-.1c-.4 0-.8 0-1.2.1 0 .7-.1 1.3-.1 1.6v1.7h2.2c.1 0 .1-.1.2-.1 0-.1.1-.4.1-.8h.6v2.9h-.6c0-.6-.1-.9-.1-1 0-.1-.1-.1-.2-.1-.2-.1-.6-.1-1.3-.1h-.9v2.5c0 .6 0 1 .1 1.1 0 .1.1.1.1.1.1 0 .5.1 1.1.1v.6h-2c-.4 0-1.2.1-2.3.1zM106 162.2l.2.2c-.1.2-.2.4-.3.7-.5.3-1 .5-1.5.6-.5.1-1 .2-1.6.2-1.2 0-2.1-.2-2.9-.6-.8-.4-1.4-1-1.8-1.7-.4-.7-.6-1.6-.6-2.5 0-1.4.5-2.5 1.5-3.4 1-.9 2.3-1.3 4-1.3.6 0 1.1.1 1.7.2.6.1 1.1.3 1.7.5v.1c-.1.2-.1.5-.2.7-.1.4-.1.9-.1 1.4h-.6c0-.7-.1-1.1-.1-1.1 0-.1-.1-.2-.4-.3-.2-.2-.5-.3-.9-.4-.4-.1-.8-.2-1.2-.2-1.1 0-1.9.3-2.5 1-.6.7-.9 1.6-.9 2.7 0 1.3.4 2.3 1.1 3.1.7.7 1.6 1.1 2.8 1.1.5 0 .9 0 1.3-.1.3-.5.8-.7 1.3-.9zM112.1 163.7c-1.6 0-2.9-.4-3.7-1.2-.9-.8-1.3-2-1.3-3.4 0-1 .2-1.9.6-2.6.4-.7 1-1.3 1.7-1.6.7-.4 1.7-.6 2.9-.6 1.1 0 2 .2 2.8.6.7.4 1.3.9 1.6 1.5.4.7.6 1.5.6 2.4 0 1-.2 1.9-.6 2.7-.4.8-1 1.3-1.8 1.7-.8.3-1.7.5-2.8.5zm.2-.7c.9 0 1.6-.3 2.1-1s.8-1.6.8-3-.3-2.5-.9-3.2c-.5-.6-1.2-.9-2.3-.9-.9 0-1.7.3-2.2.9-.5.6-.8 1.6-.8 2.9 0 .9.1 1.7.4 2.4s.6 1.1 1.1 1.4c.6.4 1.1.5 1.8.5zM118.3 163.6v-.6c.5 0 .9-.1.9-.1.1 0 .1-.1.1-.2s.1-.5.1-1.1V156.4c0-.7 0-1.2-.1-1.3 0-.1-.1-.1-.1-.1-.1-.1-.4-.1-1-.2v-.6h2.7c1 1.3 2.2 2.7 3.4 4.2.9 1 1.6 1.9 2.2 2.5v-5.2c0-.4-.1-.7-.1-.8 0-.1-.1-.1-.1-.1-.1 0-.4-.1-.9-.1v-.6h3.2v.6c-.5 0-.8.1-.9.1-.1 0-.1.1-.1.1s-.1.1-.1.2 0 .4-.1 1v7.4l-.1.1c-.5-.1-.9-.2-1.1-.2-1.1-1.3-2.5-2.8-4.1-4.7-.8-1-1.5-1.8-2-2.4v5.1c0 .7 0 1.1.1 1.3l.1.1c.1 0 .4.1.9.1v.6h-1.5c-.1.1-.6.1-1.4.1zM130 160.8h.6c0 .6 0 1 .1 1.1 0 .1.2.3.4.4.2.2.5.3.8.4.3.1.7.2 1.1.2.6 0 1.1-.2 1.5-.5.4-.3.6-.7.6-1.2s-.1-.8-.4-1c-.3-.2-.7-.4-1.4-.5-1-.1-1.7-.3-2.1-.5-.4-.2-.6-.4-.9-.8-.2-.4-.3-.8-.3-1.3 0-.8.3-1.5.9-2.1.6-.6 1.5-.9 2.8-.9.5 0 .9 0 1.3.1s.8.2 1.2.4l.1.2c-.1.3-.1.5-.1.8 0 .2-.1.6-.1 1.2h-.6c0-.7-.1-1.1-.1-1.1-.1-.1-.3-.3-.6-.5s-.7-.2-1.2-.2c-.6 0-1.1.1-1.4.4-.3.3-.5.7-.5 1.1 0 .3.1.5.2.7.1.2.3.4.6.5.2.1.8.2 1.6.3.7.1 1.2.2 1.5.3.4.2.7.4 1 .8.2.4.3.8.3 1.3 0 .9-.4 1.7-1.1 2.3-.7.6-1.7.9-2.9.9-.5 0-1-.1-1.5-.2-.4-.1-.9-.3-1.4-.5.1-.3.1-.6.2-.8-.2-.2-.2-.7-.2-1.3zM139.6 163.6v-.6c.3 0 .5 0 .8-.1.1 0 .2-.1.3-.1.1-.1.1-.1.1-.3 0-.2.1-.9.1-2.1V155.1s-.2-.1-.5-.1c-.6 0-1.1 0-1.6.1-.3 0-.4 0-.4.1l-.1.1c0 .1-.1.4-.1 1.2h-.6c0-.8 0-1.6-.1-2.2l.1-.1c1.4.1 2.7.1 4 .1 1.3 0 2.8 0 4.4-.1l.1.1c-.1.6-.1 1.3-.2 2.1h-.5c0-.7-.1-1.1-.1-1.2 0 0-.1-.1-.2-.1-.4-.1-1.1-.1-2.1-.1h-.2V162.2c0 .3.1.5.2.5s.4.1 1 .1v.6h-2.1c-1 .2-1.7.2-2.3.2zM146.8 163.6v-.6c.5 0 .8-.1.9-.1l.1-.1c0-.1.1-.5.1-1.1v-5c0-.8-.1-1.4-.1-1.5 0-.1-.1-.1-.1-.1-.1 0-.4-.1-.9-.1v-.6h5.1c.7 0 1.2.1 1.6.2.3.1.6.4.8.7.2.3.3.7.3 1.1 0 .5-.2 1-.5 1.4-.3.4-.8.7-1.6 1.1l1.4 2.1 1.1 1.6c.2.3.4.4.5.5.1.1.3.1.5.1v.5h-2.6c-.4-.6-1-1.5-1.7-2.7l-1.4-2.1c0-.1.1-.2.1-.2h.4c.4 0 .8-.2 1.2-.5.4-.3.6-.8.6-1.4 0-.5-.2-.9-.5-1.2-.3-.3-.8-.4-1.4-.4h-.8v1.9l-.1 2.5c0 .6 0 1.3.1 2.1 0 .7.1 1 .1 1.1 0 .1.1.1.1.1.1.1.4.1.9.1v.6h-4.2zM156.4 154.9v-.6h4.2v.6c-.4 0-.7 0-.9.1-.1 0-.1.1-.1.1 0 .1-.1.2-.1.3 0 .2 0 1-.1 2.1v2.5c0 .7.1 1.2.2 1.5.2.3.4.6.7.7.4.2.9.3 1.4.3.7 0 1.2-.1 1.6-.3.4-.2.6-.6.8-1s.2-1.3.2-2.7v-2.4c0-.5 0-.9-.1-1 0-.1-.1-.1-.1-.1-.1-.1-.4-.1-1-.1v-.6h3.1v.6c-.4 0-.7 0-.8.1-.1.1-.2.3-.2.8 0 1-.1 2.1-.1 3.3v1.6c0 .6-.2 1.1-.4 1.6-.2.4-.7.8-1.2 1.1-.6.3-1.3.4-2.1.4-.9 0-1.6-.1-2.2-.4-.6-.3-1-.6-1.2-1-.2-.4-.4-1-.4-1.8v-4.8c0-.3 0-.5-.1-.6 0-.1-.1-.1-.2-.1-.1-.1-.4-.2-.9-.2zM175.7 162.2l.2.2c-.1.2-.2.4-.3.7-.5.3-1 .5-1.5.6-.5.1-1 .2-1.6.2-1.2 0-2.1-.2-2.9-.6-.8-.4-1.4-1-1.8-1.7-.4-.7-.6-1.6-.6-2.5 0-1.4.5-2.5 1.5-3.4 1-.9 2.3-1.3 4-1.3.6 0 1.1.1 1.7.2.6.1 1.1.3 1.7.5v.1c-.1.2-.1.5-.2.7-.1.4-.1.9-.1 1.4h-.6c0-.7-.1-1.1-.1-1.1 0-.1-.1-.2-.4-.3-.2-.2-.5-.3-.9-.4-.4-.1-.8-.2-1.2-.2-1.1 0-1.9.3-2.5 1-.6.7-.9 1.6-.9 2.7 0 1.3.4 2.3 1.1 3.1.7.7 1.6 1.1 2.8 1.1.5 0 .9 0 1.3-.1.4-.5.9-.7 1.3-.9zM178.6 163.6v-.6c.3 0 .5 0 .8-.1.1 0 .2-.1.3-.1.1-.1.1-.1.1-.3 0-.2.1-.9.1-2.1V155.1s-.2-.1-.5-.1c-.6 0-1.1 0-1.6.1-.3 0-.4 0-.4.1l-.1.1c0 .1-.1.4-.1 1.2h-.6c0-.8 0-1.6-.1-2.2l.1-.1c1.4.1 2.7.1 4 .1 1.3 0 2.8 0 4.4-.1l.1.1c-.1.6-.1 1.3-.2 2.1h-.5c0-.7-.1-1.1-.1-1.2 0 0-.1-.1-.2-.1-.4-.1-1.1-.1-2.1-.1h-.2V162.2c0 .3.1.5.2.5s.4.1 1 .1v.6h-2.1c-.9.2-1.7.2-2.3.2zM185.8 163.6v-.6c.6 0 .9-.1 1-.2.1-.1.1-.2.1-.5 0-.6.1-1.7.1-3.2v-2.6c0-.8 0-1.2-.1-1.3 0-.1-.1-.1-.1-.2-.1 0-.4-.1-1-.1v-.6H190.1v.6c-.6 0-.9.1-1 .1-.1.1-.1.2-.1.4 0 .4-.1 1.3-.1 2.6v3.6c0 .7.1 1.1.1 1.2 0 .1.1.1.2.1s.4.1.9.1v.6H185.8zM196.1 163.7c-1.6 0-2.9-.4-3.7-1.2-.9-.8-1.3-2-1.3-3.4 0-1 .2-1.9.6-2.6.4-.7 1-1.3 1.7-1.6.7-.4 1.7-.6 2.9-.6 1.1 0 2 .2 2.8.6.7.4 1.3.9 1.6 1.5.4.7.6 1.5.6 2.4 0 1-.2 1.9-.6 2.7-.4.8-1 1.3-1.8 1.7-.8.3-1.7.5-2.8.5zm.3-.7c.9 0 1.6-.3 2.1-1s.8-1.6.8-3-.3-2.5-.9-3.2c-.5-.6-1.2-.9-2.3-.9-.9 0-1.7.3-2.2.9-.5.6-.8 1.6-.8 2.9 0 .9.1 1.7.4 2.4s.6 1.1 1.1 1.4c.5.4 1.1.5 1.8.5zM202.3 163.6v-.6c.5 0 .9-.1.9-.1.1 0 .1-.1.1-.2s.1-.5.1-1.1V156.4c0-.7 0-1.2-.1-1.3 0-.1-.1-.1-.1-.1-.1-.1-.4-.1-1-.2v-.6h2.7c1 1.3 2.2 2.7 3.4 4.2.9 1 1.6 1.9 2.2 2.5v-5.2c0-.4-.1-.7-.1-.8 0-.1-.1-.1-.1-.1-.1 0-.4-.1-.9-.1v-.6h3.2v.6c-.5 0-.8.1-.9.1-.1 0-.1.1-.1.1s-.1.1-.1.2 0 .4-.1 1v7.4l-.1.1c-.5-.1-.9-.2-1.1-.2-1.1-1.3-2.5-2.8-4.1-4.7-.8-1-1.5-1.8-2-2.4v5.1c0 .7 0 1.1.1 1.3l.1.1c.1 0 .4.1.9.1v.6h-1.5c0 .1-.6.1-1.4.1zM216.9 163.6v-.6h.4c.3 0 .5-.1.6-.2.1-.1.1-.4.1-.9v-5.8c0-.5 0-.8-.1-.9 0-.1-.1-.1-.1-.1-.1 0-.4-.1-.9-.1v-.6h3.3c.2.6.5 1.1.7 1.7.2.4 1 2 2.4 5 1.5-3 2.5-5.2 3.1-6.6h3.1v.6c-.6 0-.9.1-1 .2-.1.1-.1.3-.1.6v5.7c0 .9 0 1.4.1 1.5 0 .1.1.1.1.2s.4.1.9.1v.6H225.3v-.6h.4c.3 0 .5-.1.6-.1.1-.1.1-.3.1-.6v-6.2c-.7 1.4-1.5 3.1-2.6 5.3-.4.9-.8 1.6-1 2.2h-.4c-.3-.8-.8-1.7-1.3-2.9l-2.3-4.7v6c0 .4.1.6.2.7.1.1.4.1 1 .2v.6h-1.3c-.7-.3-1.3-.3-1.8-.3zM230.4 163c.4 0 .7-.1.8-.1.1 0 .2-.2.3-.5.3-.6.6-1.4 1-2.4l2.3-5.7h1l3 7.1c.4.9.6 1.4.7 1.5.1.1.4.1.8.2v.6h-4.2v-.7c.5 0 .8-.1.9-.1.1 0 .1-.1.1-.2s-.1-.4-.3-.8l-.4-1.1H233l-.3.7c-.1.2-.2.5-.3.9v.2c0 .1 0 .2.1.2s.4.1.9.1v.6h-3.1v-.5zm4.3-6.4-1.4 3.4h2.8l-1.4-3.4zM240.9 163.6v-.6c.5 0 .9-.1.9-.1.1 0 .1-.1.1-.2s.1-.5.1-1.1V156.4c0-.7 0-1.2-.1-1.3 0-.1-.1-.1-.1-.1-.1-.1-.4-.1-1-.2v-.6h2.7c1 1.3 2.2 2.7 3.4 4.2.9 1 1.6 1.9 2.2 2.5v-5.2c0-.4-.1-.7-.1-.8 0-.1-.1-.1-.1-.1-.1 0-.4-.1-.9-.1v-.6h3.2v.6c-.5 0-.8.1-.9.1-.1 0-.1.1-.1.1s-.1.1-.1.2 0 .4-.1 1v7.4l-.1.1c-.5-.1-.9-.2-1.1-.2-1.1-1.3-2.5-2.8-4.1-4.7-.8-1-1.5-1.8-2-2.4v5.1c0 .7 0 1.1.1 1.3l.1.1c.1 0 .4.1.9.1v.6h-1.5c0 .1-.5.1-1.4.1zM252.2 163c.4 0 .7-.1.8-.1.1 0 .2-.2.3-.5.3-.6.6-1.4 1-2.4l2.3-5.7h1l3 7.1c.4.9.6 1.4.7 1.5.1.1.4.1.8.2v.6h-4.2v-.7c.5 0 .8-.1.9-.1.1 0 .1-.1.1-.2s-.1-.4-.3-.8l-.4-1.1H254.8l-.3.7c-.1.2-.2.5-.3.9v.2c0 .1 0 .2.1.2s.4.1.9.1v.6h-3.1v-.5zm4.3-6.4-1.4 3.4h2.8l-1.4-3.4zM268.8 160.4v-.5h4v.4c-.2.1-.4.1-.6.2-.1.4-.1.8-.1 1.1 0 .2 0 .7.1 1.3-.9.3-1.6.5-2.2.6-.6.1-1.2.2-1.8.2-1.7 0-3-.4-4-1.3s-1.4-2-1.4-3.4.5-2.6 1.5-3.5c1-.9 2.4-1.3 4.2-1.3.6 0 1.3.1 1.9.2.6.1 1.2.3 1.7.5l.1.1c-.1.6-.2 1.3-.3 2.1h-.6c0-.4 0-.8-.1-1.1-.3-.3-.6-.6-1.1-.7-.4-.2-1-.2-1.6-.2-1.1 0-2 .3-2.7 1-.7.7-1 1.6-1 2.8 0 1.3.4 2.3 1.1 3.1.7.8 1.6 1.2 2.6 1.2.5 0 1.1-.1 1.8-.4 0-.3.1-.7.1-1 0-.7 0-1.1-.1-1.1-.1-.2-.6-.3-1.5-.3zM274.4 163.6v-.4c.2-.1.4-.2.6-.4.1-.7.1-2.1.1-4.3v-3c0-.3-.1-.4-.1-.5-.1-.1-.4-.1-1-.2v-.6c1 0 1.9.1 2.5.1l3.6-.1h1v.1c-.1.5-.2 1.1-.2 1.9h-.5c0-.6 0-1-.1-1 0 0-.1-.1-.3-.1-.4-.1-.9-.1-1.7-.1H277c-.1 1.4-.1 2.4-.1 3.2h1.3c.6 0 1 0 1.1-.1.1 0 .1-.1.2-.2 0-.1.1-.4.1-.8h.6v3h-.6c0-.6-.1-.9-.1-1 0-.1-.1-.1-.2-.1-.2 0-.7-.1-1.5-.1h-.9v.7c0 1.3 0 2.2.1 2.9h1.3c.7 0 1.4 0 2-.1.1-.4.2-.9.3-1.4h.5c-.1.8-.2 1.5-.2 2.3H276.5c-.5.3-1.3.3-2.1.3zM282.2 163.6v-.6h.4c.3 0 .5-.1.6-.2.1-.1.1-.4.1-.9v-5.8c0-.5 0-.8-.1-.9 0-.1-.1-.1-.1-.1-.1 0-.4-.1-.9-.1v-.6h3.3c.2.6.5 1.1.7 1.7.2.4 1 2 2.4 5 1.5-3 2.5-5.2 3.1-6.6h3.1v.6c-.6 0-.9.1-1 .2-.1.1-.1.3-.1.6v5.7c0 .9 0 1.4.1 1.5 0 .1.1.1.1.2s.4.1.9.1v.6H290.6v-.6h.4c.3 0 .5-.1.6-.1.1-.1.1-.3.1-.6v-6.2c-.7 1.4-1.5 3.1-2.6 5.3-.4.9-.8 1.6-1 2.2h-.4c-.3-.8-.8-1.7-1.3-2.9l-2.3-4.7v6c0 .4.1.6.2.7.1.1.4.1 1 .2v.6H284c-.7-.3-1.3-.3-1.8-.3zM296.2 163.6v-.4c.2-.1.4-.2.6-.4.1-.7.1-2.1.1-4.3v-3c0-.3-.1-.4-.1-.5-.1-.1-.4-.1-1-.2v-.6c1 0 1.9.1 2.5.1l3.6-.1h1v.1c-.1.5-.2 1.1-.2 1.9h-.5c0-.6 0-1-.1-1 0 0-.1-.1-.3-.1-.4-.1-.9-.1-1.7-.1h-1.3c-.1 1.4-.1 2.4-.1 3.2h1.3c.6 0 1 0 1.1-.1.1 0 .1-.1.2-.2 0-.1.1-.4.1-.8h.6v3h-.6c0-.6-.1-.9-.1-1 0-.1-.1-.1-.2-.1-.2 0-.7-.1-1.5-.1h-.9v.7c0 1.3 0 2.2.1 2.9h1.3c.7 0 1.4 0 2-.1.1-.4.2-.9.3-1.4h.5c-.1.8-.2 1.5-.2 2.3H298.3c-.5.3-1.3.3-2.1.3zM304 163.6v-.6c.5 0 .9-.1.9-.1.1 0 .1-.1.1-.2s.1-.5.1-1.1V156.4c0-.7 0-1.2-.1-1.3 0-.1-.1-.1-.1-.1-.1-.1-.4-.1-1-.2v-.6h2.7c1 1.3 2.2 2.7 3.4 4.2.9 1 1.6 1.9 2.2 2.5v-5.2c0-.4-.1-.7-.1-.8 0-.1-.1-.1-.1-.1-.1 0-.4-.1-.9-.1v-.6h3.2v.6c-.5 0-.8.1-.9.1-.1 0-.1.1-.1.1s-.1.1-.1.2 0 .4-.1 1v7.4l-.1.1c-.5-.1-.9-.2-1.1-.2-1.1-1.3-2.5-2.8-4.1-4.7-.8-1-1.5-1.8-2-2.4v5.1c0 .7 0 1.1.1 1.3l.1.1c.1 0 .4.1.9.1v.6h-1.5c-.1.1-.6.1-1.4.1zM317 163.6v-.6c.3 0 .5 0 .8-.1.1 0 .2-.1.3-.1.1-.1.1-.1.1-.3 0-.2.1-.9.1-2.1V155.1s-.2-.1-.5-.1c-.6 0-1.1 0-1.6.1-.3 0-.4 0-.4.1l-.1.1c0 .1-.1.4-.1 1.2h-.6c0-.8 0-1.6-.1-2.2l.1-.1c1.4.1 2.7.1 4 .1 1.3 0 2.8 0 4.4-.1l.1.1c-.1.6-.1 1.3-.2 2.1h-.5c0-.7-.1-1.1-.1-1.2 0 0-.1-.1-.2-.1-.4-.1-1.1-.1-2.1-.1h-.2V162.2c0 .3.1.5.2.5s.4.1 1 .1v.6h-2.1c-.9.2-1.7.2-2.3.2z"/></g></svg>