<svg version="1.1" id="Layer_2" xmlns="http://www.w3.org/2000/svg" x="0" y="0" width="864" height="301" style="enable-background:new 0 0 864 301" xml:space="preserve"><style>.st0{fill:#d59f0f}</style><path class="st0" d="M307.7 77.4h138.4v5H307.7zM219.3 61.9h183.2v3.6H219.3zM268.2 47.6h249.1v2.3H268.2z"/><path d="m360 177.6 27.3-67.5c4.1-10.1 6-11.6 14.3-11.6V96H368v2.4c9.9.3 17.2 2 15 7.3l-24.1 59.4-17.8-39.9 8.7-20c2.2-4.9 10.5-6.8 19-6.8V96h-64.9v2.4c7.2 0 15 1 17.7 7.3l11 25.2-14.7 34.2-24.7-58.6c-2.3-5.4.1-8.1 6.5-8.1h6V96h-38.9v2.4h.8c8.7 0 12 1.4 16 11.1l28.3 68.1h6.7l17.1-39.5 17.8 39.5h6.5zM338 118l-6.8-14.8c-1.6-3.5.3-4.7 3.8-4.7h5.7c3.9 0 4.9 2 3.4 5.5l-6.1 14zM418.2 159.3l3.8 9.5c1.6 4 .9 6.2-4.1 6.2H415v3.2h26.5V175c-4.2-.3-6-2-8.1-7.3l-16.3-41.4H405l.9 2.4-13.9 38.7c-2 5.7-4.1 7.5-8 7.5h-1.2v3.2h21.6v-3.2h-1.1c-7.8 0-7.9-2-6.4-6.1l3.4-9.5h17.9zm-1.9-4.5H402l6.8-19.1 7.5 19.1zM479.6 131.6h9.6c6.3 0 7.2 1.1 8.8 9.6h3.3l-1.5-15.2h-2.6c-1.3 1.2-1.7 1.4-3.9 1.4h-38.8c-1.1 0-1.8-.1-2.4-.2-.5-.2-.9-.6-1.5-1.1H448l-1.5 15.2h3.3c1.5-8.6 2.5-9.6 8.8-9.6h9.6v37.2c0 4.3-1.8 6.1-6.3 6.1h-2.8v3.2h29.3V175h-2c-5.8 0-7.1-1.9-7.1-6.1v-37.3h.3zM556 139.2h3.1l-.8-11.8h-44.9v3.2h.8c5.6 0 7.1 1.5 7.1 5.9V169c0 4-1.6 5.9-6.4 5.9h-3.3v3.2h49l1-12.8h-3.1c-1.5 6.8-4.1 8.3-9.4 8.3h-13.6c-2.4 0-3-.7-3-4.2v-14.7h12c6.3 0 7.3 1.5 7.3 5.9h3.3v-16.2h-3.3c0 4.3-1.6 5.9-6.1 5.9h-13.2V132h17.8c3.8-.1 4.9 1.7 5.7 7.2zM594.7 156.6h6.4c5.2 4.5 9.9 13 14 17.1 3.8 3.8 8 5.3 18.1 5.3 2.4 0 3.3 0 5.1-.1v-3.2c-5.1-.5-7.4-1.5-10.8-4.8-5.8-5.8-8.6-12.2-14-16.7 7.6-2 12.1-6.9 12.1-13.1 0-3.5-1.2-6.6-3.9-9.3-4.1-4.1-10.6-5.6-22.6-5.6-2.9 0-8.8.2-13.4.6-3.3.2-6.4.4-10.5.7v3.2h1.7c5.5 0 6.5 2.3 6.5 6.2V169c0 4.7-2.1 5.9-7.1 5.9H575v3.2h28.5v-3.2h-2.4c-4.6 0-6.4-1.8-6.4-5.9v-12.4zm0-26.9h4.2c7.9 0 14.5 3.1 14.5 11.7 0 8.7-5.7 11.7-15.6 11.7h-3.2v-23.4h.1zM649.6 177.9h2.1c.4-.9 1-1.3 1.7-1.3 1.5 0 7.4 2.6 13.9 2.6 9.7 0 17.4-6.7 17.4-15.2 0-3.9-1.3-7.4-4.6-10.8-9.1-9.1-22.6-10.5-22.6-18 0-3.2 3.4-5.6 8-5.6 6.3 0 11.5 4.3 13.3 10.9h3.3l-1.5-13.2h-1.7c-.7.7-1.2.9-1.8.9-1.2 0-6.1-2.1-12.4-2.1-9.7 0-16.5 5.5-16.5 13.3 0 16.1 26.2 15.7 26.2 27.9 0 4.6-4.1 8-9.5 8-6.4 0-11.2-4.2-13.9-12.2h-3.2l1.8 14.8zM112.8 131.6h9.6c6.3 0 7.3 1.1 8.8 9.6h4.3l-2.4-15.2h-2.6c-1.3 1.2-1.7 1.4-3.9 1.4H87.8c-1.1 0-1.8-.1-2.4-.2-.5-.2-.9-.6-1.5-1.1h-2.6l-1.5 15.2h3.3c1.5-8.6 2.5-9.6 8.8-9.6h9.6v37.2c0 4.3-1.8 6.1-6.3 6.1h-2.8v3.2h29.3V175h-2c-5.8 0-7.1-1.9-7.1-6.1v-37.3h.2zM182.4 174.9v3.2h26.1v-3.2h-1.3c-4.7 0-6.3-1.9-6.3-6.1v-32.3c0-4.4 2-6 6.1-6h1.5v-3.2h-26.1v3.2h.7c4.7 0 6.5 1.6 6.5 6.2v12.6h-26.9v-12.8c0-4.6 2.1-6 6.4-6h1.1v-3.2H144v3.2h1.3c4.3 0 6.1 1.9 6.1 6V169c0 4.1-1.9 6-6 6H144v3.2h26.2V175H169c-4.6 0-6.3-1.8-6.3-6.1v-14.7h26.9v14.5c0 4.4-1.8 6.3-6.1 6.3h-1.1v-.1zM261.1 139.2h3.1l-.8-11.8h-44.9v3.2h.8c5.6 0 7.1 1.5 7.1 6V169c0 4-1.6 5.9-6.4 5.9h-3.3v3.2h49.1l1-12.8h-3.1c-1.5 6.8-4.1 8.3-9.4 8.3h-13.6c-2.4 0-3-.7-3-4.2v-14.7h12c6.3 0 7.3 1.5 7.3 5.9h3.3v-16.2H257c0 4.3-1.6 5.9-6.1 5.9h-13.2V132h17.9c3.7-.1 4.7 1.7 5.5 7.2z"/><g><path class="st0" d="M756.7 210.4c0 1.5 1.1 2 2.4 2 .8 0 2-.4 2-1.5 0-.9-.9-1.2-1.5-1.4l-1.7-.4c-.9-.2-1.7-.6-1.7-1.8 0-.7.5-2.1 2.6-2.1 1.5 0 2.8.8 2.8 2.3h-.7c0-1.1-1-1.7-2.1-1.7-1 0-1.9.4-1.9 1.5 0 .7.5 1 1.1 1.1l1.8.5c1.1.3 1.9.7 1.9 2 0 .5-.2 2.1-2.9 2.1-1.8 0-3.1-.8-3-2.6h.9zM762.9 205.4h1.1l2.6 6.6 2.6-6.6h1.1v7.5h-.7v-6.5l-2.6 6.5h-.7l-2.6-6.5v6.5h-.7v-7.5z"/></g><g><path class="st0" d="M372 204.9c10.5 0 17.9 6.6 17.9 15.9 0 8.9-6.9 16.9-18.8 16.9-11.5 0-18.2-7.4-18.2-15.8-.1-9.9 7.9-17 19.1-17zm.2 30.6c7 0 10.2-6 10.2-12.9 0-8.1-4-15.6-11.6-15.6-6.4 0-10.5 4.9-10.5 12.5 0 9.6 4.8 16 11.9 16zM403 219.9h7c3.5 0 4.4-.8 4.4-3.7h2v10h-2c0-2.4-.8-3.5-3.5-3.5H403v8c0 3.6.6 4.4 3.4 4.4h1v2h-15v-2h.8c2.1 0 3-.7 3-2.9v-20.3c0-3.2-.9-4.1-3.1-4.1h-.7v-1.9h25.3v7.1h-1.8c-.2-3.3-.9-4.3-3.2-4.3H403v11.2zM458.5 204.9c10.5 0 17.9 6.6 17.9 15.9 0 8.9-6.9 16.9-18.8 16.9-11.5 0-18.2-7.4-18.2-15.8 0-9.9 8-17 19.1-17zm.2 30.6c7 0 10.2-6 10.2-12.9 0-8.1-4-15.6-11.6-15.6-6.4 0-10.5 4.9-10.5 12.5 0 9.6 4.9 16 11.9 16zM488.2 225.4l-2.1 5.9c-.9 2.5-.8 3.8 4 3.8h.7v2h-13.3v-2h.8c2.4 0 3.7-1.1 4.9-4.6l8.6-23.9-.5-1.5h7.4l10 25.4c1.3 3.3 2.4 4.3 5 4.5v2h-16.3v-2h1.8c3 0 3.5-1.3 2.5-3.8l-2.4-5.8h-11.1zm5.2-14.4-4.2 11.7h8.8l-4.6-11.7zM527.6 231.4c0 2.8 1.3 3.7 4 3.7h.7v2H516v-2h.9c2.6 0 3.9-.8 3.9-3.8v-19.7c0-2.7-1-3.8-3.9-3.8h-.9v-2h16.3v2h-.8c-3.3 0-3.8 1.3-3.8 4v9c2-.3 4.4-1.6 6.6-3.8 1.7-1.7 4.9-5.7 4.9-7.6 0-1.1-.9-1.7-3-1.7h-.5v-2h13.4v2c-3 .2-4.1.5-5.5 1.8-2.3 2.3-4.5 7.1-8.3 9.9 1.5.8 3.8 3.4 5.3 5.4l4.4 5.5c2.5 3.3 4.5 4.7 7.6 4.7v2h-17.1v-2c2.1 0 3.5-.3 3.5-1.3 0-1.1-4.6-6.3-7.8-9.4-1.6-1.6-2.3-1.8-3.5-1.8v8.9zM605.7 228c-.4 2.6-1.6 6.5-2.8 9.1-.8-.3-1.8-.4-3-.4-2.3 0-4.8.9-8.6.9-10.3 0-18.2-7.1-18.2-16.2 0-9.2 8.5-16.4 19.2-16.4 5.2 0 8.6 2.1 9.6 2.1.4 0 .7-.1 1-.5h1.3l.5 8.8h-2c-1.6-5-5.2-7.8-10-7.8-7.2 0-12.1 5.4-12.1 13.3 0 8.1 5.5 14.3 12.7 14.3 4.6 0 8.4-2.7 10.5-7.2h1.9zM621.2 231.4c0 2.6 1.1 3.7 4 3.7h1.5v2h-17.5v-2h.8c3.1 0 4.4-.8 4.4-3.7v-19.8c0-2.4-.7-3.8-4-3.8h-1.1v-2c2.5-.1 4.4-.3 6.5-.4 2.8-.2 6.4-.4 8.2-.4 7.4 0 11.4 1 13.9 3.5 1.7 1.7 2.4 3.6 2.4 5.7 0 3.8-2.8 6.8-7.4 8 3.3 2.8 5 6.7 8.6 10.3 2 2 3.5 2.7 6.6 3v2H645c-6.2 0-8.8-.9-11.1-3.3-2.5-2.5-5.4-7.8-8.6-10.5h-4v7.7zm0-9.7h2c6 0 9.6-1.9 9.6-7.2 0-5.3-4.1-7.2-8.9-7.2h-2.6v14.4z"/><path class="st0" d="M671.9 208.6h-11v11.3h8.1c2.8 0 3.8-1 3.8-3.6h2v10h-2c0-2.7-.7-3.6-4.5-3.6h-7.4v9c0 2.2.4 2.6 1.8 2.6h8.4c3.3 0 4.8-.9 5.8-5.1h1.9l-.6 7.9h-30.1v-2h2c2.9 0 3.9-1.2 3.9-3.6v-20c0-2.7-.9-3.7-4.4-3.7h-.5v-2h27.6l.5 7.3h-1.9c-.5-3.4-1.1-4.5-3.4-4.5zM705.2 208.6h-11v11.3h8.1c2.8 0 3.8-1 3.8-3.6h2v10h-2c0-2.7-.7-3.6-4.5-3.6h-7.4v9c0 2.2.4 2.6 1.8 2.6h8.4c3.3 0 4.8-.9 5.8-5.1h1.9l-.6 7.9h-30.1v-2h2c2.9 0 3.9-1.2 3.9-3.6v-20c0-2.7-.9-3.7-4.4-3.7h-.5v-2H710l.5 7.3h-1.9c-.5-3.4-1.1-4.5-3.4-4.5zM727.4 231.4c0 2.8 1.3 3.7 4 3.7h.7v2h-16.3v-2h.9c2.5 0 3.8-.8 3.8-3.8v-19.7c0-2.7-.9-3.8-3.9-3.8h-.9v-2H732v2h-.8c-3.3 0-3.8 1.3-3.8 4v9c2-.3 4.4-1.6 6.6-3.8 1.7-1.7 4.9-5.7 4.9-7.6 0-1.1-.9-1.7-3-1.7h-.6v-2h13.4v2c-3 .2-4.1.5-5.5 1.8-2.3 2.3-4.6 7.1-8.3 9.9 1.5.8 3.8 3.4 5.3 5.4l4.3 5.5c2.6 3.3 4.5 4.7 7.6 4.7v2H735v-2c2.1 0 3.5-.3 3.5-1.3 0-1.1-4.6-6.3-7.8-9.4-1.6-1.6-2.3-1.8-3.5-1.8v8.9z"/></g></svg>