<svg version="1.1" id="Layer_1" xmlns="http://www.w3.org/2000/svg" x="0" y="0" width="432" height="432" style="enable-background:new 0 0 432 432" xml:space="preserve"><style>.st0{fill:#797d82}.st1{fill:#ed1c24}</style><path d="M136.3 219.5c-8.5 0-9.6-4-9.2-10.1h6.2c0 2.5-.5 5.7 3.3 5.7 2 0 3.1-1.3 3.1-3.1 0-5.1-12.3-3.3-12.1-11.8.1-4.1 2-8.5 10-8.5 7.1 0 8.9 4 8.4 10.2h-6.4c.1-2.3.4-5.5-2.8-5.5-1.4 0-2.9.9-3 2.7-.1 5.7 12.6 3.5 12.3 12.5-.1 6-3.5 7.9-9.8 7.9M153.3 219c-4.1 0-4.6-3.1-4.6-4.4v-22.2h5.6v5.6h3.8v3.6h-3.8v11.3c0 1.6.2 2.6 2.1 2.6h1.7v3.5h-4.8M184.5 200.3c1.2-1.9 3.2-2.4 4.9-2.4 2.8 0 5.2 1.8 5.2 4.8V219h-5.8v-14.4c0-1.9-.2-3-1.7-3-1.4 0-2.2 1.2-2.2 3V219H179v-21h5.5v2.3M207.7 208.4c0-4.2.4-7.1-2.3-7.1-2.3 0-2 2.9-2 7.1 0 5.6.1 7.2 2 7.2 2 0 2.3-1.1 2.3-7.2m-10.1-2.7c.1-4 .3-7.9 5.3-7.9 2.1 0 3.1.2 4.7 1.9h.1v-7.2h5.8V219H208l-.1-2.3h-.1c-1.2 1.6-3.1 2.6-4.8 2.6-6 0-5.4-6.6-5.4-10.9v-2.7zM169.7 208.4c0-4.2.4-7.1-2.3-7.1-2.3 0-2 2.9-2 7.1 0 5.6.1 7.2 2 7.2 2 0 2.3-1.1 2.3-7.2m-10.1-2.7c.1-4 .3-7.9 5.3-7.9 2.1 0 3.1.2 4.7 1.9h.1V198h5.8v21H170l-.1-2.3h-.1c-1.2 1.6-3.1 2.6-4.8 2.6-6 0-5.4-6.6-5.4-10.9v-2.7zM226 206.1c0-2.2.3-5.2-2-5.2-2.7 0-2 3.4-2 5.2h4m-1.8 12.9c-7.3 0-8.2-4.2-8.2-10.7 0-5.9.5-10.9 8.1-10.9 7.4-.1 8 5 7.5 12.3h-9.7c0 2.5-.6 5.8 2.5 5.8h9.3l3.8-7.4-5.3-10.1h6.4l2.3 6.7 2.8-6.7h5.5l-5.3 10.1 5.7 10.9h-6.2l-3-8-3.2 8h-13zM260.5 209.1h3.5v-1.7h-3.5v-7.7h3.7V198h-6v21h6.2v-1.7h-3.9zM274.8 211.3v.9c-.1-.3-.1-.5-.1-.8L272 198h-3v21h2.4v-13.4.2l2.7 13.2h3v-21h-2.4v13.3zM286.3 197.9c-2.4 0-3.8 1-3.8 2.6v16c0 1.6 1.4 2.6 3.8 2.6 1.3 0 2.5-.2 3.3-.6l.4-.2v-9.9h-3.9v1.7h1.5v7.1c-.3.1-.8.2-1.4.2-.7 0-1.4-.3-1.4-.8v-16c0-.7.7-1.1 1.4-1.1s1.4.3 1.4 1.1v3.5h2.4v-3.7c0-.7-.3-2.5-3.7-2.5zM322.9 211.7l-.3 2.4c-.1-.8-.2-1.6-.3-2.5l-1.9-13.6H318l3.1 21h2.8l3.1-21h-2.3l-1.8 13.7zM331.2 198h2.4v21h-2.4zM344.9 211.3v.8c0-.2-.1-.5-.1-.7l-2.6-13.3h-3v21h2.4v-13.4.2l2.7 13.2h3v-21h-2.4v13.2zM360.2 204.2v-3.7c0-.8-.4-2.6-3.7-2.6-2.4 0-3.7.9-3.7 2.6v16c0 1.6 1.4 2.6 3.7 2.6 1.3 0 2.5-.2 3.3-.6l.5-.2v-9.9h-3.9v1.7h1.5v7.1c-.3.1-.8.2-1.4.2-.7 0-1.4-.3-1.4-.8v-16c0-1.5 2.8-1.5 2.8 0v3.5h2.3zM299.3 198h-3.8v21h2.4v-9.9h1c1.1 0 1.7.4 1.7 1v8.9h2.4v-8.9c0-.5-.2-1.3-1.1-1.8.7-.4 1.1-1 1.1-2v-6c-.1-1.4-1.5-2.3-3.7-2.3zm1.2 8.5c0 .2 0 .9-1.6.9h-1.1v-7.7h1.2c1.4 0 1.4.6 1.4.8v6zM310 198l-3.2 21h2.2l.8-5.9h3l.9 5.9h2.4l-3.3-21H310zm.1 13.4.9-6.1c.1-.9.2-1.8.3-2.6.1.5.1 1 .2 1.5l1.1 7.3h-2.5z"/><g><path class="st0" d="m147.8 224.8-8.4 12-8.4-12h-3.4v14.9h2.4v-12.3l8.6 12.3h1.6l8.6-12.3v12.3h2.3v-14.9zM180.1 226.1c-1-1.2-2.7-1.4-4.2-1.4h-8.4c-1.6 0-3.2.3-4.2 1.4-1 1.1-1.2 2.7-1.2 4.2v4c0 1.5.2 3.1 1.2 4.2 1 1.2 2.7 1.4 4.2 1.4h8.4c1.5 0 3.2-.3 4.2-1.4 1-1.1 1.2-2.7 1.2-4.2v-4c-.1-1.5-.3-3.1-1.2-4.2zm-1.2 3.4v5.5c0 2.1-1.1 2.9-3.2 2.9h-8c-2.1 0-3.2-.7-3.2-2.9v-5.5c0-2.1 1.1-2.9 3.2-2.9h8c2 .1 3.2.8 3.2 2.9zM195.2 237.7v-12.9h-2.3v14.9h13.6v-2zM227.7 224.8h-11.9v14.9h11.9c5.2 0 6.5-2.1 6.5-7.5-.1-5.4-1.2-7.4-6.5-7.4zm.2 12.9h-9.8v-10.9h10.1c2.3 0 3.5.6 3.5 4.8v1.5c.1 4.2-1.4 4.6-3.8 4.6zM245.3 231.3h6v2h-6zM261.2 224.8v2h7.3v12.9h2.4v-12.9h7.4v-2zM290.9 237.7V233h11.9v-2h-11.9v-4.2h12.3v-2h-14.6v14.9h14.7v-2zM329.3 234.5v1.1c0 2.1-1 2.3-3.2 2.3h-6.9c-2.1 0-3.2-.7-3.2-2.9v-5.5c0-2.1 1.1-2.9 3.2-2.9h6.8c2.9 0 3.1.7 3.1 3.2h2.1v-1.4c0-1-.3-2-1-2.7-1-.9-2.4-1.1-3.7-1.1H319c-1.6 0-3.2.3-4.2 1.4-1 1.1-1.2 2.7-1.2 4.2v4c0 3.8 1.4 5.6 5.4 5.6h7.4c4.1 0 5.1-1.4 5.1-4.3v-1.2h-2.2zM357.9 224.8v6.2h-12.8v-6.2h-2.3v14.9h2.3V233h12.8v6.7h2.3v-14.9z"/></g><g><path d="M116.9 236.6v-1h.7c.4 0 .7.1.7.5 0 .5-.4.5-.8.5h-.6m0 .4h.6l.9 1.5h.6l-.9-1.5c.5-.1.9-.3.9-.9 0-.7-.4-1-1.2-1h-1.3v3.4h.5V237zm.6 2.7c1.6 0 2.9-1.2 2.9-2.9s-1.4-2.9-2.9-2.9c-1.6 0-3 1.2-3 2.9s1.4 2.9 3 2.9zm-2.4-2.9c0-1.4 1-2.4 2.4-2.4 1.3 0 2.4 1 2.4 2.4s-1 2.4-2.4 2.4c-1.4.1-2.4-1-2.4-2.4z"/><path class="st1" d="M118.1 208.2h-17.6l3.9-16.5H122zM116.9 212.9l-6.4 26.8H92.9l6.4-26.8z"/><path d="M93.7 223.4H76.2l-4 16.3h17.6zM94.9 218.6l6.4-26.9H83.8l-6.5 26.9z"/></g><path d="M0-28h18v18H0z"/><path class="st1" d="M94.7-28h18v18h-18z"/><path class="st0" d="M255.3-28h18v18h-18z"/><g><path d="M23.8-22.4h.9v3.2c.2-.3.4-.5.5-.7l2.1-2.5h1.1L26-19.5l2.6 3.9h-1L25.3-19l-.6.7v2.6h-.9v-6.7zM28.8-19.1v-.6H34v.6h-5.2zm0 2v-.6H34v.6h-5.2zM36.7-21.4l-1.1.6-.2-.7 1.4-.8h.7v6.5h-.8v-5.6zM44.3-19c0 2.2-.8 3.4-2.3 3.4-1.3 0-2.1-1.2-2.1-3.3 0-2.2.9-3.4 2.3-3.4 1.3 0 2.1 1.2 2.1 3.3zm-3.5.1c0 1.7.5 2.6 1.3 2.6.9 0 1.3-1 1.3-2.7 0-1.6-.4-2.6-1.3-2.6-.8 0-1.3.9-1.3 2.7zM49.4-19c0 2.2-.8 3.4-2.3 3.4-1.3 0-2.1-1.2-2.1-3.3 0-2.2.9-3.4 2.3-3.4 1.3 0 2.1 1.2 2.1 3.3zm-3.5.1c0 1.7.5 2.6 1.3 2.6.9 0 1.3-1 1.3-2.7 0-1.6-.4-2.6-1.3-2.6-.8 0-1.3.9-1.3 2.7z"/></g><g><path d="M123.2-15.9c-.3.2-1 .3-1.8.3-1.9 0-3.3-1.2-3.3-3.4 0-2.1 1.4-3.5 3.5-3.5.8 0 1.4.2 1.6.3l-.2.7c-.3-.2-.8-.3-1.4-.3-1.6 0-2.6 1-2.6 2.8 0 1.6.9 2.7 2.6 2.7.5 0 1.1-.1 1.4-.3l.2.7zM123.9-19.1v-.6h5.2v.6h-5.2zm0 2v-.6h5.2v.6h-5.2zM134.3-19c0 2.2-.8 3.4-2.3 3.4-1.3 0-2.1-1.2-2.1-3.3 0-2.2.9-3.4 2.3-3.4 1.3 0 2.1 1.2 2.1 3.3zm-3.6.1c0 1.7.5 2.6 1.3 2.6.9 0 1.3-1 1.3-2.7 0-1.6-.4-2.6-1.3-2.6-.7 0-1.3.9-1.3 2.7zM143.2-18.7c0-.9-.1-2.1-.1-2.9-.2.8-.5 1.6-.8 2.6l-1.2 3.3h-.7l-1.1-3.2c-.3-.9-.6-1.8-.8-2.6 0 .8-.1 2-.1 3l-.2 2.9h-.8l.5-6.7h1.1l1.1 3.3c.3.8.5 1.6.7 2.3.2-.7.4-1.4.7-2.3l1.2-3.3h1.1l.4 6.7h-.8l-.2-3.1zM145.2-19.1v-.6h5.2v.6h-5.2zm0 2v-.6h5.2v.6h-5.2zM153.1-21.4l-1.1.6-.2-.7 1.4-.8h.7v6.5h-.8v-5.6zM160.6-19c0 2.2-.8 3.4-2.3 3.4-1.3 0-2.1-1.2-2.1-3.3 0-2.2.9-3.4 2.3-3.4s2.1 1.2 2.1 3.3zm-3.5.1c0 1.7.5 2.6 1.3 2.6.9 0 1.3-1 1.3-2.7 0-1.6-.4-2.6-1.3-2.6-.7 0-1.3.9-1.3 2.7zM165.8-19c0 2.2-.8 3.4-2.3 3.4-1.3 0-2.1-1.2-2.1-3.3 0-2.2.9-3.4 2.3-3.4 1.3 0 2.1 1.2 2.1 3.3zm-3.6.1c0 1.7.5 2.6 1.3 2.6.9 0 1.3-1 1.3-2.7 0-1.6-.4-2.6-1.3-2.6-.7 0-1.3.9-1.3 2.7zM170-15.7v-2.9l-2.1-3.9h1l.9 1.9c.3.5.5.9.7 1.4.2-.4.4-.9.7-1.4l1-1.9h1l-2.3 3.9v2.9h-.9zM173.6-19.1v-.6h5.2v.6h-5.2zm0 2v-.6h5.2v.6h-5.2zM181.5-21.4l-1.1.6-.2-.7 1.4-.8h.7v6.5h-.8v-5.6zM189.1-19c0 2.2-.8 3.4-2.3 3.4-1.3 0-2.1-1.2-2.1-3.3 0-2.2.9-3.4 2.3-3.4 1.3 0 2.1 1.2 2.1 3.3zm-3.6.1c0 1.7.5 2.6 1.3 2.6.9 0 1.3-1 1.3-2.7 0-1.6-.4-2.6-1.3-2.6-.7 0-1.3.9-1.3 2.7zM194.2-19c0 2.2-.8 3.4-2.3 3.4-1.3 0-2.1-1.2-2.1-3.3 0-2.2.9-3.4 2.3-3.4 1.3 0 2.1 1.2 2.1 3.3zm-3.5.1c0 1.7.5 2.6 1.3 2.6.9 0 1.3-1 1.3-2.7 0-1.6-.4-2.6-1.3-2.6-.8 0-1.3.9-1.3 2.7zM197.4-22.4h.9v3.2c.2-.3.4-.5.5-.7l2.1-2.5h1.1l-2.4 2.9 2.6 3.9h-1l-2.2-3.3-.6.7v2.6h-.9v-6.8zM202.5-19.1v-.6h5.2v.6h-5.2zm0 2v-.6h5.2v.6h-5.2zM212.8-19c0 2.2-.8 3.4-2.3 3.4-1.3 0-2.1-1.2-2.1-3.3 0-2.2.9-3.4 2.3-3.4 1.3 0 2.1 1.2 2.1 3.3zm-3.5.1c0 1.7.5 2.6 1.3 2.6.9 0 1.3-1 1.3-2.7 0-1.6-.4-2.6-1.3-2.6-.8 0-1.3.9-1.3 2.7z"/></g><g><path d="M278.6-28.2c.4-.1 1-.1 1.7-.1.9 0 1.5.2 1.9.6.4.3.6.8.6 1.4 0 .6-.2 1.1-.5 1.4-.5.5-1.2.7-2.1.7-.3 0-.5 0-.7-.1v2.7h-.9v-6.6zm.9 3.2c.2 0 .4.1.7.1 1 0 1.7-.5 1.7-1.4 0-.9-.6-1.3-1.6-1.3-.4 0-.7 0-.8.1v2.5zM284.2-23.7l-.7 2.1h-.9l2.3-6.7h1l2.3 6.7h-.9l-.7-2.1h-2.4zm2.2-.7-.7-1.9-.3-1.2-.3 1.2-.7 1.9h2zM289.2-21.6v-6.7h.9l2.2 3.4c.5.8.9 1.5 1.2 2.2-.1-.9-.1-1.7-.1-2.8v-2.8h.8v6.7h-.9l-2.1-3.4c-.5-.7-.9-1.5-1.3-2.2 0 .8.1 1.7.1 2.8v2.9h-.8zM297.1-27.6h-2v-.7h5v.7H298v6h-.9v-6zM306.3-25c0 2.3-1.4 3.5-3.1 3.5-1.8 0-3-1.4-3-3.4 0-2.1 1.3-3.5 3.1-3.5s3 1.4 3 3.4zm-5.2.1c0 1.4.8 2.7 2.1 2.7 1.4 0 2.2-1.3 2.2-2.8 0-1.3-.7-2.7-2.1-2.7-1.5 0-2.2 1.3-2.2 2.8zM307.4-21.6v-6.7h.9l2.2 3.4c.5.8.9 1.5 1.2 2.2-.1-.9-.1-1.7-.1-2.8v-2.8h.8v6.7h-.9l-2.1-3.4c-.5-.7-.9-1.5-1.3-2.2 0 .8.1 1.7.1 2.8v2.9h-.8zM317.5-24.7h-2.6v2.4h2.9v.7H314v-6.7h3.6v.7h-2.8v2.1h2.6v.8zM325.7-21.8c-.3.2-1 .3-1.8.3-1.9 0-3.3-1.2-3.3-3.4 0-2.1 1.4-3.5 3.5-3.5.8 0 1.4.2 1.6.3l-.2.7c-.3-.2-.8-.3-1.4-.3-1.6 0-2.6 1-2.6 2.8 0 1.6.9 2.7 2.6 2.7.5 0 1.1-.1 1.4-.3l.2.7zM331.1-24c0 1.8-1.2 2.6-2.4 2.6-1.3 0-2.3-1-2.3-2.5 0-1.6 1.1-2.6 2.4-2.6 1.3 0 2.3 1 2.3 2.5zm-3.9 0c0 1.1.6 1.9 1.5 1.9.8 0 1.5-.8 1.5-1.9 0-.8-.4-1.9-1.4-1.9s-1.6 1-1.6 1.9zM336.6-24c0 1.8-1.2 2.6-2.4 2.6-1.3 0-2.3-1-2.3-2.5 0-1.6 1.1-2.6 2.4-2.6 1.3 0 2.3 1 2.3 2.5zm-3.9 0c0 1.1.6 1.9 1.5 1.9.8 0 1.5-.8 1.5-1.9 0-.8-.4-1.9-1.4-1.9-1.1.1-1.6 1-1.6 1.9zM337.7-28.7h.9v7.1h-.9v-7.1zM347.3-21.9c-.4.1-1.2.4-2.1.4-1 0-1.9-.3-2.5-.9-.6-.6-.9-1.5-.9-2.5 0-2 1.4-3.5 3.6-3.5.8 0 1.4.2 1.7.3l-.2.7c-.4-.2-.8-.3-1.5-.3-1.6 0-2.7 1-2.7 2.7 0 1.7 1 2.7 2.6 2.7.6 0 1-.1 1.2-.2v-2h-1.4v-.7h2.2v3.3zM348.6-24.9v-1.5h.8v.9c.2-.6.7-1.1 1.3-1.1h.3v.8h-.3c-.6 0-1.1.5-1.2 1.1v3h-.9v-3.2zM354.5-21.6l-.1-.6c-.3.4-.8.7-1.5.7-1 0-1.5-.7-1.5-1.4 0-1.2 1-1.8 2.9-1.8v-.1c0-.4-.1-1.1-1.1-1.1-.5 0-.9.1-1.3.4l-.2-.6c.4-.3 1-.4 1.6-.4 1.5 0 1.8 1 1.8 2v1.8c0 .4 0 .8.1 1.2h-.7zm-.1-2.4c-1 0-2 .1-2 1.1 0 .6.4.8.8.8.6 0 1-.4 1.2-.8V-24zM356.9-26.4l1.1 2.9c.1.3.2.7.3 1 .1-.3.2-.7.3-1l1-2.8h.9l-1.3 3.4c-.6 1.7-1.1 2.5-1.7 3-.4.4-.9.5-1.1.6l-.2-.7c.2-.1.5-.2.8-.4.2-.2.5-.5.7-1 0-.1.1-.2.1-.2s0-.1-.1-.2l-1.8-4.5h1zM363-23.2c0-.8.5-1.4 1.3-1.7-.7-.3-1-.9-1-1.5 0-1 .9-1.7 2-1.7 1.3 0 1.9.8 1.9 1.6 0 .5-.3 1.1-1.1 1.5.8.3 1.3.9 1.3 1.7 0 1.1-1 1.9-2.2 1.9-1.3 0-2.2-.9-2.2-1.8zm3.5 0c0-.8-.5-1.2-1.4-1.4-.8.2-1.2.7-1.2 1.3 0 .7.5 1.2 1.3 1.2s1.3-.5 1.3-1.1zm-2.4-3.3c0 .6.5 1 1.2 1.2.6-.2 1-.6 1-1.2 0-.5-.3-1.1-1.1-1.1-.7.1-1.1.5-1.1 1.1zM375.4-21.8c-.3.2-1 .3-1.8.3-1.9 0-3.3-1.2-3.3-3.4 0-2.1 1.4-3.5 3.5-3.5.8 0 1.4.2 1.6.3l-.2.7c-.3-.2-.8-.3-1.4-.3-1.6 0-2.6 1-2.6 2.8 0 1.6.9 2.7 2.6 2.7.5 0 1.1-.1 1.4-.3l.2.7zM376.5-28.2c.4-.1 1-.1 1.7-.1.9 0 1.5.2 1.9.6.4.3.6.8.6 1.4 0 .6-.2 1.1-.5 1.4-.5.5-1.2.7-2.1.7-.3 0-.5 0-.7-.1v2.7h-.9v-6.6zm.9 3.2c.2 0 .4.1.7.1 1 0 1.7-.5 1.7-1.4 0-.9-.6-1.3-1.6-1.3-.4 0-.7 0-.8.1v2.5zM283.4-9.8c-.3.2-1 .3-1.8.3-1.9 0-3.3-1.2-3.3-3.4 0-2.1 1.4-3.5 3.5-3.5.8 0 1.4.2 1.6.3l-.2.7c-.3-.2-.8-.3-1.4-.3-1.6 0-2.6 1-2.6 2.8 0 1.6 1 2.7 2.6 2.7.5 0 1.1-.1 1.4-.3l.2.7zM284.1-12.9v-.6h5.2v.6h-5.2zm0 1.9v-.6h5.2v.6h-5.2zM290.3-10.6c.3.2.8.4 1.4.4 1.1 0 1.5-.7 1.5-1.3 0-.9-.8-1.3-1.7-1.3h-.5v-.7h.5c.6 0 1.4-.3 1.4-1.1 0-.5-.3-1-1.1-1-.5 0-1 .2-1.3.4l-.2-.6c.3-.3 1-.5 1.7-.5 1.3 0 1.9.8 1.9 1.5s-.4 1.2-1.2 1.5c.8.2 1.4.8 1.4 1.7 0 1-.8 1.9-2.4 1.9-.7 0-1.4-.2-1.7-.4l.3-.5zM299.5-12.9c0 2.2-.8 3.4-2.3 3.4-1.3 0-2.1-1.2-2.1-3.3 0-2.2.9-3.4 2.3-3.4s2.1 1.3 2.1 3.3zm-3.5.1c0 1.7.5 2.6 1.3 2.6.9 0 1.3-1 1.3-2.7 0-1.6-.4-2.6-1.3-2.6-.7 0-1.3 1-1.3 2.7zM308.5-12.5c0-.9-.1-2.1-.1-2.9-.2.8-.5 1.6-.8 2.6l-1.2 3.3h-.7l-1.1-3.2c-.3-.9-.6-1.8-.8-2.6 0 .8-.1 2-.1 3l-.2 2.9h-.8l.5-6.7h1.1l1.1 3.3c.3.8.5 1.6.7 2.3.2-.7.4-1.4.7-2.3l1.2-3.3h1.1l.4 6.7h-.8l-.2-3.1zM310.5-12.9v-.6h5.2v.6h-5.2zm0 1.9v-.6h5.2v.6h-5.2zM316.5-9.6v-.5l.7-.7c1.7-1.6 2.4-2.4 2.4-3.4 0-.7-.3-1.3-1.3-1.3-.6 0-1.1.3-1.4.5l-.3-.6c.4-.4 1.1-.7 1.8-.7 1.4 0 2 1 2 1.9 0 1.2-.9 2.2-2.2 3.5l-.5.5h2.9v.7h-4.1zM321.6-9.6v-.5l.7-.7c1.7-1.6 2.4-2.4 2.4-3.4 0-.7-.3-1.3-1.3-1.3-.6 0-1.1.3-1.4.5l-.3-.6c.4-.4 1.1-.7 1.8-.7 1.4 0 2 1 2 1.9 0 1.2-.9 2.2-2.2 3.5l-.5.5h2.9v.7h-4.1zM330.2-9.6v-2.9l-2.1-3.9h1l.9 1.9c.3.5.5.9.7 1.4.2-.4.4-.9.7-1.4l1-1.9h1l-2.3 3.9v2.9h-.9zM333.8-12.9v-.6h5.2v.6h-5.2zm0 1.9v-.6h5.2v.6h-5.2zM341.7-15.2l-1.1.6-.2-.7 1.4-.8h.8v6.5h-.8v-5.6zM349.1-16.1v.6l-2.8 5.9h-.9l2.8-5.7H345v-.7h4.1zM352.5-16.3h.9v3.2c.2-.3.4-.5.5-.7l2.1-2.5h1.1l-2.4 2.9 2.6 3.9h-1l-2.2-3.3-.6.7v2.6h-.9v-6.8zM357.5-12.9v-.6h5.2v.6h-5.2zm0 1.9v-.6h5.2v.6h-5.2zM367.4-15.3h-2.5l-.3 1.7h.5c.5 0 1 .1 1.4.4.5.3.9.8.9 1.7 0 1.3-1 2.2-2.4 2.2-.7 0-1.3-.2-1.6-.4l.2-.7c.3.2.8.4 1.4.4.8 0 1.5-.5 1.5-1.4 0-.8-.6-1.4-1.9-1.4-.4 0-.7 0-.9.1l.4-3.1h3.1v.5zM372.9-16.1v.6L370-9.6h-.9l2.8-5.7h-3.2v-.7h4.2z"/></g></svg>