<svg version="1.1" id="Layer_1" xmlns="http://www.w3.org/2000/svg" x="0" y="0" width="216" height="216" style="enable-background:new 0 0 216 216" xml:space="preserve"><style>.st0{fill:#2c2c30}.st1{fill:#006937}</style><path class="st0" d="m51.4 72.2-.1 52.9c0 15.5 12.5 28.1 27.8 28.1H138c15.4 0 27.8-12.6 27.8-28.1l-.1-52.9"/><path class="st1" d="M138 37.6H79.1c-14.6 0-26.6 11.4-27.7 26v16.9h114.3V63.6c-1.1-14.6-13.1-26-27.7-26"/><path style="fill:#fff" d="M148.5 66H63.1v14.3H78v48.6h14.2V80.3l14.2.1v48.5h42.1V90.7h-20.8V105h6.6v9.6h-13.7V80.3h27.9z"/><path class="st1" d="M34 177.1c-.3.2-.7.4-1.2.5-.5.1-.9.2-1.5.2-1.4 0-2.5-.3-3.2-1-.8-.7-1.1-1.7-1.1-3.1V170h-1.6v-2.8H27v-2.8h3.8v2.8h2.5v2.8h-2.5v3.6c0 .4.1.7.3.9.2.2.5.3.8.3.4 0 .8-.1 1.2-.3l.9 2.6zM46.9 166.7v8.8c0 2-.5 3.5-1.6 4.5s-2.7 1.5-4.7 1.5c-1.1 0-2.1-.1-3-.4-.9-.2-1.7-.6-2.4-1.1l1.4-2.6c.4.4 1 .6 1.7.8.7.2 1.3.3 2 .3 1 0 1.7-.2 2.2-.7.5-.4.7-1.1.7-1.9v-.4c-.7.8-1.8 1.3-3.2 1.3-1 0-1.8-.2-2.6-.6-.8-.4-1.5-1-1.9-1.8-.5-.8-.7-1.7-.7-2.7 0-1 .2-1.9.7-2.7.5-.8 1.1-1.4 1.9-1.8.8-.4 1.7-.6 2.6-.6 1.5 0 2.7.5 3.4 1.5v-1.3h3.5zm-4.4 6.6c.4-.4.7-.9.7-1.6 0-.6-.2-1.2-.7-1.6-.4-.4-1-.6-1.7-.6s-1.3.2-1.7.6c-.4.4-.7.9-.7 1.6 0 .7.2 1.2.7 1.6.5.4 1 .6 1.7.6.7.1 1.3-.1 1.7-.6"/><path class="st0" d="M66.8 167.8c.8.8 1.2 2 1.2 3.6v6.2h-3.8V172c0-.8-.1-1.3-.4-1.7-.3-.4-.7-.5-1.2-.5-.6 0-1 .2-1.4.6-.3.4-.5 1-.5 1.8v5.4h-3.8V172c0-1.5-.5-2.2-1.6-2.2-.6 0-1 .2-1.4.6-.3.4-.5 1-.5 1.8v5.4h-3.8v-10.8h3.6v1.1c.4-.4.9-.8 1.4-1 .6-.2 1.2-.3 1.8-.3.8 0 1.4.1 2 .4.6.3 1.1.7 1.5 1.3.4-.5 1-1 1.6-1.3.6-.3 1.4-.4 2.1-.4 1.3 0 2.4.4 3.2 1.2M79.2 167.8c.9.8 1.4 2.1 1.4 3.7v6h-3.5v-1.4c-.5 1-1.6 1.6-3.2 1.6-.8 0-1.6-.1-2.2-.4-.6-.3-1.1-.7-1.4-1.2-.3-.5-.5-1.1-.5-1.7 0-1 .4-1.8 1.2-2.4.8-.6 2-.8 3.6-.8h2.1c-.1-1.1-.8-1.7-2.3-1.7-.5 0-1 .1-1.6.2-.5.2-1 .4-1.4.7l-1.3-2.6c.6-.4 1.3-.7 2.2-.9.9-.2 1.7-.3 2.6-.3 2 0 3.4.4 4.3 1.2m-3 7.2c.3-.2.6-.5.7-.9v-.9h-1.6c-1.1 0-1.7.4-1.7 1.1 0 .3.1.6.4.8.3.2.6.3 1 .3s.8-.2 1.2-.4M88.3 166.9c.6-.2 1.3-.4 2.1-.4v3.4c-.3 0-.6-.1-.9-.1-.8 0-1.4.2-1.9.7-.5.4-.7 1.1-.7 2v5h-3.8v-10.8h3.6v1.3c.5-.5 1-.8 1.6-1.1M97.1 173.7l-1.1 1.2v2.6h-3.8v-14.7H96v7.7l3.9-3.8h4.4l-4.4 4.7 4.8 6.1h-4.6zM116.5 173.1h-7.8c.2.6.5 1 .9 1.3.5.3 1 .4 1.7.4.5 0 1-.1 1.3-.2.4-.1.8-.4 1.1-.7l2 2.1c-1 1.2-2.6 1.8-4.6 1.8-1.3 0-2.4-.2-3.3-.7-1-.5-1.7-1.1-2.2-2-.5-.8-.8-1.8-.8-2.9 0-1.1.3-2 .8-2.9.5-.8 1.2-1.5 2.1-2 .9-.5 1.9-.7 3-.7s2 .2 2.9.7c.9.4 1.6 1.1 2.1 1.9.5.8.8 1.8.8 3 .1 0 .1.3 0 .9m-7.1-3.4c-.4.3-.6.8-.7 1.4h4.4c-.1-.6-.4-1-.7-1.4-.4-.3-.9-.5-1.5-.5s-1.1.2-1.5.5M126 177.1c-.3.2-.7.4-1.2.5-.5.1-.9.2-1.5.2-1.4 0-2.5-.3-3.2-1-.8-.7-1.1-1.7-1.1-3.1V170h-1.6v-2.8h1.6v-2.8h3.8v2.8h2.5v2.8h-2.5v3.6c0 .4.1.7.3.9.2.2.5.3.8.3.4 0 .8-.1 1.2-.3l.9 2.6zM127.9 165c-.4-.4-.6-.9-.6-1.4 0-.6.2-1 .6-1.4.4-.4 1-.6 1.7-.6s1.2.2 1.7.5c.4.4.6.8.6 1.4 0 .6-.2 1.1-.6 1.5-.4.4-1 .6-1.7.6-.8-.1-1.3-.2-1.7-.6m-.3 1.7h3.8v10.8h-3.8v-10.8zM144.3 167.8c.8.8 1.2 2 1.2 3.6v6.2h-3.8V172c0-1.5-.6-2.2-1.8-2.2-.7 0-1.2.2-1.6.6-.4.4-.6 1.1-.6 1.9v5.2h-3.8v-10.8h3.6v1.2c.4-.4.9-.8 1.5-1 .6-.2 1.2-.3 1.9-.3 1.5 0 2.6.4 3.4 1.2M159.9 166.7v8.8c0 2-.5 3.5-1.6 4.5s-2.7 1.5-4.7 1.5c-1.1 0-2.1-.1-3-.4-.9-.2-1.7-.6-2.4-1.1l1.4-2.6c.4.4 1 .6 1.7.8.7.2 1.3.3 2 .3 1 0 1.7-.2 2.2-.7.5-.4.7-1.1.7-1.9v-.4c-.7.8-1.8 1.3-3.2 1.3-1 0-1.8-.2-2.6-.6-.8-.4-1.5-1-1.9-1.8-.5-.8-.7-1.7-.7-2.7 0-1 .2-1.9.7-2.7.5-.8 1.1-1.4 1.9-1.8.8-.4 1.7-.6 2.6-.6 1.5 0 2.7.5 3.4 1.5v-1.3h3.5zm-4.4 6.6c.4-.4.7-.9.7-1.6 0-.6-.2-1.2-.7-1.6-.4-.4-1-.6-1.7-.6s-1.3.2-1.7.6c-.4.4-.7.9-.7 1.6 0 .7.2 1.2.7 1.6.5.4 1 .6 1.7.6.7.1 1.2-.1 1.7-.6M162.5 177.1c-.4-.4-.7-1-.7-1.6 0-.7.2-1.2.6-1.6.4-.4 1-.6 1.6-.6.7 0 1.2.2 1.6.6.4.4.6.9.6 1.6 0 .7-.2 1.2-.6 1.6-.4.4-1 .6-1.6.6-.5 0-1.1-.2-1.5-.6M170.6 177c-.9-.5-1.7-1.1-2.2-2-.5-.8-.8-1.8-.8-2.9 0-1.1.3-2 .8-2.9.5-.8 1.3-1.5 2.2-2 .9-.5 2-.7 3.2-.7 1.2 0 2.3.3 3.2.8.9.5 1.5 1.3 1.9 2.2L176 171c-.5-1-1.2-1.5-2.1-1.5-.7 0-1.2.2-1.7.7-.4.5-.7 1.1-.7 1.9 0 .8.2 1.4.7 1.9.4.5 1 .7 1.7.7.9 0 1.7-.5 2.1-1.5l2.9 1.5c-.4.9-1 1.7-1.9 2.2-.9.5-1.9.8-3.2.8-1.2 0-2.3-.2-3.2-.7M189.2 167.8c.9.8 1.4 2.1 1.4 3.7v6h-3.5v-1.4c-.5 1-1.6 1.6-3.2 1.6-.8 0-1.6-.1-2.2-.4-.6-.3-1.1-.7-1.4-1.2-.3-.5-.5-1.1-.5-1.7 0-1 .4-1.8 1.2-2.4.8-.6 2-.8 3.6-.8h2.1c-.1-1.1-.8-1.7-2.3-1.7-.5 0-1 .1-1.6.2-.5.2-1 .4-1.4.7l-1.3-2.6c.6-.4 1.3-.7 2.2-.9.9-.2 1.7-.3 2.6-.3 2 0 3.3.4 4.3 1.2m-3.1 7.2c.3-.2.6-.5.7-.9v-.9h-1.6c-1.1 0-1.7.4-1.7 1.1 0 .3.1.6.4.8.3.2.6.3 1 .3s.8-.2 1.2-.4"/></svg>