<svg xmlns="http://www.w3.org/2000/svg" xmlns:xlink="http://www.w3.org/1999/xlink" width="217" height="114.2" style="enable-background:new 0 0 217 114.2" xml:space="preserve"><defs><path id="a" d="M14.1 110.9c-.1.3-.6.3-.7 0L1 84.9h5l7.8 16.9 7.8-16.9h4.9l-12.4 26zm190.6-21.8H198v8.7h6.7c3.3 0 5.4-1.7 5.4-4.4-.1-2.9-2.1-4.3-5.4-4.3zm3.8 12 7 9.9h-5.4l-6.4-9.1H198v9.1h-4.6V85H205c6 0 9.7 3.2 9.7 8.3 0 4.2-2.6 6.8-6.2 7.8zm-36.1-12.5c-5.2 0-8.8 4.1-8.8 9.2s3.7 9.3 8.9 9.3 8.8-4.1 8.8-9.2c-.1-5.1-3.8-9.3-8.9-9.3zm0 22.8c-8 0-13.6-6.1-13.6-13.4 0-7.4 5.7-13.5 13.7-13.5s13.5 6 13.5 13.4c0 7.3-5.6 13.5-13.6 13.5zm-26.8-22.3v21.8H141V89.1h-8.3v-4.2h21.1v4.2h-8.2zm-29.5-.5c-2.7 0-4.2 1.4-4.2 3.1 0 2 1.2 2.9 6.2 4.1 5.5 1.3 8.4 3.3 8.4 7.7 0 4.9-3.8 7.8-9.3 7.8-4 0-7.7-1.4-10.9-4.2l2.8-3.3c2.5 2.2 5 3.4 8.2 3.4 2.8 0 4.6-1.3 4.6-3.3 0-1.9-1-2.9-5.9-4-5.5-1.3-8.7-3-8.7-7.8 0-4.5 3.7-7.6 8.9-7.6 3.8 0 6.8 1.2 9.5 3.3l-2.5 3.5c-2.3-1.8-4.7-2.7-7.1-2.7zm-23 22.3v-26h4.6v26h-4.6zM73.9 89.1h-6.7v8.7h6.7c3.3 0 5.4-1.7 5.4-4.4 0-2.9-2-4.3-5.4-4.3zm3.8 12 7 9.9h-5.4l-6.4-9.1h-5.7v9.1h-4.6V85h11.6c6 0 9.7 3.2 9.7 8.3 0 4.2-2.5 6.8-6.2 7.8zm-23.8 5.7v4.1H34.4v-26h19.3V89H38.9v6.8H52v4.1H38.9v7h15zM145 4.3l-35.1 60.4c-.3.6-.9.9-1.5.9s-1.2-.3-1.5-.9L94 42.6c-.3-.5-.3-1.2 0-1.8l.7-1.3h5.1l-1.3 2.2 9.8 17 30.6-52.6h-19.6l-8.4 14.4-2.5-4.3 8-13.6c.3-.5.9-.9 1.5-.9h25.6c1.3 0 2.1 1.4 1.5 2.6z"/></defs><clipPath id="b"><use xlink:href="#a" style="overflow:visible"/></clipPath><g style="clip-path:url(#b)"><defs><path id="c" d="M0 0h217v114.2H0z"/></defs><clipPath id="d"><use xlink:href="#c" style="overflow:visible"/></clipPath><g style="clip-path:url(#d)"><image style="overflow:visible" width="904" height="476" xlink:href="E79274BA.jpg" transform="matrix(.24 0 0 .24 0 0)"/></g></g><g><defs><path id="e" d="M77.8 6.1h19.6l5.9 10.1 2.5-4.3-5.4-9.2c-.3-.5-.9-.9-1.5-.9H73.3c-1.4 0-2.2 1.5-1.5 2.6l17.5 30c.3.5.9.9 1.5.9h6.5l2.5-4.4h-7.5L77.8 6.1z"/></defs><clipPath id="f"><use xlink:href="#e" style="overflow:visible"/></clipPath><g style="clip-path:url(#f)"><defs><path id="g" d="M0 0h217v114.2H0z"/></defs><clipPath id="h"><use xlink:href="#g" style="overflow:visible"/></clipPath><g style="clip-path:url(#h)"><image style="overflow:visible" width="904" height="476" xlink:href="E79274BE.jpg" transform="matrix(.24 0 0 .24 0 0)"/></g></g></g><g><defs><path id="i" d="m108.4 24.8 3.5 6H105l3.4-6zm0-8.7-11.1 19h22.2l-11.1-19z"/></defs><clipPath id="j"><use xlink:href="#i" style="overflow:visible"/></clipPath><g style="clip-path:url(#j)"><defs><path id="k" d="M0 0h217v114.2H0z"/></defs><clipPath id="l"><use xlink:href="#k" style="overflow:visible"/></clipPath><g style="clip-path:url(#l)"><image style="overflow:visible" width="904" height="476" xlink:href="E79274B9.jpg" transform="matrix(.24 0 0 .24 0 0)"/></g></g></g></svg>