<svg version="1.1" id="Layer_1" xmlns="http://www.w3.org/2000/svg" xmlns:xlink="http://www.w3.org/1999/xlink" x="0" y="0" width="180" height="180" style="enable-background:new 0 0 180 180" xml:space="preserve"><style>.st1{clip-path:url(#SVGID_2_)}</style><defs><path id="SVGID_1_" d="M0 0h180v180H0z"/></defs><clipPath id="SVGID_2_"><use xlink:href="#SVGID_1_" style="overflow:visible"/></clipPath><path d="M96.1 122.3 95 130s-3.9-7.8-5.7-11.9c-1.1-2.6-2.2-5.7-2.8-8.6l-.2-1.2c-3.1-18.2 2.6-32.4 2.6-32.4-2.6 5.6-4.6 10.9-5.4 19.4-.6 6.2 0 11.1.3 13.2-4.7.5-7.8 2.8-7.8 2.8 1.7-6 2.2-6.3-5.2-8.8-7.4-2.5-12.7-2.4-12.7-2.4 2.5-.9 5.4-3.1 4-5.5-1.4-2.6-6.1-9.3-6.1-9.3s10-.2 11.7-2.1c2-2.2.2-6.5.2-6.5l10.5 6.5c-1.2-5.1-.6-22.8-.6-22.8 4.3 4.2 6.2 2.5 9 0s10.4-11.2 10.4-11.2.1 1.6.7 5c.6 3.3.8 5.4 2.9 6.6 2.1 1.3 7.9-.6 7.9-.6-6.2 8.1-11.8 21.4-11.8 21.4 6.2-5.5 17.8-10 17.8-10s-.8 3.7-.9 4.8c-.2 2.1 1.9 2.2 5.4 3 3.5.8 8.6 1.9 8.6 1.9s-5.4 4-7.8 6.2c-2.4 2.2-2.7 3.6-1.6 4.6 1.1 1 3.8 3.3 3.8 3.3-16.3 3.1-20.5 5.4-22.6 6.4-2 .9-2.9 1.6-2.9 3.3 0 1.7.8 6.2.8 6.2s-1.5-1-3.7-1.8c-1.2-.4-2.5-.7-4.2-.9.5 1.4 1.2 3.4 1.8 4.9.9 1.9 1.5 4 4.7 8.8" style="clip-path:url(#SVGID_2_);fill:#ed1c24"/><path class="st1" d="M14.8 122.8H10v33.3h12.4v-4.7h-7.6zM31.9 122.2c-4.6 0-6.9 2.3-6.9 7v20.4c0 4.7 2.3 7 6.9 7 4.6 0 6.9-2.4 6.9-7v-20.4c0-4.6-2.3-7-6.9-7m2.1 27.4c0 1.5-.7 2.3-2.1 2.3-1.4 0-2.1-.8-2.1-2.3v-20.4c0-1.5.7-2.3 2.1-2.3 1.4 0 2.1.8 2.1 2.3v20.4zM49.4 122.2c-4.6 0-6.9 2.3-6.9 7v20.4c0 4.7 2.3 7 6.9 7 4.6 0 6.9-2.4 6.9-7v-3.3h-4.8v3.3c0 1.5-.7 2.3-2.1 2.3-1.4 0-2.1-.8-2.1-2.3v-20.4c0-1.5.7-2.3 2.1-2.3 1.4 0 2.1.8 2.1 2.3v4.5h4.8v-4.5c.1-4.6-2.2-7-6.9-7M83 151.4v-28.6h-4.9v33.3h12.5v-4.7zM100.5 149.4c0-3.1 1.6-5.8 4.7-8s4.7-4.1 4.7-5.7v-6.8c0-1.6-.7-2.4-2.2-2.4-1.5 0-2.2.8-2.2 2.4v4.7h-5v-4.7c0-4.9 2.4-7.3 7.2-7.3 4.8 0 7.2 2.4 7.2 7.3v6.9c0 3.2-1.6 5.9-4.7 8.2-3.1 2.2-4.7 4.2-4.7 5.9v2.1h9.4v4.9h-14.4v-7.5zM119.5 149.4c0-3.1 1.6-5.8 4.7-8s4.7-4.1 4.7-5.7v-6.8c0-1.6-.7-2.4-2.2-2.4-1.5 0-2.2.8-2.2 2.4v4.7h-5v-4.7c0-4.9 2.4-7.3 7.2-7.3 4.8 0 7.2 2.4 7.2 7.3v6.9c0 3.2-1.6 5.9-4.7 8.2-3.1 2.2-4.7 4.2-4.7 5.9v2.1h9.4v4.9h-14.4v-7.5zM138.5 149.4c0-3.1 1.6-5.8 4.7-8s4.7-4.1 4.7-5.7v-6.8c0-1.6-.7-2.4-2.2-2.4-1.5 0-2.2.8-2.2 2.4v4.7h-5v-4.7c0-4.9 2.4-7.3 7.2-7.3 4.8 0 7.2 2.4 7.2 7.3v6.9c0 3.2-1.6 5.9-4.7 8.2-3.1 2.2-4.7 4.2-4.7 5.9v2.1h9.4v4.9h-14.4v-7.5zM157.6 149.4c0-3.1 1.6-5.8 4.7-8s4.7-4.1 4.7-5.7v-6.8c0-1.6-.7-2.4-2.2-2.4-1.5 0-2.2.8-2.2 2.4v4.7h-5v-4.7c0-4.9 2.4-7.3 7.2-7.3 4.8 0 7.2 2.4 7.2 7.3v6.9c0 3.2-1.6 5.9-4.7 8.2-3.1 2.2-4.7 4.2-4.7 5.9v2.1h9.4v4.9h-14.4v-7.5zM73.7 143.2c-6.2 4.8-12 1.1-13.5 0l-1.9 2.8c1.9 1.6 5.1 3.2 8.8 3.2 3 0 5.8-1 8.5-3.1l-1.9-2.9zM70.4 156.1h4.9l-1.2-8.1c-1.4.8-3 1.4-4.5 1.7l.8 6.4zM58.7 156.1h4.8l.9-6.5c-1.7-.3-3.2-.9-4.5-1.6l-1.2 8.1z"/><g class="st1"><path d="M66.9 125.7c-.6 0-1.1.5-1.1 1.1 0 .6.5 1.1 1.1 1.1.6 0 1.1-.5 1.1-1.1 0-.7-.5-1.1-1.1-1.1z"/><path d="M70.3 122.8h-6.6l-3 19.9c.7.5 2.2 1.5 4.4 2l1.9-14.2 1.9 14.3c1.4-.3 2.9-.9 4.4-2.1l-3-19.9zm-3.4 6c-1.1 0-2-.9-2-2s.9-2 2-2 2 .9 2 2-.9 2-2 2z"/></g></svg>