<svg version="1.1" id="Layer_1" xmlns="http://www.w3.org/2000/svg" x="0" y="0" width="645.6" height="612" style="enable-background:new 0 0 645.6 612" xml:space="preserve"><style>.st0{fill:#002f87}</style><path class="st0" d="M320.6 522.2c-119.7-.1-216.6-97.4-215.9-217.3.7-119.6 98.6-216.3 218.9-214.7 117.7 1.5 214 97.8 213.1 217.7-1 119-97.7 214.3-216.1 214.3m212-215.9c.2-116-93.3-210.7-209.4-212.2-117.3-1.4-214 92.7-214.6 210.9-.6 117.8 94.5 213.1 212 213.1 118.4 0 212.1-96.1 212-211.8"/><path class="st0" d="M492.9 306.4c-.2 94.7-76.7 172-172.2 172.1-96.7.1-172.9-78.8-172.4-173.2.5-94.2 77.5-172.5 174.5-171.3 94.3 1 170.2 77.8 170.1 172.4m-4-.1c.2-92.5-74.6-167.4-166.3-168.5-92.6-1-169.6 73.4-170.3 167.1-.7 93.6 75 169.5 168.3 169.5 93.6 0 168.4-76 168.3-168.1"/><path class="st0" d="M212 153.3c-.2-.4-.4-.7-.7-1-2.2-2.9-4.4-5.7-6.6-8.6-.2-.2-.4-.5-.6-.7-1.3-1.5-2-1.2-3-.5-.1.1-.3.2-.4.3-.4.3-.8.4-1.2-.1-.4-.5-.3-.9.3-1.4.7-.6 1.5-1.2 2.2-1.7l3.9-3c.4-.3.7-.3 1 .1.4.5.5.8.1 1.2-.6.6-1.5 1-1.5 2 0 .9.7 1.6 1.2 2.2 3.8 5 7.7 10 11.5 14.9.3.4.6.7.9 1.1.2.3.5.6.2 1-.3.3-.6.5-1 .5-.5-.1-1.1-.2-1.6-.3-6.7-1.5-13.3-3.1-20-4.6-.4-.1-.9-.3-1.4-.1 0 .4.2.7.5 1 2.4 3.2 4.9 6.3 7.4 9.5.3.4.6.7.9 1.1.7.7 1.3.8 2.1.3.4-.2.8-.6 1.2-.7.4-.2.7.1 1 .5.2.3.2.6 0 .9-.3.3-.7.6-1.1.9-1.9 1.5-3.9 2.9-5.8 4.4-.2.1-.5.3-.5.4-.1 1.1-1 1.5-1.7 2.2-1.7 1.7-3.3 3.4-5.1 4.9-1.8 1.5-3.5 3.2-4.9 5-.7.8-1.4 1.1-2.4 1l-10.8-.9c-.5 0-.9-.1-1.4-.1-.5 0-.9.3-1.1.7-.2.3-.2.6 0 .9.1.1.2.3.3.3 1.7 1.4 3.3 2.9 5.1 4.2 1.3 1 1.8.9 3.1-.2.2-.2.3-.4.5-.5.4-.3.7-.2 1 .1.3.3.5.6.2 1-.6.7-1.2 1.4-1.8 2.2-1.6 1.9-3.1 3.7-4.7 5.6-.4.5-1 .5-1.4-.1-.1-.2-.2-.4-.2-.6 0-.2.3-.4.4-.6 1.2-1.8 1.2-2.1-.4-3.5l-6.6-5.7c-1.9-1.6-3.7-3.2-5.6-4.7-.4-.3-.7-.6-1.1-.9-1.4-1-1.8-1-3.1.1-.2.2-.4.5-.7.7-.4.3-.7.1-1-.2-.2-.2-.4-.5-.2-.8.1-.2.3-.4.4-.6 2.3-2.7 4.6-5.4 6.9-8 .9-1 1.9-1.9 3-2.6 2.9-1.6 5.8-1.3 7.9.6 1.7 1.6 2.4 3.6 2 6-.1.8-.4 1.5-.6 2.4 1.3.4 2.6.4 3.9.5 1.7.2 3.4.2 5.2.3 1.9.1 3.6-.2 5-1.5.4-.4.9-.5 1.4-.9 1.1-.8 1.2-1.8.4-2.8-.4-.5-.8-1-1.3-1.4-3.5-3.6-6.9-7.3-10.4-10.9-1.6-1.7-2.3-2.7-4.7-.6-.4.3-.7 0-1-.3-.2-.2-.3-.6-.1-.8.2-.3.5-.6.8-.9 2-2 4.1-3.9 6.1-5.9.2-.2.5-.4.7-.6.3-.2.6 0 .8.2.3.3.5.6.2 1-.2.2-.4.4-.6.7-.9 1.2-.9 1.7 0 2.9.3.4.6.7.9 1.1 3.5 3.6 7 7.2 10.4 10.9.2.2.3.4.5.5.6.6 1.2 1.4 2.1 1.4 1.2-.1 2-1.2 2.9-1.9.1-.9.9-1.2 1.4-1.8.5-.7.6-1.1.1-1.9-.3-.5-.7-1.1-1.1-1.6-3-3.9-6-7.8-9.1-11.8-1.4-1.8-2.6-2.1-4.7-1.3-.4.2-.8.4-1.2.7-.4.2-.6 0-.8-.2-.3-.3-.4-.7-.1-1 .3-.3.7-.6 1.1-.9 1-.8 2-1.5 3-2.3.9-.8 1.9-1 3-.7 4.1 1 8.2 2 12.4 2.9 2.1.5 4.3 1 6.4 1.5.5 0 .9.1 1.4-.1m-40.7 31.3c1.4-1.5 1.9-2.4 2.3-3.7.9-3-2-5.9-4.5-5.8-2 .1-3.3 1.2-4.3 2.8-.5.8-.5 1 .2 1.6 1.9 1.6 3.8 3.3 5.7 4.9.2 0 .4.1.6.2M492.2 384.1c-.1.6.4.9.7 1.3 3.2 4 6.4 8 9.5 12 .4.5.8 1 1.1 1.5.5.7.1 1.5-.7 1.6h-1.6c-5.2-.2-10.4-.4-15.5-.6h-1.8c.1.6.5.7.8.9 3.5 1.8 7 3.5 10.5 5.3.1.1.3.1.4.2 1.9.9 2.1.8 3.3-.9.6-.9.9-1 1.4-.6.4.3.5.6.1 1.4-1.1 2.2-2.3 4.5-3.4 6.7-.3.6-.9.6-1.4.2-.2-.2-.3-.4-.2-.6l.6-1.5c.2-.7 0-1.3-.6-1.7-.5-.4-1.1-.7-1.6-1-4.7-2.4-9.4-4.8-14.1-7.1-.1 0-.1-.1-.2-.1-2.2-1-2.4-1-3.9 1-.3.4-.6.7-1.1.4-.4-.2-.7-.5-.5-.9 1-2 2-3.9 3-5.9.2-.4.6-.5 1-.5h1.9c5 .2 10 .3 15.1.5h1.9c.3 0 .5-.4.3-.7-.3-.4-.7-.9-1-1.3l-9.6-12c-1.8-2.3-1.7-1.5-.4-4.1.9-1.8 1.7-3.7 2.3-5.6 1.7-5.5 3.6-10.9 5.4-16.3.1-.2.2-.4.2-.7.2-.4.5-.6.9-.5 1.6.4 3.2.8 4.8 1.3.4.1.6.5.5.9-.1.4-.4.7-.8.7h-1.6c-1.2 0-1.9.5-2.4 1.5-.3.6-.5 1.3-.8 2-.5 1.4-1 2.8-1.4 4.2-.3.9-.2 1.2.6 1.5 2.2.7 4.3 1.4 6.5 2.2.6.2.9-.1 1.1-.6l1.5-4.5c.4-1.5.2-2.1-1.1-3-.3-.2-.5-.3-.8-.5-.4-.3-.4-.6-.3-1 .1-.4.4-.7.9-.5 2.6.9 5.2 1.7 7.8 2.6.4.1.5.6.3 1-.1.4-.4.7-.8.6-.4 0-.8-.1-1.2-.2-1.1-.2-1.8.3-2.3 1.3l-.6 1.5c-.4 1.3-1.1 2.6-1.2 4 1.1.9 2.6 1.1 3.9 1.5 1.3.5 2.7.9 4 1.3.9.3 1.3 0 1.6-.9.6-1.9 1.2-3.7 1.8-5.6.5-1.4.2-2.6-.6-3.8-.5-.8-1.2-1.5-1.7-2.2-.3-.4-.4-.8-.2-1.3s.5-.7.9-.4c1.6 1.2 3.2 2.5 4.9 3.7.4.3.5.8.4 1.2-.1.4-.2.7-.4 1.1-1.7 5-3.3 10-5 15l-.6 1.5c-.2.4-.7.3-1 .2-.3-.1-.5-.4-.4-.7 0-.3.2-.6.2-.9.3-1.5.1-1.9-1.4-2.5l-2.4-.9c-4.4-1.5-8.8-2.9-13.2-4.4-.4-.1-.9-.3-1.3-.4-1.8-.5-2.6-.1-2.9 1.7-.1.9-.4 1.7-.7 2.5-.3.7 0 1.4.6 1.9.5.3 1.1.7 1.6 1 4.7 2.4 9.4 4.8 14.1 7.1.1 0 .1.1.2.1 2.3 1.1 2.3 1.1 3.8-1 .4-.6.8-.7 1.4-.3.3.2.4.5.3.8-.3.6-.5 1.1-.8 1.7-1.1 2.2-2.3 4.5-3.4 6.7-.6 1.2-.8 1.3-1.5.9-.6-.3-.6-.4-.2-1.6.1-.1.1-.3.2-.4.3-1 .2-1.5-.8-2.2-.4-.3-.8-.5-1.2-.7-3.4-1.7-6.7-3.4-10.1-5.1-.7.1-1.1-.3-1.6 0M224.4 142.8c-.1.6.2.9.4 1.3 1 1.7 1.9 3.4 2.9 5.1.6 1.1 1.2 1.2 2.4.8.4-.1.7-.4 1.1-.5.5-.2.7.1.9.5.2.4.2.8-.2 1-1.1.7-2.3 1.3-3.5 2-1.7 1-3.4 1.9-5.1 2.9-.8.4-1 .3-1.3-.3-.3-.5-.1-.9.4-1.1.4-.2.8-.5 1.1-.8.5-.5.7-1.1.4-1.7-.3-.6-.5-1.1-.8-1.7-2.5-4.5-5-8.9-7.4-13.4-.1-.1-.1-.3-.2-.4-.5-.7-.7-1.6-1.6-2-.9-.4-1.6.2-2.4.6-.4.2-.8 0-1-.4-.2-.4-.3-.7.1-1 .1-.1.1-.1.2-.1 2.9-1.6 5.8-3.2 8.6-4.8.3-.2.6-.2.9 0 .5.3.5 1 .1 1.4-.2.2-.5.3-.8.5-1.1.9-1.3 1.3-.6 2.6 1 1.9 2.1 3.8 3.2 5.8.1.1.2.2.4.3.6-.7.8-1.7 1-2.6.6-1.9 1.2-3.9 1.8-5.9.2-.7.3-1.5.3-2.3 0-.6-.4-.8-.9-.7-.4.1-.7.3-1.1.3-.3 0-.5-.3-.7-.5-.2-.3-.1-.6.1-.8 0-.1.1-.1.2-.1 2.5-1.4 4.9-2.8 7.4-4.1.3-.1.6-.2.9 0 .5.3.6 1 .1 1.4-1.6 1.1-2.3 2.7-2.8 4.5-.9 3-1.8 6-2.6 9-.2.7-.1.9.7 1.1 1.3.4 2.6.7 3.8 1.1 2.8.8 5.6 1.5 8.4 2.3 2.6.8 5.1.3 7.6-.6 1.5-.5 1.8-1.3 1.3-2.8l-.3-.9c-1.9-5.1-3.9-10.1-5.8-15.2l-.3-.6c-.7-1.6-1.3-1.9-2.9-1.3-.2.1-.4.2-.7.2-.3 0-.6-.1-.7-.5-.2-.4-.2-.8.2-1.1.3-.2.6-.3.8-.4 5.3-2.1 10.7-4.1 16-6.2.1-.1.3-.1.4-.2.5-.2.9-.1 1.2.4.7 1.5 1.4 3 2 4.5.1.3 0 .6-.3.8-.3.2-.7.4-1.1.1-.4-.4-.7-.8-1-1.3-.9-1.1-1.9-1.5-3.3-1-2 .8-4 1.5-5.9 2.3-.3.1-.5.3-.9.6.9 2.4 1.9 4.8 2.8 7.2.2.4.6.5 1 .4 1.5-.6 3.1-1.2 4.6-1.8 1.2-.5 1.7-1.3 1.5-2.6-.1-.5-.1-.9-.1-1.4 0-.3.4-.5.7-.6.3-.1.6 0 .8.3.1.1.1.3.2.4.9 2.4 1.9 4.8 2.8 7.2.2.4.1.7-.3 1-.5.3-.9.3-1.2-.2-.1-.1-.2-.3-.3-.4-.8-1.5-1.6-2-3.7-1.3-1.3.4-2.5.9-3.7 1.4-.9.3-1 .6-.7 1.4.9 2.3 1.7 4.5 2.7 6.8.5 1.2.8 1.3 2 .8 1.7-.6 3.3-1.3 5-2 1.6-.6 2.5-1.8 2.9-3.4.2-.8.3-1.7.5-2.5.1-.4.4-.6.8-.8.4-.1.9.1.9.5.1 2 .1 4.1.2 6.1 0 .7-.5.9-1 1.1-3.1 1.2-6.3 2.4-9.4 3.6-2.7 1-5.4 2-8.1 3.1-.6.2-1.1.5-1.7.8-2.2 1.2-4.4 2.4-6.6 3.7-.5.3-1.1.6-1.7.9-.3.2-.6.1-.8-.1-.3-.3-.5-.6-.3-1.1 0-.1.1-.1.1-.2 1-1.4 1-1.6-.5-2-3.2-.9-6.3-1.8-9.5-2.7-.5.2-.8.3-1 .3M188.5 431.1c-1.5.9-2.4 2-3.5 2.9-.5.4-1 .2-1.3-.4-.1-.2-.2-.4 0-.7.1-.2.3-.4.4-.6 1.5-1.9 1.2-3.3-.1-4.9-.6-.7-1.2-1.4-1.7-2.1-.8.1-1.1.5-1.5.9-4.2 3.5-8.3 7-12.4 10.4-.5.4-1 .8-1.4 1.3-.7.8-.7 1.2-.2 2.1.2.3.5.6.7.9.3.4.2.7-.2 1-.5.4-.8.4-1.2 0-2.2-2.6-4.3-5.2-6.5-7.8-.3-.4-.1-.7.3-1 .3-.3.7-.4 1-.1l.3.3c1.5 1.6 2.1 1.2 3.4.2.8-.6 1.5-1.2 2.2-1.8 3.5-2.9 7-5.8 10.5-8.8.5-.4.9-.8 1.4-1.3.3-.2.3-.6.1-.8-.5-.7-1.1-1.4-1.7-2-1.4-1.5-2.3-1.7-4.2-.9-.4.2-.7.4-1.1.5-.4.1-.7-.2-.9-.5-.2-.3-.2-.6.1-.8 1.5-1.1 3-2.3 4.5-3.4.3-.2.6-.1.8.1.3.3.5.6.8.9 4.1 4.9 8.1 9.8 12.2 14.6.3.4.8.8 1.2 1.2 2.2 2.1 4.5 4.1 6.7 6.2 1.3 1.2 2.5 2.4 3.4 3.9 1.7 2.9 1.1 6.5-1.4 8.5-1.8 1.5-3.8 1.7-6 1.1-2-.5-2-.5-2.3 1.6-.2 1.9-.5 3.7-.7 5.6-.3 2.4-.3 4.7 1.5 6.6.1.1.1.1.1.2.2.4 0 .7-.3 1-.2.2-.5.3-.8.1-.3-.2-.5-.4-.7-.6-.8-.7-1.6-1.5-2.4-2.2-2.2-2.1-1.9-1.2-1.6-4.5.3-3.4.8-6.7 1.2-10 .1-.7.2-1.4-.5-1.9-.5-.4-.8-.5-1.2 0-1.6 1.7-3.1 3.3-4.6 5-1.1 1.3-1 1.7.1 3 .2.2.4.5.6.7.2.3 0 .6-.3.8-.2.2-.5.4-.8.2-.2-.1-.4-.3-.6-.4-2.3-2.1-4.6-4.2-6.9-6.4-.3-.3-.5-.6-.4-1 .2-.5.8-.8 1.3-.4 2.3 1.5 2.3 1.5 4.1-.3 3.7-4 7.5-8.1 11.2-12.1.3-.3.5-.6.7-.9.6-.9.6-1.5-.1-2.3-.1-.2-.4-.3-.5-.5-.3.3-.5-.1-.8-.4m3.9 16c1.9.1 3.7-1.1 4.4-2.9.7-1.7.5-3.4-.8-4.8-.4-.5-.9-.9-1.4-1.2-.8-.6-.9-.6-1.6.1-1.6 1.7-3.1 3.3-4.6 5-1 1.1-1 1.3.2 2.2 1.1.8 2.3 1.5 3.8 1.6M515.5 335.5c-4.1-.8-8.1-1.6-12.2-2.3-.2 0-.3-.1-.5-.1-1.3-.2-2.2-.2-2.7 1.8 0 .2-.1.3-.1.5-.2.5-.5.7-1.1.5-.5-.1-.6-.4-.5-.9.2-1.3.5-2.6.8-3.9.7-3.1.8-6.2 1-9.3.2-4.8.5-9.6.8-14.3 0-.5.1-.9.1-1.4 0-.5.3-.9.8-.9 1.8 0 3.6.1 5.4.1.3 0 .5.4.5.7 0 .3 0 .7-.4.8-.5.2-1.1.3-1.6.4-1.3.4-2.1 1.3-2.3 2.7 0 .2 0 .3-.1.5-.2 3.9-.6 3.3 3 3.5 4.8.3 9.6.5 14.3.8h.9c2.4.1 2.6-.1 3.1-2.4.1-.3.1-.6.5-.7.5-.2 1.2.1 1.2.6v.9c-.1 2.8-.3 5.6-.5 8.5 0 .2 0 .5-.1.7-.1.4-.4.6-.9.6-.4 0-.8-.2-.8-.7.2-2.5-.6-2.8-3.1-3-3.9-.3-7.8-.4-11.8-.6-1.7-.1-3.4-.2-5.2-.3-1-.1-1.2.1-1.3 1.2-.1.8-.1 1.6-.1 2.4 0 1.5.7 2.5 2.1 3.1.4.2.9.2 1.4.4.5.2.5.6.5 1 0 .5-.3.7-.8.7-.9-.1-1.9-.2-2.8-.3-1.4-.1-1.5 0-1.6 1.5v.2c-.1 1.3.2 1.7 1.4 2.1 1.3.3 2.6.6 3.9.8 5.2 1 10.5 2 15.7 3 .5.1 1.1.2 1.6.3.4.1.8.2.8.7 0 .4-.1.8-.5 1-.6.4-1.2.7-1.8 1.1-5.7 3.1-11.3 6.1-17 9.2-.5.3-1 .5-1.4.8-.2.2-.2.4 0 .6.2.1.4.2.7.2 3.9.8 7.9 1.5 11.8 2.2.1 0 .2 0 .2.1 1.9.3 2.9.5 3.4-2 .1-.6.7-.8 1.2-.6.2.1.4.2.4.5v.2c-.5 2.6-1 5.2-1.5 7.9 0 .2-.1.3-.2.4-.2.3-.5.3-.8.3-.3 0-.6-.2-.6-.6v-1.2c0-1.4-.2-1.7-1.6-2.2-.4-.1-.9-.2-1.4-.3l-14.1-2.7c-.2 0-.3 0-.5-.1-2.4-.7-3.6.7-4.4 2.2-.2.4-.3.9-.5 1.3s-.6.4-1 .2c-.4-.1-.5-.4-.5-.7.4-2 .7-4 1.1-6 .1-.5.4-.8.8-1.1.5-.2 1-.5 1.5-.8 5.2-2.8 10.4-5.6 15.5-8.4.8-.3 1.5-.5 1.9-1.4M134 245.4c.2.8 1 1.2 1.6 1.7 3.7 3.2 7.4 6.3 11.1 9.4.5.4 1 .8 1.4 1.2.3.3.5.6.3 1s-.4.6-.9.7l-9.3 1.5c-3.2.5-6.3 1-9.5 1.5.2.6.7.6 1.2.8 3.8 1.1 7.7 2.2 11.5 3.3.2.1.5.1.7.1 1.4.3 2.2.2 2.7-1.4.1-.3.2-.6.4-.8.2-.3.5-.3.9-.2.3.1.6.2.6.6v.2c-.7 2.6-1.5 5.3-2.2 7.9-.1.4-.5.6-.9.4-.4-.1-.7-.4-.6-.8v-.2c.6-2.6-.4-2.8-2.2-3.3-5.3-1.5-10.6-3-15.9-4.4-.4-.1-.8-.2-1.1-.2-.8-.1-1.4.2-1.8.8-.2.4-.4.8-.6 1.3-.2.4-.5.6-.9.5-.5-.1-.8-.5-.6-1.1.1-.6.3-1.2.5-1.8.3-1.2.7-2.4 1-3.6.2-1 .8-1.4 1.8-1.5 2.5-.4 5-.8 7.4-1.2 3.3-.5 6.5-1 9.8-1.6.4-.1.7-.2 1.1-.3.1-.6-.3-.8-.6-1-4.1-3.5-8.3-7-12.4-10.5-.4-.4-.8-.7-1.3-1.1-.5-.4-.7-.9-.5-1.5.5-2 1.1-3.9 1.7-5.9.1-.4.3-.7.8-.7.5.1.9.4.8.9v.2c-.2 2.4-.1 2.6 2.2 3.3 5.2 1.5 10.4 2.9 15.6 4.4.4.1.8.2 1.1.3 1.3.2 1.7 0 2.3-1.1.2-.4.3-.7.4-1.1.1-.3.4-.4.8-.4.4.1.7.3.8.8 0 .3-.1.6-.2.9l-2.4 8.4c-.1.3-.2.6-.4.9-.2.3-.5.3-.8.2-.3-.1-.6-.3-.6-.6 0-.4.1-.8.1-1.2.1-1.4-.1-1.8-1.4-2.3-.4-.1-.7-.2-1.1-.4-3.5-1-6.9-2-10.4-2.9-.9-.1-1.5-.5-2-.1.1-.1.1-.3-.1-.3-.1 0-.2.1-.3.1l.4.2zM371.6 486.8c-.5 2.7-1.1 5.2-1.6 7.7-.7 3.5-1.4 6.9-2.1 10.4-.1.6-.1 1.3-.8 1.5-.9.3-1.2-.5-1.7-1-3.2-4.1-6.4-8.2-9.6-12.2l-1.5-1.8c-.6.3-.4.7-.3 1l2.7 11.4c0 .2.1.3.1.5.6 2.1.8 2.2 2.9 2.1.2 0 .5-.1.7 0 .2.1.4.3.5.4.1.3.2.6-.1.9-.2.2-.4.3-.6.3-2.4.6-4.9 1.2-7.3 1.7-.2.1-.5.1-.7 0-.4-.1-.5-.4-.6-.7-.1-.3 0-.6.3-.8.4-.2.9-.3 1.3-.5.9-.4 1.2-.8 1.1-1.8 0-.6-.2-1.2-.3-1.8-1.2-5-2.3-9.9-3.5-14.9-.1-.5-.3-1.1-.5-1.6-.4-1.1-1-1.4-2.2-1.4-.3 0-.6.1-.9.2-.5 0-.8-.3-.9-.9-.1-.5.2-.7.6-.8 2-.5 4-1 5.9-1.4.6-.1 1.1 0 1.5.5.8 1 1.6 2 2.3 3 2.7 3.5 5.4 6.9 8.2 10.4.3.4.7.8 1.1 1.2.2.2.7.1.7-.2.4-1.8.7-3.5 1.1-5.3.8-4.1 1.6-8.1 2.4-12.2.2-1.1.7-1.6 1.8-1.8 1.8-.3 3.5-.8 5.3-1.2.7-.1.9.1 1.1.6.1.3.1.6-.2.8-.1.1-.3.1-.4.2-2.3 1-2.3 1-1.8 3.3l3.9 16.5c0 .2.1.3.1.4.5 1.6.9 1.8 2.6 1.6.2 0 .5-.2.7-.2.5 0 .7.3.8.7.1.4 0 .8-.5.9-1.1.3-2.1.5-3.2.8-2.1.5-4.1 1-6.2 1.5-.2.1-.5.1-.7.1-.3 0-.5-.3-.6-.6-.1-.4-.1-.8.3-1 .2-.1.5-.1.7-.2 1.6-.6 2-1 1.6-2.6-1-4.4-2.1-8.7-3.1-13 0-.2-.2-.3-.4-.7M418.6 129.2c-.2-.3-.3-.7-.6-.9-.4-.4-.8-.7-1.3-1.1-.4-.3-.2-.7 0-1.1.2-.4.6-.5 1-.3 2.9 1.8 5.7 3.6 8.6 5.4.4.2.4.6.2 1-.2.5-.6.6-1.1.4-2.4-1.1-2.5-1.1-3.9 1.1l-3 4.8c-.5.8-.4.9.2 1.3l7.2 4.5c.7.4 1 .4 1.4-.3 1.2-1.9 2.4-3.9 3.6-5.8.6-1.1.5-1.6-.4-2.5-.3-.3-.6-.5-.9-.7-.4-.3-.3-.6-.1-1 .2-.4.5-.6 1-.4.1.1.3.1.4.2 2.7 1.7 5.3 3.3 8 5 .2.1.4.3.5.5.2.3.1.6-.1.9-.2.3-.4.5-.7.4l-.6-.3c-1.9-.9-2.3-.8-3.4 1-2.3 3.6-4.6 7.3-6.8 11-.8 1.3-1.7 2.7-2.4 4-.6 1.1-.5 1.6.4 2.5.3.3.7.6 1.1.9.3.3.1.6-.1.9-.2.3-.4.5-.8.4l-.6-.3c-2.6-1.6-5.2-3.2-7.8-4.9-.2-.1-.4-.3-.6-.4-.4-.4-.2-.7 0-1.1.2-.3.4-.5.8-.3s.8.5 1.3.6c.9.4 1.4.2 2.1-.5.1-.1.2-.2.3-.4 1.3-2.1 2.6-4.1 3.9-6.2.3-.4.1-.7-.2-1-.1-.1-.3-.2-.4-.3-2.3-1.5-4.7-2.9-7-4.3-.7-.4-.9-.4-1.3.3-1.3 2.1-2.6 4.1-3.8 6.2-.6 1-.5 1.5.3 2.3.3.3.8.6 1.1.9.2.2.3.5.1.8-.2.4-.5.6-.9.6-.1 0-.2 0-.2-.1-2.9-1.8-5.7-3.5-8.6-5.3-.4-.3-.5-.8-.1-1.2.2-.3.4-.5.8-.3.5.2 1 .5 1.5.7.6.2 1.3.1 1.7-.4.4-.5.8-1 1.1-1.5 2.8-4.5 5.7-9.1 8.5-13.6 0-.6.4-1.2.6-2.1M275.2 107.2c1.5-.1 2.9.3 4.3 1.1 3.6 2.1 3.6 6.9 1.9 9.1-.4.6-1 1-1.4 1.6-.4.5-1.3.5-1.2 1.3.1.6.8.9 1.3 1.3 1.5 1.3 3.1 2.7 4.6 4 1.8 1.5 3.6 2.7 6.2 2.3.5-.1.7.2.8.6.1.4.1.8-.3 1-2 .5-4 1-5.9 1.5-.6.1-1-.1-1.5-.5-2-1.7-3.9-3.4-5.9-5.1-1.1-1-2.3-1.9-3.4-2.9-.4-.4-.9-.6-1.5-.4-.5.1-.9.5-.7 1 .6 2.4 1.1 4.7 1.7 7.1.3 1.2.9 1.4 2.2 1.3.3 0 .6-.2.9-.2.5-.1.7.2.8.6.1.4.1.8-.4 1-.2.1-.5.1-.7.2-3 .7-5.9 1.4-8.9 2.2-.2.1-.5.1-.7.1-.4 0-.5-.3-.6-.6-.1-.3-.1-.6.2-.8l.6-.3c2-.8 2.2-1.1 1.7-3.1-.5-2.2-1.1-4.4-1.6-6.6-.7-2.9-1.4-5.8-2-8.7-.2-.7-.3-1.4-.6-2-.4-1.1-.8-1.3-1.9-1.3-.2 0-.5.1-.7.1-.6.1-1.1.2-1.3-.6-.1-.6.1-.9 1.1-1.1 1.4-.4 2.7-.7 4.1-1 2.1-.5 4.1-1 6.2-1.4.9-.7 1.8-.7 2.6-.8m-3.4 12.7c1.3-.1 2.4-.6 3.5-1.3 2-1.3 2.7-3.5 1.8-5.7-.8-2.1-2.7-3.1-5.1-2.8-.5.1-1.1.3-1.6.4-.8.3-1 .6-.8 1.4.6 2.4 1.2 4.9 1.8 7.3.1.3.3.5.4.7M335.3 116.2c1.7 2.7 3.4 5.6 5.3 8.2.9 1.2 2 2 3.4 2.3.4.1.8.2 1.1.4.3.2.3.5.2.8-.1.2-.2.4-.4.5-.1.1-.3.1-.5.1-1.7-.1-3.4-.2-5.2-.3-1 0-1.6-.4-2.1-1.3-1.8-3-3.8-6-5.6-8.9-.3-.5-.6-.9-.9-1.4-.4-.5-.9-.6-1.5-.5-.3 0-.6.2-.7.5-.1 2.5-.5 5-.5 7.5 0 .9.5 1.4 1.4 1.7.5.1.9.2 1.4.2.4.1.5.3.5.7 0 .4-.1.8-.6.8h-.7c-3.1-.2-6.3-.4-9.4-.6-.7 0-1-.5-.8-1.1.1-.4.4-.6.9-.6 2.5-.2 2.7-.3 2.9-2.7.3-3.6.5-7.2.7-10.8.1-1.7.2-3.4.3-5.2v-1.2c0-1.7-.3-2-2-2.4-.3-.1-.6 0-.9-.1-.4-.2-.4-.6-.4-1 0-.3.3-.6.6-.6 2.3.1 4.5.2 6.8.4 2.2.2 4.4.2 6.5.7 1.3.3 2.5.8 3.6 1.7 3.6 3.2 2.9 8.6-1.4 10.8-.5.6-1.3.6-2 1.4m-5-2.3c1.2.1 2.2-.1 3.1-.6 2-.9 3.1-3 2.7-5.2-.4-2-1.9-3.4-4.1-3.6-.5-.1-.9 0-1.4 0-1 0-1.3.2-1.3 1.2-.2 2.5-.3 5-.5 7.5 0 .5.3.7.7.7.3.1.6 0 .8 0M316.3 494v13.8c.1 1.8.5 2.1 2.3 2.4.2 0 .5 0 .7.1.5.1.6.4.6.9s-.3.7-.7.8c-1.3.1-2.5.1-3.8.1-1.4 0-2.8 0-4.2.1-.6 0-.9-.3-.9-.9 0-.4.1-.8.6-.9.2 0 .3 0 .5-.1 2.1-.3 2.3-.5 2.4-2.7 0-1.7 0-3.5-.1-5.2-.1-3.5-.1-7.1-.2-10.6 0-.7.1-1.4-.4-2-.7-.8-1.5-1.4-2.5-1.6-.5-.1-.9-.1-1.4-.2-.5-.1-.5-.5-.5-.9 0-.3.2-.6.5-.7.4-.1.8-.1 1.2-.1 1.3 0 2.7 0 4-.1 1.2-.1 2 .3 2.8 1.3 2.7 3.3 5.4 6.5 8.1 9.8 1.4 1.7 2.8 3.4 4.3 5 .2.2.4.6.8.4.3-.1.2-.4.2-.6 0-3.9-.1-7.8-.1-11.8 0-.3 0-.6-.1-.9-.2-.9-.6-1.3-1.5-1.5-.5-.1-.9-.1-1.4-.1-.4-.1-.5-.4-.5-.7 0-.4.1-.8.6-.9.9-.1 1.7-.1 2.6-.1 1.8 0 3.6-.1 5.4-.1.4 0 .8 0 1 .5.2.5-.1 1.1-.6 1.2-2.6.5-2.7.5-2.7 3.1 0 6.3.1 12.6.2 18.8v1.9c0 .6-.8.9-1.2.6-.6-.5-1.1-1.1-1.6-1.7-4.2-5-8.4-10-12.6-14.9-.6-.6-.9-1.2-1.8-1.5M146.9 398c2.6-.9 5-2.3 7.5-3.4 1.3-.6 2.6-1.2 3.8-1.9 1.5-.8 1.6-1.2 1.1-2.9-.1-.3-.3-.6-.3-.9 0-.3.2-.6.5-.7.3-.1.6-.2.9.1.2.2.3.4.4.6 1.1 2.3 2.2 4.5 3.3 6.8.2.5.2.9-.3 1.2-.4.2-.7.3-1-.1-.2-.3-.3-.6-.5-.8-.9-1.3-1.3-1.4-2.8-.8-.7.3-1.3.6-1.9.9-5.3 2.5-10.6 5.1-15.9 7.7-.4.2-.8.4-1.3.6-.3.1-.7.4-1.1.1-.3-.3-.5-1-.3-1.5s.4-1 .7-1.5c2.6-5.5 5.1-10.9 7.7-16.4.4-.8.7-1.7 1.1-2.6.1-.2.3-.4 0-.6-.2-.2-.4 0-.6.2-.6.2-1.2.4-1.7.7-3 1.5-6.1 2.9-9.1 4.4-.7.3-1.4.7-2 1.2-.5.3-.7.9-.5 1.5l.6 1.5c.1.4 0 .6-.4.8-.4.2-.7.3-1.1 0l-.2-.2c-1.2-2.5-2.4-4.9-3.6-7.4-.2-.5 0-.7.4-.9.4-.2.7-.3 1 .1.2.3.3.6.5.8.8 1.3 1.3 1.4 2.7.9.4-.2.9-.4 1.3-.6 4.4-2.1 8.9-4.3 13.3-6.4 1.8-.9 2.4-1.9 2.2-3.9-.1-.5-.3-1.1-.4-1.6-.1-.4 0-.7.5-.9.4-.2.8-.2 1 .2.9 1.9 1.8 3.8 2.8 5.7.2.4.1.8-.1 1.1-.2.6-.5 1.1-.8 1.7-2.4 5-4.7 10.1-7.1 15.1-.3.6-.7 1.2-.8 2-.2.1-.3.3-.2.5.3-.2.5-.3.7-.4M410.7 471.9c1 1.7 1.9 3.4 2.9 5.1 1.1 1.8 2.1 3.7 3.2 5.5.3.5.7 1.1 1.1 1.5.6.7 1 .8 1.9.4.4-.2.8-.5 1.3-.6.4-.1.7.1.9.5.2.3.2.6-.1.9-.1.1-.2.2-.4.3-2.2 1.3-4.5 2.6-6.7 3.9-.3.2-.7.3-1-.1-.4-.4-.4-.9 0-1.2.1-.1.3-.2.4-.3 1.8-1 1.6-2 .7-3.5-2.1-3.6-4.2-7.2-6.3-10.7l-1.8-3c-.8-1.4-2.2-2-3.8-1.6-.6.1-1.2.4-1.8.7-.5.2-.7-.1-.9-.5-.2-.3-.2-.6.1-.9.2-.2.4-.3.6-.4 1.5-.9 3-1.7 4.4-2.6.7-.4 1.3-.4 2-.2 2.3.9 4.6 1.7 6.8 2.5 3.8 1.4 7.5 2.8 11.3 4.2.5.2 1 .5 1.6.3 0-.7-.4-1.1-.6-1.5-1.7-2.8-3.3-5.7-5-8.5-.3-.5-.6-.9-.9-1.4-.9-1.2-1.2-1.3-2.6-.7-.4.1-.7.3-1.1.4-.4.1-.6-.2-.7-.5-.2-.3-.2-.6 0-.9.1-.1.2-.2.4-.3 2.2-1.3 4.5-2.6 6.7-3.9.1-.1.3-.2.4-.2.4 0 .7.2.9.6.2.3.1.6-.1.8-.4.4-.9.6-1.3 1-.5.5-.7 1.1-.4 1.7.3.7.7 1.4 1.1 2.1 3 5.1 6.1 10.3 9.1 15.4.3.5.6 1.1.9 1.6.1.3.3.5.1.9-.3.3-.6.6-1 .5-.6-.1-1.2-.3-1.8-.6-5.7-2.1-11.3-4.2-17-6.3l-2.7-.9c-.2-.2-.5-.4-.7-.2-.7.3-.3.5-.1.7M448.8 436.7c.2-4.8 2.4-8.4 6.3-11 .6-.4 1.2-.7 1.8-1 .4-.2.9-.4 1.1-.8.4-.5-.2-.8-.3-1.3-.1-.4.2-.6.4-.8.2-.2.5-.3.9-.1.3.2.7.4 1 .7 1.7 1.3 3.3 2.6 5 4 .3.2.4.5.2.8-.2.3-.5.7-.9.6-.5-.1-.9-.3-1.3-.4-4.9-1.7-9.5.9-10.6 5.9-.2 1-.1 2 0 3 .8 4.4 5.7 9.5 11.3 10.4 3.9.6 7.6-1.6 9.1-5.2.3-.8.3-1.5-.4-2.1-1.6-1.5-3.2-3-4.9-4.5-1.2-1.1-1.5-1-2.8-.1-.3.2-.5.4-.7.6-.3.1-.6 0-.8-.3-.2-.2-.4-.5-.2-.8.1-.1.1-.3.2-.4 2-2.2 4.1-4.4 6.1-6.5.4-.4 1.1-.2 1.3.3.1.3 0 .6-.1.9-.8 1.6-.8 1.9.4 3l4.5 4.2c.5.4.9.9 1.4 1.3.3.3.4.7.3 1.1-.3.8-.5 1.6-.9 2.4-1.4 3.3-3.6 5.9-6.5 7.9-6.3 4.4-13.7 2.4-17.6-2.8-2.3-2.7-3.2-5.7-3.3-9M136.2 376.9c-6.9 0-12.1-4.7-12.8-11.6-.3-2.8.5-5.4 2.1-7.8 3.2-4.7 10.1-7.2 15.6-5.6 5.2 1.6 9 6.2 9.1 11.6.1 4.7-2 8.3-5.8 10.9-2.5 1.7-5.2 2.5-8.2 2.5m-2.9-4.6c3.4 0 8.3-1.6 11-3.6.5-.4 1-.8 1.4-1.2 3.6-3.4 1.7-9.8-2.8-10.9-1.2-.3-2.3-.4-3.5-.3-3.6.3-6.9 1.4-9.9 3.4-1 .7-1.8 1.5-2.5 2.5-1.3 1.8-1.5 3.7-.7 5.8 1.1 2.7 3.6 4.3 7 4.3M308.3 496.9c-.1 4.4-1.4 8.2-4.9 11-3.7 3.1-7.9 3.7-12.4 2.1-4.4-1.6-6.9-5-7.8-9.5-.5-2.6-.2-5.2.6-7.7 2.1-6.6 9.1-10.3 15.8-8.3 4.6 1.4 8.3 6 8.7 11v1.4m-5.2-1.2v-2.1c-.1-1.3-.4-2.5-1-3.6-1.7-3.9-7.7-5.2-10.8-1.5-1 1.2-1.7 2.5-2.1 3.9-.7 2.3-1.1 4.6-1.1 6.9 0 1.7.3 3.3.9 4.8 1.2 3 3.6 4.5 6.9 4.2 2.1-.2 3.7-1.3 4.9-3 .7-.9 1.1-1.9 1.4-3 .6-2.1 1-4.3.9-6.6M465.1 193.6c-5.5 0-9.2-2.3-11.6-6.5-2.3-4.2-2-8.5.4-12.5 1.5-2.5 3.7-4.5 6.4-5.8 7.3-3.6 16 .5 17.8 8.3.6 2.4.3 4.8-.5 7.2-1.5 4.7-7.1 9.6-12.5 9.3m3.3-22.5c-.1 0-.5 0-.9.1-4.6.8-10.5 5.9-11.9 10.4-1.2 3.7.7 7.2 4.4 8.3 2.2.7 4.2.2 6.1-.9 2.9-1.6 5.2-3.7 7.2-6.3.7-.9 1.2-1.8 1.5-2.9 1.7-4.7-2.3-8.9-6.4-8.7M497.7 218.9c7.5-.1 13.3 6.4 12.7 13.3-.2 2.8-1.3 5.3-3.2 7.4-3 3.5-9.4 6.1-15.2 4.1-7.8-2.7-11.7-13.1-4.8-20.3 2.9-2.9 6.4-4.4 10.5-4.5m-4.3 21.3c.6 0 1.1 0 1.5-.1 3.5-.7 6.7-2 9.6-4.2.6-.4 1.1-.9 1.5-1.4 3.6-3.8 1.3-10.2-3.7-11-.9-.1-1.9-.2-2.8-.1-3.7.6-7.1 2-10 4.3-.9.7-1.6 1.5-2.2 2.4-1.5 2.3-1.4 4.6 0 6.9 1.5 2.2 3.7 3.1 6.1 3.2M445.4 147.3c4.7-.3 10.5 3.2 11.9 8.7.7 2.8.7 5.6-.3 8.3-1.3 3.2-3.5 5.8-6.5 7.5-4.4 2.5-10.9 2.6-15.4-2-3.1-3.2-4.1-7-3.2-11.3.9-4.3 3.5-7.5 7.3-9.7 2-1.1 4.1-1.6 6.2-1.5m-10 16.3c-.1 1.5.2 2.7.9 3.8 1.7 2.5 4.7 3.6 7.6 2.7 1.3-.4 2.4-1.1 3.5-1.9 2.3-1.9 4.2-4.2 5.6-6.9.6-1.1 1-2.3 1.2-3.5.8-4.7-4.3-8.5-8-7.3-1.2.4-2.4.8-3.4 1.6-2.8 2.1-5 4.7-6.6 7.9-.4 1.2-.8 2.5-.8 3.6M489.6 417.8c-.1-.8-.3-1.7-.7-2.5l-.6-1.5c-.2-.4-.1-.8.2-1.1.2-.4.7-.6 1-.2 1.3 1.7 2.5 3.4 3.7 5.1.2.3.2.6 0 .9-.2.3-.3.5-.5.8-3.3 4.6-6.5 9.2-9.8 13.8-.1.2-.3.4-.4.6-.4.4-.8.5-1.2.1-.3-.3-.5-.6-.3-1 .1-.1.2-.3.2-.4.9-1.8.9-2.2-.6-3.3-4.6-3.3-9.3-6.6-14-9.9-.3-.2-.5-.3-.8-.5-1-.5-1.5-.5-2.3.4-.3.3-.5.6-.7.9-.4.4-.7.4-1.2-.1-.4-.3-.4-.6-.1-1 1.3-1.8 2.5-3.6 3.8-5.4 2-2.9 4.1-5.8 6.1-8.6.3-.4.6-.8.8-1.1.3-.4.7-.4 1-.1l4.2 2.7c.3.2.4.5.3.8-.2.3-.4.7-.9.7-.5-.1-.9-.2-1.3-.4-1.5-.6-2.8-.2-3.7 1.1-1.2 1.7-2.5 3.5-3.7 5.2-.3.4-.3.8.1 1 2 1.4 4 2.8 5.9 4.2.4.3.8.2 1-.2.9-1.3 1.9-2.5 2.7-3.8.9-1.5.9-2-.2-3.4-.8-1-.9-1.3-.4-1.7.7-.6 1.2 0 1.6.3 2 1.4 4 2.8 5.9 4.2.4.3.4.6.2 1s-.5.6-1 .4c-.1 0-.2 0-.2-.1-.1-.1-.3-.1-.4-.2-1.5-.8-2.3-.6-3.6 1-.1.1-.2.2-.3.4-.8 1.2-1.8 2.3-2.5 3.7.8 1.3 2.3 1.9 3.4 2.8 1.1.9 2.3 1.6 3.5 2.4.6.4 1 .4 1.4-.2 1.3-1.8 2.5-3.6 3.8-5.4.4-.8.6-1.5.6-2.4M139.9 215.9c2.4 1.3 4.7 2.4 6.9 3.6.5.3.9.2 1.2-.3.8-1.5 1.6-2.9 2.2-4.4.6-1.4.4-2-.8-3.1-.3-.3-.6-.5-.8-.8-.2-.3 0-.6.2-.9.2-.3.4-.5.8-.3.8.4 1.5.8 2.3 1.2 1.7.9 3.3 1.7 5 2.6.4.2.6.5.4 1-.2.5-.6.8-1.1.7-.2 0-.3-.1-.4-.2-1.9-.7-2.8-.2-3.6 1.5-.7 1.2-1.3 2.5-2 3.8-.3.5-.2.9.3 1.2l6.9 3.6c.8.4 1.2.3 1.7-.6.9-1.7 1.7-3.3 2.6-5 .8-1.5.7-3-.1-4.5-.3-.6-.7-1.2-1.1-1.8-.1-.3-.3-.6-.3-.9 0-.4.1-.8.5-1 .4-.2.6 0 .8.3 1.3 1.4 2.6 2.7 3.9 4.1.5.5.5 1 .2 1.7-2.2 4.2-4.4 8.4-6.5 12.5-.6 1.2-1.2 2.4-1.9 3.5-.2.4-.6.5-1 .3s-.7-.5-.5-.9c.1-.4.4-.9.5-1.3.3-1 .1-1.5-.7-2-.6-.4-1.2-.7-1.8-1-4.4-2.3-8.8-4.6-13.2-6.8-.6-.3-1.3-.6-1.9-.9-.9-.3-1.4-.2-2 .7-.3.4-.5.8-.7 1.2-.2.3-.5.3-.8.1-.3-.2-.6-.3-.6-.7 0-.3.1-.6.3-.9 2.7-5.2 5.4-10.3 8-15.5.1-.2.2-.4.4-.6.2-.3.5-.5.8-.3 1.6.7 3.1 1.4 4.7 2.2.3.1.5.4.3.8-.1.4-.3.8-.8.8s-1.1-.1-1.6-.3c-1.2-.3-2.2.1-2.9 1.1-.1.2-.3.4-.4.6-1.1 1.6-2.2 3.6-3.4 5.9M209.3 475.2c1.4 0 2.7-.3 3.6-1.4.8-.9 1.7-1.9 2.4-2.9 2-2.8 3.9-5.7 5.9-8.5.1-.1.2-.3.3-.4 1-1.6 1.7-2.3-.5-3.9-.3-.2-.4-.4-.4-.8 0-.5.8-1 1.2-.7 2.3 1.6 4.7 3.2 7 4.8.4.3.3.7.1 1-.2.3-.5.6-1 .4-.1-.1-.3-.2-.4-.2-1.8-.9-2.3-.8-3.6.8-.9 1.1-1.6 2.3-2.4 3.5-1.3 1.9-2.6 3.7-3.9 5.6-.8 1.1-1.6 2.1-2.6 3.1-2.4 2.3-5.2 2.8-8.3 1.9-2.9-.9-5.2-2.6-7-5-1.8-2.4-2.1-5-1-7.8.5-1.3 1.3-2.5 2.1-3.7 1.9-2.8 3.8-5.6 5.7-8.3.4-.6.8-1.2 1.1-1.8.5-1 .3-1.6-.5-2.3-.3-.3-.6-.5-.9-.7-.4-.3-.2-.7 0-1 .3-.4.6-.6 1-.3 1.2.8 2.5 1.7 3.7 2.5 1.6 1.1 3.1 2.1 4.6 3.2.6.4.6 1 .1 1.4-.2.1-.4.2-.6.2-.2 0-.4-.2-.6-.3-1.4-1.1-2.4-.7-3.5.9-2.3 3.4-4.7 6.7-6.9 10.1-.6.8-1 1.8-1.4 2.7-.9 1.9-.5 3.7.9 5.2 1.6 1.7 3.5 2.6 5.8 2.7M156.9 411.5c-.1-.9-.2-1.9-.2-2.8 0-1.1.1-2.2.2-3.3.7-4.4 5.2-6.9 9.8-4.8 2.3 1.1 3.7 3.1 4.4 5.5.2.8.4 1.5.5 2.3.1.5.5.8 1 .8.3 0 .6-.1.9.1.5.3.6 1.1.2 1.4-1 .7-2 1.3-2.9 2-1.2.8-2.4 1.6-3.5 2.3-.4.3-.8.6-1.2.1-.5-.5-.4-.9.2-1.6.5-.6 1.1-1.1 1.6-1.8 1.4-2 1.5-4.6.1-6.6-.6-.9-1.3-1.6-2.4-1.8-1.9-.4-3.3.4-3.7 2.3-.1.5-.1.9-.1 1.4.1 1.8.1 3.6.2 5.4.1 1.5.3 3 .1 4.5-.3 3.5-2.5 6-5.8 6.6-2.4.4-4.5-.3-6.3-1.9-1.5-1.3-2.5-3-3.1-4.9-.2-.7-.4-1.5-.6-2.3-.2-.8-.6-1.5-1.6-1.2-.1 0-.3-.1-.4-.1-.5-.2-.7-1.1-.2-1.4 2.2-1.5 4.4-2.9 6.7-4.4.4-.2.7-.2 1 .1.3.4.4.8 0 1.3-.5.5-.9 1.1-1.4 1.6-2.3 2.5-1.5 7 1.2 9 2 1.5 4.5.7 5.3-1.6.2-.7.3-1.4.3-2.1v-4h-.3zM307.9 101.7c1.4 0 2.6.4 3.9.8 1 .3 1 .3 1.7-.7.2-.3.4-.5.7-.6.4-.1.9.1 1 .4 0 .1.1.1.1.2.2 2.7.3 5.3.5 8 0 .6-.3.9-.9.8-.3 0-.6-.1-.8-.4-.3-.7-.4-1.5-.7-2.2-.9-2.3-2.6-3.5-4.9-3.9-1.6-.2-3 .2-4 1.5s-1 2.6.2 3.8c.4.4 1 .8 1.5 1.1 1.3.7 2.6 1.4 4 2.1 1.5.8 3 1.5 4.4 2.3 1.5.9 2.7 2.2 3.2 3.9 1.1 3.2-.4 6.7-3.5 8.4-2 1.1-4.1 1.5-6.4 1.1-1.1-.2-2.1-.5-3.2-.7-.7-.2-1.4-.2-1.7.7-.1.3-.4.5-.7.6-.4.1-.9-.1-.9-.5-.1-1.1-.2-2.2-.2-3.3-.1-1.6-.2-3.3-.3-4.9 0-.5.3-.7.7-.8.4-.1.8.1 1 .5.2.7.4 1.3.7 2 1.2 3.7 5.4 4.7 8.4 3.6 2.6-.9 3.1-3.8 1.1-5.7-.6-.6-1.4-1-2.2-1.4-1.7-.8-3.4-1.7-5-2.5-1.1-.6-2.2-1.2-3.2-2-3.7-3.1-3.2-8.7 1.4-11.2 1.1-.8 2.4-1.1 4.1-1M366.8 125.8c-.4 4.5 2.6 6.6 5.3 7.2.5.1.9.2 1.4.1 2.7-.2 4.2-2.6 2.9-5.1-.4-.9-1.1-1.6-1.7-2.2-1.2-1.3-2.5-2.6-3.7-3.9-.8-.9-1.6-1.8-2.2-2.8-2.9-4.8.6-10.1 5.7-10.3 1.9-.1 3.6.4 5.2 1.4.6.4 1.2.8 1.7 1.2.8.7 1.4.8 2.2-.1.3-.4.7-.2 1.1 0 .4.2.4.6.3 1-.7 2.5-1.5 5-2.2 7.4-.1.4-.4.7-.8.6-.5 0-.9-.4-.9-.9 0-.9.1-1.7.1-2.6-.2-2.5-1.5-4.2-3.8-5.2-1.3-.5-2.6-.5-3.8.3-1.3.9-1.7 2.3-1 3.7.3.6.7 1.2 1.2 1.7 1.2 1.3 2.4 2.5 3.5 3.8 1 1.1 2.1 2.1 2.9 3.3 3.2 4.7.3 10.6-5.3 11.1-2.2.2-4.2-.3-6.1-1.4-.7-.4-1.3-.8-2-1.3-.9-.6-1.7-1.3-2.6 0-.2.3-.6.1-.9 0-.3-.2-.5-.4-.4-.8 0-.2.1-.5.1-.7.7-2.3 1.3-4.5 2-6.8.1-.4.3-.9.9-.9.6.1.8.4.9 1.2v1M433.4 445.8c.2 0 .4.1.6.2.5.2 1 .5 1.5.8 5.8 3.1 11.6 6.3 17.4 9.4.6.3 1.1.6 1.7.9 1.3.6 2.5.9 3.8.1.1-.1.3-.1.4-.1.5-.1.7.3.9.6.2.3.1.6-.2.8-1.7 1.4-3.4 2.8-5.1 4.1-.7.6-1.5 1.2-2.2 1.8-.3.2-.6.2-.8 0-.3-.3-.6-.6-.4-1 .2-.4.6-.7.8-1.1.3-.5.2-.9-.2-1.3-1.3-1.1-2.9-1.9-4.5-2.6-.4-.2-.8.1-1.1.3-1.8 1.5-3.7 3-5.5 4.4-.4.3-.6.7-.4 1.2.4 1.4.8 2.9 1.3 4.3.3.7.8.9 1.5.7.4-.2.8-.4 1.2-.7.4-.2.7 0 1 .4.3.4.3.7 0 1-1.9 1.6-3.9 3.2-5.9 4.7-.3.2-.6.1-.8-.1-.2-.2-.4-.5-.4-.8 0-.3.2-.6.4-.8.6-.7.7-1.6.5-2.5-.3-1.2-.5-2.5-.9-3.7-1.7-6.2-3.5-12.4-5.2-18.6-.1-.5-.3-1.1-.3-1.6.1-.3.5-.6.9-.8m11.2 11c-2.7-1.4-4.9-2.8-7.6-4 .6 2.7 1.4 5.1 2 7.5.1.4.5.5.9.2 1.5-1.2 3-2.3 4.7-3.7M390.6 493.8v.7c0 2.2.1 3.1 2.6 2.3.4-.1.7.1.9.5.2.5.1.9-.5 1.1-2.2.9-4.3 1.8-6.5 2.7-.4.2-.8.2-1-.3-.2-.4-.3-.8 0-1.1 1.8-1.2 1.8-3 1.8-4.8.1-5.6.1-11.1.2-16.7 0-1.8.1-3.6.1-5.4 0-.8.9-1.2 1.5-.7.2.1.4.3.5.5l1.2 1.2 12.8 12.8c.7.7 1.5 1.4 2.2 2.1 1 .9 2 1.5 3.4 1.2h.7c.4.1.5.4.6.7.1.3 0 .6-.3.8-.6.3-1.3.6-1.9.9-2.2.9-4.5 1.8-6.8 2.7-.4.2-.8 0-1-.4-.2-.4-.2-.8.1-1.1.2-.2.4-.3.6-.4 1-.9 1.1-1.3.2-2.3-.9-1-1.9-1.9-2.8-2.9-.4-.4-.8-.4-1.3-.2-2.2.9-4.3 1.8-6.5 2.7-.6.2-.9.6-.9 1.2l.1 2.2zm6.2-8.2c-2.1-2.6-4.5-4.8-5.8-5.6-.4 2.5-.4 6.1 0 8 1.9-.7 3.8-1.4 5.8-2.4M513.7 243.8v-.5c0-.4.3-.5.6-.6.3-.1.6-.1.8.2.2.3.3.6.4.9 1.4 5.3 2.9 10.6 4.3 15.9.1.3.1.6.2.9 0 .3-.1.7-.4.8-1.6.5-3.3 1.1-4.9 1.6-.3.1-.6-.1-.7-.4-.1-.3-.2-.7.1-.9.4-.4.9-.7 1.3-1 1.1-.8 1.6-2 1.3-3.3-.4-1.9-1-3.8-1.5-5.7-.1-.5-.5-.5-1-.4-2.3.6-4.5 1.2-6.8 1.9-.4.1-.7.4-.5.9.3 1.1.6 2.3.9 3.4.3 1.1 1.1 1.7 2.3 1.7.3 0 .6-.1.9-.1.6 0 .9.3.9.9.1.5-.1.7-.6.9-2.5.7-5 1.4-7.5 2-.4.1-.8 0-.9-.4-.2-.6-.2-.9.4-1.2 2.4-1.3 2.5-1.5 1.8-4-.3-1-.2-2.3-1-2.8-.8-.6-1.9.3-2.9.5-1.6.4-3.2.8-4.8 1.3-1.6.5-1.9 1-1.6 2.8 0 .2.1.5.1.7 0 .4-.2.6-.5.7-.4.1-.8.1-1-.3-.1-.1-.2-.3-.2-.4-.8-3-1.6-6-2.4-9.1-.1-.3-.1-.6 0-.9.1-.3.4-.5.7-.5.2 0 .5.1.6.2.2.2.2.6.3.9.7 1.6 1.2 1.9 2.9 1.5 2.2-.5 4.4-1.2 6.6-1.8 2.9-.8 5.9-1.6 8.8-2.4.6-.2 1.2-.3 1.8-.5 1.2-.4 1.5-.8 1.4-2.1-.1-.6-.1-.8-.2-1.3M131.9 331.7c-1.8.1-4 .4-6.2 1.3-1.6.6-3 1.6-4.1 3-2.3 3.1-2 9.1 1.8 11.6.9.6 1.7 1.1 2.6 1.6.4.3.7.6.5 1.1-.3.6-.5.7-1.1.5-4.4-1.6-7.2-4.6-8-9.3-1.3-7.8 3.8-13 10-14.4 3.2-.7 6.4-.4 9.4 1 5.2 2.5 8.1 8.1 7 13.8 0 .2-.1.5-.1.7-.1.5-.5 1-.3 1.6.2.6.8.6 1.4.8.4.2.5.6.5 1 0 .3-.3.6-.6.7-2.6.6-5.2 1.3-7.8 1.9-.3.1-.6-.1-.7-.4-.1-.3-.1-.7.1-.9.3-.3.6-.5 1-.7.9-.5 1.7-1.1 2.4-1.8 3.7-3.5 2.2-10-2.1-11.9-1.6-1-3.4-1.3-5.7-1.2M233.7 492c-7.6 0-13.5-7.1-11.7-14.8 1.3-5.7 4.6-9.8 10.5-11.3 4.6-1.2 8.7.2 12.1 3.5.3.3.6.7.9 1.1.8.9.9.9 2 .4l.6-.3c.5-.1 1.1.5 1 1-.2.7-.5 1.3-.8 2-.8 1.8-1.5 3.6-2.3 5.4-.2.4-.4.7-.9.5-.4-.2-.7-.4-.6-.9 0-.6.1-1.2.2-1.9.1-1.3-.1-2.5-.5-3.7-1.2-3.4-6.5-6.4-10.9-3.5-.4.3-.8.5-1.1.8-3 2.7-4.9 6-5.6 9.9-1.1 6 3.7 9.3 7.8 9.8 1.2.1 2.3-.3 3.4-.7.8-.3 1.6-.7 2.4-1 .4-.2.8 0 1 .4.2.4.3.7-.1 1-2.3 1.4-4.6 2.3-7.4 2.3M407.7 128.7v-1.4c-.3-2.9-1.8-5-4.4-6.2-2.7-1.2-5.4-.9-7.7 1-1.1.9-2 2-2.8 3.2-1.3 2-2.2 4.1-2.7 6.5-1.2 6.2 3.1 9.7 7.6 10.3 1.2.2 2.3-.2 3.4-.6.9-.4 1.8-.9 2.8-1.3.6-.3.8-.2 1.1.4.3.4.2.8-.2 1-1.6 1.3-3.4 2.2-5.5 2.6-7 1.2-13.9-4.2-14.2-11.3-.2-5.6 2.1-10.1 6.8-13.1 4.9-3.2 11.4-2.4 15.6 1.8.3.3.6.7 1 1 .6.6.8.6 1.6.1.2-.1.4-.3.6-.4.3-.2.6 0 .9.2.3.2.4.5.3.8l-.9 2.7c-.6 1.6-1.2 3.2-1.8 4.9-.1.3-.3.6-.7.5-.4-.1-.8-.2-.8-.7v-2zM253.4 476.3c-.9 0-1.5.3-2.1.9-.4.5-.7 1-1.1 1.5-.3.4-.7.5-1.2.2-.3-.2-.5-.4-.4-.7.7-1.7 1.4-3.5 2.2-5.2.1-.3.5-.4.8-.3.4.1.7.2 1.1.4 5.5 1.9 10.9 3.9 16.4 5.8.4.1.7.3 1.1.4.4.2.6.5.5.9-.5 1.7-1 3.5-1.5 5.2-.1.3-.4.5-.7.4-.4-.1-.8-.2-.9-.7 0-.4.1-.8.1-1.2.2-1.7-.6-2.9-2.1-3.6-.9-.4-1.8-.6-2.6-1-.6-.2-.9.1-1.1.6l-.3.9-5.4 15.3c-.1.1-.1.3-.1.4-.8 2.4-.7 2.5 1.5 3.6.4.2.7.4.6.9-.1.5-.5.9-1 .8-.2 0-.5-.1-.7-.2-2.7-1-5.5-1.9-8.2-2.9-.3-.1-.6-.2-.9-.4-.3-.2-.3-.5-.2-.8.1-.3.3-.6.6-.6s.6.1.9.1c1.8.3 2.1.1 2.8-1.6.1-.2.2-.4.2-.7 1.8-5.2 3.7-10.3 5.5-15.5.1-.4.2-.7.3-1.1.1-.3-.1-.6-.4-.8-1.1-.4-2.3-1-3.7-1M480 212.9c.8-.1 1.3-.1 1.9-.1.5 0 .7.3.8.7 0 .3-.1.6-.4.7L476 216c-.4.1-.8-.1-1-.4-.2-.3-.4-.6-.7-1-3-4.5-5.9-9.1-8.9-13.6-.2-.3-.4-.7-.6-1-.2-.4-.1-.7.3-1 .4-.3.7-.3 1 0 .2.2.3.4.4.6.9 1.4 2 1.3 3.2.5 1.9-1.2 3.8-2.5 5.7-3.7 2.5-1.6 5-3.3 7.5-4.9.5-.3 1.1-.7 1.6-1.1 1.3-1 1.4-1.5.7-3-.1-.2-.3-.4-.4-.6-.2-.5-.1-.8.5-1.1.4-.3.8-.1 1 .3 2 3 3.9 6.1 5.9 9.1.3.4 0 .7-.4 1-.4.3-.7.3-1 0-.5-.5-.9-1.1-1.4-1.6-.6-.6-1.3-.6-2-.3-.5.2-1 .5-1.4.8-4.3 2.8-8.6 5.6-12.8 8.4-2.1 1.4-2.2 1.6-.9 3.7.7 1.1 1.4 2.1 2.1 3.1 1.4 2.1 3.3 3.1 5.6 2.7M268.3 503.3c1.6.1 1.9-.1 2.4-1.6.6-2 1-4.1 1.6-6.2.9-3.5 1.8-7 2.6-10.5.5-2.3.4-2.6-1.9-3.5-.7-.3-.8-.6-.6-1.2.1-.3.3-.5.7-.5.2 0 .5.1.7.2l8.7 2.1.9.3c.3.2.3.5.2.8-.1.3-.2.7-.6.6-.5 0-1.1-.2-1.6-.2-.8 0-1.4.3-1.7 1.1-.2.4-.3.9-.5 1.3l-3.9 16.2c-.5 2.1-.3 2.4 1.7 3.2.2.1.5.1.7.2.4.3.3.7.2 1.1-.1.3-.3.6-.7.5-.5-.1-.9-.2-1.4-.3-2.5-.6-5-1.2-7.5-1.9-.5-.1-.9-.3-1.3-.4-.4-.1-.4-.5-.3-.8.1-.3.2-.6.6-.6.2 0 .6 0 1 .1M168 212c-1.4 0-2.5-1.1-2.5-2.5s1.2-2.6 2.6-2.5c1.3 0 2.5 1.3 2.5 2.6-.1 1.3-1.2 2.4-2.6 2.4M156.1 237.2c0 1.4-1.2 2.5-2.5 2.5-1.4 0-2.5-1.2-2.5-2.6s1.2-2.5 2.6-2.5c1.3.1 2.4 1.3 2.4 2.6M348.9 125.2c1.4 0 2.5 1.1 2.5 2.5s-1.1 2.5-2.5 2.5-2.5-1.1-2.5-2.5c0-1.5 1-2.5 2.5-2.5M458.3 386.4c.2.6-.1.9-.3 1.2-5.6 9.4-12.1 18.2-19.5 26.3-.6.7-1.3 1.1-2.2 1H323.7c-.8 0-1.6 0-2.4.1-.3 0-.6.3-.6.6 0 .7-.1 1.4-.1 2.1V465c0 .6-.4.8-.9.8-1.4 0-2.8 0-4.2-.1-6.1-.3-12.2-.8-18.3-1.7-12.8-1.9-25.2-5.3-37.1-10.2-44.5-18.2-78.5-55.6-92.4-101.7-2.6-8.7-4.5-17.6-5.6-26.7-.3-2.4-.5-4.8-.8-7.3-.1-1 .1-1.2 1.2-1.2h314c3.8 0 3.5-.5 3.2 3.4-1 11.2-3.1 22.2-6.5 33-.1.2-.1.5-.2.7-.5 1.3-.5 1.3-1.8 1.4h-47.5c-1.8 0-3.6 0-5.4-.1-1.6-.1-3.1.1-4.7.1H322c-2.5 0-2.3-.1-2.3 2.3v26.4c0 2.2 0 2.1 2 2.1h134.1c.8.1 1.7 0 2.5.2m-180.5-32.9c-.7 1.5-1.9 2.3-3.5 2.3-.9 0-1.9-.1-2.8-.3-3.4-.7-6.8-1.2-10.3-1-.9 0-1.9-.1-2.8 0-1.5.2-2.8-1.1-4.3-.4-1.4.6-2.9.4-4.4.5-2.3.2-4.5.5-6.7 1l-7.8 1.8c-5.9 1.4-11.9 2.1-18 1.6-2-.2-3.9-.5-5.8-1-1.5-.4-3-1-4.2-2.1-2-1.8-2.5-3.9-1.9-6.4.2-.7.5-1.1 1.1-1.5 1-.6 2.1-1 3.3-1.3 2.3-.6 4.6-.8 7-.8 2.2 0 4.4.2 6.6.2.6 0 1.3.2 1.8-.2 1.1-.9 2.3-.7 3.6-.6 1.6.2 3.1.2 4.7 0 .5-.1 1-.2 1.3-.8-1.4-.3-2.7-.8-3.9-1.4-1-.5-2-.9-3.1-.3-.4.2-.7.1-1.1-.2-1-.9-2.2-1-3.5-.8-2.1.5-4.2.4-6.2-.6-1.1-.5-2.3-.5-3.5-.4-1.7.2-3.4.7-5 1.2-1.7.5-3.5 1-5.3.8-.8-.1-1.4.2-1.8.9-.7 1.2-1.8 1.7-3.1 1.6-1.4-.1-2.4.5-3.3 1.4-.5.5-1 1-1.3 1.7-1.7 2.9-2.1 6.1-1.3 9.3.7 3.1 2.9 5 5.6 6.3 1.8.9 3.6 1.5 5.6 1.9 3.2.7 6.5 1.2 9.8 1.5.7.1 1.2.3 1.4 1 .3 1.5 1.3 2.4 2.6 3.2 3.2 1.9 2.5 1.2 2.6 4.8.1 1.4-.3 2.5-1.5 3.2-1.3.7-1.5 1.9-1.3 3.2.1.5.2.9.3 1.4.3 1.1.8 1.3 1.7.7.5-.3.9-.7 1.3-1 .5-.4.9-.9 1.4-1.3.4-.3.8-.4 1.3 0 .6.7 1.4 1 2.3 1 1.1.1 2.2.2 3.3.2.2 0 .6-.1.6-.2.4-.9.8-1 1.5-.2.3.3.7.4 1.1.3.5-.1.9-.3 1.4-.3 1.2.2 1.7-.6 2.2-1.4.8-1.5.6-1.9-1-2-.5 0-.9-.1-1.4-.2-2.1-.5-2.7-1.4-2.3-3.6 0-.2.1-.3.1-.5.1-.5-.1-.9-.6-1.1-.4-.2-.9-.4-1.1-.9-.1-.3 0-.7.3-.8.9-.2 1.9.1 2.8-.4 2.2-1.1 1.8-.8 4.1.4 1 .5 2 1.2 3 1.9.8.6 1.6 1.3 2.1 2.2.3.5.3.9-.3 1.1-1.2.3-1.4 1-1.4 2.1v1.2c.2 3 1.7 3.5 4.3 2.1.3-.2.6-.5.9-.7.2-.2.5-.4.7-.6.3-.2.6-.2.7.2.1.3.3.4.5.3 1.2-.2 2.1.3 3.1.8.6.3 1.3.7 2 .7.8 0 1.6.1 2.2-.5.4-.4.2-1.5-.6-2.3-.6-.7-1.4-1.3-2.1-1.9-.9-.8-1.6-1.7-1.7-3 0-.2-.1-.4-.4-.5-.3.1-.7.2-1.1.3-.2 0-.5.1-.7.1-1.1 0-1.4-.1-1.6-1.2-.2-1 0-1.2 1.1-1.3 3.2-.5 6.4-.2 9.6-.3.5 0 .9.2 1.3.5 1.4 1.3 3 2.6 4.2 4.1 1 1.3 1.7 2.8 2 4.5.1.6-.1 1.4.3 1.8.6.6 1.3-.1 2-.1 2.4-.3 4.7-.6 6.7 1.2.1.1.3 0 .4 0 0-.1.1-.1.1-.2.2-1.6 1-2.3 2.6-2.2.8.1 1.7-.2 2.5-.7 1.3-.9 1.6-1.7.9-3.2-.6-1.2-1.2-1.5-2.4-.9-2.7 1.4-7.1-.9-7.5-4.6-.1-.8.2-1.2 1-1.2 2.8-.1 5.6-.3 8.5-.4 5.4-.2 10.8-.7 16.1-1.9 1.7-.4 1.8-.4 2.5 1.1.3.6.5 1.1.7 1.7.3.8.1 1.2-.6 1.5-.9.5-2 .5-2.9.8l-.9.3v.4l.6.3c1.5.5 1.5.5 1.1 1.9-.2.7-.5 1.5-.6 2.3-.1.3-.3.8.2 1 .5.2.7-.3.9-.6.3-.4.5-.8.8-1.1.3-.3.5-.6.9-.8.1-.1.3-.1.4-.1.3 0 .3.3.4.5.1.9-.2 1.9.2 2.8 0 .1.2.2.3.3.1 0 .3-.1.4-.2.3-.6.5-1.3.7-2 .2-.7.4-1.4.9-1.9.3-.3.8-.3 1 0 .4.6.7 1.2 1.1 1.8.2.3.3.6.8.4-.1-2.3.7-4.4 1.4-6.5.1-.1.1-.3.1-.5.7-2 .6-3.9-1.2-5.3-.1-.1-.2-.2-.3-.4-.4-.5-.7-1.1-.5-1.7.2-.7-.1-1.1-.6-1.6-1.1-1-1.1-1.6-.3-2.9.4-.7.9-1.3 1.3-2s.9-1.3 1.1-2.1c.7-1.8.3-3.4-1.2-4.6-.7-.6-1.5-1.1-2.3-1.7-1.5-1.1-2.7-2.4-2.6-4.5 0-.5-.4-.7-.8-.5-.4.1-.8.2-1.1.5-1.6 1.2-3.2 1-4.9.3-.9-.4-1.7-.8-2.5-1.2-1.3-.6-2.6-1.2-4-1.2-.6 0-.9-.3-.9-.8 0-.6-.4-.9-.9-.9-.6-.1-1.2-.2-1.9-.2-.5 0-.9-.2-1.1-.7-.1-.4-.3-.7-.5-1.1-.3-.9-.9-1.4-1.8-1.6-2.3-.6-4.7-.5-7 0-3.2.7-3.2 1-3.2 4.4 0 .5.2.9.7 1.1 1.6.8 2.7 2.1 3.6 3.6.5.7.9 1.5 1.4 2.2 1.4 1.8 1.6 1.9 3.5 2.7"/><path d="M320.7 310.6H164.3c-.9 0-1.7 0-2.6-.1-.2 0-.4-.2-.4-.5s.2-.5.4-.5c.7-.1 1.4-.1 2.1-.1h25.9c2.9 0 2.7.3 2.7-2.6v-6.6c0-.9-.2-1.1-1.1-1.1h-7.5c-.6 0-.8-.4-.8-.9v-13.9c0-.3-.2-.6-.6-.6-2 0-3.9-.1-5.9 0-.3 0-.5.3-.5.6v9.9c0 .9-.2 1.1-1.1 1.1h-12.3c-.9 0-1.1-.2-1-1.2 2.8-35 15.6-65.9 38.6-92.5 19-22 42.4-37.6 69.9-47 2.3-.8 4.6-1.4 7-2.1.6-.2.9.1 1 .7V255c0 .9 0 1.7.1 2.6 0 .4.3.6.6.6.5 0 1.1.1 1.6.1h70c.6 0 .8-.4.8-1V152.7c0-1-.2-2 .2-3 1.1-.4 2.1.1 3.2.4 20.9 4.5 40.2 12.8 57.7 25.1 32.6 23.1 53.8 54 63.8 92.6 2.1 8.2 3.4 16.6 4.1 25.1.4 5.1.5 10.2.5 15.3v1.2c-.1 1.1-.2 1.3-1.4 1.3h-2.6c-52.2-.1-104.1-.1-156-.1m107.5-24.9c-.2.3-.5.3-.8.3-.3.1-.6.1-.6.6 0 .3.2.5.4.5.9.2 1.1.8 1 1.6v1.9c0 3.9-.1 7.9-.1 11.8 0 .9-.1 1.7 1.1 2 .3.1.3.7.2 1.1-.1.2-.3.4-.5.4h-4.2c-.3 0-.6-.2-.6-.6 0-.5-.1-1.1-.1-1.6V293.4c0-.5-.3-.7-.8-.7H416.4c-.5 0-.7-.3-.8-.7 0-.3 0-.6-.1-.9-.1-1-.2-1.1-1.1-1.1h-12.7c-.9 0-.9.1-1.1 1.1-.2 1.3-.2 1.3-1.4 1.3h-1.4c-4.8 0-9.6-.3-14.4 0-1 .1-1.2-.2-1.2-1.3V284.8c0-.5-.3-.9-.8-.9h-16.8c-.4 0-.7.3-.8.7V295.4c0 1.3.3 2.6-.3 3.9-1.2.4-2.5.1-3.7.2h-1.6c-.5 0-.6-.4-.6-.8s.2-.7.7-.8c1.4-.5 1.4-.5 1.4-1.8v-54.6c0-5 .9-3.9-4.3-4-.5 0-.9.2-.9.8 0 1.3-.1 2.7-.1 4 0 5.4-.1 10.8-.1 16.3 0 1.3 0 2.5-.1 3.8 0 1.1-.1 1.1-1.3 1.2h-16.3c-2.2 0-4.4 0-6.6.1-.8 0-1 .2-1 1v21.4c0 .5-.3.9-.9.9h-1.9c-.6 0-.9.3-.9.9v3.8c0 1.3-.1 1.4-1.3 1.4h-1.4c-.5 0-.7.3-.7.7V299.5c0 .6-.3.9-.9.9h-4.5c-2.2 0-2.1 0-2.1-2.1v-29c0-.9-.2-1.1-1.2-1.1h-10.6c-.7.1-.9.2-.9 1V309c0 .5.3.9.8.9h105.7c1 0 1.2-.2 1.2-1.3v-9.7c0-.8.3-1.1.9-1.1.6 0 .7.5.7 1v1.9c0 2.7 0 5.3.1 8 0 1 .2 1.1 1.1 1.2h60.3c1.6 0 1.6 0 1.6-1.6v-.7c-.1-.9.3-2.1-.2-2.8-.6-.7-1.8-.3-2.7-.4h-.5c-.6 0-.8-.3-.8-.9v-4c0-.8-.2-.9-1-1h-16.3c-.6 0-1.3 0-1.9-.1-.4 0-.6-.3-.6-.6 0-.5 0-1.1-.1-1.6v-8.5c0-1 .4-2.2-.2-3-.7-.8-1.9-.3-2.9-.4h-.5c-.8-.1-1-.2-1-1v-6.1c-.1-4.3.7-3.5-3.9-3.6-.4 0-.7.1-1 .5-.6.8-1.4.8-2.1.3-.6-.4-1.1-.4-1.8-.4h-1.4c-.4 0-.7-.3-.7-.7v-38.9c0-1.1.2-1.2 1.2-1.2h7.8c1.6 0 3.1 0 4.7-.1.4 0 .7-.3.7-.7v-4.2c0-.8-.2-1-1-1h-4c-2.7 0-5.3 0-8-.1-1.5 0-1.5-.1-1.5-1.4v-2.1c0-.8-.2-1-.9-1h-3.8c-.7 0-.9.2-1 1v.9c0 2.9.2 2.6-2.7 2.6h-37c-.4 0-.8.2-.8.7v4.7c0 .4.2.6.6.6h11c2.9 0 2.7-.3 2.7 2.6v40.1c0 .5-.3.7-.8.7h-2.4c-.5 0-1.1-.2-1.5.3.9 1.9 2.6 4.4 3.9 5.8 0-.2.1-.5.1-.7.2-1.1.2-1.1 1.1-1.1h4c.6 0 .9-.3.8-.9-.1-.9-.2-1.7-.3-2.6 0-.4-.3-.7-.8-.7-.3 0-.6 0-.9-.1-1-.1-1.1-.2-1.1-1.1v-41.2c0-.9.2-1 1.2-1.1h21.9c.5 0 .9.3.9.8v48c0 .7-.2 1-.9 1.1-.3 0-.7.1-.8.4-.2.6-.2 1.2 0 1.9.4.3 1.1 0 1.3.4m-180.9 23.7h50.9c2.6 0 2.5.2 2.5-2.3v-43.3c0-.7-.2-.9-1-1h-22.6c-1.4 0-1.5.1-1.5 1.4 0 3-.1 6-.1 8.9v21.5c0 .7-.2.9-1 .9h-8.2c-.2 0-.5 0-.7-.1-.2-.1-.4-.3-.4-.5 0-.9-.3-1.9.1-2.5.7-1.3.6-2.6.6-3.9 0-1 .4-2.2-.3-2.9-.6-.6-1.7-.2-2.5-.2-.9-.1-.9-.1-1.1-1.1-.2-1.1-.2-1.1-1.1-1.1h-6.4c-.7 0-1 .3-1 1 0 .6-.3.8-.9.9-1.1.2-1.1.3-1.1 1.3v4.9c0 .4-.3.8-.7.8-1.9 0-3.8 0-5.6-.1-.5 0-.7-.4-.7-.8v-23.1c0-1.2 0-1.2-1.3-1.4-.5-.1-.9-.3-.9-.9v-.9c0-.4-.3-.6-.6-.6-.2 0-.5 0-.7-.1-1.5-.2-1.5-.2-1.6-1.7v-1.2c0-.7 0-1.3-.9-1.4-.3 0-.5-.4-.5-.7v-2.1c0-.8-.2-1-1-1-2.2-.1-2.3-.1-2.2 2.1 0 .6.2 1.4-.4 1.7-.6.4-.6.9-.6 1.4 0 .6 0 1.3-.1 1.9 0 .3-.2.6-.6.6-.7 0-1.4 0-2.1.1-.3 0-.6.2-.6.6 0 .4-.1.8-.1 1.2 0 .7-.3 1-1 1s-.9.4-.9 1.1v21.7c0 1.6 0 3.1.1 4.7 0 .6.3.9.9.9h6.1c.3 0 .6.3.6.6 0 .4-.1.6-.5.7-.7.1-1.4 0-2.1 0h-38.1c-.5 0-.7.3-.7.7v9.6c0 3-.3 2.7 2.6 2.7h50m147-38.8v-20.5c0-1-.2-1.1-1.1-1.2h-1.6c-1 0-1.2-.1-1.2-1 0-1.8-.2-1.8-1.9-1.8h-1.2c-.9 0-1-.1-1.2-1.1-.2-1-.2-1-1.1-1h-4.5c-.6 0-1.1.2-1.1.9s-.5.9-1.1.9h-2.4c-.4 0-.7.2-.8.7v.9c-.1 1-.2 1.2-1.3 1.2-.8 0-1.6 0-2.4.1-.5 0-.7.6-.6 1 .1.3.2.6.6.7.7.1.8.6.8 1.2V278.4c0 .6-.3.9-.9.9h-4.7c-3.3 0-2.9-.5-2.9 3.1 0 .4.2.7.7.8h17.2c.9-.1 1.1-.2 1.1-1.1 0-.5-.1-.9 0-1.4 0-.5-.1-1.1.6-1.3.5-.1.8.3.8 1.4 0 3.1.1 6.3.1 9.4 0 1.4.1 1.5 1.4 1.5h7.1c1.3 0 1.4-.1 1.4-1.3v-1.9c.2-5.9.2-11.9.2-17.9m-189 8.4h-3.5c-1.1 0-1.3.1-1.3 1.2v14.4c0 .9.2 1.1 1.1 1.2h5.4c3.6 0 3 .4 3.2-3.1 0-.6-.1-1.3.2-1.8.1-.2.2-.3.4-.2.1 0 .3.1.4.2.1.3.3.6.3.9.1 1 .1 2 .1 3.1 0 .5.3.7.8.7h6.6c.5 0 .7-.3.8-.7.2-1.9.4-3.9.6-5.9.1-.7-.1-.9-.8-.9h-6.1c-.8 0-1.5 0-2.2.5-.4.3-.9 0-.9-.6v-7c0-1.6-.1-1.6-1.5-1.7-1.4-.3-2.5-.3-3.6-.3" style="fill:#ff4713"/><path class="st0" d="M273.7 340.9c.4-.7.8-1.3 1.3-1.1.9.3 2 .7 2.2 1.8.2.8.6.9 1.3 1 .7.1 1 .5.9 1 0 .1-.1.3-.2.4-.5.5-1.9.4-2.2-.2-.3-.5-.5-.9-1.2-1-.4 0-.6-.3-.5-.6.1-1.1-.8-1-1.6-1.3"/></svg>