<svg version="1.1" id="Layer_1" xmlns="http://www.w3.org/2000/svg" x="0" y="0" width="360" height="360" style="enable-background:new 0 0 360 360" xml:space="preserve"><style>.st0{fill:#000d8c}</style><path class="st0" d="m339.9 167.8-8.3 8.3-1.2-2.1c-2.5-4.1-6.9-6.7-11.7-6.7-7.5 0-13.6 6.1-13.6 13.6v36.2h-11.3v-58.9h11.3v1.8c4-2.6 8.8-4 13.6-4 8 0 15.6 3.9 20.3 10.5l.9 1.3zM285 182.8l-.6-3.6-10.4 10.3-.1.7c-.6 4.6-2.7 8.9-6 12.1-6.6 6.4-16.4 7.5-24.3 3.1l36.7-35.7-3.9-4c-5.9-6.1-13.8-9.5-22.2-9.6-8.5-.2-16.5 3.1-22.5 8.9-11.4 11.1-12.8 29-3.3 41.7.8 1.1 1.7 2.1 2.6 3.1 1 1 2 1.9 3 2.7 5.8 4.6 12.8 6.9 19.7 6.9 8 0 16-3 22.1-8.9 7.3-7.3 10.7-17.6 9.2-27.7zm-45.5-9.8c3.9-3.8 9-5.8 14.2-5.8 3.5 0 6.9.9 10.1 2.7l-28 27.2c-4.3-7.8-2.8-17.7 3.7-24.1zM171.8 182.8l-.6-3.6-10.5 10.3-.1.7c-.6 4.6-2.7 8.9-6 12.1-6.6 6.4-16.4 7.5-24.3 3.1l36.7-35.7-3.9-4c-5.9-6.1-13.8-9.5-22.2-9.6-8.5-.2-16.5 3.1-22.5 8.9-11.4 11.1-12.8 29-3.3 41.7.8 1.1 1.7 2.1 2.6 3.1 1 1 2 1.9 3 2.7 5.8 4.6 12.8 6.9 19.7 6.9 8 0 16-3 22.1-8.9 7.4-7.3 10.8-17.6 9.3-27.7zm-45.5-9.8c3.9-3.8 9-5.8 14.2-5.8 3.5 0 6.9.9 10.1 2.7l-28 27.2c-4.3-7.8-2.8-17.7 3.7-24.1zM180.9 137.8h11.2v79.3h-11.2zM203.4 137.8h11.2v79.3h-11.2zM110.2 157.9l-19.6 59H78.4l-13.3-40.2-13.3 40.2H39.6l-19.5-59h12.2l13.4 40.6L59 158.2l.1-.3h12l.1.4 13.3 40.2L98 157.9zM339.9 211.3v5.8h-5.1v5.1H329v-5.1h-5.1v-5.8h5.1v-5.1h5.8v5.1z"/></svg>