<svg version="1.1" id="Layer_1" xmlns="http://www.w3.org/2000/svg" x="0" y="0" width="612" height="792" style="enable-background:new 0 0 612 792" xml:space="preserve"><style>.st0{fill:#2b421d}.st1{fill:#bdcd31}</style><path class="st0" d="M479.2 381.5c-5.4-15.6-10.9-31.2-16.4-46.7-11.2-31-22.7-61.9-34.7-92.5L416.4 212l-22.5 27-.4.5-4.8-12.6c-6-15.5-12.1-30.9-18.4-46.2-6.2-15.4-12.6-30.7-19.1-45.9-6.4-15.3-13-30.4-19.7-45.6l-29.6-66.7-34.1 67.2c-4.5 8.9-9.3 17.8-13.6 26.8l-9.5 19.3-19.4-30.6L42.1 488.8c52.7-52.6 150.9-132 292.2-170 1.5-.6 3.1-1.2 4.6-1.7-18.4-.2-92.6 1.5-161.7 29.6l5.8-10.3 38.6-70.1c2.4-4.4 4.8-8.9 7.2-13.3l25.6 40.9 28.8-64.1c6.6-14.8 13.4-29.5 20-44.3 4 7.3 8.1 14.5 12.3 21.8 8.1 14.5 16.4 28.8 24.8 43.1 8.3 14.4 17.1 28.5 25.6 42.7l19.4 32.5 18.8-29 4.9-7.5c10.8 18.6 21.8 37.2 32.9 55.6 8.5 14.1 17.1 28.2 25.9 42.2 8.9 13.9 17.6 28 26.8 41.7-4.8-15.8-10.2-31.4-15.4-47.1zM52 612.2v57H39.3v-165h72.4c71.7 0 71.7 108 0 108H52zm0-96.1v84.6h59.6c54.9 0 54.9-84.6 0-84.6H52zM187.1 611.1c0-34.9 26.4-60.1 59.2-60.1 32.8 0 62 20 57.5 65.5H198.9c2.4 27.3 23.3 43.1 47.4 43.1 15.3 0 33.2-6.1 42-17.7l8.2 6.6c-11.3 14.9-31.6 22.4-50.2 22.4-32.8 0-59.2-22.8-59.2-59.8zm106.3-4.8c-.2-28.8-19.1-44.8-47.1-44.8-24 0-44.8 16.3-47.4 44.8h94.5zM453 552.8v116.5h-11.6v-24.8c-11.3 18.1-28.8 26.6-47.6 26.6-32.5 0-59.2-24.5-59.2-60.1s26.6-59.6 59.2-59.6c18.9 0 38 8.7 47.6 26.9v-25.5H453zm-106.8 58.3c0 29.2 21.2 48.8 47.6 48.8 64.8 0 64.8-97.4 0-97.4-26.4 0-47.6 19.3-47.6 48.6zM502.9 504.3v99.5l54.9-50.9h15.3v.5l-58.9 54.5 65.8 60.8v.7h-14.6l-62.5-57v57h-11.3v-165h11.3z"/><path class="st1" d="M112.5 751.7c-5.4 5.4-12.6 8.1-19.7 8.1-18.2 0-27.7-12.7-27.8-27.3-.2-14.4 9.3-27.9 27.8-27.9 7.1 0 14.3 2.7 19.7 8.1l-2.9 2.5c-4.6-4.6-10.7-6.9-16.8-6.9-15.7 0-23.8 11.1-23.8 24.1.2 12.7 8.2 23.6 23.8 23.6 6.1 0 12.3-2.3 16.9-6.9l2.8 2.6zM159 721.1v38.1h-3.8v-8.1c-3.7 5.9-9.4 8.7-15.6 8.7-10.6 0-19.4-8-19.4-19.7s8.7-19.5 19.4-19.5c6.2 0 12.4 2.9 15.6 8.8v-8.3h3.8zm-35 19c0 9.6 6.9 16 15.6 16 21.2 0 21.2-31.9 0-31.9-8.6 0-15.6 6.4-15.6 15.9zM175.3 721.1v6.8c2.9-5.3 8.3-7.4 13.6-7.5 10.2 0 17.2 6.2 17.2 16.8v22h-3.8v-21.9c0-8.6-5.3-13.3-13.6-13.2-7.9.1-13.3 6-13.3 13.9v21.2h-3.8v-38.1h3.7zM222.1 721.1v6.8c2.9-5.3 8.3-7.4 13.6-7.5 10.2 0 17.2 6.2 17.2 16.8v22h-3.8v-21.9c0-8.6-5.3-13.3-13.6-13.2-7.9.1-13.3 6-13.3 13.9v21.2h-3.8v-38.1h3.7zM301.9 721.1v38.1h-3.8v-8.1c-3.7 5.9-9.4 8.7-15.6 8.7-10.6 0-19.4-8-19.4-19.7s8.7-19.5 19.4-19.5c6.2 0 12.4 2.9 15.6 8.8v-8.3h3.8zm-35 19c0 9.6 6.9 16 15.6 16 21.2 0 21.2-31.9 0-31.9-8.7 0-15.6 6.4-15.6 15.9zM317.5 705.2v24.2c3.1-6.2 9.3-8.9 15.8-8.9 10.6 0 19.1 7.1 19.1 19.7 0 12.7-8.4 19.7-19.1 19.7-6.5 0-12.7-3.2-15.9-9v8.4h-3.7v-54h3.8zm0 34.9c0 9.5 6.6 16 15.6 16 8.6 0 15.6-5.4 15.6-16 0-10.7-7-16-15.6-16-8.8 0-15.6 6.5-15.6 16zM369.1 708.6c0 4-6.1 4-6.1 0s6.1-4 6.1 0zm-5 12.3v38.3h3.8v-38.3h-3.8zM407.2 728c-3.9-3.4-7.6-4-11.9-4-5.9-.1-11.6 2.2-11.5 7 .2 5.1 6.8 6.1 11.6 6.9 6.8 1.2 16.1 2.3 15.7 11.2-.2 8.4-9 10.7-15.7 10.7s-13.3-2.6-16.7-7.6l2.8-2.5c3.2 4.6 8.9 6.5 14 6.5 4.6 0 11.7-1.2 11.9-7.3.2-5.5-6.2-6.6-12.4-7.6-7.4-1.2-14.7-2.6-14.8-10.3-.1-7.5 7.4-10.7 15.1-10.6 5.6 0 10.4 1.5 14.2 5.1l-2.3 2.5zM490.9 751.7c-5.4 5.4-12.6 8.1-19.7 8.1-18.2 0-27.7-12.7-27.8-27.3-.2-14.4 9.3-27.9 27.8-27.9 7.1 0 14.3 2.7 19.7 8.1l-2.8 2.5c-4.6-4.6-10.7-6.9-16.8-6.9-15.7 0-23.8 11.1-23.8 24.1.2 12.7 8.2 23.6 23.8 23.6 6.1 0 12.3-2.3 16.9-6.9l2.7 2.6zM499.8 740.2c0-12.1 8.6-19.8 19.4-19.8s19.4 7.7 19.4 19.8c0 12.1-8.6 19.5-19.4 19.5s-19.4-7.4-19.4-19.5zm35 0c0-9.9-7-16.3-15.7-16.3-8.6 0-15.7 6.4-15.7 16.3s7 15.8 15.7 15.8 15.7-5.9 15.7-15.8zM554.3 756.9c0 4-6.1 4-6.1 0s6.1-4 6.1 0z"/><g><path class="st0" d="M233.8 461.9h-22.2v-4.2h49.1v4.2h-22.2V519h-4.7v-57.1zM275.7 457.6v26.2c3.5-6.2 9.6-8.6 15.6-8.7 12.1 0 18.2 7.8 18.2 19.1V519h-4.2v-24.8c0-8.9-4.2-15-14-15-9.1 0-15.4 7-15.4 16.1V519h-4.3v-61.4h4.1zM321.1 497.4c0-13 9.8-22.4 22-22.4s23.1 7.5 21.4 24.4h-39.1c.9 10.2 8.7 16.1 17.6 16.1 5.7 0 12.4-2.3 15.6-6.6l3.1 2.5c-4.2 5.5-11.8 8.3-18.7 8.3-12.1 0-21.9-8.6-21.9-22.3zm39.5-1.8c-.1-10.7-7.1-16.7-17.6-16.7-8.9 0-16.7 6.1-17.6 16.7h35.2z"/></g></svg>