<svg version="1.1" id="Layer_1" xmlns="http://www.w3.org/2000/svg" x="0" y="0" width="575.2" height="353.9" style="enable-background:new 0 0 575.2 353.9" xml:space="preserve"><style>.st0{fill:#00285e}</style><path class="st0" d="M93.8 129.7H58.7v-27h106.8v27h-36.6v96.8h-35z"/><path class="st0" d="M134.6 137.7h31v54.7s.6 8.3 9.5 8.3 9.8-8.3 9.8-8.3v-54.7h32v88.8h-32v-8.3s-9.9 11.2-26.3 11.2c-14.6 0-20.4-11.2-20.4-11.2s-3.6-6.2-3.6-15v-65.5zM252.9 137.7h-31.3v88.8h32v-49.3s1.3-11.3 18.1-13.4h5.4v-25.3h-5.4s-14.1 1.4-18.7 12.4v-13.2zM487 137.7h-31.3v88.8h32v-49.3s1.3-11.3 18.1-13.4h5.4v-25.3h-5.4s-14.1 1.4-18.7 12.4v-13.2zM312.3 137.7h-31.5v88.8h31.3v-51.8s1.9-9.2 9.6-9.2 9.6 9.3 9.6 9.3v51.8h31.1v-65s-.4-25.8-22.9-25.8c0 0-15.4-.6-27.2 12.1v-10.2z"/><path class="st0" d="M408.3 136.1s-42.8-.5-42.8 47.2c0 0-.5 46.7 42.8 46.7 0 0 37.9 3 44.3-34h-29.1s-3.9 12.2-13.7 12.2c-9.8 0-13.4-14.2-13.9-17.4h57.7c-.1 0 4.5-54.7-45.3-54.7zm-12.2 34.2s3.3-13.6 13.1-13.6c11.6 0 14.1 13.6 14.1 13.6h-27.2z"/></svg>