<svg version="1.1" id="Layer_1" xmlns="http://www.w3.org/2000/svg" x="0" y="0" width="858" height="340.5" style="enable-background:new 0 0 858 340.5" xml:space="preserve"><style>.st1{fill:#ce0e2d}.st3{fill:none;stroke:#0356a1;stroke-width:2;stroke-miterlimit:10}.st4{fill:#04559f}.st5{fill:#fff;stroke:#fff;stroke-width:2}.st6,.st7{stroke-linecap:square;stroke-miterlimit:2}.st6{fill:#fff;stroke:#fff;stroke-width:2}.st7{fill:none;stroke:#04559f}.st20,.st21{fill:#04559f;stroke:#fff;stroke-width:.5}.st21{fill:#ed3750}.st25{fill:none;stroke:#24428d;stroke-width:.25}.st38{fill:#ed3750}.st44{fill:#04559f;stroke:#7489c0;stroke-width:.5}</style><path style="fill:#001689" d="M359 261.1h-18.7l74-105.6h19L359 261.1"/><path class="st1" d="M283.6 207.6v-29.3c2.5.1 6.4-.3 12.2-.3 7.9 0 14.4 6.7 14.4 14.9s-6.6 15.2-14.4 14.9c-5.4-.4-9.4-.1-12.2-.2m46.7-29.4V254l-24.7-32.1-1.9.1c13.9-3.3 24.2-15.1 24.2-29.2 0-16.7-10-30.5-27.7-30.5-5.9 0-12-.2-17.1 0H265v93.5h18.6v-33h1.2l-1.2.1 26.4 32.9h29.8l12.9-17.6h-3.6l.1-23.4h18.6l6.1-8.3v-7.6h-24.6v-20.7H376v-15.9h-45.7v15.9zM376 255.8v-12.9l-10.1 12.9H376M457 221.4v-59.1h-13.6l-65.8 93.5h20.6l41.5-58.6.4 58.6h13.2l42.4-58.3-.1 58.3h18.3V162h-14.2L457 221.4M591.5 227l-2.7-3.6.1-.2 2.6 3.8m-54.6-14.6v-17.3l12.5 17.3h-12.5zm74.2 43.4h22l-33.5-48.1 31.8-45.4h-19.3L590 193.7l-21.9-31.4h-21.3l32.3 46.8-5.8 8.2-36.4-52v-.1l-2-2.8H520v93.5h16.9V228h23.7l2.5 3.7-17 24.1h20l6.7-9.6 6.5 9.6h21l-17.1-24.5 5.6-8 22.3 32.5z"/><path d="M659.8 180.8v13.7l14.3.2.2 36.1h14.8v-36.3h14.6v36.7h13.9v-17.8l9.6 17.4h1.7l7.6-17.2V231s15.7.1 30.4.2c11.8.1 22.9.1 24.5.1 9.6 0 8.2-6 8.2-15.1 0-5.3.2-10.4.2-10.4s-.2-7.4-6.5-7.8c-6.3-.4-20 0-22.2 0-3.5 0-3.3-3.3-.7-3.3 3.9 0 28.9-.2 28.9-.2v-13.7s-31.3-.7-35.6-.2c-4.3.4-9.1 3-9.6 7-.4 3.9-.6 9.6-.2 12.2.4 3.3-1.3 12.6 9.3 12.6 0 0 12.8.1 16.1 0 5.9-.2 5.6 3.7.4 3.9-8.7.4-29.8-.4-29.8-.4l-.2-35h-12.8l-9.8 21.7-11.1-21.7h-56.2z" style="fill:#0356a1"/><path class="st3" d="M681.5 183v-3.7l28.3-21.9 70 21.7v57.6l-68.3 18.9-29.7-18.3zM710.1 158v96.5"/><g><path class="st4" d="M273.7 269h7.6l8.9 23.2h-6.8l-1.7-4.9H273l-1.8 4.9h-6.3l8.8-23.2zm3.8 4.8-3.1 9.1h5.8l-2.7-9.1zM310.6 290.1c0 7.1-3.4 9.4-10.4 9.4-2.9 0-5.2-.6-6.6-1.1l.3-4.7c1.8.9 3.4 1.4 5.8 1.4 3.5 0 5.3-1.6 5.3-5v-.9c-1.4 2-3.4 3-5.8 3-4.7 0-7.7-3.6-7.7-8.7s2.4-9 7.8-9c2.6 0 4.6 1.4 5.9 3.5h.1v-3.1h5.4v15.2zm-9.5-2.5c2.1 0 3.8-1.8 3.8-4.4 0-1.9-1.1-4.1-3.8-4.1-2.2 0-3.4 2-3.4 4.3 0 2.6 1.6 4.2 3.4 4.2zM319.7 285.2c.3 2.4 2.2 3.3 5.1 3.3 1.6 0 3.5-.4 5.3-1.3v4.2c-1.9.8-4.1 1.1-6.3 1.1-5.7 0-10.1-3.4-10.1-9.1 0-5.7 3.9-9 9.3-9 6.4 0 8.7 4.5 8.7 9.7v1.1h-12zm6.6-3.4c0-2-.9-3.6-3.3-3.6-2.2 0-3.2 1.6-3.3 3.6h6.6zM334.8 274.8h5.4v3.2h.1c1.2-2.5 3.6-3.6 6.3-3.6 4.7 0 6.6 3.3 6.6 6.9v10.8h-6v-8.4c0-3.3-1.1-4.3-2.8-4.3-2.5 0-3.7 1.7-3.7 5.4v7.3h-6v-17.3zM370.4 279.8c-1.1-.7-2.2-1-3.6-1-2.6 0-4.6 1.8-4.6 4.8 0 2.8 2.3 4.5 4.9 4.5 1.4 0 2.7-.3 3.7-.8l.1 4.4c-1.5.5-3.3.8-4.9.8-5.7 0-10.1-3.3-10.1-9s4.3-9.1 10.1-9.1c1.8 0 3.4.3 4.7 1l-.3 4.4zM378.7 285.2c.3 2.4 2.2 3.3 5.1 3.3 1.6 0 3.5-.4 5.3-1.3v4.2c-1.9.8-4.1 1.1-6.3 1.1-5.7 0-10.1-3.4-10.1-9.1 0-5.7 3.9-9 9.3-9 6.4 0 8.7 4.5 8.7 9.7v1.1h-12zm6.6-3.4c0-2-.9-3.6-3.3-3.6-2.2 0-3.2 1.6-3.3 3.6h6.6zM410.6 272h-6v-4.4h6v4.4zm-6 2.8h6v17.3h-6v-17.3zM415 274.8h5.4v3.2h.1c1.2-2.5 3.6-3.6 6.3-3.6 2.5 0 4.5 1.1 5.4 3.3 1.4-2.3 3.7-3.3 6.1-3.3 5 0 6.1 2.8 6.1 7.5v10.2h-6v-9.3c0-2-.7-3.4-2.4-3.4-2.1 0-3.4 1.7-3.4 5.4v7.3h-6v-9.3c0-2-.7-3.4-2.4-3.4-2.1 0-3.4 1.7-3.4 5.4v7.3h-6v-17.3zM448.2 274.8h5.4v3.2h.1c1.2-2.5 3.6-3.6 6.3-3.6 2.5 0 4.5 1.1 5.4 3.3 1.4-2.3 3.7-3.3 6.1-3.3 5 0 6.1 2.8 6.1 7.5v10.2h-6v-9.3c0-2-.7-3.4-2.4-3.4-2.1 0-3.4 1.7-3.4 5.4v7.3h-6v-9.3c0-2-.7-3.4-2.4-3.4-2.1 0-3.4 1.7-3.4 5.4v7.3h-6v-17.3zM480.5 283.5c0-5.7 4.3-9.1 10.1-9.1 5.7 0 10.1 3.3 10.1 9.1 0 5.7-4.3 9-10.1 9-5.7 0-10.1-3.3-10.1-9zm13.9 0c0-2.6-1.1-4.9-3.9-4.9s-3.9 2.3-3.9 4.9c0 2.6 1.1 4.8 3.9 4.8 2.8.1 3.9-2.2 3.9-4.8zM503.4 267.3h6v9.8h.1c1.5-1.9 3.5-2.6 5.9-2.6 4.8 0 7.4 4.5 7.4 8.7 0 5.1-2.8 9.4-7.9 9.4-2.8 0-5.2-1.6-5.9-3.5h-.1v3.1h-5.5v-24.9zM513 279c-2.2 0-3.6 1.9-3.6 4.5 0 2.5 1.7 4.4 3.6 4.4 2.3 0 3.6-1.9 3.6-4.6 0-2.3-1.3-4.3-3.6-4.3zM532.3 272h-6v-4.4h6v4.4zm-5.9 2.8h6v17.3h-6v-17.3zM537.4 267.3h6v24.9h-6v-24.9zM554.5 272h-6v-4.4h6v4.4zm-6 2.8h6v17.3h-6v-17.3zM564.1 285.2c.3 2.4 2.2 3.3 5.1 3.3 1.6 0 3.5-.4 5.3-1.3v4.2c-1.9.8-4.1 1.1-6.3 1.1-5.7 0-10.1-3.4-10.1-9.1 0-5.7 3.9-9 9.3-9 6.4 0 8.7 4.5 8.7 9.7v1.1h-12zm1.5-12.5-4.3-4.8h6.2l2.3 4.8h-4.2zm5.1 9.1c0-2-.9-3.6-3.3-3.6-2.2 0-3.2 1.6-3.3 3.6h6.6zM591.5 279.6c-.7-.2-1.3-.2-2-.2-2.8 0-4.3 2-4.3 5.4v7.3h-6v-17.3h5.4v3.2h.1c1-2.2 2.5-3.6 5.1-3.6.7 0 1.4.1 2 .2l-.3 5zM598.5 285.2c.3 2.4 2.2 3.3 5.1 3.3 1.6 0 3.5-.4 5.3-1.3v4.2c-1.9.8-4.1 1.1-6.3 1.1-5.7 0-10.1-3.4-10.1-9.1 0-5.7 3.9-9 9.3-9 6.4 0 8.7 4.5 8.7 9.7v1.1h-12zm6.6-3.4c0-2-.9-3.6-3.3-3.6-2.2 0-3.2 1.6-3.3 3.6h6.6z"/></g><g><path class="st5" d="M140.3 279.7c8.7 0 16.5-.7 16.5-1.2 0-.7-6.5-.6-16.5-.6-8.7 0-15.8.4-15.8.9s7.1.9 15.8.9z"/><path class="st6" d="M150.6 275.3c-1.7.4-2.5.4-3.8 1l.2 9.9 3.6-10.9z"/><path class="st5" d="M143.4 297.4c1.1.6 1.9.5 3 .7l1.1-1.9-.1-1 .6-.4c.8-1 1 .4.5.8-.7 1-.1 2-.7 2.6-.3 2.7 3 13.6-.5 14.2l-13.3-.6c-.6-4.8.4-10.8 2.5-15-.6-1.9-.2-4.2-.2-3.5.5.7 1.4 2.7 1.7 3.4 1 .2.6.2 1-.2.9-2.3-1.1-3.5-2.1-4.8-.2-.3-.1-.7-.3-1 .1-.4.2-.5 1.1.4.8.6.6.4 1 1 .2-.1.3.3.4.1.7-.6 1.9-1.2 1.1-1.6l-.4-1.6c.2-1.1 3.7-3.2 2.7 2.3 3.6 1.1-.4 6.5.9 6.1z"/><path class="st6" d="m136.5 287 .6 9.7-1 1.1.4-10.8v3.3l-1.9-4.3s-2.2-8.2-1.7-8.1l2.9-.4-1.1 8.5-4.1-8M147 286.2c.1-1.2 1.8-10.5 1.8-10.5l-1.8 10.5zM144.9 297.9l2.1-11.7M152 275.5l-4 19.4M142.2 284.2c-.8-2.2-.2 3.6-.2 1.4 0-.3-.2-1.3.2-1 0 0 2.4 1.3 2.4 1.4-4.3.1-2.9-2.9-.2-1.6.1.1.6 1.6.7 1.7-.6-1.8-.9-1.6-.7-1.7-.1-.9.8 1 1 2.7-.5-.1-1.3-.9-1.8-1.3 0 0 .2 1.4.3 1.4.2.2.6.2.8.3.2.1.3-.4.6-.5 0 .4-.1.6-.4.8.7-.2 1.4-.1 1.9.4.1.1-.1.6-.1.9.4 1.2.3 2.4.6 3.7.2.8-.1 1.7.1 2.6 0 0 .1 0 .2.1 0-2.1-.4-4.2-1-6.2-.1-.4-.1-.9-.1-1.3-.6 0-1.2-.6-1.7-.2-.2.1 0 .7.1 1 .2.8.5 1.6.5 2.5 0 .1.3.1.3.2.2.6.1 1.2.1 1.8 0 .7.7 1.1.6 1.9 0-.2.1-.5.1-.6-.8-2.3-1-4.5-1.7-6.8-.2 1.7-.8 3.1-1.2 4.7"/><path class="st5" d="M221.4 60.5s19.8 0 19.3 36c0 0 0 24-4.7 34.9 0 0-2.6-8.9-14.1-8.9 0 .1 7.3-38-.5-62z"/><path class="st5" d="M201.6 51.2s13.6.5 19.8 9.4c0 0 8.3 28.7.5 62.2 0 0-10.4-10.6-20.8-6.9 0-.1 4.2-22.5.5-64.7z"/><path class="st5" d="M172.4 44.4s21.4-.5 27.6 6.3c0 0 6.8 45.9 1 65.2 0 0-13.6-7.8-28.1-6.3 0-.1 2.1-49.1-.5-65.2zM112 44.4s12-5.7 30.2-2.6l-.5 66.7s-36.5-1.6-29.7 1.6c0 0-3.7-37 0-65.7z"/><path class="st5" d="M172.4 44.4s3.1 56.8.5 65.2c0 0-23.5-4.2-31.3-1l.5-66.7c.1-.1 17.8-2.7 30.3 2.5zM47.8 70.7s-21.5 12.4-8.9 64.9c0 0 7.8-3.1 8.9-4.7 3.1-4.6-10.4-37.9 0-60.2z"/><path class="st5" d="M39 134s-5.7-21.4-4.7-35.4c0 0-1 24 3.6 42.2 0 0-2-6.8 1.1-6.8zM62.8 121.5S53 96 63.5 59c0 0-9.9.5-15.6 11.7 0 0-8.9 9.6 1 58.6 0 0-.1-6.7 13.9-7.8z"/><path class="st5" d="M62.8 121.5s6.4-6.8 21.5-6.8c0 0-5.7-40.7.5-64.6 0 0-10.9-1.6-21.4 8.9.1 0-10.6 38-.6 62.5z"/><path class="st5" d="M112 43.6s-17.2-1.3-27.1 6.5c0 0-6.3 31.3-.5 64.6 0 0 13-5.7 27.6-4.7 0 .1-5.3-45.8 0-66.4zM146.4 295.1l2.9.9-.1 15.9s-5.1 3.1-13.2 2.2c0 0-1.7-.5-2.3-3.5-.7-3-.7-6.6-1.2-12.6l8.5-2.9h5.4zM120 260.2s5.5-5 40.7-1.6l-.8 4.2s-30.8-1.6-38.3 3.1l-1.6-5.7zM117.4 254.6s-25.2-27.8-38.2-42.4c0 0-16.7-19.3-21.4-28.1 0 0-7.8-10.9-11.5-19.8-3.6-8.9 0-1.6 0-1.6s.5 1.6 3.6-1.6c0 0 33.6 57.3 69.1 92.8l-1.6.7z"/><path class="st5" d="M48.4 158.5s25.5 44.8 42.2 62c0 0 16.7 23.7 26.6 34.1l2.6-1s-55-82.7-63-101.8l-7.4 5.1-.8 1.5"/><path class="st5" d="M57.2 152.3s-3.6-4.2 13.6-5.2c0 0 24 57.3 31.8 68.3l20.3 37.5-3.1.5s-46.4-57.9-62.6-101.1z"/><path class="st5" d="M70.3 146.5s4.2-6.3 20.3-4.7c0 0 21.4 70.9 37 110l-4.7 1S97.2 210.9 91 193.2c0 .1-17.1-33.1-20.7-46.7zM164.1 253.4s50.6-45.9 70.9-87.6c0 0 .8-.3-2.3-2.3 0 0-37.1 54.5-70.4 89.4l1.8.5z"/><path class="st5" d="M226.6 154.9s10.4 1.6 5.7 7.3c0 0-10.4 20.3-38.6 54.7 0 0-18.9 21.5-31.4 36.1l-2.5-.7c.1.1 52-66.3 66.8-97.4zM90.6 141.9s6.8-5.7 24.5-3.1c0 0 10.9 75.6 18.8 112.6l-6.3.5S101.5 180 100 171.1c0-.1-7.8-25.6-9.4-29.2"/><path class="st5" d="M142.2 137.7s-18.2-4.7-27.1 1c0 0 15.6 105.8 18.8 112.6l7.3-.5 1-113.1z"/><path class="st5" d="M142.2 137.7s18.2-4.7 27.1 1c0 0-15.6 105.8-18.8 112.6l-9.4-.5 1.1-113.1z"/><path class="st5" d="M169.3 138.7s17.7-2.6 24.5 4.2c0 0-16.2 52.1-24 68.8l-15.6 40.1-3.6-.5c-.1 0 16.6-95.2 18.7-112.6z"/><path class="st5" d="M193.8 142.9s13-3.1 19.8 5.2c0 0-31.9 77.8-55.4 103.9l-4-.2s34.6-86 39.6-108.9z"/><path class="st5" d="M213.6 148.1s12 0 13 6.8c0 0-23.1 46.8-66.7 97.5l-1.7-.4s49.7-83 55.4-103.9zM112 44.4s0-21.9 19.8-22.4c0 0 6.8-.5 10.4 2.1v17.7s-16.7-4.2-30.2 2.6z"/><path class="st5" d="M120.8 25.6s-2.6-5.7-18.2 3.1c0 0-16.7 4.2-17.7 21.4 0 0 12-7.8 27.1-5.7 0 0-.6-9.4 8.8-18.8z"/><path class="st5" d="M98.4 29.8S72.9 31.9 65 58.5c0 0 9.4-9.4 19.8-8.3.1-.1.1-8.9 13.6-20.4z"/><path class="st5" d="M74.7 41.4s-22.1 9.7-29.2 30.2l4.2-2.1S55.4 58.6 66.4 58c-.1.1 2.6-11.3 8.3-16.6zM142.2 24.1s8.9-6.3 21.9.5c0 0 6.3 4.2 8.3 19.8 0 0-15.1-5.7-30.2-2.6V24.1z"/><path class="st5" d="M164.1 24.6s22.4-7.3 36 26.1c0 0-7.3-6.8-27.6-6.3-.1 0-1.1-12-8.4-19.8z"/><path class="st5" d="M186 29.8s20.8 1 33.9 28.1c0 0-8.3-6.8-19.8-7.3-.1 0-6.3-16.1-14.1-20.8z"/><path class="st5" d="M208.4 41.3s8.9-2.6 30.8 31.8c0 0-10.8-13.6-17.7-12.5-.1-.1-6.3-12.6-13.1-19.3zM239.1 73.1s13.6 29.7 3.1 65.2c0 0-1.6-6.3-6.3-6.8 0 0 4.2-43.3 1-59.4l2.2 1z"/><path class="st5" d="M242.3 140.3s4.7-19.8 4.2-28.7c0 0 1.6 25-1.6 31.8 0 0 2.6-1-2.6-3.1zM63 122s-13-.5-14.6 7.8c0 0 4.6 15.1 8.2 21.4 0 0 1.6-3.9 13.7-4.2 0 .1-4.2-11.4-7.3-25z"/><path class="st5" d="M40 137.8s-.3-1 0-2c.5-1.6 3-3.8 8.4-5.9 0 0 5.1 15.7 8.4 22 0 0-6.8 3.3-8.4 6.7 0-.1-5.8-7.8-8.4-20.8z"/><path class="st5" d="M39 136.6c2 5.7 8.3 23.3 10.9 24.6l-4.2 2.6s-11-26.3-7.4-28.9c.1-.1.3.6.7 1.7zM90.6 141.9s-5.7-21.4-5.7-27.6c0 0-17.1 1.2-21.9 7.8 0 0 3.1 15.6 7.3 25 0 0 8.3-6.8 20.3-5.2z"/><path class="st5" d="M142.2 110.1s-8.9-5.7-30.8 0c0 0 0 20.9 2.6 28.1l-2.6-28.1s-12-2.1-26.6 4.2c0 0 2.6 18.2 5.7 27.6 0 0 6.1-6.3 25-3.1"/><path class="st5" d="M115.6 138.7s3.9-5.5 26.1-1.6l2.1-27.6s-16.7-6.3-32.3.5c-.1.1 2 16.7 4.1 28.7z"/><path class="st5" d="M167.7 138.2s4.7-14.6 5.2-27.6c0 0-20.3-5.2-30.2-1.6l-.5 28.1c0 .1 15.1-2.5 25.5 1.1z"/><path class="st5" d="M193.3 142.4s5.2-14.6 6.8-26.1c0 0-6.3-7.3-27.1-5.7 0 0-.5 10.4-3.6 27.6-.1 0 18.1-2.1 23.9 4.2z"/><path class="st5" d="M213.6 148.1s6.8-20.6 8.3-25.4c0 0-7.8-9-21.9-6.4 0 0-2.6 19.3-6.8 26.1.1 0 16.2-1.6 20.4 5.7z"/><path class="st5" d="M226.6 154.9s7.8-17.2 9.4-23.5c0 0-2.1-7.6-14.1-8.7 0 0-6.8 21.2-8.3 25.4 0 0 12.5-1 13 6.8z"/><path class="st5" d="M233.4 160.9s8.9-16.9 8.9-22.7c0 0-2.1-7.3-6.3-6.8 0 0-6.3 20.8-9.4 23.5 0 0 6.8-.5 6.8 6z"/><path class="st5" d="M235 165.8s9.4-18.2 9.9-22.4l-2.6-3.1s-6.3 17.7-8.9 20.6c-2.6 2.8 1.1 1.8 1.6 4.9zM110.1 80.5v12.1s9.8-27.4 23.5-36l-8.6-.8c0 .1-12.5 13.3-14.9 24.7zM90.2 114.9s7.4-23.1 19.9-33.6c0 0-.2 6.8 0 11.3 0 0-8.2 12.1-13.3 20.7l-6.6 1.6z"/><path class="st5" d="M102.3 62.5s-10.6-.4-18.4 5.1c-.8-3.5-2 37.1 2 47.3l3.5-1.6s-.4-4.3 3.1-10.9l-2.7.8s-1.6-6.3-.8-12.5c0 0 14.1-2.7 12.1-2-2 .8 0-8.6 0-8.6s-8.2 0-11.7 2.3c0 0-.4-7.4-.4-10.9 0 0 8.2-3.1 13.3-2.3v-6.7z"/><path class="st5" d="M59.7 76.6s10.9-14.5 19.5-.8c0 0 7.4 10.2-9.8 22.3 0 0 12.9 13.7 16.4 16.8 0 0 2.3-2-10.2 1.6 0 0-8.2-9-12.9-14.1 0 0 1.6 14.1 3.1 16.8 1.6 2.7-.4-2.3-3.1 2.3.1 0-5.7-24.6-3-44.9zM175 109.8s1.6-39.1.8-46.5l-5.9-2.3S150 84.1 146.1 92.3l.8-31.3-7.4-.8s-21.1 18.8-28.5 45l-3.9 4.7 8.6-.4s10.9-24.6 22.7-34v32.8h6.3s16.8-27.4 23.8-31.7c0 0 0 18.4-1.2 31.7-.1-.1-2 1.1 7.7 1.5zM178.2 110.6s3.9-43.4 2.3-47.3l7.8-.8s12.9 18 14.5 32.8l3.9-4.3-2.7-4.3s-4.7-15.2-9.4-21.5c0 0 6.3-2.3 8.6 7l9 11.7s5.1-5.9 8.6-11.3l4.3 3.5s-3.9 9.4-8.6 16.4c0 0 6 13.3 5.5 30.1 0 0 4.7 0-3.9-3.1 0 0-3.1-17.2-7-20.7l-3.9 4.7s4.7 7 5.1 12.9c0 0-3.5-1.6-7.4-.4l-3.1-5.1-3.9 3.1s.4-.8-6.6-1.6l8.6-10.9-.8-2s-5.1-3.9-10.6-3.9l-2 14.9c-.1.1-6.4-1.1-8.3.1z"/><path class="st5" d="M188.7 88.7s.4-8.2-.8-12.9c0 0 6.6 8.2 8.6 15.2 0 0-6.2-3.1-7.8-2.3zM62.4 94.2s-1.6-12.1 0-15.6c0 0 9.4-7 9.8 2.7 0 0 2.8 9.3-9.8 12.9zM101 110.1l2.6-3.7.5 3.7zM164.1 253.4s-2.1 2.7-3.4 5.2c0 0-30.6-3.5-40.7 1.6l-2.7-5.5c.1-.1 18.8-9 46.8-1.3zM140.2 314.1l.4-19.1h5.7l2.9.9-.1 15.9c0 .1-4.6 2.3-8.9 2.3zM140.2 307.2l-7 1.8M134 311.3l6.8-1.7M139.3 301.9v12.4"/><path class="st5" d="M140.4 305.3v-1.9l-7.6 2v1.8zM139.3 300.8v-2.6M135.9 301v3.7M135.5 307v3M145.8 269.6l.5-.6v-.6h-3.2v1.2zM143.1 265.8h3.3v1.2h-3.3zM144.4 271.3h.3l-.9 1.3h-.7v-1.3"/><path class="st5" d="M143.1 265.8v5.5h1.4v-5.5zM146.4 272.6v-.9l-.7.9zM145.2 273h-1.4l5.4-7.7h1.4l-5.4 7.7M155.2 268.3v4.3h1.3v-6.9h-1l-3.1 4.4v-4.3h-1l-4.9 6.8h1.6l3-4.3v4.3h1l3.1-4.3M158.1 265.8H157v6.8h.9l.3-1.3V266M158.3 270.6l.3-1.2h-.4v1.2z"/><path class="st5" d="m158.1 265.8.9 1.3-.3 1.7-.5-.6M139.4 270.2c.3.1.7 0 1.2 0 1.3 0 2.4-1 2.4-2.2 0-1.2-.7-2.2-2-2.2-.7 0-1.5-.1-1.9.1 0 0 .4.5.4.6 0 .6.2.4 1.2.4.6 0 1.1.5 1.1 1.1 0 .6-.5 1.1-1.1 1.1-.9 0-1.3.1-1.3-.3v1.4M139.4 270.2c-.1 0 0 0 0 0"/><path class="st5" d="m139.7 270.2 1.9 2.4h1.6l-1.9-2.5"/><path class="st5" d="M138.3 265.8h1.4v6.8h-1.4zM122.5 265.8h-1.1l1.2 5.6V266"/><path class="st5" d="M122.6 269.5h2v1.1h-2z"/><path class="st5" d="m122.5 265.8 4.8 6.8h-1.6l-1.3-2-1.8-2.4M126.4 270.2l1.7 2.4h1.6l-4.8-6.8h-1.5l3.2 4.7"/><path class="st5" d="M123.3 272.6h1.5l4.8-6.8h-1.5z"/><path class="st6" d="M136.6 288.2v-9.8"/><path class="st4" d="M140.3 279.7c8.7 0 16.5-.7 16.5-1.2 0-.7-6.5-.6-16.5-.6-8.7 0-15.8.4-15.8.9s7.1.9 15.8.9z"/><path class="st7" d="M150.6 275.3c-1.7.4-2.5.4-3.8 1l.2 9.9 3.6-10.9z"/><path class="st4" d="M143.4 297.4c1.1.6 1.9.5 3 .7l1.1-1.9-.1-1 .6-.4c.8-1 1 .4.5.8-.7 1-.1 2-.7 2.6-.3 2.7 3 13.6-.5 14.2l-13.3-.6c-.6-4.8.4-10.8 2.5-15-.6-1.9-.2-4.2-.2-3.5.5.7 1.4 2.7 1.7 3.4 1 .2.6.2 1-.2.9-2.3-1.1-3.5-2.1-4.8-.2-.3-.1-.7-.3-1 .1-.4.2-.5 1.1.4.8.6.6.4 1 1 .2-.1.3.3.4.1.7-.6 1.9-1.2 1.1-1.6l-.4-1.6c.2-1.1 3.7-3.2 2.7 2.3 3.6 1.1-.4 6.5.9 6.1z"/><path class="st7" d="m136.5 287 .6 9.7-1 1.1.4-10.8v3.3l-1.9-4.3s-2.2-8.2-1.7-8.1l2.9-.4-1.1 8.5-4.1-8M147 286.2c.1-1.2 1.8-10.5 1.8-10.5l-1.8 10.5zM144.9 297.9l2.1-11.7"/><path style="fill:#fff;stroke:#04559f;stroke-linecap:square;stroke-miterlimit:2" d="m152 275.5-4 19.4"/><path class="st7" d="M142.2 284.2c-.8-2.2-.2 3.6-.2 1.4 0-.3-.2-1.3.2-1 0 0 2.4 1.3 2.4 1.4-4.3.1-2.9-2.9-.2-1.6.1.1.6 1.6.7 1.7-.6-1.8-.9-1.6-.7-1.7-.1-.9.8 1 1 2.7-.5-.1-1.3-.9-1.8-1.3 0 0 .2 1.4.3 1.4.2.2.6.2.8.3.2.1.3-.4.6-.5 0 .4-.1.6-.4.8.7-.2 1.4-.1 1.9.4.1.1-.1.6-.1.9.4 1.2.3 2.4.6 3.7.2.8-.1 1.7.1 2.6 0 0 .1 0 .2.1 0-2.1-.4-4.2-1-6.2-.1-.4-.1-.9-.1-1.3-.6 0-1.2-.6-1.7-.2-.2.1 0 .7.1 1 .2.8.5 1.6.5 2.5 0 .1.3.1.3.2.2.6.1 1.2.1 1.8 0 .7.7 1.1.6 1.9 0-.2.1-.5.1-.6-.8-2.3-1-4.5-1.7-6.8-.2 1.7-.8 3.1-1.2 4.7"/><linearGradient id="SVGID_1_" gradientUnits="userSpaceOnUse" x1="-288.372" y1="292.142" x2="-199.462" y2="311.901" gradientTransform="translate(323.87 -20.063) scale(.3849)"><stop offset="0" style="stop-color:#fff"/><stop offset="1" style="stop-color:#c1c8e2"/></linearGradient><path d="M221.4 60.5s19.8 0 19.3 36c0 0 0 24-4.7 34.9 0 0-2.6-8.9-14.1-8.9 0 .1 7.3-38-.5-62z" style="fill:url(#SVGID_1_)"/><linearGradient id="SVGID_2_" gradientUnits="userSpaceOnUse" x1="-339.586" y1="266.714" x2="-238.998" y2="289.067" gradientTransform="translate(323.87 -20.063) scale(.3849)"><stop offset="0" style="stop-color:#fff"/><stop offset="1" style="stop-color:#c1c8e2"/></linearGradient><path d="M201.6 51.2s13.6.5 19.8 9.4c0 0 8.3 28.7.5 62.2 0 0-10.4-10.6-20.8-6.9 0-.1 4.2-22.5.5-64.7z" style="fill:url(#SVGID_2_)"/><linearGradient id="SVGID_3_" gradientUnits="userSpaceOnUse" x1="-387.54" y1="257.407" x2="-333.253" y2="261.478" gradientTransform="translate(323.87 -20.063) scale(.3849)"><stop offset="0" style="stop-color:#fff"/><stop offset="1" style="stop-color:#c1c8e2"/></linearGradient><path d="M172.4 44.4s21.4-.5 27.6 6.3c0 0 6.8 45.9 1 65.2 0 0-13.6-7.8-28.1-6.3 0-.1 2.1-49.1-.5-65.2z" style="fill:url(#SVGID_3_)"/><linearGradient id="SVGID_4_" gradientUnits="userSpaceOnUse" x1="-490.952" y1="245.58" x2="-556.294" y2="257.832" gradientTransform="translate(323.87 -20.063) scale(.3849)"><stop offset="0" style="stop-color:#fff"/><stop offset="1" style="stop-color:#c1c8e2"/></linearGradient><path d="M112 44.4s12-5.7 30.2-2.6l-.5 66.7s-36.5-1.6-29.7 1.6c0 0-3.7-37 0-65.7z" style="fill:url(#SVGID_4_)"/><linearGradient id="SVGID_5_" gradientUnits="userSpaceOnUse" x1="-480.11" y1="242.149" x2="-391.86" y2="255.726" gradientTransform="translate(323.87 -20.063) scale(.3849)"><stop offset="0" style="stop-color:#fff"/><stop offset="1" style="stop-color:#c1c8e2"/></linearGradient><path d="M172.4 44.4s3.1 56.8.5 65.2c0 0-23.5-4.2-31.3-1l.5-66.7c.1-.1 17.8-2.7 30.3 2.5z" style="fill:url(#SVGID_5_)"/><linearGradient id="SVGID_6_" gradientUnits="userSpaceOnUse" x1="-704.058" y1="314.913" x2="-748.876" y2="324.42" gradientTransform="translate(323.87 -20.063) scale(.3849)"><stop offset="0" style="stop-color:#fff"/><stop offset="1" style="stop-color:#c1c8e2"/></linearGradient><path d="M47.8 70.7s-21.5 12.4-8.9 64.9c0 0 7.8-3.1 8.9-4.7 3.1-4.6-10.4-37.9 0-60.2z" style="fill:url(#SVGID_6_)"/><linearGradient id="SVGID_7_" gradientUnits="userSpaceOnUse" x1="-745.837" y1="362.538" x2="-758.025" y2="366.601" gradientTransform="translate(323.87 -20.063) scale(.3849)"><stop offset="0" style="stop-color:#fff"/><stop offset="1" style="stop-color:#c1c8e2"/></linearGradient><path d="M39 134s-5.7-21.4-4.7-35.4c0 0-1 24 3.6 42.2 0 0-2-6.8 1.1-6.8z" style="fill:url(#SVGID_7_)"/><linearGradient id="SVGID_8_" gradientUnits="userSpaceOnUse" x1="-671.051" y1="284.441" x2="-724.544" y2="308.817" gradientTransform="translate(323.87 -20.063) scale(.3849)"><stop offset="0" style="stop-color:#fff"/><stop offset="1" style="stop-color:#c1c8e2"/></linearGradient><path d="M62.8 121.5S53 96 63.5 59c0 0-9.9.5-15.6 11.7 0 0-8.9 9.6 1 58.6 0 0-.1-6.7 13.9-7.8z" style="fill:url(#SVGID_8_)"/><linearGradient id="SVGID_9_" gradientUnits="userSpaceOnUse" x1="-587.129" y1="246.286" x2="-712.079" y2="303.555" gradientTransform="translate(323.87 -20.063) scale(.3849)"><stop offset="0" style="stop-color:#fff"/><stop offset="1" style="stop-color:#c1c8e2"/></linearGradient><path d="M62.8 121.5s6.4-6.8 21.5-6.8c0 0-5.7-40.7.5-64.6 0 0-10.9-1.6-21.4 8.9.1 0-10.6 38-.6 62.5z" style="fill:url(#SVGID_9_)"/><linearGradient id="SVGID_10_" gradientUnits="userSpaceOnUse" x1="-518.128" y1="228.281" x2="-654.077" y2="290.592" gradientTransform="translate(323.87 -20.063) scale(.3849)"><stop offset="0" style="stop-color:#fff"/><stop offset="1" style="stop-color:#c1c8e2"/></linearGradient><path d="M112 43.6s-17.2-1.3-27.1 6.5c0 0-6.3 31.3-.5 64.6 0 0 13-5.7 27.6-4.7 0 .1-5.3-45.8 0-66.4z" style="fill:url(#SVGID_10_)"/><linearGradient id="SVGID_11_" gradientUnits="userSpaceOnUse" x1="-502.247" y1="843.76" x2="-460.946" y2="843.76" gradientTransform="translate(323.87 -20.063) scale(.3849)"><stop offset=".24" style="stop-color:#efeff8"/><stop offset="1" style="stop-color:#607db8"/></linearGradient><path d="m146.4 295.1 2.9.9-.1 15.9s-5.1 3.1-13.2 2.2c0 0-1.7-.5-2.3-3.5-.7-3-.7-6.6-1.2-12.6l8.5-2.9h5.4z" style="fill:url(#SVGID_11_)"/><path class="st20" d="M117.4 254.6s-25.2-27.8-38.2-42.4c0 0-16.7-19.3-21.4-28.1 0 0-7.8-10.9-11.5-19.8-3.6-8.9 0-1.6 0-1.6s.5 1.6 3.6-1.6c0 0 33.6 57.3 69.1 92.8l-1.6.7z"/><path class="st20" d="M48.4 158.5s25.5 44.8 42.2 62c0 0 16.7 23.7 26.6 34.1l2.6-1s-55-82.7-63-101.8l-7.4 5.1-.8 1.5"/><path class="st20" d="M57.2 152.3s-3.6-4.2 13.6-5.2c0 0 24 57.3 31.8 68.3l20.3 37.5-3.1.5s-46.4-57.9-62.6-101.1z"/><path class="st20" d="M70.3 146.5s4.2-6.3 20.3-4.7c0 0 21.4 70.9 37 110l-4.7 1S97.2 210.9 91 193.2c0 .1-17.1-33.1-20.7-46.7zM164.1 253.4s50.6-45.9 70.9-87.6c0 0 .8-.3-2.3-2.3 0 0-37.1 54.5-70.4 89.4l1.8.5z"/><path class="st20" d="M226.6 154.9s10.4 1.6 5.7 7.3c0 0-10.4 20.3-38.6 54.7 0 0-18.9 21.5-31.4 36.1l-2.5-.7c.1.1 52-66.3 66.8-97.4zM90.6 141.9s6.8-5.7 24.5-3.1c0 0 10.9 75.6 18.8 112.6l-6.3.5S101.5 180 100 171.1c0-.1-7.8-25.6-9.4-29.2"/><path class="st20" d="M142.2 137.7s-18.2-4.7-27.1 1c0 0 15.6 105.8 18.8 112.6l7.3-.5 1-113.1z"/><path class="st20" d="M142.2 137.7s18.2-4.7 27.1 1c0 0-15.6 105.8-18.8 112.6l-9.4-.5 1.1-113.1z"/><path class="st20" d="M169.3 138.7s17.7-2.6 24.5 4.2c0 0-16.2 52.1-24 68.8l-15.6 40.1-3.6-.5c-.1 0 16.6-95.2 18.7-112.6z"/><path class="st20" d="M193.8 142.9s13-3.1 19.8 5.2c0 0-31.9 77.8-55.4 103.9l-4-.2s34.6-86 39.6-108.9z"/><path class="st20" d="M213.6 148.1s12 0 13 6.8c0 0-23.1 46.8-66.7 97.5l-1.7-.4s49.7-83 55.4-103.9z"/><path class="st21" d="M112 44.4s0-21.9 19.8-22.4c0 0 6.8-.5 10.4 2.1v17.7s-16.7-4.2-30.2 2.6z"/><path class="st21" d="M120.8 25.6s-2.6-5.7-18.2 3.1c0 0-16.7 4.2-17.7 21.4 0 0 12-7.8 27.1-5.7 0 0-.6-9.4 8.8-18.8z"/><path class="st21" d="M98.4 29.8S72.9 31.9 65 58.5c0 0 9.4-9.4 19.8-8.3.1-.1.1-8.9 13.6-20.4z"/><path class="st21" d="M74.7 41.4s-22.1 9.7-29.2 30.2l4.2-2.1S55.4 58.6 66.4 58c-.1.1 2.6-11.3 8.3-16.6zM142.2 24.1s8.9-6.3 21.9.5c0 0 6.3 4.2 8.3 19.8 0 0-15.1-5.7-30.2-2.6V24.1z"/><path class="st21" d="M164.1 24.6s22.4-7.3 36 26.1c0 0-7.3-6.8-27.6-6.3-.1 0-1.1-12-8.4-19.8z"/><path class="st21" d="M186 29.8s20.8 1 33.9 28.1c0 0-8.3-6.8-19.8-7.3-.1 0-6.3-16.1-14.1-20.8z"/><path class="st21" d="M208.4 41.3s8.9-2.6 30.8 31.8c0 0-10.8-13.6-17.7-12.5-.1-.1-6.3-12.6-13.1-19.3z"/><linearGradient id="SVGID_12_" gradientUnits="userSpaceOnUse" x1="111.96" y1="44.384" x2="111.96" y2="44.384"><stop offset="0" style="stop-color:#fff"/><stop offset="1" style="stop-color:#c1c8e2"/></linearGradient><linearGradient id="SVGID_13_" gradientUnits="userSpaceOnUse" x1="-247.103" y1="318.911" x2="-172.38" y2="335.517" gradientTransform="translate(323.87 -20.063) scale(.3849)"><stop offset="0" style="stop-color:#fff"/><stop offset="1" style="stop-color:#c1c8e2"/></linearGradient><path d="M239.1 73.1s13.6 29.7 3.1 65.2c0 0-1.6-6.3-6.3-6.8 0 0 4.2-43.3 1-59.4l2.2 1z" style="fill:url(#SVGID_13_)"/><linearGradient id="SVGID_14_" gradientUnits="userSpaceOnUse" x1="-210.188" y1="381.886" x2="-186.135" y2="387.231" gradientTransform="translate(323.87 -20.063) scale(.3849)"><stop offset="0" style="stop-color:#fff"/><stop offset="1" style="stop-color:#c1c8e2"/></linearGradient><path d="M242.3 140.3s4.7-19.8 4.2-28.7c0 0 1.6 25-1.6 31.8 0 0 2.6-1-2.6-3.1z" style="fill:url(#SVGID_14_)"/><linearGradient id="SVGID_15_" gradientUnits="userSpaceOnUse" x1="-661.226" y1="387.299" x2="-692.375" y2="413.031" gradientTransform="translate(323.87 -20.063) scale(.3849)"><stop offset="0" style="stop-color:#fff"/><stop offset="1" style="stop-color:#c1c8e2"/></linearGradient><path d="M63 122s-13-.5-14.6 7.8c0 0 4.6 15.1 8.2 21.4 0 0 1.6-3.9 13.7-4.2 0 .1-4.2-11.4-7.3-25z" style="fill:url(#SVGID_15_)"/><linearGradient id="SVGID_16_" gradientUnits="userSpaceOnUse" x1="-695.381" y1="407.846" x2="-741.194" y2="445.691" gradientTransform="translate(323.87 -20.063) scale(.3849)"><stop offset="0" style="stop-color:#fff"/><stop offset="1" style="stop-color:#c1c8e2"/></linearGradient><path d="M40 137.8s-.3-1 0-2c.5-1.6 3-3.8 8.4-5.9 0 0 5.1 15.7 8.4 22 0 0-6.8 3.3-8.4 6.7 0-.1-5.8-7.8-8.4-20.8z" style="fill:url(#SVGID_16_)"/><linearGradient id="SVGID_17_" gradientUnits="userSpaceOnUse" x1="-719.624" y1="430.748" x2="-747.482" y2="453.761" gradientTransform="translate(323.87 -20.063) scale(.3849)"><stop offset="0" style="stop-color:#fff"/><stop offset="1" style="stop-color:#c1c8e2"/></linearGradient><path d="M39 136.6c2 5.7 8.3 23.3 10.9 24.6l-4.2 2.6s-11-26.3-7.4-28.9c.1-.1.3.6.7 1.7z" style="fill:url(#SVGID_17_)"/><linearGradient id="SVGID_18_" gradientUnits="userSpaceOnUse" x1="-603.717" y1="377.631" x2="-663.459" y2="400.713" gradientTransform="translate(323.87 -20.063) scale(.3849)"><stop offset="0" style="stop-color:#fff"/><stop offset="1" style="stop-color:#c1c8e2"/></linearGradient><path d="M90.6 141.9s-5.7-21.4-5.7-27.6c0 0-17.1 1.2-21.9 7.8 0 0 3.1 15.6 7.3 25 0 0 8.3-6.8 20.3-5.2z" style="fill:url(#SVGID_18_)"/><linearGradient id="SVGID_19_" gradientUnits="userSpaceOnUse" x1="-467.922" y1="336.977" x2="-620.651" y2="395.987" gradientTransform="translate(323.87 -20.063) scale(.3849)"><stop offset="0" style="stop-color:#fff"/><stop offset="1" style="stop-color:#c1c8e2"/></linearGradient><path d="M142.2 110.1s-8.9-5.7-30.8 0c0 0 0 20.9 2.6 28.1l-2.6-28.1s-12-2.1-26.6 4.2c0 0 2.6 18.2 5.7 27.6 0 0 6.1-6.3 25-3.1" style="fill:url(#SVGID_19_)"/><linearGradient id="SVGID_20_" gradientUnits="userSpaceOnUse" x1="-457.547" y1="351.956" x2="-557.33" y2="390.509" gradientTransform="translate(323.87 -20.063) scale(.3849)"><stop offset="0" style="stop-color:#fff"/><stop offset="1" style="stop-color:#c1c8e2"/></linearGradient><path d="M115.6 138.7s3.9-5.5 26.1-1.6l2.1-27.6s-16.7-6.3-32.3.5c-.1.1 2 16.7 4.1 28.7z" style="fill:url(#SVGID_20_)"/><linearGradient id="SVGID_21_" gradientUnits="userSpaceOnUse" x1="-478.365" y1="364.175" x2="-394.295" y2="381.802" gradientTransform="translate(323.87 -20.063) scale(.3849)"><stop offset="0" style="stop-color:#fff"/><stop offset="1" style="stop-color:#c1c8e2"/></linearGradient><path d="M167.7 138.2s4.7-14.6 5.2-27.6c0 0-20.3-5.2-30.2-1.6l-.5 28.1c0 .1 15.1-2.5 25.5 1.1z" style="fill:url(#SVGID_21_)"/><linearGradient id="SVGID_22_" gradientUnits="userSpaceOnUse" x1="-403.036" y1="358.954" x2="-323.141" y2="403.64" gradientTransform="translate(323.87 -20.063) scale(.3849)"><stop offset="0" style="stop-color:#fff"/><stop offset="1" style="stop-color:#c1c8e2"/></linearGradient><path d="M193.3 142.4s5.2-14.6 6.8-26.1c0 0-6.3-7.3-27.1-5.7 0 0-.5 10.4-3.6 27.6-.1 0 18.1-2.1 23.9 4.2z" style="fill:url(#SVGID_22_)"/><linearGradient id="SVGID_23_" gradientUnits="userSpaceOnUse" x1="-337.639" y1="375.258" x2="-268.532" y2="413.91" gradientTransform="translate(323.87 -20.063) scale(.3849)"><stop offset="0" style="stop-color:#fff"/><stop offset="1" style="stop-color:#c1c8e2"/></linearGradient><path d="M213.6 148.1s6.8-20.6 8.3-25.4c0 0-7.8-9-21.9-6.4 0 0-2.6 19.3-6.8 26.1.1 0 16.2-1.6 20.4 5.7z" style="fill:url(#SVGID_23_)"/><linearGradient id="SVGID_24_" gradientUnits="userSpaceOnUse" x1="-283.437" y1="396.639" x2="-231.434" y2="425.725" gradientTransform="translate(323.87 -20.063) scale(.3849)"><stop offset="0" style="stop-color:#fff"/><stop offset="1" style="stop-color:#c1c8e2"/></linearGradient><path d="M226.6 154.9s7.8-17.2 9.4-23.5c0 0-2.1-7.6-14.1-8.7 0 0-6.8 21.2-8.3 25.4 0 0 12.5-1 13 6.8z" style="fill:url(#SVGID_24_)"/><linearGradient id="SVGID_25_" gradientUnits="userSpaceOnUse" x1="-257.366" y1="432.867" x2="-206.952" y2="430.85" gradientTransform="translate(323.87 -20.063) scale(.3849)"><stop offset="0" style="stop-color:#fff"/><stop offset="1" style="stop-color:#c1c8e2"/></linearGradient><path d="M233.4 160.9s8.9-16.9 8.9-22.7c0 0-2.1-7.3-6.3-6.8 0 0-6.3 20.8-9.4 23.5 0 0 6.8-.5 6.8 6z" style="fill:url(#SVGID_25_)"/><linearGradient id="SVGID_26_" gradientUnits="userSpaceOnUse" x1="-246.747" y1="450.807" x2="-199.994" y2="448.937" gradientTransform="translate(323.87 -20.063) scale(.3849)"><stop offset="0" style="stop-color:#fff"/><stop offset="1" style="stop-color:#c1c8e2"/></linearGradient><path d="M235 165.8s9.4-18.2 9.9-22.4l-2.6-3.1s-6.3 17.7-8.9 20.6c-2.6 2.8 1.1 1.8 1.6 4.9z" style="fill:url(#SVGID_26_)"/><path class="st38" d="M110.1 80.5v12.1s9.8-27.4 23.5-36l-8.6-.8c0 .1-12.5 13.3-14.9 24.7zM90.2 114.9s7.4-23.1 19.9-33.6c0 0-.2 6.8 0 11.3 0 0-8.2 12.1-13.3 20.7l-6.6 1.6z"/><path class="st4" d="M102.3 62.5s-10.6-.4-18.4 5.1c-.8-3.5-2 37.1 2 47.3l3.5-1.6s-.4-4.3 3.1-10.9l-2.7.8s-1.6-6.3-.8-12.5c0 0 14.1-2.7 12.1-2-2 .8 0-8.6 0-8.6s-8.2 0-11.7 2.3c0 0-.4-7.4-.4-10.9 0 0 8.2-3.1 13.3-2.3v-6.7z"/><path class="st4" d="M59.7 76.6s10.9-14.5 19.5-.8c0 0 7.4 10.2-9.8 22.3 0 0 12.9 13.7 16.4 16.8 0 0 2.3-2-10.2 1.6 0 0-8.2-9-12.9-14.1 0 0 1.6 14.1 3.1 16.8 1.6 2.7-.4-2.3-3.1 2.3.1 0-5.7-24.6-3-44.9zM175 109.8s1.6-39.1.8-46.5l-5.9-2.3S150 84.1 146.1 92.3l.8-31.3-7.4-.8s-21.1 18.8-28.5 45l-3.9 4.7 8.6-.4s10.9-24.6 22.7-34v32.8h6.3s16.8-27.4 23.8-31.7c0 0 0 18.4-1.2 31.7-.1-.1-2 1.1 7.7 1.5zM178.2 110.6s3.9-43.4 2.3-47.3l7.8-.8s12.9 18 14.5 32.8l3.9-4.3-2.7-4.3s-4.7-15.2-9.4-21.5c0 0 6.3-2.3 8.6 7l9 11.7s5.1-5.9 8.6-11.3l4.3 3.5s-3.9 9.4-8.6 16.4c0 0 6 13.3 5.5 30.1 0 0 4.7 0-3.9-3.1 0 0-3.1-17.2-7-20.7l-3.9 4.7s4.7 7 5.1 12.9c0 0-3.5-1.6-7.4-.4l-3.1-5.1-3.9 3.1s.4-.8-6.6-1.6l8.6-10.9-.8-2s-5.1-3.9-10.6-3.9l-2 14.9c-.1.1-6.4-1.1-8.3.1z"/><linearGradient id="SVGID_27_" gradientUnits="userSpaceOnUse" x1="-350.449" y1="266.963" x2="-338.262" y2="269.671" gradientTransform="translate(323.87 -20.063) scale(.3849)"><stop offset="0" style="stop-color:#fff"/><stop offset="1" style="stop-color:#c1c8e2"/></linearGradient><path d="M188.7 88.7s.4-8.2-.8-12.9c0 0 6.6 8.2 8.6 15.2 0 0-6.2-3.1-7.8-2.3z" style="fill:url(#SVGID_27_)"/><linearGradient id="SVGID_28_" gradientUnits="userSpaceOnUse" x1="-652.432" y1="264.128" x2="-685.787" y2="279.416" gradientTransform="translate(323.87 -20.063) scale(.3849)"><stop offset="0" style="stop-color:#fff"/><stop offset="1" style="stop-color:#c1c8e2"/></linearGradient><path d="M62.4 94.2s-1.6-12.1 0-15.6c0 0 9.4-7 9.8 2.7 0 0 2.8 9.3-9.8 12.9z" style="fill:url(#SVGID_28_)"/><path class="st4" d="m101 110.1 2.6-3.7.5 3.7zM164.1 253.4s-2.1 2.7-3.4 5.2c0 0-30.6-3.5-40.7 1.6l-2.7-5.5c.1-.1 18.8-9 46.8-1.3z"/><linearGradient id="SVGID_29_" gradientUnits="userSpaceOnUse" x1="116.194" y1="256.793" x2="116.194" y2="256.793"><stop offset="0" style="stop-color:#1aafe6"/><stop offset="1" style="stop-color:#24428d"/></linearGradient><linearGradient id="SVGID_30_" gradientUnits="userSpaceOnUse" x1="-501.529" y1="844.537" x2="-469.025" y2="843.183" gradientTransform="translate(323.87 -20.063) scale(.3849)"><stop offset=".24" style="stop-color:#efeff8"/><stop offset="1" style="stop-color:#607db8"/></linearGradient><path d="m140.2 314.1.4-19.1h5.7l2.9.9-.1 15.9c0 .1-4.6 2.3-8.9 2.3z" style="fill:url(#SVGID_30_)"/><path style="fill:#04559f;stroke:#7489c0" d="m140.2 307.2-7 1.8"/><path class="st44" d="m134 311.3 6.8-1.7M139.3 301.9v12.4"/><linearGradient id="SVGID_31_" gradientUnits="userSpaceOnUse" x1="-527.854" y1="580.554" x2="-488.249" y2="580.893" gradientTransform="matrix(.3786 -.0963 .0004 .3912 327.533 29.517)"><stop offset=".24" style="stop-color:#efeff8"/><stop offset="1" style="stop-color:#607db8"/></linearGradient><path style="fill:url(#SVGID_31_)" d="M140.4 305.3v-1.9l-7.6 2v1.8z"/><path class="st44" d="M139.3 300.8v-2.6M135.9 301v3.7M135.5 307v3"/><linearGradient id="SVGID_32_" gradientUnits="userSpaceOnUse" x1="-530.436" y1="749.085" x2="-422.527" y2="749.085" gradientTransform="translate(323.87 -20.063) scale(.3849)"><stop offset=".24" style="stop-color:#efeff8"/><stop offset="1" style="stop-color:#607db8"/></linearGradient><path d="M120 260.2s1.8-2.9 20.9-2.3c0 0 14.9-.8 19.8.8l-3.9 19.8s-18.6-1.4-32.4.5l-4.4-18.8z" style="fill:url(#SVGID_32_)"/><path class="st4" d="m145.8 269.6.5-.6v-.6h-3.2v1.2zM143.1 265.8h3.3v1.2h-3.3zM144.4 271.3h.3l-.9 1.3h-.7v-1.3"/><path class="st4" d="M143.1 265.8v5.5h1.4v-5.5zM146.4 272.6v-.9l-.7.9z"/><path class="st38" d="M145.2 273h-1.4l5.4-7.7h1.4l-5.4 7.7"/><path style="fill:#eb1d48" d="M156.5 266.3"/><path class="st4" d="M155.2 268.3v4.3h1.3v-6.9h-1l-3.1 4.4v-4.3h-1l-4.9 6.8h1.6l3-4.3v4.3h1l3.1-4.3M158.1 265.8H157v6.8h.9l.3-1.3V266M158.3 270.6l.3-1.2h-.4v1.2z"/><path class="st4" d="m158.1 265.8.9 1.3-.3 1.7-.5-.6M139.4 270.2c.3.1.7 0 1.2 0 1.3 0 2.4-1 2.4-2.2 0-1.2-.7-2.2-2-2.2-.7 0-1.5-.1-1.9.1 0 0 .4.5.4.6 0 .6.2.4 1.2.4.6 0 1.1.5 1.1 1.1 0 .6-.5 1.1-1.1 1.1-.9 0-1.3.1-1.3-.3v1.4"/><path d="M139.4 270.2c-.1 0 0 0 0 0" style="fill:none;stroke:#231f20;stroke-width:.3807"/><path class="st4" d="m139.7 270.2 1.9 2.4h1.6l-1.9-2.5"/><path class="st4" d="M138.3 265.8h1.4v6.8h-1.4zM122.5 265.8h-1.1l1.2 5.6V266"/><path class="st4" d="M122.6 269.5h2v1.1h-2z"/><path class="st4" d="m122.5 265.8 4.8 6.8h-1.6l-1.3-2-1.8-2.4M126.4 270.2l1.7 2.4h1.6l-4.8-6.8h-1.5l3.2 4.7"/><path class="st4" d="M123.3 272.6h1.5l4.8-6.8h-1.5z"/><path class="st7" d="M136.6 288.2v-9.8"/><linearGradient id="SVGID_33_" gradientUnits="userSpaceOnUse" x1="-505.489" y1="747.442" x2="-456.223" y2="719" gradientTransform="translate(323.87 -20.063) scale(.3849)"><stop offset=".24" style="stop-color:#efeff8"/><stop offset="1" style="stop-color:#607db8"/></linearGradient><path d="M120 260.2s5.5-5 40.7-1.6l-.8 4.2s-30.8-1.6-38.3 3.1l-1.6-5.7z" style="fill:url(#SVGID_33_)"/></g></svg>