<svg version="1.1" id="Layer_1" xmlns="http://www.w3.org/2000/svg" x="0" y="0" width="612" height="792" style="enable-background:new 0 0 612 792" xml:space="preserve"><style>.st0{fill:#c100bf}.st1{fill:#666}</style><path class="st0" d="M314.1 294H293c-2.2 0-4.3.4-6.1 1.3-1.8.8-3.4 2.3-4.7 4.5h2.2c.7-1 1.6-1.9 2.7-2.7 3.9-2.6 9.2-1.6 11.2 1.6.2.3.3.7.5 1h13.5l-1.4 4c-2 5.7-5 10.2-8.9 13.4-3.9 3.2-8.7 4.8-14.5 4.8h-2.9l-.3.7h6.3c6.8 0 12.5-2.1 17.3-6.3 4.7-4.2 8.4-10 11-17.4l1.8-5.1h-6.6z"/><path d="m296.5 300.1-1.8 1.5c-.8-1.2-1.9-1.8-3.1-1.8-1.1 0-2.1.4-2.9 1.2-.9.8-1.4 1.8-1.6 3-.1.8-.1 1.5.1 2.2.2.6.6 1.1 1.1 1.5.5.4 1.2.5 1.9.5.6 0 1.2-.1 1.8-.4.6-.3 1.2-.7 1.9-1.4l1.2 1.6c-1 .9-1.9 1.5-2.7 1.8-.8.3-1.7.5-2.6.5-1.8 0-3.1-.6-4-1.8-.9-1.2-1.2-2.7-.9-4.6.2-1.2.7-2.3 1.3-3.2.7-.9 1.5-1.7 2.6-2.3 1-.6 2.1-.9 3.2-.9.9 0 1.8.2 2.6.6.8.6 1.4 1.2 1.9 2zM210.6 339.9c-1.6 0-3 .3-4.2.8-1.2.6-2.2 1.6-2.8 3H225l-.6 3.2c-.7 4.1-2.3 7.3-4.7 9.6-2.4 2.3-5.6 3.5-9.7 3.5h-16.7l1.1-6.1h15.2c1.6 0 3-.3 4.2-.9 1.2-.6 2.1-1.7 2.8-3.2h-21.5l.5-2.9c.7-4.1 2.3-7.3 4.7-9.6 2.4-2.3 5.6-3.5 9.7-3.5h16.6l-1.1 6.1h-14.9zM246.4 339.6l-3.6 20.3H236l3.6-20.3h-9.3l1-5.9H257l-1 5.9h-9.6zM298.2 346.8c-.3 1.5-.4 2.7-.3 3.7 0 1 .3 1.8.7 2.3.4.6 1 1 1.8 1.2.8.2 1.8.3 3.1.3h8.2l.8-4.3h-5.3l1.1-6.2h12.2l-2.8 16.1h-16.9c-1.7 0-3.3-.2-4.7-.7-1.4-.5-2.5-1.2-3.3-2.2-.9-1-1.4-2.4-1.7-4.1-.3-1.7-.2-3.7.2-6.2.7-4.1 2.3-7.3 4.7-9.6 2.4-2.3 5.6-3.5 9.7-3.5h16.6l-1.1 6.1h-15.1c-1 0-1.9.1-2.8.3-.9.2-1.6.6-2.3 1.1-.7.5-1.2 1.2-1.7 2.1-.5 1.1-.9 2.2-1.1 3.6zM348.1 360h-15.8c-1.8 0-3.4-.3-4.5-.9-1.2-.6-2.1-1.5-2.7-2.6-.6-1.1-.9-2.5-1-4.1-.1-1.6.1-3.5.5-5.6.7-4.1 2.1-7.3 4.1-9.6 2-2.3 4.6-3.5 8-3.5h16.2l-1 5.9H338c-.9 0-1.7.1-2.4.3-.7.2-1.2.5-1.7.9s-.8.8-1.1 1.3c-.3.5-.5 1.1-.6 1.7h19l-1.1 6h-19c-.3 2.8 1.1 4.1 4.4 4.1h13.9l-1.3 6.1zM369.7 339.7c-1.6 0-3 .3-4.2.8-1.2.6-2.2 1.6-2.8 3h21.5l-.6 3.2c-.7 4.1-2.3 7.3-4.7 9.6-2.4 2.3-5.6 3.5-9.7 3.5h-16.7l1.1-6.1h15.2c1.6 0 3-.3 4.2-.9 1.2-.6 2.1-1.7 2.8-3.2h-21.5l.5-2.9c.7-4.1 2.3-7.3 4.7-9.6 2.4-2.3 5.6-3.5 9.7-3.5h16.6l-1.1 6.1h-15zM271.6 333.7c-1.3 0-2.5.3-3.7.8-1.4.5-2.6 1.3-3.6 2.4l-.3.3c-1.1 1-2 2.2-2.7 3.5-.7 1.3-1.2 2.6-1.5 3.9L257 360h6.8l.8-4.5 1.1-5.5H279.5l-1 5.5-.8 4.5h6.9l4.9-26.2h-17.9zm-3.6 8.6c.1-.3.3-.5.5-.7l.4-.4c.4-.3.8-.6 1.2-.8.2-.1.5-.2.7-.3.7-.2 1.5-.3 2.4-.3h8.1l-.8 4.2h-13.2c.3-.6.5-1.2.7-1.7zM200.7 363.9l-1.2 1c-.6-.8-1.3-1.1-2.2-1.1-.8 0-1.4.3-2.1.8-.6.5-1 1.2-1.1 1.9-.1.5-.1 1 .1 1.4.2.4.4.7.8 1 .4.2.8.4 1.3.4.4 0 .9-.1 1.2-.2.4-.2.8-.5 1.4-.9l.8 1.1c-.7.6-1.3 1-1.9 1.2-.6.2-1.2.3-1.9.3-1.2 0-2.2-.4-2.8-1.2-.7-.8-.9-1.8-.7-3 .1-.8.4-1.5.9-2.1.5-.6 1.1-1.1 1.8-1.5.7-.4 1.5-.6 2.3-.6.7 0 1.3.1 1.8.4.7.2 1.1.6 1.5 1.1zM223.3 362.3h1.6l1 2.9 2-2.9h1.6l-3.1 4.5-.6 3.4h-1.5l.6-3.4-1.6-4.5zM260.5 363.9l-1.2 1c-.6-.8-1.3-1.1-2.2-1.1-.8 0-1.4.3-2.1.8-.6.5-1 1.2-1.1 1.9-.1.5-.1 1 .1 1.4.2.4.4.7.8 1 .4.2.8.4 1.3.4.4 0 .9-.1 1.3-.2.4-.2.8-.5 1.4-.9l.8 1.1c-.7.6-1.3 1-1.9 1.2-.6.2-1.2.3-1.9.3-1.2 0-2.2-.4-2.8-1.2-.7-.8-.9-1.8-.7-3 .1-.8.4-1.5.9-2.1.5-.6 1.1-1.1 1.8-1.5.7-.4 1.5-.6 2.3-.6.7 0 1.3.1 1.8.4.6.2 1 .6 1.4 1.1zM285.6 362.3h1.5l-1.1 6.5h2.2l-.3 1.4h-3.7l1.4-7.9zM316.1 362.3h1.5l-1.4 8h-1.5l1.4-8zM343.5 362.3h1.5l2.5 5.2.9-5.2h1.5l-1.4 8H347l-2.5-5.2-.9 5.2h-1.5l1.4-8zM380 363.8l-1.3 1.1c-.5-.7-1.3-1.1-2.2-1.1-.8 0-1.5.3-2.1.8-.6.5-1 1.2-1.1 1.9-.1.8 0 1.4.5 2 .5.5 1.1.8 1.9.8.5 0 1-.1 1.4-.3.4-.2.7-.6 1.1-1h-2.3l.3-1.4h4v.3c-.1.7-.4 1.4-.9 2-.5.6-1 1.1-1.7 1.4-.6.3-1.3.5-2.1.5s-1.5-.2-2.1-.5c-.6-.4-1-.9-1.3-1.5-.3-.7-.3-1.4-.2-2.1.2-1.1.7-2 1.5-2.7 1-.9 2.1-1.4 3.5-1.4.7 0 1.3.1 1.9.4.4-.1.8.3 1.2.8z"/><path class="st0" d="M267.6 313.7h21.1c2.2 0 4.3-.4 6.1-1.3 1.8-.8 3.4-2.3 4.7-4.5h-2.2c-.7 1-1.6 1.9-2.7 2.7-3.9 2.6-9.2 1.6-11.2-1.6-.2-.3-.3-.7-.5-1h-13.5l1.4-4c2-5.7 5-10.2 8.9-13.4 3.9-3.2 8.7-4.8 14.5-4.8h2.9l.3-.7H291c-6.8 0-12.5 2.1-17.3 6.3-4.7 4.2-8.4 10-11 17.4l-1.8 5.1h6.7z"/><path d="M388.7 333.7c.3 0 .5.1.8.2.2.1.4.3.6.6.1.3.2.5.2.8 0 .3-.1.6-.2.8-.1.3-.3.5-.6.6-.2.1-.5.2-.8.2-.3 0-.5-.1-.8-.2-.2-.1-.4-.3-.6-.6-.1-.3-.2-.5-.2-.8 0-.3.1-.6.2-.8.1-.3.3-.5.6-.6.3-.1.5-.2.8-.2zm0 .2c-.2 0-.5.1-.7.2-.2.1-.4.3-.5.5-.1.2-.2.5-.2.7 0 .3.1.5.2.7.1.2.3.4.5.5.2.1.4.2.7.2.2 0 .5-.1.7-.2.2-.1.4-.3.5-.5.1-.2.2-.5.2-.7 0-.3-.1-.5-.2-.7-.1-.2-.3-.4-.5-.5-.2-.1-.5-.2-.7-.2zm-.7.5v-.1h.8c.2 0 .4 0 .5.1.1.1.2.2.2.3 0 .1 0 .2-.1.3-.1.1-.2.1-.3.2.1.1.2.2.3.4.1.2.1.3.2.3 0 0 .1.1.2.1v.1h-.2c-.1 0-.1 0-.2-.1 0 0-.1-.2-.2-.3-.1-.2-.1-.3-.2-.4 0 0-.1-.1-.2-.1h-.1v.6h.2v.1h-.9v.1h.2V334.5c-.1-.1-.1-.1-.2-.1zm.4.8c.3 0 .5 0 .5-.1.1-.1.1-.2.1-.3 0-.1 0-.2-.1-.3-.1-.1-.2-.1-.4-.1h-.2V335.2z"/><g><path class="st0" d="M436.1 401.7h-.6v-.2h1.3v.2h-.6v1.6h-.2v-1.6zM438.7 402.5v-.8c-.1.2-.1.4-.2.7l-.3.9h-.2l-.3-.9c-.1-.3-.2-.5-.2-.7v1.6h-.2l.1-1.8h.3l.3.9c.1.2.1.4.2.6 0-.2.1-.4.2-.6l.3-.9h.3l.1 1.8h-.2l-.2-.8z"/><path d="M157.2 406.2c-1.3 0-2.5.2-3.4.7-1 .5-1.7 1.3-2.3 2.5h17.4l-.5 2.6c-.6 3.3-1.8 5.9-3.8 7.8-1.9 1.9-4.6 2.8-7.9 2.8h-13.5l.9-5h12.3c1.3 0 2.5-.2 3.4-.7 1-.5 1.7-1.4 2.3-2.6h-17.4l.4-2.4c.6-3.3 1.8-5.9 3.8-7.8 1.9-1.9 4.6-2.8 7.9-2.8h13.5l-.9 5h-12.2zM186.3 406l-2.9 16.5h-5.5l2.9-16.5h-7.6l.8-4.8h20.8l-.8 4.8h-7.7zM194.7 422.5l2.2-12.4c.2-1.1.6-2.1 1.1-3.2.6-1 1.3-2 2.1-2.8.8-.8 1.8-1.5 2.9-2 1.1-.5 2.2-.8 3.3-.8h14.5l-3.7 21.3h-5.6l1.4-8.1h-11.3l-1.4 8.1h-5.5zm11-16.1c-.6.2-1 .5-1.5.9-.4.4-.8.8-1.1 1.2-.3.5-.5.9-.7 1.3l.1-.4h11.2l.6-3.4h-6.7c-.7 0-1.3.1-1.9.4zM228.3 411.8c-.2 1.2-.3 2.2-.3 3 0 .8.2 1.4.6 1.9.3.5.8.8 1.5 1 .7.2 1.5.3 2.5.3h6.7l.6-3.5h-4.3l.9-5h9.9l-2.3 13.1h-13.7c-1.4 0-2.7-.2-3.8-.6-1.1-.4-2-1-2.7-1.8-.7-.8-1.2-1.9-1.4-3.3-.2-1.4-.2-3 .2-5 .6-3.3 1.8-5.9 3.8-7.8 1.9-1.9 4.6-2.8 7.9-2.8h13.4l-.9 5h-12.2c-.8 0-1.6.1-2.3.2-.7.2-1.3.5-1.8.9s-1 1-1.4 1.7c-.4.7-.7 1.6-.9 2.7zM268.7 422.5h-12.8c-1.5 0-2.7-.2-3.7-.7-1-.5-1.7-1.2-2.2-2.1-.5-.9-.8-2-.8-3.4-.1-1.3.1-2.8.4-4.5.6-3.3 1.7-5.9 3.3-7.8 1.6-1.9 3.8-2.8 6.4-2.8h13.2l-.8 4.8h-11.2c-.8 0-1.4.1-2 .3-.5.2-1 .4-1.4.7-.4.3-.7.7-.9 1.1-.2.4-.4.9-.5 1.4H271l-.9 4.8h-15.4c-.3 2.2.9 3.4 3.5 3.4h11.2l-.7 4.8zM286.2 406.2c-1.3 0-2.5.2-3.4.7-1 .5-1.7 1.3-2.3 2.5H298l-.5 2.6c-.6 3.3-1.8 5.9-3.8 7.8-1.9 1.9-4.6 2.8-7.9 2.8h-13.5l.9-5h12.3c1.3 0 2.4-.2 3.4-.7 1-.5 1.7-1.4 2.3-2.6h-17.4l.4-2.4c.6-3.3 1.8-5.9 3.8-7.8 1.9-1.9 4.6-2.8 7.9-2.8h13.5l-.9 5h-12.3z"/><path class="st0" d="m299.3 422.5 3.7-21.3h14.5c1.1 0 2.1.2 3 .7.9.5 1.6 1.2 2.2 2.2.6.9 1 1.8 1.1 2.7.2.9.2 1.9.1 2.9-.2 1.2-.6 2.3-1.1 3.4-.5 1-1.3 2-2.2 2.9-.9 1-1.9 1.7-2.9 2.1-1.1.5-2.1.7-3.3.7h-8.9l-.6 3.6h-5.6zm17.3-9.4c.8-.6 1.3-1.6 1.7-3 0-.5 0-1-.1-1.5s-.3-.9-.5-1.3c-.3-.4-.7-.7-1.2-.9-.5-.2-1.2-.4-2-.4h-6.7l-1.4 8.1h6.7c1.6 0 2.8-.3 3.5-1zM333.6 422.5c-1.5 0-2.8-.2-3.7-.7-1-.5-1.7-1.2-2.2-2.1-.5-.9-.8-2-.8-3.4-.1-1.3.1-2.8.4-4.5.6-3.3 1.7-5.9 3.3-7.8 1.6-1.9 3.8-2.8 6.5-2.8h7.4c2.7 0 4.5.9 5.5 2.8.9 1.9 1.1 4.5.5 7.8-.3 1.7-.7 3.2-1.2 4.5-.5 1.3-1.2 2.4-2 3.4-.8.9-1.8 1.6-2.9 2.1-1.1.5-2.5.7-4 .7h-6.8zm11.6-14.2c0-.5-.2-.9-.5-1.2-.3-.3-.6-.6-1.1-.8-.5-.2-1.1-.3-1.9-.3h-3.6c-.8 0-1.5.1-2.1.3-.6.2-1 .5-1.4.8-.4.3-.7.8-.9 1.2-.2.5-.4 1-.5 1.5l-.7 4.2c-.4 2.4.7 3.6 3.3 3.6h3.8c2.8 0 4.4-1.2 4.8-3.6l.7-4.2c.1-.5.1-1 .1-1.5zM355.9 401.2h5.5l-2.1 11.8c-.1.6-.2 1.2-.2 1.7 0 .6.1 1.1.4 1.5.3.4.7.8 1.4 1.1.6.3 1.6.4 2.7.4h2.6c-.2-.6-.3-1.3-.4-1.9 0-.7 0-1.4.2-2.1l2.2-12.4h5.5l-2.1 11.8c-.1.6-.2 1.2-.2 1.8-.1.6 0 1.1.2 1.5.2.4.5.8 1 1 .5.3 1.2.4 2.1.4h3l2.9-16.5h5.7l-3.7 21.3h-22.5c-1.1 0-2.2-.2-3.1-.7-.9-.5-1.6-1.2-2.2-2.1-.6-.9-1-1.9-1.2-2.9-.2-1-.2-2 0-3.1l2.3-12.6zM407.4 422.5h-12.8c-1.5 0-2.7-.2-3.7-.7-1-.5-1.7-1.2-2.2-2.1-.5-.9-.8-2-.8-3.4-.1-1.3.1-2.8.4-4.5.6-3.3 1.7-5.9 3.3-7.8 1.6-1.9 3.8-2.8 6.4-2.8h13.2l-.8 4.8h-11.2c-.8 0-1.4.1-2 .3-.5.2-1 .4-1.4.7-.4.3-.7.7-.9 1.1-.2.4-.4.9-.5 1.4h15.4l-.9 4.8h-15.4c-.3 2.2.9 3.4 3.5 3.4h11.2l-.8 4.8zM411 422.5l3.7-21.3h14.5c1.1 0 2.1.2 3 .7.9.5 1.6 1.2 2.2 2.1.6.9.9 1.8 1.1 2.7.2.9.2 1.9.1 3-.2 1.2-.6 2.3-1.1 3.4-.5 1.1-1.3 2-2.2 2.9-.4.4-.8.8-1.3 1.1-.4.3-.9.6-1.4.8l2.6 4.5H426l-2.1-3.6h-6.7l-.6 3.6H411zm15.9-8.7c.5-.2 1-.4 1.4-.7.4-.3.7-.7.9-1.2.2-.5.5-1.1.6-1.7v-1.5c-.1-.5-.2-.9-.5-1.3s-.6-.7-1.1-1c-.5-.3-1.2-.4-2-.4h-6.7l-1.4 8.1h6.7c.9 0 1.6-.1 2.1-.3z"/></g><g><path d="M246.6 180.4v-6.7h2.2c.8 0 1.4 0 1.6.1.4.1.7.3 1 .7.3.3.4.8.4 1.3 0 .4-.1.8-.2 1-.1.3-.3.5-.6.7-.2.2-.5.3-.7.3-.3.1-.8.1-1.4.1h-.9v2.5h-1.4zm1.4-5.5v1.9h.7c.5 0 .9 0 1.1-.1.2-.1.3-.2.4-.3.1-.1.2-.3.2-.5s-.1-.4-.2-.6c-.1-.2-.3-.3-.5-.3H248zM258.2 180.4h-1.5l-.6-1.5h-2.7l-.6 1.5h-1.4l2.6-6.7h1.4l2.8 6.7zm-2.5-2.6-.9-2.5-.9 2.5h1.8zM258.9 180.4v-6.7h1.3l2.7 4.5v-4.5h1.3v6.7h-1.4l-2.7-4.4v4.4h-1.2zM267.2 180.4v-5.5h-2v-1.1h5.3v1.1h-2v5.5h-1.3zM270.9 177.1c0-.7.1-1.3.3-1.7l.6-.9c.3-.3.6-.5.9-.6.4-.2.9-.3 1.4-.3 1 0 1.8.3 2.4.9.6.6.9 1.5.9 2.5 0 1.1-.3 1.9-.9 2.5-.6.6-1.4.9-2.3.9-1 0-1.8-.3-2.4-.9-.6-.5-.9-1.3-.9-2.4zm1.4 0c0 .8.2 1.3.5 1.7.3.4.8.6 1.3.6s1-.2 1.3-.6c.3-.4.5-1 .5-1.7 0-.8-.2-1.3-.5-1.7-.3-.4-.8-.6-1.3-.6-.6 0-1 .2-1.3.6-.3.3-.5.9-.5 1.7zM278.4 180.4v-6.7h1.3l2.7 4.5v-4.5h1.3v6.7h-1.4l-2.7-4.4v4.4h-1.2zM285.2 180.4v-6.7h5v1.1h-3.6v1.5h3.4v1.1h-3.4v1.8h3.7v1.1h-5.1zM293.7 178.7l1.2-.2c0 .3.1.6.3.7.2.2.4.3.6.3.3 0 .5-.1.7-.3.2-.2.3-.5.3-.8 0-.3-.1-.6-.3-.8-.2-.2-.4-.3-.6-.3-.2 0-.4 0-.6.1l.1-1c.3 0 .6-.1.8-.2.2-.2.3-.4.3-.6 0-.2-.1-.4-.2-.5-.1-.1-.3-.2-.5-.2s-.4.1-.6.2c-.2.2-.2.4-.3.7l-1.2-.2c.1-.4.2-.7.4-1 .2-.2.4-.4.7-.6s.6-.2 1-.2c.6 0 1.1.2 1.5.6.3.3.5.7.5 1.1 0 .6-.3 1.1-1 1.4.4.1.7.3.9.6.2.3.3.6.3 1 0 .6-.2 1.1-.6 1.5-.4.4-1 .6-1.6.6-.6 0-1.1-.2-1.5-.5-.4-.4-.6-.9-.6-1.4zM301 173.7c.6 0 1.2.2 1.5.7.4.5.7 1.5.7 2.7 0 1.3-.2 2.2-.7 2.7-.4.5-.9.7-1.5.7s-1.2-.2-1.6-.7c-.4-.5-.6-1.4-.6-2.7 0-1.3.2-2.2.7-2.7.4-.4.9-.7 1.5-.7zm0 1.1c-.2 0-.3 0-.4.1-.1.1-.2.3-.3.5-.1.3-.1.9-.1 1.7 0 .8 0 1.3.1 1.6.1.3.2.5.3.6.1.1.3.1.4.1.2 0 .3 0 .4-.1.1-.1.2-.3.3-.5.1-.3.1-.9.1-1.7 0-.8 0-1.3-.1-1.6-.1-.3-.2-.5-.3-.6-.1-.1-.2-.1-.4-.1zM306.2 173.7c.6 0 1.2.2 1.5.7.4.5.7 1.5.7 2.7 0 1.3-.2 2.2-.7 2.7-.4.5-.9.7-1.5.7s-1.2-.2-1.6-.7c-.4-.5-.6-1.4-.6-2.7 0-1.3.2-2.2.7-2.7.4-.4.9-.7 1.5-.7zm0 1.1c-.2 0-.3 0-.4.1-.1.1-.2.3-.3.5-.1.3-.1.9-.1 1.7 0 .8 0 1.3.1 1.6.1.3.2.5.3.6.1.1.3.1.4.1.2 0 .3 0 .4-.1.1-.1.2-.3.3-.5.1-.3.1-.9.1-1.7 0-.8 0-1.3-.1-1.6-.1-.3-.2-.5-.3-.6-.1-.1-.2-.1-.4-.1zM313.8 178l1.3.4c-.2.7-.5 1.3-1 1.6-.5.4-1.1.5-1.8.5-.9 0-1.6-.3-2.2-.9-.6-.6-.9-1.4-.9-2.5s.3-2 .9-2.6c.6-.6 1.3-.9 2.3-.9.8 0 1.5.2 2 .7.3.3.5.7.7 1.2l-1.3.3c-.1-.3-.2-.6-.5-.8-.3-.2-.6-.3-.9-.3-.5 0-.9.2-1.2.5-.3.4-.5.9-.5 1.7 0 .8.2 1.4.5 1.8s.7.5 1.2.5c.4 0 .7-.1.9-.3.2-.1.4-.4.5-.9zM246.6 191.6v-6.7h2.2c.8 0 1.4 0 1.6.1.4.1.7.3 1 .7.3.3.4.8.4 1.3 0 .4-.1.8-.2 1-.1.3-.3.5-.6.7-.2.2-.5.3-.7.3-.3.1-.8.1-1.4.1h-.9v2.5h-1.4zm1.4-5.5v1.9h.7c.5 0 .9 0 1.1-.1.2-.1.3-.2.4-.3.1-.1.2-.3.2-.5s-.1-.4-.2-.6c-.1-.2-.3-.3-.5-.3H248zM258.2 191.6h-1.5l-.6-1.5h-2.7l-.6 1.5h-1.4l2.6-6.7h1.4l2.8 6.7zm-2.5-2.6-.9-2.5-.9 2.5h1.8zM258.9 191.6v-6.7h1.3l2.7 4.5v-4.5h1.3v6.7h-1.4l-2.7-4.4v4.4h-1.2zM267.2 191.6v-5.5h-2V185h5.3v1.1h-2v5.5h-1.3zM270.9 188.3c0-.7.1-1.3.3-1.7l.6-.9c.3-.3.6-.5.9-.6.4-.2.9-.3 1.4-.3 1 0 1.8.3 2.4.9.6.6.9 1.5.9 2.5 0 1.1-.3 1.9-.9 2.5-.6.6-1.4.9-2.3.9-1 0-1.8-.3-2.4-.9-.6-.5-.9-1.3-.9-2.4zm1.4 0c0 .8.2 1.3.5 1.7.3.4.8.6 1.3.6s1-.2 1.3-.6c.3-.4.5-1 .5-1.7 0-.8-.2-1.3-.5-1.7-.3-.4-.8-.6-1.3-.6-.6 0-1 .2-1.3.6-.3.3-.5.9-.5 1.7zM278.4 191.6v-6.7h1.3l2.7 4.5v-4.5h1.3v6.7h-1.4l-2.7-4.4v4.4h-1.2zM285.2 191.6v-6.7h5v1.1h-3.6v1.5h3.4v1.1h-3.4v1.8h3.7v1.1h-5.1zM294 191.6v-6.7h2.2c.8 0 1.4 0 1.6.1.4.1.7.3 1 .7.3.3.4.8.4 1.3 0 .4-.1.8-.2 1-.1.3-.3.5-.6.7-.2.2-.5.3-.7.3-.3.1-.8.1-1.4.1h-.9v2.5H294zm1.3-5.5v1.9h.7c.5 0 .9 0 1.1-.1.2-.1.3-.2.4-.3.1-.1.2-.3.2-.5s-.1-.4-.2-.6c-.1-.2-.3-.3-.5-.3h-1.7zM300.2 191.6v-6.7h2.8c.7 0 1.2.1 1.6.2.3.1.6.3.8.6.2.3.3.7.3 1.1 0 .5-.1.9-.4 1.2-.3.3-.7.5-1.3.6.3.2.5.4.7.6.2.2.4.6.8 1.1l.8 1.3h-1.6l-1-1.5c-.3-.5-.6-.8-.7-1-.1-.1-.3-.2-.4-.3-.1-.1-.4-.1-.7-.1h-.3v2.8h-1.4zm1.4-3.8h1c.6 0 1.1 0 1.2-.1.2-.1.3-.1.4-.3.1-.1.1-.3.1-.5s-.1-.4-.2-.5c-.1-.1-.3-.2-.5-.3h-2.1v1.7zM306.7 188.3c0-.7.1-1.3.3-1.7l.6-.9c.3-.3.5-.5.9-.6.4-.2.9-.3 1.4-.3 1 0 1.8.3 2.4.9.6.6.9 1.5.9 2.5 0 1.1-.3 1.9-.9 2.5-.6.6-1.4.9-2.4.9s-1.8-.3-2.4-.9c-.5-.5-.8-1.3-.8-2.4zm1.4 0c0 .8.2 1.3.5 1.7.3.4.8.6 1.3.6s1-.2 1.3-.6c.3-.4.5-1 .5-1.7 0-.8-.2-1.3-.5-1.7-.3-.4-.8-.6-1.3-.6s-1 .2-1.3.6c-.4.3-.5.9-.5 1.7zM318.5 189.2l1.3.4c-.2.7-.5 1.3-1 1.6-.5.4-1.1.5-1.8.5-.9 0-1.6-.3-2.2-.9-.6-.6-.9-1.4-.9-2.5s.3-2 .9-2.6c.6-.6 1.3-.9 2.3-.9.8 0 1.5.2 2 .7.3.3.5.7.7 1.2l-1.3.3c-.1-.3-.2-.6-.5-.8-.3-.2-.6-.3-.9-.3-.5 0-.9.2-1.2.5-.3.4-.5.9-.5 1.7 0 .8.2 1.4.5 1.8.3.4.7.5 1.2.5.4 0 .7-.1.9-.3.2-.1.3-.4.5-.9zM320.9 191.6v-6.7h5v1.1h-3.6v1.5h3.4v1.1h-3.4v1.8h3.7v1.1h-5.1zM326.8 189.4l1.3-.1c.1.4.2.8.5 1 .2.2.6.3 1 .3s.8-.1 1-.3c.2-.2.3-.4.3-.6 0-.2 0-.3-.1-.4-.1-.1-.3-.2-.5-.3-.2-.1-.5-.2-1.1-.3-.7-.2-1.2-.4-1.5-.7-.4-.4-.6-.8-.6-1.3 0-.3.1-.7.3-1 .2-.3.5-.5.8-.7.4-.2.8-.2 1.3-.2.8 0 1.5.2 1.9.6.4.4.6.9.7 1.5l-1.3.1c-.1-.3-.2-.6-.4-.7-.2-.2-.5-.2-.9-.2s-.7.1-.9.2c-.1.1-.2.2-.2.4s.1.3.2.4c.2.1.6.3 1.2.4.7.2 1.1.3 1.5.5.3.2.6.4.7.7.2.3.3.6.3 1.1 0 .4-.1.7-.3 1.1-.2.3-.5.6-.9.7-.4.2-.9.2-1.5.2-.8 0-1.5-.2-1.9-.6-.5-.4-.8-1-.9-1.8zM333 189.4l1.3-.1c.1.4.2.8.5 1 .2.2.6.3 1 .3s.8-.1 1-.3c.2-.2.3-.4.3-.6 0-.2 0-.3-.1-.4-.1-.1-.3-.2-.5-.3-.2-.1-.5-.2-1.1-.3-.7-.2-1.2-.4-1.5-.7-.4-.4-.6-.8-.6-1.3 0-.3.1-.7.3-1 .2-.3.5-.5.8-.7.4-.2.8-.2 1.3-.2.8 0 1.5.2 1.9.6.4.4.6.9.7 1.5l-1.3.1c-.1-.3-.2-.6-.4-.7-.2-.2-.5-.2-.9-.2s-.7.1-.9.2c-.1.1-.2.2-.2.4s.1.3.2.4c.2.1.6.3 1.2.4.7.2 1.1.3 1.5.5.3.2.6.4.7.7.2.3.3.6.3 1.1 0 .4-.1.7-.3 1.1-.2.3-.5.6-.9.7-.4.2-.9.2-1.5.2-.8 0-1.5-.2-1.9-.6-.5-.4-.8-1-.9-1.8zM342.2 184.9h2.7c.5 0 .9 0 1.2.1.3 0 .5.1.7.3.2.1.4.3.5.6.1.2.2.5.2.8 0 .3-.1.6-.3.9-.2.3-.4.5-.7.6.4.1.7.3.9.6.2.3.3.6.3 1 0 .3-.1.6-.2.9-.1.3-.3.5-.6.7-.2.2-.5.3-.9.3h-3.9v-6.8zm1.3 1.2v1.5h1.9c.2 0 .4-.1.5-.2.1-.1.2-.3.2-.5s-.1-.4-.2-.5c-.1-.1-.3-.2-.5-.2h-1.9zm0 2.6v1.8h2.1c.2 0 .4-.1.5-.3.1-.1.2-.3.2-.6 0-.2 0-.4-.1-.5-.1-.1-.2-.2-.4-.3-.2-.1-.6-.1-1.2-.1h-1.1zM349 191.6V185h1.3v5.5h3.4v1.1H349zM360.6 191.6h-1.5l-.6-1.5h-2.7l-.6 1.5h-1.4l2.6-6.7h1.4l2.8 6.7zm-2.5-2.6-.9-2.5-.9 2.5h1.8zM365.6 189.2l1.3.4c-.2.7-.5 1.3-1 1.6-.5.4-1.1.5-1.8.5-.9 0-1.6-.3-2.2-.9-.6-.6-.9-1.4-.9-2.5s.3-2 .9-2.6c.6-.6 1.3-.9 2.3-.9.8 0 1.5.2 2 .7.3.3.5.7.7 1.2l-1.3.3c-.1-.3-.2-.6-.5-.8-.3-.2-.6-.3-.9-.3-.5 0-.9.2-1.2.5-.3.4-.5.9-.5 1.7 0 .8.2 1.4.5 1.8.3.4.7.5 1.2.5.4 0 .7-.1.9-.3.2-.1.4-.4.5-.9zM368.1 191.6v-6.7h1.3v3l2.7-3h1.8l-2.5 2.6 2.7 4.1h-1.7l-1.8-3.1-1.1 1.1v2h-1.4z"/></g><path class="st0" d="M231.8 173.1h9.4v7.3h-9.4z"/><path d="M231.8 183.6h9.4v7.3h-9.4z"/><g><path d="M56.8 108.1c0 3.2-2 5-4.4 5-2.5 0-4.2-1.9-4.2-4.8 0-3 1.8-5 4.4-5 2.6 0 4.2 2 4.2 4.8zm-7.3.2c0 2 1.1 3.8 3 3.8s3-1.8 3-3.9c0-1.9-1-3.9-3-3.9s-3 1.9-3 4zM60.1 104.5v1.6h1.8v.9h-1.8v3.7c0 .8.2 1.3.9 1.3.3 0 .5 0 .7-.1l.1.9c-.2.1-.6.2-1.1.2-.6 0-1-.2-1.3-.5-.3-.4-.5-1-.5-1.8V107h-1.1v-.9h1.1v-1.3l1.2-.3zM63.2 103h1.2v4.2c.2-.4.5-.7.9-.9.4-.2.8-.3 1.3-.3.9 0 2.4.6 2.4 2.9v4h-1.2V109c0-1.1-.4-2-1.6-2-.8 0-1.4.6-1.7 1.2-.1.2-.1.4-.1.6v4.1h-1.2V103zM71.7 109.8c0 1.7 1.1 2.4 2.3 2.4.9 0 1.4-.2 1.9-.4l.2.9c-.4.2-1.2.4-2.3.4-2.1 0-3.3-1.4-3.3-3.4s1.2-3.6 3.2-3.6c2.2 0 2.8 1.9 2.8 3.2v.6h-4.8zm3.6-.9c0-.8-.3-2-1.7-2-1.3 0-1.8 1.1-1.9 2h3.6zM78 108.3c0-.8 0-1.5-.1-2.1H79l.1 1.3c.3-.9 1.1-1.5 1.9-1.5h.3v1.2h-.4c-.9 0-1.5.6-1.7 1.6v4.2H78v-4.7zM87 104.5v1.6h1.8v.9H87v3.7c0 .8.2 1.3.9 1.3.3 0 .5 0 .7-.1l.1.9c-.2.1-.6.2-1.1.2-.6 0-1-.2-1.3-.5-.3-.4-.5-1-.5-1.8V107h-1.1v-.9h1.1v-1.3l1.2-.3zM90.2 103h1.2v4.2c.2-.4.5-.7.9-.9.4-.2.8-.3 1.3-.3.9 0 2.4.6 2.4 2.9v4h-1.2V109c0-1.1-.4-2-1.6-2-.8 0-1.4.6-1.7 1.2-.1.2-.1.4-.1.6v4.1h-1.2V103zM102.7 111.3c0 .6 0 1.2.1 1.6h-1.1l-.1-.9c-.4.5-1.1 1-2.1 1-1.4 0-2.1-1-2.1-1.9 0-1.6 1.5-2.5 4.1-2.5v-.1c0-.5-.2-1.6-1.5-1.6-.6 0-1.3.2-1.8.5l-.3-.8c.6-.4 1.4-.6 2.2-.6 2.1 0 2.6 1.4 2.6 2.8v2.5zm-1.2-1.8c-1.3 0-2.9.2-2.9 1.5 0 .8.5 1.2 1.1 1.2.9 0 1.5-.6 1.7-1.1 0-.1.1-.3.1-.4v-1.2zM104.7 108c0-.7 0-1.3-.1-1.8h1.1l.1 1.1c.3-.6 1.1-1.3 2.2-1.3.9 0 2.4.6 2.4 2.9v4h-1.2V109c0-1.1-.4-2-1.6-2-.8 0-1.4.6-1.7 1.3-.1.2-.1.4-.1.6v4.1h-1.2v-5zM121.2 111.9c0 1.6-.3 2.5-1 3.1-.7.6-1.6.8-2.5.8-.8 0-1.7-.2-2.3-.6l.3-1c.4.3 1.1.5 2 .5 1.3 0 2.2-.7 2.2-2.4v-.7c-.4.6-1.1 1.1-2.2 1.1-1.7 0-2.9-1.4-2.9-3.3 0-2.3 1.5-3.6 3.1-3.6 1.2 0 1.8.6 2.1 1.2v-1h1.1c0 .5-.1 1-.1 1.8v4.1zm-1.2-3.1c0-.2 0-.4-.1-.5-.2-.7-.8-1.3-1.7-1.3-1.2 0-2 1-2 2.6 0 1.3.7 2.4 2 2.4.8 0 1.5-.5 1.7-1.3.1-.2.1-.4.1-.7v-1.2zM123.3 103h1.2v9.9h-1.2V103zM132.7 109.5c0 2.5-1.8 3.6-3.4 3.6-1.8 0-3.2-1.3-3.2-3.5 0-2.3 1.5-3.6 3.4-3.6s3.2 1.4 3.2 3.5zm-5.4.1c0 1.5.8 2.6 2 2.6s2.1-1.1 2.1-2.6c0-1.1-.6-2.6-2-2.6-1.4-.1-2.1 1.3-2.1 2.6zM134.3 103h1.2v4.3c.4-.8 1.2-1.2 2.3-1.2 1.7 0 2.9 1.4 2.9 3.4 0 2.4-1.5 3.6-3.1 3.6-1 0-1.8-.4-2.3-1.3l-.1 1.1h-1.1c0-.5.1-1.1.1-1.8V103zm1.2 7.2c0 .2 0 .3.1.4.2.9 1 1.4 1.8 1.4 1.3 0 2.1-1.1 2.1-2.6 0-1.4-.7-2.5-2-2.5-.8 0-1.6.6-1.9 1.5 0 .2-.1.3-.1.5v1.3zM147 111.3c0 .6 0 1.2.1 1.6H146l-.1-.9c-.4.5-1.1 1-2.1 1-1.4 0-2.1-1-2.1-1.9 0-1.6 1.5-2.5 4.1-2.5v-.1c0-.5-.2-1.6-1.5-1.6-.6 0-1.3.2-1.8.5l-.3-.8c.6-.4 1.4-.6 2.2-.6 2.1 0 2.6 1.4 2.6 2.8v2.5zm-1.2-1.8c-1.3 0-2.9.2-2.9 1.5 0 .8.5 1.2 1.1 1.2.9 0 1.5-.6 1.7-1.1 0-.1.1-.3.1-.4v-1.2zM149 103h1.2v9.9H149V103zM155.1 111.7c.4.2 1 .5 1.6.5.9 0 1.3-.4 1.3-1s-.4-.9-1.2-1.2c-1.2-.4-1.8-1.1-1.8-1.9 0-1.1.9-2 2.3-2 .7 0 1.3.2 1.7.4l-.3.9c-.3-.2-.8-.4-1.4-.4-.7 0-1.1.4-1.1.9 0 .6.4.8 1.3 1.2 1.2.4 1.8 1 1.8 2 0 1.2-.9 2-2.5 2-.7 0-1.4-.2-1.9-.5l.2-.9zM165.6 112.7c-.3.2-1 .4-1.9.4-2 0-3.4-1.4-3.4-3.5s1.4-3.6 3.6-3.6c.7 0 1.4.2 1.7.4l-.3.9c-.3-.2-.8-.3-1.4-.3-1.6 0-2.4 1.2-2.4 2.6 0 1.6 1 2.5 2.4 2.5.7 0 1.2-.2 1.5-.3l.2.9zM171.8 111.3c0 .6 0 1.2.1 1.6h-1.1l-.1-.9c-.4.5-1.1 1-2.1 1-1.4 0-2.1-1-2.1-1.9 0-1.6 1.5-2.5 4.1-2.5v-.1c0-.5-.2-1.6-1.5-1.6-.6 0-1.3.2-1.8.5l-.3-.8c.6-.4 1.4-.6 2.2-.6 2.1 0 2.6 1.4 2.6 2.8v2.5zm-1.2-1.8c-1.3 0-2.9.2-2.9 1.5 0 .8.5 1.2 1.1 1.2.9 0 1.5-.6 1.7-1.1 0-.1.1-.3.1-.4v-1.2zM173.8 103h1.2v9.9h-1.2V103zM177.8 109.8c0 1.7 1.1 2.4 2.3 2.4.9 0 1.4-.2 1.9-.4l.2.9c-.4.2-1.2.4-2.3.4-2.1 0-3.3-1.4-3.3-3.4s1.2-3.6 3.2-3.6c2.2 0 2.8 1.9 2.8 3.2v.6h-4.8zm3.6-.9c0-.8-.3-2-1.7-2-1.3 0-1.8 1.1-1.9 2h3.6zM183.2 114.7c.3-.8.7-2.3.8-3.4l1.4-.1c-.3 1.2-1 2.7-1.3 3.4l-.9.1zM195.7 103v8.2c0 .6 0 1.3.1 1.8h-1.1l-.1-1.2c-.4.8-1.2 1.3-2.3 1.3-1.6 0-2.9-1.4-2.9-3.4 0-2.3 1.4-3.6 3-3.6 1.1 0 1.7.5 2 1v-4h1.3zm-1.3 5.9c0-.2 0-.4-.1-.5-.2-.8-.9-1.4-1.8-1.4-1.3 0-2 1.1-2 2.6 0 1.4.7 2.5 2 2.5.8 0 1.6-.6 1.8-1.5 0-.2.1-.3.1-.5v-1.2zM203.9 109.5c0 2.5-1.8 3.6-3.4 3.6-1.8 0-3.3-1.3-3.3-3.5 0-2.3 1.5-3.6 3.4-3.6s3.3 1.4 3.3 3.5zm-5.4.1c0 1.5.8 2.6 2 2.6s2.1-1.1 2.1-2.6c0-1.1-.6-2.6-2-2.6-1.5-.1-2.1 1.3-2.1 2.6zM208.4 108c0-.7 0-1.3-.1-1.8h1.1l.1 1.1c.3-.6 1.1-1.3 2.2-1.3.9 0 2.4.6 2.4 2.9v4h-1.2V109c0-1.1-.4-2-1.6-2-.8 0-1.4.6-1.7 1.3-.1.2-.1.4-.1.6v4.1h-1.2v-5zM222.3 109.5c0 2.5-1.8 3.6-3.4 3.6-1.8 0-3.3-1.3-3.3-3.5 0-2.3 1.5-3.6 3.4-3.6 2 0 3.3 1.4 3.3 3.5zm-5.4.1c0 1.5.8 2.6 2 2.6s2.1-1.1 2.1-2.6c0-1.1-.6-2.6-2-2.6-1.5-.1-2.1 1.3-2.1 2.6zM225.3 104.5v1.6h1.8v.9h-1.8v3.7c0 .8.2 1.3.9 1.3.3 0 .5 0 .7-.1l.1.9c-.2.1-.6.2-1.1.2-.6 0-1-.2-1.3-.5-.3-.4-.5-1-.5-1.8V107H223v-.9h1.1v-1.3l1.2-.3zM236.3 112.7c-.3.2-1 .4-1.9.4-2 0-3.4-1.4-3.4-3.5s1.4-3.6 3.6-3.6c.7 0 1.4.2 1.7.4l-.3.9c-.3-.2-.8-.3-1.4-.3-1.6 0-2.4 1.2-2.4 2.6 0 1.6 1 2.5 2.4 2.5.7 0 1.2-.2 1.5-.3l.2.9zM237.7 103h1.2v4.2c.2-.4.5-.7.9-.9.4-.2.8-.3 1.3-.3.9 0 2.4.6 2.4 2.9v4h-1.2V109c0-1.1-.4-2-1.6-2-.8 0-1.4.6-1.7 1.2-.1.2-.1.4-.1.6v4.1h-1.2V103zM250.2 111.3c0 .6 0 1.2.1 1.6h-1.1l-.1-.9c-.4.5-1.1 1-2.1 1-1.4 0-2.1-1-2.1-1.9 0-1.6 1.5-2.5 4.1-2.5v-.1c0-.5-.2-1.6-1.5-1.6-.6 0-1.3.2-1.8.5l-.3-.8c.6-.4 1.4-.6 2.2-.6 2.1 0 2.6 1.4 2.6 2.8v2.5zm-1.2-1.8c-1.3 0-2.9.2-2.9 1.5 0 .8.5 1.2 1.1 1.2.9 0 1.5-.6 1.7-1.1 0-.1.1-.3.1-.4v-1.2zM252.2 108c0-.7 0-1.3-.1-1.8h1.1l.1 1.1c.3-.6 1.1-1.3 2.2-1.3.9 0 2.4.6 2.4 2.9v4h-1.2V109c0-1.1-.4-2-1.6-2-.8 0-1.4.6-1.7 1.3-.1.2-.1.4-.1.6v4.1h-1.2v-5zM265.8 111.9c0 1.6-.3 2.5-1 3.1-.7.6-1.6.8-2.5.8-.8 0-1.7-.2-2.3-.6l.3-1c.4.3 1.1.5 2 .5 1.3 0 2.2-.7 2.2-2.4v-.7c-.4.6-1.1 1.1-2.2 1.1-1.7 0-2.9-1.4-2.9-3.3 0-2.3 1.5-3.6 3.1-3.6 1.2 0 1.8.6 2.1 1.2v-1h1.1c0 .5-.1 1-.1 1.8v4.1zm-1.2-3.1c0-.2 0-.4-.1-.5-.2-.7-.8-1.3-1.7-1.3-1.2 0-2 1-2 2.6 0 1.3.7 2.4 2 2.4.8 0 1.5-.5 1.7-1.3.1-.2.1-.4.1-.7v-1.2zM268.5 109.8c0 1.7 1.1 2.4 2.3 2.4.9 0 1.4-.2 1.9-.4l.2.9c-.4.2-1.2.4-2.3.4-2.1 0-3.3-1.4-3.3-3.4s1.2-3.6 3.2-3.6c2.2 0 2.8 1.9 2.8 3.2v.6h-4.8zm3.6-.9c0-.8-.3-2-1.7-2-1.3 0-1.8 1.1-1.9 2h3.6zM279.3 104.5v1.6h1.8v.9h-1.8v3.7c0 .8.2 1.3.9 1.3.3 0 .5 0 .7-.1l.1.9c-.2.1-.6.2-1.1.2-.6 0-1-.2-1.3-.5-.3-.4-.5-1-.5-1.8V107H277v-.9h1.1v-1.3l1.2-.3zM282.4 103h1.2v4.2c.2-.4.5-.7.9-.9.4-.2.8-.3 1.3-.3.9 0 2.4.6 2.4 2.9v4H287V109c0-1.1-.4-2-1.6-2-.8 0-1.4.6-1.7 1.2-.1.2-.1.4-.1.6v4.1h-1.2V103zM290.9 109.8c0 1.7 1.1 2.4 2.3 2.4.9 0 1.4-.2 1.9-.4l.2.9c-.4.2-1.2.4-2.3.4-2.1 0-3.3-1.4-3.3-3.4s1.2-3.6 3.2-3.6c2.2 0 2.8 1.9 2.8 3.2v.6h-4.8zm3.6-.9c0-.8-.3-2-1.7-2-1.3 0-1.8 1.1-1.9 2h3.6zM306.3 109.5c0 2.5-1.8 3.6-3.4 3.6-1.8 0-3.3-1.3-3.3-3.5 0-2.3 1.5-3.6 3.4-3.6 2 0 3.3 1.4 3.3 3.5zm-5.3.1c0 1.5.8 2.6 2 2.6s2.1-1.1 2.1-2.6c0-1.1-.6-2.6-2-2.6-1.5-.1-2.1 1.3-2.1 2.6zM307.9 108.3c0-.8 0-1.5-.1-2.1h1.1l.1 1.3c.3-.9 1.1-1.5 1.9-1.5h.3v1.2h-.4c-.9 0-1.5.6-1.7 1.6v4.2h-1.2v-4.7zM313.9 104.2c0 .4-.3.8-.8.8-.4 0-.7-.3-.7-.8s.3-.8.8-.8c.4.1.7.4.7.8zm-1.4 8.7v-6.8h1.2v6.8h-1.2zM316.5 109.8c0 1.7 1.1 2.4 2.3 2.4.9 0 1.4-.2 1.9-.4l.2.9c-.4.2-1.2.4-2.3.4-2.1 0-3.3-1.4-3.3-3.4s1.2-3.6 3.2-3.6c2.2 0 2.8 1.9 2.8 3.2v.6h-4.8zm3.6-.9c0-.8-.3-2-1.7-2-1.3 0-1.8 1.1-1.9 2h3.6zM322.8 108c0-.7 0-1.3-.1-1.8h1.1l.1 1.1c.3-.6 1.1-1.3 2.2-1.3.9 0 2.4.6 2.4 2.9v4h-1.2V109c0-1.1-.4-2-1.6-2-.8 0-1.4.6-1.7 1.3-.1.2-.1.4-.1.6v4.1h-1.2v-5zM332 104.5v1.6h1.8v.9H332v3.7c0 .8.2 1.3.9 1.3.3 0 .5 0 .7-.1l.1.9c-.2.1-.6.2-1.1.2-.6 0-1-.2-1.3-.5-.3-.4-.5-1-.5-1.8V107h-1.1v-.9h1.1v-1.3l1.2-.3zM339.9 111.3c0 .6 0 1.2.1 1.6h-1.1l-.1-.9c-.4.5-1.1 1-2.1 1-1.4 0-2.1-1-2.1-1.9 0-1.6 1.5-2.5 4.1-2.5v-.1c0-.5-.2-1.6-1.5-1.6-.6 0-1.3.2-1.8.5l-.3-.8c.6-.4 1.4-.6 2.2-.6 2.1 0 2.6 1.4 2.6 2.8v2.5zm-1.2-1.8c-1.3 0-2.9.2-2.9 1.5 0 .8.5 1.2 1.1 1.2.9 0 1.5-.6 1.7-1.1 0-.1.1-.3.1-.4v-1.2zM343.3 104.5v1.6h1.8v.9h-1.8v3.7c0 .8.2 1.3.9 1.3.3 0 .5 0 .7-.1l.1.9c-.2.1-.6.2-1.1.2-.6 0-1-.2-1.3-.5-.3-.4-.5-1-.5-1.8V107H341v-.9h1.1v-1.3l1.2-.3zM347.8 104.2c0 .4-.3.8-.8.8-.4 0-.7-.3-.7-.8s.3-.8.8-.8c.4.1.7.4.7.8zm-1.3 8.7v-6.8h1.2v6.8h-1.2zM355.9 109.5c0 2.5-1.8 3.6-3.4 3.6-1.8 0-3.3-1.3-3.3-3.5 0-2.3 1.5-3.6 3.4-3.6 2 0 3.3 1.4 3.3 3.5zm-5.4.1c0 1.5.8 2.6 2 2.6s2.1-1.1 2.1-2.6c0-1.1-.6-2.6-2-2.6-1.5-.1-2.1 1.3-2.1 2.6zM357.4 108c0-.7 0-1.3-.1-1.8h1.1l.1 1.1c.3-.6 1.1-1.3 2.2-1.3.9 0 2.4.6 2.4 2.9v4H362V109c0-1.1-.4-2-1.6-2-.8 0-1.4.6-1.7 1.3-.1.2-.1.4-.1.6v4.1h-1.2v-5zM364.4 114.7c.3-.8.7-2.3.8-3.4l1.4-.1c-.3 1.2-1 2.7-1.3 3.4l-.9.1zM371.1 108.4c0-.9 0-1.6-.1-2.2h1.1l.1 1.2c.5-.8 1.3-1.3 2.4-1.3 1.7 0 2.9 1.4 2.9 3.4 0 2.4-1.5 3.6-3.1 3.6-.9 0-1.7-.4-2.1-1.1v3.7h-1.2v-7.3zm1.2 1.8c0 .2 0 .4.1.5.2.9 1 1.4 1.8 1.4 1.3 0 2.1-1.1 2.1-2.6 0-1.3-.7-2.5-2-2.5-.8 0-1.6.6-1.9 1.5 0 .2-.1.3-.1.5v1.2zM385.2 109.5c0 2.5-1.8 3.6-3.4 3.6-1.8 0-3.3-1.3-3.3-3.5 0-2.3 1.5-3.6 3.4-3.6s3.3 1.4 3.3 3.5zm-5.4.1c0 1.5.8 2.6 2 2.6s2.1-1.1 2.1-2.6c0-1.1-.6-2.6-2-2.6-1.5-.1-2.1 1.3-2.1 2.6zM386.5 111.7c.4.2 1 .5 1.6.5.9 0 1.3-.4 1.3-1s-.3-.9-1.2-1.2c-1.2-.4-1.8-1.1-1.8-1.9 0-1.1.9-2 2.3-2 .7 0 1.3.2 1.7.4l-.3.9c-.3-.2-.8-.4-1.4-.4-.7 0-1.1.4-1.1.9 0 .6.4.8 1.3 1.2 1.2.4 1.8 1 1.8 2 0 1.2-.9 2-2.5 2-.7 0-1.4-.2-1.9-.5l.2-.9zM393.6 104.2c0 .4-.3.8-.8.8-.4 0-.7-.3-.7-.8s.3-.8.8-.8c.4.1.7.4.7.8zm-1.3 8.7v-6.8h1.2v6.8h-1.2zM397 104.5v1.6h1.8v.9H397v3.7c0 .8.2 1.3.9 1.3.3 0 .5 0 .7-.1l.1.9c-.2.1-.6.2-1.1.2-.6 0-1-.2-1.3-.5-.3-.4-.5-1-.5-1.8V107h-1.1v-.9h1.1v-1.3l1.2-.3zM401.5 104.2c0 .4-.3.8-.8.8-.4 0-.7-.3-.7-.8s.3-.8.8-.8c.4.1.7.4.7.8zm-1.3 8.7v-6.8h1.2v6.8h-1.2zM409.6 109.5c0 2.5-1.8 3.6-3.4 3.6-1.8 0-3.3-1.3-3.3-3.5 0-2.3 1.5-3.6 3.4-3.6 2 0 3.3 1.4 3.3 3.5zm-5.4.1c0 1.5.8 2.6 2 2.6s2.1-1.1 2.1-2.6c0-1.1-.6-2.6-2-2.6-1.5-.1-2.1 1.3-2.1 2.6zM411.1 108c0-.7 0-1.3-.1-1.8h1.1l.1 1.1c.3-.6 1.1-1.3 2.2-1.3.9 0 2.4.6 2.4 2.9v4h-1.2V109c0-1.1-.4-2-1.6-2-.8 0-1.4.6-1.7 1.3-.1.2-.1.4-.1.6v4.1H411v-5zM420.3 104.2c0 .4-.3.8-.8.8-.4 0-.7-.3-.7-.8s.3-.8.8-.8c.4.1.7.4.7.8zm-1.4 8.7v-6.8h1.2v6.8h-1.2zM422.2 108c0-.7 0-1.3-.1-1.8h1.1l.1 1.1c.3-.6 1.1-1.3 2.2-1.3.9 0 2.4.6 2.4 2.9v4h-1.2V109c0-1.1-.4-2-1.6-2-.8 0-1.4.6-1.7 1.3-.1.2-.1.4-.1.6v4.1h-1.2v-5zM435.7 111.9c0 1.6-.3 2.5-1 3.1-.7.6-1.6.8-2.5.8-.8 0-1.7-.2-2.3-.6l.3-1c.4.3 1.1.5 2 .5 1.3 0 2.2-.7 2.2-2.4v-.7c-.4.6-1.1 1.1-2.2 1.1-1.7 0-2.9-1.4-2.9-3.3 0-2.3 1.5-3.6 3.1-3.6 1.2 0 1.8.6 2.1 1.2v-1h1.1c0 .5-.1 1-.1 1.8v4.1zm-1.2-3.1c0-.2 0-.4-.1-.5-.2-.7-.8-1.3-1.7-1.3-1.2 0-2 1-2 2.6 0 1.3.7 2.4 2 2.4.8 0 1.5-.5 1.7-1.3.1-.2.1-.4.1-.7v-1.2zM436.8 114.7c.3-.8.7-2.3.8-3.4l1.4-.1c-.3 1.2-1 2.7-1.3 3.4l-.9.1zM448.3 112.7c-.3.2-1 .4-1.9.4-2 0-3.4-1.4-3.4-3.5s1.4-3.6 3.6-3.6c.7 0 1.4.2 1.7.4l-.3.9c-.3-.2-.8-.3-1.4-.3-1.6 0-2.4 1.2-2.4 2.6 0 1.6 1 2.5 2.4 2.5.7 0 1.2-.2 1.5-.3l.2.9zM455.8 109.5c0 2.5-1.8 3.6-3.4 3.6-1.8 0-3.3-1.3-3.3-3.5 0-2.3 1.5-3.6 3.4-3.6s3.3 1.4 3.3 3.5zm-5.4.1c0 1.5.8 2.6 2 2.6s2.1-1.1 2.1-2.6c0-1.1-.6-2.6-2-2.6-1.5-.1-2.1 1.3-2.1 2.6zM457.3 103h1.2v9.9h-1.2V103zM466.7 109.5c0 2.5-1.8 3.6-3.4 3.6-1.8 0-3.3-1.3-3.3-3.5 0-2.3 1.5-3.6 3.4-3.6 2 0 3.3 1.4 3.3 3.5zm-5.3.1c0 1.5.8 2.6 2 2.6s2.1-1.1 2.1-2.6c0-1.1-.6-2.6-2-2.6-1.5-.1-2.1 1.3-2.1 2.6zM468.3 108.3c0-.8 0-1.5-.1-2.1h1.1l.1 1.3c.3-.9 1.1-1.5 1.9-1.5h.3v1.2h-.4c-.9 0-1.5.6-1.7 1.6v4.2h-1.2v-4.7zM472.7 111.7c.4.2 1 .5 1.6.5.9 0 1.3-.4 1.3-1s-.3-.9-1.2-1.2c-1.2-.4-1.8-1.1-1.8-1.9 0-1.1.9-2 2.3-2 .7 0 1.3.2 1.7.4l-.3.9c-.3-.2-.8-.4-1.4-.4-.7 0-1.1.4-1.1.9 0 .6.4.8 1.3 1.2 1.2.4 1.8 1 1.8 2 0 1.2-.9 2-2.5 2-.7 0-1.4-.2-1.9-.5l.2-.9zM487.5 109.5c0 2.5-1.8 3.6-3.4 3.6-1.8 0-3.3-1.3-3.3-3.5 0-2.3 1.5-3.6 3.4-3.6 2 0 3.3 1.4 3.3 3.5zm-5.3.1c0 1.5.8 2.6 2 2.6s2.1-1.1 2.1-2.6c0-1.1-.6-2.6-2-2.6-1.5-.1-2.1 1.3-2.1 2.6zM489.1 108.3c0-.8 0-1.5-.1-2.1h1.1l.1 1.3c.3-.9 1.1-1.5 1.9-1.5h.3v1.2h-.4c-.9 0-1.5.6-1.7 1.6v4.2h-1.2v-4.7zM502.7 109.5c0 2.5-1.8 3.6-3.4 3.6-1.8 0-3.3-1.3-3.3-3.5 0-2.3 1.5-3.6 3.4-3.6 2 0 3.3 1.4 3.3 3.5zm-5.3.1c0 1.5.8 2.6 2 2.6s2.1-1.1 2.1-2.6c0-1.1-.6-2.6-2-2.6-1.5-.1-2.1 1.3-2.1 2.6zM505.8 104.5v1.6h1.8v.9h-1.8v3.7c0 .8.2 1.3.9 1.3.3 0 .5 0 .7-.1l.1.9c-.2.1-.6.2-1.1.2-.6 0-1-.2-1.3-.5-.3-.4-.5-1-.5-1.8V107h-1.1v-.9h1.1v-1.3l1.2-.3zM508.9 103h1.2v4.2c.2-.4.5-.7.9-.9.4-.2.8-.3 1.3-.3.9 0 2.4.6 2.4 2.9v4h-1.2V109c0-1.1-.4-2-1.6-2-.8 0-1.4.6-1.7 1.2-.1.2-.1.4-.1.6v4.1h-1.2V103zM517.4 109.8c0 1.7 1.1 2.4 2.3 2.4.9 0 1.4-.2 1.9-.4l.2.9c-.4.2-1.2.4-2.3.4-2.1 0-3.3-1.4-3.3-3.4s1.2-3.6 3.2-3.6c2.2 0 2.8 1.9 2.8 3.2v.6h-4.8zm3.6-.9c0-.8-.3-2-1.7-2-1.3 0-1.8 1.1-1.9 2h3.6zM523.7 108.3c0-.8 0-1.5-.1-2.1h1.1l.1 1.3c.3-.9 1.1-1.5 1.9-1.5h.3v1.2h-.4c-.9 0-1.5.6-1.7 1.6v4.2h-1.2v-4.7zM529.1 106.2l.9 3.4c.2.8.4 1.5.5 2.2l.6-2.1 1.1-3.5h1l1.1 3.4c.3.8.4 1.5.6 2.2.1-.7.3-1.4.5-2.2l1-3.4h1.2l-2.2 6.8h-1.1l-1-3.2c-.2-.8-.4-1.4-.6-2.2-.2.8-.4 1.5-.6 2.2L531 113h-1.1l-2-6.8h1.2zM540.3 104.2c0 .4-.3.8-.8.8-.4 0-.7-.3-.7-.8s.3-.8.8-.8c.4.1.7.4.7.8zm-1.4 8.7v-6.8h1.2v6.8h-1.2zM542.1 111.7c.4.2 1 .5 1.6.5.9 0 1.3-.4 1.3-1s-.3-.9-1.2-1.2c-1.2-.4-1.8-1.1-1.8-1.9 0-1.1.9-2 2.3-2 .7 0 1.3.2 1.7.4l-.3.9c-.3-.2-.8-.4-1.4-.4-.7 0-1.1.4-1.1.9 0 .6.4.8 1.3 1.2 1.2.4 1.8 1 1.8 2 0 1.2-.9 2-2.5 2-.7 0-1.4-.2-1.9-.5l.2-.9zM548.5 109.8c0 1.7 1.1 2.4 2.3 2.4.9 0 1.4-.2 1.9-.4l.2.9c-.4.2-1.2.4-2.3.4-2.1 0-3.3-1.4-3.3-3.4s1.2-3.6 3.2-3.6c2.2 0 2.8 1.9 2.8 3.2v.6h-4.8zm3.6-.9c0-.8-.3-2-1.7-2-1.3 0-1.8 1.1-1.9 2h3.6zM48.7 124.8c0-.7 0-1.3-.1-1.8h1.1l.1 1.1c.4-.6 1-1.2 2.1-1.2.9 0 1.6.6 1.9 1.4.2-.4.5-.7.8-.9.4-.3.8-.5 1.5-.5.9 0 2.2.6 2.2 2.9v4h-1.2V126c0-1.3-.5-2.1-1.5-2.1-.7 0-1.2.5-1.5 1.1-.1.2-.1.4-.1.6v4.2h-1v-4.1c0-1.1-.5-1.8-1.4-1.8-.8 0-1.3.6-1.5 1.2-.1.2-.1.4-.1.6v4.1h-1.2v-5zM66.5 126.3c0 2.5-1.8 3.6-3.4 3.6-1.8 0-3.3-1.3-3.3-3.5 0-2.3 1.5-3.6 3.4-3.6 2 0 3.3 1.4 3.3 3.5zm-5.3.1c0 1.5.8 2.6 2 2.6s2.1-1.1 2.1-2.6c0-1.1-.6-2.6-2-2.6-1.5-.1-2.1 1.3-2.1 2.6zM73.9 119.8v8.2c0 .6 0 1.3.1 1.8h-1.1l-.1-1.2c-.4.8-1.2 1.3-2.3 1.3-1.6 0-2.9-1.4-2.9-3.4 0-2.3 1.4-3.6 3-3.6 1.1 0 1.7.5 2 1v-4h1.3zm-1.2 5.9c0-.2 0-.4-.1-.5-.2-.8-.9-1.4-1.8-1.4-1.3 0-2 1.1-2 2.6 0 1.4.7 2.5 2 2.5.8 0 1.6-.6 1.8-1.5 0-.2.1-.3.1-.5v-1.2zM77.3 121c0 .4-.3.8-.8.8-.4 0-.7-.3-.7-.8s.3-.8.8-.8c.4.1.7.4.7.8zm-1.3 8.7V123h1.2v6.8H76zM79.4 129.7v-5.8h-.9v-.9h.9v-.3c0-1 .2-1.8.8-2.4.5-.4 1.1-.6 1.7-.6.4 0 .8.1 1.1.2l-.2 1c-.2-.1-.4-.2-.8-.2-1.1 0-1.3.9-1.3 2v.4h1.6v.9h-1.6v5.8h-1.3z"/><path d="m83.8 123 1.5 4c.2.4.3 1 .4 1.4.1-.4.3-.9.4-1.4l1.3-4h1.3l-1.8 4.8c-.9 2.3-1.5 3.5-2.3 4.2-.6.5-1.2.7-1.5.8l-.3-1c.3-.1.7-.3 1.1-.6.3-.3.7-.7 1-1.4.1-.1.1-.2.1-.3s0-.2-.1-.3l-2.5-6.2h1.4zM94.4 121.3v1.6h1.8v.9h-1.8v3.7c0 .8.2 1.3.9 1.3.3 0 .5 0 .7-.1l.1.9c-.2.1-.6.2-1.1.2-.6 0-1-.2-1.3-.5-.3-.4-.5-1-.5-1.8v-3.7h-1.1v-.8h1.1v-1.3l1.2-.4zM97.5 119.8h1.2v4.2c.2-.4.5-.7.9-.9.4-.2.8-.3 1.3-.3.9 0 2.4.6 2.4 2.9v4h-1.2v-3.9c0-1.1-.4-2-1.6-2-.8 0-1.4.6-1.7 1.2-.1.2-.1.4-.1.6v4.1h-1.2v-9.9zM106 126.6c0 1.7 1.1 2.4 2.3 2.4.9 0 1.4-.2 1.9-.4l.2.9c-.4.2-1.2.4-2.3.4-2.1 0-3.3-1.4-3.3-3.4s1.2-3.6 3.2-3.6c2.2 0 2.8 1.9 2.8 3.2v.6H106zm3.6-.9c0-.8-.3-2-1.7-2-1.3 0-1.8 1.1-1.9 2h3.6zM115.3 119.8h1.2v9.9h-1.2v-9.9zM124.7 126.3c0 2.5-1.8 3.6-3.4 3.6-1.8 0-3.3-1.3-3.3-3.5 0-2.3 1.5-3.6 3.4-3.6 2 0 3.3 1.4 3.3 3.5zm-5.4.1c0 1.5.8 2.6 2 2.6s2.1-1.1 2.1-2.6c0-1.1-.6-2.6-2-2.6-1.4-.1-2.1 1.3-2.1 2.6zM132.1 128.7c0 1.6-.3 2.5-1 3.1-.7.6-1.6.8-2.5.8-.8 0-1.7-.2-2.3-.6l.3-1c.4.3 1.1.5 2 .5 1.3 0 2.2-.7 2.2-2.4v-.7c-.4.6-1.1 1.1-2.2 1.1-1.7 0-2.9-1.4-2.9-3.3 0-2.3 1.5-3.6 3.1-3.6 1.2 0 1.8.6 2.1 1.2v-1h1.1c0 .5-.1 1-.1 1.8v4.1zm-1.3-3.1c0-.2 0-.4-.1-.5-.2-.7-.8-1.3-1.7-1.3-1.2 0-2 1-2 2.6 0 1.3.7 2.4 2 2.4.8 0 1.5-.5 1.7-1.3.1-.2.1-.4.1-.7v-1.2zM140.2 126.3c0 2.5-1.8 3.6-3.4 3.6-1.8 0-3.3-1.3-3.3-3.5 0-2.3 1.5-3.6 3.4-3.6 2 0 3.3 1.4 3.3 3.5zm-5.3.1c0 1.5.8 2.6 2 2.6s2.1-1.1 2.1-2.6c0-1.1-.6-2.6-2-2.6-1.5-.1-2.1 1.3-2.1 2.6zM141.6 128.5c.4.2 1 .5 1.6.5.9 0 1.3-.4 1.3-1s-.4-.9-1.2-1.2c-1.2-.4-1.8-1.1-1.8-1.9 0-1.1.9-2 2.3-2 .7 0 1.3.2 1.7.4l-.3.9c-.3-.2-.8-.4-1.4-.4-.7 0-1.1.4-1.1.9 0 .6.4.8 1.3 1.2 1.2.4 1.8 1 1.8 2 0 1.2-.9 2-2.5 2-.7 0-1.4-.2-1.9-.5l.2-.9zM151.7 121c0 .4-.3.8-.8.8-.4 0-.7-.3-.7-.8s.3-.8.8-.8c.4.1.7.4.7.8zm-1.4 8.7V123h1.2v6.8h-1.2zM153.6 124.8c0-.7 0-1.3-.1-1.8h1.1l.1 1.1c.3-.6 1.1-1.3 2.2-1.3.9 0 2.4.6 2.4 2.9v4h-1.2v-3.9c0-1.1-.4-2-1.6-2-.8 0-1.4.6-1.7 1.3-.1.2-.1.4-.1.6v4.1h-1.2v-5zM169.1 128.1c0 .6 0 1.2.1 1.6h-1.1l-.1-.9c-.4.5-1.1 1-2.1 1-1.4 0-2.1-1-2.1-1.9 0-1.6 1.5-2.5 4.1-2.5v-.1c0-.5-.2-1.6-1.5-1.6-.6 0-1.3.2-1.8.5l-.3-.8c.6-.4 1.4-.6 2.2-.6 2.1 0 2.6 1.4 2.6 2.8v2.5zm-1.2-1.8c-1.3 0-2.9.2-2.9 1.5 0 .8.5 1.2 1.1 1.2.9 0 1.5-.6 1.7-1.1 0-.1.1-.3.1-.4v-1.2zM171.1 124.8c0-.7 0-1.3-.1-1.8h1.1l.1 1.1c.3-.6 1.1-1.3 2.2-1.3.9 0 2.4.6 2.4 2.9v4h-1.2v-3.9c0-1.1-.4-2-1.6-2-.8 0-1.4.6-1.7 1.3-.1.2-.1.4-.1.6v4.1H171v-5zM179.1 123l1.5 4c.2.4.3 1 .4 1.4.1-.4.3-.9.4-1.4l1.3-4h1.3l-1.8 4.8c-.9 2.3-1.5 3.5-2.3 4.2-.6.5-1.2.7-1.5.8l-.3-1c.3-.1.7-.3 1.1-.6.3-.3.7-.7 1-1.4.1-.1.1-.2.1-.3s0-.2-.1-.3l-2.5-6.2h1.4zM188.7 123l.9 3.4c.2.8.4 1.5.5 2.2l.6-2.1 1.1-3.5h1l1.1 3.4c.3.8.4 1.5.6 2.2.1-.7.3-1.4.5-2.2l1-3.4h1.2l-2.2 6.8h-1l-1-3.2c-.2-.8-.4-1.4-.6-2.2-.2.8-.4 1.5-.6 2.2l-1.1 3.2h-1.1l-2-6.8h1.1zM203.2 128.1c0 .6 0 1.2.1 1.6h-1.1l-.1-.9c-.4.5-1.1 1-2.1 1-1.4 0-2.1-1-2.1-1.9 0-1.6 1.5-2.5 4.1-2.5v-.1c0-.5-.2-1.6-1.5-1.6-.6 0-1.3.2-1.8.5l-.3-.8c.6-.4 1.4-.6 2.2-.6 2.1 0 2.6 1.4 2.6 2.8v2.5zm-1.2-1.8c-1.3 0-2.9.2-2.9 1.5 0 .8.5 1.2 1.1 1.2.9 0 1.5-.6 1.7-1.1 0-.1.1-.3.1-.4v-1.2zM205.5 123l1.5 4c.2.4.3 1 .4 1.4.1-.4.3-.9.4-1.4l1.3-4h1.3l-1.8 4.8c-.9 2.3-1.5 3.5-2.3 4.2-.6.5-1.2.7-1.5.8l-.3-1c.3-.1.7-.3 1.1-.6.3-.3.7-.7 1-1.4.1-.1.1-.2.1-.3s0-.2-.1-.3l-2.5-6.2h1.4zM210.8 129c0-.5.4-.9.8-.9.5 0 .8.4.8.9s-.3.9-.9.9c-.3 0-.7-.4-.7-.9z"/></g><g><path class="st1" d="M306.5 546.8h-21.1c-2.2 0-4.3.4-6.1 1.3-1.8.8-3.4 2.3-4.7 4.5h2.2c.7-1 1.6-1.9 2.7-2.7 3.9-2.6 9.2-1.6 11.2 1.6.2.3.3.7.5 1h13.5l-1.4 4c-2 5.7-5 10.2-8.9 13.4-3.9 3.2-8.7 4.8-14.5 4.8H277l-.3.7h6.3c6.8 0 12.5-2.1 17.3-6.3 4.7-4.2 8.4-10 11-17.4l1.8-5.1h-6.6z"/><path d="m289 552.8-1.8 1.5c-.8-1.2-1.9-1.8-3.1-1.8-1.1 0-2.1.4-2.9 1.2-.9.8-1.4 1.8-1.6 3-.1.8-.1 1.5.1 2.2.2.6.6 1.1 1.1 1.5.5.4 1.2.5 1.9.5.6 0 1.2-.1 1.8-.4.6-.3 1.2-.7 1.9-1.4l1.2 1.6c-1 .9-1.9 1.5-2.7 1.8-.8.3-1.7.5-2.6.5-1.8 0-3.1-.6-4-1.8-.9-1.2-1.2-2.7-.9-4.6.2-1.2.7-2.3 1.3-3.2.7-.9 1.5-1.7 2.6-2.3 1-.6 2.1-.9 3.2-.9.9 0 1.8.2 2.6.6.7.6 1.4 1.2 1.9 2zM203 592.6c-1.6 0-3 .3-4.2.8-1.2.6-2.2 1.6-2.8 3h21.5l-.6 3.2c-.7 4.1-2.3 7.3-4.7 9.6-2.4 2.3-5.6 3.5-9.7 3.5h-16.7l1.1-6.1h15.2c1.6 0 3-.3 4.2-.9 1.2-.6 2.1-1.7 2.8-3.2h-21.5l.5-2.9c.7-4.1 2.3-7.3 4.7-9.6 2.4-2.3 5.6-3.5 9.7-3.5h16.6l-1.1 6.1h-15zM238.8 592.4l-3.6 20.3h-6.8l3.6-20.3h-9.3l1-5.9h25.7l-1 5.9h-9.6zM290.6 599.5c-.3 1.5-.4 2.7-.3 3.7 0 1 .3 1.8.7 2.3.4.6 1 1 1.8 1.2.8.2 1.8.3 3.1.3h8.2l.8-4.3h-5.3l1.1-6.2h12.2l-2.8 16.1h-16.9c-1.7 0-3.3-.2-4.7-.7-1.4-.5-2.5-1.2-3.3-2.2-.9-1-1.4-2.4-1.7-4.1-.3-1.7-.2-3.7.2-6.2.7-4.1 2.3-7.3 4.7-9.6 2.4-2.3 5.6-3.5 9.7-3.5h16.6l-1.1 6.1h-15.1c-1 0-1.9.1-2.8.3-.9.2-1.6.6-2.3 1.1-.7.5-1.2 1.2-1.7 2.1-.5 1.1-.8 2.3-1.1 3.6zM340.5 612.7h-15.8c-1.8 0-3.4-.3-4.5-.9-1.2-.6-2.1-1.5-2.7-2.6-.6-1.1-.9-2.5-1-4.1-.1-1.6.1-3.5.5-5.6.7-4.1 2.1-7.3 4.1-9.6 2-2.3 4.6-3.5 8-3.5h16.2l-1 5.9h-13.9c-.9 0-1.7.1-2.4.3-.7.2-1.2.5-1.7.9s-.8.8-1.1 1.3c-.3.5-.5 1.1-.6 1.7h19l-1.1 6h-19c-.3 2.8 1.1 4.1 4.4 4.1h13.9l-1.3 6.1zM362.2 592.5c-1.6 0-3 .3-4.2.8-1.2.6-2.2 1.6-2.8 3h21.5l-.6 3.2c-.7 4.1-2.3 7.3-4.7 9.6-2.4 2.3-5.6 3.5-9.7 3.5H345l1.1-6.1h15.2c1.6 0 3-.3 4.2-.9 1.2-.6 2.1-1.7 2.8-3.2h-21.5l.5-2.9c.7-4.1 2.3-7.3 4.7-9.6 2.4-2.3 5.6-3.5 9.7-3.5h16.6l-1.1 6.1h-15zM264.1 586.5c-1.3 0-2.5.3-3.7.8-1.4.5-2.6 1.3-3.6 2.4l-.3.3c-1.1 1-2 2.2-2.7 3.5-.7 1.3-1.2 2.6-1.5 3.9l-2.9 15.3h6.8l.8-4.5 1.1-5.5H271.9l-1 5.5-.8 4.5h6.9l4.9-26.2h-17.8zm-3.6 8.6c.1-.3.3-.5.5-.7l.4-.4c.4-.3.8-.6 1.2-.8.2-.1.5-.2.7-.3.7-.2 1.5-.3 2.4-.3h8.1l-.8 4.2h-13.2c.2-.7.4-1.2.7-1.7zM193.1 616.7l-1.2 1c-.6-.8-1.3-1.1-2.2-1.1-.8 0-1.4.3-2.1.8-.6.5-1 1.2-1.1 1.9-.1.5-.1 1 .1 1.4.2.4.4.7.8 1 .4.2.8.4 1.3.4.4 0 .9-.1 1.2-.2.4-.2.8-.5 1.4-.9l.8 1.1c-.7.6-1.3 1-1.9 1.2-.6.2-1.2.3-1.9.3-1.2 0-2.2-.4-2.8-1.2-.7-.8-.9-1.8-.7-3 .1-.8.4-1.5.9-2.1.5-.6 1.1-1.1 1.8-1.5.7-.4 1.5-.6 2.3-.6.7 0 1.3.1 1.8.4.7.2 1.1.6 1.5 1.1zM215.8 615.1h1.6l1 2.9 2-2.9h1.6l-3.1 4.5-.6 3.4h-1.5l.6-3.4-1.6-4.5zM252.9 616.7l-1.2 1c-.6-.8-1.3-1.1-2.2-1.1-.8 0-1.4.3-2.1.8-.6.5-1 1.2-1.1 1.9-.1.5-.1 1 .1 1.4.2.4.4.7.8 1 .4.2.8.4 1.3.4.4 0 .9-.1 1.3-.2.4-.2.8-.5 1.4-.9l.8 1.1c-.7.6-1.3 1-1.9 1.2-.6.2-1.2.3-1.9.3-1.2 0-2.2-.4-2.8-1.2-.7-.8-.9-1.8-.7-3 .1-.8.4-1.5.9-2.1.5-.6 1.1-1.1 1.8-1.5.7-.4 1.5-.6 2.3-.6.7 0 1.3.1 1.8.4.6.2 1 .6 1.4 1.1zM278.1 615.1h1.5l-1.1 6.5h2.2l-.3 1.4h-3.7l1.4-7.9zM308.5 615.1h1.5l-1.4 8h-1.5l1.4-8zM336 615.1h1.5l2.5 5.2.9-5.2h1.5l-1.4 8h-1.5l-2.5-5.2-.9 5.2h-1.5l1.4-8zM372.4 616.6l-1.3 1.1c-.5-.7-1.3-1.1-2.2-1.1-.8 0-1.5.3-2.1.8-.6.5-1 1.2-1.1 1.9-.1.8 0 1.4.5 2 .5.5 1.1.8 1.9.8.5 0 1-.1 1.4-.3.4-.2.7-.6 1.1-1h-2.3l.3-1.4h4v.3c-.1.7-.4 1.4-.9 2-.5.6-1 1.1-1.7 1.4-.6.3-1.3.5-2.1.5s-1.5-.2-2.1-.5c-.6-.4-1-.9-1.3-1.5-.3-.7-.3-1.4-.2-2.1.2-1.1.7-2 1.5-2.8 1-.9 2.1-1.4 3.5-1.4.7 0 1.3.1 1.9.4.4 0 .9.4 1.2.9z"/><path class="st1" d="M260 566.5h21.1c2.2 0 4.3-.4 6.1-1.3 1.8-.8 3.4-2.3 4.7-4.5h-2.2c-.7 1-1.6 1.9-2.7 2.7-3.9 2.6-9.2 1.6-11.2-1.6-.2-.3-.3-.7-.5-1h-13.4l1.4-4c2-5.7 5-10.2 8.9-13.4 3.9-3.2 8.7-4.8 14.5-4.8h2.9l.3-.7h-6.3c-6.8 0-12.5 2.1-17.3 6.3-4.7 4.2-8.4 10-11 17.4l-1.8 5.1h6.5z"/><path d="M380.7 586.4c.3 0 .5.1.8.2.2.1.4.3.6.6.1.3.2.5.2.8 0 .3-.1.6-.2.8-.1.3-.3.4-.6.6-.2.1-.5.2-.8.2-.3 0-.5-.1-.8-.2-.2-.1-.4-.3-.6-.6-.1-.3-.2-.5-.2-.8 0-.3.1-.6.2-.8.1-.3.3-.5.6-.6.3-.1.5-.2.8-.2zm0 .2c-.2 0-.5.1-.7.2-.2.1-.4.3-.5.5-.1.2-.2.5-.2.7 0 .3.1.5.2.7.1.2.3.4.5.5.2.1.4.2.7.2.2 0 .5-.1.7-.2.2-.1.4-.3.5-.5.1-.2.2-.4.2-.7 0-.3-.1-.5-.2-.7-.1-.2-.3-.4-.5-.5s-.5-.2-.7-.2zm-.7.5v-.1h.8c.2 0 .4 0 .5.1.1.1.2.2.2.3 0 .1 0 .2-.1.3-.1.1-.2.1-.3.2.1.1.2.2.3.4.1.2.1.3.2.3 0 0 .1.1.2 0v.1h-.2c-.1 0-.1 0-.2-.1 0 0-.1-.2-.2-.3-.1-.2-.1-.3-.2-.4 0 0-.1-.1-.2-.1h-.1v.6h.2v.1h-.9v-.1h.2V586.9c-.1.2-.1.2-.2.2zm.4.8c.3 0 .5 0 .5-.1.1-.1.1-.2.1-.3 0-.1 0-.2-.1-.3-.1-.1-.2-.1-.4-.1h-.2V587.9zM315.7 546.8c.3 0 .5.1.8.2.2.1.4.3.6.6.1.3.2.5.2.8 0 .3-.1.6-.2.8-.1.3-.3.4-.6.6-.2.1-.5.2-.8.2-.3 0-.5-.1-.8-.2-.2-.1-.4-.3-.6-.6-.1-.3-.2-.5-.2-.8 0-.3.1-.6.2-.8.1-.3.3-.5.6-.6.3-.1.5-.2.8-.2zm0 .3c-.2 0-.5.1-.7.2-.2.1-.4.3-.5.5-.1.2-.2.5-.2.7 0 .3.1.5.2.7.1.2.3.4.5.5.2.1.4.2.7.2.2 0 .5-.1.7-.2.2-.1.4-.3.5-.5.1-.2.2-.4.2-.7 0-.3-.1-.5-.2-.7-.1-.2-.3-.4-.5-.5-.2-.2-.4-.2-.7-.2zm-.7.5v-.1h.8c.2 0 .4 0 .5.1.1.1.2.2.2.3 0 .1 0 .2-.1.3-.1.1-.2.1-.3.2.1.1.2.2.3.4.1.2.1.3.2.3 0 0 .1.1.2 0v.1h-.2c-.1 0-.1 0-.2-.1 0 0-.1-.2-.2-.3-.1-.2-.1-.3-.2-.4 0 0-.1-.1-.2-.1h-.1v.6h.2v.1h-.9v-.1h.2V547.4c0 .2-.1.2-.2.2zm.4.7c.3 0 .5 0 .5-.1.1-.1.1-.2.1-.3 0-.1 0-.2-.1-.3-.1-.1-.2-.1-.4-.1h-.2V548.3z"/></g><g><path class="st0" d="M442.9 662.7h-.6v-.2h1.5v.2h-.6v1.8h-.3v-1.8zM445.6 663.6v-.8c-.1.2-.1.5-.2.7l-.3 1h-.2l-.3-.9c-.1-.3-.2-.5-.2-.8v.9l-.1.8h-.2l.1-2h.3l.3 1c.1.2.1.5.2.7.1-.2.1-.4.2-.7l.4-1h.3l.1 2h-.3l-.1-.9z"/><path d="M139.8 667.6c-1.4 0-2.7.2-3.7.7-1.1.5-1.9 1.4-2.5 2.7h18.9l-.5 2.8c-.6 3.6-2 6.4-4.1 8.4-2.1 2-4.9 3-8.5 3h-14.7l.9-5.4H139c1.4 0 2.7-.3 3.7-.8 1.1-.5 1.9-1.5 2.5-2.8h-18.9l.5-2.6c.6-3.6 2-6.4 4.1-8.4 2.1-2 5-3 8.6-3h14.6l-.9 5.4h-13.4zM171.4 667.4l-3.2 17.9h-6l3.2-17.9h-8.2l.9-5.2h22.6l-.9 5.2h-8.4zM180.6 685.3l2.4-13.5c.2-1.2.6-2.3 1.2-3.4s1.4-2.2 2.3-3.1c.9-.9 2-1.6 3.1-2.2 1.1-.6 2.3-.9 3.6-.9H209l-4.1 23.1h-6.1l1.5-8.8h-12.2l-1.5 8.8h-6zm11.9-17.5c-.6.3-1.1.6-1.6 1s-.8.9-1.2 1.4c-.3.5-.6 1-.8 1.4l.1-.5h12.2l.7-3.7h-7.3c-.8 0-1.5.1-2.1.4zM217 673.7c-.2 1.3-.3 2.4-.3 3.3 0 .9.2 1.6.6 2.1.4.5.9.9 1.6 1 .7.2 1.6.3 2.7.3h7.2l.7-3.8h-4.7l1-5.4h10.8l-2.5 14.2h-14.9c-1.5 0-2.9-.2-4.1-.6-1.2-.4-2.2-1.1-2.9-2-.8-.9-1.3-2.1-1.5-3.6-.3-1.5-.2-3.3.2-5.5.6-3.6 2-6.4 4.1-8.4 2.1-2 5-3 8.6-3h14.6l-.9 5.4H224c-.9 0-1.7.1-2.5.3-.8.2-1.4.5-2 .9-.6.5-1.1 1.1-1.5 1.9-.5.6-.8 1.6-1 2.9zM261 685.3h-14c-1.6 0-3-.3-4-.8s-1.8-1.3-2.4-2.3c-.5-1-.8-2.2-.9-3.6-.1-1.4.1-3.1.4-4.9.6-3.6 1.8-6.4 3.6-8.4s4.1-3 7-3H265l-.9 5.2h-12.2c-.8 0-1.5.1-2.1.3-.6.2-1.1.5-1.5.8-.4.3-.7.7-1 1.2-.2.5-.4.9-.6 1.5h16.7l-.9 5.3h-16.7c-.3 2.4 1 3.6 3.9 3.6h12.2l-.9 5.1zM280 667.6c-1.4 0-2.7.2-3.7.7-1.1.5-1.9 1.4-2.5 2.7h18.9l-.5 2.8c-.6 3.6-2 6.4-4.1 8.4-2.1 2-4.9 3-8.5 3h-14.7l.9-5.4h13.4c1.4 0 2.7-.3 3.7-.8 1.1-.5 1.9-1.5 2.5-2.8h-18.9l.5-2.6c.6-3.6 2-6.4 4.1-8.4 2.1-2 5-3 8.6-3h14.6l-1 5.4H280z"/><path class="st1" d="m294.2 685.3 4.1-23.1H314c1.2 0 2.3.3 3.3.8s1.8 1.3 2.4 2.4c.6 1 1 1.9 1.2 2.9.2 1 .2 2 .1 3.2-.2 1.3-.6 2.5-1.2 3.7-.6 1.1-1.4 2.2-2.4 3.2-1 1.1-2 1.8-3.2 2.3-1.1.5-2.3.7-3.5.7H301l-.7 4h-6.1zm18.8-10.2c.8-.7 1.4-1.8 1.8-3.3 0-.5 0-1.1-.1-1.6s-.3-1-.6-1.4c-.3-.4-.7-.8-1.3-1-.6-.3-1.3-.4-2.2-.4h-7.3l-1.5 8.8h7.3c1.8-.1 3.1-.4 3.9-1.1zM331.4 685.3c-1.7 0-3-.3-4-.8s-1.8-1.3-2.4-2.3c-.5-1-.8-2.2-.9-3.6-.1-1.4.1-3.1.4-4.9.6-3.6 1.8-6.4 3.6-8.4s4.1-3 7-3h8.1c2.9 0 4.9 1 6 3 1 2 1.2 4.8.6 8.4-.3 1.8-.8 3.5-1.3 4.9-.6 1.4-1.3 2.6-2.2 3.6-.9 1-1.9 1.8-3.2 2.3-1.2.5-2.7.8-4.3.8h-7.4zm12.6-15.4c-.1-.5-.2-.9-.5-1.3s-.7-.7-1.2-.9c-.5-.2-1.2-.3-2.1-.3h-3.9c-.9 0-1.6.1-2.2.3-.6.2-1.1.5-1.5.9-.4.4-.7.8-1 1.3-.2.5-.4 1-.5 1.6l-.8 4.6c-.5 2.6.7 3.9 3.6 3.9h4.1c3 0 4.7-1.3 5.2-3.9l.8-4.6c.1-.6.1-1.1 0-1.6zM355.7 662.2h6l-2.3 12.8c-.1.6-.2 1.3-.2 1.9 0 .6.1 1.2.4 1.6.3.5.8.9 1.5 1.2.7.3 1.7.4 3 .4h2.8c-.2-.7-.4-1.4-.4-2.1 0-.7 0-1.5.2-2.3l2.4-13.5h6l-2.3 12.8c-.1.7-.2 1.3-.3 1.9-.1.6 0 1.2.2 1.6.2.5.5.8 1.1 1.1.5.3 1.3.4 2.3.4h3.3l3.2-17.9h6.2l-4.1 23.1h-24.5c-1.2 0-2.3-.2-3.3-.7-1-.5-1.8-1.3-2.4-2.3-.6-1-1.1-2-1.3-3.1-.2-1.1-.2-2.2 0-3.4l2.5-13.5zM411.6 685.3h-13.9c-1.6 0-3-.3-4-.8s-1.8-1.3-2.4-2.3c-.5-1-.8-2.2-.9-3.6-.1-1.4.1-3.1.4-4.9.6-3.6 1.8-6.4 3.6-8.4s4.1-3 7-3h14.3l-.9 5.2h-12.2c-.8 0-1.5.1-2.1.3-.6.2-1.1.5-1.5.8-.4.3-.7.7-1 1.2-.2.5-.4.9-.6 1.5h16.7l-.9 5.3h-16.7c-.3 2.4 1 3.6 3.9 3.6h12.2l-1 5.1zM415.6 685.3l4.1-23.1h15.8c1.2 0 2.3.2 3.3.7 1 .5 1.8 1.3 2.3 2.3.6 1 1 1.9 1.2 2.9.2 1 .2 2.1.1 3.2-.2 1.3-.6 2.6-1.2 3.7s-1.4 2.2-2.4 3.2c-.4.4-.9.8-1.4 1.2-.5.4-1 .7-1.5.9l2.8 4.9H432l-2.2-4h-7.3l-.7 4h-6.2zm17.2-9.4c.6-.2 1.1-.4 1.5-.8.4-.3.7-.8 1-1.3.3-.5.5-1.2.7-1.9v-1.6c-.1-.5-.2-1-.5-1.5-.3-.4-.7-.8-1.2-1-.5-.3-1.3-.4-2.1-.4h-7.3l-1.5 8.8h7.3c.8-.1 1.5-.1 2.1-.3z"/></g><g><path d="M106.4 55.8c-.1.9-.1 1.8-.1 2.8v5c0 1.9 0 2.9.1 3.1.1.2.4.3 1 .3h.7v.6c-1 0-1.9-.1-2.6-.1-.7 0-1.6 0-2.6.1V67h.7c.4 0 .6-.1.8-.2.1-.1.2-.3.2-.6.1-.7.1-1.6.1-2.7v-5c0-1 0-1.9-.1-2.7h-.9c-1.4 0-2.2 0-2.4.1-.1.1-.2.3-.3.8l-.1 1.2h-.6v-1c0-.4 0-1-.1-1.8 3.2 0 5 .1 5.6.1l4.9-.1c-.1 1-.2 1.9-.2 2.9h-.6l-.1-1.2c0-.4-.1-.6-.1-.7-.1-.1-.2-.1-.4-.1-.6 0-1.4-.1-2.2-.1h-.7zM117.9 61.1c.6.8 1.3 1.8 2.1 2.9l1.7 2.2c.3.4.5.6.6.6.1.1.2.1.3.1h.2v.6c-.5 0-.9-.1-1.3-.1-.3 0-.7 0-1.1.1l-3.1-4.2c-.6-.8-1.2-1.5-1.9-2.3l.1-.3h.8c1 0 1.7-.3 2.3-.8.6-.5.8-1.2.8-2s-.2-1.3-.7-1.8c-.5-.4-1.1-.6-2-.6-.6 0-1.2.1-1.9.3-.1.9-.1 1.9-.1 3V63c0 2.1 0 3.2.1 3.4.1.2.4.3 1 .3h.7v.6c-1 0-1.8-.1-2.4-.1-.5 0-1.4 0-2.7.1v-.6h.7c.5 0 .8-.1.9-.3.1-.2.1-1.4.1-3.5v-4.2c0-1.8-.1-2.8-.2-3-.1-.2-.5-.3-1.1-.3h-.5V55c1.1 0 1.9.1 2.5.1h3.5c1 0 1.8.1 2.3.3.5.2.9.5 1.2.9.3.4.4.9.4 1.5 0 .8-.3 1.6-.9 2.2-.4.5-1.3.9-2.4 1.1zM132.2 63.3h-5.1l-.6 1.4c-.4.9-.6 1.5-.6 1.7 0 .1 0 .2.1.3s.3.1.6.1l.8.1v.6c-.6 0-1.2-.1-1.9-.1-.8 0-1.6 0-2.2.1v-.6h.3c.4 0 .7-.1.8-.1.1-.1.2-.3.4-.5.4-.8.8-1.8 1.3-2.7l2.4-5.5c.6-1.5 1.1-2.5 1.3-3.2h.6l4.4 10.3c.3.7.5 1.1.6 1.3l.3.3c.1.1.4.1.9.1v.6c-.8 0-1.5-.1-2.2-.1-.6 0-1.5 0-2.6.1v-.6l.9-.1c.3 0 .5-.1.6-.1.1-.1.1-.1.1-.2s-.1-.4-.3-.8l-.9-2.4zm-4.7-.8h4.4l-2.2-5.3-2.2 5.3zM138.9 66.6c.1-.9.1-2.5.1-4.8v-2.5c0-1 0-1.9-.1-2.7 0-.4-.1-.7-.2-.8-.1-.1-.3-.1-.7-.2l-.7-.1V55H143.6c.8 0 1.6.1 2.4.2.8.2 1.6.5 2.2 1 .7.5 1.2 1.1 1.5 1.9.3.7.5 1.6.5 2.6 0 2-.7 3.6-2 4.9-1.3 1.3-3.1 1.9-5.2 1.9h-1.1c-1.1 0-1.7-.1-2-.1-.5 0-1.1 0-1.8.1v-.4l.8-.5zm1.9 0c.8.1 1.5.2 2.1.2 1.6 0 2.9-.4 3.8-1.3 1.1-1 1.6-2.5 1.6-4.5 0-1.7-.5-3-1.4-3.9-.9-.9-2.2-1.3-4-1.3-.6 0-1.3.1-2.2.2-.1.6-.1 1.2-.1 1.9v5.7c.1 1 .2 2 .2 3zM154.9 61.5V66.6c.9.1 1.8.1 2.8.1.7 0 1.2 0 1.7-.1.3 0 .6-.1.9-.2.1-.5.3-1.2.4-1.9h.6c-.2 1.3-.2 2.1-.2 2.6v.4c-.7.1-1.3.1-2 .1h-1.4c-1.5 0-2.6-.1-3.4-.1-.7 0-1.6 0-2.7.1V67h.3c.5 0 .8 0 1-.1.1-.1.2-.3.3-.7 0-.4.1-1.2.1-2.4V59c0-.8 0-1.4-.1-1.9 0-.5-.1-.8-.1-.9 0-.1-.1-.2-.2-.2-.1-.1-.3-.1-.8-.1l-.7-.1V55h3l3.4-.1h1.6c.5 0 1.1 0 1.7.1-.2.7-.3 1.6-.4 2.7h-.6c0-.6 0-1.2-.1-1.6-.7-.3-1.5-.4-2.5-.4-.8 0-1.6 0-2.5.1v4.8c.6 0 1.1.1 1.5.1 1.4 0 2.2 0 2.4-.1.2-.1.3-.4.3-.9v-.6h.6c0 .9-.1 1.6-.1 2.1 0 .6 0 1.2.1 2h-.6v-.5c0-.6-.1-.9-.3-1s-1-.2-2.3-.2c-.7-.1-1.2 0-1.7 0zM175.2 56.9l-2.6 5.4c-1 2-1.8 3.8-2.4 5.3h-.4c-.2-.5-.8-1.9-1.9-4l-3.1-6.5v6.8c0 1.6.1 2.5.2 2.7.1.2.5.3 1.2.3h.3v.6c-.8 0-1.5-.1-2-.1-.4 0-1.1 0-2.2.1v-.6h.6c.4 0 .6-.1.8-.2.1-.1.2-.3.2-.6.1-.8.1-1.7.1-2.7v-5c0-1.2 0-2-.1-2.4 0-.2-.1-.4-.3-.5s-.4-.2-.9-.2h-.5V55c1 0 1.7.1 1.9.1.3 0 .8 0 1.4-.1.7 1.6 1.5 3.3 2.5 5.2l2.3 4.8 2.1-4.4c.8-1.5 1.6-3.4 2.6-5.6.7 0 1.2.1 1.5.1.3 0 1 0 1.9-.1v.6h-.4c-.5 0-.8.1-.9.3-.1.2-.2.8-.2 1.9v6.4c0 1.4.1 2.3.2 2.5.1.2.5.3 1 .3h.5v.6c-.8 0-1.6-.1-2.3-.1-.8 0-1.7 0-2.6.1V67h.6c.5 0 .7-.1.8-.3s.1-1.1.1-2.6v-7.2zM188.2 63.3h-5.1l-.6 1.4c-.4.9-.6 1.5-.6 1.7 0 .1 0 .2.1.3.1.1.3.1.6.1l.8.1v.6c-.6 0-1.2-.1-1.9-.1-.8 0-1.6 0-2.2.1v-.6h.3c.4 0 .7-.1.8-.1.1-.1.2-.3.4-.5.4-.8.8-1.8 1.3-2.7l2.4-5.5c.6-1.5 1.1-2.5 1.3-3.2h.6l4.4 10.3c.3.7.5 1.1.6 1.3l.3.3c.1.1.4.1.9.1v.6c-.8 0-1.5-.1-2.2-.1-.6 0-1.5 0-2.6.1v-.6l.9-.1c.3 0 .5-.1.6-.1.1-.1.1-.1.1-.2s-.1-.4-.3-.8l-.9-2.4zm-4.8-.8h4.4l-2.2-5.3-2.2 5.3zM199.9 61.1c.6.8 1.3 1.8 2.1 2.9l1.7 2.2c.3.4.5.6.6.6.1.1.2.1.3.1h.2v.6c-.5 0-.9-.1-1.3-.1-.3 0-.7 0-1.1.1l-3.1-4.2c-.6-.8-1.2-1.5-1.9-2.3l.1-.3h.8c1 0 1.7-.3 2.3-.8.6-.5.8-1.2.8-2s-.2-1.3-.7-1.8c-.5-.4-1.1-.6-2-.6-.6 0-1.2.1-1.9.3-.1.9-.1 1.9-.1 3V63c0 2.1 0 3.2.1 3.4.1.2.4.3 1 .3h.7v.6c-1 0-1.8-.1-2.4-.1-.5 0-1.4 0-2.7.1v-.6h.7c.5 0 .8-.1.9-.3.1-.2.1-1.4.1-3.5v-4.2c0-1.8-.1-2.8-.2-3s-.5-.3-1.1-.3h-.5V55c1.1 0 1.9.1 2.5.1h3.5c1 0 1.8.1 2.3.3.5.2.9.5 1.2.9.3.4.4.9.4 1.5 0 .8-.3 1.6-.9 2.2-.4.5-1.3.9-2.4 1.1zM210.5 60.5l6 5.6.5.5c.1.1.2.2.3.2.1 0 .3.1.6.1v.6c-.5 0-.9-.1-1.3-.1s-.8 0-1.2.1l-6.1-5.7c-.2-.2-.3-.3-.4-.3-.1 0-.2.1-.2.3v2.7c0 1.3 0 2 .1 2.1.1.2.4.3 1 .3h.7v.6c-1 0-1.8-.1-2.5-.1-.8 0-1.6 0-2.5.1v-.6h.7c.5 0 .8-.1.8-.3.1-.2.1-.9.1-2.2v-5.9c0-1.6 0-2.5-.1-2.7-.1-.2-.4-.3-.8-.3h-.7V55c1.1 0 1.9.1 2.3.1.3 0 1.3 0 2.7-.1v.6h-.7c-.4 0-.7.1-.8.2-.1.1-.2.3-.2.5V61h.1c.5-.4.9-.8 1.2-1.1l1.7-1.7 2.5-2.6V55c.6 0 1.2.1 1.6.1.4 0 .9 0 1.5-.1v.6h-.4c-.4 0-.8.1-1.1.2-.3.2-1 .7-2 1.7l-3.4 3zM226.5 55.6c-.2.6-.3 1.4-.3 2.4h-.6v-.7c0-.5-.1-.8-.2-.9-.1-.2-.4-.3-1-.5-.5-.2-1.1-.3-1.6-.3-.9 0-1.7.2-2.2.7-.5.5-.8 1.1-.8 1.8 0 .5.1.9.3 1.2.2.3.5.6.9.7.4.1 1.2.3 2.4.4 1.2.1 2 .3 2.4.5.4.2.8.5 1 .9.3.4.4.9.4 1.5 0 1.2-.5 2.2-1.5 3-1 .9-2.3 1.3-3.9 1.3-.6 0-1.1-.1-1.7-.2-.6-.1-1.1-.3-1.7-.5.1-.7.2-1.6.1-2.7h.6v.4c0 .6 0 .9.1 1.1.1.1.2.3.4.4.3.2.7.4 1.2.5.4.1.9.2 1.4.2 1.1 0 2-.3 2.6-.8s.9-1.2.9-2c0-.5-.1-.9-.3-1.2-.2-.3-.5-.6-.9-.7-.4-.2-1.1-.3-2-.4-1.3-.1-2.2-.3-2.7-.5s-.8-.5-1.1-1c-.3-.5-.4-1-.4-1.7 0-1.1.4-2.1 1.2-2.8.8-.7 2-1.1 3.4-1.1.6 0 1.2.1 1.8.2.6.3 1.2.5 1.8.8zM241.2 63.3h-5.1l-.6 1.4c-.4.9-.6 1.5-.6 1.7 0 .1 0 .2.1.3.1.1.3.1.6.1l.8.1v.6c-.6 0-1.2-.1-1.9-.1-.8 0-1.6 0-2.2.1v-.6h.3c.4 0 .7-.1.8-.1.1-.1.2-.3.4-.5.4-.8.8-1.8 1.3-2.7l2.4-5.5c.6-1.5 1.1-2.5 1.3-3.2h.6l4.4 10.3c.3.7.5 1.1.6 1.3l.3.3c.1.1.4.1.9.1v.6c-.8 0-1.5-.1-2.2-.1-.6 0-1.5 0-2.6.1v-.6l.9-.1c.3 0 .5-.1.6-.1.1-.1.1-.1.1-.2s-.1-.4-.3-.8l-.9-2.4zm-4.8-.8h4.4l-2.2-5.3-2.2 5.3zM248.9 56.9V63c0 1.4 0 2.3.1 2.9 0 .4.1.7.2.8.1.1.4.2.8.2h.6v.6c-.6 0-1.2-.1-1.7-.1-.4 0-1.2 0-2.5.1v-.6h.6c.4 0 .6-.1.7-.2.1-.1.2-.3.2-.6.1-.6.1-1.5.1-2.6V56.7c0-.3-.1-.6-.1-.7l-.3-.3c-.2-.1-.4-.1-.6-.1h-.5V55c.7 0 1.3.1 1.7.1.4 0 .9 0 1.4-.1.6.7 1.1 1.4 1.6 2.1.5.7 1 1.3 1.6 2l3 3.7c1.1 1.3 1.9 2.2 2.3 2.8V60c0-2.4 0-3.7-.1-3.9-.1-.2-.4-.4-1-.4l-.7-.1V55c.9 0 1.7.1 2.2.1.5 0 1.2 0 2.1-.1v.6h-.7c-.5 0-.9.2-.9.5-.1.2-.1 1.5-.1 3.8v4c0 1.1 0 2.3.1 3.8-.8-.1-1.3-.2-1.4-.3-.1-.1-.3-.1-.4-.3-.7-.7-1.3-1.5-2-2.4l-6.3-7.8zM262.9 66.6c.1-.9.1-2.5.1-4.8v-2.5c0-1 0-1.9-.1-2.7 0-.4-.1-.7-.2-.8-.1-.1-.3-.1-.7-.2l-.7-.1V55H267.6c.8 0 1.6.1 2.4.2.8.2 1.6.5 2.2 1 .7.5 1.2 1.1 1.5 1.9.3.7.5 1.6.5 2.6 0 2-.7 3.6-2 4.9-1.3 1.3-3.1 1.9-5.2 1.9h-1.1c-1.1 0-1.7-.1-2-.1-.5 0-1.1 0-1.8.1v-.4l.8-.5zm1.9 0c.8.1 1.5.2 2.1.2 1.6 0 2.9-.4 3.8-1.3 1.1-1 1.6-2.5 1.6-4.5 0-1.7-.5-3-1.4-3.9-.9-.9-2.2-1.3-4-1.3-.6 0-1.3.1-2.2.2-.1.6-.1 1.2-.1 1.9v5.7c.1 1 .1 2 .2 3zM288.6 63.3h-5.1l-.6 1.4c-.4.9-.6 1.5-.6 1.7 0 .1 0 .2.1.3s.3.1.6.1l.8.1v.6c-.6 0-1.2-.1-1.9-.1-.8 0-1.6 0-2.2.1v-.6h.3c.4 0 .7-.1.8-.1.1-.1.2-.3.4-.5.4-.8.8-1.8 1.3-2.7l2.4-5.5c.6-1.5 1.1-2.5 1.3-3.2h.6l4.4 10.3c.3.7.5 1.1.6 1.3l.3.3c.1.1.4.1.9.1v.6c-.8 0-1.5-.1-2.2-.1-.6 0-1.5 0-2.6.1v-.6l.9-.1c.3 0 .5-.1.6-.1.1-.1.1-.1.1-.2s-.1-.4-.3-.8l-.9-2.4zm-4.8-.8h4.4l-2.2-5.3-2.2 5.3zM300.3 61.1c.6.8 1.3 1.8 2.1 2.9l1.7 2.2c.3.4.5.6.6.6.1.1.2.1.3.1h.2v.6c-.5 0-.9-.1-1.3-.1-.3 0-.7 0-1.1.1l-3.1-4.2c-.6-.8-1.2-1.5-1.9-2.3l.1-.3h.8c1 0 1.7-.3 2.3-.8.6-.5.8-1.2.8-2s-.2-1.3-.7-1.8c-.5-.4-1.1-.6-2-.6-.6 0-1.2.1-1.9.3-.1.9-.1 1.9-.1 3V63c0 2.1 0 3.2.1 3.4.1.2.4.3 1 .3h.7v.6c-1 0-1.8-.1-2.4-.1-.5 0-1.4 0-2.7.1v-.6h.7c.5 0 .8-.1.9-.3.1-.2.1-1.4.1-3.5v-4.2c0-1.8-.1-2.8-.2-3s-.5-.3-1.1-.3h-.5V55c1.1 0 1.9.1 2.5.1h3.5c1 0 1.8.1 2.3.3.5.2.9.5 1.2.9.3.4.4.9.4 1.5 0 .8-.3 1.6-.9 2.2-.4.5-1.3.9-2.4 1.1zM311.8 55.8c-.1.9-.1 1.8-.1 2.8v5c0 1.9 0 2.9.1 3.1.1.2.4.3 1 .3h.7v.6c-1 0-1.9-.1-2.6-.1-.7 0-1.6 0-2.6.1V67h.7c.4 0 .6-.1.8-.2.1-.1.2-.3.2-.6.1-.7.1-1.6.1-2.7v-5c0-1 0-1.9-.1-2.7h-.9c-1.4 0-2.2 0-2.4.1-.1.1-.2.3-.3.8l-.1 1.2h-.6v-1c0-.4 0-1-.1-1.8 3.2 0 5 .1 5.6.1l4.9-.1c-.1 1-.2 1.9-.2 2.9h-.6l-.1-1.2c0-.4-.1-.6-.2-.7-.1-.1-.2-.1-.4-.1-.6 0-1.4-.1-2.2-.1h-.6zM321.6 64.8l2-5c.3-.9 1-2.5 1.9-4.9h.5c.3 1.1.8 2.5 1.4 4.1l2.1 6 1.6-5.6c.2-.5.4-1.6.8-3.1 0-.1.1-.2.1-.3 0-.1 0-.2-.1-.2-.1-.1-.3-.1-.7-.1l-.8-.1V55c.8 0 1.5.1 1.9.1.5 0 1.1 0 1.9-.1v.6h-.5c-.2 0-.3 0-.4.1-.2.2-.6 1.4-1.3 3.7-.9 3-1.7 5.8-2.3 8.3h-.9c-.1-.4-.2-.7-.3-.9-.3-.8-.9-2.4-1.8-5l-1.4-4-1.6 4c-1 2.4-1.7 4.3-2.2 5.8h-.9l-.5-2.2c-.1-.6-.3-1.3-.4-2l-1.5-6.6c-.1-.6-.3-1-.4-1.1-.1-.1-.4-.2-.7-.2h-.4V55c.8 0 1.6.1 2.2.1.6 0 1.4 0 2.4-.1v.6h-.6c-.4 0-.7 0-.8.1-.1.1-.2.2-.2.3v.3l.6 2.9 1.3 5.6zM334.8 61.2c0-1.9.6-3.5 1.9-4.7 1.2-1.2 2.9-1.8 5-1.8 2 0 3.6.5 4.8 1.6 1.2 1.1 1.7 2.5 1.7 4.4 0 2-.7 3.6-2 4.9-1.3 1.3-3 2-5.1 2-1.3 0-2.4-.3-3.3-.8-.9-.5-1.6-1.3-2.2-2.3-.5-.9-.8-2-.8-3.3zm1.8-.7c0 1.3.2 2.5.7 3.5.5 1 1.1 1.7 1.8 2.2.8.5 1.6.7 2.6.7.9 0 1.7-.2 2.4-.6.7-.4 1.2-1 1.6-1.9.4-.8.6-1.8.6-3s-.2-2.3-.6-3.2c-.4-.9-1-1.5-1.8-2-.8-.4-1.6-.7-2.7-.7-.9 0-1.7.2-2.4.6-.7.4-1.2 1-1.6 1.7-.4.8-.6 1.7-.6 2.7zM355.5 61.1c.6.8 1.3 1.8 2.1 2.9l1.7 2.2c.3.4.5.6.6.6.1.1.2.1.3.1h.2v.6c-.5 0-.9-.1-1.3-.1-.3 0-.7 0-1.1.1l-3.1-4.2c-.6-.8-1.2-1.5-1.9-2.3l.1-.3h.8c1 0 1.7-.3 2.3-.8.6-.5.8-1.2.8-2s-.2-1.3-.7-1.8c-.5-.4-1.1-.6-2-.6-.6 0-1.2.1-1.9.3-.1.9-.1 1.9-.1 3V63c0 2.1 0 3.2.1 3.4.1.2.4.3 1 .3h.7v.6c-1 0-1.8-.1-2.4-.1-.5 0-1.4 0-2.7.1v-.6h.7c.5 0 .8-.1.9-.3.1-.2.1-1.4.1-3.5v-4.2c0-1.8-.1-2.8-.2-3-.1-.2-.5-.3-1.1-.3h-.5V55c1.1 0 1.9.1 2.5.1h3.5c1 0 1.8.1 2.3.3.5.2.9.5 1.2.9.3.4.4.9.4 1.5 0 .8-.3 1.6-.9 2.2-.4.5-1.3.9-2.4 1.1zM366.1 60.5l6 5.6.5.5c.1.1.2.2.3.2.1 0 .3.1.6.1v.6c-.5 0-.9-.1-1.3-.1s-.8 0-1.2.1l-6.1-5.7c-.2-.2-.3-.3-.4-.3-.1 0-.2.1-.2.3v2.7c0 1.3 0 2 .1 2.1.1.2.4.3 1 .3h.7v.6c-1 0-1.8-.1-2.5-.1-.8 0-1.6 0-2.5.1v-.6h.7c.5 0 .8-.1.8-.3.1-.2.1-.9.1-2.2v-5.9c0-1.6 0-2.5-.1-2.7-.1-.2-.4-.3-.8-.3h-.7V55c1.1 0 1.9.1 2.3.1.3 0 1.3 0 2.7-.1v.6h-.7c-.4 0-.7.1-.8.2s-.2.3-.2.5V61h.1c.5-.4.9-.8 1.2-1.1l1.7-1.7 2.5-2.6V55c.6 0 1.2.1 1.6.1.4 0 .9 0 1.5-.1v.6h-.5c-.4 0-.8.1-1.1.2-.3.2-1 .7-2 1.7l-3.3 3zM382.1 55.6c-.2.6-.3 1.4-.3 2.4h-.6v-.7c0-.5-.1-.8-.2-.9-.1-.2-.4-.3-1-.5-.5-.2-1.1-.3-1.6-.3-.9 0-1.7.2-2.2.7-.5.5-.8 1.1-.8 1.8 0 .5.1.9.3 1.2.2.3.5.6.9.7.4.1 1.2.3 2.4.4 1.2.1 2 .3 2.4.5.4.2.8.5 1 .9.3.4.4.9.4 1.5 0 1.2-.5 2.2-1.5 3-1 .9-2.3 1.3-3.9 1.3-.6 0-1.1-.1-1.7-.2-.6-.1-1.1-.3-1.7-.5.1-.7.2-1.6.1-2.7h.6v.4c0 .6 0 .9.1 1.1.1.1.2.3.4.4.3.2.7.4 1.2.5.4.1.9.2 1.4.2 1.1 0 2-.3 2.6-.8.6-.5.9-1.2.9-2 0-.5-.1-.9-.3-1.2-.2-.3-.5-.6-.9-.7-.4-.2-1.1-.3-2-.4-1.3-.1-2.2-.3-2.7-.5s-.8-.5-1.1-1c-.3-.5-.4-1-.4-1.7 0-1.1.4-2.1 1.2-2.8.8-.7 2-1.1 3.4-1.1.6 0 1.2.1 1.8.2.6.3 1.2.5 1.8.8zM396.1 55.6c-.2.6-.3 1.4-.3 2.4h-.6v-.7c0-.5-.1-.8-.2-.9-.1-.2-.4-.3-1-.5-.5-.2-1.1-.3-1.6-.3-.9 0-1.7.2-2.2.7-.5.5-.8 1.1-.8 1.8 0 .5.1.9.3 1.2.2.3.5.6.9.7.4.1 1.2.3 2.4.4 1.2.1 2 .3 2.4.5.4.2.8.5 1 .9.3.4.4.9.4 1.5 0 1.2-.5 2.2-1.5 3-1 .9-2.3 1.3-3.9 1.3-.6 0-1.1-.1-1.7-.2-.6-.1-1.1-.3-1.7-.5.1-.7.2-1.6.2-2.7h.6v.4c0 .6 0 .9.1 1.1.1.1.2.3.4.4.3.2.7.4 1.2.5.4.1.9.2 1.4.2 1.1 0 2-.3 2.6-.8.6-.5.9-1.2.9-2 0-.5-.1-.9-.3-1.2-.2-.3-.5-.6-.9-.7-.4-.2-1.1-.3-2-.4-1.3-.1-2.2-.3-2.7-.5s-.8-.5-1.1-1c-.3-.5-.4-1-.4-1.7 0-1.1.4-2.1 1.2-2.8.8-.7 2-1.1 3.4-1.1.6 0 1.2.1 1.8.2.5.3 1.1.5 1.7.8zM403.5 55.8c-.1.9-.1 1.8-.1 2.8v5c0 1.9 0 2.9.1 3.1.1.2.4.3 1 .3h.7v.6c-1 0-1.9-.1-2.6-.1-.7 0-1.6 0-2.6.1V67h.7c.4 0 .6-.1.8-.2.1-.1.2-.3.2-.6.1-.7.1-1.6.1-2.7v-5c0-1 0-1.9-.1-2.7h-.9c-1.4 0-2.2 0-2.4.1-.1.1-.2.3-.3.8l-.1 1.2h-.6v-1c0-.4 0-1-.1-1.8 3.2 0 5 .1 5.6.1l4.9-.1c-.1 1-.2 1.9-.2 2.9h-.6l-.1-1.2c0-.4-.1-.6-.2-.7-.1-.1-.2-.1-.4-.1-.6 0-1.4-.1-2.2-.1h-.6zM417.3 63.3h-5.1l-.6 1.4c-.4.9-.6 1.5-.6 1.7 0 .1 0 .2.1.3.1.1.3.1.6.1l.8.1v.6c-.6 0-1.2-.1-1.9-.1-.8 0-1.6 0-2.2.1v-.6h.3c.4 0 .7-.1.8-.1.1-.1.2-.3.4-.5.4-.8.8-1.8 1.3-2.7l2.4-5.5c.6-1.5 1.1-2.5 1.3-3.2h.6l4.4 10.3c.3.7.5 1.1.6 1.3l.3.3c.1.1.4.1.9.1v.6c-.8 0-1.5-.1-2.2-.1-.6 0-1.5 0-2.6.1v-.6l.9-.1c.3 0 .5-.1.6-.1.1-.1.1-.1.1-.2s-.1-.4-.3-.8l-.9-2.4zm-4.7-.8h4.4l-2.2-5.3-2.2 5.3zM425 56.9V63c0 1.4 0 2.3.1 2.9 0 .4.1.7.2.8.1.1.4.2.8.2h.6v.6c-.6 0-1.2-.1-1.7-.1-.4 0-1.2 0-2.5.1v-.6h.6c.4 0 .6-.1.7-.2.1-.1.2-.3.2-.6.1-.6.1-1.5.1-2.6V56.7c0-.3-.1-.6-.1-.7l-.3-.3c-.2-.1-.4-.1-.6-.1h-.5V55c.7 0 1.3.1 1.7.1.4 0 .9 0 1.4-.1.6.7 1.1 1.4 1.6 2.1.5.7 1 1.3 1.6 2l3 3.7c1.1 1.3 1.9 2.2 2.3 2.8V60c0-2.4 0-3.7-.1-3.9-.1-.2-.4-.4-1-.4l-.7-.1V55c.9 0 1.7.1 2.2.1.5 0 1.2 0 2.1-.1v.6h-.7c-.5 0-.9.2-.9.5-.1.2-.1 1.5-.1 3.8v4c0 1.1 0 2.3.1 3.8-.8-.1-1.3-.2-1.4-.3-.1-.1-.3-.1-.4-.3-.7-.7-1.3-1.5-2-2.4l-6.3-7.8zM439 66.6c.1-.9.1-2.5.1-4.8v-2.5c0-1 0-1.9-.1-2.7 0-.4-.1-.7-.2-.8-.1-.1-.3-.1-.7-.2l-.7-.1V55H443.7c.8 0 1.6.1 2.4.2.8.2 1.6.5 2.2 1 .7.5 1.2 1.1 1.5 1.9.3.7.5 1.6.5 2.6 0 2-.7 3.6-2 4.9-1.3 1.3-3.1 1.9-5.2 1.9H442c-1.1 0-1.7-.1-2-.1-.5 0-1.1 0-1.8.1v-.4l.8-.5zm1.9 0c.8.1 1.5.2 2.1.2 1.6 0 2.9-.4 3.8-1.3 1.1-1 1.6-2.5 1.6-4.5 0-1.7-.5-3-1.4-3.9-.9-.9-2.2-1.3-4-1.3-.6 0-1.3.1-2.2.2-.1.6-.1 1.2-.1 1.9v5.7c.1 1 .1 2 .2 3zM460.2 63.3h-5.1l-.6 1.4c-.4.9-.6 1.5-.6 1.7 0 .1 0 .2.1.3.1.1.3.1.6.1l.8.1v.6c-.6 0-1.2-.1-1.9-.1-.8 0-1.6 0-2.2.1v-.6h.3c.4 0 .7-.1.8-.1.1-.1.2-.3.4-.5.4-.8.8-1.8 1.3-2.7l2.4-5.5c.6-1.5 1.1-2.5 1.3-3.2h.6l4.4 10.3c.3.7.5 1.1.6 1.3l.3.3c.1.1.4.1.9.1v.6c-.8 0-1.5-.1-2.2-.1-.6 0-1.5 0-2.6.1v-.6l.9-.1c.3 0 .5-.1.6-.1.1-.1.1-.1.1-.2s-.1-.4-.3-.8l-.9-2.4zm-4.7-.8h4.4l-2.2-5.3-2.2 5.3zM471.9 61.1c.6.8 1.3 1.8 2.1 2.9l1.7 2.2c.3.4.5.6.6.6.1.1.2.1.3.1h.2v.6c-.5 0-.9-.1-1.3-.1-.3 0-.7 0-1.1.1l-3.1-4.2c-.6-.8-1.2-1.5-1.9-2.3l.1-.3h.8c1 0 1.7-.3 2.3-.8.6-.5.8-1.2.8-2s-.2-1.3-.7-1.8c-.5-.4-1.1-.6-2-.6-.6 0-1.2.1-1.9.3-.1.9-.1 1.9-.1 3V63c0 2.1.1 3.2.2 3.4.1.2.4.3 1 .3h.7v.6c-1 0-1.8-.1-2.4-.1-.5 0-1.4 0-2.7.1v-.6h.7c.5 0 .8-.1.9-.3.1-.2.1-1.4.1-3.5v-4.2c0-1.8-.1-2.8-.2-3-.1-.2-.5-.3-1.1-.3h-.5V55c1.1 0 1.9.1 2.5.1h3.5c1 0 1.8.1 2.3.3.5.2.9.5 1.2.9.3.4.4.9.4 1.5 0 .8-.3 1.6-.9 2.2-.5.5-1.3.9-2.5 1.1zM479 66.6c.1-.9.1-2.5.1-4.8v-2.5c0-1 0-1.9-.1-2.7 0-.4-.1-.7-.2-.8-.1-.1-.3-.1-.7-.2l-.7-.1V55H483.7c.8 0 1.6.1 2.4.2.8.2 1.6.5 2.2 1 .7.5 1.2 1.1 1.5 1.9.3.7.5 1.6.5 2.6 0 2-.7 3.6-2 4.9-1.3 1.3-3.1 1.9-5.2 1.9H482c-1.1 0-1.7-.1-2-.1-.5 0-1.1 0-1.8.1v-.4l.8-.5zm1.9 0c.8.1 1.5.2 2.1.2 1.6 0 2.9-.4 3.8-1.3 1.1-1 1.6-2.5 1.6-4.5 0-1.7-.5-3-1.4-3.9-.9-.9-2.2-1.3-4-1.3-.6 0-1.3.1-2.2.2-.1.6-.1 1.2-.1 1.9v5.7c.1 1 .1 2 .2 3zM499.4 55.6c-.2.6-.3 1.4-.3 2.4h-.6v-.7c0-.5-.1-.8-.2-.9-.1-.2-.4-.3-1-.5-.5-.2-1.1-.3-1.6-.3-.9 0-1.7.2-2.2.7-.5.5-.8 1.1-.8 1.8 0 .5.1.9.3 1.2.2.3.5.6.9.7.4.1 1.2.3 2.4.4 1.2.1 2 .3 2.4.5.4.2.8.5 1 .9.3.4.4.9.4 1.5 0 1.2-.5 2.2-1.5 3-1 .9-2.3 1.3-3.9 1.3-.6 0-1.1-.1-1.7-.2-.6-.1-1.1-.3-1.7-.5.1-.7.2-1.6.2-2.7h.6v.4c0 .6 0 .9.1 1.1.1.1.2.3.4.4.3.2.7.4 1.2.5.4.1.9.2 1.4.2 1.1 0 2-.3 2.6-.8.6-.5.9-1.2.9-2 0-.5-.1-.9-.3-1.2-.2-.3-.5-.6-.9-.7-.4-.2-1.1-.3-2-.4-1.3-.1-2.2-.3-2.7-.5s-.8-.5-1.1-1c-.3-.5-.4-1-.4-1.7 0-1.1.4-2.1 1.2-2.8.8-.7 2-1.1 3.4-1.1.6 0 1.2.1 1.8.2.5.3 1.1.5 1.7.8z"/></g><g><path class="st0" d="M198.3 228.9h-20c-2.1 0-4.1.4-5.8 1.2-1.7.8-3.2 2.2-4.4 4.3h2c.7-1 1.5-1.8 2.5-2.5 3.7-2.5 8.7-1.5 10.6 1.5.2.3.3.6.4 1H196.4l-1.3 3.8c-1.9 5.4-4.7 9.6-8.4 12.7-3.7 3.1-8.3 4.6-13.7 4.6h-2.7l-.2.7h6c6.4 0 11.9-2 16.4-6 4.5-4 8-9.5 10.5-16.5l1.7-4.8h-6.4z"/><path d="m181.7 234.6-1.7 1.5c-.8-1.1-1.8-1.7-3-1.7-1 0-1.9.4-2.8 1.1-.8.8-1.3 1.7-1.5 2.8-.1.8-.1 1.5.1 2.1.2.6.6 1.1 1.1 1.4.5.3 1.1.5 1.8.5.6 0 1.1-.1 1.7-.4.5-.2 1.1-.7 1.8-1.3l1.1 1.6c-.9.8-1.8 1.4-2.5 1.7-.8.3-1.6.5-2.5.5-1.7 0-2.9-.6-3.8-1.7-.9-1.1-1.1-2.6-.8-4.4.2-1.2.6-2.2 1.3-3.1.6-.9 1.4-1.6 2.4-2.2 1-.5 2-.8 3-.8.9 0 1.7.2 2.4.6.8.5 1.4 1.1 1.9 1.8zM232.3 226.7c-1.6 0-3 .3-4.2.8-1.2.5-2.1 1.6-2.8 3h21.2l-.6 3.2c-.7 4-2.2 7.2-4.6 9.4-2.4 2.3-5.5 3.4-9.6 3.4h-16.4l1.1-6h15c1.6 0 3-.3 4.2-.9 1.2-.6 2.1-1.7 2.8-3.2h-21.2l.5-2.9c.7-4 2.2-7.2 4.6-9.4 2.4-2.3 5.5-3.4 9.6-3.4h16.4l-1.1 6h-14.9zM267.6 226.5l-3.5 20h-6.7l3.5-20h-9.2l1-5.8H278l-1 5.8h-9.4zM318.7 233.5c-.3 1.5-.4 2.7-.3 3.7 0 1 .3 1.7.7 2.3.4.6 1 1 1.8 1.2.8.2 1.8.3 3.1.3h8.1l.8-4.2h-5.2l1.1-6.1h12.1l-2.8 15.9h-16.6c-1.7 0-3.2-.2-4.6-.7-1.3-.5-2.4-1.2-3.3-2.2-.8-1-1.4-2.4-1.7-4-.3-1.6-.2-3.7.2-6.1.7-4 2.2-7.2 4.6-9.4 2.4-2.3 5.6-3.4 9.6-3.4h16.3l-1.1 6h-14.9c-1 0-1.9.1-2.7.3-.8.2-1.6.6-2.2 1.1-.6.5-1.2 1.2-1.7 2.1-.7.8-1.1 1.9-1.3 3.2zM367.8 246.6h-15.6c-1.8 0-3.3-.3-4.5-.9-1.2-.6-2.1-1.5-2.7-2.6-.6-1.1-.9-2.5-1-4.1-.1-1.6.1-3.4.4-5.5.7-4 2-7.2 4-9.4 2-2.3 4.6-3.4 7.8-3.4h16l-1 5.8h-13.7c-.9 0-1.7.1-2.4.3-.7.2-1.2.5-1.7.9s-.8.8-1.1 1.3c-.3.5-.5 1.1-.6 1.7h18.7l-1 5.9h-18.7c-.3 2.7 1.1 4.1 4.3 4.1h13.7l-.9 5.9zM389.2 226.6c-1.6 0-3 .3-4.2.8-1.2.5-2.1 1.5-2.8 3h21.2l-.6 3.2c-.7 4-2.2 7.2-4.6 9.4-2.4 2.3-5.5 3.4-9.6 3.4h-16.4l1.1-6h15c1.6 0 3-.3 4.2-.9 1.2-.6 2.1-1.7 2.7-3.2H374l.5-2.9c.7-4 2.2-7.2 4.6-9.4 2.3-2.3 5.5-3.4 9.6-3.4h16.4l-1.1 6h-14.8zM292.5 220.7c-1.2 0-2.4.3-3.6.8-1.4.5-2.6 1.3-3.6 2.4l-.3.3c-1 1-1.9 2.2-2.6 3.4-.7 1.3-1.2 2.6-1.4 3.9l-2.8 15.1h6.7l.8-4.4 1.1-5.4h13.7l-1 5.4-.8 4.4h6.8l4.9-25.8h-17.9zm-3.6 8.4c.1-.3.3-.5.5-.7l.4-.4c.4-.3.8-.6 1.2-.8.2-.1.5-.2.7-.3.7-.2 1.5-.3 2.4-.3h8l-.8 4.2h-13c.1-.6.4-1.2.6-1.7zM221.8 250.5l-1.2 1c-.6-.8-1.3-1.1-2.2-1.1-.8 0-1.4.3-2 .8-.6.5-1 1.1-1.1 1.9-.1.5-.1 1 .1 1.4.2.4.4.7.8 1 .4.2.8.3 1.3.3.4 0 .8-.1 1.2-.2.4-.2.8-.5 1.3-.9l.8 1.1c-.7.6-1.3 1-1.9 1.2-.6.2-1.2.3-1.8.3-1.2 0-2.1-.4-2.8-1.2-.6-.8-.9-1.8-.6-3 .1-.8.4-1.5.9-2.1.5-.6 1.1-1.1 1.8-1.5.7-.4 1.5-.6 2.2-.6.6 0 1.2.1 1.8.4.6.3 1.1.6 1.4 1.2zM244.7 248.9h1.6l1 2.8 2-2.8h1.6l-3.1 4.5-.6 3.4h-1.5l.6-3.4-1.6-4.5zM280.8 250.5l-1.2 1c-.6-.8-1.3-1.1-2.2-1.1-.8 0-1.4.3-2 .8-.6.5-1 1.1-1.1 1.9-.1.5-.1 1 .1 1.4.2.4.4.7.8 1 .4.2.8.3 1.3.3.4 0 .8-.1 1.2-.2.4-.2.8-.5 1.3-.9l.8 1.1c-.7.6-1.3 1-1.8 1.2-.6.2-1.2.3-1.8.3-1.2 0-2.2-.4-2.8-1.2-.6-.8-.9-1.8-.6-3 .1-.8.4-1.5.9-2.1.5-.6 1.1-1.1 1.8-1.5.7-.4 1.5-.6 2.2-.6.6 0 1.2.1 1.8.4.5.3.9.6 1.3 1.2zM304.9 248.9h1.5l-1.1 6.4h2.2l-.3 1.4h-3.7l1.4-7.8zM335.4 248.9h1.5l-1.4 7.9H334l1.4-7.9zM362.5 248.9h1.4l2.4 5.2.9-5.2h1.5l-1.4 7.9h-1.4l-2.5-5.2-.9 5.2H361l1.5-7.9zM398.3 250.3l-1.2 1c-.5-.7-1.3-1.1-2.1-1.1s-1.5.3-2.1.8c-.6.5-1 1.1-1.1 1.9-.1.8 0 1.4.5 1.9.4.5 1.1.8 1.9.8.5 0 1-.1 1.4-.3.4-.2.7-.6 1-1h-2.3l.2-1.4h3.9v.3c-.1.7-.4 1.3-.9 2-.5.6-1 1.1-1.6 1.4-.6.3-1.3.5-2.1.5s-1.5-.2-2.1-.5c-.6-.4-1-.9-1.3-1.5-.3-.7-.3-1.4-.2-2.1.2-1 .7-1.9 1.5-2.7 1-.9 2.1-1.4 3.4-1.4.7 0 1.3.1 1.9.4.5.2.9.5 1.3 1z"/><path class="st0" d="M154.2 247.5h20c2.1 0 4.1-.4 5.8-1.2 1.7-.8 3.2-2.2 4.4-4.3h-2c-.7 1-1.5 1.8-2.5 2.5-3.7 2.5-8.7 1.5-10.6-1.5-.2-.3-.3-.6-.4-1H156l1.4-3.8c1.9-5.4 4.7-9.6 8.4-12.7 3.7-3.1 8.3-4.6 13.7-4.6h2.7l.2-.7h-6c-6.4 0-11.9 2-16.4 6-4.5 4-8 9.5-10.5 16.5l-1.7 4.8h6.4z"/></g><g><path d="M407.7 220.5c.3 0 .5.1.8.2.2.1.4.3.6.6.1.3.2.5.2.8 0 .3-.1.6-.2.8-.1.3-.3.5-.6.6-.2.1-.5.2-.8.2-.3 0-.5-.1-.8-.2-.2-.1-.4-.3-.6-.6-.1-.3-.2-.5-.2-.8 0-.3.1-.6.2-.8.1-.3.3-.5.6-.6.3-.1.5-.2.8-.2zm0 .2c-.2 0-.5.1-.7.2-.2.1-.4.3-.5.5-.1.2-.2.5-.2.7 0 .3.1.5.2.7.1.2.3.4.5.5.2.1.4.2.7.2.2 0 .5-.1.7-.2.2-.1.4-.3.5-.5.1-.2.2-.5.2-.7 0-.3-.1-.5-.2-.7-.1-.2-.3-.4-.5-.5-.2-.1-.5-.2-.7-.2zm-.8.6v-.1h.8c.2 0 .4 0 .5.1.1.1.2.2.2.3 0 .1 0 .2-.1.3-.1.1-.2.1-.3.2.1.1.2.2.3.4.1.2.1.3.2.3 0 0 .1.1.2.1v.1h-.2c-.1 0-.1 0-.2-.1 0 0-.1-.2-.2-.3-.1-.2-.1-.3-.2-.4 0 0-.1-.1-.2-.1h-.1v.6h.2v.1h-.8v-.1h.2V221.2c-.1.1-.1.1-.3.1zm.5.7c.3 0 .5 0 .5-.1.1-.1.1-.2.1-.3 0-.1 0-.2-.1-.3-.1-.1-.2-.1-.4-.1h-.2V222z"/></g><g><path class="st1" d="M201.3 479.4h-20c-2.1 0-4.1.4-5.8 1.2-1.7.8-3.2 2.2-4.4 4.3h2c.7-.9 1.5-1.8 2.5-2.5 3.7-2.5 8.7-1.5 10.6 1.5.2.3.3.6.4 1H199.4l-1.3 3.8c-1.9 5.4-4.7 9.6-8.4 12.7-3.7 3.1-8.3 4.6-13.7 4.6h-2.7l-.2.7h6c6.4 0 11.9-2 16.4-6 4.5-4 8-9.5 10.5-16.5l1.7-4.8h-6.4z"/><path d="m184.6 485.1-1.7 1.5c-.8-1.1-1.8-1.7-3-1.7-1 0-1.9.4-2.8 1.1-.8.8-1.3 1.7-1.5 2.8-.1.8-.1 1.5.1 2.1.2.6.6 1.1 1.1 1.4.5.3 1.1.5 1.8.5.6 0 1.1-.1 1.7-.4.5-.2 1.1-.7 1.8-1.3l1.1 1.6c-.9.8-1.8 1.4-2.5 1.7-.8.3-1.6.5-2.5.5-1.7 0-2.9-.6-3.8-1.7-.9-1.1-1.1-2.6-.8-4.4.2-1.2.6-2.2 1.3-3.1.6-.9 1.4-1.6 2.4-2.2 1-.5 2-.8 3-.8.9 0 1.7.2 2.4.6.9.5 1.5 1.1 1.9 1.8zM235.2 477.2c-1.6 0-3 .3-4.2.8-1.2.5-2.1 1.5-2.8 3h21.2l-.6 3.2c-.7 4-2.2 7.2-4.6 9.4-2.4 2.3-5.5 3.4-9.6 3.4h-16.4l1.1-6h15c1.6 0 3-.3 4.2-.9 1.2-.6 2.1-1.7 2.8-3.2h-21.2l.5-2.9c.7-4 2.2-7.2 4.6-9.4 2.4-2.3 5.5-3.4 9.6-3.4h16.4l-1.1 6h-14.9zM270.5 477l-3.5 20h-6.7l3.5-20h-9.2l1-5.8H281l-1 5.8h-9.5zM321.6 484.1c-.3 1.5-.4 2.7-.3 3.7 0 1 .3 1.7.7 2.3.4.6 1 1 1.8 1.2.8.2 1.8.3 3.1.3h8.1l.8-4.2h-5.2l1.1-6.1h12.1l-2.8 15.9h-16.6c-1.7 0-3.2-.2-4.6-.7-1.3-.4-2.4-1.2-3.3-2.2-.8-1-1.4-2.4-1.7-4-.3-1.6-.2-3.7.2-6.1.7-4 2.2-7.2 4.6-9.4 2.4-2.3 5.6-3.4 9.6-3.4h16.3l-1.1 6h-14.9c-1 0-1.9.1-2.7.3-.8.2-1.6.6-2.2 1.1-.6.5-1.2 1.2-1.7 2.1-.7.7-1 1.8-1.3 3.2zM370.8 497.1h-15.6c-1.8 0-3.3-.3-4.5-.9-1.2-.6-2.1-1.4-2.7-2.6-.6-1.1-.9-2.5-1-4.1-.1-1.6.1-3.4.4-5.5.7-4 2-7.2 4-9.4 2-2.3 4.6-3.4 7.8-3.4h16l-1 5.8h-13.7c-.9 0-1.7.1-2.4.3-.7.2-1.2.5-1.7.9s-.8.8-1.1 1.3c-.3.5-.5 1.1-.6 1.7h18.7l-1 5.9h-18.7c-.3 2.7 1.1 4.1 4.3 4.1h13.7l-.9 5.9zM392.1 477.1c-1.6 0-3 .3-4.2.8-1.2.5-2.1 1.5-2.8 3h21.2l-.6 3.2c-.7 4-2.2 7.2-4.6 9.4-2.4 2.3-5.5 3.4-9.6 3.4h-16.4l1.1-6h15c1.6 0 3-.3 4.2-.9 1.2-.6 2.1-1.7 2.7-3.2H377l.5-2.9c.7-4 2.2-7.2 4.6-9.4 2.3-2.3 5.5-3.4 9.6-3.4h16.4l-1.1 6h-14.9zM295.4 471.2c-1.2 0-2.4.3-3.6.8-1.4.5-2.6 1.3-3.6 2.4l-.3.3c-1 1-1.9 2.2-2.6 3.4-.7 1.3-1.2 2.6-1.4 3.9l-2.8 15.1h6.7l.8-4.4 1.1-5.4h13.7l-1 5.4-.8 4.4h6.9l4.9-25.8h-18zm-3.5 8.4c.1-.3.3-.5.5-.7l.4-.4c.4-.3.8-.6 1.2-.8.2-.1.5-.2.7-.3.7-.2 1.5-.3 2.4-.3h8l-.8 4.2h-13c.1-.6.3-1.2.6-1.7zM224.8 501l-1.2 1c-.6-.8-1.3-1.1-2.2-1.1-.8 0-1.4.3-2 .8-.6.5-1 1.1-1.1 1.9-.1.5-.1 1 .1 1.4.2.4.4.7.8 1 .4.2.8.3 1.3.3.4 0 .8-.1 1.2-.2.4-.2.8-.5 1.3-.9l.8 1.1c-.7.6-1.3 1-1.9 1.2-.6.2-1.2.3-1.8.3-1.2 0-2.1-.4-2.8-1.2-.6-.8-.9-1.8-.6-3 .1-.8.4-1.5.9-2.1.5-.6 1.1-1.1 1.8-1.5.7-.4 1.5-.6 2.2-.6.6 0 1.2.1 1.8.4.6.3 1.1.7 1.4 1.2zM247.7 499.4h1.6l1 2.8 2-2.8h1.6l-3.1 4.5-.6 3.4h-1.5l.6-3.4-1.6-4.5zM283.7 501l-1.2 1c-.6-.8-1.3-1.1-2.2-1.1-.8 0-1.4.3-2 .8-.6.5-1 1.1-1.1 1.9-.1.5-.1 1 .1 1.4.2.4.4.7.8 1 .4.2.8.3 1.3.3.4 0 .8-.1 1.2-.2.4-.2.8-.5 1.3-.9l.8 1.1c-.7.6-1.3 1-1.8 1.2-.6.2-1.2.3-1.8.3-1.2 0-2.2-.4-2.8-1.2-.6-.8-.9-1.8-.6-3 .1-.8.4-1.5.9-2.1.5-.6 1.1-1.1 1.8-1.5.7-.4 1.5-.6 2.2-.6.6 0 1.3.1 1.8.4.5.3 1 .7 1.3 1.2zM307.8 499.4h1.5l-1.1 6.4h2.2l-.3 1.4h-3.7l1.4-7.8zM338.4 499.4h1.5l-1.4 7.9H337l1.4-7.9zM365.4 499.4h1.4l2.4 5.2.9-5.2h1.5l-1.4 7.9h-1.4l-2.5-5.2-.9 5.2H364l1.4-7.9zM401.3 500.9l-1.2 1c-.5-.7-1.3-1.1-2.1-1.1s-1.5.3-2.1.8c-.6.5-1 1.1-1.1 1.9-.1.8 0 1.4.5 1.9.4.5 1.1.8 1.9.8.5 0 1-.1 1.4-.3.4-.2.7-.6 1-1h-2.3l.2-1.4h3.9v.3c-.1.7-.4 1.3-.9 2-.5.6-1 1.1-1.6 1.4-.6.3-1.3.5-2.1.5s-1.5-.2-2.1-.5c-.6-.4-1-.9-1.2-1.5-.3-.7-.3-1.4-.2-2.1.2-1 .7-1.9 1.5-2.7 1-.9 2.1-1.4 3.4-1.4.7 0 1.3.1 1.9.4.4.1.8.4 1.2 1z"/><path class="st1" d="M157.2 498.1h20c2.1 0 4.1-.4 5.8-1.2 1.7-.8 3.2-2.2 4.4-4.3h-2c-.7 1-1.5 1.8-2.5 2.5-3.7 2.5-8.7 1.5-10.6-1.5-.2-.3-.3-.6-.4-1H159l1.4-3.8c1.9-5.4 4.7-9.6 8.4-12.7 3.7-3.1 8.3-4.6 13.7-4.6h2.7l.2-.7h-6c-6.4 0-11.9 2-16.4 6-4.5 4-8 9.5-10.5 16.5l-1.7 4.8h6.4z"/><path d="M410.6 471.1c.3 0 .5.1.8.2.2.1.4.3.6.6.1.3.2.5.2.8 0 .3-.1.6-.2.8-.1.3-.3.4-.6.6-.2.1-.5.2-.8.2-.3 0-.5-.1-.8-.2-.2-.1-.4-.3-.6-.6-.1-.3-.2-.5-.2-.8 0-.3.1-.6.2-.8.1-.3.3-.5.6-.6.3-.1.5-.2.8-.2zm0 .3c-.2 0-.5.1-.7.2-.2.1-.4.3-.5.5-.1.2-.2.5-.2.7 0 .3.1.5.2.7.1.2.3.4.5.5.2.1.4.2.7.2.2 0 .5-.1.7-.2.2-.1.4-.3.5-.5.1-.2.2-.4.2-.7 0-.3-.1-.5-.2-.7-.1-.2-.3-.4-.5-.5-.2-.2-.4-.2-.7-.2zm-.7.5v-.1h.8c.2 0 .4 0 .5.1.1.1.2.2.2.3 0 .1 0 .2-.1.3-.1.1-.2.1-.3.2.1.1.2.2.3.4.1.2.1.3.2.3 0 0 .1.1.2 0v.1h-.2c-.1 0-.1 0-.2-.1 0 0-.1-.2-.2-.3-.1-.2-.1-.3-.2-.4 0 0-.1-.1-.2-.1h-.1v.6h.2v.1h-.7v-.1h.2V471.9h-.4zm.4.7c.3 0 .5 0 .5-.1.1-.1.1-.2.1-.3 0-.1 0-.2-.1-.3-.1-.1-.2-.1-.4-.1h-.2V472.6z"/><g><path d="M210 479.4c.3 0 .5.1.8.2.2.1.4.3.6.6.1.3.2.5.2.8 0 .3-.1.6-.2.8-.1.3-.3.4-.6.6-.2.1-.5.2-.8.2-.3 0-.5-.1-.8-.2-.2-.1-.4-.3-.6-.6-.1-.3-.2-.5-.2-.8 0-.3.1-.6.2-.8.1-.3.3-.5.6-.6.2-.2.5-.2.8-.2zm0 .2c-.2 0-.5.1-.7.2s-.4.3-.5.5c-.1.2-.2.5-.2.7s.1.5.2.7c.1.2.3.4.5.5.2.1.4.2.7.2.2 0 .5-.1.7-.2.2-.1.4-.3.5-.5.1-.2.2-.4.2-.7s-.1-.5-.2-.7c-.1-.2-.3-.4-.5-.5-.3-.1-.5-.2-.7-.2zm-.8.5v-.1h.8c.2 0 .4 0 .5.1.1.1.2.2.2.3 0 .1 0 .2-.1.3-.1.1-.2.1-.3.2.1.1.2.2.3.4.1.2.1.3.2.3 0 0 .1.1.2 0v.1h-.2c-.1 0-.1 0-.2-.1 0 0-.1-.2-.2-.3-.1-.2-.1-.3-.2-.4 0 0-.1-.1-.2-.1h-.1v.6h.2v.1h-.7v-.1h.2V479.9c-.2.2-.2.2-.4.2zm.5.8c.3 0 .5 0 .5-.1s.1-.2.1-.3c0-.1 0-.2-.1-.3-.1-.1-.2-.1-.4-.1h-.2V480.9z"/></g></g><g><path class="st0" d="M206.4 228.8c.2 0 .4.1.6.2.2.1.4.3.5.5.1.2.2.4.2.7 0 .2-.1.5-.2.7-.1.2-.3.4-.5.5-.2.1-.4.2-.6.2-.2 0-.4-.1-.6-.2-.2-.1-.4-.3-.5-.5-.1-.2-.2-.4-.2-.7 0-.2.1-.5.2-.7.1-.2.3-.4.5-.5.1-.2.3-.2.6-.2zm0 .2c-.2 0-.4.1-.5.2-.2.1-.3.2-.4.4-.1.2-.1.4-.1.6 0 .2 0 .4.1.6.1.2.2.3.4.4.2.1.4.2.5.2.2 0 .4-.1.5-.2.2-.1.3-.2.4-.4.1-.2.1-.4.1-.6 0-.2 0-.4-.1-.6-.1-.2-.2-.3-.4-.4-.2-.2-.3-.2-.5-.2zm-.6.4v-.1h.6c.2 0 .3 0 .4.1.1.1.1.2.1.3 0 .1 0 .2-.1.2-.1.1-.1.1-.3.1.1 0 .1.1.2.3.1.2.1.3.1.3h.2v.1h-.2c-.1 0-.1 0-.2-.1 0 0-.1-.1-.1-.3-.1-.2-.1-.3-.1-.3H206.1v.5h.2v.1h-.6v-.1h.2V229.2c0 .2-.1.2-.1.2zm.3.6c.2 0 .4 0 .4-.1.1-.1.1-.1.1-.2s0-.2-.1-.2-.2-.1-.3-.1h-.1v.6z"/></g><g><path class="st0" d="M322.4 294.2c.2 0 .4.1.6.2.2.1.4.3.5.5.1.2.2.4.2.7 0 .2-.1.5-.2.7-.1.2-.3.4-.5.5-.2.1-.4.2-.6.2s-.4-.1-.6-.2c-.2-.1-.4-.3-.5-.5-.1-.2-.2-.4-.2-.7 0-.2.1-.5.2-.7.1-.2.3-.4.5-.5.2-.2.4-.2.6-.2zm0 .2c-.2 0-.4.1-.5.2-.2.1-.3.2-.4.4-.1.2-.1.4-.1.6 0 .2 0 .4.1.6.1.2.2.3.4.4.2.1.4.2.5.2.2 0 .4-.1.5-.2.2-.1.3-.2.4-.4.1-.2.1-.4.1-.6 0-.2 0-.4-.1-.6-.1-.2-.2-.3-.4-.4-.1-.2-.3-.2-.5-.2zm-.6.4v-.1h.6c.2 0 .3 0 .4.1.1.1.1.2.1.3 0 .1 0 .2-.1.2-.1.1-.1.1-.3.1.1 0 .1.1.2.3.1.2.1.3.1.3h.2v.1h-.2c-.1 0-.1 0-.2-.1 0 0-.1-.1-.1-.3-.1-.2-.1-.3-.1-.3H322.1v.5h.2v.1h-.6v-.1h.2V294.6c0 .2 0 .2-.1.2zm.4.6c.2 0 .4 0 .4-.1.1-.1.1-.1.1-.2s0-.2-.1-.2-.2-.1-.3-.1h-.1v.6z"/></g></svg>