<svg version="1.1" id="Layer_1" xmlns="http://www.w3.org/2000/svg" x="0" y="0" width="611.4" height="106.1" style="enable-background:new 0 0 611.4 106.1" xml:space="preserve"><style>.st1{fill:#000000}</style><path style="fill:none" d="M1 0h611.4v106.1H1z"/><path class="st1" d="M184.1 24.8h12.2v10.7h9.6V44h-9.6v20.9c0 3.7 2.2 6.3 5.9 6.3 2 0 3.1-.2 3.5-.3v7.4c-.6.2-4 1.3-8.5 1.3-10 0-13.1-6.4-13.1-14.5V24.8m113.2 10.7H285v42.8h12.3V52.5c0-5.1 2.7-8.5 7.6-8.5 5.5 0 7.7 4.1 7.7 8.5v25.7H325V49.7c0-8.8-4.9-15.4-15.3-15.4-8.5 0-11.4 5.1-12.3 6.5h-.2v-5.3zm-16.5-1.3c-11.1 0-13.7 6.3-14.6 8.2h-.2v-6.9h-11v42.8h12.3V57c0-9.2 6.1-13 13.5-13v-9.8zM170 47.5l7.9-5.3c-1-1.7-5.2-8-17.5-8-9.2 0-16.8 4.7-16.8 13 0 7.8 5.6 11.5 11.8 13.4 1.9.6 3.7 1.1 5.3 1.6 3.3 1.1 5.9 2 5.9 4.5 0 2.3-2.5 3.9-7 3.9-5.8 0-8.4-3.5-9.4-5l-8.3 4.6c.8 2 5.3 9.1 18.4 9.1 10 0 18.5-4.2 18.5-13.6 0-7.8-5.6-11.5-12.1-13.5-1.7-.5-3.3-1-4.8-1.5-3-.9-6.1-1.7-6.1-4.6 0-2.1 2-3.4 5.6-3.4 5.8.3 7.8 3.6 8.6 4.8zM88.7 16.7 77.6 60.6 66.4 16.7H51L39.5 61.8 28 16.7H15l15.9 61.5h16.3l11.1-43.6 11.1 43.6h15.4l15.9-61.5h-12zm39.6 48.5c-.6 1.1-2.7 5.5-9.4 5.5-5.4 0-9.2-4.2-9.6-10.1h30.2v-3.8c0-11.2-6.7-22.7-21.2-22.7-13 0-21.3 9.8-21.3 22.7 0 12.7 8.1 22.7 21.8 22.7 12 0 16.6-7.1 17.7-9.5l-8.2-4.8zm-10-22.2c5.5 0 8.5 3.9 8.9 9.1h-17.9c.5-4.8 3.2-9.1 9-9.1zm119.8 22.2c-.6 1.1-2.7 5.5-9.4 5.5-5.4 0-9.2-4.2-9.6-10.1h30.2v-3.8c0-11.2-6.7-22.7-21.2-22.7-13 0-21.3 9.8-21.3 22.7 0 12.7 8.1 22.7 21.8 22.7 12 0 16.6-7.1 17.7-9.5l-8.2-4.8zM228.2 43c5.5 0 8.5 3.9 8.9 9.1h-17.9c.5-4.8 3.1-9.1 9-9.1zM496.4 24.8h12.2v10.7h9.6V44h-9.6v20.9c0 3.7 2.2 6.3 5.9 6.3 2 0 3.1-.2 3.5-.3v7.4c-.6.2-4 1.3-8.5 1.3-10 0-13.1-6.4-13.1-14.5V24.8m-147.8-8.1h21c19.1 0 31.1 9.4 31.1 30.7 0 21.4-11.6 30.7-31.1 30.7h-21V16.7zM361.8 68h7c16 0 18.3-10.7 18.3-20.5S384.6 27 368.8 27h-7v41zm205.8-51.3h12.6v61.5h-12.6V16.7zM587 74.2c0-2.9 2.4-5.3 5.3-5.3s5.3 2.4 5.3 5.3-2.4 5.3-5.3 5.3-5.3-2.3-5.3-5.3zm9.7 0c0-2.4-1.9-4.4-4.4-4.4-2.4 0-4.4 2-4.4 4.4 0 2.4 2 4.4 4.4 4.4 2.5 0 4.4-2 4.4-4.4zm-5.3.4v2.6h-1.1V71h1.9c1.2 0 2.2.5 2.2 1.7 0 .9-.6 1.3-1.2 1.5.6.1.9.5 1 1.2.1.6.2 1.8.2 1.8h-1s-.1-.7-.1-1.1c-.1-1.1-.5-1.5-1.3-1.5h-.6zm.9-.8c.8 0 1.1-.5 1.1-.9 0-.5-.3-.9-1.1-.9h-.9v1.9h.9zM455.2 35.5v4.6h-.2c-.7-1.3-3.8-5.9-11.7-5.9-13.1 0-17.9 10.7-17.9 21.6 0 10.9 4.8 21.6 17.9 21.6 8.1 0 11.1-4.7 11.7-5.9h.2v4.9c0 5.9-4.2 9.6-9.1 9.6-5.6 0-8.5-3.7-9.3-5.2-1.1.6-8.3 4.8-8.3 4.8.9 1.8 4.6 9.5 18 9.5 14.2 0 20.9-9 20.9-21.7V35.5h-12.2zM447 68.2c-7 0-8.3-6.8-8.3-12.4 0-6.3 1.8-12.4 8.3-12.4 6.5 0 8.3 6.1 8.3 12.4-.1 5.5-1.5 12.4-8.3 12.4zm75-26.4c1.2-1.5 5.5-7.6 16.8-7.6 10.6 0 20.4 4.7 20.4 16.9v27.1h-12v-4.3h-.2c-.6.9-3.6 5.6-12.2 5.6-8 0-14-5.5-14-13.9 0-9.8 8.1-14.4 20.6-14.4h5.4v-1c0-4.6-3.4-7.3-9-7.3-4.9 0-7.6 2.7-8.8 4.3l-7-5.4zm11.1 23.1c0 3.6 2.6 5.8 6.2 5.8 5.3 0 7.5-4.4 7.5-9.5v-2.6h-4.9c-6.4.1-8.8 2.7-8.8 6.3zm-126-29.4h12.6v42.8h-12.6V35.5zm6.3-19.8c-3.8 0-6.9 3.1-6.9 6.9 0 3.8 3.1 6.9 6.9 6.9s6.9-3.1 6.9-6.9c0-3.8-3.1-6.9-6.9-6.9zm62.4 19.8h12.6v42.8h-12.6V35.5zm6.3-19.8c-3.8 0-6.9 3.1-6.9 6.9 0 3.8 3.1 6.9 6.9 6.9 3.8 0 6.9-3.1 6.9-6.9 0-3.8-3.1-6.9-6.9-6.9z"/></svg>