<svg version="1.1" id="Layer_1" xmlns="http://www.w3.org/2000/svg" x="0" y="0" width="1000" height="346.8" style="enable-background:new 0 0 1000 346.8" xml:space="preserve"><style>.st0{fill:#0a2240}</style><path class="st0" d="M451.8 21h3.6v222.5h-3.6zM22.9 124.3v-3.1c7.8-1.7 10.7-7.3 11.6-15.8H39v14.4h11.4v4.6H38.9v26.4c0 6.3 1.7 9.6 5.9 9.6 2.4 0 5.5-1.7 8.5-4.6l2.2 2.2c-3.7 4.4-9.4 7.6-13.7 7.6-7.2 0-12.1-4.6-12.1-14.8v-26.4h-6.8zM107.6 139.4c-12.4 2.9-18 7.2-18 13 0 4.2 2.9 6.6 6.1 6.6 2.7 0 5.9-.9 11.9-6.2v-13.4zm9.1 25.3c-5.1 0-8.2-2.9-8.9-7.6-6.4 5.8-11.1 7.8-16.3 7.8-6.4 0-11.8-4.1-11.8-10.9 0-11.1 12.9-16 27.8-18.6 0-9.8-1.3-13.7-8.7-13.7-3 0-7.4 2.1-7.4 6.3 0 2.6-2 4.6-4.4 4.6-2.6 0-4.6-2-4.6-4.6 0-6.3 8.2-10.5 16.6-10.5 12.7 0 17.9 5.4 17.9 17.8V155c0 3.3 1 5.1 3 5.1 1.3 0 2.7-1 3.7-1.9l1.8 2.5c-2.6 2.5-5.8 4-8.7 4M159.2 178.9l6.5-16.3-15-32.5c-2.6-5.8-4.6-7.7-8.7-7.7v-2.6h23.1v2.6c-5.7 0-7.2 1.3-4.1 7.7l9.5 20.9 8.4-20.9c2.5-5.9 1.6-7.7-3.8-7.7v-2.6h18.3v2.6c-4.1 0-6.9 2-9.3 7.7l-25.5 63.6c-1 2.6-2.8 4.8-4.8 4.8-1.8 0-4.3-1.1-4.3-4.3-.1-5.1 5.8-5.1 9.7-15.3M212.6 163.2v-2.7c8.8 0 10.3-2.2 10.3-15.3v-41.3c0-13.1-1.6-15.3-10.3-15.3v-2.7l19.6-3.3v62.6c0 13.1 1.7 15.3 10.3 15.3v2.7h-29.9zM294.9 122.4c-10.7 0-15.8 8.5-15.8 19s5.1 19 15.8 19c10.8 0 15.8-8.5 15.8-19s-5-19-15.8-19m0 43c-14.5 0-26.4-10.8-26.4-24.1 0-13.2 11.9-23.9 26.4-23.9 14.5 0 26.4 10.7 26.4 23.9 0 13.3-11.9 24.1-26.4 24.1M389.2 131.7c-2.5 0-4.6-2.2-4.6-4.7 0-2.8-1.6-4.3-4.2-4.3-3 0-10.1 4.8-10.1 15.3v7.2c0 13.1 1.6 15.3 10.3 15.3v2.7h-29.9v-2.7c8.7 0 10.4-2.2 10.4-15.3v-6.5c0-13.1-1.7-15.2-10.4-15.2v-2.7l17.4-3.3c.6 1.3 1.8 6.7 2.2 9.4 2.6-5.2 8.5-9.4 13.7-9.4 7.2 0 10.3 4.8 10.3 8.1.1 2.8-1 6.1-5.1 6.1M548.3 133.3c1.4-4.2-.8-10.6-9.4-10.6-5.6 0-10.5 4.2-12.3 10.6h21.7zm-5.5 26.7c4.3 0 10.6-2.5 14.4-6l2.4 2.8c-4.6 4.9-12.6 8.6-20 8.6-14.4 0-24.2-10.8-24.2-24 0-13.8 12-23.9 24.2-23.9 11.6 0 20.9 9.4 17.8 20.7h-31.5c-1.7 12.2 3.5 21.8 16.9 21.8M624 117.5c11.8 0 17 8.4 17 19.5v8.2c0 13.1 1.6 15.3 10.4 15.3v2.7h-29.9v-2.7c8.5 0 10.3-2.2 10.3-15.3v-7.6c0-8.5-3-14-10.8-14-7.2 0-15 5.9-15 13v8.5c0 13.5 1.1 15.3 9.2 15.3v2.7h-28.8v-2.7c8.6 0 10.3-2.2 10.3-15.3v-6.5c0-13.1-1.7-15.2-10.3-15.2v-2.7l17.4-3.3c.6 1.3 1.8 6.7 2.2 9.4 3.4-4.4 9.3-9.3 18-9.3M695.7 121.7c-6.4 0-9.5 5.9-9.5 13.6 0 7.6 3.1 13.5 9.5 13.5s9.4-5.9 9.4-13.5c0-7.7-3-13.6-9.4-13.6m-.2 41.8c18 1.4 23.8 9.1 23.8 17.1 0 10.9-10.3 17.5-23.1 17.5-22.1 0-30.7-16.2-14.6-24.6l2.4 1.4c-10.9 12.1 1.9 18 12.3 18 8.1 0 16.2-3.9 16.2-10 0-6.2-6.5-8.1-17.5-9.2-10.7-1.1-18.6-4.3-18.6-12.1 0-4.7 4.2-8.4 11-10.5-6.5-3.1-11-8.9-11-15.9 0-9.8 8.8-17.8 19.5-17.8 5.2 0 9.9 1.8 13.5 5 2.4-2.9 7.1-5 9.8-5 9 0 9.5 10.7 4.3 11-5.7.4-2.5-5.9-7.8-5.9-1 0-2.6.6-4.1 2.1 2.4 2.9 3.8 6.7 3.8 10.6 0 9.7-8.5 16.6-17 17.8-5.7.7-14.6 2-14.6 5.5-.2 3.5 7.4 4.6 11.7 5M745.5 163.2v-2.7c8.7 0 10.3-2.2 10.3-15.3v-41.3c0-13.1-1.6-15.3-10.3-15.3v-2.7l19.6-3.3v62.6c0 13.1 1.7 15.3 10.3 15.3v2.7h-29.9zM814.9 104.7c-3.1 0-5.7-2.6-5.7-5.9 0-3.2 2.6-5.8 5.7-5.8s5.7 2.6 5.7 5.8c.1 3.3-2.5 5.9-5.7 5.9M800 163.2v-2.7c8.6 0 10.3-2.2 10.3-15.3v-6.5c0-13.1-1.7-15.2-10.3-15.2v-2.7l19.6-3.3v27.7c0 13.1 1.6 15.3 10.3 15.3v2.7H800zM871.7 165.4c-9.1 0-14-9.3-14 0h-2.6v-19.1h2.6c0 5.9 5 14.6 14.4 14.6 4.2 0 7.3-3 7.3-6.7 0-3.3-2.7-5.6-7.3-8l-7.2-3.9c-6.4-3.4-8.8-8.9-8.8-13.1 0-7 6.5-11.9 13.3-11.9 9.8 0 11.8 6.8 11.8 0h2.7v15.2h-2.7c0-5.5-3.9-11-10.6-11-4.4 0-6.7 2.3-6.7 5.6 0 3.1 2.2 4.8 8 8l6.3 3.4c5.8 3.3 9 7.8 9 12.5 0 8.8-7 14.4-15.5 14.4M945.5 163.2v-2.7c8.2 0 9.3-1.8 9.3-15.3v-7.6c0-8.5-3.1-14-9.9-14-6.5 0-14.1 5.6-14.1 13v8.5c0 13.6 1 15.3 8.2 15.3v2.7h-27.8v-2.7c8.8 0 10.3-2.2 10.3-15.3v-41.3c0-13.1-1.6-15.3-10.3-15.3v-2.7l19.6-3.3v44.3c3.7-4.4 9.5-9.4 17.1-9.4 12 0 16.1 8.4 16.1 19.5v8.2c0 13.1 1.7 15.3 10.5 15.3v2.7h-29z"/><g><path class="st0" d="M158.6 288.1v-1.5c3.8-.8 5.2-3.5 5.6-7.6h2.1v6.9h5.5v2.2h-5.5v12.7c0 3 .8 4.6 2.8 4.6 1.1 0 2.6-.8 4.1-2.2l1.1 1.1c-1.8 2.1-4.5 3.7-6.6 3.7-3.5 0-5.9-2.2-5.9-7.1v-12.7h-3.2zM193.2 306.9v-1.3c4 0 4.5-.9 4.5-7.4v-3.7c0-4.1-1.5-6.7-4.8-6.7-3.2 0-6.8 2.7-6.8 6.3v4.1c0 6.6.5 7.4 4 7.4v1.3h-13.4v-1.3c4.2 0 5-1.1 5-7.4v-19.9c0-6.3-.8-7.4-5-7.4v-1.3l9.5-1.6v21.4c1.8-2.1 4.6-4.5 8.3-4.5 5.8 0 7.8 4 7.8 9.4v4c0 6.3.8 7.4 5 7.4v1.3h-14.1zM224.6 305.3c2.1 0 5.1-1.2 6.9-2.9l1.1 1.4c-2.2 2.3-6 4.2-9.6 4.2-6.9 0-11.7-5.2-11.7-11.6 0-6.7 5.8-11.5 11.7-11.5 5.6 0 10.1 4.5 8.6 10h-15.2c-.8 5.8 1.7 10.4 8.2 10.4zm2.6-12.9c.7-2-.4-5.1-4.5-5.1-2.7 0-5 2-5.9 5.1h10.4zM265.2 321.3v1.3h-14.4v-1.3c4.2 0 5-1 5-7.3v-19c0-6.3-.8-7.3-5-7.3v-1.3l8.4-1.6c.3.6.8 2.8.9 3.8 1.8-2.2 4.3-3.8 7.8-3.8 6 0 10.9 5.2 10.9 11.5 0 6.4-4.9 11.6-10.9 11.6-3.2 0-5.9-1.4-7.8-3.8v9.8c.2 6.4 1 7.4 5.1 7.4zm1.5-34c-2.9 0-5.2 2-6.4 4.9v8.1c1.2 3 3.5 5 6.4 5 4.9 0 7.1-4 7.1-9.1 0-4.9-2.3-8.9-7.1-8.9zM305.2 307.9c-.3-.6-.8-2.9-1-4-1.6 1.6-4.6 4-8.3 4-5.8 0-7.8-4.1-7.8-9.5v-4c0-6.3-.8-7.4-5-7.4v-1.3h9.5V298c0 4.1 1.4 6.7 4.8 6.7 2.5 0 6.8-2.3 6.8-6.2v-4.2c0-6.3-.8-7.4-5-7.4v-1.3h9.5v11.8c0 6.3.8 7.4 5 7.4v1.3l-8.5 1.8zM335.8 291.7c-1.2 0-2.2-1.1-2.2-2.3 0-1.3-.8-2.1-2-2.1-1.4 0-4.9 2.3-4.9 7.4v3.5c0 6.3.8 7.4 5 7.4v1.3h-14.4v-1.3c4.2 0 5-1.1 5-7.4V295c0-6.3-.8-7.3-5-7.3v-1.3l8.4-1.6c.3.6.9 3.2 1.1 4.5 1.3-2.5 4.1-4.5 6.6-4.5 3.5 0 5 2.3 5 3.9-.1 1.4-.7 3-2.6 3zM355.2 321.3v1.3h-14.4v-1.3c4.2 0 5-1 5-7.3v-19c0-6.3-.8-7.3-5-7.3v-1.3l8.4-1.6c.3.6.8 2.8.9 3.8 1.8-2.2 4.3-3.8 7.8-3.8 6 0 10.9 5.2 10.9 11.5 0 6.4-4.9 11.6-10.9 11.6-3.2 0-5.9-1.4-7.8-3.8v9.8c.1 6.4 1 7.4 5.1 7.4zm1.5-34c-2.9 0-5.2 2-6.4 4.9v8.1c1.2 3 3.5 5 6.4 5 4.9 0 7.1-4 7.1-9.1 0-4.9-2.3-8.9-7.1-8.9zM387.7 307.9c-7 0-12.7-5.2-12.7-11.6 0-6.4 5.7-11.5 12.7-11.5 7 0 12.7 5.2 12.7 11.5 0 6.4-5.7 11.6-12.7 11.6zm0-20.7c-5.2 0-7.6 4.1-7.6 9.1s2.5 9.1 7.6 9.1c5.2 0 7.6-4.1 7.6-9.1s-2.4-9.1-7.6-9.1zM414.8 307.9c-4.3 0-6.7-4.5-6.7 0h-1.3v-9.2h1.3c0 2.8 2.4 7.1 6.9 7.1 2 0 3.5-1.4 3.5-3.2 0-1.6-1.3-2.7-3.5-3.8l-3.5-1.9c-3.1-1.6-4.2-4.3-4.2-6.3 0-3.4 3.2-5.7 6.4-5.7 4.7 0 5.7 3.3 5.7 0h1.3v7.3h-1.3c0-2.6-1.9-5.3-5.1-5.3-2.1 0-3.2 1.1-3.2 2.7 0 1.5 1.1 2.3 3.8 3.8l3 1.6c2.8 1.6 4.3 3.8 4.3 6 .1 4.2-3.3 6.9-7.4 6.9zM440.7 305.3c2.1 0 5.1-1.2 6.9-2.9l1.1 1.4c-2.2 2.3-6 4.2-9.6 4.2-6.9 0-11.7-5.2-11.7-11.6 0-6.7 5.8-11.5 11.7-11.5 5.6 0 10.1 4.5 8.6 10h-15.2c-.8 5.8 1.7 10.4 8.2 10.4zm2.6-12.9c.7-2-.4-5.1-4.5-5.1-2.7 0-5 2-5.9 5.1h10.4zM456.2 295.3v-2.8h18.4v2.8h-18.4zM486.4 307.9H485v-29.7c0-6.3-.8-7.4-5-7.4v-1.3l9.5-1.6v20.5c1.9-2.3 4.5-3.7 7.7-3.7 6 0 10.9 5.2 10.9 11.5 0 6.4-4.9 11.6-10.9 11.6-3.3 0-6.2-1.6-8.1-4.2l-2.7 4.3zm3.1-7.5c1.1 3 3.5 5 6.4 5 4.9 0 7.2-4 7.2-9.1 0-5-2.3-9-7.2-9-2.9 0-5.2 2-6.4 5v8.1zM534.4 307.9c-.3-.6-.8-2.9-1-4-1.6 1.6-4.6 4-8.3 4-5.8 0-7.8-4.1-7.8-9.5v-4c0-6.3-.8-7.4-5-7.4v-1.3h9.5V298c0 4.1 1.4 6.7 4.8 6.7 2.5 0 6.8-2.3 6.8-6.2v-4.2c0-6.3-.8-7.4-5-7.4v-1.3h9.5v11.8c0 6.3.8 7.4 5 7.4v1.3l-8.5 1.8zM546.5 306.9v-1.3c4.2 0 5-1.1 5-7.4V295c0-6.3-.8-7.3-5-7.3v-1.3l9.5-1.6v13.4c0 6.3.8 7.4 5 7.4v1.3h-14.5zm7.2-28.3c-1.5 0-2.8-1.3-2.8-2.8 0-1.5 1.3-2.8 2.8-2.8s2.8 1.3 2.8 2.8c-.1 1.6-1.3 2.8-2.8 2.8zM563.3 306.9v-1.3c4.2 0 5-1.1 5-7.4v-19.9c0-6.3-.8-7.4-5-7.4v-1.3l9.5-1.6v30.2c0 6.3.8 7.4 5 7.4v1.3h-14.5zM580.8 288.1v-1.5c3.8-.8 5.2-3.5 5.6-7.6h2.1v6.9h5.5v2.2h-5.5v12.7c0 3 .8 4.6 2.8 4.6 1.1 0 2.6-.8 4.1-2.2l1.1 1.1c-1.8 2.1-4.5 3.7-6.6 3.7-3.5 0-5.9-2.2-5.9-7.1v-12.7h-3.2zM613.5 306.9v-1.3c4.2 0 5-1.1 5-7.4v-19.9c0-6.3-.8-7.4-5-7.4v-1.3l9.5-1.6v30.2c0 6.3.8 7.4 5 7.4v1.3h-14.5zM649.4 307.5c-2.5 0-4-1.4-4.3-3.7-3.1 2.8-5.4 3.8-7.9 3.8-3.1 0-5.7-2-5.7-5.3 0-5.4 6.2-7.7 13.4-8.9 0-4.7-.6-6.6-4.2-6.6-1.4 0-3.6 1-3.6 3 0 1.3-.9 2.2-2.1 2.2-1.3 0-2.2-.9-2.2-2.2 0-3 4-5 8-5 6.1 0 8.6 2.6 8.6 8.6v9.5c0 1.6.5 2.5 1.4 2.5.6 0 1.3-.5 1.8-.9l.9 1.2c-1.2 1.2-2.7 1.8-4.1 1.8zm-4.4-12.1c-6 1.4-8.7 3.5-8.7 6.2 0 2 1.4 3.2 3 3.2 1.3 0 2.8-.4 5.7-3v-6.4zM666.3 308H665l-7.4-17.1c-1.2-2.8-2.3-3.7-4.3-3.7v-1.3h11.4v1.3c-2.7 0-3.3 1.3-2.3 3.7l4.3 9.8 5.1-14.8h1.4l6.4 14.8 3.4-9.8c.9-2.5.4-3.7-1.8-3.7v-1.3h8.8v1.3c-2.2 0-3.5.9-4.5 3.7l-6.4 17.1h-1.3l-6.2-14.6-5.3 14.6zM715.6 298.2c0 6.3.8 7.4 5 7.4v1.3h-14.4v-1.3c4.2 0 5-1.1 5-7.4v-10.1H706v-2.2h5.2v-6c0-8.6 5.2-11.8 10.3-11.8 4.2 0 6.3 2.6 6.3 4.7 0 1.3-.7 2.3-2.1 2.3-3.1 0-1.4-4.9-5.4-4.9-3.2 0-4.7 2.5-4.7 9.8v6h6.3v2.2h-6.3v10zM725.9 306.9v-1.3c4.2 0 5-1.1 5-7.4V295c0-6.3-.8-7.3-5-7.3v-1.3l9.5-1.6v13.4c0 6.3.8 7.4 5 7.4v1.3h-14.5zm7.2-28.3c-1.5 0-2.8-1.3-2.8-2.8 0-1.5 1.3-2.8 2.8-2.8 1.5 0 2.8 1.3 2.8 2.8-.1 1.6-1.3 2.8-2.8 2.8zM762.4 291.7c-1.2 0-2.2-1.1-2.2-2.3 0-1.3-.8-2.1-2-2.1-1.4 0-4.9 2.3-4.9 7.4v3.5c0 6.3.8 7.4 5 7.4v1.3h-14.4v-1.3c4.2 0 5-1.1 5-7.4V295c0-6.3-.8-7.3-5-7.3v-1.3l8.4-1.6c.3.6.9 3.2 1.1 4.5 1.3-2.5 4.1-4.5 6.6-4.5 3.5 0 5 2.3 5 3.9 0 1.4-.6 3-2.6 3zM793.6 298.2c0 6.7.4 7.4 4 7.4v1.3h-12.4v-1.3c3.5 0 4-.7 4-7.4v-3.7c0-4.1-1.3-6.7-4.5-6.7-2.2 0-6.5 2.4-6.5 6.3v4.1c0 6.6.4 7.4 3.9 7.4v1.3h-13.4v-1.3c4.2 0 5-1.1 5-7.4V295c0-6.3-.8-7.3-5-7.3v-1.3l8.4-1.6c.3.6.9 3.2 1.1 4.5 1.7-2.1 4.5-4.5 8.2-4.5 3.8 0 5.8 1.8 6.7 4.7 1.4-2.1 5.1-4.7 8.8-4.7 5.6 0 7.2 4 7.2 9.4v4c0 6.3.8 7.4 5 7.4v1.3h-13.4v-1.3c3.5 0 3.9-.7 3.9-7.4v-3.7c0-4.1-1.2-6.7-4.5-6.7-2.1 0-6.6 2.4-6.6 6.3v4.1zM839.5 274.8c0 6.4-5.2 11.6-11.6 11.6-6.4 0-11.6-5.2-11.6-11.6 0-6.4 5.2-11.6 11.6-11.6 6.4 0 11.6 5.2 11.6 11.6zm-7.7 7.2-4.6-6.2h-1.1v1.7c0 3.3.4 3.9 2.6 3.9v.7h-7.4v-.7c2.2 0 2.6-.6 2.6-3.9v-5.3c0-3.3-.4-3.9-2.6-3.9v-.7h7.2c3 0 5 1.8 5 4.1 0 2-1.5 3.7-4 4l2.1 2.4c1.3 1.6 3.1 3.1 4.6 3.1 1.4-1.8 2.3-4 2.3-6.5 0-5.8-4.7-10.5-10.5-10.5s-10.5 4.7-10.5 10.5 4.7 10.5 10.5 10.5c3 0 5.7-1.3 7.6-3.3h-3.8zm-3.5-13.1h-2.2v5.8h2.2c1.9 0 2.8-1.3 2.8-2.9-.1-1.6-.9-2.9-2.8-2.9z"/></g></svg>