<svg version="1.1" id="Layer_1" xmlns="http://www.w3.org/2000/svg" x="0" y="0" width="612" height="792" style="enable-background:new 0 0 612 792" xml:space="preserve"><style>.st0{fill:#18345d}.st1{fill:#df231d}.st2{fill:#b6d7eb}</style><path class="st0" d="m206.8 497.9 6.3 16.1 6.6-17.3L226 514l6.7-16.1h4l-10.8 25.7-6.2-17.1-6.5 17.1-10.3-25.7h3.9zM247.1 497.9V522h-3.6v-24.1h3.6zM257 522v-25.8l17.6 18.4v-16.8h3.6v25.6L260.6 505v17H257zM287.8 522v-24.1h5.1c2.4 0 4.3.2 5.8.7 1.5.5 2.9 1.3 4.1 2.4 2.5 2.3 3.7 5.3 3.7 9s-1.3 6.7-3.9 9c-1.3 1.1-2.7 1.9-4.1 2.4-1.3.4-3.2.7-5.7.7h-5zm3.7-3.4h1.6c1.6 0 3-.2 4.1-.5 1.1-.4 2.1-.9 2.9-1.7 1.8-1.6 2.7-3.8 2.7-6.4 0-2.6-.9-4.8-2.7-6.4-1.6-1.5-3.9-2.2-7-2.2h-1.6v17.2zM318.6 511.6l-7.9-13.7h4.2l5.5 9.6 5.5-9.6h4.2l-7.9 13.7V522h-3.6v-10.4zM367.6 499.2v4.3c-2.1-1.8-4.3-2.6-6.5-2.6-2.5 0-4.6.9-6.3 2.7-1.7 1.8-2.6 3.9-2.6 6.5 0 2.5.9 4.7 2.6 6.4 1.7 1.7 3.8 2.6 6.3 2.6 1.3 0 2.4-.2 3.3-.6.5-.2 1-.5 1.6-.8.5-.4 1.1-.8 1.7-1.3v4.4c-2.1 1.2-4.3 1.8-6.6 1.8-3.4 0-6.4-1.2-8.8-3.6-2.4-2.4-3.6-5.4-3.6-8.8 0-3.1 1-5.8 3-8.2 2.5-2.9 5.7-4.4 9.7-4.4 2.1-.1 4.2.4 6.2 1.6zM379.7 497.9V522h-3.6v-24.1h3.6zM396.6 501.3V522H393v-20.7h-5.5v-3.4h14.7v3.4h-5.6zM415.7 511.6l-7.9-13.7h4.2l5.5 9.6 5.5-9.6h4.2l-7.9 13.7V522h-3.6v-10.4zM236.2 545.1v4.3c-2.1-1.8-4.3-2.6-6.5-2.6-2.5 0-4.6.9-6.3 2.7-1.7 1.8-2.6 3.9-2.6 6.5 0 2.5.9 4.7 2.6 6.4 1.7 1.7 3.8 2.6 6.3 2.6 1.3 0 2.4-.2 3.3-.6.5-.2 1-.5 1.6-.8.5-.4 1.1-.8 1.7-1.3v4.4c-2.1 1.2-4.3 1.8-6.6 1.8-3.4 0-6.4-1.2-8.8-3.6-2.4-2.4-3.6-5.4-3.6-8.8 0-3.1 1-5.8 3-8.2 2.5-2.9 5.7-4.4 9.7-4.4 2.1-.2 4.2.4 6.2 1.6zM259.4 562h-10.3l-2.7 5.9h-3.9l11.9-25.6 11.5 25.6h-4l-2.5-5.9zm-1.5-3.4-3.6-8.2-3.8 8.2h7.4zM272.8 567.9v-25.8l17.6 18.4v-16.8h3.6v25.6L276.4 551v16.9h-3.6zM303.6 567.9v-25.8l17.6 18.4v-16.8h3.6v25.6L307.3 551v16.9h-3.7zM348.8 562h-10.3l-2.7 5.9h-3.9l11.9-25.6 11.5 25.6h-4l-2.5-5.9zm-1.4-3.4-3.6-8.2-3.8 8.2h7.4zM362.2 567.9v-24.1h3.6c1.6 0 2.9.1 3.9.4 1 .3 1.8.7 2.5 1.3.7.6 1.2 1.4 1.6 2.3.4.9.6 1.9.6 2.8 0 1.7-.7 3.2-2 4.4 1.3.4 2.3 1.2 3 2.3.8 1.1 1.1 2.3 1.1 3.8 0 1.9-.7 3.5-2 4.8-.8.8-1.7 1.4-2.7 1.7-1.1.3-2.5.5-4.1.5h-5.5zm3.6-13.8h1.1c1.4 0 2.3-.3 3-.9.6-.6.9-1.5.9-2.6s-.3-2-1-2.6c-.6-.6-1.6-.9-2.8-.9h-1.3v7zm0 10.4h2.3c1.6 0 2.9-.3 3.6-1 .8-.7 1.2-1.6 1.2-2.7 0-1-.4-1.9-1.2-2.6-.8-.7-2.1-1-4.1-1h-1.8v7.3zM388.6 543.8v24.1H385v-24.1h3.6zM411.9 547.3l-3 1.8c-.6-1-1.1-1.6-1.6-1.9-.5-.3-1.2-.5-2-.5-1 0-1.8.3-2.5.9-.7.6-1 1.3-1 2.1 0 1.2.9 2.1 2.6 2.8l2.4 1c2 .8 3.4 1.8 4.3 2.9s1.4 2.5 1.4 4.2c0 2.2-.7 4.1-2.2 5.5-1.5 1.5-3.3 2.2-5.5 2.2-2.1 0-3.8-.6-5.2-1.9-1.3-1.2-2.2-3-2.5-5.2l3.7-.8c.2 1.4.5 2.4.9 2.9.8 1 1.8 1.6 3.3 1.6 1.1 0 2.1-.4 2.8-1.1.8-.8 1.1-1.7 1.1-2.9 0-.5-.1-.9-.2-1.3s-.3-.8-.6-1.1-.6-.6-1.1-.9c-.4-.3-1-.6-1.6-.8l-2.3-1c-3.3-1.4-5-3.4-5-6.1 0-1.8.7-3.3 2.1-4.5 1.4-1.2 3.1-1.8 5.2-1.8 2.8-.1 4.9 1.2 6.5 3.9z"/><path class="st1" d="M315 341.4c41.9-39.2 0-117.2 0-117.2s-45.1 77 0 117.2z"/><path class="st1" d="M409.3 300.7s-69.6-.6-81.7 44.7c46.6 15.4 81.7-44.7 81.7-44.7zM219.8 300.7s69.6-.6 81.7 44.7c-46.7 15.4-81.7-44.7-81.7-44.7zM314.1 361.4c-41.9 39.2 0 117.2 0 117.2s45.1-77.1 0-117.2z"/><path class="st1" d="M219.8 402.1s69.6.6 81.7-44.7c-46.7-15.4-81.7 44.7-81.7 44.7zM409.3 402.1s-69.6.6-81.7-44.7c46.6-15.4 81.7 44.7 81.7 44.7z"/><g><path class="st2" d="M236.5 375.4c-2.3-7.5-3.5-15.4-3.5-23.7 0-8.4 1.3-16.6 3.7-24.3l-.8-.8c-3.5-3.6-6.6-7.1-9.2-10.3-4.4 10.9-6.9 22.8-6.9 35.4 0 12.3 2.4 24.1 6.7 34.8 2.7-3.3 5.8-7 9.5-10.6l.5-.5zM334.1 267.3c.5 2.1.9 4.2 1.2 6.3 16.8 4.6 31.5 14.4 42.1 27.7 5.1-1.3 10-2.1 14.4-2.7-13.7-20-34.9-34.4-59.6-39.2.7 2.5 1.3 5.2 1.9 7.9zM401.7 317.2c-2.5 3-5.3 6.3-8.6 9.5l-1.5 1.5c2.3 7.4 3.5 15.3 3.5 23.5 0 8-1.2 15.6-3.3 22.9.5.4.9.9 1.4 1.3 3.3 3.4 6.3 6.7 8.8 9.8 4.1-10.6 6.3-22 6.3-34 0-12.1-2.4-23.8-6.6-34.5zM250.9 301.1c10.7-13.3 25.5-23.1 42.4-27.6.4-2.2.8-4.3 1.3-6.5.6-2.6 1.3-5.2 2-7.7-24.9 4.7-46.4 19.1-60.3 39.2 4.4.5 9.4 1.3 14.6 2.6zM377.9 401.6c-10.5 13.5-25.2 23.5-42.2 28.2-.4 2-.8 4-1.3 6-.7 2.9-1.4 5.7-2.2 8.3 24.9-4.9 46.3-19.6 60-39.9-4.3-.5-9.2-1.3-14.3-2.6zM295 435.5c-.4-1.8-.7-3.5-1-5.2-17.5-4.5-32.8-14.7-43.6-28.5-5.2 1.2-10.1 2-14.5 2.6 13.9 20.6 35.8 35.5 61.3 40.1-.8-2.9-1.5-5.9-2.2-9z"/></g></svg>