<svg version="1.1" id="Layer_1" xmlns="http://www.w3.org/2000/svg" x="0" y="0" width="564" height="324.7" style="enable-background:new 0 0 564 324.7" xml:space="preserve"><style>.st0{fill:#026aad}.st1{fill:#89cbdf}.st2{fill:#5e9841}</style><path class="st0" d="M133.6 167.2c.2-.4 1.1-2.7 1.3-3.1.3-.9.8-2.2.8-3.6 0-3-3-4-6.3-4.2-1.3 0-3.6-.2-3.6-1.5 0-.5.2-1.1 2-1.1.9 0 3 .2 5.3.4s4.4.4 5.2.4c1.8 0 3.1-.1 4.1-.2.8-.1 3.8-.5 4.4-.5.8 0 1.5.3 1.5 1.1 0 .9-.7 1.2-2.4 1.3-5.3.3-6.5 3.2-7.4 5.3-1.6 3.9-6 16.6-10.4 29.5-4.7 13.5-8.4 25-10.4 30.8-1.1 3.2-2 5.3-2.5 5.3h-.2c-1.3 0-6-16.9-8.2-23.9-2.2-6.8-4.2-14-7.8-24.9-7 16.7-11.9 28.9-18.2 45.2-.2.5-1.1 3.7-2.2 3.7h-.2c-.4-.1-1.2-1.6-1.3-1.9-6.2-18.5-10.3-32.7-18.6-61-1.3-4.5-3.1-7.9-8.7-7.9-1.6-.1-2.3-.4-2.3-1.3 0-.8.3-1.1 1.6-1.1 1.1 0 1.8 0 4.1.2 3.8.3 6.7.5 9.9.5 1.1 0 4-.2 6.9-.4 2.8-.2 5.6-.3 6.2-.3 1.8 0 1.8 1.1 1.8 1.2 0 1.3-2.4 1.3-2.9 1.3-2 0-7.1 0-7.1 3.9 0 .7.1 1.6.5 3.2l13.9 47.2h.2l15.1-36.3-4.3-12.5c-.9-2.4-2.7-5.8-8-6-1.3 0-2.3-.2-2.3-1.1 0-1.1 1.5-1.3 2.2-1.3.5 0 3.4.2 6.4.4 2.9.2 6.1.4 7 .4 1.8 0 4.4 0 7.9-.3.9 0 4.7-.4 5.5-.4.5 0 2.1 0 2.1 1 0 1.2-2.4 1.5-3.7 1.6-2.5.2-6.6.9-6.6 4.2 0 3.8 12.9 40.4 15.1 46.9h.2l14.4-40.2zM168.6 194.6c.2-10.9-6.3-13.8-10.4-13.8-4 0-10.2 2.1-11.5 13.8h21.9zm-22.2 2.7c-.1 3.9-.1 6.4 1.3 10.2 2.5 6.6 7.9 12.3 16.5 12.3 5.9 0 9.6-2.8 11.9-5.5.2-.1 1.3-1.5 2.2-1.5.4 0 1.2.8 1.2 1.3 0 1.7-8.6 11.9-20.4 11.9-12.8 0-20.5-10.7-20.5-23.1 0-11.9 7.5-24.5 21.5-24.5 14.5 0 19.2 13.3 19.2 17.1 0 1.4-.2 1.7-1.3 1.7h-31.6zM197.8 217.3c0 4.9 2.3 5.6 5.1 5.8 1 0 2.3.3 2.3 1 0 .9-1.2 1-2.4 1-.6 0-2.6-.1-4.5-.3-1.9-.1-3.8-.2-4.4-.2-.8 0-2.9.1-5 .2-2.1.2-4.1.3-4.9.3-1.3 0-1.7-.4-1.7-.9 0-1.2 2.1-1.2 2.6-1.2 3.3 0 5-1.3 5-4.8v-54.9c0-5.7-2.6-7.1-5.3-7.8-.4-.1-1.8-.5-1.8-1.1 0-.9.4-.9 3.7-1.6 2.3-.5 3.6-1 4.2-1.1 1-.3 6.2-2.2 6.3-2.2.6 0 1 .3 1 1.1v66.7zM225.6 217.3c0 4.9 2.3 5.6 5.1 5.8 1 0 2.3.3 2.3 1 0 .9-1.2 1-2.4 1-.6 0-2.6-.1-4.5-.3-1.9-.1-3.8-.2-4.4-.2-.8 0-2.9.1-5 .2-2.1.2-4.1.3-4.9.3-1.3 0-1.7-.4-1.7-.9 0-1.2 2.1-1.2 2.6-1.2 3.2 0 5-1.3 5-4.8v-54.9c0-5.7-2.6-7.1-5.3-7.8-.4-.1-1.8-.5-1.8-1.1 0-.9.4-.9 3.7-1.6 2.3-.5 3.6-1 4.2-1.1 1-.3 6.2-2.2 6.3-2.2.6 0 1 .3 1 1.1v66.7zM245.7 191.2c0 2.9-2.4 5.3-5.3 5.3s-5.2-2.5-5.2-5.3c0-3.1 2.6-5.2 5.1-5.2 3.3 0 5.4 2.5 5.4 5.2M287.1 153.4c.9 0 1.3-.3 1.8-.6s.8-.4 1-.4c.4 0 .9.2.9.9 0 .4-.2 3.9-.2 4.7 0 .4 0 4.3.5 8.1 0 .4.4 2.8.4 3.2 0 .9-.5 1.4-1 1.4-1.1 0-1.7-2.4-1.9-3.5-.4-2.3-3-12.9-14.3-12.9-7.8 0-14.3 4.9-14.3 12.6 0 8 5.4 10.8 14 15.5 9.5 5.2 20.1 12 20.1 24.9 0 11.4-8.9 19.2-24.3 19.2-2.7 0-10.2-.4-17.1-1.9 0-4.8-.3-9.9-.5-12-.1-.9-.9-4.4-.9-5.1 0-.5.4-1 .9-1 1 0 1.5 1.6 1.8 2.8 2.1 7.7 9.5 14.6 18.2 14.6 8.6 0 13.5-6.9 13.5-13.5 0-8.4-7.9-12.2-15.5-17.3-4.3-2.9-9.2-5.6-11.8-8.8-1.5-1.7-5.2-6-5.2-13 0-11.4 9.5-19.5 21.8-19.5 2.8 0 5.8.4 8.9 1.1l3.2.5zM312.9 214.9c1.1 2.1 4.2 8 11.3 8 8.7 0 12.6-8.2 12.6-18.5 0-7.8-2.9-21.3-14.3-21.3-6 0-8.4 3.7-9.5 5.4v26.4zm0 28.2c0 5 .9 6.8 5.6 6.9 3.5 0 3.8 0 3.8 1.1s-1.3 1.1-1.8 1.1c-.8 0-3-.2-5.3-.3-2.3-.1-4.6-.3-5.3-.3-.8 0-2.7.1-4.8.3-1.9.2-3.9.3-4.5.3-1.6 0-2.7 0-2.7-1 0-.9 1.3-1.2 2.1-1.3 4.3-.6 5-3.1 5-6.2v-48.5c0-5.3-1-6.8-2.6-7.8-.8-.5-5-2-5-2.7 0-.6.3-.8 3.1-1.6 1.8-.5 11.3-4.2 11.5-4.2.9 0 1 .6 1 1.2v4.5c2.8-2.4 6.8-5.6 13.5-5.6 10.3 0 19.4 8.9 19.4 22.4 0 14.9-11.5 23.9-21.4 23.9-6 0-10-2.4-11.5-3.2v21zM365 217.3c0 5.4 2.3 5.6 7.9 5.7.5 0 2.3 0 2.3 1 0 1.1-1.7 1.1-2.2 1.1-.8 0-3-.1-5.2-.3-2.2-.2-4.3-.2-5.1-.2-.9 0-3.4.1-5.8.2s-4.9.3-5.7.3c-1.8 0-1.9-.9-1.9-1.1 0-.4.4-1 1.8-1 3 0 6-.2 6-4.1V193c0-3.8-1.4-5.3-4.9-6-.4 0-2.2-.3-2.2-1.4 0-.9.3-1 3.5-2.2 3.1-1.2 4.5-1.7 5.4-2.2.8-.4 4.2-2.5 5.1-2.5.4 0 1 .1 1 1.5v5.8c3.2-3.7 7.7-7.8 12.8-7.8 2.9 0 6 2.1 6 5.6 0 2.9-2.2 5-5 5-1.2 0-2.6-.2-5-2.3-.8-.6-1.7-1.5-2.6-1.5-2 0-3.9 2-6.1 4.2v28.1zM402.6 217.5c0 3.6 1.3 5.3 4.7 5.4 1.3.1 2.7.2 2.7 1.2s-1.6 1-2.1 1c-.9 0-3.1-.1-5.3-.3-2.3-.1-4.4-.2-5.2-.2-.8 0-2.9.1-5.1.2-2.2.1-4.2.3-5 .3-1.4 0-1.5-.9-1.5-1.1 0-.6.6-1 1.4-1h1.9c4.2 0 5.4-1.6 5.4-6.3v-25c0-3.7-1.6-5.3-4.9-6.4-.5-.2-2.2-.8-2.2-1.7 0-.8.3-.9 3.2-1.5 2-.4 3.1-.8 4-1 1.1-.3 6.4-2.4 6.7-2.4 1 0 1.1.5 1.1 1.3v37.5zM457.7 201.2c0 2.7-.4 14.4-.4 16.8 0 3.5.5 5 3.9 5.1 1.7 0 3 0 3 1.2 0 .8-1 .9-1.4.9-.8 0-2.9-.1-5.1-.3-2.1-.2-4.2-.2-5-.2-.8 0-2.7.1-4.7.2-2.1.1-4 .3-4.7.3-1.3 0-1.7-.6-1.7-1.1 0-.8.3-.8 3.1-1.1 1.1-.1 2.8-.4 3.6-1.6 1.5-2.4 1.3-11.9 1.3-15.2v-10.8c0-10-6.7-11.2-9.1-11.2-4.4 0-8.3 2.6-10.4 4l-.9 29c-.1 3 .3 5.5 3.5 5.7 2.3.1 2.8.2 2.8 1.1 0 1.2-1.4 1.2-1.7 1.2-.7 0-2.4-.2-4-.3-1.7-.2-3.4-.3-4-.3-.8 0-2.8.1-5 .2-2.1.2-4.1.3-4.4.3-.3 0-1.7 0-1.7-1s.9-1.1 2.6-1.3c2.9-.3 3.8-1.3 4-7.3l.8-23.4c.1-2.9-1-5.1-4.5-6.3-.3-.1-1.7-.5-1.7-1.3s.3-.9 2.9-1.7c1.7-.5 9.7-3.9 10.6-3.9.9 0 1.1.5 1.1 1.3l-.1 5.1c3.4-2.2 8.7-5.4 13.6-5.4 6.3 0 13.8 4.3 13.8 17.2v4.1zM476.6 197.3c0 2.8.3 14.4 10.2 14.4 8.6 0 10.6-10.7 10.6-16.9 0-10.1-4.5-14.2-10-14.2-9.5 0-10.8 11-10.8 16.7m2.2 32c-3.5 3.7-5.3 6-5.3 9.1 0 5.3 5.7 9.4 13.5 9.4 9.3 0 19.5-5 19.5-11.4 0-4.9-5.7-6.7-10.7-6.8l-17-.3zm31.1-51.9c2.1 0 4.4 1.7 4.4 4.3 0 2.6-2.2 4-3.9 4-1 0-2.2-.3-3.7-2.1-.3-.3-1.2-1.3-1.8-1.3-.7 0-2.1.6-3.3 1.9 1 1.4 3.7 5 3.7 10.9 0 9.2-7.5 18.7-19.7 18.7-3.5 0-4.9-.5-6.2-1.1-.8.9-3.2 3.2-3.2 5.6 0 2.5 2.8 3.2 10.6 3.2 12.2 0 23.4 0 23.4 10.9s-12.2 18.7-27.1 18.7c-7.7 0-16-2.1-16-8.4 0-4.7 3.4-8.6 9.1-14.3-2.1-.8-5.5-2-5.5-6.7 0-4.4 3.1-7 6.5-9.9-7.3-4.1-8.9-10-8.9-14.7 0-9.6 7.8-19.1 19.8-19.1 6.2 0 9.6 2.5 12.2 4.5 3.1-2.4 6.3-5.1 9.6-5.1"/><path class="st1" d="M416.8 134.3h-.1l-.1.1c-.5.6-1.1 1.2-1.7 1.7l-.4.4.6.1c12.6 1.7 20.7 5 20.7 8.6 0 1-1.5 3.4-1.5 3.4 2.8-1.5 4.2-3.1 4.2-4.8 0-4-8.3-7.7-21.7-9.5M357.6 143.8c0 1.7 1.4 3.3 4.2 4.8 0 0-1.5-2.4-1.5-3.4 0-5 15.1-9.2 34.3-9.6h.2l.1-.2c.2-.6.5-1.2.8-1.9l.2-.4h-.4c-21.6.4-37.9 5-37.9 10.7"/><path class="st1" d="m468.5 137.6-2.1-1.1 1.8 1.5c2.6 2.2 3.9 4.5 3.9 6.8 0 11.8-33.4 21.4-74.4 21.4-41 0-74.4-9.6-74.4-21.4 0-1.7.7-3.4 2.1-5l1.2-1.4-1.6 1c-3.9 2.6-5.9 5.4-5.9 8.2 0 5.8 8.3 11.2 23.3 15.3 14.9 4 34.8 6.2 55.9 6.2s40.9-2.2 55.9-6.2 23.3-9.5 23.3-15.3c0-3.5-3-6.9-9-10"/><path class="st1" d="M442.4 136.7s6.6 5 6.6 7.4c0 7.7-23 14-51.3 14-28.3 0-51.3-6.3-51.3-14 0-1.4 2.1-4.6 2.1-4.6-3.4 2.2-5.2 4.6-5.2 7.1 0 4.5 5.6 8.3 16.3 10.9 9.9 2.5 23.6 3.9 38.7 3.9 15.1 0 28.8-1.4 38.5-3.9 10.5-2.7 16.1-6.5 16.1-10.9.1-3.6-3.6-7-10.5-9.9"/><path class="st1" d="M415.5 143.1c-.3-.1-.5-.2-.8-.4 0 0 1.9 1.8 2.1 2.5.1.3 0 .6-.2.9-1.4 1.8-8.8 3.1-18.2 3.1-10.5 0-18.2-1.5-18.4-3.6 0-.5.5-1.9.5-1.9s-.1 0-.1.1c-.6.3-2.3 1.3-2.3 2.9 0 .8.3 1.5.9 2.1 2.9 3 12.3 3.6 19.7 3.6 7.6 0 20.4-.7 20.5-5.7 0-1.2-1.3-2.5-3.7-3.6"/><path class="st2" d="M403.8 87.2c-4.1-14.7-19.7-45.1-68.4-65.2 2.7 3.5 2.9 6.4 3.5 6.7 39.6 16.1 61.8 52.1 61.7 61.4 0 2.1-7.5 5.8-6.9 15.8.6 11.7 13.1 28.7 7.5 34.9.9-.2 33.6-23.5 2.6-53.6"/><path class="st2" d="M350.2 37.4c-20.2 20.4 5.3 47.9.5 62.3 0-.9 23.5-35.2-.5-62.3M378.5 59.7c-1.1 4.7-10.8 8.9-11.2 22.8-.5 19 6.9 25.1 4.4 31.6.9-.8 1.5-1.8 2.2-2.6 1.5-1.8 2.8-3.7 4.1-5.7 2.4-4 5-8.1 6.4-13.1.4-1.3.9-2.6 1.1-3.9 1.4-9.5-.1-16.6-3-23.3-1.2-2.2-2.1-4.5-4-5.8M410.3 50.3c-12.2-5.5-19 2.5-23.1 3.5 8 2.4 10.6 11.7 20.8 18 10.3 6.4 30.4.2 30.4.2-11.5-1.2-16.2-14.9-28.1-21.7M378.1 35.2c15.4-1.2 23.3-21.1 24-21.8-2.1.7-3.7 4.5-23.6 3.1-6.3-.4-12.2 1.4-16.4 4.1-1.3.8-2.6 1.7-3.8 3-.8.8-1.4 1.5-2.3 2.8-.5.8-.9 1.5-1.1 1.9 2.6.5 13.7 7.6 23.2 6.9"/><g><path class="st0" d="M90.2 291.4h-2.6l-2.5-5.6H73.5l-2.5 5.6h-2.5l9.7-21.4h2.2l9.8 21.4zm-10.9-18.6-4.9 10.8h9.7l-4.8-10.8zM106.5 270.2h2.4v19h12v2.2h-14.3v-21.2zM129.4 270.2v21.2H127v-21.2h2.4zM152.3 272.4h-12.9v7.6H151v2.2h-11.5v9.3h-2.4v-21.2h15.3v2.1zM173.9 272.4h-13v7.3h11.6v2.2h-11.6v7.4H174v2.2h-15.5v-21.2h15.3v2.1zM198.5 283.9h-5.2v7.5h-2.4v-21.2h7.9c4.8 0 7.9 2.5 7.9 6.8.1 4.5-3.7 6.9-8.2 6.9zm.2-11.5h-5.4v9.3h5.2c3.5 0 5.8-1.9 5.8-4.7.1-3-2.2-4.6-5.6-4.6zM212.7 270.2h2.4v19h12v2.2h-14.3v-21.2zM252.8 291.4h-2.6l-2.5-5.6h-11.6l-2.5 5.6h-2.5l9.7-21.4h2.2l9.8 21.4zm-10.9-18.6-4.9 10.8h9.7l-4.8-10.8zM274.1 270.2h2.3v21.2h-1.9L260.8 274v17.4h-2.3v-21.2h2.2l13.4 17v-17zM304.3 291.8c-6.1 0-10.6-4.8-10.6-11 0-6.1 4.5-11 10.7-11 3.9 0 6.2 1.4 8.3 3.4l-1.6 1.8c-1.8-1.7-3.8-2.9-6.7-2.9-4.7 0-8.2 3.8-8.2 8.7s3.5 8.8 8.2 8.8c2.9 0 4.8-1.1 6.9-3.1l1.6 1.5c-2.3 2.3-4.8 3.8-8.6 3.8zM327.7 291.8c-6.5 0-10.8-5.1-10.8-11s4.4-11 10.9-11 10.8 5.1 10.8 11-4.4 11-10.9 11zm0-19.8c-4.9 0-8.3 3.9-8.3 8.7s3.5 8.8 8.4 8.8 8.3-3.9 8.3-8.7-3.5-8.8-8.4-8.8zM355.4 285.6h-.1l-7.7-11.3v17.2h-2.3v-21.2h2.4l7.7 11.6 7.7-11.6h2.4v21.2h-2.4v-17.2l-7.7 11.3zM383.2 285.6h-.1l-7.7-11.3v17.2H373v-21.2h2.4l7.7 11.6 7.7-11.6h2.4v21.2h-2.4v-17.2l-7.6 11.3zM418.2 282.3c0 6.2-3.5 9.4-8.9 9.4-5.2 0-8.8-3.2-8.8-9.2v-12.3h2.4v12.2c0 4.6 2.4 7.2 6.5 7.2 3.9 0 6.4-2.4 6.4-7v-12.3h2.4v12zM441 270.2h2.3v21.2h-1.9L427.7 274v17.4h-2.3v-21.2h2.2l13.4 17v-17zM453.5 270.2v21.2h-2.4v-21.2h2.4zM469.3 291.4h-2.4v-19h-7.1v-2.2h16.7v2.2h-7.1v19zM491.5 291.4H489V283l-8.8-12.8h2.9l7.2 10.6 7.2-10.6h2.8l-8.8 12.8v8.4z"/></g></svg>