<svg version="1.1" id="Layer_1" xmlns="http://www.w3.org/2000/svg" xmlns:xlink="http://www.w3.org/1999/xlink" x="0" y="0" width="297" height="90" style="enable-background:new 0 0 297 90" xml:space="preserve"><style>.st0{clip-path:url(#SVGID_2_);fill:#fff}</style><path d="M-317 0H931v90H-317z"/><defs><path id="SVGID_1_" d="M297 6.3H0v77.4h297"/></defs><clipPath id="SVGID_2_"><use xlink:href="#SVGID_1_" style="overflow:visible"/></clipPath><path class="st0" d="M58.2 60.1c-.4 5.7 2.2 8.7 7.6 8.7 4.4 0 7.9-2.2 8.4-5.4.2-1.3-.1-2.8-1-3.9-2.5-3.1-9.2-5.5-12.1-9.1-.9-1.1-1.7-2.7-1.2-5.1.8-4.8 5.6-8.1 11.8-8.1 4.2 0 7.1 1.2 9.5 2.6l-1.1 6.4h-1.6c.1-4.7-2.5-7.5-7.1-7.5-4.1 0-6.9 1.8-7.4 4.7-.2 1.3.1 2.3.8 3 2.5 3 9.2 5.2 12.3 8.9 1.3 1.6 1.9 3.6 1.5 5.9-.7 4-4.4 9.2-13.2 9.2-3.3 0-7.2-.9-10.1-2.3l1.3-8.2h1.6zM103.1 48.8l-.2 1.2c-2.2.1-3.6.9-7.4 3.8l-5.1 3.9 7.7 8.7c1.2 1.4 2.1 2.1 2.9 2.4l-.2 1.2h-4.2c-1.1-.9-2.3-2.1-3-2.9L86.7 59l4.9-3.7c2.3-1.7 3-2.5 3.2-3.3.2-1.3-.6-1.8-2.9-1.9l.2-1.2h11zM90.3 37.3l-4.9 27.6c-.4 2.5-.4 4 2.8 4L88 70H77.7l.2-1.2c2.3-.1 3.3-1 3.8-3.4l4.2-23.8-2.9-1.5.1-.7 7.2-2.1z"/><path class="st0" d="m123.3 48.8-.2 1.2c-2.1.4-3 1.3-5.2 5.3l-9.7 17.6c-1.9 3.4-4.5 6-7.5 6-2.1 0-3.5-1.1-3.2-2.6.1-1 1.2-2 2.2-2 1.5 0 1.3 1.6 3.2 1.6 1.8 0 3.3-1.6 5.5-5.7l-4.8-17c-.7-2.5-1.2-3.1-3-3.2l.2-1.2h10l-.2 1.2c-2 .1-2.9.6-3.1 1.7-.1.8 0 1.7.6 4l2.7 10.1 4.4-7.8c1.7-2.9 2.4-4.6 2.5-5.3.3-1.5-.4-2.3-2.4-2.5l.2-1.2h7.8z"/><path class="st0" d="m147.8 37.8-.7 7.6h-1.3c-1.2-4.8-2.9-6.2-6.1-6.2h-6.8l-4.4 25.2c-.6 3.3.1 4.4 4.2 4.3l-.2 1.4h-14.2l.2-1.4c3.6.1 5-.7 5.6-4.3l4.5-25.2h-6.2c-3.9 0-6.2 1.7-8.9 6.2h-1.4l1.9-7.6h33.8z"/><path class="st0" d="m145.8 48.3-1 5.5h.1c2.5-3.8 4.5-5.2 6.5-5.2 1.6 0 3.4 1.4 3.1 2.6-.1 1-1.3 2.8-2.1 2.8-1.2 0-1.5-2.3-3.2-2.3-1.2 0-2.1.8-4.8 4.1l-1.6 9.2c-.5 3-.2 4 4.1 3.8l-.2 1.2h-12.2l.2-1.2c2.8 0 3.8-.6 4.3-3.4l2.3-12.7-3.4-1.6.1-.7 7.8-2.1zM159.7 61.1c-2.1.9-3.3 1.9-3.5 3.3-.3 1.9.9 3.2 3 3.2 1.7 0 3.6-.9 5.4-2.6l1.2-6.4-6.1 2.5zm11.6 6.9c-1.8 1.8-3.3 2.6-4.5 2.6-1.9 0-2.8-1.3-2.4-3.8-2.6 2.5-5.3 3.8-7.5 3.8-3.3 0-5.1-2.1-4.6-5.1.5-3 2.5-4.5 9.2-6.6l4.6-1.5.6-3.7c.4-2.4-1.1-4-3.7-4-2.1 0-4.2 1.2-4.4 2.5-.2 1.1.8 2.2.7 2.9-.1.6-3.2 1.7-3.4 1.7-.5 0-1-1.6-.8-3 .6-3.2 4.6-5.5 9.6-5.5 4.7 0 6.4 2 5.7 5.7l-1.9 11c-.3 1.7 0 2.4.8 2.4.5 0 1.1-.2 1.8-.5l.2 1.1zM182.9 37.3c1.3 0 2.2 1.1 2 2.4-.2 1.3-1.5 2.4-2.8 2.4-1.3 0-2.2-1.1-2-2.4.2-1.3 1.5-2.4 2.8-2.4m0 11L180 64.8c-.5 3-.1 4 2.6 4l-.2 1.2h-10.6l.2-1.2c3.1 0 3.8-.8 4.4-4.2l2.1-12-3.2-1.6.1-.7 7.5-2zM194.1 48.3l-.7 4.1c2.8-2.4 5.9-4.1 8.9-4.1 3.6 0 5.9 2.4 5.1 6.9l-1.7 9.8c-.5 3 0 3.9 2.8 3.9l-.2 1.2h-10.8l.2-1.2c3.1.1 3.8-1 4.4-4l1.7-9.3c.4-2.5-.9-4.4-3.5-4.4-2.2 0-4.8 1-7 2.9l-1.9 10.7c-.5 3-.4 4.3 3 4.2l-.2 1.2h-11l.2-1.2c2.7-.1 3.6-.7 4.3-4.1l2.1-12-3.1-1.6.1-.6 7.3-2.4zM246.9 40.1s-26.2-12.7-68.3-13.5c12.6 3 24.8 7.4 36 13.5h32.3z"/><path class="st0" d="M178.5 26.6h14.2s12.3-.1 29.4 1.4C187.3 15.7 116.3 3.2 5.9 39.9c6.5-2.1 97.9-31.2 172.6-13.3"/><path class="st0" d="M271.6 36.1c-41.6-21.2-83.1-20.8-83.1-20.8h-16.7c24.1.6 43.4 7 56.6 13.3 13.1 1.3 28.6 3.7 43.2 7.5"/></svg>