<svg version="1.1" id="Layer_1" xmlns="http://www.w3.org/2000/svg" x="0" y="0" width="123.5" height="136.4" style="enable-background:new 0 0 123.5 136.4" xml:space="preserve"><style>.st0{fill:#ffb71b}</style><path id="XMLID_15_" class="st0" d="M61.7 51.8c2.8 0 5.1-1.4 5.4-3.3l2.7-31.1c0-3.1-3.6-5.6-8.1-5.6s-8.1 2.5-8.1 5.6l2.7 31.1c.3 1.8 2.6 3.3 5.4 3.3z"/><path id="XMLID_14_" class="st0" d="M44.8 61.5c1.4-2.4 1.3-5.1-.2-6.3l-25.5-18c-2.7-1.5-6.6.3-8.9 4.2-2.3 3.9-1.9 8.3.8 9.8l28.3 13.2c1.7.7 4.1-.5 5.5-2.9z"/><path id="XMLID_13_" class="st0" d="M78.5 61.5c1.4 2.4 3.8 3.7 5.6 3l28.3-13.2c2.7-1.5 3-5.9.8-9.8-2.3-3.9-6.3-5.8-8.9-4.2L78.7 55.2c-1.5 1.2-1.6 3.9-.2 6.3z"/><path id="XMLID_12_" class="st0" d="M61.7 90.6c2.8 0 5.1 1.4 5.4 3.3l2.7 31.1c0 3.1-3.6 5.6-8.1 5.6s-8.1-2.5-8.1-5.6l2.7-31.1c.3-1.8 2.6-3.3 5.4-3.3z"/><path id="XMLID_11_" class="st0" d="M78.5 80.9c1.4-2.4 3.8-3.7 5.6-3l28.3 13.2c2.7 1.5 3 5.9.8 9.8-2.3 3.9-6.3 5.8-8.9 4.2L78.7 87.2c-1.5-1.2-1.6-3.9-.2-6.3z"/><path id="XMLID_10_" class="st0" d="M44.8 80.9c1.4 2.4 1.3 5.1-.2 6.3L19 105.1c-2.7 1.5-6.6-.3-8.9-4.2-2.3-3.9-1.9-8.3.8-9.8l28.3-13.2c1.8-.7 4.2.6 5.6 3z"/><path id="XMLID_5_" class="st0" d="M73.4 126.9c1 0 1.8.8 1.8 1.8s-.8 1.8-1.9 1.8c-1 0-1.9-.8-1.9-1.8.1-1 1-1.8 2-1.8zm0 .3c-.8 0-1.5.7-1.5 1.5s.6 1.5 1.5 1.5c.8 0 1.4-.7 1.4-1.5s-.6-1.5-1.4-1.5zm-.3 2.5h-.4v-1.9c.2 0 .4-.1.7-.1.3 0 .5.1.6.1.1.1.2.2.2.4s-.2.4-.4.5c.2.1.3.2.3.5.1.3.1.4.1.5h-.4c-.1-.1-.1-.2-.1-.5 0-.2-.2-.3-.4-.3h-.2v.8zm0-1.1h.2c.3 0 .5-.1.5-.3 0-.2-.1-.3-.5-.3H73v.6z"/></svg>