<svg version="1.1" id="Layer_1" xmlns="http://www.w3.org/2000/svg" x="0" y="0" width="792" height="612" style="enable-background:new 0 0 792 612" xml:space="preserve"><style>.st0{fill:#010101}.st1{fill:#a8aaad}.st2{fill:#0f80c4}</style><path class="st0" d="M304.6 358.8c1.3-.2 3.1-.4 5.3-.4 2.7 0 4.7.6 6 1.8 1.2 1 1.9 2.6 1.9 4.5s-.6 3.5-1.7 4.6c-1.5 1.6-3.8 2.4-6.5 2.4-.8 0-1.6 0-2.2-.2v8.6h-2.8v-21.3zm2.8 10.4c.6.2 1.4.2 2.3.2 3.3 0 5.4-1.6 5.4-4.6 0-2.8-2-4.2-5.1-4.2-1.2 0-2.1.1-2.6.2v8.4zM322.1 358.9c1.4-.3 3.4-.4 5.3-.4 3 0 4.9.5 6.2 1.7 1.1 1 1.7 2.4 1.7 4.1 0 2.8-1.8 4.7-4 5.5v.1c1.7.6 2.6 2.1 3.1 4.3.7 3 1.2 5.1 1.7 5.9h-2.9c-.3-.6-.8-2.4-1.4-5.1-.6-3-1.8-4.1-4.3-4.2h-2.6v9.3h-2.8v-21.2zm2.8 9.7h2.8c3 0 4.8-1.6 4.8-4.1 0-2.8-2-4-4.9-4-1.3 0-2.3.1-2.7.3v7.8zM361.4 369.1c0 7.4-4.5 11.3-9.9 11.3-5.7 0-9.6-4.4-9.6-10.9 0-6.8 4.2-11.2 9.9-11.2 5.8-.1 9.6 4.4 9.6 10.8zm-16.6.3c0 4.6 2.5 8.7 6.8 8.7 4.4 0 6.9-4 6.9-8.9 0-4.3-2.2-8.7-6.8-8.7s-6.9 4.2-6.9 8.9zM380.5 379.3c-1 .5-3 1-5.7 1-6 0-10.6-3.8-10.6-10.8 0-6.7 4.5-11.2 11.2-11.2 2.7 0 4.4.6 5.1 1l-.7 2.3c-1-.5-2.5-.9-4.3-.9-5 0-8.4 3.2-8.4 8.8 0 5.2 3 8.6 8.2 8.6 1.7 0 3.4-.3 4.5-.9l.7 2.1zM395.7 369.9h-8.3v7.7h9.3v2.3h-12v-21.4h11.6v2.3h-8.8v6.8h8.3v2.3zM403.2 376.6c1.2.8 3 1.4 5 1.4 2.8 0 4.5-1.5 4.5-3.7 0-2-1.1-3.1-4-4.3-3.5-1.2-5.7-3-5.7-6.1 0-3.3 2.8-5.8 6.9-5.8 2.2 0 3.8.5 4.7 1l-.8 2.3c-.7-.4-2.1-1-4.1-1-2.9 0-4 1.7-4 3.2 0 2 1.3 3 4.3 4.1 3.6 1.4 5.5 3.1 5.5 6.3 0 3.3-2.4 6.2-7.5 6.2-2.1 0-4.3-.6-5.5-1.4l.7-2.2zM419.5 376.6c1.2.8 3 1.4 5 1.4 2.8 0 4.5-1.5 4.5-3.7 0-2-1.1-3.1-4-4.3-3.5-1.2-5.7-3-5.7-6.1 0-3.3 2.8-5.8 6.9-5.8 2.2 0 3.8.5 4.7 1l-.8 2.3c-.7-.4-2.1-1-4.1-1-2.9 0-4 1.7-4 3.2 0 2 1.3 3 4.3 4.1 3.6 1.4 5.5 3.1 5.5 6.3 0 3.3-2.4 6.2-7.5 6.2-2.1 0-4.3-.6-5.5-1.4l.7-2.2zM460.6 379.3c-1 .5-3 1-5.7 1-6 0-10.6-3.8-10.6-10.8 0-6.7 4.5-11.2 11.2-11.2 2.7 0 4.4.6 5.1 1l-.7 2.3c-1-.5-2.5-.9-4.3-.9-5 0-8.4 3.2-8.4 8.8 0 5.2 3 8.6 8.2 8.6 1.7 0 3.4-.3 4.5-.9l.7 2.1zM482 369.1c0 7.4-4.5 11.3-9.9 11.3-5.7 0-9.6-4.4-9.6-10.9 0-6.8 4.2-11.2 9.9-11.2 5.8-.1 9.6 4.4 9.6 10.8zm-16.6.3c0 4.6 2.5 8.7 6.8 8.7 4.4 0 6.9-4 6.9-8.9 0-4.3-2.2-8.7-6.8-8.7s-6.9 4.2-6.9 8.9zM487.6 358.6h2.8v19.1h9.1v2.3h-11.9v-21.4zM521.6 369.1c0 7.4-4.5 11.3-9.9 11.3-5.7 0-9.6-4.4-9.6-10.9 0-6.8 4.2-11.2 9.9-11.2 5.8-.1 9.6 4.4 9.6 10.8zm-16.6.3c0 4.6 2.5 8.7 6.8 8.7 4.4 0 6.9-4 6.9-8.9 0-4.3-2.2-8.7-6.8-8.7-4.7 0-6.9 4.2-6.9 8.9zM526.7 358.9c1.4-.3 3.4-.4 5.3-.4 3 0 4.9.5 6.2 1.7 1.1 1 1.7 2.4 1.7 4.1 0 2.8-1.8 4.7-4 5.5v.1c1.7.6 2.6 2.1 3.1 4.3.7 3 1.2 5.1 1.7 5.9h-2.9c-.3-.6-.8-2.4-1.4-5.1-.6-3-1.8-4.1-4.3-4.2h-2.6v9.3h-2.8v-21.2zm2.8 9.7h2.8c3 0 4.8-1.6 4.8-4.1 0-2.8-2-4-4.9-4-1.3 0-2.3.1-2.7.3v7.8zM326 419.9c-1 .5-3 1-5.7 1-6 0-10.6-3.8-10.6-10.8 0-6.7 4.5-11.2 11.2-11.2 2.7 0 4.4.6 5.1 1l-.7 2.3c-1-.5-2.5-.9-4.3-.9-5 0-8.4 3.2-8.4 8.8 0 5.2 3 8.6 8.2 8.6 1.7 0 3.4-.3 4.5-.9l.7 2.1zM349.1 410.1c0 7-2.6 10.9-7.2 10.9-4 0-6.8-3.8-6.8-10.6 0-6.9 3-10.7 7.2-10.7 4.3-.1 6.8 3.8 6.8 10.4zm-11.2.3c0 5.4 1.7 8.4 4.2 8.4 2.9 0 4.2-3.3 4.2-8.6 0-5.1-1.3-8.4-4.2-8.4-2.4 0-4.2 3-4.2 8.6zM377.5 411.2c-.2-3-.3-6.6-.3-9.2h-.2c-.7 2.5-1.6 5.2-2.7 8.1l-3.8 10.4h-2.1l-3.5-10.2c-1-3-1.9-5.8-2.5-8.3h-.1c-.1 2.7-.2 6.3-.4 9.5l-.6 9.2h-2.6l1.5-21.4h3.5l3.7 10.4c.9 2.6 1.6 5 2.2 7.2h.1c.5-2.2 1.3-4.5 2.3-7.2l3.8-10.4h3.5l1.3 21.4H378l-.5-9.5zM405.4 410.1c0 7-2.6 10.9-7.2 10.9-4 0-6.8-3.8-6.8-10.6 0-6.9 3-10.7 7.2-10.7 4.4-.1 6.8 3.8 6.8 10.4zm-11.2.3c0 5.4 1.7 8.4 4.2 8.4 2.9 0 4.2-3.3 4.2-8.6 0-5.1-1.3-8.4-4.2-8.4-2.4 0-4.2 3-4.2 8.6zM420.5 420.6v-9.1l-6.8-12.3h3.1l3 5.9c.8 1.6 1.5 2.9 2.1 4.4h.1c.6-1.4 1.3-2.8 2.2-4.4l3.1-5.9h3.1l-7.2 12.3v9.1h-2.7zM454 410.1c0 7-2.6 10.9-7.2 10.9-4 0-6.8-3.8-6.8-10.6 0-6.9 3-10.7 7.2-10.7 4.4-.1 6.8 3.8 6.8 10.4zm-11.2.3c0 5.4 1.7 8.4 4.2 8.4 2.9 0 4.2-3.3 4.2-8.6 0-5.1-1.3-8.4-4.2-8.4-2.4 0-4.2 3-4.2 8.6zM464.3 399.2h2.8v10.3h.1c.6-.8 1.1-1.6 1.7-2.3l6.5-8h3.4l-7.8 9.1 8.4 12.3h-3.3l-7.1-10.5-2 2.4v8.2h-2.8v-21.5zM495.3 402.6l-3.7 1.9-.5-2.1 4.5-2.4h2.4v20.6h-2.7v-18zM519.3 410.1c0 7-2.6 10.9-7.2 10.9-4 0-6.8-3.8-6.8-10.6 0-6.9 3-10.7 7.2-10.7 4.3-.1 6.8 3.8 6.8 10.4zm-11.2.3c0 5.4 1.7 8.4 4.2 8.4 2.9 0 4.2-3.3 4.2-8.6 0-5.1-1.3-8.4-4.2-8.4-2.4 0-4.2 3-4.2 8.6zM535.6 410.1c0 7-2.6 10.9-7.2 10.9-4 0-6.8-3.8-6.8-10.6 0-6.9 3-10.7 7.2-10.7 4.3-.1 6.8 3.8 6.8 10.4zm-11.2.3c0 5.4 1.7 8.4 4.2 8.4 2.9 0 4.2-3.3 4.2-8.6 0-5.1-1.3-8.4-4.2-8.4-2.5 0-4.2 3-4.2 8.6zM317.3 460.6c-1 .5-3 1-5.7 1-6 0-10.6-3.8-10.6-10.8 0-6.7 4.5-11.2 11.2-11.2 2.7 0 4.4.6 5.1 1l-.7 2.3c-1-.5-2.5-.9-4.3-.9-5 0-8.4 3.2-8.4 8.8 0 5.2 3 8.6 8.2 8.6 1.7 0 3.4-.3 4.5-.9l.7 2.1zM333 443.3l-3.7 1.9-.5-2.1 4.5-2.4h2.4v20.6H333v-18zM357 450.8c0 7-2.6 10.9-7.2 10.9-4 0-6.8-3.8-6.8-10.6 0-6.9 3-10.7 7.2-10.7 4.3-.1 6.8 3.8 6.8 10.4zm-11.2.3c0 5.4 1.7 8.4 4.2 8.4 2.9 0 4.2-3.3 4.2-8.6 0-5.1-1.3-8.4-4.2-8.4-2.5 0-4.2 3-4.2 8.6zM373.3 450.8c0 7-2.6 10.9-7.2 10.9-4 0-6.8-3.8-6.8-10.6 0-6.9 3-10.7 7.2-10.7 4.3-.1 6.8 3.8 6.8 10.4zm-11.3.3c0 5.4 1.7 8.4 4.2 8.4 2.9 0 4.2-3.3 4.2-8.6 0-5.1-1.3-8.4-4.2-8.4-2.4 0-4.2 3-4.2 8.6zM401.6 451.9c-.2-3-.3-6.6-.3-9.2h-.1c-.7 2.5-1.6 5.2-2.7 8.1l-3.8 10.4h-2.1l-3.5-10.2c-1-3-1.9-5.8-2.5-8.3h-.1c-.1 2.7-.2 6.3-.4 9.5l-.6 9.2H383l1.5-21.4h3.5l3.7 10.4c.9 2.6 1.6 5 2.2 7.2h.1c.5-2.2 1.3-4.5 2.3-7.2l3.8-10.4h3.5l1.3 21.4h-2.7l-.6-9.5zM416.8 458.1c.8.5 2.6 1.3 4.6 1.3 3.6 0 4.7-2.3 4.7-4 0-2.9-2.6-4.1-5.3-4.1h-1.6v-2.1h1.6c2 0 4.6-1 4.6-3.5 0-1.7-1-3.1-3.6-3.1-1.7 0-3.2.7-4.1 1.4l-.7-2c1.1-.8 3.2-1.6 5.4-1.6 4.1 0 5.9 2.4 5.9 4.9 0 2.1-1.3 3.9-3.8 4.9v.1c2.5.5 4.6 2.4 4.6 5.3 0 3.3-2.6 6.2-7.5 6.2-2.3 0-4.4-.7-5.4-1.4l.6-2.3zM444.3 442.6c-.6 0-1.3 0-2.1.1-4.4.7-6.7 3.9-7.2 7.3h.1c1-1.3 2.7-2.4 5-2.4 3.7 0 6.2 2.6 6.2 6.7 0 3.8-2.6 7.3-6.9 7.3-4.4 0-7.3-3.4-7.3-8.8 0-4.1 1.5-7.3 3.5-9.3 1.7-1.7 4-2.7 6.6-3 .8-.1 1.5-.2 2-.2v2.3zm-.8 11.9c0-3-1.7-4.7-4.3-4.7-1.7 0-3.2 1-4 2.5-.2.3-.3.7-.3 1.2.1 3.4 1.6 5.9 4.5 5.9 2.4.1 4.1-1.9 4.1-4.9zM461.3 461.3v-9.1l-6.8-12.3h3.1l3 5.9c.8 1.6 1.5 2.9 2.1 4.4h.1c.6-1.4 1.3-2.8 2.2-4.4l3.1-5.9h3.1l-7.2 12.3v9.1h-2.7zM495.1 450.8c0 7-2.6 10.9-7.2 10.9-4 0-6.8-3.8-6.8-10.6 0-6.9 3-10.7 7.2-10.7 4.3-.1 6.8 3.8 6.8 10.4zm-11.2.3c0 5.4 1.7 8.4 4.2 8.4 2.9 0 4.2-3.3 4.2-8.6 0-5.1-1.3-8.4-4.2-8.4-2.4 0-4.2 3-4.2 8.6zM505.4 439.9h2.8v10.3h.1c.6-.8 1.1-1.6 1.7-2.3l6.5-8h3.4l-7.8 9.1 8.4 12.3h-3.3l-7.1-10.5-2 2.4v8.2h-2.8v-21.5zM530.7 461.3v-1.7l2.2-2.1c5.3-5 7.7-7.7 7.7-10.8 0-2.1-1-4-4.1-4-1.9 0-3.4 1-4.4 1.7l-.9-2c1.4-1.2 3.5-2.1 5.8-2.1 4.4 0 6.3 3 6.3 6 0 3.8-2.8 6.9-7.1 11.1l-1.7 1.5v.1h9.3v2.3h-13.1zM333.6 501.3c-1 .5-3 1-5.7 1-6 0-10.6-3.8-10.6-10.8 0-6.7 4.5-11.2 11.2-11.2 2.7 0 4.4.6 5.1 1l-.7 2.3c-1-.5-2.5-.9-4.3-.9-5 0-8.4 3.2-8.4 8.8 0 5.2 3 8.6 8.2 8.6 1.7 0 3.4-.3 4.5-.9l.7 2.1zM357 491.4c0 7-2.6 10.9-7.2 10.9-4 0-6.8-3.8-6.8-10.6 0-6.9 3-10.7 7.2-10.7 4.3 0 6.8 3.8 6.8 10.4zm-11.2.3c0 5.4 1.7 8.4 4.2 8.4 2.9 0 4.2-3.3 4.2-8.6 0-5.1-1.3-8.4-4.2-8.4-2.5 0-4.2 3-4.2 8.6zM385.3 492.6c-.2-3-.3-6.6-.3-9.2h-.1c-.7 2.5-1.6 5.2-2.7 8.1l-3.8 10.4h-2.1l-3.5-10.2c-1-3-1.9-5.8-2.5-8.3h-.1c-.1 2.7-.2 6.3-.4 9.5l-.6 9.2h-2.6l1.5-21.4h3.5l3.7 10.4c.9 2.6 1.6 5 2.2 7.2h.1c.5-2.2 1.3-4.5 2.3-7.2l3.8-10.4h3.5l1.3 21.4h-2.7l-.5-9.5zM413.6 491.4c0 7-2.6 10.9-7.2 10.9-4 0-6.8-3.8-6.8-10.6 0-6.9 3-10.7 7.2-10.7 4.3 0 6.8 3.8 6.8 10.4zm-11.2.3c0 5.4 1.7 8.4 4.2 8.4 2.9 0 4.2-3.3 4.2-8.6 0-5.1-1.3-8.4-4.2-8.4-2.4 0-4.2 3-4.2 8.6zM428.7 502v-9.1l-6.8-12.3h3.1l3 5.9c.8 1.6 1.5 2.9 2.1 4.4h.1c.6-1.4 1.3-2.8 2.2-4.4l3.1-5.9h3.1l-7.2 12.3v9.1h-2.7zM462.5 491.4c0 7-2.6 10.9-7.2 10.9-4 0-6.8-3.8-6.8-10.6 0-6.9 3-10.7 7.2-10.7 4.3 0 6.8 3.8 6.8 10.4zm-11.2.3c0 5.4 1.7 8.4 4.2 8.4 2.9 0 4.2-3.3 4.2-8.6 0-5.1-1.3-8.4-4.2-8.4-2.4 0-4.2 3-4.2 8.6zM472.8 480.6h2.8v10.3h.1c.6-.8 1.1-1.6 1.7-2.3l6.5-8h3.4l-7.8 9.1 8.4 12.3h-3.3l-7.1-10.5-2 2.4v8.2h-2.8v-21.5zM506.7 502v-5.6h-9.6v-1.8l9.2-13.2h3v12.8h2.9v2.2h-2.9v5.6h-2.6zm0-7.9v-6.9c0-1.1 0-2.2.1-3.2h-.1c-.6 1.2-1.1 2.1-1.7 3l-5.1 7v.1h6.8zM528.1 491.4c0 7-2.6 10.9-7.2 10.9-4 0-6.8-3.8-6.8-10.6 0-6.9 3-10.7 7.2-10.7 4.3 0 6.8 3.8 6.8 10.4zm-11.2.3c0 5.4 1.7 8.4 4.2 8.4 2.9 0 4.2-3.3 4.2-8.6 0-5.1-1.3-8.4-4.2-8.4-2.4 0-4.2 3-4.2 8.6z"/><path class="st1" d="M588.4 106h-92.6c2.3.8 3.4 1.4 3.4 1.4 9.4 4.1 17 19.8 7.9 36h-32.6l-10 17.9h31.9l-36.5 65.4h61.4L588.4 106z"/><path class="st0" d="M326.7 163.4c16-31.5 34.5-45.7 61.8-54.5 0 0 2.8-1 7.5-2.3h-76.4l-44.2 79.5v.1c-6.9 12.6-12.1 22.4-23.5 22.5-14.3.1-1.5-16.2.5-21.6l44.8-80.5h-71.9l-44.2 79.5c-21.5 34.8 20.6 48.9 55.5 48.9 26.8 0 65.1-3.4 92-19.4l-2.3-2.3c-9.6-11.4-10-29.5.4-49.9M274.7 282.6h-11.9l-1.8 9.8h13.3l-1 4.8h-19l6.3-32.9h18.3l-1 4.8h-12.5l-1.7 8.7h11.9zM277.9 297.2l3.1-16.4c.6-2.8.9-5.3 1.2-7.4h5l-.5 4.3h.1c2.2-3.2 5.2-4.8 8.5-4.8 3.4 0 6.1 2.1 6.1 6.5 0 1.1-.2 2.7-.4 4l-2.6 13.8h-5.7l2.5-13.4c.1-.9.3-1.9.3-2.8 0-2-.7-3.4-3-3.4-2.6 0-5.9 3.1-6.9 8.7l-2.1 11h-5.6zM323 295.8c-2.3 1.2-5.5 1.9-8.4 1.9-6.6 0-9.8-4-9.8-9.9 0-7.2 5.3-15 13.5-15 4.7 0 7.7 2.7 7.7 6.7 0 6.1-6.4 8.1-15.6 7.9-.1.8.1 2.4.6 3.4.9 1.6 2.6 2.4 4.9 2.4 2.7 0 4.8-.7 6.5-1.6l.6 4.2zm-2.4-16.2c0-1.5-1.2-2.4-3-2.4-3.6 0-5.9 3.2-6.6 6.1 5.9 0 9.6-.8 9.6-3.7zM327.3 297.2l2.8-14.6c.6-3.4.9-7 1.2-9.1h4.9c-.1 1.6-.3 3.3-.5 5h.1c1.6-3.2 4.2-5.6 7.5-5.6.4 0 .8 0 1.2.1l-1.1 5.6c-.3-.1-.7-.1-1.1-.1-4.1 0-6.6 4.1-7.6 9.2l-1.8 9.6h-5.6zM344.5 301.5c1.4.8 4.1 1.4 6.3 1.4 3.7 0 6.5-1.8 7.7-7.3l.6-2.7h-.1c-2 2.8-4.4 4.2-7.5 4.2-4.7 0-7.4-3.9-7.5-8.4 0-7.9 5.7-15.8 15.6-15.8 3.1 0 6.1.7 8.3 1.7l-3.6 19.6c-.9 4.6-2.2 8.4-4.9 10.6-2.5 2-5.9 2.6-8.8 2.6-3 0-5.9-.6-7.4-1.6l1.3-4.3zm17.2-23.6c-.6-.3-1.8-.6-3.1-.6-5 0-8.5 5.4-8.5 10.5 0 2.5 1 4.8 3.8 4.8s5.7-3.4 6.5-7.7l1.3-7zM376.8 273.4l1.9 11.5c.4 2.5.7 4.3.9 5.9h.1c.6-1.5 1.2-3.1 2.3-5.7l5.1-11.7h6l-8.7 17.5c-2.9 5.8-5.5 10-8.7 13.1-2.7 2.7-5.9 3.8-7.3 4.1l-1.3-4.9c1.1-.3 2.7-1 4.2-2.1 1.6-1.2 3.1-2.8 4.2-4.7.2-.4.2-.7.1-1.1l-4.7-21.9h5.9zM412.8 267.3l-1.2 6.1h5.4l-.9 4.4h-5.3l-1.9 9.6c-.2 1.1-.4 2.3-.4 3.3 0 1.3.6 2.1 2.1 2.1.7 0 1.4 0 2-.1l-.5 4.5c-.8.3-2.3.5-3.7.5-3.9 0-5.7-2.2-5.7-4.9 0-1.3.1-2.6.5-4.4l2.1-10.6h-3.2l.8-4.4h3.2l.8-4.4 5.9-1.7zM440.3 282.8c0 8.1-5.7 15-13.8 15-6 0-9.7-4.2-9.7-9.8 0-8.1 5.6-15 13.7-15 6.5-.1 9.8 4.5 9.8 9.8m-17.6 5c0 3.3 1.8 5.6 4.6 5.6 4.3 0 7.1-5.9 7.1-10.6 0-2.4-1.1-5.5-4.5-5.5-4.5 0-7.2 6-7.2 10.5M477.5 262.5l-5 26.2c-.5 2.7-.9 5.9-1.1 8.5h-5.2l.5-4.2h-.1c-2.2 3.3-5.1 4.8-8.2 4.8-4.3 0-7.2-3.5-7.2-8.8 0-8.4 6.1-16 14.8-16 1.2 0 2.6.2 3.7.7l2.1-11h5.7zm-8.6 15.7c-.7-.5-1.9-.9-3.3-.9-4.9 0-8.5 5.4-8.5 10.7 0 2.9 1.1 5.1 3.8 5.1 2.5 0 5.6-2.8 6.5-7.7l1.5-7.2zM501 282.8c0 8.1-5.7 15-13.8 15-6 0-9.7-4.2-9.7-9.8 0-8.1 5.6-15 13.7-15 6.4-.1 9.8 4.5 9.8 9.8m-17.6 5c0 3.3 1.8 5.6 4.6 5.6 4.2 0 7.1-5.9 7.1-10.6 0-2.4-1.1-5.5-4.5-5.5-4.6 0-7.2 6-7.2 10.5M511.4 297.2l3-16.4c.5-2.8.9-5.3 1.2-7.4h4.9l-.5 4.2c2.2-3.2 5.2-4.7 8.3-4.7 3.7 0 5.4 2.3 5.6 4.9 2.1-3.3 5.1-4.8 8.4-4.9 3.3 0 5.8 2.1 5.8 6.4 0 1-.2 2.8-.4 4l-2.6 13.9h-5.5l2.5-13.3c.1-1 .3-2 .3-3 0-2-.8-3.4-2.9-3.4-2.6 0-5.5 3.3-6.4 8.3l-2.1 11.4h-5.5l2.5-13.5c.2-1 .3-1.9.3-2.8 0-1.8-.5-3.4-2.8-3.4-2.6 0-5.7 3.6-6.5 8.4l-2.1 11.3h-5.5zM575.1 282.8c0 8.1-5.7 15-13.8 15-6 0-9.7-4.2-9.7-9.8 0-8.1 5.6-15 13.7-15 6.4-.1 9.8 4.5 9.8 9.8m-17.6 5c0 3.3 1.8 5.6 4.6 5.6 4.2 0 7.1-5.9 7.1-10.6 0-2.4-1.1-5.5-4.5-5.5-4.6 0-7.2 6-7.2 10.5M577.1 297.2l2.8-14.6c.6-3.4.9-7 1.2-9.1h4.9c-.1 1.6-.3 3.3-.5 5h.1c1.6-3.2 4.2-5.6 7.5-5.6.4 0 .8 0 1.2.1l-1.1 5.6c-.3-.1-.7-.1-1.1-.1-4.1 0-6.6 4.1-7.6 9.2l-1.8 9.6h-5.6zM612.1 295.8c-2.3 1.2-5.5 1.9-8.4 1.9-6.6 0-9.8-4-9.8-9.9 0-7.2 5.3-15 13.5-15 4.7 0 7.7 2.7 7.7 6.7 0 6.1-6.4 8.1-15.6 7.9-.1.8.1 2.4.6 3.4.9 1.6 2.6 2.4 4.9 2.4 2.7 0 4.8-.7 6.5-1.6l.6 4.2zm-2.4-16.2c0-1.5-1.2-2.4-3-2.4-3.6 0-5.9 3.2-6.6 6.1 5.8 0 9.6-.8 9.6-3.7zM626.4 270.1c4.2 0 7.5 3.3 7.5 7.4 0 4.2-3.3 7.5-7.6 7.5-4.2 0-7.6-3.3-7.6-7.5.1-4.1 3.4-7.4 7.7-7.4zm-.1 1.5c-3.3 0-5.7 2.7-5.7 5.9 0 3.3 2.4 5.9 5.8 5.9 3.3 0 5.6-2.6 5.6-5.9.1-3.2-2.3-5.9-5.7-5.9zm-1.1 9.7h-1.7V274c.7-.1 1.6-.3 2.8-.3 1.4 0 2 .2 2.6.6.4.3.7.9.7 1.6 0 .9-.6 1.5-1.5 1.8v.1c.7.2 1.1.8 1.4 1.8.2 1.1.4 1.6.5 1.8h-1.9c-.2-.3-.4-.9-.6-1.8-.1-.8-.6-1.2-1.5-1.2h-.8v2.9zm.1-4.1h.8c1 0 1.7-.3 1.7-1.1 0-.7-.5-1.1-1.6-1.1-.5 0-.8 0-.9.1v2.1z"/><path class="st2" d="M507 143.4c9.1-16.2 1.5-31.9-7.9-36 0 0-14.9-7.8-50.5-8.2-31.8-.3-60.2 9.6-60.2 9.6-27.4 8.8-45.8 23-61.8 54.5-10.4 20.5-9.9 38.6-.4 50 7.7 7.7 21.2 20.2 54.1 21.7 41 1.8 79.3-8.1 79.3-8.1l36.6-65.6-89-.1-11.9 21.1H423s-9.2 22.4-32.3 22.4c-18-.1-17-13.5-3.7-38.4 12.4-23.2 26.2-44 47.9-43.9 15.6.1 15.8 9.3 9.8 20.9H507"/><path class="st0" d="M275.2 398.7h22.2v22.2h-22.2z"/><path class="st2" d="M268.6 439.7h22.2v22.2h-22.2z"/><path class="st1" d="M283.8 480.5H306v22.2h-22.2z"/></svg>