<svg version="1.1" id="Layer_1" xmlns="http://www.w3.org/2000/svg" x="0" y="0" width="720" height="720" style="enable-background:new 0 0 720 720" xml:space="preserve"><style>.st0{fill:#f8b62b}</style><path class="st0" d="M353.7 249c13 0 23.8-6.8 25.2-15.5l12.9-145.6c0-14.4-16.8-26.2-38-26.2s-38 11.8-38 26.2l12.8 145.6c1.5 8.7 12.2 15.5 25.1 15.5zM275.1 294.5c6.5-11.3 6-23.9-.9-29.6L154.5 181c-12.4-7.2-31.1 1.5-41.7 19.8-10.6 18.3-8.7 38.8 3.7 46L249 308.5c8.3 3.1 19.6-2.8 26.1-14zM432.5 294.4c6.5 11.3 17.8 17.2 26 14.1l132.6-61.7c12.4-7.2 14.2-27.7 3.7-46-10.6-18.4-29.3-27-41.8-19.8l-119.6 83.9c-6.8 5.6-7.4 18.3-.9 29.5zM353.7 430.8c13 0 23.8 6.7 25.2 15.5l12.9 145.6c0 14.4-16.8 26.1-38 26.1s-38-11.8-38-26.1l12.8-145.6c1.5-8.7 12.2-15.5 25.1-15.5zM432.5 385.4c6.5-11.3 17.8-17.2 26-14L591.1 433c12.4 7.2 14.2 27.7 3.7 46.1-10.6 18.3-29.3 27-41.8 19.8L433.4 415c-6.8-5.7-7.4-18.4-.9-29.6zM275.1 385.3c6.5 11.3 6 23.9-.9 29.7l-119.7 83.9c-12.4 7.2-31.1-1.5-41.7-19.8-10.6-18.4-8.7-38.9 3.7-46.1L249 371.4c8.3-3.2 19.6 2.7 26.1 13.9zM428.2 580.7c10 0 17.8 7.7 17.8 17.6 0 10.1-7.9 17.9-17.9 17.9-10.1 0-18.1-7.8-18.1-17.9.1-9.9 8-17.6 18.2-17.6zm-.2 3.1c-8 0-14.1 6.6-14.1 14.5 0 8.2 6.1 14.6 14.3 14.6 8 .1 13.9-6.4 13.9-14.5s-5.9-14.6-14-14.6h-.1zm-3.1 24.3h-3.4v-18.5c1.9-.4 3.8-.6 6.4-.6 3.1 0 4.7.6 5.8 1.5 1.1.8 1.9 2.2 1.9 3.9 0 2.3-1.6 3.7-3.6 4.5v.2c1.6.7 2.6 2.1 3.1 4.4.5 2.9.9 4 1.3 4.6h-3.5c-.5-.7-1-2.3-1.5-4.9-.4-2-1.6-2.9-4.3-2.9h-2.3v7.8zm0-10.4h2.4c2.5 0 4.7-.8 4.7-3 0-1.8-1.1-3-4.4-3-1.3 0-2.1.1-2.7.2v5.8z"/></svg>