<svg version="1.1" id="Layer_1" xmlns="http://www.w3.org/2000/svg" x="0" y="0" width="792" height="612" style="enable-background:new 0 0 792 612" xml:space="preserve"><style>.st1{fill:#fff}.st3{opacity:.25;fill:#082140}.st4{fill:#1f4a7d}.st5{fill:#119bd7}</style><circle cx="303.1" cy="303.5" r="47.4" style="fill:none;stroke:#fff;stroke-width:7.5;stroke-miterlimit:10"/><path class="st1" d="M394 315.7h-4.8l-9.9-25.9h4.6l7.7 21.5h.2l7.4-21.5h4.5l-9.7 25.9zM428 304.3h-19.2c.2 2.6 1 4.7 2.4 6.3 1.4 1.6 3.5 2.3 6.1 2.3 1.6 0 3-.2 4.2-.6 1.2-.4 2.5-1.1 3.7-1.9l1.9 2.8c-1.5 1.1-3 1.8-4.6 2.4s-3.5.8-5.5.8c-4 0-7.1-1.3-9.3-3.8-2.2-2.5-3.3-5.8-3.3-10 0-2.7.5-5 1.4-7.1.9-2 2.3-3.6 4.1-4.7 1.8-1.1 4-1.7 6.5-1.7 3.8 0 6.6 1.2 8.6 3.7 2 2.4 3 5.7 3 9.7.1.8.1 1.4 0 1.8zm-4.1-3.4c-.1-2.6-.7-4.6-2-6.2-1.3-1.6-3.1-2.3-5.4-2.3-2.4 0-4.3.8-5.6 2.4-1.3 1.6-2 3.6-2.1 6.1h15.1zM438.5 289.8h6.9v3.3h-6.9v15.6c0 2.8 1.3 4.2 3.8 4.2.9 0 1.8-.1 2.5-.4l.7 3.2c-1.2.4-2.5.7-4 .7-2.3 0-4.1-.6-5.4-1.9-1.3-1.3-2-3.1-2-5.4v-16h-4.6v-2.8l4.5-.5v-6.4l4.4-1.5v7.9zM466.3 279.7l-1 3.1c-1.1-.2-2.1-.3-3.1-.3-3.2 0-4.8 1.8-4.8 5.2v2.1h6.5v3.3h-6.5v22.6h-4.3v-22.6h-4.5v-2.7l4.5-.6v-2.2c0-2.7.7-4.9 2.2-6.3 1.5-1.5 3.6-2.2 6.5-2.3 1.6 0 3.2.2 4.5.7zM491.1 302.7c0 2.7-.5 5.1-1.6 7.1-1 2.1-2.5 3.7-4.5 4.9-1.9 1.2-4.3 1.7-7 1.7s-5-.6-7-1.8c-2-1.2-3.5-2.8-4.5-4.9-1-2.1-1.5-4.4-1.5-7.1 0-4.1 1.1-7.4 3.4-9.9s5.5-3.7 9.6-3.7c2.7 0 5.1.6 7 1.7 1.9 1.1 3.4 2.7 4.4 4.7 1.2 2.2 1.7 4.6 1.7 7.3zm-21.5 0c0 3.1.7 5.6 2.1 7.4 1.4 1.9 3.5 2.8 6.4 2.8 2.9 0 5-.9 6.5-2.8 1.4-1.9 2.1-4.4 2.1-7.4 0-3.1-.7-5.5-2.1-7.4-1.4-1.8-3.6-2.7-6.5-2.7s-5 .9-6.4 2.7c-1.4 1.8-2.1 4.3-2.1 7.4zM496 295.6c0-1.9-.1-3.8-.4-5.8h4.1c.2 1.2.3 2.5.4 4.1h.1c1.5-3.2 4.2-4.8 8.1-4.8.3 0 .8.1 1.5.2l-.3 3.7c-.3-.1-.9-.1-1.6-.1-2.5 0-4.4.8-5.7 2.5-1.3 1.7-2 3.8-2 6.5v13.9H496v-20.2zM523.6 289.1c1.6 0 3.2.2 4.6.7 1.5.5 2.8 1.2 3.9 2.1l-1.7 3c-2-1.5-4.3-2.2-6.9-2.2-2.8 0-4.9.9-6.3 2.7-1.4 1.8-2.1 4.2-2.1 7.3 0 3 .7 5.4 2.1 7.2 1.4 1.8 3.5 2.8 6.2 2.8 2.3 0 4.7-.7 7-2.2l1.6 3c-2.6 1.9-5.5 2.8-8.8 2.8-2.9 0-5.3-.7-7.2-2-1.9-1.3-3.2-3-4-5.1-.8-2.1-1.2-4.3-1.2-6.7 0-4.1 1.1-7.4 3.4-9.9 2.3-2.3 5.4-3.5 9.4-3.5zM557.3 304.3h-19.2c.2 2.6 1 4.7 2.4 6.3 1.4 1.6 3.5 2.3 6.1 2.3 1.6 0 3-.2 4.2-.6 1.2-.4 2.5-1.1 3.7-1.9l1.9 2.8c-1.5 1.1-3 1.8-4.6 2.4s-3.5.8-5.5.8c-4 0-7.1-1.3-9.3-3.8-2.2-2.5-3.3-5.8-3.3-10 0-2.7.5-5 1.4-7.1.9-2 2.3-3.6 4.1-4.7 1.8-1.1 4-1.7 6.5-1.7 3.8 0 6.6 1.2 8.6 3.7 2 2.4 3 5.7 3 9.7.1.8.1 1.4 0 1.8zm-4.1-3.4c-.1-2.6-.7-4.6-2-6.2-1.3-1.6-3.1-2.3-5.4-2.3-2.4 0-4.3.8-5.6 2.4-1.3 1.6-2 3.6-2.1 6.1h15.1z"/><g><path style="fill:#00a1e0" d="m306.5 278.8-3.2-8.7-3.3 8.7-9.4.5 7.4 5.7-2.6 9.2 7.9-5.4 7.8 5.4-2.6-9.2 7.4-5.7z"/><path class="st3" d="m303.3 270.1-3.3 8.7-9.4.5 7.4 5.7-2.6 9.2 7.9-5.4"/><g><path class="st4" d="M303.5 341.1c-7.4-6.3-15.3-12.3-23.7-17.9-.2-3.2-.5-6.3-.7-9.5 8.6 5.6 16.8 11.6 24.4 17.9v9.5zM303.5 341.1c7.4-6.3 15.3-12.3 23.7-17.9.2-3.2.5-6.3.7-9.5-8.6 5.6-16.8 11.6-24.4 17.9v9.5z"/><path class="st5" d="M303.5 327.7c-7.8-6.3-16-12.2-24.7-17.8-.2-3.2-.5-6.3-.7-9.5 9 5.6 17.5 11.5 25.5 17.8-.1 3.2-.1 6.3-.1 9.5z"/><path class="st5" d="M303.5 327.7c7.8-6.3 16-12.2 24.7-17.8.2-3.2.5-6.3.7-9.5-9 5.6-17.5 11.5-25.5 17.8.1 3.2.1 6.3.1 9.5z"/><path class="st4" d="M303.5 314.4c-8.1-6.3-16.7-12.2-25.8-17.8-.2-3.2-.5-6.3-.7-9.5 9.3 5.6 18.2 11.5 26.5 17.8v9.5z"/><path class="st3" d="M303.5 341.1c-7.4-6.3-15.3-12.3-23.7-17.9-.2-3.2-.5-6.3-.7-9.5 8.6 5.6 16.8 11.6 24.4 17.9v9.5zM303.5 327.7c-7.8-6.3-16-12.2-24.7-17.8-.2-3.2-.5-6.3-.7-9.5 9 5.6 17.5 11.5 25.5 17.8-.1 3.2-.1 6.3-.1 9.5zM303.5 314.4c-8.1-6.3-16.7-12.2-25.8-17.8-.2-3.2-.5-6.3-.7-9.5 9.3 5.6 18.2 11.5 26.5 17.8v9.5z"/><path class="st4" d="M303.5 314.4c8.1-6.3 16.7-12.2 25.8-17.8.2-3.2.5-6.3.7-9.5-9.3 5.6-18.2 11.5-26.5 17.8v9.5z"/></g></g></svg>