<svg version="1.1" id="Layer_1" xmlns="http://www.w3.org/2000/svg" x="0" y="0" width="720" height="216.7" style="enable-background:new 0 0 720 216.7" xml:space="preserve"><style>.st0{fill:#96262c}.st1{fill:#ae9566}</style><path class="st0" d="M51.2 81.6c-3.7-11.6-8.4-25-11-31.5 2.9-1.6 9.7-3.1 12.1-3.1 2.3 0 3.3 1.7 6.2 11.1 3.8 12.6 11.1 35.1 22.1 74.1 4.9-16.9 14.4-48 23.9-78.7-.2-1.4-.5-3.1-.8-4.3 3.1-1.3 6.5-2.2 9.9-2.2 1.7 0 2.5 1.3 3.3 3.8 2.2 6.2 10.3 34.3 23.5 82 16.4-50.3 24.1-73.6 27.8-85.8 1.1.1 5.8.4 8.8 1 2.7.5 3.3 2.3 2 6.6-3 9-5.4 16-8.8 25.8-7.5 20.8-17.1 48.7-23.2 65.6-1.4 3.5-2.3 5.1-3.8 6.1-1.3.8-6.4 1.8-9.6 1.8-4.1-15.2-13.4-48.8-23.6-83.5-5.4 18.3-18.6 60.9-22.8 75.2-1.2 4.1-2.3 5.7-4.3 6.7-1.9.8-5.8 1.6-8.9 1.6-2.4-8.4-13.8-44.7-22.8-72.3zM262.6 139.6c-.6 4.4-2.5 7.7-5.1 10-3.6 2.5-12.5 4.9-23.8 4.9-37.4 0-57.6-22.5-57.6-53.9 0-14.1 4.6-29.7 17.7-41.3C205.3 49 219 45.1 234.3 45.1c15.4 0 27 5.5 29.9 8.7-.2 2.9-1.1 5.4-2.5 6.7-1.3 1.4-3.6 1-6.4-.2-5.3-2.8-12.7-4.8-21.9-4.8-22.2 0-41.7 15.5-41.7 44 0 25.4 15.6 44.2 44.8 44.2 9.9 0 20.7-2.6 25.4-4.6l.7.5zM277.5 71c0-8.8 0-13.7-.6-21.9 2.9-.6 13-2.3 24.5-2.3 29.7 0 32.5 17.7 32.5 25.6 0 8.6-4.6 15.9-11.9 20.6 13.7 4.4 20.3 16.4 20.3 27.6 0 22.6-17.4 33.1-40.7 33.1-10.4-.2-13.6-.7-24.1-2.8V71zm14.1 20.1c4.2-.8 11.9-1.1 18.7-.9 4.3-1.6 9.3-7.5 9.3-16.1 0-9.9-5.8-17.8-20.8-17.8-2.5 0-5.2.3-7.2.7v34.1zm0 51.5c2.5.9 6.7 1.5 10.7 1.5 13.7 0 24.4-7.8 24.4-23.3 0-13.1-9.5-21-26-21-3.5 0-6.3.1-9.1.7v42.1zM434.3 139.6c-.6 4.4-2.5 7.7-5.1 10-3.6 2.5-12.5 4.9-23.8 4.9-37.4 0-57.6-22.5-57.6-53.9 0-14.1 4.6-29.7 17.7-41.3C377 49 390.6 45.1 405.9 45.1c15.4 0 27 5.5 29.9 8.7-.2 2.9-1.1 5.4-2.5 6.7-1.3 1.4-3.6 1-6.4-.2-5.3-2.8-12.7-4.8-21.9-4.8-22.2 0-41.7 15.5-41.7 44 0 25.4 15.6 44.2 44.8 44.2 9.9 0 20.7-2.6 25.4-4.6l.8.5z"/><path class="st1" d="M464.9 143.3c0 4.9-3.8 8.7-8.7 8.7-5.2 0-8.2-3.5-8.2-8.2 0-4.1 3-8.9 8.7-8.9 6.5 0 8.2 5.2 8.2 8.4zM492.3 95.1c7.9-9 15.5-12.5 23.7-12.5 11.2 0 17.1 8.9 17.2 16.8-.8 5.2-4.1 11.9-8.7 14.4-8.7 4.6-19.6 6-33.3 6-1.1 3.8-2.1 9.2-2.1 12.2 0 7.4 4 11.7 10.7 11.7 6.3 0 16.3-3.5 25-8.4.9 2.1 1.7 4.1 2.5 6.2-9 5.5-20.7 10.7-31.6 10.7-8.4 0-18.5-6.3-18.5-18.6.1-9.7 4.5-26.6 15.1-38.5zm8.2 1.9c-2.5 3.5-5.5 8.2-7.7 16 8.5.2 16.8-1.1 22.4-4 3.6-1.7 6.5-4.3 6.5-8.7 0-5.1-2.7-10.1-8.9-10.1-5 0-9 2.7-12.3 6.8zM581.6 131.3c-11.9 13.9-23.9 21-30.8 21.2-4-.5-9.2-3.6-11.7-8.2-1.1-1.7-1.6-4.1-1.6-6.3 0-6.8 2.2-16.1 5.2-24.2 4.9-13.3 16-31.1 31.8-31.1 6.6 0 12.2 2.7 16 5.7h.8c2.7-11.4 6-26.2 8.7-38.1l-14.1.6c-.2-2.4-.3-4.6-.3-6.6 13.1-1.7 21.8-4.3 22.9-4.3 1.1 0 3 1.9 4.1 3.5-2.7 11.7-20.5 88-23.1 99.7-.2.5.3.9.8.9 1.1 0 4.9-.8 9.8-2.5.6 2.2 1.1 4.4 1.4 6.5-7.1 2.7-13.6 4-18.5 4-.8 0-3.6-2.1-4.4-4 .5-2.5 2.1-8.4 4-16.4l-1-.4zm3-14.9c.9-3.8 3.5-14.2 4.4-19.1-3.5-4.3-9.2-6.2-14.1-6.2-9.2 0-16.3 10-20.2 20.1-3.2 8.1-5.5 18-5.5 24.7 0 5.5 2.8 7.4 5.8 7.4 8.9 0 27.2-18.8 29.6-26.9zM613.5 93.7c-.3-2.4-.5-4.4-.6-6.6 11.1-1.9 20.4-4.4 21.2-4.4 1.1 0 3.5 2.4 4 4.3-3.2 9.6-7.9 27.2-9.6 35.1-1.1 5.1-2.4 11.5-2.4 14.9 0 4.1 2.2 6 4.9 6 7.9 0 25.4-17.9 27.7-25.6 1.4-5.1 5.5-24.5 7.3-32.9 3.8-.2 7.4-.2 11.1-.2-1.7 7.9-10 45-12.6 58.8-.2.5.3.9.6.9 1.6 0 5.8-.9 11.4-2.7.6 2.2 1.1 4.4 1.4 6.6-7.1 2.7-14.7 4.1-19.4 4.1-.8 0-3.3-2.4-4.4-4.3.5-2.5 1.6-8.5 3.2-15.3l-.9-.2c-11.7 12.8-22.4 20.1-29.2 20.2-3.2-.5-7.7-3.2-10.3-6.6-1.3-1.7-1.7-4-1.7-6.6 0-8.1 5.7-30.3 10.6-46.6l-12.3 1.1z"/></svg>