<svg xmlns="http://www.w3.org/2000/svg" width="612" height="792" style="enable-background:new 0 0 612 792" xml:space="preserve"><style>.st1,.st3,.st6{fill-rule:evenodd;clip-rule:evenodd}.st1{fill:none;stroke:#231f20;stroke-width:1.8534;stroke-linecap:round;stroke-miterlimit:3.8637}.st3,.st6{fill:#231f20}.st6{fill:#00f;stroke:#00f;stroke-width:1.5849}.st6,.st7,.st8,.st9{stroke-miterlimit:3.8637}.st7{fill-rule:evenodd;clip-rule:evenodd;fill:#00f;stroke:#00f;stroke-width:1.7567}.st8,.st9{fill:red;stroke:red;stroke-width:1.5846}.st9{fill-rule:evenodd;clip-rule:evenodd}</style><g id="SmallLogo"><path class="st1" d="m319.8 354.2-7.8-12.1M457.3 324.1 441.7 337M221 267.4l-2.9 9.5M196.4 276.9l3.5-9.5M90.7 346.8c6.8 36.1 91.1 45.2 129.2 18.5M141.1 267.4l-2.8 9.5M116.6 276.9l3.5-9.5M160 295.7c-.1 3 2.6 5.7 5.4 5.8M239 295.6c-.1 3 2.6 5.7 5.4 5.8M161.7 344.5v7.7h18.8v4.2M160.8 327.7c7.8.7 14.9 4.7 19.7 11l41-8.3M94.4 270.4l9.5 30.6h14.6M128.7 289.5l5.7 11.5H149M174.2 270.4l9.5 30.6h14.7M208.5 289.5l5.7 11.5h14.7M272 326.6l-45.2 51.5h63l7.1-9.8h31.7l7.2 9.8h49.5M376 326.8l44.2 31.8v19.5h43"/><path style="fill-rule:evenodd;clip-rule:evenodd" d="m320.1 353.8.4.7h-1.2l.1-.2z"/><path class="st3" d="M98.4 448.2v-26.9h5.8l3.5 18.4 3.4-18.4h5.9v26.9h-3.6V427l-3.8 21.2h-3.8L102 427v21.2zM120.3 448.2v-26.9h14.3v4.6h-10.4v5.9h9.6v4.6h-9.6v7.3h10.7v4.5zM149.9 438.3l3.8 1.6c-.6 3-1.5 5.2-2.9 6.6-1.3 1.4-3.1 2.2-5.1 2.2-2.6 0-4.7-1.2-6.3-3.7-1.7-2.4-2.5-5.8-2.5-10 0-4.5.8-8 2.5-10.5s3.8-3.7 6.5-3.7c2.4 0 4.3 1 5.8 2.9.9 1.2 1.5 2.8 2 5l-3.9 1.3c-.2-1.4-.7-2.5-1.4-3.3-.7-.8-1.6-1.2-2.6-1.2-1.4 0-2.6.7-3.5 2.1-.9 1.4-1.3 3.8-1.3 7 0 3.4.4 5.8 1.3 7.3.9 1.4 2 2.2 3.4 2.2 1 0 1.9-.5 2.7-1.4.7-1 1.2-2.4 1.5-4.4zM156.4 448.2v-26.9h3.9v10.6h7.7v-10.6h3.9v26.9H168v-11.7h-7.7v11.7zM192.7 448.2h-4.2l-1.7-6.1h-7.7l-1.6 6.1h-4.1l7.5-26.9h4.1l7.7 26.9zm-7.2-10.6-2.7-10-2.6 10h5.3zM194.1 448.2v-26.9h3.8l8 18v-18h3.6v26.9h-3.9l-7.9-17.7v17.7zM212.8 421.3h3.9v26.9h-3.9zM232.2 438.3l3.8 1.6c-.6 3-1.5 5.2-2.9 6.6-1.3 1.4-3.1 2.2-5.1 2.2-2.6 0-4.7-1.2-6.3-3.7-1.7-2.4-2.5-5.8-2.5-10 0-4.5.8-8 2.5-10.5s3.8-3.7 6.5-3.7c2.4 0 4.3 1 5.8 2.9.9 1.2 1.5 2.8 2 5l-4 1.3c-.2-1.4-.7-2.5-1.4-3.3-.7-.8-1.6-1.2-2.6-1.2-1.4 0-2.6.7-3.5 2.1-.9 1.4-1.3 3.8-1.3 7 0 3.4.4 5.8 1.3 7.3.9 1.4 2 2.2 3.4 2.2 1 0 1.9-.5 2.7-1.4.7-1 1.2-2.4 1.6-4.4zM256 448.2h-4.2l-1.7-6.1h-7.7l-1.6 6.1h-4.1l7.5-26.9h4.1l7.7 26.9zm-7.1-10.6-2.7-10-2.6 10h5.3zM257.6 448.2v-26.7h3.9v22.2h9.7v4.5zM292.1 438.3l3.8 1.6c-.6 3-1.5 5.2-2.9 6.6-1.3 1.4-3.1 2.2-5.1 2.2-2.6 0-4.7-1.2-6.3-3.7-1.7-2.4-2.5-5.8-2.5-10 0-4.5.8-8 2.5-10.5s3.8-3.7 6.5-3.7c2.4 0 4.3 1 5.8 2.9.9 1.2 1.5 2.8 2 5L292 430c-.2-1.4-.7-2.5-1.4-3.3-.7-.8-1.6-1.2-2.6-1.2-1.4 0-2.6.7-3.5 2.1-.9 1.4-1.3 3.8-1.3 7 0 3.4.4 5.8 1.3 7.3.9 1.4 2 2.2 3.4 2.2 1 0 1.9-.5 2.7-1.4.6-1 1.2-2.4 1.5-4.4zM297.8 434.9c0-2.7.3-5.1.9-6.9.4-1.4 1-2.6 1.8-3.7s1.6-1.9 2.5-2.4c1.2-.7 2.6-1.1 4.2-1.1 2.8 0 5.1 1.2 6.8 3.7 1.7 2.5 2.6 5.9 2.6 10.3s-.8 7.8-2.5 10.2c-1.7 2.5-4 3.7-6.8 3.7-2.9 0-5.2-1.2-6.9-3.7-1.8-2.4-2.6-5.8-2.6-10.1zm4-.2c0 3.1.5 5.4 1.5 6.9 1 1.6 2.3 2.4 3.9 2.4s2.8-.8 3.8-2.3c1-1.6 1.5-3.9 1.5-7s-.5-5.4-1.5-6.9-2.3-2.3-3.9-2.3-2.9.8-3.9 2.3c-.9 1.5-1.4 3.8-1.4 6.9zM318.9 448.2v-26.9h3.8l7.9 18v-18h3.7v26.9h-4l-7.8-17.7v17.7zM342.1 448.2v-22.3h-5.7v-4.6h15.3v4.6H346v22.3zM353.6 448.2v-26.9h8.2c2.1 0 3.6.2 4.5.7.9.5 1.7 1.3 2.2 2.6.6 1.2.8 2.7.8 4.2 0 2-.4 3.7-1.3 5-.8 1.3-2.1 2.1-3.8 2.5.8.7 1.5 1.4 2.1 2.3.5.8 1.3 2.3 2.2 4.4l2.4 5.3h-4.7l-2.8-5.9c-1-2.1-1.7-3.4-2.1-3.9-.4-.5-.8-.9-1.2-1.1-.4-.2-1.1-.3-2-.3h-.8v11.2h-3.7zm3.9-15.5h2.9c1.9 0 3-.1 3.5-.3.5-.2.8-.6 1.1-1.1.3-.5.4-1.2.4-2 0-.9-.2-1.6-.5-2.2-.3-.6-.8-.9-1.5-1.1-.3-.1-1.3-.1-2.8-.1h-3v6.8z"/><path class="st3" d="M389.8 448.2h-4.2l-1.7-6.1h-7.7l-1.6 6.1h-4.1l7.5-26.9h4.1l7.7 26.9zm-7.1-10.6-2.7-10-2.6 10h5.3zM403.6 438.3l3.8 1.6c-.6 3-1.5 5.2-2.9 6.6-1.3 1.4-3.1 2.2-5.1 2.2-2.6 0-4.7-1.2-6.3-3.7-1.7-2.4-2.5-5.8-2.5-10 0-4.5.8-8 2.5-10.5s3.8-3.7 6.5-3.7c2.4 0 4.3 1 5.8 2.9.9 1.2 1.5 2.8 2 5l-3.9 1.3c-.2-1.4-.7-2.5-1.4-3.3-.7-.8-1.6-1.2-2.6-1.2-1.4 0-2.6.7-3.5 2.1-.9 1.4-1.3 3.8-1.3 7 0 3.4.4 5.8 1.3 7.3.9 1.4 2 2.2 3.4 2.2 1 0 1.9-.5 2.7-1.4.7-1 1.2-2.4 1.5-4.4zM414.5 448.2v-22.3h-5.7v-4.6h15.3v4.6h-5.7v22.3zM424.7 434.9c0-2.7.3-5.1.9-6.9.4-1.4 1-2.6 1.8-3.7s1.6-1.9 2.5-2.4c1.2-.7 2.6-1.1 4.2-1.1 2.8 0 5.1 1.2 6.8 3.7 1.7 2.5 2.6 5.9 2.6 10.3s-.8 7.8-2.5 10.2c-1.7 2.5-4 3.7-6.8 3.7-2.9 0-5.2-1.2-6.9-3.7-1.7-2.4-2.6-5.8-2.6-10.1zm4.1-.2c0 3.1.5 5.4 1.5 6.9 1 1.6 2.3 2.4 3.9 2.4s2.8-.8 3.8-2.3c1-1.6 1.5-3.9 1.5-7s-.5-5.4-1.5-6.9-2.3-2.3-3.9-2.3-2.9.8-3.9 2.3c-1 1.5-1.4 3.8-1.4 6.9zM445.9 448.2v-26.9h8.2c2.1 0 3.6.2 4.5.7.9.5 1.7 1.3 2.2 2.6.6 1.2.8 2.7.8 4.2 0 2-.4 3.7-1.3 5-.8 1.3-2.1 2.1-3.8 2.5.8.7 1.5 1.4 2.1 2.3.5.8 1.3 2.3 2.2 4.4l2.4 5.3h-4.7l-2.8-5.9c-1-2.1-1.7-3.4-2.1-3.9-.4-.5-.8-.9-1.2-1.1-.4-.2-1.1-.3-2-.3h-.8v11.2h-3.7zm3.9-15.5h2.9c1.9 0 3-.1 3.5-.3.5-.2.8-.6 1.1-1.1.3-.5.4-1.2.4-2 0-.9-.2-1.6-.5-2.2-.3-.6-.8-.9-1.5-1.1-.3-.1-1.3-.1-2.8-.1h-3v6.8z"/><path d="M470.1 451.5z" style="fill-rule:evenodd;clip-rule:evenodd;fill:#0fb5e3"/><path d="M467.6 444.2c.5.5.8 1.2.8 2 0 .3 0 1-.1 1.3 0 1.3-.2 2-.3 2.8-.2.9-.5 1.6-1 2.3-.5.7-1.2 1.2-2 1.6l-.4-1c.6-1 1.2-1.7 1.5-2.3.3-.5.3-1.5.3-2.4-1.1 0-2-1.1-2-2.4 0-1.3.9-2.4 2-2.4.4 0 .9.2 1.2.5z"/><path class="st3" d="M485.5 433.8h2.3v14h-2.3zM490.1 447.8v-14h2.3l4.7 9.4v-9.4h2.2v14H497l-4.7-9.2v9.2zM509.2 442.6l2.3.8c-.3 1.5-.9 2.7-1.7 3.4-.8.7-1.8 1.1-3.1 1.1-1.5 0-2.8-.6-3.8-1.9-1-1.3-1.5-3-1.5-5.2 0-2.3.5-4.1 1.5-5.4 1-1.3 2.3-1.9 3.9-1.9 1.4 0 2.6.5 3.5 1.5.5.6.9 1.5 1.2 2.6l-2.3.7c-.1-.7-.4-1.3-.9-1.7-.4-.4-1-.6-1.6-.6-.9 0-1.6.4-2.1 1.1-.5.7-.8 1.9-.8 3.6 0 1.8.3 3 .8 3.8.5.8 1.2 1.1 2.1 1.1.6 0 1.2-.2 1.6-.7.4-.5.7-1.2.9-2.3zM513.5 445.1h2.2v2.7h-2.2z"/><path class="st6" d="M254.5 383c1.6 2.2 4.2 3.5 6.8 3.5 2.7 0 5.2-1.3 6.8-3.5v15.5h-13.7V383zM356.5 383c1.6 2.2 4.2 3.5 6.8 3.5 2.7 0 5.2-1.3 6.8-3.5v15.5h-13.7V383zM291.3 389h6.3v3.2h7.4v3.3h14.7v-3.3h7.3V389h6.3v-2.2h5.3v-3.3h8.4v14.9h-69.3v-14.9h8.4v3.3h5.2zM247.2 403.9h130.2l13.7 9.8H233.5z"/><path class="st7" d="M277.6 245.6v-2.3H305c.1-1.1.2-5.3-.5-6.1l-1.1-.5v-2h17.9v2l-1.1.5c-.7.9-.6 5-.5 6.1H347v2.3h-27.3v26.3c15.6.1 50.4 4.3 50.4 27.1l.1 45.6-13.7-15.6v-30c0-12-30-12.9-36.8-12.9v11.8H347v20.8h-8.4v-3.3h-5.2v-2.2H327v-3.3h-7.4v-3.3H305v3.3h-7.4v3.3h-6.3v2.2h-5.2v3.3h-8.4v-20.8H305v-11.8c-6.8 0-36.8.9-36.8 12.9v32l-13.7 15.6V299c0-22.9 34.9-27.1 50.5-27.1v-26.3h-27.4V243v2.6z"/><path class="st7" d="M346.8 244.6c0-2.2 1.7-3.9 3.8-3.9 2.1 0 3.8 1.8 3.8 3.9 0 2.2-1.7 3.9-3.8 3.9-2.1 0-3.8-1.8-3.8-3.9zM270.4 244.6c0-2.2 1.7-3.9 3.8-3.9 2.1 0 3.8 1.8 3.8 3.9 0 2.2-1.7 3.9-3.8 3.9-2.1 0-3.8-1.8-3.8-3.9z"/><path class="st8" d="m197.8 281.5 5.2-14.1h11.6l5.2 14.1 4.3-14.1h16.8l-9.5 30.5h-14.7l-7.9-16.1-7.9 16.1h-14.7l-9.4-30.5h16.8zM377.5 323.1h47.2l20 16.3 20-16.3H512l-46.3 33.8v17.5h-42v-17.5zM117.9 281.6l5.3-14.2h11.6l5.2 14.2 4.2-14.2H161l-9.4 30.6h-14.7l-7.9-16.1-7.9 16.1h-14.7l-9.5-30.6h16.8zM178.9 309c-16.3-2.2-32.6-1.7-48.4 2.3-6.4 1.6-12.8 3.9-18.9 7.2-5.3 2.8-9.9 6.4-13.1 10.9-1.6 2.2-2.6 4.8-3.2 7.3-2.4 10.3 1.6 18 8.2 23.6 12.7 10.8 29.8 14.1 45.9 15.3 4.3.3 8.7.5 13 .5 10 0 22-1.8 32.9-5 8.1-2.4 21.2-7.9 28.7-14.8v-13.7h-59.9v6.6h18.8v7.4s-.4.2-1.3.5c-13.3 4.3-43.4 4.6-43.4-16.4 0-3.3 1.1-6.6 3.3-9.4 6.1-7.5 19.7-9.2 30.3-4 1.8.9 3.6 1.9 5.3 3.2 1.8 1.4 3.6 3 5.4 4.7l41.7-8.8c-.6-.4-1.6-1.2-2.2-1.6-14.1-9.5-27.4-13.7-43.1-15.8z"/><path class="st9" d="M163.2 294.1c0-2.1 1.3-3.9 3-3.9s3 1.7 3 3.9c0 2.1-1.3 3.9-3 3.9-1.6 0-3-1.7-3-3.9zM242 294.1c0-2.1 1.3-3.9 3-3.9s3 1.7 3 3.9c0 2.1-1.3 3.9-3 3.9-1.7-.1-3-1.8-3-3.9zM299.7 354.7l12.6-19.7 12.6 19.7h-25.2zm89.2 19.7h-49.5l-7.1-9.8h-39.9l-7.1 9.8h-49.5l45-51.3H344l44.9 51.3z"/></g></svg>