<svg version="1.1" id="Layer_1" xmlns="http://www.w3.org/2000/svg" x="0" y="0" width="612" height="792" style="enable-background:new 0 0 612 792" xml:space="preserve"><style>.st0{fill:#0082ca}</style><path class="st0" d="M344.8 353.1c-.4-20.9-17.5-37.9-38.5-37.9s-38.1 16.9-38.5 37.8c-13.7 5.9-23.3 19.6-23.3 35.4 0 21.2 17.3 38.5 38.5 38.5 8.7 0 16.8-2.9 23.2-7.8 6.5 4.9 14.5 7.8 23.2 7.8 21.2 0 38.5-17.3 38.5-38.5.1-15.8-9.5-29.4-23.1-35.3zm-23.4 32.2c-.8-9.9-5.4-18.8-12.3-25.2 4.3-3.1 9.3-5.2 14.7-6.1 3.2 5.9 6.3 13.3 9.3 22.3-3.2 3.7-7.2 6.8-11.7 9zm-15.1 29.2c-6.7-6-11.1-14.5-11.7-24.1 3.7 1.2 7.6 1.8 11.7 1.8 4 0 8-.6 11.6-1.8-.5 9.6-4.9 18.1-11.6 24.1zm-26.5-38c3-9.1 6.1-16.6 9.2-22.5 5.3.9 10.2 3 14.4 6.1-6.9 6.4-11.5 15.2-12.3 25.2-4.3-2.2-8.2-5.2-11.3-8.8zm-2.6-3.4c-3.4-5.1-5.5-11.1-5.8-17.6 3.6-1.3 7.6-2 11.6-2 .8 0 1.5 0 2.3.1-2.8 5.3-5.5 11.8-8.1 19.5zm13.7-22.4c5-8.3 10.2-12.6 15.5-12.6 5.2 0 10.4 4.3 15.5 12.5-5.8 1.2-11.1 3.6-15.6 7.1-4.5-3.4-9.7-5.8-15.4-7zm15.4 38c-4.1 0-8-.7-11.7-2 .5-9.7 4.9-18.3 11.7-24.4 6.8 6.1 11.2 14.7 11.7 24.4-3.7 1.3-7.6 2-11.7 2zm21.3-35.2c.6 0 1.3-.1 1.9-.1 4.1 0 8 .7 11.7 2-.3 6.3-2.3 12.2-5.6 17.2-2.6-7.4-5.3-13.8-8-19.1zm-21.3-34.7c18.6 0 33.9 14.6 34.9 32.9-3.7-1.2-7.6-1.8-11.7-1.8-1.3 0-2.6.1-3.8.2-6.1-10.3-12.5-15.5-19.3-15.5-6.8 0-13.2 5.2-19.2 15.6-1.4-.1-2.7-.2-4.1-.2-4 0-8 .6-11.6 1.8.9-18.5 16.2-33 34.8-33zM248 388.4c0-13.9 8.1-25.9 19.9-31.5.6 7.6 3.5 14.7 7.9 20.4-.1.4-.3.8-.4 1.2-5.3 16.9-8.6 34-9.7 40.3-10.5-6-17.7-17.4-17.7-30.4zm35 35c-5 0-9.7-1-14-2.9.9-5.1 4.1-22.5 9.5-40 3.5 3.6 7.7 6.6 12.4 8.6.2 10.9 4.9 20.8 12.5 27.7-5.7 4.1-12.8 6.6-20.4 6.6zm46.5 0c-7.6 0-14.7-2.5-20.4-6.6 7.5-6.9 12.3-16.7 12.4-27.6 4.9-2.1 9.2-5.2 12.8-9 5.4 17.1 8.7 34.3 9.8 40-4.4 2-9.4 3.2-14.6 3.2zm17.9-5c-1.3-6.8-4.6-23.4-9.8-39.9-.2-.6-.4-1.1-.5-1.6 4.3-5.7 7-12.5 7.6-20 11.7 5.7 19.8 17.7 19.8 31.5 0 12.7-6.9 23.9-17.1 30zM387.4 450.9c-3.6 0-5.3 2.1-5.8 2.9v-2.4h-3.8v27.1h3.8v-8.6c.8 1 2.5 2.7 5.5 2.7 4.3 0 7.3-3 7.3-11s-2.6-10.7-7-10.7zm-1.6 18.4c-3.7 0-4.1-4.2-4.1-4.2v-6.5c0-1 1-4.4 4.5-4.4 3.4 0 4.3 2.7 4.3 7.8-.1 5-1.1 7.3-4.7 7.3zM407.2 450.9c-3.6 0-5.3 2.1-5.8 2.9v-2.4h-3.8v27.1h3.8v-8.6c.8 1 2.5 2.7 5.5 2.7 4.3 0 7.3-3 7.3-11 .1-8-2.6-10.7-7-10.7zm-1.6 18.4c-3.7 0-4.1-4.2-4.1-4.2v-6.5c0-1 1-4.4 4.5-4.4 3.4 0 4.3 2.7 4.3 7.8 0 5-1 7.3-4.7 7.3zM208.1 468.5h-1.2c-.8 0-1.4-.2-1.8-.5-.3-.4-.5-1-.5-2v-11.6h4.4v-3h-4.4V445H201v6.4h-2.8v3h2.8v13c0 1.4.4 2.5 1.1 3.2.8.7 1.9 1 3.5 1 .7 0 1.3 0 1.9-.1.5-.1 1-.2 1.4-.3v-3c-.2.2-.5.3-.8.3zM226.8 452.7c-1-1-2.4-1.5-4.2-1.5-1 0-2 .2-3.1.7-1 .5-2.1 1.2-3.2 2.2v-10.3h-3.6v27.6h3.6v-14.6c.9-.9 1.8-1.5 2.7-2 .9-.4 1.7-.7 2.5-.7 1 0 1.8.3 2.3.9.5.6.8 1.6.8 2.9v13.4h3.6V457c.1-1.9-.4-3.3-1.4-4.3zM240.4 466.1l-5.2-14.7h-3.6l7.1 19.5c-.3 1.6-.8 2.8-1.5 3.4-.7.7-1.6 1-2.8 1h-1c-.3 0-.5-.1-.8-.1v3.2c.3.1.6.1.9.2.3 0 .7.1 1.2.1 1.8 0 3.2-.5 4.3-1.5 1.1-1 2.1-3 3.1-6l6.6-19.6h-3.6l-4.7 14.5zM258.2 459.3c-1.5-.6-2.5-1.1-3-1.5-.5-.4-.7-.9-.7-1.6 0-.7.3-1.3.8-1.7.5-.4 1.2-.6 2.1-.6.8 0 1.6.2 2.3.6.7.4 1.5 1 2.2 1.8l2.3-2.2c-.9-1.1-2-1.9-3.1-2.4s-2.4-.8-3.8-.8c-1.9 0-3.4.5-4.6 1.6-1.2 1-1.8 2.4-1.8 4 0 1.3.4 2.4 1.2 3.3.8.9 2.2 1.7 4.2 2.5.2.1.6.2 1 .4 2.6.9 3.9 2.1 3.9 3.3 0 .8-.3 1.5-.9 2-.6.5-1.4.8-2.4.8s-1.9-.2-2.7-.7c-.8-.5-1.7-1.3-2.5-2.3l-2.6 2.1c.9 1.3 2 2.2 3.3 2.9 1.3.7 2.7 1 4.3 1 2.1 0 3.8-.5 5.1-1.6 1.3-1.1 1.9-2.5 1.9-4.3 0-1.4-.5-2.6-1.4-3.6-.7-1-2.5-2-5.1-3zM275.2 459.3c-1.5-.6-2.5-1.1-3-1.5-.5-.4-.7-.9-.7-1.6 0-.7.3-1.3.8-1.7.5-.4 1.2-.6 2.1-.6.8 0 1.6.2 2.3.6.7.4 1.5 1 2.2 1.8l2.3-2.2c-.9-1.1-2-1.9-3.1-2.4s-2.4-.8-3.8-.8c-1.9 0-3.4.5-4.6 1.6-1.2 1-1.8 2.4-1.8 4 0 1.3.4 2.4 1.2 3.3.8.9 2.2 1.7 4.2 2.5.2.1.6.2 1 .4 2.6.9 3.9 2.1 3.9 3.3 0 .8-.3 1.5-.9 2-.6.5-1.4.8-2.4.8s-1.9-.2-2.7-.7c-.8-.5-1.7-1.3-2.5-2.3l-2.6 2.1c.9 1.3 2 2.2 3.3 2.9 1.3.7 2.7 1 4.3 1 2.1 0 3.8-.5 5.1-1.6 1.3-1.1 1.9-2.5 1.9-4.3 0-1.4-.5-2.6-1.4-3.6-.8-1-2.5-2-5.1-3zM296.1 467.9c-.8.5-1.7.8-2.8.8-1.6 0-2.8-.5-3.7-1.6-.9-1.1-1.3-2.6-1.3-4.6v-.4h12.3v-1c0-3.1-.7-5.5-2.1-7.3-1.4-1.8-3.3-2.6-5.7-2.6-2.6 0-4.7.9-6.1 2.8-1.4 1.8-2.1 4.4-2.1 7.8 0 3.3.7 5.8 2.2 7.5 1.4 1.7 3.5 2.6 6.3 2.6 1.7 0 3.2-.4 4.5-1.1 1.3-.8 2.4-1.9 3.2-3.4l-2.7-1.6c-.5.8-1.2 1.6-2 2.1zm-6.5-12.6c.8-.9 1.8-1.4 3.2-1.4 1.3 0 2.3.5 3 1.4.7.9 1.1 2.2 1.2 3.9h-8.6c0-1.7.5-3 1.2-3.9zM318.8 452.6c-1-1-2.3-1.5-4-1.5-1.1 0-2.1.2-3.1.7-1 .5-2.1 1.2-3.3 2.3v-2.7h-3.3v19.9h3.6v-14.6c.9-.9 1.7-1.5 2.6-2 .8-.4 1.6-.7 2.4-.7 1 0 1.7.3 2.2.9.5.6.7 1.6.7 2.9v13.4h3.6v-14.3c0-1.8-.5-3.2-1.4-4.3zM341.3 451.4h-3.9l-7.7 9.2v-16.9h-3.6v27.6h3.6v-6.5l3-3.4 5.3 9.9h4l-6.8-12.7zM354.6 451.1h-.4c-1.2 0-2.2.4-3.1 1.1-.9.7-1.7 1.8-2.3 3.2v-4h-3.5v19.9h3.7v-11.6c.6-1.6 1.4-2.8 2.4-3.6 1-.8 2-1.3 3.2-1.3h.3v-3.7h-.3zM369.7 451.4V466c-.9.9-1.7 1.5-2.5 2-.8.4-1.6.7-2.4.7-1 0-1.8-.3-2.2-.9-.5-.6-.7-1.6-.7-2.9v-13.4h-3.6v14.4c0 1.9.5 3.3 1.4 4.3.9 1 2.3 1.5 4 1.5 1.1 0 2.1-.2 3.1-.7 1-.5 2.1-1.2 3.3-2.3v2.7h3.3v-19.9l-3.7-.1z"/></svg>