<svg version="1.1" id="Layer_1" xmlns="http://www.w3.org/2000/svg" xmlns:xlink="http://www.w3.org/1999/xlink" x="0" y="0" width="396" height="344" style="enable-background:new 0 0 396 344" xml:space="preserve"><style>.st0{fill:#ed1b2f}</style><g id="_x34_202_x5F_HookNHorns_x5F_4C_1_"><defs><path id="SVGID_1_" d="M304.5 102.5c-1.2-5-3.3-10.3-6.2-15.3-.6-1.1-1.7-2.9-3.1-4.9-.8-1.1-1.5-2.3-2.4-3.4-2.3-2.9-5.2-5.9-9.3-9.4-2.5-2.2-5.6-4.6-9-6.9-2.1-1.4-4.2-2.6-6.6-4-3.6-2-7.8-3.9-12.2-5.7-3.1-1.2-6.2-2.4-9.6-3.4-8.3-2.6-17.2-4.3-25-5.3-11.7-1.5-21-1.4-22.5-1.4-2.6 0-6.9-.1-11 .1-3.5.2-7.6.6-9.8.8-1.4.1-3.3.3-5.2.6-1.5.2-3 .5-4.7.8-3.3.6-6.6 1.2-9.2 1.8-5.5 1.3-11.9 3.2-17.1 5.2-1.9.7-5.5 2.1-8.7 3.6-2.7 1.3-5.1 2.6-5.6 2.9-2.1 1.2-5.9 3.2-10.4 6.5-1.5 1.1-3.1 2.4-4.7 3.8-3.4 2.9-6.9 6.4-10 10.4-2.1 2.7-4 5.7-5.7 8.7-3 5.2-5.3 11.7-6.4 17.5-1.1 6-1.2 11.4-1.1 13.9.1 5.1 1.2 11.3 2.9 16.1 1.8 5.2 4.1 9.1 5.2 10.7.7 1.2 2.3 3.8 4.2 6.2 1.7 2.1 3.7 4.3 5.4 6.1 1.7 1.8 3.2 3.2 4.1 3.9.9.8 2.9 2.4 5.2 4.2 1.2.9 2.5 1.7 3.7 2.6-.7-.5 4.2 3 10.7 6.3 3 1.5 6.3 3.1 9.5 4.4 3.3 1.3 6.5 2.5 9.1 3.4 1.9.7 6 2 11 3.1 3.6.9 7.7 1.7 11.8 2.4 9.7 1.6 19.3 2 22 2 .7 0 1.9.1 3.2.1 1.7 0 3.8 0 5.8-.1 2.6-.1 5.2-.3 6.3-.3 1.9-.1 8.3-.7 14.5-1.7 3-.5 7.4-1.3 12.3-2.5 3.6-.9 7.4-2 11.1-3.2 1.1-.4 2.2-.7 3.3-1.1 1.5-.5 3-1.1 4.4-1.6 2.1-.8 4-1.7 5.6-2.5 1.1-.5 3.4-1.5 6.2-3.1 2.6-1.4 5.5-3.1 8.4-5 5.2-3.5 9-6.6 12.7-10.2 1.4-1.4 2.9-2.8 4.2-4.4 1.3-1.5 2.5-3.1 3.8-4.8.7-1 1.4-2 2.1-3.1.5-.8 1.2-1.9 1.8-3.1.8-1.5 1.5-3.1 2.2-4.7 1.2-2.7 2.1-5.4 2.6-7.3.7-2.2 1.2-5.2 1.6-8.1.3-2.4.4-4.7.4-6.4.1-4.1-.4-9.4-1.8-15.2zm-93.2-45.3c.4-.6.9-.6 2.1-.6 1 .1 5.4.5 10.2 1.4 4.5.8 9.1 1.9 11.5 2.5 2.3.6 6.1 1.7 9.6 3.1 3.8 1.5 7.5 3.3 9.5 4.4 1.7 1 3.8 2.2 5.6 3.8 2.2 1.9 4 4.3 4.2 6.8.1 1.8-.6 3.3-1.3 4.5-1 1.5-2.3 2.9-3.4 3.7-1.9 1.4-4.4 2.8-8.9 4.4-2 .7-4.8 1.6-7.4 2.3-3.4.9-6.8 1.5-9 1.9-3.9.7-5 .8-6.4 1-1.4.2-1.8.1-2.2-.5-.1-.2-.3-1.1-.4-1.9-.2-1-.4-2.1-.6-3.2-.2-1-.6-3.1-1.1-5.1-.4-1.8-.9-3.5-1.2-4.7-.3-1.3-1-3.5-1.8-5.7s-1.7-4.3-2.3-5.6c-1.2-2.6-2.4-5-3.3-6.4-.9-1.5-1.5-2.4-2.2-3.4-.7-1-1.2-1.2-1.4-1.8.1-.2.1-.7.2-.9zm-24.9 37.7c.1-.8.6-3.5 1.4-6.3.7-2.4 1.5-4.8 2.2-6.6.9-2.1 2.3-4.7 3.9-6.2 1.2-1.1 2.7-1.7 3.8-1.7 1.2 0 2.7.6 4.1 2.1.6.7 1.4 1.6 2 2.7.4.7.8 1.5 1.2 2.3.9 1.9 2 4.9 2.7 7.7.9 3.7 1.3 7 1.4 7.4.1.6 0 .9-.4 1.2-.4.3-1.3.2-3.7.2h-6.9c-2.9 0-6.8-.1-8.1 0-.9 0-1.9 0-2.6-.1-.3 0-.6-.2-.8-.3-.3-.2-.5-.5-.5-.9.1-.4.2-.8.3-1.5zm-50.9-23c1.8-1.6 4-2.9 5.6-3.8 1.9-1.1 5.7-2.9 9.5-4.4 3.5-1.4 7.2-2.6 9.5-3.2 2.3-.6 7.1-1.8 11.6-2.6 4.8-.8 9.1-1.2 10.2-1.3h1c.5 0 .8.1 1 .5.2.3.4.6.2.9-.3.5-.6.8-1.3 1.8-.8 1-1.3 1.9-2.2 3.4-.6.9-1.3 2.2-2.1 3.7-.4.9-.9 1.9-1.3 2.8-.6 1.3-1.4 3.4-2.2 5.5-.9 2.6-2.7 8.9-3 10.3-.5 2-.9 4.1-1.1 5.1-.2 1-.3 2.2-.5 3.2-.1.8-.3 1.5-.4 1.8-.1.2-.3.5-.5.6-.3.1-.9 0-1.8-.1-1.4-.2-2.6-.3-6.5-1-2.2-.4-5.6-1.1-9-2-2.7-.7-5.3-1.4-7.2-2.1-4.4-1.6-7-3.2-8.9-4.6-1.1-.8-2.4-1.9-3.4-3.5-.8-1.2-1.4-2.6-1.3-4.5 0-2.3 2-4.6 4.1-6.5zm49.1 105c-.1.2-.4.4-.7.5-.4 0-1.1.1-1.8 0-3-.3-10.2-1.2-19.1-3.6-4.5-1.2-9.3-2.8-14.4-5-3.1-1.3-6.1-3.2-9.3-5-1.7-1-3.6-1.9-5.3-3-2-1.3-3.9-2.8-5.6-4.2-2.4-2-4.4-4.1-6.1-5.9-2.6-2.7-4.6-4.8-5.4-5.9-1.2-1.6-3.5-5-5.2-8.6-1.3-2.7-2.3-5.6-3-7.9-.8-2.9-1.5-7.5-1.5-11.7 0-1.7.1-5 .5-7.9.5-3.2 1.4-6.3 1.8-7.4.4-1.2 1.1-3.1 1.8-4.6.4-1 .8-1.9 1.2-2.4.2-.2.4-.3.6-.4.2-.1.5-.1.6-.1.1 0 .3.1.4.2.1.1.3.2.3.3.1.2.4.5.7 1 .3.6 1 1.5 2.2 2.8 1.2 1.3 2.7 2.7 4.7 4.2 1 .7 2.7 1.9 4.8 3.2 2 1.2 4.3 2.4 6.6 3.5 5.2 2.4 10.8 4.1 13.5 4.9 2.4.6 6.6 1.7 10.7 2.4 5 1 9.5 1.6 9.9 1.7.6.1 1 .5 1.1 1.1 0 .6.3 3.3.6 7.9.1 1.9.4 5.1.9 8.8.3 2.4.7 5 1.1 7.6.5 3 1.2 5.8 1.8 8.5.5 2.1 1.3 4.7 2.3 7.3 1.1 3 2.3 6 3.7 8.6 1 1.8 2 3.4 2.9 4.6 1.3 1.9 2.4 3.1 2.5 3.4.4.3.3.8.2 1.1zm25.1-48.7c-.4 2.9-1.5 7.9-2.2 10.6-.4 1.6-1.6 5.9-3.5 9.4-1.6 3-3.8 5.5-6.4 5.5-2.4 0-4.4-2.2-6-5-2.2-3.8-3.5-8.7-3.9-10.4-.7-2.7-1.4-7.1-1.9-10.2-.4-2.9-.8-7.4-.7-7.9 0-.2.3-.5.6-.6.3-.1.7-.1 1.1 0 .7 0 7.2.1 11.5.1 4.4 0 4.3.1 7.7 0 2.1 0 3.4-.2 3.9 0 .3.2.5.6.5 1.1 0 1.3-.4 5.1-.7 7.4zm76.8.2c-.7 2.3-1.6 5.2-2.9 7.9-1.7 3.6-4.1 7-5.3 8.6-.8 1.1-2.5 3.2-5.2 5.9-.9 1-2.1 2.1-3.2 3.1-1 .9-2 1.8-3.1 2.7-1.2 1-2.5 2-3.8 3-2.2 1.6-4.4 3.1-6.8 4.5-3.1 1.8-6.4 3.4-9.5 4.7-2.4 1-4.6 2-6.9 2.7-2.6.9-5.2 1.7-7.6 2.3-8.9 2.4-15.8 3.3-18.9 3.6-.7.1-1.5.1-1.8 0-.3-.1-.6-.3-.6-.5-.1-.3-.1-.7.1-1 .2-.3 1.5-1.7 3-3.9.8-1.1 1.5-2.5 2.3-4 1-1.9 1.9-3.9 2.8-6 1.4-3.5 2.6-7.2 3.3-9.9.7-2.7 1.4-5.6 1.9-8.6s1-6 1.3-8.7c.4-3.2.6-5.9.7-7.7.3-4.6.4-7.3.4-7.9 0-.6.4-.9 1-1 .3-.1 5.1-.8 10.2-1.8 4-.8 8.1-1.7 10.4-2.4 1-.3 2.5-.7 4.2-1.2 2.7-.9 6.1-2.1 9.3-3.7 2.2-1 4.4-2.2 6.3-3.3 2.3-1.3 4.1-2.6 5.1-3.4 1.6-1.2 3-2.4 4.1-3.5 1.6-1.6 2.5-2.7 2.9-3.4.2-.3.5-.7.6-.9.2-.3.2-.5.4-.6h.4c.2 0 .4 0 .6.1.2.1.5.2.7.5.6.9 2.3 5 2.9 7 .6 2 1.2 4.3 1.7 7.5.2 1.1.3 2.2.4 3.3.1 1.8.2 3.4.2 4.5-.1 4-.8 8.5-1.6 11.5z"/></defs><clipPath id="SVGID_2_"><use xlink:href="#SVGID_1_" style="overflow:visible"/></clipPath><g style="clip-path:url(#SVGID_2_)"><image style="overflow:visible" width="780" height="520" id="_x34_202_x5F_HookNHorns_x5F_4C_4_" xlink:href="6ADB0C5E.jpg" transform="translate(56.373 22.588) scale(.3623)"/></g></g><path class="st0" d="M89 211.4H44.8v9.8h16.3v41.6h11.6v-41.6H89v-9.8M132.2 245.4c-1.8 4.5-5.8 7.9-10.7 8.7-.9.1-1.8.2-2.7.2-.9 0-1.8-.1-2.7-.2-4.9-.9-8.9-4.2-10.7-8.7-1-2.5-1.6-5.3-1.6-8.2 0-2.9.6-5.7 1.6-8.3 1.8-4.5 5.8-7.9 10.7-8.7.9-.2 1.8-.2 2.7-.2.9 0 1.8.1 2.7.2 4.9.9 8.9 4.2 10.7 8.7 1 2.6 1.6 5.3 1.6 8.3-.1 2.8-.6 5.6-1.6 8.2m-13.4-35.5c-15 0-27.3 12.2-27.3 27.3 0 15 12.2 27.2 27.3 27.2 15 0 27.3-12.2 27.3-27.2 0-15.1-12.2-27.3-27.3-27.3zM146.2 211.4h13.7l12.7 22.1 12.7-22.1h13.6l-20.5 32.4v19h-11.6v-19l-20.6-32.4M226.4 254.3c.9 0 1.8-.1 2.7-.2 4.9-.9 8.9-4.2 10.7-8.7 1-2.6 1.6-5.3 1.6-8.3 0-2.9-.6-5.7-1.6-8.3-1.8-4.5-5.8-7.9-10.7-8.7-.9-.1-1.8-.2-2.7-.2-.9 0-1.8.1-2.7.2-4.9.9-8.9 4.2-10.7 8.7-1 2.6-1.6 5.3-1.6 8.3 0 2.9.6 5.7 1.6 8.3 1.8 4.5 5.8 7.9 10.7 8.7.9.2 1.8.2 2.7.2m-27.2-17.2c0-15.1 12.2-27.3 27.3-27.3 15 0 27.2 12.2 27.2 27.3 0 15-12.2 27.3-27.2 27.3-15.1 0-27.3-12.2-27.3-27.3zM332.6 242.5l-7.6-20.3-7.6 20.3h15.2m3.3 9H314l-4.2 11.3H297l20.8-51.4h14.4l20.8 51.4h-12.9l-4.2-11.3zM300.4 211.4h-44.2v9.8h16.3v41.6h11.6v-41.6h16.3v-9.8"/></svg>