<svg xmlns="http://www.w3.org/2000/svg" width="1224" height="792" style="enable-background:new 0 0 1224 792" xml:space="preserve"><path d="M150.3 711.9c220.4-94.5 529.7-180.1 939.3-94.4l4.3-103.9c-432.2-47.2-742.3 90.5-943.6 188v10.3z" style="fill-rule:evenodd;clip-rule:evenodd;fill:#e8a839"/><path d="m380.8 437.9 95.5-315h85.2l-95.5 315h-85.2zM342.7 123 266 256.5c-19.5 35-30.9 52.6-36.4 74.7h-1.2c1.4-28-2.5-62.4-2.9-81.9L217.1 123H73.6l-1.5 8.5c36.9 0 58.7 18.5 64.7 56.4l28 250h88.3L431.7 123h-89zm662.9 314.9-2.4-46.8-106.4-.1-21.8 46.9h-92.5l167.8-314.4h113.6l28.4 314.4h-86.7zm-9.8-185.8c-.9-23.3-1.7-54.9-.2-74h-1.3c-5.2 15.6-27.5 62.6-37.3 85.7l-31.7 69h74.7l-4.2-80.7zM651.1 446.8c-60.2 0-100.1-19.1-128.6-36.1l40.6-62c25.6 14.3 45.7 30.8 91.9 30.8 14.9 0 29.2-3.9 37.3-18 11.9-20.5-2.7-31.5-36-50.4l-16.4-10.7c-49.4-33.7-70.7-65.8-47.5-121.7 14.9-35.8 54.1-62.9 118.8-62.9 44.6 0 86.4 19.3 110.8 38.2l-46.7 54.8c-23.8-19.2-43.5-29-66.1-29-18 0-31.7 6.9-36.4 16.3-8.9 17.6 2.9 29.6 28.8 45.7l19.6 12.4c59.9 37.8 74.2 77.4 59.2 114.5-25.8 63.9-76.4 78.1-129.3 78.1zm464.5-275.2h-5.6v-34.1h13c8.2 0 12.5 2.9 12.5 9.8 0 6.2-3.8 8.7-8.9 9.3l9.6 15h-6.3l-8.8-14.6h-5.3v14.6h-.2zm6.3-19.4c4.2 0 7.9-.4 7.9-5.4 0-4.1-4-4.6-7.4-4.6h-6.8v10h6.3zm-.2 32.6c-17.7 0-30.3-13.3-30.3-30.8 0-18.6 14-30.8 30.3-30.8 16.2 0 30.2 12.3 30.2 30.8s-14 30.8-30.2 30.8zm0-56.3c-13.4 0-23.7 10.5-23.7 25.5 0 14 9.1 25.5 23.7 25.5 13.2 0 23.6-10.4 23.6-25.5s-10.4-25.5-23.6-25.5z" style="fill-rule:evenodd;clip-rule:evenodd;fill:#2e3192"/></svg>