<svg xmlns="http://www.w3.org/2000/svg" width="612" height="792" style="enable-background:new 0 0 612 792" xml:space="preserve"><style>.st1,.st3{display:inline}.st3{fill:none;stroke:#000;stroke-width:.5;stroke-miterlimit:2.6131}.st4{fill:#e31937}.st5{fill:#231f20}.st6{fill:#8bc53f}.st7{fill:#fff}.st8{display:inline;fill:none;stroke:#8bc53f;stroke-width:.5;stroke-miterlimit:10}.st10,.st11{fill-rule:evenodd;clip-rule:evenodd;fill:#8a898d}.st11{fill:#fff}.st12{fill:#8a898d}.st13{fill:#490e67}.st15{stroke:#fff;stroke-width:2.8017;stroke-miterlimit:10}.st15,.st16{fill:#898a8d}.st17{fill:#e5e5e5}.st21{clip-path:url(#SVGID_5_);fill:#f5f5f6}.st26,.st27,.st28,.st29,.st30{clip-path:url(#SVGID_5_);fill:#fbfbfb}.st27,.st28,.st29,.st30{fill:#fcfcfc}.st28,.st29,.st30{fill:#fdfdfd}.st29,.st30{fill:#fefefe}.st30{fill:#fff}.st50{clip-path:url(#SVGID_9_);fill:#f5f5f6}.st55,.st56,.st57,.st58,.st59{clip-path:url(#SVGID_9_);fill:#fbfbfb}.st56,.st57,.st58,.st59{fill:#fcfcfc}.st57,.st58,.st59{fill:#fdfdfd}.st58,.st59{fill:#fefefe}.st59{fill:#fff}</style><g id="Layer_2"><g id="XMLID_61_"><path id="XMLID_90_" class="st10" d="M309.6 330.9c19.7 0 35.6 16 35.6 35.6 0 19.7-16 35.6-35.6 35.6-19.7 0-35.6-16-35.6-35.6s16-35.6 35.6-35.6z"/><path id="XMLID_62_" class="st11" d="M323.7 361.6c-5.3-.1-6.3 7.9-1.5 9.6 0-3.2 3-5.7 5.9-4.6 0-2.7-2-4.9-4.4-5zm-23.4 4.9c0-2.7-2.1-5-4.7-4.9-5.1.1-6 7.9-1.3 9.6 0-3.2 3-5.7 6-4.7zm18.4-13.9c.1 2.1 1.6 3.9 3.5 4.6-.6-3.2 2.2-5.4 5.2-4.3-1.2-5.4-9-5.6-8.7-.3zm12 1.2c.3 2.2 1.9 4.3 3.6 4.6-.5-2 .1-4.2 2.1-3.9-1.6-4.9-6.4-5.3-5.7-.7zm-46.2 8.3c-2.7.2-3.5 4.6-2.2 7.1.4-3.5 3.7-5.2 5.4-2 .3-2.5-1.1-5.2-3.2-5.1zm20.2-9.6c-.1 2.2 1.5 4 3.6 4.5.1-2.9 3.3-4.9 6.2-4.2.2-2.6-2.1-4.8-4.9-4.8-2.6.1-4.8 2-4.9 4.5zm13-10.8c.2 1.5 1.8 3 3.8 3.6.5-1.1 2.4-1.3 3.9-.8 1.1-2.1-2.2-4.4-4.3-4.8-2.1-.4-3.6.4-3.4 2zm-8.1-6.6c2.3 0 4.5.2 6.6.7-.5.4 2.2 1.7 4.2 2.1 1.6.4 2.5.4 2.4 0 3.1 1.4 5.9 3.3 8.4 5.7-4.7-3.9-3.2 1.9.6 3.9-.6-1.7 1.3-1.3 1.7-.8l2.1 4.3c1 2.1 1.8 4 1.4 6.3-.6 3.4-.6 2.8-2.7 3-3 .3-4.6 3.4-4.6 6.1 0 3.3.2 5.4-3.3 6.3-1.5.4-3.3.3-4.7.9-1.9.8-2.8 2.9-4.8 3.1-3.3.3-2.9-2.6-7.3-2.6-3.7 0-5.4 3.1-7.2 2.8-1.9-.3-3.6-2.4-6.6-2.5-3.4-.2-3.9 1.4-5.6 1.5-2.7.2-1.4-2-5.5-2.6-2.3-.3-3.9 2-5.6-4.7l-.3-1.4c0-.8.5-1.4 1-.6 0-2.9-1-4.9-1.5-3 .1-1.3.3-2.5.6-3.7.4.4 1.6-2 2.1-4.2.4-1.5.4-2.4 0-2.4 5.1-10.7 16-18.2 28.6-18.2zm-28.5 44.6c.9.2-.7-4.5-.9-5 0 .7-.1 1-.5.6l-.3-.6-.4-.9-.1.4c.4 1.7.9 3.3 1.6 4.8l.6.7zm10.7 0c.3 2.3 2.3 4.3 4.6 4.6 4.1.4 5.3-4.2 2.9-7-.9 3.6-5.2 3.4-7.4.9-.1.5-.1 1-.1 1.5zm12.9.9c.1 2.5 2.3 4.4 4.9 4.4 4.2 0 6.5-4.8 3.6-7.7-1 3.5-5.8 4.5-8.3 2-.1.4-.2.8-.2 1.3zm14-.2c-.1 2.4 1.7 4.1 4.2 3.9 3.6-.4 6.4-5.5 3.3-8-.9 2.8-4.7 5-7.2 3-.2.4-.3.7-.3 1.1zm12-1.1c-.3 2.2.8 3.6 2.5 3.1 2.9-.9 5-7.2 1.9-7.8-.7 1.8-2.4 4.1-4.2 3.6-.1.3-.2.7-.2 1.1zm.8-12.7c0 2.5 1.5 4.5 3.3 4.3 2.9-.2 3.6-5.3 1.7-7.7 0 3.2-2.8 6-5 3.4zm6.7-10.8c.4 1.7 1.7 4.7 2.1 4.2.4-.4-1-4.3-1.2-4.7.5 1.8 0 2-1 .1 0 .1.1.2.1.4zM297.7 389c-1-.2-2-.7-2.8-1.3-3.1 1.2-.1 5 3.3 5.7 3.8.8 4.4-2.5 1.8-4.5-.6.2-1.4.3-2.3.1zm8.7.4c-2.7 2.2 0 5.1 3.3 5.1 3.7 0 6.2-3.4 2.8-5.4-1.6 1.2-4.4 1.3-6.1.3zm12.7-.3c-2.4 2.1-1.6 5.1 2 4.3 4.2-.8 6.4-5.4 2.5-5.9-1.2 1-3 1.8-4.5 1.6zm13.2-3.8c-1.6.5-3.4 2.4-3.9 4-.6 1.4.1 1.8 1.5 1.1 1.2-.8 2.8-2.3 3.5-3.5.8-1.5.3-2.2-1.1-1.6zm5.9-8c-.4 1.5-.4 3 .2 2.2l.3-.6s2.4-6.4 1.5-5.7c-.7.2-1.6 2.1-2 4.1zM322.8 395c.3-.9-5.7.7-6.5 2-.2.4.4.2.9.1 1.7-.4 3.3-.9 4.8-1.6.1-.1.7-.1.8-.5zm-9.5 2.4c.4-1.6-7.7-1.4-7.2 0 .3.9 6.8.9 7.2 0zM303 397c-.8-1.6-7.9-2.9-6.3-1.7l.6.3s6.5 2.5 5.7 1.4zm-13.6-6.7c3.5 1.9 1.1-3.7-2.4-5-3-1.2-1 2.8 2.4 5zm50-23.8c-.1 4.1 1.8 5.4 1.8 0s-1.9-4.1-1.8 0zM285 378.2c-.8-.3-1.6-1-2.2-1.9-.4 2.3 1.5 5.5 3.4 6.1 2.9.9 3.2-3.4 1.3-6-.3 1.4-1.3 2.1-2.5 1.8zm24.6-16.8c-5.6 0-7 7.7-1.9 9.8-.1-3.6 3.8-6 7-4.7 0-2.8-2.3-5-5.1-5.1z"/></g><path class="st12" d="M377.7 384.5H319.8c-3.4 0-6.3 1.4-8.2 3.6a9.64 9.64 0 0 0-4.2-2.9c-1.4-.5-3-.7-4.7-.7h-74l5 3.8 2.5 1.9 2.1 1.6 2.9 10.3 2.2 7.8.7 2.6c.4 1.3.9 3.3 3.4 3.3h.6c25.8-4.5 50.9-4.9 60.5-4.9h4.3c.5 0 3.4.2 4.9.2 27.1.3 44.6 3.2 50.3 4.2 1.7.3 2.2.4 2.6.4.5 0 .9-.1 1.4-.3l.2-.1.1-.1h.1c1.3-.8 1.4-2.2 1.4-3.6 0-.5.1-1.2.1-2 .1-1.6.3-4 .5-6.4.3-4.2.7-9.2.9-11.3l1.8-1.6 2-1.9 4-3.7h-5.5z"/><path class="st13" d="M375 386.6h-55.2c-4.4 0-7.7 2.6-8.2 6.4-.5-3.2-2.8-5.1-4.9-5.8-1.2-.4-2.5-.6-4-.6H235l2.5 1.9 2.7 2 3 11 2.2 7.8.7 2.6c.4 1.3.5 1.8 1.3 1.8h.2c25.9-4.5 51.2-5 60.9-5h4.4c.1 0 3.4.2 4.8.2 27.2.3 44.8 3.2 50.6 4.2 1.5.2 2 .3 2.3.3.2 0 .3 0 .5-.1h.2c.5-.3.3-1.3.6-4 .4-5 1.2-16.5 1.5-18.6l2.3-2.2 2-1.9H375z"/><path class="st7" d="m258.8 408.3-.7.1c-3.2-8.4-4.2-9.8-4.5-10.8-.4 1-1.2 2.8-3.7 12.1l-.8.1-3.4-14c-1.5-5-1.7-5.7-2.3-5.8v-.3H248.2v.3c-1 .1-.8.8.2 4.1.7 2.5 1 3.5 1.2 4.6.4-1 .8-1.9 1.9-4.4.7-1.4 1.5-3 2.1-4.3h.4c.6 1.2 1.3 2.7 2.1 4.3 1 2.4 1.4 3.3 1.8 4.3h.1c.2-1 .5-2 1.2-4.4 1-3.4 1.1-4.1.2-4.2v-.3h4.5v.3c-.6.1-.5.8-2 5.8l-3.1 12.5zM265.1 396c0-5.1 0-5.8-.8-5.9v-.3h8.9c0 1-.1 2-.1 3.4h-.3c-.1-.8-.8-.9-2.2-.9H268v4h2.2c1.4 0 1.8 0 1.9-.5h.3V399.2h-.3c-.1-.5-.5-.6-1.9-.6h-2.3v4.9c0 .4 0 .5.4.6 1 0 2-.1 3-.2 1.1-.1 1.5-.4 1.7-1.1h.3v4c-1.6.1-2.8.2-4.4.4-2.7.3-3.5.3-4.7.4v-.3c.8-.1.8-3.1.8-8.6V396zM285.6 400.8c0 1.6-.4 3.4-1.7 4.4-.9.7-2.3.9-4.6 1-.7 0-3.2.3-3.9.3v-.3c.8 0 .8-2.1.8-7.6V396c0-5.1 0-5.8-.8-5.9v-.3h1.8c.6 0 1.5-.1 2.3-.1 1 0 1.9.1 2.6.4 1.2.4 2.7 1.4 2.7 3.7 0 1.7-1.1 3-2.5 3.3 1.8.3 3.3 1.7 3.3 3.7zm-3.6-6.7c0-1.2-.9-2-2.2-2-.3 0-.7 0-.9.1v4h.6c.3 0 .7 0 1.1-.2.7-.3 1.4-.9 1.4-1.9zm.5 6.5c0-1.1-.8-1.7-1.5-2-.3-.1-.9-.2-1.3-.2h-.8v4.4c0 .3 0 .3.2.4h.8c.5 0 1.1-.1 1.5-.3.6-.2 1.2-.8 1.1-2.3zM288.2 396c0-5.1 0-5.8-.8-5.9v-.3h8.9c0 1-.1 2-.1 3.4h-.3c-.1-.8-.8-.9-2.2-.9h-2.6v4h2.2c1.4 0 1.8 0 1.9-.5h.3V399.2h-.3c-.1-.5-.5-.6-1.9-.6H291v3.6c0 .4 0 .5.4.6h3c1 0 1.5-.2 1.7-.8h.3v3.5c-1.4 0-3.1.1-4.6.2-2.3.1-3.9.1-4.6.1v-.3c.8-.1.8-1.3.8-6.8V396zM299.3 396c0-5.1 0-5.8-.8-5.9v-.3h4.2c1.1 0 2.1.1 2.9.4 1.4.5 2.8 1.8 2.8 4.2 0 1.8-.9 2.9-1.6 3.5-.4.3-.8.6-1.2.7v.1l3.6 4.8c.6.8 1.1 1.4 1.6 1.4v.3h-3.2c-.4 0-.7 0-.9-.2-1.2-1.8-2.5-3.8-3.9-5.8h-.7v.9c0 4.1 0 4.8.8 4.9v.4c-.5 0-1.4.1-2.2.1h-2.3v-.3c.8-.1.8-.9.8-6.5V396zm6.1-1.5c0-1.4-.9-2.3-2.5-2.3-.4 0-.7 0-.9.1v4.8h.7c.6 0 1.1-.2 1.6-.4.6-.5 1.1-1.2 1.1-2.2zM322.9 401.1c0 2.5-2 4.4-5.1 4.4-1.2 0-2.5-.3-3.1-.6 0-1 .1-1.9.1-3.5h.3c.1.5.4.9.8 1.1.5.3 1.1.4 1.7.4 1.3 0 2.2-.6 2.2-1.8 0-.7-.4-1.3-1.1-1.9-.5-.4-1.1-.9-1.7-1.3-1.4-1.1-2.2-2.3-2.2-3.9 0-2.4 1.8-4.3 5-4.3.9 0 1.9.1 2.4.3-.1 1.1-.1 2.1-.1 3.4h-.3c-.1-.4-.4-.7-.7-.9-.3-.2-.7-.3-1.2-.3-1.2 0-2.1.7-2.1 1.7 0 .7.3 1.1.8 1.6.5.4 1.1.9 2 1.6 1.4 1 2.3 2.2 2.3 4zM328.4 392.2h-2.7c-1 0-1.5.3-1.6 1h-.3v-3.4H336v3.4h-.3c-.2-.8-.6-1-1.6-1h-2.7v6.4c0 5.6 0 6.7 1 6.8v.3c-.7 0-1.6-.1-2.5-.1-.9 0-1.7-.1-2.4-.1v-.3c.9-.1.9-1 .9-6.6v-6.4zM338.5 402.1c-.9 2.1-1.2 3.5-.4 3.6v.3c-.8 0-1.6-.1-2.4-.1-1 0-1.7-.1-2.1-.1v-.3c.6-.1 1.1-1.3 3.5-6.8l3.9-9.1h.5l3.8 9.1c2.3 5.5 3.1 7.7 3.7 7.8v.4c-.5 0-1.3-.1-2.3-.2-.9-.1-1.8-.2-2.6-.2v-.5c.8-.1.2-1.9-.6-4h-5zm4-2.3c-1.1-3.1-1.4-3.9-1.5-4.3-.1.5-.4 1.2-1.6 4.3v.1h3.1zM350.9 392.2h-2.7c-1 0-1.5.3-1.6 1h-.3v-3.4h12.2v3.4h-.3c-.2-.8-.6-1-1.6-1h-2.7v6.4c0 5.6 0 8.4 1 8.4v.3c-.6-.1-1.5-.2-2.4-.2-.9-.1-1.7-.2-2.4-.2v-.3c.9-.1.9-2.4.9-7.9v-6.5z"/><g><linearGradient id="SVGID_10_" gradientUnits="userSpaceOnUse" x1="363.947" y1="409.851" x2="363.947" y2="387.527"><stop offset="0" style="stop-color:#f1f1f2"/><stop offset=".497" style="stop-color:#f5f5f6"/><stop offset=".546" style="stop-color:#fff"/><stop offset="1" style="stop-color:#e6e7e8"/></linearGradient><path d="M360.2 395.9c0-5.1 0-5.8-.8-5.9v-.3h8.9c0 1-.1 2-.1 3.4h-.3c-.1-.8-.8-.9-2.2-.9h-2.6v4h2.2c1.4 0 1.8 0 1.9-.5h.3V399.1h-.3c-.1-.5-.5-.6-1.9-.6H363v5.8c0 .4 0 .5.4.6.4.1 2.6.4 3 .4 1 0 1.5-.2 1.7-.8h.3c0 1.4-.1 3.7-.1 4.7-1.2-.2-2.7-.4-4.5-.7-2.1-.3-3.9-.5-4.6-.6v-.3c.8-.1.8-3.4.8-8.9v-2.8z" style="fill:url(#SVGID_10_)"/></g><g><path class="st13" d="M250 451.1h5.4v9.7h-1.6l-.6-1.4c-1 1.2-1.8 1.7-3.3 1.7-2.6 0-4.4-1.9-4.4-4.9v-9.9c0-2.7 1.6-4.9 4.8-4.9 3.3 0 4.9 2.4 4.9 5.3v1.2h-3.1c0-2.9-.6-3.6-1.9-3.6-.8 0-1.5.5-1.5 2.1v9.9c0 1.2.4 2 1.5 2 1.3 0 1.8-.7 1.8-2.7v-1.9h-2v-2.6zM258.7 446.3c0-2.7 1.6-4.9 5-4.9 3.5 0 5 2.2 5 4.9v9.9c0 2.7-1.6 4.9-5 4.9-3.5 0-5-2.2-5-4.9v-9.9zm3.3 9.8c0 1.4.4 2.1 1.8 2.1 1.3 0 1.8-.7 1.8-2.1v-9.7c0-1.4-.4-2.1-1.8-2.1-1.3 0-1.8.7-1.8 2.1v9.7zM271.8 460.8v-19.2h3.3V458h5.2v2.9h-8.5zM282.3 460.8v-19.2h9.2v2.9h-5.9v4.9h4.4v2.9h-4.4v8.5h-3.3zM306.6 448.1v-1.5c0-1.6-.7-2.3-1.6-2.3-1.3 0-1.8.7-1.8 2.1v9.7c0 1.4.4 2.1 1.8 2.1 1.2 0 1.6-.7 1.6-1.9V454h3.3v2.2c0 2.7-1.6 4.9-4.9 4.9-3.5 0-5-2.2-5-4.9v-9.9c0-2.7 1.6-4.9 5-4.9 3.3 0 4.9 2.4 4.9 5.3v1.4h-3.3zM313.1 460.8v-19.2h3.3V458h5.2v2.9h-8.5zM325.5 460.8h-3.2l3.5-19.2h4.1l3.5 19.2h-3.2l-.6-4.3H326l-.5 4.3zm1.1-7.1h2.7l-1.3-8.2h-.1l-1.3 8.2zM341.4 446.4c-.1-1.6-1-2.1-1.8-2.1-1.1 0-1.6.7-1.6 1.9 0 3.3 6.7 4.8 6.7 10 0 3.2-2.1 4.9-5.2 4.9s-4.8-2.4-4.9-5.3l3.1-.5c.1 1.9.9 2.9 2 2.9s1.9-.6 1.9-1.8c0-3.8-6.7-4.8-6.7-10.3 0-3.1 1.9-4.8 5.1-4.8 2.7 0 4.3 1.9 4.6 4.6l-3.2.5zM353.2 446.4c-.1-1.6-1-2.1-1.8-2.1-1.1 0-1.6.7-1.6 1.9 0 3.3 6.7 4.8 6.7 10 0 3.2-2.1 4.9-5.2 4.9s-4.8-2.4-4.9-5.3l3.1-.5c.1 1.9.9 2.9 2 2.9s1.9-.6 1.9-1.8c0-3.8-6.7-4.8-6.7-10.3 0-3.1 1.9-4.8 5.1-4.8 2.7 0 4.3 1.9 4.6 4.6l-3.2.5zM359.4 460.8v-19.2h3.3v19.2h-3.3zM373 448.1v-1.5c0-1.6-.7-2.3-1.6-2.3-1.3 0-1.8.7-1.8 2.1v9.7c0 1.4.4 2.1 1.8 2.1 1.2 0 1.6-.7 1.6-1.9V454h3.3v2.2c0 2.7-1.6 4.9-4.9 4.9-3.5 0-5-2.2-5-4.9v-9.9c0-2.7 1.6-4.9 5-4.9 3.3 0 4.9 2.4 4.9 5.3v1.4H373z"/></g><g><path class="st15" d="m279.1 427.7.3.4.2.1h.5l.8-.2.5-.2.2-.2.2-.1.8-.6.6-.7.2-.2v-.1l.3-.4.1-.2.2-.1.1-.2.4-.4.2-.4.4-.4h.5l.4.3.3.4.1.3-.1.5-.2.4-.2.2-.1.2-.2.2-.1.2-.2.1v.2h-.1l-.2.2-.4.5v.2l-.1.1-.1.2-.1.1-.1.2-.6.8-.3.2-.1.2h-.2l-.8.6-.4.2-.2.2-.9.2-1 .1h-.6l-.4.1-.2.1-.4.9-.3.6-.1.1v.7l-.1.2v.2l-.3.9-.2 1-.3.7-.3.4-.2.2-.4-.1-.8-.5-.3-.2-.7-.7-.2-.1-.2-.4-.1-.5.2-1 .2-.5.2-.9v-.1l.1-.1.1-.6.2-.5.1-.5-.1-.4-.3-.4-.3-.2-.5-.1-.1-.1-.2-.1h-.1l-.2-.2-.4-.1-.2-.2h-.2v-.1h-.2v-.1h.1v-.1l-.4-.2-.3-.2h-.3v-.1h-.1v-.1l-.8-.3-.4.2-.7.7-.2.2-.2.5-.2.2-.1.2-.3.3-.2.3-.2.1-.2.3h-.2l-.7.6-.2.2-.3.1-.1.2-.4.1-.1.1-.7.2-.2.2-.5.2-.4.1-.5.1-.1.1-1 .1h-.5l-.5.1-.9-.2-.7-.2-.6-.2h-.1l-.2-.2-.3-.1-.1-.1-.2-.1-.1-.1h-.2l-.5-.4-.4-.4-.4-.7-.2-.2-.3-.9-.1-.4-.2-1.1v-.4l.1-.5v-.5l.1-.1.2-1 .2-.4v-.1l.2-.2v-.2l.7-.7.3-.3.7-.5.4-.3 1-.2.3-.2.9-.2h.5l.2.1 1-.1h.5l1 .1.6.1.1.1h.2l.2.1.5.1.7.3 1 .3v.1h.2v.1h.1v.1h.2v.1h.1v.1l.4.1.4-.2.4-.4.2-.3.3-.3v-.2l.1-.1.4-.8.2-.4.2-.1v-.2l.2-.3.1-.3.2-.2.5-.9.4-.8v-.1l.2-.1.2-.4.1-.1.1-.3.2-.2v-.1l.2-.2v-.1l.2-.2v-.2l.2-.2.2-.5.2-.1v-.2h.1l.1-.2.2-.2v-.2l.2-.2.1-.2.4-.6.1-.1v-.2l.2-.2v-.1l.2-.2.5-.9.5-.8.3-.7.3-.4.1-.3.2-.1.2-.4.7-.6.7-.7.4-.2.3-.1.1-.1h.2l.4-.2h.8l.5.2.5.1.2.2.4.4.4.3.3.4.2.4v.2l.2.1.1.9-.1 1-.2.7v.3h-.1l-.2.9-.2.7-.1.1v.3h-.1l-.2 1-.2.9-.1.2v.3l-.1.1v.2l-.2.9v.4l-.3.9-.2.9-.1.1-.1.3h-.1v.2l-.1 1-.1.3-.1.2-.2 1-.3.9-.1.5h-.1l-.2.9-.2.5-.1.5-.1.1v.2l-.1.2-.2 1zm-18.3-3.1-.2.2-.2.1-.1.2h-.2l-.4.2-.3.2-.1.2-.2.2-.1.2-.2.2v.9l.1.5.3.9.4.4.3.1.2.2.4.1v.1l1 .2 1-.1 1-.3.7-.4.4-.2.2-.2h.2l.4-.4.2-.4.7-.7.3-.4.2-.5v-.2l-.1-.2-.4-.3-.5-.1-.4-.2-1-.3-.9-.2-1-.1-.9.1h-.8zm7 1 .1-.2-.1-.1h-.1l-.1.2.1.1h.1zm0 2.4h.2v-.1h-.2v.1zm.4-1.1v.1h.1l.2-.1v-.1l-.1-.1-.2.2zm.5-.5v-.1l-.1-.2h-.1v.1l.1.2h.1zm.3-2.2v.1l.1.1.2.1v-.2l-.2-.1h-.1zm.3 2 .1-.3h-.2l-.1.1.2.2zm0-.8.2.1.1-.1v-.1l-.1-.1h-.2v.2zm.6-.9.1.1.1-.1.2.1v-.2l-.2-.2v-.1h.2l.2.1v-.1l.2-.2-.3.2h-.2l-.2-.1h-.2l.1.5zm9.5-13.1-.3.1.2.1-.4.5v.2l-.4.6h-.1v.2l-.1.1-.2.5-.4.5v.1l-.2.1v.2l-.1.1v.2l-.2.1-.1.2-.5.9-.5.8-.4.6-.1.3-.5.8-.3.4v.2l-.2.2-.1.3-.6.8-.2.2-.2.6-.1.1-.2.4-.2.3v.2l-.3.3-.2.3-.6.8-.2.5-.2.5v.2l.2.4h.1l.1.2.9.5.9.4.9.5.6.2.3-.1.3-.4.2-.8.3-1 .2-1 .3-1 .2-1 .2-.9.3-.8.1-.1.2-1 .2-.8.3-.9.1-.3.2-1 .1-.5.2-.5v-.2l.1-.1v-.5l.3-.9.2-1h.1l.2-.7-.2-.4h-.2zm-4.4 4.4v-.3h-.2v.2l.2.1zm.7 15.6h.2l-.1-.2h-.1v.2zm.4-2.6v-.2l-.1-.1h-.2v.2l.3.1zm.3-.9h-.2v.3h.3l.1-.2.1-.2h-.1l-.2.1zm-.2 2.1.3-.1.1-.2-.1-.1-.3.4zm0 .8h.1v-.2h-.1v.2zm1.3-4.3-.1-.2h-.2l-.1.1v.1l.2.2v.2l-.2.2v.1l.2-.1.3-.2.1-.4h-.2zm0 2v.1l.2.1h.2v-.2l-.1-.1-.3.1zm.7.9-.2-.1v.1h.2zm-.1-4.7.1.1.4-.1.1-.1v-.1l-.2-.1h-.2l-.2.3zm.2-1.7h.1l.2-.2v-.2l-.1-.1h-.1l-.1.5zm.2-12.8.1.2.3.2.1-.5-.1-.2h-.2l-.2.3zm.6 12.4v-.2l-.1-.1-.2-.1h-.2v.1l.1.1.4.2zm.5-12.5v.1l.1.1.2-.1v-.2l-.3.1zm0 8.9h.2v-.1h-.2v.1zm.5.5.2-.2-.1-.2-.2-.1-.1.1v.2l.2.2zm0-9.5h.2l.1-.1-.1-.1-.2.2zm.5-.8-.2-.3-.1.1.1.2.4.2h.2v-.3l-.4.1zm.3 1.5-.2-.1v.1l.1.1.1-.1zm.8-1.5-.2-.1v.1l.4.2h.2v-.1l-.4-.1z"/><path class="st15" d="m291.1 410 1-.1H293.3l.3.2.2.3-.1.5-.3 1-.3.8-.2.6-.3.8-.1.3-.1.1-.4.9-.2.4-.2.2-.1.4h-.1v.1l-.1.1-.1.5-.2.3v.2l-.1.1-.4 1v.4l-.4.7-.2.4-.2 1-.4.8-.4.9-.4 1-.4.9-.3.9-.1.3-.1.1-.3.8-.3.8-.2.9-.1.6v.3l.1.2.4.4.4.1.5-.2.4-.2.5-.4.3-.3.2-.1.5-.7h.1l.2-.4.4-.3.1-.2.3-.3.6-.8.2-.2v-.2l.2-.1.1-.2.2-.1v-.2l.2-.2.1-.2.6-.8.1-.2.4-.2h.3l.5.2.3.4.1.5-.1.5-.5.8-.6.8-.3.4-.4.9-.1.2-.3.2v.1l-.6.7-.6.8-.6.7-.8.6-.4.2-.3.3-.3.1-.1.1-.3.1-.2.2-.9.2-.5.1h-.3l-.1-.1h-1l-.7-.3-.4-.3-.6-.6-.1-.5-.1-.1-.1-.4-.2-.1-.1-1 .2-.9.1-.6v-.3l.3-.7.3-1 .4-.9.2-.4.2-1 .2-.4.3-.8.2-.7.3-.8.2-.5.1-.1.3-.9.2-.4.3-.8.2-.5.1-.1.4-.9.3-.8.3-.9.4-.9.1-.5.4-.8v-.2l.2-.5.1-.4.2-.3.2-.5.5-.7.5-.2zm-6.4 19.2.2.1h.3l.1-.1-.5-.1-.1.1zm.5 1.1.1.1.1-.1-.1-.1-.1.1zm2-8.6h.3l.2-.2v-.2l-.2.1-.3.3zm.5 1.1.2.1.1-.2-.1-.1-.2.2zm.7-2v-.4l-.2-.1-.1.1v.1l.3.3z"/><path class="st15" d="m299.8 416.7-.2.5-.2.3-.2.9-.4.9v.2l-.1.1-.1.4-.2.7-.2.2-.2.6-.2.2-.1.5-.2.3-.1.5h-.1l-.1.4-.5.8-.2.4-.2.9h-.1l-.1.2-.1.1v.2l-.2.2-.1.5-.1.2-.1.2-.1.1-.2.9-.1.4-.1.1v.3l-.1.1v.2l.1.2.3.4.3.1.5-.1.7-.5.1-.1.2-.1.6-.7.3-.3v-.2l.3-.3.2-.1v-.2l.6-.8.5-.8.3-.4.3-.8.2-.4.2-.4.1-.4.1-.1.4-.9.2-.5.1-.2.1-.5.4-.9.3-.9.1-.2v-.2l.1-.1v-.2l.2-.2.2-.4.2-.9.3-.7.4-.3h1.3l.1-.1.4.1.9-.1.4.3v.4l-.3 1-.4.9-.3.9-.1.4-.2.1v.2l-.2.2-.1.2-.2.3-.1.6-.2.2-.1.3-.1.2-.1.2-.2.2-.1.3-.2.2v.2l-.2.1-.1.6h-.1l-.3.9-.1.2-.1.5-.1.1-.3 1-.4 1-.1.5v.6l.1.5.1.2.3.2h.2l.1.1.7-.1.3-.1 1.4-1.4.7-.7.3-.4v-.1l.2-.4.6-.7.4-.4.3-.5.1-.2.1-.1v-.2h.1v-.1l.6-.8.1-.1.4-.1h.3v.1l.2.1.5.5v.2l-.2.5-.3.5-.2.2v.2h-.1l-.5.9-.5.8-.5.5-.1.2h-.1l-.4.5v.2h.6v.1l-.2.2-.2.4-.4.3-.7.7-.7.6-.4.3-.3.1-.1.2h-.2v.1h-.1v.1h-.2v.1h-.1v.1l-.8.2-1 .1-1 .1-.2-.1-.1-.1h-.2v-.1h-.2v-.1l-.2-.1-.7-.7-.4-.9-.2-.2h-.1l-.3.2-.7.7-.2.2-.2.1-.9.6-.5.2-.1.1-.9.3-1 .1h-.7l-.5-.2-.5-.2-.7-.6v-.2l-.2-.1-.1-.5-.1-.1-.2-.5v-1l.1-1 .1-.5.3-.5v-.8l.1-.1.3-1 .2-.7h.1l.1-.5h.1l.3-.7.3-1 .2-.4v-.2l.2-.4.1-.5.1-.1.3-.9.2-.3.1-.3h.1l.3-.9.4-.8.2-.5.1-.4h.1v-.2l.3-.4.6-.2.9.1h1l.5.2.6.4zm-5.3 10.2.3-.1h.1l-.1-.2h-.3v.3zm2.2-8.2h.1v-.1h-.1v.1zm3.2 10.4.2-.2.1-.1.1-.1-.3-.1-.1.3v.2zm.2.7.2.2h.1v-.2h-.3zm.2-2.7h.3v-.2l-.2-.1-.1.3zm.2.4.3.1.1-.1-.1-.2-.2-.1v.1l-.1.2zm.3 1.7h.1v-.1h-.2l.1.1zm.7-.4-.3-.3h-.2v.2l.2.2h.2l.3.2.1-.1-.1-.1.2-.3v-.1h-.1l-.1.2-.2.1zm0 .9.1-.2-.1-.1h-.1l-.1.1v.2h.2zm.3-3.6h.2v-.1l-.1-.1h-.1v.2zm.4-1v-.3l-.2-.2-.1.1v.2l.3.2zm2.7-5.2.2.1.1-.1-.2-.1-.1.1z"/><path class="st15" d="m330.5 430.6-.2.2-.8.6-.8.5-.2.1-.2.2-.2.1-.2.2-.3.1h-.5l-.1.1h-1.7l-.1-.1-.4-.1-.4-.3-.7-.7-.2-1-.2-1 .1-.6.1-.1.1-1 .2-.5.1-.5.3-.9.2-.4.1-.2.2-.2v-.1h.1l.1-.5.4-.9.4-1 .1-.2.2-.2v-.2h.1l.1-.4.2-.2v-.5l.1-.1.3-.8v-.5l-.2-.5-.3-.2h-.4l-.8.2-.1.1-.3.1-.1.2h-.6l-.8.6h-.2l-.3.2-.1.2-.2.1-.1.2-.2.1v.2l-.2.1-.3.9-.3.8-.1.1v.2l-.2.2v.1l-.3.8-.1.1v.2l-.2.2-.1.4-.4.8-.3.9-.4 1-.4.9-.3.7-.2.2v.3l-.1.1-.1.4-.2.5-.1.4-.4.6-.3.1h-.5l-.4.1h-.5l-.5-.1h-.4l-.5-.1-.2-.3-.1-.2.1-.5.4-.9.4-.9.1-.3.4-.6.1-.4.1-.5.4-.8.4-1 .4-.9.3-.8.4-.8.1-.5.4-.8.2-.6.2-.1.3-.9.1-.8-.2-.4-.4-.2h-.5l-.4.1-.6.3-.4.2-.8.6-.4.3v.1l-.3.1v.2l-.3.3-.5.9-.2.3-.2.9-.6 1-.3.9-.2.4-.7 1.8-.2.7-.1.1-.1.2-.2.2-.1.4-.4.9-.1.4-.1.1-.1.5-.4.8-.4.4-.7.4-1-.1h-1l-.3-.1-.2-.2.1-1v-.2l.4-.6.4-.9.4-.9.3-.9.3-.8.4-.8.3-.9.2-.5.2-.8.7-1.7.2-.4.2-.3.3-1 .3-.9.1-.2v-.2l.2-.4.4-.9.4-.9.1-.1v-.2l.2-.1.1-.1.5.1.5.2.6.4h.2v.1l.2.2.8.2.3-.1.3-.3h.2v-.1l.3-.2.2-.2.2-.1.3-.2h.1v-.1h.2l.5-.2.6-.2 1-.2h1l.7.2.2.2h.1l.4.3.3.5.1.3.2.3.2.1h.2l.4-.3.4-.4.9-.5.4-.2.5-.2.1-.1.9-.3 1-.1 1 .1.4.2.8.6.1.2.3.4.2.9-.1.9-.2.4-.1.9h-.1l-.1.4-.1.1-.3.8-.2.5v.2l-.1.1v.2l-.1.3h-.1l-.2.6h-.1l-.3.9v.1h-.1v.2h-.1v.1h-.1v.2h-.1l-.3.8-.2.6-.4.9-.3.9-.1.3-.1 1 .4.5.2.1h.2l.5-.2.8-.6.7-.6 1-1 .2-.4.5-.6.3-.4.1-.2.3-.4.1-.2.1-.1v-.2h.1l.1-.2.1-.1.4-.7.4-.6.5-.1.4.2.4.5v.5l-.1.5-.2.4-.2.2v.2l-.2.1-.1.2-.1.1-.2.4-.2.3-.1.2-.6.8-.6.8-.7.8-.7.7.2.7zm-21.1-2.9.2.1v-.1l-.1-.1-.1.1zm.5-.6.1-.2-.2-.1-.1.2.2.1zm1.9-3.3.1.1.1-.2-.2-.1v.2zm1.3-3.4.1-.2h.1l.1-.2h-.1l-.2.2v.2zm.8-.6h.2l.1-.2h-.2l-.1.2zm3.4 7.5.2-.1-.1-.2h-.1v.3zm1.1-3.2v.1l.1.1h.2l.1-.1-.1-.2-.3.1zm.5-1 .1-.4-.2.1-.1.1v.2h.2zm.7-3.9.2.2-.1.3h.2l.2-.2v-.1l-.1-.2v-.2h-.1l-.2-.2h-.2l.1.4zm.4-1.5h.2l.1-.1v-.2l-.2-.1-.1.4zm.4 1.4.2-.2v-.2l-.2.1V419.1zm.1-.8.1-.1-.1-.2h-.1l-.1.1.2.2zm.4 1.6v.1l.1.3h-.1l-.1.1.2.1.4-.4-.2-.5-.2-.2-.1.5zm.4-1.3h.3l.2-.2-.1-.1h-.2l-.2.3zm3.9 8.9-.3-.1-.1.1.1.2-.1.2.1.2-.2.1-.1.2.1.1.2-.1.2-.2-.2-.5h.3l.2-.1v-.2h-.2v.1zm.9-2.7h.1l.1-.1h.1v-.1l-.2-.1-.1-.2h-.1l-.1.1.2.4zm.6-.8.1-.3h-.2l-.1.1.2.2zm1.4-2.6.2-.1.4.1v-.3l-.2-.1-.2.1-.2.2v.1zm.3.9-.2.1.1.1h.1v-.2z"/><path class="st15" d="M343.4 430.2h.1l.6-.2H344.4v-.1h.2v-.1h.1v-.1h.2l.3-.3h.2l.7-.7.1-.1.2-.4.5-.5v-.1l.3-.3.1-.2.6-.8.6-.7.1-.1v-.2l.2-.2.5-.9.4-.5.9.2.2.2h.2l.2.4v.4l-.5.9-.4.7-.2.1-.5.8-.5.8-.4.5-.2.2-.1.2-.6.7-.7.8-.2.1-.3.4h-.2l-.1.2h-.2v.1l-.5.2-.6.4-.9.3-.6.3h-1l-1-.1-.5-.2-.4-.2-.4-.4-.4-.6-.2-.2-.2-.9-.1-.5.1-1 .1-.5.3-.9.2-1 .1-.2.1-.1v-.2l.2-.3.2-.1v-.2h.1l.2-.8.2-.6h.1v-.1l.2-.4.3-.9.1-.5.2-.4.1-.3h.1l.2-.4.1-1v-.1l-.4-.5-.4-.1-1 .3-.9.5-.7.6-.3.4-.4.3-.3.4-.2.5-.2.6h-.1l-.1.4-.2.4-.1.5-.4.9-.4.9-.3.8-.2.1-.3.9-.4 1-.1.4-.2.4-.3 1-.3.9-.4.8-.3.3-.4.1-1 .1-.5-.1-.2-.1h-.5l-.5-.2-.1-.5.2-1 .3-.8.5-.9.4-1 .1-.2.2-.2.1-.5.2-.4.1-.5.4-.8.3-.9.5-.9.4-1 .4-.9.3-.9.4-.8.3-.9.4-.9.4-.8.2-.4.3-.3h.2l.4.2.1.1.6.2.2.2h.1v.1l.9.4h.3l.5-.2.8-.6.6-.4h.1v-.1h.2v-.1l.9-.2.9-.2.5-.1h.6l.5.1.4.2.7.6.1.1.2.8.2.4v.5l-.2 1-.3 1-.3.8-.1.1-.2.7-.2.2-.3.9-.1.3-.2.3v.2l-.4.8-.2.5-.1.1-.2.7h-.1v.2l-.2.2-.1.2-.1.1-.3.9-.2.9v1.3l.4.3zm-8-5.9h.2v-.2h-.1l-.1.2zm1-4.4v-.1l-.1-.1h-.2v.2l.1.1.2-.1zm.7-.8.1.1.1-.1-.2-.1v.1zm4.7 6.7h.1v-.1l-.1-.1v.2zm.6-2.1v.2h.1l.2-.1v-.2l-.3.1zm0 4.1h.2l.1-.1-.1-.2h-.1l-.1.3zm1.3-6.7v-.1l-.2-.2v.2l.2.1zm.5-2.8h.2l.1-.1.3-.1.1-.1-.1-.1-.3.1-.3.3zm.5 1.5.1-.1-.1-.2-.1-.1h-.1v.2l.1.1.1.1zm.4-1.7v-.1l-.2-.1v.1l.2.1z"/><path class="st15" d="m356.1 416.6-.2.7h-.1l-.3.9-.3.9-.2.2v.3l-.1.2-.2.6h-.1l-.2.5-.1.1-.3.9-.1.4h-.1l-.2.7-.3.5v.2h-.1v.2h-.1l-.1.4-.2.9-.1.1-.3 1-.2.6-.2.2v.2-.3l-.1.6h-.1l-.2.9-.1.5v.5l.3.4.4.2.8-.1.7-.5.4-.4.3-.2.4-.4.1-.2.3-.3.5-.8.6-.7.1-.2.2-.1.1-.2.2-.1.1-.2.5-.6.1-.5.2-.3v-.1l.3-.3.6-.1.4.3.3.3.2.2-.1.5-.5.9-.2.3v.2l-.2.2-.1.1v.2l-.3.3v.1h-.2l-.1.2-.1.1-.1.2-.3.2-.1.3-.2.1v.2l-.2.4h-.1l-.3.4-.7.7-.6.7v.1l-.2.1-.2.3h-.1l-.8.6-.4.3h-.2v.1h-.1l-.9.3-.4.1h-1l-.6.1-.1-.1h-.3l-.5-.2-.2-.1-.2-.4-.2-.2v-.4l-.5-.8-.1-.2v-1l.1-1 .2-.8v-.3h.1l.1-.5.3-.9.3-.9.2-.2.3-.8.1-.5.1-.2.1-.4.2-.1.1-.4.1-.1v-.2l.2-.2v-.2l.3-.5.3-.9.1-.3h.1l.4-1 .4-.9.5-.9.2-.6.4-.3.3-.2h2.2l.3.1.2.1-.3.2zm-6.9 12.7.1.2.2.1.1-.1v-.2l-.1-.1-.3.1zm1.3-1.1-.2.2v.1l.2-.1.2-.2v-.2l-.2-.3h-.1l.1.5zm1.5-5.8v-.1l-.2-.2-.1.1v.1l.3.1zm.7-.8v-.2l-.2-.1v.2l.2.1zm5.4-8.7-.1.2-.3.3v.1l-.8.5-.3.1-.2.2h-.4l-1-.2-.4-.2-.2-.2v-.2l-.1-.1-.4-.9-.1-.4.1-.6.2-.4.2-.2.4-.6.7-.2.5-.1.5.1.5.2.4.2.4.3.3.4.1.4.1 1.1v.2z"/></g><g><path class="st16" d="m279.1 427.7.3.4.2.1h.5l.8-.2.5-.2.2-.2.2-.1.8-.6.6-.7.2-.2v-.1l.3-.4.1-.2.2-.1.1-.2.4-.4.2-.4.4-.4h.5l.4.3.3.4.1.3-.1.5-.2.4-.2.2-.1.2-.2.2-.1.2-.2.1v.2h-.1l-.2.2-.4.5v.2l-.1.1-.1.2-.1.1-.1.2-.6.8-.3.2-.1.2h-.2l-.8.6-.4.2-.2.2-.9.2-1 .1h-.6l-.4.1-.2.1-.4.9-.3.6-.1.1v.7l-.1.2v.2l-.3.9-.2 1-.3.7-.3.4-.2.2-.4-.1-.8-.5-.3-.2-.7-.7-.2-.1-.2-.4-.1-.5.2-1 .2-.5.2-.9v-.1l.1-.1.1-.6.2-.5.1-.5-.1-.4-.3-.4-.3-.2-.5-.1-.1-.1-.2-.1h-.1l-.2-.2-.4-.1-.2-.2h-.2v-.1h-.2v-.1h.1v-.1l-.4-.2-.3-.2h-.3v-.1h-.1v-.1l-.8-.3-.4.2-.7.7-.2.2-.2.5-.2.2-.1.2-.3.3-.2.3-.2.1-.2.3h-.2l-.7.6-.2.2-.3.1-.1.2-.4.1-.1.1-.7.2-.2.2-.5.2-.4.1-.5.1-.1.1-1 .1h-.5l-.5.1-.9-.2-.7-.2-.6-.2h-.1l-.2-.2-.3-.1-.1-.1-.2-.1-.1-.1h-.2l-.5-.4-.4-.4-.4-.7-.2-.2-.3-.9-.1-.4-.2-1.1v-.4l.1-.5v-.5l.1-.1.2-1 .2-.4v-.1l.2-.2v-.2l.7-.7.3-.3.7-.5.4-.3 1-.2.3-.2.9-.2h.5l.2.1 1-.1h.5l1 .1.6.1.1.1h.2l.2.1.5.1.7.3 1 .3v.1h.2v.1h.1v.1h.2v.1h.1v.1l.4.1.4-.2.4-.4.2-.3.3-.3v-.2l.1-.1.4-.8.2-.4.2-.1v-.2l.2-.3.1-.3.2-.2.5-.9.4-.8v-.1l.2-.1.2-.4.1-.1.1-.3.2-.2v-.1l.2-.2v-.1l.2-.2v-.2l.2-.2.2-.5.2-.1v-.2h.1l.1-.2.2-.2v-.2l.2-.2.1-.2.4-.6.1-.1v-.2l.2-.2v-.1l.2-.2.5-.9.5-.8.3-.7.3-.4.1-.3.2-.1.2-.4.7-.6.7-.7.4-.2.3-.1.1-.1h.2l.4-.2h.8l.5.2.5.1.2.2.4.4.4.3.3.4.2.4v.2l.2.1.1.9-.1 1-.2.7v.3h-.1l-.2.9-.2.7-.1.1v.3h-.1l-.2 1-.2.9-.1.2v.3l-.1.1v.2l-.2.9v.4l-.3.9-.2.9-.1.1-.1.3h-.1v.2l-.1 1-.1.3-.1.2-.2 1-.3.9-.1.5h-.1l-.2.9-.2.5-.1.5-.1.1v.2l-.1.2-.2 1zm-18.3-3.1-.2.2-.2.1-.1.2h-.2l-.4.2-.3.2-.1.2-.2.2-.1.2-.2.2v.9l.1.5.3.9.4.4.3.1.2.2.4.1v.1l1 .2 1-.1 1-.3.7-.4.4-.2.2-.2h.2l.4-.4.2-.4.7-.7.3-.4.2-.5v-.2l-.1-.2-.4-.3-.5-.1-.4-.2-1-.3-.9-.2-1-.1-.9.1h-.8zm7 1 .1-.2-.1-.1h-.1l-.1.2.1.1h.1zm0 2.4h.2v-.1h-.2v.1zm.4-1.1v.1h.1l.2-.1v-.1l-.1-.1-.2.2zm.5-.5v-.1l-.1-.2h-.1v.1l.1.2h.1zm.3-2.2v.1l.1.1.2.1v-.2l-.2-.1h-.1zm.3 2 .1-.3h-.2l-.1.1.2.2zm0-.8.2.1.1-.1v-.1l-.1-.1h-.2v.2zm.6-.9.1.1.1-.1.2.1v-.2l-.2-.2v-.1h.2l.2.1v-.1l.2-.2-.3.2h-.2l-.2-.1h-.2l.1.5zm9.5-13.1-.3.1.2.1-.4.5v.2l-.4.6h-.1v.2l-.1.1-.2.5-.4.5v.1l-.2.1v.2l-.1.1v.2l-.2.1-.1.2-.5.9-.5.8-.4.6-.1.3-.5.8-.3.4v.2l-.2.2-.1.3-.6.8-.2.2-.2.6-.1.1-.2.4-.2.3v.2l-.3.3-.2.3-.6.8-.2.5-.2.5v.2l.2.4h.1l.1.2.9.5.9.4.9.5.6.2.3-.1.3-.4.2-.8.3-1 .2-1 .3-1 .2-1 .2-.9.3-.8.1-.1.2-1 .2-.8.3-.9.1-.3.2-1 .1-.5.2-.5v-.2l.1-.1v-.5l.3-.9.2-1h.1l.2-.7-.2-.4h-.2zm-4.4 4.4v-.3h-.2v.2l.2.1zm.7 15.6h.2l-.1-.2h-.1v.2zm.4-2.6v-.2l-.1-.1h-.2v.2l.3.1zm.3-.9h-.2v.3h.3l.1-.2.1-.2h-.1l-.2.1zm-.2 2.1.3-.1.1-.2-.1-.1-.3.4zm0 .8h.1v-.2h-.1v.2zm1.3-4.3-.1-.2h-.2l-.1.1v.1l.2.2v.2l-.2.2v.1l.2-.1.3-.2.1-.4h-.2zm0 2v.1l.2.1h.2v-.2l-.1-.1-.3.1zm.7.9-.2-.1v.1h.2zm-.1-4.7.1.1.4-.1.1-.1v-.1l-.2-.1h-.2l-.2.3zm.2-1.7h.1l.2-.2v-.2l-.1-.1h-.1l-.1.5zm.2-12.8.1.2.3.2.1-.5-.1-.2h-.2l-.2.3zm.6 12.4v-.2l-.1-.1-.2-.1h-.2v.1l.1.1.4.2zm.5-12.5v.1l.1.1.2-.1v-.2l-.3.1zm0 8.9h.2v-.1h-.2v.1zm.5.5.2-.2-.1-.2-.2-.1-.1.1v.2l.2.2zm0-9.5h.2l.1-.1-.1-.1-.2.2zm.5-.8-.2-.3-.1.1.1.2.4.2h.2v-.3l-.4.1zm.3 1.5-.2-.1v.1l.1.1.1-.1zm.8-1.5-.2-.1v.1l.4.2h.2v-.1l-.4-.1z"/><path class="st16" d="m291.1 410 1-.1H293.3l.3.2.2.3-.1.5-.3 1-.3.8-.2.6-.3.8-.1.3-.1.1-.4.9-.2.4-.2.2-.1.4h-.1v.1l-.1.1-.1.5-.2.3v.2l-.1.1-.4 1v.4l-.4.7-.2.4-.2 1-.4.8-.4.9-.4 1-.4.9-.3.9-.1.3-.1.1-.3.8-.3.8-.2.9-.1.6v.3l.1.2.4.4.4.1.5-.2.4-.2.5-.4.3-.3.2-.1.5-.7h.1l.2-.4.4-.3.1-.2.3-.3.6-.8.2-.2v-.2l.2-.1.1-.2.2-.1v-.2l.2-.2.1-.2.6-.8.1-.2.4-.2h.3l.5.2.3.4.1.5-.1.5-.5.8-.6.8-.3.4-.4.9-.1.2-.3.2v.1l-.6.7-.6.8-.6.7-.8.6-.4.2-.3.3-.3.1-.1.1-.3.1-.2.2-.9.2-.5.1h-.3l-.1-.1h-1l-.7-.3-.4-.3-.6-.6-.1-.5-.1-.1-.1-.4-.2-.1-.1-1 .2-.9.1-.6v-.3l.3-.7.3-1 .4-.9.2-.4.2-1 .2-.4.3-.8.2-.7.3-.8.2-.5.1-.1.3-.9.2-.4.3-.8.2-.5.1-.1.4-.9.3-.8.3-.9.4-.9.1-.5.4-.8v-.2l.2-.5.1-.4.2-.3.2-.5.5-.7.5-.2zm-6.4 19.2.2.1h.3l.1-.1-.5-.1-.1.1zm.5 1.1.1.1.1-.1-.1-.1-.1.1zm2-8.6h.3l.2-.2v-.2l-.2.1-.3.3zm.5 1.1.2.1.1-.2-.1-.1-.2.2zm.7-2v-.4l-.2-.1-.1.1v.1l.3.3z"/><path class="st16" d="m299.8 416.7-.2.5-.2.3-.2.9-.4.9v.2l-.1.1-.1.4-.2.7-.2.2-.2.6-.2.2-.1.5-.2.3-.1.5h-.1l-.1.4-.5.8-.2.4-.2.9h-.1l-.1.2-.1.1v.2l-.2.2-.1.5-.1.2-.1.2-.1.1-.2.9-.1.4-.1.1v.3l-.1.1v.2l.1.2.3.4.3.1.5-.1.7-.5.1-.1.2-.1.6-.7.3-.3v-.2l.3-.3.2-.1v-.2l.6-.8.5-.8.3-.4.3-.8.2-.4.2-.4.1-.4.1-.1.4-.9.2-.5.1-.2.1-.5.4-.9.3-.9.1-.2v-.2l.1-.1v-.2l.2-.2.2-.4.2-.9.3-.7.4-.3h1.3l.1-.1.4.1.9-.1.4.3v.4l-.3 1-.4.9-.3.9-.1.4-.2.1v.2l-.2.2-.1.2-.2.3-.1.6-.2.2-.1.3-.1.2-.1.2-.2.2-.1.3-.2.2v.2l-.2.1-.1.6h-.1l-.3.9-.1.2-.1.5-.1.1-.3 1-.4 1-.1.5v.6l.1.5.1.2.3.2h.2l.1.1.7-.1.3-.1 1.4-1.4.7-.7.3-.4v-.1l.2-.4.6-.7.4-.4.3-.5.1-.2.1-.1v-.2h.1v-.1l.6-.8.1-.1.4-.1h.3v.1l.2.1.5.5v.2l-.2.5-.3.5-.2.2v.2h-.1l-.5.9-.5.8-.5.5-.1.2h-.1l-.4.5v.2h.6v.1l-.2.2-.2.4-.4.3-.7.7-.7.6-.4.3-.3.1-.1.2h-.2v.1h-.1v.1h-.2v.1h-.1v.1l-.8.2-1 .1-1 .1-.2-.1-.1-.1h-.2v-.1h-.2v-.1l-.2-.1-.7-.7-.4-.9-.2-.2h-.1l-.3.2-.7.7-.2.2-.2.1-.9.6-.5.2-.1.1-.9.3-1 .1h-.7l-.5-.2-.5-.2-.7-.6v-.2l-.2-.1-.1-.5-.1-.1-.2-.5v-1l.1-1 .1-.5.3-.5v-.8l.1-.1.3-1 .2-.7h.1l.1-.5h.1l.3-.7.3-1 .2-.4v-.2l.2-.4.1-.5.1-.1.3-.9.2-.3.1-.3h.1l.3-.9.4-.8.2-.5.1-.4h.1v-.2l.3-.4.6-.2.9.1h1l.5.2.6.4zm-5.3 10.2.3-.1h.1l-.1-.2h-.3v.3zm2.2-8.2h.1v-.1h-.1v.1zm3.2 10.4.2-.2.1-.1.1-.1-.3-.1-.1.3v.2zm.2.7.2.2h.1v-.2h-.3zm.2-2.7h.3v-.2l-.2-.1-.1.3zm.2.4.3.1.1-.1-.1-.2-.2-.1v.1l-.1.2zm.3 1.7h.1v-.1h-.2l.1.1zm.7-.4-.3-.3h-.2v.2l.2.2h.2l.3.2.1-.1-.1-.1.2-.3v-.1h-.1l-.1.2-.2.1zm0 .9.1-.2-.1-.1h-.1l-.1.1v.2h.2zm.3-3.6h.2v-.1l-.1-.1h-.1v.2zm.4-1v-.3l-.2-.2-.1.1v.2l.3.2zm2.7-5.2.2.1.1-.1-.2-.1-.1.1z"/><path class="st16" d="m330.5 430.6-.2.2-.8.6-.8.5-.2.1-.2.2-.2.1-.2.2-.3.1h-.5l-.1.1h-1.7l-.1-.1-.4-.1-.4-.3-.7-.7-.2-1-.2-1 .1-.6.1-.1.1-1 .2-.5.1-.5.3-.9.2-.4.1-.2.2-.2v-.1h.1l.1-.5.4-.9.4-1 .1-.2.2-.2v-.2h.1l.1-.4.2-.2v-.5l.1-.1.3-.8v-.5l-.2-.5-.3-.2h-.4l-.8.2-.1.1-.3.1-.1.2h-.6l-.8.6h-.2l-.3.2-.1.2-.2.1-.1.2-.2.1v.2l-.2.1-.3.9-.3.8-.1.1v.2l-.2.2v.1l-.3.8-.1.1v.2l-.2.2-.1.4-.4.8-.3.9-.4 1-.4.9-.3.7-.2.2v.3l-.1.1-.1.4-.2.5-.1.4-.4.6-.3.1h-.5l-.4.1h-.5l-.5-.1h-.4l-.5-.1-.2-.3-.1-.2.1-.5.4-.9.4-.9.1-.3.4-.6.1-.4.1-.5.4-.8.4-1 .4-.9.3-.8.4-.8.1-.5.4-.8.2-.6.2-.1.3-.9.1-.8-.2-.4-.4-.2h-.5l-.4.1-.6.3-.4.2-.8.6-.4.3v.1l-.3.1v.2l-.3.3-.5.9-.2.3-.2.9-.6 1-.3.9-.2.4-.7 1.8-.2.7-.1.1-.1.2-.2.2-.1.4-.4.9-.1.4-.1.1-.1.5-.4.8-.4.4-.7.4-1-.1h-1l-.3-.1-.2-.2.1-1v-.2l.4-.6.4-.9.4-.9.3-.9.3-.8.4-.8.3-.9.2-.5.2-.8.7-1.7.2-.4.2-.3.3-1 .3-.9.1-.2v-.2l.2-.4.4-.9.4-.9.1-.1v-.2l.2-.1.1-.1.5.1.5.2.6.4h.2v.1l.2.2.8.2.3-.1.3-.3h.2v-.1l.3-.2.2-.2.2-.1.3-.2h.1v-.1h.2l.5-.2.6-.2 1-.2h1l.7.2.2.2h.1l.4.3.3.5.1.3.2.3.2.1h.2l.4-.3.4-.4.9-.5.4-.2.5-.2.1-.1.9-.3 1-.1 1 .1.4.2.8.6.1.2.3.4.2.9-.1.9-.2.4-.1.9h-.1l-.1.4-.1.1-.3.8-.2.5v.2l-.1.1v.2l-.1.3h-.1l-.2.6h-.1l-.3.9v.1h-.1v.2h-.1v.1h-.1v.2h-.1l-.3.8-.2.6-.4.9-.3.9-.1.3-.1 1 .4.5.2.1h.2l.5-.2.8-.6.7-.6 1-1 .2-.4.5-.6.3-.4.1-.2.3-.4.1-.2.1-.1v-.2h.1l.1-.2.1-.1.4-.7.4-.6.5-.1.4.2.4.5v.5l-.1.5-.2.4-.2.2v.2l-.2.1-.1.2-.1.1-.2.4-.2.3-.1.2-.6.8-.6.8-.7.8-.7.7.2.7zm-21.1-2.9.2.1v-.1l-.1-.1-.1.1zm.5-.6.1-.2-.2-.1-.1.2.2.1zm1.9-3.3.1.1.1-.2-.2-.1v.2zm1.3-3.4.1-.2h.1l.1-.2h-.1l-.2.2v.2zm.8-.6h.2l.1-.2h-.2l-.1.2zm3.4 7.5.2-.1-.1-.2h-.1v.3zm1.1-3.2v.1l.1.1h.2l.1-.1-.1-.2-.3.1zm.5-1 .1-.4-.2.1-.1.1v.2h.2zm.7-3.9.2.2-.1.3h.2l.2-.2v-.1l-.1-.2v-.2h-.1l-.2-.2h-.2l.1.4zm.4-1.5h.2l.1-.1v-.2l-.2-.1-.1.4zm.4 1.4.2-.2v-.2l-.2.1V419.1zm.1-.8.1-.1-.1-.2h-.1l-.1.1.2.2zm.4 1.6v.1l.1.3h-.1l-.1.1.2.1.4-.4-.2-.5-.2-.2-.1.5zm.4-1.3h.3l.2-.2-.1-.1h-.2l-.2.3zm3.9 8.9-.3-.1-.1.1.1.2-.1.2.1.2-.2.1-.1.2.1.1.2-.1.2-.2-.2-.5h.3l.2-.1v-.2h-.2v.1zm.9-2.7h.1l.1-.1h.1v-.1l-.2-.1-.1-.2h-.1l-.1.1.2.4zm.6-.8.1-.3h-.2l-.1.1.2.2zm1.4-2.6.2-.1.4.1v-.3l-.2-.1-.2.1-.2.2v.1zm.3.9-.2.1.1.1h.1v-.2z"/><path class="st16" d="M343.4 430.2h.1l.6-.2H344.4v-.1h.2v-.1h.1v-.1h.2l.3-.3h.2l.7-.7.1-.1.2-.4.5-.5v-.1l.3-.3.1-.2.6-.8.6-.7.1-.1v-.2l.2-.2.5-.9.4-.5.9.2.2.2h.2l.2.4v.4l-.5.9-.4.7-.2.1-.5.8-.5.8-.4.5-.2.2-.1.2-.6.7-.7.8-.2.1-.3.4h-.2l-.1.2h-.2v.1l-.5.2-.6.4-.9.3-.6.3h-1l-1-.1-.5-.2-.4-.2-.4-.4-.4-.6-.2-.2-.2-.9-.1-.5.1-1 .1-.5.3-.9.2-1 .1-.2.1-.1v-.2l.2-.3.2-.1v-.2h.1l.2-.8.2-.6h.1v-.1l.2-.4.3-.9.1-.5.2-.4.1-.3h.1l.2-.4.1-1v-.1l-.4-.5-.4-.1-1 .3-.9.5-.7.6-.3.4-.4.3-.3.4-.2.5-.2.6h-.1l-.1.4-.2.4-.1.5-.4.9-.4.9-.3.8-.2.1-.3.9-.4 1-.1.4-.2.4-.3 1-.3.9-.4.8-.3.3-.4.1-1 .1-.5-.1-.2-.1h-.5l-.5-.2-.1-.5.2-1 .3-.8.5-.9.4-1 .1-.2.2-.2.1-.5.2-.4.1-.5.4-.8.3-.9.5-.9.4-1 .4-.9.3-.9.4-.8.3-.9.4-.9.4-.8.2-.4.3-.3h.2l.4.2.1.1.6.2.2.2h.1v.1l.9.4h.3l.5-.2.8-.6.6-.4h.1v-.1h.2v-.1l.9-.2.9-.2.5-.1h.6l.5.1.4.2.7.6.1.1.2.8.2.4v.5l-.2 1-.3 1-.3.8-.1.1-.2.7-.2.2-.3.9-.1.3-.2.3v.2l-.4.8-.2.5-.1.1-.2.7h-.1v.2l-.2.2-.1.2-.1.1-.3.9-.2.9v1.3l.4.3zm-8-5.9h.2v-.2h-.1l-.1.2zm1-4.4v-.1l-.1-.1h-.2v.2l.1.1.2-.1zm.7-.8.1.1.1-.1-.2-.1v.1zm4.7 6.7h.1v-.1l-.1-.1v.2zm.6-2.1v.2h.1l.2-.1v-.2l-.3.1zm0 4.1h.2l.1-.1-.1-.2h-.1l-.1.3zm1.3-6.7v-.1l-.2-.2v.2l.2.1zm.5-2.8h.2l.1-.1.3-.1.1-.1-.1-.1-.3.1-.3.3zm.5 1.5.1-.1-.1-.2-.1-.1h-.1v.2l.1.1.1.1zm.4-1.7v-.1l-.2-.1v.1l.2.1z"/><path class="st16" d="m356.1 416.6-.2.7h-.1l-.3.9-.3.9-.2.2v.3l-.1.2-.2.6h-.1l-.2.5-.1.1-.3.9-.1.4h-.1l-.2.7-.3.5v.2h-.1v.2h-.1l-.1.4-.2.9-.1.1-.3 1-.2.6-.2.2v.2-.3l-.1.6h-.1l-.2.9-.1.5v.5l.3.4.4.2.8-.1.7-.5.4-.4.3-.2.4-.4.1-.2.3-.3.5-.8.6-.7.1-.2.2-.1.1-.2.2-.1.1-.2.5-.6.1-.5.2-.3v-.1l.3-.3.6-.1.4.3.3.3.2.2-.1.5-.5.9-.2.3v.2l-.2.2-.1.1v.2l-.3.3v.1h-.2l-.1.2-.1.1-.1.2-.3.2-.1.3-.2.1v.2l-.2.4h-.1l-.3.4-.7.7-.6.7v.1l-.2.1-.2.3h-.1l-.8.6-.4.3h-.2v.1h-.1l-.9.3-.4.1h-1l-.6.1-.1-.1h-.3l-.5-.2-.2-.1-.2-.4-.2-.2v-.4l-.5-.8-.1-.2v-1l.1-1 .2-.8v-.3h.1l.1-.5.3-.9.3-.9.2-.2.3-.8.1-.5.1-.2.1-.4.2-.1.1-.4.1-.1v-.2l.2-.2v-.2l.3-.5.3-.9.1-.3h.1l.4-1 .4-.9.5-.9.2-.6.4-.3.3-.2h2.2l.3.1.2.1-.3.2zm-6.9 12.7.1.2.2.1.1-.1v-.2l-.1-.1-.3.1zm1.3-1.1-.2.2v.1l.2-.1.2-.2v-.2l-.2-.3h-.1l.1.5zm1.5-5.8v-.1l-.2-.2-.1.1v.1l.3.1zm.7-.8v-.2l-.2-.1v.2l.2.1zm5.4-8.7-.1.2-.3.3v.1l-.8.5-.3.1-.2.2h-.4l-1-.2-.4-.2-.2-.2v-.2l-.1-.1-.4-.9-.1-.4.1-.6.2-.4.2-.2.4-.6.7-.2.5-.1.5.1.5.2.4.2.4.3.3.4.1.4.1 1.1v.2z"/></g></g></svg>