<svg xmlns="http://www.w3.org/2000/svg" width="1224" height="792" style="enable-background:new 0 0 1224 792" xml:space="preserve"><style>.st2{fill:#fff}.st3{fill:#00502f}.st4{fill:#f37321}</style><pattern x="216" y="702" width="69" height="69" patternUnits="userSpaceOnUse" id="Unnamed_Pattern" viewBox="2.1 -70.9 69 69" style="overflow:visible"><path style="fill:none" d="M2.1-70.9h69v69h-69z"/><path style="fill:#f7bc60" d="M2.1-70.9h69v69h-69z"/><path class="st2" d="M61.8-71.7v.2c-.1.1-.1.1-.2.1-.1.1-.1.3-.1.4-.2.1 0 .2 0 .3v.2c0 .1 0 .3.1.4.1.2.3.4.4.5.2.1.4.6.6.6.2 0 .4-.1.5-.1.2 0 .4 0 .6-.1.2-.1.1-.3.3-.5.1-.1.3 0 .4-.1.2-.1.3-.3.4-.5v-.2c0-.1.1-.2.1-.3 0-.1-.1-.1-.1-.2v-.3c0-.2 0-.4-.1-.5-.4-.7-1.2-.9-2-.8-.2 0-.3.1-.4.2-.2.1-.1.2-.3.2-.1 0-.2.1-.2.2v.3c0 .1 0 .1 0 0M54.1-71.7v.2c-.1.1-.1.1-.2.1-.1.1-.1.3-.1.4-.2.1 0 .2 0 .3v.2c0 .1 0 .3.1.4.1.2.3.4.4.5.2.1.4.6.6.6.2 0 .4-.1.5-.1.2 0 .4 0 .6-.1.2-.1.1-.3.3-.5.1-.1.3 0 .4-.1.2-.1.3-.3.4-.5v-.2c0-.1.1-.2.1-.3 0-.1-.1-.1-.1-.2v-.3c0-.2 0-.4-.1-.5-.4-.7-1.2-.9-2-.8-.2 0-.3.1-.4.2-.2.1-.1.2-.3.2-.1 0-.2.1-.2.2v.3c0 .1 0 .1 0 0M46.4-71.7v.2c-.1.1-.1.1-.2.1-.1.1-.1.3-.1.4-.2.1 0 .2 0 .3v.2c0 .1 0 .3.1.4.1.2.3.4.4.5.2.1.4.6.6.6.2 0 .4-.1.5-.1.2 0 .4 0 .6-.1.2-.1.1-.3.3-.5.1-.1.3 0 .4-.1.2-.1.3-.3.4-.5v-.2c0-.1.1-.2.1-.3 0-.1-.1-.1-.1-.2v-.3c0-.2 0-.4-.1-.5-.4-.7-1.2-.9-2-.8-.2 0-.3.1-.4.2-.2.1-.1.2-.3.2-.1 0-.2.1-.2.2v.3c0 .1 0 .1 0 0M38.8-71.7v.2c-.1.1-.1.1-.2.1-.1.1-.1.3-.1.4-.2.1 0 .2 0 .3v.2c0 .1 0 .3.1.4.1.2.3.4.4.5.2.1.4.6.6.6.2 0 .4-.1.5-.1.2 0 .4 0 .6-.1.2-.1.1-.3.3-.5.1-.1.3 0 .4-.1.2-.1.3-.3.4-.5v-.2c0-.1.1-.2.1-.3 0-.1-.1-.1-.1-.2v-.3c0-.2 0-.4-.1-.5-.4-.7-1.2-.9-2-.8-.2 0-.3.1-.4.2-.2.1-.1.2-.3.2-.1 0-.2.1-.2.2v.3c0 .1 0 .1 0 0M31.1-71.7v.2c-.1.1-.1.1-.2.1-.1.1-.1.3-.1.4-.2.1 0 .2 0 .3v.2c0 .1 0 .3.1.4.1.2.3.4.4.5.2.1.4.6.6.6.2 0 .4-.1.5-.1.2 0 .4 0 .6-.1.2-.1.1-.3.3-.5.1-.1.3 0 .4-.1.2-.1.3-.3.4-.5v-.2c0-.1.1-.2.1-.3 0-.1-.1-.1-.1-.2v-.3c0-.2 0-.4-.1-.5-.4-.7-1.2-.9-2-.8-.2 0-.3.1-.4.2-.2.1-.1.2-.3.2-.1 0-.2.1-.2.2v.3c0 .1 0 .1 0 0M23.4-71.7v.2c-.1.1-.1.1-.2.1-.1.1-.1.3-.1.4-.2.1 0 .2 0 .3v.2c0 .1 0 .3.1.4.1.2.3.4.4.5.2.1.4.6.6.6.2 0 .4-.1.5-.1.2 0 .4 0 .6-.1.2-.1.1-.3.3-.5.1-.1.3 0 .4-.1.2-.1.3-.3.4-.5v-.2c0-.1.1-.2.1-.3 0-.1-.1-.1-.1-.2v-.3c0-.2 0-.4-.1-.5-.4-.7-1.2-.9-2-.8-.2 0-.3.1-.4.2-.2.1-.1.2-.3.2-.1 0-.2.1-.2.2v.3c0 .1 0 .1 0 0M15.8-71.7v.2c-.1.1-.1.1-.2.1-.1.1-.1.3-.1.4-.2.1 0 .2 0 .3v.2c0 .1 0 .3.1.4.1.2.3.4.4.5.2.1.4.6.6.6.2 0 .4-.1.5-.1.2 0 .4 0 .6-.1.2-.1.1-.3.3-.5.1-.1.3 0 .4-.1.2-.1.3-.3.4-.5v-.2c0-.1.1-.2.1-.3 0-.1-.1-.1-.1-.2v-.3c0-.2 0-.4-.1-.5-.4-.7-1.2-.9-2-.8-.2 0-.3.1-.4.2-.2.1-.1.2-.3.2-.1 0-.2.1-.2.2v.3c0 .1 0 .1 0 0M8.1-71.7v.2l-.2.2c-.1.1-.1.3-.1.4-.2.1 0 .2 0 .3v.2c0 .1 0 .3.1.4.1.2.3.4.4.5.2.1.4.6.6.6.2 0 .4-.1.5-.1.2 0 .4 0 .6-.1.2-.1.1-.3.3-.5.1-.1.3 0 .4-.1.2-.1.3-.3.4-.5v-.2c0-.1.1-.2.1-.3 0-.1-.1-.1-.1-.2v-.3c0-.2 0-.4-.1-.5-.4-.7-1.2-.9-2-.8-.2 0-.3.1-.4.2-.2.1-.1.2-.3.2-.1 0-.2.1-.2.2v.2c0 .1 0 .1 0 0M.4-71.7v.2c-.1.1-.1.1-.2.1-.1.1-.1.3-.1.4-.2.1 0 .2 0 .3v.2c0 .1 0 .3.1.4.1.2.3.4.4.5.2.2.4.6.6.7.2 0 .4-.1.5-.1.2 0 .4 0 .6-.1.2-.1.1-.3.3-.5.1-.1.3 0 .4-.1.2-.1.3-.3.4-.5v-.2c0-.1.1-.2.1-.3 0-.1-.1-.1-.1-.2v-.3c0-.2 0-.4-.1-.5-.4-.7-1.2-.9-2-.8-.2 0-.3.1-.4.2-.2.1-.1.2-.3.2-.1 0-.2.1-.2.2v.2c0 .1 0 .1 0 0"/><g><path class="st2" d="M69.4-71.7v.2c-.1.1-.1.1-.2.1-.1.1-.1.3-.1.4-.2.1 0 .2 0 .3v.2c0 .1 0 .3.1.4.1.2.3.4.4.5.2.1.4.6.6.6.2 0 .4-.1.5-.1.2 0 .4 0 .6-.1.2-.1.1-.3.3-.5.1-.1.3 0 .4-.1.2-.1.3-.3.4-.5v-.2c0-.1.1-.2.1-.3 0-.1-.1-.1-.1-.2v-.3c0-.2 0-.4-.1-.5-.4-.7-1.2-.9-2-.8-.2 0-.3.1-.4.2-.2.1-.1.2-.3.2-.1 0-.2.1-.2.2v.3c0 .1 0 .1 0 0"/></g><path class="st2" d="M.5-71.7v.2c-.1.1-.1.1-.2.1-.1.1-.1.3-.1.4-.2.1 0 .2 0 .3v.2c0 .1 0 .3.1.4.1.2.3.4.4.5.2.2.3.6.6.7.2 0 .4-.1.5-.1.2 0 .4 0 .6-.1.2-.1.1-.3.3-.5.1-.1.3 0 .4-.1.2-.1.3-.3.4-.5v-.2c0-.1.1-.2.1-.3 0-.1-.1-.1-.1-.2v-.3c0-.2 0-.4-.1-.5-.4-.7-1.2-.9-2-.8-.2 0-.3.1-.4.2-.2.1-.1.2-.3.2-.1 0-.2.1-.2.2v.2c0 .1 0 .1 0 0"/><g><path class="st2" d="M69.4-64v.2c-.1.1-.1.1-.2.1-.1.1-.1.3-.1.4-.2.1 0 .2 0 .3v.2c0 .1 0 .3.1.4.1.2.3.4.4.5.2.1.4.6.6.6.2 0 .4-.1.5-.1.2 0 .4 0 .6-.1.2-.1.1-.3.3-.5.1-.1.3 0 .4-.1.2-.1.3-.3.4-.5v-.2c0-.1.1-.2.1-.3 0-.1-.1-.1-.1-.2v-.3c0-.2 0-.4-.1-.5-.4-.7-1.2-.9-2-.8-.2 0-.3.1-.4.2-.2.1-.1.2-.3.2-.1 0-.2.1-.2.2v.3M61.8-64v.2c-.1.1-.1.1-.2.1-.1.1-.1.3-.1.4-.2.1 0 .2 0 .3v.2c0 .1 0 .3.1.4.1.2.3.4.4.5.2.1.4.6.6.6.2 0 .4-.1.5-.1.2 0 .4 0 .6-.1.2-.1.1-.3.3-.5.1-.1.3 0 .4-.1.2-.1.3-.3.4-.5v-.2c0-.1.1-.2.1-.3 0-.1-.1-.1-.1-.2v-.3c0-.2 0-.4-.1-.5-.4-.7-1.2-.9-2-.8-.2 0-.3.1-.4.2-.2.1-.1.2-.3.2-.1 0-.2.1-.2.2v.3M54.1-64v.2c-.1.1-.1.1-.2.1-.1.1-.1.3-.1.4-.2.1 0 .2 0 .3v.2c0 .1 0 .3.1.4.1.2.3.4.4.5.2.1.4.6.6.6.2 0 .4-.1.5-.1.2 0 .4 0 .6-.1.2-.1.1-.3.3-.5.1-.1.3 0 .4-.1.2-.1.3-.3.4-.5v-.2c0-.1.1-.2.1-.3 0-.1-.1-.1-.1-.2v-.3c0-.2 0-.4-.1-.5-.4-.7-1.2-.9-2-.8-.2 0-.3.1-.4.2-.2.1-.1.2-.3.2-.1 0-.2.1-.2.2v.3M46.5-64v.2c-.1.1-.1.1-.2.1-.1.1-.1.3-.1.4-.2.1 0 .2 0 .3v.2c0 .1 0 .3.1.4.1.2.3.4.4.5.2.1.4.6.6.6.2 0 .4-.1.5-.1.2 0 .4 0 .6-.1.2-.1.1-.3.3-.5.1-.1.3 0 .4-.1.2-.1.3-.3.4-.5v-.2c0-.1.1-.2.1-.3 0-.1-.1-.1-.1-.2v-.3c0-.2 0-.4-.1-.5-.4-.7-1.2-.9-2-.8-.2 0-.3.1-.4.2-.2.1-.1.2-.3.2-.1 0-.2.1-.2.2v.3M38.8-64v.2c-.1.1-.1.1-.2.1-.1.1-.1.3-.1.4-.2.1 0 .2 0 .3v.2c0 .1 0 .3.1.4.1.2.3.4.4.5.2.1.4.6.6.6.2 0 .4-.1.5-.1.2 0 .4 0 .6-.1.2-.1.1-.3.3-.5.1-.1.3 0 .4-.1.2-.1.3-.3.4-.5v-.2c0-.1.1-.2.1-.3 0-.1-.1-.1-.1-.2v-.3c0-.2 0-.4-.1-.5-.4-.7-1.2-.9-2-.8-.2 0-.3.1-.4.2-.2.1-.1.2-.3.2-.1 0-.2.1-.2.2v.3M31.1-64v.2c-.1.1-.1.1-.2.1-.1.1-.1.3-.1.4-.2.1 0 .2 0 .3v.2c0 .1 0 .3.1.4.1.2.3.4.4.5.2.1.4.6.6.6.2 0 .4-.1.5-.1.2 0 .4 0 .6-.1.2-.1.1-.3.3-.5.1-.1.3 0 .4-.1.2-.1.3-.3.4-.5v-.2c0-.1.1-.2.1-.3 0-.1-.1-.1-.1-.2v-.3c0-.2 0-.4-.1-.5-.4-.7-1.2-.9-2-.8-.2 0-.3.1-.4.2-.2.1-.1.2-.3.2-.1 0-.2.1-.2.2v.3M23.5-64v.2c-.1.1-.1.1-.2.1-.1.1-.1.3-.1.4-.2.1 0 .2 0 .3v.2c0 .1 0 .3.1.4.1.2.3.4.4.5.2.1.4.6.6.6.2 0 .4-.1.5-.1.2 0 .4 0 .6-.1.2-.1.1-.3.3-.5.1-.1.3 0 .4-.1.2-.1.3-.3.4-.5v-.2c0-.1.1-.2.1-.3 0-.1-.1-.1-.1-.2v-.3c0-.2 0-.4-.1-.5-.4-.7-1.2-.9-2-.8-.2 0-.3.1-.4.2-.2.1-.1.2-.3.2-.1 0-.2.1-.2.2v.3M15.8-64v.2c-.1.1-.1.1-.2.1-.1.1-.1.3-.1.4-.2.1 0 .2 0 .3v.2c0 .1 0 .3.1.4.1.2.3.4.4.5.2.1.4.6.6.6.2 0 .4-.1.5-.1.2 0 .4 0 .6-.1.2-.1.1-.3.3-.5.1-.1.3 0 .4-.1.2-.1.3-.3.4-.5v-.2c0-.1.1-.2.1-.3 0-.1-.1-.1-.1-.2v-.3c0-.2 0-.4-.1-.5-.4-.7-1.2-.9-2-.8-.2 0-.3.1-.4.2-.2.1-.1.2-.3.2-.1 0-.2.1-.2.2v.3M8.2-64v.2c-.1.1-.2.1-.2.1-.1.1-.1.3-.1.4-.2.1 0 .2 0 .3v.2c0 .1 0 .3.1.4 0 .2.2.4.3.5.2.1.4.6.6.6.2 0 .4-.1.5-.1.2 0 .4 0 .6-.1.2-.1.1-.3.3-.5.1-.1.3 0 .4-.1.2-.1.3-.3.4-.5v-.2c0-.1.1-.2.1-.3 0-.1-.1-.1-.1-.2v-.3c0-.2 0-.4-.1-.5-.4-.7-1.2-.9-2-.8-.2 0-.3.1-.4.2-.2.1-.1.2-.3.2-.1 0-.2.1-.2.2.1.3.1.2.1.3-.1 0-.1 0 0 0M.5-64v.2c-.1.1-.1.1-.2.1-.1.1-.1.3-.1.4-.2.1 0 .2 0 .3v.2c0 .1 0 .3.1.4.1.2.3.4.4.5.2.1.4.6.6.6.2 0 .4-.1.5-.1.2 0 .4 0 .6-.1.2-.1.1-.3.3-.5.1 0 .3.1.4 0 .2-.1.3-.3.4-.5v-.2c0-.1.1-.2.1-.3 0-.1-.1-.1-.1-.2v-.3c0-.2 0-.4-.1-.5-.4-.7-1.2-.9-2-.8-.2 0-.3.1-.4.2-.2.1-.1.2-.3.2-.1 0-.2.1-.2.2v.2"/><g><path class="st2" d="M69.4-56.3v.2c-.1.1-.1.1-.2.1-.1.1-.1.3-.1.4-.2.1 0 .2 0 .3v.2c0 .1 0 .3.1.4.1.2.3.4.4.5.2.1.4.6.6.6.2 0 .4-.1.5-.1.2 0 .4 0 .6-.1.2-.1.1-.3.3-.5.1-.1.3 0 .4-.1.2-.1.3-.3.4-.5v-.2c0-.1.1-.2.1-.3 0-.1-.1-.1-.1-.2v-.3c0-.2 0-.4-.1-.5-.4-.7-1.2-.9-2-.8-.2 0-.3.1-.4.2-.2.1-.1.2-.3.2-.1 0-.2.1-.2.2v.3M61.8-56.3v.2c-.1.1-.1.1-.2.1-.1.1-.1.3-.1.4-.2.1 0 .2 0 .3v.2c0 .1 0 .3.1.4.1.2.3.4.4.5.2.1.4.6.6.6.2 0 .4-.1.5-.1.2 0 .4 0 .6-.1.2-.1.1-.3.3-.5.1-.1.3 0 .4-.1.2-.1.3-.3.4-.5v-.2c0-.1.1-.2.1-.3 0-.1-.1-.1-.1-.2v-.3c0-.2 0-.4-.1-.5-.4-.7-1.2-.9-2-.8-.2 0-.3.1-.4.2-.2.1-.1.2-.3.2-.1 0-.2.1-.2.2v.3M54.1-56.3v.2c-.1 0-.1 0-.2.1s-.1.3-.1.4c-.2.1 0 .2 0 .3v.2c0 .1 0 .3.1.4.1.2.3.4.4.5.2.1.4.6.6.6.2 0 .4-.1.5-.1.2 0 .4 0 .6-.1.2-.1.1-.3.3-.5.1-.1.3 0 .4-.1.2-.1.3-.3.4-.5v-.2c0-.1.1-.2.1-.3 0-.1-.1-.1-.1-.2v-.3c0-.2 0-.4-.1-.5-.4-.7-1.2-.9-2-.8-.2 0-.3.1-.4.2-.2.1-.1.2-.3.2-.1 0-.2.1-.2.2v.3M46.5-56.3v.2c-.1.1-.1.1-.2.1-.1.1-.1.3-.1.4-.2.1 0 .2 0 .3v.2c0 .1 0 .3.1.4.1.2.3.4.4.5.2.1.4.6.6.6.2 0 .4-.1.5-.1.2 0 .4 0 .6-.1.2-.1.1-.3.3-.5.1-.1.3 0 .4-.1.2-.1.3-.3.4-.5v-.2c0-.1.1-.2.1-.3 0-.1-.1-.1-.1-.2v-.3c0-.2 0-.4-.1-.5-.4-.7-1.2-.9-2-.8-.2 0-.3.1-.4.2-.2.1-.1.2-.3.2-.1 0-.2.1-.2.2v.3M38.8-56.3v.2c-.1.1-.1.1-.2.1-.1.1-.1.3-.1.4-.2.1 0 .2 0 .3v.2c0 .1 0 .3.1.4.1.2.3.4.4.5.2.1.4.6.6.6.2 0 .4-.1.5-.1.2 0 .4 0 .6-.1.2-.1.1-.3.3-.5.1-.1.3 0 .4-.1.2-.1.3-.3.4-.5v-.2c0-.1.1-.2.1-.3 0-.1-.1-.1-.1-.2v-.3c0-.2 0-.4-.1-.5-.4-.7-1.2-.9-2-.8-.2 0-.3.1-.4.2-.2.1-.1.2-.3.2-.1 0-.2.1-.2.2v.3M31.1-56.3v.2c-.1.1-.1.1-.2.1-.1.1-.1.3-.1.4-.2.1 0 .2 0 .3v.2c0 .1 0 .3.1.4.1.2.3.4.4.5.2.1.4.6.6.6.2 0 .4-.1.5-.1.2 0 .4 0 .6-.1.2-.1.1-.3.3-.5.1-.1.3 0 .4-.1.2-.1.3-.3.4-.5v-.2c0-.1.1-.2.1-.3 0-.1-.1-.1-.1-.2v-.3c0-.2 0-.4-.1-.5-.4-.7-1.2-.9-2-.8-.2 0-.3.1-.4.2-.2.1-.1.2-.3.2-.1 0-.2.1-.2.2v.3M23.5-56.3v.2c-.1.1-.1.1-.2.1-.1.1-.1.3-.1.4-.2.1 0 .2 0 .3v.2c0 .1 0 .3.1.4.1.2.3.4.4.5.2.1.4.6.6.6.2 0 .4-.1.5-.1.2 0 .4 0 .6-.1.2-.1.1-.3.3-.5.1-.1.3 0 .4-.1.2-.1.3-.3.4-.5v-.2c0-.1.1-.2.1-.3 0-.1-.1-.1-.1-.2v-.3c0-.2 0-.4-.1-.5-.4-.7-1.2-.9-2-.8-.2 0-.3.1-.4.2-.2.1-.1.2-.3.2-.1 0-.2.1-.2.2v.3M15.8-56.3v.2c-.1.1-.1.1-.2.1-.1.1-.1.3-.1.4-.2.1 0 .2 0 .3v.2c0 .1 0 .3.1.4.1.2.3.4.4.5.2.1.4.6.6.6.2 0 .4-.1.5-.1.2 0 .4 0 .6-.1.2-.1.1-.3.3-.5.1-.1.3 0 .4-.1.2-.1.3-.3.4-.5v-.2c0-.1.1-.2.1-.3 0-.1-.1-.1-.1-.2v-.3c0-.2 0-.4-.1-.5-.4-.7-1.2-.9-2-.8-.2 0-.3.1-.4.2-.2.1-.1.2-.3.2-.1 0-.2.1-.2.2v.3M8.2-56.3v.2c-.1 0-.2 0-.2.1-.1.1-.1.3-.1.4-.2.1 0 .2 0 .3v.2c0 .1 0 .3.1.4.1.2.3.4.4.5.2.1.4.6.6.6.2 0 .4-.1.5-.1.2 0 .4 0 .6-.1.2-.1.1-.3.3-.5.1-.1.3 0 .4-.1.2-.1.3-.3.4-.5v-.2c0-.1.1-.2.1-.3 0-.1-.1-.1-.1-.2v-.3c0-.2 0-.4-.1-.5-.4-.7-1.2-.9-2-.8-.2 0-.3.1-.4.2-.2.1-.1.2-.3.2-.1 0-.2.1-.2.2v.3c-.1 0-.1 0 0 0M.5-56.3v.2c-.1.1-.1.1-.2.1-.1.1-.1.3-.1.4-.2.1 0 .2 0 .3v.2c0 .1 0 .3.1.4.1.2.3.4.4.5.2.1.4.6.6.6.2 0 .4-.1.5-.1.2 0 .4 0 .6-.1.2-.1.1-.3.3-.5.1-.1.3 0 .4-.1.2-.1.3-.3.4-.5v-.2c0-.1.1-.2.1-.3 0-.1-.1-.1-.1-.2v-.3c0-.2 0-.4-.1-.5-.4-.7-1.2-.9-2-.8-.2 0-.3.1-.4.2-.2.1-.1.2-.3.2-.1 0-.2.1-.2.2v.3"/></g><g><path class="st2" d="M69.4-48.7v.2c-.1.1-.1.1-.2.1-.1.1-.1.3-.1.4-.2.1 0 .2 0 .3v.2c0 .1 0 .3.1.4.1.2.3.4.4.5.2.1.4.6.6.6.2 0 .4-.1.5-.1.2 0 .4 0 .6-.1.2-.1.1-.3.3-.5.1-.1.3 0 .4-.1.2-.1.3-.3.4-.5v-.2c0-.1.1-.2.1-.3 0-.1-.1-.1-.1-.2v-.3c0-.2 0-.4-.1-.5-.4-.7-1.2-.9-2-.8-.2 0-.3.1-.4.2-.2.1-.1.2-.3.2-.1 0-.2.1-.2.2v.3M61.8-48.7v.2c-.1.1-.1.1-.2.1-.1.1-.1.3-.1.4-.2.1 0 .2 0 .3v.2c0 .1 0 .3.1.4.1.2.3.4.4.5.2.1.4.6.6.6.2 0 .4-.1.5-.1.2 0 .4 0 .6-.1.2-.1.1-.3.3-.5.1-.1.3 0 .4-.1.2-.1.3-.3.4-.5v-.2c0-.1.1-.2.1-.3 0-.1-.1-.1-.1-.2v-.3c0-.2 0-.4-.1-.5-.4-.7-1.2-.9-2-.8-.2 0-.3.1-.4.2-.2.1-.1.2-.3.2-.1 0-.2.1-.2.2v.3M54.1-48.7v.2c-.1.1-.1.1-.2.1-.1.1-.1.3-.1.4-.2.1 0 .2 0 .3v.2c0 .1 0 .3.1.4.1.2.3.4.4.5.2.1.4.6.6.6.2 0 .4-.1.5-.1.2 0 .4 0 .6-.1.2-.1.1-.3.3-.5.1-.1.3 0 .4-.1.2-.1.3-.3.4-.5v-.2c0-.1.1-.2.1-.3 0-.1-.1-.1-.1-.2v-.3c0-.2 0-.4-.1-.5-.4-.7-1.2-.9-2-.8-.2 0-.3.1-.4.2-.2.1-.1.2-.3.2-.1 0-.2.1-.2.2v.3M46.5-48.7v.2c-.1.1-.1.1-.2.1-.1.1-.1.3-.1.4-.2.1 0 .2 0 .3v.2c0 .1 0 .3.1.4.1.2.3.4.4.5.2.1.4.6.6.6.2 0 .4-.1.5-.1.2 0 .4 0 .6-.1.2-.1.1-.3.3-.5.1-.1.3 0 .4-.1.2-.1.3-.3.4-.5v-.2c0-.1.1-.2.1-.3 0-.1-.1-.1-.1-.2v-.3c0-.2 0-.4-.1-.5-.4-.7-1.2-.9-2-.8-.2 0-.3.1-.4.2-.2.1-.1.2-.3.2-.1 0-.2.1-.2.2v.3M38.8-48.7v.2c-.1.1-.1.1-.2.1-.1.1-.1.3-.1.4-.2.1 0 .2 0 .3v.2c0 .1 0 .3.1.4.1.2.3.4.4.5.2.1.4.6.6.6.2 0 .4-.1.5-.1.2 0 .4 0 .6-.1.2-.1.1-.3.3-.5.1-.1.3 0 .4-.1.2-.1.3-.3.4-.5v-.2c0-.1.1-.2.1-.3 0-.1-.1-.1-.1-.2v-.3c0-.2 0-.4-.1-.5-.4-.7-1.2-.9-2-.8-.2 0-.3.1-.4.2-.2.1-.1.2-.3.2-.1 0-.2.1-.2.2v.3M31.1-48.7v.2c-.1.1-.1.1-.2.1-.1.1-.1.3-.1.4-.2.1 0 .2 0 .3v.2c0 .1 0 .3.1.4.1.2.3.4.4.5.2.1.4.6.6.6.2 0 .4-.1.5-.1.2 0 .4 0 .6-.1.2-.1.1-.3.3-.5.1-.1.3 0 .4-.1.2-.1.3-.3.4-.5v-.2c0-.1.1-.2.1-.3 0-.1-.1-.1-.1-.2v-.3c0-.2 0-.4-.1-.5-.4-.7-1.2-.9-2-.8-.2 0-.3.1-.4.2-.2.1-.1.2-.3.2-.1 0-.2.1-.2.2v.3M23.5-48.7v.2c-.1.1-.1.1-.2.1-.1.1-.1.3-.1.4-.2.1 0 .2 0 .3v.2c0 .1 0 .3.1.4.1.2.3.4.4.5.2.1.4.6.6.6.2 0 .4-.1.5-.1.2 0 .4 0 .6-.1.2-.1.1-.3.3-.5.1-.1.3 0 .4-.1.2-.1.3-.3.4-.5v-.2c0-.1.1-.2.1-.3 0-.1-.1-.1-.1-.2v-.3c0-.2 0-.4-.1-.5-.4-.7-1.2-.9-2-.8-.2 0-.3.1-.4.2-.2.1-.1.2-.3.2-.1 0-.2.1-.2.2v.3M15.8-48.7v.2c-.1.1-.1.1-.2.1-.1.1-.1.3-.1.4-.2.1 0 .2 0 .3v.2c0 .1 0 .3.1.4.1.2.3.4.4.5.2.1.4.6.6.6.2 0 .4-.1.5-.1.2 0 .4 0 .6-.1.2-.1.1-.3.3-.5.1-.1.3 0 .4-.1.2-.1.3-.3.4-.5v-.2c0-.1.1-.2.1-.3 0-.1-.1-.1-.1-.2v-.3c0-.2 0-.4-.1-.5-.4-.7-1.2-.9-2-.8-.2 0-.3.1-.4.2-.2.1-.1.2-.3.2-.1 0-.2.1-.2.2v.3M8.2-48.7v.2c-.1.1-.2.1-.2.1-.1.1-.1.3-.1.4-.2.1 0 .2 0 .3v.2c0 .1 0 .3.1.4.1.2.3.4.4.5.1.2.3.6.5.6s.4-.1.5-.1c.2 0 .4 0 .6-.1.2-.1.1-.3.3-.5.1-.1.3 0 .4-.1.2-.1.3-.3.4-.5v-.2c0-.1.1-.2.1-.3 0-.1-.1-.1-.1-.2v-.3c0-.2 0-.4-.1-.5-.4-.7-1.2-.9-2-.8-.2 0-.3.1-.4.2-.2.1-.1.2-.3.2-.1 0-.2.1-.2.2.1.3.1.2.1.3-.1 0-.1 0 0 0M.5-48.7v.2c-.1.1-.1.1-.2.1-.1.1-.1.3-.1.4-.2.1 0 .2 0 .3v.2c0 .1 0 .3.1.4.1.2.3.4.4.5.2.2.3.6.6.6.2 0 .4-.1.5-.1.2 0 .4 0 .6-.1.2-.1.1-.3.3-.5.1-.1.3 0 .4-.1.2-.1.3-.3.4-.5v-.2c0-.1.1-.2.1-.3 0-.1-.1-.1-.1-.2v-.3c0-.2 0-.4-.1-.5-.4-.7-1.2-.9-2-.8-.2 0-.3.1-.4.2-.2.1-.1.2-.3.2-.1 0-.2.1-.2.2v.3"/></g><g><path class="st2" d="M69.4-41v.2c-.1.1-.1.1-.2.1-.1.1-.1.3-.1.4-.2.1 0 .2 0 .3v.2c0 .1 0 .3.1.4.1.2.3.4.4.5.2.1.4.6.6.6.2 0 .4-.1.5-.1.2 0 .4 0 .6-.1.2-.1.1-.3.3-.5.1-.1.3 0 .4-.1.2-.1.3-.3.4-.5v-.2c0-.1.1-.2.1-.3 0-.1-.1-.1-.1-.2v-.3c0-.2 0-.4-.1-.5-.4-.7-1.2-.9-2-.8-.2 0-.3.1-.4.2-.2.1-.1.2-.3.2-.1 0-.2.1-.2.2v.3M61.8-41v.2c-.1.1-.1.1-.2.1-.1.1-.1.3-.1.4-.2.1 0 .2 0 .3v.2c0 .1 0 .3.1.4.1.2.3.4.4.5.2.1.4.6.6.6.2 0 .4-.1.5-.1.2 0 .4 0 .6-.1.2-.1.1-.3.3-.5.1-.1.3 0 .4-.1.2-.1.3-.3.4-.5v-.2c0-.1.1-.2.1-.3 0-.1-.1-.1-.1-.2v-.3c0-.2 0-.4-.1-.5-.4-.7-1.2-.9-2-.8-.2 0-.3.1-.4.2-.2.1-.1.2-.3.2-.1 0-.2.1-.2.2v.3M54.1-41v.2c-.1.1-.1.1-.2.1-.1.1-.1.3-.1.4-.2.1 0 .2 0 .3v.2c0 .1 0 .3.1.4.1.2.3.4.4.5.2.1.4.6.6.6.2 0 .4-.1.5-.1.2 0 .4 0 .6-.1.2-.1.1-.3.3-.5.1-.1.3 0 .4-.1.2-.1.3-.3.4-.5v-.2c0-.1.1-.2.1-.3 0-.1-.1-.1-.1-.2v-.3c0-.2 0-.4-.1-.5-.4-.7-1.2-.9-2-.8-.2 0-.3.1-.4.2-.2.1-.1.2-.3.2-.1 0-.2.1-.2.2v.3M46.5-41v.2c-.1.1-.1.1-.2.1-.1.1-.1.3-.1.4-.2.1 0 .2 0 .3v.2c0 .1 0 .3.1.4.1.2.3.4.4.5.2.1.4.6.6.6.2 0 .4-.1.5-.1.2 0 .4 0 .6-.1.2-.1.1-.3.3-.5.1-.1.3 0 .4-.1.2-.1.3-.3.4-.5v-.2c0-.1.1-.2.1-.3 0-.1-.1-.1-.1-.2v-.3c0-.2 0-.4-.1-.5-.4-.7-1.2-.9-2-.8-.2 0-.3.1-.4.2-.2.1-.1.2-.3.2-.1 0-.2.1-.2.2v.3M38.8-41v.2c-.1.1-.1.1-.2.1-.1.1-.1.3-.1.4-.2.1 0 .2 0 .3v.2c0 .1 0 .3.1.4.1.2.3.4.4.5.2.1.4.6.6.6.2 0 .4-.1.5-.1.2 0 .4 0 .6-.1.2-.1.1-.3.3-.5.1-.1.3 0 .4-.1.2-.1.3-.3.4-.5v-.2c0-.1.1-.2.1-.3 0-.1-.1-.1-.1-.2v-.3c0-.2 0-.4-.1-.5-.4-.7-1.2-.9-2-.8-.2 0-.3.1-.4.2-.2.1-.1.2-.3.2-.1 0-.2.1-.2.2v.3M31.1-41v.2c-.1.1-.1.1-.2.1-.1.1-.1.3-.1.4-.2.1 0 .2 0 .3v.2c0 .1 0 .3.1.4.1.2.3.4.4.5.2.1.4.6.6.6.2 0 .4-.1.5-.1.2 0 .4 0 .6-.1.2-.1.1-.3.3-.5.1-.1.3 0 .4-.1.2-.1.3-.3.4-.5v-.2c0-.1.1-.2.1-.3 0-.1-.1-.1-.1-.2v-.3c0-.2 0-.4-.1-.5-.4-.7-1.2-.9-2-.8-.2 0-.3.1-.4.2-.2.1-.1.2-.3.2-.1 0-.2.1-.2.2v.3M23.5-41v.2c-.1.1-.1.1-.2.1-.1.1-.1.3-.1.4-.2.1 0 .2 0 .3v.2c0 .1 0 .3.1.4.1.2.3.4.4.5.2.1.4.6.6.6.2 0 .4-.1.5-.1.2 0 .4 0 .6-.1.2-.1.1-.3.3-.5.1-.1.3 0 .4-.1.2-.1.3-.3.4-.5v-.2c0-.1.1-.2.1-.3 0-.1-.1-.1-.1-.2v-.3c0-.2 0-.4-.1-.5-.4-.7-1.2-.9-2-.8-.2 0-.3.1-.4.2-.2.1-.1.2-.3.2-.1 0-.2.1-.2.2v.3M15.8-41v.2c-.1.1-.1.1-.2.1-.1.1-.1.3-.1.4-.2.1 0 .2 0 .3v.2c0 .1 0 .3.1.4.1.2.3.4.4.5.2.1.4.6.6.6.2 0 .4-.1.5-.1.2 0 .4 0 .6-.1.2-.1.1-.3.3-.5.1-.1.3 0 .4-.1.2-.1.3-.3.4-.5v-.2c0-.1.1-.2.1-.3 0-.1-.1-.1-.1-.2v-.3c0-.2 0-.4-.1-.5-.4-.7-1.2-.9-2-.8-.2 0-.3.1-.4.2-.2.1-.1.2-.3.2-.1 0-.2.1-.2.2v.3M8.2-41v.2c-.1 0-.2 0-.2.1-.1.1-.1.3-.1.4-.2.1 0 .2 0 .3v.2c0 .1 0 .3.1.4.1.2.3.4.4.5.2.1.4.6.6.6.2 0 .4-.1.5-.1.2 0 .4 0 .6-.1.2-.1.1-.3.3-.5.1-.1.3 0 .4-.1.2-.1.3-.3.4-.5v-.2c0-.1.1-.2.1-.3 0-.1-.1-.1-.1-.2v-.3c0-.2 0-.4-.1-.5-.4-.7-1.2-.9-2-.8-.2 0-.3.1-.4.2-.2.1-.1.2-.3.2-.1 0-.2.1-.2.2v.3c-.1 0-.1 0 0 0M.5-41v.2c-.1.1-.1.1-.2.1-.1.1-.1.3-.1.4-.2.1 0 .2 0 .3v.2c0 .1 0 .3.1.4.1.2.3.4.4.5.2.1.4.6.6.6.2 0 .4-.1.5-.1.2 0 .4 0 .6-.1.2-.1.1-.3.3-.5h.4c.2-.1.3-.3.4-.5v-.2c0-.1.1-.2.1-.3 0-.1-.1-.1-.1-.2v-.3c0-.2 0-.4-.1-.5-.4-.7-1.2-.9-2-.8-.2 0-.3.1-.4.2-.2.1-.1.2-.3.2-.1 0-.2.1-.2.2v.2"/></g><g><path class="st2" d="M69.4-33.4v.2c-.1.1-.1.1-.2.1-.1.1-.1.3-.1.4-.2.1 0 .2 0 .3v.2c0 .1 0 .3.1.4.1.2.3.4.4.5.2.1.4.6.6.6.2 0 .4-.1.5-.1.2 0 .4 0 .6-.1.2-.1.1-.3.3-.5.1-.1.3 0 .4-.1.2-.1.3-.3.4-.5v-.2c0-.1.1-.2.1-.3 0-.1-.1-.1-.1-.2v-.3c0-.2 0-.4-.1-.5-.4-.7-1.2-.9-2-.8-.2 0-.3.1-.4.2-.2.1-.1.2-.3.2-.1 0-.2.1-.2.2v.3M61.8-33.4v.2c-.1.1-.1.1-.2.1-.1.1-.1.3-.1.4-.2.1 0 .2 0 .3v.2c0 .1 0 .3.1.4.1.2.3.4.4.5.2.1.4.6.6.6.2 0 .4-.1.5-.1.2 0 .4 0 .6-.1.2-.1.1-.3.3-.5.1-.1.3 0 .4-.1.2-.1.3-.3.4-.5v-.2c0-.1.1-.2.1-.3 0-.1-.1-.1-.1-.2v-.3c0-.2 0-.4-.1-.5-.4-.7-1.2-.9-2-.8-.2 0-.3.1-.4.2-.2.1-.1.2-.3.2-.1 0-.2.1-.2.2v.3M54.1-33.4v.2c-.1.1-.1.1-.2.1-.1.1-.1.3-.1.4-.2.1 0 .2 0 .3v.2c0 .1 0 .3.1.4.1.2.3.4.4.5.2.1.4.6.6.6.2 0 .4-.1.5-.1.2 0 .4 0 .6-.1.2-.1.1-.3.3-.5.1-.1.3 0 .4-.1.2-.1.3-.3.4-.5v-.2c0-.1.1-.2.1-.3 0-.1-.1-.1-.1-.2v-.3c0-.2 0-.4-.1-.5-.4-.7-1.2-.9-2-.8-.2 0-.3.1-.4.2-.2.1-.1.2-.3.2-.1 0-.2.1-.2.2v.3M46.5-33.4v.2c-.1.1-.1.1-.2.1-.1.1-.1.3-.1.4-.2.1 0 .2 0 .3v.2c0 .1 0 .3.1.4.1.2.3.4.4.5.2.1.4.6.6.6.2 0 .4-.1.5-.1.2 0 .4 0 .6-.1.2-.1.1-.3.3-.5.1-.1.3 0 .4-.1.2-.1.3-.3.4-.5v-.2c0-.1.1-.2.1-.3 0-.1-.1-.1-.1-.2v-.3c0-.2 0-.4-.1-.5-.4-.7-1.2-.9-2-.8-.2 0-.3.1-.4.2-.2.1-.1.2-.3.2-.1 0-.2.1-.2.2v.3M38.8-33.4v.2c-.1.1-.1.1-.2.1-.1.1-.1.3-.1.4-.2.1 0 .2 0 .3v.2c0 .1 0 .3.1.4.1.2.3.4.4.5.2.1.4.6.6.6.2 0 .4-.1.5-.1.2 0 .4 0 .6-.1.2-.1.1-.3.3-.5.1-.1.3 0 .4-.1.2-.1.3-.3.4-.5v-.2c0-.1.1-.2.1-.3 0-.1-.1-.1-.1-.2v-.3c0-.2 0-.4-.1-.5-.4-.7-1.2-.9-2-.8-.2 0-.3.1-.4.2-.2.1-.1.2-.3.2-.1 0-.2.1-.2.2v.3M31.1-33.4v.2c-.1.1-.1.1-.2.1-.1.1-.1.3-.1.4-.2.1 0 .2 0 .3v.2c0 .1 0 .3.1.4.1.2.3.4.4.5.2.1.4.6.6.6.2 0 .4-.1.5-.1.2 0 .4 0 .6-.1.2-.1.1-.3.3-.5.1-.1.3 0 .4-.1.2-.1.3-.3.4-.5v-.2c0-.1.1-.2.1-.3 0-.1-.1-.1-.1-.2v-.3c0-.2 0-.4-.1-.5-.4-.7-1.2-.9-2-.8-.2 0-.3.1-.4.2-.2.1-.1.2-.3.2-.1 0-.2.1-.2.2v.3M23.5-33.4v.2c-.1.1-.1.1-.2.1-.1.1-.1.3-.1.4-.2.1 0 .2 0 .3v.2c0 .1 0 .3.1.4.1.2.3.4.4.5.2.1.4.6.6.6.2 0 .4-.1.5-.1.2 0 .4 0 .6-.1.2-.1.1-.3.3-.5.1-.1.3 0 .4-.1.2-.1.3-.3.4-.5v-.2c0-.1.1-.2.1-.3 0-.1-.1-.1-.1-.2v-.3c0-.2 0-.4-.1-.5-.4-.7-1.2-.9-2-.8-.2 0-.3.1-.4.2-.2.1-.1.2-.3.2-.1 0-.2.1-.2.2v.3M15.8-33.4v.2c-.1.1-.1.1-.2.1-.1.1-.1.3-.1.4-.2.1 0 .2 0 .3v.2c0 .1 0 .3.1.4.1.2.3.4.4.5.2.1.4.6.6.6.2 0 .4-.1.5-.1.2 0 .4 0 .6-.1.2-.1.1-.3.3-.5.1-.1.3 0 .4-.1.2-.1.3-.3.4-.5v-.2c0-.1.1-.2.1-.3 0-.1-.1-.1-.1-.2v-.3c0-.2 0-.4-.1-.5-.4-.7-1.2-.9-2-.8-.2 0-.3.1-.4.2-.2.1-.1.2-.3.2-.1 0-.2.1-.2.2v.3M8.2-33.4v.2c-.1.1-.2.1-.2.1-.1.1-.1.3-.1.4-.2.1 0 .2 0 .3v.2c0 .1 0 .3.1.4.1.2.3.4.4.5.2.1.4.6.6.6.2 0 .4-.1.5-.1.2 0 .4 0 .6-.1.2-.1.1-.3.3-.5.1-.1.3 0 .4-.1.2-.1.3-.3.4-.5v-.2c0-.1.1-.2.1-.3 0-.1-.1-.1-.1-.2v-.3c0-.2 0-.4-.1-.5-.4-.7-1.2-.9-2-.8-.2 0-.3.1-.4.2-.2.1-.1.2-.3.2-.1 0-.2.1-.2.2v.3c-.1 0-.1 0 0 0M.5-33.4v.2c-.1.1-.1.1-.2.1-.1.1-.1.3-.1.4-.2.1 0 .2 0 .3v.2c0 .1 0 .3.1.4.1.2.3.4.4.5.2.1.4.6.6.6.2 0 .4-.1.5-.1.2 0 .4 0 .6-.1.2-.1.1-.3.3-.5.1-.1.3 0 .4-.1.2-.1.3-.3.4-.5v-.2c0-.1.1-.2.1-.3 0-.1-.1-.1-.1-.2v-.3c0-.2 0-.4-.1-.5-.4-.7-1.2-.9-2-.8-.2 0-.3.1-.4.2-.2.1-.1.2-.3.2-.1 0-.2.1-.2.2v.3"/></g><g><path class="st2" d="M69.4-25.7v.2c-.1.1-.1.1-.2.1-.1.1-.1.3-.1.4-.2.1 0 .2 0 .3v.2c0 .1 0 .3.1.4.1.2.3.4.4.5.2.1.4.6.6.6.2 0 .4-.1.5-.1.2 0 .4 0 .6-.1.2-.1.1-.3.3-.5.1-.1.3 0 .4-.1.2-.1.3-.3.4-.5v-.2c0-.1.1-.2.1-.3 0-.1-.1-.1-.1-.2v-.3c0-.2 0-.4-.1-.5-.4-.7-1.2-.9-2-.8-.2 0-.3.1-.4.2-.2.1-.1.2-.3.2-.1 0-.2.1-.2.2v.3M61.8-25.7v.2c-.1.1-.1.1-.2.1-.1.1-.1.3-.1.4-.2.1 0 .2 0 .3v.2c0 .1 0 .3.1.4.1.2.3.4.4.5.2.1.4.6.6.6.2 0 .4-.1.5-.1.2 0 .4 0 .6-.1.2-.1.1-.3.3-.5.1-.1.3 0 .4-.1.2-.1.3-.3.4-.5v-.2c0-.1.1-.2.1-.3 0-.1-.1-.1-.1-.2v-.3c0-.2 0-.4-.1-.5-.4-.7-1.2-.9-2-.8-.2 0-.3.1-.4.2-.2.1-.1.2-.3.2-.1 0-.2.1-.2.2v.3M54.1-25.7v.2c-.1.1-.1.1-.2.1-.1.1-.1.3-.1.4-.2.1 0 .2 0 .3v.2c0 .1 0 .3.1.4.1.2.3.4.4.5.2.1.4.6.6.6.2 0 .4-.1.5-.1.2 0 .4 0 .6-.1.2-.1.1-.3.3-.5.1-.1.3 0 .4-.1.2-.1.3-.3.4-.5v-.2c0-.1.1-.2.1-.3 0-.1-.1-.1-.1-.2v-.3c0-.2 0-.4-.1-.5-.4-.7-1.2-.9-2-.8-.2 0-.3.1-.4.2-.2.1-.1.2-.3.2-.1 0-.2.1-.2.2v.3M46.5-25.7v.2c-.1.1-.1.1-.2.1-.1.1-.1.3-.1.4-.2.1 0 .2 0 .3v.2c0 .1 0 .3.1.4.1.2.3.4.4.5.2.1.4.6.6.6.2 0 .4-.1.5-.1.2 0 .4 0 .6-.1.2-.1.1-.3.3-.5.1-.1.3 0 .4-.1.2-.1.3-.3.4-.5v-.2c0-.1.1-.2.1-.3 0-.1-.1-.1-.1-.2v-.3c0-.2 0-.4-.1-.5-.4-.7-1.2-.9-2-.8-.2 0-.3.1-.4.2-.2.1-.1.2-.3.2-.1 0-.2.1-.2.2v.3M38.8-25.7v.2c-.1.1-.1.1-.2.1-.1.1-.1.3-.1.4-.2.1 0 .2 0 .3v.2c0 .1 0 .3.1.4.1.2.3.4.4.5.2.1.4.6.6.6.2 0 .4-.1.5-.1.2 0 .4 0 .6-.1.2-.1.1-.3.3-.5.1-.1.3 0 .4-.1.2-.1.3-.3.4-.5v-.2c0-.1.1-.2.1-.3 0-.1-.1-.1-.1-.2v-.3c0-.2 0-.4-.1-.5-.4-.7-1.2-.9-2-.8-.2 0-.3.1-.4.2-.2.1-.1.2-.3.2-.1 0-.2.1-.2.2v.3M31.1-25.7v.2c-.1.1-.1.1-.2.1-.1.1-.1.3-.1.4-.2.1 0 .2 0 .3v.2c0 .1 0 .3.1.4.1.2.3.4.4.5.2.1.4.6.6.6.2 0 .4-.1.5-.1.2 0 .4 0 .6-.1.2-.1.1-.3.3-.5.1-.1.3 0 .4-.1.2-.1.3-.3.4-.5v-.2c0-.1.1-.2.1-.3 0-.1-.1-.1-.1-.2v-.3c0-.2 0-.4-.1-.5-.4-.7-1.2-.9-2-.8-.2 0-.3.1-.4.2-.2.1-.1.2-.3.2-.1 0-.2.1-.2.2v.3M23.5-25.7v.2c-.1.1-.1.1-.2.1-.1.1-.1.3-.1.4-.2.1 0 .2 0 .3v.2c0 .1 0 .3.1.4.1.2.3.4.4.5.2.1.4.6.6.6.2 0 .4-.1.5-.1.2 0 .4 0 .6-.1.2-.1.1-.3.3-.5.1-.1.3 0 .4-.1.2-.1.3-.3.4-.5v-.2c0-.1.1-.2.1-.3 0-.1-.1-.1-.1-.2v-.3c0-.2 0-.4-.1-.5-.4-.7-1.2-.9-2-.8-.2 0-.3.1-.4.2-.2.1-.1.2-.3.2-.1 0-.2.1-.2.2v.3M15.8-25.7v.2c-.1.1-.1.1-.2.1-.1.1-.1.3-.1.4-.2.1 0 .2 0 .3v.2c0 .1 0 .3.1.4.1.2.3.4.4.5.2.1.4.6.6.6.2 0 .4-.1.5-.1.2 0 .4 0 .6-.1.2-.1.1-.3.3-.5.1-.1.3 0 .4-.1.2-.1.3-.3.4-.5v-.2c0-.1.1-.2.1-.3 0-.1-.1-.1-.1-.2v-.3c0-.2 0-.4-.1-.5-.4-.7-1.2-.9-2-.8-.2 0-.3.1-.4.2-.2.1-.1.2-.3.2-.1 0-.2.1-.2.2v.3M8.2-25.7v.2c-.1.1-.2 0-.2.1-.1.1-.1.3-.1.4-.2.1 0 .2 0 .3v.2c0 .1 0 .3.1.4 0 .1.2.3.3.5.2.1.4.6.6.6.2 0 .4-.1.5-.1.2 0 .4 0 .6-.1.2-.1.1-.3.3-.5.1-.1.3 0 .4-.1.2-.1.3-.3.4-.5v-.2c0-.1.1-.2.1-.3 0-.1-.1-.1-.1-.2v-.3c0-.2 0-.4-.1-.5-.4-.7-1.2-.9-2-.8-.2 0-.3.1-.4.2-.2.1-.1.2-.3.2-.1 0-.2.1-.2.2.1.2.1.2.1.3-.1 0-.1 0 0 0M.5-25.7v.2c-.1.1-.1.1-.2.1-.1.1-.1.3-.1.4-.2.1 0 .2 0 .3v.2c0 .1 0 .3.1.4.1.2.3.4.4.5.2.1.3.5.6.6.2 0 .4-.1.5-.1.2 0 .4 0 .6-.1.2-.1.1-.3.3-.5.1-.1.3 0 .4-.1.2-.1.3-.3.4-.5v-.2c0-.1.1-.2.1-.3 0-.1-.1-.1-.1-.2v-.3c0-.2 0-.4-.1-.5-.4-.7-1.2-.9-2-.8-.2 0-.3.1-.4.2-.2.1-.1.2-.3.2-.1 0-.2.1-.2.2v.3"/></g><g><path class="st2" d="M69.4-18.1v.2c-.1.1-.1.1-.2.1-.1.1-.1.3-.1.4-.2.1 0 .2 0 .3v.2c0 .1 0 .3.1.4.1.2.3.4.4.5.2.1.4.6.6.6.2 0 .4-.1.5-.1.2 0 .4 0 .6-.1.2-.1.1-.3.3-.5.1-.1.3 0 .4-.1.2-.1.3-.3.4-.5v-.2c0-.1.1-.2.1-.3 0-.1-.1-.1-.1-.2v-.3c0-.2 0-.4-.1-.5-.4-.7-1.2-.9-2-.8-.2 0-.3.1-.4.2-.2.1-.1.2-.3.2-.1 0-.2.1-.2.2v.3c0 .1 0 0 0 0M61.8-18.1v.2c-.1.1-.1.1-.2.1-.1.1-.1.3-.1.4-.2.1 0 .2 0 .3v.2c0 .1 0 .3.1.4.1.2.3.4.4.5.2.1.4.6.6.6.2 0 .4-.1.5-.1.2 0 .4 0 .6-.1.2-.1.1-.3.3-.5.1-.1.3 0 .4-.1.2-.1.3-.3.4-.5v-.2c0-.1.1-.2.1-.3 0-.1-.1-.1-.1-.2v-.3c0-.2 0-.4-.1-.5-.4-.7-1.2-.9-2-.8-.2 0-.3.1-.4.2-.2.1-.1.2-.3.2-.1 0-.2.1-.2.2v.3c0 .1 0 0 0 0M54.1-18.1v.2c-.1.1-.1.1-.2.1-.1.1-.1.3-.1.4-.2.1 0 .2 0 .3v.2c0 .1 0 .3.1.4.1.2.3.4.4.5.2.1.4.6.6.6.2 0 .4-.1.5-.1.2 0 .4 0 .6-.1.2-.1.1-.3.3-.5.1-.1.3 0 .4-.1.2-.1.3-.3.4-.5v-.2c0-.1.1-.2.1-.3 0-.1-.1-.1-.1-.2v-.3c0-.2 0-.4-.1-.5-.4-.7-1.2-.9-2-.8-.2 0-.3.1-.4.2-.2.1-.1.2-.3.2-.1 0-.2.1-.2.2v.3c0 .1 0 0 0 0M46.5-18.1v.2c-.1.1-.1.1-.2.1-.1.1-.1.3-.1.4-.2.1 0 .2 0 .3v.2c0 .1 0 .3.1.4.1.2.3.4.4.5.2.1.4.6.6.6.2 0 .4-.1.5-.1.2 0 .4 0 .6-.1.2-.1.1-.3.3-.5.1-.1.3 0 .4-.1.2-.1.3-.3.4-.5v-.2c0-.1.1-.2.1-.3 0-.1-.1-.1-.1-.2v-.3c0-.2 0-.4-.1-.5-.4-.7-1.2-.9-2-.8-.2 0-.3.1-.4.2-.2.1-.1.2-.3.2-.1 0-.2.1-.2.2v.3c0 .1 0 0 0 0M38.8-18.1v.2c-.1.1-.1.1-.2.1-.1.1-.1.3-.1.4-.2.1 0 .2 0 .3v.2c0 .1 0 .3.1.4.1.2.3.4.4.5.2.1.4.6.6.6.2 0 .4-.1.5-.1.2 0 .4 0 .6-.1.2-.1.1-.3.3-.5.1-.1.3 0 .4-.1.2-.1.3-.3.4-.5v-.2c0-.1.1-.2.1-.3 0-.1-.1-.1-.1-.2v-.3c0-.2 0-.4-.1-.5-.4-.7-1.2-.9-2-.8-.2 0-.3.1-.4.2-.2.1-.1.2-.3.2-.1 0-.2.1-.2.2v.3c0 .1 0 0 0 0M31.1-18.1v.2c-.1.1-.1.1-.2.1-.1.1-.1.3-.1.4-.2.1 0 .2 0 .3v.2c0 .1 0 .3.1.4.1.2.3.4.4.5.2.1.4.6.6.6.2 0 .4-.1.5-.1.2 0 .4 0 .6-.1.2-.1.1-.3.3-.5.1-.1.3 0 .4-.1.2-.1.3-.3.4-.5v-.2c0-.1.1-.2.1-.3 0-.1-.1-.1-.1-.2v-.3c0-.2 0-.4-.1-.5-.4-.7-1.2-.9-2-.8-.2 0-.3.1-.4.2-.2.1-.1.2-.3.2-.1 0-.2.1-.2.2v.3c0 .1 0 0 0 0M23.5-18.1v.2c-.1.1-.1.1-.2.1-.1.1-.1.3-.1.4-.2.1 0 .2 0 .3v.2c0 .1 0 .3.1.4.1.2.3.4.4.5.2.1.4.6.6.6.2 0 .4-.1.5-.1.2 0 .4 0 .6-.1.2-.1.1-.3.3-.5.1-.1.3 0 .4-.1.2-.1.3-.3.4-.5v-.2c0-.1.1-.2.1-.3 0-.1-.1-.1-.1-.2v-.3c0-.2 0-.4-.1-.5-.4-.7-1.2-.9-2-.8-.2 0-.3.1-.4.2-.2.1-.1.2-.3.2-.1 0-.2.1-.2.2v.3c0 .1 0 0 0 0M15.8-18.1v.2c-.1.1-.1.1-.2.1-.1.1-.1.3-.1.4-.2.1 0 .2 0 .3v.2c0 .1 0 .3.1.4.1.2.3.4.4.5.2.1.4.6.6.6.2 0 .4-.1.5-.1.2 0 .4 0 .6-.1.2-.1.1-.3.3-.5.1-.1.3 0 .4-.1.2-.1.3-.3.4-.5v-.2c0-.1.1-.2.1-.3 0-.1-.1-.1-.1-.2v-.3c0-.2 0-.4-.1-.5-.4-.7-1.2-.9-2-.8-.2 0-.3.1-.4.2-.2.1-.1.2-.3.2-.1 0-.2.1-.2.2v.3c0 .1 0 0 0 0M8.2-18.1v.2c-.1.1-.2.1-.2.1-.1.1-.1.3-.1.4-.2.1 0 .2 0 .3v.2c0 .1 0 .3.1.4 0 .2.2.4.3.5.2.1.4.6.6.6.2 0 .4-.1.5-.1.2 0 .4 0 .6-.1.2-.1.1-.3.3-.5.1-.1.3 0 .4-.1.2-.1.3-.3.4-.5v-.2c0-.1.1-.2.1-.3 0-.1-.1-.1-.1-.2v-.3c0-.2 0-.4-.1-.5-.4-.7-1.2-.9-2-.8-.2 0-.3.1-.4.2-.2.1-.1.2-.3.2-.1 0-.2.1-.2.2.1.3.1.2.1.3-.1.1-.1 0 0 0M.5-18.1v.2c-.1.1-.1.1-.2.1-.1.1-.1.3-.1.4-.2.1 0 .2 0 .3v.2c0 .1 0 .3.1.4.1.2.3.4.4.5.2.1.4.6.6.6.2 0 .4-.1.5-.1.2 0 .4 0 .6-.1.2-.1.1-.3.3-.5.1 0 .3.1.4.1.2-.1.3-.3.4-.5v-.2c0-.1.1-.2.1-.3 0-.1-.1-.1-.1-.2v-.3c0-.2 0-.4-.1-.5-.4-.7-1.2-.9-2-.8-.2 0-.3.1-.4.2-.2.1-.1.2-.3.2-.1 0-.2.1-.2.2v.1c0 .1 0 0 0 0"/></g><g><path class="st2" d="M69.4-10.4v.2c-.1.1-.1.1-.2.1-.1.1-.1.3-.1.4-.2.1 0 .2 0 .3v.2c0 .1 0 .3.1.4.1.2.3.4.4.5.2.1.4.6.6.6.2 0 .4-.1.5-.1.2 0 .4 0 .6-.1.2-.1.1-.3.3-.5.1-.1.3 0 .4-.1.2-.1.3-.3.4-.5v-.2c0-.1.1-.2.1-.3 0-.1-.1-.1-.1-.2v-.3c0-.2 0-.4-.1-.5-.4-.7-1.2-.9-2-.8-.2 0-.3.1-.4.2-.2.1-.1.2-.3.2-.1 0-.2.1-.2.2v.3M61.8-10.4v.2c-.1.1-.1.1-.2.1-.1.1-.1.3-.1.4-.2.1 0 .2 0 .3v.2c0 .1 0 .3.1.4.1.2.3.4.4.5.2.1.4.6.6.6.2 0 .4-.1.5-.1.2 0 .4 0 .6-.1.2-.1.1-.3.3-.4.1-.1.3 0 .4-.1.2-.1.3-.3.4-.5v-.2c0-.1.1-.2.1-.3 0-.1-.1-.1-.1-.2v-.3c0-.2 0-.4-.1-.5-.4-.7-1.2-.9-2-.8-.2 0-.3.1-.4.2-.2.1-.1.2-.3.2-.1 0-.2.1-.2.2v.2M54.1-10.4v.2c-.1.1-.1.1-.2.1-.1.1-.1.3-.1.4-.2.1 0 .2 0 .3v.2c0 .1 0 .3.1.4.1.2.3.4.4.5.2.1.4.6.6.6.2 0 .4-.1.5-.1.2 0 .4 0 .6-.1.2-.1.1-.3.3-.5.1-.1.3 0 .4-.1.2-.1.3-.3.4-.5v-.2c0-.1.1-.2.1-.3 0-.1-.1-.1-.1-.2v-.3c0-.2 0-.4-.1-.5-.4-.7-1.2-.9-2-.8-.2 0-.3.1-.4.2-.2.1-.1.2-.3.2-.1 0-.2.1-.2.2v.3M46.5-10.4v.2c-.1.1-.1.1-.2.1-.1.1-.1.3-.1.4-.2.1 0 .2 0 .3v.2c0 .1 0 .3.1.4.1.2.3.4.4.5.2.1.4.6.6.6.2 0 .4-.1.5-.1.2 0 .4 0 .6-.1.2-.1.1-.3.3-.5.1-.1.3 0 .4-.1.2-.1.3-.3.4-.5v-.2c0-.1.1-.2.1-.3 0-.1-.1-.1-.1-.2v-.3c0-.2 0-.4-.1-.5-.4-.7-1.2-.9-2-.8-.2 0-.3.1-.4.2-.2.1-.1.2-.3.2-.1 0-.2.1-.2.2v.3M38.8-10.4v.2c-.1.1-.1.1-.2.1-.1.1-.1.3-.1.4-.2.1 0 .2 0 .3v.2c0 .1 0 .3.1.4.1.2.3.4.4.5.2.1.4.6.6.6.2 0 .4-.1.5-.1.2 0 .4 0 .6-.1.2-.1.1-.3.3-.4.1-.1.3 0 .4-.1.2-.1.3-.3.4-.5v-.2c0-.1.1-.2.1-.3 0-.1-.1-.1-.1-.2v-.3c0-.2 0-.4-.1-.5-.4-.7-1.2-.9-2-.8-.2 0-.3.1-.4.2-.2.1-.1.2-.3.2-.1 0-.2.1-.2.2v.2M31.1-10.4v.2c-.1.1-.1.1-.2.1-.1.1-.1.3-.1.4-.2.1 0 .2 0 .3v.2c0 .1 0 .3.1.4.1.2.3.4.4.5.2.1.4.6.6.6.2 0 .4-.1.5-.1.2 0 .4 0 .6-.1.2-.1.1-.3.3-.5.1-.1.3 0 .4-.1.2-.1.3-.3.4-.5v-.2c0-.1.1-.2.1-.3 0-.1-.1-.1-.1-.2v-.3c0-.2 0-.4-.1-.5-.4-.7-1.2-.9-2-.8-.2 0-.3.1-.4.2-.2.1-.1.2-.3.2-.1 0-.2.1-.2.2v.3M23.5-10.4v.2c-.1.1-.1.1-.2.1-.1.1-.1.3-.1.4-.2.1 0 .2 0 .3v.2c0 .1 0 .3.1.4.1.2.3.4.4.5.2.1.4.6.6.6.2 0 .4-.1.5-.1.2 0 .4 0 .6-.1.2-.1.1-.3.3-.5.1-.1.3 0 .4-.1.2-.1.3-.3.4-.5v-.2c0-.1.1-.2.1-.3 0-.1-.1-.1-.1-.2v-.3c0-.2 0-.4-.1-.5-.4-.7-1.2-.9-2-.8-.2 0-.3.1-.4.2-.2.1-.1.2-.3.2-.1 0-.2.1-.2.2v.3M15.8-10.4v.2c-.1.1-.1.1-.2.1-.1.1-.1.3-.1.4-.2.1 0 .2 0 .3v.2c0 .1 0 .3.1.4.1.2.3.4.4.5.2.1.4.6.6.6.2 0 .4-.1.5-.1.2 0 .4 0 .6-.1.2-.1.1-.3.3-.4.1-.1.3 0 .4-.1.2-.1.3-.3.4-.5v-.2c0-.1.1-.2.1-.3 0-.1-.1-.1-.1-.2v-.3c0-.2 0-.4-.1-.5-.4-.7-1.2-.9-2-.8-.2 0-.3.1-.4.2-.2.1-.1.2-.3.2-.1 0-.2.1-.2.2v.2M8.2-10.4v.2c-.1.1-.2 0-.2.1-.1.1-.1.3-.1.3-.2.1 0 .2 0 .3v.2c0 .1 0 .3.1.4 0 .2.2.4.3.6.2.1.4.6.6.6.2 0 .4-.1.5-.1.2 0 .4 0 .6-.1.2-.1.1-.3.3-.5.1-.1.3 0 .4-.1.2-.1.3-.3.4-.5v-.2c0-.1.1-.2.1-.3 0-.1-.1-.1-.1-.2v-.3c0-.2 0-.4-.1-.5-.4-.7-1.2-.9-2-.8-.2 0-.3.1-.4.2-.2.1-.1.2-.3.2-.1 0-.2.1-.2.2.1.2.1.2.1.3-.1 0-.1 0 0 0M.5-10.4v.2c-.1.1-.1.1-.2.1 0 .1-.1.3-.1.3-.2.1 0 .2 0 .3v.2c0 .1 0 .3.1.4.1.2.3.4.4.5.2.2.3.6.6.7.2 0 .4-.1.5-.1.2 0 .4 0 .6-.1.2-.1.1-.3.3-.4.1-.1.3 0 .4-.1.2-.1.3-.3.4-.5v-.2c0-.1.1-.2.1-.3 0-.1-.1-.1-.1-.2v-.3c0-.2 0-.4-.1-.5-.4-.7-1.2-.9-2-.8-.2 0-.3.1-.4.2-.2.1-.1.2-.3.2-.1 0-.2.1-.2.2v.2"/></g></g><g><path class="st2" d="M69.4-2.8v.2c-.1.1-.1.1-.2.1-.1.1-.1.3-.1.4-.2.1 0 .2 0 .3v.2c0 .1 0 .3.1.4.1.2.3.4.4.5.2.2.4.6.6.7.2 0 .4-.1.5-.1.2 0 .4 0 .6-.1.2-.1.1-.3.3-.5.1-.1.3 0 .4-.1.2-.1.3-.3.4-.5v-.2c0-.1.1-.2.1-.3 0-.1-.1-.1-.1-.2v-.3c0-.2 0-.4-.1-.5-.4-.7-1.2-.9-2-.8-.2 0-.3.1-.4.2-.2.1-.1.2-.3.2-.1 0-.2.1-.2.2v.2c0 .1 0 0 0 0M61.8-2.8v.2c-.1.1-.1.1-.2.1-.1.1-.1.3-.1.4-.2.1 0 .2 0 .3v.2c0 .1 0 .3.1.4 0 .2.2.4.4.5.2.1.4.6.6.6.2 0 .4-.1.5-.1.2 0 .4 0 .6-.1.2-.1.1-.3.3-.5.1-.1.3 0 .4-.1.2-.1.3-.3.4-.5v-.2c0-.1.1-.2.1-.3 0-.1-.1-.1-.1-.2v-.3c0-.2 0-.4-.1-.5-.4-.7-1.2-.9-2-.8-.2 0-.3.1-.4.2-.2.1-.1.2-.3.2-.1 0-.2.1-.2.2v.3c0 .1 0 0 0 0M54.1-2.8v.2c-.1.1-.1.1-.2.1-.1.1-.1.3-.1.4-.2.1 0 .2 0 .3v.2c0 .1 0 .3.1.4.1.2.2.4.4.5.2.1.4.6.6.6.2 0 .4-.1.5-.1.2 0 .4 0 .6-.1.2-.1.1-.3.3-.5.1-.1.3 0 .4-.1.2.1.3-.1.4-.3v-.2c0-.1.1-.2.1-.3 0-.1-.1-.1-.1-.2v-.3c0-.2 0-.4-.1-.5-.4-.7-1.2-.9-2-.8-.2 0-.3.1-.4.2-.2.1-.1.2-.3.2-.1 0-.2.1-.2.2v.1c0 .1 0 0 0 0M46.5-2.8v.2c-.1.1-.1.1-.2.1-.1.1-.1.3-.1.4-.2.1 0 .2 0 .3v.2c0 .1 0 .3.1.4.1.2.3.4.4.5.1.2.3.6.5.7.2 0 .4-.1.5-.1.2 0 .4 0 .6-.1.2-.1.1-.3.3-.5.1-.1.3 0 .4-.1.2-.1.3-.3.4-.5v-.2c0-.1.1-.2.1-.3 0-.1-.1-.1-.1-.2v-.3c0-.2 0-.4-.1-.5-.4-.7-1.2-.9-2-.8-.2 0-.3.1-.4.2-.2.1-.1.2-.3.2-.1 0-.2.1-.2.2.1.2.1.1.1.2M38.8-2.8v.2c-.1.1-.1.1-.2.1-.1.1-.1.3-.1.4-.2.1 0 .2 0 .3v.2c0 .1 0 .3.1.4 0 .2.2.4.4.5.2.1.4.6.6.6.2 0 .4-.1.5-.1.2 0 .4 0 .6-.1.2-.1.1-.3.3-.5.1-.1.3 0 .4-.1.2-.1.3-.3.4-.5v-.2c0-.1.1-.2.1-.3 0-.1-.1-.1-.1-.2v-.3c0-.2 0-.4-.1-.5-.4-.7-1.2-.9-2-.8-.2 0-.3.1-.4.2-.2.1-.1.2-.3.2-.1 0-.2.1-.2.2v.3c0 .1 0 0 0 0M31.1-2.8v.2c-.1.1-.1.1-.2.1-.1.1-.1.3-.1.4-.2.1 0 .2 0 .3v.2c0 .1 0 .3.1.4.1.2.2.4.4.5.2.1.4.6.6.6.2 0 .4-.1.5-.1.2 0 .4 0 .6-.1.2-.1.1-.3.3-.5.1-.1.3 0 .4-.1.2-.1.3-.3.4-.5v-.2c0-.1.1-.2.1-.3 0-.1-.1-.1-.1-.2v-.3c0-.2 0-.4-.1-.5-.4-.7-1.2-.9-2-.8-.2 0-.3.1-.4.2-.2.1-.1.2-.3.2-.1 0-.2.1-.2.2v.3c0 .1 0 0 0 0M23.5-2.8v.2c-.1.1-.1.1-.2.1-.1.1-.1.3-.1.4-.2.1 0 .2 0 .3v.2c0 .1 0 .3.1.4.1.2.3.4.4.5.1.2.3.6.6.7.2 0 .4-.1.5-.1.2 0 .4 0 .6-.1.2-.1.1-.3.3-.5.1-.1.3 0 .4-.1.2-.1.3-.3.4-.5v-.2c0-.1.1-.2.1-.3 0-.1-.1-.1-.1-.2v-.3c0-.2 0-.4-.1-.5-.4-.7-1.2-.9-2-.8-.2 0-.3.1-.4.2-.2.1-.1.2-.3.2-.1 0-.2.1-.2.2v.2c0 .1 0 0 0 0M15.8-2.8v.2c-.1.1-.1.1-.2.1-.1.1-.1.3-.1.4-.2.1 0 .2 0 .3v.2c0 .1 0 .3.1.4.1.2.2.4.4.5.2.1.4.6.6.6.2 0 .4-.1.5-.1.2 0 .4 0 .6-.1.2-.1.1-.3.3-.5.1-.1.3 0 .4-.1.2-.1.3-.3.4-.5v-.2c0-.1.1-.2.1-.3 0-.1-.1-.1-.1-.2v-.3c0-.2 0-.4-.1-.5-.4-.7-1.2-.9-2-.8-.2 0-.3.1-.4.2-.2.1-.1.2-.3.2-.1 0-.2.1-.2.2v.3c0 .1 0 0 0 0M8.2-2.8v.2c-.1.1-.2.1-.2.1-.1.1-.1.3-.1.4-.2.1 0 .2 0 .3v.2c0 .1 0 .3.1.4 0 .2.2.4.3.5.2.2.4.6.6.7.2 0 .4-.1.5-.1.2 0 .4 0 .6-.1.2-.1.1-.3.3-.5.1-.1.3 0 .4-.1.2-.1.3-.3.4-.5v-.2c0-.1.1-.2.1-.3 0-.1-.1-.1-.1-.2v-.3c0-.2 0-.4-.1-.5-.4-.7-1.2-.9-2-.8 0 .1-.2.2-.3.2-.2.1-.1.2-.3.3-.1 0-.2.1-.2.2v.1c-.1.1-.1 0 0 0M.5-2.8v.2c-.1.1-.1.1-.2.1 0 .1-.1.3-.1.4-.2.1 0 .2 0 .3v.2c0 .1 0 .3.1.4 0 .2.2.4.4.5.2.2.3.6.6.7.2 0 .4-.1.5-.1.2 0 .4 0 .6-.1.2-.1.1-.3.3-.5.1-.1.3 0 .4-.1.2 0 .3-.2.4-.4v-.2c0-.1.1-.2.1-.3 0-.1-.1-.1-.1-.2v-.3c0-.2 0-.4-.1-.5-.4-.7-1.2-.9-2-.8-.1 0-.2.1-.4.1-.1.1-.1.2-.3.3-.1 0-.2.1-.2.2v.1c0 .1 0 0 0 0"/></g></pattern><g id="original_U-do_not_edit"><path class="st2" d="m232.3 469.1.2 84.2c0 5.4 0 21.8-41.3 21.9h-7.8c-41.3-.1-41.3-16.5-41.3-21.9l.2-84.2h-57v96.8c0 26.8 75.1 28.9 98.1 28.9h7.8c23 0 98.1-2.1 98.1-28.9v-96.8h-57z"/><path class="st3" d="M236.7 553.3v-80.1H285s-.1 89.5-.1 92.7c0 17.6-48.2 24.6-93.8 24.6v-11.2c22.8.1 45.6-4.7 45.6-26z"/><path class="st4" d="M137.8 553.3v-80.1H89.5s.1 89.5.1 92.7c0 17.6 48.2 24.6 93.8 24.6v-11.2c-22.9.1-45.6-4.7-45.6-26z"/></g><g id="text"><path class="st4" d="m100.3 327.7-3 5h-2.5l-.4-20.9h3c1.1 5.9 3.1 10.4 6 13.5 3 3.1 6.8 4.6 11.4 4.6 3.8 0 6.8-.9 9-2.7 2.1-1.8 3.2-4.3 3.2-7.6 0-1.5-.3-2.8-.8-4-.6-1.2-1.3-2.1-2.3-2.9-1.3-.9-4.2-2-8.6-3.1-1.4-.4-2.5-.6-3.2-.8-6.9-1.9-11.4-3.9-13.7-6.1-2.3-2.2-3.4-5.3-3.4-9.4 0-4.5 1.4-8 4.2-10.7 2.8-2.7 6.5-4 11.2-4 2.6 0 5.1.4 7.3 1.3 2.3.8 4.3 2.1 6.1 3.8l2.8-4.3h2.7l.7 18.6h-2.8c-1.4-5.3-3.5-9.4-6.3-12.1-2.8-2.7-6.4-4-10.6-4-3.2 0-5.6.8-7.3 2.3-1.7 1.5-2.6 3.7-2.6 6.5 0 4.3 4.3 7.5 13 9.6.8.2 1.5.3 1.9.5 4.1 1 6.9 1.9 8.6 2.7 1.7.8 3.1 1.7 4.3 2.8 1.4 1.3 2.5 2.9 3.2 4.8.8 1.9 1.1 4 1.1 6.3 0 5.1-1.6 9-4.7 11.8-3.1 2.8-7.5 4.2-13.2 4.2-2.8 0-5.4-.5-8-1.4-2.4-1.3-4.5-2.6-6.3-4.3zM178.1 313.6l3.4.4c-.8 6-3 10.7-6.6 14.1-3.6 3.4-8.2 5.1-13.7 5.1-2.7 0-5.3-.4-7.6-1.2s-4.5-2-6.4-3.6c-3.3-2.7-5.7-6-7.4-9.7-1.7-3.8-2.5-8-2.5-12.8 0-3.6.5-7 1.6-10.2 1-3.2 2.6-6 4.6-8.6 2.3-2.8 4.8-4.9 7.6-6.3 2.8-1.4 6.1-2.1 9.7-2.1 2.5 0 4.8.4 6.9 1.2 2.1.8 4.2 2 6 3.6l2.7-4.5h2.7l.9 21-2.8.1c-1.1-5.9-2.9-10.4-5.6-13.5-2.7-3.1-6-4.7-10-4.7-5 0-8.8 2-11.3 6s-3.8 10-3.8 18c0 8.1 1.3 14.1 3.8 18 2.5 3.9 6.4 5.8 11.7 5.8 4.1 0 7.6-1.4 10.3-4.1 2.9-2.8 4.8-6.7 5.8-12zM185.9 331.8v-3.4h3.7c1.5 0 2.5-.3 3-.8s.8-1.4.8-2.7v-38.3c0-1.3-.3-2.2-.8-2.7s-1.5-.7-3-.7h-3.7v-3.4h23v3.4H205c-1.5 0-2.4.2-3 .7-.5.5-.8 1.4-.8 2.7v16.1h24.3v-16.1c0-1.3-.3-2.2-.8-2.7s-1.5-.7-3-.7H218v-3.4h23v3.4h-3.8c-1.5 0-2.5.2-3 .7-.5.5-.8 1.4-.8 2.7V325c0 1.3.3 2.2.8 2.7s1.5.8 3 .8h3.8v3.4h-23v-3.4h3.8c1.5 0 2.4-.3 3-.8.5-.5.8-1.4.8-2.7v-18.6h-24.3V325c0 1.3.3 2.3.8 2.7.5.5 1.5.7 3 .7h3.8v3.4h-23zM246 305.8c0-3.8.6-7.4 1.7-10.6 1.1-3.3 2.8-6.2 5.1-8.7 2.3-2.6 5-4.6 8-6 3-1.4 6.4-2 10-2 3.6 0 6.9.7 9.9 2 2.9 1.3 5.6 3.3 8 6 2.3 2.6 4 5.4 5.1 8.7 1.1 3.2 1.7 6.8 1.7 10.7 0 4-.5 7.5-1.5 10.5s-2.6 5.8-4.8 8.3c-2.4 2.8-5.1 4.9-8.2 6.3-3 1.4-6.4 2.1-10.2 2.1-3.8 0-7.2-.7-10.2-2.1-3-1.4-5.8-3.5-8.2-6.3-2.2-2.5-3.8-5.3-4.8-8.4-1.1-3.1-1.6-6.6-1.6-10.5zm9.3 0c0 8.1 1.3 14.1 3.8 18.1 2.5 3.9 6.4 5.9 11.6 5.9 5.2 0 9-2 11.6-6 2.6-4 3.8-10 3.8-18 0-8.2-1.3-14.2-3.8-18.1-2.5-3.9-6.4-5.9-11.6-5.9-5.2 0-9.1 2-11.6 5.9-2.5 4-3.8 10-3.8 18.1zM301.3 305.8c0-3.8.6-7.4 1.7-10.6 1.1-3.3 2.8-6.2 5.1-8.7 2.3-2.6 5-4.6 8-6 3-1.4 6.4-2 10-2 3.6 0 6.9.7 9.9 2 2.9 1.3 5.6 3.3 8 6 2.3 2.6 4 5.4 5.1 8.7 1.1 3.2 1.7 6.8 1.7 10.7 0 4-.5 7.5-1.5 10.5s-2.6 5.8-4.8 8.3c-2.4 2.8-5.1 4.9-8.2 6.3-3 1.4-6.4 2.1-10.2 2.1-3.8 0-7.2-.7-10.2-2.1-3-1.4-5.8-3.5-8.2-6.3-2.2-2.5-3.8-5.3-4.8-8.4-1.1-3.1-1.6-6.6-1.6-10.5zm9.4 0c0 8.1 1.3 14.1 3.8 18.1 2.5 3.9 6.4 5.9 11.6 5.9 5.2 0 9-2 11.6-6 2.6-4 3.8-10 3.8-18 0-8.2-1.3-14.2-3.8-18.1-2.5-3.9-6.4-5.9-11.6-5.9-5.2 0-9.1 2-11.6 5.9-2.6 4-3.8 10-3.8 18.1zM355.9 331.8v-3.4h3.7c1.5 0 2.5-.2 3.1-.7.5-.5.8-1.4.8-2.8v-38.3c0-1.3-.3-2.2-.8-2.7s-1.5-.7-3.1-.7h-3.7v-3.4h23v3.4H375c-1.5 0-2.5.2-3 .7-.5.5-.8 1.4-.8 2.7V325c0 1.5.3 2.4 1 2.9s2.4.7 5.1.7c3.7 0 6.6-.2 8.7-.6 2.1-.4 3.6-1.1 4.7-2 1.2-1.1 2.3-2.7 3.2-5.1.9-2.3 1.7-5.3 2.3-9h2.8l-1.1 19.9h-42zM421.7 315.2c0-5.3 1.5-9.6 4.5-12.9 3-3.3 6.9-4.9 11.7-4.9 4.8 0 8.7 1.6 11.7 4.9 3 3.3 4.5 7.6 4.5 12.9 0 5.3-1.5 9.6-4.5 12.9-3 3.3-6.9 4.9-11.7 4.9-4.8 0-8.7-1.6-11.7-4.9-3-3.3-4.5-7.6-4.5-12.9zm7.4 0c0 5.1.7 8.9 2.1 11.3 1.4 2.4 3.6 3.6 6.6 3.6 3.1 0 5.4-1.2 6.8-3.5 1.4-2.3 2.1-6.1 2.1-11.3 0-5.2-.7-9-2.1-11.4-1.4-2.4-3.6-3.6-6.7-3.6-3 0-5.3 1.2-6.7 3.6-1.4 2.3-2.1 6.1-2.1 11.3zM458 331.8v-3.1l3.1-.1c1-.1 1.7-.3 2-.6.3-.3.4-1 .4-2.1v-24.5h-5.9v-3h5.9V297c0-6.1 1.1-10.7 3.4-13.7 2.3-3.1 5.6-4.6 10-4.6 3 0 5.4.7 7.2 2 1.8 1.3 2.7 3.1 2.7 5.2 0 1.3-.4 2.3-1.1 3-.7.8-1.7 1.1-2.8 1.1-1.1 0-2-.4-2.7-1.1s-1.1-1.6-1.1-2.7c0-.6.2-1.2.6-2 .4-.7.6-1.2.6-1.4 0-.4-.2-.8-.7-1-.5-.2-1.2-.4-2-.4-2.6 0-4.5 1.2-5.6 3.6-1.2 2.4-1.7 6.4-1.7 12v1.4h7.7v3h-8V326c0 1.1.2 1.8.5 2.1.3.4.9.5 1.9.5h4.4v3.2H458zM502.4 331.8v-3.1c3-.2 5.1-.9 6.1-2.1 1.1-1.2 1.6-3.5 1.6-7.1v-34c-.5-.9-1.2-1.5-2.1-1.8-.9-.4-2.4-.5-4.4-.5h-1.2v-3.3h14.1l28.7 39.3v-26.9c0-3.7-.6-6.2-1.8-7.4-1.2-1.2-3.4-1.8-6.8-1.8V280h20.1v3.1c-3 .1-5.1.8-6.2 2.1-1.1 1.2-1.7 3.6-1.7 7.2v41h-2.9l-32-43.7v30.1c0 3.7.6 6.1 1.8 7.3 1.2 1.2 3.5 1.9 6.8 1.9v3.1h-20.1zM559.9 279.8h23.3v3.4h-3.8c-1.5 0-2.5.2-3 .7-.5.5-.8 1.4-.8 2.7v29.1c0 4.6 1.2 7.9 3.5 10.1 2.3 2.2 6 3.2 10.9 3.2 3.2 0 5.9-.6 8.1-1.7 2.2-1.1 3.7-2.8 4.8-5 .4-.8.6-2 .8-3.4.2-1.4.2-3.6.2-6.6v-22.7c0-2.5-.4-4.2-1.2-5.1-.8-.9-2.1-1.4-4-1.4h-3.2v-3.4h19.8v3.4h-2.7c-1.9 0-3.3.5-4.1 1.4-.8.9-1.2 2.6-1.2 5.1v23c0 7.3-1.5 12.6-4.6 15.7-3.1 3.1-8.2 4.7-15.3 4.7-6.5 0-11.4-1.5-14.7-4.4-3.3-2.9-4.9-7.2-4.9-13v-29c0-1.4-.3-2.3-.8-2.7-.5-.5-1.5-.7-3-.7h-4.2v-3.4zM618.4 331.8v-3.4h3.7c1.5 0 2.5-.2 3.1-.7.5-.5.8-1.4.8-2.8v-38.3c0-1.3-.3-2.2-.8-2.7s-1.5-.7-3.1-.7h-3.7v-3.4h28.8c4.4 0 7.9 1.2 10.5 3.5 2.7 2.3 4 5.4 4 9.2 0 3.8-1.3 6.7-4 8.9-2.6 2.2-6.6 3.5-12 4.1 2.9.4 5.2 1.3 6.8 2.8 1.6 1.5 2.7 3.6 3.4 6.5l1.9 8.1c.4 1.7.8 2.9 1.3 3.6.5.8 1.1 1.1 1.9 1.1 1 0 1.7-.6 2.1-1.8.5-1.2.7-3.1.8-5.7h2.7V321.8c0 3.6-.8 6.4-2.3 8.4-1.5 2-3.7 2.9-6.5 2.9-2.7 0-4.7-.8-6-2.3-1.3-1.5-2.2-4.1-2.6-7.9l-.8-7.2c-.4-3.3-1.4-5.6-3.1-7-1.7-1.4-4.4-2.1-8.1-2.1h-3.9V325c0 1.4.3 2.3.8 2.8s1.5.7 3 .7h4.5v3.4h-23.2zm15.4-45.5v16.9l3.5.1c.3 0 .6 0 1 .1h1.5c4.9 0 8.4-.8 10.5-2.4 2.2-1.6 3.3-4.2 3.3-7.9 0-3.6-.9-6.1-2.7-7.7-1.8-1.5-4.7-2.3-8.8-2.3h-4.7c-1.5 0-2.4.2-2.9.6-.4.4-.7 1.3-.7 2.6zM675.7 327.7l-3 5h-2.5l-.4-20.9h3c1.1 5.9 3.1 10.4 6 13.5 3 3.1 6.8 4.6 11.4 4.6 3.8 0 6.8-.9 9-2.7 2.1-1.8 3.2-4.3 3.2-7.6 0-1.5-.3-2.8-.8-4-.6-1.2-1.3-2.1-2.3-2.9-1.3-.9-4.2-2-8.6-3.1-1.4-.4-2.5-.6-3.2-.8-6.9-1.9-11.4-3.9-13.7-6.1-2.3-2.2-3.4-5.3-3.4-9.4 0-4.5 1.4-8 4.2-10.7 2.8-2.7 6.5-4 11.2-4 2.6 0 5.1.4 7.3 1.3 2.3.8 4.3 2.1 6.1 3.8l2.8-4.3h2.7l.8 18.7h-2.8c-1.4-5.3-3.5-9.4-6.3-12.1-2.8-2.7-6.4-4-10.6-4-3.2 0-5.6.8-7.3 2.3-1.7 1.5-2.6 3.7-2.6 6.5 0 4.3 4.3 7.5 13 9.6.8.2 1.5.3 1.9.5 4.1 1 6.9 1.9 8.6 2.7 1.7.8 3.1 1.7 4.3 2.8 1.4 1.3 2.5 2.9 3.2 4.8.8 1.9 1.1 4 1.1 6.3 0 5.1-1.6 9-4.7 11.8-3.1 2.8-7.5 4.2-13.2 4.2-2.8 0-5.4-.5-8-1.4-2.5-1.4-4.7-2.7-6.4-4.4zM712.1 331.8v-3.4h3.9c1.5 0 2.6-.2 3.1-.7.5-.5.8-1.4.8-2.7v-38.3c0-1.3-.3-2.2-.8-2.7s-1.6-.7-3.1-.7h-3.9v-3.4h23.4v3.4h-3.9c-1.5 0-2.5.2-3 .7-.5.5-.8 1.4-.8 2.7V325c0 1.4.3 2.3.8 2.8s1.5.7 3 .7h3.9v3.4h-23.4zM739.7 331.8v-3.1c3-.2 5.1-.9 6.1-2.1 1.1-1.2 1.6-3.5 1.6-7.1v-34c-.5-.9-1.2-1.5-2.1-1.8-.9-.4-2.4-.5-4.4-.5h-1.2v-3.3h14.1l28.7 39.3v-26.9c0-3.7-.6-6.2-1.8-7.4-1.2-1.2-3.4-1.8-6.8-1.8V280H794v3.1c-3 .1-5.1.8-6.2 2.1-1.1 1.2-1.7 3.6-1.7 7.2v41h-2.9l-32-43.7v30.1c0 3.7.6 6.1 1.8 7.3 1.2 1.2 3.5 1.9 6.8 1.9v3.1h-20.1zM827.8 311.5v-3.4h22.9v3.4h-3.8c-1.5 0-2.5.2-3 .7-.5.5-.7 1.4-.7 2.8v18.1h-2.7l-2.7-6.8c-1.5 2.3-3.4 3.9-5.7 5.1-2.4 1.1-5.2 1.7-8.4 1.7-7.3 0-13.2-2.5-17.8-7.5-4.6-5-6.8-11.6-6.8-19.7s2.2-14.7 6.7-19.8c4.4-5.1 10.2-7.6 17.2-7.6 2.7 0 5.3.4 7.6 1.3s4.4 2.1 6.2 3.8l2.7-4.5h2.8l.8 20.5h-2.8c-1.3-6-3.3-10.4-5.9-13.3-2.7-2.9-6.1-4.3-10.4-4.3-5.2 0-9.1 2-11.6 5.9-2.5 3.9-3.8 10-3.8 18.1 0 8.2 1.3 14.2 3.8 18.1 2.6 3.9 6.5 5.9 11.9 5.9 3.7 0 6.6-1 8.6-2.9s3.1-4.6 3.1-8.1v-3.6c0-1.5-.3-2.5-.8-3s-1.5-.8-3.1-.8h-4.3zM143.7 394.9l3 .7c-.9 4.5-2.3 7.7-4.3 9.7-1.9 2-4.6 3-7.9 3-1.9 0-3.7-.4-5.4-1.3-1.8-.9-3.4-2.1-4.9-3.8-2.3 1.9-4.5 3.2-6.8 4.1-2.3.9-4.6 1.4-7.1 1.4-4.5 0-8.2-1.4-11.1-4.2-2.9-2.8-4.4-6.3-4.4-10.5 0-3.6 1-6.7 3.1-9.3 2-2.6 5.2-5 9.6-7.1-1.1-2-1.9-3.9-2.5-5.9-.6-2-.8-3.9-.8-5.8 0-3.5 1.2-6.4 3.5-8.6 2.3-2.2 5.3-3.4 8.9-3.4 3.4 0 6.1.9 8.2 2.8 2.1 1.9 3.1 4.3 3.1 7.3 0 2.9-1 5.3-2.9 7.3s-5.2 4-9.7 5.9c.3.5.8 1.3 1.4 2.3 4.4 7.6 7.9 12.9 10.5 15.8 1.6-2.1 2.9-4.1 3.8-6 .9-1.9 1.4-3.6 1.4-4.9 0-1.2-.5-2.1-1.6-2.7-1.1-.6-2.7-.9-4.8-.9h-.9v-3.1H145v3.1c-1.9 0-3.4.3-4.4.8-1.1.5-2 1.4-2.8 2.6-.1.1-1 1.8-2.7 5.1-1.7 3.3-3.6 6.1-5.7 8.6 1.5 1.6 3 2.8 4.3 3.6 1.3.8 2.5 1.1 3.8 1.1 1.5 0 2.8-.7 3.9-2 .9-1.1 1.7-3 2.3-5.7zm-21.9 5.9c-2.4-2.7-4.6-5.6-6.7-8.9-2.1-3.2-4.2-7.1-6.3-11.5-2.1 1-3.7 2.3-4.8 3.7-1.1 1.5-1.7 3.1-1.7 5 0 3.8 1.2 7.1 3.6 10.1 2.4 3 5.1 4.4 8.1 4.4 1.5 0 2.9-.3 4.1-.8 1.5-.3 2.7-1.1 3.7-2zm-7.7-26.1c2.6-1.2 4.6-2.7 6-4.4 1.4-1.7 2.1-3.6 2.1-5.6 0-2.5-.5-4.3-1.4-5.5-1-1.2-2.4-1.8-4.5-1.8-1.8 0-3.2.5-4.2 1.6s-1.5 2.7-1.5 4.7c0 1.4.3 3.1.8 4.9.7 1.8 1.5 3.9 2.7 6.1zM170.4 407.3v-3.4h3.7c1.5 0 2.5-.3 3-.8s.8-1.4.8-2.7v-38.3c0-1.3-.3-2.2-.8-2.7s-1.5-.7-3-.7h-3.7v-3.4h23v3.4h-3.8c-1.5 0-2.4.2-3 .7-.5.5-.8 1.4-.8 2.7v16.1h24.3v-16.1c0-1.3-.3-2.2-.8-2.7s-1.5-.7-3-.7h-3.8v-3.4h23v3.4h-3.8c-1.5 0-2.5.2-3 .7-.5.5-.8 1.4-.8 2.7v38.3c0 1.3.3 2.2.8 2.7s1.5.8 3 .8h3.8v3.4h-23v-3.4h3.8c1.5 0 2.4-.3 3-.8.5-.5.8-1.4.8-2.7v-18.6h-24.3v18.6c0 1.3.3 2.3.8 2.7.5.5 1.5.7 3 .7h3.8v3.4h-23zM229.7 407.3v-3.4h3.7c1.5 0 2.5-.2 3.1-.7.5-.5.8-1.4.8-2.8v-38.3c0-1.3-.3-2.2-.8-2.7s-1.5-.7-3.1-.7h-3.7v-3.4h42.1l.9 18.4h-3.1c-.4-3-1.1-5.6-2-7.7-.9-2.1-1.9-3.7-3.1-4.8-1.1-.9-2.7-1.6-4.8-2-2-.4-4.9-.6-8.6-.6-2.8 0-4.5.2-5.1.7-.7.5-1 1.4-1 2.9v16.5h1c3.7 0 6.4-.7 8-2.2 1.6-1.5 2.6-4 2.9-7.8h3v22.9h-3c-.3-3.7-1.3-6.3-2.8-7.7-1.6-1.4-4.2-2.1-8-2.1h-1v18.7c0 1.5.4 2.5 1.1 3 .7.5 2.6.7 5.6.7 3.4 0 6.1-.1 8.2-.4 2.1-.3 3.8-.8 5.1-1.4 1.6-.8 2.9-2.3 4-4.7 1.1-2.3 2-5.7 2.8-10h2.7l-1.1 19.7h-43.8zM302 354.5h2.8l18.4 45.8c.6 1.5 1.2 2.5 1.9 2.9.7.5 1.7.7 3.1.7h1.4v3.4H308v-3.4h2.7c1.8 0 3-.1 3.6-.4.6-.3.8-.8.8-1.5 0-.3-.1-.6-.2-1.1-.1-.4-.3-.9-.5-1.5l-3.3-9h-19.4l-2.2 5.6c-.3.8-.6 1.6-.7 2.4-.2.8-.3 1.5-.3 2 0 1.2.4 2.1 1.3 2.7.9.6 2.2.9 3.9.9h1.8v3.4h-18.6V404h.6c1.9 0 3.4-.4 4.4-1.2 1-.8 2-2.4 3-4.8l17.1-43.5zm7.9 32.2-8.5-20.9-8.2 20.9h16.7zM330.6 407.3v-3.4h3.7c1.5 0 2.5-.2 3.1-.7.5-.5.8-1.4.8-2.8v-38.3c0-1.3-.3-2.2-.8-2.7s-1.5-.7-3.1-.7h-3.7v-3.4h23v3.4h-3.8c-1.5 0-2.5.2-3 .7-.5.5-.8 1.4-.8 2.7v38.3c0 1.5.3 2.4 1 2.9s2.4.7 5.1.7c3.7 0 6.6-.2 8.7-.6 2.1-.4 3.6-1.1 4.7-2 1.2-1.1 2.3-2.7 3.2-5.1.9-2.3 1.7-5.3 2.3-9h2.8l-1.1 19.9h-42.1zM398.4 400.5c0 1.4.3 2.3.8 2.8s1.5.7 3 .7h4.6v3.4h-24.6V404h4.6c1.5 0 2.5-.2 3-.7.5-.5.8-1.4.8-2.8v-38.6c0-1.5-.2-2.6-.7-3.1-.5-.5-1.8-.8-4.1-.8-3.2 0-5.7 1.3-7.4 3.8-1.7 2.5-3 7-3.8 13.4h-2.7l1-20H416l1.1 20h-2.7c-1-6.9-2.4-11.5-4.1-13.8-1.7-2.3-4.6-3.4-8.6-3.4-1.3 0-2.2.3-2.7.8s-.7 1.5-.7 3.1v38.6zM421.6 407.3v-3.4h3.7c1.5 0 2.5-.3 3-.8s.8-1.4.8-2.7v-38.3c0-1.3-.3-2.2-.8-2.7s-1.5-.7-3-.7h-3.7v-3.4h23v3.4h-3.8c-1.5 0-2.4.2-3 .7-.5.5-.8 1.4-.8 2.7v16.1h24.3v-16.1c0-1.3-.3-2.2-.8-2.7s-1.5-.7-3-.7h-3.8v-3.4h23v3.4H473c-1.5 0-2.5.2-3 .7-.5.5-.8 1.4-.8 2.7v38.3c0 1.3.3 2.2.8 2.7s1.5.8 3 .8h3.8v3.4h-23v-3.4h3.8c1.5 0 2.4-.3 3-.8.5-.5.8-1.4.8-2.7v-18.6H437v18.6c0 1.3.3 2.3.8 2.7.5.5 1.5.7 3 .7h3.8v3.4h-23zM506.5 403.2l-3 5H501l-.4-20.9h3c1.1 5.9 3.1 10.4 6 13.5 3 3.1 6.7 4.6 11.4 4.6 3.8 0 6.8-.9 9-2.7 2.1-1.8 3.2-4.3 3.2-7.6 0-1.5-.3-2.8-.8-4-.6-1.2-1.3-2.1-2.3-2.9-1.3-.9-4.2-2-8.6-3.1-1.4-.4-2.5-.6-3.2-.8-6.9-1.9-11.4-3.9-13.7-6.1-2.3-2.2-3.4-5.3-3.4-9.4 0-4.5 1.4-8 4.2-10.7 2.8-2.7 6.5-4 11.2-4 2.6 0 5.1.4 7.3 1.3 2.3.8 4.3 2.1 6.1 3.8l2.8-4.3h2.7l.8 18.7h-2.8c-1.4-5.3-3.5-9.4-6.3-12.1-2.8-2.7-6.4-4-10.6-4-3.2 0-5.6.8-7.3 2.3-1.7 1.5-2.6 3.7-2.6 6.5 0 4.3 4.3 7.5 13 9.6.8.2 1.5.3 1.9.5 4.1 1 6.9 1.9 8.6 2.7 1.7.8 3.1 1.7 4.3 2.8 1.4 1.3 2.5 2.9 3.2 4.8.8 1.9 1.1 4 1.1 6.3 0 5.1-1.6 9-4.7 11.8-3.1 2.8-7.5 4.2-13.2 4.2-2.8 0-5.4-.5-8-1.4-2.5-1.4-4.6-2.7-6.4-4.4zM569.5 400.5c0 1.4.3 2.3.8 2.8s1.5.7 3 .7h4.6v3.4h-24.6V404h4.6c1.5 0 2.5-.2 3-.7.5-.5.8-1.4.8-2.8v-38.6c0-1.5-.2-2.6-.7-3.1-.5-.5-1.8-.8-4.1-.8-3.2 0-5.7 1.3-7.4 3.8-1.7 2.5-3 7-3.8 13.4H543l1-20h43.2l1.1 20h-2.7c-1-6.9-2.4-11.5-4.1-13.8-1.7-2.3-4.6-3.4-8.6-3.4-1.3 0-2.2.3-2.7.8s-.7 1.5-.7 3.1v38.6zM591.9 355.3h23.3v3.4h-3.8c-1.5 0-2.5.2-3 .7-.5.5-.8 1.4-.8 2.7v29.1c0 4.6 1.2 7.9 3.5 10.1 2.3 2.2 6 3.2 10.9 3.2 3.2 0 5.9-.6 8.1-1.7s3.8-2.8 4.8-5c.4-.8.6-2 .8-3.4.2-1.4.2-3.6.2-6.6v-22.7c0-2.5-.4-4.2-1.2-5.1-.8-.9-2.1-1.4-4-1.4h-3.2v-3.4h19.8v3.4h-2.7c-1.9 0-3.3.5-4.1 1.4-.8.9-1.2 2.6-1.2 5.1v23c0 7.3-1.5 12.6-4.6 15.7-3.1 3.1-8.2 4.7-15.3 4.7-6.5 0-11.4-1.5-14.7-4.4-3.3-2.9-4.9-7.2-4.9-13v-29c0-1.4-.3-2.3-.8-2.7-.5-.5-1.5-.7-3-.7h-4.2v-3.4zM650.4 407.3v-3.4h3.7c1.5 0 2.6-.2 3.1-.7.5-.5.8-1.4.8-2.7v-38.3c0-1.3-.3-2.2-.8-2.7s-1.5-.7-3.1-.7h-3.7v-3.4h25.8c7.6 0 13.4 2.2 17.5 6.7s6.1 10.9 6.1 19.3c0 8-2 14.3-5.9 19-3.9 4.7-9.3 7-16.1 7h-27.4zm15.4-45.1v38.3c0 1.3.2 2.2.7 2.7.5.5 1.5.7 3 .7h5.8c5.6 0 9.5-1.7 11.9-5.2 2.4-3.5 3.6-9.2 3.6-17.3 0-8.1-1.3-13.9-3.9-17.4-2.6-3.5-6.8-5.2-12.6-5.2h-4.8c-1.5 0-2.5.2-3 .7-.4.4-.7 1.3-.7 2.7zM705 407.3v-3.4h3.9c1.5 0 2.6-.2 3.1-.7.5-.5.8-1.4.8-2.7v-38.3c0-1.3-.3-2.2-.8-2.7s-1.6-.7-3.1-.7H705v-3.4h23.4v3.4h-3.9c-1.5 0-2.5.2-3 .7-.5.5-.8 1.4-.8 2.7v38.3c0 1.4.3 2.3.8 2.8s1.5.7 3 .7h3.9v3.4H705zM732.8 407.3v-3.4h3.7c1.5 0 2.5-.2 3.1-.7.5-.5.8-1.4.8-2.8v-38.3c0-1.3-.3-2.2-.8-2.7s-1.5-.7-3.1-.7h-3.7v-3.4H775l.9 18.4h-3.1c-.4-3-1.1-5.6-2-7.7-.9-2.1-1.9-3.7-3.1-4.8-1.1-.9-2.7-1.6-4.8-2-2-.4-4.9-.6-8.6-.6-2.8 0-4.5.2-5.1.7-.7.5-1 1.4-1 2.9v16.5h1c3.7 0 6.4-.7 8-2.2 1.6-1.5 2.6-4 2.9-7.8h3v22.9h-3c-.3-3.7-1.3-6.3-2.8-7.7-1.6-1.4-4.2-2.1-8-2.1h-1v18.7c0 1.5.4 2.5 1.1 3 .7.5 2.6.7 5.6.7 3.4 0 6.1-.1 8.2-.4 2.1-.3 3.8-.8 5.1-1.4 1.6-.8 2.9-2.3 4-4.7 1.1-2.3 2-5.7 2.8-10h2.7l-1.1 19.7h-43.9zM790.1 403.2l-3 5h-2.5l-.4-20.9h3c1.1 5.9 3.1 10.4 6 13.5 3 3.1 6.8 4.6 11.4 4.6 3.8 0 6.8-.9 9-2.7 2.1-1.8 3.2-4.3 3.2-7.6 0-1.5-.3-2.8-.8-4-.6-1.2-1.3-2.1-2.3-2.9-1.3-.9-4.2-2-8.6-3.1-1.4-.4-2.5-.6-3.2-.8-6.9-1.9-11.4-3.9-13.7-6.1-2.3-2.2-3.4-5.3-3.4-9.4 0-4.5 1.4-8 4.2-10.7 2.8-2.7 6.5-4 11.2-4 2.6 0 5.1.4 7.3 1.3 2.3.8 4.3 2.1 6.1 3.8l2.8-4.3h2.7l.8 18.7h-2.8c-1.4-5.3-3.5-9.4-6.3-12.1-2.8-2.7-6.4-4-10.6-4-3.2 0-5.6.8-7.3 2.3-1.7 1.5-2.6 3.7-2.6 6.5 0 4.3 4.3 7.5 13 9.6.8.2 1.5.3 1.9.5 4.1 1 6.9 1.9 8.6 2.7 1.7.8 3.1 1.7 4.3 2.8 1.4 1.3 2.5 2.9 3.2 4.8.8 1.9 1.1 4 1.1 6.3 0 5.1-1.6 9-4.7 11.8-3.1 2.8-7.5 4.2-13.2 4.2-2.8 0-5.4-.5-8-1.4-2.6-1.4-4.7-2.7-6.4-4.4z"/><path style="fill:none;stroke:#00502f;stroke-width:2.5" d="M89.5 440.4h955.1"/></g><g id="UMiami-do_not_edit"><path class="st3" d="M105.4 204.5v2.3h-2.5c-1.9 0-2.5.5-2.5 2.3v19.4c0 6.1 3 8.9 9.6 8.9 4.3 0 7.2-1.5 8.5-4.5.6-1.3.7-3.6.7-6.7v-15.1c0-2.9-.6-4.3-3.5-4.3h-2.1v-2.3h13.2v2.3H125c-2.7 0-3.5 1.2-3.5 4.3v15.3c0 9.4-3.5 13.6-13.3 13.6-8.7 0-13.1-3.9-13.1-11.6v-19.3c0-1.8-.5-2.3-2.5-2.3h-2.8v-2.3h15.6zM130.1 237.1c4.4-.3 5.1-1.9 5.1-6.1v-22.7c-.7-1.3-2-1.6-4.3-1.6h-.8v-2.2h9.4l19.1 26.2v-18c0-4.7-.9-6.1-5.7-6.1v-2.1h13.4v2.1c-4.3.2-5.2 1.7-5.2 6.1V240h-1.9l-21.4-29.1V231c0 4.5 1 6.1 5.7 6.1v2.1h-13.3v-2.1zM170.5 236.9h2.6c2 0 2.6-.5 2.6-2.3v-25.5c0-1.8-.6-2.3-2.6-2.3h-2.6v-2.3h15.6v2.3h-2.6c-2 0-2.5.5-2.5 2.3v25.5c0 1.8.6 2.3 2.5 2.3h2.6v2.3h-15.6v-2.3zM205.2 240 193 208.9c-.7-1.9-1.1-2.1-3.5-2.1h-1.1v-2.3h14.7v2.3h-1.8c-2 0-2.9.2-2.9 1.3 0 .3.1 1 .4 1.7l8.5 21.7L215 212c.4-1.2.6-2.1.6-2.7 0-1.8-1.1-2.5-3.5-2.5h-1.3v-2.3h12.5v2.3h-.3c-2.8 0-3.7 1.2-4.8 4.1L207 240h-1.8zM225.3 236.9h2.5c1.9 0 2.5-.4 2.5-2.3v-25.5c0-1.9-.6-2.3-2.5-2.3h-2.5v-2.3h28.1l.6 12.2h-2c-.6-4.2-1.9-7-3.4-8.3-1.7-1.4-4.5-1.8-8.9-1.8-3.2 0-4.1.1-4.1 2.4v11h.7c4.9 0 6.8-1.6 7.2-6.6h2v15.3h-2c-.4-5-2.3-6.6-7.2-6.6h-.7v12.5c0 2.4 1.1 2.4 4.5 2.4 4 0 6.9-.3 8.8-1.2 2.2-1.1 3.5-4.3 4.5-9.8h1.8l-.7 13.2h-29.2v-2.3zM259.8 236.9h2.5c1.9 0 2.5-.4 2.5-2.3v-25.5c0-1.9-.6-2.3-2.5-2.3h-2.5v-2.3H279c5.8 0 9.7 3.4 9.7 8.5 0 5-3.6 7.9-10.6 8.6 3.9.5 5.9 2.4 6.8 6.2l1.3 5.4c.5 2.1 1.1 3.2 2.2 3.2 1.3 0 1.9-1.6 2-5h1.8v1.1c0 4.9-2.2 7.5-5.8 7.5-3.8 0-5.2-2.1-5.7-6.8l-.5-4.8c-.5-4.6-2.8-6.1-7.4-6.1h-2.6v12.2c0 1.9.6 2.3 2.5 2.3h3v2.3H260v-2.2zm10.3-16.8 2.4.1h1.6c6.4 0 9.2-2 9.2-6.9 0-4.8-2.3-6.7-7.6-6.7h-3.1c-2 0-2.4.5-2.4 2.1v11.4zM297.9 239.7h-1.7l-.2-13.9h2c1.4 7.9 5.5 12 11.6 12 5.2 0 8.1-2.6 8.1-6.9 0-2-.8-3.6-2.1-4.6-1.7-1.2-4.4-1.7-7.9-2.6-7.7-2.1-11.4-4-11.4-10.3 0-6 4-9.8 10.2-9.8 3.5 0 6.6 1.2 9 3.4l1.9-2.9h1.8l.5 12.5h-1.9c-1.8-7.2-5.6-10.8-11.3-10.8-4.2 0-6.6 2.1-6.6 5.8 0 4.6 3.6 5.1 10 6.7 3.5.9 6.3 1.6 8.5 3.6 1.9 1.7 2.9 4.3 2.9 7.4 0 6.7-4.2 10.6-11.9 10.6-3.7 0-7.2-1.3-9.6-3.6l-1.9 3.4zM326 236.9h2.6c2 0 2.6-.5 2.6-2.3v-25.5c0-1.8-.6-2.3-2.6-2.3H326v-2.3h15.6v2.3H339c-2 0-2.5.5-2.5 2.3v25.5c0 1.8.6 2.3 2.5 2.3h2.6v2.3H326v-2.3zM366.8 236.9h3.1v2.3h-16.4v-2.3h3.1c1.9 0 2.5-.4 2.5-2.3v-25.7c0-2.5-.8-2.5-3.2-2.5-4.6 0-6.4 3.5-7.5 11.5h-1.8l.7-13.3h28.8l.7 13.3H375c-1.3-8.9-2.9-11.5-8.4-11.5-1.8 0-2.2.6-2.2 2.5v25.7c-.1 1.9.5 2.3 2.4 2.3zM401.3 236.9h3v2.3H388v-2.3h3c1.9 0 2.5-.5 2.5-2.3v-9.8l-9.7-15.4c-1.2-1.9-1.7-2.6-3.9-2.6h-.9v-2.3h14.8v2.3h-2c-1.6 0-2.5.3-2.5 1.1 0 .5.3 1 .7 1.7l7.6 12 6.3-10.9c.4-.7.6-1.2.6-1.9 0-1.3-1.1-2-3.3-2h-1.3v-2.3h12.7v2.3h-.9c-2.2 0-2.9.8-4 2.6l-8.9 15.2v10c0 1.8.6 2.3 2.5 2.3zM430 209c3.1-3.5 7.2-5.3 12-5.3 4.9 0 8.7 1.7 11.9 5.3 3 3.4 4.6 7.7 4.6 12.9 0 5.1-1.2 9.1-4.2 12.6-3.2 3.7-7.2 5.6-12.2 5.6-5 0-9-1.8-12.2-5.6-3-3.5-4.3-7.5-4.3-12.6-.1-5.2 1.5-9.6 4.4-12.9zm12 28.8c6.9 0 10.3-5.3 10.3-16 0-10.8-3.2-16-10.3-16-7 0-10.3 5.2-10.3 16 0 10.7 3.3 16 10.3 16zM459.9 236.9h2.5c1.9 0 2.5-.4 2.5-2.3v-25.5c0-1.9-.6-2.3-2.5-2.3h-2.5v-2.3H488l.6 12.2h-2.1c-.6-4.2-1.9-7-3.4-8.3-1.7-1.4-4.5-1.8-8.9-1.8-3.2 0-4.1.1-4.1 2.4v11h.7c4.9 0 6.8-1.6 7.2-6.6h2v15.3h-2c-.4-5-2.3-6.6-7.2-6.6h-.7v12.5c0 1.9.6 2.3 2.5 2.3h3.2v2.3h-15.9v-2.3zM514.1 231c0 4.6 1 6.1 5.7 6.1v2.1h-13.9v-2.1c4.8 0 5.8-1.6 5.8-6.1v-21.9c0-1.9-.6-2.3-2.5-2.3h-2.8v-2.3h12l9.3 26.5 9-26.5h11.7v2.3h-2.5c-1.9 0-2.5.4-2.5 2.3v25.5c0 1.9.6 2.3 2.5 2.3h2.5v2.3h-15.6v-2.3h2.9c1.9 0 2.5-.4 2.5-2.3v-27l-10.8 31.6h-1.9L514 207.6V231zM553 236.9h2.6c2 0 2.6-.5 2.6-2.3v-25.5c0-1.8-.6-2.3-2.6-2.3H553v-2.3h15.6v2.3H566c-2 0-2.5.5-2.5 2.3v25.5c0 1.8.6 2.3 2.5 2.3h2.6v2.3H553v-2.3zM587.8 203.9l12.2 30.6c.8 1.9 1.3 2.4 3.3 2.4h1v2.3H590v-2.3h1.8c2 0 2.9-.1 2.9-1.2 0-.4-.1-1-.4-1.7l-2.2-6h-12.9l-1.5 3.7c-.4 1.1-.7 2.3-.7 2.9 0 1.5 1.2 2.4 3.5 2.4h1.2v2.3h-12.4V237h.4c2.8 0 3.8-1.1 4.9-4l11.3-28.9h1.9zm-2.3 7.6-5.5 13.9h11.2l-5.7-13.9zM612.7 231c0 4.6 1 6.1 5.7 6.1v2.1h-13.9v-2.1c4.8 0 5.8-1.6 5.8-6.1v-21.9c0-1.9-.6-2.3-2.5-2.3H605v-2.3h12l9.3 26.5 9-26.5H647v2.3h-2.5c-1.9 0-2.5.4-2.5 2.3v25.5c0 1.9.6 2.3 2.5 2.3h2.5v2.3h-15.6v-2.3h2.9c1.9 0 2.5-.4 2.5-2.3v-27L626 239.2h-1.9l-11.5-31.6V231zM651.6 236.9h2.6c2 0 2.6-.5 2.6-2.3v-25.5c0-1.8-.6-2.3-2.6-2.3h-2.6v-2.3h15.6v2.3h-2.6c-2 0-2.5.5-2.5 2.3v25.5c0 1.8.6 2.3 2.5 2.3h2.6v2.3h-15.6v-2.3z"/></g></svg>