<svg version="1.1" id="Layer_1" xmlns="http://www.w3.org/2000/svg" x="0" y="0" width="288" height="240" style="enable-background:new 0 0 288 240" xml:space="preserve"><style>.st1{fill-rule:evenodd;clip-rule:evenodd;fill:#00fa9a}</style><path style="fill-rule:evenodd;clip-rule:evenodd;fill:#fff" d="M0 0h288v240H0z"/><path class="st1" d="M142.5 135.3v-17.8l-14.4-8.3-9 5.2c3.6 9.1 10.5 16.3 23.4 20.9zm-2.3-3.4c-8-3.4-14.3-8.4-18-16.4l6-3.5 12 6.9v13zm7.6 0c8-3.4 14.3-8.4 18-16.4l-6-3.5-12 6.9v13zm-15.9-26.5V91.6l12.1-6.9 12.1 6.9v13.8l-12.1 6.9-12.1-6.9zm37.5-26v-.2c-6.5-2.5-14.6-3.8-21.6-4V78l12.1 6.9 9.5-5.5zm-1.1 28.7c1.5-6.4 1.6-13.4 1.4-20l-6.1 3.5v13.9l4.7 2.6zm-49.7-28.7 9.5 5.5 12.1-6.9v-2.7c-7 .2-15.1 1.5-21.6 4v.1zm1.1 28.7 4.6-2.7V91.5l-6.1-3.5c-.1 6.7 0 13.7 1.5 20.1zm25.8 27.2v-17.8l14.4-8.3 9 5.2c-3.6 9.1-10.4 16.3-23.4 20.9zm-15.9-28.6V90.1l7.2-4.1 7.2-4.1 7.2 4.1 7.2 4.1v16.6l-7.2 4.1-7.2 4.2-7.2-4.1-7.2-4.2zm42.2-26c-.1-1-.1-2.1-.2-3.1-5.9-2.5-15.8-4.8-26.2-4.7V79.3l14.4 8.3 12-6.9zm-2 30.9-8.5-4.9V90.2L172 84c.4 10.1.3 19.5-2.2 27.6zm-53.6-30.9 11.9 6.9 14.4-8.3V72.9c-10.4-.1-20.3 2.2-26.2 4.7 0 1.1 0 2.1-.1 3.1zm2 30.9c-2.5-8.1-2.6-17.5-2.2-27.6l10.6 6.1v16.6l-8.4 4.9zM97.4 143.8h4.9v-1.5H90.8v1.5h4.9v13.1h1.7v-13.1zm21.2 5.7c0-4-3-7.5-7.4-7.5s-7.5 3.5-7.5 7.6 3 7.5 7.4 7.5c4.5 0 7.5-3.5 7.5-7.6zm-1.7.1c0 3.3-2.4 6-5.7 6-3.3 0-5.7-2.7-5.7-6s2.4-6 5.7-6c3.3 0 5.7 2.7 5.7 6zm17.2 7.3-4.5-6c2.3-.4 4-1.8 4-4.3 0-2.6-2.1-4.4-5.3-4.4H122v14.6h1.6v-5.7h4.2l4.2 5.7h2.1v.1zm-2.2-10.2c0 1.9-1.6 3-3.7 3h-4.5v-5.9h4.5c2.4 0 3.7 1.1 3.7 2.9zm10.6-2.9h4.9v-1.5H136v1.5h4.9v13.1h1.7v-13.1h-.1zm21.2 5.7c0-4-3-7.5-7.4-7.5s-7.5 3.5-7.5 7.6 3 7.5 7.4 7.5c4.5 0 7.5-3.5 7.5-7.6zm-1.7.1c0 3.3-2.4 6-5.7 6-3.3 0-5.7-2.7-5.7-6s2.4-6 5.7-6c3.2 0 5.7 2.7 5.7 6zm5.3-7.3v14.6h1.6v-14.6h-1.6zm7.2 3.6c0-1.3 1.2-2.4 3.1-2.4 1.5 0 2.9.5 4.2 1.6l1-1.3c-1.5-1.2-3-1.8-5.1-1.8-2.8 0-4.8 1.7-4.8 4 0 2.4 1.5 3.5 4.9 4.2 3.1.6 3.8 1.4 3.8 2.8 0 1.5-1.3 2.5-3.2 2.5-2 0-3.5-.7-5-2.1l-1 1.2c1.7 1.6 3.6 2.3 6 2.3 2.9 0 5-1.6 5-4.1 0-2.2-1.5-3.4-4.7-4.1-3.5-.6-4.2-1.4-4.2-2.8zm22.6-3.6h-10.5v14.6h10.6v-1.5h-9v-5.1h8v-1.5h-8v-5h8.9v-1.5z"/><path d="M95.3 163c0-1.2-.9-1.9-2.2-1.9h-2.2v5.8h.7v-2.1H93c1.2.1 2.3-.5 2.3-1.8zm-.7 0c0 .8-.6 1.3-1.6 1.3h-1.4v-2.6H93c1 0 1.6.5 1.6 1.3zm12.6 4-1.8-2.4c.9-.2 1.6-.7 1.6-1.7 0-1.1-.8-1.7-2.1-1.7h-2.5v5.8h.7v-2.3h1.7l1.7 2.3h.7zm-.9-4.1c0 .8-.6 1.2-1.5 1.2H103v-2.4h1.8c1 0 1.5.5 1.5 1.2zM120 164c0-1.6-1.2-3-3-3s-3 1.4-3 3 1.2 3 3 3 3-1.3 3-3zm-.7.1c0 1.3-1 2.4-2.3 2.4-1.3 0-2.3-1.1-2.3-2.4s1-2.4 2.3-2.4 2.3 1 2.3 2.4zm12.3-1.1c0-1.2-.9-1.9-2.2-1.9h-2.2v5.8h.7v-2.1h1.4c1.3.1 2.3-.5 2.3-1.8zm-.6 0c0 .8-.6 1.3-1.6 1.3H128v-2.6h1.5c.8 0 1.5.5 1.5 1.3zm11.9-1.9h-4.2v5.8h4.3v-.6h-3.6v-2h3.2v-.6h-3.2v-2h3.6v-.6h-.1zM155 167l-1.8-2.4c.9-.2 1.6-.7 1.6-1.7 0-1.1-.8-1.7-2.1-1.7h-2.5v5.8h.7v-2.3h1.7l1.7 2.3h.7zm-.9-4.1c0 .8-.6 1.2-1.5 1.2h-1.8v-2.4h1.8c1 0 1.5.5 1.5 1.2zm10.2-1.2h2v-.6h-4.6v.6h2v5.2h.7v-5.2h-.1zm9.1-.6v5.8h.7v-5.8h-.7zm12.5 0h-4.2v5.8h4.3v-.6h-3.6v-2h3.2v-.6h-3.2v-2h3.6v-.6h-.1zm7.7 1.5c0-.5.5-1 1.2-1 .6 0 1.1.2 1.7.6l.4-.5c-.6-.5-1.2-.7-2.1-.7-1.1 0-1.9.7-1.9 1.6 0 1 .6 1.4 2 1.7 1.2.3 1.5.6 1.5 1.1 0 .6-.5 1-1.3 1s-1.4-.3-2-.8l-.4.5c.7.6 1.5.9 2.4.9 1.2 0 2-.7 2-1.7 0-.9-.6-1.4-1.9-1.7-1.3-.1-1.6-.4-1.6-1z" style="fill-rule:evenodd;clip-rule:evenodd;fill:#999"/></svg>