<svg version="1.1" id="Layer_1" xmlns="http://www.w3.org/2000/svg" x="0" y="0" width="612" height="792" style="enable-background:new 0 0 612 792" xml:space="preserve"><style>.st0,.st1{fill:#98002e}.st1{fill-rule:evenodd;clip-rule:evenodd}.st2{fill:#fff}.st2,.st3,.st4{fill-rule:evenodd;clip-rule:evenodd}.st3{stroke:#000;stroke-width:.216;stroke-miterlimit:2.6131}.st4{fill:#adb8bf}</style><path class="st0" d="m224 511.5.3-.9c1.2 0 2.1-.3 2.8-.8.6-.5 1.2-1.4 1.7-2.6.9-2.5 1.7-5 2.6-7.4.9-2.5 1.7-5 2.6-7.4.4-1.2.5-2.1.2-2.6s-1.1-.8-2.2-.8l.3-.9c7.2 0 14.3 0 21.5.1-.8 2.1-1.5 4.2-2.2 6.4h-1c.4-1.8.1-3.1-.5-3.8-.7-.7-2.1-1.1-4.3-1.1h-3.1c-.5 1.5-1.1 3-1.6 4.6-.5 1.5-1.1 3-1.6 4.6h.5c1.5 0 2.8-.3 3.8-1.1 1-.7 1.9-1.9 2.6-3.4h1c-.6 1.8-1.2 3.5-1.8 5.3-.6 1.8-1.2 3.5-1.8 5.3h-1c.4-1.6.3-2.8-.2-3.5-.5-.7-1.5-1.1-3.1-1.1h-.5c-.8 2.3-1.6 4.6-2.4 7-.4 1.2-.5 2.1-.2 2.6s1.1.8 2.2.8l-.3.9c-4.8-.2-9.6-.2-14.3-.2zm33.2-10c-.8 2.2-1.5 4.3-2.2 6.5-.3.8-.4 1.4-.2 1.8.2.4.6.7 1.3.9-.1.3-.2.5-.3.8h-10.7c.1-.3.2-.5.3-.8.8-.2 1.5-.5 1.9-.9.5-.4.8-1 1.1-1.8.6-1.6 1.1-3.2 1.7-4.8.6-1.6 1.1-3.2 1.7-4.8.3-.9.4-1.6.2-2-.2-.4-.6-.7-1.3-.8.1-.3.2-.5.3-.8h8.3c-.3.8-.5 1.7-.8 2.5 1-1 1.9-1.8 2.8-2.3.8-.5 1.7-.7 2.5-.7s1.4.3 1.7.8c.3.5.3 1.2.1 2-.3.8-.7 1.5-1.4 2-.6.5-1.3.7-2.1.7-.6 0-1.1-.2-1.7-.6-.5-.4-.9-.6-1.1-.6-.4 0-.7.2-1.1.6-.3.4-.6 1.1-1 2.3zm21.4 4.9c-1.4 1.8-2.9 3.1-4.6 4.1-1.7.9-3.4 1.4-5.2 1.4-2.6 0-4.3-.8-5.3-2.4-1.1-1.6-1.2-3.7-.2-6.3.4-1 .8-2 1.4-2.9.6-.9 1.3-1.7 2.1-2.5 1.1-1.1 2.5-1.9 3.9-2.5 1.4-.6 2.8-.9 4.2-.9 2.4 0 4 .7 4.8 2.2.8 1.4.9 3.5.1 6h-9.7c-.5 1.8-.6 3.3-.1 4.3.5 1.1 1.5 1.6 2.9 1.6.8 0 1.6-.2 2.4-.7.8-.4 1.6-1.1 2.5-1.9.2.2.5.3.8.5zm-8.2-5.2h4.1c.6-1.8.8-3.2.8-4.1 0-.9-.4-1.4-1-1.4s-1.3.5-2 1.4c-.6 1-1.3 2.3-1.9 4.1zm25.6 5.2c-1.4 1.8-2.9 3.1-4.6 4.1-1.7 1-3.4 1.4-5.2 1.4-2.6 0-4.4-.8-5.4-2.4-1.1-1.6-1.1-3.7-.2-6.3.3-1 .8-2 1.4-2.9.6-.9 1.3-1.7 2.1-2.5 1.2-1.1 2.4-1.9 3.8-2.5 1.4-.6 2.9-.9 4.2-.9 2.4 0 4 .7 4.8 2.2.9 1.4.9 3.4.1 6h-9.7c-.5 1.8-.6 3.3 0 4.3.5 1.1 1.5 1.6 2.9 1.6.8 0 1.6-.2 2.4-.6.8-.4 1.7-1.1 2.5-1.9.2.1.5.3.9.4zm-8.3-5.2h4.1c.6-1.8.9-3.2.8-4.1 0-.9-.4-1.4-1-1.4s-1.3.5-2 1.4c-.7 1-1.3 2.3-1.9 4.1zm23-3c-.1-.4-.3-.6-.6-.8-.3-.2-.6-.3-1-.3-.8 0-1.5.5-2.1 1.5-.7 1-1.4 2.5-2.1 4.7-.8 2.3-1.1 3.8-1.1 4.8.1.9.5 1.4 1.4 1.4.4 0 .8-.1 1.1-.3.4-.2.8-.4 1.1-.8.6-1.7 1.1-3.4 1.7-5.1.5-1.7 1-3.4 1.6-5.1zm2.1-6.4c.2-.8.2-1.4 0-1.8-.3-.4-.8-.7-1.7-.9.1-.3.2-.5.3-.8h9c-1 3.1-2.1 6.2-3.1 9.3l-3 9.3c-.2.6-.2 1.1 0 1.4.2.4.7.7 1.3.9-.1.3-.2.5-.3.8-2.3.6-4.7 1.2-7 1.8h-2c.2-.5.4-1.1.5-1.6-.7.6-1.5 1-2.2 1.2-.8.3-1.6.4-2.5.4-2.1 0-3.6-.8-4.4-2.3-.8-1.6-.6-3.7.2-6.3.9-2.6 2.2-4.7 3.9-6.3 1.8-1.6 3.6-2.4 5.6-2.4.9 0 1.6.1 2.3.5.6.3 1.1.8 1.5 1.4.6-1.7 1.1-3.1 1.6-4.6zm11.7 11.4c-1 3-1.4 5-1.4 6s.4 1.5 1.3 1.5 1.7-.5 2.4-1.5 1.5-3 2.4-5.9c.9-2.9 1.4-4.9 1.4-5.9s-.5-1.5-1.3-1.5c-.9 0-1.6.5-2.3 1.5-.8.8-1.5 2.8-2.5 5.8zm-6.9-.1c.8-2.6 2.4-4.7 4.6-6.3 2.3-1.6 4.7-2.4 7.4-2.4s4.6.8 5.8 2.4c1.2 1.6 1.4 3.7.5 6.3-.8 2.6-2.3 4.7-4.6 6.3-2.2 1.6-4.7 2.4-7.4 2.4s-4.7-.8-5.9-2.5c-1-1.5-1.2-3.6-.4-6.2zm29.9-8.2c-.2.6-.4 1.3-.5 1.9 1.1-.8 2.2-1.4 3.2-1.8 1.1-.4 2.1-.6 3.1-.6s1.8.2 2.4.7c.6.5.9 1.1 1 2 1.3-.9 2.4-1.6 3.5-2 1.1-.4 2.1-.6 3.2-.6 1.6 0 2.6.5 3.1 1.5s.4 2.6-.3 4.6c-.7 2.3-1.4 4.7-2.1 7-.3 1-.4 1.8-.2 2.2.2.5.6.8 1.3.9-.1.3-.2.5-.2.8h-9.8c.1-.3.2-.5.2-.8.6-.1 1.1-.4 1.4-.8.3-.4.7-1.1 1-2.2l1.2-3.9 1.2-3.9c.3-1.1.5-1.8.4-2.2-.1-.4-.5-.5-1-.5-.4 0-.8.1-1.3.4-.5.2-.9.6-1.5 1-.5 1.5-.9 3.1-1.4 4.6-.5 1.5-.9 3.1-1.4 4.6-.3.9-.4 1.6-.3 2 .1.4.3.7.8.9-.1.3-.2.5-.2.8h-9.2c.1-.3.2-.5.2-.8.6-.1 1-.4 1.4-.8.4-.4.7-1.1 1-2.2l1.2-3.9 1.2-3.9c.3-1.1.5-1.8.4-2.2-.1-.4-.4-.5-1-.5-.4 0-.8.1-1.3.4-.5.2-1 .6-1.5 1-.5 1.5-1 3.1-1.5 4.6-.5 1.5-1 3.1-1.5 4.6-.3.9-.4 1.6-.3 2 .1.4.4.7.8.8-.1.3-.2.5-.2.8h-9.8c.1-.3.2-.5.2-.8.8-.2 1.4-.5 1.8-.9.5-.4.8-1 1.1-1.8l1.5-4.8 1.5-4.8c.3-.9.4-1.6.2-2-.2-.4-.6-.7-1.3-.8.1-.3.2-.5.2-.8 2.6.2 5.3.2 8.1.2zm31.1 12.8c-.2.3-.3.5-.4.7-.1.2-.2.4-.2.6-.2.6-.1 1 .2 1.3.3.3.9.4 1.8.4h.3c-.1.3-.2.6-.2.8h-7.6c.1-.3.2-.6.3-.8.6 0 1.1-.2 1.7-.5.6-.4 1.1-.9 1.7-1.7 2.4-3.3 4.9-6.7 7.3-10 2.4-3.3 4.9-6.7 7.3-10h2.8l1.2 10.2c.4 3.4.9 6.8 1.4 10.2.1.8.3 1.3.5 1.5.3.3.7.4 1.3.4-.1.3-.2.6-.3.8h-13.3c.1-.3.2-.6.2-.8 1.3 0 2.2-.1 2.6-.3.4-.2.7-.5.8-1 .1-.2 0-.4.1-.5v-.6c-.2-1.4-.3-2.7-.4-4.1h-6.5c-.9 1.1-1.7 2.2-2.6 3.4zm3.6-4.9h5.3c-.2-2.2-.5-4.3-.7-6.5-1.5 2.1-3 4.3-4.6 6.5zm31.7 3.2c.3.2.7.3 1 .5-1.3 1.8-2.7 3.1-4.4 4-1.7.9-3.4 1.4-5.2 1.4-2.5 0-4.4-.8-5.5-2.4-1.1-1.6-1.3-3.7-.5-6.3.8-2.6 2.2-4.7 4.4-6.3 2.2-1.6 4.6-2.4 7.3-2.4 1.9 0 3.3.5 4.3 1.4 1 .9 1.3 2 1 3.3-.2.8-.7 1.5-1.4 2s-1.5.8-2.3.8c-.9 0-1.5-.2-1.9-.7-.4-.5-.5-1.1-.2-1.9.1-.3.2-.6.3-1 .2-.4.2-.6.3-.7.2-.5.1-.9 0-1.3-.1-.3-.4-.5-.7-.5-.8 0-1.5.5-2.2 1.4-.7.9-1.3 2.3-1.8 4.2-.7 2.2-.7 3.9-.2 5.2.5 1.2 1.5 1.9 3.1 1.9.8 0 1.5-.2 2.3-.6.7-.5 1.5-1.1 2.3-2zm11 2.1c.5-1.8 1.1-3.7 1.6-5.5-1.1.4-2.1 1-2.9 1.7-.8.8-1.4 1.5-1.6 2.4-.2.6-.2 1.2.1 1.6.2.4.6.6 1.1.6.3 0 .6-.1.9-.2.2-.1.5-.3.8-.6zm-.2 1.4c-1.4.9-2.6 1.5-3.5 1.9-1 .4-2 .6-2.9.6-1.2 0-2.1-.4-2.7-1.1-.6-.7-.7-1.6-.4-2.8.4-1.4 1.6-2.6 3.5-3.8 1.9-1.1 4.6-2.1 8-3 .3-1.2.7-2.3 1-3.5.2-.6.1-1.1-.1-1.5-.2-.4-.6-.5-1.2-.5s-1.1.1-1.5.3c-.4.2-.7.5-.8.9-.1.2 0 .5.1 1 .2.5.1.9 0 1.3-.2.7-.6 1.3-1.2 1.7-.6.4-1.3.7-2.1.7-1 0-1.8-.3-2.2-.8-.5-.5-.6-1.2-.3-2 .4-1.3 1.4-2.4 3.1-3.2 1.7-.8 3.8-1.2 6.2-1.2 2.5 0 4.3.4 5.3 1.3s1.2 2.3.6 4.2c-.4 1.3-.7 2.6-1.1 3.9-.4 1.3-.8 2.6-1.1 3.9-.1.4-.2.8-.1 1 .1.2.2.3.5.3.1 0 .3 0 .5-.1s.5-.2.8-.3c.1.2.2.4.4.6-.9.9-1.9 1.5-2.8 2-.9.4-1.8.7-2.6.7-.9 0-1.6-.2-2.1-.6-.7-.5-1.1-1.1-1.3-1.9zm23.2-11c-.2-.4-.3-.6-.6-.8-.3-.2-.6-.3-1.1-.3-.8 0-1.5.5-2.1 1.4-.6 1-1.2 2.5-1.8 4.7-.6 2.2-.9 3.8-.8 4.7.1.9.6 1.4 1.5 1.4.4 0 .7-.1 1.1-.3.4-.2.7-.4 1-.8.5-1.7.9-3.4 1.4-5 .5-1.7.9-3.4 1.4-5zm1.8-6.4c.2-.8.2-1.4-.1-1.8-.3-.4-.8-.7-1.8-.9.1-.3.2-.5.2-.8h9c-.8 3.1-1.7 6.1-2.6 9.2-.8 3-1.7 6.1-2.5 9.2-.2.6-.1 1 .1 1.4.2.4.7.7 1.4.9-.1.3-.2.5-.2.8l-6.9 1.8h-2.1c.2-.5.3-1.1.5-1.6-.7.6-1.4 1-2.1 1.2-.8.3-1.6.4-2.5.4-2.1 0-3.6-.8-4.4-2.3-.8-1.5-.9-3.6-.2-6.3.7-2.6 1.9-4.7 3.6-6.3 1.7-1.6 3.5-2.4 5.5-2.4.9 0 1.6.1 2.3.5.6.3 1.1.8 1.5 1.4.5-1.5.9-3 1.3-4.4zm21.1 14.5c-1.2 1.7-2.7 3.1-4.3 4-1.6.9-3.4 1.4-5.2 1.4-2.5 0-4.4-.8-5.6-2.4-1.1-1.6-1.3-3.7-.6-6.2.3-1 .6-1.9 1.2-2.8.5-.9 1.2-1.7 1.9-2.4 1.1-1.1 2.3-1.9 3.7-2.5 1.4-.6 2.8-.9 4.2-.9 2.4 0 4 .7 5 2.1 1 1.4 1.1 3.4.5 6h-9.7c-.4 1.8-.3 3.2.3 4.3.6 1.1 1.6 1.6 3 1.6.8 0 1.6-.2 2.3-.6.8-.4 1.6-1.1 2.4-1.9.2-.1.6.1.9.3zm-8.6-5.2h4.1c.5-1.8.7-3.1.6-4-.1-.9-.5-1.4-1.1-1.4-.7 0-1.3.4-1.9 1.4-.7.9-1.2 2.3-1.7 4zm20.4-6.3c-.1.6-.3 1.3-.4 1.9 1.1-.8 2.1-1.3 3.2-1.7 1-.4 2.1-.6 3.1-.6s1.8.2 2.4.7c.6.5 1 1.1 1.1 2 1.2-.9 2.3-1.6 3.4-2 1.1-.4 2.1-.6 3.2-.6 1.6 0 2.6.5 3.1 1.5s.5 2.5-.1 4.6l-1.8 6.9c-.3 1-.3 1.7-.1 2.2.2.5.6.8 1.3.9-.1.3-.1.5-.2.8H491c.1-.3.1-.5.2-.8.6-.1 1-.4 1.3-.8.3-.4.6-1.1.9-2.1.3-1.3.7-2.5 1-3.8.3-1.3.7-2.5 1-3.8.3-1.1.4-1.8.2-2.2-.1-.4-.5-.5-1-.5-.4 0-.8.1-1.3.4-.5.2-.9.6-1.5 1-.4 1.5-.8 3-1.2 4.6-.4 1.5-.8 3-1.1 4.6-.2.9-.3 1.6-.2 2 .1.4.4.7.8.8-.1.3-.1.5-.2.8h-9.2c.1-.3.1-.5.2-.8.6-.1 1-.4 1.3-.8.3-.4.6-1.1.9-2.1.3-1.3.7-2.5 1-3.8.3-1.3.7-2.5 1-3.8.3-1.1.4-1.8.3-2.2-.1-.4-.5-.5-1-.5-.4 0-.9.1-1.3.3-.5.2-1 .6-1.5 1-.4 1.5-.8 3-1.2 4.6-.4 1.5-.8 3-1.2 4.6-.2.9-.3 1.6-.2 2 .1.4.4.7.9.8-.1.3-.1.5-.2.8h-9.9c.1-.3.1-.5.2-.8.8-.2 1.4-.5 1.8-.9.4-.4.7-1 1-1.8.4-1.6.9-3.2 1.3-4.7.4-1.6.8-3.2 1.2-4.7.3-.9.3-1.5.1-2-.2-.4-.7-.7-1.4-.8.1-.3.2-.5.2-.8 2.9-.4 5.6-.4 8.4-.4zm24.8 19.8c-.9 1.3-1.7 2.3-2.5 2.8-.8.6-1.7.9-2.6.9s-1.7-.3-2.2-.9c-.5-.6-.7-1.3-.5-2.1.2-.7.5-1.2 1.1-1.7.6-.5 1.2-.7 1.9-.7.4 0 .8.1 1.1.3.3.2.5.5.6.9v1c0 .5.1.7.3.7.2 0 .3-.1.5-.3.2-.2.5-.6.9-1.2.7-1 1.3-1.9 2-2.9-.5-2.2-.9-4.3-1.4-6.5-.5-2.2-.9-4.3-1.3-6.5-.2-.9-.5-1.6-.8-2-.3-.4-.7-.7-1.3-.8.1-.3.2-.5.2-.8h10.4c-.1.3-.1.5-.2.8-.5.1-.9.2-1.1.4-.3.2-.5.5-.6.9v.5c0 .2 0 .4.1.6.4 1.8.8 3.7 1.2 5.6 1.1-1.7 2.3-3.4 3.4-5.1.2-.3.3-.5.4-.7.1-.2.2-.5.2-.6.1-.4.1-.7-.2-.9-.2-.2-.6-.4-1.3-.5.1-.3.2-.5.2-.8h5.5c-.1.3-.1.5-.2.8-.5.2-1.1.5-1.6 1-.5.4-.9 1-1.4 1.7l-5.4 8.1c-1.8 2.6-3.6 5.3-5.4 8zM273.6 460.9c4.3-1 8.2-2.9 11.6-5.8 3.4-2.9 5.6-5.9 6.4-9.1.3-1.1.2-2-.1-2.6-.4-.6-1-1-1.8-1-2 0-4.4 1.7-7.3 5-3.1 3.4-6 7.8-8.8 13.5zm17.7 9.6c-3.4 4.4-7 7.7-10.7 9.7-3.7 2.1-7.9 3.2-12.4 3.2-5.3 0-9-1.2-11.2-3.8-2.2-2.6-2.6-6.2-1.4-11 .9-3.5 2.7-7.3 5.5-11.2 2.8-3.9 6-7.3 9.6-10.2 3.6-2.8 7.3-5 11.1-6.5s7.4-2.3 10.8-2.3c3.5 0 6.2.8 7.8 2.4 1.7 1.6 2.2 3.8 1.5 6.5-1.1 4.2-4.4 8-9.8 11.2-5.5 3.2-12.2 5.3-20.3 6.3-.4.8-.7 1.5-.9 2.2l-.6 1.8c-.7 2.8-.7 4.9.1 6.2.8 1.3 2.4 2 4.7 2 2.3 0 4.6-.6 6.8-1.9 2.2-1.3 4.5-3.3 7.1-6.2.8.4 1.6 1 2.3 1.6zm45.9-31.4c-2 4.7-3.8 9.5-5.8 14.2-.8-.1-1.6-.2-2.3-.3.2-3.7-.1-6.4-1-8.2-.9-1.8-2.4-2.7-4.5-2.7-1.4 0-2.6.4-3.8 1.2-1.1.8-1.8 1.9-2.1 3.1-.5 1.8.3 4.7 2.6 8.6.3.5.5.8.7 1.2 1.9 3.4 3 6 3.4 7.7.4 1.8.4 3.6-.1 5.4-1 4-3.2 7.3-6.7 9.9-3.4 2.6-7.3 4-11.7 4-2.7 0-5.1-.5-7.3-1.5-2.3-1-3.4-1.5-3.5-1.5-.5 0-1 .1-1.4.4-.5.2-1.1.7-1.8 1.3-1-.1-1.9-.2-2.9-.3 2.3-5.2 4.5-10.5 6.8-15.7 1 .1 2 .3 2.9.4-1 4.1-.9 7.3.1 9.7 1 2.4 2.9 3.5 5.6 3.5 1.5 0 2.9-.5 4.1-1.5 1.2-1 2-2.4 2.4-4 .2-.9.2-2-.1-3.1-.3-1.2-.8-2.5-1.7-4.2-.2-.4-.5-1-1-1.8-3.4-6.3-4.7-11.1-3.9-14.3.9-3.5 3-6.4 6.2-8.7 3.2-2.3 6.9-3.4 11.2-3.4 2.2 0 4.5.4 6.8 1.2 2.4.8 3.6 1.2 3.9 1.2.4 0 .8-.1 1.2-.4.3-.2.8-.7 1.4-1.4h2.3zm29.9-12.2c-2.4 4.3-4.8 8.7-7.2 13h7.3c-.6 1.3-1.2 2.7-1.8 4H358l-6.3 11.7-6.3 11.7c-.8 1.6-1.5 2.9-2 4s-.8 1.9-.9 2.4c-.1.5-.1 1 .1 1.3.2.4.5.6 1 .6.8 0 1.7-.4 2.7-1.3 1.1-.8 3-2.8 5.9-6 .6.5 1.3 1 2 1.5-4 4.7-7.6 8-10.7 10.1-3.2 2.1-6.3 3.1-9.4 3.1-2.7 0-4.6-.5-5.7-1.7-1.1-1.1-1.4-2.8-.8-4.9.2-.9.6-1.9 1-3s1-2.2 1.6-3.4c2.3-4.3 4.5-8.7 6.8-13.1s4.6-8.7 6.8-13.1h-5.1c.6-1.3 1.3-2.6 2-3.8 3.5-.7 7.1-2.2 10.7-4.5 3.6-2.2 7.1-5.2 10.7-8.8 1.5.2 3.3.2 5 .2zm1.6 14.5c4.9-.5 10-1.3 15.3-2.3 1.4-.3 2.3-.4 2.5-.4.9 0 1.1 2.6.6 7.8-.3 2.6-.7 5.5-1.3 8.6-.6 3.1-1.3 6.5-2.2 10.2l-.9 3.6c3.9-3.4 7.1-6.6 9.8-9.5 2.6-2.9 4.1-5 4.4-6.3.3-1-.3-2.4-1.6-4-1.3-1.7-1.8-3.2-1.4-4.7.4-1.8 1.5-3.3 3.1-4.5 1.6-1.2 3.4-1.8 5.4-1.8 2 0 3.4.7 4.3 2 .9 1.3 1.1 3 .6 5-.8 3.3-3.5 7.4-8.2 12.6-2.4 2.6-5.4 5.5-9.1 8.9-3.7 3.4-8 7.2-13 11.4-2 1.7-4.1 3.4-6.1 5.1h-5.4c.4-1.6.8-3.3 1.2-4.9 1.8-7.1 3.1-13 4.1-17.7 1-4.7 1.5-8.1 1.7-10.4.3-4.5-.6-6.7-2.9-6.7h-.6c-.2 0-.4.1-.7.1 0-.5.2-1.3.4-2.1zm63.4-24.6c2.1 0 3.8.8 5 2.3 1.2 1.6 1.5 3.4 1 5.6-.5 2.2-1.8 4-3.7 5.6-1.9 1.6-4 2.4-6.1 2.4-2.2 0-3.9-.8-5-2.4-1.1-1.6-1.5-3.5-.9-5.6.5-2.2 1.8-4.1 3.7-5.7 1.7-1.4 3.8-2.2 6-2.2zm-21.9 35.3c.8-1.5 1.5-2.8 2-3.7.5-1 .7-1.6.8-2.1.2-.9 0-1.5-.5-1.9-.6-.4-1.5-.6-2.9-.6h-.8c.2-.8.4-1.5.6-2.3 3.2-.2 6.6-.6 10.3-1 3.6-.5 7.5-1.1 11.6-1.8-2.7 5.3-5.5 10.5-8.2 15.8-2.7 5.2-5.5 10.5-8.2 15.8-.3.7-.6 1.2-.7 1.6-.1.3-.3.7-.3.9-.1.6-.2 1.2-.1 1.5.2.4.5.5 1 .5.6 0 1.3-.4 2.2-1.2.9-.8 2.5-2.5 5-5.2.6.5 1.3 1.1 1.9 1.6-3.9 4.5-7.5 7.8-10.5 9.8-3.1 2-6.1 3-8.9 3-2.5 0-4.3-.6-5.3-1.9-1-1.3-1.2-3.2-.6-5.7.2-.8.7-2.1 1.5-4 .8-1.8 1.9-3.9 3.1-6.1 2.3-4.3 4.6-8.7 7-13zm34.4 8.2c4.3-1 8.1-2.9 11.5-5.7 3.4-2.9 5.4-5.9 6.2-9 .3-1.1.2-2-.1-2.6-.4-.6-1-.9-1.9-.9-2 0-4.4 1.6-7.2 4.9-3 3.3-5.8 7.8-8.5 13.3zm17.8 9.5c-3.3 4.4-6.8 7.6-10.4 9.6-3.7 2.1-7.8 3.1-12.3 3.1-5.3 0-9-1.2-11.2-3.7-2.3-2.5-2.8-6.1-1.6-10.9.8-3.5 2.6-7.2 5.3-11.1 2.7-3.9 5.8-7.2 9.4-10 3.5-2.8 7.2-4.9 11-6.4s7.4-2.3 10.7-2.3c3.5 0 6.1.8 7.8 2.4 1.8 1.6 2.3 3.8 1.7 6.4-1 4.2-4.2 7.9-9.6 11-5.4 3.2-12.1 5.2-20.2 6.2-.4.8-.7 1.5-.9 2.1-.2.6-.4 1.2-.6 1.7-.7 2.8-.6 4.8.2 6.1.8 1.3 2.4 1.9 4.7 1.9 2.4 0 4.6-.6 6.7-1.9 2.1-1.3 4.5-3.3 7-6.1.9.7 1.6 1.3 2.3 1.9zm10.4 12.9 1.2-4.8c1.7-7.1 2.9-12.9 3.8-17.5.9-4.6 1.5-8.1 1.6-10.3.2-4.4-.8-6.7-3-6.7-.2 0-.3 0-.5.1-.2 0-.4.1-.7.1.2-.8.4-1.5.6-2.3 4.9-.5 9.9-1.3 15.2-2.2 1.4-.3 2.2-.4 2.5-.4.8 0 1.1 2 .8 5.9-.2 2-.5 4.4-1 7.4s-1.1 6.4-1.9 10.4c3.4-4 6.7-8 10.1-12.1 3.3-4 6.7-8 10.1-12h5.4l-2.1 15.6c-.7 5.2-1.4 10.4-2 15.6 3.8-3.6 7.1-6.9 9.6-9.9s4-5.2 4.3-6.4c.3-1-.4-2.4-1.8-4.1-1.4-1.7-2-3.3-1.6-5 .4-1.8 1.4-3.2 3-4.4 1.5-1.1 3.4-1.7 5.4-1.7 1.9 0 3.3.7 4.3 2 .9 1.4 1.1 3.1.6 5.2-.7 3.2-3.7 7.8-8.8 13.7-2.6 3-5.5 6.1-8.8 9.2-3.3 3.2-6.8 6.4-10.8 9.8-1.7 1.4-3.4 2.8-5 4.2-2.2.1-4.3.3-6.4.4.6-4.2 1.2-8.3 1.8-12.5.6-4.2 1.2-8.3 1.9-12.5-3.6 4.1-7.1 8.2-10.6 12.4-3.5 4.1-7 8.3-10.5 12.4-2.5.2-4.6.3-6.7.4z"/><path class="st1" d="m115.2 423.9-3.1 4.6h31.4s5.5.2 7.1 3.1c1.6 2.9.9 7.9.9 7.9L137 509.4l9.1-.2 58.2-63.5-14.3 58.9h13.2l83.6-87.8s2.1-2 4-2.9 4.3-1 4.3-1h3.5l3.1-4.8-67.2.1-3 4.8 24.8-.3s8.4.4 11.2 2.4c2.7 2 4.6 4 2.4 9.5-2.2 5.5-9 11.9-9 11.9l-36.2 38.8 10.8-48.1s1.6-4.4 4.2-5.5 5.9-.9 5.9-.9l3.4-4.9h-72.5l-3 4.7 25.8.1s5.9 0 7.7 2.4c1.8 2.4.4 6.8.4 7.1l-1.1 5.5-33.8 37.5 7.7-38.6s1.3-3.7 4-4.9c2.7-1.3 6-1.1 6-1.1l2.2-4.7c0-.1-77.2-.4-77.2 0z"/><path class="st2" d="M194.9 410.8s.5 3.6-.8 5.1c-1.3 1.5-2.3 1.5-2.3 1.5l-.5 2.3 2.3 1.8-.8 5.4s-10.3 4.1-10.5 5.9c-.3 1.8-2.6 8.7-2.6 8.7s-4.6.5-8.2.8c-3.6.3-4.4 1-6.9.8-2.6-.3-4.4-.5-4.4-.5s-.3.5-1.3 2.3c-1 1.8-.8 2.3-.8 2.3s-1 1.5.5 2.8c1.5 1.3 2.6 1.8 2.6 1.8s-3.6.5-5.4 0c-1.8-.5-4.1-1.3-4.6-4.1s-1.3-6.4-1.3-6.4-17 1.3-17.7-4.9c-.8-6.2-2.1-8-2.1-9.8 0-1.8-.8-5.1-.8-5.1l14.9-10.8h50.7v.1z"/><path class="st1" d="M173.4 431.5s.4-.1.8-.3c.4-.1.7-.1.9-.5.3-.4.3-.8.1-1.2-.2-.4-.6-1.1-.9-1.3-.4-.2-.4-.4-.6-.4-.2-.1-.6.1-.6.1s.4.7.7 1.3c.4.5.8.7.3 1.1-.5.4-.5.2-.7.5l-.3.6.3.1z"/><path class="st3" d="M199.3 431.3s.8-1.3 1.8-1.5c1-.2 1.9-.1 2.5.2.6.3 1.3.9 1.3.9s-.3 0-1.4.2c-1.1.2-1.4.2-1.8.6-.4.4-.9 1-1.2 1.1-.3.1-.7-.1-1.1-.4-.4-.4-.1-1.1-.1-1.1z"/><path class="st2" d="M200.2 430.5c.2-.1.4-.3 1.1-.5.7-.2 1.9-.1 1.9-.1s-1.1.1-1.6.2c-.6.1-.9.3-1.2.4-.3.2-.5.3-.5.3l.3-.3z"/><path class="st3" d="M179.2 448.1s-.5 1.4-.1 2.3c.4.9 1.1 1.5 1.7 1.9.6.3 1.5.4 1.5.4s-.2-.3-.7-1.2c-.5-.9-.8-1.2-.7-1.8 0-.5.2-1.3.1-1.6-.1-.3-.5-.5-1-.6-.4-.1-.8.6-.8.6z"/><path class="st2" d="M179.2 449.3c0 .2 0 .5.3 1.2s1.1 1.5 1.1 1.5-.6-.9-.8-1.4c-.2-.5-.3-.8-.4-1.2-.1-.4-.1-.6-.1-.6l-.1.5z"/><path class="st3" d="M153.7 445.4s-.5 1.4-.1 2.3c.4.9 1.1 1.5 1.7 1.9.6.3 1.5.4 1.5.4s-.2-.3-.7-1.2c-.5-.9-.8-1.2-.7-1.8 0-.5.2-1.3.1-1.6-.1-.3-.5-.5-1-.6-.4 0-.8.6-.8.6z"/><path class="st1" d="M167.9 440.2s3.6.1 5 0 3.9-.4 5.2-.4c1.3 0 2 0 2.7.3.7.3 1 .4.9 1.3-.2.9-1.2 2.6-1.5 3.1-.3.5-.7 1.1-.7 1.5 0 .4-.6.9-.7 1.7-.1.8-.1 1 .3 1.4.4.4.9.5 1.5.5s.7.1 1.1-.6c.5-.6.3-1.2.5-1.8.2-.6.2-.5.6-.6.4-.1.4-.9.6-1.8.2-.9.3-1.3.9-2 .6-.7.8-1.2 1.3-1.1.5 0 .8.4 1.2.1.5-.3 1.1-1 2-1.6.8-.6 1.4-.6 2.2-1 .8-.4 1.1-.4 1.4-1 .3-.6.6-.9.9-1 .3-.1 1.1.1 1.5-.1.4-.3 1.1-.6 1-.9 0-.4-.6-.5-.3-.7.3-.2.7-.5 1.5-.8.8-.2 2-.3 2.7-.7.7-.4 1.1-.6 1.2-.9 0-.4-.1-1.5-.8-1.9-.7-.5-1.1-.5-1.7-.4-.5.1-.8.7-.9.9-.1.2-.7.8-1 1.1-.4.3-.8.5-1.5.8-.7.3-1 .5-1.5.6-.5.1-.8.3-.8.3s.1-.6.3-1c.2-.4.3-.6 1.1-.8.8-.2 1.3-.4 1.7-.6.4-.1.6-.2.6-.5.1-.3 0-.4-.1-.8s-.3-.8.2-1.1c.5-.3 1.3-.3 1.9-1 .7-.6.8-.7.7-1.2 0-.5-.3-.8-.9-1.2-.5-.4-.9-.7-1.8-.7-.8 0-1.2.3-1.4 1-.3.6-.5 1.3-.9 1.8s-.9 1-1.5 1.5-1.7 1.4-2.1 1.8c-.4.3-1.1.9-1.4 1.2-.3.3-.9.8-.9.8s1-1.2 1.1-1.7 0-.6-.2-1.2-1.4-1.5-2.1-1.5c-.6 0-1.1.2-1.5.8-.4.5-.5 1.3-.3 2 .2.6.1 1.4-.2 2-.4.6-.9 1.2-1.8 1.5-.9.3-2.2.6-3.7.7-1.4.1-3.4.1-4.5.1s-3-.2-3-.2-2.7.2-3.3 1.3c-.6.7-.9 2.5-.8 2.7zM155.5 437s.6.9.6 1.3 0 1.1-.4 1.8-1.2 1.8-1.5 2.5c-.3.7-.2.8-.4 1.1-.2.3-.7.8-.7 1.6-.1.8.2 1.1.2 1.1s.4.3 1.3.6c.8.2.8.1 1.2-.2.4-.3.6-.9.8-1.5.2-.6 0-1.1.3-1.2.3-.1.7-.1.8-.7.1-.6 0-1.4.4-2.2.4-.8.4-.7.6-.9l.5-.5s-.9-2-1.8-2.4c-1.1-.6-1.9-.5-1.9-.4zM154.5 421.9s1.2.9 1.8 1.6c.6.7 1 2.2 1 2.2s-.6-.8-1.3-1.3c-.7-.5-.8-.7-.9 0 0 .7.1 1.9.2 2.6.1.7.4 1.7.4 1.7s-.4-.5-.9-1.1c-.5-.6-1-.7-1-.7s.6 3.1 1.1 4.4c.5 1.3.5 2 .5 2l.8-.5s-1-3.8-.8-3.5c.2.3 1.1 1.1 1.1 1.1s.3-1.2-.1-1.9-1-3.2-.3-2.8c.6.4 1.8 1.5 2.1 1 .2-.5-.1-2.3-.6-2.9-.5-.6-1.7-2-1.7-2s-1.5 0-1.4.1zM143.6 397.2s-4.2-.6-6.2-1-4.8-1.5-7.3-1.9c-2.5-.5-4.1-.1-5.3-.4-1.1-.3-6.7-1.8-9.2-2.4-2.5-.6-7.4-2.1-9.5-2.9-2.1-.7-7.9-3.2-11.2-4.6-3.3-1.3-6.6-3.3-8.6-4.1-1.9-.8-12.6-6.4-12.4-6.1 0 0 7.5 5.7 8.1 6.2.6.5 2.9 2 2.9 2s-3.5-1.4-5.6-2.1c-2.1-.8-4.3-1.5-4.3-1.5s2.1 1.7 5.2 3.7 13.5 7.1 16.1 8.3c2.7 1.2 7.3 3.3 7.3 3.3l1.2 1c1.1 1 4.9 3.7 6.7 4.6 1.8.9 1.6.7 1.6.7l-3.7-.3s3.8 2.1 5.8 3.2 5.4 2.9 6 3.3c.7.4 2.2 1.3 3.2 2s2.1 1.5 2.1 1.5-1.2-.5-1.9-1c-.7-.6.8 2.1 2.6 3.2s3.2 1.5 3.2 1.5-1.5-.1-.7.5 1.8 1.4 2.3 1.8c.5.4.3.8.4 2 .1 1.2 1 2.6 1 2.6l-2-1.7s-.4.9.1 1.9c.6 1 .3 1.2.3 1.2l-1.4-1.1s.5 4.2.9 5.8c.5 1.6 1.3 4.8 1.6 5.4.5.7 10.8-34.6 10.7-34.6zM191.8 402.7s1.6 2.2 1.8 4.6c.3 2.4.1 4-.3 5.3-.4 1.3-.4 1.9-1.4 2.8-1 .8-1.4.1-1.7.9-.2.8 0 1.3-.4 1.8s-.5.5-1.2.2-.5-.6-.5-.6l-3.4.8v2l-2.4-.3c-.8-.1-1.4-.3-2.3.2-.9.5-1.8.6-2.9.5-1.1-.2-.8-.5-2-.5-1.3 0-1.9.3-1.9.3l-.1-1.3s0-.4 1.5-.4c1.6 0 3.5-.1 5.3-.3 1.8-.2 3.9.1 4.2-.5.4-.6 1-1.4 2.4-1.4 1.5 0 2.7.8 2.7-.1s.6-2.1 1.5-2.4c.8-.3 1.6-3.9 1.6-5.6 0-1.7-.4-2.9-1.1-4.2-.7-1.4-.6-1.7-.6-1.7s1.1-.4 1.2-.1z"/><path class="st1" d="M179.2 391.2s5.1-.1 11.4-.7c6.4-.7 9.3-1.1 18.4-1.1 9.2-.1 12.7.4 18.3.9 5.6.6 8.5.7 15.3.4 6.8-.3 7.2 0 11.3 0 2.3 0 5.2.7 6.5.4.8-.1-.8.9-1.9 1.2-.5.1-1 .1-1.1.1-.3.1-.1.3.5.5.8.2 2.6.2 2.4.4-.7.6-2.9.8-2.1.9 0 0 7.2 1.2 11.9 1.6 4.8.4 5.1.8 9 .1 3.9-.7 7.2-2.2 7.2-2.2s-4.5 3.8-6.2 4.4c-1.7.5-1.8.5-4.2.6-2.3.1-3.5.1-4.3-.1.3.3 1 .3 2.4.9 1.4.6 1.5.8 1.5.8s-1.3-.2-4.3-.6c-3-.4-2.9-.5-4.6-.4-1.7 0-1.9.3-1.9.3l2 .9s-.1.9-3 .5-4.3-1.4-5.4-.1c-1.1 1.3-1.7 1.8-2.2 1.9l-2.9.3c-4.3.1-3.8.2-3.8.2.3.3.9 1.1-2.3.7-3.2-.4-5.9.6-5.9.6s1.1.7-1.8.9c-3 .2-6.7 0-6.7 0s.3.5-2.1.6-7-.8-7-.8-.9.4-2.2.5c-1.3.1-2.7-1-2.7-1s.1 1.4-2 1.2c-2-.3-2.9-1-2.9-1s0 1.3-1.8.8-1.7-.7-1.7-.7.3 1.8-2 1-3.7-1.2-3.7-1.2-2.9.6-4.1-.3c-1.2-.9-.6.4-2.5-.8-1.9-1.2-2-1.7-3.4-1.3-1.5.4-2.9 1.2-3 1.1 0 0-4.4-5.8-5.8-7.3-1.4-1.5-3.2-2.9-4.2-3.7-1.2-.9-2.3-1.6-2.4-1.4z"/><path class="st1" d="M182.4 391.8s-.7-.7-2.4-1.2-1.6-.3-3.2-.8c-1.6-.4-1.3-.4-3-1.1-1.7-.6-1.7-.5-2.5-.9s-1.9-1.7-1.9-1.7-1.3 2-.2 2.7c1.2.7 4.7 2 7.1 2.5 2.3.5 2.1.5 3.9.9 1.8.5 2.1.7 2.1.7s.1-1.4.1-1.1z"/><path class="st4" d="M131.6 400.6s2.5 1.5 2.8 2.4c.3.8.6.6-1.1.3-1.6-.3-2.9-.6-1.4.2s2.8.9 3 1.8c.1.9-.7 1-.1 1.5s8.7 3.5 9 4.1c.2.7-4.7 2.8-4.2 4.4.6 1.7.6 3.3.6 3.3s-2-1.1-4.5-2.4c-2.5-1.3-.5 0-1.9-.5s-3.2-2.2-2.3-1.9c1 .3.9-.2-.5-.9s-1.1-.3-3.1-1.2c-1.9-.9-2.6-2.1-1.7-1.6 1 .6 2.4-.1 1.4-.5-1.1-.4.2.1-1.9-1.2s-4.4-3.1-4.4-3.1-2.3-2.2-3-3.9c-.7-1.7-2.7-3.3-2.7-4.2 0-.9 6.7.9 8.9 1.6s7.5 1.9 7.1 1.8z"/><path class="st4" d="M135.2 434.1s-1.9-.6-2-2c-.1-1.4.2-1.7-.3-3.1-.6-1.4-1.9-6-1.6-6.7.3-.6 2.6 2.5 2.6 1.8s-3.2-5.5-.6-3.3c2.5 2.3 3 2.6 1.4.1-1.6-2.6-.9-1.5-1.2-2.7-.3-1.2-.4-1.9.5-1.7.9.2 3.4.7 1.9-.5-1.5-1.3-.4-1.1.2-.8.6.4 3.2 2.1 4.3 3.1 1.1 1.1 0 6.9-.4 8.5-.4 1.6-1.1 4.1-1.8 5.3-.7 1.2-.7 2.4-1.4 2.6-.8.1-1.6-.6-1.6-.6zM157.8 436.6s-1.3-.8-1.7-2.2c-.3-1.4-1.3-4.5-1.8-6.3-.5-1.8 2.4 2.9 2 1.6-.4-1.3-1.1-4.7-.8-5.1.1-.2 1.2 1 2 1.7.8.6-.3-2.2-.9-3-.6-.8-2.3-1.6-1.4-2.1 0 0 4.3-1 5.3-1 1-.1 1.4-1 3 .4 1.6 1.3 2.1 3.4 1.9 4.2-.2.8-1.5 4.1-1.5 4.1s-1.8 4.3-2.6 5.7c-.7 1.5-3.7 2.1-3.5 2z"/><path class="st2" d="M191.1 401.5s10.9-3.2 16-4.3c5.1-1.1 6-2.1 13.3-2.2 7.3-.1 7.1-1.3 8.9-1 1.8.3 3 .4 8.5 1.1 5.4.7 7.4.5 11.6.3 4.2-.2 4.7-1.2 6.5-.6 1.8.6 5.5 1.2 8.6 1.6 3.1.4 5.4.8 8.4 1h1.8c.9.1 2 .1 4.4-.5 2.7-.6 4.1-1.3 4.1-1.3s-2.9 1.5-4.4 1.9c-.6.1-1.7.3-2.7.4-2.2.1-5.1 0-6.7-.3-2.1-.3-8.4-1-10.8-1.5-2.4-.5-3.3-.5-3.3-.5s-3.6 1-8.3.9c-4.6 0-8.1-.1-11.3-.6-3.1-.5-6.3-1-6.3-1s-1.7 1.5-5.4 1.6c-3.7.1-9.7 0-13.4.9-3.7.9-10 2.5-13.8 3.6s-4.6 2.3-5 1.7c-.4-.6-.9-1.2-.7-1.2z"/><path class="st4" d="M264.2 399.4s-1.7-.3-4.6-.7c-2.8-.5-6.4-2-6.4-2s2.3 1.6 4.7 2.4c2.3.8 3.9.8 4.9 1 1 0 1.6-.8 1.4-.7zM257 400.1s-4.8.1-6.9-.5c-2.2-.5-5.5-2.1-5.5-2.1s4.6 2.3 6.4 2.8c1.9.5 3.7.6 4.9.5 1.1 0 1.2-.8 1.1-.7zM248 401.4s-4.6-.3-7-1.6c-2.5-1.4-5.6-3.1-5.6-3.1s2.7 2.8 5.3 3.9c2.6 1.1 4.8 1.4 6.2 1.4 1.4 0 1.2-.5 1.1-.6zM240.5 403.1s-3.2-.7-5.3-2.4c-2.1-1.7-3.4-3.4-3.4-3.4s.6 2.9 3.5 4.5 3.4 1.9 4.3 2c.9.1 1.1-.6.9-.7zM233.3 404.4s-2.2-.7-3.4-2.2c-1.1-1.5-1.8-3.2-1.8-3.2s-.4 3.7 1.9 4.8c2.4 1.1 3.7.5 3.3.6zM223.6 402.8c-1.3-1.9-1.3-3.5-1.3-3.5s-1.1 2.3.2 3.6c2 2 2.3 1.8 1.1-.1zM217.9 400.3s-1.5 1.6-1.9 2.4c-.5.8-1 1.1-1 1.1s.3-1.2 1.2-2.5c1-1.3 1.1-2.1 2.1-2.4.9-.2-.4 1.4-.4 1.4z"/><path class="st4" d="M264.1 397.7s-1.5.3-2.8.7c-1.2.3-3.1.4-3.1.4s1.6-.5 3-.9 2.4-.4 2.4-.4l.5.2zM257.8 398.9s-2.2.1-3.1.4c-.9.3-2.8 1-2.8 1l-.8-.2s1.9-.6 3-.9c1-.3 3-.7 3-.7s.7.3.7.4zM249.1 399.8s-1.3.3-2.5.5c-1.2.3-3 .7-3 .7l-.8-.2s2.5-.5 3.5-.8c1-.3 1.8-.6 1.8-.6s1 .3 1 .4z"/><path class="st4" d="M250.1 399.8s3.3-1 4-1.2c.7-.2 1.7-.6 1.7-.6l-.9-.2s-2.4 1.1-3.6 1.4c-1.2.2-2.5.7-2.5.7l1.3-.1zM262.5 397.1s-2.2.4-3.1.8c-.8.3-2.3.4-2.3.4l-.6-.2s1.5-.3 2.6-.7c1.1-.4 2.8-.5 2.8-.5l.6.2zM259.9 396.9l-4 1-.5-.2 3.6-1.2.9.4zM257.6 396.6l-3.1.6-.4-.2s1.7-.4 2.2-.5c.6-.1 1.3.1 1.3.1zM254.3 397.6s-2.9.6-3.7.9c-.8.3-2.3.7-2.3.7l-1.1-.3s2-.6 3.2-1c1.1-.3 2.6-.3 2.9-.6.4-.2 1 .3 1 .3zM253.4 396.8s-3.5.8-4.2 1c-.7.1-2.9.8-2.9.8l-.7-.2s2.9-.7 4-.9c1.1-.2 2-.6 2.7-.7.6-.1 1.2.1 1.1 0zM246.7 399.1s-.7.5-2.1.8c-1.4.3-3 .7-3 .7l-.7-.5s1.6-.4 2.9-.7c1.3-.3 2.5-.6 2.5-.6s.5.2.4.3zM244.9 398.2s-.3.5-1.1.7c-.8.1-1.2.3-2 .5s-1.3.5-1.3.5l-.7-.3s.6-.3 1.4-.5c.8-.1.7-.2 1.7-.5s1.5-.5 1.5-.5.4 0 .5.1zM240 399.8s-.9.7-2.2.9-2.7.3-2.7.3l-.4-.2s1.6-.2 2.7-.6c1.1-.3 2-.7 2-.7s.8.3.6.3zM238.3 399s-.5.4-1.5.7c-1 .3-2.6.6-2.6.6l-.5-.5s1.7 0 2.5-.3c.9-.3.9-.1 1.3-.6.4-.4.5-.4.5-.4s.4.4.3.5z"/><path class="st4" d="M237.6 398.3s-.6.5-1.6.8c-1 .3-2.8.3-2.8.3l-.3-.3s2 0 2.8-.2c.9-.3 1.4-.8 1.4-.8s.5 0 .5.2zM236.7 397.7s-.1.6-1.2.5c-1.1-.1-2.5.6-2.5.6l-.5-.4s.9-.4 1.9-.5c1.1-.1 1.7-.3 1.7-.3l.6.1zM233.6 400.8s-.5.6-1.6.7c-1.1.1-2.8 0-2.8 0l.4.6s1.7.1 2.5-.2c.8-.3 2.1-.9 2.1-.9s-.6-.3-.6-.2zM232.9 400.2s-1 .6-1.9.7c-.9.1-1.9.3-1.9.3l-.5-.5s1.4 0 2.3-.2c.9-.2 1.6-.6 1.6-.6l.4.3zM232.2 399.1s-.4.5-1.8.7c-1.4.1-2 .6-2 .6l-.2-.7s.9-.3 1.8-.3c1 0 .9-.1 1.3-.2.5-.1.8-.4.8-.4s.2.2.1.3zM231.9 398.3s-1.1.8-1.7.7c-.7-.1-2.3.4-2.3.4v-.5s.8-.6 1.8-.5c1 .1 1.8-.2 1.8-.2s.5-.1.4.1zM227.1 401.4s-.3.3-1.5.5-3.1.1-3.1.1l.2-.6s1.5.5 2.4.1c.8-.3 1.2.1 1.7-.4s.7-.4.7-.4-.4.5-.4.7zM221.1 401.3s-.5.1-1.6 0c-1.2-.2-2.2-.2-2.2-.2l-.6.7s1.8.1 2.7.1c.8-.1 1.6-.6 1.7-.6zM220.1 402.9s-.5.1-1.6 0c-1.2-.2-2.2-.2-2.2-.2l-.6.7s1.8.1 2.7.1c.8-.1 1.6-.5 1.7-.6zM214.9 402.3s-.5.1-1.6 0c-1.2-.2-2.2-.2-2.2-.2l-.6.7s1.8.1 2.7.1c.9-.1 1.6-.6 1.7-.6zM217.8 400.2s1.6.2 2.5.1c1 0 1.6-.3 1.6-.3s-.3-.3-1.4-.2c-1.2.1-1.8.1-1.8.1h-.6s-.3.2-.3.3zM212.4 400s.9.3 1.9.7c1 .4 1.9.2 1.9.2s-.6-.2-1.5-.6c-.9-.3-2-.6-2-.6s-.4.3-.3.3zM213.9 398.6s1.1.1 1.8.3c.7.3 1.3.1 1.3.1l-.4-.4s-1.1-.3-1.7-.4c-.7-.1-1.3 0-1.3 0l-.5.8c0 .1 1-.7.8-.4zM192 393.6s.6-.1 1.5.8.8 1.6.8 1.6-.4-.9-1.3-1.3c-.8-.4-1.7-.9-1.7-.9l.7-.2zM190.8 394.5s.6-.1 1.5.8.8 1.6.8 1.6-.4-.9-1.3-1.3c-.8-.4-1.7-.9-1.7-.9l.7-.2zM195.7 394.2s.7 0 1.5.8 1 1.3 1 1.3-.2-.4-1.4-1c-1.3-.7-1.5-.7-1.5-.7s.5-.4.4-.4zM190 397.7s.7-.1 1.6.6c.9.7 1.1 1.2 1.1 1.2s-.2-.3-1.5-.9c-1.3-.5-1.5-.6-1.5-.6s.4-.3.3-.3zM196.5 396.5s.4-.1 1.2.6c.8.7.9 1.2.9 1.2s-.5-.5-1.5-1-1.5-.6-1.5-.6.8-.2.9-.2zM192.5 392s.4-.1 1.2.6c.7.7.9 1.3.9 1.3s-.5-.5-1.5-1-1.5-.6-1.5-.6.8-.4.9-.3zM185.7 392.1s.4-.1 1.2.6c.7.7.9 1.3.9 1.3s-.5-.5-1.5-1-1.5-.6-1.5-.6.8-.3.9-.3zM192.1 397.1s.4-.1 1.2.6c.7.7.9 1.3.9 1.3s-.5-.5-1.5-1-1.5-.6-1.5-.6l.9-.3zM196.3 393s.4-.1 1.2.6c.8.7.9 1.2.9 1.2s-.5-.5-1.5-1-1.5-.6-1.5-.6.8-.2.9-.2zM198.4 392.8s.4-.1 1.2.6c.8.7.9 1.2.9 1.2s-.5-.5-1.5-1-1.5-.6-1.5-.6l.9-.2zM197.3 390.7s.4-.1 1.2.6c.8.7.9 1.2.9 1.2s-.5-.5-1.5-1-1.5-.6-1.5-.6l.9-.2zM200.1 390.4s.4-.1 1.2.6c.8.7.9 1.2.9 1.2s-.5-.5-1.5-1-1.5-.6-1.5-.6l.9-.2zM194.1 390.9s.4-.1 1.2.6c.7.7.9 1.3.9 1.3s-.5-.5-1.5-1-1.5-.6-1.5-.6l.9-.3zM188.2 392.2s.4-.2 1.3.3 1.2 1 1.2 1-.6-.4-1.7-.7c-1.1-.3-1.6-.2-1.6-.2l.8-.4zM193.7 396.7s.7-.2 1.7.6c1.1.8 1 1.3 1 1.3s-.6-.7-1.5-1.2c-.9-.4-1.3-.8-1.2-.7z"/><path class="st1" d="M160.5 420.6c-.4-.6-.2 1.2-1 .7s-5.2.4-5.2.4c0 .1 2.4.5 4 1.5.7.4 1.2 1.1 1.4 1.6.6 1.7 1 4 .1 2.4s-1.3-2.1-1.3-2.1.5 2.9.5 4.4c0 1.5.2 1.8-.6.1-.8-1.8-1.7-2.9-1.7-2.9s.4 4.1 1 5.6c.6 1.6.5 3.1.5 3.1s-.4-.1-1.2-1.4c-.8-1.3-1.2-2.8-1.2-2.8s-.4 2.9.1 4.6c.6 1.7.1 1.9 1.1 3 .9 1.1 1.8.9 5.2 1.9 3.4 1 7-.2 8.6-2.4 1.6-2.2 2.5-3.7 2.7-5.7.2-2-.6-2.5 0-3.9.6-1.5 1.5-2.5 1.6-4.3.1-1.8 1.1-1.4-.6-3.8-1.7-2.4-2.5-1.5-5-3.1-2.5-1.5-4.6-.2-4.6-.2s1.7-.6 2.5.7c.8 1.3 1.6 2.2-.1 1.8-1.6-.3-4.4-.6-4.4-.6s.3.7-.7 1.6c-1.1.7-1.7-.2-1.7-.2zM170.7 389.2s-3.5-11-5.1-16.2c-1.6-5.2-1.1-13.8-1.6-16.8-.6-3-3.3-11.9-5.4-15.7-2.2-3.8-4.3-6.4-5.7-8.6-1.4-2.2-2.2-3.5-2-1.7.3 1.7.6 4.2.6 4.2l-2.2-2.9s-.4 2.1.2 3.7c.6 1.6-.5 1.7-.5 1.7s-12.1-14-17.5-19.7c-5.5-5.7-14.2-16.6-18.1-21.4-3.9-4.8-6.8-9.2-9.1-11.4-2.3-2.2-5.4-5.9-4.7-3.1.7 2.8 1.7 4.5 4.1 7.5 2.4 3 5.5 7 5.5 7s-6.8-5.7-10.2-9.2c-3.5-3.4-7.5-6.7-9.7-8.3-2.2-1.6-4.9-4.6-4.4-2.7.4 1.9 3.8 6.3 6.7 9.4 2.9 3.1 5.1 5 6.1 6.4 1 1.4.5 2.2.5 2.2s-3.6-2.7-7.7-5.5-8-5.4-9.3-6.4c-1.2-1-3.3-.7-1.2 1.6 2 2.3 5 5.2 7.5 7.2s4.4 3.2 3.7 4.4c-.7 1.2-4.7-1.3-7.3-2.3s-6.3-3.6-5.6-1.6c.6 2 3.8 4.7 5.3 6.4 1.6 1.8 3.9 3.2 3.9 3.2s-5.2-2.7-5.3-.9c-.1 1.8 2.3 4.8 3.8 6.3 1.5 1.4 2.4 1.7 2.4 1.7s-4.6-.2-2.1 3.5c2.5 3.7 4.5 5.1 4.5 5.1s-2.6 1.6.8 5.2l4.4 4.8s-1.8 1.3.6 3.8 2.5 5 4.7 7.1c2.1 2.1 3.6 2.7 3.6 2.7s-1 2.5 1 4 2.5 1.5 2.5 1.5.7 1 2 4.1c1.3 3.1 4.2 3.1 4.2 3.1s-1.4 1 0 2.6 3.3 2 3.3 2-1.6 1.7-.3 3 2 .2 2 .2-1.8 2.1-.3 3.5 2.1 1.3 2.1 1.3-1.6 1.4-.8 3c.9 1.6 1.7 1.6 1.7 1.6s.1.3.6 3 1.7 2.9 1.7 2.9-3 .6-.9 1.8c2.1 1.3 2.8.6 2.8.6s-2.6 2.6-.9 3.2c1.8.6 2.2.8 2.2.8s-2 2.8-.1 3.6c1.8.9 2.5.7 2.5.7s-1.2 1.9.4 2.9 7.5 3.3 12.5 4.2c5 .9 9.4 1 10.6 1.2 1.2.2 4.6 1.2 7.3.5 2.8-.7 3.6-2 5.2-3.4 1.3-1.5 4.6-3.3 4.5-2.6z"/><path class="st4" d="m135.4 399.1-3 .7s-10.5-2.3-14.1-3.3c-3.6-1-25.6-10.2-27.4-11.3-1.8-1.1-7.4-4.9-11.1-7.3-3.7-2.4-5.8-4.1-5.8-4.1s13.3 7.1 19.9 10c6.5 2.9 10.4 4.8 16.5 6.7 6.1 1.9 11.9 3.6 14.4 4 2.5.5 1.4-.2 5.4.4 4 .6 6.4 1.8 7.9 1.9 1.5.1 2.9.4 2.9.4s-5.3 1.7-5.6 1.9z"/><path class="st1" d="M189.5 415.5s4.4-5.6 1.3-11c-3.1-5.3-8.2-10.8-9.8-12.1-1.6-1.2-8.8-3.3-11-3.6-2.2-.3-12 2.4-15.7 3.6s-5.7 2.1-8.4 3.3c-1.5.7-3.2.9-4.7 1.5-1.5.5-4.9.1-5.4.7-.8 1.3-11.3-.3-7.8 2 3.5 2.3 3.3 7.6 2.8 9.6-.5 2.1 2.7 4.3 2.7 2.5.1-1.8 11.2.2 6.1.3-5.1.1-2.7 3-1.6 3.8l1.6 1.9-.9.1c-4-1.3-5.1-3 .6 2.9 1.3 1.4.8 3.4 3.2 1.3 2.4-2.1 1.2-1.1 1.2-1.1l-1.6-2.1 1.5.6 2.2 1.1 1.3-.8s-.9-1.2-1.3-1.8c-.4-.6.2-1.4.2-1.4s0 .2.9.9c.8.8 3 2.1 3 2.1l1.4-1c-1.5-1.9.6-1.8.6-1.8s.8 1.3.9 2.9c.1 1.6.1 1.9.1 1.9s5.8.9 7.3.2 4-2.3 4-2.3 13.4-1.6 16.7-1.9c3.4-.1 8.6-2.3 8.6-2.3z"/><path class="st2" d="M185.8 412.7s1.2-1.9.5-3-1.3-1.3-1.8-2.1-.5-1.3-1.3-1.5c-.9-.2-1.4 0-1.4 0s-.8 1.2-.7 2.2c.1 1 .6 1.9 1.4 2.6.8.7 1.3 1 2.1 1.3.6.4.9.4 1.2.5z"/><path class="st3" d="M185.5 411.5s.9-1 .7-1.8c-.2-.8-.5-1.2-1.3-1.6-.9-.4-1.2-.3-1.6.1-.5.3-.7.8-.6 1.5 0 .7.2 1.1 1 1.6s1.8.2 1.8.2z"/><path class="st2" d="M184.3 408.1c.1.1.2.3.1.5s-.3.3-.5.2c-.1-.1-.2-.3-.1-.5s.4-.2.5-.2z"/><path class="st4" d="M192.5 413.1s.8-3.5.3-5.7c-.5-2.3-.6-2.5-1.6-4.4-1-2-2.7-4.6-5.1-7-2.3-2.5-2.8-2.9-4.9-4.1-2-1.2-2.5-.5-5.1-1.4-2.6-.9-3-1.3-5.1-2-2.1-.6-3-.5-3-.5s.6 4.1 1.3 5c.7.9 1.6 3.3 1.7 5 .1 1.6 1.6 1.9 2.7 2.9s2.2 2 2.8 3.4c.6 1.4 1 2.3 2.1 1.9 1.1-.4 4.6-1.1 5.6-.3.9.8 2.7 3.6 2.7 4.8 0 1.2.8 2.2.8 2.2s1.9 0 2.4 1c.6 1 .9.7 1.4.2.8-.5 1-1.1 1-1z"/><path class="st4" d="M178.7 410.4s.7-.3.5-1.5c-.2-1.2-.8-2.2-.8-2.2s-3.7-2.8-4.2-3.6c-.5-.9-2.8-3.3-3.6-3.8-.9-.5-1.7-2.5-2.5-2.7-.8-.2-1.6-.6-2.7-.6s-2.6-.3-1.7.3c.9.5 1.3 1.1.7 1-.6-.1-1.7.3-1.3.6.4.4.7.8-.4.9-1.1.1-1.3 0-1.3 1.2s-1-.1-.7 1.3c.3 1.4.9 2.8.1 2.7-.8-.1.6 1.7-.5 1.7s-2.3.1-.9.5c1.3.4 1.7 1.5.4 1-1.3-.4-.7-.2-2.3-.4-1.6-.2-2.1.1-2.1.1s2.9.9 2.4 1.3-1.3.5-.5.9 2.5 2 1.5 1.6c-1-.5-1.9.1-.3.6 1.7.6 1.1.8 1.3 1.5.2.7 2.6 1.3 2.1 1.9-.5.6.1 1.4-1.1 1.3-1.2 0-2.4.3-1.3.8 1.1.5 1.5-.4 2 1.3.5 1.8-.3.5-.3.5s-.4.9.5 1.2c.9.3.3 1.1 1.4 1 1.1-.1 2.1-1.1 3.8-.6 1.7.5 2.4.2 4.6-.2 2.2-.4 2.4-.9 4.3-.4s2.2.1 3.8-.2c1.6-.3.9-.5 2.3-.2s2.4.2 2.4.2-1.2-4.5-1.2-5.2c0-.7-1.1-1-2.5-1.3-1.4-.3-1.3.4-2.4.7-1.1.3-.9.5-1.8-.1-1-.6-.2 0-1.7-.5s-3.4-2.2-2.1-2.1c1.3.1 1.9.2 2.9.4s1.9.3 1.9-.1.1-.3.7-.2c.6.2.5-.9.6-.6z"/><path class="st2" d="M178.9 408.9c.9.4-.7-2.2.6-2.8 1.8-.8-.4-.2-.3-1.2 0-.1.1-.1.1-.3.3-1.6-.3-3.4-1-5-.8-1.7-1.6-3.5-2.1-4.5-.2-.5.8 1.8.7 1.7-1.1-1.2-.2.5.7 2.8.7 1.7.3 3.3-.1 2.9-1.2-1.1-1-1.1-1.2-2-.4-1.7.1-1.6-.7-3.6-.5-1.3-1.6-3.2-1.7-3.3-.4-.3.5 1.9.6 2.8.2 1.4 1 3.2.3 2.7-.6-.5-1-2.4-1.2-3.2-.2-1-.2-.8-.3.2-.4 4.5-.9-.8-1-1.8-.2-1.6-2.6-4.7-2.2-3.5.4 1.1 1.7 3.5 1.2 3.6-.6.1-1.3-.9-2-1.7-.6-.8.6 2.4 0 1.4s-.6-1.3-1.1-2.3c-.6-1-.8-1.8-.8-1.8s.7 3.2 1 4.3c.3 1.1 1.3 2-.1 1.8-1.4-.2-.3.1-1.5-.3s-2.6-.9-1 0c1.5.9 5 2.1 2.5 1.7-2.5-.5-4.6-1.6-3.8-.9.8.6 2.5 1.2 2.1 1.6-.5.4-.3.1-1.4.1-1.1 0-1.9-.4-1.2.3s1.9 1.9-.6 1.2.7 1.1.5 2.2c-.1 1.1-4.1 0-.8 1.2s1.2-.3 2.2-.2c1 .1 2.7.5 2-.1-.7-.6-.8-1.3.2-.9 1 .3 1.8-.4 1.8-.4l.2-.8s0-2 .9-1 2.4 2.1 1.7 2.2c-.7.1-2.2-.7-2 0 .1.6.3 1-.4 1.1-.7.1-2.7.4-1.5 1.1 1.2.7 3.1 2.7 1.7 1.9-1.4-.8-3.8 0-3.8 0s4.7 1.3 4.1 1c-.6-.3-2.1.1-.1 1.1 2.1.9-3.9.3-2.6.8 1.3.5 3.7.3 4.4.2.7-.1 4.1 0 1.6-1.1s-.6-1.2.4-.9c1 .3 1.6-.1 1.6-.1 1.1.2 2.5 1.4 3.4 1.8zM186.4 412.8s.6-.4.4-1.8c-.2-1.4-.3-1.6-.8-2.4-.5-.9-.5-.9-1.4-1.8-.9-.9-1.3-1.4-2.5-2.2-1.2-.8-1.4-1.5-2-3-.6-1.5-.1-2.1-.8-2.6-.6-.6-.9-1.4-.5-1.6.4-.2.9-.2.6-.7-.4-.5-.8-.9-.3-.9s1 .2.1-.3c-1-.5-.3-.5-.9-.7-.6-.1-1.5-.5-1.5-.5s.7 0 1.1-.1c.4-.1 1.3.1 1.2-.3-.1-.3.3-.8-1.1-1.7-1.4-.9-4.3-2.4-4.3-2.4s3 1.4 4.5 1.4c1.4 0 2.8.5 4.4 1.6 1.6 1.1 2.5 2 2.4 2.2-.1.2.5.2-2.8-2-3.3-2.1-.2 2.4.7 2.9.9.5 1.7 2.1.8 1.1-.9-1-1.5.4-1.1 1.2.5.9.4.7.5 1.7.1 1 .3 1.3 1 1.9.6.6.5.5-.1.8-.6.3-.8.4 0 .9s1.1 1 1.4 1.9c.3 1 .5 1.4.9 2.3.4.9.5.8.9 1.7.4 1 .4.9.3 1.8-.1.9-1.1 1.6-1.1 1.6zM188.8 415.4l.7.6s0-.4.9-.8c.8-.4.8-.2 1.2-.5.4-.3.6-.3.8-1 .2-.7 0-1.2-.2-.8-.2.4-.5 1.1-.8 1.1-.3-.1-.2 0-.2-.6-.1-.6 1-1.3 0-1.1-1 .2-.8.2-1.3-.1-.5-.4-.1-.3-.3-.7-.2-.4-.2-.6-.5-.4-.3.2-.5.4-.5.8-.1.3-.2-.3-.6.1-.4.3-.7.3-.7.9 0 .6.1 1.1.8 1.6.5.5.7.9.7.9z"/><path class="st1" d="M185.6 413.9s-.7-.4-1.2-.2c-.6.3-.3.2-1-.1-.6-.3-1.2-.7-1.2-.7s-.1.9.2 1.5c.3.6.3.7.2 1-.1.2-.3 0 .3 1.2.6 1.1.3 1.6.7 2.3.4.6 1.1.4 1.9.6.8.2 1.2.6 1.2.6l.5-.2s.5-.3 1-1.3c.5-.9.7-1.5.7-1.5s-1-2-1.6-2.4c-.6-.4-1.8-1-1.7-.8z"/><path class="st3" d="M188.4 419s0-.5-1-.9-1.8-.6-2.2-.2c-.4.4-.4.5-1 .6-.6.1-.9 0-1 .5-.1.5-.5.6.1 1.4.6.8 1 1 1 1.4 0 .4-.3.6-.7 1.1l-.8.8s1.9.3 3.3-.9 2.3-3.8 2.3-3.8z"/><path d="M187.2 418.6s.9-.1.8.5c-.1.6-.4 1.3-.7 1.8-.3.5-.8 1-.8 1s.5-1.1.8-2c.2-.9-.2-1.6-.1-1.3z" style="fill-rule:evenodd;clip-rule:evenodd;fill:#fff;stroke:#fff;stroke-width:.216;stroke-miterlimit:2.6131"/><path class="st4" d="M188.8 417.4s.7.4.7-.7c-.1-1.1-.2-1.6-.2-1.6l.1-1.4s-.4 0-1.1.2c-.8.2-1 .2-1.5 0s-.5-.4-1.1-.2c-.6.3-1.1.4-.9 1 .2.6.6.9.6.9s-.4.5.3 1c.6.5 1.3.5 2 .4.7-.1.7-.4 1-.1.2.4.1.5.1.5z"/><path class="st3" d="M187.1 415.7s.1-.3-.3-.5-1 .1-.6.6c.5.5.4.6.7.4.4-.2.2-.5.2-.5z"/><path class="st1" d="M176.6 410.8s-1.2-.7-1.6-.4c-.4.4-.1.5.6.6.7.1 1-.2 1-.2zM166 406.1s-2.1-1.3-2.8-.7c-.7.6-.2.8 1.1 1 1.2.2 1.7-.3 1.7-.3zM179.3 410.2s-1-.6-1.6-.6c-.6 0-.6.4-.1.6.4.1 1.7.1 1.7 0zM168.6 407.3s-1-.6-1.6-.6c-.6 0-.6.4-.1.6.5.1 1.8 0 1.7 0zM175.6 409c-.5-.1-1.1 0-.7.1.4.2.2.6.6.4.3-.3.1-.5.1-.5zM167.7 404.2c-.5-.1-1.1 0-.7.1.4.2.2.6.6.4.3-.3.1-.5.1-.5z"/><path class="st4" d="M173.8 400.6c-.4.3-.8.8-.4.6.4-.1.6.3.7-.2 0-.3-.3-.4-.3-.4zM175.6 404.2c-.3-.4-.8-.8-.6-.4.2.4-.2.6.2.6s.4-.2.4-.2zM178.5 403.4c-.5-.1-1.1 0-.7.1.4.2.2.6.6.4.3-.3.1-.5.1-.5z"/><path class="st1" d="M166.6 408c-.5-.1-1.1 0-.7.1.4.2.2.6.6.4.3-.3.1-.5.1-.5zM162.7 401.1c-.5-.1-1.1 0-.7.1.4.2.2.6.6.4.2-.3.1-.5.1-.5zM166.2 403.9c-.5-.1-1.1 0-.7.1.4.2.2.6.6.4.3-.2.1-.5.1-.5zM164.9 404.1c-.4.3-.7.9-.3.7.3-.2.6.2.6-.2 0-.5-.3-.5-.3-.5zM166.7 404.9c-.5.1-1 .4-.6.4s.4.5.7.1c.2-.3-.1-.5-.1-.5zM174 409.5c-.4-.1-1-.1-.7.2.3.3.2.5.6.3.3-.3.1-.5.1-.5zM176.7 414.2s-1.8-.1-2 0c-.2.1.2.3.9.3.5.1 1.1-.3 1.1-.3z"/><path class="st4" d="M181.6 398.4s-.9-1.5-.9-1.8c0-.3.4.1.7.6.3.6.2 1.2.2 1.2zM185 406s-.9-1.5-.9-1.8c0-.3.4.1.7.6.3.5.2 1.2.2 1.2zM182.4 397.1s-.7-1.2-.8-1.5c0-.2.3.1.6.5.2.5.2 1 .2 1z"/><path class="st1" d="M192.1 406.9s-.6-1.7-.8-1.9c-.2-.2-.2.4 0 .9.3.7.8 1 .8 1zM181.1 414.1s-3.1-.3-2.2.1c.9.4 1.5.3 1.5.3l.7-.4z"/><path class="st2" d="M190.3 403.1s-1.3-2-.7-1.6c.6.5.7 1 .7 1v.6z"/><path class="st1" d="M188.5 402.5s-1-1.6-.5-1.2c.5.4.6.8.6.8l-.1.4zM191.9 411.4s.5-3.1 0-2.2c-.5.9-.4 1.5-.4 1.5l.4.7z"/><path class="st4" d="M172.3 396.5s-2.1-2.3-1.7-1.4c.4.9 1 1.2 1 1.2l.7.2z"/><path class="st1" d="M177.1 416.4s-.9.1-1.4.1c-.5-.1-1.4-.6-1.3 0 .2.6 1 .4 1.6.3.5-.1 1.1-.4 1.1-.4zM188.2 410.2s0-.9-.1-1.4c-.1-.5-.7-1.4-.1-1.3.6.1.5 1 .5 1.5s-.3 1.2-.3 1.2zM188.1 405.7s-.3-.8-.6-1.3-1.2-1-.6-1.1c.6-.1.8.7 1 1.3.2.4.2 1.1.2 1.1z"/><path class="st1" d="M187.4 404.3s-.1-.4-.3-.6c-.1-.2-.5-.5-.3-.5.3 0 .4.3.5.6.1.2.1.5.1.5zM187.6 400.3s-.2-.6-.4-.9c-.2-.3-.8-.8-.4-.8.4-.1.5.5.7.9.1.4.1.8.1.8zM185.1 400.2s-.3-.8-.6-1.3-1.1-1.1-.5-1.1c.6-.1.8.8 1 1.3.1.4.1 1.1.1 1.1z"/><path class="st4" d="M173.4 403.8s-.8-.2-1.3-.5-1.1-1.1-1.2-.5c-.1.6.8.8 1.3.9.6.1 1.2.1 1.2.1zM177 403.7s-.8-.5-1.1-.9c-.4-.4-.8-1.3-1-.8-.2.6.6.9 1 1.3.5.4 1.1.4 1.1.4zM183.1 402.3l-.3-.9c-.2-.3-.7-.7-.3-.8.4 0 .5.5.6.9.1.4 0 .8 0 .8zM180.8 395.8s-.3-.5-.6-.7c-.3-.2-.9-.5-.5-.6.4-.2.6.3.8.6.2.3.3.7.3.7zM173 399.6s-.8-.5-1.1-.9c-.4-.4-.8-1.3-1-.8-.2.6.6.9 1 1.3.4.3 1.1.4 1.1.4zM175.6 406.8s-.9-.1-1.4-.3c-.5-.2-1.3-.9-1.2-.3 0 .6.9.6 1.5.7.5.1 1.1-.1 1.1-.1zM179.1 406.3s-.8-.5-1.1-.9c-.4-.4-.8-1.3-1-.8-.2.6.6.9 1 1.3.5.4 1.1.4 1.1.4zM182.9 405.4s-.3-.8-.6-1.3c-.3-.4-1.2-1-.6-1.1.6-.1.8.7 1 1.2.2.6.2 1.2.2 1.2zM182.4 402.8s-.3-.8-.6-1.3c-.3-.4-1.2-1-.6-1.1.6-.1.8.7 1 1.2s.2 1.2.2 1.2zM180.6 400.2s-.3-.8-.7-1.3c-.3-.4-1.2-1-.6-1.1.6-.1.8.7 1.1 1.2.2.5.2 1.2.2 1.2z"/><path class="st1" d="M172.6 410s-.9.1-1.4.1c-.5-.1-1.4-.6-1.3 0 .2.6 1 .4 1.6.3.5 0 1.1-.4 1.1-.4zM164.8 408.5s-.9-.2-1.3-.5c-.5-.3-1.1-1.1-1.2-.5-.1.6.8.7 1.3.9.5.2 1.2.1 1.2.1zM175.2 417.5c-.4 0-1.2.1-1.6.1-.4 0-.8.3-.3.5.4.3 1.1-.1 1.4-.2.3-.1.5-.4.5-.4z"/><path class="st4" d="M171.2 404c-.4-.2-1.1-.4-1.5-.6-.4-.2-.8-.1-.5.3.3.4 1 .4 1.3.4.4.1.7-.1.7-.1zM167.1 399.5c-.4-.2-1.1-.4-1.5-.6-.4-.2-.8-.1-.5.3.3.4 1 .4 1.3.4.4.1.7-.1.7-.1zM175.2 400.7c-.2-.3-.7-.9-1-1.3-.2-.3-.6-.5-.6 0s.7.9.9 1c.3.2.7.3.7.3z"/><path class="st1" d="M176.6 418.4c-.4 0-1.2.1-1.6.1-.4 0-.8.3-.3.5.4.3 1.1-.1 1.4-.2.3-.2.5-.4.5-.4z"/><path class="st4" d="M172.7 406.4c-.3-.3-.9-.7-1.2-1-.3-.3-.7-.3-.6.2.1.5.9.7 1.2.8h.6zM173 408.3c-.3-.2-1-.6-1.4-.8-.3-.2-.8-.2-.6.3.2.5.9.6 1.3.6s.7-.1.7-.1zM166.5 401.3c-.4-.2-1.1-.4-1.5-.6-.4-.2-.8-.1-.5.3.3.4 1 .4 1.3.4.4.1.7-.1.7-.1z"/><path class="st1" d="M172.8 414.9h-1.4c-.5 0-1-.1-.6.4s.7.5 1.2.3c.5-.3.8-.7.8-.7zM173.2 413.9s-.9-.5-1.7-.4c-.8.1-.8 0-.5.5.3.5.8.3 1.3.3.6-.1.9-.4.9-.4zM179.2 418.4s-1.2-.4-1.6 0c-.4.3-.4.6.3.4.8-.2 1.3-.4 1.3-.4zM178.1 415.2s-1.2-.4-1.6 0c-.4.3-.4.6.3.4.8-.2 1.3-.4 1.3-.4zM190.2 408.7s.4-1.2.1-1.6c-.3-.4-.6-.5-.4.3.2.7.3 1.3.3 1.3z"/><path class="st4" d="M174.8 403.4s-.7-1.1-1.3-1.1c-.5 0-.7.2 0 .5.7.4 1.3.6 1.3.6zM169.2 399s-1-.8-1.5-.7c-.5.1-.6.4.1.5.8.2 1.4.2 1.4.2z"/><path class="st1" d="M180.2 416.8s-1.2-.4-1.6 0c-.4.3-.4.6.3.4.7-.2 1.3-.4 1.3-.4z"/><path class="st4" d="M176.1 405.5s-1-.8-1.5-.7c-.5.1-.6.4.1.5.8.1 1.4.2 1.4.2zM177.8 406.9s-1-.8-1.5-.7c-.5.1-.6.4.1.5.8.2 1.4.2 1.4.2zM169.2 401s-1-.8-1.5-.7-.6.4.1.5c.8.2 1.4.2 1.4.2z"/><path class="st1" d="M182.3 418.1s-1.9.4-1.2.6c.6.2 1.1-.6 1.2-.6zM172.4 418.3s-.7-.2-1.4-.1-1.6.7-.9 1c.7.3 1.4-.2 1.4-.2l.9-.7zM171.9 412.2s-.2-.6-1-.5c-.8.1-1.2.5-.5.5.7-.1 1.5 0 1.5 0zM169 410.8c-1.3-.2-1.9-.3-1.9-.3s-1.6-.3-1 .5c.6.9.3.8 1.4.7 1.1-.2 1.5-.9 1.5-.9zM161.7 408.7c-1.3-.2-1.9-.3-1.9-.3s-1.6-.3-1 .5c.6.9.3.8 1.4.7 1-.2 1.5-.9 1.5-.9zM165.9 412.8s-.2-.1-1-.8c-.8-.6-1.5-1.1-1.5-.2 0 .8.8 1.1.8 1.1l1.7-.1zM162.8 413.3s-.3-.2-1.1-.8c-.8-.7-1.6-1.1-1.6-.3 0 .9.8 1.2.8 1.2l1.9-.1zM169.2 413.8s-.8-.8-1.7-.5c-.8.3-1.5.9-.7 1 .8.1 1.5-.3 1.5-.3l.9-.2zM170.5 412.6s-.1.2-.9 0-1.5 0-.8.3c.7.2 1.2.1 1.2.1l.5-.4zM168.1 412.5s-.1.2-.9 0-1.5 0-.8.3c.7.2 1.2.1 1.2.1l.5-.4zM172.8 414.8s-1.3.8-.7.7c.6-.1.7-.7.7-.7zM170.8 415.6c-.4-.1-1.1.1-1.6.2-.6.1-.5.7 0 .6.6-.1 1.2-.5 1.2-.5l.4-.3zM163.3 416.6c-.4-.2-1.1-.3-1.6-.3-.6-.1-.7.5-.2.6.6.1 1.3-.1 1.3-.1l.5-.2zM168.7 415.8s-3.2-.1-3.3.5c-.2.6.3.4.3.4l3-.9zM165.3 415.6s-1.5.3-1.3.8c.2.5.6.3.6.3s1.2-1.2.7-1.1zM170 417s-1.9-.2-1.5.2c.4.4.2.3.7.2.6-.1.8-.4.8-.4zM168.1 417.6s0-.5-.6-.4c-.6.1-1.4.1-.8.4.5.4 1.4 0 1.4 0zM169.9 414.7s-.1-.2-1.2-.1c-1.1.1-2.1-.1-1.3.5s.4.4 1.4.2c1-.2 1.1-.6 1.1-.6zM165.3 417.3s-.1-.2-1.2-.1c-1.1.1-2.1-.1-1.3.5s.4.4 1.4.2c1-.2 1.1-.6 1.1-.6zM166.1 415.5l.2-.4.2-.3s-1.2-.3-1.3.1c-.1.4-.3.5.1.6h.8zM172.5 416.3s-1.9.3-1.1.8c.8.5 1.2 0 1.2 0l-.1-.8z"/><path class="st1" d="M171.8 416.5s-1.8.7-.9.8c.9 0 .7-.5.9-.8zM174.2 415.3s-1.7.7-1.1.7c.7 0 1.1-.7 1.1-.7zM164.7 409.6l-.7 1.2-.8.1.4-1.1c0-.1 1.2-.3 1.1-.2zM162.9 410.6l.2-.8s-.1-.6-.7-.3c-.7.2-1.2 0-.5.6.6.6 1 .5 1 .5zM162.6 412l.2-.8s-.1-.6-.7-.3c-.7.2-1.2 0-.5.6s1 .5 1 .5zM165.4 414.5l.2-.8s-.1-.6-.7-.3c-.7.2-1.2 0-.5.6.7.5 1 .5 1 .5zM162 404.3s-.5.9-.1 1.5c.5.7.5.8.5.8s-1.3.7-1.8-.6c-.6-1.2 1.5-1.8 1.4-1.7zM163.7 413.5s-.5.9-.1 1.5c.5.7.5.8.5.8s-1.3.7-1.8-.6c-.5-1.2 1.5-1.7 1.4-1.7zM160.4 409.9s-.3.6.1.9c.3.4.4.5.4.5s-.7.5-1.2-.2c-.4-.7.8-1.2.7-1.2z"/><path class="st4" d="M133 402.1s-21.6-5.5-27.6-8.1c-6-2.6-16.7-7.6-20.4-9.7-3.7-2.1-7.9-4.8-7.9-4.8s6.1 2.1 8.6 3.3c2.5 1.1 6.5 2.7 8.5 3.8 2 1.1 7.2 4 9.7 5 2.5 1 10.8 3.5 15 5.1 4.2 1.5 6.9 1.7 8.9 2.3 2 .6 3.6 1 4.2 1.6.4.4 1.1 1.4 1 1.5z"/><path class="st2" d="M128 400.7s.1-.8-.5-1.2c-.6-.4.8.1.5-.6-.3-.7-1.1-1.4-1.3-.9-.1.4-1.4.6-1.4.6s-1.5.4-.8.8.6.6 1.2.7c.7.1 2.3.6 2.3.6zM129.3 398.4l-.5-1.6s-.3-.6.9-.9c1.2-.3 2.8-.4 2.8-.4s-1.1-.4-1.9-.4c-.8 0-2.2.1-2.5.6-.3.5-.7.5-.2 1.4.5 1 1.4 1.3 1.4 1.3z"/><path class="st2" d="M127.3 397.3s-1.4-1.2-.7-1.7 2-1 2-1-2.7.5-3.2.8c-.6.3-.6.6-.1 1s1.3 1.1 1.3 1.1l.7.6v-.8z"/><path class="st1" d="M123 399.3s-.7-.7.3-1c.9-.2 1-.4 1-.4l-2.8-.7s-.4.1-.6.6c-.2.5-.1 1-.1 1l2.2.5zM118.7 398.2l.1-1 .6-.3-3.1-.8-.8-.1.8.1h-.5l-.5.7.7.5c.8.5 2.8.8 2.7.9zM114 396.9s-.7-.7-.3-1c.3-.3.9-.8.9-.8l-2.9-1.1s-1.5-.2-1 .2.4.3.1.6c-.3.3-.1.6-.1.6l.4.4 2.9 1.1zM109.2 395.2s-.7-.9-.2-1.1c.5-.2.6-.6.6-.6l-4.4-1.8s-.6.7.3 1.6c.8.8 1.3 1.2 1.3 1.2s1 .4 1.5.5c.4.1.9.3.9.2zM102.6 392.5s-.6-.8.1-.6c.6.2 1.3.1 1.3.1s-.6-.3-1-.7c-.4-.4-.8-.6-.8-.6s-1.5-.7-2-1c-.5-.3-1.4-.6-1.4-.6s.2.7.8 1.4c.6.6.4.5 1.2 1.2.8.7 1 .7 1.3.9.4 0 .6-.3.5-.1zM98.4 390.5s-.5-.9-1.3-1.5c-.7-.6-1.2-1.2-.7-1 .5.2.4 0 .4 0s-1.3-.8-2.2-1.2c-.9-.4-1.7-.8-1.7-.8s-1.4 0-1.5.4c-.1.4-.6.7.3.7.9 0 .6 0 1.8.5 1.2.5 1.9.9 1.5 1-.5.1-.4.4-.4.4s.8.4 2.1 1.1c1.2.7 1.7.4 1.7.4zM90.5 384.9s-1.4 0-1 .4c.3.4 1.5 1.2 1.5 1.2s-1.5-.8-1.9-1.2c-.5-.3-1-.9-2-1.2-1-.3-.8-.1-2.2-.8-1.4-.7-2.2-1.2-2.2-1.2s1.6.6 2.5.8c.9.2 1.4 0 1.4 0s.5.3 1.7.8c1.3.5 2.2 1.2 2.2 1.2zM83.6 378.9s1.9 1.9 1 1.3c-.9-.6-2.1-1.4-2.7-1.7-.6-.3.7 1.2.7 1.2s-5.4-3.6-6.3-4.3c-.9-.7-2-1.6-2-1.6s3.4 1.9 5.9 3.3c2.5 1.3 3.4 1.8 3.4 1.8z"/><path class="st1" d="M88.8 382.1s0 .4-1.4-.3-1.1-.6-1.8-1-1.1-.5-1.1-.5 2.8 1.6 2.2 1.5c-.5-.1-.9 0-.9 0s.8.6 1.7 1c.9.4 1.8.8 2.3 1.1.5.3.4 0-.2-.5-.6-.4-.9-1-.4-.8.5.2.4-.2 1.3.4.9.6 1.2.6 1.2.6s-1.3-1-.9-1 .6-.1.6-.1-1.1-.5-1.7-.8c-.6-.3-1.3-.4-1.1-.1.3.3.2.5-.4.1-.6-.4-.6-.8-.6-.8l-.6-.4-1.5-.7 1.4 1.2c.8.6 1.7 1.4 1.7 1.4s.3-.2.2-.3z"/><path class="st1" d="M93 385.7s1-.1.4-.4c-.6-.3-.3-.1-1-.5-.6-.5-1.6-1.5-.7-1 .9.6 1.7 1.2 2.4 1.5.7.3 1.9.8.8-.1-1.2-.9-1.6-1.4-1.6-1.4s1.1.8 1.7 1c.5.2.8-.4.8-.4l4.4 2s-1.4-.2-1.9-.4-1.7-.3-1.1 0c.6.3 1.5 1 1.5 1s-1.3-.4-1.9-.8c-.7-.3-.8-.1-.8-.1s.1.1 0 .5c0 .4-.4.4-.4.4s-.9-.4-1.5-.7c-.6-.2-.9-.5-1.1-.6zM99.4 388.8s.1-.4-.5-.9-1.3-1-.4-.7 1.6 1.1 1.8.7c.3-.4-.6-.9.4-.5 1.1.4 1.4.3 1.4.3l.4-.1s1.3.5 2.2.9c.9.3 2 .7 2 .7s-.8-.1-1.4-.1c-.7-.1-1.3-.1-.7.2.6.4 1.5 1.3.2.6-1.3-.7-1.8-1.2-2.1-1-.3.3-.9.1-.3.6.6.5.5.7.5.7s-.9-.2-1.7-.6c-.8-.2-1.8-.8-1.8-.8z"/><path class="st1" d="M109.2 392.9s-1.5-.3-1-.9c.4-.6 1.1-.6 1.6-.5.4.1 1.6.8 1.6.8s.5-.1-.1-.5c-.7-.3-1.9-.5-.3-.6 1.7-.1-2.4-1.3-2.4-1.3s-.1.5-.4.4c-.3-.2-.4-.8-.9-.4s-.2.7-.8.6c-.6-.1-.7 0-1-.2-.3-.2-1-.6-.8.1.2.7.3.9.3.9l4.2 1.6zM114.6 395.1s-.5-.6 0-.7c.5-.1.4-.3 1-.2.6.1 1.3 0 .8-.2s-1.5-.7-.6-.6c.9.1 2 0 2.3-.2l.3-.2s-3.7-1.4-3.7-1c.1.4-.1.8-.5.4-.4-.3-1.7-.7-1.5-.4.2.2.5.4.1.6-.5.1-.2-.7-.8.1-.5.8-.5.5-.9.7-.4.2-.1.5-.1.5s3.7 1.2 3.6 1.2zM120.3 397s-.4-.8.4-1.3c.7-.5 1.2-.8 1.8-1.1.6-.3.7-.4.7-.4l-2.7-.7s.3.6-.5.5c-.8-.1-2 0-1.6.3.4.3.4.6-.1.4-.5-.1-.7.1-.7.1l-.6.9s.8.5 1.6.7c.4.2 1.8.7 1.7.6z"/><path class="st2" d="M124.8 398s-.2-.5.3-.5c.6 0 1.6 0 .8-.4s-.6-.6-1.3-.9c-.8-.3-1.5-1.4-1.7-.4-.3 1-.6 1.2-.6 1.2l-.3.3 2.8.7z"/><path class="st2" d="M124.6 394.4s-1.4.5-1 .7c.3.2-.1.8.9.3s1.2-.8 1.2-.8l-1.1-.2zM122 401.8s-3.7-3.4-4.4-3.9c-.6-.5-1.2-.3-1.4-.6-.8-.3-2.8-1.2-5-2-2.2-.7-6.8-1.7-6.8-1.7s3.2 3.1 5.6 3.9c2.4.8 4.5 1.1 4.5 1.1l-4.4-.7s4.5 2.4 6.8 2.9c2.1.8 5.3.9 5.1 1zM123.2 402.9c-.3-.1-1.5-1-2.9-1.3-1.4-.3-1.9-.3-3.9-.7-2-.4-4.9-.6-4.9-.6s4.1 2.2 6 3.3c2 1.1 3 1.3 4.2 1.6 1.2.3 1.5.5 2.4-.2.9-.7 0-1.2-.9-2.1z"/><path class="st1" d="M112.6 398.1s-.6-.9-1.2-1.4c-.7-.5-.6-.6-1-.8-.4-.2.2-.2-.6-.5s-3.8-1-3.8-1 1 1.2 2.9 2.1c1.7 1 3.7 1.5 3.7 1.6zM112.6 400.5l1.6.2s1.4.8 2 1.3c.6.4 1.8 1.3 1.8 1.3s-.4.1-1.2-.4c-.7-.5-1.4-.8-2.2-1.3-.7-.5-2-1-2-1.1zM119.8 404.2s1.8.5.3-.3c-1.4-.8-1.6-.7-2.2-1.2-.6-.5-2.2-1.3-2.2-1.6 0-.3 2.1.6 2.1.6s4.2 2.5 4.5 2.8c.3.3-.8.2-1.2.2-.4 0-1.4-.5-1.3-.5z"/><path class="st2" d="M130 398.7s-5.3-.9-8.7-1.8c-1.9-.5-7.1-2.1-12-3.9-3.9-1.5-7.6-3.1-8.9-3.7-3-1.3-9.7-4.6-10.9-5.2-1.2-.6-2.4-1.2-2.4-1 0 0 15.9 8 22 10.2 6 2.2 12.2 4.3 16.3 5.2 4.1.9 6.3 1.7 6.3 1.7s-1.9-1.5-1.7-1.5z"/><path class="st4" d="M116 300.5s-.9-.3-1.4-.7c-.6-.4-1.3-.3-1.2.3.1.5.3.9 1.2 1.8.9 1 1.5 1.4 2.4 2.2 1 .8 0-.7-.6-1.4s-1.7-1.6-1-1.6c.7.1 1.1.2 1.1.2l-.1-.4s-.4-.6-.4-.4z"/><path class="st4" d="M117.9 303.1s.6 1.2 0 .9c-.6-.4-.8-.8-.8-.3s-.1.5.6 1.1c.7.7.8.6 1.3.5.5-.2.9-.2.5-.7-.4-.4-1.6-1.5-1.6-1.5zM122.5 307.9l-1.4-1.6s-.6.4-.8.6c-.2.2-.3.4-.8.3-.5-.1-.9-.2-.9-.2s.6.8 1.2 1.4l1.1 1.1s.4.2.4-.5-.9-1.2-.2-1c.7.2 1.2.4 1.2.4l.2-.5z"/><path class="st4" d="M118.9 306.7s0-.5-.3-1-.5-.9-.5-.9l-2.2-2s.1.4.4 1.1c.4.7 1.2 1 1.3 1.5v.7l1.7 1.6c-.1.1-.4-1.1-.4-1zM121.4 310s.7.2 1.2-.1c.6-.3.8-.9.8-.9l1.6 1.7s-.1.4-.6.4-.6-.1-.8.4l-.2.5s-1-.9-1.4-1.3c-.3-.4-.6-.7-.6-.7zM125.7 311.7s0 .8-.6 1c-.5.1-1.1 0-1.1 0l1.3 1.5s.8-.2 1.3-.4.6-.6.6-.6-1.4-1.6-1.5-1.5zM128.5 314.8l-2.1.1.7 1h2.3s-.9-1-.9-1.1zM130.4 317.1s-1 .2-1.4.2h-.4l1.1 1.3s.7-.2.9-.1c.3.1 1.1.1 1.1.1l-1.3-1.5zM132.6 319.3l-1.9.2.9.9c.4.4.7.4.7.4l1.4-.1c0 .1-1.1-1.4-1.1-1.4zM134.7 321.6l-1.8-.2v.3l1.2 1.1s.6-.1 1.1-.1c.5 0-.5-1.1-.5-1.1z"/><path class="st4" d="M141.4 329.6s-4.3-5.1-4.6-5.5c-.3-.4-1.1-.8-1.1-.8l-.7-.3-.6.1s-4.5-4.2-7.6-7.7c-3.2-3.5-8.2-8.3-9.8-9.9-1.7-1.6-4.2-4.2-4.5-4.4-.2-.1 3.7 4.1 4.5 4.9.8.8 7.2 7.3 8.2 8.4 1 1.1 4.2 4.1 4.6 4.7.4.6 2.3 2.2 2.7 2.7.4.4-.1 0-.5.2s-.6.5-.6.5 0 .4.1 1.2c.2.8.6 1 1.3 1.7.7.7.9 1 1.6 1.2.7.3.6-.4 1.7 0s2.1.7 1.6.9c-.4.1-.6.3-.9.4-.3.1-1.1.2-.7.5.5.3.6.8 1.1.5.6-.3.4-.6 1-.3.6.4.9.7 1.4.9.5.2.8.3 1.2.3.4 0 .6-.3.6-.2z"/><path class="st4" d="M142.4 331.1s-.1.2-.8-.2c-.8-.4-.7-.5-1-.8-.4-.3-.4-.6-.4-.6s-.2.3-.7.6c-.5.3-.3.2-.9.1-.6-.1-1.3.1-.7.5.6.4 1.2.9 1.2.9s-1.1-1.3.7-.5c1.9.7 1.8.7 2.6.8.8.1 1.3.2 1.3.2s-1.3-1.1-1.3-1zM144.5 333.1c-.5 0-.6.1-1.3-.3s-.8-1.1-1.4-.6c-.6.4-.3.3-1 .2-.6-.1-1-.5-.9.1.1.5 0 .8.4 1 .4.2.2.6 1.4.5 1.2-.1 1-.6 1.7-.1s.7.7 1.2.6c.5-.2.5-.4.5-.4l-.6-1zM131.4 322.4s-1-.2-1-.7c0-.5.4-1 .4-1l.1-.4-1.3-1.4s-.2.9-.6 1c-.5.1-.4.3-.9-.2s-.8-1.1-.8-1.1.4-.3.9-.3c.5.1.6-.2.6-.2l-1.5-1.7s-.8-.2-.7.1c.1.4.6.8.1.7-.5 0-.7-.2-.9.2-.2.4-.7.4 0 .8.6.4 1 .6.8.8-.2.2 0 .6.5.9.5.3 3.3 3.3 3.9 3.7.5.4 1.1.6 1.1.6l-.2-1.6c-.1.2-.4-.4-.5-.2zM124.9 318s-.3-.3-.1-1.4c.2-1.1.4-1.5.7-1.3.4.2.6-.1.6-.1s-1.1-1.4-1.4-1.5c-.3-.1-.7.2-1 .9-.3.6-.1.5 0 1.1.1.6.2.8 0 1.1-.2.3-.3.5-.1.7.2 0 1.3.5 1.3.5z"/><path class="st4" d="M124.2 313.2s-.9.5-1.2.8c-.3.4-.2.7-.7.7-.5 0-.9-.2-1.5-.3-.6-.1-.6-.2-.6-.2l1.6 1.3s.7-.3 1.4-.2c.6.1 1.2.3 1.3-.3.1-.6.1-1.2.1-1.2l-.4-.6zM122.8 311.7s-.5.8-.8 1.2c-.3.5 0 .6-.7.5-.7 0-1.4.1-1.8 0-.4-.2-1.4-1.1-1.4-1.1s1.8-.4 2.2-.7c.3-.3.3-.3.6-.8.3-.6.3-.7.3-.7s1.6 1.5 1.6 1.6zM119.9 308.9s.1.6-.6.7c-.6.1.3 0-.9.4-1.3.3-1.6.2-1.6.5-.1.3-.1.6-.1.6l-1.8-1.7s1.2 0 2-.5.6-.4.9-1c.4-.6.5-1 .5-1l1.6 2zM116.8 305.7s-.4 1-1.1 1.2c-.7.2-1-.4-1 .3s.1 1.1-.1 1.3c-.2.2-.6.1-.6.1l-1.7-1.7c-.4-.4-.5-.7-.5-.7s.5-.5 1.2-.3.9.2 1.1-.3c.2-.5-.2-.1.5-.5.7-.3.8-.7 1.3-.3.5.4 1.1.9.9.9zM113.6 302.4s-.4 1.4-1.1 1.4c-.6 0-.6-.1-.9.3-.2.4-.5 1.2-.5 1.2s-.6-.3-1.2-1.3-1-1.8-1-1.8l1.3.3s-.6-.2.4-.8c1-.5.7-.7 1.3-.5.6.2 1 .3 1 .3s.8 1 .7.9zM108.5 301.7s-.4-.2.1-1 1.3-2 1.3-2-.3-.4-1.1-.8-1.3-.5-1.4.2c-.1.6 0 .7-.7.5-.7-.2-1-.1-1.3-.5-.3-.4-.7-.8-.3-1.3.4-.5.8-.3 1-.9.1-.6-.5-.9-1.1-1.6-.6-.7-1.6-1.4-1.6-1.4s.7 1.6.8 2.2c.1.6-.1.7-.8.4-.7-.3-.9-1-1.4-2-.4-1-.4-1.3-.8-1.8s-.8-.7-1.4-1.1c-.6-.4-.9.2-.9.2s1.2 1.4 1.7 2.5c.5 1.2.8 1.8 1.5 2.5.7.6 1.3 1.4 1.3 1.4s1.7 1.3 2 1.5c.3.2.6 1.4 1.6 2.2.9.8 1.5.7 1.5.8zM100.8 297.2s-.1-.4-.8-.8c-.6-.4-.7-.3-.7.6 0 .9 0 .8-.1 1.5s-.3.7-.7.6c-.4-.1-1.3-.6-1.4-1.3-.1-.7.3-.6-.5-1.2-.8-.7-.8-.3-.7-1.2 0-.9.8-1.2 0-1.6-.8-.4-1.7-.1-1.7 1s.3 1 .8 2 .1.8.7 1.3.9 1.1 1.9 1.5c1 .5.2 0 .8.7.5.7.4 1 1 1.3.6.4 1.4.6 1.2.2-.2-.5.1-.2-.4-1s-1-.8-.7-1c.4-.2.3.1 1.1-.3s1.3-.9.8-1.4c-.5-.4-.6-.9-.6-.9zM105.4 302.6s0-.5.1-.8c.2-.3.4-.8-.2-.9-.6-.1-.8.2-1.4.3-.6.1-.7-.3-1 .4-.3.7 0 1-.6 1-.6-.1-.8-.1-1 .1-.1.2.3 1 .8 1.7.6.7.6 0 1.1.5.5.5.1.6.8.9.6.4.7.6.8 0 0-.6.1-.8-.2-1.3-.3-.6-.5-.8.2-.8s.9 0 .8-.4c-.2-.5-.2-.7-.2-.7zM108.7 307.6s.9-.1 1-.7c.1-.6.1-.9.2-1.2.1-.3-.3-.9-.8-1.1s-1.3-.2-1.5.5c-.2.7-.2.9-.7 1.3-.4.4-.9.3-1 .9-.1.6.2 1.1.7 1.3.5.2.7.1 1.1.5.4.5.6.6.9.2.3-.3.4-.5.2-.9s-.1-.8-.1-.8zM112.8 310.8s.2-.7.6-.8c.4-.1.4-.3.5-.6.1-.3.3-.4-.1-.7-.4-.3-.8-.7-1.3-.8-.5-.1-1.1 0-1.1.7.1.7 0 .7-.3 1-.3.3-.4-.1-.8.4s-.9 0-.6.8c.3.8 1.1 1.3 1.4 1.4s.2-.4.8-.3c.6.1.5.1.8-.2.2-.4.1-1 .1-.9zM117.6 312.1s-.5-.4-.8-.7c-.3-.2-.7-.8-1-.4-.3.4-.8.7-1 1.3-.2.6.1.9-.6 1-.6.1-1.4.2-1.4.2s.9.7 1.6 1.1c.7.3 1.1.4 1.6.2s.9-.3.8-.8c-.1-.5-.4-.6.1-1 .6-.4.7-.6.7-.8.2 0 .1-.2 0-.1z"/><path class="st4" d="m120.8 314.7-1.2-.6s-.6.7-1 1.2-.6.6-1.1.7c-.5.2-1.7-.2-1.4.2.3.5.5.9 1.1 1 .6.1 1.6.1 2.3-.3.7-.4.1 0 .8-.5.7-.5 1.1-1 1-1.2 0-.2-.4-.5-.5-.5zM124.2 318.2c-.1-.2 0-.1-.7-.5s-1-.9-1.1-.5c-.1.4 0 .8-.6 1.1-.6.3-.2.6-.8.3-.6-.3-1.4-.6-1.1 0 .3.6.3.6.9 1 .6.4 1 .4 1.4.5.5.1.4-.1.9-.5s.3-.6.8-.6.7-.1.6-.4c-.1-.4-.3-.4-.3-.4zM127 320.5c-.7-.6-1-1.1-1.5-.6s-.2.2-.9.6c-.7.5-.3.5-1.1.4-.8-.1-1.3.1-.7.5.5.4 1.3.8 1.9 1 .6.2 1-.1 1.6-.5.6-.3.7-.2 1-.7.2-.3-.3-.7-.3-.7zM129.7 323.2c-.6-.3-.6-.3-1.4-.1-.8.2-1.1-.6-1.4.2-.2.8-.3 1.1.2 1.2.5.1.5-.2 1.2-.2s.6.1 1.1-.2c.5-.3.7-.2.6-.5-.2-.2-.3-.4-.3-.4zM130.7 324.6c-.5.2-.4.2-.8.4s-1 .1-1.1.4c-.1.2.6.5 1 .7.5.2.3.1.8-.1.5-.3.4-.7.9-.6s1 .2.7-.2-.3-.6-.7-.7c-.5.1-.8.1-.8.1z"/><path class="st4" d="M133.4 326.5c-.3.4 0 .5-.8.5s-1.2.2-1.1.8c.1.6 0 .7.4.9.4.3.9.2 1-.2.1-.4.1-1 .7-.8.6.2.6.6.9.2.3-.4.2 0 .3-.6.1-.6.5-1 .2-1-.4-.1-1.6-.7-2.1-1.1-.5-.4-3.9-3.3-4.6-4l-1.5-1.5c-.2-.2-.3-.4-1-.9-.7-.4-.7-.4-1.3-.8-.6-.4-.7-.3-1.2-.8s-1.1-.8-1.3-1-.5.2.3.7c.7.6 2.5 1.8 3 2.3.5.5.5.7.9 1.1.4.3 1.2 1.5 1.7 1.8.5.3.8.6 1.1 1 .3.4 1 1.1 1.6 1.6.6.4 1.5.8 1.9 1.2.7.5 1 .6.9.6zM136.6 329.2c-.6-.5-.6-.6-1.1-.2-.5.4-1 0-1.2.9-.2.8-.1 1 .4 1.3.5.3 1.2 0 1.6-.5.4-.5.5-.4.5-.8s-.3-.6-.2-.7zM138.7 332.4c-.3-.4 0-.4-.6-.7-.6-.4-.8-1-.9-.3-.2.7-.1.5-.4.8-.4.3-.6.5-.4 1 .3.5.8.7 1.2.7.5-.1.7-.1.9-.6.2-.5.1-1 .2-.9zM100.4 305c-.2-.4.2-.2-.2-.8-.4-.6-.5-.8-.9-.8s-.9-.2-.6.6c.3.8.1.6.6 1s.5.3.8.3c.3 0 .3-.3.3-.3zM98.7 307.6c-.4-.4-1.3-1.6-2.2-2.4-.8-.8-1.2-.7-1.6-1.4-.4-.7-.3-.7-.7-1.6-.4-.9.1-1-.8-1.5-.9-.4-1.4-.2-1.1.9.3 1.1.6 2.2 1.6 2.8 1 .6 1 .6 1.5 1.4.5.8 1.1 1.5 2.4 2.3 1.3.8 1.5 1 2.2 1.7.7.7.2.7.8 1.1.6.4.8.3 1.2.7.4.4 1.1.5 1.1 0-.1-.5-.5-.6-.6-1.1 0-.4.6-.2-.4-.9-1.1-.7-.8-.4-1.6-.8-.7-.4-1.8-1.2-1.8-1.2zM102 309s.4.2.7-.1c.3-.3.6-.2.4-.9-.2-.7.1-.3-.4-1s-.2-.8-.7-.7c-.5.1-.9.3-.7.8.2.6.2.3.1.8-.2.6.6 1.1.6 1.1zM107.2 312.7s-.1-.5.3-1c.4-.4.8-.7.6-1.1-.2-.5-.5-.6-1.1-.9-.6-.3-.7.1-1.1.8-.3.6-.1.9-.7 1.3-.5.5-.2.5-.7.5-.6 0-.7.1-.6.5.2.5.3.5.9 1.1.6.6.7.8 1.2.8s.5-.2.9-.5.6-.2.5-.7-.2-.8-.2-.8zM112.2 314c-.1-.4 0-.5-.5-.8-.6-.3-.7 0-1.2.4s-.8.6-1 1-.2.3-.7.4c-.5 0-.6-.4-.9.1-.3.5-.6.6 0 1.2s.9.8 1.8.8 1.8-.6 2.1-1.1c.3-.5.1-1 .3-1.3.1-.3.1-.7.1-.7zM116.2 317.2s-.4-.5-.9-.8c-.5-.3-.9.3-1.2.8-.3.5 0 .4-.5.7-.5.2-1 .3-1.2.7-.2.4.1.9.7 1.1.6.2.7-.1 1.1.2.4.3 1.3-.1 1.6-.5.3-.3.3-.6.3-1.1 0-.5.1-.4.2-.8 0-.2-.1-.4-.1-.3zM120.3 320.3c0-.2-.1-.5-.7-.8-.6-.3-.7-.7-1.2-.3-.4.4-.4.8-.5 1.3-.1.5-.1.4-.6.7-.5.3-.8.4-1.2.4-.4 0 .5 1.2 1 1.2s1.3-.3 1.8-.7c.5-.4.7-.6 1-1 .3-.4.4-.9.4-.8zM124.1 323c-.9-.5-1.1-1-1.6-.6s-.1.9-.7 1.1c-.6.2-.7.3-1.2.6s-1.2.1-.8.7c.4.5 1 .9 1.6.6.5-.3 1.3-.4 2-1.1.5-.8.7-1.4.7-1.3zM123.7 327.5s.2-.7.7-1c.5-.3.4-.4 1-1 .5-.6.4-.9 1.2-.7.8.2.6.7 1 1 .4.3.6.1-.1.9s-.7.7-1.5.8c-.8.1-.4.4-1 .4-.5.1-1.2-.4-1.3-.4z"/><path class="st4" d="M130.9 327.5s-.2-.6-1-1.3c-.8-.7-.9-.6-1.7-1.1-.8-.5-.2-.3-1-.8s-.8-.2-1.7-.9c-.9-.7-1.7-.8-.8-.3.8.6 1.2 1.2 1.8 1.7.6.5.8 1 1.4 1.4.5.4.5.3-.1 1s-.8 1.2-.5 1.6c.2.4.4.6.9.8.5.2 1.1.3.7-.3-.4-.6-.9-1.2-.3-1 .6.2 1.1.8 1.1.3 0-.4-.9-.8-.5-1.1.4-.2.3-.3 1 .1s1 .7.9.3l-.2-.4zM132.4 329.5c-.5-.5-.7-.7-1.1-.7-.4 0-.4.2-.8.7-.4.5-.1.2-.6.7-.5.5-.4.7 0 1.2s.7 1 1.1.8c.4-.3.3-.4.7-1 .4-.6.7-1.7.7-1.7zM134.9 332.8c-.1-.8.4-.7-.3-1.1-.7-.4-1.1-.3-1.5.3-.4.6-.8.2-.7 1 .1.8.4 1 .9 1.1.5.1 1 0 1.2-.4.4-.5.3-.8.4-.9zM137.4 334.5c-.3-.3-.5-.9-1-.5s-.4-.1-.8.6c-.3.6-.5.8-.1 1.2.4.4.8.4 1.3.4s.6 0 .9-.6c.3-.5.7-.7.3-.8s-.8-.3-.6-.3zM101.1 315.8c-.1-.1-1.4-1.2-2.3-2.2-.9-1-1.2-1.2-1.9-2-.6-.9-.8-.6-.9-1.4-.2-.8-.5-1.7-1.2-2.1-.7-.4-1.6-.1-1.1 1 .4 1 1.7 2.7 2.7 3.9 1 1.2 2 2.2 4.2 3.6s2.6 2 3 2c.4-.1.9-.5.4-.8-.5-.3-1.1-.7-1.2-1.4-.1-.7-.3-1.2 0-1.7s.6-.7.1-1.1c-.5-.4-1.7-1.1-1.5-.6.2.5.7.5.3 1.1-.4.6-.5.7-.6 1.2.1.4 0 .5 0 .5zM108.2 317.3c-.5-.4-.8-.6-1.4-.9-.6-.3-.5.3-.7.9-.1.6-.1.4-.6 1.2-.5.7-.9 1-.5 1.2.4.3 1.2.3 1.8.6.6.3 1.5.5 1 .1-.4-.4-1-1.3-.4-1.2.5.1.8.5.8-.1s-.2-.5-.2-.9c.1-.5.2-.9.2-.9zM112.9 320.4c-1.1-.6-1.5-1.1-1.9-1.1-.4 0-1.1.5-.9 1.3.2.7.4 1.1-.1 1.1s-.9-.5-.8.1c.1.6.6 1.1 1.1 1.1.5 0 .7 0 1.3.1.5.2 1.3 0 1.1-.5-.2-.5-.4-.6 0-1 .2-.2.2-1.1.2-1.1zM117.3 323.5c-.6-.5-1.4-.9-1.7-1-.2-.1-.5.9-1 1.3-.5.5-.8.4-.8.9s-.5.7.2 1c.6.3 2.1 0 2.6-.4s.5-.3.7-.9c.3-.6 0-.9 0-.9zM121.3 326.2s-1.1-.8-1.5-.7c-.4 0-.4.3-.8.9-.4.7.1.6-.7.8-.8.3-1 .4-1.2.5-.1.1.5.5 1.1.6.6.1 1.5.1 2-.2.5-.3.3 0 .8-.6.4-.6.2-1.3.3-1.3zM125.8 329.1c-.2-.1-1-.7-1.7-1.2-.8-.5-1.7-1.3-1.4-.8.2.5 1.1.7 1 1.3-.1.6 0 .6-.5 1.1-.5.5-.5.6-1.1.7-.6.1-1.3-.2-.8.3s1.5 1 1.9 1c.4 0 1.7-.5 2.2-.9.4-.4.3-1.4.4-1.5zM128.6 330.8c-.2-.1-.1-.1-.9-.7s-1.7-1.2-1.3-.7c.4.4 1.4.9 1.2 1.4-.2.5 0 .7-.6 1-.6.3-1.1.4-1.1.9s-.2.5.5.8c.7.3 1.4.5 1.6.7.2.2 1.2.8.7.1-.5-.7-1-1.1-.5-1.7.5-.6.7-.7.7-1.1-.1-.4-.3-.6-.3-.7zM131 333.1c-.4-.5-.8-.9-1.1-.7-.3.1-1 .2-.7 1 .3.7 0 .8.4 1.1.4.3.5.6.8.5.3-.1.5 0 .6-.7.3-.8 0-1.1 0-1.2zM133.9 335.1c-.5-.3-.6-.8-.9-.3-.4.5-.3.6-.3 1.1 0 .5.1.7.4 1 .4.3.6.4 1-.1s1-.4.6-.8c-.4-.6-.9-1-.8-.9zM136.2 336.9c-.3.3-.9.9-.8 1.2.1.3.9.7 1.2.9.3.2.6-.1.9-.6.3-.5.8-.5.1-.9-.7-.4-1.4-.6-1.4-.6zM101.2 321.3s-1-.7-1.6-1.4c-.6-.7-.6-.5-1.1-1.7-.5-1.1-.5-1-.8-1.5-.4-.4-.1-.9-.6-.9-.5-.1-1.4 0-.5 1.8.9 1.8.3 1.7 1.6 2.6 1.3.8 1.1.8 2.1 1.5s2 1.6 2.7 1.8c.6.3.7-.1.4-.8-.3-.7-.4-.8.1-1.3.4-.5 2 .3.6-.9-1.4-1.3-1.3-.9-1.3-.6.1.3.3.2-.2.8-.6.6-.6 1-.6 1s-.7-.3-.8-.4zM107.5 322.8c-.3-.3-1-1-1.5-.3s-.2.3-.7 1.1c-.5.8-1.2.8-.5 1.3s1.3.4 2.2 1.1c.9.7 1.3 1.1 1.1.4-.2-.8-.2-1.3-.5-1.9s-.4-.8-.3-1.1c.3-.3.2-.7.2-.6zM113.1 326.2c-.5-.5-.9-1-1.3-1s-.9.4-1.2 1c-.3.6-.5.4-.8 1-.3.7-.9.7 0 1 .9.3 1 .5 1.5.7.6.3.9.6 1.3 0s1.1-.5.7-1.2c-.4-.7-.7-.5-.5-.9.3-.4.3-.7.3-.6zM118.1 329.1c-.4-.3-1.8-1-1.8-1s-.2 1.1-.6 1.7c-.4.6-1 1-.7 1.2.3.2.4.2 1.1.5.7.3.8.3 1.1-.1.3-.4.6-.7.8-1.4s.1-.8.1-.9zM122.2 331.8c-.5-.3-1.2-.8-1.5-.9-.4-.1-.7-.5-.8.3-.2.8-.1.8-.4 1.3-.3.5-.8.7-.5.9.3.2 1.8.4 2.5.1.7-.2.8-.2 1.1-.8.2-.5-.4-.9-.4-.9zM125.3 333.7c-.2.3-.6.7-1 .9-.4.2 0 .1-.6.3-.6.2-.9.5-.5.8.4.3 2.6.5 3.2 0 .6-.5.9-.4.9-.9.1-.5.7-.2-.2-.6-.8-.4-1.7-.4-1.8-.5zM130.3 335.8c-.6-.4-1.3-.3-1.3-.3s-.1.8-.7 1.2c-.6.4-1.6.7-1.4 1 .2.3 2 1.2 2.6.8.6-.4.8-.9.9-1.4.1-.6-.2-1.4-.1-1.3zM132.8 337.6c-.2-.1-.2-.4-.8-.6-.6-.1-.9.1-.8.7.2.5.2.5-.2.9-.3.4-.6.5-.3.9s.5.3.8.6c.3.3.8.3 1.1.3.3 0 .6-.4.6-.8 0-.5.4-.7 0-.7s-.3-.2-.4-.5c-.2-.4 0-.8 0-.8zM136.1 339.7c-.6-.5-.4-.4-.9-.7-.5-.3-.6-.4-.6.4.1.8.3.7 0 1.2s-.4.6-.6.9c-.2.3-.7.4 0 .6.8.3 1.3.5 1.4.7.1.1-.2-.3.1-.7.3-.4.6-.6.7-1.3 0-.7-.1-1.2-.1-1.1zM107.4 330c-.3-.3-2-1.5-3.1-2.1-1.1-.6-.8-.2-1.8-1.2s-1.3-.9-1.7-1.7c-.4-.8-.2-.7-1-1.2s-1.1-1-1.5-.6-.2 1 .6 2.1c.9 1 1.9 2 3.9 3.5s2.3 1.5 3.1 2.1c.8.5.8.6 1.2.2.5-.5.3-1.1.3-1.1zM110 330.8c0-.6 0-1.5-.4-1s-.2.9-.5.9c-.3.1-.4-.6-.7.2-.3.8-1 .7-.3 1.1.7.4 1.2.2 2.2.8.9.6 1 .7 1.4.7.4 0 .9-.3.4-.7-.4-.4.3.2-.5-.6-.7-.8-.4-.7-.9-.8-.5 0-.7-.6-.7-.6zM114.6 334.9s1.7.4 1.9-.5c.1-.9.6-.9-.2-1.6-.9-.7-1.2-1.1-1.5-.7-.3.4-.5.7-.4.8.1.1.7.4.3.9-.4.5-1.1.4-.6.8.4.3.5.3.5.3zM121 335.2c-.2-.1-1.1-.8-1.7-.9-.6-.1-.5.2-.8.7-.3.5-.5 0-.6.6 0 .6-.1.5 0 1.1.1.6 1.8.6 2.3.5.6-.2.6-.3.8-.9.4-.6 0-1.1 0-1.1zM125.3 337c-.2-.1-.5-.2-1.3 0s-1.1.2-1.1.8c0 .6-.3.5-.1 1 .1.5 1 .6 1.9.4.9-.3.8-.4 1.1-.9.4-.6-.5-1.3-.5-1.3zM130 339.2c-.4-.2-.4-.5-.9-.4-.5 0-.8.1-.9.6-.1.5-.2.7-.5.9-.3.2-.9.2-.3.8.6.5 1.5.5 2.2.3.7-.2.9-.1 1-.7 0-.6.2-.5-.1-.9-.3-.3-.5-.5-.5-.6z"/><path class="st4" d="M132.8 341c-.1-.4 0-.4-.4-.5-.4-.1-.2-.3-.5-.2-.3.1-.6.3-.5.7.1.4.1.4.4.6.2.2.3.5.6.1.4-.3.4-.7.4-.7zM134.9 342.1c-.2-.1-1.3-.3-1.3.1.1.4.8.7.9 1.4 0 .8-.1.8.1 1.4s.6 1.1.9 1c.3-.1.4 0 .1-.7-.3-.7-.6-1-.1-1.2.5-.2.9-.2.9-.6 0-.3.2-.4-.4-.7-.5-.3-1.1-.6-1.1-.7zM107.1 335.8c-.3-.2-2-1.5-2.8-2.2-.8-.7-.5-.5-1.5-1.5s-1.5-1-1.9-.8c-.5.2-1 1.1 0 1.9 1 .9 3.2 2.5 4.4 2.9 1.2.5 1.8.9 2.4 1 .6.1 1.4.4 2.4.9.9.4.9.5 2.7 1.3 1.7.7 2.1.7 3 1 .9.2 1.3.5 1.6.3.3-.2.7-.6.2-.9-.6-.4-1-.5-1.2-.9-.2-.4.5 0-.3-1.2s-.6-.9-1.2-1.3-.9-.1-.4.8.5.6.5 1.3c0 .6 0 .5-.3.7-.4.2-.4 0-1-.2s-1.4-.1-1.7-.6c-.4-.5-.6-.7-1-1-.4-.3-.2-.3-.9-.5s-.9 0-1.4-.1c-.5-.3-1.6-1-1.6-.9z"/><path class="st4" d="M110.7 335.9s.2-.2 0-.9.4-.3-.5-.8c-.8-.6-1-1.1-1.5-.9-.5.2-.8.3-.2.8.5.4.6.5.8.9.2.4-.1.4.6.9.8.5.8 0 .8 0zM121.7 339s-.7-.6-1.1-.6c-.5 0-1 .7-1.1 1.5 0 .8 0 .8.3 1.1.3.2 0 .1-.2.5s-.1.6.6.7c.8.1 2.3 0 2.5-1.1.3-1.1-1-2.1-1-2.1zM124.1 343.3s1.8.3 2.4.1.7 0 1.2-.6c.4-.6.7-.7.3-.9-.4-.3-1.4-.9-1.8-1-.4-.2-1.1-.1-1 .6.2.7.6.6.1.9-.5.3-1.1 1-1.2.9zM129.6 344.7s1.4.2 2 .1c.6-.1.8-.6 1-.9.2-.3.5-.4.2-.9s-.6-.9-1-.6c-.4.2 0 .3-.7.2-.7-.1-1.1.1-1 .5.1.4 0 .7-.2 1-.3.4-.3.7-.3.6zM118.3 343.2c-.4-.3-.4-.6-1.5-.9-1.1-.3-.6-.1-2-.4-1.4-.3-1.6-.4-2.7-.6-1.1-.2-2-.3-2.6-.4-.6-.1-1.5-.4-1.7-.1-.1.3.5.9 1.1 1 .7.1 2.3 0 3.4.2s2.4.5 3.1.8c.7.4 0 .4 1.1.7 1.1.3 1.3.4 1.5.1.4-.1.2-.4.3-.4zM121.5 346.6c-.7-.1-1-.2-1.7-.6-.7-.4-.8-.7-1.3-.7-.5-.1-.8.1-.8.1s-1.2-.2-1.9-.5-.5-.3-1.2-.4c-.7-.1-.9-.1-2.1-.3-1.1-.2-1.8-.1-1.8-.1s2.3.6 3.1.9c.8.3 1 .2 1.9.6.9.4 1.4.7 2 .6.6-.1.1-.2 1.1.3s1.4.7 1.9.5c.7-.2.8-.5.8-.4zM125.5 346.2s.6 0 1-.6c.4-.5.9-.4.4-.8s-.8-.7-1.3-.6c-.5.1-.4.2-.7.3-.2.1 0-.3-.6.2s-1.2.9-.7 1.1c.5.2.8 0 1.2.2.4.2.7.2.7.2zM125.4 347.1c-.2-.2 0-.6-.8-.6s-.7-.3-1 .1c-.3.4.1.2-.6.3-.7.1-1.4.2-.9.3.6.2.7.3 1.3.3.6.1.7.2.5.4-.3.2.1.5.3.4.3-.1.5-.2.8-.6.4-.3.4-.7.4-.6zM130.2 347.9c-.5-.4-.3-.5-1-.7-.7-.2-.9-.5-.8.1.1.6.5.5.3.9s-.4.7 0 .7.8.1 1.1-.4c.4-.4.3-.7.4-.6zM130.1 346.5s0 .5.2.6c.2.1.5 0 1.1-.2.6-.2.7-.2.9-.5.2-.3.2-.5-.1-.7-.3-.2-.2-.2-.8-.1-.6.1-.5-.1-1 .1s-.6.3-.5.6l.2.2zM132.4 349.6c-.7-.5-.7 0-.9.3-.2.4-.3.4-.1.6.3.2.7.2 1 .1.3-.1.6-.2.5-.5-.1-.3-.3-.2 0-.5s.6-.5.2-.5c-.3 0-.8.5-.7.5z"/><path class="st4" d="M134.3 347.9c-.3-.1-.8-.1-1.1.1-.4.1-.7-.1-.7.4s.2.8.4 1c.2.2.1.7.8.3.7-.4.9-.5 1.1-.6.2-.1.8-.2.2-.7-.6-.5-.7-.5-.7-.5z"/><path class="st4" d="M136.5 347c-.4-.2.2-.3-.8-.3-1-.1-1.1.1-1.2.5 0 .4-.4.8-.2 1 .3.2.8.2 1.2 0 .4-.2.5-.2.7-.5.3-.2.2-.7.3-.7z"/><path class="st4" d="M137.3 345.9c.1-.4.5-.8.6-1 .1-.3.5-.5.1-.7-.4-.1-.6-.2-1 .3-.5.5-.9 1.2-.9 1.5 0 .3-.2.8.1 1 .2.2.9.3 1.1.3.2 0 .3-.5.2-.7 0-.2-.3-.7-.2-.7zM114.9 349.7s2.3-.4 3.4-.4.8.1 2.1.1c1.2 0 .8-.1 2.1-.1 1.4.1 1.7.1 1.8.3.1.2.3.5-.5.4-.8-.1-.9-.3-2.1-.3h-2.2c-1 .1-1 0-2 .1-.9.1-.8.3-1.7.2-.8.1-.8-.2-.9-.3z"/><path class="st4" d="M122.6 348.4c.3.2.5.8.7 1.1.2.3.1.2.8.9.6.7.4.7 1 1.2s.1.4.9.8c.7.4 2 1.3 1.3.5s-.6-.9-1.3-1.4c-.7-.5-.4-.3-.8-.8s-.8-.7-.9-1.1c-.2-.4.1-.4-.3-.7-.3-.3-.1-.3-.5-.4-.7-.2-1-.2-.9-.1zM118.7 350.2c-.1.2.2.6.7.9.5.3.9.4 1.3.7.4.3 1.1.6.7.7-.4.1-1.7-.1-2.5-.5-.7-.4-1.4-1.1-1.1-1.3.4-.2.9-.5.9-.5zM125.5 353.5s-1.8-.2-2.1-.2h-1.5s-1-.1-1.7 0-1.1.2-1.1.2-1.5.1-1.8.3c-.3.2-.8 1-.2 1.4.7.4 4-.8 4.6-.9.5-.1 1.7-.2 2.4-.2h1.5c1.2 0 1.2-.1 2-.1.8.1 1.2.1 1.5.1.3 0-.3-.3-.7-.4-.4 0-1.2-.2-1.7-.2-.6-.1-1.3-.1-1.2 0zM129.7 353.5c.3 0 .9-.2.6-.7-.3-.5-.4-.4-.8-.8s-1-.7-1.1-.8c-.1 0 0-.5.6-.2s1.7.7 2.2 1.6c.4.9.9 1.2.1 1.3-.8.1-1.6-.4-1.6-.4zM127.5 350.3c.3 0 1.3-.6.9-.9-.4-.3-.3-.3-.7-.2-.4 0-.7 0-.6.4-.1.4.4.7.4.7zM127.6 348.8c.2 0 1-.3.1-.8-.4-.2-1.3 0-.9.4.5.4.9.3.8.4z"/><path class="st4" d="M120.9 354.7s2 1.1 2.6 1.6c.6.5.3.2.9.8.6.6.6.9.9.9.4.1.1.3-.5.2-.6-.1-.7-.1-1.3-.9-.6-.8-.5-.9-1.1-1.2-.6-.3-.3 0-1.2-.6-.9-.6-1.9-.8-1.3-.9.6 0 1.1.1 1 .1zM128.4 357.2c-.2-.3.1-.3-1-.9-1-.6-1-.6-1.7-1s-2-.9-1.2-.8c.8 0 1.3.4 1.8.7.5.3.9.6 1.6 1 .7.4.6 0 1 .6s1.1.9.5.9c-.5 0-1-.5-1-.5zM131.8 357.1c.2-.2.4-.2-.1-.8-.5-.6-.5-.5-1.5-1.2-1-.6-2.2-.9-1.5-.8.7 0 .7-.1 1.3.2.6.3.4 0 1.3.8.9.7 1.1.3 1.3 1 .2.7-.7.9-.8.8zM136.1 356.7c0-.4.3-.6-.3-1s-.5 0-.9-.4-.3-.7-.8-.7c-.5.1-1 .3-.7.4.3.2.6.2 1.1.7.4.5.4.4.6.7.2.3.2.6.5.7.2 0 .5-.4.5-.4zM134.7 353.9c-.1-.2-.1-1.4-.5-1.7-.4-.4-.2-.4-.8-.5-.6-.2-.7-.3-.9-.3-.2.1 0 .2.4.6.4.4.7.3.6.9 0 .5-.3.4-.1.8.3.4.4.5.8.4.5-.1.5-.2.5-.2zM136.5 351c0-.3.1-.9-.5-1-.6-.1-.9.3-.7.5.2.3.2.6.5.7.3.2.7-.2.7-.2zM138 353.5c-.1-.2.5-.7-.5-1.1-.9-.5-1.5-.4-1.2-.1.3.3.9.5.7.9-.2.4-.5.6-.4.9.1.4.9.8 1.1 1.4.2.6.7.4.4.9-.3.5-.3.5 0 .7.3.2.5.5.7.6.3.1.9-.4.6-.8-.3-.4-.4-.1-.5-.6-.1-.5.3-.1-.3-.8-.6-.7-.7-.5-.9-.9.1-.5.3-1.1.3-1.1zM140.2 351.9c-1.1-.1-1.4.1-1.1.5.3.3.7.2.9.1.2-.1.5-.2.5-.4-.2-.2-.4-.3-.3-.2zM141.4 353.3c-.3-.3-.3-1.4-.9-.6-.6.8-.4 1-.4 1.3 0 .3 0 .4.3.6.4.2.2.2.7.3.5.1.8.1.9-.3 0-.4.2-.5-.1-.8l-.5-.5zM141.9 355.4c-.4-.1-.9-.5-.9-.1 0 .5.2.3.5.8s.7.4.3.6c-.4.2-1.1.4-.8.6.3.3 1 .2 1.2.3.3.1.3-.2.6-.4s.6-.2.2-.6c-.4-.4-.3-.1-.6-.6-.4-.3-.5-.6-.5-.6zM138.1 349.8c-.2-.3-.1-.3-.3-.8-.3-.5-.5-.6-.6-.3s-.8 0-.2.9c.6.9.8 1 1.1 1 .2-.1.1-.8 0-.8zM140.8 350.9c0-.1.4 0 0-.6s-.6-.6-.4-.8c.2-.3.5-.2 0-.6-.5-.5-.4-1.1-.9-1.1s-1.1-.3-.5.4c.6.6.9 1 .7 1.2-.2.3-.6-.1-.2.6.4.7.1.7.5 1 .3.2.7-.1.8-.1z"/><path class="st4" d="M123.2 358.4s-2.7-.4-2.4.3c.3.7 6.7-.1 8.4-.1 1.7 0 1.9-.3 4.4-.6 2.5-.2 2.7-.5 3.3-.6.7-.1 1-.5.6-.4-.4 0-1.3-.1-1.9 0-.7.2-2.5.2-3.1.2-.6 0-.8 0-1.8.2s-.7.2-1.8.4c-1.1.1-2.9.4-3.8.5-.9.1-1.9.2-1.9.1zM123.6 359.6c.5.2 1.4.8 2.1 1.2.7.4 1.1.2 1.2.8.1.6.3.6.5.8.2.1.6-.1.6-.1s-.4-.6-.9-1.1c-.4-.5-.6-.6-1.4-1.1-.8-.5-1.1-.7-1.4-.7-.2.1-.7.2-.7.2z"/><path class="st4" d="M131.2 361.9s.4 0-.4-.9c-.9-.9-.3-.6-1.4-1.2-1.1-.6-1.7-.8-1.9-.9-.2 0 .2-.3.8-.1.6.2 1.8.9 2.5 1.4.7.6 1 .9 1 1.2-.1.4-.6.5-.6.5zM135.2 361.4s-.6-1.5-1.2-2.1c-.7-.6-.7-.6-1.1-.8-.4-.2-1.1-.4-1.3-.4-.2 0 .4.5.9.9s.8.6 1.3 1.2c.4.6.6.6.6 1s-.4.8-.4.8 1.1-.2 1.3-.3c.3 0-.1-.3-.1-.3z"/><path class="st4" d="M136.8 361.7s-2.2-.1-2.7 0-1.4.3-1.9.3-.4-.2-1-.2-1.2.4-2.3.4c-1.1 0-1.3 0-1.7.2-.4.2-2.3.2-2.2.7s1.9 0 3.6 0c1.7-.1 2.6-.5 3.7-.5s1.6-.2 2.5-.3c.9-.2 2.1-.5 2-.6zM129 365.7c0-.2-.3-.9-.6-1.3s-.3-.4-.7-.7c-.4-.2-1-.2-1-.2s1.1.9 1.4 1.4c.3.5.5.7.2.9-.3.2-.1.1-.7.3-.6.2-.4.9 0 .8.5 0 1.9-.5 1.9-.5s.1.2.8.1c.8 0 1.4-.3 1.4-.3s-.9-.2-1.6-.2c-.5 0-1-.3-1.1-.3zM131.8 365.9s.1-.5-.5-1.1c-.5-.6-.5-.7-1.1-1.1-.6-.4-.7-.6-.3-.5.4.2.8.3 1.3.6s.6.2 1 1 .2.7.7.9c.5.2.6.2 1 .3h.9s.6-.3.2-1.2c-.4-.9-.4-1-1-1.3-.6-.3-1.4-.8-1.4-.8s.9 0 1.4.2c.4.2.4 0 1.3.8 1 .9 1.1 1.1 1.1 1.6s.2.8-.5 1c-.8.2-.4.4-1.5.4-1.2 0-1.5-.1-1.9-.4-.4-.1-.7-.4-.7-.4zM138.4 365.1s.1-.4-.4-1.1c-.5-.7-.9-1.2-.9-1.2s.5-.3.7-.2c.2.2.8 1 1.1 1.5.2.5.3.6 0 .8-.2.3-.5.2-.5.2zM137.6 361s.4-.7.1-1.2-.4-.9-.9-1.1c-.4-.2-.8-.6-.9-.1-.1.4 0 .4.7 1 .7.7.8.8.8 1.1v.6s.2-.2.2-.3zM134.6 370.4s1.8.8 2.3 1.9c.5 1.1.2 1.7.2 1.7s-.3.1-.6-.8c-.3-.8-.2-.7-.6-1.3s-.3-.6-.7-.7-.6-.7-.6-.8zM138.6 370.7s.4.1 1 1.2c.5 1.1.7 1.5.7 1.5s.3.6-1.1-1.1c-1.4-1.5-.6-1.6-.6-1.6zM137.8 366s.6-.1 1.2.8 1.4 2 .7 2-.3-.4-.9-1.3c-.5-.9-1.1-1.7-1-1.5zM134.4 375.9s1 0 1.6.9c.6.9.6 1.3.6 1.3s.3.3-.8-.5-1.8-1.1-2.3-1.4c-.4-.3.3-.4.9-.3zM138.5 379.1s.7-.1 1.6 1c.9 1.1.8 1.8.8 1.8s-.4-1-1.3-1.6c-.9-.5-1.8-1.1-1.8-1.1l.7-.1zM135.8 379.9s.8.1 1.6 1 1 1.5 1 1.5-.1-.4-1.5-1.2c-1.3-.8-1.6-.9-1.6-.9s.6-.3.5-.4zM143.2 381.8s.5 0 1.2.8c.8.8.9 1.5.9 1.5s-.5-.6-1.5-1.3c-1.1-.6-1.6-.8-1.6-.8s.9-.2 1-.2zM136.1 383.9s.7-.2 1.9.6c1.2.9 1.2 1.4 1.2 1.4s-.6-.8-1.7-1.3c-1-.4-1.4-.8-1.4-.7zM131.9 371.2s.6.3 1.3 1.2c.7.9.7 1.7.7 1.7s-.1-.4-1-1.4c-.9-1.1-1.5-1.3-1.5-1.3s.4-.3.5-.2z"/><path class="st2" d="M170.1 388.4s-1.7-3.6-2.1-6c-.5-1.9-3.1-8.7-3.6-12.8-.5-4.3-.5-8.8-.5-10.7-.1-4.1-2.6-11.3-4.2-15.2-1.6-4-6-9.6-6-9.6s4.4 8.4 6.5 15.1c2.1 6.7 1.2 10.8 1.5 14.6.3 3.9 1.7 10 2.9 14.5s1.5 6.1 2.5 8.2c1.1 2 1.8 1.9 1.8 1.9s.9-.5 1.2 0z"/><path class="st1" d="M140.9 422.6s-1.2.6-3.4-1.8-3.1-2.1-3.1-2.1 2.1 2.6 2.6 4.5c.4 1.9.9 4 0 2.4s-2.2-2.5-2.2-2.5 1.1 3.4 1.7 4.6c.6 1.2-.2 2-.9.2s-2.1-2.6-2.1-2.6.5 3.6 1.2 5.2 1.2 3.4 1.2 3.4-.9.2-1.7-1.1c-.8-1.3-1.3-3.1-1.3-3.1s-.3 2.7.2 4.4c.6 1.7.1 1.9 1.1 3 .9 1.1 1.8.9 5.2 1.9 3.4 1 7-.2 8.6-2.4 1.6-2.2 2.5-3.7 2.7-5.7.2-2-.6-2.5 0-3.9.6-1.5 1.6-2.8 2.3-4.4.7-1.6 2.3-2.2.5-4.6-1.7-2.4-4.3-.7-6.8-2.2-2.5-1.5-4.6-.2-4.6-.2s1.7-.6 2.5.7 2 3.6.2 2.7c-1.8-.9-4.6-1.5-4.6-1.5s.4 1.5.9 2.9c.4 1.3-.2 2.2-.2 2.2z"/><path class="st4" d="M209.4 403.5s.3-1.2 1.5-2.7c1.2-1.5 3-2.9 3-2.9s-.6 1.2-1.4 2.6c-.8 1.4-1.2 1.6-1.7 2.4-.4.8-1.4.6-1.4.6zM204 403.1s2.8-2 3.7-2.9c.9-.9.2-1.8-.2-.9s-2.1 2.2-2.5 2.9c-.5.6-.8.8-1 .9zM187.2 394.9s.9 0 1.5.8.6 1.2.6 1.2.3.3-.7-.4-1.7-.9-2.2-1.2c-.4-.3.3-.4.8-.4zM206.7 394.4s.7 0 1.5.8 1 1.3 1 1.3-.2-.4-1.4-1c-1.3-.7-1.5-.7-1.5-.7s.5-.4.4-.4zM199.2 396.5s.4-.1 1.2.6c.8.7.9 1.2.9 1.2s-.5-.5-1.5-1-1.5-.6-1.5-.6l.9-.2zM203.5 392.1s.4-.1 1.2.6c.7.7.9 1.3.9 1.3s-.5-.5-1.5-1-1.5-.6-1.5-.6.8-.3.9-.3zM207.3 393.2s.4-.1 1.2.6c.8.7.9 1.2.9 1.2s-.5-.5-1.5-1-1.5-.6-1.5-.6.8-.3.9-.2zM209.4 392.9s.4-.1 1.2.6c.8.7.9 1.2.9 1.2s-.5-.5-1.5-1-1.5-.6-1.5-.6l.9-.2zM208.3 390.8s.4-.1 1.2.6c.8.7.9 1.2.9 1.2s-.5-.5-1.5-1-1.5-.6-1.5-.6l.9-.2zM202.7 394.8s.4-.1 1.2.6.9 1.2.9 1.2-.5-.5-1.5-1-1.5-.6-1.5-.6.8-.2.9-.2zM201 392.5s.4-.1 1.2.6c.8.7.9 1.2.9 1.2s-.5-.5-1.5-1-1.5-.6-1.5-.6l.9-.2zM212 392.6s.4-.1 1.2.6c.8.7.9 1.2.9 1.2s-.5-.5-1.5-1-1.5-.6-1.5-.6l.9-.2zM211.1 390.5s.4-.1 1.2.6c.8.7.9 1.2.9 1.2s-.5-.5-1.5-1-1.5-.6-1.5-.6l.9-.2zM200.4 395.1s.4-.1 1.2.6c.8.7.9 1.2.9 1.2s-.5-.5-1.5-1-1.5-.6-1.5-.6l.9-.2zM205.1 391.1s.4-.1 1.2.6c.7.7.9 1.3.9 1.3s-.5-.5-1.5-1-1.5-.6-1.5-.6.9-.4.9-.3z"/><path class="st1" d="M135.2 402.5s-2.2 1-5.6 0c-3.4-1-8.9-2.3-6.9-1.3 2 1 7.1 2.7 5 2.6-2-.2-3.1-.1-3.1-.1s4.9 2.4 3.5 2.1c-1.4-.3-5.7-1.1-3.7.1 1.9 1.2 3.8 2 5.2 2.7 1.5.6 3.7 2.2 2.9 2.6-.7.3-.4 1.1 1.2.7 1.5-.4 1.9-2.3 1.9-2.3l-.4-7.1zM186.5 411.2s.2-.3-.9-1.6c-1.1-1.4-1.1-1.7-1.2-2.1-.1-.5.6.3.5.2-.1-.1.7.5 1.1 1.2.4.7.6.9.6 1.6 0 .5-.2.8-.1.7z"/><path class="st4" d="M162.6 418.2s-2.6-.5-5.2-1.9c-2.6-1.3-5-3.6-2.8-2.8 2.2.8-1.1-1.7-4.3-2.4-3.3-.7-7.6-1.8-5.9-2 1.7-.3.8-1.1-1.6-1.3-2.4-.3-2.7.1-5.8.8-3.1.7-3.2.4-5.1-.7-1.9-1.2-3.6-1.4-3.6-1.4s3.1 2.1 4.6 3.1c1.5.9 3.5-.3 7.3 0 3.8.2 3.5 2.1 7 2.7 3.5.5 7.5 3.9 4.1 3.2-3-.7-6.1-.2-6.1-.2s5.1 1.2 7.3 1.5 7.1 1.1 4.9 1.1c-2.3.1-4.1.8-4.1.8s5.4.5 6.8 1.1c1.5.6 2.2 1.6 3 .8.8-.8.9-1.8.9-1.8l-1.4-.6zM158.8 413.1c.2.3.5.5.8.4.3-.1.5-.3.5-.3s-.4 0-.8-.2c-.5-.2-.5.1-.5.1z"/><path class="st4" d="M156.8 414.8s-1-.9-1.3-.6c-.3.3 0 .7.5.8.5 0 .8-.2.8-.2zM157 412.8s-2.1-1.3-2.7-.7c-.6.5 2.7.7 2.7.7zM155.2 410.8s-2.2-1.3-2.8-.7c-.6.5 2.8.7 2.8.7zM158.1 410s-1.5-.9-1.9-.5c-.4.4 1.9.5 1.9.5zM157.2 408.2s-2.2-1.3-2.8-.8c-.6.6 2.8.8 2.8.8zM155.4 409.7s-1.8-1.1-2.4-.6c-.5.4 2.4.6 2.4.6zM157.6 411.1s-1.5-.9-1.9-.5c-.5.4 1.9.5 1.9.5zM152.9 411.2s-1.4-.9-1.8-.5c-.5.4 1.8.5 1.8.5zM150.6 409.9s-1.4-.9-1.8-.5c-.4.4 1.8.5 1.8.5zM152.3 409.1s-1.7-1.1-2.2-.6c-.6.5 2.2.6 2.2.6zM147.9 410s-1.4-.9-1.8-.5c-.4.4 1.8.5 1.8.5zM159.5 412.2s-1.2-.5-1.9-.6c-.7-.2-.6.2-.3.5s.2.2 1 .3c.8.1 1.2-.2 1.2-.2zM162.5 414.4s-1.2-.5-1.9-.6c-.7-.2-.6.2-.3.5s.2.2 1 .3c.8.1 1.2-.2 1.2-.2zM161.9 415.4s-1.2-.5-1.9-.6c-.7-.2-.6.2-.3.5s.2.2 1 .3c.8 0 1.2-.2 1.2-.2zM159.3 414.1s-1.2-.5-1.9-.6c-.7-.2-.6.2-.3.5s.2.2 1 .3c.8 0 1.2-.2 1.2-.2zM159.3 415.5s-1.2-.5-1.9-.6c-.7-.2-.6.2-.3.5s.2.2 1 .3c.9.1 1.2-.2 1.2-.2zM184.7 440.6c-.3-.2-1.7-1.5 0 0 2.5 2.2 2.4-.5 5.4-1.5 2.2-.8 1.3-.3 2.3-1.6 1-1.3 1.4-.3 2.7-1 1.3-.7-1.1-1 .4-1.6 1.5-.7 2.1-.8 3.3-1 .6-.1 1.4-.3 1.7-.6.3-.4-.1-1.4-.5-1.7-.7-.8-1.5-1-2.1 0-.7 1-1.4 1.8-2.9 2.3-1.5.5-6.3 2.6-7.2 2.9-.9.3-1.1-.2-1.6.7-.7.8-1.5 3.1-1.5 3.1z"/><path class="st4" d="M187.1 434.6s2.5-2 4.6-3.8c2.1-1.8 3-2.5 3.2-3.4.2-.9.9-2.4 2.4-1.5s2 1.6.9 2.4c-1.1.8-2.2.4-2.5 1.6-.3 1.3.9 1.2-.3 1.8-1.2.5-1.2 0-2.1.7-1 .6-.8.2-1 1.1-.2.9-.4 2-1.2 2.5-.8.5-1.4-.4-2.3.9-1 1.3-2.8 2.9-2.8 2.9s.4-4.6.5-4.9c.2-.2.7-.7.6-.3z"/><path class="st4" d="M169.5 435.8s-1.2-.1-2.2 2.4c-1 2.5 2.9 1.7 5.9 1.6 3-.1 4.8-.6 6.4-.4 1.6.2 2.1.4 2.2.8.1.4.5.9.1 2-.2.6-1.6 2.8-1.9 3.4-.2.4-.1.4-.2.6-.6 1-1.3 2.2-.2 3 .3.2.7.2 1.3.1 1.4-.1.8-3.2 1.6-2.9.7.3.6-2.1.9-2.7 1.5-2.7-.2-.1 1.6-1.9.5-.5 1.5-.8 1.8-1.9.2-.9-.1-.7 0-1.9 0-.3.3-.4 1-2.1.3-.7-.5-.9-.4-1.1.2-.6.3-1.1.9-1.7.5-.6.9-1.2.9-1.7-.2-1.3-1.4-2.3-2.6-1.8-.7.3-1.1 1.4-.7 2.5.3.8-.2 1.7-.5 2.2-.8 1.2-.7 1.1-3.2 1.7-2.5.6-4.5.5-7.2.5-2.8-.1-6-.9-5.5-.7z"/><path class="st3" d="M186.6 431s0-1.5.8-2.2c.7-.7 1.6-1 2.3-1.1.7-.1 1.5.1 1.5.1s-.3.2-1.1.9-1.1.9-1.3 1.5c-.2.6-.3 1.3-.4 1.5-.2.2-.7.3-1.1.2-.6-.2-.7-.9-.7-.9zM196.3 426.4s.5-1.5 1.4-1.9c.9-.4 1.8-.5 2.5-.4.7.1 1.4.5 1.4.5s-.3.1-1.3.5-1.4.5-1.7 1c-.3.4-.6 1.2-.9 1.4-.2.2-.7.1-1.1-.1-.4-.3-.3-1-.3-1z"/><path class="st1" d="M187.2 437.1c.4-.1.9.6.5 0s-1-.1-1.2-.2c-.1-.2.9-.8 1.3-.3s.6.4.6.4l-.1-.6s-.5-.8 0-.3.8.6.8.6-.7.7-1 1.1c-.3.4-.1.4-.1.9s.8.8.6.4l-.3-.6s-.1-.2.4.1c.4.3.7.3.4-.1-.3-.3-.4-.6-.4-.6s.3-.1.8.5.4.7.4.7-.6.2-1.2.7c-.7.5-1.6 1.4-2 1.6-.4.2-.6.1-.6.1s.3-.8.4-1.4c.1-.6 1.1-1.8 1.1-1.8s0-.2-.4.1c-.4.2-.5.3-.5.3s-.1-.3-.1-.6c0-.7.4-.9.6-1zM179.8 445.6s-.1.3.6.5 1.3-.2 1.3-.2-.8 0-1.1-.2c-.3-.2-.1-.6-.1-.6s.6.4 1 .2c.5-.2.8-.6.8-.6s-.6.2-1 .1c-.5-.1-.3-.6-.3-.6s.4.1.9 0 1.1-.7 1.1-.7-.6.2-1 .2c-.4-.1-.3-.5-.3-.5s.2-.4.4-.7c.2-.4.2-.8.2-.8s0 .1.4.1.7-.6.7-.6-.2.1-.7.2c-.6.1-.8-.7-.8-.7s.1.5-.2 1.2c-.3.7-.6 1.1-.9 1.6-.3.5-.7 1.2-.8 1.5l-.2.6zM193.4 436.9s-.5-.3-.8-.6c-.3-.3-.3-.6-.3-.6s-.2.4 0 .8.5.6 0 .4c-.5-.2-.8-.5-.8-.5s-.2.4.2.7c.4.4.6.5.6.5s.2-.3.5-.5.6-.2.6-.2zM195.5 435.1s-.7.1-1-.1c-.3-.2-.3-.5-.3-.5l.7.1.6-.1s-.6-.5-.2-.3c.4.2 1.5.3 1.5.3s-.5.1-.8.3c-.4.2-.5.3-.5.3zM196.2 429.3s-.1-.2-.6-.4c-.5-.3-.6-.6-.6-.6s-.2.4.1.7c.3.3.5.7.1.4-.4-.3-.7-.5-.7-.5s0 .3.5.7c.5.4.7.6.7.6s0-.1.1-.5c.2-.3.3-.5.4-.4zM194 432.2s-.4-.1-.8-.3c-.5-.2-.7-.8-.7-.8s-.1.5.2.9l.4.4s-.7.2-.9-.2c-.2-.4-.3-.8-.3-.8s-.3.6.1.9c.4.4.5.7.4 1.1-.1.4.1.7-.6.6-.6-.1-.9-.5-.9-.5s.3.5.8.8c.4.4.8-.2.8-.2l.4-1c.2-.4.4-.5.6-.6.2-.1.5-.4.5-.3z"/><path class="st1" d="M188.4 433s-.7.2-1.2.3c-.5.1-1-.5-1-.5s-.1.5.5.7c.6.3.5.3.5.3s.1.4-.5.2c-.6-.1-.9-.7-.9-.7s.3.9.8 1.2c.5.3.6.5.7.8.1.3.1.4-.3.7-.4.3-.9.2-.9 1.2.1.9 0 1.5-.1 2.3-.2.8-.4 1.4-.4 1.4s.9-.9.9-1.5 0-1.8.2-2.3c.2-.6.6-.2.8-.6.2-.3.5-.5.5-.9s.1-.5-.2-.7c-.3-.2-.4-.3-.1-.8.1-.4.7-1.1.7-1.1zM184.9 441.7s-.2 0-.2-.8c-.1-.7.1-.7.3-2.1.1-1.3.6-1.2-.3-1.7-.9-.5-1-.4-2-.2-1 .3-1.5.4-1.5-.1-.1-.5.3-.7.3-.7s-.8.1-1 .5c-.2.5-.3.9.1 1.4.4.5-.2.3-.6 0-.4-.3-.3-1.2-.3-1.1-.1.1-.4.2-.4.8 0 .5.4.9.4.9s-.5.1-.7-.3c-.2-.4-.1-.8-.1-.8s-.5.5-.2 1c.2.5.2.6.9.7.7 0 1.5.3 1.9.4.4.1 1.2.3 1.7.6.6.3.7.5.7.5s.3 0-.2.3c-.5.2-.9.7-.8.6 0 0 .3 0 1-.1s.4.2.1.3c-.3.1-.9.1-1 .5-.1.4.5 1.2.5 1.2s.2-.7.5-1l.7-.7.2-.1zM177.5 439.4s-.4-.2-.6-.9c-.1-.6.2-.8.2-.8s-.6.2-.6.8c-.1.6 0 .7 0 .7s-.5.2-.8-.3c-.3-.5-.4-.8-.4-.8s-.4.4-.2.8.2.5.2.5-.2.2-.5-.3-.4-1-.4-1-.4.5-.2.8c.2.4.1.4.1.4s-.3.1-.6-.3c-.3-.5-.2-.8-.2-.8s-.4.2-.3.8c.1.5.2.5.2.5s-.6-.1-.7-.5c-.1-.3 0-.8 0-.8s-.5.3-.4.8c.1.5 0 .5 0 .5s-.5 0-.6-.4 0-.8 0-.8-.4.3-.5.6c-.1.3.3 1.1.3 1.1s2.7-.1 3.8-.2c.9-.2 2.2-.4 2.2-.4zM191 436.1s.1.1-.3.8c-.3.7-.1.6-1 .6-.8 0-1.6.2-1.6.2s.3-.6.8-1 .6-.6 1.1-.6c.7.1 1 0 1 0zM190.4 437.9s.1.1.6.3c.5.2.9.1.9.1s.1.3-.4.4c-.5.2-.8.2-1.1-.2-.3-.3-.4-.7-.4-.7l.4.1zM182.1 446.3s-.4.4-.9.6c-.5.2-.9.1-.9.1s.2.3.6.3c.4 0 .7-.3.7-.3l.5-.7zM185 434.3s-.4.3-.1.9c.3.6.6.8.6.8s-.4-.3-1-.4c-.6-.1-1.9-.1-1.9-.1s.9-.2 1.4-.5c.5-.3 1.1-.8 1-.7z"/><path class="st1" d="M187.5 434.2s.6-.1 1.4 0c.8.1 1.4.3 1.4.3s-.5-.3-.5-1c.1-.7.8-1.8.8-1.8s-.9.7-1.6 1.2c-.6.6-1.6 1.2-1.5 1.3zM193.6 434.9c0 .8.4 1 .4 1s-.5-.3-1-.5-1-.1-1-.1l.2-.5s.4-.3 1-.5c.5-.2.4-.2.4.6zM199.7 433.7s-.8-.2-1.1-.7c-.3-.5-.4-.9-.4-.9s-.2.3-.1.7c.2.5.2.6.2.6s-.3.2-.5-.2-.4-.6-.4-.6.3 1-.2 1.1c-.5 0-1.4.1-1.4.1l1.1.5-.3.3 1.5-.3.7-.2.9-.4z"/><path class="st2" d="M187 429.6c.1-.2.2-.5.8-.9.6-.5 1.7-.8 1.7-.8s-.9.5-1.4.8c-.5.4-.7.6-.9.9s-.3.5-.3.5l.1-.5zM197 425.4c.1-.2.3-.4.9-.8.6-.4 1.8-.5 1.8-.5s-1 .3-1.5.6-.8.5-1.1.7l-.4.4.3-.4z"/><path class="st4" d="M182 439.3s1.8-.3 2.5-.1c.7.2.7.2.7.5s-.8.1-1.5 0-1.7-.4-1.7-.4zM181.9 438.6s2-.4 2.8-.3c.8.2.8.1.8.4 0 .3-.9.2-1.6.1-.9 0-2-.2-2-.2z"/><path class="st1" d="M171.8 436.1s-.8-.4-1.7.6c-.9.9-1.4 1.3-1.4 1.3s.2-1.1.9-1.5c.7-.4.4-1.1.4-1.1s-2.1 2.3-2 3.1c.1.8.3 1.1.3 1.1s-1.1-.9-1-1.6c.1-.7.3-2.4 1.5-2.5 1.4-.2 3 .4 3 .6zM119.7 401.4s1.8.4 3.8.8c2 .4 5.5 1.8 5.5 1.8l-.1.4s-3.1-1.3-4.7-1.7c-1.6-.4-4.6-1.4-4.5-1.3zM112.4 398.3s2.9.5 5.5 1.1 7.2 2.2 7.2 2.2l-.1.5s-4.1-1.7-6.1-2.2c-2-.4-6.5-1.6-6.5-1.6zM119.3 404.6s1.8.4 3.8.8c2 .4 5.5 1.8 5.5 1.8l-.1.4s-3.1-1.3-4.7-1.7c-1.6-.4-4.5-1.4-4.5-1.3zM116.3 397.5s4.6 1.3 7.5 2.1c3 .9 6.6 2 6.6 2s-5-1.8-7.4-2.5c-2.4-.7-8-2.2-8-2.2l1.3.6zM116.4 400.5s-.4-.3-.6-.6c-.2-.3 0-.4-.6-.6-.6-.2-.5-.2-1.5-.4s-2.1-.3-2.1-.3 1.3.6 2.7 1.1c1.4.6 2.1.8 2.1.8zM116.4 399.9s0 .5.4.7c.4.3.8.4.8.4l1.2.1-.7-.7c-.3-.3-.5-.4-.5-.4l-1.5-.4.3.3zM113.1 398.1s1.4.2 2.1.5c.7.2 1.6.3 1.6.3s-.4-.4-1.1-1c-.7-.6-1.2-.9-1.2-.9s-1.8-.6-2.5-.9c-.7-.3-1.2-.3-1.2-.3s1 .8 1.5 1.3c.5.6.8.9.8 1z"/><path class="st4" d="M118.1 398.1s-1.5-.4-1.1-.1c.4.3 1.3.7.7.6-.6-.1-1-.2-.6.2.5.3.8.3 1.4.6.6.3 1.5.4 1.5.4l-.7-.8s-1.3-1-1.2-.9zM121.1 400.8s-.9-.2-1.5-.4-.6.1-.1.3c.5.2-.3.2.2.4s1 .2 1.7.4 1.1.2 1.1.2-.6-.2-.9-.5c-.2-.3-.5-.4-.5-.4zM122.2 402.3s-1.2-.4-1.9-.5c-.8-.1-2.2-.5-1.4-.1s3.1.7 3 1.1c0 .4-.8.4.2.7 1 .3 1.5.5 1.5.5s0 .3-.6.2c-.6 0-.2.3.4.5.6.1.8.5 0 .5-.7 0 .6.1 1.1.1.5 0 .8-.2.4-.7-.5-.5-.6-1-1.3-1.4-.4-.5-1.4-.9-1.4-.9zM159.1 439.8s.6-.9.9-.8c.4.1.5.2 1 .2s.4 0 1.2-.6c.8-.6 1.1-1.2 1.9-1.4.7-.2 1-.4 1.6-.6.6-.2.6-.2 1-.6.4-.5.6-1 1-1.2.4-.1 1.1.1 1.6-.2.6-.3 1-.5 1.1-.9.1-.4 0-.4-.1-.6-.1-.2-.1-.3.3-.6s.9-.3 1.6-.6c.7-.2 1.3-.4 1.3-.4s-.1-1.3 0-2 .1-.7.1-.9c0-.1.1-.2.1-.2s-.8-.5-1.1-.3c-.3.3-.9.9-1.3 1.4-.5.5-1.1.9-1.7 1.1-.6.2-.8.3-1.4.5-.6.2-1 .4-1 .4s.1-.5.2-.8c.1-.3.5-.5.9-.7s.7-.2 1.4-.5c.7-.2.8-.3 1-.5s.2-.3.2-.3-.3-.5-.4-.9c0-.4-.1-.8.3-.9.4-.1.7-.1 1.5-.6.8-.4.9-.4 1.1-.8.2-.4.2-1 .1-1.2-.1-.2-.3-.3-.1-.5.2-.3.3-.5.7-.6.5-.2.6-.3.8-.4.2-.1.5-.1.5-.1s.1-.2 0-.5c0-.3-.1-.4-.2-.6-.2-.3-.4-.5-.3-.5 0 0-1.7-.3-2.9.3s-.9.7-1.2 1c-.2.3-.1.3-.6.5s-.8.6-1.1 1.2c-.2.6 0 .8-1.1 1.8s-1.4 1.5-2 1.9c-.5.5-1.5 1.3-2.1 1.8-.6.4-1.2 1-1.2 1s.7-.9.9-1.4c.2-.6.1-.7 0-1.1-.1-.3-.3-.6.1-1 .4-.5.6-.7 1.2-1.1l1.2-1s-1.7-.4-2.3-.3c-.7.1-1.3.3-2 .8s-1 .9-1 .9-1.2.5-1.3 1.1c-.1.6-.2 1.2-.1 1.8.1.6 0 1.2-.3 1.8-.3.6-.8 1.1-1.2 1.3-.5.2-1.1.4-1.6.4-.4.1-1.6.4-1.4.3 0 0 .8 3.2 1.7 4.5.9 1.3 1.3 1.9 1.6 2.1.5.1.9.1.9.1z"/><path class="st1" d="M149.9 433.4s2 0 3-.1 2.4-.3 2.4-.3v.5s-1.2.3-2.7.3c-1.6 0-3-.1-3-.1l.3-.3zM155.3 436.9s-2 0-3.3.1c-1.3.1-2.7.2-3.5.3-.8 0-1.5.1-1.5.1l.3-.4s4.6-.5 5.3-.5c.7 0 2.3.2 2.3.2l.4.2z"/><path class="st3" d="M173.7 428.7s.8-1.3 1.8-1.5c1-.2 1.9-.1 2.5.2.6.3 1.3.9 1.3.9s-.3 0-1.4.2c-1.1.2-1.4.2-1.8.6-.4.4-.9 1-1.2 1.1-.3.1-.7-.1-1.1-.4-.3-.5-.1-1.1-.1-1.1z"/><path class="st2" d="M174.6 427.9c.2-.1.4-.3 1.1-.5.7-.2 1.9-.1 1.9-.1s-1.1.1-1.6.2c-.6.1-.9.3-1.2.4-.3.2-.5.3-.5.3l.3-.3zM153.6 446.6c0 .2 0 .5.3 1.2s1.1 1.5 1.1 1.5-.6-.9-.8-1.4c-.2-.5-.3-.8-.4-1.2s-.1-.6-.1-.6l-.1.5z"/><path class="st4" d="M159.1 438c-.2-.3-1.7-1.5 0 0 2.5 2.2 2.4-.5 5.4-1.5 2.2-.8 1.3-.3 2.3-1.6 1-1.3 1.4-.3 2.7-1 1.3-.7-1.1-1 .4-1.6 1.5-.7 2.1-.8 3.3-1 .6-.1 1.4-.3 1.7-.6.3-.4-.1-1.3-.5-1.7-.7-.6-1.5-1.1-2.1 0-.7 1-1.4 1.8-2.9 2.3-1.5.5-6.3 2.6-7.2 2.9-.9.3-1.1-.2-1.6.7-.6.7-1.5 3.1-1.5 3.1z"/><path class="st4" d="M161.6 431.9s2.5-2 4.6-3.8c2.1-1.8 3-2.5 3.2-3.4.2-.9.9-2.4 2.4-1.5s2 1.6.9 2.4c-1.1.8-2.2.4-2.5 1.6-.3 1.3.9 1.2-.3 1.8-1.2.5-1.2 0-2.1.7-1 .6-.8.2-1 1.1-.2.9-.4 2-1.2 2.5-.8.5-1.4-.4-2.3.9-1 1.3-2.8 2.9-2.8 2.9s.4-4.6.5-4.9c.1-.2.6-.6.6-.3z"/><path class="st4" d="M143.9 433.1s-1.2-.1-2.2 2.4c-1 2.5 2.9 1.7 5.9 1.6 3-.1 4.8-.6 6.4-.4 1.6.2 2.1.4 2.2.8.1.4.5.9.1 2-.2.6-1.6 2.8-1.9 3.4-.2.4-.1.4-.2.6-.6 1-1.3 2.2-.2 3 .3.2.7.2 1.3.1 1.4-.1.8-3.2 1.6-2.9.7.3.6-2.1.9-2.7 1.5-2.7-.2-.1 1.6-1.9.5-.6 1.5-.8 1.8-1.9.2-.9-.1-.7 0-1.9 0-.3.3-.4 1-2.1.3-.7-.5-.9-.4-1.1.2-.6.3-1.1.9-1.7.5-.6.9-1.2.9-1.7-.2-1.3-1.4-2.3-2.6-1.8-.7.3-1.1 1.4-.7 2.5.3.8-.2 1.7-.5 2.2-.8 1.2-.7 1.1-3.2 1.7-2.5.6-4.5.5-7.2.5s-6-.9-5.5-.7z"/><path class="st3" d="M161 428.3s0-1.5.8-2.2c.7-.7 1.6-1 2.3-1.1.7-.1 1.5.1 1.5.1s-.3.2-1.1.9-1.1.9-1.3 1.5c-.2.6-.3 1.3-.4 1.5-.2.2-.7.3-1.1.2-.6-.2-.7-.9-.7-.9zM170.7 423.7s.5-1.5 1.4-1.9c.9-.4 1.8-.5 2.5-.4.7.1 1.4.5 1.4.5s-.3.1-1.3.5-1.4.5-1.7 1c-.3.5-.6 1.2-.9 1.4-.2.2-.7.1-1.1-.1-.3-.3-.3-1-.3-1z"/><path class="st1" d="M161.7 434.4c.4-.1.9.6.5 0s-1-.1-1.2-.2c-.1-.2.9-.8 1.3-.3s.6.4.6.4l-.1-.6s-.5-.8 0-.3.8.6.8.6-.7.7-1 1.1c-.3.4-.1.4-.1.9s.8.8.6.4l-.3-.6s-.1-.2.4.1c.4.3.7.3.4-.1-.3-.3-.4-.6-.4-.6s.3-.1.8.5.4.7.4.7-.6.2-1.2.7c-.7.5-1.6 1.4-2 1.6-.4.2-.6.1-.6.1s.3-.8.4-1.4c.1-.6 1.1-1.7 1.1-1.7s0-.2-.4.1c-.4.2-.5.3-.5.3s-.1-.3-.1-.6c0-.7.4-1 .6-1.1zM154.2 442.9s-.1.3.6.5 1.3-.2 1.3-.2-.8 0-1.1-.2c-.3-.2-.1-.6-.1-.6s.6.4 1 .2c.5-.2.8-.6.8-.6s-.6.2-1 .1c-.5-.1-.3-.6-.3-.6s.4.1.9 0c.5 0 1.1-.7 1.1-.7s-.6.2-1 .2c-.4-.1-.3-.5-.3-.5s.2-.4.4-.7c.2-.4.2-.8.2-.8s0 .1.4.1.7-.6.7-.6-.2.1-.7.2c-.6.1-.8-.8-.8-.8s.1.6-.1 1.2c-.3.7-.6 1.2-.9 1.7-.3.5-.6 1-.8 1.4-.1.4-.3.7-.3.7zM167.6 434.1l-.6-.4c-.3-.3-.3-.6-.3-.6s-.3.4 0 .8c.2.4.5.6 0 .4-.5-.2-.8-.5-.8-.5s-.2.4.2.7c.4.4.6.5.6.5s.2-.3.5-.5c.3-.4.4-.4.4-.4zM169.6 432.3s-.4.2-.6 0c-.3-.2-.3-.5-.3-.5l.7.1.6-.1s-.6-.5-.2-.3c.4.2 1.3.2 1.3.2s-.5.2-.8.3c-.4.2-.7.3-.7.3zM170.6 426.6s-.1-.2-.6-.4c-.5-.3-.6-.6-.6-.6s-.2.4.1.7c.3.3.5.7.1.4-.4-.3-.7-.5-.7-.5s0 .3.5.7c.5.4.7.6.7.6s0-.1.1-.5c.2-.3.4-.5.4-.4zM168.4 429.5s-.3 0-.8-.3c-.5-.2-.7-.8-.7-.8s-.1.5.2.9l.4.4s-.7.2-.9-.2c-.2-.4-.3-.8-.3-.8s-.3.6.1.9c.4.4.5.7.4 1.1-.1.4.1.7-.6.6-.6-.1-.9-.5-.9-.5s.3.5.8.8c.4.4.7 0 .7 0s.1-.7.3-1.2c.2-.4.4-.5.7-.6.2-.1.6-.4.6-.3z"/><path class="st1" d="M162.6 430.3s-.5.3-.9.4c-.5.1-1-.5-1-.5s-.1.5.5.7c.6.3.5.3.5.3s.1.4-.5.2c-.6-.1-.9-.7-.9-.7s.3.9.8 1.2c.5.3.6.5.7.8.1.3.1.4-.3.7-.4.3-.9.2-.9 1.2.1.9 0 1.4-.1 2.3-.2.8-.4 1.4-.4 1.4s.9-.9.9-1.5 0-1.8.2-2.3c.2-.6.6-.2.8-.6.2-.3.5-.5.5-.9s.1-.5-.2-.7c-.3-.2-.4-.3-.2-.8-.1-.4.5-1.3.5-1.2zM159.3 439s-.2 0-.2-.8c-.1-.7.1-.7.3-2.1.1-1.3.6-1.2-.3-1.7-.9-.5-1-.4-2-.2-1 .3-1.5.4-1.5-.1-.1-.5.3-.7.3-.7s-.8.1-1 .5c-.2.5-.3.9.1 1.4.4.5-.2.3-.6 0-.4-.3-.3-1.2-.3-1.1-.1.1-.4.2-.4.8 0 .5.4.9.4.9s-.5.1-.7-.3c-.2-.4-.1-.8-.1-.8s-.5.5-.2 1c.2.5.3.6 1 .6s1.4.4 1.8.4c.4.1 1.2.3 1.7.6.6.3.7.5.7.5s.3 0-.2.3c-.5.2-.9.7-.8.6 0 0 .3 0 1-.1s.4.2.1.3c-.3.1-.9.1-1 .5-.1.4.5 1.1.5 1.1s.1-.5.5-.9l.7-.7h.2zM152 436.7s-.4-.2-.6-.9c-.1-.6.2-.8.2-.8s-.6.2-.6.8c-.1.6 0 .7 0 .7s-.5.2-.8-.3c-.3-.5-.4-.8-.4-.8s-.4.4-.2.8.2.5.2.5-.2.2-.5-.3-.4-1-.4-1-.4.5-.2.8c.2.4.1.4.1.4s-.3.1-.6-.3c-.3-.5-.2-.8-.2-.8s-.4.2-.3.8c.1.5.2.5.2.5s-.6-.1-.7-.5c-.1-.3 0-.8 0-.8s-.5.3-.4.8c.1.5 0 .5 0 .5s-.5 0-.6-.4c-.1-.4 0-.8 0-.8s-.4.3-.5.6c-.1.3.3 1.1.3 1.1s2.7-.2 3.7-.3c.9-.1 2.3-.3 2.3-.3zM165.5 433.5s.1.1-.3.8c-.3.7-.1.6-1 .6-.8 0-1.6.2-1.6.2s.3-.6.8-1c.5-.3.6-.6 1.1-.6h1zM164.8 435.3s.1.1.6.3c.5.2.9.1.9.1s.1.2-.4.3c-.5.2-.7.3-1 0-.3-.3-.4-.7-.4-.7h.3zM156.6 443.6s-.4.4-.9.6c-.5.2-.9.1-.9.1s.2.3.6.3c.4 0 .7-.3.7-.3l.5-.7zM159.5 431.7s-.2.4 0 1 .5.8.5.8-.4-.3-1-.4c-.6-.1-1.9 0-1.9 0s.8 0 1.5-.5 1-1 .9-.9z"/><path class="st1" d="M161.9 431.7s.6-.3 1.4-.1c.8.1 1.4.3 1.4.3s-.5-.3-.5-1c.1-.7.8-1.8.8-1.8s-.9.7-1.5 1.3c-.6.5-1.6 1.2-1.6 1.3zM168 432.3c0 .8.4 1 .4 1s-.5-.3-1-.5-.9-.1-.9-.1l.2-.5s.2-.1.8-.3c.5-.2.5-.4.5.4zM174.1 431s-.8-.2-1.1-.7c-.3-.5-.4-.9-.4-.9s-.2.3-.1.7c.2.5.2.6.2.6s-.3.2-.5-.2-.4-.6-.4-.6.3 1-.2 1.1c-.5 0-1.4.1-1.4.1l.9.3.1.2 1.9-.5 1-.1z"/><path class="st2" d="M161.5 426.9c.1-.2.2-.5.8-.9.6-.5 1.7-.8 1.7-.8s-.9.5-1.4.8c-.5.4-.7.6-.9.9-.2.3-.3.5-.3.5l.1-.5zM171.4 422.7c.1-.2.3-.4.9-.8.6-.4 1.8-.5 1.8-.5s-1 .3-1.5.6-.8.5-1.1.7l-.4.4.3-.4z"/><path class="st4" d="M156.4 436.6s1.8-.3 2.5-.1c.7.2.7.2.7.5s-.8.1-1.5 0c-.6-.1-1.7-.4-1.7-.4zM156.3 435.9s2-.4 2.8-.3c.8.2.8.1.8.4 0 .3-.9.2-1.6.1-.8 0-2-.2-2-.2z"/><path class="st1" d="M146.2 433.4s-.8-.4-1.7.6c-.9.9-1.5 1.4-1.5 1.4s.2-1.1 1-1.6c.8-.4.4-1.1.4-1.1s-2.2 2.3-2.1 3.2c.1.8.3 1.1.3 1.1s-1.1-.9-1-1.6c.1-.7.3-2.5 1.6-2.6 1.4-.2 3 .5 3 .6z"/></svg>