<svg version="1.1" id="Layer_1" xmlns="http://www.w3.org/2000/svg" x="0" y="0" width="252" height="72" style="enable-background:new 0 0 252 72" xml:space="preserve"><style>.st0{fill:#fff}.st7{fill:#808285}</style><path class="st0" d="M50.4 24c0 .1-.1.1-.1.1H19.9c-.1 0-.1-.1-.1-.1V4.9c0-.1.1-.1.1-.1h30.4c.1 0 .1.1.1.1V24z"/><path d="M50.4 24c0 .1-.1.1-.1.1H19.9c-.1 0-.1-.1-.1-.1V4.9c0-.1.1-.1.1-.1h30.4c.1 0 .1.1.1.1V24z" style="fill:none;stroke:#d62d28;stroke-width:1.5;stroke-miterlimit:10"/><path class="st0" d="M8.8 38.1h27.1"/><path style="fill:none;stroke:#009c4a;stroke-width:1.5;stroke-linecap:round;stroke-miterlimit:10" d="M8.8 38.1h27.1"/><path class="st0" d="M33.9 29.6h8.6"/><path style="fill:none;stroke:#d62d28;stroke-width:1.5;stroke-linecap:round;stroke-miterlimit:10" d="M33.9 29.6h8.6"/><path class="st0" d="M50.2 46.3c0 .1-.1.1-.1.1H42c-.1 0-.1-.1-.1-.1V33c0-.1.1-.1.1-.1h8c.1 0 .1.1.1.1v13.3z"/><path d="M50.2 46.3c0 .1-.1.1-.1.1H42c-.1 0-.1-.1-.1-.1V33c0-.1.1-.1.1-.1h8c.1 0 .1.1.1.1v13.3z" style="fill:none;stroke:#fff200;stroke-width:1.5;stroke-miterlimit:10"/><path class="st0" d="M33.3 34.2c0 .1-.1.1-.1.1H12.6c-.1 0-.1-.1-.1-.1V21.3c0-.1.1-.1.1-.1h20.5c.1 0 .1.1.1.1v12.9z"/><path d="M33.3 34.2c0 .1-.1.1-.1.1H12.6c-.1 0-.1-.1-.1-.1V21.3c0-.1.1-.1.1-.1h20.5c.1 0 .1.1.1.1v12.9z" style="fill:none;stroke:#009c4a;stroke-width:1.5;stroke-miterlimit:10"/><path style="fill:#d62d28" d="M34.6 24.4h3.6v5.1h-3.6z"/><path class="st7" d="M8.6 67V55.6h.2l7.6 8.7v-8.7h1.1V67h-.3l-7.5-8.6V67H8.6zM20.5 55.6H27v1.1h-5.4v3.6H27v1.1h-5.3v4.5H27V67h-6.5V55.6zM28.3 56.7v-1.1h6.2v1.1H32V67h-1.2V56.7h-2.5zM35.9 55.6h1.2l2.3 8.2 3.3-8.2h.2l3.2 8.2 2.4-8.2h1.2L46.4 67h-.2l-3.4-8.6-3.5 8.6h-.2l-3.2-11.4zM56.7 55.3c1.7 0 3.2.6 4.3 1.7 1.2 1.2 1.7 2.6 1.7 4.3 0 1.7-.6 3.1-1.7 4.2-1.2 1.2-2.6 1.7-4.2 1.7-1.7 0-3.1-.6-4.3-1.7-1.2-1.2-1.7-2.6-1.7-4.2 0-1.1.3-2.1.8-3 .5-.9 1.3-1.7 2.2-2.2.9-.6 1.9-.8 2.9-.8zm.1 1.1c-.8 0-1.6.2-2.4.7-.8.4-1.3 1-1.8 1.8-.4.7-.6 1.6-.6 2.5 0 1.4.5 2.5 1.4 3.4.9.9 2.1 1.4 3.4 1.4.9 0 1.7-.2 2.5-.6.8-.4 1.3-1 1.8-1.8.4-.7.6-1.6.6-2.5 0-.9-.2-1.7-.6-2.5-.4-.7-1-1.3-1.8-1.8-.8-.4-1.7-.6-2.5-.6zM65.2 55.6h2.3c1.3 0 2.1.1 2.6.2.7.2 1.2.5 1.7 1s.6 1.1.6 1.9c0 .6-.1 1.2-.4 1.6-.3.5-.7.8-1.3 1.1-.5.2-1.3.4-2.2.4l4.1 5.3h-1.4L67 61.7h-.6V67h-1.1V55.6zm1.1 1.1v3.9h2c.8 0 1.3-.1 1.7-.2.4-.1.6-.4.9-.7.2-.3.3-.7.3-1.1 0-.4-.1-.7-.3-1s-.5-.6-.9-.7c-.3-.1-.9-.2-1.7-.2h-2zM74.7 55.6h1.2v4.3l4.6-4.3H82l-5.5 5.1 5.9 6.3h-1.5l-5-5.3V67h-1.2V55.6zM84 55.6h1.1V67H84V55.6zM88 67V55.6h.2l7.6 8.7v-8.7H97V67h-.3l-7.5-8.6V67H88zM110.8 57.5l-.9.8c-.6-.6-1.3-1.1-2.1-1.4-.8-.3-1.5-.5-2.2-.5-.9 0-1.7.2-2.6.7-.8.4-1.4 1-1.9 1.8s-.7 1.5-.7 2.4c0 .9.2 1.7.7 2.4s1.1 1.4 1.9 1.8c.8.4 1.7.7 2.7.7 1.2 0 2.2-.3 3-1 .8-.7 1.3-1.5 1.4-2.6h-3.6v-1.1h4.9c0 1.8-.5 3.2-1.6 4.2-1 1-2.4 1.6-4.2 1.6-2.1 0-3.8-.7-5-2.2-.9-1.1-1.4-2.4-1.4-3.8 0-1.1.3-2.1.8-3 .5-.9 1.3-1.7 2.2-2.2.9-.5 2-.8 3.2-.8 1 0 1.9.2 2.7.5 1 .3 1.8.9 2.7 1.7zM117.8 55.6h1.1V67h-1.1V55.6zM121.8 67V55.6h.2l7.6 8.7v-8.7h1.1V67h-.3l-7.5-8.6V67h-1.1zM144.3 57.7l-.9.7c-.5-.6-1.1-1.1-1.8-1.5s-1.5-.5-2.3-.5c-.9 0-1.8.2-2.5.7-.8.4-1.4 1-1.8 1.8-.4.7-.6 1.6-.6 2.5 0 1.4.5 2.6 1.4 3.5 1 .9 2.2 1.4 3.6 1.4 1.6 0 2.9-.6 4-1.9l.9.7c-.6.7-1.3 1.3-2.1 1.7-.9.4-1.8.6-2.8.6-2 0-3.6-.7-4.7-2-1-1.1-1.5-2.5-1.5-4.1 0-1.7.6-3.1 1.8-4.2 1.2-1.1 2.6-1.7 4.4-1.7 1.1 0 2 .2 2.9.6.7.3 1.4.9 2 1.7zM151.5 55.3c1.7 0 3.2.6 4.3 1.7 1.2 1.2 1.7 2.6 1.7 4.3 0 1.7-.6 3.1-1.7 4.2-1.2 1.2-2.6 1.7-4.2 1.7-1.7 0-3.1-.6-4.3-1.7-1.2-1.2-1.7-2.6-1.7-4.2 0-1.1.3-2.1.8-3s1.3-1.7 2.2-2.2c.9-.6 1.9-.8 2.9-.8zm.1 1.1c-.8 0-1.6.2-2.4.7-.8.4-1.3 1-1.8 1.8-.4.7-.6 1.6-.6 2.5 0 1.4.5 2.5 1.4 3.4s2.1 1.4 3.4 1.4c.9 0 1.7-.2 2.5-.6.8-.4 1.3-1 1.8-1.8.4-.7.6-1.6.6-2.5 0-.9-.2-1.7-.6-2.5-.4-.7-1-1.3-1.8-1.8-.8-.4-1.6-.6-2.5-.6zM160 55.6h2.3c1.3 0 2.1.1 2.6.2.7.2 1.2.5 1.7 1s.6 1.1.6 1.9c0 .6-.1 1.2-.4 1.6-.3.5-.7.8-1.3 1.1-.5.2-1.3.4-2.2.4l4.1 5.3H166l-4.1-5.3h-.6V67H160V55.6zm1.1 1.1v3.9h2c.8 0 1.3-.1 1.7-.2.4-.1.7-.4.9-.7.2-.3.3-.7.3-1.1 0-.4-.1-.7-.3-1s-.5-.5-.8-.7c-.3-.1-.9-.2-1.7-.2h-2.1zM169.5 55.6h2.3c1.3 0 2.2.1 2.6.2.7.2 1.2.5 1.6 1 .4.5.6 1.1.6 1.9 0 .8-.2 1.4-.6 1.9-.4.5-1 .8-1.7 1-.5.1-1.5.2-2.9.2h-.8V67h-1.1V55.6zm1.2 1.1v3.9h1.9c.8 0 1.4-.1 1.7-.2s.6-.4.9-.7c.2-.3.3-.7.3-1.1 0-.4-.1-.7-.3-1-.2-.3-.5-.5-.8-.7-.3-.1-.9-.2-1.7-.2h-2zM184.2 55.3c1.7 0 3.2.6 4.3 1.7 1.2 1.2 1.7 2.6 1.7 4.3 0 1.7-.6 3.1-1.7 4.2-1.2 1.2-2.6 1.7-4.2 1.7-1.7 0-3.1-.6-4.3-1.7-1.2-1.2-1.7-2.6-1.7-4.2 0-1.1.3-2.1.8-3s1.3-1.7 2.2-2.2c.8-.6 1.8-.8 2.9-.8zm.1 1.1c-.8 0-1.6.2-2.4.7-.8.4-1.3 1-1.8 1.8-.4.7-.6 1.6-.6 2.5 0 1.4.5 2.5 1.4 3.4s2.1 1.4 3.4 1.4c.9 0 1.7-.2 2.5-.6.8-.4 1.3-1 1.8-1.8.4-.7.6-1.6.6-2.5 0-.9-.2-1.7-.6-2.5-.4-.7-1-1.3-1.8-1.8-.9-.4-1.7-.6-2.5-.6zM192.7 55.6h2.3c1.3 0 2.1.1 2.6.2.7.2 1.2.5 1.7 1s.6 1.1.6 1.9c0 .6-.1 1.2-.4 1.6-.3.5-.7.8-1.3 1.1-.5.2-1.3.4-2.2.4l4 5.2h-1.4l-4.1-5.3h-.6V67h-1.1V55.6zm1.1 1.1v3.9h2c.8 0 1.3-.1 1.7-.2.4-.1.7-.4.9-.7.2-.3.3-.7.3-1.1 0-.4-.1-.7-.3-1s-.5-.5-.8-.7c-.3-.1-.9-.2-1.7-.2h-2.1zM207.1 55.6l5.3 11.4h-1.2l-1.8-3.8h-4.9l-1.8 3.8h-1.3l5.4-11.4h.3zM207 58l-2 4.1h3.9L207 58zM212.3 56.7v-1.1h6.2v1.1H216V67h-1.2V56.7h-2.5zM220.3 55.6h6.5v1.1h-5.4v3.6h5.3v1.1h-5.3v4.5h5.3V67h-6.5V55.6zM229 67V55.6h2.4c1.7 0 2.9.1 3.7.4 1.1.4 2 1.1 2.6 2s.9 2.1.9 3.4c0 1.1-.2 2.1-.7 3-.5.9-1.1 1.5-1.9 1.9s-2 .7-3.4.7H229zm1.1-1.1h1.3c1.6 0 2.7-.1 3.3-.3.9-.3 1.5-.8 2-1.5s.7-1.6.7-2.7-.3-2-.8-2.8c-.5-.8-1.3-1.3-2.2-1.6-.7-.2-1.9-.3-3.5-.3h-.8v9.2z"/><path style="fill:none;stroke:#d62d28;stroke-width:1.5;stroke-linecap:round;stroke-linejoin:round;stroke-miterlimit:10" d="M8.8 50.3H238"/><g><path d="M56.6 8.2h3.7l7.4 26.2L78.1 8.2h.8l10.3 26.2 7.5-26.2h3.7L90 44.6h-.7L78.5 17.1l-11 27.5h-.7L56.6 8.2zM108.1 6.6c.8 0 1.5.3 2 .8.6.6.8 1.2.8 2s-.3 1.4-.8 2c-.6.6-1.2.8-2 .8s-1.4-.3-2-.8c-.6-.6-.8-1.2-.8-2s.3-1.5.8-2 1.2-.8 2-.8zm-1.8 11.1h3.5v26.9h-3.5V17.7zM117 17.7h3.5v4.8c1.4-1.8 2.9-3.2 4.6-4.1 1.7-.9 3.5-1.4 5.5-1.4s3.8.5 5.3 1.5c1.6 1 2.7 2.4 3.4 4.1.7 1.7 1.1 4.4 1.1 8.1v13.8H137V31.8c0-3.1-.1-5.2-.4-6.2-.4-1.8-1.2-3.1-2.3-4-1.1-.9-2.6-1.3-4.4-1.3-2.1 0-4 .7-5.6 2.1-1.7 1.4-2.7 3.1-3.3 5.1-.3 1.3-.5 3.8-.5 7.3v9.9H117v-27zM148.4 8.2h3.6V41h14v3.5h-17.6V8.2zM186.6 8.2l16.9 36.3h-3.9l-5.7-12h-15.7l-5.7 12h-4.1l17.2-36.3h1zm-.4 7.8L180 29.2h12.4L186.2 16zM209.2 44.6V8.2h.8l24.2 27.9V8.2h3.6v36.3h-.8L213 17v27.5h-3.8z"/></g><path style="fill:none" d="M249.6 0v72"/></svg>