<svg version="1.1" id="Layer_1" xmlns="http://www.w3.org/2000/svg" x="0" y="0" width="340.5" height="118.5" style="enable-background:new 0 0 340.5 118.5" xml:space="preserve"><style>.st1{fill:#fff}</style><path d="M307.3 58.9c0 21.9-17.7 39.6-39.6 39.6-21.9 0-39.6-17.7-39.6-39.6 0-21.8 17.7-39.5 39.5-39.6h.1c22 .1 39.6 17.8 39.6 39.6" style="fill:#ea6924"/><path d="M43.8 52.9c.1.2-.1.2-.4.2-.1 0-.2-.1-.2-.2-.3-1.1-.8-1.8-1.5-2.2-.6-.4-1.4-.6-2.5-.6h-1c-.4 0-.6.1-.7.2-.1.1-.2.3-.2.7v11.1c0 .6.1 1 .4 1.2.3.3.9.5 1.9.6.1 0 .2.1.2.3 0 .2-.1.3-.2.3-.5 0-1.1 0-1.7-.1-.7 0-1.2-.1-1.6-.1-.4 0-1 0-1.7.1-.7 0-1.2.1-1.7.1-.1 0-.2-.1-.2-.3 0-.2.1-.3.2-.3 1-.1 1.6-.3 1.9-.6.2-.2.3-.6.3-1.2V51c0-.3-.1-.5-.2-.7-.1-.1-.4-.2-.7-.2h-.9c-1 0-1.9.3-2.7.7-.9.5-1.4 1.2-1.7 2.1 0 .1-.1.2-.2.2-.2 0-.4-.1-.4-.2v-.1c.4-1.1.8-2.4 1.2-3.7 1 .2 3.3.3 6.8.3 3.7 0 6-.1 7-.3 0 1 .2 2.2.5 3.8M55.8 64.3c0 .2-.1.3-.2.3-.3 0-.7 0-1.1-.1-.5 0-.9-.1-1.2-.1-.4 0-.8 0-1.2.1-.5 0-.8.1-1.1.1-.1 0-.2-.1-.2-.3 0-.2.1-.3.2-.3.6-.1.9-.3 1.1-.6.1-.2.2-.6.2-1.2v-3.7c0-1.6-.7-2.4-2.2-2.4-.9 0-1.7.4-2.3 1.1v4.9c0 .7.1 1.1.3 1.4.2.2.6.4 1.1.5.1 0 .2.1.2.3 0 .2-.1.3-.2.3-.3 0-.7 0-1.2-.1-.5 0-1-.1-1.3-.1-.4 0-.8 0-1.2.1-.4 0-.8.1-1.1.1-.1 0-.2-.1-.2-.3 0-.2.1-.3.2-.3.7-.1 1.1-.2 1.3-.5.1-.2.2-.6.2-1.3V51.9c0-.6-.1-.9-.2-1.1-.1-.2-.5-.3-1-.4-.1 0-.2-.1-.2-.3 0-.2.1-.3.2-.3 1.2-.3 2.1-.6 2.7-1.1.1-.1.2-.2.3-.2.2 0 .3.1.3.2-.1 1.2-.2 2.5-.2 3.8v3.7c1-1 2.1-1.5 3.1-1.5 1.1 0 1.9.3 2.5.9.6.6.9 1.3.9 2.3v4.2c0 .7.1 1.1.2 1.3.2.3.6.4 1.3.5v.4M66.9 59.9c0 1.4-.5 2.6-1.4 3.6-.9 1-2.2 1.4-3.7 1.4s-2.8-.5-3.7-1.4c-.9-1-1.4-2.1-1.4-3.6 0-1.4.5-2.7 1.4-3.7.9-1 2.2-1.5 3.7-1.5s2.8.5 3.7 1.5c.9 1 1.4 2.3 1.4 3.7m-2.2 0c0-1.3-.2-2.3-.7-3.1-.5-.9-1.2-1.3-2.2-1.3-.9 0-1.6.4-2.2 1.3-.5.8-.7 1.8-.7 3.1s.2 2.3.7 3.1c.5.8 1.2 1.3 2.2 1.3.9 0 1.7-.4 2.2-1.3.5-.8.7-1.8.7-3.1zM85.7 64.3c0 .2-.1.3-.2.3-.3 0-.7 0-1.1-.1-.4 0-.9-.1-1.2-.1-.4 0-.8 0-1.2.1-.4 0-.8.1-1.1.1-.1 0-.2-.1-.2-.3 0-.2.1-.3.2-.3.6-.1.9-.3 1.1-.6.1-.2.1-.6.1-1.2v-3.7c0-1.6-.6-2.4-1.9-2.4-.9 0-1.6.3-2.2.9v5.1c0 .6.1 1.1.2 1.2.1.3.5.5 1.1.6.1 0 .2.1.2.3 0 .2-.1.3-.2.3-.3 0-.6 0-1.1-.1-.4 0-.8-.1-1.1-.1-.4 0-.8 0-1.2.1-.4 0-.8.1-1.1.1-.1 0-.2-.1-.2-.3 0-.2.1-.3.2-.3.6-.1.9-.3 1.1-.6.1-.2.2-.6.2-1.2v-3.7c0-1.6-.7-2.4-2-2.4-.8 0-1.5.4-2.2 1.1V62c0 .6.1 1.1.2 1.2.1.3.5.5 1.1.6.1 0 .2.1.2.3 0 .2-.1.3-.2.3-.3 0-.7 0-1.1-.1-.5 0-.9-.1-1.2-.1-.4 0-.8 0-1.2.1-.4 0-.8.1-1.1.1-.1 0-.2-.1-.2-.3 0-.2.1-.3.2-.3.7-.1 1.1-.3 1.2-.5.1-.2.2-.6.2-1.3v-4c0-.6-.1-.9-.2-1.1-.1-.2-.5-.4-1-.4-.1 0-.2-.1-.2-.3 0-.2.1-.3.2-.3 1.2-.3 2-.7 2.7-1.1l.1-.1s.1-.1.2-.1c.2 0 .3.1.3.2l-.1 1.4c1.1-1 2-1.5 2.9-1.5 1.4 0 2.3.5 2.8 1.6 1.1-1.1 2.2-1.6 3.3-1.6 1.1 0 1.9.3 2.4.9.5.6.8 1.3.8 2.2V62c0 .7.1 1.1.2 1.3.2.3.6.4 1.2.5 0 .2.1.3.1.5M97 59.9c0 1.4-.5 2.6-1.5 3.6s-2.2 1.4-3.8 1.4c-.9 0-1.6-.2-2.2-.5v3.4c0 .7.1 1.1.2 1.3.2.3.6.5 1.3.5.1 0 .2.1.2.3 0 .2-.1.3-.2.3-.3 0-.7 0-1.2-.1-.5 0-.9-.1-1.3-.1s-.8 0-1.3.1c-.5 0-.9.1-1.2.1V70c0-.2.1-.3.2-.3.7-.1 1.1-.3 1.3-.5.1-.2.2-.7.2-1.3V58c0-.6-.1-.9-.2-1.1-.2-.2-.5-.4-1.1-.4-.1 0-.2-.1-.2-.3 0-.2.1-.3.2-.3 1.2-.3 2-.7 2.7-1.1.2-.1.3-.2.3-.2.2 0 .3.1.3.2l-.1 1.4c.4-.4.9-.8 1.4-1.1.5-.3 1-.4 1.3-.4 1.5 0 2.7.5 3.5 1.5.8 1 1.2 2.2 1.2 3.7m-2.2 0c0-1.2-.3-2.2-.8-2.9-.5-.7-1.3-1-2.2-1-.7 0-1.5.4-2.2 1.2v5.4c0 .5.2.9.6 1.2.4.3.9.5 1.5.5 2.1-.1 3.1-1.5 3.1-4.4zM105.6 61.7c0 .9-.4 1.7-1.1 2.3-.7.6-1.6.9-2.5.9-.4 0-.9-.1-1.5-.2s-1.1-.2-1.3-.2c-.1-.5-.2-1.3-.4-2.3 0-.1.1-.2.3-.2.2 0 .3.1.3.2.2.5.5 1 1 1.4.5.4 1 .6 1.5.6 1.2 0 1.7-.6 1.7-1.7 0-.6-.4-1.1-1.2-1.5-.8-.4-1.5-.8-2.3-1.2-.8-.6-1.2-1.3-1.2-2.2 0-.8.3-1.4 1-2 .7-.6 1.5-.8 2.4-.8.4 0 .8.1 1.4.2.5.1.9.2 1 .2 0 .8.1 1.5.1 2.2 0 .1-.1.2-.3.2-.2 0-.3-.1-.3-.2-.1-.5-.3-1-.6-1.3-.3-.3-.7-.5-1.2-.5-1.1 0-1.7.5-1.7 1.5 0 .6.4 1.1 1.3 1.6.8.4 1.6.8 2.3 1.3.8.3 1.3 1 1.3 1.7M117.2 59.9c0 1.4-.5 2.6-1.4 3.6-.9 1-2.2 1.4-3.7 1.4s-2.8-.5-3.7-1.4c-.9-1-1.4-2.1-1.4-3.6 0-1.4.5-2.7 1.4-3.7.9-1 2.2-1.5 3.7-1.5s2.8.5 3.7 1.5c1 1 1.4 2.3 1.4 3.7m-2.2 0c0-1.3-.2-2.3-.7-3.1-.5-.9-1.2-1.3-2.2-1.3-.9 0-1.6.4-2.2 1.3-.5.8-.7 1.8-.7 3.1s.2 2.3.7 3.1c.5.8 1.2 1.3 2.2 1.3.9 0 1.7-.4 2.2-1.3.5-.8.7-1.8.7-3.1zM129.9 64.3c0 .2-.1.3-.2.3-.3 0-.7 0-1.1-.1-.4 0-.9-.1-1.2-.1-.4 0-.8 0-1.2.1-.5 0-.8.1-1.1.1-.1 0-.2-.1-.2-.3 0-.2.1-.3.2-.3.6-.1.9-.3 1.1-.6.1-.2.2-.6.2-1.2v-3.7c0-1.6-.7-2.4-2-2.4-.8 0-1.5.4-2.2 1.1v4.9c0 .6.1 1.1.2 1.2.1.3.5.5 1.1.6.1 0 .2.1.2.3 0 .2-.1.3-.2.3-.3 0-.7 0-1.1-.1-.5 0-.9-.1-1.2-.1-.4 0-.8 0-1.2.1-.5 0-.8.1-1.1.1-.1 0-.2-.1-.2-.3 0-.2.1-.3.2-.3.7-.1 1.1-.2 1.3-.5.1-.2.2-.6.2-1.3V58c0-.6-.1-.9-.2-1.1-.2-.2-.5-.4-1.1-.4-.1 0-.2-.1-.2-.3 0-.2.1-.3.2-.3 1.2-.3 2-.7 2.7-1.1l.1-.1s.1-.1.2-.1c.2 0 .3.1.3.2l-.1 1.4c1-1 2-1.5 2.9-1.5 1 0 1.8.3 2.4.9.5.6.8 1.3.8 2.2V62c0 .7.1 1.1.2 1.3.2.3.6.4 1.2.5.1.2.1.3.1.5M149.9 56.3c0 .2-.1.2-.2.3-1.3.2-2.2.7-2.8 1.4l-2.3 2.9c.9 1.1 1.6 1.8 2 2.1.5.4.9.6 1.3.6.6 0 1-.2 1.5-.7.1-.1.2 0 .3.1.1.2.1.3 0 .3-.8 1-1.7 1.5-2.7 1.5-.7 0-1.4-.2-2-.7-.4-.3-.9-.9-1.6-1.7-.6.8-1.2 1.4-1.8 1.7-.8.5-1.7.7-2.7.7-.9 0-1.8-.4-2.5-1.1-.7-.7-1-1.5-1-2.5 0-1.5 1.2-2.8 3.6-3.9-.7-.8-1-1.6-1-2.3 0-.8.3-1.5.8-2.1.6-.7 1.3-1 2.2-1 .7 0 1.3.2 1.8.7.5.4.7.9.7 1.5 0 .9-.8 1.8-2.4 2.7l3.1 3.5c.7-.8 1.1-1.4 1.3-1.7.3-.5.5-.9.5-1.2 0-.5-.6-.8-1.8-.9-.1 0-.2-.1-.2-.3 0-.2.1-.3.2-.3.3 0 .7 0 1.3.1.6 0 1.1.1 1.6.1.4 0 .9 0 1.5-.1.5 0 1-.1 1.2-.1 0 .2.1.2.1.4m-7 5.6-3.6-4c-1.3 1-2 2-2 3.1 0 .7.2 1.3.6 1.8.5.5 1.1.7 1.9.7 1.2.1 2.2-.5 3.1-1.6zm-.7-7.7c0-1-.4-1.5-1.3-1.5-.3 0-.6.1-.8.4-.3.3-.5.7-.5 1.3 0 .6.3 1.3 1 2.1 1.1-.7 1.6-1.5 1.6-2.3zM172.2 64.3c0 .2-.1.3-.2.3-.5 0-1.1 0-1.7-.1-.7 0-1.2-.1-1.7-.1-.4 0-1 0-1.8.1-.8 0-1.4.1-1.9.1-.1 0-.2-.1-.2-.3 0-.2.1-.3.2-.3 1-.1 1.5-.3 1.5-.7 0-.2-.2-.5-.5-.8l-4.4-4.4c-.4-.4-.8-.6-1.3-.6v4.6c0 .6.1 1 .4 1.2.3.3.9.5 1.9.6.1 0 .2.1.2.3 0 .2-.1.3-.2.3-.5 0-1.1 0-1.7-.1-.7 0-1.2-.1-1.7-.1-.4 0-1 0-1.6.1-.7 0-1.2.1-1.7.1-.1 0-.2-.1-.2-.3 0-.2.1-.3.2-.3 1-.1 1.6-.3 1.9-.6.2-.2.4-.6.4-1.2V51.8c0-.6-.1-1.1-.4-1.3-.3-.3-.9-.5-1.9-.6-.1 0-.2-.1-.2-.3 0-.2.1-.3.2-.3.5 0 1.1 0 1.7.1.7 0 1.2.1 1.6.1.5 0 1 0 1.7-.1.7 0 1.2-.1 1.7-.1.1 0 .2.1.2.3 0 .2-.1.3-.2.3-1 .1-1.6.3-1.9.6-.2.2-.4.6-.4 1.3v5c.5 0 .9-.2 1.3-.6l4.8-4.8c.4-.4.6-.7.6-.8 0-.4-.5-.6-1.4-.7-.1 0-.2-.1-.2-.3 0-.2.1-.3.2-.3.3 0 .8 0 1.4.1.6 0 1.1.1 1.5.1.4 0 .8 0 1.3-.1.4 0 .8-.1 1.1-.1.1 0 .2.1.2.3 0 .2-.1.3-.2.3-.7.1-1.3.2-1.7.4-.4.2-.9.6-1.5 1.1l-5 4.8 6.2 6.3c.5.5 1 .8 1.5 1.1.4.2.9.3 1.7.4.2 0 .2.1.2.3M184.2 64.3c0 .2-.1.3-.2.3-.3 0-.7 0-1.1-.1-.4 0-.9-.1-1.2-.1-.4 0-.8 0-1.2.1-.5 0-.8.1-1.1.1-.1 0-.2-.1-.2-.3 0-.2.1-.3.2-.3.6-.1.9-.3 1.1-.6.1-.2.2-.6.2-1.2v-3.7c0-1.6-.7-2.4-2-2.4-.8 0-1.5.4-2.2 1.1v4.9c0 .6.1 1.1.2 1.2.1.3.5.5 1.1.6.1 0 .2.1.2.3 0 .2-.1.3-.2.3-.3 0-.7 0-1.1-.1-.5 0-.9-.1-1.2-.1-.4 0-.8 0-1.2.1-.5 0-.8.1-1.1.1-.1 0-.2-.1-.2-.3 0-.2.1-.3.2-.3.7-.1 1.1-.2 1.3-.5.1-.2.2-.6.2-1.3V58c0-.6-.1-.9-.2-1.1-.2-.2-.5-.4-1.1-.4-.1 0-.2-.1-.2-.3 0-.2.1-.3.2-.3 1.2-.3 2-.7 2.7-1.1l.1-.1s.1-.1.2-.1c.2 0 .3.1.3.2l-.1 1.4c1-1 2-1.5 2.9-1.5 1 0 1.8.3 2.4.9.5.6.8 1.3.8 2.2V62c0 .7.1 1.1.2 1.3.2.3.6.4 1.2.5 0 .2.1.3.1.5M190.1 64.3c0 .2-.1.3-.2.3-.3 0-.7 0-1.2-.1-.5 0-.9-.1-1.3-.1s-.8 0-1.3.1c-.5 0-.9.1-1.2.1-.1 0-.2-.1-.2-.3 0-.2.1-.3.2-.3.7-.1 1.1-.3 1.2-.5.1-.2.2-.6.2-1.3V58c0-.6-.1-.9-.2-1.1-.1-.2-.5-.4-1-.4-.1 0-.2-.1-.2-.3 0-.2.1-.3.2-.3 1.2-.3 2.1-.7 2.7-1.1l.1-.1s.1-.1.2-.1c.2 0 .3.1.3.2-.1 1.8-.1 3.1-.1 3.8V62c0 .7.1 1.1.2 1.3.2.3.6.5 1.3.5.3.2.3.3.3.5M188.6 51c0 .3-.1.6-.3.8-.2.2-.5.3-.8.3-.3 0-.6-.1-.8-.3-.2-.2-.3-.5-.3-.8 0-.3.1-.6.3-.8.2-.2.5-.3.8-.3.3 0 .6.1.8.3.2.2.3.5.3.8zM200.8 66.1c0 1.2-.6 2.2-1.8 3.1-1.3.9-2.8 1.3-4.5 1.3-1.2 0-2.1-.3-2.9-.8-.8-.6-1.2-1.2-1.2-2.1 0-.6.3-1.1.9-1.7.5-.5 1-.8 1.6-1-.5-.2-.8-.5-1.1-.9-.3-.4-.4-.7-.4-1.1 0-.3.2-.6.7-.9.5-.3 1-.5 1.5-.6-1.3-.7-2-1.6-2-2.9 0-1 .4-1.9 1.2-2.6.8-.8 1.7-1.1 2.8-1.1 1.1 0 2.1.3 2.9.9l2.1-.1c.2 0 .3.2.3.6 0 .4-.1.6-.3.6H199c.3.4.4.9.4 1.4 0 1.1-.4 1.9-1.2 2.6-.8.7-1.7 1-2.8 1h-.4c-1.1 0-1.6.3-1.6.8 0 .6.5.9 1.6.9h2.4c1.1 0 1.9.2 2.5.6.6.6.9 1.2.9 2m-1.4.8c0-.5-.2-.9-.5-1.1-.3-.2-.9-.3-1.7-.4h-2.4c-.5 0-1-.1-1.3-.2-.9.5-1.3 1.1-1.3 1.9 0 .7.3 1.3.9 1.8.6.4 1.4.7 2.3.7 1.1 0 2-.3 2.8-.8.8-.5 1.2-1.1 1.2-1.9zm-2.1-8.7c0-1.8-.6-2.7-1.8-2.7-1.2 0-1.8 1-1.8 3.1 0 1.8.6 2.7 1.8 2.7 1.2-.1 1.8-1.1 1.8-3.1zM212.8 64.3c0 .2-.1.3-.2.3-.3 0-.7 0-1.1-.1-.5 0-.9-.1-1.2-.1-.4 0-.8 0-1.2.1-.5 0-.8.1-1.1.1-.1 0-.2-.1-.2-.3 0-.2.1-.3.2-.3.6-.1.9-.3 1.1-.6.1-.2.2-.6.2-1.2v-3.7c0-1.6-.7-2.4-2.2-2.4-.9 0-1.7.4-2.3 1.1v4.9c0 .7.1 1.1.3 1.4.2.2.6.4 1.1.5.1 0 .2.1.2.3 0 .2-.1.3-.2.3-.3 0-.7 0-1.2-.1-.5 0-1-.1-1.3-.1-.4 0-.8 0-1.2.1-.4 0-.8.1-1.1.1-.1 0-.2-.1-.2-.3 0-.2.1-.3.2-.3.7-.1 1.1-.2 1.3-.5.1-.2.2-.6.2-1.3V51.9c0-.6-.1-.9-.2-1.1-.1-.2-.5-.3-1-.4-.1 0-.2-.1-.2-.3 0-.2.1-.3.2-.3 1.2-.3 2.1-.6 2.7-1.1.1-.1.2-.2.3-.2.2 0 .3.1.3.2-.1 1.2-.2 2.5-.2 3.8v3.7c1-1 2.1-1.5 3.1-1.5 1.1 0 1.9.3 2.5.9.6.6.9 1.3.9 2.3v4.2c0 .7.1 1.1.2 1.3.2.3.6.4 1.3.5v.4M220.5 55.9c0 .4-.1.6-.3.6l-3.3-.1v5.3c0 1.4.5 2.1 1.5 2.1.6 0 1.2-.1 1.6-.4.1 0 .1 0 .2.1s.1.2.1.3c0 .1 0 .2-.1.2-.8.6-1.6 1-2.5 1-.9 0-1.5-.3-2-.8s-.7-1.2-.7-2.1v-5.3c0-.2-.1-.3-.3-.3h-.8c-.2 0-.2-.1-.2-.3 0-.1.1-.3.2-.3 1-.6 1.9-1.4 2.7-2.5.1-.1.2-.2.3-.2.2 0 .3.1.3.2l-.1 2.1h3.3c0-.2.1 0 .1.4"/><path class="st1" d="M237.3 50.3h1.9v14.2h-1.9zM243 55h1.7v1.5c.2-.6 1.3-1.7 3-1.7 1.4 0 2.4.6 3 1.8.6-1.2 1.9-1.8 3-1.8 2.9 0 3.6 2.1 3.6 4.2v5.5h-1.8v-5.3c0-1.4-.3-2.8-2-2.8s-2.4 1.2-2.4 2.9v5.2h-1.8v-5c0-1.8-.3-3.1-2-3.1-1.3 0-2.5 1-2.5 3.1v4.9H243V55zM260.7 55h1.8v1.4c.7-1 2-1.6 3.3-1.6 2.9 0 4.8 2.2 4.8 5s-1.9 5-4.8 5c-1.4 0-2.7-.6-3.3-1.6v7h-1.8V55zm1.8 4.7c0 1.9 1.2 3.3 3.1 3.3 1.9 0 3.1-1.4 3.1-3.3s-1.2-3.3-3.1-3.3c-1.9 0-3.1 1.4-3.1 3.3zM273.1 56.1c1-.9 2.4-1.4 3.8-1.4 2.8 0 4 1.5 4 3.2v4.8c0 .7 0 1.2.1 1.7h-1.6c0-.5-.1-1-.1-1.4-.8 1.2-1.9 1.7-3.3 1.7-1.8 0-3.3-1-3.3-2.8 0-2.4 2.3-3.3 5.2-3.3h1.3v-.4c0-1-.7-2-2.3-2-1.4 0-2 .6-2.7 1.1l-1.1-1.2zm5.1 3.8c-1.7 0-3.8.3-3.8 1.8 0 1.1.8 1.5 2 1.5 2 0 2.7-1.5 2.7-2.8v-.6h-.9zM290.8 57.5c-.7-.7-1.4-1.1-2.4-1.1-2 0-3 1.6-3 3.4 0 1.8 1.2 3.2 3.1 3.2 1 0 1.7-.4 2.3-1.1l1.3 1.3c-.9 1-2.2 1.5-3.6 1.5-2.9 0-5-2-5-4.9 0-2.9 2-5 5-5 1.4 0 2.7.5 3.6 1.5l-1.3 1.2zM300.2 56.5h-2.6v4.3c0 1.1 0 2.2 1.4 2.2.4 0 .9-.1 1.3-.3v1.6c-.4.2-1.3.3-1.6.3-2.8 0-2.8-1.7-2.8-3.2v-4.9h-2.1V55h2.1v-2.7h1.8V55h2.6v1.5z"/><path d="M31.4 82.5h.6l2.3 5.3h-.8l-.5-1.3h-2.5l-.5 1.3h-.8l2.2-5.3zm1.3 3.3-1-2.4-1 2.4h2zM38.7 83.1H37v-.6h4.1v.6h-1.7v4.6h-.7zM46.3 83.1h-1.7v-.6h4.1v.6h-1.6v4.6h-.8zM52.5 85.1c0-1.6 1.1-2.8 2.7-2.8s2.7 1.2 2.7 2.8c0 1.6-1.1 2.8-2.7 2.8-1.5-.1-2.7-1.3-2.7-2.8m4.7 0c0-1.2-.8-2.1-2-2.1s-2 .9-2 2.1c0 1.2.8 2.1 2 2.1 1.3 0 2-1 2-2.1zM62.4 82.5h1.8c1.3 0 1.7.8 1.7 1.5s-.5 1.3-1.3 1.4l1.5 2.4h-.9l-1.3-2.3h-.8v2.3h-.7v-5.3zm.7 2.3h.9c.6 0 1.1-.1 1.1-.8 0-.7-.6-.8-1.1-.8h-.9v1.6zM70.3 82.5h.9l2.9 4.3v-4.3h.7v5.2h-.9L71 83.4v4.3h-.7zM79.5 82.5h3.4v.6h-2.7v1.6h2.5v.7h-2.5V87H83v.7h-3.5zM88.6 85.5l-2-3h1l1.4 2.3 1.5-2.3h.8l-2 3v2.2h-.7zM95.4 86.6c.3.4.7.6 1.1.6.5 0 1-.3 1-.9 0-1.2-2.6-.5-2.6-2.5 0-.6.5-1.5 1.8-1.5.6 0 1.1.1 1.5.6l-.6.5c-.2-.3-.5-.5-.9-.5-.8 0-1 .5-1 .8 0 1.3 2.6.5 2.6 2.4 0 1-.8 1.6-1.8 1.6-.7 0-1.3-.2-1.7-.7l.6-.4zM109.8 82.5h.6l2.2 5.3h-.8l-.5-1.3h-2.5l-.5 1.3h-.8l2.3-5.3zm1.3 3.3-1-2.4-1 2.4h2zM116.7 82.5h1l2.9 4.3v-4.3h.7v5.2h-.9l-2.9-4.3h-.1v4.3h-.7zM125.9 82.5h1.8c2.2 0 2.8 1.7 2.8 2.6 0 1.3-1 2.6-2.9 2.6h-1.7v-5.2zm.7 4.5h.9c1.2 0 2.2-.7 2.2-2 0-.7-.3-2-2.1-2h-1.1v4zM143.9 83.6c-.3-.4-.8-.6-1.3-.6-1.2 0-2 .9-2 2.1 0 1.1.7 2.1 2 2.1.6 0 1.1-.3 1.4-.7l.6.5c-.2.2-.8.9-2 .9-1.7 0-2.7-1.4-2.7-2.7 0-1.6 1.1-2.8 2.7-2.8.7 0 1.4.3 1.8.8l-.5.4zM148.5 85.1c0-1.6 1.1-2.8 2.7-2.8s2.7 1.2 2.7 2.8c0 1.6-1.1 2.8-2.7 2.8-1.6-.1-2.7-1.3-2.7-2.8m4.7 0c0-1.2-.8-2.1-2-2.1s-2 .9-2 2.1c0 1.2.8 2.1 2 2.1s2-1 2-2.1zM159 82.5v3.2c0 .7.3 1.5 1.3 1.5s1.3-.8 1.3-1.5v-3.2h.7v3.3c0 1.2-.9 2.1-2 2.1-1.2 0-2-.8-2-2.1v-3.3h.7zM166.9 82.5h.9l2.9 4.3h.1v-4.3h.7v5.2h-.9l-3-4.3v4.3h-.7zM176.3 86.6c.3.4.7.6 1.1.6.5 0 1-.3 1-.9 0-1.2-2.6-.5-2.6-2.5 0-.6.5-1.5 1.8-1.5.6 0 1.1.1 1.5.6l-.6.5c-.2-.3-.5-.5-.9-.5-.8 0-1 .5-1 .8 0 1.3 2.6.5 2.6 2.4 0 1-.8 1.6-1.8 1.6-.7 0-1.3-.2-1.7-.7l.6-.4zM183.6 82.5h3.4v.6h-2.6v1.6h2.4v.7h-2.4V87h2.8v.7h-3.6zM191.5 82.5h.7V87h2.4v.7h-3.1zM198.4 85.1c0-1.6 1.1-2.8 2.7-2.8s2.7 1.2 2.7 2.8c0 1.6-1.1 2.8-2.7 2.8-1.6-.1-2.7-1.3-2.7-2.8m4.7 0c0-1.2-.8-2.1-2-2.1s-2 .9-2 2.1c0 1.2.8 2.1 2 2.1s2-1 2-2.1zM208.2 82.5h1.8c1.3 0 1.7.8 1.7 1.5s-.5 1.3-1.3 1.4l1.5 2.4h-.9l-1.3-2.3h-.7v2.3h-.7v-5.3zm.8 2.3h.9c.6 0 1.1-.1 1.1-.8 0-.7-.6-.8-1.1-.8h-.9v1.6zM216.3 86.6c.3.4.7.6 1.1.6.5 0 1-.3 1-.9 0-1.2-2.6-.5-2.6-2.5 0-.6.5-1.5 1.8-1.5.6 0 1.1.1 1.5.6l-.6.5c-.2-.3-.5-.5-.9-.5-.8 0-1 .5-1 .8 0 1.3 2.6.5 2.6 2.4 0 1-.8 1.6-1.8 1.6-.7 0-1.3-.2-1.7-.7l.6-.4zM302.4 21c1.5 0 2.7 1.2 2.7 2.8 0 1.6-1.2 2.8-2.8 2.8-1.5 0-2.8-1.2-2.8-2.8.1-1.6 1.4-2.8 2.9-2.8zm0 .4c-1.2 0-2.2 1.1-2.2 2.4 0 1.3 1 2.4 2.2 2.4 1.2 0 2.2-1 2.2-2.4.1-1.4-.9-2.4-2.2-2.4zm-.5 4h-.5v-3.1c.3 0 .5-.1.9-.1.5 0 .8.1 1 .2.2.1.3.3.3.6 0 .4-.3.7-.6.8.3 0 .5.3.5.8.1.5.1.7.2.8h-.5c-.1-.1-.1-.4-.2-.8s-.3-.5-.7-.5h-.3v1.3zm0-1.7h.4c.4 0 .8-.1.8-.5 0-.3-.2-.5-.8-.5h-.4v1z"/></svg>