<svg xmlns="http://www.w3.org/2000/svg" width="381.9" height="327.6" style="enable-background:new 0 0 381.9 327.6" xml:space="preserve"><path d="m188 0-36.4 63 39.6 68.4h-74.5l34.6-60.2-14.9-26-2.3 3.8 12.7 22.2-35 60.8 1.9 3.3h84.6l-42.1-72.4 33.7-58.3 27.7 47.9-31.1 53.6 7.1 12.4 55.5-95.9-2.2-3.9-53.1 92.2-2.7-4.8 31-53.6L191.8 0zM203.2 135.3h61.3l2.3-3.9h-61.4l53.1-92 .2-.4-2.3-3.8-55.5 96.2z"/><path d="m198.1 127.7 55.8-96.9-2.2-3.9-55.9 96.9zM2.2 202c.4 3.2 3.1 5 7.1 5 3.7 0 6.1-1.5 6.1-4.7 0-4.2-4-4.6-8-5.5-2.9-.6-6.8-1.6-6.8-6.4 0-4.2 3.1-6.5 8.3-6.5 4.7 0 7.9 1.9 8.8 5.8l-2.1.6c-.8-2.6-2.6-4.3-6.6-4.3-3.8 0-6 1.5-6 4.4 0 3.3 3 4 6.7 4.8 3 .6 8.1 1.5 8.1 7.1 0 4.6-3.4 6.8-8.5 6.8-3.7 0-8.4-1.1-9.3-6.5l2.2-.6zM43.4 193.3c-1.8-4.4-2.6-6.6-2.7-6.7h-.1s-.9 2.4-2.8 7l-2.4 5.8h10.4l-2.4-6.1zm-8.9 8.2-2.9 7h-2.5l10.2-24.1H42l10.1 24.1h-2.5l-2.9-7H34.5zM65.7 202c.4 3.2 3.1 5 7.1 5 3.7 0 6.1-1.5 6.1-4.7 0-4.2-4-4.6-8-5.5-2.9-.6-6.8-1.6-6.8-6.4 0-4.2 3.1-6.5 8.3-6.5 4.7 0 7.9 1.9 8.8 5.8l-2.1.6c-.7-2.7-2.5-4.4-6.5-4.4-3.8 0-6 1.5-6 4.4 0 3.3 3 4 6.7 4.8 3 .6 8.1 1.5 8.1 7.1 0 4.6-3.4 6.8-8.5 6.8-3.7 0-8.4-1.1-9.3-6.5l2.1-.5zM102.2 195.7l-4.8 4.9v8H95v-24.1h2.4v13.1h.1l3.6-3.6 9.5-9.5h3.1l-9.5 9.6 10.5 14.5h-2.8l-9.7-12.9zM140.1 193.3c-1.8-4.4-2.6-6.6-2.7-6.7h-.1s-.9 2.4-2.8 7l-2.4 5.8h10.4l-2.4-6.1zm-8.9 8.2-2.9 7h-2.5l10.2-24.1h2.7l10.1 24.1h-2.5l-2.9-7h-12.2zM166.7 186.7v21.9h-2.4v-21.9h-8.6v-2.2h19.6v2.2zM209.5 202.1c-2 4.2-6.2 7-11.4 7-7.2 0-12.6-5.3-12.6-12.6 0-7.2 5.5-12.5 12.6-12.5 4.6 0 9.2 2.2 11.3 7.1l-2.3.6c-.6-1-2.8-5.5-8.9-5.5-6 0-10.3 4.2-10.3 10.3 0 6.1 4.4 10.3 10.2 10.3 4.3 0 7.5-2.3 9.2-5.4l2.2.7zM240 208.6v-11.4h-14.6v11.4h-2.3v-24.1h2.3v10.4H240v-10.4h2.4v24.1zM258.1 184.5h16.3v2.2h-14v8.2h11v2.2h-11v9.2h14.2v2.3h-16.5zM305 198.9c-1.6-4.9-2.5-7.9-2.5-7.9s-.9 3.1-2.5 7.9l-3.1 9.7h-2.4l-8.1-24.1h2.5l3.9 11.7c1.9 5.8 3 9.2 3 9.2s1-3.4 2.6-8.1l3-9.5h2.4l3 9.5c1.5 4.6 2.5 8 2.5 8.1 0 0 1.1-3.4 3-9.2l4-11.7h2.4l-8.1 24.1h-2.4l-3.2-9.7zM340 193.3c-1.8-4.4-2.6-6.6-2.7-6.7h-.1s-.9 2.4-2.8 7l-2.4 5.8h10.4l-2.4-6.1zm-8.9 8.2-2.9 7h-2.5l10.2-24.1h2.7l10.1 24.1h-2.5l-2.9-7h-12.2zM379.3 208.6l-14.9-20.5h-.1s.1 2.6.1 5.5v14.9H362v-24.1h2.5l14.8 20.2h.1s-.1-2.5-.1-5.3v-14.9h2.4v24.1h-2.4zM22.8 237v42.8h-4.7V237H1.2v-4.3h38.5v4.3zM49.8 232.7h31.9v4.3H54.5v16.1h21.4v4.3H54.5v18h27.6v4.4H49.8zM116.6 250c-3.6-8.7-5.1-13-5.2-13h-.2c0 .1-1.9 4.8-5.6 13.6l-4.6 11.3h20.4l-4.8-11.9zm-17.3 16-5.6 13.8h-4.9l19.9-47.1h5.3l19.9 47.1H129l-5.7-13.8h-24zM184.8 267.1c-4 8.2-12.2 13.7-22.4 13.7-14 0-24.7-10.3-24.7-24.6 0-14.1 10.7-24.5 24.6-24.5 9.1 0 18 4.3 22 13.9l-4.5 1.2c-1.2-2-5.6-10.7-17.3-10.7-11.7 0-20.2 8.2-20.2 20.1 0 12 8.6 20.2 20 20.2 8.5 0 14.7-4.5 17.9-10.6l4.6 1.3zM227.7 279.8v-22.3h-28.5v22.3h-4.6v-47.1h4.6v20.4h28.5v-20.4h4.7v47.1zM246.3 232.7h31.9v4.3H251v16.1h21.4v4.3H251v18h27.6v4.4h-32.3zM304.5 256.2c8.6 0 13.1-3.1 13.1-9.7 0-6.8-5-9.6-13.1-9.6h-9.8v19.3h9.8zm1.8 3.8c-2.1.2-4.3.2-5.5.2h-6.1v19.6h-4.6v-47.1h14.3c11.3 0 17.9 4.8 17.9 13.6 0 7.3-4.6 11.7-11.4 13l12.5 20.5h-5.1l-12-19.8zM334.5 267c.8 6.3 6.1 9.8 14 9.8 7.1 0 11.9-2.9 11.9-9.3 0-8.2-7.9-9-15.7-10.7-5.6-1.2-13.4-3.2-13.4-12.4 0-8.2 6-12.7 16.1-12.7 9.3 0 15.5 3.7 17.2 11.4l-4.2 1.2c-1.3-5.3-4.9-8.6-12.7-8.6-7.5 0-11.7 3-11.7 8.6 0 6.5 5.8 7.9 13.1 9.3 5.9 1.1 15.9 2.9 15.9 13.9 0 8.9-6.6 13.3-16.7 13.3-7.1 0-16.5-2.2-18.3-12.7l4.5-1.1zM1.8 303v24h2.4v-10.7h10.3v-2.2H4.2v-8.9h13.7V303zM41.3 303v24h16.5v-2.2H43.7v-9.2h10.9v-2.2H43.7v-8.2h13.9V303z"/><g><path d="M89.9 324.8c6.1 0 10.6-3.4 10.6-9.7 0-6.3-4.4-9.9-10.9-9.9h-5.5v19.6h5.8zm-.2-21.8c7.8 0 13.2 4.6 13.2 12.1s-5.5 12-13 12h-8.1V303h7.9z"/></g><path d="M126.5 303v24H143v-2.2h-14.2v-9.2h11v-2.2h-11v-8.2h14V303z"/><g><path d="M174.3 315c4.4 0 6.7-1.6 6.7-4.9 0-3.5-2.6-4.9-6.7-4.9h-5v9.8h5zm1 1.9c-1.1.1-2.2.1-2.8.1h-3.1v10H167v-24h7.3c5.8 0 9.2 2.4 9.2 7 0 3.7-2.4 6-5.8 6.6l6.4 10.5h-2.6l-6.2-10.2zM219.5 311.8c-1.8-4.4-2.6-6.6-2.7-6.7h-.1s-.9 2.4-2.8 7l-2.4 5.8H222l-2.5-6.1zm-8.8 8.2-2.9 7h-2.5l10.2-24.1h2.7l10.1 24.1h-2.5l-2.9-7h-12.2z"/></g><path d="M244.7 303v2.2h8.7V327h2.3v-21.8h8.7V303zM287.8 303h2.4v24.1h-2.4z"/><g><path d="M326.1 325.3c5.7 0 10.1-4.2 10.1-10.3 0-6.1-4.5-10.3-10.1-10.3-5.7 0-10.1 4.2-10.1 10.3 0 6.2 4.5 10.3 10.1 10.3m0-22.8c7 0 12.6 5.3 12.6 12.6 0 7.2-5.5 12.5-12.6 12.5-7 0-12.5-5.3-12.5-12.5 0-7.3 5.5-12.6 12.5-12.6M379.5 327l-14.9-20.5h-.1s.1 2.6.1 5.5v15h-2.4v-24h2.4l14.8 20.2h.1s-.1-2.5-.1-5.3V303h2.4v24h-2.3z"/></g><path d="M376.6 242.4v-10.5h4.9v2z"/></svg>