<svg version="1.1" id="Layer_1" xmlns="http://www.w3.org/2000/svg" xmlns:xlink="http://www.w3.org/1999/xlink" x="0" y="0" width="612" height="501" style="enable-background:new 0 0 612 501" xml:space="preserve"><style>.st1{clip-path:url(#SVGID_2_);fill:#1d1d1b}</style><path style="fill:#1d1d1b" d="M110.6 232.7v5.4h7l-11.7 21.8-12-21.8h8.6v-5.4H67.1v5.4h8.1L91.7 268h19l16.2-29.9h8.1v-5.4z"/><defs><path id="SVGID_1_" d="M67.1 232h477.7v37.1H67.1z"/></defs><clipPath id="SVGID_2_"><use xlink:href="#SVGID_1_" style="overflow:visible"/></clipPath><path class="st1" d="M284.7 238.1v-5.4h32.6v5.4h-8.1v24.4h7.5c7 0 11.5-4.6 11.5-10.9h5.4V268h-48.9v-5.5h8.2v-24.4h-8.2zM205.7 232c-16.4 0-25.1 8.2-25.1 18.4 0 10.4 8.4 18.7 25.2 18.7 16.8 0 25.1-8.3 25.1-18.7-.1-10.3-8.9-18.4-25.2-18.4m-.2 31.4c-6-.1-8.6-6.7-8.5-13.3.1-6.8 3.4-12.7 9-12.6 5.6.1 8.6 6.1 8.4 12.9-.1 6.5-2.8 13.1-8.9 13M389.3 238.1l16.4 29.9h19l16.2-29.9h8.1v-5.4h-24.4v5.4h7.1l-11.8 21.8-11.9-21.8h8.5v-5.4h-35.3v5.4zM519.7 232c-16.4 0-25.1 8.2-25.1 18.4 0 10.4 8.4 18.7 25.2 18.7 16.8 0 25.1-8.3 25.1-18.7 0-10.3-8.8-18.4-25.2-18.4m-.2 31.4c-6-.1-8.6-6.7-8.5-13.3.1-6.8 3.4-12.7 9-12.6 5.6.1 8.6 6.1 8.4 12.9-.1 6.5-2.7 13.1-8.9 13"/></svg>