<svg version="1.1" id="Layer_1" xmlns="http://www.w3.org/2000/svg" x="0" y="0" width="612" height="792" style="enable-background:new 0 0 612 792" xml:space="preserve"><style>.st0{fill:#600c12}</style><path class="st0" d="M200.5 327.4h29.3v-27.7h-29.3v-12.4h29.8V258H128.8L116 297l-12.7-39H79.2l-12.8 39L52 240.3H14.7l38 129.2h27.5l11-33.7 11.1 33.7h27.5L165.3 258v111.5h66.1v-29.2h-30.9zM273.9 258l-41.8 111.5h34.7l3.6-10h33.4l3.6 10h34.7L300.4 258h-26.5zm5.8 76.9 7.4-19.5 7.4 19.5h-14.8zM387 258l-19.1 47.9L349 258h-39l43.5 111.5h29L426 258zM461.3 327.4h29.2v-27.7h-29.2v-12.4H491V258h-65v111.5h66.2v-29.2h-30.9zM574.7 332.8c1.4-1.2 2.6-2.3 3.5-3.1.9-.8 1.7-1.6 2.3-2.3.7-.7 1.3-1.4 1.8-2 .6-.6 1.1-1.4 1.7-2.3 2-2.9 3.5-6.2 4.6-10 1.1-3.8 1.7-7.6 1.7-11.5 0-6.3-1.5-12.5-4.4-18.5-2.9-6-6.9-10.9-11.8-14.9-4.2-3.3-8.9-5.8-14.2-7.5-5.3-1.7-11.5-2.6-18.5-2.6h-39v111.5h35.2v-27.4l17.9 27.4h40l-20.8-36.8zm-22.6-26.2c-1 1.8-2.5 3.3-4.4 4.4-1.3.8-2.5 1.3-3.5 1.4-1 .2-2.7.3-5.1.3h-1.7v-24.5h1.7c2.4 0 4.1.1 5.1.3 1 .2 2.1.6 3.5 1.4 1.9 1 3.3 2.5 4.4 4.4 1 1.9 1.6 4 1.6 6.3 0 2.2-.6 4.2-1.6 6zM165 495.8c0-6.4-1.1-11.8-3.2-16.1-2.1-4.3-5.5-7.8-10.2-10.5 5.6-6 8.4-12.8 8.4-20.6 0-4.4-.9-8.6-2.8-12.5-1.8-3.9-4.5-7.3-7.9-10.1-3.2-2.6-6.7-4.5-10.5-5.7-3.7-1.2-8.4-1.8-14-1.8H78.7v112.6h47.9c5.9 0 11.2-.6 16-2.3 4.7-1.6 8.8-4 12.1-7.1 3.3-3.1 5.9-6.8 7.7-11.2 1.7-4.4 2.6-9.3 2.6-14.7zm-51.8-50.7h2.3c3.6 0 6.1.6 7.7 1.8 1.6 1.2 2.3 3.1 2.3 5.8 0 2.9-.8 5-2.3 6.3-1.6 1.2-4.1 1.9-7.7 1.9h-2.3v-15.8zm13.3 57.3c-2.3 1.6-5.9 2.4-11 2.4h-2.3v-19.6h2.3c9.6 0 14.4 3.2 14.4 9.6 0 3.5-1.2 6-3.4 7.6zM272.6 531.1l-41.5-112.6h-26.8L162 531.1h35.1l3.7-10h33.8l3.7 10h72.1V418.6h-37.8v112.5zm-62.4-34.8 7.5-19.8 7.5 19.8h-15zM355.9 418.6h-36.8v112.5H387v-29h-31.1zM523.1 418.6l-12.7 23.8-12.9-23.8H396.2v112.5h67v-29.4h-31.3v-13h29.6v-28h-29.6v-12.5H462v-21.9l30.5 56.5v64.9h35.6v-64.9l34.6-64.2z"/><g><path style="fill:#606262" d="M66.5 396.8H580v-4.5H66.5"/></g></svg>