<svg version="1.1" id="Layer_2" xmlns="http://www.w3.org/2000/svg" x="0" y="0" width="827.6" height="305.9" style="enable-background:new 0 0 827.6 305.9" xml:space="preserve"><style>.st0{fill:#f62898}</style><path class="st0" d="M456.7 90c1.8 0 2.2 1.7 2.3 4.1 1.2-1.7 3.2-3.7 4.1-3.7 2.3 0 1.1 7 .2 15.3-1 8.3-.1 14.9.5 14.8.6-.1 1.2-7.3 1.9-12.6 1.7-10.6 3.2-15.6 4.6-15.3 1.2.2-2.9 18.3-3.5 21.1s-.6 4.3 0 4.2c.9 0 1.1-2 1.4-3 2.7-11.2 5.8-15.5 9.7-19.3 6.5-5.6 9.9-6.1 11.1-6.1 1.2 0 .6 1-1.4 3.1-2.5 2.5-6.9 7.7-9.9 12.3-3 4.6-7.4 15.2-8.5 18s-1.5 4.7-1.1 5.2c5.3 7.5-1.3 8.2-5 8.5-3.7.3-2.2-5.6-2.6-6.1-9.5-10.8-26.5-19.7-31.1-19.9s-9-.8-9-1.4 6.1-2.9 10.4-2.9c10.6 0 17.2 7.3 22.2 11.9-3-5.4-11.8-14.7-14.4-17.7 11.4 5.9 17.5 15.7 22.8 21.1-3.1-5.9-12.8-19-14.6-21.7-1.8-2.7-2-5.1-2-5.1s4.3 0 6.1 1.4c0-1.4-.4-3.4.9-4.7 1.6-1.1 4.9-1.5 4.9-1.5zM145.4 102.1c4.6 0 10-.7 15-3.7 2.3-1.3 3.2-2.9 2.3-3.8-.9-.9-11.2 3.8-17 3.8-2.3 0-2.9-1.9-2.3-3.3 1.6.1 12.2.2 18.9-4.5 2.2-1.5 3.3-2.8 3.3-4.8s-2.5-3.3-5-3.3-7.2.4-13.8 3.5c-3.7 1.8-21.1 12.1-24.8 12.1-1.6 0-2.3-.6-2.3-1.6s.7-2.7 3.9-4.4c3.2-1.8 10.7-4.9 10.7-7.4 0-1-1.8-1.6-2.9-1.6-1.1 0-10 1.6-21 6.5-.6.2-.5-.9.9-1.8s23.8-16.5 27.6-19.3c3.8-2.7 17-11.8 19.9-14 .4-.3 2.9-2.8 2.3-3.1-2.8-1-6 .9-8.4 2.1-3.1 1.8-9.8 6.4-17.3 11.6-7.5 5.2-21 15-29.4 20.3-9.7 5.9-20.2 10.2-22.4 11-2.1.8-4.8.4-4.8.4.4-4 2.2-5.8 3-6.5C84.9 87.8 93.3 81 97 78.2c4-2.8 6.9-3.1 8.3-3.1 2.4 0 4.6 1 6.3-.3 3-2-3.9-1.6-5-1.8-.3-.1-1.4-.1-1.5-.5-.1-.5 1-1 1.2-1.2 1.5-1 2.9-2 4.5-2.9 3.9-2.4 10.9-6.2 12.8-7.5 1.9-1.3.1-2.7-1.2-2.7-2 .1-11.1 5.7-16.4 8.9-3.2 2-8.6 5.5-12.3 5.5-3.7 0-6-.3-8.5 1.2-1.3.7-1.8 1.7.6 1.7 4 0 6 .5 6 .5-2.9 2.5-9.5 8.2-14.9 12.7-3 2.4-5 6.2-5 9.1s2.6 4.2 6.2 4.2 12.3-4.2 17.9-6.8c0 1-.9 2.1-1.8 2.9-.9.8-1.7 1.9-.6 2.5 1 .6 1.8 1.6 4.3.3 2.5-1.5 14.4-8.9 17.6-9.7-.5 1.4-3.2 4.8-3.2 6.7 0 1.9 4.3 4 6.5 4 2.1 0 11.5-3.2 16.2-4.3.9 1.9 2.6 4.6 10.4 4.5zm15-15.5c-3.4 5.3-14.1 5.4-14.1 5.4 8.6-7.3 14.1-5.4 14.1-5.4z"/><path class="st0" d="M490.4 143.1c-6.2 0-14.8 1.7-25 9.1-1.8 1.2-5.9 5.5-9.5 7.7-3.7 2.5-14.7 7.7-18.2 7.7s-3.3-2.3-3.3-3.3.2-2.2 6.7-7.5 13.9-10.2 13.9-12.1c0-.8-.3-2.2-2.8-2.2s-3.5.9-4.6 1.5c-.6.1-1.1-.5-3 .8-8.4 6.3-23 14.9-31.4 19.7.9-2.8 2.5-5.9 2.5-7.7s0-5.3 1.1-8.5 2.7-7.5 2.7-8-1.6-1.6-4-1.6-4 1.5-8.1 4.7c-3.5 2.8-16.9 13.9-33.8 21.1 3.6-21 5.7-22.3 5.7-23.9 0-.8-1.6-2.1-4-2.1s-3.1.8-9.4 5.8c-3.3 2.5-9.9 8.3-20.1 14.1-6.7 3.8-17.5 9.4-20.5 9.4-2.9 0-3.4-2.5-3.3-3.4 0-.9 1-3.2 4.5-5.1 4.5-2.7 9.8-3.7 11.6-5.1s2.1-2.8 2.1-4.6c0-1.8-.5-9.1-11.3-9.1-4.1 0-14.4 1.8-26.9 7.2-2.7 1.2-10.8 5.6-16.6 9.5-5 3.7-17.2 8.4-23.1 8.3-2.4 0-4.6-.6-4.6-4.2-.1-3.5 4.9-13 12.8-21.4 5.3-5.4 16.7-15 23.6-20.7 7-5.7 29.6-23.5 38.7-30 8.7-6.3 24.5-16.8 28-19.3 3.6-2.5 6-3.6 4.7-6.4-.6-1.4-3.2-1.9-7.6.5-4.5 2.4-8.7 4.7-20 12.7-7.7 5.3-28.8 20.6-38.5 28.7-8.4 6.8-23.8 19.9-35.7 31.8-5 5.2-8.6 9.4-13.9 17.9-.6 1.1-2.4 2.1-5.7 4-3.4 1.9-32.9 21.5-61.2 22-17.6 0-31-7.5-30.7-24.2 0-7.9 3.6-21.2 21.8-40.1 5.4-5.5 16.1-17 43-33 9.6-5.8 49.8-27.1 84.2-28.8 5.2 0 15.3.4 15.5 9.7 0 2.7-1.9 12-19.4 23.9-6.9 4.7-16.2 9.7-26.2 13.6-2.4.8-8 2.5-8 5.1 0 1.2 2.3 2.2 5.6 2.2s17-4.1 29.9-11.3c12.9-7.2 28.2-18 28.9-34.1 0-7.3-5-13.6-23.9-13.8-15.8 0-42.2 6-67.9 16.6-5.1 2.1-30 12.5-51.5 29.4-3.7 2.6-24.3 19.6-35.8 37.3-2.6 4.1-8.7 13.6-8.8 26-.1 12.4 8.5 28.8 36.7 28.6 28.1-.2 52.3-14.3 70.2-24.9.6 2.3 1.6 10 10.4 10 8.7 0 20.8-5.6 25.4-7.8.8 2.8.6 7.8 10.3 7.8 4.7 0 18.8-6.8 21.2-8.1 0 2.4-2.1 7.9 8.9 7.9 4.8 0 8-.9 15.9-5.2 8-4.4 17-9.2 22.3-12.9 2-1.3 6.2-4.6 7.1-5.5 1-.9 1 7.8-3.4 12.8-2.7 2.8-6.4 5-9.4 5-3.7 0-3.8-2.8-6.3-2.8-1.7 0-3.1 1.1-3.1 4 0 3 2.6 5.2 8.5 5.2s13-1.3 24.2-6.2c5.7-2.5 11.1-5.4 13.2-6.8.6-.3.2.7 1.7-.2s13.2-8.1 15.3-9.8c.6-.4-1.6 10.5-3.4 13.4-1.1 1.7-4.7 2.9-8.2 2.9-4.7 0-5.6-2.5-8.6-2.5-.8 0-2.9 0-2.9 3.4 0 3.5 2.9 5.7 9 5.7s13.3-.6 30.2-9.3c.2 1.6-.8 8.9 10.5 9 4.3 0 8.9-1.1 21.3-7.9.9 2.7 2.1 8.4 12.7 8.4s18.5-5 21.3-6.6c2.4-1.4 4.2-2.5 2.8-4.5-.7-.9-1.6-1.2-2.2-1.2-.6 0-4.3 1.4-7.2 2.4-2.9 1-10.1 3.5-12.8 3.5s-4.7-1.9-4.7-4.2 3.4-6.7 11.3-11.4c3-1.8 8-3.9 11-3.6.8.1-2.4 5.5.3 6.2 2.7.7 8.8-3.5 8.9-6.9-.3-1-1.4-4.4-7.6-4.4zm-183.9 20.3c-5.5 2.8-6.9 3.1-8.5 3.1-7.4.2-4.4-3.9-4.2-5.5.8-3.5 11-8.3 14.3-9.7 6.9-2.9 18-5.2 20.3-5.2 1.5.1 4.3 2.1 4.3 2.7 0 .6-.8 2-4.1 3.7-3.3 1.8-16.6 8.1-22.1 10.9zM737.1 158.6c-4.5-.1-14.1 1.7-22.6 3.1-13.3 2.3-20 4.7-23 4.7-2 0-3.2-1-3.2-2.9s2.4-5.7 6.3-9.4c4-3.7 20-17.1 24.7-20.1.8-.5 7.1-.8 15.1-.8s11.5.2 13-2.8c.1-.2 0-1.5-2.7-1.5H727c-.7 0 1-1.5 2.3-2.4 1.3-.9 12.6-9.4 15.7-11.7 3.1-2.3 7.4-6 5.3-8.1-.6-.6-4.8.1-11.5 5-4.6 3.1-11.1 7.4-18.1 13.1-1.2.8-7.2 4.5-14.3 4.5-2.6 0-4-.4-7.1-.4-3.2 0-9.6.2-12.7 1.3-1.2.4-4.4 3.5-1.1 3.5 3.3 0 24.2-.4 23.4.7-.6 1-10.9 9.3-17.9 14.7-2.5 2.1-22.2 18.6-33.7 18.5-2.1 0-3.6-.1-3.5-1.8 0-1.6 3.6-4.4 6.8-6.5 3.2-2 9.3-3.9 9.3-9s-3.5-8.8-9.4-8.9c-5.9 0-23.7 1.5-38.9 13.9-3.7 3.1-6.9 7.1-10.9 9.1s-30.8 17.2-52.5 17c-19.8-.1-30-8.6-30.6-24 0-10.2 6.5-25.3 22.1-40.4 4.8-4.7 23.3-22.7 49.8-36.8 9.4-4.7 46.6-22.5 76-24.7 8.8 0 16 2.7 16 10 0 8-12.2 20.8-27.6 28.9-4.3 2.3-12.2 6.4-19.3 9.1-1.7.6-6.6 2.5-6.4 4.6.2 2.1 5.2 3.5 15.9-.7s48-18.5 48.3-40.4c-.1-6.5-3.9-16-23.6-15.8-6.7 0-30.5 1.8-61 13.7-6.2 2.3-24.8 9.6-45.4 22.7-6.6 4.4-20.3 14.2-33 27.3-4.9 5-23.8 24.6-24.6 44.9 0 6.4 2.3 28.9 36.2 29 29 .2 57.8-17.9 63-20.9.8 1.5 3.8 6.1 8.9 6.1 1.8 0 7.4-1.9 10.3-2.9 2.9-1 9.8-3.7 12.1-5.4 0 2.5-.8 7.9 6.8 7.9s17-3 27.1-9.3c.2 1.9-.2 9.4 8 9.4 9.2 0 37.2-9.8 47.3-9.8 8.4 0 14.8 5.5 18.6 5.5 1 0 2.5-.2 3-1.4.6-2.5-7.1-9.6-19-9.4zm-99.8 4.9c-5.1 2.7-6.7 3.1-8.2 3.1-6.9.2-4.2-3.9-4-5.4.8-3.4 10.3-8.1 13.4-9.4 6.5-2.8 16.3-5.3 18.4-5.3 2.4 0 4.8 2.4 4.8 3 0 .5-.8 2-3.9 3.6-3 1.6-15.3 7.6-20.5 10.4zM217.6 202.2h-.1c-3.2 0-5.9 1-8 2.9-2.1 1.9-3.2 4.4-3.2 7.4s1.1 5.5 3.2 7.4c2.1 1.9 4.8 2.9 8 2.9s5.9-1 8-2.8c2.1-1.9 3.2-4.4 3.2-7.4s-1.1-5.5-3.2-7.4c-2-2-4.7-3-7.9-3zm-4.8 2.9c1.3-.8 2.8-1.3 4.7-1.3s3.4.4 4.7 1.3c1.3.8 2.2 1.9 2.7 3.1.5 1.2.8 2.6.8 4.2 0 1.5-.3 3-.8 4.2-.5 1.2-1.4 2.3-2.7 3.1-1.3.8-2.8 1.3-4.7 1.3-1.9 0-3.4-.4-4.7-1.3-1.3-.8-2.2-1.9-2.7-3.1-.5-1.2-.8-2.6-.8-4.2 0-1.5.3-3 .8-4.2.5-1.2 1.4-2.2 2.7-3.1zM254.5 218l-14.6-15.8v-.1h-2.8v20.6h1.7v-17.1l15.7 17v.1h1.7v-20.6h-1.7zM296.6 203.8h7.6v18.9h3.1v-18.9h7.6v-1.7h-18.3zM339.2 211.6h-12.8v-9.5h-3.1v20.6h3.1v-9.5h12.8v9.5h3.1v-20.6h-3.1zM354.4 212.6h8.4v-1.7h-8.4v-7.1h10.3v-1.7h-13.4v20.6h14V221h-10.9zM418.2 212.4c-.6-.5-1.9-1.1-3.7-1.9h.1l-.3-.1c-.5-.2-.8-.4-1-.4-.1-.1-.5-.2-1.1-.5-.6-.2-1-.5-1.2-.7l-.3-.2c-.2-.1-.4-.3-.7-.5-.4-.3-.6-.6-.8-.8-.1-.3-.2-.6-.2-.9 0-1.7 1.5-2.6 4.6-2.6 1.6 0 3 .4 4.3 1.1h.1l1.1-1.4-.1-.1c-1.6-.9-3.4-1.4-5.3-1.4-2.2 0-4 .5-5.4 1.4-1.4 1-2.1 2.3-2.1 3.8 0 .3 0 .6.1.9.1.3.2.5.3.7.1.2.3.5.5.7.2.2.4.4.5.6.1.2.4.4.7.6.1.1.3.2.4.3.1.1.3.2.3.2.2.1.5.3.9.5l.8.4h.1c.2.1.5.2.9.4s.7.3.9.4c.1 0 .2.1.4.2l.7.4c.2.1.3.2.4.2.1 0 .2.1.3.2l.3.2c.3.1.5.3.6.4.1.1.2.1.4.2l.2.1c.2.1.4.3.4.4.1.1.2.3.3.4.1.2.2.3.3.5.1.1.1.3.2.5s.1.4.1.6c0 1.3-.4 2.2-1.3 2.8-.9.6-2.1.9-3.6.9-2.3 0-4.1-.6-5.4-1.9l-.1-.1-1.2 1.3.1.1c.7.7 1.6 1.2 2.4 1.5.9.4 1.6.6 2.1.6.5.1 1.2.1 2 .1 2.3 0 4.2-.5 5.9-1.5 1.6-1 2.5-2.4 2.5-4 0-1.9-.8-3.4-2.4-4.6zM444 214.8c0 1.8-.5 3.1-1.4 4-.9.8-2 1.3-3.2 1.3h-2.7c-1.2 0-2.3-.4-3.2-1.3-.9-.8-1.4-2.2-1.4-4v-12.7H429v12.7c0 2.4.7 4.3 2 5.7 1.4 1.4 3.3 2.1 5.6 2.1h1.3c2.4 0 4.3-.7 5.6-2.1 1.4-1.4 2-3.3 2-5.7v-12.7h-1.6v12.7zM471.6 218l-14.5-15.8-.1-.1h-2.8v20.6h1.7v-17.1l15.7 17 .1.1h1.6v-20.6h-1.7zM494.6 212.4c-.6-.5-1.9-1.1-3.7-1.9h.1l-.3-.1c-.5-.2-.8-.4-1-.4-.1-.1-.5-.2-1.1-.5-.6-.2-1-.5-1.2-.7l-.3-.2c-.2-.1-.4-.3-.7-.5-.4-.3-.6-.6-.8-.8-.2-.3-.2-.6-.2-.9 0-1.7 1.5-2.6 4.6-2.6 1.6 0 3 .4 4.3 1.1h.1l1.1-1.4-.1-.1c-1.6-.9-3.4-1.4-5.3-1.4-2.2 0-4 .5-5.4 1.4-1.4 1-2.1 2.3-2.1 3.8 0 .3 0 .6.1.9.1.3.2.5.3.7.1.2.3.5.5.7.2.2.4.4.5.6.1.2.4.4.7.6.1.1.3.2.4.3.1.1.3.2.3.2.2.1.5.3.9.5l.8.4h.1c.2.1.5.2.9.4s.7.3.9.4c.1 0 .2.1.4.2l.7.4c.2.1.3.2.4.2.1 0 .2.1.3.2l.3.2c.3.1.5.3.6.4.1.1.2.1.4.2l.2.1c.2.1.4.3.4.4.1.1.2.3.3.4.1.2.2.3.3.5.1.1.1.3.2.5s.1.4.1.6c0 1.3-.4 2.2-1.3 2.8-.9.6-2.1.9-3.6.9-2.3 0-4.1-.6-5.4-1.9l-.1-.1-1.2 1.3.1.1c.7.7 1.6 1.2 2.4 1.5.9.4 1.6.6 2.1.6.5.1 1.2.1 2 .1 2.3 0 4.2-.5 5.9-1.5 1.6-1 2.5-2.4 2.5-4-.1-1.9-.8-3.4-2.4-4.6zM508.8 212.6h8.4v-1.7h-8.4v-7.1h10.3v-1.7h-13.4v20.6h14V221h-10.9zM527.9 203.8h7.5v18.9h3.1v-18.9h7.6v-1.7h-18.2zM599.4 212.4c-.6-.5-1.9-1.1-3.7-1.9h.1l-.3-.1c-.5-.2-.8-.4-1-.4-.1-.1-.5-.2-1.1-.5-.6-.2-1-.5-1.2-.7l-.3-.2c-.2-.1-.4-.3-.7-.5-.4-.3-.6-.6-.8-.8-.2-.3-.2-.6-.2-.9 0-1.7 1.5-2.6 4.6-2.6 1.6 0 3 .4 4.3 1.1h.1l1.1-1.4-.1-.1c-1.6-.9-3.4-1.4-5.3-1.4-2.2 0-4 .5-5.4 1.4-1.4 1-2.1 2.3-2.1 3.8 0 .3 0 .6.1.9.1.3.2.5.3.7.1.2.3.5.5.7.2.2.4.4.5.6.1.2.4.4.7.6.1.1.3.2.4.3.1.1.3.2.3.2.2.1.5.3.9.5l.8.4h.1c.2.1.5.2.9.4s.7.3.9.4c.1 0 .2.1.4.2l.7.4c.2.1.3.2.4.2.1 0 .2.1.3.2l.3.2c.3.1.5.3.6.4.1.1.2.1.4.2l.2.1c.2.1.4.3.4.4.1.1.2.3.3.4.1.2.2.3.3.5.1.1.1.3.2.5s.1.4.1.6c0 1.3-.4 2.2-1.3 2.8-.9.6-2.1.9-3.6.9-2.3 0-4.1-.6-5.4-1.9l-.1-.1-1.2 1.3.1.1c.7.7 1.6 1.2 2.4 1.5.9.4 1.6.6 2.1.6.5.1 1.2.1 2 .1 2.3 0 4.2-.5 5.9-1.5 1.6-1 2.5-2.4 2.5-4 0-1.9-.8-3.4-2.4-4.6zM610.5 203.8h7.6v18.9h3.1v-18.9h7.6v-1.7h-18.3zM648 213.4c1.2-.4 2.1-1 2.8-1.8.8-.9 1.1-1.9 1.1-3.2v-.6c0-1.7-.7-3.1-2.2-4.1-1.4-1-3.3-1.5-5.4-1.5H637v20.5h3.1V214h3.5c.9 0 1.5.4 1.9 1.1l4.1 7.5v.1h3.7l-4.6-8.3c0-.4-.3-.7-.7-1zm.9-5c0 1-.4 1.9-1.3 2.7-.8.8-1.9 1.2-3.2 1.2h-4.1v-8.4h4.1c1.3 0 2.4.4 3.2 1.2.8.8 1.3 1.7 1.3 2.8v.5zM661.9 202.1h3.1v20.5h-3.1zM686.4 203.7c-1.4-1-3.3-1.5-5.4-1.5h-7.3v20.5h3.1V214h4.1c2.2 0 4-.5 5.5-1.5 1.4-1 2.2-2.4 2.2-4.1v-.7c0-1.7-.8-3-2.2-4zm-9.6.2h4.1c1.3 0 2.4.4 3.2 1.2.8.8 1.3 1.7 1.3 2.8v.6c0 1-.4 2-1.3 2.8-.9.8-1.9 1.2-3.2 1.2h-4.1v-8.6z"/><g><path class="st0" d="M206.6 247.2h180v1.9h-180zM505.3 247.2h180v1.9h-180z"/></g><g><path class="st0" d="M393.3 252.7h8.6v2.3h-11v-18.9h11v2.2h-8.6v5.8h8.6v2.2h-8.6v6.4zM407.8 254.4c-1.1-.5-1.9-1.3-2.5-2.2-.6-.9-.9-2-.9-3.2h2.4c0 .8.2 1.4.6 2 .4.6.9 1.1 1.6 1.4.7.3 1.5.5 2.3.5.8 0 1.5-.1 2.2-.4.6-.3 1.1-.7 1.5-1.1.4-.5.6-1.1.6-1.7 0-.4-.1-.8-.3-1.2-.1-.1-.2-.3-.3-.4-.1-.1-.3-.3-.5-.4-.2-.1-.4-.2-.7-.4-.3-.1-.5-.2-.5-.2-.1 0-.3-.1-.7-.2l-.7-.2-.8-.2c-1.3-.3-2.4-.6-3.1-.9-.8-.3-1.4-.7-1.9-1.2s-.9-1.3-1-2.2c0-.3-.1-.6-.1-.9 0-1.1.3-2 .8-2.8.5-.8 1.3-1.4 2.2-1.8 1-.4 2.1-.6 3.4-.6 1.3 0 2.4.2 3.3.7s1.7 1.1 2.2 2c.5.9.8 1.9.8 3h-2.3c0-.7-.2-1.3-.5-1.8s-.8-.9-1.4-1.2c-.6-.3-1.3-.4-2.1-.4s-1.5.1-2.1.4c-.6.2-1.1.6-1.4 1-.3.4-.5.9-.5 1.5 0 .5.2 1 .5 1.4.1.2.3.3.5.5s.5.3.7.4c.2.1.5.2.8.3.4.1.7.2 1 .3l1 .2c1.3.3 2.4.6 3.1.9.8.3 1.4.7 2 1.2.5.5.9 1.3 1.1 2.2.1.4.1.7.1 1.1 0 1.1-.3 2.1-.9 3-.6.9-1.4 1.5-2.4 1.9-1 .4-2.1.6-3.4.6-1.5-.1-2.7-.3-3.7-.9zM433.3 236.1v2.2h-5.7V255h-2.4v-16.6h-5.7v-2.2h13.8zM435.9 255v-2.9h2.6v2.9h-2.6zM447.9 239l5.6-1.9V255h-2.2v-15.1l-3.4 1.1v-2zM460 247.8c-.9-.5-1.7-1.2-2.2-2.1-.6-.9-.9-1.9-.9-3.1 0-1.2.3-2.2.8-3.1.5-.9 1.3-1.6 2.3-2.2 1-.5 2.1-.8 3.3-.8 1.2 0 2.3.3 3.3.8s1.7 1.2 2.3 2.2c.5.9.8 2 .8 3.1 0 1.6-.7 3.6-2 6l-3.6 6.3h-2.6c1.4-2.5 2.6-4.8 3.6-6.8-.5.2-.8.3-1.1.3-.3 0-.7.1-1.2.1-.9 0-1.9-.2-2.8-.7zm3.3-9.1c-.8 0-1.5.2-2.1.5-.6.3-1.1.8-1.5 1.4-.4.6-.5 1.3-.5 2 0 .8.2 1.4.5 2.1.4.6.9 1.1 1.5 1.4.6.3 1.3.5 2.1.5s1.5-.2 2.1-.5c.6-.3 1.1-.8 1.5-1.4.4-.6.5-1.3.5-2 0-1.1-.4-2.1-1.2-2.8-.7-.8-1.7-1.2-2.9-1.2zM481.7 244.1c.9.5 1.7 1.2 2.2 2.1.6.9.9 1.9.9 3.1 0 1.2-.3 2.2-.8 3.1-.5.9-1.3 1.6-2.3 2.2-1 .5-2.1.8-3.3.8-1.2 0-2.3-.3-3.3-.8s-1.7-1.2-2.3-2.2c-.5-.9-.8-2-.8-3.1 0-1.6.7-3.6 2-6l3.6-6.3h2.6c-1.4 2.5-2.6 4.8-3.6 6.8.5-.2.8-.3 1.1-.3.3 0 .7-.1 1.2-.1.9-.1 1.9.2 2.8.7zm-3.3 9.1c.8 0 1.5-.2 2.1-.5.6-.3 1.1-.8 1.5-1.4.4-.6.5-1.3.5-2 0-.8-.2-1.4-.5-2.1-.4-.6-.9-1.1-1.5-1.4-.6-.3-1.3-.5-2.1-.5s-1.5.2-2.1.5c-.6.3-1.1.8-1.5 1.4-.4.6-.5 1.3-.5 2 0 1.1.4 2.1 1.2 2.8.7.8 1.7 1.2 2.9 1.2zM492.4 243.7c1.2 0 2.2.3 3.1.8.9.5 1.7 1.2 2.2 2.1.5.9.8 1.9.8 3s-.3 2.1-.8 3c-.5.9-1.2 1.6-2.1 2.1-.9.5-1.9.8-3 .8s-2.1-.2-3-.7c-.9-.5-1.6-1.1-2.1-2-.5-.8-.8-1.8-.8-2.9h2.2c0 .7.2 1.3.6 1.8.3.5.8.9 1.3 1.2.6.3 1.2.4 1.9.4s1.3-.2 1.9-.5c.6-.3 1-.8 1.3-1.3.3-.6.5-1.2.5-1.9s-.2-1.4-.5-1.9c-.3-.6-.8-1-1.4-1.4-.6-.3-1.3-.5-2-.5h-4.9l.9-8.6h8.9v2h-7.1l-.5 4.5h2.6z"/></g></svg>