<svg version="1.1" id="Layer_1" xmlns="http://www.w3.org/2000/svg" x="0" y="0" width="1224" height="792" style="enable-background:new 0 0 1224 792" xml:space="preserve"><style>.st0{stroke:#000;stroke-width:.732}</style><path class="st0" d="M488.8 382.2c-4.7-11.6-16-19.6-30-19.6-13.5 0-24.6 7.7-29.3 18.9l17 6.5c.4-1 1.5-4 2.8-5.9 2.4-2.4 3.5-3.3 3.5 5.9l.5 5.3 5.6 2 6.5-1.9.3-4.5c.1-1.9.5-3.8.5-5.5 0-2.7.3-3.6 2.2-1.7.7.6 1.7 1.6 2.9 3 .6.8 1 1.9 1.5 3.3l16-5.8z"/><path class="st0" d="M458.7 426.4c18 0 31.9-14.3 32.1-32 0-5.5-1.1-9.5-1.1-9.5l-16.7 5.9c.4 2.1.4 4.8.2 6.6-1 6.3-2.5 8.8-3.8 10.5-2.4 3.1-3.4 1.5-3.4-.5s-.7-11-.7-11l-6.6 1.9-5.7-1.8c-.4 3.5-.4 10.4-.4 10.4-.2 2.7-1 2.6-1 2.6-1.8 0-4.2-2.8-5.3-6.1-1.7-5.1-1.6-9.1-.7-12.6l-17.3-6.4c-1.7 4.1-1.7 8.8-1.7 10 0 17.7 14.4 32.1 32.1 32.1 17.7 0 32.1-14.4 32.1-32.1M515.4 379.2c-6.3 0-7.6 1-9.8 4.1-3.3 4.6-4.3 7.5-7 7.5-1.4 0-1.9-1.1-1.9-2 0-3 4.2-13 6.1-15.1.6-.7 1.2-1.2 2.1-1.2 3.8 0 1.8 3.3 5.9 3.3h29.5c5.5 0 5.3-3.3 8.3-3.3 1 0 1.6.3 1.6 1.1 0 1.3-3.8 14.3-5.8 16.4-.3.3-1 .6-1.6.6-2.1 0-2.7-.9-2.7-3.9 0-1.7.4-3.4.4-4.7 0-2.6-2.9-2.7-6.9-2.8-3.5 9.6-13.8 37.3-13.8 38.3 0 3.5 5 2.5 5 4.4 0 1.3-1.1 1.4-3.8 1.4-5 0-10.1-.3-15.1-.3-4.4 0-7.7.3-10.7.3-1.1 0-2.3-.5-2.3-1.4 0-3.2 6-.2 8.1-5.3l14.4-37.4zM553.2 388.6c1.4-3.9 2.6-6 2.6-7.9 0-2.9-4.2-.9-4.2-3.3 0-1.6 2-1.7 3.6-1.7 4.3 0 8.6.3 12.9.3 3.1 0 6.3-.3 9.3-.3 2 0 3.1.3 3.1 1.6 0 1.9-4.8.2-6.5 4.8l-9 25.9c-2.1 5.8-3 8.1-3 9.7 0 2.4 4.5 1.8 4.5 3.8 0 1.9-3.4 1.9-6.5 1.9-3.2 0-6.5-.3-9.7-.3-4 0-8.5.3-10.9.3-1.2 0-2.8-.2-2.8-1.2 0-2.7 4.8-1.3 6.2-5l10.4-28.6zM597.3 379.2c-6.3 0-7.6 1-9.8 4.1-3.3 4.6-4.3 7.5-7 7.5-1.4 0-1.9-1.1-1.9-2 0-3 4.2-13 6.1-15.1.6-.7 1.2-1.2 2.1-1.2 3.8 0 1.8 3.3 5.9 3.3h29.5c5.5 0 5.3-3.3 8.3-3.3 1 0 1.6.3 1.6 1.1 0 1.3-3.8 14.3-5.8 16.4-.3.3-1 .6-1.6.6-2.1 0-2.7-.9-2.7-3.9 0-1.7.4-3.4.4-4.7 0-2.6-2.9-2.7-6.9-2.8-3.5 9.6-13.8 37.3-13.8 38.3 0 3.5 5 2.5 5 4.4 0 1.3-1.1 1.4-3.8 1.4-5 0-10.1-.3-15.1-.3-4.4 0-7.7.3-10.7.3-1.1 0-2.3-.5-2.3-1.4 0-3.2 6-.2 8.1-5.3l14.4-37.4zM646.6 407.1h-14.2c-1.9 0-2.3.5-4 3.3-2.9 4.6-3.7 6.2-3.7 7.8 0 2.4 5.5 1.6 5.5 3.5 0 1.3-1.3 1.7-2.9 1.7-3.3 0-5.8-.3-8.3-.3-2.4 0-4.8.3-7.1.3-1.6 0-2.2-.5-2.1-1.4-.1-2.6 5-.5 8.7-5.5l30.5-40.6c.5-.5.9-.8 1.8-.8h10.4c1.2 0 1.5.2 1.6 1.3l2.9 41.7c.2 2.4 4.7 1.6 4.7 3.5 0 1.4-.7 1.8-2.9 1.8-1.2 0-3.9-.3-11.5-.3-7.7 0-10.4.3-14.2.3-2.2 0-2.9-.7-2.9-1.5 0-3.1 7.5-.2 7.5-5.2v-9.6zm-.6-20.4h-.2l-12 16.7h12.6l-.4-16.7zM719.1 421.9c-.5 1.5-.8 1.6-5.1 1.6-3.5 0-3.8-.2-4.6-1.9L693.5 388h-.2c-2.6 7.8-9.2 26.7-9.2 29.5 0 3.5 5.3 2.3 5.3 4.5 0 .8-.5 1.4-2.2 1.4-1.9 0-4-.3-6.5-.3-2.3 0-4.2.3-6.3.3-1.5 0-2-.5-2-1.6 0-2.1 4.9-1 5.8-3.5 11-30.5 13.1-35.3 13.1-36.9 0-3.2-4.8-2.2-4.8-4.1 0-1.1.6-1.7 3.3-1.7s5.4.3 8.2.3c2.3 0 4.4-.3 6.7-.3 1.3 0 1.8.6 2.4 1.7l13.4 27h.2c5.7-15.8 7.6-21.6 7.6-23.4 0-2.6-5.3-1.7-5.3-3.7 0-1.1 1-1.6 2.6-1.6 1.9 0 3.7.3 6.1.3 1.9 0 3.9-.3 6-.3 1.5 0 2.3.4 2.3 1.4 0 2.3-5.4.6-6.9 4.7l-14 40.2z"/><path d="M730.3 417.3c1.8 0 3.2 1.5 3.2 3.3 0 1.9-1.4 3.3-3.3 3.3-1.8 0-3.3-1.5-3.3-3.3.1-1.8 1.6-3.3 3.4-3.3zm0 .6c-1.4 0-2.6 1.2-2.6 2.8 0 1.6 1.2 2.8 2.6 2.8 1.5 0 2.6-1.2 2.6-2.8 0-1.6-1.1-2.8-2.6-2.8zm-.6 4.7h-.6v-3.7c.3 0 .6-.1 1-.1.6 0 .9.1 1.1.3.2.2.3.4.3.8 0 .5-.3.8-.7.9.3.1.5.4.6.9.1.6.2.8.2.9h-.6c-.1-.1-.2-.5-.2-.9-.1-.5-.3-.6-.8-.6h-.4v1.5zm0-2.1h.4c.5 0 .9-.2.9-.6 0-.3-.2-.6-.9-.6h-.4v1.2z"/></svg>