<svg version="1.1" id="Layer_1" xmlns="http://www.w3.org/2000/svg" xmlns:xlink="http://www.w3.org/1999/xlink" x="0" y="0" width="792" height="612" style="enable-background:new 0 0 792 612" xml:space="preserve"><style>.st0{clip-path:url(#SVGID_2_);fill:#727276}</style><defs><path id="SVGID_1_" d="M216.1 279.1h360.1v54.8H216.1z"/></defs><clipPath id="SVGID_2_"><use xlink:href="#SVGID_1_" style="overflow:visible"/></clipPath><path class="st0" d="M370.8 329.9 355 286c-.2-.6-.5-1.4-.5-2.1 0-1.9 1.6-3.7 3.9-3.7 2 0 3.3 1.3 3.9 3.2l13.1 37.8 13.2-37.9c.6-1.8 1.8-3.1 3.8-3.1h.4c2.1 0 3.4 1.3 4 3.1l13.1 37.9 13.3-38c.5-1.6 1.6-3 3.7-3 2.2 0 3.8 1.7 3.8 3.6 0 .7-.3 1.5-.5 2.1l-15.9 44c-.8 2.3-2.4 3.5-4.2 3.5h-.3c-2 0-3.5-1.2-4.2-3.5l-12.9-37.3-13.1 37.3c-.7 2.3-2.2 3.5-4.2 3.5h-.2c-2 0-3.6-1.2-4.4-3.5M485.7 284c0-2.1 1.7-3.9 3.8-3.9 2.2 0 3.9 1.7 3.9 3.9v8.9c3.8-8.7 12.3-12.7 17.9-12.7 2.3 0 3.8 1.7 3.8 3.9 0 2.1-1.4 3.6-3.4 3.9-10.1 1.2-18.3 8.7-18.3 23.8v17.6c0 2.1-1.6 3.9-3.8 3.9-2.2 0-3.9-1.7-3.9-3.9V284M540 333.8c-14 0-25.4-10.9-25.4-26.8v-.2c0-14.8 10.3-26.8 24.5-26.8 15.1 0 23.7 12.4 23.7 26.1 0 2.1-1.7 3.6-3.6 3.6h-36.9c1.1 11.2 8.9 17.4 17.9 17.4 6.3 0 10.9-2.5 14.7-6 .6-.5 1.3-.9 2.2-.9 1.9 0 3.4 1.5 3.4 3.3 0 .9-.4 1.8-1.2 2.5-4.9 4.7-10.6 7.8-19.3 7.8m15.1-29.8c-.8-9.4-6.1-17.5-16.3-17.5-8.9 0-15.6 7.5-16.6 17.5h32.9zM430.8 317.7v-.2c0-10.9 9-16.8 22.2-16.8 6.6 0 11.3.9 16 2.2v-1.8c0-9.3-5.7-14.1-15.5-14.1-5.2 0-8.3.7-12.1 2.4-.5.2-1 .3-1.4.3-1.8 0-3.4-1.5-3.4-3.3 0-1.6.7-2.6 2.1-3.2 5.1-2.2 9-3 15.6-3 7.3 0 12.9 1.9 16.7 5.7 3.5 3.5 5.3 8.5 5.3 15.1v28.6c0 2.2-1.6 3.8-3.7 3.8-2.2 0-3.7-1.6-3.7-3.6v-4.9c-3.6 4.7-9.6 8.9-18.8 8.9-9.6 0-19.3-5.5-19.3-16.1m38.2-4v-5c-3.8-1.1-8.9-2.2-15.3-2.2-9.7 0-15.1 4.2-15.1 10.7v.2c0 6.5 6 10.3 13 10.3 9.6 0 17.4-5.8 17.4-14M230.2 283.4c-1.7-3.7-5.9-5.4-9.8-3.7-3.9 1.7-5.4 6.1-3.6 9.8l16.5 35.8c2.6 5.6 5.3 8.5 10.4 8.5 5.5 0 7.9-3.2 10.4-8.5 0 0 14.4-31.3 14.5-31.6.2-.3.6-1.3 2.1-1.3 1.2 0 2.3 1 2.3 2.3v30.6c0 4.7 2.6 8.6 7.6 8.6s7.7-3.9 7.7-8.6v-25c0-4.8 3.5-8 8.2-8 4.7 0 7.8 3.2 7.8 8v25c0 4.7 2.6 8.6 7.6 8.6s7.8-3.9 7.8-8.6v-25c0-4.8 3.4-8 8.2-8 4.7 0 7.9 3.2 7.9 8v25c0 4.7 2.6 8.6 7.6 8.6s7.7-3.9 7.7-8.6v-28.5c0-10.5-8.4-17.8-18.5-17.8s-16.4 7-16.4 7c-3.4-4.4-8-7-15.9-7-8.3 0-15.5 7-15.5 7-3.4-4.4-9.1-7-13.9-7-7.3 0-13.2 3.2-16.7 11.4l-10.5 24.8-13.5-31.8M563.3 286.5c0-3.5 2.8-6.5 6.4-6.5 3.6 0 6.4 2.9 6.4 6.4 0 3.5-2.8 6.5-6.4 6.5-3.6 0-6.4-2.9-6.4-6.4m11.6 0c0-2.9-2.2-5.3-5.2-5.3-2.9 0-5.2 2.4-5.2 5.3s2.2 5.2 5.2 5.2 5.2-2.4 5.2-5.2"/><path class="st0" d="M567.3 283.9c0-.4.3-.7.7-.7h2.1c.8 0 1.4.2 1.8.6.4.3.5.8.5 1.4 0 1-.5 1.6-1.2 1.9l1 1.2c.1.2.2.3.2.5 0 .4-.3.6-.7.6-.3 0-.5-.2-.7-.3l-1.3-1.7h-1.1v1.3c0 .4-.3.7-.7.7s-.7-.3-.7-.7v-4.8zm2.8 2.4c.7 0 1-.3 1-.9 0-.6-.4-.9-1.1-.9h-1.4v1.8h1.5z"/></svg>