<svg version="1.1" id="Layer_1" xmlns="http://www.w3.org/2000/svg" x="0" y="0" width="612" height="792" style="enable-background:new 0 0 612 792" xml:space="preserve"><style>.st1{fill:#0175cf}</style><path d="M119.7 279.8v-2.6c-13.2-6.4-23.2-18.6-23.2-34.5 0-18.1 11.7-33.3 27.7-38.4L115 195c-14.9 5.7-28.3 20.3-28.3 38.6 0 4.7.8 9.2 2.2 13.4h-1.4c-4.1-6.5-6.5-14.2-6.5-22.6 0-17.3 10.4-32.2 25.2-38.5l-9.4-9.6c-15.8 7.8-26.5 24.4-26.6 43.4-.1 33.4 39.7 56.5 49.5 60.1" style="fill:#688f05"/><path class="st1" d="M218.7 261.8v-39c0-.6-.3-.9-.8-.9h-11.8c-1 0-1.3-.4-1.3-1.3v-5.8c0-.9.3-1.3 1.3-1.3h36.4c.9 0 1.3.4 1.3 1.3v5.8c0 .9-.4 1.3-1.3 1.3h-11.7c-.5 0-.8.3-.8.9v39c0 .9-.4 1.3-1.3 1.3H220c-.9-.1-1.3-.5-1.3-1.3M246.7 239.1c0-16.8 8.8-26.6 26.4-26.6 3.8 0 7.6.7 10.6 1.9 1.6.6 1.9 1 1.9 2.4v5.7c0 1.1-.2 1.5-1 1.5-1.2 0-5-3.1-11.3-3.1-9.1 0-15 5.9-15 17.9 0 10.7 5.2 17 15 17 7.1 0 9.9-3.3 11.4-3.3.7 0 .9.4.9 1.1v5.6c0 1.5-.5 2.2-2.7 3-2.5 1-6.9 1.7-11.7 1.7-16.7 0-24.5-9.8-24.5-24.8M308.6 261.8v-46.9c0-1 .4-1.3 1.3-1.3h28c1 0 1.3.4 1.3 1.3v5.6c0 .9-.4 1.3-1.3 1.3h-17.2c-.5 0-.8.2-.8.9v9.9c0 .6.3.9.8.9h13.7c.9 0 1.3.4 1.3 1.2v5.6c0 .9-.4 1.3-1.3 1.3h-13.7c-.5 0-.8.3-.8.9V254c0 .7.3 1 .9 1h18.7c1 0 1.2.4 1.2 1.3v5.6c0 .8-.2 1.2-1.2 1.2H310c-1-.1-1.4-.5-1.4-1.3M347.8 261.7v-35.4c0-1 .4-1.3 1.3-1.3h8.1c.7 0 1 .4 1 1 0 .4.1.7.7.7 1.9 0 5-2.7 10.7-2.7 10.2 0 13 5.5 13 15.8v21.9c0 .9-.5 1.3-1.3 1.3h-8.1c-.8 0-1.3-.4-1.3-1.3v-21.1c0-6.1-1.2-9.1-6.8-9.1-3.2 0-6.6 1-6.6 4.2v26c0 .8-.4 1.3-1.3 1.3h-8c-.9 0-1.4-.4-1.4-1.3M415 239.7c.7 0 .9-.3.9-1 0-3.8-1.9-8-7.5-8-5.4 0-7.9 4.4-7.9 8 0 .7.1 1 1 1H415zm-25.7 4.3c0-13.4 7.6-20 19.1-20 12 0 17.8 6.9 17.8 20.7 0 1.1-.3 1.6-1.3 1.6h-23.5c-.9 0-1.1.4-1.1 1.5 0 6.3 5.3 8.5 11.5 8.5 6.4 0 9.6-2.3 11.1-2.3.8 0 1 .5 1 1.4v4.2c0 .9-.3 1.5-1.6 2.1-2.3 1-6.6 1.9-11.5 1.9-13.9-.1-21.5-5.9-21.5-19.6zM432.6 261.8v-35.5c0-.9.4-1.3 1.1-1.3h8.1c.9 0 1.1.3 1.1 1.2 0 .7 0 1 .7 1 1.9 0 4.1-2.9 9-2.9 2.7 0 3.2.7 3.2 1.9v5.6c0 .7-.3 1.3-1 1.3-1 0-2.2-.3-4.4-.3-4.8 0-7.1 2.2-7.1 6.1v22.9c0 .8-.4 1.3-1.1 1.3h-8.4c-.7-.1-1.2-.5-1.2-1.3M485.4 250.8v-15.2c0-3-2.9-4.4-6.5-4.4-5.6 0-9.7 3.4-9.7 12.8 0 7.3 2.6 11.9 9.2 11.9 3.4-.1 7-1.3 7-5.1m-22.7 26.8c-2-.7-2.4-1.4-2.4-3v-4.2c0-1.1.4-1.7 1.3-1.7 1.7 0 5.4 3 12.9 3 3.2 0 6.1-.6 8.2-2 1.9-1.3 2.7-3.6 2.7-6.2v-1.9c0-.6-.1-1-.7-1-1.1 0-3.6 2.4-9.7 2.4-10.7 0-16.8-7.1-16.8-19.1 0-13.1 7.3-20 17.4-20 5.9 0 7.6 2.5 9.4 2.5.4 0 .7-.1.7-.7 0-.5.2-.8.7-.8h7.9c.8 0 1.1.4 1.1 1.3v35.2c0 6-.6 9.8-3.4 12.8-3.8 4.1-10.1 5.5-16.8 5.5-5.5-.1-10.1-1.2-12.5-2.1zM505.9 277.7v-4.6c0-1.1.4-1.6 1.3-1.6.4 0 1 .1 2.2.1 2 0 3.3-.5 4.2-2.3.7-1.7 1.1-2.7 1.1-3.6 0-.4-.1-1.1-.4-1.9l-12.5-36.7c-.2-.7-.4-1-.4-1.3 0-.5.4-.9 1.1-.9h8.5c.7 0 1.2.3 1.4.9l7.8 26.8c.1.4.2.7.6.7.4 0 .4-.2.6-.7l7.5-26.8c.1-.7.7-.9 1.4-.9h7.1c.7 0 1 .4 1 .8s-.1.7-.3 1.5L524.2 269c-2.4 7.5-6.8 10.6-13.7 10.6-3.8 0-4.6-.6-4.6-1.9M124.1 176.3v2.6c13.2 6.4 23.2 18.6 23.2 34.5 0 18.1-11.7 33.3-27.7 38.4l9.3 9.3c14.9-5.7 28.3-20.3 28.3-38.6 0-4.7-.8-9.2-2.2-13.4h1.4c4.1 6.5 6.5 14.2 6.5 22.6 0 17.3-10.4 32.2-25.2 38.5l9.4 9.6c15.8-7.8 26.5-24.4 26.6-43.4 0-33.4-39.8-56.5-49.6-60.1z"/></svg>