<svg version="1.1" id="Layer_1" xmlns="http://www.w3.org/2000/svg" x="0" y="0" width="281.8" height="182" style="enable-background:new 0 0 281.8 182" xml:space="preserve"><style>.st1{fill:#007db1}</style><path style="fill:none" d="M0 0h281.3v181.8H0z"/><path class="st1" d="m131.8 79.1.1 8.6c-.4 4.2-1.6 9.9-4 15-.2.8-.4 1.5-.7 2-2.4 5.5-9.7 13.5-9.7 13.5l-7 5.8s-1.3.6-3.6 1.6c-1 .3-4 1-6.6 1.6-2.5.6-7.4 1.5-8.7 3.1.6-.1 3.4-.1 4.1.1-.7.4-2.6.7-3.8 1.1-.1 0-.3.1-.5.1-1.6.4-3.7.8-5.5.9-3.2.7-6.4 1.1-9.3 1.1-5.5 0-14.8-1.4-21.3-4.2-6.5-2.8-13.1-5.7-18.6-11.6-4.2-4.5-7.6-7.7-10.8-15.1-3.9-9.1-5.2-25.9-5.5-28.9-.3-2.9-.6-21.7-.6-21.7h3.9c.6 1.1 3 2.1 6.4 1.5 0 5 .2 21.1.6 25.5.5 6.3 1.6 11.3 2.7 15.7 1.1 4.4 6.9 12.4 9.3 15.2 2.4 2.8 6.2 5.4 10.2 7.4 4 2 12.6 4.1 12.6 4.1s5.4 2.3 11.3 1.9c5.9-.4 20.4-5.9 20.4-5.9s6.8-3.6 10.7-7.2c3.9-3.5 8.6-13 8.6-13s2.7-3.9 2.7-5.6l1.6-16.5-1.1-46.4 12.6 8.2 7.9 5.8-8.3.5-.9 20.4c-1.1 5.4-1.3 14.8-1.4 15.7l-.1 1.6c-.2 1.2 0 2.4.6 3.1 0-.2.1-.3.2-.4.6-1.7 1-4.4 1.5-5.4v.8z"/><path d="m116.6 26.6-8.8-6.3 1.9 50.8c0 2.2 1.4 10.2.4 14.5-.5 2.4-.3 9.6-2.9 13.1-2.5 3.6-6.3 6.3-8.6 8.6s-6.2 3.8-10.3 5.7c-4 1.9-5.8 2-13.1 2.3-7.3.2-11.9-1.9-16-4.6-4-2.6-9.4-3.5-11.4-7.4-2.8-5.4-4.6-6.9-5.2-12-.5-4.5-2-11.4-2-17.5-.1-5.2 0-14.8 0-17.4-.4.1-.9.3-1.4.4-.2 1-.6 2-1.2 2.7-.4 0-2.2-.3-2.6-.4-.4.3-1.2.6-1.9.8v13.4c0 16.1 1.9 23.8 10.9 33.7 9 9.8 23.5 12.5 31.5 12.5 13.6 0 23.5-5.4 30.6-12.6 6.9-7.1 10.9-15.2 10.9-33.6l-.8-46.7z" style="fill:#64aed3"/><path d="m105.6 65.4-.3-43.5s-7.2 7.2-11.2 11C90 36.8 81.4 44 81.4 44l12.5-1 .1 11c.6-.2 1.1-.5 1.1-.5s.4 1.5.2 2.2l-.2 2.5c0 1.8-.3 11.1-1.4 15.8-.3 5-.7 10.4-1.1 12.4-.8 3.6-2.3 6.2-4.6 9.2-2.4 3-6.5 3.3-9.6 3.7-3.1.4-9.7-1.5-12-3.4-2.4-1.9-5.6-5.6-7.1-8.6-1.5-2.9-1.3-10.2-1.3-13 0-3.3-.2-20.6-.2-22l.3-2.1h-5.8c-.2 2.8-.8 4.4-1.7 5.5-.2-.5-.4-1.2-.5-2.2-2.6.7-4.1 1.1-5.4 1.3v.8c0 8.7-.8 24.6 1.2 31.7.8 3.1 4.5 12 6.6 14.4 3.9 4.4 6.5 5.1 11 6.9 4 1.6 6.8 3 12 3.4 4.3.3 14.7-1.8 18.7-4.5 2.6-1.8 8.5-7.9 10-10.8 1.5-2.9 2.7-6 2.7-15.6 0-4.7-1.3-9.5-1.3-15.7z" style="fill:#8dc63f"/><path class="st1" d="M167.4 73.1c0 4.6-2.8 8.1-8.2 8.1-5.5 0-8.3-3.4-8.3-8.1v-12h4.3V73c0 2.4 1.7 4.2 4 4.2s3.9-1.8 3.9-4.2V61.1h4.3v12zM171.4 61.1h5.9l8.3 13.6h.1V61.1h4.3v19.6h-5.6l-8.5-13.9h-.1v13.9h-4.3V61.1zM194 61.1h4.3v19.6H194V61.1zM211.9 60.6c6.1 0 10.6 4 10.6 10.3 0 6.3-4.5 10.3-10.6 10.3s-10.6-4-10.6-10.3c0-6.3 4.4-10.3 10.6-10.3zm0 16.6c3.7 0 6.1-2.7 6.1-6.3 0-3.7-2.4-6.3-6.1-6.3-3.7 0-6.1 2.7-6.1 6.3 0 3.6 2.4 6.3 6.1 6.3zM225.5 61.1h5.9l8.3 13.6h.1V61.1h4.3v19.6h-5.6L230 66.8h-.1v13.9h-4.3V61.1zM168.6 104.5c-2.5 1.3-5.3 1.9-8.2 1.9-6.1 0-10.6-4-10.6-10.3 0-6.3 4.5-10.3 10.6-10.3 3.1 0 5.8.7 7.8 2.5l-3 3.3c-1.2-1.2-2.6-1.9-4.8-1.9-3.7 0-6.1 2.7-6.1 6.3 0 3.7 2.4 6.3 6.1 6.3 1.9 0 3.3-.5 4.1-1v-3.2H161v-4h7.7v10.4zM182.5 85.8c6.1 0 10.6 4 10.6 10.3 0 6.3-4.5 10.3-10.6 10.3s-10.6-4-10.6-10.3c0-6.2 4.4-10.3 10.6-10.3zm0 16.6c3.7 0 6.1-2.7 6.1-6.3 0-3.7-2.4-6.3-6.1-6.3-3.7 0-6.1 2.7-6.1 6.3 0 3.7 2.4 6.3 6.1 6.3zM206.1 91.1c-.7-.9-2.1-1.3-3.1-1.3-1.2 0-2.9.6-2.9 2 0 3.6 9 1.3 9 8.1 0 4.4-3.5 6.4-7.6 6.4-2.5 0-4.7-.7-6.6-2.5l3.1-3.4c.9 1.2 2.3 1.9 3.8 1.9 1.4 0 3-.7 3-2 0-3.6-9.2-1.7-9.2-8.2 0-4.2 3.6-6.4 7.5-6.4 2.2 0 4.3.6 6 2l-3 3.4zM212.8 86.3h7.3c4.1 0 7.4 1.3 7.4 5.9 0 4.6-3.1 6-7.2 6h-3.2v7.6h-4.3V86.3zm4.4 8.3h2.9c1.5 0 3-.5 3-2.4 0-2-2-2.3-3.7-2.3h-2.2v4.7zM230.7 86.3H244v4h-9V94h8.5v4H235v4h9v4h-13.3V86.3zM248.8 86.3h4.3v15.6h8v4h-12.3V86.3zM150.8 111.6h6.5l4.5 12.8h.1l4.5-12.8h6.5v19.6h-4.3v-15h-.1l-5.1 15h-3.3l-5-15h-.1v15h-4.3v-19.6zM176.1 111.6h4.3v19.6h-4.3v-19.6zM193.2 116.4c-.7-.9-2.1-1.3-3.1-1.3-1.2 0-2.9.6-2.9 2 0 3.6 9 1.3 9 8.1 0 4.4-3.5 6.4-7.6 6.4-2.5 0-4.7-.7-6.6-2.5l3.1-3.4c.9 1.2 2.3 1.9 3.8 1.9 1.4 0 3-.7 3-2 0-3.6-9.2-1.7-9.2-8.2 0-4.2 3.6-6.4 7.5-6.4 2.2 0 4.3.6 6 2l-3 3.4zM208 116.4c-.7-.9-2.1-1.3-3.1-1.3-1.2 0-2.9.6-2.9 2 0 3.6 9 1.3 9 8.1 0 4.4-3.5 6.4-7.6 6.4-2.5 0-4.7-.7-6.6-2.5l3.1-3.4c.9 1.2 2.3 1.9 3.8 1.9 1.4 0 3-.7 3-2 0-3.6-9.2-1.7-9.2-8.2 0-4.2 3.6-6.4 7.5-6.4 2.2 0 4.3.6 6 2l-3 3.4zM213.3 111.6h4.3v19.6h-4.3v-19.6zM230.2 111.1c6.1 0 10.6 4 10.6 10.3 0 6.3-4.5 10.3-10.6 10.3s-10.6-4-10.6-10.3c.1-6.3 4.5-10.3 10.6-10.3zm0 16.6c3.7 0 6.1-2.7 6.1-6.3 0-3.7-2.4-6.3-6.1-6.3-3.7 0-6.1 2.7-6.1 6.3.1 3.6 2.5 6.3 6.1 6.3zM243 111.6h5.9l8.3 13.6h.1v-13.6h4.3v19.6H256l-8.5-13.9h-.1v13.9H243v-19.6z"/></svg>