<svg version="1.1" id="Layer_1" xmlns="http://www.w3.org/2000/svg" x="0" y="0" width="792" height="612" style="enable-background:new 0 0 792 612" xml:space="preserve"><style>.st0{fill:#fff}.st1{fill:#25326b}.st3{fill:#a4782b}.st4{fill:#ed2227}</style><path class="st0" d="M391.8 17 102.5 303.3l289.3 289.2 288-289.2z"/><path class="st1" d="M391.8 595.9 99 303.3l1.7-1.7 291-288 291.5 289.7-291.4 292.6zM105.9 303.3 391.8 589l284.6-285.7L391.8 20.4 105.9 303.3z"/><path style="fill:#11733c" d="M391.7 42.2 128.6 302.5l263.1 263 262-263z"/><path class="st1" d="m391.7 567.2-.9-.9-264-263.9.9-.9 264-261.2.9.8 262.8 261.2-.9.9-262.8 264zM130.3 302.5l261.4 261.3 260.2-261.3L391.7 43.9 130.3 302.5z"/><path class="st3" d="m424.1 543.1-33 31.6-33-31.6v-36.3h66z"/><path class="st1" d="m391.1 576.4-34.2-32.7v-38.1h68.4v38.1l-34.2 32.7zm-31.7-33.8 31.8 30.4 31.8-30.4V508h-63.5v34.6z"/><path class="st0" d="M322.8 127h29.8v15.4h-1.4c-.8-9.2-3.6-13.8-8.6-13.8v55.1h3.8v1.5h-17.3l.1-1.6h3.5v-55.1c-2.6.2-4.6 1.6-6 4.3-1.4 2.7-2.3 5.9-2.5 9.6h-1.4V127zM375.6 127h16.2v1.5h-2.9v23.6h7.8v-23.6H394V127h16v1.5h-3.4v55.1h3.4v1.6h-16v-1.6h2.7v-30h-7.8v30h2.9v1.6h-16.2v-1.6h3.4v-55.1h-3.4V127zM432.3 127h26v14H457c-1.1-8.3-3.8-12.5-8.3-12.5h-3v25h1.8c1.8 0 3.2-.6 4.2-1.8 1-1.2 1.5-2.8 1.5-4.8v-1.7h1.4V164h-1.4v-1.5c0-4.9-1.8-7.4-5.4-7.4h-2.1v28.4h2.5c4.7 0 7.8-4.8 9.3-14.5h1.3v16.1h-26.4v-1.6h3.4v-55.1h-3.5V127zM300.3 432.8h-1.6c-.6-1-1.3-1.9-2.1-2.7-1.9 2.2-4.1 3.3-6.8 3.3-5.3 0-9.3-2.6-12-8-2.7-5.3-4.1-13-4.1-23.1 0-9.4 1.2-16.8 3.7-21.9 2.4-5.2 6.6-7.7 12.3-7.7 2.3 0 4.4 1.1 6.1 3.4 1-.8 1.7-1.7 2.1-2.6h1.6v14.4H298c-1.2-4.7-2.4-8.2-3.7-10.5-1.3-2.2-2.8-3.3-4.6-3.3-1.8 0-3.3.9-4.5 2.6-1.2 1.7-1.8 4.1-1.8 7V423c0 2.7.6 4.9 1.8 6.7 1.2 1.7 2.8 2.6 4.6 2.6 2.3 0 4.2-1.3 5.5-3.8 1.3-2.5 2.4-6.5 3.3-12.1h1.6v16.4zM347.5 432.8h-17.3v-1.4h3.7v-30.9h-12.1v30.9h3.8v1.4h-17.3v-1.4h4.6v-56.5h-4.6v-1.4h17.3v1.4h-3.8v24.3h12.1v-24.3h-3.7v-1.4h17.3v1.4h-4.7v56.5h4.7v1.4zM370.1 374.8h-4.6v56.5h4.5v1.4h-18v-1.4h4.6v-56.5H352v-1.4h18.1v1.4zM402.5 432.8h-1.6c-.6-1-1.3-1.9-2.1-2.7-1.9 2.2-4.1 3.3-6.8 3.3-5.3 0-9.3-2.6-12-8-2.7-5.3-4.1-13-4.1-23.1 0-9.4 1.2-16.8 3.7-21.9 2.4-5.2 6.6-7.7 12.3-7.7 2.3 0 4.4 1.1 6.1 3.4 1-.8 1.7-1.7 2.1-2.6h1.6v14.4h-1.6c-1.2-4.7-2.4-8.2-3.7-10.5-1.3-2.2-2.8-3.3-4.6-3.3-1.8 0-3.3.9-4.5 2.6-1.2 1.7-1.8 4.1-1.8 7V423c0 2.7.6 4.9 1.8 6.7 1.2 1.7 2.8 2.6 4.6 2.6 2.3 0 4.2-1.3 5.5-3.8 1.3-2.5 2.4-6.5 3.3-12.1h1.6v16.4zM444.1 432.8h-17.7v-1.4h4.4l-3.8-15.2h-12.3c-1.8 7.7-2.7 11.8-2.7 12.4 0 1.9 1.1 2.8 3.4 2.8h2.5v1.4H404v-1.4h1.4c2.6 0 4.3-1.6 5-4.7l12.5-54h2l14.8 58.8h4.3v1.3zm-17.4-18-6-24.6-5.7 24.6h11.7zM476.7 408.5h-4.6v18.1c-1.3 2.1-3.2 3.7-5.8 4.9s-5.3 1.8-8.2 1.8c-5.5 0-9.7-2.5-12.6-7.5-2.9-5-4.3-12.3-4.3-21.8 0-11 1.2-18.9 3.7-23.9s6.5-7.5 11.9-7.5c3.7 0 6.5 1.1 8.4 3.4 1-.8 1.7-1.7 2.1-2.6h1.6v14.4h-1.6c-2.3-9.2-5.5-13.8-9.6-13.8-2.1 0-3.8.8-5 2.5-1.2 1.6-1.8 4-1.8 7.1v39.6c0 2.6.6 4.8 1.9 6.4s2.9 2.5 5 2.5c1.6 0 3-.7 4-2.1 1-1.4 1.5-3.2 1.5-5.5v-16h-4.6v-1.4h18v1.4zM496.9 372.7c5.4 0 9.4 2.4 12 7.2 2.6 4.8 3.9 12.3 3.9 22.4 0 10.4-1.3 18.1-4 23.3-2.7 5.2-6.7 7.8-12.1 7.8-5.3 0-9.3-2.6-12-8-2.7-5.3-4.1-13-4.1-23.1 0-9.4 1.2-16.8 3.7-21.9 2.4-5.2 6.6-7.7 12.3-7.7h.3zm6.1 50.2v-40.1c0-2.6-.6-4.8-1.8-6.4-1.2-1.6-2.8-2.4-4.6-2.4-1.8 0-3.3.9-4.5 2.6-1.2 1.7-1.8 4-1.8 6.9v39.3c0 2.7.6 4.9 1.8 6.6 1.2 1.7 2.8 2.5 4.7 2.5 1.8 0 3.2-.8 4.4-2.5s1.8-3.8 1.8-6.5zM332.9 450.5h14v7.6h-.7c-.6-4.5-2.1-6.7-4.5-6.7h-1.6v13.5h.9c1 0 1.7-.3 2.3-1 .6-.6.8-1.5.8-2.6v-.9h.7v10.1h-.7v-.8c0-2.7-1-4-2.9-4h-1.1v15.4h1.4c2.5 0 4.2-2.6 5-7.8h.7v8.7h-14.3v-.8h1.9v-29.7h-1.9v-1zM349.9 472.1h.7c.4 3 1.2 5.3 2.4 6.9s2.5 2.5 4 2.5c1.1 0 1.9-.5 2.6-1.5.7-1 1-2.2 1-3.7 0-2.4-1.1-4.5-3.3-6.3-.7-.4-1.6-1.1-2.8-2-1.2-.9-2-1.7-2.6-2.5-.6-.7-1.1-1.7-1.5-2.9-.4-1.2-.6-2.4-.6-3.6 0-2.6.6-4.7 1.8-6.4 1.2-1.7 2.7-2.5 4.5-2.5 1.1 0 2.1.3 3 .8.9.5 1.5.8 1.7.8.3 0 .5-.1.7-.3.2-.2.3-.5.3-.8v-.2h.7v8.6h-.7c-.3-2.4-.9-4.3-1.9-5.8-1-1.5-2.1-2.3-3.3-2.3-1 0-1.8.4-2.4 1.1s-.9 1.7-.9 2.9c0 1.5.4 2.8 1.3 3.9s2.4 2.4 4.5 3.8c3.4 2.2 5.2 5.5 5.2 9.7 0 2.8-.7 5.2-2.1 7-1.4 1.9-3.1 2.8-5.2 2.8-1.2 0-2.3-.4-3.2-1.1-.9-.7-1.5-1.1-1.8-1.1-.7 0-1.1.6-1.2 1.8h-.8v-9.6zM365.8 450.5h16.1v8.3h-.7c-.4-5-2-7.5-4.6-7.5v29.8h2v.8h-9.3v-.8h1.9v-29.7c-1.4.1-2.5.9-3.3 2.3-.8 1.5-1.2 3.2-1.4 5.2h-.7v-8.4zM381.6 478.7c0-1 .3-1.8.9-2.5.6-.7 1.4-1.1 2.2-1.1.9 0 1.6.4 2.2 1.1.6.7.9 1.6.9 2.6s-.3 1.8-.9 2.5c-.6.7-1.4 1.1-2.2 1.1-.9 0-1.6-.3-2.2-1-.6-.9-.9-1.7-.9-2.7zM398 450.9h1.4c1.6 0 3.5-.2 5.6-.6h.8v30.8h2.9v.8h-10.8v-.8h3v-29.3h-3v-.9zM411.8 482.3v-.8c2.8-1 4.9-2.8 6.2-5.5 1.3-2.7 2-5.5 2-8.4-1.1 1.3-2.3 2-3.7 2-1.5 0-2.8-.8-3.9-2.5-1-1.7-1.5-3.8-1.5-6.4 0-3 .7-5.4 2.1-7.5 1.4-2 3.1-3 5.2-3 2.2 0 3.9 1.2 5.2 3.7s2 5.7 2 9.8c0 4.5-1.3 8.6-3.8 12.2-2.5 3.5-5.7 5.6-9.8 6.4zm4.5-28v9.3c0 1.5.1 2.5.4 3.2.2.6.7.9 1.3.9 1.5 0 2.2-1.4 2.2-4.1v-9.3c0-1-.2-1.8-.5-2.4-.3-.6-.8-.9-1.4-.9-1.4 0-2 1.1-2 3.3zM427.8 464.6l.3-12.4c0-.6.2-.9.5-.9h8.4c1.3 0 2-.4 2-1.2h.7c-.2 2-.5 3.4-.9 4.3-.4.9-1 1.4-1.9 1.4h-8.2l-.1 8c1-.5 2.2-.7 3.4-.7 2.4 0 4.4.9 5.9 2.6 1.5 1.7 2.3 4 2.3 6.8 0 3-.8 5.4-2.3 7.2-1.5 1.8-3.6 2.7-6.1 2.7-1.6 0-2.9-.6-4.1-1.7-1.2-1.1-1.8-2.4-1.8-3.9 0-1.1.3-2 .8-2.7.5-.7 1.2-1 2-1s1.5.3 2 .8.8 1.2.8 2.1c0 1.4-.6 2.4-1.8 3.2-.5.3-.8.6-.8.9 0 .3.3.7.8.9.6.3 1.2.4 1.8.4 1.2 0 2.1-.6 2.6-1.8.5-1.2.8-3.2.8-5.9 0-3.4-.3-5.9-.9-7.4-.6-1.5-1.6-2.2-3-2.2-.7 0-1.4.1-1.9.4-.6.3-.9.4-1.1.4-.1 0-.2-.1-.2-.3zM443.5 464.6h2.3c1.5 0 2.4-.4 2.8-1.3.4-.9.7-2.6.7-5 0-3.2-.2-5.3-.6-6-.4-.8-1.1-1.2-2.1-1.2-.6 0-1.3.2-1.8.5-.6.3-.9.6-.9.9 0 .3.2.5.7.8 1.1.6 1.6 1.5 1.6 2.8 0 .8-.2 1.5-.7 2.1-.5.6-1.1.8-1.9.8-.8 0-1.4-.3-1.9-.9-.5-.6-.8-1.4-.8-2.3 0-1.7.6-3 1.8-4 1.2-1 2.8-1.5 4.8-1.5s3.6.7 5 2c1.3 1.3 2 3 2 5 0 1.9-.6 3.5-1.7 4.9-1.1 1.4-2.7 2.4-4.8 2.9v.1c2.3.6 4.1 1.7 5.3 3.2 1.2 1.5 1.8 3.3 1.8 5.3 0 2.5-.8 4.6-2.3 6.2-1.5 1.6-3.5 2.4-5.8 2.4-1.8 0-3.3-.5-4.5-1.6-1.2-1.1-1.8-2.4-1.8-4 0-1 .3-1.9.8-2.6.5-.7 1.1-1 1.9-1 .8 0 1.5.3 2 .9.5.6.8 1.3.8 2.2 0 1.2-.6 2.2-1.8 3-.5.4-.8.7-.8.9 0 .3.3.6.9.9.6.3 1.3.5 1.9.5 1.3 0 2.2-.5 2.6-1.4.4-1 .6-2.7.6-5.2 0-3.5-.2-5.9-.7-7.2-.4-1.4-1.3-2-2.7-2h-2.9v-1.1z"/><g><path class="st0" d="m365.2 147.5-8.5 8.4 8.5 8.5 8.4-8.5z"/></g><g><path class="st0" d="m421.2 147.5-8.5 8.4 8.5 8.5 8.5-8.5z"/></g><g><path d="M590.4 451.6h-4.9v6.1c0 1.3.3 2.3 1 3 .7.7 1.6 1 3 1h.6v.6h-13.8v-.6h.6c1.3 0 2.3-.3 3-1 .6-.6 1-1.6 1-3V445c0-1.4-.3-2.3-1-3-.6-.6-1.6-1-3-1h-.6v-.6h16.9c2.3 0 4.1.2 5.4.5 1.3.3 2.4.9 3.2 1.7.4.4.8 1 1.1 1.6s.4 1.2.4 1.8c0 1.6-.9 3-2.6 4-.6.3-1.5.6-2.6.9-1.1.3-2.2.5-3.3.5-.8.1-2.1.1-3.8.1v.1c.8.5 1.6 1 2.3 1.3.7.4 1.4.7 2 .9.7.2 1.5.5 2.3.7l.5.8c.3.5.6.9.8 1.1s.4.5.6.9c.6.9 1.1 1.7 1.7 2.3.5.6 1 1.1 1.3 1.4.7.4 1.6.7 2.9.7h.6v.6h-8.2l-7.4-10.7zm-4.9-.6h6.2c1.5 0 2.7-.2 3.6-.5.9-.4 1.6-.9 2.1-1.6.5-.7.7-1.7.7-2.8 0-3.3-2.1-5-6.3-5h-6.3v9.9z"/><path d="M606.6 462.8h-8.9l-7.5-10.7H586v5.6c0 1.2.3 2.1.8 2.6.6.6 1.4.8 2.6.8h1.1v1.6h-14.7v-1.6h1.1c1.2 0 2.1-.3 2.6-.8.6-.6.8-1.4.8-2.6V445c0-1.2-.3-2.1-.8-2.6s-1.4-.8-2.6-.8h-1.1V440h17.4c2.3 0 4.2.2 5.5.5 1.4.4 2.6 1 3.4 1.8.5.5.9 1.1 1.2 1.7.3.7.4 1.4.4 2 0 1.8-.9 3.3-2.8 4.4-.7.4-1.6.7-2.7 1-1.1.3-2.2.5-3.3.6-.5 0-1.3.1-2.2.1.3.2.6.3.9.5.7.3 1.3.6 2 .9.7.2 1.4.5 2.3.6h.2l.6.9c.3.5.6.9.8 1.1l.6.9c.6.9 1.1 1.6 1.6 2.3.5.6.9 1 1.2 1.3.6.4 1.5.6 2.6.6h1.1v1.6zm-8.4-1h4.9c-.3-.1-.5-.2-.8-.4-.4-.3-.9-.8-1.4-1.5-.5-.7-1.1-1.4-1.7-2.3l-.6-.9c-.2-.2-.4-.6-.8-1.1l-.4-.6c-.8-.2-1.5-.4-2.2-.6-.7-.2-1.4-.6-2.1-.9-.5-.2-.9-.5-1.5-.8l6.6 9.1zm-19.1 0h8.2c-.5-.2-.8-.4-1.2-.8-.7-.7-1.1-1.9-1.1-3.3V441h-5.8c.4.2.8.4 1.1.7.7.7 1.1 1.9 1.1 3.3v12.7c0 1.5-.4 2.6-1.1 3.3-.3.4-.7.6-1.2.8zM595 441c2.9.9 3.6 3.1 3.6 5 0 1.2-.3 2.3-.8 3.1-.5.8-1.3 1.4-2.3 1.8h-.1c.9-.1 1.7-.3 2.6-.5 1-.3 1.9-.6 2.5-.9 1.5-.9 2.3-2.1 2.3-3.5 0-.5-.1-1.1-.4-1.6-.2-.6-.6-1-1-1.4-.7-.7-1.7-1.2-2.9-1.6-.9-.2-2-.3-3.5-.4zm-9 9.5h5.7c1.4 0 2.6-.2 3.4-.5.8-.3 1.5-.8 1.9-1.4.4-.7.6-1.5.6-2.6 0-3-1.9-4.5-5.8-4.5H586v9z"/></g><g><path class="st1" d="M118.2 293.9c-53.5-5.4-108 24.8-108 24.8l64.2 31.6s-21.9 46.2-33.6 74.9c36-16.5 67.8-30.8 128.4-26.3-12.1-52-51-105-51-105z"/><path class="st4" d="M40.9 428.2c-.7 0-1.5-.3-2-.8-.9-.8-1.1-2.1-.7-3.2 10-24.5 27.6-62.3 32.4-72.5L8.9 321.3c-1-.5-1.6-1.5-1.6-2.5 0-1.1.6-2.1 1.5-2.6 2.3-1.2 55.9-30.5 109.7-25.2.8.1 1.6.5 2.1 1.2.4.5 39.4 54.1 51.6 106.1.2.9 0 1.9-.6 2.6-.6.7-1.5 1.1-2.4 1-60.5-4.5-91.3 9.6-127 26-.5.2-.9.3-1.3.3zM16.7 318.7l59 29c1.4.7 2 2.4 1.3 3.9-.2.4-18.8 39.6-30.7 67.9 15-6.8 30.7-13.6 48.7-18.1 21.6-5.5 44-7.2 70.4-5.6-11.8-45.7-43.6-91.6-48.9-99.1-42.2-3.8-85.3 14.9-99.8 22z"/></g><g><path class="st1" d="m169.3 399-40.4-23.9 30.8-8.8z"/><path class="st4" d="M169.3 401.9c-.5 0-1-.1-1.5-.4l-40.4-23.8c-1-.6-1.6-1.7-1.4-2.9.1-1.2 1-2.1 2.1-2.4l30.8-8.8c1.5-.4 3.1.4 3.6 2l9.6 32.6c.3 1.1-.1 2.4-1 3.1-.5.4-1.2.6-1.8.6zm-33.1-25.8 28.2 16.6-6.7-22.8-21.5 6.2z"/></g><g><path class="st1" d="M670.8 293.9c53.5-5.4 108 24.8 108 24.8l-64.2 31.6s21.9 46.2 33.6 74.9c-36-16.5-67.8-30.8-128.4-26.3 12.1-52 51-105 51-105z"/><path class="st4" d="M748.1 428.2c-.4 0-.8-.1-1.2-.3-66.5-30.5-94.5-28.4-127-26-.9.1-1.8-.3-2.4-1-.6-.7-.8-1.7-.6-2.6 12.2-52 51.2-105.6 51.6-106.1.5-.7 1.2-1.1 2.1-1.2 53.8-5.4 107.4 23.9 109.7 25.2 1 .5 1.5 1.5 1.5 2.6s-.7 2.1-1.6 2.5l-61.6 30.4c4.8 10.2 22.4 47.9 32.4 72.5.5 1.1.2 2.4-.7 3.2-.7.5-1.4.8-2.2.8zm-106.7-33c44.8 0 73 11.4 101.2 24.3-11.9-28.3-30.5-67.5-30.7-67.9-.7-1.4-.1-3.2 1.3-3.9l59-29c-14.5-7-57.6-25.7-99.9-22-5.3 7.5-37.1 53.5-48.9 99.1 6.4-.4 12.3-.6 18-.6z"/></g><g><path class="st1" d="m619.7 399 40.4-23.9-30.8-8.8z"/><path class="st4" d="M619.7 401.9c-.6 0-1.3-.2-1.8-.6-.9-.7-1.3-2-1-3.1l9.6-32.6c.5-1.5 2.1-2.4 3.6-2l30.8 8.8c1.1.3 1.9 1.3 2.1 2.4.1 1.2-.4 2.3-1.4 2.9l-40.4 23.8c-.5.3-1 .4-1.5.4zm11.6-32-6.7 22.8 28.2-16.6-21.5-6.2z"/></g><g><path class="st1" d="M400.8 202c-2.1-.1-4.2-.1-6.3 0h-6.3v.1c-197.5 1.7-289.6 43.4-289.6 43.4l30.3 129.7C207 349.9 302.5 344 388.2 344h12.6c85.7-.1 181.2 5.8 259.3 31.2l30.3-129.7c0-.1-92.1-41.7-289.6-43.5z"/><path class="st4" d="M660.1 378.1c-.3 0-.6 0-.9-.1-64.5-20.9-148.8-31.1-257.9-31H387c-108.7 0-192.8 10.2-257.2 31-.8.3-1.6.2-2.3-.2-.7-.4-1.2-1.1-1.4-1.9L95.7 246.1c-.3-1.4.4-2.7 1.6-3.3 1-.4 23.8-10.7 71.3-21.2 43.6-9.7 116.9-21.5 218.9-22.4.2 0 .4-.1.6-.1H400.7c.2 0 .4 0 .6.1 56.4.5 140 4.8 218.9 22.4 47.5 10.6 70.3 20.8 71.3 21.2 1.3.6 2 2 1.6 3.3L663 375.8c-.2.8-.7 1.5-1.4 1.9-.5.2-1 .4-1.5.4zM102 247.2l29 124.2C195.5 351 279.3 341 387 341c.6 0 1.2-.1 1.7 0h11.6c.5-.1 1.1 0 1.7 0 107.7 0 191.4 9.9 256 30.4l29-124.2c-6.8-2.8-29.4-11.4-68.2-20-43.4-9.6-116.4-21.3-218-22.2-.2 0-.4 0-.6-.1h-11.4c-.2 0-.4.1-.6.1-56.2.5-139.6 4.8-218.2 22.3-38.8 8.6-61.2 17.1-68 19.9z"/></g><g><path d="M592.2 475.1c-13.1 0-23.7-10.6-23.7-23.7s10.6-23.7 23.7-23.7 23.7 10.6 23.7 23.7-10.7 23.7-23.7 23.7zm0-45.5c-12 0-21.8 9.8-21.8 21.8s9.8 21.8 21.8 21.8 21.8-9.8 21.8-21.8c-.1-12-9.8-21.8-21.8-21.8z"/></g><g><path class="st0" d="m180.6 338.1-2.4.5c-1.2-1.4-2.6-2.5-4.2-3.4-2.1 4-5.1 6.4-9.1 7.3-8 1.8-15-.9-20.9-8.1-5.9-7.1-10.5-18.4-13.9-33.7-3.1-14.3-3.7-25.8-1.7-34.5 2-8.6 7.4-13.9 16.1-15.9 3.6-.8 7 .3 10.3 3.1 1.2-1.6 2-3.1 2.4-4.7l2.5-.5 4.8 21.8-2.5.5c-3.3-6.8-6.3-11.7-9-14.6-2.7-3-5.4-4.1-8-3.6-2.8.6-4.7 2.4-5.9 5.5-1.2 3-1.3 6.8-.3 11.2l13.1 59.6c.9 4.1 2.6 7.3 5 9.5s5 3 7.9 2.4c3.6-.8 5.9-3.3 7-7.6s1.5-10.7 1-19.4l2.4-.5 5.4 25.1zM222.9 240.3l-2.3.4c-1.6.2-2.7.9-3.5 1.9-.8 1.1-1.1 2.3-.9 3.6l10.5 67.1c.9 6 0 10.8-2.9 14.3s-7.6 5.8-14.2 6.8c-6.3 1-11.5-.1-15.6-3.2s-6.6-8.1-7.7-14.9l-10.7-68.7-7.1 1.1-.3-2.2 27.8-4.3.3 2.2-7.1 1.1 12.1 77.8c.4 2.8 1.7 4.9 3.9 6.3 2.1 1.3 4.8 1.8 8.1 1.2 4-.6 7-2.4 8.8-5.5 1.9-3 2.4-7 1.7-11.9l-10.4-66.9c-.2-1.4-.9-2.5-1.9-3.2-1.1-.7-2.4-1-3.9-.7l-2.3.4-.3-2.2 17.7-2.8.2 2.3zM267.7 278.8c5.3.8 9.5 2.9 12.5 6.5s4.9 8.5 5.5 14.8c.8 7.3-.3 13.3-3.1 17.9-2.8 4.6-6.9 7.2-12.3 7.8l-32.9 3.4-.2-2.2 7.1-.7-9.2-87.4-7.1.7-.2-2.2 31.2-3.3c5.5-.6 10.2 1 14.1 4.9 3.9 3.8 6.2 9.2 6.9 16 .6 5.3-.3 10.1-2.5 14.3-2.2 4.2-5.5 7.2-9.8 9.1v.4zm-1.1-8.3-2.7-25.6c-.3-3.2-1.1-5.4-2.3-6.7-1.2-1.3-3-1.8-5.4-1.5l-7.3.8 4.4 41.5 6.2-.6c5.2-.6 7.6-3.2 7.1-7.9zm5.3 44-2.7-25.6c-.6-6.1-3.6-8.9-8.9-8.4l-6.8.7 4.6 43.6 7-.7c5.1-.6 7.4-3.8 6.8-9.6zM324.2 274.5c5.3 1 9.3 3.4 12.2 7 2.9 3.7 4.5 8.7 4.8 15.1.4 7.3-.9 13.3-3.9 17.7-3 4.5-7.2 6.9-12.7 7.2l-33 2-.1-2.2 7.2-.4-5.2-87.7-7.2.4-.1-2.2 31.3-1.9c5.5-.3 10.1 1.5 13.8 5.5 3.7 4 5.7 9.4 6.1 16.3.3 5.4-.7 10.1-3.1 14.2-2.4 4.1-5.8 7-10.2 8.7l.1.3zm-.6-8.3-1.5-25.6c-.2-3.2-.9-5.5-2-6.8-1.1-1.3-2.9-1.9-5.4-1.8l-7.3.4 2.5 41.7 6.2-.4c5.2-.3 7.7-2.8 7.5-7.5zm3.2 44.2-1.5-25.7c-.4-6.2-3.2-9.1-8.5-8.8l-6.8.4 2.6 43.8 7-.4c5.1-.3 7.6-3.4 7.2-9.3zM401 229.5c-1 0-2 .1-2.8.3-.8.2-1.5.4-2.2.7-.6.3-1.2.7-1.8 1.2-.5.5-1 1.1-1.4 1.8-.4.7-.8 1.5-1.1 2.5l-14 41.8.6 40 7.2-.1v2.2l-28.2.5v-2.2l7.2-.1-.6-39.6-17.8-48-7.2.1v-2.2l28.7-.5v2.2l-7.2.1 15.8 43.1h.3l9.5-28.5c2.4-7.2 3.6-11.2 3.5-12.2 0-1.9-1.3-2.9-3.9-2.8h-2.8v-2.2l18.1-.3.1 2.2zM460 274.7c5.1 1.6 8.9 4.3 11.4 8.3 2.4 4 3.5 9.1 3.2 15.5-.4 7.4-2.3 13.1-5.8 17.2s-7.9 6.1-13.4 5.8l-33-1.6.1-2.2 7.2.3 4.3-87.7-7.2-.3.1-2.2 31.3 1.5c5.5.3 9.9 2.6 13.1 6.9 3.2 4.4 4.7 10 4.4 16.9-.3 5.4-1.8 10-4.6 13.7-2.8 3.8-6.5 6.3-11.1 7.5v.4zm-1.2 35.9 1.3-25.7c.3-6.2-2.2-9.4-7.5-9.6l-6.8-.3-2.1 43.8 7 .3c5.1.3 7.8-2.6 8.1-8.5zm1.5-44.2 1.2-25.7c.2-3.2-.3-5.5-1.3-7-1-1.4-2.7-2.2-5.1-2.3l-7.3-.4-2 41.7 6.2.3c5.3.3 8.1-1.9 8.3-6.6zM523.1 327l-49.4-4.6.2-2.2 7.1.7 8.2-87.5-7.1-.7.2-2.2 49 4.6-1.9 20.2-2.5-.2c-.3-6.2-1.5-10.9-3.7-14.1-2.2-3.2-5.5-5-10-5.4l-10.1-.9-3.7 39.5 7 .7c3.1.3 5.8-.4 8-2s3.4-3.7 3.7-6.4l.3-3.6 2.5.2-2.8 29.5-2.4-.2.1-.8c.4-4-.3-7.4-2-10-1.7-2.6-4.1-4-7.2-4.3l-7.5-.7-4.3 45.6 8.3.8c5.2.5 9.3-.9 12.2-4.2 3-3.3 5.5-8.6 7.6-15.9l2.4.2-2.2 23.9zM589.6 336.8l-27.2-4.2.3-2.2 6.8 1-2.2-24.3-18.9-2.9c-4.5 11.3-6.9 17.5-7 18.5-.4 2.8 1.1 4.5 4.6 5.1l3.8.6-.3 2.2-21.4-3.3.3-2.2 2.2.3c4 .6 7-1.4 8.8-6.1l31.9-80 3.1.5 9 93.7 6.6 1-.4 2.3zm-22.5-31.7-3.5-39.1-14.5 36.4 18 2.7zM653.1 342c-2.5 5.9-6.6 8.2-12.3 6.9-4.1-.9-6.9-3.1-8.5-6.4-1.6-3.4-1.8-7.9-.5-13.4l5.2-23.3c.6-2.6.4-4.7-.6-6.4-1-1.6-2.7-2.7-5.3-3.3l-6.7-1.5-10.1 45.4 7 1.6-.5 2.1-27.5-6.1.5-2.1 7 1.6 19.1-85.7-7-1.6.5-2.1 30 6.7c6.3 1.4 10.7 4.3 13.3 8.7 2.6 4.4 3.1 9.8 1.6 16.4-1.4 6.4-3.7 10.9-6.9 13.4-3.1 2.5-7.5 3.7-13 3.7l-.1.3 1.3.3c3.8.9 6.6 2.9 8.4 6.2 1.8 3.3 2.1 7.2 1.1 11.8l-5.4 24.2c-.7 3.1 0 4.9 2.1 5.3 2.2.5 3.8-.7 5-3.4l2.3.7zm-11.8-55.2 4-17.8c.9-3.8.8-6.8-.1-9.1-1-2.2-2.8-3.6-5.6-4.3l-6.2-1.4-8.5 38.2 6.5 1.5c2.3.5 4.4.1 6.3-1.2 1.8-1.3 3-3.3 3.6-5.9z"/></g><g><path class="st3" d="M391.2 32.1 351.9 71l39.3 39.4L430.4 71z"/><path class="st1" d="M391.2 112.1 350.1 71l41.1-40.6L432.1 71l-40.9 41.1zM353.6 71l37.6 37.6L428.7 71l-37.5-37.2L353.6 71z"/></g></svg>