<svg xmlns="http://www.w3.org/2000/svg" width="1224" height="792" style="enable-background:new 0 0 1224 792" xml:space="preserve"><path d="M579.3 330.5h9.8l-4.7 21.3c-2.2 10.1-6.9 15.2-17.6 15.2-8.5 0-12.6-4.5-12.6-11.6 0-1.5.2-3.3.6-5.1l4.3-19.8h9.8l-4.6 20.5c-.3 1.4-.5 2.7-.5 3.7 0 3.1 1.4 4.7 3.9 4.7 3.9 0 5.6-2.1 6.9-8.3l4.7-20.6zM608.7 366.4l-7-22.3h-.1l-4.9 22.3h-9.1l8-35.9h11.2l5.8 19.7h.1l4.4-19.7h9.1l-8 35.9h-9.5zM625.2 366.4l8-35.9h9.8l-8 35.9h-9.8zM648.4 366.4l-3.2-35.9h10.2l.7 25.3 11.8-25.3H678l-18.2 35.9h-11.4zM673 366.4l8-35.9h23.8l-1.8 7.8h-14l-1.3 6h10.1l-1.7 7.5H686l-1.5 6.8h15.6l-1.8 7.8H673zM722.9 366.4l-3.6-13.3h-4l-2.9 13.3h-9.8l8-35.9h11c9.9 0 14.9 3.2 14.9 10.1 0 5.6-3.1 8.8-7.8 10.4l4.6 15.5h-10.4zm-1.4-20.8c2.8 0 4.8-1.1 4.8-4.1 0-2.2-1.8-3.2-4.3-3.2h-3.3l-1.6 7.3h4.4zM758.7 341.4c-1-2.8-3.2-4-5.3-4-1.8 0-2.8.9-2.8 2.5 0 5.6 13.2 5.3 13.2 15.7 0 8.4-7 11.5-13.2 11.5-7.1 0-12.5-2.8-14.8-10.3l8.9-2.7c1.2 3.6 2.8 5.6 6 5.6 2.2 0 3.6-1.1 3.6-3.1 0-4.8-13.6-5.7-13.6-16 0-6.2 4.6-10.6 12.4-10.6 6.3 0 11.5 2.3 13.4 9.3l-7.8 2.1zM787 366.4l-.2-7.9h-9.7l-3.3 7.9h-10.1l17.4-35.9h13.2l2.5 35.9H787zm-6.5-15.6h6.2l-.3-13.5h-.1l-5.8 13.5zM800 366.4l7.9-35.9h9.8l-6.2 28.2h14.1l-1.8 7.8H800zM548.8 411.5l6.3-28.2h-8.8l1.7-7.8h27.3l-1.7 7.8h-8.8l-6.3 28.2h-9.7zM571.7 411.5l7.9-35.9h23.8l-1.8 7.8h-14l-1.3 6h10.1l-1.7 7.5h-10.2l-1.5 6.9h15.6l-1.8 7.8h-25.1zM616.5 412.1c-9.2 0-13.7-6-13.7-14.7 0-11.1 5.7-22.5 18.3-22.5 7.7 0 12.3 3.8 13.4 11.2l-8.7 1.6c-.4-3.3-2.1-5.3-5.1-5.3-5.3 0-7.7 6.9-7.7 15.2 0 3.8.8 6.8 4 6.8 2.3 0 4.4-.9 6.2-4.9l9 2.4c-4.1 8.4-10.1 10.2-15.7 10.2zM653.8 411.5l3.2-14.2h-10.1l-3.2 14.2h-9.8l8-35.9h9.8l-3 13.4h10.1l3-13.4h9.8l-8 35.9h-9.8zM691.4 411.5l-7-22.3h-.1l-4.9 22.3h-9.1l8-35.9h11.2l5.8 19.7h.1l4.4-19.7h9.1l-8 35.9h-9.5zM707.7 411.5l7.9-35.9h9.8l-7.9 35.9h-9.8zM739.6 412.1c-9.2 0-13.7-6-13.7-14.7 0-11.1 5.7-22.5 18.3-22.5 7.7 0 12.3 3.8 13.3 11.2l-8.7 1.6c-.4-3.3-2.1-5.3-5.1-5.3-5.3 0-7.7 6.9-7.7 15.2 0 3.8.8 6.8 4 6.8 2.3 0 4.4-.9 6.2-4.9l9 2.4c-3.9 8.4-10 10.2-15.6 10.2zM777.2 411.5l-.2-7.9h-9.7l-3.3 7.9h-10.1l17.4-35.9h13.2l2.5 35.9h-9.8zm-6.5-15.7h6.2l-.3-13.5h-.1l-5.8 13.5zM790 411.5l8-35.9h9.8l-6.2 28.2h14.1l-1.8 7.8H790zM538.8 456.5l7.9-35.9h9.8l-8 35.9h-9.7zM578.7 456.5l-7-22.3h-.1l-4.9 22.3h-9.1l8-35.9h11.2l5.8 19.7h.1l4.4-19.7h9.1l-8 35.9h-9.5zM619.7 431.5c-1-2.8-3.1-4-5.3-4-1.9 0-2.9.9-2.9 2.5 0 5.6 13.2 5.3 13.2 15.7 0 8.4-7 11.5-13.2 11.5-7.1 0-12.5-2.8-14.8-10.3l8.9-2.7c1.2 3.6 2.9 5.6 6 5.6 2.2 0 3.6-1.1 3.6-3.1 0-4.8-13.6-5.7-13.6-16 0-6.2 4.6-10.6 12.4-10.6 6.3 0 11.5 2.3 13.4 9.3l-7.7 2.1zM634.2 456.5l6.3-28.2h-8.8l1.7-7.8h27.3l-1.7 7.8h-8.8l-6.3 28.2h-9.7zM659.3 456.5l7.9-35.9h9.8l-8 35.9h-9.7zM684.3 456.5l6.3-28.2h-8.8l1.7-7.8h27.3l-1.7 7.8h-8.8l-6.3 28.2h-9.7zM737 420.6h9.8l-4.7 21.3c-2.2 10.1-6.9 15.2-17.6 15.2-8.5 0-12.6-4.4-12.6-11.6 0-1.6.2-3.3.6-5.1l4.3-19.8h9.8l-4.6 20.5c-.3 1.4-.5 2.7-.5 3.7 0 3.1 1.3 4.7 3.8 4.7 3.9 0 5.6-2.1 6.9-8.3l4.8-20.6zM753.7 456.5l6.3-28.2h-8.8l1.7-7.8h27.3l-1.7 7.8h-8.8l-6.3 28.2h-9.7zM778.8 456.5l8-35.9h23.8l-1.8 7.8h-13.9l-1.3 6h10.1l-1.7 7.5h-10.2l-1.5 6.9h15.6l-1.8 7.8h-25.3z"/><g><path d="M524.3 326H416.1s-18 80.6-18.2 81.7c-3.1 13.7-.5 27.5 7.3 39 7.6 11.2 19.4 19 33.2 22.1 3.8.8 7.7 1.3 11.5 1.3 24.5 0 46.2-17.4 51.5-41.4L524.3 326z" style="fill:#fff"/><path d="M461.8 464.1c-15.1-.6-34.2-15.1-28.9-39.5l15.9-71.6h-34.1s-12.4 55.6-12.4 55.7c-5.8 26.1 11.1 49.9 37.1 55.7 7.7 1.7 15.3 1.5 22.4-.3z" style="fill:#008ed4"/><path d="M457.9 430.3c-1.3 5.7-6.9 9.2-12.6 7.9-5.7-1.3-9.2-6.9-7.9-12.6l17.1-77.1h-38.7l4-18h99l-4 18H476l-18.1 81.8z"/><path d="m479.6 353-17.4 78.3c-2.6 10.7-15.8 16.8-25.4 6.8 7 29.6 50.9 31.9 60.2-10.4l16.7-74.7h-34.1z" style="fill:#ed1c24"/></g><path d="M503.9 492.5 547.1 299h2.3l-43.2 193.5z"/><g><path d="M486.7 462c0-2.2 1.5-4 3.9-4s3.8 1.7 3.8 4c0 2.2-1.4 4-3.8 4-2.4-.1-3.9-1.9-3.9-4zm6.9 0c0-1.8-1.1-3.2-3.1-3.2s-3.1 1.4-3.1 3.2c0 1.8 1.1 3.2 3.1 3.2s3.1-1.4 3.1-3.2zm-2 2.1-.9-1.8h-.8v1.8h-.8v-4.5h1.5c1.1 0 1.8.4 1.8 1.3 0 .5-.3 1-.8 1.2l1 2h-1zm-1-2.4c.5 0 1-.1 1-.7 0-.5-.5-.6-.9-.6h-.7v1.3h.6z"/></g></svg>