<svg version="1.1" id="Layer_1" xmlns="http://www.w3.org/2000/svg" xmlns:xlink="http://www.w3.org/1999/xlink" x="0" y="0" width="540" height="99.1" style="enable-background:new 0 0 540 99.1" xml:space="preserve"><style>.st0{fill:#532d6d}</style><path class="st0" d="M175.9 2.6h-42.4l-.2 6.3h18v34.8h6.7V8.9h18.1l-.2-6.3M242.4 36.1c-2.6 1.6-6.3 2.5-10.2 2.5-9 0-13.5-3.8-13.5-11.2 0-7.3 4.4-10.9 13.5-10.9 3.4 0 7 .7 10 2l1.3.6.6-5.9-.7-.3c-3.6-1.5-7.7-2.3-11.9-2.3-12.2 0-19.2 6.1-19.2 16.8 0 10.8 7 17 19.1 17 4.7 0 9.4-1.2 12.6-3.2l.6-.4-.7-5.7-1.5 1M269.7 10.7c-4.8 0-9.3 1.4-12.6 3.9l.1-2.1V.3l-6.4.6v42.8h6.4V21c1.9-2.2 6.4-4.3 11.4-4.3 7.5 0 11.2 2.9 11.2 8.8v18.2h6.4V25.5c-.1-9.6-5.9-14.8-16.5-14.8M312.3 10.7c-5.1 0-9.9 1.5-13.2 4.2l-.7-3.8-4.8.4v32.2h6.4V21c2.6-2.8 7.6-4.3 11.3-4.3 7.7 0 11.2 2.8 11.2 8.8v18.2h6.3V25.5c-.1-9.6-5.9-14.8-16.5-14.8M336.2 43.7h6.3V11.1l-6.3.5v32.1M370.7 10.7c-5.5 0-10.3 1.4-13.8 4.1l-.9-3.5-5 .3v39.9h6.6V40.7c3.1 2.5 7.4 3.7 12.6 3.7 12.1 0 18.8-6 18.8-16.9 0-11-6.4-16.8-18.3-16.8m11.8 17c0 7.4-4.4 11.1-13.3 11.1-6.6 0-10.1-2.6-11.7-4.3V21c2.8-2.9 6.8-4.3 12.3-4.3 8.5 0 12.7 3.6 12.7 11zM466.6 35.7 446.2 2.6h-7.1v41.1h6.3V13.2l18.8 30.5h4.7l18.6-30.4.3-.4-.1 30.8h6.4V2.6h-7l-20.5 33.1M538.9 35.1l-1.2.5c-4 1.7-8.2 2.6-12.5 2.6-13 0-18.5-4.6-18.5-15.3 0-10.3 5.6-14.9 18.2-14.9 4.4 0 9.1.8 12.7 2.2l1.2.5 1-6.2-.8-.2c-3.1-1.2-8.8-2.5-14.2-2.5-20.8 0-25.2 11.5-25.2 21.1 0 14.1 8.7 21.5 25 21.5 5.8 0 11.3-1.7 14.6-3.3l.7-.4-1-5.6M427.1 19.7h-24.6V9h29.7l-.1-6.4h-36.3l-.1 41.1h6.8V26.1h24.8l-.2-6.4M190.4 10.7c-11.4 0-18.8 6.3-18.8 15.9 0 8.1 3.6 17.8 20.7 17.8 5.4 0 9.9-1 14.3-3.3l.7-.3-.8-5.4-1.2.5c-4.2 1.8-8.1 2.6-12.4 2.6-8.6 0-13.4-2.8-14.5-8.7H208l.4-1.8c.2-.5.2-1.5.2-2 0-9.1-7.3-15.3-18.2-15.3M178.2 24c.9-4.9 5.3-7.6 12.3-7.6 6.7 0 11.2 2.9 12 7.6h-24.3z"/><defs><path id="SVGID_1_" d="M0 .1h540v99H0z"/></defs><clipPath id="SVGID_2_"><use xlink:href="#SVGID_1_" style="overflow:visible"/></clipPath><path d="M343 3.6c0 2-1.6 3.6-3.6 3.6s-3.6-1.6-3.6-3.6 1.6-3.6 3.6-3.6 3.6 1.6 3.6 3.6" style="clip-path:url(#SVGID_2_);fill:#532d6d"/><path d="M56.6 62.6v34.1c0 2.1 2.6 3.2 4.1 1.7L104 55.1c1.4-1.4 1.4-3.7 0-5.1L86.6 32.6l-30 30" style="clip-path:url(#SVGID_2_);fill:#d1292e"/><path d="M110.9 2.6H56.6l30 30 25.9-25.9c1.6-1.5.5-4.1-1.6-4.1" style="fill:#00a0dd"/><g><defs><path id="SVGID_3_" d="M0 .1h540v99H0z"/></defs><clipPath id="SVGID_4_"><use xlink:href="#SVGID_3_" style="overflow:visible"/></clipPath><path d="M56.6 62.6v-60H2.4C.3 2.6-.8 5.2.7 6.7l55.9 55.9" style="clip-path:url(#SVGID_4_);fill:#00a0dd"/></g><path class="st0" d="m86.6 32.6-30-30v60l30-30"/></svg>