<svg xmlns="http://www.w3.org/2000/svg" width="216" height="216" style="enable-background:new 0 0 216 216" xml:space="preserve"><style>.st0{fill:#f3c300}</style><g id="Layer_2"><path transform="rotate(90 108 143.002)" d="M107.6 78.5h.9v129h-.9z"/><path d="M74.1 119.9V107h5v12.8c0 3.7 1.8 5.6 4.9 5.6 3 0 4.9-1.8 4.9-5.4v-13h5v12.8c0 6.8-3.8 10.2-9.9 10.2-6.2-.1-9.9-3.5-9.9-10.1zM98.9 118.3c0-6.5 4.8-11.8 11.8-11.8 4.3 0 6.8 1.4 8.9 3.5l-3.2 3.6c-1.7-1.6-3.5-2.6-5.8-2.6-3.8 0-6.6 3.2-6.6 7v.1c0 3.9 2.7 7.1 6.6 7.1 2.6 0 4.2-1 5.9-2.6l3.2 3.2c-2.3 2.5-4.9 4-9.3 4-6.6.2-11.5-5-11.5-11.5zM124.7 107h17.2v4.5h-12.2v4.8h10.8v4.5h-10.8v8.7h-5V107z"/><path class="st0" d="M120.8 82.4c0-1.9-.4-3.7-1.3-5.4-1.6-3.2-6.8-5.6-11.7-7.9-2.4-1.1-4.9-2.2-6.8-3.4-9.3-5.6-12.3-12.5-13.2-17.3-.3-1.3-.4-2.6-.4-4 0-4.1 1.2-8 3.4-10.9 8.7-11.7 23.6-10.4 27.9-9.7-4.3.2-14.8 2.1-19.9 12.1-1 2-1.5 4-1.5 6 0 8.2 8.4 15.3 15.1 21 2.3 2 4.5 3.8 6.2 5.5 3 3.1 4.5 6.4 4.5 9.9 0 4-2.1 7.2-3.3 8.8.7-1.4 1-3 1-4.7M79.7 77.7c2 1.7 6.3 4.5 14.2 6.8 4.1 1.1 7.8 1.2 10.9 1.3 2.7.1 4.9.1 6.2.9 1.1.6 1.8 1.6 1.8 2.6l-.1.6c-.4 1.5-2.5 3.2-7.1 3.2-13.8.1-22.5-10.4-25.9-15.4"/><path class="st0" d="M104.8 53.6s5.8-9.7 11.7-11.2c7.2-1.9 11.2 1.2 11.2 1.2l2-4 3.1 15.2s.5 1.4-2 3.1c-2.5 1.7-2.7 1.4-2.7 1.4s-1.6-6.2-4.9-6.9c-3.3-.7-3.3 3.6-3.1 5 .2 1.4 2.9 7 7.6 4.6 5.1-2.6 7.4-5.9 7.4-5.9s.7-1.7 1.4-1.2 3.4 3.4 3.4 3.4l-1.1 18.1s0 2.2-3.1 3.1c-3.1.9-3.1.7-3.1.7l1.6-5.5h2l-.3-12.7s-1.7 8.3-4.9 13.8c-3.8 6.5-9.9 11.9-9.9 11.9s3.9-4.6 3.3-10.3c-.4-3.7-2-8.1-10.1-14.7-4.7-3.9-9.5-9.1-9.5-9.1M114.2 88.8c0-.6-.1-1.1-.4-1.6-.9-1.7-3.4-2.7-7.3-2.8-7.2-.2-24.5-2.1-29.4-13.5-1.6-3.7-2.3-7.7-2.3-11.9 0-4.8 1-8.8 1.7-10.9-.1.6-.1 1.7-.1 1.7 0 4.5 1.1 13 8.4 19 4.6 3.8 11.5 6.8 20.5 9 6.1 1.4 9.6 3.6 10.4 6.5l.2 1.2c0 1.4-.6 2.9-1.8 4.4 0-.4.1-1.1.1-1.1"/><path class="st0" d="M117.4 85.6c0-.8-.1-1.7-.5-2.6-1.3-3.1-5-5.3-10.9-6.6-15.6-3.4-24.4-9.6-27-19.1-.7-2.3-1-4.5-1-6.6 0-12.9 11.4-19.9 15.2-21.9-2.1 1.9-6.5 6.7-7.3 12.8-.1 1.1-.2 2.2-.2 3.2 0 7.7 4 14.4 12 20.5 2.6 1.9 6 3.5 9.3 5 4.8 2.2 9.3 4.2 11.1 7.2.9 1.5 1.2 2.9 1.2 4.3 0 2.8-1.4 5-2.4 6.3.3-.7.5-1.5.5-2.5M117 32.5c-2.5 0-4.9-2.3-4.9-4.9 0 2.5-2.3 4.9-4.9 4.9 2.5 0 4.9 2.3 4.9 4.9 0-2.5 2.4-4.9 4.9-4.9"/><g><path d="M29.5 155.9h6.7c1.9 0 3.3.5 4.2 1.5.8.8 1.2 2 1.2 3.3 0 2.4-1.3 3.8-3.1 4.5l3.6 5.2h-3.7l-3.1-4.7h-2.5v4.7h-3.2v-14.5zM36 163c1.6 0 2.5-.8 2.5-2.1 0-1.4-1-2.1-2.5-2.1h-3.2v4.2H36zM43.5 165c0-3.2 2.3-5.8 5.5-5.8 3.7 0 5.4 2.9 5.4 6.1v.8h-7.8c.3 1.4 1.3 2.2 2.7 2.2 1.1 0 1.8-.3 2.7-1.1l1.8 1.6c-1 1.3-2.5 2.1-4.6 2.1-3.2-.1-5.7-2.5-5.7-5.9zm7.9-.9c-.2-1.4-1-2.4-2.4-2.4-1.3 0-2.2.9-2.4 2.4h4.8zM56.3 165c0-3.2 2.4-5.8 5.8-5.8 2.1 0 3.4.7 4.5 1.9l-1.9 2.1c-.7-.7-1.4-1.2-2.5-1.2-1.6 0-2.7 1.4-2.7 3 0 1.7 1.1 3.1 2.8 3.1 1.1 0 1.8-.5 2.6-1.2l1.9 1.9c-1.1 1.2-2.3 2-4.6 2-3.5 0-5.9-2.6-5.9-5.8zM68.7 159.4h3.2v2.2c.6-1.5 1.7-2.5 3.6-2.5v3.3h-.2c-2.1 0-3.4 1.3-3.4 3.9v4.1h-3.2v-11zM76.5 165c0-3.2 2.3-5.8 5.5-5.8 3.7 0 5.4 2.9 5.4 6.1v.8h-7.8c.3 1.4 1.3 2.2 2.7 2.2 1.1 0 1.8-.3 2.7-1.1l1.8 1.6c-1 1.3-2.5 2.1-4.6 2.1-3.2-.1-5.7-2.5-5.7-5.9zm7.9-.9c-.2-1.4-1-2.4-2.4-2.4-1.3 0-2.2.9-2.4 2.4h4.8zM89.2 167.3c0-2.5 1.9-3.6 4.5-3.6 1.1 0 1.9.2 2.7.5v-.2c0-1.3-.8-2-2.4-2-1.2 0-2.1.2-3.1.6l-.8-2.4c1.2-.5 2.4-.9 4.3-.9 1.7 0 3 .5 3.8 1.2.8.8 1.2 2.1 1.2 3.6v6.5h-3.1v-1.2c-.8.9-1.8 1.4-3.4 1.4-2-.1-3.7-1.3-3.7-3.5zm7.2-.7v-.6c-.5-.2-1.2-.4-2-.4-1.4 0-2.2.5-2.2 1.5 0 .9.7 1.4 1.7 1.4 1.5 0 2.5-.8 2.5-1.9zM102.5 167.3V162h-1.3v-2.7h1.3v-2.9h3.2v2.9h2.6v2.7h-2.6v4.8c0 .7.3 1.1 1 1.1.6 0 1.1-.1 1.6-.4v2.5c-.7.4-1.4.6-2.5.6-1.9.1-3.3-.7-3.3-3.3zM110.7 155.3h3.3v2.8h-3.3v-2.8zm.1 4.1h3.2v11.2h-3.2v-11.2zM116.4 165c0-3.2 2.6-5.8 6.1-5.8 3.5 0 6 2.6 6 5.8 0 3.2-2.6 5.8-6.1 5.8-3.4 0-6-2.6-6-5.8zm9 0c0-1.7-1.2-3.1-2.9-3.1-1.8 0-2.9 1.4-2.9 3s1.2 3.1 2.9 3.1c1.8 0 2.9-1.4 2.9-3zM130.8 159.4h3.2v1.6c.7-.9 1.7-1.8 3.3-1.8 2.4 0 3.8 1.6 3.8 4.1v7.2h-3.2v-6.2c0-1.5-.7-2.3-1.9-2.3s-2 .8-2 2.3v6.2h-3.2v-11.1zM149.3 167.3c0-2.5 1.9-3.6 4.5-3.6 1.1 0 1.9.2 2.7.5v-.2c0-1.3-.8-2-2.4-2-1.2 0-2.1.2-3.1.6l-.8-2.4c1.2-.5 2.4-.9 4.3-.9 1.7 0 3 .5 3.8 1.2.8.8 1.2 2.1 1.2 3.6v6.5h-3.1v-1.2c-.8.9-1.8 1.4-3.4 1.4-2-.1-3.7-1.3-3.7-3.5zm7.3-.7v-.6c-.5-.2-1.2-.4-2-.4-1.4 0-2.2.5-2.2 1.5 0 .9.7 1.4 1.7 1.4 1.5 0 2.5-.8 2.5-1.9zM162.3 159.4h3.2v1.6c.7-.9 1.7-1.8 3.3-1.8 2.4 0 3.8 1.6 3.8 4.1v7.2h-3.2v-6.2c0-1.5-.7-2.3-1.9-2.3s-2 .8-2 2.3v6.2h-3.2v-11.1zM174.7 164.9c0-3.8 2.4-5.8 5.1-5.8 1.7 0 2.7.8 3.5 1.7v-5.5h3.2v15.2h-3.2v-1.6c-.8 1-1.8 1.8-3.5 1.8-2.6 0-5.1-2-5.1-5.8zm8.6 0c0-1.9-1.2-3.1-2.7-3.1-1.5 0-2.7 1.2-2.7 3.1 0 1.9 1.2 3.1 2.7 3.1 1.5 0 2.7-1.2 2.7-3.1z"/><g><path d="M23.3 177.7h3.4l3 9.9 3.3-9.9h2.7l3.3 9.9 3-9.9h3.3l-5 14.7h-2.8l-3.3-9.5-3.3 9.5h-2.8l-4.8-14.7zM45.5 186.8c0-3.2 2.3-5.8 5.5-5.8 3.7 0 5.4 2.9 5.4 6.1v.8h-7.8c.3 1.4 1.3 2.2 2.7 2.2 1.1 0 1.8-.3 2.7-1.1l1.8 1.6c-1 1.3-2.5 2.1-4.6 2.1-3.2-.2-5.7-2.5-5.7-5.9zm7.9-1c-.2-1.4-1-2.4-2.4-2.4-1.3 0-2.2.9-2.4 2.4h4.8zM59 177.1h3.2v15.2H59v-15.2zM65.3 177.1h3.2v15.2h-3.2v-15.2zM71.4 181.1h3.2v1.6c.7-.9 1.7-1.8 3.3-1.8 2.4 0 3.8 1.6 3.8 4.1v7.2h-3.2V186c0-1.5-.7-2.3-1.9-2.3s-2 .8-2 2.3v6.2h-3.2v-11.1zM83.8 186.8c0-3.2 2.3-5.8 5.5-5.8 3.7 0 5.4 2.9 5.4 6.1v.8H87c.3 1.4 1.3 2.2 2.7 2.2 1.1 0 1.8-.3 2.7-1.1l1.8 1.6c-1 1.3-2.5 2.1-4.6 2.1-3.3-.2-5.8-2.5-5.8-5.9zm7.9-1c-.2-1.4-1-2.4-2.4-2.4-1.3 0-2.2.9-2.4 2.4h4.8zM96.2 190.8l1.4-2.1c1.2.9 2.5 1.3 3.5 1.3.9 0 1.3-.3 1.3-.8 0-.7-1.1-.9-2.3-1.3-1.6-.5-3.3-1.2-3.3-3.3 0-2.3 1.8-3.5 4.1-3.5 1.4 0 3 .5 4.2 1.3l-1.2 2.2c-1.1-.6-2.2-1-3-1-.8 0-1.2.3-1.2.8 0 .6 1.1.9 2.3 1.3 1.6.5 3.4 1.3 3.4 3.3 0 2.5-1.9 3.6-4.3 3.6-1.6-.1-3.4-.6-4.9-1.8zM106.5 190.8l1.4-2.1c1.2.9 2.5 1.3 3.5 1.3.9 0 1.3-.3 1.3-.8 0-.7-1.1-.9-2.3-1.3-1.6-.5-3.3-1.2-3.3-3.3 0-2.3 1.8-3.5 4.1-3.5 1.4 0 3 .5 4.2 1.3l-1.2 2.2c-1.1-.6-2.2-1-3-1-.8 0-1.2.3-1.2.8 0 .6 1.1.9 2.3 1.3 1.6.5 3.4 1.3 3.4 3.3 0 2.5-1.9 3.6-4.3 3.6-1.7-.1-3.4-.6-4.9-1.8zM123.7 185c0-4.2 3.1-7.6 7.6-7.6 2.7 0 4.4.9 5.7 2.2l-2 2.4c-1.1-1-2.3-1.6-3.7-1.6-2.5 0-4.2 2-4.2 4.5s1.7 4.6 4.2 4.6c1.7 0 2.7-.7 3.8-1.7l2 2.1c-1.5 1.6-3.2 2.6-6 2.6-4.2 0-7.4-3.3-7.4-7.5zM138.6 186.8c0-3.2 2.3-5.8 5.5-5.8 3.7 0 5.4 2.9 5.4 6.1v.8h-7.8c.3 1.4 1.3 2.2 2.7 2.2 1.1 0 1.8-.3 2.7-1.1l1.8 1.6c-1 1.3-2.5 2.1-4.6 2.1-3.2-.2-5.7-2.5-5.7-5.9zm7.9-1c-.2-1.4-1-2.4-2.4-2.4-1.3 0-2.2.9-2.4 2.4h4.8zM151.9 181.1h3.2v1.6c.7-.9 1.7-1.8 3.3-1.8 2.4 0 3.8 1.6 3.8 4.1v7.2H159V186c0-1.5-.7-2.3-1.9-2.3s-2 .8-2 2.3v6.2h-3.2v-11.1zM165.4 189.1v-5.3h-1.3v-2.7h1.3v-2.9h3.2v2.9h2.6v2.7h-2.6v4.8c0 .7.3 1.1 1 1.1.6 0 1.1-.1 1.6-.4v2.5c-.7.4-1.4.6-2.5.6-2 .1-3.3-.7-3.3-3.3zM172.7 186.8c0-3.2 2.3-5.8 5.5-5.8 3.7 0 5.4 2.9 5.4 6.1v.8h-7.8c.3 1.4 1.3 2.2 2.7 2.2 1.1 0 1.8-.3 2.7-1.1l1.8 1.6c-1 1.3-2.5 2.1-4.6 2.1-3.2-.2-5.7-2.5-5.7-5.9zm7.9-1c-.2-1.4-1-2.4-2.4-2.4-1.3 0-2.2.9-2.4 2.4h4.8zM186 181.1h3.2v2.2c.6-1.5 1.7-2.5 3.6-2.5v3.3h-.2c-2.1 0-3.4 1.3-3.4 3.9v4.1H186v-11z"/></g></g></g></svg>