<svg version="1.1" id="Layer_1" xmlns="http://www.w3.org/2000/svg" x="0" y="0" width="612" height="792" style="enable-background:new 0 0 612 792" xml:space="preserve"><style>.st0{fill:#0b1f41}</style><path class="st0" d="M478.7 336.7c.5.3.9.7 1.2 1.2.3.5.5 1.1.5 1.7 0 .6-.2 1.2-.5 1.7s-.7.9-1.2 1.2c-.5.3-1.1.4-1.8.4-.6 0-1.2-.1-1.7-.4-.5-.3-.9-.7-1.2-1.2-.3-.5-.5-1.1-.5-1.7 0-.6.2-1.2.5-1.7s.7-.9 1.2-1.2c.5-.3 1.1-.4 1.7-.4.7-.1 1.3.1 1.8.4m-.3 5.2c.4-.2.7-.5 1-1 .2-.4.3-.9.3-1.4 0-.5-.1-1-.3-1.4-.2-.4-.6-.7-1-1-.4-.2-.9-.4-1.4-.4-.5 0-1 .1-1.4.4-.4.2-.7.6-1 1-.2.4-.3.9-.3 1.4 0 .5.1 1 .3 1.4.2.4.5.7 1 1 .4.2.9.3 1.4.3.5 0 1-.1 1.4-.3zm-.2-2.5c-.2.2-.4.3-.6.4l1 1.5h-.9l-.8-1.4h-.3v1.4h-.8v-3.6h1.1c1.1 0 1.7.4 1.7 1.1-.1.3-.2.5-.4.6zm-1.7 0h.4c.5 0 .7-.2.7-.5 0-.2-.1-.3-.2-.4-.1-.1-.3-.1-.6-.1h-.4v1zM235.1 347.5c-.2.2-.5.3-.8.3h-9.7c-.3 0-.5.2-.5.5v22c0 2.3.5 4 1.6 5 1 1 2.7 1.6 5 1.6h2.8c.3 0 .6.1.8.3.2.2.3.5.3.8v6.8c0 .7-.4 1.1-1.1 1.2l-4.9.1c-5 0-8.7-.8-11.2-2.5-2.5-1.6-3.7-4.7-3.8-9.3v-26c0-.3-.2-.5-.5-.5h-5.4c-.3 0-.6-.1-.8-.3-.2-.2-.3-.5-.3-.8v-6.4c0-.3.1-.6.3-.8.2-.2.5-.3.8-.3h5.4c.3 0 .5-.2.5-.5V328c0-.3.1-.6.3-.8.2-.2.5-.3.8-.3h8.3c.3 0 .6.1.8.3.2.2.3.5.3.8v10.7c0 .3.2.5.5.5h9.7c.3 0 .6.1.8.3.2.2.3.5.3.8v6.4c0 .3-.1.6-.3.8M278.6 362.4l-.1 2.8c0 .7-.4 1.1-1.1 1.1h-29.7c-.3 0-.5.2-.5.5.2 2 .5 3.4.9 4.1 1.5 4.4 5.2 6.6 11.1 6.7 4.3 0 7.7-1.7 10.2-5.1.3-.4.6-.5.9-.5.3 0 .5.1.7.3l5.9 4.7c.6.4.7.9.3 1.5-2 2.7-4.6 4.7-7.8 6.2-3.3 1.5-6.9 2.2-10.9 2.2-4.9 0-9.1-1.1-12.6-3.2-3.4-2.1-6-5.1-7.5-8.9-1.5-3.3-2.2-7.8-2.2-13.7 0-3.5.4-6.4 1.1-8.6 1.3-4.3 3.7-7.6 7.2-10.1s7.7-3.7 12.7-3.7c12.5 0 19.5 6.3 21.1 18.8.2 1.3.3 3 .3 4.9m-27.3-13.1c-1.6 1.1-2.6 2.7-3.3 4.7-.4 1-.6 2.4-.8 4-.1.3 0 .5.4.5h19.3c.3 0 .5-.2.5-.5-.1-1.5-.3-2.7-.6-3.5-.6-2.2-1.7-3.9-3.4-5.1-1.7-1.2-3.8-1.8-6.3-1.8-2.3 0-4.2.6-5.8 1.7zM318.3 342.9c3.1 2.9 4.6 6.9 4.6 12v29.9c0 .3-.1.6-.3.8-.2.2-.5.3-.8.3H313c-.3 0-.6-.1-.8-.3-.2-.2-.3-.5-.3-.8V357c0-2.8-.8-5.1-2.5-6.8-1.6-1.7-3.8-2.6-6.5-2.6s-4.9.9-6.6 2.6c-1.7 1.7-2.5 4-2.5 6.8v27.8c0 .3-.1.6-.3.8-.2.2-.5.3-.8.3H284c-.3 0-.6-.1-.8-.3-.2-.2-.3-.5-.3-.8v-44.4c0-.3.1-.6.3-.8.2-.2.5-.3.8-.3h8.7c.3 0 .6.1.8.3.2.2.3.5.3.8v2.9c0 .2.1.3.2.4.1.1.2 0 .3-.2 2.6-3.3 6.5-4.9 11.8-4.9 5-.1 9.1 1.4 12.2 4.3M359 340.5c3 1.3 5.4 3.2 7 5.5 1.6 2.3 2.5 5 2.5 8v30.7c0 .3-.1.6-.3.8-.2.2-.5.3-.8.3h-8.7c-.3 0-.6-.1-.8-.3-.2-.2-.3-.5-.3-.8v-2.9c0-.2-.1-.3-.2-.3s-.3 0-.4.1c-3.1 3.3-7.6 4.9-13.5 4.9-4.7 0-8.6-1.2-11.7-3.5-3.1-2.3-4.6-5.7-4.6-10.3 0-4.7 1.7-8.4 5.2-11.1 3.4-2.6 8.3-4 14.6-4h10c.3 0 .5-.2.5-.5v-2.2c0-2.4-.7-4.2-2.2-5.5-1.5-1.3-3.6-2-6.5-2-2.4 0-4.3.4-5.8 1.2-1.5.8-2.4 2-2.8 3.4-.2.7-.6 1-1.3.9l-9.2-1.1c-.3-.1-.6-.2-.8-.3-.2-.2-.3-.3-.2-.6.5-3.7 2.6-6.8 6.2-9.1 3.6-2.4 8.2-3.6 13.7-3.6 3.8.3 7.3 1 10.4 2.3m-5.2 35.3c2.2-1.6 3.3-3.6 3.3-6v-4.3c0-.3-.2-.5-.5-.5h-8c-3.4 0-6 .6-7.9 1.8-1.9 1.2-2.9 3-2.9 5.2 0 1.9.7 3.5 2.2 4.5 1.5 1.1 3.4 1.6 5.7 1.6 3.2.1 5.8-.7 8.1-2.3zM415.2 362.4c0 4.3-.6 8.1-1.8 11.4-1.4 4-3.6 7.1-6.7 9.4-3.1 2.3-6.9 3.4-11.4 3.4-4.4 0-8.1-1.6-10.9-4.8-.1-.2-.3-.2-.4-.2-.1.1-.2.2-.2.4v2.8c0 .3-.1.6-.3.8-.2.2-.5.3-.8.3H374c-.3 0-.6-.1-.8-.3-.2-.2-.3-.5-.3-.8v-61.7c0-.3.1-.6.3-.8.2-.2.5-.3.8-.3h8.7c.3 0 .6.1.8.3.2.2.3.5.3.8v19.8c0 .2.1.3.2.4.1.1.3 0 .4-.1 2.7-3.1 6.3-4.7 10.8-4.7 4.7 0 8.6 1.1 11.6 3.4 3.1 2.3 5.3 5.4 6.8 9.4 1.1 3.4 1.6 7.1 1.6 11.1m-11.3.2c0-4.7-.9-8.5-2.8-11.1-1.7-2.6-4.2-3.8-7.6-3.8-3.1 0-5.5 1.3-7.1 4-1.6 2.5-2.4 6.1-2.4 10.9 0 4.7.7 8.2 2.2 10.6 1.6 2.9 4.1 4.4 7.4 4.4 1.8 0 3.4-.4 4.7-1.1 1.4-.8 2.5-1.8 3.3-3.2 1.6-2.8 2.3-6.3 2.3-10.7zM419.8 385.6c-.2-.2-.3-.5-.3-.8v-61.7c0-.3.1-.6.3-.8.2-.2.5-.3.8-.3h8.7c.3 0 .6.1.8.3.2.2.3.5.3.8v61.7c0 .3-.1.6-.3.8-.2.2-.5.3-.8.3h-8.7c-.4 0-.6-.1-.8-.3M477.1 362.3l-.1 2.8c0 .7-.4 1.1-1.1 1.1h-29.7c-.3 0-.5.2-.5.5.2 2 .5 3.4.9 4.1 1.5 4.4 5.2 6.6 11.1 6.7 4.3 0 7.7-1.7 10.2-5.1.3-.4.6-.5.9-.5.3 0 .5.1.7.3l5.9 4.7c.6.4.7.9.3 1.5-2 2.7-4.6 4.7-7.8 6.2-3.3 1.5-6.9 2.2-10.9 2.2-4.9 0-9.1-1.1-12.6-3.2-3.4-2.1-6-5.1-7.5-8.9-1.5-3.3-2.2-7.8-2.2-13.7 0-3.5.4-6.4 1.1-8.6 1.3-4.3 3.7-7.6 7.2-10.1s7.7-3.7 12.7-3.7c12.5 0 19.5 6.3 21.1 18.8.2 1.4.3 3.1.3 4.9m-27.3-13c-1.6 1.1-2.6 2.7-3.3 4.7-.4 1-.6 2.4-.8 4-.1.3 0 .5.4.5h19.3c.3 0 .5-.2.5-.5-.1-1.5-.3-2.7-.6-3.5-.6-2.2-1.7-3.9-3.4-5.1-1.7-1.2-3.8-1.8-6.3-1.8-2.3 0-4.2.5-5.8 1.7zM200.9 359.5l-11-32.6c-.8-2.4-2.8-4.1-5.2-4.6l-34.2-6.7c-2.4-.5-4.9.4-6.5 2.2l-23.2 26c-1.7 1.9-2.2 4.5-1.4 6.8l11 32.6c.8 2.4 2.8 4.1 5.2 4.6l34.2 6.7c.4.1.9.1 1.3.1 2 0 3.9-.8 5.2-2.3l23.2-26c1.6-1.9 2.1-4.5 1.4-6.8m-13.3-31.8 7.2 21.4-15.3-24.2c-.3-.5-.7-1-1.2-1.4l5.9 1.2c1.6.3 2.9 1.4 3.4 3zm-11.3 56.5-13.4.7 21.6-12.5s.1 0 .1-.1l-5.2 9.9c-.6 1.1-1.8 1.9-3.1 2zm-33.6-.2-7.6-11.9c.1.1.3.2.4.3l21.8 12.6c.1.1.2.1.3.2l-11.6.6c-1.3 0-2.6-.7-3.3-1.8zm1.1-58 13.4-.7-21.6 12.5s-.1 0-.1.1l5.2-9.9c.6-1.2 1.8-2 3.1-2zm33.6.2 7.6 11.9c-.1-.1-.3-.2-.4-.3l-21.8-12.6c-.1-.1-.2-.1-.3-.2l11.6-.6c1.3 0 2.6.6 3.3 1.8zm7.4 41.5c0 1-.6 2-1.5 2.6l-21.8 12.6c-.9.5-2 .5-3 0l-21.8-12.6c-.9-.5-1.5-1.5-1.5-2.6v-25.2c0-1 .6-2 1.5-2.6l21.8-12.6c.5-.3 1-.4 1.5-.4s1 .1 1.5.4l21.8 12.6c.9.5 1.5 1.5 1.5 2.6v25.2zm-51.8 1-6.3-10c-.7-1.1-.8-2.6-.2-3.8l6.4-12.1v24.9c0 .3 0 .7.1 1zm54.1-27.2 6.3 10c.7 1.1.8 2.6.2 3.8l-6.4 12.1v-24.9c0-.4 0-.7-.1-1zm-41.4-22.1c.9-1 2.1-1.5 3.4-1.5.3 0 .6 0 .9.1l21.4 4.2-27.6 1.4c-.8 0-1.5.2-2.2.5l4.1-4.7zm-23.2 26.1 15.4-17.2-13.4 25.5c-.4.8-.6 1.6-.7 2.4l-2.1-6.3c-.6-1.5-.3-3.2.8-4.4zm10 37-7.2-21.4 15.3 24.2c.3.5.7 1 1.2 1.4l-5.9-1.2c-1.5-.3-2.8-1.5-3.4-3zm41.9 8.2c-1.1 1.2-2.7 1.7-4.2 1.4l-21.4-4.2 27.6-1.4c.8 0 1.5-.2 2.2-.5l-4.2 4.7zm23.3-26-15.4 17.2 13.4-25.5c.4-.8.6-1.6.7-2.4l2.1 6.3c.6 1.5.2 3.2-.8 4.4z"/></svg>