<svg version="1.1" id="Layer_1" xmlns="http://www.w3.org/2000/svg" x="0" y="0" width="504" height="360" style="enable-background:new 0 0 504 360" xml:space="preserve"><style>.st0{fill:#78be20}.st1{fill:#54565b}</style><path class="st0" d="M166.4 198.6c-2.5-1.2-11.7-1.6-24.2-1.3 10.9-20.3 16-38.8 10.5-44.3-6.4-6.5-27.9 5.9-48.8 27-7.5 7.6-14.4 14.9-19.1 22 4.7-5.3 10.8-11.9 18.1-17.6 21.7-16.9 31.8-19.7 37-16 4.4 3.2 2.4 14.2-1.4 29.1-8.2.3-17.6.9-27.2 1.8-9.4.8-18.2 1.7-24.7 2.7 6-.6 13.9-1.4 22.6-1.9 12.7-.6 22.1-1 28.9-1-.8 3-1.7 6.2-2.6 9.5 2-3.2 3.8-6.3 5.6-9.5 5.1.1 8.4.4 10 1 4 1.4-2.8 4.9-14.2 8.6 21.9-3.7 33.9-7.9 29.5-10.1zM174.4 196.6c1.6 0 2.8 1.2 2.8 2.8 0 1.6-1.3 2.8-2.8 2.8-1.6 0-2.8-1.2-2.8-2.8 0-1.5 1.3-2.8 2.8-2.8zm0 5.2c1.3 0 2.4-1.1 2.4-2.4 0-1.3-1.1-2.4-2.4-2.4-1.3 0-2.4 1.1-2.4 2.4 0 1.3 1.1 2.4 2.4 2.4zm.5-2.3c.2.3.6 1.1.9 1.6h-.6l-.5-.9c-.2-.4-.4-.7-.4-.7h-.5v1.6h-.6v-3.5h1.2c.7 0 1.2.2 1.2 1 0 .5-.1.8-.7.9zm-.6-.4c.5 0 .8-.1.8-.6s-.3-.5-.8-.5h-.4v1h.4z"/><path class="st1" d="M205.3 201.2h-7.7v-32h-11v-5.6c0-.7.5-1.2 1.2-1.2h30.5l-1.3 5.9c-.1.5-.6.9-1.2.9h-9.3V200c-.1.6-.6 1.2-1.2 1.2zM353 201.2h-6.8c-.4 0-.8-.2-1-.5L328.6 177v23c0 .7-.5 1.2-1.2 1.2h-7v-38.8h6.7c.4 0 .8.2 1 .5l16.7 23.7v-23c0-.7.5-1.2 1.2-1.2h7v38.8zM384.8 201.2h-23.9c-.7 0-1.2-.5-1.2-1.2v-37.6h26.5l-1.6 6.8h-16.1v8.2H384v5.6c0 .7-.5 1.2-1.2 1.2h-14.3v10.2H386v5.6c0 .6-.5 1.2-1.2 1.2zM246.2 201.2h-23.9c-.7 0-1.2-.5-1.2-1.2v-37.6h26.5l-1.3 5.9c-.1.5-.6.9-1.2.9H230v8.2h15.5v5.6c0 .7-.5 1.2-1.2 1.2H230v10.2h17.3v5.6c.1.6-.4 1.2-1.1 1.2zM406.8 201.2h-7.7v-32h-11.6l1.6-6.8H419v5.6c0 .7-.5 1.2-1.2 1.2H408V200c0 .6-.5 1.2-1.2 1.2zM305.5 163.4c-.2-.6-.8-1.1-1.5-1.1h-5.9c-.7 0-1.3.4-1.5 1l-12.5 33.9-.4 1.1c-2.3-4.6-6.7-13.4-7.6-14.6 4.3-1.8 6.4-5.2 6.4-10.2 0-9.9-7.2-11.3-14.9-11.3h-15.1V201h7.7c.7 0 1.2-.5 1.2-1.2v-14.4h6.8c.4.9 5.5 11.5 7 14.7.3.6.8.9 1.4.9h13.9c.7 0 1.3-.4 1.5-1.1l1.9-5.7h14l1.9 5.7c.2.6.8 1.1 1.5 1.1h7.4l-13.2-37.6zm-37.6 16.3h-6.4v-10.6h6.5c4.3 0 6.2 1.8 6.2 5 .1 3.7-1.7 5.6-6.3 5.6zm28.1 8.8 5.1-15.1 5 15.1H296zM425.8 162.8c1.6 0 2.8 1.2 2.8 2.8s-1.3 2.8-2.8 2.8c-1.6 0-2.8-1.2-2.8-2.8s1.3-2.8 2.8-2.8zm0 5.2c1.3 0 2.4-1.1 2.4-2.4 0-1.3-1.1-2.4-2.4-2.4-1.3 0-2.4 1.1-2.4 2.4 0 1.3 1.1 2.4 2.4 2.4zm.5-2.3c.2.3.6 1.1.9 1.6h-.6l-.5-.9c-.2-.4-.4-.7-.4-.7h-.5v1.6h-.6v-3.5h1.2c.7 0 1.2.2 1.2 1 0 .5-.2.8-.7.9zm-.6-.4c.5 0 .8-.1.8-.6s-.3-.5-.8-.5h-.4v1h.4z"/><path style="fill:none" d="M46.1 112.5h411.7v135H46.1z"/></svg>