<svg xmlns="http://www.w3.org/2000/svg" width="612" height="792" style="enable-background:new 0 0 612 792" xml:space="preserve"><path d="M521 253.7c5-17.5 10.2-33.7 15.6-48.8l43.4-10.3v-2.9H436.6v2.9l71 9.7c-1.3 15.7-3.4 32.6-6.3 50.6s-6.3 34.9-10.2 50.6L476.5 367h-94.4l-36.5-96.5c-4.9-13.9-10.2-29.9-16.1-48-5.9-18-9.8-29.8-11.7-35.3h-4.6c-3.7 17.1-13 48.6-27.8 94.7L257 367h-85.1l-7-29.2c-5-21.2-9.6-45-13.5-71.5-4-26.5-6-46.8-6-60.9l69.5-10.9v-2.9H37v2.9l42.4 10.3c13.2 37.7 25.1 79.2 35.9 124.7l8.8 37.4H38.4v9.3h535.1V367h-80.8l13.4-55.6c4.9-21 9.8-40.3 14.9-57.7zM131.1 367 92.4 203.1h16.1L147 367h-15.9zm143 0 1.7-5c1-3.7 4.7-14.7 11.1-33 6.4-18.2 11.3-30.5 14.8-36.8 4.1 9 13.1 30.9 27.1 65.6l3.4 9.2h-58.1zm65.4 0-34.6-92.4 7.3-24.1L356.1 367h-16.6zM38.4 463.4h108.4l14.6 61.9c12 52.6 19.5 88.8 22.4 108.6h3.9c4.1-14.3 7.8-27 11.1-38.1 3.3-11.1 6.5-21.6 9.5-31.5 3-9.9 6.5-20.6 10.4-32.2l23-68.7h126.2l29.1 78.4c3.1 7.6 6.1 15.6 9 24 2.9 8.3 5.3 15.3 7.1 21 1.8 5.7 4.2 13.5 7.3 23.5 3.1 10 5.4 17.8 7.1 23.5h4.1c2-12.6 5.8-31.7 11.6-57.5s12.2-53.8 19.4-84l6.9-28.9h103.9v-8.6h-535v8.6zm414.6 0c-5.9 22.1-10.5 38.3-14 48.6-7.5-17.2-14.2-33.4-20.3-48.6H453zm-60.6 0 37.8 100.4-7.1 26.5-47.6-126.9h16.9zm-168.7 0c-4.8 13-10.2 26.8-15.9 41.6-4.6-14.2-8.7-28.1-12.3-41.6h28.2zm-54 0 22.7 96.3-8 28.2h-1L154 463.3h15.7zm-41.9-74.6h-29v.4l6.9 1.4c2.1 5 4.1 10.6 5.8 16.7l7.5 26.1c2 7 3.2 11.9 3.7 14.5h.6c.7-1.9 1.3-3.6 1.8-5.1.5-1.5 1.1-2.9 1.6-4.2.5-1.3 1.1-2.8 1.7-4.3l7.6-18.6 1.7-4.2c.2-.5.8-2 1.8-4.4.4-.8.7-1.6 1-2.2.6-1.2 1.1-2.1 1.4-2.7.7 1.2 2.1 4.1 4.4 8.8l11.1 24.6c.5 1 1 2.1 1.5 3.2s.9 2.1 1.2 2.8c.3.8.7 1.8 1.2 3.1s.9 2.4 1.2 3.1h.7c.3-1.6.9-3.9 1.7-7 .1-.2.1-.4.2-.7.9-3.4 2-7.2 3.2-11.2l7.1-24.2c.8-2.8 1.6-5.4 2.4-7.7.4-1 .7-2 1.1-3 .5-1.2.9-2.4 1.4-3.5l7.1-1.4v-.4H164v.4l11.6 1.3c-.2 2.1-.6 4.4-1 6.8-.5 2.4-1 4.7-1.7 6.8l-4.5 15.8c-1.8 5.7-3.1 9.7-3.9 11.8-1.1-2.1-2.2-4.1-3.1-6-.9-1.9-1.8-3.7-2.5-5.4l-9.6-20.8c-.8-1.9-1.7-4-2.6-6.4-1-2.4-1.6-4-1.9-4.7h-.8c-.6 2.2-2 6.3-4.4 12.2-.1.2-.1.3-.2.5l-4.3 10.5-2.6 6.3c-1.4 3.5-3.4 7.9-5.8 13-1.3-3.3-2.3-6.4-3.2-9.4l-3.8-13c-.8-2.8-1.6-6-2.2-9.6-.7-3.5-1-6.3-1-8.1l11.3-1.5v-.4zm15.9 7.8 19.3 41.9-1.2 3.5-19.3-42.2 1.2-3.2zM124.2 438l-1.3 3.8h-.2l-14.8-51.4h2.6l13.7 47.6zm96.2-46.8c2.8 0 5.3.1 7.6.2l2.9 9.6h.6l-1-12.2h-42.4v.4l9.9 1.4c.3 2.5.5 5 .7 7.5.2 2.5.3 4.9.4 7.2.1 2.3.1 4.1.1 5.4v9.9c0 1.4 0 3-.1 4.9-.1 1.8-.1 4.1-.3 6.9-.1 2.7-.3 5.2-.5 7.4s-.4 3.8-.6 4.9l-6.5.9-3 .4v.4H231l.5-6.6.4-5.7h-.6l-3.2 9.5c-2.1.2-4.6.4-7.6.4-5.3 0-9.5-.5-12.7-1.5-.2-1.8-.4-3.8-.4-6.3-.1-2.4-.1-5.5-.2-9.2-.1-2.9 0-5.9.3-8.9 2.9-.3 6-.5 9.5-.5 2.8 0 5.3.1 7.6.4l1.9 7.1h.7v-16.8h-.7l-1.8 6.7c-3.2.3-6.3.5-9.3.5-1.1 0-3.8-.1-8-.4-.2-2.1-.3-4.9-.3-8.3 0-5.5.3-10.3.8-14.5 3.3-.8 7.4-1.1 12.5-1.1zM203 444.8h-2.7v-54.5h2.7v54.5zm57.5-3.9c-1 1-2.4 1.9-4.1 2.6-1.7.7-3.5 1-5.5 1-1 0-2.2-.1-3.4-.3l-1.8-.3c-2-.4-3.8-1-5.3-1.7l-3-9.7h-.6l.6 13.8c.1 0 .5 0 1-.1.6-.1 1-.1 1.3-.1h1.2c1.1 0 2.8.1 5.1.3.2 0 .5 0 .7.1 2 .1 3.7.2 5.2.2 4.6 0 8.3-.9 11.2-2.6 2.9-1.7 4.9-3.8 6.2-6.2 1.2-2.5 1.8-4.8 1.8-7.1 0-4.1-1.6-7.7-4.7-10.8-1.6-1.6-3.8-3.3-6.5-5-.7-.5-1.5-.9-2.2-1.4-1.9-1.2-3.7-2.4-5.4-3.5-2.3-1.5-4.2-3.1-5.5-4.7-1.1-1.3-1.7-2.7-1.9-4.1-.1-.4-.1-.8-.1-1.2 0-1.9.5-3.5 1.5-5 .3-.5.7-.9 1.1-1.3.9-.9 1.9-1.6 3.2-2.2 1.8-.9 3.9-1.3 6.1-1.3 2.4 0 5.2.6 8.3 1.9.4.2.9.4 1.3.5l2.5 9.1h.5l-.2-13.4c-.4.1-.7.1-1.1.1-.3 0-.8.1-1.3.1h-1.8c-.7 0-2.1-.1-4-.3-1.9-.2-3.8-.3-5.5-.3-2.4 0-4.5.3-6.4.9-1.1.3-2.2.8-3.2 1.3-2.6 1.5-4.5 3.3-5.8 5.6-1.2 2.2-1.9 4.5-1.9 6.7 0 2 .4 3.9 1.2 5.6.5 1.1 1.2 2.2 2.1 3.3.5.6 1 1.1 1.5 1.7 1.9 1.9 4.9 4.2 9.1 7 1 .7 2 1.3 2.9 2 2.7 1.9 4.7 3.5 6.1 4.9 1.8 1.8 2.7 4 2.7 6.6 0 1.3-.3 2.5-.8 3.9-.6 1.1-1.4 2.3-2.4 3.4zm4.5-7.7c0-2.9-1.2-5.5-3.6-7.9-.9-.9-2-1.8-3.4-2.8-.7-.5-1.6-1.2-2.6-1.9-.8-.6-1.8-1.2-2.8-1.9-2.3-1.5-4-2.7-5.1-3.6-1.1-.8-2.3-1.9-3.6-3.1-.7-.7-1.3-1.4-1.9-2.1-1.7-2.3-2.6-4.7-2.6-7.2 0-2.7.7-5.1 2.1-7.2 1.4-2.1 3.4-3.8 5.8-4.9.4-.2.8-.3 1.2-.5 2.1-.8 4.4-1.2 6.9-1.2h1.3v.4c-3.4.1-6.3.7-8.5 1.9-1.1.6-2.1 1.3-2.9 2.1-2.5 2.5-3.8 5.2-3.8 8.1 0 2 .5 3.8 1.5 5.6.7 1.2 1.6 2.3 2.7 3.4s2.9 2.4 5.4 4.1c1.8 1.2 3.5 2.4 5.2 3.5.7.5 1.4 1 2.1 1.4 2.4 1.6 4.1 2.9 5 3.8 1.6 1.6 2.7 3.2 3.3 4.7.6 1.5.9 3.2.9 5.1 0 2.1-.7 4.2-2 6.3-1.3 2-3.3 3.6-5.8 4.9-2.5 1.2-5.4 1.8-8.7 1.7v-.4c2.8 0 5.3-.6 7.3-1.8 2.1-1.2 3.7-2.7 4.8-4.5 1.3-2.1 1.8-4 1.8-6zm41.9-27.5c.1-1.9.1-4 .2-6.3s.3-4.6.5-7.1c2.1-.6 4.2-.9 6-1.2 1.9-.2 3.9-.4 6.2-.4 2.6 0 5.1.2 7.6.6l2.9 9.3h.5l-.9-12.7c-2.8.3-5 .5-6.8.6-1.8.1-3.7.2-5.8.2h-34.5c-1 0-2.2-.1-3.7-.3-1.5-.2-2.7-.3-3.5-.4l-.9 12.9h.6l2.9-9.4c2.8-.5 5.7-.7 8.6-.7 1.8.1 3.8.2 5.8.5 2 .2 3.8.6 5.4 1 .3 2.6.5 5.3.7 8.1.1 2.9.2 5.8.2 8.7v14.2c0 8.2-.4 15.2-1.2 21l-9.7 1.5v.4h30v-.4l-9.8-1.5c-.3-2.5-.6-5.9-.9-10.2-.2-4.3-.4-8.1-.4-11.5v-13.1c-.1-.5 0-1.8 0-3.8zm-4.2 39.1H300v-54.6h2.7v54.6zm49.7-52.6c3.1-.7 7.3-1.1 12.4-1.1h1.2c2.3 0 4.5.1 6.4.2l2.9 9.6h.6l-1-12.2h-42.4v.4l9.1 1.3.8.1c.1.9.2 1.8.3 2.8.2 1.6.3 3.1.4 4.7.2 2.5.3 4.9.4 7.2.1 2.3.1 4.1.1 5.4v9.9c0 1.4 0 3-.1 4.9-.1 1.8-.1 4.1-.3 6.9-.1 2.7-.3 5.2-.5 7.4s-.4 3.8-.6 4.9l-9.5 1.4v.4h42.8l.9-12.3h-.6l-3.2 9.5c-1.1.1-2.3.2-3.6.3-1.2.1-2.6.1-4 .1-1.2 0-2.4 0-3.6-.1-3.6-.2-6.7-.6-9.2-1.4-.2-1.8-.4-3.8-.4-6.3-.1-2.4-.1-5.5-.2-9.2-.1-2.9 0-5.8.3-8.7v-.2c2.2-.2 4.6-.4 7.2-.4h2.3c2.8 0 5.3.1 7.6.4l1.9 7.1h.7v-16.8h-.5l-1.8 6.7c-3.2.3-6.3.5-9.3.5h-1.6c-1.4-.1-3.6-.2-6.4-.3-.2-2.1-.3-4.9-.3-8.3 0-3.1.1-6 .3-8.7.1-2.3.3-4.2.5-6.1zm-5.1 52.6h-2.7v-54.5h2.7v54.5zm49.2-41.8c2-3.8 4.8-6.8 8.6-8.9 3.9-2.2 8.6-3.2 14-3.2 2.1 0 4.1.1 6 .3 1.9.2 3.9.5 5.9.8 2 .3 3.4.6 4.2.8l2.7 8.8h.5l-.5-13.2c-1.3.2-4.1.4-8.3.4-1.9 0-4.7-.1-8.2-.4-1-.1-2-.1-3-.1s-1.6-.1-1.9-.1h-2.1c-4.3 0-8.3.7-12 2.1-3.3 1.3-6.2 3-8.8 5.3-.3.3-.6.6-1 .9-2.8 2.7-4.9 5.9-6.5 9.6-1.5 3.7-2.3 7.8-2.3 12.2 0 3.5.6 6.9 1.9 10.2 1.3 3.4 3.3 6.4 6 9.2 2.7 2.8 6.1 5 10.2 6.6 3.2 1.3 6.9 2.1 10.9 2.3 1.1.1 2.2.1 3.4.1 1.3 0 3.2-.1 5.6-.3 2.4-.2 4.3-.3 5.7-.3 1.1 0 3 .1 5.5.3l5.9-10.8-.4-.2c-2.4 3.1-5.2 5.3-8.3 6.5-3.1 1.2-6.4 1.8-10 1.8-3.1 0-6.1-.5-8.9-1.4-.4-.1-.9-.3-1.3-.5-3.2-1.2-6.1-3-8.6-5.4-2.5-2.4-4.5-5.2-5.9-8.6-1.4-3.4-2.1-7.1-2.1-11.1 0-5.2 1-9.7 2.9-13.7.1.1.2 0 .2 0zm-1.4-3.8c-2.1 2.6-3.6 5.4-4.7 8.4-1.1 3.3-1.7 6.7-1.7 10.1 0 3.5.7 6.9 2 10.2 1.3 3.4 3.3 6.4 6 9 2.7 2.7 6.1 4.7 10.2 6.2 1.7.6 3.4 1.1 5.3 1.4 2.7.5 5.7.7 8.8.7v.5c-.6.1-1.9.1-4.1.1-1.5 0-3-.1-4.4-.2-3-.3-5.9-1-8.5-2-3.8-1.5-7.2-3.5-9.9-6.1-2.8-2.6-4.9-5.6-6.3-8.9-1.4-3.3-2.1-6.8-2.1-10.5 0-4 .7-7.8 2.1-11.3 1.4-3.5 3.4-6.6 6.1-9.3l.5-.5c2.6-2.5 5.7-4.4 9.3-5.8 3.9-1.5 8.1-2.3 12.7-2.3h4.7v.6h-2.8c-5.1 0-9.5.8-13.3 2.5-3.8 1.6-6.8 3.8-9.2 6.6-.3.2-.5.4-.7.6zm56.3 30.6c-.1 3.4-.3 6.4-.5 9.2-.2 2.7-.4 4.6-.6 5.6l-8 1.4v.4h29v-.4l-10.4-1.4c-.4-1.9-.7-4.5-.9-7.8 0-.6-.1-1.1-.1-1.7-.1-2.6-.2-5-.2-7 0-4.2.1-7.3.2-9.2h37.6c.2 2.1.3 4.2.3 6.1.1 2 .1 3.6 0 5-.1 5.3-.6 10.2-1.3 14.7l-10.3 1.4v.4h29v-.4l-8.2-1.4c-.8-3.9-1.2-9.8-1.2-17.7v-13.2c0-4.3.1-8.8.3-13.4.2-4.6.5-7.9.9-9.8l8.1-1.3v-.4H486v.4l.9.1 9.7 1.2c.2 1.8.4 3.3.6 4.6.1 1.3.3 3 .4 5.1.1 2.1.2 4.2.2 6.3 0 3.5-.1 6.6-.3 9.1-2.8.4-5.9.7-9.2.9-2.5.1-5.1.2-7.8.2h-3c-5.1 0-9.4-.2-12.8-.5-1.8-.2-3.3-.4-4.6-.6-.2-3.2-.2-5.9-.2-8.1 0-2.5.1-5.6.3-9.3.2-3.6.4-6.2.7-7.6l10.2-1.3h.4v-.4h-28.9v.4l8.1 1.3c.2 1.1.4 2.8.6 5.1.2 2.3.3 4.7.4 7 .1 2.3.1 3.7.1 4.1v14.5c-.2 2.1-.3 5-.4 8.4zm47.4-39.6h2.8v54.6h-2.8v-54.6zm-46.1.1h2.7v54.5h-2.7v-54.5z"/></svg>