<svg version="1.1" id="Layer_1" xmlns="http://www.w3.org/2000/svg" x="0" y="0" width="723.6" height="212.8" style="enable-background:new 0 0 723.6 212.8" xml:space="preserve"><style>.st0{fill:#804c9e}</style><path class="st0" d="M224.6 72.9h17.6l16.2 54.1 18.3-54.1H287l18.6 54.1 16-54.1h17.6l-26.6 80.4H299l-17-52.6-17.1 52.7h-13.6l-26.7-80.5zM398.1 129.1h-44.5c1.9 7.2 7.2 12.6 17.3 12.6 6.5 0 14.2-2.5 19.2-6l6.1 10.8c-5.7 4.1-14.9 8.2-25.9 8.2-22.2 0-32.2-15.1-32.2-31 0-17.7 12.4-31.1 30.9-31.1 16.9 0 29.7 11 29.7 29.8-.1 2.4-.3 4.5-.6 6.7zm-44.6-11.4h30.2c-1.4-7.6-7-12.4-14.8-12.4-7.7 0-13.5 4.7-15.4 12.4zM412.2 153.4V70.7h15.4v82.7h-15.4zM441.9 153.4V70.7h15.4v82.7h-15.4zM468.2 143.5l8.2-9.7c4.2 5.1 10.4 8.3 16.4 8.3 4.7 0 8.2-2.4 8.2-5.8 0-2.2-1.4-3.8-4.2-5.1-3.3-1.5-11.1-4-14.7-5.9-6.7-3.3-10.2-8.5-10.2-15.4 0-10.3 8.7-17.9 22.2-17.9 7.6 0 15 2.5 20.8 8.5l-7.6 9.9c-4.5-4.2-9.6-5.9-13.6-5.9-4.2 0-6.7 2.3-6.7 5 0 2.1 1.3 4.1 5.2 5.4 3.7 1.4 9.6 3.4 14.3 5.8 6.6 3.5 10 8.1 10 15 0 10.8-9.1 19.1-23.6 19.1-9.6.1-18.7-3.7-24.7-11.3zM564.7 149.9c-4.7 3.2-11.4 4.9-17.5 4.9-13.6 0-20.7-8.1-20.7-23.4V94.1h.1v-21h15.2v21h19.6v12.8h-19.6v23.5c0 6.9 2.6 10.5 8.4 10.5 3.8 0 7-1.4 9.9-3l4.6 12zM632.7 94.1v59.3h-14.6v-6.9c-4.4 4.7-10.6 8.3-18.9 8.3-17.2 0-29.4-13.7-29.4-31.4 0-17.9 12.5-30.9 29.4-30.9 8.4 0 14.5 3.7 18.9 8.6V94h14.6zm-14.4 29.6c0-9.3-6.9-17.1-16.7-17.1-9.9 0-16.5 7.8-16.5 17.1 0 9.5 6.7 17.2 16.5 17.2s16.7-7.9 16.7-17.2zM647.1 94.1h14.7v7.9c3.7-6.5 9.4-9.6 16.3-9.6 2.2 0 4.8.4 7.2 1.3l-1.3 14.7c-2.4-.8-4.8-1.2-7.1-1.2-8.1 0-14.5 5-14.5 18v28.2H647V94.1z"/><g><path class="st0" d="M127.1 32.3c-32.5.9-58.6 27.6-58.6 60.4h29.1c.6 0 1.1-.5 1.2-1.1.6-16.1 13.9-29 30.2-29V34.2c-.1-1.1-.9-1.9-1.9-1.9z"/><path class="st0" d="M38.3 94.5c.9 32.5 27.6 58.6 60.4 58.6V124c0-.6-.5-1.1-1.1-1.2-16.1-.6-29-13.9-29-30.2H40.2c-1.1.2-1.9 1-1.9 1.9z"/><path class="st0" d="M100.5 183.3c32.5-.9 58.6-27.6 58.6-60.4H130c-.6 0-1.1.5-1.2 1.1-.6 16.1-13.9 29-30.2 29v28.4c.1 1.2.9 2 1.9 1.9z"/><path class="st0" d="M189.3 121.1c-.9-32.5-27.6-58.6-60.4-58.6v29.1c0 .6.5 1.1 1.1 1.2 16.1.6 29 13.9 29 30.2h28.4c1.1-.1 2-.9 1.9-1.9z"/></g><g><path d="M691.5 147c0 3.4-2.8 6.1-6.1 6.1-3.4 0-6.1-2.8-6.1-6.1 0-3.4 2.8-6.1 6.1-6.1s6.1 2.7 6.1 6.1zm-1.3 0c0-2.7-2.2-4.9-4.9-4.9s-4.9 2.2-4.9 4.9 2.2 4.9 4.9 4.9 4.9-2.2 4.9-4.9zm-3.6.7 1.3 2.3h-1.3l-1.2-2.1h-1v2.1h-1.2v-6.2h2.5c1.2 0 2.1.8 2.1 2 0 .9-.5 1.6-1.2 1.9zm-2.2-.7h1c.8 0 1.2-.4 1.2-1.1s-.4-1-1.2-1h-1v2.1z"/></g></svg>