<svg version="1.1" id="Layer_1" xmlns="http://www.w3.org/2000/svg" xmlns:xlink="http://www.w3.org/1999/xlink" x="0" y="0" width="792" height="612" style="enable-background:new 0 0 792 612" xml:space="preserve"><style>.st6{fill:#871668}</style><defs><path id="SVGID_1_" d="M30.9 142.5h705v327h-705z"/></defs><clipPath id="SVGID_2_"><use xlink:href="#SVGID_1_" style="overflow:visible"/></clipPath><path d="M189 213.6c.7-1 1.3-2.1 1.9-3.1 5.1-8.9 7.4-18.4 6.8-28.3-.5-9.4-4-17.7-10.2-24.5-1.6-1.8-3.5-3.5-5.6-5.1-.4-.4-.9-.7-1.4-1-2.1-1.5-4.2-2.9-6.5-4-2.2-1.1-4.5-2.1-6.8-2.8-2.3-.7-4.7-1.3-7.2-1.7-2.4-.4-4.9-.6-7.4-.6-1.1 0-2.3 0-3.5.1-3.2.2-6.4.7-9.3 1.4-3 .8-5.9 1.8-8.6 3.1-2.7 1.3-5.4 2.9-7.8 4.8-2.4 1.9-4.8 4.1-6.9 6.5-.8.9-1.5 1.8-2.2 2.7l-.9 1.2-.6.8v50.5c-.3-.3-.5-.6-.8-1-2.1-2.4-4.5-4.6-6.9-6.5-2.4-1.9-5.1-3.5-7.8-4.8-2.7-1.3-5.6-2.3-8.6-3.1-3-.7-6.1-1.2-9.3-1.4-1.2-.1-2.3-.1-3.5-.1-2.5 0-5 .2-7.4.6-2.4.4-4.8.9-7.2 1.7-2.3.8-4.6 1.7-6.8 2.8-2.2 1.1-4.4 2.5-6.5 4-.5.3-.9.7-1.4 1-2 1.6-3.9 3.3-5.6 5.1-6.3 6.8-9.7 15.1-10.2 24.5-.6 9.9 1.7 19.4 6.8 28.3.6 1 1.2 2.1 1.9 3.1-5.3 6.5-8.2 14.1-8.7 22.8-.6 9.9 1.7 19.4 6.8 28.3 1.1 2 2.4 4 3.8 5.9 1.3 1.8 2.8 3.6 4.3 5.4 2.9 3.2 6.1 6.4 9.9 9.6 5.4 4.6 11 9.1 16.4 13.5 1 .8 2 1.6 3 2.5 1.5 1.2 2.8 2.3 3.9 3.2 2.3 1.9 4.4 3.6 6.3 5.3 3.3 2.8 6.2 5.5 8.9 8.1 3 2.9 5.8 5.8 8.3 8.7 1.9 2.2 3.7 4.3 5.6 6.6.8.9 1.6 1.9 2.4 2.9l5.1 6.1V339l2.2-2.7c.8-1 1.6-1.9 2.4-2.9 1.9-2.3 3.7-4.5 5.6-6.6 2.5-2.9 5.2-5.7 8.3-8.7 2.7-2.6 5.6-5.3 8.9-8.1 1.9-1.7 4-3.4 6.3-5.3 1.1-.9 2.4-1.9 3.9-3.2l3-2.4c5.4-4.4 11-8.9 16.4-13.5 3.8-3.2 7-6.3 9.9-9.6 1.6-1.8 3-3.6 4.3-5.4 1.4-1.9 2.7-3.9 3.8-5.9 5.1-8.9 7.4-18.4 6.8-28.3 0-8.6-3-16.3-8.3-22.8z" style="clip-path:url(#SVGID_2_);fill:#fff"/><path d="M87.4 307.8c-2.1-1.8-4.2-3.6-6.4-5.3-1.3-1.1-2.6-2.1-3.9-3.2-6.5-5.3-13-10.5-19.4-15.9-5.4-4.6-10.3-9.6-14.3-15.3-5.7 6.2-9 13.7-9.5 22.7-.5 9.5 1.7 18.4 6.4 26.7 4.5 7.8 10.6 14.3 17.4 20.1 6.4 5.4 12.9 10.6 19.4 15.9 1.3 1.1 2.6 2.1 3.9 3.2 2.2 1.8 4.3 3.5 6.4 5.3 6.2 5.3 12.1 10.9 17.5 17 2.7 3.1 5.3 6.4 8 9.6v-54.1c-2.7-3.2-5.3-6.5-8-9.6-5.4-6.2-11.3-11.8-17.5-17.1z" style="fill:#ffcb05"/><path d="M79.3 199.6c-10.8-.7-20.7 2-29.5 8.4-.4.3-.9.6-1.3 1-1.9 1.5-3.6 3.1-5.2 4.8-5.7 6.2-9 13.7-9.5 22.7-.5 9.5 1.7 18.4 6.4 26.7.9 1.6 2 3.2 3 4.8 1.6-1.7 3.3-3.3 5.2-4.8.4-.3.8-.7 1.3-1 8.8-6.4 18.7-9.1 29.5-8.4 12.2.8 22.5 5.6 30.7 14.9 1 1.2 1.9 2.5 3 3.8v-54.2c-1-1.3-1.9-2.6-3-3.8-8.1-9.2-18.4-14.1-30.6-14.9z" style="fill:#74cee2"/><path d="M79.3 253.8c-10.8-.7-20.7 2-29.5 8.4-.4.3-.9.6-1.3 1-1.9 1.5-3.6 3.1-5.2 4.8 4 5.8 9 10.8 14.3 15.3 6.4 5.4 12.9 10.6 19.4 15.9 1.3 1.1 2.6 2.1 3.9 3.2 2.2 1.8 4.3 3.5 6.4 5.3 6.2 5.3 12.1 10.9 17.5 17 2.7 3.1 5.3 6.4 8 9.6v-61.9c-1-1.3-1.9-2.6-3-3.8-8-9.2-18.3-14-30.5-14.8z" style="fill:#92af2b"/><path d="M185.4 213.8c-4 5.8-9 10.8-14.3 15.3-6.4 5.4-12.9 10.6-19.4 15.9-1.3 1.1-2.6 2.1-3.9 3.2-2.2 1.8-4.3 3.5-6.4 5.3-6.2 5.3-12.1 10.9-17.5 17-2.7 3.1-5.3 6.4-8 9.6v54.1c2.7-3.2 5.3-6.5 8-9.6 5.4-6.2 11.3-11.7 17.5-17 2.1-1.8 4.2-3.6 6.4-5.3 1.3-1.1 2.6-2.1 3.9-3.2 6.5-5.3 13-10.5 19.4-15.9 6.8-5.8 12.9-12.3 17.4-20.1 4.7-8.3 7-17.2 6.4-26.7-.5-8.8-3.8-16.4-9.5-22.6z" style="fill:#b72467"/><path d="M149.4 199.6c10.8-.7 20.7 2 29.5 8.4.4.3.9.6 1.3 1 1.9 1.5 3.6 3.1 5.2 4.8 1.1-1.5 2.1-3.1 3-4.8 4.7-8.3 7-17.2 6.4-26.7-.5-9-3.8-16.6-9.5-22.7-1.6-1.7-3.3-3.3-5.2-4.8-.4-.3-.8-.7-1.3-1-8.8-6.4-18.7-9.1-29.5-8.4-12.2.8-22.5 5.6-30.7 14.9-1 1.2-1.9 2.5-3 3.8v54.2c1-1.3 1.9-2.6 3-3.8 8.3-9.2 18.6-14.1 30.8-14.9z" style="fill:#b19aca"/><path class="st6" d="M141.3 253.6c2.1-1.8 4.2-3.6 6.4-5.3 1.3-1.1 2.6-2.1 3.9-3.2 6.5-5.3 13-10.5 19.4-15.9 5.4-4.6 10.3-9.6 14.3-15.3-1.6-1.7-3.3-3.3-5.2-4.8-.4-.3-.8-.7-1.3-1-8.8-6.4-18.7-9.1-29.5-8.4-12.2.8-22.5 5.6-30.7 14.9-1 1.2-1.9 2.5-3 3.8v62c2.7-3.2 5.3-6.5 8-9.6 5.6-6.3 11.5-11.9 17.7-17.2zM175.1 225.6z"/><path d="m171.9 329.4-4.4 2v12.5h-11.8v3.9h11.8v45.4c0 8 1 20.2 14.9 20.2 3.9 0 6.6-.8 8.8-1.7l-1-3.3c-1.7.6-3.9 1.3-7.5 1.3-7.4 0-10.7-6.4-10.7-15v-46.9h20v-3.9h-20.1v-14.5zM212.1 358.1h-.4l-.2-14.2h-4.2c.4 6.6.5 13.9.5 20.1v48h4.5v-38.1c0-15.3 7.9-27.5 18.9-27.5 1.1 0 1.8.1 2.9.2v-3.9c-.9-.3-1.7-.4-2.5-.4-9.7.1-16.7 7.4-19.5 15.8zM283.4 390.9c0 5.6-6 18.9-22.1 18.9-7.5 0-14.9-4.8-14.9-15.4 0-18.2 23.8-20.2 37-20v16.5zm-41.6 4.4c0 8.8 6 18.3 19.7 18.3 11.2 0 18.8-6.6 22-11.8h.2l1 10.3h4.2c-.9-5.5-1-10.8-1-16.1v-26.9c0-11.6-3.2-26.6-22.4-26.6-5.2 0-12.6 1.5-18.9 6l1.8 3.3c5-3.6 11.1-5.5 16.8-5.5 18.3 0 18.3 16.7 18.3 24.4-28.2-.5-41.7 9.2-41.7 24.6zM339.4 342.4c-10.4 0-19.1 5.5-23.9 14.2h-.3l-.4-12.7h-4.3c.4 5.2.5 9.5.5 15.4V412h4.4v-42.6c0-10.6 9.3-23.3 22.9-23.3 15 0 20.1 12.2 20.1 25.3V412h4.4v-40.9c.1-26.3-18-28.7-23.4-28.7zM402 374.4c-9.4-3.9-14.5-7.6-14.5-15.4 0-6.6 5.6-13 14.9-13 4.4 0 8.9 1.7 12.6 4.3l2.3-3.4c-3.4-2.5-8.4-4.6-14.5-4.6-12.6 0-19.8 8.4-19.8 17.8 0 8.1 6 13.9 16.9 18.2 10 4.1 15 8.6 15 16.8 0 9.3-8.5 14.6-17.2 14.6-4.7 0-10.9-2.4-14.7-4.8l-2.2 3.7c4.7 3.1 10.3 4.8 16.6 4.8 12.6 0 22-7.2 22-19.1 0-10.4-6.6-15.6-17.4-19.9zM440.6 412h4.4v-68.1h-4.4V412zM481 329.4l-4.5 2v12.5h-11.8v3.9h11.8v45.4c0 8 1 20.2 14.9 20.2 3.9 0 6.6-.8 8.8-1.7l-1-3.3c-1.7.6-3.9 1.3-7.5 1.3-7.4 0-10.7-6.4-10.7-15v-46.9h20.1v-3.9H481v-14.5zM521.9 412h4.5v-68.1h-4.5V412zM577.7 409.9c-14.7 0-26.3-14.7-26.3-31.7 0-16.1 9.2-32.2 27.1-32.2 18.6 0 26.4 17.3 26.4 31.8 0 18.9-12.3 32.1-27.2 32.1zm.7-67.5c-16.1 0-31.5 12.7-31.5 36.2 0 21.2 13.3 35 30.8 35 14.5 0 31.9-10.7 31.9-36.2-.1-20.7-12.3-35-31.2-35zM655.9 342.4c-10.4 0-19.1 5.5-23.9 14.2h-.3l-.4-12.7H627c.4 5.2.5 9.5.5 15.4V412h4.5v-42.6c0-10.6 9.3-23.3 22.9-23.3 15 0 20.1 12.2 20.1 25.3V412h4.4v-40.9c0-26.3-18.2-28.7-23.5-28.7zM718.4 374.4c-9.4-3.9-14.5-7.6-14.5-15.4 0-6.6 5.6-13 14.9-13 4.4 0 8.9 1.7 12.6 4.3l2.3-3.4c-3.4-2.5-8.4-4.6-14.5-4.6-12.6 0-19.8 8.4-19.8 17.8 0 8.1 6 13.9 16.9 18.2 10 4.1 15 8.6 15 16.8 0 9.3-8.5 14.6-17.2 14.6-4.7 0-10.9-2.4-14.7-4.8l-2.2 3.7c4.7 3.1 10.3 4.8 16.6 4.8 12.6 0 22-7.2 22-19.1.1-10.4-6.6-15.6-17.4-19.9zM442.7 321.3c-1.7 0-3 1.3-3 3s1.4 3 3 3c1.7 0 3-1.3 3-3s-1.3-3-3-3zM524.2 321.3c-1.7 0-3 1.3-3 3s1.4 3 3 3c1.7 0 3-1.3 3-3s-1.4-3-3-3zM742.6 330.4h-4v-.9h8.9v.9h-4v12.7h-1v-12.7zM750 329.5h1l4.6 7.9 4.6-7.9h1v13.6h-1v-11.8l-4.5 7.9h-.1l-4.6-7.9v11.8h-1v-13.6z"/></svg>