<svg xmlns="http://www.w3.org/2000/svg" width="1368" height="936" style="enable-background:new 0 0 1368 936" xml:space="preserve"><path d="M631 390.4h48.6v19.9H631zM659.7 417.5h19.9v35h-19.9zM631 417.5h19.9v35H631zM573.5 432.5h48.6v19.9h-48.6zM573.5 390.4h19.9v35h-19.9zM602.3 390.4h19.9v35h-19.9z"/><g><path d="M745.9 390.4h48.6v19.9h-48.6zM774.6 417.5h19.9v35h-19.9zM745.8 417.5h19.9v35h-19.9z"/></g><g><path d="M688.4 432.5H737v19.9h-48.6zM688.4 390.4h19.9v35h-19.9zM717.1 390.4H737v35h-19.9z"/></g><g><path d="M484.2 514.6v31h6.5v-12.1h25.9v-18.9h-32.4zm26 13.4h-19.5v-8.1h19.5v8.1zM217.3 514.6h-35.8v5.3h14.6v25.7h6.5v-25.7h14.7zM985.9 514.6h-35.8v5.3h14.6v25.7h6.5v-25.7h14.7zM1097.8 539.8h-.1v-25.2h-6.4v31h35.7v-5.8zM436.8 514.6 424 537.5l-12.7-22.9h-7.8v31h6.5v-21.7l12.1 21.7h3.8l12.2-21.7v21.7h6.5v-31zM1186.5 519.9v-5.3H1153v17.8h27v7.4h-27v5.8h33.5v-18.5h-27v-7.2zM1026.6 539.8V532.4h22.6v-5.3h-22.6v-7.2h29.2v-5.3h-35.7v31h35.7v-5.8zM878.1 514.6v31h36.8v-31h-36.8zm30.3 25.2h-23.8v-19.9h23.8v19.9zM833 514.6v12.5h-22.6v-12.5h-6.5v31h6.5v-13.2H833v13.2h6.5v-31zM627.2 514.6v31H664v-31h-36.8zm30.3 25.2h-23.8v-19.9h23.8v19.9zM328.4 514.6v31h36.8v-31h-36.8zm30.3 25.2h-23.8v-19.9h23.8v19.9zM562.7 519.9h27v-5.3h-33.4v17.8h26.9v7.4h-26.9v5.8h33.4v-18.5h-27zM282.1 514.6v12.5h-22.6v-12.5H253v31h6.5v-13.2h22.6v13.2h6.5v-31zM730.5 514.6v21l-25.1-21h-5v31h6.5v-21.1l25.1 21.1h5v-31z"/></g></svg>