<svg version="1.1" id="Layer_1" xmlns="http://www.w3.org/2000/svg" x="0" y="0" width="612" height="792" style="enable-background:new 0 0 612 792" xml:space="preserve"><style>.st2{fill:#f78d1e}.st3{fill:#f78e1e}.st4{fill:#f7921e}.st5{fill:#2e6eb7}.st8{fill:#2e6ab4}.st9{fill:#2d68b2}.st12{fill:#f15d22}.st14{fill:#f26921}.st15{fill:#f37021}.st16{fill:#f37121}.st18{fill:#3b84c5}.st19{fill:#3981c3}.st20{fill:#377bbf}.st21{fill:#3479be}.st23{fill:#3777bc}.st25{fill:#3475bb}.st26{fill:#3174ba}.st27{fill:#ef4623}.st28{fill:#f04c23}.st29{fill:#f04e23}.st30{fill:#f05123}.st31{fill:#3882c4}.st32{fill:#3b7fc2}.st33{fill:#ee3124}.st34{fill:#ee3524}.st35{fill:#418fcd}.st36{fill:#ee2624}.st37{fill:#289bd1}.st38{fill:#2a9ad0}.st39{fill:#ee2030}.st40{fill:#16a1b9}.st42{fill:#14a1bb}.st43{fill:#ed1845}.st44{fill:#ed1846}.st45{fill:#18a698}.st46{fill:#ed135c}.st47{fill:#12a970}.st52{fill:#29b14b}.st53{fill:#0cab58}.st55{fill:#e02a8d}.st56{fill:#e32589}.st58{fill:#e62585}.st59{fill:#16af4b}.st61{fill:#15af4c}.st62{fill:#14af4d}.st63{fill:#18ae50}.st65{fill:#cc2c8f}.st66{fill:#cf2c8e}.st67{fill:#cf2c8d}.st68{fill:#d02c8c}.st69{fill:#39b54a}.st71{fill:#33b44a}.st72{fill:#33b44b}.st73{fill:#35b24b}.st74{fill:#35b24c}.st75{fill:#ad3192}.st77{fill:#b22d91}.st78{fill:#b32d8f}.st79{fill:#b52d8e}.st80{fill:#62bb46}.st81{fill:#5bba47}.st82{fill:#5fbb46}.st83{fill:#5bba48}.st84{fill:#953192}.st85{fill:#933192}.st86{fill:#963192}.st87{fill:#973190}.st88{fill:#85c441}.st89{fill:#82c341}.st90{fill:#793594}.st91{fill:#7b3594}.st92{fill:#a4cd39}.st93{fill:#a1cd3a}.st94{fill:#404fa2}.st95{fill:#3f54a5}.st97{fill:#415aa8}.st98{fill:#455eab}.st99{fill:#3e63ac}.st100{fill:#4e439b}.st101{fill:#4d469c}.st102{fill:#4e479d}.st103{fill:#50499e}.st104{fill:#553c97}.st105{fill:#543e98}.st106{fill:#563f99}.st107{fill:#593a96}.st108{fill:#593c97}.st109{fill:#5c3a96}.st110{fill:#5e3a96}.st111{fill:#e7c31f}.st112{fill:#e5b622}.st113{fill:#e3aa24}.st114{fill:#e2a325}.st115{fill:#e2a125}.st116{fill:#d8d125}.st117{fill:#d7cc26}.st118{fill:#d7c927}.st119{fill:#d6c527}.st120{fill:#cdd72a}.st121{fill:#cdd52a}.st122{fill:#cdd32a}.st123{fill:#cdd22a}.st124{fill:#c8d72c}.st125{fill:#c8d52c}.st126{fill:#c6d92d}.st127{fill:#c4d82e}</style><path style="fill:#f5841f" d="m61.1 396.7.3.1v-.1z"/><path d="m61.4 396.8-.2-.1.2.1z" style="fill:#f58020"/><path class="st2" d="M61.4 396.7z"/><path class="st3" d="M61.4 396.7zM61.4 396.7zM61.4 396.7c1.5.4 3.1.8 4.6 1.5v-1.5h-4.6z"/><path class="st2" d="M65.9 398.2c-1.5-.6-3.1-1.1-4.6-1.4 1.6.3 3.1.7 4.6 1.4"/><path class="st4" d="M65.9 396.7v1.5-1.5M65.9 396.7v1.5-1.5zM65.9 396.7v1.5-1.5M65.9 396.7v1.4c.9.4 1.8.8 2.7 1.3.5.3 1.1.6 1.6 1-.1-1.3-.1-2.5.1-3.7h-4.4zM65.9 398.2zM65.9 398.2z"/><path class="st4" d="M68.7 399.5c-.9-.5-1.8-.9-2.7-1.3.9.3 1.8.8 2.7 1.3.5.3 1.1.6 1.6 1-.6-.4-1.1-.8-1.6-1"/><path class="st5" d="m105.1 448.5-.3-.1v.1zM104.8 448.4v.1zM105.1 448.5l-.2-.1.2.1zM104.8 448.4v.1zM105.1 448.5l-.2-.1.2.1z"/><path style="fill:#306db6" d="M104.8 448.4v.1z"/><path d="m105.1 448.5-.2-.1.2.1z" style="fill:#3170b7"/><path class="st8" d="M104.8 448.4c-1.5-.3-3.1-.8-4.6-1.4v1.4h4.6z"/><path class="st8" d="M100.2 447v1.4c.1-.4.1-.9 0-1.4M104.8 448.4c-1.1-.2-2.3-.6-3.4-.9-.4-.1-.8-.3-1.2-.5 1.6.6 3.1 1.1 4.6 1.4M100.2 447"/><path class="st8" d="M100.2 447v1.4c.1-.4.1-.9 0-1.4M104.8 448.4c-1.1-.2-2.2-.5-3.3-.9h-.1c1.2.3 2.3.7 3.4.9M104.8 448.4"/><path class="st9" d="M100.2 447v1.4c.1-.4.1-.9 0-1.4"/><path class="st9" d="M100.2 447c-.8-.3-1.5-.7-2.3-1-.2-.1-.3-.2-.5-.3-.5-.3-1.1-.6-1.6-1 .1 1.3.1 2.5-.1 3.7h4.4c.2-.4.2-.9.1-1.4"/><path class="st9" d="M95.9 444.8c.1 1.3.1 2.5-.1 3.7.2-1.3.2-2.5.1-3.7M100.2 447c-.8-.3-1.5-.7-2.3-1 .8.4 1.6.7 2.3 1"/><path class="st9" d="M95.9 444.8c.1 1.3.1 2.5-.1 3.7.2-1.3.2-2.5.1-3.7"/><path class="st9" d="M95.9 444.8c.1 1.3.1 2.5-.1 3.7.2-1.3.2-2.5.1-3.7z"/><path style="fill:#f04e25" d="M51.4 396.9v-.2h-.2z"/><path d="M51.4 396.7v.2-.2z" style="fill:#f15f23"/><path class="st12" d="M51.4 396.7v.2-.2zM51.4 396.7v.2-.2z"/><path d="M51.4 396.7v.2l3.4 4h2.4c-.3-1.4-.5-2.9-.7-4.2h-5.1z" style="fill:#f15f22"/><path class="st14" d="M56.5 396.7c.1 1.4.3 2.8.7 4.2-.2-.7-.3-1.4-.4-2.1l-.3-2.1z"/><path class="st14" d="M56.8 398.8c.1.7.2 1.4.4 2.1-.2-.7-.3-1.4-.4-2.1M61.4 396.8l-.3-.1zM61.4 396.8l-.2-.1.2.1zM56.5 396.7l.3 2.1-.3-2.1"/><path class="st14" d="m56.5 396.7.3 2.1c.1.7.2 1.4.4 2.1-.3-1.4-.5-2.8-.7-4.2z"/><path class="st14" d="m61.4 396.8-.2-.1h-4.6c.1 1.4.3 2.8.7 4.2 1.6.1 3.2.2 4.7.6-.4-1.6-.6-3.2-.6-4.7"/><path class="st15" d="M61.4 396.8c.1 1.6.3 3.2.6 4.7-.4-1.6-.6-3.2-.6-4.7"/><path class="st15" d="M65.9 398.2c-1.5-.6-3.1-1.1-4.6-1.4 1.6.3 3.1.7 4.6 1.4z"/><path class="st15" d="M65.9 398.2c-1.5-.6-3.1-1.1-4.6-1.4 1.6.3 3.1.7 4.6 1.4"/><path class="st15" d="M61.4 396.8c.1 1.6.2 3.2.6 4.7-.4-1.6-.6-3.2-.6-4.7"/><path class="st15" d="M61.4 396.8c.1 1.6.2 3.2.6 4.7-.4-1.6-.6-3.2-.6-4.7"/><path class="st15" d="M65.9 398.2c-1.5-.6-3.1-1.1-4.6-1.4.1 1.6.3 3.2.6 4.7 1.6.3 3.1.8 4.6 1.5-.3-1.6-.5-3.2-.6-4.8"/><path class="st16" d="M65.9 398.2zM65.9 398.2c.1 1.6.3 3.2.7 4.8-.4-1.6-.6-3.2-.7-4.8M65.9 398.2zM65.9 398.2zM68.7 399.4c-.9-.5-1.8-.9-2.7-1.3.9.4 1.8.9 2.7 1.3.5.3 1.1.6 1.6 1-.6-.3-1.1-.7-1.6-1"/><path class="st16" d="M68.7 399.5c-.9-.5-1.8-.9-2.7-1.3.9.3 1.8.8 2.7 1.3.5.3 1.1.6 1.6 1-.6-.4-1.1-.8-1.6-1M65.9 398.2c.1 1.6.3 3.2.7 4.8-.4-1.6-.6-3.2-.7-4.8"/><path class="st16" d="M65.9 398.2c.1 1.6.3 3.2.7 4.8-.4-1.6-.6-3.2-.7-4.8"/><path class="st16" d="M68.7 399.4c-.9-.5-1.8-.9-2.7-1.3.1 1.6.3 3.2.7 4.8.2.1.3.1.5.2.5.2.9.5 1.4.7 1 .5 1.9 1.2 2.8 1.8-.5-1.5-.8-3.1-1-4.8v-.5c-.7-.2-1.2-.6-1.7-.9"/><path style="fill:#3d85c6" d="M114.8 448.3v.2h.1z"/><path class="st19" d="M114.8 448.3v.2-.2zM114.8 448.3v.2-.2z"/><path class="st20" d="M111.4 444.3H109c.3 1.4.5 2.9.7 4.2h5.2v-.2l-3.5-4zM111.4 444.3H109h2.4"/><path class="st20" d="M109 444.2c.1.2.1.5.2.7.2 1.2.4 2.4.5 3.5-.2-1.3-.4-2.7-.7-4.2"/><path class="st20" d="M109.1 444.9c.2 1.2.4 2.4.5 3.5-.1-1.1-.2-2.3-.5-3.5M111.4 444.3H109h2.4M109 444.2z"/><path class="st21" d="M109 444.2c.1.2.1.5.2.7-.1-.2-.2-.4-.2-.7"/><path class="st21" d="M109 444.2c.3 1.4.5 2.9.7 4.2-.1-1.1-.3-2.3-.5-3.5-.1-.2-.2-.4-.2-.7M109 444.2zM109 444.2z"/><path d="M111.4 444.3H109h2.4" style="fill:#357cc0"/><path class="st23" d="M109 444.2c-1.6-.1-3.2-.2-4.7-.6.3 1.6.5 3.2.6 4.8l.2.1h4.6c-.2-1.4-.4-2.8-.7-4.3"/><path class="st23" d="M104.2 443.7c.3 1.6.5 3.2.6 4.7-.1-1.6-.2-3.2-.6-4.7M109 444.2c-1.6-.1-3.2-.2-4.7-.6 1.5.4 3.1.6 4.7.6z"/><path class="st23" d="M104.2 443.7c.3 1.6.5 3.2.6 4.7-.1-1.6-.2-3.2-.6-4.7M109 444.2c-1.6-.1-3.2-.2-4.7-.6 1.5.4 3.1.6 4.7.6"/><path class="st23" d="M104.2 443.7c.3 1.6.5 3.2.6 4.7-.1-1.6-.2-3.2-.6-4.7"/><path d="M109 444.2c-1.6-.1-3.2-.2-4.7-.6 1.5.4 3.1.6 4.7.6" style="fill:#3578bd"/><path class="st25" d="M101.4 447.5c0-.1 0-.1 0 0-.5-.2-.8-.3-1.2-.4.4.1.8.2 1.2.4M100.2 447"/><path class="st25" d="M101.5 447.5c-.1 0-.1 0-.2-.1.1 0 .1 0 .2.1M101.4 447.4c-.4-.1-.7-.3-1.1-.4.3.2.7.3 1.1.4"/><path class="st25" d="M104.2 443.7c-1.6-.3-3.1-.8-4.6-1.5.4 1.6.6 3.2.7 4.8.4.1.7.3 1.1.4.1 0 .1 0 .2.1 1.1.4 2.2.7 3.3.9-.2-1.6-.3-3.2-.7-4.7"/><path class="st25" d="M99.6 442.2c.4 1.6.6 3.2.7 4.8-.1-1.6-.3-3.2-.7-4.8"/><path class="st25" d="M104.2 443.7c-1.3-.3-2.5-.6-3.8-1.1-.3-.1-.6-.2-.9-.4 1.6.7 3.2 1.1 4.7 1.5"/><path class="st25" d="M99.6 442.2c.4 1.6.6 3.2.7 4.8-.1-1.6-.3-3.2-.7-4.8M104.2 443.7c-.7-.2-1.5-.3-2.2-.6-.5-.2-1-.3-1.6-.5 1.3.4 2.6.8 3.8 1.1"/><path class="st25" d="M104.2 443.7c-.7-.2-1.5-.3-2.2-.6.8.2 1.5.4 2.2.6"/><path class="st26" d="M95.9 444.8c.5.3 1 .7 1.6 1 .2.1.3.2.5.3-.2-.1-.3-.2-.5-.3-.4-.2-.7-.4-1-.6-.2-.2-.4-.3-.6-.4M100.2 447c-.9-.4-1.8-.8-2.7-1.3-.4-.2-.7-.4-1-.6.3.2.7.4 1 .6.2.1.3.2.5.3.7.4 1.5.7 2.2 1M95.9 444.8zM99.6 442.2c.4 1.6.6 3.2.7 4.8-.1-1.6-.3-3.2-.7-4.8"/><path class="st26" d="M95.9 444.8c.2.1.4.2.5.4-.1-.2-.3-.3-.5-.4M100.2 447c-.9-.4-1.8-.8-2.7-1.3-.5-.3-1.1-.6-1.6-1 .2.1.4.2.5.3.3.2.7.4 1 .6 1 .6 1.9 1 2.8 1.4"/><path class="st26" d="M94.9 439.5c.5 1.5.8 3.1 1 4.8v.5c.5.3 1 .7 1.6 1 .9.5 1.8.9 2.7 1.3-.1-1.6-.3-3.2-.7-4.8-.1-.1-.3-.1-.5-.2-.5-.2-.9-.5-1.4-.7-.8-.7-1.8-1.3-2.7-1.9"/><path class="st26" d="M94.9 439.5c.5 1.5.8 3.1 1 4.8v.5-.5c-.2-1.7-.5-3.3-1-4.8M94.9 439.5c.9.7 1.8 1.3 2.8 1.8.5.3.9.5 1.4.7.2.1.3.1.5.2-.1-.1-.3-.1-.5-.2-.5-.2-.9-.5-1.4-.7-.9-.6-1.9-1.2-2.8-1.8M95.9 444.8zM95.9 444.8z"/><path class="st26" d="M94.9 439.5c.5 1.5.8 3.1 1 4.8v.5-.5c-.2-1.7-.5-3.3-1-4.8"/><path class="st26" d="M94.9 439.5c.5 1.5.8 3.1 1 4.8v.5-.5c-.2-1.7-.5-3.3-1-4.8zM94.9 439.5z"/><path class="st27" d="M57.2 400.9h-2.4 2.4M57.2 400.9h-2.4 2.4M57.2 400.9h-2.4 2.4zM57.2 400.9h-2.4l3.8 4.6c-.6-1.5-1.1-3.1-1.4-4.6"/><path class="st28" d="M62 401.5zM57.2 400.9zM57.2 400.9c.3 1.5.8 3 1.4 4.6-.6-1.5-1.1-3.1-1.4-4.6"/><path class="st28" d="M57.2 400.9c.3 1.5.8 3 1.4 4.6-.6-1.5-1.1-3.1-1.4-4.6M57.2 400.9z"/><path class="st28" d="M57.2 400.9c.3 1.5.8 3 1.4 4.5-.6-1.4-1.1-3-1.4-4.5M62 401.5a40.311 40.311 0 0 1 0 0"/><path class="st28" d="M62 401.5c-1.6-.3-3.2-.5-4.7-.6.3 1.5.8 3 1.4 4.6h.7c1.4.1 2.8.3 4.2.6-.8-1.5-1.3-3-1.6-4.6"/><path class="st28" d="M63.4 406.1c-1.4-.3-2.8-.5-4.2-.6 1.5.1 2.8.3 4.2.6z"/><path class="st29" d="M62 401.5zM66.6 403c-1.5-.7-3.1-1.1-4.6-1.5h.2c1.4.4 2.9.8 4.4 1.5"/><path class="st29" d="M66.6 403c-1.5-.6-3-1.1-4.4-1.4 1.4.3 2.9.7 4.4 1.4M62 401.5a19.05 19.05 0 0 1 0 0M62 401.5zM62 401.5h-.1zM61.9 401.5c.3 1.6.8 3.1 1.5 4.6-.6-1.5-1.1-3-1.5-4.6M62 401.5h-.1z"/><path class="st29" d="M66.6 403c-1.5-.6-3-1.1-4.4-1.4H62c1.5.2 3.1.7 4.6 1.4M61.9 401.5c.3 1.6.8 3.1 1.5 4.6-.6-1.5-1.1-3-1.5-4.6"/><path class="st29" d="M66.6 403c-1.5-.7-3.1-1.1-4.6-1.5.3 1.6.8 3.1 1.5 4.6.2 0 .3.1.5.1.9.2 1.8.5 2.7.9.3.1.7.3 1 .4.3.1.6.3.9.4-.7-1.4-1.3-3-1.8-4.6-.1 0-.2-.2-.2-.3M68.5 408c-.3-.1-.6-.3-.9-.4.3.1.6.3.9.4M63.4 406.1z"/><path class="st29" d="M66.6 407.2c-.9-.3-1.7-.6-2.7-.9-.2 0-.3-.1-.5-.1.2 0 .3.1.5.1.9.2 1.8.5 2.7.9"/><path class="st30" d="M68.4 403.9c-.5-.3-.9-.5-1.4-.7-.1-.1-.3-.1-.5-.2.2.1.3.1.5.2.5.2 1 .4 1.4.7 1 .5 1.9 1.2 2.8 1.8-.8-.6-1.8-1.3-2.8-1.8"/><path class="st30" d="M68.4 403.9c-.5-.2-.9-.5-1.4-.7-.1-.1-.3-.1-.5-.2.2.1.3.1.5.2.5.2 1 .4 1.4.7 1 .5 1.9 1.2 2.8 1.8-.8-.6-1.8-1.3-2.8-1.8"/><path class="st30" d="M66.6 403c0 .2.1.3.1.5.4 1.6 1 3.1 1.8 4.6-.7-1.4-1.3-3-1.8-4.6 0-.2-.1-.4-.1-.5"/><path class="st30" d="M66.6 403c0 .2.1.3.1.5.4 1.6 1 3.1 1.8 4.6-.7-1.4-1.3-3-1.8-4.6 0-.2-.1-.4-.1-.5"/><path class="st30" d="M68.4 403.9c-.5-.2-.9-.5-1.4-.7-.2-.1-.3-.1-.5-.2.2.1.3.1.5.2.5.2 1 .4 1.4.7 1 .5 1.9 1.2 2.8 1.8-.8-.6-1.8-1.3-2.8-1.8"/><path class="st30" d="M66.6 403c0 .2.1.3.1.5.4 1.6 1 3.1 1.8 4.6-.7-1.4-1.3-3-1.8-4.6 0-.2-.1-.4-.1-.5"/><path class="st30" d="M68.4 403.9c-.4-.2-.9-.5-1.4-.7-.2-.1-.3-.1-.5-.2 0 .2.1.3.1.5.4 1.6 1 3.1 1.8 4.6.3.1.5.3.8.4 1.6.9 3.1 1.9 4.5 3-1-1.8-1.9-3.7-2.5-5.8-.8-.6-1.8-1.3-2.8-1.8"/><path class="st30" d="M69.3 408.5c-.3-.1-.5-.3-.8-.4.3.1.5.2.8.4 1.4.8 2.6 1.6 3.8 2.5.2.2.4.3.6.5-1.3-1.1-2.8-2.1-4.4-3"/><path class="st30" d="M73.1 411c.2.2.4.3.6.5-.2-.2-.4-.3-.6-.5"/><path class="st18" d="m107.6 439.7.6 1.5c.3 1 .6 2 .8 3.1h2.4l-3.8-4.6z"/><path class="st18" d="M108.1 441.2c.3 1 .6 2 .8 3.1-.2-1.1-.4-2.1-.8-3.1M107.6 439.7l.6 1.5-.6-1.5"/><path class="st18" d="M107.6 439.7c.6 1.5 1.1 3 1.4 4.6-.2-1-.5-2-.8-3.1l-.6-1.5"/><path class="st18" d="M107.6 439.7c.6 1.5 1.1 3 1.4 4.6-.4-1.6-.8-3.1-1.4-4.6"/><path class="st31" d="M107.6 439.7c-1.6-.1-3.2-.3-4.8-.6.4.8.7 1.6.9 2.4.2.7.4 1.5.6 2.2 1.6.3 3.2.5 4.7.6-.4-1.6-.8-3.1-1.4-4.6z"/><path class="st31" d="M103.6 441.4c.2.7.4 1.5.6 2.2-.1-.7-.3-1.4-.6-2.2M107.6 439.7c-1.6-.1-3.2-.3-4.8-.6 1.5.3 3.2.5 4.8.6M102.7 439"/><path class="st31" d="M102.7 439c.7 1.5 1.2 3.1 1.5 4.6-.2-.7-.4-1.5-.6-2.2-.2-.8-.5-1.6-.9-2.4M107.6 439.7c-1.6-.1-3.2-.3-4.8-.6 1.5.3 3.2.5 4.8.6zM102.7 439"/><path class="st31" d="M107.6 439.7c-1.6-.1-3.2-.3-4.8-.6 1.5.3 3.2.5 4.8.6"/><path class="st19" d="M100.5 442.6c-.3-.1-.6-.2-.9-.4.3.1.6.2.9.4"/><path class="st19" d="M102 443.1c-.8-.3-1.6-.6-2.5-.9.3.1.6.3.9.4.6.2 1.1.3 1.6.5"/><path class="st19" d="M102.7 439c-.2 0-.3-.1-.5-.1-1.6-.4-3.1-1-4.6-1.8.1.2.2.5.4.7.6 1.2 1.1 2.5 1.4 3.8 0 .2.1.3.1.5.8.4 1.6.7 2.5.9.7.2 1.5.4 2.2.6-.3-1.5-.8-3.1-1.5-4.6"/><path class="st19" d="M98 437.9c.6 1.2 1.1 2.5 1.4 3.8 0 .2.1.3.1.5 0-.2-.1-.3-.1-.5-.3-1.3-.8-2.6-1.4-3.8M102.7 439c-.2 0-.3-.1-.5-.1-1.6-.4-3.1-1-4.6-1.8 1.4.7 3 1.3 4.6 1.8.2 0 .4.1.5.1"/><path class="st19" d="M97.7 437.1c.1.2.2.5.4.7-.2-.2-.3-.4-.4-.7"/><path class="st19" d="M97.7 437.1c.4.7.7 1.4 1 2.1.3.8.6 1.6.8 2.4 0 .2.1.3.1.5 0-.2-.1-.3-.1-.5-.4-1.3-.8-2.6-1.4-3.8-.2-.2-.3-.4-.4-.7"/><path class="st19" d="M102.7 439c-.2 0-.3-.1-.5-.1-1-.3-2-.6-2.9-1-.6-.2-1.1-.5-1.7-.8 1.4.7 3 1.3 4.6 1.8.2 0 .4.1.5.1M97.7 437.1zM97.7 437.1"/><path class="st19" d="M97.7 437.1c.4.7.7 1.4 1 2.1-.3-.6-.7-1.4-1-2.1M97.7 437.1zM102.7 439c-.2 0-.3-.1-.5-.1-1-.3-2-.6-2.9-1 .9.4 1.9.7 2.9 1 .2 0 .4.1.5.1"/><path class="st32" d="M94.9 439.5c.9.7 1.8 1.3 2.8 1.8.4.2.9.5 1.4.7.2.1.3.1.5.2-.1-.1-.3-.1-.5-.2-.3-.1-.5-.3-.8-.4l-.6-.3c-.9-.6-1.9-1.2-2.8-1.8"/><path class="st32" d="M99.6 442.2c-.1-.1-.3-.1-.5-.2-.3-.1-.5-.3-.8-.4.3.1.5.3.8.4.2 0 .3.1.5.2M94.9 439.5"/><path class="st19" d="M98.7 439.3c.3.8.6 1.6.8 2.4 0 .2.1.3.1.5 0-.2-.1-.3-.1-.5-.3-.8-.5-1.6-.8-2.4M94.9 439.5c.9.7 1.8 1.3 2.8 1.8l.6.3-.6-.3c-.9-.6-1.9-1.2-2.8-1.8"/><path class="st19" d="M92.4 433.7c1 1.8 1.9 3.7 2.5 5.8.9.7 1.8 1.3 2.8 1.8l.6.3c.3.1.5.3.8.4.2.1.3.1.5.2 0-.2-.1-.3-.1-.5-.2-.8-.5-1.6-.8-2.4-.3-.7-.6-1.4-1-2.1-.3-.1-.6-.3-.8-.4-1.7-1-3.1-2-4.5-3.1"/><path class="st19" d="M92.4 433.7c.9 1.6 1.8 3.4 2.4 5.3 0 .2.1.3.1.5-.6-2.1-1.5-4.1-2.5-5.8M92.4 433.7c1.4 1.1 2.8 2.1 4.4 3 .3.1.5.3.8.4-.3-.1-.6-.3-.8-.4-1.6-.9-3-1.9-4.4-3M92.4 433.7z"/><path class="st19" d="M92.39999999999999 433.7c.9 1.6 1.8 3.4 2.4 5.3-.6-1.9-1.5-3.7-2.4-5.3zM92.4 433.7zM92.4 433.7c1.4 1.1 2.8 2.1 4.4 3 .3.1.5.3.8.4-.3-.1-.6-.3-.8-.4-1.6-.9-3-1.9-4.4-3M94.9 439.5zM94.8 439c0 .2.1.3.1.5 0-.2-.1-.3-.1-.5m0 0z"/><path class="st19" d="M92.4 433.7c1 1.8 1.9 3.7 2.5 5.8 0-.2-.1-.3-.1-.5-.6-1.9-1.5-3.7-2.4-5.3M92.4 433.7"/><path class="st33" d="M59.3 405.5h-.7.7M63.4 406.1c-1.6-.4-3.2-.6-4.8-.6 1.6 0 3.2.3 4.8.6"/><path class="st33" d="M63.4 406.1c-1.6-.4-3.2-.6-4.8-.6l3.7 4.4c1.3.2 2.6.5 3.8.8-1-1.3-1.8-2.7-2.5-4.2 0-.1-.1-.2-.2-.4"/><path class="st34" d="M67.6 407.6c-.3-.2-.7-.3-1-.4.3.1.7.2 1 .4M63.4 406.1zM63.4 406.1c.1.1.1.3.2.5.7 1.5 1.6 2.9 2.5 4.2-1-1.3-1.8-2.7-2.5-4.2 0-.2-.1-.3-.2-.5M63.4 406.1z"/><path class="st34" d="M68.5 408c-.3-.1-.6-.3-.9-.4-.3-.2-.7-.3-1-.4-.9-.3-1.7-.6-2.7-.9-.2 0-.3-.1-.5-.1.2 0 .3.1.5.1 1.6.4 3.2 1 4.6 1.7M63.4 406.1z"/><path class="st34" d="M63.4 406.1c.1.1.1.3.2.5.7 1.5 1.6 2.9 2.5 4.2-.1-.1-.1-.2-.2-.3-.9-1.2-1.7-2.5-2.3-3.9 0-.2-.1-.3-.2-.5"/><path class="st34" d="M65.9 410.5c.1.1.1.2.2.3 0-.1-.1-.2-.2-.3M63.4 406.1zM68.5 408c-1.4-.7-3-1.3-4.6-1.8-.2 0-.3-.1-.5-.1.2 0 .3.1.5.1 1.6.5 3.2 1.1 4.6 1.8M63.4 406.1c.1.1.1.3.2.4.7 1.4 1.4 2.7 2.3 3.9-.9-1.2-1.7-2.5-2.3-3.9 0-.1-.1-.2-.2-.4"/><path class="st34" d="M68.5 408c-1.4-.7-3-1.3-4.6-1.8-.2 0-.3-.1-.5-.1.1.2.1.3.2.5.7 1.4 1.4 2.7 2.3 3.9.1.1.2.2.2.3 2 .6 3.9 1.4 5.6 2.4.1 0 .1.1.2.1-.5-.6-1-1.3-1.5-2-.7-1-1.3-2-1.8-3 0-.1-.1-.2-.1-.3"/><path class="st34" d="M70.5 411.3c.5.7 1 1.3 1.5 2-.5-.6-1-1.3-1.5-2M68.6 408.3c.6 1.1 1.2 2.1 1.8 3-.3-.4-.5-.8-.8-1.2-.3-.6-.7-1.2-1-1.8z"/><path class="st34" d="M69.7 410.1c.3.4.5.8.8 1.2.5.7 1 1.3 1.5 2l-1.8-2.4c-.2-.3-.4-.6-.5-.8"/><path class="st34" d="M70.2 410.9c.6.9 1.2 1.7 1.8 2.4-.7-.8-1.3-1.6-1.8-2.4m-.1-.1c.1 0 .1 0 0 0 .1 0 0 0 0 0zM69.3 408.5c-.3-.1-.5-.3-.8-.4.3.1.5.2.8.4 1.4.8 2.6 1.6 3.8 2.5-1.2-.9-2.4-1.8-3.8-2.5"/><path class="st34" d="M68.5 408c0 .1.1.2.1.2.3.6.7 1.2 1 1.8-.1-.2-.3-.5-.4-.7-.2-.4-.5-.8-.7-1.3M70.2 410.8c0 .1 0 .1 0 0 0 .1 0 .1 0 0m-1-1.4c.1.2.3.5.4.7.2.3.3.5.5.7-.3-.4-.6-.9-.9-1.4z"/><path class="st34" d="M69.3 408.5c-.3-.1-.5-.3-.8-.4.3.1.5.2.8.4 1.6.9 3.1 1.9 4.4 3-.2-.2-.4-.3-.6-.5-1.2-.9-2.4-1.8-3.8-2.5"/><path class="st34" d="M68.5 408c.2.5.5.9.8 1.4-.3-.5-.6-.9-.8-1.4"/><path class="st34" d="M69.3 408.5c-.3-.1-.5-.3-.8-.4.2.5.5.9.8 1.4.3.5.6 1 .9 1.4.6.9 1.2 1.7 1.8 2.4.5.3 1 .6 1.4.8 1.7 1.1 3.2 2.2 4.5 3.3-1.4-1.7-2.9-3.6-4.2-5.9-1.3-1.1-2.8-2.1-4.4-3"/><path class="st34" d="M73.4 414.1c1.7 1.1 3.2 2.2 4.5 3.3-1.3-1.1-2.8-2.2-4.5-3.3"/><path class="st35" d="M103.8 435.2c-1.3-.2-2.6-.5-3.8-.8.5.7 1.1 1.5 1.5 2.3.4.6.7 1.2 1 1.9.1.1.1.3.2.5 1.6.4 3.2.6 4.8.6l-3.7-4.5z"/><path class="st35" d="M103.8 435.2c-1.3-.2-2.6-.5-3.8-.8 1.2.4 2.5.6 3.8.8zM101.5 436.7c.2.3.3.6.5.9.2.3.3.7.5 1 .1.1.1.3.2.4-.1-.1-.1-.3-.2-.5-.3-.6-.6-1.2-1-1.8"/><path class="st35" d="M102 437.6c.2.3.3.7.5 1 .1.1.1.3.2.5-.1-.1-.1-.3-.2-.4-.1-.5-.3-.8-.5-1.1M103.8 435.2c-1.3-.2-2.6-.5-3.8-.8 1.2.4 2.5.6 3.8.8zM100 434.4c.1.2.3.4.4.6.4.5.8 1.1 1.1 1.7-.4-.8-1-1.6-1.5-2.3"/><path class="st35" d="M100 434.4c.1.2.3.4.4.6-.1-.2-.3-.4-.4-.6zM100.4 435c.6.8 1.1 1.7 1.6 2.6-.2-.3-.3-.6-.5-.9-.3-.6-.7-1.2-1.1-1.7m0 0z"/><path class="st35" d="M100 434.4c1 1.3 1.8 2.7 2.5 4.2.1.1.1.3.2.5-.1-.1-.1-.3-.2-.5-.2-.3-.3-.7-.5-1-.5-.9-1-1.8-1.6-2.6-.1-.2-.3-.4-.4-.6M100 434.4"/><path class="st35" d="M103.8 435.2c-1.3-.2-2.6-.5-3.8-.8 1.2.4 2.5.6 3.8.8M99.4 437.9c-.6-.2-1.1-.5-1.7-.8.5.3 1.1.6 1.7.8M97.7 437.1"/><path class="st35" d="M100 434.4c-2-.6-3.9-1.5-5.6-2.4-.1 0-.1-.1-.2-.1.5.6 1 1.3 1.5 2 .7 1 1.4 2.1 1.9 3.2.6.3 1.1.5 1.7.8.9.4 1.9.7 2.9 1 .2 0 .3.1.5.1-.1-.1-.1-.3-.2-.5-.7-1.4-1.5-2.8-2.5-4.1"/><path class="st35" d="M100 434.4c-2-.6-3.9-1.5-5.6-2.4-.1 0-.1-.1-.2-.1.1 0 .1.1.2.1 1.7.9 3.6 1.8 5.6 2.4M95.8 433.9c.6.8 1.1 1.6 1.6 2.5.1.2.2.5.4.7-.7-1.1-1.4-2.2-2-3.2M97.3 436.5c.1.2.2.5.4.7-.1-.3-.3-.5-.4-.7"/><path class="st35" d="M100 434.4c-2-.6-3.9-1.5-5.6-2.4-.1 0-.1-.1-.2-.1.1 0 .1.1.2.1 1.7.9 3.6 1.8 5.6 2.4M94.2 431.9c.5.6 1 1.3 1.5 2-.4-.7-1-1.4-1.5-2M94.2 431.9z"/><path class="st35" d="M94.2 431.9c1.1 1.4 2.2 2.9 3.1 4.6-.5-.9-1-1.7-1.6-2.5-.4-.8-1-1.5-1.5-2.1z"/><path class="st35" d="M94.2 431.9c1.3 1.6 2.5 3.3 3.5 5.3-.1-.2-.2-.5-.4-.7-.9-1.7-2-3.2-3.1-4.6M94.2 431.9zM100 434.4c-2-.6-3.9-1.5-5.6-2.4-.1 0-.1-.1-.2-.1.1 0 .1.1.2.1 1.7.9 3.6 1.8 5.6 2.4M92.4 433.7c1.4 1.1 2.8 2.1 4.4 3 .3.1.5.3.8.4-.3-.1-.6-.3-.8-.4-1.6-.9-3-1.9-4.4-3M92.4 433.7z"/><path class="st35" d="M88.3 427.7c1.3 1.6 2.7 3.5 4 5.6.1.1.1.2.2.3 1.4 1.1 2.8 2.1 4.4 3 .3.1.5.3.8.4-1-1.9-2.2-3.7-3.5-5.3-2.3-1.1-4.3-2.6-5.9-4M92.3 433.4c.1.1.1.2.2.3-.1-.1-.2-.2-.2-.3"/><path class="st35" d="M88.3 427.7c1.7 1.4 3.7 2.9 5.9 4.1-2.3-1.2-4.3-2.7-5.9-4.1M88.3 427.7c.7.9 1.5 1.8 2.2 2.8.6.9 1.2 1.8 1.8 2.8-1.3-2.1-2.7-4-4-5.6z"/><path class="st35" d="M90.5 430.6c.7 1 1.3 2 2 3.1-.1-.1-.1-.2-.2-.3-.6-1-1.2-1.9-1.8-2.8M88.3 427.7zM88.3 427.7c1.7 1.4 3.7 2.9 5.9 4.1-2.3-1.2-4.3-2.7-5.9-4.1M88.3 427.7c.7.9 1.5 1.8 2.2 2.8-.8-.9-1.5-1.9-2.2-2.8"/><path class="st35" d="M88.3 427.7c1.4 1.7 2.9 3.7 4.1 5.9-.6-1.1-1.3-2.1-2-3.1-.7-.9-1.4-1.9-2.1-2.8zM88.3 427.7zM88.3 427.7z"/><path class="st35" d="M88.3 427.7c1.7 1.4 3.7 2.9 5.9 4.1-2.3-1.2-4.3-2.7-5.9-4.1M88.3 427.7z"/><path class="st36" d="M66.2 410.8c-1.2-.4-2.5-.7-3.8-.8 1.3.1 2.5.4 3.8.8"/><path class="st36" d="M66.2 410.8c-1.2-.4-2.5-.7-3.8-.8.8.1 1.7.3 2.5.5.4 0 .8.1 1.3.3"/><path class="st36" d="M66.2 410.8c-.4-.1-.9-.3-1.3-.4.4.1.8.2 1.3.4M64.8 410.4c-.8-.2-1.6-.4-2.5-.5.9.2 1.7.3 2.5.5"/><path class="st36" d="M66.2 410.8c-.4-.1-.9-.3-1.3-.4-.8-.2-1.6-.4-2.5-.5l3.5 4.2c1.6.3 3.2.7 4.7 1.2-.9-.8-1.8-1.6-2.7-2.6-.6-.5-1.2-1.2-1.7-1.9"/><path class="st36" d="M67.9 412.8c.8.9 1.7 1.8 2.7 2.6-.2-.2-.4-.4-.7-.6-.7-.6-1.4-1.3-2-2M71.8 413.2c-1.7-1-3.6-1.8-5.6-2.4 2 .6 3.9 1.4 5.6 2.4.1 0 .1.1.2.1-.1 0-.1-.1-.2-.1M66.2 410.8"/><path class="st36" d="M66.2 410.8c.5.7 1.1 1.4 1.7 2 .6.7 1.3 1.4 2 2-1.2-1.1-2.4-2.3-3.4-3.7-.2-.1-.2-.2-.3-.3"/><path class="st36" d="M66.4 411.1c1.1 1.4 2.2 2.6 3.4 3.7.2.2.4.4.7.6-1.4-1.3-2.8-2.7-4.1-4.3M71.8 413.2c-1.7-1-3.6-1.8-5.6-2.4 1.9.6 3.7 1.4 5.4 2.3.1 0 .1 0 .2.1.1 0 .1.1.2.1-.1 0-.1-.1-.2-.1"/><path class="st36" d="M71.6 413.1c-1.7-.9-3.5-1.7-5.4-2.3 1.9.6 3.7 1.4 5.4 2.3"/><path class="st36" d="M66.2 410.8c.1.1.2.2.2.3-.1-.1-.1-.2-.2-.3M71.8 413.2c-.1 0-.1-.1-.2-.1.1 0 .1 0 .2.1.1 0 .1.1.2.1-.1 0-.1-.1-.2-.1"/><path class="st36" d="M71.8 413.2c-.1 0-.1-.1-.2-.1-1.7-.9-3.5-1.7-5.4-2.3.1.1.2.2.2.3 1.3 1.6 2.7 3 4.1 4.3 2.2.8 4.2 1.7 5.9 2.7.2.1.5.3.7.4-1.7-1.4-3.5-3.1-5.1-5.1-.1-.1-.1-.2-.2-.2"/><path class="st36" d="M72 413.3c1.7 2 3.5 3.7 5.1 5.1-.8-.6-1.6-1.4-2.4-2.2-.9-.9-1.8-1.8-2.7-2.9"/><path class="st36" d="M74.7 416.2c.8.8 1.6 1.5 2.4 2.2-.8-.6-1.6-1.4-2.4-2.2M72 413.3c.9 1.1 1.8 2.1 2.7 3-.9-1-1.8-1.9-2.7-3"/><path class="st36" d="M72 413.3c.9 1.1 1.8 2.1 2.7 3 .8.8 1.6 1.5 2.4 2.2-1.7-1.5-3.5-3.2-5.1-5.2M72 413.3c.5.3 1 .6 1.4.8-.5-.3-.9-.5-1.4-.8"/><path class="st36" d="M72 413.3c2.3 1.3 4.3 2.7 5.9 4.1-1.3-1.1-2.8-2.2-4.5-3.3-.5-.3-.9-.5-1.4-.8"/><path class="st36" d="M72 413.3c2.3 1.3 4.3 2.7 5.9 4.1-1.6-1.4-3.7-2.8-5.9-4.1"/><path class="st36" d="M72 413.3c1.7 2 3.5 3.7 5.1 5.1 1.8 1.1 3.3 2.1 4.4 2.9h.1c-.7-.6-1.5-1.4-2.4-2.4-.4-.4-.8-.9-1.3-1.4-1.6-1.5-3.7-2.9-5.9-4.2"/><path class="st36" d="M79.2 418.9c.9 1 1.8 1.8 2.4 2.4-.3-.3-.7-.7-1.2-1.1-.4-.4-.8-.9-1.2-1.3"/><path class="st36" d="M80.4 420.2c.4.4.8.8 1.2 1.1l-.3-.3c-.3-.2-.5-.5-.9-.8M81.3 421l.3.3z"/><path class="st37" d="M100.3 431c-1.6-.3-3.2-.7-4.7-1.2 1.5 1.3 3 2.8 4.3 4.6 1.2.4 2.5.7 3.8.8l-3.4-4.2z"/><path class="st37" d="M100.3 431c-1.6-.3-3.2-.7-4.7-1.2 1.5.5 3.1 1 4.7 1.2"/><path class="st37" d="M100.3 431c-1.6-.3-3.2-.7-4.7-1.2 1.5.5 3.1 1 4.7 1.2"/><path class="st37" d="M95.6 429.8c.2.1.3.3.5.4.4.4.8.8 1.3 1.2.9.9 1.8 1.9 2.6 2.9-1.3-1.6-2.8-3.2-4.4-4.5"/><path class="st37" d="M97.4 431.5c.9.9 1.8 1.9 2.6 2.9-.8-1.1-1.7-2-2.6-2.9m0-.1c0 .1 0 0 0 0zM96.10000000000001 430.2c.1.1.3.2.4.4.3.3.6.5.9.8-.4-.4-.8-.8-1.3-1.2zm0 0z"/><path class="st37" d="M96.6 430.6c1.2 1.1 2.4 2.4 3.4 3.8-.8-1-1.7-2-2.6-2.9-.3-.3-.6-.6-.8-.9M95.6 429.8z"/><path class="st38" d="M95.6 429.8c.2.1.3.3.5.4-.1-.1-.3-.3-.5-.4zM95.6 429.8z"/><path class="st38" d="M95.6 429.8c.3.3.6.5.9.8-.1-.1-.3-.2-.4-.4-.1-.1-.3-.3-.5-.4"/><path class="st38" d="M95.6 429.8c-2.2-.8-4.2-1.7-5.9-2.7-.2-.1-.5-.3-.7-.4 1.7 1.4 3.5 3.1 5.1 5.1.1 0 .1.1.2.1 1.7 1 3.6 1.8 5.6 2.4-1-1.4-2.2-2.6-3.4-3.8-.2-.2-.5-.4-.9-.7M95.6 429.8z"/><path class="st38" d="M95.6 429.8c-2.2-.8-4.2-1.7-5.9-2.7-.2-.1-.5-.3-.7-.4.2.1.5.3.7.4 1.8 1 3.8 2 5.9 2.7z"/><path class="st38" d="M95.6 429.8c-2.2-.8-4.2-1.7-5.9-2.7-.2-.1-.5-.3-.7-.4.2.1.5.3.7.4 1.8 1 3.8 2 5.9 2.7M89.1 426.8c1.7 1.4 3.5 3.1 5.1 5.1-1.7-2-3.5-3.7-5.1-5.1M89.1 426.8z"/><path class="st38" d="M89.1 426.8c1.5 1.3 3.2 2.8 4.7 4.6.1.2.3.3.4.5-1.7-2-3.5-3.7-5.1-5.1zM93.8 431.4c.1.2.3.3.4.5-.1-.2-.3-.3-.4-.5m0 0zM89.1 426.8zM89.1 426.79999999999995c1.5 1.3 3.2 2.8 4.7 4.6-1.6-1.8-3.2-3.4-4.7-4.6z"/><path class="st38" d="M84.6 423.9c.6.6 1.4 1.3 2.3 2.3.5.5.9 1 1.4 1.6 1.6 1.4 3.7 2.9 5.9 4.1-.1-.2-.3-.3-.4-.5-1.5-1.8-3.2-3.4-4.7-4.6-1.8-1.1-3.3-2.1-4.4-2.9h-.1zM89.1 426.8z"/><path class="st38" d="M84.7 423.9c1 .8 2.5 1.8 4.4 2.9-1.9-1.1-3.4-2.1-4.4-2.9zM86.8 426.1c.5.5.9 1 1.4 1.6-.4-.5-.9-1.1-1.4-1.6M89.1 426.8z"/><path class="st38" d="M84.7 423.9c1 .8 2.5 1.8 4.4 2.9-1.9-1.1-3.4-2.1-4.4-2.9M84.6 423.9c.6.6 1.4 1.3 2.3 2.3-.9-1-1.7-1.7-2.3-2.3z"/><path class="st38" d="m84.6 423.9.2.2c.9.9 2.2 2.1 3.5 3.7-.5-.6-1-1.1-1.4-1.6-.9-1-1.7-1.7-2.3-2.3z"/><path class="st38" d="M84.8 424.1c.9.9 2.2 2.1 3.5 3.7-1.4-1.6-2.6-2.9-3.5-3.7"/><path class="st39" d="M68.7 417.5c.2 0 .5.1.7.1-.5-.3-.9-.6-1.4-.8l.7.7z"/><path class="st39" d="M68.1 416.8c.5.3.9.6 1.4.8-.5-.2-.9-.5-1.4-.8"/><path class="st39" d="M68.1 416.8c.5.3.9.6 1.4.8-.5-.2-.9-.5-1.4-.8z"/><path class="st39" d="M68.1 416.8c.5.3.9.6 1.4.9-.5-.3-.9-.6-1.4-.9M70.5 415.4c-1.5-.5-3.1-1-4.7-1.2 1.7.2 3.2.6 4.7 1.2"/><path class="st39" d="M70.5 415.4c-1.5-.5-3.1-.9-4.7-1.2 1.7.2 3.2.6 4.7 1.2"/><path class="st39" d="M70.5 415.4c-1.5-.5-3.1-.9-4.7-1.2 1.7.2 3.2.6 4.7 1.2M70.5 415.4"/><path class="st39" d="M70.5 415.4c-1.5-.5-3.1-.9-4.7-1.2l2.2 2.7c.5.3.9.6 1.4.8 2.6.4 5 1.1 7 1.9-1.8-1.2-3.9-2.5-5.9-4.2"/><path class="st39" d="M70.5 415.4c2 1.7 4 3.1 5.9 4.1-1.8-1.1-3.9-2.4-5.9-4.1M70.5 415.4z"/><path class="st39" d="M70.5 415.4c2 1.7 4.1 3.1 5.9 4.1-.8-.4-1.6-.9-2.4-1.5-1.1-.7-2.3-1.6-3.5-2.6"/><path class="st39" d="m74.1 418 2.4 1.5c-.8-.4-1.6-.9-2.4-1.5M70.5 415.4zM70.5 415.4zM76.4 418c-1.7-1-3.7-1.9-5.9-2.7 1.2.4 2.4.9 3.5 1.4.9.5 1.7.9 2.4 1.3.2.1.5.3.7.4-.2-.1-.5-.3-.7-.4M77.1 418.4z"/><path class="st39" d="M74 416.8c-1.1-.5-2.3-1-3.5-1.4 1.3.4 2.4.9 3.5 1.4M77.1 418.4zM70.5 415.4zM76.4 418c.2.1.5.3.7.4-.2-.1-.5-.3-.7-.4"/><path class="st39" d="M76.4 418c-.7-.4-1.5-.8-2.4-1.2-1.1-.5-2.3-1-3.5-1.4 2.2.7 4.2 1.7 5.9 2.6.2.1.5.3.7.4-.2-.1-.5-.3-.7-.4M77.1 418.4z"/><path class="st39" d="M76.4 418c-1.7-1-3.7-1.9-5.9-2.7 1.2 1 2.4 1.9 3.6 2.7l2.4 1.5c1.7.6 3.1 1.3 4.2 1.8h.3c-1.1-.7-2.4-1.7-3.9-2.9-.2-.1-.5-.3-.7-.4"/><path class="st39" d="M77.1 418.4c1.5 1.2 2.8 2.2 3.9 2.9-1.1-.7-2.4-1.7-3.9-2.9zM77.1 418.4z"/><path class="st39" d="M77.1 418.4c1.5 1.2 2.8 2.2 3.9 2.9-1.1-.7-2.4-1.7-3.9-2.9M77.1 418.4z"/><path class="st39" d="M77.1 418.4c1.5 1.2 2.8 2.2 3.9 2.9-1.1-.7-2.4-1.7-3.9-2.9zM77.1 418.4c1.8 1.1 3.3 2.1 4.4 2.9-1.1-.8-2.6-1.8-4.4-2.9"/><path class="st39" d="M77.1 418.4c1.8 1.1 3.3 2.1 4.4 2.9-1.1-.8-2.6-1.8-4.4-2.9"/><path class="st39" d="M77.1 418.4c1.8 1.1 3.3 2.1 4.4 2.9-1.1-.8-2.6-1.8-4.4-2.9"/><path class="st39" d="M77.1 418.4c1.5 1.2 2.8 2.2 3.9 2.9h.5c-1.1-.8-2.6-1.8-4.4-2.9"/><path class="st40" d="M97.5 427.6c-.3 0-.5-.1-.7-.1.5.3.9.6 1.4.9l-.7-.8z"/><path class="st40" d="M97.5 427.6c-.3 0-.5-.1-.7-.1.2.1.4.1.7.1z"/><path class="st40" d="M97.5 427.6c-.3 0-.5-.1-.7-.1.2.1.4.1.7.1z"/><path d="M97.5 427.6c-.3 0-.5-.1-.7-.1.2.1.4.1.7.1z" style="fill:#11a2ba"/><path class="st42" d="M100.3 431c-1.6-.3-3.2-.7-4.7-1.2 1.5.5 3.1 1 4.7 1.2M96.7 427.5c.5.3.9.6 1.4.9-.5-.3-.9-.6-1.4-.9M96.7 427.5z"/><path class="st42" d="M96.7 427.5c.5.3.9.6 1.4.9-.5-.3-.9-.6-1.4-.9M96.7 427.5z"/><path class="st42" d="M96.7 427.5c.5.3.9.6 1.4.8-.5-.2-.9-.5-1.4-.8"/><path class="st42" d="M96.7 427.5c-2.6-.4-5-1.1-7-1.9 1.9 1.1 3.9 2.5 5.9 4.1 1.5.5 3.1.9 4.7 1.2l-2.2-2.7c-.5-.1-.9-.4-1.4-.7M96.7 427.5z"/><path class="st42" d="M96.7 427.5c-2.6-.4-5-1.1-7-1.9 2.1.8 4.4 1.5 7 1.9M96.7 427.5z"/><path class="st42" d="M96.7 427.5c-2.6-.4-5-1.1-7-1.9 2.1.8 4.4 1.5 7 1.9M89.7 425.7c1.9 1.1 3.9 2.5 5.9 4.1-1.9-1.7-4-3.1-5.9-4.1"/><path class="st42" d="M96.7 427.5c-2.6-.4-5-1.1-7-1.9 2.1.8 4.4 1.5 7 1.9M95.6 429.8c-2.2-.8-4.2-1.7-5.9-2.7-.2-.1-.5-.3-.7-.4.2.1.5.3.7.4 1.8 1 3.8 2 5.9 2.7M89.1 426.8zM89.7 425.7c1.9 1.1 3.9 2.5 5.9 4.1-1.9-1.7-4-3.1-5.9-4.1"/><path class="st42" d="M89.7 425.7c1.9 1.1 3.9 2.5 5.9 4.1-1.9-1.7-4-3.1-5.9-4.1"/><path class="st42" d="M89.7 425.7c-1.7-.6-3.1-1.2-4.2-1.8h-.3c1 .7 2.4 1.7 3.9 2.9.2.1.5.3.7.4 1.7 1 3.7 1.9 5.9 2.7-2-1.8-4.1-3.2-6-4.2M89.7 425.7z"/><path class="st42" d="M89.7 425.7c-1.7-.6-3.1-1.3-4.2-1.8 1.1.5 2.5 1.2 4.2 1.8zM89.7 425.7zM89.7 425.7z"/><path class="st42" d="M89.7 425.7c-.2-.1-.3-.1-.5-.2H89c-1.4-.5-2.6-1.1-3.6-1.6 1.2.5 2.6 1.2 4.3 1.8M85.2 423.9c.6.4 1.4 1 2.2 1.6.5.4 1.1.8 1.7 1.3-1.5-1.3-2.8-2.2-3.9-2.9z"/><path class="st42" d="M87.4 425.5c.5.4 1.1.8 1.7 1.3-.6-.5-1.1-.9-1.7-1.3M89.7 425.7zM89.7 425.7zM89.2 425.5c-.1-.1-.1-.1 0 0-.1-.1-.1-.1 0 0m.5.2c-.2-.1-.3-.1-.5-.2.2 0 .3.1.5.2z"/><path class="st42" d="M84.7 423.9c1 .8 2.5 1.8 4.4 2.9-1.9-1.1-3.4-2.1-4.4-2.9zM85.2 423.9c.6.4 1.4 1 2.2 1.6-.8-.7-1.6-1.2-2.2-1.6z"/><path class="st42" d="M85.2 423.9c1.1.7 2.4 1.7 3.9 2.9-.6-.5-1.1-.9-1.7-1.3-.8-.7-1.6-1.2-2.2-1.6z"/><path class="st42" d="M84.7 423.9c1 .8 2.5 1.8 4.4 2.9-1.5-1.2-2.8-2.2-3.9-2.9h-.5z"/><path class="st43" d="M69.5 417.6c-.2 0-.5-.1-.7-.1.2.1.4.1.7.1M69.5 417.6zM69.5 417.6z"/><path class="st44" d="M69.5 417.6c-.2 0-.5-.1-.7-.1.2.1.4.1.7.1zM69.5 417.6z"/><path class="st44" d="M69.5 417.6c-.2 0-.5-.1-.7-.1.2.1.4.1.7.1"/><path class="st44" d="M76 420.7c-1.8-.6-3.7-1.5-5.7-2.6-.3-.2-.6-.3-.8-.5-.2 0-.5-.1-.7-.1l2.2 2.6c1.7.1 3.5.3 5 .6"/><path class="st44" d="M76 420.7c-1.8-.6-3.7-1.5-5.7-2.6-.3-.2-.6-.3-.8-.5.3.2.6.3.8.5 2 1.1 3.9 2 5.7 2.6"/><path class="st44" d="M76 420.7c-1.8-.6-3.7-1.5-5.7-2.6-.3-.2-.6-.3-.8-.5.3.2.6.3.8.5 2 1.1 3.9 2 5.7 2.6z"/><path class="st44" d="M76 420.7c-1.8-.6-3.7-1.5-5.7-2.6-.3-.2-.6-.3-.8-.5.3.2.6.3.8.5 2 1.1 3.9 2 5.7 2.6"/><path class="st43" d="M76.5 419.5c-2-.7-4.4-1.4-7-1.9 2.5.5 4.9 1.2 7 1.9M76.5 419.5zM76.5 419.5zM76.5 419.5z"/><path class="st43" d="M76.5 419.5c-2-.7-4.4-1.4-7-1.9 2.5.5 4.9 1.2 7 1.9M76.5 419.5z"/><path class="st43" d="M76.5 419.5c-2-.7-4.4-1.4-7-1.9 2.5.5 4.9 1.2 7 1.9zM76.5 419.5z"/><path class="st43" d="M79.9 421.3c-.8-.4-1.8-.9-2.9-1.5l-.6-.3c-2-.7-4.4-1.4-7-1.9.3.2.6.3.8.5 2 1.1 3.9 1.9 5.7 2.6 1 .2 2 .4 2.8.6h1.2z"/><path class="st43" d="M79.9 421.3c-.8-.4-1.8-.9-2.9-1.5l-.6-.3.6.3c1.1.6 2.1 1.1 2.9 1.5zM76.5 419.5z"/><path class="st43" d="M79.9 421.3c-.8-.4-1.8-.9-2.9-1.5l-.6-.3.6.3c1.1.6 2.1 1.1 2.9 1.5M76.5 419.5z"/><path class="st43" d="M79.9 421.3c-.8-.4-1.8-.9-2.9-1.4l-.6-.3.6.3c1.1.5 2.1 1 2.9 1.4zM80.7 421.3c-1.1-.5-2.5-1.2-4.2-1.8 1.6.6 3.1 1.3 4.2 1.8z"/><path class="st43" d="M80.7 421.3c-1.1-.5-2.5-1.2-4.2-1.8 1.6.6 3.1 1.3 4.2 1.8z"/><path class="st43" d="M80.7 421.3c-1.1-.5-2.5-1.2-4.2-1.8 1.6.6 3.1 1.3 4.2 1.8z"/><path class="st43" d="M80.7 421.3c-1.1-.5-2.5-1.2-4.2-1.8l.6.3c1 .6 2 1.1 2.9 1.4h.7z"/><path class="st45" d="M95.3 425c-1.8-.1-3.6-.3-5.1-.6 1.8.6 3.7 1.5 5.7 2.6.3.2.6.3.8.5.2 0 .5.1.7.1l-2.1-2.6z"/><path class="st45" d="M95.3 425c-1.8-.1-3.6-.3-5.1-.6 1.5.3 3.2.6 5.1.6z"/><path class="st45" d="M95.3 425c-1.8-.1-3.6-.3-5.1-.6 1.5.3 3.2.6 5.1.6"/><path class="st45" d="M95.3 425c-1.8-.1-3.6-.3-5.1-.6 1.5.3 3.2.6 5.1.6M95.9 427c-2-1.1-3.9-1.9-5.7-2.6 1.7.7 3.7 1.5 5.7 2.6.3.2.6.3.8.5-.3-.1-.6-.3-.8-.5M90.2 424.5z"/><path class="st45" d="M95.9 427c-2-1.1-3.9-1.9-5.7-2.6 1.7.7 3.7 1.5 5.7 2.6.3.2.6.3.8.5-.3-.1-.6-.3-.8-.5M90.2 424.5"/><path class="st45" d="M95.9 427c-2-1.1-3.9-1.9-5.7-2.6 1.7.7 3.7 1.5 5.7 2.6.3.2.6.3.8.5-.3-.1-.6-.3-.8-.5"/><path class="st45" d="M95.9 427c-2-1.1-3.9-1.9-5.7-2.6-1-.2-2-.4-2.8-.6h-1.1c.6.3 1.2.6 1.9.9.3.2.7.3 1 .5l.6.3c2 .7 4.4 1.4 7 1.9-.4 0-.7-.2-.9-.4M90.2 424.5"/><path class="st45" d="M90.2 424.5c-1-.2-2-.4-2.8-.6.8.2 1.7.4 2.8.6"/><path class="st45" d="M90.2 424.5c-1-.2-2-.4-2.8-.6.8.2 1.7.4 2.8.6M89.1 425.3c-.3-.2-.7-.4-1-.5.4.2.7.3 1 .5l.6.3-.6-.3M90.2 424.5z"/><path class="st45" d="M90.2 424.5c-1-.2-2-.4-2.8-.6.8.2 1.7.4 2.8.6M89.1 425.4c-1.4-.5-2.6-1.1-3.6-1.6 1 .5 2.2 1.1 3.6 1.6m.1.1zM88.1 424.8c-.7-.3-1.3-.7-1.9-.9.6.2 1.3.5 1.9.9"/><path class="st45" d="M89.1 425.3c-.3-.2-.7-.4-1-.5-.7-.3-1.3-.7-1.9-.9.9.4 1.9.8 2.9 1.4l.6.3-.6-.3"/><path class="st45" d="M89.1 425.3c-1-.6-2-1.1-2.9-1.5.9.5 1.9.9 2.9 1.5l.6.3-.6-.3"/><path class="st45" d="M89.1 425.3c-1-.6-2-1.1-2.9-1.5h-.8c1 .5 2.2 1 3.6 1.6h.2c.2.1.3.1.5.2l-.6-.3"/><path class="st46" d="M72.7 421.3c-.3-.1-.7-.2-1-.3l.2.3h.8z"/><path class="st46" d="M72.7 421.3c-.3-.1-.7-.2-1-.3.3.1.6.2 1 .3z"/><path class="st46" d="M72.7 421.3c-.3-.1-.7-.2-1-.3.3.1.6.2 1 .3"/><path class="st46" d="M72.7 421.3c-.3-.1-.7-.2-1-.3.3.1.6.2 1 .3M76 420.7c-1.6-.3-3.3-.5-5.1-.6 1.8.1 3.6.3 5.1.6M76 420.7zM76 420.7z"/><path class="st46" d="M76 420.7c-1.6-.3-3.3-.5-5.1-.6 1.8.1 3.6.3 5.1.6M76 420.7z"/><path class="st46" d="M76 420.7c-1.6-.3-3.3-.5-5.1-.6 1.8.1 3.6.3 5.1.6"/><path class="st46" d="M77.8 421.3c-.6-.2-1.1-.4-1.7-.6-1.6-.3-3.3-.5-5.1-.6l.7.9c.3.1.7.2 1 .3h5.1z"/><path class="st46" d="M77.8 421.3c-.6-.2-1.1-.4-1.7-.6.5.2 1.1.4 1.7.6z"/><path class="st46" d="M77.8 421.3c-.6-.2-1.1-.4-1.7-.6.5.2 1.1.4 1.7.6zM76 420.7z"/><path class="st46" d="M77.8 421.3c-.6-.2-1.1-.4-1.7-.6.5.2 1.1.4 1.7.6z"/><path class="st46" d="M78.8 421.3c-.8-.2-1.8-.4-2.8-.6 1 .2 2 .4 2.8.6z"/><path class="st46" d="M78.8 421.3c-.8-.2-1.8-.4-2.8-.6 1 .2 2 .4 2.8.6z"/><path class="st46" d="M78.8 421.3c-.8-.2-1.8-.4-2.8-.6 1 .2 2 .4 2.8.6z"/><path class="st46" d="M78.8 421.3c-.8-.2-1.8-.4-2.8-.6.6.2 1.2.4 1.7.6h1.1z"/><path class="st47" d="M93.5 423.9c.3.1.7.2 1 .3l-.2-.3h-.8z"/><path class="st47" d="M94.5 424.2c-.3-.1-.7-.2-1-.3.3.1.7.2 1 .3z"/><path class="st47" d="M94.5 424.2c-.3-.1-.7-.2-1-.3.3.1.7.2 1 .3z"/><path class="st47" d="M94.5 424.2c-.3-.1-.7-.2-1-.3.3.1.7.2 1 .3"/><path class="st47" d="M94.5 424.2c-.3-.1-.7-.2-1-.3h-5.1c.6.2 1.1.4 1.7.6 1.6.3 3.3.5 5.1.6l-.7-.9z"/><path class="st47" d="M90.2 424.5c-.6-.2-1.2-.4-1.7-.6.5.1 1 .3 1.7.6"/><path class="st47" d="M90.2 424.5c-.6-.2-1.2-.4-1.7-.6.5.1 1 .3 1.7.6"/><path class="st47" d="M90.2 424.5c-.6-.2-1.2-.4-1.7-.6.5.1 1 .3 1.7.6z"/><path class="st47" d="M90.2 424.5c-.6-.2-1.2-.4-1.7-.6h-1.1c.8.2 1.7.4 2.8.6"/><path style="fill:#e22a8b" d="M51.5 448.5v-.4l-.3.4z"/><path d="m71.6 424.2 1.2-.3h-.9l-.3.3z" style="fill:#ed1375"/><path style="fill:#2fb14c" d="M114.7 396.7v.3l.2-.3z"/><path class="st52" d="m114.7 396.7-.1.3.1-.3z"/><path class="st53" d="m94.6 421-1.2.3h.9l.3-.3zM94.6 421l-1.2.3 1.2-.3zM94.6 421l-1.2.3 1.2-.3M94.6 421l-1.2.3 1.2-.3z"/><path d="M51.5 448.1v.3-.3z" style="fill:#e22a8d"/><path class="st55" d="M51.5 448.1v.3-.3zM51.5 448.1v.3-.3zM57.3 444.3h-2.6l-3.2 3.8v.3h5.1c.1-1.3.4-2.7.7-4.1"/><path class="st55" d="M57.3 444.3h-2.6c.8.1 1.7 0 2.6 0"/><path class="st55" d="M57.3 444.3h-2.6c.8.1 1.7 0 2.6 0"/><path class="st55" d="M57.3 444.3h-2.6c.8.1 1.7 0 2.6 0"/><path class="st56" d="M58.7 439.7h-.1l-3.9 4.6h2.6c.3-1.5.8-3 1.4-4.6M58.7 439.7h-.1.1zM58.7 439.7h-.1.1zM58.7 439.7h-.1.1z"/><path style="fill:#e42587" d="M58.6 439.7h.1l.1-.2z"/><path class="st58" d="M69.5 427.6c-.3 0-.5.1-.8.1l-.7.8 1.5-.9"/><path class="st58" d="M69.5 427.6c-.3 0-.5.1-.8.1.2-.1.5-.1.8-.1"/><path class="st58" d="M69.5 427.6c-.3 0-.5.1-.8.1.2-.1.5-.1.8-.1"/><path class="st58" d="M69.5 427.6c-.3 0-.5.1-.8.1.2-.1.5-.1.8-.1"/><path class="st58" d="M76 424.5c-1.6.3-3.3.5-5.2.6l-2.2 2.6c.3 0 .5-.1.8-.1 2.3-1.4 4.6-2.4 6.6-3.1"/><path class="st58" d="M76 424.5c-1.6.3-3.3.5-5.2.6 1.9-.1 3.7-.3 5.2-.6z"/><path class="st58" d="M76 424.5c-1.6.3-3.3.5-5.2.6 1.9-.1 3.7-.3 5.2-.6"/><path class="st58" d="M76 424.5c-1.6.3-3.3.5-5.2.6 1.9-.1 3.7-.3 5.2-.6zM72.8 423.9l-1.2.3 1.2-.3M72.8 423.9l-1.2.3 1.2-.3zM72.8 423.9l-1.2.3 1.2-.3z"/><path class="st58" d="m72.8 423.9-1.2.3-.7.9c1.9-.1 3.6-.3 5.2-.6l1.8-.6h-5.1z"/><path class="st59" d="M109.6 396.7c-.1 1.3-.3 2.7-.6 4.1h2.6l3.2-3.8v-.3h-5.2z"/><path class="st59" d="M109.6 396.7c-.1 1.3-.3 2.7-.6 4.1.2-1.4.4-2.8.6-4.1"/><path d="M109.6 396.7c-.1 1.3-.3 2.7-.6 4.1.2-1.4.4-2.8.6-4.1z" style="fill:#20b04b"/><path class="st52" d="M109.6 396.7c-.1 1.3-.3 2.7-.6 4.1.2-1.4.4-2.8.6-4.1"/><path class="st61" d="M111.5 400.8h-2.6 2.6zM111.5 400.8h-2.6 2.6M111.5 400.8h-2.6 2.6M111.5 400.8h-2.6c-.3 1.5-.8 3.1-1.4 4.6h.1l3.9-4.6z"/><path class="st61" d="M108.9 400.9c-.3 1.5-.8 3.1-1.4 4.6.6-1.6 1.1-3.1 1.4-4.6"/><path class="st61" d="M108.9 400.9c-.3 1.5-.8 3.1-1.4 4.6.6-1.6 1.1-3.1 1.4-4.6"/><path class="st61" d="M108.9 400.9c-.3 1.5-.8 3.1-1.4 4.6.6-1.6 1.1-3.1 1.4-4.6"/><path class="st62" d="M107.6 405.4h-.1.1zM107.6 405.4h-.1.1zM107.6 405.4h-.1.1zM107.6 405.4h-.1l-.1.3zM107.5 405.4l-.1.3zM107.5 405.4l-.1.3zM107.5 405.4l-.1.3z"/><path class="st63" d="m98.2 416.7-1.5.9c.3 0 .5-.1.8-.1l.7-.8zM98.2 416.7l-1.5.9 1.5-.9zM98.2 416.7l-1.5.9 1.5-.9zM98.2 416.7l-1.5.9 1.5-.9z"/><path class="st63" d="M97.5 417.5c-.3 0-.5.1-.8.1.3 0 .5-.1.8-.1zM96.7 417.6zM96.7 417.6z"/><path class="st63" d="M97.5 417.5c-.3 0-.5.1-.8.1.3 0 .5-.1.8-.1z"/><path class="st63" d="M97.5 417.5c-.3 0-.5.1-.8.1.3 0 .5-.1.8-.1"/><path class="st63" d="M97.5 417.5c-.3 0-.5.1-.8.1-2.2 1.3-4.5 2.3-6.5 3.1 1.6-.3 3.3-.5 5.2-.6l2.1-2.6zM96.7 417.6z"/><path class="st63" d="M96.7 417.6c-2.2 1.3-4.5 2.3-6.5 3.1 2-.8 4.3-1.8 6.5-3.1M96.7 417.6zM96.7 417.6z"/><path class="st63" d="M96.7 417.6c-2.2 1.3-4.5 2.3-6.6 3.1 2.1-.8 4.4-1.8 6.6-3.1M96.7 417.6zM96.7 417.6z"/><path class="st63" d="M96.7 417.6c-2.2 1.3-4.5 2.3-6.5 3.1 2-.8 4.3-1.8 6.5-3.1"/><path class="st63" d="M95.3 420.1c-1.9.1-3.6.3-5.2.6 1.6-.3 3.4-.5 5.2-.6M90.2 420.7zM90.1 420.7z"/><path class="st63" d="M95.3 420.1c-1.9.1-3.6.3-5.2.6 1.6-.3 3.4-.5 5.2-.6"/><path class="st63" d="M95.3 420.1c-1.9.1-3.6.3-5.2.6 1.6-.3 3.4-.5 5.2-.6z"/><path class="st63" d="M95.3 420.1c-1.9.1-3.6.3-5.2.6l-1.8.6h5l1.2-.3.8-.9zM90.1 420.7zM90.1 420.7l-1.8.6 1.8-.6M90.1 420.7zM90.1 420.7l-1.8.6 1.8-.6M90.1 420.7zM90.1 420.7zM90.1 420.7l-1.8.6 1.8-.6"/><path d="M57.3 444.3c-.3 1.4-.5 2.8-.6 4.1 0-1.3.3-2.7.6-4.1" style="fill:#cd2c8f"/><path class="st65" d="M57.3 444.3c-.3 1.4-.5 2.8-.6 4.1 0-1.3.3-2.7.6-4.1"/><path class="st65" d="M57.3 444.3c-.3 1.4-.5 2.8-.6 4.1 0-1.3.3-2.7.6-4.1M57.3 444.3z"/><path class="st65" d="M62 443.7c-1.6.3-3.2.5-4.7.6-.3 1.4-.5 2.8-.6 4.1h4.8c0-1.5.2-3.1.5-4.7"/><path class="st65" d="M62 443.7c-1.6.3-3.2.5-4.7.6 1.5-.1 3.1-.2 4.7-.6"/><path class="st65" d="M62 443.7c-1.6.3-3.2.5-4.7.6 1.5-.1 3.1-.2 4.7-.6z"/><path class="st65" d="M62 443.7c-1.6.3-3.2.5-4.8.6 1.6-.1 3.2-.2 4.8-.6"/><path class="st66" d="M58.7 439.7c-.6 1.5-1.1 3.1-1.4 4.6.3-1.5.8-3 1.4-4.6M58.7 439.7"/><path class="st66" d="M58.7 439.7c-.6 1.5-1.1 3.1-1.4 4.6.3-1.5.8-3 1.4-4.6M58.7 439.7"/><path class="st66" d="M58.7 439.7c-.6 1.5-1.1 3.1-1.4 4.6.3-1.5.8-3 1.4-4.6M58.7 439.7"/><path class="st66" d="M63.5 439.1c-1.6.4-3.2.6-4.8.7-.6 1.5-1.1 3.1-1.4 4.6 1.6-.1 3.2-.3 4.8-.6.2-1.6.7-3.2 1.4-4.7"/><path class="st66" d="M63.5 439.1c-1.6.4-3.2.6-4.8.7 1.6-.1 3.2-.3 4.8-.7"/><path class="st66" d="M63.5 439.1c-1.6.4-3.2.6-4.8.7 1.6-.1 3.2-.3 4.8-.7"/><path class="st66" d="M63.5 439.1c-1.6.4-3.2.6-4.8.7 1.6-.1 3.2-.3 4.8-.7"/><path class="st67" d="m58.8 439.5-.1.2.1-.2zM58.8 439.5l-.1.2.1-.2zM58.8 439.5l-.1.2.1-.2zM66.2 434.4c-1.3.4-2.6.7-3.9.9l-3.5 4.2-.1.2c1.6-.1 3.2-.3 4.8-.7.1-.2.1-.3.2-.5.7-1.4 1.6-2.8 2.5-4.1"/><path class="st67" d="M66.2 434.4c-1.3.4-2.6.7-3.9.9 1.3-.2 2.7-.5 3.9-.9"/><path class="st67" d="M66.2 434.4c-1.3.4-2.6.7-3.9.9 1.3-.2 2.7-.5 3.9-.9"/><path class="st67" d="M66.2 434.4c-1.3.4-2.6.7-3.9.9 1.3-.2 2.7-.5 3.9-.9z"/><path class="st67" d="M70.5 429.8c-1.5.5-3.1 1-4.8 1.3l-3.5 4.2c1.4-.2 2.7-.5 3.9-.9 1.4-1.7 2.9-3.2 4.4-4.6"/><path class="st67" d="M70.5 429.8c-1.5.5-3.1 1-4.7 1.3 1.7-.3 3.2-.7 4.7-1.3"/><path class="st67" d="M70.5 429.8c-1.5.5-3.1 1-4.8 1.3 1.8-.3 3.3-.7 4.8-1.3z"/><path class="st67" d="M70.5 429.8c-1.5.5-3.1 1-4.8 1.3 1.8-.3 3.3-.7 4.8-1.3"/><path class="st68" d="m69.5 427.6-1.5.9 1.5-.9M69.5 427.6zM69.5 427.6zM69.5 427.6l-1.5.9 1.5-.9M69.5 427.6zM69.5 427.6zM69.5 427.6l-1.5.9 1.5-.9M76.5 425.7c-2 .7-4.4 1.4-7 1.9l-1.5.9-2.2 2.6c1.7-.3 3.2-.7 4.7-1.3 2-1.7 4.1-3 6-4.1"/><path class="st68" d="M76.5 425.7c-2 .7-4.4 1.4-7 1.9 2.6-.5 4.9-1.2 7-1.9z"/><path class="st68" d="M76.5 425.7c-2 .7-4.4 1.4-7 1.9 2.6-.5 4.9-1.2 7-1.9M69.5 427.6zM69.5 427.6z"/><path class="st68" d="M76.5 425.7c-2 .7-4.4 1.4-7 1.9 2.6-.5 4.9-1.2 7-1.9M76 424.5a34.998 34.998 0 0 1 0 0M76 424.5zM76 424.5a34.998 34.998 0 0 1 0 0M76 424.5zM76 424.5a34.998 34.998 0 0 1 0 0M76 424.5z"/><path class="st68" d="M78.9 423.9c-.9.2-1.8.4-2.9.6-2 .7-4.3 1.7-6.6 3.1 2.6-.4 5-1.1 7-1.9 1.3-.7 2.5-1.3 3.5-1.8h-1z"/><path class="st68" d="M78.9 423.9c-.9.2-1.8.4-2.9.6 1.1-.2 2-.4 2.9-.6z"/><path class="st68" d="M78.9 423.9c-.9.2-1.8.4-2.8.6 1-.2 1.9-.4 2.8-.6zM76 424.5z"/><path class="st68" d="M78.9 423.9c-.8.2-1.8.4-2.8.6 1-.2 1.9-.4 2.8-.6zM77.8 423.9l-1.8.6c.7-.2 1.3-.4 1.8-.6z"/><path class="st68" d="m77.8 423.9-1.8.6c.7-.2 1.3-.4 1.8-.6z"/><path class="st68" d="m77.8 423.9-1.8.6c.7-.2 1.3-.4 1.8-.6z"/><path class="st68" d="m77.8 423.9-1.8.6c1-.2 2-.4 2.8-.6h-1z"/><path class="st69" d="M104.7 396.7c-.1 1.6-.2 3.1-.6 4.7 1.6-.3 3.2-.5 4.7-.6.3-1.4.5-2.8.6-4.1h-4.7z"/><path class="st69" d="M104.7 396.7c-.1 1.6-.2 3.1-.6 4.7.4-1.5.6-3.1.6-4.7z"/><path class="st69" d="M104.7 396.7c-.1 1.6-.2 3.1-.6 4.7.4-1.5.6-3.1.6-4.7"/><path d="M104.7 396.7c-.1 1.6-.2 3.1-.6 4.7.4-1.5.6-3.1.6-4.7" style="fill:#3eb549"/><path class="st71" d="M108.9 400.9c-1.6.1-3.2.3-4.7.6 1.6-.4 3.1-.6 4.7-.6"/><path class="st71" d="M108.9 400.9c-1.6.1-3.2.3-4.7.6 1.6-.4 3.1-.6 4.7-.6"/><path class="st71" d="M108.9 400.9c-1.6.1-3.2.3-4.7.6 1.6-.4 3.2-.6 4.7-.6"/><path class="st71" d="M108.9 400.9c-1.6.1-3.2.3-4.7.6-.3 1.6-.8 3.1-1.5 4.6 1.6-.4 3.2-.6 4.8-.7.6-1.5 1.1-3 1.4-4.5M104.2 401.4"/><path class="st71" d="M104.2 401.4c-.3 1.6-.8 3.1-1.5 4.6.7-1.4 1.1-3 1.5-4.6M104.2 401.4"/><path class="st71" d="M104.2 401.4c-.3 1.6-.8 3.1-1.5 4.6.7-1.4 1.1-3 1.5-4.6M104.2 401.4z"/><path class="st71" d="M104.2 401.4c-.3 1.6-.8 3.1-1.5 4.6.7-1.4 1.1-3 1.5-4.6"/><path class="st72" d="M107.5 405.4c-1.6.1-3.2.3-4.8.7 1.6-.4 3.2-.6 4.8-.7M102.7 406.1zM102.7 406.1z"/><path class="st72" d="M107.5 405.4c-1.6.1-3.2.3-4.8.7 1.6-.4 3.2-.6 4.8-.7M102.7 406.1z"/><path class="st72" d="M107.5 405.4c-1.6.1-3.2.3-4.8.7 1.6-.4 3.2-.6 4.8-.7"/><path class="st72" d="M107.5 405.4c-1.6.1-3.2.3-4.8.7-.1.2-.1.3-.2.5-.7 1.5-1.6 2.9-2.5 4.2 1.3-.4 2.6-.7 3.9-.9l3.5-4.2.1-.3z"/><path class="st72" d="M102.7 406.1c-.1.1-.1.3-.2.5-.7 1.5-1.6 2.9-2.5 4.2 1-1.3 1.8-2.7 2.5-4.2.1-.2.1-.4.2-.5"/><path class="st72" d="M102.7 406.1c-.1.1-.1.3-.2.5-.7 1.5-1.6 2.9-2.5 4.2 1-1.3 1.8-2.7 2.5-4.2.1-.2.1-.4.2-.5M102.7 406.1"/><path class="st72" d="M102.7 406.1c-.1.1-.1.3-.2.5-.7 1.5-1.6 2.9-2.5 4.2 1-1.3 1.8-2.7 2.5-4.2.1-.2.1-.4.2-.5"/><path class="st73" d="M103.9 409.9c-1.4.2-2.7.5-3.9.9 1.2-.5 2.5-.8 3.9-.9M100 410.7z"/><path class="st73" d="M103.9 409.9c-1.4.2-2.7.5-3.9.9 1.2-.5 2.5-.8 3.9-.9M100 410.7z"/><path class="st73" d="M103.9 409.9c-1.4.2-2.7.5-3.9.9 1.2-.5 2.5-.8 3.9-.9z"/><path class="st73" d="M103.9 409.9c-1.3.2-2.7.5-3.9.9-1.3 1.7-2.8 3.3-4.3 4.6 1.5-.5 3.1-1 4.8-1.3l3.4-4.2zM100 410.7z"/><path class="st73" d="M100 410.7c-1.3 1.7-2.8 3.3-4.3 4.6 1.5-1.3 3-2.8 4.3-4.6"/><path class="st73" d="M100 410.7c-1.3 1.7-2.8 3.3-4.3 4.6 1.5-1.3 3-2.8 4.3-4.6M100 410.7z"/><path class="st73" d="M100 410.7c-1.3 1.7-2.8 3.3-4.3 4.6 1.5-1.3 3-2.8 4.3-4.6"/><path class="st74" d="M100.4 414.1c-1.7.3-3.2.7-4.8 1.3 1.5-.6 3.1-1.1 4.8-1.3zM95.6 415.3z"/><path class="st74" d="M100.4 414.1c-1.7.3-3.2.7-4.8 1.3 1.5-.6 3.1-1.1 4.8-1.3M95.6 415.3"/><path class="st74" d="M100.4 414.1c-1.7.3-3.2.7-4.8 1.3 1.5-.6 3.1-1.1 4.8-1.3z"/><path class="st74" d="M100.4 414.1c-1.7.3-3.2.7-4.7 1.3-2 1.7-4 3.1-5.9 4.2 2-.7 4.4-1.4 7-1.9l1.5-.9 2.1-2.7zM95.6 415.3z"/><path class="st74" d="M95.6 415.3c-2 1.7-4 3.1-5.9 4.2 1.9-1.1 3.9-2.5 5.9-4.2M95.6 415.3zM95.6 415.3z"/><path class="st74" d="M95.6 415.3c-2 1.7-4 3.1-5.9 4.2 1.9-1.1 4-2.5 5.9-4.2"/><path class="st74" d="M95.6 415.3c-2 1.7-4 3.1-5.9 4.2 1.9-1.1 3.9-2.5 5.9-4.2M96.7 417.6a32.309 32.309 0 0 1 0 0zM89.7 419.5zM96.7 417.6a32.309 32.309 0 0 1 0 0M96.7 417.6a32.309 32.309 0 0 1 0 0zM96.7 417.6c-2.6.4-5 1.1-7 1.9-1.3.7-2.5 1.3-3.5 1.8h1.1c.9-.2 1.8-.4 2.9-.6 2-.8 4.3-1.8 6.5-3.1M89.7 419.5zM89.7 419.5a126.425 126.425 0 0 0 0 0M89.7 419.5zM89.7 419.5a126.425 126.425 0 0 0 0 0M89.7 419.5zM89.7 419.5zM89.7 419.5a126.425 126.425 0 0 0 0 0"/><path class="st74" d="M90.1 420.7a144.202 144.202 0 0 1 0 0M90.1 420.7a144.202 144.202 0 0 1 0 0zM90.1 420.7a144.202 144.202 0 0 1 0 0M90.1 420.7c-1 .2-2 .4-2.9.6h1.1l1.8-.6"/><path class="st75" d="M66 447.1c-.2.1-.4.1-.5.2h-.2c-1.3.5-2.5.8-3.8 1.1H66v-1.3"/><path class="st75" d="M65.3 447.3c-1.3.5-2.5.8-3.8 1.1 1.2-.2 2.5-.6 3.8-1.1m0 0zm.2 0c-.1 0-.1 0 0 0-.1 0-.1 0 0 0z"/><path class="st75" d="M66 447.1c-1.5.6-3 1.1-4.5 1.4 1.3-.3 2.5-.6 3.8-1.1h.2c.1-.2.3-.3.5-.3"/><path d="M66 447.1c-1.5.6-3 1.1-4.5 1.4 1.5-.4 3-.8 4.5-1.4" style="fill:#af3192"/><path class="st77" d="M62 443.7zM62 443.7zM62 443.7zM62 443.7a40.311 40.311 0 0 1 0 0M62 443.7zM62 443.7zM62 443.7"/><path class="st77" d="M66.6 442.2c-1.5.7-3.1 1.2-4.6 1.5-.3 1.6-.5 3.2-.6 4.7h.1c1.5-.3 3-.8 4.5-1.4.1-1.5.3-3.2.6-4.8"/><path class="st77" d="M66.6 442.2c-1.5.7-3.1 1.1-4.6 1.5 1.6-.3 3.1-.8 4.6-1.5z"/><path class="st77" d="M66.6 442.2c-1.5.7-3.1 1.1-4.6 1.5 1.6-.3 3.1-.8 4.6-1.5"/><path class="st77" d="M66.6 442.2c-1.5.7-3.1 1.1-4.6 1.5 1.6-.3 3.1-.8 4.6-1.5"/><path class="st78" d="M63.5 439.1c-.7 1.5-1.1 3.1-1.5 4.6.2-1.2.6-2.3 1-3.4.2-.5.3-.8.5-1.2"/><path class="st78" d="M63 440.3zm0-.1zm.5-1.1c-.2.4-.3.8-.5 1.2.1-.3.3-.7.4-1 .1-.1.1-.2.1-.2zM63 440.3c-.4 1.1-.7 2.3-1 3.4.3-1.1.6-2.3 1-3.4m0 0zm0-.1z"/><path class="st78" d="M63.4 439.2c-.1.3-.3.7-.4 1-.4 1.1-.7 2.3-1 3.4.3-1.4.8-2.9 1.4-4.4m0 0z"/><path class="st78" d="M68.5 437.2c-1.4.7-2.9 1.3-4.6 1.8-.2 0-.3.1-.5.1 0 0 0 .1-.1.1-.6 1.5-1.1 3-1.4 4.5 1.6-.3 3.1-.8 4.6-1.5 0-.2.1-.3.1-.5.6-1.6 1.2-3.1 1.9-4.5"/><path class="st78" d="M68.5 437.2c-1.4.7-2.9 1.3-4.6 1.8-.2 0-.3.1-.5.1.2 0 .3-.1.5-.1 1.7-.5 3.2-1.1 4.6-1.8z"/><path class="st78" d="M68.5 437.2c-1.4.7-2.9 1.3-4.6 1.8-.2 0-.3.1-.5.1.2 0 .3-.1.5-.1 1.7-.5 3.2-1.1 4.6-1.8"/><path class="st78" d="M68.5 437.2c-1.4.7-2.9 1.3-4.6 1.8-.2 0-.3.1-.5.1.2 0 .3-.1.5-.1 1.7-.5 3.2-1.1 4.6-1.8z"/><path class="st78" d="M66.2 434.4c-1 1.3-1.8 2.7-2.5 4.2-.1.2-.1.3-.2.5.1-.2.1-.3.2-.5s.2-.3.2-.5c.7-1.3 1.5-2.5 2.3-3.7M66.2 434.4z"/><path class="st78" d="M63.9 438.1c-.1.2-.2.3-.2.5-.1.2-.1.3-.2.5.1-.2.1-.3.2-.5.1-.1.1-.3.2-.5M66.2 434.4z"/><path class="st78" d="M63.9 438.1c-.1.2-.2.3-.2.5-.1.2-.1.3-.2.5.1-.2.1-.3.2-.5.1-.1.1-.3.2-.5M66.2 434.4zM66.2 434.4c-.9 1.1-1.6 2.4-2.3 3.7.7-1.3 1.5-2.5 2.3-3.7M66.2 434.4zM63.9 438.1"/><path class="st78" d="M66.2 434.4c-.9 1.1-1.6 2.4-2.3 3.7.7-1.3 1.5-2.5 2.3-3.7M66.2 434.4z"/><path class="st78" d="M72 431.9c-1.8 1-3.7 1.9-5.8 2.5-.9 1.1-1.6 2.4-2.3 3.7-.1.2-.2.3-.2.5-.1.2-.1.3-.2.5.2 0 .3-.1.5-.1 1.6-.4 3.1-1 4.6-1.8.9-2 2.1-3.7 3.4-5.3"/><path class="st78" d="M72 431.9c-1.8 1-3.7 1.9-5.8 2.5 2.1-.6 4-1.5 5.8-2.5"/><path class="st78" d="M72 431.9c-1.8 1-3.7 1.9-5.8 2.5 2.1-.6 4-1.5 5.8-2.5"/><path class="st78" d="M72 431.9c-1.8 1-3.7 1.9-5.8 2.5 2.1-.6 4-1.5 5.8-2.5"/><path class="st78" d="M70.5 429.8c-1.5 1.3-3 2.9-4.3 4.6 1.3-1.7 2.8-3.2 4.3-4.6M70.5 429.8zM70.5 429.8z"/><path class="st78" d="M70.5 429.8c-1.5 1.3-3 2.9-4.3 4.6 1.3-1.7 2.8-3.2 4.3-4.6M70.5 429.8z"/><path class="st78" d="M70.5 429.8c-1.5 1.3-3 2.9-4.3 4.6 1.3-1.7 2.8-3.2 4.3-4.6M70.5 429.8z"/><path class="st78" d="M77.1 426.8c-1.9 1.1-4.1 2.2-6.5 3.1-1.5 1.3-3 2.9-4.3 4.6 2.1-.6 4-1.5 5.8-2.5 1.6-2.1 3.3-3.8 5-5.2"/><path class="st78" d="M77.1 426.8c-1.9 1.1-4.1 2.2-6.6 3.1 2.5-.9 4.7-2 6.6-3.1"/><path class="st78" d="M77.1 426.8c-1.9 1.1-4.1 2.2-6.6 3.1 2.5-.9 4.7-2 6.6-3.1"/><path class="st78" d="M77.1 426.8c-1.9 1.1-4.1 2.2-6.6 3.1 2.5-.9 4.7-2 6.6-3.1z"/><path class="st79" d="M76.5 425.7c-1.9 1.1-3.9 2.5-5.9 4.2 1.9-1.8 4-3.1 5.9-4.2M76.5 425.7zM76.5 425.7zM76.5 425.7z"/><path class="st79" d="M76.5 425.7c-1.9 1.1-3.9 2.5-5.9 4.2 1.9-1.8 4-3.1 5.9-4.2M76.5 425.7z"/><path class="st79" d="M76.5 425.7c-1.9 1.1-3.9 2.5-5.9 4.2 1.9-1.8 4-3.1 5.9-4.2"/><path class="st79" d="M80.7 423.9c-1.1.5-2.5 1.2-4.2 1.8-1.9 1.1-3.9 2.5-5.9 4.2 2.5-.9 4.7-2 6.6-3.1 1.5-1.2 2.8-2.2 3.9-2.9h-.4z"/><path class="st79" d="M80.7 423.9c-1.1.5-2.5 1.2-4.2 1.8 1.7-.6 3.1-1.3 4.2-1.8zM76.5 425.7z"/><path class="st79" d="M80.7 423.9c-1.1.5-2.5 1.2-4.2 1.8 1.6-.6 3.1-1.3 4.2-1.8zM76.5 425.7zM76.5 425.7z"/><path class="st79" d="M80.7 423.9c-1.1.5-2.5 1.2-4.2 1.8 1.6-.6 3.1-1.3 4.2-1.8zM79.9 423.9c-1 .5-2.2 1.1-3.5 1.8 1.3-.8 2.5-1.4 3.5-1.8z"/><path class="st79" d="M79.9 423.9c-1 .5-2.2 1.1-3.5 1.8 1.3-.8 2.5-1.4 3.5-1.8z"/><path class="st79" d="M79.9 423.9c-1 .5-2.2 1.1-3.5 1.8 1.3-.8 2.5-1.4 3.5-1.8z"/><path class="st79" d="M79.9 423.9c-1 .5-2.2 1.1-3.5 1.8 1.7-.6 3.1-1.3 4.2-1.8h-.7z"/><path class="st80" d="M100.2 396.7v1.4c1.5-.6 3-1.1 4.5-1.4h-4.5zM100.2 396.7v1.4-1.4M100.2 396.7v1.4-1.4M100.2 396.7v1.4-1.4z"/><path class="st81" d="M104.7 396.7c-1.5.3-3 .8-4.5 1.4 1.5-.6 3-1.1 4.5-1.4"/><path class="st81" d="M104.7 396.7c-1.5.3-3 .8-4.5 1.4 1.5-.6 3-1.1 4.5-1.4M100.2 398.1"/><path class="st81" d="M104.7 396.7c-1.5.3-3 .8-4.5 1.4 1.5-.6 3-1.1 4.5-1.4M100.2 398.1z"/><path class="st81" d="M104.7 396.7c-1.5.3-3 .8-4.5 1.4-.1 1.6-.3 3.2-.6 4.8 1.5-.7 3.1-1.2 4.6-1.5.3-1.5.5-3.1.5-4.7zM100.2 398.1z"/><path class="st81" d="M100.2 398.1c0 1.6-.2 3.2-.6 4.8.3-1.6.5-3.2.6-4.8"/><path class="st82" d="M100.2 398.1zM100.2 398.1zM100.2 398.1c-.1 1.6-.2 3.2-.6 4.8.3-1.6.5-3.2.6-4.8"/><path class="st81" d="M104.2 401.4c-1.6.3-3.1.8-4.6 1.5 1.5-.6 3-1.1 4.6-1.5"/><path class="st81" d="M104.2 401.4c-1.6.3-3.1.8-4.6 1.5 1.5-.6 3-1.1 4.6-1.5"/><path class="st81" d="M104.2 401.4c-1.6.3-3.1.8-4.6 1.5 1.5-.6 3-1.1 4.6-1.5z"/><path class="st81" d="M104.2 401.4c-1.6.3-3.1.8-4.6 1.5 0 .2-.1.3-.1.5-.4 1.6-1 3.1-1.8 4.6 1.4-.7 3-1.3 4.6-1.8.2 0 .3-.1.5-.1.6-1.5 1-3.1 1.4-4.7"/><path class="st81" d="M99.5 402.9c0 .2-.1.3-.1.5-.4 1.6-1 3.1-1.8 4.6.7-1.4 1.3-3 1.8-4.6.1-.1.1-.3.1-.5"/><path class="st81" d="M99.5 402.9c0 .2-.1.3-.1.5-.4 1.6-1 3.1-1.8 4.6.7-1.4 1.3-3 1.8-4.6.1-.1.1-.3.1-.5M99.5 402.9z"/><path class="st81" d="M99.5 402.9c0 .2-.1.3-.1.5-.4 1.6-1 3.1-1.8 4.6.7-1.4 1.3-3 1.8-4.6 0-.1.1-.3.1-.5M102.7 406.1c-.2 0-.3.1-.5.1-1.6.4-3.1 1-4.6 1.8 1.4-.7 3-1.3 4.6-1.8.2 0 .3-.1.5-.1M97.6 408zM97.6 408z"/><path class="st81" d="M102.7 406.1c-.2 0-.3.1-.5.1-1.6.4-3.1 1-4.6 1.8 1.4-.7 3-1.3 4.6-1.8.2 0 .3-.1.5-.1M97.6 408"/><path class="st81" d="M102.7 406.1c-.2 0-.3.1-.5.1-1.6.4-3.1 1-4.6 1.8 1.4-.7 3-1.3 4.6-1.8.2 0 .3-.1.5-.1"/><path class="st81" d="M102.7 406.1c-.2 0-.3.1-.5.1-1.6.4-3.1 1-4.6 1.8-1 1.9-2.2 3.7-3.5 5.3 1.8-1 3.7-1.9 5.8-2.5 1-1.3 1.8-2.7 2.5-4.2.2-.2.2-.4.3-.5"/><path class="st81" d="M97.6 408c-1 1.9-2.2 3.7-3.5 5.3 1.4-1.6 2.6-3.4 3.5-5.3M97.6 408"/><path class="st81" d="M97.6 408c-1 1.9-2.2 3.7-3.5 5.3 1.4-1.6 2.6-3.4 3.5-5.3M97.6 408zM97.6 408"/><path class="st81" d="M97.6 408c-1 1.9-2.2 3.7-3.5 5.3 1.4-1.6 2.6-3.4 3.5-5.3M100 410.7c-2.1.6-4 1.5-5.8 2.5 1.7-1 3.7-1.8 5.8-2.5M94.2 413.2v.1zM94.2 413.3"/><path class="st81" d="M100 410.7c-2.1.6-4 1.5-5.8 2.5 1.7-1 3.7-1.8 5.8-2.5"/><path class="st81" d="M100 410.7c-2.1.6-4 1.5-5.8 2.5 1.7-1 3.7-1.8 5.8-2.5z"/><path class="st81" d="M100 410.7c-2.1.6-4 1.5-5.8 2.5-1.6 2-3.4 3.7-5.1 5.1 1.9-1.1 4.1-2.2 6.6-3.1 1.5-1.2 3-2.7 4.3-4.5"/><path class="st81" d="M94.2 413.3c-1.6 2-3.4 3.7-5.1 5.1 1.6-1.4 3.4-3.1 5.1-5.1"/><path class="st81" d="M94.2 413.3c-1.6 2-3.4 3.7-5.1 5.1 1.6-1.4 3.4-3.1 5.1-5.1M94.2 413.3z"/><path class="st81" d="M94.2 413.3c-1.6 2-3.5 3.7-5.1 5.1 1.6-1.4 3.4-3.1 5.1-5.1"/><path class="st83" d="M95.6 415.3c-2.5.9-4.7 2-6.6 3.1 1.9-1.1 4.2-2.2 6.6-3.1M89.1 418.4zM89.1 418.4z"/><path class="st83" d="M95.6 415.3c-2.5.9-4.7 2-6.5 3.1 1.8-1.1 4.1-2.2 6.5-3.1M89.1 418.4"/><path class="st83" d="M95.6 415.3c-2.5.9-4.7 2-6.5 3.1 1.8-1.1 4.1-2.2 6.5-3.1M89.1 418.4z"/><path class="st83" d="M95.6 415.3c-2.5.9-4.7 2-6.6 3.1-1.5 1.2-2.8 2.2-3.9 2.9h.3c1.1-.5 2.5-1.2 4.2-1.8 2-1.1 4-2.5 6-4.2"/><path class="st83" d="M89.1 418.4c-1.5 1.2-2.8 2.2-3.9 2.9 1-.7 2.4-1.7 3.9-2.9M89.1 418.4zM89.1 418.4z"/><path class="st83" d="M89.1 418.4c-1.5 1.2-2.8 2.2-3.9 2.9 1-.7 2.4-1.7 3.9-2.9M89.1 418.4zM89.1 418.4z"/><path class="st83" d="M89.1 418.4c-1.5 1.2-2.8 2.2-3.9 2.9 1-.7 2.4-1.7 3.9-2.9M89.7 419.5c-1.7.6-3.1 1.3-4.2 1.8 1.1-.6 2.5-1.2 4.2-1.8z"/><path class="st83" d="M89.7 419.5c-1.7.6-3.1 1.3-4.2 1.8 1.1-.6 2.5-1.2 4.2-1.8"/><path class="st83" d="M89.7 419.5c-1.7.6-3.1 1.3-4.2 1.8 1.1-.6 2.5-1.2 4.2-1.8z"/><path class="st83" d="M89.7 419.5c-1.7.6-3.1 1.3-4.2 1.8h.7c1-.5 2.2-1.1 3.5-1.8"/><path class="st84" d="M66 447.1v1.4-1.4M66 447.1v1.4-1.4M66 447.1v1.4-1.4M70.3 444.8c-1.4.9-2.8 1.7-4.3 2.3v1.4h4.4c-.1-1.2-.2-2.5-.1-3.7"/><path class="st84" d="M70.3 444.8c-1.4.9-2.8 1.7-4.3 2.3 1.5-.6 2.9-1.4 4.3-2.3"/><path class="st84" d="M70.3 444.8c-1.4.9-2.8 1.7-4.3 2.3 1.5-.6 2.9-1.4 4.3-2.3zM66 447.1z"/><path class="st84" d="M70.3 444.8c-1.4.9-2.8 1.7-4.3 2.3 1.5-.6 2.9-1.4 4.3-2.3"/><path class="st85" d="M70.3 444.8c-.1 1.2 0 2.5.1 3.7-.1-1.2-.2-2.5-.1-3.7M70.3 444.8zM70.3 444.8"/><path class="st86" d="M66.6 442.2c-.4 1.6-.6 3.2-.6 4.8.1-1.5.3-3.2.6-4.8M66.6 442.2zM66.6 442.2"/><path class="st86" d="M66.6 442.2c-.4 1.6-.6 3.2-.6 4.8.1-1.5.3-3.2.6-4.8M66.6 442.2zM66.6 442.2"/><path class="st84" d="M66.6 442.2c-.4 1.6-.6 3.2-.6 4.8.1-1.5.3-3.2.6-4.8"/><path class="st84" d="M71.3 439.5c-1.3 1-2.7 1.8-4.2 2.5-.2.1-.3.1-.5.2-.4 1.6-.6 3.2-.6 4.8 1.5-.6 2.9-1.3 4.3-2.3v-.5c.1-1.6.4-3.1.9-4.5 0 0 .1-.1.1-.2"/><path class="st84" d="M71.3 439.5c-1.3 1-2.7 1.8-4.2 2.5-.2.1-.3.1-.5.2.2-.1.3-.1.5-.2 1.5-.7 2.9-1.5 4.2-2.5zM66.6 442.2"/><path class="st84" d="M71.3 439.5c-1.3 1-2.7 1.8-4.2 2.5-.2.1-.3.1-.5.2.2-.1.3-.1.5-.2 1.5-.7 2.9-1.5 4.2-2.5M66.6 442.2z"/><path class="st84" d="M71.3 439.5c-1.3 1-2.7 1.8-4.2 2.5-.2.1-.3.1-.5.2.2-.1.3-.1.5-.2 1.5-.7 2.9-1.5 4.2-2.5M71.2 439.8c-.4 1.5-.7 3-.9 4.5v.5-.5c.2-1.6.5-3.1.9-4.5"/><path class="st86" d="M68.5 437.2c-.7 1.4-1.3 3-1.8 4.6 0 .2-.1.3-.1.5 0-.2.1-.3.1-.5.2-.9.5-1.8.9-2.6.3-.7.6-1.4.9-2M68.5 437.2zM68.5 437.2z"/><path class="st86" d="M67.6 439.1c-.3.8-.6 1.7-.9 2.6 0 .2-.1.3-.1.5 0-.2.1-.3.1-.5.3-.8.6-1.7.9-2.6M68.5 437.2zM68.5 437.2c-.3.6-.6 1.3-.9 2 .3-.7.6-1.4.9-2M68.5 437.2zM68.5 437.2z"/><path class="st86" d="M68.5 437.2c-.3.6-.6 1.3-.9 2-.3.8-.6 1.7-.9 2.6 0 .2-.1.3-.1.5 0-.2.1-.3.1-.5.5-1.7 1.1-3.2 1.8-4.6"/><path class="st86" d="M73.8 433.7c-1.6 1.3-3.3 2.5-5.3 3.5-.7 1.4-1.3 3-1.8 4.6 0 .2-.1.3-.1.5.2-.1.3-.1.5-.2 1.5-.7 2.9-1.6 4.2-2.5.6-2.2 1.5-4.1 2.5-5.9M68.5 437.2z"/><path class="st86" d="M73.8 433.7c-1.6 1.3-3.3 2.5-5.3 3.5 2-1 3.7-2.2 5.3-3.5M68.5 437.2z"/><path class="st86" d="M73.8 433.7c-1.6 1.3-3.3 2.5-5.3 3.5 2-1 3.7-2.2 5.3-3.5z"/><path class="st86" d="M73.8 433.7c-1.6 1.3-3.3 2.5-5.3 3.5 2-1 3.7-2.2 5.3-3.5M72 431.9c-1.3 1.6-2.5 3.3-3.5 5.3 1-2 2.2-3.7 3.5-5.3"/><path class="st86" d="M72 431.9c-1.3 1.6-2.5 3.3-3.5 5.3 1-2 2.2-3.7 3.5-5.3"/><path class="st86" d="M72 431.9c-1.3 1.6-2.5 3.3-3.5 5.3 1-2 2.2-3.7 3.5-5.3"/><path class="st86" d="M77.9 427.8c-1.7 1.4-3.6 2.9-5.9 4.1-1.3 1.6-2.5 3.3-3.5 5.3 1.9-1 3.7-2.2 5.3-3.5 1.3-2.3 2.7-4.3 4.1-5.9"/><path class="st86" d="M77.9 427.8c-1.6 1.4-3.6 2.9-5.9 4.1 2.3-1.3 4.3-2.7 5.9-4.1"/><path class="st86" d="M77.9 427.8c-1.6 1.4-3.6 2.9-5.9 4.2 2.3-1.4 4.3-2.8 5.9-4.2zM72 431.9z"/><path class="st86" d="M77.9 427.8c-1.6 1.4-3.6 2.9-5.9 4.1 2.3-1.3 4.3-2.7 5.9-4.1M77.1 426.8c-1.7 1.4-3.4 3.1-5.1 5.1 1.7-2 3.5-3.7 5.1-5.1M77.1 426.8zM77.1 426.8zM77.1 426.8z"/><path class="st86" d="M77.1 426.8c-1.7 1.4-3.5 3.1-5.1 5.1 1.7-2 3.5-3.7 5.1-5.1M77.1 426.8z"/><path class="st86" d="M77.1 426.8c-1.7 1.4-3.5 3.1-5.1 5.1 1.7-2 3.5-3.7 5.1-5.1"/><path class="st86" d="M81.5 423.9c-1 .8-2.5 1.8-4.4 2.9-1.7 1.4-3.4 3.1-5.1 5.1 2.3-1.3 4.3-2.8 5.9-4.1 1.4-1.7 2.7-3 3.7-3.9h-.1zM77.1 426.8"/><path class="st86" d="M81.5 423.9c-1 .8-2.5 1.8-4.4 2.9 1.9-1.1 3.4-2.1 4.4-2.9zM77.1 426.8z"/><path class="st86" d="M81.5 423.9c-1 .8-2.5 1.8-4.4 2.9 1.8-1.1 3.3-2.1 4.4-2.9zM77.1 426.8zM77.1 426.8"/><path class="st86" d="M81.5 423.9c-1 .8-2.5 1.8-4.4 2.9 1.8-1.1 3.3-2.1 4.4-2.9z"/><path class="st87" d="M81 423.9c-1 .7-2.4 1.7-3.9 2.9 1.5-1.3 2.8-2.2 3.9-2.9z"/><path class="st87" d="M81 423.9c-1.1.7-2.4 1.7-3.9 2.9 1.5-1.3 2.8-2.2 3.9-2.9z"/><path class="st87" d="M81 423.9c-1 .7-2.4 1.7-3.9 2.9 1.5-1.3 2.8-2.2 3.9-2.9z"/><path class="st87" d="M81 423.9c-1 .7-2.4 1.7-3.9 2.9 1.8-1.1 3.3-2.1 4.4-2.9H81z"/><path class="st88" d="M95.8 396.7c.1 1.2.1 2.4.1 3.7 1.4-.9 2.8-1.7 4.3-2.3v-1.4h-4.4z"/><path class="st88" d="M95.8 396.7c.1 1.2.1 2.4.1 3.7 0-1.3 0-2.5-.1-3.7"/><path class="st88" d="M95.8 396.7c.1 1.2.1 2.4.1 3.7 0-1.3 0-2.5-.1-3.7"/><path class="st88" d="M95.8 396.7c.1 1.2.1 2.4.1 3.7 0-1.3 0-2.5-.1-3.7"/><path class="st89" d="M100.2 398.1c-1.5.6-2.9 1.3-4.3 2.3 1.3-.9 2.8-1.7 4.3-2.3"/><path class="st89" d="M100.2 398.1c-1.5.6-2.9 1.3-4.3 2.3.4-.3.9-.6 1.4-.8.9-.6 1.9-1.1 2.9-1.5"/><path class="st89" d="M97.2 399.5c-.5.3-.9.5-1.4.8.5-.2 1-.5 1.4-.8M100.2 398.1"/><path class="st89" d="M100.2 398.1c-1 .4-2 .9-2.9 1.4-.5.3-.9.5-1.4.8v.5c-.1 1-.2 1.9-.4 2.8-.1.7-.3 1.3-.5 2 1.3-1 2.7-1.8 4.2-2.5.2-.1.3-.1.5-.2.2-1.6.4-3.2.5-4.8"/><path class="st89" d="M95.4 403.7c-.1.7-.3 1.3-.5 2 .2-.7.4-1.3.5-2M95.9 400.4v.5c-.1 1-.2 1.9-.4 2.8.2-.9.3-1.9.4-2.8-.1-.2 0-.4 0-.5"/><path class="st89" d="M95.9 400.4v.5c-.1 1.7-.5 3.3-.9 4.8.2-.7.4-1.3.5-2 .2-.9.3-1.9.4-2.8-.1-.2 0-.4 0-.5M95.9 400.4zM95.9 400.4z"/><path class="st89" d="M95.9 400.4v.5c-.1 1.7-.5 3.3-.9 4.8.5-1.5.8-3.1.9-4.8-.1-.2 0-.4 0-.5"/><path class="st89" d="M99.5 402.9c-.1.1-.3.1-.5.2-1.5.7-2.9 1.6-4.2 2.5 1.3-1 2.7-1.8 4.2-2.5.2 0 .4-.1.5-.2z"/><path class="st89" d="M99.5 402.9c-.2.1-.3.1-.5.2-1.5.7-2.9 1.6-4.2 2.5 1.3-1 2.7-1.8 4.2-2.5.2 0 .4-.1.5-.2"/><path class="st89" d="M99.5 402.9c-.2.1-.3.1-.5.2-1.5.7-2.9 1.6-4.2 2.5 1.3-1 2.7-1.8 4.2-2.5.2 0 .4-.1.5-.2"/><path class="st89" d="M99.5 402.9c-.2.1-.3.1-.5.2-1.5.7-2.9 1.6-4.2 2.5-.6 2.1-1.5 4-2.5 5.8 1.6-1.3 3.3-2.5 5.3-3.5.7-1.4 1.3-3 1.8-4.6 0 0 .1-.2.1-.4"/><path class="st89" d="M94.9 405.7c-.6 2.1-1.5 4-2.5 5.8 1-1.8 1.9-3.8 2.5-5.8"/><path class="st89" d="M94.9 405.7c-.6 2.1-1.5 4-2.5 5.8 1-1.8 1.9-3.8 2.5-5.8"/><path class="st89" d="M94.9 405.7c-.6 2.1-1.5 4-2.5 5.8 1-1.8 1.9-3.8 2.5-5.8"/><path class="st89" d="M97.6 408c-1.9 1-3.7 2.2-5.3 3.5 1.7-1.3 3.4-2.5 5.3-3.5"/><path class="st89" d="M97.6 408c-1.9 1-3.7 2.2-5.3 3.5 1.7-1.3 3.4-2.5 5.3-3.5M92.4 411.5z"/><path class="st89" d="M97.6 408c-1.9 1-3.7 2.2-5.3 3.5 1.7-1.3 3.4-2.5 5.3-3.5M92.4 411.5z"/><path class="st89" d="M97.6 408c-1.9 1-3.7 2.2-5.3 3.5-1.3 2.3-2.7 4.3-4.1 5.9 1.7-1.4 3.6-2.9 5.9-4.1 1.4-1.6 2.6-3.4 3.5-5.3"/><path class="st89" d="M92.4 411.5c-1.3 2.3-2.7 4.3-4.1 5.9 1.3-1.7 2.8-3.7 4.1-5.9M92.4 411.5z"/><path class="st89" d="M92.4 411.5c-1.3 2.3-2.7 4.3-4.1 5.9 1.3-1.7 2.8-3.7 4.1-5.9M92.4 411.5z"/><path class="st89" d="M92.4 411.5c-1.3 2.3-2.7 4.3-4.1 5.9 1.3-1.7 2.8-3.7 4.1-5.9M94.2 413.3c-2.3 1.3-4.3 2.8-5.9 4.1 1.6-1.4 3.6-2.9 5.9-4.1M88.3 417.4s-.1 0 0 0M88.3 417.4h-.1.1"/><path class="st89" d="M94.2 413.3c-2.3 1.3-4.3 2.8-5.9 4.1 1.6-1.4 3.6-2.9 5.9-4.1M88.3 417.4zM88.2 417.4z"/><path class="st89" d="M94.2 413.3c-2.3 1.3-4.3 2.8-5.9 4.1 1.6-1.4 3.6-2.9 5.9-4.1z"/><path class="st89" d="M94.2 413.3c-2.3 1.3-4.3 2.8-5.9 4.1-1.4 1.7-2.7 3-3.7 3.9h.1c1-.8 2.5-1.8 4.4-2.9 1.6-1.4 3.4-3.1 5.1-5.1M88.2 417.4a36.514 36.514 0 0 0 0 0M88.2 417.4zM88.2 417.4zM88.2 417.4a36.514 36.514 0 0 0 0 0"/><path class="st89" d="M89.1 418.4c-1.8 1.1-3.3 2.1-4.4 2.9 1-.8 2.5-1.8 4.4-2.9"/><path class="st89" d="M89.1 418.4c-1.8 1.1-3.3 2.1-4.4 2.9 1-.8 2.5-1.8 4.4-2.9z"/><path class="st89" d="M89.1 418.4c-1.8 1.1-3.3 2.1-4.4 2.9 1-.8 2.5-1.8 4.4-2.9"/><path class="st89" d="M89.1 418.4c-1.9 1.1-3.3 2.1-4.4 2.9h.5c1-.7 2.4-1.7 3.9-2.9"/><path class="st90" d="M70.3 444.8c-.1 1.2 0 2.5.1 3.7-.1-1.2-.2-2.5-.1-3.7"/><path class="st90" d="M70.3 444.8c-.1 1.2 0 2.5.1 3.7-.1-1.2-.2-2.5-.1-3.7"/><path class="st90" d="M74.4 441.3c-1.1 1.2-2.3 2.3-3.7 3.2-.1.1-.3.2-.4.3-.1 1.2 0 2.5.1 3.7h1.1l2.7-3.3c0-1.3 0-2.6.2-3.9"/><path class="st90" d="M74.4 441.3c-1.1 1.2-2.3 2.3-3.7 3.2 1.4-1 2.6-2 3.7-3.2M70.3 444.8"/><path class="st90" d="M74.4 441.3c-1.1 1.2-2.3 2.3-3.7 3.2-.1.1-.3.2-.4.3.1-.1.3-.2.4-.3 1.4-1 2.6-2 3.7-3.2M70.3 444.8"/><path class="st90" d="M74.4 441.3c-1.1 1.2-2.3 2.3-3.7 3.2-.1.1-.3.2-.4.3.1-.1.3-.2.4-.3 1.4-1 2.6-2 3.7-3.2"/><path class="st91" d="M71.3 439.5c0 .1-.1.2-.1.3 0-.1.1-.2.1-.3M71.3 439.5z"/><path class="st91" d="M71.3 439.5c0 .1-.1.2-.1.3-.4 1.5-.7 3-.9 4.5v.5-.5c.2-1.7.5-3.3 1-4.8"/><path class="st91" d="M71.3 439.5c-.5 1.5-.8 3.1-.9 4.8v.5-.5c.1-1.7.4-3.3.9-4.8M71.3 439.5z"/><path class="st91" d="M75.9 435.1c-1.3 1.5-2.8 3-4.6 4.3-.5 1.5-.8 3.1-.9 4.8v.5c.1-.1.3-.2.4-.3 1.4-1 2.6-2.1 3.7-3.2.2-2.1.7-4.1 1.4-6.1"/><path class="st91" d="M75.9 435.1c-1.3 1.5-2.8 3-4.6 4.3 1.7-1.2 3.2-2.7 4.6-4.3"/><path class="st91" d="M75.9 435.1c-1.3 1.5-2.8 3-4.6 4.3 1.7-1.2 3.2-2.7 4.6-4.3z"/><path class="st91" d="M75.9 435.1c-1.3 1.5-2.8 3-4.6 4.3 1.7-1.2 3.2-2.7 4.6-4.3"/><path class="st91" d="M73.8 433.7c-1 1.8-1.9 3.7-2.5 5.8.6-2.1 1.5-4 2.5-5.8M73.8 433.7zM73.8 433.7"/><path class="st91" d="M73.8 433.7c-1 1.8-1.9 3.7-2.5 5.8.3-.8.6-1.7.9-2.5.5-1.2 1-2.3 1.6-3.3"/><path class="st91" d="M72.2 437c-.3.8-.6 1.6-.9 2.5.2-.9.5-1.7.9-2.5M73.8 433.7zM73.8 433.7c-.6 1.1-1.1 2.2-1.6 3.3.5-1.2 1-2.3 1.6-3.3"/><path class="st91" d="M78.9 428.6c-1.4 1.7-3.1 3.5-5.1 5.1-.6 1.1-1.1 2.2-1.6 3.3-.3.8-.6 1.6-.9 2.5 1.7-1.3 3.3-2.8 4.6-4.3.8-2.5 1.9-4.7 3-6.6"/><path class="st91" d="M78.9 428.6c-1.4 1.7-3.1 3.5-5.1 5.1 2-1.7 3.7-3.5 5.1-5.1zM73.8 433.7"/><path class="st91" d="M78.9 428.6c-1.4 1.7-3.1 3.5-5.1 5.1 2-1.7 3.7-3.5 5.1-5.1z"/><path class="st91" d="M78.9 428.6c-1.4 1.7-3.1 3.5-5.1 5.1 2-1.7 3.7-3.5 5.1-5.1M77.9 427.8c-1.4 1.7-2.9 3.7-4.1 5.9 1.3-2.3 2.7-4.3 4.1-5.9M77.9 427.8zM77.9 427.8zM77.9 427.8z"/><path class="st91" d="M77.9 427.8c-1.4 1.7-2.9 3.7-4.1 5.9 1.3-2.3 2.7-4.3 4.1-5.9M77.9 427.8z"/><path class="st91" d="M77.9 427.8c-1.4 1.7-2.9 3.7-4.1 5.9 1.3-2.3 2.7-4.3 4.1-5.9"/><path class="st91" d="M81.8 424.1c-.9 1-2.2 2.3-3.9 3.7-1.4 1.7-2.9 3.7-4.1 5.9 2-1.7 3.7-3.5 5.1-5.1 1.1-1.8 2.1-3.3 2.9-4.4v-.1z"/><path class="st91" d="M81.8 424.1c-.9 1-2.2 2.3-3.9 3.7 1.7-1.4 3-2.8 3.9-3.7zM77.9 427.8zM77.9 427.8"/><path class="st91" d="M81.8 424.1c-.9 1-2.2 2.3-3.9 3.7 1.7-1.4 3-2.8 3.9-3.7zM77.9 427.8z"/><path class="st91" d="M81.8 424.1c-.9 1-2.2 2.3-3.9 3.7 1.7-1.4 3-2.8 3.9-3.7zM81.6 423.9c-1 .9-2.3 2.2-3.7 3.9 1.4-1.7 2.8-3 3.7-3.9z"/><path class="st91" d="M81.6 423.9c-1 .9-2.3 2.2-3.7 3.9 1.4-1.7 2.8-3 3.7-3.9z"/><path class="st91" d="M81.6 423.9c-1 .9-2.3 2.2-3.7 3.9 1.4-1.7 2.8-3 3.7-3.9z"/><path class="st91" d="M81.6 423.9c-1 .9-2.3 2.2-3.7 3.9 1.7-1.4 3-2.7 3.9-3.7v-.2h-.2z"/><path class="st92" d="M91.9 400c0 1.1 0 2.2-.1 3.2 0 .2 0 .5-.1.7 1.1-1.2 2.3-2.3 3.7-3.2.1-.1.3-.2.4-.3.1-1.2.1-2.5-.1-3.7h-1.1l-2.7 3.3z"/><path class="st92" d="M91.8 403.2c0 .2 0 .4-.1.6v.1c.1-.2.1-.5.1-.7M91.8 403.8c0 .1 0 .1 0 0 0 .1 0 .1 0 0M91.9 400c0 1.1 0 2.2-.1 3.2.1-1.1.2-2.1.1-3.2z"/><path class="st92" d="M91.9 400c.1 1.3 0 2.6-.2 3.9 0-.2.1-.4.1-.6.1-1.2.2-2.2.1-3.3z"/><path class="st92" d="M91.9 400c.1 1.3 0 2.6-.2 3.9v-.1c.2-1.2.3-2.5.2-3.8zM95.9 400.4c-.1.1-.3.2-.4.3-1.4 1-2.6 2.1-3.7 3.2 1.1-1.2 2.3-2.3 3.7-3.2.1-.1.2-.2.4-.3"/><path class="st92" d="M95.9 400.4c-.1.1-.3.2-.4.3-1.4 1-2.6 2.1-3.7 3.2 1.1-1.2 2.3-2.3 3.7-3.2.1-.1.2-.2.4-.3zM91.8 403.9"/><path class="st92" d="M95.9 400.4c-.1.1-.3.2-.4.3-1.4 1-2.6 2.1-3.7 3.2 1.1-1.2 2.3-2.3 3.7-3.2.1-.1.2-.2.4-.3M91.8 403.9"/><path class="st92" d="M95.9 400.4c-.1.1-.3.2-.4.3-1.4 1-2.6 2.1-3.7 3.2-.3 2.2-.8 4.2-1.5 6.1 1.3-1.5 2.8-3 4.6-4.3.5-1.5.8-3.1.9-4.8 0-.2.1-.4.1-.5"/><path class="st92" d="M91.8 403.9c-.3 2.2-.8 4.2-1.5 6.1.7-1.9 1.2-4 1.5-6.1"/><path class="st92" d="M91.8 403.9c-.3 2.2-.8 4.2-1.5 6.1.7-1.9 1.2-4 1.5-6.1M91.8 403.9zM91.8 403.9z"/><path class="st92" d="M91.8 403.9c-.3 2.2-.8 4.2-1.5 6.1.7-1.9 1.2-4 1.5-6.1"/><path class="st93" d="M94.9 405.7c-1.7 1.3-3.2 2.8-4.6 4.3 1.3-1.5 2.9-3 4.6-4.3M90.3 410z"/><path class="st93" d="M94.9 405.7c-1.7 1.3-3.2 2.8-4.6 4.3 1.3-1.5 2.9-3 4.6-4.3"/><path class="st93" d="M94.9 405.7c-1.7 1.3-3.2 2.8-4.6 4.3 1.3-1.5 2.9-3 4.6-4.3M90.3 410z"/><path class="st93" d="M94.9 405.7c-1.7 1.3-3.2 2.8-4.6 4.3-.9 2.5-2 4.7-3 6.6 1.4-1.7 3.1-3.5 5.1-5.1 1-1.8 1.9-3.8 2.5-5.8"/><path class="st93" d="M90.3 410c-.9 2.5-2 4.7-3 6.6 1.1-1.9 2.2-4.1 3-6.6"/><path class="st93" d="M90.3 410c-.9 2.5-2 4.7-3 6.6 1-1.9 2.2-4.1 3-6.6M90.3 410zM90.3 410z"/><path class="st93" d="M90.3 410c-.9 2.5-2 4.7-3 6.6 1-1.9 2.1-4.1 3-6.6M92.4 411.5c-2 1.7-3.7 3.5-5.1 5.1 1.4-1.7 3.1-3.5 5.1-5.1M87.3 416.6zM87.3 416.6z"/><path class="st93" d="M92.4 411.5c-2 1.7-3.7 3.5-5.1 5.1 1.4-1.7 3.1-3.5 5.1-5.1zM87.3 416.6z"/><path class="st93" d="M92.4 411.5c-2 1.7-3.7 3.5-5.1 5.1 1.4-1.7 3.1-3.5 5.1-5.1"/><path class="st93" d="M92.4 411.5c-2 1.7-3.7 3.5-5.1 5.1-1.1 1.9-2.1 3.4-2.9 4.4v.1c.9-1 2.2-2.3 3.9-3.7 1.3-1.7 2.8-3.7 4.1-5.9"/><path class="st93" d="M87.3 416.6c-1.1 1.8-2.1 3.4-2.9 4.4.8-1.1 1.8-2.6 2.9-4.4M87.3 416.6"/><path class="st93" d="M87.3 416.6c-1.1 1.8-2.1 3.4-2.9 4.4.8-1.1 1.8-2.6 2.9-4.4M87.3 416.6zM87.3 416.6z"/><path class="st93" d="M87.3 416.6c-1.1 1.8-2.1 3.3-2.9 4.4.8-1.1 1.8-2.6 2.9-4.4"/><path class="st93" d="M88.2 417.4c-1.7 1.4-3 2.7-3.9 3.7 1-1 2.3-2.3 3.9-3.7"/><path class="st93" d="M88.2 417.4c-1.7 1.4-3 2.7-3.9 3.7 1-1 2.3-2.3 3.9-3.7"/><path class="st93" d="M88.2 417.4c-1.7 1.4-3 2.7-3.9 3.7 1-1 2.3-2.3 3.9-3.7z"/><path class="st93" d="M88.2 417.4c-1.7 1.4-3 2.7-3.9 3.7v.2h.2c1-.9 2.3-2.2 3.7-3.9"/><path class="st94" d="M91.8 441.3c.2 1.3.2 2.7.2 4l2.7 3.2h1.2c.1-1.2.1-2.4.1-3.7-.1-.1-.3-.2-.4-.3-1.5-1-2.7-2.1-3.8-3.2"/><path class="st94" d="M91.8 441.3c.2 1.3.2 2.7.2 4 .1-1.4 0-2.7-.2-4"/><path class="st94" d="M91.8 441.3c.2 1.3.2 2.7.2 4 .1-1.4 0-2.7-.2-4"/><path class="st94" d="M91.8 441.3c.2 1.3.2 2.7.2 4 .1-1.4 0-2.7-.2-4"/><path class="st95" d="M91.8 441.3c1.1 1.2 2.3 2.3 3.7 3.2.1.1.3.2.4.3-.1-.1-.3-.2-.4-.3-1.4-1-2.6-2.1-3.7-3.2M91.8 441.3zM91.8 441.3z"/><path class="st95" d="M91.8 441.3c1.1 1.2 2.3 2.3 3.7 3.2.1.1.3.2.4.3-.1-.1-.3-.2-.4-.3-1.3-1-2.6-2.1-3.7-3.2M91.8 441.3"/><path class="st95" d="M91.8 441.3c1.1 1.2 2.3 2.3 3.7 3.2.1.1.3.2.4.3-.1-.1-.3-.2-.4-.3-1.3-1-2.6-2.1-3.7-3.2M91.8 441.3zM91.8 441.3z"/><path class="st95" d="M90.3 435.1c.7 1.9 1.2 4 1.5 6.1 1.1 1.2 2.3 2.3 3.7 3.2.1.1.3.2.4.3v-.5c-.2-1.7-.5-3.3-1-4.8-1.7-1.2-3.2-2.7-4.6-4.3"/><path class="st95" d="M90.3 435.1c.7 1.9 1.2 4 1.5 6.1-.2-2.1-.8-4.2-1.5-6.1M90.3 435.1c1.3 1.5 2.9 3 4.6 4.3-1.7-1.2-3.2-2.7-4.6-4.3"/><path class="st95" d="M90.3 435.1c.4 1.2.8 2.4 1 3.6.2.8.3 1.7.4 2.5-.1-2.1-.7-4.2-1.4-6.1zM90.3 435.1z"/><path d="M91.4 438.7c.2.8.3 1.7.4 2.5-.1-.8-.2-1.6-.4-2.5" style="fill:#4053a4"/><path class="st97" d="M90.3 435.1c1.3 1.5 2.9 3 4.6 4.3-1.7-1.2-3.2-2.7-4.6-4.3M90.3 435.1z"/><path class="st97" d="M90.3 435.1c1.3 1.5 2.9 3 4.6 4.3-1.7-1.2-3.2-2.7-4.6-4.3M90.3 435.1z"/><path class="st97" d="M87.3 428.6c.1.2.3.5.4.7 1 1.7 1.9 3.7 2.6 5.8 1.3 1.5 2.9 3 4.6 4.3-.6-2.1-1.5-4-2.5-5.8-2-1.6-3.7-3.4-5.1-5"/><path class="st97" d="M87.7 429.3c1 1.7 1.9 3.7 2.6 5.8-.7-2.1-1.6-4.1-2.6-5.8M87.3 428.6c1.4 1.7 3.1 3.4 5.1 5.1-1-.8-2-1.7-2.9-2.6-.8-.9-1.5-1.7-2.2-2.5"/><path class="st97" d="M87.3 428.6c.1.2.3.5.4.7-.1-.2-.3-.5-.4-.7"/><path class="st97" d="M87.3 428.6c1.1 1.9 2.2 4.1 3.1 6.6-.8-2.1-1.7-4.1-2.6-5.8-.2-.4-.4-.6-.5-.8M87.3 428.6zM89.5 431.1c.9.9 1.8 1.8 2.9 2.6-1-.9-2-1.8-2.9-2.6"/><path class="st98" d="M87.3 428.6c.7.8 1.4 1.6 2.3 2.5-.9-.9-1.6-1.7-2.3-2.5M87.3 428.6z"/><path class="st98" d="M87.3 428.6c.7.8 1.4 1.6 2.3 2.5.9.9 1.8 1.8 2.9 2.6-2.1-1.7-3.8-3.5-5.2-5.1M87.3 428.6z"/><path class="st98" d="M84.4 424.2c.8 1 1.8 2.5 2.9 4.4 1.4 1.7 3.1 3.4 5.1 5.1-1.3-2.3-2.8-4.3-4.1-5.9-1.7-1.4-3-2.7-3.9-3.7v.1z"/><path class="st98" d="M84.4 424.1c.9 1 2.2 2.3 3.9 3.7-.6-.5-1.1-.9-1.6-1.4l-2.3-2.3zM84.4 424.2c.8 1 1.8 2.5 2.9 4.4-1.1-1.9-2.1-3.4-2.9-4.4z"/><path class="st98" d="M84.4 424.2c.8 1 1.8 2.5 2.9 4.4-1.1-1.9-2.1-3.4-2.9-4.4M86.7 426.4c.5.4 1 .9 1.6 1.4-.2-.2-.5-.4-.7-.6-.3-.3-.6-.6-.9-.8"/><path class="st98" d="M87.6 427.2c.2.2.5.4.7.6-.3-.3-.5-.4-.7-.6"/><path class="st99" d="m84.4 424.1 2.3 2.3-2.3-2.3zM84.4 424.1l2.3 2.3c.3.2.6.5.9.8-1.4-1.2-2.5-2.3-3.2-3.1zM84.6 423.9l.2.2-.2-.2z"/><path class="st99" d="M84.4 424.1c.8.8 1.8 1.9 3.2 3.1.2.2.5.4.7.6-1.3-1.6-2.6-2.8-3.5-3.7l-.2-.2h-.2v.2z"/><path class="st100" d="M88.1 436.2c.3 1.6.4 3.2.4 4.9l3.5 4.2c.1-1.4 0-2.7-.2-4-1.5-1.6-2.7-3.4-3.7-5.1"/><path class="st100" d="M88.1 436.2c.3 1.6.4 3.2.4 4.9 0-1.7-.2-3.3-.4-4.9z"/><path class="st100" d="M88.1 436.2c0 .3.1.6.1.8.2 1.3.3 2.7.3 4.1 0-1.7-.2-3.3-.4-4.9"/><path class="st100" d="M88.2 437c.2 1.3.3 2.7.3 4.1 0-1.4-.1-2.7-.3-4.1"/><path class="st101" d="M90.3 435.1c.4 1.2.8 2.4 1 3.6-.2-1.2-.5-2.4-1-3.6M88.1 436.2c1 1.7 2.3 3.5 3.8 5.1-1.6-1.6-2.8-3.4-3.8-5.1M88.1 436.2z"/><path class="st101" d="M88.1 436.2c1 1.7 2.3 3.5 3.8 5.1-1.6-1.6-2.8-3.4-3.8-5.1M88.1 436.2z"/><path class="st101" d="M88.1 436.2c1 1.7 2.3 3.5 3.8 5.1-1.6-1.6-2.8-3.4-3.8-5.1M88.1 436.2z"/><path class="st101" d="M86.2 429.2c.7 2 1.4 4.4 1.9 7 1 1.7 2.3 3.5 3.8 5.1-.1-.9-.3-1.7-.4-2.5-.3-1.2-.6-2.5-1-3.6-.5-.6-1.1-1.3-1.6-1.9-1.1-1.5-2-2.8-2.7-4.1"/><path class="st101" d="M86.2 429.2c.7 2 1.5 4.4 1.9 7-.5-2.6-1.2-5-1.9-7zM88.8 433.2c.5.6 1 1.3 1.6 1.9-.6-.6-1.1-1.3-1.6-1.9M88.1 436.2"/><path class="st101" d="M86.2 429.2c.7 2 1.5 4.4 1.9 7-.5-2.6-1.2-5-1.9-7"/><path class="st102" d="M87.3 428.6c1.1 1.9 2.2 4.1 3.1 6.6-.9-2.5-2-4.8-3.1-6.6zM87.3 428.6zM86.2 429.2c.7 1.3 1.6 2.6 2.6 4-1-1.4-1.9-2.7-2.6-4M86.2 429.2"/><path class="st102" d="M86.2 429.2c.7 1.3 1.6 2.6 2.6 4 .5.6 1 1.3 1.6 1.9-1.8-2-3.1-4-4.2-5.9M86.2 429.2"/><path class="st102" d="M86.2 429.2c1.1 1.9 2.5 3.9 4.2 5.9-1.8-2-3.1-4-4.2-5.9M86.2 429.2z"/><path class="st102" d="M84.4 425c.5 1.1 1.2 2.5 1.8 4.2 1.1 1.9 2.5 3.9 4.2 5.9-.9-2.5-2-4.7-3.1-6.6-.6-.7-1.1-1.4-1.6-2-.5-.7-1-1.3-1.3-1.9v.4z"/><path class="st102" d="M84.4 425c.5 1.1 1.2 2.5 1.8 4.2-.6-1.7-1.3-3.1-1.8-4.2zM85.7 426.5c.5.6 1 1.3 1.6 2-.6-.6-1.1-1.3-1.6-2M86.2 429.2z"/><path class="st102" d="M84.4 425c.1.1.1.3.2.4.5 1 1 2.3 1.6 3.8-.6-1.7-1.3-3.1-1.8-4.2z"/><path class="st102" d="M84.6 425.4zm-.2-.4c.1.1.1.3.2.4-.1-.1-.2-.3-.2-.4z"/><path class="st103" d="M87.3 428.6zM84.4 424.2c.8 1 1.8 2.5 2.9 4.4-1.1-1.9-2.1-3.4-2.9-4.4M84.4 424.7c.4.5.8 1.2 1.3 1.9-.5-.7-1-1.4-1.3-1.9z"/><path class="st103" d="M84.4 424.7c.4.5.8 1.2 1.3 1.9.5.6 1 1.3 1.6 2-1.2-1.5-2.2-2.9-2.9-3.9z"/><path class="st103" d="M84.4 424.7c.7 1.1 1.7 2.4 2.9 3.9-1.2-1.5-2.2-2.9-2.9-3.9"/><path class="st103" d="M84.4 424.7c.7 1.1 1.7 2.4 2.9 3.9-1.1-1.8-2.1-3.3-2.9-4.4v.5z"/><path class="st104" d="M85.6 436.8v.8l.7.8c-.3-.5-.5-1-.7-1.6M85.6 436.8v.8-.8M85.6 436.8v.8-.8"/><path class="st104" d="M85.6 436.8c.2.5.4 1.1.7 1.6-.3-.5-.5-1-.7-1.6M85.6 436.8v.8-.8"/><path class="st105" d="M88.1 436.2c0 .3.1.6.1.8 0-.2-.1-.5-.1-.8M85.6 436.8c.2.5.4 1.1.7 1.6v-.1c0-.1-.1-.1-.1-.2-.2-.4-.4-.8-.6-1.3"/><path class="st105" d="M86.3 438.4zm-.1 0zm-.1-.3c0 .1 0 .1.1.2 0 0 0-.1-.1-.2zm-.5-1.3c.2.4.3.9.5 1.3-.1-.4-.3-.8-.5-1.3zM86.3 438.5zm0-.1c0 .1 0 .1 0 0 0 .1 0 .1 0 0zm-.1 0zm0-.1zm-.1-.2z"/><path class="st105" d="M85 429.6c.4 2.1.7 4.6.6 7.2.2.4.3.9.5 1.3 0 .1 0 .1.1.2v.1l2.2 2.6c0-1.4-.1-2.7-.3-4.1 0-.3-.1-.6-.1-.8-1.3-2.1-2.3-4.4-3-6.5M85.6 436.8zM85.6 436.8z"/><path class="st105" d="m85 429.6.3 2.1v.1c.2 1.5.3 3.1.3 4.8 0-2.4-.2-4.8-.6-7z"/><path class="st105" d="M85.3 432c.2 1.5.3 3.1.3 4.8 0-1.6-.1-3.3-.3-4.8m0 0zm0 0zm0-.1c0 .1 0 .1 0 0 0 .1 0 .1 0 0zm0 0zm0 0zm0-.1zm0 0zm0 0zm0-.1s0 .1 0 0c0 .1 0 0 0 0zM85.6 436.8zM85.6 436.8zM85.3 432zm0 0zm0-.1zm0 0zm0-.1s0 .1 0 0c0 .1 0 0 0 0zm0 0zm0 0zm0 0zm-.3-2.2.3 2.1-.3-2.1z"/><path class="st105" d="M85 429.6c.4 2.1.7 4.6.6 7.2 0-1.7-.1-3.3-.3-4.8v-.1c-.1-.9-.2-1.6-.3-2.3M88.1 436.2"/><path class="st105" d="M85 429.6c.7 2 1.7 4.3 3.1 6.5-1.4-2.2-2.4-4.4-3.1-6.5M85 429.6zM88.1 436.2z"/><path class="st105" d="M86.2 429.2c.7 2 1.5 4.4 1.9 7-.5-2.6-1.2-5-1.9-7z"/><path class="st105" d="M85 429.6c.7 2 1.7 4.3 3.1 6.5-1.4-2.2-2.4-4.4-3.1-6.5"/><path class="st105" d="M85 429.6c.7 2 1.7 4.3 3.1 6.5-1.4-2.2-2.4-4.4-3.1-6.5"/><path class="st105" d="M84.4 426.8c.2.9.4 1.8.6 2.9.7 2 1.7 4.3 3.1 6.5-.4-2.6-1.1-5-1.9-7-.7-1.3-1.3-2.5-1.8-3.5v1.1z"/><path class="st105" d="M84.4 426.8c.2.7.3 1.4.5 2.1v.2c0 .1.1.3.1.4-.2-.9-.4-1.9-.6-2.7z"/><path class="st105" d="M84.9 429.2zm0-.1c0 .1 0 .1 0 0 0 .1 0 .1 0 0zm0 0zm0 0zm0-.2zm-.5-2.1c.2.7.3 1.4.5 2.1-.2-.7-.4-1.5-.5-2.1zM85 429.6zM85 429.6zM84.9 429.2c0 .1.1.3.1.4 0-.1-.1-.3-.1-.4m0-.1zm0 0zm0-.2v.2-.2zm0 0z"/><path class="st105" d="M84.4 426.8c.2.9.4 1.8.6 2.8 0-.1-.1-.3-.1-.4v-.2c-.2-.8-.4-1.6-.5-2.2z"/><path class="st106" d="M86.2 429.2zM84.4 425.7c.5 1 1.1 2.2 1.8 3.5-.6-1.1-1.1-2.1-1.6-2.9-.1-.2-.1-.4-.2-.6z"/><path class="st106" d="M84.6 426.3c.4.9.9 1.9 1.6 2.9-.6-1.1-1.1-2.1-1.6-2.9M84.6 425.4c.5 1 1 2.3 1.6 3.8-.6-1.5-1.1-2.7-1.6-3.8m0 0zM84.4 425.7c.1.2.2.4.3.5-.2-.1-.2-.3-.3-.5z"/><path class="st106" d="M84.4 425.7c.1.2.2.3.3.5.4.9.9 1.9 1.6 2.9-.9-1.2-1.5-2.4-1.9-3.4z"/><path class="st106" d="M84.4 425.7c.5 1 1.1 2.2 1.8 3.5-.5-1.5-1.1-2.7-1.6-3.8-.1-.2-.1-.3-.2-.4v.7z"/><path class="st107" d="M85.6 437.7v-.8c-.1-.2-.1-.3-.2-.5-.4-1.2-.8-2.4-1.1-3.5v3.3l1.3 1.5z"/><path class="st107" d="M85.4 436.4c.1.2.1.3.2.5 0-.2-.1-.4-.2-.5M84.4 432.9c.3 1.1.6 2.3 1.1 3.5-.5-1.2-.8-2.4-1.1-3.5z"/><path class="st107" d="M84.4 432.9c.3 1.1.6 2.3 1.1 3.5.1.2.1.3.2.5-.4-.9-.7-1.9-.9-2.8v-.1c-.2-.4-.3-.7-.4-1.1z"/><path class="st107" d="M84.7 434.1c.3.9.6 1.8.9 2.8-.3-1-.6-1.9-.9-2.8m0-.1zM84.7 434s0 .1 0 0c0 .1 0 0 0 0m-.3-1.1c.1.4.2.8.3 1.1-.1-.4-.2-.7-.3-1.1z"/><path class="st107" d="M84.4 432.9c.1.4.2.8.3 1.1v.1c.3.9.6 1.8.9 2.8 0-2.6-.3-5.1-.6-7.2l-.6-1.8v5z"/><path class="st108" d="m84.4 427.8.6 1.8-.6-1.8zM84.4 427.8l.6 1.8-.6-1.8zM84.4 427.8l.6 1.8-.6-1.8M84.4 427.8l.6 1.8c-.2-1-.4-2-.6-2.9v1.1z"/><path class="st109" d="m80.6 436.9-.6 1.5.6-.7v-.8M80.6 436.9l-.6 1.5.6-1.5M80.6 436.9l-.6 1.5.6-1.5M80.6 436.9l-.6 1.5.6-1.5M80.6 436.9v.8-.8M80.6 436.9v.8-.8M80.6 436.9v.8-.8M81.8 433c-.3 1.2-.7 2.5-1.2 3.9v.8l1.2-1.4V433z"/><path class="st109" d="M81.8 433c-.3 1.2-.7 2.5-1.2 3.8.5-1.3.9-2.5 1.2-3.8z"/><path class="st109" d="M81.8 433c-.3 1.3-.7 2.5-1.2 3.9.5-1.3.9-2.6 1.2-3.9z"/><path class="st109" d="M81.8 433c-.3 1.2-.7 2.5-1.2 3.8.5-1.3.9-2.5 1.2-3.8zM74.4 441.3c-.2 1.3-.2 2.6-.2 3.9 0-1.3 0-2.6.2-3.9"/><path class="st109" d="M74.4 441.3c-.2 1.3-.2 2.6-.2 3.9 0-1.3 0-2.6.2-3.9"/><path class="st109" d="M74.4 441.3c-.2 1.3-.2 2.6-.2 3.9 0-1.3 0-2.6.2-3.9"/><path class="st109" d="M78.1 436.2c-1 1.8-2.3 3.5-3.7 5.1-.2 1.3-.2 2.6-.2 3.9l3.5-4.2c0-1 .1-2 .2-3 .1-.6.2-1.2.2-1.8"/><path class="st109" d="M78.1 436.2c-1 1.8-2.3 3.5-3.7 5.1 1.5-1.6 2.7-3.3 3.7-5.1"/><path class="st109" d="M78.1 436.2c-1 1.8-2.3 3.5-3.7 5.1 1.5-1.6 2.7-3.3 3.7-5.1M77.9 438c-.1 1-.2 2-.2 3v-1.6c.1-.5.2-.9.2-1.4"/><path class="st109" d="M77.8 439.4v1.6c-.1-.5 0-1.1 0-1.6M74.4 441.3zM74.4 441.3zM74.4 441.3zM78.2 436.2c-1 1.8-2.3 3.5-3.7 5.1 1.4-1.6 2.6-3.3 3.7-5.1z"/><path class="st109" d="M78.1 436.2c-.1.6-.2 1.2-.2 1.8.1-.6.2-1.2.2-1.8"/><path class="st109" d="M78.1 436.2c-.1.6-.2 1.2-.2 1.8 0 .5-.1.9-.1 1.4.1-1.1.2-2.1.3-3.2"/><path class="st109" d="M78.1 436.2c-.2 1-.3 2.1-.4 3.2v1.6c0-1.6.2-3.2.4-4.8"/><path class="st109" d="M81.2 429.7c-.7 2-1.7 4.3-3.1 6.6-.2 1.6-.4 3.2-.4 4.8l2.2-2.7.6-1.5c.1-2.7.3-5.1.7-7.2M78.2 436.2h-.1zM78.2 436.2h-.1zM78.2 436.2h-.1z"/><path class="st109" d="M81.2 429.6c-.7 2-1.7 4.3-3.1 6.6 1.4-2.2 2.4-4.5 3.1-6.6M81.2 429.7c-.4 2.1-.6 4.6-.6 7.2 0-2.7.2-5.1.6-7.2M81.2 429.6z"/><path class="st109" d="M81.2 429.7c-.4 2.1-.6 4.6-.6 7.2v-.8c0-2.3.3-4.5.6-6.4M80.6 436.1v.8-.8M81.2 429.6z"/><path class="st109" d="M81.2 429.7c-.3 1.9-.6 4.1-.6 6.4 0-2.3.3-4.5.6-6.4"/><path class="st109" d="M81.8 427.9c-.2.6-.4 1.1-.6 1.7-.3 1.9-.6 4.1-.6 6.4v.8c.5-1.3.9-2.6 1.2-3.8v-5.1zM81.2 429.6z"/><path class="st109" d="M81.8 427.9c-.2.6-.4 1.1-.6 1.7.2-.6.4-1.1.6-1.7zM81.2 429.6z"/><path class="st109" d="M81.8 427.9c-.2.6-.4 1.1-.6 1.7.2-.6.4-1.1.6-1.7zM81.2 429.6v.1-.1M81.2 429.6z"/><path class="st109" d="M81.8 427.9c-.2.6-.4 1.1-.6 1.7.2-.6.4-1.1.6-1.7z"/><path class="st110" d="M75.9 435.1c-.7 1.9-1.2 4-1.5 6.1l.3-2.1c.3-1.4.7-2.7 1.2-4M75.9 435.1z"/><path class="st110" d="M74.8 439.1c-.1.7-.3 1.4-.3 2.1 0-.7.1-1.4.3-2.1M75.9 435.1c-.4 1.3-.8 2.6-1.1 4 .2-1.4.6-2.7 1.1-4M75.9 435.1z"/><path class="st110" d="M75.9 435.1c-.4 1.3-.8 2.6-1.1 4-.1.7-.3 1.4-.3 2.1.2-2.1.7-4.1 1.4-6.1"/><path class="st110" d="M80 429.2c-1.1 1.9-2.5 3.9-4.2 5.9-.7 1.9-1.2 4-1.5 6.1 1.5-1.6 2.7-3.3 3.7-5.1.6-2.5 1.3-4.9 2-6.9M75.9 435.1z"/><path class="st110" d="M80 429.2c-1.1 1.9-2.4 3.9-4.1 5.9 1.7-1.9 3-4 4.1-5.9zM75.9 435.1zM75.9 435.1z"/><path class="st110" d="M80 429.2c-1.1 1.9-2.4 3.9-4.1 5.9 1.7-1.9 3-4 4.1-5.9M75.9 435.1"/><path class="st110" d="M80 429.2c-1.1 1.9-2.4 3.9-4.1 5.9 1.7-1.9 3-4 4.1-5.9zM80 429.2zM80 429.2zM81.8 425.8c-.5 1-1.1 2.2-1.8 3.5-.7 2-1.4 4.4-1.9 7 1.3-2.2 2.3-4.5 3.1-6.6.2-1 .4-2 .6-2.8v-1.1z"/><path class="st110" d="M81.8 425.8c-.5 1-1.1 2.2-1.8 3.5.7-1.4 1.3-2.5 1.8-3.5zM80 429.2zM80 429.2z"/><path class="st110" d="M81.8 425.8c-.5 1-1.1 2.2-1.8 3.5.7-1.4 1.3-2.5 1.8-3.5zM80 429.2zM80 429.2zM80 429.2z"/><path class="st110" d="M81.8 425.8c-.5 1-1.1 2.2-1.8 3.5.7-1.4 1.3-2.5 1.8-3.5zM81.8 426.9c-.2.8-.4 1.8-.6 2.8.2-1.1.4-2 .6-2.8z"/><path class="st110" d="M81.8 426.9c-.2.8-.4 1.8-.6 2.8.2-1.1.4-2 .6-2.8z"/><path class="st110" d="M81.8 426.9c-.2.8-.4 1.8-.6 2.8.2-1.1.4-2 .6-2.8z"/><path class="st110" d="M81.8 426.9c-.2.8-.4 1.8-.6 2.8.2-.6.4-1.2.6-1.7v-1.1zM78.9 428.6c-1.1 1.9-2.2 4.1-3 6.6.8-2.5 1.9-4.7 3-6.6M78.9 428.6z"/><path class="st110" d="M78.9 428.6c-1.1 1.9-2.2 4.1-3 6.6.8-2.5 1.9-4.7 3-6.6M78.9 428.6z"/><path class="st110" d="M78.9 428.6c-1.1 1.9-2.2 4.1-3 6.6.8-2.5 1.9-4.8 3-6.6"/><path class="st110" d="M81.8 424.7c-.7 1-1.7 2.4-2.9 3.9-1.1 1.9-2.2 4.1-3 6.6 1.7-2 3.1-4.1 4.1-5.9.6-1.7 1.2-3.1 1.8-4.2v-.4zM78.9 428.6z"/><path class="st110" d="M81.8 424.7c-.7 1.1-1.7 2.4-2.9 3.9 1.2-1.5 2.2-2.8 2.9-3.9zM78.9 428.6zM78.9 428.6z"/><path class="st110" d="M81.8 424.7c-.7 1-1.7 2.4-2.9 3.9 1.2-1.5 2.2-2.8 2.9-3.9zM78.9 428.6zM78.9 428.6z"/><path class="st110" d="M81.8 424.7c-.7 1.1-1.7 2.4-2.9 3.9 1.2-1.5 2.2-2.8 2.9-3.9zM81.8 425c-.5 1.1-1.2 2.5-1.8 4.2.6-1.7 1.3-3.1 1.8-4.2z"/><path class="st110" d="M81.8 425c-.5 1.1-1.2 2.5-1.8 4.2.6-1.7 1.3-3.1 1.8-4.2z"/><path class="st110" d="M81.8 425c-.5 1.1-1.2 2.5-1.8 4.2.6-1.7 1.3-3.1 1.8-4.2z"/><path class="st110" d="M81.8 425c-.5 1.1-1.2 2.5-1.8 4.2.7-1.3 1.3-2.5 1.8-3.5v-.7zM81.8 424.2c-.8 1-1.8 2.5-2.9 4.4 1.1-1.9 2.1-3.4 2.9-4.4z"/><path class="st110" d="M81.8 424.2c-.8 1-1.8 2.5-2.9 4.4 1.1-1.9 2.1-3.4 2.9-4.4z"/><path class="st110" d="M81.8 424.2c-.8 1-1.8 2.5-2.9 4.4 1.1-1.9 2.1-3.4 2.9-4.4z"/><path class="st110" d="M81.8 424.2c-.8 1-1.8 2.5-2.9 4.4 1.2-1.5 2.2-2.8 2.9-3.9v-.5z"/><path class="st111" d="M70.3 396.7c-.1 1.2-.1 2.4-.1 3.7 0-1.2 0-2.5.1-3.7z"/><path class="st111" d="M70.3 396.7c-.1 1.2-.1 2.4-.1 3.7 0-1.2 0-2.5.1-3.7z"/><path class="st111" d="M70.3 396.7c-.1 1.2-.1 2.4-.1 3.7 0-1.2 0-2.5.1-3.7z"/><path class="st111" d="M70.3 396.7c-.1 1.2-.1 2.4-.1 3.7.1.1.3.2.4.3 1.4 1 2.6 2 3.7 3.2-.2-1.3-.2-2.6-.2-4l-2.7-3.2h-1.1zM70.2 400.4z"/><path class="st111" d="M70.2 400.4c.1.1.3.2.4.3 1.4 1 2.6 2 3.7 3.2-1.1-1.2-2.3-2.3-3.7-3.2-.1-.1-.2-.2-.4-.3M74.2 399.9c-.1 1.4 0 2.7.2 4-.2-1.3-.3-2.6-.2-4"/><path class="st112" d="M70.2 400.4zM70.2 400.4v.5c.1 1.7.5 3.3 1 4.8-.3-1.1-.6-2.2-.8-3.3-.1-.5-.1-1-.2-1.5.1-.2.1-.3 0-.5z"/><path class="st112" d="M70.5 402.4c.2 1.1.4 2.2.8 3.3-.4-1.1-.7-2.2-.8-3.3M70.2 400.4zM70.2 400.4zM70.2 400.4c.1.1.3.2.4.3 1.4 1 2.6 2 3.7 3.2-1.1-1.2-2.3-2.3-3.7-3.2-.1-.1-.2-.2-.4-.3M70.2 400.4z"/><path class="st112" d="M70.2 400.4c.1.1.3.2.4.3 1.4 1 2.6 2 3.7 3.2-1.1-1.2-2.3-2.3-3.7-3.2-.1-.1-.2-.2-.4-.3M70.2 400.4v.5c0 .5.1 1 .2 1.5-.1-.5-.1-1-.2-1.5.1-.2.1-.3 0-.5"/><path class="st112" d="M70.2 400.4v.5c0 .5.1 1 .2 1.5.2 1.1.4 2.2.8 3.3-.5-1.5-.8-3.1-1-4.8.1-.2.1-.3 0-.5"/><path class="st112" d="M70.2 400.4v.5c.1 1.7.5 3.3 1 4.8 1.7 1.3 3.3 2.8 4.6 4.3-.5-1.5-1-3.2-1.3-4.9-.1-.4-.1-.8-.2-1.3-1.1-1.2-2.3-2.3-3.7-3.2-.1 0-.2-.1-.4-.2"/><path class="st112" d="M74.3 403.9c.1.4.1.8.2 1.3 0-.5-.1-.9-.2-1.3"/><path class="st113" d="M71.2 405.7zM71.2 405.7zM71.2 405.7c1.7 1.2 3.1 2.7 4.4 4.1 0 .1.1.1.1.2-1.2-1.5-2.7-3-4.5-4.3"/><path class="st113" d="M71.2 405.7c1.7 1.2 3.1 2.7 4.4 4.1-1.2-1.4-2.7-2.8-4.4-4.1zM71.2 405.7zM71.2 405.7c.6 2.1 1.5 4 2.5 5.8-.9-1.8-1.8-3.7-2.5-5.8z"/><path class="st113" d="M71.2 405.7c.6 2.1 1.5 4 2.5 5.8l-.3-.6c-.8-1.6-1.6-3.3-2.2-5.2M73.4 410.9l.3.6-.3-.6M75.7 409.9c0 .1.1.1.1.2 0-.1-.1-.2-.1-.2m-.1-.1c.1 0 .1.1 0 0 .1.1.1 0 0 0z"/><path class="st113" d="M71.2 405.7c1.7 1.3 3.3 2.8 4.6 4.3 0-.1-.1-.1-.1-.2-1.3-1.4-2.8-2.8-4.5-4.1M71.2 405.7c.6 1.8 1.3 3.6 2.2 5.2-.8-1.6-1.6-3.3-2.2-5.2"/><path class="st113" d="M71.2 405.7c.6 1.8 1.3 3.6 2.2 5.2l.3.6c.7.6 1.4 1.2 2 1.8 1.2 1.1 2.2 2.2 3.1 3.3-1.1-1.9-2.2-4.1-3.1-6.6-1.2-1.5-2.7-3-4.5-4.3"/><path class="st113" d="M75.8 413.3c1.2 1.1 2.2 2.2 3.1 3.3-.9-1.1-2-2.2-3.1-3.3m0 0zM73.8 411.5zM73.8 411.5zM73.8 411.5zM73.8 411.5zM73.8 411.5c.7.6 1.4 1.2 2 1.8-.7-.6-1.3-1.2-2-1.8z"/><path class="st113" d="M73.8 411.5c.8.6 1.5 1.3 2.2 1.9 1.1 1.1 2.1 2.1 3 3.2-.9-1.1-1.9-2.2-3.1-3.3-.8-.6-1.4-1.2-2.1-1.8"/><path class="st113" d="M75.9 413.4c1.1 1.1 2.1 2.1 3 3.2-.9-1-1.9-2.1-3-3.2m0 0z"/><path class="st114" d="M73.8 411.5c1.3 2.3 2.8 4.3 4.2 5.9-.8-.9-1.5-1.9-2.3-3-.7-.9-1.4-1.9-1.9-2.9"/><path class="st114" d="M75.6 414.4c.8 1.1 1.5 2.1 2.3 3-.8-.9-1.5-1.9-2.3-3M73.8 411.5zM73.8 411.5c.6 1 1.2 2 1.8 2.9-.6-.9-1.3-1.9-1.8-2.9z"/><path class="st114" d="M73.8 411.5c.6 1 1.2 2 1.8 2.9.8 1.1 1.6 2.1 2.3 3-1.4-1.6-2.9-3.6-4.1-5.9M75.9 413.4zm-2.1-1.9c.8.6 1.5 1.3 2.2 1.9-.8-.6-1.5-1.3-2.2-1.9z"/><path class="st114" d="M73.8 411.5c1.3 2.3 2.8 4.3 4.2 5.9.9.8 1.7 1.5 2.4 2.2l1.4 1.4c-.2-.2-.4-.5-.6-.8-.7-1-1.5-2.2-2.3-3.6-.9-1-1.8-2.1-3-3.2-.7-.6-1.4-1.3-2.1-1.9"/><path class="st114" d="M81.2 420.2c.2.3.4.5.6.8-.2-.3-.4-.5-.6-.8M77.9 417.4zM77.9 417.4zM80.4 419.7zm0-.1zm-2.5-2.2c.9.8 1.7 1.5 2.4 2.2-.6-.6-1.5-1.4-2.4-2.2z"/><path class="st115" d="M81.80000000000001 421.09999999999997c-.4-.4-.8-.9-1.4-1.4.6.5 1 1 1.4 1.4zM77.9 417.4zM77.9 417.4zM77.9 417.4c.4.5.9 1 1.3 1.4-.4-.4-.9-.9-1.3-1.4z"/><path class="st115" d="M77.9 417.4c.4.5.9 1 1.3 1.4.4.5.9.9 1.3 1.3-.8-.7-1.7-1.6-2.6-2.7"/><path class="st115" d="M77.9 417.4c.9 1.1 1.8 2 2.5 2.8.3.3.6.6.9.8-.9-.9-2.1-2.1-3.4-3.6M77.9 417.4c1.7 1.4 3 2.7 3.9 3.7-.4-.4-.8-.9-1.4-1.4-.7-.7-1.6-1.5-2.5-2.3M77.9 417.4a36.514 36.514 0 0 0 0 0"/><path class="st115" d="M77.9 417.4c1.3 1.5 2.5 2.7 3.4 3.6l.3.3h.2v-.2c-.9-.9-2.2-2.3-3.9-3.7"/><path class="st116" d="M74.2 399.9c-.1 1.4 0 2.7.2 4-.1-.7-.1-1.3-.2-2v-2z"/><path class="st116" d="M74.2 401.9c0 .7.1 1.4.2 2-.1-.7-.2-1.3-.2-2M74.2 399.9v2-2"/><path class="st116" d="M74.2 399.9v2c0 .7.1 1.4.2 2 1.5 1.6 2.7 3.3 3.8 5.1-.3-1.6-.4-3.2-.4-4.9l-3.6-4.2z"/><path class="st116" d="M74.3 403.9c.8.9 1.6 1.8 2.3 2.8.5.7 1 1.5 1.4 2.2-.9-1.7-2.2-3.4-3.7-5"/><path class="st116" d="M76.7 406.8c.5.7 1 1.5 1.4 2.2-.4-.8-.9-1.5-1.4-2.2m-.1-.1c.1 0 .1 0 0 0 .1 0 .1 0 0 0z"/><path class="st117" d="M74.5 405.2c.3 1.7.7 3.3 1.3 4.9-.5-1.6-1-3.2-1.3-4.9M74.3 403.9zM74.3 403.9zM74.3 403.9c.8.9 1.6 1.8 2.3 2.8-.6-.9-1.4-1.9-2.3-2.8z"/><path class="st117" d="M74.3 403.9c1.5 1.6 2.7 3.3 3.8 5.1-.4-.7-.9-1.5-1.4-2.2-.7-1-1.5-2-2.4-2.9"/><path class="st117" d="M74.3 403.9c.1.4.1.8.2 1.3.3 1.7.7 3.3 1.3 4.9-.7-2-1.2-4-1.5-6.2zM74.3 403.9"/><path class="st117" d="M74.3 403.9c.3 2.2.8 4.2 1.5 6.1l1.2 1.5c1.2 1.5 2.2 3 3 4.5-.7-2-1.4-4.4-1.9-7-1-1.8-2.3-3.5-3.8-5.1"/><path class="st117" d="M77 411.5c.2.2.3.4.5.7 1 1.3 1.8 2.6 2.5 3.8-.8-1.5-1.8-3-3-4.5"/><path class="st117" d="M77.5 412.2c.2.2.3.4.5.7.8 1.1 1.4 2.1 2 3.1-.7-1.3-1.5-2.5-2.5-3.8"/><path class="st117" d="M78 412.8c.8 1.1 1.4 2.1 2 3.1-.6-1-1.3-2-2-3.1"/><path class="st118" d="M75.8 410zM75.8 410zM75.8 410zM75.8 410c.9 2.5 2 4.7 3.1 6.6-1.1-1.9-2.2-4.1-3.1-6.6M78.9 416.6zM78.9 416.6zM75.8 410l1.2 1.5-1.2-1.5"/><path class="st118" d="M75.8 410c.6.7 1.2 1.4 1.7 2.1-.2-.2-.3-.4-.5-.7-.4-.4-.8-.9-1.2-1.4"/><path class="st118" d="M75.8 410c.9 2.5 2 4.7 3.1 6.6-1.1-1.9-2.2-4.1-3.1-6.6"/><path class="st118" d="M75.8 410c.9 2.5 2 4.7 3.1 6.6-1.1-1.9-2.2-4.1-3.1-6.6M75.8 410c.8.9 1.5 1.8 2.2 2.8-.2-.2-.3-.4-.5-.7-.5-.7-1.1-1.4-1.7-2.1"/><path class="st118" d="M75.8 410c.9 2.5 2 4.7 3.1 6.6 1.2 1.5 2.2 2.8 2.9 3.9v-.3c-.5-1.1-1.2-2.5-1.8-4.2-.6-1-1.3-2.1-2-3.1s-1.4-1.9-2.2-2.9"/><path class="st118" d="M78.9 416.6c1.2 1.5 2.2 2.8 2.9 3.9-.7-1.1-1.7-2.4-2.9-3.9M78.9 416.6zM78.9 416.6z"/><path class="st118" d="M78.9 416.6c.8 1 1.5 1.9 2.1 2.7.3.4.6.8.8 1.1-.7-1-1.7-2.3-2.9-3.8M81 419.3zm0 0zm-2.1-2.7c.8 1 1.5 1.9 2.1 2.7-.6-.8-1.3-1.8-2.1-2.7z"/><path class="st119" d="M78.9 416.6c.8 1.4 1.6 2.6 2.3 3.6-.4-.5-.8-1.1-1.2-1.8-.4-.6-.7-1.2-1.1-1.8"/><path class="st119" d="M80 418.4c.4.7.9 1.3 1.2 1.8.2.3.4.5.6.8-.2-.3-.5-.6-.7-1-.4-.5-.7-1-1.1-1.6"/><path class="st119" d="M81.1 420c.3.4.5.7.7 1-.2-.3-.5-.7-.7-1M78.9 416.6c.4.6.7 1.2 1.1 1.8-.4-.6-.7-1.2-1.1-1.8"/><path class="st119" d="M78.9 416.6c.4.6.7 1.3 1.1 1.8.4.6.7 1.1 1.1 1.6-.7-.9-1.5-2.1-2.2-3.4zM81 419.3zm.8 1.2c-.2-.3-.5-.7-.8-1.1.3.3.6.7.8 1.1zm-.8-1.2s-.1 0 0 0c-.1 0 0 0 0 0z"/><path class="st119" d="M78.9 416.6c.8 1.3 1.5 2.5 2.2 3.4.3.4.5.7.7 1v-.5c-.2-.3-.5-.7-.8-1.1-.6-.9-1.3-1.9-2.1-2.8"/><path class="st120" d="M79.9 406.7c.2.5.5 1.1.7 1.6v-.8l-.7-.8z"/><path class="st120" d="M79.9 406.7c.2.5.5 1.1.7 1.6-.3-.5-.5-1.1-.7-1.6z"/><path class="st120" d="M79.9 406.7c.2.5.5 1.1.7 1.6-.3-.5-.5-1.1-.7-1.6z"/><path class="st120" d="M79.9 406.7c.2.5.5 1.1.7 1.6-.3-.5-.5-1.1-.7-1.6"/><path class="st121" d="M77.7 404.1c0 1.7.2 3.3.4 4.9-.1-.8-.2-1.6-.3-2.5-.1-.8-.1-1.6-.1-2.4z"/><path class="st121" d="M77.7 404.1c0 .8 0 1.6.1 2.4-.1-.8-.1-1.6-.1-2.4M78.1 409zM78.1 409zM77.8 406.5c.1.8.2 1.7.3 2.5-.1-.8-.2-1.7-.3-2.5"/><path class="st121" d="M77.7 404.1c0 .8 0 1.6.1 2.4.1.8.2 1.7.3 2.5-.2-1.6-.4-3.2-.4-4.9z"/><path class="st121" d="M77.7 404.1c0 1.7.2 3.3.4 4.9.6.9 1 1.9 1.5 2.8.6 1.3 1.1 2.6 1.6 3.8-.4-2.1-.7-4.6-.6-7.2-.2-.5-.4-1.1-.7-1.6l-2.2-2.7z"/><path class="st121" d="M79.6 411.7c.3.5.5 1.1.7 1.6.3.8.6 1.5.9 2.2-.4-1.2-1-2.4-1.6-3.8"/><path class="st121" d="M80.3 413.3c.3.8.6 1.5.9 2.2-.3-.7-.6-1.4-.9-2.2M78.1 409zM78.1 409c.6.9 1 1.9 1.5 2.8-.4-1-.9-1.9-1.5-2.8M78.1 409z"/><path class="st121" d="M78.1 409c.2.3.4.7.6 1 .6 1.1 1.2 2.3 1.6 3.3-.2-.5-.5-1-.7-1.6-.4-.9-.9-1.8-1.5-2.7"/><path class="st121" d="M78.7 410c1.1 1.9 1.9 3.8 2.5 5.5-.3-.7-.5-1.4-.9-2.2-.4-1.1-1-2.2-1.6-3.3"/><path class="st122" d="M78.1 409zM78.1 409c.4 2.6 1.1 5 1.9 7-.8-2.1-1.5-4.4-1.9-7zM80 416zM80 416z"/><path class="st122" d="M78.1 409c.4 2.6 1.1 5 1.9 7-.8-2.1-1.5-4.4-1.9-7M78.1 409zM78.1 409c.2.3.4.7.6 1-.2-.4-.4-.7-.6-1"/><path class="st122" d="M78.1 409c.4 2.6 1.1 5 1.9 7-.8-2.1-1.5-4.4-1.9-7z"/><path class="st122" d="M78.1 409c.4 2.6 1.1 5 1.9 7 .4.7.8 1.4 1.1 2 .3.5.5 1 .7 1.4v-1.1c-.2-.9-.4-1.8-.6-2.8-.6-1.7-1.4-3.6-2.5-5.5-.2-.4-.4-.7-.6-1"/><path class="st122" d="M81.1 418c.1.2.2.5.4.7l.3.6c-.2-.3-.4-.8-.7-1.3M81.5 418.7zm.3.7-.3-.6.3.6zm-.4-.7s.1 0 0 0c.1 0 0 0 0 0zM80 416zM80 416zM80 416zM80 416z"/><path class="st122" d="M81.5 418.7zm0 0zM80 416c.6 1 1.1 1.9 1.5 2.8-.1-.2-.2-.5-.4-.7-.3-.7-.7-1.4-1.1-2.1zM80 416z"/><path class="st122" d="M80 416c.7 1.3 1.3 2.5 1.8 3.5l-.3-.6c-.5-1-.9-2-1.5-2.9"/><path class="st123" d="M80 416c.6 1.7 1.3 3.1 1.8 4.2-.6-1.1-1.2-2.6-1.8-4.2z"/><path class="st123" d="M80 416c.6 1.7 1.3 3.1 1.8 4.2l-.3-.6c-.5-1-1-2.2-1.5-3.6M81.5 419.6l.3.6-.3-.6"/><path class="st123" d="M80 416c.5 1.4 1 2.6 1.5 3.6-.5-1-1-2.2-1.5-3.6z"/><path class="st123" d="M80 416c.5 1.4 1 2.6 1.5 3.6l.3.6v-.8c-.5-1-1.1-2.2-1.8-3.4"/><path class="st124" d="M80.6 407.5v.8-.8M80.6 408.3zM80.6 408.3zM80.6 407.5v.8-.8M80.6 408.3zM80.6 407.5v.8-.8M80.6 407.5v.8c.5 1.3.9 2.7 1.2 4V409l-1.2-1.5z"/><path class="st124" d="M80.6 408.3c.2.5.3.9.5 1.4.3.9.5 1.7.7 2.6-.3-1.3-.7-2.6-1.2-4"/><path class="st124" d="M81 409.7c.3.9.5 1.7.8 2.6-.2-.9-.5-1.7-.8-2.6M80.6 408.3c.2.5.3.9.5 1.4-.2-.5-.4-.9-.5-1.4"/><path class="st124" d="M80.6 408.3c.5 1.3.9 2.7 1.2 4-.2-.8-.5-1.7-.7-2.6-.2-.5-.4-.9-.5-1.4M80.6 408.3c0 2.6.2 5.1.6 7.2-.4-2.1-.7-4.6-.6-7.2zM81.2 415.5zM81.2 415.5"/><path class="st124" d="M80.6 408.3c0 2.6.2 5.1.6 7.2-.4-2.1-.7-4.6-.6-7.2M81.2 415.5zM81.2 415.5z"/><path class="st124" d="M80.6 408.3c0 2.6.2 5.1.6 7.2-.4-2.1-.7-4.6-.6-7.2"/><path class="st124" d="M80.6 408.3c0 2.6.2 5.1.6 7.2l.6 1.8v-5c-.3-1.3-.7-2.6-1.2-4M81.2 415.5l.6 1.8-.6-1.8M81.2 415.5l.6 1.8-.6-1.8M81.2 415.5l.6 1.8-.6-1.8"/><path class="st125" d="M81.2 415.5c.2 1 .4 2 .6 2.8-.2-.8-.4-1.7-.6-2.8"/><path class="st125" d="M81.2 415.5c.2 1 .4 2 .6 2.8-.2-.8-.4-1.7-.6-2.8"/><path class="st125" d="M81.2 415.5c.2 1 .4 2 .6 2.8-.2-.8-.4-1.7-.6-2.8"/><path class="st125" d="M81.2 415.5c.2 1 .4 2 .6 2.8v-1l-.6-1.8"/><path class="st126" d="M85.6 407.6v.8l.6-1.5-.6.7zM85.6 407.6v.8-.8zM85.6 407.6v.8-.8M85.6 407.6v.8-.8z"/><path class="st126" d="M84.4 412.2c.3-1.3.7-2.6 1.2-3.9v-.8l-1.2 1.4v3.3zM88.4 404.1c0 .7 0 1.4-.1 2.1l-.3 2.7c1-1.8 2.3-3.5 3.7-5.1.2-1.3.2-2.6.2-3.9l-3.5 4.2z"/><path class="st126" d="M88.3 406.3 88 409c.2-.9.3-1.8.3-2.7M88.4 404.1c0 .7 0 1.4-.1 2.1.1-.6.1-1.4.1-2.1z"/><path class="st126" d="M88.4 404.1c0 1.7-.2 3.3-.4 4.8l.3-2.7c.1-.6.1-1.4.1-2.1z"/><path class="st126" d="M88.4 404.1c0 1.7-.2 3.3-.4 4.8.3-1.5.4-3.1.4-4.8M86.2 406.8l-.6 1.5.6-1.5M86.2 406.8l-.6 1.5.6-1.5M86.2 406.8l-.6 1.5.6-1.5zM85.6 408.3z"/><path class="st126" d="m86.2 406.8-.6 1.5c0 2.6-.2 5.1-.6 7.2.7-2 1.7-4.3 3.1-6.6.2-1.5.4-3.2.4-4.8l-2.3 2.7z"/><path class="st126" d="M85.6 408.3c0 2.6-.2 5.1-.6 7.2.3-2.1.6-4.6.6-7.2M85.6 408.3z"/><path class="st126" d="M85.6 408.3c0 2.6-.2 5.1-.6 7.2.3-2.1.6-4.6.6-7.2M85.6 408.3z"/><path class="st126" d="M85.6 408.3c0 2.6-.2 5.1-.6 7.2.3-2.1.6-4.6.6-7.2M85.6 408.3c-.5 1.3-.9 2.6-1.2 3.9.3-1.3.7-2.5 1.2-3.9"/><path class="st126" d="M85.6 408.4c-.5 1.3-.9 2.6-1.2 3.8.3-1.3.7-2.5 1.2-3.8M85.6 408.3a29.066 29.066 0 0 1 0 0z"/><path class="st126" d="M85.6 408.3c-.5 1.3-.9 2.6-1.2 3.9v5.1c.2-.6.4-1.1.6-1.8.3-2.1.6-4.6.6-7.2"/><path class="st127" d="M91.8 403.9a25.435 25.435 0 0 1 0 0M88 409zM88 409zM91.8 403.9zM91.8 403.9c-1.5 1.6-2.7 3.3-3.7 5.1-.4 2.6-1.1 5-1.9 7 1.1-1.9 2.4-3.9 4.1-5.9.7-2 1.2-4.1 1.5-6.2"/><path class="st127" d="M88 409c-.4 2.6-1.1 5-1.9 7 .8-2.1 1.5-4.5 1.9-7"/><path class="st127" d="M88 409c-.4 2.6-1.1 5-1.9 7 .8-2.1 1.5-4.5 1.9-7M88 409"/><path class="st127" d="M88 409c-.4 2.6-1.1 5-1.9 7 .8-2.1 1.5-4.5 1.9-7M88 409c-1.3 2.2-2.3 4.5-3.1 6.6.8-2.1 1.8-4.4 3.1-6.6M85 415.5zM85 415.5"/><path class="st127" d="M88 409c-1.3 2.2-2.3 4.5-3.1 6.6.4-1.2 1-2.5 1.6-3.9L88 409M85 415.5"/><path class="st127" d="M88 409c-.5.9-1 1.8-1.4 2.7.4-.9.9-1.8 1.4-2.7M85 415.5zM86.6 411.7c-.6 1.3-1.2 2.6-1.6 3.9.4-1.3.9-2.6 1.6-3.9"/><path class="st127" d="M88 409c-.5.9-1 1.8-1.4 2.7-.6 1.3-1.2 2.6-1.6 3.9-.2 1-.4 2-.6 2.8v1.1c.5-1 1.1-2.2 1.8-3.5.7-2.1 1.4-4.5 1.8-7"/><path class="st127" d="M85 415.5c-.2 1-.4 2-.6 2.8.2-.8.4-1.8.6-2.8M85 415.5"/><path class="st127" d="M85 415.5c-.2 1-.4 2-.6 2.8.2-.8.4-1.8.6-2.8M85 415.5"/><path class="st127" d="M85 415.5c-.2 1-.4 2-.6 2.8.2-.8.4-1.8.6-2.8M85 415.5l-.6 1.8c.2-.6.3-1.2.6-1.8zM85 415.5l-.6 1.8.6-1.8zM85 415.5a32.506 32.506 0 0 0 0 0"/><path class="st127" d="M85 415.5c-.2.6-.4 1.2-.6 1.7v1.1c.2-.8.4-1.8.6-2.8M90.3 410a37.307 37.307 0 0 1 0 0zM86.2 415.9zM86.2 415.9v.1-.1M90.3 410a37.307 37.307 0 0 1 0 0M86.2 415.9zM86.2 415.9zM90.3 410a37.307 37.307 0 0 1 0 0M90.3 410c-1.7 2-3.1 4.1-4.1 5.9-.6 1.7-1.3 3.1-1.8 4.2v.3c.7-1.1 1.7-2.4 2.9-3.9 1-1.8 2.1-4 3-6.5"/><path class="st127" d="M86.2 416c-.6 1.7-1.3 3.1-1.8 4.2.5-1.1 1.2-2.6 1.8-4.2M86.2 415.9v.1-.1z"/><path class="st127" d="M86.2 416c-.6 1.7-1.2 3.1-1.8 4.2.5-1.1 1.2-2.6 1.8-4.2M86.2 416"/><path class="st127" d="M86.2 416c-.6 1.7-1.2 3.1-1.8 4.2.5-1.1 1.2-2.6 1.8-4.2M86.2 415.9c-.7 1.3-1.3 2.5-1.8 3.5.4-1 1-2.2 1.8-3.5z"/><path class="st127" d="M86.2 416c-.7 1.3-1.3 2.5-1.8 3.5.4-1.1 1-2.3 1.8-3.5z"/><path class="st127" d="M86.2 416c-.7 1.3-1.3 2.5-1.8 3.5.4-1.1 1-2.3 1.8-3.5z"/><path class="st127" d="M86.2 416c-.7 1.3-1.3 2.5-1.8 3.5v.8c.5-1.2 1.2-2.7 1.8-4.3M87.3 416.6c-1.2 1.5-2.2 2.8-2.9 3.9.7-1.1 1.6-2.4 2.9-3.9z"/><path class="st127" d="M87.3 416.6c-1.2 1.5-2.2 2.8-2.9 3.9.7-1.1 1.6-2.4 2.9-3.9"/><path class="st127" d="M87.3 416.6c-1.2 1.5-2.2 2.8-2.9 3.9.7-1.1 1.6-2.4 2.9-3.9z"/><path class="st127" d="M87.3 416.6c-1.2 1.5-2.2 2.8-2.9 3.9v.5c.8-1.1 1.8-2.6 2.9-4.4"/><path d="M162.4 427.8c.3-1.7.5-3.4.5-5.2 0-1.8-.2-3.5-.5-5.2-2.4-11.8-12.8-20.7-25.4-20.7s-23 8.9-25.4 20.7c-.3 1.7-.5 3.4-.5 5.2 0 1.8.2 3.5.5 5.2 2.4 11.8 12.8 20.7 25.4 20.7 10.6 0 19.7-6.4 23.7-15.5h-12.1c-2.8 3.2-7 5.2-11.5 5.2-6.8 0-12.5-4.3-14.6-10.4h39.9zm-39.9-10.4c2.1-6 7.9-10.4 14.6-10.4 6.8 0 12.5 4.3 14.6 10.4h-29.2zM257.7 396.7v5.2c-4.3-3.3-9.7-5.2-15.5-5.2-14.3 0-25.9 11.6-25.9 25.9 0 14.3 11.6 25.9 25.9 25.9 5.8 0 11.2-2 15.5-5.2v5.2H268v-51.7h-10.3zm-15.5 41.4c-8.6 0-15.5-6.9-15.5-15.5s7-15.5 15.5-15.5c8.6 0 15.5 6.9 15.5 15.5s-6.9 15.5-15.5 15.5zM201.8 396.7l-12.2 34.1-12.1-34.1h-13.7l18.4 51.8H197.1l18.4-51.8zM51.3 469.2v-10.3h1.6l3.8 8.8 3.7-8.8H62v10.3h-1V460l-3.9 9.2h-.9l-3.9-9.2v9.2zM83.2 464c0-.6.1-1.3.4-1.9.3-.6.6-1.2 1.1-1.7.5-.5 1.1-.9 1.7-1.2.7-.3 1.4-.4 2.2-.4 1 0 1.9.2 2.8.7.8.5 1.5 1.1 2 2 .5.8.7 1.8.7 2.8 0 .8-.2 1.5-.5 2.1-.3.7-.7 1.2-1.3 1.7-.5.5-1.1.8-1.8 1.1-.7.3-1.3.4-2 .4s-1.3-.2-1.9-.4c-.6-.3-1.2-.6-1.7-1.1-.5-.5-.9-1.1-1.2-1.7-.3-.9-.5-1.6-.5-2.4m1.1-.1c0 .8.2 1.5.4 2.1.3.6.6 1.1 1.1 1.4.4.4.9.6 1.4.8.5.2 1 .3 1.5.3s1-.1 1.5-.3c.5-.2 1-.4 1.4-.8.4-.3.8-.8 1.1-1.3.3-.5.4-1.2.5-1.9 0-.9-.2-1.6-.6-2.3-.4-.7-1-1.2-1.7-1.6-.7-.4-1.4-.6-2.2-.6-.6 0-1.2.1-1.7.4-.5.2-1 .6-1.4 1-.4.4-.7.9-1 1.4-.2.4-.3.9-.3 1.4zM115.4 469.2v-10.4h2.8c.9 0 1.6.1 2.1.3.6.2 1 .5 1.3.8.3.3.5.7.6 1 .1.4.2.7.2 1.1 0 .6-.1 1.1-.4 1.6-.3.5-.6.9-1.1 1.2-.5.3-1 .4-1.6.4l2.9 3.9H121l-3.5-4.7h.9c.6 0 1.2-.1 1.6-.3.5-.2.8-.4 1.1-.8.3-.4.4-.8.4-1.3s-.1-.9-.4-1.3c-.3-.4-.6-.6-1.1-.8-.4-.2-.9-.3-1.4-.3h-2.1v9.4h-1.1zM144.9 469.2v-9.4h-2.3v-.9h5.7v.9H146v9.4zM168.6 464.1c0-.8.2-1.6.5-2.2.3-.7.7-1.2 1.2-1.7s1.1-.8 1.7-1.1c.6-.2 1.3-.4 1.9-.4.5 0 1 .1 1.5.2s1 .3 1.4.6c.4.2.9.6 1.2.9.4.4.7.8.9 1.3h-1.2c-.2-.4-.6-.8-1-1.1-.4-.3-.8-.5-1.3-.7-.5-.1-1-.2-1.5-.2-.7 0-1.3.2-1.8.4-.5.3-1 .6-1.4 1-.4.4-.7.9-.9 1.4-.2.5-.3 1-.3 1.6 0 .9.2 1.6.7 2.3.4.7 1 1.2 1.7 1.5.7.4 1.4.6 2 .6.5 0 1.1-.1 1.7-.3.6-.2 1.2-.6 1.7-1 .5-.5.8-1 1-1.7h-5.8v-.9h7c-.1.8-.3 1.5-.7 2.2-.3.6-.8 1.2-1.3 1.6-.5.4-1.1.7-1.7.9-.6.2-1.3.3-1.9.3-.7 0-1.4-.1-2.1-.4-.7-.3-1.2-.7-1.8-1.1-.5-.5-.9-1.1-1.2-1.7-.1-.9-.2-1.6-.2-2.3M204.3 458.9h1.1l4.5 10.4h-1.1l-1.5-3.5h-4.8l-1.5 3.5h-1.1l4.4-10.4zm.6 1.2-2 4.7h4l-2-4.7zM230.2 464.1c0-.8.2-1.6.5-2.2.3-.7.7-1.2 1.2-1.7s1.1-.8 1.7-1.1c.6-.2 1.3-.4 1.9-.4.5 0 1 .1 1.5.2s1 .3 1.4.6c.4.2.9.6 1.2.9.4.4.6.8.9 1.3h-1.2c-.2-.4-.6-.8-1-1.1-.4-.3-.8-.5-1.3-.7-.5-.1-1-.2-1.5-.2-.7 0-1.3.2-1.8.4-.5.3-1 .6-1.4 1-.4.4-.7.9-.9 1.4-.2.5-.3 1-.3 1.6 0 .9.2 1.6.7 2.3.4.7 1 1.2 1.7 1.5.7.4 1.4.6 2 .6.5 0 1.1-.1 1.7-.3.6-.2 1.2-.6 1.7-1 .5-.5.8-1 1-1.7h-5.8v-.9h7c-.1.8-.3 1.5-.7 2.2-.3.6-.8 1.2-1.3 1.6-.5.4-1.1.7-1.7.9-.6.2-1.3.3-1.9.3-.7 0-1.4-.1-2.1-.4-.7-.3-1.2-.7-1.8-1.1-.5-.5-.9-1.1-1.2-1.7 0-.9-.2-1.6-.2-2.3M262.4 469.2v-10.3h5.7v.9h-4.7v3.7h4.5v1h-4.5v3.8h4.7v.9z"/></svg>