<svg version="1.1" id="Layer_1" xmlns="http://www.w3.org/2000/svg" x="0" y="0" width="612" height="792" style="enable-background:new 0 0 612 792" xml:space="preserve"><style>.st1{fill:#ce0e2d}</style><path d="M353.3 353c0 27.3-22.1 49.4-49.4 49.4-27.3 0-49.4-22.1-49.4-49.4 0-27.3 22.1-49.4 49.4-49.4 27.3 0 49.4 22.1 49.4 49.4z" style="fill:#fff"/><path class="st1" d="M272.8 431.6c-1-.7-2.1-1.1-3.2-1.1-1-.1-2.2 0-3.1.1h-.1c-2 .3-4 1-5.5 1.8s-2.9 1.9-4.3 3.1c-1.2 1.1-2.5 2.3-3.6 3.9-.7 1-2.2 3-3.3 5.2-1.6 3-2.9 6.5-4.1 10.6-.8 0-2.4-.3-3.2-.5-.5-.1-.7-.1-.8-.1h-.3c3.5-14.7 6-23.1 7.8-28.8 1-2.8 2-5.6 2.9-8.5.8-1.6 1.2-3.8 1.2-4.8-.2-3-2.2-5.9-5.9-5.1-3.8.9-6.1 5.7-9.2 16.5-2.6 9.1-4 14.9-6.1 24.7-.9 4.5-1.8 8.9-2.7 13.4-.1.7-.3 1.3-.4 2-.3 1.4-.5 1.8-1 1.9-.2.1-.6-.1-.7-.7-.3-1.2-.6-3.8-.8-7.2-.2-7.6-.9-15.6-.6-25.6.2-5.7.2-6.6-.2-8.1-.7-2.8-4.2-4.5-8.1-3.6-3.8 1-5 5.3-7.2 11.1-1.5 4-3.8 11-6 17.9-2.1 7.1-4.6 15.8-4.6 15.8-.2.6-.3 1.2-.5 1.8-.2.6-.3 1.2-.5 1.8-.5 1.5-.7 1.8-1.1 1.9-.4.1-.6-.2-.7-.6-.2-.9-.2-6.6-.1-9.6.1-6.1.7-12.8 1.3-18.7.3-4.3 1.4-11.8 1.8-16.1.1-1.3.2-2.7.3-3.6.1-2.7-.1-4.1-1.3-5.4-1.9-1.6-4.1-1.5-6.8-.9-4.2 1-7.4 3.6-7 5 .1.2.3.4.5.7.6.9 1 1.5 1.2 2.4.3 1.1.5 2.6.4 5.1-.1 2.2-.2 4.4-.3 6.7-.5 6.7-1.3 18.7-1.6 27-.2 7.1.1 12.1.6 19.1.3 3.5 1 6.4 1.4 8 .7 2.8 2.1 5.9 4.6 6.5 1.8.5 3.2.4 5.6-.3 2.2-.6 5.5-2.7 6.3-6 .9-3.7 1.9-7.4 2.8-11.1.8-3.9 2.7-10.9 4.3-17 .9-3.6 2.1-7.6 2.8-9.7.4-1.1.6-1.3.8-1.4.2-.1.4 0 .5.2 0 .1.1.3.1.7v.7c0 .8 0 1.5.1 2.3.2 7.4 1.6 20.1 2.9 25.3.9 3.4 1.1 7.6 6.4 8.4 2.4.4 4.4-.3 4.4-.3 3.9-1.2 4.9-3.4 5.7-7.2.6-2.4 2.3-9.1 3.3-13.3.3-1.3.6-2.5.9-3.8.7.2 3.9.7 5.3.8 0 .4 0 .6.1.9 0 .2.1.5.1.7 0 .3.1.6.2 1s.2.9.3 1.3c.6 2.2 1.4 4.1 2.6 5.7 1.1 1.5 2.3 2.5 3.9 3.4 1.5.8 4.1 1.2 6.6.9.3 0 .7 0 1-.1h.2c.2 0 .3-.1.5-.1l1.2-.3c3.9-1.1 8.9-4.6 10.6-9.6.7-2 .3-3.2-.1-3.9-.5-.8-1.3-1.2-2.1-1.2-.3 0-.5 0-.8.1-1.7.3-3 1.2-4.1 2.1-1 .8-2 1.5-3.2 1.7-1.4.3-2.3.2-3.1-.2-.9-.4-1.2-.8-1.5-1.6-.2-.5-.3-1.1-.4-1.9 2.2-.6 4.7-1.7 6.8-3 2.3-1.5 4.5-3.4 6.3-5.5 1.9-2.1 3.4-4.5 4.6-7.1 1.2-2.4 2-5.7 2.2-8.4.2-2.1-.1-3.9-.7-5.2-.7-1.3-1.5-2.3-2.5-3zm-8 15.8c-1.2 1.9-2.5 3.4-3.8 4.6-1.5 1.3-2.6 2-4 2.8-.6.3-1.1.5-1.5.6.2-1.1.6-2.7 1.1-4 .8-1.9 1.8-3.8 3-5.6 1.4-2.1 2.6-3.5 3.8-4.5.8-.7 1.5-1.1 2.1-1.2 1.2-.2 1.3 1.3 1.3 1.7 0 1.8-1.1 4.1-2 5.6zm156.9 11.9c-.4 2.9-1.6 5.2-3.5 7.1-1.8 1.7-3.8 3.1-6.1 4.1-2.3 1-4.6 1.6-6.9 1.9-2.1.3-3.9.3-5.4.2h-.4c-3.6-.5-6.1-1.6-7.6-3.6-1.4-1.9-2-4-1.7-6 .3-2.4 1.6-3.6 2.6-4.1 1.2-.7 2.3-1 3.2-.9h.1c1 .1 2.1.6 3.4 1.5.9.6 2 1 3.5 1.2 1.9.2 3.4.1 4.4-.3.7-.3 1.1-.7 1.1-1 0-.1.1-.5-.5-1-.6-.6-1.5-1.2-2.6-1.7-1.1-.6-2.4-1.2-3.8-1.8-1.5-.7-2.9-1.4-4.1-2.3-1.3-.9-2.4-2-3.2-3.3-.9-1.4-1.2-3.1-1-5 .3-2.2 1.3-4.4 2.9-6.7 1.5-2.1 3.4-4.1 5.6-5.8 2.2-1.7 4.6-3 7.3-3.9 2.7-1 5.4-1.3 8-.9 2.5.4 4.4 1.5 5.7 3.4 1.3 1.9 1.7 4.5 1.3 7.7-.2 1.6-.8 3-1.7 4.2-.8 1-2.2 2.2-4.9 1.8-1.8-.3-2.5-1.2-2.8-2-.3-.6-.5-1.3-.6-2-.1-.5-.1-1.1-.4-1.4-.2-.2-.6-.3-1-.3 0 0-.4 0-1.3.2-.8.2-1.6.6-2.3 1-.8.5-1.5 1-2.1 1.7-.5.5-.8 1.1-.9 1.6 0 .3-.1.7.5 1.3.7.7 1.6 1.4 2.8 2 1.1.7 2.4 1.4 3.9 2.1 1.6.8 3.1 1.6 4.3 2.6 1.3 1 2.4 2.2 3.3 3.5.8 1.3 1.2 3 .9 4.9zm-27.4-31.6c-.1-.6-.3-1.3 0-2.4.1-.4.5-1.5.8-2.5.3-1.3.4-2.6.1-3.8-.3-1.1-.3-2.6 0-3.5.5-1.3 1.7-2.1 2.6-2.2 1.3-.2 2.7-.1 3.8.4 1.2.6 2.3 2.1 2.5 3.1.6 2.2.3 4 0 5.4-.3 1.7-1 3.3-1.8 4.5-.5.9-1.4 1.7-2.2 2.2-1 .7-2.5.9-4.2.3-.7.1-1.5-.9-1.6-1.5zm-2.6 1.1c.2.8.3 1.9.1 3.2-.1 1.2-.3 2.5-.7 4 0 .1-1.9 7.4-2.6 10.9-.6 2.8-.9 5-1.4 7.5v.2c-.4 2.5-1 7.9-1.4 11.8-.7 7.5-.9 9.2-2.9 15-2.1 5.9-6.9 9.8-9.1 11-4 2.3-8.6 3.4-13.5 3.5-.2 0-.5 0-.8-.1-.5 0-1.1-.1-1.7-.2-5.2-.9-8.2-4.2-7.6-8.5.3-2.2 2-3.6 4.3-3.3 2.1.4 4.1.5 5.8.5 5.4-.1 9.1-1.8 11.3-5.6 2.3-3.9 2.6-6.4 3-9.9.1-.5.1-.9.2-1.4.2-1.8.4-3.5.6-5.3-.9 1.2-1.7 2.1-2.5 2.9-1.7 1.6-3.2 2.8-4.6 3.6-1.6 1-3.2 1.5-4.7 1.7h-.1c-2.5-.1-4.4-1-5.7-2.8-1.1-1.6-2-3.6-2.6-6-.6-2.3-.9-4.8-.9-7.3s.1-4.8.3-7c.6-6.6 2-11.9 4-15.6 2.3-4.2 5.2-6.3 8.6-6.2.2 0 .4 0 .9.1.6.1 1.2.3 1.6.6.5.3.9.8 1.3 1.5s.5 1.6.4 2.7c-.1 1.1-.5 2.3-1.3 3.7-.7 1.3-1.3 2.8-1.9 4.3-.5 1.4-1 3-1.5 4.8-.5 1.8-.8 3.8-1 5.8 0 .3-.1 1-.2 2.2-.1.9-.1 1.9 0 2.9.1.9.2 1.7.5 2.3.1.4.6.6.8.6.2 0 .4.1.7.1.5 0 1-.2 1.5-.5.4-.2 1.3-1 2.4-2.5.8-1 2.2-3.1 3.4-5.9.6-1.3 1.3-3.5 2-5.7.8-2.6 2.3-7.6 3.2-9.7.5-1.3 1.2-2.5 1.9-3.6.6-1 1.7-2 2.5-2.5 1.2-.8 2.5-1.2 4-1.1.3 0 .7.1 1.2.2.6.2 1.2.5 1.6 1 0 .5.3 1.2.6 2.1zm-37.5-31.9c-4.2-.7-7.2 2.5-8.5 5.6-.5 1.1-.6 1.7-1 3.1-.4 1.4-.6 2.4-1 3.9-.2 1-.6 2.6-.8 3.3-.3 1.3-.3 1.5-.7 3.5-.4 1.9-.6 3.2-.9 5-.2 1.3-.4 2.4-.6 3.7-3 .7-6 1.9-9.1 3.5-3.3 1.8-6.3 4.1-9.1 6.9-2.8 2.8-5.1 6.1-7.1 9.9-2 3.8-3.2 8-3.7 12.6-.1.6-.1 1.2-.1 1.8-.4-.3-.8-.7-1.1-1.2-.6-.9-1-1.9-1.3-3.1-.3-1.2-.4-2.7-.4-3.9 0-1.3.1-2.1.2-3 .1-1 .2-1.9.4-2.7.1-.5.2-1 .2-1.5 0-.3.1-.6.1-1 .6-3.6.9-6.1.5-8.6-.2-1.6-1.6-4.8-4.9-4.9h-.8c-2.2.2-4.9 1.4-6.5 2.6-2.1 1.5-4.1 3.3-6 5.5-.8.9-1.4 1.7-1.9 2.5.3-1 .7-2 1.2-2.9.3-.6.5-1.2.7-1.8 0-.1.1-.1.1-.2.5-1.4 1.1-2.8 1.2-4 .1-1-.1-1.9-.5-2.5-.4-.5-.8-.9-1.3-1.2-.5-.2-1-.3-1.6-.3h-.9c-1.3.1-2.4.5-3.4 1.2-.9.6-1.6 1.2-2.3 1.9-.7.8-1.2 1.6-1.7 2.3-.7 1.1-1.4 2.7-2 4.8-.6 1.9-1.2 4.1-1.7 6.4-.5 2.2-1 4.5-1.4 6.8-.4 2.3-.7 4.3-.9 5.9-.2 2-.4 4-.5 5.9-.1 1.9-.1 3.7.1 5.3.2 1.6.6 3 1.2 4 .8 1.2 2 1.8 3.6 1.6h.1c.3 0 1.3-.2 2.3-.5.9-.3 2.3-1.3 3.4-3.1.7-1 1.3-3.8 2.2-7.2.2-.8.4-1.5.5-2.1 3.2-12.4 7.8-15 10.1-15.5-.2 1.4-.3 2.8-.5 4.2-.1 1.8-.2 3.5-.3 5.4.1 3.6.4 5.7.9 7.5.5 2.1 1.4 4.6 2.6 5.9 1.3 1.5 2.6 2.5 4.9 2.4 1-.1 1.5-.2 2.6-.7 1.1-.5 1.6-.9 2.6-1.8.7-.7 1.1-1.3 1.4-1.9.4.8 1 1.5 1.6 2 1 .9 2.5 1.3 4.4 1.3h.1c.2 0 .7-.1 2.1-.3 1.3-.2 2.9-.7 4.8-1.5 1.8-.8 3.9-2.1 6.1-3.8 1.6-1.2 3.2-2.8 4.9-4.6-.2 2.6-.3 5.2.9 8.6.5 1.4 1.1 2.6 2.1 3.9 1.1 1.4 2.7 2.2 4.9 2.2h.2c1-.2 1.9-.4 2.6-.8.7-.4 1.4-1 2.1-1.7.8-.9 1.2-2 1.4-3.4 0-.4 0-.9-.1-1.4-.1-.5-.4-1-.7-1.4-.1-.2-.2-.4-.4-.6-.7-1.3-1.2-2.3-1.4-3.2-.5-2.3-.7-4.2-.6-8 0-1.8.2-3.7.3-5.6.1-1.8.3-3.7.6-5.6.1-1.3.3-2.6.4-3.8 0-.5.1-.9.1-1.2h.3c1 0 2-.3 3-1 1.2-.8 1.9-2.3 2.1-4.4.2-1.8-.3-3.3-1.3-4.4-.7-.7-1.4-1.2-2.2-1.7.1-.7.2-1.3.3-1.9.1-.8.2-1.4.4-2 .1-.4.2-.8.2-1.1.1-.3.1-.7.2-1 0-.1 1.3-6.2 3.9-15.2.4-1.5.6-2.6.7-3.6.4-1.4 0-3.7-2.6-4.1zM336.9 444c-1.3 2.7-2.8 5.1-4.4 7.1-1.6 2-3.3 3.6-4.9 4.8-1.4 1-2.7 1.8-3.6 1.6-.6-.2-.6-1.3-.5-2 .2-2.1.9-4.2 2-6.3 1.1-2.1 2.5-4.1 4.1-5.9 1.6-1.8 3.4-3.3 5.2-4.4 1.5-.9 2.9-1.5 4.3-1.9-.5 2.5-1.2 4.8-2.2 7zM423.7 469c1.5 0 2.7 1.2 2.7 2.6 0 1.5-1.2 2.7-2.7 2.7-1.5 0-2.7-1.2-2.7-2.7 0-1.5 1.2-2.6 2.7-2.6zm0 .5c-1.1 0-2 .9-2 2.1 0 1.2.9 2.1 2.1 2.1 1.1 0 2-.9 2-2.1-.1-1.1-.9-2.1-2.1-2.1zm-.4 3.5h-.6v-2.6c.2 0 .6-.1 1-.1.5 0 .7.1.9.2.2.1.3.3.3.6s-.2.5-.5.6c.3.1.4.3.5.6.1.4.1.5.2.6h-.6c-.1-.1-.1-.3-.2-.6 0-.3-.2-.4-.5-.4h-.3v1.1zm0-1.5h.3c.3 0 .6-.1.6-.4 0-.2-.2-.4-.6-.4h-.3v.8zM317.5 355.4c-.1.3-.4.6-.7.5-.5-.1-.7-.4-.6-.8.1-.4.4-.6.9-.5.3.1.5.4.4.8zm2.6-3.5c-.5-.1-.7.1-.8.4-.1.4.1.8.6.9.4.1.6-.2.7-.6 0-.4-.2-.7-.5-.7zm.2 3.5c-.1.4.2.7.6.8.3.1.7-.2.8-.5.1-.4-.2-.7-.5-.7-.5-.1-.8 0-.9.4zm-10.3-6.9c1.4.2 1.6-1.1 2.1-1.8.4-.6 1.4-1.5 1.8-1.8.4-.3 1.1-.5 1.7 0 .3.3 0 .9-.2 1-.6.1-1.2-.2-1.5-.1-.3.1-.7.9-.8 1.9.7.3.8-.2 1.5-.2 1 0 2.1.7 2.6.1.5-.5.5-1.5.5-1.9.9 0 1.3 1.3.9 2-.3.3-1 .3-1 .9 3.1.6 3.3-.7 3.6-1.4.2-.6.1-1-.2-1.8-.9-2.3-3.6-3.6-6-2.8-.9.3-2.3 1.5-2.8 2.3-.6.9-1 2.5-1.7 2.5-.3-.1 0-.8-.5-.7-.6.1-.9.6-.8 1.2.1.4.4.6.8.6zm2.1-9.4c.5-.2.9-.4 1.5-.5.4-.1 1-.1 1.4-.1.9 0 1.5 0 2.3.1 1.3.2 3.6 1.5 3.8.9.2-1-.7-1.8-1.4-2.2-1.7-.9-4.3-1.4-6.5-.4-.8.4-1 .7-1.7 1.2-.5.3-1.4.9-1.4 1.3.1.3 1.4-.1 2-.3zm-20.9 12.8c-.4 0-.8.3-.8.6 0 .5.3.7.8.7.3 0 .5-.2.6-.7.1-.3-.3-.6-.6-.6zm-5.6 1.7c-.4 0-.6.2-.6.6 0 .4.2.7.6.7.3 0 .8-.3.7-.7.1-.4-.3-.6-.7-.6zm3 1.8c-.3 0-.7.3-.7.7 0 .3.3.6.7.6.4 0 .7-.3.7-.5.1-.4-.3-.8-.7-.8zm8.3-8.5c-1-.9-.1-2.8-2.1-3.8-2.2-1.1-5.5-.7-6.9 1-.5.7-1.1 1.4-1.5 2.5-.2.7-.4 1.5.3 1.9.5.3 1.7.8 2.6.6.1-.3-.2-.5-.4-.5-.6 0-1-.5-1-.8.1-.8.9-2 1.8-2.5.9-.6 1.5-.3 1.8.2 0 .4-.2.7-.5.7-.5.1-.9-.3-1.2-.2-.7.7-.4 1.6-.2 1.9.2.3.5.4.6.3.5-.6 1.6-.6 2.7-.5.5-.3.5-1.2.6-1.9.8-.9 1.2.9 1.7 1.7.3.5.7 1 1.2 1.1.8.1 1.9-.6 1.5-1.8-.1-.3-.7.3-1 .1zm17.1 5.9c-.1.3.1.6.4.7.3.1.6-.2.7-.5.1-.3-.1-.6-.5-.7-.3 0-.5.2-.6.5zm-19.4 2.2c0-.3-.3-.6-.6-.6-.4 0-.6.3-.6.6s.2.6.6.6c.3.1.6-.2.6-.6zm65.6 21.7c-.1.2-.3.4-.6.7-3.6 3.1-8.2 4-12.4 3.3-1.9 2.9-4 5.6-6.4 8.1-9.8 10.1-23 15.7-37 15.7-13.5 0-26.2-5.2-35.9-14.6-2.9-2.8-5.4-5.9-7.5-9.2-4.1.7-8.7-.2-12.2-3.3-.3-.3-.5-.5-.6-.7-.4-.5-.2-1.1.2-.8.9.6 2.9.9 3.4.6.3-.2-.8-.4-1.8-.9-5.4-2.7-4.4-11.2-2.8-9.4 1.1 1.4 2.7 3 5.5 2.9-2.6-3-2.9-7.3-2-6.5.8.8 1.9 2.5 4 4-4.7-17-.5-36 12.7-49.6 3.5-3.6 7.5-6.7 11.8-9.1 3.9-5.3 9.2-9.1 17-11.1 3.6-.9 7.4-.8 9.5-.6 1.8.3 5.6.6 7.6 2.6.3.3.7.9.9 1.6 1.9-.8 3-.9 5.3-.5 4.9 1.1 7.6 4 9.8 7.9 4 2.2 7.7 4.9 11 8.2 9.9 9.6 15.5 22.5 15.7 36.3.1 5-.6 9.9-1.9 14.6 2.3-1.5 3.4-3.4 4.2-4.2.9-.8.6 3.5-2 6.5 2.9.1 4.4-1.4 5.5-2.9 1.6-1.8 2.6 6.7-2.8 9.5-1 .5-2.1.7-1.8.9.6.3 2.5 0 3.4-.6.4-.4.5.2.2.6zm-63-42.9c-2.3 1.2-4.1 2-5.4 2.5.7 0 1.4.1 2 .4.7.3 1.2.7 1.8 1.1.5.3 1.5.8 1.5 1.3-.1.4-1.4.1-2-.1-.5-.1-.8-.3-1.5-.4-.4 0-1-.1-1.4-.1-.9 0-1.4 0-2.3.3-1.2.3-3.5 1.7-3.8 1.1-.2-.7.2-1.4.7-1.8-.7.2-1.5.5-2.4.9-3.1 1.3-4 4.1-4.3 7.1 0-.5-.1-.9-.1-1.3-.1-1.7-.6-1.7-.6-1.7s-2.7 0-2.9 4.1c0 2.5.4 3.2.8 4 .4 1 .9 2.2 1.5 2.5 1 .5 1.5.2 1.7 0v.1c.3 1.5.8 3.9 1 4.6.8 3.5 1.4 5.1 2.7 7.2 1.2 2.2 2.8 3.9 4.2 5.5.9.9 2.6 2.4 3.8 3.3 1.5 1.2 2.2 1.8 3.9 2.8 1.5 1 4.3 2.9 8.1 2.8 3.6 0 5.5-1.4 6.7-2.1 2.5-1.4 3.8-2.6 5.6-4.2 2-1.9 3-2.8 4.2-4.2 1.6-1.8 3-3.8 4.3-8.4.5-1.7.9-3.7 1.2-5.3.1-.7.1-1.3.2-1.9.3.2 1 .5 1.9-.5 1.1-.9 2.1-3.6 2-5.8 0-1.9-.5-4-1.6-4.3-.8-.2-1.2.2-1.6 1-.1-.6-.2-1.2-.5-2.1-.6-1.8-1.1-2.5-2.2-4.6-2.7-4-3.8-5.6-5.1-8.1-.9-1.8-1.2-2.7-1.5-3.7 0 0-2.5 6.1-7.6 9.9-4.4 3.3-7.8 4.3-10.3 3.9 4.7-4.5 7.1-9 8-14.1-2 2.4-5.3 5.5-10.7 8.3zm-23.1 3.5c-1.8 2.6-1.9 5.1-1.9 5.1 3.1-8.4 13.4-10.6 17.2-12 9-3 10.2-6.9 10.2-6.9-8 7.9-20.1 6.1-25.5 13.8zm77.1 14.9c-.2-12.7-5.3-24.6-14.4-33.4-1.6-1.6-3.3-3-5.1-4.3 1 2.4 2.1 5 3.4 7.7 2.8 5.1 3.7 10.6 4.1 14.1.1.8.3 2.2.3 4.1-2.1-9-11.8-12.4-14.4-22.5 0 0-1 4 5.1 11.2 2.5 3.2 10.1 10.5 8.4 19.3-.5 2.2-1.2 4.5-2.2 6.7-1.1 2.1-2.3 3.9-4.2 5.7.8.2 1.9.6 3.2 1.9-.3 1.5-.1 2.8-.1 2.8s-1.6.3-3.1 2.3c-2.3 3.2-1.2 5.1-1.2 5.1s-1.7.9-3.3 2.8c-1.2-.2-2.3-.7-3.2-1.4-1.1-.9-2.1-2.1-3-3.7-.1.2-.3.4-.5.7-1.1 1.5-1.1 1.6-1.1 2.7 0 4.8-1.1 11.4-1.9 1-5.3 4.5-9.8 7.3-14.1 7.3-4.2 0-8.6-2.7-14.4-7.5 0 2.3-.1 4.6-.1 7.8.3.4.6.9 1 1.5.8 1.1 1.9-2.5 3.2-1.8 1.4.8 1.4 3.3 2.9 4.5.9.7 2.6-3.3 3.5-1.1 1 2.4 2.7 2.9 4.5 3.9.8-.7 2-.8 3.1-2 .9-1.1 1.5-2.3 2.2-2.5 1.1-.3 1.7 2.3 2.9 1.9 1.9-.7 1.6-4.2 3.4-4.7.9-.2 1.1 1.3 2.1 1.5 1.1.2 2.1-3.6 2.6-5.1.3-.8.7-1 1.3-.8.8.3.9 1.4 1 3.4.1 2.7 1.4 5.4 2.9 7.2 1.5 1.8-2.4.8-3.9-3.1-.9-2.5-.7-2.5-1.4-1.2l-.6 1c.2.6.4 1.1.7 1.9 1.1 2.4 3.2 4.4 2.4 5.7-.4.4-.8.6-1.4.6-.5 0-1-.1-1.5-.7s-2.5-2.7-3.4-6.8c-.2-.2-.3-.4-.3-.4s-.6 2-1.6 3.3c.9 4 2.6 5.9 2.2 7.1-.2.5-.8.8-.8.8-.3.2-.6.2-.9.2-.6-.1-1-.4-1.4-.8-.8-1-2.1-3.5-2.9-7.1-.5-.5-.8-.8-1.1-.4-.4.6-.8 1.6-2.6 2.2 1 .7 1.8 1.5 2.2 2.9.7 3.2-1.7 5.2-4.5 5.5-2 .1-4.5-.7-5.1-2.6-.7-2.4.8-4.6 2.2-5.7-1.3-.4-2.4-1.3-3.2-2.4 0 0-.3.4-.7.7v.1c-.3 2-1.4 5.2-2.9 7-.4.4-.8.5-1.3.5-.3 0-.6-.1-.9-.3 0 0-.5-.4-.7-.8-.6-1.3 1.1-2.7 2.1-7.3-.6-.8-1.1-1.8-1.4-2.8 0 0-.4.5-1 .9-.7 2.1-2.1 5-3.7 6.4-.4.3-.9.7-1.8.5-2.8-.8 0-3 .9-5 .7-1.5.9-2.3 1.1-3-.2-.3-.3-.7-.6-1.1-.1-.2-.3-.4-.4-.6-.3-.4-.7-.7-.8-.1-.1.7-.3 1.6-.8 2.6-.9 1.9-3.6 3.9-4.8 3.2 1.1-.4 2.8-2.5 3.4-4.4.6-2.1.8-4 .5-6.1-.2-1.6 1.4-.7 2.5.4v-1.1c.1-1.2.1-2.5.1-3.7 0-.5-.3-1.6-.9-2.3l-.1-.1c-2 2.5-4.8 3.6-8.1 4.1l-2.8-2.6s1-1.4-.7-4c-1.7-2.4-2.3-2.4-2.3-2.4s.5-1.6 0-4.1c.7-.8 1.6-1.3 2.6-1.6-1.4-2.1-3-4.2-3.7-5.2-4.5-6.6-4.4-13.4-3.4-18.3v.1c1.9-8.3 9.1-11.9 12.6-13.9-2.5.9-7.4 1.9-10.5 5.9.4-2.7 1-5.4 1.6-7.5.7-2.3 1.5-4.5 2.3-6.6-1.6 1.3-3.1 2.7-4.6 4.2-13 13.4-16.5 32.5-10.7 49 1.6.4 3.5.6 5.7.5 0 0-.1 0-.1.1-.4.4-.7 2.1.3 4.6.8 1.8 1.8 2.8 2.4 3.4h.1c-.1.1-.2.1-.2.2-.8.7-1.8 1.4-2.8 1.9 1.8 2.7 3.9 5.2 6.3 7.5 8.9 8.6 20.7 13.4 33.1 13.4 13 0 25.1-5.1 34.1-14.4 2-2.1 3.8-4.3 5.4-6.6-1-.5-1.9-1.1-2.6-1.8-.3-.2-.5-.5-.7-.7-.1-.5-.3-.8-.3-.8s1.3.3 2.7-2c1.6-2.6.4-4.2.4-4.2s.4-.3.9-.7c1.9 0 3.5-.2 4.9-.5 1.5-5.6 2.4-11.2 2.4-16.9zm-47.8 44.5c1.6.4 3.1-.5 3.4-1.6.2-.8-.1-1.6-.4-2.1-.3-.5-.6-.8-1.1-1.2-.6-.4-1.5-.3-1.8-.2l-.3.1c-1.5.6-2.5 4.3.2 5zm-5.8-44.8c0-.3-.2-.6-.6-.6-.4 0-.6.3-.6.6s.2.6.6.6c.3 0 .6-.3.6-.6zm13.1-.3c-.4-.1-.6.1-.6.5-.1.2.1.5.4.6.4.1.7-.1.8-.4 0-.4-.2-.7-.6-.7zm-11.2 7.2c1.1.3.9-.7 1.7-.4.4.2.5.9 1.8 1.5s2.5-.1 3.7-1.1c.7-.7 2.1-.7 1.7-1.1-.3-.1-.5-.9-1-1.1-1.3-.4-1.6 1-3 1-1.9 0-2.3-1.2-3.3-1.1-.8.1-1.3 1.4-1.8 1.4s-.4.7.2.9zm-6.2 4.3c-1-.1-1.1.4-.4 1.3.7.7 1.9 1.4 2.8 1.4 1.9 0 3.5.4 5.4.3.3 0 1.5-.1 1.8-.1 2.9-.3 5.6.5 8.3-.3-.9.9-1.7 2.2-3 2.9-1.4.7-4.1.7-6.1.6-2.1-.1-3.8-1.3-5.2-2.1-.4 1.2.2 1.6 1.1 2.4 1 .9 2.6 2.2 5 2.2 3.5.1 6.2-.2 8-3.1.5-.9 2-2.9 3.5-3.6.8-.4 2.8-1.3 2.4-1.8-.6-.7-1.7-.6-2.5-.4-.6.1-.8 1.3-1.8 1.3-2.5.3-4.8-.5-7.9-.4-2.2.1-3.9.6-6.2.8-2.4 0-3.1-1.2-5.2-1.4zm-12.5 19.3c-.3 1.2-2.6 2.8-4.5 3.4-.8.3-1.7.5-2.6.5-2 0-2.9-4.3-3.3-5.3-.3-.8-1.1-2.5-1.1-3.1 0-.4.1-.9.3-1.3.1-.2-.3-.2-.6-.2-1.3-.1-1.6-1-2-1.5-.3-.6-.7-1.4-1.1-2.4-.4-1.6-.5-2.3-.2-2.7 1.3-.9-1.8-1.5-3.9-4.1-.7-.9-1.7-2.6-1.9-3.3-.2-.8-.2-1.9 1.7-3.3 1.9-1.6 4.7-2.3 5.2-2.3.7 0 2.6.1 3.3 3 .6 2.5.8 3.4 1.1 4.8.3.9.3 1.7.3 2.3 0 .8-1.2 1 .2 1.2.7 0 1.4.8 1.9 1.5.3.4 1.4 2.6 1 3.4-.3.4-.7.6 0 1.3.2.2.5.4.6.6.7.8 3.2 3.1 4.3 4.3.6.7 1.7 1.4 1.3 3.2zm-14.2-16.9c.2 1.3 1.2 2.9 2.1 2 .6-.5-.5-.7-1.3-3.8-.5-2-1 .7-.8 1.8zm3 3.9c.5-.1 1-.3 1.2-.8.1-.4-.3-.2-1.1-.1-.9.1-1.9.2-2.4.7-.4.6-.5.7-.2 1.3.3.6.5.1 1-.4.4-.4 1-.6 1.5-.7zm3.3 6.4c-.1-.8.3-.6.5-1 .5-.9 0-1.1-.3-1-.7.6-.6.6-2.5 1.4-1.1.5-.6.8 0 .9.3 0 .9-.3 1 0 .1.3.8 2.7 2.1 2.5 1.4-.3-.7-1.8-.8-2.8zm74-12.2c-.7.8-3.9 4.2-4.6 5-.2.2-.4.3-.6.6-.6.6-.5.7-.1 1.1.7.7-.5 2.9-.8 3.3-.5.7-1.5 1.7-2.2 1.7-1.5.1-.3.5-.2 1.2.1.4 0 1.4-.2 2.7-.2 1.1-.4 1.8-.9 4.2-.6 2.9-2.2 2.5-2.9 2.4-.6 0-4-.8-5.8-2.2-2.4-1.6-2.2-2.5-2-3.2.2-.6 1.3-2.2 2.1-3.1 2.2-2.9 5.3-3.3 3.9-4.2-.4-.4-.6-1-.2-2.6.3-1 .8-1.9 1.1-2.2.3-.3 1-1.3 2.4-1.4.4 0 .8 0 .7-.2-.2-.4-.3-.9-.3-1.3 0-.5.4-2.5.7-3.3.4-1 1.7-5.6 3.3-5.4.7.1 1.7.4 2.6.8 1.6.6 4.7 2.2 5.1 3.2.5 1.3-.7 2.3-1.1 2.9zm-10.4 11.3c-2.1-.1-2.1-.3-2.8-.8-.2-.2-1.2.3-.5.9.2.2.7.8.5 1.5-.3.9-1.6 2.7-.3 2.5 1.5-.2 1.9-2.3 2-2.7.2-.3.4-.4.8-.5.7 0 1.4-.8.3-.9zm2.7-6.1c-.7-.6-1.5-1.3-2.2-1.3-.7 0-1 .1-1.2.8-.1.6.3.4 1 .5.7.1 1.5.6 1.8.9.4.3 1.2.6 1.4.2.1-.3-.1-.5-.8-1.1zm1.3-4.6c-1.2 1.3-3.1 2.5-1.6 3.3 1.2.7 1.6-.6 2-1.5.3-.7.7-3-.4-1.8z"/></svg>