<svg version="1.1" id="Layer_1" xmlns="http://www.w3.org/2000/svg" x="0" y="0" width="765.7" height="342.7" style="enable-background:new 0 0 765.7 342.7" xml:space="preserve"><style>.st1{fill:#002856}</style><path d="m300.3 238.8-18.6 32h37.2l-18.6-32zm0 14.6 5.8 10h-11.7l5.9-10z" style="fill:#5eb3e4"/><path class="st1" d="M359.2 214.5h-43c-1.1 0-2 .6-2.6 1.5l-13.3 22.8 4.2 7.3 14.2-24.3h32.8l-51.3 88.4-16.5-28.5 2.1-3.6h-8.5l-1.2 2.1c-.5.9-.5 2 0 3l21.5 37.3c.6 1 1.6 1.5 2.6 1.5s2-.5 2.6-1.5L361.7 219c1.2-2-.2-4.5-2.5-4.5"/><path d="M249.1 221.8h32.8l9.9 17 4.3-7.3L287 216c-.5-.9-1.5-1.5-2.6-1.5h-43c-2.3 0-3.7 2.5-2.6 4.4l29.3 50.4c.5.9 1.5 1.5 2.6 1.5h10.9l4.3-7.3h-12.7l-24.1-41.7z" style="fill:#005cb9"/><path class="st1" d="M458.2 253.2h-24.7v11.4h21.9v6.9h-21.9v11.7h25v6.9h-32.7v-43.7h32.4v6.8zM501.3 290.1l-10.7-15.2H481v15.2h-7.7v-43.7h19.5c10.1 0 16.2 5.3 16.2 13.9 0 7.2-4.3 11.6-10.4 13.3l11.8 16.6h-9.1zm-9.2-36.7h-11.2V268h11.2c5.5 0 9-2.9 9-7.4.1-4.8-3.3-7.2-9-7.2zM532.1 246.4v43.7h-7.7v-43.7h7.7zM566.3 264.7c9.2 2.2 14.1 5.6 14.1 12.9 0 8.2-6.4 13.1-15.6 13.1-6.7 0-13-2.3-18.2-7l4.6-5.5c4.2 3.6 8.4 5.7 13.8 5.7 4.7 0 7.7-2.2 7.7-5.6 0-3.2-1.7-4.9-9.9-6.7-9.3-2.2-14.6-5-14.6-13.1 0-7.6 6.2-12.7 14.9-12.7 6.4 0 11.4 1.9 15.9 5.5l-4.1 5.8c-3.9-2.9-7.9-4.5-11.9-4.5-4.5 0-7.1 2.3-7.1 5.2 0 3.4 2 4.9 10.4 6.9zM612.6 290.1h-7.7v-36.6H591v-7.1h35.5v7.1h-13.9v36.6zM657.4 290.8c-13.4 0-22.8-10.2-22.8-22.5 0-12.4 9.5-22.7 22.9-22.7s22.8 10.2 22.8 22.5c0 12.4-9.5 22.7-22.9 22.7zm0-38.1c-8.7 0-14.7 6.9-14.7 15.5s6.2 15.6 14.9 15.6 14.7-6.9 14.7-15.5-6.2-15.6-14.9-15.6z"/><path d="M720.8 290.1 710 274.8h-9.6V290h-7.7v-43.7h19.5c10.1 0 16.2 5.3 16.2 13.9 0 7.2-4.3 11.6-10.4 13.3l11.8 16.6h-9zm-9.2-36.7h-11.2V268h11.2c5.5 0 9-2.9 9-7.4.1-4.8-3.3-7.2-9-7.2z" style="fill:#0c3b60"/><g><path class="st1" d="M404.4 246.4h8.3L391.8 290c-.2.5-.9.5-1.2 0l-20.9-43.6h8.5l13.1 28.4 13.1-28.4z"/></g></svg>