<svg version="1.1" id="Layer_1" xmlns="http://www.w3.org/2000/svg" x="0" y="0" width="960" height="540" style="enable-background:new 0 0 960 540" xml:space="preserve"><style>.st0{fill:#005b94}</style><path class="st0" d="M376.3 117c3.9.7-7.2 20.4-14 30.5-6.7 11.4-18.1 24.4-27.5 34.4 6.3-17 37.6-65.4 41.5-64.9m42-14.8c-17.7 5.5-51.6 61.4-63.2 97.6-18.5 19.7-22.5 20.2-25.4 19.7-5-.8-5.2-4.6-5.2-6.7 0-3.8 2.5-9.1 5.7-14.3l8.1-9.2c10.9-12.2 22.1-24.8 31.4-39.6l3.9-6.6c6.5-10.9 13.8-23.1 13.8-31.1 0-1.1-.1-2.1-.4-3-1.1-4.6-3.6-6.8-7.3-6.3-17.9 5.6-49.4 56.9-60.8 92.6-3.3 9.5-21.5 24.4-30.4 24.2-.8-.1-1.7-.4-2.2-1.1-.5-.8-.7-2.2-.4-3.3 4.2-9.7 11.8-20.1 18.3-29 4.4-6 13-18.5 16.5-24.3l.2-.4-.3-.3c-.6-.6-12.2-.6-12.7-.4l-.1.1-13.2 16.2c-11.1 12.9-22.6 26.3-37.2 34.6-5.8 3.5-11.7 6.8-15.3 8.8-2.2 1.2-2.7 1.6-2.9 1.7-.8.6-1.2 1.6-1.2 2.8 0 1.1.4 2.1 1.2 2.8l.2.2h.3c8.5-1.5 27.9-13 37.7-20.6-.4.9-.9 2-1.3 2.8-.9 2.1-1.3 2.8-1.3 3.2v-.1c-1.8 5.2-1.1 12.5 3.8 14.6h.1c12.6 2.5 31.3-11.9 34.8-15 .6 7.5 3 13.6 12.5 15.1 7.6 1.2 17.3-3.7 29.1-15.9v.9c0 7.4 3.8 13.6 9.6 15 4 1 18 1.3 32.3-34.3 1.8 1.9 5.5 5.1 9.8 6.2-2.2 5.5-3.5 9.7-3.5 13.5 0 3.6 1.2 6.7 4.2 10.1 6.2 7 18.3 6.4 28.9-2.3 7.5-6 14.8-14.3 21.9-24.5 4.4-6.3 13.5-20.2 17.1-26 .1-.2.1-.2.2-.3.3 1.9 1 6.1 6.7 7.7-5.2 6.8-16.6 19-18.5 35.4-.1.7-.1 2 0 3 .5 3.9 2 8.6 6.3 11 4.2 2.4 15.4.8 34-20 0 .6.1 1.2.1 1.8 0 .8 0 1.7-.1 2.6 0 .9 0 1.8.1 2.8.5 8.3 4.2 11 4.2 11 12.2 9.3 30.9-7 43.2-26.5 5.6-8.8 11.6-18.9 8.5-20.9l-.5-.3-.3.4c-7.6 11.1-26 41.5-37.8 41.5-1.8 0-2.8-1.7-3.3-4.7-.1-.8-.2-1.6-.2-2.5 0-6.6 3.4-13.7 6.3-19.6l1.1-2.4c6.7-11.2 19.4-31.5 20.8-33h37.1c.6.1 1.4-.6 2.1-2 .9-1.7 1.8-4.6.8-5.8-.3-.3-.8-.7-1.7-.5-20.7.1-27.2-.1-34.2-.5.1-.7 11.8-19.3 20.2-33l-14.6.3c-4.8 7.7-14.5 25.7-19.8 33-1.1.1-8.3.1-14.7 0-9.6-.1-15.6-.1-16.7.1h-.1c-.6 0-1.2.5-1.9 1.5-1 1.3-2.1 3.7-2.1 5.5 0 .4.1.8.2 1.1v.1l.1.1c.3.3.4.4 20.7.2 3.4 0 6.7-.1 8.1-.1-5.4 10.7-20.1 36.5-33.7 49.3l-5.5 5.4c-4.5 3.9-10 8.7-13.7 7.2-1.5-.5-1.8-1.6-2.2-2.5-3.9-9.2 11-28.2 15.6-34.6 2.3-3.1 5.1-6.2 6.3-8.2l.2-.3-.2-.3c-.2-.4-.5-.4-1.6-.4-1.7 0-4.9 0-8.3-1.2-5.3-2.6-4.3-5.7-2.3-9.9l.1-.3-.2-.3c-1.3-2-4.8-2.4-10.3-1.2l-.3.1c-1.1-.1-2.7 2.4-8.8 12.1-7.1 11.4-17.8 28.6-28.7 39-4.9 4.7-14.2 11.8-20.9 6.3-1.2-1-1.8-2.9-1.8-5.2 0-4 1.6-9 4.1-12.3 12.3-1.7 31.1-12.6 36.1-23.9 1.4-3.2 2-5.8 2-7.9 0-3.9-2-6.1-4-7.3-1.8-1.1-5.4-1.8-10-.5-7.3 1.9-18.6 9-31.2 31.5-7.8-3.1-9.5-7.5-10.5-10-.3-.8-.5-1.4-.9-1.8l-.2-.3-.4.1c-.5.1-4 .2-6.1.3-3.8.1-3.8.1-4 .4l-.1.2v.2c1.5 8.5-5.3 23.6-12.6 32.4-3.2 3.8-6.1 6-8.1 6-1.5 0-2.6-.5-3.2-1.4-.5-.8-.8-1.9-.8-3.2 0-4.7 3-11.7 4.3-14.8 0 0 .4-1.1.5-1.2.1-.1 5.7-6.4 5.7-6.4 11.8-13.4 24-27.3 34-43.1l3.9-6.6c6.5-10.9 13.8-23 13.8-31.1 0-1.1-.1-2.1-.4-3-.8-5-3.2-7.1-7-6.7zM239.2 222.1zm-.1.2.1-.1c-.1 0-.1 0-.1.1zM447 168.9c1.1.2 1.9.9 2.2 2.2.1.2.1.4.1.6 0 1-.6 2.3-1.7 3.8-5 7-19 16.1-26.2 17.5 16.3-22.8 23.3-24.5 25.6-24.1zm-32.1-51.8c.1 0 .2.1.2.2.1.2.1.4.1.7 0 4.2-8.4 19.3-14.7 28.8-5 8.5-13.4 19.1-25.4 32.1 8.7-20.2 36.7-61.7 39.8-61.8z"/><path class="st0" d="M315.7 144.5c1.4-4.3 5.9-7.8 10.2-7.9 4.2-.1 6.6 3.2 5.2 7.5-1.4 4.2-5.9 7.8-10.2 7.9-4.2.1-6.6-3.3-5.2-7.5"/><path class="st0" d="M235.5 192.8c6-20.3 22.8-74 35-97.9h-12.1c-24.8 32.9-44.3 55.1-79.9 97.2 4.6-9 4.1-10.4 15.5-32.6 11.5-22.1 29.6-48 15-77.7-8.3-12.9-23.8-19-39.6-18.1-47.1 2.7-87 39.2-96 85.8-4 20.3-2.1 47.1 14 61.6 6 5 13.8 6.1 21 5.8 11.5-1.9 18.2-6.8 25.9-23.3-5.2 5-22.6 15.2-35.3 7-12-8.6-16.7-23.9-16.8-39.1-1.7-38.4 32.7-79.9 71.9-87.9 50-10.2 46.5 33.6 43.1 45.4-3.4 11.8-51.5 108-51.5 108-.1-.1 15.4 0 15.4 0 21.1-29 73.5-87.5 73.5-87.5-7.9 24.3-21.6 73.9-24.5 84.6-.4 1.3-1.1 2.8-1.1 2.8h15.8c7.3-12.8 91.6-148.5 225.3-148.5l12.2-17.3c.2.2-115.1-10.6-226.8 131.7M559.1 210.1c5.1 0 9.2 4.2 9.2 9.4 0 5.3-4.1 9.4-9.3 9.4-5.1 0-9.3-4.1-9.3-9.4.1-5.2 4.3-9.4 9.4-9.4zm0 1.5c-4.1 0-7.5 3.5-7.5 7.9 0 4.5 3.4 8 7.6 8 4.2 0 7.5-3.5 7.5-7.9-.1-4.5-3.4-8-7.6-8zm-1.8 13.4h-1.7v-10.5c.9-.1 1.7-.3 3-.3 1.6 0 2.6.3 3.3.8.6.5 1 1.2 1 2.2 0 1.4-.9 2.2-2 2.5v.1c.9.2 1.5 1 1.8 2.5.3 1.6.5 2.3.7 2.6h-1.8c-.3-.3-.5-1.3-.7-2.7-.3-1.3-.9-1.8-2.3-1.8h-1.2v4.6zm0-5.8h1.2c1.4 0 2.5-.5 2.5-1.8 0-.9-.7-1.8-2.5-1.8-.5 0-.9 0-1.2.1v3.5z"/></svg>