<svg version="1.1" id="Layer_1" xmlns="http://www.w3.org/2000/svg" x="0" y="0" width="432" height="432" style="enable-background:new 0 0 432 432" xml:space="preserve"><style>.st1{fill:#bbd086}.st3{fill:#a41b3b}</style><path d="M369.8 287.1c-46.6-24.9-103.3-7.8-153.8 7-51.8 14.8-97.5 27.2-153.9-7-11.5-58.2-11.5-116.3 0-174.5 46.6 24.9 103.3 7.8 153.8-7 51.8-14.8 97.5-27.2 153.9 7 11.5 58.2 11.5 116.3 0 174.5z" style="fill:#fcf397"/><path class="st1" d="M61.9 157.3s22.9-15.2 33.8-24c10.9-8.7 100.2-42.5 107.8-40.3 7.6 2.2 152.4 34.8 156.8 42.5 4.4 7.6 10.9 115.4 9.8 119.8-1.1 4.4-13.1 30.5-19.6 34.8-6.5 4.4-99.1 20.7-118.7 20.7-19.6 0-151.4-27.2-157.9-33.8-6.5-6.4-12-119.7-12-119.7z"/><path d="M335.1 272.3c0 7-10.8 10.9-17.9 10.9L112 269.9c-7 0-22.1-17.6-22.1-24.5l-1.1-72.9c0-7 5.7-12.6 12.7-12.6L202 137.5l115 11.9c7 0 10.5 4.9 10.5 11.9l7.6 111z" style="fill:#fff"/><path class="st3" d="M168.7 160.7c-.1 2-.2 4.7-.2 6.9 0 5.1.3 7.9.8 9.2.2.5.6.9.9 1.2l-.1.2c-2-.4-5.2-.4-7.4 0l-.1-.2c.4-.2.7-.6.9-1.2.6-1.3.8-4.1.8-9.2 0-2.1-.1-4.9-.2-6.9-2.6.3-3.6 1.1-4.3 2.4l-.3-.1c.2-1.7 0-4.4-.3-6.2 2.2.4 4.5.6 7.1.5 2.6 0 4.9-.1 7.1-.5-.3 1.8-.5 4.5-.3 6.2l-.3.1c-.6-1.4-1.6-2.1-4.1-2.4zM179.2 164.5c.7-1.3 2-1.9 3.5-1.9 2.2 0 3.5 1.8 3.5 4.7 0 2.4-.4 5.4-.2 7.5.1 1.1.5 2 1.2 2.3l-.1.3c-1.9-.1-4 0-6.1.4.6-1.3.9-5.2.9-7.1 0-3.5-.5-4.6-1.1-4.6-.8 0-1.5 1.2-1.5 5.6 0 4.1.3 5.3 1.2 6.1l-.1.2c-1.7-.4-4.7-.4-6.5 0l-.1-.2c.4-.2.6-.6.8-1.2.5-1.3.8-3.4.8-8.8 0-5-.2-7.7-.8-9-.2-.5-.5-.9-.9-1.1l.1-.2c2 0 4.2-.1 6.1-.6-.2.8-.5 5.1-.7 7.6zM192.2 171c.1 3.1 1 4.3 2.3 4.3 1 0 1.5-.5 1.5-1.4 0-.6-.3-1.1-.9-1.2.4-.7 1.4-1.1 2.3-1.1 1.6 0 2.4 1.1 2.4 2.7 0 1.8-1.5 3.8-5.3 3.8-4.3 0-6.7-2.9-6.7-7.8 0-4.8 2.5-8.2 6.5-8.2 3.8 0 5.5 3.1 5.5 6.7 0 .6-.1 1.4-.1 1.9-2.3.2-5 .3-7.5.3zm.1-2.4c1.1 0 2.2-.1 3.3-.1 0-1.7-.5-3.3-1.4-3.3-.9 0-1.7 1.1-1.9 3.4zM124.3 191.7c0-1.3-1.2-2.3-3.1-2.3-2.2 0-3.3 1.7-3.3 3.5 0 2.1.8 3.6 5.3 5.9 8.4 4.2 9.7 7.5 9.7 12.4 0 5.6-3.5 9.9-11.9 9.9-8 0-11.6-3.5-11.6-7.7 0-3.3 2-5.3 5-5.3 2.3 0 3.6.9 4.2 2.5-1 .1-1.6.9-1.6 2 0 1.7 1.6 2.8 4 2.8 2.8 0 4.1-1.7 4.1-3.5 0-2.1-.7-3.7-5.7-6.3-6.6-3.5-8.5-7.2-8.5-11.5 0-5.9 3.4-10 10.7-10 6.5 0 9.7 3.1 9.7 6.5 0 3.1-1.7 4.8-4.7 4.8-1.5 0-2.9-.5-3.9-1.5 1.1-.4 1.6-1.1 1.6-2.2zM145.2 219.6l-.2.4c-3.3-.6-8-.5-11.3.1l-.2-.4c1.7-1.6 2.6-4.3 2.6-12.5 0-8-.6-10.6-2.6-11.8l.1-.4c3.3.1 7.2-.2 10.2-1-.6 3.7-1.2 9-1.2 12.6.1 8.7.9 11.2 2.6 13zm-.9-32.1c0 2.4-1.9 4.7-5.1 4.7-3 0-5-1.9-5-4.5 0-2.7 1.7-4.8 5.2-4.8 3.1-.1 4.9 2.1 4.9 4.6zM154.3 197.8c1.2-2.5 3.5-3.9 6.2-3.9 3.6 0 5.9 3 5.9 8 0 4-.6 9.2-.4 12.8.1 1.8.9 3.3 2 3.9l-.2.5c-3.2-.2-6.8.1-10.2.8 1-2.1 1.6-9 1.6-12.2 0-6-.8-7.8-2-7.8s-2.5 2.3-2.5 9.4c0 7.1.5 8.8 2.1 10.3l-.2.4c-3.2-.6-7.6-.5-10.8.1l-.2-.4c1.8-1.5 2.5-4.6 2.5-12.6s-.6-10.7-2.5-11.8l.1-.4c3.3 0 6.2-.2 9.4-1-.4 1.1-.7 2.6-.8 3.9zM182.7 216.8c-1 2.2-2.8 3.5-5.4 3.5-4.3 0-8-3.8-8-12.2 0-8.9 4-14.4 8.7-14.4 2.3 0 4 1.2 5.1 3.4-.2-1.2-.3-2.5-.6-3.7 3.2.7 5.9 1 9.2 1l.1.4c-1.7 1-2.4 3.7-2.4 8.9 0 4.9.8 12.1.8 16.8 0 7.8-3.4 11.8-11.6 11.8-5.5 0-8.7-2.9-8.7-6.6 0-2.8 1.7-4.5 4.6-4.5 2.1 0 3.1.9 3.8 1.9-1.1.2-1.8 1.1-1.8 2.1 0 1.2.9 2.2 2.6 2.2 2.9 0 4.2-2.3 3.6-10.6zm-6.2-9.6c0 5.1 1.3 7.4 2.9 7.4 1.6 0 3.1-2.4 3.1-7.8 0-5.1-1-7.7-2.7-7.7-1.6.1-3.3 3.2-3.3 8.1z"/><path class="st3" d="M202.4 217.6c.3.9.8 1.6 1.5 2l-.2.4c-3.4-.6-8.2-.6-11.8-.1l-.2-.4c.6-.4 1.1-1.1 1.5-2 .8-2.3 1.2-7.1 1.2-15.7 0-7.9-.2-12-1.1-14.2-.4-.9-1-1.6-1.6-1.9l.1-.4c3.3 0 7.3-.3 10.5-1.1-.7 4.6-.9 12.2-.9 17.4-.1 9.2.2 13.8 1 16zM212.5 208.2c.2 5.3 1.7 7.3 3.8 7.3 1.6 0 2.5-.8 2.5-2.3 0-.9-.6-1.8-1.6-2 .7-1.1 2.3-1.8 3.9-1.8 2.6 0 4.1 1.9 4.1 4.5 0 3.1-2.6 6.5-9 6.5-7.3 0-11.3-4.9-11.3-13.1 0-8 4.1-13.8 11-13.8 6.4 0 9.2 5.2 9.2 11.3 0 1.1-.1 2.4-.2 3.2-3.7 0-8.3.1-12.4.2zm.1-4.1c1.9 0 3.8-.1 5.6-.2 0-2.9-.8-5.6-2.4-5.6-1.5 0-2.8 1.9-3.2 5.8zM236.7 188.7c-.2 1.8-.5 4-.7 6.3 1.2-.1 2.5-.2 3.8-.4-.2 1.9-.3 4.3-.1 6-1.3-.2-2.7-.4-4-.4-.2 4.2-.2 8.2 0 10.7.3 3.5 1.8 4.2 3.9 3.4.2 3.6-1.9 6.2-5.4 6.3-4.2 0-6-3.2-6-9.5 0-3.1.4-7 .7-10.7l-2.4.3c.1-1.7 0-3.9-.3-5.7 1 .1 2 .2 3 .2.1-2.1.1-4-.2-5.2 3.3-.2 4.5-.5 7.7-1.3zM261.3 207.6c0 7.9-4.2 12.9-10 12.9-6.2 0-10.6-4.4-10.6-13.2 0-8.3 4-13.7 10.4-13.7 6.9 0 10.2 4.9 10.2 14zm-13.2-.2c0 5.5 1.4 8.1 3.1 8.1 1.8 0 3-2.8 3-8.5 0-5.4-.9-8.5-2.9-8.5-1.9 0-3.2 3.3-3.2 8.9zM271.1 197.8c1.2-2.5 3.5-3.9 6.2-3.9 3.7 0 5.9 3 5.9 8 0 4-.6 9.2-.4 12.8.1 1.8.9 3.3 2 3.9l-.2.5c-3.2-.2-6.8.1-10.2.8 1-2.1 1.6-9 1.6-12.2 0-6-.8-7.8-2-7.8s-2.5 2.3-2.5 9.4c0 7.1.5 8.8 2.1 10.3l-.2.4c-3.2-.6-7.6-.5-10.8.1l-.2-.4c1.8-1.5 2.5-4.6 2.5-12.6s-.6-10.7-2.5-11.8l.1-.4c3.3 0 6.2-.2 9.4-1-.4 1.1-.7 2.6-.8 3.9z"/><g><path class="st3" d="M189.9 242.5c0-9.4 3.6-15 9.5-15 2.6 0 3.9 1 5.6 1 .6 0 1.2-.1 1.7-.3-.9 2.8-1.4 5.9-1.3 8.8l-.4.2c-.9-2.6-2.4-4.7-4.5-4.7-2.4 0-4.2 2.9-4.2 9.5 0 7.1 2.2 9.5 5.4 9.5 2.1 0 3.6-.9 4.3-3.5l.3.2c.2.5.4 1.4.4 2 0 3.8-2.4 6.3-6.7 6.3-6.1 0-10.1-4.4-10.1-14zM224 246.2c0 6.2-3.3 10.1-7.8 10.1-4.9 0-8.3-3.4-8.3-10.4 0-6.5 3.1-10.7 8.1-10.7 5.4 0 8 3.9 8 11zm-10.4-.2c0 4.3 1.1 6.4 2.4 6.4 1.4 0 2.3-2.2 2.3-6.7 0-4.3-.7-6.7-2.2-6.7-1.4.1-2.5 2.7-2.5 7zM233.3 254.8l-.2-.4c.9-.8 1.4-2.7 1.4-8.1 0-4.7-.5-6-1.2-6-.8 0-1.6 1.6-1.6 7.3 0 5.5.6 6.9 1.6 7.9l-.2.3c-2.3-.4-5.7-.5-8.1-.1l-.2-.3c1.2-1.2 1.9-2.8 1.9-9.7 0-6.3-.4-8.5-2-9.3l.1-.3c2.6 0 4.8-.2 7.4-.8-.2.9-.4 1.8-.5 2.8.9-1.6 2.5-2.7 4.3-2.7 1.5 0 2.6.8 3.1 2 1-1.4 2.5-2.2 4.4-2.2 3 0 4.4 2.6 4.4 6.1v.8c-.2 3.1-.5 6.9-.4 9.6.1 1.4.7 2.6 1.6 3.1l-.2.3c-2.5-.1-5 0-7.7.6.8-1.7 1.1-8.1 1.1-10.6 0-4-.5-5.4-1.3-5.4s-1.6 1.6-1.6 7.4c0 5.5.4 6.4 1.5 7.1l-.1.3c-2.3-.2-5-.1-7.5.3zM256.6 254.5c.1 3.7.4 5.4.9 6.7.3.7 1 1.5 1.6 1.8l-.2.3c-2.6-.5-6.7-.5-9.5 0l-.2-.3c.5-.3.9-.8 1.2-1.5.7-1.8 1-5.2 1-12 0-9.1-.5-11.7-2.1-12.5l.1-.3c2.3-.1 4.6-.5 6.7-1.1-.1.8-.2 1.7-.3 2.6.8-1.9 2.7-3 4.6-3 3.9 0 6.2 3.4 6.2 10.4 0 6.7-2.5 10.7-6.5 10.7-1.6 0-2.8-.7-3.5-1.8zm4.3-9.1c0-4.2-.9-6.1-2.2-6.1-1.2 0-2.2 1.9-2.2 6.3 0 4.1.7 6.5 2.1 6.5 1.4 0 2.3-2.5 2.3-6.7zM278 253.9c-.8 1.6-2.6 2.6-4.7 2.6-3.3 0-5.7-2.1-5.7-5.8 0-2.8 1.7-4.8 5.7-6.2 3.6-1.3 4.4-2.3 4.4-3.4 0-.9-.5-1.7-1.7-1.7-1.3 0-2 .7-2 1.6 0 .7.3 1.1.8 1.3-.5.5-1.3.8-2.2.8-1.9 0-3.1-1.1-3.1-3 0-2.3 2-4.7 6.7-4.7s6.8 2.9 6.8 6.6c0 3.1-.2 6.5-.2 9.2 0 2.4.8 3 2 2.7l.1.3c-.7 1.2-2.1 1.9-3.7 1.9-1.6-.1-2.7-.9-3.2-2.2zm-2.5-6.6c-2 1.1-2.5 2-2.5 3 0 1.1.6 1.8 1.7 1.8 2 0 3-2.1 2.8-6.4-.4.6-1.2 1.1-2 1.6z"/><path class="st3" d="M291.4 238.5c.9-2 2.8-3.1 4.8-3.1 2.9 0 4.6 2.3 4.6 6.3 0 3.1-.5 7.2-.3 10 .1 1.4.7 2.6 1.6 3.1l-.2.3c-2.5-.1-5.3.1-8 .6.8-1.7 1.3-7.1 1.3-9.6 0-4.7-.7-6.1-1.5-6.1-.9 0-2 1.8-2 7.4 0 5.6.4 6.9 1.6 8.1l-.2.3c-2.5-.5-6-.4-8.5 0l-.2-.3c1.4-1.2 2-3.6 2-9.9 0-6.3-.5-8.4-2-9.3l.1-.3c2.6 0 4.8-.2 7.4-.8-.2 1.2-.4 2.3-.5 3.3zM318.4 256.3c0 6.1-2.4 9.3-8.9 9.3-4.3 0-6.7-2.3-6.7-5.1 0-2.2 1.3-3.6 3.6-3.6 1.6 0 2.4.7 3 1.5-.9.2-1.4.9-1.4 1.7 0 .9.6 1.7 1.9 1.7 2 0 3.2-1.8 2.7-7.9-1 1.5-2.6 2.1-4.4 2.1-3.2 0-4.9-2.1-4.9-6.8 0-2.9.5-6.7.5-9.1 0-2-.4-2.9-1.5-3.4l.2-.4c2.7 0 5.1-.3 7.7-1-.7 2.7-1.2 8.2-1.2 11.2 0 3.9.6 4.8 1.4 4.8 1 0 2.1-1.3 2.1-7.3 0-4.6-.5-6.8-1.6-7.5l.2-.3c2.6.1 5.1-.1 7.7-.5-.7 2.2-1 4.9-1 7.9.1 4.5.6 8.9.6 12.7z"/></g><path d="m231.8 287 1.6 2.1s91.8-1.6 96.8-7.4c1.4-1.6 18.2-17.2 18.6-30.2 1-36.6-9.5-96.1-9.5-96.1s-4.6-2.2-9-5.1c-4.3-2.9-115.8-36-123-34.5-7.2 1.4-115.8 41.7-120.1 49.6-4.3 7.9 2.1 104 2.1 104l140.4 24.9 46-4.9-1.4-1-43.9 3.5s-127.3-28.6-131.6-33.6c-4.3-5-12.7-86.6-8.4-90.2 4.3-3.6 111-49.2 116.1-50.5 3.8-1 109.9 35.7 112.8 38.5 2.9 2.9 11.2 103.2 9.4 108.3-1.8 5-2.2 13.7-4.7 15.1-2.6 1.5-92.2 7.5-92.2 7.5z" style="fill:#252723"/><path class="st1" d="m340.3 219.6 2.7 29.8 3-2.6zM334.6 229.4l2.3 24.6-5.3 15.1 9.1-14.4zM92.8 260.7l2.8 5.3 19.3 3.8-16.9-5.6zM318.6 150.9l8.4 6 2.5 9.5-.7-10.9z"/><g><path class="st3" d="M56.7 335.1V340.9h-1.6c-.6 0-1.1 0-1.7.1h-1.9c.1-3.3.2-6.4.2-9.4.1-3 .1-5.7.2-8.1 0-2.8.1-5.4.1-7.8.8-.1 1.6-.3 2.5-.3.9-.1 1.8-.1 2.8-.1 1.4 0 2.9.1 4.3.4 1.5.3 2.8.8 3.9 1.5 1.2.7 2.1 1.7 2.9 3 .7 1.3 1.1 2.9 1.1 4.8 0 2.1-.4 3.9-1.1 5.2-.7 1.4-1.7 2.4-2.9 3.2-1.2.8-2.6 1.3-4.1 1.5-1.5.2-3.1.3-4.7.2zm-.4-15.5v11.5c1.2.2 2.3.2 3.3 0s1.9-.5 2.7-1c.7-.5 1.3-1.2 1.7-2.1.4-.9.6-1.9.6-3.2 0-1.1-.2-2-.7-2.7-.5-.7-1.1-1.3-1.8-1.7-.8-.4-1.7-.7-2.7-.8-.9-.2-1.9-.2-3.1 0zM82.1 327.5c-1 0-1.8.2-2.6.4-.7.2-1.3.6-1.8 1.1-.5.5-.8 1.2-1.1 2-.2.9-.4 1.9-.4 3.3v6.3c-.5 0-1 .1-1.5.1s-1 0-1.5.1h-1.6v-11.2c0-2.1-.1-4.3-.2-6.4h4c-.1.4-.1.8-.1 1.1 0 .4 0 .7-.1 1 0 .4 0 .7-.1 1 .7-1 1.6-1.7 2.8-2.3 1.2-.5 2.5-.8 3.9-.8v1.4c0 .5 0 1 .1 1.4.2.5.2 1 .2 1.5zM92.1 322.5c1.4 0 2.7.2 3.8.7 1.2.4 2.2 1.1 3 1.9.8.8 1.5 1.7 1.9 2.8.5 1.1.7 2.3.7 3.5 0 1.5-.2 2.8-.6 4-.4 1.2-1 2.2-1.8 3.1-.8.8-1.7 1.5-2.9 2-1.1.5-2.4.7-3.8.7-1.5 0-2.9-.2-4-.7-1.2-.5-2.1-1.1-2.9-1.9-.8-.8-1.4-1.8-1.7-2.8-.4-1.1-.6-2.2-.6-3.4 0-1.5.2-2.8.7-4 .5-1.2 1.1-2.2 1.9-3 .8-.8 1.8-1.5 2.9-2 1-.7 2.1-.9 3.4-.9zm.2 3.7c-.7 0-1.3.2-1.9.5-.5.3-1 .8-1.4 1.3-.4.5-.6 1.1-.9 1.8-.2.7-.3 1.4-.3 2.1 0 .7.1 1.4.3 2.1.2.7.5 1.2.8 1.7.4.5.8.9 1.4 1.2.5.3 1.2.4 1.9.4s1.3-.2 1.9-.5c.6-.3 1-.7 1.4-1.2.4-.5.7-1.1.9-1.7.2-.7.3-1.3.3-2 0-.8-.1-1.5-.3-2.2-.2-.7-.5-1.3-.9-1.8s-.8-.9-1.4-1.2c-.5-.4-1.1-.5-1.8-.5zM103.5 322.9h4.2V325c.6-.7 1.3-1.3 2.2-1.7.8-.4 1.7-.7 2.7-.7 1.2 0 2.2.3 2.9.9.7.6 1.3 1.3 1.8 2.1.6-.6 1.3-1.2 2.2-1.6.8-.4 1.8-.6 2.8-.6.9 0 1.7.1 2.5.4.8.3 1.4.7 2 1.2.5.6 1 1.2 1.3 2.1.3.8.5 1.8.5 2.9v2.7c0 .9-.1 1.8-.1 2.7s-.1 1.7-.2 2.5-.1 1.5-.2 2.2c-.4 0-.9 0-1.4-.1-.4 0-.9 0-1.4-.1h-1.7c.1-1.2.2-2.6.3-4 .1-1.4.1-3 .1-4.7 0-1.5-.2-2.5-.6-3.2-.4-.7-1.1-1-2-1-.8 0-1.3.3-1.8.8-.4.5-.7 1.3-.9 2.3-.2 1-.3 2.3-.4 3.8v5.1H114c0-.7.1-1.4.1-2.1 0-.7.1-1.3.1-2v-4.5c0-.5 0-.9-.1-1.4-.1-.5-.2-.9-.4-1.3s-.4-.7-.7-.9c-.3-.2-.7-.3-1.1-.3-.6 0-1.1.2-1.5.5-.4.3-.7.8-1 1.3-.3.6-.4 1.2-.6 1.9-.1.7-.2 1.4-.2 2.1 0 .7-.1 1.3-.1 2v4.2c0 .9.1 1.7.1 2.5h-1.5c-.4 0-.9.1-1.5.1s-1.1.1-1.6.1c0-1.7 0-3.5-.1-5.5-.1-1.7-.1-3.6-.1-5.8-.2-2.2-.2-4.6-.3-7zM139.4 322.5c1.4 0 2.7.2 3.8.7 1.2.4 2.1 1.1 3 1.9.8.8 1.5 1.7 1.9 2.8.5 1.1.7 2.3.7 3.5 0 1.5-.2 2.8-.6 4-.4 1.2-1 2.2-1.8 3.1-.8.8-1.7 1.5-2.9 2-1.1.5-2.4.7-3.8.7-1.5 0-2.9-.2-4-.7-1.2-.5-2.1-1.1-2.9-1.9-.8-.8-1.4-1.8-1.7-2.8-.4-1.1-.6-2.2-.6-3.4 0-1.5.2-2.8.7-4 .5-1.2 1.1-2.2 1.9-3 .8-.8 1.8-1.5 2.9-2 .9-.7 2.1-.9 3.4-.9zm.1 3.7c-.7 0-1.3.2-1.9.5-.5.3-1 .8-1.4 1.3-.4.5-.6 1.1-.8 1.8-.2.7-.3 1.4-.3 2.1 0 .7.1 1.4.3 2.1.2.7.5 1.2.8 1.7.4.5.8.9 1.4 1.2.5.3 1.2.4 1.9.4s1.3-.2 1.9-.5c.6-.3 1-.7 1.4-1.2.4-.5.7-1.1.9-1.7.2-.7.3-1.3.3-2 0-.8-.1-1.5-.3-2.2-.2-.7-.5-1.3-.9-1.8s-.9-.9-1.4-1.2c-.6-.4-1.2-.5-1.9-.5zM151.9 318.9h1.2c.8 0 2 0 3.7-.1v1c0 .7-.1 1.8-.1 3.2h5.9v4.3c-.6 0-1.2 0-1.8-.1-.5 0-1.2 0-1.9-.1-.7 0-1.5 0-2.3-.1 0 .8 0 1.6-.1 2.4 0 .7-.1 1.3-.1 2v1.8c0 1 .2 1.8.7 2.3.4.5 1 .7 1.8.7s1.9-.3 3-.9l1.3 3.9c-.8.5-1.7.8-2.6 1.1-.9.3-1.7.4-2.6.4-.8 0-1.6-.1-2.4-.4-.8-.3-1.4-.7-2-1.3-.6-.6-1-1.3-1.4-2.2-.3-.9-.5-2-.5-3.3v-2.2c0-.8 0-1.4.1-2v-2.1c-.2 0-.4 0-.6-.1-.4 0-1-.1-1.7-.1v-4c.1 0 .3.1.5.1h1.7v-2.3c.1-.4.2-1.1.2-1.9zM167.9 313.8c.4 0 .9.1 1.2.2.4.2.7.4 1 .7.3.3.5.6.6 1 .2.4.2.8.2 1.3 0 1.1-.3 1.9-.9 2.5-.6.6-1.4.9-2.2.9-.9 0-1.7-.3-2.3-.9-.6-.6-.9-1.4-.9-2.4s.3-1.8 1-2.4c.6-.6 1.4-.9 2.3-.9zm-2.3 9.2c.4 0 .9.1 1.4.1h3.3c0 1.4 0 3-.1 4.8 0 1.5 0 3.4-.1 5.5v7.2h-1.6c-.5 0-1 .1-1.5.1h-1.6c0-2.1.1-4.1.1-6.2v-8.6c.1-1.1.1-2 .1-2.9zM181.7 322.5c1.4 0 2.7.2 3.8.7 1.2.4 2.1 1.1 3 1.9.8.8 1.5 1.7 1.9 2.8.5 1.1.7 2.3.7 3.5 0 1.5-.2 2.8-.6 4-.4 1.2-1 2.2-1.8 3.1-.8.8-1.8 1.5-2.9 2-1.1.5-2.4.7-3.8.7-1.5 0-2.9-.2-4-.7-1.2-.5-2.1-1.1-2.9-1.9-.8-.8-1.4-1.8-1.7-2.8-.4-1.1-.6-2.2-.6-3.4 0-1.5.2-2.8.7-4 .5-1.2 1.1-2.2 1.9-3 .8-.8 1.8-1.5 2.9-2 .9-.7 2.1-.9 3.4-.9zm.2 3.7c-.7 0-1.3.2-1.9.5-.5.3-1 .8-1.4 1.3-.4.5-.6 1.1-.8 1.8-.2.7-.3 1.4-.3 2.1 0 .7.1 1.4.3 2.1.2.7.5 1.2.8 1.7.4.5.8.9 1.4 1.2.5.3 1.2.4 1.9.4s1.3-.2 1.9-.5c.6-.3 1-.7 1.4-1.2.4-.5.7-1.1.9-1.7.2-.7.3-1.3.3-2 0-.8-.1-1.5-.3-2.2-.2-.7-.5-1.3-.9-1.8s-.9-.9-1.4-1.2c-.6-.4-1.3-.5-1.9-.5zM204.6 339.7c0-1.1 0-2 .1-2.8v-4.2c0-.6 0-1.3-.1-2.1-.1-2.4-.9-3.6-2.6-3.6-1.4 0-2.4.6-3.1 1.7-.7 1.1-1.1 2.4-1.1 4.1 0 1.3-.1 2.7 0 4.1 0 1.4.1 2.9.1 4.4-.9 0-1.7-.1-2.4-.1h-2.1c0-1 0-2-.1-3.1 0-1.1 0-2.1-.1-3.1 0-1 0-2-.1-3 0-1-.1-1.9-.1-2.8-.1-2-.1-4-.1-6h2.7c.4 0 .8 0 1.3.1 0 .3 0 .7-.1 1v1.6c.7-.8 1.5-1.4 2.5-2 1-.5 2.1-.8 3.2-.8.9 0 1.8.1 2.6.4.8.3 1.5.7 2.1 1.3.6.6 1.1 1.4 1.4 2.4.3 1 .5 2.1.5 3.5v6c0 1-.1 2.1-.1 3.1h-3c-.4-.1-.9-.1-1.4-.1zM211.2 328.8c.2-.9.5-1.7 1-2.4.4-.7 1-1.4 1.6-1.9.7-.5 1.4-.9 2.2-1.2.8-.3 1.8-.4 2.9-.4 1.1 0 2.2.2 3.1.5 1 .3 1.8.8 2.5 1.5s1.2 1.5 1.6 2.5c.4 1 .6 2.2.6 3.6 0 1 .1 2 .1 3.1v2.9c0 1 0 2 .1 3H223v-.5c0-.2 0-.4-.1-.6 0-.2 0-.4-.1-.6-.4.6-.8 1-1.3 1.4-.5.4-1 .7-1.5.9-.5.2-1 .4-1.5.5-.5.1-1 .1-1.4.1-.6 0-1.3-.1-2-.3-.7-.2-1.3-.5-1.9-.9-.6-.4-1.1-.9-1.5-1.6-.4-.7-.6-1.5-.6-2.4 0-1.2.4-2.2 1.1-2.9.7-.8 1.6-1.4 2.7-1.9s2.3-.8 3.6-1c1.3-.2 2.6-.3 3.8-.3-.1-.9-.4-1.6-.8-2.2-.4-.6-1.2-.9-2.3-.9-.9 0-1.6.3-2.1.8-.6.5-1 1.2-1.2 2-.4 0-.8-.1-1.3-.2-.4 0-.9-.1-1.4-.2-.7-.3-1.3-.3-2-.4zm11.3 3.9h-1c-.8 0-1.5.1-2.2.2-.7.2-1.3.4-1.8.7-.5.3-.9.6-1.2 1-.3.4-.4.8-.4 1.2 0 .3.1.6.2.8.1.2.3.4.5.6.2.1.4.2.7.3.2.1.5.1.7.1.5 0 1-.1 1.5-.3.5-.2 1-.5 1.5-1 .4-.4.8-.9 1.1-1.5.3-.7.4-1.4.4-2.1zM229.3 315.7H232.7c.5 0 1 0 1.5.1 0 1.3 0 2.7-.1 4.1v12.2c0 2.8 0 5.6-.1 8.3h-3.2c-.5 0-.9.1-1.3.1v-14.9c-.2-3.1-.2-6.4-.2-9.9zM248.3 335.1V340.9h-1.6c-.6 0-1.2 0-1.7.1h-1.9c.1-3.3.2-6.4.2-9.4.1-3 .1-5.7.2-8.1 0-2.8.1-5.4.1-7.8.8-.1 1.6-.3 2.4-.3.9-.1 1.8-.1 2.8-.1 1.4 0 2.9.1 4.3.4 1.5.3 2.8.8 3.9 1.5 1.2.7 2.1 1.7 2.9 3 .7 1.3 1.1 2.9 1.1 4.8 0 2.1-.4 3.9-1.1 5.2-.7 1.4-1.7 2.4-2.9 3.2-1.2.8-2.6 1.3-4.1 1.5-1.4.2-3 .3-4.6.2zm-.3-15.5v11.5c1.2.2 2.3.2 3.3 0s1.9-.5 2.7-1c.7-.5 1.3-1.2 1.7-2.1.4-.9.6-1.9.6-3.2 0-1.1-.2-2-.7-2.7-.5-.7-1.1-1.3-1.8-1.7-.8-.4-1.7-.7-2.7-.8-.9-.2-2-.2-3.1 0zM273.7 327.5c-1 0-1.8.2-2.6.4-.7.2-1.3.6-1.8 1.1-.5.5-.8 1.2-1.1 2-.2.9-.4 1.9-.4 3.3v6.3c-.5 0-1 .1-1.5.1s-1 0-1.5.1h-1.6v-11.2c0-2.1-.1-4.3-.2-6.4h4c0 .4-.1.8-.1 1.1 0 .4 0 .7-.1 1 0 .4 0 .7-.1 1 .7-1 1.6-1.7 2.8-2.3 1.1-.5 2.5-.8 3.9-.8v1.4c0 .5 0 1 .1 1.4.2.5.2 1 .2 1.5zM283.7 322.5c1.4 0 2.7.2 3.8.7 1.1.4 2.1 1.1 3 1.9.8.8 1.5 1.7 1.9 2.8.5 1.1.7 2.3.7 3.5 0 1.5-.2 2.8-.6 4-.4 1.2-1 2.2-1.8 3.1-.8.8-1.7 1.5-2.9 2-1.1.5-2.4.7-3.8.7-1.5 0-2.9-.2-4-.7-1.2-.5-2.1-1.1-2.9-1.9-.8-.8-1.4-1.8-1.7-2.8-.4-1.1-.6-2.2-.6-3.4 0-1.5.2-2.8.7-4 .5-1.2 1.1-2.2 1.9-3 .8-.8 1.8-1.5 2.9-2 1-.7 2.2-.9 3.4-.9zm.2 3.7c-.7 0-1.3.2-1.9.5-.5.3-1 .8-1.4 1.3-.4.5-.7 1.1-.9 1.8-.2.7-.3 1.4-.3 2.1 0 .7.1 1.4.3 2.1.2.7.5 1.2.8 1.7.4.5.8.9 1.4 1.2.5.3 1.2.4 1.9.4s1.3-.2 1.9-.5c.6-.3 1-.7 1.4-1.2.4-.5.7-1.1.9-1.7.2-.7.3-1.3.3-2 0-.8-.1-1.5-.3-2.2-.2-.7-.5-1.3-.9-1.8s-.9-.9-1.4-1.2c-.5-.4-1.1-.5-1.8-.5zM312.2 316.6c0 2.4-.1 5-.1 7.6 0 2.3-.1 4.8-.1 7.5 0 2.8-.1 5.5-.1 8.3h-4.3v-1.9c-.6.7-1.4 1.2-2.3 1.6-1 .4-1.9.6-3 .6-1 0-2-.2-2.9-.5s-1.7-.9-2.4-1.6c-.7-.7-1.2-1.6-1.7-2.7-.4-1.1-.6-2.3-.6-3.8 0-1.2.2-2.4.6-3.6.4-1.1.9-2.2 1.6-3 .7-.9 1.5-1.6 2.5-2.1.9-.5 2-.8 3.1-.8.4 0 .9.1 1.4.2.5.1.9.3 1.4.4.4.2.9.4 1.3.6.4.2.7.5 1 .8 0-.5 0-1.2-.1-1.9 0-.7-.1-1.5-.1-2.4 0-.9-.1-2-.1-3.3h2.8c.7.1 1.4.1 2.1 0zm-8.9 9.6c-.6 0-1.2.1-1.6.4-.5.3-.9.7-1.2 1.1-.3.5-.6 1-.7 1.6-.2.6-.3 1.3-.3 1.9 0 .8.1 1.5.3 2.2.2.7.5 1.2.9 1.7s.8.8 1.3 1.1c.5.2 1 .4 1.6.4.7 0 1.2-.1 1.7-.4.5-.3.9-.6 1.2-1.1.3-.4.6-1 .7-1.6.2-.6.2-1.2.2-1.9 0-.8-.1-1.5-.3-2.2-.2-.7-.5-1.3-.8-1.7-.4-.5-.8-.9-1.3-1.2-.4-.2-1-.3-1.7-.3zM325.3 324H327.9c.6 0 1.2-.1 2-.1 0 2.2.1 4.3.1 6.2 0 2 .1 3.7.1 5.2 0 1.7.1 3.4.1 4.9-.4 0-.8.1-1.2.1-.4 0-.9 0-1.3.1-.5 0-.9 0-1.4.1v-2.2c-.5.7-1.2 1.3-2.1 1.8-.9.4-1.8.7-2.8.7-1.4 0-2.5-.3-3.4-.8-.9-.5-1.6-1.2-2.1-2.1-.5-.9-.9-1.9-1.1-3.1-.2-1.2-.3-2.4-.3-3.8 0-1.3.1-2.6.2-4s.3-2.8.5-4.3c.6 0 1.1.1 1.7.1.6 0 1.1.1 1.5.1.5 0 1 .1 1.5.1-.2 1.3-.4 2.6-.5 4-.2 1.4-.2 2.7-.2 4 0 .8 0 1.6.1 2.3.1.7.3 1.3.5 1.9.2.5.5.9.9 1.3.4.3.9.5 1.5.5.9 0 1.7-.5 2.3-1.3.6-.8 1-2.1 1-3.9 0-.7.1-1.4.1-2.3V327c-.2-1.1-.2-2-.3-3zM340.3 322.7c2 0 3.7.6 5.2 1.7s2.4 2.8 2.9 4.9h-2.7c-.6 0-1.3 0-2.1.1-.2-.8-.5-1.5-1-2.1-.5-.6-1.2-.9-2.1-.9-.6 0-1.1.2-1.6.5s-.9.7-1.2 1.2c-.3.5-.6 1.1-.8 1.8-.2.7-.3 1.4-.3 2.2 0 .8.1 1.5.3 2.1.2.6.5 1.2.9 1.6.4.4.8.8 1.3 1 .5.2 1 .3 1.6.3.7 0 1.4-.2 2-.7.6-.5 1.1-1.2 1.3-2.2.4 0 .9.1 1.4.1.4 0 1 0 1.6.1.6 0 1.3.1 2 .1-.2 1-.5 2-1 2.8-.5.8-1.1 1.5-1.8 2.1-.7.6-1.6 1-2.5 1.3-.9.3-1.9.4-3 .4-1.4 0-2.6-.2-3.7-.7-1.1-.4-2.1-1-2.8-1.8-.8-.8-1.4-1.7-1.8-2.8-.4-1.1-.6-2.2-.6-3.5 0-1.5.2-2.8.7-4 .5-1.2 1.1-2.2 1.9-3 .8-.8 1.7-1.4 2.7-1.9 1-.4 2.1-.7 3.2-.7zM351.9 318.9h1.2c.8 0 2 0 3.7-.1v1c0 .7-.1 1.8-.1 3.2h5.9v4.3c-.6 0-1.2 0-1.8-.1-.5 0-1.2 0-1.9-.1-.7 0-1.5 0-2.3-.1 0 .8 0 1.6-.1 2.4v3.8c0 1 .2 1.8.7 2.3.4.5 1 .7 1.8.7s1.9-.3 3-.9l1.3 3.9c-.8.5-1.7.8-2.5 1.1-.9.3-1.7.4-2.6.4-.8 0-1.6-.1-2.4-.4-.8-.3-1.4-.7-2-1.3-.6-.6-1-1.3-1.4-2.2-.3-.9-.5-2-.5-3.3v-2.2c0-.8 0-1.4.1-2v-2.1c-.2 0-.4 0-.6-.1-.4 0-1-.1-1.7-.1v-4c.1 0 .3.1.5.1h1.7v-2.3c-.1-.4 0-1.1 0-1.9zM380.4 329c-.4 0-.8.1-1.3.1-.4 0-.8.1-1.3.2s-1 .1-1.6.2c-.1-.6-.3-1.1-.6-1.5-.3-.4-.6-.8-1-1.1-.4-.3-.8-.5-1.3-.6-.5-.1-.9-.2-1.4-.2-.8 0-1.5.2-2.1.5-.6.4-.9.9-1 1.6 0 .5.2 1 .6 1.2.4.3.9.5 1.6.7.6.2 1.3.3 2.1.5.8.1 1.6.3 2.3.5.6.2 1.1.4 1.6.6.5.2 1 .5 1.4.9.4.4.7.8 1 1.3.2.5.4 1.1.4 1.8 0 .9-.2 1.7-.6 2.3-.4.7-.9 1.2-1.6 1.7-.6.5-1.4.8-2.2 1-.8.2-1.7.3-2.6.3-1 0-1.9-.1-2.9-.4-.9-.2-1.8-.6-2.6-1.1-.8-.5-1.4-1.2-2-1.9-.5-.8-.9-1.7-1-2.7.3 0 .6 0 1.1-.1.3 0 .8 0 1.3-.1.6 0 1.2 0 2-.1.1.5.3.9.6 1.2.3.3.6.6 1 .8.4.2.8.4 1.2.5.4.1.8.1 1.2.1.6 0 1.2-.1 1.6-.4.4-.3.7-.6.7-1.1 0-.5-.2-.8-.7-1.1-.4-.3-1-.5-1.7-.7-.7-.2-1.4-.4-2.2-.5l-2.4-.6c-.5-.2-1-.4-1.5-.7-.5-.3-.9-.6-1.2-.9-.4-.4-.6-.8-.9-1.3-.2-.5-.3-1.1-.3-1.8 0-1 .2-1.9.6-2.6.4-.8 1-1.4 1.7-1.9s1.5-.9 2.4-1.1c.9-.3 1.8-.4 2.8-.4 1 0 2 .1 3 .4 1 .3 1.9.7 2.7 1.3.8.6 1.5 1.3 2 2.1.7 1 1 2 1.1 3.1z"/></g></svg>