<svg version="1.1" id="Layer_1" xmlns="http://www.w3.org/2000/svg" x="0" y="0" width="790.7" height="482.5" style="enable-background:new 0 0 790.7 482.5" xml:space="preserve"><style>.st0{fill:#706359}</style><path class="st0" d="M136.8 326.8c2.9 0 4.9.6 6.1 2 1.5 1.5 2 3.1 2 6.5 0 2.3-.4 4-1.8 5.5-.4.4-1 .8-1.6 1.1.7.3 1.3.7 1.7 1.2 1.5 1.5 1.8 3.4 1.8 6.4 0 3.7-.5 5.5-2 7.1-1.3 1.3-3.3 2-6.2 2h-7.9v-31.7h7.9zm-3 4.5v8.6h2.5c2.6 0 3.6-1.3 3.6-4.3 0-3.1-1-4.3-3.6-4.3h-2.5zm0 12.8v9.9h2.4c2.7 0 3.8-1.2 3.8-4.9 0-3.5-1.1-4.9-3.8-4.9h-2.4zM165.4 331.3h-8.3v8.9h7.2v4.5h-7.2v9.4h8.3v4.5h-13.3v-31.7h13.3v4.4zM187 331.3h-5.3v27.2h-5v-27.2h-5.3v-4.5H187v4.5zM207.8 331.3h-5.3v27.2h-5v-27.2h-5.3v-4.5h15.6v4.5zM227.7 331.3h-8.3v8.9h7.2v4.5h-7.2v9.4h8.3v4.5h-13.3v-31.7h13.3v4.4zM243.4 326.8c5.8 0 8.1 2.8 8.1 9.4 0 3.9-.8 6.7-3.7 8.3l4.7 14.1h-5.2l-4.1-13h-2.8v13h-5v-31.7h8zm-3.1 4.5v9.7h3.1c2.7 0 3.1-2.2 3.1-4.9 0-2.6-.4-4.9-3.1-4.9h-3.1zM284.6 331.3h-8.3v9h7.2v4.5h-7.2v13.7h-5v-31.7h13.3v4.5zM293.5 356.1c-2.1-2.5-2.3-6-2.3-13.5s.2-11 2.3-13.5c1.3-1.6 3.2-2.7 6.1-2.7 2.9 0 4.9 1.2 6.1 2.7 2.1 2.5 2.3 6 2.3 13.5s-.2 11-2.3 13.5c-1.3 1.6-3.2 2.7-6.1 2.7-2.9 0-4.8-1.1-6.1-2.7zm8.6-3c.9-1.5 1.1-4.7 1.1-10.5s-.1-9-1.1-10.5c-.4-.7-1.2-1.2-2.4-1.2s-1.9.5-2.4 1.2c-.9 1.5-1.1 4.7-1.1 10.5s.2 9 1.1 10.5c.4.7 1.2 1.2 2.4 1.2s1.9-.4 2.4-1.2zM317.5 356.1c-2.1-2.5-2.3-6-2.3-13.5s.2-11 2.3-13.5c1.3-1.6 3.2-2.7 6.1-2.7 2.9 0 4.9 1.2 6.1 2.7 2.1 2.5 2.3 6 2.3 13.5s-.2 11-2.3 13.5c-1.3 1.6-3.2 2.7-6.1 2.7-2.9 0-4.8-1.1-6.1-2.7zm8.6-3c.9-1.5 1.1-4.7 1.1-10.5s-.1-9-1.1-10.5c-.4-.7-1.2-1.2-2.4-1.2s-1.9.5-2.4 1.2c-.9 1.5-1.1 4.7-1.1 10.5s.2 9 1.1 10.5c.4.7 1.2 1.2 2.4 1.2s1.9-.4 2.4-1.2zM348 326.8c3 0 4.9 1.2 6.1 2.6 2.1 2.4 2.3 5.9 2.3 13.2 0 7.3-.2 10.9-2.3 13.3-1.3 1.5-3.1 2.6-6.1 2.6h-8v-31.7h8zm-3.1 4.5V354h2.9c1.2 0 2-.5 2.5-1.3 1-1.5 1.1-4.6 1.1-10.1s-.1-8.6-1.1-10c-.5-.8-1.3-1.3-2.5-1.3h-2.9zM366.2 358.5h-5.5V353h5.5v5.5zM393.6 326.8c2.9 0 4.9.6 6.1 2 1.5 1.5 2 3.1 2 6.5 0 2.3-.4 4-1.8 5.5-.4.4-1 .8-1.6 1.1.7.3 1.3.7 1.7 1.2 1.5 1.5 1.8 3.4 1.8 6.4 0 3.7-.5 5.5-2 7.1-1.3 1.3-3.3 2-6.2 2h-7.9v-31.7h7.9zm-2.9 4.5v8.6h2.5c2.6 0 3.6-1.3 3.6-4.3 0-3.1-1-4.3-3.6-4.3h-2.5zm0 12.8v9.9h2.4c2.7 0 3.8-1.2 3.8-4.9 0-3.5-1.1-4.9-3.8-4.9h-2.4zM422.3 331.3H414v8.9h7.2v4.5H414v9.4h8.3v4.5H409v-31.7h13.3v4.4zM443.9 331.3h-5.3v27.2h-5v-27.2h-5.3v-4.5h15.6v4.5zM464.7 331.3h-5.3v27.2h-5v-27.2h-5.3v-4.5h15.6v4.5zM484.5 331.3h-8.3v8.9h7.2v4.5h-7.2v9.4h8.3v4.5h-13.3v-31.7h13.3v4.4zM500.2 326.8c5.8 0 8.1 2.8 8.1 9.4 0 3.9-.8 6.7-3.7 8.3l4.7 14.1h-5.2l-4.1-13h-2.8v13h-5v-31.7h8zm-3 4.5v9.7h3.1c2.7 0 3.1-2.2 3.1-4.9 0-2.6-.4-4.9-3.1-4.9h-3.1zM541.5 331.3h-8.3v9h7.2v4.5h-7.2v13.7h-5v-31.7h13.3v4.5zM564.8 350.6c0 2.4-.8 4.4-2.2 5.8-1.5 1.6-3.5 2.4-5.9 2.4-2.5 0-4.4-.8-5.9-2.4-1.4-1.4-2.2-3.4-2.2-5.8v-23.9h5v23.7c0 2.7 1.1 3.9 3.1 3.9s3.1-1.2 3.1-3.9v-23.7h5v23.9zM587.1 331.3h-5.3v27.2h-5v-27.2h-5.3v-4.5h15.6v4.5zM610 350.6c0 2.4-.8 4.4-2.2 5.8-1.5 1.6-3.5 2.4-5.9 2.4-2.5 0-4.4-.8-5.9-2.4-1.4-1.4-2.2-3.4-2.2-5.8v-23.9h5v23.7c0 2.7 1.1 3.9 3.1 3.9s3.1-1.2 3.1-3.9v-23.7h5v23.9zM626.4 326.8c5.8 0 8.1 2.8 8.1 9.4 0 3.9-.8 6.7-3.7 8.3l4.7 14.1h-5.2l-4.1-13h-2.8v13h-5v-31.7h8zm-3 4.5v9.7h3.1c2.7 0 3.1-2.2 3.1-4.9 0-2.6-.4-4.9-3.1-4.9h-3.1zM656.4 331.3H648v8.9h7.2v4.5H648v9.4h8.3v4.5H643v-31.7h13.3v4.4zM666.7 358.5h-5.5V353h5.5v5.5zM517 302.8h-41V123.7h124v38.4h-83v45.2h64.5v37.4H517v58.1zM661.7 302.8h-41V123.7h41v179.1zM371 120.5c41.7 0 71.9 29 71.9 68.9v113.4h-41V190.7c0-20.5-11.8-33.3-30.8-33.3-19.4 0-31.4 12.7-31.4 33.3v112.1h-41V189.4c-.2-39.9 30.3-68.9 72.3-68.9z"/><g><path class="st0" d="M688.9 302.8v-9l-3 5.9h-1.6l-3-5.9v9h-1.7v-12.5h1.7l3.8 7.6 3.8-7.6h1.7v12.5h-1.7zM674 291.9v10.9h-1.7v-10.9h-3.4v-1.5h8.6v1.5H674z"/></g><g><path class="st0" d="M216.9 262.2c-5.3 4.6-12.4 7.1-21 7.1-19 0-30.8-12.7-30.8-33.3V124h-41v113.4c0 39.9 30.2 68.9 71.9 68.9 7.4 0 14.4-.9 21-2.6v-41.5z"/><path d="M268.2 103.4c-24.4 10.3-41 41-41 70.3v126.6c24.4-10.3 40.3-32.8 41-60.9v-136z" style="fill:#82bd41"/></g></svg>