<svg version="1.1" id="Layer_1" xmlns="http://www.w3.org/2000/svg" x="0" y="0" width="472.9" height="472.9" style="enable-background:new 0 0 472.9 472.9" xml:space="preserve"><style>.st0{fill:#fff200;stroke:#000;stroke-width:3;stroke-miterlimit:2.6131}.st4,.st6{fill-rule:evenodd;clip-rule:evenodd}.st6{fill:#fff}.st7{fill:none;stroke:#000;stroke-width:.432;stroke-miterlimit:2.6131}</style><path class="st0" d="m188.2 84.6-.3 29.6 17.4-5.6zM238.9 55.6 221 105.3l32.5.7zM414.6 181l-52.9.1 10.5 30.8zM349.7 93.8l-44 29.4 25.7 19.8zM129.8 90.4l15.5 50.5 26.4-18.9zM64.7 171.1l38.4 36.3 13.6-29.5zM371.1 145.9l-28 9.8 11.2 14.4zM290 86.8l-17.2 24.1 17.5 5.3zM107 140.6l15.4 25.3 11.7-14z"/><path d="M237.1 227.2V104.3c59.8 0 111.4 50.5 133.4 122.3-20.7.6-42.5.6-49.4.6h-84z" style="fill-rule:evenodd;clip-rule:evenodd;fill:#fff200;stroke:#000;stroke-width:3;stroke-miterlimit:2.6131"/><path d="M237.2 381.2c-76 .1-138.1-61.7-138.3-137.7" style="fill:#ed1c24"/><path d="M376.8 243.5c-.6 76-63.2 137.5-139.2 136.9"/><path d="M236.9 104c76 0 138 62 138 138" style="fill:#fff200"/><path class="st4" d="M237.4 266.7v113.9c61.2 0 113.9-46.8 136.4-113.3-21.2-.6-43.5-.6-50.5-.6h-85.9z"/><path d="M237.8 267.7v111.5c-60.2 0-112.1-45.9-134.3-110.9 20.8-.6 42.8-.6 49.8-.6h84.5z" style="fill-rule:evenodd;clip-rule:evenodd;fill:#ed1c24"/><path d="M104.8 318.5c-.2-.3-.4-.5-.5-.5-.2 0-.4 0-.7.1l-.2-.4 4.2-2.7.2.4c-.2.3-.4.5-.4.7 0 .2.1.4.2.7l8.4 12.9c.2.3.4.5.5.5.2 0 .4 0 .8-.1l.3.4-4.2 2.7-.3-.4c.3-.2.4-.5.4-.6 0-.2-.1-.4-.2-.7l-3.1-4.8-11.6 7.3c-.3.2-.5.4-.5.5 0 .2 0 .4.1.7l-.4.3-3.1-4.8.4-.3c.3.2.5.4.6.4.2 0 .4-.1.7-.2l11.4-7.4-3-4.7zM125.4 345.9l-3.6-4.2-3.9 3.2 3.6 4.4c1.1 1.3 2 2.1 2.8 2.4.8.3 1.5.1 2.2-.5.7-.6.9-1.2.8-2-.1-.8-.8-1.9-1.9-3.3m-18.4 1.8.4-.3c.3.2.5.3.7.3.2 0 .4-.1.6-.3l11.8-9.9c.2-.2.4-.4.4-.6 0-.2 0-.4-.2-.8l.4-.3 7.4 8.8c1.5 1.8 2.4 3.6 2.5 5.2.1 1.6-.4 3-1.7 4-1.1.9-2.2 1.3-3.4 1.2-1.2 0-2.5-.6-4-1.6l-1.7 6.5c-.1.4-.2.8-.2 1.2 0 .4.1.9.2 1.6l-.4.3-4.3-5.2.4-.3c.2.2.4.3.5.3.2 0 .3 0 .4-.1 0 0 .1-.1.2-.3.1-.2.2-.4.2-.6l1.9-6.6-3.2-3.8-4.7 3.9c-.3.2-.4.4-.4.6 0 .2 0 .4.2.7l-.4.3-3.6-4.2zM131.5 370.5c-.2.3-.3.5-.3.6 0 .2.1.4.3.7l-.3.3-4.3-3.8.3-.4c.3.2.6.2.7.2.2 0 .4-.2.6-.4l10.1-11.6c.2-.3.4-.5.4-.7 0-.2-.1-.4-.3-.7l.3-.4 4.3 3.8-.3.4c-.3-.2-.5-.2-.7-.2-.2 0-.4.2-.6.4l-10.2 11.8zM156.7 371.5l-5.5-3.4-2.1 3.4 5.9 3.7c.9.6 1.7.9 2.3.9.6 0 1.1-.3 1.5-.8.4-.6.4-1.2.1-1.8-.3-.6-1-1.3-2.2-2m-4.2 5.9-5.1-3.2-2.7 4.3 5 3.1c1.6 1 2.7 1.5 3.5 1.5.8 0 1.4-.3 1.9-1.1s.5-1.5.1-2.2c-.4-.7-1.3-1.5-2.7-2.4zm-13.6 1.1.2-.4c.4.1.6.1.8.1.2-.1.3-.2.5-.5l8.2-13.1c.2-.3.3-.5.2-.7 0-.2-.2-.4-.4-.6l.2-.4 10.5 6.6c1.8 1.1 2.9 2.3 3.5 3.6.5 1.3.4 2.6-.4 3.8-.4.7-1 1.2-1.7 1.5-.7.3-1.5.4-2.5.4.6 1 .9 2 1 2.8 0 .9-.2 1.8-.7 2.6-.9 1.4-2.2 2.2-3.8 2.3-1.6.1-3.5-.5-5.5-1.8l-10.1-6.2zM176.6 384.1l-5.6 4.5 5.5 2.6.1-7.1zm-15.4 7.9.2-.4c.6.1 1.3-.1 2.1-.8l.2-.2 12.2-10.1c.1-.1.2-.2.3-.2 0 0 .1-.1.1-.2.1-.2.1-.4 0-.6-.1-.2-.3-.4-.5-.6l.2-.4 5.6 2.6-.2.4h-.8c-.2 0-.3.2-.3.3 0 .1-.1.2-.1.3v.4l.3 15.9c0 .7.1 1.2.2 1.5.1.3.3.6.6.8l-.2.4-6-2.8.2-.4h.8c.2-.1.3-.2.4-.3 0-.1.1-.2.1-.2v-3.5l-7.6-3.6-2.3 2-.3.3c-.1.1-.1.1-.1.2-.1.2-.1.3 0 .5s.2.4.5.6l-.2.4-5.4-2.3zM205.1 403.6c.4.1.6.1.7 0 .1-.1.3-.3.4-.6l.5.1-1.2 4.9-.5-.1c0-.3 0-.6-.1-.7-.1-.1-.3-.3-.6-.3l-15.9-4 .1-.5c.4 0 .6-.1.8-.2.1-.1.2-.3.3-.6l3.7-15c.1-.3.1-.6 0-.7-.1-.2-.3-.3-.6-.5l.1-.4 5.6 1.4-.1.4c-.4 0-.6 0-.7.1-.1.1-.3.3-.3.6l-3.3 13.2 11.1 2.9zM249 403.5l.4-.3 2.7 3.9-.4.3c-.1-.1-.2-.2-.3-.2-.1 0-.1-.1-.2-.1s-.5.2-1.1.6c-2.7 1.7-5.4 2.7-8.1 2.8-3.1.1-5.6-.7-7.7-2.5-2.1-1.8-3.2-4-3.3-6.7-.1-2.8.9-5.1 2.8-7 2-1.9 4.6-2.9 7.9-3 1.7-.1 3.4.2 5.1.6 1.7.5 2.7.7 2.8.7.1 0 .3 0 .4-.1.2 0 .3-.1.5-.1l.4.2-2.4 4.3-.4-.2v-.2c0-.5-.7-1-2.1-1.5-1.4-.5-2.8-.7-4.3-.7-2.1.1-3.7.7-5 2-1.3 1.2-1.9 2.7-1.8 4.5.1 1.9.8 3.4 2.1 4.6 1.4 1.1 3.1 1.7 5.2 1.6 1.6-.1 3.1-.5 4.6-1.2 1.5-.7 2.2-1.3 2.2-1.7v-.3c.1-.1 0-.2 0-.3M261.2 398.9c.4 1.8 1.2 3.2 2.7 4.1 1.4.9 3.1 1.1 5.1.7 2-.4 3.5-1.3 4.5-2.6 1-1.4 1.3-2.9 1-4.8-.4-1.8-1.2-3.2-2.7-4.1-1.4-.9-3.1-1.1-5.1-.7-2 .4-3.5 1.3-4.4 2.6-1.1 1.4-1.4 3-1.1 4.8m4.8-10.5c3.1-.6 5.7-.2 8 1.2s3.7 3.4 4.2 6.1c.5 2.7 0 5.1-1.7 7.3-1.6 2.2-4 3.5-7 4.1-3 .6-5.6.2-8-1.2-2.3-1.4-3.7-3.4-4.3-6.1-.5-2.7 0-5.1 1.6-7.2 1.9-2.3 4.2-3.6 7.2-4.2zM290.6 393.4c.6 1.5 1.4 2.5 2.4 2.8 1 .3 2.4.1 4.1-.6 1.7-.7 2.8-1.5 3.3-2.5s.4-2.3-.2-3.8l-3.5-8.7c-.1-.3-.3-.5-.4-.6-.1-.1-.4-.1-.7 0l-.2-.4 5.4-2.2.2.4c-.3.2-.5.4-.5.6-.1.2 0 .4.1.7l3.7 9.2c1 2.5 1 4.5.1 6-.9 1.6-2.9 3-6 4.3-3 1.2-5.4 1.6-7.2 1.1-1.8-.5-3.1-2-4.1-4.4l-3.7-9.2c-.1-.3-.3-.5-.4-.6-.1-.1-.4-.1-.7 0l-.2-.4 5.3-2.2.2.4c-.3.2-.5.4-.5.5-.1.2 0 .4.1.7l3.4 8.9zM313.6 377.7l6.1 9.1c.2.3.4.5.5.5.2 0 .4 0 .7-.1l.3.4-4.4 3-.3-.4c.3-.3.4-.5.4-.7 0-.2-.1-.4-.2-.7l-8.6-12.8c-.2-.3-.4-.4-.5-.5-.2 0-.4 0-.8.1l-.3-.4 5.5-3.7.3.4c-.1.1-.2.3-.2.4v.4c.1.1.2.2.3.2.1.1.3.1.6.2l13.9 2.8-5.9-8.7c-.2-.3-.4-.5-.5-.5-.2 0-.4 0-.8.1l-.3-.4 4.4-3 .3.4c-.2.3-.4.5-.4.7 0 .2.1.4.3.7l8.6 12.8c.2.3.4.4.5.5.2 0 .4 0 .7-.1l.3.4-5 3.4-.3-.4c.1-.1.2-.3.2-.4 0-.1 0-.3-.1-.4l-.3-.3c-.1-.1-.3-.1-.6-.2l-14.4-2.8zM350.8 357.1l.1-.4 4.5 1.3-.1.4h-.4c-.1 0-.1 0-.2.1s-.3.5-.5 1.1c-1 3.1-2.6 5.5-4.5 7.2-2.3 2-4.8 3-7.5 2.9-2.7 0-5-1.1-6.8-3.2-1.8-2.1-2.6-4.5-2.2-7.2.4-2.7 1.8-5.1 4.3-7.3 1.3-1.1 2.7-2 4.4-2.7 1.7-.7 2.5-1.1 2.6-1.2l.3-.3.4-.4.4-.1.8 4.8-.5.1v-.1s0-.1-.1-.1c-.3-.4-1.2-.3-2.6.1-1.4.5-2.6 1.2-3.8 2.2-1.5 1.3-2.4 2.9-2.7 4.7-.2 1.8.2 3.3 1.4 4.7 1.2 1.4 2.8 2.2 4.5 2.2 1.8 0 3.5-.7 5.1-2.1 1.2-1 2.1-2.3 2.8-3.8.7-1.5.9-2.4.6-2.7l-.2-.2c.1.1 0 .1-.1 0M364.3 348.4c.3.2.5.3.6.3.2 0 .4-.1.7-.3l.3.3-3.7 4.4-.4-.3c.2-.3.2-.6.2-.7 0-.2-.2-.4-.4-.6l-11.8-9.9c-.3-.2-.5-.3-.7-.3-.2 0-.4.1-.7.3l-.4-.3 3.7-4.4.4.3c-.2.3-.2.5-.2.7 0 .2.2.4.4.6l12 9.9zM378.6 325.3c.2-.3.3-.5.3-.7 0-.2-.2-.4-.4-.6l.2-.4 4.3 2.7-.2.4c-.3-.1-.6-.2-.7-.1-.2.1-.3.2-.5.5l-8.7 13.9-.4-.2c.1-.4.1-.6.1-.8-.1-.2-.2-.3-.5-.5l-13.1-8.2c-.3-.2-.5-.3-.7-.2-.2 0-.4.2-.6.4l-.4-.2 3.1-4.9.4.2c-.1.3-.1.6-.1.8.1.2.2.3.5.5l11.5 7.2 5.9-9.8z"/><path class="st4" d="m154 226.2-7.7 11.7h14.5z"/><path class="st4" d="m154 226.2-7.7 11.7h14.5zM205.1 226.2l-7.8 11.7h14.5z"/><path class="st6" d="m158.7 221.1-5.3-11.1-5.8 10.6 2.3 2 3.8-4 3.3 3.7zM203.5 209.7l-5.2 11.8 2.8 1.8 3.4-3.3 2.4 1.8 1.8-2.2z"/><path class="st4" d="M67.3 271.9c-.3 1.2-2.1 3.4-2.9 3.9-6 3.9-11.3 14.3-11.3 21.5-3.7 24.8-2.4 58.5 0 68.2 3 12 8.8 19.2 13.3 32.5 5.7-10.2 8.1-17.5 14.4-32.5 3.3-10.1 3.3-43.7 0-68.2-.7-6.8-6-17.7-11.5-21.7-.8-1.1-1.5-2.5-2-3.7"/><path class="st6" d="M67.3 274.7c-.4.8-1.1 1.3-1.8 2.1-5.3 4.7-9.6 12.9-9.6 20.5-3.7 24.8-2.4 58.5 0 68.2 1.5 6 3.6 2.9 5.7-2.1 1.3-3.1 3.6-6.4 4.7-9.2.1-.2.7-7.3.8-11.8 0-.7-7.8 11.1-7.8 10.3 0-.8 7.7-12.4 7.7-13.3.1-3.4-.1-5.2-.1-8.1 0-.6-7.8 11.9-6.4 6.1l5.4-7.1c2.5-3.2.6-9.6.6-14.5 0-.6-8 11.9-8 11.3 0-1.2 8.2-14.2 8.2-15.4v-11.6c0-2.1-4.8 5.6-4.8 3.6 0-2 4.8-6.1 4.8-7.9v-19.6c.4 0 .3-1.4.9 0 0 1.6-.1 6.5-.1 13 0 .4 1.5 2.3 2.9 4.1 1.3 1.8 2.5 3.5 1.7 3.6-1.2.2-4.4-5.7-4.4-4.5 0 3 .5 6.6 0 10.3-.2 1.5 4.6 5.9 6.1 8.2.8 1.2-5.1-4.8-5.5-3.6-.9 2.7-.2 11-.1 13.7.1 1.2 5 8.3 5.5 8.5-1.9-.1-4.8-6-5.2-2.7v6.7c0 2.5 6.2 13.1 6.2 15.3-1.6-1.6-5.7-11.9-5.7-9.9 0 3.5-.6 14.4-.6 14.5 2.9 6.8 6.2 20.8 9.4 13.4 4.7-15.1 3.6-45.1.3-69.7-.8-7.4-4.3-15.7-9.5-20.6-.2-.5-1.1-1.3-1.3-1.8z"/><path class="st7" d="M67.3 274.7c-.4.8-1.1 1.3-1.8 2.1-5.3 4.7-9.6 12.9-9.6 20.5-3.7 24.8-2.4 58.5 0 68.2 1.5 6 3.6 2.9 5.7-2.1 1.3-3.1 3.6-6.4 4.7-9.2.1-.2.7-7.3.8-11.8 0-.7-7.8 11.1-7.8 10.3 0-.8 7.7-12.4 7.7-13.3.1-3.4-.1-5.2-.1-8.1 0-.6-7.8 11.9-6.4 6.1l5.4-7.1c2.5-3.2.6-9.6.6-14.5 0-.6-8 11.9-8 11.3 0-1.2 8.2-14.2 8.2-15.4v-11.6c0-2.1-4.8 5.6-4.8 3.6 0-2 4.8-6.1 4.8-7.9v-19.6c.4 0 .3-1.4.9 0 0 1.6-.1 6.5-.1 13 0 .4 1.5 2.3 2.9 4.1 1.3 1.8 2.5 3.5 1.7 3.6-1.2.2-4.4-5.7-4.4-4.5 0 3 .5 6.6 0 10.3-.2 1.5 4.6 5.9 6.1 8.2.8 1.2-5.1-4.8-5.5-3.6-.9 2.7-.2 11-.1 13.7.1 1.2 5 8.3 5.5 8.5-1.9-.1-4.8-6-5.2-2.7v6.7c0 2.5 6.2 13.1 6.2 15.3-1.6-1.6-5.7-11.9-5.7-9.9 0 3.5-.6 14.4-.6 14.5 2.9 6.8 6.2 20.8 9.4 13.4 4.7-15.1 3.6-45.1.3-69.7-.8-7.4-4.3-15.7-9.5-20.6-.2-.5-1.1-1.3-1.3-1.8z"/><path class="st6" d="m68.1 353.7-.3 33.6-1.4-2.4.2-31.3z"/><path class="st4" d="M403.3 271.6c-.3 1.2-2.1 3.4-2.9 3.9-6 3.9-11.3 14.3-11.3 21.5-3.7 24.8-2.4 58.5 0 68.2 3 12 8.8 19.2 13.3 32.5 5.7-10.2 8.1-17.5 14.4-32.5 3.3-10.1 3.3-43.6 0-68.2-.7-6.8-6-17.7-11.5-21.7-.8-1-1.4-2.5-2-3.7"/><path class="st6" d="M403.3 274.4c-.4.8-1.1 1.3-1.8 2.1-5.3 4.7-9.6 12.9-9.6 20.5-3.7 24.8-2.4 58.5 0 68.2 1.5 6 3.6 2.9 5.7-2.1 1.3-3.1 3.6-6.4 4.7-9.2.1-.2.7-7.3.8-11.8 0-.7-7.8 11.1-7.8 10.3 0-.8 7.7-12.4 7.7-13.3.1-3.4-.1-5.2 0-8.1 0-.6-7.8 11.9-6.4 6.1l5.4-7.1c2.5-3.2.6-9.6.6-14.5 0-.6-8 11.9-8 11.3 0-1.2 8.2-14.2 8.2-15.4v-11.6c0-2.1-4.8 5.6-4.8 3.6 0-2 4.8-6.1 4.8-7.9v-19.6c.4 0 .3-1.4.9 0 0 1.6-.1 6.5-.1 13 0 .4 1.5 2.3 2.9 4.1 1.3 1.8 2.5 3.5 1.7 3.6-1.2.2-4.4-5.7-4.4-4.5 0 3 .5 6.6 0 10.3-.2 1.5 4.6 5.9 6.1 8.2.8 1.2-5.1-4.8-5.5-3.6-.9 2.7-.2 11-.1 13.7.1 1.2 5 8.3 5.5 8.5-1.9-.1-4.8-6-5.2-2.7v6.7c0 2.5 6.2 13.1 6.2 15.3-1.6-1.6-5.7-11.9-5.7-9.9 0 3.5-.6 14.4-.6 14.5 2.9 6.8 6.2 20.8 9.4 13.4 4.7-15.1 3.6-45.1.3-69.7-.8-7.4-4.3-15.7-9.5-20.6-.3-.5-1.2-1.3-1.4-1.8z"/><path class="st7" d="M403.3 274.4c-.4.8-1.1 1.3-1.8 2.1-5.3 4.7-9.6 12.9-9.6 20.5-3.7 24.8-2.4 58.5 0 68.2 1.5 6 3.6 2.9 5.7-2.1 1.3-3.1 3.6-6.4 4.7-9.2.1-.2.7-7.3.8-11.8 0-.7-7.8 11.1-7.8 10.3 0-.8 7.7-12.4 7.7-13.3.1-3.4-.1-5.2 0-8.1 0-.6-7.8 11.9-6.4 6.1l5.4-7.1c2.5-3.2.6-9.6.6-14.5 0-.6-8 11.9-8 11.3 0-1.2 8.2-14.2 8.2-15.4v-11.6c0-2.1-4.8 5.6-4.8 3.6 0-2 4.8-6.1 4.8-7.9v-19.6c.4 0 .3-1.4.9 0 0 1.6-.1 6.5-.1 13 0 .4 1.5 2.3 2.9 4.1 1.3 1.8 2.5 3.5 1.7 3.6-1.2.2-4.4-5.7-4.4-4.5 0 3 .5 6.6 0 10.3-.2 1.5 4.6 5.9 6.1 8.2.8 1.2-5.1-4.8-5.5-3.6-.9 2.7-.2 11-.1 13.7.1 1.2 5 8.3 5.5 8.5-1.9-.1-4.8-6-5.2-2.7v6.7c0 2.5 6.2 13.1 6.2 15.3-1.6-1.6-5.7-11.9-5.7-9.9 0 3.5-.6 14.4-.6 14.5 2.9 6.8 6.2 20.8 9.4 13.4 4.7-15.1 3.6-45.1.3-69.7-.8-7.4-4.3-15.7-9.5-20.6-.3-.5-1.2-1.3-1.4-1.8z"/><path class="st6" d="m403.6 357.6-.3 33.6-1.4-2.3.2-31.3zM236.4 228.2V105.3c-59.8 0-111.4 50.5-133.4 122.3 20.7.6 42.5.6 49.4.6h84z"/><path d="M236.1 106.7c-76 0-138 62-138 138" style="fill:#fff"/><circle cx="237.1" cy="242.5" r="138" style="fill:none;stroke:#000;stroke-width:14;stroke-miterlimit:2.6131"/><path style="fill-rule:evenodd;clip-rule:evenodd;fill:#fff;stroke:#000;stroke-width:3;stroke-miterlimit:2.6131" d="M67.1 217.4h336L393 242.5l10.1 25.2h-336l10.1-25.2z"/><path d="m138.4 260.2-7.8-32.1h4.2l3.7 16.2c.9 4 1.7 8 2.3 11.1h.1c.5-3.2 1.5-7 2.5-11.1l4.1-16.2h4.2l3.8 16.3c.9 3.8 1.7 7.6 2.2 11h.1c.6-3.5 1.5-7.1 2.5-11.1l4.1-16.2h4.1l-8.8 32.1h-4.2l-3.9-16.7c-1-4.1-1.6-7.2-2-10.5h-.1c-.6 3.2-1.2 6.3-2.4 10.5l-4.4 16.7h-4.3zM182 250.1l-3.2 10.1h-4.1l10.5-32.1h4.8l10.6 32.1h-4.3l-3.3-10.1h-11zm10.1-3.2-3-9.2c-.7-2.1-1.1-4-1.6-5.9h-.1c-.5 1.9-1 3.9-1.6 5.8l-3 9.3h9.3zM212.6 228.6c1.7-.4 4.5-.7 7.3-.7 4 0 6.6.7 8.5 2.3 1.6 1.2 2.6 3.1 2.6 5.7 0 3.1-2 5.8-5.2 7v.1c2.9.8 6.4 3.3 6.4 8 0 2.8-1.1 4.9-2.6 6.4-2.2 2-5.6 3-10.7 3-2.8 0-4.9-.2-6.2-.4v-31.4zm4 13.1h3.6c4.2 0 6.7-2.3 6.7-5.4 0-3.8-2.8-5.2-6.8-5.2-1.8 0-2.9.1-3.5.3v10.3zm0 15.4c.8.1 1.9.2 3.4.2 4.1 0 7.9-1.6 7.9-6.2 0-4.4-3.6-6.2-8-6.2h-3.3v12.2zM248.9 228.1v19c0 7.2 3.1 10.2 7.2 10.2 4.6 0 7.5-3.1 7.5-10.2v-19h4v18.7c0 9.8-5 13.9-11.7 13.9-6.3 0-11.1-3.8-11.1-13.7v-18.9h4.1zM282.1 260.2v-32.1h4.4l9.9 16.2c2.3 3.8 4.1 7.1 5.6 10.4h.1c-.4-4.3-.5-8.2-.5-13.2v-13.4h3.8v32.1h-4l-9.8-16.3c-2.2-3.6-4.2-7.2-5.8-10.7h-.1c.2 4 .3 7.9.3 13.2v13.7h-3.9zM256.6 217.8h-38.4c-.6 0-1.2-.3-1.5-.9-.3-.5-.3-1.2 0-1.7l18.8-34.2-3.1-5.6c-.5-.8-.2-1.9.7-2.4.8-.5 1.9-.2 2.4.7l2 3.6 2-3.6c.5-.8 1.5-1.2 2.4-.7.8.5 1.2 1.5.7 2.4l-3.1 5.6 18.8 34.2c.3.5.3 1.2 0 1.7-.5.6-1.1.9-1.7.9zm-35.5-3.5h32.5l-16.3-29.7-16.2 29.7z"/><path d="m246.9 214.4-8-14.5c-.3-.6-.9-.9-1.5-.9s-1.2.3-1.5.9l-8 14.5c-.3.5-.3 1.2 0 1.7s.9.9 1.5.9h15.9c.6 0 1.2-.3 1.5-.9.4-.5.4-1.1.1-1.7zM367.6 243.7c0-.5-.2-1-.7-1.2l-10-6.8c-.5-.3-1.1-.3-1.5-.1-.5.3-.8.8-.8 1.3v13.6c0 .6.3 1.1.8 1.3.2.1.5.2.7.2.3 0 .6-.1.8-.3l10-6.8c.5-.2.7-.7.7-1.2z"/><path d="m377.6 242.5-11-7.5c-.7-.5-1.6-.3-2.1.4s-.3 1.6.4 2.1l9.1 6.3-9 6.2c-.7.5-.9 1.4-.4 2.1.3.4.8.7 1.2.7.3 0 .6-.1.8-.3l11-7.5c.4-.3.7-.7.7-1.2 0-.6-.3-1-.7-1.3zM114.4 235c-.5-.3-1.1-.2-1.5.1l-10 6.8c-.4.3-.7.7-.7 1.2s.2 1 .7 1.2l10 6.8c.3.2.5.3.8.3.2 0 .5-.1.7-.2.5-.3.8-.8.8-1.3v-13.6c0-.5-.3-1-.8-1.3z"/><path d="m104.9 249.5-9.1-6.3 9.1-6.3c.7-.5.9-1.4.4-2.1-.5-.7-1.4-.9-2.1-.4l-11 7.5c-.4.3-.7.7-.7 1.2s.2 1 .7 1.2l11 7.5c.3.2.6.3.8.3.5 0 .9-.2 1.2-.7.5-.5.3-1.5-.3-1.9zM89.9 237c-.5-.3-1.1-.2-1.5.1l-7.1 4.8c-.4.3-.7.7-.7 1.2s.2 1 .7 1.2l7.1 4.8c.3.2.6.3.8.3.2 0 .5-.1.7-.2.5-.3.8-.8.8-1.3v-9.7c0-.4-.3-.9-.8-1.2zm-2.2 8.2-2.9-2 2.9-2v4zM388.5 242.5l-7.1-4.8c-.5-.3-1.1-.3-1.5-.1-.5.3-.8.8-.8 1.3v9.7c0 .6.3 1.1.8 1.3.2.1.5.2.7.2.3 0 .6-.1.8-.3l7.1-4.8c.4-.3.7-.7.7-1.2 0-.6-.2-1-.7-1.3zm-6.4 3.2v-4l2.9 2-2.9 2z"/><g><path d="M216.8 217.8h-38.4c-.6 0-1.2-.3-1.5-.9-.3-.5-.3-1.2 0-1.7l18.8-34.2-3.1-5.6c-.5-.8-.2-1.9.7-2.4.8-.5 1.9-.2 2.4.7l2 3.6 2-3.6c.5-.8 1.5-1.2 2.4-.7.8.5 1.2 1.5.7 2.4l-3.1 5.6 18.8 34.2c.3.5.3 1.2 0 1.7-.5.6-1.1.9-1.7.9zm-35.5-3.5h32.5l-16.3-29.7-16.2 29.7z"/><path d="m207 214.4-8-14.5c-.3-.6-.9-.9-1.5-.9s-1.2.3-1.5.9l-8 14.5c-.3.5-.3 1.2 0 1.7s.9.9 1.5.9h15.9c.6 0 1.2-.3 1.5-.9.4-.5.4-1.1.1-1.7z"/></g><g><path d="M297.8 217.8h-38.4c-.6 0-1.2-.3-1.5-.9-.3-.5-.3-1.2 0-1.7l18.8-34.2-3.1-5.6c-.5-.8-.2-1.9.7-2.4.8-.5 1.9-.2 2.4.7l2 3.6 2-3.6c.5-.8 1.5-1.2 2.4-.7.8.5 1.2 1.5.7 2.4l-3.1 5.6 18.8 34.2c.3.5.3 1.2 0 1.7-.5.6-1.1.9-1.7.9zm-35.5-3.5h32.5l-16.3-29.7-16.2 29.7z"/><path d="m288.1 214.4-8-14.5c-.3-.6-.9-.9-1.5-.9s-1.2.3-1.5.9l-8 14.5c-.3.5-.3 1.2 0 1.7s.9.9 1.5.9h15.9c.6 0 1.2-.3 1.5-.9.3-.5.4-1.1.1-1.7z"/></g><g><path d="M176.7 217.4h-38.4c-.6 0-1.2-.3-1.5-.9-.3-.5-.3-1.2 0-1.7l18.8-34.2-3.1-5.6c-.5-.8-.2-1.9.7-2.4.8-.5 1.9-.2 2.4.7l2 3.6 2-3.6c.5-.8 1.5-1.2 2.4-.7.8.5 1.2 1.5.7 2.4l-3.1 5.6 18.8 34.2c.3.5.3 1.2 0 1.7-.5.6-1.1.9-1.7.9zm-35.5-3.5h32.5l-16.3-29.7-16.2 29.7z"/><path d="m167 214-8-14.5c-.3-.6-.9-.9-1.5-.9s-1.2.3-1.5.9l-8 14.5c-.3.5-.3 1.2 0 1.7s.9.9 1.5.9h15.9c.6 0 1.2-.3 1.5-.9.4-.5.4-1.2.1-1.7z"/></g><g><path d="M337.4 217.4H299c-.6 0-1.2-.3-1.5-.9-.3-.5-.3-1.2 0-1.7l18.8-34.2-3.1-5.6c-.5-.8-.2-1.9.7-2.4.8-.5 1.9-.2 2.4.7l2 3.6 2-3.6c.5-.8 1.5-1.2 2.4-.7.8.5 1.2 1.5.7 2.4l-3.1 5.6 18.8 34.2c.3.5.3 1.2 0 1.7-.5.6-1.1.9-1.7.9zm-35.5-3.5h32.5l-16.3-29.7-16.2 29.7z"/><path d="m327.7 214-8-14.5c-.3-.6-.9-.9-1.5-.9s-1.2.3-1.5.9l-8 14.5c-.3.5-.3 1.2 0 1.7s.9.9 1.5.9h15.9c.6 0 1.2-.3 1.5-.9.3-.5.4-1.2.1-1.7z"/></g></svg>