<svg xmlns="http://www.w3.org/2000/svg" width="266" height="144" style="enable-background:new 0 0 266 144" xml:space="preserve"><path d="m198.9 104.1-2.3-4.2h1.9l1 2c.1.2.2.3.2.5.1-.2.2-.3.3-.5l1-2h1.9l-2.4 4.2v3h-1.7v-3zm-9.3-1.2h.4c.5 0 1-.2 1-.8 0-.6-.5-.7-1-.7h-.4v1.5zm2.2.8c.3.3.4.7.5 1.1.1.4.3 1.3.4 1.6l.3.6h-1.8l-.1-.2c-.2-.4-.4-1.2-.5-1.6-.1-.6-.3-.9-.9-.9h-.3v2.7h-1.7v-7l.4-.1c.5-.1 1.1-.1 1.6-.1.7 0 1.5.1 2.1.6.4.4.6 1 .6 1.5.2.8-.1 1.4-.6 1.8zm-11.6.5v1.4h2.7v1.5h-4.4v-7.2h4.3v1.6h-2.6v1.1h2.5v1.5h-2.5zm-9.7-2 1.8-2.2h2.2l-2.7 3.1 2.7 4h-2l-1.9-2.8-.1.1v2.7h-1.7v-7.2h1.7v2.3zm-9.2 1.4-.4-1-.3 1h.7zm-1.2 1.5-.7 2h-1.8l2.5-7.2h1.6l2.5 7.2h-1.8l-.7-2h-1.6zm-9.9.6h.3c.6 0 1.2-.1 1.2-.8 0-.6-.7-.8-1.2-.8h-.2v1.6zm0-3.1h.3c.4 0 .9-.1.9-.6s-.5-.6-.9-.6h-.3v1.2zm2.4.6c.5.4.8 1 .8 1.6 0 .6-.2 1.2-.7 1.6-.6.6-1.6.7-2.5.7-.4 0-.9 0-1.3-.1l-.4-.1V100l.3-.1c.5-.1 1.1-.2 1.6-.2.7 0 1.4.1 2 .6.5.3.7.9.7 1.5.1.6-.2 1.1-.5 1.4zm-20 2.5h.4c1.5 0 2.3-.8 2.3-2.3 0-1.4-.8-2-2.1-2h-.5v4.3zm-1.3-5.7c.6-.1 1.2-.1 1.8-.1 1 0 2.1.2 2.9.9.8.7 1 1.6 1 2.6s-.3 2-1 2.8c-.8.8-2 1-3.1 1-.5 0-1 0-1.5-.1h-.4v-7l.3-.1zm-7.3 3.8V99.9h1.6v7.2h-1.5l-2.1-3.4c-.1-.2-.2-.4-.4-.6V107H120v-7.2h1.6l2.1 3.4c.2.3.3.4.3.6zm-11.5-.2-.4-1-.4 1h.8zm-1.1 1.5-.7 2H109l2.5-7.2h1.6l2.5 7.2h-1.8l-.7-2h-1.7zm-16.1-.9v1.4H98v1.5h-4.4v-7.2h4.3v1.6h-2.6v1.1h2.5v1.5h-2.5zm-9.3-2.7v1.2h2.4v1.5H86v2.9h-1.7v-7.2h4.3v1.6H86zm-9.2 2.1-.4-1-.4 1h.8zm-1.1 1.5-.7 2h-1.8l2.5-7.2h1.6l2.5 7.2H78l-.7-2h-1.6zm-6.9 1.8c-.5.3-1.3.3-1.9.3-2.2 0-3.6-1.5-3.6-3.6 0-2.2 1.5-3.8 3.7-3.8.5 0 1.2.1 1.7.3l.3.2-.5 1.5-.5-.2c-.3-.2-.7-.2-1.1-.2-1.3 0-2 .9-2 2.2 0 1.3.7 2.1 2 2.1.4 0 .8-.1 1.2-.2l.5-.2.4 1.5-.2.1z" style="fill-rule:evenodd;clip-rule:evenodd;fill:#f05905"/><path d="M253 83.7c0 .4 0 .7-.1.9-.1.2-.1.4-.2.5-.1.1-.3.2-.5.3-.2.1-.5.2-.8.2-.3.1-.6.1-.9.2-.3 0-.6.1-.9.1-1 0-1.8-.1-2.5-.4-.7-.3-1.3-.6-1.7-1.2-.4-.5-.8-1.2-1-2-.2-.8-.3-1.7-.3-2.8V68.8h-2.6c-.2 0-.4-.1-.5-.3-.1-.2-.2-.6-.2-1.1 0-.3 0-.5.1-.7 0-.2.1-.3.1-.4.1-.1.1-.2.2-.2s.2-.1.3-.1h2.6v-4.4c0-.1 0-.2.1-.3 0-.1.1-.2.3-.2.1-.1.3-.1.5-.1h1.6c.2 0 .4.1.5.1.1.1.2.1.3.2.1.1.1.2.1.3V66h4.8c.1 0 .2 0 .3.1.1 0 .2.1.2.2.1.1.1.3.1.4v.7c0 .5-.1.9-.2 1.1-.1.2-.3.3-.5.3h-4.8v10.4c0 1.3.2 2.2.6 2.9.4.7 1.1 1 2 1 .3 0 .6 0 .8-.1.2-.1.5-.1.7-.2.2-.1.4-.1.5-.2.1-.1.3-.1.4-.1.1 0 .1 0 .2.1.1 0 .1.1.1.2s.1.2.1.4c.2 0 .2.2.2.5M94.4 116.2s9.7.5 7.9 12.6c0 0-1.1 8.3 13.8 15.2 0 0-18.2-6.5-16.3-17 0 0 1.8-8.9-10.4-9.8 0 0-6.7-.1-10.4 1.1.1.1 7.5-3.3 15.4-2.1zm7.1 3.9s4.3.6 6.8 9c0 0 2 8.6 8.3 7.7 0 0-7 1.8-9.4-8 0 0-.8-6.1-5.7-8.7zm-9.7-1.1s5.8 1.3 5.4 9.2c0 0-.3 6.8 3.9 10.2 0 0-6.2-2.2-5.1-11.1 0-.1 1.2-5.2-4.2-8.3zm-3-4.6s6.2-1.2 16 4.2c0 0 15.8 4.9 23.8-4.1 0 0-7.7 9.1-24.2 2.5 0 .1-10.1-4.4-15.6-2.6zm114.5-98.2c.9.3 1.4-.2 1.7-.4.6-.6-.2-1.3-.2-1.3-15.3-17.8-34-13.2-34-13.2C194-2.5 206 14.7 206 14.7c.5 1-.1 1.7-.4 1.9-.9.6-2.3-.4-2.3-.4zm-10.9 29.1c6.6 3.2 16.2-.3 16.2-.3 2.7-1.3 2.4.1 2.4.1 3.1 5.7-18.5 13.6-18.5 13.6 21.6-6.4 21.1-12.5 21.1-12.5-.5-7.7-9.1-2.3-9.1-2.3-3.2 2.4-12.1 1.4-12.1 1.4zm-30.7-10.2s2.2.1 9.4 3.7c6.2 3 7.1 4.7 28.4 6 0 0-24.1-.4-37-6.2 0 0-5.3-3.5-9.9 1.9 0 0 1.9-5.6 9.1-5.4zm4.7-25.7S146 13.7 137 28.5c0 0-5.3 1.4-9.4-5.1 0 0 3.4 11.5 14.8 7.4 0 0 4.8-3.4 9.8-4.3 17.8 1 28 15.2 28 15.2-10.9-17.4-27.1-18.3-32.6-18.1 3.4-3.7 11.9-11.1 27.1-13.6.9.5 4.9 2.9 5.5 7.4 0 0 .1-5.3-3.1-7.8.7-.1 1.4-.2 2.1-.2 0 0 12-1.6 22 5.5.2.2.5.3 1.1.7.1.1-10.5-12.6-35.9-6.2zm-4.7 50.9s-4.4-7.6 4.7-6c0 0 14.6 4.3 19.3 1.9 0 0 2.8-1.4 5.1.4 0 0 3.7.9 5.2-.6 0 0-3.3 2.9-7.4 1.8 0 0-.9-1.1-3.2.6 0 0-3.6 2.2-17.6-1.7 0 0-7.3-2.6-6.1 3.6zm-35.9-40.4s15-14 43-18.5c0 0-22.2-7.8-48.3 17.4l-.7.7-.7 1.2s-7.2-3.8-16.9 1.1c0 0 7.5-4.5 17.3-3.2 0 0 22.6-24.5 49.4-17.1 0 0-30.2 3.1-44.6 18.2l1.5.2zM62.3 115s-4.4.6-4.7-3.6c0 0 .3-3-3.1-4.2 0 0-2.6-1-.8-4.2 0 0-.3 2.7 1.7 3.4 0 0 4.2 1.4 3.5 4.8 0 0-.5 2.1 1.2 2.7 0 0 9.4 2 9.4 2.2 0-.1-4.7-1.4-7.2-1.1zm173.1-29.9c0 .2-.1.3-.2.4-.1.1-.3.1-.5.2-.2 0-.5.1-.8.1-.4 0-.6 0-.9-.1-.2 0-.4-.1-.5-.2-.1-.1-.1-.2-.1-.4v-1.9c-.8.9-1.7 1.5-2.7 2-1 .5-2.1.7-3.2.7-1 0-1.9-.1-2.7-.4-.8-.3-1.5-.6-2-1.1-.6-.5-1-1.1-1.3-1.8-.3-.7-.5-1.5-.5-2.4 0-1 .2-2 .6-2.7.4-.8 1-1.4 1.8-1.9s1.8-.9 2.9-1.1c1.2-.3 2.5-.4 3.9-.4h2.6v-1.4c0-.7-.1-1.3-.2-1.9-.2-.6-.4-1-.7-1.4-.3-.4-.8-.6-1.3-.8-.5-.2-1.2-.3-2-.3s-1.6.1-2.3.3c-.7.2-1.3.4-1.8.7-.5.2-.9.5-1.3.7-.3.2-.6.3-.8.3-.1 0-.2 0-.3-.1-.1-.1-.2-.1-.2-.2-.1-.1-.1-.3-.1-.4V69c0-.3 0-.6.1-.8 0-.2.2-.4.4-.6.2-.2.5-.4 1-.6.5-.2 1-.5 1.6-.7.6-.2 1.2-.4 1.9-.5.7-.1 1.4-.2 2.1-.2 1.3 0 2.5.2 3.4.5.9.3 1.7.7 2.3 1.3.6.6 1 1.3 1.3 2.2.3.9.4 1.9.4 3v12.5zm-3.4-8.5h-2.9c-.9 0-1.7.1-2.4.2-.7.2-1.3.4-1.7.7-.5.3-.8.7-1 1.1-.2.4-.3.9-.3 1.5 0 1 .3 1.7.9 2.3.6.6 1.5.9 2.6.9.9 0 1.7-.2 2.5-.7.8-.5 1.6-1.1 2.4-2.1v-3.9zm-17.7-1c0 1.5-.2 2.9-.6 4.2-.4 1.3-1 2.4-1.8 3.3-.8.9-1.8 1.6-3 2.2-1.2.5-2.6.8-4.1.8-1.5 0-2.9-.2-4-.7-1.1-.5-2.1-1.1-2.8-2-.8-.9-1.3-1.9-1.7-3.2-.4-1.2-.6-2.6-.6-4.2 0-1.5.2-2.9.6-4.2.4-1.3 1-2.4 1.8-3.3.8-.9 1.8-1.6 3-2.1s2.6-.8 4.1-.8c1.5 0 2.9.2 4 .7 1.1.5 2.1 1.1 2.8 2 .8.9 1.3 1.9 1.7 3.2.4 1.1.6 2.5.6 4.1zm-3.6.2c0-1-.1-2-.3-2.8-.2-.9-.5-1.7-.9-2.4s-1-1.2-1.7-1.6c-.7-.4-1.7-.6-2.7-.6-1 0-1.9.2-2.6.5-.7.4-1.3.9-1.8 1.5-.5.7-.8 1.4-1.1 2.3-.2.9-.3 1.9-.3 2.9s.1 2 .3 2.9c.2.9.5 1.7.9 2.3.4.7 1 1.2 1.8 1.6.7.4 1.7.6 2.7.6 1 0 1.9-.2 2.6-.5.7-.4 1.3-.9 1.8-1.5s.8-1.4 1-2.3c.2-.9.3-1.8.3-2.9zm-19.9-8.5c0 .5-.1.8-.2 1-.1.2-.3.3-.5.3h-2.7c.5.5.8 1 1 1.6.2.6.3 1.2.3 1.9 0 1.1-.2 2-.5 2.8-.3.8-.8 1.5-1.5 2.1-.6.6-1.4 1-2.3 1.3-.9.3-1.9.5-2.9.5-.8 0-1.5-.1-2.2-.3-.7-.2-1.2-.5-1.6-.8-.2.2-.5.5-.6.8-.2.3-.2.7-.2 1.1 0 .5.2.9.7 1.2.4.3 1 .5 1.8.5l4.8.2c.9 0 1.8.2 2.5.4.8.2 1.4.6 2 1 .6.4 1 .9 1.3 1.5.3.6.5 1.3.5 2.1 0 .9-.2 1.7-.5 2.4-.4.8-.9 1.4-1.6 2-.7.6-1.7 1-2.8 1.4-1.1.3-2.5.5-4 .5s-2.8-.1-3.8-.4c-1.1-.3-1.9-.6-2.6-1-.7-.4-1.2-1-1.5-1.6-.3-.6-.5-1.3-.5-2 0-.5.1-.9.2-1.3s.3-.8.5-1.2c.2-.4.5-.8.8-1.1.3-.4.7-.7 1.2-1-.7-.3-1.2-.8-1.5-1.3-.3-.5-.5-1.1-.5-1.7 0-.8.2-1.6.5-2.3.3-.7.8-1.3 1.3-1.8-.4-.5-.8-1.1-1-1.7-.2-.6-.4-1.4-.4-2.3 0-1.1.2-2 .5-2.8.4-.8.9-1.5 1.5-2.1.6-.6 1.4-1 2.3-1.3.9-.3 1.9-.5 2.9-.5.6 0 1.1 0 1.6.1s.9.1 1.4.3h5.6c.2 0 .4.1.5.3.2.4.2.8.2 1.2zm-3.6 19.6c0-.8-.3-1.4-1-1.8-.7-.4-1.5-.7-2.7-.7l-4.8-.2c-.4.3-.8.7-1.1 1-.3.3-.5.6-.7.9-.2.3-.3.6-.3.8-.1.3-.1.6-.1.8 0 .9.5 1.6 1.4 2 .9.5 2.2.7 3.8.7 1 0 1.9-.1 2.6-.3.7-.2 1.3-.5 1.7-.8.4-.3.7-.7.9-1.1.2-.4.3-.8.3-1.3zm-1.7-14.7c0-1.3-.3-2.3-1-3-.7-.7-1.7-1.1-3-1.1-.7 0-1.2.1-1.7.3-.5.2-.9.5-1.2.9-.3.4-.6.8-.7 1.3-.2.5-.2 1-.2 1.6 0 1.2.3 2.2 1 2.9.7.7 1.7 1.1 2.9 1.1.7 0 1.3-.1 1.8-.3.5-.2.9-.5 1.2-.9.3-.4.6-.8.7-1.3.1-.4.2-.9.2-1.5zm-28.4-4.9c0 .5-.1.8-.2 1-.1.2-.3.3-.5.3h-2.7c.5.5.8 1 1 1.6.2.6.3 1.2.3 1.9 0 1.1-.2 2-.5 2.8-.3.8-.8 1.5-1.5 2.1-.6.6-1.4 1-2.3 1.3-.9.3-1.9.5-2.9.5-.8 0-1.5-.1-2.2-.3-.7-.2-1.2-.5-1.6-.8-.2.2-.5.5-.6.8-.2.3-.2.7-.2 1.1 0 .5.2.9.7 1.2.4.3 1 .5 1.8.5l4.8.2c.9 0 1.8.2 2.5.4.8.2 1.4.6 2 1 .6.4 1 .9 1.3 1.5.3.6.5 1.3.5 2.1 0 .9-.2 1.7-.5 2.4-.4.8-.9 1.4-1.6 2-.7.6-1.7 1-2.8 1.4-1.1.3-2.5.5-4 .5s-2.8-.1-3.8-.4c-1.1-.3-1.9-.6-2.6-1-.7-.4-1.2-1-1.5-1.6-.3-.6-.5-1.3-.5-2 0-.5.1-.9.2-1.3s.3-.8.5-1.2c.2-.4.5-.8.8-1.1.3-.4.7-.7 1.2-1-.7-.3-1.2-.8-1.5-1.3-.3-.5-.5-1.1-.5-1.7 0-.8.2-1.6.5-2.3.3-.7.8-1.3 1.3-1.8-.4-.5-.8-1.1-1-1.7-.2-.6-.4-1.4-.4-2.3 0-1.1.2-2 .5-2.8.4-.8.9-1.5 1.5-2.1.6-.6 1.4-1 2.3-1.3.9-.3 1.9-.5 2.9-.5.6 0 1.1 0 1.6.1s.9.1 1.4.3h5.6c.2 0 .4.1.5.3.2.4.2.8.2 1.2zm-3.6 19.6c0-.8-.3-1.4-1-1.8-.7-.4-1.5-.7-2.7-.7l-4.8-.2c-.4.3-.8.7-1.1 1-.3.3-.5.6-.7.9-.2.3-.3.6-.3.8-.1.3-.1.6-.1.8 0 .9.5 1.6 1.4 2 .9.5 2.2.7 3.8.7 1 0 1.9-.1 2.6-.3.7-.2 1.3-.5 1.7-.8.4-.3.7-.7.9-1.1.2-.4.3-.8.3-1.3zm-1.7-14.7c0-1.3-.3-2.3-1-3-.7-.7-1.7-1.1-3-1.1-.7 0-1.2.1-1.7.3-.5.2-.9.5-1.2.9-.3.4-.6.8-.7 1.3-.2.5-.2 1-.2 1.6 0 1.2.3 2.2 1 2.9.7.7 1.7 1.1 2.9 1.1.7 0 1.3-.1 1.8-.3.5-.2.9-.5 1.2-.9.3-.4.6-.8.7-1.3.1-.4.2-.9.2-1.5zM133.3 85c0 .1 0 .2-.1.3-.1.1-.1.1-.3.2-.1.1-.3.1-.5.1h-1.6c-.2 0-.4-.1-.5-.1-.1-.1-.2-.1-.3-.2-.1-.1-.1-.2-.1-.3V74.2c0-1.1-.1-1.9-.2-2.6-.2-.6-.4-1.2-.7-1.7-.3-.5-.7-.8-1.2-1.1-.5-.2-1.1-.4-1.7-.4-.9 0-1.7.3-2.6.9-.9.6-1.7 1.5-2.7 2.7v13c0 .1 0 .2-.1.3-.1.1-.1.1-.3.2-.1.1-.3.1-.5.1h-1.6c-.2 0-.4-.1-.5-.1-.1-.1-.2-.1-.3-.2 0-.1-.1-.2-.1-.3V66.5c0-.1 0-.2.1-.3 0-.1.1-.1.2-.2s.3-.1.5-.1h1.6c.2 0 .4.1.5.1s.2.1.2.2.1.2.1.3V69c1-1.2 2.1-2 3.1-2.6 1-.5 2.1-.8 3.1-.8 1.2 0 2.3.2 3.1.6.8.4 1.5 1 2.1 1.7.5.7.9 1.5 1.1 2.5.2.9.3 2.1.3 3.4V85zm-24-24.8c0 .8-.2 1.3-.5 1.6-.3.3-.9.4-1.7.4-.8 0-1.3-.1-1.6-.4-.3-.3-.4-.8-.4-1.6s.2-1.3.5-1.6c.3-.3.9-.4 1.7-.4.8 0 1.3.1 1.6.4.3.3.4.8.4 1.6zm-.4 24.8c0 .1 0 .2-.1.3-.1.1-.1.1-.3.2-.1.1-.3.1-.5.1h-1.6c-.2 0-.4-.1-.5-.1-.1-.1-.2-.1-.3-.2 0-.1-.1-.2-.1-.3V66.5c0-.1 0-.2.1-.3 0-.1.1-.2.3-.2.1-.1.3-.1.5-.1h1.6c.2 0 .4.1.5.1.1.1.2.1.3.2.1.1.1.2.1.3V85zm-10-2.8v.6c0 .2 0 .3-.1.4 0 .1-.1.2-.1.3 0 .1-.2.2-.3.4-.2.2-.5.4-.9.6-.4.3-.9.5-1.4.7-.5.2-1.1.4-1.7.5-.6.1-1.2.2-1.9.2-1.3 0-2.5-.2-3.5-.7-1-.4-1.9-1.1-2.6-1.9-.7-.8-1.2-1.9-1.6-3.1-.4-1.2-.5-2.7-.5-4.3 0-1.8.2-3.4.7-4.7.4-1.3 1.1-2.4 1.8-3.2.8-.8 1.7-1.5 2.7-1.9 1.1-.4 2.2-.6 3.4-.6.6 0 1.2.1 1.7.2.6.1 1.1.3 1.5.4.5.2.9.4 1.2.6.4.2.6.4.8.6.2.2.3.3.3.4.1.1.1.2.2.3 0 .1.1.3.1.4v.6c0 .5-.1.9-.2 1.1-.1.2-.3.3-.5.3s-.4-.1-.7-.3c-.3-.2-.6-.5-1-.8-.4-.3-.9-.5-1.5-.8-.6-.2-1.3-.3-2.1-.3-1.6 0-2.9.6-3.8 1.9-.9 1.3-1.3 3.1-1.3 5.5 0 1.2.1 2.2.3 3.1.2.9.6 1.7 1 2.3.4.6 1 1.1 1.6 1.4.6.3 1.4.4 2.2.4.8 0 1.5-.1 2.1-.4.6-.2 1.1-.5 1.5-.8.4-.3.8-.6 1.1-.8.3-.2.5-.4.7-.4.1 0 .2 0 .2.1.1.1.1.1.2.3 0 .1.1.3.1.5.3.4.3.6.3.9zM77.2 85c0 .1 0 .2-.1.3-.1.1-.1.1-.3.2-.1.1-.3.1-.5.1h-1.6c-.2 0-.4-.1-.5-.1-.1-.1-.2-.1-.3-.2-.1-.1-.1-.2-.1-.3V74.2c0-1.1-.1-1.9-.2-2.6-.2-.6-.4-1.2-.7-1.7-.3-.5-.7-.8-1.2-1.1-.5-.2-1.1-.4-1.7-.4-.9 0-1.7.3-2.6.9-.9.6-1.7 1.5-2.7 2.7v13c0 .1 0 .2-.1.3-.1.1-.1.1-.3.2-.1.1-.3.1-.5.1h-1.6c-.2 0-.4-.1-.5-.1-.1-.1-.2-.1-.3-.2 0-.1-.1-.2-.1-.3V66.5c0-.1 0-.2.1-.3 0-.1.1-.1.2-.2s.3-.1.5-.1h1.6c.2 0 .4.1.5.1.1.1.2.1.2.2s.1.2.1.3V69c1-1.2 2.1-2 3.1-2.6 1-.5 2.1-.8 3.1-.8 1.2 0 2.3.2 3.1.6.8.4 1.5 1 2.1 1.7.5.7.9 1.5 1.1 2.5.2.9.3 2.1.3 3.4V85zm-24.3.1c0 .2-.1.3-.2.4-.1.1-.3.1-.5.2-.2 0-.5.1-.8.1-.4 0-.6 0-.9-.1-.2 0-.4-.1-.5-.2-.1-.1-.1-.2-.1-.4v-1.9c-.8.9-1.7 1.5-2.7 2-1 .5-2.1.7-3.2.7-1 0-1.9-.1-2.7-.4-.8-.3-1.5-.6-2-1.1-.6-.5-1-1.1-1.3-1.8-.3-.7-.5-1.5-.5-2.4 0-1 .2-2 .6-2.7.4-.8 1-1.4 1.8-1.9s1.8-.9 2.9-1.1c1.2-.3 2.5-.4 3.9-.4h2.6v-1.4c0-.7-.1-1.3-.2-1.9-.2-.6-.4-1-.7-1.4-.3-.4-.8-.6-1.3-.8-.5-.2-1.2-.3-2-.3s-1.6.1-2.3.3c-.7.2-1.3.4-1.8.7-.5.2-.9.5-1.3.7-.3.2-.6.3-.8.3-.1 0-.2 0-.3-.1-.1-.1-.2-.1-.2-.2-.1-.1-.1-.3-.1-.4V69c0-.3 0-.6.1-.8 0-.2.2-.4.4-.6.2-.2.5-.4 1-.6.5-.2 1-.5 1.6-.7.6-.2 1.2-.4 1.9-.5.7-.1 1.4-.2 2.1-.2 1.3 0 2.5.2 3.4.5.9.3 1.7.7 2.3 1.3.6.6 1 1.3 1.3 2.2.3.9.4 1.9.4 3v12.5zm-3.4-8.5h-2.9c-.9 0-1.7.1-2.4.2-.7.2-1.3.4-1.7.7-.5.3-.8.7-1 1.1-.2.4-.3.9-.3 1.5 0 1 .3 1.7.9 2.3.6.6 1.5.9 2.6.9.9 0 1.7-.2 2.5-.7.8-.5 1.6-1.1 2.4-2.1v-3.9zm-19 8.4c0 .1 0 .2-.1.3 0 .1-.1.1-.2.2-.1 0-.3.1-.5.1h-1.4c-.2 0-.4-.1-.5-.1-.1 0-.2-.1-.3-.2-.1-.1-.1-.2-.1-.3v-2.5c-1 1.1-2 1.9-3 2.5-1.1.6-2.2.9-3.5.9-1.4 0-2.5-.3-3.5-.8s-1.7-1.2-2.3-2.1c-.6-.9-1-2-1.3-3.2-.3-1.2-.4-2.5-.4-3.8 0-1.6.2-3 .5-4.3.3-1.3.9-2.4 1.5-3.3.7-.9 1.5-1.6 2.5-2.1s2.1-.7 3.5-.7c1.1 0 2.1.2 3 .7.9.5 1.8 1.2 2.7 2.1V57.6c0-.1 0-.2.1-.3 0-.1.1-.2.3-.2.1 0 .3-.1.5-.1s.5-.1.8-.1c.3 0 .6 0 .8.1.2 0 .4.1.5.1.1 0 .2.1.3.2.1.1.1.2.1.3V85zM27 72c-.9-1.1-1.8-2-2.7-2.6-.9-.6-1.8-.9-2.7-.9-.9 0-1.6.2-2.2.6-.6.4-1.1 1-1.5 1.6-.4.7-.7 1.4-.8 2.3-.2.9-.3 1.7-.3 2.6 0 .9.1 1.8.2 2.7.1.9.4 1.7.8 2.4s.8 1.3 1.4 1.7c.6.4 1.3.6 2.2.6.5 0 .9-.1 1.3-.2s.8-.3 1.3-.6c.4-.3.9-.7 1.4-1.1.5-.5 1-1 1.5-1.7V72zm73.4-46.7s1.7 3.9-2.2 9c0 0-5.1 8-8.5 10.1 0 0-3.2 2.6-5.9 6.4 0 0-4.3 4.8-4.9 5.4-.4.4-2.1 2.8-2.4 4.2 0 0 1-2.6 2.9-4 0 0 3.6-3.7 4.7-4.9 0 0 2.8-4.5 7.1-7.1.1.1 14.7-12.6 9.2-19.1z" style="fill-rule:evenodd;clip-rule:evenodd;fill:#312b25"/></svg>