<svg xmlns="http://www.w3.org/2000/svg" width="980" height="823" style="enable-background:new 0 0 980 823" xml:space="preserve"><path style="fill:#ff8c01" d="M90 111h800v600H90z"/><path d="m282.2 394.4 28.1-28.5h36.5c-11.9-24-36.3-40.4-64.5-40.4-28.2 0-52.6 16.5-64.5 40.4h36.5l27.9 28.5zm-72.2 4.4c0 28.7 16.2 53.5 39.8 65.6l32.4-33-64.5-65.6c-4.9 10-7.7 21.2-7.7 33m136.8-32.9-64.5 65.6 32.4 33c23.6-12.1 39.8-36.9 39.8-65.6-.1-11.9-2.8-23.1-7.7-33m79.6 44.2-15.5-44.2h-16.8l24.5 65.8h15.2l24.4-65.8h-16.3l-15.5 44.2zm42.6 21.6h48v-13.9h-33V405h27.2v-13.3H484v-11.8h33v-14h-48v65.8zM584.3 388c0-12.2-9.8-22.2-21.8-22.2h-29.9v65.8h15v-21h6.8l14.2 21h17.6l-16.1-22.9c8.2-2.9 14.2-11.2 14.2-20.7m-24.3 9.4h-12.5v-17.5H560c4.8 0 8.6 3.9 8.6 8.8.1 4.8-3.8 8.7-8.6 8.7m33-17.5h19.8v51.8h15v-51.8h19.8v-14H593v14zm140.2-14-15.5 44.2-15.5-44.2h-16.8l24.5 65.8h15.2l24.4-65.8h-16.3zm-73.3 65.8h15v-65.8h-15v65.8zm81.4-10.1h8.2v1.5h-3.3v8.5h-1.7v-8.5h-3.3v-1.5zm13.4 10-2.7-7v7h-1.6v-10h1.9l3 7.7 3-7.7h1.9v10h-1.6v-7l-2.6 7h-1.3z" style="fill:#fff"/></svg>