<svg version="1.1" id="Layer_1" xmlns="http://www.w3.org/2000/svg" x="0" y="0" width="612" height="792" style="enable-background:new 0 0 612 792" xml:space="preserve"><style>.st1{fill:#fff}</style><path style="fill:none;stroke:#fff" d="M214.3 360.2h91.5v53.5h-91.5z"/><path class="st1" d="M268.3 413.7h-3.2l-3.3-9.1c-.3-.9-.7-2-1-3h-.1c-.3 1-.6 2.1-.9 2.9l-3.4 9.1h-3.1l-7.4-20.8h4.2l4.1 12.5c.3 1 .6 1.9.8 2.9h.1c.3-.9.6-1.9.9-2.9l3-8.7-1.4-3.9h3.8l4.2 12.2c.4 1.1.8 2.1 1 3.1h.1c.3-1 .5-1.9.8-3l3.8-12.3h3.9l-6.9 21zM278.4 413.7v-20.8h3.8v20.8h-3.8zM302.3 413.7l-9.4-12.2-2.1-2.8h-.1c.1.7.1 1.8.1 2.8v12.3H287V393h3.9l9.1 11.7c1 1.3 1.5 2.1 2.1 2.9h.1c-.1-.9-.1-2.1-.1-3V393h3.8v20.8h-3.6zM316.1 414c-2.9 0-5-.9-6.4-1.9l1.5-2.8c1.1.8 2.7 1.6 4.7 1.6 1.6 0 3.4-.7 3.4-2.4 0-3-5.1-3.5-7.6-6.3-.8-.9-1.4-2.1-1.4-3.7 0-3.1 2.4-5.7 6.8-5.7 2.2 0 4 .5 5.1 1.2l-.1 3.4c-1.6-.9-3.2-1.5-4.9-1.5-1.7 0-3 .7-3 2.1 0 3.9 9 3.6 9 10.1.2 3.6-3 5.9-7.1 5.9zM340.6 396.1h-5.7v17.6H331v-17.6h-6v-3.2h16.5l-.9 3.2zM344.3 413.7v-20.8h11.6l-1 3.2h-6.7v5.4h6.7v3.2h-6.7v5.8h7.8v3.2h-11.7zM373.4 413.7l-2.1-5.2h-7.4l-1.9 5.2h-3.8l8.1-20.9h2.8l8.4 20.9h-4.1zm-5-13.1c-.4-1-.6-1.9-.8-2.6-.1.7-.4 1.5-.8 2.5l-1.8 4.8h5.1l-1.7-4.7zM386.4 413.7h-6.1v-20.8h6.3c7.5 0 11.5 4.1 11.5 10.2.1 6.3-4.3 10.6-11.7 10.6zm.2-17.6h-2.4v14.4h2.4c5.5 0 7.5-3.4 7.5-7.3 0-4.2-2.5-7.1-7.5-7.1z"/><g><path class="st1" d="m335.8 432.1-.9-2.4h-3.5l-.9 2.4h-1.2l3.5-9.1h.8l3.5 9.1h-1.3zm-2.3-6.1c-.2-.5-.3-.8-.3-1.1-.1.3-.2.7-.4 1.1l-1 2.8h2.7l-1-2.8zM343 424.1h-2.5v8h-1.2v-8h-2.6V423h6.8l-.5 1.1zM350.1 424.1h-2.5v8h-1.2v-8h-2.6V423h6.8l-.5 1.1zM351.8 424.3c.8-.8 1.9-1.3 3.3-1.3s2.6.5 3.4 1.4c.7.8 1.1 1.9 1.1 3.2 0 1.4-.5 2.6-1.3 3.4-.8.8-1.9 1.2-3.2 1.2-1.3 0-2.3-.4-3.1-1.1-.9-.8-1.4-2.1-1.4-3.5 0-1.3.4-2.5 1.2-3.3zm3.3-.2c-2 0-3.2 1.4-3.2 3.6s1.3 3.6 3.2 3.6c2 0 3.2-1.4 3.2-3.6 0-2.1-1.1-3.6-3.2-3.6zM366 432.1c-1.4-2.3-2.2-3.7-2.6-3.7h-.9v3.7h-1.2V423h2.1c2.2 0 3.1 1.1 3.1 2.5 0 1.3-.8 2.1-1.7 2.4.3.2 1.3 1.8 2.8 4.1H366zm-2.6-8h-.9v3.2h.8c1 0 1.8-.7 1.8-1.6.1-.9-.4-1.6-1.7-1.6zM375.3 432.1l-4.4-5.9c-.5-.6-.7-1-.9-1.4V432h-1.2v-9.1h1.3l4.3 5.6c.6.7.8 1.1 1 1.4V422.8h1.2v9.1h-1.3zM378.6 432.1V423h4.6l-.4 1.1h-3v2.8h3v1.1h-3v3h3.4v1.1h-4.6zM388.4 428.5v3.6h-1.2v-3.7l-3-5.4h1.4l1.6 2.8c.2.5.6 1 .8 1.5l.7-1.4 1.5-2.8h1.3l-3.1 5.4zM394.5 432.3c-1.2 0-2.1-.4-2.6-.8l.6-1c.4.3 1.1.7 2 .7.8 0 1.7-.4 1.7-1.3 0-1.5-2.2-1.8-3.3-3-.4-.4-.6-.9-.6-1.6 0-1.3 1-2.3 2.7-2.3 1 0 1.7.2 2.1.5v1.2c-.6-.3-1.3-.6-2-.6-.8 0-1.5.3-1.5 1.1 0 1.9 4 1.9 4 4.6-.2 1.5-1.5 2.5-3.1 2.5z"/></g></svg>