<svg xmlns="http://www.w3.org/2000/svg" width="612" height="792" style="enable-background:new 0 0 612 792" xml:space="preserve"><path d="M502.1 349.6h17.8l-24.5 114.7h31.7l24.5-114.7h43l5.6-25H482.7c10.1 4.5 17 12.3 19.4 25zm-63.6 39h-32.2l8.9-40.4h27c11.1 0 22.4 3.2 22.4 16.8-.2 16-10.2 23.6-26.1 23.6zm7.6-64.6h-57.6l-30 140.3h31.6l10.9-51.5h39c29.5 0 54.2-18.3 54.2-48.4 0-30.5-19.7-40.2-48.1-40.4zM299.8 447.9c-13.1 0-20.8-9.1-20.8-21.6 0-21.1 8.7-47.2 31-47.2 14.7 0 20.3 10 20.3 23.1.1 20.5-8.9 45.7-30.5 45.7zm21.8-89.6c-13.7 0-22 4.1-30.8 13.4h-.4l10.7-47.4h-28.6l-30.2 140h26.4l3.4-14.1h.4c5 14 18.3 18.4 32.6 18.4 35.6 0 54.4-32.8 54.4-66.1-.1-24.8-11.3-44.2-37.9-44.2zm296.3-11.9c-5.3 0-9.6-4.3-9.6-9.6s4.3-9.6 9.6-9.6 9.6 4.3 9.6 9.6-4.3 9.6-9.6 9.6zm0-21.7c-6.7 0-12.1 5.4-12.1 12.1 0 6.7 5.4 12.1 12.1 12.1s12.1-5.4 12.1-12.1c0-6.7-5.4-12.1-12.1-12.1zm-420.8 54.4c17.2 0 20 13.5 20 26.1h-49.3c4.3-13.8 12.6-26.1 29.3-26.1zm43.9 42.6c.9-4.6 1.5-9.7 1.5-14.9 0-33.8-18-48.6-47.1-48.6-36 0-56.4 31.9-56.4 65.8 0 29.2 17.2 44.5 45 44.5 31 0 45-12 53.3-34.9h-27.1c-4.4 6.6-10.2 14.2-22 14.2-16 0-23.7-8.2-23.7-20.2 0-1.6 0-3.4.2-6H241v.1zm377.5-86h-2.4l.7-3.5h2.5c1 0 1.9.2 1.9 1.5-.1 1.5-1.4 2-2.7 2zm1.7-5.6h-5.6l-2.5 12.4h2.6l1-4.9h2.4c1 0 1.7.3 1.7 1.5 0 .8-.1 1.7-.1 2.5 0 .3 0 .5.1.8h2.5c-.1-.4-.2-.9-.2-1.4 0-.8.1-1.6.1-2.2 0-1-.2-1.9-1.2-2.2 1.6-.2 2.7-1.7 2.7-3.3 0-2.3-1.4-3.2-3.5-3.2zM136 324.3 92.1 426.5h-.4l-3.5-101.1H59.5L13.2 426.8h-.4l-1.9-101.5H-18l9 139.2h30L66.4 363h.4l3.5 101.5h29.8l67.5-140.3H136v.1z" style="fill-rule:evenodd;clip-rule:evenodd;fill:#fff"/></svg>