<svg version="1.1" id="Layer_1" xmlns="http://www.w3.org/2000/svg" xmlns:xlink="http://www.w3.org/1999/xlink" x="0" y="0" width="576" height="792" style="enable-background:new 0 0 576 792" xml:space="preserve"><style>.st0{clip-path:url(#SVGID_52_)}.st1{clip-path:url(#SVGID_58_)}.st2{clip-path:url(#SVGID_64_)}.st3{fill:#8a8c8e}.st5{fill:#a7a9ac}</style><defs><path id="SVGID_1_" d="M48.5 461.5v-.3H155v.3H48.5"/></defs><clipPath id="SVGID_2_"><use xlink:href="#SVGID_1_" style="overflow:visible"/></clipPath><g style="clip-path:url(#SVGID_2_)"><image style="overflow:visible" width="443" height="1" xlink:href="1D218B9F.jpg" transform="matrix(.2403 0 0 -.2971 48.526 461.514)"/></g><defs><path id="SVGID_3_" d="M41.6 461.3v-.3h120.3v.3H41.6"/></defs><clipPath id="SVGID_4_"><use xlink:href="#SVGID_3_" style="overflow:visible"/></clipPath><g style="clip-path:url(#SVGID_4_)"><image style="overflow:visible" width="501" height="1" xlink:href="1D218B9D.jpg" transform="matrix(.2402 0 0 -.2971 41.563 461.273)"/></g><defs><path id="SVGID_5_" d="M39.9 461v-.3h123.7v.3H39.9"/></defs><clipPath id="SVGID_6_"><use xlink:href="#SVGID_5_" style="overflow:visible"/></clipPath><g style="clip-path:url(#SVGID_6_)"><image style="overflow:visible" width="515" height="1" xlink:href="1D218BA3.jpg" transform="matrix(.2402 0 0 -.2971 39.881 461.033)"/></g><defs><path id="SVGID_7_" d="M38.9 460.8v-.3h125.4v.3H38.9"/></defs><clipPath id="SVGID_8_"><use xlink:href="#SVGID_7_" style="overflow:visible"/></clipPath><g style="clip-path:url(#SVGID_8_)"><image style="overflow:visible" width="522" height="1" xlink:href="1D218BA5.jpg" transform="matrix(.2402 0 0 -.2971 38.92 460.793)"/></g><defs><path id="SVGID_9_" d="M38.4 460.6v-.3h126.4v.3H38.4"/></defs><clipPath id="SVGID_10_"><use xlink:href="#SVGID_9_" style="overflow:visible"/></clipPath><g style="clip-path:url(#SVGID_10_)"><image style="overflow:visible" width="526" height="1" xlink:href="1D218BA7.jpg" transform="matrix(.2402 0 0 -.2971 38.44 460.553)"/></g><defs><path id="SVGID_11_" d="M38.2 460.3v-.3H165v.3H38.2"/></defs><clipPath id="SVGID_12_"><use xlink:href="#SVGID_11_" style="overflow:visible"/></clipPath><g style="clip-path:url(#SVGID_12_)"><image style="overflow:visible" width="528" height="1" xlink:href="1D218BA4.jpg" transform="matrix(.2402 0 0 -.2971 38.2 460.313)"/></g><defs><path id="SVGID_13_" d="M38 460.1v-.3h127.3v.3H38"/></defs><clipPath id="SVGID_14_"><use xlink:href="#SVGID_13_" style="overflow:visible"/></clipPath><g style="clip-path:url(#SVGID_14_)"><image style="overflow:visible" width="530" height="1" xlink:href="1D218BAC.jpg" transform="matrix(.2402 0 0 -.2971 37.96 460.072)"/></g><defs><path id="SVGID_15_" d="M37.7 459.8v-.5h127.8v.5H37.7"/></defs><clipPath id="SVGID_16_"><use xlink:href="#SVGID_15_" style="overflow:visible"/></clipPath><g style="clip-path:url(#SVGID_16_)"><image style="overflow:visible" width="532" height="2" xlink:href="1D218BAD.jpg" transform="matrix(.2402 0 0 -.2687 37.72 459.832)"/></g><defs><path id="SVGID_17_" d="M37.7 459.4v-.3h128.1v.3H37.7"/></defs><clipPath id="SVGID_18_"><use xlink:href="#SVGID_17_" style="overflow:visible"/></clipPath><g style="clip-path:url(#SVGID_18_)"><image style="overflow:visible" width="533" height="1" xlink:href="1D218BAF.jpg" transform="matrix(.2402 0 0 -.2971 37.72 459.352)"/></g><defs><path id="SVGID_19_" d="M37.5 459.1v-.8h128.3v.8H37.5"/></defs><clipPath id="SVGID_20_"><use xlink:href="#SVGID_19_" style="overflow:visible"/></clipPath><g style="clip-path:url(#SVGID_20_)"><image style="overflow:visible" width="534" height="3" xlink:href="35D92E0C.jpg" transform="matrix(.2402 0 0 -.2592 37.48 459.111)"/></g><defs><path id="SVGID_21_" d="M37.5 458.4v-.5H166v.5H37.5"/></defs><clipPath id="SVGID_22_"><use xlink:href="#SVGID_21_" style="overflow:visible"/></clipPath><g style="clip-path:url(#SVGID_22_)"><image style="overflow:visible" width="535" height="2" xlink:href="35D92E0B.jpg" transform="matrix(.2402 0 0 -.2687 37.48 458.39)"/></g><defs><path id="SVGID_23_" d="M37.2 457.9v-2H166v2H37.2"/></defs><clipPath id="SVGID_24_"><use xlink:href="#SVGID_23_" style="overflow:visible"/></clipPath><g style="clip-path:url(#SVGID_24_)"><image style="overflow:visible" width="536" height="8" xlink:href="35D92E04.jpg" transform="matrix(.2402 0 0 -.2473 37.24 457.91)"/></g><defs><path id="SVGID_25_" d="M37.2 456v-1.7h129v1.7h-129"/></defs><clipPath id="SVGID_26_"><use xlink:href="#SVGID_25_" style="overflow:visible"/></clipPath><g style="clip-path:url(#SVGID_26_)"><image style="overflow:visible" width="537" height="7" xlink:href="35D92E07.jpg" transform="matrix(.2402 0 0 -.2483 37.24 455.988)"/></g><defs><path id="SVGID_27_" d="M37 454.3v-14.5h129.2v14.5H37"/></defs><clipPath id="SVGID_28_"><use xlink:href="#SVGID_27_" style="overflow:visible"/></clipPath><g style="clip-path:url(#SVGID_28_)"><image style="overflow:visible" width="538" height="60" xlink:href="35D92E05.jpg" transform="matrix(.2402 0 0 -.2411 37 454.309)"/></g><defs><path id="SVGID_29_" d="M37 439.9v-86.5h129.5v86.5H37"/></defs><clipPath id="SVGID_30_"><use xlink:href="#SVGID_29_" style="overflow:visible"/></clipPath><g style="clip-path:url(#SVGID_30_)"><image style="overflow:visible" width="539" height="360" xlink:href="35D92E1B.jpg" transform="matrix(.2402 0 0 -.2403 37 439.897)"/></g><defs><path id="SVGID_31_" d="M37 353.4v-16.1h129.2v16.1H37"/></defs><clipPath id="SVGID_32_"><use xlink:href="#SVGID_31_" style="overflow:visible"/></clipPath><g style="clip-path:url(#SVGID_32_)"><image style="overflow:visible" width="538" height="67" xlink:href="35D92E1C.jpg" transform="matrix(.2402 0 0 -.241 37 353.433)"/></g><defs><path id="SVGID_33_" d="M37.2 337.3v-2.4H166v2.4H37.2"/></defs><clipPath id="SVGID_34_"><use xlink:href="#SVGID_33_" style="overflow:visible"/></clipPath><g style="clip-path:url(#SVGID_34_)"><image style="overflow:visible" width="536" height="10" xlink:href="35D92E1F.jpg" transform="matrix(.2402 0 0 -.2459 37.24 337.34)"/></g><defs><path id="SVGID_35_" d="M37.5 334.9v-1h128.3v1H37.5"/></defs><clipPath id="SVGID_36_"><use xlink:href="#SVGID_35_" style="overflow:visible"/></clipPath><g style="clip-path:url(#SVGID_36_)"><image style="overflow:visible" width="534" height="4" xlink:href="35D92E1D.jpg" transform="matrix(.2402 0 0 -.2544 37.48 334.939)"/></g><defs><path id="SVGID_37_" d="M37.7 334v-.6h127.8v.6H37.7"/></defs><clipPath id="SVGID_38_"><use xlink:href="#SVGID_37_" style="overflow:visible"/></clipPath><g style="clip-path:url(#SVGID_38_)"><image style="overflow:visible" width="532" height="2" xlink:href="35D92E1A.jpg" transform="matrix(.2402 0 0 -.2687 37.72 333.978)"/></g><defs><path id="SVGID_39_" d="M38 333.5v-.3h127.3v.3H38"/></defs><clipPath id="SVGID_40_"><use xlink:href="#SVGID_39_" style="overflow:visible"/></clipPath><g style="clip-path:url(#SVGID_40_)"><image style="overflow:visible" width="530" height="1" xlink:href="35D92E3F.jpg" transform="matrix(.2402 0 0 -.2971 37.96 333.498)"/></g><defs><path id="SVGID_41_" d="M38.2 333.3v-.3H165v.3H38.2"/></defs><clipPath id="SVGID_42_"><use xlink:href="#SVGID_41_" style="overflow:visible"/></clipPath><g style="clip-path:url(#SVGID_42_)"><image style="overflow:visible" width="528" height="1" xlink:href="35D92E39.jpg" transform="matrix(.2402 0 0 -.2971 38.2 333.258)"/></g><defs><path id="SVGID_43_" d="M38.4 333v-.3h126.4v.3H38.4"/></defs><clipPath id="SVGID_44_"><use xlink:href="#SVGID_43_" style="overflow:visible"/></clipPath><g style="clip-path:url(#SVGID_44_)"><image style="overflow:visible" width="526" height="1" xlink:href="35D92E3B.jpg" transform="matrix(.2402 0 0 -.2971 38.44 333.018)"/></g><g><defs><path id="SVGID_45_" d="M38.9 332.8v-.3h125.4v.3H38.9"/></defs><clipPath id="SVGID_46_"><use xlink:href="#SVGID_45_" style="overflow:visible"/></clipPath><g style="clip-path:url(#SVGID_46_)"><image style="overflow:visible" width="522" height="1" xlink:href="35D92E36.jpg" transform="matrix(.2402 0 0 -.2971 38.92 332.777)"/></g></g><g><defs><path id="SVGID_47_" d="M39.6 332.5v-.3h124v.3h-124"/></defs><clipPath id="SVGID_48_"><use xlink:href="#SVGID_47_" style="overflow:visible"/></clipPath><g style="clip-path:url(#SVGID_48_)"><image style="overflow:visible" width="516" height="1" xlink:href="35D92E37.jpg" transform="matrix(.2402 0 0 -.2971 39.642 332.537)"/></g></g><g><defs><path id="SVGID_49_" d="M41.3 332.3v-.3h120.6v.3H41.3"/></defs><clipPath id="SVGID_50_"><use xlink:href="#SVGID_49_" style="overflow:visible"/></clipPath><g style="clip-path:url(#SVGID_50_)"><image style="overflow:visible" width="502" height="1" xlink:href="35D92E29.jpg" transform="matrix(.2402 0 0 -.2971 41.322 332.297)"/></g></g><g><defs><path id="SVGID_51_" d="m47.8 342.8.1 107.9h107.8V342.8h-16v92l-76 .1v-92.1H47.8z"/></defs><clipPath id="SVGID_52_"><use xlink:href="#SVGID_51_" style="overflow:visible"/></clipPath><g class="st0"><defs><path id="SVGID_53_" d="M47.8 342.8h107.9v107.9H47.8z"/></defs><clipPath id="SVGID_54_"><use xlink:href="#SVGID_53_" style="overflow:visible"/></clipPath><g style="clip-path:url(#SVGID_54_)"><image style="overflow:visible" width="228" height="227" xlink:href="35D92E2B.png" transform="matrix(.48 0 0 -.48 47.233 451.19)"/></g></g><g class="st0"><defs><path id="SVGID_55_" d="M47.8 342.8h107.9v107.9H47.8z"/></defs><clipPath id="SVGID_56_"><use xlink:href="#SVGID_55_" style="overflow:visible"/></clipPath><g style="clip-path:url(#SVGID_56_)"><image style="overflow:visible" width="228" height="227" xlink:href="35D92E29.png" transform="matrix(.48 0 0 -.48 47.233 451.19)"/></g></g></g><g><defs><path id="SVGID_57_" d="M135.8 359.1v-16.3H68.2v88.4h67.6v-15.8l-49-.1v-56.2h49z"/></defs><clipPath id="SVGID_58_"><use xlink:href="#SVGID_57_" style="overflow:visible"/></clipPath><g class="st1"><defs><path id="SVGID_59_" d="M68.2 342.8h67.6v88.4H68.2z"/></defs><clipPath id="SVGID_60_"><use xlink:href="#SVGID_59_" style="overflow:visible"/></clipPath><g style="clip-path:url(#SVGID_60_)"><image style="overflow:visible" width="148" height="187" xlink:href="35D92E2F.png" transform="matrix(.48 0 0 -.48 67.061 431.725)"/></g></g><g class="st1"><defs><path id="SVGID_61_" d="M68.2 342.8h67.6v88.4H68.2z"/></defs><clipPath id="SVGID_62_"><use xlink:href="#SVGID_61_" style="overflow:visible"/></clipPath><g style="clip-path:url(#SVGID_62_)"><image style="overflow:visible" width="148" height="187" xlink:href="35D92E2A.png" transform="matrix(.48 0 0 -.48 67.061 431.725)"/></g></g></g><g><defs><path id="SVGID_63_" d="M135.9 377.9V363H92l.1 48.4h43.7v-14.8h-28.6v-18.7h28.7z"/></defs><clipPath id="SVGID_64_"><use xlink:href="#SVGID_63_" style="overflow:visible"/></clipPath><g class="st2"><defs><path id="SVGID_65_" d="M92 363h43.9v48.4H92z"/></defs><clipPath id="SVGID_66_"><use xlink:href="#SVGID_65_" style="overflow:visible"/></clipPath><g style="clip-path:url(#SVGID_66_)"><image style="overflow:visible" width="96" height="105" xlink:href="35D92E4E.png" transform="matrix(.48 0 0 -.48 91.02 412.603)"/></g></g><g class="st2"><defs><path id="SVGID_67_" d="M92 363h43.9v48.4H92z"/></defs><clipPath id="SVGID_68_"><use xlink:href="#SVGID_67_" style="overflow:visible"/></clipPath><g style="clip-path:url(#SVGID_68_)"><image style="overflow:visible" width="96" height="105" xlink:href="35D92E71.png" transform="matrix(.48 0 0 -.48 91.02 412.603)"/></g></g></g><path class="st3" d="M346.5 400.3h3.3v-28.5H332v4.6h13.9v.2c0 6.4-1.3 11.5-4 15.2-2.7 3.7-6.2 5.5-10.7 5.5-4.3 0-7.8-2.2-10.5-6.7-2.7-4.6-4.1-10.7-4.1-18.3 0-7.9 1.4-13.9 4.1-18.3 2.7-4.1 6.3-6.2 11-6.2 3.4 0 6.3 1.2 8.7 3.5 2.5 2.3 4 5.5 4.7 9.6h4.3c-.6-5.5-2.6-9.9-5.8-13.1-3.1-3.1-7.1-4.6-12-4.6-5.8 0-10.4 2.5-13.9 7.6-3.6 5.3-5.4 12.5-5.4 21.5s1.8 16.2 5.4 21.6c3.5 5.3 8 7.9 13.6 7.9 3.1 0 6-1 8.7-3.1 2.6-2 4.7-4.5 6.2-7.6l.3 9.2zm14.6 0h4.1v-24.8h13.1c3.6 0 6 .8 7.1 2.3 1.1 1.5 1.8 4.6 2.1 9.5l.5 7.3c.1 1.4.2 2.5.4 3.4.2 1 .4 1.7.6 2.3h4.6v-.8c-.4-.5-.7-1.1-.9-1.9-.3-.9-.5-1.9-.6-3.2l-.5-8.4c-.3-4.1-.8-6.9-1.3-8.4-.8-2.1-2.2-3.6-4.4-4.5 2.3-1.1 4.1-2.7 5.4-5.1 1.3-2.4 1.9-5.3 1.9-8.7 0-2.8-.5-5.3-1.5-7.5-.9-2.2-2.3-3.8-4-5-1.5-1-3.2-1.7-5.3-2-1.4-.2-3.5-.3-6.4-.3h-15v55.8h.1zm4.1-29.4v-21.6H377c2.2 0 3.8.1 4.9.2 1.5.3 2.8.9 3.8 1.7 1.1.9 1.9 2 2.4 3.5.6 1.5.9 3.1.9 4.9 0 4-1 6.9-2.9 8.7-1.9 1.7-4.9 2.6-9 2.6h-11.9zm35.7 1.6c0 9 1.8 16.1 5.4 21.4 3.5 5.3 8.2 7.9 14 7.9 6 0 10.8-2.6 14.4-7.9 3.7-5.3 5.5-12.4 5.5-21.4 0-9.1-1.8-16.2-5.5-21.5-3.6-5.2-8.4-7.8-14.4-7.8-5.8 0-10.5 2.6-14 7.8-3.6 5.3-5.4 12.5-5.4 21.5zm4.1 0c0-7.7 1.5-13.7 4.3-18.3 2.8-4.3 6.4-6.5 11-6.5 4.8 0 8.6 2.2 11.4 6.5 2.9 4.4 4.4 10.5 4.4 18.3 0 7.7-1.5 13.8-4.4 18.3-2.8 4.4-6.6 6.6-11.4 6.6-4.6 0-8.2-2.2-11-6.6-2.9-4.6-4.3-10.6-4.3-18.3zm45-27.9v35.8c0 7 1.4 12.4 4.2 16 2.8 3.6 6.9 5.4 12.5 5.4 5.5 0 9.7-1.8 12.5-5.4 2.8-3.6 4.3-9 4.3-16v-35.8h-4.1v35.1c0 6-1 10.4-3 13.2-2 2.9-5.3 4.3-9.7 4.3-4.4 0-7.7-1.4-9.7-4.3-2-2.8-2.9-7.2-2.9-13.2v-35.1H450zm45.3 55.7h4.1v-24.1h9.6c5.6 0 9.8-1.3 12.6-4 2.8-2.6 4.2-6.6 4.2-11.8 0-5.2-1.2-9.2-3.7-11.8-2.5-2.6-6.1-3.9-11.1-3.9h-15.7v55.6zm4.1-28.7v-22.4h11.4c3.6 0 6.3.9 8.1 2.6 1.8 1.8 2.6 4.5 2.6 8.3 0 4.1-1 7-3.1 8.8-2 1.7-5.1 2.6-9.4 2.6h-9.6v.1z"/><path class="st3" d="M348.1 398.7h.1v-25.3h-14.6v1.3H347.4v1.8c0 3.3-.4 6.3-1.1 9-.1.4-.2.9-.4 1.3-.7 2.2-1.7 4.1-2.9 5.8-.4.6-.8 1.1-1.3 1.6s-.9 1-1.4 1.4c-2.6 2.2-5.7 3.2-9.3 3.2-4.9 0-8.9-2.5-11.9-7.5-.4-.7-.8-1.4-1.1-2.2-.4-.8-.7-1.5-1-2.3-1.5-4.1-2.2-9-2.2-14.6 0-4 .4-7.6 1.1-10.8.7-3.2 1.8-6 3.3-8.3 1.5-2.3 3.2-4 5.3-5.2 2.1-1.2 4.4-1.8 7.1-1.8 1.9 0 3.7.3 5.4 1 1.7.7 3.2 1.6 4.5 2.9 1.4 1.3 2.5 2.8 3.4 4.6.7 1.4 1.2 2.9 1.5 4.5h1c0-.1 0-.2-.1-.3-.1-.7-.3-1.4-.5-2-.9-3.2-2.4-5.9-4.5-8-1.4-1.4-3-2.4-4.8-3.1-1.8-.7-3.8-1-6.1-1-2.6 0-4.9.6-7 1.7-.3.2-.7.4-1 .6-1.7 1.1-3.2 2.7-4.5 4.6-.5.7-.9 1.4-1.3 2.2-.4.8-.8 1.6-1.1 2.4-1.8 4.4-2.7 9.7-2.7 16 0 4.4.4 8.3 1.3 11.8.1.5.3 1.1.5 1.6.8 2.7 1.9 5.2 3.4 7.3 1.6 2.4 3.4 4.2 5.5 5.4 2 1.2 4.3 1.8 6.8 1.8 2.7 0 5.3-.9 7.8-2.8.4-.3.7-.5 1-.8l.9-.9c1.5-1.5 2.8-3.3 3.8-5.4l3.1.6.2 7.9zm1.7 3.2H345l-.1-1.6-.2-3.9c-.5.6-1 1.2-1.5 1.7-.4.3-.7.7-1.1 1-.4.3-.8.7-1.2.9-3.1 2.3-6.3 3.4-9.7 3.4-3.1 0-5.9-.7-8.5-2.2-2.5-1.5-4.7-3.6-6.6-6.5-1.6-2.4-2.9-5.1-3.8-8.1-.2-.5-.3-1.1-.5-1.8-.9-3.7-1.4-7.9-1.4-12.5 0-6.7 1-12.5 3-17.2.4-1 .8-1.9 1.3-2.7.5-.9 1-1.7 1.5-2.5 1.6-2.3 3.4-4.1 5.4-5.5.4-.3.8-.5 1.2-.7 2.6-1.4 5.4-2.1 8.6-2.1 2.6 0 5 .4 7.2 1.3 2.2.8 4.2 2.1 5.9 3.8 2.5 2.5 4.3 5.6 5.3 9.4.2.7.4 1.5.5 2.2.1.8.3 1.6.4 2.4l.2 1.8H343.6l-.2-1.4c-.3-1.9-.8-3.5-1.5-5-.7-1.4-1.6-2.6-2.7-3.6s-2.2-1.8-3.5-2.3c-1.3-.5-2.6-.7-4.2-.7-2.1 0-3.9.4-5.5 1.3s-3 2.3-4.2 4.1c-1.3 2-2.2 4.4-2.9 7.3-.7 2.9-1 6.3-1 10.1 0 5.3.7 9.8 2 13.5.3.7.5 1.4.8 2.1.3.6.6 1.3 1 1.9 2.4 4 5.4 5.9 9.1 5.9 2.8 0 5.2-.8 7.2-2.5.4-.3.8-.7 1.1-1.1.4-.4.7-.8 1-1.3 1-1.4 1.8-3.1 2.4-4.9.1-.4.2-.7.3-1.1.5-2 .9-4.3.9-6.8H330.4V370.2h21.1V401.9h-1.7zm13-3.2h.8v-24.8h14.7c2 0 3.7.2 5 .6.2.1.4.1.7.2 1.2.5 2.1 1.2 2.8 2l.6.9c.2.3.3.7.5 1.1.7 1.9 1.1 4.7 1.3 8.3l.5 7.3c0 .7.1 1.3.1 1.8.1.5.1 1 .2 1.4.1.4.1.7.2 1h1.1c-.1-.2-.1-.3-.2-.5-.2-.5-.3-1.1-.4-1.7-.1-.6-.2-1.2-.2-2l-.5-8.3c-.1-.8-.1-1.3-.1-1.6 0-.4-.1-.9-.2-1.5-.3-2.3-.6-3.9-.9-4.8-.1-.2-.2-.4-.3-.7l-.3-.6c-.6-1-1.6-1.7-2.8-2.2l-3.6-1.4 3.5-1.6c.3-.1.6-.3.8-.4.2-.1.5-.3.8-.5 1.3-.9 2.3-2 3.1-3.5.2-.3.3-.6.4-.9.1-.3.2-.6.4-1 .6-1.7.9-3.8.9-6 0-2.6-.4-4.9-1.3-6.8-.4-1-.9-1.8-1.5-2.5s-1.2-1.3-2-1.8c-.6-.4-1.3-.8-2.1-1.1-.8-.3-1.6-.5-2.5-.6-.3 0-.6-.1-1.1-.1-.5 0-1-.1-1.4-.1-1 0-2.2-.1-3.7-.1h-13.4v52.5h.1zm2.4 3.2H359.5V343h16.6c1.4 0 2.7 0 3.8.1.6 0 1.1.1 1.5.1.4 0 .9.1 1.3.1 1.1.2 2.2.4 3.2.8s1.9.9 2.8 1.4c1 .7 1.9 1.5 2.7 2.5.8 1 1.4 2 1.9 3.2 1.1 2.4 1.6 5.1 1.6 8.1 0 2.6-.4 5-1.1 7.1-.1.4-.3.8-.5 1.2-.2.4-.4.8-.6 1.1-.9 1.7-2.1 3.2-3.6 4.3.7.6 1.3 1.2 1.8 1.9.2.3.4.6.5.9.2.3.3.6.4 1 .4 1.2.8 3 1.1 5.6 0 .4.1.9.2 1.5.1.7.1 1.3.1 1.7l.5 8.4c0 .6.1 1.1.2 1.6l.3 1.2v.1c.1.3.2.5.3.8.9 1.8 2 2.6 3.5 4l-2.8-.1H388l-.4-1c-.2-.4-.3-.8-.4-1.2-.1-.5-.2-.9-.3-1.4-.1-.5-.2-1.1-.2-1.7-.1-.6-.1-1.2-.2-1.9l-.5-7.3c-.2-3.4-.6-5.8-1.2-7.4-.1-.2-.2-.5-.3-.7-.1-.2-.2-.4-.3-.5-.3-.4-.8-.7-1.4-1-.1 0-.3-.1-.4-.2-1-.3-2.4-.5-4-.5h-11.5v24.8h-1.7v.3zm-1.6-31V347.7H377c1.2 0 2.1 0 3 .1.9 0 1.6.1 2.2.2h.1c.2 0 .4.1.7.2.2.1.5.1.7.2 1.2.4 2.2 1 3.1 1.7.2.1.3.3.5.5.2.1.3.3.5.5.8.9 1.4 1.9 1.9 3.1.3.8.6 1.7.8 2.7.2.9.3 1.9.3 2.9 0 2.2-.3 4.1-.8 5.7-.2.5-.4 1.1-.7 1.6-.5 1-1.2 1.9-1.9 2.6-1.1 1-2.6 1.8-4.3 2.3-1.6.5-3.6.7-5.8.7h-13.5v-1.8h-.2zm3.3-20v18.3h10.3c1.9 0 3.5-.2 4.9-.6 1.3-.4 2.3-.9 3-1.6.5-.5.9-1 1.2-1.7.2-.3.3-.7.5-1.1.4-1.3.6-2.9.6-4.7 0-.8-.1-1.6-.2-2.3-.1-.7-.3-1.4-.6-2-.3-.9-.8-1.6-1.3-2.2l-.3-.3-.3-.3c-.6-.5-1.3-.9-2.1-1.1-.1 0-.3-.1-.5-.1-.1 0-.3-.1-.5-.1-.5-.1-1.1-.1-1.8-.2-.8 0-1.7-.1-2.8-.1h-10.1v.1zm35.6 21.6c0 4.3.4 8.2 1.3 11.7.2.6.3 1.2.4 1.6.8 2.7 1.9 5.1 3.4 7.2 1.6 2.4 3.5 4.2 5.6 5.4 2.1 1.2 4.4 1.8 7 1.8 5.4 0 9.8-2.4 13-7.2.5-.7.9-1.4 1.3-2.2.4-.7.8-1.5 1.1-2.4 1.8-4.4 2.7-9.7 2.7-15.9 0-4.4-.4-8.3-1.3-11.8-.9-3.4-2.2-6.3-3.9-8.8-1.6-2.4-3.6-4.2-5.7-5.3-2.2-1.2-4.6-1.7-7.3-1.7-2.6 0-5 .6-7.1 1.7-2.1 1.2-4 2.9-5.6 5.3-1.7 2.5-3 5.5-3.8 8.9-.6 3.4-1.1 7.3-1.1 11.7zm-3.2 0c0-4.6.5-8.8 1.4-12.5.9-3.8 2.4-7.1 4.3-9.9 1.9-2.8 4.1-4.9 6.7-6.3 2.6-1.4 5.5-2.2 8.7-2.2 3.3 0 6.2.7 8.9 2.1 2.6 1.4 4.9 3.5 6.9 6.3 1.9 2.8 3.4 6.1 4.4 9.9 1 3.7 1.4 7.9 1.4 12.6 0 6.7-1 12.4-3 17.2-.4.9-.8 1.8-1.3 2.7-.5.9-1 1.7-1.5 2.5-3.9 5.7-9.2 8.6-15.7 8.6-3.2 0-6.1-.7-8.7-2.2-2.6-1.4-4.8-3.6-6.7-6.5-1.6-2.4-2.8-5.1-3.8-8.1-.2-.6-.4-1.2-.5-1.8-1.1-3.6-1.5-7.8-1.5-12.4zm4.1 0c0-4 .4-7.5 1.1-10.7.1-.4.2-.9.4-1.5.7-2.6 1.8-4.9 3.1-6.9 1.5-2.4 3.3-4.2 5.4-5.4 2.1-1.2 4.4-1.9 7-1.9 2.7 0 5.1.6 7.2 1.8 2.1 1.2 4 3 5.5 5.4 1.6 2.4 2.7 5.2 3.5 8.4.8 3.2 1.2 6.8 1.2 10.8 0 4-.4 7.6-1.1 10.7-.1.5-.3 1-.4 1.5-.8 2.6-1.8 4.9-3.1 6.9-1.5 2.4-3.4 4.2-5.5 5.4-2.1 1.2-4.6 1.9-7.2 1.9-2.6 0-4.9-.6-7-1.9-2.1-1.2-3.9-3-5.4-5.5l-1.2-2.1c-.4-.8-.7-1.5-1-2.3-1.8-4-2.5-8.9-2.5-14.6zm3.2 0c0 5.3.7 9.8 2.1 13.5.3.7.6 1.4.9 2 .3.6.7 1.3 1 1.8 1.3 2 2.7 3.4 4.3 4.4 1.6.9 3.4 1.4 5.3 1.4 2.1 0 4-.5 5.6-1.4 1.7-1 3.1-2.4 4.4-4.4 1.1-1.7 2-3.8 2.7-6 .1-.5.3-.9.4-1.4.7-2.9 1.1-6.2 1.1-10s-.4-7.1-1.1-10c-.7-2.9-1.7-5.3-3.1-7.4-1.3-1.9-2.7-3.4-4.4-4.3-1.6-.9-3.5-1.4-5.6-1.4-2 0-3.7.5-5.3 1.4-1.6 1-3 2.4-4.3 4.3-1.1 1.8-2 3.8-2.7 6.1-.1.4-.2.8-.4 1.4-.5 3-.9 6.3-.9 10zm45-26.2v34.2c0 3.4.3 6.3 1 8.9l.3 1.2c.6 1.9 1.5 3.6 2.5 4.9 1.2 1.6 2.7 2.8 4.6 3.6 1.9.8 4.1 1.2 6.6 1.2s4.7-.4 6.6-1.2c.2-.1.5-.3.9-.4 1.5-.8 2.7-1.8 3.8-3.2.4-.5.7-.9 1-1.4.3-.5.6-1.1.9-1.6 1.4-3.1 2.1-7 2.1-11.9v-34.2h-.9v33.5c0 3.1-.3 5.8-.8 8.2-.2.8-.4 1.6-.6 2.2-.5 1.4-1.1 2.7-1.9 3.8-1.2 1.7-2.7 2.9-4.6 3.8-1.8.8-4 1.2-6.4 1.2-2.4 0-4.6-.4-6.4-1.2-.3-.1-.6-.3-.9-.4-1.5-.8-2.7-1.9-3.7-3.3-.6-.8-1-1.7-1.5-2.7-.4-1-.7-2.1-1-3.3-.5-2.3-.8-5.1-.8-8.1v-33.5h-.8v-.3zm-3.3 34.1V343H455.6v36.7c0 2.9.2 5.4.7 7.4.2 1 .5 1.9.8 2.7.3.8.7 1.5 1.1 2.1.7 1 1.6 1.8 2.6 2.3l.6.3c1.4.6 3.1.9 5.1.9 2 0 3.7-.3 5.1-.9 1.3-.6 2.4-1.5 3.3-2.7.6-.8 1.1-1.8 1.5-2.9.2-.6.4-1.2.5-1.9.5-2.1.7-4.6.7-7.4V343H484.9v37.4c0 5.3-.8 9.7-2.4 13.2-.3.7-.7 1.4-1 2l-1.2 1.8c-1.3 1.7-2.9 3-4.8 4-.3.2-.7.3-1.1.5-2.3 1-4.9 1.5-7.9 1.5s-5.6-.5-7.9-1.5c-2.3-1-4.3-2.5-5.8-4.6-1.3-1.7-2.3-3.6-3-5.9-.1-.5-.3-.9-.4-1.4-.7-2.7-1.1-5.9-1.1-9.6zm48.7 18.3h.8v-24.1H509c2.6 0 4.9-.3 6.8-.9l.9-.3c1.5-.6 2.7-1.3 3.7-2.3 1.2-1.1 2.1-2.5 2.7-4.3.6-1.8.9-3.9.9-6.4 0-4.8-1.1-8.4-3.3-10.7l-.9-.9c-.3-.3-.7-.5-1.1-.7-2-1.2-4.6-1.8-7.9-1.8h-14v52.4h.2zm2.4 3.2H493.7V343H511c3.8 0 7 .8 9.5 2.3.5.3 1 .6 1.4 1 .5.4.9.8 1.3 1.2 2.8 2.9 4.2 7.2 4.2 12.9 0 2.8-.4 5.3-1.1 7.5-.8 2.2-2 4.1-3.5 5.6-1.3 1.3-2.9 2.3-4.8 3-.3.1-.7.3-1.1.4-2.3.7-4.9 1.1-7.8 1.1h-8v24.1h-1.7v-.2zm-1.6-30.3v-24h13c2 0 3.7.2 5.2.7 1.6.5 2.9 1.3 4 2.4.3.3.6.6.8 1 .3.4.5.7.7 1.1 1 1.9 1.6 4.4 1.6 7.4 0 2.2-.3 4.2-.9 5.8-.1.3-.2.5-.3.8-.6 1.4-1.4 2.5-2.5 3.5-1.2 1-2.6 1.8-4.4 2.3-1.7.5-3.7.7-6 .7H497.7v-1.7h.1zm3.3-20.7V370h8c2 0 3.7-.2 5.1-.6 1.3-.4 2.4-.9 3.2-1.6.7-.6 1.2-1.4 1.6-2.3.1-.2.2-.4.2-.6.5-1.3.7-2.9.7-4.7 0-2.4-.4-4.4-1.2-5.8-.1-.3-.3-.5-.5-.7-.2-.2-.3-.4-.5-.6-.7-.7-1.6-1.2-2.7-1.6-1.2-.4-2.6-.6-4.2-.6h-9.7z"/><path d="M172.9 342.8h13.9v37.9c0 5.7.4 9.3 1.1 10.6.7 1.4 3.9 2 5.7 2 1.8 0 3.8-.7 4.5-2.1.7-1.4 1-4.9 1-10.6v-37.9h13.7v38.6c0 4.4-.2 7.6-.5 9.8-.4 2.2-1 4-1.8 5.6-1.4 2.7-3.4 4.7-6.1 6-2.7 1.3-6.8 1.9-11.1 1.9-3.9 0-9.1-.6-11.6-1.8-2.5-1.2-4.4-3.1-5.9-5.7-1-1.9-1.8-4.2-2.2-7.1-.4-2.9-.6-7.8-.6-14.7v-32.5h-.1zm72.8 37h13.5c0 .4.1.8.1 1.2v1.9c0 7.4-1.6 12.9-4.7 16.4-3.1 3.6-8 5.4-14.5 5.4-3.8 0-8-.7-10.8-2-2.7-1.3-4.9-3.3-6.6-5.9-1.2-1.9-2-4.5-2.5-7.9-.5-3.4-.8-8.7-.8-15.9 0-7.3.3-12.6.8-15.9.5-3.3 1.3-6 2.5-7.9 1.7-2.6 3.8-4.6 6.5-5.9 2.7-1.3 6.9-2 10.6-2 6.4 0 11.3 1.8 14.5 5.5 3.2 3.7 4.8 9.2 4.8 16.5v.6h-13.4c-.1-4.1-.5-7-1.4-8.7-.9-1.7-2.3-2.5-4.4-2.5-2.2 0-3.7 1-4.5 3-.8 2-2.2 7.4-2.2 16.1v1.1c0 9.3 1.4 15.1 2.2 17.2.8 2.1 2.3 3.2 4.5 3.2 2.1 0 3.5-.8 4.3-2.3.8-1.5 1.2-4.4 1.2-8.5v-2.7h.3zm46.7 0H306c0 .4.1.8.1 1.2v1.9c0 7.4-1.6 12.9-4.7 16.4-3.1 3.6-8 5.4-14.5 5.4-3.8 0-9-.7-11.7-2-2.7-1.3-4.9-3.3-6.6-5.9-1.2-1.9-2-4.5-2.5-7.9-.5-3.4-.8-8.7-.8-15.9 0-7.3.3-12.6.8-15.9.5-3.3 1.3-6 2.5-7.9 1.7-2.6 3.8-4.6 6.5-5.9 2.7-1.3 7.8-2 11.6-2 6.4 0 11.3 1.8 14.5 5.5 3.2 3.7 4.8 9.2 4.8 16.5v.6h-13.4c-.1-4.1-.5-7-1.4-8.7-.9-1.7-2.3-2.5-4.4-2.5-2.2 0-3.7 1-4.5 3-.8 2-1.2 7.4-1.2 16.1v1.1c0 9.3.4 15.1 1.2 17.2.8 2.1 2.3 3.2 4.5 3.2 2.1 0 3.5-.8 4.3-2.3.8-1.5 1.2-4.4 1.2-8.5v-2.7h.1z" style="fill:#c4262d"/><path class="st3" d="M510.4 402.7v-15h1.6v15h-1.6zM514.5 402.7v-15h1.7l5.4 10.9c.1.2.2.5.3.7.1.2.2.4.2.6v-12.1h1.5v15h-1.7l-5.5-11c-.1-.2-.2-.3-.2-.5-.1-.2-.1-.4-.2-.6v12.1h-1.5v-.1zM534 397.1h1.5c-.1 1.8-.5 3.3-1.4 4.4-.9 1.1-2 1.6-3.4 1.6-1.6 0-2.9-.7-3.8-2.2s-1.4-3.4-1.4-6c0-2.3.5-4.2 1.4-5.6 1-1.4 2.3-2.1 3.9-2.1 1.3 0 2.4.4 3.2 1.3.8.9 1.3 2.1 1.4 3.6h-1.5c-.1-1-.5-1.8-1-2.3-.5-.5-1.3-.8-2.1-.8-1.2 0-2.1.5-2.7 1.6-.6 1.1-1 2.6-1 4.5 0 1.8.3 3.3 1 4.4.7 1.1 1.6 1.7 2.7 1.7.9 0 1.7-.4 2.3-1.1.5-.7.8-1.7.9-3zM537.5 402.7v-2.3h1.6v2.3h-1.6z"/><path class="st5" d="M173.8 448.6V421h9.2c2.4 0 4.1.6 5.3 1.7 1.2 1.1 1.8 2.8 1.8 5 0 1.4-.3 2.7-.8 3.7s-1.4 1.8-2.4 2.3c1.4.3 2.4 1 3.2 2.2.8 1.2 1.1 2.6 1.1 4.4 0 2.5-.7 4.5-2.1 6-1.4 1.5-3.2 2.2-5.6 2.2h-9.7v.1zm3.1-16.1h5.4c1.6 0 2.8-.4 3.5-1.1.8-.7 1.1-1.8 1.1-3.3 0-1.4-.4-2.4-1.1-3.1-.7-.7-1.8-1-3.3-1h-5.7v8.5h.1zm0 12.7h6.3c1.6 0 2.8-.4 3.6-1.3.8-.8 1.2-2.1 1.2-3.7s-.4-2.8-1.2-3.5c-.8-.8-2.1-1.1-3.9-1.1H177v9.6h-.1zM197.2 428.5v12.3c0 2 .3 3.3.8 4.1.5.8 1.4 1.2 2.6 1.2 1.6 0 2.8-.6 3.6-1.7.8-1.1 1.2-2.8 1.2-5.1v-10.8h2.8v20.1h-2.7v-3c-.6 1.2-1.3 2-2.2 2.6-.9.6-2 .9-3.2.9-1.2 0-2.2-.2-3-.7-.9-.5-1.5-1.2-2-2-.3-.5-.4-1.1-.6-1.7-.1-.7-.2-1.7-.2-3.1v-13.1h2.9zM212.4 424.8V421h2.8v3.8h-2.8zm0 23.8v-20.1h2.8v20.1h-2.8zM219.4 448.6v-27.7h2.8v27.7h-2.8zM238.3 438.4c0-2.5-.4-4.4-1.2-5.6-.8-1.3-2.1-1.9-3.7-1.9s-2.8.7-3.6 2.1c-.9 1.4-1.3 3.3-1.3 5.9 0 2.3.4 4.1 1.3 5.4.9 1.3 2.1 2 3.6 2 1.6 0 2.8-.7 3.6-2 .9-1.5 1.3-3.4 1.3-5.9zm2.6-17.5v27.6h-2.7V446c-.7 1.1-1.5 1.8-2.4 2.4-.9.5-1.9.8-3 .8-2.2 0-3.9-1-5.3-2.9-1.3-1.9-2-4.5-2-7.7 0-3.3.7-5.9 2-7.9 1.3-1.9 3.1-2.9 5.3-2.9 1.2 0 2.2.3 3.1.8.9.5 1.7 1.3 2.3 2.3v-10h2.7zM247.4 436.7h9.1c0-1.9-.4-3.3-1.2-4.3-.8-1-1.9-1.5-3.3-1.5s-2.4.5-3.2 1.5c-.8.9-1.3 2.4-1.4 4.3zm9 5.4h2.7c-.3 2.2-1.1 4-2.4 5.2-1.3 1.3-2.9 1.9-4.9 1.9-2.3 0-4.1-.9-5.4-2.8-1.3-1.9-2-4.4-2-7.7 0-3.4.7-6.1 2-8 1.3-1.9 3.1-2.9 5.4-2.9 2.4 0 4.2.9 5.5 2.7 1.3 1.8 2 4.3 2 7.5v1.5h-11.9c0 2.1.5 3.8 1.3 4.9.8 1.2 2 1.7 3.5 1.7 1.1 0 2.1-.4 2.8-1.1.7-.6 1.2-1.6 1.4-2.9zM262.5 448.6v-20.1h2.7v3.6c.4-1.4 1-2.4 1.8-3 .8-.7 1.7-1 2.8-1h.4c.1 0 .2 0 .3.1v3.6H269.9c-1.5 0-2.6.5-3.4 1.5-.8 1-1.2 2.4-1.2 4.3v11.2h-2.8v-.2zM271.9 442h2.7c.1 1.4.5 2.4 1.2 3.1.7.7 1.7 1.1 3 1.1 1.2 0 2.1-.3 2.8-.9.7-.6 1-1.4 1-2.3 0-.7-.2-1.3-.5-1.7-.3-.4-1-.7-2-1l-3.1-1c-1.7-.5-3-1.2-3.6-2s-1-2-1-3.6c0-1.8.6-3.2 1.7-4.2s2.6-1.6 4.5-1.6c2 0 3.5.6 4.7 1.7 1.2 1.1 1.7 2.6 1.7 4.5v.1h-2.7c-.1-1.1-.4-1.9-1.1-2.5-.7-.6-1.5-.9-2.7-.9-1.1 0-2 .2-2.6.7-.6.5-.9 1.2-.9 2.1 0 .6.2 1.2.5 1.5.4.4 1 .7 2 1l2.7.8c1.9.6 3.2 1.3 3.9 2.1.7.9 1.1 2.1 1.1 3.7 0 2.1-.6 3.7-1.8 4.9-1.2 1.2-2.9 1.7-5.1 1.7-2.1 0-3.7-.6-4.9-1.8-.9-1.4-1.5-3.2-1.5-5.5zM299.3 438.5c0 2.5.4 4.4 1.3 5.7.9 1.3 2.1 2 3.8 2 1.6 0 2.9-.7 3.7-2 .9-1.3 1.3-3.2 1.3-5.7s-.4-4.4-1.3-5.7c-.9-1.3-2.1-2-3.7-2s-2.9.7-3.8 2c-.9 1.3-1.3 3.2-1.3 5.7zm-2.9 0c0-3.4.7-6 2.1-7.9 1.4-1.9 3.3-2.8 5.8-2.8s4.5.9 5.8 2.8c1.4 1.9 2.1 4.5 2.1 7.9 0 3.4-.7 6-2.1 7.9-1.4 1.9-3.3 2.8-5.8 2.8s-4.5-.9-5.8-2.8c-1.4-1.9-2.1-4.5-2.1-7.9zM316.2 448.6v-17.4h-2.7v-2.7h2.7v-3c0-1.7.3-2.9.9-3.7.6-.8 1.6-1.3 2.8-1.3.2 0 .4 0 .7.1.3 0 .7.1 1.3.2v3c-.3-.1-.5-.1-.7-.1h-.5c-.6 0-1.1.2-1.4.7-.3.4-.4 1.3-.4 2.5v1.7h3v2.7h-3v17.4h-2.7v-.1zM341.3 424.1H336v21.1h5.3c2.3 0 4-.9 5.1-2.7 1.2-1.8 1.7-4.5 1.7-8 0-3.4-.6-5.9-1.8-7.7-1.1-1.8-2.8-2.7-5-2.7zm-8.4 24.5V421h8.6c3.2 0 5.6 1.2 7.3 3.5 1.7 2.3 2.5 5.6 2.5 10 0 4.5-.9 8-2.6 10.5-1.7 2.5-4.2 3.7-7.3 3.7h-8.5v-.1zM354.9 448.6v-20.1h2.7v3.6c.4-1.4 1-2.4 1.8-3 .8-.7 1.7-1 2.8-1h.4c.1 0 .2 0 .3.1v3.6H362.3c-1.5 0-2.6.5-3.4 1.5-.8 1-1.2 2.4-1.2 4.3v11.2h-2.8v-.2zM367.5 436.7h9.1c0-1.9-.4-3.3-1.2-4.3-.8-1-1.9-1.5-3.3-1.5s-2.4.5-3.2 1.5c-.8.9-1.3 2.4-1.4 4.3zm9 5.4h2.7c-.3 2.2-1.1 4-2.4 5.2-1.3 1.3-2.9 1.9-4.9 1.9-2.3 0-4.1-.9-5.4-2.8-1.3-1.9-2-4.4-2-7.7 0-3.4.7-6.1 2-8 1.3-1.9 3.1-2.9 5.4-2.9 2.4 0 4.2.9 5.5 2.7 1.3 1.8 2 4.3 2 7.5v1.5h-11.9c0 2.1.5 3.8 1.3 4.9.8 1.2 2 1.7 3.5 1.7 1.1 0 2.1-.4 2.8-1.1.7-.6 1.2-1.6 1.4-2.9zM392.8 445.9c-.9 1.1-1.8 1.9-2.8 2.5-1 .6-2 .8-3.1.8-1.7 0-3-.5-3.9-1.6-.9-1.1-1.4-2.5-1.4-4.4 0-1.8.5-3.3 1.4-4.3.9-1 2.3-1.7 4.2-2 .5-.1 1.1-.1 2-.3 1.4-.2 2.3-.3 2.6-.5.3-.1.5-.3.6-.6.1-.2.2-.8.2-1.6 0-1-.3-1.8-.9-2.3-.6-.5-1.5-.8-2.8-.8-1.3 0-2.3.3-2.9.9-.7.6-1 1.6-1 2.8h-2.6v-.1c0-2 .6-3.6 1.8-4.8 1.2-1.2 2.8-1.8 4.8-1.8 2.2 0 3.8.5 4.9 1.5 1 1 1.6 2.6 1.6 4.7v10.1c0 .9.1 1.4.2 1.7.2.3.4.4.8.4h.3c.1 0 .3-.1.4-.1v2.6c-.3.1-.6.2-.9.2-.3 0-.5.1-.7.1-.9 0-1.6-.2-2.1-.7-.5-.5-.7-1.2-.7-2.2v-.2zm-.2-7.6c-.7.5-2 .9-3.8 1.1-.6.1-1.1.2-1.4.2-1 .2-1.7.6-2.2 1.1-.4.5-.7 1.3-.7 2.3 0 1 .3 1.8.8 2.3.5.5 1.3.8 2.2.8 1.5 0 2.7-.5 3.7-1.4 1-.9 1.4-2.1 1.4-3.5v-2.9zM419.9 448.6v-12.4c0-2-.2-3.4-.7-4.2-.5-.7-1.2-1.1-2.4-1.1-1.3 0-2.4.5-3.1 1.5-.7 1-1.1 2.4-1.1 4.2v11.9h-2.8v-12.4c0-2-.2-3.4-.7-4.2-.5-.7-1.2-1.1-2.3-1.1-1.3 0-2.4.5-3.1 1.5-.8 1-1.1 2.4-1.1 4.2v11.9h-2.8v-20.1h2.7v2.8c.6-1.1 1.3-2 2.2-2.5.8-.6 1.8-.8 3-.8 1 0 1.9.3 2.6.8.7.5 1.4 1.3 1.9 2.4.7-1.1 1.5-1.9 2.4-2.4.9-.5 1.8-.8 2.9-.8 1.1 0 2 .2 2.8.7.8.5 1.4 1.1 1.8 2 .2.5.4 1.1.5 1.8.1.7.2 1.8.2 3.4v12.7h-2.9v.2zM425.7 442h2.7c.1 1.4.5 2.4 1.2 3.1.7.7 1.7 1.1 3 1.1 1.2 0 2.1-.3 2.8-.9.7-.6 1-1.4 1-2.3 0-.7-.2-1.3-.5-1.7-.3-.4-1-.7-2-1l-3.1-1c-1.7-.5-3-1.2-3.6-2-.7-.8-1-2-1-3.6 0-1.8.6-3.2 1.7-4.2s2.6-1.6 4.5-1.6c2 0 3.5.6 4.7 1.7 1.2 1.1 1.7 2.6 1.7 4.5v.1h-2.7c-.1-1.1-.4-1.9-1.1-2.5-.7-.6-1.5-.9-2.7-.9-1.1 0-2 .2-2.6.7-.6.5-.9 1.2-.9 2.1 0 .6.2 1.2.5 1.5.4.4 1 .7 2 1l2.7.8c1.9.6 3.2 1.3 3.9 2.1.7.9 1.1 2.1 1.1 3.7 0 2.1-.6 3.7-1.8 4.9-1.2 1.2-2.9 1.7-5.1 1.7-2.1 0-3.7-.6-4.9-1.8-.9-1.4-1.4-3.2-1.5-5.5zM453.5 435.1c-.1-1.4-.5-2.4-1.2-3.2-.7-.7-1.7-1.1-3-1.1-1.5 0-2.7.7-3.5 2-.8 1.3-1.2 3.2-1.2 5.6 0 2.4.4 4.3 1.2 5.7.8 1.3 1.9 2 3.3 2 1.3 0 2.3-.4 3.1-1.2.8-.8 1.3-2 1.4-3.5h2.7c-.1 2.5-.9 4.4-2.1 5.8-1.3 1.4-3 2.1-5.2 2.1-2.3 0-4-.9-5.3-2.8-1.3-1.9-1.9-4.5-1.9-7.8 0-3.4.7-6 2-7.9 1.3-1.9 3.2-2.9 5.5-2.9 2.1 0 3.7.7 5 2 1.2 1.3 1.9 3.1 2 5.4h-2.8v-.2zM469.3 445.9c-.9 1.1-1.8 1.9-2.8 2.5-1 .6-2 .8-3.1.8-1.7 0-3-.5-3.9-1.6-.9-1.1-1.4-2.5-1.4-4.4 0-1.8.5-3.3 1.4-4.3.9-1 2.3-1.7 4.3-2 .5-.1 1.1-.1 2-.3 1.4-.2 2.3-.3 2.6-.5.3-.1.5-.3.6-.6.1-.2.2-.8.2-1.6 0-1-.3-1.8-.9-2.3-.6-.5-1.5-.8-2.8-.8-1.3 0-2.3.3-2.9.9-.7.6-1 1.6-1 2.8H459v-.1c0-2 .6-3.6 1.8-4.8 1.2-1.2 2.8-1.8 4.8-1.8 2.2 0 3.8.5 4.9 1.5 1 1 1.6 2.6 1.6 4.7v10.1c0 .9.1 1.4.2 1.7.2.3.4.4.8.4h.3c.1 0 .3-.1.4-.1v2.6c-.3.1-.6.2-.9.2-.3 0-.5.1-.7.1-.9 0-1.6-.2-2.1-.7-.5-.5-.7-1.2-.7-2.2v-.2h-.1zm-.3-7.6c-.7.5-2 .9-3.8 1.1-.6.1-1.1.2-1.4.2-1 .2-1.7.6-2.2 1.1-.4.5-.7 1.3-.7 2.3 0 1 .3 1.8.8 2.3.5.5 1.3.8 2.2.8 1.5 0 2.7-.5 3.7-1.4 1-.9 1.4-2.1 1.4-3.5v-2.9zM478.9 438.7c0 2.5.4 4.4 1.2 5.6.8 1.3 2 1.9 3.7 1.9 1.6 0 2.8-.7 3.6-2.1.8-1.4 1.3-3.3 1.3-5.9 0-2.3-.4-4.1-1.3-5.4-.9-1.3-2.1-2-3.6-2-1.6 0-2.8.7-3.6 2-.9 1.4-1.3 3.4-1.3 5.9zm-2.6 17.9v-28.1h2.7v2.8c.7-1.2 1.5-2.1 2.3-2.6.9-.6 1.9-.8 3.1-.8 2.2 0 3.9 1 5.3 2.9 1.3 1.9 2 4.5 2 7.8s-.7 5.9-2 7.8c-1.3 1.9-3.1 2.9-5.3 2.9-1.2 0-2.2-.3-3.1-.8-.9-.5-1.6-1.3-2.3-2.3v10.5h-2.7v-.1zM497.1 436.7h9.1c0-1.9-.4-3.3-1.2-4.3-.8-1-1.9-1.5-3.3-1.5s-2.4.5-3.2 1.5c-.8.9-1.3 2.4-1.4 4.3zm9 5.4h2.7c-.3 2.2-1.1 4-2.4 5.2-1.3 1.3-2.9 1.9-4.9 1.9-2.3 0-4.1-.9-5.4-2.8-1.3-1.9-2-4.4-2-7.7 0-3.4.7-6.1 2-8 1.3-1.9 3.1-2.9 5.4-2.9 2.4 0 4.2.9 5.5 2.7 1.3 1.8 2 4.3 2 7.5v1.5h-11.9c0 2.1.5 3.8 1.3 4.9.8 1.2 2 1.7 3.5 1.7 1.1 0 2.1-.4 2.8-1.1.7-.6 1.1-1.6 1.4-2.9zM511.1 442h2.7c.1 1.4.5 2.4 1.2 3.1.7.7 1.7 1.1 3 1.1 1.2 0 2.1-.3 2.8-.9.7-.6 1-1.4 1-2.3 0-.7-.2-1.3-.5-1.7-.3-.4-1-.7-2-1l-3.1-1c-1.7-.5-3-1.2-3.6-2s-1-2-1-3.6c0-1.8.6-3.2 1.7-4.2s2.6-1.6 4.5-1.6c2 0 3.5.6 4.7 1.7 1.2 1.1 1.7 2.6 1.7 4.5v.1h-2.7c-.1-1.1-.4-1.9-1.1-2.5-.7-.6-1.5-.9-2.7-.9s-2 .2-2.6.7c-.6.5-.9 1.2-.9 2.1 0 .6.2 1.2.5 1.5.4.4 1 .7 2 1l2.7.8c1.9.6 3.2 1.3 3.9 2.1.7.9 1.1 2.1 1.1 3.7 0 2.1-.6 3.7-1.8 4.9-1.2 1.2-2.9 1.7-5.1 1.7-2.1 0-3.7-.6-4.9-1.8-.9-1.4-1.5-3.2-1.5-5.5z"/><path d="M533.4 433c4.2 0 7.7 3.4 7.7 7.7 0 4.2-3.4 7.7-7.7 7.7-4.2 0-7.7-3.4-7.7-7.7 0-4.2 3.4-7.7 7.7-7.7z" style="fill:none;stroke:#a7a9ac;stroke-width:1.3229;stroke-miterlimit:2.6131"/><path class="st5" d="M530 445.1v-8.2h3.6c.7 0 1.3.1 1.7.2.4.1.7.4.9.8.2.4.3.8.3 1.2 0 .6-.2 1.1-.6 1.5-.4.4-1 .7-1.7.8.3.1.5.3.7.4.3.3.6.7.9 1.1l1.4 2.2h-1.4l-1.1-1.7c-.3-.5-.6-.9-.8-1.1-.2-.3-.4-.4-.5-.5-.2-.1-.3-.2-.5-.2H531v3.6h-1v-.1zm1.1-4.6h2.3c.5 0 .9-.1 1.2-.2.3-.1.5-.3.6-.5.1-.2.2-.5.2-.7 0-.4-.1-.7-.4-1-.3-.3-.7-.4-1.3-.4h-2.6v2.8z"/></svg>