<svg version="1.1" id="Layer_1" xmlns="http://www.w3.org/2000/svg" x="0" y="0" width="384.4" height="116.1" style="enable-background:new 0 0 384.4 116.1" xml:space="preserve"><style>.st0{fill:#fff}.st1{fill:#ed1c24}</style><path class="st0" d="m31.4 109.4.6-.1v1.7c-1.6.3-3 .5-4.2.5-1.6 0-2.7-.4-3.3-1.3s-1-2.2-1-4.1c0-3.7 1.5-5.6 4.6-5.6 2.9 0 4.4 1.6 4.4 4.8l-.1 1.6h-6.5c0 .9.2 1.5.6 1.9.4.4 1 .6 2 .6s1.9.1 2.9 0zm-1.2-4.2c0-1-.2-1.8-.5-2.2s-.9-.6-1.7-.6c-.8 0-1.4.2-1.7.7-.4.4-.5 1.1-.6 2.1h4.5zM37.6 111.3h-2.3v-10.5h2.3v.7c1-.6 2-.9 2.9-.9 1.4 0 2.4.4 2.9 1.2.5.8.8 2.1.8 3.9v5.6h-2.3v-5.6c0-1.1-.1-1.9-.4-2.4-.2-.5-.7-.7-1.5-.7-.7 0-1.4.1-2.1.4l-.3.1v8.2zM54.8 109.4l.6-.1v1.7c-1.6.3-3 .5-4.2.5-1.6 0-2.7-.4-3.3-1.3s-1-2.2-1-4.1c0-3.7 1.5-5.6 4.6-5.6 2.9 0 4.4 1.6 4.4 4.8l-.1 1.6h-6.5c0 .9.2 1.5.6 1.9.4.4 1 .6 2 .6s1.9.1 2.9 0zm-1.2-4.2c0-1-.2-1.8-.5-2.2s-.9-.6-1.7-.6c-.8 0-1.4.2-1.7.7-.4.4-.5 1.1-.6 2.1h4.5zM58.7 111.3v-10.5H61v1.3c1.2-.8 2.4-1.3 3.6-1.5v2.3c-1.2.2-2.2.5-3.1.9l-.5.2v7.3h-2.3zM76 112.7c0 2.3-1.7 3.4-5 3.4-1.6 0-2.8-.2-3.5-.7-.8-.4-1.2-1.2-1.2-2.4 0-.5.1-1 .4-1.3.3-.4.7-.8 1.2-1.2-.5-.3-.7-.8-.7-1.5 0-.3.2-.7.6-1.4l.2-.3c-1-.6-1.5-1.7-1.5-3.1 0-1.3.4-2.2 1.1-2.8s1.8-.9 3.1-.9c.6 0 1.2.1 1.8.2l.3.1 3.3-.1v1.8l-1.7-.1c.4.5.6 1.1.6 1.7 0 1.4-.3 2.3-1 2.8s-1.8.8-3.2.8c-.4 0-.7 0-.9-.1-.2.5-.3.8-.3 1.1s.1.4.4.5c.3.1.9.2 1.9.2 1.7 0 2.8.2 3.4.7.4.6.7 1.4.7 2.6zm-7.5.2c0 .5.2.8.6 1.1.4.2 1.1.3 2 .3 1.7 0 2.5-.5 2.5-1.4 0-.5-.2-.9-.5-1-.3-.1-.9-.2-1.8-.2l-2.1-.1-.7.7c.1 0 0 .3 0 .6zm.7-7.3c.3.3.8.5 1.5.5s1.2-.2 1.5-.5c.3-.3.5-.8.5-1.4 0-.6-.2-1.1-.5-1.4-.3-.3-.8-.5-1.5-.5-1.3 0-1.9.6-1.9 1.9-.1.7.1 1.1.4 1.4zM77.5 100.8h2.2l2.2 8.5h.6l2.2-8.5H87l-4 15h-2.2l1.3-4.5h-1.8l-2.8-10.5z"/><path class="st1" d="M95.2 115.8V96.4h2.3v19.4h-2.3z"/><path class="st0" d="M110.6 100.5c.7 0 1.6.1 2.6.3l.5.1-.1 1.8c-1.1-.1-1.9-.2-2.5-.2-1.1 0-1.8.2-2.1.7-.4.5-.5 1.4-.5 2.7 0 1.3.2 2.2.5 2.7s1.1.8 2.2.8l2.5-.2.1 1.8c-1.4.3-2.5.4-3.2.4-1.6 0-2.7-.4-3.4-1.3s-1-2.3-1-4.2.3-3.4 1-4.2c.7-.7 1.9-1.2 3.4-1.2zM118.9 111.3h-2.3V96.4h2.3v4.9c1-.5 2-.8 2.9-.8 1.4 0 2.4.4 2.9 1.2.5.8.8 2.1.8 3.9v5.6h-2.3v-5.6c0-1.1-.1-1.9-.4-2.4-.2-.5-.7-.7-1.5-.7-.7 0-1.3.1-2 .3l-.3.1v8.4zM136.2 109.4l.6-.1v1.7c-1.6.3-3 .5-4.2.5-1.6 0-2.7-.4-3.3-1.3s-1-2.2-1-4.1c0-3.7 1.5-5.6 4.6-5.6 2.9 0 4.4 1.6 4.4 4.8l-.3 1.7h-6.5c0 .9.2 1.5.6 1.9s1 .6 2 .6 2 0 3.1-.1zm-1.3-4.2c0-1-.2-1.8-.5-2.2s-.9-.6-1.7-.6c-.8 0-1.4.2-1.7.7-.4.4-.5 1.1-.6 2.1h4.5zM142.3 111.3H140v-10.5h2.3v.7c1-.6 1.9-.9 2.7-.9 1.2 0 2.1.3 2.7 1 1.3-.7 2.5-1 3.8-1 1.3 0 2.1.4 2.7 1.2.5.8.8 2.1.8 3.9v5.6h-2.3v-5.6c0-1.1-.1-1.9-.3-2.4-.2-.5-.7-.7-1.4-.7-.6 0-1.3.1-2 .4l-.4.1c.1.3.2 1.2.2 2.7v5.4h-2.3v-5.4c0-1.2-.1-2.1-.3-2.6-.2-.5-.7-.7-1.5-.7-.7 0-1.4.1-2 .4l-.3.1v8.3zM158.2 99v-2.4h2.3V99h-2.3zm0 12.3v-10.5h2.3v10.5h-2.3zM167.8 100.5c.7 0 1.6.1 2.6.3l.5.1-.1 1.8c-1.1-.1-1.9-.2-2.5-.2-1.1 0-1.8.2-2.1.7-.4.5-.5 1.4-.5 2.7 0 1.3.2 2.2.5 2.7s1.1.8 2.2.8l2.5-.2.1 1.8c-1.4.3-2.5.4-3.2.4-1.6 0-2.7-.4-3.4-1.3s-1-2.3-1-4.2.3-3.4 1-4.2c.8-.7 1.9-1.2 3.4-1.2zM181.6 104v4.8c0 .3.1.5.2.7.1.1.4.2.7.3l-.1 1.7c-1.2 0-2.1-.3-2.8-.8-1.1.5-2.2.8-3.4.8-2.1 0-3.1-1.1-3.1-3.3 0-1.1.3-1.8.9-2.3.6-.5 1.4-.8 2.6-.9l2.7-.2v-.8c0-.6-.1-1-.4-1.2-.2-.2-.6-.3-1.1-.3-.9 0-2 .1-3.4.2h-.7l-.1-1.6c1.5-.4 2.9-.5 4.2-.5 1.3 0 2.2.3 2.8.8.7.5 1 1.4 1 2.6zm-4.7 2.6c-1 .1-1.4.6-1.4 1.6s.4 1.4 1.3 1.4c.7 0 1.4-.1 2.2-.3l.4-.1v-2.8l-2.5.2zM185.2 111.3V96.4h2.3v14.9h-2.3zM198.3 102.9c-1.7-.2-2.8-.3-3.6-.3s-1.3.1-1.5.3-.4.5-.4.8.2.6.5.8c.3.2 1.1.3 2.2.5s2 .5 2.5 1c.5.4.7 1.2.7 2.3 0 1.1-.4 1.9-1.1 2.4s-1.7.8-3.1.8c-.9 0-1.9-.1-3.2-.4l-.7-.1.1-1.9c1.7.2 2.9.3 3.6.3s1.3-.1 1.6-.3c.3-.2.5-.5.5-.9s-.2-.7-.5-.9-1-.3-2.2-.5c-1.1-.2-2-.5-2.5-.9s-.8-1.1-.8-2.2.4-1.9 1.1-2.4 1.7-.8 2.8-.8c.9 0 2 .1 3.3.3l.7.1v2z"/><path class="st1" d="M208.2 115.8V96.4h2.3v19.4h-2.3z"/><g><path class="st0" d="M220.5 111.3v-10.5h2.3v1.3c1.2-.8 2.4-1.3 3.6-1.5v2.3c-1.2.2-2.2.5-3.1.9l-.5.2v7.3h-2.3zM236.1 109.4l.6-.1v1.7c-1.6.3-3 .5-4.2.5-1.6 0-2.7-.4-3.3-1.3s-1-2.2-1-4.1c0-3.7 1.5-5.6 4.6-5.6 2.9 0 4.4 1.6 4.4 4.8l-.1 1.6h-6.5c0 .9.2 1.5.6 1.9s1 .6 2 .6 1.8.1 2.9 0zm-1.3-4.2c0-1-.2-1.8-.5-2.2s-.9-.6-1.7-.6c-.8 0-1.4.2-1.7.7-.4.4-.5 1.1-.6 2.1h4.5zM247.2 102.9c-1.7-.2-2.8-.3-3.6-.3s-1.3.1-1.5.3-.4.5-.4.8.2.6.5.8c.3.2 1.1.3 2.2.5s2 .5 2.5 1c.5.4.7 1.2.7 2.3 0 1.1-.4 1.9-1.1 2.4s-1.7.8-3.1.8c-.9 0-1.9-.1-3.2-.4l-.7-.1.1-1.9c1.7.2 2.9.3 3.6.3s1.3-.1 1.6-.3c.3-.2.5-.5.5-.9s-.2-.7-.5-.9-1-.3-2.2-.5c-1.1-.2-2-.5-2.5-.9s-.8-1.1-.8-2.2.4-1.9 1.1-2.4 1.7-.8 2.8-.8c.9 0 2 .1 3.3.3l.7.1v2zM250.9 101.9c.7-.9 1.9-1.4 3.6-1.4 1.7 0 2.9.5 3.6 1.4.7.9 1.1 2.3 1.1 4.1 0 1.8-.4 3.2-1 4.1-.7.9-1.9 1.4-3.6 1.4-1.7 0-2.9-.5-3.6-1.4s-1-2.3-1-4.1c-.1-1.8.2-3.2.9-4.1zm1.7 6.8c.3.6 1 .8 1.9.8.9 0 1.6-.3 1.9-.8.3-.6.5-1.5.5-2.8 0-1.3-.2-2.2-.5-2.7s-1-.8-1.9-.8c-.9 0-1.5.3-1.9.8-.3.5-.5 1.4-.5 2.7.1 1.4.2 2.3.5 2.8zM268.5 100.8h2.3v10.5h-2.3v-.7c-1 .6-2 .9-2.8.9-1.4 0-2.4-.4-2.9-1.2s-.7-2.1-.7-4.1v-5.5h2.3v5.5c0 1.3.1 2.1.3 2.5.2.4.7.7 1.5.7s1.4-.1 2.1-.4l.3-.1v-8.1zM274.2 111.3v-10.5h2.3v1.3c1.2-.8 2.4-1.3 3.6-1.5v2.3c-1.2.2-2.2.5-3.1.9l-.5.2v7.3h-2.3zM286.2 100.5c.7 0 1.6.1 2.6.3l.5.1-.1 1.8c-1.1-.1-1.9-.2-2.5-.2-1.1 0-1.8.2-2.1.7-.4.5-.5 1.4-.5 2.7 0 1.3.2 2.2.5 2.7s1.1.8 2.2.8l2.5-.2.1 1.8c-1.4.3-2.5.4-3.2.4-1.6 0-2.7-.4-3.4-1.3s-1-2.3-1-4.2.3-3.4 1-4.2c.7-.7 1.9-1.2 3.4-1.2zM299.6 109.4l.6-.1v1.7c-1.6.3-3 .5-4.2.5-1.6 0-2.7-.4-3.3-1.3s-1-2.2-1-4.1c0-3.7 1.5-5.6 4.6-5.6 2.9 0 4.4 1.6 4.4 4.8l-.1 1.6h-6.5c0 .9.2 1.5.6 1.9s1 .6 2 .6 1.8.1 2.9 0zm-1.3-4.2c0-1-.2-1.8-.5-2.2s-.9-.6-1.7-.6c-.8 0-1.4.2-1.7.7-.4.4-.5 1.1-.6 2.1h4.5zM310.7 102.9c-1.7-.2-2.8-.3-3.6-.3s-1.3.1-1.5.3-.4.5-.4.8.2.6.5.8c.3.2 1.1.3 2.2.5s2 .5 2.5 1c.5.4.7 1.2.7 2.3 0 1.1-.4 1.9-1.1 2.4s-1.7.8-3.1.8c-.9 0-1.9-.1-3.2-.4l-.7-.1.1-1.9c1.7.2 2.9.3 3.6.3s1.3-.1 1.6-.3c.3-.2.5-.5.5-.9s-.2-.7-.5-.9-1-.3-2.2-.5c-1.1-.2-2-.5-2.5-.9s-.8-1.1-.8-2.2.4-1.9 1.1-2.4 1.7-.8 2.8-.8c.9 0 2 .1 3.3.3l.7.1v2z"/></g><path class="st0" d="M201.4 30.6v.3c4-4.9 11.7-9.2 19-9.2v18.8c-1.1-.4-2.8-.6-4.8-.6-5 0-11.7 2.1-14.2 5.7v38.6H182v-61H194.3c3.9 0 7.1 3.2 7.1 7.1v.3zM234.5 84.1c-3.9 0-7.1-3.2-7.1-7.1V.1h19.4v84H234.5zM286.3 21.7c18 0 31.1 13.2 31.1 33.9v4.2h-43.3c1.1 5.7 6.4 10.8 15.5 10.8 5.4 0 11.5-2.1 14.9-5.2l8.2 12.1c-6 5.4-16.1 8.1-25.5 8.1-18.8 0-33.3-12.2-33.3-32 .1-17.6 13.4-31.9 32.4-31.9zm-12.4 25.5H299c-.5-4.3-3.7-10.5-12.6-10.5-8.5 0-11.8 6.1-12.5 10.5zM58.8 31.4 46 84.1H29.4c-3.2 0-6-2.2-6.8-5.1L0 0h23.3L36 56.1 50.4 0h16.7l14.4 56.1L93 5.5c.7-3.2 3.6-5.5 6.9-5.5h17.6l-24 84H71.6L58.8 31.4zM374.1 23.2h-5.2c-3.1 0-5.7 2-6.7 4.7L350 61.8l-13.7-38.6h-20.4L340 85s-.9 4.6-2.7 7c-1.7 2.3-4.2 4.7-8.6 4.7h-3.4v17h4.1c11.6-.3 20.8-3.3 25.7-16.1l29.2-74.3h-10.2z"/><g><path class="st0" d="M155.8 24.5v29.2c0 7.2-5.8 13-13 13h-29.2c5 11.2 16.2 19 29.2 19 17.6 0 31.9-14.3 31.9-31.9.1-13.1-7.7-24.3-18.9-29.3z"/><linearGradient id="SVGID_1_" gradientUnits="userSpaceOnUse" x1="144.285" y1="65.979" x2="125.82" y2="26.381"><stop offset=".2" style="stop-color:#ed1c24"/><stop offset=".9" style="stop-color:#f15b25"/></linearGradient><path d="M129.9 53.7c0-7.2 5.8-13 13-13s13 5.8 13 13V24.5c-4-1.8-8.3-2.7-13-2.7-17.6 0-31.9 14.3-31.9 31.9 0 4.6 1 9 2.7 13h29.2c-7.2-.1-13-5.9-13-13z" style="fill:url(#SVGID_1_)"/></g></svg>