<svg version="1.1" id="Layer_1" xmlns="http://www.w3.org/2000/svg" x="0" y="0" width="360" height="360" style="enable-background:new 0 0 360 360" xml:space="preserve"><style>.st0{fill:#231f20}</style><path class="st0" d="M44.5 164.9c-.7-1.6-1.4-2-2.8-2v-.4h6.2v.4c-1.1.1-1.4.2-1.4.7 0 .6.3 1.1 6.3 16.9l5.9-14.9c.3-.7.6-1.5.6-2 0-.7-.8-.6-1.5-.7v-.4h5.3l-.1.4c-1.6.1-2 .5-2.6 2l-7.7 18.3c-.2.4-.3.5-.4.5-.2 0-.3-.2-.4-.4l-7.4-18.4zm27.7 18.6H66v-.5h.1c1.7 0 1.7-1.1 1.7-3.3v-11.5c0-2.2-.3-2.5-1.9-2.6v-.4h5.7v.5c-1.8 0-1.8.5-1.8 3.3v10.8c0 2.7.1 3.3 2.4 3.3v.4zm19.4-3.4c-.9 2.1-3 3.6-6.4 3.6-5.7 0-9.3-3.9-9.3-9.4 0-5.1 3.6-9.5 9.6-9.5 1.8 0 3.5.4 5.4 1.1.3.1.4.2.4.4l-.2 3.7h-.4c0-1-.3-2.3-1.1-2.9-1.1-.9-2.4-1.4-4.5-1.4-4.9 0-7 3.7-7 8.1 0 4.4 2.4 8.9 7.3 8.9 2.8 0 4.6-1.1 5.6-2.8.2-.4.3-.5.5-.4.2.1.3.2.1.6zm19-11.9h-.4c-.2-1.4-.3-1.9-2.5-1.9h-3.5v13.5c0 2.8.3 3.1 2.3 3.1v.5h-6.2v-.4c1.6 0 1.8-.7 1.8-2.6v-14.1h-3c-2.4 0-2.9.1-3 1.9h-.5l-.1-3.1s2.5.2 3.5.2h8.3c1.4 0 2.6 0 3.3-.1v3zm12.4 15.6c-6.6 0-9.3-5.1-9.3-9.5 0-3.9 2.8-9.4 9.5-9.4 5.4 0 9.4 3.4 9.4 9-.1 5.4-3.8 9.9-9.6 9.9zm-.1-18.1c-4 0-7 2.6-7 7.9 0 5.6 3.4 9.2 7.7 9.2 2.2 0 6.6-1.2 6.6-8.2 0-5.8-3.5-8.9-7.3-8.9zm29.9 17.8h-2.1c-2.5 0-3.4-1.7-4.8-3.9-1.2-1.8-2.3-4.4-3.9-4.5l-1.1-.1c-.1 0-.2 0-.2.2v4.7c0 2.8.5 3 2.4 3v.5H137v-.4c1.4-.1 1.8-.3 1.8-3v-12.7c0-1.3-.8-1.7-2.1-1.7v-.5h6.3c3.4 0 5.7 1.5 5.7 4.5 0 2.4-2 4.4-4.1 5.1 1.8.7 3.3 4.8 4.8 6.4 1.5 1.6 2.1 1.8 3.4 1.8v.6zm-9.8-9.1c2.2 0 3.6-1.7 3.6-4.2 0-2.7-1.6-4.2-4.2-4.2-1.4 0-1.8 0-1.8.4v7.4c0 .3 0 .3.4.4.2.1 1.4.2 2 .2zm19.9 9.1h-6.2v-.5h.1c1.7 0 1.7-1.1 1.7-3.3v-11.5c0-2.2-.3-2.5-1.9-2.6v-.4h5.7v.5c-1.8 0-1.8.5-1.8 3.3v10.8c0 2.7.2 3.3 2.4 3.3v.4zm15.6-.5c.9 0 1.3-.3 1.3-.6s0-.4-.3-1l-1.9-5c0-.1-.1-.2-.2-.2h-5.2c-.1 0-.2.1-.2.2l-1.3 3.9c-.1.4-.5 1.4-.5 1.9s.5.7 1.5.8v.5h-5.3l.1-.4c1.6-.1 2.1-.7 2.6-2.2l5.5-15.1c.3-.8.4-.9.5-.9.1 0 .2.1.5.9l5.8 14.9c.6 1.5 1.2 2.4 2.8 2.4l.1.5h-5.8v-.6zm-1.3-7.7-2.3-6.6c-.1-.2-.1-.3-.2-.3s-.1.1-.2.3l-2.1 6.5v.1c0 .1 0 .1.1.1l4.7-.1c0 .1 0 .1 0 0zm9.9-10c0 1.6-1.2 2.7-2.9 3v-.3c1.4-.2 2-1.1 2-1.7 0-.6-.3-1-1.1-1.4-.5-.3-.8-.5-.8-1s.5-.9 1-.9c.9 0 1.8.9 1.8 2.3zm8.5 18.4c-1.5 0-2.8-.1-4.4-1v-3.5h.5c.1 2.7 1.9 3.6 4.1 3.6 2.5 0 3.8-1.6 3.8-3.1 0-1.9-1.2-3.1-3.8-4.8-3.5-2.2-4.4-3.8-4.4-5.6 0-2.5 2-4.5 5.1-4.5 1.7 0 2.9.3 4 .8v2.9h-.5c-.1-.5-.2-1-.5-1.5-.2-.2-.9-1.3-3.3-1.3-1.9 0-3.2 1.2-3.2 2.9 0 1.6 1.2 2.6 4.1 4.5 2.8 1.9 4.2 3.7 4.2 5.6 0 3-2.2 5-5.7 5zm20.8-1.1v-3.7h.5c.2 3.1 2.3 4.1 4.9 4.1 2.9 0 4.5-1.9 4.5-3.8 0-2.2-1.4-3.6-4.4-5.4-4-2.5-4.9-4.5-4.9-6.3 0-2.9 2.2-5 6-5 2 0 4.4.8 4.4.8v3.1h-.5c-.1-.5-.2-1.1-.6-1.7-.2-.3-1.1-1.5-3.9-1.5-2.2 0-3.9 1.4-3.9 3.5 0 1.9 1.5 3.1 4.7 5.3 3.2 2.1 4.7 4.1 4.7 6.3 0 5.3-5.3 5.6-6.6 5.6-3.2-.1-4.9-1.3-4.9-1.3zm28.5-2.4-.1 3.2h-12.1v-.4c1.3 0 1.8-.3 1.8-2.7v-13.1c0-1.2-.8-1.6-2.1-1.6v-.5c1 .1 2.4.1 3.7.1h5.2c.5 0 3-.1 3-.1l-.1 3.1h-.5c-.1-1.9-1.2-2.1-3.4-2.1h-3.5c-.3 0-.3.1-.3.3v6.6c0 .1 0 .3.2.3h4.3c.8 0 1.1-.3 1.3-1h.5v3.8h-.5c-.1-.9-.1-1.7-1.4-1.8-.7-.1-3.7-.1-4.1-.1-.1 0-.2.1-.2.2v6.9c.1 1.3.1 1.3 3.2 1.3 1 0 3.2 0 3.7-.3.7-.4 1-1 1-2.1h.4zm19.5-.1c-.9 2.1-3 3.6-6.4 3.6-5.7 0-9.3-3.9-9.3-9.4 0-5.1 3.6-9.5 9.6-9.5 1.8 0 3.5.4 5.4 1.1.3.1.4.2.4.4l-.2 3.7h-.4c0-1-.3-2.3-1.1-2.9-1.1-.9-2.4-1.4-4.5-1.4-4.9 0-7 3.7-7 8.1 0 4.4 2.4 8.9 7.3 8.9 2.8 0 4.6-1.1 5.6-2.8.2-.4.3-.5.5-.4.2.1.2.2.1.6zm20.1 3.4h-2.1c-2.5 0-3.4-1.7-4.8-3.9-1.2-1.8-2.3-4.4-3.9-4.5l-1.1-.1c-.1 0-.2 0-.2.2v4.7c0 2.8.5 3 2.4 3v.5h-6.1v-.4c1.4-.1 1.8-.3 1.8-3v-12.7c0-1.3-.8-1.7-2.1-1.7v-.5h6.3c3.4 0 5.7 1.5 5.7 4.5 0 2.4-2 4.4-4.1 5.1 1.8.7 3.3 4.8 4.8 6.4 1.5 1.6 2.1 1.8 3.4 1.8v.6zm-9.8-9.1c2.2 0 3.6-1.7 3.6-4.2 0-2.7-1.6-4.2-4.2-4.2-1.4 0-1.8 0-1.8.4v7.4c0 .3 0 .3.4.4.1.1 1.3.2 2 .2zm24.8 5.8v3.2h-12.1v-.4c1.3 0 1.8-.3 1.8-2.7v-13.1c0-1.2-.8-1.6-2.1-1.6v-.5c1 .1 2.4.1 3.7.1h5.2c.5 0 3-.1 3-.1v3.1h-.5c-.1-1.9-1.2-2.1-3.4-2.1h-3.5c-.3 0-.3.1-.3.3v6.6c0 .1 0 .3.1.3h4.3c.8 0 1.1-.3 1.3-1h.5v3.8h-.5c-.1-.9-.1-1.7-1.4-1.8-.7-.1-3.7-.1-4.1-.1-.1 0-.2.1-.2.2v6.9c0 1.3.1 1.3 3.2 1.3 1 0 3.2 0 3.7-.3.7-.4 1-1 1-2.1h.3zm18.4-12h-.4c-.1-1.4-.2-1.9-2.5-1.9h-3.5v13.5c0 2.8.3 3.1 2.3 3.1v.5h-6.2v-.4c1.6 0 1.8-.7 1.8-2.6v-14.1h-3c-2.4 0-2.9.1-3 1.9h-.5l-.1-3.1s2.5.2 3.5.2h8.3c1.4 0 2.6 0 3.3-.1v3zM118.5 198.3h-2.3c-.1 0-.2 0-.2-.1 0 0 0-.1.1-.1h.3c.2 0 .3-.3.3-.6.1-.4.1-1.2.1-2.2v-4c0-.3-.1-.5-.4-.6h-.3s-.1 0-.1-.1 0-.1.2-.1h2.2c1.6 0 2 1 2 1.5 0 .8-.5 1.5-1 1.8.7.2 1.8 1 1.8 2.1-.2 1.3-1 2.4-2.7 2.4zm-.4-7.3c-.1 0-.3 0-.5.1-.1 0-.1.1-.1.1v2.7c0 .1 0 .1.1.1h.6c.6 0 .7 0 .9-.3.2-.2.4-.6.4-1 0-.9-.4-1.7-1.4-1.7zm1.1 3.5c-.2-.2-.6-.3-.9-.3h-.8s-.1 0-.1.1V197.1c0 .6.1.7.3.8.2.1.4.1.7.1.8 0 1.6-.4 1.6-1.6.1-.7-.1-1.4-.8-1.9zM126.2 198.4c-2.7 0-3.9-2.1-3.9-3.9 0-1.6 1.2-3.9 3.9-3.9 2.3 0 3.9 1.4 3.9 3.8 0 2.1-1.5 4-3.9 4zm-.1-7.5c-1.7 0-2.9 1.1-2.9 3.3 0 2.3 1.4 3.8 3.2 3.8.9 0 2.8-.5 2.8-3.4 0-2.4-1.5-3.7-3.1-3.7zM139.1 190.8h-.2c-.3.1-.4.3-.4.9v5.9c0 .7 0 .7-.1.7s-.3-.3-.7-.7c-1.1-1.3-1.6-1.9-2.7-3.1-1.1-1.3-2.3-2.6-2.6-2.9l.1 5.3c0 .8.1 1.1.4 1.2.2.1.4.1.5.1.1 0 .1 0 .1.1s-.1.1-.2.1h-2.1c-.1 0-.2 0-.2-.1 0 0 0-.1.1-.1s.3 0 .4-.1c.3-.1.3-.4.3-1.3v-5.3c0-.3-.1-.5-.4-.6h-.3s-.1 0-.1-.1.1-.1.2-.1h1.6c.4.5 1.6 2 2.8 3.3 1 1.1 1.9 2.2 2.4 2.8l-.1-5c0-.7-.1-.9-.4-1h-.5c-.1 0-.1 0-.1-.1s.1-.1.2-.1h1.9c.1 0 .2 0 .2.1.1.1 0 .1-.1.1zM146.9 197.2c-.4.5-1.3 1.2-3 1.2-.9 0-2.1-.1-2.2-.1h-1c-.1 0-.2 0-.2-.1 0 0 0-.1.1-.1h.3c.2 0 .3-.3.3-.6.1-.4.1-1.2.1-2.2v-4c0-.3-.1-.5-.4-.6h-.3s-.1 0-.1-.1 0-.1.2-.1h2.5c1 0 2.8-.1 4 1.1.5.5 1 1.4 1 2.5-.2 1.5-.8 2.5-1.3 3.1zm-.8-5.1c-.9-1-2.1-1.1-3.3-1.1-.2 0-.6 0-.7.1-.1 0-.1.1-.1.2v5.5c0 .3 0 .7.1.8.1.2.5.4 1.7.4.9 0 1.8-.3 2.4-.9.5-.5.8-1.5.8-2.4.1-1.3-.5-2.1-.9-2.6zM155.9 198c-.5.3-1.1.4-1.6.4s-1-.1-1.3-.2l-.1-.1c-.1 0-.1 0-.1.1s-.1.1-.1.1c-.1 0-.1 0-.1-.1v-1.5c0-.1 0-.2.1-.2s.1 0 .1.1 0 .2.1.4c.2.7.9 1 1.7 1 1.1 0 1.6-.7 1.6-1.3 0-.8-.5-1.3-1.6-1.9-1.5-.9-1.8-1.6-1.8-2.3 0-1.1.8-1.9 2.2-1.9.4 0 .8.1 1.1.1.2.1.2.1.3.1.1 0 .1-.1.1-.1.1 0 .1.1.1.1v1.1c0 .2 0 .2-.1.2s-.1-.1-.1-.1c0-.1-.1-.4-.2-.5-.1-.1-.4-.5-1.4-.5-.8 0-1.4.5-1.4 1.2s.5 1.1 1.7 1.9c1.2.8 1.7 1.5 1.8 2.3-.1.3-.3 1.1-1 1.6zM163.9 191.8c0 .1 0 .1-.1.1s-.1 0-.1-.2v-.1c0-.3-.3-.6-1.2-.6h-1.3v4.2c0 1 0 1.8.1 2.2 0 .3.1.5.4.6h.5c.1 0 .1 0 .1.1s-.1.1-.2.1h-2.2c-.1 0-.2 0-.2-.1 0 0 0-.1.1-.1h.3c.2 0 .3-.3.3-.6.1-.4.1-1.2.1-2.2V191h-1.3c-.8 0-1.2.3-1.2.6v.1c0 .1 0 .2-.1.2 0 0-.1 0-.1-.1v-1.1c0-.1 0-.1.1-.1s.5.1 1 .1h4.1c.5 0 .9-.1 1-.1.1 0 .1.1.1.1-.1.3-.2 1-.2 1.1zM171.3 198.2h-.5c-.6 0-.9-.1-1-.2-.4-.3-.7-.7-1.1-1.4-.3-.5-.5-.9-.7-1.1-.3-.4-.6-.6-.9-.6h-.4c-.1 0-.1 0-.1.1 0 0 0 2.1.1 2.7 0 .3.1.5.4.6h.5c.1 0 .1 0 .1.1s-.1.1-.2.1h-2.1c-.1 0-.2 0-.2-.1 0 0 0-.1.1-.1h.3c.2 0 .3-.3.3-.6.1-.4.1-1.2.1-2.2v-4c0-.3-.1-.5-.4-.6h-.3s-.1 0-.1-.1.1-.1.2-.1h2.3c.6 0 1.3.1 1.8.4.3.2.7.7.7 1.4s-.4 1.7-1.7 2.2c.4.2.7.6 1 1.2.3.6.7 1.2 1 1.5.5.6.7.7 1.1.7.3 0 .3 0 .3.1h-.6zm-4.1-7.2c-.3 0-.6 0-.7.1-.1 0-.1.1-.1.1v3.1c0 .1 0 .1.1.2.2.1.5.1.8.1.2 0 .7 0 .9-.2.3-.2.7-.7.7-1.4 0-1.3-.6-2-1.7-2zM176.7 198c-.1.3-.2.3-.5.3-1.5 0-2.7-.1-3-.1h-1c-.1 0-.2 0-.2-.1 0 0 0-.1.1-.1h.3c.2 0 .3-.3.3-.6.1-.4.1-1.2.1-2.2v-4c0-.3-.1-.5-.4-.6h-.3s-.1 0-.1-.1.1-.1.2-.1h3.9c.2 0 .4 0 .4-.1.1 0 .1-.1.1-.1v.1c0 .1-.1.2-.1.5 0 .1 0 .5-.1.7 0 .1 0 .1-.1.1s-.1-.1-.1-.1c0-.1 0-.2-.1-.4s-.5-.3-1.2-.3h-1.4s-.1 0-.1.1v2.8c0 .1 0 .1.1.1h2.1c.2 0 .4 0 .5-.1.1-.1.1-.1.2-.1 0 0 .1 0 .1.1s-.1.2-.1.6v.6c0 .1 0 .2-.1.2s-.1 0-.1-.1v-.3c0-.1-.1-.3-.5-.4h-1.9c-.1 0-.1 0-.1.1v2.9c0 .5.1.5 1.2.5.3 0 1.2 0 1.5-.1.3-.1.4-.3.5-.7 0-.1 0-.2.1-.2s.1.1.1.2c-.1.1-.2.8-.3 1zM182.9 198c-.1.3-.2.3-.5.3-1.5 0-2.7-.1-3-.1h-1c-.1 0-.2 0-.2-.1 0 0 0-.1.1-.1h.3c.2 0 .3-.3.3-.6.1-.4.1-1.2.1-2.2v-4c0-.3-.1-.5-.4-.6h-.3s-.1 0-.1-.1.1-.1.2-.1h3.9c.2 0 .4 0 .4-.1.1 0 .1-.1.1-.1v.1c0 .1-.1.2-.1.5 0 .1 0 .5-.1.7 0 .1 0 .1-.1.1s-.1-.1-.1-.1c0-.1 0-.2-.1-.4s-.5-.3-1.2-.3h-1.4s-.1 0-.1.1v2.8c0 .1 0 .1.1.1h2.1c.2 0 .4 0 .5-.1.1-.1.1-.1.2-.1 0 0 .1 0 .1.1s-.1.2-.1.6v.6c0 .1 0 .2-.1.2s-.1 0-.1-.1v-.3c0-.1-.1-.3-.5-.4h-1.9c-.1 0-.1 0-.1.1v2.9c0 .5.1.5 1.2.5.3 0 1.2 0 1.5-.1s.4-.3.5-.7c0-.1 0-.2.1-.2s.1.1.1.2c-.1.1-.2.8-.3 1zM190.2 191.8c0 .1 0 .1-.1.1s-.1 0-.1-.2v-.1c0-.3-.3-.6-1.2-.6h-1.3v4.2c0 1 0 1.8.1 2.2 0 .3.1.5.4.6h.5c.1 0 .1 0 .1.1s-.1.1-.2.1h-2.2c-.1 0-.2 0-.2-.1 0 0 0-.1.1-.1h.3c.2 0 .3-.3.3-.6.1-.4.1-1.2.1-2.2V191h-1.3c-.8 0-1.2.3-1.2.6v.1c0 .1 0 .2-.1.2 0 0-.1 0-.1-.1v-1.1c0-.1 0-.1.1-.1s.5.1 1 .1h4.1c.5 0 .9-.1 1-.1.1 0 .1.1.1.1-.2.3-.2 1-.2 1.1zM199.4 198c-.1.2-.1.3-.6.3-1.4 0-2.4-.1-3-.1h-1c-.1 0-.2 0-.2-.1 0 0 0-.1.1-.1h.3c.2 0 .3-.3.3-.6.1-.4.1-1.2.1-2.2v-4c0-.3-.1-.5-.4-.6h-.3s-.1 0-.1-.1 0-.1.2-.1h2.2c.1 0 .2 0 .2.1 0 0 0 .1-.1.1h-.3c-.3.1-.4.2-.4.6V197c0 .7 0 .8 1.3.8h.5c.5 0 1 0 1.2-.3l.3-.6c0-.1 0-.1.1-.1s.1 0 .1.2c-.3.1-.4.7-.5 1zM203.9 198.4c-2.7 0-3.9-2.1-3.9-3.9 0-1.6 1.2-3.9 3.9-3.9 2.3 0 3.9 1.4 3.9 3.8.1 2.1-1.4 4-3.9 4zm0-7.5c-1.7 0-2.9 1.1-2.9 3.3 0 2.3 1.4 3.8 3.2 3.8.9 0 2.8-.5 2.8-3.4 0-2.4-1.5-3.7-3.1-3.7zM216.9 190.8h-.2c-.3.1-.4.3-.4.9v5.9c0 .7 0 .7-.1.7s-.3-.3-.7-.7c-1.1-1.3-1.6-1.9-2.7-3.1-1.1-1.3-2.3-2.6-2.6-2.9l.1 5.3c0 .8.1 1.1.4 1.2.2.1.4.1.5.1.1 0 .1 0 .1.1s-.1.1-.2.1H209c-.1 0-.2 0-.2-.1 0 0 0-.1.1-.1s.3 0 .4-.1c.3-.1.3-.4.3-1.3v-5.3c0-.3-.1-.5-.4-.6h-.3s-.1 0-.1-.1.1-.1.2-.1h1.6c.4.5 1.6 2 2.8 3.3 1 1.1 1.9 2.2 2.4 2.8l-.1-5c0-.7-.1-.9-.4-1h-.5c-.1 0-.1 0-.1-.1s.1-.1.2-.1h1.9c.1 0 .2 0 .2.1s0 .1-.1.1zM224.7 197.2c-.4.5-1.3 1.2-3 1.2-.9 0-2.1-.1-2.2-.1h-1c-.1 0-.2 0-.2-.1 0 0 0-.1.1-.1h.3c.2 0 .3-.3.3-.6.1-.4.1-1.2.1-2.2v-4c0-.3-.1-.5-.4-.6h-.3s-.1 0-.1-.1 0-.1.2-.1h2.5c1 0 2.8-.1 4 1.1.5.5 1 1.4 1 2.5-.2 1.5-.8 2.5-1.3 3.1zm-.8-5.1c-.9-1-2.1-1.1-3.3-1.1-.2 0-.6 0-.7.1-.1 0-.1.1-.1.2v5.5c0 .3 0 .7.1.8.1.2.5.4 1.7.4.9 0 1.8-.3 2.4-.9.5-.5.8-1.5.8-2.4.1-1.3-.5-2.1-.9-2.6zM230.7 198.4c-2.7 0-3.9-2.1-3.9-3.9 0-1.6 1.2-3.9 3.9-3.9 2.3 0 3.9 1.4 3.9 3.8.1 2.1-1.5 4-3.9 4zm0-7.5c-1.7 0-2.9 1.1-2.9 3.3 0 2.3 1.4 3.8 3.2 3.8.9 0 2.8-.5 2.8-3.4 0-2.4-1.5-3.7-3.1-3.7zM243.7 190.8h-.2c-.3.1-.4.3-.4.9v5.9c0 .7 0 .7-.1.7s-.3-.3-.7-.7c-1.1-1.3-1.6-1.9-2.7-3.1-1.1-1.3-2.3-2.6-2.6-2.9l.1 5.3c0 .8.1 1.1.4 1.2.2.1.4.1.5.1.1 0 .1 0 .1.1s-.1.1-.2.1h-2.1c-.1 0-.2 0-.2-.1 0 0 0-.1.1-.1s.3 0 .4-.1c.3-.1.3-.4.3-1.3v-5.3c0-.3-.1-.5-.4-.6h-.3s-.1 0-.1-.1.1-.1.2-.1h1.6c.4.5 1.6 2 2.8 3.3 1 1.1 1.9 2.2 2.4 2.8l-.1-5c0-.7-.1-.9-.4-1h-.5c-.1 0-.1 0-.1-.1s.1-.1.2-.1h1.9c.1 0 .2 0 .2.1s0 .1-.1.1z"/></svg>