<svg version="1.1" id="Layer_1" xmlns="http://www.w3.org/2000/svg" x="0" y="0" width="612" height="792" style="enable-background:new 0 0 612 792" xml:space="preserve"><style>.st2{fill:#f16d9a}</style><path style="fill:none" d="M504.3 422.6h49.3v6.7h-49.3z"/><path d="M49.3 373.5c0-36.3 29.5-65.8 65.8-65.8 7.3 0 14.4 1.3 20.9 3.5-10.5-4.5-22.1-7.1-34.2-7.1-47.7 0-86.3 38.6-86.3 86.3 0 46.6 37 84.5 83.3 86.1v-39.4c-28.5-7.2-49.5-32.9-49.5-63.6z" style="fill:#fac8cb"/><path class="st2" d="M123.1 433.8c-35 5.2-67.5-19-72.7-54-1-7.1-.8-14 .4-20.7-2.9 10.8-3.7 22.2-2 34 6.8 45.9 49.5 77.6 95.4 70.9 32.2-4.7 57.4-27.2 67.2-56h-45.8c-9.8 13.4-24.7 23.1-42.5 25.8zM245.1 312h1.2v154.8h-1.2z"/><path d="M272.5 372.3c0-6-.3-7.5-4-7.8l-2.6-.2c-.7-.5-.6-1.7.1-2 4.4-.4 10-.6 17.6-.6 5.2 0 10.1.4 13.7 2.3 3.5 1.7 6.2 4.9 6.2 10.1 0 5.8-3.4 8.8-8.3 11 0 .8.7 1 1.6 1.2 4.4.8 11 4.8 11 13.4 0 9.3-7 15.6-21.8 15.6-2.4 0-6.4-.2-9.8-.2-3.6 0-6.4.2-9.4.2-.5-.2-.7-1.5-.2-2l1.5-.2c4.3-.7 4.5-1.6 4.5-10.1v-30.7zm6.7 10.7c0 2.3.1 2.4 4.3 2.3 8.3-.3 12.8-2.7 12.8-10.3 0-7.9-6-10.9-12.2-10.9-1.8 0-3 .2-3.8.5-.8.2-1.1.6-1.1 2.1V383zm0 18.6c0 2.9.2 7 1.7 8.8 1.6 1.9 4 2.3 6.5 2.3 7.3 0 12.8-3.2 12.8-11.3 0-6.4-3.3-13.8-16.3-13.8-4.4 0-4.7.5-4.7 2.1v11.9zM321.9 373.9c0-7.6-.2-9-3.6-9.4l-2.6-.3c-.6-.4-.6-1.7.1-2 4.6-.4 10.2-.6 18.2-.6 5.1 0 9.9.4 13.7 2.4 3.9 2 6.8 5.6 6.8 11.3 0 7.6-6.1 11.8-10.2 13.4-.4.5 0 1.3.4 1.9 6.5 10.4 10.9 16.8 16.4 21.4 1.4 1.2 3.4 2.1 5.6 2.3.4.2.5.8.1 1.1-.7.2-2 .4-3.6.4-7 0-11.1-2-16.9-10.1-2.1-3-5.5-8.5-8-12.2-1.2-1.8-2.5-2.6-5.8-2.6-3.7 0-3.8.1-3.8 1.8v10.1c0 8.5.2 9.4 4.9 10.1l1.7.2c.5.4.3 1.8-.2 2-3.7-.2-6.5-.2-9.7-.2-3.4 0-6.4.1-10.2.2-.5-.2-.7-1.4-.2-2l2-.2c4.7-.6 4.9-1.6 4.9-10.1v-28.9zm6.7 11.5c0 1.4 0 2.3.2 2.7.2.2 1.5.4 5.6.4 2.9 0 6.1-.3 8.4-2.1 2.2-1.7 4.1-4.5 4.1-10 0-6.4-4-12.4-13.1-12.4-5.1 0-5.3.3-5.3 2.6v18.8z"/><path d="M374.7 373.9c0-8.4-.2-9.6-5-10.1l-1.3-.2c-.5-.3-.3-1.8.2-2 3.5.2 6.3.2 9.6.2h15.4c5.2 0 10.1 0 11-.2.5 1.4 1 7.2 1.3 10.7-.3.5-1.6.6-2 .2-1.2-3.8-2-6.6-6.2-7.6-1.7-.4-4.3-.5-7.9-.5h-5.9c-2.5 0-2.5.2-2.5 3.2v16.1c0 2.3.2 2.3 2.7 2.3h4.7c3.4 0 6-.2 7-.5s1.6-.8 2-2.8l.7-3.3c.4-.5 1.8-.5 2.1.1 0 1.9-.3 5.1-.3 8.1 0 2.9.3 6 .3 7.7-.3.6-1.7.6-2.1.1l-.7-3.1c-.3-1.4-.9-2.7-2.5-3.1-1.1-.3-3.1-.4-6.3-.4h-4.7c-2.5 0-2.7.1-2.7 2.2v11.3c0 4.3.2 7 1.6 8.4 1 1 2.7 1.9 9.9 1.9 6.3 0 8.7-.3 10.5-1.2 1.5-.8 3.7-3.6 5.8-7.8.6-.4 1.7-.2 2 .6-.6 2.8-2.6 9-3.7 11.2-7.4-.2-14.6-.2-21.9-.2h-7.4c-3.5 0-6.3.1-11.1.2-.5-.2-.7-1.5-.2-2l2.7-.2c4.7-.4 5.1-1.6 5.1-10.1v-29.2zM445.3 396.2c-.6-1.8-.9-2-3.4-2h-12.3c-2 0-2.5.2-3.1 1.9l-2.9 8.4c-1.2 3.6-1.8 5.8-1.8 6.7 0 1 .4 1.4 2.4 1.6l2.7.2c.6.4.6 1.7-.2 2-2.1-.2-4.7-.2-8.5-.2-2.7 0-5.6.2-7.9.2-.5-.3-.7-1.6-.2-2l2.7-.2c2-.2 3.8-1 4.9-3.9 1.5-3.7 3.8-8.9 7.2-17.9l8.3-21.7c1.1-2.9 1.6-4.4 1.4-5.7 2-.6 3.4-2 4.3-3.1.5 0 1.1.2 1.2.7 1.1 3.5 2.4 7.2 3.6 10.8l11.2 32.4c2.4 6.9 3.4 8.1 7 8.5l2.2.2c.6.4.4 1.7 0 2-3.4-.2-6.2-.2-9.9-.2-3.9 0-7 .2-9.4.2-.7-.3-.7-1.6-.2-2l2.4-.2c1.7-.2 2.9-.6 2.9-1.4 0-.9-.4-2.3-1.1-4.3l-3.5-11zm-16.2-7.1c-.7 1.9-.6 1.9 1.7 1.9h10.1c2.4 0 2.5-.3 1.8-2.5l-4.4-13.1c-.7-1.9-1.4-4.1-1.9-5.1h-.2c-.2.4-1.1 2.3-2 4.7l-5.1 14.1zM481.2 416.2c-6.9 0-11.2-2.1-12.8-3-1-1.8-2-7.5-2.2-11.3.4-.6 1.6-.7 2-.2 1.2 4.1 4.6 12 14.1 12 6.9 0 10.2-4.4 10.2-9.3 0-3.5-.7-7.5-6.7-11.3l-7.8-5c-4.1-2.7-8.8-7.2-8.8-13.8 0-7.6 6.1-13.8 16.7-13.8 2.5 0 5.5.5 7.6 1 1.1.3 2.2.5 2.9.5.7 1.9 1.5 6.4 1.5 9.8-.3.5-1.6.7-2 .2-1.1-3.9-3.3-9.1-11.1-9.1-8 0-9.7 5.2-9.7 8.9 0 4.7 3.9 8 7 9.9l6.5 4c5.2 3.1 10.2 7.8 10.2 15.5-.2 9-6.9 15-17.6 15zM533 402.8c0 8.5.2 9.7 4.9 10.1l2.6.2c.5.3.3 1.8-.2 2-4.7-.2-7.4-.2-10.7-.2s-6.1.1-11.4.2c-.5-.2-.7-1.6 0-2l2.9-.2c4.7-.4 5.1-1.6 5.1-10.1v-36c0-2.5 0-2.6-2.5-2.6h-4.5c-3.5 0-8 .2-10.1 2-2 1.8-2.8 3.5-3.7 5.6-.7.5-1.8.1-2.1-.6 1.3-3.6 2.5-8.8 3.1-12 .2-.2 1.3-.2 1.6 0 .5 2.6 3.2 2.5 7 2.5h33.1c4.4 0 5.2-.2 6.4-2.3.4-.2 1.3-.1 1.5.2-.9 3.3-1.5 9.8-1.2 12.2-.3.6-1.7.6-2.1.2-.2-2-.8-5-2-5.9-1.9-1.4-5-2-9.5-2h-5.8c-2.5 0-2.4.1-2.4 2.7v36zM90.8 343.3c-2.2-5.4-3.7-7.5-7.8-7.9l-1.7-.2c-.7-.6-.6-1.9.2-2.4 2.8.2 5.9.3 10.1.3 4.3 0 7.7-.1 11.7-.3.7.4.9 1.8.2 2.4l-1.5.2c-3.7.5-4.5 1.1-4.6 1.8.2 1 1.8 6.2 4.8 13.6 4.5 11.2 8.9 22.4 13.8 33.4 3-6.4 7.1-16.4 9.3-21.5 2.8-6.6 7.4-17.5 9-21.7.8-2 .9-3.1.9-3.8s-1-1.5-4.4-1.8l-1.7-.2c-.7-.6-.5-2 .2-2.4 2.7.2 6.4.3 10.1.3 3.2 0 6.2-.1 9.4-.3.7.4.7 1.9.2 2.4l-2.9.2c-2.3.2-3.8 1.4-5 3.4-2.7 4.6-6.5 12.4-10.9 22.3L125 373c-3.9 8.9-8.4 20.2-10.1 25.3-.3.2-.7.3-1.1.3-.5 0-1-.1-1.5-.3-1.1-4.1-2.8-8.8-4.5-12.9l-17-42.1zM159 347.6c0-9.2-.3-10.9-4.3-11.3l-3.1-.4c-.7-.5-.7-2 .1-2.4 5.4-.5 12.1-.8 21.6-.8 6 0 11.7.5 16.2 2.9 4.6 2.4 8 6.8 8 13.6 0 9.2-7.3 14.2-12.1 16.2-.5.6 0 1.5.5 2.3 7.8 12.5 12.9 20.2 19.5 25.8 1.6 1.5 4.1 2.5 6.7 2.7.5.2.6 1 .1 1.4-.9.3-2.4.5-4.3.5-8.2 0-13.2-2.4-20.1-12.2-2.5-3.6-6.5-10.3-9.5-14.6-1.5-2.1-3-3.1-6.9-3.1-4.4 0-4.6.1-4.6 2.1v12.2c0 10.2.2 11.3 5.8 12.1l2 .3c.6.5.4 2.1-.2 2.4-4.4-.2-7.7-.3-11.5-.3-4.1 0-7.6.1-12.1.3-.6-.3-.8-1.7-.2-2.4l2.4-.3c5.6-.7 5.8-1.9 5.8-12.1v-34.9zm8 13.9c0 1.7 0 2.8.3 3.2.3.3 1.7.5 6.7.5 3.5 0 7.2-.4 10-2.5 2.6-2 4.8-5.4 4.8-12 0-7.7-4.7-14.9-15.5-14.9-6 0-6.3.4-6.3 3.1v22.6zM221.5 347.7c0-10.3-.2-11.9-5.9-12.4l-2.4-.2c-.6-.4-.4-2.1.2-2.4 4.8.2 8.1.3 12.2.3 3.9 0 7.2-.1 12-.3.6.3.8 2 .2 2.4l-2.4.2c-5.7.5-5.9 2.1-5.9 12.4v34.5c0 10.3.2 11.6 5.9 12.3l2.4.3c.6.4.4 2.1-.2 2.4-4.8-.2-8.1-.3-12-.3-4.1 0-7.4.1-12.2.3-.6-.3-.8-1.8-.2-2.4l2.4-.3c5.7-.7 5.9-2 5.9-12.3v-34.5zM266.4 427.3c5.9-4.6 13.4-6.8 21.7-6.8 4.3 0 10.5.9 14.2 1.9 1 .2 1.5.4 2.3.3.1 1.9.5 6.9 1.1 11.8-.4.6-1.6.6-2.2.2-1.2-5.5-4.8-11.7-16.5-11.7-12.3 0-22.8 7.8-22.8 24.5 0 16.9 10.7 26.2 23.9 26.2 10.4 0 15-6.8 16.8-11.5.6-.4 1.8-.2 2.1.3-.6 4.2-2.7 9.5-3.9 11-1 .2-1.9.5-2.8.8-1.8.6-7.6 1.9-12.7 1.9-7.2 0-14.2-1.4-20-5.4-6.4-4.4-11.4-11.7-11.4-22.1.1-9 4.1-16.6 10.2-21.4zM319.1 433.9c0-8.4-.2-9.6-4.9-10.1l-1.3-.2c-.5-.3-.3-1.8.2-2 3.5.2 6.2.2 9.5.2h15.1c5.2 0 9.9 0 10.9-.2.5 1.4 1 7.2 1.3 10.7-.3.5-1.6.6-2 .2-1.2-3.8-1.9-6.6-6.1-7.6-1.7-.4-4.3-.5-7.8-.5h-5.8c-2.4 0-2.4.2-2.4 3.2v16.1c0 2.3.2 2.3 2.7 2.3h4.7c3.4 0 5.9-.2 6.8-.5s1.5-.8 1.9-2.8l.6-3.3c.4-.5 1.8-.5 2.1.1 0 1.9-.3 5.1-.3 8.1 0 2.9.3 6 .3 7.7-.3.6-1.7.6-2.1.1l-.7-3.1c-.3-1.4-.9-2.7-2.5-3.1-1.1-.3-3.1-.4-6.2-.4h-4.7c-2.4 0-2.7.1-2.7 2.2v11.3c0 4.3.2 7 1.5 8.4 1 1 2.7 1.9 9.7 1.9 6.2 0 8.5-.3 10.3-1.2 1.4-.8 3.6-3.6 5.7-7.8.6-.4 1.7-.2 2 .6-.6 2.8-2.6 9-3.6 11.2-7.2-.2-14.4-.2-21.6-.2h-7.2c-3.5 0-6.2.1-10.9.2-.5-.2-.6-1.5-.2-2l2.7-.2c4.6-.4 5-1.6 5-10.1v-29.2zM409.4 461.2c0 2.4 0 12 .2 14.1-.2.5-.6.9-1.5.9-1-1.4-3.3-4.2-10.3-12.2l-18.7-21.2c-2.2-2.5-7.6-9.1-9.3-10.9h-.2c-.3 1-.4 2.8-.4 5.2v17.5c0 3.8.1 14.2 1.4 16.7.5.9 2.1 1.4 4.1 1.5l2.5.2c.5.6.4 1.6-.2 2-3.6-.2-6.4-.2-9.4-.2-3.4 0-5.6.1-8.4.2-.6-.4-.6-1.5-.2-2l2.2-.2c1.9-.2 3.1-.7 3.5-1.6 1.1-2.9 1-12.7 1-16.6v-23.3c0-2.3-.1-3.9-1.8-5.8-1.1-1.1-3.1-1.7-5-1.9l-1.4-.2c-.5-.5-.5-1.7.2-2 3.4.2 7.6.2 9.1.2 1.3 0 2.7-.1 3.7-.2 1.6 4.1 11.1 14.7 13.8 17.7l7.8 8.8c5.6 6.2 9.5 10.7 13.3 14.6h.2c.3-.4.3-1.7.3-3.4V442c0-3.8-.1-14.2-1.6-16.7-.5-.7-1.8-1.2-5-1.6l-1.4-.2c-.6-.5-.5-1.8.2-2 3.7.2 6.4.2 9.5.2 3.5 0 5.6-.1 8.3-.2.6.4.6 1.5.2 2l-1.1.2c-2.6.4-4.2 1-4.5 1.7-1.4 2.9-1.2 12.9-1.2 16.6v19.2zM448.4 462.8c0 8.5.2 9.7 4.8 10.1l2.6.2c.5.3.3 1.8-.2 2-4.6-.2-7.3-.2-10.5-.2s-6 .1-11.2.2c-.5-.2-.6-1.6 0-2l2.9-.2c4.6-.4 5-1.6 5-10.1v-36c0-2.5 0-2.6-2.4-2.6H435c-3.5 0-7.9.2-9.9 2-1.9 1.8-2.7 3.5-3.6 5.6-.6.5-1.8.1-2.1-.6 1.3-3.6 2.5-8.8 3.1-12 .2-.2 1.3-.2 1.5 0 .5 2.6 3.1 2.5 6.8 2.5h32.6c4.3 0 5.1-.2 6.3-2.3.4-.2 1.3-.1 1.4.2-.9 3.3-1.4 9.8-1.2 12.2-.3.6-1.7.6-2.1.2-.2-2-.8-5-2-5.9-1.9-1.4-4.9-2-9.3-2h-5.7c-2.4 0-2.3.1-2.3 2.7v36zM482.2 433.9c0-8.4-.2-9.6-4.9-10.1l-1.3-.2c-.5-.3-.3-1.8.2-2 3.5.2 6.2.2 9.5.2h15.1c5.2 0 9.9 0 10.9-.2.5 1.4 1 7.2 1.3 10.7-.3.5-1.6.6-2 .2-1.2-3.8-1.9-6.6-6.1-7.6-1.7-.4-4.3-.5-7.8-.5h-5.8c-2.4 0-2.4.2-2.4 3.2v16.1c0 2.3.2 2.3 2.7 2.3h4.7c3.4 0 5.9-.2 6.8-.5s1.5-.8 1.9-2.8l.6-3.3c.4-.5 1.8-.5 2.1.1 0 1.9-.3 5.1-.3 8.1 0 2.9.3 6 .3 7.7-.3.6-1.7.6-2.1.1l-.7-3.1c-.3-1.4-.9-2.7-2.5-3.1-1.1-.3-3.1-.4-6.2-.4h-4.7c-2.4 0-2.7.1-2.7 2.2v11.3c0 4.3.2 7 1.5 8.4 1 1 2.7 1.9 9.7 1.9 6.2 0 8.5-.3 10.3-1.2 1.4-.8 3.6-3.6 5.7-7.8.6-.4 1.7-.2 2 .6-.6 2.8-2.6 9-3.6 11.2-7.2-.2-14.4-.2-21.6-.2h-7.2c-3.5 0-6.2.1-10.9.2-.5-.2-.6-1.5-.2-2l2.7-.2c4.6-.4 5-1.6 5-10.1v-29.2zM529.2 433.9c0-7.6-.2-9-3.5-9.4l-2.6-.3c-.6-.4-.6-1.7.1-2 4.5-.4 10.1-.6 17.9-.6 5 0 9.7.4 13.4 2.4 3.9 2 6.7 5.6 6.7 11.3 0 7.6-6 11.8-10.1 13.4-.4.5 0 1.3.4 1.9 6.4 10.4 10.7 16.8 16.2 21.4 1.4 1.2 3.4 2.1 5.6 2.3.4.2.5.8.1 1.1-.7.2-2 .4-3.5.4-6.8 0-10.9-2-16.7-10.1-2.1-3-5.4-8.5-7.9-12.2-1.2-1.8-2.5-2.6-5.7-2.6-3.6 0-3.8.1-3.8 1.8v10.1c0 8.5.2 9.4 4.8 10.1l1.7.2c.5.4.3 1.8-.2 2-3.6-.2-6.4-.2-9.6-.2-3.4 0-6.3.1-10.1.2-.5-.2-.6-1.4-.2-2l2-.2c4.7-.6 4.8-1.6 4.8-10.1v-28.9zm6.6 11.6c0 1.4 0 2.3.2 2.7.2.2 1.4.4 5.6.4 2.9 0 6-.3 8.3-2.1 2.2-1.7 4-4.5 4-10 0-6.4-3.9-12.4-12.9-12.4-5 0-5.2.3-5.2 2.6v18.8z"/><g><path d="M359.6 342.6c0 7.4.1 8.5 4.3 8.9l2.3.2c.4.3.3 1.6-.1 1.8-4-.1-6.5-.2-9.3-.2-2.8 0-5.3.1-9.9.2-.4-.2-.6-1.4 0-1.8l2.6-.2c4-.4 4.4-1.4 4.4-8.9v-31.7c0-2.2 0-2.3-2.1-2.3h-3.9c-3 0-6.9.1-8.7 1.8-1.7 1.6-2.4 3.1-3.2 4.9-.6.4-1.6.1-1.8-.5 1.1-3.2 2.2-7.7 2.7-10.6.2-.1 1.1-.2 1.3 0 .4 2.3 2.8 2.2 6 2.2h28.7c3.8 0 4.5-.1 5.5-2 .4-.1 1.1-.1 1.3.2-.8 2.9-1.3 8.7-1.1 10.8-.3.6-1.5.6-1.8.1-.2-1.8-.7-4.4-1.8-5.2-1.6-1.2-4.3-1.8-8.2-1.8h-5c-2.1 0-2.1.1-2.1 2.4v31.7zM398.7 330.3c-3.4 0-3.5.1-3.5 2.3v10c0 7.4.4 8.4 4.3 8.9l2.1.2c.4.3.3 1.6-.1 1.8-3.8-.1-6.2-.2-9-.2-3 0-5.5.1-8.2.2-.4-.2-.6-1.3-.1-1.8l1.2-.2c4-.7 4.1-1.4 4.1-8.9v-25.5c0-7.4-.5-8.7-4.2-8.9l-1.8-.1c-.4-.3-.3-1.6.1-1.8 3.5.1 5.9.2 8.9.2 2.8 0 5.2-.1 8.2-.2.4.2.6 1.5.1 1.8l-1.3.1c-4.1.4-4.3 1.5-4.3 8.9v8.2c0 2.2.1 2.3 3.5 2.3H419c3.4 0 3.5-.1 3.5-2.3v-8.2c0-7.4-.1-8.5-4.3-8.9l-1.3-.1c-.4-.3-.3-1.6.1-1.8 3.3.1 5.7.2 8.6.2 2.8 0 5.2-.1 8.4-.2.4.2.6 1.5.1 1.8l-1.5.1c-4.1.4-4.3 1.5-4.3 8.9v25.5c0 7.4.1 8.4 4.3 8.9l1.7.2c.4.3.3 1.6-.1 1.8-3.4-.1-5.8-.2-8.6-.2-2.9 0-5.5.1-8.6.2-.4-.2-.6-1.3-.1-1.8l1.3-.2c4.3-.7 4.3-1.4 4.3-8.9v-10c0-2.1-.1-2.3-3.5-2.3h-20.3zM446.5 317.1c0-7.4-.1-8.4-4.3-8.9l-1.1-.1c-.4-.3-.3-1.6.1-1.8 3 .1 5.5.2 8.4.2h13.3c4.5 0 8.7 0 9.6-.2.4 1.2.9 6.3 1.1 9.4-.3.4-1.4.6-1.8.1-1.1-3.3-1.7-5.8-5.4-6.7-1.5-.4-3.8-.4-6.9-.4h-5.1c-2.1 0-2.1.1-2.1 2.8v14.2c0 2 .2 2 2.3 2h4.1c3 0 5.2-.1 6-.4.9-.3 1.3-.7 1.7-2.5l.6-2.9c.4-.4 1.6-.4 1.8.1 0 1.7-.3 4.5-.3 7.2 0 2.6.3 5.2.3 6.8-.3.5-1.5.5-1.8.1l-.6-2.8c-.3-1.3-.8-2.3-2.2-2.7-1-.3-2.7-.4-5.5-.4h-4.1c-2.1 0-2.3.1-2.3 1.9v10c0 3.8.2 6.2 1.3 7.4.9.9 2.3 1.6 8.6 1.6 5.5 0 7.5-.3 9.1-1.1 1.3-.7 3.2-3.2 5-6.9.5-.4 1.5-.1 1.8.5-.5 2.5-2.3 7.9-3.2 9.9-6.4-.1-12.7-.2-19-.2h-6.4c-3 0-5.5.1-9.6.2-.4-.2-.6-1.3-.1-1.8l2.3-.2c4-.4 4.4-1.4 4.4-8.9v-25.5z"/></g></svg>