<svg xmlns="http://www.w3.org/2000/svg" width="279" height="82" style="enable-background:new 0 0 279 82" xml:space="preserve"><style>.st0{fill:#fff}.st1{fill:#00b2e3}.st2{fill:#00303c}</style><g id="background"><path d="M-289 0h279v82h-279zM0 0h279v82H0z"/></g><g id="logo"><path class="st0" d="M239 67c-7.1 0-13.3-2.6-18.4-7.6-5.1-5.1-7.6-11.2-7.6-18.4 0-7.1 2.6-13.3 7.6-18.4 5.1-5.1 11.3-7.6 18.4-7.6 7.1 0 13.3 2.6 18.4 7.6 5 5 7.6 11.2 7.6 18.4 0 7.2-2.6 13.3-7.6 18.4-5.1 5-11.2 7.6-18.4 7.6zm0-44c-5 0-9.1 1.7-12.7 5.3-3.6 3.5-5.3 7.7-5.3 12.7 0 5 1.7 9.1 5.3 12.7 3.6 3.5 7.7 5.3 12.7 5.3 5 0 9.1-1.7 12.7-5.3 3.5-3.5 5.2-7.7 5.2-12.7 0-5-1.7-9.2-5.2-12.7S244 23 239 23zM96 67c-6 0-11.3-2.2-15.5-6.4l-.1-.1c-4.2-4.6-6.3-9.7-6.3-15.4V17c0-.6.4-1 1-1h4c1.7 0 3 1.3 3 3v26.1c0 3.6 1.4 6.8 4.2 9.9 2.8 2.7 6 4 9.8 4 3.7 0 7.6-1.6 9.9-4.1 2.8-2.9 4.1-6 4.1-9.8V19c0-1.7 1.3-3 3-3h4c.6 0 1 .4 1 1v28.1c0 5.8-2.1 11-6.3 15.3-3.9 4.1-9.9 6.6-15.8 6.6zM199.7 21.5l-.1-.1C195.3 17.2 190 15 184 15c-5.9 0-11.9 2.5-15.7 6.6-.9.9-1.6 1.9-2.3 2.9-.7-1-1.4-1.9-2.3-2.9l-.1-.1C159.3 17.2 154 15 148 15c-5.9 0-11.9 2.5-15.7 6.6-4.2 4.4-6.3 9.5-6.3 15.3V65c0 .6.4 1 1 1h4c1.7 0 3-1.3 3-3V36.9c0-3.8 1.3-6.9 4.1-9.8 2.3-2.5 6.2-4.1 9.9-4.1 3.9 0 7.1 1.3 9.8 4 2.8 3.1 4.2 6.3 4.2 9.9V63c0 1.7 1.3 3 3 3h2c1.7 0 3-1.3 3-3V36.9c0-3.8 1.3-6.9 4.1-9.8 2.3-2.5 6.2-4.1 9.9-4.1 3.9 0 7.1 1.3 9.8 4 2.8 3.1 4.2 6.3 4.2 9.9V63c0 1.7 1.3 3 3 3h4c.6 0 1-.4 1-1V36.9c0-5.6-2.1-10.8-6.3-15.4zM17.8 54.4l10.7-12.7c.3-.4.3-.9 0-1.3L17.8 27.6c-.6-.7-1.8-.3-1.8.6v25.5c0 1 1.2 1.4 1.8.7z"/><path class="st0" d="M65.9 16h-6.5c-.9 0-1.7.4-2.3 1.1l-14.3 17c-.4.5-1.1.5-1.5 0l-14.4-17c-.6-.7-1.4-1.1-2.3-1.1h-6.5c-.8 0-1.3 1-.8 1.6l19.1 22.7c.3.4.3.9 0 1.3l-19 22.8c-.6.6-.1 1.6.7 1.6h6.4c.9 0 1.7-.4 2.3-1.1l14.4-17.1c.4-.5 1.1-.5 1.5 0l14.4 17.1c.6.7 1.4 1.1 2.3 1.1h6.4c.8 0 1.3-1 .8-1.6L47.5 41.6c-.3-.4-.3-.9 0-1.3l19.1-22.7c.6-.6.1-1.6-.7-1.6zM-50 67c-7.1 0-13.3-2.6-18.4-7.6-5-5.1-7.6-11.3-7.6-18.4 0-7.1 2.6-13.3 7.6-18.4 5.1-5 11.3-7.6 18.4-7.6 7.1 0 13.3 2.6 18.4 7.6 5 5 7.6 11.2 7.6 18.4 0 7.2-2.6 13.3-7.6 18.4-5.1 5-11.2 7.6-18.4 7.6zm0-44c-5 0-9.1 1.7-12.7 5.3C-66.3 31.8-68 36-68 41c0 5 1.7 9.1 5.3 12.7C-59.1 57.2-55 59-50 59c5 0 9.1-1.7 12.7-5.3 3.5-3.5 5.2-7.7 5.2-12.7 0-5-1.7-9.2-5.2-12.7S-45 23-50 23zM-193 67c-6 0-11.3-2.2-15.5-6.4l-.1-.1c-4.2-4.6-6.3-9.7-6.3-15.4V17c0-.6.4-1 1-1h4c1.7 0 3 1.3 3 3v26.1c0 3.6 1.4 6.8 4.2 9.9 2.8 2.7 6 4 9.8 4 3.7 0 7.6-1.6 9.9-4.1 2.8-2.9 4.1-6 4.1-9.8V19c0-1.7 1.3-3 3-3h4c.6 0 1 .4 1 1v28.1c0 5.8-2.1 11-6.3 15.3-3.9 4.1-9.9 6.6-15.8 6.6zM-89.3 21.5l-.1-.1C-93.7 17.2-99 15-105 15c-5.9 0-11.9 2.5-15.7 6.6-.9.9-1.6 1.9-2.3 2.9-.7-1-1.4-1.9-2.3-2.9l-.1-.1c-4.3-4.3-9.5-6.4-15.5-6.4-5.9 0-11.9 2.5-15.7 6.6-4.2 4.4-6.3 9.5-6.3 15.3v28c0 .6.4 1 1 1h4c1.7 0 3-1.3 3-3V36.9c0-3.8 1.3-6.9 4.1-9.8 2.3-2.5 6.2-4.1 9.9-4.1 3.9 0 7.1 1.3 9.8 4 2.8 3.1 4.2 6.3 4.2 9.9V63c0 1.7 1.3 3 3 3h2c1.7 0 3-1.3 3-3V36.9c0-3.8 1.3-6.9 4.1-9.8 2.3-2.5 6.2-4.1 9.9-4.1 3.9 0 7.1 1.3 9.8 4 2.8 3.1 4.2 6.3 4.2 9.9V63c0 1.7 1.3 3 3 3h4c.6 0 1-.4 1-1V36.9c-.1-5.6-2.2-10.8-6.4-15.4z"/><path class="st1" d="m-271.2 54.4 10.7-12.7c.3-.4.3-.9 0-1.3l-10.7-12.7c-.6-.7-1.8-.3-1.8.6v25.5c0 .9 1.2 1.3 1.8.6z"/><path class="st0" d="M-223.1 16h-6.5c-.9 0-1.7.4-2.3 1.1l-14.3 17.1c-.4.5-1.1.5-1.5 0L-262 17.1c-.6-.7-1.4-1.1-2.3-1.1h-6.5c-.8 0-1.3 1-.8 1.6l19.1 22.7c.3.4.3.9 0 1.3l-19.1 22.7c-.5.7-.1 1.6.8 1.6h6.4c.9 0 1.7-.4 2.3-1.1l14.4-17.1c.4-.5 1.1-.5 1.5 0l14.4 17.1c.6.7 1.4 1.1 2.3 1.1h6.4c.8 0 1.3-1 .8-1.6l-19.1-22.7c-.3-.4-.3-.9 0-1.3l19.1-22.7c.5-.6 0-1.6-.8-1.6z"/><path class="st2" d="M-339 67c-7.1 0-13.3-2.6-18.4-7.6-5.1-5.1-7.6-11.2-7.6-18.4 0-7.1 2.6-13.3 7.6-18.4 5.1-5.1 11.3-7.6 18.4-7.6 7.1 0 13.3 2.6 18.4 7.6 5 5 7.6 11.2 7.6 18.4 0 7.2-2.6 13.3-7.6 18.4-5.1 5-11.2 7.6-18.4 7.6zm0-44c-5 0-9.1 1.7-12.7 5.3-3.6 3.5-5.3 7.7-5.3 12.7 0 5 1.7 9.1 5.3 12.7 3.6 3.5 7.7 5.3 12.7 5.3 5 0 9.1-1.7 12.7-5.3 3.5-3.5 5.2-7.7 5.2-12.7 0-5-1.7-9.2-5.2-12.7S-334 23-339 23zM-482 67c-6 0-11.3-2.2-15.5-6.4l-.1-.1c-4.2-4.6-6.3-9.7-6.3-15.4V17c0-.6.4-1 1-1h4c1.7 0 3 1.3 3 3v26.1c0 3.6 1.4 6.8 4.2 9.9 2.8 2.7 6 4 9.8 4 3.7 0 7.6-1.6 9.9-4.1 2.8-2.9 4.1-6 4.1-9.8V19c0-1.7 1.3-3 3-3h4c.6 0 1 .4 1 1v28.1c0 5.8-2.1 11-6.3 15.3-3.9 4.1-9.9 6.6-15.8 6.6zM-378.3 21.5l-.1-.1c-4.3-4.3-9.5-6.4-15.5-6.4-5.9 0-11.9 2.5-15.7 6.6-.9.9-1.6 1.9-2.3 2.9-.7-1-1.4-1.9-2.3-2.9l-.1-.1c-4.3-4.3-9.5-6.4-15.5-6.4-5.9 0-11.9 2.5-15.7 6.6-4.2 4.4-6.3 9.5-6.3 15.3v28c0 .6.4 1 1 1h4c1.7 0 3-1.3 3-3V36.9c0-3.8 1.3-6.9 4.1-9.8 2.3-2.5 6.2-4.1 9.9-4.1 3.9 0 7.1 1.3 9.8 4 2.8 3.1 4.2 6.3 4.2 9.9V63c0 1.7 1.3 3 3 3h2c1.7 0 3-1.3 3-3V36.9c0-3.8 1.3-6.9 4.1-9.8 2.3-2.5 6.2-4.1 9.9-4.1 3.9 0 7.1 1.3 9.8 4 2.8 3.1 4.2 6.3 4.2 9.9V63c0 1.7 1.3 3 3 3h4c.6 0 1-.4 1-1V36.9c-.2-5.6-2.3-10.8-6.5-15.4z"/><path class="st1" d="m-560.2 54.4 10.7-12.7c.3-.4.3-.9 0-1.3l-10.7-12.7c-.6-.7-1.8-.3-1.8.6v25.5c0 .9 1.2 1.3 1.8.6z"/><path class="st2" d="M-512.1 16h-6.5c-.9 0-1.7.4-2.3 1.1l-14.3 17.1c-.4.5-1.1.5-1.5 0L-551 17.1c-.6-.7-1.4-1.1-2.3-1.1h-6.5c-.8 0-1.3 1-.8 1.6l19.1 22.7c.3.4.3.9 0 1.3l-19.1 22.7c-.5.7-.1 1.6.8 1.6h6.4c.9 0 1.7-.4 2.3-1.1l14.4-17.1c.4-.5 1.1-.5 1.5 0l14.4 17.1c.6.7 1.4 1.1 2.3 1.1h6.4c.8 0 1.3-1 .8-1.6l-19.1-22.7c-.3-.4-.3-.9 0-1.3l19.1-22.7c.5-.6 0-1.6-.8-1.6z"/></g></svg>