<svg version="1.1" id="Layer_1" xmlns="http://www.w3.org/2000/svg" x="0" y="0" width="216.8" height="82.1" style="enable-background:new 0 0 216.8 82.1" xml:space="preserve"><style>.st0{fill:#043673}</style><path class="st0" d="M75 20.4c-.1-1.8.4-2.4-2.6-2.4v-1.2c1.4 0 3.1 0 4.8.1 1.7 0 3.4 0 4.8-.1V18c-2.9 0-2.6.5-2.6 2.4V31c-.1 3.6 1.2 5.5 5 5.5 3.7 0 5.9-2 5.9-5.7V20.4c0-2.2-.2-2.4-3-2.4v-1.2c1.3 0 2.5 0 3.7.1 1.2 0 2.4 0 3.7-.1V18c-2.7 0-2.7.4-2.7 2.4V31c0 5-3.4 6.8-8 6.8-5.6 0-9-.9-9-7V20.4z"/><path class="st0" d="M99.2 25.2c1.7-1.2 2.6-2.1 4.8-2.1 3.2 0 4.2 1.6 4.2 4.6v6.2c0 1.8-.3 2.5 2.1 2.5v1.2c-1.4 0-2.8 0-4.1-.1-1.4 0-2.8 0-3.7.1v-1.2c2 0 1.7-.9 1.7-2.5v-5.7c0-1.7-.4-3-2.3-3-2 0-2.6 1.7-2.6 3.4v5.3c0 1.6-.3 2.5 1.7 2.5v1.2c-1 0-2.4 0-3.7-.1-1.4 0-2.8 0-4.1.1v-1.2c2.4 0 2.1-.7 2.1-2.5V27c0-1.8.3-2.5-2.1-2.5v-1.2c1 0 2 0 3 .1 1 0 2 0 3-.1v1.9z"/><path class="st0" d="M116.3 33.9c0 1.8-.3 2.5 2.1 2.5v1.2c-1.4 0-2.8 0-4.1-.1-1.4 0-2.8 0-4.1.1v-1.2c2.5 0 2.1-.7 2.1-2.5v-7.3c0-1.4.3-2.1-2.1-2.1v-1.2h6.1v10.6zm-4-15.6c0-1.3.7-2.3 2.1-2.3 1.4 0 2.1 1 2.1 2.3 0 1.3-.7 2.3-2.1 2.3-1.4 0-2.1-.9-2.1-2.3zM133.4 24.4c-1.6 0-2.1.7-2.5 2l-4.2 11.1c-.5 0-.9 0-1.4-.1-.5 0-.9 0-1.4.1l-4.1-11.1c-.4-1.4-.8-1.9-2.3-2v-1.1c1.4 0 2.8 0 4.1.1 1.4 0 2.7 0 4.1-.1v1.1c-1.1.1-1.6.3-1.8 1-.1.2 0 .4.2 1l2.7 7.5L129 26c.1-.4.2-.6.2-.8-.1-.5-.7-.8-1.7-.8v-1.1c1 0 2 0 3 .1 1 0 1.9 0 2.9-.1v1.1zM136.9 30.8c0 2-.3 5.8 2.7 5.8 1.6 0 2.3-.7 2.7-2.4.1-.5.1-.8.5-.8h1.9c.4 0 .4.5.3.8-.2 2.9-3 3.7-5.4 3.7-5.5 0-7-2.2-7-7.4 0-5.4 1.9-7.2 6.8-7.2 5.3 0 6.3 2.5 6.1 7.7h-8.6zm4.5-1.4c-.1-2.8.2-5.1-2.3-5.1-2.3 0-2.2 2.4-2.2 5.1h4.5zM151.6 25.1c.9-1.2 1.9-2 3.4-2 1.7 0 2.8.9 2.8 2.7 0 1.3-.1 1.8-1.5 1.8-.8 0-1.5-.1-1.6-1.1 0-.7-.2-1.4-1.1-1.4-1.6 0-1.9 1.9-1.9 3.6v5.2c0 2.1-.3 2.5 2.5 2.5v1.2c-1.7 0-3.1 0-4.5-.1-1.4 0-2.8 0-4.1.1v-1.2c2.4 0 2.1-.7 2.1-2.5V27c0-1.8.3-2.5-2.1-2.5v-1.1c1.3 0 2.6 0 3.9.1.7 0 1.3 0 2-.1v1.7zM169.3 27.5h-1.8c0-1.9-.5-3.2-2.7-3.2-1.3 0-2.4.5-2.4 2 0 3.6 7.5 1 7.5 7 0 2.5-1.7 4.5-5.7 4.5-1.9 0-4.2-.2-5.6-.6v-4.1h2l.1 1.3c.1 1.5 1.3 2.3 2.7 2.3 1.6 0 2.8-.6 2.8-2.4 0-1.9-2.9-2.2-4.5-2.7-1.8-.6-3-1.8-3-3.7 0-3.9 3.1-4.7 6.3-4.7 1.5 0 2.9.2 4.3.6v3.7zM176.8 33.9c0 1.8-.3 2.5 2.1 2.5v1.2c-1.4 0-2.8 0-4.1-.1-1.4 0-2.8 0-4.1.1v-1.2c2.5 0 2.1-.7 2.1-2.5v-7.3c0-1.4.3-2.1-2.1-2.1v-1.2h6.1v10.6zm-4-15.6c0-1.3.7-2.3 2.1-2.3 1.4 0 2.1 1 2.1 2.3 0 1.3-.7 2.3-2.1 2.3-1.4 0-2.1-.9-2.1-2.3zM180.8 24.8h-2v-1.4h2v-4l4-1.3v5.3h2.9v1.4h-2.9v7.5c0 1.5-.2 4 1.9 4 .4 0 .9 0 1.3-.2v1.1c-1.1.3-2.3.6-3.4.6-2.6 0-3.8-1-3.8-3.7v-9.3zM191 26.4c-.7-1.7-.6-1.7-2.3-2v-1.1c1.4 0 2.8 0 4.1.1 1.4 0 2.7 0 4.1-.1v1.1l-.5.1c-.4.1-1.1.2-1.3.7-.1.4.1.8.2 1.2l2.7 7.5 2.2-7.6c.1-.4.2-.7.3-1.1.2-.9-1.3-.8-1.8-.8v-1.1c1 0 2 0 3 .1 1 0 1.9 0 2.9-.1v1.1c-.9.3-1.6-.5-2.7 2.5l-5.1 13.3c-.6 1.6-2.3 4.6-5.4 4.6-1.1 0-2.2-.8-2.2-2 0-.9.6-1.5 1.4-1.6 1.3-.2 1.5 1.4 2.7 1.3 1.3-.1 2-1.9 2.4-3l.9-2.2h-1.5L191 26.4zM75.1 47.2c-.1-1.8.4-2.4-2.6-2.4v-1.2c1.4 0 3.1 0 4.8.1 1.7 0 3.4 0 4.8-.1v1.2c-2.9 0-2.6.5-2.6 2.4v5.5h8.2v-5.5c-.1-1.8.4-2.4-2.6-2.4v-1.2c1.4 0 3.1 0 4.8.1 1.7 0 3.4 0 4.8-.1v1.2c-2.9 0-2.6.5-2.6 2.4v13.5c0 1.9-.3 2.4 2.6 2.4v1.2c-1.4 0-3.1 0-4.8-.1-1.7 0-3.4 0-4.8.1v-1.2c3.1 0 2.6-.6 2.6-2.4v-6.5h-8.2v6.5c0 1.9-.3 2.4 2.6 2.4v1.2c-1.4 0-3.1 0-4.8-.1-1.7 0-3.4 0-4.8.1v-1.2c3.1 0 2.6-.6 2.6-2.4V47.2z"/><path class="st0" d="M98.9 57.6c0 2-.3 5.8 2.7 5.8 1.6 0 2.3-.7 2.7-2.4.1-.5.1-.8.5-.8h1.9c.4 0 .4.5.3.8-.2 2.9-3 3.7-5.4 3.7-5.5 0-7-2.2-7-7.5 0-5.4 1.9-7.2 6.8-7.2 5.3 0 6.3 2.5 6.1 7.7h-8.6zm4.5-1.4c-.1-2.8.2-5.1-2.3-5.1-2.3 0-2.2 2.4-2.2 5.1h4.5zM116.7 62.9c-1.6 1-2.7 1.6-4.6 1.6-2.7 0-4-1.6-4-4.2 0-2.4 1.3-3.8 3.7-4.1.8-.1 1.5-.1 2.2-.1h2.5c0-1.8.7-5.1-1.9-5.1-1.2 0-1.9.4-2 2.4.1.7-.1.9-.6.9h-2.1c-.4.1-.7-.2-.6-.9-.2-2.7 2.7-3.6 5.3-3.6 4.3.2 6 .6 6 4.6v6.2c0 2.4-.4 2.5 2.1 2.5v1.2c-1 0-2 0-3-.1-1 0-2 0-3 .1v-1.4zm-.2-5.5h-1.1c-1.6 0-2.5.3-2.9 2-.2 1.5-.1 3.4 1.8 3.4 1.6 0 2.2-1.1 2.2-2.6v-2.8zM129.6 60.7c0 1.8-.3 2.5 2.1 2.5v1.2c-1.4 0-2.8 0-4.1-.1-1.4 0-2.8 0-4.1.1v-1.2c2.5 0 2.1-.7 2.1-2.5V45.6c0-1.8.3-2.5-2.1-2.5V42h6.1v18.7zM133.8 51.6h-2v-1.4h2v-4l4-1.3v5.3h2.9v1.4h-2.9v7.5c0 1.5-.2 4 1.9 4 .4 0 .9 0 1.3-.2V64c-1.1.3-2.3.6-3.4.6-2.6 0-3.8-1-3.8-3.7v-9.3zM148.2 51.9c1.1-1.4 2.8-1.9 4.6-1.9 3.5 0 4.2 1.6 4.2 4.8v6c0 1.8-.3 2.5 2.1 2.5v1.2c-1.4 0-2.8 0-4.1-.1-1.4 0-2.8 0-3.8.1v-1.2c2.1 0 1.8-.9 1.8-2.5v-5.5c0-1.7-.2-3.2-2.2-3.2-1.9 0-2.7 1.6-2.6 3.3v5.4c0 1.6-.3 2.5 1.8 2.5v1.2c-1 0-2.4 0-3.8-.1-1.4 0-2.8 0-4.1.1v-1.2c2.5 0 2.1-.7 2.1-2.5V45.6c0-1.8.3-2.5-2.1-2.5V42h6.1v9.9zM61.8 40.3l-.3-.3-7.3-7.3V22H43.3l-7.1-7.1-.2-.3-.3.3-7.1 7.1H17.8v10.8L10.6 40l-.3.3.3.3 7.2 7.2v10.9h10.6l7.3 7.3.3.3.3-.3 7.3-7.3h10.6V47.8l7.3-7.3.3-.2zM36 50.4l-.3.3-6.7 6.7v-9.9H19l6.9-6.9.3-.3-.3-.3-6.8-6.8H29v-9.6l6.6 6.6.3.3.3-.3 6.7-6.7v9.8h10L46.2 40l-.3.3.3.3 6.9 6.9H43v9.9l-6.7-6.7-.3-.3z"/></svg>