<svg version="1.1" id="Layer_1" xmlns="http://www.w3.org/2000/svg" x="0" y="0" width="612" height="792" style="enable-background:new 0 0 612 792" xml:space="preserve"><style>.st1{fill:#272425}.st2{fill:#c3316f}.st3{fill:#d68f43}</style><path d="M156.7 393.5c-2.2-7-7.9-24.9-8.2-26h5.1v-2.4h-1.3v1.1h-5.1c.4 1.3 8.4 26.4 9 28.6.2-.3.3-.8.5-1.3m-1.5 12.1h-2.8c.3.8.4 1.3.4 1.3h3.7s7.1-19.5 9-24.9c-.4-1.3-.7-2.2-.8-2.5-.8 2.1-9.5 26.1-9.5 26.1m38.4-39.4h-3.3c-.2.7-13.6 39.4-13.6 39.4h-2.8c.3.8.4 1.3.4 1.3h3.7s13.3-38.7 13.6-39.4h3.3v-2.4h-1.3v1.1zm-15.5 27.2c-2.2-7-8-24.8-8.3-25.9h6.2v-2.4h-1.3v1.1h-6.2c.4 1.3 8.5 26.4 9.1 28.5.2-.2.3-.7.5-1.3m38.7-23h-3.3v29.8h1.3v-28.5h3.3v-2.1h-1.3v.8zm181.9 45.1c-3.4 1.5-8.1 2.7-14.5 2.6-15.4-.2-22.2-7.5-28.9-13.6-.9-.8-1.9-1.8-2.8-2.8 1.4 1.5 2.8 2.9 4.1 4.1 6.7 6.1 13.4 13.4 28.9 13.6 17.6.2 22.4-8.8 22.4-8.8s-2.1 3.1-9.2 4.9m44-28.4c1 1.3 1.5 2.9 1.5 5 0 6.4-6.2 11-14.8 11-2.8 0-6.8-1-9.5-2.2v.6l.3.2c2.5 1.5 7.2 2.7 10.5 2.7 8.6 0 14.8-4.6 14.8-11-.1-2.9-1-4.8-2.8-6.3m-225.9 15.3h-12.3v1.3H218v-2.1h-1.3v.8zm267.2-12v12h-28.2v1.3h29.4v-13.3H484zm-229.3 12h-26.3v1.3H256v-14.4h-1.3v13.1zm40.1-27.9c2.7 3.2 3.9 7.2 3.9 10.9 0 7.9-5.2 17.1-19.7 17.1h-12.3v1.3h13.6c14.6 0 19.7-9.2 19.7-17.1-.1-4.3-1.6-8.8-5.2-12.2m48.7 31.1h-16.3v1.3h17.5v-2.4h-1.3v1.1zm-66.7-33.8h2.9c3.7 0 6.4.8 8.4 2.4-2-2.6-5.1-3.7-9.7-3.7h-2.9v29.8h1.3v-28.5zm164.4 9.6h2v-10.5l-.3-.1-.9-.3v9.6h-1.2c.2.6.3 1 .3 1l.1.3zm41.6-.1h2.1v-11.7h-1.3V380h-1.2c.1.3.2.6.3 1l.1.3zm-45 10.7c-1.5-2.2-4.9-3.3-8.4-4.5-3-1-6.2-2-8.5-3.9 2.1 2.8 6.1 4.1 9.8 5.3 2.7.8 5.3 1.7 7.1 3.1m-13.3-13.4c-.3-.5-.5-1.1-.5-1.8 0-3.3 3.4-5.7 7.8-5.7 2.2 0 3.8.4 5 1.3-1.3-1.8-3.2-2.7-6.2-2.7-4.5 0-7.8 2.5-7.8 5.7 0 1.4.6 2.3 1.7 3.2m41.6-6.8h10.4c.7 0 1.3 0 1.8.3-1-1.5-1.8-1.6-3.1-1.6h-10.4v13.2h1.3v-11.9zm0 15.3h3.8c.8 0 1.4.1 1.9.4-.8-1.4-1.8-1.8-3.2-1.8h-3.8v14.5h1.3v-13.1zm-227.5-15.3h5.5v-2.1h-1.3v.8h-5.5v29.8h1.3v-28.5zm236.9 20.6h-1.1c.1.3.1.6.2.9l.1.4h2.1v-15.3h-1.3v14zM344 366.2h-5.7v16.7h1.3v-15.4h5.7c3.1 0 5.2.8 6.6 1.9-1.2-1.8-3.6-3.2-7.9-3.2m41.4 33.5c-1.6-2.2-2.5-6.2-2.5-13 0-13.1 3.3-15.7 8.5-15.7 1.9 0 3.4.3 4.7 1.3-1.5-2-3.5-2.6-6-2.6-5.3 0-8.5 2.6-8.5 15.7 0 8.4 1.4 12.5 3.8 14.3M339.6 387c-.6-.8-1.1-1.3-1.3-1.6v17.8h1.3V387zm68.1-.3c0-5.9-2.2-10.4-5.4-13.5 2.5 3 4.2 7 4.2 12.1 0 11.6-8.4 17.8-16.3 17.8-3.9 0-7.9-1.5-10.9-4.4 3.2 3.7 7.8 5.7 12.2 5.7 7.8.1 16.2-6.2 16.2-17.7m13.4 3.5c1.4 5.1 2.7 8 4.6 9.5-1.4-1.8-2.4-4.7-3.6-9.1l-.1-.4h-.9zm-72.1-4.1c9.1-.7 14.4-4.6 14.4-10.6 0-1.7-.5-4.5-3.1-6.8 1.5 2 1.8 4.1 1.8 5.5 0 6.1-5.2 9.9-14.4 10.6.8.8 2 2.1 1.3 1.3" style="fill:#cb8a80"/><path class="st1" d="M336.6 381.2v-16.7h5.7c8.4 0 9.3 5.6 9.3 8 0 7.2-6.3 8.7-11.5 8.7h-3.5zm50.5 32.5c-3.6.1-10.3.1-16.3-3.9-11.1-7.2-23.8-25.4-24.8-26.6 9.1-.7 14.4-4.6 14.4-10.6 0-3.1-1.5-10.4-15.9-10.4h-20.2v2.4h4.1v37h-4.1v2.4h17.5v-2.4h-5.2v-17.8c1.1 1.3 10.2 12.9 16.9 19.1 6.7 6.1 13.4 13.4 28.9 13.6 17.6.2 22.4-8.8 22.4-8.8s-3.4 5.4-17.7 6m93.1-26.2-.1.4c-3.2 9.9-4.3 10.8-7.8 10.8h-9.2v-14.5h3.8c2.3 0 3.6.9 4.7 6.2l.1.4h2.1v-15.3h-2.1l-.1.4c-1.1 5.2-2.4 6.2-4.7 6.2h-3.8v-13.2h10.4c2.4 0 3.2.4 6.1 9.2l.1.4h2v-11.7h-28.9v2.1h3.3v29.8h-3.3v2.1h29.4v-13.3h-2zm-49.1-7.2c-7.3-2.4-10-3.3-10-6.4 0-3.3 3.4-5.8 7.8-5.8 3.9 0 6 1.4 7.2 4.5l2 5.5.1.3h2V368l-.3-.1c-3.3-1.3-6.8-1.9-10.5-1.9-7.8 0-13 4-13 10 0 6.3 6 8.3 11.3 10 4.7 1.5 9.2 3 9.2 7.1 0 3.7-3.6 6.4-8.5 6.4-4.8 0-6.9-2.6-9.3-11.7l-.1-.4h-2.1v11.4l.3.2c2.5 1.5 7.2 2.7 10.5 2.7 8.6 0 14.8-4.6 14.8-11-.1-6-3.7-7.9-11.4-10.4m-42.7-12.2c5.3 0 8.5 2.6 8.5 15.7s-3.3 15.7-8.5 15.7c-5.3 0-8.5-2.6-8.5-15.7s3.2-15.7 8.5-15.7m0 33.5c7.9 0 16.3-6.2 16.3-17.8 0-11.6-8.4-17.8-16.3-17.8s-16.3 6.2-16.3 17.8c-.1 11.5 8.4 17.8 16.3 17.8m-111.7-2.9h-2.9v-29.8h2.9c8.8 0 12.4 4.3 12.4 14.9 0 10.6-3.6 14.9-12.4 14.9m.4-32h-13.6v2.1h3.3v29.8h-3.3v2.1h13.6c14.6 0 19.8-9.2 19.8-17.1 0-7.7-5.2-16.9-19.8-16.9m-26.3 20.1c-3.4 11.8-4.3 11.8-7.5 11.8h-7.6v-29.8h5.5v-2.1h-15.7v2.1h3.3v29.8h-3.3v2.1h27.6v-14.4H251l-.2.5zm-70.4-22.2h5.2c-.5 1.4-8.9 26.4-9.7 28.6-.7-2.2-8.7-27.2-9.2-28.6h6.2v-2.4h-19.2v2.4h4.6c.2.7 2.8 9 2.9 9.3-.1.4-6.1 17.2-6.8 19.2-.7-2.1-8.6-27.2-9-28.6h5.1v-2.4h-17.3v2.4h3.4c.2.7 13 39.4 13 39.4h3.7s8.7-24 9.5-26.1c.7 2.1 8.4 26.1 8.4 26.1h3.7s13.3-38.7 13.6-39.4h3.3v-2.4h-11.4v2.5zm21.1 4.2h3.3v29.8h-3.3v2.1H215v-2.1h-3.3v-29.8h3.3v-2.1h-13.5v2.1z"/><path class="st2" d="m164.3 435.2 6.4 2.1c-.4 2-1.1 3.6-2 5-.9 1.3-2.1 2.3-3.4 3-1.4.7-3.1 1-5.2 1-2.6 0-4.6-.4-6.3-1.2-1.6-.8-3-2.3-4.2-4.4-1.2-2.1-1.8-4.7-1.8-8 0-4.3 1-7.6 3.1-10 2.1-2.3 5-3.5 8.8-3.5 3 0 5.3.7 7 2 1.7 1.3 3 3.4 3.8 6.1l-6.4 1.6c-.2-.8-.5-1.4-.7-1.7-.4-.6-.9-1.1-1.5-1.4-.6-.3-1.2-.5-2-.5-1.6 0-2.9.7-3.8 2.2-.7 1.1-1 2.8-1 5.1 0 2.9.4 4.9 1.2 6 .8 1.1 1.9 1.6 3.3 1.6s2.4-.4 3.2-1.3c.7-.8 1.2-2 1.5-3.7M197.4 436l-2.6-9.4-2.6 9.4h5.2zm1.5 5.6h-8.3l-1.2 4.3H182l8.9-26.1h8l8.8 26.1h-7.6l-1.2-4.3zM218.9 437.3l6.9-.5c.1 1.2.5 2.2.9 2.8.7 1.1 1.8 1.6 3.2 1.6 1 0 1.8-.3 2.4-.8.6-.5.8-1.2.8-1.9s-.3-1.3-.8-1.8-1.8-1-3.7-1.5c-3.2-.8-5.5-1.8-6.8-3.2-1.4-1.3-2.1-3-2.1-5 0-1.3.3-2.6 1-3.8.7-1.2 1.8-2.1 3.2-2.8 1.4-.7 3.3-1 5.8-1 3 0 5.3.6 6.9 1.9 1.6 1.2 2.5 3.2 2.8 5.9l-6.9.4c-.2-1.2-.6-2-1.1-2.6-.6-.5-1.4-.8-2.4-.8-.8 0-1.5.2-1.9.6-.4.4-.6.9-.6 1.5 0 .4.2.8.5 1.1.3.3 1.1.7 2.4 1 3.2.8 5.5 1.5 6.8 2.3 1.4.8 2.4 1.7 3 2.9.6 1.2.9 2.4.9 3.9 0 1.7-.4 3.2-1.3 4.6-.8 1.4-2 2.5-3.5 3.2-1.5.7-3.4 1.1-5.7 1.1-4 0-6.8-.9-8.3-2.6-1.3-1.7-2.2-3.9-2.4-6.5M254.4 419.8h7.3v26.1h-7.3zM277.2 419.8h6.8l8.8 14.4v-14.4h6.9v26.1h-6.9l-8.8-14.4v14.4h-6.8zM321.1 432.9c0 2.6.4 4.5 1.3 5.7.9 1.1 2.1 1.7 3.6 1.7 1.6 0 2.8-.6 3.6-1.7.9-1.1 1.3-3.1 1.3-6.1 0-2.5-.4-4.3-1.3-5.4-.9-1.1-2.1-1.7-3.6-1.7s-2.6.6-3.5 1.7c-1 1.2-1.4 3.1-1.4 5.8m-7.3 0c0-4.3 1.1-7.6 3.2-10 2.1-2.4 5.1-3.6 9-3.6 3.9 0 6.9 1.2 9.1 3.5 2.1 2.3 3.2 5.6 3.2 9.8 0 3.1-.5 5.6-1.4 7.5-.9 2-2.3 3.5-4 4.6-1.8 1.1-3.9 1.6-6.5 1.6-2.7 0-4.9-.5-6.6-1.4-1.7-.9-3.2-2.4-4.2-4.5-1.3-1.9-1.8-4.5-1.8-7.5"/><path d="M359.3 434.1c.4-.3.7-.5 1-.8.2-.3.3-.6.3-.8 0-.3-.1-.5-.3-.7-.2-.2-.5-.3-.8-.3-.3 0-.6.1-.8.3-.2.2-.3.5-.3.8.1.3.4.8.9 1.5m-1.1 3.2c-.4.3-.7.6-.9.9-.1.2-.2.5-.2.8 0 .4.2.8.5 1.2.3.3.8.5 1.3.5.6 0 1.2-.3 2-.8-.7-.6-1.6-1.5-2.7-2.6m4.9-.9 2.6.6c-.1.5-.3.9-.4 1.3-.1.3-.3.7-.5 1.1l1.2.9c.1.1.3.2.6.4l-1.8 2.2c-.3-.2-.7-.4-1-.7-.3-.2-.7-.5-.9-.6-.6.4-1.1.7-1.7.9-.8.3-1.7.4-2.7.4-1.6 0-2.7-.4-3.5-1.1-.8-.7-1.1-1.6-1.1-2.6 0-.7.2-1.4.7-2.1.4-.7 1.2-1.2 2.2-1.7-.4-.6-.7-1.1-.9-1.5-.2-.4-.2-.9-.2-1.3 0-.9.3-1.7 1-2.3.6-.6 1.6-.9 2.9-.9 1.3 0 2.3.3 2.9.9.6.6.9 1.3.9 2 0 .4-.1.9-.3 1.3-.2.4-.4.7-.7 1-.3.3-.7.6-1.4 1.1l1.8 1.8c0-.3.2-.7.3-1.1M387.8 435h1.5c.2 0 .5-.1 1-.2.2-.1.4-.2.6-.4.2-.2.2-.5.2-.8 0-.4-.1-.7-.4-1-.2-.2-.7-.3-1.4-.3h-1.6v2.7zm-3.7 7.8v-13h6.1c1.1 0 2 .1 2.6.3.6.2 1.1.6 1.4 1.2.4.6.5 1.3.5 2.1 0 .7-.1 1.3-.4 1.9-.3.5-.7.9-1.1 1.3-.3.2-.7.4-1.3.5.4.2.7.3.9.5.1.1.3.3.6.7.3.4.4.6.5.8l1.8 3.8h-4.1l-1.9-4c-.2-.5-.5-.9-.7-1-.3-.2-.6-.3-.9-.3h-.3v5.3h-3.7zM401.9 429.7h9.8v2.8h-6.1v2.1h5.6v2.6h-5.6v2.6h6.2v3h-9.9zM418.3 438.4l3.5-.2c.1.6.2 1.1.5 1.4.4.5.9.8 1.6.8.5 0 .9-.1 1.2-.4.3-.3.4-.6.4-.9 0-.3-.1-.6-.4-.9-.3-.3-.9-.5-1.9-.8-1.6-.4-2.7-.9-3.4-1.6-.7-.7-1-1.5-1-2.5 0-.7.2-1.3.5-1.9.3-.6.9-1.1 1.6-1.4.7-.3 1.7-.5 2.9-.5 1.5 0 2.6.3 3.4.9.8.6 1.3 1.6 1.4 3l-3.4.2c-.1-.6-.3-1-.6-1.3-.3-.3-.7-.4-1.2-.4-.4 0-.7.1-1 .3-.2.2-.3.4-.3.7 0 .2.1.4.3.6.2.2.6.3 1.2.5 1.6.4 2.7.8 3.4 1.2.7.4 1.2.9 1.5 1.4.3.6.5 1.2.5 1.9 0 .8-.2 1.6-.6 2.3-.4.7-1 1.2-1.7 1.6-.8.4-1.7.5-2.8.5-2 0-3.4-.4-4.2-1.3-.9-.8-1.3-1.8-1.4-3.2M439 436.3c0 1.3.2 2.3.7 2.8.4.6 1 .9 1.8.9s1.4-.3 1.8-.8c.4-.6.6-1.6.6-3 0-1.2-.2-2.1-.7-2.7-.4-.6-1.1-.8-1.8-.8s-1.3.3-1.8.9c-.4.4-.6 1.3-.6 2.7m-3.6-.1c0-2.1.5-3.8 1.6-5 1.1-1.2 2.6-1.8 4.5-1.8 2 0 3.5.6 4.5 1.7 1.1 1.2 1.6 2.8 1.6 4.9 0 1.5-.2 2.8-.7 3.7-.5 1-1.1 1.7-2 2.3-.9.5-2 .8-3.3.8-1.3 0-2.4-.2-3.3-.7-.9-.5-1.6-1.2-2.1-2.2-.5-.9-.8-2.1-.8-3.7M458.3 435h1.5c.2 0 .5-.1 1-.2.2-.1.4-.2.6-.4.2-.2.2-.5.2-.8 0-.4-.1-.7-.4-1-.2-.2-.7-.3-1.4-.3h-1.6v2.7zm-3.6 7.8v-13h6.1c1.1 0 2 .1 2.6.3.6.2 1.1.6 1.4 1.2.4.6.5 1.3.5 2.1 0 .7-.1 1.3-.4 1.9-.3.5-.7.9-1.1 1.3-.3.2-.7.4-1.3.5.4.2.7.3.9.5.1.1.3.3.6.7.3.4.4.6.5.8l1.8 3.8h-4.1l-1.9-4c-.2-.5-.5-.9-.7-1-.3-.2-.6-.3-.9-.3h-.3v5.3h-3.7zM471.5 429.7h11.1v3.2h-3.7v9.9h-3.7v-9.9h-3.7z"/><path class="st2" d="M287.3 283.6s-2.2-4.7-.8-6.8c1.7-2.7 6.9-2.8 9.9-5.1s4.6-5.5 6.7-5.9c2.4-.5 3.9-.4 4.7 4.7.8 5.1.7 7.6.5 13.3-.1 3.1-.8 7.3-.8 7.3s5.4-5.1 5.3-15.4c-.1-10.9-4.1-16.8-8.2-16.6-4.1.1-6.7 3.6-8 5.9-1.3 2.3-3.2 3.3-5.9 4.3-2.8.9-7.1 1.9-8.1 5.8-1.6 5.4 4.7 8.5 4.7 8.5M288.6 317.3s-4.3.1-5.7-1.9c-1.8-2.6-.5-6.2-1.7-11.3-1.1-4.9-2.9-6.5-3-8.8-.1-2.1 1.3-4.3 5.9-3.7 6.3.8 6.8 1.6 11.5 3.6 3.4 1.5 5.6 3.3 5.6 3.3s-4-7.9-11.6-10.4c-9.4-3.1-15.7-.9-16.8 3.5-1.2 4.4 1.1 8.1 2.6 10.2 1.5 2.1 1.9 4.4 1.9 7.6-.1 3.2-.6 8.1 2.4 10.3 4.3 3.2 8.9-2.4 8.9-2.4"/><path class="st3" d="M289.6 277.3s4.8-1 6.9-2.4c2.9-2 3.7-4.6 5.6-5.2 1.8-.7 3.4.5 3.4 2.3 0 1.7.4 3.8.2 8.1-.1 4.2-1.1 7.9-1.1 7.9s-2.5-3-2.7-6.2c-.1-3.2 1.7-6.2.2-6.3-1.5-.1-2.4 1.9-4.1 3.1-1.7 1.2-3.1 1.1-4.8.8-1.1-.3-3.6-2.1-3.6-2.1M280.4 295.3c.9-.3 3.9 1.8 2.9 7.6-.6 3.6.2 4.9.7 8.1.6 3.6 4.2 3.5 4.2 3.5s-3.6-1.9-1.8-7.8c1.2-3.8.7-7 0-8.7-1.8-4.4-6-2.7-6-2.7"/><path class="st2" d="M315.5 272.4s-1.1-7.2 4.8-8.6c5.9-1.3 11.7.6 16.3 3.9 4.8 3.5 8.3 9.4 8.1 15.6-.2 7.5-3.4 10-9.4 11.8-5.6 1.7-7 2.8-9 3.4-1.9.5-4.1 1.2-4.1 1.2s-1.1-5.4 6.4-8.5c4.4-1.8 10.8-3.2 11-9.8.2-6.6-6.4-11.7-11.9-13.5-9.8-3.4-12.2 4.5-12.2 4.5"/><path class="st3" d="M319.4 273.4s3.6-3.4 10.2-.4c5.3 2.4 6.4 4 6.9 6.7.4 2.1-1 4-3.9 7-2.2 2.3-5.9 3-5.9 3s-1.6-2.5.8-5.1c2.4-2.5 3.6-1.6 4.1-3.9.5-2.6-1.9-4.4-5.7-5.8-4.3-1.6-6.5-1.5-6.5-1.5"/><path class="st2" d="M304.3 305.7s-6.8.5-12.3 7.5c-3.3 4.1-4.9 11.9-2.5 16.6 2.8 5.5 7.7 5.9 11.1 6.2 3.4.3 5 .1 6.8 1.9 1.8 1.7 4.8 4.8 7.8 4.8 3.1 0 6.1-1.5 6.7-5 .8-4.8-1-8.8-1-8.8s-.1 8-3.4 9.7c-3.4 1.7-4.7-.9-6.2-2.5s-3.8-4.2-7.3-4.3c-3.5-.1-8.1-.3-9.3-3.1-1.2-2.8-1.6-7.9.7-11.1 2.4-3.4 5.9-4.2 7.6-7.2 1.1-2.1 1.3-4.7 1.3-4.7"/><path class="st3" d="M299.6 328.3c5 1.5 5 .5 8 1.5 2.9.9 4.5 1.7 5.9 3.1 1.5 1.3 2.5 2.4 2.5 2.4s-.1-5.2-5.4-8.9c-2.7-1.8-5.9-3.1-9.6-3.5-2.7-.3-5.3.8-5.3.8s1.8 3.9 3.9 4.6"/><path class="st2" d="M316 308.9s.9 4.5 2.2 8.4c2.2 6.7 5.7 10.5 9.1 11.9 5.8 2.4 10.4 1.9 13.1.3 3-1.9 4.5-4.8 5-7.4.6-3.3-.6-4.8.7-7.4 1.1-2.1 2.6-2.7 3-6 .5-3.5-1.6-7-4.7-8.6-4-2.1-9.2-.9-9.2-.9s8.7 1.3 10.3 5.9c1.2 3.5 0 5.5-1.2 6.6-1.2 1.1-2.3 2-2.8 4s.5 5-.6 7c-1.9 3.4-6.9 3.8-10.8 2.3-3.9-1.5-6.2-6.5-7.7-10.5-2.2-5.3-6.4-5.6-6.4-5.6"/><path class="st3" d="M342.5 307.7s-3.1 3.5-3.1 6.6c0 3.5-.6 6-2.8 6.8-2.5.9-4.5.5-6.9-1.5-2.4-2-5.2-5.4-5.2-5.4s4.1-1.2 6.8.7c1.9 1.3 2.8 1.9 4 1.2 1.2-.7.9-3.3 1.7-5.5 1.4-3.7 5.5-2.9 5.5-2.9"/><path class="st1" d="M307.4 295.9c-1.6.2-1.8 2.2-1.5 3.6.2 1.1 1.5 1.8 2.4 1.5 1.6-.7 1.5-5.5-.9-5.1M312.1 290.4c-2.3.5-1.9 5.8.9 4.8 1.5-.4 1.5-5.3-.9-4.8M319.3 294.6c-1.2-1.7-3.6.6-2.2 2.3 1.2 1.6 3.4-.6 2.2-2.3M316.1 298.6c-1.5-1.2-4.1-1.4-4.4.7-.2 1.4 1.1 3.3 2.7 3.5 3.1.3 3.2-3.1 1.7-4.2M310.5 303c-1.5.3-1.5 3.1.8 3.3 2.6.4.8-3.6-.8-3.3M318.3 303.4c-.5.8-.1 1.9.6 2 .7.1 1.7-.2 1.5-1.4-.1-1.4-1.6-1.4-2.1-.6"/><path style="fill:none" d="M0 0h612v792H0z"/></svg>