<svg xmlns="http://www.w3.org/2000/svg" width="446.5" height="479" style="enable-background:new 0 0 446.5 479" xml:space="preserve"><path style="fill:#ce0e2d" d="M111.3 74.7h224v224h-224z"/><path d="M223.3 135.8c-42.3 0-74.7 21.8-74.7 50.9 0 28.1 31.5 50.9 74.7 50.9s74.7-22.8 74.7-50.9c0-29.1-32.4-50.9-74.7-50.9m46.6 21.8c1.6 6.3-5.7 14.1-29.2 16.7-1.6-16-6.3-29.5-14.1-32.3 10.6.3 20.6 2.1 29.3 5.3 8.1 3 13.1 6.9 14 10.3m-34.8 28.8c0 20.2-6.1 28.6-11.8 28.6-5.7 0-11.8-8.4-11.8-28.6v-.2c3.8.3 7.7.5 11.8.5 4 0 8-.2 11.8-.5v.2m-11.8-11.3c-4 0-7.6-.1-11-.3 1.8-13.2 6.5-20.9 11-20.9s9.2 7.7 11 20.9c-3.4.2-7 .3-11 .3m-46.5-17.5c.8-3.4 5.9-7.3 14-10.3 8.8-3.2 18.8-5 29.4-5.3-7.8 2.9-12.6 16.3-14.1 32.3-23.6-2.6-30.9-10.4-29.3-16.7m-17.1 27.2c0-8.6 2.9-16 7.9-22.1.6 11.4 16 19.8 37.9 22.8v.9c0 27.4 7 41.9 14.8 44.9-33.5-1.2-60.6-21.8-60.6-46.5m66.6 46.5c7.8-3.1 14.9-18.7 14.9-44.9v-.9c21.9-3 37.3-11.4 37.9-22.8 5 6.1 7.9 13.5 7.9 22.1 0 24.8-27.2 45.4-60.7 46.5" style="fill:#fff"/><path d="m337.4 383.4 7-18.3 7 18.3h-14zm14.2-28.7h-14.5l-20.3 49.7h12.6l4.6-12.1h20.7l4.6 12.1h12.6l-20.3-49.7zm-102.3 41c-8.2 0-14.8-7.4-14.8-16.5s6.6-16.5 14.8-16.5c8.2 0 14.8 7.4 14.8 16.5s-6.6 16.5-14.8 16.5m0-42.7c-14.5 0-26.2 11.8-26.2 26.2 0 14.5 11.8 26.2 26.2 26.2 14.5 0 26.2-11.7 26.2-26.2S263.8 353 249.3 353m-103.6 42.7c-8.2 0-14.8-7.4-14.8-16.5s6.6-16.5 14.8-16.5c8.2 0 14.8 7.4 14.8 16.5.1 9.1-6.6 16.5-14.8 16.5m0-42.7c-14.5 0-26.2 11.8-26.2 26.2 0 14.5 11.7 26.2 26.2 26.2s26.2-11.7 26.2-26.2c.1-14.5-11.7-26.2-26.2-26.2m64.9 1.7-12.9 20.1-12.9-20.1h-12.6l19.9 31.2v18.5h11.1v-18.5l19.9-31.2h-12.5zm108.9 0H277v9.5h15.7v40.2h11.1v-40.2h15.7v-9.5zm-244.8 9.5h15.7v40.2h11.1v-40.2h15.7v-9.5H74.7v9.5z"/></svg>