<svg version="1.1" id="Layer_1" xmlns="http://www.w3.org/2000/svg" xmlns:xlink="http://www.w3.org/1999/xlink" x="0" y="0" width="792" height="612" style="enable-background:new 0 0 792 612" xml:space="preserve"><style>.st0{fill:#5f6062}.st1{fill:#f26522}.st3{clip-path:url(#SVGID_4_);fill:#5f6062}</style><path class="st0" d="M195.6 355v-46.5h-32.2v14.3h16.1v16.1h-32.2v-48.6h32.2v8.4h16.1v-24.5h-64.4V355H179.5z"/><path class="st1" d="M82.9 274.2v32.3H99v-16.1h25.7L83 338.8v.1l-.1.1h.1v16h64.3v-32.3h-16.1v16.1h-25.5l41.6-48.2-.1-.2h.1v-16.2zM206.2 287l17.2-39-39.7 17.2h22.5z"/><path class="st0" d="M290.8 355.3v-11h-34.6l35.4-70.3h-50.1v11h29.3l-35.9 70.3z"/><defs><path id="SVGID_1_" d="M82.9 248h620.5v108.5H82.9z"/></defs><clipPath id="SVGID_2_"><use xlink:href="#SVGID_1_" style="overflow:visible"/></clipPath><path d="M371.2 295.1h-12.4l-9.2 39.1c-.4 1.9-.9 4.6-1.2 8.1h-.2c-.4-3.7-.9-5.9-1.5-8.1l-10.2-39.1h-11.3l-10.6 39.1c-.6 2-1.1 5.1-1.6 8.1-.2-3.1-.6-5.7-1.1-8.1l-8.7-39.1h-14l17 60.2h12.4l10.3-38.3c.6-2.1 1-4.6 1.3-7.1h.2c.2 2.3.7 5 1.2 7.1l10.4 38.3h12.3l16.9-60.2z" style="clip-path:url(#SVGID_2_);fill:#5f6062"/><path class="st0" d="M377.5 268.2h13.6v12h-13.6zM377.5 295.1h13.6v60.2h-13.6z"/><path class="st0" d="M367.4 295.1h23.3v9.2h-23.3zM408.9 267.7h13.6v87.6h-13.6zM441.1 267.7h13.6v87.6h-13.6z"/><defs><path id="SVGID_3_" d="M82.9 248h620.5v108.5H82.9z"/></defs><clipPath id="SVGID_4_"><use xlink:href="#SVGID_3_" style="overflow:visible"/></clipPath><path class="st3" d="M521.3 352.1v-41H496v8.7h12v25.3c-2.1.9-5.1 1.3-8 1.3-10.3 0-19.1-9.7-19.1-28.9 0-18.5 7.7-30.2 22.1-30.2 5.2 0 9.9 1.3 13.4 3.1l3.9-8.8c-5-2.8-10.9-4.5-18.4-4.5-22.2 0-35.3 16.6-35.3 39.7 0 24.9 13.3 39.5 33.9 39.5 7.6.2 15.9-1.5 20.8-4.2M568 319.3l-24.8 3.9V322c0-11.8 4.4-20 12.9-20 8.2 0 11.8 6.4 11.9 17.3m13.1 5.4v-1.8c0-18.7-8.8-29-24.4-29-16.3 0-25.9 12.3-25.9 31.1 0 18.9 10 31.5 28.2 31.5 7.6 0 15.1-1.8 20-4.4l-3.2-8.7c-3.5 1.9-9.4 3.5-14.8 3.5-9.9 0-15.8-6.2-16.9-16.7l37-5.5zM637.9 355.3v-41.1c0-12.8-7.6-20.2-25.1-20.2-8.4 0-16.2 1.7-22.4 4.4v56.9H604V304c2.6-1.1 5.5-1.6 8.8-1.6 8.4 0 11.5 3.8 11.5 11.6v41.2h13.6z"/><g style="clip-path:url(#SVGID_4_)"><path class="st0" d="M654.6 337.8c1-.2 2.3-.3 4-.3 2 0 3.5.5 4.5 1.3.9.8 1.4 1.9 1.4 3.3s-.4 2.6-1.2 3.4c-1.1 1.2-2.9 1.8-4.9 1.8-.6 0-1.2 0-1.7-.1v6.4h-2.1v-15.8zm2.1 7.8c.5.1 1 .2 1.7.2 2.5 0 4-1.2 4-3.4 0-2.1-1.5-3.1-3.8-3.1-.9 0-1.6.1-1.9.2v6.1zM667.7 337.7h2.1V352h6.8v1.7h-8.9v-16zM679.4 337.7h2.1V352h6.8v1.7h-8.9v-16zM701.6 353.1c-.8.4-2.3.8-4.2.8-4.5 0-7.9-2.9-7.9-8.1 0-5 3.4-8.4 8.4-8.4 2 0 3.3.4 3.8.7l-.5 1.7c-.8-.4-1.9-.7-3.2-.7-3.8 0-6.2 2.4-6.2 6.6 0 3.9 2.3 6.4 6.2 6.4 1.3 0 2.5-.3 3.4-.7l.2 1.7z"/></g></svg>