<svg xmlns="http://www.w3.org/2000/svg" width="612" height="792" style="enable-background:new 0 0 612 792" xml:space="preserve"><path d="M234.3 409.7v7.2h.5v-7.2h-.5zM237.7 411.9v5h.5v-5h-.5zm-.1-2v.7h.6v-.7h-.6zM245.2 411.9v1c-.4-.6-1.1-1.1-2.1-1.1-1.2 0-2.4.9-2.4 2.4 0 1.4 1.2 2.4 2.4 2.4 1 0 1.7-.5 2.1-1.2v.7c0 1.3-.8 2-2 2-.7 0-1.4-.2-2-.7l-.3.4c.7.5 1.5.8 2.3.8.7 0 1.4-.2 1.8-.7.4-.4.6-1 .6-1.7v-4.3h-.4zm0 2.3c0 1.1-1 1.9-2.1 1.9-1 0-1.9-.8-1.9-1.9 0-1.2.9-1.9 1.9-1.9 1.1-.1 2.1.7 2.1 1.9zM250.7 411.8c-.9 0-1.5.5-1.8 1.1v-3.1h-.5v7.2h.5v-3c0-1 .8-1.8 1.8-1.8s1.6.7 1.6 1.7v3h.5v-3.1c-.1-1.2-.8-2-2.1-2zM257.9 412.3v-.4h-1.8v-1.6h-.5v1.6h-.7v.4h.7v3.3c0 1 .6 1.4 1.4 1.4.3 0 .6-.1.8-.2v-.5c-.3.1-.5.2-.7.2-.6 0-1-.3-1-1v-3.3h1.8v.1zM264.1 411.9v5h.5v-5h-.5zm0-2v.7h.6v-.7h-.6zM269.7 411.8c-.9 0-1.5.5-1.8 1.1v-.9h-.5v5h.5v-3c0-1 .8-1.8 1.8-1.8s1.6.7 1.6 1.7v3h.5v-3.1c-.1-1.2-.8-2-2.1-2zM276.9 412.3v-.4h-1.8v-1.6h-.5v1.6h-.7v.4h.7v3.3c0 1 .6 1.4 1.4 1.4.3 0 .6-.1.8-.2v-.5c-.3.1-.5.2-.7.2-.6 0-1-.3-1-1v-3.3h1.8v.1zM283.5 414.4c0-1.5-.9-2.6-2.3-2.6s-2.4 1.2-2.4 2.6c0 1.6 1.1 2.6 2.5 2.6 1 0 1.6-.4 2.1-1l-.3-.3c-.4.4-1 .8-1.7.8-1 0-1.9-.7-2-2h4.2c-.1 0-.1 0-.1-.1zm-4.2-.2c.1-1.1.9-2 1.9-2 1.2 0 1.7.9 1.8 2h-3.7zM285.8 409.7v7.2h.5v-7.2h-.5zM289.2 409.7v7.2h.5v-7.2h-.5zM292.5 411.9v5h.5v-5h-.5zm0-2v.7h.6v-.7h-.6zM300 411.9v1c-.4-.6-1.1-1.1-2.1-1.1-1.2 0-2.4.9-2.4 2.4 0 1.4 1.2 2.4 2.4 2.4 1 0 1.7-.5 2.1-1.2v.7c0 1.3-.8 2-2 2-.7 0-1.4-.2-2-.7l-.3.4c.7.5 1.5.8 2.3.8.7 0 1.4-.2 1.8-.7.4-.4.6-1 .6-1.7v-4.3h-.4zm.1 2.3c0 1.1-1 1.9-2.1 1.9-1 0-1.9-.8-1.9-1.9 0-1.2.9-1.9 1.9-1.9 1-.1 2.1.7 2.1 1.9zM307.6 414.4c0-1.5-.9-2.6-2.3-2.6s-2.4 1.2-2.4 2.6c0 1.6 1.1 2.6 2.5 2.6 1 0 1.6-.4 2.1-1l-.3-.3c-.4.4-1 .8-1.7.8-1 0-1.9-.7-2-2h4.2c-.1 0-.1 0-.1-.1zm-4.2-.2c.1-1.1.9-2 1.9-2 1.2 0 1.7.9 1.8 2h-3.7zM312.2 411.8c-.9 0-1.5.5-1.8 1.1v-.9h-.5v5h.5v-3c0-1 .8-1.8 1.8-1.8s1.6.7 1.6 1.7v3h.5v-3.1c-.1-1.2-.8-2-2.1-2zM319.4 412.3v-.4h-1.8v-1.6h-.5v1.6h-.7v.4h.7v3.3c0 1 .6 1.4 1.4 1.4.3 0 .6-.1.8-.2v-.5c-.3.1-.5.2-.7.2-.6 0-1-.3-1-1v-3.3h1.8v.1zM332.8 409.7v7.2h.4v-7.2h-.4zM340.1 414.4c0-1.5-.9-2.6-2.3-2.6s-2.4 1.2-2.4 2.6c0 1.6 1.1 2.6 2.5 2.6 1 0 1.6-.4 2.1-1l-.3-.3c-.4.4-1 .8-1.7.8-1 0-1.9-.7-2-2h4.2c-.1 0-.1 0-.1-.1zm-4.2-.3c.1-1.1.9-2 1.9-2 1.2 0 1.7.9 1.8 2h-3.7zM344.4 411.7c-.9 0-1.5.5-1.8 1.1v-.9h-.5v5h.5V414c0-1 .8-1.8 1.8-1.8s1.6.7 1.6 1.7v3h.5v-3.1c-.1-1.2-.8-2.1-2.1-2.1zM350.5 414.1c-.7-.2-1.4-.4-1.4-1 0-.5.5-.9 1.1-.9.5 0 1.1.2 1.6.5l.3-.4c-.5-.3-1.2-.6-1.8-.6-1 0-1.7.6-1.7 1.4 0 .9.9 1.1 1.7 1.4.7.2 1.3.4 1.3 1s-.5 1-1.2 1c-.6 0-1.3-.2-1.8-.7l-.3.4c.5.4 1.3.7 2.1.7 1 0 1.7-.6 1.7-1.5.1-.8-.8-1.1-1.6-1.3zM358.7 414.4c0-1.5-.9-2.6-2.3-2.6s-2.4 1.2-2.4 2.6c0 1.6 1.1 2.6 2.5 2.6 1 0 1.6-.4 2.1-1l-.3-.3c-.4.4-1 .8-1.7.8-1 0-1.9-.7-2-2h4.2c-.1 0-.1 0-.1-.1zm-4.2-.3c.1-1.1.9-2 1.9-2 1.2 0 1.7.9 1.8 2h-3.7zM362.4 414.1c-.7-.2-1.4-.4-1.4-1 0-.5.5-.9 1.1-.9.5 0 1.1.2 1.6.5l.3-.4c-.5-.3-1.2-.6-1.8-.6-1 0-1.7.6-1.7 1.4 0 .9.9 1.1 1.7 1.4.7.2 1.3.4 1.3 1s-.5 1-1.2 1c-.6 0-1.3-.2-1.8-.7l-.3.4c.5.4 1.3.7 2.1.7 1 0 1.7-.6 1.7-1.5.1-.8-.8-1.1-1.6-1.3zM278.2 386.8c-2 0-4.2.7-5.6 1.9l-.2-1.1c0-.1-.1-.2-.2-.2h-2.5c-.1 0-.2.1-.2.2v16.9c0 .1.1.2.2.2h3c.1 0 .2-.1.2-.2v-13.6c.8-.7 2.5-1.5 4.4-1.5 2.6 0 3.9 1.2 3.9 3.8v11.3c0 .1.1.2.2.2h3c.1 0 .2-.1.2-.2v-11.6c0-4-2.5-6.1-6.4-6.1zM358 386.9c-2 0-4.2.7-5.6 1.9l-.2-1.1c0-.1-.1-.2-.2-.2h-2.5c-.1 0-.2.1-.2.2v16.8c0 .1.1.2.2.2h3c.1 0 .2-.1.2-.2v-13.6c.8-.7 2.5-1.5 4.4-1.5 2.6 0 3.9 1.2 3.9 3.8v11.3c0 .1.1.2.2.2h3c.1 0 .2-.1.2-.2v-11.6c0-3.9-2.5-6-6.4-6zM305.2 387.4h-2.9c-.1 0-.2.1-.2.2v16.8c0 .1.1.2.2.2h2.9c.1 0 .2-.1.2-.2v-16.8c0-.1-.1-.2-.2-.2zM303.8 381.8c-1 0-1.8.8-1.8 1.8s.8 1.8 1.8 1.8 1.8-.8 1.8-1.8-.8-1.8-1.8-1.8zM323 387.4h-2.9c-.1 0-.2.1-.2.2v16.8c0 .1.1.2.2.2h2.9c.1 0 .2-.1.2-.2v-16.8c0-.1-.1-.2-.2-.2zM321.6 381.8c-1 0-1.8.8-1.8 1.8s.8 1.8 1.8 1.8 1.8-.8 1.8-1.8-.8-1.8-1.8-1.8zM252.2 387.2c-.5-.2-1.2-.3-1.8-.3-2.1 0-3.8 1.2-4.5 2.6l-.2-1.8c0-.1-.1-.2-.2-.2H243c-.1 0-.2.1-.2.2v16.8c0 .1.1.2.2.2h3c.1 0 .1-.1.1-.2v-11.1c0-2.1 1.6-4.2 3.9-4.2.7 0 1.2.1 1.6.2.1 0 .1 0 .2-.1l.5-2c-.1 0-.1-.1-.1-.1zM317.9 402.8c0-.1-.1-.2-.2-.1-2.7 1.1-5 .3-5-3v-10h4.5c.1 0 .2-.1.2-.2v-1.9c0-.1-.1-.2-.2-.2h-4.7l-.4-4.6c0-.1-.1-.2-.2-.2h-2.4c-.1 0-.2.1-.2.2V400c0 4 2.8 5.2 5.5 5.2 1.1 0 2.3-.3 3.2-.7.1 0 .1-.1.1-.2l-.2-1.5zM290.4 390.9c0-1.1.8-1.9 2.6-1.9 1.6 0 3.4.7 4.8 1.7.1.1.2.1.3 0l1-1.5c.1-.1.1-.2 0-.3-1.6-1.2-3.9-2-6.2-2-3.8 0-5.6 2.1-5.6 4.5 0 5.8 9.1 5.4 9.1 9.2 0 1.5-1.2 2.4-3.1 2.4-1.8 0-3.6-.7-5-2.1-.1-.1-.2-.1-.2 0l-1.2 1.5c-.1.1-.1.2 0 .3 1.4 1.4 3.8 2.6 6.6 2.6 3.9 0 6.2-2.4 6.2-5.1-.2-5.7-9.3-5.5-9.3-9.3zM370.2 390.9c0-1.1.8-1.9 2.6-1.9 1.6 0 3.4.7 4.8 1.7.1.1.2.1.3 0l1-1.5c.1-.1.1-.2 0-.3-1.6-1.2-3.9-2-6.2-2-3.8 0-5.6 2.1-5.6 4.5 0 5.8 9.1 5.4 9.1 9.2 0 1.5-1.2 2.4-3.1 2.4-1.8 0-3.6-.7-5-2.1-.1-.1-.2-.1-.2 0l-1.2 1.5c-.1.1-.1.2 0 .3 1.4 1.4 3.8 2.6 6.6 2.6 3.9 0 6.2-2.4 6.2-5.1-.2-5.7-9.3-5.5-9.3-9.3zM346.5 396.1c0 5.7-4.6 10.4-10.4 10.4-1.4 0-2.7-.3-3.9-.7l10.3-17.7c2.5 1.7 4 4.7 4 8zM259.2 386.9c-1.8 0-3.9.5-5.3 1.3-.1.1-.2.2-.1.3.1.5.3 1 .4 1.5 0 .1.2.2.3.1 1.4-.7 2.8-1 4.4-1 2.7 0 3.9 1.5 3.9 3.8v1.3c-1.1-.3-2.4-.5-3.6-.5-4.5 0-7.2 2.2-7.2 5.7 0 3.6 2.5 5.8 6.7 5.8 1.6 0 3.4-.5 4.5-1.4l.2.7c0 .1.1.1.2.1h2.2c.1 0 .2-.1.2-.2v-11.1c-.1-4.1-2.3-6.4-6.8-6.4zm3.5 15c-.8.5-2 1-3.1 1-3.1 0-4.3-1.3-4.3-3.5s1.2-3.5 4.6-3.5c1 0 2 .2 2.8.4v5.6zM336.2 387.8c.6 0 1.3.1 1.9.2l1.1-1.9c-1-.3-2-.5-3-.5-5.7 0-10.4 4.2-10.4 10.2 0 3 1.3 5.8 3.3 7.7l1.2-2.2c-1.4-1.4-2.1-3.4-2.1-5.5.1-4.5 3.4-8 8-8z"/><path d="M245.3 383.2v-2c0-.1-.1-.2-.2-.2h-17.9c-.1 0-.2.1-.2.2v2c0 .1.1.2.2.2h7.1v21.1c0 .1.1.2.2.2h3.1c.1 0 .2-.1.2-.2v-21.1h7.3c.1-.1.2-.1.2-.2zM323.1 417.1h2.5c.1 0 .1 0 .2-.1l24.2-41.8c.1-.1 0-.3-.2-.3h-2.5c-.1 0-.1 0-.2.1L323 416.9c-.1.1 0 .2.1.2zM381 388.1h-.6v-.4h1.7v.4h-.6v1.6h-.5v-1.6zm1.5-.4h.5l.5.9.5-.9h.5v2h-.4v-1.4l-.6.9-.6-.9v1.4h-.4v-2z"/></svg>