<svg version="1.1" id="Layer_1" xmlns="http://www.w3.org/2000/svg" x="0" y="0" width="576" height="792" style="enable-background:new 0 0 576 792" xml:space="preserve"><style>.st0{fill-rule:evenodd;clip-rule:evenodd;fill:#0175cf}</style><path class="st0" d="m294.1 375.5-6.3 17.1c-.6-.6-5.1-13.9-5.8-16l-.5-1.2c-2.5-.4-5.3-.5-7.8-.8-2.7-.4-5.2-1-7.8-1.4l18.4 46.8h7.4l18.7-46.9c-1.4 0-5.8 1.1-7.7 1.4-2.9.6-5.7.8-8.6 1M296.5 366.4c2.4 0 15-1.4 16.3-2.2.3-.3.1.1.4-.5L329 324h-16.9l-15.6 42.4zM277.9 366.5l-15-42.4-16.9-.1c1.1 3.4 9 22.7 10.5 26.7l5.3 13.3c.4.6.8.5 1.6.6 4.7.9 9.6 1.7 14.5 1.9"/><path class="st0" d="M286.9 374.5c24.6 0 47-8.2 65.4-23l3.2-2.8-6.9 3.9c-7.6 4-14.4 7-22.8 9.7-24.6 7.9-51.8 7.8-76.3 0-10.4-3.3-17.6-6.7-26.6-11.8-1.1-.7-2.3-1.5-3.5-2 2 2.3 10.7 8.3 13.2 10 14.9 9.6 35.5 16 54.3 16M313.9 439.6c.3.5 3.3 3.2 3.8 3.4 1.1-1.1 2.3-2.5 4.5-3 6.1-1.3 8 5 4.2 7-1.9 1-4.3.9-6.6 1.1v4.8c2.8.1 5.4.1 7.5 1.3 4.2 2.5 2.2 10.1-5.1 8.7-1.3-.2-2.2-.8-3.1-1.4-1-.8-1.3-1.7-2.1-2.4l-4.5 2.5c.9 3.9 10 9 18.1 4.6 2.6-1.4 4.7-4.2 4.5-8.5-.3-5.8-4.7-6.8-5.6-7.6 2-1.4 4.3-2.5 4.6-6.4.5-7.3-7.5-9.7-13.3-8.5-1.4.3-2.8.9-3.9 1.6-1.4 1.1-2 1.7-3 2.8M336.6 439.6l3.8 3.4c1.2-.8 2-2.3 4.5-2.9 6-1.4 8.2 4.8 4.2 7-1.9 1.1-4.3.8-6.6 1.1v4.7c2.7.4 5.3-.1 7.5 1.4 4.1 2.7 2.2 10-4.9 8.8-3.3-.6-4.1-2.7-5.3-3.8l-4.5 2.5c1.3 4.6 11 8.6 18.1 4.6 2.7-1.5 4.7-4.3 4.5-8.6-.1-1.9-.8-3.7-1.7-4.8-1.8-2.1-3-2-3.9-2.7.5-.4 1-.6 1.6-1 4.6-3.2 3.7-10-.9-12.6-4.1-2.2-9-2.1-13.2.3-1.1.5-2.8 1.8-3.2 2.6M280.7 443.4c-6.7 1.2-6 7.6-6 14.2 0 3.1.1 6.2 2 8.2 1.7 1.8 4.2 2.7 7.6 2.1 6.7-1.2 5.9-7.7 5.9-14.2 0-3.1-.2-6.3-1.9-8.2-1.7-1.8-4.2-2.7-7.6-2.1M224.8 467.5h5.5l6.7-31.9-5.5-.1-3.9 22.1-4.1-22-5.4-.1zM298.5 445.9v-2.3h-4.7v23.9h5v-18.8c1-.4 3.4-2.4 4.6-.8.6.9.3 5 .3 6.4 0 4.3-.2 9 0 13.2h4.9c.3-5.8.1-12.6 0-18.6 0-3-.7-5.4-3.5-5.7-3.4-.4-4.7 1.5-6.6 2.7M252.8 460.2l-4.3 1c.1 3.9 3.4 6.8 8 6.7 4.4-.1 7.4-3.2 6.4-8-1.1-5.2-7.5-6.9-8.8-9.6-1.7-3.3 3.9-4.9 4.6-.1l4.3-.7c-2.6-11.1-17.1-5.9-13.4 2.5 2 4.6 8.8 6.2 8.8 9.8 0 1.1-.7 1.8-1.7 2-2.9.5-3.2-1.6-3.9-3.6M239.8 466.7v.8h5v-23.8h-5zM266.1 467.5h4.9l.1-23.8h-5z"/><path d="M279.7 451.8v7.6c0 2.2.3 4.4 2.7 4.5 2.6 0 2.8-2.2 2.8-4.5v-7.8c0-2.2-.4-4.4-2.8-4.3-2.4.1-2.7 2.2-2.7 4.5" style="fill-rule:evenodd;clip-rule:evenodd;fill:#fff"/><path class="st0" d="M239.8 440h5v-4.5h-5zM266.1 440h5v-4.4l-5-.1z"/></svg>