<svg version="1.1" id="Layer_1" xmlns="http://www.w3.org/2000/svg" x="0" y="0" width="612" height="792" style="enable-background:new 0 0 612 792" xml:space="preserve"><style>.st0{fill:#636266}.st1{fill:#f27007}.st2{fill:#e4b017}.st4{fill:#fff}</style><path class="st0" d="M279.2 243.8h-2.1v-16.2h-5.7v-1.9H285v1.9h-5.8zM293.6 230c.6 0 1.1 0 1.6.1l-.2 1.9c-.6-.1-1.1-.2-1.5-.2-1.1 0-2 .4-2.8 1.3-.8.9-1.2 2-1.2 3.3v7.3h-2v-13.5h1.7l.2 2.5h.1c.5-.9 1.1-1.6 1.8-2 .7-.5 1.5-.7 2.3-.7M306.2 243.8l-.4-1.9h-.1c-.7.8-1.3 1.4-2 1.7-.7.3-1.5.5-2.5.5-1.3 0-2.4-.3-3.2-1-.8-.7-1.1-1.7-1.1-3 0-2.7 2.2-4.2 6.6-4.3l2.3-.1v-.8c0-1.1-.2-1.8-.7-2.4-.5-.5-1.2-.8-2.2-.8-1.1 0-2.4.3-3.8 1l-.6-1.6c.7-.4 1.4-.6 2.2-.9.8-.2 1.6-.3 2.4-.3 1.6 0 2.8.4 3.6 1.1.8.7 1.2 1.9 1.2 3.4v9.2h-1.7zm-4.6-1.5c1.3 0 2.3-.4 3-1.1.7-.7 1.1-1.7 1.1-2.9v-1.2l-2 .1c-1.6.1-2.8.3-3.5.8-.7.4-1.1 1.1-1.1 2.1 0 .7.2 1.3.7 1.7.3.3 1 .5 1.8.5zM321.3 243.8V235c0-1.1-.3-1.9-.8-2.5-.5-.5-1.3-.8-2.4-.8-1.4 0-2.5.4-3.1 1.1-.7.8-1 2-1 3.8v7.1h-2v-13.5h1.7l.3 1.9h.1c.4-.7 1-1.2 1.8-1.6.8-.4 1.6-.5 2.5-.5 1.6 0 2.9.4 3.7 1.2.8.8 1.2 2 1.2 3.8v8.8h-2zM336.4 240.1c0 1.3-.5 2.2-1.4 2.9-.9.7-2.3 1-4 1-1.8 0-3.2-.3-4.2-.9v-1.9c.6.3 1.3.6 2.1.8.7.2 1.5.3 2.2.3 1.1 0 1.9-.2 2.5-.5.6-.3.9-.9.9-1.6 0-.5-.2-1-.7-1.4-.5-.4-1.3-.8-2.7-1.3-1.3-.5-2.2-.9-2.7-1.2-.5-.3-.9-.7-1.2-1.2-.3-.4-.4-1-.4-1.6 0-1.1.4-2 1.3-2.6.9-.6 2.1-1 3.7-1 1.5 0 2.9.3 4.3.9l-.7 1.7c-1.4-.6-2.6-.8-3.7-.8-1 0-1.7.2-2.2.5-.5.3-.7.7-.7 1.3 0 .4.1.7.3.9.2.3.5.5.9.7.4.2 1.2.6 2.4 1 1.6.6 2.7 1.2 3.3 1.8.5.5.7 1.3.7 2.2M338.7 236h6.1v1.9h-6.1zM362.5 243.8h-2.4l-9.9-15.2h-.1c.1 1.8.2 3.4.2 4.9v10.3h-1.9v-18.1h2.4l9.8 15.1h.1c0-.2-.1-.9-.1-2.1-.1-1.2-.1-2.1-.1-2.6v-10.4h2v18.1zM379 237c0 2.2-.6 3.9-1.7 5.2-1.1 1.2-2.6 1.9-4.6 1.9-1.2 0-2.3-.3-3.2-.9-.9-.6-1.7-1.4-2.2-2.4-.5-1.1-.8-2.3-.8-3.7 0-2.2.6-3.9 1.7-5.2 1.1-1.2 2.6-1.8 4.6-1.8 1.9 0 3.4.6 4.5 1.9 1.1 1.1 1.7 2.8 1.7 5m-10.3 0c0 1.7.3 3 1 4 .7.9 1.7 1.4 3.1 1.4 1.3 0 2.4-.4 3.1-1.4.7-.9 1-2.2 1-4 0-1.7-.3-3-1-3.9-.7-.9-1.7-1.3-3.1-1.3-1.3 0-2.4.4-3 1.3-.8.8-1.1 2.1-1.1 3.9zM388.9 230c.6 0 1.1 0 1.6.1l-.3 1.9c-.6-.1-1.1-.2-1.5-.2-1.1 0-2 .4-2.8 1.3-.8.9-1.2 2-1.2 3.3v7.3h-2v-13.5h1.7l.2 2.5h.1c.5-.9 1.1-1.6 1.8-2 .7-.5 1.5-.7 2.4-.7M397.5 242.3c.4 0 .7 0 1-.1.3-.1.6-.1.8-.2v1.6c-.2.1-.6.2-1 .3-.4.1-.8.1-1.2.1-2.6 0-3.9-1.4-3.9-4.1v-8h-1.9v-1l1.9-.9.9-2.9h1.2v3.1h3.9v1.6h-3.9v8c0 .8.2 1.4.6 1.9.4.4.9.6 1.6.6M411.4 243.8V235c0-1.1-.3-1.9-.8-2.5-.5-.5-1.3-.8-2.4-.8-1.4 0-2.5.4-3.1 1.2-.7.8-1 2-1 3.8v7.1h-2v-19.2h2v5.8c0 .7 0 1.3-.1 1.7h.1c.4-.6 1-1.2 1.7-1.5.7-.4 1.6-.6 2.5-.6 1.7 0 2.9.4 3.7 1.2.8.8 1.2 2 1.2 3.7v8.8h-1.8zM423.5 244c-2 0-3.6-.6-4.7-1.8-1.2-1.2-1.7-2.9-1.7-5.1 0-2.2.5-3.9 1.6-5.2 1.1-1.3 2.5-1.9 4.3-1.9 1.7 0 3 .6 4 1.7s1.5 2.6 1.5 4.4v1.3h-9.3c0 1.6.4 2.8 1.2 3.6.8.8 1.8 1.2 3.2 1.2 1.5 0 2.9-.3 4.3-.9v1.8c-.7.3-1.4.5-2.1.7-.6.1-1.4.2-2.3.2m-.5-12.3c-1.1 0-2 .4-2.6 1.1-.6.7-1 1.7-1.1 2.9h7.1c0-1.3-.3-2.3-.9-3-.6-.7-1.5-1-2.5-1zM438.3 230c.6 0 1.1 0 1.6.1l-.3 1.9c-.6-.1-1.1-.2-1.5-.2-1.1 0-2 .4-2.8 1.3-.8.9-1.2 2-1.2 3.3v7.3h-2v-13.5h1.7l.2 2.5h.1c.5-.9 1.1-1.6 1.8-2 .7-.5 1.5-.7 2.4-.7M451.8 243.8V235c0-1.1-.3-1.9-.8-2.5-.5-.5-1.3-.8-2.4-.8-1.4 0-2.5.4-3.1 1.1-.7.8-1 2-1 3.8v7.1h-2v-13.5h1.7l.3 1.9h.1c.4-.7 1-1.2 1.8-1.6.8-.4 1.6-.5 2.5-.5 1.6 0 2.9.4 3.7 1.2.8.8 1.2 2 1.2 3.8v8.8h-2z"/><path class="st1" d="m473.4 224.1-7.3 19.7h-3l7.4-19.7z"/><path class="st2" d="m481.4 224.1-7.3 19.7h-3l7.4-19.7z"/><path class="st0" d="M279.3 274.1h-2.1v-16.2h-5.8v-1.8H285v1.8h-5.7zM293.7 260.3c.6 0 1.1 0 1.6.1l-.3 1.9c-.6-.1-1.1-.2-1.5-.2-1.1 0-2 .4-2.8 1.3-.8.9-1.2 2-1.2 3.3v7.3h-2v-13.5h1.7l.2 2.5h.1c.5-.9 1.1-1.6 1.8-2 .7-.4 1.5-.7 2.4-.7M306.2 274.1l-.4-1.9h-.1c-.7.8-1.3 1.4-2 1.7-.7.3-1.5.5-2.5.5-1.3 0-2.4-.3-3.2-1-.8-.7-1.1-1.7-1.1-3 0-2.7 2.2-4.2 6.6-4.3l2.3-.1v-.8c0-1.1-.2-1.8-.7-2.4-.5-.5-1.2-.8-2.2-.8-1.1 0-2.4.3-3.8 1l-.6-1.6c.7-.4 1.4-.6 2.2-.9.8-.2 1.6-.3 2.4-.3 1.6 0 2.8.4 3.6 1.1.8.7 1.2 1.9 1.2 3.4v9.2h-1.7zm-4.6-1.4c1.3 0 2.3-.4 3-1.1.7-.7 1.1-1.7 1.1-2.9v-1.2l-2 .1c-1.6.1-2.8.3-3.5.8-.7.5-1.1 1.1-1.1 2.1 0 .7.2 1.3.7 1.7.4.3 1 .5 1.8.5zM321.3 274.1v-8.8c0-1.1-.3-1.9-.8-2.5-.5-.5-1.3-.8-2.4-.8-1.4 0-2.5.4-3.1 1.1-.7.8-1 2-1 3.8v7.1h-2v-13.5h1.7l.3 1.9h.1c.4-.7 1-1.2 1.8-1.5.8-.4 1.6-.5 2.5-.5 1.6 0 2.9.4 3.7 1.2.8.8 1.2 2 1.2 3.8v8.8h-2zM336.5 270.4c0 1.3-.5 2.2-1.4 2.9-.9.7-2.3 1-4 1-1.8 0-3.2-.3-4.2-.9v-1.9c.6.3 1.3.6 2.1.8.7.2 1.5.3 2.2.3 1.1 0 1.9-.2 2.5-.5.6-.3.9-.9.9-1.6 0-.5-.2-1-.7-1.4-.5-.4-1.3-.8-2.7-1.3-1.3-.5-2.2-.9-2.7-1.2-.5-.3-.9-.7-1.2-1.2-.3-.4-.4-1-.4-1.6 0-1.1.4-2 1.3-2.6.9-.6 2.1-1 3.7-1 1.5 0 2.9.3 4.3.9l-.7 1.7c-1.4-.6-2.6-.8-3.7-.8-1 0-1.7.2-2.2.5-.5.3-.7.7-.7 1.3 0 .4.1.7.3.9.2.3.5.5.9.7.4.2 1.2.6 2.4 1 1.6.6 2.7 1.2 3.3 1.8.4.6.7 1.3.7 2.2M338.8 266.4h6.1v1.9h-6.1zM362.6 274.1h-2.4l-9.9-15.2h-.1c.1 1.8.2 3.4.2 4.9v10.3h-1.9V256h2.4l9.8 15.1h.1c0-.2-.1-.9-.1-2.1-.1-1.2-.1-2.1-.1-2.6V256h2v18.1zM379 267.3c0 2.2-.6 3.9-1.7 5.2-1.1 1.2-2.6 1.9-4.6 1.9-1.2 0-2.3-.3-3.2-.9-.9-.6-1.7-1.4-2.2-2.4-.5-1.1-.8-2.3-.8-3.7 0-2.2.6-3.9 1.7-5.2 1.1-1.2 2.6-1.8 4.6-1.8 1.9 0 3.4.6 4.5 1.9 1.2 1.2 1.7 2.9 1.7 5m-10.3 0c0 1.7.3 3 1 4 .7.9 1.7 1.4 3.1 1.4 1.3 0 2.4-.4 3.1-1.4.7-.9 1-2.2 1-4 0-1.7-.3-3-1-3.9-.7-.9-1.7-1.3-3.1-1.3-1.3 0-2.4.4-3 1.3-.7.9-1.1 2.2-1.1 3.9zM388.9 260.3c.6 0 1.1 0 1.6.1l-.3 1.9c-.6-.1-1.1-.2-1.5-.2-1.1 0-2 .4-2.8 1.3-.8.9-1.2 2-1.2 3.3v7.3h-2v-13.5h1.7l.2 2.5h.1c.5-.9 1.1-1.6 1.8-2 .8-.4 1.6-.7 2.4-.7M402.4 272.3h-.1c-.9 1.4-2.4 2.1-4.2 2.1-1.8 0-3.1-.6-4.1-1.8-1-1.2-1.5-2.9-1.5-5.2 0-2.2.5-4 1.5-5.2 1-1.2 2.4-1.9 4.1-1.9 1.8 0 3.2.7 4.2 2h.2l-.1-1-.1-1v-5.5h2V274h-1.7l-.2-1.7zm-4.1.3c1.4 0 2.4-.4 3-1.1.6-.8.9-2 .9-3.7v-.4c0-1.9-.3-3.3-1-4.1-.6-.8-1.7-1.2-3.1-1.2-1.2 0-2.1.5-2.8 1.4-.6.9-1 2.3-1 4 0 1.7.3 3 .9 3.9.9.8 1.9 1.2 3.1 1.2z"/><path class="st1" d="M190.4 226.4c-7-9.3-18.1-15.3-30.7-15.3-21.2 0-38.3 17.2-38.3 38.3 0 21.2 17.2 38.3 38.3 38.3 12.5 0 23.7-6 30.7-15.3-4.8-6.4-7.7-14.4-7.7-23s2.9-16.6 7.7-23"/><path class="st2" d="M221.1 211c-12.5 0-23.7 6-30.6 15.3 4.8 6.4 7.7 14.4 7.7 23s-2.9 16.6-7.7 23c7 9.3 18.1 15.3 30.6 15.3 21.2 0 38.3-17.2 38.3-38.3 0-21.1-17.2-38.3-38.3-38.3"/><path d="M190.4 226.4c-4.8 6.4-7.7 14.4-7.7 23s2.9 16.6 7.7 23c4.8-6.4 7.7-14.4 7.7-23s-2.9-16.6-7.7-23" style="fill:#f24129"/><path class="st4" d="M155 238.4h-9.2v-5.1h24.8v5.1h-9.2v27H155zM210.2 233.3h7.9l12.2 24h.1v-24h6.1v32.1h-7.8l-12.3-24h-.1v24h-6.1z"/></svg>