<svg xmlns="http://www.w3.org/2000/svg" width="359" height="360" style="enable-background:new 0 0 359 360" xml:space="preserve"><path d="M182.6 243.5V22.7h-25.2v32.5h-45.8v188.3zM268.6 107.3l66.8 136.2h1.4V22.7h-9.4zM281.2 22.7h-59.7v93.8h.6zM29.5 55.2h43.1v188.2H29.5zM241.9 138.1h-.6l-19.8 31.4v74h71.3zM42.8 314.3c2 6.3 7.8 10.5 14.5 10.5 5 0 9.7-1.9 12.3-4.8h14.6c-3.4 9.8-14.8 17.7-26.4 17.7-16 0-29-12.9-29-28.9 0-16.3 12.7-29.7 29.2-29.7 15.7 0 28.2 13.5 28.2 28.9 0 2.1-.4 4.2-.7 6.3H42.8zm30-11.7c-2.2-6.5-8.2-10.5-15-10.5-6.5 0-13.3 4.2-15.3 10.5h30.3zM89.4 281h14.7l12.8 36.1 12.6-36.1h14.6l-22.2 55h-10.3zM161.8 314.3c2 6.3 7.8 10.5 14.5 10.5 5 0 9.7-1.9 12.3-4.8h14.6c-3.4 9.8-14.8 17.7-26.4 17.7-16 0-29-12.9-29-28.9 0-16.3 12.7-29.7 29.2-29.7 15.7 0 28.2 13.5 28.2 28.9 0 2.1-.4 4.2-.7 6.3h-42.7zm30-11.7c-2.2-6.5-8.2-10.5-15-10.5-6.5 0-13.3 4.2-15.3 10.5h30.3zM213.7 281h12.2v5.1h.2c3.3-4.6 9.2-6.9 15-6.9 5.7 0 11.7 2.6 15.7 6.9.5.5 1 1 1.4 1.6 4.3 5.9 4.4 12.8 4.4 19.8V336h-13.2v-25.9c0-4.3 0-9.7-2.3-13.4-1.9-2.9-5.4-4.6-8.7-4.6-3.6 0-7.4 1.9-9.2 4.9-2.4 3.8-2.2 9.7-2.2 14.1V336h-13.2v-55zM275.2 292.7h-6.5V281h6.5v-18.4h13.2V281h7.9v11.7h-7.9V336h-13.2zM324.9 296.1c-.4-2.6-2.6-4-5.1-4-2.9 0-5.3 1.7-5.2 4.7-.1 3.7 4.8 4.6 7.4 5.4 8.8 2.7 17.2 5.6 17.2 16.7 0 5.2-1.9 9.6-5.6 13.2-3.7 3.4-9.2 5.8-14.3 5.8-11.2 0-19.5-7.7-19.9-19h13.5c.7 3.5 3.1 6.1 7 6.1 3.2 0 6.1-1.8 6.1-5.3 0-4.6-5.8-5.9-9.3-7.1-4.1-1.3-6.5-2-9.9-4.8-3.6-3-5.3-6.9-5.3-11.5 0-10.2 8.8-17 18.5-17 9.1 0 17.8 7.4 17.8 16.9h-12.9z"/></svg>