<svg version="1.1" id="Layer_1" xmlns="http://www.w3.org/2000/svg" x="0" y="0" width="612" height="792" style="enable-background:new 0 0 612 792" xml:space="preserve"><style>.st0{fill:#004677}.st1{fill:#fff}</style><path class="st0" d="M166.5 141.9h12.3v28.2H193v-28.2h9.1l4.6.3v-5.7h-34.6l-5.6-.2v5.6zM388.3 136.5l-9.3 12.2-9.2-12.2h-18v.2c2.3.9 3.6 2.3 4.9 3.9l11.6 14.3v.1h.2v15.1h14.3l-.1-15.2 14-18.2v-.2h-8.4zM432 152.2c-3.1-1.8-6.6-2.7-10.4-3.8-2.9-.8-7.4-1.8-7.4-4.2 0-2.4 3.8-3.3 6.8-3.3 3.9 0 7.7 1 11 2.4v-6c-4-1-8.7-1.5-13.1-1.5-4.8 0-9.6.6-13.6 2.4-3.6 1.7-5.8 4.5-5.8 7.4 0 11.4 23.8 10.1 23.8 16.4 0 2.9-4.8 3.6-8.3 3.6-4.6 0-9.7-1.1-13.8-2.8v6.1c4.8 1.2 10 1.8 15.1 1.8 5.6 0 10.5-.5 15.1-2.6 4.1-2 6.2-4.9 6.2-8.2.2-3.3-1.8-5.6-5.6-7.7zM338.7 136.5h-14.4v33.6h29.6v-5.6c-2.1.5-4.4.8-7 .8-2.8 0-5.7-.1-8.2-.9v-27.9zM222.2 151.8c0-5.2 4.1-11 13.3-11 10.7 0 14.3 8.3 14.3 14.1 0 2.5-.5 5.1-2.9 7.1-2.5 2.2-6.3 3.6-10.4 3.6-4.5 0-8.4-1.9-10.6-4.4-2.2-2.5-3.7-6.4-3.7-9.4zm-15.2 1.4c0 10.7 12.4 17.5 28.5 17.5 15.9 0 29.4-6.5 29.4-17.6 0-11.2-12-17.4-28.5-17.4-15.9 0-29.4 6.7-29.4 17.5zM300.7 170.1h17.1c-3.1-2-5.3-4.1-7.4-6.4l-9.3-10.2c5.2-1.4 9.3-4.2 9.3-8.1 0-3.4-2.3-6.1-7-7.8-3.5-1.2-6.6-1.2-10.5-1.2h-20.6V170h14.3v-14.4l10 11.1c1.3 1.7 2.5 2.5 4.1 3.4zM286.6 153v-11.5h1.6c1.6 0 3.3.1 4.6.7 2.1 1 3.2 2.7 3.2 4.3-.1 3.2-3.7 5.9-9.4 6.5z"/><path class="st1" d="M166.5 444.3h12.3v28.2H193v-28.2h9.1l4.6.3V439h-34.6l-5.6-.2v5.5zM388.3 438.9l-9.3 12.2-9.2-12.2h-18v.2c2.3.9 3.6 2.3 4.9 3.9l11.6 14.3v.1h.2v15.1h14.3l-.1-15.2 14-18.2v-.2h-8.4zM432 454.6c-3.1-1.8-6.6-2.7-10.4-3.8-2.9-.8-7.4-1.8-7.4-4.2 0-2.4 3.8-3.3 6.8-3.3 3.9 0 7.7 1 11 2.4v-6c-4-1-8.7-1.5-13.1-1.5-4.8 0-9.6.6-13.6 2.4-3.6 1.7-5.8 4.5-5.8 7.4 0 11.4 23.8 10.1 23.8 16.4 0 2.9-4.8 3.6-8.3 3.6-4.6 0-9.7-1.1-13.8-2.8v6.1c4.8 1.2 10 1.8 15.1 1.8 5.6 0 10.5-.5 15.1-2.6 4.1-2 6.2-4.9 6.2-8.2.2-3.3-1.8-5.6-5.6-7.7zM338.7 438.9h-14.4v33.6h29.6v-5.6c-2.1.5-4.4.8-7 .8-2.8 0-5.7-.1-8.2-.9v-27.9zM222.2 454.3c0-5.2 4.1-11 13.3-11 10.7 0 14.3 8.3 14.3 14.1 0 2.5-.5 5.1-2.9 7.1-2.5 2.2-6.3 3.6-10.4 3.6-4.5 0-8.4-1.9-10.6-4.4-2.2-2.6-3.7-6.5-3.7-9.4zm-15.2 1.3c0 10.7 12.4 17.5 28.5 17.5 15.9 0 29.4-6.5 29.4-17.6 0-11.2-12-17.4-28.5-17.4-15.9.1-29.4 6.7-29.4 17.5zM300.7 472.5h17.1c-3.1-2-5.3-4.1-7.4-6.4l-9.3-10.2c5.2-1.4 9.3-4.2 9.3-8.1 0-3.4-2.3-6.1-7-7.8-3.5-1.2-6.6-1.2-10.5-1.2h-20.6v33.6h14.3V458l10 11.1c1.3 1.7 2.5 2.6 4.1 3.4zm-14.1-17.1v-11.5h1.6c1.6 0 3.3.1 4.6.7 2.1 1 3.2 2.7 3.2 4.3-.1 3.3-3.7 6-9.4 6.5z"/><g><path class="st1" d="M202.5 507.3c1.1.7 3.2 1.4 4.9 1.4 2.1 0 3.1-.9 3.1-2.1 0-1.3-.8-1.9-3.1-2.8-3.7-1.3-5.3-3.3-5.3-5.5 0-3.3 2.8-5.9 7.3-5.9 2.1 0 4 .5 5.1 1.1l-1 3.4c-.8-.5-2.4-1.1-4-1.1-1.7 0-2.7.8-2.7 2s.9 1.8 3.3 2.7c3.5 1.2 5.1 3 5.1 5.8 0 3.5-2.7 6-7.8 6-2.3 0-4.4-.6-5.8-1.3l.9-3.7zM218.4 498.4c0-2.2-.1-4-.2-5.6h4.1l.2 2.8h.1c.9-1.5 2.7-3.2 5.9-3.2 2.5 0 4.5 1.4 5.3 3.5h.1c.7-1 1.5-1.8 2.3-2.4 1.1-.7 2.3-1.1 3.9-1.1 3.2 0 6.4 2.1 6.4 8.2v11.2h-4.7v-10.5c0-3.2-1.1-5-3.4-5-1.7 0-2.9 1.2-3.4 2.5-.2.5-.2 1.1-.2 1.6v11.4h-4.7v-11c0-2.7-1.1-4.5-3.3-4.5-1.8 0-3 1.4-3.5 2.7-.2.5-.2 1-.2 1.6v11.2h-4.7v-13.4zM266.2 507.2c0 1.7.1 3.4.3 4.6h-4.4l-.3-2.1h-.1c-1.2 1.5-3.2 2.5-5.6 2.5-3.9 0-6-2.7-6-5.6 0-4.8 4.3-7.2 11.4-7.2v-.4c0-1.3-.5-3.3-3.9-3.3-1.9 0-3.8.6-5.1 1.4l-1-3.1c1.4-.9 3.9-1.7 6.9-1.7 6.1 0 7.9 3.8 7.9 8v6.9zm-4.7-4.8c-3.4 0-6.7.7-6.7 3.6 0 1.9 1.2 2.7 2.8 2.7 1.9 0 3.3-1.2 3.8-2.6.1-.3.1-.7.1-1v-2.7zM290.4 487.8v5.1h4.6v3.6h-4.6v8.3c0 2.3.6 3.5 2.5 3.5.9 0 1.3-.1 1.9-.2l.1 3.7c-.7.3-2 .5-3.5.5-1.8 0-3.3-.6-4.2-1.6-1-1.1-1.5-2.8-1.5-5.3v-8.8h-2.3v-3.7h2.3v-3.6l4.7-1.5zM311.7 511.7v-15.3h-2.6v-3.6h2.6v-.2c0-2.5.7-4.9 2.3-6.5 1.4-1.3 3.3-1.8 5-1.8 1.3 0 2.3.2 3.1.5l-.3 3.7c-.5-.2-1.2-.3-2.1-.3-2.4 0-3.2 2-3.2 4.3v.4h4.2v3.6h-4.2v15.3h-4.8zM325.5 484.7h4.8v27h-4.8v-27zM342.8 512.2c-5.4 0-9.6-3.7-9.6-9.8 0-6.2 4.1-10.1 9.9-10.1 5.7 0 9.5 4 9.5 9.7.1 7-4.9 10.2-9.8 10.2zm.2-3.5c2.8 0 4.7-2.7 4.7-6.5 0-3-1.3-6.4-4.7-6.4-3.4 0-4.8 3.3-4.8 6.4 0 3.7 1.8 6.5 4.8 6.5zM364.6 512.2c-5.4 0-9.6-3.7-9.6-9.8 0-6.2 4.1-10.1 9.9-10.1 5.7 0 9.5 4 9.5 9.7 0 7-4.9 10.2-9.8 10.2zm.1-3.5c2.8 0 4.7-2.7 4.7-6.5 0-3-1.3-6.4-4.7-6.4-3.4 0-4.8 3.3-4.8 6.4.1 3.7 1.9 6.5 4.8 6.5zM390.1 507.3c1.1.7 3.2 1.4 4.9 1.4 2.1 0 3.1-.9 3.1-2.1 0-1.3-.8-1.9-3.1-2.8-3.8-1.3-5.3-3.3-5.3-5.5 0-3.3 2.8-5.9 7.3-5.9 2.1 0 4 .5 5.1 1.1l-1 3.4c-.8-.5-2.4-1.1-4.1-1.1-1.7 0-2.7.8-2.7 2s.9 1.8 3.3 2.7c3.5 1.2 5.1 3 5.1 5.8 0 3.5-2.7 6-7.8 6-2.3 0-4.4-.6-5.8-1.3l1-3.7zM281.6 492.5c-.3-.1-.6-.1-.9-.1-2.1 0-4.3 1.2-5.2 3.9h-.1l-.2-3.5H271c.1 1.7.2 3.4.2 6v12.9h4.8v-9.8c0-.5 0-1 .1-1.4.4-2.2 2-3.7 4.3-3.7.5 0 .9 0 1.2.1v-4.4zM387.7 492.5c-.3-.1-.5-.1-.9-.1-2.1 0-4.3 1.2-5.2 3.9h-.1l-.2-3.6H377c.1 1.7.2 3.6.2 6.1v12.9h4.8v-9.8c0-.5 0-1 .1-1.4.4-2.2 2-3.7 4.3-3.7.5 0 .9 0 1.2.1v-4.4z"/></g></svg>