<svg version="1.1" id="Layer_1" xmlns="http://www.w3.org/2000/svg" x="0" y="0" width="576" height="504" style="enable-background:new 0 0 576 504" xml:space="preserve"><style>.st1{fill:#fff}</style><path d="M205.5 409.2c33.9 26.5 76.7 42.4 123.2 42.4 110.4 0 199.9-89.4 199.9-199.6 0-110.2-89.5-199.6-199.9-199.6-41.7 0-80.4 12.7-112.5 34.5 0 0-4.1-2.6-5.1-3.6 0 0-1.7-.3-4.7.7s-4.2 1.3-5.2 3.5-2.6 6.2-3.9 7.7c-1.3 1.5-3.7 2.7-4.7 2.7s-1.3-.5-2.1-.6c-.8-.1-4.5.2-6.9 2-2.4 1.7-3.4 4.1-3.4 4.1s-4.6-.9-7.4-2.9c-2.8-2-6.3-1.6-8.9.8-2.6 2.3-4.3 5.2-5.3 7.3-1 2-1.2 3.5-1.2 5.1.1 1.6.5 4.3.3 5.4 0 0-3.7 3.1-6.8 4.7-3.1 1.7-7.2 4.3-7.3 7.2-.1 2.9 2.1 5.3 3.4 6.7 1.3 1.4 3.8 2.9 3.8 2.9s-1.2 1.4-2.4 1.7c-1.2.3-3.7.2-4.8.5-1.1.2-2.7-.2-4.4-1.7-1.7-1.5-4.2-4.7-4.2-4.7s-2.4-.2-5.2.4c-2.8.6-4.7 2.2-4.7 2.2s-4.5.1-6.1-2.1c-1.5-2.3-3.2-3.7-4.6-4.4-1.5-.7-3-.8-4-.8s-5.7 1-8.7 3.1c-3 2-4.7 2.8-7.8 2.9-3.1.1-5.8-.5-7.9-.2-2.1.3-3.8 1.1-4.4 4-.7 2.8-.8 5.2-.9 6-.1.7 0 1.7 0 1.7s-5.4-.1-6.4.1-2.7.5-2.7.5 0 2.2.5 4.2c.5 2.1 1.2 2.9.9 4.3s-1.2 2.2-2.2 3.2c-1 1-1.3 2-1.3 3.3 0 0-3.6.1-4.6.1-1 0-2.5.6-4 2-1.5 1.3-3.9 2.7-5.6 5.6-1.7 2.9-1.7 5.8-1 8s3.3 6.8 3.3 6.8 4.1 1.6 5.9 1.7c1.8.1 3.4.1 4.5-.4s2.9-1.3 5-1.5c2.1-.2 3.8 1.5 5.3 2.6 1.5 1.2 3.6 2.5 6.3 2.7 2.7.2 5.2-1.5 6.4-2.3 1.2-.8 2.8-1.6 4.2-1.7 1.4-.1 9.1.6 12.6 1.1s5 1.1 7.2 2.4c2.1 1.3 6.1 4.3 9.2 7.3 3.2 3 6.3 6.5 7.8 8.3 1.5 1.9 2.6 3.5 3.1 4.6.5 1 .6 2.1.6 2.1s-5 0-8.5.6c-3.4.6-6.3 3.1-6.9 3.9-.6.7-1.9 1.3-3.4 1.2-1.5-.1-5.5-1.6-8.2-2.1-2.8-.4-4.5-.6-5.8-.1-1.3.5-4.8.2-6-.2-1.2-.4-5.3-1.2-8.4-1.5-3.1-.2-9.3-.4-11.2-.4-1.9 0-4.3-.1-5.1 1-.9 1.1-.4 2.2-.4 2.2s-2.2 1.8-4.1 1.8c-1.9 0-4.5.5-6.9 1.8-2.4 1.3-4.8 2.7-5.6 3.1-.8.4-3.3 2.7-3 5.4.3 2.7 2.9 4.2 5.2 4.1 0 0-.2 4.6.5 7.3s1.7 6.7 1.8 9.5-.2 6.1-2 8.8c-1.8 2.8-5 6.1-6.7 8.3-1.6 2.2-3.6 6.5-3.6 10 0 3.6.4 5.5 1.5 6.8 0 0-.3 2.3.4 4.1.6 1.9 3.2 3.6 4.8 4.7 1.6 1.1 5.2 3.3 6.6 3.6 1.4.3 8.4.5 8.4.5s2.3 2.5 3.2 4.6c.9 2.1 3.3 5 4.9 6 1.6 1 4.5 1.3 6.9.8 2.3-.5 3.6-1.2 6.7-1.3 3.2 0 5.3 1.4 10.4.8 5-.6 8.2-2.3 9.6-3.9 1.4-1.6 2.5-4.5 2.7-5.9.2-1.4 1.8-3.9 4.6-4.3 2.8-.5 5.6 0 8.4-1.2 2.8-1.1 5.4-4.2 6.9-4.9 1.5-.7 6.1-1.3 8.1-1.5 1.9-.2 7.5-.6 9.5-3.2 0 0 9.9 9.7 15.1 13.9 5.2 4.1 9.7 7.4 11.3 8.5 1.6 1 1.9 1.4 2 1.6.1.2-.4 1.2-.4 1.2l1.3-.1s1.9 5.7 2.6 8.1c.7 2.4 1.7 6.5 2.1 9 .3 2.5.4 5.7.1 8-.3 2.3-.9 4.8-.4 7 .5 2.1 2.1 6.2 3 8.3.9 2.1 1.7 3.9 1.9 4.9.2 1-.9 7.2-1.2 9.7-.3 2.5-1.7 7.4-3.1 10-1.4 2.5-3.5 4.6-4.9 6.2-1.5 1.6-5.2 4.7-5.2 4.7s-3.7.3-6.2 1.2c-2.5.9-8.4 2.5-10.4 3-2 .4-5.2.3-6.4.4-1.3 0-3 .8-3 .8s.8 1.7 1.5 1.9c.7.1 2.2-.1 2.2-.1l-.6 1.5s5 .7 10.6-.1c5.5-.8 11-2.1 15.7-2 4.6.1 9.5 2.5 10.8 4.1 1.3 1.6 4.1 5.7 5.9 6.8 0 0-3.1 4.3-5.4 6.8-2.3 2.5-6.4 6.8-7.2 7.6-.8.8-1.9 1.6-1.9 1.6v2.1s5.5-.4 8.5-1.6c3-1.2 5.8-2.8 8.1-4.8s3.5-4 3.5-4 1 .6 2.3.1c.9-.5 2.3-1.7 2.3-1.7z" style="fill:none;stroke:#000;stroke-width:2.3;stroke-linecap:round;stroke-linejoin:round"/><path d="M328 65.2c-36.6 0-70.5 10.6-99.5 29v.6c.3.1 5.3.8 9 .1 3.9-.7 9.1-3.5 11.6-4.1 2.5-.6 4.6-.7 7.2.7 2.6 1.4 4.4 3.6 4.6 5 .2 1.4-.8 5.2-.6 6 .3.8 2.3 1.8 3 2.2.7.4 3.6.3 4.3.3.7 0 .8-1.2 2.1-1.5 1.3-.3 3.3.3 5 1.7 1.7 1.4 4.2 3.3 5.2 3.5 1 .2 2.7-2.8 3.4-3.8.7-1 2.6-2.3 6.8-1.5 4.1.8 8 3.6 10.1 5.8 2.1 2.1 1.7 5.6 1.6 7.3-.1 1.6 1.7 4.4 3.5 7 1.7 2.7 1.8 4.5 2 6.7.1 2.1 3.5 4.2 6.7 5 3.2.8 6.8 2.7 7.7 5.5.9 2.8.1 6.8.1 6.8h.7c2.7-1.1 5.3-1.2 11.9-.5 6.6.7 11.1 5.2 11.1 5.8s-1.3 2.1-1.3 2.1l2.9 5.1h8c8.9.5 12.5 5.7 11.5 11.6-.9 5.9-6.4 8.4-6.4 8.4l8.3 15-11.8 1.8c0 .4 2.2 7.4 2.2 9 0 1.6-3.1 5.3-3.1 5.3s-.6 0-1 .2-1.6 1.3-2.8 3.4c-1.2 2.1-5.5 5.5-10.6 8.2-5.1 2.6-9.6 2.5-11.4 2.9-1.8.3-3.7 2.2-5.2 3.5-1.4 1.3-.9 1.7.7 1.7s5.5-2.4 8.5-2.2c2.9.1 4.5.7 7.4 1.1s5.1-1.3 6.8-2.7c1.7-1.4 4.5-2.3 6.4-2.3 1.8 0 1.7.1 2.1.6.3.5 1.7.9 2.8 1.7 1.1.7 1.8 1.7 1.8 1.7 1.9 3.3.4 6.2 2.9 7.4 2.5 1.2 5 .5 9-.1 4-.7 7.9-.7 12.8.4 5 1 7 3.5 8.1 6.3 1.1 2.8 1.1 3.8.1 4.8s-2.3 3.1-2.6 3.7c-.3.6.1 1 .5 1.1.4.2 1.5.7 1 1.7s-2.2 3.1-1.9 4.6c.3 1.5 2.5 3.5 3.8 5.3 1.3 1.9.3 5.7-.3 8.3-.6 2.6-2 2.9-2 2.9l-2.7.1s-1.7 2.2-1.4 3.8c.3 1.7 2.9 4.5 3.1 6.2.2 1.7-5.2 2.9-7.8 3.4-2.6.4-13.4 1.5-19 4.5-5.5 3-5.1 9.1-5.1 9.1s-1.3.1-3.2.7c-1.9.6-5.7 2-8.4 1.9-2.7-.1-3.9-2.8-5.8-4.8-1.8-1.9-5.2-.7-6.5-.3-1.2.3-6.1 2.5-7.6 2.4-1.5-.2-3.7-1.4-4.8-2.1-1.1-.6-2.4-2.3-3.5-5s-3.4-3.1-4.5-3.4c-1.1-.3-2.6-.8-2.6-.8-1.1 5.5-5.1 7.4-7.6 8.8-2.5 1.4-9.7 5.3-12.7 8.1-2.9 2.8-4.5 8.1-4.8 9-.3 1-9.6 10.6-12.6 13.7-3.1 3.1-6.7 7.7-8 9.3-1.3 1.7-8.4 3-11.1 4.2-2.7 1.3-4.9 1.8-6.8 5.5-1.9 3.6-5.5 11.9-5.9 13.5-.3 1.6-.5 3.1-.2 4.2s2.8 5.5 3.3 7.8.2 7.1.2 8.3c0 1.2 2.3 3.5 4 4.2 1.7.8 3.9 2.3 6.6 6.2 2.8 3.9 8.5 15.1 8.5 15.1s-.3 1.1-1 1.5c-.6.4-1.5.5-1.5.5l-3-3.4-2 .9c-1.1-1.1-10-11.7-10-11.7s-8.7-.7-14.3-.6c-5.6.1-10.8 2.5-11.9 2.9-1 .4-5.4 2.7-5.4 2.7 30.7 23.1 69.2 37.2 111.1 37.2 103.9 0 187.8-83.6 187.8-186.7.1-103.1-83.7-187-187.6-187z"/><path d="M309.5 250.4s3.8 1.9 5.7 3.5c2 1.6 4.7 3.2 4.7 3.2s-1.8 4.7-6.1 8.3c0 0 1.1 2.6 2.1 4.1 0 0-3.2 3.4-5.3 5.4-2 2-3.7 5.6-3.7 5.6s-2.5.3-4.3.2c-1.7-.1-3.9 0-4.6.4-.6.3-4.1 1.9-4.4 2.1-.3.2-1.3.5-1.3.5s.2 2.8 1.4 4.1c0 0-5 2.9-6.2 3.9-1.1 1-4.6 4.1-4.6 4.1h-1.6s.8-11.1 3-16.4c2.2-5.3 4.1-7.4 6.3-9.8 2.2-2.4 9.4-8.4 12-10.9 2.7-2.7 6.2-6.8 6.9-8.3z"/><path d="m303.7 249.5 2.6-.1s-7.5 9.7-8.7 11.3c-1.2 1.6-8.2 7.8-10.8 10.5-2.6 2.8-6.4 7.9-6.8 12-.4 4 .5 9.3.1 11.9-.4 2.6-3.3 5.2-5.7 6.8-2.4 1.6-5.1 3.8-5.1 3.8l.4 1-.6.3-1.2.2s-3 2.1-7.1 7.5-5.7 6.6-7.6 7.5-4.9 1.9-6 2.4c-1.1.5-1.8 1.5-1.8 1.5h-.9s-.6-4 3.1-12.5 12.1-17 13.6-18.6c1.5-1.6 9.1-9.8 11.9-14.2 2.8-4.5 8.3-15.5 9.7-18 1.4-2.5 6.6-11.4 6.6-11.4h.6s-.5 3.5 1.6 4.4c2.6.9 8.5-1.9 12.1-6.3zM258.7 223.6l5.6.3.1 2.5s0 1.7 1.5 2.2c1.5.5 10.6 2.4 13.6 3 3 .6 4.5.3 4.5.3s-.9 2.1-1.9 3.7c-1 1.7-2.8 5.3-3.7 7.5-.8 2.2-3.8 7.2-5.6 10.1-1.8 2.9-6.6 10.6-8.6 14-1.9 3.4-4.6 9.7-4.6 9.7l-.9.1s-1.5-2.6-1.3-7c.2-4.4-.2-16.8.7-24.2.9-7.3.8-15.5.8-17.9 0-2-.2-4.3-.2-4.3zM212.5 225.6l-1 4.5s1.2 3.7 5.4 8.5c4.2 4.7 8.8 8.2 10.2 11.3 0 0 1.3-1 2.3-5.5.9-4.5 1.8-16.9 2-21.1.2-4.2.1-9 .1-9l-3-.2s-2.3 1-4.4 4.1c-2 3-3.3 5.2-4.9 6-1.7.7-6.7 1.4-6.7 1.4zM203.5 239.3s.8 5.3 3.2 11.1c2.4 5.8 3.9 9.4 4.6 12.1.7 2.7.6 4.2.6 4.2s-3.3-3.1-9-6.3c-5.8-3.2-15.4-5.6-15.6-5.7-.2-.1-2.9-.7-2.9-.7s6.6-7.2 8.9-9.5c2.3-2.3 3-3 3-3.2v-.4s1.9-2.1 7.2-1.6zM182.1 256.9s7 1.5 8.2 1.7c1.2.2 3.3 1.9 5.3 2.6 2.1.8 5.8 1.6 7.7 1.9 1.9.3 5.2 3.5 7.1 6.3 1.8 2.8 2.9 5 3.4 5.8.5.8 3.1 5.2 3.1 5.2s.6.9.5 2.3c-.1 1.4-.7 13.3-.7 13.3s-4.1 5.3-5 6.8c-.8 1.5-1.4 2.4-2.6 3.1-1.3.7-6.6 1.8-9.2.3-2.6-1.5-4.5-3.4-6.6-6-2.1-2.6-3.1-5.5-4.8-7.6-1.7-2-2.7-3.3-2.7-3.3l-.7.3-.7-1.9-.3.4s-6.3-6-7.2-7.2c-.9-1.2-4.1-4.4-4.1-4.4s-5.2-4.7-6.3-6c0 0 1.8-3.9 2.2-6.7.4-2.8.7-5.6.7-5.6s2.7 2.3 6.3 1.8c3.9-.5 6.4-3.1 6.4-3.1zM122.7 188.7l10.5 9.7 7.5 7.3s-.1-2.5 1-3.7c1.1-1.2 3-.4 4.7-.4 1.7 0 3.7-.6 4.6-1.8.9-1.2 2.2-1.9 4.3-2.9 2.1-.9 3.4-1.5 3.5-2.5.2-1 .2-1.6.2-1.6s3.5 0 3.4-1.8c0-1.8-2.3-4.4-4.5-5.1-2.2-.7-4.8-1.1-5.1-2.2-.3-1.1-.4-3.9-.4-3.9s-1.6.7-3.3.6c-1.7-.1-4.2-1.2-6.8-.8-2.6.5-4.9 1.4-5.2 1.4h-2.7s.7 3.1.2 4.4c-.5 1.4-1.7 2.3-3.6 2.3-1.9 0-2.7-.2-4.2.4-1.3.7-4.1.6-4.1.6z"/><g><path class="st1" d="m378.1 207-1.3 3.2s-7.3-1.8-8.4 3.9c-1.1 5.7 3.3 8.3 8.7 6.8l1.1 3.5s-6.1 2-10.3-.4c-4.2-2.4-5.7-4.9-5.4-9.8.3-4.9 6.9-10.6 15.6-7.2zM389.4 205.9c-5.5 0-9.3 4.3-9.2 9.7.1 6.1 4.1 9.8 9.2 9.7 6-.1 9.2-4.3 9.2-9.7-.1-5.4-3.4-9.7-9.2-9.7zm0 15.4c-1.8.1-3.3-1.5-3.3-5.8 0-3.2 1-5.8 3.3-5.8 2.5 0 3.3 2.6 3.3 5.8.1 3.3-.6 5.7-3.3 5.8zM459.9 205.9c-5.5 0-9.3 4.3-9.2 9.7.1 6.1 4.1 9.8 9.2 9.7 6-.1 9.2-4.3 9.2-9.7 0-5.4-3.3-9.7-9.2-9.7zm0 15.4c-1.8.1-3.3-1.5-3.3-5.8 0-3.2 1-5.8 3.3-5.8 2.5 0 3.3 2.6 3.3 5.8.1 3.3-.6 5.7-3.3 5.8zM416.1 206.3l-3.7 11.4-3.8-11.4H402v18.6h4.4v-12.4l4.2 12.4h2.5l4.2-12.6v12.6h5.1v-18.6zM440.6 206.3l-3.6 11.4-3.8-11.4h-6.6v18.6h4.3v-12.4l4.3 12.4h2.5l4.2-12.6v12.6h5.1v-18.6zM484.5 206.3v10.2l-8-10.2h-4V225h4.6v-10.3l8.3 10.3h3.4v-18.7zM504 207.3l-1.5 2.9s-2.5-1.4-3.9-.3c-1.4 1.1 1.2 2.7 2.1 3.5s3.1 2.6 3.8 4.8c.7 2.2-.2 5.3-3.2 6.5-3 1.2-7.5.6-9.6-1.2l1.8-3.2s2.1 2.1 4.3 1.3c2.3-.8 1.2-2.7-.4-4.3-1.6-1.5-3.8-2.9-4.6-4.8-.9-1.9 0-4.9 2.8-6 2.9-1.1 6.2-.6 8.4.8z"/></g><g><path class="st1" d="M469.5 189.6v-28.8h-10.7v35.3h23.8v-6.5zM441.4 189.6v-28.8h-10.6v35.3h23.8v-6.5zM412.1 160.8h10.5v35.3h-10.5zM393.3 160.8v12.4h-11.4v-12.4h-10.5v35.3h10.5v-16h11.4v16h10.5v-35.3z"/></g><g><path d="M203.6 160.8h10.5v35.3h-10.5zM199.4 160.7h-31.2v6.6h10.3v28.8H189v-28.8h10.4zM249.5 160.8l-7 21.2h-.4l-7.2-21.2h-12.6v35.3h8.2V172l8.3 24.1h4.5l8.3-24.1v24.1h10v-35.3zM290.3 176.9s6.9-2.4 7-7.4c.1-5-3.4-8.9-13.3-8.9h-14.3v35.5h16.7s11.3.1 12.8-8.6-7-10.5-8.9-10.6zm-10-10.6c4.3-.1 7.5.1 7.4 4.4-.1 4.3-5.3 4.1-5.3 4.1h-2.1v-8.5zm8.4 19.7c-.3 4.5-5.5 4.6-5.5 4.6h-2.9v-10.3h3c3.2.3 5.7 1.2 5.4 5.7zM316.3 189.5V181h10.5v-6.8h-10.5v-7h10.8v-6.6h-21.7v35.5h24.1v-6.6zM357.4 180.5s6.9-2.4 6.7-9.9c-.2-7.5-5.9-10-13.4-9.9h-15.1v35.4h10.5v-13.7h2.9l5.8 14.3h11.9l-9.3-16.2zm-7.9-4h-3.4v-9.7h3.4c2.7 0 4.7 2.1 4.7 4.7-.1 2.7-2.1 5-4.7 5z"/></g></svg>