<svg xmlns="http://www.w3.org/2000/svg" width="240" height="240" style="enable-background:new 0 0 240 240" xml:space="preserve"><path d="m125.4 107.2-3.9-3h14.7v31.6h-10.9v-28.6zm-8.9.8 5-12.7h67v49.5h-137V95.3h57.7l2.1-5.4H46.1V150.2h147.7V89.9h-77.2l-2.1 5.4-3.5 8.9-.6 1.4-7.1 18.1-7.2-18.7.3-.9H80.9l4.7 3.7 1.4 3.5-4.9 12.4-7.6-19.6h-15l4.8 3.7 10.8 27.9h9.2l6.1-15.7 6 15.7h9.2l10.9-27.7zm54.3-3.8c1 0 1.8.2 2.7.5.8.4 1.6.8 2.2 1.5.6.6 1.1 1.3 1.5 2.2.4.8.6 1.7.6 2.7v5.1h-10.9v-3.7c0-.5-.2-1-.6-1.3-.4-.4-.8-.5-1.4-.5h-13.4l1.4 1.1-.1.5v15.4c0 .5.2 1 .6 1.3.4.4.8.5 1.4.5h10.3c.5 0 1-.2 1.4-.5.4-.4.6-.8.6-1.3V124H178v5.1c0 1-.2 1.8-.6 2.7-.4.8-.9 1.6-1.5 2.2-.6.6-1.3 1.1-2.2 1.5-.8.4-1.7.6-2.7.6h-22.1c-1 0-1.8-.2-2.7-.6-.8-.4-1.6-.9-2.2-1.5-.6-.6-1.1-1.3-1.5-2.2-.4-.8-.6-1.7-.6-2.7V111c0-1 .2-1.8.6-2.7.4-.8.9-1.6 1.5-2.2.6-.6 1.3-1.1 2.2-1.5.8-.4 1.7-.5 2.7-.5h21.9z" style="fill-rule:evenodd;clip-rule:evenodd;fill:#c03b2b"/></svg>