<svg version="1.1" id="Layer_1" xmlns="http://www.w3.org/2000/svg" x="0" y="0" width="792" height="612" style="enable-background:new 0 0 792 612" xml:space="preserve"><style>.st0{fill:#010101}</style><path class="st0" d="M190.5 381.4v-17.3h-4.7v-3.5h13.4v3.5h-4.7v17.3h-4zM219.4 368.6v-8.1h4.1v20.8h-4.1v-9.2h-8.8v9.2h-4.1v-20.8h4.1v8.1h8.8zM237 364.1v4.6h7.2v3.5H237v5.6h7.5v3.5H233v-20.8h11.5v3.5H237zM277.3 360.6h5.1l-8.8 9.6 9.3 11.2h-5.3l-7.4-9.4-.5.5v8.9h-4.1v-20.8h4.1v8.8l7.6-8.8zM290.1 360.1h2.8l12.7 14.5v-14h4.1v21.2h-2.8l-12.7-14.5v14.1h-4.1v-21.3zM340.4 371c0 6.2-4.9 10.9-11.2 10.9-6.2 0-11-4.8-11-11 0-5.9 5-10.7 11.2-10.7 6.1-.1 11 4.7 11 10.8zm-18.1-.1c0 4 3.1 7.2 7 7.2 3.8 0 6.9-3.2 6.9-7.2s-3.1-7.2-7-7.2c-3.8.1-6.9 3.3-6.9 7.2zM351.3 381.4v-17.3h-4.7v-3.5H360v3.5h-4.7v17.3h-4zM386.4 374.8l5.1-14.4h2.2l4.8 14.4 5-14.2h4.3l-7.8 21.2h-2.8l-4.6-13.6-4.9 13.6h-2.8l-7.4-21.2h4.3l4.6 14.2zM436.2 371c0 6.2-4.9 10.9-11.2 10.9-6.2 0-11-4.8-11-11 0-5.9 5-10.7 11.2-10.7 6.1-.1 11 4.7 11 10.8zm-18.1-.1c0 4 3.1 7.2 7 7.2 3.8 0 6.9-3.2 6.9-7.2s-3.1-7.2-7-7.2c-3.8.1-6.9 3.3-6.9 7.2zM459.8 381.4h-5l-5.6-8.4h-.5v8.4h-4.1v-20.8h6c2.3 0 4.2.5 5.3 1.5 1.3 1.1 2.1 2.8 2.1 4.7 0 1.9-.7 3.6-1.9 4.6-.8.7-1.6 1.1-2.9 1.3l6.6 8.7zm-9.9-11.2c2.6 0 4-1.1 4-3.2s-1.3-3.1-3.9-3.1h-1.2v6.3h1.1zM471.3 377.9h6.4v3.5h-10.5v-20.8h4.1v17.3zM485.2 360.6h6c3.1 0 5.5.8 7.5 2.4 2.3 1.9 3.7 4.9 3.7 8 0 3.1-1.4 6.1-3.8 8-2 1.7-4.3 2.4-7.4 2.4h-5.9v-20.8zm5.2 17.3c2.6 0 4.3-.5 5.6-1.7 1.4-1.2 2.3-3.2 2.3-5.2s-.8-3.9-2.3-5.2c-1.3-1.2-2.9-1.7-5.6-1.7h-1.1v13.8h1.1zM517.4 374.8l5.1-14.4h2.2l4.8 14.4 5-14.2h4.3l-7.8 21.2h-2.8l-4.6-13.6-4.9 13.6h-2.8l-7.4-21.2h4.3l4.6 14.2zM550 381.4h-4.1v-20.8h4.1v20.8zM559.5 360.6h6c3.1 0 5.5.8 7.5 2.4 2.3 1.9 3.7 4.9 3.7 8 0 3.1-1.4 6.1-3.8 8-2 1.7-4.3 2.4-7.4 2.4h-5.9v-20.8zm5.1 17.3c2.6 0 4.3-.5 5.6-1.7 1.4-1.2 2.2-3.2 2.2-5.2s-.8-3.9-2.2-5.2c-1.3-1.2-2.9-1.7-5.6-1.7h-1.1v13.8h1.1zM589.1 364.1v4.6h7.2v3.5h-7.2v5.6h7.5v3.5h-11.5v-20.8h11.5v3.5h-7.5z"/><path d="M589.9 340.5 566.4 317c-4.9-4.9-4.9-12.9 0-17.8 2.5-2.5 5.7-3.7 8.9-3.7s6.5 1.2 8.9 3.7l5.7 5.7 5.7-5.7c2.5-2.5 5.7-3.7 8.9-3.7s6.5 1.2 8.9 3.7c4.9 4.9 4.9 12.9 0 17.8l-23.5 23.5z" style="fill:#a3cf60"/><g><path class="st0" d="M322.2 267.4h-35.4l-27.2 26.3v-63.6h-25.8v110.4h25.8v-29.7l28.5 29.7h36.3l-38.9-39.4 23.8-21.9v.1l12.9-11.9z"/><path class="st0" d="m420.9 267.4-18.4 39.7-18.4-39.7h-16.2L349.5 306l-17.4-38.6h-.1l-19.6 18 28.4 55.1h17.4l17.5-40 18.2 40h17.5l38.3-73.1zM546 267.4l-18.4 39.7-18.4-39.7h-16.1L474.6 306l-17.4-38.6-14.6 27.8 23.3 45.3h17.5l17.4-40 18.3 40h17.4l38.3-73.1z"/></g><g><path d="M219.6 319.3c-5.1 0-8-2.5-8-8.3v-23.3h15.5v-20.3h-15.5v-22.2h-25.8v22.2h-11v20.3h11v27.1c0 18.9 10 27.2 27.6 27.2 5.4 0 10.6-.9 13.7-2v-22.1c-2.2.8-5 1.4-7.5 1.4z"/></g><path style="fill:none" d="M-174.5 135.2v-.7"/></svg>