<svg version="1.1" id="nursing" xmlns="http://www.w3.org/2000/svg" x="0" y="0" width="252" height="108" style="enable-background:new 0 0 252 108" xml:space="preserve"><style>.st0{fill:#939598}.st1{fill:#00539b}.st2{fill:gray}</style><path class="st0" d="M82.4 28.2c2.1 0 3.6.2 5.4.2 1.9 0 4-.1 5.1-.1 1 0 1.5.2 1.5.6 0 .4-.5.7-1.5.9-1.8.4-2.7.9-3.1 3-.2 1.7-.2 6.9-.2 14.1 0 5.8 1.3 7.9 2.9 9.7 1.4 1.6 4.7 2.6 7.1 2.6 3.4 0 8.1-1.4 9.4-7 .6-2.7 1.1-7 1.1-13 0-3.3-.1-5.7-.2-6.3-.2-1.9-.6-2.6-3.4-3.3-.5-.1-1.2-.5-1.2-.9 0-.3.4-.6 1.3-.6 1.2 0 2.7.2 4.4.2 2.1 0 3.2-.1 4.6-.1.8 0 1.3.2 1.3.6 0 .3-.5.6-1.2.9-2.2.7-3.3 1.5-3.3 4.7-.1 2.3-.4 8-.5 10.6-.3 8.9-2.7 13.1-6.4 15.2-2.3 1.3-5.1 1.6-7.3 1.6-4.6 0-8-1.8-9.3-3-2.9-2.7-4.1-6.3-4.1-14.8 0-6.6-.1-11.5-.2-12.1-.1-1-.8-1.8-2.7-2.2-.6-.2-1.2-.5-1.2-.9.2-.4.8-.6 1.7-.6z"/><path class="st0" d="M116.6 28.3c3.3 0 3.9.1 7.1.1.2 0 .5.5.6.7.6 1.8.9 2.4 1.9 4.6 2.8 5.9 8.5 17.6 9.3 18.6.1.2.4.3.5.2.6-1.2 9.3-17.8 10.3-20.3.1-.3.9-2.1 1.3-3.2.1-.2.4-.7.6-.7 2.2 0 6.3-.2 6.7-.2.7 0 1.4.1 1.4.6 0 .4-.5.7-1.3.9-.8.2-1.6.4-2.3.7-.8.3-1.5 1.3-1.5 3.9 0 13 .5 20.2.7 21.9.3 2.1.8 2.7 3.3 3.4.9.3 1.4.6 1.4 1 0 .5-.7.7-1.5.7-.6 0-4.7-.3-6.6-.3-.9 0-2.9.2-4 .2-.7 0-1.4-.2-1.4-.7 0-.5.7-.8 1.4-1 2.1-.6 2.1-1.8 2.3-3.7.2-2.3.2-16.8.1-19.3 0-.4-.3-.7-.5-.2-.8 1.4-6.2 12.2-8.1 16.2-1.2 2.7-2.3 5.4-3.1 7.3-.6 1.5-.9 1.5-1.2 1.5-.3 0-.7-.5-.9-1-.3-1.2-.9-3-1.9-5.3-2.7-6.7-6.9-15-8.6-18.9-.2-.3-.3-.3-.4.2-.4 2.4-1 14.5-.8 19.3.1 2.6.5 3.4 3.1 4.2 1.1.3 1.3.6 1.3 1s-.6.6-1.4.6c-1.6 0-3.7-.2-5-.2-1.3 0-3 .2-4.2.2-.8 0-1.4-.1-1.4-.7 0-.3.4-.6 1.1-.8 3.1-.9 3.5-1.7 3.9-4.8.5-3.6 1.6-17.7 1.7-21.7 0-.5-.1-2.4-2.2-3l-2.2-.6c-.4-.1-.9-.5-.9-.9 0-.5.3-.5 1.4-.5z"/><path class="st1" d="M157.3 28.3c3.3 0 3.9.1 7.1.1.2 0 .5.5.6.7.6 1.8.9 2.4 1.9 4.6 2.8 5.9 8.5 17.6 9.3 18.6.1.2.4.3.5.2.6-1.2 9.3-17.8 10.3-20.3.1-.3.9-2.1 1.3-3.2.1-.2.4-.7.6-.7 2.2 0 6.3-.2 6.7-.2.7 0 1.4.1 1.4.6 0 .4-.5.7-1.3.9-.8.2-1.6.4-2.3.7-.8.3-1.5 1.3-1.5 3.9 0 13 .5 20.2.7 21.9.3 2.1.8 2.7 3.3 3.4.9.3 1.4.6 1.4 1 0 .5-.7.7-1.5.7-.6 0-4.7-.3-6.6-.3-.9 0-2.9.2-4 .2-.7 0-1.4-.2-1.4-.7 0-.5.7-.8 1.4-1 2.1-.6 2.1-1.8 2.3-3.7.2-2.3.2-16.8.1-19.3 0-.4-.3-.7-.5-.2-.8 1.4-6.2 12.2-8.1 16.2-1.2 2.7-2.3 5.4-3.1 7.3-.6 1.5-.9 1.5-1.2 1.5-.3 0-.7-.5-.9-1-.3-1.2-.9-3-1.9-5.3-2.7-6.7-6.9-15-8.6-18.9-.2-.3-.3-.3-.4.2-.4 2.4-1 14.5-.8 19.3.1 2.6.5 3.4 3.1 4.2 1.1.3 1.3.6 1.3 1s-.6.6-1.4.6c-1.6 0-3.7-.2-5-.2-1.3 0-3 .2-4.2.2-.8 0-1.4-.1-1.4-.7 0-.3.4-.6 1.1-.8 3.1-.9 3.5-1.7 3.9-4.8.5-3.6 1.6-17.7 1.7-21.7 0-.5-.1-2.4-2.2-3l-2.2-.6c-.4-.1-.9-.5-.9-.9-.1-.5.2-.5 1.4-.5z"/><path class="st1" d="M221.6 28.3c1.3.2 3 .8 3.8.9.3.1.8.5.8 1.5 0 1.2.2 3.3.3 4.5.1 1.1-.3 1.7-.8 1.7-.3 0-.6-.6-.8-1.4-.5-1.7-1.4-3.2-2.1-3.7-2.6-2.1-5.3-2.7-8-2.7-8.1 0-13.1 6.7-13.1 14.4 0 3.4.6 6.2 1.7 8.5 2.9 5.8 8.5 8 12.6 8 .9 0 3.4-.1 5.4-1.3 2.1-1.2 3.5-2.7 4.7-4.9.6-1.1.9-1.4 1.1-1.4.6 0 .6 1.1.5 1.7-.2 1.3-1.3 3.9-1.9 5-.2.5-1.1 1.1-1.6 1.4-.8.3-4.8 1.4-9.2 1.4-7.2 0-12.5-3.5-14.6-5.9-1.9-2.2-4.3-5.9-4.3-11.7 0-5.9 3.5-10.4 5.7-12.2 4.3-3.6 9.2-4.6 13.7-4.6 1.8 0 4.1.4 6.1.8z"/><g><path class="st2" d="M35.9 93.1h.2-.2zM70.4 37.2s-.8 6.3-5.2 15.8c-.4 26.6-11.4 34.6-20.6 36h.1c-3.3 1.1-6.6 1.5-10 1.2.5 1 1.1 1.9 1.7 2.9 3.1-.1 7.5-.4 10.5-1-.1 0 32.5-15.6 23.5-54.9z"/><path class="st1" d="m31.6 16.5-7.1-7.7C.8 38.1 2.9 64 14 78.4c-3.2-11.8-5.8-38.5 17.6-61.9zM63.9 33.3 47 27.6c15.8 42.6-3.6 55.6-10.4 59.3-1.5-.5-3-1.2-4.6-2 .8 1.8 1.6 3.6 2.6 5.4 3.3.3 6.7-.1 10-1.2h-.1c9.3-1.5 20.3-9.4 20.6-36 .2-5.8-.2-12.4-1.2-19.8z"/><path d="M32 84.8c-15.1-35.4 8.5-76 8.5-76-3.3 2.5-6.2 5.1-8.9 7.7C8.2 39.9 10.8 66.6 14 78.4c.9 3.4 1.9 5.5 2.4 6 5.3 5.7 12.8 7.7 16.8 8.4 1 .2 1.9.3 2.7.3h.5c-.6-1-1.2-1.9-1.7-2.9-1-1.8-1.9-3.6-2.7-5.4z" style="fill:#b3b3b3"/></g><path style="fill:none;stroke:#00539b;stroke-linecap:round;stroke-miterlimit:10" d="M83.7 68.2H246"/><g><path class="st1" d="M94 77.2c.1 0 .3.4.3.5 0 .4.2 1.9.2 2 0 .4 0 .6-.2.6s-.5-.2-.6-.5c-.3-.8-.9-1.6-1.2-1.7-.5-.4-1.1-.6-1.8-.6-1.5 0-2.7 1.2-2.7 2.8 0 1.6 1.2 2.4 3.3 3.8 2.1 1.3 3.4 2.7 3.4 4.7 0 1.2-.7 2.6-2 3.4-.8.5-2.2.9-3.3.9-.9 0-2.4-.2-3.2-.6-.2-.1-.6-.7-.6-.7-.1-.8-.4-1.9-.4-2.3 0-.1.2-.5.3-.5.2 0 .6.6.9 1.3.6 1.3 2.2 2 3.2 2 1.5 0 2.8-1.1 2.8-2.8 0-1-.5-2.1-2.9-3.6-2.1-1.4-3.6-2.8-3.6-4.8 0-1.2.6-2.3 1.3-3 .8-.7 1.9-1.2 3.6-1.2 1.5-.1 2.7.2 3.2.3zM104.2 83.5c.2.2.4.6.4.8 0 .4-.7 1-.8 1-.2 0-.6-.2-1-.5-.8-.6-1.2-1-2-1-.3 0-1 .3-1.4.7-.6.7-1 1.8-1 2.8 0 1.4.6 2.3.7 2.4.6.9 1.7 1.5 2.9 1.5.8 0 1.5-.3 2.2-.7.2-.2.4-.1.4 0 0 .3-.1.5-.3.7-.8.9-2.2 1.5-3.5 1.5-1.6 0-2.9-.8-3.6-1.9-.4-.7-.8-1.8-.8-2.8 0-1.8.9-3.2 2.4-4.2.9-.6 2.5-1 3.2-1 .6.1 1.7.3 2.2.7zM114.2 84c.5.6.7 1.6.7 2.6l.1 4.4c0 .6.3.8.9.9.5.1.7.3.7.4 0 .2-.2.3-.7.3-.8 0-1.1-.1-1.9-.1h-1.8c-.4 0-.5-.1-.5-.3 0-.1.2-.3.5-.4.6-.2.7-.3.8-1.2V87c0-1.3-.2-2-.4-2.3-.4-.4-1-.7-1.8-.7-1 0-1.7.5-1.8.5-.1.1-.3.4-.4 1.1 0 1.1-.1 4.2 0 5 0 .8.3 1 .9 1.2.3.1.5.2.5.4s-.3.3-.6.3h-2c-.7 0-1.5.1-1.9.1-.2 0-.6-.1-.6-.3 0-.1.2-.3.7-.4.6-.2.9-.5.9-1.3.1-1 .2-4.2.2-6.7 0-1.1 0-5-.1-5.6-.1-.6-.2-.6-.8-1.1-.1 0-.2-.3-.2-.5 0 0 0-.1.1-.1.7-.2 1.9-.5 2.6-.8.1-.1.3-.2.4-.2.1 0 .2.2.2.3-.2 1.8-.3 7.7-.3 8.3 0 .1.1.2.2.1.9-.9 2-1.4 3-1.4 1.1-.1 1.9.4 2.4 1.1zM127.1 87.8c0 2-1.2 3.6-2.1 4.1-1 .7-2 1-3.1 1s-2.3-.5-3.2-1.2c-1-.8-1.8-2.4-1.8-3.7 0-1.8.8-3 1.7-3.7.7-.6 2-1.3 3.6-1.3 2.4-.2 4.9 1.7 4.9 4.8zm-6.8-3.6c-.6.6-1.1 1.8-1.1 3.1 0 .8.1 1.6.3 2.2.6 1.8 1.9 2.6 3 2.6.3 0 .8-.1 1.4-.7.6-.6 1-2.1 1-3.2 0-1.2-.3-2.6-1.1-3.7-.5-.6-1.3-.9-2-.9-.5 0-1 .2-1.5.6zM138.4 87.8c0 2-1.2 3.6-2.1 4.1-1 .7-2 1-3.1 1s-2.3-.5-3.2-1.2c-1-.8-1.8-2.4-1.8-3.7 0-1.8.8-3 1.7-3.7.7-.6 2-1.3 3.6-1.3 2.4-.2 4.9 1.7 4.9 4.8zm-6.9-3.6c-.6.6-1.1 1.8-1.1 3.1 0 .8.1 1.6.3 2.2.6 1.8 1.9 2.6 3 2.6.3 0 .8-.1 1.4-.7.6-.6 1-2.1 1-3.2 0-1.2-.3-2.6-1.1-3.7-.5-.6-1.3-.9-2-.9-.5 0-1 .2-1.5.6zM139.7 76.4c1.1-.4 1.9-.5 2.6-1 .1 0 .2.1.2.2-.1.6-.2 3.8-.2 7.1 0 3.2 0 7.4.1 8.1.1.5.2.8 1.2 1.1.3.1.5.2.5.4s-.3.3-.6.3c-.6 0-1.7-.1-2.1-.1-.6 0-1.6.1-2.1.1s-.7-.1-.7-.3c0-.2.3-.3.5-.4 1-.2 1.1-.6 1.2-1.8.1-1 .1-3.6.1-7.4 0-1.7 0-4.2-.1-4.8 0-.2 0-.3-.6-.7-.4-.3-.5-.4-.5-.5.1 0 .2-.2.5-.3zM159.3 87.8c0 2-1.2 3.6-2.1 4.1-1 .7-2 1-3.1 1s-2.3-.5-3.2-1.2c-1-.8-1.8-2.4-1.8-3.7 0-1.8.8-3 1.7-3.7.7-.6 2-1.3 3.6-1.3 2.4-.2 4.9 1.7 4.9 4.8zm-6.8-3.6c-.6.6-1.1 1.8-1.1 3.1 0 .8.1 1.6.3 2.2.6 1.8 1.9 2.6 3 2.6.3 0 .8-.1 1.4-.7.6-.6 1-2.1 1-3.2 0-1.2-.3-2.6-1.1-3.7-.5-.6-1.3-.9-2-.9-.5 0-1 .2-1.5.6zM166.4 83.2c.2 0 .3.6.3 1 0 .1-.2.3-.4.3s-2.4-.1-2.7-.1c0 0-.2.1-.2.2 0 .5 0 5.6.1 6.1.1.8.3 1.1 1.6 1.3.4.1.6.3.6.4 0 .2-.3.3-.6.3h-2c-1 0-2.3.1-2.5.1-.3 0-.6-.1-.6-.3 0-.1.2-.3.5-.4 1-.3 1-.5 1.1-1.6 0-1 .1-3.9.1-5.2 0-.7-.1-.8-.2-.8h-1c-.1 0-.3-.2-.2-.4 0-.1.6-.4 1.2-.8.2-.1.3-.3.3-.4 0-1.4.2-2.5.6-3.6.5-1.2 1.1-2.1 2.2-2.8 1-.7 1.8-1 2.7-1 .5 0 1.2.1 1.5.5.2.2.5.5.5.8 0 .4-.4 1-.7 1.1-.1 0-.3.1-.5.1s-.3-.1-.7-.5c-.5-.4-1.1-.8-1.7-.8-.6 0-1 .3-1.4.9-.6.9-.8 2.2-.8 5.4 0 .1.1.2.2.2h2.7zM171.6 77.1c.6 0 1.9.1 3.1.1.1 0 .4.2.5.3.4.4 1 1.2 1.9 2.4 1.1 1.4 6.3 6.9 7.8 8.6.1.1.2-.1.2-.2.1-.7 0-3.4 0-6.5 0-.8-.1-1.7-.1-2.4 0-.5-.2-1.1-1.5-1.4-.5-.1-.7-.3-.7-.5s.3-.2.6-.2h2c.9 0 1.7-.1 2.4-.1.4 0 .6.1.6.3 0 .2-.1.4-.6.5-1.1.3-1.4.6-1.5 1.8-.1.8-.3 5.9-.3 9.6 0 1 .2 2.9.2 3.3 0 .2-.2.5-.4.5-.4 0-.9-.5-1.1-.8-.4-.5-.9-1.1-1.5-1.9-2.3-2.7-6.3-7.3-8.5-9.8-.1-.1-.3 0-.3 0 0 .6-.1 1.3-.1 3.2 0 2.4-.1 5.7 0 6.5.1 1 .3 1.4 1.5 1.8.5.1.6.3.6.4 0 .2-.3.3-.8.3-.7 0-1.6-.1-2.5-.1h-1.7c-.3 0-.6 0-.6-.3 0-.2.2-.4.5-.4 1.1-.4 1.6-.5 1.7-2.3.1-2.1.5-7.6.5-9.6 0-.9-.1-1.1-.2-1.2-.6-.7-.8-.8-2-1.1-.3-.1-.5-.2-.5-.4 0-.3.3-.4.8-.4zM195.6 90.8c.1-.1.3-.5.3-.6v-5.5c0-.1-.2-.5-.4-.5-.4-.1-.8-.3-1.1-.3-.2 0-.5-.2-.5-.4 0-.1.3-.2.5-.2 1 0 2.1-.1 2.7-.3.2-.1.4-.1.6-.1.1 0 .2.3.2.4 0 .7-.2 6.2-.2 7.9 0 .1.1.4.3.4.2 0 .9-.1 1.2-.1.1 0 .3.4.3.5 0 .1-.2.2-.3.2-.6 0-1.7.3-2.2.5-.4.1-.9.2-.9.2-.1 0-.3-.2-.3-.3 0-.1.1-.6.1-1 0-.1-.1-.2-.1-.1-.6.5-1.6 1.1-1.9 1.2-.4.2-.9.3-1.6.3-.9 0-1.7-.4-2.2-1.2-.2-.3-.3-.8-.3-1.2V85c0-.7-.5-.8-.9-.9-.2-.1-.4-.2-.4-.5 0-.1.1-.2.4-.2.7 0 2.6-.3 2.7-.3.1 0 .2.2.2.4 0 1-.1 5.4-.1 6.5 0 .5.3 1 .6 1.3.6.4 1 .5 1.6.5.5-.2 1.1-.5 1.7-1zM201.2 83.7c.8-.3 1.6-.6 1.9-.8.3-.2.4-.3.5-.3.1 0 .2.2.2.3v1.3c0 .1.1.1.1.1.9-.9 2-1.5 2.7-1.5 1 0 1.2.6 1.2.8 0 .1-.1.2-.1.4-.3.4-.9 1.1-1 1.2 0 0-.3 0-.4-.1-.3-.2-.9-.6-1.4-.6-.4 0-.7 0-.9.3-.2.2-.2.4-.2.5 0 .5.1 4.8.1 5.1 0 .7.2 1.2.6 1.2.3 0 .7.2 1.1.3.4.1.5.3.5.4 0 .1-.2.2-.6.2-.6 0-1.6-.1-3-.1-.7 0-1 .1-1.6.1-.3 0-.5-.1-.5-.3 0-.1.3-.2.5-.3.9-.3 1-.6 1-2v-4.5c0-.3 0-.6-.2-.8-.5-.4-.8-.6-.8-.7 0 .2.1-.1.3-.2zM213.3 83c.3 0 .7.2.8.3.1 0 .2.2.2.4 0 .4.1 1.3.1 1.4 0 .2-.1.5-.3.5-.1 0-.3-.2-.4-.5-.5-1.1-1.2-1.6-1.9-1.6-.9 0-1.4.9-1.4 1.4 0 .8.8 1.4 2.3 2.3 1.5.9 2 1.7 2 2.8 0 1.1-.8 1.9-1.4 2.4-.5.3-1.4.6-2.1.6-.7 0-1.9-.2-2.4-.5-.1-.1-.4-1.1-.4-1.8 0-.3.1-.5.2-.5.2 0 .4.3.5.6.7 1.3 1.4 1.7 2.2 1.7.3 0 .7-.1 1-.4.4-.3.6-.8.6-1.3 0-.6-.3-1.1-1.1-1.5-.6-.4-.8-.6-1.5-1-.7-.5-1.5-1.3-1.5-2.5 0-.9.4-1.7 1.3-2.2.5-.3 1.2-.5 2-.5.4-.3.9-.2 1.2-.1zM215.9 92.7c-.4 0-.6-.1-.6-.3 0-.1.2-.3.6-.4.6-.2.9-.5 1-.7.1-.3.1-1.8.1-2.7v-3.4c0-.2-.3-.4-1-.9-.1-.1-.2-.2-.2-.3 0-.2.2-.4.5-.4.9-.2 2.1-.7 2.5-.8.1 0 .2.2.2.3 0 .4-.1 3.5-.1 4.9v3c0 .7.5.8 1.1 1 .4.1.5.3.5.4 0 .2-.3.3-.6.3-.2 0-1.4-.1-1.9-.1-.8 0-1.7.1-2.1.1zm3.2-13.5c0 .7-.7 1.2-1.2 1.2-.2 0-.6-.1-.8-.3-.2-.2-.4-.5-.4-.9 0-.2.1-.6.3-.9.3-.2.6-.4 1-.4.7.1 1.1.8 1.1 1.3zM222.3 83.6c.4-.1 1.3-.5 1.7-.7.3-.2.5-.3.6-.3.1 0 .2.3.2.4 0 .4-.1 1-.1 1.2 0 .1.1.1.1.1 1-.7 2.2-1.3 3.2-1.3 1.2 0 1.8.5 2.2.9.6.6.8 1.7.8 2.9 0 .5 0 4 .1 4.4 0 .4.3.7.9.8.5.1.6.3.6.4 0 .2-.3.3-.7.3H228.3c-.3 0-.6-.1-.6-.3 0-.2.3-.3.6-.4.6-.2.7-.4.7-1.2v-4.4c0-.8-.4-1.5-.6-1.7-.3-.2-1-.5-1.5-.5-1 0-1.6.3-2 .7-.1.1-.2.4-.2.6v5.8c0 .3.1.5.9.7.2.1.4.2.4.4s-.3.3-.6.3h-1.5c-.9 0-1.6.1-2 .1-.4 0-.6-.1-.6-.3 0-.2.2-.3.5-.4.8-.2.9-.5 1-1.3.1-.7.1-2.8.1-5.2 0-.3-.1-.5-.6-.9-.3-.2-.4-.3-.4-.4 0-.4.3-.7.4-.7zM239.9 83.1c.3 0 .5.1.6.1.6 0 2.3.1 2.8.2.1 0 .2.2.2.3 0 .4-.4.8-.5.8h-1.6c-.1 0-.2.1-.1.2.1.3.2.7.2 1.2 0 1.3-.4 2.3-1.3 3-1.1.8-2.1.9-2.7.9h-1.2c-.2.1-.7.6-.7.8 0 .6.7 1 1 1 1.1 0 3.7.1 4.4.2.2 0 .7.2 1.2.6.7.6 1 1.5 1 2.1 0 1.8-1.3 3-2.3 3.7-1.3.8-2.6 1-3.5 1-1 0-2-.2-3-.9-.7-.5-1.1-1.4-1.1-2.1 0-1 .5-1.3.7-1.5.6-.5 1.3-1 1.6-1.2v-.2c-.2-.1-.6-.2-1-.5-.5-.3-.8-1-.8-1.8l.1-.2c.3-.3 1.4-.9 1.8-1.3 0 0 0-.1-.1-.2-.7-.4-1.8-1.3-1.8-3 0-1.2.5-2 1.4-2.7.7-.5 1.6-.8 2.6-.8.9 0 1.4.1 2.1.3zm.3 14.6c.9-.6 1.3-1.5 1.3-2.2 0-.3-.1-.9-.4-1.2-.2-.3-.7-.6-1.3-.7-.7-.1-1.4-.1-2.4-.1-.7 0-1.1.2-1.3.3-.7.5-1 1.3-1 1.9 0 .7.4 1.3.9 1.8.6.5 1.5.7 2.3.7.9-.1 1.6-.3 1.9-.5zm-3.8-13.8c-.4.4-.6 1.1-.6 2.1 0 1.2.8 3 2.3 3 .2 0 .5-.1.8-.3.6-.4.8-1.5.8-2.5 0-.4-.1-1.3-.5-1.8-.5-.6-1-1-1.6-1-.5 0-1 .2-1.2.5z"/><g><path class="st1" d="M228.7 29.8h-1.1v-.4h2.7v.4h-1.1v3.3h-.5v-3.3zM233.9 31.4c0-.5-.1-1.1-.1-1.6-.1.4-.3.9-.5 1.4l-.7 1.8h-.4l-.6-1.8c-.2-.5-.3-1-.4-1.4 0 .5 0 1.1-.1 1.6L231 33h-.5l.3-3.7h.6l.6 1.8c.2.5.3.9.4 1.2.1-.4.2-.8.4-1.2l.7-1.8h.6l.2 3.7h-.3l-.1-1.6z"/></g></g></svg>