<svg version="1.1" id="Layer_1" xmlns="http://www.w3.org/2000/svg" x="0" y="0" width="216" height="216" style="enable-background:new 0 0 216 216" xml:space="preserve"><style>.st0{fill:#49176d}</style><path class="st0" d="M92 80.4c.4-.7.1-1.7 0-1.8l.4-.1.6 1 .1.4-.1.5.1.6.1.5.1.5-.3.8c-.3-.9-.7-1.6-1-2.4m-.2-4.7-.8.4c-.1 0-.8.7-1.1.5l.5-1.3.8-2.1c0-.1.4 1 .8.8.6-.2 1.2-.3 1.1-.2l-.4 1.1-.5.4-.4.4m-4.7 1.8h.4-.4zm57.7 4.3h5.7v-4.3h-19.4c-2.7 6.7-14.4 32.8-19.9 44.8-5-10.5-12.8-27.5-17.9-39 .4-.1.9-.4 1-1.1l.1-.6.4-1c0-.1-.2-2-1-3.3l.2-.3.7-.6c.1-.2.7 1.9 1.6 2 .5-.1 1.2-2.6 1.2-2.6.1 1.2 1.5 1.6 1.6 1.2.5-1.8 1.7-1.5 1.7-1.5s6.3 7.4 10.3 10.7c2.4 2.1 1.5-.4 1.5-.4s3.8 4.5 4.4 4.2c.6-.3 0-1.9 0-1.9s2.6 2.2 3.2 1.3c-5.2-7.7-8.8-13.8-8.8-13.8s6.2 6.2 7.5 6.4c1.1.2-9.8-13.3-10-15 0 0 2.5 1.7 2.6 1.4.2-.9-4.4-7.7-6.6-16-.8-3-2.8-8.9-8.4-9.3-2.1-.1-2.7-1.6-2.7-1.6-.8-2.1.8-3.5.8-3.5l2-.5c.1 0 .5.6.6.9 0 0 1.3-2.5-1.7-4l-1-.4s-.7-2.5-5.6-1.7c-1.7.3-4.4 1.3-6.2 5.1-1 2-1.1 2-1.2 2.2l.6.3s-.9 1.5-1.2 2.2l.7.1-.6 1.5c-.9.4-7.6.8-3 13.1 2.8 7.6 9 11.6 9.7 11.6.4 0-.1-1.7-.2-2.3l2.5 2.6c.1.1-1.3 1.6-1.3 2.3 0 .5 1-.1.8.2-.5.8-1.4 1.4-1.3 2l1.2-.2-.7 1.8-.3.7-.4.4h-1.8l-.5.2c-.7.2-.9.9-.9.9h-.7c-.3 0-.3 0-.6.1l-.5.4H70.3v4.3h5.8c2.9 0 4.5 1.2 4.6 4.3V129c-.2 4.3-1.4 5.5-5.5 5.5h-5.1v4.4h26.1v-4.4h-5.8c-4.1 0-5.2-1.4-5.4-5.5V86.6c6.2 13 17.1 36.8 22 48.2h3L132.2 86v43.2c-.1 3.5-1.2 5.2-5.2 5.2h-5.3v4.4h28.8v-4.4h-5.2c-4.1 0-5.1-1.8-5.2-5.2V86.6c0-3.5 1.5-4.8 4.7-4.8M31.4 154.8c0-.9-.3-1.2-1.1-1.2h-1.2v-1s2.2.1 3.4.1c1.2 0 3-.1 3.4-.1v1h-1.1c-.9 0-1.3.3-1.3 1.2v6.7c0 3.8 1.5 5.1 4.2 5.1s4.2-1.1 4.2-5.1v-6.6c0-.9-.4-1.2-1.2-1.2h-1.1v-1s1.9.1 3 .1 2.6-.1 3-.1v1h-1.1c-.8 0-1.2.4-1.2 1.3v6.4c0 4.2-1.8 6.4-5.8 6.4-4.1 0-6.1-1.9-6.1-6.5 0-.1.1-5.4 0-6.5M59.3 163.9v-9.2c0-.9-.4-1.2-1.2-1.2h-1.4v-1c.3 0 2.1.1 3.2.1 1.2 0 3.1-.1 3.2-.1v1h-1.4c-.8 0-1.2.3-1.2 1.2v12.6h-1.4c-1.9-2.8-5.8-8.6-8.4-12.3v10.2c0 .7.3 1 1.3 1h1.3v1.1h-6.4v-1.1h1.3c1 0 1.3-.3 1.3-1 0-1.3.1-9.5 0-10.6 0-.8-.4-1.1-1.1-1.1H47v-1h4.6c1.7 2.8 5.5 8.3 7.7 11.4M64.2 166.2h1.3c1 0 1.2-.2 1.2-.9v-10.7c0-.8-.3-1.1-1.1-1.1h-1.4v-1s2.3.1 3.5.1c1.3 0 3.2-.1 3.5-.1v1h-1.4c-.8 0-1.1.2-1.1 1.1-.1 1.1 0 9.4 0 10.7 0 .7.3.9 1.2.9h1.2v1.1h-7l.1-1.1zM80.6 165.5c1.2-3 2.9-7.8 3.6-10.2.3-1.1.2-1.8-1-1.8h-.8v-1s2 .1 3 .1 2.6-.1 2.8-.1v1h-.6c-1.2 0-1.6.5-2.2 1.8-1.2 2.8-3.6 9.1-4.6 12h-1.6c-.9-2.9-3.1-9.4-4.2-12.3-.4-1.1-.7-1.5-1.9-1.5h-.5v-1s2 .1 3.2.1c1.2 0 3.2-.1 3.4-.1v1h-.9c-.9 0-1.4.5-1 1.6.6 2.6 2.2 7.6 3.3 10.4M98.1 156.5h1c0 1.2-.1 1.7-.1 3.3 0 1.6 0 2.3.1 3.4h-.9v-.3c0-1.9-.6-2.7-2.7-2.7H94v5c0 .7.4 1 1 1h3.9c2.5 0 3.2-1.1 3.2-4.3h1.1c-.1 1.4-.2 3.8-.2 5.4-1-.1-3.2-.1-4.1-.1h-9.5v-1.1h1.5c.9 0 1.2-.4 1.2-1.1v-10.6c0-.7-.3-1-1.1-1h-1.7v-1H99c.9 0 3 0 4-.1-.1 1.4-.1 3.8 0 5.1h-1c0-3.1-.6-3.9-3.1-3.9H95c-.6 0-.9.3-.9.9v4.8h1.7c1.8 0 2.5-.6 2.5-2.6v-.1zM117.8 166.6c1 0 1.3-1.3.8-3.7l.8-.1c.6 2.6.3 4.9-2.2 4.9-2.4 0-3-1.3-3.2-4-.1-2.7-1-3.2-2.9-3.2h-1.8v4.6c.1.8.4 1.1 1.2 1.1h1.1v1h-7v-1.1h1.2c1 0 1.4-.3 1.4-1.1v-10.5c0-.8-.3-1.1-1.1-1.1h-1.4v-1h7.1c3.7 0 5.5 1.3 5.5 3.9 0 2.1-1.6 3.6-3.5 3.8 1.6.4 2.2 1.4 2.4 3.1.5 2.9.9 3.4 1.6 3.4m-8.4-6.9h2c2.5 0 3.8-.8 3.8-3.2 0-2.1-.9-3-3.5-3h-1.5c-.6 0-.8.3-.8.8.1.6 0 3 0 5.4M123.1 155.7c0 1.6 1.2 2.3 4.3 2.8 3.9.6 5.2 2 5.2 4.7s-2 4.5-5.3 4.5c-1.7 0-2.8-.4-3.9-1-1-.6-1.3-.1-1.4.8h-.9c.3-1.6.4-3.4.2-5h.9c.5 2.8 2 4.3 5 4.3 2.6 0 3.9-1.1 3.9-2.8 0-1.9-1.4-2.6-4.8-3.1-3.2-.5-4.7-1.9-4.7-4.2 0-2.4 1.6-4.4 4.9-4.4 1.7 0 2.8.6 3.2.8 1 .5 1.2.2 1.3-.6h.9c-.3 1.4-.4 3.3-.2 4.8h-.9c-.4-2.7-1.9-4-4.5-4-2.1-.2-3.2.9-3.2 2.4M134.1 166.2h1.3c1 0 1.2-.2 1.2-.9v-10.7c0-.8-.3-1.1-1.1-1.1h-1.4v-1s2.3.1 3.5.1c1.3 0 3.2-.1 3.5-.1v1h-1.4c-.8 0-1.1.2-1.1 1.1-.1 1.1 0 9.4 0 10.7 0 .7.3.9 1.3.9h1.2v1.1h-7v-1.1zM150.4 153.6v11.5c0 .8.2 1.2 1.2 1.2h1.3v1.1h-7.1v-1.1h1.3c1 0 1.3-.4 1.3-1.2v-11.5H146c-1.4 0-2 .6-2 1.9 0 .2-.1 2-.1 2.2h-1.1c0-1.3 0-3.9-.1-5.2.6.1 1.7.1 3 .1h7.5c1.6 0 2.3 0 2.9-.1-.1 1.3-.1 3.9-.1 5.2h-1c0-.2-.1-2-.1-2.2-.1-1.2-.6-1.9-2-1.9h-2.5zM166.3 162.2v3c0 .8.1 1.1 1.3 1.1h1.5v1.1h-7.6v-1.1h1.5c1.1 0 1.3-.3 1.3-1.1v-3c-1.1-2.1-2.9-5.5-3.8-7.2-.6-1-1.2-1.4-2.5-1.4h-.5v-1s2.4.1 3.7.1c1.3 0 3.7-.1 3.7-.1v1h-1.1c-1.3 0-1.5.6-1.1 1.4.6 1.4 2.3 4.4 3.2 6 .9-1.7 2.4-4.5 3.1-6 .4-.8.4-1.4-1-1.4h-1v-1s2.1.1 3.3.1c1.2 0 3.3-.1 3.3-.1v1h-.7c-1.6 0-2.1.3-2.8 1.5-1 1.7-2.8 5-3.8 7.1M35 175.6v10.2c0 1 .3 1.3 1.3 1.3h1.4v1.1h-6.4v-1.1h1.2c1 0 1.3-.3 1.3-1.3v-10.3c0-.7-.4-1.1-1.1-1.1h-1.4v-1h4.9c1.1 2.6 3.5 7.8 4.9 10.7 1.3-2.9 4.1-9.1 4.8-10.7h4.7v1h-1.4c-.8 0-1.1.3-1.2 1.2v10.2c0 .8.3 1.3 1.3 1.3h1.3v1.1h-7.1v-1.1H45c1 0 1.2-.4 1.3-1.3v-10.4c-1.2 2.6-4.6 9.9-5.3 11.7h-.6c-1.2-2.7-3.9-8.4-5.4-11.5M52.4 180.8c0-5 3-7.8 7.2-7.8 4.7 0 7.2 3 7.2 7.7 0 5.1-3 7.8-7.2 7.8-4.7 0-7.2-2.8-7.2-7.7m12-.1c0-4.7-1.6-6.8-4.9-6.8-3 0-4.9 2.1-4.9 6.8 0 4.9 1.7 6.8 4.9 6.8 3.2.1 4.9-2.1 4.9-6.8M79.6 184.7v-9.2c0-.9-.4-1.2-1.2-1.2H77v-1c.3 0 2.1.1 3.2.1 1.2 0 3.1-.1 3.2-.1v1H82c-.8 0-1.2.3-1.2 1.2v12.6h-1.4c-1.9-2.9-5.8-8.6-8.4-12.3V186c0 .7.3 1 1.3 1h1.3v1.1h-6.4V187h1.3c1 0 1.3-.3 1.3-1 0-1.3.1-9.5 0-10.6 0-.8-.4-1.1-1.1-1.1h-1.5v-1h4.6c1.8 2.8 5.7 8.4 7.8 11.4M92.8 174.5V186c0 .8.2 1.2 1.2 1.2h1.3v1.1h-7.1v-1.1h1.3c1 0 1.3-.4 1.3-1.2v-11.5h-2.4c-1.4 0-2 .6-2 1.9 0 .2-.1 2-.1 2.2h-1.1c0-1.3 0-3.9-.1-5.2.6.1 1.7.1 3 .1h7.5c1.6 0 2.3 0 2.9-.1-.1 1.3-.1 3.9-.1 5.2h-1.1c0-.2-.1-2-.1-2.2-.1-1.2-.6-1.9-2-1.9h-2.4zM109.3 177.3h1c0 1.2-.1 1.7-.1 3.3 0 1.6 0 2.3.1 3.4h-.9v-.3c0-1.9-.6-2.7-2.7-2.7h-1.4v5c0 .7.4 1 1 1h3.9c2.5 0 3.2-1.1 3.2-4.3h1c-.1 1.4-.2 3.8-.2 5.4-1-.1-3.2-.1-4.1-.1h-9.5v-1.1h1.5c.9 0 1.2-.4 1.2-1.1v-10.6c0-.7-.3-1-1-1h-1.7v-1h9.7c.9 0 3 0 4-.1-.1 1.4-.1 3.7 0 5.1h-1c0-3.1-.6-3.9-3.1-3.9h-3.9c-.6 0-.8.3-.9.9v4.8h1.7c1.8 0 2.5-.6 2.5-2.6v-.1zM123.2 186.4c1.2-3 2.9-7.8 3.6-10.2.3-1.1.2-1.8-1-1.8h-.8v-1s2 .1 3.1.1c1 0 2.6-.1 2.8-.1v1h-.6c-1.2 0-1.6.5-2.2 1.8-1.2 2.9-3.6 9.1-4.6 12h-1.6c-.9-2.9-3.1-9.4-4.2-12.3-.4-1.1-.7-1.5-1.9-1.5h-.5v-1s2 .1 3.2.1c1.2 0 3.2-.1 3.4-.1v1h-1c-.9 0-1.4.5-1 1.6.6 2.5 2.3 7.5 3.3 10.4M139.4 183.4h-6.2l-.7 1.9c-.4 1.2-.2 1.8 1.2 1.8h1v1.1h-6.6v-1.1h.9c1.2 0 1.7-.4 2.2-1.7.4-.9 4-10.4 4.6-12.1h1.8c.9 2.7 3.9 10.3 4.6 12.1.5 1.3.9 1.7 2 1.7h.9v1.1h-7.2v-1.1h1c1.1 0 1.4-.6 1-1.9l-.5-1.8zm-3.1-8.3-2.8 7.4h5.5c-.8-2.5-2-5.7-2.7-7.4M153.9 174.4h-1.4c-.8 0-1.1.2-1.1 1.1v10.7c0 .7.3.9 1.1.9h2c2.7 0 3.5-.6 3.7-4.4h1.1c-.1 1.3-.2 4.2-.2 5.5-1-.1-3.2-.1-4.1-.1h-8.1V187h1.3c1 0 1.2-.2 1.2-.9v-10.7c0-.8-.3-1.1-1.1-1.1h-1.4v-1s2.3.1 3.5.1c1.3 0 2.7-.1 3.5-.1v1.1zM167.7 174.4h-1.4c-.8 0-1.1.2-1.1 1.1v10.7c0 .7.3.9 1.1.9h2c2.7 0 3.5-.6 3.7-4.4h1c-.1 1.3-.2 4.2-.2 5.5-1-.1-3.2-.1-4.1-.1h-8.1V187h1.3c1 0 1.2-.2 1.2-.9v-10.7c0-.8-.3-1.1-1.1-1.1h-1.4v-1s2.3.1 3.5.1c1.3 0 2.7-.1 3.5-.1l.1 1.1zM174.8 180.8c0-5 3-7.8 7.2-7.8 4.8 0 7.2 3 7.2 7.7 0 5.1-3 7.8-7.2 7.8-4.7 0-7.2-2.8-7.2-7.7m12-.1c0-4.7-1.6-6.8-4.9-6.8-3 0-4.9 2.1-4.9 6.8 0 4.9 1.7 6.8 4.9 6.8 3.2.1 4.9-2.1 4.9-6.8M175 162.2c.3-2.3 1.7-5.2 4.4-5.2 1.9 0 3.2 1 2.9 3.6-.3 2.7-1.7 5.5-4.5 5.5-1.9.1-3.1-1-2.8-3.9m5.9-1.8c.3-2.1-.3-2.7-1.4-2.7-1.4 0-2.5 2.1-2.9 5.1-.3 2.1.3 2.8 1.4 2.8 1.4-.1 2.4-2 2.9-5.2"/><path class="st0" d="m187 157.3 2-.1-.1.7h-2.1l-.1 1.2c-1.2 8.5-2.8 10.6-5.1 10.6-1.4 0-1.9-.8-1.7-1.7.1-.6.6-.8 1-.8.5 0 .8.4.7.9-.1.5-.7.8-1.2.6.1.3.4.5 1 .5 1.8 0 2.3-1.9 2.9-6.5.2-1.9.5-3.5.9-4.8h-1.3l.1-.7h1.5c1.2-3.9 2.8-4.7 4.1-4.7 1.1 0 1.7.9 1.6 1.9-.1 1-.6 1.4-1.3 1.4-.5 0-1-.3-.9-.9.1-.7.8-1 1.5-.7 0-.7-.3-1.1-1-1.1-1.1 0-1.9 1.2-2.5 4.2"/></svg>