<svg version="1.1" id="Layer_1" xmlns="http://www.w3.org/2000/svg" x="0" y="0" width="394.9" height="189" style="enable-background:new 0 0 394.9 189" xml:space="preserve"><style>.st1{fill:#a2bbd8}.st2{fill:#bdca8b}.st3{fill:#ffcfa1}.st7{fill:#0060a0}.st12{fill:#21409a}</style><path style="fill:none" d="M0 0h394.9v189H0z"/><path class="st1" d="m139.9 72 20.8-36h-41.6z"/><path class="st2" d="m77.6 108 20.8 36 20.7-36z"/><path class="st3" d="m56.8 72 20.8 36 20.8-36z"/><path style="fill:#ffb873" d="m36 36 20.8 36 20.8-36z"/><path style="fill:#f18a00" d="M56.8 72h41.6L77.6 36z"/><path style="fill:#789904" d="M77.6 108h41.5L98.4 72z"/><path class="st7" d="M98.4 72h41.5l-20.8-36zM251.6 112.1v7.4h-25V84h9.5v28.1h15.5zM316 91.6V84h-27.7v35.5H316v-7.6h-18.2V105h14.3v-7.1h-14.3v-6.3H316zm49 27.9c.2-.1.3-.1.4-.2.1-.1.2-.2.3-.4.1-.1.1-.3.1-.5s0-.3-.1-.5c0-.1-.1-.3-.2-.4-.1-.1-.2-.2-.4-.3-.1-.1-.3-.2-.5-.3l-.3-.1c-.2-.1-.4-.2-.5-.3-.1-.1-.1-.2-.1-.4 0-.1 0-.3.2-.4.1-.1.2-.1.4-.1s.3 0 .4.1l.3.3.5-.3c-.1-.2-.3-.4-.5-.5-.2-.1-.4-.2-.7-.2-.2 0-.3 0-.5.1s-.3.1-.4.2c-.1.1-.2.2-.2.3-.1.1-.1.3-.1.4 0 .2 0 .3.1.4 0 .1.1.2.2.3l.3.3c.1.1.3.2.4.2l.3.1c.1.1.2.1.3.2.1.1.2.1.2.2.1.1.1.1.1.2v.2c0 .2-.1.3-.2.4-.1.1-.3.2-.5.2-.3 0-.5-.1-.6-.2l-.4-.4-.6.3c.1.1.1.2.2.3l.3.3c.1.1.3.1.4.2.2 0 .4.1.6.1.4.3.6.2.8.2zm1.6 0h.6V116.6c0 .1.1.1.1.2s.1.1.1.2.1.1.1.2l1.1 1.3h.1l1.1-1.3s.1-.1.1-.2.1-.1.1-.2.1-.1.1-.2v2.9h.6v-4.4h-.1l-2.1 2.4-2.1-2.4h-.1v4.4zm-99.5-7.4V84h-9.5v35.5h25v-7.4h-15.5zm-66-28.6-20.8 36h9.7l3-5.3h16.2l3 5.3h9.7l-20.8-36zm-4.3 23.9 4.3-7.6 4.2 7.6h-8.5zm-29.1-3.7L156.6 84h-9.7l20.8 36 20.8-36h-9.7l-11.1 19.7zM349.4 84v18.7l-26.6-19.2v36h9.5v-18.6l26.6 19.1V84h-9.5z"/><path class="st1" d="m119.5 36 20.8 35.9L161 36z"/><path class="st2" d="m78 107.9 20.8 35.9 20.7-35.9z"/><path class="st3" d="m57.3 71.9 20.7 36 20.8-36z"/><path style="fill:#fad29d" d="m36.5 36 20.8 35.9L78 36z"/><path style="fill:#ee8922" d="M78 36 57.3 71.9h41.5z"/><path style="fill:#799b3e" d="M78 107.9h41.5l-20.7-36z"/><path style="fill:#0060a1" d="M119.5 36 98.8 71.9h41.5z"/><g><path class="st12" d="m155.6 134.9 5.8 15.5h-3.5l-1.2-3.4h-5.8l-1.2 3.4h-3.4l5.9-15.5h3.4zm.2 9.5-2-5.7-2 5.7h4zM171.4 146.6c.2.4.4.7.7.9.3.2.7.4 1.1.5.4.1.9.2 1.3.2.3 0 .6 0 1-.1.3-.1.7-.1 1-.3.3-.1.6-.3.8-.6.2-.2.3-.6.3-1s-.1-.8-.4-1c-.3-.3-.6-.5-1.1-.7-.4-.2-.9-.3-1.5-.5-.6-.1-1.1-.3-1.7-.4-.6-.1-1.1-.3-1.7-.5-.6-.2-1-.5-1.5-.8-.4-.3-.8-.7-1-1.2-.3-.5-.4-1.1-.4-1.8 0-.8.2-1.5.5-2.1.3-.6.8-1.1 1.3-1.5.6-.4 1.2-.7 1.9-.9.7-.2 1.4-.3 2.1-.3.8 0 1.6.1 2.3.3.7.2 1.4.5 2 .9.6.4 1 .9 1.4 1.5.3.6.5 1.4.5 2.3H177c0-.5-.1-.8-.3-1.2-.2-.3-.4-.5-.7-.7-.3-.2-.6-.3-.9-.4-.4-.1-.7-.1-1.2-.1-.3 0-.6 0-.8.1-.3.1-.5.2-.7.3-.2.1-.4.3-.6.5-.1.2-.2.5-.2.8 0 .3.1.5.2.7.1.2.3.4.7.5.3.2.8.3 1.4.5s1.4.4 2.4.6c.3.1.7.2 1.2.3.5.2 1 .4 1.5.7.5.3.9.8 1.3 1.3.4.6.6 1.3.6 2.1 0 .7-.1 1.4-.4 2-.3.6-.7 1.1-1.2 1.6-.5.4-1.2.8-2 1-.8.2-1.7.4-2.8.4-.9 0-1.7-.1-2.5-.3-.8-.2-1.5-.5-2.1-1-.6-.4-1.1-1-1.5-1.7-.4-.7-.5-1.5-.5-2.5h3.3c-.1.8 0 1.2.2 1.6zM182.6 142.3c.3-.7.7-1.4 1.2-1.9s1.1-.9 1.8-1.2c.7-.3 1.5-.4 2.4-.4.9 0 1.7.1 2.4.4.7.3 1.3.7 1.8 1.2s.9 1.1 1.2 1.9c.3.7.4 1.5.4 2.4 0 .9-.1 1.7-.4 2.4-.3.7-.7 1.3-1.2 1.9-.5.5-1.1.9-1.8 1.2-.7.3-1.5.4-2.4.4-.9 0-1.7-.1-2.4-.4-.7-.3-1.3-.7-1.8-1.2s-.9-1.1-1.2-1.9c-.3-.7-.4-1.5-.4-2.4 0-.8.1-1.6.4-2.4zm2.8 3.8c.1.4.2.8.4 1.1.2.3.5.6.8.8.3.2.8.3 1.3.3s1-.1 1.3-.3c.4-.2.6-.5.8-.8.2-.3.4-.7.4-1.1.1-.4.1-.9.1-1.3s0-.9-.1-1.3-.2-.8-.4-1.1c-.2-.3-.5-.6-.8-.8-.4-.2-.8-.3-1.3-.3s-1 .1-1.3.3c-.3.2-.6.5-.8.8-.2.3-.4.7-.4 1.1-.1.4-.1.9-.1 1.3s0 .9.1 1.3zM198.7 139.2v1.6h.1c.4-.7.9-1.1 1.5-1.4.6-.3 1.3-.4 1.9-.4.8 0 1.5.1 2 .3.5.2.9.5 1.3.9.3.4.5.9.6 1.5.1.6.2 1.2.2 1.9v6.9h-3.1V144c0-.9-.1-1.6-.4-2.1-.3-.5-.8-.7-1.5-.7-.8 0-1.4.3-1.8.7-.4.5-.6 1.3-.6 2.5v5.9h-3.1v-11.2h2.9zM211.9 147.7c.5.4 1.1.7 2 .7.6 0 1.2-.1 1.6-.5.4-.3.7-.6.8-1h2.7c-.4 1.3-1.1 2.3-2 2.9-.9.6-2 .9-3.2.9-.9 0-1.7-.1-2.4-.4-.7-.3-1.3-.7-1.8-1.2s-.9-1.1-1.1-1.9c-.3-.7-.4-1.5-.4-2.4 0-.8.1-1.6.4-2.3.3-.7.7-1.3 1.2-1.9.5-.5 1.1-.9 1.8-1.2.7-.3 1.5-.5 2.3-.5 1 0 1.8.2 2.5.6.7.4 1.3.9 1.7 1.5.5.6.8 1.3 1 2.1.2.8.3 1.6.2 2.5h-8.1c.1.9.3 1.6.8 2.1zm3.5-5.9c-.4-.4-.9-.6-1.7-.6-.5 0-.9.1-1.2.2-.3.2-.6.4-.8.6-.2.2-.3.5-.4.8-.1.3-.1.5-.1.7h5c-.2-.7-.4-1.3-.8-1.7zM224 139.2v1.4c.4-.6.9-1 1.4-1.3.6-.3 1.2-.4 1.9-.4.9 0 1.6.2 2.3.5.6.3 1.2.8 1.6 1.3.4.6.7 1.2.9 1.9.2.7.3 1.5.3 2.3 0 .7-.1 1.5-.3 2.2-.2.7-.5 1.3-.9 1.8s-.9 1-1.5 1.3c-.6.3-1.3.5-2.2.5-.7 0-1.3-.1-1.9-.4-.6-.3-1.1-.7-1.4-1.2v5.3H221v-15.1h3zm4 8.9c.3-.2.6-.5.8-.8.2-.3.4-.7.4-1.1.1-.4.1-.9.1-1.3s0-.9-.1-1.3-.2-.8-.5-1.2c-.2-.3-.5-.6-.8-.8-.3-.2-.8-.3-1.2-.3-.5 0-.9.1-1.3.3-.3.2-.6.5-.8.8-.2.3-.4.7-.4 1.1-.1.4-.1.9-.1 1.3s.1.9.1 1.3c.1.4.2.8.5 1.1.2.3.5.6.8.8.3.2.8.3 1.3.3.4.1.8 0 1.2-.2zM234.2 142.6c0-.7.2-1.3.5-1.8s.7-.9 1.2-1.1c.5-.3 1-.5 1.7-.6.6-.1 1.2-.2 1.9-.2.6 0 1.1 0 1.7.1.6.1 1.1.2 1.6.5.5.2.9.5 1.2 1 .3.4.5 1 .5 1.6v5.8c0 .5 0 1 .1 1.5s.2.8.3 1h-3.1c-.1-.2-.1-.4-.1-.5 0-.2-.1-.4-.1-.6-.5.5-1.1.9-1.7 1.1-.7.2-1.3.3-2 .3-.5 0-1-.1-1.5-.2s-.9-.3-1.2-.6c-.3-.3-.6-.6-.8-1-.2-.4-.3-.9-.3-1.5s.1-1.2.3-1.6c.2-.4.5-.7.9-1l1.2-.6c.5-.1.9-.2 1.4-.3.5-.1.9-.1 1.4-.2.4 0 .8-.1 1.2-.2.3-.1.6-.2.8-.4.2-.2.3-.4.3-.7 0-.3-.1-.6-.2-.8-.1-.2-.3-.3-.4-.5-.2-.1-.4-.2-.6-.2-.2 0-.5-.1-.8-.1-.6 0-1.1.1-1.4.4-.3.3-.6.7-.6 1.3h-3.4zm7.1 2.3c-.1.1-.3.2-.5.3-.2.1-.4.1-.6.2-.2 0-.5.1-.7.1-.2 0-.5.1-.7.1-.2 0-.5.1-.7.2l-.6.3c-.2.1-.3.3-.4.5-.1.2-.2.4-.2.7 0 .3.1.5.2.7.1.2.2.3.4.4.2.1.4.2.6.2.2 0 .5.1.7.1.6 0 1.1-.1 1.4-.3s.6-.4.7-.7c.2-.3.3-.6.3-.9 0-.3.1-.5.1-.7v-1.2zM249.7 139.2v2.1c.1-.3.3-.7.6-1 .2-.3.5-.6.8-.8.3-.2.7-.4 1-.5.4-.1.7-.2 1.1-.2.2 0 .4 0 .7.1v2.9c-.1 0-.3-.1-.5-.1h-.6c-.6 0-1 .1-1.4.3-.4.2-.7.4-.9.8-.2.3-.4.7-.5 1.1-.1.4-.2.9-.2 1.4v5.1h-3.1v-11.2h3zM271.4 139c-.2-.3-.5-.6-.8-.9-.3-.2-.6-.4-1-.6-.4-.1-.8-.2-1.2-.2-.8 0-1.4.1-1.9.4-.5.3-1 .7-1.3 1.2-.3.5-.6 1.1-.7 1.7-.2.6-.2 1.3-.2 2s.1 1.3.2 1.9c.1.6.4 1.2.7 1.7.3.5.8.9 1.3 1.2.5.3 1.2.4 1.9.4 1 0 1.9-.3 2.4-1 .6-.6.9-1.5 1.1-2.5h3.3c-.1 1-.3 1.8-.7 2.6-.4.8-.8 1.4-1.4 2-.6.5-1.3 1-2.1 1.3-.8.3-1.7.4-2.6.4-1.2 0-2.2-.2-3.2-.6-.9-.4-1.7-1-2.4-1.7s-1.2-1.6-1.5-2.5c-.3-1-.5-2-.5-3.2 0-1.2.2-2.2.5-3.2s.8-1.9 1.5-2.6c.7-.7 1.4-1.3 2.4-1.7 1-.4 2-.6 3.2-.6.9 0 1.7.1 2.4.4.8.2 1.4.6 2 1.1.6.5 1.1 1.1 1.5 1.7.4.7.6 1.5.7 2.4h-3.3c.1-.4-.1-.7-.3-1.1zM277.3 142.3c.3-.7.7-1.4 1.2-1.9s1.1-.9 1.8-1.2c.7-.3 1.5-.4 2.4-.4.9 0 1.7.1 2.4.4.7.3 1.3.7 1.8 1.2s.9 1.1 1.2 1.9c.3.7.4 1.5.4 2.4 0 .9-.1 1.7-.4 2.4-.3.7-.7 1.3-1.2 1.9-.5.5-1.1.9-1.8 1.2-.7.3-1.5.4-2.4.4-.9 0-1.7-.1-2.4-.4-.7-.3-1.3-.7-1.8-1.2s-.9-1.1-1.2-1.9c-.3-.7-.4-1.5-.4-2.4 0-.8.1-1.6.4-2.4zm2.8 3.8c.1.4.2.8.4 1.1.2.3.5.6.8.8.3.2.8.3 1.3.3s1-.1 1.3-.3c.4-.2.6-.5.8-.8.2-.3.4-.7.4-1.1.1-.4.1-.9.1-1.3s0-.9-.1-1.3-.2-.8-.4-1.1c-.2-.3-.5-.6-.8-.8-.4-.2-.8-.3-1.3-.3s-1 .1-1.3.3c-.3.2-.6.5-.8.8-.2.3-.4.7-.4 1.1-.1.4-.1.9-.1 1.3s0 .9.1 1.3zM293.5 139.2v1.5c.4-.6.9-1 1.5-1.3.6-.3 1.2-.5 2-.5.7 0 1.4.1 1.9.4.6.3 1 .8 1.3 1.5.3-.5.8-.9 1.4-1.3.6-.4 1.3-.6 2-.6.6 0 1.1.1 1.6.2s.9.4 1.3.7c.4.3.6.7.8 1.3.2.5.3 1.1.3 1.8v7.5h-3.1v-7.5c0-.3-.1-.6-.2-.9-.1-.2-.3-.4-.6-.6-.2-.1-.6-.2-1-.2s-.8.1-1 .3c-.3.2-.5.4-.6.7l-.3.9c-.1.3-.1.7-.1 1v6.2h-3.1V143c0-.3-.1-.6-.2-.9-.1-.3-.3-.5-.5-.7-.3-.2-.6-.3-1.1-.3-.1 0-.3 0-.6.1-.2.1-.5.2-.7.4-.2.2-.4.4-.6.8-.2.3-.2.8-.2 1.3v6.5h-3.1V139h2.9zM313 139.2v1.4c.4-.6.9-1 1.4-1.3.6-.3 1.2-.4 1.9-.4.9 0 1.6.2 2.3.5.6.3 1.2.8 1.6 1.3.4.6.7 1.2.9 1.9.2.7.3 1.5.3 2.3 0 .7-.1 1.5-.3 2.2-.2.7-.5 1.3-.9 1.8s-.9 1-1.5 1.3c-.6.3-1.3.5-2.2.5-.7 0-1.3-.1-1.9-.4-.6-.3-1.1-.7-1.4-1.2v5.3h-3.1v-15.1h2.9zm4 8.9c.3-.2.6-.5.8-.8.2-.3.4-.7.4-1.1.1-.4.1-.9.1-1.3s0-.9-.1-1.3-.2-.8-.5-1.2c-.2-.3-.5-.6-.8-.8-.3-.2-.8-.3-1.3-.3s-.9.1-1.3.3c-.3.2-.6.5-.8.8-.2.3-.4.7-.4 1.1-.1.4-.1.9-.1 1.3s0 .9.1 1.3.2.8.4 1.1c.2.3.5.6.8.8.3.2.8.3 1.3.3.7.1 1.1 0 1.4-.2zM323.2 142.6c0-.7.2-1.3.5-1.8s.7-.9 1.2-1.1c.5-.3 1-.5 1.7-.6.6-.1 1.2-.2 1.8-.2.6 0 1.1 0 1.7.1.6.1 1.1.2 1.6.5.5.2.9.5 1.2 1 .3.4.5 1 .5 1.6v5.8c0 .5 0 1 .1 1.5s.2.8.3 1h-3.1c-.1-.2-.1-.4-.1-.5 0-.2-.1-.4-.1-.6-.5.5-1.1.9-1.7 1.1-.7.2-1.3.3-2 .3-.5 0-1-.1-1.5-.2s-.9-.3-1.2-.6c-.3-.3-.6-.6-.8-1-.2-.4-.3-.9-.3-1.5s.1-1.2.3-1.6c.2-.4.5-.7.9-1l1.2-.6c.5-.1.9-.2 1.4-.3.5-.1.9-.1 1.4-.2.4 0 .8-.1 1.2-.2.4-.1.6-.2.8-.4.2-.2.3-.4.3-.7 0-.3-.1-.6-.2-.8-.1-.2-.3-.3-.4-.5-.2-.1-.4-.2-.6-.2-.2 0-.5-.1-.8-.1-.6 0-1.1.1-1.4.4-.3.3-.5.7-.6 1.3h-3.3zm7.1 2.3c-.1.1-.3.2-.5.3-.2.1-.4.1-.6.2-.2 0-.5.1-.7.1-.2 0-.5.1-.7.1-.2 0-.5.1-.7.2l-.6.3c-.2.1-.3.3-.4.5-.1.2-.1.4-.1.7 0 .3.1.5.1.7.1.2.2.3.4.4.2.1.4.2.6.2.2 0 .5.1.7.1.6 0 1.1-.1 1.4-.3s.6-.4.7-.7c.2-.3.3-.6.3-.9 0-.3.1-.5.1-.7v-1.2zM338.7 139.2v1.6h.1c.4-.7.9-1.1 1.5-1.4.6-.3 1.3-.4 1.9-.4.8 0 1.5.1 2 .3.5.2.9.5 1.2.9.3.4.5.9.6 1.5.1.6.2 1.2.2 1.9v6.9h-3.1V144c0-.9-.1-1.6-.4-2.1-.3-.5-.8-.7-1.5-.7-.8 0-1.4.3-1.8.7-.4.5-.6 1.3-.6 2.5v5.9h-3.1v-11.2h3zM352.8 153.7c-.6.4-1.4.6-2.5.6h-.9c-.3 0-.6 0-.9-.1v-2.5c.3 0 .6.1.9.1h.9c.4 0 .7-.2.9-.5.2-.3.3-.6.3-.9 0-.2 0-.5-.1-.7l-3.9-10.5h3.3l2.5 7.7 2.4-7.7h3.2l-4.7 12.6c-.4.9-.8 1.5-1.4 1.9z"/></g></svg>