<svg version="1.1" id="Layer_1" xmlns="http://www.w3.org/2000/svg" x="0" y="0" width="185.3" height="92.9" style="enable-background:new 0 0 185.3 92.9" xml:space="preserve"><style>.st0{fill:#3f454f}.st1{fill:#a90533}.st2{fill:#fff}</style><path class="st0" d="M63 72.8c.5.5 1.2.8 1.9.8.8 0 1.3-.4 1.3-.9 0-.6-.5-.8-1.1-1.1l-1-.4c-.7-.3-1.5-.9-1.5-2 0-1.2 1-2.1 2.5-2.1.9 0 1.7.4 2.3.9l-.7.8c-.5-.4-1-.6-1.6-.6-.7 0-1.2.3-1.2.9 0 .6.6.8 1.2 1l1 .4c.9.4 1.5.9 1.5 2 0 1.2-1 2.2-2.6 2.2-1 0-2-.4-2.6-1.1l.6-.8zM70.1 68.4H68v-1.1h5.5v1.1h-2.1v6.2h-1.3v-6.2zM77.5 72.6H75l-.6 2h-1.3l2.4-7.3H77l2.4 7.3H78l-.5-2zm-.3-1-.3-.9c-.2-.8-.4-1.6-.7-2.4-.2.8-.4 1.6-.7 2.4l-.3.9h2zM80.7 67.3H82l2.3 4.1.8 1.6c-.1-.8-.2-1.7-.2-2.5v-3.2h1.2v7.3h-1.3l-2.3-4.1-.8-1.6c.1.8.2 1.7.2 2.5v3.2h-1.2v-7.3zM88.1 67.3h4.4v1.1h-3.1v2.1h2.7v1.1h-2.7v3.1h-1.3v-7.4zM93.5 70.9c0-2.4 1.3-3.8 3.2-3.8 1.9 0 3.2 1.4 3.2 3.8s-1.3 3.8-3.2 3.8c-1.9 0-3.2-1.4-3.2-3.8zm5.1 0c0-1.6-.7-2.6-1.9-2.6s-1.9 1-1.9 2.6.7 2.7 1.9 2.7 1.9-1 1.9-2.7zM105.3 74.6l-1.6-2.9h-1.1v2.9h-1.3v-7.3h2.5c1.5 0 2.7.5 2.7 2.2 0 1.1-.6 1.8-1.5 2.1l1.7 3.1h-1.4zm-2.7-3.9h1c1 0 1.5-.4 1.5-1.3 0-.8-.5-1.1-1.5-1.1h-1v2.4zM108 67.3h2c2.2 0 3.6 1.2 3.6 3.6 0 2.4-1.3 3.7-3.5 3.7h-2v-7.3zm1.9 6.3c1.5 0 2.3-.8 2.3-2.6s-.8-2.6-2.3-2.6h-.6v5.2h.6zM117.3 67.3h1.4l1.3 3.6.5 1.4.5-1.4 1.3-3.6h1.4v7.3h-1.2v-3.4c0-.7.1-1.7.2-2.3l-.6 1.7-1.3 3.3h-.6l-1.3-3.3-.6-1.7c.1.7.2 1.6.2 2.3v3.4h-1.2v-7.3zM125.7 67.3h4.4v1.1H127v1.9h2.6v1.1H127v2.2h3.2v1.1h-4.5v-7.4zM131.7 67.3h2c2.2 0 3.6 1.2 3.6 3.6 0 2.4-1.3 3.7-3.5 3.7h-2v-7.3zm1.9 6.3c1.5 0 2.3-.8 2.3-2.6s-.8-2.6-2.3-2.6h-.6v5.2h.6zM138.7 67.3h1.3v7.3h-1.3v-7.3zM144.9 67.1c.9 0 1.6.4 2.1.9l-.7.8c-.4-.4-.8-.6-1.3-.6-1.2 0-2.1 1-2.1 2.7 0 1.7.8 2.7 2 2.7.7 0 1.1-.3 1.5-.7l.7.8c-.6.7-1.4 1.1-2.3 1.1-1.9 0-3.3-1.3-3.3-3.8 0-2.4 1.5-3.9 3.4-3.9zM148.4 67.3h1.3v7.3h-1.3v-7.3zM151.5 67.3h1.3l2.3 4.1.8 1.6c-.1-.8-.2-1.7-.2-2.5v-3.2h1.2v7.3h-1.3l-2.3-4.1-.8-1.6c.1.8.2 1.7.2 2.5v3.2h-1.2v-7.3zM158.9 67.3h4.4v1.1h-3.1v1.9h2.6v1.1h-2.6v2.2h3.2v1.1h-4.5v-7.4zM62.4 60.4h100.9v.5H62.4z"/><g><path class="st1" d="M89.1 35.8c-3.6 0-3.9-2.7-3.9-3.6 0-1 .3-2.7 2.6-3.6 2.4-.9 2.9-1 4.5-1.5v-.4c0-.8 0-1-.2-1.5-.3-.9-1.2-1.5-2.4-1.5s-2.2.7-2.7 1.6l-.7-.3c.4-1.5 1.9-3 4.5-3 1.9 0 3.1.5 3.8 1.7.6.9.6 2.1.6 3.4 0 1.1 0 2.4-.1 3.4v1.7c0 .9.1 1.7.9 1.7.3 0 .4-.1.7-.3l.4.5c-.7.9-1.5 1.7-2.8 1.7-1.1 0-1.8-.5-2-1.3-.5.6-1.5 1.3-3.2 1.3m3.2-7c-1.8.5-2.4.8-2.9 1.1-.8.4-1.2 1.2-1.2 2.1 0 .7.3 1.9 2 1.9.6 0 1.4-.1 2.1-.6v-4.5zm-29.7 6.3c0-1.3 0-2.5-.1-3.8h.8c0 .8.2 1.5.6 1.9.6.6 1.9 1 3.1 1 2.5 0 3.7-1 3.7-3 0-1.8-1.1-2.5-2.6-3.5l-.2-.2-1.6-1.1c-2.2-1.5-3.3-2.6-3.3-5 0-1.1.4-4.9 6-4.9 1.4 0 3.2.1 4.4.4v3.8h-.7c0-.9-.3-1.5-.7-1.9-.5-.5-1.7-.8-3-.8-2.9 0-3.3 1.5-3.3 2.6 0 1.6.8 2.1 2.5 3.2l2 1.3c1.7 1.1 3.3 2.2 3.3 5.1 0 4.8-4.5 5.3-6.4 5.3-1.7.3-3.1.1-4.5-.4zm35.8-12.2c.7.1 1.7 0 2.7-.2.8-.1 1.1-.3 1.8-.6l.3.2v1.1c.7-.5 2-1.3 3.8-1.3 2.4 0 3.9 1.1 4.4 3.1.1.5.2 1.7.2 2.4v3.9c0 2.2.1 2.8.5 3.2.2.2.7.4 1.3.4v.6c-.9 0-2.4-.1-3.3-.1-1.2 0-2.6.1-3.3.1v-.6c.7-.1 1.1-.3 1.3-.5.4-.4.4-1.2.5-2.8v-2.3c0-1 0-2-.1-3-.2-1.7-1.1-2.5-2.8-2.5-1.2 0-1.9.3-2.5.6v7c0 2.2.1 2.8.5 3.2.2.2.7.4 1.3.4v.6c-1.1-.1-2.4-.1-3.3-.1-1.8 0-2.3 0-3.3.1v-.6c.6 0 1.1-.2 1.4-.6.4-.5.4-1.6.4-3.8V27c0-1.6 0-2.3-.3-2.7-.2-.3-.6-.5-1.5-.5v-.9zm16.4 12.2c.5 0 1.1-.2 1.4-.6.4-.5.4-1.6.4-3.8v-6.6H115v-.7c.7-.3 1.4-.6 1.7-.9 0-1.2 0-2.7.2-3.5.5-2.7 2.3-4.1 5.3-4.1 1.3 0 2.6.5 3.3 1.1v.3l-1.3 1.8h-.3c-.4-1.1-1.1-1.7-2.3-1.7-.4 0-1 .1-1.3.5-.6.6-.7 1.4-.7 3.1v2.6h3v1.6h-3v7.3c0 1.7.1 2.6.3 2.9.4.6 1.5.6 2.1.6v.7c-1-.1-2.5-.1-3.6-.1-1.6 0-2.7 0-3.6.1v-.6zm15.3.8c-4 0-6.5-2.5-6.5-6.7 0-3.3 1.8-7.1 6.7-7.1 4 0 6.5 2.5 6.5 6.7 0 3.3-1.7 7.1-6.7 7.1zm.2-12.3c-.8 0-1.4.2-1.9.6-1.1.9-1.6 2.5-1.6 4.8 0 .9.2 5.3 3.4 5.3.8 0 1.4-.2 1.9-.6 1.1-.9 1.6-2.5 1.6-4.8 0-.8-.2-5.3-3.4-5.3zm7.9-.7c.9.1 1.9-.1 2.9-.2.8-.1 1.3-.3 1.6-.4l.2.1v1.2c.6-.6 1.6-1.2 3.1-1.2 1 0 1.7.3 2.3.8v.4l-1.1 2h-.5c-.4-.6-1-1.2-2.2-1.2-.6 0-1 .1-1.4.4v6.7c0 1.7.1 2.6.3 2.9.4.6 1.5.6 2.1.6v.7c-.9-.1-2.5-.1-3.6-.1-1.3 0-2.5 0-3.6.1V35c.7 0 1.2-.2 1.4-.6.4-.5.4-1.5.4-3.8v-3.8c0-1.6 0-2.3-.3-2.7-.2-.3-.7-.5-1.6-.5v-.7zm18.6-7.3c.8 0 1.8-.1 3.1-.4.7-.1 1.2-.3 1.4-.4l.2.1c-.1 1.1-.1 3.6-.1 5.3V31c0 1.6 0 2.6.3 2.9.2.3.7.5 1.5.5v.7c-.8 0-1.8.1-2.8.3-.7.1-1.2.2-1.5.4l-.4-.1v-1.1c-.7.5-2 1.2-3.7 1.2-3.6 0-6-2.5-6-6.4 0-1.3.3-2.5.7-3.6 1.1-2.4 3.4-3.8 6.3-3.8 1.1 0 2 .1 2.6.3v-2.8c0-1.7 0-2.5-.3-2.9-.2-.3-.5-.4-1.5-.5v-.5zm-.5 18.4c.9 0 1.5-.1 2.2-.5v-8.9c-.2-.2-1-.9-2.6-.9-2.6 0-3.8 1.8-3.8 5.4-.1 1.5.4 4.9 4.2 4.9zm-72.4.4c-.4.5-1.4 1.5-3.6 1.5-2 0-3.2-.7-3.7-2.4-.2-.7-.2-1.9-.2-2.7v-6.7h-1.7v-.5c.7-.3 1.2-.6 1.7-.9 1-.8 1.7-1.8 2.5-3.2h.6v3H84v1.6h-4.5v7c0 2.1.4 3.3 2.3 3.3.9 0 1.5-.3 1.9-.5l.2.5z"/><path class="st0" d="M62.7 43h2v4.6h4.7V43h2v11.5h-2v-5.1h-4.7v5.1h-2V43zM73.7 43h6.9v1.7h-4.9v2.9h4.1v1.7h-4.1v3.4h5.1v1.7h-7.1V43zM89.1 51.4h-3.9l-.9 3.1h-2.1L86 43h2.4l3.8 11.5H90l-.9-3.1zm-.4-1.6-.4-1.4c-.4-1.2-.7-2.5-1-3.8h-.1c-.3 1.3-.7 2.6-1 3.8l-.4 1.4h2.9zM93.7 43h2v9.8h4.8v1.7h-6.8V43zM102.9 44.8h-3.3V43h8.7v1.7H105v9.8h-2v-9.7zM110 43h2v4.6h4.7V43h2v11.5h-2v-5.1H112v5.1h-2V43zM130.2 42.8c1.4 0 2.6.7 3.3 1.5l-1.1 1.3c-.6-.6-1.2-1-2.1-1-1.9 0-3.2 1.6-3.2 4.2s1.2 4.2 3.2 4.2c1 0 1.8-.4 2.4-1.1l1.1 1.2c-.9 1.1-2.1 1.7-3.6 1.7-2.9 0-5.2-2.1-5.2-5.9-.1-3.8 2.2-6.1 5.2-6.1zM141.1 51.4h-3.9l-.9 3.1h-2.1L138 43h2.4l3.8 11.5H142l-.9-3.1zm-.5-1.6-.4-1.4c-.4-1.2-.7-2.5-1-3.8h-.1c-.3 1.3-.7 2.6-1 3.8l-.4 1.4h2.9zM151.6 54.6l-2.5-4.5h-1.8v4.5h-2V43h3.9c2.4 0 4.2.8 4.2 3.4 0 1.8-.9 2.8-2.3 3.3l2.7 4.8h-2.2zm-4.3-6.2h1.6c1.6 0 2.4-.7 2.4-2s-.9-1.8-2.4-1.8h-1.6v3.8zM155.4 43h6.9v1.7h-4.9v2.9h4.1v1.7h-4.1v3.4h5.1v1.7h-7.1V43z"/></g><g><path class="st1" d="M36.8 34.4V16.8H21.1c-.8 1.9-2.6 9.2-1.2 17.6h16.9zM53.2 16.8H37.5v41.3c22.7-12.7 17.3-37.6 15.7-41.3zM36.8 35.1H20c1.5 8 5.9 16.9 16.8 23v-23z"/></g><path class="st2" d="M28.4 20.1v.5c.3-.3.8-.5 1.2-.6-.2.9-.7 1.2-1.2 1.3v.8c.4-.3 1-.8 1.5-.9-.3 1.2-.9 1.6-1.5 1.7v.8c.5-.3 1.3-.9 1.9-1-.3 1.2-1.1 1.7-1.9 1.8v.7c.5-.3 1.3-.9 1.9-.9-.3 1.2-1.1 1.9-1.9 2v.6c.5-.3 1.3-.9 1.9-.9-.3 1.2-1.1 1.9-1.9 2v.5c.6-.4 1.6-1 2.3-1.1-.4 1.3-1.4 2.1-2.3 2.1v.5c.3-.3 1-.6 1.4-.6-.2.9-.9 1.2-1.4 1.3v1.1h.3c0-.4.2-.8.7-1.1 0 .3-.1.7-.2 1 .3-.1.5-.1.8-.2-.1-.5 0-1.3.7-1.9.1.4 0 1.1 0 1.6.3-.2.6-.3.8-.6-.3-.5-.2-1.3.3-2.1.2.4.2 1.2.2 1.6.2-.2.5-.5.7-.8-.4-.5-.4-1 .1-2 .2.4.3 1 .3 1.4.2-.3.4-.5.5-.8-.1-.3-.1-.4.1-.6.2-.2.5-.4.7-.3.3.2.2.5.1.8-.1.2-.2.3-.5.3l-.6.9c.5.2.8.3 1.2.6-.7.3-1.2.2-1.5-.1-.2.3-.6.6-.8.9.5.1.8.3 1.2.7-.8.3-1.4.2-1.7-.1-.3.2-.5.5-.8.6.5.2.8.5 1.1.9-.9.2-1.5 0-1.8-.6-.3.1-.5.2-.8.2.3.2.4.4.6.7-.6 0-1-.2-1.1-.5-.1 0-.2.1-.4.1v1.2l-.8-.3v-.9c-.1 0-.3-.1-.3-.1-.1.4-.4.5-1 .5.1-.3.2-.5.5-.7-.3-.1-.5-.2-.8-.3-.2.6-.8.8-1.7.6.3-.4.6-.7 1.1-.9-.2-.2-.5-.3-.7-.5-.3.4-.9.5-1.7.2.3-.3.7-.6 1.2-.7-.3-.3-.5-.6-.7-.9-.4.3-.9.4-1.6.1.3-.3.7-.7 1.2-.7-.1-.2-.3-.4-.4-.7-.2 0-.3 0-.5-.2s-.3-.7 0-.9c.2-.2.6.1.7.3.1.2.1.4 0 .5.1.2.3.5.5.7-.1-.7.1-1.2.3-1.6.6.8.5 1.5.2 2.1.2.3.5.5.7.8-.1-.5 0-1.2.2-1.6.6.8.6 1.6.4 2.1.2.2.5.4.7.5-.1-.4-.2-1.2-.1-1.6.6.6.8 1.4.7 1.9.3.1.5.2.8.3-.1-.3-.3-.7-.2-1 .5.3.6.6.6 1 .1 0 .3.1.3.1v-1.1c-.5-.1-1.2-.4-1.4-1.3.4.1 1 .2 1.4.6v-.6c-.9-.1-1.9-.7-2.4-2.1.8.1 1.6.5 2.4 1v-.5c-.8-.1-1.6-.8-1.9-1.9.7.1 1.3.4 1.9.9v-.6c-.8-.1-1.6-.7-1.9-1.9.7.1 1.3.4 1.9.9v-.7c-.8-.1-1.5-.5-1.9-1.7.7.1 1.3.5 1.9.9v-.8c-.6-.1-1.2-.5-1.5-1.7.5.1 1 .4 1.5.8v-.8c-.5-.1-.9-.3-1.2-1.2.3.1.7.1 1.2.5v-.5c-.4-.5-.3-.8-.2-1.2 0-.4.2-.7.6-.7.4 0 .6.3.6.7-.5.6-.4.8-.8 1.4M46 24l-.8-.2-.5-.2v.1l.4.2.5.7-.1-.5.5-.1"/><path class="st2" d="M46.3 30c.2-3 .7-3.9 1.4-4.5l.1-.1-.3-2h-.3c-.3.1-.7.3-.9.6v-1.5L44 21.2v1.1c-.2-.2-.3-.3-.4-.3-.2-.2-.4-.2-.6-.2-.1 0-.2 0-.3.1-.2 0-.3.1-.5 0-1-.2-1.8 0-2.3.6-.4.6-.5 1.5-.2 2.3.2.6.6 1.2 1.1 1.9.2.3 2 2.2 2.4 2.6l.8.8v.7l-.5-.3-.5 1.3.2.1c.4.3.9 1 1.2 4.8-1.1.5-2.5 1.7-2.5 3.1 0 .6.3 1.5 1.8 2.1.3.1.6.2.9.4 0 .7 0 1.5.1 2.3-.3.1-.8.5-.9.9-.1.4.2.8.7 1.2.1 0 .1.1.2.1v.7c-.2.1-.4.2-.6.4 0 .1-.1.2-.1.3 0 0 .1.1.2.1s.2 0 .4-.1c.1 0 .1 0 .1-.1.1.3.4.4.6.4.3 0 .5-.2.6-.5v-.3c.2-.1.3-.4.4-.6 0-.3-.1-.6-.4-.8v-1c1-.2 2-.9 2.1-1.7.1-.5-.2-1.3-1.9-2-.1 0-.1-.1-.2-.1v-3.9c1.8-.9 3-1.7 3.1-2.9.3-1.3-.6-2.7-2.7-4.7zm.8-6 .2 1.2c-.7.7-1.2 1.5-1.5 4.3-.4-.3-.8-.7-1.2-1.1v-4.5s.1 0 .1-.1l.3.2.4.7h.1v-.4h.2v.7l.5.1c.2-.4.6-.9.9-1.1zm-1.3-1.2v1.1l-.6-.2-.3-.2c0-.2-.1-.5-.3-.7V22l1.2.8zm-2.2 4.7c-2.8-2.5-2.9-3.7-2.7-4.1.2-.5.9-.6 1.1-.5.1 0 .1 0 .1.1 0 .2.1.4.6.6.6.2 1 .3 1.4.3v4c-.2-.1-.3-.3-.5-.4zm-.3 12.2c0-.4.3-.8 1.2-1.5 0 .8.1 1.6.1 2.6-.8-.4-1.3-.7-1.3-1.1zm2.2 6.2c-.1 0-.2-.1-.3-.2 0-1.2 0-2.3-.1-3.3.1 0 .2.1.3.1.1 1.1.1 2.2.1 3.4zm-.2 2.1v-1.1c.1 0 .2.1.3.1v1c-.1.1-.2.1-.3 0zm1.6-4.4c0 .1-.1.3-.9.6v-1.4c.5.3.9.6.9.8zm-1.8-2.5c-.3-7.9-.9-9.1-1.4-9.5l.2-.4.7.5v-1.2c.1.1.2.2.3.2.3.2.5.5.8.7-.1 2.3-.2 5.4-.2 9.8-.1 0-.2-.1-.4-.1zm2.5-6.7c-.1.6-.6 1.1-1.6 1.6 0-1.6.1-3 .1-4.1 1 .9 1.7 1.7 1.5 2.5z"/><g><path class="st1" d="M42.9 22.9h-.1c-.1 0-.2 0-.2.1-.1.1 0 .2.1.3h.1c.1 0 .1 0 .2-.1s0-.2-.1-.3zM43.3 22.1c-.1-.1-.1-.1-.2-.1s-.1 0-.1.1l-.1.1c0 .1 0 .1.1.2s.1.1.2.1.1 0 .1-.1c0 0 .1-.1 0-.1.1-.1.1-.1 0-.2z"/></g><path class="st2" d="M32.7 41.8V38H26v6.7h2.1v3.8h6.7v-6.7h-2.1zm-1.9-2.9h1.1v2.8h-1.1v-2.8zm1.1 5.8v.9H31v-.9h.9zM27 38.9h2.8V40H27v-1.1zm1.1 5H27v-2.8h1.1v2.8zM29 41h.9v.9H29V41zm.1 1.8h2.8v1.1h-2.8v-1.1zm1.1 4.7h-1.1v-2.8h1.1v2.8zm3.6 0H31v-1.1h2.8v1.1zm0-1.9h-1.1v-2.8h1.1v2.8z"/></svg>