<svg version="1.1" id="Layer_1" xmlns="http://www.w3.org/2000/svg" x="0" y="0" width="612" height="792" style="enable-background:new 0 0 612 792" xml:space="preserve"><style>.st0{fill:#9d1d64}.st1{fill:#53575a}.st2{fill:#a7a8a9}</style><path class="st0" d="M315 207.3c-.1-.1-.7-.5-.8-.7-.4-.4-.7-.9-1.1-1.3-1.1-.9-1.6-1.1-2.1-1.7-.7-.8-5.1-2-5.7-2.2-.7-.2-1.5-.5-2.3-.6-.3 0-.6 0-.9-.1-.3-.1-.6-.2-.8-.2h-.5c-.4-.1-.7-.3-1-.4-.6-.1-1.1 0-1.7-.2-.6-.1-2.1-.2-2.8-.3 0 0 0 .1.1.1.2.2.4.5.7.6 1.1.2 1.9.6 2.4 1.2 3.3 3.4 3.3 2.1 4.6 3.6.5.5 1.6 1.1 2.1 1.7 1.5 1.5 1.3 3.5 1.3 3.8 0 .4.5 1.1.2 1.1-.4.1-1-1.3-1.1-1.5-.5-.8-1.3-1.9-1.5-1.4-.2.6-.2 2.9-.1 3.2.1.6.5.7.6 1.2 0 .7.3 1.4.3 2.1 0 .2.5 1.2.5 1.4.1 1 0 1.3.2 2.3.1.6-.3 1.5.5 2.1.1.1.2.3.3.4.1.3.8.3.9.6.1.2-.6 2.6 2 3.4 1-.2 2.6-.4 2.8-.6.2-.2 1.7-.9 1.8-1.1.6-.6 2.3-2.5 2.5-2.8.2-.4 1.6-2.8 1.8-3.5.1-.2.6-2.6.5-3.6-.1-.4-.4-1.7-.4-2-.1-.2-.2-.4-.2-.6-.1-.2-.1-.5-.2-.7-.1-.5-.3-1.2-.6-1.5-.3-.3-.7-.5-1-.7-.4.1-1.2-.9-1.3-1.1M291.5 305c2-1.1 2.9-1.6 4.5-3.4 1.6-1.8 3-3.2 3.9-3.8.9-.6 1.4-1.3 1.6-1.6.1-.2.8-1.1.8-1.2.1 0 0 0 0-.1-.1 0 .8-1.7 1.3-2.4.1-.2.3-.4.5-.6.1-.2.2-.3.3-.5.2-.2.4-.5.6-.7l.6-.9c.3-.4.6-.7.9-1.1.4-.6.6-1.2.9-1.8.1-.2.2-.4.3-.5.1-.2-.1-1.1 0-1.3.2-.4.8-1.1 1.3-2.2s.6-3.7.6-4c.1-.3.4-.5.6-.8.2-.3.3-.7.5-1 .1-.1.1-.2.2-.3.2-.2.3-.4.3-.7.1-.5-.1-.9-.1-1.4 0-.3.1-.5 0-.8-.1-.2-.5-2-.5-2.2v-.9c.1-.4.3-.7.3-1.1 0-.2-.1-.5-.1-.8 0-.6-.1-1.2-.2-1.8v-.8c0-.8-.2-2 0-3.6.2-1.7.5-3 .5-3 0-.2.1-.4 0-.6-.1-.3-.1-.6-.2-1-.1-.7 0-1.5-.7-1.9-.1-.1-.3-.1-.4 0-.4.2-.4.8-.5 1.1-.2.4-.3.9-.5 1.3-.2.5-.3 1-.5 1.5-.2.4-.5.6-.6 1-.3.9-.7 1.7-1 2.6-.2.5-.5 1-.7 1.4-.3.8-.6 1.5-1 2.3-.3.7-.7 1.4-1 2-.9 1.7-2 3.2-3 4.8-.9 1.5-1.7 3-2.7 4.4-1.3 1.9-2.9 3.5-4.2 5.4-1.3 1.7-2.5 3.4-3.8 5.1l-.6.6c-.3.3-.5.6-.8.9l-2.1 2.7c-.6.7-1 1.5-1.6 2.2-.9 1-1.7 1.9-2.6 2.9-.4.4-.7.8-1.1 1.2-1.9 1.6-4 3.1-6.2 4.2-.9.4-1.7.9-2.5 1.3-.9.3-1.8 1-2.7 1.2-.5.1-1 .2-1.4.3h-.6c-1.5-.1-3.6-.5-4.5-1.5-1.5-2-1.1-6-1.2-8.7-.1-1.8-.1-3.6-.1-5.5 0-2.3-.1-4.6-.1-6.8 0-2.3 0-4.5-.2-6.8-.3-3.5-.5-7-.5-10.7-.1-5.1.5-10.4 1-15.3.2-2 .6-3.8.9-5.7.2-1 1-4.4 1.4-5.3.2 0 .5-.2.7-.3 1.3-.5 2.1-1 3.4-1.3 2.5-.6 4.7-.4 7.1-.9 5-1.1 9.9-.7 15.4-.1 1.5.2 3.1.4 4.5.7 1.5.4 3.1.6 4.5 1 1.6.4 3.2.9 4.8 1.3.4.1 1.3.4 1.7.4.3 0 1-1 1.1-1.2.3-.7-2.6-1.8-3-2-1.7-.7-3.5-1.5-5.3-1.9-.7-.1-1.7-.8-2.4-.8-.5.1-1.2-.2-1.2-.2-.3 0-.9-.3-1.2-.5-1-.6-2.2-.5-3.2-1.1-.5-.3-.6-.6-1.4-.9-.8-.3-1.8-.1-2.6-.4-.8-.3-1.7-.9-3-1.3-1.4-.5-3.1-.9-4.6-1.2-2-.4-3.4-.4-5.6-.5-.5 0-1.1-.2-1.5 0-1.7-.1-2.7 0-3.5.1-.8.1-1.7 0-1.7-.1.3-1 .8-2.9 1.2-3.9.3-.7.6-1.4.9-2 2-4.3 3.6-9.4 6.5-13.1.8-1 1.6-2 2.5-2.9.3-.4 1-.8 1.2-1.2.2-.3 0-1.2 0-1.2 0-.1-.4-.3-.6-.4-1.7.7-3.2 2.1-4.3 3.6-1.6 2-2.8 4.1-4 6.4-.5 1.1-2.2 2.1-2.8 3.2-.4.7-1 1.6-1.2 2.1 0 0-.5.7-.7.9-.7 1-1.3 1.9-1.9 2.9-.6.8-1.5 1.8-2 2.7-.4.8-1.2 1.7-1.6 2.5-.3.9-.8 1.1-.9 1.1-1.1-.1-.7-.1-2.2.3 0 0-1.3-.1-2 0-.6.1-.4.1-1.6.1-1.2-.1-1.9 0-3 .3-2.2.4-1 .2-4.4.6-3.9.6-7.4 1.1-10.8 2.1-2.1.6-3.2.8-8.1 3.2-1.5.7-1.6.5-3.1 1.3l-1.2.6c-.2.1-.5.1-.7.2-.5 0-.8.2-1.2.3-.2.1-.5 0-.8.1h-.6c-.1 0-1.1.1-1.7.7-.6.6-.8 1-1.1 1-.4 0-.4.3-.8.1h-.1c0 .1-.2.2-.3.2-.2 0-.4.1-.6.1-.4.2-.7.5-1.1.7-.4.2-.9.4-1.1.7-.8 0-1.7.6-1.8 1.5-.2 1.5.4 2.3.6 2.4.5.4 1 .5 1.5.9.2.2.4.5.6.7.4.4 1 .6 1.4.9.3.2.5.5.8.7.4.2.9.3 1.3.5.1.1.2.2.3.2.2.1.4.1.5.2.1.1.3.1.4.2.2 0 .3.1.5.1.1.1.3.2.4.3.3.1.5.3.8.4.3.1.6.2.9.2.8.3 1.7.8 2.2.8.4 0 .3.1.4.1.2-.1.5-.1.8-.2.3-.1.5-.2.8-.3h1c.6 0 .9-.1 1.5 0 .4.1.7.3 1.2.2.2 0 .5-.1.7-.1.4-.1.7 0 1.1-.2.3-.1.6-.3 1-.3.2 0 .4 0 .6-.1.5-.1 1.3-.3 1.8-.4.6-.2 1-.8 1.1-1.4.1-.3.3-1.6.9-2l.5-.5c.3-.2 1.3-.4 1.7-.5.3-.1.5-.1.8-.2.8-.7 1.6-.9 2.1-1.3.5-.3.8-.1 2-.8.9-.5 2.4-1 2.4-1 .5-.1 1-.2 1.6-.3 2.5-.4 5.5-1.5 8.1-1.7-.4 1.6-1.7 5.6-2.1 7.2-.8 3-1.4 6-2.1 9-.3 1.4-.4 2.8-.7 4.3-.3 2.2-.4 3.2-.9 5.8-.6 2.6-1.1 3.4-1.4 4.8-.3 1.5-.1 2.3-.3 3.9-.2 1.6-.4 2.5-.1 5.3.4 2.8.4 3.3.5 5.2 0 2 .9 5.7 1.2 6.5.3.7 1 1.3 1.1 2.1 0 .3 0 .7-.1 1v1.6c.2 1.2.8 2.3 1.1 3.4.5 1.6 1 3.1 1.5 4.7.4 1.1 1.2 2 1.8 3 1.1 1.8 2.5 3 4.4 3.5.4.1.9.2 1.3.4.9.1 1.8.1 2.7.1 1 0 2 .1 3 .1.7 0 1.3-.3 2-.4.9-.1 1.8-.2 2.6-.5 1.3-.3 2.5-.8 3.6-1.3.9-.4 1.8-.9 2.7-1.1.6-.2 2.5-.2 3.2-.6.6-.3 1-.7 1.3-1 .5-.4.7-.2 1.2-.4.3-.1 1.2-.4 1.3-.5 3.6-.7 6.6-2.5 6.6-2.5"/><path class="st0" d="M369.1 242.7c-.2 0 .4-.1.5-.1.3-.1.6-.2 1-.2 1.7-.4 3.8-1.2 5.6-1.6 5.2-1.5 10.7-2.8 14.7-6.6 1.5-1.4 3.1-1.5 3-3.7-.1-3.7-3.8-7.6-6.2-10.1-2-2.1-4.2-4.3-6.5-6-.8-.6-1.6-1.3-2.4-1.9-2-1.6-4.2-2.9-6.3-4.2-5.9-3.6-10.1-6.2-16.6-8.5-2.7-.9-5.6-1.6-8.5-2.3-1.7-.3-3.4-.7-5.2-1-3.9-.6-7.8-1.3-11.8-1.9-1.5-.2-1.4-.3-2.9-.5l-1.6-.3s-.5-.3-1.4-.2c-1-.1-1.3-.1-1.8-.4-.7-.5-.4-.4-1.1-.9-.2-.1-.6-.9-.8-1.1-.4-.5-.5-1.2-.7-1.8-.4-1.1-1.7-2.3-2.1-3.5-1.8-4.7-3.6-9.2-5.8-13.7-3.5-7.2-7.7-13.9-12.7-20.4-3.8-4.9-8.6-9.6-13.3-13.7-2.8-2.4-5.7-4.6-8.8-6.5-1.6-1-3.1-2.1-4.9-2.8-.8-.3-1.9-.5-2.8-.3-.5.2-.9.5-1.3.8-1.5 1.5-1.6 3.1-1.8 5.2-.1.6.1 3.1.3 3.6.3 1.1.1 2.5-.1 3.6-.5 2.6-.2 2.3-.7 4.9-.2 1 0 3.8.4 5.1.4 1.3.3.9.5 1.8.1.9 0 1.4-.1 1.9-.1.4-.1.9-.1 1.3 0 .8.4 1.6.6 2.4.6 2.2 1 4.5 1.3 6.9.4 3.7.2 7.9.1 11.8 0 1.5 0 3 .1 4.5 0 .6-.1 1.8-.2 2.3-.3 1.5-1.4 1.2-1.5 2.1 0 .6.1 1.3-.2 2-.3.7-1 .8-1.1 1.2-.1 1.4-.8.3-.6 1.6.1.7-.3 1.7-.5 2.3 0 .2-.1.3-.3.4-1.3 1-3.9-.6-5.2-.8-.7-.1-1.4-.1-2.1-.1-.6 0-1.4.3-1.9-.1-.1-.1-.2-.2-.3-.4-.4-.7-.7-1.4-1.1-2.1-.3-.5-1-.4-1.3-.9-.2-.4-.4-.9-.6-1.3-.3-.7-.5-1.4-.8-2.1-.3-.9-.6-1.9-1-2.8-.5-1.5-1-2.9-1-4.6 0-1.4-.5-8 .4-8.6.5-.4 1.1-1.5 1.2-2.3 0-.3-.4-1.8-.1-3.5.1-.9.5-1.8.4-2.8.1-.6.2-1.3.3-1.9v-1.4c0-.8.1-1.6.1-2.3.1-1.2.4-2.3.7-3.4.6-2.7 1.3-5.3 2-8 .4-1.9.9-3.9 1.3-5.9.4-1.8.6-3.5 1.1-5.2.8-2.4 1.7-4.7 3.1-6.8 1.7-2.5 4.2-4.8 7.1-5.8.5-.2 1.1-.4 1.7-.4.1 0 .3 0 .4-.1.2 0 .3-.1.5-.1h2.1c2.2.2 3 .8 4.9 1.7 2.8 1.3 5.4 3 6.4 3.6 3 2.1 3.9 3.1 5.9 4.6 1.8 1.3 3.4 2.9 5.1 4.5.7.7 1.4 1.4 2.2 2.1 3.2 2.6 6.4 5.3 9.5 8.1.4.3.8.6 1.2 1 .8.7 1.7 1.5 2.4 2.3 2 2.2 3.2 4.8 4.9 7.1.8 1.1 1.7 2.2 2.5 3.3.6.9 1.2 1.7 1.9 2.6.9 1.1 1.8 2.3 2.6 3.5.5.8 1 1.7 1.4 2.7.2.6.4 1.1.7 1.7.5.9.7 2 1.5 2.8.5.6 1 1.7 1.3 2.4.4 1 .9 1.5 1.1 2.5.1.5 1.1 2.6 1.4 3.3.7 1.5.2 3 1.3 4.2 2.1.3 4.6.9 6.5 1.2 7.5.8 11.6 1.4 14.7 2 2.2.5 3.8 1 6 1.6 4.4 1.2 5.9 1.6 9.7 3.2 3.6 1.6 6 3 9.3 5.2 3 2 6.1 4.1 8.9 6.5 1.3 1.2 2.6 2.3 4 3.5.9.9 1.8 1.8 2.6 2.7 2.9 3 4.4 6.6 6.5 10 2.6 4.1 3.7 9.5 1.3 14.1-.7 1.3-1.7 2.5-2.8 3.5-1 .8-4.7 3.3-7 4.4-1.3.6-.7 1.4-5.6 2.5-4.9 1-10.5 3.1-15.3 2.9-1.4 0-3.3-1.1-4.9-.4-2.4 1-4.9.5-7.1.5-2 0-3.9.4-5.6-.3-1.9-.7-3.7-.4-5.5-.4-3.5-.2-7.5-.9-10.8-1.7-1-.2-2-.4-2.9-.8-.4-.2-1.2-.2-1.4-.5-.1-.3 1-.6 1-.6.4-.1.6-.3 1-.4.2 0 3.2.4 4 .6 1.6.1 3.2-.4 4.7-.3 4.4.4 7.8 0 12.4 0 .5-.2 1.7.2 3.4.5.4-.2 1.6-.3 2.1-.3.4-.2 1.1-.4 1.6-.4.3-.1 1.9-.2 2.3-.2.3-.1 1.6-.2 1.9-.2.2-.1 2.1-.5 2.3-.5.7.2 2.8.1 2.1.3"/><path class="st1" d="m144 466.1 3.5-20.9h.1l6 13.7 6.1-13.7 3.6 20.9-3.5.5-1.5-10.4h-.1l-4.5 10.4h-.1l-4.6-10.4h-.1l-1.4 10.4zM178 466.1l-3.3.2v-2h-.1c-1.2 1.7-2.3 2.2-4.2 2.2-2.9 0-4.8-2-4.8-5.2V451l3.5-.5v9.9c0 1.6.7 3 2.2 3 2.2 0 3.2-1.8 3.2-3.7V451l3.5-.5v15.6zM182.3 448.3l3.5-1.7v4.3h3.1v3.3h-3.1v6.5c0 1.5.6 2.4 2.6 2.4.4 0 .8 0 1.2-.1l-.8 3.4c-.3.1-.9.1-1.4.1-2.9 0-5-1.7-5-5.1v-7.3h-2.1l.8-3.3h1.4v-2.5zM203.7 466.1l-3.3.2v-2h-.1c-1.2 1.7-2.3 2.2-4.2 2.2-2.9 0-4.8-2-4.8-5.2V451l3.4-.5v9.9c0 1.6.7 3 2.2 3 2.2 0 3.2-1.8 3.2-3.7V451l3.5-.5v15.6zM208.9 450.9c1.3-.3 2.7-.4 4-.4 2.5 0 5.2 1.2 5.2 4.3v11.4l-3.2.4v-1.3c-1 .9-2.2 1.4-3.5 1.4-2.9 0-5.2-1.9-5.2-5.4 0-2.7 2.1-5.2 4.7-5.2 1.5 0 2.5.3 3.8 1 0-.3.1-.6.1-1 0-2.1-1.4-2.5-3-2.5-1.4 0-2.7.4-3.9.9l1-3.6zm3.4 12.5c1.2 0 2.5-.8 2.5-2.2 0-1.3-1.3-2.2-2.5-2.2s-2.5.8-2.5 2.2c0 1.4 1.3 2.2 2.5 2.2zM221.4 466.4v-20.8l3.5-.4v20.9zM237.2 466.4v-20.8l3.6-.4v20.9zM245 451l3.3-.4v2.1h.1c1.2-1.7 2.3-2.2 4.2-2.2 2.9 0 4.8 2 4.8 5.2v10.4l-3.4.2v-9.7c0-1.6-.7-3-2.2-3-2.2 0-3.2 1.8-3.2 3.7v8.6l-3.5.2V451zM262.1 461.8c.9 1 1.8 1.6 3.1 1.6 1.1 0 1.9-.8 1.9-1.6 0-2.7-6.8-1-6.8-6.8 0-3.1 2.5-4.7 5.1-4.7 2 0 3.8.9 5.1 2.5l-2.3 2.2c-.7-.8-1.5-1.5-2.6-1.5-1 0-1.7.4-1.7 1.6 0 2.5 6.8.8 6.8 6.4 0 3.5-2.9 5-5.6 5-1.9 0-3.9-.8-5.2-2.5l2.2-2.2zM286 466.1l-3.3.2v-2h-.1c-1.2 1.7-2.3 2.2-4.2 2.2-2.9 0-4.8-2-4.8-5.2V451l3.4-.5v9.9c0 1.6.7 3 2.2 3 2.2 0 3.2-1.8 3.2-3.7V451l3.5-.5v15.6zM292.6 453.3c1.3-2.4 2.8-2.8 5.2-2.9l-1.2 4c-2.6 0-3.8 1.7-3.8 4.3v7.3l-3.4.2V451l3.3-.4v2.7zM301.1 450.9c1.3-.3 2.7-.4 4-.4 2.5 0 5.2 1.2 5.2 4.3v11.4l-3.1.4v-1.3c-1 .9-2.2 1.4-3.5 1.4-2.9 0-5.2-1.9-5.2-5.4 0-2.7 2.1-5.2 4.7-5.2 1.5 0 2.5.3 3.8 1 0-.3.1-.6.1-1 0-2.1-1.4-2.5-3-2.5-1.4 0-2.7.4-3.9.9l.9-3.6zm3.3 12.5c1.2 0 2.5-.8 2.5-2.2 0-1.3-1.3-2.2-2.5-2.2s-2.5.8-2.5 2.2c0 1.4 1.3 2.2 2.5 2.2zM313.7 451l3.3-.4v2.1h.1c1.2-1.7 2.3-2.2 4.2-2.2 2.9 0 4.8 2 4.8 5.2v10.4l-3.4.2v-9.7c0-1.6-.7-3-2.2-3-2.2 0-3.2 1.8-3.2 3.7v8.6l-3.5.2V451zM339.6 455.1c-.9-.6-1.9-1.1-2.9-1.1-2.6 0-4.5 1.9-4.5 4.6 0 2.6 2.2 4.6 4 4.6 1.4 0 2.2-.4 3.3-1.2l1.9 2.7c-1.3 1.5-3.4 1.9-5.2 1.9-3.6 0-7.5-3.1-7.5-8.2 0-4.6 3.6-7.9 7.6-7.9 2 0 3.6.7 5.1 1.8l-1.8 2.8zM356.5 464.6c-1.7 1.3-3.7 2-5.8 2-4.1 0-7.7-3.5-7.7-8.1s3.6-8.1 7.7-8.1c2.9 0 5.4 1.9 6.6 4.7l-9.5 6.5c.3.6 1 1.5 2.7 1.5 1.8 0 3.1-.7 4.5-1.8l1.5 3.3zm-3.6-10c-.7-.7-1.5-1-2.4-1-2.2 0-3.9 1.9-4.1 4.3 0 .3 0 .7.1 1l6.4-4.3zM380.2 465.8c-.8.5-2.2.8-3 .8-5.8 0-9.6-4.8-9.6-10.7 0-5.9 3.9-10.7 9.5-10.7.9 0 2.3.2 3 .7l.6 4.8c-1-.9-2.2-1.5-3.8-1.5-3.3 0-5.6 3.2-5.6 6.7 0 3.8 2.6 6.7 5.7 6.7 1.5 0 2.7-.8 3.6-1.7l-.4 4.9zM390.8 450.5c4.1 0 7.7 3.5 7.7 8.1s-3.6 8.1-7.7 8.1-7.7-3.5-7.7-8.1c.1-4.6 3.7-8.1 7.7-8.1m0 12.6c2.3 0 4.4-2 4.4-4.6 0-2.6-2.1-4.6-4.4-4.6-2.3 0-4.4 2-4.4 4.6 0 2.6 2.1 4.6 4.4 4.6zM401.1 451l3.3-.4v1.9c1.1-1.3 1.9-2.1 3.5-2.1 1.4 0 2.6.7 3.6 1.9 1.2-1.3 2.2-1.9 3.9-1.9 2.1 0 4.5 1.3 4.5 4.8V466l-3.5.2V456c.1-1.9-.8-2.2-2-2.2-1.4 0-2.2 1.2-2.2 3v9.3l-3.5.2V456c.1-1.9-.8-2.2-2-2.2-1.4 0-2.2 1.2-2.2 3v9.3l-3.5.2V451zM426.5 452.6c1.4-1.6 2.4-2.1 4.3-2.1 3.9 0 6.8 3.9 6.8 8.2 0 3.9-2.8 8-6.8 8-1.4 0-2.8-.4-4.1-1.6v6l-3.5.5V451l3.3-.5v2.1zm3.8 10.5c2.3 0 4-2.1 4-4.6 0-2.5-1.7-4.6-4-4.6s-4 2.1-4 4.6c0 2.5 1.7 4.6 4 4.6zM442.3 450.9c1.3-.3 2.7-.4 4-.4 2.5 0 5.2 1.2 5.2 4.3v11.4l-3.2.4v-1.3c-1 .9-2.2 1.4-3.5 1.4-2.9 0-5.2-1.9-5.2-5.4 0-2.7 2.1-5.2 4.7-5.2 1.5 0 2.5.3 3.8 1 0-.3.1-.6.1-1 0-2.1-1.4-2.5-3-2.5-1.4 0-2.7.4-3.9.9l1-3.6zm3.3 12.5c1.2 0 2.5-.8 2.5-2.2 0-1.3-1.3-2.2-2.5-2.2s-2.5.8-2.5 2.2c0 1.4 1.3 2.2 2.5 2.2zM454.9 451l3.3-.4v2.1h.1c1.2-1.7 2.3-2.2 4.2-2.2 2.9 0 4.8 2 4.8 5.2v10.4l-3.5.2v-9.7c0-1.6-.7-3-2.2-3-2.2 0-3.2 1.8-3.2 3.7v8.6l-3.5.2V451zM475.3 471.4l-3.4-.5 2.9-6.6-6-13 3.4-.8 4.3 9.7 3.7-9.7 3.4.8z"/><path class="st2" d="m123.6 355.7 3.9-11.3h51.1v11.3h-20.2V431l-12.4 1.5v-76.8zM177.6 433v-65.9l11.4-2v13.8h.3c3.7-8.1 9.8-14 19.7-14h6.1L210 377c-10.9-.6-20.2 7.3-20.2 23.9V431l-12.2 2zM220.8 433v-65.9l12.1-2V431zM220.8 355.8v-12.1l12.1-2v12.1zM304.7 355.8v-12.1l12.2-2v12.1zM248.8 432.5v-88.7l12.1-2.1V431zM276.8 432.5v-88.7l12.1-2.1V431zM304.8 433v-65.9l12.2-2V431zM383.3 365.1V431l-11.9 2v-9.5h-.3c-3.9 6.6-9.5 9.5-16.8 9.5-12.4 0-22.7-6.2-22.7-21.5v-44.4l12.1-2v44.7c0 9.5 4.8 12.5 11.7 12.5 9.1 0 15.6-5.8 15.6-19.6v-35.6l12.3-2zM397.6 433v-65.9l11.6-2v8.7h.3c2.4-4.8 8.5-8.7 16.2-8.7 7.6 0 13.5 2 16.7 9.3 2.5-5 10.2-9.3 18.9-9.3 11.5 0 21.2 6.2 21.2 20.2V431l-12.1 2v-45.5c0-7.1-2.9-11.7-10.4-11.7-5.4 0-13.9 3.2-13.9 13V431l-12.1 2v-45.5c0-7.1-2.9-11.7-10.4-11.7-5.4 0-13.9 3.2-13.9 13V431l-12.1 2z"/></svg>