<svg version="1.1" id="Layer_1" xmlns="http://www.w3.org/2000/svg" xmlns:xlink="http://www.w3.org/1999/xlink" x="0" y="0" width="285" height="202" style="enable-background:new 0 0 285 202" xml:space="preserve"><style>.st2{fill:#97785d}.st4{fill:#8b2332}</style><defs><path id="SVGID_1_" d="M.1.2h284.1V202H.1z"/></defs><clipPath id="SVGID_2_"><use xlink:href="#SVGID_1_" style="overflow:visible"/></clipPath><path d="M145.2 202H139c-8.1-7.4-41.5-10.2-60.6-10.3-23.9 0-40.1-10.1-47.2-29.3C12.4 156.7 0 140.3 0 120.8c0-4.3 1-8.7 2-12.8 1-4.1 1.9-8 1.9-11.7 0-3.4-.8-6-1.8-9.1C1.2 83.9 0 80.3 0 75.6c0-18.2 12.4-33.4 31.3-38.7C36.5 24 48.9 9.8 78.3 9.8 97.6 9.7 131 7 139.1.2h5.9c8.1 6.8 41.5 9.5 60.7 9.6 29.5 0 41.9 14.2 47.1 27.1 18.9 5.3 31.3 20.6 31.3 38.7 0 4.7-1.2 8.3-2.2 11.6-1 3-1.8 5.7-1.8 9.1 0 3.8.9 7.6 1.9 11.7 1 4.2 2 8.5 2 12.9 0 19.4-12.4 35.8-31.2 41.5-7.1 19.2-23.3 29.3-47.2 29.3-18.9.1-52.3 3-60.4 10.3" style="clip-path:url(#SVGID_2_);fill:#fff"/><path d="M34.8 158.5C16 153.9 4.6 138.2 4.6 120.8c0-7.7 4-16.2 4-24.6 0-8.2-4-12.7-4-20.7 0-16 11.4-30.6 30.1-34.8 5-14.5 17.1-26.4 43.7-26.4 0 0 51.2-.2 63.7-10.6 12.4 10.4 63.7 10.6 63.7 10.6 26.6 0 38.7 11.8 43.7 26.4 18.8 4.3 30.2 18.8 30.1 34.8 0 8-4 12.5-4 20.7 0 8.4 4 16.9 4 24.6 0 17.4-11.4 33.1-30.1 37.7-5 15.7-17.1 28.6-43.7 28.5 0 0-51.2.2-63.7 11.5-12.4-11.3-63.7-11.5-63.7-11.5-26.6.1-38.6-12.7-43.6-28.5z" style="clip-path:url(#SVGID_2_);fill:none;stroke:#97785d;stroke-width:1.158;stroke-linejoin:bevel;stroke-miterlimit:10"/><path class="st2" d="M91.7 152.8h-4.3v-1.4h1.1v-10h-1.1V140h4.3v1.4h-1.2v10h1.2v1.4M101.4 153.2c-1 0-4.2-.5-4.2-6.7 0-2.5.6-6.7 4.4-6.7.5 0 1.8.1 2.7 1.1.9.9 1.1 2 1.1 2.5v.1l-1.9.4v-.2c-.1-.8-.5-2.2-1.9-2.2-1.1 0-1.6.9-1.9 1.5-.5 1.1-.5 2.9-.5 2.9 0 3.5.8 5.3 2.4 5.3.8 0 1.3-.6 1.5-.9.3-.6.4-1.3.4-1.6v-.2l2 .4v.1c-.1 1.1-.5 2.2-1.2 2.9-1.1 1.3-2.4 1.3-2.9 1.3M120.3 152.8H112V140h8v1.8h-6v3.3h4.4v1.9h-4.3v3.9h6.2v1.9M138.1 153.2c-1 0-4.2-.5-4.2-6.7 0-2.5.6-6.7 4.4-6.7.5 0 1.8.1 2.7 1.1.9.9 1.1 2 1.1 2.5v.1l-1.9.4v-.2c-.1-.8-.5-2.2-1.9-2.2-1.1 0-1.6.9-1.9 1.5-.5 1.1-.5 2.9-.5 2.9 0 3.5.8 5.3 2.4 5.3.8 0 1.3-.6 1.5-.9.3-.6.4-1.3.4-1.6v-.2l2 .4v.1c-.1 1.1-.5 2.2-1.2 2.9-1.2 1.3-2.5 1.3-2.9 1.3M157.7 152.8h-2.4v-.1l-2.9-5.5h-1.7v5.5h-2V140h4c4.2 0 4.4 2.9 4.4 3.5 0 2.4-1.7 3.1-2.6 3.4l3.2 5.9m-7.1-7.2h.6c1 0 1.6 0 2-.1.8-.2 1.6-.5 1.6-1.8s-.9-2-2.7-2h-1.6v3.9zM171.7 152.8h-8.4V140h8.1v1.8h-6v3.3h4.4v1.9h-4.4v3.9h6.3v1.9M187.2 152.8h-2.1l-.8-2.6h-4.7l-.8 2.6h-2.1l4.1-12.8h2.2l4.2 12.8m-7.2-4.4h3.6l-1.9-6-1.7 6zM204.1 152.8h-1.7v-11.4l-3 11.4h-1.6v-.1l-3-11.4v11.5h-1.7V140h2.9v.1l2.7 9.7v.1l.1-.1 2.6-9.8h2.9v12.8"/><path d="M248.9 123.3c-2.5 0-4.4 2.1-4.4 4.6 0 2.5 1.9 4.6 4.4 4.6 2.4 0 4.4-2.1 4.4-4.6 0-2.5-2-4.6-4.4-4.6m0 8.1c-1.9 0-3.3-1.5-3.3-3.5 0-2.1 1.4-3.5 3.3-3.5s3.4 1.5 3.4 3.5c0 2.1-1.5 3.5-3.4 3.5zm2.3-4.4c0-1.3-.7-1.5-1.8-1.5h-2.2v4.8h1v-2h.7l1 2h1.1l-1.1-2c.8-.1 1.3-.5 1.3-1.3zm-1.8.5h-1.2v-1.2h1c.4 0 1 0 1 .5 0 .6-.3.7-.8.7z" style="fill-rule:evenodd;clip-rule:evenodd;fill:#8b2332"/><path class="st4" d="M60 135.8c-1 0-2-.2-2.9-.7-1.1-.6-4.6-2.9-3-8 .2-.7 11.2-48.3 11.3-48.8 1-7 2.3-15.8-3.9-20.2-3.5-1.5-7.1-.7-11.9 2.7-9 6.3-17.9 21.3-19.4 32.8-.6 4.4 0 7.9 1.8 9.9 1 1.3 2.9 1.5 3.9 1.5.8 0 1.7-.1 2.5-.4 3.7-1 9.4-4.8 13.4-11.9l.1-.1c.5-.7 1.2-1.1 2.1-1.1.7 0 1.3.3 1.7.8.5.5.6 1.3.5 2.1v.2c-3.8 10.2-13.1 16.2-19.8 16.6-3.7.2-6.4-.8-9.1-3.4l-.1-.1c-8.1-9.9-3.1-28.6 2.9-38.1C37.2 57.9 47.4 51 57.4 51c.9 0 1.8.1 2.6.2 5.8.7 10.8 4.7 13.4 10.6 4.9 11.3 0 29.7-3.9 44.4-1.3 4.8-2.5 9.4-3.3 13.3 0 0 0-.1.1-.1 4.8-9.8 10.4-21.1 15.9-30.1 9.1-15.5 24.1-36.2 49-36.3h.1c3.5 0 5.2.3 7.2.7l.4.1c2 .4 3.3 1.8 3.3 3.6 0 1.9-1.8 3.5-4.1 3.6h-.2c-2-.3-4-.5-5.9-.5-16.9 0-33.3 11.5-45.2 31.7-7.2 12.3-14.5 26.4-20.6 39.9l-.1.1c-1.4 2.3-3.6 3.6-6.1 3.6M254.1 83.2s-2.7.8-9.3 1.7c0 0-.3 0-.8.1.9-1.2 1.7-2.3 2.6-3.4.8-1 1.5-1.9 2.2-2.8.6-.8 1.2-1.6 1.8-2.3 1.7-1.9 2.9-4.8 1-6.6-.8-.7-1.6-1.1-2.6-1.1-1.1 0-2.3.5-3.3 1.6-2.5 2.6-6.3 7-11.5 15.5-3.7.3-7.7.5-11 .6-3 0-3.2 5 .7 5.2 1 .1 3.7.1 7 0-3.4 6.5-5.8 12.4-5.9 12.7-.2.5-.4 1-.6 1.6-3.6 4.3-17.9 18.5-27.8 18.5-4.9.2-7.2-2.8-6.4-8.4.7.2 4 .7 6.4.4 5-.7 10-2.7 14-5.7 3.7-2.8 6.3-6.3 7.6-10.2.6-2.1.7-4.4.1-6.6-.3-1.2-.8-2.4-1.6-3.4-1.1-1.5-3.1-2.7-5.4-3.1-6.1-1.1-12.6 1.1-18.6 6.2-4.2 3.6-8 8.5-11 14.1-.3.6-.7 1.4-1 2.2-1.1 2.7-1.7 5.6-1.8 8.3-.1 2.3.2 4.4.9 6.2.3.8.7 1.6 1.1 2.2 1.6 2.4 3.4 4.1 6.9 5.1 1.2.3 2.5.5 3.8.5 10.1 0 21.5-9.1 28.8-16.3-.6 2-1.2 4-1.7 6.1-.9 3.5-.5 6.2.9 8.1 1.7 2.1 4.4 2.5 6.4 2.5 1.1 0 2-.1 2.3-.2 11.1-2.1 22.3-20.8 22.4-21 .3-.6.3-1.2-.1-1.7-.3-.5-.9-.8-1.5-.8s-1.1.3-1.5.8c-1.8 2.6-10.1 12.2-15.5 15-.5.3-1.2.4-1.8.4-.9 0-1.5-.3-1.8-.9-2.3-4.3 3.4-20.1 11-33 6.3-.3 12.5-.6 15-1.1 9.9-1.5 6.8-9.6-.4-7m-62.4 27.2c.2-4.8 4.8-11.7 10.3-15.4l.2-.1c1.6-1.1 3.2-1.8 4.6-2 .2 0 .4-.1.6-.1.6 0 1.6.2 2 1.4 0 .1.1.2.1.3 1.4 5.6-7.9 17.1-15.2 17-1 0-1.8-.2-2.6-.7v-.4z"/><path class="st4" d="M196.6 82c-3.5-1.5-8.6 1.1-16.3 11-3.3 4.3-15.9 25.1-16.1 25.4-.1.1-.1.2-.2.3-.5.9-1.7.8-1.8-.3v-.2c.3-2.7.6-5.3.9-7.8.5-3.6.9-7.2 1.2-10.8.2-2 .4-3.7.5-5.3.2-2.8.1-4.7-1.2-5.9-2.2-1.5-6.1-.4-7.5 1.9-1.3 2.1 1.2 1.8-.6 15.6-4.4 5.2-14 15.7-21.7 19-.5.2-1 .3-1.6.3-.6 0-1.5-.2-2.1-1-.7-1-.8-3.1-.2-5.8.7-3.1 3.2-8.8 5.2-12.1.2-.2.5-.4 1-.8 2.2-1.8 8.1-7.3 11.6-11.1 12.1-13.4 15.1-22.3 15.6-24 .8-2.7.1-4.3-.6-5.2-.9-1.2-2.5-1.9-4.4-1.9-2.5 0-5.2 1.1-7.3 3.1l-.4.4c-2.1 1.8-8.3 7.4-16.1 20.8-4.5 7.8-8 16.4-8.2 16.8-.3.8-.7 1.7-1.1 2.7-.1.2-.2.4-.3.7-4.5 5.4-15.2 16.9-24.7 16.8-4.9.2-7.2-2.8-6.4-8.4.7.2 4 .7 6.4.4 5-.7 10-2.7 14-5.7 3.7-2.8 6.3-6.3 7.6-10.2.6-2.1.7-4.4.1-6.6-.3-1.2-.8-2.4-1.6-3.4-1.1-1.5-3.1-2.7-5.4-3.1-6.1-1.1-12.6 1.1-18.6 6.2-4.2 3.6-8 8.5-10.9 14.1-.4.6-.7 1.4-1 2.2-1.1 2.7-1.7 5.6-1.8 8.3-.1 2.3.2 4.4.9 6.2.3.8.7 1.6 1.1 2.2 1.6 2.4 3.4 4.1 6.9 5.1 1.2.3 2.5.5 3.8.5 9.5 0 19.2-7.5 25.8-14.3-.4 1.4-.8 2.8-1.1 4.2-.8 3.5-.5 6.2.9 8 1.3 1.7 3.5 2.5 6.5 2.5.7 0 1.5-.1 2.2-.2 9.2-1.3 18.7-11.4 24.7-19.1-.5 4.8-1 10.7-1 12.9 0 .6 0 1.1.1 1.6.2 1.8.8 2.9 1.8 3.5 2 1 3.8-.1 5.3-1.3 3.5-2.7 18.7-27.7 23.1-33.5 4.4-5.8 8.7-8.9 12.1-9.8 2.9-.5 2.8-4 .9-4.9m-40.3-10h.4s.2.3-.3 1.9c-.5 1.4-7.4 15.3-18.8 23.8 5.6-13 16.3-24.7 18.7-25.7zm-61 38.4c.2-4.8 4.8-11.7 10.3-15.4l.2-.1c1.6-1.1 3.2-1.8 4.6-2 .2 0 .4-.1.6-.1.6 0 1.6.2 2 1.4 0 .1.1.2.1.3 1.4 5.6-7.9 17.1-15.2 17-1 0-1.8-.2-2.6-.7v-.4z"/><path class="st2" d="M195.9 48c1.4-2.1 2.9-3.8 4.4-4.9.8-.5 1.6-.9 2.4-.9.6 0 1.4.2 1.3 1-.1 1.3-2.2 2.9-4.8 4-.3.1-.7.3-1 .4-.7 1.3-1.3 2.6-1.9 3.8-2.9 5.7-7.3 7.9-12.3 8.3-2 .1-4.5-.1-6.2-1.3-1.4 1.3-2.6 2.5-3 3.5-.1.2-.2.4-.3.3-.1 0 0-.3 0-.5.4-1.1 1.4-2.5 2.9-3.8-.8-.7-1.5-2-1.4-3.6.3-3.7 5.1-5.7 7.9-5.9 2-.2 5.1.3 6.2 1.9 2-.7 3.8-1.5 5.8-2.3m-12.1.9c-2.7.2-6.3 1.9-6.6 5.4-.1 1.3.3 2.4.8 3 .3-.3.8-.7 1.2-1 .7-.5 1.3-1 2.2-1.5-.4-.4-.7-.9-.8-1.4 0-.2 0-.4.1-.4s.1.2.1.3c.2.5.5.9.9 1.3 1.6-1 3.4-1.9 5.1-2.7.8-.4 1.7-.8 2.5-1.1-.8-1.7-3.6-2.1-5.5-1.9zm-1.8 6.3c-.8.5-1.5 1-2.3 1.6-.5.3-.8.6-1.3 1 1.4 1.4 3.8 1.7 5.9 1.5 4-.3 7-3 9.7-8 .6-1 1.1-1.9 1.7-2.8-1.9.8-3.6 1.5-5.4 2.4.1.3.2.8.2 1.2-.1 2.5-3.1 4-5.6 4-.9-.1-2-.3-2.9-.9zm7.6-3.1c0-.3 0-.6-.1-.9-.8.4-1.6.8-2.5 1.2-1.3.6-3 1.5-4.6 2.6.8.5 1.8.6 2.5.6 2 .1 4.6-1.3 4.7-3.5zm9.5-5.3c2.1-.9 4.3-2.3 4.4-3.6.1-.5-.4-.8-.9-.7-.5.1-1.1.5-1.7 1.1-.7.6-1.8 2.2-2.5 3.5.2-.1.5-.2.7-.3zM197.6 54.4c-.6.5-1 .8-1.4 1.1-.3.3-.5.4-.6.3-.1-.1 0-.2.4-.6.4-.4 1.8-1.5 2.7-2.1 1-.7 1.5-.8 2.2-.8.8 0 .9.1.4.6-.7.8-1.3 1.5-2.1 2.4-.6.8-1.1 1.5-1.3 1.9-.2.4-.3.7-.1.8.2.2.5.1.9-.1s1-.6 1.7-1.1c.8-.6 1.1-1 1.7-1.5.3-.3.5-.5.6-.3.1.1-.3.5-.4.6-.5.5-1.4 1.3-2.2 1.9-.8.6-2.1 1.6-3.3 1.6-.8 0-1.1-.4-1.1-1 0-.5.3-1 .6-1.4.8-1.2 2.2-2.7 2.9-3.3-.3 0-1.1.6-1.6 1m6.9-7.3c.5 0 .7.4.3 1-.5.6-1.4 1-1.8 1-.2-.2-.2-.8 0-1.3s.8-.7 1.5-.7z"/><path class="st2" d="M209 57.9c0-.8.9-1.8 1.6-2.7.6-.7 1.1-1.3 1.6-1.9.2-.2.2-.4 0-.5-.2-.1-.6 0-1 .2-.7.3-1.7 1-3 1.9-1.7 1.3-2.6 2.2-4.3 3.5-.3.3-.6.3-1 .3-.5 0-.8-.1-.5-.6.3-.5 1.1-1.7 1.7-2.5.4-.6 1.1-1.4 1.5-2 .3-.3.3-.5.3-.6-.1-.2-.3-.1-.6 0-.5.2-1 .6-1.5 1s-1.1 1-1.6 1.4c-.4.3-.5.5-.7.3-.1-.1.1-.3.6-.7.5-.4 1.3-1.2 2-1.8 1-.8 1.8-1.3 2.6-1.3.7 0 1 .4 1 .8 0 .5-.3.9-.8 1.6-.6.8-1.4 1.8-1.8 2.4.9-.8 2.2-1.9 3.5-2.9 1.3-1 3-2.1 4.1-2.1.8 0 1.3.4 1.2 1-.1.7-.9 1.6-1.5 2.3-.6.7-1.1 1.4-1.3 1.7-.3.5-.3.7-.1.8.2.1.6 0 .9-.2.5-.2 1-.5 1.8-1.2.7-.5 1.4-1.2 1.8-1.6.3-.3.4-.3.5-.2.1.1 0 .2-.3.5s-1.5 1.4-2.3 2c-.8.6-2.2 1.5-3.4 1.5-.6.6-1 .3-1-.4M217.1 59.1c-1.4 0-2.1-.6-2-1.6.1-.8.5-1.6 1.1-2.3l-.6.6c-.2.2-.4.3-.5.2-.1-.1.1-.3.2-.4.5-.5.8-.7 1.4-1.1.4-.3 1.2-.8 1.8-1.1 1.3-.7 2.5-1.2 3.5-1 .9.2 1.2.7 1 1.4-.2.7-.8 1.3-1.3 1.3-.6 0-.6-.5-.3-1.1.4-.7.6-1.2.1-1.3-.4-.1-1.3.5-2.4 1.6-1 1-2 2.5-2.1 3.4-.1.6.3.9.9.9.5 0 1.8-.2 3.5-1.4.7-.5 1.7-1.3 2.3-1.8.2-.2.3-.2.4-.2.1.1-.1.3-.3.5-.5.5-1.6 1.4-2.2 1.8-1.3.8-3.1 1.6-4.5 1.6"/><path class="st2" d="M229.5 57.1c.7-.5 1.6-1.2 2.3-1.8.2-.2.3-.2.4-.2.1.1-.1.3-.3.5-.5.5-1.7 1.4-2.4 1.9-1.6 1.1-3 1.6-4.3 1.6-1.4 0-2.1-.5-2-1.5 0-.8.4-1.4 1.1-2.4-.1.1-.5.5-.8.7-.2.2-.3.2-.4.1-.1-.1.1-.3.2-.4.5-.5.8-.7 1.4-1.1.4-.3 1.1-.8 1.9-1.1 1.1-.6 2.2-1.1 3.3-1.1.8 0 1.1.5 1.1 1-.1 1-1.3 1.7-2.4 2.3-1.1.5-2.4 1-3.3 1.2-.2.3-.2.6-.2.9 0 .6.3.9.9.9.5-.1 1.8-.4 3.5-1.5m-1.3-1.9c.9-.6 1.5-1.4 1.6-2 0-.3-.1-.5-.5-.5-.3 0-.9.4-1.7 1.1-.6.6-1.6 1.8-2 2.6.8-.3 1.8-.7 2.6-1.2zM190.3 65.5c-.8.4-1.8.6-1.8.4s.1 0 1.8-1c1.1-.6 2.4-1.3 3.3-1.9.4-.3 1.2-.7 1.6-.7.3 0 .3.2-.3.8-2.4 2.9-4.2 5.3-6 7.8-1 1.3-1 1.4-2.7 1.7-.7.1-.9.1.2-1.4 1.9-2.5 5.8-7 6.4-7.3-.7.6-1.7 1.2-2.5 1.6M189.9 75.9c1.4 0 3.1-.6 5.1-2.2 1.5-1.1 3.5-3.4 4.6-5 1.7-2.5 2.5-3.9 2.6-5 .1-.6-.1-1-.6-1-.9-.2-2.6.9-3.9 2.8-1.1 1.5-1.3 3-.5 3.2.6.2 1.4-.3 1.9-.6.3-.2.5-.4.5-.3.1 0-.1.3-.5.6-.7.5-1.5.9-2.4.8-1.6-.3-1.9-2.4-.4-4.3 1.4-2 4.1-2.7 5.4-2.5 1 .2 1.5 1 1.6 1.9.1 1.3-.7 3.3-2.2 5.2-2.8 3.6-7.5 6.8-11.3 6.8-1.1 0-2-.5-2.2-1.2-.1-.2-.1-.5 0-.5s.1.1.2.3c.5.7 1.3 1 2.1 1M207.6 65.5c-.8.4-1.8.6-1.8.4 0-.2.1 0 1.8-1 1.1-.6 2.4-1.3 3.3-1.9.4-.3 1.2-.7 1.6-.7.3 0 .3.2-.3.8-2.4 2.9-4.2 5.3-6 7.8-.9 1.3-1 1.4-2.7 1.7-.7.1-.9.1.2-1.4 1.9-2.5 5.8-7 6.4-7.3-.8.6-1.7 1.2-2.5 1.6M222.3 62.3c.3 0 .3.1 0 .4-2.5 3.1-4.6 6-5.8 7.8.5 0 1.1.1 1.5.2.4.1.6.2.5.4 0 .1-.2 0-.7 0-.6 0-1.2-.1-1.6-.1-1.3 1.6-2 2.6-3 4-.6.8-1.1 1-1.9 1.1-.8.2-1.1.2-.1-1.3 1-1.3 1.8-2.4 2.9-3.8-1.2 0-2.1 0-3 .1-.6 0-1.1.1-1.6.2-.2 0-.5.1-.5-.1s.3-.5.6-.6c.8-.6 2.8-2.2 4.8-3.5 2.5-1.7 4.3-2.9 6.2-4.1.8-.6 1.3-.7 1.7-.7m-2.4 1.7c-1.3.8-3.6 2.2-5.2 3.4-1.7 1.2-3.2 2.3-4.3 3.2 1.1-.2 3.1-.2 4.1-.2 1.4-1.8 4.4-5.4 5.4-6.4z"/></svg>