<svg version="1.1" id="Layer_1" xmlns="http://www.w3.org/2000/svg" x="0" y="0" width="92" height="22.5" style="enable-background:new 0 0 92 22.5" xml:space="preserve"><style>.st0{fill-rule:evenodd;clip-rule:evenodd}</style><path class="st0" d="M33.7 11.8c.1-.5.2-1 .2-1.4 0-.4-.1-.9-.2-1.4-.1-.4-.3-.8-.6-1.1-.2-.2-.4-.4-.6-.5-.1-.1-.2-.1-.3-.2l.1-.1c.1-.1.3-.2.4-.5.3-.5.5-1.1.5-1.9 0-.5-.1-.9-.2-1.3s-.3-.7-.6-1c-.3-.3-.7-.5-1.1-.5h-4.4v.7h.3c.2 0 .3.1.3.1.1.1.2.1.3.3.1.1.2.3.2.5v7.2c0 .6 0 1-.1 1.2 0 .2-.1.4-.2.6-.1.1-.1.2-.2.2h-.1c-.1.1-.2.1-.4.1h-.2v.7H31c.5 0 .9-.1 1.2-.1.4-.1.6-.3.9-.5.3-.3.5-.6.6-1.1m-2.3-7.9c.1.4.1.8.1 1.1 0 .4 0 .7-.1 1-.1.3-.2.5-.4.7 0 0-.1.1-.2.1h-.1c-.1 0-.1.1-.3.1h-.1c-.1.1-.3.1-.5.1h-.2V2.8h.2c.5 0 .7 0 .7.1.3 0 .4.1.5.2.2.2.3.4.4.8zm-1.7 7.9c0-.2-.1-.5-.1-1v-3h.7c.4 0 .9.1 1.3.5.1.2.3.5.4.8.1.4.1.9.1 1.3 0 .8-.1 1.4-.4 1.8-.3.4-.7.6-1.1.6-.3 0-.6-.1-.7-.4-.1-.2-.2-.4-.2-.6zM14.1 13.3c.5.3.9.5 1.4.5.5 0 1-.2 1.4-.5.4-.3.8-.7 1.1-1.3.3-.5.5-1 .6-1.5.1-.5.2-1 .2-1.7 0-1.2-.3-2.2-.8-3.1-.4-.6-.7-1-1.1-1.3-.3-.3-.8-.4-1.3-.4-.3 0-.7.1-1.1.3-.4.2-.7.5-1 .8-.4.5-.7 1.1-.9 1.7-.2.7-.3 1.4-.3 2.1 0 .6.1 1.1.2 1.7.1.5.3.9.6 1.4.2.6.6 1 1 1.3m1.4-8.6c.3 0 .5.1.6.2.2.1.4.4.5.7.2.4.4.9.5 1.5.1.6.2 1.2.2 1.9 0 1.2-.2 2.3-.6 3.1-.1.3-.3.6-.5.8-.4.3-.9.3-1.2 0-.2-.1-.4-.4-.6-.7-.4-.8-.6-1.8-.6-3.1 0-.6.1-1.2.2-2 0-.6.2-1.1.4-1.5.2-.3.4-.6.6-.7.1-.2.4-.2.5-.2zM19.1 4.9s.1.1.2.1.2.2.3.6l1.3 3c.2.4.3.7.3.9V12.2c-.1.2-.1.4-.2.4-.1.1-.1.2-.2.2s-.2.1-.3.1h-.3v.7h3.2v-.7h-.3c-.2 0-.3-.1-.4-.2-.1-.1-.1-.3-.2-.4V9.1c0-.1.1-.3.2-.5l1-2.3c.2-.5.4-.9.6-1.2l.3-.1h.1c.1 0 .1-.1.2-.1h.3v-.7h-2.5v.7h.3c.2 0 .2 0 .3.1.1.1.1.3.1.5s0 .4-.2.6l-.9 2.1-.9-2.2c-.1-.2-.1-.3-.2-.5v-.2c0-.2.1-.3.1-.4h.6v-.7h-3.3v.7h.5M12 12.8s-.1-.1-.1-.2c-.1-.2-.2-.4-.3-.7-.1-.2-.2-.5-.3-.9l-.3-.9c0-.1-.1-.3-.1-.4 0-.2-.1-.3-.1-.3-.1-.1-.1-.3-.2-.4l-.1-.1c.1 0 .1-.1.2-.1l.4-.4c.4-.4.5-1 .5-1.8 0-.5-.1-.9-.2-1.3-.2-.4-.4-.7-.8-.9-.3-.1-.6-.2-1.1-.3H8L7.9 2H.1L0 5.5l.6.1v-.3c.1-.6.2-1.1.4-1.4.1-.4.3-.6.6-.8.2-.2.7-.2 1.1-.3h.4v7.9c0 .6 0 1-.1 1.2 0 .2-.1.4-.2.6l-.2.2c-.1.1-.2.1-.4.1H2v.7h4v-.7h-.2c-.1 0-.3 0-.4-.1h-.1c-.1 0-.2-.1-.2-.2-.1-.2-.2-.4-.2-.6 0-.2-.1-.7-.1-1.2V2.8c.5 0 1.1 0 1.3.2.4.1.7.4.9.7 0 .2.1.3.2.5h-.8v.7H7s0 .1.1.2.1.3.1.4v5.7c0 .4 0 .8-.1 1 0 .2-.1.3-.1.4 0 .1 0 .2-.1.2h-.5v.7h3.2v-.7h-.5c-.1 0-.1-.1-.2-.2s-.1-.3-.1-.5V9.2H9s.1 0 .1.1c.1.1.3.5.4.9l.1.2c.2.4.3.9.5 1.4l.3 1.1s.1.1.1.4v.2h1.9v-.7h-.3c-.1.1-.1 0-.1 0m-2-6c0 .6-.1 1.1-.4 1.5-.1.1-.2.2-.3.2 0 0-.2.1-.6.1V4.9c.2 0 .4 0 .5.1.1 0 .2.1.3.2.1.2.2.4.3.7.1.3.2.6.2.9zM89.9 4.2h-6.2l-.1 2.9h.6v-.2c0-.4.1-.8.3-1.1.1-.3.3-.5.4-.6.1-.1.4-.2.9-.3h.3v6.3c0 .4 0 .8-.1 1 0 .2-.1.3-.1.4-.1.1-.1.2-.2.2s-.2.1-.3.1h-.3v.7h3.2v-.7h-.6l-.2-.2c-.1-.1-.1-.3-.1-.5V4.9c.5 0 .8.1 1 .2.2.1.4.3.6.5.1.3.3.7.3 1.3v.2h.7l-.1-2.9zM77 4.9h.6c.1 0 .1.1.2.2s.1.3.2.4v5.8c0 .2 0 .5-.1.6 0 .1-.1.3-.2.4-.2.2-.4.4-.6.5-.5.2-1 .2-1.3 0-.2-.1-.3-.4-.4-.7-.1-.2-.1-.4-.2-.7 0-.2-.1-.6-.1-1.3V6.6c0-.5 0-.9.1-1.1 0-.2.1-.3.1-.4 0-.1.1-.1.2-.2h.5v-.7h-3.2v.7h.5l.2.2c.1.1.1.3.2.4v5.9c.1.6.2 1.1.5 1.4.4.6 1.1.9 2 .9.9 0 1.5-.3 2-.9.2-.3.3-.5.4-.8.1-.3.1-.7.1-1.4v-5c0-.2.1-.3.2-.5 0-.1.1-.1.1-.1.1 0 .1-.1.3-.1h.3v-.7H77v.7z"/><path class="st0" d="m82.3 7.9-.6-.5c-.5-.4-.8-.9-.8-1.5 0-.2 0-.3.1-.5 0-.1.1-.2.1-.3V5c.2-.3.4-.4.5-.4.2 0 .3 0 .4.2.1.1.3.3.4.7.1.1.1.3.2.5 0 .2.1.4.1.6l.1.5h.6L83.3 4h-.6V4.3h-.1l-.3-.2c0 .1-.1 0-.3-.1h-.4c-.5 0-.9.3-1.3.7-.2.3-.3.6-.4 1-.1.4-.1.8-.1 1.1 0 .6.1 1.1.4 1.6.1.2.2.4.4.5.1.1.3.3.6.5s.5.4.7.6c.1.1.2.3.3.5.1.1.1.3.1.5.1.2.1.4.1.6 0 .5-.1.8-.3 1.1-.1.2-.3.4-.6.4-.4 0-.7-.5-.9-.9-.2-.4-.3-.9-.4-1.5v-.2h-.5v3.2h.5l.1-.2v-.1h.2s.1.1.2.1c.4.2.8.4 1.2.4.5 0 .9-.2 1.2-.5.3-.3.6-.7.8-1.3.1-.4.1-.8.1-1.2 0-.6-.1-1.2-.4-1.7-.4-.5-.8-.9-1.3-1.3M33.8 13.5h2.4v-.7h-.3c-.1 0-.2 0-.2-.1s-.1-.1-.1-.3c0-.1-.1-.2-.1-.4s.1-.7.2-1l.3-1h1.5l.3 1.3.1.3c.1.3.1.5.1.7 0 .2-.1.4-.2.5 0 0-.1.1-.3.1h-.2v.6h5.3v-.7h-.3c-.1 0-.2 0-.3-.1-.1 0-.1-.1-.2-.2s-.1-.3-.1-.4c0-.1-.1-.4-.1-.9V6.7l3.6 6.9h.6v-8c.1-.2.2-.4.2-.5.1-.2.2-.2.4-.2h.4c.1 0 .2 0 .3.1.1 0 .1.1.1.1v.1c.1.1.1.2.1.4v6.8c0 .2-.1.3-.2.5 0 .1-.1.1-.1.2-.1 0-.1.1-.3.1h-.3v.7h3.2v-.7h-.5c-.1-.1-.2-.1-.2-.2-.1-.1-.1-.3-.1-.4 0-.1-.1-.4-.1-.9v-2l.8 1.4c.1.2.2.4.4.7v.1c.1.3.3.6.3.7.1.3.2.5.2.6 0 .1 0 .2-.1.2 0 0-.2.1-.3.1h-.2v.6h3.3v-.6h-.2c-.1 0-.2 0-.2-.1h-.1l-.2-.2c-.2-.2-.3-.4-.5-.7l-2.1-4.1 1.3-1.9c.3-.4.4-.6.6-.7l.1-.1H52.4V4.2h-2.3v.7h.3c.1 0 .2 0 .2.1.1.1.1.1.1.3V5.6s-.1.2-.3.5l-1.3 2V6.5c0-.5 0-.8.1-.9 0-.2.1-.3.1-.4-.1-.2-.1-.2 0-.3h.6v-.7h-5.6v.7h.3c.1 0 .2 0 .3.1-.1 0 0 0 .1.1s.1.3.1.4c0 .2.1.5.1 1v3.6l-3-5.9h-2v.7h.3c.2 0 .2 0 .3.1.1 0 .1.1.2.2s.1.3.1.4c-.2 0-.1.4-.1.9v4.8c0 .5 0 .8-.1 1 0 .2-.1.3-.1.4-.1.1-.1.2-.2.2h-.4c-.1 0-.2 0-.3-.1-.1 0-.1-.1-.1-.1-.1-.1-.2-.3-.2-.4-.1-.2-.2-.6-.3-1.1l-1.9-7h-.6l-1.6 6.3c-.1.6-.3.9-.3 1.2-.1.3-.2.5-.2.6-.1.3-.2.4-.3.4-.1.1-.1.1-.2.1h-.3v.7zm2.4-4.3.5-2.1.5 2.1h-1zM64.2 2.8v8c0 .6 0 1-.1 1.2-.1.2-.1.4-.2.6-.1.2-.2.2-.3.3-.1.1-.2.1-.4.1H63v.7h4V13h-.2c-.1 0-.3 0-.4-.1h-.1c-.1 0-.1-.1-.2-.2s-.2-.3-.2-.6c-.1-.3-.1-.6-.1-1.2v-8c.6 0 1.1.1 1.3.2.4.2.6.4.8.7.1 0 .2.2.2.4h-.9v.7h.3c.2 0 .2 0 .3.1.1 0 .1.1.2.2 0 0 0 .2.1.3 0 .2.1.5.1 1v4.8c0 .5 0 .8-.1 1 0 .2-.1.3-.1.4-.1.1-.1.2-.2.2h-.6v.7h3.2v-.7h-.5l-.2-.2c-.1-.1-.1-.3-.2-.4V9.4h.2l.1.1c.1.1.2.3.4.9.2.5.3 1 .5 1.5L71 13v.1c0 .1.1.2.1.3l.1.2H73v-.7h-.4s-.1 0-.1-.2c-.1-.1-.1-.3-.2-.5l-.1-.2c-.1-.2-.2-.5-.3-.9l-.3-.9c-.1-.4-.2-.6-.3-.7 0-.2-.1-.3-.2-.4 0-.1-.1-.1-.1-.1s.1 0 .1-.1c.2-.1.3-.2.4-.4.4-.4.6-1 .6-1.8 0-.5-.1-.9-.2-1.3-.2-.4-.4-.7-.8-.9-.3-.2-.6-.2-1.2-.3h-1.2l.2-2.2h-7.6l-.1 3.5h.6v-.2c.1-.6.2-1.1.3-1.4.2-.4.4-.6.6-.8.2-.1.6-.2 1.1-.3h.4m6.6 4c0 .5-.1 1-.4 1.4l-.3.3c-.1 0-.2.1-.6.1V4.9c.4 0 .5.1.6.1.1 0 .2.1.3.2.1.2.2.4.3.7.1.3.1.6.1.9zM55.8 13.5c.2.2.5.2.8.2.3 0 .6-.1.9-.3.3-.2.5-.4.6-.7 0-.1.1-.1.1-.2.1.2.3.4.4.6.2.2.3.3.5.4.2.1.4.2.6.2.4 0 1-.2 1.2-1.3v-.2l-.5-.3-.1.4c-.1.2-.1.3-.2.4-.1.1-.1.1-.3-.1l-.4-.4-.1-.1c-.1-.1-.2-.3-.3-.5-.1-.1-.1-.2-.2-.3 0-.1-.1-.2-.1-.3.1-.2.1-.3.1-.5 0-.1.1-.3.1-.4l.1-.4c.2-.5.4-1.1.5-1.2l.1-.1.1-.1s.1 0 .2-.1h.2v-.5H58v.6h.2c.3.1.4.2.4.5 0 .2 0 .4-.1.7 0 .2-.1.4-.2.7L57.4 8l.3-.3c.3-.3.5-.6.6-.8.1-.3.2-.6.2-1 0-.5-.1-.9-.4-1.2-.3-.4-.6-.6-1.1-.6-.3 0-.6.1-.8.3-.2.2-.4.5-.5.9-.1.3-.1.5-.1.8 0 .4.1.9.3 1.4.1.2.2.4.3.7l-.1.2-.4.4c-.2.2-.3.4-.4.6-.2.5-.4 1.1-.4 1.8s.1 1.2.4 1.7c.1.3.3.5.5.6m.8-8.6c.1-.1.1-.2.3-.2.2 0 .3.2.3.3.1.2.2.5.2.9 0 .3-.1.6-.2 1 0 .1-.1.3-.1.4-.1-.2-.2-.4-.3-.5-.1-.3-.2-.5-.2-.6v-.6c-.1-.3-.1-.6 0-.7zm-.4 4.6c.1-.2.1-.4.2-.5l1.4 2.9c-.1.2-.1.3-.2.4 0 .1-.1.2-.2.3-.2.2-.4.3-.5.3-.1 0-.2 0-.3-.1-.1-.1-.2-.2-.3-.4-.1-.2-.2-.4-.3-.7v-1c0-.5 0-.9.2-1.2zM15.9 17.9c.1 0 .2 0 .2.1s.1.1.1.2 0 .2-.1.3l-.3 1.1-.3-1.2v-.1c0-.1-.1-.2-.1-.2V18h.2v-.2h-1.3v.2c.1 0 .1 0 .2.1 0 .1.1.2.1.3v.1l-.4 1.2-.2-1.3c-.1-.2-.1-.3-.1-.4v-.1h.2v-.2h-1.3v.2c.1 0 .2.1.2.1 0 .1.1.3.2.7l.7 2.3h.1l.7-2.3.7 2.3h.2l.7-2.5c.1-.3.1-.4.2-.5.1-.1.1-.1.2-.1v-.2h-.8v.2z"/><path class="st0" d="M19.8 17.9c.1 0 .1 0 .2.1v.2c0 .1 0 .2-.1.3l-.3 1.1-.4-1.2V18h.2v-.2h-1.3v.2c.1 0 .1 0 .2.1 0 .1.1.2.1.3v.1l-.3 1.2-.4-1.2c-.1-.2-.1-.3-.1-.4 0 0 0-.1.1-.1h.2v-.2h-1.3v.2c.1 0 .2.1.2.1.1.1.2.3.3.7l.6 2.3h.3l.7-2.3.6 2.3h.2l.7-2.5c.1-.3.1-.4.2-.5 0-.1.1-.1.2-.1v-.2h-.7v.1zM24.5 17.9v-.2h-.8v.2c.1 0 .2 0 .2.1.1.1.1.1.1.2v.4l-.3 1.1-.4-1.2c-.1-.2-.1-.3-.1-.3v-.1h.2v-.2h-1.3v.2c.1 0 .1 0 .2.1 0 0 .1.1.1.2v.2l-.3 1.2-.4-1.2c-.1-.2-.1-.3-.1-.4 0 0 0-.1.1-.1h.2v-.2h-1.3v.2c.1 0 .2.1.2.1.1.1.1.3.2.5 0 .1 0 .1.1.2l.6 2.3h.2l.6-2.3.7 2.3h.2l.7-2.5c.1-.3.1-.4.2-.5 0-.2.1-.3.2-.3zM24.9 19.9c-.1 0-.2 0-.3.2-.1.1-.1.3-.1.4 0 .2 0 .3.1.4.1.1.2.2.3.2.1 0 .2-.1.3-.2.1-.1.1-.2.1-.4s0-.3-.1-.4c-.1-.1-.2-.2-.3-.2M27.2 20.3c-.1.2-.2.3-.3.3h-.1l-.1-.1v-2.4h.6v-.4h-.6v-1.2h-.1c-.1.2-.2.5-.4.7-.2.2-.3.4-.6.6v.1h.3V20.2c0 .2.1.3.2.4.1.1.2.2.4.2.3 0 .5-.2.7-.7v.2zM29.3 17.7c-.1 0-.2 0-.3.1-.1.1-.3.3-.4.6v-.7h-1v.2h.1l.1.1v2.2c0 .3 0 .4-.1.5-.1.1-.1.1-.2.1v.2h1.4v-.2c-.1 0-.2 0-.2-.1-.1 0-.1-.1-.1-.1v-1.2c0-.3 0-.5.1-.7 0-.1.1-.2.1-.3l.1-.1s0 .1.1.1c0 0 .1.1.2.1s.2-.1.2-.1c.1-.1.1-.2.1-.3 0-.1 0-.3-.1-.3.1-.1 0-.1-.1-.1M31.6 17.9c-.2-.1-.4-.2-.6-.2-.4 0-.7.2-.9.5-.2.4-.3.8-.3 1.2 0 .4.1.8.3 1.2.2.3.5.5.9.5s.7-.2.9-.6c.2-.3.3-.6.3-1.1 0-.3 0-.6-.1-.9-.2-.3-.4-.5-.5-.6m-1 1.1v-.4c0-.2.1-.4.1-.5.1-.1.1-.1.2-.1s.1 0 .2.1c.1 0 .1.1.1.2v2.2c0 .1-.1.2-.1.3-.1.1-.1.1-.2.1s-.2-.1-.2-.1c-.1-.1-.1-.2-.1-.4s-.1-.4-.1-.7c.1-.3.1-.5.1-.7zM34.1 17.9c.1 0 .2 0 .2.1v.2s0 .3-.1.7l-.2.9-.4-1.2c-.1-.2-.1-.4-.1-.5 0-.1 0-.1.1-.1 0 0 .1-.1.2-.1v-.2h-1.4v.2c.1 0 .2.1.2.2s.1.2.3.6l.8 2.4-.1.3c-.1.4-.2.6-.2.6l-.1.1v-.2c0-.1 0-.3-.1-.3-.1-.1-.1-.1-.2-.1s-.2.1-.2.1c-.1.1-.1.2-.1.3 0 .1.1.3.1.4.1.1.2.2.3.2.2 0 .3-.1.5-.3.1-.2.2-.6.4-1.1l.7-2.4c.1-.3.2-.6.3-.7.1-.1.1-.1.2-.1v-.2h-.8v.2zm-.5 0s-.1 0 0 0c-.1 0 0 0 0 0z"/><path class="st0" d="M37.3 17.9c-.1-.1-.3-.2-.5-.2s-.4.1-.7.4v-1.7h-1v.2h.2l.1.1v4.4h.1l.4-.3c.1.1.2.2.3.2.1.1.2.1.3.1.2 0 .4-.1.6-.2.2-.1.3-.4.4-.7.1-.3.2-.6.2-1 0-.3 0-.6-.1-.8 0-.2-.2-.4-.3-.5m-1.1.5c.1-.2.3-.3.4-.3.1 0 .2.1.2.2.1.2.1.6.1 1 0 .5 0 .9-.1 1.1 0 .2-.1.3-.2.4-.1.1-.1.1-.2.1s-.2 0-.2-.1c-.1-.1-.1-.2-.1-.3v-2.1zM40.5 20.4l-.1.1-.1-.1V19c0-.4 0-.6-.1-.7 0-.1-.1-.3-.3-.4-.1-.1-.3-.2-.6-.2-.1 0-.4 0-.5.1-.2.1-.3.2-.4.3-.1.1-.1.3-.2.5 0 .1 0 .2.1.3.1.1.2.1.3.1.1 0 .2 0 .3-.1.1-.1.1-.2.1-.3 0-.1-.1-.2-.1-.3-.1-.1-.1-.1-.1-.2s0-.1.1-.2c0 0 .2-.1.3-.1.1 0 .1 0 .2.1s.1.1.1.2v.9c-.6.3-.9.6-1.1.8-.2.2-.2.4-.2.7 0 .2 0 .4.1.5.1.1.2.2.3.2.2 0 .5-.1.8-.5 0 .2.1.3.1.4.3-.1.3-.1.5-.1.1 0 .2 0 .3-.1l.1-.1s0-.1.1-.1c0 0 .1-.1 0-.3zm-1.4-.7c.1-.2.3-.3.5-.5v1c-.1.1-.2.2-.3.2-.1 0-.1 0-.2-.1 0-.1-.1-.2-.1-.3 0-.1 0-.2.1-.3zM43.3 20.7v-1.6c0-.4 0-.7-.1-.8 0-.1-.1-.3-.2-.4-.1-.1-.3-.2-.4-.2-.2 0-.3 0-.4.1-.1.1-.2.2-.3.4v-.4h-1v.2c.1 0 .2.1.2.1s.1.1.1.4v1.8c0 .3 0 .4-.1.4-.1.1-.1.1-.2.1v.2h1.3v-.2c-.1 0-.1-.1-.2-.1v-2.1c.1-.3.2-.4.4-.4.1 0 .1 0 .1.1 0 0 .1.1.1.2v1.9c0 .2 0 .4-.1.4 0 .1-.1.1-.2.1v.1h1.3v-.2c-.2 0-.2 0-.3-.1M46.5 20.7c-.1-.1-.2-.3-.4-.8l-.6-1.1.3-.3c.2-.3.4-.5.4-.5.1-.1.2-.1.3-.1v-.2h-1.1v.2c.1 0 .2 0 .2.1l.1.1v.2c0 .1-.1.2-.2.3l-.5.7v-3h-1v.2c.1 0 .2.1.2.1v4c-.1.1-.1.1-.2.1v.3h1.3v-.2c-.1 0-.2-.1-.2-.1v-1l.1-.2.5.9c.1.1.1.2.1.3v.1h-.1v.2H47v-.2c-.4 0-.4 0-.5-.1M49.2 20.5c0 .1-.1.1-.1.1v-2.3c0-.1-.1-.3-.3-.4-.1-.1-.3-.2-.6-.2-.2 0-.4 0-.6.1-.2.1-.3.2-.4.3-.1.2-.1.3-.1.5 0 .1 0 .2.1.3.1.1.2.1.3.1.1 0 .2 0 .3-.1.1-.1.1-.2.1-.3 0-.1 0-.2-.1-.3-.1-.1-.1-.1-.1-.2s0-.1.1-.2.1-.1.2-.1.1 0 .2.1.1.1.1.2v.9c-.6.4-.9.6-1 .8-.2.2-.3.4-.3.7 0 .2.1.3.1.5.1.1.2.2.4.2s.5-.2.8-.5c0 .1.1.3.1.4.1.1.2.1.3.1.1 0 .2 0 .3-.1.1-.1.2-.2.3-.4l-.1-.2zm-1.4-.8c.1-.2.3-.3.4-.5v1c-.1.1-.2.2-.3.2-.1 0-.1 0-.2-.1 0-.1-.1-.2-.1-.3 0-.1.1-.2.2-.3zM52 20.7s-.1-.1-.1-.4v-2.1c0-.2-.1-.3-.2-.4-.1-.1-.2-.2-.4-.2-.1 0-.2 0-.4.1-.1.1-.2.2-.3.4v-.4h-1v.2c.1 0 .2 0 .2.1.1.1.1.2.1.4v2.2c-.1.1-.1.1-.2.1v.3H51v-.2c-.1 0-.2-.1-.2-.1 0-.1-.1-.2-.1-.4v-1.7c.1-.3.3-.4.4-.4h.1v2.4c-.1.1-.1.1-.2.1v.3h1.3v-.2c-.2 0-.3 0-.3-.1M55 20.6s0-.1-.1-.1V16.2h-1.1v.2c.1 0 .2 0 .2.1.1 0 .1.1.1.1V18l-.3-.3c-.1-.1-.2-.1-.3-.1-.2 0-.4.1-.5.2-.2.1-.3.3-.4.6-.1.2-.1.5-.1.9 0 .5.1.8.2 1.1.2.4.4.5.7.5.1 0 .2 0 .3-.1.1-.1.2-.2.3-.4v.5l1.1-.3v-.1c0 .2 0 .1-.1.1m-1.4-2.5h.1c.2 0 .3.2.4.5v1.7c-.1.3-.3.4-.4.4-.1 0-.1 0-.2-.1s-.1-.2-.2-.4c0-.2-.1-.4-.1-.9 0-.4 0-.6.1-.8.1-.2.2-.3.3-.4zM57 20.3c-.1.2-.2.3-.3.3h-.1l-.1-.1v-2.4h.6v-.4h-.6v-1.2h-.1c-.1.2-.2.5-.4.7-.2.2-.3.4-.6.6v.1h.3V20.2c0 .1.1.2.2.4.1.1.2.2.4.2.3 0 .5-.2.7-.7v.2zM59.1 17.7c-.1 0-.2 0-.3.1-.1.1-.3.3-.4.6v-.7h-1v.2h.1l.1.1v2.2c0 .3 0 .5-.1.5-.1.1-.1.1-.2.1v.2h1.4v-.2c-.1 0-.2 0-.2-.1-.1 0-.1-.1-.1-.1v-1.2c0-.3 0-.5.1-.7 0-.1.1-.2.1-.3l.1-.1s0 .1.1.1c0 0 .1.1.2.1s.2-.1.2-.1c.1-.1.1-.2.1-.3 0-.1 0-.3-.1-.3.1-.1 0-.1-.1-.1M62.1 20.7s-.1-.1-.1-.4v-2.5h-1v.2c.1 0 .2 0 .2.1.1.1.1.2.1.4v1.7c-.1.2-.2.3-.3.4 0 0-.1 0-.1.1h-.1s-.1 0-.1-.1l-.1-.1v-2.6h-1v.2c.1 0 .2.1.2.1s.1.1.1.4v1.3c0 .4 0 .7.1.8 0 .2.1.3.2.4.1.1.2.2.4.2.1 0 .2 0 .4-.1.1-.1.2-.2.3-.4v.2h1v-.2c-.1 0-.1 0-.2-.1M63.8 18.9c-.3-.2-.4-.4-.5-.5 0-.1-.1-.1-.1-.2s0-.2.1-.2c.1-.1.1-.1.2-.1s.2.1.3.2c.1.1.2.3.3.7h.1l-.1-1.1H64c0 .1-.1.1-.1.1H63.6c-.1-.1-.2-.1-.4-.1s-.4.1-.6.3c-.1.2-.2.5-.2.7 0 .2.1.4.2.6.1.1.2.3.5.6.2.2.3.3.3.4.1 0 .1.2.1.3 0 .1 0 .2-.1.2-.1.1-.1.1-.2.1s-.2-.1-.4-.2c-.1-.1-.2-.4-.3-.7h-.1v1.2h.1c0-.1.1-.2.1-.2h.1c.2.1.4.1.5.1.1 0 .3-.1.4-.1.1-.1.2-.2.3-.4.1-.2.1-.3.1-.5s0-.4-.1-.5c.3-.3.1-.5-.1-.7M66.2 20.3c-.1.2-.2.3-.3.3l-.1-.1-.1-.1V18h.6v-.4h-.6v-1.2h-.1c-.1.2-.2.5-.4.7l-.6.6v.1h.4v2.3c0 .2.1.3.2.4.1.1.3.2.4.2.3 0 .6-.2.7-.7l-.1.3zM67.1 19.9c-.1 0-.2.1-.3.2-.1.1-.1.2-.1.4 0 .1 0 .3.1.4.1.1.2.2.3.2.1 0 .2 0 .3-.2.1-.1.1-.3.1-.4 0-.2 0-.3-.1-.4-.1-.1-.2-.2-.3-.2M69.9 20.1c-.1.2-.2.2-.3.3-.1.1-.1.1-.2.1s-.2-.1-.3-.2c-.1-.1-.2-.3-.3-.6-.1-.3-.1-.5-.1-.9 0-.3 0-.6.1-.8.1-.1.1-.2.2-.2s.1 0 .1.1c.1.1.1.2.1.3 0 .2.1.4.1.5.1.1.2.1.3.1.1 0 .2-.1.3-.1.1-.1.1-.2.1-.3 0-.2-.1-.4-.2-.5-.1-.2-.3-.3-.6-.3-.4 0-.7.2-.9.6-.2.3-.3.7-.3 1.2s.1.8.3 1.2c.2.3.5.5.8.5.2 0 .4-.1.5-.2.2-.1.3-.3.5-.7l-.2-.1zM72.1 17.9c-.2-.1-.4-.2-.6-.2-.4 0-.7.2-.9.5-.2.4-.3.8-.3 1.2 0 .5.1.9.3 1.2.2.3.5.5.9.5s.7-.2.9-.6c.2-.3.3-.7.3-1.1 0-.3 0-.6-.1-.9-.2-.3-.4-.5-.5-.6m-1 2.1v-1.4c0-.2.1-.4.1-.5.1-.1.1-.1.2-.1s.1 0 .2.1.1.2.1.3c.1.1.1.4.1.8 0 .7 0 1.1-.1 1.3 0 .1 0 .2-.1.3-.1.1-.1.1-.2.1s-.2-.1-.2-.1c0-.1-.1-.2-.1-.4V20zm.1.6v-.1.1zM77 20.7s-.1-.1-.1-.4V19c0-.3 0-.6-.1-.7 0-.2-.1-.3-.2-.4-.1-.1-.2-.1-.4-.1s-.3 0-.4.1c-.1.1-.3.2-.4.4-.1-.2-.1-.3-.2-.4-.1-.1-.2-.1-.4-.1s-.3 0-.4.1c-.1.1-.2.2-.3.4v-.4h-1v.2c.1 0 .2.1.2.1s.1.1.1.4v1.8c0 .3 0 .4-.1.4 0 .1-.1.1-.2.1v.1h1.3v-.2c-.1 0-.2-.1-.2-.1 0-.1-.1-.2-.1-.4v-1.7c.1-.1.2-.3.2-.4.1-.1.1-.1.2-.1s.1 0 .1.1c0 0 .1.1.1.2v2.3s0 .1-.1.1l-.1.1v.1h1.3v-.2c-.1 0-.2 0-.2-.1-.1-.1-.1-.2-.1-.4v-1.8c.1-.1.1-.2.2-.2.1-.1.2-.1.2-.1.1 0 .1 0 .1.1 0 0 .1.1.1.2v1.9c0 .2 0 .4-.1.4 0 .1-.1.1-.2.1v.1h1.3v-.2s-.1 0-.1-.1m-2.8-2.4c-.1 0-.1.1 0 0-.1.1-.1 0 0 0z"/></svg>