<svg version="1.1" id="Layer_1" xmlns="http://www.w3.org/2000/svg" x="0" y="0" width="371" height="265" style="enable-background:new 0 0 371 265" xml:space="preserve"><style>.st0{fill:#ed1c2e}.st1{fill:#004785}</style><path class="st0" d="M100.4 22.1h35.1v9.5H125v40.1h-14V31.6h-10.5v-9.5zM165.2 22.1v9.6H152v10.1h12.2v9.5H152v10.9h13.2v9.6h-27.1V22.1h27.1zM182.5 22.1l3.2 13.3c.4 1.8.6 3.4.9 5.1.3-2.7.6-4.4 1.5-8.2l2.7-10.3h13.8l-8.2 23.7 8.2 25.9h-13.8L187.4 58c-.4-1.7-.6-3-.8-4.4-.4 2.2-.6 3.7-1.3 6.3l-3.1 11.8h-13.8l8.6-25.9-8.6-23.7h14.1zM233.5 22.1l11.3 49.6H231l-1.5-11.2H221l-1.7 11.2h-13.9l11.5-49.6h16.6zm-8.4 9.7-3 19.9h6l-3-19.9zM259.3 59.1c0 1 0 4 3.4 4 3.2 0 3.2-2.7 3.2-4.1 0-2.7-.6-3.2-5.6-6.6-12.2-8.6-13.8-9.8-13.8-17.2 0-3.9 0-14 16.5-14 4.1 0 8.1.6 11.5 2.8 4.9 3.4 4.9 7.7 4.8 13.7h-13v-3.3c0-.9 0-3.7-3.3-3.7-2.6 0-3.1 2-3.1 3.2 0 1.7 1.1 2.6 2.5 3.7 1.1.8 6.5 4.7 7.7 5.6 7.1 5.4 9.8 7.6 9.8 15.4 0 4.6-.4 13.8-17 13.8-.6 0-7.6 0-11.5-2-6-3.1-5.9-8.8-5.8-14.8h13.6v3.5zM137.3 93h-13.9v-4.6c0-1.9-.3-3.7-4.1-3.7-4.1 0-4.1 2-4.1 3.5v26.1c0 1.4 0 4.1 3.9 4.1 4.3 0 4.3-2.6 4.3-3.9v-5.8H119v-9h18.3v26.7h-13.9v-5.6c-2.2 4.1-4.7 6.4-10.4 6.4-12.4 0-12.4-9.7-12.4-14.7V90.4c0-6 0-16 18.2-16.1 17.3 0 18.4 8.7 18.4 14.5V93zM157.3 75.2c12.9 0 20 .9 20 12.8 0 2.9 0 9.1-6.7 11.2-.7.2-2 .5-2 .5s1.4.1 2.1.3c6.8 1.5 6.8 6.1 6.8 10v10.7c0 3 .4 3.9 1.8 5.6H165c-.9-1.7-1.7-3.3-1.7-7.5v-10.2c0-2.5-.5-3.6-3.3-3.6h-3.7v21.2h-14.6v-51h15.6zm-1.1 10.2v10.1h3.7c3.4 0 3.4-1.3 3.4-5.5 0-3.4-.3-4.6-3.3-4.6h-3.8zM209.6 75.3l11.6 51.1h-14.3l-1.6-11.5h-8.8l-1.7 11.5h-14.3l11.9-51.1h17.2zm-8.7 10.1-3.1 20.5h6.2l-3.1-20.5zM223.7 75.3h14.5v51.1h-14.5V75.3zM278.7 75.3v51.1h-13.5l-8-24.3c-1.3-4-1.4-4.3-2-6.9l.2 31.2h-12V75.3h13.3l7.4 22.1c1.6 4.9 1.7 5.4 2.9 9.7l-.1-31.8h11.8zM132.2 179.2c-3.3 0-4.4-.5-5.7-1.1-2 .8-4.1 1.8-9 1.8-3.1 0-17.1 0-17.1-12.9 0-7.9 6.4-12.1 11.4-15.2-1-1.9-1.1-1.9-2-3.7-1.5-2.5-2.5-4.4-2.5-7.3 0-3.6 2.3-10.8 13.1-10.8 8.7 0 14 4.5 14 10.9 0 6.5-5.5 10.5-8.8 12.9l3.5 6.1c.6-2.4.6-2.9.8-5.5h9.7c-.2 5.1-.8 10-4.5 16.2.8 1.1 1.4 1.6 3.3 1.6h3v7h-9.2zm-15.4-18.6c-1.3.8-4 2.4-4 5.2 0 2.3 2.1 5.4 5.1 5.4 1.5 0 2.9-.8 4.1-1.5l-5.2-9.1zm8.4-19.9c0-2-1.5-3.1-3.4-3.1-2.1 0-3.2 1.3-3.2 3.1 0 1.7 1.1 3.7 2.5 5.2 1.4-1.1 4.1-2.8 4.1-5.2zM178.6 129.8v9.5h-12.7v10h11.7v9.4h-11.7v20.4H152v-49.4h26.6zM208.8 129.8v9.6h-13.1v10h12.2v9.4h-12.2v10.8h13.1v9.5h-27v-49.4h27zM239.9 129.8v9.6h-13.1v10H239v9.4h-12.2v10.8h13.1v9.5h-27v-49.4h27zM243.9 129.8h16c3.6 0 10.6 0 14.9 3.4 3.8 3.1 4 7.5 4 12v17.1c0 6-.3 10.6-4.2 13.9-3.6 3-7.6 3-13.1 3h-17.6v-49.4zm21 13.9c0-1.3 0-2.4-.6-3.2-.8-1.2-1.5-1.2-6.4-1.2v30.6h3.1c3 0 3.9-.9 3.9-4.1v-22.1z"/><path class="st1" d="M20.1 22.1v157.1h74.1V22.1H20.1zM74.4 123l-17.2-12.5L39.9 123l6.6-20.2-17.2-12.6h21.3L57.1 70l6.6 20.2H85l-17.2 12.5 6.6 20.3zM216.8 195.2h11.5l-.9 3.9h-5.9l-1.2 5.1h5.6l-.9 3.8h-5.7l-1.3 5.8h6.5l-.9 4h-12.1l5.3-22.6zM230.6 195.2h5.2l-5.3 22.6h-5.2l5.3-22.6zM247.9 212.3c-.3 1.3-.7 2.8-1.7 3.9-1 1.2-2.7 2-5.8 2-.9 0-3.3-.1-4.8-1.3-.7-.6-1.4-1.5-1.4-3.3 0-2.3 1.6-8.6 2.2-9.9.6-1.4 1.9-3.6 6.7-3.6 2.1 0 6.1.4 6.1 4.2 0 .7-.1 1.4-.3 2.2-.3 1.2-.5 2.4-.8 3.8h-8.3c-.3 1-.6 2.4-.6 3.1 0 .2 0 .4.1.5.2.4.7.6 1.4.6 1.5 0 1.6-1 2-2.5h5.2zm-4.1-5c.1-.5.5-1.9.5-2.3 0-.3-.1-.6-.3-.9-.3-.4-.9-.4-1.2-.4-1.6 0-1.8 1.2-2.3 3.6h3.3zM256.3 200.7c-.2 2.3-.4 4.6-.5 6.8-.4 4.6-.4 5.2-.7 7.6.9-3 1.4-4.7 2.3-6.9.8-2.1 2.1-5.3 2.9-7.4h5.4L258 218h-6.9l.4-17.2h4.8zM275.8 215.9c0 .3-.1.5-.1.8 0 .8.2.9.5 1.2h-5.9l.5-1.8c-1.2 1-2.6 2.2-4.7 2.2-.4 0-3.4 0-3.4-3.1 0-1.1.7-4.1 1.7-5.3 1.1-1.2 2.6-1.7 8.7-3.4.2-.7.4-1.8.4-2 0-.9-.8-1-1.4-1-1.5 0-1.7.8-2.2 2.5H265c.7-3 1.1-4 2.7-4.8 1.2-.6 2.8-.9 4.7-.9 3 0 6 .7 6 3.7 0 .6-.1 1.3-.3 1.9l-2.3 10zm-3.5-6.1c-1.2.4-2.7.8-3.3 1.3-.8.7-1.1 2.5-1.1 2.8 0 .6.3 1.1 1.1 1.1.9 0 1.6-.5 2.1-1l1.2-4.2zM283.4 195.2h5.1l-1.3 5.5h2.3l-.7 3.1h-2.3l-2.1 8.9c-.1.3-.1.7-.1 1 0 .9.6.9 2.1.9l-.7 3.3c-4.5 0-6.9 0-6.9-2.6 0-.5.1-1 .3-1.7l2.4-9.9h-2.1l.7-3.1h2.1l1.2-5.4zM291.1 200.7h5.1l-4 17.2h-5.1l4-17.2zm6.4-5.5-.9 3.8h-5.1l.9-3.8h5.1zM308.2 217.8H303l2.8-12.1c.1-.4.1-.7.1-.8 0-1.2-1.1-1.2-1.2-1.2-1.5 0-1.8 1.5-1.9 2l-2.8 12h-5l4-17.2h5.1l-.4 1.7c1.9-2 4-2.1 4.6-2.1 1 0 3.2.3 3.2 3.1 0 .6-.1 1.2-.2 1.7l-3.1 12.9zM319.5 215.7c-.7.9-1.9 2.4-4.2 2.4-.8 0-1.7-.2-2.5-.8-.8-.7-1.1-1.7-1.1-2.9 0-2 1.2-6.7 1.8-8.7.9-3 2.1-5.3 5.3-5.3 2.5 0 3.6 1.8 3.6 2.5l.5-2.1h5.2l-4 17.3c-.6 2.7-1 4.4-2.3 5.7-1.4 1.4-3.6 1.9-5.6 1.9-1.3 0-6.3-.1-6.3-4.3 0-.6.1-1.2.3-1.7h5.1c-.3 1.3-.3 1.4-.3 1.6 0 1.2 1.1 1.2 1.5 1.2.5 0 1.4 0 1.9-2.1l1.1-4.7zm2.4-10.2c0-.2.1-.4.1-.5 0-1.1-.9-1.3-1.4-1.3-.7 0-1.6.3-2 2.1l-1.4 6c-.1.4-.2 1.1-.2 1.5 0 1.3.9 1.4 1.3 1.4 1.2 0 1.8-1.1 2-2.1l1.6-7.1zM225.5 228.2h6.2l-9.5 15.2-1.7 7.4H215l1.8-7.8-2.2-14.8h5.4l.8 9.2 4.7-9.2zM241.8 237.9c0 1.8-1.4 7.5-1.9 9-.6 1.8-1.6 4.3-6.8 4.3-3.9 0-6.4-1.3-6.4-4.6 0-1.9 1.5-7.5 1.7-8.4.5-1.8 1.6-4.9 6.6-4.9 2.7-.1 6.8.3 6.8 4.6zm-5.1.7c.1-.2.1-.4.1-.7 0-.8-.6-1.3-1.4-1.3-1.4 0-1.7 1.2-1.8 2l-1.6 6.8c-.1.3-.1.6-.1 1 0 .7.4 1.3 1.4 1.3 1.4 0 1.6-1.1 1.9-2.3l1.5-6.8zM250.6 233.7l-2.6 11.2c-.2.8-.3 1.2-.3 1.6 0 .9.6 1.2 1.2 1.2 1.4 0 1.8-1.6 2.1-2.8l2.6-11.3h5.2l-4 17.2h-5.2l.4-1.8c-.8.8-2.1 2.1-4.4 2.1-1.3 0-3.4-.4-3.4-3.1 0-.3 0-1 .3-1.9l2.9-12.4h5.2zM265.6 237.1c1.4-2.7 2.5-3.3 5.2-3.7l-1.3 4.8h-1.1c-2.8 0-3.4 1.2-4.1 4.4l-1.9 8.4h-5.1l4-17.2h5.1l-.8 3.3zM282.1 228.2l-.6 8.6c-.3 4.8-.5 6.4-1 9.5.9-2.9 1.6-4.7 1.7-5.1l4.8-13h5.9l-9.6 22.6h-7.7l1-22.6h5.5zM304.6 237.9c0 1.8-1.4 7.5-1.9 9-.6 1.8-1.6 4.3-6.8 4.3-3.9 0-6.4-1.3-6.4-4.6 0-1.9 1.5-7.5 1.7-8.4.5-1.8 1.6-4.9 6.6-4.9 2.7-.1 6.8.3 6.8 4.6zm-5.1.7c.1-.2.1-.4.1-.7 0-.8-.6-1.3-1.4-1.3-1.4 0-1.7 1.2-1.8 2l-1.6 6.8c-.1.3-.1.6-.1 1 0 .7.4 1.3 1.4 1.3 1.4 0 1.6-1.1 1.9-2.3l1.5-6.8zM308.2 233.7h5.1l-4 17.2h-5.1l4-17.2zm6.4-5.5-.9 3.8h-5.1l.9-3.8h5.1zM326.8 244.9c-.3 1.5-.7 3-1.6 4.2-1.3 1.7-3.6 2.2-5.7 2.2-1.5 0-6.3-.3-6.3-4.6 0-2.2 1.9-9 2-9.2 1.3-3.9 4.6-4.2 7-4.2 3.7 0 6 1.6 6 4.4 0 .8-.2 1.7-.4 2.4h-5c.2-.9.5-1.7.5-2.2 0-.7-.5-1.2-1.3-1.2-1.4 0-1.8 1-2.1 2.2l-1.6 6.8c0 .2-.1.4-.1.6 0 .5.1.7.2.8.2.4.7.6 1.2.6 1.5 0 1.7-1.2 2.1-2.9h5.1zM342.1 245.3c-.3 1.3-.7 2.8-1.7 3.9-1 1.2-2.7 2-5.8 2-.9 0-3.3-.1-4.8-1.3-.7-.6-1.4-1.5-1.4-3.3 0-2.3 1.6-8.6 2.2-9.9.6-1.4 1.9-3.6 6.7-3.6 2.1 0 6.1.4 6.1 4.2 0 .7-.1 1.4-.3 2.2-.3 1.2-.5 2.4-.8 3.8H334c-.3 1-.6 2.4-.6 3.1 0 .2 0 .4.1.5.2.4.7.6 1.4.6 1.5 0 1.6-1 2-2.5h5.2zm-4.2-5c.1-.5.5-1.9.5-2.3 0-.3-.1-.6-.3-.9-.3-.4-.9-.4-1.2-.4-1.6 0-1.8 1.2-2.3 3.6h3.3zM345.5 245.9h4.8l-1.1 4.9h-4.8l1.1-4.9zm8.9-17.7-1 4.1-3.5 11.2H347l1.6-10.9 1.1-4.4h4.7z"/></svg>