<svg version="1.1" id="Layer_1" xmlns="http://www.w3.org/2000/svg" xmlns:xlink="http://www.w3.org/1999/xlink" x="0" y="0" width="1224" height="792" style="enable-background:new 0 0 1224 792" xml:space="preserve"><style>.st0,.st3{fill-rule:evenodd;clip-rule:evenodd}.st3{fill:#fff}.st7{fill:#ed1c24}</style><path class="st0" d="M52.2 64.7h579.2v578.1H52.2z"/><path style="fill:none;stroke:#000;stroke-width:.5669;stroke-miterlimit:22.9256" d="M52.2 64.7h579.2v578.1H52.2z"/><path d="M258.2 561.3h27.9c2.8 0 4.6 1.7 4.6 4.6v19.3c0 3.4-1.8 4.6-4.6 4.6h-27.9v-28.5zm32.5-26.2c0 3.4-1.5 4.6-4.5 4.6h-28v-26.9h27.9c2.8 0 4.6 1.2 4.6 4.6v17.7zm-.8-45.5c17.2 0 27.9 7.9 27.9 27.7v12c0 12-2.6 18-13.2 21.1 10.8 3.8 13.2 10 13.2 21.6v13.1c0 19.9-10.7 27.7-27.9 27.7h-57.2c-1.1 0-1.5-.6-1.5-1.5V491.2c0-1.1.6-1.6 1.5-1.6h57.2z" style="fill-rule:evenodd;clip-rule:evenodd;fill:#f9c81d"/><path class="st3" d="M232.7 475.4h79.1c.9 0 1.5-.6 1.5-1.5v-11.2c0-3.6-3-6.6-6.6-6.6h-68.8c-3.7 0-6.6 3-6.6 6.6v11.2c-.1 1 .5 1.5 1.4 1.5"/><defs><path id="SVGID_1_" d="M258.2 561.3h27.9c2.8 0 4.6 1.7 4.6 4.6v19.3c0 3.4-1.8 4.6-4.6 4.6h-27.9v-28.5zm0-48.6h27.9c2.8 0 4.6 1.2 4.6 4.6V535c0 3.4-1.5 4.6-4.5 4.6h-28v-26.9zm-27 98.6V491.2c0-1.1.6-1.6 1.5-1.6h57.2c17.2 0 27.9 7.9 27.9 27.7v12c0 12-2.6 18-13.2 21.1 10.8 3.8 13.2 10 13.2 21.6v13.1c0 19.9-10.7 27.7-27.9 27.7h-57.2c-1.1.1-1.5-.5-1.5-1.5z"/></defs><clipPath id="SVGID_2_"><use xlink:href="#SVGID_1_" style="overflow:visible"/></clipPath><g style="clip-path:url(#SVGID_2_)"><defs><path id="SVGID_3_" d="M230.4 488.9h88.1v124.4h-88.1z"/></defs><clipPath id="SVGID_4_"><use xlink:href="#SVGID_3_" style="overflow:visible"/></clipPath><g style="clip-path:url(#SVGID_4_)"><image style="overflow:visible" width="42" height="60" xlink:href="70D6A262.jpg" transform="matrix(2.0972 0 0 2.0738 230.386 488.893)"/></g></g><defs><path id="SVGID_5_" d="M185.9 325.6h17c1.7 0 2.8 1.1 2.8 2.9v12.1c0 2.1-1.1 2.9-2.8 2.9h-17v-17.9zm0-30.4h17c1.7 0 2.8.8 2.8 2.9v11.1c0 2.1-.9 2.9-2.7 2.9h-17.1v-16.9zM169.3 357v-75.3c0-.7.4-1 .9-1h34.9c10.5 0 17 4.9 17 17.4v7.5c0 7.5-1.6 11.3-8 13.2 6.6 2.4 8 6.3 8 13.5v8.2c0 12.5-6.5 17.4-17 17.4h-34.9c-.6 0-.8-.3-.9-.9z"/></defs><clipPath id="SVGID_6_"><use xlink:href="#SVGID_5_" style="overflow:visible"/></clipPath><g style="clip-path:url(#SVGID_6_)"><defs><path id="SVGID_7_" d="M168.9 280.2h53.7v78h-53.7z"/></defs><clipPath id="SVGID_8_"><use xlink:href="#SVGID_7_" style="overflow:visible"/></clipPath><g style="clip-path:url(#SVGID_8_)"><image style="overflow:visible" width="102" height="144" xlink:href="70D6A266.jpg" transform="matrix(.5265 0 0 .5415 168.88 280.24)"/></g></g><path class="st3" d="M233 357.9h47.2c.7 0 1-.3 1-1v-13c0-.6-.2-1-1-1h-31.6V326h25c.7 0 .9-.3.9-1v-12.6c0-.6-.2-1-.9-1h-25V295h31.6c.7 0 1-.3 1-1v-12.5c0-.6-.2-1-1-1H233c-.6 0-.9.3-.9 1V357c-.1.5.2.9.9.9M291.9 357.9h47.2c.7 0 .9-.3.9-1v-13c0-.6-.2-1-.9-1h-31.6V326h25c.7 0 .9-.3.9-1v-12.6c0-.6-.2-1-.9-1h-25V295h31.6c.7 0 .9-.3.9-1v-12.5c0-.6-.2-1-.9-1h-47.2c-.6 0-.9.3-.9 1V357c-.1.5.2.9.9.9M385.9 313.5c0 2.1-1 2.9-2.8 2.9h-17v-21.2h17c1.8 0 2.8.8 2.8 2.9v15.4zm17.9 43-10.5-27.9c6.5-2.8 9.1-6.7 9.1-17v-14.5c-.4-11.8-6.7-16.4-17-16.4h-34.9c-.6 0-.9.3-.9 1V357c0 .6.3 1 .9 1h14.6c.6 0 .9-.3.9-1v-26.1h11.8l8.6 25.6c.5 1.5.9 1.5 2.4 1.5h14.1c.5 0 1-.2 1-.9 0-.1 0-.3-.1-.6zM255.8 369.1h-40c-.6 0-.9.4-.9 1v10.1c0 .6.4 1 .9 1h13.4v47.5c0 .6.3 1 .9 1h11.4c.6 0 .9-.4.9-1V381h13.4c.6 0 .9-.3.9-1v-10c0-.6-.4-.9-.9-.9M286.1 418.9h-6.2c-3 0-4.6-1.6-4.6-4.7v-30c0-3.1 1.5-4.7 4.6-4.7h6.2c2.1 0 4.6.8 4.6 4.7v30c-.1 3.1-1.6 4.7-4.6 4.7m12.8-46.9c-3.1-2.7-7.6-4-13.5-4h-4.8c-5.9 0-10.5 1.5-13.6 4.4-3.3 3-4.9 7.5-4.9 13.4v28.5c0 5.6 1.7 9.8 5.1 12.6 3.1 2.5 7.6 3.8 13.4 3.8h4.8c5.8 0 10.3-1.3 13.4-3.8 3.4-2.7 5.1-7 5.1-12.6v-28.8c0-6.1-1.7-10.6-5-13.5zM341.7 382.8v12c0 1.4-.6 2-2 2h-13v-16.1h13c1.4 0 2 .7 2 2.1m6.3 23.8c2.6-1.2 4.3-2.5 5.3-4.4 1.1-2 1.7-4.8 1.7-8.9V382c-.3-8.7-4.7-13-13.4-13h-27.2c-.6 0-.9.4-.9 1v58.5c0 .6.3 1 .9 1h11.4c.6 0 .9-.4.9-1v-20.1h8.8l6.6 19.8c.4 1.3.9 1.3 2 1.3H355c.6 0 1-.3 1-.9 0-.1 0-.3-.1-.5l-7.9-21.5zM401.5 369.1h-36.7c-.6 0-.9.4-.9.9v58.5c0 .6.3.9.9.9h36.7c.6 0 .9-.3.9-.9v-10.1c0-.6-.3-.9-.9-.9h-24.4v-12.8h19.3c.6 0 .9-.3.9-.9V394c0-.6-.3-.9-.9-.9h-19.3v-12.4h24.4c.6 0 .9-.3.9-.9V370c0-.6-.3-.9-.9-.9M170.3 271.8h48.3c.5 0 .9-.4.9-1v-7.1c0-2.3-1.8-4.2-4-4.2h-42c-2.2 0-4 1.9-4 4.1v7.1c-.1.8.3 1.1.8 1.1M196 394.2l-9.5-3.4c-3.3-1.1-4.6-2.9-4.6-6.2v-.4c0-3.1 1.5-4.7 4.6-4.7h6.6c3 0 4.6 1.6 4.6 4.7v2.3c0 .6.3.9.9.9h11c.6 0 .9-.4.9-.9v-1.2c0-11.5-6.2-17.4-18.5-17.4h-4.8c-5.9 0-10.5 1.5-13.6 4.4-3.3 3-4.9 7.5-4.9 13.4.2 10.3 4.5 13.6 14.8 17.5l9.5 3.4c3.3 1.2 4.6 2.9 4.6 6.2v1.5c0 3.1-1.5 4.7-4.6 4.7h-7.3c-3 0-4.6-1.6-4.6-4.7v-3.4c0-.6-.3-1-.9-1h-11c-.6 0-.9.4-.9 1v1.9c0 6.1 1.7 10.7 4.9 13.6 3.1 2.8 7.5 4.1 13.6 4.1h5.5c5.9 0 10.5-1.4 13.6-4.1 3.3-2.9 5-7.5 5-13.6-.1-11.1-4-14.5-14.9-18.6M218.6 123.9c.6 0 .7.3.7.7v9.4c0 .5-.2.7-.7.7h-24.4V147h19.3c.6 0 .7.3.7.7v9.4c0 .5-.2.7-.7.7h-19.3v12.7h24.4c.6 0 .7.3.7.7v9.8c0 .5-.2.7-.7.7h-36.4c-.5 0-.7-.3-.7-.7v-56.6c0-.5.3-.7.7-.7h36.4zM264.1 123.9c.6 0 .7.3.7.7v9.4c0 .5-.2.7-.7.7h-24.4V147H259c.6 0 .7.3.7.7v9.4c0 .5-.2.7-.7.7h-19.3v12.7h24.4c.6 0 .7.3.7.7v9.8c0 .5-.2.7-.7.7h-36.4c-.5 0-.7-.3-.7-.7v-56.6c0-.5.3-.7.7-.7h36.4zM284.8 150.7h13.1c1.4 0 2.2-.6 2.2-2.2v-11.6c0-1.6-.8-2.2-2.2-2.2h-13.1v16zm29.2 30.5c0 .5-.4.7-.8.7h-10.9c-1.1 0-1.5 0-1.8-1.1l-6.6-19.2h-9.1v19.6c0 .5-.3.7-.7.7h-11.3c-.5 0-.7-.3-.7-.7v-56.6c0-.5.3-.7.7-.7h27c7.9 0 12.8 3.5 13.1 12.3v10.9c0 7.8-2 10.7-7 12.8l8.1 21v.3zM377.4 166c0 12.2-6.9 17-18.2 17h-5.5c-11.4 0-18.2-4.8-18.2-17v-1.9c0-.4.2-.7.7-.7h10.9c.5 0 .7.3.7.7v3.3c0 3.3 1.8 4.7 4.7 4.7h7.3c2.8 0 4.7-1.4 4.7-4.7V166c0-3.3-1.5-5-4.7-6.2l-9.5-3.3c-10.3-3.8-14.4-7-14.6-16.8 0-11.5 6.8-17 18.2-17h4.7c11.1 0 18.2 4.7 18.2 16.6v1.2c0 .4-.2.7-.7.7h-10.9c-.5 0-.7-.3-.7-.7v-2.2c0-3.3-1.9-4.7-4.7-4.7h-6.6c-2.9 0-4.7 1.4-4.7 4.7v.4c0 3.4 1.5 5.1 4.7 6.2l9.5 3.3c11.1 4 14.7 7.2 14.7 17.8zM421.7 123.9c.5 0 .7.3.7.7v9.7c0 .5-.3.7-.7.7h-13.5v46.1c0 .5-.3.7-.7.7h-11.3c-.5 0-.7-.3-.7-.7V135H382c-.5 0-.7-.3-.7-.7v-9.7c0-.5.3-.7.7-.7h39.7zM455.7 138.4c0-3.3-1.9-4.7-4.7-4.7h-6.2c-2.9 0-4.7 1.4-4.7 4.7v28.9c0 3.3 1.8 4.7 4.7 4.7h6.2c2.8 0 4.7-1.4 4.7-4.7v-28.9zm12.7 28.9c0 11.2-7.3 15.6-18.2 15.6h-4.7c-10.9 0-18.2-4.4-18.2-15.6v-27.6c0-11.5 6.8-17 18.2-17h4.7c11.2 0 18.2 4.7 18.2 16.7v27.9zM489.7 150.7h13.1c1.4 0 2.2-.6 2.2-2.2V137c0-1.6-.8-2.2-2.2-2.2h-13.1v15.9zm29.3 30.6c0 .5-.4.7-.8.7h-10.9c-1.1 0-1.5 0-1.8-1.1l-6.6-19.2h-9.1v19.6c0 .5-.3.7-.7.7h-11.3c-.5 0-.7-.3-.7-.7v-56.6c0-.5.3-.7.7-.7h27c7.9 0 12.8 3.5 13.1 12.3v10.9c0 7.8-2 10.7-7 12.8l8.1 21v.3zM562.9 123.9c.6 0 .7.3.7.7v9.4c0 .5-.2.7-.7.7h-24.4V147h19.3c.6 0 .7.3.7.7v9.4c0 .5-.2.7-.7.7h-19.3v12.7h24.4c.6 0 .7.3.7.7v9.8c0 .5-.2.7-.7.7h-36.4c-.5 0-.7-.3-.7-.7v-56.6c0-.5.3-.7.7-.7h36.4zM133.7 117.1h37.6c.4 0 .7-.3.7-.7v-5.2c0-1.7-1.4-3.1-3.1-3.1h-32.7c-1.7 0-3.1 1.4-3.1 3.1v5.2c-.1.5.2.7.6.7z"/><defs><path id="SVGID_9_" d="M145.8 157.7h13.1c1.3 0 2.2.8 2.2 2.2v9.1c0 1.6-.9 2.2-2.2 2.2h-13.1v-13.5zm0-22.8h13.1c1.3 0 2.2.6 2.2 2.2v8.3c0 1.6-.7 2.2-2.1 2.2h-13.2v-12.7zm-12.7 46.4v-56.5c0-.5.3-.7.7-.7h26.9c8.1 0 13.1 3.7 13.1 13v5.7c0 5.6-1.2 8.5-6.2 9.9 5.1 1.8 6.2 4.7 6.2 10.2v6.2c0 9.3-5 13-13.1 13h-26.9c-.5-.1-.7-.4-.7-.8z"/></defs><clipPath id="SVGID_10_"><use xlink:href="#SVGID_9_" style="overflow:visible"/></clipPath><g style="clip-path:url(#SVGID_10_)"><defs><path id="SVGID_11_" d="M132.7 123.7h41.4v58.5h-41.4z"/></defs><clipPath id="SVGID_12_"><use xlink:href="#SVGID_11_" style="overflow:visible"/></clipPath><g style="clip-path:url(#SVGID_12_)"><image style="overflow:visible" width="42" height="60" xlink:href="70D6A261.jpg" transform="matrix(.9867 0 0 .9757 132.727 123.662)"/></g></g><path class="st0" d="M675.4 171c0-1.4-.9-2.3-2.3-2.3h-13.6v13.9h13.6c1.4 0 2.3-.6 2.3-2.3V171zm0-23.7c0-1.7-.9-2.3-2.3-2.3h-13.6v13.2h13.7c1.4 0 2.2-.6 2.2-2.3v-8.6zm-.4-13.6c8.4 0 13.6 3.8 13.6 13.6v5.9c0 5.9-1.3 8.8-6.4 10.3 5.3 1.9 6.4 4.9 6.4 10.5v6.4c0 9.7-5.2 13.6-13.6 13.6h-28c-.5 0-.8-.3-.8-.8v-58.7c0-.5.3-.8.8-.8h28zM735.1 133.7c.6 0 .8.3.8.8v9.8c0 .5-.2.8-.8.8h-25.3v12.8h20c.6 0 .8.3.8.8v9.8c0 .5-.2.8-.8.8h-20v13.2h25.3c.6 0 .8.3.8.8v10.2c0 .5-.2.8-.8.8h-37.8c-.5 0-.8-.3-.8-.8v-58.7c0-.5.3-.8.8-.8h37.8zM782.3 133.7c.6 0 .8.3.8.8v9.8c0 .5-.2.8-.8.8H757v12.8h20c.6 0 .8.3.8.8v9.8c0 .5-.2.8-.8.8h-20v13.2h25.3c.6 0 .8.3.8.8v10.2c0 .5-.2.8-.8.8h-37.8c-.5 0-.8-.3-.8-.8v-58.7c0-.5.3-.8.8-.8h37.8zM803.8 161.6h13.6c1.4 0 2.3-.6 2.3-2.3v-12c0-1.7-.8-2.3-2.3-2.3h-13.6v16.6zm30.3 31.7c0 .5-.5.7-.8.7H822c-1.1 0-1.5 0-1.9-1.1l-6.9-20h-9.5v20.3c0 .5-.3.8-.8.8h-11.7c-.5 0-.8-.3-.8-.8v-58.7c0-.5.3-.8.8-.8h28c8.2 0 13.3 3.6 13.6 12.8v11.3c0 8.1-2 11.1-7.3 13.3l8.4 21.8c.2.1.2.3.2.4zM900 177.5c0 12.6-7.2 17.6-18.9 17.6h-5.7c-11.8 0-18.9-5-18.9-17.6v-2c0-.4.2-.8.8-.8h11.3c.5 0 .8.3.8.8v3.4c0 3.5 1.9 4.9 4.9 4.9h7.6c2.9 0 4.9-1.4 4.9-4.9v-1.5c0-3.5-1.5-5.2-4.9-6.4l-9.8-3.4c-10.7-4-14.9-7.2-15.1-17.4 0-11.9 7-17.6 18.9-17.6h4.9c11.5 0 18.9 4.9 18.9 17.2v1.2c0 .5-.2.8-.8.8h-11.3c-.5 0-.8-.3-.8-.8v-2.3c0-3.5-2-4.9-4.9-4.9H875c-3 0-4.9 1.4-4.9 4.9v.4c0 3.5 1.5 5.3 4.9 6.4l9.8 3.4c11.4 4.2 15.2 7.6 15.2 18.6zM945.9 133.7c.5 0 .8.3.8.8v10.1c0 .5-.3.8-.8.8h-14v47.9c0 .5-.3.7-.8.7h-11.7c-.5 0-.8-.3-.8-.7v-47.9h-14c-.5 0-.8-.3-.8-.8v-10.1c0-.5.3-.8.8-.8h41.3zM981.2 148.8c0-3.4-2-4.9-4.9-4.9h-6.4c-3 0-4.9 1.5-4.9 4.9v30c0 3.5 1.9 4.9 4.9 4.9h6.4c3 0 4.9-1.4 4.9-4.9v-30zm13.2 30c0 11.6-7.6 16.2-18.9 16.2h-4.9c-11.3 0-18.9-4.6-18.9-16.2v-28.6c0-12 7.1-17.6 18.9-17.6h4.9c11.6 0 18.9 4.9 18.9 17.3v28.9zM1016.6 161.6h13.6c1.4 0 2.3-.6 2.3-2.3v-12c0-1.7-.8-2.3-2.3-2.3h-13.6v16.6zm30.3 31.7c0 .5-.5.7-.8.7h-11.3c-1.1 0-1.5 0-1.9-1.1L1026 173h-9.5v20.3c0 .5-.3.7-.8.7H1004c-.5 0-.8-.3-.8-.7v-58.7c0-.5.3-.8.8-.8h28c8.2 0 13.3 3.6 13.6 12.8v11.3c0 8.1-2 11.1-7.3 13.3l8.4 21.8c.2 0 .2.2.2.3zM1092.5 133.7c.6 0 .8.3.8.8v9.8c0 .5-.2.8-.8.8h-25.3v12.8h20c.6 0 .8.3.8.8v9.8c0 .5-.2.8-.8.8h-20v13.2h25.3c.6 0 .8.3.8.8v10.2c0 .5-.2.7-.8.7h-37.8c-.5 0-.8-.3-.8-.7v-58.7c0-.5.3-.8.8-.8h37.8zM647 126.7h39c.4 0 .7-.3.7-.7v-5.4c0-1.8-1.5-3.2-3.2-3.2h-34c-1.8 0-3.2 1.5-3.2 3.2v5.4c-.1.4.3.7.7.7z"/><path class="st7" d="M1121.1 175.8v-17h3.5v14.1h8.6v2.9h-12.1zM1136.4 175.8v-17.2h3.5v17.2h-3.5zM1144.1 175.8v-17.2h3.4l7 11.5v-11.5h3.2v17.2h-3.5l-6.9-11.2v11.2h-3.2zM1162.2 175.8v-17.2h12.7v2.9h-9.3v3.8h8.6v2.9h-8.6v4.7h9.6v2.9h-13zM1194.5 175.8h-3.8l-1.5-3.9h-6.9l-1.4 3.9h-3.7l6.7-17.2h3.7l6.9 17.2zm-6.3-6.8-2.4-6.4-2.3 6.4h4.7zM1197.2 175.8v-17.2h7.3c1.8 0 3.2.2 4 .5s1.5.9 2 1.6.8 1.7.8 2.7c0 1.3-.4 2.4-1.1 3.2s-1.9 1.4-3.4 1.6c.8.4 1.4.9 1.9 1.4s1.1 1.5 2 2.8l2.1 3.4h-4.1l-2.5-3.7c-.9-1.3-1.5-2.2-1.8-2.5s-.7-.6-1-.7-.9-.2-1.7-.2h-.7v7.2h-3.8zm3.5-9.9h2.6c1.7 0 2.7-.1 3.1-.2s.7-.4 1-.7.4-.8.4-1.3c0-.6-.2-1-.5-1.4s-.7-.6-1.3-.7c-.3 0-1.1-.1-2.5-.1h-2.7v4.4zM933.4 356.7l3.4-.3c.2 1.1.6 2 1.2 2.5s1.5.8 2.5.8c1.1 0 2-.2 2.5-.7s.8-1 .8-1.7c0-.4-.1-.8-.4-1s-.7-.5-1.2-.7c-.4-.1-1.3-.4-2.8-.8-1.9-.5-3.2-1-3.9-1.7-1.1-.9-1.6-2.1-1.6-3.5 0-.9.2-1.7.7-2.5s1.2-1.3 2.1-1.7 2.1-.6 3.4-.6c2.2 0 3.8.5 4.9 1.4s1.7 2.2 1.7 3.8l-3.5.2c-.1-.9-.5-1.5-1-1.9s-1.2-.6-2.2-.6c-1 0-1.8.2-2.4.6-.4.3-.6.6-.6 1.1 0 .4.2.8.5 1 .4.4 1.5.8 3.2 1.1s2.9.8 3.7 1.2 1.4 1 1.9 1.7.7 1.7.7 2.7c0 1-.3 1.9-.8 2.8s-1.3 1.5-2.3 1.9-2.2.6-3.7.6c-2.2 0-3.8-.5-5-1.5s-1.6-2.2-1.8-4.2zM955 362.3V348h-5.1v-2.9h13.7v2.9h-5.1v14.3H955zM980.3 362.3h-3.8l-1.5-3.9h-6.9l-1.4 3.9H963l6.7-17.2h3.7l6.9 17.2zm-6.4-6.8-2.4-6.4-2.3 6.4h4.7zM994 356l3.4 1.1c-.5 1.9-1.4 3.3-2.6 4.2s-2.7 1.4-4.6 1.4c-2.3 0-4.2-.8-5.6-2.3s-2.2-3.7-2.2-6.4c0-2.9.7-5.1 2.2-6.7s3.4-2.4 5.8-2.4c2.1 0 3.8.6 5.1 1.9.8.7 1.4 1.8 1.8 3.2l-3.4.8c-.2-.9-.6-1.6-1.3-2.1s-1.4-.8-2.3-.8c-1.3 0-2.3.5-3.1 1.4s-1.2 2.4-1.2 4.4c0 2.2.4 3.7 1.2 4.6s1.8 1.4 3 1.4c.9 0 1.7-.3 2.4-.9s1.1-1.5 1.4-2.8zM1001.2 362.3v-17.2h3.5v7.6l7-7.6h4.7l-6.5 6.7 6.8 10.5h-4.5l-4.7-8.1-2.8 2.9v5.2h-3.5zM1019.4 362.3v-17.2h12.7v2.9h-9.3v3.8h8.6v2.9h-8.6v4.7h9.6v2.9h-13zM1036.2 345.1h6.3c1.4 0 2.5.1 3.3.3 1 .3 1.9.8 2.6 1.6s1.3 1.7 1.6 2.8.6 2.5.6 4.1c0 1.4-.2 2.6-.5 3.7-.4 1.3-1 2.3-1.8 3-.6.6-1.4 1-2.4 1.4-.8.2-1.8.4-3.1.4h-6.5v-17.3zm3.5 3v11.4h2.6c1 0 1.7-.1 2.1-.2.6-.1 1-.4 1.4-.7s.7-.9.9-1.7.4-1.8.4-3.1-.1-2.3-.4-3.1-.6-1.3-1-1.7-1-.7-1.6-.8c-.5-.1-1.4-.2-2.8-.2h-1.6zM788.9 574.2h-3.3v-2.4c0-1 .1-1.7.3-2.3s.5-1 .9-1.5 1-.8 1.7-1l.6 1.4c-.7.2-1.1.5-1.4.9s-.4.9-.5 1.6h1.6v3.3zm5.5 0h-3.3v-2.4c0-1 .1-1.7.3-2.3s.5-1 .9-1.5 1-.8 1.7-1l.6 1.4c-.7.2-1.1.5-1.4.9s-.4.9-.5 1.6h1.6v3.3zM797.8 567.2h6.9c1.4 0 2.4.1 3 .2s1.3.3 1.8.7 1 .8 1.3 1.4.5 1.3.5 2c0 .8-.2 1.5-.7 2.2s-1 1.2-1.8 1.5c1 .3 1.9.8 2.4 1.6s.8 1.6.8 2.6c0 .8-.2 1.5-.5 2.3s-.9 1.3-1.5 1.8-1.4.7-2.3.8c-.6.1-2 .1-4.2.1h-5.8v-17.2zm3.5 2.9v4h2.3c1.4 0 2.2 0 2.5-.1.6-.1 1.1-.3 1.4-.6s.5-.8.5-1.3-.1-1-.4-1.3-.7-.5-1.3-.6c-.3 0-1.3-.1-3-.1h-2zm0 6.8v4.6h3.2c1.3 0 2 0 2.4-.1.5-.1.9-.3 1.3-.7s.5-.8.5-1.5c0-.5-.1-1-.4-1.3s-.6-.6-1.1-.8-1.5-.2-3.1-.2h-2.8zM814.9 567.2h3.3v2.4c0 1-.1 1.7-.2 2.3s-.5 1-.9 1.5-1 .8-1.7 1l-.6-1.4c.7-.2 1.1-.5 1.4-.9s.4-.9.4-1.6H815v-3.3zm5.5 0h3.3v2.4c0 1-.1 1.7-.3 2.3s-.5 1-.9 1.5-1 .8-1.7 1l-.6-1.4c.7-.2 1.1-.5 1.4-.9s.4-.9.4-1.6h-1.6v-3.3zM833.5 575.9c0-1.8.3-3.2.8-4.4.4-.9.9-1.7 1.6-2.4s1.4-1.2 2.2-1.5c1.1-.5 2.3-.7 3.7-.7 2.5 0 4.6.8 6.1 2.4s2.3 3.8 2.3 6.6-.8 4.9-2.3 6.5-3.5 2.3-6 2.3c-2.6 0-4.6-.8-6.1-2.3s-2.3-3.7-2.3-6.5zm3.6-.1c0 1.9.4 3.4 1.3 4.4s2 1.5 3.4 1.5 2.5-.5 3.4-1.5 1.3-2.5 1.3-4.5-.4-3.4-1.3-4.4-2-1.5-3.4-1.5-2.6.5-3.5 1.5-1.2 2.5-1.2 4.5zM853.7 584.4v-17.2h3.4l7 11.5v-11.5h3.2v17.2h-3.5l-6.9-11.2v11.2h-3.2zM872 584.4v-17h3.5v14.1h8.6v2.9H872zM889.7 584.4v-7.2l-6.3-9.9h4.1l4 6.8 4-6.8h4l-6.3 10v7.2h-3.5z"/><path class="st0" d="M664.7 314.4h20.2c2 0 3.4 1.2 3.4 3.4v13.9c0 2.5-1.3 3.3-3.4 3.3h-20.2v-20.6zm0-35.1h20.2c2 0 3.4.9 3.4 3.3v12.8c0 2.5-1.1 3.3-3.2 3.3h-20.3v-19.4zm-18.5 72.5h41.5c12.4 0 20.2-5.7 20.2-20.1v-9.5c0-8.4-1.7-12.8-9.5-15.6 7.6-2.2 9.5-6.6 9.5-15.3v-8.7c0-14.4-7.7-20.1-20.2-20.1h-41.5c-.7 0-1.1.3-1.1 1.1v87c-.1.8.3 1.2 1.1 1.2zM676.9 575.6h20.2c2 0 3.4 1.2 3.4 3.4v13.9c0 2.5-1.3 3.3-3.4 3.3h-20.2v-20.6zm0-35.2h20.2c2 0 3.4.9 3.4 3.3v12.8c0 2.5-1.1 3.3-3.2 3.3H677v-19.4zM658.4 613h41.5c12.4 0 20.2-5.7 20.2-20.1v-9.5c0-8.4-1.7-12.8-9.5-15.6 7.6-2.2 9.5-6.6 9.5-15.3v-8.7c0-14.4-7.7-20.1-20.2-20.1h-41.5c-.7 0-1.1.3-1.1 1.1v87c0 .7.3 1.2 1.1 1.2zM720.6 351.8h56c.8 0 1.1-.3 1.1-1.1v-15.1c0-.7-.2-1.1-1.1-1.1H739V315h29.7c.8 0 1.1-.3 1.1-1.1v-14.5c0-.7-.2-1.1-1.1-1.1H739v-19h37.6c.8 0 1.1-.3 1.1-1.1v-14.5c0-.7-.2-1.1-1.1-1.1h-56c-.7 0-1.1.3-1.1 1.1v87c0 .7.3 1.1 1.1 1.1M790.5 351.8h56c.8 0 1.1-.3 1.1-1.1v-15.1c0-.7-.2-1.1-1.1-1.1H809V315h29.7c.8 0 1.1-.3 1.1-1.1v-14.5c0-.7-.2-1.1-1.1-1.1H809v-19h37.6c.8 0 1.1-.3 1.1-1.1v-14.5c0-.7-.2-1.1-1.1-1.1h-56c-.7 0-1.1.3-1.1 1.1v87c-.1.7.3 1.1 1 1.1M902.1 300.5c0 2.5-1.2 3.3-3.4 3.3h-20.2v-24.5h20.2c2.1 0 3.4.9 3.4 3.3v17.9zm21.3 49.6L911 317.9c7.7-3.2 10.8-7.7 10.8-19.6v-16.7c-.5-13.6-8-19-20.2-19h-41.5c-.7 0-1.1.3-1.1 1.1v87c0 .7.3 1.1 1.1 1.1h17.4c.7 0 1.1-.3 1.1-1.1v-30.1h14l10.2 29.6c.6 1.7 1.1 1.7 2.8 1.7h16.7c.6 0 1.2-.2 1.2-1 0-.2 0-.4-.1-.8zM747.6 364.7h-47.5c-.7 0-1.1.4-1.1 1.1v11.6c0 .7.4 1.1 1.1 1.1H716v54.9c0 .7.4 1.1 1.1 1.1h13.5c.7 0 1.1-.4 1.1-1.1v-54.9h15.9c.7 0 1.1-.4 1.1-1.1v-11.6c0-.7-.4-1.1-1.1-1.1M783.6 422.3h-7.4c-3.6 0-5.4-1.8-5.4-5.4v-34.6c0-3.6 1.8-5.4 5.4-5.4h7.4c2.5 0 5.4.9 5.4 5.4v34.6c.1 3.6-1.8 5.4-5.4 5.4m15.2-54.2c-3.6-3.1-9.1-4.7-16.1-4.7H777c-7 0-12.4 1.7-16.1 5-3.9 3.5-5.9 8.7-5.9 15.5v33c0 6.5 2 11.4 6.1 14.5 3.7 2.9 9.1 4.4 15.9 4.4h5.7c6.9 0 12.3-1.5 15.9-4.4 4-3.2 6.1-8.1 6.1-14.5v-33.3c.1-7-1.9-12.2-5.9-15.5zM849.7 380.5v13.9c0 1.7-.7 2.4-2.4 2.4h-15.5v-18.6h15.5c1.7 0 2.4.7 2.4 2.3m7.5 27.6c3.1-1.3 5.1-2.9 6.3-5.1 1.4-2.4 2-5.5 2-10.3v-13c-.3-10.1-5.5-15-15.9-15h-32.3c-.7 0-1.1.4-1.1 1.1v67.7c0 .7.4 1.1 1.1 1.1h13.5c.7 0 1.1-.4 1.1-1.1v-23.2h10.5l7.9 22.8c.5 1.5 1.1 1.5 2.4 1.5h13c.7 0 1.2-.4 1.2-1 0-.1 0-.3-.1-.6l-9.6-24.9zM920.6 364.7H877c-.7 0-1.1.4-1.1 1.1v67.7c0 .7.4 1.1 1.1 1.1h43.6c.7 0 1.1-.4 1.1-1.1v-11.7c0-.7-.4-1.1-1.1-1.1h-29V406h22.9c.7 0 1.1-.4 1.1-1.1v-11.3c0-.7-.4-1.1-1.1-1.1h-22.9v-14.3h29c.7 0 1.1-.4 1.1-1.1v-11.3c0-.7-.3-1.1-1.1-1.1M646.1 252.3h57.3c.6 0 1.1-.4 1.1-1.1V243c0-2.6-2.2-4.8-4.8-4.8h-49.8c-2.7 0-4.8 2.2-4.8 4.8v8.1c0 .8.4 1.2 1 1.2M658.4 513.4h57.3c.6 0 1.1-.4 1.1-1.1v-8.1c0-2.6-2.2-4.8-4.8-4.8h-49.8c-2.7 0-4.8 2.2-4.8 4.8v8.1c-.1.7.4 1.1 1 1.1M676.7 393.7l-11.3-3.9c-4-1.3-5.5-3.3-5.5-7.1v-.4c0-3.6 1.8-5.4 5.4-5.4h7.8c3.6 0 5.4 1.8 5.4 5.4v2.6c0 .7.4 1.1 1.1 1.1h13.1c.7 0 1.1-.4 1.1-1.1v-1.4c0-13.3-7.4-20.1-22-20.1h-5.7c-7 0-12.4 1.7-16.2 5.1-3.9 3.5-5.8 8.7-5.8 15.4.3 11.9 5.4 15.7 17.6 20.2L673 408c4 1.4 5.5 3.4 5.5 7.1v1.7c0 3.6-1.8 5.4-5.4 5.4h-8.7c-3.6 0-5.4-1.8-5.4-5.4V413c0-.7-.4-1.1-1.1-1.1h-13.1c-.7 0-1.1.4-1.1 1.1v2.3c0 7.1 2 12.4 5.9 15.8 3.7 3.2 8.9 4.7 16.1 4.7h6.5c7.1 0 12.5-1.6 16.1-4.7 3.9-3.4 5.9-8.7 5.9-15.8 0-12.9-4.6-16.8-17.5-21.6"/></svg>