<svg xmlns="http://www.w3.org/2000/svg" width="612" height="792" style="enable-background:new 0 0 612 792" xml:space="preserve"><path d="M499.6 202.4c-51.7-51.7-120.5-80.2-193.6-80.2s-141.9 28.5-193.6 80.2S32.2 322.9 32.2 396s28.5 141.9 80.2 193.6 120.5 80.2 193.6 80.2 141.9-28.5 193.6-80.2c51.7-51.7 80.2-120.5 80.2-193.6s-28.5-141.9-80.2-193.6zM306 666.8C156.7 666.8 35.2 545.3 35.2 396S156.7 125.2 306 125.2 576.8 246.7 576.8 396 455.3 666.8 306 666.8z"/><path d="M486.3 502.9c1.8 4.2 3 8.8 3.6 13.2 3.8-1.9 7.9-3.3 11.7-4.3-1.6-4-2.6-8.3-3.2-12.3-3.5 1.5-7.7 2.7-12.1 3.4zM403.5 587.5c.9-.8 1.5-1.7 1.7-2.7.2-.9.1-1.8-.3-2.7-.4-.9-1.1-1.6-1.9-2-.8-.4-1.8-.5-2.9-.3-1.1.2-2.9.9-5.4 2.1l-4.3 2.1 4 8.4 4.3-2.1c2.3-1 3.9-1.9 4.8-2.8zM410.4 593.7c-.9-.4-2-.6-3.2-.4-1.3.2-3 .8-5.2 1.8l-5.1 2.4 3.6 7.5c.5 1 .9 1.6 1 1.8.2.2.4.3.7.3.3 0 .9-.2 1.8-.7l2.9-1.4c1.7-.8 3-1.6 3.9-2.4 1-.8 1.6-1.8 2-3s.3-2.4-.3-3.6c-.6-1.1-1.2-1.9-2.1-2.3zM195.5 218c2.8.9 5.6.5 8.4-1.1 2.8-1.6 4.6-3.8 5.2-6.7.7-3.4 0-6.9-2.1-10.7-1.5-2.6-3.2-4.6-5.1-5.9-1.9-1.3-3.8-2-5.8-2-2-.1-3.8.4-5.5 1.4-2.9 1.6-4.6 3.9-5.2 6.7-.8 3.6-.1 7.3 2.1 11 2.1 3.8 4.7 6.2 8 7.3zM381.6 185.7c1.3 0 2.4-.3 3.2-.8.8-.5 1.4-1.3 1.8-2.3.3-1 .3-1.9 0-2.7-.3-.9-1-1.6-1.9-2.3-.9-.7-2.6-1.4-4.9-2.2l-6.8-2.3-3.1 9.4 6.1 2c2.4.8 4.2 1.2 5.6 1.2z"/><path d="M306 134.9C161.8 134.9 44.9 251.8 44.9 396S161.8 657.1 306 657.1 567.1 540.2 567.1 396 450.2 134.9 306 134.9zm218.9 177.3-.7-2.2 5.1-1.5 5 16.9-17.8 18.6 13.1-3.8c1.1-.3 1.8-.6 2-.8.4-.3.6-.7.6-1.1.1-.4 0-1.1-.3-2l-.6-2 5.1-1.5 5 17.2-5.1 1.5-.6-1.9c-.3-1-.6-1.6-.9-2-.3-.4-.7-.6-1-.6-.4-.1-1.1.1-2.2.4l-28.3 8.3-2.5-8.6 22.4-23.4-18.9 5.5c-1.1.3-1.8.6-2 .8-.3.2-.4.6-.5 1-.1.4 0 1.1.3 2.1l.6 2-5.1 1.5-5-17.3 5.1-1.5.5 1.8c.3 1 .6 1.6.8 2 .3.3.6.5 1 .7.4.1 1 .1 1.7-.2l21-6.1c.8-.2 1.4-.5 1.7-.8.3-.3.5-.7.6-1 .3-.6.2-1.2-.1-2zm-22-35.6c1-.6 1.7-1.1 1.9-1.4.2-.3.3-.7.3-1.2 0-.3-.3-1-.9-2l-1-1.7 4.6-2.6 10.6 18.4-4.6 2.6-1-1.7c-.6-1-1-1.6-1.3-1.8-.3-.2-.7-.3-1.1-.3s-1.1.3-2 .8l-18.3 10.5c-1 .6-1.6 1-1.8 1.3-.2.3-.3.6-.2 1 0 .5.3 1.1.7 1.9l1.2 2-4.6 2.6-10.6-18.4 4.6-2.6.9 1.5c.6 1.1 1.1 1.7 1.4 2s.7.4 1.1.4c.4 0 1-.3 1.9-.8l18.2-10.5zm-22.1 146c-.1-.1-.2-.4 0-.9s.1-.2.7-1c0 0 .1.6 0 1-.1.3.1.2-.4 1s-.2 0-.3-.1zm.4-10.7c-.3-.6-.2-.6-.3-1.6s0-1.3 0-2.6c0 0 .4.9.6 1.7.3.8-.1.5.5 2 .5 1.5 0 1.2-.2 1.2s-.3-.2-.6-.7zm.8 6.9c.1-.3 0-.3 0-1.1s.1-.3.2-1.1v1.1s.3.6 0 1.9-.3-.5-.2-.8zm-3.3-18.6c0 .2-.1.4-.3.6-.2.3-.4.5-.6.8-.3-.3-.4-.6-.4-1s.1-.7.2-1.1h.1c.2 0 .4.1.6.2.2.1.4.2.4.5zm-35.4-160.4c.4-.1 1-.6 1.8-1.4l15-14.4c.8-.8 1.3-1.4 1.4-1.8s.1-.7-.1-1.2c-.2-.4-.7-1.1-1.6-2l-1-1.1 3.8-3.7 15.8 16.4c3.6 3.7 5.9 7.2 7 10.4 1.1 3.2 1.2 6.4.5 9.7-.8 3.3-2.6 6.3-5.4 9-2 1.9-4.1 3.3-6.3 4.1-2.2.8-4.6 1.2-7.1 1.1-2.5-.1-4.8-.6-6.9-1.5-1.6-.7-3.5-1.9-5.8-3.7s-4.1-3.3-5.3-4.6l-13.9-14.5 3.8-3.7 1 1.1c.9.9 1.5 1.5 1.9 1.6.5.3.9.4 1.4.2zM407 216.1l1.5.9c1 .7 1.8 1 2.2 1.1.4.1.8 0 1.1-.2.3-.2.8-.7 1.3-1.6l11.3-17.9c.6-1 1-1.7 1-2.1 0-.4 0-.8-.3-1.2-.2-.3-.7-.7-1.7-1.3l-1.6-1 2.8-4.5 17.9 11.3-2.8 4.5-1.6-1c-.9-.6-1.6-.9-2-1-.4 0-.8 0-1.1.3-.3.2-.8.8-1.4 1.7l-11.3 17.8c-.6 1-.9 1.6-1 2s0 .7.3 1c.3.4.7.9 1.5 1.3l1.9 1.2-2.8 4.5-17.9-11.3 2.7-4.5zm-57.7-22.8 1.8.6c1 .3 1.7.5 2.2.4s.9-.2 1.2-.5c.2-.2.4-.8.8-1.9l6.7-20.4c.3-.8.4-1.4.3-1.8 0-.4-.2-.7-.5-.9-.4-.3-.9-.6-1.5-.8l-.8-.3-1.5-.5 1.7-5.2 25.5 8.4c1.6.5 3.4 1.3 5.2 2.2 1.9.9 3.4 2.1 4.7 3.5 1.3 1.4 2.1 2.9 2.5 4.6.4 1.6.4 3.3-.2 5-.9 2.8-2.8 4.6-5.6 5.6s-5.8 1.2-9 .7l5.6 11.5.2.5c.4.8.7 1.4 1.1 1.8s.7.8 1.2 1.1c.4.3 1 .5 1.8.8l1.8.6-1.7 5-13.2-4.4-8.1-20-3.4-1.1-2.4 7.2c-.4 1.2-.6 2.1-.5 2.5 0 .4.2.7.5 1 .3.3 1 .6 2 .9l1.9.6-1.7 5-20.2-6.7 1.6-5zm-97.6-30 17.2 19L266 169c-.2-1.1-.5-1.8-.7-2.1-.3-.4-.6-.6-1-.7-.4-.1-1.1 0-2.1.2l-2.1.4-1.1-5.2 17.5-3.8 1.1 5.2-1.9.4c-1 .2-1.6.5-2 .7-.4.3-.6.6-.7 1-.1.4 0 1.1.2 2.2l6.3 28.8-8.7 1.9-21.7-24 4.2 19.2c.2 1.1.5 1.8.7 2.1.2.3.5.5 1 .5.4.1 1.1 0 2.1-.2l2-.4 1.1 5.2-17.6 3.8-1.1-5.2 1.8-.4c1-.2 1.7-.4 2-.7.3-.2.6-.6.7-1 .1-.4.1-1 0-1.8l-4.6-21.4c-.2-.8-.4-1.4-.7-1.7-.3-.3-.6-.6-1-.7-.4-.1-1-.1-1.8.1l-2.3.5-1.1-5.2 17.2-3.4zm-76.2 37.8c1.9-5.4 5.9-9.8 12-13.3 6-3.4 11.8-4.6 17.3-3.5 5.5 1.1 9.7 4.1 12.6 9.1 1.9 3.4 2.8 6.8 2.6 10.4s-1.4 6.9-3.6 10.1c-2.2 3.1-5.4 5.9-9.6 8.3-5.6 3.2-10.9 4.4-16 3.8-6.1-.8-10.8-3.9-13.9-9.3-2.9-5.1-3.4-10.3-1.4-15.6zm-54.1 40.8 1.2.6 16.7-17.9-.6-1.3 2.8-3 13.5 5.2-2.6 5.5c-2.5-.6-4.2-.9-5.1-.9-1.7-.1-3.4.1-4.9.6-1.2.4-2.1 1-2.8 1.8-.3.4-.5.7-.5 1s.3.7.9 1.2l16.1 14.9c.9.9 1.6 1.4 1.9 1.5.3.1.6.2.9.1.3-.1.6-.2 1-.5.3-.3 1.2-1.1 2.5-2.5l3.9 3.6-14.5 15.5-3.9-3.6.9-.9c1-1 1.5-1.8 1.7-2.2.2-.4.2-.8 0-1.2-.1-.4-.7-1.1-1.6-1.9l-16.4-15.3c-.5-.4-.8-.6-1.1-.6-.2 0-.5.2-.9.6-.7.8-1.3 1.9-1.7 3.4-.4 1.5-.5 3-.2 4.7.1.7.5 2.3 1.3 4.9l-5.2 3-6.1-13 2.8-3.3zm-25.6 40.5 4.7 2.4-.9 1.6c-.5.9-.7 1.5-.8 1.8-.1.5 0 1 .2 1.3.2.4.7.8 1.4 1.1l19.3 10.1c.8.4 1.3.6 1.5.6.2 0 .5-.1.7-.3.2-.2.6-.7.9-1.4 1.3-2.5 2-4.6 2.3-6.4.2-1.8 0-3.6-.6-5.5s-1.8-3.8-3.5-5.8l4.2-4.3 9.8 11.6-15.4 29.4-4.7-2.4 1-1.8c.4-.8.6-1.4.6-1.8 0-.5-.1-.9-.3-1.2-.2-.3-.7-.7-1.4-1.1l-19.1-10c-.8-.4-1.4-.6-1.9-.7-.4 0-.8.1-1.2.3-.3.2-.7.7-1.1 1.5l-1.1 2-4.7-2.4 10.1-18.6zm-18 42 5.1 1.4-.5 1.9c-.3 1.1-.4 1.8-.3 2.2.1.4.3.7.6 1 .3.3 1 .5 2 .8l20.4 5.4c1.1.3 1.8.4 2.2.4.4-.1.6-.2.9-.5.3-.4.6-1 .8-1.8l.6-2.2 5.1 1.4-5.4 20.5-5.1-1.4.4-1.7c.3-1.2.4-2 .4-2.4-.1-.4-.2-.7-.5-1-.3-.3-.9-.5-1.9-.8l-20.5-5.4c-1.1-.3-1.9-.4-2.3-.3-.4.1-.8.3-1.1.6-.2.2-.5.9-.8 2l-.5 1.9-5.1-1.4 5.5-20.6zm-1.4 98.3c-1.3.4-2.1.8-2.5 1.1-.4.3-.6.8-.8 1.3-.2.6-.3 1.4-.2 2.5l-5.3.1-.3-19.1 5.3-.1c0 1.2.1 2 .1 2.3s.2.6.5.8c.3.2.5.3.8.3.3 0 .9-.1 1.8-.4l19.6-6.1-14.1-4.9-5.6 2.1c-.1.1-.4.2-.7.3-.9.3-1.5.7-1.9 1.2-.4.5-.6 1.3-.6 2.3l-5.3.1-.2-18.2 5.3-.1v1.5c0 1.1.1 1.7.4 2.1.3.4.7.6 1.2.6.3 0 1-.2 2.1-.5l17.5-5.4-17.7-5c-1.3-.4-2-.6-2.3-.6-.4 0-.8.2-1 .6-.2.4-.3 1.1-.3 2.1v1.6l-5.3.1-.3-16.5 5.3-.1c0 1.2.1 2 .4 2.5.2.5.5.9 1 1.3.4.3 1.4.7 2.8 1.2l29 9.2.2 9.4-15.3 5.2 15.3 5.2.2 9.8-29.1 10.2zm63 88c-4.6 7.2-7.3 17.9-6.5 25.5.1.9-1 1.5-1.7.9-6.4-5.4-17.3-8.7-23.3-9-.8 0-1.3-1-.8-1.6 4.7-7.2 6.1-17.5 6-23.7 0-.9 1-1.4 1.7-.8 4.8 3.9 14 6.8 23.7 7.2.8-.1 1.3.8.9 1.5zm108.5 91.9-5.9-.7c-.6-3.7-1.5-6.6-2.6-8.5-1.5-2.6-3.6-4.4-6.1-5.4-1.9-.7-3.8-1-5.8-.7s-3.8 1.1-5.5 2.5-3 3.3-3.9 5.7c-1.4 3.7-1.6 7.2-.4 10.7 1.2 3.5 3.5 5.9 7.1 7.3 2.3.9 4.7 1.2 7.2.8 3.2-.4 6.2-1.4 9-3l3.4 4.7c-4.3 2.4-7.9 3.8-10.9 4.2-4.6.7-9.1.1-13.7-1.7-3.8-1.5-6.9-3.6-9.4-6.4-2.5-2.8-4-6-4.8-9.6s-.4-7.1.9-10.5c1.3-3.4 3.4-6.1 6.3-8.2 2.9-2.1 6.2-3.3 9.9-3.7 3.7-.4 7.4.2 11.2 1.7 3.8 1.5 6.9 3.5 9.3 6.1l1.6-1.2 4.1 1.6-1 14.3zm48.7 31.7-33-3.4.5-5.2 2.1.2c.8.1 1.5.1 1.9-.1.5-.2.8-.4 1-.7.2-.3.4-.9.5-1.7l2.2-21.5c.1-.9.1-1.6-.1-2-.2-.4-.4-.7-.7-1-.3-.2-.9-.4-1.8-.5l-2.3-.2.5-5.2 21.1 2.2-.5 5.2-1.8-.2c-1-.1-1.7-.1-2-.1-.5.1-.9.4-1.2.7-.3.3-.4.9-.5 1.7l-2.2 21.7c-.1.9-.1 1.4 0 1.6.1.2.2.4.5.5.3.1.8.3 1.7.3 2.8.3 5 .2 6.8-.3 1.8-.5 3.4-1.3 4.9-2.6 1.5-1.3 2.9-3.1 4.1-5.4l5.5 2.3-7.2 13.7zM131 396c0-96.6 78.3-175 175-175 85.4 0 156.5 61.2 171.9 142.1l-2.4-.8c-1.3-1.3-2.6-2.4-4.2-3.2-1.6-.8-3.2-1.4-4.8-2.1-.9-.4-1.6-.9-2.5-1.3-2.9-1.4-5.2-3.4-7.1-6-1.5-2.2-3.6-3.4-6-4.3-1.4-.5-2.7-.9-3.7-2.2-.7-.9-1.5-1.9-2.5-2.4-2.4-1.1-4.4-2.8-6.3-4.5-.5-.4-.9-.9-1.5-1.1-1.4-.5-2.8-.7-4.2-1.1-1.7-.5-3.3-.9-4.8-2-1.3-1-2.8-1.8-4.3-2.5-.9-.4-1.8-.8-2.4-1.7-.3-.4-1-.6-1.5-1-.3-.2-.7-.3-.9-.6-.6-.6-1.1-1.3-2.1-.9-.2.1-.4-.1-.7-.2-.7-.2-1.4-.6-2.2-.7-1.8-.4-3.6-.7-4.9-2.3-.3-.4-1-.6-1.5-.9-.5-.3-1.1-.4-1.4-.7-1.6-1.6-3.6-2.3-5.6-3-1.5-.6-3.2-.9-4.2-2.4-.9-1.3-2.1-2.2-3.8-2.5-.4-.1-.8-.4-1.1-.7-1.5-1-3-2.1-4.5-3.1-.6-.4-1.2-.8-1.8-.9-2.6-.4-5.2-1.1-7.6-2.3-2.2-1-4.3-2-6.4-3.1-.9-.5-1.7-1.3-2.9-1.1-.3 0-.7-.3-1-.5-.9-.6-1.8-1.1-3-1-.7 0-1.4-.3-2.1-.5-1.7-.5-2.9-2.2-4.9-2.4-2.5-.2-4.5-1.9-6.9-2.4-1.7-.4-3.3-1.3-5-1.5-2-.2-3.5-1.5-5.3-2.1-1.8-.6-3.5-1.9-5.1-3-.8-.5-1.5-1.2-2.1-1.9-.6-.8-.9-1.8-1.5-2.5-1.8-2.2-3.5-4.3-4.9-6.8-1.6-2.8-3.3-5.5-4.1-8.6-.2-.8-.4-1.6-.4-2.5-.1-2.6 0-5.2 0-7.9 0-1.6-.4-3.2-.5-4.7-.1-4.1-1.6-7.8-3.4-11.3-2.1-4-5.2-7.4-8-10.9-.1-.2-.4-.3-.6-.4-1.1-.6-2.2-1.2-3.3-1.7-.5-.2-1.1-.1-1.6-.2 0 .5-.1 1.1-.1 1.6.1.7.4 1.4.3 2.1-.2 1.5-.2 2.9.2 4.3.2.8.1 1.7 0 2.5-.1.9-.4 1.9-.4 2.8-.1 1.9.2 3.8 0 5.6-.4 3.7-.8 7.5-.3 11.2.4 2.6 1.3 5.1 2 7.6.1.5.6.9.7 1.3.3.9.1 1.2-.9 1.2H303c-.4 0-.7-.1-1.1-.2-.9-.2-1.9-.5-2.8-.6-1.8-.3-3.6.3-5.4.7-.7.1-1.4.1-2.1.4-2.3 1.1-4.5 2.2-6.8 3.3-.8.4-1.3.2-1.7-.7-.4-.9-.7-1.9-1.2-2.8-1.1-2.1-2.2-4.2-3.4-6.3-.8-1.4-1.8-2.6-2.7-3.9-.9-1.3-1.9-2.7-2.9-3.9-1-1.4-2.1-2.7-3.2-4.1-.6-.7-1.3-1.4-1.9-2.1-1.5-2.1-2.8-4.5-4.6-6.4-2-2.1-3.5-4.3-4.8-6.8-.1-.3-.6-.6-.8-.6-.3.1-.7.4-.8.7-.5 1.7-1 3.5-1.4 5.3-.1.3 0 .7-.1 1l-.6 6.3c0 .4-.1.9 0 1.3.2.9.3 1.7-.4 2.4-.2.2-.3.5-.2.8.3 1.2.5 2.3.6 3.5.1.9.9 1.8 1 2.7.1 1-.4 2.1.3 3.1.2.4.2.9.4 1.3.6 1.3 1.7 2.3 1.2 4-.1.3.2.7.4 1 .4.7.8 1.3 1.2 2 1 1.7 1.9 3.3 2.9 5 .1.3.2.5.4.8.3.7.5 1.5.9 2.1.6 1 1.1 1.9 1 3.1 0 .3.1.6.2.9l1.5 4.2c.3.9.1 1.7-.7 2.4-.9.7-1.8 1.5-3.1 1.6-.3 0-.6.3-.8.5-1 1.1-2 2.3-3.1 3.4-.2.3-.6.5-.9.6-1.9.7-2.2 1.5-1.4 3.4.1.3.2.8 0 1.1-.3.8-.7 1.6-1.2 2.2-.3.4-.9.6-1.3.8v-1.8c0-.1.2-.2.2-.3.8-.9.9-1.8.3-2.8-.1-.3-.4-.7-.6-.7-.3.1-.7.3-.9.6-.6.9-1.1 1.9-1.7 2.8-.8 1.4-.8 1.4.4 2.4.6.4.6.9.3 1.5-.4.7-.9 1.4-1.3 2-.5.8-1.1 1.4-2.2 1.3-.2 0-.5.2-.7.3.1.2.3.5.4.7.2.4.5.8.5 1.1-.2 1.3-1.8 2.8-3.1 3.1-.5.1-1 .4-1.4.8-1.5 1.8-3 3.5-3.2 6 0 .3-.4.5-.6.8-.3.5-.7 1-.7 1.6-.2 1.9-.4 2.2-2.2 2.6-.7.1-.8.5-.5 1.1.4.6.8 1.3 1.3 1.8.7.8.9 1.8.2 2.5-.6.5-1.1 1.1-1.1 1.9 0 .2-.6.5-.8.4-1.1-.5-1.6-.4-1.8.8-.2 1-.5 1.8-1.5 2.1-.2.1-.3.4-.4.6-.4.9-.8 1.9-1.2 2.8-.8 1.8-1.7 3.5-2 5.5-.3 1.7-.5 3.6-2 4.9-.2.2-.2.6-.2 1-.1.7-.3 1.3-.3 2-.1.5-.1 1 0 1.4.1.6.5 1.1.6 1.7.4 1.4-.7 3 .7 4.2.1.1.1.2 0 .3-.3 1.9-.4 3.9-.9 5.8-.6 2.1-1.5 4.1-2.2 6.1-.1.3 0 .6.1.9l.9-.3c.2-.1.3-.3.4-.5 1-1.9 1.9-3.9 3-5.8.8-1.5 1.8-2.9 2.7-4.4.7-1 1.6-1.9 2-3 .6-1.7 1.7-2.8 2.7-4.2 1.6-2.3 3.3-4.5 4.9-6.7.1-.2.1-.4.3-.6 1-1.7 1.9-3.6 3.1-5.1 1.4-1.8 3-3.3 4.3-5.3 1.1-1.7 2.4-3.2 3.5-4.9.6-1 1.4-1.6 2.5-1.9 1-.3 1.1-.6.4-1.4-.6-.6-.6-1.2-.2-1.7.6-.7.6-1.5.6-2.3 0-.6.3-1.2.4-1.8.4-1.3 1.5-2.4 1.1-3.7-.3-1.2 0-2 .6-2.8 1.4-1.9 2.6-3.8 4.1-5.5.8-.9 2-1.4 3.1-2 .6-.4 1.3-.5 1.9-.9.6-.4 1-1 1.6-1.3 1.4-.9 2.2-2.2 2.8-3.6.2-.5.7-.9 1.2-1.3.7-.6 1.5-1.2 2.2-1.8.4-.3.6-.8 1-1 1.8-.8 3.6-.5 5 1 .3.3.6.7.9 1.1.6.7.5 1.3.2 2.1-.4 1-1 2.1-1 3.2 0 1.7-.4 3.2-.8 4.8-.5 1.7-.5 3.6-.8 5.4-.1.8-.4 1.3-1.4 1.3-.4 0-.9.3-1.2.6-1.5 1.7-3.3 3-5.2 4.1-1.9 1.1-4.4 1.1-5.9 3.1 0 .1-.2.1-.3.1-.6.3-1.1.7-1.7 1-.4.2-.7.6-1.1.7-1.1.2-1.8 1-2.5 1.7-.5.4-1.1.8-1.7 1-1 .3-1.8.8-2.5 1.8-.9 1.3-1.1 3-2.4 4-1.1.9-1.8 2.1-2.7 3.1-.4.4-.8.7-.5 1.5.1.1-.3.5-.5.8-.3.3-.8.5-1.1.9-1 1.4-2 2.8-2.9 4.2-.1.2-.2.4-.2.7 0 .9-.5 1.4-1.1 1.9-1.3 1.1-2.3 2.5-3.1 3.9-.8 1.3-1.8 2.5-2.7 3.7-.9 1.2-1.9 2.5-2.9 3.7-.4.6-1 1-1.5 1.6-.4.5-.9.9-1.2 1.4-.3.5-.5 1-.8 1.5-.5.8-1 1.6-.8 2.5.1.7-.3 1-.9 1.4-1.1.8-2.1 1.7-3 2.8-1.2 1.5-2.1 3.2-3.2 4.8-.2.3-.4.5-.5.7-.5 1.8-1.6 3.1-3.2 4-.7.4-1 1.1-.7 1.9.1.2.1.4.1.6-.5.1-1.1-.1-1.3.2-1 .9-2 1.8-2.9 2.8-.2.3-.3.8-.2 1.2.1.3.5.8.8.8.3 0 .6-.4.8-.7.4-.7.8-1.2 1.7-1.2.8 0 1.3-.6 1.2-1.2-.1-1.6 1.1-1.8 2.1-2.2.8-.3 1.3-.7 1.7-1.4.9-1.3 1.9-2.6 2.9-3.8l.3-.3c.7-.4 1.2-.9 1.3-1.7 0-.2.4-.3.6-.4 0 .3.2.6.1.8-.3.7-.7 1.3-1 2-.4.9-.3 1.5.7 1.8.3.1.4.6.7.9-.3.2-.6.3-1 .5-.3.1-.9.2-.9.4-.3.8-.4 1.6-.5 2.4 0 .1.7.4.8.3.6-1 1.5-1 2.5-.8.1 0 .3-.1.4-.2.7-.6 1.3-1.2 2-1.9.4-.4.4-.8-.1-1.2-.4-.3-.6-.8-.9-1.1-.1-.2-.3-.4-.5-.4-.9 0-1.1-.6-1.1-1.3 0-.7.1-1.4.1-2 .1-.7.4-1.2 1.2-1.1.8.1 1.2.4 1.3 1.2 0 .4.2 1 .4 1.2.6.5.6 1 .5 1.7-.1.3.1.7.3.9.2.1.7 0 .9-.1.2-.2.3-.5.4-.8.3-.8.7-1.2 1.7-1.1.5 0 1.2-.4 1.5-.9.5-.7.9-1.4 1.8-1.7.2-.1.5-.5.5-.7 0-.2-.4-.5-.7-.6-.9-.1-1.5.3-1.9 1-.3.5-.6 1-1.1 1.3-.2.2-.7.1-1.1.1 0-.3 0-.6.1-.9.1-.3.5-.6.4-.9-.1-.5-.4-.9-.6-1.4-.3.2-.7.4-1 .6-.2.2-.3.4-.6.8-.1-1.1-.1-2-.1-2.9 0-.2.2-.4.3-.4.1 0 .4.1.5.2.4.9.9.9 1.7.4.1-.1.5.1.8.3.3.2.5.8.6.7.3-.1.7-.4.9-.7.4-.4.8-1 1.3-1.4.9-.6 1.8-1.1 2.7-1.5 1.2-.6 1.4-.9 1.2-2.2 0-.4-.1-.9.1-1.2.4-.6.7-1 .2-1.6-.4-.5-.6-1.1-1-1.4-.9-.7-2-1.3-1.7-2.8 0-.2-.1-.4-.2-.6-.7-1.1-.6-1.5.8-2.2 1.3-.7 2.3-1.7 2.9-3 .4-.7 1.5-1.1 2.1-.7.5.3.9.7.5 1.3-.1.1-.7-.1-1.1-.1-.1 0-.2-.2-.3-.2-.2-.1-.5-.2-.6-.1-.2.1-.3.5-.3.7.2.9-.1 1.5-1 1.8-.2.1-.5.5-.5.7 0 .3.3.6.5.8.2.2.5.3.7.5 0 .1-.1.2-.1.3-.6 0-1.2-.1-1.8 0-.4.1-.8.3-1 .6-.1.2.1.9.3.9 1.1.3 1.7 1 2.2 1.9 0 0 .1 0 .1.1.6.2.8.6.7 1.2 0 .2.3.6.5.7 1.4.5 2.3-.2 2.6-1.7.2-1.1.7-1.4 1.6-.7.4.3.7.6 1.1.8.3.1.7.1 1 .1 0-.4 0-.8-.1-1.2 0-.2-.3-.3-.4-.4-.8-.9-.7-2.3.3-2.9.3-.2.8-.1 1.2-.2v1.1c0 .1-.1.3-.1.4-.4 1.3.4 2.2 1.1 3 .6.7 1.3.2 2-.2.3-.2.8-.1 1 0 .6.5 1.1.4 1.6-.1s1.1-.4 1.6 0c.3.2.8.5 1.1.4.8-.2 1.6-.3 2.1.6.1.2.7.2 1 .1.1 0 .3-.6.2-.7-.2-.2-.5-.3-.8-.4-.2-.1-.5-.1-.9-.1.2-.7.4-1.4.6-2-.4-.3-.9-.6-1.3-.9-.3-.2-.7-.6-.7-.9.1-.3.5-.6.8-.9 1.3 1.2 1.3 1.2 2.3 0 .2-.2.6-.4.8-.3.8.2 1.4 1.6 1.2 2.4-.1.5-.1 1.1.1 1.5.5 1.2.3 2.3.2 3.5-.3 0-.5-.1-.7-.1-.8-.1-1.3.3-1.1 1.1.1.8.1 1.4-.8 1.5-1.1.1-.1 1.3-.9 1.5-.7.2-1.5.4-2.2.5.2-1.1.4-2.2.5-3.2 0-.3-.2-.8-.4-.9-.3-.1-.8.1-1 .3-.3.4-.4 1-.5 1.5-.1.6-.3 1-1 1.2-.5.1-.9.6-1.3 1-.6.5-1.2 1.1-1.8 1.6-.2.1-.6 0-.9-.1-.1-.1-.2-.5-.2-.6.1-.2.4-.3.6-.4.3-.1.7-.2 1.1-.2-.2-.4-.4-.8-.5-1.3-.1-.3-.2-.7-.1-.8.8-.6 1.3-1.6 2.5-1.6.3 0 .6-.4.8-.7-.3-.3-.5-.7-.8-.7-1.5-.4-2.6.3-3.2 1.8-.4 1-.6 1-1.2.2l-.6-.6c-.1 1.1-.5 1.8-1.5 2.1-.1 0-.1.9 0 1 1.2.4 1.4 1.3 1.5 2.4 0 .5.2 1 .4 1.6-.5-.2-1.1-.4-1.6-.8-.7-.5-.9-.2-1.4.3-.8 1-.5 2.8-2.3 3 0 0-.1.1-.1.2-.6.9-1.4 1.7-.6 3 .1.2.1.5 0 .8-.1.6.1 1 .7 1 .2 0 .6-.5.6-.8.1-1 .7-1.5 1.6-2 .1.6.2 1.4-.1 1.8-1 1.3-1.8 2.8-3.5 3.3-.3.1-.6.2-.9.5-.6.5-1.2.7-1.8.2-.5-.4-.9-.2-1.1.3-.2.4-.5.8-.6 1.3-.2.5-.1 1.3-1 1.1-.8-.2-.6-.9-.5-1.5 0-.1.1-.1.1-.2-.1-.2-.2-.6-.3-.6-.5-.1-1-.1-1.6 0 0 0-.1.5 0 .8 0 .4.2.9 0 1.2-.5.9-1.2 1.8-1.7 2.7-.2.2-.4.6-.4.7.1.3.4.5.7.6.8.3 1.3-.4 1.4-.8.5-1.6 1.6-1.6 3-1.6.8 0 .9.4.6.8-.4.5-1 .9-1.5 1.2-.8.5-1.1 1.5-.3 1.9.6.2 1.6.3 2 0 1.6-1.2 3.1-2.7 4.6-4 .5-.4 1-.8 1.7-.2.1.1.5 0 .8 0-.1-.2-.1-.5-.3-.7-.7-.7-.6-1 .3-1.4.6-.2 1.3-.3 1.9-.7.6-.3.9-.3 1.4.3.2.2.7.4.9.3.3-.2.6-.6.5-1 0-.3-.4-.7-.7-.9-.2-.1-.6.1-.8-.1-.3-.2-.5-.5-.7-.7.3-.2.5-.4.8-.6.1-.1.3 0 .5.1.8.4 1.3.1 1.7-.7.1-.2.1-.3.3-.4.2-.2.5-.3.7-.4 0 .3.1.5.1.8 0 .3 0 .6.1.9 0 .1.4.1.5.1.1-.3.2-.7.1-1-.2-.8.1-1.3.8-1.5.7-.2.9-.6.8-1.3 0-.8.1-1.5 1.2-1.5.2 0 .5-.2.7-.4.4-.5.8-.5 1.3-.2.9.5 1.1.4 1.1-.6-.1-1.1.3-1.9 1.3-2.3 1.6-.6 3-1.4 4-2.8.4-.5.9-.4 1.1.3.2 1 .6 1.2 1.5.7 1-.6 2-.7 3-.3.9.4 1.6.2 2.1-.6.7-1.1 1.6-.9 2.7-.7.9.2 1.9 0 2.8 0 .2 0 .6-.4.6-.6.1-1.1.9-1.2 1.6-1 1.8.4 3.6.9 5.4 1.5.4.1.7.5 1 .7l1.5 1.2c.4.3.7.7 1.1 1.1l-.2.4c-.5-.2-1-.3-1.4-.6-.6-.4-1.1-1-1.7-1.2-1-.5-1.8 0-1.9 1.2-.1.9-.6 1.3-1.5 1.1-2.3-.5-4.4-.1-6 1.5-1.2 1.1-2.4 2.4-3.2 3.9-.7 1.3-1.3 2.1-2.7 2.3-.4.1-.8.4-1.3.5-.4.1-.8.1-1.3.1.1-.5.1-.9.3-1.4.1-.3.6-.6.6-.9-.1-1.3.6-1 1.4-.8.4.1 1 .2 1.3 0 1-.5 1.8-2.8 1.5-3.9-.2-.6-.9-.9-1.2-.3-.7 1.1-1.9 1.1-2.9 1.5-.4.2-.8.5-1 .8-.4 1-.6 2.1-1 3.1-.1.4-.6.8-1 .8-.3 0-.6-.6-.8-.9-.1-.2-.1-.6-.2-.6-.3-.1-1-.1-1-.1-.1 1-.7 1.4-1.7 1.6-.1 0-.2.3-.3.4-.3.2-.6.6-.9.6-.8.1-1.1.6-1.1 1.3 0 .3.4.7.7.7.7.1 1.2-.3 1.1-1.1 0-.6.3-.8.9-.8.8 0 1.5 0 2.3.1 1.2 0 2 .6 2.1 1.5 0 .3-.2.7-.2 1-.3-.1-.6-.3-.9-.4-.4-.1-1-.4-1.2-.2-.5.4-.9.5-1.4.1-.1-.1-.6-.1-.7 0-.1.1-.1.5-.1.7.1.4.3.8.3 1.2 0 .6-.2 1.2-1 .7-.6-.3-.9-.3-1.1.4-.3 1-1.1 1-2 1.2-1.4.3-2-.3-2.8-1.1-.4-.4-1.4-.2-2.1-.1-.2 0-.5.8-.4 1.1.1.3.6.6 1 .6.8 0 1.4.1 1.2 1.2-.1.4.3 1 .6 1.3.5.6 1.9.1 2.2-.6.1-.3.6-.9.7-.8.4.2.9.5 1.1.9.2.3.2.9.1 1.3s-.3.8-.4 1.2c-.4-.2-1-.2-1.3-.5-.5-.4-.9-.6-1.4-.1-.8.7-1.6 1.5-2.5 2.2-.2.2-.5.2-.8.3 0-.3-.1-.6-.1-.9 0-.1.2-.3.3-.4.6-1 .4-1.3-.6-1.7-.3-.1-.5-.6-.7-.9-.1-.2.1-.6.1-.8-.1-.4-.4-.7-.6-1.1-.3.3-.6.5-.8.8-.7 1.2-.7 2.4-.4 3.8.1.3-.1 1-.3 1-.4.1-.9-.1-1.3-.2-.1 0-.2-.2-.2-.3-.5-.7-1.2-.6-1.6-.1-.3.4-.6 1.2-.4 1.6.2.4 1 .4 1.5.5.2 0 .5-.2.7-.4.1.1.1.2.2.3-1 .8-2 1.6-3 2.5-.3.2-.4.5-.6.8.3.2.6.4.9.5.2.1.5.1.8.1-.7 2.5-.7 2.5-2.8 2.3-1.1-.1-1.4-.5-1.3-1.6 0-.3-.1-.7-.2-.9-.1-.1-.6-.1-.7 0-.2.2-.2.6-.2.9.2 1.7-.4 2.3-2 2-1-.2-1.4.1-1.4 1.2 0 .5.2 1 .1 1.4 0 .4-.2.9-.4 1-.3.1-.8-.1-1.2-.2-.4-.1-.8-.3-1.2-.4 0 .5 0 1 .2 1.4.1.2.6.4.9.5.6.1 1.2 0 1.8.1.5.1 1.2.1 1 .8-.1.3-.8.6-1.2.7-.2.1-.5-.2-.7-.1-.3.1-.8.4-.8.6-.4 1.4-.6 2.8-.9 4.2 0 .2-.2.5-.4.5s-.6-.2-.6-.3c0-1-.3-2.2.1-2.8.6-.9.6-1.4.1-2.2-.2-.3-.5-.5-.8-.7-.2.3-.5.7-.5 1 0 1.1-.7 1.6-1.4 2.1-.5.4-1 .2-1.1-.5-.1-.7-.1-1.4.5-2 .2-.2.2-.7.1-.9-.1-.2-.6-.2-.9-.2-.9.2-1.9.4-2.8.7-.2.1-.6.3-.6.5s.2.6.4.7c.3.1.7 0 1 .1.3.1.8.2.8.4.1.7.2 1.5 0 2.1-.6 1.9 0 2.8 1.8 2.5.4-.1 1.9 1 1.8 1.3-.2.4-.7.7-1 1.1-.3.4-.7.8-1 1.2-.3.3-.7.8-1 .9-.8.2-1.7.1-2.5.2-1.5.2-2.3-.5-2.4-2-.1-.8-.5-1.2-1.2-.9-.8.4-1.6.9-2.6 1.4l.8.4c.4.1.8.1 1.2.3 1 .3 1.2 1 .4 1.8l-.4.4c.3.2.5.4.7.6.1.2.2.5.2.8-.3 0-.6.1-.9 0-.9-.5-1.2-.3-1.3.9 0 .5-.3.9-.5 1.3-.4-.2-.8-.4-1.1-.7-.4-.4-.8-.7-1.4-.3-.6.4-.3.8-.1 1.2.5.9.3 1.2-.6 1.6-.4.2-.8.5-1.2.7-.4.2-.8.4-1.2.5-.7.2-1.2-.2-1.2-.9 0-.3.4-.8.7-1.1.3-.3.8-.5 1.1-.8.2-.2.1-.7 0-1 0-.1-.5-.3-.7-.2-1 .4-1.9.8-2.8 1.3-.7.3-1 .8-.6 1.7.1.2.2.6.1.9-.3.8-.7 1.6-1.1 2.4-.3.6-.4 1.1.1 1.7.4.4.5 1 0 1.4-1.7 1.5-3.4 2.9-5.1 4.4-.2.1-.2.4-.4.6-.3.4-.6.8-.9 1-.6.4-1.4.6-2 .9-.3.1-.6.4-.7.7-.7 1.6-.7 1.6-2.2.8-.1 0-.1-.1-.2-.1-1-.4-1.3-.2-1.4.9-.1.8-.3 1.5-.6 2.2-.1.3-.6.5-.9.5-.2 0-.5-.4-.6-.7-.1-.7-.1-1.4-.1-2.1 0-.6-.3-.9-.9-.7-.6.3-1 .8-.9 1.5.1.4 0 .8-.1 1.2-.3-.3-.7-.5-1-.8-.1 0-.1-.1-.2-.1-1.4.5-2.4 1.5-3.4 2.6-.4.5-1 .9-1.6 1.1-1.1.4-1.7 1.2-1.5 2.3.1.8-.2 1.2-.9 1.4-1 .3-2.1.5-2.9 1.1-.8.6-1.5.9-2.3.5-.3.4-.5 1-.9 1.1-1 .3-2 .5-3 .7-.9.2-1.9.1-2.7.4-1.3.4-2.5.9-3.7 1.4-.3.1-.6.1-.9.2.1.2.1.4.1.5.6 1.1.5 1.3-.5 2-.3.2-.5.5-.7.7-1.4 1.1-1.4 2.9-1.7 4.4-.2 1.2-.2 2.6.1 3.7.3 1 .7 2 .7 3.1 0 .8.7 1.2 1.4 1.2 2.1-.1 4.3-.2 6.4-.2 1.8 0 3.5.4 5.3-.5 1-.5 2.2-.5 3.3-.7.6-.1 1 .3.7 1-.3.6-.7 1.2-1.1 1.8-.1.2-.6.3-.8.2-1-.7-1.6 0-2.2.7-1.3 1.7-2.3 1.9-4.2 1-1.1-.5-2.1-1.3-3.5-1.2-1.2.1-2.3-.3-3.4-.9-.3-.2-.8-.1-1.1-.2-.3-.1-.8-.2-.9-.4-.4-.8-.7-1.7-1-2.5-.1-.3-.1-.7-.3-.8-1.6-1.5-1.2-3.5-1.4-5.4-.3-1.9 1-3.3 1.3-5.1.1-.9.2-1.8.7-2.5.5-.8.6-1.4-.2-2-.4-.3-1-.8-1.4-.7-.7.1-.9.8-.8 1.5.1.6-.1.8-.7.9-.2 0-.5 0-.7.1-1 .9-1.9.6-3.1.2-1.3-.5-2.8-.4-4.2-.4-.4 0-1.2.6-1.3 1-.2 1.5-.6 3.2-.1 4.5.8 2.3 1.4 4.8 3.5 6.3-.3.7-.7 1.3-.8 2-.1 2.2-.1 4.4-.2 6.6 0 .8-.2 1.7-.4 2.5-.1.6-.3 1.3-.3 1.9 0 .9.3 1.9.3 2.8-.1 1.7.6 3.1 1.5 4.4 1 1.5 2.4 2.4 4.2 2.9 3.5 1 5.1 4.3 7.1 6.9.3.4.4 1 .7 1.5.5.9 1 1.9 1.7 2.6 1.9 1.5 3.7 3.2 6.3 3.4.4 0 .8.3 1.1.4.4.1.8.3 1.2.3 2.1 0 4.1.1 6.2 0 1 0 2-.4 3-.5.4-.1.8 0 1.1.1.7.2 1.4.4 2.1.5.9.1 1.7-.1 2.5.6.5.5.9.1 1.3-.3.5-.6.9-1.2 1.5-1.6 2.5-1.9 5.1-3.6 7.6-5.5 1.8-1.4 3.2-3 3.4-5.5.2-1.4 1.1-2.7 1.7-4.1.1-.2.3-.2.5-.3.9-.4 1.9-.8 2.8-1 .5-.2 1.1-.3 1.7-.2 1.8.3 3.2-.7 4.8-1.2 1.1-.4 2-1.2 3-1.7 2.1-1.1 3.9-.4 5.6 1.1 1.7 1.5 3.6 2.8 5.4 4.1 1.3.9 2.7 1.8 4.1 2.7 1.4.9 2.8 1.9 4.3 2.7 2.7 1.4 5.3 3.2 8.3 4 1.7.4 3.2 1.5 4.9 2.1 3 1.1 6 2.2 9.1 3 1.2.4 2.4 1.3 3.9.6.2-.1.6.1 1 .2.8.2 1.6.3 2.4.5.3.1.6 0 .9.1 1.6.4 3.1.9 4.7 1.4.2.1.4 0 .6 0 .9 0 1.9-.2 2.8-.1 1.7.2 3.4.6 5.2.2 1.8-.4 3.7-.2 5.5.7.3.2.7.1 1.1 0 2.2-.6 4.5-.6 6.8-.7 5 0 10-.2 15.1-.3.6 0 1.3 0 1.8-.2 1.2-.6 2.5-.5 3.8-.5.7 0 1.4-.2 2.1-.4.4-.1.7-.2 1.1-.3 2.4-.2 4.8-.1 7.1-.5 2.1-.3 4.1-1.4 6.3-1.5 1.8-.1 3.4-1.2 5.3-.7.3.1.7 0 .9-.1 1.4-1.2 3.2-.7 4.7-1.2 1.9-.6 4-.8 6-1.3 2.2-.5 4.3-1.3 6.5-1.5 2.7-.3 5.1-1.5 7.6-2.2 2-.6 4-.9 5.9-2 1.3-.8 2.8-1.1 4.3-1.6 1.2-.4 2.5-.8 3.8-1.1.3-.1.7.1.9.3.1.1 0 .6-.2.8-.4.5-.2.8.2 1.1 1.8 1.2 2.9 2.7 3 5 0 1 .8 1.7 1.8 1.9 1.6.3 2.4 1.1 2.6 2.7.1.7.3 1 1 1 .6 0 .9.4.7 1-.3.8.1 1.2.7 1.6 1.1.6 2.1 1.4 2.1 2.9 0 .3.2.6.4.9.6 1.1.7 2.5 2 3.2.1.1.2.3.2.4 0 1.1.6 1.9 1.3 2.5.3.3.8.6.9.5.4-.2.6-.7.8-1.1.2-.6.2-1.3.4-1.9.1-.3.4-.4.6-.6.2.3.4.6.4.9 0 .3-.1.8-.4.9-1.2.7-.5 2.3-1.3 3.2-.1.1.2.6.4.9.4.6.9 1.1 1.2 1.7.4.6.7 1.3 1.6 1.1 1.1-.2 1.8.3 1.8 1.4.1 1.4 0 2.8 0 4.2 0 .7-.1 1.4 0 2 0 .2.5.4.7.7.1-.3.1-.5.2-.8.2-.7.2-1.4.6-2 .2-.2 1 0 1.5 0-.1.3-.1.6-.2.9-.1.4-.5.9-.4 1.2.2.6.8.4 1.3.3.5-.1 1.1 0 1.6.2.1 0 .2.2.2.3-29.4 24.8-68.4 40-110.9 40-96.6 0-175-78.4-175-175zm343.3 11.1c.1-.4.3-.7.5-1 .3.2.5.4.9.8-.4.3-.6.6-.9.7 0 .1-.5-.3-.5-.5zm.3 8.3c0 .1 0 .2-.1.3-.2.2-.5.1-.6-.2s-.1-.5 0-.7c.1-.5.3-1.1.4-1.6h.2c.1.7.2 1.4.1 2.2zm.9 2.7c.1-.3.4-.5.6-.6l.2.4v.6c0 .2-.2.3-.4.3-.4 0-.5-.4-.4-.7zm-3.8 4.4.1-.3c-.1.1-.1.2-.1.3.2.6.4 1.1.6 1.7v.2l-.1.1c-.2.1-.5-.1-.6-.3-.1-.2 0-.5 0-.8 0-.3 0-.6.1-.9 0 .1 0 0 0 0zm-.3 19.2c.1.3-.2.7-.5.8-.3.1-.7 0-1-.1-.1-.3.1-.6.3-.8.2-.2.5-.4.5-.7l-.1.5c.3.2.5.3.8.3zm-6.1 11.4c-.1.1-.4.1-.6.2 0-.2-.1-.4-.1-.6.2-1 .8-1.3 2.2-1.3-.5.6-1 1.1-1.5 1.7zm.2 4.4c0 .3-.3.4-.5.6-.1.1-.3.2-.4.1-.1-.1-.1-.2-.2-.3-.1-.6.1-1.2.3-1.7l.2.1c0 .4.7.7.6 1.2zm-1.4-17.3c-.2-.2-.5-.5-.5-.7 0-.8.1-1.7.2-2.5h.3c.2.8.4 1.7.5 2.5.1.2-.3.5-.5.7zm1.1 3.6.4-.1c.5.5.9 1.3.9 2.1 0 .2-.1.5-.3.6-.2 0-.3-.1-.5-.3-.4-.7-.6-1.5-.5-2.3zm2.1 10.4c.3.5.5.7.5.9 0 .3-.3.5-.5.8-.2-.2-.5-.4-.6-.7 0-.2.3-.5.6-1zm-.4-19.9c.4-.9.7-1.6 1-2.3.1-.1.7-.1.7 0 .5.9-.4 2.2-1.7 2.3zm1.1-4.4c-.3 0-.7-.4-.7-.6.1-1.1.2-2.2.4-3.3 0-.2.2-.4.4-.7.5.9.9 1.6 1.3 2.4.3.6-.8 2.2-1.4 2.2zm-4.9 13.8c-.2.4-.8.7-1.2.6-.1-.8.3-1.7 1-2.2l.2.3c.2.4.2.9 0 1.3zm-3.5-63.4c-.2.2-.5.3-.8.2-.1 0-.2-.1-.3-.2-.2-.2-.1-.6.1-.8.2-.2.5-.2.8-.1v.2c.3.1.3.5.2.7zm-2.8 85.1c-.2.2-.5.2-.7.2-.1 0-.2-.1-.3-.1-.2-.2-.1-.5.1-.7.2-.2.5-.2.7-.2l.5.1c0 .3-.1.5-.3.7zm-3.3-25.3c0 .3-.2.5-.4 1-.3-.5-.5-.7-.5-.9 0-.2.3-.4.5-.7.1.3.4.4.4.6zm-3.8 25.4.2-.2v.1c.1-.1.3-.2.4-.3.1-.1.2-.1.4-.1.3 0 .5.3.6.6 0 .1.1.2 0 .3 0 .1-.1.1-.2.1-.3.1-.7.2-1 .2-.1 0-.2 0-.2-.1v-.8c0 .1-.1.2-.2.2zm0-13.5c-.1.1-.1.2-.3.2-.2 0-.3-.1-.4-.2-.1-.2-.2-.5-.1-.7v-.1h.4l.2-.1c.3.3.3.6.2.9zm-2.6-52.2c-.1-.6.2-1.2.8-1.4l.1.4c.2.3.3.8.2 1.2 0 .1 0 .1-.1.2h-.2c-.2-.1-.5-.2-.8-.4zm.5 4.7c-.1.3-.3.5-.6.5-.4-.1-.4-.5-.4-.9 0-.1 0-.3.1-.4s.2-.2.4-.1l.4.2c.1.2.1.5.1.7zm.2-24.1c-.2.1-.5 0-.7 0-.1 0-.3-.1-.4-.2-.1-.1-.1-.3 0-.4.1-.2.4-.1.5-.1l.6.4v.3zm-1 2.5c-.1.2 0 .5 0 .7 0 .2 0 .5-.2.7-.3.2-.6-.1-.7-.4-.1-.3.1-.6.2-.9l.7-.1zm-.6 82.7h.1s.1.1.1.2c0 .3 0 .6-.2.8-.2.2-.5.3-.7.3-.1 0-.1 0-.1-.1v-1.3l.3.1h.5zm.9 2.8c.2-.3.5-.6.8-.6.2 0 .5.4.6.7.1.3 0 .9-.2 1.1-.5.4-1.2.7-1.8 1.1-.1-.1-.2-.1-.2-.2.2-.7.5-1.4.8-2.1zm-6.2-19.2c.1-.1.3-.1.5-.1h.8c.3.1.5.3.6.5-.6.1-1.2.2-1.9.1v-.1c-.2-.1-.1-.3 0-.4zm0-16.2c0-.1.3-.3.5-.4.1.2.3.4.3.5 0 .6-.2 1.2-.2 1.9h-.6c-.1-.7-.1-1.3 0-2zm.2 34.1c.1-.1.2-.1.3-.1h.9v1h-.2c-.3 0-.6-.1-.8-.3l-.3-.3s0-.2.1-.3zm1.1 22.8c.3.3.6.5.8.6-.3.3-.6.8-1 .8-.3 0-.6-.4-1-.6.4-.2.7-.5 1.2-.8zm.5-15.4c-.2-.1-.5-.3-.5-.6s.1-.6.4-.6h.3c.2.1.4.2.5.3.1.2.2.4.1.6-.2.4-.6.4-.8.3zm-4.2-68.2c.8.2 1.4 1.1 1.2 1.9 0 .2-.1.4-.3.5-.2.1-.4.1-.6.1h-.7c-.1 0-.1 0-.2-.1v-.2c0-.6.2-1.1.6-1.5v-.7zm-.4 22.3v.2c.2.2.3.4.2.7v.1h-.7c-.2-.1-.5-.2-.6-.4-.1-.2 0-.4.2-.5.1 0 .2-.1.3-.1.3-.1.5-.1.6 0zm.9 25c.2 0 .5.3.7.4-.2.2-.4.5-.7.8-.3-.3-.5-.5-.8-.7.3-.1.5-.4.8-.5zm0 38.9c.2-.3.5-.5.8-.6h.2c.1.4 0 .9-.2 1.2l-.1.1h-.1c-.3 0-.6-.2-.6-.4-.1-.1-.1-.2 0-.3zm-3.9-115.3c-.1 0-.2 0-.2-.1-.1-.1 0-.2 0-.3.1-.3.3-.5.6-.6l.2.1c.1.2.1.3.1.5s-.2.3-.3.4h-.4zm.3 57.7v1.1c-.3.1-.6 0-.7-.3-.2-.2-.2-.5-.1-.8 0 0 0-.1.1-.1h.1c.2 0 .4 0 .5.1h.1zm-.3-32.1v.2h-.7c-.1 0-.3 0-.4-.1-.2-.1-.2-.4-.2-.6 0-.3.1-.6.2-.8.2-.2.5-.4.8-.3h-.2c.5.3.6 1 .5 1.6zm-.5-23c-.4 0-.7-.3-.8-.6 0-.1-.1-.2 0-.3 0-.2.2-.3.4-.3s.4.1.5.3c.1.3.2.7-.1.9zm-.7 6.6c.1.2.1.5-.1.7-.2.1-.4.1-.6 0l.1.1h-.8c-.1-.3 0-.6.2-.8s.4-.4.7-.5c.1 0 .1-.1.2 0 .1 0 .1.1.2.2-.1.1 0 .2.1.3zm-.8 63.6c.1-.1.6.3.9.5v.4c-.6.3-1.2.6-1.8.8-.1 0-.3-.3-.5-.5.5-.4.9-.9 1.4-1.2zm.7-30.1c-.2-.3-.5-.7-.5-1 0-.2.3-.5.4-.8.2.3.5.6.8 1.1-.2.3-.5.5-.7.7zm.6 42c1.1-.5 1.1-1.1 0-1.9.1-.1.1-.2.2-.4.5 0 1.5 0 1.6.1.1.7.2 1.5 0 2.3-.1.4-.5.8-.9 1.1-.3.2-.6.3-1 .4-.1-.4-.2-.7-.2-1.1 0-.1.2-.4.3-.5zM423.7 448c0 .2-.2.4-.4.6h-.3c-.1-.3-.2-.5-.2-.8.1-.8-.2-1.4-.9-1.8-.6-.3-.5-.7-.1-1.2.4-.4.7-.8 1.1-1.1.2-.1.5-.1.8-.2 0 .2-.1.5-.1.7-.1.3-.2.6-.1.9 0 1.1.2 2 .2 2.9zm-3.4 74.8c-1-1.1-1.8-.4-2.7.2-.6.4-1.3.7-1.9.6-.5-.1-1.1-.8-1.2-1.4-.2-.9.5-1.5 1.3-2l.3.6c.3 1.2.7 1.4 1.7.7.9-.6 1.7-1.2 2.5-1.8.3 1 .6 1.8.8 2.7 0 .1 0 .4-.1.4-.2 0-.6.1-.7 0zm.5 5.2c-.5.5-1.1.9-1.6 1.4.1-.2.1-.4.2-.5.5-.3.9-.6 1.4-.9zm-8.4-18.3c-.2-.1-.7.2-.9.5-.6.7-1.2 1.4-1.8 2-.2.2-.5.2-.8.2 0-.2-.1-.6.1-.7 1.1-1.6 2.3-3.2 3.4-4.8.3-.4.5-.9.9-1.3.2-.2.5-.4.8-.4.1 0 .3.4.5.6-.2.4-.4.8-.5 1.2-.5 1.1-.4 1.8.6 2.5.2.2.5.3.6.5.1.3 0 .7 0 1.1l-.9-.3c-.7-.4-1.3-.9-2-1.1zm1.2 6.9c-.2.1-.6.1-.8 0-1.1-.4-1.4-.3-1.5.9 0 .2 0 .5-.1.6-.3.4-.7.8-1.1 1.1-.2-.4-.4-.8-.5-1.2-.1-.3-.1-.7-.1-1.1 0-.9 1.7-3.2 2.6-3.5.2-.1.7.2.8.4.3.6.6 1.2.8 1.9 0 .4 0 .8-.1.9zm-8.4-9.4c0 .3-.3.5-.4.7-.3-.2-.7-.3-.8-.5-.2-.6-.3-1.2-.4-1.8-.2-.9-.6-1.4-1.7-1.2-.9.2-1.2-.3-1-1.2 0-.1 0-.2.1-.3.4-.5.7-.9 1.1-1.3.3.4.8.8.9 1.3.3 1 .7 1.7 1.8 1.7.3 0 .6.2 1 .3-.2.1-.4.3-.6.4v1.9zm-7.2-13.6c-.7-.3-1.4-.5-2-.7-.6-.2-1.1-.5-1.6-.8-.2-.1-.3-.4-.3-.6 0-.1.3-.3.4-.3 1.2.4 2.3.8 3.4 1.3.2.1.3.5.4.9.1 0-.2.1-.3.2zm.3 2.3c-.6.5-.8.7-1 .9-.2-.2-.5-.5-.5-.7 0-.2.3-.5.5-.5.3-.1.6.2 1 .3zm-10.5-29.1c-.3-.1-.4-.5-.3-.7.6 0 1.3.2 1.8.6.1.1.2.3.1.4-.1.1-.1.1-.2.1-.5 0-1-.2-1.4-.5v.1zm-153.3 3.5c-.3-.4-.4-1-.5-1.5-.3-1.2-.6-1.5-1.9-1.5-1.7 0-3.3.4-4.8 1.2l-.9.3c-.1-.1-.1-.3-.2-.4 1.1-.8 1.9-2.1 3.4-2.2.5 0 1 .1 1.5 0 .3 0 .7-.1.9-.3 1.7-1.5 3.4-3.1 5.1-4.7 1-.9 2-1.7 3.1-2.6.1-.1.2-.1.2-.2.7-1.5 1.9-2.2 3.3-2.9.5-.2.9-.8 1.3-1.3.5-.6 1.1-1.3 2.2-1.4-.1.4-.2.7-.3.8-1.6 1.6-3.2 3.3-5.1 4.6-.6.4-.9 1-1.5 1.3-1.3.9-2.1 2.2-3.2 3.3-.4.4-.9.8-1.4.9-1 .3-1.4 1.1-1.7 1.9-.2.4 0 1.3.2 1.4.5.3 1.2.3 1.8.1.4-.1.8-.6 1.2-1 .2-.2.5-.3.8-.5l.3.3c-.6.8-1.1 1.7-1.8 2.4-1.1 1.1-1.1 1.6.2 2.4.9.6 1.7 1.5 2.4 2.3.4.5 0 1.2-.7 1-.5-.1-1-.4-1.3-.7-1-.8-1.8-1.9-2.6-3zm2.1 7.8c-.2.2-.5.3-.7.2h-.3c-.1-.4.2-1 .6-1 .2 0 .3.1.4.2.1.1.1.4 0 .6zm-42.8-18.6c0-.3-.2-.6-.1-.8.1-.4.3-.7.5-1.1.3.3.7.5.8.9.2.8.3 1.6.4 2.4h-.1c-.1 2-.2 4.1-.4 6.1-.1 1.1-.6 2.1-1 3.1-.1.1-.3.3-.4.3-.1 0-.4-.3-.4-.4 0-.6 0-1.2.1-1.8.2-1.4.6-2.7.7-4.1.1-1.5-.1-3-.1-4.6zm.7-10c.2-.4.6-.8.9-1.1.1 0 .5.4 1.1.9-.5.5-.8.9-1.2 1-.2 0-.9-.7-.8-.8zm1.3 24.2.6 1.5v.2c-.7-.3-1.1-1.1-1-1.9l.4.2zm.4 4.2c.1-.1.4.1.5.2.5.5 1 1.1 1.5 1.7v.3c-.5-.1-1-.1-1.4-.3-.4-.3-.7-.8-1-1.3 0-.1.2-.5.4-.6zm.8 11.2c.4.1.7.6 1 .9-.1.1-.1.2-.2.3-.4 0-.7.1-1.1 0-.3-.1-.5-.4-.7-.6.4-.2.8-.7 1-.6zm1-4.6c-.3-.4-.4-.8-.5-1.3l.3.1c.4.3.8.6 1.1.9.2.1.4.3.3.6-.4.3-.9.1-1.2-.3zm.9-14.3c.7-1 .3-1.8-.4-2.6-.1-.1-.1-.6 0-.8.5-.9 1.1-1.8 1.7-2.6.3-.4.7-.7 1.2-.9.6-.3 1-.8 1.4-1.4.4-.6 1.4-.9 2.1-1.1 1.3-.3 1.7-.9 1-2.1-.4-.7-.6-1.3.4-1.7.2-.1.3-.6.5-.9.3-.5.6-1 .9-1.4.3.2.7.4.9.7.4.7.3 1.3-.5 1.7-.4.2-.7.6-.9.9-.2.3-.3.9-.1 1.1.3.3.7.3 1.1.3.2 0 .3-.3.5-.3.4 0 1.1-.1 1.2.1.2.3.3 1 .1 1.3-.2.4-.8.6-1.2.8-.9.3-1.7.7-2.3 1.5-.5.5-1.3.8-2 1-.6.2-.9.3-1 .9-.1.4-.3.8-.4 1.3-.1.3-.1.8.1 1 .7.7.2 1-.3 1.5-.9.7-1.8 1.6-2.7 2.3-.2.1-.6.3-.7.2-.2-.1-.4-.5-.6-.8zm3.4-20.8c.1.7-.1 1.1-.7 1.2-.6.1-1.3-.3-1.2-.9.2-1.1.6-2.1 1-3.2 0-.1.4-.2.6-.2.1.1.2.4.3.5-.1 0-.2 0-.3.1.1.9.2 1.7.3 2.5zm.6 3.1c.9-.5 1.5-1.2 1.6-2.4.2-1.7.6-3.5.9-5.2.1-.3.5-.4.8-.6.2.3.5.6.4.9-.3 1-.7 2-1 3-.2.6-.4 1.1-.5 1.7-.1.7 0 1.4-.2 2.1-.2.9-.8 1.5-2 1.6-.2-.1-.4-.3-.7-.5.3-.2.5-.5.7-.6zm-1.3 6.4c.1.1.2.3.3.4-.3.6-.6 1.2-1.4 1.1l-.3-.3c.5-.5.9-.8 1.4-1.2zm16.2-16.2.9-1.5c.2-.3.4-.6.4-1 0-1.4.5-2.4 1.6-3.2.7-.5 1.2-1.2 1.7-1.9s1-1.3 2-1.1c.8.2 1.1.7.6 1.4-.3.3-.7.5-1 .9-.2.3-.2.8-.3 1.1.4.1.8.3 1.1.2 1.2-.4 2.3-.9 3.7-1.5-.3.5-.4.8-.6 1.1-.3.5-.7.9-1 1.4-.6.9-1.4 1-2.2.2-.2-.2-.6-.5-.7-.4-.3.2-.5.5-.7.8-.1.3 0 .7 0 1-.1 1-.5 1.6-1.4 2.1-.4.2-.7.7-1.1 1.1l-2.1 2.4c-.6.7-1.5 1.3-1.7 2-.4 1.5-1.6 2-2.7 2.7-.3.2-.7.3-1 .5-.6.3-1 .7-.9 1.4 0 .7-.2.9-1 .9-.4 0-.8.3-1.3.5-.2.1-.5.2-.7.4-.1-.3-.3-.6-.2-.9.1-.4.3-.7.5-1 .5-.9.9-1.8 1.4-2.6.4-.5.9-1.1 1.4-1.3 2.9-.9 4.1-3.3 5.3-5.7zm-1.5-6.1c.5-.4 1.2-.6 1.7-.8.1.2.2.3.3.5-.4.4-.7 1-1.2 1.3-.2.2-.6 0-.9.1.1-.4-.1-1 .1-1.1zm14.7-5.8c.3.1.5.1.7.2.5.3 1 .2 1.3-.3.1-.2.4-.5.6-.5 1.1-.2 1.7-.8 2.3-1.7.3-.6 1.2-.9 1.8-1.3.1-.1.6 0 .6.1.1.2.2.7 0 .8-1.2.9-1.3 2.3-1.7 3.6-.2.8-1 1.1-2 .7-.8-.4-1.4-.6-1.8.6-.2.6-.9.6-1.3.2-.5-.5-1-.7-1.7-.6-.3 0-.5-.2-.8-.4.2-.2.3-.5.5-.6.6-.5 1.1-.6 1.5-.8zm-.3-3.1c.5-.4 1-.9 1.5-1.3.1-.1.7.4.8.8.2.6-.3 1-.9 1h-.4c0 .1-.1.1-.1.2-.3-.3-.6-.5-.9-.7zm20.1-17.4c0 .3.2.8 0 1-.9 1-1.8 2-2.8 2.8-.5.4-1.2.5-1.8.7-1.1 0-1.4-.7-1.8-1.4-.1-.2 0-.6.2-.7.2-.1.6-.2.8-.1.2.1.4.4.7.4.4.1.8.2 1.1 0 .7-.4 1.3-.9 1.9-1.4.3-.3.5-.8.8-1 .2-.1.6-.2.9-.3zm-.1-2c0-.3.2-.6.3-.9h.3c.1.3.4.5.4.8 0 .3-.3.5-.4.8-.3-.3-.6-.5-.6-.7zm-2.2 11.7c-.1.2-.1.5-.2.6-.6.5-1.3 1-2.1 1.7-.4-.5-.9-.8-.9-1.2 0-.2.5-.7.8-.8.6-.2 1.2-.4 1.8-.5.1 0 .4.1.6.2zm-3.1 3.8c.8-.4 1.6-.6 2.5-.9.9-.3 1.8-.3 2.6-.7 1.3-.5 2.5-1.2 3.6-1.9.3-.2.4-1.2.2-1.5-.4-.6-1-.3-1.5.1-.4.3-.8.7-1.3.9-.3.1-.7-.2-1-.4-.1-.1-.1-.5 0-.6.2-.2.6-.3.9-.3.4-.1.9 0 1.1-.2.3-.4.5-1-.3-1.2-.3-.1-.6-.6-.6-.9 0-.7.3-1.5.5-2.2 1 .2 1.6 1.4 1.4 3.1.4 0 .8.1 1.2.1.7-.1 1.4-.2 2.1.4.1.1.7 0 .9-.2.7-.5 1-.4 1.3.4.2.4.3.9.5 1.3.4.6.7 1.1.1 1.6-.6.6-1.3 1.1-2.3.6-.7-.3-1.4-.5-2.2-.6-.3 0-.7.4-.9.7-.5.6-.8 1.4-1.4 2-.3.3-.8.4-1.2.6-.5.2-1.1.3-1.6.6-.6.3-1.1.9-.6 1.7.5.8 1.5.9 2.2.3.5-.3.9-.8 1.4-1 1.7-.7 3.3-1.6 5.3-1.7 1.3-.1 2.9-.3 4.1-.8 1.5-.7 2.6-.7 4.1 0 1.1.5 2.6.5 3.9-.2.3-.2.9-.1 1.1.2.3.3.3.9.5 1.4-.4.1-.7.3-1.1.3-1.2-.1-2 .6-2.8 1.2-.3.2-.6.5-.9.6-1.3.6-1.7.3-2.1-1.1 0-.1-.2-.2-.2-.3h-.2v2c0 .4 0 .8-.2 1.1-.3.3-.7.4-1.1.6 0-.4-.1-.7 0-1.1.1-.7.4-1.4.5-2.1 0-.2-.1-.6-.2-.7-.2-.1-.7 0-.8.2-.6 1.1-1.3.8-2.1.3-1-.7-1.6-.4-2.6.7-.6.6-1.2 1.3-1.9 1.7-.6.3-1.4.3-2.1.5-.2 0-.4-.1-.5 0-1 .9-2.4.4-3.5.6-.6.1-1.3-.1-1.9-.2l-2.7-.6c-.4-.1-.8-.2-1.1-.4-1-.7-2-1.2-3.3-1.1-.4 0-1.1-.3-1.1-.5 0-.6.2-1.3.5-1.9.1-.2.8-.2 1.2-.1.4.2.7.6 1 .9.5.5.9.5 1.4-.1.1-.6.7-1 1.2-1.2zm12.7-24.5c-.2-.3-.5-.6-.7-.9-.1-.3 0-.6 0-.9h2.1c.2 0 .6.2.6.3.1.3 0 .7-.2.8-.6.2-1.1.4-1.8.7zm.7 8.4c-.1.2-.2.3-.5.4-.1 0-.3 0-.3-.1-.1-.1-.1-.2 0-.3.1-.1.2-.1.3 0h.5zm-.9 5.6c-.4.4-.8.7-1.2 1.1 0 0-.5-.4-.4-.5.2-.5.5-.9.9-1.5.3.5.5.7.7.9zm-.9-18.2c-.2-.2-.4-.4-.6-.7-.1-.1.2-.3.4-.7.3.4.5.7.6 1 0 0-.3.2-.4.4zm-.5 5.2v.3c-.5.7-1.1 1.4-1.6 2.1-.1.1-.5 0-.7-.1-.8-.4-.6-1.2-.6-1.9 0-.6.5-.6.9-.8.4-.3.6-1 .9-1.7.2.6.7 1.4 1.1 2.1zm-1.4 3.8c.2 0 .5.2.9.4-.4.3-.6.5-.7.6-.4.3-.8.6-1 1.1-.3.5-.7.8-1.2.5-.1-.1 0-.6.1-1 .1-1.1.7-1.7 1.9-1.6zm1 6c-.3.6-.3 1-.6 1.1-.4.2-.9.3-1.4.4-.1 0-.3-.4-.3-.4.3-.3.6-.6 1-.8.3-.1.7-.1 1.3-.3zm6.8-.4c.4.8.4 1.8.5 2.5-.1 1.2-.2 2.2-.3 3.2 0 .2-.3.6-.6.6-.2 0-.7-.2-.7-.4-.1-.8-.2-1.7 0-2.3.4-.9.4-1.6-.2-2.4-.1-.1-.3-.3-.3-.4v-1.4c.7.2 1.5.3 1.6.6zm-.2-3.9c0-.1.1-.2.1-.2.2-.2.4-.4.6-.5l.2.1c.1.3.1.6 0 .9 0 0 0 .1-.1.1h-.1c-.2 0-.3 0-.5-.1-.1.1-.3-.1-.2-.3zm-1.2-2.6c-.2-.3-.4-.5-.5-.8 0-.2.1-.4.2-.6h.3c.1.3.3.6.4.9 0 .1-.3.3-.4.5zm2.3-8.3c0-.3.2-.5.3-.8.3.2.7.3.9.5.2.3.1.8.1 1.2.2 1.1.5 2.2.8 3.3v.6c-.2 0-.4 0-.5-.1-.5-.6-1-1.2-1.3-1.8-.2-.5-.2-1-.3-1.6h.1c-.1-.5-.2-.9-.1-1.3zm4 7.7c0-.3.2-.7.4-.8.2-.1.6.2.9.3.4.2.7.5 1 .8 1 1.2 2.2.8 3.3.3.3-.1.4-.6.6-.9-.3-.2-.7-.4-1-.5-.1 0-.3 0-.4.1-1.3.3-1.6.1-1.8-1.4 1.2.1 2.4.2 3.6.2.3 0 .5.1.8.1.2 0 .4-.2.4-.3 0-.1-.1-.4-.3-.5-.8-.5-1.6-1-2.5-1.5.8-.3 1.6-.4 2.3.1.6.3 1 .5 1.5-.2.1-.2.5-.2.8-.2.3-.1.6-.1.9-.1v-.3c-.2-.1-.3-.3-.5-.2-.9.2-1.2-.4-1.6-1-.1-.2-.1-.7 0-.8.2-.2.6-.3.9-.2.3.1.5.6.8.7.4.2.9.5 1.4.5.3 0 .8-.2.8-.4.1-.3-.1-.7-.3-1-.9-1.1-.9-1.2.2-2.2 1-.9 1.9-1.9 2.8-2.9.2-.2.4-.3.6-.4.1.2.2.3.2.5.1.6 0 1.5.8 1.4.7-.1 1.6-.7 1.7-1.3.2-.8.1-1.8-.2-2.6-.2-.7-.4-1.3 0-1.9.5-.8.5-1.4-.1-2.2-.7-.9-.5-1.2.4-1.9.5-.3.9-.7 1.3-1.1.1.1.2.1.3.2-.1.5-.3 1-.4 1.4.1.4.3.9.5 1.3.1.2.2.5.3.6 1.2.5 1.3 1.7 1.9 2.7.1.2.1.5.1.8-.3.9-.6 1.7-.9 2.6-.1.2 0 .7.1.8.4.2 1 .4 1.3.2 1.3-.7 2.1-1.8 2.5-3.2.3-1.4.6-2.6 2.3-2.9.4-.1.8-.7 1.1-1.1.9-1.3 1.7-2.6 2.6-3.8.6-.9 1.2-1.9 1.8-2.8.2-.3.3-.8.6-1.1.3-.2.8-.4 1.1-.3.3.2.6.7.7 1.1.1.2-.1.4-.2.7-.2 1.9-.2 1.9-2 2.2-.7.1-1.1.4-.7 1.2.3.7.4 1.3-.8 1.5-.6.1-1.2.9-1.6 1.5-.4.5-.6 1.1-.8 1.6-.2.6-.4 1.1-.4 1.7 0 .9-.2 1.4-1.2 1.4-1.4 0-2.4.8-3.3 1.7-.2.2-.1.8 0 1.1.5.8.2 1.1-.6 1.3-.8.3-1.5.7-2.3 1-.4.1-.7.2-1.1.3-.6.2-1.2.2-1.7.5-.6.4-.8.9-.1 1.5.7.5.5 1 0 1.5-1 .9-2.1 1.6-2.4 3-.1.3-.5.4-.7.7-.8.7-1.7 1.4-2.5 2.2-.5.4-.8.9-1.5.7-.1-.1-.4 0-.5.2-.7.8-1.4 1.5-2 2.4-.6.8-1.1 1.4-2.1 1.7-.9.2-1.4.8-1.3 1.9.1.6-.2.8-.8.8-1.3.1-1.7.7-1.7 2.1 0 .3-.2.7-.3 1-.2-.2-.6-.3-.7-.6-.4-.7-.9-.9-1.7-.4-.2.2-.5.2-.8.3-.1-.1-.2-.2-.2-.3.3-.4.5-.8.9-1.1.7-.6 1.3-1.2 1.4-2.2 0-.3.5-.6.8-.7.5-.3 1.1-.6 1.6-.9.4-.3.8-.8 1.2-1.1.6-.5.6-1 .3-1.6-.3-.7-.9-.5-1.4-.3-.4.1-.7.5-1 .6-.3.2-.8.4-1.1.3-1-.3-1.5 0-1.7 1 0 .2-.2.3-.3.7-.3-.3-.4-.6-.6-.8-.4-.5-.7-1-1.1-1.6-.2-.4-.5-.7-.6-1.1-.2-.7 0-1.2.9-1.1.6 0 1-.4 1.1-1.2zm-.6-12c0-.4.2-.8.5-.9.3-.2.8 0 .8.4s-.5.5-.9.5h-.4zm4.2-4c.2-.1.7.4.9.7.2.3.2.7.2 1.1 0 .5-.2 1.1-.1 1.5.2.7.8 1 1.5.9.3-.1.6-.1.9-.1.2.1.5.3.5.5s-.1.5-.3.7c-.7.5-1.4.7-2.1 0-.2-.2-.5-.5-.8-.5-.8-.1-1.1-.5-1-1.2 0-1.5-.5-1.9-1.9-1.6-.2 0-.4-.1-.6-.2.1-.2.1-.6.3-.7.9-.5 1.7-.9 2.5-1.1zm-2.3-2c.9-.2 1.5-.3 2.1-.4.1 0 .4.1.5.3.1.2 0 .7 0 .7-.6.1-1.2.1-1.7.1-.3 0-.5-.3-.9-.7zm5.7.1c.3.5.6.8.5 1-.1.3-.5.6-.8.7-.1 0-.6-.5-.6-.6.1-.4.5-.6.9-1.1zm-.2-2.3c.3-.3.6-.6 1-.8.1-.1.5.3.9.7-.6.3-.9.6-1.3.6-.1.1-.4-.3-.6-.5zm-2.3 12.6c0 .2-.2.4-.4.5l-.2.1c-.2-.1-.4-.2-.7-.4-.1 0-.1-.1-.1-.1-.1-.2.1-.3.3-.4.2-.1.5-.2.7-.2.2.1.4.3.4.5zm8.6-8.5c.3.2.5.8.4 1.1-.1.5-1.4.5-2.3.1.5-1 1.5-1.6 1.9-1.2zm.2-6.8c.2 0 .3.1.5 0l.6-.2c.2 0 .3.3.2.5-.1.2-.3.2-.5.2-.3 0-.6 0-.9-.1-.1 0-.1-.1-.2-.1-.1-.2.1-.3.3-.3zm2.1 4.1h.4c.1 0 .2.1.3.3 0 .1-.2.2-.3.2s-.3-.1-.4-.1c-.1 0-.1-.1-.1-.1-.2-.2 0-.3.1-.3zm1.4-7.3c.1-.2.4-.5.6-.6.2 0 .6.3.6.5-.1.3-.3.5-.6.8-.3-.3-.6-.5-.6-.7zm7.7 7.2c0-.2.4-.6.6-.6.3 0 .5.3 1 .6-.4.3-.7.7-.9.6-.3 0-.6-.3-.7-.6zm1.1-19.7c-.7-.3-1.4-.8-2.2-1.1-.9-.3-1.9-.3-2.8-.5-.5-.1-.9-.5-1.3-.8.4-.4.7-.8 1.1-1 .2-.2.7-.1 1-.1 1.3.2 1.5.1 1.4-1.3v-.5c-.1-1.8.5-3.3 2-4.3 1-.7 2-1.3 3.1-1.9.9-.5 2-.2 2.5.8.1.3.2.8.1.9-.3.3-.7.6-1.1.6-.6 0-1.2-.2-1.8-.2-1.2-.1-2.1.3-2.7 1.4-1.4 2.7-.5 5 1.3 6.8l.2.2c2.2.5 4.4 1.7 6.8.8.6-.3 1.1-.9 1.7-1.4.5-.4 1.1-1.3 1.7-.7.6.7-.3 1.4-.7 1.6-1.4.6-2.5 1.6-4.1 1.8-2.3.1-4.3-.3-6.2-1.1zm.2 2.9c-.5.3-.8.6-1 .5-.3-.2-.6-.5-.8-.8.2-.2.5-.6.7-.6.3.2.6.5 1.1.9zm-18.9-1.2c.3-.3.7-.5.9-.3.1.1.1.2.2.3.1.4-.3.8-.6.8s-.6-.6-.3-.9l-.2.1zm-.8-2.3c-.4-.1-1 .6-1.4.9-.7.6-1.1.6-1.5-.2l-.3-.6c-.8-1.2-.7-1.2.3-2.1.3-.3.4-.9.3-1.2-.3-1.4.1-2.4.8-3.7.8-1.4 1.4-3.2 1.7-4.9.1-.6.5-1.1.7-1.7.2-.5.5-1.1.7-1.6.1-.2.2-.5.4-.7 0-.1.4 0 .4.1.1.3.2.7.1.8-.8 1.1-.4 2.4-.6 3.5 0 .2 0 .5.1.7.8 1.6 1.1 3.3.5 5.1v.1c.3 1.8 2.1 1.9 3.1 2.8.6.5 1.3.2 1.8-.3s1.1-.7 1.7-.1c.6.7.1 1.2-.4 1.7-.6.5-1.3.8-1.9 1.3-.5.4-.9.8-1.4 1.3-1.2-2.2-3.4-.8-5.1-1.2zm-14.6-9v1.3c-.6-.1-1.2-.1-1.8-.2 0-.5 0-.9.2-1.4.1-.3.4-.6.6-.9.9-1.3 1.3-1.4 2.7-.7.2.1.4.2.6.2 1.5 0 2 1.2 2.7 2.2.3.4 0 1.1 0 1.6h-.4c-.2-.3-.4-.5-.6-.8-.3-.4-.7-.7-1.3-.4-.7.4-.9.1-1-.6-.1-.5-.1-1-.4-1.4-.2-.3-.7-.3-1-.4-.1.4-.2.7-.3 1.1-.1.2 0 .3 0 .4zm.1 4.1c-.3.6-.7 1.1-1.1 1.7-.2-.1-.3-.2-.5-.3-.1-.2-.3-.6-.2-.6.4-.4.9-.8 1.3-1.2.1-.1.5.3.5.4zm-.3-18.3c1.5-.5 2.7.1 3.8.9.2.1.1.8 0 .9-.6.5-1.3.8-2.1 1.3-.2-2.2-.9-2.6-2.5-1.6-.4.2-.8.6-1.3.8-.5.3-.9.2-1.1-.4-.2-.9.6-1.8 1.5-1.7.6 0 1.2 0 1.7-.2zm-1.4-2.3c.2-.2.4-.5.6-.5.2 0 .4.2.8.4-.4.3-.6.6-.8.6-.3 0-.4-.3-.6-.5zm2.8-2.9c.1-.2.3-.3.5-.5.7-.5 1.4-1.1 2.2-1.6.3-.2.6-.2 1-.3-.1.3 0 .8-.2 1-.7.8-1.4 1.5-2.2 2.2-.2.2-.5.2-.9.3-.2-.1-.5-.2-.6-.4 0-.2.1-.5.2-.7zm2.5 13.3-.5.5c-1 0-1.8-.5-1.7-1.2 0-.3.4-.5.6-.7.6.4 1.1.9 1.6 1.4zm-3-3.8c-.2.8-.3 1.7-.5 2.5-.1.2-.5.4-.7.5-.2-.3-.5-.7-.5-.9.3-.8.8-1.5 1.3-2.3.1.1.2.2.4.2zm4-4.7c-.1-.3 0-.8.3-1.1.5-.7 1.8-.7 2.4-.1.5.5.9.8 1.6.6.2-.1.5.1.8.2-.1.4-.2.8-.4 1-.2.2-.7.1-1.1.2v-.1c-.8 0-1.7.1-2.5 0-.4-.1-.9-.4-1.1-.7zm4-5.3c-.3-.3-.6-.5-1-.6-.2-.1-.7 0-.8-.2-.1-.3-.2-.8 0-1 .1-.2.7-.2 1-.1.5.2.9.6 1.3 1 .9.9.7 2.6-.3 3.2-.2.1-.7.2-.8.1-.7-.5-1.2-1.1-1.3-2.2.3.3.5.4.6.5.4.1.8.1 1.1 0 .1-.1.2-.7.2-.7zm-3.2 9.8c.3-1 .5-2.2 1.9-2.1.3 0 .7.3 1.2.6-.5.4-.7.7-.9.7-.8 0-1.2.3-1.4 1.1-.1.3-.6.4-.8.6 0-.2-.1-.6 0-.9zm1.8 2c.8-.2 1.9.9 1.7 1.8-.7-.3-1.3-.6-1.9-1-.1-.1-.2-.4-.2-.5 0-.1.2-.3.4-.3zm.6 7.5c.3-.5.8-1 .9-1.6.1-.9.5-.8 1.1-.5.7.4 1.5 2 1 2.6-.3.5-1.1.8-1.7.8-.6 0-1.2-.4-1.9-.8.3-.3.5-.4.6-.5zm6.7-22.5c-.8 1-1.4 1.8-2.1 2.4-.4.3-1.9-.6-2.1-1.3-.1-.4.1-.9.3-1.3.2-.3.6-.5.9-.5.6 0 1.2 0 1.8.1.3.1.6.3 1.2.6zm-1-6c0-.2.2-.4.5-.9.3.5.6.7.6 1 0 .2-.4.4-.6.5-.2-.2-.5-.4-.5-.6zm-.5 18.2.6.9c-.3.1-.6.4-.8.3-.4-.2-.8-.5-1.1-.8-.2-.2-.1-.7-.1-1-.1-.1-.2-.1-.2-.2.6-1 1.1-2 1.7-2.9.1-.1.5-.2.6-.1.1.1.3.4.2.6-.2.5-.5 1.1-.8 1.5-.7.6-.6 1.1-.1 1.7zm-.5 7.4c-1.1-.4-1.4-1.2-1.5-1.9-.1-.3.5-.7.8-1.3.2 1.3.4 2.2.7 3.2zm1.3-12.5c-.2.3-.7.5-1.3 1-.3-.6-.8-1.1-.7-1.4.1-.8.4-1.5.7-2.2.1-.2.5-.3.7-.4.1.2.3.5.3.7.1.4.2.8.3 1.3 0 .3.1.7 0 1zm2.6-4.7 1.1-1.1c.1.2.4.4.4.4-.2.5-.5 1-.7 1.6-.3-.2-.4-.4-.8-.9zm2.1-3.3c0 .1 0 .1 0 0 .1.2.2.3.2.4 0 .2-.1.3-.2.3s-.3-.1-.4-.1c-.1-.1 0-.3.1-.4 0 0 .2-.1.3-.2 0 .1 0 0 0 0zm.1-1.9c-.1.2-.4.3-.6.1-.1-.1-.1-.2-.1-.3 0-.2 0-.4.1-.6h.3c.1 0 .3 0 .4.1 0 .3 0 .5-.1.7zm-.6-41.4c-.9-.1-1.7 0-2.5.3-1.3.4-2.7.6-4.1.8-.8.1-1.1-.7-.5-1.3 1.7-1.5 3.6-3 5.4-4.5.2-.2.5-.2.8-.2 1.6-.1 3.2-.1 4.8-.2 1.5-.1 2.9-.3 4.4-.4 3.8-.3 7.6-.9 11.4-.8 2.4.1 4.9-.3 7.1 1 2.1 1.2 4.3 2.3 6 3.8.9.8 1.8 1.5 2.8 2.2-.2.2-.5.4-.7.4-.4.1-1 .3-1.3.1-.6-.4-1.1-.3-1.6.1-.9.6-1.9 1.3-2.9 1.7-.9.4-1.8.2-2.8-.3-1.4-.7-3-1.2-4.5-1.8-1.5-.5-3.1-1-4.6-1.4-.6-.1-1.2 0-1.8 0-2.1-.1-4.2-.2-6.4-.2-1.5 0-3.1.3-4.6.4-1.4.3-2.9.5-4.4.3zm3.8 3.5c-.2.4-.3.8-.5 1.1-.5.7-1 1.4-1.6 2-.5.6-1 1.1-2.1.8.7-1.1 1.3-2.2 2-3.1.2-.3.6-.6 1-.7.3-.2.8-.1 1.2-.1zm-6.5 2c-.6-.2-1-.2-1.4.3-.3.3-.6.7-1 1-.4.3-1 .6-1.4.9-.1-.1-.2-.3-.3-.4.4-1.1 1.5-1.7 2.4-2.2.8-.5 1.9-.6 2.8-.7.2 0 .5.2.8.3-.1.3-.2.7-.4.7-.5.1-1 .3-1.5.1zm.8 4.9c-.3.3-.5.6-.8.7-.1 0-.5-.4-.5-.5.1-.3.4-.5.6-.8.2.2.4.4.7.6zm-4.3-25.6.2-.3c.3-.1.6.1.7.4.1.3.1.6.1.9 0 .1 0 .3-.1.4-.1.1-.2.2-.4.1-.1 0-.1-.1-.2-.2-.2-.4-.3-.9-.3-1.3zm4.7-2.7c.2.7.2 1.4.4 2.1l.6 2.1c.3.7.1 1.3-.5 1.7-.2.1-.6.1-.8 0-.2-.1-.3-.5-.2-.7.5-1.3-.2-2.3-.5-3.5-.2-.7-.3-1.5-.5-2.2-.1-.6-.3-1.2-.4-1.9-.1-.9-.2-1.9-.4-2.8-.2-1.1-.5-2.1-.7-3.2v-.8c.3.1.5.1.8.3.2.1.3.3.3.5.5 1.7 1 3.3 1.4 5-.1 0-.3.1-.4.1.4 1.2.6 2.2.9 3.3zm4.1 9.8c0-.9 1.1-1.9 2-2 .8-.1 1.6-.1 2.4-.1.2 0 .5.2.6.4.1.1-.1.4-.2.6-.7 1-1.2 1.1-2.3.6-.8-.4-1.2 0-1.5.7-.1.2-.5.4-.7.6-.1-.4-.2-.7-.3-.8zm7-3.7c-.3.2-.7 0-1.1-.1.2-.3.3-.7.5-.9 1-1 2.3-1.4 3.6-1.5h.9c-1.4.9-2.6 1.8-3.9 2.5zm2.9.8c-.5.4-.8.7-1.1.8-.2 0-.6-.5-.6-.7.1-.3.4-.7.7-.8.2 0 .6.4 1 .7zm3.9-.5c.4-.3.7-.7 1.1-1 .1.2.3.3.4.5-.3.3-.7.7-1 .9-.1.1-.3-.2-.5-.4zm6.4.5c.6-.5 1-.9 1.3-1.2.4.5.9 1 1.1 1.6.1.2-.5.7-.8 1.1-.4-.5-.9-.9-1.6-1.5zm15.4 13c1.7 1.3 3.3 2.5 4.8 4 3.6 3.8 8.1 6.6 11.8 10.3.6.6 1 1.3 1.5 2 .3.4.7.7 1 1 .9 1 1.8 2.1 2.5 2.9-.6-.5-1.6-.9-2.2-1.7-1.7-2-3.6-3.7-5.8-5.1-.2-.1-.5-.3-.6-.6-.5-1.6-1.8-2.3-3-3.2-.4-.3-1.2-.2-1.8-.2-.3 0-.6.1-1.1.2.6-1.8.6-1.8-.8-2.7-.9-.6-1.8-1.2-2-2.4 0-.2-.2-.4-.3-.5-1.3-.4-2.4-1.4-3.8-1.3-.2 0-.7-.4-.7-.5.4-1.2-.4-1.9-1.1-2.5-.3-.3-.6-.6-.8-.9.8.4 1.7.7 2.4 1.2zm-1.3-40.7v-2c.8.6.6 1.3.4 1.9-.1 0-.3.1-.4.1zm2.4 10.3c0 .1-.1.1-.2.1-.4.1-.8-.4-.7-.8l-.2-.1c.2-.2.4-.4.7-.4.3 0 .6.2.6.5 0 .2-.2.4-.2.6v.1zm.3 15.1c.2.3.3.7.4 1-.2.1-.3.1-.5.2-.2-.4-.3-.7-.5-1.1.2 0 .6-.2.6-.1zm-1.1-7.2c.2.3.6.6.6.9 0 .5-.2 1-.3 1.7-.9-.4-1.3-1.1-1.2-1.8 0-.3.6-.5.9-.8zm2.5 15.1c0-.1.1-.2.1-.4.1-.2.2-.4.3-.5l.2-.2c.4.5.7 1.1.8 1.7-.3.1-.6.2-.9.1s-.6-.4-.5-.7zm6 2c.8.6.6.9.1 1.6-.8.9-1.1 2-.5 3.2.2.3.2.7.1 1.1-.2 1 .1 1.6 1 2 .3.1.6.6.5.8-.1.3-.5.7-.8.7-.6 0-1.6-.1-1.8-.4-.4-.7-.5-1.7-.3-2.5.3-.9.3-1.6-.2-2.4-.2-.3-.1-.9 0-1.3.3-.8.7-1.5 1-2.4.1-.4.1-.9.1-1.4 0-.8 0-1.7.1-2.5 0-.2.4-.5.7-.6.1 0 .4.3.6.6.2.2.2.6.4.7 2 .5 1.7 2.5 2.3 3.8.4 1 .1 2.3 0 3.4 0 .2-.2.4-.3.7h-.5c-.1-.7-.1-1.4-.2-2.1-.1-.7-.3-1.4-.4-2.1-.1-.4-.2-.7-.3-1.1-.1-.8-.6-.9-1.3-.8-.5.2-.9.6-.3 1zm7.8 9.3c-.1 0-.1 0 0 0-.4-1.1-.7-2.2-1-3.3 0 0 .4-.2.5-.2.4.2 1 .5 1 .7 0 1 .5 1.5 1.2 1.9.4.2.5.7.9 1.3-1.1-.1-1.9-.3-2.6-.4zm2.7 2.5c.4.2.8.5 1.4 1-.5.3-.7.6-.8.5-.4-.3-.8-.6-1.2-1 .2-.1.5-.5.6-.5zm8.6 2.8c-.8-.4-1.8-.5-2.5-.9-.6-.4-.9-1.1-1.3-1.7-.1-.1.5-.6.8-.8.1-.1.3-.3.5-.4.2-.1.6-.2.7-.2.2.2.2.5.3.8 0 .2-.2.4-.2.6 0 .3-.1.8.1 1 .2.2.7.1 1 0 1.1-.5 1.5-.4 1.9.8.5 1.3.6 2.7 1.2 4 1 1.9.6 4 .9 6 .2 1.3.8 2.4 1.3 3.6.5 1.5.4 2.9.1 4.4-.7-1.4-1.5-2.8-1.4-4.4.1-.9-.3-1.6-.9-2.3-.3-.3-.3-.9-.4-1.3-.2-.5-.2-1.1-.5-1.4-.7-.9-.8-1.2-.1-2.1.1-.2.4-.3.4-.5.1-.4.1-.9 0-1.1-.2-.2-.7-.2-1.1-.1-.4.1-.6.5-1 .7-.3.1-.7.3-.9.2-1.2-.5-1.2-.5-2.3.2-.2-.7-.4-1.3-.5-1.9 0-.1.4-.3.6-.5.3-.2.8-.4 1-.8.3-.6.6-.8 1.3-.6.2.1.5.2.7.1.3-.1.7-.3.8-.6 0-.2-.3-.7-.5-.8zm3.7 19c0 .1-.3.4-.6.8-.4-.6-.7-.9-.9-1.3l.5-.4c.4.2.7.5 1 .9zm-6.3-12.9v2.8c-.9-1.1-.9-1.9 0-2.8zm.1 9.8c.2.2.2.8 0 1-.3.3-.8.4-1.2.4-.2 0-.5-.4-.5-.6 0-1.3-.7-2.2-1.3-3.2-.2-.3-.2-.7-.4-1 .1-.1.2-.1.3-.2 1.1 1.3 2.2 2.4 3.1 3.6zm-.2 3.8c.3 0 .6-.3.8-.5.4-.5.9-.8 1.5-.3.1.1-.2.9-.5 1.2-.6.6-1.3 1-1.9 1.5-.5.4-.3 1 .2 1.2.9.4.9 1 .8 1.8 0 .5 0 1 .1 1.4.1.2.4.5.6.5.2 0 .5-.3.5-.5.3-.8.6-1.6.8-2.5.1-.5 0-1.1 0-1.7-.1-1 .1-1.1.9-.8.2.1.5.2.6.1 1.1-.7 1.9.1 2.9.3.3.1.6.5.7.8 0 .2-.4.6-.7.7-1.4.3-2.5 1-3.1 2.4-.7 1.5-1 3-1.3 4.7-.4 2.1.1 4 .6 6 .3 1.1 1.1 2.1 1.7 3.1.3.4.8.7 1.2 1.1.6.6 1.3.8 2.1.3.4-.3 1-.4 1.2.2.2.7-.3 1-.8 1-1.6.1-3.1-.2-4.3-1.5-1.7-1.9-2.4-4.2-3-6.6-.1-.4-.3-.8-.4-1.3-.1-.5-.2-1.1-.1-1.5.2-.8.1-1.3-.4-2-.8-1-1.5-2-2.3-3.1 1.4-.6 1.5-.9.9-2.1-.2-.4-.4-.7-.6-1.1-.5-.9-.8-1-1.6-.4-.5.4-.8.3-1.1-.2-1.2-1.5-2.5-3-3.8-4.5-1.6-1.6-1.3-3.2.9-4 .4-.1.8-.4 1.1-.7.6-.5 1-.4 1.3.2.1.2.1.5.1.8 0 .1-.4.1-.6.1-.7 0-2 .8-2.2 1.5-.3.9 1 2.5 1.9 2.5.4 0 .9.1 1.3.2-.2.6-.4.9-.5 1.3.3-.1.7-.1 1.2-.2.8 1.2 2.1.4 3.3.6zm15.5 21.4c.2-.2.4-.3.7-.5.1.3.3.5.4.9-.3.5-.5 1-.8 1.5-.1.2-.5.2-.8.3-.1-.3-.3-.7-.2-.9.2-.5.4-.9.7-1.3zm-.3-3.6c.1-.4.2-.7.4-1 .1-.1.1-.2.2-.2v.4c.2.2.2.5.2.7 0 .1 0 .1-.1.1 0 0-.1.1-.2.1h-.6c.1 0 .1 0 .1-.1zm2.1-15.6c.1-.1.2-.2.3-.2v.1c.1-.1.3 0 .4.2.1.2 0 .3 0 .5 0 .1-.1.2-.1.3v.1l-.1.1c-.2 0-.4-.2-.5-.4s-.1-.5 0-.7zm-.1-2.7c0-.1 0-.2.1-.3.1-.1.2-.2.3-.1l.3.2c.1 0 .2.2.1.3 0 .1-.2.2-.2.3v.3c-.1.1-.2.1-.3.1l-.3-.3v-.5zm5 8h.5s.1 0 .1.1v.2c0 .1-.1.1-.2.1-.3.1-.7.2-1 .1-.1 0-.2 0-.3-.1s-.1-.2 0-.3c.1-.1.2-.1.3-.1.2 0 .5 0 .7.1l-.1-.1zm-5.3 129c.2 1-.4 1.6-1.5 1.5.1-.3.2-.6.1-.9-.1-.3-.4-.5-.6-.7-.2.3-.5.6-.4.8.3.8 0 1.2-.8 1.3-.3 0-.5.3-.7.5-1.9 2.2-4.7 3.1-7.1 4.6-1 .6-2 1.3-3.1 1.7-1.4.6-2.9.9-4.4 1.5-.7.3-1.5.7-2.1 1.2-2.2 1.6-4.9 2-7.3 3.1-1.9.9-3.9 1.3-5.9 2-.2.1-.4.2-.5.3-1.2.5-2.4 1.1-3.8 1.3-1.4.2-2.8 1-4.2 1.3-1.4.4-2.7 1.4-4.3 1.2-.2 0-.3 0-.5.1-1.2.4-2.5.8-3.7 1.1l-5.4 1.2c-2.2.5-4.3 1-6.5 1.5-.3.1-.5.2-.8.2-2.6.4-5.2.7-7.8 1-2.8.3-5.5.6-8.3.9-1.1.1-2.3 0-3.4 0-.6 0-1.2.3-1.8.4-.4.1-.8.2-1.1.1-1.5-1-2.9.1-4.4.1-1.3 0-2.6.1-3.9.2-.7 0-1.4.1-2.1 0-1.4-.3-2.8-.2-4.2-.2-1.8-.1-3.6-1.2-5.5-1.8-.5-.2-1.1-.4-1.6-.4-1.9 0-3.7-.7-5.4-1.4-.8-.3-1.7-.5-2.4-.9-.4-.2-1-.9-.9-1.1.3-.6.8-1.3 1.3-1.6 1.5-.7 3.1-1.1 4.6-1.6 1.1-.3 2.2-.5 3.2-1 1.1-.6 2-1.2 3.4-1 .5.1 1.3-.7 1.8-1.2s.9-1.1 1.7-1.1c.7 0 1-.5 1.1-1.2.1-.5.5-.9.8-1.3.4.3.7.7 1.1 1 .2.2.6.6.8.6.5-.3 1.1-.6 1.5-1.1.2-.3.2-.8.3-1.2.2-.8.6-.9 1.2-.4.1.1.2.3.4.4.7.6 1.5.4 1.6-.5.1-1 .6-1.6 1.6-1.8.3-.1.6-.4.9-.7.2-.3.3-.7.6-.9.2-.1.5-.2.7-.1.2.1.3.4.3.7 0 .2-.2.5-.2.7.1.3.2.8.4.9.2.1.7.1.9-.1.4-.5.9-1.1 1-1.8.3-1.7 1.1-2.3 2.7-1.6.7.3 1.1.2 1.3-.5.2-.7.7-.7 1.3-.8 1.1-.2 2.3-.5 3.3-1 2.1-.9 4.1-1.9 6.1-2.9.6-.3 1.3-.5 1.9-.7 1.2-.5 2.4-.8 3.8-.6 1.9.2 3.8-.1 5.7-.2.2 0 .4-.1.5-.1 1.1.4 1.8-.1 2.5-.9.2-.2.7-.1 1.1-.1.5 0 1 .1 1.5 0 1.5-.5 3-1.2 4.5-1.6 1.3-.4 2.7-.6 4-.9.4-.1.9-.3 1.1-.6.7-1 1.7-1 2.7-1.4 2.2-.7 4.2-1.7 6.3-2.7 1.5-.7 3-1.5 4.4-2.4 1-.6 1.8-1.5 2.9-2 2.3-1 4.4-2.6 7.1-2.3 1.2.1 2.4.1 3.5-.7.1-.1.3-.1.4-.1 1.3.5 2.9.7 3.9 1.5 1.3 1 2.5 1.9 4.3 1.9 2 0 3.2 1.6 4.6 2.6 1.9 1.3 3.6 2.8 5.4 4.3.5.4.9.8 1.3 1.3.7.7 1.3 1.4 2 2 .7.6.7 1.3-.1 1.6-1 .4-1.9.9-3.1.4-.4-.2-1 0-1.4.3-.2-.2-.2.4-.2.8zm-116.4 15.3c.1-.4.2-1 .5-1.2.2-.1.9.1 1.1.3.3.4.3.9.4 1.4 0 .1-.1.3-.3.4-.5.3-.9.6-1.4.9-.2-.5-.3-.9-.5-1.4.1 0 .1 0 .2-.1 0 0-.1-.2 0-.3zm-.3-5.5c-.2.1-.5.1-.8.1 0-.3 0-.5.1-.8.6-1.3 1.6-2.3 3-2.8-.6 1.2-.8 2.8-2.3 3.5zm-1-28c-.5 0-.9.4-1.3.6-.3.2-.6.5-.9.6-.7.1-1 .4-1.3 1.1-.2.4-.8.6-1.2.9-1.1.7-2.2 1.3-3.5 1.5-1 .1-1.7.7-2.2 1.6-.1.3-.5.5-.7.7-.2.2-.5.3-.5.5.1 1-.6 1.2-1.1 1.8-.4.4-.6.6-1.2.5-.7-.2-.7.5-.6.9.2.8-.1 1-.8 1.4-1.2.7-2.2 1.7-3.3 2.6-.1.1-.1.3-.1.5-.1 1.6-.3 1.8-1.9 1.9h-.6c.2-.7.3-1.5.8-2.1.6-.8 1.5-1.5 2.3-2.2.2-.2.3-.5.4-.8l.9-1.2c.3-.4.5-.7.8-1.1l.9-.9c.5-.5 1-.9 1.5-1.4.4-.4.7-.9.9-1.5.3-.6.5-1.2.7-1.8.1-.6.3-1 1.1-.8 1.6.5 2.2.2 2.9-1.2.4-.8.7-1.1 1.6-.7.3.2.9-.1 1.3-.2 1-.4 1.9-.9 2.8-1.4.5-.3 1.1-.7 1.5-1.2.6-.8 1.3-1 2.3-.8 2 .5 4 .7 6.1 0 .8-.3 1.8 0 2.7 0 1.2 0 2.5-.1 3.8-.2.5 1.1 0 1.9-1.4 1.7-1.2-.2-2.4-.2-3.5.6-.4.3-1.1 0-1.6-.1-1-.1-1.9-.4-2.9-.4-1.6.3-3.1.4-4.7.6zm2.2 12.1v.1c0 .1-.1.1-.2.1-.4.1-.8.2-1.2.2-.1-.1-.1-.2-.1-.3v-.2c.1-.2.1-.5.3-.7s.4-.3.6-.3c.5.3.6.8.6 1.1zm-1.8 2.1c-.1.2-.4.3-.7.3-.4.1-.8 0-1.1-.3s-.4-.8-.1-1.1l.1.3h1.7c.2.2.3.5.1.8zm-5.2.2c.1 0 .4.2.7.5-.4.2-.6.5-.9.5-.1 0-.4-.3-.4-.4.2-.3.4-.5.6-.6zm-1.3-6.1c-.4 0-.9 0-1-.4 0-.2.1-.4.3-.5s.4-.1.6-.1h.6c.3 0 .5.4.3.7-.2.2-.5.3-.8.3zm1.9 3.3c-.6-.3-.6-.8-.3-1.3.3-.4.5-.9.9-1.2.2-.3.6-.4.9-.6.3.2.7.3.8.5.1.2-.2.5-.3.8-.2.4-.5.8-.7 1.2-.3.7-.7.9-1.3.6zm-4.8 0c-.6.3-1.3.5-2 .6-.3 0-.6-.3-1.1-.5 1.1-.5 1.8-.8 2.5-1.1.3-.1.7.1 1.1.1-.2.3-.3.8-.5.9zm.1 6.1c-1 0-1.8-1-1.5-1.7.1-.1.5-.2.6-.1l.9 1.8zm-6.6 14.2c-.4.3-.9.4-1.4.5-.1 0-.3-.4-.4-.5.1-1.7.1-1.7-1.4-1.2-.5.2-1.2.3-1.5 0-.4-.3-.8-1.1-.7-1.6.1-.6 1.9-1 2.2-.6.8 1 1.8.9 2.9.6.6-.2 1.2-.2 1.9-.2.2 0 .5.3.5.5 0 .1-.2.4-.4.5-.5.8-1.1 1.5-1.7 2zm1.2 1.1c-.1.4-.4.8-.7 1.1-.2-.2-.4-.5-.6-.8.3-.4.5-.7.7-1 .2.3.6.5.6.7zm-1.3 5.5c-.3 0-.8.2-1 0-.7-.6-1.4-.7-2.2-.5-.7.2-1.3-.1-1.5-.8-.1-.3.3-.7.4-.9 1.8 0 3.2-.1 4.1 1.3.1.2.1.6.2.9zm-8-18.4c-.1-.1-.6.1-.6.2-.1.3-.1.7.1 1 .1.2.6.3.7.5.2.3.4.7.2.9-.2.2-.8.4-.9.3-1.1-1.1-1.8-.2-2.6.4-.4.3-1.2.4-1.5.2-.4-.3-.6-1-.6-1.6 0-.3.5-.7.8-.9.6-.4 1.3-.8 1.9-1.2.5-.3 1-.6 1.5-.6.9 0 1.5-.3 1.8-1.1.2-.8.8-1.1 1.6-1.1.2.4.3.9.5 1.2.3.5.3.8-.1 1.1-.9.6-1.6 1.5-2.8.7zm1.4 8.9c-.2.5-.8.9-1.4 1.5-.7-.7-1.4-1.1-1.6-1.7-.2-.6 1-2 1.4-2 .5 0 1.8 1.7 1.6 2.2zm-5.7 2.1c.1.2.1.6.1.8-.3 0-.7 0-.9-.2-.5-.6-1.1-.8-1.8-.3-.1.1-.6 0-.7-.2-.4-.6-.8-.5-1.4-.3-.9.3-1.8.4-2.7.5-.1-.1-.1-.2-.2-.4l1.2-.9c1-.7 1.9-1.4 2.9-2.1.2-.2.6-.3.9-.3.7 0 1.4 0 2 .1.3 0 .7.2 1 .2-.1.3-.1.7-.3.9-.6.9-.6 1.5-.1 2.2zm-5.1 2.9c-.2.1-.4 0-.6-.1-.1-.2-.1-.4 0-.6l.2.1c.3 0 .5.3.4.6zm15.9-9.3c0-.4.1-.8.3-1.1.4-.4.9-.6 1.4-.8.1-.1.4.2.6.3-.5.7-1 1.3-1.6 2h-.2l-.3.3c0-.3-.2-.5-.2-.7zm36.5-15.7c-.2.2-.4.3-.7.4-.1.1-.2.2-.3.2-.1-.3-.3-.5-.4-.8 0-.2 0-.5.1-.6 2.4-1.8 4.7-3.6 7.1-5.4.2-.1.4-.2.7-.2.2 0 .6.1.6.2.1.2 0 .6-.2.7-2.2 1.8-4.5 3.6-6.9 5.5zm1.9 8.2c-.3.4-.6.9-1 1.3-.1.1-.5 0-.8 0 0-.3 0-.7.1-.8.4-.3.9-.6 1.3-.8.2.1.3.2.4.3zm-.2-23.3c-1 .6-1.8 1.8-3.2 1.8-.2 0-.5.5-.8.8.3.2.5.5.8.7.3.1.6.1 1.2.3-1.5.8-3.2.2-3.7-1-.3-.8.3-1.8 1.2-1.7 1.6.2 2.8-.5 3.7-1.8.2-.4.7-.6 1.1-.8 0 0 .4.4.4.5-.2.4-.3 1-.7 1.2zm-12.8 21.2c1-.7 2-1.3 3-2l-.2.5c0 .7-.5 1.2-1.1 1.6-.5.4-1.2.8-1.7.5-.1 0-.1-.1-.2-.1-.1-.2.1-.4.2-.5zm-.3-6.1c-.2-.1-.3-.2-.4-.3s-.1-.4 0-.5c.1-.1.3-.2.5-.2.7.1 1.2.8 1.1 1.5v-.1c-.5-.1-.9-.2-1.2-.4zm3.4 7 .6-.9v.4c.2-.1.4.1.4.3s-.2.4-.3.6c-.1.1-.3.3-.4.3-.2.1-.4 0-.5-.1-.1-.2 0-.4.2-.6zm1.3 8.1c0-.2.2-.6.4-.7l3.9-2.7c.1-.1.3-.1.5-.2.1.1.2.1.3.2-.3.4-.5.9-.8 1.3-2.2 2.3-4.5 4.7-6.8 7-.9.9-1.9 1.6-3.2 1.9-.1-.1-.1-.2-.2-.2.3-.4.6-.7 1-1.1.7-.7 1.3-1.5 2-2.2.3-.3.7-.5 1.1-.7.9-.6 2-1.1 1.8-2.6zm4.3-13.2.2.2c-.5.8-.9 1.6-1.4 2.3-.1.2-.3.3-.4.4-.3.1-.7.1-1 .1.1-.3.1-.8.3-1 .7-.7 1.5-1.3 2.3-2zm-3.3-4.3-.3-.2c0-.3-.1-.6-.1-1 0-.1 0-.3.1-.3s.2 0 .2.1c.5.3.8.8.9 1.4h-.8zm-7.3-4.8h.6c.1 0 .1 0 .2.1l.1.1c.1.2.1.5-.1.7s-.5.3-.7.2c0-.4 0-.7-.1-1.1l-.2.2.2-.2zm3.7 15.6c.1-.1.2 0 .4 0 0 .2 0 .4-.1.4-.8 1.1-1.6 2.3-2.5 3.3-.7.7-1.6 1.2-2.5 1.7-.1.1-.4 0-.4-.1-.1-.2-.1-.5 0-.7 1.7-1.5 3.4-3 5.1-4.6zm27-19.8c.9.7 2.1 1.1 3.1 1.7.2.1.4.4.5.6-.4.3-.9.7-1.4 1-.1 0-.5-.3-.6-.5-.3-.9-.9-1.5-1.8-1.8-1.6-.5-2-1.9-2.4-3.3 0-.2 0-.4.1-.6.6-1 1.2-1.9 1.9-2.9.2-.2.5-.4.7-.6.1.1.2.1.3.2-.3.8-.7 1.6-1 2.3-.3.7-.7 1.4-.6 2 .2.7.7 1.5 1.2 1.9zm1-16.7c0-.2.3-.3.4-.1h.2v.6c-.1 0-.3 0-.4-.1-.2-.1-.2-.2-.2-.4zm1.4 29.8v.2s-.1 0-.1.1c-.2.1-.4 0-.7 0l-.2-.1c-.1-.3-.1-.8.2-.9.2-.1.4 0 .6.2.2.1.2.3.2.5zm-3.8-9.7c.1-.1.2-.2.2-.3.5.3 1.1.4 1.5.8.2.2.1.7.2 1.1-.3-.1-.8-.1-1-.3-.3-.3-.6-.8-.9-1.3zm.4 3.1c-.6.6-1.2 1-1.9 1.5v-.7c-.1-.9.6-1.7 1.5-1.7.6.1.7.6.4.9zm-1.7-16.3c-.4-.3-.6-.5-.8-.7.3-.2.6-.4.9-.5.2 0 .4.3.7.4-.2.2-.4.5-.8.8zm-.4 11.8c.2.1.3.2.4.4.3.7-.3 1.8-1.3 2.2.2-.8.3-1.6.5-2.4 0-.1.3-.3.4-.2zm-2.7.1c-.2.2-.6.1-.9.1 0-.3-.1-.7.1-.9.6-.7 1.2-1.7 2.3-1.8.1.1.2.3.4.4-.6.7-1.2 1.5-1.9 2.2zm.6 5c.7.8 1.3 1.4 2.3 1-.1.4-.2 1-.5 1.2-.3.2-1 0-1.3-.2-1-1-1.9-2-2.8-3.1-.1-.1-.2-.3-.3-.5.1-.1.1-.2.2-.2.9.6 1.8 1.1 2.4 1.8zm-2.2 4.9c-.3.3-.5.4-.7.6-.1-.2-.4-.4-.4-.7 0-.2.2-.4.4-.6.1.3.3.5.7.7zm15-17.5c-.3-.3-.9-.4-1.2-.7-.3-.4-.6-1-.5-1.4.2-.7.8-.4 1.3 0 .3.3.6.6 1 .9.2.2.5.4.6.3.2-.1.4-.4.4-.6 0-.7.3-1 1.1-.9.3 0 .7-.3.9-.5.4-.5.8-1 1-1.5.4-1 .9-1.1 1.7-.4v-.4c.5-.2 1.1-.4 1.6-.7.2-.1.5-.3.5-.5.1-.5.2-1 .1-1.5-.1-1.2 0-1.5 1.2-1.6.6-.1 1-.2 1.2-.9.1-.4.4-.7.7-1 .1-.1.3-.2.4-.3 1.5-1.4 1.5-1.4 3.5-2.1.2-.1.5-.3.6-.5.7-1.2 1.3-2.5 2-3.7.5-.8 1-1.6 2-1.9.8-.2.9-.7.6-1.4-.6-1.3-.3-1.8 1-1.8 1.6 0 2.8-1 2.8-2.6 0-.8.3-1.4 1-2 .7-.6 1-1.6 1.5-2.4.5-.9 1.2-1.4 2.2-1.4.3 0 .5-.1.8-.1.9-.1 1.4-.6 1.4-1.5 0-.6.2-.7.8-.7.4 0 1-.3 1.3-.6.5-.6.8-1.4 1.1-2.2.1-.3-.2-.7-.3-1.1-.1-.4-.2-.7-.3-1.1.3 0 .7-.1 1 0 .7.3 1.2.1 1.6-.4 1-1.2 1.1-2.6.1-3.8-.7-.8-.6-1.8.3-2.6.1.3.3.5.3.7.1 1 .4 1.9 1.4 2.4.2.1.3.8.2 1.1-.5 1.3-1.1 2.6-2.5 3.3-.6.3-.8.8-.8 1.5 0 .4-.1.8-.3 1.1-.5.8-1.1 1.7-1.7 2.4-2.8 3.5-5.5 7.1-8.4 10.5-2.5 2.9-5.1 5.7-7.6 8.6-.1.2-.3.3-.4.4-2.4 1.5-3.5 4.2-5.5 6-1.6 1.4-3.1 3-4.6 4.4-.8.7-1-.4-1.5-.7-1 .7-1.1 1.1-.6 2.1.1.3 0 1-.2 1.2-1 .8-2 1.5-3.1 2.1-.6.3-.8.6-.9 1.2v1.8c-.1 1-1.2 1.6-1.9 1.1-.2-.1-.4-.4-.4-.6 0-.2.3-.4.5-.5 1.3-.4 1.5-.7.7-1.8-1-1.4-2.2-2.6-3.2-4-.1-.1-.1-.2-.1-.4.9.8 1.7 1.7 2.6 2.5.1.1.1.2.2.2.5.1 1.1.1 1.6.2-.4-.2-.5-.8-.8-1.2zm1.3-21.9c.4.1.8.3.8.6 0 .2-.2.5-.4.6s-.5.1-.7.1h-.2c-.1 0-.1-.1-.1-.2 0-.4.2-.8.6-1.1zm-.4 15.3c0 .2-.5.6-.9 1-.4-.4-.9-.8-.9-.8.3-.5.6-1 1-1.5.4.4.7.8.8 1.3zm5-7.3c0-.3 0-.6.1-.8.3-.3.7-.4 1-.5 0 .1.1.1.1.2-.2.3-.3.7-.5 1-.1 0-.5 0-.7.1zm5.1-5c.1.6-.2 1-.4 1.5-.2.3-.4.6-.7.6-.1 0-.3-.1-.2-.2 0 0 0-.1.1-.1.2-.3.3-.5.5-.8.1-.5.3-.9.7-1zm-.5-12.2h.6l.1.3c0 .1.1.3.1.4 0 .1-.1.3-.3.3-.1 0-.2-.1-.3-.1-.1-.3-.2-.6-.2-.9zm.9 10.6c.8-.6 1.6-1.2 2.5-1.9.3 1.4-1.2 2.9-2.3 2.5-.1 0-.3-.6-.2-.6zm4.8-9.7h-.3c-.1 0-.2 0-.3-.1s-.1-.2-.1-.3c.1-.1.2-.1.3-.1l.1.1c.1 0 .3 0 .4.1.1.2 0 .3-.1.3zm.2 6v.3c0 .1 0 .2-.1.3-.1.1-.2 0-.3-.1-.1-.1-.1-.2 0-.3 0-.1.1-.2.1-.3l.1.1h.2zm1.9-2.7c0-.2.1-.4.2-.6h.1c.1.2.2.4.1.6v.1h-.1c0-.1-.2-.1-.3-.1zm-11.1-55.2c-.6-1.9-1.7-2.6-3.7-2.2-.8.2-1-.1-1.4-1.2 1 .2 1.9.3 2.9.5.3.1.8.3.9.2.2-.3.4-.7.4-1.1-.1-.8-.3-1.7-.4-2.5 1.1 0 2.2.1 3.3 0 .4 0 .9-.3 1.3-.4.5-.1 1.1-.2 1.6-.3.3 0 .7 0 .8-.1.8-1.4 2.5-.7 3.5-1.5.2-.1.7 0 .9.2 1.1.7 2.3 1.3 3.7 1.2.4 0 .8.3 1.1.6 1 .9 2 1.7 3.6 1.3.3-.1.8.3 1.2.5-.2.3-.4.6-.5 1-.1.4-.1.9 0 1.3.1.3.5.6.7.9-.1.1-.1.2-.2.3-.4-.2-.9-.3-1.3-.6s-.7-.7-1-1c-.6-.8-1.2-1.5-2.4-.9-.6.3-1.6-.1-2.4-.3-.2-.1-.2-.8-.3-1.2-.1-.4-.3-.7-.5-1-.3.2-.7.4-.9.7-.8 1.3-.7 1.3-2 .5-.2-.1-.7-.3-.8-.2-.8.5-1.6.3-2.4.4-.7.1-1.3 1-1.7 1.6-.1.2.4.9.8 1.2 1.1 1.3 2.7 1.6 4.3 1.6.5 0 1.2.1 1.6.5 2.2 1.7 4.4 3.5 6.5 5.3.4.4 1.1.9.6 1.5-.6.6-1-.3-1.4-.6-.7-.5-1.3-1-2-1.5-1.4-.8-2.9-1.7-4.3-2.4-1.7-.8-3.5-1-5.3-.3-.7.2-1.4.3-2 .6-1 .3-2.1.8-3.1 1.1-.4.1-.9.2-1.2 0-.2-.1-.5-.7-.4-.9.2-.3.6-.5 1-.6 1-.1 1.3-.9.9-2.2zm-7.9-12.8c-.2-.1-.3-.7-.1-1 .2-.5.7-.9 1.1-1.5.8 1.4.8 2.1.1 2.5-.4.1-.9.2-1.1 0zm.7 13.1c0 .3-.3.6-.7 1.2-.3-.5-.6-.8-.6-1 .1-.3.4-.5.6-.8.3.1.8.4.7.6zm.7-20.7c-.1.1-.6.2-.7.1-.2-.2-.3-.6-.3-.9 0-.2.4-.5.6-.6.8-.5 1.6-.9 2.5-1.4 0 .1.1.1.1.2-.7.9-1.4 1.8-2.2 2.6zm9-11.3c-.5-.1-.9-.7-1.3-1.1l1.3-1.3c.5.6 1 1.1 1 1.5 0 .3-.8 1-1 .9zm1.2 2c0 .4-.3.7-.5 1.1h-.4c-.2-.3-.6-.6-.6-.9.1-.4.5-.8.8-1.2.2.4.6.7.7 1zm-2.7 19.4c.3-.1.6.1.8.3.2.2.3.5.4.8-.2 0-.3.1-.5.1-.1 0-.2 0-.3-.1-.5-.2-.2-.9-.4-1.1zm-.8-5.7c0-.2.5-.7.5-.6.3.1.6.4 1 .8-.4.3-.7.7-.9.6-.2-.2-.5-.5-.6-.8zm2.1-24.1c.2.2.5.4.6.7.1.2-.2.5-.5.9-.3-.5-.6-.7-.6-1 0-.1.3-.4.5-.6zm0-1.8c0-.2.3-.3.4-.1l.3-.3c.1.3.2.6.1.9h-.5c-.2-.2-.3-.3-.3-.5zm-.8-4.7c-.2 0-.4-.2-.6-.4l-.1.1c0-.3.4-.5.7-.4.2 0 .4.1.5.2 0 .3-.2.5-.5.5zm.2 10.6c.2-.1.6.3.9.4-.2.2-.3.6-.6.7-.4.2-.9.2-1.4.2-.1-.1-.2-.3-.2-.4.4-.3.8-.7 1.3-.9zm-1.2-8c-.1.2-.4 0-.6.1-.1-.2 0-.4.2-.5.1-.1.3-.2.5-.2l.1-.2v.7c-.2 0-.2.1-.2.1zm.1 24.2c-.2.3-.4.9-.7.9-.5.1-1.5-.9-1.3-1.5.1-.4.6-1 1-1 1-.1.7.8 1 1.6zm-1.3 5.5c.3.1.7.3.8.6 0 .1 0 .2-.1.3h-.1c-.3.1-.6 0-.9-.1l-.2-.2c-.3-.1-.5-.3-.8-.4 0-.1.2-.2.3-.2h1zm-.6 8c-.6-.2-1.2-.4-1.7-.6.1-1.1.2-2.1.2-3.2 1.1.2 1.7 1.7 1.5 3.8zm-1.4-21.4c.1-.3.1-.6.2-.9l.3-.1c0 .4-.1.8-.1 1.3 0 .1 0 .2-.1.2-.1.1-.3 0-.3-.1-.1-.1 0-.2 0-.4zm.7-12.7c-.4.6-.8 1.2-1.3 1.7-.1.1-.5.1-.7.2-.1-.3-.3-.7-.1-.8.8-.9.7-1.8.2-2.8-.2-.3 0-.8.1-1.4.4.3.7.5.7.6.2.8.3 1.7 1.2 2.1 0 0 0 .3-.1.4zm-3.4 15.2c.1-.1.3-.1.5-.2h.1c.1.1.3.3.3.5s-.1.4-.3.4c-.1 0-.2-.1-.3-.2h-.3c-.2-.2-.1-.4 0-.5zm.1-23.3c.2 0 .5 0 .7.1.2.1.4.3.3.6 0 .1-.1.1-.1.1-.2.2-.6.1-.8 0s-.3-.6-.1-.8zm.7 14.1c-.2-.1-.3-.4-.2-.6.1-.3.5-.3.8-.3l.2.1c.1.2.1.5-.1.7-.2.2-.5.2-.7.1zm.7-17.1c-.3 0-.6-.1-.9-.2-.3-.1-.5-.3-.8-.4.2-.2.5-.4.6-.5.6 0 1 0 1.3.1.3.1.4.4.6.6-.3.2-.5.4-.8.4zm-1.2 41.8c.3.5.7.8.6 1.1-.1.3-.5.5-.7.8-.2-.2-.7-.5-.6-.7 0-.4.3-.7.7-1.2zm10-44.8c.5.5.7 1.3.6 2-.3 0-.5-.1-.7-.3-.2-.2-.2-.5-.2-.8 0-.3.2-.6.5-.6l-.2-.3zm2.9 13.9c0-1.9 0-3.8.1-5.7 0-.8 1-1.3 1.8-1.1.7.2 1.5.3 2.2.3.3 0 .5-.3.8-.5-.2-.2-.3-.5-.6-.6-1.3-.7-1.4-1.3-.2-2.2.4-.3.7-.7 1.1-.9.2-.1.5 0 .8 0-.1.3-.1.6-.2.9-.1.1-.4.2-.5.3-.3.3-.7.7-.7 1 .1.4.5.9.9.9s1.1-.3 1.2-.6c.3-1 1.1-1.3 1.8-1 .6.2 1.1.9 1.6 1.5.1.1 0 .5-.2.6-.2.2-.6.4-.8.4-1.3-.4-2.4.2-3.4.9-1.1.7-2.3.1-3.5.1-1 0-1.4.3-1.2 1.2.1 1.3.3 2.7.2 4-.1 1.9-.5 3.8-.8 5.6-.1.3-.5.6-.7.9-.2-.3-.4-.6-.5-.9-.5-.8-.3-1.5.4-2.2.9-.8.4-1.9.4-2.9zm11.6 21.7c1.1.7 2.1 1.9 2.7 3.1.8 1.6 2 2.3 3.6 2.6 1.2.2 1.2.3.6 1.4-.1.3-.2.6-.2 1 .1 1.5.1 3 .4 4.4.3 1.2.6 2.4 0 3.6-.2.3-.3.7-.6.9-.8.6-.9 1.4-.8 2.4.1.4-.1 1.1-.3 1.3-.2.2-.9-.1-1.3-.3-.5-.2-.9-.6-1.3-1-.9-.8-.6-1.8.5-2.4.5-.2 1.2-.5 1.3-1 .5-1.4 1.2-3 1.1-4.4-.1-1.3-.6-2.5-.7-3.9 0-.4-.6-.8-1-1-1-.6-2.1-.9-3-1.6-.5-.3-.8-.4-1.4-.2-.4.1-1 .1-1.2-.2-1.5-1.7-3.2-3-5-4.3-.4-.3-.6-.8-.9-1.1-.8-.8-1.5-1.6-2.7-1.7-.4-.1-.8-.5-1.1-.9-.4-.6-.7-1.3-1-2-.1-.2 0-.5.1-.7.1-.3.4-.7.3-1 0-.2-.6-.3-.9-.4 0 .1-.1.2-.1.3-.4-.2-.8-.3-1.1-.6-.4-.6 0-.9.6-1.1.7-.2 1.4-.5 2.1-.7.5-.1 1.2-.2 1.5.1.7.6 1.7 1.1 1.4 2.4-.5 2.1.1 2.9 2.1 3.8 2.4 1 4.4 2 6.3 3.2zm-.3-28.5.1-.2c.7.7 1.3 1.4 1.8 2.3-.5 0-1.1-.2-1.5-.6-.3-.4-.5-1-.4-1.5zm8.9 8.1c.1.2.1.5.1.7-.2 0-.6.1-.7 0l-1.8-1.5c-.6-.4-1.2-.8-1.8-1.3-.2-.1-.5-.3-.6-.5-.4-.7-.9-1.4-1.2-2.1-.1-.2.1-.6.2-1.2.7.4 1.1.6 1.4.9 1.5 1.8 3 3.4 4.4 5zm-3.2-7.6c0-.1.5-.7.6-.6.3.1.6.5 1.1.9-.4.3-.8.7-.9.6-.3-.2-.6-.5-.8-.9zm10.3 79.4c1-1.7 2.1-3.4 3-5.1.3-.6.3-1.4.5-2.1.1-.4 0-.8.1-1.1.2-.7.5-1.2 1.4-.6.8.5 1.4.1 1.8-.8 1.1-2.4 2.3-4.8 3.4-7.3.2-.4.2-.9 0-1.3-.5-1.2-.3-1.8.9-2.1.3-.1.6-.4.7-.6.7-1.4 1.2-2.8 2-4.1.5-.9.3-1.6-.1-2.4-.6-1.3-.4-1.8.9-2.2.4-.1.8-.3 1.1-.4.3-.1.9-.1 1 0 .1.3.2.9 0 1.1-1.7 2.2-2.2 4.8-3.1 7.3-.6 1.5-1.2 2.9-1.9 4.4-.7 1.4-1.4 2.9-2.1 4.3-.6 1.1-1.3 2-1.9 3.1l-.6 1.2-1.8 3.6c-1.1 2-2.3 4.1-3.5 6.1-.9 1.5-1.9 3-2.9 4.5-.3.4-.8.7-1.4 1.2-.3-1.7 0-2.2 1.3-2.5.6-.1.9-.8.5-1.3-.2-.2-.5-.3-.6-.4.2-1.1.8-1.8 1.3-2.5zm-1.2-61.4c.2-.2.4-.3.6-.5.2-.1.4-.2.5 0 .1.1.1.1.1.2.2.5.2 1 .2 1.6-.5 0-1.1-.4-1.1-1l-.3-.3zm3.7-8.9c-.1.2-.3.2-.5.2s-.4 0-.6-.1c-.2-.1-.2-.4-.1-.6l.1-.1c0-.1.1-.3.3-.3.1 0 .3 0 .4.1.1.1.3.1.4.3.1.2.1.4 0 .5zm.2 40.6c0 .2-.1.3-.2.5s-.2.3-.3.5c0 .1-.1.1-.2.1s-.1-.2-.1-.4c.1-.3.2-.6.4-.9l.4.2zm-1.3 12.4s.1.1.1.2c0 .2.1.4.1.6v.1c-.2.2-.5.1-.7-.1s-.3-.4-.4-.6h.1c0-.1.1-.3.2-.3h.4s.1 0 .2.1zm8.1-15.6c.6-1.4 1-2.9 1.6-4.3.1-.2.4-.3.7-.5.1.2.2.5.2.7-.1.4-.3.8-.4 1.3-.4 1.2-.7 2.5-1.2 3.7-.4 1-1.1 2-1.6 3l-.3.9c-.3.6-.5 1.3-.8 1.9-.3.7-.6 1.4-1 2.1-.1.3-.4.5-.6.8-.2-.3-.3-.6-.5-.9.2-.5.3-.9.5-1.2 1.6-2.3 2.3-5 3.4-7.5zm-1.3-17.3c.3-.2.8-.2 1.1 0s.5.6.4 1c0 .1 0 .1-.1.1h-1l-.2-.2c-.2-.1-.3-.5-.2-.9zm3.7 10.5c.4-1.4.8-2.8 1.3-4.2.1-.3.4-.4.6-.7.1.3.3.6.3.9-.3 1.4-.7 2.8-1.2 4.1-.1.4-.4.7-.7 1.1-.1 0-.2-.1-.4-.1 0-.4 0-.8.1-1.1zm7.4 23.4c-.2 1.4.7 2.8-.1 4.2-.1.1-.1.5.1.6 1.1 1.1.6 2.4.7 3.7.1 1.3-.1 2.7.7 3.9.3.5.2 1.2-.4 1.3-.2.1-.8-.5-.8-.8-.2-1.7-.2-3.4-.3-5.1 0-.5 0-1-.1-1.4-.3-1.3-.7-2.5-.1-3.8.1-.2 0-.4 0-.6-.2-1.5-.4-2.9-.6-4.4h.1v-3.5l.3-7.2c0-.5.5-1 .4-1.4-.1-.7-.3-1.4-.6-2-.5-.9-.6-1.6 0-2.5.3-.4.4-1 .7-1.5.1-.3.4-.4.6-.7.2.3.5.6.5.9 0 .8-.2 1.7-.2 2.5-.1 2.9 0 5.9-.1 8.8 0 1-.6 2-.6 3-.3 2 0 4.1-.2 6zm6 22.8c0-.1-.1-.2-.1-.3-.9.4-1.9.8-2.8 1.2-.9.4-1.5 0-1.4-.8 0-.2.3-.6.4-.6 1-.1 2.1-.2 3.1-.3l1.8-.3c.2 0 .5.1.7.2-.1.2-.2.6-.4.7-.4.2-.9.2-1.3.2zm.7 18c.1.3.3.5.5.7.2.2.4.5.2.8-.4-.3-1.1-.4-1.2-.8-.1-.3.1-.8.4-.9l.1.2zm-.9 8.3c-.5 1.6-.9 3.2-1.5 4.7-.9 2.3-1.7 4.6-2.8 6.8-.5 1.2-1.3 2.2-2 3.3-.2.4-.5.7-.7 1.1-.8 1.4-1.5 2.9-2.3 4.3-.2.3-.4.5-.6.8-.3.3-.7 1-.8 1-.6-.2-1.1-.6-1.6-1-.1-.1-.1-.4-.1-.7 2.2 1.1 2.2.3 3.1-1.4 1-1.9 1.5-4.1 3-5.7.2-.3.2-1.1 0-1.5-.4-.7-.4-1.1.4-1.5 1.7-.9 1.9-2.6 2.5-4.2.2-.4.3-1 .6-1.2.8-.6.8-1.2.4-2-.5-1.1-.3-1.8.7-2.5.4-.3.5-.9.8-1.4.1-.2.3-.3.5-.4.1.2.3.4.4.6.1.5.1.7 0 .9zm.1 18.5c0 .2-.3.5-.6 1-.2-.6-.5-.9-.5-1.2 0-.3.3-.5.5-.7.2.2.5.5.6.9zm-13.6-24.9-.1-.4c-.2-.2 0-.6.2-.7.2-.1.6-.1.8.1.2.2.2.5.2.8 0 .1 0 .1-.1.2s-.1.1-.2.1c-.3-.1-.6-.1-.8-.1zm.7 30.7c-.4.3-.8.7-1.4 1.1l-.9-.9c.4-.3.8-.8 1.3-.9.2-.1.6.5 1 .7zm.3-35.5.2-.3c-.2 0-.3-.2-.2-.3 0-.2.2-.2.4-.3h1.1c.2 0 .4.2.4.4 0 .3-.4.4-.7.4-.5.1-.9.1-1.2.1zm-.1-29.6c0-.2.2-.4.4-.8.3.4.5.7.6 1 0 .1-.4.5-.5.4-.2-.1-.4-.4-.5-.6zm2.3 51.4c.1-.4.3-.9.4-1.3h.3c.1.3.3.6.3.9-.1.3-.4.5-.6.7-.2-.1-.3-.2-.4-.3zm3.6-8.8c0-.4.1-.9.2-1.3.2 0 .4.1.6.1-.1.4-.2.9-.3 1.3-.2 0-.5-.1-.5-.1zm1.4-5c.2.2.4.4.5.7.1.3.2.6 0 .8-.1.1-.1.2-.2.3-.1.3-.2.6-.1.9 0 .2 0 .4-.1.6s-.4.2-.5 0c.3-.9.5-1.9.6-2.9l-.2-.4zm3.2-13.6c.2.5.3.8.5 1.2.3.7.2 1.4-.5 1.8-.6.4-.8.9-.7 1.6 0 .3 0 .7-.1 1l-.6 4.2c-.1.8-.4 1.5-1.4 2 .6-4.2 1.7-8 2.8-11.8zm-1.9-4.6c.1 0 .3-.1.4-.1.2.7.5 1.4.6 2.1 0 .1-.2.5-.3.5-.2.1-.5-.1-.6-.2-.3-.8-.5-1.5-.1-2.3zm-.6-8.4c-.1 0-.4-.2-.4-.3-.2-1.5-.3-3 0-4.7.3.4.6.5.6.6l.3 3.9c-.1.2-.3.4-.5.5zm-2 32.9v.4c.1.3-.3.6-.4 1-.2.3-.1.7-.2 1-.1.5-.3.9-.7 1.2.4-1.2.9-2.4 1.3-3.6zm-1.5-22.9c-.3-.5-.6-.8-.8-1.1.2-.1.5-.4.7-.4.3.1.6.4.9.7-.3.2-.4.4-.8.8zm.1-15.8c-.2 0-.4.1-.6 0-.1-.1-.2-.2-.2-.4l-.1.2c-.2 0-.4-.1-.5-.2-.1-.1-.1-.4 0-.5h.2c.6.1 1.2.3 1.6.6.1.2-.2.3-.4.3zm-10.6 40.6-.2-.2c0 .1.1.1.2.2 0-.3-.1-.5-.1-.7v-.2c.1-.1.3-.1.5 0s.3.2.4.3c.1.1.1.4 0 .5-.1.1-.2.1-.3.1-.2.1-.4.1-.5 0zm-.3-13.4c-.2-.4-.5-.7-.5-.9 0-.2.3-.4.4-.7l.5.5c0 .4-.2.6-.4 1.1zm1 26.8c0-.1 0-.1.1-.2h.2c.3.1.5.2.7.3 0 .3.1.6.1 1h-.7l-.4.2c-.1-.4-.1-.9 0-1.3zm.7-33.2c-.1-.4 0-.9.3-1.3l.3.4c.1.2.1.5.1.7 0 .1 0 .1-.1.2h-.6zm-3.6 11.8v.1c0 .1-.1.1-.2.1h-.6c-.2-.1-.4-.2-.4-.4l-.3-.4c.1-.2.3-.5.6-.6.3-.1.6-.1.8.1.2.3.1.7.1 1.1zm-3.8 2.6c0 .2-.2.5-.4.9-.3-.3-.5-.5-.5-.6.1-.3.3-.5.5-.7.1.1.4.3.4.4zm-2.6-9.8c-.2-.1-.3-.4-.1-.5h-.1c.1-.4.3-.8.5-1.1.2.3.3.7.5 1 .1.2.1.4 0 .5l-.1.1c-.3.1-.5.1-.7 0zm.5 25.2c0 .3-.4.6-.7 1l-.8-.8c.2-.3.5-.6.8-.8.2 0 .7.4.7.6zm-1.6-72.8c-.2.2-.6.1-.7-.2s0-.6.3-.7h.1l.1-.1c.1 0 .3-.1.4 0 .2.1.1.3.1.5-.1.1-.1.4-.3.5zm.5-39.3c-.4-.4-.7-.7-.9-1.1 0-.1.5-.7.7-.7.5.2 1 .5 1.5.8-.3.4-.7.7-1.3 1zm0-7.6H323.7c-.1 0-.2 0-.3-.1-.1-.1-.1-.1-.1-.2-.1-.3-.2-.5-.3-.8h.1c.2-.1.5-.1.7.1.2.1.4.3.5.4 0 .2.1.4 0 .6zm-1.4 8.8c.3.1.4.4.4.7-.1.3-.4.5-.7.5-.3 0-.6-.2-.8-.4l-.3-.4c-.1 0-.2-.1-.3-.1.2-.3.6-.4.9-.4.3 0 .6 0 .8.1zm-1.6 8.2c.3-.1.6-.6.6-.9.2-.9.3-1.9.4-2.8.1-.5 0-1.1.1-1.6 0-.2.1-.5.2-.7.1-.1.5.1.6.2 1.1 1 1.6 4.4.9 5.7-.1.2-.2.5-.2.7.2.8-.1 1.3-.8 1.7-.6.3-.6.8-.2 1.3.5.7.3 1.2-.6 1.3-.7.1-.8.6-.4 1.1.6.9-.1 1.4-.6 1.8-.1.1-.8-.1-1-.3-.2-.4-.3-.9-.4-1.3.1-.5.2-.9.3-1.4.1-.9.2-1.9.1-2.8 0-1-.1-1.7 1-2zm.1 37.5c0 .1-.2.1-.4.2h-.2c-.1 0-.2-.2-.2-.3l.1-.1c.1-.2.4-.3.6-.2 0 .1.2.2.1.4zm-1.3.3c0 .1-.2.1-.3 0-.2-.1-.4-.3-.6-.4l.1-.4c.3.1.6.3.8.6v.2zm.2-41.8c-.5.3-1.1.5-1.6.6l.2-.4c.2-.5 1-.7 1.5-.4 0 .1 0 .1-.1.2.1 0 .1 0 0 0zm-2.2 53.9c.1-.4.3-.8.7-.9h.2c.1 0 .1.1.1.2.1.2.1.5 0 .7-.1.2-.2.4-.5.5-.2-.1-.5-.3-.5-.5zm.4 8.9c-.5.3-.8.6-1.2.8-.1 0-.5-.5-.5-.5.2-.4.6-.7.9-.9.1-.1.4.2.8.6zm-.4-70.9c-.1-.4.1-.9.4-1.1l.3.1c.2.2.2.6 0 .8-.1.2-.5.3-.7.2zm.9-9.6c.3-.1.6-.1.8.1.2.2.4.5.4.7-.2.1-.4 0-.6-.2s-.3-.4-.4-.6h-.2zm-3 59.6c0 .2-.3.4-.6.9-.1-.5-.3-.8-.3-1 0-.3.1-.6.2-.9.2 0 .4.1.4.1.2.3.3.6.3.9zm-11.1-30.6c-1.1-.9-1.9-1.5-2.6-2.3-.3-.4.2-.8.6-.7 1 .3 1.9.8 2.3 1.8.1.3-.1.6-.3 1.2zm-3.4-4.1-.6.6c-.3-.1-.5-.4-.7-.6 0-.1.3-.5.4-.5.3 0 .5.2.9.5zm-1.5 7.2c-.6.2-1.3-.4-1.3-1l.1-.1c.3.1.7.3 1 .5.1.2.3.4.2.6zm-2-17.6c0-.3.3-.6.5-1.1.3.5.6.7.5.9-.1.3-.3.6-.5.8-.2-.1-.5-.3-.5-.6zm10.1-5.9-1.1-1.1.3-.3 1.1 1.1c0 .1-.1.2-.3.3zm.8 5.6c.1-.1.4-.2.5-.1.1 0 .3.3.3.4-.4.8-.9 1.5-1.3 2.3-.1.1-.2.1-.4.2-.1-.1-.4-.2-.4-.3 0-.3-.1-.6.1-.8.3-.7.7-1.2 1.2-1.7zm-2.8-11.3c-.2-.3-.2-.7-.3-1.1l.1.2c.4.4.8.9 1.1 1.4-.3.1-.7-.1-.9-.5zm-.1 5.5c.1-.2.4-.3.6-.2h.1v.6h-.2c-.1 0-.2.2-.2.3 0 .1-.1.3-.2.4h-.1c-.1 0-.1-.1-.1-.1v-.3c0-.3 0-.5.1-.7zm.5-1.2c-.1 0-.1.1-.2 0 0 0 0-.1-.1-.1 0-.2-.1-.5-.1-.7l.4-.1c.3.2.3.7 0 .9zm-1.7-8.3h2.2c-.7.8-1.4.8-2.2 0zm.5 12.7c.5.3.9.7 1.4 1.1-.3.2-.6.4-1 .8l-1.2-1.2c.2-.3.7-.8.8-.7zm-6.3-15.4c-.3.3-.7.8-1 .8-.5-.1-.9-.5-1.4-.9.7-.3 1.2-.5 1.6-.6.2-.1.6-.1.7 0 .2.1.3.6.1.7zm11.4 70.7c.4-.3 1-.8 1.1-1.3.7-2 2.4-3.1 3.8-4.7-.1 1.2-.2 2.1-.3 3 0 .2-.3.6-.4.6-1.4.1-1.4 1.4-2 2.2-.3.4-.5.9-.7 1.4-.4 1.2-1.3 1.7-2.5 1.8-.2 0-.5.2-.7.3l-2.1 2.1c-.2.2-.7.2-.8.1-.6-.5-1.2-1.2-1.8-1.7.1-.1.3-.4.4-.4 2.4-.4 4.2-2 6-3.4zm1.5 22.9v.2c0 .1-.1.1-.1.1l-.2-.1c-.2-.3-.3-.6-.3-.9v-.1c0-.1.1-.1.2-.1.2 0 .4 0 .4.1v.8zm-3.4 2.8c-.5.8-1.1 1.5-1.6 2.3-.1-.1-.2-.2-.3-.2.2-1 1-1.6 1.6-2.3.1.1.2.1.3.2zm-3.4-19c.5.3 1 .6 1.4.8v.4c-.3.1-.7.5-.8.4-.6-.4-1.8 0-1.7-1.1-.1-.6.5-.8 1.1-.5zm.7 23.7c0 .4-.2.7-.3 1.1-.3-.2-.8-.2-1-.5-.2-.2-.2-.8-.1-1.1.1-.3.5-.5 1-.9.2.6.4 1 .4 1.4zm16 28.2c-.1.2-.4.4-.6.6-.1-.2-.4-.4-.4-.6 0-.3.3-.5.5-1 .3.5.5.8.5 1zm-5.5 8.5c.2-.1.3 0 .5.1.2.2.3.4.4.6v.1l-.1.1c-.3.1-.7-.1-.8-.4v-.1c-.2-.1-.1-.3 0-.4zm-4.2 4.1c-.2.1-.4.1-.6.1v-.2l.1-.2c.3-.1.5-.1.8-.2 0 .1-.1.4-.3.5zm-24.9-.6c0 .3-.3.5-.6.4-.4 0-.8-.4-.8-.9 0-.1 0-.2.1-.3.1-.1.3-.2.5-.1.2 0 .3.1.4.3.2.1.4.3.4.6zm68.8-93.4c.3.4.6.6.7.9 0 .1-.3.3-.4.5l-.7-.7c0-.1.3-.4.4-.7zm-.3-1.8c0-.2.3-.4.6-.8.2.4.5.7.4.9-.1.2-.4.4-.6.5-.1-.1-.4-.4-.4-.6zm1.3 40.8.3.3c.5 0 1.4 1.3 1.2 1.8v.1c-.2.1-.6.2-.7.2-.4-.5-.7-1.1-1-1.7-.1-.2.1-.5.2-.7zm1.1 18.4c0 1 .5 2 .8 3 .5 2 .9 4 1.6 5.9.5 1.3 1.3 2.4 2 3.7.3.5.5 1 .7 1.6.1.3-.2.6-.2.9-.3-.1-.7-.2-.8-.4-1.1-2-2.1-4-3.1-6.1-.8-1.7-1.5-3.5-2.2-5.4-.3-.8-.1-1.7-.3-2.5-.1-.7-.4-1.4-.6-2.1-.2-.5-.4-1-.7-1.5.1-.1.3-.2.4-.2.9 1 2.3 1.4 2.4 3.1zm.7-31c-.1-.2.3-.5.6-1 .4.5.7.8.7 1.1 0 .2-.5.7-.6.6-.2 0-.6-.4-.7-.7zm2.2 27.8c.1-.5.6-.9 1-1.7.5.7.8 1.1 1.1 1.5l-1.5 1.2c-.2-.3-.7-.7-.6-1zm-4.9 29.4c-.2 0-.4.1-.6.1-.2 0-.5 0-.7-.1-.2-.1-.2-.5 0-.6v-.1c.5-.2 1.2.2 1.3.7zm-.8-32.7s-.3-.1-.5-.2c.2-.4.3-.7.5-1.1.2.1.3.1.5.2-.2.4-.3.8-.5 1.1zm0 11.8c0 .1 0 .1-.1.2s-.2 0-.2-.1c-.7-.6-1.1-1.6-1.1-2.5l.3-.1c.2 0 .3.1.3.3.4.6.8 1.4.8 2.2zm7.1 14.9c-.2-.3-.3-.9-.2-1.2.3-.5.9-.8 1.6-1.4v3.2c0 .1-.4.3-.4.3-.4-.3-.8-.6-1-.9zm.9-16.1-.1-.1c0-.3 0-.7.1-.7.7-.3.6-1.7 1.6-1.5.3.1.6.6 1 1.1-.3.4-.5.8-.7.9-.6.1-1.3.2-1.9.3zm.5-18.9h.4c.1.2.4.3.6.4.2.1.4.4.3.6-.1.2-.3.2-.4.2-.2 0-.3-.1-.5-.2s-.4-.3-.5-.4 0-.4.1-.6zm1.9 5.8c0-.4.2-.7.2-1.1l.3.2c-.1.5 0 1.1.2 1.6-.4.1-.7-.3-.7-.7zm.6-44.3c-.1.1-.3.2-.5.3-.6.2-1.3.4-1.8-.1-.1-.2 0-.5.2-.6.2-.1.5-.1.7-.1h1.2c.3.1.3.3.2.5zm-1.1-5h-.4l-.2-.3c-.4.1-.9 0-1.3-.2-.1 0-.2-.1-.2-.2s.1-.1.2-.2c.2-.1.5-.2.8-.2h.3c.1.1.2.2.3.2.1 0 .2.1.3.1s.2.1.2.2c.2.4.1.6 0 .6zm-2.5 36.5c.4.6.8 1.1 1 1.7.1.4 0 1 0 1.5-.4-.2-1-.3-1.3-.6-.8-1-.6-2 .3-2.6zm-.6 10c.1.1 0 .4.1.5 1.5 1.7-.1 2.9-.6 4.2-.1.2-.8.5-.9.3-.4-.3-.7-.8-.9-1.2 0 0 .4-.4.5-.4 1.2 0 1.7-.8 1.2-1.7-.3-.5-.8-.9-1.2-1.4-.4-.5-.9-1.1-.4-1.6.2-.2 1.1 0 1.5.2.3.2.5.7.7 1.1zm-.9-11c0 .3-.3.5-.4.7-.2-.2-.6-.3-.7-.6l-.6-2.1c1.2.1 1.9.9 1.7 2zm-.6-15.7c-1.1.7-1 1.7-.9 2.8 0 .3.1.6.1.8-.1.4-.2.7-.3 1.1 0 0-.5 0-.5-.1-.2-.4-.5-.9-.4-1.2.3-.7.3-1.2-.3-1.8-.1-.2 0-.9.1-.9.8-.1 1.2-.7 1.7-1.3.2-.2.6-.3.9-.5.1.1.1.2.2.3-.2.3-.3.6-.6.8zm-3.1-6.4c-.1-.1-.2-.7-.1-.7.7-.5 1.1 0 1.7.3-.4.7-1 .7-1.6.4zm.7-34.8c.1.2.1.4.1.5v.1c0 .1-.1.1-.2.1-.3 0-.6 0-.9-.2l-.1-.1v-.2c0-.2 0-.4.2-.5.1-.1.3-.2.5-.1h.1c.1.1.2.3.3.4zm-2.4 71.5c-.8-.6-1.5-1.1-2.1-1.6-.2-.2-.5-.6-.5-.8.1-1.4.8-2.5 1.8-3.6.1 1.9 1.7 3.7.8 6zm-1.8-12.6c-.3-.1-.6-.2-.8-.3-.4-.2-.8-.5-1.2-.6-1.4-.2-1.9-1.2-1.1-2.3.7-.9.8-1.6-.3-2.2-.2-.1-.1-.8 0-1.2.2-.7.4-1.3.6-2 .1-.4 0-.8.2-1.1.7-1 .4-1.8-.2-2.6-.6-.7-.8-1.5-1-2.4-.1-.8-.7-1.6-.2-2.5.5-.9.9-1.9 1.4-2.8.1-.2.6-.3.7-.2.2.2.3.5.5.8-.1 0-.1 0-.2.1.1 2 .2 3.9.3 5.9.1 2.4.2 4.8.2 7.1 0 .2 0 .5.1.7 1.2 1.3.6 3.1 1.2 4.6.1.3-.2.7-.2 1zm-.2-55.8c-.3.8-.5 1.5-.9 2.2-.1.1-.4.3-.4.3-.3-.3-.5-.6-.8-1.1.5-.8.9-1.4 1.4-2.1.1-.1.5-.1.6 0 .1.2.2.5.1.7zm-1.4 9.2c-.1.1-.2.1-.3.2-.2 0-.4 0-.6-.1-.2-.1-.2-.4-.1-.5l.2-.2c.1-.1.3-.1.5-.2l.2.2c.1.2.2.4.1.6zm-.9-13.5c-.2-.1-.4-.3-.6-.5.1-.2.3-.3.5-.5.3.3.4.5.6.7-.2.1-.4.4-.5.3zm-.2 27.6c-.1-1 .1-2.1.2-3.1.1-.4.4-.7.7-1.1.1 0 .2.1.3.1 0 .3.1.6 0 .8-.1 2.2-.2 4.4-.4 6.5-.1.5-.6 1.1-.9 1.5 0 .1-.6-.1-.6-.2 0-.6-.2-1.5.1-1.9.7-.8.7-1.6.6-2.6zm.8 9.1c.1.5-.6 1.2-1.5 1.4-.6.1-.7-.3-.8-.8l-.6-2.4c.9-.1 2.7 1.1 2.9 1.8zm-38.7-64.8c.1.2.1.5-.1.7-.1.2-.4.3-.6.2l.2-.3c-.2-.1-.5-.2-.6-.4-.1-.3.1-.6.4-.6s.6.1.7.4zm-30.5 24.7c0 .2-.2.5-.4 1.1-.3-.5-.5-.8-.5-1 0-.2.2-.5.4-.7.1.2.4.4.5.6zm0 31.6c-.1.6-.3 1.1-.6 1.6-.2.3-.5.4-.8.6l-.3-.9v-.5c0-.4 0-.9.2-1.2.2-.3.7-.4 1.1-.6.1.3.4.7.4 1zm-.6-4.2c.2.1.3.5.1.7-.2.2-.4.3-.7.2-.3-.1-.6-.3-.6-.6s.4-.5.6-.4l.6.1zm-.4 17.5c1-.4 2-.7 2.9-1 1.5.4 2.9.7 4.2 1.1.3.1.5.6.7.9-.4.2-.7.5-1.1.5-1.1-.1-2.2-.4-3.3-.5-.8-.1-1.5.1-2.3.1-.2 0-.4.2-.6.2-.4 0-1.1 0-1.3-.2-.2-.6.3-.9.8-1.1zm16.1 4.9h.1c.1 0 .2.1.3.1.1 0 .2.1.3.1.1.1.1.3.1.5 0 .3.2.7.5.9-.2.1-.4 0-.6-.1-.3-.3-.3-.7-.6-1-.2-.1-.4-.2-.6-.2h.3s0-.3.2-.3zm.8 4.6c.1-.2.3-.2.5-.1h.1c.2 0 .4 0 .5.1.1.1 0 .3-.1.4-.1.1-.3.1-.5.1-.1 0-.3 0-.4-.1s-.2-.3-.1-.4zm1.1-2h-.1c0-.1.1-.1.2-.1s.1.1.2.2.3.1.5.1c.3 0 .6.2.8.3.1 0 .2.1.1.2l-.1.1c-.6 0-1.3-.3-1.6-.8zm-2.3.3c.1.4-.2.8-.5.9l-.3-.3c-.1-.4-.1-.9 0-1.3.3 0 .7.3.8.7zm-1.1 4.2c-.3.3-.5.7-.9 1.1-.3-.3-.5-.6-.5-.6.2-.4.5-.7.8-1 .2.2.4.3.6.5zm-30 33.6c-.4 0-.8 0-1.1-.1h-.1v-.2c.2-.2.4-.3.7-.3h.2c0 .1.1.2.2.3 0 .1.1.2.1.3zm-25.8 11.5c-.2.4-.7.7-1.1.8-1.2.2-1.6.6-1.5 1.8 0 .3-.1.6-.1.9-.3-.1-.5-.2-.8-.3-.2-.1-.3-.2-.5-.2-1.8.7-1.7-1.8-3-1.9 0 0-.1-.2-.1-.3 0-1.3.7-1.9 1.8-1.5l1.5.6c1.4.6 1.8.5 2.9-.5.4-.4.9-.6 1.4-.9-.1.5-.2 1.1-.5 1.5zm-11 5c-.3.4-.7.6-1.1.9-.6.5-1 .9-.3 1.7.1.1.1.7 0 .7-.7.4-1.5.7-2.3 1-.2-.1-.6-.2-.6-.4-.1-.4-.1-.9.1-1.1.6-.8 1.3-1.5 1.9-2.2.5-.5.9-1 1.4-1.4.2-.2.6-.1.9-.1.1.3.1.7 0 .9zm-29.7 46c.1-.1.3-.2.4-.1l.3.3c.2.2.2.5.1.7-.1.2-.4.3-.6.3-.3-.1-.4-.4-.4-.7 0-.2.1-.4.2-.5zm1.3 6.8c.4.3.8.6 1.1 1 .1.1-.2.4-.4.8-.6-.5-1-.9-1.4-1.2.3-.2.7-.6.7-.6zm2.1 12.1c1.2-.9 2.1-2.1 2.8-3.4 1.3-2.3 3.4-4 5.3-5.7 1.2-1.1 2.6-2.1 3.9-3.1.2-.2.6-.1.9-.2-.1.3 0 .7-.2.9-1.9 2.3-3.8 4.5-5.7 6.7-.5.5-1.3.7-2 1-.9.4-1.4 1-1.5 2-.1 1.3-.8 2.1-1.8 2.7-.3.2-.5.4-.8.6-.6.5-1.3.9-2.5.6.6-.8.9-1.6 1.6-2.1zm7.8-1.9c2.1-2.9 4.2-5.8 6.3-8.6.9-1.2 1.9-2.3 2.9-3.4 1.3-1.3 2.2-1.3 3.1.4 1.1 1.9 2.6 3.1 4.6 3.7.5.1 1 0 1.6 0 .5 0 1-.1 1.5-.2.1.1.1.3.2.4-.3.2-.6.6-.9.7-1.5.5-3 .6-4.5-.3-.8-.5-1.6-1.1-2.4-1.7-.3-.3-.6-.8-.7-1.2-.5-1.1-1.3-1.4-2.2-.5-1.2 1.3-2.3 2.7-3.4 4.1-1.1 1.4-2.3 2.9-3.4 4.3-.5.7-.9 1.6-1.3 2.4-.1.2-.3.5-.5.7-.3.2-.8.2-1.1.3.1-.4 0-.8.2-1.1zm27.1-10.2c.2-.2.8-.3 1.1-.2.8.1 1.5.4 2.2.6.4.1.9.2 1.2.4 1.4 1.4 3.2 1.5 4.9 1.9 1.3.3 2.5.7 3.8 1 1.7.3 3.5.5 5.2.7.2 0 .5 0 .7.2 1.1.9 2.4.7 3.7.7 2.7 0 5.3.2 8 .2 2.5 0 5 .2 7.5-.2 1.9-.3 3.7-.6 5.6-.7h1.8c.4 0 .8 0 1.2-.2 1.7-1 3.5-1.2 5.4-1.4 1.6-.1 3.2-.1 4.7-.4 2.8-.6 5.6-1.3 8.4-2 .6-.1 1.3-.2 1.9-.4 2.7-.6 5.4-1.1 8.1-1.8 2.2-.6 4.2-1.5 6.3-2.2l.9-.3c.9-.2 1.7-.5 2.6-.7 2.1-.4 4-1.1 5.8-2.2 2.6-1.5 5.6-2.4 8.4-3.5 2.1-.9 4.2-1.7 6.3-2.6.2-.1.5-.3.7-.4 2.1-1.2 4.2-2.4 6.3-3.7.3-.2.5-.3.8-.5.4-.2.8-.7 1.2-.7 2.9-.3 4.9-2.6 7.4-3.7 1.5-.7 2.9-1.7 4.4-2.5.2-.1.9.1 1.1.4 2.3 3.2 4.5 6.5 6.7 9.8 1.6 2.5 3.1 5.1 4.8 7.7.7 1.1 1.8 2.1 2.2 3.3.5 1.8 1.7 3.1 2.3 4.8.1.3.4.5.5.7.6.9 1.3 1.8 1.9 2.7.2.3.6.5.8.9l1.2 1.8c-.2 1-.5 1.5-1.3 1.9-.9.5-1.8 1-2.6 1.7-.6.4-1.1.6-1.8.6-1.5 0-3 .2-4.5.9-1.8.9-3.7 1.8-5.8 2.1-2.1.3-4.2 1-6.3 1.5-2.2.5-4.4 1.2-6.6 1.4-2.1.2-4 .8-6 1.4-2.3.7-4.8.9-7.2 1.3-.3.1-.7.1-1 .2-1.3.6-2.6.7-4 .7-.8 0-1.6.2-2.5.4-1.4.2-2.8.6-4.2.7-2.7.3-5.5.4-8.2.7-.3 0-.7.1-1 .2-.3.1-.5.2-.8.2-2.7-.5-5.3.5-7.9.3-1.1-.1-2.2.3-3.3.3-1.6.1-3.2.1-4.8.1-1.8 0-3.5-.1-5.3-.1-.4 0-.7.2-1.1.2-1.4 0-2.8 0-4.2-.1-2.2-.1-4.5-.3-6.7-.6-2.1-.2-4.2-.5-6.3-.8-.3 0-.7-.3-1-.2-2.1.2-4.1-.8-6.1-1.2-.9-.1-1.8-.1-2.6-.3-1.5-.4-3-1.1-4.5-1.6-.2-.1-.4-.3-.7-.3-2.7.1-4.9-1.5-7.3-2.1-1.8-.5-3.5-1.5-5.2-2.3-1.2-.5-2.4-1-3.5-1.6-.6-.3-1.1-.8-1.6-1.1-.7-.5-1.4-1-2.2-1.4-1-.6-2.1-1.1-3-1.8-1.5-.9-2.9-1.9-4.3-2.9-1-.8-1.9-1.8-2.8-2.6-2-1.9-1.3-1.7.2-3.3zM367.6 326c.1 0 .3.1.3.2.1.1.1.3.1.4 0 .1 0 .1-.1.2s-.2.1-.3 0c-.1 0-.2-.1-.3-.1-.1 0-.2-.1-.3-.2-.1-.1 0-.3.2-.4s.3-.1.5-.1h-.1zm1.4 94.6 1.2 3.3c.1.3 0 .6 0 .9-.3-.1-1-.1-1-.3-.4-1.6-.8-3.3-1.1-4.9 0-.2.3-.4.4-.6.2.3.4.7.6 1-.1 0-.1.1-.2.1.1.1.1.3.1.5zm3-101 .1.1c.1.1 0 .3-.1.3-.1.1-.2.1-.4.1h-.4c-.2 0-.3 0-.4-.1-.1-.1-.1-.4-.1-.6 0-.1.1-.3.2-.3h.1c.2 0 .3.1.5.1h-.1c.2.2.4.3.6.4zm1.1 86.3c.1-.2.4-.4.7-.4.3 0 .5.2.5.5 0 .1-.1.2-.1.4-.1.3 0 .6 0 1 0 .1 0 .1-.1.1h-.6c-.2 0-.4 0-.6-.1s-.3-.3-.3-.5c.1-.3.4-.4.6-.5s.5-.3.5-.5h-.6zm.5 4c-.1-.1-.2-.2-.2-.3 0-.1 0-.1.1-.2.2-.2.4-.4.7-.4h.1c.3.1.4.5.2.7-.3.3-.6.3-.9.2zm-.1 21.3c-.2.1-.5.2-.6.1-.2-.2-.3-.5-.2-.7.2-.5.5-1 .8-1.5.3.5.4 1.9 0 2.1zm1.7 3.6c.3 0 .6.4.9.6-.2.2-.4.4-.8.7-.4-.3-.6-.5-.9-.8.2-.1.5-.5.8-.5zm.3-100.7c-.2.3-.6.1-.8-.2l-.5-.2c-.3-.2-.3-.7 0-1 .3-.2.8-.2 1 .1.3.2.4.7.4 1-.1.2-.1.3-.1.3zm-2.5 94.5c-.1.1-.1.2-.2.3-.4-.2-1-.2-1.1-.5-.4-.6-.4-1.4.2-2.3.4 1 .8 1.7 1.1 2.5zm-2.2-27.2c.2-.1.6.4 1.2.8-.6.5-1 .9-1.4 1-.2 0-.8-.7-.7-1 0-.3.5-.7.9-.8zm-3 16.4c-.2-.3-.5-.5-.6-.8-.3-.5-.5-1.1-.7-1.7 0-.2.2-.4.3-.7.7.6 1.4 1.2 2.2 1.9-.5.6-.8 1-1.2 1.3zm-.6-8.5c0 .1.1.2.3.2.4.1.5.7.4 1.1 0 .6-.2 1.2-.4 1.7-.3-.4-.6-.7-.7-1.2s-.3-.9-.1-1.3l.3-.6.2.1zm0 23.3c-.2 0-.3-.1-.4-.3s0-.3 0-.5c0-.1 0-.2.1-.2h.2c.5 0 1 .5 1 1v.1h-1.6l.7-.1zm12.6-66.3c.2.1.5.1.7.2.1.1.1.2 0 .4l-.3 1.5c-.1-.1-.3 0-.4-.1v-.2c0-.4 0-.9.1-1.3 0-.1.1-.2.2-.2l-.3-.3zm.7 44.7-.9.9c-.4-.4-1-.8-1.2-1.4-.1-.2.6-.7 1-1.1.3.5.6 1 1.1 1.6zm-.8 47.3c.1 0 .3 0 .3.2 0 .1-.1.1-.2.2-.2.1-.4.2-.7.3-.2.1-.3.1-.5.1-.2-.1-.3-.3-.2-.4l.1.2c.4-.5.8-.6 1.2-.6zm-2.1-38.9c.1-.6.8-1.1 1.3-1.6.1-.1.6 0 .6.1.2.7.4 1.3.5 2 0 .2-.5.5-.9.9-.7-.5-1.6-1-1.5-1.4zm.3-27.4c-.2-.1-.5-.2-.4-.5l.1-.6c.6.2 1.2.5 1.7.9-.4.2-.9.3-1.4.2zm.4 47.1s.5.6.5.7c-.4.5-.8 1-1.3 1.3-.2.1-.7-.4-1.3-.7.9-.6 1.5-1 2.1-1.3zm9.1-88.4c.1.1.1.3 0 .3h-.2c-.3 0-.6-.1-.8-.3-.2-.2-.3-.5-.2-.8.1-.3.5-.4.7-.2l-.1.2c.3.3.4.6.6.8zm-2.3 89c-.7-.1-1.1-.9-.8-1.4.1-.2.4-.3.5-.3.7.4 1.5.8 2.2 1.3.1.1.2.4.2.6 0 .1-.3.1-.3.1-.7-.2-1.3-.2-1.8-.3zm1.5 14c-.2.2-.6 0-.7-.2-.1-.3-.1-.6 0-.8l.5.1c.2.2.3.6.2.9zm-2.4 19.4c-.3.1-.6 0-.8-.2-.2-.2-.2-.6-.1-.8l.3-.3c.2.3.6.3.8.6.2.2.1.6-.2.7zm1.5-42.6c0-.2 0-.4-.1-.6.6-.2 1.1-.4 1.7-.6.1.6.3 1.1.4 1.7-.6-.2-1.3-.3-2-.5zm.2-55.2c0-.2.3-.4.5-.8.3.4.5.7.5 1 0 .2-.3.4-.5.6-.2-.4-.5-.6-.5-.8zm1.3 17.4c.3-.4.5-.7.7-1 .2.3.4.7.5 1 0 .3-.3.6-.5.9-.2-.3-.4-.6-.7-.9zm-.8-40.6.2.4c.3 0 .4.4.2.6-.2.2-.5.2-.8.2-.2 0-.4 0-.6-.1-.2 0-.4-.1-.5-.2s-.2-.3-.1-.5.3-.2.5-.2c.3-.1.7-.2 1.1-.2zm-1.6-10.8c-.3.2-.7.2-1 0 .1-.4.4-.8.9-.9v-.1c.4.3.4.8.1 1zm-1 18.5c.2 0 .5.3.9.6-.4.3-.7.6-.9.6-.2 0-.5-.4-.7-.6.3-.3.5-.6.7-.6zm-.9 61.4c-.2-.2-.2-.5-.2-.7 0-.2 0-.3.1-.4.1-.1.2-.2.4-.2.3 0 .6.2.7.4.1.3.1.6.1.9 0 .1 0 .1-.1.2s-.2.1-.2.1c-.3-.1-.6-.1-.8-.3zm.6 4.3c-.2.2-.4.4-.8.6-.3-.4-.5-.6-.6-.8.2-.2.5-.6.7-.5.3.1.5.5.7.7zm-.2-95.1c-.1.1-.2.1-.3.1-.5.1-1-.1-1.4-.4h-.1c.4-.1.8-.2 1.2-.2.2 0 .3 0 .5.1.1 0 .2.2.1.4zm-1.5 115.1c.6.8 1.3 1.7 1.4 2.7.2 1.1-.3 2.4.9 3.4-.1.1-.3.2-.4.2-.2-.2-.5-.3-.7-.6-.2-.3-.3-.7-.4-1.1 0-1.2-.4-2.1-1.4-2.7-.4-.3-.5-1.1-.5-1.7.2-.7.8-.5 1.1-.2zm4.2 32.2.9-.9s.5.3.4.4c-.2.4-.5.8-.9 1.4-.2-.5-.4-.8-.4-.9zm.9-14.5c-.2-.2-.6-.5-.5-.6.1-.4.4-.8.8-1.6.4.6.9 1 .8 1-.3.5-.8.8-1.1 1.2zm1.8-38.8c-.1-.4-.3-.8-.3-.9.2-.2.5-.4.8-.6.1 0 .4.5.4.5-.1.4-.4.6-.9 1zm.7-76.7c-.3 0-.4-.4-.4-.7 0-.3 0-.6.1-.8.1-.2.5-.4.7-.3l.3.6c-.2.1-.3.4-.3.6 0 .3-.2.6-.4.6zm.4 60.7h.4l.4-.1c.3 0 .4.4.2.5-.1.1-.4.1-.4.3v.2c0 .1-.1.1-.2.1-.2 0-.3-.2-.4-.4s0-.4 0-.6zm2.6-26.4c0 .3-.2.6-.4.5-.3-.1-.3-.5-.2-.7.1-.2.2-.4.2-.6v.1c.2.2.4.4.4.7zm10.8 46.1c.5 3.1 1 6.2 1.7 9.2.3 1.5 1.1 2.8 1.7 4.2.2.6.4 1.1.6 1.7-.2.3-.3.5-.4.8-.2-.2-.5-.3-.6-.6-1.8-3.2-3-6.6-3.6-10.2-.1-.9-.7-1.8-.2-2.7.1-.2-.1-.5-.2-.8-.1-.3-.3-.7-.3-1 .2-.9-.1-1.5-.7-2.1-.2-.2-.2-.7-.2-1.1.3.1.7 0 1 .2.7.7 1.1 1.4 1.2 2.4zm-.3-17.4c.2 0 .3-.1.4-.1.4.4.7.9 1.1 1.4-.2.1-.4.4-.5.3-.7-.3-1-.8-1-1.6zm5.6-20.8c-.4.8-.8 1.5-1.2 2.2-.1.2-.6.3-.8.3-.1 0-.3-.4-.3-.6-.1-.7 1.6-2 2.3-1.9zm-1.9-57.9c.2-.2.5-.2.7-.3l.1.4c.1.1.2.1.4.2.1.1.1.4-.1.5-.2.1-.4.1-.6.2-.3 0-.6-.1-.8-.3 0-.2.1-.5.3-.7zm6 82.7.5.2c.4.1.6.5.5.9 0 .4-.2.7-.3 1.1 0 .1 0 .1-.1.2s-.3.1-.4 0c-.3-.3-.4-.7-.4-1.1.2-.5.3-.9.2-1.3zm2.8 36.8c.2.4.4.6.5.9.3.9.3 1.8 1.4 2.3.2.1.2.5.2.8-.1.6-.3 1.2-.4 1.8-.1.2-.2.5-.3.5-.2.1-.5 0-.6-.2-.5-.5-.6-1-.2-1.6.4-.6.4-1.2-.3-1.6-.6-.4-.9-1.7-.6-2.4-.1-.1 0-.2.3-.5zm-.2-24.5c.1-.2.1-.4.2-.5.4.1.8.3 1.3.4-.1.2-.2.5-.3.7l-1.2-.6zm3.3 33.8c.5.4.8 1 1.1 1.5.4.6.9 1.1 1.3 1.7.3.4.6.8.8 1.1-.2.7-.2 1.2-.4 1.6-.2.4-.6.9-1 1-.2.1-.7-.5-1-.9-.4-.5-.2-.8.4-1.1.9-.3 1-1 .2-1.7l-2.4-2.4c-.1-.2-.1-.8 0-.8.3-.1.8-.2 1 0zm-.9-29.2c0-.1.1-.2.2-.3.3-.2.6-.3 1-.4h.3c.2.2.2.6 0 .8-.2.2-.5.3-.8.2-.1 0-.3-.1-.4-.1-.1 0-.3-.1-.3-.2zm2 78.6c-.1.1-.3 0-.5 0v.1c-.4-.1-.7-.1-1.1-.2-.6-.2-.9-.7-.7-1.4.2-.7.7-.8 1.3-.7.5.1 1 .2 1.3.4.3.2.6.7.7 1.1 0 .3-.7.6-1 .7zm1.4 5.1c-.3 1.4-1.6 1.7-2.1 2.1.3-.7.6-1.9 2.1-2.1zm-6.4-12.8c-.4.6-2.3 1.4-2.7 1.2-.2-.1-.5-.5-.5-.8 0-.2.4-.4.6-.5.1-.1.3 0 .4 0 .7 0 1.4.1 2.2.1zm-1.9-3.3c.2-.3.4-.5.7-.8.1.2.4.4.3.6 0 .3-.3.5-.6.9-.1-.4-.4-.6-.4-.7zm.9-4.1c-.1-.2-.3-.5-.6-.5-1.6-.3-.9-2.1-1.9-2.8.3-.7.5-1.3.8-1.9.1-.2.5-.3.7-.4.1.3.3.6.2.8-.6 1.1-.3 1.8.8 2.3.3.1.4.7.6 1 .3.6.6.8 1.1.3.3-.3.7-.8 1.1-.2.2.3 0 .8 0 1.2 0 .1-.1.2-.2.3-1.2 1.7-1.6 1.7-2.6-.1zm-2.5 2.9c-.1.1-.3.1-.4.2-.5-.2-1.1-.4-1.6-.7-.2-.1-.3-.6-.2-.8.6-.9 1.1-1.7 2.5-2-.1 1.2-1.9 2-.3 3.3zm-.3-40.4c.5.7.8 1.4 1.1 2.2-.3.1-.7.1-1-.2l-.1-.1c-.4-.5-.4-1.3 0-1.9zm5.7 41c.1-.1.4-.1.5-.1.2.1.3.3.5.6-.6.7-1.1 1.4-1.6 2.1-.2-.2-.5-.5-.5-.6.3-.6.7-1.3 1.1-2zm3.5-15c-.1.1-.5-.1-.7-.1.1-.2.2-.5.3-.6.4-.3.9-.6 1.3-.8l.2.2c-.3.4-.7.9-1.1 1.3zm-5-12.8.4.2c.5.2.8.8.7 1.3 0 .1 0 .1-.1.2-.1 0-.1.1-.2.1H414.6v-.1c-.1-.5 0-1 .2-1.5-.1-.2.1-.3.2-.2zm-.4-99.4c-.2.2-.5.1-.8 0-.5-.1-1-.3-1.3-.8.4-.1.8-.1 1.3 0l.4-.1c.2-.1.5.1.6.3 0 .2-.1.4-.2.6zm-2.5 71.6c.4.5.8.9 1.2 1.3.5.5.6 1 0 1.5s-.6.9 0 1.4c.2.2.3.6.3.9.1.5.3 1 .3 1.6 0 .3-.1.7-.2 1.1-.3-.1-.9-.2-1-.4-.3-.8-.6-1.7-.5-2.6.1-2.3-.7-4.3-1.2-6.4-.1-.4.1-.8.1-1.2.3.3.7.5 1 .8.7.6.7 1.4 0 2zm-.6-5.7c-.3-.1-.6 0-.8-.2-.2-.2-.3-.5-.3-.8 0-1 0-1.9.1-2.9h.4c.1.3.3.6.3.9.2.8.3 1.5.4 2.3.1.2-.1.4-.1.7zm-.1-85H410l.2-.1c-.2-.1-.3-.3-.3-.5-.1-.5-.1-1.1.3-1.3.4-.1.7.2 1 .5.2.5.4 1 .2 1.4zm-1.3 35.3c-.5.1-1 0-1.4-.1l.1-.1c-.2-.1-.3-.3-.3-.6v-1.1h.1c.4 0 .8.3 1.1.7.3.3.4.8.4 1.2zm-1.2 20.6c.5.3.9.6 1.6 1.2-.6.4-1.1.8-1.1.7-.4-.4-.7-.9-1-1.4 0-.1.4-.5.5-.5zm-1.7-3.2c.3.2.5.5 1 .9-.4.4-.7.8-1 .8-.2 0-.7-.5-.7-.6.2-.4.5-.7.7-1.1zm-.9-7.1c.2-.2.4-.5.7-.5.2 0 .4.2.9.5-.5.3-.7.6-1 .6-.2-.1-.4-.4-.6-.6zm.2 17.5c.5.3.8.8 1.3 1.3-.2.3-.4.6-.5.6-.6-.2-1.3-.4-1.9-.8-.2-.1 0-.8 0-1.2.4 0 .9-.1 1.1.1zm-.7 5c.9.1 1.4-.1 1.4-1.2 0-.2.4-.4.6-.6l.6.6c-.4.8-.8 1.6-1.2 2.2-.1.2-.6.3-.9.2-.4-.2-.7-.5-1.1-.8.2-.1.4-.4.6-.4zm.9 79.9.2.1c0 .2.2.3.3.5V501.7h-.1c-.3 0-.6 0-.8-.3-.1-.2 0-.5.1-.7-.1 0 .1-.3.3-.4zm-.3-9.5c.3-.3.5-.6.8-.9.1.1.3.2.4.3-.2.3-.4.6-.7.9 0 0-.3-.2-.5-.3zm1.2-45.6c.5 1.1.4 2.3.3 3.6 0 .5-.1 1.1-.3 1.6-.1.2-.3.6-.4.6-.3 0-.6-.2-.7-.4-.2-.2-.2-.5-.2-.8 0-1-.1-2-.8-2.8-.1-.1 0-.8.3-.9.5-.4 1.1-.6 1.8-.9zm-4.8 30.1c-.1-.7-.5-1.4.3-2.1.4.9.8 1.7 1.2 2.5.1.2.1.4 0 .6-.6.8-1.1 1.7-1.8 2.5-.1.1-.6.2-.7.1-.2-.3-.4-.7-.5-1.1 0-.2.2-.5.4-.6 1.3-.5 1.3-.5 1.1-1.9zm1.6 9.4c.3.5.7.8.6.9-.2.3-.5.6-.8.8-.1.1-.7-.5-.6-.5.1-.3.4-.6.8-1.2zm-2.7-66h-.4c0-.4-.1-.9-.1-1.3h.5v1.3zm-.1 1.8c-.1.7-.1 1.3-.2 2.1-.9-.9-.9-1.4.2-2.1zm-1.1-34.2c-.3.1-.7 0-1-.1l.1-.1c.1-.3.2-.6.5-.8.2-.2.6-.2.8.1.2.3-.1.7-.4.9zm-1.7 66.9c.2 0 .3.1.4.2.2.3.3.7.3 1.1 0 .1 0 .2-.1.2-.1.1-.3.1-.5.1v-.2c-.1-.4-.2-.9-.1-1.4zm-.3-19.1c-.2 0-.4-.3-.5-.4.2-.2.4-.4.6-.7.3.3.4.5.6.7-.3.1-.5.3-.7.4zm.6-56.8c-.3 0-.6-.4-.9-.7.3-.3.5-.7.8-.7.3 0 .6.3 1.2.6-.6.4-.9.8-1.1.8zm0-24.3c-.1.2-.3.3-.6.3-.2 0-.5-.1-.7-.1-.2-.1-.3-.1-.4-.3-.1-.2.1-.4.3-.4.2-.1.4 0 .6 0h.4c0 .1.1.2.2.2s.2.1.2.2c.1 0 .1 0 0 .1zm-1.1 55.7c-.1.2-.4.2-.6.2-.2 0-.5-.1-.7-.1-.1 0-.2 0-.2-.1-.1-.1-.1-.2-.2-.4-.1-.4-.1-.8-.2-1.2l.4-.3c.3.1.5.3.8.4.1.1.2.1.2.2v.3c.1.5.6.7.5 1zm-1.1 29.7.5.5c-.2.4-.5.7-.9 1.1-.3-.4-.6-.8-.5-.8.2-.3.5-.6.9-.8zm-1.1 37.6c0 .3 0 .7-.2 1-.2-.1-.4-.1-.6-.2-.1 0-.1 0-.1-.1v-.2c0-.6 0-1.1.1-1.7l.3-.1c.2-.2.5-.1.7-.1.1 0 .2.1.2.1.1.1.1.2 0 .2 0 .1-.1.1-.2.1-.1.1-.2.2-.2.4v.6zm.3 12.4c.3.4.6.7.6.9 0 .2-.3.5-.5.7-.2-.2-.6-.4-.6-.6 0-.3.3-.5.5-1zm0-38.6c-.5.3-.9.6-1 .6-.3-.1-.6-.5-.9-.8 0 0 .4-.6.5-.6.4.2.8.4 1.4.8zm-.9 7c.4 0 1 0 1.1.4v.3c-.1.1-.2.1-.3.1-.7.1-1.6.1-2.1-.5l.1-.1c.5-.1.9-.2 1.2-.2zm-3.4 19.1c0-.3.1-.6.2-1h.1c.4.3.7.8.5 1.2 0 0 0 .1-.1.1 0 0-.1 0-.1.1-.2 0-.4.1-.5-.1-.1-.1-.1-.2-.1-.3zm-.9-4c-.1-.5-.1-1 0-1.6l.2-.1c.3-.1.6 0 .8.2.2.2.2.6 0 .8-.2.4-.7.4-1 .7zm1.6-1.9c0-.1.4-.6.5-.6.3.1.5.4.9.7-.4.3-.7.6-.8.6-.2-.2-.4-.4-.6-.7zm.9-7.1c.3.1.6.5.6.8 0 .4-.3.7-.7.7-.1 0-.2 0-.3-.1-.1-.1-.1-.2-.1-.2 0-.2-.1-.5 0-.7.1-.2.4-.3.6-.1l-.1-.4zm.1-29c-.1.2-.5.3-.6.1-.2-.1-.2-.4-.1-.6.1-.2.2-.3.4-.5h.2c.1 0 .2.2.2.3.1.2.1.5-.1.7zm.3 43.2c.2.4.4.7.4.9 0 .1-.4.4-.5.4-.2 0-.5-.3-.5-.5.1-.3.3-.5.6-.8zm.3-63c0 .2-.1.5-.3.6-.2.2-.5.2-.6 0-.1-.1-.1-.2-.1-.3v-1.1l.3-.2c.2-.1.5.1.6.3.1.2.1.5.1.7zm-.4-10.7c-.1.4-.3.8-.7.8-.3 0-.5-.2-.6-.5-.1-.3-.1-.5 0-.8 0-.2 0-.4.2-.6s.3-.3.5-.3l.3.5c.2 0 .3.1.4.3s0 .4-.1.6zm-1.6 24.1c.2 0 .3.1.5.2s.3.2.5.4c.1.2.2.4.1.5-.5.2-1.1-.1-1.3-.6l-.1-.2c0-.3.2-.3.3-.3zm-.3 7.7c.1 0 .5.4.5.5 0 .2-.3.5-.6.9-.3-.4-.6-.7-.5-.8.1-.2.4-.5.6-.6zm-.4-74.1c-.2 0-.3-.1-.5-.1 0-.4 0-.8.1-1.2l.2-.1c.1.1.2.3.3.5.1.3.1.7-.1.9zm-1.2 121.1c.1-.2.4-.3.6-.4 1.5.6 2.4-.3 3.3-1.2.2-.2.8-.1 1.2-.2-.1.4 0 .8-.2 1.2-.4.7-.8 1.4-1.3 2-.1.2-.4.4-.6.4-.1 0-.4-.2-.5-.4-.3-1-.8-1-1.6-.6-.2.1-.7 0-.9-.2v-.6zm7.9-6.8c-.3-.3-.6-.5-1-.8.1-.1.3-.4.4-.4.3.2.6.5 1 .7-.2.2-.3.3-.4.5zm.2-1.8.4-.1c.3 0 .6.1.9.3s.5.4.6.7c.1.3-.1.6-.3.6-.2 0-.3-.1-.4-.3l-1.2-1.2zm.8 12.6c.2-.1.3-.1.5-.2s.3-.1.5-.1c.3.1.5.4.5.7 0 .1.1.2 0 .3s-.1.2-.2.1l-.1-.2c-.4 0-.9.1-1.3-.2l-.1-.1c0-.2.1-.2.2-.3zm1.7 12.3c.6.6 1.1 1.1 1.5 1.6 0 0-.4.5-.5.5-.6-.4-1.1-.7-1.6-1.2.1 0 .3-.4.6-.9zm5.4 10.9c.6 0 1.3 0 1.5 1.1-.2.2-.7.7-.8.6-.5-.3-.9-.8-1.3-1.2.2-.2.4-.6.6-.5zm1.4-12.7c-.2.1-.4.2-.6.2h-.1v-.1c0-.4.1-.9.2-1.3h.3l.5.5c.1.1.1.1.1.2.1.2-.2.4-.4.5zm-.6-12.3c-.2.1-.5-.4-.8-.6.3-.3.6-.6 1-.8.2-.1.5.2 1 .5-.5.5-.8.8-1.2.9zm.3-58.7c-.2-.1-.5-.4-.6-.6-.1-.1.1-.5.2-.6.3-.1.7-.1.9.1.5.4.9.9 1.3 1.3l-.2.2c-.5-.2-1.1-.3-1.6-.4zm1.1 6.1c.2-.3.5-.5.7-.7.3-.3.6-.5.9-.7.2.5.5 1.1.7 1.6 0 .1-.7.3-1.1.5h-.1c-.3 0-.6.1-.8 0-.5 0-.6-.3-.3-.7zm2.5 69.1c.5 1.4-.3 2.3-2.1 2.6.6-.8 1.3-1.6 2.1-2.6zm9.7 5.3c-.1-.5 0-1.1 0-1.7h.5c.2.4.6.8.7 1.2.1.3-.2.6-.2.9-.5-.1-1-.2-1-.4zm3.1-67c.3-.9.1-1.5-.8-1.9-.2-.1-.4-.7-.3-.8.3-.4.8-.8 1.2-1.1.2.2.5.5.6.8.2.5.2 1.1.3 1.7h-.1c0 .5.2 1 .1 1.4-.1.3-.5.6-.7.9-.1-.4-.3-.7-.3-1zm1.2 36.9c.4.4.7.9 1.2 1.4-.4.3-.6.5-.8.6-.3-.5-.7-.9-1-1.4 0 0 .4-.3.6-.6zm1.3 26.1c.1-.1.1-.2.1-.4.3-1 1.1-1.5 2.1-.9.2.1.3.6.3.7-.8 1.4-1.7 2.7-2.6 4.1-.1.1-.3.1-.4.2-.2-1.3-.3-2.6.5-3.7zm.8-108c-.1.1-.3.2-.4.1-.1-.1-.4-.3-.3-.4.2-.7.5-1.4.8-2.1.1-.1.4-.2.5-.2.2.1.3.3.4.6-.3.7-.7 1.4-1 2zm1.1 51.7v.3c0 .2 0 .5-.1.7 0 .1 0 .1-.1.1H427.2v-.1c0-.4 0-.8.3-1.1l.4.1c0-.1.1 0 .2 0zm-1.5-3.9h.5c.1.2.2.4.3.5 0 .1.1.1.1.2V443.6c-.1.1-.1.1-.2.1h-.8c-.1 0-.1 0-.2-.1 0 0-.1-.1-.1-.2v-.8c.1-.2.2-.4.4-.6zm1.1 49c-.3-.5-.4-.7-.5-.9-.1-.6.6-1.6 1.3-1.6.2 0 .4.2.6.3-.4.7-.8 1.3-1.4 2.2zm-.2-10.7.1-.2c.2-.4.5-.8.7-1.1.1-.1.1-.2.2-.2s.2.1.2.2c.2.4.3.9.3 1.4v.1l-.1.1c-.5 0-1-.1-1.4-.3zm.2-13.9c-.3-.1-.6-.4-.7-.7-.1-.3-.1-.8.1-.9.2-.2.7-.1 1 0 .6.3 1.2.6 1.8 1 .1.1.3.4.3.4-.2.2-.4.3-.7.5 0-.1 0-.2-.1-.2-.5-.1-1.1 0-1.7-.1zM264 300.8c-.1.1-.4.2-.4.3-.4 1.4-1.7 1.9-2.6 2.8-.3.3-.5.7-.6 1.1-.2.7-1.5 1.8-2.3 1.6-.8.1-1.5.2-2.3.2-.2 0-.4-.2-.6-.3.1-.2.3-.5.4-.5 1.1 0 1.2-.8 1.4-1.6.1-.4.4-.9.8-1.2 2.3-1.9 4.7-3.7 7.1-5.5.7-.6 1.5-1.2 2.3-1.6.3-.2 1 0 1.2.2.2.3.1.9.1 1.4 0 .2-.3.4-.5.5-1.3.9-2.7 1.8-4 2.6zm1.9 2c-.3.6-.7 1.2-1 1.8-.1.1-.3.2-.5.3-.1-.2-.3-.3-.4-.5-.2-.6.8-2 1.5-2.1.1 0 .4.4.4.5zm-6 6.4c-.7.5-1.4.9-2.1 1.3-.4-.2-.7-.3-.8-.5-.1-.2.1-.5.2-.7.6-.6 1.3-1.2 2.2-.9.3.1.6.8.5.8zm-8.7 4.8c-.1-.2.1-.9.3-.9 1.1-.2 1.1-1 1.1-1.9.1-.7.2-1.5.6-2.1.2-.3.9-.3 1.4-.5 0 .4 0 .9-.1 1.3-.3.8-.4 1.3.6 1.5.2 0 .4.3.8.6l-.7.7c-.6.5-1.2.9-1.8 1.4-.9.7-1.8.8-2.2-.1zm.8 14c0 .2-.3.4-.5.6-.2-.2-.5-.4-.6-.7 0-.2.3-.4.5-.9.3.5.6.8.6 1zm5.3-31.4c.1-.1.2-.2.3-.2 1.2-.2 2.4-.4 3.7-.6l.2.2c-.4.3-.7.6-1.1.8-.6.4-1.3.8-1.8 1.2-.5.4-.9.5-1.3 0s-.5-1 0-1.4zm10.8-27.9c-.4-.6-.7-1.2-1.1-1.8h.5c1 .2 1.7 1.4 1.3 2.4-.3 0-.5-.3-.7-.6zm-2-11.8c.4-.3.8-.7 1.2-1 0 0 .5.4.5.6-.1.4-.3.8-.6 1.3-.6-.4-.9-.6-1.1-.9zm-2-1.8c.7.2 1.2.5 1.3 1.3-.2.1-.3.2-.4.1-.5-.3-.9-.6-1.4-1 .2 0 .4-.4.5-.4zm-.6-1.3c-.1.1-.7.1-.9-.1-.1-.1-.1-.6 0-.9.3-.6.5-1.3.9-1.9.2-.3.6-.5.9-.6.2 0 .4.4.8.7-.6 1.1-1.1 2-1.7 2.8zm1.8 6.6.1.1c.3.2.5.4.7.7.1.3.1.7-.2.9-.2.2-.7.2-.9-.1-.1-.1-.1-.3-.1-.5-.1-.4 0-.9.4-1.1zm-3.1-11.6c-.2.2-.6.3-1 .4-.1-.3-.3-.7-.3-1-.1-.5-.1-.9-.2-1.6.1-.1.1-.4.3-.4.2-.1.5.1.6.2.3.4.7.8.9 1.2.1.4-.1.9-.3 1.2zm-16 78.7c-.1-.3-.5-.4-.4-.6 0-.1.1-.1.1-.1.3-.1.5-.2.8-.2.3 0 .7.2.6.5-.1.2-.4.3-.6.3-.1 0-.3 0-.5.1zm-.3 4.9c.9-.1 1.9-.1 2.3-1.2 0-.1.6-.1.7 0 .2.2.3.6.2.9-.2 1-2.9 1.6-3.8.7.2-.2.4-.3.6-.4zm2.3-6.8c-.4-.2-.7-.6-1-.9.3-.2.6-.7.8-.7.4.1.8.4 1.1.7v.4c-.3.2-.7.6-.9.5zm-4-3.3-.3.3c-.3.1-.6.1-.9.2.1-.3 0-.7.2-.9.7-.8 1.5-1.6 2.1-2.4 1.1-1.3 2-2.6 3.1-3.9.2-.3.7-.6 1-.5.4.2.7.6 1.1 1-.4.4-.6.8-.9 1-1.7 1.7-3.5 3.5-5.4 5.2zm-.7 16.5c-.9-1.4.8-1.7.9-2.7.1 0 .2 0 .4.1 0 .3.2.8 0 .9-.6.6-.3 1.1.1 1.7.4.6.1 1.4-.6 1.5-.5.1-1-.1-.8-.8 0-.3.1-.6 0-.7zm-2.1 4.3c0 .6-.1 1.2-.3 1.7-.1.3-.7.3-1.1.5-.1-.4-.3-.7-.4-1.1-.1-.4 0-.9.1-1.3-.4 0-.9.1-1.3 0-.3 0-1-.2-1-.3.1-.5.2-1.1.4-1.6l.9.3c.4.2.7.4 1.1.6l.6-1.2c.3-.4.5-1 .9-1.2.3-.2.9.1 1.3.2 0 .1.1.3.1.4-1.5.5-1.4 1.7-1.3 3zm-9 4.2c-.2-.2-.1-1.1.2-1.4.7-.8 1.5-1.6 2.8-1.5.3.1.7.1.9.3.3.4.5.8.8 1.3-.4 0-.9.1-1.3 0-1.2-.4-1.6-.3-2.3.8-.2.3-.5 1-1.1.5zm-.3 9.8c-.2.2-.4.3-.8.6-.1-.5-.3-.8-.3-1.1 0-.5 0-.9.1-1.4.1-.4.4-.7.6-1.1.3.2.5.5.8.7.7.9.4 1.6-.4 2.3zm4.7-7.6c0-.2.1-.4.3-.5h.2c.3 0 .5.2.6.5.1.3 0 .6-.1.8-.2.3-.6.6-1 .4l-.1.1c-.1-.4 0-.9.1-1.3zm2.4-13.6c0 .1 0 .1-.1.1h-1.3c0-.2-.1-.4.1-.5.1-.1.2-.1.3-.1h.6c.2 0 .5.3.4.5zm0-10c.2-.4.2-.8.5-1.1.2-.3.6-.6 1-.7.3-.1.7.2 1.4.4-.4.5-.6.8-.9 1-.2.2-.5.3-.8.3-.4.1-.8 0-1.2.1zm14.6 23.3c.2-.6.9-.6 1-.3.1.7-.2 1.5-.3 2.2-.2-.1-.5-.2-.6-.4-.1-.2 0-.5 0-1-.1 0-.2-.3-.1-.5zm.8-4.3c-.1 0-.4-.4-.4-.6 0-.2.3-.4.5-.5.2 0 .4.3.7.5-.4.4-.6.6-.8.6zm-4.1 4.3c-.1-.1.3-.5.4-.8h.4c.1.3.4.6.4.9 0 .6 0 1.2-.2 1.8-.1.4-.6.7-1 .9-.1.1-.6-.2-.7-.4-.1-.1.1-.5.2-.7.6-.4 1.1-.9.5-1.7zm1.1-2.8c-.1.3-.4.4-.9.8-.2-.5-.5-.9-.5-1.1.1-.7.4-1.5.7-2.2.1-.2.5-.5.7-.4.2.1.5.5.5.7-.1.8-.2 1.5-.5 2.2zM239.9 363c-.3-.8-.9-.4-1.4-.2-.3.1-.7-.2-1-.3.2-.3.4-.8.6-.8.9-.2 1.3-.7 1-1.6-.1-.2.1-.5.2-.7.2.1.6.2.6.4.4 1.2.7 2.4 1.1 3.6-.2 1.4-.7 1.9-2.1 1.9-.2 0-.5-.3-.7-.4.2-.2.3-.4.5-.7h.1c.6-.2 1.4-.4 1.1-1.2zm-2.1 5.4c.1.2-.5.7-.8.8-.5.2-1 .2-1.8.3-.1-.1-.5-.3-.6-.6-.1-.3.1-.8.3-.9.7-.3 1.4-.6 2.1-.6.3 0 .7.6.8 1zm4.3-1.1c.2-.4.5-.6.9-1.1.2.4.5.7.4.8-.2.3-.5.6-.8.9-.1-.2-.5-.5-.5-.6zm6-6.9c-.1.3-.3.6-.6 1.1-.2-.4-.4-.7-.4-.8.2-.3.4-.5.6-.8.1.1.4.3.4.5zm12.6 12.6c-.5.2-.7.4-.9.4-.2 0-.4-.3-.6-.5.2-.1.4-.4.6-.4.2.1.5.3.9.5zm-5.7 4.2c-.6.3-.9.6-1.2.5-.3 0-.5-.4-.7-.6.3-.3.6-.6.9-.7.2-.1.5.4 1 .8zm-67.5 78.5c-.2.4-.3.9-.6 1-.8.4-1.6.6-2.5.9-.6-.3-1.2-.5-1.8-.8-.2-.1-.3-.5-.3-.7.1-.2.4-.4.6-.4 1.2.2 2.3-.1 3.4-.5.4 0 .8.3 1.2.5zm-3.3 23.4c0 .1-.2.3-.4.5-.2-.2-.5-.3-.6-.6-.1-.1.2-.4.4-.9.3.5.5.7.6 1zm-1.9 9.8c.1 0 .1.1.2.2.1.2-.1.3-.2.4-.2.1-.4.2-.7.1-.1 0-.2 0-.3-.1 0 0-.1-.1-.1-.2-.1-.4 0-.9.3-1.2l.4-.2c0 .4.1.8.4 1zm-1.8-12.8c-.1.2-.3.1-.5.1-.4-.1-.8-.2-.8-.6.2-.1.5-.1.7 0l.4.1c.1.1.3.3.2.4zm-3.9 7.6c0-.2.1-.5.3-.4.2 0 .3.2.5.2l.4-.2v.7c0 .2 0 .4-.2.5-.3.2-.6-.3-.9-.2 0-.2-.1-.4-.1-.6zm-11-15.7c0-.2 0-.5-.1-.6-1-1-.2-1.5.4-2.1.7-.7 1.6-.5 1.5.5-.1 1.5.1 2.9.1 4.4 0 .4 0 .9.1 1.3 0 .3 0 .8-.1.8-.3.1-.7.1-.9 0-.4-.3-.6-.7-.9-1.1.1 0 .2-.1.3-.1-.2-1.1-.3-2.1-.4-3.1zm194.8 127c-1.4.2-2.2.4-2.5.6-.5.3-.8.7-.9 1.1-.1.3-.1 1.1.1 2.3l2.4 14.8c.4 2.7.4 5.1-.2 7.1-.8 2.7-2.5 5-5 6.9-2.5 1.8-5.6 3.1-9.4 3.7-2.6.4-5.1.5-7.3.1s-4.2-1.1-6-2.1c-1.8-1.1-3.1-2.3-4-3.7-.9-1.4-1.5-3.5-2-6.4l-2.4-14.5c-.2-1.3-.4-2.2-.7-2.5-.2-.4-.5-.6-.9-.7s-1.1-.1-2.2.1l-2 .3-.9-5.2 20.9-3.4.9 5.2-2.1.3c-.9.2-1.6.4-2 .6s-.6.6-.7 1c-.1.4-.1 1.2.1 2.3l2.3 13.7c.4 2.6 1 4.4 1.8 5.6.8 1.2 1.8 2 3.1 2.4 1.3.5 2.8.6 4.5.3 1.7-.3 3.1-.9 4.3-1.8 1.2-.9 2-2 2.4-3.2.4-1.2.4-3.1-.1-5.6l-2.5-15.1c-.1-.6-.3-1.1-.5-1.3-.3-.3-.7-.5-1.1-.6-.3-.1-1 0-2.2.2l-1.7.3-.9-5.2 17.7-2.9.9 5.2-1.2.1zm63.2 2.9c-.5 2.1-1.7 4.2-3.6 6.1-1.9 1.9-5.1 3.9-9.5 6l-20.6 9.8-2.3-4.8 1.5-.7c1-.5 1.7-.9 2-1.2.3-.3.4-.7.5-1 0-.4-.2-1-.7-2l-9.2-19.2c-.5-1-.9-1.6-1.2-1.8-.3-.2-.6-.3-1.1-.3-.4 0-1.2.3-2.2.8l-1.5.7-2.3-4.8 22.3-10.6c3.4-1.6 6.3-2.6 8.5-2.8 2.3-.2 4.3.1 5.9.9 1.7.8 2.9 2 3.6 3.6.5 1.1.8 2.3.7 3.6-.1 1.3-.4 2.6-1.1 3.8-.7 1.3-1.7 2.6-3.2 3.9 2-.5 3.7-.7 4.9-.7 1.7 0 3.3.5 4.7 1.3 1.4.8 2.5 2 3.2 3.6 1 1.7 1.2 3.6.7 5.8zm.6-95.9c-.2.1-.5.1-.8.1h-.2c-.1-.1-.1-.2-.1-.4.1-.3.2-.5.3-.8h.2c.3 0 .6.1.9.3 0 0 .1 0 .1.1v.1c0 .3-.2.5-.4.6zm1.5 14.7c-.2-.3-.5-.6-.8-1.1l.9-.9c.2.3.6.7.6 1 0 .3-.4.6-.7 1zm1-5.8c-.1-.3-.3-.8-.1-1 .6-.9 1.3-1.8 2-2.7.2-.2.5-.2.8-.2.1 0 .3.3.4.6-.2.3-.3.6-.5.8-.5.8-1 1.6-1.7 2.3-.1.2-.5.2-.9.2zm2.4 6.9c-.1 0-.8-.6-.7-.8.2-.6.6-1.2.9-1.8.3.4.7.8 1.2 1.3-.5.6-.9 1-1.4 1.3zm1.4-60.3c-.5-.2-1-.5-1.5-.8.3-.3.7-.7 1-.7.4 0 .8.5 1.5.9-.5.4-.8.7-1 .6zm4.5 49.7c-1 .6-2.2 1.1-3.5 1.7.1-1 .1-1.7.2-2.3 0-.2.2-.5.4-.5.7-.3 1.5-.6 2.2-.7.4 0 1 .3 1.2.7.1.2-.2.9-.5 1.1zm1.6-16.5c-.1.3-.2.8-.6.8h-.4l-1.8-.3.4-.2c.7-.2 1.5-.4 2.3-.5h.2c-.1.1-.1.2-.1.2zm-.9-5.2c-.2.1-.5-.4-.8-.6.3-.3.6-.7 1-1.2.5.5.7.8 1 1-.4.4-.8.7-1.2.8zm1.4-8.3c-.3-.2-.6-.5-.9-.7.2-.2.4-.6.5-.5.3.1.6.3 1.2.6-.4.3-.7.6-.8.6zm0-35.2s-.5-.5-.5-.6c.2-.4.5-.7.9-1.2.3.5.5.8.5.9-.2.4-.6.7-.9.9zm2.7 62.3c-.1.2-.2.3-.4.5l-.9.9c-.2-.4-.3-.8-.4-1 .1-.5 0-.9.1-1.1.2-.3.6-.4 1-.5.2 0 .8.2.8.3.1.3 0 .6-.2.9zm.1-7.5c-.2.1-.6-.5-.9-.8.5-.3 1.1-.7 1.8-1.1l.8.8c-.6.4-1.1.9-1.7 1.1zm2.9 6.2c-.3-.3-.8-.7-.8-1 .1-.4.6-.7.9-1 .2.3.4.5.8.9-.4.5-.7.8-.9 1.1zm2-3.5c0 .1-.1.3-.3.4s-.3.1-.4 0h.2c-.3 0-.7-.2-.7-.5s.2-.7.6-.7c.3 0 .7.3.7.6-.1.1-.1.2-.1.2zm1-4.2c-.1 0-.5-.5-.7-.8-.4-.4-.9-.9-1.2-1.3-.2-.2-.1-.5-.2-.8.3 0 .5-.1.8-.1.6 0 1.2.1 1.8.2-.5 1.1-.5 1.1 1.5 1.8-.8.4-1.4.8-2 1zm.8-17.9c-1.1.7-1.5.6-2.1-.6-.3-.5-.6-.9-1.1-1.6.4.1.6 0 .6.1 1 1.1 1.9 1 3 .1.2-.2.7-.1 1.1-.1-.1.4-.1.8-.3 1.1-.3.4-.7.8-1.2 1zm1.4 2c.1-.4.5-.7.8-1l.7.7c-.4.5-.6.9-.9 1.2-.2-.3-.7-.7-.6-.9zm1.5 6.3-.3-.2c-.1-.1-.2-.3-.2-.4 0-.2.2-.3.4-.4h.6c.1 0 .1 0 .2.1.2.1.3.5.1.7-.2.3-.5.3-.8.2zm.8 5.7c-.1-.2-.5-.5-.4-.6.1-.5.4-.9.6-1.4l.8.8c-.4.5-.7.9-1 1.2zm3-17.8c-1.1.9-1.1.9-1.9-.1-.6-.7-1.2-.5-1.6.2-.2.3-.7.8-.9.7-.4-.2-.6-.6-.9-1 .3-.2.5-.6.8-.6.8 0 1.1-.2 1.1-1.1 0-.2.5-.6.6-.6 1.2.3 2.3.8 3.4 1.2.1 0 .2.2.3.4-.4.4-.6.7-.9.9zm1.6-68.6c0-.3 0-.5.2-.7.1-.2.4-.3.6-.2.1 0 .2 0 .3.1v1.2c0 .1 0 .2-.1.3-.1.2-.5.2-.6 0s-.4-.5-.4-.7zm3.2 70.2c-.1 0-.2.1-.2.1-.4 0-.7.1-1-.1-.3-.1-.6-.5-.5-.8 0-.2.2-.4.5-.5.2-.1.5-.1.7-.1l.5.5c.2 0 .3.3.3.5-.1.1-.1.3-.3.4zm-1.9-4.8c-.3.1-.7 0-.9-.2-.1-.1-.1-.6 0-.8.1-.2.5-.5.8-.5 1.4-.1 1.4-.1 1.6-1.5 0-.3.4-.5.6-.8.2.2.3.5.4.6-.2 1.7-1.2 2.9-2.5 3.2zm2-11.8c.3-.2.6-.5 1.1-.9.5.5 1 .8 1.2 1.3.1.1-.7.9-.8.9-.5-.4-1-.8-1.5-1.3zm2.7 7.9c-.1.1-.1.2-.2.2-.2.1-.5.1-.7.1 0-.1 0-.2.1-.3.4-.6.8-1.3 1.2-1.9l.4.1c0 .6-.4 1.2-.8 1.8zm4.6 3.6c-.5.8-.1.6-.5 1.2s0 .6-.5 1.8c-.5 1.2-1.1.8-1.2.9-.1.1-.1-.5 0-1.2-.3.6-.6 1.3-.9 1.9-.9-.6-.9-1.1-.1-2 .3-.4.4-1 .6-1.5.3-1 .7-2.1 1-3.1h.4c.1.7.2 1.3.3 2.1-.3.5-.5 1.1-.8 1.6v-.1c.3-.7.2-.5.8-1.3s.4-1.1 1.1-2c0 0 .5-.1.5.5s-.2.4-.7 1.2zm1.1-6.4c.1-.1.3-.2.4-.4.3-.5.6-1 .8-1.5.8-1.7.2-4.1 2.3-5.2-1.1 3-2.3 5.9-3.5 8.8-.9-.5-.8-.9 0-1.7zm3.9-4.9c-.4 1-.8 1.8-1.1 2.5-.3.7-.7 2.3-.7 2.3s-1.1 1.5-1.3 1.4c-.2-.1.2-.4 1.1-3.3s.2-1.3.7-2.6.5-.7 1.5-2.4h.2s0 1.1-.4 2.1zm1.3-6.6c-1.7-.5-2-1.4-1.1-3 .5.5 1 1 1.4 1.6.1 0 .1 0 .2-.1-.2.5-.4 1-.5 1.5zm1.2-13.6h.3c.1.3.4.7.3.9-.1.3-.4.5-.7.8-.2-.2-.5-.5-.5-.6.2-.4.4-.7.6-1.1zm1.4 9c0 .5-.1.1-.3 0s-.1-.2-.1-.5 0-.1.3-.5c0 0 .1.3.1.4v.6zm.8-6.9c-.8 3-1.7 6-2.6 9 .1-.6.1-1.3.2-1.9 0-.3.2-.6.3-.9.2-.3.5-.6.6-1 .8-2.8 1.6-5.6 2.1-8.4 0-.2.1-.4.1-.6-.2 1.3-.4 2.6-.7 3.8zm.4-7.6c-.1-.1-.2-.4-.2-.7 0-1.2-.1-2.4-.1-3.6 0-.8.5-1.1 1.3-.7.3.2.6.2.7.2-.3 2.1-.6 4.2-1 6.3 0-.5-.2-1-.7-1.5zm1.7-.5c-.1-.5.1-.8.1-1.6.1-.8-.3-.6 0-1.1.3-.4.2-.4.6-1.3s.5-.3 1.1-1c.6-.7.4-.4.9-1.3 0 0 .1.4 0 .8s.1.5-.2 1.3-.2.6-.3 1.5-.5.9-1.1 1.6c-.5.7-.3 1.3-.3 2.3s-.3 1.9-.3 1.9-.1-.8-.2-1.9c-.2-1.1-.3-.7-.3-1.2zm31.9 84c-6 .3-16.9 3.6-23.3 9-.7.6-1.8 0-1.7-.9.9-7.6-1.9-18.3-6.5-25.5-.4-.7 0-1.6.8-1.6 9.7-.3 18.9-3.3 23.7-7.2.7-.6 1.7-.1 1.7.8-.1 6.2 1.3 16.6 6 23.7.6.8.1 1.7-.7 1.7zm35.5-107.4-.1 4.4-12.7 3.7-1.5-5.8c2.8-1.9 4.7-3.4 5.7-4.5s1.8-2.4 2.4-3.9c.6-1.5.9-2.9.9-4.3 0-2-.4-3.8-1.4-5.6s-2.4-3.1-4.3-4.1c-1.9-1-4.2-1.6-7-1.6-3 0-5.6.5-7.8 1.5s-3.9 2.5-5 4.2c-1.1 1.7-1.7 3.7-1.7 5.8 0 1.5.2 2.9.7 4.3.5 1.3 1.1 2.3 1.7 2.8.6.5 1.5.8 2.6.8h1.4c1 0 1.6 0 1.8-.2.4-.2.6-.5.8-.9.2-.4.3-1.1.3-2.3V401l5.3.1-.3 21.2-5.3-.1v-1.6c0-1-.1-1.8-.2-2.1-.2-.4-.4-.7-.8-.9-.4-.2-1-.3-2-.3l-11.9-.2.1-6.4 2.8-1.6c-1.1-2-1.9-4-2.4-6.1-.5-2.1-.8-4.3-.7-6.6.1-4 1-7.6 2.7-10.8s4.2-5.8 7.2-7.6c3.1-1.9 6.5-2.7 10.3-2.7 3.7.1 7.1 1.1 10 3 2.9 1.9 5.2 4.6 6.9 8 1.6 3.4 2.4 7.1 2.4 11 0 1.9-.3 3.8-.7 5.7-.5 1.9-1.1 3.5-1.8 4.8l1.6 1.4z"/><path d="M115.4 523.2c3.8.9 7.9 2.4 11.7 4.3.6-4.4 1.9-9 3.6-13.2-4.4-.7-8.6-1.9-12.2-3.4-.5 4-1.5 8.3-3.1 12.3zM452.9 250.3c2.4 2.5 4.5 4.1 6.5 4.8 2 .7 4.1.8 6.4.3 2.3-.6 4.4-1.8 6.5-3.8 2-1.9 3.4-4 4.1-6.2.7-2.2.8-4.2.3-6-.5-1.8-1.9-3.8-4-6l-3.3-3.5-17.1 16.5c-.6.6-.9.9-1 1.1-.1.3 0 .6.1.9.1.4.6 1 1.5 1.9zM214.1 416.1c-.7 1-1.5 2-2.2 2.9-.2.2-.5.3-.7.4-.3.2-.6.4-.9.7-.1.1.2.7.3.6.4 0 .7-.2 1.1-.3.3-.1.5-.5.7-.5.8.2 1.3-.2 1.5-.9.1-.1.2-.3.3-.4 1-.3 1.2-.9.6-1.8-.1-.2 0-.8.2-.9.8-.5 1.1-1.1 1.1-2 0-.3.6-.8.8-.7 1.8.8 3-.3 4.3-1.2.6-.4 1.2-1 1.5-1.6.4-1.1 1.1-1.9 2.3-2.2 0 .6 1.1 1.8 1.7 1.6.4-.1.8-.8.9-1.3.1-.3-.3-.8-.4-1.2-.2-.3-.4-.6-.8-1.1.6 0 1 .1 1.3 0 .3-.1.9-.3.9-.6.2-1.5.4-3 .4-4.6 0-.6.3-1 .9-.9.5.1 1 .3 1.5.5.3.1.7.3.9.2.2-.1.2-.6.3-.8.2-.5.4-1.1.6-1.6.3-.6.7-1.1.9-1.7.2-.7.3-1.4-.6-1.7-1.1-.4-1.9-.2-2.3.6-.3.8-.8 1-1.6.8-.2-.1-.5 0-.7.2-.1.1 0 .4.1.6.1.3.2.7.2 1-.4 0-.8 0-1.2-.1-.2 0-.3-.2-.6-.3-.4.2-.7.4-1.1.5-.3.1-.8.1-1.1.2-.5.2-1 .5-1.3.8-.4.4-.6 1-.9 1.6-.6.9-.3 1.5.7 1.8.4.1.9.5.9.8 0 .6-.1 1.3-.4 1.6-.4.4-1.1.1-1.6-.3s-1.4-.7-1.9-.5c-.8.3.2.8.2 1.3 0 .4-.2.8-.4 1.2-.2.2-.6.2-.9.3-.1-.3-.1-.7-.2-1-.1-.3-.3-.6-.4-.9-.3.2-.7.3-.9.5-.1.2 0 .6.1.9.2.3.5.4.9.8-.6.3-1 .5-1.5.7-.7.3-1.1.7-.8 1.6.2.7 0 1.2-.8 1.4-.7.2-.8.7-.9 1.4-.2 1.3-.6 2.5-.9 3.8.2-.3 0-.2-.1-.2zM191.9 418.6c.2-.1.3-.4.5-.6.3-.3.6-.7 1-1 1.3-1.1 2.6-2.1 3.1-3.8.3-1 .7-1.4 1.8-.8.1-.5.3-.9.2-1.2-.2-.8.1-1.1.8-1.3.9-.2.8-.7.5-1.4-.1-.3-.3-.9-.2-1 .5-.4.8 0 1.2.3.2.2.8.3 1 .1.6-.6 1.1-1.2 1.8-2.2-1.3 0-1.9-.5-2.2-1.5-.1-.2-.7-.4-.9-.3-.2.1-.5.5-.5.8 0 .6-.1.9-.8 1-.8.1-1.2.7-1.4 1.6-.1.4-.2.9-.5 1.2-.9.7-.9 2.1-2.1 2.5-.1 0-.1.2-.2.4-.3 1.9-1.3 3.3-2.6 4.7-.5.5-.9 1-1.3 1.5-.2.2-.1.6-.1.9.4.2.7.2.9.1zM216.3 429.1c.1-.4 0-1.1-.2-1.3-.3-.2-.9-.2-1.3 0-.8.4-1.5.8-2.4.4-.3-.1-.7.2-1.1.3.1.3.1.7.3 1 .5.7.5 1.2-.2 1.7-.8.6-1.9.5-2.6-.2-.4-.4-.7-.5-1.2-.1-.4.3-.9.5-1.4.7-.7.3-1.5.4-2.1.8-.3.2-.7.7-.6.9.2.7.7.3 1.3.2 1.1-.3 2.3-.5 3.4-.6 1-.1 2.1.2 3.1.2 1.3 0 1.7-.4 1.8-1.7 0-.3.1-.7.2-1.1.9.3 1.1.9 1.4 1.6.2.4.6.8 1 .9.2.1.8-.3.9-.5.1-.5.2-1.1 0-1.5-.5-.5-.5-1-.3-1.7zM183.2 451.3c.8.1.8-.5.9-1.1.1-1.5.1-3 .9-4.4.1-.2.1-.6 0-.9-.3-1.3.1-2.3 1-3.2.6-.7 1.2-1.3 1.7-2 .6-.9 1.1-2 1.7-3-.2-.4-.3-.7-.5-.8-.2-.1-.5.1-.8.3-.2.1-.3.3-.4.5-1.2 2.2-3.3 3.8-4.1 6.2-.3.7-.9 1.3-.5 2.1.1.2.1.7-.1.9-.9 1.2-.4 2.7-.7 4.1-.3.7.2 1.2.9 1.3zM160.4 464.9c-.2-.5-.6-.5-.9-.1-.3.4-.5.8-.6 1.3-.1.9-.1 1.8-.2 2.6-.2 1.5.1 2.8 1 4 .4.4.6 1 .9 1.5l.9.9c.2-.4.6-.8.7-1.2.1-.9-.1-1.8-.1-2.6.1 0 .2 0 .3-.1-.8-2.2-1.4-4.2-2-6.3zM205.3 400l4.5-4.5c.4-.4.6-1 .9-1.5-.2-.3-.4-.8-.5-.8-.3 0-.7.2-.9.5-1.6 1.8-3 3.9-5.1 5.2 0 0-.1 0-.1.1-.4.5-.7 1-.1 1.5.5.3.9-.1 1.3-.5zM203.1 414.7c0 .3-.1.7-.3.9-.5.7-1.1 1.3-1.9 2.2.5-.1.8 0 1-.2.7-.6 2.1-.5 1.8-2 0 0 0-.1.1-.1.8-.1.9-.8 1.2-1.4.1-.2.5-.4.8-.5 1.1-.3 2-1.8 1.6-2.8-.1-.3-.5-.7-.8-.7-.2 0-.7.4-.7.6-.1.9-.6 1.3-1.3 1.6-1.2.6-1.6 1.3-1.5 2.4zM199 432.3c-1.1-.7-1.8-.5-2.1.8-.1.2 0 .5-.2.7-.7 1 0 1.2.7 1.3.3.1.6 0 .9 0 1-.2 1.9-.7 2.9-.2.2.1.5-.2.8-.3 0-.2.1-.3.1-.5-.6-.5-1.3-1-2-1.5-.2-.1-.8-.1-1.1-.3zM188.8 446.4c-1.1-.1-1.6.3-1.4 1.3.1 1 .7 1.9 1.7 2.1.8.1 1.8-.3 2.6-.6.2-.1.3-.7.2-1-.6-1.6-2.3-1.2-3.1-1.8zM167.7 453.8c-.1 0-.1.1-.2.1.2.3.4.8.5.8.4-.1.8-.3 1-.6.4-.6.7-1.4 1.1-2 .5-.9 1-1.7 1.4-2.5.1-.2-.1-.6-.2-1-.3.1-.6.2-.8.4-.7.7-1.3 1.4-2 2-.7.7-1.7 1.2-.8 2.4v.4zM232.6 409.8c-.3 0-.6.2-.8.4-.1.2 0 .5 0 .8h-.1c.1.4.1.9.3 1.3.3.6.8 1.2 1.2 1.7.2.2.6.4.8.3.2-.1.6-.5.5-.7-.4-1.2-.9-2.3-1.4-3.4 0-.2-.3-.4-.5-.4zM208.2 400.1c-.3.1-.6.3-.8.6-.2.2-.2.4-.3.6-.2.3-.5.7-.8.9-.5.3-1 .7-.8 1.4.2.4.7.6.8.8 1.5.1 1.8-.3 1.4-1.3-.3-.6-.1-1 .5-1.2.3-.1.4-.7.5-1.1 0-.3-.4-.7-.5-.7zM249.7 368.1c.3-.3.7-.5 1-.8.2-.3.4-.7.4-1.1.1-.4.3-1 .1-1.2-.4-.4-1-.6-1.4-.6-.2 0-.5.8-.7 1.2-.1.2 0 .5-.1.7 0 .3-.1.6 0 .9.2.3.5.6.7.9zM212 392.6c.8-.5 1.6-1.1 2.4-1.7.2-.2.3-.4.6-.9-.5-.2-1-.6-1.2-.5-1 .6-1.9 1.3-2.8 2.1-.1.1 0 .7.1 1 .2.1.7.1.9 0zM217.2 391.2c.1-.1.2-.4.3-.5l.2.2c.5-.1 1.2-.1 1.4-.4.3-.4.3-1 .3-1.6 0-.1-.5-.3-.8-.3-.2.1-.5.4-.6.6-.3.7-.7 1-1.5.8-.3 0-.8.5-.9.8-.1.2.3.6.5 1 .4-.2.8-.4 1.1-.6zM284.8 369.9c.7.3 1.4.7 2.1.8.3.1.8-.2 1.1-.5.1-.1.1-.7-.1-.8-.6-.4-1.4-.8-2-1.2-.5.2-.9.3-1.2.5-.5.4-.5.9.1 1.2zM209.8 397.9c-.4 1.1-.6 2.2-.1 3.4 1.6-1 1.9-1.7 1.2-3.3-.1-.2-.3-.5-.5-.5s-.5.2-.6.4zM243.6 401.1c.4-.2.7-.4 1-.7.3-.2.8-.5.7-.8-.1-.5-.3-1.1-.6-1.4-.4-.3-.8-.1-.8.5v1.2c-.4-.1-.6-.2-.8-.1-.3 0-.8.2-.8.3.1.4.2.9.4 1.3.1 0 .6-.2.9-.3zM263.1 385.6c.7 0 1.2-.4 1.2-1.1 0-.7-.8-1.4-1.7-1.2-.4.1-.9.6-1.1 1-.1.6.7 1.2 1.6 1.3zM239.3 392.6c.5-.4 1.1-.7 1.4-1.2.3-.6-.5-1.5-1.1-1.5-.6 0-1.4.7-1.5 1.3 0 .8.4 1.2 1.2 1.4zM241.2 397.3c.8.2.9-.6.8-1.2 0-.8 0-1.6-.9-1.6-.3 0-.8.9-.8 1.3 0 .6.5 1.5.9 1.5zM247.6 396.4c.1-.2.6-.5.6-.7 0-1.2-1.1-.9-1.8-1.2-.2-.1-.7.3-.8.6-.2.6.7 1.2 2 1.3zM235.9 328.5c-.1-.6-.8-.8-1.1-.3-.5.6-.7 1.4-1 2.2 1.2.3 2.3-.9 2.1-1.9zM246 381.1c.4-.5.9-.9 1.5-1.6l-1-.8c-.5.4-1 .9-1.3 1.5-.2 0 .4.5.8.9zM228.6 412c.3.2.6.5.9.5.7.1 1-.3 1.1-1.1-.3-.4-.6-.7-.9-1.1-.4.6-.8 1.2-1.1 1.7zM224.6 415.6c0 .9.8 1.8 1.4 1.8.2 0 .5-.5.5-.5-.4-.7-.9-1.3-1.3-1.9-.3.2-.5.5-.6.6zM204.3 402.1c-.3-.3-.5-.6-1-1-.6.5-1 .9-1.4 1.3.3.3.7.8.9.7.6-.2 1-.6 1.5-1zM221.5 388.3c.1.2.3.4.4.3.2-.1.4-.3.5-.4.1-.2 0-.5 0-.8 0-.2.1-.4 0-.5-.1-.3-.3-.7-.5-.9-.2-.1-.6 0-.8.2-.1.2-.1.6-.1.9.1.5.3.9.5 1.2zM201.5 419.7c.3.4.6.7.8 1.1.4-.4.8-.8 1.1-1.2-.4-.4-.8-.7-1.2-1.1-.1.3-.4.6-.7 1.2zM237.7 400.9l.9-.9c-.3-.6-.6-1.1-.8-1.5-.3.5-.7 1-.9 1.5-.1.2.5.6.8.9z"/><path d="M217.3 417c-.3 0-.5.5-.9 1 .5.5.8.8 1.2 1.1.3-.3.7-.6.7-.9 0-.6-.2-1.2-1-1.2zM216 425.8c.3.3.6.8 1 .9.3.1.6-.5 1-.7-.3-.3-.6-.7-1-1.1-.4.4-.7.7-1 .9zM221.7 390c.1-.1-.3-.4-.4-.7-.4.4-.9.7-1.3 1.1-.1.1.3.5.6 1.1.5-.7.9-1.1 1.1-1.5zM225.6 387.1c-.5-.4-.8-.8-.9-.7-.4.3-.8.7-1.1 1.1.3.2.6.6.8.5.4-.1.7-.5 1.2-.9zM204 405.4c.4.3.7.5 1.3.8l.8-.8c-.3-.2-.6-.7-.9-.7-.5.1-.9.4-1.2.7zM250.2 397.5c.3-.1.9-.5.8-.7 0-.3-.4-.7-.7-1l-1.1 1.1c.6.3.9.7 1 .6zM410.2 524c.1.3.3.7.6.8.2.1.6-.3 1.1-.6-.5-.4-.8-.7-1.2-.8 0 0-.5.5-.5.6zM249 390.9c.2 0 .4-.4.8-.7-.5-.3-.8-.6-1.1-.7-.2 0-.6.6-.5.7.1.3.4.6.8.7zM245.5 370.4c0-.2-.5-.6-.7-.6-.3 0-.7.4-.7.6 0 .2.4.5.7.9.4-.4.7-.6.7-.9zM166.2 453.4c0-.2-.3-.5-.4-.7-.2.3-.6.5-.7.9-.1.2.2.4.5.9.3-.5.6-.8.6-1.1zM240.1 400.6c-.3.1-.5.4-.8.6.3.2.6.5.9.5.2 0 .5-.3 1-.6-.6-.3-.9-.5-1.1-.5zM245.5 308.7c.3 0 .6-.4 1-.7-.5-.3-.8-.5-1.1-.5-.2 0-.5.4-.5.6 0 .2.4.6.6.6zM204.6 417.2c-.2.2-.6.4-.6.7 0 .2.3.5.6.9.3-.5.6-.8.6-1-.1-.1-.4-.3-.6-.6zM233.4 331.5c0-.1-.3-.4-.5-.6-.2.2-.5.4-.7.7-.1.2.2.5.4 1 .5-.5.7-.8.8-1.1zM216 394.4c0 .2.4.6.6.6.2 0 .4-.4.8-.7-.4-.3-.7-.6-.9-.5-.2 0-.5.3-.5.6zM236.6 397.3c-.1-.3-.4-.5-.6-.7-.2.2-.5.5-.5.7 0 .2.3.5.6 1 .3-.5.5-.7.5-1zM208.3 409.7c0 .2.3.4.5.8.3-.4.5-.6.6-.8 0-.2-.3-.5-.4-.5-.3.1-.7.3-.7.5zM216.9 423c0 .2.3.4.5.6.2-.2.4-.4.6-.5.1-.2.2-.3.3-.5-.3-.1-.6-.3-.8-.3-.3.2-.6.5-.6.7zM210.3 421.8c0-.2-.2-.4-.3-.6-.2.2-.5.3-.6.6-.1.2.1.5.2.7h.3c.1-.2.4-.5.4-.7zM240.4 400c.2.1.3.1.5.2.2-.3.4-.6.6-1-.3-.1-.5-.2-.8-.3-.1.4-.2.7-.3 1.1zM240.8 404c.2 0 .3 0 .5.1.1-.4.2-.8.2-1.2-.2 0-.5-.1-.7-.1v1.2zM244.5 393.1c.1 0 .5-.3.5-.5-.1-.2-.3-.4-.6-.7-.2.3-.5.6-.4.7 0 .2.3.5.5.5zM245.1 309.9c0 .2.3.4.5.8.3-.3.5-.5.6-.7-.2-.2-.4-.4-.7-.5 0-.1-.4.2-.4.4zM217.8 393.2c0 .2.3.5.5.5.2.1.5-.1.8-.2-.1-.2-.2-.3-.3-.5-.2-.2-.4-.3-.5-.5-.2.4-.5.6-.5.7zM260.9 381.6c.1 0 .3-.2.6-.4-.3-.3-.5-.5-.8-.6-.1 0-.3.2-.5.4.3.2.4.5.7.6zM380.4 482.8c.2.1.4-.3.8-.5-.4-.3-.6-.6-.8-.7-.2 0-.6.4-.5.5 0 .3.3.7.5.7zM276.1 404.2c.9.2 1.6-.2 2.2-1.2.2-.3.6-.5 1-.7.5-.3 1.1-.5 1.4-.9.3-.3.2-.9.4-1.4-.5 0-1-.1-1.4.2-1.4.8-2.9 1.6-4.2 2.5-.4.3-.7.7-1 1.1.5.2.9.3 1.4.5-.1 0 0-.1.2-.1zM282.7 394.8c0-1-.9-.8-1.5-.9-.3 0-.5.4-.8.7.4.4.9.8 1.5 1.4.3-.6.8-.9.8-1.2zM268.1 406c.2-.1.3-.3.5-.4.3-.2.6-.4.9-.5.2-.1.5-.2.6-.4.1-.1-.1-.5-.2-.5-.3-.1-.6-.2-.8-.1-.4.2-.9.5-1.2.8-.1.1-.2.4-.2.6 0 .2.2.3.4.5zM287.5 391.9c.3-.2.5-.5 1-.8-.4-.3-.7-.7-.8-.6-.3.1-.7.4-.7.7-.2.1.3.4.5.7zM277.4 284c-.1.2-.5.4-.6.8-.1.5 1 1.3 1.7 1.2.3-.1.8-.4.8-.8.1-.6-.9-1.3-1.9-1.2zM304.4 286.8c0-.4-.5-.8-.8-1.1-.5.4-.9.9-1.4 1.3l1.2 1.2c.4-.6 1-1 1-1.4zM294.8 346.6c0-.3-.4-.6-.6-.9-.3.3-.7.7-.8 1.1-.1.2.4.5.8 1.1.3-.6.6-.9.6-1.3zM311.5 330.8c-.2-.4-.5-.7-.9-1 0 0-.7.4-.6.6.1.4.4.8.8 1.4.3-.5.7-.9.7-1zM221 441c.2.1.7-.2.9-.5.3-.5.5-1.1.6-1.7.1-.3 0-.8-.2-1-.2-.2-.8-.1-1 .1-.5.6-.9 1.3-1.3 2.2.4.3.7.7 1 .9zM201.3 467.8c.2.1.5-.5 1-.9-.5-.4-.8-.7-1.1-1-.3.3-.8.7-.8 1 0 .3.5.8.9.9z"/></svg>