<svg version="1.1" id="Calque_2" xmlns="http://www.w3.org/2000/svg" x="0" y="0" width="612" height="326.6" style="enable-background:new 0 0 612 326.6" xml:space="preserve"><style>.st2{fill:#fff}.st3{fill:#1a1a1e}.st15{fill:#e43533}</style><pattern x="-90" y="702" width="69" height="69" patternUnits="userSpaceOnUse" id="Unnamed_Pattern" viewBox="2.1 -70.9 69 69" style="overflow:visible"><path style="fill:none" d="M2.1-70.9h69v69h-69z"/><path style="fill:#f7c059" d="M2.1-70.9h69v69h-69z"/><path class="st2" d="M61.8-71.7v.2c-.1.1-.1.1-.2.1-.1.1-.1.3-.1.4-.2.1 0 .2 0 .3v.2c0 .1 0 .3.1.4.1.2.3.4.4.5.2.1.4.6.6.6.2 0 .4-.1.5-.1.2 0 .4 0 .6-.1.2-.1.1-.3.3-.5.1-.1.3 0 .4-.1.2-.1.3-.3.4-.5v-.2c0-.1.1-.2.1-.3 0-.1-.1-.1-.1-.2v-.3c0-.2 0-.4-.1-.5-.4-.7-1.2-.9-2-.8-.2 0-.3.1-.4.2-.2.1-.1.2-.3.2-.1 0-.2.1-.2.2v.3c0 .1 0 .1 0 0M54.1-71.7v.2c-.1.1-.1.1-.2.1-.1.1-.1.3-.1.4-.2.1 0 .2 0 .3v.2c0 .1 0 .3.1.4.1.2.3.4.4.5.2.1.4.6.6.6.2 0 .4-.1.5-.1.2 0 .4 0 .6-.1.2-.1.1-.3.3-.5.1-.1.3 0 .4-.1.2-.1.3-.3.4-.5v-.2c0-.1.1-.2.1-.3 0-.1-.1-.1-.1-.2v-.3c0-.2 0-.4-.1-.5-.4-.7-1.2-.9-2-.8-.2 0-.3.1-.4.2-.2.1-.1.2-.3.2-.1 0-.2.1-.2.2v.3c0 .1 0 .1 0 0M46.4-71.7v.2c-.1.1-.1.1-.2.1-.1.1-.1.3-.1.4-.2.1 0 .2 0 .3v.2c0 .1 0 .3.1.4.1.2.3.4.4.5.2.1.4.6.6.6.2 0 .4-.1.5-.1.2 0 .4 0 .6-.1.2-.1.1-.3.3-.5.1-.1.3 0 .4-.1.2-.1.3-.3.4-.5v-.2c0-.1.1-.2.1-.3 0-.1-.1-.1-.1-.2v-.3c0-.2 0-.4-.1-.5-.4-.7-1.2-.9-2-.8-.2 0-.3.1-.4.2-.2.1-.1.2-.3.2-.1 0-.2.1-.2.2v.3c0 .1 0 .1 0 0M38.8-71.7v.2c-.1.1-.1.1-.2.1-.1.1-.1.3-.1.4-.2.1 0 .2 0 .3v.2c0 .1 0 .3.1.4.1.2.3.4.4.5.2.1.4.6.6.6.2 0 .4-.1.5-.1.2 0 .4 0 .6-.1.2-.1.1-.3.3-.5.1-.1.3 0 .4-.1.2-.1.3-.3.4-.5v-.2c0-.1.1-.2.1-.3 0-.1-.1-.1-.1-.2v-.3c0-.2 0-.4-.1-.5-.4-.7-1.2-.9-2-.8-.2 0-.3.1-.4.2-.2.1-.1.2-.3.2-.1 0-.2.1-.2.2v.3c0 .1 0 .1 0 0M31.1-71.7v.2c-.1.1-.1.1-.2.1-.1.1-.1.3-.1.4-.2.1 0 .2 0 .3v.2c0 .1 0 .3.1.4.1.2.3.4.4.5.2.1.4.6.6.6.2 0 .4-.1.5-.1.2 0 .4 0 .6-.1.2-.1.1-.3.3-.5.1-.1.3 0 .4-.1.2-.1.3-.3.4-.5v-.2c0-.1.1-.2.1-.3 0-.1-.1-.1-.1-.2v-.3c0-.2 0-.4-.1-.5-.4-.7-1.2-.9-2-.8-.2 0-.3.1-.4.2-.2.1-.1.2-.3.2-.1 0-.2.1-.2.2v.3c0 .1 0 .1 0 0M23.4-71.7v.2c-.1.1-.1.1-.2.1-.1.1-.1.3-.1.4-.2.1 0 .2 0 .3v.2c0 .1 0 .3.1.4.1.2.3.4.4.5.2.1.4.6.6.6.2 0 .4-.1.5-.1.2 0 .4 0 .6-.1.2-.1.1-.3.3-.5.1-.1.3 0 .4-.1.2-.1.3-.3.4-.5v-.2c0-.1.1-.2.1-.3 0-.1-.1-.1-.1-.2v-.3c0-.2 0-.4-.1-.5-.4-.7-1.2-.9-2-.8-.2 0-.3.1-.4.2-.2.1-.1.2-.3.2-.1 0-.2.1-.2.2v.3c0 .1 0 .1 0 0M15.8-71.7v.2c-.1.1-.1.1-.2.1-.1.1-.1.3-.1.4-.2.1 0 .2 0 .3v.2c0 .1 0 .3.1.4.1.2.3.4.4.5.2.1.4.6.6.6.2 0 .4-.1.5-.1.2 0 .4 0 .6-.1.2-.1.1-.3.3-.5.1-.1.3 0 .4-.1.2-.1.3-.3.4-.5v-.2c0-.1.1-.2.1-.3 0-.1-.1-.1-.1-.2v-.3c0-.2 0-.4-.1-.5-.4-.7-1.2-.9-2-.8-.2 0-.3.1-.4.2-.2.1-.1.2-.3.2-.1 0-.2.1-.2.2v.3c0 .1 0 .1 0 0M8.1-71.7v.2l-.2.2c-.1.1-.1.3-.1.4-.2.1 0 .2 0 .3v.2c0 .1 0 .3.1.4.1.2.3.4.4.5.2.1.4.6.6.6.2 0 .4-.1.5-.1.2 0 .4 0 .6-.1.2-.1.1-.3.3-.5.1-.1.3 0 .4-.1.2-.1.3-.3.4-.5v-.2c0-.1.1-.2.1-.3 0-.1-.1-.1-.1-.2v-.3c0-.2 0-.4-.1-.5-.4-.7-1.2-.9-2-.8-.2 0-.3.1-.4.2-.2.1-.1.2-.3.2-.1 0-.2.1-.2.2v.2c0 .1 0 .1 0 0M.4-71.7v.2c-.1.1-.1.1-.2.1-.1.1-.1.3-.1.4-.2.1 0 .2 0 .3v.2c0 .1 0 .3.1.4.1.2.3.4.4.5.2.2.4.6.6.7.2 0 .4-.1.5-.1.2 0 .4 0 .6-.1.2-.1.1-.3.3-.5.1-.1.3 0 .4-.1.2-.1.3-.3.4-.5v-.2c0-.1.1-.2.1-.3 0-.1-.1-.1-.1-.2v-.3c0-.2 0-.4-.1-.5-.4-.7-1.2-.9-2-.8-.2 0-.3.1-.4.2-.2.1-.1.2-.3.2-.1 0-.2.1-.2.2v.2c0 .1 0 .1 0 0"/><g><path class="st2" d="M69.4-71.7v.2c-.1.1-.1.1-.2.1-.1.1-.1.3-.1.4-.2.1 0 .2 0 .3v.2c0 .1 0 .3.1.4.1.2.3.4.4.5.2.1.4.6.6.6.2 0 .4-.1.5-.1.2 0 .4 0 .6-.1.2-.1.1-.3.3-.5.1-.1.3 0 .4-.1.2-.1.3-.3.4-.5v-.2c0-.1.1-.2.1-.3 0-.1-.1-.1-.1-.2v-.3c0-.2 0-.4-.1-.5-.4-.7-1.2-.9-2-.8-.2 0-.3.1-.4.2-.2.1-.1.2-.3.2-.1 0-.2.1-.2.2v.3c0 .1 0 .1 0 0"/></g><path class="st2" d="M.5-71.7v.2c-.1.1-.1.1-.2.1-.1.1-.1.3-.1.4-.2.1 0 .2 0 .3v.2c0 .1 0 .3.1.4.1.2.3.4.4.5.2.2.3.6.6.7.2 0 .4-.1.5-.1.2 0 .4 0 .6-.1.2-.1.1-.3.3-.5.1-.1.3 0 .4-.1.2-.1.3-.3.4-.5v-.2c0-.1.1-.2.1-.3 0-.1-.1-.1-.1-.2v-.3c0-.2 0-.4-.1-.5-.4-.7-1.2-.9-2-.8-.2 0-.3.1-.4.2-.2.1-.1.2-.3.2-.1 0-.2.1-.2.2v.2c0 .1 0 .1 0 0"/><g><path class="st2" d="M69.4-64v.2c-.1.1-.1.1-.2.1-.1.1-.1.3-.1.4-.2.1 0 .2 0 .3v.2c0 .1 0 .3.1.4.1.2.3.4.4.5.2.1.4.6.6.6.2 0 .4-.1.5-.1.2 0 .4 0 .6-.1.2-.1.1-.3.3-.5.1-.1.3 0 .4-.1.2-.1.3-.3.4-.5v-.2c0-.1.1-.2.1-.3 0-.1-.1-.1-.1-.2v-.3c0-.2 0-.4-.1-.5-.4-.7-1.2-.9-2-.8-.2 0-.3.1-.4.2-.2.1-.1.2-.3.2-.1 0-.2.1-.2.2v.3M61.8-64v.2c-.1.1-.1.1-.2.1-.1.1-.1.3-.1.4-.2.1 0 .2 0 .3v.2c0 .1 0 .3.1.4.1.2.3.4.4.5.2.1.4.6.6.6.2 0 .4-.1.5-.1.2 0 .4 0 .6-.1.2-.1.1-.3.3-.5.1-.1.3 0 .4-.1.2-.1.3-.3.4-.5v-.2c0-.1.1-.2.1-.3 0-.1-.1-.1-.1-.2v-.3c0-.2 0-.4-.1-.5-.4-.7-1.2-.9-2-.8-.2 0-.3.1-.4.2-.2.1-.1.2-.3.2-.1 0-.2.1-.2.2v.3M54.1-64v.2c-.1.1-.1.1-.2.1-.1.1-.1.3-.1.4-.2.1 0 .2 0 .3v.2c0 .1 0 .3.1.4.1.2.3.4.4.5.2.1.4.6.6.6.2 0 .4-.1.5-.1.2 0 .4 0 .6-.1.2-.1.1-.3.3-.5.1-.1.3 0 .4-.1.2-.1.3-.3.4-.5v-.2c0-.1.1-.2.1-.3 0-.1-.1-.1-.1-.2v-.3c0-.2 0-.4-.1-.5-.4-.7-1.2-.9-2-.8-.2 0-.3.1-.4.2-.2.1-.1.2-.3.2-.1 0-.2.1-.2.2v.3M46.5-64v.2c-.1.1-.1.1-.2.1-.1.1-.1.3-.1.4-.2.1 0 .2 0 .3v.2c0 .1 0 .3.1.4.1.2.3.4.4.5.2.1.4.6.6.6.2 0 .4-.1.5-.1.2 0 .4 0 .6-.1.2-.1.1-.3.3-.5.1-.1.3 0 .4-.1.2-.1.3-.3.4-.5v-.2c0-.1.1-.2.1-.3 0-.1-.1-.1-.1-.2v-.3c0-.2 0-.4-.1-.5-.4-.7-1.2-.9-2-.8-.2 0-.3.1-.4.2-.2.1-.1.2-.3.2-.1 0-.2.1-.2.2v.3M38.8-64v.2c-.1.1-.1.1-.2.1-.1.1-.1.3-.1.4-.2.1 0 .2 0 .3v.2c0 .1 0 .3.1.4.1.2.3.4.4.5.2.1.4.6.6.6.2 0 .4-.1.5-.1.2 0 .4 0 .6-.1.2-.1.1-.3.3-.5.1-.1.3 0 .4-.1.2-.1.3-.3.4-.5v-.2c0-.1.1-.2.1-.3 0-.1-.1-.1-.1-.2v-.3c0-.2 0-.4-.1-.5-.4-.7-1.2-.9-2-.8-.2 0-.3.1-.4.2-.2.1-.1.2-.3.2-.1 0-.2.1-.2.2v.3M31.1-64v.2c-.1.1-.1.1-.2.1-.1.1-.1.3-.1.4-.2.1 0 .2 0 .3v.2c0 .1 0 .3.1.4.1.2.3.4.4.5.2.1.4.6.6.6.2 0 .4-.1.5-.1.2 0 .4 0 .6-.1.2-.1.1-.3.3-.5.1-.1.3 0 .4-.1.2-.1.3-.3.4-.5v-.2c0-.1.1-.2.1-.3 0-.1-.1-.1-.1-.2v-.3c0-.2 0-.4-.1-.5-.4-.7-1.2-.9-2-.8-.2 0-.3.1-.4.2-.2.1-.1.2-.3.2-.1 0-.2.1-.2.2v.3M23.5-64v.2c-.1.1-.1.1-.2.1-.1.1-.1.3-.1.4-.2.1 0 .2 0 .3v.2c0 .1 0 .3.1.4.1.2.3.4.4.5.2.1.4.6.6.6.2 0 .4-.1.5-.1.2 0 .4 0 .6-.1.2-.1.1-.3.3-.5.1-.1.3 0 .4-.1.2-.1.3-.3.4-.5v-.2c0-.1.1-.2.1-.3 0-.1-.1-.1-.1-.2v-.3c0-.2 0-.4-.1-.5-.4-.7-1.2-.9-2-.8-.2 0-.3.1-.4.2-.2.1-.1.2-.3.2-.1 0-.2.1-.2.2v.3M15.8-64v.2c-.1.1-.1.1-.2.1-.1.1-.1.3-.1.4-.2.1 0 .2 0 .3v.2c0 .1 0 .3.1.4.1.2.3.4.4.5.2.1.4.6.6.6.2 0 .4-.1.5-.1.2 0 .4 0 .6-.1.2-.1.1-.3.3-.5.1-.1.3 0 .4-.1.2-.1.3-.3.4-.5v-.2c0-.1.1-.2.1-.3 0-.1-.1-.1-.1-.2v-.3c0-.2 0-.4-.1-.5-.4-.7-1.2-.9-2-.8-.2 0-.3.1-.4.2-.2.1-.1.2-.3.2-.1 0-.2.1-.2.2v.3M8.2-64v.2c-.1.1-.2.1-.2.1-.1.1-.1.3-.1.4-.2.1 0 .2 0 .3v.2c0 .1 0 .3.1.4 0 .2.2.4.3.5.2.1.4.6.6.6.2 0 .4-.1.5-.1.2 0 .4 0 .6-.1.2-.1.1-.3.3-.5.1-.1.3 0 .4-.1.2-.1.3-.3.4-.5v-.2c0-.1.1-.2.1-.3 0-.1-.1-.1-.1-.2v-.3c0-.2 0-.4-.1-.5-.4-.7-1.2-.9-2-.8-.2 0-.3.1-.4.2-.2.1-.1.2-.3.2-.1 0-.2.1-.2.2.1.3.1.2.1.3-.1 0-.1 0 0 0M.5-64v.2c-.1.1-.1.1-.2.1-.1.1-.1.3-.1.4-.2.1 0 .2 0 .3v.2c0 .1 0 .3.1.4.1.2.3.4.4.5.2.1.4.6.6.6.2 0 .4-.1.5-.1.2 0 .4 0 .6-.1.2-.1.1-.3.3-.5.1 0 .3.1.4 0 .2-.1.3-.3.4-.5v-.2c0-.1.1-.2.1-.3 0-.1-.1-.1-.1-.2v-.3c0-.2 0-.4-.1-.5-.4-.7-1.2-.9-2-.8-.2 0-.3.1-.4.2-.2.1-.1.2-.3.2-.1 0-.2.1-.2.2v.2"/><g><path class="st2" d="M69.4-56.3v.2c-.1.1-.1.1-.2.1-.1.1-.1.3-.1.4-.2.1 0 .2 0 .3v.2c0 .1 0 .3.1.4.1.2.3.4.4.5.2.1.4.6.6.6.2 0 .4-.1.5-.1.2 0 .4 0 .6-.1.2-.1.1-.3.3-.5.1-.1.3 0 .4-.1.2-.1.3-.3.4-.5v-.2c0-.1.1-.2.1-.3 0-.1-.1-.1-.1-.2v-.3c0-.2 0-.4-.1-.5-.4-.7-1.2-.9-2-.8-.2 0-.3.1-.4.2-.2.1-.1.2-.3.2-.1 0-.2.1-.2.2v.3M61.8-56.3v.2c-.1.1-.1.1-.2.1-.1.1-.1.3-.1.4-.2.1 0 .2 0 .3v.2c0 .1 0 .3.1.4.1.2.3.4.4.5.2.1.4.6.6.6.2 0 .4-.1.5-.1.2 0 .4 0 .6-.1.2-.1.1-.3.3-.5.1-.1.3 0 .4-.1.2-.1.3-.3.4-.5v-.2c0-.1.1-.2.1-.3 0-.1-.1-.1-.1-.2v-.3c0-.2 0-.4-.1-.5-.4-.7-1.2-.9-2-.8-.2 0-.3.1-.4.2-.2.1-.1.2-.3.2-.1 0-.2.1-.2.2v.3M54.1-56.3v.2c-.1 0-.1 0-.2.1s-.1.3-.1.4c-.2.1 0 .2 0 .3v.2c0 .1 0 .3.1.4.1.2.3.4.4.5.2.1.4.6.6.6.2 0 .4-.1.5-.1.2 0 .4 0 .6-.1.2-.1.1-.3.3-.5.1-.1.3 0 .4-.1.2-.1.3-.3.4-.5v-.2c0-.1.1-.2.1-.3 0-.1-.1-.1-.1-.2v-.3c0-.2 0-.4-.1-.5-.4-.7-1.2-.9-2-.8-.2 0-.3.1-.4.2-.2.1-.1.2-.3.2-.1 0-.2.1-.2.2v.3M46.5-56.3v.2c-.1.1-.1.1-.2.1-.1.1-.1.3-.1.4-.2.1 0 .2 0 .3v.2c0 .1 0 .3.1.4.1.2.3.4.4.5.2.1.4.6.6.6.2 0 .4-.1.5-.1.2 0 .4 0 .6-.1.2-.1.1-.3.3-.5.1-.1.3 0 .4-.1.2-.1.3-.3.4-.5v-.2c0-.1.1-.2.1-.3 0-.1-.1-.1-.1-.2v-.3c0-.2 0-.4-.1-.5-.4-.7-1.2-.9-2-.8-.2 0-.3.1-.4.2-.2.1-.1.2-.3.2-.1 0-.2.1-.2.2v.3M38.8-56.3v.2c-.1.1-.1.1-.2.1-.1.1-.1.3-.1.4-.2.1 0 .2 0 .3v.2c0 .1 0 .3.1.4.1.2.3.4.4.5.2.1.4.6.6.6.2 0 .4-.1.5-.1.2 0 .4 0 .6-.1.2-.1.1-.3.3-.5.1-.1.3 0 .4-.1.2-.1.3-.3.4-.5v-.2c0-.1.1-.2.1-.3 0-.1-.1-.1-.1-.2v-.3c0-.2 0-.4-.1-.5-.4-.7-1.2-.9-2-.8-.2 0-.3.1-.4.2-.2.1-.1.2-.3.2-.1 0-.2.1-.2.2v.3M31.1-56.3v.2c-.1.1-.1.1-.2.1-.1.1-.1.3-.1.4-.2.1 0 .2 0 .3v.2c0 .1 0 .3.1.4.1.2.3.4.4.5.2.1.4.6.6.6.2 0 .4-.1.5-.1.2 0 .4 0 .6-.1.2-.1.1-.3.3-.5.1-.1.3 0 .4-.1.2-.1.3-.3.4-.5v-.2c0-.1.1-.2.1-.3 0-.1-.1-.1-.1-.2v-.3c0-.2 0-.4-.1-.5-.4-.7-1.2-.9-2-.8-.2 0-.3.1-.4.2-.2.1-.1.2-.3.2-.1 0-.2.1-.2.2v.3M23.5-56.3v.2c-.1.1-.1.1-.2.1-.1.1-.1.3-.1.4-.2.1 0 .2 0 .3v.2c0 .1 0 .3.1.4.1.2.3.4.4.5.2.1.4.6.6.6.2 0 .4-.1.5-.1.2 0 .4 0 .6-.1.2-.1.1-.3.3-.5.1-.1.3 0 .4-.1.2-.1.3-.3.4-.5v-.2c0-.1.1-.2.1-.3 0-.1-.1-.1-.1-.2v-.3c0-.2 0-.4-.1-.5-.4-.7-1.2-.9-2-.8-.2 0-.3.1-.4.2-.2.1-.1.2-.3.2-.1 0-.2.1-.2.2v.3M15.8-56.3v.2c-.1.1-.1.1-.2.1-.1.1-.1.3-.1.4-.2.1 0 .2 0 .3v.2c0 .1 0 .3.1.4.1.2.3.4.4.5.2.1.4.6.6.6.2 0 .4-.1.5-.1.2 0 .4 0 .6-.1.2-.1.1-.3.3-.5.1-.1.3 0 .4-.1.2-.1.3-.3.4-.5v-.2c0-.1.1-.2.1-.3 0-.1-.1-.1-.1-.2v-.3c0-.2 0-.4-.1-.5-.4-.7-1.2-.9-2-.8-.2 0-.3.1-.4.2-.2.1-.1.2-.3.2-.1 0-.2.1-.2.2v.3M8.2-56.3v.2c-.1 0-.2 0-.2.1-.1.1-.1.3-.1.4-.2.1 0 .2 0 .3v.2c0 .1 0 .3.1.4.1.2.3.4.4.5.2.1.4.6.6.6.2 0 .4-.1.5-.1.2 0 .4 0 .6-.1.2-.1.1-.3.3-.5.1-.1.3 0 .4-.1.2-.1.3-.3.4-.5v-.2c0-.1.1-.2.1-.3 0-.1-.1-.1-.1-.2v-.3c0-.2 0-.4-.1-.5-.4-.7-1.2-.9-2-.8-.2 0-.3.1-.4.2-.2.1-.1.2-.3.2-.1 0-.2.1-.2.2v.3c-.1 0-.1 0 0 0M.5-56.3v.2c-.1.1-.1.1-.2.1-.1.1-.1.3-.1.4-.2.1 0 .2 0 .3v.2c0 .1 0 .3.1.4.1.2.3.4.4.5.2.1.4.6.6.6.2 0 .4-.1.5-.1.2 0 .4 0 .6-.1.2-.1.1-.3.3-.5.1-.1.3 0 .4-.1.2-.1.3-.3.4-.5v-.2c0-.1.1-.2.1-.3 0-.1-.1-.1-.1-.2v-.3c0-.2 0-.4-.1-.5-.4-.7-1.2-.9-2-.8-.2 0-.3.1-.4.2-.2.1-.1.2-.3.2-.1 0-.2.1-.2.2v.3"/></g><g><path class="st2" d="M69.4-48.7v.2c-.1.1-.1.1-.2.1-.1.1-.1.3-.1.4-.2.1 0 .2 0 .3v.2c0 .1 0 .3.1.4.1.2.3.4.4.5.2.1.4.6.6.6.2 0 .4-.1.5-.1.2 0 .4 0 .6-.1.2-.1.1-.3.3-.5.1-.1.3 0 .4-.1.2-.1.3-.3.4-.5v-.2c0-.1.1-.2.1-.3 0-.1-.1-.1-.1-.2v-.3c0-.2 0-.4-.1-.5-.4-.7-1.2-.9-2-.8-.2 0-.3.1-.4.2-.2.1-.1.2-.3.2-.1 0-.2.1-.2.2v.3M61.8-48.7v.2c-.1.1-.1.1-.2.1-.1.1-.1.3-.1.4-.2.1 0 .2 0 .3v.2c0 .1 0 .3.1.4.1.2.3.4.4.5.2.1.4.6.6.6.2 0 .4-.1.5-.1.2 0 .4 0 .6-.1.2-.1.1-.3.3-.5.1-.1.3 0 .4-.1.2-.1.3-.3.4-.5v-.2c0-.1.1-.2.1-.3 0-.1-.1-.1-.1-.2v-.3c0-.2 0-.4-.1-.5-.4-.7-1.2-.9-2-.8-.2 0-.3.1-.4.2-.2.1-.1.2-.3.2-.1 0-.2.1-.2.2v.3M54.1-48.7v.2c-.1.1-.1.1-.2.1-.1.1-.1.3-.1.4-.2.1 0 .2 0 .3v.2c0 .1 0 .3.1.4.1.2.3.4.4.5.2.1.4.6.6.6.2 0 .4-.1.5-.1.2 0 .4 0 .6-.1.2-.1.1-.3.3-.5.1-.1.3 0 .4-.1.2-.1.3-.3.4-.5v-.2c0-.1.1-.2.1-.3 0-.1-.1-.1-.1-.2v-.3c0-.2 0-.4-.1-.5-.4-.7-1.2-.9-2-.8-.2 0-.3.1-.4.2-.2.1-.1.2-.3.2-.1 0-.2.1-.2.2v.3M46.5-48.7v.2c-.1.1-.1.1-.2.1-.1.1-.1.3-.1.4-.2.1 0 .2 0 .3v.2c0 .1 0 .3.1.4.1.2.3.4.4.5.2.1.4.6.6.6.2 0 .4-.1.5-.1.2 0 .4 0 .6-.1.2-.1.1-.3.3-.5.1-.1.3 0 .4-.1.2-.1.3-.3.4-.5v-.2c0-.1.1-.2.1-.3 0-.1-.1-.1-.1-.2v-.3c0-.2 0-.4-.1-.5-.4-.7-1.2-.9-2-.8-.2 0-.3.1-.4.2-.2.1-.1.2-.3.2-.1 0-.2.1-.2.2v.3M38.8-48.7v.2c-.1.1-.1.1-.2.1-.1.1-.1.3-.1.4-.2.1 0 .2 0 .3v.2c0 .1 0 .3.1.4.1.2.3.4.4.5.2.1.4.6.6.6.2 0 .4-.1.5-.1.2 0 .4 0 .6-.1.2-.1.1-.3.3-.5.1-.1.3 0 .4-.1.2-.1.3-.3.4-.5v-.2c0-.1.1-.2.1-.3 0-.1-.1-.1-.1-.2v-.3c0-.2 0-.4-.1-.5-.4-.7-1.2-.9-2-.8-.2 0-.3.1-.4.2-.2.1-.1.2-.3.2-.1 0-.2.1-.2.2v.3M31.1-48.7v.2c-.1.1-.1.1-.2.1-.1.1-.1.3-.1.4-.2.1 0 .2 0 .3v.2c0 .1 0 .3.1.4.1.2.3.4.4.5.2.1.4.6.6.6.2 0 .4-.1.5-.1.2 0 .4 0 .6-.1.2-.1.1-.3.3-.5.1-.1.3 0 .4-.1.2-.1.3-.3.4-.5v-.2c0-.1.1-.2.1-.3 0-.1-.1-.1-.1-.2v-.3c0-.2 0-.4-.1-.5-.4-.7-1.2-.9-2-.8-.2 0-.3.1-.4.2-.2.1-.1.2-.3.2-.1 0-.2.1-.2.2v.3M23.5-48.7v.2c-.1.1-.1.1-.2.1-.1.1-.1.3-.1.4-.2.1 0 .2 0 .3v.2c0 .1 0 .3.1.4.1.2.3.4.4.5.2.1.4.6.6.6.2 0 .4-.1.5-.1.2 0 .4 0 .6-.1.2-.1.1-.3.3-.5.1-.1.3 0 .4-.1.2-.1.3-.3.4-.5v-.2c0-.1.1-.2.1-.3 0-.1-.1-.1-.1-.2v-.3c0-.2 0-.4-.1-.5-.4-.7-1.2-.9-2-.8-.2 0-.3.1-.4.2-.2.1-.1.2-.3.2-.1 0-.2.1-.2.2v.3M15.8-48.7v.2c-.1.1-.1.1-.2.1-.1.1-.1.3-.1.4-.2.1 0 .2 0 .3v.2c0 .1 0 .3.1.4.1.2.3.4.4.5.2.1.4.6.6.6.2 0 .4-.1.5-.1.2 0 .4 0 .6-.1.2-.1.1-.3.3-.5.1-.1.3 0 .4-.1.2-.1.3-.3.4-.5v-.2c0-.1.1-.2.1-.3 0-.1-.1-.1-.1-.2v-.3c0-.2 0-.4-.1-.5-.4-.7-1.2-.9-2-.8-.2 0-.3.1-.4.2-.2.1-.1.2-.3.2-.1 0-.2.1-.2.2v.3M8.2-48.7v.2c-.1.1-.2.1-.2.1-.1.1-.1.3-.1.4-.2.1 0 .2 0 .3v.2c0 .1 0 .3.1.4.1.2.3.4.4.5.1.2.3.6.5.6s.4-.1.5-.1c.2 0 .4 0 .6-.1.2-.1.1-.3.3-.5.1-.1.3 0 .4-.1.2-.1.3-.3.4-.5v-.2c0-.1.1-.2.1-.3 0-.1-.1-.1-.1-.2v-.3c0-.2 0-.4-.1-.5-.4-.7-1.2-.9-2-.8-.2 0-.3.1-.4.2-.2.1-.1.2-.3.2-.1 0-.2.1-.2.2.1.3.1.2.1.3-.1 0-.1 0 0 0M.5-48.7v.2c-.1.1-.1.1-.2.1-.1.1-.1.3-.1.4-.2.1 0 .2 0 .3v.2c0 .1 0 .3.1.4.1.2.3.4.4.5.2.2.3.6.6.6.2 0 .4-.1.5-.1.2 0 .4 0 .6-.1.2-.1.1-.3.3-.5.1-.1.3 0 .4-.1.2-.1.3-.3.4-.5v-.2c0-.1.1-.2.1-.3 0-.1-.1-.1-.1-.2v-.3c0-.2 0-.4-.1-.5-.4-.7-1.2-.9-2-.8-.2 0-.3.1-.4.2-.2.1-.1.2-.3.2-.1 0-.2.1-.2.2v.3"/></g><g><path class="st2" d="M69.4-41v.2c-.1.1-.1.1-.2.1-.1.1-.1.3-.1.4-.2.1 0 .2 0 .3v.2c0 .1 0 .3.1.4.1.2.3.4.4.5.2.1.4.6.6.6.2 0 .4-.1.5-.1.2 0 .4 0 .6-.1.2-.1.1-.3.3-.5.1-.1.3 0 .4-.1.2-.1.3-.3.4-.5v-.2c0-.1.1-.2.1-.3 0-.1-.1-.1-.1-.2v-.3c0-.2 0-.4-.1-.5-.4-.7-1.2-.9-2-.8-.2 0-.3.1-.4.2-.2.1-.1.2-.3.2-.1 0-.2.1-.2.2v.3M61.8-41v.2c-.1.1-.1.1-.2.1-.1.1-.1.3-.1.4-.2.1 0 .2 0 .3v.2c0 .1 0 .3.1.4.1.2.3.4.4.5.2.1.4.6.6.6.2 0 .4-.1.5-.1.2 0 .4 0 .6-.1.2-.1.1-.3.3-.5.1-.1.3 0 .4-.1.2-.1.3-.3.4-.5v-.2c0-.1.1-.2.1-.3 0-.1-.1-.1-.1-.2v-.3c0-.2 0-.4-.1-.5-.4-.7-1.2-.9-2-.8-.2 0-.3.1-.4.2-.2.1-.1.2-.3.2-.1 0-.2.1-.2.2v.3M54.1-41v.2c-.1.1-.1.1-.2.1-.1.1-.1.3-.1.4-.2.1 0 .2 0 .3v.2c0 .1 0 .3.1.4.1.2.3.4.4.5.2.1.4.6.6.6.2 0 .4-.1.5-.1.2 0 .4 0 .6-.1.2-.1.1-.3.3-.5.1-.1.3 0 .4-.1.2-.1.3-.3.4-.5v-.2c0-.1.1-.2.1-.3 0-.1-.1-.1-.1-.2v-.3c0-.2 0-.4-.1-.5-.4-.7-1.2-.9-2-.8-.2 0-.3.1-.4.2-.2.1-.1.2-.3.2-.1 0-.2.1-.2.2v.3M46.5-41v.2c-.1.1-.1.1-.2.1-.1.1-.1.3-.1.4-.2.1 0 .2 0 .3v.2c0 .1 0 .3.1.4.1.2.3.4.4.5.2.1.4.6.6.6.2 0 .4-.1.5-.1.2 0 .4 0 .6-.1.2-.1.1-.3.3-.5.1-.1.3 0 .4-.1.2-.1.3-.3.4-.5v-.2c0-.1.1-.2.1-.3 0-.1-.1-.1-.1-.2v-.3c0-.2 0-.4-.1-.5-.4-.7-1.2-.9-2-.8-.2 0-.3.1-.4.2-.2.1-.1.2-.3.2-.1 0-.2.1-.2.2v.3M38.8-41v.2c-.1.1-.1.1-.2.1-.1.1-.1.3-.1.4-.2.1 0 .2 0 .3v.2c0 .1 0 .3.1.4.1.2.3.4.4.5.2.1.4.6.6.6.2 0 .4-.1.5-.1.2 0 .4 0 .6-.1.2-.1.1-.3.3-.5.1-.1.3 0 .4-.1.2-.1.3-.3.4-.5v-.2c0-.1.1-.2.1-.3 0-.1-.1-.1-.1-.2v-.3c0-.2 0-.4-.1-.5-.4-.7-1.2-.9-2-.8-.2 0-.3.1-.4.2-.2.1-.1.2-.3.2-.1 0-.2.1-.2.2v.3M31.1-41v.2c-.1.1-.1.1-.2.1-.1.1-.1.3-.1.4-.2.1 0 .2 0 .3v.2c0 .1 0 .3.1.4.1.2.3.4.4.5.2.1.4.6.6.6.2 0 .4-.1.5-.1.2 0 .4 0 .6-.1.2-.1.1-.3.3-.5.1-.1.3 0 .4-.1.2-.1.3-.3.4-.5v-.2c0-.1.1-.2.1-.3 0-.1-.1-.1-.1-.2v-.3c0-.2 0-.4-.1-.5-.4-.7-1.2-.9-2-.8-.2 0-.3.1-.4.2-.2.1-.1.2-.3.2-.1 0-.2.1-.2.2v.3M23.5-41v.2c-.1.1-.1.1-.2.1-.1.1-.1.3-.1.4-.2.1 0 .2 0 .3v.2c0 .1 0 .3.1.4.1.2.3.4.4.5.2.1.4.6.6.6.2 0 .4-.1.5-.1.2 0 .4 0 .6-.1.2-.1.1-.3.3-.5.1-.1.3 0 .4-.1.2-.1.3-.3.4-.5v-.2c0-.1.1-.2.1-.3 0-.1-.1-.1-.1-.2v-.3c0-.2 0-.4-.1-.5-.4-.7-1.2-.9-2-.8-.2 0-.3.1-.4.2-.2.1-.1.2-.3.2-.1 0-.2.1-.2.2v.3M15.8-41v.2c-.1.1-.1.1-.2.1-.1.1-.1.3-.1.4-.2.1 0 .2 0 .3v.2c0 .1 0 .3.1.4.1.2.3.4.4.5.2.1.4.6.6.6.2 0 .4-.1.5-.1.2 0 .4 0 .6-.1.2-.1.1-.3.3-.5.1-.1.3 0 .4-.1.2-.1.3-.3.4-.5v-.2c0-.1.1-.2.1-.3 0-.1-.1-.1-.1-.2v-.3c0-.2 0-.4-.1-.5-.4-.7-1.2-.9-2-.8-.2 0-.3.1-.4.2-.2.1-.1.2-.3.2-.1 0-.2.1-.2.2v.3M8.2-41v.2c-.1 0-.2 0-.2.1-.1.1-.1.3-.1.4-.2.1 0 .2 0 .3v.2c0 .1 0 .3.1.4.1.2.3.4.4.5.2.1.4.6.6.6.2 0 .4-.1.5-.1.2 0 .4 0 .6-.1.2-.1.1-.3.3-.5.1-.1.3 0 .4-.1.2-.1.3-.3.4-.5v-.2c0-.1.1-.2.1-.3 0-.1-.1-.1-.1-.2v-.3c0-.2 0-.4-.1-.5-.4-.7-1.2-.9-2-.8-.2 0-.3.1-.4.2-.2.1-.1.2-.3.2-.1 0-.2.1-.2.2v.3c-.1 0-.1 0 0 0M.5-41v.2c-.1.1-.1.1-.2.1-.1.1-.1.3-.1.4-.2.1 0 .2 0 .3v.2c0 .1 0 .3.1.4.1.2.3.4.4.5.2.1.4.6.6.6.2 0 .4-.1.5-.1.2 0 .4 0 .6-.1.2-.1.1-.3.3-.5h.4c.2-.1.3-.3.4-.5v-.2c0-.1.1-.2.1-.3 0-.1-.1-.1-.1-.2v-.3c0-.2 0-.4-.1-.5-.4-.7-1.2-.9-2-.8-.2 0-.3.1-.4.2-.2.1-.1.2-.3.2-.1 0-.2.1-.2.2v.2"/></g><g><path class="st2" d="M69.4-33.4v.2c-.1.1-.1.1-.2.1-.1.1-.1.3-.1.4-.2.1 0 .2 0 .3v.2c0 .1 0 .3.1.4.1.2.3.4.4.5.2.1.4.6.6.6.2 0 .4-.1.5-.1.2 0 .4 0 .6-.1.2-.1.1-.3.3-.5.1-.1.3 0 .4-.1.2-.1.3-.3.4-.5v-.2c0-.1.1-.2.1-.3 0-.1-.1-.1-.1-.2v-.3c0-.2 0-.4-.1-.5-.4-.7-1.2-.9-2-.8-.2 0-.3.1-.4.2-.2.1-.1.2-.3.2-.1 0-.2.1-.2.2v.3M61.8-33.4v.2c-.1.1-.1.1-.2.1-.1.1-.1.3-.1.4-.2.1 0 .2 0 .3v.2c0 .1 0 .3.1.4.1.2.3.4.4.5.2.1.4.6.6.6.2 0 .4-.1.5-.1.2 0 .4 0 .6-.1.2-.1.1-.3.3-.5.1-.1.3 0 .4-.1.2-.1.3-.3.4-.5v-.2c0-.1.1-.2.1-.3 0-.1-.1-.1-.1-.2v-.3c0-.2 0-.4-.1-.5-.4-.7-1.2-.9-2-.8-.2 0-.3.1-.4.2-.2.1-.1.2-.3.2-.1 0-.2.1-.2.2v.3M54.1-33.4v.2c-.1.1-.1.1-.2.1-.1.1-.1.3-.1.4-.2.1 0 .2 0 .3v.2c0 .1 0 .3.1.4.1.2.3.4.4.5.2.1.4.6.6.6.2 0 .4-.1.5-.1.2 0 .4 0 .6-.1.2-.1.1-.3.3-.5.1-.1.3 0 .4-.1.2-.1.3-.3.4-.5v-.2c0-.1.1-.2.1-.3 0-.1-.1-.1-.1-.2v-.3c0-.2 0-.4-.1-.5-.4-.7-1.2-.9-2-.8-.2 0-.3.1-.4.2-.2.1-.1.2-.3.2-.1 0-.2.1-.2.2v.3M46.5-33.4v.2c-.1.1-.1.1-.2.1-.1.1-.1.3-.1.4-.2.1 0 .2 0 .3v.2c0 .1 0 .3.1.4.1.2.3.4.4.5.2.1.4.6.6.6.2 0 .4-.1.5-.1.2 0 .4 0 .6-.1.2-.1.1-.3.3-.5.1-.1.3 0 .4-.1.2-.1.3-.3.4-.5v-.2c0-.1.1-.2.1-.3 0-.1-.1-.1-.1-.2v-.3c0-.2 0-.4-.1-.5-.4-.7-1.2-.9-2-.8-.2 0-.3.1-.4.2-.2.1-.1.2-.3.2-.1 0-.2.1-.2.2v.3M38.8-33.4v.2c-.1.1-.1.1-.2.1-.1.1-.1.3-.1.4-.2.1 0 .2 0 .3v.2c0 .1 0 .3.1.4.1.2.3.4.4.5.2.1.4.6.6.6.2 0 .4-.1.5-.1.2 0 .4 0 .6-.1.2-.1.1-.3.3-.5.1-.1.3 0 .4-.1.2-.1.3-.3.4-.5v-.2c0-.1.1-.2.1-.3 0-.1-.1-.1-.1-.2v-.3c0-.2 0-.4-.1-.5-.4-.7-1.2-.9-2-.8-.2 0-.3.1-.4.2-.2.1-.1.2-.3.2-.1 0-.2.1-.2.2v.3M31.1-33.4v.2c-.1.1-.1.1-.2.1-.1.1-.1.3-.1.4-.2.1 0 .2 0 .3v.2c0 .1 0 .3.1.4.1.2.3.4.4.5.2.1.4.6.6.6.2 0 .4-.1.5-.1.2 0 .4 0 .6-.1.2-.1.1-.3.3-.5.1-.1.3 0 .4-.1.2-.1.3-.3.4-.5v-.2c0-.1.1-.2.1-.3 0-.1-.1-.1-.1-.2v-.3c0-.2 0-.4-.1-.5-.4-.7-1.2-.9-2-.8-.2 0-.3.1-.4.2-.2.1-.1.2-.3.2-.1 0-.2.1-.2.2v.3M23.5-33.4v.2c-.1.1-.1.1-.2.1-.1.1-.1.3-.1.4-.2.1 0 .2 0 .3v.2c0 .1 0 .3.1.4.1.2.3.4.4.5.2.1.4.6.6.6.2 0 .4-.1.5-.1.2 0 .4 0 .6-.1.2-.1.1-.3.3-.5.1-.1.3 0 .4-.1.2-.1.3-.3.4-.5v-.2c0-.1.1-.2.1-.3 0-.1-.1-.1-.1-.2v-.3c0-.2 0-.4-.1-.5-.4-.7-1.2-.9-2-.8-.2 0-.3.1-.4.2-.2.1-.1.2-.3.2-.1 0-.2.1-.2.2v.3M15.8-33.4v.2c-.1.1-.1.1-.2.1-.1.1-.1.3-.1.4-.2.1 0 .2 0 .3v.2c0 .1 0 .3.1.4.1.2.3.4.4.5.2.1.4.6.6.6.2 0 .4-.1.5-.1.2 0 .4 0 .6-.1.2-.1.1-.3.3-.5.1-.1.3 0 .4-.1.2-.1.3-.3.4-.5v-.2c0-.1.1-.2.1-.3 0-.1-.1-.1-.1-.2v-.3c0-.2 0-.4-.1-.5-.4-.7-1.2-.9-2-.8-.2 0-.3.1-.4.2-.2.1-.1.2-.3.2-.1 0-.2.1-.2.2v.3M8.2-33.4v.2c-.1.1-.2.1-.2.1-.1.1-.1.3-.1.4-.2.1 0 .2 0 .3v.2c0 .1 0 .3.1.4.1.2.3.4.4.5.2.1.4.6.6.6.2 0 .4-.1.5-.1.2 0 .4 0 .6-.1.2-.1.1-.3.3-.5.1-.1.3 0 .4-.1.2-.1.3-.3.4-.5v-.2c0-.1.1-.2.1-.3 0-.1-.1-.1-.1-.2v-.3c0-.2 0-.4-.1-.5-.4-.7-1.2-.9-2-.8-.2 0-.3.1-.4.2-.2.1-.1.2-.3.2-.1 0-.2.1-.2.2v.3c-.1 0-.1 0 0 0M.5-33.4v.2c-.1.1-.1.1-.2.1-.1.1-.1.3-.1.4-.2.1 0 .2 0 .3v.2c0 .1 0 .3.1.4.1.2.3.4.4.5.2.1.4.6.6.6.2 0 .4-.1.5-.1.2 0 .4 0 .6-.1.2-.1.1-.3.3-.5.1-.1.3 0 .4-.1.2-.1.3-.3.4-.5v-.2c0-.1.1-.2.1-.3 0-.1-.1-.1-.1-.2v-.3c0-.2 0-.4-.1-.5-.4-.7-1.2-.9-2-.8-.2 0-.3.1-.4.2-.2.1-.1.2-.3.2-.1 0-.2.1-.2.2v.3"/></g><g><path class="st2" d="M69.4-25.7v.2c-.1.1-.1.1-.2.1-.1.1-.1.3-.1.4-.2.1 0 .2 0 .3v.2c0 .1 0 .3.1.4.1.2.3.4.4.5.2.1.4.6.6.6.2 0 .4-.1.5-.1.2 0 .4 0 .6-.1.2-.1.1-.3.3-.5.1-.1.3 0 .4-.1.2-.1.3-.3.4-.5v-.2c0-.1.1-.2.1-.3 0-.1-.1-.1-.1-.2v-.3c0-.2 0-.4-.1-.5-.4-.7-1.2-.9-2-.8-.2 0-.3.1-.4.2-.2.1-.1.2-.3.2-.1 0-.2.1-.2.2v.3M61.8-25.7v.2c-.1.1-.1.1-.2.1-.1.1-.1.3-.1.4-.2.1 0 .2 0 .3v.2c0 .1 0 .3.1.4.1.2.3.4.4.5.2.1.4.6.6.6.2 0 .4-.1.5-.1.2 0 .4 0 .6-.1.2-.1.1-.3.3-.5.1-.1.3 0 .4-.1.2-.1.3-.3.4-.5v-.2c0-.1.1-.2.1-.3 0-.1-.1-.1-.1-.2v-.3c0-.2 0-.4-.1-.5-.4-.7-1.2-.9-2-.8-.2 0-.3.1-.4.2-.2.1-.1.2-.3.2-.1 0-.2.1-.2.2v.3M54.1-25.7v.2c-.1.1-.1.1-.2.1-.1.1-.1.3-.1.4-.2.1 0 .2 0 .3v.2c0 .1 0 .3.1.4.1.2.3.4.4.5.2.1.4.6.6.6.2 0 .4-.1.5-.1.2 0 .4 0 .6-.1.2-.1.1-.3.3-.5.1-.1.3 0 .4-.1.2-.1.3-.3.4-.5v-.2c0-.1.1-.2.1-.3 0-.1-.1-.1-.1-.2v-.3c0-.2 0-.4-.1-.5-.4-.7-1.2-.9-2-.8-.2 0-.3.1-.4.2-.2.1-.1.2-.3.2-.1 0-.2.1-.2.2v.3M46.5-25.7v.2c-.1.1-.1.1-.2.1-.1.1-.1.3-.1.4-.2.1 0 .2 0 .3v.2c0 .1 0 .3.1.4.1.2.3.4.4.5.2.1.4.6.6.6.2 0 .4-.1.5-.1.2 0 .4 0 .6-.1.2-.1.1-.3.3-.5.1-.1.3 0 .4-.1.2-.1.3-.3.4-.5v-.2c0-.1.1-.2.1-.3 0-.1-.1-.1-.1-.2v-.3c0-.2 0-.4-.1-.5-.4-.7-1.2-.9-2-.8-.2 0-.3.1-.4.2-.2.1-.1.2-.3.2-.1 0-.2.1-.2.2v.3M38.8-25.7v.2c-.1.1-.1.1-.2.1-.1.1-.1.3-.1.4-.2.1 0 .2 0 .3v.2c0 .1 0 .3.1.4.1.2.3.4.4.5.2.1.4.6.6.6.2 0 .4-.1.5-.1.2 0 .4 0 .6-.1.2-.1.1-.3.3-.5.1-.1.3 0 .4-.1.2-.1.3-.3.4-.5v-.2c0-.1.1-.2.1-.3 0-.1-.1-.1-.1-.2v-.3c0-.2 0-.4-.1-.5-.4-.7-1.2-.9-2-.8-.2 0-.3.1-.4.2-.2.1-.1.2-.3.2-.1 0-.2.1-.2.2v.3M31.1-25.7v.2c-.1.1-.1.1-.2.1-.1.1-.1.3-.1.4-.2.1 0 .2 0 .3v.2c0 .1 0 .3.1.4.1.2.3.4.4.5.2.1.4.6.6.6.2 0 .4-.1.5-.1.2 0 .4 0 .6-.1.2-.1.1-.3.3-.5.1-.1.3 0 .4-.1.2-.1.3-.3.4-.5v-.2c0-.1.1-.2.1-.3 0-.1-.1-.1-.1-.2v-.3c0-.2 0-.4-.1-.5-.4-.7-1.2-.9-2-.8-.2 0-.3.1-.4.2-.2.1-.1.2-.3.2-.1 0-.2.1-.2.2v.3M23.5-25.7v.2c-.1.1-.1.1-.2.1-.1.1-.1.3-.1.4-.2.1 0 .2 0 .3v.2c0 .1 0 .3.1.4.1.2.3.4.4.5.2.1.4.6.6.6.2 0 .4-.1.5-.1.2 0 .4 0 .6-.1.2-.1.1-.3.3-.5.1-.1.3 0 .4-.1.2-.1.3-.3.4-.5v-.2c0-.1.1-.2.1-.3 0-.1-.1-.1-.1-.2v-.3c0-.2 0-.4-.1-.5-.4-.7-1.2-.9-2-.8-.2 0-.3.1-.4.2-.2.1-.1.2-.3.2-.1 0-.2.1-.2.2v.3M15.8-25.7v.2c-.1.1-.1.1-.2.1-.1.1-.1.3-.1.4-.2.1 0 .2 0 .3v.2c0 .1 0 .3.1.4.1.2.3.4.4.5.2.1.4.6.6.6.2 0 .4-.1.5-.1.2 0 .4 0 .6-.1.2-.1.1-.3.3-.5.1-.1.3 0 .4-.1.2-.1.3-.3.4-.5v-.2c0-.1.1-.2.1-.3 0-.1-.1-.1-.1-.2v-.3c0-.2 0-.4-.1-.5-.4-.7-1.2-.9-2-.8-.2 0-.3.1-.4.2-.2.1-.1.2-.3.2-.1 0-.2.1-.2.2v.3M8.2-25.7v.2c-.1.1-.2 0-.2.1-.1.1-.1.3-.1.4-.2.1 0 .2 0 .3v.2c0 .1 0 .3.1.4 0 .1.2.3.3.5.2.1.4.6.6.6.2 0 .4-.1.5-.1.2 0 .4 0 .6-.1.2-.1.1-.3.3-.5.1-.1.3 0 .4-.1.2-.1.3-.3.4-.5v-.2c0-.1.1-.2.1-.3 0-.1-.1-.1-.1-.2v-.3c0-.2 0-.4-.1-.5-.4-.7-1.2-.9-2-.8-.2 0-.3.1-.4.2-.2.1-.1.2-.3.2-.1 0-.2.1-.2.2.1.2.1.2.1.3-.1 0-.1 0 0 0M.5-25.7v.2c-.1.1-.1.1-.2.1-.1.1-.1.3-.1.4-.2.1 0 .2 0 .3v.2c0 .1 0 .3.1.4.1.2.3.4.4.5.2.1.3.5.6.6.2 0 .4-.1.5-.1.2 0 .4 0 .6-.1.2-.1.1-.3.3-.5.1-.1.3 0 .4-.1.2-.1.3-.3.4-.5v-.2c0-.1.1-.2.1-.3 0-.1-.1-.1-.1-.2v-.3c0-.2 0-.4-.1-.5-.4-.7-1.2-.9-2-.8-.2 0-.3.1-.4.2-.2.1-.1.2-.3.2-.1 0-.2.1-.2.2v.3"/></g><g><path class="st2" d="M69.4-18.1v.2c-.1.1-.1.1-.2.1-.1.1-.1.3-.1.4-.2.1 0 .2 0 .3v.2c0 .1 0 .3.1.4.1.2.3.4.4.5.2.1.4.6.6.6.2 0 .4-.1.5-.1.2 0 .4 0 .6-.1.2-.1.1-.3.3-.5.1-.1.3 0 .4-.1.2-.1.3-.3.4-.5v-.2c0-.1.1-.2.1-.3 0-.1-.1-.1-.1-.2v-.3c0-.2 0-.4-.1-.5-.4-.7-1.2-.9-2-.8-.2 0-.3.1-.4.2-.2.1-.1.2-.3.2-.1 0-.2.1-.2.2v.3c0 .1 0 0 0 0M61.8-18.1v.2c-.1.1-.1.1-.2.1-.1.1-.1.3-.1.4-.2.1 0 .2 0 .3v.2c0 .1 0 .3.1.4.1.2.3.4.4.5.2.1.4.6.6.6.2 0 .4-.1.5-.1.2 0 .4 0 .6-.1.2-.1.1-.3.3-.5.1-.1.3 0 .4-.1.2-.1.3-.3.4-.5v-.2c0-.1.1-.2.1-.3 0-.1-.1-.1-.1-.2v-.3c0-.2 0-.4-.1-.5-.4-.7-1.2-.9-2-.8-.2 0-.3.1-.4.2-.2.1-.1.2-.3.2-.1 0-.2.1-.2.2v.3c0 .1 0 0 0 0M54.1-18.1v.2c-.1.1-.1.1-.2.1-.1.1-.1.3-.1.4-.2.1 0 .2 0 .3v.2c0 .1 0 .3.1.4.1.2.3.4.4.5.2.1.4.6.6.6.2 0 .4-.1.5-.1.2 0 .4 0 .6-.1.2-.1.1-.3.3-.5.1-.1.3 0 .4-.1.2-.1.3-.3.4-.5v-.2c0-.1.1-.2.1-.3 0-.1-.1-.1-.1-.2v-.3c0-.2 0-.4-.1-.5-.4-.7-1.2-.9-2-.8-.2 0-.3.1-.4.2-.2.1-.1.2-.3.2-.1 0-.2.1-.2.2v.3c0 .1 0 0 0 0M46.5-18.1v.2c-.1.1-.1.1-.2.1-.1.1-.1.3-.1.4-.2.1 0 .2 0 .3v.2c0 .1 0 .3.1.4.1.2.3.4.4.5.2.1.4.6.6.6.2 0 .4-.1.5-.1.2 0 .4 0 .6-.1.2-.1.1-.3.3-.5.1-.1.3 0 .4-.1.2-.1.3-.3.4-.5v-.2c0-.1.1-.2.1-.3 0-.1-.1-.1-.1-.2v-.3c0-.2 0-.4-.1-.5-.4-.7-1.2-.9-2-.8-.2 0-.3.1-.4.2-.2.1-.1.2-.3.2-.1 0-.2.1-.2.2v.3c0 .1 0 0 0 0M38.8-18.1v.2c-.1.1-.1.1-.2.1-.1.1-.1.3-.1.4-.2.1 0 .2 0 .3v.2c0 .1 0 .3.1.4.1.2.3.4.4.5.2.1.4.6.6.6.2 0 .4-.1.5-.1.2 0 .4 0 .6-.1.2-.1.1-.3.3-.5.1-.1.3 0 .4-.1.2-.1.3-.3.4-.5v-.2c0-.1.1-.2.1-.3 0-.1-.1-.1-.1-.2v-.3c0-.2 0-.4-.1-.5-.4-.7-1.2-.9-2-.8-.2 0-.3.1-.4.2-.2.1-.1.2-.3.2-.1 0-.2.1-.2.2v.3c0 .1 0 0 0 0M31.1-18.1v.2c-.1.1-.1.1-.2.1-.1.1-.1.3-.1.4-.2.1 0 .2 0 .3v.2c0 .1 0 .3.1.4.1.2.3.4.4.5.2.1.4.6.6.6.2 0 .4-.1.5-.1.2 0 .4 0 .6-.1.2-.1.1-.3.3-.5.1-.1.3 0 .4-.1.2-.1.3-.3.4-.5v-.2c0-.1.1-.2.1-.3 0-.1-.1-.1-.1-.2v-.3c0-.2 0-.4-.1-.5-.4-.7-1.2-.9-2-.8-.2 0-.3.1-.4.2-.2.1-.1.2-.3.2-.1 0-.2.1-.2.2v.3c0 .1 0 0 0 0M23.5-18.1v.2c-.1.1-.1.1-.2.1-.1.1-.1.3-.1.4-.2.1 0 .2 0 .3v.2c0 .1 0 .3.1.4.1.2.3.4.4.5.2.1.4.6.6.6.2 0 .4-.1.5-.1.2 0 .4 0 .6-.1.2-.1.1-.3.3-.5.1-.1.3 0 .4-.1.2-.1.3-.3.4-.5v-.2c0-.1.1-.2.1-.3 0-.1-.1-.1-.1-.2v-.3c0-.2 0-.4-.1-.5-.4-.7-1.2-.9-2-.8-.2 0-.3.1-.4.2-.2.1-.1.2-.3.2-.1 0-.2.1-.2.2v.3c0 .1 0 0 0 0M15.8-18.1v.2c-.1.1-.1.1-.2.1-.1.1-.1.3-.1.4-.2.1 0 .2 0 .3v.2c0 .1 0 .3.1.4.1.2.3.4.4.5.2.1.4.6.6.6.2 0 .4-.1.5-.1.2 0 .4 0 .6-.1.2-.1.1-.3.3-.5.1-.1.3 0 .4-.1.2-.1.3-.3.4-.5v-.2c0-.1.1-.2.1-.3 0-.1-.1-.1-.1-.2v-.3c0-.2 0-.4-.1-.5-.4-.7-1.2-.9-2-.8-.2 0-.3.1-.4.2-.2.1-.1.2-.3.2-.1 0-.2.1-.2.2v.3c0 .1 0 0 0 0M8.2-18.1v.2c-.1.1-.2.1-.2.1-.1.1-.1.3-.1.4-.2.1 0 .2 0 .3v.2c0 .1 0 .3.1.4 0 .2.2.4.3.5.2.1.4.6.6.6.2 0 .4-.1.5-.1.2 0 .4 0 .6-.1.2-.1.1-.3.3-.5.1-.1.3 0 .4-.1.2-.1.3-.3.4-.5v-.2c0-.1.1-.2.1-.3 0-.1-.1-.1-.1-.2v-.3c0-.2 0-.4-.1-.5-.4-.7-1.2-.9-2-.8-.2 0-.3.1-.4.2-.2.1-.1.2-.3.2-.1 0-.2.1-.2.2.1.3.1.2.1.3-.1.1-.1 0 0 0M.5-18.1v.2c-.1.1-.1.1-.2.1-.1.1-.1.3-.1.4-.2.1 0 .2 0 .3v.2c0 .1 0 .3.1.4.1.2.3.4.4.5.2.1.4.6.6.6.2 0 .4-.1.5-.1.2 0 .4 0 .6-.1.2-.1.1-.3.3-.5.1 0 .3.1.4.1.2-.1.3-.3.4-.5v-.2c0-.1.1-.2.1-.3 0-.1-.1-.1-.1-.2v-.3c0-.2 0-.4-.1-.5-.4-.7-1.2-.9-2-.8-.2 0-.3.1-.4.2-.2.1-.1.2-.3.2-.1 0-.2.1-.2.2v.1c0 .1 0 0 0 0"/></g><g><path class="st2" d="M69.4-10.4v.2c-.1.1-.1.1-.2.1-.1.1-.1.3-.1.4-.2.1 0 .2 0 .3v.2c0 .1 0 .3.1.4.1.2.3.4.4.5.2.1.4.6.6.6.2 0 .4-.1.5-.1.2 0 .4 0 .6-.1.2-.1.1-.3.3-.5.1-.1.3 0 .4-.1.2-.1.3-.3.4-.5v-.2c0-.1.1-.2.1-.3 0-.1-.1-.1-.1-.2v-.3c0-.2 0-.4-.1-.5-.4-.7-1.2-.9-2-.8-.2 0-.3.1-.4.2-.2.1-.1.2-.3.2-.1 0-.2.1-.2.2v.3M61.8-10.4v.2c-.1.1-.1.1-.2.1-.1.1-.1.3-.1.4-.2.1 0 .2 0 .3v.2c0 .1 0 .3.1.4.1.2.3.4.4.5.2.1.4.6.6.6.2 0 .4-.1.5-.1.2 0 .4 0 .6-.1.2-.1.1-.3.3-.4.1-.1.3 0 .4-.1.2-.1.3-.3.4-.5v-.2c0-.1.1-.2.1-.3 0-.1-.1-.1-.1-.2v-.3c0-.2 0-.4-.1-.5-.4-.7-1.2-.9-2-.8-.2 0-.3.1-.4.2-.2.1-.1.2-.3.2-.1 0-.2.1-.2.2v.2M54.1-10.4v.2c-.1.1-.1.1-.2.1-.1.1-.1.3-.1.4-.2.1 0 .2 0 .3v.2c0 .1 0 .3.1.4.1.2.3.4.4.5.2.1.4.6.6.6.2 0 .4-.1.5-.1.2 0 .4 0 .6-.1.2-.1.1-.3.3-.5.1-.1.3 0 .4-.1.2-.1.3-.3.4-.5v-.2c0-.1.1-.2.1-.3 0-.1-.1-.1-.1-.2v-.3c0-.2 0-.4-.1-.5-.4-.7-1.2-.9-2-.8-.2 0-.3.1-.4.2-.2.1-.1.2-.3.2-.1 0-.2.1-.2.2v.3M46.5-10.4v.2c-.1.1-.1.1-.2.1-.1.1-.1.3-.1.4-.2.1 0 .2 0 .3v.2c0 .1 0 .3.1.4.1.2.3.4.4.5.2.1.4.6.6.6.2 0 .4-.1.5-.1.2 0 .4 0 .6-.1.2-.1.1-.3.3-.5.1-.1.3 0 .4-.1.2-.1.3-.3.4-.5v-.2c0-.1.1-.2.1-.3 0-.1-.1-.1-.1-.2v-.3c0-.2 0-.4-.1-.5-.4-.7-1.2-.9-2-.8-.2 0-.3.1-.4.2-.2.1-.1.2-.3.2-.1 0-.2.1-.2.2v.3M38.8-10.4v.2c-.1.1-.1.1-.2.1-.1.1-.1.3-.1.4-.2.1 0 .2 0 .3v.2c0 .1 0 .3.1.4.1.2.3.4.4.5.2.1.4.6.6.6.2 0 .4-.1.5-.1.2 0 .4 0 .6-.1.2-.1.1-.3.3-.4.1-.1.3 0 .4-.1.2-.1.3-.3.4-.5v-.2c0-.1.1-.2.1-.3 0-.1-.1-.1-.1-.2v-.3c0-.2 0-.4-.1-.5-.4-.7-1.2-.9-2-.8-.2 0-.3.1-.4.2-.2.1-.1.2-.3.2-.1 0-.2.1-.2.2v.2M31.1-10.4v.2c-.1.1-.1.1-.2.1-.1.1-.1.3-.1.4-.2.1 0 .2 0 .3v.2c0 .1 0 .3.1.4.1.2.3.4.4.5.2.1.4.6.6.6.2 0 .4-.1.5-.1.2 0 .4 0 .6-.1.2-.1.1-.3.3-.5.1-.1.3 0 .4-.1.2-.1.3-.3.4-.5v-.2c0-.1.1-.2.1-.3 0-.1-.1-.1-.1-.2v-.3c0-.2 0-.4-.1-.5-.4-.7-1.2-.9-2-.8-.2 0-.3.1-.4.2-.2.1-.1.2-.3.2-.1 0-.2.1-.2.2v.3M23.5-10.4v.2c-.1.1-.1.1-.2.1-.1.1-.1.3-.1.4-.2.1 0 .2 0 .3v.2c0 .1 0 .3.1.4.1.2.3.4.4.5.2.1.4.6.6.6.2 0 .4-.1.5-.1.2 0 .4 0 .6-.1.2-.1.1-.3.3-.5.1-.1.3 0 .4-.1.2-.1.3-.3.4-.5v-.2c0-.1.1-.2.1-.3 0-.1-.1-.1-.1-.2v-.3c0-.2 0-.4-.1-.5-.4-.7-1.2-.9-2-.8-.2 0-.3.1-.4.2-.2.1-.1.2-.3.2-.1 0-.2.1-.2.2v.3M15.8-10.4v.2c-.1.1-.1.1-.2.1-.1.1-.1.3-.1.4-.2.1 0 .2 0 .3v.2c0 .1 0 .3.1.4.1.2.3.4.4.5.2.1.4.6.6.6.2 0 .4-.1.5-.1.2 0 .4 0 .6-.1.2-.1.1-.3.3-.4.1-.1.3 0 .4-.1.2-.1.3-.3.4-.5v-.2c0-.1.1-.2.1-.3 0-.1-.1-.1-.1-.2v-.3c0-.2 0-.4-.1-.5-.4-.7-1.2-.9-2-.8-.2 0-.3.1-.4.2-.2.1-.1.2-.3.2-.1 0-.2.1-.2.2v.2M8.2-10.4v.2c-.1.1-.2 0-.2.1-.1.1-.1.3-.1.3-.2.1 0 .2 0 .3v.2c0 .1 0 .3.1.4 0 .2.2.4.3.6.2.1.4.6.6.6.2 0 .4-.1.5-.1.2 0 .4 0 .6-.1.2-.1.1-.3.3-.5.1-.1.3 0 .4-.1.2-.1.3-.3.4-.5v-.2c0-.1.1-.2.1-.3 0-.1-.1-.1-.1-.2v-.3c0-.2 0-.4-.1-.5-.4-.7-1.2-.9-2-.8-.2 0-.3.1-.4.2-.2.1-.1.2-.3.2-.1 0-.2.1-.2.2.1.2.1.2.1.3-.1 0-.1 0 0 0M.5-10.4v.2c-.1.1-.1.1-.2.1 0 .1-.1.3-.1.3-.2.1 0 .2 0 .3v.2c0 .1 0 .3.1.4.1.2.3.4.4.5.2.2.3.6.6.7.2 0 .4-.1.5-.1.2 0 .4 0 .6-.1.2-.1.1-.3.3-.4.1-.1.3 0 .4-.1.2-.1.3-.3.4-.5v-.2c0-.1.1-.2.1-.3 0-.1-.1-.1-.1-.2v-.3c0-.2 0-.4-.1-.5-.4-.7-1.2-.9-2-.8-.2 0-.3.1-.4.2-.2.1-.1.2-.3.2-.1 0-.2.1-.2.2v.2"/></g></g><g><path class="st2" d="M69.4-2.8v.2c-.1.1-.1.1-.2.1-.1.1-.1.3-.1.4-.2.1 0 .2 0 .3v.2c0 .1 0 .3.1.4.1.2.3.4.4.5.2.2.4.6.6.7.2 0 .4-.1.5-.1.2 0 .4 0 .6-.1.2-.1.1-.3.3-.5.1-.1.3 0 .4-.1.2-.1.3-.3.4-.5v-.2c0-.1.1-.2.1-.3 0-.1-.1-.1-.1-.2v-.3c0-.2 0-.4-.1-.5-.4-.7-1.2-.9-2-.8-.2 0-.3.1-.4.2-.2.1-.1.2-.3.2-.1 0-.2.1-.2.2v.2c0 .1 0 0 0 0M61.8-2.8v.2c-.1.1-.1.1-.2.1-.1.1-.1.3-.1.4-.2.1 0 .2 0 .3v.2c0 .1 0 .3.1.4 0 .2.2.4.4.5.2.1.4.6.6.6.2 0 .4-.1.5-.1.2 0 .4 0 .6-.1.2-.1.1-.3.3-.5.1-.1.3 0 .4-.1.2-.1.3-.3.4-.5v-.2c0-.1.1-.2.1-.3 0-.1-.1-.1-.1-.2v-.3c0-.2 0-.4-.1-.5-.4-.7-1.2-.9-2-.8-.2 0-.3.1-.4.2-.2.1-.1.2-.3.2-.1 0-.2.1-.2.2v.3c0 .1 0 0 0 0M54.1-2.8v.2c-.1.1-.1.1-.2.1-.1.1-.1.3-.1.4-.2.1 0 .2 0 .3v.2c0 .1 0 .3.1.4.1.2.2.4.4.5.2.1.4.6.6.6.2 0 .4-.1.5-.1.2 0 .4 0 .6-.1.2-.1.1-.3.3-.5.1-.1.3 0 .4-.1.2.1.3-.1.4-.3v-.2c0-.1.1-.2.1-.3 0-.1-.1-.1-.1-.2v-.3c0-.2 0-.4-.1-.5-.4-.7-1.2-.9-2-.8-.2 0-.3.1-.4.2-.2.1-.1.2-.3.2-.1 0-.2.1-.2.2v.1c0 .1 0 0 0 0M46.5-2.8v.2c-.1.1-.1.1-.2.1-.1.1-.1.3-.1.4-.2.1 0 .2 0 .3v.2c0 .1 0 .3.1.4.1.2.3.4.4.5.1.2.3.6.5.7.2 0 .4-.1.5-.1.2 0 .4 0 .6-.1.2-.1.1-.3.3-.5.1-.1.3 0 .4-.1.2-.1.3-.3.4-.5v-.2c0-.1.1-.2.1-.3 0-.1-.1-.1-.1-.2v-.3c0-.2 0-.4-.1-.5-.4-.7-1.2-.9-2-.8-.2 0-.3.1-.4.2-.2.1-.1.2-.3.2-.1 0-.2.1-.2.2.1.2.1.1.1.2M38.8-2.8v.2c-.1.1-.1.1-.2.1-.1.1-.1.3-.1.4-.2.1 0 .2 0 .3v.2c0 .1 0 .3.1.4 0 .2.2.4.4.5.2.1.4.6.6.6.2 0 .4-.1.5-.1.2 0 .4 0 .6-.1.2-.1.1-.3.3-.5.1-.1.3 0 .4-.1.2-.1.3-.3.4-.5v-.2c0-.1.1-.2.1-.3 0-.1-.1-.1-.1-.2v-.3c0-.2 0-.4-.1-.5-.4-.7-1.2-.9-2-.8-.2 0-.3.1-.4.2-.2.1-.1.2-.3.2-.1 0-.2.1-.2.2v.3c0 .1 0 0 0 0M31.1-2.8v.2c-.1.1-.1.1-.2.1-.1.1-.1.3-.1.4-.2.1 0 .2 0 .3v.2c0 .1 0 .3.1.4.1.2.2.4.4.5.2.1.4.6.6.6.2 0 .4-.1.5-.1.2 0 .4 0 .6-.1.2-.1.1-.3.3-.5.1-.1.3 0 .4-.1.2-.1.3-.3.4-.5v-.2c0-.1.1-.2.1-.3 0-.1-.1-.1-.1-.2v-.3c0-.2 0-.4-.1-.5-.4-.7-1.2-.9-2-.8-.2 0-.3.1-.4.2-.2.1-.1.2-.3.2-.1 0-.2.1-.2.2v.3c0 .1 0 0 0 0M23.5-2.8v.2c-.1.1-.1.1-.2.1-.1.1-.1.3-.1.4-.2.1 0 .2 0 .3v.2c0 .1 0 .3.1.4.1.2.3.4.4.5.1.2.3.6.6.7.2 0 .4-.1.5-.1.2 0 .4 0 .6-.1.2-.1.1-.3.3-.5.1-.1.3 0 .4-.1.2-.1.3-.3.4-.5v-.2c0-.1.1-.2.1-.3 0-.1-.1-.1-.1-.2v-.3c0-.2 0-.4-.1-.5-.4-.7-1.2-.9-2-.8-.2 0-.3.1-.4.2-.2.1-.1.2-.3.2-.1 0-.2.1-.2.2v.2c0 .1 0 0 0 0M15.8-2.8v.2c-.1.1-.1.1-.2.1-.1.1-.1.3-.1.4-.2.1 0 .2 0 .3v.2c0 .1 0 .3.1.4.1.2.2.4.4.5.2.1.4.6.6.6.2 0 .4-.1.5-.1.2 0 .4 0 .6-.1.2-.1.1-.3.3-.5.1-.1.3 0 .4-.1.2-.1.3-.3.4-.5v-.2c0-.1.1-.2.1-.3 0-.1-.1-.1-.1-.2v-.3c0-.2 0-.4-.1-.5-.4-.7-1.2-.9-2-.8-.2 0-.3.1-.4.2-.2.1-.1.2-.3.2-.1 0-.2.1-.2.2v.3c0 .1 0 0 0 0M8.2-2.8v.2c-.1.1-.2.1-.2.1-.1.1-.1.3-.1.4-.2.1 0 .2 0 .3v.2c0 .1 0 .3.1.4 0 .2.2.4.3.5.2.2.4.6.6.7.2 0 .4-.1.5-.1.2 0 .4 0 .6-.1.2-.1.1-.3.3-.5.1-.1.3 0 .4-.1.2-.1.3-.3.4-.5v-.2c0-.1.1-.2.1-.3 0-.1-.1-.1-.1-.2v-.3c0-.2 0-.4-.1-.5-.4-.7-1.2-.9-2-.8 0 .1-.2.2-.3.2-.2.1-.1.2-.3.3-.1 0-.2.1-.2.2v.1c-.1.1-.1 0 0 0M.5-2.8v.2c-.1.1-.1.1-.2.1 0 .1-.1.3-.1.4-.2.1 0 .2 0 .3v.2c0 .1 0 .3.1.4 0 .2.2.4.4.5.2.2.3.6.6.7.2 0 .4-.1.5-.1.2 0 .4 0 .6-.1.2-.1.1-.3.3-.5.1-.1.3 0 .4-.1.2 0 .3-.2.4-.4v-.2c0-.1.1-.2.1-.3 0-.1-.1-.1-.1-.2v-.3c0-.2 0-.4-.1-.5-.4-.7-1.2-.9-2-.8-.1 0-.2.1-.4.1-.1.1-.1.2-.3.3-.1 0-.2.1-.2.2v.1c0 .1 0 0 0 0"/></g></pattern><path class="st3" d="M584.8 194.9c-6.5-3.5-13.1-6.8-19.6-10l-1.8-.9-.3-.1-4.1-2c-5.9-2.8-12-5.5-18-8.1l-6.1-2.6v6.6l-.1 20.6v2.9l2.7 1.1c1.3.6 2.7 1.2 4 1.7 3.7 8.3 7.5 16.9 11.2 25.4v5l-6.2-2.8v6.8l-.1 20.7v2.8l2.6 1.2c6.7 3.1 13.5 6.3 20.1 9.7l6.3 3.2V269l.1-20.6v-2.7l-2.4-1.2c-1.2-.6-2.3-1.2-3.5-1.8v-8.6c3-3.9 6.1-7.9 9.1-11.9.7.3 1.4.7 2 1.1l6.4 3.4v-7.3l.1-20.6v-2.6l-2.4-1.3zm-23.3 22.9-3.5-8.4 6.8 3.4-3.3 5z"/><path class="st3" d="M539.3 228.7c-1.2-.5-2.5-1.1-3.8-1.6-2.3-9.4-4.7-19-7.1-28.5l2.4 1v-6.4l.1-20.7v-3l-2.8-1.1c-8.5-3.4-17.2-6.7-25.9-9.7l-5.8-2v6.1l-.1 20.6v3.1l2.9 1c.1 0 .3.1.4.1l-7.8 23.1c-.5-.2-1.1-.4-1.6-.5l-5.7-1.8v6l-.1 20.7v3.2l3.1 1c6.9 2.2 13.9 4.6 20.7 7.2l4.5 1.6 2.8 1.1c6.7 2.6 13.5 5.3 20.2 8.2l6.1 2.6v-6.6l.1-20.6v-2.9l-2.6-1.2zm-25.7-35.3 2.6 10.4-5.2-1.8 2.6-8.6zm-7.2 24.3c.1-.4 1.4-4.3 1.5-4.7 2.7 1 8.3 3.2 11 4.3.1.4.8 4.6.9 5 0 0-12.5-4.3-13.4-4.6zM75.5 154.4c-1.7-.8-3.7-1.2-5.8-1.2-3.7 0-7.9 1.1-12.8 3.3-9.8 4.4-19.6 9.2-29.1 14.2l-2.3 1.2v2.6l-.1 26.1v7.3l6.4-3.4c.5-.3 1-.5 1.5-.8l-.1 34.3c-1.9 1-3.9 2-5.8 3l-2.3 1.2v2.6l-.1 26.1v7.3l6.4-3.4c9.1-4.8 18.5-9.4 27.8-13.6l2.6-1.2v-2.8l.1-26.1v-6.8l-6.2 2.8c-1.2.5-2.4 1.1-3.6 1.6v-8.5c4.5-2.1 9.1-4.2 13.7-6.3 5.3-2.4 9.6-5.6 12.7-9.7 3.2-4.3 4.9-9.2 4.9-14.5l.1-20.8c-.1-9.1-4.4-12.9-8-14.5zm-11.3 40c0 .4-.1 1-.7 1.7s-1.4 1.4-2.5 1.9c-3 1.3-6 2.7-8.9 4.1v-7.5c3.9-1.8 7.9-3.7 11.8-5.4.1 0 .2-.1.3-.1v5.3zm5.2-36.7h.3c.4 0 .8 0 1.2.1-.6-.1-1-.1-1.5-.1zM203.8 173.5l-3.7.6v14l-.1.1c-.3.3-.8.5-1.5.7-1.3.2-2.7.5-4 .7l.1-26c1-.2 2-.4 3-.5l3.6-.6v-3.7l.1-20.7v-5.2l-5.2.9c-7.2 1.3-14.6 2.7-21.8 4.2l-3.4.7-5.4 1.2c-7.8 1.8-15.6 3.8-23.3 5.9l-3 .8-5.6 1.6c-6.2 1.8-12.4 3.8-18.6 5.8l-4.1 1.4-1.4.5-.3.1c-7 2.4-14 4.9-20.9 7.6l-2.8 1.1v3l-.1 20.6v6.4l6-2.3c.2-.1.3-.1.5-.2l-.1 25.6c-1.2.5-2.4.9-3.6 1.4l-2.8 1.1v3l-.1 20.6v6.4l6-2.3c6.8-2.6 13.8-5.1 20.6-7.5l1.8-.6 1.5-.5c6.8-2.3 13.8-4.4 20.6-6.5l3.1-.9 5.3-1.5c7.6-2.1 15.2-4 22.8-5.8l3.4-.8v-3.5l.1-20.6v-5.5l-5.4 1.2c-.6.1-1.2.3-1.8.4l.1-25.9 3.9-.9 3.4-.8 5.3-1.1c.4-.1.7-.2 1.1-.2l-.1 26-3 .6-3.5.7v3.5l-.1 20.7v5.4l5.3-1.1c12.5-2.7 25.2-5 37.8-6.8l3.7-.5v-3.8l.1-35.1v-5.1l-5 .7c-2.6.4-5.6.8-8.5 1.3zm-88.3 35.9c-.2.1-.4.1-.6.2l-3.9 1.3-1.4.5-.4.2c-.1 0-.1.1-.2.1v-5c2.2-.8 4.4-1.5 6.6-2.2l-.1 4.9zm.1-20.9c-2.2.7-4.4 1.5-6.5 2.2v-4.8c1-.3 2-.7 3-1l2-.7 1.3-.4c.1 0 .2-.1.3-.1l-.1 4.8zm30.5 11.8c-1.3.4-2.7.7-4.1 1.1l-3 .8-5.6 1.7c-.3.1-.5.1-.8.2l.2-25.8c1.1-.3 2.1-.6 3.2-.9l3.2-.9 5.3-1.5c.6-.2 1.2-.3 1.7-.5l-.1 25.8zM294.2 129.6c-3.5-2.8-8.4-4.3-14.3-4.3h-1.3c-8.3.2-16.7.7-24.9 1.3l-3.5.3-4.8.4c-7.9.7-15.9 1.6-23.8 2.6l-3.8.5v3.8l-.1 20.7v5l4.9-.6c.8-.1 1.7-.2 2.5-.3l-.1 26c-1.2.2-2.4.3-3.6.4l-3.8.5v3.8l-.1 20.6v5l4.9-.6c7.7-1 15.6-1.8 23.3-2.5l4-.3 4.2-.3c7.9-.6 15.9-1 23.8-1.2l4.2-.1v-4.2l.1-20.7v-4.5l-4.5.1c-1.3 0-2.5.1-3.8.1v-5.6c3.2-.1 6.4-.2 9.5-.3 5-.1 9-1.5 12-4 3.2-2.7 4.9-6.7 4.9-11.4l.1-16.5c.1-5.8-2-10.5-6-13.7zm-38 52.4c-1 .1-2 .1-2.9.2l-3.5.3h-.5l-4.3.4c-.8.1-1.7.2-2.6.2l.1-26.1c1.2-.1 2.3-.2 3.5-.3l4-.3 4.2-.3c.7 0 1.5-.1 2.2-.2l-.2 26.1zm23.7-52.3h.5-1.6 1.1zm2.8 29.7h-.6c-2.8.1-5.6.1-8.3.3v-4.8c2.7-.1 5.3-.2 8-.3h1v.3l-.1 4.5zM345.9 131.7c-3.7-3.3-8.9-5.2-15.4-5.6-8.2-.5-16.6-.8-24.9-1l-4.4-.1-.1 4.4V154.3l4.3.1c.8 0 1.7 0 2.5.1l-.1 26.2h-2.6l-4.4-.1v4.4l-.1 20.7v4.3l4.3.1c7.9.1 15.9.4 23.8.9l4.6.3v-4.6l.1-20.7v-4.1l-4.1-.2c-1.4-.1-2.8-.2-4.2-.2v-5.6c3.1.2 6.1.4 9.1.6.6 0 1.2.1 1.8.1 4.2 0 7.7-1 10.4-3.1 2.3-1.8 5-5.2 5.1-11.2l.1-16.5c.1-5.9-1.9-10.6-5.8-14.1zm-11.6 29h-.2c-2.9-.2-5.8-.4-8.7-.5v-4.8c2.5.1 5.1.3 7.6.4.7 0 1.1.2 1.3.2V160.7zm1.9 11.4h1.2-1.2zM357.4 128.4l-4.8-.5v4.9l-.1 20.7v3.9l3.9.4 2.7.3-.1 26.1c-.6-.1-1.2-.1-1.7-.2l-4.8-.5v4.8l-.1 20.7v4l3.9.4c13.2 1.4 26.5 3.3 39.6 5.7l5.1.9v-5.2l.1-31.7v-3.7l-3.6-.6c-2.7-.5-5.4-1-8.1-1.4v-4.8c2.1.4 4.3.7 6.4 1.1l5.1.9v-5.2l.1-15.3.1-15.5v-3.7l-3.6-.7c-13.1-2.4-26.7-4.3-40.1-5.8zm26.3 59c-2.4-.4-4.8-.7-7.2-1.1v-5.2c2.4.3 4.8.7 7.2 1.1v5.2zm0-20.7c-2.4-.4-4.8-.7-7.2-1.1v-5.3c2.2.3 4.3.6 6.5 1 .4 0 .6.1.7.2v5.2zM472.6 133.8c-3.5-2.9-7.6-5-12.3-6.2-9.7-2.5-19.6-4.8-29.4-6.8l-5.2-1.1v5.4l-.1 26.1v3.6l3.5.7c1.6.3 3.1.6 4.7 1l-.1 35.2c-1.1-.2-2.1-.4-3.2-.7l-5.2-1.1v5.3l-.1 26.1v3.6l3.5.7c8 1.6 16 3.4 23.9 5.4 4.7 1.2 8.7 1.7 12.2 1.7 3.8 0 7.1-.6 9.8-2 4.1-2 8.9-6.4 8.9-16.6l.2-56.9c0-4.5-1-8.9-2.9-13.1-2-3.9-4.7-7.4-8.2-10.3zm-8.5 61.4c0 3.1-.6 3.1-1.7 3.1-.7 0-1.6-.1-2.5-.4-2.2-.6-4.5-1.1-6.7-1.7l.1-35.1c1.8.5 3.7.9 5.5 1.4 1.8.5 3.1 1.3 4 2.5 1 1.3 1.4 2.8 1.4 4.8l-.1 25.4zm.7 33.4c-.1 0-.1-.1 0 0 .4 0 .9 0 1.3-.1-.5 0-.9.1-1.3.1z"/><linearGradient id="SVGID_1_" gradientUnits="userSpaceOnUse" x1="22.881" y1="21.644" x2="22.881" y2="135.354" gradientTransform="translate(31.585 135.869)"><stop offset=".214" style="stop-color:#feea00"/><stop offset=".478" style="stop-color:#f5a800"/><stop offset="1" style="stop-color:#e43533"/></linearGradient><path d="M29.8 174.7c9.5-5 19.2-9.7 28.9-14.1 6.6-3 11.6-3.6 15.1-2.1s5.3 5.1 5.3 10.7c0 6.9-.1 13.9-.1 20.8 0 4.4-1.4 8.3-4 11.9-2.6 3.5-6.3 6.3-11 8.3-5.5 2.4-10.9 4.9-16.3 7.5 0 6.1 0 12.1-.1 18.2 3.2-1.6 6.5-3.1 9.8-4.6 0 8.7-.1 17.4-.1 26.1-9.4 4.3-18.8 8.9-28 13.7 0-8.7.1-17.4.1-26.1l8.1-4.2c.1-14.7.1-29.5.2-44.2-2.7 1.3-5.3 2.7-8 4.1 0-8.6 0-17.3.1-26zm18 17c0 5.7 0 11.5-.1 17.2 5-2.4 10-4.7 15.1-7 1.8-.8 3.2-1.9 4.3-3.2 1-1.3 1.5-2.8 1.5-4.3v-6c0-2.1-.5-3.5-1.5-4s-2.7-.3-4.9.7c-4.8 2.1-9.7 4.3-14.4 6.6z" style="fill:url(#SVGID_1_)"/><linearGradient id="SVGID_2_" gradientUnits="userSpaceOnUse" x1="80.915" y1="16.174" x2="80.915" y2="107.784" gradientTransform="translate(31.585 135.869)"><stop offset=".214" style="stop-color:#feea00"/><stop offset=".478" style="stop-color:#f5a800"/><stop offset="1" style="stop-color:#e43533"/></linearGradient><path d="M89.9 167.7c6.9-2.7 13.8-5.2 20.8-7.5 0 6.9-.1 13.8-.1 20.7-2 .7-4 1.4-5.9 2.1 0 4.7 0 9.4-.1 14.1 5.1-1.8 10.2-3.5 15.3-5.2 0-4.7 0-9.4.1-14.1-2 .6-4 1.3-6.1 2 0-6.9.1-13.8.1-20.7 6.9-2.3 13.9-4.5 20.9-6.5 0 6.9-.1 13.8-.1 20.7-2.1.6-4.2 1.2-6.3 1.9l-.3 34.9c2.2-.6 4.3-1.3 6.4-1.9 0 6.9-.1 13.8-.1 20.7-7 2-13.9 4.2-20.8 6.5 0-6.9.1-13.8.1-20.6 2-.7 4-1.3 6-2 0-4.7 0-9.4.1-14.2-5.1 1.6-10.2 3.4-15.3 5.2-.1 4.7-.1 9.5-.2 14.2 2-.7 4-1.4 6.1-2.1 0 6.9-.1 13.8-.1 20.6-7 2.4-13.9 4.9-20.8 7.5 0-6.9.1-13.8.1-20.6 2.1-.8 4.3-1.6 6.4-2.4 0-11.6.1-23.3.1-34.9-2.1.8-4.3 1.6-6.4 2.4.1-7.1.1-14 .1-20.8z" style="fill:url(#SVGID_2_)"/><linearGradient id="SVGID_3_" gradientUnits="userSpaceOnUse" x1="123.448" y1="7.77" x2="123.448" y2="89.947" gradientTransform="translate(31.585 135.869)"><stop offset=".214" style="stop-color:#feea00"/><stop offset=".478" style="stop-color:#f5a800"/><stop offset="1" style="stop-color:#e43533"/></linearGradient><path d="M143.4 150c7.7-2.1 15.4-4.1 23.1-5.9 0 6.9-.1 13.8-.1 20.7-2.4.6-4.9 1.1-7.3 1.7 0 11.6-.1 23.3-.1 34.9 2.4-.6 4.8-1.2 7.2-1.7 0 6.9-.1 13.8-.1 20.7-7.7 1.8-15.4 3.7-23 5.8 0-6.9.1-13.8.1-20.7 2.4-.7 4.9-1.3 7.3-2 0-11.6.1-23.3.1-34.9-2.4.6-4.9 1.3-7.3 1.9.1-6.7.1-13.6.1-20.5z" style="fill:url(#SVGID_3_)"/><linearGradient id="SVGID_4_" gradientUnits="userSpaceOnUse" x1="162.723" y1="1.498" x2="162.723" y2="82.032" gradientTransform="translate(31.585 135.869)"><stop offset=".214" style="stop-color:#feea00"/><stop offset=".478" style="stop-color:#f5a800"/><stop offset="1" style="stop-color:#e43533"/></linearGradient><path d="M175.3 142.2c7.2-1.5 14.4-3 21.7-4.2 0 6.9 0 13.8-.1 20.7-2.2.4-4.5.8-6.7 1.2 0 11.6-.1 23.3-.1 34.9 3-.6 6.1-1.1 9.2-1.6 1.6-.3 2.9-.9 3.9-1.8.9-.9 1.4-2 1.5-3.2v-10.3c2.9-.4 5.8-.9 8.6-1.3 0 11.7-.1 23.4-.1 35.1-12.8 1.9-25.4 4.1-38.1 6.9 0-6.9 0-13.8.1-20.7 2.2-.5 4.3-.9 6.4-1.3 0-11.6.1-23.3.1-34.9-2.1.4-4.2.9-6.4 1.3-.1-7-.1-13.9 0-20.8z" style="fill:url(#SVGID_4_)"/><linearGradient id="SVGID_5_" gradientUnits="userSpaceOnUse" x1="202.328" y1="-5.064" x2="202.328" y2="73.797" gradientTransform="translate(31.585 135.869)"><stop offset=".214" style="stop-color:#feea00"/><stop offset=".478" style="stop-color:#f5a800"/><stop offset="1" style="stop-color:#e43533"/></linearGradient><path d="M222.1 134.2c7.8-1 15.7-1.9 23.6-2.6 0 6.9 0 13.8-.1 20.7-2.5.2-5 .4-7.5.7 0 11.7-.1 23.3-.1 34.9 2.4-.2 4.9-.5 7.3-.7 0 6.9-.1 13.8-.1 20.7-7.8.7-15.6 1.5-23.4 2.5 0-6.9 0-13.8.1-20.6 2.5-.3 5-.6 7.4-.9 0-11.6.1-23.3.1-34.9-2.5.3-4.9.6-7.4.9.1-6.9.1-13.8.1-20.7z" style="fill:url(#SVGID_5_)"/><linearGradient id="SVGID_6_" gradientUnits="userSpaceOnUse" x1="243.28" y1="-7.14" x2="243.28" y2="70.474" gradientTransform="translate(31.585 135.869)"><stop offset=".214" style="stop-color:#feea00"/><stop offset=".478" style="stop-color:#f5a800"/><stop offset="1" style="stop-color:#e43533"/></linearGradient><path d="M254 131c8.2-.6 16.5-1 24.7-1.3 5.5-.2 9.8 1 12.8 3.3s4.4 5.8 4.4 10.2c0 5.5 0 11-.1 16.5 0 3.5-1.1 6.2-3.4 8.1-2.2 1.9-5.3 2.9-9.3 3-4.6.1-9.2.3-13.8.5 0 4.8 0 9.6-.1 14.4 2.8-.1 5.5-.2 8.3-.3 0 6.9-.1 13.8-.1 20.6-8 .3-16 .7-24 1.2 0-6.9 0-13.8.1-20.7 2.3-.2 4.6-.3 7-.5 0-11.6.1-23.3.1-34.9-2.3.1-4.6.3-6.9.5.2-6.8.2-13.7.3-20.6zm15.5 19.7c0 4.5 0 9-.1 13.6 4.3-.2 8.5-.3 12.8-.4 1.5 0 2.7-.4 3.6-1.1.9-.7 1.3-1.7 1.3-3V155c0-1.7-.4-2.9-1.3-3.7-.9-.7-2.3-1.1-4.2-1-4 .1-8.1.2-12.1.4z" style="fill:url(#SVGID_6_)"/><linearGradient id="SVGID_7_" gradientUnits="userSpaceOnUse" x1="294.839" y1="-7.377" x2="294.839" y2="69.674" gradientTransform="translate(31.585 135.869)"><stop offset=".214" style="stop-color:#feea00"/><stop offset=".478" style="stop-color:#f5a800"/><stop offset="1" style="stop-color:#e43533"/></linearGradient><path d="M305.5 129.6c8.3.1 16.5.5 24.8 1 5.5.3 9.8 1.9 12.7 4.5 2.9 2.6 4.4 6.2 4.4 10.6 0 5.5 0 11-.1 16.5 0 3.5-1.2 6.1-3.4 7.8-2.2 1.7-5.3 2.4-9.3 2.1-4.6-.3-9.2-.6-13.8-.8 0 4.8 0 9.6-.1 14.4 2.8.1 5.5.3 8.3.4 0 6.9 0 13.8-.1 20.7-8-.5-16-.8-24-.9 0-6.9.1-13.8.1-20.7 2.4 0 4.7.1 7 .2 0-11.6.1-23.3.1-34.9-2.3 0-4.6-.1-6.9-.2.3-7 .3-13.9.3-20.7zm15.5 21.1c0 4.5 0 9.1-.1 13.6 4.3.2 8.6.4 12.8.7 1.5.1 2.7-.2 3.6-.8.8-.7 1.3-1.6 1.3-2.8v-4.8c0-1.7-.4-2.9-1.3-3.8-.9-.8-2.3-1.3-4.2-1.4-3.9-.3-8-.5-12.1-.7z" style="fill:url(#SVGID_7_)"/><g><linearGradient id="SVGID_8_" gradientUnits="userSpaceOnUse" x1="345.347" y1="-4.372" x2="345.347" y2="77.449" gradientTransform="translate(31.585 135.869)"><stop offset=".214" style="stop-color:#feea00"/><stop offset=".478" style="stop-color:#f5a800"/><stop offset="1" style="stop-color:#e43533"/></linearGradient><path d="M356.9 132.8c13.4 1.5 26.7 3.4 40 5.8-.1 10.3-.2 20.5-.2 30.8-2.9-.5-5.7-1-8.6-1.5v-6.7c0-1.1-.4-2-1.2-2.8-.8-.7-1.9-1.2-3.3-1.4-3.8-.6-7.6-1.1-11.5-1.7 0 4.7 0 9.4-.1 14.2 4.3.6 8.7 1.2 13 1.9v6.6c-4.3-.7-8.6-1.3-13-1.9 0 4.7 0 9.4-.1 14.1 3.7.5 7.4 1.1 11.1 1.6 1.4.2 2.5.1 3.4-.4.9-.5 1.4-1.3 1.4-2.2v-7.6l8.7 1.5c0 10.6-.1 21.2-.1 31.7-13.2-2.4-26.5-4.3-39.9-5.7 0-6.9.1-13.8.1-20.6 2.2.2 4.4.5 6.5.8 0-11.6.1-23.3.1-34.9-2.2-.3-4.4-.5-6.7-.8.4-7.1.4-13.9.4-20.8z" style="fill:url(#SVGID_8_)"/></g><g><linearGradient id="SVGID_9_" gradientUnits="userSpaceOnUse" x1="423.007" y1="-12.294" x2="423.007" y2="91.002" gradientTransform="translate(31.585 135.869)"><stop offset=".214" style="stop-color:#feea00"/><stop offset=".478" style="stop-color:#f5a800"/><stop offset="1" style="stop-color:#e43533"/></linearGradient><path d="M430 125.1c9.8 2 19.5 4.2 29.2 6.7 4.1 1.1 7.6 2.8 10.6 5.3s5.4 5.5 7 9.1c1.7 3.5 2.5 7.3 2.5 11.2-.1 19-.2 38-.2 56.9 0 6.4-2.2 10.6-6.5 12.7-4.3 2.1-10.6 2-19.1-.1-8-2-16-3.8-24.1-5.4 0-8.7.1-17.4.1-26.1l8.4 1.8c.1-14.7.1-29.5.2-44.2-2.8-.6-5.5-1.2-8.3-1.7.1-8.8.1-17.5.2-26.2zm18.9 30.5c-.1 14.7-.1 29.4-.2 44.1 3.3.8 6.7 1.6 10 2.5 6.5 1.7 9.7-.6 9.7-6.9 0-8.5.1-16.9.1-25.3 0-2.9-.7-5.4-2.3-7.4-1.5-2-3.7-3.4-6.5-4.1-3.5-1.2-7.1-2.1-10.8-2.9z" style="fill:url(#SVGID_9_)"/></g><g><linearGradient id="SVGID_10_" gradientUnits="userSpaceOnUse" x1="482.042" y1="25.19" x2="482.042" y2="115.57" gradientTransform="translate(31.585 135.869)"><stop offset=".214" style="stop-color:#feea00"/><stop offset=".478" style="stop-color:#f5a800"/><stop offset="1" style="stop-color:#e43533"/></linearGradient><path d="M500.9 162.9c8.6 3 17.2 6.2 25.7 9.6 0 6.9-.1 13.8-.1 20.7-1.5-.6-2.9-1.2-4.4-1.7 3.2 12.9 6.5 25.9 9.7 38.9 1.9.8 3.8 1.6 5.8 2.4 0 6.9-.1 13.8-.1 20.6-6.8-2.9-13.5-5.6-20.4-8.2v-20.7c2.3.9 4.5 1.7 6.7 2.6-1-3.9-2.1-7.8-3.1-11.7-4.9-1.9-9.7-3.7-14.6-5.4-1 3.1-2 6.3-3 9.4 2.3.8 4.5 1.6 6.7 2.4 0 6.9-.1 13.8-.1 20.7-6.9-2.5-13.9-4.9-20.8-7.2 0-6.9.1-13.8.1-20.7 1.9.6 3.8 1.3 5.7 1.9 3.5-10.5 7-20.9 10.5-31.3-1.5-.5-3-1-4.5-1.6.1-7 .1-13.8.2-20.7zm12.6 24.4c-1.7 5.4-3.4 10.9-5.2 16.4 3.6 1.3 7.1 2.6 10.6 4-1.7-6.8-3.5-13.5-5.2-20.3-.1-.1-.2-.1-.2-.1z" style="fill:url(#SVGID_10_)"/></g><g><linearGradient id="SVGID_11_" gradientUnits="userSpaceOnUse" x1="529.573" y1="39.928" x2="529.573" y2="130.97" gradientTransform="translate(31.585 135.869)"><stop offset=".214" style="stop-color:#feea00"/><stop offset=".478" style="stop-color:#f5a800"/><stop offset="1" style="stop-color:#e43533"/></linearGradient><path d="M539.2 177.8c6.7 2.9 13.3 5.8 19.8 9v20.7c-1.8-.9-3.6-1.7-5.4-2.5 2.5 5.7 5 11.3 7.4 17 2.5-3.3 4.9-6.6 7.4-9.9-1.7-.9-3.5-1.7-5.3-2.6 0-6.9.1-13.8.1-20.7 6.5 3.2 13.1 6.5 19.5 10 0 6.9-.1 13.8-.1 20.6-1.8-.9-3.5-1.9-5.3-2.8-4.1 5.3-8.2 10.6-12.3 16v12.8c2 1 3.9 2 5.9 3 0 6.9-.1 13.8-.1 20.6-6.7-3.4-13.4-6.6-20.2-9.7 0-6.9.1-13.8.1-20.7 2.1.9 4.2 1.9 6.2 2.9 0-4.2 0-8.5.1-12.8-4.1-9.3-8.2-18.6-12.3-27.8-1.9-.8-3.7-1.6-5.6-2.4 0-7 0-13.8.1-20.7z" style="fill:url(#SVGID_11_)"/></g><g><path class="st15" d="M512 272.4c23.3 10.4 43.4-.9 43.4-.9-25.9 6.5-31.5 1.5-43-1.9-8.7-2.6-25.5-10.7-42.5-16.1v-.2l-.4-.3c-10.3-8-28.3-9.6-41.6-9.7-9 0-15.8.7-16.7.8-.7 0-1.5-.1-2.2-.1-12.2 0-25.5 5.2-34.7 9.8 1.4-1.8 2.9-2.5 3.8-6 .7-2.6-2.4-11.1-12.2-14.2 0 0 23.1 16.2-10.4 31.8 0 0 7.6-.7 14.9-7.4 7.5-4.1 20-9.9 32-11.6-6.7 2.7-10.8 7.4-10.9 12.2 0 4.5 3.9 8.2 11.5 9.3 2.4.4 4.8.6 7.3.6 4.3 0 8.6-.5 12.5-1.4.1.1.2.1.3.2 3.8 1.7 9.4 2.7 16.9 2.8h.5c13.4.1 20.9-3.8 24.9-7.9.5-.5 1-1 1.3-1.5 17.7 6.7 37.1 18.5 53 17 0 0-16.1-3.6-32.9-11.9-5.5-2.7-11.9-5.4-18.4-7.5.5-1 .9-1.8 1.1-2.5 15.3 4.4 30.8 11.4 42.5 16.6zm-87.7-14.6s6.2-2 15.4-2.2c-1.4 2.3-4.3 4.6-8.2 6.4-2.5 1.2-5.4 2.2-8.5 2.9-2.9-1.5-4.1-3.2-4.1-4.7-.1-2.3 2.8-5.3 8.9-7.7 3.8-1.3 8.1-1.8 12.6-1.9.1.2.2.4.2.7.1.4.1.7.1 1.1v.7c-6.6 0-12.4 1.4-16.4 4.7zm16.9-9.6c-1-1.2-2.5-2.1-4.2-2.8 9.4.6 19.5 2.4 26.9 6.2-3.4-.9-6.9-1.8-10.2-2.3-4.9-.9-9.1-1.1-12.5-1.1zm-31 18.2c-2.4 0-4.7-.2-7-.5-7.3-1.2-9.9-4.3-9.9-7.4-.1-4.9 7-11.6 18.5-12.4v-.2.3s5.2-.7 11.3-.7c3.9 0 8.1.3 11.4 1.3 1.6.4 2.9 1 3.9 1.7-2.1.2-3.9.5-5.4.9l-.1-.5c-10.3 2.5-15.9 6.6-16.1 11.3 0 2 1.2 3.9 3.2 5.3-3 .6-6.4.9-9.8.9zm30.2 1.6h-.5c-5.9-.1-10.5-.8-13.9-1.9 2.3-.7 4.4-1.5 6.3-2.4 4.6-2.2 8.1-4.9 9.6-8.2 5.3 0 11.5.7 18 2.6 1.6.5 3.1 1 4.7 1.6-3.2 4-10.1 8.3-24.2 8.3zm25.9-10.5c-8-2.5-16.3-4.2-23.7-4.4v-.7c0-.5 0-1-.2-1.5 0-.1-.1-.2-.1-.2 7.9.2 16.4 1.9 25 4.4-.1.6-.4 1.4-1 2.4zM140.7 254.3c.2.7.6 1.6 1.1 2.5-6.6 2.1-13 4.7-18.5 7.4-16.9 8.2-33 11.6-33 11.6 15.8 1.6 35.4-10 53.1-16.5.4.5.8 1 1.3 1.6 4 4.1 11.4 8 24.8 8.1h.5c7.4 0 13-1 16.9-2.7.1 0 .2-.1.3-.1 4 1 8.2 1.5 12.5 1.5 2.4 0 4.9-.2 7.3-.5 7.6-1.1 11.6-4.8 11.6-9.2-.1-4.7-4.1-9.5-10.9-12.3 12 1.8 24.4 7.7 31.9 11.8 7.3 6.7 14.8 7.5 14.8 7.5-33.4-15.9-10.1-31.9-10.1-31.9-9.7 3-12.9 11.5-12.3 14.1.8 3.5 2.4 4.3 3.7 6.1-9.2-4.7-22.5-10-34.6-10.1h-2.2c-.9-.1-7.7-.9-16.7-.9-13.3 0-31.4 1.4-41.7 9.4l-.4.3v.2c-17.1 5.3-33.9 13.3-42.6 15.8-11.5 3.3-17.2 8.3-43 1.6 0 0 20 11.4 43.4 1.2 11.7-5.1 27.3-12 42.8-16.5zm28.7-2.3v-.7c0-.4 0-.7.1-1.1 0-.2.1-.5.2-.7 4.5.1 8.7.7 12.6 2 6.1 2.4 8.9 5.5 8.8 7.8 0 1.5-1.2 3.3-4.1 4.7-3.1-.8-6-1.8-8.5-3-3.9-1.9-6.8-4.2-8.2-6.5 9.2.3 15.4 2.3 15.4 2.3-4-3.3-9.8-4.7-16.3-4.8zm-13.1-3.8c-3.3.6-6.8 1.4-10.2 2.3 7.4-3.8 17.6-5.5 27-6-1.7.7-3.2 1.6-4.2 2.8-3.4-.2-7.6 0-12.6.9zm33.5 16.4c2.1-1.5 3.2-3.3 3.2-5.3-.1-4.7-5.7-8.8-16-11.5l-.1.5c-1.5-.4-3.2-.8-5.4-1 1-.7 2.3-1.3 3.9-1.7 3.3-.9 7.5-1.2 11.4-1.2 6.1 0 11.3.7 11.3.7v-.3.2c11.6.9 18.6 7.6 18.5 12.6 0 3.1-2.7 6.2-9.9 7.3-2.3.3-4.7.5-7 .5-3.4.2-6.7-.2-9.9-.8zm-44.5-6.1c1.6-.6 3.2-1.1 4.8-1.5 6.5-1.9 12.7-2.5 18.1-2.5 1.5 3.2 5 6 9.6 8.2 1.9.9 4.1 1.7 6.3 2.4-3.4 1.1-8.1 1.7-13.9 1.8h-.5c-14.3-.1-21.1-4.4-24.4-8.4zm-2.7-4.8c8.6-2.4 17.2-4.1 25.1-4.2 0 .1-.1.2-.1.3-.1.5-.2 1-.2 1.5v.7c-7.4.1-15.6 1.8-23.7 4.3-.5-1-.9-1.9-1.1-2.6zM262.4 238.9l14.7.1v1.4h-2.7c-.6 0-1 .1-1.2.2-.2.2-.4.4-.4.8l-.1 17.7c0 .4.1.7.4.9.3.2.8.3 1.5.3h2.4v1.4l-14.7-.1v-1.4h2.3c.8 0 1.3-.1 1.6-.3.3-.2.5-.5.5-.9l.1-17.5c0-.4-.1-.8-.4-1-.3-.2-.8-.3-1.4-.3h-2.5l-.1-1.3zM282.3 238.9h8.9l15.5 15.7V244c0-1-.4-1.9-1.1-2.5-.7-.6-1.8-1-3.2-1.1V239h10.5v1.4c-1.5.1-2.5.5-3.2 1-.6.6-.9 1.4-.9 2.5l-.1 17.8h-2.3l-17.6-18.1v12.5c0 1.4.4 2.5 1.2 3.1.8.7 1.9 1 3.1 1h.5v1.4H282v-1.4h.8c1.1 0 2.1-.4 2.9-1.1.8-.7 1.2-1.7 1.2-2.8l.1-14.7c-.9-.9-2-1.4-3.3-1.4h-1.3l-.1-1.3zM337.7 240.9l1.4-2.3h1.4l.4 9.1h-1.8c-.5-2.6-1.6-4.6-3.1-5.9-1.5-1.3-3.3-1.9-5.3-1.9-2.2 0-4 .8-5.4 2.4-1.4 1.6-2.2 4.2-2.2 7.8 0 3.8.8 6.5 2.3 8.4 1.3 1.4 3.1 2.2 5.5 2.2s4.5-.7 6.2-2.1c1.2-1 2.1-2.6 2.5-4.6h1.7c-.4 2.6-1.7 4.6-3.8 6.2-2.1 1.5-4.7 2.2-7.7 2.2-3.9 0-7.2-1.1-9.9-3.3-2.6-2.2-4-5.1-3.9-8.5 0-3.8 1.5-6.9 4.6-9.1 2.6-1.9 5.7-2.9 9.2-2.9 1.4 0 2.7.2 3.9.5 1.4.3 2.6.9 4 1.8zM347.9 257.2c.9 0 1.7.3 2.3.8.6.5 1 1.1 1 1.9 0 .7-.3 1.3-1 1.9-.6.5-1.4.8-2.3.8-.9 0-1.6-.3-2.3-.8-.6-.5-.9-1.1-.9-1.9 0-.7.4-1.3 1-1.9.5-.5 1.3-.8 2.2-.8z"/></g><g><path d="M185.5 80.5c-3.7.4-5.5.5-9.2.9v-8c0-.6-.1-1.1-.2-1.3-.2-.5-.8-.8-1.6-.9v22.4c0 1.1.1 2.1.3 3 .2.8.6 1.4 1.1 1.6v8.3h-15.4v-7.3c.6-.3 1-.7 1.1-1.3.2-.6.2-1.3.3-2.3V73.3c-.7.1-1.2.5-1.4 1-.2.5-.3 1.2-.3 2v7c-3.7.4-5.5.7-9.2 1.1V66.3c11.4-2.6 22.9-4.9 34.4-7 .1 7 .1 14.1.1 21.2zM219.8 106.4h-13.6c-.2-.9-.4-2.3-.5-4-.1-1.7-.2-3.9-.2-6.7v-4.6c0-1.6-.5-2.8-1.3-3.5-.5-.4-1.4-.7-2.7-.9v5.9c0 1.4.1 2.5.2 3.4.1.9.5 1.5 1.2 1.7v8.7h-15.5v-8.2c.7-.6 1.1-1.3 1.2-2.1.2-.8.2-2 .2-3.6 0-6.6 0-13.2-.1-19.8 0-.8.1-1.4.1-1.8 0-.8-.1-1.4-.3-1.8-.2-.4-.6-.7-1.2-1V59c6.1-1 12.3-2 18.4-3 3.3-.5 6-.2 8 .8 3.5 1.7 5.4 5.6 5.4 11.4 0 4-.5 7-1.7 9-.8 1.5-4.2 3.8-4.2 3.8 0 .1 3.4 1.2 4.2 2.7.6 1.2.9 2.9.9 5.1v3.8c0 1.3.1 2.3.3 3 .1.8.5 1.4 1.2 1.8v9zm-13.7-34.8c0-1.5-.4-2.7-1.2-3.5-.8-.8-2-1.1-3.6-.9v10c1.6-.1 2.7-.5 3.3-1.1 1-.8 1.5-2.3 1.5-4.5zM254.7 106.5h-15.9V97c.5-.6.9-1.1 1.2-1.8.2-.7.4-1.8.4-3.3-2.5.1-3.8.1-6.3.2 0 1.6.1 2.7.3 3.3.2.6.6 1.2 1.2 1.8 0 3.8 0 5.6.1 9.4H222V97c.6-.8 1-1.6 1.3-2.3.2-.7.4-1.7.6-3.2 1.7-12.8 3.4-25.6 5-38.4 6-.6 12.1-1.2 18.1-1.8l5.7 39.9c.4 2.8 1.1 4.6 2.3 5.7-.4 3.8-.4 5.7-.3 9.6zm-16-25.1c-.6-5.3-1.2-10.6-1.9-15.8-.6 5.3-1.3 10.7-1.9 16 1.5-.1 2.3-.1 3.8-.2zM289.7 58.9c-.6.8-1 1.5-1.2 2.3-.2.8-.2 2-.2 3.6 0 13.9 0 27.8-.1 41.8H276c-2.6-8.5-5.2-17.1-7.8-25.6v8.9c0 1.3.1 2.4.1 3.4.1 1 .5 1.7 1.4 2.4v10.9h-12.6V96.4c.6-.5 1-1.1 1.2-1.9.2-.8.3-1.6.3-2.5V64.3c0-1-.1-1.8-.3-2.4-.2-.6-.6-1.2-1.2-1.7v-9.7c5.5-.4 8.2-.5 13.7-.8 2.4 8.5 4.7 17 7 25.5V63c0-.8-.1-1.5-.2-2s-.4-1.1-.9-1.6v-9.9c5.2-.2 7.8-.3 12.9-.4.1 3.8.1 5.8.1 9.8zM324 87.8c-.2 5.3-.7 10.5-4.1 14.9-2.6 3.4-6.9 5-12.5 5-2.3 0-4.8-.6-7.6-1.7-3.4-1.4-5.5-3.2-6.4-5.3V85.8h12.5v3.8c0 3.3.7 4.9 2.3 4.9.7 0 1.4-.5 1.8-1.6.5-1.1.7-2.3.7-3.9 0-2.5-1.5-4.4-4.6-5.6-4.6-1.8-7.5-3.2-8.5-4.2-3.8-3.6-4.7-9.5-4.6-14.5.1-5.3 1.3-9.4 3.9-12.3 2.6-2.8 6.2-4.3 11-4.2 2.9 0 5.7.6 8.2 1.8 2 .9 4.1 2.3 6.3 4.2 0 5.5 0 8.3-.1 13.8-4.7-.1-7.1-.1-11.8-.2v-3.1c0-1.4-.2-2.5-.7-3.2-.4-.7-1-1.1-1.6-1.1-.6 0-1.1.2-1.5.7-.5.5-.7 1.1-.7 1.9 0 3.3 1.5 5.6 4.6 6.9 5.1 2.1 8 3.5 8.7 4 3.2 2.7 4.9 7.6 4.7 13.9zM358.9 75.6c.1 7.7-3.5 15.6-12.3 15.1-2.1 0-3.1-.1-5.2-.1v2.2c0 1 .1 1.8.2 2.2.1.5.4.9 1 1.3 0 4.1 0 6.2-.1 10.4-5.1 0-10.3-.1-15.5-.1 0-4.2 0-6.3.1-10.5.6-.3 1-.9 1.2-1.5.2-.7.3-1.6.3-2.7v-2.1c0-7.9.1-15.9.1-23.8v-1.8c0-1.1-.1-1.9-.2-2.5-.2-.6-.6-1.1-1.2-1.5 0-4.4 0-6.6.1-11.1 6.3.2 12.6.5 18.9.9 3.5.2 6.4 1.6 8.7 4 2.8 3 4.2 7.1 4.1 12.3-.1 3.8-.1 5.6-.2 9.3zM346 74v-6.3c0-2-.3-3.4-.9-4.1-.6-.7-1.8-1.1-3.6-1.2 0 5.4-.1 10.8-.1 16.2.6.1 1 .2 1.3.2 2.2 0 3.3-1.6 3.3-4.8zM390.9 92.6c-.1 5.2-1.2 9-3.4 11.5-2.4 2.7-6.2 4-11.5 4-5.4 0-9.4-1.5-11.8-4.5-2.4-3-3.6-7.5-3.6-13.5.1-7.7.2-15.3.2-23 .1-5.7 1.4-9.9 3.9-12.4 2.5-2.6 6.5-3.6 11.8-3 5.3.6 9.1 2.3 11.3 5.1 2.2 2.7 3.3 6.8 3.2 12.2.1 7.8 0 15.7-.1 23.6zm-12.5-1.4.3-22.9c0-1.8-.1-2.9-.2-3.3-.3-.8-.9-1.3-2-1.4-1.7-.1-2.6 1.3-2.6 4.3-.1 7.7-.2 15.4-.2 23.1 0 1.5.1 2.8.5 3.7.3.9 1 1.4 2.1 1.4.8 0 1.4-.4 1.7-1.3.2-.9.4-2.1.4-3.6zM426.1 107.3c-5.4 0-8.2-.1-13.6-.1-.2-.9-.4-2.2-.5-3.9-.1-1.7-.1-3.9-.1-6.6 0-1.8 0-2.7.1-4.6 0-1.6-.4-2.8-1.3-3.6-.5-.5-1.4-.9-2.7-1.3 0 2.4 0 3.6-.1 6 0 1.4 0 2.5.2 3.5.1.9.5 1.5 1.2 1.7 0 3.5-.1 5.2-.1 8.7-5.2 0-10.3-.1-15.5-.1 0-3.6 0-5.4.1-9.1.7-.6 1.1-1.4 1.3-2.2.2-.9.3-2.2.3-3.9.1-7.2.2-14.4.2-21.6.1-.9.1-1.6.1-2 0-.8-.1-1.5-.2-2-.2-.5-.6-1-1.2-1.4 0-4 .1-6 .1-10.1 6.2.8 12.3 1.8 18.5 2.7 3.3.5 5.9 1.6 7.9 3.1 3.5 2.7 5.2 6.6 5.2 11.9 0 3.6-.6 6.2-1.8 7.9-.9 1.3-4.2 2.8-4.2 2.8 0 .1 3.4 1.6 4.2 3.1.6 1.2.9 2.8.9 4.8v3.5c0 1.2 0 2.1.2 2.8.1.7.5 1.3 1.1 1.7-.2 3.4-.3 5-.3 8.3zM412.9 73c0-1.5-.4-2.8-1.1-3.7-.8-1-2-1.6-3.5-1.8-.1 4.1-.1 6.1-.1 10.1 1.6.2 2.7 0 3.3-.5.9-.6 1.4-2 1.4-4.1zM462.8 85.6c-3.7-.5-5.5-.7-9.2-1.2V77c0-.6 0-1.1-.2-1.3-.3-.5-.8-1-1.6-1.3-.1 7-.1 14.1-.1 21.1 0 1.1.1 2 .3 2.8.2.8.6 1.3 1.1 1.6v7.7c-5.2 0-10.3-.1-15.4-.1 0-3.1.1-4.7.1-7.9.6-.2 1-.6 1.2-1.2.2-.6.3-1.4.3-2.4v-1.7c.1-7.3.1-14.6.2-22-.7-.1-1.2.1-1.4.6-.2.5-.3 1.2-.3 2.1 0 3-.1 4.5-.1 7.6-3.7-.4-5.6-.6-9.3-1 .1-7.1.1-14.2.2-21.2 11.5 2.2 23 4.6 34.4 7.3-.2 5.8-.2 11.9-.2 17.9z"/></g></svg>