<svg version="1.1" id="Layer_1" xmlns="http://www.w3.org/2000/svg" x="0" y="0" width="600" height="250" style="enable-background:new 0 0 600 250" xml:space="preserve"><style>.st0{fill:#001f60}.st2{fill:#fff}</style><path id="XMLID_252_" class="st0" d="m175.1 123.3-4.8-17.6c-.3-1.6-.7-3.6-1.1-5.9-.4 2.3-.8 4.3-1.1 5.9l-4.8 17.6h-12.1l-10.1-38.4h10.8l5.3 22.8c.3 1.5.6 3.2.8 5 .3-1.8.6-3.5.8-5l4.9-22.8h11.1l4.9 22.8c.3 1.4.5 3.1.8 4.8.2-1.7.4-3.3.8-4.8l5.3-22.8h10.8l-10.1 38.4h-12.2z"/><path id="XMLID_249_" class="st0" d="M208.2 123.3h-11l14.3-38.4h14l14.3 38.4h-10.9l-2.1-6.1h-16.4l-2.2 6.1zm11.3-26.4c-.4-1.4-.8-2.5-1.1-3.5-.3 1-.7 2.1-1.1 3.5l-3.8 11h9.9l-3.9-11z"/><path id="XMLID_246_" class="st0" d="M279.9 123.3H269l-7.7-10.7h-5.2v10.7h-10.3V84.9h15.9c10.8 0 16.9 5.2 16.9 14.3 0 5.6-2.6 9.6-7.3 11.6l8.6 11.6v.9zm-18-18.7c4.3 0 6.7-2 6.7-5.3 0-3.5-2.4-5.5-6.7-5.5h-5.8v10.9h5.8z"/><path id="XMLID_243_" class="st0" d="M320.1 123.3h-10.9l-7.7-10.7h-5.2v10.7H286V84.9h15.9c10.8 0 16.9 5.2 16.9 14.3 0 5.6-2.6 9.6-7.3 11.6l8.6 11.6v.9zM302 104.6c4.3 0 6.7-2 6.7-5.3 0-3.5-2.4-5.5-6.7-5.5h-5.8v10.9h5.8z"/><path id="XMLID_241_" class="st0" d="M326.1 123.3V84.9h10.3v38.4h-10.3z"/><path id="XMLID_239_" class="st0" d="m372.7 123.3-16.2-21.6v21.6h-10.3V84.9h9.3l16.2 21.9V84.9H382v38.4h-9.3z"/><path id="XMLID_237_" class="st0" d="M426.5 119.1c-6.9 3.4-12.3 4.8-18.6 4.8-11.5 0-18.8-7-18.8-19.7 0-11.9 7.6-19.9 19.1-19.9 4.8 0 11.2 1.1 16.6 3.5l-2.6 7.6c-4.8-1.3-8.6-2.1-13.1-2.1-5.9 0-9.7 4.4-9.7 10.9 0 6.9 3.3 10.6 8.9 10.6 3.1 0 5.9-.2 9.3-1.4v-3.8h-9.8v-8.1h18.7v17.6z"/><path id="XMLID_235_" class="st0" d="M452.4 94.2v29.1h-10.3V94.2h-11.8v-9.3h34v9.3h-11.9z"/><path id="XMLID_232_" class="st0" d="M507 104.2c0 12.6-7.3 19.7-19.4 19.7-12.1 0-19.4-7-19.4-19.7s7.3-19.9 19.4-19.9c12.1 0 19.4 7.1 19.4 19.9zm-10.3 0c0-7.1-3.3-10.7-9-10.7s-9.1 3.6-9.1 10.7c0 6.9 3.3 10.5 9.1 10.5 5.6 0 9-3.6 9-10.5z"/><path id="XMLID_230_" class="st0" d="m540.6 123.3-16.2-21.6v21.6h-10.3V84.9h9.3l16.2 21.9V84.9h10.3v38.4h-9.3z"/><g id="XMLID_2_"><path id="XMLID_212_" class="st0" d="M341.3 150.8c-.8 6-5 9.8-10.9 9.8-5.8 0-8.9-3.8-8.1-9.8.9-6.2 5.1-10 10.9-10 5.9-.1 9 3.8 8.1 10zm-2.6-.1c.7-5.1-1.2-7.7-5.7-7.7-4.2 0-7.3 2.9-8 7.7-.7 4.9 1.2 7.4 5.7 7.4 4.3.1 7.3-2.8 8-7.4z"/><path id="XMLID_228_" class="st0" d="M164.7 157.5c-2.5 2-6 3.1-10.2 3.1-7.3 0-11.6-4.6-11.6-12.8 0-8.2 4.3-12.9 12-12.9 3 0 6.5.8 8.8 2.1l-.9 2.1c-2.2-1-5.2-1.6-7.7-1.6-6 0-9.2 3.6-9.2 10.3 0 6.5 3.2 10.2 8.8 10.2 3.6 0 6.5-.9 8.9-2.6l1.1 2.1z"/><path id="XMLID_225_" class="st0" d="M192.1 147.8c0 8.2-4.3 12.8-11.6 12.8-7.4 0-11.7-4.6-11.7-12.8 0-8.3 4.3-12.9 11.7-12.9 7.3 0 11.6 4.6 11.6 12.9zm-2.9 0c0-6.7-3.2-10.3-8.8-10.3-5.6 0-8.8 3.6-8.8 10.3 0 6.6 3.2 10.2 8.8 10.2 5.7-.1 8.8-3.6 8.8-10.2z"/><path id="XMLID_223_" class="st0" d="M198.4 160.2v-24.9h2.8v22.3h12.7v2.7h-15.5z"/><path id="XMLID_221_" class="st0" d="M218.9 160.2v-24.9h2.8v22.3h12.7v2.7h-15.5z"/><path id="XMLID_219_" class="st0" d="M239.5 160.2v-24.9h16.4v2.6h-13.6v8.4h11.9v2.6h-11.9v8.7h13.9v2.6h-16.7z"/><path id="XMLID_217_" class="st0" d="M283.5 157.1c-3.6 2.4-7.2 3.5-11.5 3.5-7 0-11.2-4.6-11.2-12.8 0-8.1 4.3-12.9 11.9-12.9 3.2 0 6.8.7 9.6 2l-.9 2.3c-2.6-1.1-5.7-1.7-8.5-1.7-5.9 0-9.2 3.7-9.2 10.2 0 6.6 3.2 10.2 8.5 10.2 3.3 0 6.1-.6 8.7-2.4v-5.4h-9.3v-2.6h12v9.6z"/><path id="XMLID_215_" class="st0" d="M290.1 160.2v-24.9h16.4v2.6h-13.6v8.4h11.9v2.6h-11.9v8.7h13.9v2.6h-16.7z"/><path id="XMLID_208_" class="st0" d="M380.2 135.3c6.4 0 9.3 2.2 9.3 6.8 0 2.6-1.4 4.3-4 5.1 3.8.9 5.7 3.1 5.7 6.2 0 4.7-3.4 6.7-10.3 6.7h-8.5v-24.9h7.8zm-5.1 10.8h6.5c3.4 0 5.2-1.3 5.2-3.8 0-3-2-4.4-6.6-4.4h-5.1v8.2zm0 11.4h5.7c5 0 7.4-1.2 7.4-4.2s-2.3-4.7-6.7-4.7H375v8.9z"/><path id="XMLID_206_" class="st0" d="M417.4 149c0 7.3-3.8 11.5-10.4 11.5-6.6 0-10.4-4.2-10.4-11.6v-13.7h2.8V149c0 5.8 2.8 8.9 7.6 8.9 4.9 0 7.6-3.1 7.6-8.9v-13.7h2.8V149z"/><path id="XMLID_204_" class="st0" d="M438.9 139.1c-2.8-1.2-5.4-1.8-8.2-1.8-3 0-4.8 1.8-4.8 3.6 0 3 1.9 3.6 7 5.3 5.1 1.7 7.7 3.3 7.7 7.4 0 4.9-3.7 6.9-8 6.9-3.7 0-7.8-1.3-10.7-3.5l1.1-2.1c3 2 6.6 3.1 9.5 3.1 3.4 0 5.3-1.4 5.3-3.9 0-2.9-1.5-3.9-7.1-5.6-4.7-1.5-7.6-2.6-7.6-7.2 0-3.8 3-6.4 7.7-6.4 2.8 0 6.1.7 9 2l-.9 2.2z"/><path id="XMLID_202_" class="st0" d="M447 160.2v-24.9h2.8v24.9H447z"/><path id="XMLID_200_" class="st0" d="M476.4 160.2 461 140.1v20.1h-2.8v-24.9h2.5l15.4 20.2v-20.2h2.8v24.9h-2.5z"/><path id="XMLID_198_" class="st0" d="M487.4 160.2v-24.9h16.4v2.6h-13.6v8.4h11.9v2.6h-11.9v8.7h13.9v2.6h-16.7z"/><path id="XMLID_196_" class="st0" d="M525.3 139.1c-2.8-1.2-5.4-1.8-8.2-1.8-3 0-4.8 1.8-4.8 3.6 0 3 1.9 3.6 7 5.3 5.1 1.7 7.7 3.3 7.7 7.4 0 4.9-3.7 6.9-8 6.9-3.7 0-7.8-1.3-10.7-3.5l1.1-2.1c3 2 6.6 3.1 9.5 3.1 3.4 0 5.3-1.4 5.3-3.9 0-2.9-1.5-3.9-7.1-5.6-4.7-1.5-7.6-2.6-7.6-7.2 0-3.8 3-6.4 7.7-6.4 2.8 0 6.1.7 9 2l-.9 2.2z"/><path id="XMLID_194_" class="st0" d="M548.2 139.1c-2.8-1.2-5.4-1.8-8.2-1.8-3 0-4.8 1.8-4.8 3.6 0 3 1.9 3.6 7 5.3 5.1 1.7 7.7 3.3 7.7 7.4 0 4.9-3.7 6.9-8 6.9-3.7 0-7.8-1.3-10.7-3.5l1.1-2.1c3 2 6.6 3.1 9.5 3.1 3.4 0 5.3-1.4 5.3-3.9 0-2.9-1.5-3.9-7.1-5.6-4.7-1.5-7.6-2.6-7.6-7.2 0-3.8 3-6.4 7.7-6.4 2.8 0 6.1.7 9 2l-.9 2.2z"/><path id="XMLID_193_" class="st0" d="M356.1 135.2c1.1 0 2.1 0 3 .1l.5-2.1c-.9-.2-2.1-.3-3.6-.3-4.3 0-6.2 2.1-6.8 6.3l-.2 1.8h-2.8l-.3 2.3h2.8l-2.3 16c-.3 2.7-1.4 4.1-4.3 4.1h-.3l-.5 2.3h1.1c4.3 0 6.2-2.1 6.8-6.3l2.3-16h6.2l.3-2.3h-6.2l.3-1.8c.1-2.7 1.2-4.1 4-4.1z"/></g><path id="XMLID_17_" style="fill:#ff4713" d="M50.1 84.9h75.3v75.3H50.1z"/><path id="XMLID_16_" class="st2" d="M98.4 133.2v-8.4h7.7v-5.5h-7.7v-7.8h8.5v3h5.6V106H90.1v5.5h2.1v21.7h-2.1v5.5h10.3v-5.5z"/><path id="XMLID_189_" class="st2" d="M86.7 126.3v-14.9h2.1V106H78.5v5.5h2v13c0 5.5-.6 8.1-4.5 8.1s-4.5-2.6-4.5-8.1v-13h2V106H63v5.5h2v14.9c0 3.2 0 5.9 1.5 8.3 1.7 2.7 4.8 4.4 9.3 4.4 8.1 0 10.9-4.2 10.9-12.8"/></svg>