<svg version="1.1" id="Layer_1" xmlns="http://www.w3.org/2000/svg" x="0" y="0" width="612" height="792" style="enable-background:new 0 0 612 792" xml:space="preserve"><style>.st0{fill:#ee3124}</style><path d="M156.3 277.5s-4.5-9.7-8.9-17.8l-8.1 17.8s-16.8-31.7-17.9-33.7c-.3-.5-.6-.9-1-1.3-.5-.4-1.2-.7-2.4-1.1v-.3h10.3v.3c-1.7.5-1.8 1.8-1 2.9l13.4 25.2 5.4-12.4c-3.5-6.5-6.8-12.5-7.2-13.3-.5-1-.9-1.7-3.4-2.4v-.3h10.2v.3c-1.6.5-1.7 1.8-1 2.9l4 7.4 3.9-8.1c.5-1.2.6-1.7-1.1-2.2v-.3h6.7c-.6.3-1.7.8-2.2 1.3-.4.4-.6.9-.8 1.3l-5.1 10.5 7.3 15.4 12-26.1c.6-1.1.4-1.7-1.4-2.2v-.3h7.7c-.5.3-1.1.6-1.6.9-.9.5-1.2.8-1.7 1.8l-16.1 33.8zM179.6 253.6c-6.1 0-7.9 2.6-10.3 7.6l-.2-6.5c1.3-.7 2.6-1.5 4-2 1.6-.5 3.5-.9 6.4-.9 4 0 10.6 1 10.6 6.3v14.1c0 .4 0 1 .2 1.4.4.7 1.7.7 2.4.8l-4.2 1.8c-1.9-1-2.4-1.6-2.4-3.9-2.3 1.7-6 3.8-11.2 3.8-6.4 0-8.3-4.2-8.3-6.2s1-4.2 4.8-5.8c.9-.4 2.2-.8 3.6-1.1 1.4-.3 3-.7 4.5-1 3-.6 5.6-1.3 6.7-2.1v-2c-.2-1.8-1.6-4.3-6.6-4.3zm6.4 8.6c-2.2.8-4.6 1.3-8.3 2.1-3.9.9-6.9 2.2-6.9 4.9 0 2.8 2 4.4 5.7 4.4 4 0 7.1-1.3 9.5-3.1v-8.3zM213.8 273.9l-14.3-10.1v9.9c0 1 .7 1.3 1.8 1.7l.8.3h-9.3l.8-.3c1.1-.4 1.7-.7 1.7-1.7V244c0-1.5-1.3-1.6-2.4-1.8l-.7-.1 7.3-1.4v22.1c2.2-1.4 11.8-8.1 11.8-8.1 1.4-1 1-1.6-.8-2v-.3h10.2c-1.9.7-3.9 1.3-5.7 2.4-4 2.6-10.5 6.9-11.6 7.7l15.2 10.7c1.3 1 2.2 1.6 4.3 2.3v.3h-10.2v-.3c1.7-.5 1.6-1.2 1.1-1.6z"/><path d="M245.5 262h-23.2c0 .5-.1 1-.1 1.5 0 5.9 4 10 11.5 10 5.1 0 10.3-3.1 11.5-5.5l.3-.7-.1.8c-.4 4.2-5.8 8.1-12.7 8.1-10.4 0-15.5-6.7-15.5-12 0-5 4.8-12.4 15.9-12.4 4.9 0 12.2 2.8 12.2 10v.2zm-13.3-8.5c-5.9 0-8.8 3.4-9.6 6.9h18.2c-.1-5.3-4.3-6.9-8.6-6.9z"/><path d="m285.8 246.4-.1.2-17.9 30.1-17.4-29.2-.1-.2v26.2c0 1.6 1.4 2 2.6 2.4h-7.2v-.3c1.2-.4 1.8-1.1 1.8-2.1v-29.8c0-1.3-1.8-2-2.8-2.4h7.6l16.7 28.5 16.9-28.5h7.2c-1.2.5-2.4.9-2.4 2.4v29.8c0 1.6 1.3 2 2.5 2.4h-9.9c1.2-.4 2.5-.8 2.5-2.4V246.4z"/><path d="M320.5 262h-23.2c0 .5-.1 1-.1 1.5 0 5.9 4 10 11.5 10 5.1 0 10.3-3.1 11.5-5.5l.3-.7-.1.8c-.4 4.2-5.8 8.1-12.7 8.1-10.4 0-15.5-6.7-15.5-12 0-5 4.8-12.4 15.9-12.4 4.9 0 12.2 2.8 12.2 10v.2zm-13.3-8.5c-5.9 0-8.8 3.4-9.6 6.9h18.2c-.2-5.3-4.3-6.9-8.6-6.9zM337.6 251.8c3 0 5.2.7 6.8 1.7V244c0-1.5-1.3-1.6-2.4-1.8l-.7-.1 7.3-1.4v32.1c0 1.5 1.4 1.6 2.4 1.8l.6.1-6.9 1.4-.2-2.8c-1.7 1.2-5.4 2.8-9 2.8-10.9 0-14-7.1-14-12.7 0-4.9 5.3-11.6 16.1-11.6zm-.7 22.1c3 0 6-1.4 7.4-2.3v-15.2c-1-1.3-3.2-2.8-6.6-2.8-6.6 0-11.6 3.6-11.6 10 .1 8.2 7.2 10.3 10.8 10.3z"/><g><path class="st0" d="M197.5 215.9c-9.9-9-20.3-23-19.8-43.4-.5-20.4 9.9-34.1 19.8-43.1-9 11-11.5 20.9 6.8 35.3 3 2.3 11.3 8 11.3 8s-8.3 5.6-11.3 7.9c-18.4 14.3-15.8 24.3-6.8 35.3z"/><path class="st0" d="M226 157.8c-7.1-3.1-6-1.9-14.5-6.5-6.4-3.5-12.8-8.2-13.6-13.5-2-13.9 23.2-20.7 29.9-21.5l-1.8 41.5zM226 187.4l1.9 41.5c-6.7-.8-31.9-7.5-29.9-21.5.8-5.3 7.1-10 13.6-13.5 8.4-4.6 7.3-3.4 14.4-6.5zM242.9 157.8l-1.9-41.5c6.7.8 31.9 7.5 29.9 21.5-.7 5.3-7.1 10-13.6 13.5-8.4 4.6-7.4 3.4-14.4 6.5zM242.9 187.4c7.1 3.1 6 1.9 14.5 6.5 6.4 3.5 12.8 8.2 13.6 13.5 2 13.9-23.2 20.7-29.9 21.5l1.8-41.5z"/><path class="st0" d="M232.5 184.7c5-2.2 13.5-7.2 17.2-9.5h.1c.1 0 .1-.1.2-.1l3.5-2.4s8.1-5.6 11.1-7.9c18.3-14.3 15.8-24.3 6.8-35.3 9.9 9.1 20.3 22.7 19.8 43.1.5 20.4-9.9 34.3-19.8 43.4 9-11 11.5-20.9-6.8-35.3-1-.8-2.7-2-4.4-3.2l-27.7 7.2z"/></g></svg>