<svg xmlns="http://www.w3.org/2000/svg" width="818.3" height="926.8" style="enable-background:new 0 0 818.3 926.8" xml:space="preserve"><path d="M242.6 117.1c-1.5-1.7-3-3.5-4.5-5.3-7.5-14-24.4 6.1-31 11.7-2.3-3.4-4.8-6.3-7.3-8.9-4.7-4.9-1.5-9.8-5.5-13.8-8.1-8.1-20.7-16.3-26.6-24.1-5.1 2.7-13.3-17.2-18.7-35.8-4.1 1.3-2.7 10-3 13.8-1.5-3.9-2.9-7.7-4.4-11.6-7.9-.5-3.2 12.5-2.6 17.7.3 1.9.6 3.8.8 5.8-2.1-6.2-4.2-12.5-6.2-18.6-7.4 5.2-1.4 18.3.2 26.4-2.1-4.4-4.3-8.9-6.6-13.4-5.5 6 0 12.7 2.9 18.7-3-2.6-5.6-3.3-8.6-6-2.9 6.3 5.4 14.9 8.9 19.5-2-.9-4.7-4.4-6.8-5.3-4 6.5 5 13.9 9 18.5-2.8-1.1-3.8-1.3-6.5-2.3-.6 4.6 1.3 5.5 4.7 8.7 1.8 1.6 3.6 3.2 5.6 5-2.4-.9-4.9-1.8-7.3-2.7-7 .8 6 10.1 8.4 11-1.5 1.1-2.9.5-4.5 0-.1 7.1 7 7.3 10.8 12.4 10.2 13.7 19.7 17.7 28.3 20.8-3.1 4-2.2 3.5-5.2 7.4-7 9.1-14.5 27.4-20.2 38.5-3.5 6.8-13.1 13.5-12.5 13 1-.7 8.1.2 10-1 .2 1.3 1.7-.8 2.5.7 4.9-1.9 10-10.6 19.7-18.6 4.2-3.5 5.5-13.8 15.4-21.7 4.8-3.9 14-8 19.1-11.6 12-8.7 13-12.9 19.7-29.1 1.7-4.2 4.2-7.6 7.7-12.5 2.8-3.5 4.3-6.1 8-6.9 2.2-.1 4.2-.3 6.3-.4" style="fill-rule:evenodd;clip-rule:evenodd"/><path d="M189.4 466.1c3.7 4.9 8.8 9.6 15.4 14.3 4.9 3.2 10.6 5.9 16.9 7.9 5.9 1.9 11.7 4.1 17.2 6.5 5.2 2.3 9.8 5.1 13.5 8.3 3.4 3 5.2 6.8 5.6 12 .4 3.6.6 7.5.5 11.7 0 1.8-.1 14.3-.2 28.7-.1 20.5-.2 46.1-.3 48.5 0 1.3-.2 2.5-.5 3.6s-.9 2-1.7 2.9c-.8.8-2 1.5-3.7 2-1.9.6-4.5.9-7.8.9-4.9 0-8.5-.7-10.8-1.9-2.2-1.2-2.6-4.9-2.6-7.8V560h-48.6v91.2h32l3.3-4.9c5.4 3.5 10.8 5.8 16.3 7 6 1.2 12.6 1.9 19.5 1.9 12.4 0 22.9-1.3 31.3-3.9 8.6-2.7 15.5-6.8 20.5-12.4 5-5.5 8.7-12.5 10.8-20.8 2.3-8.7 3.1-88.5 3.1-94 0-5.8-.2-11.4-.7-16.7-.5-5.3-1.3-10.7-2.4-16.2-2.4-9.7-6.5-17.6-12.2-23.4-5.7-5.7-14.2-10.6-25.5-14.8-4.1-1.3-8.4-2.8-13-4.3-4.5-1.5-8.8-3.2-12.9-5-3.9-1.8-7.4-3.9-10.4-6.3-2.7-2.2-4.4-4.7-5.1-7.6-.6-2.7-1.1-6.2-1.5-10.3-.3-4.2-.5-8.6-.5-13 0-5.9.1-64.1.3-68v-.5c.7-.8.8-1.8 1-2.4.6-3.7 2.4-7.9 11.1-7.9 3.9 0 6.8.4 8.7 1.2 1.6.7 2.8 1.9 3.7 3.7 1 2.1 1.6 5.1 1.8 8.9.2 4.1.3 57.7.3 63.8v23h50.6V289.1h-32.8l-2.9 4.9c-4.5-3.3-9.5-5.6-15.1-6.8-6.4-1.4-13.6-2.1-21.4-2.1-7 0-14.2.5-21.2 1.4-7.2.9-13.7 3.1-19.2 6.3-8.5 5-14.5 12.7-18 23.1-3.6 10.7-5.1 76.1-5.1 86.2 0 10 .2 18.9.7 26.4.5 7.7 1.6 14.7 3.5 20.9 2 6.2 4.9 11.9 8.5 16.7zM476.9 396.4c-.5-22-1.1-49.5-1.8-56.4-1.2-9.6-3.9-18-8-25-4.1-6.9-9.5-12.7-15.9-17.1-6.3-4.4-13.6-7.6-21.5-9.7-15.7-4.1-33.1-4.1-48.8 0-7.9 2.1-15.2 5.3-21.5 9.7-6.4 4.4-11.8 10.2-16 17.1-4.3 7-6.9 15.4-7.8 25-.7 6.9-1.3 34.5-1.8 56.6-.3 12.6-.5 23.4-.7 27.9-.6 12.3-.8 25-.8 37.6 0 12.6.3 25.3.8 37.7.2 4.6.5 18.3.7 34.2.5 26.5 1.1 59.5 1.8 66.2.9 9.7 3.6 18.1 7.8 25.1 4.2 6.9 9.6 12.7 16 17.1 6.3 4.4 13.6 7.6 21.5 9.7 7.9 2 16.1 3.1 24.4 3.1 8.3 0 16.5-1 24.4-3.1 8-2.1 15.2-5.3 21.5-9.7 6.4-4.4 11.7-10.2 15.9-17.1 4.1-6.9 6.8-15.3 8-25 .7-6.7 1.3-38.2 1.8-66 .3-16 .5-29.8.8-34.5.6-12.5.8-25.2.8-37.7 0-12.5-.3-25.2-.8-37.6-.3-4.4-.5-15.4-.8-28.1zm-62.6 211.9c0 3.5-.8 6-2.6 7.8-1.7 1.8-3.8 2.6-6.4 2.6-2.6 0-4.7-.9-6.4-2.6-1.7-1.8-2.6-4.3-2.6-7.8V332.1c0-3.5.8-6 2.6-7.8 1.7-1.8 3.8-2.6 6.4-2.6 2.6 0 4.7.9 6.4 2.6 1.7 1.8 2.6 4.3 2.6 7.8v276.2zM547.5 476.8l36.4 174.5h52.2v-333l5.4-5.7v-23.5h-61.2v23.5l5.4 5.7v89.9l-26.6-119.1h-66v23.5l5.4 5.7v303.8l-5.4 5.6v23.6h59.8v-23.1l-5.4-10.3zM193.1 274.5h20.2l9.1-54.6 7.4 54.6h20.5l13-87.2 2.2-2.3v-7.9h-21v7.9l2.1 2.3-3.9 47.7-7.7-50v-7.9h-19.3v7.9l-8.3 50-3.4-47.7 2.2-2.3v-7.9h-27.9v7.9l2.2 2.3zM322.7 248.5h-14.5v14.4h-10.3v-32.6h7.8v4.8h10.7v-21.8h-10.7v4.8h-7.8v-29.3h10.3v10.8h15v-22.5H273v7.9l2.2 2.3v77.1l-2.2 2.2v7.9h49.7zM332.4 220.3c.7 2.4 1.8 4.6 3.2 6.4 1.4 1.9 3.4 3.7 5.9 5.5 1.9 1.3 4.1 2.3 6.6 3.1 2.5.8 4.8 1.7 7 2.7 2.2 1 4.1 2.2 5.7 3.5 1.6 1.4 2.5 3.2 2.7 5.6.2 1.5.3 3.1.2 4.9 0 1.7-.1 3.4-.2 5 0 .6-.1 1.2-.3 1.8-.2.6-.5 1.1-1 1.6s-1.1.9-2 1.1c-.9.3-2 .4-3.5.4-2.2 0-3.8-.3-4.9-.9-1.1-.6-1.6-2-1.6-4.2v-11h-17.4v28.7H344l1.6-2.4c2.4 1.7 4.7 2.8 7.1 3.3 2.4.5 4.9.7 7.7.7 4.9 0 9-.5 12.3-1.5 3.3-1 5.9-2.6 7.8-4.7 1.9-2.1 3.3-4.7 4.1-7.9.8-3.2 1.2-6.9 1.2-11.2 0-2.3-.1-4.5-.3-6.6-.2-2.1-.5-4.2-1-6.4-.9-3.8-2.5-6.7-4.6-8.9-2.2-2.2-5.5-4.1-9.8-5.7-1.6-.5-3.4-1.1-5.3-1.7-1.9-.6-3.6-1.3-5.3-2.1-1.7-.8-3.2-1.7-4.4-2.7-1.3-1-2.1-2.3-2.5-3.7-.3-1.2-.5-2.6-.6-4.4-.1-1.7-.2-3.5-.2-5.4 0-1.8 0-3.6.1-5.3.1-1.7.2-3.1.4-4.2.5-2.8 2.3-4.2 5.6-4.2 1.7 0 3.1.2 4 .6.9.4 1.6 1.1 2.1 2.1s.7 2.3.8 4c.1 1.7.1 3.8.1 6.4v8.2h18.2v-33.9h-11.5l-1.5 2.5c-1.9-1.7-4.1-2.8-6.6-3.3s-5.3-.8-8.4-.8c-2.8 0-5.6.2-8.4.5-2.8.4-5.2 1.2-7.3 2.4-3.2 1.9-5.4 4.8-6.8 8.7-1.3 3.9-2 8.7-2 14.3 0 4 .1 7.5.3 10.6.3 3.3.7 6.1 1.5 8.5zM404.1 190.3h5.5v74.1l-2.2 2.2v7.9h27.1v-7.9l-2.2-2.2v-74.1h5.5l5 13.9 7.3-2.9v-24.2h-58.3v24.2l7.3 2.9zM507.9 248.5h-14.5v14.4h-10.3v-32.6h7.8v4.8h10.7v-21.8h-10.7v4.8h-7.8v-29.3h10.3v10.8h15v-22.5h-50.1v7.9l2.2 2.3v77.1l-2.2 2.2v7.9h49.6zM543.7 266.6l-2.2-2.3v-30c2.6-.2 4.7.3 6.2 1.5s2.3 2.7 2.3 4.7v34h25.2v-7.9l-2.2-2.3v-22.8c0-3.6-1-6.4-2.9-8.5-2-2.1-4.6-3.5-7.9-4.2 2.3-.5 4.2-1.7 5.7-3.3 1.5-1.7 2.7-3.8 3.6-6.3.9-2.5 1.5-5.2 1.8-8.2.4-3 .5-6.1.5-9.2 0-4.2-.4-7.9-1.1-11-.7-3.1-2-5.7-3.8-7.7-1.8-2-4.1-3.5-7-4.5-2.9-1-6.5-1.5-10.9-1.5h-34.5v7.9l2.2 2.3v77l-2.2 2.3v7.9h27.1v-7.9zm-2.2-77.8h4.5c1.3 0 2.4.4 3.3 1.1 1 .7 1.4 2.1 1.4 4v23.2c0 3.2-1.7 4.8-5.2 4.8h-4.1v-33.1zM601.6 266.6l-2.1-2.2v-44.7l18.7 54.8h19v-87.2l2.2-2.3v-7.9h-19.6v7.9l2.2 2.3v38.2l-3.1-12.3-12.6-36.1h-24.6v7.9l2.2 2.3v77.1l-2.2 2.2v7.9h19.9zM257 667.5h-12c-1.1 0-1.8.7-2 1.3l-22.6 50.6h-.8L197 668.8c-.2-.6-.9-1.3-2-1.3h-12c-1.8 0-2.7 1.5-2 3.1l36.4 79.2c.4.7.9 1.3 2 1.3h1.2c1.1 0 1.6-.6 2-1.3l36.5-79.2c.6-1.5-.3-3.1-2.1-3.1zM317.3 666.4c-23.5 0-42.3 18.9-42.3 42.5 0 23.5 18.7 42.2 42.3 42.2 23.5 0 42.4-18.7 42.4-42.2-.1-23.6-18.9-42.5-42.4-42.5zm0 69.4c-14.8 0-27-12.1-27-26.9 0-14.8 12.1-27.2 27-27.2 14.8 0 27.1 12.4 27.1 27.2-.1 14.8-12.3 26.9-27.1 26.9zM416.8 667.5H389c-1.2 0-2.1 1.1-2.1 2.2v77.9c0 1.2.9 2.2 2.1 2.2h27.9c22.7 0 41.3-18.5 41.3-41.3 0-22.5-18.6-41-41.4-41zm-1.4 68.1H402v-53.8h13.4c15.3 0 26.5 11.5 26.5 26.8 0 15.4-11.2 27-26.5 27zM516.3 706.4l30.7-34.6c1.5-1.8.4-4.2-1.9-4.2h-11.8c-1.1 0-1.8.6-2.2 1.2l-29.7 33.4v-31.8c0-1.5-1.3-2.8-2.8-2.8h-10.4c-1.6 0-2.8 1.3-2.8 2.8v76.7c0 1.5 1.2 2.8 2.8 2.8h10.4c1.5 0 2.8-1.3 2.8-2.8v-35.9l30.7 37.9c.2.4.9.8 2.1.8H547c2.4 0 3.3-2.6 2.1-4.1l-32.8-39.4zM605.4 667.7c-.4-.7-.8-1.3-2-1.3h-1.2c-1.1 0-1.6.6-2 1.3l-36.6 79.2c-.7 1.5.2 3.1 2 3.1h10.2c1.9 0 2.9-1.2 3.4-2.4l5.8-12.7h35.2l5.8 12.7c.8 1.6 1.6 2.4 3.4 2.4h10.2c1.8 0 2.7-1.5 2-3.1l-36.2-79.2zm-14.6 54.1 11.5-25.9h.4l11.8 25.9h-23.7zM661.7 744.9v-1.6c0-.5-.2-1.1-.6-1.6-.4-.6-1-.9-1.8-1 .6-.1 1.1-.3 1.5-.5.7-.4 1-1.1 1-2.1 0-1.3-.5-2.2-1.6-2.6-.6-.3-1.6-.4-2.9-.4h-3.7v10.4h1.8v-4.1h1.5c1 0 1.7.1 2 .3.7.4 1 1.2 1 2.4V745.4h1.7l-.1-.1c.2.1.2-.1.2-.4zm-2.8-5c-.4.2-1 .2-1.8.2h-1.7v-3.8h1.6c1 0 1.8.1 2.2.4.5.3.7.8.7 1.5.1.9-.2 1.5-1 1.7z"/><path d="M664.3 733.7c-1.9-1.8-4.1-2.8-6.7-2.8-2.6 0-4.9.9-6.7 2.8-1.9 1.9-2.8 4.1-2.8 6.7 0 2.6.9 4.9 2.8 6.8 1.8 1.9 4.1 2.8 6.7 2.8 2.6 0 4.9-.9 6.7-2.8 1.9-1.9 2.8-4.1 2.8-6.8-.1-2.6-1-4.9-2.8-6.7zm-1 12.5c-1.6 1.6-3.5 2.4-5.8 2.4s-4.2-.8-5.8-2.4c-1.6-1.6-2.4-3.6-2.4-5.8 0-2.3.8-4.2 2.4-5.8 1.6-1.6 3.5-2.4 5.8-2.4s4.2.8 5.8 2.4c1.6 1.6 2.4 3.5 2.4 5.8s-.8 4.2-2.4 5.8z"/></svg>