<svg version="1.1" id="Layer_1" xmlns="http://www.w3.org/2000/svg" x="0" y="0" width="483" height="310.5" style="enable-background:new 0 0 483 310.5" xml:space="preserve"><style>.st0{fill:#314057}</style><path class="st0" d="M413.7 178.3c-2.1 0-3.8 1.7-3.8 3.8 0 2.1 1.7 3.9 3.8 3.9 2.1 0 3.8-1.7 3.8-3.9 0-2-1.7-3.8-3.8-3.8m0 7c-1.7 0-3.1-1.4-3.1-3.1 0-1.7 1.4-3.1 3.1-3.1 1.7 0 3.1 1.4 3.1 3.1 0 1.7-1.4 3.1-3.1 3.1"/><path class="st0" d="M415.6 181.3c0-.7-.6-1.1-1.5-1.1h-1.9v4.1h1v-1.7h.5l1 1.7h1.1l-1.1-1.8c.7-.3.9-.8.9-1.2m-1.7.5h-.8v-.9h.8c.3 0 .6.2.6.5 0 .2-.2.4-.6.4M198.2 85.2h2.3c1.1 0 1.8.7 1.8 1.6V114c0 4.3-2.7 5.8-2.7 5.8h13.7s-2.8-1.3-2.8-5.8V86.8c0-1 .7-1.6 1.8-1.6h2.3c6.5 0 7.5 5.3 7.5 5.3V79.7s-1.4 1.2-3.8 1.2h-23.8c-2.6 0-3.6-1-3.6-1v10.9c.1 0 .8-5.6 7.3-5.6M403.7 136.4h3c8.6 0 9.8 6.9 9.8 6.9l-.1-14.1s-1.8 1.6-5 1.6h-31.1c-3.4 0-4.7-1.2-4.7-1.2l.2 13.7s.8-6.9 9.3-6.9h3c1.5 0 2.4.8 2.4 2v43.5c0 5.6-3.5 7.5-3.5 7.5h17.9s-3.7-1.7-3.7-7.5v-43.5c.2-1.2 1.1-2 2.5-2M99.5 166.8v15.4c0 3.5-3.6 4.1-6 4.1-5 0-16.7-1.8-16.7-25.2 0-17.7 6.3-25.7 15.2-25.7 16.6 0 18.6 15.7 18.6 15.7l.2-23.2s-3 3.5-13.4 2.1c-3.5-.5-13-1-20.6 4-6.3 4.1-12.6 11.6-12.6 28.5 0 8.6 3.2 16.4 6.9 20.5 4.6 5.2 10.8 8.7 21.5 8.7 9.2 0 17.2-3.8 20.2-5.3 0 0-2.2-2.2-2.2-6v-13.6c.1-5.6 4.7-7.8 4.7-7.8h-21c0 .1 5.1 2.3 5.2 7.8M287.4 175v-37.1c.3-5 3.4-6.7 3.4-6.7H273s3.3 1.5 3.6 6.7V175c-.2 5.1-3.4 6.9-3.4 6.9H291s-3.4-1.5-3.6-6.9M190.7 181.9h13.7s-3.4-1.6-3.7-6.9v-27.4l-.1-2.7 1.9 3.1 16.9 27.1c3.3 5.5 4.2 7.5 6.9 7.5h4.8V138c.3-5 3.2-6.7 3.2-6.7h-13.5s3.3 1.5 3.7 6.7v22.4l.1 2.9-1.6-2.6-14.5-22.7c-2.9-4.6-.8-6.7-.8-6.7H190s4 2 4 6.7v37.1c-.2 5-3.3 6.8-3.3 6.8M326.1 137.9l-8 28-8.4-28c-1.1-5 1.4-6.7 1.4-6.7h-18.6s3.8 1.6 5.7 6.7l11 37.1c1.3 4.4 1.9 7.6 5.9 7.6h5.2l12.6-44.7c1.8-5 5.4-6.7 5.4-6.7h-13.9c-.1-.1 2.8 1.5 1.7 6.7M141.3 176.3H136c-1.3 0-2.3-.8-2.3-2.1v-36.1c.3-5.3 3.7-6.9 3.7-6.9h-17.9s3.2 1.8 3.4 6.9v37.2c-.3 5.2-3.6 6.7-3.6 6.7H146c3.1 0 5 1.6 5 1.6l.2-14.1c0-.1-1.4 6.8-9.9 6.8M253.2 174.2v-36.1c.3-5.3 3.6-6.9 3.6-6.9H239s3.2 1.8 3.4 6.9v37.2c-.4 5.2-3.7 6.7-3.7 6.7h26.9c3.1 0 5 1.6 5 1.6l.2-14.1s-1.4 6.9-9.9 6.9h-5.5c-1.3-.1-2.2-.9-2.2-2.2M227.1 86.1v28.4c-.2 3.9-2.6 5.3-2.6 5.3h13.8s-2.6-1.2-2.8-5.3V102h13.9v12.5c-.2 3.9-2.6 5.3-2.6 5.3h13.8s-2.6-1.2-2.8-5.3V86.1c.3-3.8 2.6-5.1 2.6-5.1h-13.8s2.5 1.2 2.8 5.1v11.4h-13.9V86.1c.3-3.8 2.6-5.1 2.6-5.1h-13.8c0-.1 2.5 1.1 2.8 5.1M265.3 119.8h20.5c2.4 0 3.8 1.2 3.8 1.2l.1-11.1s-1 5.6-7.5 5.6h-4c-1 0-1.8-.6-1.8-1.6v-12.2h5c4.9 0 6.8 3.4 6.8 3.4V94.4s-1.3 3-6.9 3h-4.9V86.8c0-1 .7-1.6 1.7-1.6h4c6.5 0 7.5 5.3 7.5 5.3l-.1-10.8s-1.4 1.2-3.8 1.2h-20.5s2.5 1.2 2.8 5.1v28.6c-.2 4-2.7 5.2-2.7 5.2M169.9 136.7h5.3c8.5 0 9.4 6.9 9.4 6.9l.3-14.1s-1.9 1.6-5 1.6h-26.8s3.3 1.5 3.7 6.7v37.4c-.3 5.2-3.7 6.7-3.7 6.7h26.8c3.1 0 5 1.6 5 1.6l-.2-14s-.9 6.9-9.5 6.9h-5.3c-1.6 0-2.3-.8-2.3-2V158h6.5c6.4 0 8.8 4.5 8.8 4.5v-14.1s-1.7 4-9 4h-6.4v-13.5c.1-1.4 1.1-2.2 2.4-2.2M356.3 136.7h5.3c8.5 0 9.8 6.9 9.8 6.9l-.1-14.1s-1.9 1.6-5 1.6h-26.7s3.3 1.5 3.6 6.7v37.4c-.3 5.2-3.6 6.7-3.6 6.7h26.7c3.2 0 5 1.6 5 1.6l.1-14s-1.3 6.9-9.8 6.9h-5.3c-1.3 0-2.3-.8-2.3-2V158h6.5c6.4 0 8.8 4.5 8.8 4.5v-14.1s-1.7 4-8.9 4H354v-13.5c0-1.4 1-2.2 2.3-2.2"/></svg>