<svg version="1.1" id="Layer_1" xmlns="http://www.w3.org/2000/svg" xmlns:xlink="http://www.w3.org/1999/xlink" x="0" y="0" width="516.1" height="514.6" style="enable-background:new 0 0 516.1 514.6" xml:space="preserve"><style>.st0,.st1{clip-path:url(#SVGID_2_);fill:#144a8e}.st1{fill:#fff}</style><defs><path id="SVGID_1_" d="M0 0h516.1v514.6H0z"/></defs><clipPath id="SVGID_2_"><use xlink:href="#SVGID_1_" style="overflow:visible"/></clipPath><path class="st0" d="M258 73.2c101.6 0 184 82.4 184 184s-82.4 184-184 184-184-82.4-184-184 82.4-184 184-184m0-7c-25.8 0-50.8 5.1-74.4 15-22.8 9.6-43.2 23.4-60.7 40.9s-31.3 38-40.9 60.7c-10 23.6-15 48.6-15 74.4s5.1 50.8 15 74.4c9.6 22.8 23.4 43.2 40.9 60.7s38 31.3 60.7 40.9c23.6 10 48.6 15 74.4 15s50.8-5.1 74.4-15c22.8-9.6 43.2-23.4 60.7-40.9s31.3-38 40.9-60.7c10-23.6 15-48.6 15-74.4s-5.1-50.8-15-74.4c-9.6-22.8-23.4-43.2-40.9-60.7s-38-31.3-60.7-40.9c-23.6-9.9-48.6-15-74.4-15"/><path class="st0" d="M108.8 384.4c-7.5 2.9-14.9 5.8-22 8.4 1.8-2.8 3.6-5.6 5.3-8.3 2.5-4 4.9-7.7 7.6-11.7l.2-.3-2.1-2.7-.3.1c-13.8 5.8-22.8 9.1-27.1 10.8l-.8.3c-2 .7-3.1 1.1-4 1.1-1.2 0-2-.6-3.4-1.9l-.3-.3-2.2 1.7 8.2 10.5 2.2-1.7-.2-.4c-1.1-1.7-1.5-2.7-1.4-3.3.2-.6.9-1.1 2.4-1.9 2.7-1.4 8.8-3.9 14.1-6.2l1.9-.8c-2.1 3.2-4.2 6.5-6.3 9.6-2.3 3.5-4.6 7.2-7 10.7l-.2.3 2.1 2.6.3-.1c8.5-3.5 15.5-6.3 21.9-8.7-3.4 4.6-7.1 9.5-10.8 14.2-.8 1.1-1.3 1.6-1.8 1.6s-1.4-.7-2.5-1.8l-.3-.3-2.2 1.7 10.2 13 2.2-1.7-.2-.4c-1.4-2.3-1.7-3.1.9-6.7l7.4-10.1c3.5-4.8 6.9-9.6 10.5-14.4l.2-.3-2.1-2.7-.4.1zM83.8 359.3c2.1 0 2.9.6 4.2 2.6l.2.4 2.5-1.3-5.7-11.4-2.5 1.2.1.4c.6 1.8.8 2.7.5 3.1-.3.4-1.1.7-2.4.9-1.8.3-3.4.6-4.7.8l-.5.1-4-8c1.3-1.4 2.9-2.9 4-4 .7-.7 1.4-1.3 1.9-1.3.4 0 1 .5 1.8 1.7l.2.4 2.5-1.2-7.1-14.2-2.5 1.3.2.4c1 2.7.9 3.4-2.7 7.1-4.2 4.5-8.6 8.9-12.8 13.1-2.8 2.8-5.6 5.7-8.4 8.6l-.3.3 2.2 2.7 30.8-3.5c1-.2 1.8-.2 2.5-.2M67 357.6c-2 .3-4 .6-6.1.9l7.7-7.5 2.9 5.9c-1.5.2-3 .5-4.5.7M56.4 319.2c1.1-4.7 2.6-7 5.2-7.7.6-.2 1.3-.3 1.9-.3 2.2 0 3.8 1.2 4.4 3.3 1.5 5.1-4.2 9.5-6 10.8l-.4.3 1.7 2.4.4-.2c3.1-1.4 6.9-3.1 8.2-4.1l.2-.1v-.2c.1-.9.2-2 .2-3.6-.1-1.9-.4-3.6-.8-5.2-1.9-6.2-6.3-10.1-11.6-10.1-1 0-2.1.2-3.1.5-5.4 1.6-7.4 6.2-8.7 12.6-1 4.6-2 7-4.9 7.8-.6.2-1.1.3-1.7.3-2 0-3.7-1.2-4.3-3-1.1-3.8 1.9-6.4 4.8-8.4l.3-.2-1.3-2.6-1.5.7c-2.4 1.2-4.3 2.1-6 2.7l-.3.1v.3c-.1 1.9 0 4.7.8 7.4 1.8 5.9 5.8 9.4 10.9 9.4 1.1 0 2.1-.2 3.2-.5 5.5-1.7 7.2-7.3 8.4-12.4M35.7 296.9l21.6-2.4c1-.1 1.7-.2 2.2-.2 1.9 0 2.2.4 2.9 3.5l.1.5 2.8-.3-1.9-16.6-2.8.3v.5c.1 3.3.1 3.7-4.2 4.2l-10 1.1-1.4-11.7 10-1.1c1-.1 1.7-.2 2.2-.2 1.9 0 2.3.5 2.9 3.5l.1.5 2.8-.3-1.9-16.7-2.8.3v.5c0 3.5-.1 3.8-4.3 4.3L32.5 269c-1.1.1-1.7.2-2.3.2-1.8 0-2.2-.4-2.8-3.5l-.1-.4-2.8.3 1.9 16.6 2.8-.3v-.5c-.1-3.3-.1-3.7 4.2-4.2l7.8-.9 1.3 11.6-7.8.9c-1.1.1-1.8.2-2.3.2-1.9 0-2.1-.5-2.7-3.2l-.1-.4-2.8.3 1.9 16.6 2.8-.3v-.5c-.1-3.8 0-4.1 4.2-4.6M27.9 254.9c.4-3.1.7-3.6 3.4-3.6h1.6l21.4.9c4.3.2 4.5.6 4.6 3.9v.5l2.8.1.7-16.6-2.8-.1-.1.5c-.4 3.2-.8 3.6-3.5 3.6h-1.5l-21.4-.9c-4.4-.2-4.5-.5-4.7-3.9v-.5l-2.8-.1-.7 16.6 2.8.1.2-.5zM29.2 227.1c.7-2.2 1.6-3 2.8-3.5.6-.3 1-.4 1.6-.4.9 0 2.1.2 4.1.7l11.4 2.4c4.1.9 6.7 1.7 8.4 2.2l.5.1c1.6.6 2.4 1.4 1.9 4.3l-.1.5 2.7.6 2.9-13.6-2.7-.6-.1.5c-.9 3.4-1.8 4-3.3 4h-.5c-1.5-.2-4.4-.5-9-1.4l-10.7-2.2L68.8 207l.7-3.5-22.2-4.7c-4.9-1-7.5-2-9-2.5s-2.2-1.3-1.8-4.1l.1-.5-2.6-.6-2.8 13.5 2.6.6.1-.5c.9-3.3 1.8-3.9 3.1-3.9h.3c1.7.1 4.4.4 9.2 1.4l8.4 1.8-26.3 12.8-2.2 10.2 2.6.6.2-.5zM55.7 185.9c2.8 1.2 5.6 1.9 8.3 1.9 7.1 0 13-4.3 16.4-11.9 1.6-3.7 2.3-7.6 2.9-10.8l.2-.9-.5-.1c-1.5-.4-3-1-4.9-1.8l-4.5-2c-2.8-1.2-2.8-1.3-2.3-3.7l.1-.4-2.5-1.1-6.7 15.2 2.5 1.1.2-.4c1.6-2.8 2.3-3.8 3.3-3.8.5 0 1.2.3 2.3.7l5.6 2.4c1.3.6 1.9 1.1 2 1.7.1.5 0 1.2-.4 2.1-1.5 3.3-4.8 5.1-9.4 5.1-3 0-6.5-.8-9.8-2.3-4.3-1.9-7.4-4.5-9.2-7.4-1.6-2.7-1.8-5.6-.7-8.1 1.7-3.9 5.2-5.5 10.6-4.8l.5.1.6-2.8-.4-.1c-4-1.3-6.5-2.1-8.2-2.7l-.3-.1-.5.7c-1.2 1.6-3.3 4.3-4.7 7.7-2.2 5-2.6 10.3-1.2 15 1.3 5.1 5.1 9.1 10.7 11.5M63.4 139.3c.9.8 1.9 1.5 2.8 2.3l.4.3 1.6-2.3-.3-.3c-1.6-1.9-2.8-3.4-3-4.4-.3-1-.1-2 1.7-4.6l.9-1.3 21.1 14.8c3.5 2.4 3.6 2.8 1.5 6.3l-.2.4 2.3 1.6 10.2-14.6-2.3-1.6-.3.4c-1.5 1.8-2.2 2.6-3.1 2.6-.8 0-1.8-.6-3.4-1.7l-21.1-14.8 1.2-1.7c1.3-1.9 2.2-2.7 3.3-2.8 1.2-.1 3 .4 5.4 1.3l.4.2L84 117l-.4-.3c-4.3-2.6-7.1-4.4-8.6-5.3l-.4-.3-1.2 1.7.1.2c.3 1.1.2 1.8-.4 2.7l-11.2 16.1c-.8 1.1-1.2 1.4-2.5 1.4h-.2l-1.2 1.7.4.3c1.2 1.1 3.1 2.6 5 4.1M120.4 91.5c-4.1-4.2-9.1-6.5-14-6.5-4.1 0-7.9 1.6-10.9 4.5-8.5 8.3-5.4 19.2 1 25.8 4.1 4.2 9.1 6.6 14.1 6.6 4.1 0 8-1.6 11.1-4.7 7.3-7 6.8-17.4-1.3-25.7m-.2 22.9c-1.1 1.1-2.5 1.6-4.2 1.6-3.8 0-8.8-2.9-13.7-7.9-6.1-6.3-8.2-12.8-5.1-15.8 1-1 2.3-1.5 3.9-1.5 3.7 0 8.6 2.9 13.7 8.2 6.3 6.6 8.4 12.4 5.4 15.4M120.1 72.2c1.8-.9 2.9-1.1 4.5-.4 1.2.5 1.7 1.1 3.7 4.3l6.2 9.8c2.2 3.5 3.4 6 4.3 7.6l.2.4c.7 1.6.7 2.7-1.8 4.4l-.4.3 1.5 2.3 11.8-7.4-1.5-2.3-.4.2c-1.5.8-2.6 1.2-3.4 1.2-.7 0-1.3-.3-2-1.2-1-1.2-2.7-3.5-5.3-7.5l-5.8-9.2 30.5 11.7 3-1.9L153 65.4c-2.7-4.2-3.9-6.8-4.5-8.2-.7-1.5-.6-2.4 1.7-4.1l.4-.3-1.4-2.3-11.6 7.4 1.4 2.3.4-.2c1.5-.8 2.6-1.2 3.4-1.2.7 0 1.2.3 1.8 1 1.1 1.3 2.8 3.5 5.4 7.6l4.6 7.2-27.6-10-8.8 5.6 1.4 2.3.5-.3zM178.8 40.9c1-.2 1.7-.3 2.2-.3 1.1 0 1.6.5 2.6 3.7l6.3 20.8c1.3 4.2 1 4.3-2.7 5.8l-.4.2.8 2.7 26.1-7.9v-.4c0-1.7-.5-6.8-.8-8.9l-.1-.5-2.9.2v.4c-.2 2.2-.6 4.1-1.2 5.5-.7 1.4-2 2.3-4.8 3.1-1.2.4-2.6.7-3.6.7-.2 0-.4 0-.6-.1-.7-.1-1.3-1.1-2-3.4l-2.8-9.2 2.6-.8c1.5-.5 2.6-.8 3.4-.8 1 0 1.6.5 2.8 2.8l.2.4 2.7-.8-3.5-11.4-2.7.8v.4c.3 3.7.1 3.8-4 5.1l-2.4 1-3.2-10.7c-.2-.6-.3-1.1-.2-1.3.1-.2.7-.4 1.2-.6l2-.6c2.9-.9 4.4-1 5.5-.3 1.1.7 2.1 2.1 3 3.5l.2.4 2.6-1.2-.3-.7c-1.1-2.9-2.4-6.3-2.7-7.1l-.2-.4-24.3 7.4.8 2.7.4-.2zM246.1 35c-.4-3.8-2.3-6.5-5.3-8-1.7-.8-3.6-1.2-6.1-1.2-1.1 0-2.3.1-3.8.2l-14.4 1.7.3 2.8h.7c2.9 0 3.2.1 3.7 4.5l2.5 21.3c.5 4.4.3 4.5-3.1 5.3l-.4.1.3 2.5 17-2-.3-2.6h-1.6c-3 0-3.2-.3-3.7-4.4l-.8-7.1 2.8.4h.1c.6-.1 1.2-.1 2-.4 7.1-1.6 10.9-6.5 10.1-13.1M233 45.2c-.8.1-1.4.1-2.2-.1l-1.7-14c-.1-.8 0-1.2.2-1.4.2-.2.5-.5 1.4-.6h.7c1.9 0 5.2.9 5.9 7.3 1.1 8-4.1 8.7-4.3 8.8M271 58.6l-.5-.1c-3.5-.4-3.7-.7-3.6-4.9l.5-21.4c.1-4.4.4-4.5 3.8-4.8h.5l.1-2.8-16.6-.4-.1 2.8h.5c3.5.4 3.7.5 3.6 4.9l-.5 21.4c-.1 4.3-.5 4.5-3.8 4.7h-.5l-.1 2.8 16.6.4.1-2.6zM302.1 54.9c.9-5.6-2.4-9.3-7.6-13.2-3.7-2.9-5.4-4.8-5-7.8.4-2.8 2.6-4.6 5.1-4.2 3.9.6 4.9 4.4 5.6 8l.1.4h2.9v-1.6c0-2.7 0-4.8.1-6.7v-.3l-.3-.2c-1.6-.9-4.2-2-7.1-2.5-1-.1-1.9-.2-2.8-.2-6.1 0-10.5 3.6-11.4 9.1-.9 5.9 3.4 9.8 7.5 13 3.8 3 5.2 5.3 4.7 8-.5 3-2.6 4.8-5.4 4.3-5.3-.8-6.8-7.9-7.1-10.1l-.1-.5-2.9.4v.4c-.1 3.4-.1 7.6.1 9.1v.2l.2.1c.8.5 1.8 1 3.2 1.7 1.7.7 3.4 1.2 5.1 1.5 1 .2 1.9.2 2.9.2 6.6.3 11.3-3.4 12.2-9.1M333 74.8l.2-.2c1.4-1.5 3.6-4.6 5.2-7l.3-.4-2.3-1.8-.3.3c-4.2 4.2-7.5 5.6-10.8 4.5-5.6-1.9-7.5-9.8-4.5-18.8 2.3-6.9 7.2-11.8 12-11.8.8 0 1.6.1 2.3.4 3.9 1.3 5.6 4.4 5.4 9.8v.5l2.9.4.1-.4c.7-2.9 1.2-5.4 1.8-8.5l.1-.3-.7-.4c-1.5-.9-4.3-2.6-7.5-3.7-2.6-.9-5.1-1.3-7.6-1.3-8.4 0-15 5.1-17.9 13.5-2.7 8.1-1.2 19.1 12 23.5 3.3 1.1 7.4 1.5 9.2 1.6l.1.1zM355.8 88.1c2.7 1.5 5.5 2.3 8.4 2.3 6.3 0 12.2-3.8 16.1-10.5 5.6-9.6 3.6-19.7-4.8-24.5-2.7-1.6-5.6-2.4-8.5-2.4-6.2 0-12.4 4-16.1 10.3-2.7 4.6-3.7 9.6-2.8 14 .8 4.6 3.5 8.3 7.7 10.8m-.6-9.7c.3-3.3 1.8-7.4 4.2-11.5 3.5-6 7.9-9.8 11.5-9.8.8 0 1.6.2 2.3.6 4.3 2.5 3.7 9.5-1.7 18.8-3.7 6.3-7.7 9.9-11.1 9.9-.8 0-1.5-.2-2.2-.6-2.8-1.7-3.2-4.9-3-7.4M405.8 102.9c3.2 0 6.1-1.4 8.5-4.2 2.5-2.9 3.3-6.1 2.4-9.3-.8-2.6-2.5-5-5.9-7.9l-11-9.5-1.8 2.1.3.3c2.2 2.3 2.3 2.7-.6 6l-14.1 16.2c-1.6 1.8-2.4 2.6-3.3 2.6-.7 0-1.5-.5-2.8-1.4l-.4-.3-1.7 1.9 12.9 11.2 1.7-1.9-.3-.3c-2.9-3-2.9-3.2 0-6.5l4.7-5.4 1.5 2.3.1.1c.5.4.9.8 1.6 1.3 2.8 1.8 5.6 2.7 8.2 2.7m0-19.3c.3-.3.7-.8 1.1-.8v-.5l.1.5c.3 0 .7.1 1.4.7.8.7 1.8 1.9 1.9 3.8.1 1.8-.9 3.9-2.7 6-2.1 2.5-4.4 3.7-6.5 3.7-1.4 0-2.5-.5-3.1-1-.6-.5-1-1-1.4-1.7l9.2-10.7zM407.8 126.3l-.2-.4c-1-1.6-1.3-2.4-1.2-2.9.2-.5.9-.9 2.1-1.4 1.7-.8 3.2-1.4 4.5-1.8l.4-.2 5.7 6.9c-.9 1.6-2.1 3.4-3 4.8-.8 1.3-1.3 1.8-1.7 1.8-.4 0-1-.4-2-1.3l-.3-.3-2.1 1.8 10.2 12.2 2.1-1.8-.2-.4c-1.6-2.4-1.6-3.1 1-7.5 3.1-5.3 6.4-10.6 9.5-15.7 2.1-3.4 4.2-6.8 6.2-10.2l.2-.4-2.7-2.1-29.3 10.3c-1.8.7-2.9.9-3.8.9-1.2 0-2-.6-3.3-1.8l-.3-.3-2.1 1.8 8.1 9.8 2.2-1.8zm13.5-10c1.9-.8 3.8-1.5 5.7-2.3l-5.8 9-4.2-5c1.5-.5 2.9-1.1 4.3-1.7M450.2 139.6l-18.7 10.5c-1.5.9-2.6 1.4-3.3 1.4-.9 0-1.6-.8-2.9-2.8l-.3-.4-2.4 1.4 12.8 22.8.4-.1c1.5-.4 6.8-2.1 8.7-2.8l.4-.2-.8-2.7-.4.1c-2.6.4-4.5.5-5.8.2-1.5-.3-2.6-1.3-3.8-3.5-.6-1.1-1.3-2.4-1.4-3.4 0-.8.6-1.5 2.9-2.7l18.8-10.6c1.7-1 2.7-1.5 3.5-1.5.8 0 1.4.7 2.6 2.4l.3.4 2.4-1.4-8.2-14.6-2.4 1.4.2.4c1.2 3.2 1.2 3.5-2.6 5.7M454.9 204.7c-.6.2-1.2.3-1.8.3-2.2 0-3.8-1.2-4.4-3.4-1.5-5.2 4.3-9.5 6.1-10.7l.4-.3-1.6-2.4-.4.2c-3.1 1.3-6.9 3.1-8.2 4l-.2.1v.2c-.1.9-.2 2-.2 3.6.1 1.9.3 3.6.8 5.2 1.8 6.3 6.3 10.2 11.6 10.2 1 0 2-.1 3.1-.4 5.4-1.6 7.4-6.1 8.8-12.5 1.1-4.6 2.1-7 4.9-7.8.5-.2 1.1-.2 1.6-.2 2.1 0 3.7 1.2 4.3 3.1 1.1 3.8-1.9 6.3-4.9 8.4l-.3.2 1.3 2.6 1.5-.7c2.4-1.1 4.3-2 6.1-2.7l.3-.1v-.3c.1-1.9.1-4.7-.7-7.5-1.7-6-5.8-9.5-10.9-9.5-1 0-2.1.2-3.1.5-5.7 1.6-7.4 7.2-8.6 12.3-1.3 4.6-2.9 6.8-5.5 7.6M468.8 217.5c-8.5 1-17.8 7.1-16.2 20.9.4 3.4 1.8 7.4 2.4 9l.1.2.2.1c1.9.6 5.7 1.3 8.6 1.7l.5.1.6-2.9-.4-.1c-5.6-2-8.2-4.4-8.6-7.9-.7-5.9 5.7-10.9 15.1-12 1-.1 1.9-.2 2.9-.2 6.2 0 12.8 2.6 13.5 8.3.5 4.1-1.6 7-6.5 9.1l-.4.2.9 2.7.4-.1c2.9-.6 5.4-1.2 8.4-2l.3-.1.1-.7c.2-1.8.5-5 .1-8.4-1.3-11-8.8-18-19.1-18-1-.1-2 0-2.9.1M483 271.8c4.3.4 4.3.7 4.3 4v.5l2.8.2 1.5-16.7-2.8-.3-.1.5c-.6 3.1-.8 3.7-3 3.7-.5 0-1.1 0-2-.1l-21.6-1.9c-4.2-.4-4.3-.7-4.3-4.3v-.5l-2.8-.2-1.5 16.6 2.8.2.1-.4c.5-2.9.8-3.4 2.9-3.4.5 0 1.2 0 2.1.1l10 .9-1 11.6-10-.9c-4.2-.4-4.3-.8-4.3-4.3v-.5l-2.8-.3-1.5 16.7 2.8.2.1-.4c.6-3 .9-3.5 3-3.5.5 0 1.1 0 2 .1l21.6 1.9c4.2.4 4.3.7 4.3 4.3v.5l2.8.2 1.5-16.6-2.8-.2-.1.4c-.5 2.9-.8 3.4-2.9 3.4-.5 0-1.2 0-2.1-.1l-7.8-.7 1-11.7 7.8 1zM467.6 305.6c-2.4-.8-4.8-1.1-7.1-1.1-7.8 0-13.8 4.3-16.1 11.4-1.4 4.6-1 9.2 1.3 13.1 2.4 4.1 6.6 7.2 12.1 8.9 2.4.7 4.7 1.1 7 1.1 7.6 0 13.7-4.3 15.9-11.2 1.6-5.1 1-10.1-1.9-14.3-2.5-3.6-6.5-6.4-11.2-7.9m10.3 20.6c-1.1 3.6-5.1 4.3-8.3 4.3-2.9 0-6.4-.6-10.4-1.9-4.5-1.4-8-3.2-10-5.2-1.9-1.8-2.6-3.8-2-5.7 1.2-3.9 5.5-4.7 8.9-4.7 2.9 0 6.3.6 9.8 1.7 4.1 1.3 7.5 3.1 9.7 5.2 1.5 1.5 3.2 3.7 2.3 6.3M452.4 349.5c-3.5-2-7.3-3.1-10.8-3.1-6 0-11 2.9-14 8.2-5.1 8.8-1.7 18.6 8.3 24.4 3.5 2 7.2 3.1 10.7 3.1 5.9 0 10.9-2.9 13.8-8 2.7-4.7 3.1-9.6 1.2-14.4-1.7-4.1-5-7.8-9.2-10.2m5.6 22.3c-1.1 1.9-3 2.8-5.7 2.8-3.4 0-8-1.5-13-4.5-4.1-2.4-7.1-4.9-8.7-7.3-1.4-2.2-1.7-4.3-.7-6 1.2-2 3.3-3 6.2-3 3.5 0 8 1.5 12.7 4.2 3.7 2.1 6.7 4.7 8.3 7.2 1.1 1.7 2.2 4.3.9 6.6M441.5 396.5c-1.3 1.3-2 1.9-2.7 1.9-.8 0-1.8-.7-3.4-2.1L419 382.4c-3.2-2.7-3.2-3-.8-6.3l.3-.4-2.1-1.8-16.9 19.9.2.3c.8 1.3 4.4 5.6 5.7 7.2l.3.4 2.3-1.7-.2-.4c-1.3-2.3-2-4.1-2.2-5.4-.2-1.5.3-2.9 1.9-4.8.9-1 1.8-2.1 2.7-2.5.2-.1.3-.1.5-.1.7 0 1.7.7 3.1 1.9l16.5 14c3.4 2.9 3.3 3.1 1.2 6l-.5.3 2.1 1.8L444 398l-2.1-1.8-.4.3zM150.9 439.8c.9-1.5 1.1-3.2.5-4.7-.7-1.5-1.9-2.7-4.1-4.2l-8.3-5.3-1.1 1.8.4.3c1.6 1.3 1.7 1.3.3 3.5l-7.1 11c-.9 1.4-1.3 1.8-1.7 1.8-.4 0-.9-.3-1.7-.7l-.4-.2-1.1 1.8 7.2 4.6c1.8 1.1 4.4 2.5 6.9 2.6h.4c2.3 0 4.2-1 5.4-2.9 1.5-2.3 1.1-4.8-1.1-7.2 2.2.5 4.3-.3 5.5-2.2m-9.8 6.5c-1.3 2-2.6 2.4-3.5 2.4-.6 0-1.2-.2-1.6-.5-1-.6-1.3-1.1-.1-3.1l3.3-5.1.2.1c2.6 1.8 3.2 3.8 1.7 6.2m-.5-8.1-.3-.2 3.2-5c.5-.8.8-.9.8-.9.2 0 .4 0 .9.3.7.4 1.1 1.1 1.3 1.8.2.9-.1 1.9-.8 3-1.4 2.3-2.8 2.5-5.1 1M172.6 444.9l-14.3-7.2-.9 1.9.4.2c1.7 1.1 1.8 1.1.7 3.3l-6 11.9c-.8 1.6-1.1 1.9-1.6 1.9-.4 0-1-.2-1.8-.5l-.4-.2-.9 1.9 15.3 7.7.3-.3c.7-.8 2.7-3.2 3.4-4.3l.3-.4-1.6-1.4-.3.3c-1 .9-1.9 1.5-2.8 1.9-.9.3-1.7.2-3.3-.6-.9-.4-1.8-.9-2.1-1.4-.2-.3 0-.9.6-2.2l2.6-5.1 1.3.7c2.4 1.2 2.4 1.2 1.8 3.3l-.1.4 1.9.9 3.5-6.9-1.9-.9-.3.3c-.8 1-1.2 1.3-1.6 1.3-.5 0-1.2-.3-2.1-.8l-1.3-.7 3-6 .3-.6c.1 0 .5.2.7.3l1.1.6c2 1 2.3 1.6 2.4 2.1.2.6.1 1.4-.1 2.8l-.1.4 2 .7.2-.4c.7-1.8 1.7-4 1.9-4.5l-.2-.4zM190.3 458.8l2 .6.1-.5c.9-3 1.5-4.9 1.9-5.9l.2-.5-1.5-.5-.2.1c-.6.4-.9.4-1.5.1l-11.3-4.3c-.7-.3-.9-.5-1.1-1.1l-.1-.2-1.5-.6-.2.5c-.4 1.1-1 2.4-1.7 3.8-.3.7-.6 1.4-.9 2l-.2.5 2 .7.2-.3c.9-1.2 1.5-2.1 2.1-2.4.6-.4 1.3-.3 2.9.3l.7.3-5.5 14.7c-.7 1.8-1 2.1-1.6 2.1-.4 0-1-.1-1.7-.4l-.4-.1-.7 2 10.6 4 .7-2-.4-.2c-2.2-1-2.3-1.1-1.4-3.5l5.5-14.7 1 .4c1.3.5 1.9.9 2.1 1.4.3.7.2 1.8 0 3.3l-.1.4zM209 459.5l.4.1c1.9.6 2 .7 1.4 3.1l-1.1 4.5-6.6-1.6 1.1-4.5c.5-2.1.8-2.2 1.4-2.2.3 0 .7 0 1.2.1l.4.1.5-2-10.4-2.6-.5 2 .4.1c2.1.7 2.2.7 1.6 3.2l-3.2 13c-.5 2.1-.8 2.2-1.5 2.2-.4 0-.8-.1-1.3-.1l-.5-.1-.5 2 10.4 2.5.5-2-.4-.1c-1.9-.7-2-.7-1.4-3.1l1.4-5.8 6.6 1.6-1.4 5.8c-.5 2.1-.8 2.2-1.5 2.2-.4 0-.8-.1-1.3-.1l-.5-.1-.5 2 10.4 2.6.5-2-.4-.2c-1.9-.7-2.1-.7-1.5-3.2l3.2-12.9c.5-2.1.8-2.2 1.5-2.2.3 0 .8.1 1.3.1l.5.1.5-2-10.4-2.5-.3 2zM223.3 462.6l.4.1c1.9.4 2 .4 1.7 2.9l-1.7 13.2c-.3 2.4-.5 2.4-1.9 2.4h-1.3l-.3 2.1 17 2.1.1-.3c.4-1 1.4-3.9 1.8-5.2l.1-.4-2-.7-.2.4c-.6 1.2-1.3 2.1-2 2.8-.7.6-1.5.7-3.3.5-1-.1-2-.3-2.4-.6-.3-.2-.3-.9-.2-2.2l.7-5.7 1.5.2c2.6.3 2.6.3 2.8 2.5v.4l2.1.3 1-7.6-2.1-.3-.1.4c-.6 1.7-.8 1.9-1.7 1.9-.4 0-.9-.1-1.6-.1l-1.5-.2.8-6.6c.1-.5.1-.6.1-.7h.7l1.2.2c2.2.3 2.7.7 3 1.1.3.5.6 1.3.8 2.7l.1.4h2.1v-.5c.1-1.9.2-4.3.3-4.8v-.5l-15.9-2-.1 1.8zM253.3 472c-2.8-1.7-3.6-2.6-3.5-4.2 0-1.6 1.1-2.7 2.6-2.7 2.3.1 3.2 2.3 3.8 4.3l.1.4 2.1-.3-.2-1.2c-.2-1.6-.4-2.9-.4-4v-.3l-.3-.1c-1.1-.4-2.8-.9-4.6-1-4.8-.1-8 2.6-8.2 6.7-.1 3.8 2.9 5.9 5.7 7.6 2.5 1.5 3.5 2.7 3.4 4.4-.1 1.8-1.1 2.9-2.7 2.9h-.1c-3.2-.1-4.6-4.2-4.9-5.4l-.1-.5-2.1.6v.4c.2 2.1.5 4.6.8 5.6l.1.2.2.1c.5.2 1.2.5 2.1.8 1.1.3 2.2.5 3.2.5h.4c4.8 0 8.2-2.9 8.3-6.9.1-3.8-2.2-5.9-5.7-7.9M281.8 465.2c-2.2-2-5.2-2.8-9.7-2.4l-9.5.7.2 2.1h.5c2 0 2.1 0 2.3 2.7l1 13c.2 2.7 0 2.7-2.1 3l-.5.1.2 2.1 8.3-.6c4.2-.3 7.3-1.5 9.5-3.6 2.5-2.4 3.5-5.6 3.2-9.7-.2-3-1.4-5.6-3.4-7.4m-7.7 18.1c-1.3.1-1.9-.1-2-2.4l-1-14c-.1-1.1 0-1.3 0-1.3.1-.1.4-.3 1.3-.3h.5c1.5 0 2.8.5 3.8 1.5 1.4 1.4 2.4 3.8 2.6 7 .4 5.4-1.7 9.2-5.2 9.5M311.1 478.1h-.7c-1.1 0-1.5-.3-2.9-2.7-1.9-3.3-3.8-6.6-5.6-9.8-1.2-2.1-2.4-4.3-3.6-6.4l-.2-.4-2.2 1-3.2 18.9c-.4 2.6-.7 2.9-2.4 3.4l-.4.1.4 2 8.1-1.5-.4-2h-.4c-1 .1-1.6 0-1.8-.2-.2-.2-.1-.8-.1-1.4.1-1.1.2-2.1.3-2.9v-.2l5.2-1c.6 1 1.2 2.1 1.6 2.9.1.3.5 1 .5 1.2-.1.2-.5.4-1.2.6l-.4.1.4 2 10-1.9-.4-2-.6.2zm-14.9-4.9c.1-.9.2-1.7.3-2.6.1-1 .3-2.1.4-3.2l2.7 5.1-3.4.7zM317.8 471.6c-.7.2-1.2.6-1.5 1.1-.4.6-.5 1.2-.3 1.9.3 1 .9 1.3 1.2 1.3h.2c1.2 0 2.1.5 2.3 1.4.3 1.2-.2 2.2-1.8 3.6l-.4.3 1.3 1.7.4-.2c2.6-1.5 5-4.3 4.1-7.7-.8-2.7-3.6-3.9-5.5-3.4M363.7 458.5c-.7.2-1.2.4-1.6.4-.5 0-.7-.4-1.6-2.1l-5.7-11.9c-1-2.2-1-2.2.9-3.3l.4-.2-.9-1.9-6.9 3.1.6 14.8-10.6-10.2-6.9 3.1.9 1.9.4-.2c.6-.2 1.2-.4 1.6-.4.7 0 1 .5 2 3l2.6 6.8c1.2 3.2 1.8 5 2 5.8.2.9.1 1.4-1.3 2.2l-.4.2.9 1.9 7.9-3.6-.9-1.9-.4.2c-.9.3-1.4.4-1.8.4-.4 0-.8-.1-1.2-.9-.5-.8-1-2.2-2-4.5l-2.7-6.6 11.5 11.8 1.6-.7-1-16.9 4.6 10.1c1.1 2.4 1.1 2.4-.7 3.5l-.4.2.9 1.9 9.6-4.3-.9-1.9-.5.2zM376 430.2c-2.8-.7-5.9 0-9.7 2.4l-8 5.1 1.1 1.8.4-.2c.7-.4 1.2-.6 1.6-.6.4 0 .8.4 1.8 1.9l6.9 11c1.4 2.3 1.3 2.4-.4 3.7l-.4.3 1.1 1.8 7-4.4c3.6-2.2 5.7-4.7 6.7-7.6 1.1-3.2.5-6.6-1.7-10.1-1.6-2.7-3.9-4.4-6.4-5.1m1.6 19.6c-.5.3-.8.4-1.1.4-.5 0-1.1-.5-1.8-1.6l-7.5-11.9c-.6-.9-.6-1.2-.6-1.2 0-.1.2-.4 1-.9 1-.6 2-.9 3.1-.9.5 0 1 .1 1.5.2 1.9.5 3.9 2.3 5.5 4.9 2.9 4.8 2.9 9.1-.1 11"/><path class="st0" d="M258 14.5c134.1 0 242.8 108.7 242.8 242.8 0 134.1-108.7 242.8-242.8 242.8S15.2 391.4 15.2 257.3C15.2 123.2 124 14.5 258 14.5m0-7c-33.7 0-66.4 6.6-97.2 19.6-29.7 12.6-56.5 30.6-79.4 53.5S40.5 130.3 27.9 160c-13 30.8-19.6 63.5-19.6 97.2s6.6 66.4 19.6 97.2c12.6 29.7 30.6 56.5 53.5 79.4 22.9 22.9 49.6 40.9 79.4 53.5 30.8 13 63.5 19.6 97.2 19.6s66.4-6.6 97.2-19.6c29.7-12.6 56.5-30.6 79.4-53.5 22.9-22.9 40.9-49.7 53.5-79.4 13-30.8 19.6-63.5 19.6-97.2s-6.6-66.4-19.6-97.2c-12.6-29.7-30.6-56.5-53.5-79.4-22.9-22.9-49.6-40.9-79.4-53.5-30.7-13-63.4-19.6-97.2-19.6"/><path class="st0" d="M136 143.5h113.5v115.3H136zM249.5 412.7V278.1H138c1.5 87.4 111.5 134.6 111.5 134.6M268.6 143.5h109v115.3h-109zM268.6 412.7s105.6-47.3 107.1-134.6H268.6v134.6z"/><path class="st1" d="M224.3 208.7s17.8-7.4 31.6 7.8c0 0-23.5 14.2-31.6-7.8"/><path class="st0" d="M240.4 221.5c-7.9 0-13.5-4.2-16.6-12.6l-.2-.5.4-.2c.2-.1 4.5-1.8 10.6-1.8 5.8 0 14.3 1.7 21.6 9.7l.4.4-.5.3c-.3.3-7.7 4.7-15.7 4.7M225 209c2.9 7.6 8.2 11.5 15.5 11.5 6.5 0 12.8-3.1 14.6-4.1-7-7.4-14.9-8.9-20.4-8.9-4.8-.1-8.5 1.1-9.7 1.5"/><path class="st1" d="M220.4 204.1s23.3-12.3 12.4-32.4c0 0-21 8.8-12.4 32.4"/><path class="st0" d="m220.1 204.8-.2-.5c-8.7-23.8 12.4-32.9 12.7-33l.4-.2.2.4c3 5.6 3.7 11.1 2.1 16.4-3.2 10.5-14.2 16.4-14.7 16.7l-.5.2zm12.4-32.4c-2.9 1.4-19.2 10.1-11.9 31 2.2-1.3 11-6.9 13.7-15.8 1.5-4.9.9-10-1.8-15.2"/><path class="st1" d="M193.8 235.6s13.5-19.7 31-6.4c.1-.1-14.4 16.8-31 6.4"/><path class="st0" d="M205.1 239.5c-4 0-7.8-1.2-11.5-3.5l-.4-.3.3-.4c.3-.5 7.9-11.2 19.1-11.2 4.3 0 8.5 1.6 12.6 4.7l.4.3-.3.4c-.4.4-8.8 10-20.2 10m-10.5-4.1c3.4 2 6.9 3 10.5 3 9.7 0 17.4-7.5 19.1-9.3-3.8-2.8-7.7-4.2-11.6-4.2-9.5.1-16.5 8.5-18 10.5"/><path class="st1" d="M188.4 231.8s-20.7-13.3-3.1-33.4c0-.1 15.2 12.3 3.1 33.4"/><path class="st0" d="m188.6 232.5-.4-.3c-.4-.2-8.9-5.8-10.2-15.4-.9-6.2 1.5-12.5 7-18.8l.3-.4.4.3c.2.1 15.4 12.9 3.2 34.1l-.3.5zm-3.2-33.5c-5.1 6-7.3 11.9-6.5 17.6 1.1 7.9 7.6 13.1 9.3 14.4 10.4-18.5-.6-29.9-2.8-32"/><path class="st1" d="M177.4 267.9s-25.3-1.3-21.3-28.9c0 0 21.4 1.6 21.3 28.9"/><path class="st0" d="M177.9 268.4h-.5c-.4 0-10.8-.6-17.2-8.5-4.3-5.2-5.8-12.2-4.5-21l.1-.5h.5c.2 0 21.8 2 21.7 29.4l-.1.6zm-21.3-28.9c-1.1 8.3.4 14.9 4.3 19.8 5.4 6.5 13.8 7.8 16 8.1-.2-24.1-17.2-27.5-20.3-27.9"/><path class="st1" d="M184 267.9s19 1.6 23.1-21.4c0 0-20.1-3.9-23.1 21.4"/><path class="st0" d="M184.8 268.4h-1.4l.1-.5c2.4-19.9 15.3-22 20.8-22 1.8 0 2.9.2 2.9.2l.5.1-.1.5c-3.7 20.6-19.6 21.7-22.8 21.7m-.2-1h.2c4.2 0 18.1-1.5 21.7-20.5-.5-.1-1.3-.1-2.3-.1-5.1 0-17.2 2-19.6 20.6"/><path class="st1" d="M264.4 195.6s1.6-22.8 29.5-20.3c0 .1.2 21.6-29.5 20.3"/><path class="st0" d="M266.8 196.2c-.8 0-1.6 0-2.5-.1h-.5v-.5c0-.2 1.8-20.9 25.9-20.9 1.3 0 2.8.1 4.2.2h.5v.5c0 .3 0 7.5-5.8 13.5-4.9 4.8-12.2 7.3-21.8 7.3m-1.9-1.1h1.9c9.3 0 16.4-2.4 21-7 4.7-4.8 5.4-10.7 5.5-12.3-1.2-.1-2.5-.1-3.6-.1-21 0-24.3 16.3-24.8 19.4"/><path class="st1" d="M264.4 201.2s23.1 1.6 22.8 23.3c-.1 0-22.7-1.9-22.8-23.3"/><path class="st0" d="M287.6 225.1h-.5c-.2 0-23.1-2.3-23.2-23.8v-.5h.5c.2 0 23.6 1.9 23.2 23.8v.5zm-22.7-23.3c.5 18.3 18.4 21.7 21.7 22.2 0-18.9-18.2-21.8-21.7-22.2"/><path class="st1" d="M301.9 215.4s14.9 11.9 4.1 28.5c0 0-20-14.8-4.1-28.5"/><path class="st0" d="m306.1 244.6-.4-.3c-.4-.3-10.1-7.5-10.4-16.8-.2-4.5 1.9-8.7 6.3-12.5l.3-.3.3.3c.2.1 15.1 12.4 4.2 29.2l-.3.4zm-4.2-28.6c-3.9 3.5-5.8 7.3-5.6 11.4.3 7.7 7.7 14.2 9.6 15.7 9.1-14.6-1.9-25.2-4-27.1"/><path class="st1" d="M306.3 209.7s17.6-18.3 33.3-3.3c-.1.1-13 13.7-33.3 3.3"/><path class="st0" d="M321.3 214.1c-5 0-10.1-1.3-15.3-4l-.6-.3.5-.5c.4-.4 9.1-9.3 19.9-9.3 5.1 0 9.8 2 14 6.1l.4.3-.3.4c-.3.3-7.1 7.3-18.6 7.3m-14.2-4.5c4.8 2.3 9.6 3.5 14.2 3.5 9.6 0 16-5.2 17.5-6.6-3.9-3.6-8.3-5.4-13-5.4-8.9 0-16.7 6.7-18.7 8.5"/><path class="st1" d="M325.5 241.7s-19.3 4.7-7.9 29.6c0 0 19.6-12 7.9-29.6"/><path class="st0" d="m317.4 272.1-.2-.5c-4.1-8.9-4.7-16.2-2-21.9 3.2-6.6 10-8.3 10.3-8.4l.3-.1.2.3c3.4 5.1 4.5 10.1 3.4 15.1-2.1 9.3-11.1 14.9-11.5 15.1l-.5.4zm7.9-29.8c-1.4.4-6.7 2.4-9.3 7.8-2.5 5.2-1.9 12.1 1.8 20.5 1.9-1.3 8.8-6.5 10.5-14.2 1.1-4.6 0-9.4-3-14.1"/><path class="st1" d="M331.5 237.7s22.9-7.8 30.3 13.8c0 0-20.7 8-30.3-13.8"/><path class="st0" d="M353 253.4c-6.9 0-16.3-2.7-22-15.5l-.2-.5.5-.2c.2-.1 4.2-1.4 9.4-1.4 7.4 0 17.1 2.7 21.5 15.4l.2.5-.4.2c-.2.1-3.9 1.5-9 1.5m-20.8-15.3c8.7 18.9 25.9 14.1 28.9 13.1-6.7-18.6-25.5-14.1-28.9-13.1"/><path class="st1" d="M333.8 278.1s-22.6 1.7-22.3 22.4c.1 0 21.3-2 22.3-22.4"/><path class="st0" d="M311.1 301v-.5c-.3-21 22.5-22.9 22.7-22.9h.6v.6c-1 20.6-22.5 22.9-22.7 22.9l-.6-.1zm22.2-22.4c-3.5.4-21.2 3.4-21.2 21.3 3.3-.4 20-3.6 21.2-21.3"/><path class="st1" d="M339.6 276.4s-2.7 28.3 20.6 27.8c0 0 5-21.5-20.6-27.8"/><path class="st0" d="M359.6 304.8c-6 0-10.8-1.9-14.3-5.8-7.5-8.2-6.3-22-6.2-22.6l.1-.6.6.1c25.8 6.3 21 28.2 21 28.4l-.1.4h-.4c-.3.1-.5.1-.7.1M340 277c-.1 2.7-.3 14.3 6 21.3 3.3 3.6 7.8 5.4 13.5 5.4h.2c.6-2.9 3-20.8-19.7-26.7"/><path class="st1" d="M290.9 315.7s12-14.4 29.3-3.2c0 0-10 16.4-29.3 3.2"/><path class="st0" d="M305.2 321.3c-4.6 0-9.5-1.8-14.6-5.3l-.5-.3.4-.4c.3-.3 6.5-7.6 16.5-7.6 4.5 0 9 1.5 13.5 4.4l.4.3-.3.4s-5.3 8.5-15.4 8.5m-13.5-5.7c4.7 3.2 9.3 4.8 13.5 4.8 8.3 0 13.1-6 14.3-7.7-4.2-2.6-8.4-3.9-12.5-3.9-8.2-.1-13.9 5.2-15.3 6.8"/><path class="st1" d="M326.8 316.5s18.9 12.6 2.5 31c0 0-16-15.8-2.5-31"/><path class="st0" d="m329.3 348.2-.4-.4c-.2-.2-16.1-16.3-2.5-31.7l.3-.3.4.2c.3.2 8.1 5.5 9.3 14.4.7 5.7-1.5 11.6-6.7 17.4l-.4.4zm-2.5-31c-11.3 13.3.2 27.1 2.4 29.6 4.7-5.4 6.8-10.9 6.1-16.2-.9-7.4-6.9-12.3-8.5-13.4"/><path class="st1" d="M297.4 341.2s12.4 21.4-10.8 31.1c0 .1-13.3-17.8 10.8-31.1"/><path class="st0" d="m286.5 373-.2-.3c-.2-.3-5.2-7.1-3.4-15.6 1.4-6.3 6.2-11.8 14.3-16.3l.4-.2.2.4c.2.4 5.5 9.7 2.4 19-1.9 5.6-6.4 9.9-13.4 12.9l-.3.1zm10.7-31.1c-7.6 4.3-12.1 9.4-13.4 15.4-1.5 7 2 13 3 14.5 6.5-2.8 10.7-6.9 12.5-12.1 2.6-7.8-1.1-15.8-2.1-17.8"/><path class="st1" d="M262.9 328.9s10.5 16.5 30.5 7.4c0-.1-11.6-20.2-30.5-7.4"/><path class="st0" d="M281.7 339.5c-12.5 0-19.2-10.3-19.3-10.4l-.3-.4.4-.3c4.2-2.9 8.5-4.3 12.6-4.3 11.6 0 18.6 11.7 18.6 11.9l.3.5-.5.2c-4 1.9-8 2.8-11.8 2.8M263.6 329c1.4 1.9 7.6 9.5 18.1 9.5 3.5 0 7.2-.8 10.9-2.5-1.4-2.1-7.7-10.9-17.5-10.9-3.7 0-7.6 1.3-11.5 3.9"/><path class="st1" d="M251.5 344.2s2.9-19.6-21.9-22.5c0 0-2.3 18.4 21.9 22.5"/><path class="st0" d="m251.9 344.8-.5-.1c-24.4-4.2-22.3-22.9-22.3-23.1l.1-.5.5.1c8.4 1 14.6 4 18.4 8.9 5 6.5 4 13.8 3.9 14.1l-.1.6zm-21.8-22.5c-.2 2.9 0 17.5 21 21.4.1-1.8.2-7.7-3.8-12.9-3.6-4.6-9.3-7.5-17.2-8.5"/><path class="st1" d="M251.6 349.5s-6.4 23.8-31.2 15.7c0 .1 5.2-19.9 31.2-15.7"/><path class="st0" d="M230.1 367.4c-3.1 0-6.4-.6-9.9-1.7l-.4-.1.1-.5c0-.2 4.6-16.7 24.8-16.7 2.2 0 4.6.2 7 .6l.5.1-.1.5c-.1.2-4.9 17.8-22 17.8m-9.1-2.5c3.2 1 6.3 1.5 9.1 1.5 14.6 0 19.9-13.6 20.9-16.5-2.2-.3-4.3-.5-6.3-.5-17.8.1-22.9 12.9-23.7 15.5"/><path class="st1" d="M214.4 331.1s-17.4-15.8-3.9-29.8c0 .1 15 9.8 3.9 29.8"/><path class="st0" d="m214.5 331.9-.5-.4c-.4-.3-8.8-8.1-9.2-17.8-.2-4.6 1.6-8.9 5.3-12.7l.3-.3.3.2c.2.1 15.3 10.2 4 30.4l-.2.6zm-3.9-29.9c-3.3 3.5-4.8 7.4-4.7 11.6.3 8 6.6 14.9 8.4 16.6 9.4-17.4-1.6-26.6-3.7-28.2"/><path class="st1" d="M210.9 335s-21.5-13.1-35.4.7c0-.1 19.1 18.2 35.4-.7"/><path class="st0" d="M194.1 344.1c-10.4 0-18.6-7.7-18.9-8.1l-.4-.4.4-.4c4.3-4.3 9.8-6.4 16.2-6.4 10.3 0 19.7 5.6 19.8 5.7l.5.3-.4.4c-5 5.9-10.8 8.9-17.2 8.9m-17.9-8.5c1.7 1.5 9.1 7.4 17.9 7.4 5.9 0 11.3-2.7 16-8-2.1-1.2-10.1-5.2-18.8-5.2-5.9 0-11 2-15.1 5.8"/><path class="st1" d="M189.9 304s-8.3-20.3 8.9-30.3c0 0 11.1 20.4-8.9 30.3"/><path class="st0" d="m189.7 304.7-.2-.5c-.1-.2-8.2-20.8 9.1-30.9l.4-.3.2.5c.2.4 5.1 9.5 2.2 18.7-1.6 5.2-5.4 9.3-11.3 12.3l-.4.2zm8.9-30.3c-14.5 8.9-9.5 25.7-8.4 28.9 5.3-2.8 8.8-6.6 10.3-11.4 2.4-7.6-.9-15.5-1.9-17.5"/><path class="st1" d="M184.6 305.5s-13-21.1-31.2-13.8c0 0 4.3 21.3 31.2 13.8"/><path class="st0" d="M174 307.6c-17.7 0-21-15.7-21-15.8l-.1-.4.4-.2c2.6-1 5.2-1.6 7.8-1.6 14.2 0 23.9 15.4 24 15.6l.3.6-.6.2c-3.9 1.1-7.5 1.6-10.8 1.6M154 292c.6 2.5 4.5 14.6 20 14.6 3 0 6.3-.5 9.8-1.4-1.9-2.7-10.6-14.5-22.7-14.5-2.4-.1-4.8.4-7.1 1.3"/><path class="st1" d="M258.4 196.7c-44.3 0-80.1 34.3-80.1 76.6s35.9 76.6 80.1 76.6 80.1-34.3 80.1-76.6-35.9-76.6-80.1-76.6m0 148.8c-41.8 0-75.6-32.3-75.6-72.3s33.9-72.2 75.6-72.2 75.6 32.3 75.6 72.2-33.9 72.3-75.6 72.3"/></svg>