<svg version="1.1" id="Layer_1" xmlns="http://www.w3.org/2000/svg" x="0" y="0" width="108" height="108" style="enable-background:new 0 0 108 108" xml:space="preserve"><style>.st0{fill:#006548}</style><path class="st0" d="m42.9 73.9-3.6 11.2h-4.8l-1.7-6.7-1.6 6.7h-4.8l-3.6-11.2h4.7l1.6 7.2 1.9-7.2h4l1.8 7.2 1.6-7.2h4.5m0-.3h-4.6c-.1 0-.2.1-.2.2L36.8 80l-1.5-6.2c0-.1-.1-.2-.2-.2h-4c-.1 0-.2.1-.2.2L29.3 80l-1.4-6.2c0-.1-.1-.2-.2-.2H23c-.1 0-.2 0-.2.1s-.1.1 0 .2l3.6 11.2c0 .1.1.2.2.2h4.8c.1 0 .2-.1.2-.2l1.4-5.7 1.5 5.7c0 .1.1.2.2.2h4.8c.1 0 .2-.1.2-.2L43.1 74v-.1c.1-.1-.1-.3-.2-.3zM48.4 73.9v11.2h-4.9V73.9h4.9m0-.3h-4.9c-.1 0-.3.1-.3.3v11.2c0 .1.1.3.3.3h4.9c.1 0 .3-.1.3-.3V73.9c0-.1-.1-.3-.3-.3zM64.4 73.9v11.2h-4.6l-4.2-5.2c-.1-.2-.3-.4-.4-.6-.2-.3-.3-.6-.5-1 0 .2.1.4.1.6V85h-4.6V73.9h4.6l4.2 5.2c.1.1.3.4.4.6.1.3.3.6.5 1 0-.2-.1-.4-.1-.7v-6.2h4.6m0-.2h-4.6c-.1 0-.3.1-.3.3v5.5c-.1-.2-.2-.3-.3-.4L55 73.8c0-.1-.1-.1-.2-.1h-4.6c-.1 0-.3.1-.3.3v11.2c0 .1.1.3.3.3h4.6c.1 0 .3-.1.3-.3v-5.4c.1.2.2.3.3.4l4.2 5.2c0 .1.1.1.2.1h4.6c.1 0 .3-.1.3-.3V73.9c-.1-.1-.2-.3-.3-.3zM72 73.9c1.5 0 2.6 0 3.3.1.7.1 1.3.3 1.9.5 1 .5 1.8 1.1 2.3 1.9.5.8.8 1.8.8 3.1s-.3 2.3-1 3.2c-.6.9-1.6 1.5-2.9 1.9-.5.2-1.1.3-1.8.4-.7.1-1.9.1-3.5.1h-4.9V73.9H72m-1 8.4h1.3c1.2 0 2-.2 2.5-.6.5-.4.7-1.1.7-2.2 0-1-.2-1.7-.7-2.1-.5-.4-1.3-.6-2.4-.6H71v5.5m1-8.7h-5.8c-.1 0-.3.1-.3.3v11.2c0 .1.1.3.3.3h4.9c1.6 0 2.8 0 3.5-.1.7-.1 1.4-.2 1.9-.4 1.3-.4 2.3-1.1 3-2 .7-.9 1-2 1-3.3 0-1.2-.3-2.3-.8-3.2-.5-.9-1.4-1.5-2.4-2-.6-.2-1.2-.4-1.9-.5-.8-.2-1.9-.3-3.4-.3zm-.8 3.4h1.1c1.1 0 1.8.2 2.2.6.4.4.6 1 .6 2s-.2 1.6-.6 2c-.4.4-1.2.5-2.3.5h-1V77z"/><path class="st0" d="M56.2 88.2V88h.4v-1.3s-.1 0-.1-.1h-.2v-.1c.2 0 .3 0 .4-.1.1 0 .2-.1.3-.2h.2v2s.1 0 .2.1h.1v.1H56.4c-.1-.2-.2-.2-.2-.2zm.4-2.9c0-.1 0-.2.1-.2.1-.1.1-.1.2-.1s.2 0 .2.1c.1.1.1.1.1.2v.2c0 .1-.1.1-.1.1h-.2c-.1 0-.1 0-.2-.1-.1 0-.1-.1-.1-.2zM57.6 88.1H57.9v-1.5l-.1-.1s-.1-.1-.2-.1v-.1H57.9c.1 0 .1-.1.2-.1h.1l.2-.2h.1v.5c.1-.1.3-.2.4-.2.1-.1.3-.1.4-.1.2 0 .3 0 .4.1.1.1.2.2.2.3 0 .1.1.3.1.6v.9h.2v.2h-1.1v-.1h.4v-.8c0-.3 0-.6-.1-.6-.1-.1-.2-.2-.3-.2-.1 0-.2 0-.3.1-.1 0-.2.1-.3.2v1.3s.1.1.2.1v.2H57.5c.1-.3.1-.3.1-.4zM61.5 86.2h1v.1H62.2v.1l.1.2.3.6.1.3s.1-.2.2-.5c.1-.4.2-.6.2-.6v-.2h-.4v-.1H63.6v.1H63.3c0 .1-.1.2-.2.4l-.2.5-.4 1-.3.6c-.1.1-.1.2-.2.3l-.1.1H61.6c-.1 0-.1-.1-.2-.1l-.1-.1c0-.1 0-.2.1-.2s.1-.1.2-.1.2 0 .3.1l.1.1h.1c.1-.3.2-.5.3-.6l-.4-1c-.2-.4-.3-.7-.4-.8 0-.1-.1-.1-.1-.1h-.2c.2 0 .2 0 .2-.1zM65.8 86.4c.1.1.2.2.2.3.1.1.1.3.1.4 0 .2 0 .4-.1.5-.1.2-.2.3-.4.4-.2.1-.4.1-.6.1-.3 0-.5-.1-.6-.2-.2-.1-.3-.2-.4-.4-.1-.1-.1-.3-.1-.5 0-.1 0-.2.1-.3 0-.1.1-.2.1-.3l.2-.2c.1-.1.2-.1.3-.2h.4c.4.1.6.2.8.4zm-1.3.8v.3c0 .1.1.2.1.3 0 .1.1.1.2.1s.2.1.3.1c.1 0 .2 0 .3-.1.1-.1.1-.2.2-.4V87c0-.3 0-.5-.1-.6-.1-.1-.2-.2-.4-.2-.1 0-.2 0-.3.1-.1.1-.1.2-.2.3-.1.2-.1.4-.1.6zM66.4 86.2s.1 0 0 0h.9v1.5c0 .1.1.1.1.2.1 0 .1.1.2.1h.2s.1 0 .2-.1c.1 0 .1-.1.1-.1 0-.1.1-.1.1-.1V86.4h-.4v-.2h.9V87.8h.2v.2h-.2c-.2 0-.4.1-.6.2H68v-.4l-.1.1c-.1.1-.3.2-.4.3-.1 0-.2.1-.3.1-.1 0-.2 0-.3-.1-.1-.1-.2-.1-.2-.2s-.1-.2-.1-.3V86.3h-.1c-.1 0-.2 0-.2-.1.1.1.1.1.1 0 0 .1 0 .1 0 0zM69.1 88.1c.1-.1.1-.1 0 0 .2-.1.2-.1.3-.1V86.7s-.1 0-.2-.1c0 0-.1 0-.1-.1v-.1c.1 0 .2-.1.3-.1.1-.1.2-.1.2-.2 0 0 0-.1.1-.1h.2v.5c.1-.1.1-.2.1-.2l.1-.1c.1 0 .1-.1.2-.1s.2 0 .2.1c.1.1.1.1.1.2s0 .1-.1.2c0 .1-.1.1-.2.1s-.1 0-.2-.1l-.1-.1s-.1 0-.1.1-.1.2-.1.3v1h.4v.2h-1.3.2zM34 93.3c-.1 0-.2-.1-.2-.1s-.1-.1-.2-.3l-.4-.6c0-.1-.1-.2-.2-.2l-.1-.1c.2-.1.4-.2.5-.3.1-.1.2-.3.2-.4 0-.2-.1-.4-.3-.6-.2-.2-.5-.3-.8-.3H30.9v.1h.4V93c-.1 0-.1 0-.2.1h-.2v.2h1.6v-.2c-.1 0-.2-.1-.3-.1-.1 0-.1 0-.2-.1v-1.2h.2c.1 0 .2 0 .2.1 0 0 .1.1.2.3.2.3.3.6.4.7 0 .1.1.2.1.3l.1.2H34.2v-.2c-.1.3-.2.2-.2.2zm-1.3-1.6c-.1.1-.3.1-.6.1h-.2v-1.2h.5c.1 0 .2.1.2.1s.1.1.1.2v.3c.2.2.1.4 0 .5zM37.5 92.6c-.1.2-.2.3-.3.5-.1.1-.2.1-.3.2-.2 0-.3.1-.6.1s-.5 0-.6-.1l-.1-.1v-1.1h1s.1 0 .1.1c0 0 .1.1.1.3v.2h.2v-1.2h-.1c0 .2-.1.3-.1.4 0 0 0 .1-.1.1h-.9v-1.2h1.3c.1.1.1.2.2.2l.1.2c0 .1 0 .1.1.1h.2v-.7H34.9v.2h.6V93.4c-.1 0-.2.1-.3.1H35v.2h3v-.3l.1-.5v-.2H38c-.4-.1-.5-.1-.5-.1zM41.4 90.2c-.1 0-.1 0 0 0h-.2v.1c0 .1 0 .1-.1.1H38.9s-.1-.1-.1-.2h-.2s0 .1-.1.2c-.1.3-.2.5-.2.6l.1.1.1-.1c.1-.2.2-.3.3-.3h.8v2.4c-.1 0-.2.1-.3.1-.1 0-.2.1-.2.1v.2H40.8v-.2h-.4V90.7H41.2s0 .1.1.2c0 .1.1.2.1.3h.2v-.4c-.2-.3-.2-.4-.2-.6zM43.3 90.4h-1.4v.2h.1c.1 0 .3 0 .3.1v2.6c-.1 0-.1.1-.2.1h-.2v.2H43.4v-.2H43V90.8c.1 0 .1 0 .2-.1.1 0 .2 0 .2-.1v-.2h-.1zM47.3 93.3c-.1 0-.2-.1-.2-.1s-.1-.1-.2-.3l-.4-.6c0-.1-.1-.2-.2-.2l-.1-.1c.2-.1.4-.2.5-.3.1-.1.2-.3.2-.4 0-.2-.1-.4-.3-.6-.2-.2-.5-.3-.8-.3H44.2v.1h.4V93c-.1 0-.1 0-.2.1h-.2v.2h1.6v-.2c-.1 0-.2-.1-.3-.1-.1 0-.1 0-.2-.1v-1.2h.2c.1 0 .2 0 .2.1 0 0 .1.1.2.3.2.3.3.6.4.7 0 .1.1.2.1.3l.1.2H47.5v-.2c0 .3-.1.2-.2.2zM46 91.7c-.1.1-.3.1-.6.1h-.2v-1.2h.5c.1 0 .2.1.2.1s.1.1.1.2v.3c.2.2.1.4 0 .5zM50.8 92.6c-.1.2-.2.3-.3.5-.1.1-.2.1-.3.2-.2 0-.3.1-.6.1s-.5 0-.6-.1l-.1-.1v-1.1h1s.1 0 .1.1c0 0 .1.1.1.3v.2h.2v-1.2h-.1c0 .2-.1.3-.1.4 0 0 0 .1-.1.1h-.9v-1.2h1.3c.1.1.1.2.2.2l.1.2c0 .1 0 .1.1.1h.2v-.7H48.2v.2h.6V93.4c-.1 0-.2.1-.3.1h-.2v.2h3v-.3l.1-.5v-.2h-.1c-.4-.1-.4-.1-.5-.1zM55.5 93.2c-.1 0-.1 0 0 0v-2.3s0-.1.1-.1.2-.1.4-.1V90.4H54.8s0 .1-.1.2-.1.3-.1.3c-.2.5-.3.8-.4 1-.1.1-.1.3-.2.4 0 0 0 .1-.1.1 0 0 0-.1-.1-.2 0-.1-.1-.1-.1-.2s-.1-.1-.1-.2v-.1l-.4-.8v-.1c-.1-.2-.2-.4-.2-.5 0-.1-.1-.1-.1-.1H51.8v.2h.1c.2 0 .3.1.3.1v2.3c0 .2 0 .3-.1.3-.1.1-.2.1-.4.1v.2h1.2v-.2h-.1c-.2 0-.3-.1-.3-.1 0-.1-.1-.1-.1-.3V91l.2.5.4.8v.2c0 .1.1.2.1.3.1.2.2.3.2.4l.1.4h.2c0-.1 0-.1.1-.2 0-.2.1-.4.3-.7 0 0 0-.1.1-.2 0-.1.1-.1.1-.1l.6-1.4v2.3l-.1.1c-.1 0-.2 0-.3.1v.2H56v-.2c-.4-.2-.5-.3-.5-.3zM59.4 92.6c-.1.2-.2.3-.3.5-.1.1-.2.1-.3.2-.2 0-.3.1-.6.1s-.5 0-.6-.1l-.1-.1v-1.1h1s.1 0 .1.1c0 0 .1.1.1.3v.2h.2v-1.2h-.1c0 .2-.1.3-.1.4 0 0 0 .1-.1.1h-.9v-1.2H59c.1.1.1.2.2.2l.1.2c0 .1 0 .1.1.1h.2v-.7H56.8v.2h.6V93.4c-.1 0-.2.1-.3.1h-.2v.2h3v-.3l.1-.5v-.2h-.1c-.4-.1-.5-.1-.5-.1zM64 90.4h-1.1v.1s.1 0 .2.1c.1 0 .2 0 .2.1v2.1l-1.7-1.7-.6-.6H60v.2c.2 0 .3 0 .3.1.1 0 .1.1.2.1 0 0 0 .1.1.1V93.5h-.4v.2h1.3v-.2h-.1c-.2 0-.3 0-.4-.1v-2.2l.4.4c.2.1.3.3.5.5l.3.3.4.4.6.6.3.3h.3V90.9s.1 0 .1-.1c0 0 .1 0 .2-.1h.1v-.2l-.2-.1zM67.7 90.2h-.2v.1c0 .1 0 .1-.1.1H65.2s-.1-.1-.1-.2h-.2s0 .1-.1.2c-.1.3-.2.5-.2.6l.1.1.1-.1c.1-.2.2-.3.3-.3h.8v2.4c-.1 0-.2.1-.3.1-.1 0-.2.1-.2.1v.2H67.1v-.2h-.4V90.7H67.5s0 .1.1.2c0 .1.1.2.1.3h.2v-.4c-.2-.3-.2-.4-.2-.6zM71.7 91.9c-.1-.1-.2-.1-.3-.2-.1-.1-.3-.1-.4-.1-.3-.1-.5-.2-.6-.3-.1-.1-.1-.2-.1-.3 0-.1 0-.2.1-.3.1-.1.2-.1.4-.1s.3.1.4.2c.1.1.1.2.2.4h.2v-.7c-.2-.1-.3-.1-.4-.1h-.3c-.4 0-.6.1-.8.3-.2.2-.3.4-.3.7 0 .1 0 .3.1.4l.3.3c.1.1.3.2.6.3.3.1.5.2.5.3.1.1.2.2.2.3 0 .1 0 .2-.1.3-.1.1-.1.1-.3.2-.1 0-.2.1-.3.1h-.3c-.1 0-.2-.1-.2-.1l-.2-.2s-.1-.1-.1-.3h-.2V93.6s.1 0 .2.1l.3.1h.8c.1 0 .2-.1.3-.1.1-.1.2-.1.2-.2.1-.1.1-.1.1-.2.1-.1.1-.3.1-.4 0-.1 0-.3-.1-.3.2-.5.1-.6 0-.7zM75.5 93.3h-.1s0-.1-.1-.1c-.1-.1-.1-.2-.1-.3-.1-.2-.1-.3-.1-.3-.1-.1-.1-.3-.2-.5l-.3-.6-.4-1h-.4l-.6 1.5-.5 1.3c0 .1-.1.1-.1.1s-.1 0-.2.1h-.2v.2h1.1v-.2h-.2c-.1 0-.2 0-.2-.1V93.1c.1-.3.2-.5.2-.6h.9l.2.5.1.2v.2h-.1l-.3.1v.2h1.6v-.2c.2-.2.1-.2 0-.2zm-1.4-1.1h-.7l.4-.9c0 .1.1.2.2.4.1.1.1.3.1.5zM77.4 90.4H76v.2h.1c.1 0 .3 0 .3.1v2.6c-.1 0-.1.1-.2.1H76v.2H77.5v-.2h-.4V90.8c.1 0 .1 0 .2-.1.1 0 .2 0 .2-.1v-.2h-.1zM81 92.6c0 .1-.1.2-.1.3 0 .1-.1.1-.1.2 0 0-.1.1-.2.1-.1.1-.4.1-.6.1h-.5V90.6l.3-.1h.1v-.2h-1.6v.2s.1 0 .1.1h.2c.1 0 .1 0 .1.1v2.4h-.5v.1h2.9v-.9c.1.3.1.3-.1.3zM83.6 91.9c-.1-.1-.2-.1-.3-.2-.1-.1-.3-.1-.4-.1-.3-.1-.5-.2-.6-.3-.1-.1-.1-.2-.1-.3 0-.1 0-.2.1-.3.1-.1.2-.1.4-.1s.3.1.4.2c.1.1.1.2.2.4h.2v-.7c-.2-.1-.3-.1-.4-.1h-.3c-.4 0-.6.1-.8.3-.2.2-.3.4-.3.7 0 .1 0 .3.1.4l.3.3c.1.1.3.2.6.3.3.1.5.2.5.3.1.1.2.2.2.3 0 .1 0 .2-.1.3-.1.1-.1.1-.3.2-.1 0-.2.1-.3.1h-.3c-.1 0-.2-.1-.2-.1l-.2-.2s-.1-.1-.1-.3h-.2V93.6s.1 0 .2.1l.3.1h.8c.1 0 .2-.1.3-.1.1-.1.2-.1.2-.2.1-.1.1-.1.1-.2.1-.1.1-.3.1-.4 0-.1 0-.3-.1-.3.2-.5.1-.6 0-.7zM86.5 90.3c-.1-.1-.1-.1-.3-.1-.1 0-.2 0-.3.1-.1.1-.1.2-.1.2 0 .1 0 .2.1.3l.2.9h.1l.2-.9c0-.2.1-.3.1-.3.1-.1.1-.1 0-.2zM85.1 90.2c-.1 0-.2 0-.3.1-.1.1-.1.2-.1.3v.3l.3.9h.1l.2-.9c0-.2.1-.3.1-.3 0-.1 0-.2-.1-.2 0-.2-.1-.2-.2-.2z"/><g><path class="st0" d="M24.9 71.4h-.1l-.3-.9v-.3c0-.1 0-.2.1-.3.1-.1.2-.1.3-.1.1 0 .2 0 .3.1.1.1.1.1.1.2s0 .2-.1.3l-.3 1zm1.2 0H26l-.2-.9c0-.1-.1-.3-.1-.3 0-.1 0-.2.1-.2.1-.1.2-.1.3-.1.1 0 .2 0 .3.1.1.1.1.2.1.2 0 .1 0 .2-.1.3l-.3.9zM26.8 74.4v-.1h.1l.2-.1c.1 0 .1-.1.1-.1v-2.5c0-.1 0-.1-.1-.2 0 0-.1-.1-.3-.1v-.1c.2 0 .3-.1.4-.1.1 0 .2-.1.3-.2h.1v.5c.1-.1.3-.1.3-.2.1 0 .3-.1.4-.1.2 0 .3 0 .4.1l.2.2c.1.1.1.2.2.3v.3c0 .2 0 .3-.1.4 0 .1-.1.2-.2.4l-.3.3c-.1 0-.2.1-.4.1h-.3c-.1 0-.2-.1-.3-.1V74.3h.2v.2h-1.2c.4-.1.3-.1.3-.1zm.9-1.8c0 .1 0 .1 0 0 0 .1.1.2.1.2.1.1.1.1.2.1h.3c.1 0 .2 0 .2-.1.1 0 .1-.1.2-.1v-.1c.1-.1.1-.3.1-.4 0-.3-.1-.5-.2-.7-.1-.1-.3-.2-.5-.2-.1 0-.3 0-.4.1v1.2zM29.6 71.2c.1 0 .1 0 0 0h.9v1.5c0 .1.1.1.1.2.1 0 .1.1.2.1h.2s.1 0 .2-.1c.1 0 .1-.1.1-.1 0-.1.1-.1.1-.1V71.4H31v-.2h.9V72.8h.2v.2h-.2c-.2 0-.4.1-.6.2h-.1v-.4l-.1.1c-.1.1-.3.2-.4.3-.1 0-.2.1-.3.1-.1 0-.2 0-.3-.1-.1-.1-.2-.1-.2-.2s-.1-.2-.1-.3V71.3h-.1c-.1 0-.2 0-.2-.1.1.1.1.1.1 0zM32.4 71.3c.2-.1.3-.2.4-.2.1-.1.2-.2.3-.4h.1v.5h.5v.2h-.4v1.2s0 .1.1.1h.2s.1 0 .1-.1l.1.1c-.1.1-.1.2-.2.2-.1.1-.2.1-.3.1-.2 0-.3 0-.4-.1-.1-.1-.1-.2-.1-.4v-1.1H32.5c-.1 0-.1 0-.1-.1zM35.2 71.3c.2-.1.3-.2.4-.2.1-.1.2-.2.3-.4h.1v.5h.5v.2h-.4v1.2s0 .1.1.1h.2s.1 0 .1-.1l.1.1c-.1.1-.1.2-.2.2-.1.1-.2.1-.3.1-.2 0-.3 0-.4-.1-.1-.1-.1-.2-.1-.4v-1.1H35.3c-.1 0-.1 0-.1-.1z"/><path class="st0" d="M36.7 73H37v-2.6s0-.1-.1-.1c0 0-.1 0-.3-.1V70H36.9c.1 0 .2-.1.3-.1h.2v1.4c.1-.1.3-.2.4-.2.1 0 .2-.1.4-.1.1 0 .2 0 .3.1.1 0 .2.1.2.2.1.1.1.1.1.2V72.9h.2v.2h-1v-.2h.2v-1.5c0-.1-.1-.1-.1-.2-.1 0-.1-.1-.2-.1s-.2 0-.3.1c-.1 0-.2.1-.2.2V72.8l.1.1h.2v.2H36.6c.1 0 .1 0 .1-.1zM39.6 71.9c0-.1.1-.2.1-.3l.3-.3c.1-.1.2-.1.3-.1h.7c.1 0 .2.1.2.1.1.1.2.1.2.2.1.1.1.1.1.2s.1.2.1.3h-1.5v.4c0 .1.1.2.1.3 0 .1.1.1.2.2s.1.1.2.1H40.9c.1 0 .1 0 .2-.1.1 0 .1-.1.2-.1s.1.1.1.1c-.1.2-.3.3-.4.3-.2.1-.3.1-.5.1h-.3c-.1 0-.2-.1-.3-.1-.1-.1-.2-.1-.2-.2-.1-.1-.1-.2-.1-.3 0-.1-.1-.2-.1-.3 0-.3 0-.4.1-.5zm1.4-.1c0-.1 0-.2-.1-.3 0-.1-.1-.1-.2-.2-.1 0-.1-.1-.2-.1s-.2 0-.3.1c-.1.1-.1.2-.1.4h.8c0 .1 0 .1.1.1-.1 0-.1 0 0 0z"/></g><g><path class="st0" d="M45.1 38.2s.1 0 0 0l.2-.1.3.4.1.2.1.2.2.1.2.3s0 .1.1.1l-.1.1-.1.1.1.1s.1 0 .1-.1l.1-.1.1-.1c.2-.1.2-.2.3-.2l.2-.1s-.1 0-.1.1h-.1s-.1 0-.1-.1l-.3-.3-.1-.1.1-.1c.2-.1.3-.2.4-.2 0 0 .1 0 .1.1h.2c-.1-.1-.1-.2-.1-.2s0-.1-.1-.1l-.1-.2h-.1c.1.1.1.1.1.2v.1l-.1.1-.1.1-.1.1-.1.1-.1-.1-.1-.2-.1-.1v-.1s.1-.1.2-.1l.2-.1c.1-.1.2-.1.2-.1s.1 0 .2.1h.1l.1-.1v-.1l-.2-.2-.1-.1-.8-.1h-.1c-.1.1-.2.2-.3.2-.2.1-.3.2-.4.3l-.1.3z"/><path class="st0" d="M46.5 37.1c.1-.1.1-.1.2-.1l.1.1v.1l.1.1.2.2.1.1.2.2.1.1.1.1s0 .1-.1.1c0 0 0 .1-.1.1l.1.1.1-.1.2-.2.2-.2c.1-.1.1-.1.2-.1h-.1s-.1 0-.1.1l-.1.1-.2-.2-.1-.1-.3-.3c-.1-.1-.1-.2-.3-.3l-.1-.1-.1-.1s0-.1.1-.1l.1-.1-.1.1-.2.2-.1.1h-.2l.1.1zM47.4 36.3h.2s.1.1.2.1l.2.2.3.3.1.1.2.2.1.1s0 .1-.1.1v.1l.1-.1.2-.2.2-.2c-.1.1-.2.1-.2.2l-.2-.2-.1-.1-.1-.1-.1-.1-.4-.4h2l.1-.1-.1-.2h-.1l-.1-.1h-.1l-.1-.1-.1-.1-.4-.3-.1-.1-.2-.2-.1-.1v-.1l.1-.1v-.1l-.1-.1-.2.2-.2.2.1.1s.1 0 .1-.1c.1 0 .1-.1.1-.1s.1 0 .1.1c0 0 .1.1.2.1s.1.1.2.1c.1.1.1.1.2.1l.2.2.1.1h-2l-.1.1-.1.1-.1.1-.1.1-.1.1.1.1c.2.2.2.1.2.1zM50.3 35.5V35.8l.1.1s.1-.1.1-.2v-.1l.3-.3h-.1l-.1.1-.1.1h-.1l-.1-.1c-.1-.2-.2-.3-.2-.3l.4-.4.3.1h.1v.1l-.1.1.1.1V35l.1-.2.1-.1c0-.1.1-.1.2-.2l.2-.2h-.1s-.1 0-.1.1h-.2c-.1 0-.1 0-.2-.1-.1 0-.2-.1-.2-.1-.1 0-.2-.1-.3-.1s-.1-.1-.2-.1l-.6-.2v.1l-.1.1.5.8.3.7zm-.2-1.1c.1 0 .2.1.3.1l-.3.3-.3-.5c.1 0 .1 0 .3.1zM50.4 33.1h.2s.1.1.2.1l.2.2.4.3h.1l.2.2.1.1s0 .1-.1.1v.1-.1s.1-.1.2-.3l.2-.2-.1-.1c-.1.1-.1.2-.2.2-.1-.1-.2-.1-.2-.1l-.2-.1-.1-.1s-.1 0-.1-.1l-.4-.3.3-.1c.1 0 .3 0 .4-.1h.6l.5-.1h.2l.1-.1h-.2l-.1-.1h-.1l-.1-.1h-.1l-.4-.3s-.1 0-.1-.1c-.1 0-.2-.1-.3-.2-.1 0-.1-.1-.1-.1h-.1V31.4l-.1-.1-.2.3-.2.2.1.1s.1 0 .1-.1l.1-.1s.1 0 .1.1c0 0 .1.1.2.1s.1.1.2.1.1.1.2.1c0 0 .1.1.2.1l.1.1c-.8.1-1.3.2-1.4.2-.1 0-.3 0-.5.1l-.1.1s0 .1-.1.1l-.1.1s0 .1-.1.1l-.1.1.1.1c.5-.1.5-.1.6-.1zM52.5 31.6c.1.1.2.1.3.1h.3c.1 0 .2 0 .3-.1.1 0 .2-.1.2-.2.1-.1.1-.2.2-.3.1-.1.1-.2.2-.4 0-.1.1-.2 0-.3v-.1l-.1-.1-.1-.1-.1.1c.1.1.1.3.1.4 0 .1 0 .2-.1.3l-.2.2c-.1 0-.1.1-.2.1H53c-.1 0-.2-.1-.3-.2-.2-.2-.4-.3-.5-.5v-.4c.1-.1.2-.2.3-.2.1-.1.2-.1.4-.1l.1-.1c-.1 0-.1-.1-.2-.1s-.2-.1-.3-.1l-.2.2c-.1.1-.1.2-.2.3-.1.4-.1.7-.1 1 .1.2.2.4.5.6zM52.8 29.4c0-.1.1-.1.1-.2h.1l.1.1h.1l.2.1s.1.1.3.2h.1l.3.2.2.1.1.1v.2h.1s0-.1.1-.1c0-.1.1-.2.1-.2l.1-.2c.1-.1.1-.1.1-.2h-.1s0 .1-.1.1l-.1.1-.3-.1-.3-.2-.3-.2c-.1 0-.2-.1-.3-.2h-.1s-.1 0-.1-.1v-.2h-.1s0 .1-.1.1V29.1l-.2.4v-.1zM54.8 28.9c.1.1.1.1 0 0 .1.1.1.2 0 .2v.1h.1c0-.1 0-.1.1-.2v-.1c.1-.2.2-.3.2-.4h-.1c0 .1 0 .1-.1.1 0 .1-.1.1-.1.1h-.1l-.1-.1c-.1-.1-.2-.2-.3-.2l.2-.5h.5V28.2h.1v-.1l.1-.2s0-.1.1-.2c0-.1.1-.1.1-.2s.1-.1.1-.2h-.1l-.1.1s0 .1-.1.1H53.5v.2l.7.7.6.5zm-.5-1h.3l-.2.4-.4-.4h.3zM55.3 39.9c.1.1.2.2.3.2.1 0 .2.1.3.1h.3c.1 0 .2-.1.2-.1.1-.1.2-.1.2-.2.1-.1.2-.3.3-.4.1-.1.1-.2.1-.3v-.1l-.1-.1s-.1-.1-.2-.1l-.1-.1v-.2l-.1.1-.1.1-.1.2-.1.1-.2.2h.1l.1-.1h.1s.1.1.2.1l.2.2v.2c0 .1-.1.1-.1.2-.1.1-.2.2-.3.2h-.4c-.1 0-.2-.1-.3-.2-.2-.2-.3-.4-.4-.6 0-.2 0-.3.1-.5.1-.1.1-.1.2-.1s.2-.1.2-.1h.3s.1 0 .1-.1l-.1-.1c-.1 0-.1-.1-.1-.1-.1 0-.2.1-.2.1-.1.1-.2.1-.3.2l-.1.1c-.1.1-.2.2-.2.4 0 .1-.1.3-.1.4 0 .1 0 .2.1.3 0-.1.1 0 .2.1zM56.1 37.7l.1-.1.1-.1s.1.1.3.2l.2.2.1.1.1.1.1.1.2.2.1.1s0 .1-.1.1c0 0 0 .1-.1.1l.1-.1.1-.2.3-.3-.1-.1c-.1 0-.1.1-.2.1 0 0-.1 0-.1.1l-.2-.2-.3-.2s-.1 0-.1-.1c0 0 0-.1.1-.1 0-.1.1-.1.1-.1h.2c.2.1.4.1.5.1H57.9v-.1l.1-.1.1-.1.1-.1.1-.1h-.4l-.4-.1H57.2c.1-.1.1-.2.1-.3 0-.1-.1-.2-.1-.2-.1-.1-.2-.1-.4-.1s-.3.1-.4.3c-.1.1-.2.2-.2.3l-.1.1v.1l-.1.1c0 .1-.1.1-.1.1.2.2.2.2.2.3zm.5-.5.1-.1c.1 0 .1 0 .2-.1h.1c.1 0 .1.1.1.1.1.1.1.1.1.2s-.1.2-.2.3l-.1.1c-.1 0-.1-.1-.1-.1l-.1-.1-.1-.1-.2-.1.2-.1zM57.8 36.5c.1.1.1.2.2.3.1.1.2.1.2.1.1 0 .2.1.2.1h.3c.1 0 .2 0 .3-.1l.1-.1.1-.1c.1 0 .1-.1.2-.2.2-.3.3-.5.3-.8s-.2-.5-.4-.7c-.1 0-.3 0-.5-.1-.2 0-.3 0-.5.1s-.3.2-.4.3c-.1.1-.1.2-.2.3 0 .1-.1.2-.1.3v.3c.1.1.1.2.2.3zm.2-1c.1-.1.2-.2.3-.2.1 0 .3 0 .4.1h.1c.1.1.2.1.3.2.1.1.2.2.3.4.1.1.1.2.1.3 0 .1-.1.2-.1.3l-.1.1c-.1 0-.1 0-.1.1H59s-.1 0-.2-.1c0 0-.1 0-.1-.1h-.1l-.1-.1-.2-.2c-.1-.1-.1-.2-.1-.3v-.2c-.3-.2-.3-.3-.2-.3zM58.8 34.5c.1-.1.1-.1.2-.1 0 0 .1 0 .2.1l.6.4c.1.1.2.1.3.2.1 0 .2.1.3.1.1 0 .2 0 .3-.1l.3-.3c.1-.1.1-.2.2-.3V34l-.1-.1s-.2-.1-.3-.2l-.3-.2c-.1 0-.1-.1-.2-.1h-.2l-.1-.1h-.1v-.1s0-.1.1-.1h-.1c0 .1-.1.1-.1.2l-.2.2-.1.1.1.1.1-.1.1-.1h.2c.3.1.5.3.7.4.1.1.2.1.2.2l.1.1v.2c0 .1-.1.2-.1.2 0 .1-.1.1-.2.2h-.2c-.1 0-.2 0-.3-.1l-.3-.2-.2-.1-.1-.1-.1-.1h-.1c-.1-.2-.2-.2-.2-.2v-.1l.1-.1h-.1l-.1.1s-.1.1-.1.2-.1.1-.1.2c0 0-.1.1-.1.2l-.1.1.1-.1zM60 32.5c.1-.1.1-.1 0 0l.1-.1s.1.1.3.1l.4.2.4.2s.1 0 .1.1h.1V33.3h.1v-.1c0-.1.1-.2.1-.3 0-.1.1-.2.1-.2 0-.1.1-.1.1-.1v-.1h-.2l-.2.2c-.1 0-.1 0-.1-.1l-.2-.1-.2-.1-.1-.1h-.2l-.3-.3v-.2c0-.1.1-.1.1-.2h.2c.1 0 .1 0 .2.1s.2.1.2.2V32.2h.1l.1-.1.1-.1c.1-.1.1-.3 0-.4 0-.1-.1-.3-.3-.3h-.4c-.1 0-.1.1-.2.2 0 0-.1.1-.1.2 0 0 0 .1-.1.1-.1.1-.1.2-.1.3v.1H60l-.2.3h.1c.1.1.1 0 .1 0zM40 34.9l.1-.1c0-.1-.1-.3-.2-.5s-.1-.3-.1-.3.1 0 .1.1l.4.2s.1 0 .1.1h.1l.1-.1c-.2-.5-.3-.8-.4-1-.1-.2-.2-.4-.3-.7v-.2l-.1.1-.2.1h.2l.1.1.3.6.2.5h-.1l-.3-.2-.2-.1c-.1-.3-.2-.5-.2-.6v-.1s0-.1.1-.2l-.1.1-.2.2c.1 0 .1 0 .1-.1 0 0 0 .1.1.2l.1.2c-.1 0-.1-.1-.3-.1h-.1s-.1 0-.1-.1v-.1l-.2.3-.1.1s-.1 0-.1.1l-.1.1.1.1c.1 0 .1-.1.1-.1h.2c.1 0 .1.1.2.1l.5.2c.1.2.1.4.2.5l-1-.2c-.2-.1-.3-.1-.3-.2h-.1V33.6l-.1.1-.1.1-.2.2.1.1s.1 0 .2.1l1.1.5c.1.1.3.1.4.2zM40.1 32.2c.1-.1.1-.1.2-.1l.1.1.1.1.1.1.2.2.1.1.2.2.1.1.1.1s0 .1-.1.1v.1l.1.1.1-.1c.1-.1.1-.1.1-.2l.2-.2c.1-.1.1-.1.2-.1h-.1s-.1 0-.1.1l-.1.1-.2-.2-.1-.1-.3-.5-.3-.3-.1-.1-.1-.1s0-.1.1-.1c0 0 0-.1.1-.1l-.1.1c-.1.1-.1.2-.2.2l-.1.1-.3.3h.1zM41 31.4h.2s.1.1.2.1l.2.2.3.3.1.1.2.2.1.1s0 .1-.1.1v.1l.1-.1.2-.2.2-.2-.1-.1c-.1.1-.2.1-.2.2l-.2-.2-.2-.1-.1-.1s-.1 0-.1-.1l-.4-.4h2l.1-.1-.1-.1h-.1l.2-.1h-.1l-.1-.1-.1-.1-.4-.3-.1-.1c-.1-.1-.1-.1-.3-.2l-.1-.1V30l.1-.1v-.1l-.1-.1-.2.3-.2.2.1.1s.1 0 .1-.1c.1 0 .1-.1.1-.1s.1 0 .1.1c0 0 .1.1.2.1s.1.1.2.1c.1.1.1.1.2.1l.2.2.1.1h-2l-.1.1-.1.1-.1.1-.1.1-.1.1.1.1c.1.1.2 0 .2 0zM42.6 29.7s.1 0 0 0c.1-.1.1-.1.1-.2h.1l.4.3.1.1.1.1.3.3v.1s0 .1-.1.2v.1l.1.1v-.1l.1-.1.1-.1.1-.1.1-.1.1-.1.1-.1.2-.2c.1-.1.2-.3.2-.4V29c-.1-.2-.2-.3-.3-.4-.1-.1-.2-.2-.4-.2h-.4c-.1 0-.2.1-.4.2l-.3.3c-.2.2-.3.4-.4.5-.1.1-.1.2-.1.2l.2.1c0 .1 0 .1 0 0zm.6-.7c.1-.1.2-.2.3-.2h.4c.1 0 .3.1.4.2.1.1.2.2.2.3.1.1.1.2.1.3v.3s-.1.1-.1.2c-.1.1-.2.1-.3.2-.1 0-.2 0-.3-.1l-.1-.1-.2-.1-.1-.1-.1-.1-.2-.1-.2-.2c0-.4.1-.4.2-.5zM44.1 27.9l.1-.1.1-.1s.2.1.3.2c.1.1.2.1.2.2h.1l.1.1.1.1.3.2c.1 0 .1.1.1.1v.2-.1l.1-.1.1-.2s.1-.1.2-.3V28l-.1-.1s-.1.1-.2.1l-.1.1-.2-.2-.1.1s-.1 0-.1-.1c0 0 0-.1.1-.1 0-.1.1-.1.1-.1h.2c.2 0 .4.1.5.1H46.3v-.2l.1-.1s0-.1.1-.1l.1-.1s-.1 0-.1.1l-.1.1h-.9v-.3c0-.1-.1-.2-.2-.2-.1-.1-.2-.1-.4 0-.1 0-.3.1-.4.3-.1.1-.1.2-.2.3l-.1.2v.1l-.1.1c0 .1-.1.1-.1.1 0-.3 0-.3.1-.2zm.4-.6c.1-.1.1-.1.1-.2l.1-.1h.1c.1 0 .1 0 .2.1s.1.1.1.2 0 .2-.1.3l-.1.1c-.1 0-.1-.1-.1-.1l-.1-.1-.1-.1-.2-.1h.1c-.1.1 0 .1 0 0z"/><path class="st0" d="m45.2 26.3.1-.1.2.1.1.1.2.1.1.1.5.3h.1s.1 0 .1.1c0 0 0 .1-.1.2v.1l.1.1.1-.2v-.1c.1-.1.2-.3.2-.4.1-.2.2-.4.3-.5.1-.2.2-.3.3-.4 0 0 0-.1.1-.1l-.1-.1-.2-.2v.1c.1.1.1.2.1.3v.2c0 .1-.1.2-.2.3-.1.2-.2.3-.2.3h-.1l-.3-.2c-.1 0-.1-.1-.2-.2 0-.1.1-.2.2-.3.1-.1.1-.2.1-.2h.4l.1-.1s-.1 0-.1-.1l-.1-.1h-.1s-.1-.1-.2-.1c0 0-.1-.1-.2-.1v.1l.2.2v.1s0 .1-.1.1c0 .1-.1.2-.2.3v.1L46 26l-.2-.1c-.1-.1-.2-.1-.2-.2s.1-.2.2-.3c.1-.1.1-.2.2-.2 0 0 0-.1.1-.1 0 0 0-.1.1-.1h.4v-.1h-.1l-.3-.2h-.1c-.1.1-.1.2-.2.2l-.1.2c-.1.1-.2.3-.3.5-.1.1-.1.2-.1.2-.1.1-.1.2-.2.2l-.1.1.1.2zM46.3 24.6c.1 0 .1-.1 0 0l.2-.2s.1 0 .2.1h.1l.5.3.5.2.1.1v.2h.1c.1-.2.1-.2.1-.3 0-.1.1-.2.1-.2 0-.1.1-.1.1-.2h-.1v.1c-.1.1-.1.1-.2.1h-.2l-.4-.2-.6-.3h1.5l.1-.1-.1-.1-.3-.3-.1-.1s0-.1-.1-.1l-.6-.7s.1 0 .1.1l.5.2c.2.1.3.1.4.2h.1c.1 0 .1.1.1.1V23.8h.1c0-.1.1-.2.2-.4 0-.1.1-.2.1-.3.1-.1.1-.1.1-.2h-.1l-.2.2c-.1 0-.2-.1-.3-.1-.3-.2-.5-.2-.6-.3l-.4-.2V22.2v.1c0 .1-.1.1-.1.2s-.1.1-.1.2v.1l.1.1c.1.1.1.1.1.2.2.2.3.4.4.5 0 .1.1.1.2.2l.1.1h-1.3v.1l-.2.4c-.2.1-.2.1-.2.2zM64.9 40.1l.1-.1h.1l.1.1h.1l.2.1.2.2h.1l.3.2.1.1.1.1v.2l.1.1s0-.1.1-.1c0-.1.1-.2.1-.2l.1-.2c.1-.1.1-.1.1-.2h-.1l-.1.1-.1.1-.2-.2-.2-.1-.3-.2c-.1 0-.2-.1-.3-.2 0 0-.1 0-.1-.1 0 0-.1 0-.1-.1v-.2h-.1s0 .1-.1.1c-.1.1-.1.2-.1.2l-.1.1-.2.1.2.1zM65.6 39.1s.1 0 .1-.1h.1s.1 0 .2.1l.3.2.4.3h.1l.2.2.1.1s0 .1-.1.1v.1h.1V40s.1-.1.2-.3l.2-.2-.1-.1c-.1.1-.1.2-.2.2s-.2-.1-.2-.1l-.2-.1-.1-.1s-.1 0-.1-.1L66 39l.3-.1c.1 0 .3-.1.4-.1l.3-.1.3-.1.5-.1.2-.1.1-.1h-.4l-.2-.1h-.1l-.4-.3h-.1c-.1 0-.2-.1-.3-.2-.1 0-.1-.1-.1-.1h-.1V37.3h-.1v.1l-.2.3-.1.2h.1s.1 0 .1-.1.1-.1.1-.1h.1s.1 0 .2.1c.1 0 .1.1.2.1s.1.1.2.1.1.1.2.1l.1.1c-.8.2-1.3.3-1.4.3-.1 0-.3.1-.5.1v.2l-.1.1s0 .1-.1.1l-.1.1h.5zM67.6 37.4c.1 0 .2.1.3.1h.3c.1 0 .2-.1.3-.1.1 0 .1-.1.2-.2s.1-.2.2-.3c.1-.1.1-.3.1-.4v-.3h-.1c-.1-.1-.1-.1-.2-.1 0 0-.1 0-.1-.1v.1c.1.1.1.3.2.4v.3c0 .1-.1.2-.2.2s-.1.1-.2.1h-.3c-.1 0-.2 0-.3-.1-.3-.1-.4-.3-.5-.4-.1-.1-.1-.3 0-.4 0-.1.1-.2.2-.3.1-.1.2-.1.4-.1l.1-.1c-.1 0-.1 0-.2-.1h-.3c-.1.1-.1.2-.2.2-.1.1-.1.2-.2.3-.1.3-.1.5 0 .8.1.2.2.4.5.5zM69 35.4H69.3l.1-.1c0-.1 0-.1-.1-.2l-.1-.1h-.1l-.1.1c-.1.2-.1.2 0 .3-.1 0 0 0 0 0zM54 26.8s0 .1 0 0c.1 0 .1 0 .1-.1v-.1s0-.1.1-.1H54.5l.3.1H55.6V26.9h.1v-.3l.1-.3c0-.2.1-.3.1-.5s.1-.3.1-.3v-.4h-.1c-.2-.1-.3-.1-.4-.1v.1c.1 0 .1.1.2.1l.1.1s0 .1.1.1v.7h-.1l-.7-.1H54.3V25.7h-.1v.8c-.2.2-.2.3-.2.3z"/><path class="st0" d="M86.4 42.8c-.1-.3-.3-.4-.3-.4L84.6 41s.6-.4.8-.6c.2-.2.4-.5.4-.8 0-.2-.5-.4-.5-.4l-1.1-.2-.6-.1-1.5-.2h-.3l-3.5-3.2-8-5.4-.1-.1-.8-.6-6.2-3.3h-.1l-.3-.1-.2-.1-2.3-1.3-.4-.2-.3-.1h-.1L57 22.9l-.7-.3-.2-.1-.5-.2-2-.9-3.2-1.4-7.5-3-1.1-.4-7-2.5-4.8-1.5-1.4-.5v-.3l-.1-1H28v1.1l.3 2.8.6 4.3 1 5.4 1.4 6 2 6.1 2.7 5.9s3.5 5.3 3.5 5.4l.1.1 1.5 1.6s.8.6.9.7c.1.1 0 .2 0 .4s-.3.6-.3.8v.6c0 .2.1.5.2.7.1.1.5.6.5.6s1.6 1.5 1.9 1.5c.3 0 0-.5 0-.5h.2l.8.4.4.3c.1.1.2.2.2.4.1.2.1.5.1.5s.1.4.1.5c0 .2-.2.4-.3.5-.1.1-.1.2-.1.4 0 .1 0 .3-.1.4 0 .1-.1.3-.1.3l-18.2-.1s-.2.1-.2.3.2.2.2.2h8.6c-.3.4 0 .6 0 .6h-.2l-1.2-.1s-1.5-.1-2-.1-1.4.1-1.4.1l-.6.1s-.3.2-.3.5c-.1.3.2.2.2.2l-.8-.2-1.3-.1-1.3-.2-1.2-.1s-1-.2-1.5-.1c-.5 0-1.4.1-1.4.1l-.6.1-.5.1-.2.4s-.2 0 0 .5 1.9.8 1.9.8l.9.2 1.7.3 1 .2 1.1.2 1.3.2 3.6.4h.9s-.2 0 0 .3 5 .4 5.4 0c.3-.4 0-.8 0-.8s2.6.3 3.3.2c.7-.1 2.2-.2 2.3-.6.1-.4-.3-.5-.3-.5l-.1-.1 1.2.1s1.9.2 2.6.2c.7 0 1.7-.2 1.6-.9l1.1.4 24.1 10.1s.2.2.4 0-.2-.4-.2-.4-14.5-7.9-15.5-8.5c-.9-.5-3.3-1.7-4.2-1.9l-.1-.6 19-1.1s.2 0 .2-.3-.2-.2-.2-.2l-18.9.1-.2-2.5c.1 0 .2-.1.3-.1.5-.2 1.7-.3 2.1-.3.3 0 .5-.1.7-.3.2-.2 0-.6 0-.6l1-.3 5.7-1.8 5.6-2 5-2 4.1-1.9 3.4-1.6 2.9-1.4s.1-.1.1-.4zm-2.8-3.6.6.1.8.2s.2.1.3.2c.1.2-.2.4-.2.4l-.8.5-1.9-1.6 1.2.2zm-40.5 2.9c.2-.1.3-.2.4-.3.1-.2.4-.8.5-1.1.1-.3.1-.6 0-.9-.1-.3-.2-.9-.3-1.1-.2-.2-.5-.4-.5-.4s-.6-.4-1-.4-1.3.4-1.3.4-.3.1-.4.3-.4.5-.5.8c-.1.3-.1 1.3 0 1.7.1.4.5.8.5.8l.2.2h-.1s-.8-.1-1.2-.1c-.4 0-.6.6-.6.6l-.5-.7-3-5.7-2.4-5.9-1.9-6-1.3-5.3-.7-4.4-.3-2 13 4.6s1.4.5 1.6.8c.2.3.5.8.5.8s.3.4.3 1-.2 1.2-.3 1.6c-.1.4-.7 1.6-1 2-.2.4-1 1.4-1 1.4s-.7.9-1.3 1.5c-.6.6-2.4 2.1-2.9 2.6-.7.5-2.2 1.5-2.2 1.5s-.3.2-.2.4c.1.2.4 0 .4 0l.4-.2.4-.2 1.1-.6.8-.5c.2-.1 1.2-.8 1.6-1.1.6-.4 3.7-3.3 4.2-4 .5-.7 1.5-2.4 1.6-3 .1-.6.1-1.4.1-1.6 0-.2-.2-.4-.2-.4l-.1-.4h.3c.2 0 2.3.9 2.8 1.1.5.3.9 1 1 1.6.1.6 0 3.1-.8 4.3-.9 1.3-2.2 3.3-2.8 4.1-.6.8-1.8 1.9-2.3 2.3-.4.4-2.9 2.6-3.2 2.8l-.8.6s-.2.2-.1.3c.1.2.3.1.3.1l2.4-1.7s2-1.7 2.4-2.1c.6-.5 2-2 2-2l1.6-1.8s1.3-1.4 1.6-1.9c.4-.5 1-1.9 1.2-2.5.2-.5.3-1.3.3-1.3s.1-.5 0-.9c0-.2-.2-.5-.2-.5L51 21l4.7 2.2.1.1s.4.3.5.9c.2.5.2 1.5-.1 2.7s-1 2.6-1 2.6-.5 1-1 1.7-3 3.7-3 3.7l-2.6 2.8-1.4 1.3-.9.7-.2.2s-.2.2 0 .4c.1.2 1.2-.5 1.2-.5l1-.7 1.3-1.1 1.6-1.5 1.7-1.9s2.1-2.5 2.3-2.8c.2-.3 2-2.8 2.1-3.2.1-.3.9-1.6 1-3 .1-.4-.2-.9-.3-1.1v-.2l.8.4h.1l.4.2s2.1.9 2.6 1.5.8 1.2.9 1.7c.1.5 0 1.3 0 1.9 0 .6-.3 1.3-.3 1.3-.3.9-.6 1.9-.9 2.5-.6 1.4-2.1 3.3-3.3 4.7-.5.5-2.1 2.4-2.1 2.4l-1 1s-.2.2-.1.4.4-.1.4-.1l.3-.2 2.9-2.9 1.3-1.4s1.5-1.8 2.5-3.1 1.7-3 2-4c.3-.9.1-2.1.1-2.1V28l3.7 2.1 1 .6s.4.3.5.6.5 1.3.5 2c.1.7-.2 1.6-.4 2.2-.2.6-.6 2.3-2.2 4.5-.9 1.2-2.4 3.1-2.4 3.1s-.2.3 0 .4c.2.2.6-.2.6-.2s1.6-1.8 1.9-2.2c.3-.3 1.1-1.4 1.4-1.9.5-.8 2-3.2 2.5-4.5.5-1.4.1-2.2.1-2.2l5.6 3.8 5.4 5-.6.3-2.1.8-5.6 1.6-3.6.7-3.7.7-3.9.5-3.4.5-3.3.2-2.8.1-1-.1s.2-.3 0-.5-.7-.1-1 0c-.3.1-.5.4-.5.4h-.5s.2-.2 0-.2c-.2-.1-.6 0-.6 0s-.1-.1-.2-.1h-.5L49 46h-.3s-.2-.3-.3-.5c-.1-.2-.3-.3-.3-.3l-1.3-1.6s-.7-.5-.8-.6c-.1-.1-.3-.1-.3-.1l-.3-.2-.4-.3-1.1-.3h-.8zm7.7 4.8-.2.1-.3.2-.2.1h-.5l-.2-.2 1.1-.2h.3zm-4.7 5.7c-.2 0-.2-.1-.4 0s-.3.3-.4.3c-.1.1-.9.1-1.1 0-.7-.4-.1-1.1-.1-1.1s.2-.2.5-.2c.3-.1.7 0 .7 0s2.9.1 3 .2c.1.1-.3.3-.3.3l-.3.2-1.1.2c-.1 0-.3.1-.5.1zm4.4 5.4h-3.8l.1-.3s.3-.5.4-.7c.1-.2.3-.4.3-.4l.3-.4.3-.3c.1-.1.3-.3.3-.4.1-.1 0-.4 0-.4-.1-.3-.3-.4-.3-.6-.1-.1-.5-.4-.8-.6 0 0 1.1.2 1.5.1.3-.1.3-.5.3-.5s1.1-.1 1.6 0c.4.1 1.2.4 1.2.4l.4.3.3.6.4 1.3.3 1.2.3.7h-3.1zm32.6-14-3.4 1.5-4.3 1.7-5.1 1.7-5.6 1.9-5.7 1.7-3.7.9-.1-.2-.3-.8-.5-.5-.6-.5-.9-.4-3.6-.7s-.7-.2-1-.2c-.3 0-1.1-.1-1.4-.2-.3-.1-.5-.2-.5-.2s-.5-.2-.8-.4l-.6-.6s-.6-.6-.7-.9c-.1-.2-.2-1-.2-1v-.1s0 .1.2.1l.7.2s1 .3.8.2c-.2 0 .9.1.9.1h.1s.3.5.4.7c.1.1.8.7.8.7s.3.3.6.3c.2.1 1.1 0 1.3 0 .2 0 .4-.1.4-.1l.7-.5.4-.3.3-.3.5-.4.3-.2.3-.1 1 .1 2.9-.1 3.3-.2 3.4-.5 3.9-.5L71 45l3.6-.7 5.9-1.5 2.2-.8.7-.3 1.7 1.6-2 .7z"/></g></svg>