<svg version="1.1" id="Layer_1" xmlns="http://www.w3.org/2000/svg" x="0" y="0" width="792" height="612" style="enable-background:new 0 0 792 612" xml:space="preserve"><style>.st1{fill:#ff5300}.st2{fill:#53575a}</style><path d="M435.1 280.4c-.7-19.6-6.3-38-15.6-53.9h-16.8c13.4 16.6 21.7 37.5 22.6 60.5 1.3 34.1-14.3 65-39.2 84.6h9.9c25.1-22.2 40.5-55.1 39.1-91.2z" style="fill:#fff"/><path class="st1" d="M425.2 287.1c-.8-23-9.2-43.9-22.6-60.5H216.5v145.1H386c25-19.7 40.5-50.5 39.2-84.6zm-160.9 19.3h-13.1v51.8h-13.9v-51.8h-12.7v-11.9h39.7v11.9zm62 51.8h-13.1v-53.3l-13 53.3h-10.1l-11.9-53.3v53.3h-11.4v-63.7h20.5l9 39.4 10.1-39.4h19.9v63.7zm27.7-10.4c2.6 0 4.7-1 6.2-3 1.6-2.2 2.1-4.1 2.3-9.6H353v-11h22.2v34h-5.9l-1.9-7.3c-3.6 5.6-8.5 8.2-15.4 8.2-14.6 0-23.6-12.2-23.6-32.2 0-21.1 9.2-33.4 24.8-33.4 13.3 0 20 6.6 22 21.9l-12.7 2c-.7-5.5-1.5-7.8-3.2-9.9-1.3-1.6-3.4-2.6-5.7-2.6-7.1 0-10.3 7-10.3 21.7 0 14.8 3.2 21.2 10.7 21.2z"/><path class="st1" d="M435.1 280.4c1.3 36.1-14 69-39.2 91.2h179.6v-145h-156c9.3 15.9 14.9 34.2 15.6 53.8z"/><path class="st2" d="M224.6 306.4h12.7v51.8h13.9v-51.8h13.1v-11.9h-39.7zM296.3 333.8l-9-39.3h-20.5v63.7h11.3v-53.3l12 53.3h10.1l13-53.3v53.3h13.1v-63.7h-19.9zM353.6 304.9c2.3 0 4.4 1 5.7 2.6 1.7 2.1 2.6 4.4 3.2 9.9l12.7-2c-2-15.3-8.7-21.9-22-21.9-15.7 0-24.8 12.3-24.8 33.4 0 20 9 32.2 23.6 32.2 6.9 0 11.8-2.6 15.4-8.2l1.9 7.3h5.9v-34H353v11h9.5c-.2 5.5-.7 7.4-2.3 9.6-1.5 2-3.6 3-6.2 3-7.5 0-10.8-6.4-10.8-21.2.1-14.7 3.3-21.7 10.4-21.7zM222.8 215.3h5.1v-28.2h6.9v-4.7H216v4.7h6.8zM240.4 201.5h4.8l4.9 13.7h5.5l-5.9-14.9c1.3-.7 4.8-2.7 4.8-8.6 0-3.9-1.6-6.4-3.2-7.7-1.6-1.2-3.7-1.7-6.6-1.7h-9.3v32.9h5.1v-13.7zm0-14.9h4c1.1 0 5 0 5 5.1 0 3.2-1.4 5.6-5.1 5.6h-3.9v-10.7zM257 182.4h5.1v32.9H257zM281.9 213.7c2.4-1.4 3.5-4.7 3.5-7.6 0-3-1.1-5-2.1-6.2-1.2-1.2-2.3-1.6-3.4-2 1.4-.6 4.6-1.9 4.6-7.2 0-1.6-.3-3.9-1.8-5.8-1.9-2.6-5-2.6-8-2.6h-9.3v32.9h9.4c2.7.1 4.7 0 7.1-1.5zm-11.5-27.1h3.7c1.6 0 5.1 0 5.1 4.6 0 4.7-3.4 4.8-5.6 4.8h-3.2v-9.4zm0 24.4v-10.7h3.7c1.6 0 6.1 0 6.1 5.4 0 3.2-1.6 5.3-5.6 5.3h-4.2zM305.6 210.9h-12.7v-10.3h9.8v-4.4h-9.8v-9.4h12.5v-4.4h-17.6v32.9h17.8z"/><g><path class="st2" d="m320.2 187.2 7.2 28.1h3.7l7.3-28v28h4.8v-32.9h-7.3l-6.3 23.7-6.1-23.7h-7.6v32.9h4.3zM364.4 210.9h-12.8v-10.3h9.9v-4.4h-9.9v-9.4h12.6v-4.4h-17.7v32.9h17.9zM380.7 213.2c3.4-2.5 5.8-7.6 5.8-14.6 0-4.8-1.1-9-3.6-12.1-3-3.5-7.5-4-10.5-4h-6.9v32.9h7.3c2.8-.1 5.7-.6 7.9-2.2zm-10.1-2.2v-24.2h2.1c6.6 0 8.4 5.8 8.4 12.1 0 2.3-.2 7.2-3.1 10.1-.8.9-2.5 2-5.4 2h-2zM388.7 182.4h5.1v32.9h-5.1zM407.2 215.9c8.6 0 9.7-8.3 10.1-10.9l-4.7-.7c-.7 4.8-2 7.1-5.2 7.1-4.9 0-5.9-6.4-5.9-12.3 0-5.2.6-12.8 5.9-12.8 4.3 0 4.9 4.7 5.2 7.4l4.8-.7c-.4-2.8-1.4-11.2-10-11.2-10.3 0-11.3 11.9-11.3 17.1 0 5.5 1.1 17 11.1 17zM421 215.3l1.9-8.2h9l1.9 8.2h5.2l-8.2-32.9H425l-8.9 32.9h4.9zm6.4-27.6 3.5 15.1h-7l3.5-15.1zM455.9 210.7H445v-28.3h-5.1v32.9h16z"/></g><g><path class="st2" d="M475.8 215.9c4.9 0 6.6-3 7.4-4.5l.7 4.2h2.7v-17.1h-10.3v4.3h5.5c0 2.2 0 8.6-5.3 8.6-5.5 0-6.3-7-6.3-12.6 0-7.2 1.4-12.5 6.2-12.5 4 0 4.8 3.7 5.4 6.7l4.6-1.2c-.9-5.1-3-10-10.1-10-10.3 0-11.6 11.5-11.6 17.5 0 7 2.3 16.6 11.1 16.6zM494.5 201.5h4.8l4.9 13.7h5.5l-5.9-14.9c1.3-.7 4.8-2.7 4.8-8.6 0-3.9-1.6-6.4-3.2-7.7-1.6-1.2-3.7-1.7-6.6-1.7h-9.3v32.9h5.1v-13.7zm0-14.9h4c1.1 0 5 0 5 5.1 0 3.2-1.4 5.6-5.1 5.6h-3.9v-10.7zM521 215.9c9.6 0 11-10.2 11-17 0-7.7-1.9-17-11.1-17-9.3 0-11.1 9.5-11.1 17 0 7.6 1.9 17 11.2 17zm-4.6-26.2c.7-1.8 1.9-3.3 4.5-3.3 2.7 0 3.7 1.7 4.4 3.3 1.1 2.8 1.3 6.9 1.3 9.2 0 1.8-.1 6.3-1.3 9.2-.7 1.7-1.8 3.4-4.4 3.4-2.5 0-3.7-1.2-4.5-3.4-1.1-2.8-1.3-7.2-1.3-9.2.1-2 .2-6.4 1.3-9.2zM543.9 215.9c3.6 0 5.5-1.1 6.7-2 3.1-2.5 3.2-6.6 3.2-11.4v-20h-4.6v20.3c0 4.7 0 8.7-5 8.7-5.1 0-5.1-4.2-5.1-8.6v-20.4h-5v20.4c0 5.7.1 13 9.8 13zM562.1 202.5h2.6c2 0 5.4 0 7.7-1.7 2.9-2.1 3.5-6 3.5-8.3 0-2.4-.6-5.2-2.5-7.3-2.2-2.5-5.5-2.7-8.8-2.7H557v32.9h5.1v-12.9zm0-15.9h2.5c2.2 0 3.7 0 4.9 1.7 1 1.5 1.1 3.1 1.1 4 0 5.8-3.6 5.8-6 5.8h-2.5v-11.5z"/></g><g><path class="st2" d="M228.9 377.6c-.7-.4-1.3-.6-2-.7-.7-.1-1.8-.1-3.3-.1h-4.7l-2.9 17.4h3.2l1.2-7h4.2c1.3 0 2.3-.1 3.2-.4.9-.3 1.6-.9 2.3-1.8.7-.9 1-2 1-3.2 0-.9-.2-1.7-.6-2.5-.4-.7-.9-1.3-1.6-1.7zm-1.6 6c-.3.5-.7.8-1.1.9-.4.1-1.2.2-2.3.2h-3.1l.9-5.3h2.4c1.1 0 1.8.1 2.2.2.4.1.8.4 1.1.8.3.4.4.9.4 1.5s-.1 1.2-.5 1.7zM240.1 386.7c-.2 1.3-.4 2.2-.7 2.9-.3.6-.7 1.2-1.3 1.7-.6.5-1.2.7-1.8.7-.4 0-.8-.1-1-.4-.3-.2-.4-.6-.4-1 0-.2.1-.6.2-1.4l1.3-8h-2.8l-1.2 7.5c-.2 1.3-.3 2.2-.3 2.6 0 .8.3 1.5.8 2.2.5.7 1.3 1 2.3 1 1.8 0 3.3-1 4.4-3.1l-.5 2.8h2.6l2.2-12.9H241l-.9 5.4zM251 377.6l-2.6.2-.8 3.5h-1.9l-.4 2.3h1.9l-1 5.7c-.2 1.2-.3 1.9-.3 2.3 0 .8.3 1.4.8 2 .6.5 1.4.8 2.6.8.4 0 1-.1 1.8-.2l.4-2.4c-.4.1-.7.1-.9.1-1.2 0-1.8-.4-1.8-1.2 0-.2.1-.7.2-1.4l1-5.8h2.8l.4-2.3h-2.8l.6-3.6zM259.3 377.6l-2.6.2-.8 3.5H254l-.4 2.3h1.9l-1 5.7c-.2 1.2-.3 1.9-.3 2.3 0 .8.3 1.4.8 2 .6.5 1.4.8 2.6.8.4 0 1-.1 1.8-.2l.4-2.4c-.4.1-.7.1-.9.1-1.2 0-1.8-.4-1.8-1.2 0-.2.1-.7.2-1.4l1-5.8h2.8l.4-2.3h-2.8l.6-3.6zM261.9 394.2h3l2.1-12.9h-3zM264.3 379.8h3l.5-3.1h-3zM276.9 380.9c-.7 0-1.3.2-2 .6-.7.4-1.4 1.3-2.2 2.8l.5-3h-2.6l-2.2 12.9h2.9l1-5.8c.3-1.7.7-2.9 1.4-3.8.7-.9 1.4-1.3 2.3-1.3.5 0 1 .2 1.2.5.3.3.4.7.4 1.2 0 .4 0 .9-.1 1.5l-1.3 7.8h2.8l1.3-7.5c.2-1 .3-1.7.3-2.1 0-1.1-.3-2-1-2.7-1-.8-1.8-1.1-2.7-1.1zM292.4 397.5c1-.9 1.5-1.9 1.5-2.9 0-.6-.2-1.2-.6-1.8-.4-.5-.9-.9-1.6-1.2-.7-.2-1.8-.4-3.3-.4h-1.5c-.8 0-1.4-.1-1.7-.3-.3-.2-.4-.5-.4-.9 0-.7.4-1.2 1.2-1.6.9.2 1.8.4 2.5.4 1.8 0 3.1-.4 4.1-1.2.9-.8 1.4-1.8 1.4-3 0-1.4-.7-2.4-2-3.1.2-.7.6-1.1 1-1.2.4-.2.9-.2 1.4-.2.2 0 .5 0 1 .1V378c-.3 0-.6-.1-.9-.1-.9 0-1.7.2-2.3.7-.6.4-1.1 1.3-1.5 2.6-.4-.1-1-.2-1.6-.2-1.8 0-3.2.4-4.2 1.1-1 .7-1.5 1.8-1.5 3.1 0 1.1.5 2 1.5 2.7-1 .5-1.7 1-2 1.5-.3.5-.5 1-.5 1.7 0 .8.4 1.5 1.1 2-.7.4-1.2.7-1.5 1.2-.4.4-.5 1-.5 1.6 0 2 1.9 3 5.7 3 2.4-.1 4.2-.5 5.2-1.4zm-5.4-14c.5-.4 1.1-.7 2-.7 1.4 0 2.1.6 2.1 1.9 0 .8-.2 1.4-.7 1.8-.5.4-1.1.7-1.9.7-1.4 0-2.2-.7-2.2-2 0-.7.3-1.3.7-1.7zm-3.2 11.5c0-.5.3-.9.8-1.4.4.2 1.5.2 3.1.2s2.5.1 2.9.2c.4.1.6.4.6.9 0 1.3-1.2 2-3.6 2-1.3 0-2.2-.2-2.8-.6-.7-.3-1-.7-1-1.3z"/><g><path class="st2" d="M316.3 385c.7-.9 1-2 1-3.2 0-.9-.2-1.7-.6-2.5-.4-.7-.9-1.3-1.6-1.7-.7-.4-1.3-.6-2-.7-.7-.1-1.8-.1-3.3-.1h-4.7l-2.9 17.4h3.2l1.2-7h4.2c1.3 0 2.3-.1 3.2-.4.9-.3 1.7-.9 2.3-1.8zm-3.9-.5c-.4.1-1.2.2-2.3.2H307l.9-5.3h2.4c1 0 1.8.1 2.2.2.4.1.8.4 1.1.8.3.4.4.9.4 1.5 0 .7-.2 1.2-.5 1.7-.3.4-.7.7-1.1.9zM325.4 386.1c-2.8 0-4.8.4-6.1 1.3-1.3.9-1.9 2-1.9 3.5 0 1 .4 1.9 1.1 2.6.7.7 1.7 1.1 2.8 1.1 1 0 1.8-.3 2.6-.8.8-.6 1.4-1.3 1.8-2.3-.2.9-.2 1.6-.2 2.2v.6h2.8c0-.3-.1-.5-.1-.7 0-.6.2-2.1.6-4.4.4-2.2.6-3.6.6-4.1 0-1.2-.5-2.2-1.4-2.9-.9-.7-2.2-1.1-3.8-1.1-2.7 0-4.6 1.1-5.7 3.2l2.5.8c.6-1.2 1.6-1.8 3-1.8.7 0 1.3.2 1.8.5.5.4.7.9.7 1.6 0 .2 0 .5-.1.9-.3-.2-.7-.2-1-.2zm-.6 5c-.7.8-1.5 1.1-2.4 1.1-.6 0-1.1-.2-1.4-.5-.3-.3-.5-.7-.5-1.3 0-.9.4-1.6 1.3-2 .9-.5 2.4-.8 4.6-.9-.3 1.7-.9 2.9-1.6 3.6zM334.8 377.8l-.8 3.5h-1.9l-.4 2.3h1.9l-1 5.7c-.2 1.2-.3 1.9-.3 2.3 0 .8.3 1.4.8 2 .6.5 1.4.8 2.6.8.4 0 1-.1 1.8-.2l.4-2.4c-.4.1-.7.1-.9.1-1.2 0-1.8-.4-1.8-1.2 0-.2.1-.7.2-1.4l1-5.8h2.8l.4-2.3h-2.8l.6-3.7-2.6.3zM339.9 394.2h3l2.1-12.9h-2.9zM345.8 376.7h-3l-.5 3.1h3zM358.3 388.1v-1c0-1.9-.4-3.4-1.3-4.5s-2.2-1.6-3.9-1.6c-1.9 0-3.5.8-4.7 2.3-1.2 1.5-1.8 3.4-1.8 5.6 0 1.7.5 3.1 1.5 4.2 1 1 2.3 1.6 4 1.6 2.6 0 4.5-1.3 5.6-4l-2.5-.7c-.7 1.6-1.7 2.4-3.1 2.4-.9 0-1.5-.3-2-.9-.5-.6-.7-1.4-.7-2.4 0-.3 0-.6.1-1h8.8zm-5.1-5.2c1.7 0 2.5 1.1 2.5 3.3h-5.9c.5-2.2 1.6-3.3 3.4-3.3zM362.1 381.3l-2.2 12.9h2.8l1-5.8c.3-1.7.7-2.9 1.4-3.8.7-.9 1.4-1.3 2.3-1.3.5 0 .9.2 1.2.5.3.3.4.7.4 1.2 0 .4 0 .9-.1 1.5l-1.3 7.8h2.8l1.3-7.5c.2-1 .3-1.7.3-2.1 0-1.1-.3-2-1-2.7-.7-.6-1.5-1-2.4-1-.7 0-1.3.2-2 .6-.7.4-1.4 1.3-2.2 2.8l.5-3h-2.8zM377.2 377.8l-.8 3.5h-1.9l-.4 2.3h1.9l-1 5.7c-.2 1.2-.3 1.9-.3 2.3 0 .8.3 1.4.8 2 .6.5 1.4.8 2.6.8.4 0 1-.1 1.8-.2l.4-2.4c-.4.1-.7.1-.9.1-1.2 0-1.8-.4-1.8-1.2 0-.2.1-.7.2-1.4l1-5.8h2.8l.4-2.3h-2.8l.6-3.7-2.6.3z"/></g><g><path class="st2" d="M404.4 384.2c0-2.4-.6-4.4-1.8-5.8-1.2-1.4-2.8-2.1-4.9-2.1-2.5 0-4.5 1.1-6 3.2-1.5 2.2-2.2 4.6-2.2 7.2 0 2.4.6 4.3 1.9 5.7 1.3 1.4 2.9 2.2 4.7 2.2 2.5 0 4.5-1.1 6.1-3.2 1.5-2 2.2-4.5 2.2-7.2zm-4.5 5.1c-.8 1.9-2 2.8-3.7 2.8-1 0-1.8-.4-2.4-1.1-.7-.7-1-1.9-1-3.6 0-1.8.4-3.6 1.2-5.5.8-1.9 2-2.9 3.6-2.9 2.4 0 3.6 1.5 3.6 4.6-.1 1.9-.5 3.8-1.3 5.7zM410.6 381.3h-2.8l-1.2 7.5c-.2 1.3-.3 2.2-.3 2.6 0 .8.3 1.5.8 2.2.5.7 1.3 1 2.3 1 1.8 0 3.3-1 4.4-3.1l-.5 2.8h2.6l2.2-12.9h-2.8l-.9 5.5c-.2 1.3-.4 2.2-.7 2.9-.3.6-.7 1.2-1.3 1.7-.6.5-1.2.7-1.8.7-.4 0-.8-.1-1-.4-.3-.2-.4-.6-.4-1 0-.2.1-.6.2-1.4l1.2-8.1zM422.6 377.8l-.8 3.5h-1.9l-.4 2.3h1.9l-1 5.7c-.2 1.2-.3 1.9-.3 2.3 0 .8.3 1.4.8 2 .6.5 1.4.8 2.6.8.4 0 1-.1 1.8-.2l.4-2.4c-.4.1-.7.1-.9.1-1.2 0-1.8-.4-1.8-1.2 0-.2.1-.7.2-1.4l1-5.8h2.8l.4-2.3h-2.8l.6-3.7-2.6.3zM438.6 390.4l-2.4-.8c-.7 1.7-1.6 2.6-2.9 2.6-.7 0-1.2-.2-1.7-.7-.5-.5-.7-1.3-.7-2.4 0-1.5.3-2.8.9-3.9.6-1.1 1.4-1.7 2.4-1.7 1.3 0 2.2.8 2.5 2.5l2.4-.5c-.2-1.4-.8-2.6-1.7-3.3-.9-.8-2-1.2-3.4-1.2-1.8 0-3.3.8-4.4 2.3-1.2 1.5-1.8 3.4-1.8 5.4 0 1.8.5 3.3 1.4 4.3 1 1 2.2 1.5 3.7 1.5 2.7 0 4.5-1.4 5.7-4.1zM443.2 393.9c.9.4 1.8.6 2.8.6 1.9 0 3.5-.8 4.6-2.4 1.2-1.6 1.7-3.3 1.7-5.2 0-1.8-.5-3.3-1.5-4.4-1-1.1-2.3-1.6-3.9-1.6-2 0-3.5.8-4.8 2.3-1.2 1.5-1.8 3.3-1.8 5.3 0 1.3.2 2.4.7 3.3.6 1 1.3 1.7 2.2 2.1zm1-8.7c.5-1.3 1.4-1.9 2.6-1.9 1.7 0 2.6 1.1 2.6 3.4 0 1.3-.3 2.6-.8 3.7-.5 1.2-1.4 1.8-2.5 1.8-.7 0-1.4-.3-1.9-.8s-.8-1.3-.8-2.4c0-1.2.2-2.5.8-3.8zM470.5 380.9c-1.8 0-3.3 1-4.6 3.1-.3-2-1.4-3.1-3.4-3.1-.9 0-1.7.3-2.5.9-.8.6-1.3 1.4-1.7 2.4l.5-2.9H456l-2.2 12.9h2.9l.8-4.5c.4-2.7 1-4.5 1.8-5.3.7-.8 1.5-1.2 2.3-1.2 1.1 0 1.6.5 1.6 1.6 0 .3-.1.9-.2 1.8l-1.3 7.5h2.8l1-5.7c.6-3.5 1.8-5.2 3.7-5.2 1.2 0 1.8.6 1.8 1.7 0 .3-.1.7-.2 1.3l-1.3 7.8h3l1.2-7.3c.2-1.2.3-2 .3-2.5 0-1-.3-1.9-1-2.5-.6-.5-1.4-.8-2.5-.8zM488.1 388.1v-1c0-1.9-.4-3.4-1.3-4.5s-2.2-1.6-3.9-1.6c-1.9 0-3.5.8-4.7 2.3-1.2 1.5-1.8 3.4-1.8 5.6 0 1.7.5 3.1 1.5 4.2 1 1 2.3 1.6 4 1.6 2.6 0 4.5-1.3 5.6-4l-2.5-.7c-.7 1.6-1.7 2.4-3.1 2.4-.9 0-1.5-.3-2-.9-.5-.6-.7-1.4-.7-2.4 0-.3 0-.6.1-1h8.8zm-5.2-5.2c1.7 0 2.5 1.1 2.5 3.3h-5.9c.5-2.2 1.6-3.3 3.4-3.3zM496.1 391.9c-.4.3-1.1.5-1.8.5-1.5 0-2.6-.6-3.1-1.9l-2.7.7c.9 2.3 2.8 3.4 5.8 3.4 1.8 0 3.2-.4 4.2-1.2.9-.8 1.4-1.8 1.4-3.1 0-.7-.2-1.4-.6-1.9-.4-.6-.9-1-1.6-1.3-.7-.3-1.7-.7-3.1-1.1-.6-.2-1-.4-1.2-.6-.2-.2-.3-.5-.3-.8 0-.5.2-.8.6-1.1.4-.3.9-.4 1.5-.4 1.3 0 2.2.6 2.8 1.7l2.5-.8c-1-2-2.8-3.1-5.3-3.1-1.6 0-2.8.4-3.6 1.3-.9.8-1.3 1.8-1.3 2.9 0 .7.2 1.4.6 1.9.4.6.8 1 1.4 1.2.6.3 1.4.6 2.6.9.7.2 1.2.4 1.5.6.3.2.5.5.5.9-.1.5-.3.9-.8 1.3z"/></g><g><path class="st2" d="M513.9 379.6h7.5l.4-2.8h-10.6l-2.9 17.4h3.1l1.3-7.4h6.2l.4-2.5h-6.2zM521 394.2h3l2.2-12.9h-3zM523.5 379.8h2.9l.6-3.1h-3zM536.5 380.9h-.3c-1.9 0-3.4 1.3-4.5 3.9l.6-3.5h-2.6l-2.2 12.9h2.8l.8-4.9c.2-1.4.5-2.5.9-3.1.4-.6.8-1.1 1.5-1.5.6-.4 1.3-.6 2-.6h.6l.4-3.2zM541 383.5c.4-.3.9-.4 1.5-.4 1.3 0 2.2.6 2.8 1.7l2.5-.8c-1-2-2.8-3.1-5.3-3.1-1.6 0-2.8.4-3.6 1.3-.9.8-1.3 1.8-1.3 2.9 0 .7.2 1.4.6 1.9.4.6.9 1 1.4 1.2.6.3 1.4.6 2.6.9.7.2 1.2.4 1.5.6.3.2.5.5.5.9 0 .5-.2.9-.7 1.2-.4.3-1.1.5-1.8.5-1.5 0-2.6-.6-3.1-1.9l-2.7.7c.9 2.3 2.8 3.4 5.8 3.4 1.8 0 3.2-.4 4.2-1.2.9-.8 1.4-1.8 1.4-3.1 0-.7-.2-1.4-.6-1.9-.4-.6-.9-1-1.6-1.3-.7-.3-1.7-.7-3.1-1.1-.6-.2-1-.4-1.2-.6-.2-.2-.3-.5-.3-.8-.1-.4.1-.8.5-1zM554.8 377.6l-2.6.2-.8 3.5h-1.9l-.4 2.3h1.9l-1 5.7c-.2 1.2-.3 1.9-.3 2.3 0 .8.3 1.4.8 2 .6.5 1.4.8 2.6.8.4 0 1-.1 1.8-.2l.4-2.4c-.4.1-.7.1-.9.1-1.2 0-1.8-.4-1.8-1.2 0-.2.1-.7.2-1.4l1-5.8h2.8l.4-2.3h-2.8l.6-3.6zM557.2 394.2h3l.6-3.2h-3.1zM563.5 394.2h3l.5-3.2h-3zM569.7 394.2h3.1l.5-3.2h-3z"/></g><g><path class="st2" d="M284.6 425.5h3.2l2.9-17.4h-3.2zM300 412.2c-.7 0-1.3.2-2 .6-.7.4-1.4 1.3-2.2 2.8l.5-3h-2.6l-2.2 12.9h2.8l1-5.8c.3-1.7.7-2.9 1.4-3.8.7-.9 1.4-1.3 2.3-1.3.5 0 .9.2 1.2.5.3.3.4.7.4 1.2 0 .4 0 .9-.1 1.5l-1.3 7.8h2.9l1.3-7.5c.2-1 .3-1.7.3-2.1 0-1.1-.3-2-1-2.7-.9-.8-1.7-1.1-2.7-1.1zM312.1 425.5h11.3l.5-2.8h-8.2l.8-4.8h6.5l.5-2.6h-6.6l.8-4.5h7.9l.4-2.7h-11zM335.3 412.5l-4.2 9.1-1.7-9.1h-3.1l2.7 13h2.7l6.2-13zM344.1 412.2c-1.9 0-3.5.8-4.7 2.3-1.2 1.5-1.8 3.4-1.8 5.6 0 1.7.5 3.1 1.5 4.2 1 1 2.3 1.6 4 1.6 2.6 0 4.5-1.3 5.6-4l-2.5-.7c-.7 1.6-1.7 2.4-3.1 2.4-.9 0-1.5-.3-2-.9-.5-.6-.7-1.4-.7-2.4 0-.3 0-.6.1-1h8.9v-1c0-1.9-.4-3.4-1.3-4.5s-2.2-1.6-4-1.6zm-3.3 5.3c.5-2.2 1.6-3.3 3.4-3.3 1.7 0 2.5 1.1 2.5 3.3h-5.9zM360 412.2h-.3c-1.9 0-3.4 1.3-4.5 3.9l.6-3.5h-2.6l-2.2 12.9h2.8l.8-4.9c.2-1.4.5-2.5.9-3.1.3-.6.8-1.1 1.5-1.5.6-.4 1.3-.6 2-.6h.6l.4-3.2zM370.3 412.5l-4.3 8.9-2-8.9h-3l3.2 12.4-.5 1c-.3.7-.7 1.2-1.1 1.4-.4.3-.9.4-1.5.4s-1.2 0-1.7-.1l-.1 2.5c.6.1 1.1.1 1.5.1 1 0 1.8-.2 2.4-.5.6-.3 1.1-.7 1.4-1.2.3-.5.8-1.3 1.4-2.6l6.6-13.4h-2.3zM378.4 408.9l-2.6.2-.8 3.5h-2l-.4 2.3h1.9l-1 5.7c-.2 1.2-.3 1.9-.3 2.3 0 .8.3 1.4.8 2 .6.5 1.4.8 2.6.8.4 0 1-.1 1.8-.2l.4-2.4c-.4.1-.7.1-.9.1-1.2 0-1.8-.4-1.8-1.2 0-.2.1-.7.2-1.4l1-5.8h2.8l.4-2.3h-2.8l.7-3.6zM389.5 412.1c-1.6 0-2.9.9-4 2.6l1.1-6.7h-2.8l-2.9 17.4h2.8l1.1-6.4c.3-1.8.8-3 1.5-3.7.7-.6 1.4-1 2.2-1 1.1 0 1.7.6 1.7 1.7 0 .2-.1.8-.2 1.6l-1.3 7.6h2.8l1.3-7.6c.2-1.1.3-1.8.3-2.2 0-1.2-.3-2.1-1-2.6-.8-.4-1.7-.7-2.6-.7zM397.3 411h3l.5-3.1h-3zM394.9 425.5h3l2.1-13h-3zM409.9 412.2c-.7 0-1.3.2-2 .6-.7.4-1.4 1.3-2.2 2.8l.5-3h-2.6l-2.2 12.9h2.8l1-5.8c.3-1.7.7-2.9 1.4-3.8.7-.9 1.4-1.3 2.3-1.3.5 0 1 .2 1.2.5.3.3.4.7.4 1.2 0 .4 0 .9-.1 1.5l-1.3 7.8h2.8l1.3-7.5c.2-1 .3-1.7.3-2.1 0-1.1-.3-2-1-2.7-.9-.8-1.7-1.1-2.6-1.1zM425.3 409.8c-.6.4-1.1 1.3-1.5 2.6-.4-.1-1-.2-1.6-.2-1.8 0-3.2.4-4.2 1.1-1 .7-1.5 1.8-1.5 3.1 0 1.1.5 2 1.5 2.7-1 .5-1.7 1-2 1.5-.3.5-.5 1-.5 1.7 0 .8.4 1.5 1.1 2-.7.4-1.2.7-1.5 1.2-.4.4-.5 1-.5 1.6 0 2 1.9 3 5.7 3 2.6 0 4.4-.4 5.4-1.3s1.5-1.9 1.5-2.9c0-.6-.2-1.2-.6-1.8-.4-.5-.9-.9-1.6-1.2-.7-.2-1.8-.4-3.3-.4h-1.5c-.8 0-1.4-.1-1.7-.3-.3-.2-.4-.5-.4-.9 0-.7.4-1.2 1.2-1.6.9.2 1.8.4 2.5.4 1.8 0 3.1-.4 4.1-1.2.9-.8 1.4-1.8 1.4-3 0-1.4-.7-2.4-2-3.1.3-.7.6-1.1 1-1.2.4-.2.9-.2 1.4-.2.2 0 .5 0 1 .1v-2.2c-.3 0-.6-.1-.9-.1-1.2 0-2 .2-2.5.6zm-4.5 15.3c1.6 0 2.5.1 2.9.2.4.1.6.4.6.9 0 1.3-1.2 2-3.7 2-1.3 0-2.2-.2-2.8-.6-.6-.4-.9-.8-.9-1.4 0-.5.3-.9.8-1.4.4.2 1.4.3 3.1.3zm2.6-7.3c-.5.4-1.1.7-1.9.7-1.4 0-2.2-.7-2.2-2 0-.7.2-1.3.7-1.8.5-.4 1.1-.7 2-.7 1.4 0 2.1.6 2.1 1.9 0 .8-.2 1.4-.7 1.9z"/><g><path class="st2" d="m455.9 408.1-5.3 13.1-1.4-13.1h-3.1l-5.3 13.1-1.2-13.1h-3.3l2 17.5h3l5.4-13.1 1.5 13.1h3.1l7.3-17.5zM463.9 412.2c-1.9 0-3.5.8-4.7 2.3-1.2 1.5-1.8 3.4-1.8 5.6 0 1.7.5 3.1 1.5 4.2 1 1 2.3 1.6 4 1.6 2.6 0 4.5-1.3 5.6-4l-2.5-.7c-.7 1.6-1.7 2.4-3.1 2.4-.9 0-1.5-.3-2-.9-.5-.6-.7-1.4-.7-2.4 0-.3 0-.6.1-1h8.9v-1c0-1.9-.4-3.4-1.3-4.5-1-1.1-2.3-1.6-4-1.6zm-3.4 5.3c.5-2.2 1.6-3.3 3.4-3.3 1.7 0 2.5 1.1 2.5 3.3h-5.9z"/></g><g><path class="st2" d="M490.3 409.6c-.7-.6-1.4-1-2.1-1.2-.7-.2-1.7-.3-2.9-.3h-5.1l-2.9 17.4h6c1.5 0 2.7-.1 3.5-.3.8-.2 1.7-.7 2.5-1.5.9-.8 1.6-1.9 2.2-3.3.6-1.4.9-2.9.9-4.6 0-1.4-.2-2.6-.6-3.7-.3-1-.8-1.8-1.5-2.5zm-1.5 9.1c-.3 1.1-.7 1.9-1.2 2.5-.5.6-1 1-1.6 1.2-.6.2-1.3.4-2.2.4H481l2-12.2h1.9c1.1 0 1.9.2 2.5.5.6.3 1.1.9 1.4 1.6.3.8.5 1.6.5 2.6 0 1.2-.2 2.3-.5 3.4zM500.7 412.2c-2 0-3.5.8-4.8 2.3-1.2 1.5-1.8 3.3-1.8 5.3 0 1.3.2 2.4.7 3.3.5.9 1.2 1.6 2 2 .9.4 1.8.6 2.8.6 1.9 0 3.5-.8 4.6-2.4 1.2-1.6 1.7-3.3 1.7-5.2 0-1.8-.5-3.3-1.5-4.4-.8-.9-2.1-1.5-3.7-1.5zm1.5 9.5c-.5 1.2-1.4 1.8-2.5 1.8-.7 0-1.4-.3-1.9-.8s-.8-1.3-.8-2.4c0-1.3.3-2.5.8-3.8.5-1.3 1.4-1.9 2.6-1.9 1.7 0 2.6 1.1 2.6 3.4 0 1.2-.3 2.5-.8 3.7z"/></g></g></g></svg>