<svg version="1.1" id="Layer_1" xmlns="http://www.w3.org/2000/svg" x="0" y="0" width="2160" height="1440" style="enable-background:new 0 0 2160 1440" xml:space="preserve"><style>.st1{fill:#1a428a}</style><path d="M1174.7 645.3c-23 0-43.2 11.7-55.1 29.4l8.2-26.6-37.2-.2-22.5 82-25.5-82.2s-28.3-.3-32.9 0c-3.6 5.5-13.1 26.9-17.5 40.8s-8.8 39.1-8.8 39.1c-20.8-52-21.8-91.4-22-93.3-10.3 5.1-31.7 21.9-31.7 21.9 2.1 27.4 13.4 65 16.3 72.7 5.1 18 26.7 54.6 26.7 54.6h46.8c-7.8-37.3 4.8-88.4 4.8-88.4l27.6 88.4h34.1l22.3-72.4v.5s-3.4 16 5.1 34.7 30.7 39.1 61.3 39.1c30.6 0 43.9-9.7 57.8-24.7l-21.7-19.5s-14.1 14.3-30.3 13.7c-2.9 0-28.1 3-35.3-26.4h94.2c3.3-86.9-64.7-83.2-64.7-83.2zm-29.2 59.6c0-16 12.7-29 28.3-29s28.3 13 28.3 29h-56.6z" style="fill:#e43d30"/><path class="st1" d="M920.3 594.9s69.9-51 159.6-40c9.7 1 78.4 6 143.1 65.3l-1.3 25.1s-54.5-53.1-141.7-55.7c-9.3-.3-83.3-4-153.9 51.7-2.1-12.7-5.8-46.4-5.8-46.4zM978.6 794.6h43.3s38 43.3 61.8 56.8c5.5-3.5 45.3-33.3 63.3-59.5 0 0 19.8 6.8 40.3 5.3 0 0-43.3 60.7-103.3 89.6-.2-.1-62.2-27.9-105.4-92.2z"/></svg>