<svg version="1.1" id="Layer_1" xmlns="http://www.w3.org/2000/svg" x="0" y="0" width="627.3" height="180.7" style="enable-background:new 0 0 627.3 180.7" xml:space="preserve"><style>.st0{fill:#fdbb30}.st1{fill:#007dc3}</style><path class="st0" d="M539.7 68.6c3.3 0 6-1.7 6.3-3.9l3.2-36.5c0-3.6-4.2-6.6-9.5-6.6s-9.5 3-9.5 6.6l3.2 36.5c.4 2.2 3.1 3.9 6.3 3.9zM520 80c1.6-2.8 1.5-6-.2-7.4l-30-21.1c-3.1-1.8-7.8.4-10.5 5s-2.2 9.7.9 11.5l33.2 15.5c2.1.8 5-.7 6.6-3.5zM559.5 80c1.6 2.8 4.5 4.3 6.5 3.5L599.2 68c3.1-1.8 3.6-6.9.9-11.5s-7.4-6.8-10.5-5l-30 21.1c-1.6 1.4-1.7 4.6-.1 7.4zM539.7 114.2c3.3 0 6 1.7 6.3 3.9l3.2 36.5c0 3.6-4.2 6.6-9.5 6.6s-9.5-3-9.5-6.6l3.2-36.5c.4-2.2 3.1-3.9 6.3-3.9zM559.5 102.8c1.6-2.8 4.5-4.3 6.5-3.5l33.2 15.5c3.1 1.8 3.6 7 .9 11.6s-7.4 6.8-10.5 5l-30-21c-1.6-1.6-1.7-4.8-.1-7.6zM520 102.8c1.6 2.8 1.5 6-.2 7.4l-30 21c-3.1 1.8-7.8-.4-10.5-5s-2.2-9.7.9-11.6l33.2-15.5c2.1-.6 5 .9 6.6 3.7z"/><path class="st1" d="M366.8 95.6c0-13.8-5.9-25.9-25.8-25.9-10.2 0-18.3 2.9-22.8 5.4l3.2 11.1c4-2.6 10.5-4.7 16.6-4.7 10.1 0 11.8 5.7 11.8 9.4v.9c-22 0-35.9 7.6-35.9 23.1 0 9.5 7.1 18.4 19.4 18.4 7.6 0 13.9-3 17.7-7.9h.4s2.5 10.5 16.4 6.5c-.7-4.4-1-9-1-14.7V95.6zm-16.4 14.6c0 1.1-.1 2.3-.4 3.3-1.3 4.2-5.6 7.8-11.1 7.8-4.6 0-8.2-2.6-8.2-8 0-8.4 9.2-10.7 19.7-10.6v7.5zM23.9 50.9s14.4 58.9 16.7 68.5c2.7 11.2 7.5 15.3 21.4 12.5l9-36.5c2.3-9.1 3.8-15.5 5.3-24.8h.3c1 9.3 2.5 15.7 4.4 24.8 0 0 3.7 16.6 5.5 25.3 1.9 8.7 7.1 14.2 20.7 11.2l21.4-81h-17.3l-7.3 35c-2 10.2-3.7 18.2-5.1 27.5h-.2c-1.2-9.2-2.8-16.9-4.8-26.8l-7.6-35.7h-18L60 85.7c-2.3 10.6-4.5 19.1-5.8 28.1H54c-1.4-8.5-3.3-19.2-5.3-29.4 0 0-4.8-24.9-6.5-33.5H23.9zM177.6 95.6c0-13.8-5.9-25.9-25.8-25.9-10.2 0-18.3 2.9-22.8 5.4l3.2 11.1c4-2.6 10.5-4.7 16.6-4.7 10.1 0 11.8 5.7 11.8 9.4v.9c-22 0-35.9 7.6-35.9 23.1 0 9.5 7.1 18.4 19.4 18.4 7.6 0 13.9-3 17.7-7.9h.4s2.5 10.5 16.4 6.5c-.7-4.4-1-9-1-14.7V95.6zm-16.4 14.6c0 1.1-.1 2.3-.4 3.3-1.3 4.2-5.6 7.8-11.1 7.8-4.6 0-8.2-2.6-8.2-8 0-8.4 9.2-10.7 19.7-10.6v7.5zM205.1 114.7V50.9h-16.5v81h16.5zM420.3 50.9v59.8c0 8.2 1.6 14 4.9 17.5 2.9 3.1 7.7 5.1 13.4 5.1 4.9 0 9.6-.9 11.9-1.8l-.2-12.9c-1.7.4-3.6.7-6.2.7-5.6 0-7.5-3.6-7.5-11V85.6h14.3V70.1h-14.3V50.9h-16.3zM377.8 71.1V132h17v-31.2c0-1.7.1-3.1.4-4.5 1.3-6.5 6.2-10.7 13.4-10.7 2 0 3.4.2 4.9.4V70.1c-1.3-.3-2.2-.4-3.7-.4-6.3 0-13.5 4.1-16.6 12.9h-.5V71.1h-14.9zM216.6 71.1V132h16.5V96.2c0-1.7.2-3.4.8-5 1.4-3.6 4.7-7.8 10-7.8 6.7 0 9.8 5.6 9.8 13.8v34.7h16.5V95.8c0-1.6.2-3.5.7-4.9 1.4-4.1 5-7.4 9.9-7.4 6.8 0 10 5.5 10 15.1v33.3h16.5V96.1c0-18.9-9.6-26.4-20.4-26.4-4.8 0-8.6 1.2-12 3.3-2.9 1.8-5.5 4.3-7.7 7.6h-.2c-2.6-6.6-8.8-10.9-16.8-10.9-10.3 0-14.9 5.2-17.7 9.6h-.2V71h-15.7z"/><g><path class="st0" d="M606.3 128.2c1.6 0 2.9 1.3 2.9 2.8 0 1.6-1.3 2.8-2.9 2.8-1.6 0-2.9-1.2-2.9-2.8 0-1.5 1.3-2.8 2.9-2.8zm0 .6c-1.2 0-2.2 1-2.2 2.3 0 1.3.9 2.3 2.2 2.3 1.2 0 2.2-1 2.2-2.3 0-1.3-1-2.3-2.2-2.3zm-.5 3.7h-.7v-2.8c.3-.1.6-.1 1.1-.1.5 0 .8.1 1 .2.2.1.3.3.3.6s-.2.6-.6.7c.3.1.4.3.5.7.1.4.1.6.2.7h-.6c-.1-.1-.1-.3-.2-.7-.1-.3-.2-.4-.6-.4h-.3v1.1zm0-1.6h.3c.4 0 .7-.1.7-.4 0-.3-.2-.4-.6-.4h-.4v.8z"/></g></svg>