<svg version="1.1" id="Layer_1" xmlns="http://www.w3.org/2000/svg" x="0" y="0" width="432" height="145.7" style="enable-background:new 0 0 432 145.7" xml:space="preserve"><style>.st0{fill:#b3b5b8}.st1{fill:#fff}.st2{fill:#e1251b}</style><g id="XMLID_1_"><path d="M218.6 35.7H230V23.1h8.6V0h-60.3v23.1h8.7v12.6h11.5v14.7h-5.7v20.2h31.5V50.4h-5.7z"/><path class="st0" d="M179.9 1.5v20.1h14.4v-5.4h5.9l1.4-1.4v8.3h15.6v-6.9h5.7v5.4h14.3V1.5z"/><path class="st1" d="m222.9 21.6 1.3-1.6v-5.2l-1.3 1.4z"/><path class="st2" d="M181.5 3v17l5.5-5.4v-6h43l-5.8 6.2V20h11.7V3z"/><path class="st2" d="M201.6 23.1h7.1V8.6l-7.1 6.2z"/><path d="M215.8 23.1v-8.3h8.4l5.8-6.2h-21.3v14.5z"/><path d="M230 8.6v5.9l-5.8 5.5h11.7V3z"/><path class="st0" d="M197.4 34.2v-3h7l1.4-1.3H196v2.9h-5.9l-1.3 1.4zM212.9 31.2h2.9v22h5.7v14.5h-25.8l-1.3 1.4h28.5V51.9h-5.7V31.2h2.8v3h8.5V23.1l-1.3 1.3v8.4h-5.8v-2.9h-9.9v27.5h4.3v5.8h-14.2l-1.4 1.5h17v-8.6h-4.3z"/><path d="M196 29.9h9.8l2.8-2.7h-15.5v2.7l-3 2.9h5.9zM181.5 20l5.5-5.4v-6h21.7l-7.1 6.2h-8.7V20z"/><path class="st2" d="M190.1 32.8v-8.4h37.1l-2.8 2.8h-31.3v2.7zM215.8 57.4l-2.8 2.9h-4.4l2.9-2.9zM221.4 32.8v-2.9l3-2.7v2.7z"/><path class="st1" d="m179.9 21.6 1.6-1.6V3h54.4l1.3-1.5h-57.3zM200.2 16.2l1.4-1.4v8.3h26.9l-1.3 1.3h-37.1v8.4l-1.3 1.4V23.1h11.4zM221.4 29.9v2.9l-1.4 1.4v-3z"/><path class="st1" d="M201.6 31.2h-1.4v20.7h-5.8v17.2l1.3-1.4V53.2h5.9z"/><path class="st2" d="M212.9 56.1h4.3v1.2l4.3-4v-.1h-5.7z"/><path class="st1" d="m211.5 57.4 1.4-1.3h4.3l-1.4 1.3z"/><path class="st2" d="M205.8 29.9v27.6h-4.2v5.7l2.8-2.9h4.2V27.2z"/><path class="st2" d="M201.6 31.2v22h-5.9v14.5l4.5-4.6v-7h4.2V31.2z"/><path class="st1" d="m205.8 29.9-1.4 1.3v24.9h-4.2v8.6l1.4-1.5v-5.7h4.2z"/><path d="M228.3 67.3c.9 0 1.6.7 1.6 1.6 0 .9-.7 1.6-1.6 1.6-.9 0-1.7-.7-1.7-1.6.1-.9.8-1.6 1.7-1.6zm0 3.1c.8 0 1.3-.6 1.3-1.4 0-.8-.6-1.4-1.3-1.4-.8 0-1.4.6-1.4 1.4.1.7.7 1.4 1.4 1.4zm-.6-2.4h.7c.5 0 .7.2.7.5s-.2.5-.5.5l.5.8h-.3l-.5-.8h-.3v.8h-.3V68zm.3.8h.3c.3 0 .5 0 .5-.3s-.2-.3-.4-.3h-.4v.6z"/></g><path d="M12.2 90.7h18.9v5.1h-1.8l-.5-3.1-.5-.5h-5.1v18.9l.6.5 2.2.2v1.4h-8.7v-1.4l2.2-.2.6-.5V92.2H15l-.5.5-.5 3.1h-1.8v-5.1zM32.8 113.1v-1.4l1.9-.2.6-.5V92.7l-.6-.5-1.9-.2v-1.3h16v4.9H47l-.5-2.8-.5-.6h-7.7v8.4h5.5l.5-.5.3-2.4h1.6v7.4h-1.6l-.3-2.4-.5-.5h-5.5v9.4h9l.5-.5.6-3.4H50v5.4H32.8zM52 90.7h8V92l-2 .2-.3.4 4.4 6.9 4.7-6.7-.3-.4-2-.3v-1.3h6.9V92l-2.2.3-6.1 8.7 6.5 10.2 2.3.4v1.4h-8.5v-1.4l2.2-.2.4-.4-4.7-7.6-5.3 7.5.2.6 2.2.2v1.4h-7.1v-1.4l2.2-.4 6.7-9.4-6-9.5L52 92v-1.3zM82.4 90.4h2.2l8 20.9 2 .4v1.4H87v-1.4l2.1-.2.2-.5-2.4-6.4H79l-2.4 6.4.3.5 2.2.2v1.4h-6.6v-1.4l1.9-.4 8-20.9zm.5 3.5-3.3 9.3h6.7l-3.4-9.3zM96.3 112.4v-5.9h2l.4 3.8.4.6c.5.3 1 .4 1.7.6.6.1 1.3.2 2.1.2 1.6 0 2.8-.4 3.7-1.1.9-.7 1.4-1.7 1.4-2.9 0-.6-.1-1.1-.3-1.6-.2-.4-.5-.8-.9-1.1-.7-.5-1.8-1.1-3.5-1.8-.4-.2-.8-.3-1-.4-2.3-1-3.8-1.9-4.5-2.8-.7-.9-1.1-2-1.1-3.3 0-1.9.7-3.5 2.1-4.6 1.4-1.2 3.3-1.8 5.6-1.8.9 0 1.9.1 2.8.2.9.2 1.9.4 2.9.7v5.2h-1.7l-.5-3.2-.5-.6c-.4-.2-.9-.4-1.4-.5-.5-.1-1-.2-1.6-.2-1.4 0-2.5.4-3.3 1.1-.8.7-1.2 1.7-1.2 2.9 0 .9.3 1.7.9 2.3.6.6 1.8 1.3 3.8 2.1.2.1.5.2.9.3 1.9.8 3.3 1.5 4.1 2.4.5.5.8 1 1.1 1.6.2.6.4 1.3.4 2 0 2-.8 3.6-2.4 4.9-1.6 1.2-3.7 1.9-6.3 1.9-1.2 0-2.2-.1-3.3-.3-1-.1-2-.3-2.8-.7zM122 90.7h18.9v5.1h-1.8l-.5-3.1-.5-.5H133v18.9l.6.5 2.2.2v1.4h-8.7v-1.4l2.2-.2.6-.5V92.2h-5.1l-.5.5-.5 3.1H122v-5.1zM142.7 113.1v-1.4l1.9-.2.6-.5V92.7l-.6-.5-1.9-.2v-1.3h16v4.9h-1.9l-.5-2.8-.5-.5h-7.7v8.4h5.5l.5-.5.3-2.4h1.6v7.4h-1.6l-.3-2.4-.5-.5h-5.5v9.4h9l.5-.5.6-3.4h1.7v5.4h-17.2zM179.7 112.3c-1.1.4-2.2.7-3.4.9-1.1.2-2.3.3-3.4.3s-2.1-.1-3.1-.3c-1-.2-1.8-.6-2.6-1-1.8-1-3.2-2.4-4.2-4.3-1-1.8-1.5-3.8-1.5-6 0-3.5 1.1-6.3 3.2-8.4 2.1-2.1 4.9-3.2 8.4-3.2 1 0 2 .1 3.1.3 1.1.2 2.3.5 3.5.9v5.1h-1.9l-.5-3-.4-.6c-.6-.3-1.3-.5-1.9-.7-.6-.1-1.2-.2-1.9-.2-2.6 0-4.6.9-6 2.6-1.5 1.7-2.2 4.1-2.2 7.2 0 3 .8 5.4 2.3 7.2 1.6 1.8 3.7 2.7 6.4 2.7.5 0 1 0 1.4-.1l1.5-.3.5-.5.8-3.7h1.8v5.1zM181.9 90.7h8.1V92l-2.1.2-.6.5v7.9h11.5v-7.9l-.6-.5-2.1-.2v-1.3h8.1V92l-1.9.2-.6.5v18.4l.6.5 1.9.2v1.4h-8.1v-1.4l2.1-.2.6-.5v-9h-11.5v9l.6.5 2.1.2v1.4h-8.1v-1.4l1.9-.2.6-.5V92.7l-.6-.5-1.9-.2v-1.3zM214.8 90.7h8.2V92l-2.1.2-.6.5v12.1c0 2.3.5 4 1.4 5.1 1 1.1 2.5 1.6 4.5 1.6 2.1 0 3.6-.5 4.5-1.6 1-1.1 1.4-2.8 1.4-5.1V92.9l-.6-.6-2-.3v-1.3h7.1V92l-2 .3-.6.6V105c0 1.6-.1 2.8-.3 3.7-.2.8-.6 1.6-1.1 2.2-.7.8-1.6 1.4-2.8 1.9-1.2.4-2.6.7-4.1.7-1.5 0-2.9-.2-4.1-.7-1.2-.4-2.1-1.1-2.8-1.9-.5-.6-.9-1.4-1.1-2.3-.2-.9-.3-2.1-.3-3.6V92.7l-.6-.5-1.9-.2v-1.3zM238.4 113.1v-1.4l2-.3.6-.6V92.7l-.6-.5-2.1-.2v-1.3h6.3v.8l11.4 17.1V92.9l-.6-.6-2-.3v-1.3h7V92l-2 .3-.6.6v20.2h-2.2l-12.7-19v16.7l.6.6 2 .3v1.4h-7.1zM262.4 113.1v-1.4l2.1-.2.6-.5V92.7l-.6-.5-2.1-.2v-1.3h8.5V92l-2.1.2-.6.5v18.4l.6.5 2.1.2v1.4h-8.5zM272 90.7h7.8V92l-1.9.2-.4.5 6.3 16.8 6-16.8-.3-.5-2.1-.2v-1.3h6.6V92l-2.1.4-7.7 20.7H282l-7.8-20.7-2.2-.4v-1.3zM295.3 113.1v-1.4l1.9-.2.6-.5V92.7l-.6-.5-1.9-.2v-1.3h16v4.9h-1.9l-.5-2.8-.5-.5h-7.7v8.4h5.5l.5-.5.3-2.4h1.6v7.4H307l-.3-2.4-.5-.5h-5.5v9.4h9l.5-.5.6-3.4h1.7v5.4h-17.2zM314.4 90.7h8.5c2.7 0 4.8.5 6.1 1.5 1.3 1 2 2.5 2 4.5 0 1.4-.5 2.6-1.4 3.6-.9.9-2.2 1.6-4 2 .8.2 1.5.5 2.1.9.6.4 1 .8 1.3 1.4.4.6.7 1.5.9 2.6.3 1.2.5 1.9.6 2.3.3.9.8 1.5 1.4 1.9.6.3 1.6.5 3 .5h.3v1.3c-.5.1-1 .2-1.4.2-.4 0-.8.1-1.2.1-.8 0-1.5-.1-2-.2-.5-.2-1-.4-1.4-.7-.8-.7-1.5-2.1-2-4.1-.2-.7-.4-1.3-.5-1.6-.4-1.4-1-2.3-1.8-2.8s-1.9-.8-3.4-.8H319.8v7.9l.6.5 1.9.2v1.4h-7.9v-1.4l1.9-.2.6-.5V92.7l-.6-.5-1.9-.2v-1.3zm5.5 1.5v9.3h1.7c2.1 0 3.6-.4 4.6-1.1 1-.7 1.4-1.9 1.4-3.5 0-1.7-.5-2.9-1.4-3.6-1-.8-2.5-1.1-4.7-1.1h-1.6zM337 112.4v-5.9h2l.4 3.8.4.6c.5.3 1 .4 1.7.6.6.1 1.3.2 2.1.2 1.6 0 2.8-.4 3.7-1.1.9-.7 1.4-1.7 1.4-2.9 0-.6-.1-1.1-.3-1.6-.2-.4-.5-.8-.9-1.1-.7-.5-1.8-1.1-3.5-1.8-.4-.2-.8-.3-1-.4-2.3-1-3.8-1.9-4.5-2.8-.7-.9-1.1-2-1.1-3.3 0-1.9.7-3.5 2.1-4.6 1.4-1.2 3.3-1.8 5.6-1.8.9 0 1.9.1 2.8.2.9.2 1.9.4 2.9.7v5.2H349l-.5-3.2-.5-.6c-.4-.2-.9-.4-1.4-.5-.5-.1-1-.2-1.6-.2-1.4 0-2.5.4-3.3 1.1-.8.7-1.2 1.7-1.2 2.9 0 .9.3 1.7.9 2.3.6.6 1.8 1.3 3.8 2.1.2.1.5.2.9.3 1.9.8 3.3 1.5 4.1 2.4.5.5.8 1 1.1 1.6.3.6.4 1.3.4 2 0 2-.8 3.6-2.4 4.9-1.6 1.2-3.7 1.9-6.3 1.9-1.2 0-2.2-.1-3.3-.3-1-.1-1.9-.3-2.7-.7zM353.6 113.1v-1.4l2.1-.2.6-.5V92.7l-.6-.5-2.1-.2v-1.3h8.5V92l-2.1.2-.6.5v18.4l.6.5 2.1.2v1.4h-8.5zM363.9 90.7h18.9v5.1H381l-.5-3.1-.5-.5h-5.1v18.9l.6.5 2.3.2v1.4H369v-1.4l2.2-.2.6-.5V92.2h-5.1l-.5.5-.5 3.1h-1.8v-5.1zM383.8 90.7h7.8V92l-1.9.2-.3.4 5.1 9.2 5.6-8.9-.3-.5-2-.4v-1.3h6.8V92l-2 .4-6.9 11.1v7.5l.5.5 2.3.2v1.4h-8.6v-1.4l2.3-.2.5-.5v-7L386 92.3l-2-.3v-1.3z"/><g><path d="M0 122.9h8.1v1.3l-2.1.2-.6.5v7.9H17v-7.9l-.6-.5-2.1-.2v-1.3h8.1v1.3l-1.9.2-.6.5v18.4l.6.5 1.9.2v1.4h-8.1V144l2.1-.2.6-.5v-9H5.5v9l.6.5 2.1.2v1.4H0V144l1.9-.2.6-.5v-18.4l-.6-.5-1.9-.2v-1.3zM24.5 145.3v-1.4l1.9-.2.6-.5v-18.4l-.6-.5-1.9-.2v-1.3h16v4.9h-1.9l-.5-2.8-.5-.5h-7.7v8.4h5.5l.5-.5.3-2.4h1.6v7.4h-1.6l-.3-2.4-.5-.5h-5.5v9.4h9l.5-.5.6-3.4h1.7v5.4H24.5zM52.7 122.6h2.2l8 20.9 2 .4v1.4h-7.6v-1.4l2.1-.2.2-.5-2.4-6.4h-7.9l-2.4 6.4.3.5 2.2.2v1.4H43v-1.4l1.9-.4 7.8-20.9zm.5 3.5-3.3 9.3h6.7l-3.4-9.3zM66.1 145.3v-1.4l2.1-.2.6-.5v-18.4l-.6-.5-2.1-.2v-1.3h8.2v1.3l-1.9.2-.6.5v18.9h7.6l.5-.5.6-4h1.7v6.1H66.1zM81 122.9h18.9v5.1H98l-.5-3.1-.5-.5h-5v18.9l.6.5 2.2.2v1.4h-8.7V144l2.2-.2.6-.5v-18.9h-5.1l-.5.5-.5 3.1H81v-5.1zM101.6 122.9h8.1v1.3l-2.1.2-.6.5v7.9h11.5v-7.9l-.6-.5-2.1-.2v-1.3h8.1v1.3l-1.9.2-.6.5v18.4l.6.5 1.9.2v1.4h-8.1V144l2.1-.2.6-.5v-9H107v9l.6.5 2.1.2v1.4h-8.1V144l1.9-.2.6-.5v-18.4l-.6-.5-1.9-.2v-1.3zM135.8 144.6v-5.9h2l.4 3.8.4.6c.5.3 1 .4 1.7.6.6.1 1.3.2 2.1.2 1.6 0 2.8-.4 3.7-1.1.9-.7 1.4-1.7 1.4-2.9 0-.6-.1-1.1-.3-1.6-.2-.4-.5-.8-.9-1.1-.7-.5-1.8-1.1-3.5-1.8-.4-.2-.8-.3-1-.4-2.3-1-3.8-1.9-4.5-2.8-.7-.9-1.1-2-1.1-3.3 0-1.9.7-3.5 2.1-4.6 1.4-1.2 3.3-1.8 5.6-1.8.9 0 1.9.1 2.8.2.9.2 1.9.4 2.9.7v5.2h-1.7l-.5-3.2-.5-.6c-.4-.2-.9-.4-1.4-.5-.5-.1-1-.2-1.6-.2-1.4 0-2.5.4-3.3 1.1-.8.7-1.2 1.7-1.2 2.9 0 .9.3 1.7.9 2.3.6.6 1.8 1.3 3.8 2.1.2.1.5.2.9.3 1.9.8 3.3 1.5 4.1 2.4.5.5.8 1 1.1 1.6.2.6.4 1.3.4 2 0 2-.8 3.6-2.4 4.9-1.6 1.2-3.7 1.9-6.3 1.9-1.2 0-2.2-.1-3.3-.3-1.1-.1-2-.3-2.8-.7zM171 144.5c-1.1.4-2.2.7-3.4.9-1.1.2-2.3.3-3.4.3s-2.1-.1-3.1-.3c-1-.2-1.8-.6-2.6-1-1.8-1-3.2-2.4-4.2-4.3-1-1.8-1.5-3.8-1.5-6 0-3.5 1.1-6.3 3.2-8.4 2.1-2.1 4.9-3.2 8.4-3.2 1 0 2 .1 3.1.3 1.1.2 2.3.5 3.5.9v5.1h-1.9l-.5-3-.4-.6c-.6-.3-1.3-.5-1.9-.7-.6-.1-1.2-.2-1.9-.2-2.6 0-4.6.9-6 2.6-1.5 1.7-2.2 4.1-2.2 7.2 0 3 .8 5.4 2.3 7.2 1.6 1.8 3.7 2.7 6.4 2.7.5 0 1 0 1.4-.1l1.5-.3.5-.5.8-3.7h1.8v5.1zM173.3 145.3v-1.4l2.1-.2.6-.5v-18.4l-.6-.5-2.1-.2v-1.3h8.5v1.3l-2.1.2-.6.5v18.4l.6.5 2.1.2v1.4h-8.5zM183.8 145.3v-1.4l1.9-.2.6-.5v-18.4l-.6-.5-1.9-.2v-1.3h16v4.9H198l-.5-2.8-.5-.5h-7.7v8.4h5.5l.5-.5.3-2.4h1.6v7.4h-1.6l-.3-2.4-.5-.5h-5.5v9.4h9l.5-.5.6-3.4h1.7v5.4h-17.3zM202.9 145.3v-1.4l2-.3.6-.6v-18.1l-.6-.5-2.1-.2v-1.3h6.3v.8l11.4 17.1v-15.7l-.6-.6-2-.3v-1.3h7v1.3l-2 .3-.6.6v20.2h-2.2l-12.7-19V143l.6.6 2 .3v1.4h-7.1zM244.4 144.5c-1.1.4-2.2.7-3.4.9-1.1.2-2.3.3-3.4.3s-2.1-.1-3.1-.3c-1-.2-1.8-.6-2.6-1-1.8-1-3.2-2.4-4.2-4.3-1-1.8-1.5-3.8-1.5-6 0-3.5 1.1-6.3 3.2-8.4 2.1-2.1 4.9-3.2 8.4-3.2 1 0 2 .1 3.1.3 1.1.2 2.3.5 3.5.9v5.1h-1.9l-.5-3-.4-.6c-.6-.3-1.3-.5-1.9-.7-.6-.1-1.2-.2-1.9-.2-2.6 0-4.6.9-6 2.6-1.5 1.7-2.2 4.1-2.2 7.2 0 3 .8 5.4 2.3 7.2 1.6 1.8 3.7 2.7 6.4 2.7.5 0 1 0 1.4-.1l1.5-.3.5-.5.8-3.7h1.8v5.1zM246.6 145.3v-1.4l1.9-.2.6-.5v-18.4l-.6-.5-1.9-.2v-1.3h16v4.9h-1.9l-.5-2.8-.5-.5H252v8.4h5.5l.5-.5.3-2.4h1.6v7.4h-1.6l-.3-2.4-.5-.5H252v9.4h9l.5-.5.6-3.4h1.7v5.4h-17.2zM266.4 144.6v-5.9h2l.4 3.8.4.6c.5.3 1.1.4 1.7.6.6.1 1.3.2 2.1.2 1.6 0 2.8-.4 3.7-1.1.9-.7 1.4-1.7 1.4-2.9 0-.6-.1-1.1-.3-1.6-.2-.4-.5-.8-.9-1.1-.7-.5-1.8-1.1-3.5-1.8-.4-.2-.8-.3-1-.4-2.3-1-3.8-1.9-4.5-2.8-.7-.9-1.1-2-1.1-3.3 0-1.9.7-3.5 2.1-4.6 1.4-1.2 3.3-1.8 5.6-1.8.9 0 1.9.1 2.8.2.9.2 1.9.4 2.9.7v5.2h-1.7l-.5-3.2-.5-.6c-.4-.2-.9-.4-1.4-.5-.5-.1-1-.2-1.6-.2-1.4 0-2.5.4-3.3 1.1-.8.7-1.2 1.7-1.2 2.9 0 .9.3 1.7.9 2.3.6.6 1.8 1.3 3.8 2.1.2.1.5.2.9.3 1.9.8 3.3 1.5 4.1 2.4.5.5.8 1 1.1 1.6.2.6.4 1.3.4 2 0 2-.8 3.6-2.4 4.9-1.6 1.2-3.7 1.9-6.3 1.9-1.2 0-2.2-.1-3.3-.3-1.1-.1-2-.3-2.8-.7zM311.2 144.5c-1.1.4-2.2.7-3.4.9-1.1.2-2.3.3-3.4.3s-2.1-.1-3.1-.3c-1-.2-1.8-.6-2.6-1-1.8-1-3.2-2.4-4.2-4.3-1-1.8-1.5-3.8-1.5-6 0-3.5 1.1-6.3 3.2-8.4 2.1-2.1 4.9-3.2 8.4-3.2 1 0 2 .1 3.1.3 1.1.2 2.3.5 3.5.9v5.1h-1.9l-.5-3-.4-.6c-.6-.3-1.3-.5-1.9-.7-.6-.1-1.2-.2-1.9-.2-2.6 0-4.6.9-6 2.6-1.5 1.7-2.2 4.1-2.2 7.2 0 3 .8 5.4 2.3 7.2 1.6 1.8 3.7 2.7 6.4 2.7.5 0 1 0 1.4-.1l1.5-.3.5-.5.8-3.7h1.8v5.1zM313.4 145.3v-1.4l1.9-.2.6-.5v-18.4l-.6-.5-1.9-.2v-1.3h16v4.9h-1.9l-.5-2.8-.5-.5h-7.7v8.4h5.5l.5-.5.3-2.4h1.6v7.4h-1.6l-.3-2.4-.5-.5h-5.5v9.4h9l.5-.5.6-3.4h1.7v5.4h-17.2zM332.5 145.3v-1.4l2-.3.6-.6v-18.1l-.6-.5-2.1-.2v-1.3h6.3v.8l11.4 17.1v-15.7l-.6-.6-2-.3v-1.3h7v1.3l-2 .3-.6.6v20.2h-2.2l-12.7-19V143l.6.6 2 .3v1.4h-7.1zM356.1 122.9H375v5.1h-1.8l-.5-3.1-.5-.5h-5.1v18.9l.6.5 2.3.2v1.4h-8.7V144l2.2-.2.6-.5v-18.9H359l-.5.5-.5 3.1h-1.8v-5.1zM376.8 145.3v-1.4l1.9-.2.6-.5v-18.4l-.6-.5-1.9-.2v-1.3h16v4.9h-1.9l-.5-2.8-.5-.5h-7.7v8.4h5.5l.5-.5.3-2.4h1.6v7.4h-1.6l-.3-2.4-.5-.5h-5.5v9.4h9l.5-.5.6-3.4h1.7v5.4h-17.2zM395.9 122.9h8.5c2.7 0 4.8.5 6.1 1.5 1.3 1 2 2.5 2 4.5 0 1.4-.5 2.6-1.4 3.6-.9.9-2.2 1.6-4 2 .8.2 1.5.5 2.1.9.6.4 1 .8 1.3 1.4.4.6.7 1.5.9 2.6.3 1.2.5 1.9.6 2.3.3.9.8 1.5 1.4 1.9.6.3 1.6.5 3 .5h.3v1.3c-.5.1-1 .2-1.4.2-.4 0-.8.1-1.2.1-.8 0-1.5-.1-2-.2-.5-.2-1-.4-1.4-.7-.8-.7-1.5-2.1-2-4.1-.2-.7-.4-1.3-.5-1.6-.4-1.4-1-2.3-1.8-2.8s-1.9-.8-3.4-.8c-.3 0-.8 0-1.6.1h-.1v7.9l.6.5 1.9.2v1.4h-7.9v-1.4l1.9-.2.6-.5v-18.4l-.6-.5-1.9-.2v-1.5zm5.5 1.5v9.3h1.7c2.1 0 3.6-.4 4.6-1.1 1-.7 1.4-1.9 1.4-3.5 0-1.7-.5-2.9-1.4-3.6-1-.7-2.5-1.1-4.7-1.1h-1.6z"/></g><g><path d="M422 145.4v-5.7h-2.1v-.7h5.1v.8h-2.1v5.7h-.9zM425.9 145.4V139h1.3l1.5 4.6c.1.4.2.7.3 1 .1-.2.2-.6.3-1l1.5-4.5h1.1v6.4h-.8V140l-1.9 5.4h-.8l-1.9-5.5v5.5h-.6z"/></g></svg>