<svg version="1.1" id="Layer_1" xmlns="http://www.w3.org/2000/svg" x="0" y="0" width="612" height="792" style="enable-background:new 0 0 612 792" xml:space="preserve"><style>.st0{fill:#1d8649}.st1{fill:#185a7d}.st2{fill:#80bc00}.st3{fill:#76777a}.st4{fill:#8fc225}.st5{fill:#636569}.st6{fill:#4f7e3d}.st7{fill:#1f8ccb}.st8{fill:#fff}</style><path class="st0" d="M54.2 150.9v-26.6h20.9v5.2H60.3v5.4h13v5.2h-13v5.6h15v5.2H54.2zM89.6 150.9v-2.2c-1.5 1.6-3.5 2.6-6.4 2.6-4 0-7.3-2.2-7.3-6.2v-.1c0-4.4 3.5-6.5 8.5-6.5 2.1 0 3.7.3 5.2.8v-.3c0-2.4-1.5-3.7-4.5-3.7-2.3 0-3.9.4-5.8 1.1l-1.5-4.4c2.3-1 4.6-1.6 8.2-1.6 6.6 0 9.4 3.3 9.4 8.8V151h-5.8zm.1-8.2c-1-.5-2.4-.8-3.8-.8-2.6 0-4.1 1-4.1 2.8v.1c0 1.6 1.3 2.5 3.3 2.5 2.8 0 4.7-1.5 4.7-3.6v-1zM104.7 151.2c-3.7 0-6.2-1.4-6.2-6.1v-9.6H96v-4.9h2.5v-5.2h6v5.2h5v4.9h-5v8.7c0 1.3.6 2 1.9 2 1.1 0 2.1-.3 3-.7v4.6c-1.2.7-2.7 1.1-4.7 1.1z"/><path class="st1" d="M125.2 151.3c-4.2 0-8.4-1.4-11.7-4.3l3.6-4.1c2.5 2 5.1 3.2 8.3 3.2 2.5 0 4-.9 4-2.5v-.1c0-1.5-.9-2.2-5.6-3.4-5.6-1.4-9.2-2.8-9.2-8.1v-.1c0-4.8 4-8 9.7-8 4 0 7.5 1.2 10.3 3.4l-3.2 4.4c-2.4-1.6-4.9-2.6-7.2-2.6s-3.6 1-3.6 2.3v.1c0 1.7 1.2 2.3 6 3.5 5.6 1.4 8.8 3.3 8.8 8v.1c-.1 5.2-4.3 8.2-10.2 8.2zM164.3 150.9v-11.3c0-2.7-1.3-4.1-3.5-4.1-2.3 0-3.6 1.4-3.6 4.1v11.3h-6v-11.3c0-2.7-1.3-4.1-3.5-4.1-2.3 0-3.6 1.4-3.6 4.1v11.3h-6v-20.3h6v2.9c1.4-1.7 3.2-3.3 6.2-3.3 2.8 0 4.9 1.2 6 3.2 1.9-2.1 4.1-3.2 7-3.2 4.5 0 7.1 2.6 7.1 7.5v13.2h-6.1zM185.9 150.9v-2.2c-1.5 1.6-3.5 2.6-6.4 2.6-4 0-7.3-2.2-7.3-6.2v-.1c0-4.4 3.5-6.5 8.5-6.5 2.1 0 3.7.3 5.2.8v-.3c0-2.4-1.5-3.7-4.5-3.7-2.3 0-3.9.4-5.8 1.1l-1.5-4.4c2.3-1 4.6-1.6 8.2-1.6 6.6 0 9.4 3.3 9.4 8.8V151h-5.8zm.1-8.2c-1-.5-2.4-.8-3.8-.8-2.6 0-4.1 1-4.1 2.8v.1c0 1.6 1.3 2.5 3.3 2.5 2.8 0 4.7-1.5 4.7-3.6v-1zM207.4 136.2c-4 0-6.4 2.3-6.4 7.2v7.5h-6v-20.3h6v4.1c1.2-2.8 3.2-4.6 6.8-4.5v6h-.4zM218.2 151.2c-3.7 0-6.2-1.4-6.2-6.1v-9.6h-2.5v-4.9h2.5v-5.2h6v5.2h5v4.9h-5v8.7c0 1.3.6 2 1.9 2 1.1 0 2.1-.3 3-.7v4.6c-1.2.7-2.7 1.1-4.7 1.1zM203.5 178.9l2.2-17.2-9.2 11.3h-.2l-6.3-11.1-2.2 17.1h-6l3.4-26.4h6.6l5.8 11.1 8.7-11.2h6.6l-3.4 26.4h-6zM223 179.3c-6.6 0-10.8-4.6-10.1-10.4v-.1c.8-5.8 6.3-10.5 12.8-10.5 6.6 0 10.8 4.6 10.1 10.4v.1c-.7 5.8-6.2 10.5-12.8 10.5zm6.9-10.5c.4-3-1.5-5.6-4.8-5.6-3.4 0-5.8 2.5-6.2 5.5v.1c-.4 3 1.5 5.6 4.8 5.6 3.4 0 5.8-2.5 6.2-5.6zM250.4 164.2c-4 0-6.7 2.3-7.4 7.1l-1 7.5h-6l2.6-20.2h6l-.5 4.1c1.6-2.8 3.8-4.6 7.3-4.5l-.8 6h-.2zM269.8 170.6l-14.7.1c.3 2.6 2 3.9 4.7 3.9 2 0 3.6-.6 5.4-2.1l3.1 2.9c-2.3 2.3-5.3 3.8-9.1 3.8-6.4 0-10.5-4.2-9.7-10.4v-.1c.7-5.8 5.7-10.5 11.8-10.5 7.1 0 9.6 5.2 8.9 10.9v.1c-.2.6-.3.9-.4 1.4zm-9.2-7.8c-2.5 0-4.3 1.7-5.1 4.3h9c0-2.6-1.4-4.3-3.9-4.3z"/><path class="st0" d="m106.6 179 2.2-17.2-9.2 11.2h-.2l-6.3-11.1L91 179h-6l3.4-26.4H95l5.8 11.1 8.7-11.2h6.6l-3.4 26.4-6.1.1zM126.2 179.3c-6.6 0-10.8-4.6-10.1-10.4v-.1c.7-5.8 6.3-10.5 12.8-10.5 6.6 0 10.8 4.6 10.1 10.4v.1c-.7 5.8-6.3 10.5-12.8 10.5zm6.9-10.5c.4-3-1.5-5.6-4.8-5.6-3.4 0-5.8 2.5-6.2 5.5v.1c-.4 3 1.5 5.6 4.8 5.6 3.4 0 5.8-2.5 6.2-5.6zM149.9 179h-5.5l-5.7-20.3h6.4l3 13.5 6.5-13.5h6.2L149.9 179zM178.4 170.6l-14.7.1c.3 2.6 2 3.9 4.7 3.9 2 0 3.6-.6 5.4-2.1l3.1 2.9c-2.3 2.3-5.3 3.8-9.1 3.8-6.4 0-10.5-4.2-9.7-10.4v-.1c.7-5.8 5.7-10.5 11.8-10.5 7.1 0 9.6 5.2 8.9 10.9v.1c-.2.6-.3.9-.4 1.4zm-9.2-7.8c-2.5 0-4.3 1.7-5.1 4.3h9c0-2.6-1.4-4.3-3.9-4.3z"/><path transform="rotate(-180 305.629 827.386)" class="st2" d="M-.4 810.4h612v34.1H-.4z"/><path class="st2" d="M-.4 53.3h612v7.2H-.4z"/><path class="st3" d="M-.4 58.9h612v3.5H-.4z"/><path class="st4" d="M331.7 16.5c1.3 0 2.6.2 3.7.6 1.1.4 2.1 1.1 3 1.9.8.8 1.5 1.9 2 3.2.5 1.3.7 2.8.7 4.5 0 1.5-.2 2.9-.6 4.2-.4 1.3-1 2.4-1.8 3.3-.8.9-1.8 1.7-2.9 2.2-1.2.5-2.5.8-4.1.8h-8.9V16.5h8.9zm-.4 16.9c.7 0 1.3-.1 1.9-.3.6-.2 1.2-.6 1.6-1.1.5-.5.9-1.1 1.2-1.9.3-.8.4-1.8.4-2.9 0-1-.1-2-.3-2.8-.2-.8-.5-1.6-1-2.2-.5-.6-1.1-1.1-1.8-1.4-.8-.3-1.7-.5-2.8-.5h-3.2v13h4zM357.9 16.5v3.8H347v4.4h10v3.5h-10v5.1h11.1v3.8h-15.7V16.5h15.5zM372.1 16.5l7.7 20.6h-4.7l-1.6-4.6h-7.7l-1.6 4.6h-4.6l7.8-20.6h4.7zm.2 12.7-2.6-7.6h-.1l-2.7 7.6h5.4zM383.8 32c.3.5.6.9 1 1.2.4.3.9.5 1.5.7.6.1 1.1.2 1.7.2.4 0 .8 0 1.3-.1s.9-.2 1.3-.4.7-.5 1-.8c.3-.3.4-.8.4-1.3 0-.6-.2-1-.5-1.4-.4-.3-.8-.6-1.4-.9-.6-.2-1.2-.4-2-.6-.7-.2-1.5-.4-2.2-.6-.8-.2-1.5-.4-2.3-.7-.7-.3-1.4-.6-2-1.1-.6-.4-1-1-1.4-1.7-.4-.7-.5-1.5-.5-2.4 0-1.1.2-2 .7-2.8.5-.8 1-1.4 1.8-2 .7-.5 1.6-.9 2.5-1.2.9-.2 1.9-.4 2.8-.4 1.1 0 2.1.1 3.1.4 1 .2 1.9.6 2.6 1.2.8.5 1.4 1.2 1.8 2.1.5.8.7 1.9.7 3.1h-4.4c0-.6-.2-1.1-.4-1.5-.2-.4-.5-.7-.9-1-.4-.2-.8-.4-1.3-.5-.5-.1-1-.1-1.5-.1-.4 0-.7 0-1.1.1-.4.1-.7.2-1 .4-.3.2-.5.4-.7.7-.2.3-.3.7-.3 1.1 0 .4.1.7.2 1 .2.2.5.5.9.7.5.2 1.1.4 1.9.6.8.2 1.8.5 3.1.8.4.1.9.2 1.6.4.7.2 1.4.5 2 1 .7.4 1.3 1 1.8 1.8.5.7.7 1.7.7 2.8 0 .9-.2 1.8-.5 2.6-.4.8-.9 1.5-1.6 2.1-.7.6-1.6 1-2.7 1.4-1.1.3-2.3.5-3.7.5-1.1 0-2.2-.1-3.3-.4-1.1-.3-2-.7-2.8-1.3-.8-.6-1.5-1.4-2-2.3-.5-.9-.7-2-.7-3.3h4.4c0 .8.1 1.4.4 1.9zM320.6 16.6l-.4 20.6H316l-.7-20.6h5.3zM320.7 42.6c0 1.5-1.2 2.8-2.8 2.8-1.5 0-2.8-1.2-2.8-2.8 0-1.5 1.2-2.8 2.8-2.8 1.5 0 2.8 1.2 2.8 2.8z"/><path class="st3" d="M252 11.7c0 1.5-1.2 2.8-2.8 2.8-1.5 0-2.8-1.2-2.8-2.8 0-1.5 1.2-2.8 2.8-2.8 1.6 0 2.8 1.3 2.8 2.8zM231.7 18.9c-2.2-1.6-4.3-2.4-6.3-2.4h-.4c-1.3 0-2.4.2-3.5.5-1 .3-1.9.8-2.7 1.3V9.9h-4.2v27.2h4.2v-1.9c1.8 1.2 3.7 1.9 5.6 1.9h.4c1.5 0 3-.2 4.3-.7 2.5-1.1 4.2-2.6 5.1-4.6.8-1.3 1.2-3 1.2-4.9 0-1.7-.2-3.1-.7-4.1-.6-1.4-1.6-2.6-3-3.9zm-.7 7.9c0 1-.3 2.1-.8 3.2-1.3 2-3 2.9-5.3 2.9-.7 0-1.4-.1-2-.2-2.8-1.1-4.1-2.8-4.1-5.6v-.6c0-1.2.4-2.4 1.3-3.5.3-.2.4-.4.6-.6 1.3-1 2.7-1.5 4.2-1.5.7 0 1.5.2 2.4.5.3.1 1 .4 2.2 1.5 1 1.1 1.5 2.5 1.5 3.9zM240.6 17.3v-.9h-4.2v20.7h4.2V24.7c0-1.6.3-2.2.5-2.5.7-1.1 1.6-1.5 3-1.5h1.5v-4.2H244c-1.2 0-2.3.3-3.4.8zM247.1 16.4h4.2v20.7h-4.2zM292.4 18.5c-2.2-1.4-4.2-2.1-6.1-2.1h-.2c-1.8 0-3.3.3-4.5.9-.7.3-1.3.6-1.9 1V9.9h-4.2v27.3h4.2v-9.6c0-2.1.4-3.7 1.3-4.7l.5-.5c1.4-1.1 2.8-1.6 4.3-1.6 1.3.1 2 .2 2.3.3 2.7 1.1 3.9 3 3.9 5.9v10.2h4.2v-10c0-2.1-.3-3.6-.8-4.6-.4-1.4-1.5-2.8-3-4.1zM308.6 32.9c-1.3 0-2.6-.4-3.9-1.2-1.5-1.4-1.9-2.1-2-2.4-.4-1.1-.7-2.1-.7-2.9v-5.8h7.7v-4.2H302V9.9h-4.2v15.9c0 3.1.9 5.7 2.8 7.9 2.2 2.3 5 3.4 8.2 3.4h1.5v-4.2h-1.7zM269.5 19.3c-1.9-1.3-3.9-1.9-6-1.9-2.9 0-5.4 1-7.6 2.9l-.1.1c-.9 1-1.5 1.9-2 2.8-.7 1.8-1 3.3-1 4.6 0 1.6.4 3.3 1.2 5.1.5 1.1 1.5 2.2 2.9 3.4l.1.1c2 1.2 4 1.8 5.7 1.8h.2c1.3 0 2.5-.2 3.7-.5 1-.4 1.9-.8 2.6-1.3v2.3c0 .8-.1 1.5-.4 2.2-.5 1.4-1.4 2.3-2.6 2.9-.4.2-1.2.6-2.7.7l-.6-.1h-.1c-1 0-2.1-.3-3.1-.9l-.9-.7c-1-1.1-1.3-1.8-1.3-2.2l-.2-1.2h-4.4l.3 1.7c.2 1.6 1.1 3.2 2.6 4.8l.1.1c2.2 1.8 4.5 2.8 6.9 2.8h.2c1.6 0 2.3-.1 2.7-.2 1.2-.2 2.6-.8 4.1-1.8 2.5-1.9 3.7-4.4 3.8-7.4v-22h-4.2v1.9zm-9.1 3.1c.3-.2 1.1-.5 3.1-.7.6 0 1.5.2 2.6.6h.1s.4.1 1.4.9c1.3 1.3 1.9 2.8 1.9 4.6 0 .8-.1 1.5-.4 2.3v.2c0 .3-.3 1-1.6 2.3-1.4.9-2.6 1.3-3.7 1.3h-.5l-.7-.1c-.6 0-1.5-.3-2.4-.8l-.3-.1s-.4-.2-1.3-1.1c-.8-1.1-1.3-2.4-1.3-3.7v-.5c0-2.4 1-4 3.1-5.2z"/><g><path class="st5" d="M27.6 23.7v-2.5h-4.5V20l4.7-6.7h1V20h1.4v1.2h-1.4v2.5h-1.2zm0-3.6v-4.7l-3.2 4.7h3.2zM31.3 21l1.3-.2c.1.7.4 1.2.7 1.6.4.3.8.5 1.3.5.6 0 1.1-.2 1.5-.6.4-.4.6-.9.6-1.5s-.2-1.1-.6-1.4c-.4-.4-.9-.6-1.5-.6-.2 0-.5 0-.9.1l.1-1.1h.2c.5 0 1-.1 1.5-.4.4-.3.7-.7.7-1.3 0-.5-.2-.9-.5-1.2-.3-.3-.7-.5-1.2-.5s-.9.2-1.2.5c-.3.3-.5.8-.6 1.4l-1.3-.3c.2-.9.5-1.5 1.1-2 .6-.5 1.2-.7 2.1-.7.6 0 1.1.1 1.6.4.5.2.8.6 1.1 1 .3.4.4.9.4 1.3s-.1.9-.4 1.2c-.2.4-.6.7-1.1.9.6.1 1.1.4 1.4.9.3.4.5 1 .5 1.7 0 .9-.3 1.7-1 2.3-.7.6-1.5.9-2.5.9-.9 0-1.7-.3-2.3-.8-.6-.5-.9-1.2-1-2.1zM43.1 23.7v-2.5h-4.5V20l4.7-6.7h1V20h1.4v1.2h-1.4v2.5h-1.2zm0-3.6v-4.7l-3.2 4.7h3.2zM46.5 20.6v-1.3h3.9v1.3h-3.9zM51.2 21l1.3-.1c.1.7.3 1.1.7 1.5.4.3.8.5 1.3.5.6 0 1.1-.2 1.6-.7.4-.5.6-1.1.6-1.8s-.2-1.3-.6-1.7c-.4-.4-.9-.6-1.6-.6-.4 0-.8.1-1.1.3-.3.2-.6.4-.8.7l-1.2-.2 1-5.3h5.2v1.2h-4.1l-.6 2.8c.6-.4 1.3-.7 2-.7.9 0 1.7.3 2.3.9.6.6.9 1.4.9 2.4 0 .9-.3 1.7-.8 2.4-.7.8-1.6 1.3-2.7 1.3-.9 0-1.7-.3-2.3-.8-.7-.5-1.1-1.2-1.1-2.1zM60.8 18.1c-.5-.2-.9-.5-1.2-.8-.3-.4-.4-.8-.4-1.3 0-.8.3-1.4.8-1.9s1.3-.8 2.2-.8c.9 0 1.6.3 2.2.8.6.5.8 1.2.8 1.9 0 .5-.1.9-.4 1.3-.3.4-.6.6-1.1.8.6.2 1.1.5 1.5 1 .3.5.5 1 .5 1.7 0 .9-.3 1.6-.9 2.2-.6.6-1.5.9-2.5.9s-1.8-.3-2.5-.9c-.6-.6-.9-1.4-.9-2.3 0-.7.2-1.2.5-1.7.3-.4.8-.7 1.4-.9zm-.6 2.6c0 .4.1.7.3 1.1.2.3.4.6.8.8.3.2.7.3 1.1.3.6 0 1.1-.2 1.5-.6.4-.4.6-.9.6-1.5s-.2-1.1-.6-1.5c-.4-.4-.9-.6-1.5-.6s-1.1.2-1.5.6c-.6.4-.7.9-.7 1.4zm.4-4.7c0 .5.2.9.5 1.2.3.3.7.5 1.2.5s.9-.2 1.2-.5c.3-.3.5-.7.5-1.1 0-.5-.2-.9-.5-1.2-.3-.3-.7-.5-1.2-.5s-.9.2-1.2.5c-.4.3-.5.6-.5 1.1zM66.8 21.3l1.2-.1c.1.6.3 1 .6 1.3.3.3.7.4 1.1.4.4 0 .7-.1 1-.3.3-.2.5-.4.7-.7.2-.3.3-.7.5-1.2.1-.5.2-1 .2-1.6v-.3c-.3.4-.6.7-1 1-.4.3-.9.4-1.4.4-.9 0-1.6-.3-2.2-.9-.6-.6-.9-1.4-.9-2.5s.3-1.9.9-2.5c.6-.6 1.4-1 2.3-1 .7 0 1.3.2 1.8.5.6.4 1 .9 1.3 1.6s.4 1.6.4 2.9c0 1.3-.1 2.4-.4 3.2-.3.8-.7 1.4-1.3 1.8-.6.4-1.2.6-2 .6s-1.5-.2-2-.7c-.4-.4-.7-1-.8-1.9zm5.2-4.5c0-.7-.2-1.3-.6-1.7-.4-.4-.9-.6-1.4-.6-.6 0-1.1.2-1.5.7-.4.5-.6 1.1-.6 1.8s.2 1.2.6 1.6c.4.4.9.6 1.5.6s1.1-.2 1.5-.6c.3-.5.5-1.1.5-1.8zM74.1 20.6v-1.3H78v1.3h-3.9zM83.5 23.7h-1.3v-8.1c-.3.3-.7.6-1.2.9-.5.3-.9.5-1.3.7V16c.7-.3 1.3-.7 1.9-1.2.5-.5.9-.9 1.1-1.4h.8v10.3zM90.5 23.7v-2.5H86V20l4.7-6.7h1V20h1.4v1.2h-1.4v2.5h-1.2zm0-3.6v-4.7l-3.2 4.7h3.2zM98.2 23.7v-2.5h-4.5V20l4.7-6.7h1V20h1.4v1.2h-1.4v2.5h-1.2zm0-3.6v-4.7L95 20.1h3.2zM106.6 23.7h-1.3v-8.1c-.3.3-.7.6-1.2.9-.5.3-.9.5-1.3.7V16c.7-.3 1.3-.7 1.9-1.2.5-.5.9-.9 1.1-1.4h.8v10.3zM10.5 41.7l1.2.2c.1.4.2.7.4.8.3.2.7.4 1.3.4.6 0 1-.1 1.4-.4.3-.2.5-.6.7-1 .1-.3.1-.8.1-1.6-.6.7-1.2 1-2.1 1-1 0-1.8-.4-2.4-1.1-.6-.7-.8-1.6-.8-2.7 0-.7.1-1.4.4-2 .3-.6.6-1.1 1.1-1.4.5-.3 1.1-.5 1.7-.5.9 0 1.6.4 2.2 1.1v-.9h1.2v6.5c0 1.2-.1 2-.4 2.5-.2.5-.6.9-1.1 1.2-.5.3-1.2.4-1.9.4-.9 0-1.6-.2-2.2-.6s-.8-1.1-.8-1.9zm1-4.5c0 1 .2 1.7.6 2.2.4.5.9.7 1.5.7s1.1-.2 1.5-.7c.4-.4.6-1.2.6-2.1 0-.9-.2-1.6-.6-2.1-.4-.5-.9-.7-1.5-.7s-1 .2-1.4.7c-.5.4-.7 1.1-.7 2zM17.9 37.4c0-1.4.4-2.4 1.2-3.1.6-.6 1.4-.8 2.4-.8s1.9.3 2.5 1c.7.7 1 1.6 1 2.8 0 1-.1 1.7-.4 2.3-.3.6-.7 1-1.3 1.3-.6.3-1.2.5-1.8.5-1.1 0-1.9-.3-2.5-1-.7-.8-1.1-1.8-1.1-3zm1.4 0c0 1 .2 1.7.6 2.2.4.5.9.7 1.6.7.6 0 1.2-.2 1.6-.7.4-.5.6-1.2.6-2.2 0-.9-.2-1.6-.6-2.1-.4-.5-.9-.7-1.6-.7-.6 0-1.2.2-1.6.7-.4.4-.6 1.1-.6 2.1zM27.3 41.1h-1.2V30.7h1.3v3.7c.5-.7 1.2-1 2.1-1 .5 0 .9.1 1.3.3.4.2.8.4 1 .8.3.3.5.7.6 1.2.2.5.2 1 .2 1.5 0 1.3-.3 2.3-1 3-.6.7-1.4 1.1-2.3 1.1-.9 0-1.6-.4-2.1-1.1v.9zm0-3.8c0 .9.1 1.6.4 2 .4.7.9 1 1.6 1 .6 0 1-.2 1.4-.7.4-.5.6-1.2.6-2.2 0-1-.2-1.7-.6-2.2-.4-.5-.9-.7-1.4-.7-.6 0-1 .2-1.4.7-.4.5-.6 1.2-.6 2.1zM33.8 41.1v-7.5H35v1.1c.3-.5.6-.9.8-1.1s.5-.3.8-.3c.4 0 .9.1 1.3.4l-.4 1.3c-.3-.2-.6-.3-.9-.3-.3 0-.5.1-.7.3-.2.2-.4.4-.5.7-.1.5-.2.9-.2 1.5v3.9h-1.4zM38.3 32.2v-1.5h1.3v1.5h-1.3zm0 8.9v-7.5h1.3v7.5h-1.3zM40.9 41.7l1.2.2c.1.4.2.7.4.8.3.2.7.4 1.3.4.6 0 1-.1 1.4-.4.3-.2.5-.6.7-1 .1-.2.1-.7.1-1.6-.6.7-1.2 1-2.1 1-1 0-1.8-.4-2.4-1.1-.6-.7-.8-1.6-.8-2.7 0-.7.1-1.4.4-2 .3-.6.6-1.1 1.1-1.4.5-.3 1.1-.5 1.7-.5.9 0 1.6.4 2.2 1.1v-.9h1.2v6.5c0 1.2-.1 2-.4 2.5-.2.5-.6.9-1.1 1.2-.5.3-1.2.4-1.9.4-.9 0-1.6-.2-2.2-.6-.5-.5-.8-1.1-.8-1.9zm1.1-4.5c0 1 .2 1.7.6 2.2.4.5.9.7 1.5.7s1.1-.2 1.5-.7c.4-.4.6-1.2.6-2.1 0-.9-.2-1.6-.6-2.1-.4-.5-.9-.7-1.5-.7s-1 .2-1.4.7c-.5.4-.7 1.1-.7 2zM48.9 41.1V30.7h1.3v3.7c.6-.7 1.3-1 2.2-1 .6 0 1 .1 1.4.3.4.2.7.5.9.9.2.4.3.9.3 1.7v4.8h-1.3v-4.8c0-.6-.1-1.1-.4-1.4s-.7-.4-1.2-.4c-.4 0-.7.1-1.1.3-.3.2-.6.5-.7.8-.1.3-.2.8-.2 1.4v4.1h-1.2zM59.4 40l.2 1.1c-.4.1-.7.1-1 .1-.5 0-.8-.1-1.1-.2-.3-.1-.4-.3-.5-.6-.1-.2-.2-.7-.2-1.5v-4.3h-.9v-1h.9v-1.9l1.3-.8v2.6h1.3v1h-1.3V39c0 .4 0 .6.1.7 0 .1.1.2.2.2.1.1.2.1.4.1h.6zM60.3 32.2v-1.5h1.3v1.5h-1.3zm0 8.9v-7.5h1.3v7.5h-1.3zM68 41.1v-.9c-.5.7-1.2 1.1-2.1 1.1-.6 0-1.1-.2-1.7-.5-.5-.3-.9-.8-1.2-1.4-.3-.6-.4-1.3-.4-2s.1-1.4.4-2c.2-.6.6-1.1 1.1-1.4.5-.3 1.1-.5 1.7-.5.5 0 .9.1 1.2.3.4.2.6.4.9.7v-3.7h1.3v10.4H68zm-4-3.7c0 1 .2 1.7.6 2.2.4.5.9.7 1.4.7.6 0 1-.2 1.4-.7.4-.5.6-1.1.6-2.1s-.2-1.8-.6-2.3c-.4-.5-.9-.7-1.5-.7s-1 .2-1.4.7c-.3.4-.5 1.2-.5 2.2zM76 38.7l1.3.2c-.2.8-.6 1.4-1.2 1.8-.6.4-1.3.6-2.1.6-1.1 0-2-.3-2.6-1-.6-.7-1-1.6-1-2.8 0-1.3.3-2.2 1-2.9.7-.7 1.5-1 2.5-1s1.8.3 2.5 1c.6.7 1 1.6 1 2.9v.3h-5.6c0 .8.3 1.5.7 1.9.4.4.9.7 1.6.7.5 0 .9-.1 1.2-.4.2-.4.5-.8.7-1.3zm-4.2-2.1H76c-.1-.6-.2-1.1-.5-1.4-.4-.5-.9-.7-1.6-.7-.6 0-1.1.2-1.5.6-.3.4-.6.9-.6 1.5zM83.4 40.2c-.5.4-.9.7-1.4.8-.4.2-.9.2-1.4.2-.8 0-1.5-.2-1.9-.6-.4-.4-.7-.9-.7-1.5 0-.4.1-.7.3-1 .2-.3.4-.5.7-.7.3-.2.6-.3.9-.4.2-.1.6-.1 1.1-.2 1-.1 1.8-.3 2.3-.4v-.3c0-.5-.1-.9-.4-1.1-.3-.3-.8-.4-1.4-.4-.6 0-1 .1-1.3.3-.3.2-.5.6-.6 1.1l-1.2-.2c.1-.5.3-1 .6-1.3.3-.3.6-.6 1.1-.8.5-.2 1.1-.3 1.7-.3.6 0 1.2.1 1.6.2.4.2.7.3.9.6.2.2.3.5.4.9 0 .2.1.6.1 1.2V38c0 1.2 0 1.9.1 2.2l.3.9h-1.3c-.3-.3-.4-.6-.5-.9zm-.1-2.9c-.5.2-1.2.3-2.1.5-.5.1-.9.2-1.1.3-.2.1-.4.2-.5.4-.1.2-.2.4-.2.6 0 .3.1.6.4.8.3.2.6.3 1.1.3.5 0 .9-.1 1.3-.3.4-.2.7-.5.8-.9.1-.3.2-.7.2-1.3v-.4zM85.7 38.9l1.3-.2c.1.5.3.9.6 1.2.3.3.8.4 1.4.4.6 0 1-.1 1.3-.4.3-.2.4-.5.4-.8 0-.3-.1-.5-.4-.7-.2-.1-.6-.3-1.3-.4-.9-.2-1.6-.4-1.9-.6-.4-.2-.6-.4-.8-.7-.2-.3-.3-.6-.3-1 0-.3.1-.6.2-.9.2-.3.4-.5.6-.7.2-.1.5-.3.8-.4.3-.1.7-.2 1.1-.2.6 0 1.1.1 1.6.3s.8.4 1 .7.4.7.4 1.2l-1.2.2c-.1-.4-.2-.7-.5-.9-.3-.2-.7-.3-1.1-.3-.6 0-1 .1-1.3.3-.3.2-.4.4-.4.7 0 .2.1.3.2.4.1.1.3.3.5.3.1 0 .5.2 1.1.3.9.2 1.5.4 1.9.6.4.2.6.4.8.7.2.3.3.7.3 1.1 0 .4-.1.8-.4 1.2-.2.4-.6.7-1.1.9-.5.2-1 .3-1.6.3-1 0-1.7-.2-2.2-.6-.5-.6-.8-1.2-1-2zM93.5 41.1v-1.4h1.4v1.4h-1.4zM101.7 38.4l1.3.2c-.1.9-.5 1.5-1 2-.6.5-1.3.7-2.1.7-1 0-1.9-.3-2.5-1-.6-.7-.9-1.6-.9-2.9 0-.8.1-1.5.4-2.1.3-.6.7-1.1 1.2-1.4.5-.3 1.1-.5 1.8-.5.8 0 1.5.2 2 .6.5.4.9 1 1 1.8l-1.2.2c-.1-.5-.3-.9-.6-1.1-.3-.3-.7-.4-1.1-.4-.6 0-1.2.2-1.6.7-.4.5-.6 1.2-.6 2.2 0 1 .2 1.7.6 2.2.4.5.9.7 1.5.7.5 0 .9-.2 1.3-.5.2-.3.4-.8.5-1.4zM103.2 37.4c0-1.4.4-2.4 1.2-3.1.6-.6 1.4-.8 2.4-.8s1.9.3 2.5 1c.7.7 1 1.6 1 2.8 0 1-.1 1.7-.4 2.3-.3.6-.7 1-1.3 1.3-.6.3-1.2.5-1.8.5-1.1 0-1.9-.3-2.5-1-.8-.8-1.1-1.8-1.1-3zm1.3 0c0 1 .2 1.7.6 2.2.4.5.9.7 1.6.7.6 0 1.2-.2 1.6-.7.4-.5.6-1.2.6-2.2 0-.9-.2-1.6-.6-2.1-.4-.5-.9-.7-1.6-.7-.6 0-1.2.2-1.6.7-.4.4-.6 1.1-.6 2.1zM111.4 41.1v-7.5h1.1v1.1c.2-.4.5-.7.9-.9.4-.2.8-.3 1.3-.3.6 0 1 .1 1.4.3.4.2.6.6.8 1 .6-.9 1.4-1.3 2.3-1.3.7 0 1.3.2 1.7.6.4.4.6 1 .6 1.9v5.2h-1.3v-4.7c0-.5 0-.9-.1-1.1-.1-.2-.2-.4-.4-.5-.2-.1-.5-.2-.8-.2-.5 0-1 .2-1.3.5-.3.4-.5.9-.5 1.7v4.4h-1.3v-4.9c0-.6-.1-1-.3-1.3-.2-.3-.5-.4-1-.4-.4 0-.7.1-1 .3-.3.2-.5.5-.7.8-.1.4-.2.9-.2 1.6v3.9h-1.2z"/></g><g><path class="st5" d="m489.4 21.4 1.2-.1c.1.6.3 1 .6 1.3.3.3.7.4 1.1.4.4 0 .7-.1 1-.3.3-.2.5-.4.7-.7.2-.3.3-.7.5-1.2.1-.5.2-1 .2-1.6v-.3c-.3.4-.6.7-1 1-.4.3-.9.4-1.4.4-.9 0-1.6-.3-2.2-.9-.6-.6-.9-1.4-.9-2.5s.3-1.9.9-2.5c.6-.6 1.4-1 2.3-1 .7 0 1.3.2 1.8.5.6.4 1 .9 1.3 1.6.3.7.4 1.6.4 2.9 0 1.3-.1 2.4-.4 3.2-.3.8-.7 1.4-1.3 1.8-.6.4-1.2.6-2 .6s-1.5-.2-2-.7c-.4-.4-.7-1.1-.8-1.9zm5.2-4.6c0-.7-.2-1.3-.6-1.7-.4-.4-.9-.6-1.4-.6-.6 0-1.1.2-1.5.7-.4.5-.6 1.1-.6 1.8s.2 1.2.6 1.6c.4.4.9.6 1.5.6s1.1-.2 1.5-.6c.3-.5.5-1 .5-1.8zM496.9 21.1l1.3-.1c.1.7.3 1.1.7 1.5.4.3.8.5 1.3.5.6 0 1.1-.2 1.6-.7.4-.5.6-1.1.6-1.8s-.2-1.3-.6-1.7c-.4-.4-.9-.6-1.6-.6-.4 0-.8.1-1.1.3-.3.2-.6.4-.8.7l-1.2-.2 1-5.3h5.2v1.2h-4.1l-.6 2.8c.6-.4 1.3-.7 2-.7.9 0 1.7.3 2.3.9.6.6.9 1.4.9 2.4 0 .9-.3 1.7-.8 2.4-.7.8-1.6 1.3-2.7 1.3-.9 0-1.7-.3-2.3-.8-.6-.5-1-1.2-1.1-2.1zM508 23.8v-1.3l5.3-6.6c.4-.5.7-.9 1.1-1.2h-5.8v-1.2h7.4v1.2l-5.8 7.2-.6.7h6.6v1.2H508zM517.2 14.9v-1.5h1.3v1.5h-1.3zm0 8.9v-7.5h1.3v7.5h-1.3zM519.6 20c0-1.4.4-2.4 1.2-3.1.6-.6 1.4-.8 2.4-.8s1.9.3 2.5 1c.7.7 1 1.6 1 2.8 0 1-.1 1.7-.4 2.3-.3.6-.7 1-1.3 1.3-.6.3-1.2.5-1.8.5-1.1 0-1.9-.3-2.5-1-.8-.7-1.1-1.7-1.1-3zm1.3 0c0 1 .2 1.7.6 2.2.4.5.9.7 1.6.7.6 0 1.2-.2 1.6-.7.4-.5.6-1.2.6-2.2 0-.9-.2-1.6-.6-2.1-.4-.5-.9-.7-1.6-.7-.6 0-1.2.2-1.6.7-.4.5-.6 1.2-.6 2.1zM527.7 23.8v-7.5h1.1v1.1c.6-.8 1.3-1.2 2.4-1.2.5 0 .9.1 1.2.2.4.2.7.4.9.6.2.3.3.6.4.9 0 .2.1.6.1 1.2v4.6h-1.3v-4.6c0-.5 0-.9-.1-1.2-.1-.3-.3-.5-.5-.6-.3-.2-.5-.2-.9-.2-.5 0-1 .2-1.4.5-.4.3-.6 1-.6 2v4.1h-1.3zM538.8 20.5l1.3-.1c.1.5.2.9.4 1.3s.6.6 1 .8c.5.2 1 .3 1.6.3.5 0 1-.1 1.4-.2.4-.2.7-.4.9-.6.2-.3.3-.6.3-.9 0-.3-.1-.6-.3-.9-.2-.2-.5-.4-.9-.6-.3-.1-.9-.3-1.8-.5-1-.2-1.6-.4-2-.6-.5-.3-.9-.6-1.1-1-.2-.4-.4-.8-.4-1.3s.1-1 .4-1.5c.3-.5.7-.8 1.3-1 .6-.2 1.2-.4 1.9-.4.8 0 1.4.1 2 .4s1 .6 1.4 1.1c.3.5.5 1 .5 1.6l-1.3.1c-.1-.7-.3-1.1-.7-1.5-.4-.3-1-.5-1.8-.5s-1.4.2-1.8.5-.6.7-.6 1.1c0 .4.1.7.4.9.3.2 1 .5 2.1.7 1.1.3 1.9.5 2.3.7.6.3 1 .6 1.3 1.1.3.4.4.9.4 1.5s-.2 1.1-.5 1.6-.8.9-1.4 1.1c-.6.3-1.3.4-2 .4-.9 0-1.7-.1-2.4-.4-.6-.3-1.1-.7-1.5-1.2-.2-.7-.4-1.3-.4-2zM551.2 22.7l.2 1.1c-.4.1-.7.1-1 .1-.5 0-.8-.1-1.1-.2-.3-.1-.4-.3-.5-.6-.1-.2-.2-.7-.2-1.5v-4.3h-.9v-1h.9v-1.9l1.3-.8v2.6h1.3v1h-1.3v4.4c0 .4 0 .6.1.7 0 .1.1.2.2.2.1.1.2.1.4.1.2.1.4.1.6.1zM557 22.9c-.5.4-.9.7-1.4.8-.4.2-.9.2-1.4.2-.8 0-1.5-.2-1.9-.6s-.7-.9-.7-1.5c0-.4.1-.7.3-1 .2-.3.4-.5.7-.7.3-.2.6-.3.9-.4.3-.1.6-.1 1.1-.2 1-.1 1.8-.3 2.3-.4v-.3c0-.5-.1-.9-.4-1.1-.3-.3-.8-.4-1.4-.4-.6 0-1 .1-1.3.3-.3.2-.5.6-.6 1.1l-1.2-.2c.1-.5.3-1 .6-1.3.3-.3.6-.6 1.1-.8s1.1-.3 1.7-.3c.6 0 1.2.1 1.6.2.4.2.7.3.9.6.2.2.3.5.4.9 0 .2.1.6.1 1.2v1.7c0 1.2 0 1.9.1 2.2l.3.9h-1.3c-.4-.3-.5-.6-.5-.9zm-.1-2.9c-.5.2-1.2.3-2.1.5-.5.1-.9.2-1.1.3-.2.1-.4.2-.5.4-.1.2-.2.4-.2.6 0 .3.1.6.4.8.3.2.6.3 1.1.3.5 0 .9-.1 1.3-.3.4-.2.7-.5.8-.9.1-.3.2-.7.2-1.3V20zM562.6 22.7l.2 1.1c-.4.1-.7.1-1 .1-.5 0-.8-.1-1.1-.2-.3-.1-.4-.3-.5-.6-.1-.2-.2-.7-.2-1.5v-4.3h-.9v-1h.9v-1.9l1.3-.8v2.6h1.3v1h-1.3v4.4c0 .4 0 .6.1.7 0 .1.1.2.2.2.1.1.2.1.4.1.2.1.4.1.6.1zM563.5 14.9v-1.5h1.3v1.5h-1.3zm0 8.9v-7.5h1.3v7.5h-1.3zM565.9 20c0-1.4.4-2.4 1.2-3.1.6-.6 1.4-.8 2.4-.8s1.9.3 2.5 1c.7.7 1 1.6 1 2.8 0 1-.1 1.7-.4 2.3-.3.6-.7 1-1.3 1.3-.6.3-1.2.5-1.8.5-1.1 0-1.9-.3-2.5-1-.8-.7-1.1-1.7-1.1-3zm1.3 0c0 1 .2 1.7.6 2.2.4.5.9.7 1.6.7.6 0 1.2-.2 1.6-.7.4-.5.6-1.2.6-2.2 0-.9-.2-1.6-.6-2.1-.4-.5-.9-.7-1.6-.7-.6 0-1.2.2-1.6.7-.4.5-.6 1.2-.6 2.1zM574.1 23.8v-7.5h1.1v1.1c.6-.8 1.3-1.2 2.4-1.2.5 0 .9.1 1.2.2.4.2.7.4.9.6.2.3.3.6.4.9 0 .2.1.6.1 1.2v4.6h-1.3v-4.6c0-.5 0-.9-.1-1.2-.1-.3-.3-.5-.5-.6-.3-.2-.5-.2-.9-.2-.5 0-1 .2-1.4.5-.4.3-.6 1-.6 2v4.1h-1.3zM593 20.2l1.4.3c-.3 1.1-.8 2-1.6 2.6-.7.6-1.7.9-2.7.9-1.1 0-2-.2-2.7-.7-.7-.5-1.2-1.1-1.6-2s-.5-1.8-.5-2.8c0-1.1.2-2 .6-2.8.4-.8 1-1.4 1.8-1.8.8-.4 1.6-.6 2.5-.6 1 0 1.9.3 2.6.8.7.5 1.2 1.3 1.5 2.2l-1.4.3c-.2-.8-.6-1.3-1-1.6-.5-.3-1-.5-1.7-.5-.8 0-1.5.2-2 .6-.5.4-.9.9-1.1 1.5-.2.6-.3 1.3-.3 2 0 .9.1 1.7.4 2.3.3.7.7 1.1 1.2 1.5.5.3 1.1.5 1.8.5.8 0 1.4-.2 2-.7.2-.5.6-1.2.8-2zM598.3 22.7l.2 1.1c-.4.1-.7.1-1 .1-.5 0-.8-.1-1.1-.2-.3-.1-.4-.3-.5-.6-.1-.2-.2-.7-.2-1.5v-4.3h-.9v-1h.9v-1.9l1.3-.8v2.6h1.3v1H597v4.4c0 .4 0 .6.1.7 0 .1.1.2.2.2.1.1.2.1.4.1.2.1.4.1.6.1zM599.6 23.8v-1.4h1.4v1.4h-1.4zM501.1 41.2V32h-3.4v-1.2h8.2V32h-3.4v9.1h-1.4zM506.2 41.2v-7.5h1.1v1.1c.3-.5.6-.9.8-1.1s.5-.3.8-.3c.4 0 .9.1 1.3.4l-.4 1.2c-.3-.2-.6-.3-.9-.3-.3 0-.5.1-.7.3-.2.2-.4.4-.5.7-.1.5-.2.9-.2 1.5v3.9h-1.3zM510.2 37.4c0-1.4.4-2.4 1.2-3.1.6-.6 1.4-.8 2.4-.8s1.9.3 2.5 1c.7.7 1 1.6 1 2.8 0 1-.1 1.7-.4 2.3-.3.6-.7 1-1.3 1.3-.6.3-1.2.5-1.8.5-1.1 0-1.9-.3-2.5-1-.7-.7-1.1-1.7-1.1-3zm1.3 0c0 1 .2 1.7.6 2.2.4.5.9.7 1.6.7.6 0 1.2-.2 1.6-.7.4-.5.6-1.2.6-2.2 0-.9-.2-1.6-.6-2.1-.4-.5-.9-.7-1.6-.7-.6 0-1.2.2-1.6.7-.3.4-.6 1.2-.6 2.1zM518.4 44.1l-.1-1.2c.3.1.5.1.7.1.3 0 .5 0 .7-.1.2-.1.3-.2.4-.4.1-.1.2-.4.4-.9 0-.1.1-.2.1-.3l-2.8-7.5h1.4l1.6 4.3c.2.6.4 1.1.5 1.7.1-.6.3-1.2.5-1.7l1.6-4.4h1.3l-2.9 7.6c-.3.8-.5 1.4-.7 1.7-.2.4-.5.7-.8.9-.3.2-.6.3-1 .3s-.6 0-.9-.1zM524.6 41.2v-1.4h1.4v1.4c0 .5-.1 1-.3 1.3-.2.3-.5.6-.9.8l-.4-.5c.3-.1.5-.3.6-.5.1-.2.2-.6.2-1h-.6zM534.7 41.2l-4-10.4h1.5l2.7 7.5c.2.6.4 1.2.5 1.7.2-.6.3-1.1.6-1.7l2.8-7.5h1.4l-4.1 10.4h-1.4zM538.8 41.2l4-10.4h1.5l4.2 10.4H547l-1.2-3.1h-4.3l-1.1 3.1h-1.6zm3-4.3h3.5l-1.1-2.9c-.3-.9-.6-1.6-.7-2.1-.1.7-.3 1.3-.6 2l-1.1 3zM562 40v1.2h-6.8c0-.3 0-.6.1-.9.2-.5.5-.9.8-1.4s.9-1 1.7-1.6c1.1-.9 1.9-1.7 2.3-2.2.4-.5.6-1 .6-1.5s-.2-.9-.5-1.3c-.4-.3-.8-.5-1.4-.5-.6 0-1.1.2-1.5.6-.4.4-.6.9-.6 1.5l-1.3-.1c.1-1 .4-1.7 1-2.2.6-.5 1.4-.8 2.4-.8s1.8.3 2.4.8c.6.6.9 1.2.9 2.1 0 .4-.1.8-.3 1.2-.2.4-.5.8-.8 1.3-.4.4-1 1.1-2 1.8-.8.6-1.3 1.1-1.5 1.3-.2.2-.4.5-.5.7h5zM569.7 40v1.2h-6.8c0-.3 0-.6.1-.9.2-.5.5-.9.8-1.4.4-.5.9-1 1.7-1.6 1.1-.9 1.9-1.7 2.3-2.2.4-.5.6-1 .6-1.5s-.2-.9-.5-1.3c-.4-.3-.8-.5-1.4-.5-.6 0-1.1.2-1.5.6-.4.4-.6.9-.6 1.5l-1.3-.1c.1-1 .4-1.7 1-2.2.6-.5 1.4-.8 2.4-.8s1.8.3 2.4.8c.6.6.9 1.2.9 2.1 0 .4-.1.8-.3 1.2-.2.4-.5.8-.8 1.3-.4.4-1 1.1-2 1.8-.8.6-1.3 1.1-1.5 1.3-.2.2-.4.5-.5.7h5zM570.9 38.8l1.2-.1c.1.6.3 1 .6 1.3.3.3.7.4 1.1.4.4 0 .7-.1 1-.3.3-.2.5-.4.7-.7.2-.3.3-.7.5-1.2s.2-1 .2-1.6v-.3c-.3.4-.6.7-1 1-.4.3-.9.4-1.4.4-.9 0-1.6-.3-2.2-.9-.6-.6-.9-1.4-.9-2.5s.3-1.9.9-2.5c.6-.6 1.4-1 2.3-1 .7 0 1.3.2 1.8.5.6.4 1 .9 1.3 1.6.3.7.4 1.6.4 2.9 0 1.3-.1 2.4-.4 3.2-.3.8-.7 1.4-1.3 1.8-.6.4-1.2.6-2 .6s-1.5-.2-2-.7c-.4-.5-.7-1.1-.8-1.9zm5.2-4.6c0-.7-.2-1.3-.6-1.7-.4-.4-.9-.6-1.4-.6-.6 0-1.1.2-1.5.7-.4.5-.6 1.1-.6 1.8s.2 1.2.6 1.6c.4.4.9.6 1.5.6s1.1-.2 1.5-.6c.3-.5.5-1.1.5-1.8zM578.5 32.2V31h6.7v1c-.7.7-1.3 1.6-2 2.8-.6 1.2-1.1 2.4-1.5 3.6-.3.9-.4 1.8-.5 2.8H580c0-.8.2-1.8.5-3s.7-2.3 1.3-3.3c.6-1.1 1.2-2 1.8-2.7h-5.1zM590.2 41.2v-2.5h-4.5v-1.2l4.7-6.7h1v6.7h1.4v1.2h-1.4v2.5h-1.2zm0-3.7v-4.7l-3.2 4.7h3.2z"/></g><g><path d="M8.7 7c-.4 0-.7-.3-.7-.8s.3-.8.8-.8c.4 0 .8.3.8.8-.1.5-.4.8-.9.8z"/></g><g><path d="M260.9 86.3c.6.4 1.5.7 2.5.7 1.4 0 2.3-.8 2.3-1.8s-.6-1.6-2-2.1c-1.8-.6-2.8-1.5-2.8-3.1 0-1.7 1.4-2.9 3.5-2.9 1.1 0 1.9.3 2.4.5l-.4 1.1c-.4-.2-1.1-.5-2-.5-1.5 0-2 .9-2 1.6 0 1 .7 1.5 2.1 2.1 1.8.7 2.8 1.6 2.8 3.2 0 1.7-1.2 3.1-3.8 3.1-1 0-2.2-.3-2.8-.7l.2-1.2zM270.5 78.1c0 .5-.3.9-.9.9-.5 0-.8-.4-.8-.9s.4-.9.9-.9c.4 0 .8.4.8.9zm-1.6 9.9v-7.7h1.4V88h-1.4zM271.8 87.2l3.5-4.6c.3-.4.7-.8 1-1.2h-4.2v-1.1h5.9v.9l-3.5 4.5c-.3.4-.6.8-1 1.2h4.5V88h-6.3v-.8zM280.2 84.4c0 1.9 1.2 2.7 2.7 2.7 1 0 1.6-.2 2.1-.4l.2 1c-.5.2-1.3.5-2.6.5-2.4 0-3.8-1.6-3.8-3.9s1.4-4.2 3.6-4.2c2.5 0 3.2 2.2 3.2 3.6v.7h-5.4zm4.1-1c0-.9-.4-2.3-2-2.3-1.4 0-2 1.3-2.2 2.3h4.2zM300.1 82.5c0 3.7-2.3 5.7-5 5.7-2.8 0-4.9-2.2-4.9-5.5 0-3.4 2.1-5.7 5-5.7 3 0 4.9 2.3 4.9 5.5zm-8.4.2c0 2.3 1.2 4.4 3.4 4.4s3.5-2 3.5-4.5c0-2.1-1.1-4.4-3.4-4.4-2.4 0-3.5 2.1-3.5 4.5zM301.8 82.8c0-1 0-1.8-.1-2.5h1.3l.1 1.3c.6-.9 1.5-1.5 2.8-1.5 1.9 0 3.3 1.6 3.3 3.9 0 2.8-1.7 4.2-3.5 4.2-1 0-1.9-.4-2.4-1.2v4.2h-1.4v-8.4zm1.4 2c0 .2 0 .4.1.6.3 1 1.1 1.6 2.1 1.6 1.5 0 2.4-1.2 2.4-3 0-1.6-.8-2.9-2.3-2.9-1 0-1.9.7-2.1 1.7 0 .2-.1.4-.1.6v1.4zM312.6 78v2.2h2v1.1h-2v4.2c0 1 .3 1.5 1.1 1.5.4 0 .6 0 .8-.1l.1 1.1c-.3.1-.7.2-1.2.2-.7 0-1.2-.2-1.5-.6-.4-.4-.5-1.1-.5-2v-4.2H310v-1.1h1.2v-1.9l1.4-.4zM317.8 78.1c0 .5-.3.9-.9.9-.5 0-.8-.4-.8-.9s.4-.9.9-.9.8.4.8.9zm-1.6 9.9v-7.7h1.4V88h-1.4zM327 84.1c0 2.9-2 4.1-3.9 4.1-2.1 0-3.7-1.5-3.7-4 0-2.6 1.7-4.1 3.8-4.1 2.3 0 3.8 1.6 3.8 4zm-6.2 0c0 1.7 1 3 2.4 3 1.3 0 2.4-1.3 2.4-3 0-1.3-.7-3-2.3-3-1.7 0-2.5 1.6-2.5 3zM328.8 82.3c0-.8 0-1.5-.1-2.1h1.2l.1 1.3c.4-.7 1.3-1.5 2.6-1.5 1.1 0 2.7.6 2.7 3.3V88h-1.4v-4.5c0-1.2-.5-2.3-1.8-2.3-.9 0-1.6.7-1.9 1.4-.1.2-.1.4-.1.7V88h-1.4v-5.7zM337.4 86.6c.4.3 1.2.6 1.9.6 1 0 1.5-.5 1.5-1.2s-.4-1-1.4-1.4c-1.4-.5-2-1.3-2-2.2 0-1.2 1-2.3 2.7-2.3.8 0 1.5.2 1.9.5l-.4 1c-.3-.2-.9-.4-1.6-.4-.8 0-1.3.5-1.3 1.1 0 .6.5.9 1.5 1.3 1.3.5 2 1.2 2 2.3 0 1.4-1.1 2.3-2.9 2.3-.8 0-1.6-.2-2.2-.5l.3-1.1z"/></g><g><path d="M59.7 102.9c0 2.7-1.9 3.9-3.6 3.9-2 0-3.5-1.4-3.5-3.7 0-2.4 1.6-3.9 3.6-3.9 2.1 0 3.5 1.5 3.5 3.7zm-5.7.1c0 1.6.9 2.8 2.2 2.8 1.3 0 2.2-1.2 2.2-2.8 0-1.2-.6-2.8-2.2-2.8S54 101.6 54 103zM61.4 101.7c0-.9 0-1.7-.1-2.4h1.2l.1 1.2c.5-.9 1.4-1.4 2.6-1.4 1.8 0 3.1 1.5 3.1 3.7 0 2.6-1.6 3.9-3.3 3.9-1 0-1.8-.4-2.2-1.1v3.9h-1.3v-7.8zm1.3 1.9c0 .2 0 .4.1.5.2.9 1 1.5 2 1.5 1.4 0 2.2-1.1 2.2-2.8 0-1.5-.8-2.7-2.2-2.7-.9 0-1.7.6-2 1.6 0 .2-.1.4-.1.5v1.4zM71.5 97.2v2.1h1.9v1h-1.9v3.9c0 .9.3 1.4 1 1.4.3 0 .6 0 .8-.1l.1 1c-.3.1-.7.2-1.2.2-.6 0-1.1-.2-1.4-.6-.4-.4-.5-1-.5-1.9v-4h-1.1v-1h1.1v-1.7l1.2-.3zM76.4 97.3c0 .5-.3.8-.8.8s-.8-.4-.8-.8c0-.5.3-.8.8-.8.4 0 .8.3.8.8zm-1.5 9.3v-7.3h1.3v7.3h-1.3zM85 102.9c0 2.7-1.9 3.9-3.6 3.9-2 0-3.5-1.4-3.5-3.7 0-2.4 1.6-3.9 3.6-3.9 2.1 0 3.5 1.5 3.5 3.7zm-5.8.1c0 1.6.9 2.8 2.2 2.8 1.3 0 2.2-1.2 2.2-2.8 0-1.2-.6-2.8-2.2-2.8-1.5 0-2.2 1.4-2.2 2.8zM86.6 101.3c0-.8 0-1.4-.1-2h1.2l.1 1.2c.4-.7 1.2-1.4 2.4-1.4 1 0 2.6.6 2.6 3.1v4.3h-1.3v-4.2c0-1.2-.4-2.1-1.7-2.1-.9 0-1.5.6-1.8 1.3-.1.2-.1.4-.1.6v4.4h-1.3v-5.2zM100.6 98.1l-1.7.9-.3-1 2.1-1.1h1.1v9.7h-1.3v-8.5zM112.1 102v1h-3.7v-1h3.7zM123 105.1c.4.2 1.2.6 2.2.6 1.7 0 2.2-1.1 2.2-1.9 0-1.4-1.2-1.9-2.5-1.9h-.7v-1h.7c1 0 2.2-.5 2.2-1.6 0-.8-.5-1.5-1.7-1.5-.8 0-1.5.3-2 .6l-.3-1c.5-.4 1.5-.8 2.5-.8 1.9 0 2.8 1.1 2.8 2.3 0 1-.6 1.9-1.8 2.3 1.2.2 2.2 1.1 2.2 2.5 0 1.6-1.2 2.9-3.6 2.9-1.1 0-2.1-.3-2.5-.7l.3-.8zM132.5 96.3c-.3 1.3-1 2.9-1.4 3.6l-.8.1c.3-.9.7-2.4.9-3.5l1.3-.2zm2.2 0c-.3 1.3-1 2.9-1.4 3.6l-.8.1c.3-.9.7-2.4.9-3.5l1.3-.2zM138.6 99.3l1 3.7c.2.8.4 1.6.5 2.3.2-.7.4-1.5.6-2.3l1.2-3.7h1.1l1.1 3.6c.3.9.5 1.6.6 2.4.1-.7.3-1.5.6-2.4l1-3.6h1.3l-2.3 7.3h-1.2l-1.1-3.5c-.3-.8-.5-1.5-.6-2.4-.2.9-.4 1.6-.7 2.4l-1.2 3.4h-1.2l-2.2-7.3h1.5zM152.9 99.3l1 1.6c.3.4.5.8.7 1.2.2-.4.5-.8.7-1.2l1-1.5h1.4l-2.5 3.5 2.5 3.8h-1.5l-1.1-1.6c-.3-.4-.5-.8-.8-1.3-.2.4-.5.8-.8 1.3l-1 1.6H151l2.6-3.7-2.5-3.6h1.8zM162.1 105.8c0-.6.4-.9.9-.9s.9.4.9.9-.3.9-.9.9c-.6.1-.9-.4-.9-.9zM171.4 96.8v.9l-4.2 8.9h-1.4L170 98h-4.8v-1.1h6.2zM178.3 97.8c-.3 0-.6 0-1 .1-2.1.3-3.2 1.9-3.4 3.5.5-.6 1.3-1.1 2.4-1.1 1.7 0 2.9 1.2 2.9 3.1 0 1.8-1.2 3.4-3.2 3.4-2.1 0-3.5-1.6-3.5-4.2 0-1.9.7-3.4 1.7-4.4.8-.8 1.9-1.3 3.1-1.4.4-.1.7-.1 1-.1v1.1zm-.3 5.6c0-1.4-.8-2.2-2-2.2-.8 0-1.5.5-1.9 1.2-.1.2-.2.3-.2.6 0 1.6.8 2.8 2.1 2.8 1.2-.1 2-1 2-2.4z"/></g><g><path d="M369.7 102.9c0 2.7-1.9 3.9-3.6 3.9-2 0-3.5-1.4-3.5-3.7 0-2.4 1.6-3.9 3.6-3.9 2.1 0 3.5 1.5 3.5 3.7zm-5.7.1c0 1.6.9 2.8 2.2 2.8 1.3 0 2.2-1.2 2.2-2.8 0-1.2-.6-2.8-2.2-2.8s-2.2 1.4-2.2 2.8zM371.4 101.7c0-.9 0-1.7-.1-2.4h1.2l.1 1.2c.5-.9 1.4-1.4 2.6-1.4 1.8 0 3.1 1.5 3.1 3.7 0 2.6-1.6 3.9-3.3 3.9-1 0-1.8-.4-2.2-1.1v3.9h-1.3v-7.8zm1.3 1.9c0 .2 0 .4.1.5.2.9 1 1.5 2 1.5 1.4 0 2.2-1.1 2.2-2.8 0-1.5-.8-2.7-2.2-2.7-.9 0-1.7.6-2 1.6 0 .2-.1.4-.1.5v1.4zM381.5 97.2v2.1h1.9v1h-1.9v3.9c0 .9.3 1.4 1 1.4.3 0 .6 0 .8-.1l.1 1c-.3.1-.7.2-1.2.2-.6 0-1.1-.2-1.4-.6-.4-.4-.5-1-.5-1.9v-4h-1.1v-1h1.1v-1.7l1.2-.3zM386.4 97.3c0 .5-.3.8-.8.8s-.8-.4-.8-.8c0-.5.3-.8.8-.8.4 0 .8.3.8.8zm-1.5 9.3v-7.3h1.3v7.3h-1.3zM395 102.9c0 2.7-1.9 3.9-3.6 3.9-2 0-3.5-1.4-3.5-3.7 0-2.4 1.6-3.9 3.6-3.9 2.1 0 3.5 1.5 3.5 3.7zm-5.8.1c0 1.6.9 2.8 2.2 2.8 1.3 0 2.2-1.2 2.2-2.8 0-1.2-.6-2.8-2.2-2.8-1.5 0-2.2 1.4-2.2 2.8zM396.6 101.3c0-.8 0-1.4-.1-2h1.2l.1 1.2c.4-.7 1.2-1.4 2.4-1.4 1 0 2.6.6 2.6 3.1v4.3h-1.3v-4.2c0-1.2-.4-2.1-1.7-2.1-.9 0-1.5.6-1.8 1.3-.1.2-.1.4-.1.6v4.4h-1.3v-5.2zM407.7 106.6v-.8l1-1c2.5-2.4 3.6-3.6 3.6-5.1 0-1-.5-1.9-1.9-1.9-.9 0-1.6.5-2.1.8l-.4-.9c.7-.6 1.6-1 2.8-1 2.1 0 3 1.4 3 2.8 0 1.8-1.3 3.3-3.4 5.2l-.8.7h4.4v1.1h-6.2zM422.1 102v1h-3.7v-1h3.7zM429.9 105.1c.4.2 1.2.6 2.2.6 1.7 0 2.2-1.1 2.2-1.9 0-1.4-1.2-2-2.5-2h-.8v-1h.7c1 0 2.2-.5 2.2-1.6 0-.8-.5-1.5-1.7-1.5-.8 0-1.5.3-2 .6l-.3-1c.5-.4 1.5-.8 2.5-.8 1.9 0 2.8 1.1 2.8 2.3 0 1-.6 1.9-1.8 2.3 1.2.2 2.2 1.1 2.2 2.5 0 1.6-1.2 2.9-3.6 2.9-1.1 0-2.1-.3-2.5-.7l.4-.7zM437.4 105.8c0-.6.4-.9.9-.9s.9.4.9.9-.3.9-.9.9c-.6.1-.9-.4-.9-.9zM446.2 97.9h-3.7l-.4 2.5c.2 0 .4-.1.8-.1.8 0 1.5.2 2.1.5.8.4 1.4 1.3 1.4 2.5 0 1.9-1.5 3.3-3.6 3.3-1.1 0-2-.3-2.4-.6l.3-1c.4.2 1.2.5 2.1.5 1.2 0 2.3-.8 2.3-2.1s-.9-2.2-2.8-2.2c-.6 0-1 .1-1.3.1l.6-4.7h4.7v1.3zM450.1 96.3c-.3 1.3-1 2.9-1.4 3.6l-.8.1c.3-.9.7-2.4.9-3.5l1.3-.2zm2.2 0c-.3 1.3-1 2.9-1.4 3.6l-.8.1c.3-.9.7-2.4.9-3.5l1.3-.2zM456.2 99.3l1 3.7c.2.8.4 1.6.5 2.3.2-.7.4-1.5.6-2.3l1.2-3.7h1.1l1.1 3.6c.3.9.5 1.6.6 2.4.1-.7.3-1.5.6-2.4l1-3.6h1.3l-2.3 7.3h-1.2l-1.1-3.5c-.3-.8-.5-1.5-.6-2.4-.2.9-.4 1.6-.7 2.4l-1.2 3.5H457l-2.2-7.3h1.4zM470.5 99.3l1 1.6c.3.4.5.8.7 1.2.2-.4.5-.8.7-1.2l1-1.5h1.4l-2.5 3.5 2.5 3.8h-1.5l-.8-1.7c-.3-.4-.5-.8-.8-1.3-.2.4-.5.8-.8 1.3l-1 1.6h-1.5l2.6-3.7-2.5-3.6h1.5zM479.7 105.8c0-.6.4-.9.9-.9s.9.4.9.9-.3.9-.9.9c-.5.1-.9-.4-.9-.9zM483.5 105.7h1.1c.8-.1 1.5-.4 2-.9.6-.6 1.1-1.4 1.3-2.6-.5.7-1.3 1-2.3 1-1.8 0-2.9-1.3-2.9-3 0-1.8 1.3-3.5 3.3-3.5 2 0 3.2 1.6 3.2 4.1 0 2.1-.7 3.6-1.7 4.6-.8.7-1.8 1.2-2.8 1.3-.5.1-.9.1-1.2.1v-1.1zm.4-5.7c0 1.2.7 2.1 1.9 2.1.9 0 1.6-.4 1.9-1 .1-.1.1-.3.1-.5 0-1.7-.6-2.9-2-2.9-1.1 0-1.9 1-1.9 2.3zM492.5 96.3c-.3 1.3-1 2.9-1.4 3.6l-.8.1c.3-.9.7-2.4.9-3.5l1.3-.2zm2.2 0c-.3 1.3-1 2.9-1.4 3.6l-.8.1c.3-.9.7-2.4.9-3.5l1.3-.2zM498 95.9h1.3v4.5c.2-.4.5-.7.9-.9.4-.2.9-.4 1.4-.4 1 0 2.5.6 2.5 3.1v4.3h-1.3v-4.2c0-1.2-.4-2.2-1.7-2.2-.9 0-1.5.6-1.8 1.3-.1.2-.1.4-.1.6v4.4H498V95.9z"/></g><g><path class="st0" d="M342.6 155.4v-31h24.3v6.1h-17.3v6.3h15.2v6.1h-15.2v6.5h17.5v6.1h-24.5zM383.9 155.4v-2.6c-1.7 1.8-4.1 3-7.5 3-4.7 0-8.5-2.6-8.5-7.3v-.1c0-5.2 4.1-7.6 10-7.6 2.5 0 4.3.4 6 1v-.4c0-2.8-1.8-4.3-5.3-4.3-2.7 0-4.6.5-6.8 1.3l-1.8-5.1c2.7-1.2 5.4-1.9 9.6-1.9 7.6 0 11 3.8 11 10.2v13.8h-6.7zm.1-9.6c-1.2-.5-2.8-.9-4.5-.9-3 0-4.8 1.2-4.8 3.3v.1c0 1.8 1.6 2.9 3.8 2.9 3.3 0 5.5-1.7 5.5-4.2v-1.2zM401.5 155.8c-4.3 0-7.2-1.6-7.2-7.1v-11.2h-2.9v-5.8h2.9v-6.1h7v6.1h5.8v5.8h-5.8v10.1c0 1.5.7 2.3 2.3 2.3 1.3 0 2.4-.3 3.5-.8v5.4c-1.6.7-3.3 1.3-5.6 1.3z"/><path class="st1" d="M425.4 155.8c-4.9 0-9.8-1.6-13.7-5l4.2-4.8c2.9 2.3 5.9 3.8 9.6 3.8 2.9 0 4.7-1.1 4.7-2.9v-.1c0-1.7-1.1-2.6-6.5-3.9-6.5-1.6-10.7-3.3-10.7-9.5v-.1c0-5.6 4.7-9.3 11.3-9.3 4.7 0 8.7 1.4 12 3.9l-3.7 5.1c-2.9-1.9-5.7-3.1-8.4-3.1s-4.1 1.2-4.1 2.7v.1c0 2 1.4 2.7 7 4.1 6.5 1.6 10.2 3.9 10.2 9.3v.1c-.1 6.2-5 9.6-11.9 9.6zM471 155.4v-13.2c0-3.2-1.5-4.8-4.1-4.8-2.6 0-4.2 1.6-4.2 4.8v13.2h-7v-13.2c0-3.2-1.5-4.8-4.1-4.8-2.6 0-4.2 1.6-4.2 4.8v13.2h-7v-23.7h7v3.4c1.6-2 3.7-3.8 7.3-3.8 3.2 0 5.7 1.4 7 3.8 2.2-2.4 4.7-3.8 8.1-3.8 5.2 0 8.3 3 8.3 8.7v15.5H471zM496.3 155.4v-2.6c-1.7 1.8-4.1 3-7.5 3-4.7 0-8.5-2.6-8.5-7.3v-.1c0-5.2 4.1-7.6 10-7.6 2.5 0 4.3.4 6 1v-.4c0-2.8-1.8-4.3-5.3-4.3-2.7 0-4.6.5-6.8 1.3l-1.7-5.1c2.7-1.2 5.4-1.9 9.6-1.9 7.6 0 11 3.8 11 10.2v13.8h-6.8zm.1-9.6c-1.2-.5-2.8-.9-4.5-.9-3 0-4.8 1.2-4.8 3.3v.1c0 1.8 1.6 2.9 3.8 2.9 3.3 0 5.5-1.7 5.5-4.2v-1.2zM521.3 138.2c-4.7 0-7.5 2.7-7.5 8.4v8.8h-7v-23.7h7v4.8c1.4-3.3 3.7-5.4 7.9-5.2v7h-.4zM533.9 155.8c-4.3 0-7.2-1.6-7.2-7.1v-11.2h-2.9v-5.8h2.9v-6.1h7v6.1h5.8v5.8h-5.8v10.1c0 1.5.7 2.3 2.3 2.3 1.3 0 2.4-.3 3.5-.8v5.4c-1.6.7-3.3 1.3-5.6 1.3z"/><g><path class="st1" d="m516.7 188.1 2.6-20.1-10.8 13.2h-.2l-7.3-13-2.6 19.9h-7l4-30.7h7.6l6.8 13 10.2-13h7.6l-4 30.7h-6.9zM539.5 188.6c-7.6 0-12.6-5.4-11.7-12.1v-.1c.9-6.8 7.3-12.3 15-12.3 7.6 0 12.6 5.4 11.7 12.1v.1c-.9 6.7-7.3 12.2-15 12.3zm8.1-12.3c.4-3.5-1.8-6.5-5.7-6.5-4 0-6.8 3-7.2 6.4v.1c-.4 3.5 1.8 6.5 5.7 6.5 3.9 0 6.7-3 7.2-6.5zM571.4 170.9c-4.7 0-7.9 2.7-8.6 8.3l-1.1 8.7h-7l3-23.5h7l-.6 4.7c1.8-3.3 4.4-5.4 8.5-5.2l-.9 7h-.3zM594.1 178.4l-17.2.1c.3 3 2.3 4.6 5.4 4.6 2.4 0 4.1-.7 6.3-2.4l3.6 3.4c-2.7 2.7-6.2 4.4-10.7 4.4-7.4 0-12.3-4.9-11.3-12.1v-.1c.9-6.7 6.6-12.3 13.8-12.3 8.2 0 11.2 6.1 10.4 12.7v.1c0 .6-.1 1-.3 1.6zm-10.7-9.1c-2.9 0-5 2-6 5H588c-.1-3-1.7-5-4.6-5z"/></g><g><path class="st0" d="m403.8 188.1 2.6-20.1-10.8 13.2h-.2l-7.3-13-2.6 19.9h-7l4-30.7h7.6l6.8 13 10.2-13h7.6l-4 30.7h-6.9zM426.5 188.6c-7.6 0-12.6-5.4-11.7-12.1v-.1c.9-6.8 7.3-12.3 15-12.3 7.6 0 12.6 5.4 11.7 12.1v.1c-.9 6.7-7.3 12.2-15 12.3zm8.1-12.3c.4-3.5-1.8-6.5-5.7-6.5-4 0-6.8 3-7.2 6.4v.1c-.4 3.5 1.8 6.5 5.7 6.5 4 0 6.8-2.9 7.2-6.5zM454.2 188.1h-6.4l-6.7-23.7h7.4l3.5 15.7 7.6-15.8h7.3l-12.7 23.8zM487.5 178.4l-17.2.1c.3 3 2.3 4.6 5.4 4.6 2.4 0 4.1-.7 6.3-2.4l3.6 3.4c-2.7 2.7-6.2 4.4-10.7 4.4-7.4 0-12.3-4.9-11.3-12.1v-.1c.9-6.7 6.6-12.3 13.8-12.3 8.2 0 11.2 6.1 10.4 12.7v.1c-.1.6-.2 1-.3 1.6zm-10.8-9.1c-2.9 0-5 2-6 5h10.6c0-3-1.6-5-4.6-5z"/></g></g><path class="st6" d="M18.9 223.2h288v133.4h-288z"/><path class="st7" d="M321.9 223.2h288v133.4h-288z"/><g><path class="st0" d="M54.9 289.2v-26.6h20.9v5.2H61v5.4h13v5.2H61v5.6h15v5.2H54.9zM90.3 289.2V287c-1.5 1.6-3.5 2.6-6.4 2.6-4 0-7.3-2.2-7.3-6.2v-.1c0-4.4 3.5-6.5 8.5-6.5 2.1 0 3.7.3 5.2.8v-.3c0-2.4-1.5-3.7-4.5-3.7-2.3 0-3.9.4-5.8 1.1l-1.5-4.4c2.3-1 4.6-1.6 8.2-1.6 6.6 0 9.4 3.3 9.4 8.8v11.8h-5.8zm.1-8.2c-1-.5-2.4-.8-3.8-.8-2.6 0-4.1 1-4.1 2.8v.1c0 1.6 1.3 2.5 3.3 2.5 2.8 0 4.7-1.5 4.7-3.6v-1zM105.4 289.5c-3.7 0-6.2-1.4-6.2-6.1v-9.6h-2.5v-4.9h2.5v-5.2h6v5.2h5v4.9h-5v8.7c0 1.3.6 2 1.9 2 1.1 0 2.1-.3 3-.7v4.6c-1.2.6-2.7 1.1-4.7 1.1z"/><path class="st1" d="M125.9 289.5c-4.2 0-8.4-1.4-11.7-4.3l3.6-4.1c2.5 2 5.1 3.2 8.3 3.2 2.5 0 4-.9 4-2.5v-.1c0-1.5-.9-2.2-5.6-3.4-5.6-1.4-9.2-2.8-9.2-8.1v-.1c0-4.8 4-8 9.7-8 4 0 7.5 1.2 10.3 3.4L132 270c-2.4-1.6-4.9-2.6-7.2-2.6s-3.6 1-3.6 2.3v.1c0 1.7 1.2 2.3 6 3.5 5.6 1.4 8.8 3.3 8.8 8v.1c0 5.2-4.2 8.1-10.1 8.1zM165 289.2v-11.3c0-2.7-1.3-4.1-3.5-4.1-2.3 0-3.6 1.4-3.6 4.1v11.3h-6v-11.3c0-2.7-1.3-4.1-3.5-4.1-2.3 0-3.6 1.4-3.6 4.1v11.3h-6v-20.3h6v2.9c1.4-1.7 3.2-3.3 6.2-3.3 2.8 0 4.9 1.2 6 3.2 1.9-2.1 4.1-3.2 7-3.2 4.5 0 7.1 2.6 7.1 7.5v13.2H165zM186.7 289.2V287c-1.5 1.6-3.5 2.6-6.4 2.6-4 0-7.3-2.2-7.3-6.2v-.1c0-4.4 3.5-6.5 8.5-6.5 2.1 0 3.7.3 5.2.8v-.3c0-2.4-1.5-3.7-4.5-3.7-2.3 0-3.9.4-5.8 1.1l-1.5-4.4c2.3-1 4.6-1.6 8.2-1.6 6.6 0 9.4 3.3 9.4 8.8v11.8h-5.8zm.1-8.2c-1-.5-2.4-.8-3.8-.8-2.6 0-4.1 1-4.1 2.8v.1c0 1.6 1.3 2.5 3.3 2.5 2.8 0 4.7-1.5 4.7-3.6v-1zM208.1 274.5c-4 0-6.4 2.3-6.4 7.2v7.5h-6v-20.3h6v4.1c1.2-2.8 3.2-4.6 6.8-4.5v6h-.4zM218.9 289.5c-3.7 0-6.2-1.4-6.2-6.1v-9.6h-2.5v-4.9h2.5v-5.2h6v5.2h5v4.9h-5v8.7c0 1.3.6 2 1.9 2 1.1 0 2.1-.3 3-.7v4.6c-1.2.6-2.7 1.1-4.7 1.1z"/><g><path class="st1" d="m204.2 317.2 2.2-17.2-9.2 11.3h-.2l-6.3-11.1-2.2 17.1h-6l3.4-26.4h6.6l5.8 11.1 8.7-11.2h6.6l-3.4 26.4h-6zM223.7 317.6c-6.6 0-10.8-4.6-10.1-10.4v-.1c.8-5.8 6.3-10.5 12.8-10.5 6.6 0 10.8 4.6 10.1 10.4v.1c-.7 5.8-6.2 10.5-12.8 10.5zm6.9-10.5c.4-3-1.5-5.6-4.8-5.6-3.4 0-5.8 2.5-6.2 5.5v.1c-.4 3 1.5 5.6 4.8 5.6 3.5 0 5.9-2.6 6.2-5.6zM251.1 302.5c-4 0-6.7 2.3-7.4 7.1l-1 7.5h-6l2.6-20.2h6l-.5 4.1c1.6-2.8 3.8-4.6 7.3-4.5l-.8 6h-.2zM270.5 308.9l-14.7.1c.3 2.6 2 3.9 4.7 3.9 2 0 3.6-.6 5.4-2.1l3.1 2.9c-2.3 2.3-5.3 3.8-9.1 3.8-6.4 0-10.5-4.2-9.7-10.4v-.1c.7-5.8 5.7-10.5 11.8-10.5 7.1 0 9.6 5.2 8.9 10.9v.1c-.2.5-.2.9-.4 1.4zm-9.2-7.8c-2.5 0-4.3 1.7-5.1 4.3h9c0-2.6-1.3-4.3-3.9-4.3z"/></g><g><path class="st0" d="m107.4 317.2 2.2-17.2-9.2 11.3h-.2l-6.3-11.1-2.2 17.1h-6l3.4-26.4h6.6l5.8 11.1 8.7-11.2h6.6l-3.4 26.4h-6zM126.9 317.6c-6.6 0-10.8-4.6-10.1-10.4v-.1c.7-5.8 6.3-10.5 12.8-10.5 6.6 0 10.8 4.6 10.1 10.4v.1c-.7 5.8-6.2 10.5-12.8 10.5zm6.9-10.5c.4-3-1.5-5.6-4.8-5.6-3.4 0-5.8 2.5-6.2 5.5v.1c-.4 3 1.5 5.6 4.8 5.6 3.4 0 5.8-2.6 6.2-5.6zM150.6 317.2h-5.5l-5.7-20.3h6.4l3 13.5 6.5-13.5h6.2l-10.9 20.3zM179.1 308.9l-14.7.1c.3 2.6 2 3.9 4.7 3.9 2 0 3.6-.6 5.4-2.1l3.1 2.9c-2.3 2.3-5.3 3.8-9.1 3.8-6.4 0-10.5-4.2-9.7-10.4v-.1c.7-5.8 5.7-10.5 11.8-10.5 7.1 0 9.6 5.2 8.9 10.9v.1c-.2.5-.3.9-.4 1.4zm-9.2-7.8c-2.5 0-4.3 1.7-5.1 4.3h9c0-2.6-1.4-4.3-3.9-4.3z"/></g></g><g><path class="st0" d="M357.9 289.2v-26.6h20.9v5.2H364v5.4h13v5.2h-13v5.6h15v5.2h-21.1zM393.3 289.2V287c-1.5 1.6-3.5 2.6-6.4 2.6-4 0-7.3-2.2-7.3-6.2v-.1c0-4.4 3.5-6.5 8.5-6.5 2.1 0 3.7.3 5.2.8v-.3c0-2.4-1.5-3.7-4.5-3.7-2.3 0-3.9.4-5.8 1.1l-1.5-4.4c2.3-1 4.6-1.6 8.2-1.6 6.6 0 9.4 3.3 9.4 8.8v11.8h-5.8zm.1-8.2c-1-.5-2.4-.8-3.8-.8-2.6 0-4.1 1-4.1 2.8v.1c0 1.6 1.3 2.5 3.3 2.5 2.8 0 4.7-1.5 4.7-3.6v-1zM408.4 289.5c-3.7 0-6.2-1.4-6.2-6.1v-9.6h-2.5v-4.9h2.5v-5.2h6v5.2h5v4.9h-5v8.7c0 1.3.6 2 1.9 2 1.1 0 2.1-.3 3-.7v4.6c-1.3.6-2.7 1.1-4.7 1.1z"/><path class="st1" d="M428.8 289.5c-4.2 0-8.4-1.4-11.7-4.3l3.6-4.1c2.5 2 5.1 3.2 8.3 3.2 2.5 0 4-.9 4-2.5v-.1c0-1.5-.9-2.2-5.6-3.4-5.6-1.4-9.2-2.8-9.2-8.1v-.1c0-4.8 4-8 9.7-8 4 0 7.5 1.2 10.3 3.4L435 270c-2.4-1.6-4.9-2.6-7.2-2.6s-3.6 1-3.6 2.3v.1c0 1.7 1.2 2.3 6 3.5 5.6 1.4 8.8 3.3 8.8 8v.1c0 5.2-4.2 8.1-10.2 8.1zM468 289.2v-11.3c0-2.7-1.3-4.1-3.5-4.1-2.3 0-3.6 1.4-3.6 4.1v11.3h-6v-11.3c0-2.7-1.3-4.1-3.5-4.1-2.3 0-3.6 1.4-3.6 4.1v11.3h-6v-20.3h6v2.9c1.4-1.7 3.2-3.3 6.2-3.3 2.8 0 4.9 1.2 6 3.2 1.9-2.1 4.1-3.2 7-3.2 4.5 0 7.1 2.6 7.1 7.5v13.2H468zM489.6 289.2V287c-1.5 1.6-3.5 2.6-6.4 2.6-4 0-7.3-2.2-7.3-6.2v-.1c0-4.4 3.5-6.5 8.5-6.5 2.1 0 3.7.3 5.2.8v-.3c0-2.4-1.5-3.7-4.5-3.7-2.3 0-3.9.4-5.8 1.1l-1.5-4.4c2.3-1 4.6-1.6 8.2-1.6 6.6 0 9.4 3.3 9.4 8.8v11.8h-5.8zm.1-8.2c-1-.5-2.4-.8-3.8-.8-2.6 0-4.1 1-4.1 2.8v.1c0 1.6 1.3 2.5 3.3 2.5 2.8 0 4.7-1.5 4.7-3.6v-1zM511.1 274.5c-4 0-6.4 2.3-6.4 7.2v7.5h-6v-20.3h6v4.1c1.2-2.8 3.2-4.6 6.8-4.5v6h-.4zM521.9 289.5c-3.7 0-6.2-1.4-6.2-6.1v-9.6h-2.5v-4.9h2.5v-5.2h6v5.2h5v4.9h-5v8.7c0 1.3.6 2 1.9 2 1.1 0 2.1-.3 3-.7v4.6c-1.3.6-2.7 1.1-4.7 1.1z"/><g><path class="st1" d="m507.2 317.2 2.2-17.2-9.2 11.3h-.2l-6.3-11.1-2.2 17.1h-6l3.4-26.4h6.6l5.8 11.1 8.7-11.2h6.6l-3.4 26.4h-6zM526.7 317.6c-6.6 0-10.8-4.6-10.1-10.4v-.1c.8-5.8 6.3-10.5 12.8-10.5 6.6 0 10.8 4.6 10.1 10.4v.1c-.7 5.8-6.2 10.5-12.8 10.5zm6.9-10.5c.4-3-1.5-5.6-4.8-5.6-3.4 0-5.8 2.5-6.2 5.5v.1c-.4 3 1.5 5.6 4.8 5.6 3.4 0 5.8-2.6 6.2-5.6zM554 302.5c-4 0-6.7 2.3-7.4 7.1l-1 7.5h-6l2.6-20.2h6l-.5 4.1c1.6-2.8 3.8-4.6 7.3-4.5l-.8 6h-.2zM573.5 308.9l-14.7.1c.3 2.6 2 3.9 4.7 3.9 2 0 3.6-.6 5.4-2.1l3.1 2.9c-2.3 2.3-5.3 3.8-9.1 3.8-6.4 0-10.5-4.2-9.7-10.4v-.1c.7-5.8 5.7-10.5 11.8-10.5 7.1 0 9.6 5.2 8.9 10.9v.1c-.2.5-.3.9-.4 1.4zm-9.2-7.8c-2.5 0-4.3 1.7-5.1 4.3h9c0-2.6-1.4-4.3-3.9-4.3z"/></g><g><path class="st0" d="m410.3 317.2 2.2-17.2-9.2 11.3h-.2l-6.3-11.1-2.2 17.1h-6l3.4-26.4h6.6l5.8 11.1 8.7-11.2h6.6l-3.4 26.4h-6zM429.8 317.6c-6.6 0-10.8-4.6-10.1-10.4v-.1c.7-5.8 6.3-10.5 12.8-10.5 6.6 0 10.8 4.6 10.1 10.4v.1c-.7 5.8-6.2 10.5-12.8 10.5zm7-10.5c.4-3-1.5-5.6-4.8-5.6-3.4 0-5.8 2.5-6.2 5.5v.1c-.4 3 1.5 5.6 4.8 5.6 3.4 0 5.8-2.6 6.2-5.6zM453.6 317.2h-5.5l-5.7-20.3h6.4l3 13.5 6.5-13.5h6.2l-10.9 20.3zM482.1 308.9l-14.7.1c.3 2.6 2 3.9 4.7 3.9 2 0 3.6-.6 5.4-2.1l3.1 2.9c-2.3 2.3-5.3 3.8-9.1 3.8-6.4 0-10.5-4.2-9.7-10.4v-.1c.7-5.8 5.7-10.5 11.8-10.5 7.1 0 9.6 5.2 8.9 10.9v.1c-.2.5-.3.9-.4 1.4zm-9.2-7.8c-2.5 0-4.3 1.7-5.1 4.3h9c0-2.6-1.4-4.3-3.9-4.3z"/></g></g><g><path d="M136.2 209.6c-.5.3-1.5.5-2.8.5-3 0-5.3-1.9-5.3-5.5 0-3.4 2.3-5.7 5.6-5.7 1.3 0 2.2.3 2.6.5l-.3 1.1c-.5-.3-1.3-.4-2.2-.4-2.5 0-4.2 1.6-4.2 4.4 0 2.6 1.5 4.3 4.1 4.3.8 0 1.7-.2 2.3-.4l.2 1.2zM144.8 206c0 2.9-2 4.1-3.9 4.1-2.1 0-3.7-1.5-3.7-4 0-2.6 1.7-4.1 3.8-4.1 2.3.1 3.8 1.7 3.8 4zm-6.2.1c0 1.7 1 3 2.4 3 1.3 0 2.4-1.3 2.4-3 0-1.3-.7-3-2.3-3-1.8 0-2.5 1.5-2.5 3zM146.5 198.6h1.4V210h-1.4v-11.4zM157.3 206c0 2.9-2 4.1-3.9 4.1-2.1 0-3.7-1.5-3.7-4 0-2.6 1.7-4.1 3.8-4.1 2.3.1 3.8 1.7 3.8 4zm-6.1.1c0 1.7 1 3 2.4 3 1.3 0 2.4-1.3 2.4-3 0-1.3-.7-3-2.3-3-1.8 0-2.5 1.5-2.5 3zM159.1 204.6c0-.9 0-1.7-.1-2.4h1.2v1.5h.1c.4-1 1.2-1.7 2.1-1.7h.4v1.3h-.5c-1 0-1.7.8-1.9 1.8 0 .2-.1.4-.1.7v4.1h-1.4v-5.3zM177 204.5c0 3.7-2.3 5.7-5 5.7-2.8 0-4.9-2.2-4.9-5.5 0-3.4 2.1-5.7 5-5.7 3 0 4.9 2.3 4.9 5.5zm-8.4.1c0 2.3 1.2 4.4 3.4 4.4s3.5-2 3.5-4.5c0-2.1-1.1-4.4-3.4-4.4s-3.5 2.2-3.5 4.5zM178.7 204.8c0-1 0-1.8-.1-2.5h1.3l.1 1.3c.6-.9 1.5-1.5 2.8-1.5 1.9 0 3.3 1.6 3.3 3.9 0 2.8-1.7 4.2-3.5 4.2-1 0-1.9-.4-2.4-1.2v4.2h-1.4v-8.4zm1.4 2c0 .2 0 .4.1.6.3 1 1.1 1.6 2.1 1.6 1.5 0 2.4-1.2 2.4-3 0-1.6-.8-2.9-2.3-2.9-1 0-1.9.7-2.1 1.7 0 .2-.1.4-.1.6v1.4zM189.5 200v2.2h2v1.1h-2v4.2c0 1 .3 1.5 1.1 1.5.4 0 .6 0 .8-.1l.1 1.1c-.3.1-.7.2-1.2.2-.7 0-1.2-.2-1.5-.6-.4-.4-.5-1.1-.5-2v-4.2H187v-1.1h1.2v-1.9l1.3-.4zM194.7 200c0 .5-.3.9-.9.9-.5 0-.8-.4-.8-.9s.4-.9.9-.9c.5.1.8.5.8.9zm-1.6 10v-7.7h1.4v7.7h-1.4zM203.9 206c0 2.9-2 4.1-3.9 4.1-2.1 0-3.7-1.5-3.7-4 0-2.6 1.7-4.1 3.8-4.1 2.3.1 3.8 1.7 3.8 4zm-6.1.1c0 1.7 1 3 2.4 3 1.3 0 2.4-1.3 2.4-3 0-1.3-.7-3-2.3-3-1.8 0-2.5 1.5-2.5 3zM205.7 204.3c0-.8 0-1.5-.1-2.1h1.2l.1 1.3c.4-.7 1.3-1.5 2.6-1.5 1.1 0 2.7.6 2.7 3.3v4.6h-1.4v-4.5c0-1.2-.5-2.3-1.8-2.3-.9 0-1.6.7-1.9 1.4-.1.2-.1.4-.1.7v4.7h-1.4v-5.6zM214.4 208.5c.4.3 1.2.6 1.9.6 1 0 1.5-.5 1.5-1.2s-.4-1-1.4-1.4c-1.4-.5-2-1.3-2-2.2 0-1.2 1-2.3 2.7-2.3.8 0 1.5.2 1.9.5l-.4 1c-.3-.2-.9-.4-1.6-.4-.8 0-1.3.5-1.3 1.1 0 .6.5.9 1.5 1.3 1.3.5 2 1.2 2 2.3 0 1.4-1.1 2.3-2.9 2.3-.8 0-1.6-.2-2.2-.5l.3-1.1zM227.5 205.1v1h-4v-1h4zM235.6 198.9c-1.2 1.6-2 3.6-2 6.5 0 2.8.9 4.9 2 6.5h-1.1c-1-1.3-2.1-3.4-2.1-6.5 0-3.2 1.1-5.2 2.1-6.5h1.1zM236.9 208.5c.4.3 1.2.6 1.9.6 1 0 1.5-.5 1.5-1.2s-.4-1-1.4-1.4c-1.4-.5-2-1.3-2-2.2 0-1.2 1-2.3 2.7-2.3.8 0 1.5.2 1.9.5l-.4 1c-.3-.2-.9-.4-1.6-.4-.8 0-1.3.5-1.3 1.1 0 .6.5.9 1.5 1.3 1.3.5 2 1.2 2 2.3 0 1.4-1.1 2.3-2.9 2.3-.8 0-1.6-.2-2.2-.5l.3-1.1zM244.3 206.4c0 1.9 1.2 2.7 2.7 2.7 1 0 1.6-.2 2.1-.4l.2 1c-.5.2-1.3.5-2.6.5-2.4 0-3.8-1.6-3.8-3.9s1.4-4.2 3.6-4.2c2.5 0 3.2 2.2 3.2 3.6v.7h-5.4zm4.1-1.1c0-.9-.4-2.3-2-2.3-1.4 0-2 1.3-2.2 2.3h4.2zM252.3 206.4c0 1.9 1.2 2.7 2.7 2.7 1 0 1.6-.2 2.1-.4l.2 1c-.5.2-1.3.5-2.6.5-2.4 0-3.8-1.6-3.8-3.9s1.4-4.2 3.6-4.2c2.5 0 3.2 2.2 3.2 3.6v.7h-5.4zm4.1-1.1c0-.9-.4-2.3-2-2.3-1.4 0-2 1.3-2.2 2.3h4.2zM262.7 208.5c.4.3 1.2.6 1.9.6 1 0 1.5-.5 1.5-1.2s-.4-1-1.4-1.4c-1.4-.5-2-1.3-2-2.2 0-1.2 1-2.3 2.7-2.3.8 0 1.5.2 1.9.5l-.4 1c-.3-.2-.9-.4-1.6-.4-.8 0-1.3.5-1.3 1.1 0 .6.5.9 1.5 1.3 1.3.5 2 1.2 2 2.3 0 1.4-1.1 2.3-2.9 2.3-.8 0-1.6-.2-2.2-.5l.3-1.1zM270.8 200c0 .5-.3.9-.9.9-.5 0-.8-.4-.8-.9s.4-.9.9-.9c.5.1.8.5.8.9zm-1.6 10v-7.7h1.4v7.7h-1.4zM272.1 209.2l3.5-4.6c.3-.4.7-.8 1-1.2h-4.2v-1.1h5.9v.9l-3.5 4.5c-.3.4-.6.8-1 1.2h4.5v1.1H272v-.8zM280.5 206.4c0 1.9 1.2 2.7 2.7 2.7 1 0 1.6-.2 2.1-.4l.2 1c-.5.2-1.3.5-2.6.5-2.4 0-3.8-1.6-3.8-3.9s1.4-4.2 3.6-4.2c2.5 0 3.2 2.2 3.2 3.6v.7h-5.4zm4.1-1.1c0-.9-.4-2.3-2-2.3-1.4 0-2 1.3-2.2 2.3h4.2zM298.1 206c0 2.9-2 4.1-3.9 4.1-2.1 0-3.7-1.5-3.7-4 0-2.6 1.7-4.1 3.8-4.1 2.3.1 3.8 1.7 3.8 4zm-6.1.1c0 1.7 1 3 2.4 3 1.3 0 2.4-1.3 2.4-3 0-1.3-.7-3-2.3-3-1.8 0-2.5 1.5-2.5 3zM299.9 204.8c0-1 0-1.8-.1-2.5h1.3l.1 1.3c.6-.9 1.5-1.5 2.8-1.5 1.9 0 3.3 1.6 3.3 3.9 0 2.8-1.7 4.2-3.5 4.2-1 0-1.9-.4-2.4-1.2v4.2H300v-8.4zm1.4 2c0 .2 0 .4.1.6.3 1 1.1 1.6 2.1 1.6 1.5 0 2.4-1.2 2.4-3 0-1.6-.8-2.9-2.3-2.9-1 0-1.9.7-2.1 1.7 0 .2-.1.4-.1.6v1.4zM310.7 200v2.2h2v1.1h-2v4.2c0 1 .3 1.5 1.1 1.5.4 0 .6 0 .8-.1l.1 1.1c-.3.1-.7.2-1.2.2-.7 0-1.2-.2-1.5-.6-.4-.4-.5-1.1-.5-2v-4.2h-1.2v-1.1h1.2v-1.9l1.2-.4zM315.9 200c0 .5-.3.9-.9.9-.5 0-.8-.4-.8-.9s.4-.9.9-.9c.4.1.8.5.8.9zm-1.6 10v-7.7h1.4v7.7h-1.4zM325.1 206c0 2.9-2 4.1-3.9 4.1-2.1 0-3.7-1.5-3.7-4 0-2.6 1.7-4.1 3.8-4.1 2.2.1 3.8 1.7 3.8 4zm-6.2.1c0 1.7 1 3 2.4 3 1.3 0 2.4-1.3 2.4-3 0-1.3-.7-3-2.3-3-1.8 0-2.5 1.5-2.5 3zM326.8 204.3c0-.8 0-1.5-.1-2.1h1.2l.1 1.3c.4-.7 1.3-1.5 2.6-1.5 1.1 0 2.7.6 2.7 3.3v4.6H332v-4.5c0-1.2-.5-2.3-1.8-2.3-.9 0-1.6.7-1.9 1.4-.1.2-.1.4-.1.7v4.7h-1.4v-5.6zM335.5 208.5c.4.3 1.2.6 1.9.6 1 0 1.5-.5 1.5-1.2s-.4-1-1.4-1.4c-1.4-.5-2-1.3-2-2.2 0-1.2 1-2.3 2.7-2.3.8 0 1.5.2 1.9.5l-.4 1c-.3-.2-.9-.4-1.6-.4-.8 0-1.3.5-1.3 1.1 0 .6.5.9 1.5 1.3 1.3.5 2 1.2 2 2.3 0 1.4-1.1 2.3-2.9 2.3-.8 0-1.6-.2-2.2-.5l.3-1.1zM345.6 210v-6.7h-1.1v-1.1h1.1v-.4c0-1.1.2-2.1.9-2.7.5-.5 1.2-.7 1.9-.7.5 0 .9.1 1.2.2l-.2 1.1c-.2-.1-.5-.2-.9-.2-1.2 0-1.5 1.1-1.5 2.2v.4h1.9v1.1H347v6.7h-1.4zM356.9 206c0 2.9-2 4.1-3.9 4.1-2.1 0-3.7-1.5-3.7-4 0-2.6 1.7-4.1 3.8-4.1 2.3.1 3.8 1.7 3.8 4zm-6.1.1c0 1.7 1 3 2.4 3 1.3 0 2.4-1.3 2.4-3 0-1.3-.7-3-2.3-3-1.8 0-2.5 1.5-2.5 3zM358.7 204.6c0-.9 0-1.7-.1-2.4h1.2v1.5h.1c.4-1 1.2-1.7 2.1-1.7h.4v1.3h-.5c-1 0-1.7.8-1.9 1.8 0 .2-.1.4-.1.7v4.1h-1.4v-5.3zM367.3 198.6h1.4V210h-1.4v-11.4zM378.1 206c0 2.9-2 4.1-3.9 4.1-2.1 0-3.7-1.5-3.7-4 0-2.6 1.7-4.1 3.8-4.1 2.3.1 3.8 1.7 3.8 4zm-6.2.1c0 1.7 1 3 2.4 3 1.3 0 2.4-1.3 2.4-3 0-1.3-.7-3-2.3-3-1.7 0-2.5 1.5-2.5 3zM386.5 202.2c0 .6-.1 1.2-.1 2.1v4.5c0 1.8-.4 2.9-1.1 3.5-.8.7-1.8.9-2.8.9-.9 0-2-.2-2.6-.6l.4-1.1c.5.3 1.3.6 2.3.6 1.4 0 2.5-.8 2.5-2.7v-.9c-.4.7-1.3 1.3-2.5 1.3-1.9 0-3.3-1.6-3.3-3.8 0-2.6 1.7-4.1 3.5-4.1 1.3 0 2.1.7 2.4 1.3l.1-1.2h1.2zm-1.4 3.1c0-.2 0-.4-.1-.6-.3-.8-.9-1.5-2-1.5-1.3 0-2.3 1.1-2.3 2.9 0 1.5.8 2.8 2.3 2.8.9 0 1.6-.5 2-1.4.1-.2.1-.5.1-.8v-1.4zM395.8 206c0 2.9-2 4.1-3.9 4.1-2.1 0-3.7-1.5-3.7-4 0-2.6 1.7-4.1 3.8-4.1 2.3.1 3.8 1.7 3.8 4zm-6.1.1c0 1.7 1 3 2.4 3 1.3 0 2.4-1.3 2.4-3 0-1.3-.7-3-2.3-3-1.8 0-2.5 1.5-2.5 3zM401.5 202.2l1 3.9c.2.9.4 1.7.6 2.5.2-.8.4-1.6.7-2.4l1.3-4h1.2l1.2 3.9c.3.9.5 1.7.7 2.5.1-.8.3-1.6.6-2.5l1.1-3.9h1.4l-2.5 7.7h-1.3l-1.2-3.7c-.3-.9-.5-1.6-.7-2.5-.2.9-.4 1.7-.7 2.6l-1.2 3.7h-1.3l-2.3-7.7h1.4zM414.3 200c0 .5-.3.9-.9.9-.5 0-.8-.4-.8-.9s.4-.9.9-.9c.5.1.8.5.8.9zm-1.5 10v-7.7h1.4v7.7h-1.4zM418.2 200v2.2h2v1.1h-2v4.2c0 1 .3 1.5 1.1 1.5.4 0 .6 0 .8-.1l.1 1.1c-.3.1-.7.2-1.2.2-.7 0-1.2-.2-1.5-.6-.4-.4-.5-1.1-.5-2v-4.2h-1.2v-1.1h1.2v-1.9l1.2-.4zM421.8 198.6h1.4v4.8c.2-.4.6-.8 1-1 .4-.2.9-.4 1.4-.4 1 0 2.7.6 2.7 3.3v4.6H427v-4.4c0-1.2-.5-2.3-1.8-2.3-.9 0-1.6.6-1.9 1.4-.1.2-.1.4-.1.7v4.7h-1.4v-11.4zM434.6 202.2l1 3.9c.2.9.4 1.7.6 2.5.2-.8.4-1.6.7-2.4l1.3-4h1.2l1.2 3.9c.3.9.5 1.7.7 2.5.1-.8.3-1.6.6-2.5l1.1-3.9h1.4l-2.5 7.7h-1.3l-1.2-3.7c-.3-.9-.5-1.6-.7-2.5-.2.9-.4 1.7-.7 2.6l-1.2 3.7h-1.3l-2.3-7.7h1.4zM445.8 198.6h1.4v4.8c.2-.4.6-.8 1-1 .4-.2.9-.4 1.4-.4 1 0 2.7.6 2.7 3.3v4.6H451v-4.4c0-1.2-.5-2.3-1.8-2.3-.9 0-1.6.6-1.9 1.4-.1.2-.1.4-.1.7v4.7h-1.4v-11.4zM456.3 200c0 .5-.3.9-.9.9-.5 0-.8-.4-.8-.9s.4-.9.9-.9c.5.1.8.5.8.9zm-1.6 10v-7.7h1.4v7.7h-1.4zM460.2 200v2.2h2v1.1h-2v4.2c0 1 .3 1.5 1.1 1.5.4 0 .6 0 .8-.1l.1 1.1c-.3.1-.7.2-1.2.2-.7 0-1.2-.2-1.5-.6-.4-.4-.5-1.1-.5-2v-4.2h-1.2v-1.1h1.2v-1.9l1.2-.4zM464.5 206.4c0 1.9 1.2 2.7 2.7 2.7 1 0 1.6-.2 2.1-.4l.2 1c-.5.2-1.3.5-2.6.5-2.4 0-3.8-1.6-3.8-3.9s1.4-4.2 3.6-4.2c2.5 0 3.2 2.2 3.2 3.6v.7h-5.4zm4.1-1.1c0-.9-.4-2.3-2-2.3-1.4 0-2 1.3-2.2 2.3h4.2zM475 210c0-.5.1-1.3.1-2v-9.4h1.4v4.9c.5-.9 1.4-1.4 2.6-1.4 1.9 0 3.3 1.6 3.3 4 0 2.8-1.7 4.1-3.5 4.1-1.1 0-2-.4-2.6-1.5l-.1 1.3H475zm1.5-3.1c0 .2 0 .4.1.5.3 1 1.1 1.6 2.1 1.6 1.5 0 2.4-1.2 2.4-3 0-1.6-.8-2.9-2.3-2.9-1 0-1.9.7-2.1 1.7 0 .2-.1.4-.1.6v1.5zM488.5 210l-.1-1c-.4.6-1.3 1.2-2.4 1.2-1.6 0-2.4-1.1-2.4-2.2 0-1.9 1.7-2.9 4.7-2.9v-.2c0-.6-.2-1.8-1.8-1.8-.7 0-1.5.2-2 .6l-.3-.9c.6-.4 1.6-.7 2.5-.7 2.4 0 2.9 1.6 2.9 3.2v2.9c0 .7 0 1.3.1 1.9h-1.2zm-.2-4c-1.5 0-3.3.2-3.3 1.7 0 .9.6 1.3 1.3 1.3 1 0 1.6-.6 1.9-1.3 0-.1.1-.3.1-.4V206zM497.4 209.7c-.4.2-1.2.4-2.2.4-2.3 0-3.9-1.6-3.9-4s1.6-4.1 4.2-4.1c.8 0 1.6.2 2 .4l-.3 1.1c-.3-.2-.9-.4-1.6-.4-1.8 0-2.7 1.3-2.7 2.9 0 1.8 1.2 2.9 2.7 2.9.8 0 1.3-.2 1.7-.4l.1 1.2zM500.5 205.8c.2-.3.5-.6.7-.9l2.3-2.7h1.7l-3 3.2 3.4 4.6h-1.7l-2.7-3.7-.7.8v2.9h-1.4v-11.4h1.4v7.2zM513.2 202.2c0 .6-.1 1.2-.1 2.1v4.5c0 1.8-.4 2.9-1.1 3.5-.8.7-1.8.9-2.8.9-.9 0-2-.2-2.6-.6l.4-1.1c.5.3 1.3.6 2.3.6 1.4 0 2.5-.8 2.5-2.7v-.9c-.4.7-1.3 1.3-2.5 1.3-1.9 0-3.3-1.6-3.3-3.8 0-2.6 1.7-4.1 3.5-4.1 1.3 0 2.1.7 2.4 1.3l.1-1.2h1.2zm-1.4 3.1c0-.2 0-.4-.1-.6-.3-.8-.9-1.5-2-1.5-1.3 0-2.3 1.1-2.3 2.9 0 1.5.8 2.8 2.3 2.8.9 0 1.6-.5 2-1.4.1-.2.1-.5.1-.8v-1.4zM515.4 204.6c0-.9 0-1.7-.1-2.4h1.2v1.5h.1c.4-1 1.2-1.7 2.1-1.7h.4v1.3h-.5c-1 0-1.7.8-1.9 1.8 0 .2-.1.4-.1.7v4.1h-1.4v-5.3zM527.5 206c0 2.9-2 4.1-3.9 4.1-2.1 0-3.7-1.5-3.7-4 0-2.6 1.7-4.1 3.8-4.1 2.3.1 3.8 1.7 3.8 4zm-6.1.1c0 1.7 1 3 2.4 3 1.3 0 2.4-1.3 2.4-3 0-1.3-.7-3-2.3-3-1.8 0-2.5 1.5-2.5 3zM535.8 207.9c0 .8 0 1.5.1 2.1h-1.2l-.1-1.3c-.4.6-1.2 1.4-2.6 1.4-1.2 0-2.7-.7-2.7-3.4v-4.5h1.4v4.3c0 1.5.4 2.5 1.7 2.5.9 0 1.6-.7 1.9-1.3.1-.2.1-.5.1-.7v-4.8h1.4v5.7zM538.1 204.3c0-.8 0-1.5-.1-2.1h1.2l.1 1.3c.4-.7 1.3-1.5 2.6-1.5 1.1 0 2.7.6 2.7 3.3v4.6h-1.4v-4.5c0-1.2-.5-2.3-1.8-2.3-.9 0-1.6.7-1.9 1.4-.1.2-.1.4-.1.7v4.7H538v-5.6zM553.7 198.6v9.4c0 .7 0 1.5.1 2h-1.3l-.1-1.3c-.4.9-1.4 1.5-2.6 1.5-1.9 0-3.3-1.6-3.3-3.9 0-2.6 1.6-4.2 3.5-4.2 1.2 0 2 .6 2.3 1.2v-4.6h1.4zm-1.5 6.8c0-.2 0-.4-.1-.6-.2-.9-1-1.6-2-1.6-1.5 0-2.3 1.3-2.3 3 0 1.6.8 2.9 2.3 2.9.9 0 1.8-.6 2.1-1.7 0-.2.1-.4.1-.6v-1.4zM555.1 211.9c1.1-1.6 2-3.7 2-6.5 0-2.9-.9-4.9-2-6.5h1.1c1 1.3 2.1 3.4 2.1 6.5s-1.1 5.2-2.1 6.5h-1.1z"/></g><path class="st6" d="M18.9 367.9h288v133.4h-288z"/><path class="st7" d="M321.9 367.9h288v133.4h-288z"/><g><path class="st8" d="M54.9 433.8v-26.6h20.9v5.2H61v5.4h13v5.2H61v5.6h15v5.2H54.9zM90.3 433.8v-2.2c-1.5 1.6-3.5 2.6-6.4 2.6-4 0-7.3-2.2-7.3-6.2v-.1c0-4.4 3.5-6.5 8.5-6.5 2.1 0 3.7.3 5.2.8v-.3c0-2.4-1.5-3.7-4.5-3.7-2.3 0-3.9.4-5.8 1.1l-1.5-4.4c2.3-1 4.6-1.6 8.2-1.6 6.6 0 9.4 3.3 9.4 8.8v11.8h-5.8zm.1-8.2c-1-.5-2.4-.8-3.8-.8-2.6 0-4.1 1-4.1 2.8v.1c0 1.6 1.3 2.5 3.3 2.5 2.8 0 4.7-1.5 4.7-3.6v-1zM105.4 434.2c-3.7 0-6.2-1.4-6.2-6.1v-9.6h-2.5v-4.9h2.5v-5.2h6v5.2h5v4.9h-5v8.7c0 1.3.6 2 1.9 2 1.1 0 2.1-.3 3-.7v4.6c-1.2.6-2.7 1.1-4.7 1.1z"/><path class="st1" d="M125.9 434.2c-4.2 0-8.4-1.4-11.7-4.3l3.6-4.1c2.5 2 5.1 3.2 8.3 3.2 2.5 0 4-.9 4-2.5v-.1c0-1.5-.9-2.2-5.6-3.4-5.6-1.4-9.2-2.8-9.2-8.1v-.1c0-4.8 4-8 9.7-8 4 0 7.5 1.2 10.3 3.4l-3.2 4.4c-2.4-1.6-4.9-2.6-7.2-2.6s-3.6 1-3.6 2.3v.1c0 1.7 1.2 2.3 6 3.5 5.6 1.4 8.8 3.3 8.8 8v.1c-.1 5.3-4.3 8.2-10.2 8.2zM165 433.8v-11.3c0-2.7-1.3-4.1-3.5-4.1-2.3 0-3.6 1.4-3.6 4.1v11.3h-6v-11.3c0-2.7-1.3-4.1-3.5-4.1-2.3 0-3.6 1.4-3.6 4.1v11.3h-6v-20.3h6v2.9c1.4-1.7 3.2-3.3 6.2-3.3 2.8 0 4.9 1.2 6 3.2 1.9-2.1 4.1-3.2 7-3.2 4.5 0 7.1 2.6 7.1 7.5v13.2H165zM186.7 433.8v-2.2c-1.5 1.6-3.5 2.6-6.4 2.6-4 0-7.3-2.2-7.3-6.2v-.1c0-4.4 3.5-6.5 8.5-6.5 2.1 0 3.7.3 5.2.8v-.3c0-2.4-1.5-3.7-4.5-3.7-2.3 0-3.9.4-5.8 1.1l-1.5-4.4c2.3-1 4.6-1.6 8.2-1.6 6.6 0 9.4 3.3 9.4 8.8v11.8h-5.8zm.1-8.2c-1-.5-2.4-.8-3.8-.8-2.6 0-4.1 1-4.1 2.8v.1c0 1.6 1.3 2.5 3.3 2.5 2.8 0 4.7-1.5 4.7-3.6v-1zM208.1 419.2c-4 0-6.4 2.3-6.4 7.2v7.5h-6v-20.3h6v4.1c1.2-2.8 3.2-4.6 6.8-4.5v6h-.4zM218.9 434.2c-3.7 0-6.2-1.4-6.2-6.1v-9.6h-2.5v-4.9h2.5v-5.2h6v5.2h5v4.9h-5v8.7c0 1.3.6 2 1.9 2 1.1 0 2.1-.3 3-.7v4.6c-1.2.6-2.7 1.1-4.7 1.1z"/><g><path class="st1" d="m204.2 461.9 2.2-17.2-9.2 11.3h-.2l-6.3-11.1-2.2 17.1h-6l3.4-26.4h6.6l5.8 11.1 8.7-11.2h6.6l-3.4 26.4h-6zM223.7 462.3c-6.6 0-10.8-4.6-10.1-10.4v-.1c.8-5.8 6.3-10.5 12.8-10.5 6.6 0 10.8 4.6 10.1 10.4v.1c-.7 5.7-6.2 10.5-12.8 10.5zm6.9-10.5c.4-3-1.5-5.6-4.8-5.6-3.4 0-5.8 2.5-6.2 5.5v.1c-.4 3 1.5 5.6 4.8 5.6 3.5 0 5.9-2.6 6.2-5.6zM251.1 447.2c-4 0-6.7 2.3-7.4 7.1l-1 7.5h-6l2.6-20.2h6l-.5 4.1c1.6-2.8 3.8-4.6 7.3-4.5l-.8 6h-.2zM270.5 453.6l-14.7.1c.3 2.6 2 3.9 4.7 3.9 2 0 3.6-.6 5.4-2.1l3.1 2.9c-2.3 2.3-5.3 3.8-9.1 3.8-6.4 0-10.5-4.2-9.7-10.4v-.1c.7-5.8 5.7-10.5 11.8-10.5 7.1 0 9.6 5.2 8.9 10.9v.1c-.2.5-.2.9-.4 1.4zm-9.2-7.8c-2.5 0-4.3 1.7-5.1 4.3h9c0-2.6-1.3-4.4-3.9-4.3z"/></g><g><path class="st8" d="m107.4 461.9 2.2-17.2-9.2 11.3h-.2l-6.3-11.1-2.2 17.1h-6l3.4-26.4h6.6l5.8 11.1 8.7-11.2h6.6l-3.4 26.4h-6zM126.9 462.3c-6.6 0-10.8-4.6-10.1-10.4v-.1c.7-5.8 6.3-10.5 12.8-10.5 6.6 0 10.8 4.6 10.1 10.4v.1c-.7 5.8-6.2 10.5-12.8 10.5zm6.9-10.5c.4-3-1.5-5.6-4.8-5.6-3.4 0-5.8 2.5-6.2 5.5v.1c-.4 3 1.5 5.6 4.8 5.6 3.4 0 5.8-2.6 6.2-5.6zM150.6 461.9h-5.5l-5.7-20.3h6.4l3 13.5 6.5-13.5h6.2l-10.9 20.3zM179.1 453.6l-14.7.1c.3 2.6 2 3.9 4.7 3.9 2 0 3.6-.6 5.4-2.1l3.1 2.9c-2.3 2.3-5.3 3.8-9.1 3.8-6.4 0-10.5-4.2-9.7-10.4v-.1c.7-5.8 5.7-10.5 11.8-10.5 7.1 0 9.6 5.2 8.9 10.9v.1c-.2.5-.3.9-.4 1.4zm-9.2-7.9c-2.5 0-4.3 1.7-5.1 4.3h9c0-2.5-1.4-4.3-3.9-4.3z"/></g></g><path class="st6" d="M18.9 652.2h288v133.4h-288z"/><path class="st7" d="M321.9 652.2h288v133.4h-288z"/><g><path class="st8" d="M54.9 718.1v-26.6h20.9v5.2H61v5.4h13v5.2H61v5.6h15v5.2H54.9zM90.3 718.1v-2.2c-1.5 1.6-3.5 2.6-6.4 2.6-4 0-7.3-2.2-7.3-6.2v-.1c0-4.4 3.5-6.5 8.5-6.5 2.1 0 3.7.3 5.2.8v-.3c0-2.4-1.5-3.7-4.5-3.7-2.3 0-3.9.4-5.8 1.1l-1.5-4.4c2.3-1 4.6-1.6 8.2-1.6 6.6 0 9.4 3.3 9.4 8.8v11.8h-5.8zm.1-8.2c-1-.5-2.4-.8-3.8-.8-2.6 0-4.1 1-4.1 2.8v.1c0 1.6 1.3 2.5 3.3 2.5 2.8 0 4.7-1.5 4.7-3.6v-1zM105.4 718.5c-3.7 0-6.2-1.4-6.2-6.1v-9.6h-2.5v-4.9h2.5v-5.2h6v5.2h5v4.9h-5v8.7c0 1.3.6 2 1.9 2 1.1 0 2.1-.3 3-.7v4.6c-1.2.6-2.7 1.1-4.7 1.1zM125.9 718.5c-4.2 0-8.4-1.4-11.7-4.3l3.6-4.1c2.5 2 5.1 3.2 8.3 3.2 2.5 0 4-.9 4-2.5v-.1c0-1.5-.9-2.2-5.6-3.4-5.6-1.4-9.2-2.8-9.2-8.1v-.1c0-4.8 4-8 9.7-8 4 0 7.5 1.2 10.3 3.4L132 699c-2.4-1.6-4.9-2.6-7.2-2.6s-3.6 1-3.6 2.3v.1c0 1.7 1.2 2.3 6 3.5 5.6 1.4 8.8 3.3 8.8 8v.1c0 5.2-4.2 8.1-10.1 8.1zM165 718.1v-11.3c0-2.7-1.3-4.1-3.5-4.1-2.3 0-3.6 1.4-3.6 4.1v11.3h-6v-11.3c0-2.7-1.3-4.1-3.5-4.1-2.3 0-3.6 1.4-3.6 4.1v11.3h-6v-20.3h6v2.9c1.4-1.7 3.2-3.3 6.2-3.3 2.8 0 4.9 1.2 6 3.2 1.9-2.1 4.1-3.2 7-3.2 4.5 0 7.1 2.6 7.1 7.5v13.2H165zM186.7 718.1v-2.2c-1.5 1.6-3.5 2.6-6.4 2.6-4 0-7.3-2.2-7.3-6.2v-.1c0-4.4 3.5-6.5 8.5-6.5 2.1 0 3.7.3 5.2.8v-.3c0-2.4-1.5-3.7-4.5-3.7-2.3 0-3.9.4-5.8 1.1l-1.5-4.4c2.3-1 4.6-1.6 8.2-1.6 6.6 0 9.4 3.3 9.4 8.8v11.8h-5.8zm.1-8.2c-1-.5-2.4-.8-3.8-.8-2.6 0-4.1 1-4.1 2.8v.1c0 1.6 1.3 2.5 3.3 2.5 2.8 0 4.7-1.5 4.7-3.6v-1zM208.1 703.5c-4 0-6.4 2.3-6.4 7.2v7.5h-6v-20.3h6v4.1c1.2-2.8 3.2-4.6 6.8-4.5v6h-.4zM218.9 718.5c-3.7 0-6.2-1.4-6.2-6.1v-9.6h-2.5v-4.9h2.5v-5.2h6v5.2h5v4.9h-5v8.7c0 1.3.6 2 1.9 2 1.1 0 2.1-.3 3-.7v4.6c-1.2.6-2.7 1.1-4.7 1.1z"/><g><path class="st8" d="m204.2 746.2 2.2-17.2-9.2 11.3h-.2l-6.3-11.1-2.2 17.1h-6l3.4-26.4h6.6l5.8 11.1 8.7-11.2h6.6l-3.4 26.4h-6zM223.7 746.6c-6.6 0-10.8-4.6-10.1-10.4v-.1c.8-5.8 6.3-10.5 12.8-10.5 6.6 0 10.8 4.6 10.1 10.4v.1c-.7 5.7-6.2 10.5-12.8 10.5zm6.9-10.5c.4-3-1.5-5.6-4.8-5.6-3.4 0-5.8 2.5-6.2 5.5v.1c-.4 3 1.5 5.6 4.8 5.6 3.5-.1 5.9-2.6 6.2-5.6zM251.1 731.5c-4 0-6.7 2.3-7.4 7.1l-1 7.5h-6l2.6-20.2h6l-.5 4.1c1.6-2.8 3.8-4.6 7.3-4.5l-.8 6h-.2zM270.5 737.9l-14.7.1c.3 2.6 2 3.9 4.7 3.9 2 0 3.6-.6 5.4-2.1l3.1 2.9c-2.3 2.3-5.3 3.8-9.1 3.8-6.4 0-10.5-4.2-9.7-10.4v-.1c.7-5.8 5.7-10.5 11.8-10.5 7.1 0 9.6 5.2 8.9 10.9v.1c-.2.5-.2.9-.4 1.4zm-9.2-7.8c-2.5 0-4.3 1.7-5.1 4.3h9c0-2.6-1.3-4.4-3.9-4.3z"/></g><g><path class="st8" d="m107.4 746.2 2.2-17.2-9.2 11.3h-.2l-6.3-11.1-2.2 17.1h-6l3.4-26.4h6.6l5.8 11.1 8.7-11.2h6.6l-3.4 26.4h-6zM126.9 746.6c-6.6 0-10.8-4.6-10.1-10.4v-.1c.7-5.8 6.3-10.5 12.8-10.5 6.6 0 10.8 4.6 10.1 10.4v.1c-.7 5.8-6.2 10.5-12.8 10.5zm6.9-10.5c.4-3-1.5-5.6-4.8-5.6-3.4 0-5.8 2.5-6.2 5.5v.1c-.4 3 1.5 5.6 4.8 5.6 3.4 0 5.8-2.6 6.2-5.6zM150.6 746.2h-5.5l-5.7-20.3h6.4l3 13.5 6.5-13.5h6.2l-10.9 20.3zM179.1 737.9l-14.7.1c.3 2.6 2 3.9 4.7 3.9 2 0 3.6-.6 5.4-2.1l3.1 2.9c-2.3 2.3-5.3 3.8-9.1 3.8-6.4 0-10.5-4.2-9.7-10.4v-.1c.7-5.8 5.7-10.5 11.8-10.5 7.1 0 9.6 5.2 8.9 10.9v.1c-.2.5-.3.8-.4 1.4zm-9.2-7.9c-2.5 0-4.3 1.7-5.1 4.3h9c0-2.5-1.4-4.3-3.9-4.3z"/></g></g><g><path class="st8" d="M357.9 718.1v-26.6h20.9v5.2H364v5.4h13v5.2h-13v5.6h15v5.2h-21.1zM393.3 718.1v-2.2c-1.5 1.6-3.5 2.6-6.4 2.6-4 0-7.3-2.2-7.3-6.2v-.1c0-4.4 3.5-6.5 8.5-6.5 2.1 0 3.7.3 5.2.8v-.3c0-2.4-1.5-3.7-4.5-3.7-2.3 0-3.9.4-5.8 1.1l-1.5-4.4c2.3-1 4.6-1.6 8.2-1.6 6.6 0 9.4 3.3 9.4 8.8v11.8h-5.8zm.1-8.2c-1-.5-2.4-.8-3.8-.8-2.6 0-4.1 1-4.1 2.8v.1c0 1.6 1.3 2.5 3.3 2.5 2.8 0 4.7-1.5 4.7-3.6v-1zM408.4 718.5c-3.7 0-6.2-1.4-6.2-6.1v-9.6h-2.5v-4.9h2.5v-5.2h6v5.2h5v4.9h-5v8.7c0 1.3.6 2 1.9 2 1.1 0 2.1-.3 3-.7v4.6c-1.3.6-2.7 1.1-4.7 1.1zM428.8 718.5c-4.2 0-8.4-1.4-11.7-4.3l3.6-4.1c2.5 2 5.1 3.2 8.3 3.2 2.5 0 4-.9 4-2.5v-.1c0-1.5-.9-2.2-5.6-3.4-5.6-1.4-9.2-2.8-9.2-8.1v-.1c0-4.8 4-8 9.7-8 4 0 7.5 1.2 10.3 3.4L435 699c-2.4-1.6-4.9-2.6-7.2-2.6s-3.6 1-3.6 2.3v.1c0 1.7 1.2 2.3 6 3.5 5.6 1.4 8.8 3.3 8.8 8v.1c0 5.2-4.2 8.1-10.2 8.1zM468 718.1v-11.3c0-2.7-1.3-4.1-3.5-4.1-2.3 0-3.6 1.4-3.6 4.1v11.3h-6v-11.3c0-2.7-1.3-4.1-3.5-4.1-2.3 0-3.6 1.4-3.6 4.1v11.3h-6v-20.3h6v2.9c1.4-1.7 3.2-3.3 6.2-3.3 2.8 0 4.9 1.2 6 3.2 1.9-2.1 4.1-3.2 7-3.2 4.5 0 7.1 2.6 7.1 7.5v13.2H468zM489.6 718.1v-2.2c-1.5 1.6-3.5 2.6-6.4 2.6-4 0-7.3-2.2-7.3-6.2v-.1c0-4.4 3.5-6.5 8.5-6.5 2.1 0 3.7.3 5.2.8v-.3c0-2.4-1.5-3.7-4.5-3.7-2.3 0-3.9.4-5.8 1.1l-1.5-4.4c2.3-1 4.6-1.6 8.2-1.6 6.6 0 9.4 3.3 9.4 8.8v11.8h-5.8zm.1-8.2c-1-.5-2.4-.8-3.8-.8-2.6 0-4.1 1-4.1 2.8v.1c0 1.6 1.3 2.5 3.3 2.5 2.8 0 4.7-1.5 4.7-3.6v-1zM511.1 703.5c-4 0-6.4 2.3-6.4 7.2v7.5h-6v-20.3h6v4.1c1.2-2.8 3.2-4.6 6.8-4.5v6h-.4zM521.9 718.5c-3.7 0-6.2-1.4-6.2-6.1v-9.6h-2.5v-4.9h2.5v-5.2h6v5.2h5v4.9h-5v8.7c0 1.3.6 2 1.9 2 1.1 0 2.1-.3 3-.7v4.6c-1.3.6-2.7 1.1-4.7 1.1z"/><g><path class="st8" d="m507.2 746.2 2.2-17.2-9.2 11.3h-.2l-6.3-11.1-2.2 17.1h-6l3.4-26.4h6.6l5.8 11.1 8.7-11.2h6.6l-3.4 26.4h-6zM526.7 746.6c-6.6 0-10.8-4.6-10.1-10.4v-.1c.8-5.8 6.3-10.5 12.8-10.5 6.6 0 10.8 4.6 10.1 10.4v.1c-.7 5.7-6.2 10.5-12.8 10.5zm6.9-10.5c.4-3-1.5-5.6-4.8-5.6-3.4 0-5.8 2.5-6.2 5.5v.1c-.4 3 1.5 5.6 4.8 5.6 3.4-.1 5.8-2.6 6.2-5.6zM554 731.5c-4 0-6.7 2.3-7.4 7.1l-1 7.5h-6l2.6-20.2h6l-.5 4.1c1.6-2.8 3.8-4.6 7.3-4.5l-.8 6h-.2zM573.5 737.9l-14.7.1c.3 2.6 2 3.9 4.7 3.9 2 0 3.6-.6 5.4-2.1l3.1 2.9c-2.3 2.3-5.3 3.8-9.1 3.8-6.4 0-10.5-4.2-9.7-10.4v-.1c.7-5.8 5.7-10.5 11.8-10.5 7.1 0 9.6 5.2 8.9 10.9v.1c-.2.5-.3.9-.4 1.4zm-9.2-7.8c-2.5 0-4.3 1.7-5.1 4.3h9c0-2.6-1.4-4.4-3.9-4.3z"/></g><g><path class="st8" d="m410.3 746.2 2.2-17.2-9.2 11.3h-.2l-6.3-11.1-2.2 17.1h-6l3.4-26.4h6.6l5.8 11.1 8.7-11.2h6.6l-3.4 26.4h-6zM429.8 746.6c-6.6 0-10.8-4.6-10.1-10.4v-.1c.7-5.8 6.3-10.5 12.8-10.5 6.6 0 10.8 4.6 10.1 10.4v.1c-.7 5.8-6.2 10.5-12.8 10.5zm7-10.5c.4-3-1.5-5.6-4.8-5.6-3.4 0-5.8 2.5-6.2 5.5v.1c-.4 3 1.5 5.6 4.8 5.6 3.4 0 5.8-2.6 6.2-5.6zM453.6 746.2h-5.5l-5.7-20.3h6.4l3 13.5 6.5-13.5h6.2l-10.9 20.3zM482.1 737.9l-14.7.1c.3 2.6 2 3.9 4.7 3.9 2 0 3.6-.6 5.4-2.1l3.1 2.9c-2.3 2.3-5.3 3.8-9.1 3.8-6.4 0-10.5-4.2-9.7-10.4v-.1c.7-5.8 5.7-10.5 11.8-10.5 7.1 0 9.6 5.2 8.9 10.9v.1c-.2.5-.3.8-.4 1.4zm-9.2-7.9c-2.5 0-4.3 1.7-5.1 4.3h9c0-2.5-1.4-4.3-3.9-4.3z"/></g></g><g><path class="st8" d="M357.9 433.8v-26.6h20.9v5.2H364v5.4h13v5.2h-13v5.6h15v5.2h-21.1zM393.3 433.8v-2.2c-1.5 1.6-3.5 2.6-6.4 2.6-4 0-7.3-2.2-7.3-6.2v-.1c0-4.4 3.5-6.5 8.5-6.5 2.1 0 3.7.3 5.2.8v-.3c0-2.4-1.5-3.7-4.5-3.7-2.3 0-3.9.4-5.8 1.1l-1.5-4.4c2.3-1 4.6-1.6 8.2-1.6 6.6 0 9.4 3.3 9.4 8.8v11.8h-5.8zm.1-8.2c-1-.5-2.4-.8-3.8-.8-2.6 0-4.1 1-4.1 2.8v.1c0 1.6 1.3 2.5 3.3 2.5 2.8 0 4.7-1.5 4.7-3.6v-1zM408.4 434.2c-3.7 0-6.2-1.4-6.2-6.1v-9.6h-2.5v-4.9h2.5v-5.2h6v5.2h5v4.9h-5v8.7c0 1.3.6 2 1.9 2 1.1 0 2.1-.3 3-.7v4.6c-1.3.6-2.7 1.1-4.7 1.1z"/><path class="st1" d="M428.8 434.2c-4.2 0-8.4-1.4-11.7-4.3l3.6-4.1c2.5 2 5.1 3.2 8.3 3.2 2.5 0 4-.9 4-2.5v-.1c0-1.5-.9-2.2-5.6-3.4-5.6-1.4-9.2-2.8-9.2-8.1v-.1c0-4.8 4-8 9.7-8 4 0 7.5 1.2 10.3 3.4l-3.2 4.4c-2.4-1.6-4.9-2.6-7.2-2.6s-3.6 1-3.6 2.3v.1c0 1.7 1.2 2.3 6 3.5 5.6 1.4 8.8 3.3 8.8 8v.1c0 5.3-4.2 8.2-10.2 8.2zM468 433.8v-11.3c0-2.7-1.3-4.1-3.5-4.1-2.3 0-3.6 1.4-3.6 4.1v11.3h-6v-11.3c0-2.7-1.3-4.1-3.5-4.1-2.3 0-3.6 1.4-3.6 4.1v11.3h-6v-20.3h6v2.9c1.4-1.7 3.2-3.3 6.2-3.3 2.8 0 4.9 1.2 6 3.2 1.9-2.1 4.1-3.2 7-3.2 4.5 0 7.1 2.6 7.1 7.5v13.2H468zM489.6 433.8v-2.2c-1.5 1.6-3.5 2.6-6.4 2.6-4 0-7.3-2.2-7.3-6.2v-.1c0-4.4 3.5-6.5 8.5-6.5 2.1 0 3.7.3 5.2.8v-.3c0-2.4-1.5-3.7-4.5-3.7-2.3 0-3.9.4-5.8 1.1l-1.5-4.4c2.3-1 4.6-1.6 8.2-1.6 6.6 0 9.4 3.3 9.4 8.8v11.8h-5.8zm.1-8.2c-1-.5-2.4-.8-3.8-.8-2.6 0-4.1 1-4.1 2.8v.1c0 1.6 1.3 2.5 3.3 2.5 2.8 0 4.7-1.5 4.7-3.6v-1zM511.1 419.2c-4 0-6.4 2.3-6.4 7.2v7.5h-6v-20.3h6v4.1c1.2-2.8 3.2-4.6 6.8-4.5v6h-.4zM521.9 434.2c-3.7 0-6.2-1.4-6.2-6.1v-9.6h-2.5v-4.9h2.5v-5.2h6v5.2h5v4.9h-5v8.7c0 1.3.6 2 1.9 2 1.1 0 2.1-.3 3-.7v4.6c-1.3.6-2.7 1.1-4.7 1.1z"/><g><path class="st1" d="m507.2 461.9 2.2-17.2-9.2 11.3h-.2l-6.3-11.1-2.2 17.1h-6l3.4-26.4h6.6l5.8 11.1 8.7-11.2h6.6l-3.4 26.4h-6zM526.7 462.3c-6.6 0-10.8-4.6-10.1-10.4v-.1c.8-5.8 6.3-10.5 12.8-10.5 6.6 0 10.8 4.6 10.1 10.4v.1c-.7 5.7-6.2 10.5-12.8 10.5zm6.9-10.5c.4-3-1.5-5.6-4.8-5.6-3.4 0-5.8 2.5-6.2 5.5v.1c-.4 3 1.5 5.6 4.8 5.6 3.4 0 5.8-2.6 6.2-5.6zM554 447.2c-4 0-6.7 2.3-7.4 7.1l-1 7.5h-6l2.6-20.2h6l-.5 4.1c1.6-2.8 3.8-4.6 7.3-4.5l-.8 6h-.2zM573.5 453.6l-14.7.1c.3 2.6 2 3.9 4.7 3.9 2 0 3.6-.6 5.4-2.1l3.1 2.9c-2.3 2.3-5.3 3.8-9.1 3.8-6.4 0-10.5-4.2-9.7-10.4v-.1c.7-5.8 5.7-10.5 11.8-10.5 7.1 0 9.6 5.2 8.9 10.9v.1c-.2.5-.3.9-.4 1.4zm-9.2-7.8c-2.5 0-4.3 1.7-5.1 4.3h9c0-2.6-1.4-4.4-3.9-4.3z"/></g><g><path class="st8" d="m410.3 461.9 2.2-17.2-9.2 11.3h-.2l-6.3-11.1-2.2 17.1h-6l3.4-26.4h6.6l5.8 11.1 8.7-11.2h6.6l-3.4 26.4h-6zM429.8 462.3c-6.6 0-10.8-4.6-10.1-10.4v-.1c.7-5.8 6.3-10.5 12.8-10.5 6.6 0 10.8 4.6 10.1 10.4v.1c-.7 5.8-6.2 10.5-12.8 10.5zm7-10.5c.4-3-1.5-5.6-4.8-5.6-3.4 0-5.8 2.5-6.2 5.5v.1c-.4 3 1.5 5.6 4.8 5.6 3.4 0 5.8-2.6 6.2-5.6zM453.6 461.9h-5.5l-5.7-20.3h6.4l3 13.5 6.5-13.5h6.2l-10.9 20.3zM482.1 453.6l-14.7.1c.3 2.6 2 3.9 4.7 3.9 2 0 3.6-.6 5.4-2.1l3.1 2.9c-2.3 2.3-5.3 3.8-9.1 3.8-6.4 0-10.5-4.2-9.7-10.4v-.1c.7-5.8 5.7-10.5 11.8-10.5 7.1 0 9.6 5.2 8.9 10.9v.1c-.2.5-.3.9-.4 1.4zm-9.2-7.9c-2.5 0-4.3 1.7-5.1 4.3h9c0-2.5-1.4-4.3-3.9-4.3z"/></g></g><g><path d="m413.3 828.2 1.1 3.3c.2.5.3 1 .5 1.5.1-.5.3-1 .5-1.5l1.1-3.3h1.1l-2.3 5.8h-1l-2.2-5.8h1.2zM419.9 826.6v1.7h1.5v.8h-1.5v3.1c0 .7.2 1.1.8 1.1.3 0 .5 0 .6-.1v.8c-.2.1-.5.1-.9.1-.5 0-.9-.2-1.1-.4-.3-.3-.4-.8-.4-1.5V829h-.9v-.8h.9v-1.4l1-.2zM425.8 831.3c0 1.4.9 2 2 2 .8 0 1.2-.1 1.6-.3l.2.8c-.4.2-1 .4-1.9.4-1.8 0-2.9-1.2-2.9-2.9s1-3.1 2.7-3.1c1.9 0 2.4 1.7 2.4 2.7v.5h-4.1zm3-.7c0-.7-.3-1.7-1.5-1.7-1.1 0-1.5 1-1.6 1.7h3.1zM434.4 834l-.1-.7c-.3.5-.9.9-1.8.9-1.2 0-1.8-.8-1.8-1.7 0-1.4 1.2-2.2 3.5-2.2v-.1c0-.5-.1-1.3-1.3-1.3-.5 0-1.1.2-1.5.4l-.2-.7c.5-.3 1.2-.5 1.9-.5 1.8 0 2.2 1.2 2.2 2.4v2.2c0 .5 0 1 .1 1.4h-1zm-.2-2.9c-1.2 0-2.5.2-2.5 1.3 0 .7.5 1 1 1 .8 0 1.2-.5 1.4-1 0-.1.1-.2.1-.3v-1zM438.2 826.6v1.7h1.5v.8h-1.5v3.1c0 .7.2 1.1.8 1.1.3 0 .5 0 .6-.1v.8c-.2.1-.5.1-.9.1-.5 0-.9-.2-1.1-.4-.3-.3-.4-.8-.4-1.5V829h-.9v-.8h.9v-1.4l1-.2zM443.3 833c.3.2.9.4 1.4.4.8 0 1.1-.4 1.1-.9s-.3-.8-1.1-1.1c-1-.4-1.5-.9-1.5-1.6 0-.9.8-1.7 2-1.7.6 0 1.1.2 1.4.4l-.3.8c-.2-.1-.6-.3-1.2-.3s-1 .4-1 .8c0 .5.3.7 1.1 1 1 .4 1.5.9 1.5 1.8 0 1-.8 1.7-2.2 1.7-.6 0-1.2-.2-1.6-.4l.4-.9zM448.2 829.8v-1.6h.9v.9c.3-.6.9-1.1 1.8-1.1.8 0 1.4.5 1.6 1.2.2-.3.4-.6.6-.8.3-.3.7-.4 1.3-.4.8 0 1.9.5 1.9 2.5v3.4h-1v-3.3c0-1.1-.4-1.8-1.3-1.8-.6 0-1.1.4-1.2 1 0 .1-.1.3-.1.5v3.6h-1v-3.5c0-.9-.4-1.6-1.2-1.6-.7 0-1.1.5-1.3 1.1-.1.2-.1.3-.1.5v3.5h-1v-4.1zM461.4 834l-.1-.7c-.3.5-.9.9-1.8.9-1.2 0-1.8-.8-1.8-1.7 0-1.4 1.2-2.2 3.5-2.2v-.1c0-.5-.1-1.3-1.3-1.3-.5 0-1.1.2-1.5.4l-.2-.7c.5-.3 1.2-.5 1.9-.5 1.8 0 2.2 1.2 2.2 2.4v2.2c0 .5 0 1 .1 1.4h-1zm-.2-2.9c-1.2 0-2.5.2-2.5 1.3 0 .7.5 1 1 1 .8 0 1.2-.5 1.4-1 0-.1.1-.2.1-.3v-1zM464 830v-1.8h.9v1.1c.3-.8.9-1.3 1.6-1.3h.3v1h-.4c-.7 0-1.3.6-1.4 1.4v3.6h-1v-4zM469.5 826.6v1.7h1.5v.8h-1.5v3.1c0 .7.2 1.1.8 1.1.3 0 .5 0 .6-.1v.8c-.2.1-.5.1-.9.1-.5 0-.9-.2-1.1-.4-.3-.3-.4-.8-.4-1.5V829h-.9v-.8h.9v-1.4l1-.2zM474.7 829.8v-1.6h.9v.9c.3-.6.9-1.1 1.8-1.1.8 0 1.4.5 1.6 1.2.2-.3.4-.6.6-.8.3-.3.7-.4 1.3-.4.8 0 1.9.5 1.9 2.5v3.4h-1v-3.3c0-1.1-.4-1.8-1.3-1.8-.6 0-1.1.4-1.2 1 0 .1-.1.3-.1.5v3.6h-1v-3.5c0-.9-.4-1.6-1.2-1.6-.7 0-1.1.5-1.3 1.1-.1.2-.1.3-.1.5v3.5h-1v-4.1zM490 831.1c0 2.1-1.5 3.1-2.9 3.1-1.6 0-2.8-1.2-2.8-3 0-1.9 1.3-3.1 2.9-3.1 1.6 0 2.8 1.2 2.8 3zm-4.6.1c0 1.3.7 2.2 1.8 2.2 1 0 1.8-.9 1.8-2.3 0-1-.5-2.2-1.7-2.2-1.4 0-1.9 1.1-1.9 2.3zM491.6 828.2l1.1 3.3c.2.5.3 1 .5 1.5.1-.5.3-1 .5-1.5l1.1-3.3h1.1l-2.3 5.8h-1l-2.2-5.8h1.2zM497.4 831.3c0 1.4.9 2 2 2 .8 0 1.2-.1 1.6-.3l.2.8c-.4.2-1 .4-1.9.4-1.8 0-2.9-1.2-2.9-2.9s1-3.1 2.7-3.1c1.9 0 2.4 1.7 2.4 2.7v.5h-4.1zm3.1-.7c0-.7-.3-1.7-1.5-1.7-1.1 0-1.5 1-1.6 1.7h3.1zM505.4 829.8v-1.6h.9v.9c.3-.6.9-1.1 1.8-1.1.8 0 1.4.5 1.6 1.2.2-.3.4-.6.6-.8.3-.3.7-.4 1.3-.4.8 0 1.9.5 1.9 2.5v3.4h-1v-3.3c0-1.1-.4-1.8-1.3-1.8-.6 0-1.1.4-1.2 1 0 .1-.1.3-.1.5v3.6h-1v-3.5c0-.9-.4-1.6-1.2-1.6-.7 0-1.1.5-1.3 1.1-.1.2-.1.3-.1.5v3.5h-1v-4.1zM520.7 831.1c0 2.1-1.5 3.1-2.9 3.1-1.6 0-2.8-1.2-2.8-3 0-1.9 1.3-3.1 2.9-3.1 1.6 0 2.8 1.2 2.8 3zm-4.6.1c0 1.3.7 2.2 1.8 2.2 1 0 1.8-.9 1.8-2.3 0-1-.5-2.2-1.7-2.2-1.4 0-1.9 1.1-1.9 2.3zM522 830v-1.8h.9v1.1c.3-.8.9-1.3 1.6-1.3h.3v1h-.4c-.7 0-1.3.6-1.4 1.4v3.6h-1v-4zM526.4 831.3c0 1.4.9 2 2 2 .8 0 1.2-.1 1.6-.3l.2.8c-.4.2-1 .4-1.9.4-1.8 0-2.9-1.2-2.9-2.9s1-3.1 2.7-3.1c1.9 0 2.4 1.7 2.4 2.7v.5h-4.1zm3.1-.7c0-.7-.3-1.7-1.5-1.7-1.1 0-1.5 1-1.6 1.7h3.1zM534.5 834v-5h-.8v-.8h.8v-.2c0-.8.2-1.6.7-2 .4-.4.9-.5 1.4-.5.4 0 .7.1.9.2l-.1.8c-.2-.1-.4-.1-.7-.1-.9 0-1.1.8-1.1 1.7v.3h1.4v.8h-1.4v5h-1.1zM543 831.1c0 2.1-1.5 3.1-2.9 3.1-1.6 0-2.8-1.2-2.8-3 0-1.9 1.3-3.1 2.9-3.1 1.6 0 2.8 1.2 2.8 3zm-4.6.1c0 1.3.7 2.2 1.8 2.2 1 0 1.8-.9 1.8-2.3 0-1-.5-2.2-1.7-2.2-1.4 0-1.9 1.1-1.9 2.3zM544.3 830v-1.8h.9v1.1c.3-.8.9-1.3 1.6-1.3h.3v1h-.4c-.7 0-1.3.6-1.4 1.4v3.6h-1v-4zM551.4 831.3c0 1.4.9 2 2 2 .8 0 1.2-.1 1.6-.3l.2.8c-.4.2-1 .4-1.9.4-1.8 0-2.9-1.2-2.9-2.9s1-3.1 2.7-3.1c1.9 0 2.4 1.7 2.4 2.7v.5h-4.1zm3.1-.7c0-.7-.3-1.7-1.5-1.7-1.1 0-1.5 1-1.6 1.7h3.1zM556.8 829.8v-1.6h.9v.9c.3-.6.9-1.1 1.8-1.1.8 0 1.4.5 1.6 1.2.2-.3.4-.6.6-.8.3-.3.7-.4 1.3-.4.8 0 1.9.5 1.9 2.5v3.4h-1v-3.3c0-1.1-.4-1.8-1.3-1.8-.6 0-1.1.4-1.2 1 0 .1-.1.3-.1.5v3.6h-1v-3.5c0-.9-.4-1.6-1.2-1.6-.7 0-1.1.5-1.3 1.1-.1.2-.1.3-.1.5v3.5h-1v-4.1zM566.7 834v-8.5h1v3.6c.4-.6 1-1.1 2-1.1 1.4 0 2.5 1.2 2.4 3 0 2.1-1.3 3.1-2.6 3.1-.8 0-1.5-.3-1.9-1.1v1h-.9zm1.1-2.3v.4c.2.7.8 1.2 1.6 1.2 1.1 0 1.8-.9 1.8-2.2 0-1.2-.6-2.2-1.7-2.2-.7 0-1.4.5-1.6 1.3 0 .1-.1.3-.1.4v1.1zM575.8 834v-.6l.8-.8c2-1.9 2.9-2.9 2.9-4.1 0-.8-.4-1.5-1.5-1.5-.7 0-1.3.4-1.7.7l-.3-.7c.5-.5 1.3-.8 2.2-.8 1.7 0 2.4 1.2 2.4 2.3 0 1.4-1 2.6-2.7 4.2l-.6.6h3.5v.9h-5zM587.2 830.1c0 2.7-1 4.1-2.7 4.1-1.5 0-2.6-1.4-2.6-4s1.1-4.1 2.7-4.1 2.6 1.5 2.6 4zm-4.3.1c0 2 .6 3.2 1.6 3.2 1.1 0 1.6-1.3 1.6-3.3 0-1.9-.5-3.2-1.6-3.2-.9 0-1.6 1.2-1.6 3.3zM590.4 827.2l-1.4.7-.2-.8 1.7-.9h.9v7.8h-1v-6.8zM594.2 832.1c0-1 .6-1.7 1.5-2.1-.9-.4-1.2-1.1-1.2-1.8 0-1.2 1-2.1 2.4-2.1 1.5 0 2.3.9 2.3 1.9 0 .7-.3 1.4-1.3 1.8 1 .4 1.6 1.1 1.6 2 0 1.4-1.2 2.3-2.7 2.3-1.6.1-2.6-.9-2.6-2zm4.2-.1c0-.9-.7-1.4-1.7-1.7-.9.3-1.4.9-1.4 1.6 0 .8.6 1.5 1.6 1.5.9 0 1.5-.6 1.5-1.4zm-2.9-3.9c0 .8.6 1.2 1.5 1.4.7-.2 1.2-.7 1.2-1.4 0-.6-.4-1.3-1.3-1.3-.9.1-1.4.6-1.4 1.3z"/></g><path class="st7" d="M321.9 511.9h288v133.4h-288z"/><g><path class="st0" d="M357.9 570.8v-26.6h20.9v5.2H364v5.4h13v5.2h-13v5.6h15v5.2h-21.1zM393.3 570.8v-2.2c-1.5 1.6-3.5 2.6-6.4 2.6-4 0-7.3-2.2-7.3-6.2v-.1c0-4.4 3.5-6.5 8.5-6.5 2.1 0 3.7.3 5.2.8v-.3c0-2.4-1.5-3.7-4.5-3.7-2.3 0-3.9.4-5.8 1.1l-1.5-4.4c2.3-1 4.6-1.6 8.2-1.6 6.6 0 9.4 3.3 9.4 8.8v11.8h-5.8zm.1-8.2c-1-.5-2.4-.8-3.8-.8-2.6 0-4.1 1-4.1 2.8v.1c0 1.6 1.3 2.5 3.3 2.5 2.8 0 4.7-1.5 4.7-3.6v-1zM408.4 571.2c-3.7 0-6.2-1.4-6.2-6.1v-9.6h-2.5v-4.9h2.5v-5.2h6v5.2h5v4.9h-5v8.7c0 1.3.6 2 1.9 2 1.1 0 2.1-.3 3-.7v4.6c-1.3.6-2.7 1.1-4.7 1.1z"/><path class="st8" d="M428.8 571.2c-4.2 0-8.4-1.4-11.7-4.3l3.6-4.1c2.5 2 5.1 3.2 8.3 3.2 2.5 0 4-.9 4-2.5v-.1c0-1.5-.9-2.2-5.6-3.4-5.6-1.4-9.2-2.8-9.2-8.1v-.1c0-4.8 4-8 9.7-8 4 0 7.5 1.2 10.3 3.4l-3.2 4.4c-2.4-1.6-4.9-2.6-7.2-2.6s-3.6 1-3.6 2.3v.1c0 1.7 1.2 2.3 6 3.5 5.6 1.4 8.8 3.3 8.8 8v.1c0 5.2-4.2 8.2-10.2 8.2zM468 570.8v-11.3c0-2.7-1.3-4.1-3.5-4.1-2.3 0-3.6 1.4-3.6 4.1v11.3h-6v-11.3c0-2.7-1.3-4.1-3.5-4.1-2.3 0-3.6 1.4-3.6 4.1v11.3h-6v-20.3h6v2.9c1.4-1.7 3.2-3.3 6.2-3.3 2.8 0 4.9 1.2 6 3.2 1.9-2.1 4.1-3.2 7-3.2 4.5 0 7.1 2.6 7.1 7.5v13.2H468zM489.6 570.8v-2.2c-1.5 1.6-3.5 2.6-6.4 2.6-4 0-7.3-2.2-7.3-6.2v-.1c0-4.4 3.5-6.5 8.5-6.5 2.1 0 3.7.3 5.2.8v-.3c0-2.4-1.5-3.7-4.5-3.7-2.3 0-3.9.4-5.8 1.1l-1.5-4.4c2.3-1 4.6-1.6 8.2-1.6 6.6 0 9.4 3.3 9.4 8.8v11.8h-5.8zm.1-8.2c-1-.5-2.4-.8-3.8-.8-2.6 0-4.1 1-4.1 2.8v.1c0 1.6 1.3 2.5 3.3 2.5 2.8 0 4.7-1.5 4.7-3.6v-1zM511.1 556.1c-4 0-6.4 2.3-6.4 7.2v7.5h-6v-20.3h6v4.1c1.2-2.8 3.2-4.6 6.8-4.5v6h-.4zM521.9 571.2c-3.7 0-6.2-1.4-6.2-6.1v-9.6h-2.5v-4.9h2.5v-5.2h6v5.2h5v4.9h-5v8.7c0 1.3.6 2 1.9 2 1.1 0 2.1-.3 3-.7v4.6c-1.3.6-2.7 1.1-4.7 1.1z"/><g><path class="st8" d="m507.2 598.9 2.2-17.2-9.2 11.3h-.2l-6.3-11.1-2.2 17.1h-6l3.4-26.4h6.6l5.8 11.1 8.7-11.2h6.6l-3.4 26.4h-6zM526.7 599.3c-6.6 0-10.8-4.6-10.1-10.4v-.1c.8-5.8 6.3-10.5 12.8-10.5 6.6 0 10.8 4.6 10.1 10.4v.1c-.7 5.7-6.2 10.4-12.8 10.5zm6.9-10.6c.4-3-1.5-5.6-4.8-5.6-3.4 0-5.8 2.5-6.2 5.5v.1c-.4 3 1.5 5.6 4.8 5.6 3.4 0 5.8-2.5 6.2-5.6zM554 584.2c-4 0-6.7 2.3-7.4 7.1l-1 7.5h-6l2.6-20.2h6l-.5 4.1c1.6-2.8 3.8-4.6 7.3-4.5l-.8 6h-.2zM573.5 590.6l-14.7.1c.3 2.6 2 3.9 4.7 3.9 2 0 3.6-.6 5.4-2.1l3.1 2.9c-2.3 2.3-5.3 3.8-9.1 3.8-6.4 0-10.5-4.2-9.7-10.4v-.1c.7-5.8 5.7-10.5 11.8-10.5 7.1 0 9.6 5.2 8.9 10.9v.1c-.2.5-.3.8-.4 1.4zm-9.2-7.9c-2.5 0-4.3 1.7-5.1 4.3h9c0-2.6-1.4-4.3-3.9-4.3z"/></g><g><path class="st0" d="m410.3 598.9 2.2-17.2-9.2 11.3h-.2l-6.3-11.1-2.2 17.1h-6l3.4-26.4h6.6l5.8 11.1 8.7-11.2h6.6l-3.4 26.4h-6zM429.8 599.3c-6.6 0-10.8-4.6-10.1-10.4v-.1c.7-5.8 6.3-10.5 12.8-10.5 6.6 0 10.8 4.6 10.1 10.4v.1c-.7 5.7-6.2 10.4-12.8 10.5zm7-10.6c.4-3-1.5-5.6-4.8-5.6-3.4 0-5.8 2.5-6.2 5.5v.1c-.4 3 1.5 5.6 4.8 5.6 3.4 0 5.8-2.5 6.2-5.6zM453.6 598.9h-5.5l-5.7-20.3h6.4l3 13.5 6.5-13.5h6.2l-10.9 20.3zM482.1 590.5l-14.7.1c.3 2.6 2 3.9 4.7 3.9 2 0 3.6-.6 5.4-2.1l3.1 2.9c-2.3 2.3-5.3 3.8-9.1 3.8-6.4 0-10.5-4.2-9.7-10.4v-.1c.7-5.8 5.7-10.5 11.8-10.5 7.1 0 9.6 5.2 8.9 10.9v.1c-.2.6-.3.9-.4 1.4zm-9.2-7.8c-2.5 0-4.3 1.7-5.1 4.3h9c0-2.6-1.4-4.3-3.9-4.3z"/></g></g></svg>