<svg xmlns="http://www.w3.org/2000/svg" width="383.9" height="185.2" style="enable-background:new 0 0 383.9 185.2" xml:space="preserve"><style>.st0{fill:#fff}</style><g id="Layer_1"><path id="XMLID_5_" d="M-4.2-2.1H389V192H-4.2z"/><path id="XMLID_4_" class="st0" d="M293.1 119.5c7 0 42.7 12.8 57.4 12.8 5.9 0 9.6-1.7 12.7-5.3 2.6-3.2 3.8-6.4 3.8-7.4 0-7-8.5-11.3-36.8-14.5-19.8-2.3-35.3-4.3-52.3-7.2-5.3-.9-9.8-2.1-9.8-4.9 0-3.6 4.9-4.5 11.9-4.5 16.1 0 43.1 8.7 46.3 8.7 1.9 0 2.8-1.5 2.8-3 0-2.5-1.9-2.5-4.9-3.2-8.7-2.3-32.1-8.1-44.6-8.1-7.6 0-18 2.3-18 10.2 0 4.7 3.6 9.1 15.3 11 17.6 2.8 32.3 4.9 52.7 7.4 3.2.4 29.3 3.4 29.3 8.7 0 2.1-3 5.7-6.8 5.7-16.6 0-51-12.5-59.3-12.5-5.3 0-10.4 3.6-10.4 9.4 0 6.8 6.4 13 26.3 21.2 7.6 3 17 4.7 17 8.1 0 3.2-4.7 4.9-7.4 4.9-21.7 0-49.5-29.3-63.9-35-11.3-4.5-29.7-6.4-50.1-6.4-24.8 0-48.7 2.8-52 5.7-23.2 20.6-54.8 28.2-86.2 28.2-15.1 0-31 12.3-35 12.3-2.3 0-3-1.1-3-3.2 0-2.8 1.5-7.4 3.4-9.4 8.5-9.4 23.8-10 36.1-12.5 15.3-3 25.1-5.7 39.9-12.5 3.8-1.7 8.3-3.6 8.3-5.3 0-.2 0-.6-.4-.8-.8-.6-1.5-.8-2.6-.8-2.8 0-6.6 1.5-8.3 2.3-10.8 4.7-22.5 8.5-37.6 11.3-7 1.3-12.3 2.3-16.8 2.3-7.2 0-11.3-3.2-11.3-5.5 0-2.5 7.6-9.1 12.7-9.1 2.3 0 5.9.4 9.1.4 52.1 0 85.2-31 85.2-39.5 0-9.1-29.7-22.1-53.7-32.3-4.7-2.1-10.8-3.8-10.8-7.4 0-2.1 1.7-3.8 5.1-3.8 10.8 0 46.5 25.5 55.2 30 3.2 1.7 7 2.5 11.3 2.5 11.1 0 55.7-4.3 78.4-8.7 11.9-2.3 14.9-5.3 14.9-9.3 0-7.6-7.4-8.9-14.5-10.4-6.4-1.3-12.7-2.6-12.7-6.4 0-2.1 2.1-3.4 5.3-3.4 12.5 0 28.2 18.1 38.4 18.1 4.7 0 9.1-3.2 9.1-7.4 0-2.8-2.3-6-7.9-8.9-4.5-2.3-10-4.9-10-7.4 0-1.7 1.5-2.3 2.6-2.3 4.9 0 10.4 4.5 13.6 7.4 9.1 7.6 9.1 16.2 18.5 16.2 5.5 0 34-6.6 35.9-6.6 2.1 0 3 1.3 3 3.8l-.2 9.1 6.2-.4c.2-2.1.2-8.3.2-10.6 0-6.4-4-8.3-8.3-8.3-4 0-30.2 7.4-36.1 7.4-6.8 0-6.4-8.9-18.7-18.5-3.8-3-8.9-5.3-13.6-5.3-7.7 0-10.2 5.7-10.2 8.5 0 4.7 6.6 8.5 13.6 11.7 7.7 3.6 5.1 5.9 2.1 5.9-7.2 0-24.2-18.5-38.5-18.5-7.9 0-11.1 5.7-11.1 9.1 0 7 7.4 10.8 14.5 11.9 6.6 1.1 12.5 1.9 12.5 4.5v.4c-.4 2.6-9.1 3.8-10 4-25.3 4.9-72.6 8.5-76.7 8.5-3.6 0-6.8-.6-9.4-2.1-7.9-4.5-44.2-30.2-57.1-30.2-7.7 0-11.1 4.9-11.1 9.6 0 5.1 5.7 8.7 13.4 11.9 25.5 10.6 50.3 22.1 50.3 27.8 0 4.7-30.2 33.2-77.8 33.2-4 0-7.2-.6-9.6-.6-7.4 0-20 9.3-20 15.7 0 3.6 3 6.4 8.5 9.1-15.3 5.5-18.5 15.1-18.5 22.1 0 7.2 3.6 8.9 6.6 8.9 10.6 0 22.5-12.3 37.4-12.7 38.2-.9 66.3-7.7 90.1-28.9 4.9-2.6 26.5-4.7 48.4-4.7 19.1 0 38.5 1.1 47.6 5.9 24.2 12.7 40.6 35.7 67.1 35.7 8.7 0 15.1-7.6 15.1-11.7 0-5.3-7-8.3-22.9-13.6-11.5-3.8-22.3-10.2-22.3-15.1-.2-2.5 1.3-3.4 4.1-3.4z"/><path id="XMLID_2_" class="st0" d="M286.5 45c-3.6.6-6.2 2.8-5.9 5.1.4 2.5 3.4 4.2 7 3.6 3.6-.6 6.4-2.8 6-5.1-.3-2.4-3.3-4.1-7.1-3.6z"/><path id="XMLID_3_" d="M351.3 71.7c0 11.1-9.1 20.2-20.4 20.2-11.2 0-20.2-9.1-20.2-20.2 0-11.2 9.1-20.2 20.2-20.2 11.3 0 20.4 9 20.4 20.2z" style="fill:#c10230"/><path id="XMLID_1_" class="st0" d="M328.1 55.6c-3.6 0-7.6 4-7.6 7 0 1.9.8 3.4 3.2 3.4 3 0 7.6-3.8 7.6-7.4 0-.2 0-3-3.2-3z"/></g></svg>