<svg version="1.1" id="Layer_1" xmlns="http://www.w3.org/2000/svg" x="0" y="0" width="432" height="432" style="enable-background:new 0 0 432 432" xml:space="preserve"><style>.st0{fill:#6fb1c8}.st2{fill:#94989b}.st3{fill:#4c86a0}</style><path class="st0" d="m215.1 276.6-10.8-24.7-15.5 34.6h53.3l-16-35.1z"/><path d="M242.7 179.6c-4 0-7.7 2.4-9.3 6.1l-18.3 41.9-18.3-41.9c-1.6-3.7-5.2-6.1-9.3-6.1l-83.7-.1c7.8 10.3 20.1 16.4 33 16.4H180c2.5 0 4.7 1.5 5.7 3.7l29.5 67.6 29.5-67.6c1-2.2 3.2-3.7 5.7-3.7h43.9c13 0 25.2-6.1 33-16.4l-84.6.1z" style="fill:#ffcd00"/><path class="st2" d="M87.1 145.9 75.9 124h-7.2l18.4 36 18.4-36h-7.2z"/><path class="st3" d="m188.8 216.3-6.5-14.9c-.4-.9-1.3-1.5-2.2-1.5h-60.8c7.8 10.3 20.1 16.4 33 16.4h36.5z"/><path class="st0" d="m197.7 236.6-7.2-16.4h-55.8c7.8 10.3 20.1 16.4 33 16.4h30z"/><path class="st3" d="M250.2 199.9c-1 0-1.8.6-2.2 1.5l-6.5 14.9h37.4c13 0 25.2-6.1 33-16.4h-61.7z"/><path class="st0" d="m239.7 220.2-7.2 16.4h30.8c13 0 25.2-6.1 33-16.4h-56.6z"/><path class="st3" d="M223 200.3h-15.8l7.9 18z"/><path class="st2" d="m124.3 124-18.4 36h7.2l11.2-21.9 11.2 21.9h7.2zM188.5 133.7c0-2.7-1.1-5.1-2.8-6.9-1.8-1.8-4.2-2.8-6.9-2.8H156v6.4h22.8c1.1 0 1.9.5 2.3.9.4.4 1 1.2 1 2.4 0 1.3-.8 2.5-2 3-.4.2-.9.3-1.3.3H156v23h6.4v-16.6h6.4c2.3 0 4.3 1.2 5.5 3.1l.2.3 6.7 13.2h7.2l-8.4-16.7c1-.1 1.9-.4 2.8-.8 3.4-1.4 5.7-4.8 5.7-8.8M204 124h6.4v36.1H204zM242.3 124l-18.4 36h7.2l11.2-21.9 11.2 21.9h7.2zM303.7 146.9l-29.6-22.8v36h6.4v-22.9l29.6 22.9V124h-6.4zM325.6 124v6.4h14.8v29.7h6.4v-29.7h14.8V124z"/></svg>