<svg xmlns="http://www.w3.org/2000/svg" width="271.7" height="125.2" style="enable-background:new 0 0 271.7 125.2" xml:space="preserve"><path d="M262.7 125.2H9c-5 0-9-4-9-9V9c0-5 4-9 9-9h253.7c5 0 9 4 9 9v107.2c0 5-4.1 9-9 9z" style="fill:none"/><path d="M82.8 101.1h-1.4l-1.7-4.3-1.7 4.3h-1.3l-1.9-6h1.3l1.3 4.3 1.6-4.3h1.2l1.6 4.3 1.3-4.3h1.3l-1.6 6zM87.6 100l-.6 1.1h-1.4l3.3-6h1.4l3.3 6H92l-.6-1.1h-3.8zm1.9-3.6L88.1 99h2.8l-1.4-2.6zM102.6 97.5v3.6h-6.5V100h5.2v-1.4h-5.2V95h6.5v1h-5.2v1.4h5.2zM112.1 101.1h-1.3v-2.6h-4.4v2.6h-1.3v-6h1.3v2.4h4.4V95h1.3v6.1zM116.8 95v6h-1.3v-6h1.3zM127.4 101.1h-1l-4.9-4.1v4.1h-1.3v-6h1l4.9 4.1V95h1.3v6.1zM131.7 100h4.6v-1.4H134v-1h3.6v3.6h-7.2v-6h7.2v1h-5.9v3.8zM144.2 96.1v5h-1.3v-5H140v-1h7v1h-2.8zM156.4 101.1h-7.2v-6h7.2v6zm-5.9-5v3.9h4.6v-3.9h-4.6zM166.3 101.1h-1l-4.9-4.1v4.1h-1.3v-6h1l4.9 4.1V95h1.3v6.1zM185.6 100.2l-1.9.9h-5.3v-6h5.3l1.9.9v4.2zm-2.2-.2.9-.4v-3l-.9-.4h-3.8v3.9h3.8zM187 100.6c0-.3.2-.5.5-.5s.5.2.5.5-.2.5-.5.5c-.3.1-.5-.2-.5-.5zM196.3 101.1h-6.7v-6h6.7v1h-5.4v3.9h5.4v1.1zM197.7 100.6c0-.3.2-.5.5-.5s.5.2.5.5-.2.5-.5.5c-.3.1-.5-.2-.5-.5z"/><g><path d="M116.5 24.1h17.7v7.3h-17.7zM127 34h7.3v12.7H127zM116.5 34h7.2v12.7h-7.2zM95.6 39.5h17.7v7.3H95.6zM95.6 24.1h7.3v12.7h-7.3zM106.1 24.1h7.2v12.7h-7.2zM158.4 24.1h17.7v7.3h-17.7zM168.8 34h7.3v12.7h-7.3zM158.4 34h7.2v12.7h-7.2zM137.4 39.5h17.7v7.3h-17.7zM137.4 24.1h7.3v12.7h-7.3zM147.9 24.1h7.2v12.7h-7.2z"/><g><path d="M241.3 70.9v8.2l-9.7-8.2h-2V83h2.6v-8.2l9.7 8.2h1.9V70.9zM41.8 70.9h-14V73h5.7v10h2.6V73h5.7zM127.1 70.9l-5 8.9-4.9-8.9h-3V83h2.5v-8.5l4.7 8.5h1.5l4.7-8.5V83h2.5V70.9zM201.1 70.9V83h14.3V70.9h-14.3zm11.8 9.8h-9.3V73h9.3v7.7zM84.9 70.9V83h14.3V70.9H84.9zm11.8 9.8h-9.3V73h9.3v7.7zM176.1 73h10.5v-2.1h-13v6.9H184v2.9h-10.4V83h13v-7.2h-10.5zM66.9 70.9v4.9h-8.7v-4.9h-2.6V83h2.6v-5.2h8.7V83h2.6V70.9zM145.6 70.9V83h2.5v-4.7h10.1v-7.4h-12.6zm2.5 5.2V73h7.6v3.2h-7.6z"/></g></g></svg>