<svg version="1.1" id="Layer_1" xmlns="http://www.w3.org/2000/svg" x="0" y="0" width="614" height="322.6" style="enable-background:new 0 0 614 322.6" xml:space="preserve"><style>.st2{fill:#0b91a1}.st3{fill:#1b285d}</style><linearGradient id="SVGID_1_" gradientUnits="userSpaceOnUse" x1="19.363" y1="262.101" x2="205.916" y2="171.531" gradientTransform="scale(-1 1) rotate(-46.669 -51.346 470.476)"><stop offset="0" style="stop-color:#1b285d"/><stop offset="1" style="stop-color:#0b91a1"/></linearGradient><path d="m95.8 88.9-46.7 44c-13.9 13.1-14.6 35-1.4 49l46.6 49.4c-3.7 5.2-6.6 9.6-8.2 12.9L96.9 234l59.9 60.5c-1.7-3.1-54.3-57.4-57.6-62.7l46.3-43.7c13.9-13.1 14.5-35 1.4-48.9l-46.5-49.3c3.5-5.2 55.3-58.7 56.9-62.1L97.6 87.1 87.4 76.3c1.8 3.3 4.8 7.6 8.4 12.6zm2.8 3.8c14.2 19.4 35.2 47 37.4 67.2 1.6 15.1-23.7 46.5-39.3 68-13.8-21.8-34.7-54.1-35.2-68.6-.5-15.1 22.6-45.5 37.1-66.6z" style="fill:url(#SVGID_1_)"/><path style="fill:none" d="M179.5 114.2h396.3v94.2H179.5z"/><path class="st2" d="M202.4 143c-1.3.7-4 1.3-7.4 1.3-7.9 0-13.9-5-13.9-14.3 0-8.8 6-14.8 14.7-14.8 3.5 0 5.7.8 6.7 1.3l-.9 3c-1.4-.7-3.3-1.2-5.7-1.2-6.6 0-11 4.2-11 11.6 0 6.9 4 11.3 10.8 11.3 2.2 0 4.5-.5 5.9-1.2l.8 3zM224.7 133.6c0 7.5-5.2 10.8-10.1 10.8-5.5 0-9.7-4-9.7-10.4 0-6.8 4.4-10.8 10-10.8 5.9 0 9.8 4.2 9.8 10.4zm-16 .2c0 4.4 2.6 7.8 6.2 7.8 3.5 0 6.2-3.3 6.2-7.9 0-3.4-1.7-7.8-6.1-7.8s-6.3 4.1-6.3 7.9zM229.4 129.1c0-2.1 0-3.8-.2-5.5h3.2l.2 3.3h.1c1.1-1.9 3-3.7 6.4-3.7 2.8 0 4.9 1.7 5.7 4.1h.1c.6-1.1 1.4-2 2.3-2.6 1.2-.9 2.6-1.4 4.5-1.4 2.7 0 6.7 1.8 6.7 8.8V144h-3.6v-11.5c0-3.9-1.4-6.2-4.4-6.2-2.1 0-3.7 1.5-4.4 3.3-.2.5-.3 1.2-.3 1.8v12.5H242v-12.1c0-3.2-1.4-5.6-4.2-5.6-2.3 0-4 1.8-4.6 3.7-.2.5-.3 1.2-.3 1.8v12.2h-3.6v-14.8zM264.3 129.1c0-2.1 0-3.8-.2-5.5h3.2l.2 3.3h.1c1.1-1.9 3-3.7 6.4-3.7 2.8 0 4.9 1.7 5.7 4.1h.1c.6-1.1 1.4-2 2.3-2.6 1.2-.9 2.6-1.4 4.5-1.4 2.7 0 6.7 1.8 6.7 8.8V144h-3.6v-11.5c0-3.9-1.4-6.2-4.4-6.2-2.1 0-3.7 1.5-4.4 3.3-.2.5-.3 1.2-.3 1.8v12.5H277v-12.1c0-3.2-1.4-5.6-4.2-5.6-2.3 0-4 1.8-4.6 3.7-.2.5-.3 1.2-.3 1.8v12.2h-3.6v-14.8zM301.2 134.5c.1 5 3.3 7 6.9 7 2.6 0 4.2-.5 5.6-1l.6 2.6c-1.3.6-3.5 1.3-6.7 1.3-6.2 0-10-4.1-10-10.2s3.6-10.9 9.5-10.9c6.6 0 8.4 5.8 8.4 9.5 0 .8-.1 1.3-.1 1.7h-14.2zm10.8-2.7c0-2.3-1-6-5.1-6-3.7 0-5.4 3.4-5.6 6H312zM320.1 130c0-2.4 0-4.4-.2-6.3h3.2l.1 4h.2c.9-2.7 3.1-4.4 5.6-4.4.4 0 .7 0 1 .1v3.5c-.4-.1-.8-.1-1.3-.1-2.6 0-4.4 2-4.9 4.7-.1.5-.2 1.1-.2 1.7V144H320v-14zM347.8 143.2c-1 .5-3.1 1.2-5.8 1.2-6.1 0-10.1-4.1-10.1-10.3 0-6.2 4.3-10.8 10.9-10.8 2.2 0 4.1.5 5.1 1l-.8 2.8c-.9-.5-2.3-1-4.3-1-4.6 0-7.2 3.4-7.2 7.7 0 4.7 3 7.6 7 7.6 2.1 0 3.5-.5 4.5-1l.7 2.8zM356.2 118c0 1.3-.9 2.3-2.3 2.3-1.3 0-2.2-1-2.2-2.3 0-1.3 1-2.3 2.3-2.3 1.4 0 2.2 1 2.2 2.3zm-4.1 25.9v-20.3h3.7v20.3h-3.7zM373.1 143.9l-.3-2.6h-.1c-1.1 1.6-3.3 3-6.2 3-4.1 0-6.2-2.9-6.2-5.8 0-4.9 4.4-7.6 12.2-7.5v-.4c0-1.7-.5-4.7-4.6-4.7-1.9 0-3.8.6-5.3 1.5l-.8-2.4c1.7-1.1 4.1-1.8 6.7-1.8 6.2 0 7.7 4.2 7.7 8.3v7.6c0 1.8.1 3.5.3 4.9h-3.4zm-.5-10.3c-4-.1-8.6.6-8.6 4.6 0 2.4 1.6 3.5 3.5 3.5 2.6 0 4.3-1.7 4.9-3.4.1-.4.2-.8.2-1.2v-3.5zM382.1 114.2h3.7v29.7h-3.7v-29.7zM404.6 118.8H396v-3.1h20.9v3.1h-8.6v25.1h-3.7v-25.1zM418 130c0-2.4 0-4.4-.2-6.3h3.2l.1 4h.2c.9-2.7 3.1-4.4 5.6-4.4.4 0 .7 0 1 .1v3.5c-.4-.1-.8-.1-1.3-.1-2.6 0-4.4 2-4.9 4.7-.1.5-.2 1.1-.2 1.7V144H418v-14zM442.7 143.9l-.3-2.6h-.1c-1.1 1.6-3.3 3-6.2 3-4.1 0-6.2-2.9-6.2-5.8 0-4.9 4.4-7.6 12.2-7.5v-.4c0-1.7-.5-4.7-4.6-4.7-1.9 0-3.8.6-5.3 1.5l-.8-2.4c1.7-1.1 4.1-1.8 6.7-1.8 6.2 0 7.7 4.2 7.7 8.3v7.6c0 1.8.1 3.5.3 4.9h-3.4zm-.5-10.3c-4-.1-8.6.6-8.6 4.6 0 2.4 1.6 3.5 3.5 3.5 2.6 0 4.3-1.7 4.9-3.4.1-.4.2-.8.2-1.2v-3.5zM455.8 118c0 1.3-.9 2.3-2.3 2.3-1.3 0-2.2-1-2.2-2.3 0-1.3 1-2.3 2.3-2.3 1.3 0 2.2 1 2.2 2.3zm-4.1 25.9v-20.3h3.7v20.3h-3.7zM461.5 129.1c0-2.1 0-3.8-.2-5.5h3.3l.2 3.3h.1c1-1.9 3.3-3.8 6.7-3.8 2.8 0 7.2 1.7 7.2 8.6v12.1H475v-11.7c0-3.3-1.2-6-4.7-6-2.4 0-4.3 1.7-4.9 3.8-.2.5-.3 1.1-.3 1.7v12.2h-3.7v-14.7zM488.8 118c0 1.3-.9 2.3-2.3 2.3-1.3 0-2.2-1-2.2-2.3 0-1.3 1-2.3 2.3-2.3 1.3 0 2.2 1 2.2 2.3zm-4.1 25.9v-20.3h3.7v20.3h-3.7zM494.5 129.1c0-2.1 0-3.8-.2-5.5h3.3l.2 3.3h.1c1-1.9 3.3-3.8 6.7-3.8 2.8 0 7.2 1.7 7.2 8.6v12.1H508v-11.7c0-3.3-1.2-6-4.7-6-2.4 0-4.3 1.7-4.9 3.8-.2.5-.3 1.1-.3 1.7v12.2h-3.7v-14.7zM535.2 123.7c-.1 1.5-.2 3.1-.2 5.6V141c0 4.6-.9 7.5-2.9 9.2-2 1.8-4.8 2.4-7.4 2.4-2.4 0-5.1-.6-6.7-1.7l.9-2.8c1.3.8 3.4 1.6 5.9 1.6 3.8 0 6.5-2 6.5-7.1v-2.3h-.1c-1.1 1.9-3.3 3.4-6.4 3.4-5 0-8.6-4.3-8.6-9.9 0-6.9 4.5-10.8 9.1-10.8 3.5 0 5.4 1.8 6.3 3.5h.1l.2-3.1h3.3zm-3.9 8c0-.6 0-1.2-.2-1.7-.7-2.1-2.5-3.9-5.1-3.9-3.5 0-6 3-6 7.7 0 4 2 7.3 6 7.3 2.3 0 4.3-1.4 5.1-3.8.2-.6.3-1.3.3-2v-3.6z"/><path class="st3" d="M200.4 194.1c-.8-.8-1.5-1.6-2.6-2.8-2.4 2.3-5.1 3.2-8.2 3.2-5.5 0-8.7-3.7-8.7-7.9 0-3.8 2.3-6.5 5.5-8.2v-.1c-1.5-1.8-2.3-3.9-2.3-5.9 0-3.4 2.5-6.9 7.2-6.9 3.5 0 6.2 2.3 6.2 6 0 3-1.7 5.3-6.2 7.5v.1c2.4 2.8 5.1 5.9 6.9 7.9 1.3-2 2.2-4.7 2.7-8.2h3.3c-.8 4.4-2 7.9-4.1 10.4 1.5 1.6 3 3.2 4.6 5h-4.3zm-4.5-4.8c-1.7-1.8-4.8-5.3-8-8.9-1.5 1-3.6 2.8-3.6 5.7 0 3.2 2.4 5.7 5.8 5.7 2.4 0 4.5-1.1 5.8-2.5zm-8.5-17.2c0 2 .9 3.6 2.1 5.1 2.8-1.6 4.7-3.1 4.7-5.5 0-1.7-1-3.6-3.3-3.6-2.3-.1-3.5 1.8-3.5 4zM216.9 166.3c2.2-.3 4.9-.6 7.7-.6 5.2 0 9 1.2 11.4 3.5 2.5 2.3 4 5.6 4 10.1 0 4.6-1.4 8.4-4.1 11-2.6 2.6-7 4.1-12.5 4.1-2.6 0-4.8-.1-6.6-.3v-27.8zm3.6 24.9c.9.2 2.3.2 3.7.2 7.8 0 12-4.4 12-12 0-6.7-3.7-10.9-11.4-10.9-1.9 0-3.3.2-4.3.4v22.3zM246.9 184.7c.1 5 3.3 7 6.9 7 2.6 0 4.2-.5 5.6-1l.6 2.6c-1.3.6-3.5 1.3-6.7 1.3-6.2 0-10-4.1-10-10.2s3.6-10.9 9.5-10.9c6.6 0 8.4 5.8 8.4 9.5 0 .8-.1 1.3-.1 1.7h-14.2zm10.7-2.7c0-2.3-1-6-5.1-6-3.7 0-5.4 3.4-5.6 6h10.7zM267.2 173.9l4 11.4c.7 1.8 1.2 3.5 1.6 5.2h.1c.5-1.7 1-3.3 1.7-5.2l3.9-11.4h3.8l-7.9 20.3H271l-7.7-20.3h3.9zM287.5 184.7c.1 5 3.3 7 6.9 7 2.6 0 4.2-.5 5.6-1l.6 2.6c-1.3.6-3.5 1.3-6.7 1.3-6.2 0-10-4.1-10-10.2s3.6-10.9 9.5-10.9c6.6 0 8.4 5.8 8.4 9.5 0 .8-.1 1.3-.1 1.7h-14.2zm10.8-2.7c0-2.3-1-6-5.1-6-3.7 0-5.4 3.4-5.6 6h10.7zM306.4 164.4h3.7v29.7h-3.7v-29.7zM334.6 183.8c0 7.5-5.2 10.8-10.1 10.8-5.5 0-9.7-4-9.7-10.4 0-6.8 4.4-10.8 10-10.8 5.9 0 9.8 4.2 9.8 10.4zm-16 .2c0 4.4 2.6 7.8 6.2 7.8 3.5 0 6.2-3.3 6.2-7.9 0-3.4-1.7-7.8-6.1-7.8s-6.3 4.1-6.3 7.9zM339.3 180.5c0-2.6-.1-4.7-.2-6.6h3.3l.2 3.5h.1c1.5-2.5 3.9-3.9 7.2-3.9 4.9 0 8.6 4.1 8.6 10.3 0 7.3-4.4 10.9-9.2 10.9-2.7 0-5-1.2-6.2-3.2h-.1v11h-3.6v-22zm3.6 5.4c0 .5.1 1 .2 1.5.7 2.6 2.9 4.3 5.5 4.3 3.9 0 6.2-3.2 6.2-7.8 0-4.1-2.1-7.5-6-7.5-2.5 0-4.9 1.8-5.6 4.6-.1.5-.3 1-.3 1.5v3.4zM363.1 179.4c0-2.1 0-3.8-.2-5.5h3.2l.2 3.3h.1c1.1-1.9 3-3.7 6.4-3.7 2.8 0 4.9 1.7 5.7 4.1h.1c.6-1.1 1.4-2 2.3-2.6 1.2-.9 2.6-1.4 4.5-1.4 2.7 0 6.7 1.8 6.7 8.8v11.9h-3.6v-11.5c0-3.9-1.4-6.2-4.4-6.2-2.1 0-3.7 1.5-4.4 3.3-.2.5-.3 1.2-.3 1.8v12.5h-3.6V182c0-3.2-1.4-5.6-4.2-5.6-2.3 0-4 1.8-4.6 3.7-.2.5-.3 1.2-.3 1.8v12.2h-3.6v-14.7zM400 184.7c.1 5 3.3 7 6.9 7 2.6 0 4.2-.5 5.6-1l.6 2.6c-1.3.6-3.5 1.3-6.7 1.3-6.2 0-10-4.1-10-10.2s3.6-10.9 9.5-10.9c6.6 0 8.4 5.8 8.4 9.5 0 .8-.1 1.3-.1 1.7H400zm10.8-2.7c0-2.3-1-6-5.1-6-3.7 0-5.4 3.4-5.6 6h10.7zM419 179.4c0-2.1 0-3.8-.2-5.5h3.3l.2 3.3h.1c1-1.9 3.3-3.8 6.7-3.8 2.8 0 7.2 1.7 7.2 8.6v12.1h-3.7v-11.7c0-3.3-1.2-6-4.7-6-2.4 0-4.3 1.7-4.9 3.8-.2.5-.3 1.1-.3 1.7v12.2H419v-14.7zM446.4 168.1v5.8h5.3v2.8h-5.3v10.9c0 2.5.7 3.9 2.8 3.9 1 0 1.7-.1 2.1-.3l.2 2.8c-.7.3-1.8.5-3.3.5-1.7 0-3.1-.5-4-1.5-1-1.1-1.4-2.9-1.4-5.3v-11h-3.1v-2.8h3.1V169l3.6-.9z"/></svg>