<svg xmlns="http://www.w3.org/2000/svg" width="792" height="612" style="enable-background:new 0 0 792 612" xml:space="preserve"><style>.st1{fill:#ed1c24}</style><g id="Shield-Red"><path d="m315.4 276.4-5.1 2.3V335l5.1 2.3c1.8.8 45.3 20.4 80 20.4s78.1-19.6 80-20.4l5.1-2.3v-56.3l-5.1-2.3c-1.8-.8-45.3-20.4-80-20.4s-78.1 19.6-80 20.4z" style="fill:#fff200"/><path class="st1" d="m318.4 283-.9.4v47l.9.4c.4.2 43.9 19.8 77 19.8s76.5-19.6 77-19.8l.9-.4v-47l-.9-.4c-.4-.2-43.9-19.8-77-19.8s-76.6 19.6-77 19.8zm77-16.7c29.9 0 68.6 16.4 74.8 19.1v43.1c-6.3 2.7-44.9 19.1-74.8 19.1s-68.6-16.4-74.8-19.1v-43.1c6.2-2.8 44.9-19.1 74.8-19.1z"/><path class="st1" d="M360.5 283.2h-24.6v10.1h7.6v38h9.4v-38h7.6v-10.1zM362.3 283.2h9.4v48.1h-9.4v-48.1zM423.8 293.3v-10.1H405.9v48.1H423.8v-10.1h-8.5v-9.6h8.5v-8.7h-8.5v-9.6h8.5zM438 313.2v18.1h-9.5v-48.1h12.4c5 0 10.7.8 10.7 8.5v9.8c0 5.3.3 7.5-4.4 10.6l5.7 19.1h-9.5l-5.4-18zm2.6-10.3c.9 0 1.6-.8 1.6-2.2v-4.8c0-1.8-.8-2.5-2.1-2.5H438v9.5h2.6zM377.4 319.5v-27.6c0-5.5 2.8-8.6 10.7-8.6 7.9 0 11.3 2.5 11.3 8.6v9.2h-8.9v-5.5c0-1.8-1.5-2.1-2.2-2.1-1 0-1.9 1-1.9 1.8v23.8c0 1.1 1.1 2.2 2.2 2.2s2-.8 2-2.1v-7.4h-2.3V303h11.2v21c0 4.4-2.2 7.5-10.6 7.5-8.5 0-11.4-3.8-11.4-9v-3h-.1z"/></g></svg>