<svg xmlns="http://www.w3.org/2000/svg" width="153.1" height="202.3" style="enable-background:new 0 0 153.1 202.3" xml:space="preserve"><style>.st0{fill:#7e8083}.st1{fill:#919195}</style><g id="Hyatt_Regency_CG9U_CMYK"><path class="st0" d="M21.8 117.6v9.7H18v-21.9h3.8v8.7h10.4v-8.7H36v21.9h-3.8v-9.7H21.8zm0 0v9.7H18v-21.9h3.8v8.7h10.4v-8.7H36v21.9h-3.8v-9.7H21.8zm81.9-8.7h7.3v-3.5H92.4v3.5h7.4v18.4h3.8v-18.4zm24 0h7.3v-3.5h-18.6v3.5h7.4v18.4h3.8v-18.4zm-80-3.5h-4.5l8.6 12.3v9.6h3.9v-9.6l8.7-12.3h-4.5l-6.1 9.2-6.1-9.2zm34.9 15.8h-9.5l-2.6 6.1h-3.9l9.6-21.9h3.5l9.6 21.9h-4l-2.7-6.1zm-1.5-3.5-3.3-7.7-3.3 7.7h6.6zM25.3 144.9c2.6-.4 4.1-2 4.1-4.2v-.2c0-2.5-2.1-4.2-5.3-4.2H18V151h1.3v-5.9h4.6l4.6 5.8h1.6l-4.8-6zm-6-.9v-6.4h4.8c2.5 0 4 1.1 4 3.1v.2c0 1.9-1.6 3.2-4.1 3.2h-4.7zM36.9 149.8v-5.6h8.3V143h-8.3v-5.5h9.2v-1.2H35.6V151h10.6v-1.2zM58.5 143v1.2h4.8v4.3c-.9.8-2.6 1.6-4.5 1.6-3.6 0-6.1-2.6-6.1-6.4 0-3.6 2.6-6.4 5.9-6.4 2.3 0 3.6.9 4.6 1.7l.1.1.8-1-.1-.1c-1.7-1.4-3.2-1.9-5.4-1.9-4.5 0-7.3 3.9-7.3 7.6 0 4.4 3 7.5 7.4 7.5 3 0 5-1.5 5.8-2.2v-6h-6zM72.3 149.8v-5.6h8.3V143h-8.3v-5.5h9.3v-1.2H71.1V151h10.6v-1.2zM98.6 136.3v12.4l-9.8-12.3v-.1h-1.2V151h1.2v-12.7l10 12.7h1v-14.7zM117.6 147.8c-1.7 1.7-3.1 2.3-5 2.3-3.4 0-6-2.8-6-6.4 0-3.6 2.6-6.4 6-6.4 2.3 0 3.7 1.1 4.8 2.1l.1.1.9-.9-.1-.1c-1.5-1.4-3.1-2.3-5.7-2.3-4.1 0-7.3 3.3-7.3 7.6s3.1 7.5 7.3 7.5c2.9 0 4.5-1.3 5.8-2.5l.1-.1-.9-.9z"/><g><path class="st0" d="m133.5 136.3-5.3 7.7-5.3-7.6v-.1h-1.6l6.3 8.9v5.8h1.3v-5.8l6.2-8.9z"/></g></g><g id="_xAE__CG9U_PMS_CMYK"><path class="st1" d="M138.3 136.6c.7 0 1.3.6 1.3 1.3 0 .7-.6 1.3-1.3 1.3-.7 0-1.3-.6-1.3-1.3 0-.8.6-1.3 1.3-1.3zm0 2.8c.9 0 1.6-.7 1.6-1.6 0-.9-.7-1.6-1.6-1.6-.9 0-1.6.7-1.6 1.6.1.9.7 1.6 1.6 1.6z"/><path class="st1" d="M137.7 137h.7c.2 0 .4.1.5.2.1.1.1.2.1.3 0 .3-.2.4-.4.5l.4.6h-.4l-.4-.6h-.2v.6h-.3V137zm.7.8c.2 0 .3-.1.3-.3 0-.2-.1-.3-.3-.3h-.4v.5h.4z"/></g><g id="Symbol_5493U_CMYK"><linearGradient id="SVGID_1_" gradientUnits="userSpaceOnUse" x1="44.834" y1="72.912" x2="79.137" y2="72.912"><stop offset="0" style="stop-color:#a0bfc8"/><stop offset=".534" style="stop-color:#71a1ae"/><stop offset="1" style="stop-color:#548f9d"/></linearGradient><path d="M76.5 67.9c-2.7-5.8-7.4-10.5-13.3-13.3-3.5 1.7-7.5 2.6-11.7 2.6-2.3 0-4.6-.3-6.8-.8V73l31.7 18.3c1.7-3.5 2.6-7.5 2.6-11.7.1-4.2-.8-8.2-2.5-11.7z" style="fill:url(#SVGID_1_)"/><linearGradient id="SVGID_2_" gradientUnits="userSpaceOnUse" x1="44.834" y1="37.598" x2="76.543" y2="37.598"><stop offset="0" style="stop-color:#548f9d"/><stop offset=".534" style="stop-color:#71a1ae"/><stop offset="1" style="stop-color:#a0bfc8"/></linearGradient><path d="M76.5 18 44.8 36.3v20.1c2.2.5 4.4.8 6.8.8 4.2 0 8.1-.9 11.7-2.6 5.8-2.7 10.5-7.4 13.3-13.3-1.7-3.5-2.6-7.5-2.6-11.7 0-4.1.9-8 2.5-11.6z" style="fill:url(#SVGID_2_)"/><linearGradient id="SVGID_3_" gradientUnits="userSpaceOnUse" x1="73.951" y1="36.303" x2="108.25" y2="36.303"><stop offset="0" style="stop-color:#548f9d"/><stop offset=".534" style="stop-color:#71a1ae"/><stop offset="1" style="stop-color:#a0bfc8"/></linearGradient><path d="M76.5 18c-1.7 3.6-2.6 7.5-2.6 11.7 0 4.2.9 8.1 2.6 11.7 2.7 5.8 7.4 10.5 13.3 13.3 3.5-1.7 7.5-2.6 11.7-2.6 2.3 0 4.6.3 6.8.8V36.3L76.5 18z" style="fill:url(#SVGID_3_)"/><linearGradient id="SVGID_4_" gradientUnits="userSpaceOnUse" x1="76.543" y1="71.618" x2="108.25" y2="71.618"><stop offset="0" style="stop-color:#a0bfc8"/><stop offset=".534" style="stop-color:#71a1ae"/><stop offset="1" style="stop-color:#548f9d"/></linearGradient><path d="M101.5 52c-4.2 0-8.1.9-11.7 2.6C84 57.3 79.3 62 76.5 67.9c1.7 3.5 2.6 7.5 2.6 11.7 0 4.2-.9 8.1-2.6 11.7L108.2 73V52.9c-2.1-.6-4.4-.9-6.7-.9z" style="fill:url(#SVGID_4_)"/></g><g id="Property_Name_CG9U_CMYK_Outline"><path class="st0" d="M16 177.6h3c.8 0 1.5.2 1.9.7.4.4.6.9.6 1.4 0 1.1-.7 1.7-1.6 2l1.8 2.5h-1.4l-1.6-2.3h-1.5v2.3H16v-6.6zm2.9 3.3c.8 0 1.4-.4 1.4-1.1 0-.7-.5-1.1-1.4-1.1h-1.7v2.2h1.7zM23.3 177.6h4.9v1h-3.8v1.7h3.3v1h-3.3v1.8h3.8v1h-5v-6.5zM29.6 183.3l.7-.8c.6.6 1.3.9 2.1.9.7 0 1.2-.3 1.2-.8s-.3-.7-1.5-1c-1.4-.3-2.2-.8-2.2-2 0-1.1 1-1.9 2.3-1.9 1 0 1.7.3 2.4.8l-.6.9c-.6-.4-1.2-.7-1.8-.7-.7 0-1.1.4-1.1.8 0 .5.3.7 1.6 1 1.4.3 2.1.8 2.1 1.9 0 1.2-1 2-2.4 2-1 0-2-.4-2.8-1.1zM36.1 181c0-1.9 1.4-3.5 3.5-3.5 2 0 3.5 1.5 3.5 3.4s-1.4 3.4-3.5 3.4c-2.1.1-3.5-1.4-3.5-3.3zm5.8 0c0-1.3-.9-2.4-2.3-2.4-1.3 0-2.2 1.1-2.2 2.3 0 1.3.9 2.4 2.3 2.4 1.2 0 2.2-1 2.2-2.3zM44.7 177.6h3c.8 0 1.5.2 1.9.7.4.4.6.9.6 1.4 0 1.1-.7 1.7-1.6 2l1.8 2.5H49l-1.6-2.3h-1.5v2.3h-1.2v-6.6zm2.9 3.3c.8 0 1.4-.4 1.4-1.1 0-.7-.5-1.1-1.4-1.1h-1.7v2.2h1.7zM53.6 178.7h-2.1v-1.1h5.4v1.1h-2.1v5.6h-1.2v-5.6zM56.9 185.2c.6-.1.9-.4.8-.9h-.5V183h1.3v1.1c0 1.1-.5 1.5-1.5 1.6l-.1-.5zM63.3 183.3l.7-.8c.6.6 1.3.9 2.1.9.7 0 1.2-.3 1.2-.8s-.3-.7-1.5-1c-1.4-.3-2.2-.8-2.2-2 0-1.1 1-1.9 2.3-1.9 1 0 1.7.3 2.4.8l-.6.9c-.6-.4-1.2-.7-1.8-.7-.7 0-1.1.4-1.1.8 0 .5.3.7 1.6 1 1.4.3 2.1.8 2.1 1.9 0 1.2-1 2-2.4 2-1.1 0-2-.4-2.8-1.1zM70 177.6h2.6c1.5 0 2.5.9 2.5 2.2 0 1.5-1.2 2.3-2.7 2.3h-1.3v2.1H70v-6.6zm2.6 3.5c.9 0 1.4-.5 1.4-1.2 0-.8-.6-1.2-1.4-1.2h-1.4v2.4h1.4zM78.4 177.6h1.1l2.9 6.7h-1.2l-.7-1.6h-3.1l-.7 1.6h-1.2l2.9-6.7zm1.7 4L79 179l-1.1 2.7h2.2zM91 183.5c-.6.5-1.2.9-2 .9-1.2 0-2.2-.8-2.2-1.9 0-.9.5-1.5 1.4-1.9-.4-.5-.6-.9-.6-1.4 0-.9.7-1.7 1.9-1.7 1.1 0 1.8.7 1.8 1.6 0 .9-.6 1.4-1.5 1.7L91 182c.3-.4.5-.8.7-1.3l.9.5c-.3.5-.6 1.1-.9 1.5l1 1.1-.9.6-.8-.9zm-.6-.7-1.5-1.5c-.6.3-.9.7-.9 1.1 0 .6.5 1 1.1 1 .5 0 .9-.2 1.3-.6zm-.1-3.6c0-.5-.3-.8-.8-.8s-.8.3-.8.8c0 .3.1.6.5 1 .8-.2 1.1-.5 1.1-1zM97.3 181c0-1.9 1.4-3.5 3.4-3.5 1.2 0 2 .4 2.6 1l-.8.9c-.5-.5-1.1-.8-1.9-.8-1.3 0-2.2 1-2.2 2.3 0 1.3.9 2.4 2.2 2.4.8 0 1.3-.3 1.9-.9l.8.8c-.7.7-1.5 1.2-2.7 1.2-1.8 0-3.3-1.5-3.3-3.4zM107.4 177.6h1.1l2.9 6.7h-1.2l-.7-1.6h-3.1l-.7 1.6h-1.2l2.9-6.7zm1.7 4-1.2-2.7-1.1 2.7h2.3zM112.4 183.3l.7-.8c.6.6 1.3.9 2.1.9.7 0 1.2-.3 1.2-.8s-.3-.7-1.5-1c-1.4-.3-2.2-.8-2.2-2 0-1.1 1-1.9 2.3-1.9 1 0 1.7.3 2.4.8l-.6.9c-.6-.4-1.2-.7-1.8-.7-.7 0-1.1.4-1.1.8 0 .5.3.7 1.6 1 1.4.3 2.1.8 2.1 1.9 0 1.2-1 2-2.4 2-1 0-2-.4-2.8-1.1zM119.4 177.6h1.2v6.7h-1.2v-6.7zM122.7 177.6h1.1l3.6 4.6v-4.6h1.2v6.7h-1l-3.7-4.7v4.7h-1.2v-6.7zM130.2 181c0-1.9 1.4-3.5 3.5-3.5 2 0 3.5 1.5 3.5 3.4s-1.4 3.4-3.5 3.4c-2.1.1-3.5-1.4-3.5-3.3zm5.7 0c0-1.3-.9-2.4-2.3-2.4-1.3 0-2.2 1.1-2.2 2.3 0 1.3.9 2.4 2.3 2.4s2.2-1 2.2-2.3z"/><g><path class="st0" d="M43.1 165.2h1.2v5.6h3.5v1.1h-4.7v-6.7zM52.1 165.1h1.1l2.9 6.7h-1.2l-.7-1.6h-3.1l-.7 1.6h-1.2l2.9-6.7zm1.7 4.1-1.2-2.7-1.1 2.7h2.3zM57.6 165.2h1.2v3.3l3.2-3.3h1.4l-2.8 2.9 2.9 3.8h-1.4l-2.3-3-1 1.1v1.9h-1.2v-6.7zM65 165.2h5v1h-3.8v1.7h3.3v1h-3.3v1.8H70v1h-5v-6.5zM76.7 166.3h-2.1v-1.1H80v1.1h-2.1v5.6h-1.2v-5.6zM83.4 165.1h1.1l2.9 6.7h-1.2l-.7-1.6h-3.1l-.7 1.6h-1.2l2.9-6.7zm1.7 4.1-1.2-2.7-1.1 2.7h2.3zM89 165.2h1.2v2.8h3.2v-2.8h1.2v6.7h-1.2V169h-3.2v2.8H89v-6.6zM96.3 168.5c0-1.9 1.4-3.5 3.5-3.5 2 0 3.5 1.5 3.5 3.4s-1.4 3.4-3.5 3.4c-2 .2-3.5-1.4-3.5-3.3zm5.8 0c0-1.3-.9-2.4-2.3-2.4-1.3 0-2.2 1.1-2.2 2.3 0 1.3.9 2.4 2.3 2.4 1.2.1 2.2-1 2.2-2.3zM105 165.2h4.9v1h-3.8v1.7h3.3v1h-3.3v1.8h3.8v1h-5v-6.5z"/></g></g><g id="Clear_Area"><path style="fill:none" d="M0 0h153.1v202.3H0z"/></g></svg>