<svg version="1.1" id="Layer_1" xmlns="http://www.w3.org/2000/svg" x="0" y="0" width="612" height="792" style="enable-background:new 0 0 612 792" xml:space="preserve"><style>.st0{fill:#003a5d}.st1{fill:#8e7242}</style><path class="st0" d="M208.4 419.4h4.7l7.7 23.5 7.5-23.4h5.8l-11 31.7h-4.8l-7.7-22.6-7.7 22.6h-4.8l-11-31.7h6l7.5 23.4 7.8-23.5zM248.2 447c2.7 0 4.5-1 6.4-2.8l3.2 2.8c-2.3 2.7-5.4 4.5-9.7 4.5-6.9 0-12.2-5-12.2-12.4 0-6.8 4.8-12.4 11.6-12.4 7.6 0 11.4 5.9 11.4 12.8 0 .5 0 .9-.1 1.5h-17.5c.7 3.9 3.4 6 6.9 6zm5.3-9.6c-.4-3.5-2.4-6.3-6-6.3-3.3 0-5.7 2.6-6.2 6.3h12.2zM265.6 451v-32.9h5.4V451h-5.4zM279.4 451v-32.9h5.4V451h-5.4zM325.4 447.9l-3.6 4-3.8-3.4c-2.7 1.8-5.9 3-9.6 3-9.7 0-16.4-7.3-16.4-16.3 0-8.9 6.8-16.3 16.5-16.3s16.4 7.3 16.4 16.3c0 3.6-1.2 7-3.2 9.7l3.7 3zm-16.8-7.6 3.6-4.1 5.4 5c1.1-1.7 1.6-3.7 1.6-5.9 0-6.2-4.5-11.3-10.7-11.3-6.3 0-10.6 5-10.6 11.2s4.5 11.3 10.7 11.3c2.1 0 3.9-.6 5.4-1.5l-5.4-4.7zM347.6 427.2h5.4V451h-5.4v-3.7c-1.5 2.3-3.7 4.2-7.4 4.2-5.4 0-8.5-3.6-8.5-9.1v-15.1h5.4v13.5c0 3.7 1.8 5.8 5.1 5.8 3.2 0 5.4-2.2 5.4-5.9v-13.5zM371.8 447c2.7 0 4.5-1 6.4-2.8l3.2 2.8c-2.3 2.7-5.4 4.5-9.7 4.5-6.9 0-12.2-5-12.2-12.4 0-6.8 4.8-12.4 11.6-12.4 7.6 0 11.4 5.9 11.4 12.8 0 .5 0 .9-.1 1.5h-17.5c.7 3.9 3.4 6 6.9 6zm5.3-9.6c-.4-3.5-2.4-6.3-6-6.3-3.3 0-5.7 2.6-6.2 6.3h12.2zM397 451.4c-3.4 0-7.1-1.2-10.1-3.6l2.4-3.7c2.6 1.9 5.4 2.9 7.8 2.9 2.3 0 3.7-1 3.7-2.6v-.1c0-1.8-2.5-2.5-5.3-3.3-3.5-1-7.4-2.4-7.4-7 0-4.5 3.7-7.2 8.5-7.2 3 0 6.2 1 8.7 2.7l-2.2 3.9c-2.3-1.4-4.7-2.3-6.7-2.3-2.1 0-3.3 1-3.3 2.4v.1c0 1.7 2.6 2.4 5.4 3.3 3.5 1.1 7.4 2.7 7.4 6.9v.1c-.1 5-3.9 7.5-8.9 7.5zM418.4 443.5c0 2.1 1.1 3 2.9 3 1.2 0 2.3-.3 3.4-.8v4.5c-1.4.8-2.9 1.2-4.9 1.2-4 0-6.8-1.8-6.8-7v-12.5h-3v-4.7h3v-6.5h5.4v6.5h6.4v4.7h-6.4v11.6z"/><g><path class="st1" d="M335.2 372.8c6.3-6.8 10.2-16 10.2-26.2 0-21.4-17.3-38.9-38.5-38.9-10.5 0-20.3 4.1-27.7 11.4-7.3 7.3-11.3 17-11.3 27.2 0 10.4 4 20.1 11.3 27.4 7.3 7.3 16.9 11.3 27.2 11.3 9.4 0 17.9-3.2 24.6-8.5l9.1 9.9-.4.6c-3 5.2-8.5 8.3-14.5 8.3H288c-6 0-11.5-3.2-14.5-8.3l-18.7-32.4c-3-5.2-3-11.5 0-16.7l18.7-32.4c3-5.2 8.5-8.3 14.5-8.3h37.4c6 0 11.5 3.2 14.5 8.3l18.7 32.4c3 5.2 3 11.5 0 16.7L343.4 381l-8.2-8.2z"/><path class="st1" d="M339.6 346.5c0 18.2-14.8 33-32.9 33-18.1 0-32.9-14.8-33-33 0-8.7 3.4-17 9.7-23.3 6.3-6.3 14.5-9.7 23.3-9.7s17 3.5 23.3 9.7c6.2 6.2 9.7 14.5 9.6 23.3zm-15.5 17.3c.3 0 .6-.1.9-.2.3-.1.5-.3.8-.5h.1l.1-.1h.1l.1-.1c.2-.2.4-.5.5-.7.1-.3.2-.7.2-1v-30.1c0-1.2-1.1-1.9-2.7-1.9-1.7 0-2.8.8-2.8 1.9v23.6l-12.7-12.6c-.5-.5-1.2-.8-1.9-.8s-1.4.3-1.9.8l-12.7 12.6v-23.6c0-1.2-1.2-2-2.8-2-1.6 0-2.7.8-2.7 2v30.1c0 .4.1.7.2 1 .1.3.3.5.5.7v.1l.1.1.1.1h.1c.2.2.5.3.7.5.3.1.6.2.9.2h.3c.3 0 .6-.1.9-.2.3-.1.6-.3.9-.6l14.9-14.9c.1-.1.2-.2.4-.2s.3.1.4.2L322 363c.3.3.6.5.9.6.3.1.6.2.9.2h.3z"/></g><g><path class="st0" d="M258 486.6c.9-.1 1.4-.2 1.8-.5.5-.4.9-1.1 1.2-2.2l4.5-16.2c.2-.7.3-1.1.3-1.4s.1-.5.1-.8c0-.6-.2-1-.6-1.2-.4-.2-1.2-.4-2.2-.4v-.6h10v.6c-1 .1-1.7.2-2.1.5-.7.4-1.3 1.1-1.6 2.2l-4.5 16.2-.3 1.4v.4c0 .3.1.5.3.7.2.2.5.3.9.4.3.1.8.1 1.4.1h1.7c2.5 0 4.4-.3 5.7-1 1.3-.7 2.5-2.1 3.6-4.5l.7.2-2.1 6.6H258v-.5zM287.7 471c.1 0 .1.1.1.2l-3.6 12.8c-.2.7-.3 1.1-.3 1.2 0 .2 0 .3.1.5.1.1.2.2.4.2.4 0 .9-.4 1.6-1.1.4-.4.9-1 1.4-1.8l.5.4-.2.3c-.9 1.3-1.6 2.1-2.2 2.7-.9.9-1.8 1.3-2.7 1.3-.5 0-.9-.2-1.3-.6s-.5-.9-.5-1.5c0-.3 0-.6.1-.9 0-.3.1-.6.3-1.1l2.5-9.2c0-.1.1-.3.1-.4v-.4c0-.4-.2-.7-.5-.8-.3-.1-.9-.2-1.9-.2v-.6c1-.1 1.7-.2 2.1-.3.4-.1.9-.1 1.3-.2.6-.1 1.1-.2 1.6-.3.7-.2 1-.3 1.1-.2zm-1.7-4.5c-.3-.4-.5-.8-.5-1.4 0-.5.2-1 .5-1.4.3-.4.8-.6 1.3-.6s.9.2 1.3.6.5.8.5 1.4-.2 1-.5 1.4-.8.6-1.3.6-1-.2-1.3-.6zM305.3 471.7c.4.5.5 1 .5 1.6 0 1.6-1.6 4.4-4.8 8.4-3 3.8-4.8 5.7-5.4 5.7-.2 0-.3-.2-.4-.7 0-.3-.1-.7-.1-1.4 0-.8-.1-2.1-.2-4.1-.2-1.9-.3-3.3-.4-4.2-.3-2-.6-3.3-.9-3.9-.3-.6-.8-.9-1.6-.9h-.5c-.2 0-.4 0-.6.1v-.3c.4-.1 1.1-.2 2.2-.5s1.7-.4 1.8-.4l.6-.2c.2 0 .3 0 .4.3s.2.7.4 1.3c.5 2.1.8 4.1 1 6.1.1 1.3.3 3.1.4 5.6l.6-.6c1.2-1.3 2.5-2.8 3.7-4.6 1.2-1.8 1.8-3 1.8-3.8 0-.4-.3-.8-.8-1.3s-.8-1-.8-1.4c0-.4.1-.7.4-1 .3-.3.6-.4 1-.4.9-.1 1.4.2 1.7.6zM315.5 471c.1 0 .1.1.1.2L312 484c-.2.7-.3 1.1-.3 1.2 0 .2 0 .3.1.5.1.1.2.2.4.2.4 0 .9-.4 1.6-1.1.4-.4.9-1 1.4-1.8l.5.4-.2.3c-.9 1.3-1.6 2.1-2.2 2.7-.9.9-1.8 1.3-2.7 1.3-.5 0-.9-.2-1.3-.6s-.5-.9-.5-1.5c0-.3 0-.6.1-.9 0-.3.1-.6.3-1.1l2.5-9.2c0-.1.1-.3.1-.4v-.4c0-.4-.2-.7-.5-.8-.3-.1-.9-.2-1.9-.2v-.6c1-.1 1.7-.2 2.1-.3.4-.1.9-.1 1.3-.2.6-.1 1.1-.2 1.6-.3.8-.2 1.1-.3 1.1-.2zm-1.6-4.5c-.3-.4-.5-.8-.5-1.4 0-.5.2-1 .5-1.4.3-.4.8-.6 1.3-.6s.9.2 1.3.6.5.8.5 1.4-.2 1-.5 1.4-.8.6-1.3.6-1-.2-1.3-.6zM318.8 487.1l3.1-11c.3-.9.4-1.5.5-1.7 0-.2.1-.4.1-.6 0-.3-.1-.6-.3-.8s-.6-.3-1.2-.3h-.4c-.1 0-.3 0-.5.1v-.6c.8-.1 1.3-.2 1.6-.3.3-.1.7-.1 1.1-.2l3.2-.7c.1 0 .1.1.1.2l-2.4 7.7c1.5-2.2 2.7-3.9 3.7-5 1.7-1.9 3.3-2.9 4.6-2.9.5 0 1 .1 1.4.3.7.4 1.1 1.1 1.1 2.1 0 .3 0 .6-.1.9s-.1.6-.2 1l-2.4 8.6c0 .2-.1.4-.2.7s-.1.4-.1.5c0 .2 0 .3.1.5.1.1.2.2.4.2.3 0 .6-.2 1-.5.4-.4 1-1.1 1.9-2.3l.5.5c-1 1.3-1.7 2.3-2.3 2.8-1 .9-1.9 1.4-2.7 1.4-.4 0-.8-.1-1.1-.4-.4-.3-.6-.8-.6-1.5v-.6c0-.2.1-.4.1-.6l2.3-8.7c.1-.5.2-.9.2-1.2 0-.3.1-.5.1-.7 0-.3-.1-.5-.2-.7-.1-.2-.4-.3-.7-.3-.9 0-2 .8-3.4 2.4-.8 1-1.6 2.1-2.5 3.4-.6 1-1.1 2-1.5 3-.4 1-.9 2.8-1.7 5.4h-2.6zM338.5 488.1c.7-.8 1.8-1.6 3.3-2.4-.3-.2-.5-.4-.7-.6-.2-.2-.3-.5-.3-.8 0-.5.3-1 1-1.7.4-.4 1-.8 1.9-1.4-.8-.3-1.4-.7-2-1.2-.7-.7-1-1.6-1-2.7 0-1.8.7-3.3 2.1-4.5 1.4-1.2 3.1-1.8 5.2-1.8 1.1 0 2 .2 2.8.5.8.3 1.2.6 1.3.8h2.4v1.4h-1.8c.1.3.1.5.2.7 0 .2.1.5.1.9 0 1.9-.7 3.4-2.2 4.5-1.5 1.1-3.1 1.7-4.8 1.7h-.5c-.2 0-.3-.1-.6-.1-.2 0-.4.2-.7.5-.3.3-.5.7-.5.9 0 .4 1.3 1.1 3.9 2.1 2.6 1 3.9 2.4 3.9 4.3 0 1.4-.7 2.7-2 3.8-1.3 1.1-3.3 1.6-5.9 1.6-1.8 0-3.3-.4-4.4-1.2-1.1-.8-1.6-1.7-1.6-2.9-.2-.7.2-1.6.9-2.4zm9.2 4.8c.9-.7 1.4-1.5 1.4-2.4 0-.7-.2-1.3-.7-1.8-.3-.3-.7-.5-1.3-.8-.5-.2-1.3-.6-2.5-1s-1.8-.7-2-.7c-.3 0-.9.4-1.8 1.2-.9.8-1.3 1.8-1.3 2.8 0 1.6.7 2.7 2.1 3.3.7.3 1.6.5 2.6.5 1.3-.1 2.5-.4 3.5-1.1zm-3.9-13.1c.4.7 1.1 1.1 2.1 1.1 1.1 0 2-.7 2.9-2 .8-1.4 1.3-2.9 1.3-4.5 0-.8-.2-1.4-.5-1.8-.3-.4-.9-.7-1.6-.7-1.3 0-2.4.7-3.2 2.1s-1.2 2.8-1.2 4.1c-.1.6 0 1.2.2 1.7z"/></g></svg>