<svg xmlns="http://www.w3.org/2000/svg" width="172" height="172" style="enable-background:new 0 0 172 172" xml:space="preserve"><path d="M151.8 34.3c-.8-.2-1.9-.1-2.2-.6-4.8-7.1-11.5-8.3-17.9-2.6-19.8 17.7-36.4 39.8-45.9 64.7-3.6 9.6-6.4 19.5-9.2 29.4-3.7 8.9-1.4 26.7-14.5 26.8-14.4-21.3-3.9-49.1-4.7-73.2-6.4 8.9-24.6 79.4-34.5 41.1 2.2-14.9 7.6-29.4 8.1-44.8 1.2-4.9-3.8-6.9-8.1-7v-3C38.6 46 48.2 72.2 45 86.6c4.7-12.4 7.1-25.9 15.4-36.7 7.1-9.4 18.3 2.4 16.4 11-1 12.4-4.1 23.3-5 36 6.8-27.1 17.1-46.6 37.6-65.5C123.5 17.3 138 4.8 152 26.7c-.2 2.6-.2 5.1-.2 7.6zM44.1 88.5l-.1.2h.2l-.1-.2z"/><path d="M94 158.8c-40-10.4 30.6-101.9 53.5-87.9 6 2.6 4.1 12.3-1.9 12.8-6.6.6-10.7 4.5-14.4 9.2-10.6 13.4-22.6 27.2-27.4 43.8 10.8.3 16.5-13.4 27.3-7.9 14.7 7.7-2.6 16.7-9.8 21.9-8.1 5.6-17.4 9-27.3 8.1z"/></svg>