<svg version="1.1" id="Layer_1" xmlns="http://www.w3.org/2000/svg" x="0" y="0" width="249" height="96" style="enable-background:new 0 0 249 96" xml:space="preserve"><style>.st0{fill:#bf311a}</style><path d="M28 72c-.3-.8-1.2-1.2-2.2-1.2-1.4 0-2.5 1.1-2.5 2.5 0 1.3.8 2.5 2.5 2.5 1.1 0 2.1-.6 2.3-1.5h.8c-.4 1.3-1.6 2-3.1 2-2 0-3.3-1.3-3.3-3s1.6-3 3.3-3c1.6 0 2.7.7 3 1.8H28zM49.4 73.2c0 1.4-1.1 2.5-2.5 2.5-1.7 0-2.5-1.2-2.5-2.5 0-1.4 1.1-2.5 2.5-2.5 1.7.1 2.5 1.3 2.5 2.5zm-5.9 0c0 1.7 1.3 3 3.3 3 1.7 0 3.3-1.3 3.3-3s-1.3-3-3.3-3c-1.7 0-3.3 1.3-3.3 3zM66.1 70.9h2.1c.7 0 1.3.3 1.3 1s-.6 1-1.3 1h-2.1v-2zm4.5 5.2c-.3-.2-.4-.6-.4-1v-.6c0-.8-.2-1-1-1.2.7-.2 1.1-.7 1.1-1.3 0-1-.8-1.6-1.9-1.6h-3v5.7h.7v-2.6h2.2c.8 0 1.1.2 1.1.9v.9c0 .5.1.6.2.8h1zM86.4 70.9h1.8c.9 0 1.5.4 1.5 1.2 0 .9-.7 1.2-1.5 1.2h-1.8v-2.4zm-.8 5.2h.7v-2.2H88c1.4 0 2.4-.6 2.4-1.8 0-1.1-1-1.8-2.4-1.8h-2.5v5.8zM110.9 73.2c0 1.4-1.1 2.5-2.5 2.5-1.7 0-2.5-1.2-2.5-2.5 0-1.4 1.1-2.5 2.5-2.5 1.7.1 2.5 1.3 2.5 2.5zm-5.9 0c0 1.7 1.3 3 3.3 3 1.7 0 3.3-1.3 3.3-3s-1.3-3-3.3-3c-1.7 0-3.3 1.3-3.3 3zM127.6 70.9h2.1c.7 0 1.3.3 1.3 1s-.6 1-1.3 1h-2.1v-2zm4.4 5.2c-.3-.2-.4-.6-.4-1v-.6c0-.8-.2-1-1-1.2.7-.2 1.1-.7 1.1-1.3 0-1-.8-1.6-1.9-1.6h-3v5.7h.7v-2.6h2.2c.8 0 1.1.2 1.1.9v.9c0 .5.1.6.2.8h1zM149.6 71.1l1.5 3.2H148l1.6-3.2zm-3.3 5h.8l.7-1.3h3.6l.6 1.3h.8l-2.9-5.7h-.7l-2.9 5.7zM171 70.4v.6h-2.1v5.1h-.7V71H166v-.6h5zM185.7 70.4h.7v5.7h-.7v-5.7zM207.3 73.2c0 1.4-1.1 2.5-2.5 2.5-1.7 0-2.5-1.2-2.5-2.5 0-1.4 1.1-2.5 2.5-2.5 1.7.1 2.5 1.3 2.5 2.5zm-5.8 0c0 1.7 1.3 3 3.3 3 1.7 0 3.3-1.3 3.3-3s-1.3-3-3.3-3c-1.7 0-3.3 1.3-3.3 3zM223.2 70.4h.7l4.2 4.6v-4.6h.7v5.7h-.7l-4.2-4.7v4.7h-.7v-5.7z"/><path class="st0" d="M20.9 50v.2h22.9c0-.7-.1-1.3-.4-1.9-.1-.2-.2-.5-.3-.7H21.3c-.1.8-.3 1.6-.4 2.4zM20.8 51.6c-.1 1-.1 1.7 0 2.6h21.6c.2-.3.3-.5.5-.8.3-.6.6-1.2.7-1.8H20.8zM42.3 22.2c-.2-.4-.4-.7-.6-1.1-.6-1-2.1-1.8-3.3-.5l-1.6 1.6h5.5zM23.7 40.4c-.2.5-.5 1.1-.7 1.7h15.5c-.9-.8-1.6-1.6-2.4-2.6h-12c-.1.4-.3.6-.4.9zM21.7 46.2h20.7c-.4-.7-1-1.4-2-2.3l-.3-.3H22.5c-.3.8-.6 1.7-.8 2.6zM35.3 23.6c-.7.7-1.5 1.6-2.4 2.6h10.8c-.2-1-.4-1.9-.7-2.6h-7.7zM21 55.6c.1 1 .3 1.9.6 2.6h16.2c1.6-1 2.7-1.9 3.5-2.6H21zM22.3 59.6c.4.5.8.9 1.3 1.3 1.7 1.2 3.5 1.2 5.3 1 1.5-.2 3.6-.8 6.4-2.2h-13zM31.6 27.6c-.7.8-1.4 1.7-2.1 2.6H44c0-.8-.1-1.7-.2-2.6H31.6zM35.3 35.6h-9.2c-.5.9-1 1.8-1.4 2.6h10.7c-.2-.9-.2-1.8-.1-2.6zM37.4 31.6h-8.9c-.2.3-.4.7-.6 1-.4.6-.7 1.1-1 1.6h8.6V34c.2-1.3.9-2 1.9-2.4zM71 50v.2H48.1c0-.7.1-1.3.4-1.9.1-.2.2-.5.3-.7h21.8c.2.8.3 1.6.4 2.4zM71.1 51.6c.1 1 .1 1.7 0 2.6H49.5c-.2-.3-.3-.5-.5-.8-.3-.6-.6-1.2-.7-1.8h22.8zM49.6 22.2c.2-.4.4-.7.6-1.1.6-1 2.1-1.8 3.3-.5l1.6 1.6h-5.5zM68.2 40.4c.2.5.5 1.1.7 1.7H53.4c.9-.8 1.6-1.6 2.4-2.6h12.1c0 .4.2.6.3.9zM70.2 46.2H49.5c.4-.7 1-1.4 2-2.3l.3-.3h17.5c.4.8.7 1.7.9 2.6zM56.6 23.6c.7.7 1.5 1.6 2.4 2.6H48.3c.2-1 .4-1.9.7-2.6h7.6zM71 55.6c-.1 1-.3 1.9-.6 2.6H54.2c-1.6-1-2.7-1.9-3.5-2.6H71zM69.6 59.6c-.4.5-.8.9-1.3 1.3-1.7 1.2-3.5 1.2-5.3 1-1.5-.2-3.6-.8-6.4-2.2h13zM60.3 27.6c.7.8 1.4 1.7 2.1 2.6H47.9c0-.8.1-1.7.2-2.6h12.2zM56.6 35.6h9.2c.5.9 1 1.8 1.4 2.6H56.4c.3-.9.3-1.8.2-2.6zM54.5 31.6h8.9c.2.3.4.7.6 1 .4.6.7 1.1 1 1.6h-8.6V34c-.2-1.3-.9-2-1.9-2.4z"/><path style="fill:none;stroke:#000;stroke-width:.5" d="M22.7 65h207.2"/><path d="M81 17.9v10.6c0 3.2.8 4.3 3.4 4.3 2.6 0 3.4-1.1 3.4-4.3V17.9H93V30c0 3.8-2 6.3-8.6 6.3-6.5-.1-8.5-2.5-8.5-6.3V17.9H81zM97.5 35.7V24h4.7v2h.1c.7-2 2.4-2.5 4.1-2.5 2 0 4.1 1.4 4.3 4.2v8h-4.8v-7c0-1.2-.5-1.8-1.6-1.8s-1.9 1-1.9 2.1v6.7h-4.9zM114.9 24h4.8v11.8h-4.8V24zm0-1.8v-4.3h4.8v4.3h-4.8zM124.4 24v-3.7h4.8V24h2.6v3.1h-2.6v4.6c0 .9.4 1.3 1.5 1.3.4 0 .6 0 .9-.2v2.9c-1.3.4-1.8.5-3 .5-2.3 0-4.1-.8-4.1-3.2v-5.9h-1.6V24h1.5zM138.6 28.3c.2-1.3 1.1-2.3 2.5-2.3s2.3 1 2.5 2.3h-5zm4.7 3.9c-.3.9-1.2 1.4-2.2 1.4-1.6 0-2.4-1-2.5-2.8h9.4c.3-3.4-1.5-7.3-6.8-7.3-4.1 0-7 2.3-7 6.6 0 4.1 3.3 6.2 7 6.2 2.8 0 5.7-1.3 6.6-4h-4.5zM160.4 29.9c0 2.2-.9 3.2-2.3 3.2s-2.3-1.1-2.3-3.2c0-2.2.9-3.2 2.3-3.2s2.3 1 2.3 3.2zm0-5c-1-1.1-2.5-1.4-3.9-1.4-4.4.1-5.6 3.8-5.6 6.5 0 3.9 3 6.2 5.8 6.2 1.8 0 3.3-.7 4.1-1.9v1.4h4.5V17.9h-4.8v7zM78.7 58.1v-14H74v-3.9h13.7v3.9H83v14h-4.3zM90.6 58.1V40.3h4.1v8.1c.6-1.9 2.1-2.5 3.6-2.5 1.7 0 3.6 1.4 3.7 4.2v8h-4.1v-7c0-1.2-.5-1.8-1.4-1.8-1 0-1.7 1-1.7 2.1v6.7h-4.2zM108.6 50.7c.2-1.3.9-2.3 2.1-2.3 1.2 0 2 1 2.1 2.3h-4.2zm4 3.9c-.3.9-1 1.4-1.8 1.4-1.4 0-2.1-1-2.2-2.8h8.1c.2-3.4-1.3-7.3-5.9-7.3-3.5 0-6.1 2.3-6.1 6.6 0 4.1 2.8 6.2 6 6.2 2.4 0 4.9-1.3 5.7-4h-3.8zM119.8 58.1V46.4h4v1.9c.8-1.8 1.7-2.4 4.3-2.4v4.6c-.5-.2-1-.3-1.5-.3-2 0-2.7 1.1-2.7 3.3v4.6h-4.1zM137.3 54.5c0 .8-.9 1.7-1.9 1.7-.7 0-1.4-.5-1.4-1.5 0-2 2.5-1.6 3.4-2.6l-.1 2.4zm-3-4.8c0-1.1.7-1.5 1.6-1.5.8 0 1.5.3 1.5 1.4 0 .8-.8 1.4-2.7 1.4-3.4 0-4.8 1.3-4.8 3.9 0 3.1 2.5 3.7 3.9 3.7 1 0 2.7-.5 3.5-2.1 0 .7.1 1.3.3 1.6h4.2c-.6-.7-.7-1.8-.7-3.1v-4.3c0-3-1.2-4.9-5.7-4.9-2.4 0-4.8.7-5.2 3.9h4.1zM149.1 52.3c0-2.2.8-3.2 2-3.2 1.1 0 1.9 1.1 1.9 3.2 0 2.2-.8 3.2-1.9 3.2-1.2 0-2-1.1-2-3.2zm0 4.9c.9 1.1 2.1 1.4 3.4 1.4 3.8-.1 4.9-3.8 4.9-6.5 0-3.9-2.6-6.2-5-6.2-1.5 0-2.9.7-3.5 1.9v-1.4H145v16.9h4.1v-6.1zM163.4 50.7c.2-1.3.9-2.3 2.1-2.3 1.2 0 2 1 2.1 2.3h-4.2zm4.1 3.9c-.3.9-1 1.4-1.8 1.4-1.4 0-2.1-1-2.2-2.8h8.1c.2-3.4-1.3-7.3-5.9-7.3-3.5 0-6.1 2.3-6.1 6.6 0 4.1 2.8 6.2 6 6.2 2.4 0 4.9-1.3 5.7-4h-3.8zM185.9 46.4v11.8h-4.1v-2c-.6 2-2 2.5-3.5 2.5-1.7 0-3.6-1.4-3.7-4.2v-8h4.1v7c0 1.2.5 1.8 1.4 1.8 1 0 1.7-1 1.7-2.1v-6.7h4.1zM189.9 46.4v-3.7h4.1v3.7h2.3v3.1H194v4.6c0 .9.4 1.3 1.3 1.3.3 0 .5 0 .8-.1v2.9c-1.1.4-1.5.5-2.6.5-2 0-3.6-.8-3.6-3.2v-5.9h-1.4v-3.1h1.4zM199 46.4h4.1v11.8H199V46.4zm0-1.8v-4.3h4.1v4.3H199zM213.8 50.5c-.1-.5-.2-.9-.5-1.3-.3-.3-.6-.5-1.1-.5-1.1 0-1.8 1.1-1.8 3.3 0 3 .9 3.6 1.8 3.6 1.2 0 1.5-.8 1.6-1.8h4.1c-.1 1.8-.8 3-1.9 3.8-1.1.8-2.5 1-3.9 1-3.4 0-6.1-2.3-6.1-6.5 0-2.9 2.1-6.3 6.1-6.3 2.9 0 5.3 1.7 5.8 4.6h-4.1zM224.3 54.9c.1.5.2.9.5 1.2.3.3.6.4 1.1.4.9 0 1.5-.5 1.5-1.4 0-2.3-6.7 0-6.7-4.8 0-3.1 2.4-4.4 5.6-4.4 2.2 0 4.6.8 4.8 3.9h-3.8c0-.6-.1-1-.3-1.2-.2-.3-.6-.5-1.1-.5-.6 0-1.4.3-1.4 1.1 0 2.5 6.8.2 6.8 5.3 0 3.4-3.2 4.2-5.6 4.2-2 0-5.2-.7-5.2-3.7h3.8z"/></svg>