<svg xmlns="http://www.w3.org/2000/svg" width="216" height="91.5" style="enable-background:new 0 0 216 91.5" xml:space="preserve"><path d="M43.5 27v.6h2.2l-4.3 14.5-4-14.5H40V27h-7.5v.6h1.9l1.2 4.7-3 9.8-4-14.5h2.2V27h-6.7v.6h1.3l5.4 18.7H32l4-12.7h.1l3.6 12.7h1.2l5.6-18.7h1.3V27zM51.9 46.2c2.1 0 3.2-1.5 3.2-6.9s-1.1-6.9-3.2-6.9-3.2 1.5-3.2 6.9 1.1 6.9 3.2 6.9m0-14.5c3.5 0 6.1 3.1 6.1 7.5s-2.6 7.5-6.1 7.5c-3.5 0-6.1-3.1-6.1-7.5s2.6-7.5 6.1-7.5M61.3 32.8h-1.5v-.6h4.1v2.1h.1c.6-1.6 1.6-2.5 3.4-2.5.7 0 1.5.3 1.9.5v5.5h-.6l-1-2.9c-.5-1.5-.8-2.1-1.5-2.1-1.1 0-2.3 2.1-2.3 4.6v8.4h1.8v.6h-6v-.6h1.5v-13zM70.6 32.1h1.8v-3.4H75v3.4h3.2v.6H75v11.5c0 1.1.4 1.5 1.5 1.5 1.2 0 1.9-.7 1.9-2.8v-2.2h.6v2.1c0 3-1.2 4-3.5 4-2 0-3.1-1.1-3.1-3.4V32.8h-1.8v-.7zM80.2 27h4.1v6.7h.1c.6-.8 1.8-2 3.7-2 2.2 0 3.8 1.1 3.8 4.1v9.9h1.5v.6h-5.8v-.6h1.6V35.5c0-2.1-.6-2.8-2-2.8-1.5 0-3 1.3-3 4.2v8.8h1.6v.6H80v-.6h1.5V27.6H80V27zM113.5 27v.6h1.8V36h-7.4v-8.4h1.9V27h-6.6v.6h1.7v18.1h-1.7v.6h6.6v-.6h-1.9v-9.1h7.4v9.1h-1.8v.6h6.5v-.6h-1.6V27.6h1.6V27zM125.1 27.4c.9 0 1.6.6 1.6 1.6 0 .9-.7 1.6-1.6 1.6s-1.6-.6-1.6-1.6.7-1.6 1.6-1.6m1.3 18.3h1.3v.6h-5.3v-.6h1.3v-13h-1.3v-.6h4v13.6zM136.7 40.5c1.5 0 2.2-.8 2.2-4.1s-.8-4.1-2.2-4.1c-1.5 0-2.2.8-2.2 4.1-.1 3.3.5 4.1 2.2 4.1m-.4 10.5c2.9 0 4.8-1.5 4.8-2.9 0-1.1-.5-1.6-2.6-1.7l-5.3-.1c-.7.4-1 1.2-1 2 .1 1.3 1.6 2.7 4.1 2.7m6-18.1h-2.1v.1c1 .7 1.5 2.1 1.5 3.4 0 2.7-2.1 4.7-5 4.7-2.6 0-3.1-1-3.5-1-.8 0-2 .8-2 1.8 0 4.3 11.3-1 11.3 5.2 0 2.3-2.4 4.5-6.1 4.5-4.2 0-6-1.8-6-3.4 0-1 1-1.8 1.8-2.1V46c-1.7-.4-2.5-1.7-2.5-3.1 0-2 1.3-3.1 2.9-3.5-.6-.6-1.1-1.8-1.1-3.2 0-2.7 2.2-4.6 5-4.6.7 0 1.7.2 2.2.4h3.4v.9zM150.7 40.5c1.5 0 2.2-.8 2.2-4.1s-.8-4.1-2.2-4.1c-1.5 0-2.2.8-2.2 4.1-.1 3.3.5 4.1 2.2 4.1m-.4 10.5c2.9 0 4.8-1.5 4.8-2.9 0-1.1-.5-1.6-2.6-1.7l-5.3-.1c-.7.4-1 1.2-1 2 0 1.3 1.5 2.7 4.1 2.7m6-18.1h-2.1v.1c1 .7 1.5 2.1 1.5 3.4 0 2.7-2.1 4.7-5 4.7-2.6 0-3.1-1-3.5-1-.8 0-2 .8-2 1.8 0 4.3 11.3-1 11.3 5.2 0 2.3-2.4 4.5-6.1 4.5-4.2 0-6-1.8-6-3.4 0-1 1-1.8 1.8-2.1V46c-1.7-.4-2.5-1.7-2.5-3.1 0-2 1.3-3.1 2.9-3.5-.6-.6-1.1-1.8-1.1-3.2 0-2.7 2.2-4.6 5-4.6.7 0 1.7.2 2.2.4h3.4v.9zM160.8 27.4c.9 0 1.6.6 1.6 1.6 0 .9-.7 1.6-1.6 1.6-.9 0-1.6-.6-1.6-1.6s.7-1.6 1.6-1.6m1.3 18.3h1.3v.6h-5.3v-.6h1.3v-13h-1.3v-.6h4v13.6zM165.6 32.1h3.9V34h.1c.7-1.2 2-2.3 3.9-2.3 2.2 0 3.8 1.1 3.8 4.1v9.9h1.5v.6H173v-.6h1.6V35.5c0-2.1-.6-2.8-2-2.8-1.5 0-3 1.3-3 4.2v8.8h1.6v.6h-5.8v-.6h1.5v-13h-1.5v-.6zM181.7 40.6c1 4.7 1.6 5.5 4.1 5.5 2.2 0 3.8-1.1 3.8-3.2 0-2.7-8.7-2.1-8.7-6.8 0-2.8 2.3-4.5 5.5-4.5 1.5 0 3 .4 4 1v4.5h-.8c-1.2-4.1-1.5-4.9-3.5-4.9-1.8 0-3.4 1-3.4 2.5 0 3.5 8.7 2.3 8.7 7.2 0 2.8-2.5 4.8-5.8 4.8-1.5 0-3.2-.4-4.6-1.2v-4.9h.7z"/><g><path d="M63.6 64.6c.6-.9 1.1-2.6 1.1-3.8h1v-.7h-3.8v.7h1.9c0 1-.4 2.2-.8 3L59.6 59c.1 0 .2-.1.3-.1 1.3-.7 2.7-1.4 2.7-3 0-1.5-1.3-2.4-3.1-2.4-2 0-3.4 1.3-3.4 3.1 0 .9.6 2.2 1.1 2.9-2.6 1.2-3.5 2.9-3.5 4.1 0 2.6 1.9 4.2 4.9 4.2 1.4 0 2.6-.4 3.5-1.2l.7.9h3.3v-.7h-1l-1.5-2.2zm-1.9 1.2c-.6.6-1.4.9-2.4.9-1.5 0-3.3-1.7-3.3-3.8 0-1.3.5-2.1 1.6-2.8l4.1 5.7zM58 55.6c0-.6.2-1.3 1.3-1.3s1.3 1 1.3 1.8c0 1-.5 1.9-1.4 2.4-.6-1-1.2-1.9-1.2-2.9zM78.2 53.6h-1.5l-4.5 13.1H71v.7h3.8v-.7H73l1.6-4.6h3.8l1.5 4.6h-1.4v.7h4.6v-.7h-.8l-4.1-13.1zm.1 7.7h-3.4l1.7-5 1.7 5zM88.1 61.2c-1.3-.5-2.5-.9-2.5-1.9 0-1 1.1-1.6 2.2-1.6 1.2 0 1.4.4 2.3 3.2v.1h.8v-3.4h-.1c-.8-.3-1.9-.6-2.8-.6-2.4 0-3.9 1.3-3.9 3.2 0 2 2.1 2.7 3.7 3.3 1.2.4 2.2.8 2.2 1.5 0 1.2-.9 2-2.5 2s-2-.5-2.7-3.7v-.1H84v3.6h.1c1 .5 2.2.9 3.3.9 2.5 0 4.2-1.4 4.2-3.4 0-1.9-1.9-2.6-3.5-3.1zM97 61.2c-1.3-.5-2.5-.9-2.5-1.9 0-1 1.1-1.6 2.2-1.6 1.2 0 1.4.4 2.3 3.2v.1h.8v-3.4h-.1c-.8-.4-1.9-.7-2.8-.7-2.4 0-3.9 1.3-3.9 3.2 0 2 2.1 2.7 3.7 3.3 1.2.4 2.3.8 2.3 1.5 0 1.2-.9 2-2.5 2s-2-.5-2.7-3.7v-.1H93v3.6h.1c1 .5 2.2.9 3.3.9 2.5 0 4.2-1.4 4.2-3.4-.1-1.8-2-2.5-3.6-3zM106.2 57c-2.5 0-4.4 2.3-4.4 5.4 0 3.1 1.8 5.4 4.4 5.4 2.5 0 4.4-2.3 4.4-5.4 0-3.1-1.9-5.4-4.4-5.4zm2 5.4c0 3.8-.8 4.6-2 4.6s-2-.8-2-4.6.8-4.6 2-4.6 2 .7 2 4.6zM119 63.7c-.1 2.1-.9 3.2-2.3 3.2-1 0-2.3-.5-2.3-4.7 0-3.3 1.2-4.4 2.3-4.4.8 0 1.3.1 2.2 3.6v.1h.8v-3.8l-.4-.1c-.8-.3-1.6-.5-2.4-.5-2.9 0-4.8 2.1-4.8 5.4 0 3.2 1.8 5.4 4.4 5.4 2.1 0 3.3-1.5 3.4-4.1v-.2h-.9v.1zM124.2 57.3h-3v.8h.9v8.6h-.9v.7h4v-.7h-1zM123.2 56.6c.7 0 1.3-.5 1.3-1.3 0-.7-.5-1.3-1.3-1.3-.7 0-1.3.5-1.3 1.3 0 .7.5 1.3 1.3 1.3zM134.5 59.6c0-1.3-1.1-2.6-3.6-2.6-1.1 0-2.1.3-3 .7h-.1v3.4h.7V61c.9-2.7 1.3-3.3 2.5-3.3 1 0 1.5.5 1.5 1.6v1.9c-.6.3-1.4.5-2.2.6-1.7.3-3.7.6-3.7 3 0 1.7 1.2 2.8 3.1 2.8 1.2 0 2.2-.6 2.8-1.6v1.2h2.9v-.7h-.9v-6.9zm-2 2.5v1.2c0 2-.9 3.4-2.2 3.4-.7 0-1.4-.2-1.4-1.8 0-1.8.8-2 2.1-2.3.4-.1.9-.3 1.5-.5zM141.5 65c0 1.6-.6 1.8-1.2 1.8s-.9-.2-.9-.9v-7.8h2.2v-.7h-2.2V55h-2.1v2.3h-1.2v.7h1.2v7.2c0 1.6.8 2.5 2.3 2.5 1.8 0 2.6-.9 2.6-2.9v-1.6h-.7V65zM150.4 63.6c-.2 2.1-1.2 3.3-2.8 3.3-1 0-2.2-.5-2.2-4.8v-.4h5.7v-.2c0-2.8-1.4-4.4-3.8-4.4-2.5 0-4.3 2.3-4.3 5.4 0 3.2 1.8 5.4 4.4 5.4 2.2 0 3.7-1.6 3.8-4.1v-.2H150.4zm-5-2.7c.1-1.5.6-3.1 1.9-3.1 1 0 1.5.8 1.5 2.5v.6h-3.4zM156.7 61.2c-1.3-.5-2.5-.9-2.5-1.9 0-1 1.1-1.6 2.2-1.6 1.2 0 1.4.4 2.3 3.2v.1h.8v-3.4h-.1c-.8-.4-1.9-.7-2.8-.7-2.4 0-3.9 1.3-3.9 3.2 0 2 2.1 2.7 3.7 3.3 1.2.4 2.3.8 2.3 1.5 0 1.2-.9 2-2.5 2s-2-.5-2.7-3.7v-.1h-.8v3.6h.1c1 .5 2.2.9 3.3.9 2.5 0 4.2-1.4 4.2-3.4-.2-1.8-2-2.5-3.6-3z"/></g></svg>