<svg version="1.1" id="Layer_1" xmlns="http://www.w3.org/2000/svg" x="0" y="0" width="612.6" height="207.7" style="enable-background:new 0 0 612.6 207.7" xml:space="preserve"><style>.st0{fill:#194697}</style><path class="st0" d="M81.6 38.2c.6 0 1.3.2 1.9.5 1.9 1.1 2.7 3.5 1.6 5.4L73.5 65.4l19.1 30.4 15.3-28.9-11.2-21.5c-1-2-.3-4.4 1.7-5.4.6-.3 1.2-.5 1.8-.5 1.4 0 2.8.8 3.6 2.2l8.6 16.6 8.4-15.8c.7-1.4 2.1-2.1 3.5-2.1.6 0 1.3.1 1.9.5 2 1 2.7 3.5 1.7 5.4l-8.4 15.9 19.7-.5h.2c2.2 0 3.9 1.7 4 3.9.1 2.2-1.7 4-3.9 4.1l-24.2.6L99 101.2l34.6.1 13.9-19.9c.8-1.1 2-1.7 3.3-1.7.8 0 1.6.2 2.3.7 1.8 1.3 2.3 3.8 1 5.6l-10.7 15.4h17.9c2.2 0 4 1.8 4 4s-1.8 4-4 4h-18l9.6 17.2c1.1 1.9.4 4.4-1.5 5.4-.6.3-1.3.5-1.9.5-1.4 0-2.8-.7-3.5-2l-12-21.3-37.3-.1 18.9 32 24.2 1.8c2.2.2 3.9 2.1 3.7 4.3-.2 2.1-1.9 3.7-4 3.7h-.3l-18.7-1.4 9.1 15.4c1.1 1.9.5 4.4-1.4 5.5-.6.4-1.3.6-2 .6-1.4 0-2.7-.7-3.4-2l-9.1-15.5-9.9 17c-.7 1.3-2.1 2-3.5 2-.7 0-1.4-.2-2-.5-1.9-1.1-2.6-3.6-1.5-5.5l12.1-20.9-17.8-30.2-16.7 30.4 10.8 21.7c1 2 .2 4.4-1.8 5.4-.6.3-1.2.4-1.8.4-1.5 0-2.9-.8-3.6-2.2l-8.4-16.8L61 170c-.7 1.3-2.1 2.1-3.5 2.1-.7 0-1.3-.2-1.9-.5-1.9-1.1-2.6-3.5-1.6-5.4l8.7-15.8-19.7.3c-2.2 0-4-1.8-4-4s1.8-4 4-4l24.2-.2 18.2-33.2-37.4.4-13.6 20.1c-.8 1.1-2 1.8-3.3 1.8-.8 0-1.6-.2-2.2-.7-1.8-1.2-2.3-3.7-1.1-5.6l10.5-15.5-17.9.2c-2.2 0-4-1.8-4-4s1.8-4 4-4l18-.2-9.8-17.1c-1.1-1.9-.4-4.4 1.5-5.5.6-.4 1.3-.5 2-.5 1.4 0 2.7.7 3.5 2l12.1 21 39.1-.4L67 70.1 42.8 69c-2.2-.1-3.9-2-3.8-4.2.1-2.2 1.9-3.8 4-3.8h.1l18.7.8-9.5-15.2c-1.2-1.9-.6-4.3 1.3-5.5.7-.4 1.4-.6 2.1-.6 1.3 0 2.6.7 3.4 1.9l9.6 15.2L78 40.3c.8-1.3 2.1-2.1 3.6-2.1m0-3c-2.6 0-4.9 1.4-6.2 3.7l-7 12.8-6.8-10.9c-1.3-2.1-3.5-3.3-5.9-3.3-1.3 0-2.6.4-3.7 1.1-3.3 2.1-4.3 6.4-2.2 9.7l6.5 10.3-13-.6H43c-3.8 0-6.9 2.9-7 6.7-.2 3.9 2.8 7.1 6.7 7.3l22.7 1 15.9 25.3-32 .3L38 79.2c-1.2-2.2-3.6-3.5-6.1-3.5-1.2 0-2.4.3-3.5.9-1.6.9-2.8 2.4-3.3 4.2-.5 1.8-.2 3.7.7 5.3l7.3 12.6-12.8.1c-1.9 0-3.6.8-4.9 2.1-1.3 1.3-2 3.1-2 5 0 3.8 3.2 6.9 7 6.9h.1l12.2-.1-7.3 10.8c-2.2 3.2-1.3 7.6 1.9 9.7 1.2.8 2.5 1.2 3.9 1.2 2.3 0 4.5-1.1 5.8-3.1l12.7-18.8 30.6-.3-14.9 27.1-22.4.2c-3.9 0-7 3.2-6.9 7.1 0 3.8 3.2 6.9 7 6.9h.1l14.6-.1-6.2 11.3c-1.9 3.4-.6 7.6 2.8 9.5 1 .6 2.2.9 3.4.9 2.6 0 4.9-1.4 6.1-3.6l5.9-10.7 5.8 11.7c1.2 2.4 3.6 3.9 6.3 3.9 1.1 0 2.2-.3 3.1-.7 1.7-.8 2.9-2.3 3.5-4 .6-1.8.5-3.7-.4-5.3L78 146.1l13.4-24.4 14.2 24.1L94.2 165c-1.9 3.3-.8 7.6 2.5 9.6 1.1.6 2.3.9 3.5.9 2.5 0 4.8-1.3 6.1-3.5l7.3-12.6 6.5 11.1c1.3 2.1 3.6 3.4 6 3.4 1.2 0 2.5-.3 3.6-1 1.6-.9 2.8-2.5 3.2-4.3.5-1.8.2-3.7-.7-5.3l-6.2-10.5 13 .9h.5c3.6 0 6.7-2.9 7-6.5.1-1.9-.5-3.7-1.7-5.1-1.2-1.4-2.9-2.3-4.8-2.4l-22.6-1.6-15.4-26 30.3.1 11 19.6c1.2 2.2 3.6 3.6 6.1 3.6 1.2 0 2.4-.3 3.4-.9 1.6-.9 2.8-2.4 3.3-4.2.5-1.8.3-3.7-.6-5.3l-7.1-12.7h12.8c3.9 0 7-3.1 7-7 0-1.9-.7-3.6-2-5-1.3-1.3-3.1-2.1-4.9-2.1h-12.2l7.4-10.7c2.2-3.2 1.4-7.5-1.7-9.7-1.2-.8-2.6-1.3-4-1.3-2.3 0-4.4 1.1-5.8 3l-13 18.6-28.1-.1L117 73.2l22.4-.6c1.9 0 3.6-.8 4.9-2.2 1.3-1.4 2-3.1 1.9-5-.1-3.8-3.2-6.8-7-6.8h-.3l-14.4.4 6-11.4c.9-1.7 1.1-3.5.5-5.3-.6-1.8-1.8-3.3-3.4-4.1-1-.5-2.1-.8-3.3-.8-2.6 0-5 1.4-6.2 3.7l-5.7 10.8-6-11.6c-1.2-2.3-3.6-3.8-6.2-3.8-1.1 0-2.2.3-3.2.8-3.4 1.8-4.8 6-3 9.4l10.5 20.1-12.1 23L77 65.3l10.7-19.7c1.8-3.4.6-7.6-2.8-9.5-1-.6-2.2-.9-3.3-.9zM238.5 27l-22.6 87.2h-2.4l-19.1-72.1c-1.1-4.3-2.1-7.3-2.9-9-.8-1.7-1.7-3.1-2.8-4-1.8-1.4-4.3-2.1-7.3-2.1h-.5v-2.4h23.5V27H197l19 73 15-57.6c1.3-5.2 1.9-8.5 1.9-9.8 0-1.4-.3-2.5-.8-3.3-.5-.8-1.4-1.4-2.5-1.7-1.1-.3-2.8-.5-4.9-.5h-.9v-2.4h21.4V27h-6.7zM264.6 110.2h3.6c4.1 0 7.3-.1 9.4-.4 2.2-.2 3.9-.6 5.1-1.2 1.3-.6 2.5-1.5 3.8-2.7 1.1-1.1 2-2.3 2.6-3.6.6-1.3 1-3 1.2-5.2.2-2.1.3-5.3.3-9.4v-1.9h2.3l-.1 32.2h-2.2v-5.4h-39.9v-2.4h7.2V35.5l-.1-2.3c0-2.4-.6-4-1.6-4.8-1-.8-2.9-1.3-5.7-1.3h-.5v-2.5h40.5v-5.3h2.1v29.9h-1.9V48c0-.3 0-.5-.1-.8l-.1-4.3c-.1-4.1-.8-7.3-2.1-9.7-1.3-2.3-3.4-4-6.2-4.9-1.3-.4-3.1-.8-5.3-1-2.3-.2-5.2-.4-8.7-.4-1.4 0-2.5 0-3.5.1v22.1h12.6V35.7h2.2v32.2h-2.3v-1.5c0-3.8-.4-6.8-1.1-9-.7-2.2-1.8-3.7-3.3-4.5-1.5-.8-3.8-1.3-6.7-1.3h-1.3v58.6zM317.1 91.2v10.5c0 2.5.2 4.4.6 5.5.4 1.1 1.1 1.9 2.1 2.3 1 .4 2.6.6 4.8.6h3.8v2.4h-25v-2.4h7.2V35.5c-.1-2.5-.3-4.3-.6-5.4-.4-1.1-1-1.8-2-2.3-1-.4-2.6-.6-4.8-.6h-.5v-2.5h14.5V34c2.9-3 6.6-5.4 11.3-7.3 4.6-1.9 9.1-2.8 13.5-2.8 4.7 0 9.3 1 13.6 2.9 4.3 1.9 8.1 4.5 11.3 7.9 3.2 3.3 5.7 7.3 7.6 11.7 1.8 4.5 2.7 9.2 2.7 14.1 0 5.9-1.2 11.4-3.5 16.5-2.4 5.1-5.7 9.3-9.9 12.6-3.1 2.4-6.6 4.3-10.5 5.6-3.9 1.3-7.7 2-11.5 2h-1.4l.8.5c6 3.2 11.1 5.8 15.3 7.7 4.2 1.9 7.6 3.3 10.3 4.1 2.6.8 5.1 1.2 7.4 1.2 1.8 0 3.6-.3 5.5-1l1.2 1.7c-2.8 1.8-6 2.8-9.7 2.8-6.1 0-13.2-1.7-21.2-5.1-8-3.4-18.8-9.3-32.4-17.7l-.5-.2zm0-3.7 2.5-2.4c3.6 2.9 7.2 5.1 11 6.6s7.5 2.3 11.1 2.3c5.5 0 10.4-1.4 14.8-4.1 4.3-2.7 7.8-6.5 10.2-11.4 2.5-4.9 3.7-10.3 3.7-16.3 0-6.2-1.4-11.8-4.1-17-2.8-5.2-6.5-9.3-11.3-12.3-4.8-3-10-4.5-15.6-4.5-2.9 0-5.7.5-8.5 1.4-2.8.9-5.4 2.1-7.8 3.6-2.4 1.5-4.4 3.3-6 5.4v48.7zM429 116.8l-32.3-72.4v53.8c0 3.6.2 6.2.5 7.8.3 1.6 1 2.7 2.1 3.2 1 .5 2.7.8 5.1.9v2.4h-18.2v-2.4h7.3V42.7c0-3.7-.1-6.3-.4-7.8-.2-1.5-.6-2.8-1.2-3.8-1.3-2.5-3.9-3.8-7.7-3.9v-2.5h11.4L428.2 98V39.3c0-3.7-.2-6.3-.5-7.8-.4-1.5-1-2.5-2.1-3.1-1-.6-2.8-.9-5.4-1l-.8-.1v-2.5h18.2v2.5h-6.2v89.6H429zM538.3 67.5c0 6.8-1.3 13.2-4 19.2-2.6 6-6.5 11.5-11.6 16.4-8.5 8.1-18.8 12.1-30.9 12.1-6.7 0-12.9-1.3-18.5-3.8-5.7-2.6-10.6-6.3-14.8-11.2-3.8-4.5-6.7-9.5-8.6-14.9-2-5.4-2.9-11-2.9-16.8 0-6.7 1.5-13.2 4.4-19.5 2.9-6.3 6.9-11.7 11.9-16.1 8.6-7.6 18.7-11.4 30.3-11.4 6.3 0 12.2 1.1 17.6 3.4 5.4 2.3 10.1 5.5 14.2 9.7 4 4.2 7.2 9.1 9.4 14.7 2.4 5.5 3.5 11.6 3.5 18.2zm-6.9 1.8c0-5.4-.9-10.6-2.8-15.9-1.8-5.2-4.4-9.9-7.6-13.9-3.7-4.7-7.9-8.3-12.7-10.6-4.8-2.4-10-3.6-15.6-3.6-7.1 0-13.7 1.8-19.6 5.5-5.9 3.6-10.6 8.6-13.9 14.9-3.3 6.3-5 13.3-5 21 0 8.2 1.8 15.7 5.3 22.6 3.5 6.9 8.3 12.3 14.3 16.3s12.6 6 19.7 6c5.3 0 10.2-1.1 14.9-3.2 4.7-2.1 8.7-5.1 12.2-9 3.5-3.9 6.2-8.4 8.1-13.5 1.7-5.2 2.7-10.7 2.7-16.6zM590.6 116.8l-32.3-72.4v53.8c0 3.6.2 6.2.5 7.8.3 1.6 1 2.7 2.1 3.2 1 .5 2.7.8 5.1.9v2.4h-18.2v-2.4h7.3V42.7c0-3.7-.1-6.3-.4-7.8-.2-1.5-.6-2.8-1.2-3.8-1.3-2.5-3.9-3.8-7.7-3.9v-2.5h11.4L589.8 98V39.3c0-3.7-.2-6.3-.5-7.8-.4-1.5-1-2.5-2.1-3.1-1-.6-2.8-.9-5.4-1l-.8-.1v-2.5h18.2v2.5H593v89.6h-2.4z"/><g><path class="st0" d="m206.2 164.2-5.3-17.2-.5-1.6c-.4-1.3-.7-2.3-1.1-3.1-.3-.8-.7-1.3-1.1-1.8-.4-.4-.8-.7-1.4-.9-.5-.2-1.2-.3-2.1-.4v-1.3h11v1.3h-3.6l5.7 18.8 3.2-10.3c.7-2.3 1-4 1-4.9 0-2.1-1.3-3.3-3.9-3.6v-1.3h11v1.3h-3.4l-6.9 22 5.9 19.3 10.5-33.2.3-1 .4-1.2c.3-1 .4-1.8.4-2.5 0-1.2-.3-2-1-2.5s-1.9-.8-3.7-.8V138h12.6v1.3H230l-15 48.5h-1.4l-6.3-20.5-6.4 20.5h-1.4l-12.7-40.2-.6-1.8c-.8-2.7-1.7-4.5-2.6-5.3-.9-.8-2.5-1.2-4.8-1.3v-1.3h13.9v1.3H188l13.1 41.5 5.1-16.5zM242 154.8v24.9c0 1.7.1 2.9.3 3.7.2.8.6 1.4 1.1 1.6.5.3 1.4.4 2.5.4h.3v1.3h-11.1v-1.3h3.6v-26.8l-2.9 3.5-1-.9 7.9-9.7 1 .9-1.7 2.4zm-2.1-16.5c.7 0 1.3.3 1.8.8s.7 1.1.7 1.8-.2 1.3-.7 1.8c-.5.5-1.1.8-1.8.8-.6 0-1.2-.3-1.7-.8s-.8-1.1-.8-1.8.3-1.3.8-1.8c.4-.5 1-.8 1.7-.8zM254.3 158.8l-2.9 3.5-1-.9 7.9-9.7 1 .9-1.8 2.2v3.5c2-3 4.7-4.5 7.9-4.5 1.1 0 2.2.2 3.3.7 1.1.5 2 1.1 2.7 1.9.6.7 1.1 1.4 1.4 2 .3.6.5 1.4.6 2.3.1.9.2 2.3.2 4v14.9c0 1.7.1 2.9.3 3.7.2.8.6 1.4 1.1 1.6.5.3 1.4.4 2.5.4h.3v1.3h-11.1v-1.3h3.6v-19.9l-.1-2.5c0-1.5-.1-2.7-.4-3.5-.3-.8-.7-1.5-1.4-2.1-1.1-1.1-2.5-1.6-4.2-1.6-1.7 0-3.2.6-4.5 1.7-1.2 1.2-2 2.7-2.3 4.6v17.4c0 1.7.1 2.9.3 3.7s.6 1.4 1.1 1.6c.5.3 1.4.4 2.5.4h.4v1.3h-11v-1.3h3.4v-26.3zM288.1 155.9v18.8c0 2.1.1 3.7.3 5 .2 1.3.6 2.4 1.1 3.4.5.9 1.3 1.6 2.2 2.2.9.6 1.9.8 3.1.8 1.3 0 2.5-.4 3.6-1.3s2-2 2.7-3.5l1.1.7c-.4 1.7-1.3 3.1-2.9 4.2-1.5 1.1-3.3 1.7-5.1 1.7-1.7 0-3.3-.5-4.8-1.4-1.5-1-2.6-2.3-3.4-3.8-.5-1.1-.9-2.3-1-3.5-.2-1.2-.2-3.1-.2-5.7V156H282v-1.3h2.8v-12.9l3.3-3.7v16.7h7.1v1.3h-7.1zM336.2 164h-29c-.9 1.8-1.3 3.8-1.3 6.1 0 2.1.4 4.1 1.2 6 .8 1.9 1.8 3.5 3.2 4.9 1.4 1.4 3 2.5 4.8 3.3 1.9.8 3.8 1.2 5.8 1.2s3.9-.4 5.7-1.1c1.8-.8 3.5-1.8 4.9-3.3 1.4-1.4 2.7-3.2 3.6-5.2l1.4.7c-1.4 3.5-3.6 6.2-6.6 8.3-3 2.1-6.4 3.1-10 3.1-2.4 0-4.6-.4-6.6-1.2-2-.8-3.8-1.9-5.3-3.4s-2.7-3.2-3.5-5.3c-.8-2-1.3-4.2-1.3-6.5 0-3.1.8-6.1 2.5-8.8 1.7-2.7 3.9-4.9 6.7-6.5 2.8-1.6 5.8-2.4 9.1-2.4 2.2 0 4.3.4 6.3 1.3s3.7 2.1 5.2 3.6c1.5 1.4 2.6 3.2 3.2 5.2zm-4.4-1.6c-1-1.9-2.6-3.5-4.7-4.6-2.2-1.2-4.5-1.7-7.1-1.7-2.5 0-4.7.5-6.7 1.6s-3.7 2.7-5 4.7h23.5zM347.6 160.9v18.8c0 1.7.1 2.9.3 3.7.2.8.6 1.4 1.1 1.6.5.3 1.4.4 2.5.4h.7v1.3h-11.4v-1.3h3.6v-26.8l-2.9 3.5-1-.9 7.9-9.7 1 .9-1.8 2.2v3.3c1.3-1.6 2.5-2.7 3.8-3.4 1.2-.7 2.5-1 4-1 1.4 0 2.7.4 4.1 1.1v-2.9h1.3l.1 14h-1.2v-.5l-.2-2.3c-.1-1.4-.2-2.5-.4-3.2-.2-.7-.4-1.4-.8-2-.9-1.4-2.2-2-3.9-2-1.3 0-2.5.5-3.7 1.4-1.3 1-2.3 2.3-3.1 3.8zM421.7 135.8v17.9h-1.3v-.6l-.1-2.2c-.1-3.9-1.3-6.7-3.4-8.6-1.2-1.1-2.7-1.9-4.8-2.5-2-.6-4.2-.9-6.4-.9-3.1 0-6 .6-8.7 1.8-2.7 1.2-5.1 2.8-7.1 4.9-2 2.1-3.6 4.6-4.7 7.4-1.1 2.8-1.7 5.9-1.7 9.2 0 3.3.6 6.4 1.8 9.3 1.2 2.9 2.9 5.5 5.1 7.8 2.2 2.2 4.7 4 7.6 5.2 2.9 1.3 5.9 1.9 9 1.9 2.9 0 5.7-.5 8.3-1.6 2.7-1 5-2.5 7-4.5l1.1 1.2c-1.5 1.5-3.1 2.8-5 3.8-1.8 1-3.8 1.8-5.8 2.3-2.1.5-4.2.8-6.6.8-4.9 0-9.4-1.1-13.5-3.4s-7.3-5.3-9.7-9.2c-2.4-3.9-3.5-8.2-3.5-12.9 0-2.7.5-5.4 1.4-8.1 1-2.7 2.4-5.2 4.2-7.5 1.8-2.3 3.9-4.3 6.4-6 2.2-1.6 4.6-2.7 7.2-3.4 2.6-.7 5.3-1.1 8.3-1.1 4.5 0 8.9 1 13.3 3.1V136h1.6zM446.7 166.6v-1.8c0-1.8-.2-3.3-.4-4.5-.3-1.2-.7-2.1-1.3-2.8-1.3-1.5-2.9-2.2-4.9-2.2-2.4 0-4.3.9-5.9 2.7-1.6 1.8-2.5 4.2-2.9 7.3h-1.1v-13.6h1.4v6.7c2.2-3.2 5.2-4.8 9-4.8 1.3 0 2.4.2 3.5.6 1.1.4 2 1 2.9 1.8.8.8 1.5 1.7 1.9 2.8.6 1.3.9 2.8 1 4.7v2c0 .8.1 1.5.1 2v12.2c0 1.7.1 2.9.3 3.7.2.8.6 1.4 1.1 1.6.5.3 1.4.4 2.5.4h.3v1.3h-7.5v-2.3c-2.3 2-4.8 3-7.7 3-2 0-3.7-.5-5.4-1.4-1.6-.9-2.9-2.2-3.9-3.8-1-1.6-1.4-3.3-1.4-5.2 0-2 .6-4 1.8-5.8 1.2-1.8 2.7-3.3 4.7-4.4 2-1.1 4-1.7 6.2-1.7 2.3.2 4.2.6 5.7 1.5zm.1 3.8c-.8-1-1.9-1.7-3.1-2.3-1.3-.6-2.5-.9-3.8-.9-1.5 0-3 .4-4.3 1.1-1.3.8-2.3 1.8-3.1 3.2-.7 1.3-1.1 2.8-1.1 4.3 0 1.7.4 3.3 1.2 4.8.8 1.5 1.9 2.7 3.3 3.5 1.4.9 2.9 1.3 4.4 1.3 2.1 0 4.3-1 6.4-3v-12zM465.2 160.9v18.8c0 1.7.1 2.9.3 3.7s.6 1.4 1.1 1.6c.5.3 1.4.4 2.5.4h.7v1.3h-11.4v-1.3h3.6v-26.8l-2.9 3.5-1-.9 7.9-9.7 1 .9-1.8 2.2v3.3c1.3-1.6 2.5-2.7 3.8-3.4 1.2-.7 2.5-1 4-1 1.4 0 2.7.4 4.1 1.1v-2.9h1.3l.1 14h-1.2v-.5l-.2-2.3c-.1-1.4-.2-2.5-.4-3.2-.2-.7-.4-1.4-.8-2-.9-1.4-2.2-2-3.9-2-1.3 0-2.5.5-3.7 1.4-1.2 1-2.2 2.3-3.1 3.8zM485.6 158.8l-2.9 3.5-1-.9 7.9-9.7 1 .9-1.8 2.2v3.5c2-3 4.7-4.5 7.9-4.5 1.1 0 2.2.2 3.3.7 1.1.5 2 1.1 2.7 1.9.6.7 1.1 1.4 1.4 2 .3.6.5 1.4.6 2.3.1.9.2 2.3.2 4v14.9c0 1.7.1 2.9.3 3.7s.6 1.4 1.1 1.6c.5.3 1.4.4 2.5.4h.3v1.3H498v-1.3h3.6v-19.9l-.1-2.5c0-1.5-.1-2.7-.4-3.5-.3-.8-.7-1.5-1.4-2.1-1.1-1.1-2.5-1.6-4.2-1.6-1.7 0-3.2.6-4.5 1.7-1.2 1.2-2 2.7-2.3 4.6v17.4c0 1.7.1 2.9.3 3.7.2.8.6 1.4 1.1 1.6.5.3 1.4.4 2.5.4h.4v1.3h-11v-1.3h3.4v-26.3zM520 154.8v24.9c0 1.7.1 2.9.3 3.7.2.8.6 1.4 1.1 1.6.5.3 1.4.4 2.5.4h.3v1.3h-11.1v-1.3h3.6v-26.8l-2.9 3.5-1-.9 7.9-9.7 1 .9-1.7 2.4zm-2.1-16.5c.7 0 1.3.3 1.8.8s.7 1.1.7 1.8-.2 1.3-.7 1.8c-.5.5-1.1.8-1.8.8-.6 0-1.2-.3-1.7-.8s-.8-1.1-.8-1.8.3-1.3.8-1.8c.4-.5 1-.8 1.7-.8zM554.3 154.6v1.3h-2.6l-10.9 31.4h-1.4l-8.5-25.3c-.7-2-1.2-3.4-1.6-4.2-.4-.8-.9-1.3-1.4-1.6-.5-.3-1.3-.4-2.4-.4v-1.3h9.9v1.3h-2.9l8.4 26.2 6.3-19.1c.7-2.1 1.1-3.5 1.1-4.4 0-1-.3-1.7-.8-2.1-.5-.4-1.5-.6-2.8-.6v-1.3h9.6zM575.5 166.6v-1.8c0-1.8-.2-3.3-.4-4.5-.3-1.2-.7-2.1-1.3-2.8-1.3-1.5-2.9-2.2-4.9-2.2-2.4 0-4.3.9-5.9 2.7-1.6 1.8-2.5 4.2-2.9 7.3H559v-13.6h1.4v6.7c2.2-3.2 5.2-4.8 9-4.8 1.3 0 2.4.2 3.5.6 1.1.4 2 1 2.9 1.8.8.8 1.5 1.7 1.9 2.8.6 1.3.9 2.8 1 4.7v2c0 .8.1 1.5.1 2v12.2c0 1.7.1 2.9.3 3.7.2.8.6 1.4 1.1 1.6.5.3 1.4.4 2.5.4h.3v1.3h-7.5v-2.3c-2.3 2-4.8 3-7.7 3-2 0-3.7-.5-5.4-1.4-1.6-.9-2.9-2.2-3.9-3.8-1-1.6-1.4-3.3-1.4-5.2 0-2 .6-4 1.8-5.8 1.2-1.8 2.7-3.3 4.7-4.4 2-1.1 4-1.7 6.2-1.7 2.2.2 4.1.6 5.7 1.5zm.1 3.8c-.8-1-1.9-1.7-3.1-2.3-1.3-.6-2.5-.9-3.8-.9-1.5 0-3 .4-4.3 1.1-1.3.8-2.3 1.8-3.1 3.2-.7 1.3-1.1 2.8-1.1 4.3 0 1.7.4 3.3 1.2 4.8.8 1.5 1.9 2.7 3.3 3.5 1.4.9 2.9 1.3 4.4 1.3 2.1 0 4.3-1 6.4-3v-12zM593.7 135.1v44.7c0 1.7.1 2.9.3 3.7.2.8.6 1.4 1.1 1.6.5.3 1.4.4 2.5.4h.3v1.3h-11v-1.3h3.5V139l-2.8 3.5-1-.9 7.9-9.7 1 .9-1.8 2.3z"/></g></svg>