<svg xmlns="http://www.w3.org/2000/svg" width="792" height="1224" style="enable-background:new 0 0 792 1224" xml:space="preserve"><path d="M473.1 153.5c-6.7-6.4-15.8-9.9-25.1-10.3-9.2-.3-18.6 2.4-26.1 7.7-6.6 4.7-11.7 11.3-15.3 18.5-4.3-3.8-8.8-7.5-14.2-9.7-5-2-11.1-3-16.2-.7-2.3 1-4.3 2.7-5.6 4.9-1.3 2.2-1.8 4.9-1.5 7.5.3 2.5 1.4 4.7 3.2 6.5 1.9 1.8 4.3 3 6.7 4 2.8 1.1 5.7 1.9 8.5 2.8 2.7.8 5.5 1.7 8.1 2.7 5.2 2 10.2 4.5 14.2 8.4 8 7.8 10.6 19.6 9.3 30.4-.4 3.1-1.1 6.1-2.2 8.9-.3.7-.5 1.3-.8 2-.1.2-.2.5-.2.5s.7.7.9 1c.9.9 1.9 1.8 2.8 2.6 3.7 3 7.8 5.4 12.3 7.1 8.8 3.3 18.8 3.8 27.8.8 5-1.7 9.8-4.5 13.5-8.4v8.9h30.6V144.5h-30.6c-.1.2-.1 6.6-.1 9zm-20.4 70c-4.8 0-9.3-1.9-12.9-5-3.8-3.4-6.4-7.9-7.8-12.8-2.9-9.9-.5-21.6 6.9-28.9 3.5-3.4 8.1-5.6 13.1-5.8 5-.1 9.8 1.7 13.6 4.9 6.6 5.6 9.5 14.6 9.1 23-.4 8.5-4.4 17.1-11.8 21.7-3.1 1.8-6.6 2.9-10.2 2.9m-93.5-17.1c-1.4-.6-2.8-1.2-4.2-1.9-2.6-1.3-5.1-2.8-7.4-4.7-4.1-3.4-7.2-7.9-8.9-12.9-1.8-5.2-2.5-10.8-2.2-16.2.3-5.8 1.9-11.6 4.8-16.7 2.3-4 5.3-7.6 8.8-10.5h-30.8s-.1 32.5-.1 45.5v9.7c0 3-.1 6-.4 9-.7 5.3-2.4 11.5-7.4 14.3-2.4 1.4-5.3 1.8-8 1.7-2.8-.1-5.5-.8-7.7-2.5-4.4-3.4-5.8-9.4-6.3-14.6-.3-2.9-.3-5.8-.3-8.7v-54.3h-31.7v56.2c0 6.3.1 12.6 1.4 18.8 1.1 5.5 3.2 10.8 6.3 15.4 3 4.5 7.1 8.1 11.9 10.8 5.1 2.9 10.7 4.5 16.5 5.4 5.8.8 11.7 1 17.5.5 5.5-.5 11.1-1.6 16.2-3.7 4.9-2 9.3-5 12.9-8.9 3.4-3.7 6-8.2 7.7-12.9.1-.4.3-.8.4-1.2 3.8 3.7 7.9 7.2 12.7 9.6 4.7 2.4 10.1 3.8 15.4 2.9 2.6-.5 5.1-1.6 7-3.4 1.8-1.7 3-4 3.5-6.5.4-2.3.2-4.8-.9-6.9-1-2-2.5-3.6-4.3-4.8-2.6-1.8-5.7-2.9-8.7-3.8-3.3-1.1-8.4-2.6-9.6-3-1.3-.6-3.4-1.4-4.1-1.7zM510.1 245.3h-1.7v-1h4.4v1h-1.7v4.5h-1v-4.5zm3.9-1h1.1l1.6 2.6 1.6-2.6h1.1v5.5h-1v-3.9l-1.7 2.6h-.1l-1.7-2.6v3.9h-1v-5.5zM473.1 533.3c-6.7-6.4-15.8-9.9-25.1-10.3-9.2-.3-18.6 2.4-26.1 7.7-6.6 4.7-11.7 11.3-15.3 18.5-4.3-3.8-8.8-7.5-14.2-9.7-5-2-11.1-3-16.2-.7-2.3 1-4.3 2.7-5.6 4.9-1.3 2.2-1.8 4.9-1.5 7.5.3 2.5 1.4 4.7 3.2 6.5 1.9 1.8 4.3 3 6.7 4 2.8 1.1 5.7 1.9 8.5 2.8 2.7.8 5.5 1.7 8.1 2.7 5.2 2 10.2 4.5 14.2 8.4 8 7.8 10.6 19.6 9.3 30.4-.4 3.1-1.1 6.1-2.2 8.9-.3.7-.5 1.3-.8 2-.1.2-.2.5-.2.5s.7.7.9 1c.9.9 1.9 1.8 2.8 2.6 3.7 3 7.8 5.4 12.3 7.1 8.8 3.3 18.8 3.8 27.8.8 5-1.7 9.8-4.5 13.5-8.4v8.9h30.6V524.3h-30.6c-.1.2-.1 6.7-.1 9zm-20.4 70c-4.8 0-9.3-1.9-12.9-5-3.8-3.4-6.4-7.9-7.8-12.8-2.9-9.9-.5-21.6 6.9-28.9 3.5-3.4 8.1-5.6 13.1-5.8 5-.1 9.8 1.7 13.6 4.9 6.6 5.6 9.5 14.6 9.1 23-.4 8.5-4.4 17.1-11.8 21.7-3.1 1.9-6.6 2.9-10.2 2.9m-93.5-17c-1.4-.6-2.8-1.2-4.2-1.9-2.6-1.3-5.1-2.8-7.4-4.7-4.1-3.4-7.2-7.9-8.9-12.9-1.8-5.2-2.5-10.8-2.2-16.2.3-5.8 1.9-11.6 4.8-16.7 2.3-4 5.3-7.6 8.8-10.5h-30.8s-.1 32.5-.1 45.5v9.7c0 3-.1 6-.4 9-.7 5.3-2.4 11.5-7.4 14.3-2.4 1.4-5.3 1.8-8 1.7-2.8-.1-5.5-.8-7.7-2.5-4.4-3.4-5.8-9.4-6.3-14.6-.3-2.9-.3-5.8-.3-8.7v-54.3h-31.7v56.2c0 6.3.1 12.6 1.4 18.8 1.1 5.5 3.2 10.8 6.3 15.4 3 4.5 7.1 8.1 11.9 10.8 5.1 2.9 10.7 4.5 16.5 5.4 5.8.8 11.7 1 17.5.5 5.5-.5 11.1-1.6 16.2-3.7 4.9-2 9.3-5 12.9-8.9 3.4-3.7 6-8.2 7.7-12.9.1-.4.3-.8.4-1.2 3.8 3.7 7.9 7.2 12.7 9.6 4.7 2.4 10.1 3.8 15.4 2.9 2.6-.5 5.1-1.6 7-3.4 1.8-1.7 3-4 3.5-6.5.4-2.3.2-4.8-.9-6.9-1-2-2.5-3.6-4.3-4.8-2.6-1.8-5.7-2.9-8.7-3.8-3.3-1.1-8.4-2.6-9.6-3-1.3-.7-3.4-1.5-4.1-1.7zM383.5 656.6h6.5v3.2c1.5-1.9 3.4-3.7 6.7-3.7 4.9 0 7.8 3.2 7.8 8.5v14.8H398v-12.7c0-3.1-1.4-4.6-3.9-4.6s-4 1.6-4 4.6v12.7h-6.5v-22.8zM407.7 668.1c0-6.6 4.6-12 11.3-12 7.6 0 11.1 5.9 11.1 12.4 0 .5 0 1.1-.1 1.7h-15.9c.6 2.9 2.7 4.5 5.6 4.5 2.2 0 3.7-.7 5.5-2.3l3.7 3.3c-2.1 2.6-5.2 4.3-9.3 4.3-6.9-.1-11.9-4.9-11.9-11.9zm16.1-1.9c-.4-2.9-2.1-4.9-4.8-4.9-2.7 0-4.4 1.9-4.9 4.9h9.7zM434.9 672.9v-10.8h-2.7v-5.5h2.7v-5.8h6.5v5.8h5.4v5.5h-5.4v9.8c0 1.5.6 2.2 2.1 2.2 1.2 0 2.3-.3 3.2-.8v5.2c-1.4.8-2.9 1.3-5.1 1.3-4 0-6.7-1.6-6.7-6.9zM450.1 656.6h6.6l3.7 13.8 4.3-13.9h5.6l4.3 14 3.7-13.9h6.4l-7.1 23h-5.8l-4.4-14-4.5 14h-5.8l-7-23zM485.3 668.1c0-6.6 5.3-12 12.4-12 7.1 0 12.3 5.2 12.3 11.8v.1c0 6.6-5.3 11.9-12.4 11.9-7.1 0-12.3-5.2-12.3-11.8zm18.3 0c0-3.5-2.4-6.4-6-6.4-3.7 0-5.9 2.9-5.9 6.2v.1c0 3.4 2.4 6.3 6 6.3 3.7 0 5.9-2.8 5.9-6.2zM513.3 656.6h6.5v4.6c1.3-3.2 3.5-5.2 7.3-5v6.8h-.3c-4.3 0-6.9 2.6-6.9 8.1v8.4h-6.5v-22.9zM530.4 648.3h6.5v16.6l7.6-8.3h7.8l-8.7 9 9 13.8h-7.4l-6-9.3-2.3 2.4v6.9h-6.5v-31.1zM510.1 625.1h-1.7v-1h4.4v1h-1.7v4.5h-1v-4.5zm3.9-.9h1.1l1.6 2.6 1.6-2.6h1.1v5.5h-1v-3.9l-1.7 2.6h-.1l-1.7-2.6v3.9h-1v-5.5zM473.1 921.5c-6.7-6.4-15.8-9.9-25.1-10.3-9.2-.3-18.6 2.4-26.1 7.7-6.6 4.7-11.7 11.3-15.3 18.5-4.3-3.8-8.8-7.5-14.2-9.7-5-2-11.1-3-16.2-.7-2.3 1-4.3 2.7-5.6 4.9-1.3 2.2-1.8 4.9-1.5 7.5.3 2.5 1.4 4.7 3.2 6.5 1.9 1.8 4.3 3 6.7 4 2.8 1.1 5.7 1.9 8.5 2.8 2.7.8 5.5 1.7 8.1 2.7 5.2 2 10.2 4.5 14.2 8.4 8 7.8 10.6 19.6 9.3 30.4-.4 3.1-1.1 6.1-2.2 8.9-.3.7-.5 1.3-.8 2-.1.2-.2.5-.2.5s.7.7.9 1c.9.9 1.9 1.8 2.8 2.6 3.7 3 7.8 5.4 12.3 7.1 8.8 3.3 18.8 3.8 27.8.8 5-1.7 9.8-4.5 13.5-8.4v8.9h30.6V912.5h-30.6c-.1.1-.1 6.6-.1 9zm-20.4 70c-4.8 0-9.3-1.9-12.9-5-3.8-3.4-6.4-7.9-7.8-12.8-2.9-9.9-.5-21.6 6.9-28.9 3.5-3.4 8.1-5.6 13.1-5.8 5-.1 9.8 1.7 13.6 4.9 6.6 5.6 9.5 14.6 9.1 23-.4 8.5-4.4 17.1-11.8 21.7-3.1 1.8-6.6 2.9-10.2 2.9m-93.5-17.1c-1.4-.6-2.8-1.2-4.2-1.9-2.6-1.3-5.1-2.8-7.4-4.7-4.1-3.4-7.2-7.9-8.9-12.9-1.8-5.2-2.5-10.8-2.2-16.2.3-5.8 1.9-11.6 4.8-16.7 2.3-4 5.3-7.6 8.8-10.5h-30.8s-.1 32.5-.1 45.5v9.7c0 3-.1 6-.4 9-.7 5.3-2.4 11.5-7.4 14.3-2.4 1.4-5.3 1.8-8 1.7-2.8-.1-5.5-.8-7.7-2.5-4.4-3.4-5.8-9.4-6.3-14.6-.3-2.9-.3-5.8-.3-8.7v-54.3h-31.7v56.2c0 6.3.1 12.6 1.4 18.8 1.1 5.5 3.2 10.8 6.3 15.4 3 4.5 7.1 8.1 11.9 10.8 5.1 2.9 10.7 4.5 16.5 5.4 5.8.8 11.7 1 17.5.5 5.5-.5 11.1-1.6 16.2-3.7 4.9-2 9.3-5 12.9-8.9 3.4-3.7 6-8.2 7.7-12.9.1-.4.3-.8.4-1.2 3.8 3.7 7.9 7.2 12.7 9.6 4.7 2.4 10.1 3.8 15.4 2.9 2.6-.5 5.1-1.6 7-3.4 1.8-1.7 3-4 3.5-6.5.4-2.3.2-4.8-.9-6.9-1-2-2.5-3.6-4.3-4.8-2.6-1.8-5.7-2.9-8.7-3.8-3.3-1.1-8.4-2.6-9.6-3-1.3-.6-3.4-1.4-4.1-1.7zM510.1 1013.3h-1.7v-1h4.4v1h-1.7v4.5h-1v-4.5zm3.9-1h1.1l1.6 2.6 1.6-2.6h1.1v5.5h-1v-3.9l-1.7 2.6h-.1l-1.7-2.6v3.9h-1v-5.5zM362.2 1084.8l4.3-6.7c3.9 2.8 7.9 4.3 11.3 4.3 2.9 0 4.3-1.1 4.3-2.7v-.1c0-2.2-3.5-2.9-7.4-4.1-5-1.5-10.7-3.8-10.7-10.8v-.1c0-7.3 5.9-11.4 13.1-11.4 4.5 0 9.5 1.5 13.4 4.1l-3.9 7c-3.5-2.1-7.1-3.3-9.7-3.3-2.5 0-3.7 1.1-3.7 2.5v.1c0 2 3.4 2.9 7.3 4.3 5 1.7 10.8 4.1 10.8 10.6v.1c0 7.9-5.9 11.6-13.7 11.6-5.1 0-10.7-1.6-15.4-5.4zM395.5 1053.8h10.2v5.1c2.5-3.3 5.9-5.8 11.2-5.8 8.3 0 16.3 6.5 16.3 18.5v.1c0 12-7.8 18.5-16.3 18.5-5.4 0-8.7-2.5-11.2-5.3v15.4h-10.2v-46.5zm27.4 17.9v-.1c0-5.9-4-9.9-8.8-9.9-4.7 0-8.7 3.9-8.7 9.9v.1c0 5.9 3.9 9.9 8.7 9.9 4.8 0 8.8-3.8 8.8-9.9zM436 1071.9v-.1c0-10.3 8.3-18.6 19.4-18.6 11.1 0 19.3 8.2 19.3 18.5v.1c0 10.3-8.3 18.6-19.4 18.6-11.1 0-19.3-8.2-19.3-18.5zm28.7 0v-.1c0-5.3-3.8-9.9-9.4-9.9-5.8 0-9.3 4.5-9.3 9.8v.1c0 5.3 3.8 9.9 9.4 9.9 5.9-.1 9.3-4.5 9.3-9.8zM477.9 1053.8H488v7.2c2.1-4.9 5.4-8.1 11.4-7.9v10.6h-.5c-6.7 0-10.9 4.1-10.9 12.6v13.2h-10.2v-35.7zM508.2 1079.4v-17h-4.3v-8.7h4.3v-9.2h10.2v9.2h8.4v8.7h-8.4v15.3c0 2.3 1 3.5 3.3 3.5 1.9 0 3.5-.5 5-1.3v8.1c-2.1 1.3-4.6 2.1-8 2.1-6.3.1-10.5-2.4-10.5-10.7zM530.2 1084.8l4.3-6.7c3.9 2.8 7.9 4.3 11.3 4.3 2.9 0 4.3-1.1 4.3-2.7v-.1c0-2.2-3.5-2.9-7.4-4.1-5-1.5-10.7-3.8-10.7-10.8v-.1c0-7.3 5.9-11.4 13.1-11.4 4.5 0 9.5 1.5 13.4 4.1l-3.9 7c-3.5-2.1-7.1-3.3-9.7-3.3-2.5 0-3.7 1.1-3.7 2.5v.1c0 2 3.4 2.9 7.3 4.3 5 1.7 10.8 4.1 10.8 10.6v.1c0 7.9-5.9 11.6-13.7 11.6-5.1 0-10.7-1.6-15.4-5.4z"/></svg>