<svg version="1.1" id="Layer_1" xmlns="http://www.w3.org/2000/svg" x="0" y="0" width="199.9" height="131.7" style="enable-background:new 0 0 199.9 131.7" xml:space="preserve"><style>.st0{fill:#73c4d5}.st1{fill:#4d4d4f}</style><path class="st0" d="M26.4 121.5h-2.2v7.2h-1.3v-7.2h-2.2v-1.2h5.8v1.2zM38.8 128.7h-1.4v-5.4l-2.5 5.4h-1.1l-2.5-5.4v5.4H30v-8.4h1.3l3.1 6.6 3.1-6.6h1.3v8.4zM48 121.9l-1 .6c-.4-.7-1-1.1-1.7-1.1-.8 0-1.3.5-1.3 1.1 0 .6.4.9 1.2 1.2l.6.2c1.7.6 2.5 1.3 2.5 2.6 0 1.5-1.5 2.4-2.9 2.4-1.5 0-2.6-.9-3-2.1l1-.5c.3.8.9 1.4 2 1.4.8 0 1.5-.4 1.5-1.2 0-.8-.5-1.1-1.5-1.5l-.6-.2c-1.3-.5-2.1-1.1-2.1-2.4 0-1.3 1.2-2.2 2.6-2.2 1.4-.1 2.3.8 2.7 1.7zM64.8 120.3v8.4h-1l-4.7-6v6h-1.3v-8.4h1l4.7 6v-6h1.3zM74.6 126h-5c.2 1.1 1.1 1.7 2.1 1.7.8 0 1.3-.2 1.7-.6l.7.7c-.6.6-1.3 1-2.5 1-1.6 0-3.3-1.1-3.3-3.2 0-2.2 1.8-3.2 3.2-3.2s3.4 1 3.1 3.6zm-4.9-.9h3.8c-.1-1.1-1.1-1.6-1.9-1.6s-1.7.5-1.9 1.6zM78 126v-3.6h1.3v3.5c0 1.2.6 1.7 1.4 1.7 1 0 1.7-1 1.8-1.6v-3.6h1.3v6.2h-1.3v-1.3c-.1.4-.8 1.4-2.1 1.4-1.2.1-2.4-.7-2.4-2.7zM91.5 122.4v1.2h-.3c-1.2 0-2.1.8-2.3 2.2v2.9h-1.3v-6.2h1.3v1.6c.3-.9 1.1-1.7 2.2-1.7.1-.1.2-.1.4 0zM100.9 125.6c0 2.2-1.8 3.2-3.2 3.2s-3.2-1.1-3.2-3.2c0-2.2 1.8-3.2 3.2-3.2s3.2 1 3.2 3.2zm-5.2 0c0 1.4 1.1 2.1 2 2.1s2-.7 2-2.1c0-1.4-1.1-2.1-2-2.1s-2 .7-2 2.1zM115.8 121.9l-1 .6c-.4-.7-1-1.1-1.7-1.1s-1.3.5-1.3 1.1c0 .6.4.9 1.2 1.2l.6.2c1.7.6 2.5 1.3 2.5 2.6 0 1.5-1.5 2.4-2.9 2.4-1.5 0-2.6-.9-3-2.1l1-.5c.3.8.9 1.4 2 1.4.8 0 1.5-.4 1.5-1.2 0-.8-.5-1.1-1.5-1.5l-.6-.2c-1.3-.5-2.1-1.1-2.1-2.4 0-1.3 1.2-2.2 2.6-2.2 1.3-.1 2.3.8 2.7 1.7zM125.7 125.6c0 2.2-1.8 3.2-3.2 3.2s-3.2-1.1-3.2-3.2c0-2.2 1.8-3.2 3.2-3.2s3.2 1 3.2 3.2zm-5.2 0c0 1.4 1.1 2.1 2 2.1s2-.7 2-2.1c0-1.4-1.1-2.1-2-2.1s-2 .7-2 2.1zM130.5 128.7h-1.3v-8.5h1.3v8.5zM134.1 126v-3.6h1.3v3.5c0 1.2.6 1.7 1.4 1.7 1 0 1.7-1 1.8-1.6v-3.6h1.3v6.2h-1.3v-1.3c-.1.4-.8 1.4-2.1 1.4-1.2.1-2.4-.7-2.4-2.7zM145.5 123.5v3.5c0 .3.1.6.5.6.3 0 .6-.1.8-.2v1.1c-.3.1-.6.2-1.2.2-.8 0-1.5-.3-1.5-1.7v-3.5h-.9v-1.1h.9V121h1.3v1.5h1.3v1.1h-1.2zM151.6 121.3h-1.3v-1.1h1.3v1.1zm0 7.4h-1.3v-6.2h1.3v6.2zM161.5 125.6c0 2.2-1.8 3.2-3.2 3.2s-3.2-1.1-3.2-3.2c0-2.2 1.8-3.2 3.2-3.2s3.2 1 3.2 3.2zm-5.2 0c0 1.4 1.1 2.1 2 2.1s2-.7 2-2.1c0-1.4-1.1-2.1-2-2.1s-2 .7-2 2.1zM170.8 125v3.6h-1.3v-3.5c0-1.2-.6-1.7-1.4-1.7-1 0-1.7 1-1.8 1.6v3.6H165v-6.2h1.3v1.3c.1-.4.8-1.4 2.1-1.4 1.2 0 2.4.8 2.4 2.7zM176.4 123.4c-.5 0-.8.3-.8.7 0 .4.2.6.7.8l.7.2c1 .3 1.8.7 1.8 1.9s-1.2 1.9-2.3 1.9c-1.1 0-2.1-.6-2.4-1.7l1-.3c.2.6.6 1 1.3 1 .6 0 1.1-.3 1.1-.8 0-.4-.3-.6-.8-.8l-.7-.3c-1.2-.4-1.7-1-1.7-1.8 0-1 .9-1.7 2.1-1.7 1.1 0 1.8.6 2.2 1.5l-1.1.3c-.3-.7-.7-.9-1.1-.9z"/><g><path class="st1" d="m21.3 85.8-1.6.8c-1.3-3.2-4-5.5-7.8-5.5-4.1 0-7 2.4-7 5.7 0 3 2 5 5.9 6.5l2.3.9c4.9 1.9 8.9 4 8.9 9.3 0 4.8-4.7 8.3-10 8.3-5.1 0-9.5-3.1-10.6-7.7l1.8-.8c1.1 3.9 4.4 6.5 8.8 6.5 4.1 0 7.9-2.6 7.9-6.3 0-4.4-3.2-5.9-7.1-7.4l-2.6-1c-4.9-1.9-7.5-4.5-7.5-8.4 0-4.3 3.6-7.6 9.1-7.6 4.7.1 8.3 3.2 9.5 6.7zM51 93.2v-5.4h2.1v23.4H51v-5.3c-1.8 3.8-5.4 5.8-9.5 5.8-5.3 0-11.8-4.1-11.8-12.1s6.6-12.1 11.8-12.1c4.1-.1 7.8 1.9 9.5 5.7zm-19.2 6.3c0 6.9 5.5 10.2 9.9 10.2 4.5 0 9.5-3.2 9.5-10.2 0-7-4.9-10.2-9.5-10.2-4.4 0-9.9 3.3-9.9 10.2zM65.1 111.2H63V79.4h2.1v31.8zM77.1 81.5H75v-2.1h2.1v2.1zm0 29.7H75V87.8h2.1v23.4zM109.2 100.3H88c.4 6.3 5.3 9.4 10.2 9.4 3.4 0 6-1 7.8-3.2l1.3 1.2c-2.2 2.7-5.3 3.9-9.1 3.9-6.1 0-12.3-4.1-12.3-12.1s6.5-12.1 11.8-12.1c5.3 0 12.2 4.1 11.5 12.9zM88 98.6h19.3c-.2-6.2-5.5-9.3-9.6-9.3s-9.3 3.1-9.7 9.3zM138 97.5v13.7h-2V97.4c0-5.5-3.2-8.1-7.2-8.1-4.7 0-8 4.2-8.7 7.7v14.1H118V87.8h2.1v6.1c.4-1.8 3.5-6.4 8.9-6.4 4.7 0 9 2.9 9 10zM167.9 93.2l-1.8.7c-1.6-3-4.7-4.5-8.1-4.5-4.4 0-9.8 3.3-9.8 10.2 0 6.9 5.4 10.2 9.8 10.2 3.4 0 6.5-1.6 8.1-4.5l1.8.7c-2 3.8-5.7 5.7-9.9 5.7-5.4 0-11.9-4.1-11.9-12.1s6.5-12.1 11.9-12.1c4.2-.1 7.9 1.9 9.9 5.7zM198.2 100.3H177c.4 6.3 5.3 9.4 10.2 9.4 3.4 0 6-1 7.8-3.2l1.3 1.2c-2.2 2.7-5.3 3.9-9.1 3.9-6.1 0-12.3-4.1-12.3-12.1s6.5-12.1 11.8-12.1c5.2 0 12.1 4.1 11.5 12.9zm-21.3-1.7h19.3c-.2-6.2-5.5-9.3-9.6-9.3s-9.2 3.1-9.7 9.3z"/></g><linearGradient id="SVGID_1_" gradientUnits="userSpaceOnUse" x1="99.712" y1="25.477" x2="99.712" y2="70.227"><stop offset="0" style="stop-color:#73c4d5"/><stop offset="1" style="stop-color:#175a7e"/></linearGradient><path d="M134.4 37.5c-1.1.1-2.3-.4-3.6-1.4-.5-.4-.9-.8-1.3-1.1-.6-.5-1.1-1-1.8-1.5-1.4-1-3.1-1.6-5.5-2-1.5-.3-3.7-.7-6-.6 1.7-1.6 2.9-3.4 3.8-4.7 1.3-2 2.1-3.7 2.4-5.3.1-.8.2-1.5.2-2.3 0-.6.1-1.2.1-1.7.2-1.6.7-2.8 1.6-3.5l-.1-.1-.1-.1c-.7.9-1.9 1.4-3.5 1.6-.6.1-1.2.1-1.7.1-.8 0-1.5.1-2.3.2-1.7.3-3.3 1.1-5.3 2.4-2.7 1.9-7.8 5.4-8.7 11.3-.1.5 0 1.1.1 1.7.1.7.2 1.4 0 1.9-.2.6-.6 1.8-1.7 2.3l.2.3 18.5-17.1-17.1 18.5.3.2-.1.2 25.2 1-25.2 1 .1.3-.2.1 17.1 18.5-18.5-17.1-.2.3-.2-.1-1 25.2-1-25.2-.3.1-.1-.2-18.6 17L97 39.2l-.3-.2.1-.2-25.2-1 25.2-1-.1-.3.2-.1L79.8 18l18.5 17.1.2-.3c-1-.5-1.5-1.7-1.7-2.3-.1-.5-.1-1.2 0-1.9.1-.6.1-1.2.1-1.7-.9-5.9-6-9.4-8.7-11.3-2-1.3-3.7-2.1-5.3-2.4-.8-.1-1.5-.2-2.3-.2-.6 0-1.2-.1-1.7-.1-1.6-.2-2.8-.7-3.5-1.6l-.1.1-.3.1c.9.7 1.4 1.9 1.6 3.5.1.6.1 1.2.1 1.7 0 .8.1 1.5.2 2.3.3 1.7 1.1 3.3 2.4 5.3.9 1.3 2.1 3.1 3.8 4.7-2.3 0-4.5.3-6 .6-2.3.4-4.1 1.1-5.5 2-.6.4-1.2 1-1.8 1.5-.4.4-.9.8-1.3 1.1-1.3 1-2.5 1.4-3.6 1.3v.4c1.1-.1 2.3.4 3.6 1.3.5.4.9.8 1.3 1.1.6.5 1.1 1 1.8 1.5 1.4 1 3.1 1.6 5.5 2 1.5.3 3.7.7 6 .6-1.7 1.6-2.9 3.4-3.8 4.7-1.4 2-2.1 3.7-2.4 5.3-.1.8-.2 1.5-.2 2.3 0 .6-.1 1.2-.1 1.7-.2 1.6-.7 2.8-1.6 3.5l.1.1.1.1c.7-.9 1.9-1.4 3.5-1.6.6-.1 1.2-.1 1.7-.1.8 0 1.5-.1 2.3-.2 1.7-.3 3.3-1.1 5.3-2.4 1.3-.9 3.1-2.1 4.7-3.8 0 2.3.3 4.5.6 6 .4 2.3 1.1 4.1 2 5.5.4.6 1 1.2 1.5 1.8.4.4.8.9 1.1 1.3 1 1.3 1.4 2.5 1.3 3.6h.4c-.1-1.1.4-2.3 1.3-3.6.4-.5.8-.9 1.1-1.3.5-.6 1-1.1 1.5-1.8 1-1.4 1.6-3.1 2-5.5.3-1.5.7-3.7.6-6 1.6 1.7 3.4 2.9 4.7 3.8 2 1.3 3.7 2.1 5.3 2.4.8.1 1.5.2 2.3.2.6 0 1.2.1 1.7.1 1.6.2 2.8.7 3.5 1.6l.1-.1.1-.1c-.9-.7-1.4-1.9-1.6-3.5-.1-.6-.1-1.2-.1-1.7 0-.8-.1-1.5-.2-2.3-.3-1.7-1.1-3.3-2.4-5.3-.9-1.3-2.1-3.1-3.8-4.7 2.3 0 4.5-.3 6-.6 2.3-.4 4.1-1.1 5.5-2 .6-.4 1.2-1 1.8-1.5.4-.4.9-.8 1.3-1.1 1.3-1 2.5-1.4 3.6-1.3v-.2l.5-.2zm-28.8-1.6c-.6.3-1.7.8-2.8.5.5-.9 1.6-1.4 2.2-1.6.4-.1 1.1-.1 1.7 0-.3.5-.7.9-1.1 1.1zm-11.4-1c.6.2 1.7.6 2.3 1.6-1.1.3-2.1-.2-2.7-.5-.4-.2-.8-.7-1.2-1.2.6.1 1.2 0 1.6.1zm-.4 4.8c.6-.3 1.7-.8 2.8-.5-.5.9-1.6 1.4-2.2 1.6-.4.1-1.1.1-1.7 0 .4-.5.7-.9 1.1-1.1zm4.2 4c-.2.4-.7.8-1.2 1.2-.1-.6-.1-1.1 0-1.6.2-.6.6-1.7 1.6-2.3.4 1-.1 2.1-.4 2.7zm3.6 0c-.3-.6-.8-1.7-.5-2.8.9.5 1.4 1.6 1.6 2.2.1.4.1 1.1 0 1.7-.5-.4-.9-.8-1.1-1.1zm3.6-3.1c-.6-.2-1.7-.6-2.3-1.6 1.1-.3 2.1.2 2.7.5.4.2.8.7 1.2 1.2-.6 0-1.2 0-1.6-.1z" style="fill:url(#SVGID_1_)"/><linearGradient id="SVGID_2_" gradientUnits="userSpaceOnUse" x1="99.617" y1="3.12" x2="99.617" y2="32.213"><stop offset="0" style="stop-color:#81bd41"/><stop offset="1" style="stop-color:#73c4d5"/></linearGradient><path d="M105.8 15.3c-.4-2.3-1.1-4.1-2-5.5-.4-.6-1-1.2-1.5-1.8-.4-.4-.8-.9-1.1-1.3-1-1.3-1.4-2.5-1.3-3.6h-.4c.1 1.1-.4 2.3-1.3 3.6-.4.5-.8.9-1.1 1.3-.5.6-1 1.1-1.5 1.8-1 1.4-1.6 3.1-2 5.5-.6 3.2-1.7 9.3 1.8 14.1.3.4.8.8 1.2 1.1.5.4 1.1.9 1.3 1.3.3.6.8 1.7.4 2.8l.4.1 1-25.2 1 25.2.4-.1c-.4-1.1.1-2.2.4-2.8.3-.5.8-.9 1.3-1.3s.9-.7 1.2-1.1c3.5-4.8 2.4-10.9 1.8-14.1z" style="fill:url(#SVGID_2_)"/></svg>