<svg version="1.1" id="Layer_1" xmlns="http://www.w3.org/2000/svg" xmlns:xlink="http://www.w3.org/1999/xlink" x="0" y="0" width="612" height="792" style="enable-background:new 0 0 612 792" xml:space="preserve"><style>.st0{fill:#23408a}.st3{fill:#fff;stroke:#fff;stroke-width:9.9739;stroke-linejoin:round;stroke-miterlimit:10}.st4{fill:#a32036}.st8{fill:#fff}</style><path class="st0" d="M179 439.5c-2.2.2-4.5.3-6.8.3-11.3 0-21.9-2.9-31.6-8.6-9.6-5.7-17.2-13.6-22.5-23.5l-3.4-6.3L72.8 424l3.4 6.3c9.5 17.6 23 31.7 40.2 41.9 17.1 10 36 15.1 55.9 15.1 19.6 0 37.5-4.6 53.5-13.8-17.7-8.4-33.5-20-46.8-34z"/><path class="st0" d="M232.4 391.9c-.5 2.2-1.1 4.3-1.9 6.5-3.7 10.7-10 19.7-18.5 27-8.5 7.2-18.5 11.8-29.6 13.5l-7.1 1.1 7.5 47.1 7-1.1c19.7-3.1 37.5-11.2 52.9-24.1 15.1-12.9 26.2-28.9 32.8-47.8 6.5-18.5 8-36.9 4.7-55.1-14 13.9-30.2 25-47.8 32.9z"/><linearGradient id="SVGID_1_" gradientUnits="userSpaceOnUse" x1="160.705" y1="-25.52" x2="269.363" y2="-111.586" gradientTransform="rotate(8.885 -2656.04 121.595)"><stop offset=".111" style="stop-color:#2f1211"/><stop offset=".223" style="stop-color:#361910"/><stop offset=".262" style="stop-color:#381c10"/><stop offset=".417" style="stop-color:#432513"/><stop offset=".725" style="stop-color:#613a18"/><stop offset=".821" style="stop-color:#6c4119"/><stop offset=".896" style="stop-color:#6e431a"/><stop offset=".944" style="stop-color:#73481f"/><stop offset=".985" style="stop-color:#7d5126"/><stop offset="1" style="stop-color:#82562b"/></linearGradient><path d="M228.2 415.9s-57 14.2-80.7 8.2c-23.7-6-17-29.1-4.9-42.3 19.9-21.7 24.9-24.3 40.3-35.7 49.7-37.1 69.6-33.5 69.6-33.5s2 5.3 6.1 19.3c3.9 13.3 15.2 24.3 15.2 24.3s-61.7 11-89.8 56.8c-13 21.2 44.2 2.9 44.2 2.9z" style="fill:url(#SVGID_1_)"/><linearGradient id="SVGID_2_" gradientUnits="userSpaceOnUse" x1="204.646" y1="329.787" x2="526.831" y2="329.787"><stop offset="0" style="stop-color:#b30838"/><stop offset=".186" style="stop-color:#af0837"/><stop offset=".351" style="stop-color:#a50632"/><stop offset=".508" style="stop-color:#95032b"/><stop offset=".66" style="stop-color:#81001f"/><stop offset=".809" style="stop-color:#69000e"/><stop offset=".953" style="stop-color:#4a0000"/><stop offset="1" style="stop-color:#3d0000"/></linearGradient><path d="M365.7 168.7c-89 0-161.1 72.1-161.1 161.1s72.1 161.1 161.1 161.1 161.1-72.1 161.1-161.1-72.1-161.1-161.1-161.1zm0 271.5c-61 0-110.4-49.4-110.4-110.4s49.4-110.4 110.4-110.4 110.4 49.4 110.4 110.4-49.4 110.4-110.4 110.4z" style="fill:url(#SVGID_2_)"/><path class="st3" d="M387.6 293.6c5.1 8.5 9.6 18.5 10.8 31.9 4.1 44.7-33.2 82-42.7 86.1 0 0 13.1-23.2 9.4-54.8-2.2-18.5-11.8-29.2-20.9-39.7-6-6.9-12.2-14-15.9-23.5h-53.5l91.4 160.1 91.4-160.1h-70z"/><path class="st3" d="M350.8 230.7s-25.2 24.3-19.1 54.1c5.6 27.4 35.8 36 38.4 68.4 2.3 29.4-7.3 50.8-7.3 50.8s33.8-35.4 29.9-77.8c-3.2-35.5-31.2-44.9-31.3-76.3-.1-32.1 25.7-53.7 25.7-53.7s-30.5 12.8-37.9 49.2c-9.1 44.3 28.1 54.6 33.3 88.3 2.8 18.3-4.4 33.1-4.4 33.1s6.5-25.3-9.1-46.8c-13.2-18.3-22.2-24.4-26.6-43.7-5.5-23.8 8.4-45.6 8.4-45.6z"/><path class="st0" d="M387.6 293.6c5.1 8.5 9.6 18.5 10.8 31.9 4.1 44.7-33.2 82-42.7 86.1 0 0 13.1-23.2 9.4-54.8-2.2-18.5-11.8-29.2-20.9-39.7-6-6.9-12.2-14-15.9-23.5h-53.5l91.4 160.1 91.4-160.1h-70z"/><path class="st4" d="M350.8 230.7s-25.2 24.3-19.1 54.1c5.6 27.4 35.8 36 38.4 68.4 2.3 29.4-7.3 50.8-7.3 50.8s33.8-35.4 29.9-77.8c-3.2-35.5-31.2-44.9-31.3-76.3-.1-32.1 25.7-53.7 25.7-53.7s-30.5 12.8-37.9 49.2c-9.1 44.3 28.1 54.6 33.3 88.3 2.8 18.3-4.4 33.1-4.4 33.1s6.5-25.3-9.1-46.8c-13.2-18.3-22.2-24.4-26.6-43.7-5.5-23.8 8.4-45.6 8.4-45.6z"/><linearGradient id="SVGID_3_" gradientUnits="userSpaceOnUse" x1="281.224" y1="302.887" x2="87.52" y2="302.887"><stop offset="0" style="stop-color:#222d69"/><stop offset=".13" style="stop-color:#21306a"/><stop offset=".245" style="stop-color:#1d366e"/><stop offset=".354" style="stop-color:#113f76"/><stop offset=".46" style="stop-color:#004c81"/><stop offset=".564" style="stop-color:#005c90"/><stop offset=".666" style="stop-color:#0070a5"/><stop offset=".766" style="stop-color:#008ac2"/><stop offset=".864" style="stop-color:#00a9e9"/><stop offset=".871" style="stop-color:#00aeef"/></linearGradient><path d="M249.3 301.3c-14.7-14.7-31.6-24.4-50.5-29-8.5-2.1-17.4-3.1-26.6-3.1-9.2 0-18.2 1.2-26.9 3.4-1 .3-2.1.5-3.1.8l8.1-56.7H245.6V169H108.9L87.5 319.8l37.3 18.8 3.7-3.7c2.1-2.1 4.2-3.9 6.4-5.6 10.7-8.4 23-12.5 37.3-12.5 4 0 7.9.4 11.6 1 12.1 2.2 22.6 7.8 31.9 17.1 12.1 12 17.9 26.3 17.9 43.5 0 13.6-3.8 25.3-11.3 35.7 12.1 10.4 26.4 18.2 42.1 22.7 11.1-17.2 16.8-36.8 16.8-58.4 0-30-10.7-56-31.9-77.1z" style="fill:url(#SVGID_3_)"/><path d="M147.7 375.4s-57.2 86.9 84.2 37.5c141.4-49.4 193.6-83.1 280.5-71.2l-35.2 33 35.6 28.1s-94.5-4.7-211.6 41.4c-127.9 50.4-151.4 25.4-151.4 25.4s-47.1-37.1-2.1-94.2z" style="opacity:.5"/><linearGradient id="SVGID_4_" gradientUnits="userSpaceOnUse" x1="146.229" y1="-170.081" x2="512.668" y2="-170.081" gradientTransform="matrix(1.0157 .1225 -.1111 .9207 -34.738 517.229)"><stop offset=".016" style="stop-color:#8a5a3c"/><stop offset=".045" style="stop-color:#9c7048"/><stop offset=".099" style="stop-color:#bd9a5f"/><stop offset=".141" style="stop-color:#d4b96f"/><stop offset=".164" style="stop-color:#e0c777"/><stop offset=".218" style="stop-color:#c3a265"/><stop offset=".292" style="stop-color:#a77d52"/><stop offset=".352" style="stop-color:#976948"/><stop offset=".388" style="stop-color:#926244"/><stop offset=".432" style="stop-color:#8f603f"/><stop offset=".498" style="stop-color:#875932"/><stop offset=".529" style="stop-color:#82562b"/><stop offset=".575" style="stop-color:#875a2d"/><stop offset=".624" style="stop-color:#956534"/><stop offset=".674" style="stop-color:#ae7b42"/><stop offset=".724" style="stop-color:#d59d5a"/><stop offset=".751" style="stop-color:#f4b96c"/><stop offset=".801" style="stop-color:#fdfcfa"/><stop offset=".801" style="stop-color:#fdfcf9"/><stop offset=".826" style="stop-color:#faebc5"/><stop offset=".849" style="stop-color:#f8df9f"/><stop offset=".868" style="stop-color:#f7d784"/><stop offset=".885" style="stop-color:#f6d374"/><stop offset=".896" style="stop-color:#f5d16e"/><stop offset=".978" style="stop-color:#cd9735"/><stop offset="1" style="stop-color:#c48a2b"/></linearGradient><path d="M147.7 375.4s-60.6 76.5 81.2 28.5c137.9-46.7 180.4-65.1 272.5-64.6l-27.2 26.3 34.1 29s-92.9-2.8-211 41.4c-130 48.7-150.6 24.4-150.6 24.4s-42.5-36.3 1-85z" style="fill:url(#SVGID_4_)"/><path class="st0" d="M97.1 597.8c.1-3.9-2.6-5.8-6.4-5.8-6.9 0-9.5 5.4-10.3 9-.8 3.6-.5 9 6.4 9 3.5 0 7.3-1.7 8.9-5.9h7.9c-2.5 7.8-9.6 11-18.1 11-9.7 0-14.9-4.2-12.8-14.1 2.1-9.9 9.1-14.1 18.8-14.1 6.4 0 14.3 1.7 13.4 10.9h-7.8zM112.7 604.4c.8-3.9 3.7-6.1 7.7-6.1 4.1 0 6 2.2 5.1 6.1-.8 3.9-3.7 6.1-7.7 6.1s-5.9-2.2-5.1-6.1zm-6.8 0c-1.6 7.6 3 10.8 11 10.8 7.9 0 13.9-3.2 15.5-10.8 1.6-7.6-3-10.8-11-10.8-7.9 0-13.9 3.2-15.5 10.8zM167.6 602.3c.6-2.7-1.4-3.4-3.3-3.4-2.7 0-5.3 1.5-6 4.6l-2.3 10.9h-6.6l2.6-12.1c.6-2.7-1.4-3.4-3.2-3.4-2.8 0-5.4 1.5-6 4.6l-2.3 10.9h-6.6l4.3-20.1h6.4l-.6 2.9h.1c1.6-1.7 5.1-3.4 8.9-3.4 3.8 0 5.6 1.5 6.1 3.8 2.3-2.4 5.4-3.8 9.1-3.8 4.1 0 7.6 1.7 6.5 7l-2.9 13.6H165l2.6-12.1zM209.9 602.3c.6-2.7-1.4-3.4-3.3-3.4-2.7 0-5.3 1.5-6 4.6l-2.3 10.9h-6.6l2.6-12.1c.6-2.7-1.4-3.4-3.2-3.4-2.8 0-5.4 1.5-6 4.6l-2.3 10.9h-6.6l4.3-20.1h6.4l-.6 2.9h.1c1.6-1.7 5.1-3.4 8.9-3.4 3.8 0 5.6 1.5 6.1 3.8 2.3-2.4 5.4-3.8 9.1-3.8 4 0 7.6 1.7 6.5 7l-2.9 13.6h-6.6l2.4-12.1zM235.9 611.7c-1.6 1.7-5.1 3.4-9 3.4-3.4 0-8.3-1.3-7.1-7.2l2.9-13.6h6.6l-2.5 11.6c-.6 2.8.6 4.1 3.6 4.1 3.6 0 6-2 6.8-5.7l2.1-10h6.6l-4.3 20.1h-6.4l.7-2.7zM265.3 603c.6-2.8-.6-4.1-3.6-4.1-3.1 0-6 1.5-6.9 5.8l-2.1 9.7h-6.6l4.3-20.1h6.4l-.6 2.9h.1c1.6-1.7 5.1-3.4 8.9-3.4 3.4 0 8.3 1.3 7.1 7.2l-2.8 13.4h-6.6l2.4-11.4zM278.2 594.3h6.6l-4.3 20.1h-6.6l4.3-20.1zm1.5-7.1h6.6l-1 4.6h-6.6l1-4.6zM292.8 588.1h6.6l-1.3 6.2h5.3l-.9 4.4h-5.3l-2 9.4c-.3 1.6 0 2.1 1.8 2.1 1.2 0 2.2-.1 3.3-.1l-.9 4.4c-1.3.1-3.8.4-5.2.4-6.3 0-6.4-2.3-5.6-6l2.2-10.1h-4.2l.9-4.4h4.2l1.1-6.3z"/><path class="st0" d="m328.5 594.3-15.9 23.4c-2.3 3.4-4.2 4.2-7.9 4.2-1.5 0-3.1-.1-4.6-.2l1-4.6c.9.1 1.9.1 2.8.1 1.6 0 2.5-.7 3.5-2.1l1-1.5-5.3-19.4h7.2l2.9 13.3 8.4-13.3h6.9zM360.1 597.8c.1-3.9-2.6-5.8-6.4-5.8-6.9 0-9.5 5.4-10.3 9-.8 3.6-.5 9 6.4 9 3.5 0 7.3-1.7 8.9-5.9h7.9c-2.6 7.8-9.6 11-18.1 11-9.7 0-14.9-4.2-12.8-14.1 2.1-9.9 9.1-14.1 18.8-14.1 6.4 0 14.3 1.6 13.4 10.9h-7.8zM375.7 604.4c.8-3.9 3.7-6.1 7.7-6.1 4.1 0 6 2.2 5.1 6.1-.8 3.9-3.7 6.1-7.8 6.1-4 0-5.9-2.2-5-6.1zm-6.9 0c-1.6 7.6 3 10.8 11 10.8 7.9 0 13.9-3.2 15.5-10.8 1.6-7.6-3-10.8-11-10.8-7.9 0-13.8 3.2-15.5 10.8zM402.6 587.2h6.6l-5.8 27.2h-6.6l5.8-27.2zM413.6 587.2h6.6l-5.8 27.2h-6.6l5.8-27.2zM427.2 602.2c.1-.6 2-4.5 7.3-4.5 4.8 0 5.5 3.4 5.3 4.5v.1h-12.6zm10.6 6.2c-1.3 1.7-3.4 2.6-6 2.6-4.5 0-5.8-2.9-5.4-4.8v-.1h19.3l.1-.6c1.6-7.6-1.7-12-10.3-12-7.9 0-13.9 3.2-15.6 10.8-1.6 7.6 3 10.8 11 10.8 6 0 11-2 13.9-6.7h-7zM455.4 603.9c1-4.6 4.6-5.5 7.5-5.5 2.9 0 6.1.9 5.2 5.5-1 4.6-4.6 5.5-7.5 5.5-2.9.1-6.2-.9-5.2-5.5zm14.4-7.1c-1.3-2.1-4.2-3-7.1-3-8.4 0-12.9 4.6-14.1 10-1.1 5.2 1.4 10 9.3 10 3.3 0 6.3-.9 8.6-3l-.3 1.6c-1 4.9-4 5.7-7.3 5.7-3.8 0-4.9-.9-5-2.5h-7c-.6 6.1 6 6.6 10.9 6.6 8.4 0 13.4-2.7 14.9-9.6l3.9-18.5h-6.4l-.4 2.7zM484.7 602.2c.1-.6 2-4.5 7.3-4.5 4.8 0 5.5 3.4 5.3 4.5v.1h-12.6zm10.6 6.2c-1.3 1.7-3.4 2.6-6 2.6-4.5 0-5.8-2.9-5.4-4.8v-.1h19.3l.1-.6c1.6-7.6-1.7-12-10.4-12-7.9 0-13.9 3.2-15.5 10.8-1.6 7.6 3 10.8 11 10.8 6 0 11-2 13.9-6.7h-7z"/><path class="st4" d="M96.9 579.7H78.2l-6.3-71.1h13.4l5.1 57 32.9-57h13.6l-40 71.1zM186.1 523.1c0 1.8-.4 3.6-.8 5.3l-6.3 29.1c-2 9.5-1.3 10.5-11.4 10.5-4.3 0-8.5.1-12.8.1-3.9 0-13.3 1.3-13.3-4.1 0-2.2.7-4.4 1.1-6.5l6.1-28.9c1.5-7.2 1.5-8.1 9-8.1 5.3 0 10.7-.2 16.1-.2 2.6 0 12.3-.9 12.3 2.8zm14.2-4.9c0-7.8-4.9-9.1-11.6-9.6-4.1-.2-8.1-.3-12.2-.3-6.8 0-13.6.2-20.4.2-12.3 0-17.1 2.5-19.8 15l-8.4 38.8c-.4 1.7-.7 3.7-.7 5.5 0 16.3 13.8 12 24.3 12 6.9 0 13.8-.2 20.6-.2 11.7 0 16.2-2.1 18.7-14l8.4-39.2c.6-2.7 1.1-5.5 1.1-8.2zM234.7 579.7h-38l15.3-71.1h13.6L213 566.9h24.4l-2.7 12.8z"/><path class="st0" d="m322.7 521.5-29.9-.1c-7.2 0-12.1 3.5-12.1 11.2 0 3.7 2.8 4.3 5.9 4.5 4.6.2 9.3-.1 14-.1 9.3 0 16.2 2.3 16.2 13.1 0 6.1-2.4 13.7-5.6 18.8-6 9.4-12.6 11.1-23.2 11.1h-31.5l2.9-13.3h26.4c9.5 0 16.5-2.1 16.5-13.4 0-6.3-13.6-4.2-17.8-4.2-10.6 0-17.6-3.4-17.6-15.3 0-4.6 1.1-9.8 3.5-13.8 6.2-10.5 12.3-12 23.8-12h31.1l-2.6 13.5z"/><path class="st0" d="M375.1 521.5h-19.8L342.4 580h-13.8l12.8-58.5h-19.8l2.9-13.5h53.2l-2.6 13.5zM396.9 550.7h-18.1l15.6-30.1 2.5 30.1zm16.2 29.3-6.1-72h-19.9l-37.3 72h13.8l8.6-16.6h25.7l1.4 16.6h13.8zM466.4 521.5h-19.8L433.7 580H420l12.8-58.5H413l2.9-13.5h53.2l-2.7 13.5zM519.3 520.2h-34.4l-3.5 15.8h33.4l-2.7 12.4h-33.4l-4.1 19H509l-2.7 12.5h-48.1l15.5-72h48.1l-2.5 12.3z"/><image style="overflow:visible" width="1510" height="657" xlink:href="84AFC669.png" transform="matrix(.24 0 0 .24 134.16 332.4)"/><path class="st8" d="m194.4 426.7-.3 1.1-.9.3c-.3.1-.6.3-1 .5-.5.3-.9.6-1.3 1s-.8.9-1.3 1.5c-1.2 1.5-2.1 2.6-2.7 3.3-.6.7-1.6 2.1-3.2 4.2-.9 1.1-1.4 1.9-1.6 2.3-.2.4-.4 1.2-.6 2.2l-.5 2.9c0 .2-.1.3-.1.5v.3c0 .2 0 .4.1.6.1.2.3.3.5.4.2.1.6.1 1 .2.4 0 .8.1 1.1 0l-.2 1.1-11.6 1.5.2-1.1c.3-.1.7-.1 1.2-.3.5-.1.9-.2 1.1-.4.4-.2.7-.4.9-.7.2-.3.3-.6.4-1l.9-3.9c.1-.3.1-.5.2-.8 0-.2.1-.4.1-.6 0-.2-.1-.5-.2-.8-.1-.3-.2-.7-.4-1.2-.6-1.6-1-2.8-1.3-3.7s-.7-1.9-1.3-3.2c-.2-.5-.4-.9-.7-1.2-.3-.3-.5-.6-.9-.7-.2-.1-.5-.2-.9-.2h-1l.2-1.1 11.6-1.5-.2 1.1c-1 .2-1.8.3-2.3.5-.5.2-.7.4-.7.7 0 .1 0 .4.1.7s.3 1 .5 1.8c.2.6.5 1.5.9 2.5s.8 2.1 1.3 3.4c1.2-1.6 2.4-3.1 3.4-4.4 1-1.3 1.7-2.3 2.1-2.8.7-1 1.1-1.6 1.2-1.8.1-.2.2-.4.2-.5 0-.3-.2-.5-.7-.6s-1-.1-1.7-.1l.2-1.1 8.2-.9zM198.3 446.9c-1.2.2-2.2.3-3.1.1-.9-.1-1.6-.4-2.2-.9-.6-.5-1-1-1.3-1.7-.3-.7-.4-1.5-.4-2.4 0-1.2.2-2.3.6-3.5.4-1.2 1.1-2.3 1.9-3.3.8-1 1.8-1.9 3-2.6s2.6-1.3 4-1.6c1.7-.3 3-.3 4 .1.9.4 1.4 1.1 1.4 2.3 0 1.1-.4 2.1-1.2 3-.8.9-1.8 1.7-3.2 2.4-1.1.5-2 .9-2.7 1.2s-1.7.6-2.7.9c0 .4.1.9.2 1.4s.2 1 .4 1.3c.2.4.6.7 1 .9s1 .2 1.6.1c1.1-.2 2.1-.6 2.9-1.3.8-.6 1.6-1.5 2.3-2.6l1.1.7c-.9 1.4-2 2.7-3.3 3.7-1.4.9-2.8 1.5-4.3 1.8zm3.3-12.3c0-.8-.1-1.5-.4-1.8-.3-.4-.7-.5-1.2-.4-.7.1-1.4.9-2.1 2.3-.7 1.4-1.1 3-1.3 4.9.6-.2 1.1-.4 1.7-.6.6-.2 1-.4 1.3-.6.7-.5 1.2-1 1.6-1.6.2-.7.4-1.4.4-2.2zM217.9 440.3h-.1c-.3.4-.7.7-1 1-.3.3-.7.7-1.1 1-.4.3-.8.6-1.3.8-.4.3-.9.4-1.5.6-1.7.4-2.9.2-3.8-.6-.8-.8-1.3-2.1-1.3-3.8 0-1.3.2-2.7.7-4 .5-1.3 1.1-2.5 1.9-3.6.8-1.1 1.7-2 2.8-2.8 1.1-.8 2.2-1.3 3.4-1.6.9-.2 1.6-.3 2.3-.2.6.1 1.2.2 1.6.5l4.4-2 .2.2-2.1 9.6c-.1.3-.2.7-.2 1.2-.1.5-.1.8-.1 1.1 0 .6.1.9.4 1.1.2.2.7.2 1.3 0 .3-.1.6-.2 1-.4s.6-.4.8-.5l-.3 1.4c-.9.6-1.7 1.1-2.3 1.4-.6.3-1.2.6-2 .8-1 .2-1.8.2-2.4 0-.7-.2-1.1-.7-1.3-1.2zm1.7-9.8c0-.2 0-.5-.1-.7-.1-.3-.2-.5-.3-.7-.2-.2-.4-.4-.7-.4-.3-.1-.6 0-1 .1-.6.2-1.2.5-1.7 1.1-.5.6-1 1.3-1.4 2.2-.4.9-.7 1.8-.9 2.9-.2 1.1-.3 2.1-.3 3.2 0 .5 0 .9.1 1.3s.2.7.4 1c.2.3.4.4.7.5.3.1.7.1 1.1 0 .5-.1.9-.3 1.3-.7.4-.4.8-.8 1.2-1.3l1.6-8.5zM242.2 423.8c0 .4-.1.9-.2 1.3s-.3.9-.6 1.2c-.3.4-.6.7-.9 1-.3.2-.7.4-1.3.6-.7.2-1.3.2-1.7-.1-.4-.3-.6-.6-.6-1.1 0-.4.1-.8.2-1.1.1-.3.3-.9.6-1.5-.6.5-1.2.9-1.6 1.5-.5.5-.9 1.1-1.3 1.7l-2.3 11.1-4.7 1.3 2-9.6c.1-.3.1-.7.2-1.1.1-.5.1-.9.1-1.1 0-.6-.1-.9-.3-1.1-.2-.1-.6-.1-1.2 0-.3.1-.6.2-.9.4s-.6.4-.8.5l.3-1.4c.8-.5 1.5-1 2.2-1.4s1.4-.7 2-.9c1.1-.3 2-.3 2.5 0s.9.8 1.1 1.6h.1c.9-1.3 1.7-2.2 2.4-2.8s1.4-1 2.1-1.2c.8-.2 1.4-.1 1.9.3.4.2.7.9.7 1.9zM248.1 434.4c-1.2.4-2.2.5-3 .6-.8 0-1.4 0-1.9-.2s-.8-.4-1-.7c-.2-.3-.3-.6-.3-.9 0-.6.2-1.1.6-1.7s1-.9 1.6-1.1c.6-.2 1-.2 1.4 0s.7.5 1 .9l.6 1.2c.2.4.3.8.3 1 1.1-.3 1.9-.8 2.4-1.4.5-.6.8-1.4.8-2.2 0-.4-.1-.6-.2-.8-.2-.2-.4-.3-.7-.5-.3-.1-.6-.2-1-.2s-.8-.1-1.3-.1c-1.1-.1-2-.4-2.7-.9-.7-.5-1-1.3-1-2.4 0-.6.1-1.3.4-1.9s.7-1.3 1.3-1.9c.6-.6 1.3-1.2 2.2-1.7.9-.5 1.9-1 3.1-1.3.7-.2 1.4-.4 2-.5.6-.1 1.2-.1 1.7 0s.9.3 1.2.6.4.7.4 1.3c0 .5-.2 1.1-.6 1.6-.4.5-.9.9-1.5 1-.5.2-1 .1-1.4 0-.4-.2-.7-.5-.9-.8-.2-.3-.4-.7-.5-1.1s-.2-.7-.3-1c-.7.2-1.3.7-1.8 1.3-.5.6-.8 1.3-.8 2 0 .4.1.7.2.9.1.2.3.3.5.4.2.1.6.2.9.2.4 0 .8.1 1.4.1 1.3.1 2.3.4 2.9.8.7.5 1 1.2 1 2.3 0 .7-.2 1.4-.5 2.2-.3.7-.8 1.4-1.4 2-.7.7-1.4 1.2-2.3 1.7-.4.4-1.4.8-2.8 1.2zM281.7 414.5c0 1.2-.2 2.5-.7 3.8-.5 1.3-1.1 2.5-1.9 3.6-.9 1.2-1.9 2.2-3.1 3.1-1.2.9-2.5 1.6-4 2-2 .7-3.6.6-4.8-.1-1.2-.7-1.8-2-1.8-4 0-1.3.2-2.6.7-3.9.5-1.3 1.1-2.5 1.9-3.6.8-1.1 1.8-2.1 3-2.9 1.2-.9 2.5-1.5 3.9-2 2.1-.7 3.8-.7 5 0 1.2.7 1.8 2 1.8 4zm-5-.1c0-1.2-.2-1.9-.6-2.4s-.9-.5-1.6-.3c-.7.2-1.4.8-2 1.6-.6.8-1.1 1.9-1.5 3.1-.3 1.1-.6 2.2-.7 3.4-.1 1.2-.2 2.2-.2 3.1 0 1.2.2 2 .6 2.4.4.4.9.5 1.6.3.8-.3 1.4-.8 2-1.6.6-.8 1-1.8 1.3-2.9.3-1.1.6-2.2.7-3.4.4-1.1.4-2.2.4-3.3z"/><path class="st8" d="M291.3 407.2c-.5 2.6-.9 4.8-1.2 6.8-.3 1.9-.7 3.9-1.2 6-.2 1-.6 2.1-1.2 3.2-.5 1.1-1.2 2.1-1.9 3-.8 1-1.6 1.8-2.5 2.5-.9.7-1.8 1.2-2.8 1.5-.9.3-1.5.4-2.1.4-.5 0-.9-.1-1.2-.3-.3-.2-.5-.4-.6-.7-.1-.3-.2-.6-.2-.9 0-.6.2-1.1.6-1.7.4-.6.9-1 1.6-1.2.5-.2.9-.2 1.3 0s.7.4.9.7c.3.3.5.6.7 1s.4.7.5.9c.4-.6.8-1.4 1.1-2.4.3-1 .7-2.4 1-4l2.5-13.4-2.7.9.3-1.6 2.7-.9.2-1.2c.2-1 .5-2 1.1-3.1s1.1-2.1 1.9-3c.7-.9 1.5-1.8 2.5-2.5.9-.8 1.9-1.3 2.8-1.6.8-.3 1.5-.4 2-.5.5 0 1 .1 1.3.2.3.2.5.4.6.7.1.3.1.6.1.9 0 .2 0 .5-.1.8-.1.3-.2.6-.4.9-.2.3-.4.6-.6.8-.2.2-.6.4-1 .5-.5.2-.9.2-1.3 0s-.7-.4-.9-.7c-.3-.3-.5-.7-.7-1.1s-.3-.7-.5-1c-.4.6-.7 1.4-1 2.4-.3 1-.6 2.3-1 4l-.4 1.8 3.5-1.2-.3 1.6-3.4 1.5zM321.9 388l-1.2 5.8-1 .4c-.1-.9-.4-1.6-.9-2.2s-1-.9-1.6-.8c-.3 0-.6.1-1.1.3-.5.2-.9.3-1.2.4l-2.7 1-1.8 8.8 1.9-.7c.7-.3 1.2-.5 1.6-.8.4-.3.8-.7 1.1-1.1.3-.3.6-.8.9-1.6.3-.7.6-1.3.7-1.8l1-.4-1.9 9.5-1 .4v-.5c0-.4 0-.9-.1-1.3s-.2-.7-.3-.9c-.2-.3-.6-.4-1-.4s-.9.1-1.4.3l-1.9.7-1.3 6.3c-.1.3-.1.7-.2 1-.1.4-.1.6-.1.8 0 .6.2 1 .6 1 .4 0 1.1-.2 2.2-.5 1.3-.5 2.3-.9 2.9-1.3.6-.3 1.1-.7 1.4-1.1.6-.7 1.2-1.7 2-3s1.3-2.2 1.6-2.8l1-.4-1.8 7.2L300 417l.2-1.2 1-.5c.5-.2.8-.4 1-.6.4-.3.6-.6.8-.9s.3-.7.4-1.1l3.2-15.8c0-.2.1-.4.1-.6v-.3c0-.4-.2-.7-.6-.8-.4-.1-1 0-1.9.2l.2-1.2 17.5-6.2zM338.5 390.9c0 .9-.3 1.6-.8 2.3s-1.2 1.1-1.9 1.4c-.5.1-.9.2-1.3.2h-1.1c-.2.2-.4.5-.7.9-.3.5-.6 1-1 1.6.3 1.4.6 2.4.8 3s.4 1.2.6 1.7c.2.5.4.8.7 1 .3.2.8.2 1.5 0 .2-.1.5-.2.9-.4s.7-.4.9-.6l-.3 1.4c-.9.7-1.7 1.3-2.4 1.7s-1.3.7-1.9.9l-1.2.3c-.4 0-.7 0-1.1-.1-.3-.1-.6-.3-.9-.5-.2-.2-.4-.6-.6-1.2-.1-.3-.2-.7-.3-1.1s-.2-.8-.3-1.1c-.3.5-.5.9-.6 1.1l-.5 1c-.7 1.4-1.4 2.5-1.9 3.2s-1.2 1.1-2 1.4c-.6.2-1.1.1-1.5-.1s-.6-.7-.6-1.4c0-.9.3-1.7.8-2.3.5-.7 1.2-1.1 1.9-1.4.5-.1.9-.2 1.3-.2h1.2c.1-.2.4-.5.7-.9.3-.4.6-1 1-1.6-.3-1.2-.6-2.1-.8-2.7l-.6-1.8c-.2-.5-.4-.8-.7-1-.3-.2-.8-.2-1.4 0-.3.1-.6.2-.9.5l-.9.6.3-1.4c.8-.7 1.6-1.2 2.4-1.7.8-.4 1.4-.7 1.9-.9.5-.1.9-.2 1.2-.3.3 0 .7 0 1 .1.3.1.6.3.9.5s.5.6.6 1.2c.1.4.2.7.3 1.1.1.4.2.7.2 1l.6-1.2c.2-.4.4-.8.5-1.1.7-1.4 1.4-2.5 1.9-3.2s1.2-1.2 1.9-1.4c.6-.2 1.1-.1 1.5.1s.7.8.7 1.4zM346.1 402.1c-2.2.6-3.9.5-5.1-.2-1.2-.8-1.8-2.2-1.8-4.1 0-1.2.2-2.4.6-3.6.4-1.2 1-2.3 1.8-3.4.7-1 1.7-2 2.9-2.9s2.5-1.5 3.9-1.9c1.7-.5 3-.5 3.8-.1.9.4 1.3 1.1 1.3 2.3 0 .3 0 .7-.1 1.1-.1.4-.2.8-.4 1.1-.2.4-.5.7-.8.9-.3.2-.7.5-1.3.6-.7.2-1.3.2-1.7-.1s-.6-.6-.6-1c0-.5.1-1 .3-1.6.2-.5.5-1.1.8-1.7-.1-.1-.3-.2-.5-.3s-.6-.1-1 .1c-1.1.3-2 1.3-2.8 2.9-.7 1.6-1.1 3.4-1.1 5.5 0 1.6.3 2.7.8 3.3.6.6 1.3.8 2.4.5 1-.3 1.9-.8 2.6-1.4.7-.6 1.4-1.5 2.1-2.8l1 .6c-.8 1.5-1.8 2.8-3.1 3.9s-2.6 1.9-4 2.3zM361.6 397.8c-1.1.3-2.1.4-3 .3s-1.6-.4-2.1-.8c-.6-.4-1-1-1.2-1.7s-.4-1.5-.4-2.4c0-1.2.2-2.3.6-3.6.4-1.2 1-2.4 1.9-3.4.8-1 1.8-2 3-2.8 1.2-.8 2.5-1.4 4-1.8 1.7-.4 3-.5 3.9-.2s1.3 1.1 1.3 2.2-.4 2.1-1.2 3.1c-.8 1-1.8 1.8-3.1 2.5-1 .6-1.9 1.1-2.7 1.4s-1.6.7-2.7 1.1c0 .4.1.9.2 1.4.1.5.2.9.4 1.3s.6.7 1 .8c.4.2 1 .1 1.6 0 1.1-.3 2.1-.8 2.9-1.4.8-.7 1.5-1.6 2.3-2.7l1 .6c-.9 1.5-2 2.8-3.3 3.9-1.5 1.1-2.9 1.8-4.4 2.2zm3.2-12.5c0-.8-.1-1.4-.4-1.8-.3-.4-.7-.5-1.2-.3-.7.2-1.4 1-2.1 2.4-.7 1.4-1.1 3.1-1.3 5 .6-.2 1.1-.5 1.7-.7.6-.3 1-.5 1.3-.7.7-.5 1.2-1.1 1.5-1.7.3-.7.5-1.4.5-2.2zM380.8 369.9l-3.9 18.2c-.1.3-.1.7-.2 1.2s-.1.9-.1 1.1c0 .6.1.9.4 1.1.3.1.7.1 1.4 0 .2-.1.6-.2 1-.4s.7-.4.9-.5l-.3 1.4c-.9.6-1.7 1.1-2.3 1.4-.6.3-1.3.6-2.1.8-1.2.3-2.1.2-2.7-.2-.7-.4-1-1.1-1-2 0-.4 0-.8.1-1.2.1-.4.1-.8.2-1.2l3.1-14.6c0-.2.1-.3.1-.5v-.4c0-.4-.1-.6-.2-.8s-.3-.3-.5-.4c-.2-.1-.5-.1-.8-.1s-.6.1-1 .1l.3-1.2 7.6-2.2v.4zM391.3 367.5l-3.9 18.2c-.1.3-.1.7-.2 1.2s-.1.9-.1 1.1c0 .6.1.9.4 1.1.3.1.7.1 1.4 0 .2-.1.6-.2 1-.4s.7-.4.9-.5l-.3 1.4c-1 .6-1.7 1.1-2.3 1.4-.6.3-1.3.6-2.1.8-1.2.3-2.1.2-2.7-.3s-1-1.1-1-2c0-.4 0-.8.1-1.2.1-.4.1-.8.2-1.2l3.1-14.6c0-.2.1-.3.1-.5v-.4c0-.4-.1-.6-.2-.8s-.3-.3-.5-.4-.5-.1-.8-.1c-.3 0-.6.1-1 .1l.3-1.2 7.6-2.1v.4zM398.9 389.1c-1.2.2-2.2.3-3.1.1-.9-.1-1.6-.4-2.2-.9-.6-.5-1-1-1.3-1.7s-.4-1.5-.4-2.4c0-1.2.2-2.3.6-3.5.4-1.2 1.1-2.3 1.9-3.3.8-1 1.8-1.9 3-2.6s2.6-1.3 4-1.6c1.7-.3 3-.3 4 0 .9.4 1.4 1.1 1.4 2.3 0 1.1-.4 2.1-1.2 3-.8.9-1.8 1.7-3.2 2.4-1.1.5-2 1-2.7 1.2-.7.3-1.7.6-2.7.9 0 .4.1.9.2 1.4.1.5.2 1 .4 1.3.2.4.6.7 1 .9.4.2 1 .2 1.6.1 1.1-.2 2.1-.7 2.9-1.3.8-.6 1.6-1.5 2.3-2.6l1.1.7c-.9 1.4-2 2.7-3.3 3.7-1.4.9-2.8 1.6-4.3 1.9zm3.3-12.4c0-.8-.2-1.5-.4-1.8-.3-.4-.7-.5-1.2-.4-.7.2-1.4.9-2.1 2.3-.7 1.4-1.1 3-1.3 5 .6-.2 1.1-.4 1.7-.6s1-.4 1.3-.7c.7-.5 1.2-1 1.6-1.6s.4-1.3.4-2.2zM427.7 381.2l-.3 1.4c-1 .5-1.7 1-2.3 1.3-.6.3-1.2.5-2 .6-1.2.2-2.1.1-2.7-.4-.6-.5-1-1.2-1-2v-.9c0-.4.1-.8.2-1.4l1.1-4.1c.1-.4.2-.8.2-1.2.1-.3.1-.6.1-.8 0-.5-.1-.8-.3-1.1-.2-.2-.6-.3-1.1-.2-.3.1-.8.3-1.4.6-.6.4-1.3 1-2.1 1.8l-2.4 11.1-4.8.8 2.1-9.4c.1-.3.1-.7.2-1.1.1-.5.1-.8.1-1.1 0-.6-.1-.9-.3-1.1s-.6-.2-1.2-.1c-.3.1-.6.2-1 .3-.3.2-.6.3-.8.4l.3-1.4c.8-.5 1.5-.9 2.3-1.2.7-.4 1.4-.6 2-.7 1.1-.2 2-.1 2.6.3.6.4.9.9 1.1 1.7h.1c1-1 1.9-1.9 3-2.5 1-.7 2.1-1.1 3.2-1.3 1.1-.2 1.9 0 2.5.5s.9 1.2.9 2c0 .2 0 .5-.1 1 0 .4-.1.9-.2 1.3l-1.1 4.3-.3 1.2c-.1.5-.1.8-.1 1 0 .6.1.9.4 1.1.2.2.7.2 1.3.1.3 0 .6-.2 1-.3.4-.3.7-.4.8-.5zM436.3 382.8c-2.2.3-4 0-5.3-1-1.3-1-1.9-2.4-1.9-4.4 0-1.2.2-2.4.6-3.5.4-1.1 1-2.2 1.8-3.2.8-.9 1.8-1.7 3-2.4s2.6-1.1 4.1-1.3c1.7-.2 3.1-.1 4 .4.9.5 1.4 1.3 1.4 2.5 0 .3 0 .7-.1 1-.1.4-.2.7-.4 1-.2.3-.5.6-.8.8-.3.2-.7.3-1.3.4-.8.1-1.4 0-1.8-.3-.4-.3-.6-.7-.6-1.1 0-.5.1-1 .3-1.5.2-.5.5-1.1.8-1.6-.1-.1-.3-.2-.5-.3-.3-.1-.6-.2-1-.1-1.1.2-2.1 1-2.8 2.5s-1.1 3.3-1.1 5.3c0 1.6.3 2.7.9 3.5s1.4 1 2.4.9c1.1-.1 2-.5 2.7-1 .7-.5 1.5-1.3 2.2-2.4l1.1.8c-.8 1.4-1.9 2.5-3.2 3.4-1.6.9-3 1.4-4.5 1.6zM452.3 381c-1.2.1-2.2 0-3.1-.2-.9-.2-1.6-.6-2.2-1.1-.6-.5-1-1.1-1.3-1.9-.3-.7-.4-1.6-.4-2.5 0-1.2.2-2.3.6-3.4.4-1.1 1.1-2.2 1.9-3.1.8-.9 1.8-1.7 3.1-2.3 1.2-.6 2.6-1 4.1-1.2 1.8-.2 3.1 0 4 .5.9.5 1.4 1.3 1.4 2.4 0 1.1-.4 2-1.2 2.9-.8.8-1.9 1.5-3.2 2-1.1.4-2 .7-2.8 1-.8.2-1.7.4-2.8.6 0 .4.1.9.2 1.4.1.5.2 1 .4 1.3.2.4.6.7 1 1 .4.2 1 .3 1.6.2 1.2-.1 2.1-.4 3-1s1.6-1.3 2.3-2.4l1.1.8c-.9 1.3-2 2.5-3.4 3.3-1.3 1-2.8 1.5-4.3 1.7zm3.3-12c0-.8-.2-1.5-.5-1.9-.3-.4-.7-.6-1.3-.6-.8.1-1.5.8-2.1 2.1-.7 1.3-1.1 2.9-1.3 4.8.6-.1 1.2-.3 1.7-.4s1-.3 1.4-.5c.7-.4 1.3-.9 1.6-1.4.3-.6.5-1.3.5-2.1z"/></svg>