<svg version="1.1" id="Layer_1" xmlns="http://www.w3.org/2000/svg" x="0" y="0" width="360" height="144" style="enable-background:new 0 0 360 144" xml:space="preserve"><style>.st0{fill:#384b5d}</style><path class="st0" d="M191.4 104.7c-18.1 0-32.8-14.7-32.8-32.8s14.7-32.8 32.8-32.8 32.8 14.7 32.8 32.8-14.7 32.8-32.8 32.8zm0-51c-10.1 0-18.3 8.2-18.3 18.3s8.2 18.3 18.3 18.3S209.7 82 209.7 72s-8.2-18.3-18.3-18.3zM98.3 39.2h9.9c1.3 0 2.4 1.1 2.4 2.4v34.8c0 8 2.1 13.7 10.2 13.7 11.8 0 17.7-6.7 17.7-22.5v-26c0-1.3 1.1-2.4 2.4-2.4h9.8c1.3 0 2.4 1.1 2.4 2.4v60.8c0 1.3-1.1 2.4-2.4 2.4H141c-1.3 0-2.4-1.1-2.4-2.4v-6.1c-3.2 6.8-10.9 8.5-22.1 8.5-14 0-20.5-7.1-20.5-24.9V41.6c-.1-1.4 1-2.4 2.3-2.4zM232.1 39.2h9.8c1.3 0 2.4 1.1 2.4 2.4v6.1s2-8.4 20.1-8.5c2.6 0 2.9 1.2 2.7 2.6l-1.3 10.3c0 1.3-1.1 2.4-2.4 2.3H262c-6.9 0-13.2 4.6-16.3 14.4-1 3.2-1.4 6.8-1.4 10.7v22.9c0 1.3-1.1 2.4-2.4 2.4h-9.8c-1.3 0-2.4-1.1-2.4-2.4V41.6c0-1.4 1.1-2.4 2.4-2.4zM331 70.7c-.4-8.1-3.4-15.2-9-21.2-10.8-11.5-27.8-13.3-40.6-5.9-11.7 6.8-18.8 21.1-15.8 34.9 7.2 33 43.9 30 50.7 17.7.1-.1.1 6.1.1 6.1 0 1.3 1.4 2.4 2.7 2.4h9.5c1.3 0 2.4-1.1 2.4-2.4V70.7zM279.8 72c0-10 8.4-18.2 18.5-18.1 9.9.1 17.9 8.3 17.9 18.3.1 10.3-8.7 17.9-18.4 17.7-10-.2-18.1-7.9-18-17.9z"/><path class="st0" d="M97.4 103.1c-3.4-2.6-4.5-7-6.1-12.4-.1-.4-.5-.7-.9-.7l-33.7.1c-.8 0-1.2-.9-.7-1.5l33.9-40c.4-.4.6-1 .6-1.5v-5.7c0-1.5-1.2-2.3-3.3-2.3H32.7c-1.7 0-3 1.3-3 3v8.7c0 1.7 1.3 3 3 3h31.5c.8 0 1.2.9.7 1.5L34 91.5c-2.8 3.2-5.6 6.3-5 9.7.2 1 .6 2 1.3 2.8.4.5.9.7 1.5.7h64.9c.9 0 1.3-1 .7-1.6z"/></svg>