<svg version="1.1" id="Layer_1" xmlns="http://www.w3.org/2000/svg" xmlns:xlink="http://www.w3.org/1999/xlink" x="0" y="0" width="612" height="792" style="enable-background:new 0 0 612 792" xml:space="preserve"><style>.st0,.st3{fill-rule:evenodd;clip-rule:evenodd;fill:#fff}.st3{fill:#ed1c24}</style><path class="st0" d="M273.6 403.2c0 1.5-1.9 2.7-3.3 2.7-.9 0-1.7-.3-2.4-.9l.7-.5c-.1-.5-.4-.9-.9-1.1l-.7.6c-.3-.6-.5-1.2-.5-1.8 0-1.6 1.4-3.5 3-3.5.8 0 1.6.6 1.6 1.4 0 .8-.6 1.4-1.4 1.4-.7 0-1.4-.7-1.3-1.4l-.9.7c.2.9 1 1.7 1.9 1.7h.4c-.1.2-.1.4-.1.7 0 .7.6 1.6 1.3 1.9l.9-.7c-.6-.1-1.1-.7-1.1-1.3 0-.7.6-1.4 1.4-1.4.9-.1 1.4.7 1.4 1.5zm9.7 3.6c0 1.8-1.3 3.2-3 3.5v-.9c-.2-.1-.4-.2-.7-.2-.2 0-.5.1-.7.2v.9c-1.7-.3-3-1.7-3-3.5 0-1.2.5-2.4 1.9-2.4.8 0 1.3.6 1.3 1.3 0 .7-.6 1.3-1.3 1.3-.3 0-.7-.1-.9-.3v1.1c.3.1.6.2 1 .2.8 0 1.4-.2 1.8-.9.4.7 1 .9 1.8.9.3 0 .7-.1 1-.2v-1.1c-.2.2-.6.3-.9.3-.7 0-1.3-.6-1.3-1.3 0-.7.5-1.3 1.2-1.3 1.3-.1 1.8 1.2 1.8 2.4zm10.5-1.6-.8-.6c.5-.7.7-1.6.7-2.5 0-2.5-2-4.5-4.5-4.5-1.2 0-2.4.5-3.3 1.3l-.2-.2.7-.8c-.1-.4-.5-.7-.9-.7l-.7.9-4.1-3.4 4.1-3.3.6.7-.7.6.6.7.8-.6.6.7-.7.6.6.7 2-1.6-2.1-1.2.6-.5 2 1.1-.7-2.2.6-.5.7 2.3 2-1.6-.6-.7-.8.6-.6-.7.8-.6-.6-.7-.8.6-.6-.7 1.7-1.3c-.1-.5-.4-1-.9-1.1l-8.8 7.2v-11.6c-.2-.1-.5-.2-.7-.2s-.5.1-.7.2v2.1H278v-.9h-.9v.9h-.9v-.9h-.9v2.6l2.2-.9v.7l-2.1.8 2.1.8v.8l-2.2-.9v2.6h.9v-1h.9v1h.9v-1h.9v4.9L270 386c-.4.1-.8.6-.9 1.1l1.7 1.3-.6.7-.8-.6-.6.7.8.6-.6.7-.8-.6-.6.7 2 1.6.7-2.3.6.5-.7 2.2 2-1.1.6.5-2.1 1.2 2 1.6.6-.7-.8-.6.6-.7.8.6.6-.7-.8-.6.6-.7 4.1 3.3-4.2 3.4-.7-.9c-.4.1-.8.3-.9.7l.7.8-.2.2c-.9-.8-2.1-1.3-3.3-1.3-2.5 0-4.5 2-4.5 4.5 0 .9.3 1.8.7 2.5l-.8.6c.1.5.4.9.9 1.1l.8-.6c.9.8 2.1 1.3 3.3 1.3 2.5 0 4.5-2 4.5-4.5 0-.9-.3-1.8-.7-2.5l.2-.2.7.9c.4-.1.8-.3.9-.7l-.7-.8 3.7-3v4.8h-1.1c-.1.2-.2.4-.2.6 0 .2.1.4.1.6h1.1v.3c-2.3.3-4.1 2.2-4.1 4.5 0 2.4 1.8 4.3 4.1 4.6v1c.2.1.4.2.7.2.2 0 .5-.1.7-.2v-1c2.3-.3 4.1-2.2 4.1-4.6 0-2.3-1.8-4.2-4.1-4.5v-.5h1.1c.1-.2.1-.3.1-.6 0-.2-.1-.4-.1-.6h-1.1V396l3.7 3-.7.8c.1.4.5.7.9.7l.7-.9.2.2c-.5.8-.7 1.6-.7 2.5 0 2.5 2 4.5 4.5 4.5 1.2 0 2.4-.5 3.3-1.3l.8.6c.6 0 .9-.5 1-.9zm-1.2-3.1c0 .6-.2 1.2-.5 1.8l-.7-.6c-.4.1-.8.6-.9 1.1l.7.5c-.7.6-1.6.9-2.4.9-1.4 0-3.3-1.1-3.3-2.7 0-.7.5-1.5 1.4-1.5.8 0 1.4.6 1.4 1.4 0 .6-.5 1.2-1.1 1.3l.9.7c.7-.3 1.3-1.1 1.3-1.9 0-.3-.1-.5-.1-.7h.4c.9 0 1.7-.9 1.9-1.7l-.9-.7v.1c0 .7-.7 1.3-1.3 1.3-.8 0-1.4-.6-1.4-1.4 0-.8.8-1.4 1.6-1.4 1.7 0 3 1.8 3 3.5"/><defs><path id="SVGID_1_" d="M265 381h82.3v31.8H265z"/></defs><clipPath id="SVGID_2_"><use xlink:href="#SVGID_1_" style="overflow:visible"/></clipPath><path d="M273.6 403.2c0 1.5-1.9 2.7-3.3 2.7-.9 0-1.7-.3-2.4-.9l.7-.5c-.1-.5-.4-.9-.9-1.1l-.7.6c-.3-.6-.5-1.2-.5-1.8 0-1.6 1.4-3.5 3-3.5.8 0 1.6.6 1.6 1.4 0 .8-.6 1.4-1.4 1.4-.7 0-1.4-.7-1.3-1.4l-.9.7c.2.9 1 1.7 1.9 1.7h.4c-.1.2-.1.4-.1.7 0 .7.6 1.6 1.3 1.9l.9-.7c-.6-.1-1.1-.7-1.1-1.3 0-.7.6-1.4 1.4-1.4.9-.1 1.4.7 1.4 1.5zm9.7 3.6c0 1.8-1.3 3.2-3 3.5v-.9c-.2-.1-.4-.2-.7-.2-.2 0-.5.1-.7.2v.9c-1.7-.3-3-1.7-3-3.5 0-1.2.5-2.4 1.9-2.4.8 0 1.3.6 1.3 1.3 0 .7-.6 1.3-1.3 1.3-.3 0-.7-.1-.9-.3v1.1c.3.1.6.2 1 .2.8 0 1.4-.2 1.8-.9.4.7 1 .9 1.8.9.3 0 .7-.1 1-.2v-1.1c-.2.2-.6.3-.9.3-.7 0-1.3-.6-1.3-1.3 0-.7.5-1.3 1.2-1.3 1.3-.1 1.8 1.2 1.8 2.4zm10.5-1.6-.8-.6c.5-.7.7-1.6.7-2.5 0-2.5-2-4.5-4.5-4.5-1.2 0-2.4.5-3.3 1.3l-.2-.2.7-.8c-.1-.4-.5-.7-.9-.7l-.7.9-4.1-3.4 4.1-3.3.6.7-.7.6.5.7.8-.6.6.7-.7.6.6.7 2-1.6-2.1-1.2.6-.5 2 1.1-.7-2.1.6-.5.7 2.3 2-1.6-.6-.7-.8.6-.6-.7.8-.6-.6-.7-.8.6-.6-.7 1.7-1.3c-.1-.5-.4-1-.9-1.1l-8.8 7.2v-11.6c-.2-.1-.5-.2-.7-.2s-.5.1-.7.2v2.1h-1v-.9h-.9v.9h-.9v-.9h-.9v2.6l2.2-.9v.7l-2.1.8 2.1.8v.8l-2.2-.9v2.6h.9v-1h.9v1h.9v-1h.9v4.9L270 386c-.4.1-.8.6-.9 1.1l1.7 1.3-.5.7-.8-.6-.6.7.8.6-.6.7-.8-.6-.6.7 2 1.6.7-2.3.6.5-.7 2.1 2-1.1.6.5-2.1 1.2 2 1.6.6-.7-.8-.6.6-.7.8.6.6-.7-.8-.6.5-.7 4.1 3.3-4.2 3.4-.7-.9c-.4.1-.8.3-.9.7l.7.8-.2.2c-.9-.8-2.1-1.3-3.3-1.3-2.5 0-4.5 2-4.5 4.5 0 .9.3 1.8.7 2.5l-.8.6c.1.5.4.9.9 1.1l.8-.6c.9.8 2.1 1.3 3.3 1.3 2.5 0 4.5-2 4.5-4.5 0-.9-.3-1.8-.7-2.5l.2-.2.7.9c.4-.1.8-.3.9-.7l-.7-.8 3.7-3v4.8h-1.1c-.1.2-.2.4-.2.6 0 .2.1.4.1.5h1.1v.3c-2.3.3-4.1 2.2-4.1 4.5 0 2.4 1.8 4.3 4.1 4.6v1c.2.1.4.2.7.2.2 0 .5-.1.7-.2v-1c2.3-.3 4.1-2.2 4.1-4.6 0-2.3-1.8-4.2-4.1-4.5v-.3h1.1c.1-.2.1-.3.1-.5s-.1-.4-.1-.6h-1.1v-4.8l3.7 3-.7.8c.1.4.5.7.9.7l.7-.9.2.2c-.5.8-.7 1.6-.7 2.5 0 2.5 2 4.5 4.5 4.5 1.2 0 2.4-.5 3.3-1.3l.8.6c.6-.1.9-.6 1-1zm-1.2-3.1c0 .6-.2 1.2-.5 1.8l-.7-.6c-.4.1-.8.6-.9 1.1l.7.5c-.7.6-1.6.9-2.4.9-1.4 0-3.3-1.1-3.3-2.7 0-.7.6-1.5 1.4-1.5.8 0 1.4.6 1.4 1.4 0 .6-.5 1.2-1.1 1.3l.9.7c.7-.3 1.3-1.1 1.3-1.9 0-.3-.1-.5-.1-.7h.4c.9 0 1.7-.9 1.9-1.7l-.9-.7v.1c0 .7-.7 1.3-1.3 1.3-.8 0-1.4-.6-1.4-1.4 0-.8.8-1.4 1.6-1.4 1.7 0 3 1.8 3 3.5z" style="clip-path:url(#SVGID_2_);fill:none;stroke:#fff;stroke-width:.68;stroke-miterlimit:2.613"/><path class="st0" d="M329.4 401c0 3-1.6 4.9-4.7 4.9h-2v-9.7h2.4c2.4-.1 4.3 1.6 4.3 4.8zm-13-14.2v-.9H311v.9h2.2v12.7c0 3.7-.9 6.3-4.6 6.3-3.8 0-4.8-2.4-4.8-6.3v-12.7h2.4v-.9h-7.5v.9h2.3v13c0 3.9 1.2 7.1 6.7 7.1s6.7-3.3 6.7-7.2v-12.9h2zm15.9 14.2c0-4.4-3-5.2-6-5.4v-.1c2.4-.4 5.1-1.3 5.1-4.8 0-3.1-1.9-4.8-5.4-4.8h-8.4v.9h2.3v19h-2.3v.9h8.1c3.3 0 6.6-1.2 6.6-5.7zm14.6-.3c0-4.2-2.9-5.4-5.6-6.3-2.2-.8-4.4-1.5-4.4-3.9 0-2.8 1.9-3.8 4.1-3.8 2.6 0 3.9 1.6 4.2 4.9h.9l-.1-4.6c-1.3-.7-3.2-1.2-4.7-1.2-3.7 0-6.4 2-6.4 5.9 0 3.2 2.4 4.7 4.8 5.6 2.5 1 5.1 1.5 5.1 4.6 0 2.8-1.5 4.3-4 4.3-3.1 0-4.8-1.9-5-5.6h-.9l.2 5.3c1.5.8 3.9 1.2 5.6 1.2 3.9-.1 6.2-2.7 6.2-6.4zm-18.3-9.7c0 3-1.7 4.3-3.7 4.3h-2.3v-8.4h2.5c2.3-.1 3.5 1.7 3.5 4.1"/><defs><path id="SVGID_3_" d="M265 381h82.3v31.8H265z"/></defs><clipPath id="SVGID_4_"><use xlink:href="#SVGID_3_" style="overflow:visible"/></clipPath><path d="M329.4 401c0 3-1.6 4.9-4.7 4.9h-2v-9.7h2.4c2.4-.1 4.3 1.6 4.3 4.8zm-13-14.2v-.9H311v.9h2.2v12.7c0 3.7-.9 6.3-4.6 6.3-3.8 0-4.8-2.4-4.8-6.3v-12.7h2.4v-.9h-7.5v.9h2.3v13c0 3.9 1.2 7.1 6.7 7.1s6.7-3.3 6.7-7.2v-12.9h2zm15.9 14.2c0-4.4-3-5.2-6-5.4v-.1c2.4-.4 5.1-1.3 5.1-4.8 0-3.1-1.9-4.8-5.4-4.8h-8.4v.9h2.3v19h-2.3v.9h8.1c3.3 0 6.6-1.2 6.6-5.7zm14.6-.3c0-4.2-2.9-5.4-5.6-6.3-2.2-.8-4.4-1.5-4.4-3.9 0-2.8 1.9-3.8 4.1-3.8 2.6 0 3.9 1.6 4.2 4.9h.9l-.1-4.6c-1.3-.7-3.2-1.2-4.7-1.2-3.7 0-6.4 2-6.4 5.9 0 3.2 2.4 4.7 4.8 5.6 2.5 1 5.1 1.5 5.1 4.6 0 2.8-1.5 4.3-4 4.3-3.1 0-4.8-1.9-5-5.6h-.9l.2 5.3c1.5.8 3.9 1.2 5.6 1.2 3.9-.1 6.2-2.7 6.2-6.4zm-18.3-9.7c0 3-1.7 4.3-3.7 4.3h-2.3v-8.4h2.5c2.3-.1 3.5 1.7 3.5 4.1z" style="clip-path:url(#SVGID_4_);fill:none;stroke:#fff;stroke-width:.68;stroke-miterlimit:2.613"/><path class="st3" d="M329.4 401c0 3-1.6 4.9-4.7 4.9h-2v-9.7h2.4c2.4-.1 4.3 1.6 4.3 4.8zm-13-14.2v-.9H311v.9h2.2v12.7c0 3.7-.9 6.3-4.6 6.3-3.8 0-4.8-2.4-4.8-6.3v-12.7h2.4v-.9h-7.5v.9h2.3v13c0 3.9 1.2 7.1 6.7 7.1s6.7-3.3 6.7-7.2v-12.9h2zm15.9 14.2c0-4.4-3-5.2-6-5.4v-.1c2.4-.4 5.1-1.3 5.1-4.8 0-3.1-1.9-4.8-5.4-4.8h-8.4v.9h2.3v19h-2.3v.9h8.1c3.3 0 6.6-1.2 6.6-5.7zm14.6-.3c0-4.2-2.9-5.4-5.6-6.3-2.2-.8-4.4-1.5-4.4-3.9 0-2.8 1.9-3.8 4.1-3.8 2.6 0 3.9 1.6 4.2 4.9h.9l-.1-4.6c-1.3-.7-3.2-1.2-4.7-1.2-3.7 0-6.4 2-6.4 5.9 0 3.2 2.4 4.7 4.8 5.6 2.5 1 5.1 1.5 5.1 4.6 0 2.8-1.5 4.3-4 4.3-3.1 0-4.8-1.9-5-5.6h-.9l.2 5.3c1.5.8 3.9 1.2 5.6 1.2 3.9-.1 6.2-2.7 6.2-6.4zm-18.3-9.7c0 3-1.7 4.3-3.7 4.3h-2.3v-8.4h2.5c2.3-.1 3.5 1.7 3.5 4.1"/><g><defs><path id="SVGID_5_" d="M265 381h82.3v31.8H265z"/></defs><clipPath id="SVGID_6_"><use xlink:href="#SVGID_5_" style="overflow:visible"/></clipPath><path d="M329.4 401c0 3-1.6 4.9-4.7 4.9h-2v-9.7h2.4c2.4-.1 4.3 1.6 4.3 4.8zm-13-14.2v-.9H311v.9h2.2v12.7c0 3.7-.9 6.3-4.6 6.3-3.8 0-4.8-2.4-4.8-6.3v-12.7h2.4v-.9h-7.5v.9h2.3v13c0 3.9 1.2 7.1 6.7 7.1s6.7-3.3 6.7-7.2v-12.9h2zm15.9 14.2c0-4.4-3-5.2-6-5.4v-.1c2.4-.4 5.1-1.3 5.1-4.8 0-3.1-1.9-4.8-5.4-4.8h-8.4v.9h2.3v19h-2.3v.9h8.1c3.3 0 6.6-1.2 6.6-5.7zm14.6-.3c0-4.2-2.9-5.4-5.6-6.3-2.2-.8-4.4-1.5-4.4-3.9 0-2.8 1.9-3.8 4.1-3.8 2.6 0 3.9 1.6 4.2 4.9h.9l-.1-4.6c-1.3-.7-3.2-1.2-4.7-1.2-3.7 0-6.4 2-6.4 5.9 0 3.2 2.4 4.7 4.8 5.6 2.5 1 5.1 1.5 5.1 4.6 0 2.8-1.5 4.3-4 4.3-3.1 0-4.8-1.9-5-5.6h-.9l.2 5.3c1.5.8 3.9 1.2 5.6 1.2 3.9-.1 6.2-2.7 6.2-6.4zm-18.3-9.7c0 3-1.7 4.3-3.7 4.3h-2.3v-8.4h2.5c2.3-.1 3.5 1.7 3.5 4.1z" style="clip-path:url(#SVGID_6_);fill:none;stroke:#ed1c24;stroke-width:.68;stroke-miterlimit:2.613"/></g><path d="M273.6 403.2c0 1.5-1.9 2.7-3.3 2.7-.9 0-1.7-.3-2.4-.9l.7-.5c-.1-.5-.4-.9-.9-1.1l-.7.6c-.3-.6-.5-1.2-.5-1.8 0-1.6 1.4-3.5 3-3.5.8 0 1.6.6 1.6 1.4 0 .8-.6 1.4-1.4 1.4-.7 0-1.4-.7-1.3-1.4l-.9.7c.2.9 1 1.7 1.9 1.7h.4c-.1.2-.1.4-.1.7 0 .7.6 1.6 1.3 1.9l.9-.7c-.6-.1-1.1-.7-1.1-1.3 0-.7.6-1.4 1.4-1.4.9-.1 1.4.7 1.4 1.5zm9.7 3.6c0 1.8-1.3 3.2-3 3.5v-.9c-.2-.1-.4-.2-.7-.2-.2 0-.5.1-.7.2v.9c-1.7-.3-3-1.7-3-3.5 0-1.2.5-2.4 1.9-2.4.8 0 1.3.6 1.3 1.3 0 .7-.6 1.3-1.3 1.3-.3 0-.7-.1-.9-.3v1.1c.3.1.6.2 1 .2.8 0 1.4-.2 1.8-.9.4.7 1 .9 1.8.9.3 0 .7-.1 1-.2v-1.1c-.2.2-.6.3-.9.3-.7 0-1.3-.6-1.3-1.3 0-.7.5-1.3 1.2-1.3 1.3-.1 1.8 1.2 1.8 2.4zm10.5-1.6-.8-.6c.5-.7.7-1.6.7-2.5 0-2.5-2-4.5-4.5-4.5-1.2 0-2.4.5-3.3 1.3l-.2-.2.7-.8c-.1-.4-.5-.7-.9-.7l-.7.9-4.1-3.4 4.1-3.3.6.7-.7.6.6.7.8-.6.6.7-.7.6.6.7 2-1.6-2.1-1.2.6-.5 2 1.1-.7-2.2.6-.5.7 2.3 2-1.6-.6-.7-.8.6-.6-.7.8-.6-.6-.7-.8.6-.6-.7 1.7-1.3c-.1-.5-.4-1-.9-1.1l-8.8 7.2v-11.6c-.2-.1-.5-.2-.7-.2s-.5.1-.7.2v2.1H278v-.9h-.9v.9h-.9v-.9h-.9v2.6l2.2-.9v.7l-2.1.8 2.1.8v.8l-2.2-.9v2.6h.9v-1h.9v1h.9v-1h.9v4.9L270 386c-.4.1-.8.6-.9 1.1l1.7 1.3-.6.7-.8-.6-.6.7.8.6-.6.7-.8-.6-.6.7 2 1.6.7-2.3.6.5-.7 2.2 2-1.1.6.5-2.1 1.2 2 1.6.6-.7-.8-.6.6-.7.8.6.6-.7-.8-.6.6-.7 4.1 3.3-4.2 3.4-.7-.9c-.4.1-.8.3-.9.7l.7.8-.2.2c-.9-.8-2.1-1.3-3.3-1.3-2.5 0-4.5 2-4.5 4.5 0 .9.3 1.8.7 2.5l-.8.6c.1.5.4.9.9 1.1l.8-.6c.9.8 2.1 1.3 3.3 1.3 2.5 0 4.5-2 4.5-4.5 0-.9-.3-1.8-.7-2.5l.2-.2.7.9c.4-.1.8-.3.9-.7l-.7-.8 3.7-3v4.8h-1.1c-.1.2-.2.4-.2.6 0 .2.1.4.1.6h1.1v.3c-2.3.3-4.1 2.2-4.1 4.5 0 2.4 1.8 4.3 4.1 4.6v1c.2.1.4.2.7.2.2 0 .5-.1.7-.2v-1c2.3-.3 4.1-2.2 4.1-4.6 0-2.3-1.8-4.2-4.1-4.5v-.5h1.1c.1-.2.1-.3.1-.6 0-.2-.1-.4-.1-.6h-1.1V396l3.7 3-.7.8c.1.4.5.7.9.7l.7-.9.2.2c-.5.8-.7 1.6-.7 2.5 0 2.5 2 4.5 4.5 4.5 1.2 0 2.4-.5 3.3-1.3l.8.6c.6 0 .9-.5 1-.9zm-1.2-3.1c0 .6-.2 1.2-.5 1.8l-.7-.6c-.4.1-.8.6-.9 1.1l.7.5c-.7.6-1.6.9-2.4.9-1.4 0-3.3-1.1-3.3-2.7 0-.7.5-1.5 1.4-1.5.8 0 1.4.6 1.4 1.4 0 .6-.5 1.2-1.1 1.3l.9.7c.7-.3 1.3-1.1 1.3-1.9 0-.3-.1-.5-.1-.7h.4c.9 0 1.7-.9 1.9-1.7l-.9-.7v.1c0 .7-.7 1.3-1.3 1.3-.8 0-1.4-.6-1.4-1.4 0-.8.8-1.4 1.6-1.4 1.7 0 3 1.8 3 3.5" style="fill-rule:evenodd;clip-rule:evenodd"/><path class="st3" d="M329.4 401c0 3-1.6 4.9-4.7 4.9h-2v-9.7h2.4c2.4-.1 4.3 1.6 4.3 4.8zm-13-14.2v-.9H311v.9h2.2v12.7c0 3.7-.9 6.3-4.6 6.3-3.8 0-4.8-2.4-4.8-6.3v-12.7h2.4v-.9h-7.5v.9h2.3v13c0 3.9 1.2 7.1 6.7 7.1s6.7-3.3 6.7-7.2v-12.9h2zm15.9 14.2c0-4.4-3-5.2-6-5.4v-.1c2.4-.4 5.1-1.3 5.1-4.8 0-3.1-1.9-4.8-5.4-4.8h-8.4v.9h2.3v19h-2.3v.9h8.1c3.3 0 6.6-1.2 6.6-5.7zm14.6-.3c0-4.2-2.9-5.4-5.6-6.3-2.2-.8-4.4-1.5-4.4-3.9 0-2.8 1.9-3.8 4.1-3.8 2.6 0 3.9 1.6 4.2 4.9h.9l-.1-4.6c-1.3-.7-3.2-1.2-4.7-1.2-3.7 0-6.4 2-6.4 5.9 0 3.2 2.4 4.7 4.8 5.6 2.5 1 5.1 1.5 5.1 4.6 0 2.8-1.5 4.3-4 4.3-3.1 0-4.8-1.9-5-5.6h-.9l.2 5.3c1.5.8 3.9 1.2 5.6 1.2 3.9-.1 6.2-2.7 6.2-6.4zm-18.3-9.7c0 3-1.7 4.3-3.7 4.3h-2.3v-8.4h2.5c2.3-.1 3.5 1.7 3.5 4.1"/></svg>