<svg version="1.1" id="Layer_1" xmlns="http://www.w3.org/2000/svg" x="0" y="0" width="359.7" height="175" style="enable-background:new 0 0 359.7 175" xml:space="preserve"><style>.st1{fill:#ac1e2d}</style><path d="M150.8 70.2c-42-19.4-81.6-28.7-124.6-42.6-5.2-1.6-9 2.5-8.6 9.4 2.1 36.4 4.2 71.2 6.7 104.7.5 6.3 3.9 11.1 7.5 10.9 30.7-1.8 56.9-.4 87.9-6.1 3.7-.7 7.8-4.6 9.2-8.5 7.3-20.8 16.3-40.2 27.3-57.6 2-3.1-.3-7.8-5.4-10.2zm-49.5 3.1c.8-.4 1.2-.6 2.3-.2 1.1.6 0 2.2 0 2.2s-1.2 1.8-2.2 2c-.8.1-1.8-.3-1.9-1.2 0-1 1.1-2.4 1.8-2.8zm-4.4 23.6s1-11.4 1.2-12.5c.2-1.4.6-1.6.6-1.6s1.4-1.7 2.6-1.4c1 .2.9 1.7.9 1.7l-.7 7.7s-.1 5-.4 5.4c-.3.6-1.2 1.3-2.5 1.8-.3.1-.8.2-1.2 0-.7-.3-.5-1.1-.5-1.1zM77 92.4s1.2-.5 1.8.8c.8 1.6-.5 2.5-.5 2.5l-1.5 1.2s-1.1 1-1.6 1.9c-.5.9-.5 1.1-.7 2.6-.2 1.5-.3 6-.3 6s.3.6-.4 1.9c-.7 1.5-2.4 1.9-2.4 1.9s-1 .3-1.4-.2c-.5-.5-.5-1.3-.5-1.3l.7-12.6s.1-1.7 1.5-2.7c1.1-.7 2.9-.8 2.9-.8l2.4-1.2zm-23.8 37.1s-.4 2-2 2c-1.5 0-1.9-1.3-1.9-1.3L44.1 99s-.1-1.1-.8-.6c-.4.6-3.4 8.3-3.4 8.3s-.9 1.5-2.4.8c-1.5-.6-1.1-1.9-1.1-1.9l6-17.8s.8-1.7 2.5-1.4c1.6.2 2 2.3 2 2.3l4 24s.1.4.3.4c.2 0 .3-.7.3-.7s1.8-12.9 4.2-22.1c.5-2.1 2.7-10.1 4.8-16.1 2.8-8.1 5.9-15.2 5.9-15.2s2.1-4 5.5-1.9c3.2 2.5.6 5.3.6 5.3s-2.9 2.9-4.3 5.6c-3 5.6-6 16.3-7.9 22.5-.3.9-2.9 10.4-5.1 25.4-.6 3.1-2 13.6-2 13.6zm12.2-37.4c-.3.1-.6.3-1.4-.4-.7-.6-.2-1.7.3-2.4.4-.7 2-1.6 2-1.6s1.3-.6 1.6-.2c.4.5.4 1 .4 1s.2.8-.4 1.5c-.7.9-2.1 2-2.5 2.1zm-.5 21.4s0 .7-.5 1.1c-1 .8-1.8 1.3-1.8 1.3s-.4.3-1.3 0c-.6-.3-.6-1.1-.6-1.1s.6-11.8.8-13.1c.3-1.6.7-2.2.7-2.2s1.6-2 3.2-1.9c.8.1.9 1 .9 1.2.5 1.3-1.4 14.7-1.4 14.7zm62-22.4c-.6.2-2.7 1.2-4.1 1.5-.8.1-8.7 4-12.5 6.1-7 3.7-13.4 8-17.4 10.8s-.3 16.2-.4 17.6c0 4.7 1.6 8 1.4 9.8-.1.6-.3 3-3.3 2.6-2.4-.4-2.3-4.1-2.3-4.1l.3-12.2v-10.7c-5.3 3.5-13.2 9.9-17.4 14-2.4 2.5-9.3 10.4-10.6 10.6-.9.1-2 .4-2.9-.6-.4-.4-.9-1.6-.4-2.5 1.5-3 13.1-12.2 14.9-13.9 1.4-1.2 10.4-7.9 16.3-12.2v-2.2c0-.7-.4-.3-.4-.3l-1.6.9s-2.5 1.2-4.5.4c-1.4-.6-1.8-2.4-1.9-3.1-.1-.6-.1-3.8-.1-3.8s-.1-3.6 1.4-7.4c1.5-3.8 5-4.7 5-4.7s.7-.3 1.1.1c.5.5.4 1.2.3 1.6-.1.8-1.1 1.7-1.1 1.7s-.9 1.2-1.3 2.2c-.4 1-1 5.7-1.1 6.6 0 1.6.4 2.2.4 2.2s.3.8 1.7.4c1.3-.4 1.6-1.1 1.8-1.6.3-.6.4-1.4.4-1.4l1.1-12.2s.4-1.7 2.2-1.9c1.6-.2 2 .9 2 1.1.2 1.5-.8 11.7-1 13.2-.1.8-.1 3.1-.2 5.4l.1-.1c4-2.6 17.7-10.5 17.7-10.5l5.2-3s-1.3-.6-1.3-2 .3-9.1.3-9.1.1-.7-.5-1.2c-.5-.3-.9-.3-1.2-.1-.3.2-2 1.7-2.5 2.5s-1 3.4-1.2 5.2c-.1 1.7.1 4.8.1 4.8s-.1.9-.6 1.5-1.8 1.1-1.8 1.1-.8.5-1.6.1-.6-1.4-.6-1.4l.6-11.5s.1-1.4 1-2.4 2.7-1.1 2.7-1.1 1.6.2 2.6-.2c.4-.2.9-.7.9-.7s1.4-1.6 2.7-2.2c.9-.4 1.1-.6 2.4-.2.9.3 1.1 1.2 1.2 1.7.4 5.1-.1 9.9 0 10.7.1 1 .4 1.5.9 1.8.7.4 1.7-.3 1.7-.3l4.2-2.1s2-.6 3.2.8c1.4 1.6-.6 3.2-2 3.9z" style="fill:#dbd9d6"/><path class="st1" d="m70.2 97.1-.7 12.6s0 .7.5 1.3c.5.5 1.4.2 1.4.2s1.7-.5 2.4-1.9c.7-1.3.4-1.9.4-1.9s.1-4.6.3-6c.2-1.5.2-1.7.7-2.6.5-.9 1.6-1.9 1.6-1.9l1.5-1.2s1.3-.9.5-2.5c-.6-1.3-1.8-.8-1.8-.8l-2.4 1.2s-1.8.1-2.9.8c-1.4 1-1.5 2.7-1.5 2.7zM101.4 77.2c1-.1 2.2-2 2.2-2s1.1-1.5 0-2.2c-1.1-.4-1.5-.2-2.3.2-.7.4-1.8 1.7-1.8 2.7 0 1.1 1.1 1.4 1.9 1.3zM68 90c.6-.6.4-1.5.4-1.5s-.1-.6-.4-1c-.3-.4-1.6.2-1.6.2s-1.6.9-2 1.6c-.4.8-1 1.8-.3 2.4.7.7 1.1.5 1.4.4.3-.1 1.7-1.2 2.5-2.1z"/><path class="st1" d="m126 86.2-4.2 2.1s-1 .7-1.7.3c-.5-.3-.8-.8-.9-1.8-.1-.7.4-5.6 0-10.7-.1-.5-.4-1.4-1.2-1.7-1.2-.4-1.4-.3-2.4.2-1.4.6-2.7 2.2-2.7 2.2s-.5.6-.9.7c-1 .4-2.6.2-2.6.2s-1.8 0-2.7 1.1c-.9 1-1 2.4-1 2.4l-.6 11.5s-.1 1 .6 1.4c.7.4 1.6-.1 1.6-.1s1.3-.5 1.8-1.1c.5-.6.6-1.5.6-1.5s-.2-3.1-.1-4.8c.1-1.7.7-4.4 1.2-5.2.5-.8 2.2-2.3 2.5-2.5.3-.2.7-.2 1.2.1.6.5.5 1.2.5 1.2s-.3 7.7-.3 9.1c0 1.3 1.3 2 1.3 2l-5.2 3s-13.8 7.8-17.7 10.5l-.1.1c0-2.3.1-4.6.2-5.4.2-1.6 1.2-11.7 1-13.2 0-.2-.4-1.2-2-1.1-1.8.2-2.2 1.9-2.2 1.9l-1.1 12.2s-.1.8-.4 1.4c-.2.5-.5 1.2-1.8 1.6-1.3.4-1.7-.4-1.7-.4s-.4-.6-.4-2.2c0-.9.7-5.6 1.1-6.6.4-1 1.3-2.2 1.3-2.2s1.1-.9 1.1-1.7c.1-.4.3-1.1-.3-1.6-.4-.4-1.1-.1-1.1-.1s-3.5.9-5 4.7c-1.5 3.8-1.4 7.4-1.4 7.4s0 3.2.1 3.8c.1.6.5 2.5 1.9 3.1 2 .8 4.5-.4 4.5-.4l1.6-.9s.4-.4.4.3v2.2c-5.9 4.3-14.9 10.9-16.3 12.2-1.8 1.6-13.4 10.9-14.9 13.9-.4 1 .1 2.1.4 2.5.8 1 2 .7 2.9.6 1.3-.2 8.1-8.1 10.6-10.6 4.2-4.1 12.1-10.5 17.4-14V123l-.3 12.2s-.2 3.7 2.3 4.1c3 .4 3.3-2 3.3-2.6.2-1.8-1.4-5.1-1.4-9.8 0-1.3.4-17.6.4-17.6 4-2.8 10.4-7.2 17.4-10.8 3.8-2 11.7-5.9 12.5-6.1 1.4-.3 3.5-1.3 4.1-1.5 1.4-.7 3.4-2.3 2.2-4.1-1.4-1.2-3.4-.6-3.4-.6zM65.4 97.6c-1.6-.1-3.2 1.9-3.2 1.9s-.4.6-.7 2.2c-.2 1.3-.8 13.1-.8 13.1s0 .8.6 1.1c.9.3 1.3 0 1.3 0s.9-.5 1.8-1.3c.5-.4.5-1.1.5-1.1s1.9-13.3 1.4-14.7c.1-.2-.1-1.1-.9-1.2z"/><path class="st1" d="M68 68.3c1.4-2.7 4.3-5.6 4.3-5.6s2.6-2.8-.6-5.3c-3.4-2.1-5.5 1.9-5.5 1.9s-3.1 7.1-5.9 15.2c-2.1 6-4.2 13.9-4.8 16.1-2.3 9.2-4.2 22.1-4.2 22.1s-.1.7-.3.7c-.2 0-.3-.4-.3-.4l-4-24s-.3-2.1-2-2.3c-1.6-.3-2.5 1.4-2.5 1.4l-6 17.8s-.3 1.2 1.1 1.9c1.5.6 2.4-.8 2.4-.8s3-7.7 3.4-8.3c.7-.5.8.6.8.6l5.2 31.2s.3 1.3 1.9 1.3c1.6 0 2-2 2-2s1.5-10.5 1.9-13.4c2.1-15 4.8-24.5 5.1-25.4 2-6.4 5-17.2 8-22.7zM97.5 98.1c.4.2.8.1 1.2 0 1.4-.5 2.2-1.2 2.5-1.8.2-.4.4-5.4.4-5.4l.7-7.7s.1-1.6-.9-1.7c-1.2-.3-2.6 1.4-2.6 1.4s-.3.3-.6 1.6C98 85.6 97 97 97 97s-.3.7.5 1.1z"/><path d="M292.6 54.5c.2 1.9-24.5 23.8-38.5 47-9.2 15.1-18.9 30.5-21.4 47.9-.2 1.3-1.2 1.4-2.4.3-9.2-7.8-6.3-16.2 3.4-30.2 9.5-14.5 57.7-74.3 58.9-65zM260.2 30c-7.1-15.1-35.7-16.7-63.7-3.4-11.5 5.4-17.9 9.3-24.7 16.8 0 0-3.6 4.8.5 7s6.2 3 7.2 1.7c5.8-7.3 11.7-14.2 23.1-19.6 23-10.8 46.1-10.1 51.7 1.7 5.6 11.8-8.5 30.2-31.5 41-5.7 2.7-11.3 4.6-16.7 5.9-6.6 1.9-16 3.1-26.4 2.9 5.4-10.2 11.3-19.4 15.4-25.9 5.5-8.7 6.3-10 5.9-11.3-.5-1.6-1.7-1.9-2.2-1.9-1.6-.1-5.4-.4-25.4 35.2-.7 1.2-1.3 2.4-2 3.5-13.1-1.1-27-4.4-38.5-10.9l-.2-.1c-.3.1-1.2.4-1.3 1-.1.6.7 1.1 1 1.2 12.1 7.5 24.5 12 35.7 14.5-8.6 15.9-16.2 31.2-19 37.7-7.4 17-9.1 27.6 3.3 34.6.7.4 1.4.6 2 .7.8.1 1.5-.2 2-.7.4-.4.8-1.1.8-2.3-.8-17.7 5.6-35 11.8-51.8l.9-2.4c1.8-4.8 3.9-9.6 6.2-14.3 10.9 1.6 20.2 1.2 26.3-.1 6.7-1.5 13.7-3.9 20.7-7.2 28.1-13.2 44.2-38.4 37.1-53.5zm8.2 82.1c1-3.3 6.3-9.1 9.7-11.9 3.9-3.1 9.6-3.8 11.4-3 2.5 1.1 2 2.2 2 2.9 0 3.1-4.7 7.2-7.1 9.9-.8 1-1.1 2.1-.6 2.8.9 1.3 4.1 1.4 5.5 1.2 3.3-.3 6.7-4.4 9-7.3 2.2-2.9 2.8-7 1.7-9.5-1.9-4.5-6.9-5.6-11-5.8-8-.2-15.3 3.7-22.5 11.6-3.6 4-8.2 11.8-7.4 15.8.8 4 5.1 4.6 7.5 5.1 4.3.9 9.3 1.4 10.1 5.9.5 3-1.2 7-4.1 10.1-4.8 5-12.7 7.6-16.9 7.3-2.4-.2-4.9-1-5.8-3.2-.9-2.1.3-4.1 1.4-5.2 4.2-5 10.8-3.9 15.2-4.3 1.2 0 2.6-1.5 1-3.6-1.3-1.9-7.1-1.3-9.2-.9-4.9 1-11.5 3.8-14.4 8.1-1.5 2.4-1.8 5.7-.2 8.2 3.8 6.4 12.7 7.4 18.4 6.8 7.8-.9 16.4-4.2 22.3-13.2 2.8-4.3 4.3-11 2.3-14.9-2.8-5.9-9.9-5.8-13.5-6.6-2.4-.3-5.9-2.5-4.8-6.3zm72.3 15.3c-.4-.1-1.2.3-1.4.5-11.3 10.6-15.7 13.4-23.6 14.3-3.1.3-6.2-.5-8.1-2.8-.9-1.1-1.1-3.1-.7-4.9.3-1.5.8-2.5 2.3-4.3 1.7 1.9 7.4 2.2 10.1 1.2 7.5-2.8 13.8-10 17.3-16.2 2.8-5.3 4-9.8 1.5-14-2.5-4.4-7.7-5.9-11.6-5.6-7 .6-13.9 5.7-20 13.5-8.5 11.2-13.5 22.1-11.2 31.2 1.6 6 6.9 9 12.1 9.7 12.4 1.8 18.9-4.6 32.1-17.3 4.2-3.7 2.4-4.9 1.2-5.3zm-27.6-6.5c1.1-1.8 8.9-12.9 13.9-14.6 2-.6 3.9-.1 4.6.6 1.5 1.8.7 4.1 0 5.5-2.5 5.1-7.6 12.3-14 15-2 .8-3.2.6-4.9-.2-1.2-.7-1.9-2.6.4-6.3zm-112 11.9c2.6-1.9-6.1 27.2 10.9 17.5-.6.3.5-.3.9-.7.4-.5.5-1 .5-.9-4-21.6 16.5-46.8 21.1-53.1 1.7-2.3-4.4-1.6-6.6-.2-5.8 3.8-8.6 9.6-22 25-8.6 9.9-12.7 12.7-22.2 17.3-1.4.7-3.8.2-2.4-3.5 2.3-5.9 4.8-10.1 6.9-13.5 5.6-9.1 11.6-13.4 9.9-15.6-1.2-1.6-9.3 1.8-11 3.1-1.7 1.3-4.5 7.1-5.7 9.9-7.8 17.9-26.9 47.8 19.7 14.7z" style="fill:#008ea8"/></svg>