<svg version="1.1" id="Layer_1" xmlns="http://www.w3.org/2000/svg" x="0" y="0" width="225.2" height="230.4" style="enable-background:new 0 0 225.2 230.4" xml:space="preserve"><style>.st0{fill:#0033a1}</style><path class="st0" d="M133.6 77.4c2.3 1.4 4.9 1.8 7.4 2.5 1.2.3 2.4.8 3.5 1.5.5.4 1.1.5 1.7.5.6 0 1.1.1 1.4.6.7 1 1.8 1.4 2.8 2 1 .5 2 1.1 2.9 1.7 1.2.7 1.9 1.7 2.1 3.1.3 2.5.8 4.9.5 7.4-.2 1.8-.4 3.5-.8 5.2-.2 1-.9 1.6-1.5 2.3-.4.5-.8 1.1-.9 1.8-.6 2.3-2.1 3.9-4 5.1-.7.4-1.8.2-2.4-.4-.2-.3-.5-.1-.7-.1-.8.1-1.5 0-2.3-.3-.6-.2-.9-.6-.7-1.2.1-.4-.1-.4-.4-.4-1.8-.1-2.6-1.6-1.9-3.2.1-.2.2-.3.1-.5-.5-1.1-.4-2.2.2-3.2.7-1.4 1.8-2.6 3.2-3.3.4-.2.5-.4.3-.8-.4-.9-.8-1.7-1.5-2.5-.4-.5-.9-.4-1.4-.4-.2 0-.3.1-.3.3 0 1.9-.8 3.5-1.4 5.3-.7 2.1-1.8 4-3.2 5.6-2 2.3-3.4 5.1-4.8 7.8-.3.7-.7 1.3-1.1 1.9-.8 1.2-1 2.4-1.1 3.8 0 1-.1 2-.6 2.9-.2.4-.1.6.3.8 1.2.8 2 1.9 2.7 3 .7 1.1.7 2.1.1 3.2-.4.8-.9 1.5-1.7 2.1-.8.6-1.6 1.4-2.3 2.2-.7.7-.8 1.6-.8 2.6 0 .9 1 1.6 2.2 1.6.7 0 1.5-.2 2.2-.4.2 0 .3-.1.4-.2.9-.8 1.5-.9 2.5-.3.2.1.5.2.6.4.7.7 1.6 1.1 2.6 1 1-.1 2.4 1.4 2.4 2.5 0 .6.1 1 .5 1.4.6.6.8 1.3.4 2.1-.1.3-.2.7-.2 1.1.1 1.6-.8 2.5-2.5 2.4v-.1c.3-.3 1-.5.7-1.1-.2-.7-.8-1-1.5-1.1-.5-.1-1.1-.1-1.6-.1-.2 0-.3-.1-.4-.1v2.4c.1 1.2-.3 2.1-1.4 2.6-.1.1-.2.2-.4.1-.1-.1-.2-.3-.1-.4.2-1.3-.3-1.9-1.5-2.3-.8-.2-1.7-.4-2.4-.9-1.8-1.2-3.9-1.3-5.9-1.7-.4-.1-.8-.1-1.2-.2-.8-.2-1.6-.4-1.9-1.4-.5-2.3-2-4-3.6-5.6-.3-.3-.6-.7-.9-.9-.9-.6-1.1-1.6-1.4-2.5-.1-.3 0-.6.2-.9.5-.5.8-1.2 1.4-1.6.3-.3.7-.6.3-1-.3-.3-.7-.1-1 .1-.3.2-.4.5-.7.7-.9.8-1.9 1.3-3.1 1.3-.7 0-1.5 0-2.2-.1-.2 0-.4 0-.5.3-.8 1.5-2.3 1.7-3.8 1.8-.4 0-.8-.1-1.2-.2-.5 0-.9-.4-1.4.4-.4.6-1.5.4-2.2.2-1.4-.4-2.7-.9-4-1.6-.2-.1-.4-.3-.6-.2v.1c1.2 1.4.6 2.8-.1 4.2-.1.2-.2.3-.2.5-.4 1.1-.2 1.6.9 2 .8.3 1.7.5 2.5.9 1 .4 1.3 1.4 1.5 2.2.1.7.1 1.4-.1 2-.1.2-.1.4-.3.5-1 .8-1.7 2-2.9 2.6-.4.2-.6.3-.7-.3-.1-.6-.4-1.2-.6-1.8-.1-.2-.2-.4-.3-.5-1.2-.7-2.3-1.5-3.5-2.2-.3-.2-.3.1-.4.2-.9 1.1-2 2-3.1 2.9-1.2 1-2.7 1.2-4.2.7-.7-.2-2.1.4-2.4 1.1-.1.2-.1.5-.4.5-.3 0-.4-.3-.5-.5-.2-.5-.4-1-.3-1.5.1-.4-.1-.5-.5-.4-.5.1-.9.1-1.3-.1-.6-.2-.8-.6-1-1.1 0-.2.1-.4-.2-.4-.2 0-.3.2-.4.3-.2.5-.1 1-.1 1.5-1.5-.4-1.8-2.4-.7-4-.3-.2-.7 0-1-.2-.2-.1-.3-.3-.4-.5-.1-.2 0-.7-.4-.6-.4.1-.9.2-1.1.7-.2.5-.2 1-.2 1.5-1.1-.4-1.5-1.2-1.2-2.5.2-1 .5-1.8 1.4-2.3.2-.1.4-.2.5-.5.2-.8.8-1 1.6-1.1 1.4-.1 2.7.4 4 .8 1.7.5 3.4.2 4.9-.7.7-.4 1-1.2 1-1.9 0-.4-.5-.9-.8-1.4-.2-.2-.5-.1-.7-.1-.7.1-1.4 0-2-.4-.2-.1-.4-.1-.7-.1-1 0-1.9-.2-2.5-1-.2-.2-.3-.3-.6-.2-1 .2-1.9-.2-2.8-.7-.2-.1-.4-.2-.7-.2-1.4 0-2.5-.5-3.4-1.5 0 0-.1-.2-.1-.1-1.1.1-1.9-.9-3-.9s-1.8-.7-2.5-1.6c-.2-.2-.3-.4-.5-.5-.9-.2-1.4-.8-1.9-1.5-.2-.2-.3-.4-.7-.5-1.4-.3-2.2-1.2-2.7-2.5-.1-.3-.2-.5-.6-.6-.7-.2-1.3-.6-1.4-1.4 0-.2-.1-.3-.3-.4-1-.2-1.5-.8-1.9-1.7-.5-1-.9-2.1-1.1-3.2 0-.1 0-.3-.2-.4-1-.3-1.3-.9-1.2-1.9.2-1.3.4-2.6 1.1-3.8.4-.7.7-1.4.8-2.2.1-1 .4-1.8 1.3-2.4.1-.1.2-.2.2-.4-.2-1.1.3-1.9 1.1-2.6.4-.4 1-.5.9-1.3 0-.2.2-.4.4-.5.8-.7 1.6-1.3 2.6-1.5.3-.1.3-.3.4-.5.6-.6.4-1.4.6-2.1.1-.4.4-.7-.2-1-.2-.1-.4-.5-.2-.7.6-.8-.6-1.4-.3-2.2-.7-.1-.8-.7-1-1.3h-.3c-.6 0-.7-.2-.7-.8 0-.3 0-.6-.5-.6-.4 0-.4-.5-.5-.8-.1-.8-.3-1.4-1.2-1.9-.9-.5-1.7-1.3-2.7-2.1 1.5-.1 2.7-.6 4-.1.6-.5 1.3.2 2.1-.1 1.1-.5 2.1.4 2.3 1.6 0 .1 0 .3.1.3.6 0 1 .5 1.6.6.9.1 1.4.8 1.5 1.8 0 .5.2.6.7.6 1.1 0 1.7.4 1.7 1.5 0 .2 0 .3.2.3.4.1.8.4 1.1.4.3-.1.4-.7.6-1 .7-1.2 2.1-1.5 3.6-.9.5.2 1 .5 1.5.7.2.1.4.2.5-.1 1.7-2.5 4.4-4 6.7-5.8.9-.7 1.8-1.4 2.6-2.2 3.1-3.4 7-4.8 11.6-4.7h.9c.5 0 .9 0 1.2-.4.2-.3.5-.4.8-.4.4-.1.5-.3.4-.7-.3-1-.4-1.9.3-2.8.6-.8.4-1.3-.4-1.9-1-.7-1-1-.5-2.1.3-.5.3-1 0-1.5-.3-.7-.6-1.3-1-2-.3-.6-.3-1.1.2-1.6.2-.2.3-.4 0-.7-1-.9-1.3-2-.8-3.4.1-.1 0-.2-.1-.4-.9-1.2-.8-2.3.3-3.3l.3-.3c.3-.3.3-.6.2-1-.1-.4-.4-.2-.6-.2-.3 0-.6 0-1-.1-.5-.1-.9-.2-1.1-.7-.1-.5.1-1 .5-1.3.4-.3.4-.6.4-1-.3-4.3 2.1-7.3 5.3-9.6 3.7-2.7 8.1-2.9 12.4-1.9 2.4.5 4.2 2.1 5.4 4.1 1.4 2.5 3.6 4 6.3 4.8.5.2 1.1.4 1.6.6.5.2.6.6.2.9-.3.3-.2.5 0 .7 1 1.2 1.2 2.5 1 3.9 0 .3.1.4.3.5.2.2.4.1.6 0 1.1-.6 2.3-1 3.6-1.1.2 0 .4-.1.6 0 1 .4 2 .2 3-.1 1-.3 2-.2 2.9.3.1.1.2.2.4.1.7-.7 1.6-.5 2.5-.5.5 0 .8-.2 1.1-.6 1-1.5 2.5-2.1 4.3-2.1 1.3.1 2.3.5 2.7 1.9.1.3.3.3.5.3 1.1 0 2.1-.2 3.1.3.3.1.3-.1.5-.3 1.1-1.2 2.2-1.4 3.6-.6.6.3 1 .8 1.2 1.5.4 1.8.3 3.4-1.2 4.6-.6.5-.4 1.2-.3 1.8.1.7.3 1.4.4 2.1.1.8-.2 1.4-.7 1.9-1.1 1.1-2.3 1.4-3.8 1.2-.2 0-.4-.2-.5.1-.8 1.6-2.4 2.4-3.9 3.2-2.1 1.1-4.3 2.2-6.7 2.3-1.9.1-3.4 1-4.9 1.8-1.2 2-3.2 3-5.4 3.8zm-25.2 28c0 .1-.1.1 0 0-.1.1 0 .1 0 0-.3-.6-.5-1.2-.5-1.9 0-.4-.1-.6-.5-.7-3.6-1.3-7.3-2.6-10.9-3.9-2-.7-3.9-1.4-5.9-2.1-.1 1-.1 2 .9 2.6.2.1.3.4.4.6.1.4.3.5.7.6l15.3 4.8c.1.1.3.2.5 0zm-14.7 9.3s0 .1 0 0c0 .1 0 .1 0 0 0 .1 0 0 0 0 0-.8.1-1.5.8-2 .7-.4 1.5-.2 2.4-.1-.6-.8-.4-1.4 0-2 .1-.1.2-.3.3-.5.8-1.5 1.6-2.9 2.3-4.4.6-1.2 0-2.5-1.3-2.9-1.8-.6-3.7-1.2-5.5-1.7-.2-.1-.5-.3-.6 0-.1.3-.2.6.1.9.2.2.5.4.8.5.6.2 1.2.5 1.8.7.5.2.9.5 1.1.9 1.1 1.6 1 3.3-.4 4.7-.2.3-.2.4-.1.7.3.8.2 1.2-.5 1.7-.3.2-.5.4-.8.5-.9.4-1.7.7-2.4 1.6-.7.9-1.9.6-3 .6-.2 0-.5-.1-.7-.1-1.3.4-2.4.2-3.5-.6-1.4-1.2-2.9-2.4-2.3-4.6.1-.2 0-.5-.2-.8-.1.3-.2.5-.3.7-.4-.8-.5-1.6-.8-2.4-.9-2.9-2.2-5.6-3.5-8.2-.1-.2-.2-.4-.4-.5-.9-.4-1.7-.8-2.5-1.2-.3-.1-.4-.1-.5.2-.2.6-.4 1.2-.8 1.7-.2.3-.2.4-.1.7.5.9.3 2-.5 2.7-.2.2-.2.3-.1.6.2.6.2 1.1-.1 1.6-.1.1-.1.2-.1.4.1 1.1-.3 1.8-1.4 2.3-.3.1-.3.2-.3.5.1.5-.1 1.2-.5 1.4-.9.4-.8 1.1-.9 1.7 0 .1 0 .3-.1.4-.1.4-.4.9.1 1.1.5.3.6.6.7 1.1h.1c1-.1 1.5.5 1.8 1.4.6-.7 1.4-.9 2.2-.8.9.1 1.4.8 1.9 1.6.6-.6 1.2-.7 2-.6.9.1 1.6.7 2.2 1.3.3.2.4.2.6 0 .5-.5 1.1-.7 1.9-.6 1.2.1 2 .6 2.5 1.6 1.1-.9 1.1-1 2-1 .7 0 1.5 0 2.1.4.3.2.6.2.8-.2.4-.7 1-1 1.8-1 .8-.2 1.3 0 1.9 0zm25.6-40c.8.2 1.6.2 2.4 0 .5 0 1 0 1.5-.1 3-.5 5.6-1.8 8.3-3.3 1.2-.7 2.4-1.4 3.9-1.2.2 0 .5-.1.5.2 0 .3-.3.3-.5.3-.6 0-1.1 0-1.7.2-1.1.5-2.2 1.2-3.4 1.7-2.7 1.4-5.4 2.6-8.5 2.7-.7 0-1.4-.1-2 .2-.7.4-1.4.7-2.1.9-1.2.4-2.3.9-3.4 1.6 3.9.9 6.4 3.8 9.2 6.3.9-1.9 1.6-3.9 3.1-5.4-1.3.1-2.5-.1-3.7-.3-1.2-.2-2.3-.4-3.4-.9-.2-.1-.5-.2-.4-.5.1-.3.4-.1.6 0 2.7 1 5.5 1.3 8.3 1 4.6-.6 8.9-2.3 12.8-4.7.6-.4 1.2-1 2-1 3.5 0 6.5-1.3 9.5-3 1.3-.8 2.6-1.6 2.9-3.3 0-.2.2-.4.3-.5.2-.2.4-.3.6-.1.3.2-.1.3-.2.5-.4.4-.3.6.2.7.6.1 1.1 0 1.7-.2 1.3-.3 2.1-1.6 2-2.8-.2-2-.6-2.4-2.7-2.5h-2.8c-1 0-2 .2-2.9.6-1.6.7-3.2 1.5-4.3 3.1-.2.4-.7.7-1.1 1-1.2.8-2.5 1.5-3.9 2.1-.6.3-1.2.5-1.8.5-4.2-.1-8.1.9-12.1 2.1-1.9.5-3.7 1.2-5.7 1.1-1.3 0-2.5.2-3.4 1.1-.2.2-.6.3-.9.4-.8.2-1.7.5-2.4.9-2.3 1.5-4.8 1.9-7.4 2.1-1 .1-1.3-.4-.9-1.4.5-1.2 1.2-2.1 2-3.1 1.1-1.3 2.1-2.7 3.4-3.8 2.6-2.3 5.7-3.3 9.1-3.2 4.1 0 8.2-.9 12.2-1.4 2-.2 4-.8 6-.6 1.2.1 2.5.1 3.7 0 .6.2 1.2.1 1.9.1.6.1.5-.2.3-.5-.1-.4-.2-.8-.4-1.2-.1-.2-.1-.4 0-.6.2-.2.4-.1.6-.1.4.1.7.3.9.6.3.4.7.8.9 1.3.2.4.3.4.7.2 1.8-1.1 3.8-1.9 6-1.8 1.5.1 3-.1 4.4.4.1-.5.1-1 .4-1.3 1.3-1.1 1.6-2.4 1.2-4-.2-1-.8-1.5-1.7-1.7-1.1-.3-1.9 0-2.6 1.1-.5.8 0 1.3.4 1.8.1.1.2.2.1.4-.2.2-.3 0-.4 0-.6-.4-.8-1-.8-1.6 0-.4-.2-.5-.5-.7-.7-.2-1.4-.1-2-.2-.5 0-.5.2-.4.5.1.3.2.7.1 1.1 0 .2-.1.3-.3.3-.2 0-.2-.2-.2-.3.1-.8-.4-1.5-.6-2.2-.1-.5-.5-.9-.9-1.1-1.2-.7-2.4-.6-3.5 0-1.4.7-2.4 1.8-2.8 3.4-.2.7-.9 1.6-1.6 1.7-.2 0-.3 0-.3-.1-.1-.1 0-.2.1-.3.1-.1.2-.2.3-.2 1-.3.9-1.3 1.2-2.1 0-.1 0-.2-.2-.2-.7 0-1.5-.1-2.1.4-1.2 1-2.5 1.8-3.4 3-.1.1-.2.3-.4.2-.2-.1-.1-.3-.1-.4.1-.2.2-.3.3-.4.7-.8 1.6-1.5 2.5-2.2-.9-.6-1.8-.3-2.7-.3-.6 0-1.2.2-1.7.5-.9.7-1.9 1.3-2.7 2.2-.1.2-.3.4-.6.2s0-.4.2-.6c.6-.7 1.4-1.3 2.1-1.8.1-.1.3-.1.2-.3 0-.2-.2-.1-.4-.2-.7-.1-1.5 0-2.2.2-1.8.4-3.2 1.6-4.5 2.9-.2.2-.4.4-.6.2-.2-.2.1-.4.2-.5.6-.6 1.1-1.2 1.8-1.7-.2-.3-.5-.4-.7-.4-1.8.1-3.6.2-4.8 1.8-.1.2-.2.4-.5.3-.2-.1-.1-.4 0-.5.3-.5.7-.8 1.1-1.2.1-.1.4-.2.3-.4 0-.2-.2-.4-.4-.4-.5-.1-1-.2-1.6-.1-.7.1-1.3.3-1.6 1.1-.1.2-.2.4-.5.2-.2-.1-.1-.3 0-.5.1-.3.3-.5.5-.7.1-.1.4-.2.3-.4-.1-.2-.3-.3-.5-.3h-1.2c-1.3.1-1.3.1-1.5 1.4 0 .2-.1.4-.1.6-.3 2-1.5 3.3-3.4 3.9-1.1.4-2.2.6-3.3.8-1.4.2-2.5-.1-3.6-1-1.2-1-2.1-2.2-2.7-3.7-.2-.5-.5-.8-1.2-.8-1.4.1-2.8 0-4.2 0-.7 0-1.6.7-1.8 1.4-.2.7.1 1.5.8 1.9.4.2.7.5 1.1.7.2.1.2.2.1.4-.1.1-.2.1-.4 0-.1-.1-.3-.2-.4-.3-.5-.3-.7-.2-.8.4-.1.6 0 1.1.4 1.6.5.5.8 1.1 1.1 1.7.1.1.2.3 0 .4-.1.1-.3.1-.4-.1-.5-.4-.5.1-.6.4 0 .2.1.5.2.7.3.5.6 1 .8 1.6.4 1.4 1.5 1.8 2.7 2.2.2.1.3 0 .4-.2.5-.8 1.2-1.4 1.8-2.1 1.6-1.8 3.5-3.2 5.9-3.7.2-.1.5-.2.6.1.1.3-.2.3-.5.4-1.6.5-3.2 1.2-4.4 2.4-.7.7-1.3 1.4-2 2.1-1.2 1.2-2 2.6-2.3 4.3-.4 2.6 1 4.8 3.5 5.4 2.5.6 4.9.5 7.1-1 .6-.4 1.3-.7 1.9-.9 1-.4 2-.7 3-1.2-.6-.2-1.2-.4-1.7-.7-.2-.1-.5-.2-.4-.5.1-.3.4-.1.6 0 1.3.5 1.9.8 2.5.8zm-44.4 52.9c.1-.5-.1-.9-.4-1.3-.2-.2-.3-.5-.3-.8 0-.1 0-.2.2-.3.1 0 .2 0 .3.1.7 1.1 1 2.2.8 3.5-.3 2 .2 2.9 1.8 3.4 1.4.4 1.6.3 1.3-1.1-.3-1.3-.4-2.6-.4-4 0-.2 0-.4.2-.4s.3.2.3.4v.4c-.1 1.4.2 2.7.5 4 .2 1.1.8 1.8 1.9 2 .7.1.8.1.6-.6-.2-.8-.6-1.6-.5-2.5.1-.7.1-1.5-.6-2-.1-.1-.2-.3-.2-.4 0-.1 0-.3.1-.3h.3c.3.6 1.1 1 1 1.8-.1 1 0 1.9.3 2.9.5 1.4 1.2 1.9 2.7 1.5-.2-.5-.4-1-.7-1.5-.6-1.3-1-2.7-.9-4 .1-1.3.2-2.5.6-3.8.7-2.5 2.4-4.4 4.4-5.9 2.5-1.8 5.5-2.2 8.4-2.7.1 0 .3 0 .3.2.1.2-.1.3-.3.3-.2.1-.4.1-.6.1-1.6.2-3.3.6-4.8 1.2-3.8 1.4-6.3 4-7.2 8-.6 2.9-.2 5.6 1.4 8.2.3.4.4 1 .7 1.2.6.4.6.7.2 1.2-.3.4-.3 1.1-.8 1.4-1.5 1.2-3.3 1.6-5.2 1.2-1-.2-2-.6-3-.9-.6-.2-1.3-.1-1.9.1-.3.1-.5.2-.5.5s.3.2.5.3c1 .5 1.4 1.7.7 2.5-.2.2-.5.4-.3.7.2.3.5.4.8.4.4-.1.3-.4.3-.7 0-.5.3-.8.8-.9.4-.2.9 0 1.3.1 1.3.3 2.6.6 3.9.1.8-.3 1.6-.5 2.3-1 .2-.1.4-.1.5 0 .1.2-.1.3-.2.4-.1.1-.2.1-.3.2-2.1 1.1-4.2 1.5-6.4.7-.3-.1-.6-.1-.9 0-.4.2-.4.6-.3 1 .1.3.4 0 .6 0 .5 0 .9-.1 1.3.4.5.6.3 1.8-.3 2.4-.2.1-.3.3-.2.5.2.4.5.6.9.7.5.1.9-.1 1.4-.2l.1-.2c0-.8.5-1.3 1.1-1.7 1.1-.8 2.3-1.2 3.6-1.2.4 0 .7-.2 1-.4.5-.4.7-.9.9-1.5.1-.1.2-.3.4-.2.2.1.1.2.1.4-.1.9-1.2 2.3-2.3 2.3-1.3 0-2.4.5-3.5 1.2-.4.3-.6.6-.7 1.1.4-.2.6-.4.9-.5.9-.4 1.8-.3 2.6.3.7.5.5 1.1.3 1.8 1 0 2 0 2.8-.7.8-.7 1.7-1.4 2.5-2.2.5-.5 1.2-.9.9-1.8 0-.1 0-.3.2-.3s.3.1.3.3c0 .4.3.6.5.7.9.6 1.8 1.1 2.7 1.7.4.3.6.4.8-.2.2-.8 1.4-1.7 2.1-1.7.6 0 1.6.6 2 1.6.1-.2.2-.4.2-.7.1-1.5-.8-2.5-2.4-3-.7-.2-1.4-.4-2.1-.7-.4-.1-.6-.4-.7-.7-.1-.6 0-1.2.3-1.8.4-.7.6-1.5.9-2.2.1-.3.1-.6-.1-.9-.2-.4-.5-.8-.8-1.2-.8-1.2-.8-2.5 0-3.7.7-.9 1.5-1.6 2.2-2.5.2-.2.5-.6.8-.3.3.3-.2.5-.4.7-.4.4-.4.6.1.8 2.8 1.4 5.7 2.7 8.8 3.3 1.1.2 2.1.7 3.2.6.9.2 1.7.2 2.6 0 .9-.2 1.6-.6 2.1-1.4-.8-.1-1.7 0-2.5-.1-3.6-.5-7-1.5-10.3-3-.6-.3-1.3-.5-1.9-.8-.2-.1-.4-.2-.3-.4.1-.3.3-.1.5-.1.1 0 .2.1.3.1 1.1.6 2.2 1 3.3 1.4 3.4 1.3 6.9 2.3 10.6 2.4 1.3 0 2-.6 3-1.4h-.5c-.9 0-1.9.1-2.8-.1-2.1-.3-4.1-.8-6.1-1.3-2.7-.6-5.1-1.9-7.5-3.2-.2-.1-.4-.2-.3-.4.1-.3.4-.1.6 0 .1.1.2.1.4.2 1.4.7 2.7 1.5 4.2 2.1 2.6.9 5.3 1.6 8 2 2.3.3 4.5.4 6.6-.6 1.2-.6 2.4-1.3 2.9-2.7.1-.2.1-.6.4-.5.4.2.1.5 0 .8-.4.9-1.1 1.6-1.9 2.1-1.4.9-2.9 1.5-4.2 2.6-.2.1-.4.2-.3.5.4 1.1.3 1.1-.5 1.9-.5.5-1.3 1-1.2 1.9.1.8.3 1.5 1 2.1 2.1 2 4.1 4 4.8 6.9.1.6.6.8 1.2.9.8.1 1.6.3 2.4.4 1.9.3 3.7.7 5.4 1.7.5.3 1.1.4 1.7.6.2.1.4.2.5-.1.2-.5.5-.9 1.1-.9.5-.1 1-.1 1.4.2.1-1.6-.8-2.3-2.1-2.8-.4-.2-.9-.2-1.3-.2-.9-.1-1.7-.2-2.3-1-.1-.1-.2-.3-.1-.4.1-.1.3-.1.4.1.6.8 1.4.8 2.3.9 1.2.1 2.2.5 3 1.4.6.7 2 1.1 2.9.8.1 0 .2-.1.3-.2.8-1.1 1.4-1.2 2.5-.5.5-1.2-.7-3-2-3.2-.5-.1-.9-.1-1.4-.2-1.7-.3-3.3.1-5-.3-.2 0-.5 0-.5-.3s.3-.2.5-.2c2.5.2 5.1 0 7.5.8-.1-1.1-1.3-2.2-2.3-2.1-.9.1-1.8.1-2.7.3-1.2.3-2.4.4-3.7.6-.2 0-.5.2-.6-.2 0-.3.3-.3.6-.4 1.1-.2 2.2-.4 3.2-.6.4-.1 1 0 1-.3 0-.4-.5-.6-.9-.8-.5-.3-1.3-.7-1.7-.2-.6.7-1.4.7-2.2.9-1 .2-2 .2-2.9-.3-.5-.3-.9-.7-.9-1.3-.1-1.2.1-2.4 1-3.3.2-.2.3-.4.5-.7-.5-.1-.9.1-1.2-.2-.3-.4-.5-.3-.8 0-.8.8-1.8.6-2.1-.5 0-.1 0-.3-.2-.2-.6.2-1.3.1-1.9.5-.3.2-.5.4-.3.7.3.5.8.3 1.2.4.3.1.4-.1.5-.3.2-.5.5-.4.7 0 .1.1.2.2.2.3.3.4.7.6 1.1.8.3.2.5-.1.8-.3.1-.1.2 0 .2 0 .1.1.1.2 0 .3-.1.4-.8.7-1.2.5-.5-.2-.9-.5-1.2-.9-.1-.1-.2-.3-.5-.2-.6.3-1.3.1-1.9-.1-.5-.1-.8-.6-.7-1 .2-.5.2-.9-.5-.9-.2 0-.4-.3-.3-.5.2-.3.4 0 .5.1.9.5 1.8.3 2.8 0-.4-.2-.6-.7-.9-.7-.6 0-.8-.5-1.1-.8-.1-.1-.2-.2-.1-.4.1-.1.3-.2.4 0 .3.5.9.6 1.4.9.4.3.6.4 1 .1.1-.1.3-.2.4.1.1.2 0 .3-.1.4-.2.1-.4.2-.4.4 0 .7.8 1.1 1.4.8.2-.1.3-.3.5-.5s.4-.4.6-.2c.4.4.9.5 1.3.7.3.2.4.1.7-.1l.6-.6c.9-.7 1.7-1.5 2.1-2.5.3-.6.5-1.2.2-1.9-.6-1.3-1.4-2.4-2.5-3.3-.7-.5-.7-.5-1.2.2-.1.1-.2.2-.3.4-.1.1-.3.3-.5.1-.2-.2 0-.4.1-.5 1-1.4 1.5-2.8 1.5-4.5 0-.1.1-.3-.1-.4-.2-.1-.3.1-.4.2-.8.6-1.6 1.2-2.4 1.7-1.5.9-3.2 1.2-4.9 1.6-2.4.5-4.8.8-7.2.7-2.9-.2-5.6-.9-8.2-2-3.7-1.6-6.6-4-8.5-7.6-.3-.6-1.5-1.1-2.2-.8-.6.2-1 1-.8 1.8 0 .3.3.5 0 .8-.3.2-.4-.1-.7-.2-.9-.5-2.4-.6-3 .3-.6.9-.6.9-1.7.4-1.3-.6-2.6-.5-3.3.5-.5.7-1.2 1.3-1.8 1.9-.5.5-.9 1-1.2 1.6-.3.5-.5 1.1-1.1 1.3-.7.3-.9.9-.6 1.6.1.3.4.5.7.8.1.1.3.3.2.5-.2.2-.3 0-.5-.1-.8-.4-1.2-1.7-.9-2.6.1-.3.3-.4.5-.5.4-.2.8-.3 1-.7.6-1.3 1.5-2.3 2.6-3.1.4-.3.4-.6.1-1-.8-1.2-2.6-1.4-3.6-.4-.6.6-1 1.4-1.6 2.1-1 1.3-1.9 2.7-3.4 3.5-.2.1-.2.2-.2.4-.1.9.1 2.1 1.2 2.4.2 0 .3.1.3.3-.1.2-.2.2-.4.2-.4-.1-.7-.2-1-.6-.5-.7-.6-1.4-.6-2.2 0-.7.5-.9 1-1.3 1.5-1.1 2.5-2.7 3.6-4.2.2-.2.3-.5 0-.7-.5-.4-.9-.9-1.5-1.1-1-.3-1.9-.2-2.3 1-.4 1.1-1.1 2.1-1.7 3-.2.2-.4.5-.7.6-.5.1-.9.5-1.3.8-.3.2-.4.4-.3.7.1.5.2 1 .6 1.3.1.1.3.3.1.5-.2.2-.4.1-.5-.1-.6-.5-.6-1.1-.7-1.8-.1-.4.1-.8.5-1 1.2-.7 2.3-1.5 2.9-2.8.2-.6.8-1.1.7-1.7-.2-1-1.2-1.7-2.1-1.5-1 .2-1.5.8-1.9 1.5-.7 1.5-2 2.6-3.1 3.8-.1.1-.3.3-.5.2-.6-.2-.5.2-.5.5 0 .4.1.7.3 1 .1.2.4.3.1.5-.2.1-.4 0-.5-.2-.4-.5-.5-1-.5-1.6 0-.3.2-.9.6-.9.6.1.8-.3 1.2-.6 1.1-.9 1.9-1.9 2.6-3.2.3-.6.3-1.1-.2-1.5-.5-.4-1-.4-1.6.1-.4.4-.8.8-1.4 1-1.5.4-2.4 1.4-3.4 2.5-.5.6-.5 2.3 0 2.9.1.1.2.3.1.4-.1.1-.3.1-.5 0-.3-.2-.5-.4-.5-.7 0-1.3-.2-2.7 1-3.7.8-.7 1.6-1.5 2.6-1.8.8-.2 1.3-.8 1.8-1.3.2-.3.3-.7-.2-.8-1.2-.2-2.5-.7-3.6.5-.1.1-.2.2-.4.2-.5 0-.9.3-1 .7-.5 1.3-1.8 2-2.1 3.4 0 .1-.1.2-.3.2-.1 0-.2-.1-.1-.3.1-.4 0-.8.4-1.2.4-.4.9-.9 1.2-1.5.4-.8.8-1.8 2-1.9.1 0 .2-.1.2-.2.3-.4.7-.5 1.1-.5.6 0 1.2-.2 1.8-.1-.8-.7-1.4-1.4-1.9-2.3-.5-.7-1-.9-1.8-.5-.6.2-1.1.3-1.5-.4-.2-.3-.4-.4-.7-.2-.2.1-.4.2-.6.2-.7 0-1.1.3-1.4.9-.3.5-.8.8-1.3 1.1-1.3.7-2.7 1.3-2.9 3 0 .2-.1.3-.2.4-.5.7-.4 1.5-.3 2.3.1.8.5 1.5.7 2.2.3.8.6 1.5 1.3 2 .1.1.2.2.4.1s.1-.2 0-.4c0-.5 0-1-.1-1.5-.1-.9.4-1.5 1.1-2 .1-.1.3-.3.5-.1.2.2 0 .3-.1.5-.3.3-.7.6-.8 1-.3 1.3.1 2.5.4 3.7.1.4.6.7 1 .6.5-.1.3-.6.3-.9 0-.9.2-1.8.3-2.7 0-.2.1-.5.4-.5.3 0 .2.3.2.6-.3 1.2-.3 2.4-.4 3.5-.1 1.2 1 2.8 2.2 3-.1-.4-.2-.7-.3-1.1-.3-1.1-.2-2.3-.2-3.5 0-.1.1-.4.3-.3.2 0 .2.2.2.4v1c-.1 1.9.5 3.6 1.7 5 .2.3.5.5 1 .7-.6-1.3-.7-2.6-.7-3.9 0-.2-.1-.6.2-.6.4 0 .3.4.3.6v.6c0 1.4.4 2.8 1.2 4 .5.8 1.3 1.4 2.4 1.5-.3-.7-.8-1.1-.9-1.7-.2-1.3-.4-2.7-.3-4 0-.2 0-.5.3-.5s.2.3.2.5c0 1.2 0 2.4.3 3.6.3 1.2.9 2.1 2 2.7.2.1.4.3.7.2v-.1c-.1-.1-.1-.3-.2-.4-.7-1.5-.5-3-.4-4.6 0-.2.1-.3.3-.3.2 0 .2.2.2.3v.6c-.1 1.2-.2 2.4.3 3.6.6 1.4 1.6 2.3 3.1 2.6.6.1.6-.1.4-.5v-1c.1-.8.3-1.6 0-2.4zm6.4-36c1.2-1 2.9-1 4.1-.2 1.2.8 2 2 3.3 2.7.6.3 1.1.6 1.5 1.1.1.1.2.2.4.1.9-.6 2-.7 3.1-.7.5 0 1-.1 1.3-.4.8-.8 1.8-.7 2.7-.9.2 0 .5-.1.5.2 0 .3-.3.2-.5.3-.5.1-1.1.2-1.6.3-.4.1-.6.3-.6.8-.1 1.3-.1 1.3 1.2 1.7.2.1.4.2.6.2 2.7.8 5.4 1.6 8 2.3 1.8.5 3.5 1.1 5.4 1.4 1.5.3 2.4 1.2 2.7 2.7.3 1.3-.8 3.1-1.9 3.2-.9.1-1.7.1-2.6-.2-2.9-.9-5.7-1.8-8.6-2.8-.2 0-.3-.1-.5 0-.1.1 0 .3.1.4.3.9.2 1.7-.2 2.5-.8 1.6-1.7 3.2-2.5 4.7-.2.4-.2.8-.1 1.2 1.3 2.7 3 5.1 5.5 6.8 2.9 1.9 6 3.2 9.5 3.7 3.2.5 6.4.2 9.5-.6 2.5-.6 4.9-1.4 6.8-3.2.5-.5 1.1-.9 1.2-1.6.1-.5.3-1 .5-1.5.7-1.3 1.6-2.6 2.2-3.9 1-2.1 2.2-4.2 3.7-6 2.6-3 4-6.5 4.7-10.3.4-2.5 0-4.9-2-6.8-.4-.4-.6-.8-.8-1.3-.1-.1-.2-.4.1-.5.2-.1.3.1.3.3.2.6.6 1 1 1.4 1.2 1.4 1.9 2.9 1.8 4.8 0 .5.1.7.7.6.4-.1.8 0 1.2.3.2-.9.8-1.5 1.5-2 .6-.4.9-.9.8-1.7 0-.4.1-.7.4-1 .5-.5.8-1 1-1.7.2-.6.7-1 1.3-1.2.2 0 .4-.1.5.1 0 .2-.2.3-.3.3-.7.2-1 .7-1.2 1.3-.1.4-.3.7-.6 1-.5.5-.8 1-.6 1.7.6-.2 1.2-.5 1.7-1 .8-.8 1.8-1.2 2.9-1.4.2 0 .5-.1.6.2 0 .3-.3.3-.5.3-.7 0-1.4.3-2 .7-1.3 1.2-2.9 1.8-4.2 3-.7.7-1.1 1.5-.4 2.4.4.5.6 1.1.9 1.7.1.3.2.4.6.5 2 .3 3.8 1.1 5.4 2.4 1.1.9 2.3 1.2 3.6 1.6.4.1.6-.1.7-.5.3-1.6.5-3.2.7-4.8.3-2.8-.3-5.5-.8-8.2-.1-.5-.3-.8-.7-1.1-1.6-1.3-3.5-2.2-5.4-3.2-.5-.3-.9-.6-1.2-1.1-.3-.5-.8-.7-1.3-.7-.5-.1-1.1 0-1.6-.4-1.4-1-3-1.6-4.7-2-2-.5-4-.8-5.8-1.9-.6-.3-1.3-.6-2-.3-1 .4-2.1.6-3.1.7-1.5.1-2.3 1.1-3 2.2-.9 1.3-1.5 2.8-2.1 4.2-.2.4-.3.5-.6.1-.9-1.1-1.9-2.1-3-3-1.7-1.3-3.2-2.8-5.3-3.3-.7-.2-1.3-.2-1.9 0-1.9.6-3.9.6-5.8.2-1.1-.2-2.1-.8-3.4-.7-2.6.2-5.2-.3-7.8.1-2.5.3-4.9.9-6.9 2.7-2.3 2-4.5 4.1-7 5.8-1.4 1-2.9 2-3.9 3.4-.5.7-1.2 1.3-1.3 2.2-.2 2.1.2 4.1 1.2 6 .9 1.7 1.8 3.4 2.4 5.3.3 1.1.8 2.1 1.1 3.2.3-.1.3-.3.4-.5 2-3.3 4.9-5.1 8.8-5.2.8 0 1.1-.3.7-1-.4-.8-.9-1.6-1.5-2.1-1.1-1-2.6-1.5-4.2-1.7-1.1-.1-2.1.1-3 .8-.2.1-.3.5-.5.2-.2-.2.1-.5.2-.6.1-.1.3-.2.5-.3 1.7-.9 3.4-.6 5.1 0 .6.2 1.2.6 1.8.9.1.1.3.2.4 0 .2-.5-.1-1.8-.5-2.1-1.2-.9-2.4-1.8-3.9-2.2-.8-.3-1.7-.3-2.5.1-.1.1-.3.3-.5.1-.1-.2.1-.5.3-.5.7-.2 1.5-.5 2.3-.2.2.1.5.2.7.1-1.7-1.3-3.4-1.3-5.2-.7zm40.2-38.4c-.4-.2-.6-.4-.9-.5-1.3-.7-2.3-1.7-3.1-2.9-.4-.7-.8-1.5-1.2-2.3-.9-1.6-1.8-3.1-3.4-4.2-1.7-1.2-3.8-1.5-5.8-1.6-.8 0-1.6.2-2.4.6-1.7.9-2.9 2.2-4 3.7-1.4 1.9-2.2 3.9-1.9 6.2.1.4.2.7.6.7.5 0 1.1.2 1.6.2 2.8 0 5.5.2 8.3-.1.7-.1.9-.3.9-1 0-.2-.1-.4-.2-.6-.3-.4-.6-.8-.9-1.1-.1-.1-.2-.2-.1-.4.1-.1.3-.1.4 0 .7.6 1.4 1.3 1.3 2.3-.1.6.2.6.7.6.2 0 .7-.3.7.1 0 .3-.5.2-.7.3h-.1c-3.4.3-6.7.5-10.1.2-.8-.1-1.6.1-2.3-.3-.2-.1-.4-.2-.6 0-.2.2-.5.5-.4.8 0 .3.3.4.6.4.2 0 .4 0 .6.1 1.7.2 3.3.1 5 0 2.1-.1 4.1 0 6.2-.1 2.8-.2 5.6-.5 8.4-.8.9.1 1.8.1 2.8-.3zm-39 56.4c-.2.5.1 1 .5 1.4.4.4.8.9 1.2 1.3.8.7 1.7 1.4 2.9 1.2.1 0 .3 0 .3-.2s-.1-.3-.2-.3c-.6-.3-.7-1.1-1.4-1.3-.2-.1-.3-.3-.2-.4.1-.2.3-.1.5 0 .3.2.6.4.8.8.8 1.3 2.3 1.8 3.8 1.3.4-.1.8-.4.9-.9.1-.2.2-.3-.1-.4-1.3-.4-2.1-1.8-3.4-2.3-.2-.1-.5-.3-.3-.6.1-.2.4 0 .6.1.7.4 1.3.8 1.9 1.4 2 1.7 2.6 1.2 4.2.1.6-.4.5-.9-.1-1.4-.4-.3-.8-.3-1.2-.4-.9-.3-1.7-.6-2-1.6-.2-.7-.3-1.5.3-2.1.1-.1.3-.3.5-.2.2.1.1.3 0 .5-.2.2-.3.5-.3.8-.1 1.1.4 1.8 1.6 2.1.6.1 1.3.5 1.9-.1 1.6-1.8.7-4.6-1.3-5-.8-.2-1.6-.4-2.2-1-.5-.5-1.1-.6-1.6-.5-3.3.4-5.8 2-7.6 4.8-.1.2-.3.4-.2.6.5.6.1 1.4.2 2.3zm58.3-6.1c0 .3 0 .5.1.8 0 .3.2.5.5.2 1-.8 2.3-1.3 3.2-2.2.2-.2.4-.4.6-.1.2.2-.1.4-.2.5-.7.7-1.6 1.2-2.5 1.7-.5.3-1 .5-1.3.9-.5.5-.5 1.8 0 2.3.6.6 2 .7 2.6.1.6-.6 1.2-1 1.7-1.7.1-.2.3-.3.5-.2.2.2 0 .4-.1.5-.7.7-1.4 1.5-2.2 2-.3.2-.5.5-.5.8 0 .4.4.5.6.6.3.2.6.2.9.2 1.5.2 2.4-.8 3.3-1.8.2-.2.3-.5.6-.3s0 .5-.1.7c-.4.5-.9.9-1.4 1.3-.4.2-.3.5 0 .7.5.2 1 .3 1.5 0 1.5-1 2.8-2.2 3.5-4 .3-.9.9-1.8.5-2.9-.3-.8-.7-1.5-1.3-2.1-1.4-1.6-3.2-2.5-5.1-3.2-.6-.2-1.2-.2-1.7.1-1.2.6-2.2 1.6-2.9 2.7-.5.9-.9 1.6-.8 2.4zm-33.4-62.3c.5.1 1 .1 1.5.2 2.5.3 4.7 1.3 6.3 3.4.9 1.1 1.6 2.4 2.2 3.7 1 2.1 2.6 3.5 4.7 4.5.3.2.7.2 1.1.1 1.2-.2 2.3-.5 3.4-1 .8-.4 1.7-.7 2.5-1.1.2-.1.3-.2.4-.4 0-.2-.2-.2-.3-.2-.4-.2-.8-.4-1.1-.5-3.1-.8-5.4-2.5-7-5.3-.6-1-1.4-1.8-2.4-2.5-2.7-1.8-5.8-1.7-8.8-1.5-1 0-1.8.1-2.5.6zm-52.7 73.7c.1-1.2.9-2 1.1-3.1 0-.3.2-.5.4-.7.8-.6 1.6-1.3 2.6-1.7.4-.1.6-.4.9-.7.3-.5.6-1.1 1.2-1.2.5-.1 1-.2 1.5-.4.4-.2.7 0 .9.3.3.6.7.6 1.2.3.4-.2.7-.2 1.1-.1.9.3 1.2 1.1 1.8 1.7.3.4.7 1.1 1.1.9.5-.3.4-1.1.2-1.6-.3-1-1.1-1.7-1.8-2.4-.2-.2-.5-.3-.8 0-.2.1-.4.3-.5 0-.1-.2 0-.5.2-.6.5-.3 1.1-.2 1.4.2.5.5 1.2 1 1.5 1.7.2.3.3.7.8.4.4-.3.6-1.1.3-1.4-.7-.6-1.1-1.3-1.6-2-.3-.4-.6-.5-1-.3s-.7.3-1.1.4c-.3.1-.5 0-.4-.4.1-.3.1-.5-.1-.8-.6-.8-1.3-1.4-2-2.1-.4-.4-1-.5-1.6-.5-1 .1-2 .6-2.9 1.1-.9.5-1.6 1.2-1.6 2.5.7-.3 1.2-.8 1.8-1 1.1-.4 1.8.5 2.7.7 1 .2 2 1 2.7 2 .1.2.3.4.1.5-.2.1-.4 0-.5-.2-1-1.5-2.8-1.7-4.3-2.5-.1-.1-.3 0-.4 0-1.6.7-3 1.5-3.5 3.3 0 .1-.1.3.1.4.2.1.2-.1.3-.1.6-.3 1.1-1 1.9-.8.2 0 .3-.2.4-.3.3-.6 1-.8 1.6-.9.6-.1 1.2-.2 1.6.5.1.2.1.3 0 .4-.1.1-.3.1-.4-.1-.2-.3-.4-.3-.8-.3-.7 0-1.2.2-1.6.8-.2.3-.4.7-.8.6-.5-.1-.7.1-1 .3-1.8 1.3-2.7 3.1-3.1 5.2-.2.5-.3 1.3.4 2zM63 98.1c.1.2.3.2.5.2 1-.1 1.6.3 2.1 1.1.4.5.6.9.8 1.5.3.9 1 1.4 1.7 1.3.7-.1 1.3 0 1.9.3.5.2.9.5 1.4.8.4.2.5.1.6-.3.2-.6-.1-1.4-.7-1.7-.6-.4-1.2-.4-1.8-.3-.2 0-.4.1-.5-.2-.1-.3.2-.3.4-.3.7-.1 1.4-.1 2 .3.3.2.6.3.8 0 .3-.5.5-.9.4-1.5-.1-.4-.3-.6-.7-.5-.4.1-.9.2-1.3.2-.9.2-1.3-.3-1-1.2.1-.3.3-.6 0-.8-.5-.4-.8-1-1.2-1.4-.3-.3-.6-.6-1-.3-.4.2-.8.3-1.3.4-.6.1-1.1.4-1.6.7-.2.1-.3.2-.5 0-.1-.1 0-.3.1-.4.7-.3 1.2-.9 2.1-.9.3 0 .6-.1.8-.2.6-.4 1.2-.3 1.7.2.3.3.5.8.8 1.1.6.5.8 1.1.5 1.9-.1.3.1.5.3.4.6-.2 1.3 0 1.8-.5.6-.4.7-1.1 1-1.6.2-.3.1-.5-.2-.6-.6-.1-1.1-.3-1.7-.5-1-.4-1.2-.8-1.1-1.8 0-.2.1-.4.1-.5.1-.9.1-1-.8-1.1-.4-.1-.4-.2-.4-.5v-.6c0-.8-.8-.5-1.2-.7-.3-.1-.6 0-.7.4-.2.7-.8 1.1-1.3 1.5-.3.2-.6.5-.7.8-.3.6-.6 1.2-1.4 1.2-.3 0-.7.4-.5.8.1.4.5.3.8.2.3-.1.5-.3.7-.5.4-.4.7-.9 1.3-1.1.6-.1 1-.6 1.4-1 .7-.9 1.1-.9 1.9 0 .2.2.4.5.6.7.1.1.1.3 0 .4-.2.1-.3 0-.4-.1-.2-.3-.5-.6-.7-.8-.3-.3-.5-.4-.8 0-.3.5-.7 1-1.3 1.2-.5.1-.8.4-1.2.8-.4.4-.8.8-1.3 1-.3.1-.6.4-.7.7-.1.2-.3.5 0 .7.2.2.5.1.7 0 1.5-.5 2.6-.2 3.5 1.1.4.5.8 1 1.4 1.4.2.1.4.2.2.5-.2.2-.4.1-.6 0-.5-.4-1-.8-1.3-1.3-1.1-2-3-1.7-4.4-.6zm46.4 2.6c-1.6-.5-3.2-.9-4.7-1.3-3.2-.9-6.5-1.8-9.6-2.9-1.1-.4-2.3-.7-3.4-1.1-.5-.1-1.1.2-1.1.6-.1.6.4.4.7.5 2.2.8 4.3 1.6 6.5 2.3 3.3 1.2 6.6 2.4 9.8 3.5.2.1.3.2.4-.1.2-.6.7-1.1 1.4-1.5zm-3.3 34.1c.9-.2 1.9-.4 2.7-1 .2-.1.4-.3.3-.6-.1-.2-.3-.2-.5-.3-1-.2-2-.4-2.9-.7-2.5-.7-4.9-1.6-7.2-2.9-.6-.4-1-.4-1.5.2-.3.4-.3.5.1.8 1.7 1.2 3.5 2.5 5.3 3.5 1.1.6 2.3.8 3.7 1zm18.2-79.6c-.3-.4-.7-.8-.8-1.2-.1-.5-.3-.5-.7-.4-1.1.3-2.3.4-3.4.5-.6.1-1.1.2-.9 1 .1.4 0 .8 0 1.2-.1 1.7-1 2.8-2.4 3.5-1.1.5-2.2.8-3.4 1.1-1.1.2-2-.1-2.7-.9-.8-.8-1.3-1.8-1.9-2.7-.4-.6-1.2-1.3-.2-2.1-2.4-.1-4.7 0-6.9.1-.2 0-.4.1-.4.4 0 .4.3.3.5.3 1.7 0 3.3 0 5 .1.4 0 .5.1.7.5.6 1.7 1.6 3.2 3.1 4.2.6.4 1.3.7 2 .7 1.9-.2 3.8-.7 5.5-1.6.4-.2.6-.5.9-.9.6-1 .8-2.1 1-3.3.1-.6.3-1 1-.9.4 0 .8-.1 1.2-.2.7-.1 1.5-.2 2.1.4 0 .3.3.3.7.2zm-58 48.8c.2-.1.4-.2.5-.2.9-.4 1.2-.3 1.8.5.3.5.6.9 1 1.3.1.2.3.4.6.3.5-.1 1.4-.8 1.5-1.3.1-.3.1-.5-.3-.7-.6-.3-1.1-.7-1.7-1-.5-.3-1-.4-1.6-.2-.6.2-1 0-1.4-.4-.4-.4-.7-.9-.8-1.4-.5-1.7-1.5-2.3-3.2-1.8-.2.1-.5.1-.7.2-.9.4-1.7.9-2.4 1.7.8-.1 1.5-.5 2.3-.6.9-.2 1.6.1 2.2.7.3.3.6.5.8.8.4.6 1.2 1.1 1.4 2.1zm10.5-7.2c-.1-.6-.3-1.1-.3-1.5.1-1.3-.6-1.9-1.7-2.4-1.1-.4-2.2-.8-3.3-.7-.3 0-.5.2-.5.5-.1.3-.1.6-.1.9-.1.6.1.9.7 1.1 1.7.6 3.5 1.1 5.2 2.1zm25.2 38.5c.6 0 .9-.1.9-.3 0-.4-.3-.5-.6-.6-1.9-1-3.7-2.2-5.4-3.5-.7-.6-.7-.5-.9.4-.1.2-.2.5-.3.7-.2.5 0 1.2.5 1.3.9.2 1.6.7 2.4 1 1.1.3 2.2.9 3.4 1zm-38.2-42c.2.1.5 0 .6-.3.3-1 1.2-1.4 1.9-2.1 1.2-1.1.6-2.9-.5-3.3-.3-.1-.5-.1-.6.3-.2.7-1 1-1.1 1.7-1.1.6-1.1 1.7-1.3 2.7-.1.6.3 1 1 1zm37-15.7c1 .2 2.1.1 3.1.1.3 0 .3-.2.2-.5-.3-.8-.8-1.5-.9-2.3-.3-1.5 0-3 .6-4.3.2-.4.1-.5-.3-.6-.5-.1-1-.3-1.4-.6-.5-.4-.6-.2-.9.2-.4.6-.1.9.4 1.2 1.1.6 1.3 1.8.6 2.9-.5.7-.5 1.3-.2 2.1.3.9.1 1.2-.7 1.4-.3.1-.4.1-.5.4zm7.7 25c.4 0 .8 0 1.1-.3.2-.2.5-.3.8-.2.6.2 1.2.4 1.7.8.3.2.7.4.6.9-.2.5-.4.9-1 1-.8.2-1.5.1-2.2-.4-.2-.1-.3-.2-.5-.2-.5-.1-.6.1-.4.5.2.6.5 1.2 1.2 1.3.9.1 1.8.3 2.5-.5 1.1-1.2 1-2.7-.1-3.8-1.5-1.4-3.6-.5-3.7.9zm-11.2 45.8c.4-.2.6-.4.9-.6.7-.4 1.1-1 1.4-1.6.3-.5.4-1.1 0-1.5-.4-.4-.8-.9-1.4-.7-1.1.3-2 1.3-1.5 2.8.2.5.4 1 .6 1.6zM76.4 93.2v-1.1c0-.4.5-.8.2-1.1-.3-.3-.8-.4-1.2-.6-.2-.1-.5-.2-.8-.3-1.3-.4-2.4.1-2.9 1.2-.1.3-.1.5.3.5.7 0 1.4.2 2.1.4.8.3 1.5.7 2.3 1zm-15.6-3.4c.1.3 0 .6.3.7.2 0 .5 0 .6-.3 0 0 0-.1.1-.1.8-1.1 1-2.5 1.8-3.7.1-.1 0-.3 0-.4-.1-.5-.9-1.1-1.4-1.1-.1 0-.4.1-.4.1 0 .6-.6.9-.6 1.5-.1 1.2.3 2.4-.4 3.3zM73 142.2c.1.3 0 .7.2 1 .1.1.1.2.2.2.2 0 .1-.2.1-.3.1-1 .7-1.5 1.7-1.6.5 0 .8-.3.9-.7.1-.5-.2-.9-.6-1.2-.4-.3-.7-.3-1.1 0-1 .6-1.4 1.5-1.4 2.6zm9 6.6c.5-.8 1.1-1.2 1.9-1.3.4-.1.7-.1 1.1-.2.4-.1.6-.6.3-.9-.3-.3-.6-.5-1-.6-2-.3-3 1-2.3 3zm35-82.7c.3.4.5.7.6 1.1.1.3.3.4.5 0 .1-.1.1-.2.2-.3.6-.8 1.4-.8 2 .1.1.2.2.4.4.4.1-.2.1-.4 0-.5-.2-.5-.1-.8.4-1 .2-.1.4-.2.3-.4-.1-.2-.3-.1-.5-.1-1.2 0-2.6.3-3.9.7zm-39.8 80.3c.1-.1.1-.3.1-.4.1-.8.4-1 1.2-1 .3 0 .5-.1.6-.3.2-.5.2-.9-.1-1.4-.2-.2-.4-.3-.7-.2-1.5.5-2.2 1.6-1.1 3.3zM59.5 86.1c.2.9.2 1.8.5 2.7.1.2.1.3.3.3.2 0 .2-.2.3-.3.2-.4.1-.9.1-1.3-.1-.6 0-1.2.2-1.7.1-.2.3-.3.2-.5-.2-.2-.5-.4-.7-.2-.5.2-.9.4-.9 1zm75.1 63.6c.8-.6.8-1.3.7-2.1 0-.5-.3-.8-.7-.9-.4-.1-.9-.1-1.2.3-.2.2-.3.4 0 .6.8.4.9 1.3 1.2 2.1zM62 91.2c0 .2 0 .4.2.4s.3-.2.4-.3c.4-.7.4-1.7 1.3-2.1v-.1c0-.5.3-.8.7-1 .3-.2.3-.5.2-.7-.2-.3-.5-.4-.8-.4-.3 0-.4.2-.4.4-.1.6-.4 1.2-.7 1.7-.4.7-.8 1.3-.9 2.1zm46.9 11.8c-.3 0-.6 0-.6.4s.1.5.5.5.7.1 1 .3c.6.5 1.3.5 1.9.2.5-.2.6-.7.2-1.1-.4-.4-.7-.1-.9.1-.9.5-1 .5-1.7-.2-.2-.2-.3-.2-.4-.2zm31 44.2c.6-.5.9-1.1.8-1.7-.1-.7-.7-1.1-1.3-1-.3.1-.5.3-.6.6-.1.3.1.4.3.5.5.4.9.8.8 1.6zm6.3-86.4c.5 1.1.7 2.3.5 3.7.5-.5.8-.8 1.1-1.2.1-.1.3-.3.2-.5-.4-.7-.9-1.5-1.8-2zm-30.9 6.5c-.3-.2-.5-.1-.7.1l-1.5 1.2c-.6.6-.6.6.2 1.2 0-.6.5-1 1-.9.7.2.8.1.6-.7 0-.4-.1-.7.4-.9zM59.1 86.9c-.1-.6-.3-1.1.1-1.5.3-.4.1-.5-.3-.5-.6 0-1.3 0-2 .3.7.6 1.4 1.1 2.2 1.7zm93.1 14.9c.2.4.3.8.6 1 .3.3.2 1.1.6 1.1.5 0 .7-.7 1-1l.1-.1c.1-.2.1-.4-.2-.4-.8 0-1.4-.4-2.1-.6zm-22.8-32.2c-.6-.3-1.1-.5-1.4-1-.1-.1-.2-.1-.3 0-.3.4-.7.7-.8 1.2-.1.3 0 .5.4.4.7-.2 1.3-.3 2.1-.6zM92.5 95.2c.8.3 1.7.5 2.5.8.1-.4.1-.8 0-1.2-.8.4-1.7.1-2.5.4zM137 65.7c.3-.6.2-1.2.3-1.9 0-.3 0-.5-.4-.4-.3.1-.6 0-.6.5 0 .7.6 1.1.7 1.8zm-11.5.7c.3-.4.6-.8.3-1.2-.2-.3-.7-.1-1-.1-.1 0-.4 0-.3.2.1.2-.1.7.3.6.4 0 .4.4.7.5zm6.7-.5c.4-.4.4-.8.4-1.2 0-.2.2-.5-.2-.5-.3 0-.7-.1-.9.2-.2.2 0 .5.2.7.4.1.7.3.5.8zm-21.1 8v.5c0 1 0 1 .9.7.5-.1.5-.4.2-.6-.3-.3-.7-.4-1.1-.6zm30.6-8c0 .5 0 1-.4 1.3-.1.1-.1.4 0 .4.4 0 .6-.3 1-.4.2-.1.2-.2.2-.4-.2-.3-.3-.7-.8-.9zm-7.7 2.6c.3-.3 1 .1 1.1-.5.1-.3-.4-.5-.7-.7-.1-.1-.8.8-.8 1 .1.3.2.2.4.2zm-4 .5c0 .2-.1.5.2.4.3-.1.8 0 .9-.4.1-.3-.1-.6-.6-.7-.7 0-.4.5-.5.7zm9.8-4.6c.3-.3.3-.6.4-.9.1-.2 0-.3-.2-.3-.3 0-.6-.2-.8.1-.1.1-.1.4.1.5.3.1.4.3.5.6zm4 .7c-.2 0-.3 0-.2.2.1.4 0 .9.4 1.1.1 0 .4-.1.4-.3 0-.5-.2-.8-.6-1zm-18.4 4.5c-.5.3-.7.7-.4 1.2.1.2.6 0 .7-.1.2-.4-.2-.7-.3-1.1zm-7.9 1.7s-.1 0-.1.1v1.1c0 .1 0 .3.1.3.2 0 .5-.1.7-.2.2-.1.1-.2 0-.3-.2-.4-.4-.7-.7-1zm5.3-1.2c0 .4-.4.8.2 1 .1.1.4.1.5-.1.1-.5-.4-.7-.7-.9zm-11.9 32.7c-.2-.2-.4-.2-.5-.3-.3-.1-.5 0-.7.2-.1.1 0 .2.1.4.2.3.5.1.7 0 .1 0 .2-.2.4-.3zm17.9-36.9c-.1-.4-.1-.7-.1-1 0-.1-.1-.2-.2-.2s-.2.1-.2.2c0 .4.1.7.5 1zm-8.9 5.7c.8-.4.8-.5 0-1.1v1.1zm-5.8 1.7v1c.3 0 .6-.2.9-.4-.6 0-.7-.3-.9-.6z"/><path class="st0" d="M81.3 91.6c1.8-.6 3.5-.6 4.8 1.1-.2.1-.5 0-.7-.1-.8-.3-1.5 0-2.3.2-.2.1-.4.3-.3.5.1.3.3 0 .5-.1.8-.4 1.6-.4 2.5-.1 1.4.5 2.7 1.3 3.9 2.2.4.3.7 1.7.5 2.1-.1.3-.2.1-.4 0l-1.8-.9c-1.7-.6-3.4-.9-5.1 0-.2.1-.4.2-.5.3-.2.2-.5.4-.2.6.3.3.4-.1.5-.2.9-.6 1.9-.9 3-.8 1.6.2 3.1.7 4.2 1.7.6.5 1.2 1.3 1.5 2.1.3.7.1 1-.7 1-3.9.1-6.8 1.8-8.8 5.2-.1.2-.1.3-.4.5-.3-1.1-.8-2.1-1.1-3.2-.6-1.9-1.5-3.6-2.4-5.3-1-1.9-1.4-3.9-1.2-6 .1-.9.7-1.5 1.3-2.2 1.1-1.4 2.5-2.4 3.9-3.4 2.5-1.7 4.7-3.8 7-5.8 1.9-1.7 4.3-2.3 6.9-2.7 2.6-.3 5.2.1 7.8-.1 1.3-.1 2.3.5 3.4.7 2 .4 3.9.4 5.8-.2.6-.2 1.2-.2 1.9 0 2.2.5 3.7 2 5.3 3.3 1.1.9 2.1 1.9 3 3 .3.4.4.3.6-.1.7-1.4 1.2-2.9 2.1-4.2.8-1.1 1.5-2.1 3-2.2 1.1-.1 2.1-.3 3.1-.7.7-.2 1.4 0 2 .3 1.8 1 3.8 1.4 5.8 1.9 1.7.4 3.3 1 4.7 2 .5.3 1 .3 1.6.4.5.1 1 .2 1.3.7.3.5.7.8 1.2 1.1 1.9.9 3.7 1.8 5.4 3.2.4.3.6.6.7 1.1.5 2.7 1.1 5.4.8 8.2-.2 1.6-.4 3.2-.7 4.8-.1.4-.3.6-.7.5-1.3-.4-2.5-.7-3.6-1.6-1.5-1.3-3.3-2.2-5.4-2.4-.3 0-.5-.2-.6-.5-.2-.6-.5-1.2-.9-1.7-.7-.9-.3-1.7.4-2.4 1.3-1.2 2.9-1.9 4.2-3 .5-.5 1.2-.7 2-.7.2 0 .6 0 .5-.3 0-.3-.4-.2-.6-.2-1.1.2-2.1.6-2.9 1.4-.5.5-1 .8-1.7 1-.2-.7.1-1.3.6-1.7.3-.3.5-.6.6-1 .2-.6.5-1.1 1.2-1.3.2 0 .4-.1.3-.3-.1-.2-.3-.2-.5-.1-.7.1-1.1.6-1.3 1.2-.3.6-.6 1.2-1 1.7-.3.3-.4.6-.4 1 .1.7-.2 1.3-.8 1.7-.7.5-1.3 1.1-1.5 2-.4-.3-.8-.4-1.2-.3-.5.1-.7-.1-.7-.6.1-1.9-.7-3.4-1.8-4.8-.4-.5-.8-.9-1-1.4 0-.1-.2-.3-.3-.3-.3.1-.1.3-.1.5.2.5.4.9.8 1.3 2 1.9 2.4 4.3 2 6.8-.7 3.8-2.1 7.3-4.7 10.3-1.6 1.8-2.7 3.8-3.7 6-.6 1.4-1.5 2.6-2.2 3.9-.3.5-.5.9-.5 1.5-.1.7-.7 1.2-1.2 1.6-1.9 1.8-4.3 2.6-6.8 3.2-3.1.7-6.3 1-9.5.6-3.4-.5-6.6-1.8-9.5-3.7-2.6-1.7-4.3-4.1-5.5-6.8-.2-.4-.2-.7.1-1.2.9-1.6 1.7-3.1 2.5-4.7.4-.8.5-1.6.2-2.5 0-.1-.2-.3-.1-.4.1-.1.3 0 .5 0 2.9.9 5.8 1.8 8.6 2.8.9.3 1.7.3 2.6.2 1.1-.1 2.2-1.9 1.9-3.2-.3-1.5-1.2-2.4-2.7-2.7-1.8-.3-3.6-.9-5.4-1.4-2.7-.8-5.4-1.5-8-2.3-.2-.1-.4-.1-.6-.2-1.2-.5-1.2-.5-1.2-1.7 0-.4.3-.7.6-.8.5-.1 1.1-.2 1.6-.3.2 0 .5.1.5-.3 0-.3-.3-.2-.5-.2-.9.2-2 .1-2.7.9-.3.3-.8.4-1.3.4-1.1-.1-2.2 0-3.1.7-.2.1-.3.1-.4-.1-.4-.5-1-.9-1.5-1.1-1.3-.6-2.1-1.9-3.3-2.7-.8-1.2-2.5-1.3-3.7-.2zm42.7 23.9h2.6c.3 0 .5-.1.4-.5-.1-1-.2-2-.3-3.1 0-.4-.2-.5-.6-.6-1.4-.1-2.9-.4-4.3-.7-.3-.1-.4-.2-.4-.5-.1-1.2-.2-2.4-.4-3.5-.1-.5.1-.7.6-.6.9.1 1.8.1 2.7.1.3 0 .4-.1.4-.4-.2-1-.4-2-.5-3-.1-.4-.2-.6-.6-.6-.9-.1-1.8-.3-2.7-.3-.4 0-.5-.2-.5-.6-.1-1.1-.2-2.2-.3-3.4 0-.5.1-.6.5-.5 1.5.4 2.9.5 4.4.4.5 0 .7 0 .7.6 0 .3.1.6.5.6 1.4.1 2.7-.1 3.9-.8.3-.2.4-.3.4-.7 0-2-.1-4.1-.1-6.1 0-.4-.2-.4-.5-.3-1.6.5-3.2.7-4.9.9-3.1.2-6.2.1-9.2-.5-1.4-.3-2.9-.7-4.2-1.2-.4-.1-.6-.1-.5.4.1 1.5.3 2.9.6 4.3.1.5.4.9 1 1 1.7.4 1.8.5 1.9 2.2v.1c.4 2.4.7 4.9 1.3 7.3.3 1.3.7 2.7 1.1 4 .1.4.1.6-.4.5-.6-.1-1.2-.1-1.8-.2-.5-.1-.5.1-.4.5.2.9.4 1.8.5 2.8.1.7.4 1.1 1 1.3 2.7.8 5.4 1.2 8.1 1.1zM98.8 90.4v1c0 .1.1.3.2.3.2 0 .2-.2.2-.3 0-.3.1-.6.1-1-.1-2.8-.8-5.5-2.3-7.8-.2-.3-.3-1-.7-.7-.3.2.1.7.3 1 1.5 2.3 2 4.9 2.2 7.5z"/><path class="st0" d="M152.2 101.8c.7.2 1.3.6 2 .5.3 0 .3.2.2.4 0 0 0 .1-.1.1-.3.4-.5 1-1 1-.4 0-.3-.7-.6-1.1-.2-.2-.3-.5-.5-.9zM124 115.5c-2.8.1-5.4-.3-8.1-1-.7-.2-1-.6-1-1.3-.1-.9-.3-1.9-.5-2.8-.1-.4 0-.6.4-.5.6.1 1.2.1 1.8.2.5.1.5-.2.4-.5-.4-1.3-.8-2.6-1.1-4-.6-2.4-.9-4.9-1.3-7.3v-.1c-.2-1.8-.2-1.9-1.9-2.2-.6-.1-.9-.5-1-1-.3-1.4-.5-2.9-.6-4.3 0-.5.2-.5.5-.4 1.4.5 2.8.9 4.2 1.2 3.1.6 6.1.8 9.2.5 1.6-.1 3.3-.4 4.9-.9.3-.1.5 0 .5.3 0 2 .1 4.1.1 6.1 0 .3-.1.5-.4.7-1.2.7-2.5.9-3.9.8-.4 0-.5-.3-.5-.6.1-.6-.2-.6-.7-.6-1.5.1-3 0-4.4-.4-.4-.1-.6 0-.5.5.1 1.1.2 2.2.3 3.4 0 .3.1.5.5.6.9.1 1.8.3 2.7.3.4 0 .6.2.6.6.1 1 .3 2 .5 3 .1.3 0 .5-.4.4-.9 0-1.8 0-2.7-.1-.5 0-.6.1-.6.6.2 1.2.3 2.4.4 3.5 0 .3.1.4.4.5 1.4.3 2.8.6 4.3.7.4 0 .5.2.6.6.1 1 .2 2.1.3 3.1.1.4-.1.5-.4.5-.8-.1-1.7-.1-2.6-.1zm.3-9.9c-.2-.9-.3-1.7-.5-2.6-.1-.3-.2-.5-.5-.5-.9-.1-1.7-.3-2.6-.3-.7 0-.8-.4-.8-1-.1-1.3-.2-2.6-.3-3.8-.1-.7-.1-.7.6-.6 1.7.4 3.5.6 5.3.5.5 0 .8 0 .7.6-.1.5.1.7.6.6 1-.1 1.9-.2 2.8-.7.4-.2.6-.4.5-.8 0-1.1-.1-2.3-.1-3.4V92c0-.3 0-.5-.5-.4-1.7.4-3.5.7-5.3.7-4.1.1-8.2-.2-12.1-1.6-.5-.2-.5.1-.5.4l.3 2.4c.2 1.6.2 1.6 1.7 2 .1 0 .3.1.4.1.6 0 .8.5.9 1l.3 1.8c.2 1.4.4 2.8.7 4.3.4 2.3 1.1 4.6 1.8 6.8.3.8.2.8-.7.8-.3 0-.6-.1-.9-.1-1.2-.1-1.2-.1-1 1 0 .2.1.4.1.6.2 1.8.2 1.8 1.9 2.3.3.1.6.1.9.2 2.6.6 5.3.7 8 .5.2 0 .6.1.5-.3-.1-.8 0-1.7-.2-2.5-.1-.3-.2-.4-.4-.4-1.4-.2-2.8-.4-4.1-.7-.5-.1-.7-.3-.7-.8-.1-1.4-.3-2.9-.5-4.3-.1-.4.1-.5.4-.5 1.1.3 2.2.3 3.3.3zM98.8 90.4c-.3-2.6-.7-5.2-2.3-7.5-.2-.3-.7-.8-.3-1 .4-.3.6.4.7.7 1.5 2.4 2.2 5 2.3 7.8 0 .3 0 .6-.1 1 0 .1 0 .3-.2.3-.1 0-.2-.2-.2-.3.1-.3.1-.6.1-1zM86.6 125.5c.1-.2.1-.3.1-.5s-.1-.5.3-.4c.3 0 .2.3.3.5 0 .3 0 .6.1 1s.2.4.5.3c.4-.2 1-.3 1.3-.6.1-.1.4-.2.5 0 .1.2.1.4-.2.4-.3.1-.4.3-.2.6.2.4.3 1 .7 1 .7.1 1.5.2 2.2-.1.3-.1.5-.1.5.3-.1.4-.1.9.3 1 .4.1.9 0 1.3-.2.2-.1.4-.3.5-.5.1-.1.2-.1.3-.1.1.1.2.2.1.4-.4.6-.9.9-1.6 1.1-.5.1-1.1.1-1.3-.5-.2-1-.9-.7-1.5-.7h-.1c-1 .2-1.6-.2-1.9-1.2-.1-.5-.3-.5-.7-.3-.5.3-1 .3-1.3-.3-.1-.2-.5-.9-.9-.1-.1.1-.2.1-.3 0-.2-.3-.2-.7 0-1 .2-.3.5-.3.7 0 0-.2.1-.1.3-.1zM126 129.1c-.8-.1-1.6-.1-1.9-1-.1-.2-.2-.4 0-.5.2-.1.4.1.5.3.4.8 1.1.7 1.7.7.5 0 .8-.5 1.1-.9.2-.2-.1-.3-.2-.4-.2-.3-.5-.5-.8-.8-.1-.1-.1-.3 0-.4.1-.1.3-.1.4 0l.9.9c.3.3.5.4.9.4.5 0 .8-.2.8-.8 0-.2-.1-.5.2-.5.3 0 .3.3.3.5 0 .8-.3 1.2-1.2 1.3-.7 0-2.3 1.3-2.5 1.9-.1.4.2.5.5.6.7.3 1.4.3 2.1 0 .2-.1.3-.1.5-.2.1 0 .3 0 .3.2.1.2-.1.2-.2.3-.8.6-2.6.5-3.4 0-.4-.4-.4-.9 0-1.6zM92.7 134.1c.4.2.5.5.6.8.2.3.5.6.8.8.4.2.9.3.3.8-.2.2.1.5.1.7 0 .2.2.4-.1.5-.2.1-.3-.1-.4-.3-.2-.3-.3-.6-.3-.9 0-.3-.1-.4-.3-.6-.4-.3-.6-1-1.4-.4-.3.2-.8 0-1.3.1-.2.1-.3 0-.4.2-.5.8-1.4.9-2.1.3-.2-.2-.4-.5-.6-.7-.1-.1-.3-.3-.1-.5.2-.2.3 0 .4.1.2.3.5.5.7.7.3.3.7.3 1 .1.3-.3 0-.6-.2-.8-.3-.3-.6-.6-.5-1.1 0-.2.1-.4.3-.4.2 0 .2.2.2.4 0 .7.7 1.2 1.3 1.1 1.1.1 1.8 0 2-.9zM57.6 115.1c-.3.1-.2.7-.6.5-.3-.2-.1-.6 0-.9.3-.6.9-1.1 1.5-1.3.8-.3 1.5-.9 2.4-1.1.9-.2 1.2-1.1 1.8-1.7.4-.4.7-.9 1.3-.4.3.2.4-.1.6-.2.3 0 .6-.2.7.2.1.4-.2.3-.4.3-.1 0-.2.1-.3.2-.2.4-.5.4-.7.1-.3-.4-.6-.2-.8.1-.3.4-.6.7-.9 1.1-.5.5-1 .9-1.7 1-.7.1-1.3.8-2 1-.3.1-.1.5-.2.8 0 .2 0 .4-.3.5-.2.2-.2-.1-.4-.2zM93 131.5c0 1.1-1.4 1.9-2.5 1.4-.3-.1-.6-.1-1-.1-.7.1-1.3-.1-1.7-.9-.2-.4-.6-1.1-1.4-.7-.3.2-.7 0-.9-.4-.1-.2-.2-.5.1-.7.3-.1.3.2.4.3.4.5.6 0 .7-.2.1-.2.2-.5.5-.7.1-.1.2-.2.4 0 .1.1.1.3 0 .4-.6.7-.1.9.4 1.3.2.1.5.2.5.4 0 .5.4.6.7.6.4 0 .8.1.8-.5 0-.2.1-.2.3-.2.2 0 .2.2.2.3 0 .5.3.6.7.5.5-.1 1.1 0 1.3-.7v-.3c0-.2-.1-.6.2-.6.4.2.3.6.3.8zM91.7 125.2c-.3-.1-.8-.3-1.2-.7-.5-.5-1.1-.9-1.8-1-.8-.1-1.1-.9-.7-1.6 0-.1.1-.1.2-.1.2 0 .2.1.2.3.1.3-.2.7.2.8.4.2.9.3 1.4.5.2.1.3-.2.4-.4.1-.1.1-.3.2-.4.2-.2.2-.6.6-.4.4.2 0 .5-.1.7-.5.9-.4 1.3.6 1.7.2.1.4.1.5-.1.2-.2.4-.3.5-.1.2.2-.1.4-.2.6-.2.2-.4.3-.8.2zM90.6 138.5c-.2 0-.6-.1-.7.1-.1.3.2.4.4.6.6.7 1 .8 1.8.2.1-.1.2-.2.4-.1.1.1.1.2 0 .4-.1.7-1.8.8-2.3.3-.7-.8-1.2-1.7-1.9-2.5-.1-.1-.2-.4 0-.5.2-.2.4 0 .5.2 0 .1.1.1.2.2.3.4.6.9 1.2.6.2-.1.5 0 .7 0 .2 0 .5 0 .5.3s-.3.2-.5.2h-.3zM120.7 138.1c-.1-.1-.3-.1-.4-.2-.9-.8-1.8-1.7-2.7-2.5-.3-.2-.3-.4 0-.7.3-.3.5-.6.7-.8.1-.1.3-.3.5-.1.1.1 0 .3 0 .4-.2.3-.7.5-.5.9.1.3.5.5.8.8.6.6 1.2 1.1 1.8 1.7.1.1.2.3.1.4-.1 0-.2 0-.3.1zM122.9 136.1c-.8.1-1.2-.7-1.8-1.1-.1-.1-.2-.3-.1-.5 0-.1.1-.3.2-.3s.2.1.2.2c.1.6.8.7 1.1 1.1.2.2.8.2.9-.4 0-.2.1-.4.3-.3.3.1.3.3.3.6s-.5.7-1.1.7z"/><path class="st0" d="M89.1 130.7c-1 0-1.5-.7-1.2-1.6 0-.1.1-.2.2-.2s.2 0 .3.1c0 .1.1.1.1.2.1.3-.1.8.4.9.5.2.9-.1 1.3-.2.1 0 .2-.2.3-.2.2-.1.4-.2.5 0 .1.2 0 .3-.2.4-.5.5-1.1.7-1.7.6zM94.9 126.9c-.8 0-1.7-.9-1.7-1.6 0-.3.3-.3.5-.2.2.1.2.4.3.6.3.7 1 .9 1.6.3l.3-.3c.1-.1.2-.3.4-.1.2.1.1.3 0 .4-.3.4-.7.9-1.4.9zM91.4 137.8c-.4 0-.8.1-1.2-.2-.2-.1-.3-.3-.2-.5.1-.2.3 0 .4.1.8.2 1.6.3 2.3-.1.2-.1.5-.3.6 0 .1.3-.2.4-.4.5-.4.1-.9.2-1.5.2zM87.2 128.6c-.4 0-.7-.1-1.1-.1-.4-.1-.6-.4-.7-.8 0-.2 0-.3.2-.4.2 0 .3.1.3.3.3.6 1.2.8 1.7.3.1-.1.2-.2.4-.1s.2.3.1.4c-.2.3-.5.5-.9.4zM129.9 129c-.3 0-.6-.1-.9-.1-.2 0-.4 0-.4-.3s.3-.3.5-.2c.3 0 .6.1.9.1.4 0 .7 0 1.1-.2.2-.1.4-.3.5 0 .1.2 0 .4-.2.5-.5.2-1 .2-1.5.2zM88.3 138.3c0 .2-.1.2-.3.2-.6.1-1.4-.7-1.3-1.4 0-.1.1-.2.2-.3.1 0 .3 0 .3.1.1.6.4.9.9 1 .1.2.1.4.2.4zM88 133.6c-.1.2-.1.5-.4.6-.3.1-.6.1-.8-.1-.1-.1-.2-.2-.2-.3.1-.2.2-.2.3-.1.3.1.5.1.6-.3 0-.2.1-.3.3-.3.2 0 .3.2.2.5zM156.1 64c.4 0 .9 0 1.4.1.2.1.5.3.4.6-.1.4-.3.1-.5 0-.8-.3-1.7-.2-2.6-.1-1.7.2-3.2 1-4.7 1.7-2.4 1.3-4.6 2.8-7 3.9-1.6.7-3.4 1.1-5.2 1.2-.8 0-1.5.2-2.2.3-.2 0-.5.1-.5-.1-.1-.3.2-.4.4-.4.8-.1 1.5-.3 2.3-.3 2.6-.1 4.9-.9 7.1-2.2 2.4-1.4 4.7-2.9 7.3-4 1.1-.5 2.4-.7 3.8-.7zM149.1 54.5c1.4 0 2.7 1.6 2.7 2.9 0 .5-.2.9-.7 1.1-.3.2-.7.3-1 0-.3-.2-.4-.6-.3-.9 0-.2.3-.5.1-.7-.2-.2-.4.2-.6.3-.2 0-.3.2-.4.2-.5.2-1.3.1-1.6-.3-.4-.5-.4-1.2.1-1.7.3-.6 1-1 1.7-.9zM107.9 65c-.5 0-1-.1-1.4-.4-.2-.1-.3-.2-.5-.1s-.5.1-.7 0c-.8-.2-1.5-.6-2.3-.5-.3 0-.5-.2-.6-.5-.1-.2-.4-.5 0-.7.3-.2.4.2.5.4.2.4.7.4.9.2.3-.2.3-.7 0-1-.3-.3-.6-.6-.8-1.1-.1-.1-.2-.3 0-.4.2-.1.4 0 .5.1.1.1.1.3.2.4.2.2.3.6.6.4.2-.2.3-.6.1-.9-.2-.3-.4-.5-.6-.8-.1-.1-.2-.3 0-.5s.4 0 .5.2c.1.1.1.2.2.3.4.6.9 1.2 1.7 1 .2 0 .5-.1.5.2 0 .3-.3.3-.5.3s-.4 0-.4.2.1.4.2.5c.3.2.7.5 1.1.1.1-.1.3-.1.4.1.1.1 0 .3-.1.4l-.2.2c-.2.2-.5.4-.4.8.2.3.5.6.9.6s.9.1 1.3-.2c.2-.1.4-.2.5 0 .1.2-.1.4-.3.5-.6.2-1 .3-1.3.2zm-3.1-3.4c-.1.2-.2.5-.3.7-.5.9-.3 1.4.7 1.7.2.1.5.1.5-.2.1-.3.4-.6 0-.8-.5-.3-.8-.7-.9-1.4zM129 61.7c.2.6-.3.5-.6.5-1.7 0-3.4.1-5.1.3-2.7.3-5.2.9-7.6 2.2-.1 0-.1.1-.2.1-.2.1-.5.4-.7 0-.2-.3.2-.4.4-.5 2.4-1.4 4.9-2.1 7.6-2.3 1.2-.1 2.3-.2 3.5-.3.9-.1 1.8-.1 2.7 0zM157.6 57.8v-.3c-.1-1.2.7-1.8 1.9-1.5.5.2.7.7.7 1.7 0 .5-.3.8-.8.8-.3 0-.4.1-.5.4-.1.4-.4.5-.8.4-.4-.1-.6-.3-.5-.7v-.8zM107.5 69.5s.1 0 .1.1c.1.2 0 .3-.1.5-.6.7-1.1 1.4-1.5 2.2-.7 1.8-.5 3.5.6 5.1.1.2.4.4.1.6-.2.2-.4-.1-.5-.2-.4-.4-.6-.9-.8-1.4-.8-2.5-.1-4.7 1.6-6.6.1-.2.2-.3.5-.3zM104.7 66.3c-.7 0-2-1-2.2-1.5 0-.1-.1-.2 0-.3.1-.1.3 0 .4.1.3.3.6.6.9.8.2.2.5.4.8.4.2 0 .5-.2.5.2.1.3-.2.3-.4.3zM107.3 49.8c.6.9.4 1.8.7 2.5 0 .1 0 .2-.2.3-.1 0-.2 0-.3-.2-.1-.8-.5-1.6-.2-2.6zM85.7 108.4c-.5 0-1.5-.5-1.7-.9-.1-.1-.1-.3 0-.4.1-.1.3-.1.4 0h.1c.3.2.7.8 1 .5.5-.6.1-1.8-.4-2.1-.2-.1-.4-.1-.3-.3.1-.3.3-.2.6-.1.4.1.6.5 1 .5s.8.2 1.1-.3c.1-.2.4-.3.6-.1.3.2 0 .3-.2.5s-.3.3-.1.6c.2.2.3-.1.4-.1.3-.1.5-.3.7-.5.1-.1.2-.2.4-.1.1.1.1.2 0 .4-.2.5-.7.5-1 .8-.5.4-.8 0-1.1-.3-.3-.3-.6-.3-.9-.3-.3 0-.1.4-.2.6-.2.4-.1 1-.4 1.6z"/><path class="st0" d="M85.7 108.4c1.1 0 1.1 0 .8-1 0-.2 0-.3.1-.3.2-.1.3-.1.4.1.3.5.2 1 .1 1.5-.1.4-.5.2-.8.3-.4 0-.6-.2-.6-.6zM89.6 104c0 .1 0 .1-.1.2-.2.3-1.4.7-1.7.4-.2-.1-.5-.3-.3-.6.2-.2.4 0 .5.1.4.2.6.1.7-.3 0-.2-.1-.5.2-.5.5.1.5.5.7.7zM147.9 104.8c-.6-.1-1.4.1-1.7-.7-.1-.2-.2-.4 0-.5.2-.1.4 0 .4.2.3.5.7.5 1.2.4.5-.1 1.1.3 1.6-.2.1-.1.2.1.2.2 0 .2-.1.5-.4.5-.4.1-.8.1-1.3.1zM148.3 102.7c0 .5-.7 1-1.2.7-.5-.3-.8-.8-1-1.3-.1-.1-.1-.3.1-.4.1-.1.3 0 .4.1.2.2.3.5.5.7.2.2.6.5.7-.1 0-.2.1-.3.3-.3.2.2.2.4.2.6zM147.5 101.7c-.7 0-1.5-.6-1.5-1.2 0-.2 0-.3.2-.4.2-.1.3.1.4.2.3.7.7 1.1 1.5.6.1 0 .2 0 .2.1.1.1.1.3 0 .4-.2.2-.5.3-.8.3zM150.9 102.7c0 .4-.6.9-1 .8-.5-.1-.9-.4-1.2-.9-.1-.1-.1-.3 0-.4.1-.1.3-.1.4.1.1.1.1.2.2.3.3.3.7.8 1 .1.1-.1.2-.2.3-.1.2 0 .2.1.3.1zM147.5 105.5c.2 0 .2.2.3.4.2.5.2 1.1.8 1.4.1.1.1.2.1.3 0 .1-.2.1-.3.1-.2 0-.5-.1-.6-.3l-.6-1.5c0-.1 0-.3.3-.4z"/><g><path class="st0" d="M55.4 166.5h-1.7c.1-.4.2-.9.3-1.3h1.7l.2-1.3h-1.8c.1-.3.2-.8.3-1.3h1.7l.6-3.2h1.4c-.1.4-.3 1.5-.6 3.2h1.6l.6-3.2h1.4c-.1.5-.3 1.6-.6 3.2h1.7c-.1.6-.2 1-.3 1.3h-1.7l-.2 1.3h1.7c-.1.3-.2.8-.3 1.3h-1.7l-.6 3.3h-1.4l.6-3.3h-1.6l-.6 3.3h-1.4l.7-3.3zm1.9-2.6-.2 1.3h1.6l.2-1.3h-1.6zM63.5 169.8c.2-1.5.3-3.2.3-5.2.1-2 .1-3.7.1-5.2H68c.6 0 1.1 0 1.6.1s.9.2 1.2.5c.4.2.6.5.8.9.2.3.3.7.3 1.2 0 .3 0 .6-.1.8-.1.3-.2.5-.3.7s-.3.4-.5.6-.4.3-.5.4l-.6.3c-.2.1-.5.2-.9.3l.5 1c.2.3.5.9.9 1.7l.8 1.3c0 .1.2.3.4.7h-2.5l-.8-2c-.1-.3-.3-.7-.5-1.1l-.9-1.8-.4-.8c.3.1.6.1.9.1.4 0 .8-.1 1.2-.2.4-.1.6-.4.8-.7s.3-.6.3-1c0-.2 0-.4-.1-.6-.1-.2-.2-.3-.4-.5s-.4-.2-.7-.2c-.3 0-.5-.1-.8-.1h-1.6l-.1 3.1-.1 5.7h-2.4zM73.2 169.8c.1-.8.1-1.4.2-1.9.1-.8.1-1.7.1-2.8 0-1.1.1-2.1.1-3h2.2c-.1.9-.1 1.7-.2 2.5 0 .8-.1 1.7-.1 2.7v2.5h-2.3zm.4-9.1v-1.4h2.2v1.4h-2.2zM77.3 169.8c.1-1.1.2-2.4.3-3.9.1-1.4.1-2.7.1-3.8h2.1l-.1 1.3c.2-.2.3-.4.4-.5.1-.1.3-.3.5-.4l.6-.3c.2-.1.4-.1.7-.2.3 0 .5-.1.8-.1.5 0 .9.1 1.3.2s.7.3 1 .5c.3.2.4.5.5.8.1.3.1.6.1.9v.7l-.2 3.3v1.5h-2.2c0-.4.1-1.2.2-2.3.1-1.1.1-1.8.1-2.2 0-.4-.1-.7-.2-1-.1-.2-.3-.4-.6-.6-.3-.1-.6-.2-.9-.2-.3 0-.6.1-.8.2-.3.1-.5.3-.7.5-.2.2-.4.5-.5.8-.1.4-.2.9-.3 1.8-.1.7-.1 1.7-.1 2.9h-1.1c-.1.1-.5.1-1 .1zM87.3 169.8l.2-2 .2-3.8.1-3.2v-1.4h2.1l-.2 2.5-.2 3.9-.1 2.9v1h-1.1c-.2.1-.5.1-1 .1zm2.4-4.3 1.5-1.9c.1-.2.3-.4.5-.6.2-.2.4-.5.7-.9h2.5l-2.5 2.9-.4.5c.4.6 1.4 2 3.1 4.3h-2.4c-.3-.5-.5-.9-.7-1.2-.2-.3-.4-.5-.5-.8l-1.3-1.8c-.2 0-.3-.2-.5-.5zM102.7 168.1c-.1.3-.2.8-.3 1.6-.5.1-1 .2-1.4.2-.4 0-.8.1-1.1.1-.7 0-1.3-.1-1.8-.2s-1-.4-1.4-.7c-.4-.4-.7-.8-.9-1.3-.2-.5-.3-1-.3-1.6 0-.6.1-1.2.3-1.8.2-.6.5-1.1.9-1.4.4-.4.8-.6 1.3-.8.5-.2 1-.2 1.6-.2.5 0 1 .1 1.5.2s.9.3 1.2.6.6.6.7 1.1c.2.4.3.9.3 1.4 0 .2 0 .5-.1.7h-5.6v.4c0 .3.1.7.2.9.1.3.3.5.5.7.2.2.5.3.8.4.3.1.6.1.9.1.3 0 .7 0 1.1-.1s1.1-.2 1.6-.3zm-4.9-3.1h3.6v-.5c0-.1 0-.2-.1-.4s-.1-.3-.2-.4l-.3-.3c-.1-.1-.3-.1-.4-.2-.2 0-.3-.1-.5-.1s-.4 0-.6.1l-.6.3c-.2.1-.3.3-.4.4-.1.2-.2.3-.2.5-.2.2-.2.3-.3.6zM104.5 169.8l.2-3.6.1-2.1v-2h2v1.1c.2-.3.4-.5.5-.6.1-.1.3-.2.5-.3.2-.1.4-.2.6-.2.2-.1.4-.1.6-.1.2 0 .4 0 .6.1 0 .5 0 1.1.1 1.8-.3-.1-.6-.1-.8-.1-.3 0-.6 0-.8.1-.2.1-.4.2-.6.4-.2.2-.3.4-.4.7-.1.2-.2.5-.2.8 0 .3-.1.7-.1 1.4v2.8h-1.1c-.3-.2-.7-.2-1.2-.2zM110.7 169.8c.2-1.5.3-3.2.4-5.1.1-1.9.1-3.6.2-5.3H113.7c-.1.9-.1 1.9-.2 3.1l-.2 3c0 .9-.1 1.7-.1 2.6H118c0 .5-.1 1-.1 1.6h-5.8l-1.4.1zM125.8 168.1c-.1.3-.2.8-.3 1.6-.5.1-1 .2-1.4.2-.4 0-.8.1-1.1.1-.7 0-1.3-.1-1.8-.2s-1-.4-1.4-.7c-.4-.4-.7-.8-.9-1.3-.2-.5-.3-1-.3-1.6 0-.6.1-1.2.3-1.8.2-.6.5-1.1.9-1.4.4-.4.8-.6 1.3-.8.5-.2 1-.2 1.6-.2.5 0 1 .1 1.5.2s.9.3 1.2.6c.3.3.6.6.7 1.1.2.4.3.9.3 1.4 0 .2 0 .5-.1.7h-5.6v.4c0 .3.1.7.2.9.1.3.3.5.5.7.2.2.5.3.8.4.3.1.6.1.9.1.3 0 .7 0 1.1-.1.6 0 1.1-.2 1.6-.3zm-4.9-3.1h3.6v-.5c0-.1 0-.2-.1-.4s-.1-.3-.2-.4l-.3-.3c-.1-.1-.3-.1-.4-.2-.2 0-.3-.1-.5-.1s-.4 0-.6.1l-.6.3c-.2.1-.3.3-.4.4-.1.2-.2.3-.2.5-.2.2-.2.3-.3.6zM128.2 171.4c1.1.4 2.1.6 3 .6.3 0 .6 0 .9-.1.3-.1.5-.2.7-.3.2-.1.3-.4.4-.6s.2-.6.2-.9c0-.3.1-.8.1-1.5-.2.3-.4.5-.5.6s-.3.3-.6.4c-.2.1-.5.2-.8.3-.3.1-.6.1-.9.1-.4 0-.9-.1-1.3-.2s-.8-.4-1.1-.7c-.3-.3-.5-.7-.7-1.1s-.2-.9-.2-1.4c0-.7.1-1.4.4-2 .3-.6.7-1.1 1.2-1.5s1.1-.7 1.6-.8c.6-.2 1.2-.2 1.9-.2.4 0 .8 0 1.3.1s1.2.1 2 .3l-.2 2.4-.2 3-.1 2.7c0 .3-.1.6-.1.9-.1.3-.2.5-.3.8-.1.2-.3.4-.5.6-.2.2-.4.3-.7.4l-.9.3c-.3.1-.8.1-1.2.1-.5 0-1 0-1.6-.1-.6-.1-1.2-.2-1.9-.3l.1-1.9zm5.5-7.8c-.4-.1-.8-.1-1.2-.1-.7 0-1.2.1-1.6.4-.4.2-.8.6-1 1.1-.2.5-.3 1-.3 1.5 0 .4.1.7.2 1.1s.4.6.7.7c.3.2.6.3 1 .3.3 0 .5 0 .7-.1.2-.1.4-.2.6-.4.2-.2.3-.4.5-.6.1-.2.2-.5.3-.8.1-.3.1-.7.1-1.2v-1.9zM138 163.8c.1-.4.1-.6.1-.8 0-.1 0-.4.1-.7.7-.2 1.3-.3 1.8-.3.5-.1 1-.1 1.5-.1.6 0 1.1.1 1.5.2s.8.3 1.1.6c.3.3.4.7.4 1.2 0 .3 0 1-.1 2.2-.1 1.2-.1 2.4-.1 3.7h-2.2c.1-.6.1-1.3.2-2.1l.1-1.9c-.2.1-.3.2-.4.3-.1.1-.2.1-.3.1s-.3.1-.7.2c-.3.1-.6.2-.8.2s-.4.1-.5.2c-.2.1-.3.2-.4.3-.1.1-.2.2-.2.3s-.1.2-.1.4.1.4.2.6.3.3.5.3c.2.1.4.1.7.1h.5c.2 0 .4-.1.7-.2-.1.3-.2.7-.4 1.3-.4.1-.6.1-.9.1h-.6c-.6 0-1.2-.1-1.6-.3s-.7-.4-.9-.8c-.2-.4-.3-.8-.3-1.1 0-.2 0-.4.1-.6l.3-.6c.1-.2.3-.3.6-.5.2-.2.6-.3 1-.5s1-.3 1.7-.5c.2 0 .4-.1.6-.1.2-.1.4-.1.5-.2.1-.1.2-.1.3-.2.1-.1.2-.2.2-.3 0-.1.1-.2.1-.3 0-.2-.1-.4-.2-.5-.1-.1-.3-.2-.5-.3-.2-.1-.4-.1-.7-.1-.7 0-1.8.2-2.9.7zM152.3 168c0 .2-.1.4-.1.7-.1.3-.1.6-.2 1-.7.2-1.4.3-2.1.3-.4 0-.8 0-1.2-.1-.4-.1-.7-.2-1.1-.4-.3-.2-.6-.5-.9-.8-.2-.3-.4-.7-.6-1.2-.1-.5-.2-.9-.2-1.4 0-.6.1-1.2.3-1.8.2-.6.5-1.1.9-1.4.4-.4.8-.6 1.3-.8.5-.1 1-.2 1.6-.2.3 0 .7 0 1 .1.3 0 .8.1 1.2.2l.1 1.7c-.8-.3-1.4-.4-2-.4-.3 0-.7.1-1 .2-.3.1-.6.3-.8.6-.2.3-.4.5-.5.9-.1.3-.1.7-.1 1 0 .5.1.9.2 1.2.1.4.4.6.8.8.4.2.8.3 1.2.3.2 0 .5 0 .8-.1.7-.1 1-.2 1.4-.4zM152.9 173.3c-.1-.8-.2-1.3-.2-1.6.5.2.9.3 1.4.3h.4c.1 0 .3-.1.4-.1.1 0 .2-.1.2-.2.1-.1.2-.2.3-.4.1-.2.3-.4.4-.6l.3-.6-1.6-4.6-1.2-3.3h2.2c.1.4.2.8.3 1.1l.7 2.4c.2.7.4 1.3.5 1.7.1.2.1.6.2 1 .2-.5.3-.8.4-1.1.2-.5.5-1.2.8-2.1l.7-1.8c.1-.3.3-.7.4-1h2.1l-2.9 6.5-1.3 2.9c-.2.4-.3.7-.5.9-.1.2-.3.3-.4.5-.2.1-.3.2-.5.3-.2.1-.5.2-.7.2-.3.1-.6.1-.9.1h-.7c-.3 0-.5-.5-.8-.5z"/></g></svg>