<svg version="1.1" id="Layer_1" xmlns="http://www.w3.org/2000/svg" x="0" y="0" width="612" height="792" style="enable-background:new 0 0 612 792" xml:space="preserve"><style>.st0{fill:#301e51}.st1{fill:#94c7a6}</style><path class="st0" d="M195.2 420.1h2.2v-13.7h5.2v-2H190v2h5.2v13.7zM209.9 420.1h2.6l1.6-3.9h7.7l1.6 3.9h2.6l-6.9-15.7h-2l-7.2 15.7zm4.9-5.7 3.1-7.2 3 7.2h-6.1zM239.3 420.1h2.2v-6.7l6.1-9h-2.7l-4.5 6.9-4.4-6.9h-2.8l6.1 9v6.7zM258.6 420.1h9.6v-2h-7.4v-13.7h-2.2v15.7zM290.4 419.9c1-.4 1.9-1 2.7-1.7.7-.7 1.3-1.6 1.7-2.6.4-1 .6-2.1.6-3.3 0-1.2-.2-2.3-.6-3.3-.4-1-1-1.9-1.7-2.6-.8-.7-1.6-1.3-2.7-1.8-1-.4-2.2-.6-3.4-.6-1.2 0-2.4.2-3.4.6-1 .4-1.9 1-2.6 1.8-.8.7-1.3 1.6-1.7 2.6-.4 1-.6 2.1-.6 3.3 0 1.2.2 2.3.6 3.3.4 1 1 1.9 1.7 2.6.7.7 1.6 1.3 2.6 1.7 1 .4 2.2.7 3.4.7 1.2-.1 2.3-.3 3.4-.7zm-5.9-1.9c-.8-.3-1.4-.8-1.9-1.3-.5-.6-.9-1.2-1.2-2-.3-.8-.4-1.6-.4-2.4 0-.9.1-1.7.4-2.5.3-.8.7-1.4 1.2-2 .5-.6 1.2-1 1.9-1.4.8-.3 1.6-.5 2.5-.5.9 0 1.8.2 2.5.5.8.3 1.4.8 1.9 1.4.5.5.9 1.2 1.2 2 .3.8.4 1.6.4 2.5 0 .9-.1 1.7-.4 2.4-.3.8-.7 1.4-1.2 2-.5.5-1.2 1-1.9 1.3-.8.3-1.6.5-2.5.5-1 0-1.8-.1-2.5-.5zM307.7 420.1h2.2v-6.9h2.5l4.1 6.9h2.7l-4.6-7.2c.6-.1 1.2-.2 1.7-.5.5-.2.9-.6 1.3-1 .3-.4.6-.8.8-1.3.2-.5.3-.9.3-1.4 0-.5-.1-1-.2-1.5-.2-.5-.4-1-.8-1.4-.4-.4-.9-.8-1.6-1-.7-.3-1.5-.4-2.5-.4h-5.7v15.7zm2.2-13.8h2.9c.4 0 .8 0 1.3.1.4.1.8.2 1.1.4.3.2.6.4.8.8.2.3.3.8.3 1.3s-.1 1-.3 1.3c-.2.3-.5.6-.8.8-.3.2-.7.3-1.1.4-.4.1-.8.1-1.3.1h-2.9v-5.2zm0 0"/><path class="st1" d="M330.7 420.1h1.5v-13.9l6.3 13.9h.7l6.2-13.9v13.9h1.5v-15.7h-2.1l-5.9 13.2-5.9-13.2h-2.3v15.7zM358.2 420.1h1.6l1.8-4.2h8.6l1.8 4.2h1.7l-6.8-15.7h-1.5l-7.2 15.7zm11.4-5.5h-7.4l3.8-8.6 3.6 8.6zM384.9 420.1h5c1.4 0 2.6-.2 3.5-.5 1-.3 1.8-.8 2.5-1.3.6-.5 1.1-1.1 1.5-1.7.4-.6.6-1.2.8-1.8.2-.6.3-1.1.3-1.6s.1-.8.1-1c0-.2 0-.5-.1-1 0-.5-.2-1-.3-1.6-.2-.6-.5-1.2-.8-1.8-.4-.6-.9-1.2-1.5-1.7-.7-.5-1.5-1-2.5-1.3-1-.3-2.2-.5-3.5-.5h-5v15.8zm1.5-14.4h3.1c1.1 0 2 .1 3 .4.9.3 1.7.7 2.4 1.2s1.2 1.2 1.6 2c.4.8.6 1.8.6 2.9 0 1.1-.2 2.1-.6 2.9-.4.8-.9 1.5-1.6 2-.7.5-1.5.9-2.4 1.2-.9.3-1.9.4-3 .4h-3.1v-13zM411.1 420.1h10.3v-1.3h-8.8v-6.1h7.9v-1.3h-7.9v-5.6h8.4v-1.3h-9.9v15.6zm0 0"/><path class="st0" d="M252 440.1v-3.6h3.9v-.5H252v-3.5h4.7v-.5h-5.3v8.6h5.3v-.5H252zM266 436.1l3.1-4.2h-.7s0 .1-.1.1l-2.6 3.6c0 .1-.1.1-.1.2l-2.7-3.8-.1-.1h-.7l3 4.2-3.2 4.4h.7l.1-.1 2.7-3.8c0-.1.1-.1.1-.2l2.8 4s0 .1.1.1h.7l-3.1-4.4zM275.8 436.6v-4.1h1.6c.8 0 1.5.2 1.9.5.4.3.6.9.6 1.5 0 .3-.1.6-.2.8-.1.3-.3.5-.5.7-.2.2-.5.3-.8.4-.3.1-.7.2-1 .2h-1.6zm-.7-4.6v8.6h.6v-3.5h1.6c.5 0 .9-.1 1.3-.2s.7-.3 1-.5c.3-.2.5-.5.6-.8.1-.3.2-.7.2-1 0-.8-.3-1.4-.8-1.9s-1.3-.7-2.3-.7h-2.2zM287.4 440.1v-3.6h3.9v-.5h-3.9v-3.5h4.7v-.5h-5.3v8.6h5.3v-.5h-4.7zM299 436.2v-3.8h1.6c.8 0 1.4.1 1.8.4.4.3.6.8.6 1.4 0 .3-.1.6-.2.8-.1.3-.3.4-.5.6-.2.2-.5.3-.8.4-.3.1-.7.1-1 .1H299zm2.4.6c-.1-.1-.2-.2-.3-.2.4 0 .7-.1 1-.3.3-.1.6-.3.8-.5.2-.2.4-.4.5-.7.1-.3.2-.6.2-.9 0-.8-.3-1.3-.8-1.7-.5-.4-1.3-.6-2.3-.6h-2.3v8.6h.6v-3.9H300.4s.1 0 .1.1l.1.1 2.8 3.5c0 .1.1.1.1.1h.7l-2.8-3.6zM310.3 432h.6v8.6h-.6zM318.6 440.1v-3.6h3.9v-.5h-3.9v-3.5h4.7v-.5H318v8.6h5.3v-.5h-4.7zM335.8 432v7.5l-5.7-7.5-.1-.1h-.4v8.6h.6V433l5.8 7.5c0 .1.1.1.1.1h.4V432h-.7zM349.7 439.1s0 .1 0 0c-.2.2-.4.3-.6.5l-.6.3c-.2.1-.4.1-.7.2-.3 0-.5.1-.8.1-.5 0-1-.1-1.4-.3-.4-.2-.8-.4-1.1-.8-.3-.3-.6-.8-.8-1.2-.2-.5-.3-1-.3-1.6 0-.6.1-1.1.3-1.6.2-.5.4-.9.8-1.2.3-.3.7-.6 1.1-.8.5-.2.9-.3 1.5-.3.4 0 .8 0 1.1.1.3.1.5.2.8.3.2.1.4.2.5.3.1.1.2.1.2.1.1 0 .1 0 .2-.1l.2-.3c-.4-.3-.8-.6-1.3-.8-.5-.2-1-.3-1.6-.3-.6 0-1.2.1-1.7.3-.5.2-1 .5-1.4.9s-.7.9-.9 1.4c-.2.5-.3 1.1-.3 1.8s.1 1.3.3 1.8c.2.5.5 1 .9 1.4.4.4.8.7 1.3.9.5.2 1.1.3 1.7.3.4 0 .7 0 1-.1.3-.1.6-.1.8-.2.3-.1.5-.2.7-.4.2-.2.4-.3.6-.5l-.3-.3c-.1.1-.1.1-.2.1zM356.8 440.1v-3.6h3.9v-.5h-3.9v-3.5h4.7v-.5h-5.3v8.6h5.3v-.5h-4.7zm0 0"/><path class="st1" d="m308.4 359.9.6-.6.2-.2c.5-.4.7-.6.9-.7.2-.1.4-.2.6-.2.2 0 .2.1.2.2s-.1.3-.3.4c-.2.1-.4.3-.7.5-.3.2-.5.4-.9.6-.3.2-.5.4-.7.6-.2.2-.4.5-.6.8-.2.3-.3.6-.5.9-.2.4-.4.8-.6 1.4-.2.5-.5 1.2-.8 2-.2.6-.5 1.2-.7 1.9-.3.7-.5 1.3-.8 1.9-.3.6-.5 1.2-.7 1.7-.2.5-.4.9-.6 1.2-.6 1.3-1.4 2.8-2.3 4.5-.9 1.7-2 3.3-3.2 5l.1.2 2.7-3.3c.9-1 1.8-2.1 2.7-3.1.9-1 1.9-2 2.9-3.1 1-1 2.1-2.1 3.2-3.3 1.2-1.2 2.6-2.4 4.1-3.7 1.5-1.3 3.1-2.5 4.7-3.6s3.2-2 4.9-2.8c1.6-.7 3.1-1.1 4.6-1.2h.9c.3 0 .5.1.6.1l-.1.3c-.2 0-.4-.1-.7-.1h-.7c-.7 0-1.4.1-2.2.3-.8.2-1.5.6-2.2 1.1-.9.6-1.8 1.4-2.8 2.3-1 1-2.1 2.1-3.2 3.5-1.6 1.9-3 3.9-4.4 6-1.4 2.1-2.7 4.2-3.9 6.5-.2.4-.4.8-.7 1.2-.2.5-.5.9-.7 1.4-.2.5-.4.9-.6 1.4-.2.4-.2.8-.2 1.2 0 .2.1.4.2.6.1.1.3.2.6.2.6 0 1.3-.2 2.1-.6.8-.4 1.6-.8 2.5-1.4.9-.6 1.7-1.2 2.6-1.9.9-.7 1-.8 1.8-1.5l-.4.8s-.4.4-1.4 1.1c-.9.7-1.8 1.4-2.7 1.9-.9.6-1.7 1-2.5 1.4-.8.4-1.5.6-2 .6-1.1 0-1.6-.9-1.7-2.9 0-.5 0-1.1.1-1.7.1-.6.2-1.2.3-1.7.3-1.2.8-2.3 1.4-3.4.6-1.1 1.5-2.4 2.7-3.8.5-.7 1.1-1.3 1.6-1.9.5-.6 1.1-1.2 1.7-1.8l1.8-1.8c.6-.6 1.3-1.2 2.1-1.9.5-.5 1-.9 1.4-1.2l1.2-.9 1.2-.9c.4-.3.9-.6 1.5-1-1.1.5-2.2 1.1-3.3 1.8-1.1.7-2.3 1.6-3.4 2.4-1.1.9-2.3 1.8-3.4 2.8-1.1 1-2.1 1.9-3.1 2.8-.6.6-1.2 1.2-1.8 1.7l-1.7 1.7c-.5.6-1.1 1.2-1.7 1.8-.6.6-1.1 1.3-1.7 1.9-1.1 1.3-2.3 2.7-3.4 4-1.2 1.4-2.4 2.9-3.7 4.6l-.3-.2c.9-1.2 1.6-2.5 2.2-4.1.6-1.6 1.2-3.3 1.9-5.1.4-1.1.7-2 1-2.8.3-.8.6-1.5.8-2.1.3-.6.5-1.2.8-1.7.3-.5.5-1.1.8-1.6.6-1.1 1.3-2.3 2.1-3.3.8-1.1 1.7-2.2 2.7-3.4"/><path class="st0" d="M335.8 361.3c-.5.1-1 .3-1.5.6s-.9.6-1.3 1-.7.8-.9 1.2c-.2.4-.3.8-.3 1.2 0 .3.1.5.3.7.2.2.4.3.7.3.4 0 .8-.2 1.2-.5.4-.3.8-.8 1.1-1.3.3-.4.5-.9.6-1.4.1-.5.2-.9.2-1.3v-.2c0-.1 0-.1-.1-.3zm-9.7 7c.7.9 1.4 1.3 2.1 1.3.3 0 .4-.1.4-.3 0-.3-.3-.5-.8-.7-.6-.2-1.1-.3-1.7-.3zm-8.1 15c.3.4.8.6 1.4.8.6.2 1.2.3 1.9.2 1.1 0 2.2-.4 3.3-1 1.1-.6 2.1-1.5 3.1-2.7.8-1 1.5-2.1 2-3.3.5-1.2.7-2.2.7-3.2 0-.8-.3-1.4-.7-1.8-.4-.4-1.1-.6-1.9-.6-.7 0-1.5.2-2.2.5-.8.3-1.5.8-2.2 1.4-1 .8-1.9 1.9-2.7 3-.8 1.2-1.4 2.4-1.9 3.7-.1.2-.1.4-.2.6-.1.2-.1.4-.2.6 0 .2-.1.4-.1.7-.2.4-.2.7-.3 1.1zm12.1.3c-.3.8-.7 1.5-1.1 2.2-.5.7-1 1.3-1.7 1.9-.6.5-1.4 1-2.1 1.3-.8.3-1.6.5-2.6.5-.8 0-1.5-.1-2.1-.4-.6-.3-1.2-.6-1.6-1.1-.4-.5-.8-1-1-1.6-.2-.6-.4-1.3-.4-2v-.9c-1-.7-1.7-1.6-2.2-2.7-.5-1-.7-2.2-.8-3.5 0-1.5.3-2.9 1-4.1.7-1.3 1.7-2.4 3.1-3.2 1-.7 2-1.2 3.1-1.5 1-.3 2.3-.5 3.7-.7-.4-.7-.5-1.5-.6-2.4 0-.9.2-1.8.5-2.6.4-.8.9-1.5 1.6-2.1.7-.6 1.5-1.1 2.4-1.4.9-.3 1.9-.5 3-.6.9 0 1.7.1 2.4.5s1.1.9 1.4 1.7c.2-.1.4-.1.7-.1.6 0 1.2.1 1.7.3.5.2 1 .6 1.3 1l-.3.2c-.3-.4-.8-.8-1.2-1-.5-.2-1-.3-1.5-.3h-.6v.5c0 .9-.3 1.9-.9 2.9-.8 1.3-1.7 1.9-2.6 1.9-.4 0-.7-.1-1-.3-.3-.2-.4-.5-.4-.9s.1-.9.3-1.3c.2-.4.5-.9.9-1.2.4-.4.9-.7 1.4-1 .5-.3 1.1-.6 1.7-.7-.4-1.1-1.3-1.6-2.7-1.6-.9 0-1.8.3-2.8.7-.9.4-1.8 1.1-2.5 1.9-.7.7-1.2 1.5-1.6 2.3-.4.8-.5 1.7-.5 2.5 0 .2 0 .4.1.5 0 .1.1.3.2.6.8 0 1.5.1 2.1.4.6.3.9.6.9 1s-.2.6-.8.6c-1 0-1.8-.5-2.5-1.6-1.2.3-2.4.8-3.5 1.6s-2.1 1.7-3 2.8c-.9 1.1-1.5 2.2-2 3.5-.5 1.2-.7 2.5-.7 3.7 0 .6.1 1.1.3 1.7.2.5.5 1 .9 1.5.2-1.5.7-2.9 1.4-4.3s1.5-2.6 2.4-3.6c.9-1.1 1.9-1.9 3-2.6 1.1-.6 2.2-1 3.2-1 .9 0 1.7.2 2.2.7.5.5.8 1.2.8 2.1 0 .7-.1 1.4-.4 2.3-.3.9-.6 1.7-1 2.5s-.9 1.5-1.6 2.2c-.6.7-1.3 1.3-2 1.9-1.4 1.1-2.8 1.6-4.5 1.7-.7 0-1.3 0-1.9-.2-.6-.1-1-.4-1.4-.7v.5c0 .7.1 1.3.4 1.9.2.6.5 1.1.9 1.6s.9.8 1.5 1c.6.2 1.2.3 1.9.3 1 0 1.8-.2 2.6-.6.8-.4 1.4-.8 2-1.4.6-.6 1.1-1.2 1.5-1.8.4-.7.7-1.3 1-1.9h.6M308.8 358.3c-1 .2-1.9.4-2.7.9-.8.4-1.7 1-2.5 1.8-.9.8-1.8 1.8-2.7 3-.9 1.2-2 2.7-3.2 4.5l-3.4 5.1c-.5.9-1.2 1.8-1.9 2.7-.7.9-1.4 1.8-2.1 2.5-.7.8-1.5 1.6-2.2 2.3-.7.7-1.5 1.2-2.1 1.6-1.1.7-2 1.1-3 1.4-.9.3-1.8.4-2.7.4-1.5 0-2.8-.4-3.9-1.2-.7-.5-1-1.1-1-1.6 0-.3.1-.6.4-.8l.6-.6c.5-.5.7-1 .7-1.5 0-.4-.1-.7-.3-.9-.2-.2-.5-.3-.9-.3-.5 0-.9.2-1.2.7-.3.5-.5 1-.5 1.8 0 1.7.7 3 2.1 3.9 1.3.9 3.2 1.4 5.6 1.3 1 0 2.1-.2 3.1-.4 1-.3 2-.6 3-1s1.9-.9 2.7-1.5c.8-.6 1.6-1.2 2.2-1.8.6-.6 1.2-1.3 1.7-1.9.5-.6 1-1.3 1.5-2.2.5-.8 1-1.8 1.5-2.9.5-1.1 1.1-2.4 1.8-4 .5-1.4 1.1-2.6 1.7-3.7.5-1 1.1-1.9 1.6-2.7.6-.7 1.1-1.4 1.8-1.9.6-.5 1.3-1 2-1.4.5-.2.9-.4 1.2-.5.3-.1.7-.2 1.3-.4v-.7zm-18.4 16c-.9 1.2-2 1.8-3.4 1.8-1.1 0-2-.3-2.6-1-.6-.7-.9-1.7-1-2.9.1 0 .4.1.7.1h.8c1 0 2.1-.2 3.3-.6 1.1-.4 2.3-1 3.4-1.9 1.4-1.1 2.6-2.3 3.4-3.6.8-1.3 1.2-2.5 1.1-3.6 0-.8-.3-1.4-.7-1.8-.5-.5-1.2-.7-2-.7-.7 0-1.5.2-2.3.5-.8.3-1.6.8-2.4 1.4-.8.6-1.5 1.3-2.2 2.2-.7.8-1.3 1.7-1.9 2.7-.8 1.6-1.4 3.2-1.5 4.7-1-.4-1.8-1-2.4-1.9-.6-.9-.9-2-.9-3.3 0-1.5.3-3.1 1.2-4.6.8-1.5 1.9-2.8 3.3-3.9 2.4-1.9 5.5-2.9 9.2-3 1.2 0 2.5 0 3.7.3 1.3.2 2.9.5 4.8 1 1.5.4 2.8.7 3.8.9 1 .2 1.8.4 2.6.5.7.1 1.4.2 1.9.2.6 0 1.2.1 1.8.1 1.8 0 3.3-.5 4.5-1.3 1.1-.8 1.7-1.8 1.7-3.2 0-.7-.2-1.2-.5-1.5-.4-.3-.8-.6-1.2-.8l-.3.3c.2 0 .5.2.9.4.4.3.6.7.6 1.2 0 .8-.5 1.4-1.5 1.7-1.1.4-2.6.6-4.5.6-1.4 0-2.8 0-4.2-.2-1.3-.1-2.6-.3-3.9-.4-1.3-.2-2.6-.3-3.9-.4-1.3-.1-2.7-.2-4.2-.1-4.8.1-8.6 1.2-11.4 3.4-1.5 1.1-2.6 2.5-3.5 4.1-.8 1.6-1.3 3.2-1.2 4.8 0 1.5.3 2.7 1 3.6.7 1 1.6 1.7 2.8 2.1 0 1.5.4 2.7 1.1 3.4.7.8 1.6 1.1 2.8 1.1.8 0 1.5-.2 2.2-.6.7-.3 1.3-.8 1.6-1.4l-.6-.4zm-5.9-6.5c.6-1.2 1.4-2.4 2.3-3.4 1.1-1.2 2.2-2.2 3.3-2.8 1.1-.7 2.2-1 3.2-1 .8 0 1.3.2 1.8.5.4.4.6.8.6 1.5 0 1-.4 2.1-1.1 3.4-.8 1.2-1.9 2.4-3.3 3.5-1.1.9-2.2 1.5-3.3 1.9-1.1.4-2.1.6-3.1.6h-.8c-.3 0-.5-.1-.7-.1.2-1.5.5-2.9 1.1-4.1zm0 0"/></svg>