<svg version="1.1" id="Layer_1" xmlns="http://www.w3.org/2000/svg" x="0" y="0" width="549" height="311" style="enable-background:new 0 0 549 311" xml:space="preserve"><style>.st0,.st1,.st3,.st4{fill-rule:evenodd;clip-rule:evenodd;fill:#9ac1e3}.st1,.st3,.st4{fill:#5392cd}.st3,.st4{fill:#234175}.st4{fill:#344573}</style><path class="st0" d="m94.5 200.5-16.1 10.2V232h16.1zM111.3 166.8l-16.8 10.6v23.1l16.8-10.7z"/><path class="st1" d="m111.3 189.8-16.8 10.7V232h16.8z"/><path style="fill-rule:evenodd;clip-rule:evenodd;fill:#9bc0e6" d="M111.3 143.8v23l74.4-46.8v112h28.8V77.8z"/><path class="st3" d="M111.3 189.8V232h50.3v-74.2z"/><path class="st1" d="M111.3 166.8v23l50.3-32V232h24.1V120z"/><path class="st4" d="M264.4 208.3c.4 0 .7.2.7.7v4.7c0 .4-.2.7-.7.7h-5.6v17.1c0 .4-.2.7-.7.7h-5.2c-.4 0-.7-.2-.7-.7v-17.1h-5.6c-.4 0-.7-.2-.7-.7V209c0-.4.2-.7.7-.7h17.8zM277.2 226.3h9.2c.4 0 .7.2.7.7v4.5c0 .4-.2.7-.7.7h-15c-.4 0-.7-.2-.7-.7V209c0-.4.2-.7.7-.7h14.5c.4 0 .7.2.7.7v4.5c0 .4-.2.7-.7.7h-8.6v3.1h7.3c.4 0 .7.2.7.7v4.4c0 .4-.2.7-.7.7h-7.3v3.2zM302.8 232.6c-6.6 0-10.2-3.4-10.2-9.2V217c0-5.7 3.7-9.1 10.2-9.1 2.8 0 5.3.8 7.1 2 .4.2.4.6.2.9l-2.6 4c-.2.4-.5.4-.9.2-1-.6-2.3-.9-3.6-.9-2.4 0-3.8 1.4-3.8 3.3v5.7c0 2.2 1.4 3.4 3.6 3.4 1.5 0 2.9-.4 4.1-1.1.4-.2.7-.2.9.2l2.6 4c.2.3.3.6 0 .8-1.7 1.1-4.2 2.2-7.6 2.2zM328.2 209c0-.4.2-.7.7-.7h5.2c.4 0 .7.2.7.7v22.5c0 .4-.2.7-.7.7h-5.2c-.4 0-.7-.2-.7-.7v-8.3h-5.9v8.3c0 .4-.2.7-.7.7h-5.2c-.4 0-.7-.2-.7-.7V209c0-.4.2-.7.7-.7h5.2c.4 0 .7.2.7.7v8.1h5.9V209zM360.3 232.6c-6.3 0-9.9-3.4-9.9-9.2V217c0-5.7 3.7-9.1 10-9.1 2.9 0 5.8.8 8 2.1.4.2.4.6.2.9l-2.8 4c-.2.4-.5.4-.9.2-1.2-.7-2.8-1-4.5-1-2.3 0-3.4 1.2-3.4 3.2v6c0 2.1 1.1 3.3 3.3 3.3 1 0 2-.2 2.9-.6v-2.8h-2.8c-.4 0-.7-.2-.7-.7v-3.8c0-.4.2-.7.7-.7h8.2c.4 0 .7.2.7.7v9.8c0 .3-.1.6-.3.8-2.2 2-5.5 3.3-8.7 3.3zM382.1 214.3v4.9h2.3c1.9 0 2.7-.7 2.7-2.5 0-1.6-.8-2.4-2.7-2.4h-2.3zm5.8 17.9c-.4 0-.6-.1-.8-.5l-3.6-6.9h-1.4v6.7c0 .4-.2.7-.7.7h-5.2c-.4 0-.7-.2-.7-.7V209c0-.4.2-.7.7-.7h8.5c5.8 0 9 3.3 9 8.4 0 3.3-1.5 5.7-4.2 7l4.7 7.6c.3.5.1.8-.4.8h-5.9zM409.4 226.5c2.2 0 3.3-1.3 3.3-3.7v-5.1c0-2.4-1.1-3.6-3.3-3.6-2.2 0-3.3 1.2-3.3 3.6v5.1c-.1 2.4 1 3.7 3.3 3.7zm0 6.1c-6.3 0-10-3.6-10-9.7v-5.4c0-6.1 3.7-9.6 10-9.6s10 3.6 10 9.6v5.4c0 6.1-3.7 9.7-10 9.7zM435 232.6c-6.2 0-9.5-3.3-9.5-9.6v-14c0-.4.2-.7.7-.7h5.2c.4 0 .7.2.7.7v14.2c0 2.2 1 3.3 2.9 3.3s2.9-1.1 2.9-3.3V209c0-.4.2-.7.7-.7h5.2c.4 0 .7.2.7.7v14c0 6.3-3.3 9.6-9.5 9.6zM460.3 219.7c1.9 0 3-.9 3-2.7 0-1.8-1-2.7-3-2.7h-2.4v5.4h2.4zm1-11.4c5.2 0 8.6 3.5 8.6 8.7 0 5.2-3.5 8.7-8.6 8.7h-3.4v5.8c0 .4-.2.7-.7.7H452c-.4 0-.7-.2-.7-.7V209c0-.4.2-.7.7-.7h9.3z"/><path class="st3" d="M269.2 193.2c-9.4 0-16.3-2.8-24.1-9.2-.8-.7-.9-1.4-.4-2.2l6.2-9.1c.6-.7 1.4-.9 2.2-.3 5.5 3.9 11.1 6.4 17.1 6.5 6 0 10.2-2.1 10.2-6.2 0-4.8-5.5-6.3-11.8-7.6-9.3-2-23-6.6-23-21.8 0-13 10.9-19.4 24.9-19.4 8.1 0 14.6 2.1 22.2 7.2.9.6 1.1 1.4.5 2.2l-5.9 9c-.6.8-1.4 1-2.3.5-4.8-3.1-10.1-4.7-15.2-4.7-6.5 0-9.1 2.2-9.1 5.6 0 4.1 3.9 5.2 11.6 7.1 12.7 3.2 23.3 7.5 23.3 21.3-.1 13.3-10.4 21.1-26.4 21.1zM324.8 180.5c.8 0 1.9-.1 2.9-.2 1.2-.2 1.7.3 1.7 1.4v9.2c0 .9-.4 1.7-1.3 1.9-1.6.3-3.6.5-5.8.5-10.6 0-17.8-5.9-17.8-17.9v-42c0-1 .5-1.6 1.6-1.6h9.5c1 0 1.6.5 1.6 1.5l1.1 11.2h8.3c1 0 1.7.6 1.7 1.6v9c0 1-.6 1.6-1.7 1.6h-8.2v16.9c.3 4.6 2.4 6.9 6.4 6.9zM358.9 181.7c2.1 0 4.6-.4 6.2-.7v-8.2c-1.8-.4-4.3-.6-6.3-.6-5 0-7.2 1.7-7.2 4.7-.1 3.2 2.9 4.8 7.3 4.8zm.1-39.6c12.7 0 20.1 6.7 20.1 21v25.6c0 .9-.5 1.6-1.4 1.9-5.4 1.7-12.7 2.7-18.9 2.7-13.2 0-21.6-5.1-21.6-16.1 0-9.7 7.5-14.6 20-14.6 2.8 0 5.5.3 7.8.6v-.9c0-5-1.7-7.7-7.7-7.7-4 0-8.8 1.1-11.5 2.6-.8.5-1.7.4-2.2-.6l-3.8-7.3c-.5-.9-.5-1.6.2-2.1 4.5-2.7 11.2-5.1 19-5.1zM391.1 192.1c-1.1 0-1.6-.6-1.6-1.7v-42.5c0-.8.4-1.5 1.2-2 5-2.5 10.9-3.8 16.9-3.8 2.8 0 5.6.4 8.9.9 1 .2 1.5.7 1.5 1.8v8.6c0 1.1-.6 1.7-1.7 1.5-1.8-.3-3.8-.4-5.7-.4-2.8 0-5.2.5-7 1.2v34.6c0 1.1-.6 1.7-1.6 1.7h-10.9zM456.4 192.1c-.8 0-1.6-.3-1.9-1.1l-10.7-16.8-2.6 2.8v13.5c0 1.1-.6 1.7-1.6 1.7H429c-1.1 0-1.6-.6-1.6-1.7V127c0-1.1.6-1.7 1.6-1.7h10.6c1 0 1.6.6 1.6 1.7v33l11.6-15.4c.5-.7 1.1-1 1.9-1h12.8c1.3 0 1.7.8.8 2l-15.5 18.5 17.5 26.2c.7 1.1.3 2-1 2h-12.9z"/></svg>