<svg xmlns="http://www.w3.org/2000/svg" width="128" height="34.4" style="enable-background:new 0 0 128 34.4" xml:space="preserve"><path d="M123.8 14.1c0-.3.1-.6.3-.8.2-.2.5-.3.8-.3.3 0 .6.1.8.3.2.2.3.5.3.8 0 .3-.1.6-.3.8-.2.2-.5.3-.8.3-.3 0-.6-.1-.8-.3-.2-.2-.3-.5-.3-.8m.2 0c0 .3.1.5.3.7.2.2.4.3.7.3.3 0 .5-.1.7-.3.2-.2.3-.4.3-.7 0-.3-.1-.5-.3-.7-.2-.2-.4-.3-.7-.3-.3 0-.5.1-.7.3-.2.2-.3.4-.3.7zm.7.1v.5h-.2v-1.3h.4c.2 0 .3 0 .4.1.1.1.1.2.1.3v.2l-.1.1c.1 0 .1.1.1.1v.5h-.2V14.4c0-.1 0-.1-.1-.2 0 0-.1-.1-.2-.1h-.2zm0-.2h.4l.1-.1c0-.1 0-.1-.1-.2h-.4v.3zM37.1 7.9l-.6.1-1.6 6.7h-1.4L32 9.6l-1.4 5.1h-1.4L27.6 8l-.6-.1V7h2.8v.9l-.7.2.9 4.2L31.5 7h1.1l1.4 5.3h.1l.9-4.2-.7-.2V7h2.8zM42.5 11.3h-2.6v2.2h2.5l.1-.9h1.1v2.1h-6.1v-.9l.9-.2V8.1l-.9-.2V7h6.1v2.1h-1.2v-.9h-2.5v1.9h2.6zM50 9.5h-1.2l-.2-1.1c-.1-.1-.3-.2-.6-.2-.3-.1-.5-.1-.8-.1-.4 0-.8.1-1 .3-.2.2-.3.4-.3.7 0 .3.1.5.4.6.2.2.7.3 1.3.5.9.2 1.5.5 1.9.9.4.4.7.9.7 1.5 0 .7-.3 1.2-.8 1.6-.5.4-1.2.6-2.1.6-.6 0-1.2-.1-1.7-.3-.5-.2-.9-.5-1.2-.8v-1.6h1.2l.2 1.1.6.3c.3.1.6.1.9.1.4 0 .7-.1 1-.3.2-.2.3-.4.3-.7 0-.3-.1-.5-.3-.7-.2-.2-.6-.3-1.1-.5-.9-.3-1.6-.6-2.1-.9-.5-.4-.7-.9-.7-1.5s.3-1.1.8-1.5c.5-.4 1.2-.6 2-.6.6 0 1.1.1 1.6.3.5.2.9.4 1.2.7v1.6zM57.5 7v2.1h-1.1l-.1-.9h-1.4v5.4l.8.2v.9h-3.2v-.9l.8-.2V8.2h-1.4v.9h-1.2V7zM67.4 13.9c-.2.2-.6.5-1.1.7-.5.2-1.1.3-1.8.3-1 0-1.9-.3-2.5-1-.7-.7-1-1.6-1-2.7v-.3c0-1.2.3-2.1 1-2.8.6-.7 1.5-1.1 2.5-1.1.6 0 1.2.1 1.7.3.4.1.8.3 1.1.7v1.5h-1.1l-.2-1c-.1-.1-.3-.2-.6-.3-.2-.1-.5-.1-.8-.1-.7 0-1.2.2-1.6.7-.4.5-.6 1.1-.6 2v.3c0 .8.2 1.4.6 1.9.4.5.9.7 1.6.7.3 0 .6 0 .8-.1.2-.1.3-.1.5-.2v-1.3l-1.2-.1v-1.1h2.7v3zM68.1 13.8l.6-.1L70.9 7h1.6l2.3 6.7.6.1v.9h-2.6v-.9l.5-.1-.3-1.1h-2.5l-.3 1.1.5.1v.9h-2.6v-.9zm2.7-2.3h1.8l-.9-2.7-.9 2.7zM81.4 7v2.1h-1.2l-.1-.9h-1.4v5.4l.8.2v.9h-3.2v-.9l.8-.2V8.2h-1.4v.9h-1.2V7zM86.8 11.3h-2.6v2.2h2.5l.1-.9H88v2.1h-6.1v-.9l.8-.2V8.1l-.8-.2V7h6v2.1h-1.1l-.1-.9h-2.5v1.9h2.6zM95.4 7c.9 0 1.6.2 2.1.5.5.4.8.9.8 1.6 0 .4-.1.7-.3 1-.2.3-.5.5-.8.6.5.1.8.3 1 .6.2.3.3.7.3 1.1 0 .7-.2 1.3-.7 1.7-.5.4-1.2.6-2.1.6H92v-.9l.8-.2V8.1l-.8-.2V7h3.4zm-1.1 3.2h1.1c.4 0 .7-.1 1-.3.2-.2.3-.4.3-.7 0-.4-.1-.6-.3-.8-.2-.2-.6-.3-1-.3h-1.1v2.1zm0 1.1v2.2h1.4c.4 0 .7-.1.9-.3.2-.2.3-.4.3-.8s-.1-.7-.3-.9c-.2-.2-.5-.3-.9-.3h-1.4zM98.8 13.8l.6-.1 2.3-6.7h1.6l2.3 6.7.5.1v.9h-2.6v-.9l.5-.1-.3-1.1h-2.5l-.3 1.1.5.1v.9h-2.6v-.9zm2.8-2.3h1.8l-.9-2.7-.9 2.7zM114.5 7v.9l-.8.2v6.6h-1.5l-3.1-5.2h-.1v4.1l.8.2v.9h-3.1v-.9l.8-.2V8.1l-.8-.2V7h2.3l3.1 5.2h.1V8.1l-.9-.2V7zM115 13.8l.8-.2V8.1l-.8-.2V7h3.2v.9l-.8.2v2.1h.7l1.4-2.2-.4-.1V7h3v.9l-.8.2-1.9 2.5 2.1 3.1.8.1v.9h-3v-.9l.4-.1-1.4-2.2h-.9v2.1l.8.2v.9H115zM32.7 21.2c-.1.6-.3 1.1-.7 1.4-.4.4-.9.5-1.4.5-.5 0-.9-.2-1.2-.6-.3-.4-.4-.8-.3-1.4l.1-.8c.1-.6.3-1.1.7-1.4.4-.4.8-.5 1.4-.5.5 0 .9.2 1.2.6.3.4.4.8.3 1.4l-.1.8zm-.5-.8c.1-.4 0-.8-.2-1.1-.2-.3-.5-.4-.8-.4-.3 0-.6.1-.9.4-.3.3-.4.6-.5 1l-.1.8c-.1.4 0 .8.2 1.1.2.3.4.4.8.4s.7-.1.9-.4c.3-.3.4-.6.5-1l.1-.8zM35.4 23.1v-.5c-.1.2-.3.3-.5.4-.2.1-.4.1-.6.1-.4 0-.6-.1-.8-.4-.2-.2-.2-.6-.2-1.1l.3-2h.6l-.3 2c-.1.4 0 .6 0 .8.1.1.2.2.5.2.2 0 .4 0 .6-.1.2-.1.3-.2.4-.4l.4-2.5h.6l-.4 3.5h-.6zM38.9 20.2h-.3c-.2 0-.3 0-.4.1l-.3.3-.4 2.4h-.6l.5-3.4h.5v.5c.1-.2.3-.3.4-.4.2-.1.3-.1.5-.1h.2l-.1.6zM41.3 23.1h-.6l.5-3.4h.6l-.5 3.4zm.6-4.3h-.6l.1-.6h.6l-.1.6zM43.3 20.2c.1-.2.3-.3.5-.4.2-.1.4-.1.6-.1.3 0 .6.1.8.3.2.2.2.6.2 1l-.4 2.1h-.6l.3-2.2c0-.3 0-.5-.1-.7-.1-.1-.3-.2-.5-.2s-.3 0-.5.1c-.1.1-.3.2-.4.3l-.4 2.5h-.6l.5-3.4h.5l.1.7zM47.3 18.8l-.1.8h.6l-.1.5h-.6l-.3 2.1v.3c.1.1.1.1.2.1h.2v.4c-.1 0-.1.1-.2.1h-.3c-.2 0-.4-.1-.6-.2-.1-.2-.2-.4-.1-.7l.3-2.1H46l.1-.5h.5l.1-.8h.6zM49.4 23.2c-.5 0-.8-.2-1-.5-.2-.3-.3-.7-.2-1.2v-.1c.1-.5.3-.9.6-1.2.3-.3.7-.5 1.1-.5.4 0 .7.1.9.4.2.3.3.7.2 1.1v.3h-2.2c0 .4 0 .7.1.9.1.2.3.3.6.3.2 0 .4 0 .6-.1.2-.1.3-.1.4-.2l.2.4c-.1.1-.3.2-.5.3-.3 0-.5.1-.8.1m.3-3.1c-.2 0-.4.1-.6.3-.2.2-.3.4-.4.6h1.5c0-.3 0-.5-.1-.6.1-.2-.1-.3-.4-.3zM53.3 20.2H53c-.2 0-.3 0-.4.1l-.3.3-.4 2.4h-.6l.5-3.4h.5v.5c.1-.2.3-.3.4-.4.2-.1.3-.1.5-.1h.2l-.1.6zM54.9 23.2c-.5 0-.8-.2-1-.5-.2-.3-.3-.7-.2-1.2v-.1c.1-.5.3-.9.6-1.2.3-.3.7-.5 1.1-.5.4 0 .7.1.9.4.2.3.3.7.2 1.1v.3h-2.2c0 .4 0 .7.1.9.1.2.3.3.6.3.2 0 .4 0 .6-.1.2-.1.3-.1.4-.2l.2.4c-.1.1-.3.2-.5.3-.3 0-.5.1-.8.1m.3-3.1c-.2 0-.4.1-.6.3-.2.2-.3.4-.4.6h1.5c0-.3 0-.5-.1-.6.1-.2-.1-.3-.4-.3zM58.9 22.2c0-.1 0-.3-.1-.3-.1-.1-.3-.2-.6-.2-.4-.1-.7-.2-.9-.4-.2-.2-.3-.4-.2-.6 0-.3.2-.5.4-.7.3-.2.6-.3.9-.3.4 0 .7.1.9.3.2.2.3.5.3.7H59c0-.2 0-.3-.1-.4-.1-.1-.3-.2-.5-.2s-.4 0-.5.1c-.1.1-.2.2-.2.4 0 .1 0 .2.1.3.1.1.3.1.5.2.4.1.7.2.9.4.2.2.3.4.2.6 0 .3-.2.6-.5.8-.3.2-.6.3-1 .3s-.7-.1-1-.3c-.2-.2-.3-.5-.3-.8h.6c0 .2 0 .4.2.5.1.1.3.2.5.2s.4 0 .5-.1c.4-.3.5-.4.5-.5M61.6 18.8l-.1.8h.6l-.1.5h-.6l-.3 2.1v.3c.1.1.1.1.2.1h.2v.4c-.1 0-.1.1-.2.1H61c-.2 0-.4-.1-.6-.2-.1-.2-.2-.4-.1-.7l.3-2.1h-.5l.1-.5h.5l.1-.8h.8zM64.5 23.1h-.6l.5-3.4h.6l-.5 3.4zm.7-4.3h-.6l.1-.6h.6l-.1.6zM67.6 22.2c0-.1 0-.3-.1-.3-.1-.1-.3-.2-.6-.2-.4-.1-.7-.2-.9-.4-.2-.2-.3-.4-.2-.6 0-.3.2-.5.4-.7.3-.2.6-.3.9-.3.4 0 .7.1.9.3.2.2.3.5.3.7h-.6c0-.2 0-.3-.1-.4-.1-.1-.3-.2-.5-.2s-.4 0-.5.1c-.1.1-.2.2-.2.4 0 .1 0 .2.1.3.1.1.3.1.5.2.4.1.7.2.9.4.2.2.3.4.2.6 0 .3-.2.6-.5.8-.3.2-.6.3-1 .3s-.7-.1-1-.3c-.2-.2-.3-.5-.3-.8h.6c0 .2 0 .4.2.5.1.1.3.2.5.2s.4 0 .5-.1c.4-.3.4-.4.5-.5M71.7 21.7v.2l1-2.2h1l-1.9 4c-.1.2-.3.5-.5.6-.2.2-.4.3-.8.3h-.2c-.1 0-.1 0-.2-.1l.2-.7h.2c.1 0 .3 0 .4-.1.1-.1.2-.2.2-.3l.1-.3-.7-3.4h1l.2 2zM73.6 21.4c.1-.5.3-1 .6-1.3.3-.3.7-.5 1.2-.5s.8.2 1.1.5c.2.3.3.7.3 1.3v.1c-.1.5-.3 1-.6 1.3-.3.3-.7.5-1.2.5s-.8-.2-1.1-.5c-.3-.4-.4-.9-.3-1.4zm.9 0v.8c.1.2.2.3.5.3.2 0 .4-.1.5-.3.1-.2.2-.4.3-.8v-.1c0-.3 0-.6-.1-.8-.1-.2-.2-.3-.5-.3-.2 0-.4.1-.6.3 0 .3-.1.6-.1.9zM79.2 22.6c-.1.2-.3.3-.5.4-.2.1-.4.1-.6.1-.3 0-.6-.1-.8-.4-.2-.2-.2-.6-.1-1.1l.3-2h.9l-.3 2v.6c.1.1.2.2.3.2.1 0 .3 0 .4-.1.1 0 .2-.1.3-.2l.4-2.5h.9l-.4 3.5h-.8v-.5zM5.8 11.4 4 8.5 0 9.8l3.3 5.3h4.8zM25.7 2l-5.5 1.8-4.4 7.6 2.3 3.7zM8.1 8.4l-1.8 3 2.3 3.7 1.8-3.1-2.3-3.6zM15.3 11.4 12 6.3 8.1 7.5l.5.9 2.3 3.7 1.9 3h4.8zM1.1 28.9H2l.3 1.7c.1.4.1.7.1 1.1.1-.4.1-.7.2-1.1l.4-1.7h.8l.4 1.7c.1.4.1.7.2 1.1.1-.4.1-.7.1-1.1l.3-1.7h.9L5 32.6H3.9l-.3-1.5c-.1-.3-.1-.7-.2-1.1-.1.4-.1.7-.2 1.1l-.3 1.5h-1l-.8-3.7zM6 30.7c0-1.2.7-1.9 1.5-1.9.9 0 1.3.8 1.3 1.8v.5H6.9c.1.5.4.8.8.8.2 0 .4-.1.7-.2l.3.7c-.3.3-.7.4-1.1.4-.9-.1-1.6-.9-1.6-2.1m2-.4c0-.4-.2-.7-.5-.7s-.5.2-.6.7H8zM9.2 32.1l.4-.7c.3.3.5.4.8.4.3 0 .4-.1.4-.3 0-.2-.3-.4-.6-.5-.4-.2-.8-.5-.8-1.1 0-.7.5-1.1 1.2-1.1.5 0 .8.2 1.1.5l-.4.7c-.2-.2-.4-.3-.7-.3-.2 0-.4.1-.4.3 0 .2.3.3.6.5.4.2.8.4.8 1.1 0 .7-.4 1.2-1.3 1.2-.4-.1-.8-.3-1.1-.7M12.2 31.2v-1.5h-.4v-.8h.5l.1-1h.8v1h.7v.9h-.7v1.5c0 .4.2.6.4.6.1 0 .2 0 .3-.1l.1.8c-.2.1-.4.1-.7.1-.8 0-1.1-.6-1.1-1.5M14.2 33.2c0-.3.2-.5.4-.7-.2-.1-.3-.3-.3-.6s.2-.5.4-.7c-.2-.2-.4-.5-.4-1 0-.9.6-1.3 1.3-1.3.2 0 .3 0 .5.1h1.1v.8h-.5c.1.1.1.3.1.5 0 .8-.5 1.2-1.2 1.2-.1 0-.2 0-.4-.1-.1.1-.1.1-.1.3 0 .2.1.3.5.3h.5c.8 0 1.2.3 1.2.9 0 .8-.7 1.3-1.7 1.3-.8-.1-1.4-.3-1.4-1m2.2-.2c0-.2-.2-.3-.5-.3h-.7c-.1.1-.2.2-.2.3 0 .3.3.4.7.4.4.1.7-.1.7-.4zm-.4-2.9c0-.4-.2-.6-.4-.6s-.4.2-.4.6c0 .4.2.6.4.6.3 0 .4-.2.4-.6zM17.5 31.5c0-.8.5-1.2 1.8-1.3 0-.3-.2-.5-.5-.5s-.5.1-.8.3l-.3-.7c.4-.3.8-.5 1.3-.5.8 0 1.2.5 1.2 1.7v2.1h-.8l-.1-.4c-.3.3-.6.5-.9.5-.5 0-.9-.5-.9-1.2m1.8 0v-.6c-.7.1-.9.3-.9.6 0 .2.1.3.4.3.2 0 .3-.1.5-.3zM21 31.2v-1.5h-.4v-.8h.5l.1-1h.8v1h.7v.9H22v1.5c0 .4.2.6.4.6.1 0 .2 0 .3-.1l.1.8c-.2.1-.4.1-.7.1-.8 0-1.1-.6-1.1-1.5M23 30.7c0-1.2.7-1.9 1.5-1.9.9 0 1.3.8 1.3 1.8v.5h-1.9c.1.5.4.8.8.8.2 0 .4-.1.7-.2l.3.7c-.3.3-.7.4-1.1.4-.9-.1-1.6-.9-1.6-2.1m2-.4c0-.4-.2-.7-.5-.7s-.5.2-.6.7H25zM26.4 32c0-.4.2-.7.6-.7.3 0 .6.3.6.7 0 .4-.2.7-.6.7-.4 0-.6-.3-.6-.7M29.1 32.2l-.1.4h-.7v-5.2h.9v1.9c.2-.3.5-.4.8-.4.8 0 1.2.7 1.2 1.9 0 1.3-.6 2-1.3 2-.3-.1-.5-.3-.8-.6m1.2-1.5c0-.7-.2-1-.5-1-.2 0-.4.1-.5.3v1.5c.2.2.3.2.5.2.2.1.5-.3.5-1zM31.7 31.5c0-.8.5-1.2 1.8-1.3 0-.3-.2-.5-.5-.5s-.5.1-.8.3l-.3-.7c.4-.3.8-.5 1.3-.5.8 0 1.2.5 1.2 1.7v2.1h-.8l-.1-.4c-.3.3-.6.5-.9.5-.6 0-.9-.5-.9-1.2m1.7 0v-.6c-.7.1-.9.3-.9.6 0 .2.1.3.4.3.2 0 .4-.1.5-.3zM35.1 28.9h.8l.1.5c.3-.3.6-.6 1-.6.7 0 1 .6 1 1.5v2.3h-1v-2.1c0-.5-.1-.7-.4-.7-.2 0-.4.1-.6.4v2.5h-.9v-3.8zM38.7 27.4h.9v3l1-1.5h1l-1.1 1.5 1.2 2.2h-1l-.7-1.5-.4.6v.9h-.9zM44.8 27h.5v7.4h-.5zM50.2 31.3h-1.8v-.4l1.7-3h.6v2.9h.5v.5h-.5v1.3h-.5v-1.3zm0-.5v-2.3c-.1.2-.2.4-.3.7l-.9 1.6h1.2zM51.7 30.2c0-1.6.5-2.4 1.3-2.4s1.3.9 1.3 2.4c0 1.6-.5 2.5-1.3 2.5s-1.3-.9-1.3-2.5m2 0c0-1.4-.3-2-.8-2s-.8.6-.8 2 .3 2 .8 2 .8-.6.8-2zM54.8 32.2c1.2-1.4 1.9-2.3 1.9-3 0-.5-.3-.9-.8-.9-.3 0-.6.3-.9.6l-.3-.3c.3-.4.7-.7 1.2-.7.7 0 1.2.6 1.2 1.4 0 .9-.7 1.8-1.6 2.9h1.9v.5h-2.6v-.5zM58 32.2c0-.3.2-.5.4-.5s.4.2.4.5-.2.5-.4.5-.4-.2-.4-.5M61.1 31.3h-1.8v-.4l1.7-3h.6v2.9h.5v.5h-.5v1.3h-.5v-1.3zm0-.5v-2.3c-.1.2-.2.4-.3.7l-.9 1.6h1.2zM62.5 32l.3-.4c.2.3.6.6 1 .6.5 0 .8-.3.8-.9 0-.6-.3-.9-1.3-.9v-.5c.9 0 1.1-.4 1.1-.9s-.3-.8-.7-.8c-.3 0-.6.2-.9.5l-.3-.4c.3-.3.7-.6 1.2-.6.7 0 1.2.4 1.2 1.2 0 .6-.3.9-.7 1.1.5.1.9.5.9 1.2 0 .8-.6 1.3-1.3 1.3-.6.2-1-.2-1.3-.5M67.4 31.3h-1.8v-.4l1.7-3h.6v2.9h.5v.5h-.5v1.3h-.5v-1.3zm0-.5v-2.3c-.1.2-.2.4-.3.7l-.9 1.6h1.2zM69 32.2c0-.3.2-.5.4-.5s.4.2.4.5-.2.5-.4.5c-.3 0-.4-.2-.4-.5M70.3 32l.3-.4c.2.3.6.6 1 .6.5 0 .8-.3.8-.9 0-.6-.3-.9-1.3-.9v-.5c.9 0 1.1-.4 1.1-.9s-.3-.8-.7-.8c-.3 0-.6.2-.9.5l-.3-.4c.3-.3.7-.6 1.1-.6.7 0 1.2.4 1.2 1.2 0 .6-.3.9-.7 1.1.5.1.9.5.9 1.2 0 .8-.6 1.3-1.3 1.3-.5.2-.9-.2-1.2-.5M75.2 31.3h-1.8v-.4l1.7-3h.6v2.9h.5v.5h-.5v1.3h-.5v-1.3zm0-.5v-2.3c-.1.2-.2.4-.3.7l-.9 1.6h1.2zM76.5 32l.3-.4c.2.3.5.5 1 .5s.9-.4.9-1.1c0-.7-.3-1-.9-1-.3 0-.4.1-.7.3l-.3-.2.1-2.3h2v.5h-1.6l-.1 1.4c.2-.1.4-.2.6-.2.7 0 1.2.5 1.2 1.5s-.7 1.6-1.4 1.6c-.4.1-.8-.3-1.1-.6M79.8 30.4c0-1.9.7-2.6 1.5-2.6.4 0 .7.2 1 .5l-.3.3c-.2-.2-.4-.4-.7-.4-.6 0-1 .5-1.1 2 .3-.4.6-.6.9-.6.7 0 1.1.5 1.1 1.5 0 .9-.5 1.5-1.2 1.5-.6.1-1.2-.7-1.2-2.2m2.1.7c0-.6-.2-1-.7-1-.3 0-.6.2-.8.6.1.9.4 1.4.9 1.4.3.1.6-.3.6-1zM85.7 27h.7v7.4h-.7zM89.7 29h.4v.5c.3-.3.6-.6.9-.6.5 0 .7.3.8.7.3-.4.6-.7 1-.7.6 0 .9.5.9 1.4v2.3h-.5v-2.2c0-.7-.2-1-.6-1-.2 0-.5.2-.8.6v2.6h-.5v-2.2c0-.7-.2-1-.6-1-.2 0-.5.2-.8.6v2.6h-.5V29zM94.6 30.8c0-1.2.7-1.9 1.4-1.9.8 0 1.2.7 1.2 1.7v.3h-2.1c0 .8.4 1.3 1 1.3.3 0 .5-.1.8-.3l.2.4c-.3.2-.6.4-1 .4-.8 0-1.5-.7-1.5-1.9m2.2-.3c0-.7-.3-1.1-.8-1.1-.4 0-.8.4-.9 1.1h1.7zM98 29h.4v.5c.3-.3.6-.6.9-.6.5 0 .7.3.8.7.3-.4.6-.7 1-.7.6 0 .9.5.9 1.4v2.3h-.5v-2.2c0-.7-.2-1-.6-1-.2 0-.5.2-.8.6v2.6h-.5v-2.2c0-.7-.2-1-.6-1-.2 0-.5.2-.8.6v2.6H98V29zM103.7 32.2l-.1.4h-.4v-5.3h.5V29.4c.3-.3.6-.5 1-.5.8 0 1.2.7 1.2 1.8 0 1.2-.6 2-1.3 2-.4 0-.7-.2-.9-.5m1.6-1.5c0-.8-.2-1.3-.8-1.3-.3 0-.5.2-.8.5v1.9c.3.3.5.4.7.4.5-.1.9-.6.9-1.5zM106.4 30.8c0-1.2.7-1.9 1.4-1.9.8 0 1.2.7 1.2 1.7v.3h-2.1c0 .8.4 1.3 1 1.3.3 0 .5-.1.8-.3l.2.4c-.3.2-.6.4-1 .4-.8 0-1.5-.7-1.5-1.9m2.2-.3c0-.7-.3-1.1-.8-1.1-.4 0-.8.4-.9 1.1h1.7zM109.8 29h.4v.7c.2-.5.5-.7.9-.7.1 0 .2 0 .3.1l-.1.5c-.1 0-.2-.1-.3-.1-.3 0-.6.2-.8.8v2.3h-.5V29zM113.2 27.7h2.4v.5h-1.8v1.7h1.5v.5h-1.5v2.2h-.6zM116.3 27.7h1c1.3 0 1.9.9 1.9 2.4 0 1.6-.7 2.5-1.9 2.5h-1.1v-4.9zm1 4.4c1 0 1.4-.7 1.4-2 0-1.2-.5-1.9-1.4-1.9h-.5v3.9h.5zM120.2 27.7h.5v4.9h-.5zM121.6 30.1c0-1.6.8-2.5 1.8-2.5.5 0 .9.3 1.1.6l-.3.4c-.2-.3-.5-.5-.8-.5-.8 0-1.3.8-1.3 2s.5 2 1.3 2c.4 0 .7-.2 1-.5l.3.4c-.3.4-.7.7-1.3.7-1 0-1.8-1-1.8-2.6"/></svg>