<svg version="1.1" id="Layer_1" xmlns="http://www.w3.org/2000/svg" x="0" y="0" width="760.6" height="504" style="enable-background:new 0 0 760.6 504" xml:space="preserve"><style>.st0{fill:#fff}.st1{fill:#e71910}</style><path d="M41.3 204.1V230h14v-9.2h8.8v46.3h-3.2V284h24v-17.5H82v-46h8.9v9.3h14.9v-25.7zM120.6 204.1v16.6h2.3v47.1h-3.6v16.7h24v-17.1h-3.1v-47.1h2.4v-16.2zM463.9 204.1V231H478v-9.3h8.8V268h-3.2v17h24v-17.6h-2.9v-45.9h8.9v9.2h14.9v-26.6zM543 204.1l.3 17.6h2.3v47H542v16.8h24v-17.1h-3.2v-47.1h2.4l-.2-17.2zM155.6 204.1V221c.2 0 .6-.1 1 .1 1 .4 1.2 1.5 1.2 1.6 0 14.8.1 29.7.1 44.5h-3.4V284h24.6v-17.8h-3.4v-13.1h8.4l18.6 31.5h17.1l-.6-17.2h-4.3l-2.8-3.9h-.8v-1.1l-12.9-17.9 15.7-23.2h6.7v-16h-17.1L184.4 235h-8.7v-13.5h3.6v-17.3h-23.7zM234.2 204.1v80.4H296v-80.4h-61.8zm44 62.5h-27v-45.7h27v45.7zM366.4 267.3l-6.5-12.7v-1.7h12.2l-.5-48.8H307V221c.2 0 .6-.1 1 .1 1 .4 1.2 1.5 1.2 1.6 0 14.8.1 29.7.1 44.5h-3.4V284h24.6v-17.8h-3.4v-13.1h8.4l18.6 31.5h17.1l-.6-17.2h-4.2zm-11.9-32.2h-26.7v-13.9h26.7v13.9zM430.6 221h-27.1v6.9l45.7 20.4v37.2h-62.9v-21.3h18.5v3.5h25.7v-7.2l-44.2-20.2v-36.2h62.9v20.8h-18.6zM211.2 262.2l.4.6.4.6"/><path class="st0" d="M36.8 200.2v25.9h14v-9.3h8.8v46.3h-3.2v17h24v-17.5h-2.9v-46h8.9v9.3h14.9v-25.7zM116.1 200.2v16.6h2.4v47.1h-3.7v16.7h24v-17.1h-3.1v-47.1h2.4v-16.2zM459.5 200.2v26.9h14v-9.3h8.8v46.3h-3.2V281h24v-17.5h-2.9v-45.9h8.9v9.2H524v-26.6zM538.5 200.2l.3 17.6h2.4v47h-3.7v16.7h24v-17.1h-3.1v-47h2.4l-.3-17.2zM151.1 200.2V217c.2 0 .6-.1 1 .1 1 .4 1.2 1.5 1.2 1.6 0 14.8.1 29.7.1 44.5H150v16.9h24.6v-17.8h-3.4v-13.1h8.4l18.6 31.5h17.1l-.6-17.2h-4.3l-16.6-22.9 15.7-23.2h6.7v-16H199l-19.1 29.9h-8.7v-13.5h3.6v-17.3h-23.7zM229.7 200.2v80.4h61.8v-80.4h-61.8zm44.1 62.5h-27V217h27v45.7zM361.9 263.4l-6.5-12.7V249h12.2l-.5-48.8h-64.6V217c.2 0 .6-.1 1 .1 1 .4 1.2 1.5 1.2 1.6 0 14.8.1 29.7.1 44.5h-3.4v16.9H326v-17.8h-3.4v-13.1h8.4l18.6 31.5h17.1l-.6-17.2h-4.2zM350 231.1h-26.7v-13.9H350v13.9zM426.1 217.1H399v6.9l45.7 20.4v37.1h-62.9v-21.2h18.5v3.5H426v-7.2l-44.2-20.2v-36.2h62.9V221h-18.6z"/><path class="st0" d="M36.8 200.2v25.9h14v-9.3h8.8v46.3h-3.2v17h24v-17.5h-2.9v-46h8.9v9.3h14.9v-25.7zM116.1 200.2v16.6h2.4v47.1h-3.7v16.7h24v-17.1h-3.1v-47.1h2.4v-16.2z"/><g><path class="st0" d="M459.5 200.2v26.9h14v-9.3h8.8v46.3h-3.2V281h24v-17.5h-2.9v-45.9h8.9v9.2H524v-26.6zM538.5 200.2l.3 17.6h2.4v47h-3.7v16.7h24v-17h-3.1v-47.1h2.4l-.3-17.2z"/></g><path class="st0" d="M151.1 200.2V217c.2 0 .6-.1 1 .1 1 .4 1.2 1.5 1.2 1.6 0 14.8.1 29.7.1 44.5H150v16.9h24.6v-17.8h-3.4v-13.1h8.4l18.6 31.5h17.1l-.6-17.2h-4.3l-16.6-22.9 15.7-23.2h6.7v-16H199l-19.1 29.9h-8.7v-13.5h3.6v-17.3h-23.7zM229.7 200.2v80.4h61.8v-80.4h-61.8zm44.1 62.5h-27V217h27v45.7zM361.9 263.4l-6.5-12.7V249h12.2l-.5-48.8h-64.6V217c.2 0 .6-.1 1 .1 1 .4 1.2 1.5 1.2 1.6 0 14.8.1 29.7.1 44.5h-3.4v16.9H326v-17.8h-3.4v-13.1h8.4l18.6 31.5h17.1l-.6-17.2h-4.2zM350 231.1h-26.7v-13.9H350v13.9zM426.1 217.1H399v6.9l45.7 20.4v37.1h-62.9v-21.2h18.5v3.5H426v-7.2l-44.2-20.2v-36.2h62.9V221h-18.6z"/><g><path class="st1" d="M33.2 196.8v25.9h14v-9.3H56v46.3h-3.2v17h24v-17.5h-2.9v-46h8.9v9.2h14.9v-25.6zM112.5 196.8v16.6h2.4v47.1h-3.7v16.7h24v-17.1h-3.1V213h2.4v-16.2zM455.9 196.8v26.9h14v-9.3h8.8v46.3h-3.2v16.9h24v-17.5h-2.9v-46h8.9v9.3h14.9v-26.6zM534.9 196.8l.3 17.5h2.4v47.1h-3.7v16.7h24V261h-3.1v-47.1h2.4l-.3-17.1zM147.5 196.8v16.8c.2 0 .6-.1 1 .1 1 .4 1.2 1.5 1.2 1.6 0 14.8.1 29.7.1 44.5h-3.4v16.9H171v-17.8h-3.4v-13.1h8.4l18.6 31.5h17.1l-.6-17.2h-4.3L190.2 237l15.7-23.2h6.7v-16h-17.1l-19.1 29.9h-8.7v-13.5h3.6v-17.3h-23.8zM226.1 196.8v80.4h61.8v-80.4h-61.8zm44.1 62.5h-27v-45.7h27v45.7zM358.3 259.9l-6.5-12.7v-1.7H364l-.5-48.8h-64.6v16.8c.2 0 .6-.1 1 .1 1 .4 1.2 1.5 1.2 1.6 0 14.8.1 29.7.1 44.5h-3.4v16.9h24.6v-17.8H319v-13.1h8.4l18.6 31.5h17.1l-.6-17.2h-4.2zm-11.9-32.2h-26.7v-13.9h26.7v13.9zM422.5 213.7h-27v6.9l45.7 20.4v37.1h-63v-21.2h18.5v3.5h25.7v-7.2l-44.2-20.3v-36.1h63v20.8h-18.7z"/></g></svg>