<svg version="1.1" id="Layer_1" xmlns="http://www.w3.org/2000/svg" x="0" y="0" width="792" height="612" style="enable-background:new 0 0 792 612" xml:space="preserve"><style>.st0{fill:#404041}</style><path class="st0" d="M336.7 309.5v-2.8h5.1v2.2c0 .4.2.6.6.6h4.9c.4 0 .6-.2.6-.6v-2.3c0-.5-.2-.6-.9-.8l-5.7-1.4c-2.9-.7-4.4-1.5-4.4-4.4v-3.5c0-2.9 1.4-4.3 4.3-4.3h7.3c2.9 0 4.3 1.4 4.3 4.3v2.6h-5.1v-1.9c0-.5-.2-.6-.6-.6h-4.4c-.4 0-.6.1-.6.6v2c0 .5.2.6.9.8l5.7 1.4c2.9.7 4.4 1.5 4.4 4.4v3.8c0 2.9-1.4 4.3-4.3 4.3h-7.7c-3-.1-4.4-1.5-4.4-4.4zM360.4 296.7h-5.6v-4.5h16.4v4.5h-5.6v17.1h-5.1v-17.1zM373.9 292.2h14.9v4.4h-9.7v3.9h7.8v4.4h-7.8v4.4h9.7v4.4h-14.9v-21.5zM392.3 292.2h14.9v4.4h-9.7v3.9h7.8v4.4h-7.8v4.4h9.7v4.4h-14.9v-21.5zM410.6 292.2h5.1v17.1h9v4.5h-14.1v-21.6zM451.4 313.8h-5.3l-3.6-7.4h-3v7.4h-5.1v-21.6h12c2.9 0 4.3 1.4 4.3 4.3v5.4c0 2.4-1 3.8-3 4.1l3.7 7.8zm-6.4-11.7c.4 0 .6-.1.6-.6v-4.4c0-.5-.2-.6-.6-.6h-5.5v5.5h5.5zM454.5 292.2h5.1v21.6h-5.1v-21.6zM462.1 292.2h5.5l4.1 16.1 4.1-16.1h5.4l-6.6 21.6h-5.9l-6.6-21.6zM483.7 292.2h14.9v4.4h-9.7v3.9h7.8v4.4h-7.8v4.4h9.7v4.4h-14.9v-21.5zM518.3 313.8H513l-3.6-7.4h-3v7.4h-5.1v-21.6h12c2.9 0 4.3 1.4 4.3 4.3v5.4c0 2.4-1 3.8-3 4.1l3.7 7.8zm-6.5-11.7c.4 0 .6-.1.6-.6v-4.4c0-.5-.2-.6-.6-.6h-5.5v5.5h5.5z"/><g><path class="st0" d="M466.7 329.6v-7c0-1.6.7-2.3 2.3-2.3h3.6c1.6 0 2.3.7 2.3 2.3v1.1h-1.2v-1.1c0-.9-.3-1.2-1.2-1.2h-3.4c-.9 0-1.2.3-1.2 1.2v7c0 .9.3 1.2 1.2 1.2h3.4c.9 0 1.2-.3 1.2-1.2V327h-3v-1h4.2v3.7c0 1.6-.7 2.3-2.3 2.3H469c-1.6 0-2.3-.8-2.3-2.4zM486 332h-1.3l-2.6-4.8h-3.2v4.8h-1.2v-11.6h5.6c1.6 0 2.3.7 2.3 2.3v2.2c0 1.5-.7 2.3-2.2 2.3l2.6 4.8zm-2.7-5.9c.9 0 1.2-.3 1.2-1.2v-2.2c0-.9-.3-1.2-1.2-1.2h-4.4v4.6h4.4zM488.3 329.6v-7c0-1.6.7-2.3 2.3-2.3h3.7c1.6 0 2.3.7 2.3 2.3v7c0 1.6-.7 2.3-2.3 2.3h-3.7c-1.6.1-2.3-.7-2.3-2.3zm5.9 1.3c.9 0 1.2-.3 1.2-1.2v-7c0-.9-.3-1.2-1.2-1.2h-3.5c-.9 0-1.2.3-1.2 1.2v7c0 .9.3 1.2 1.2 1.2h3.5zM499.3 329.6v-9.3h1.2v9.3c0 .9.3 1.2 1.2 1.2h3.3c.9 0 1.2-.3 1.2-1.2v-9.3h1.2v9.3c0 1.6-.7 2.3-2.3 2.3h-3.5c-1.6.1-2.3-.7-2.3-2.3zM510.4 320.4h5.7c1.5 0 2.3.8 2.3 2.3v2.4c0 1.5-.8 2.3-2.3 2.3h-4.5v4.5h-1.2v-11.5zm5.6 6c.8 0 1.2-.4 1.2-1.2v-2.5c0-.8-.4-1.2-1.2-1.2h-4.4v4.9h4.4z"/></g><g><path class="st0" d="M299.6 326.2c-11.2 0-20.2-9-20.2-20.2 0-1.5.2-3 .5-4.4l-5.3-2.3c-3.3 12.2 2.7 25.4 14.7 30.6 12 5.2 25.7.6 32.4-10.1l-5.4-2.3c-3.7 5.2-9.8 8.7-16.7 8.7zM299.6 285.8c11.2 0 20.2 9 20.2 20.2 0 1.5-.2 3-.5 4.4l5.3 2.3c3.3-12.2-2.8-25.4-14.8-30.5-12-5.2-25.7-.6-32.4 10.2l5.4 2.3c3.7-5.4 9.8-8.9 16.8-8.9z"/><g><path d="M293.7 302.6c-2.9-1.1-5.6-2.5-5.3-4.2.6-2.6 18.7-4 22.4-4.3-3-2.8-7-4.6-11.4-4.6-9.1 0-16.4 7.3-16.4 16.4 0 2.5.6 4.8 1.5 6.9 20.4-5.6 16.1-7.6 9.2-10.2z" style="fill-rule:evenodd;clip-rule:evenodd;fill:#1e73b1"/><path d="M312.5 295.9c-4 .5-19.9 1.5-14.7 4.2 2.3 1.2 6.3 2.2 9.3 3.8 10.4 5.5-1.3 13.5-9.1 18.4.5 0 1 .1 1.6.1 9.1 0 16.4-7.3 16.4-16.4 0-4.1-1.5-7.5-3.5-10.1z" style="fill-rule:evenodd;clip-rule:evenodd;fill:#40aacb"/></g></g></svg>