<svg version="1.1" id="Layer_1" xmlns="http://www.w3.org/2000/svg" x="0" y="0" width="612" height="792" style="enable-background:new 0 0 612 792" xml:space="preserve"><style>.st1{fill:#233c77}</style><path d="M388.7 422.2c26.1-5.5 44.9-30.5 41.1-59.2-.3-2-.7-4.1-1.2-6.1s-1.1-3.9-1.8-5.8-1.5-3.7-2.5-5.5c-.9-1.8-2-3.5-3.1-5.1-1.2-1.7-2.4-3.3-3.7-4.8-1.6-1.8-3.3-3.5-5-5.1-1.2-1.1-2.5-2.2-3.9-3.1-.2-.1-.3-.2-.5-.3-.2-.1-.3-.1-.5-.2-.1 0-.1-.1-.2-.1l.1.1.2.2.2.2.3.3c.2.2.3.4.5.5.6.6 1.3 1.2 1.9 1.9.2.3.5.5.7.8 2.9 3.1 5.4 6.6 7.4 10.3 5.6 10.3 7.7 21.4 5.9 33-1.6 10.7-6.1 20.1-13.6 27.9-10.6 11-23.6 15.2-38.5 12.2-17.9-3.6-30.9-18.3-32.5-36.4-.9-10.3 1.7-19.8 7.9-28.2 6.3-8.5 14.6-13.4 25.4-13.8 9.1-.3 17 2.8 23.3 9.3 7.6 7.8 10.5 17.3 8.5 28.1-3 16.3-18.9 28.5-37.4 24.8-10-2-17.3-7.9-21.9-17-.2-.3-.4-.7-.7-1.2 0 .4-.1.5-.1.6 1.2 6.9 4.1 13.1 9 18.2 9.4 9.8 20.8 13.5 34.2 11.1 8.2-1.5 14.9-5.8 20.4-12.1 9.3-10.7 13.3-23.1 11.6-37.1-1.5-12.7-7.3-23.3-17.3-31.3-11-8.8-23.7-12.1-37.6-9.9-11.4 1.8-21 7.3-28.5 16.1-10.4 12.3-14.5 26.5-12.4 42.4 1.4 10.4 5.6 19.6 12.7 27.3 13.9 15.5 31.3 21.3 51.6 17zm-50.3-25.9c-.2.1-.2-.1-.3-.2-2.4-3-3.8-6.5-5.2-10.1-2.4-6.4-3.2-13-2.5-19.7 1.1-11.6 5.8-21.6 14.3-29.6 6.5-6.2 14.2-9.9 23.1-11 15.9-2 32.2 5.4 40.7 20.3 3.8 6.7 5.8 14 5.5 21.8-.5 10.9-4.5 20.3-12.4 28-3.7 3.6-8.1 6.1-13.2 7.5-.5.1-1 .4-1.8.2 3.2-1.2 6.2-2.6 8.9-4.5 8.7-6.1 14.2-14.3 16-24.7 2.2-13-1.4-24.4-10.7-33.7-5.8-5.8-12.9-9.4-21.1-10.5-13.8-1.8-25.3 2.6-34.6 12.9-5.4 6.1-9 13.1-10.7 21.1-2.2 10.5-1.2 20.6 3.3 30.3.2.5.6 1 .6 1.6.1 0 .3.1.1.3zm.2.4c.5.1.5.3.5.7-.4-.2-.5-.4-.5-.7zm.9 1.3c-.1 0-.1-.1-.2-.1.2-.1.2 0 .2.1zm.2.4c0-.1-.1-.2-.1-.3.1.1.2.2.1.3z" style="fill:#f27f31"/><path class="st1" d="M504.4 325.5v66.9c-.1 0-.2.1-.3.1-16.2-22.4-32.4-44.8-48.5-67.1h-15.8V419h15.8c0-22.8.1-45.4.1-68.1 16.5 22.8 33 45.5 49.4 68.1H520v-93.5h-15.6zM201.8 375.3h34.8v-13.9h-34.8v-22.2H242v-13.7h-56.2v93.6H243v-13.9h-41.2v-29.9zM299.7 367.8c-5.5-2.4-11.1-4.6-16.6-6.9-2-.8-3.9-1.8-5.6-3.1-3.6-2.8-4.7-6.6-4-10.9.7-4 3.2-6.5 7-7.8 5-1.7 10.1-1.5 15 .5 4.4 1.7 7.9 4.7 11.1 8 .3.3.5.8 1.2.8 2.8-3.6 5.6-7.3 8.5-11-4.5-5-9.6-8.8-15.7-11.1-6.3-2.3-12.7-2.7-19.3-1.6-4.9.8-9.4 2.4-13.5 5.3-10.9 7.7-12.9 21.1-7.9 31.5 2.5 5.2 6.8 8.8 11.9 11.5 5.4 2.8 11.2 4.9 16.9 7.2 3.1 1.2 6.1 2.6 8.6 4.7 2.7 2.3 4.3 5.1 4.2 8.7-.2 5.4-2.8 9.2-7.7 11.5-4.4 2-9 2.3-13.6 1.1-6.8-1.8-12-5.9-16.3-11.4-.4-.6-.8-1.2-1.5-1.7-3.2 3.7-6.4 7.3-9.5 10.9.1.3.1.4.2.5.6.7 1.2 1.5 1.9 2.2 4 4.5 8.6 8.4 14.1 11 7.1 3.3 14.5 4 22.1 2.8 7.3-1.1 13.7-4 19-9.4 8.5-8.8 10.1-23.3 2.4-33.5-3.4-4.7-7.9-7.6-12.9-9.8zM157.8 325.4c-8.1 22.8-16.1 45.6-24.3 68.8-8.2-23.2-16.3-46.1-24.3-68.7H92c11.5 31.4 23 62.5 34.5 93.7h13.7c11.5-31.2 23-62.4 34.5-93.7-5.8-.1-11.3-.1-16.9-.1zM182.6 464.7c-.1 0-.2.1-.3.1-4-5.1-8-10.2-11.9-15.3h-3.8v23.1h4v-16.2c4.4 5.6 8.5 10.9 12.5 16.1h3.5v-23h-4.1c.1 5.2.1 10.2.1 15.2zM421.4 449.4c-3.4 7.7-6.7 15.4-10.2 23.3 1.6-.1 3 .1 4.3-.1.8-1.8 1.5-3.5 2.3-5.3h10.9c.8 1.8 1.6 3.6 2.3 5.4 1.5 0 2.8.1 4.4-.1-3.4-7.8-6.8-15.5-10.2-23.2-1.2-.1-2.5-.2-3.8 0zm-1.9 13.9c1.3-3 2.5-5.8 3.8-9 1.4 3.1 2.6 6 3.9 9h-7.7zM275.2 449.5h-3.8c-.1.3-.1.4-.1.5v12.3c0 1-.1 1.9-.3 2.9-.5 2.2-2.1 3.7-4.3 4.1-3.9.7-6.8-1.5-7-5.5-.3-4.1 0-8.2-.1-12.2 0-.6.1-1.2-.2-1.9h-3.9c-.1.2-.1.3-.1.4v10.2c0 1.8 0 3.5.3 5.3.6 3.7 2.6 6.2 6.3 7.2 1.7.5 3.5.5 5.2.3 4.1-.4 7-3 7.9-7.1.2-1.1.4-2.1.3-3.2v-11.9c.1-.5.2-1-.2-1.4zM219.7 449.4c-3.4 7.7-6.7 15.4-10.1 23.2h4.2c1-1.8 1.5-3.7 2.5-5.4h10.8c1 1.8 1.4 3.7 2.5 5.4 1.4 0 2.7.1 4.3-.1-3.4-7.8-6.8-15.5-10.1-23.2-1.5 0-2.8-.1-4.1.1zm-1.9 14c1.3-3 2.5-5.8 3.9-9 1.4 3.2 2.6 6 3.9 9h-7.8zM375.5 467.1c-2.9-3-3.1-8.3-.4-11.5 1.2-1.5 2.8-2.3 4.6-2.6 3-.4 5.4.9 7.6 2.8.9-1.1 1.8-1.9 2.5-3-4.1-4.8-12.8-4.9-17.5-.4-4.9 4.7-4.7 13.1.3 17.8 4.5 4.3 13.2 4.1 17.4-1.2-.8-.8-1.7-1.6-2.7-2.5-4.8 3.5-8.8 3.7-11.8.6zM298.2 449.6c.2 1.3-.2 2.5.3 3.7h7.2v19.3h4.2v-19.3h7.4c0-1.4.1-2.5-.1-3.7h-19zM462.5 449.5h-4v23h16.2v-3.7h-12.2v-19.3zM340.7 449.6v23h4v-23.1c-1.5 0-2.8-.2-4 .1z"/></svg>