<svg version="1.1" id="Layer_1" xmlns="http://www.w3.org/2000/svg" x="0" y="0" width="612" height="792" style="enable-background:new 0 0 612 792" xml:space="preserve"><style>.st0{fill:#fff}</style><path d="M174.8 388.1h104v41.8h-104z"/><path class="st0" d="M278.8 388.1h120.5v41.8H278.8zM210.2 421h-4l-4-12.5-4 12.5h-4l-7.1-20.8h5.5l3.6 11.7 3.6-11.7h4.7l3.6 11.7 3.6-11.7h5.5l-7 20.8zM233.2 411.1c0 4.6-3.8 8.4-8.4 8.4-4.6 0-8.4-3.7-8.4-8.4 0-4.6 3.8-8.4 8.4-8.4 4.7 0 8.4 3.8 8.4 8.4zm-8.4-4.4c-1.4 0-2.7 2-2.7 4.4 0 2.4 1.2 4.4 2.7 4.4 1.5 0 2.7-2 2.7-4.4 0-2.4-1.2-4.4-2.7-4.4zM253.6 419.1h-6.9l-3.8-3.8h-2.5v3.8H235V403h8.2c4.5 0 8.2 2.8 8.2 6.1 0 1.9-1.2 3.6-3 4.7l5.2 5.3zm-7.7-9.9c0-1.3-1.5-2.4-3.4-2.4h-2v4.8h2c1.9 0 3.4-1.1 3.4-2.4zM261.6 419.1h-5.5V403h5.5v6.3l6.3-6.3h6.5l-7.7 7.7 8.4 8.4h-6.9l-6.6-6.5v6.5z"/><g><path d="M290.4 421c-2.2 0-4.5-1-6.3-2.8l.7-4.1c2.7 2.2 4.7 2.4 5.8 2.4.6 0 1.7-.6 1.7-1.7 0-2.7-8.4-2.3-8.4-9 0-3.5 3.4-6.1 7.1-6.1 2.2 0 4.5 1.1 6.3 3l-1.8 3.4c-2.3-2-3.6-2-4.6-2-.9 0-1.7.8-1.7 1.5 0 2.7 8.5 2.4 8.5 8.9 0 4.1-3.6 6.5-7.3 6.5zM305.2 419.1h-5.5v-7.5c0-5.8 3.6-8.9 7.8-8.9 4.3 0 7.9 3.1 7.9 8.9v7.5H310v-3.8h-4.8v3.8zm4.8-8.6c0-2.2-1-3.4-2.4-3.4s-2.4 1.2-2.4 3.4v1.2h4.8v-1.2zM319 403.1h13v3.8h-7.5v2.3h7.5v3.8h-7.5v6.2H319v-16.1zM334.9 403.1h12.3v3.8h-6.8v2.3h6.8v3.8h-6.8v2.5h6.8v3.8h-12.3v-16.2z"/></g><g><path d="M372.2 405.8c0 1.4-.5 2.5-1.2 3.5 1.4 1.2 2.2 3 2.2 4.9 0 3.6-3.2 6.5-6.8 6.5h-9.6v-20.5h9.4c3.2 0 6 2.5 6 5.6zm-9.9 1.9h2.6c1 0 1.9-.9 1.9-1.9 0-1-.9-1.9-1.9-1.9h-2.6v3.8zm5.5 6.5c0-1.5-1.2-2.7-2.7-2.7h-2.7v5.5h2.7c1.5-.1 2.7-1.3 2.7-2.8zM383.7 421c-4.7 0-7.9-4.7-7.9-10.6 0-5.9 3.2-10.6 7.9-10.6 3.3 0 5.5 2.2 6.7 4.6l-2.4 2.4c-.8-1.1-2.2-2.3-3.5-2.3-2.2 0-3.4 2.7-3.4 5.9s1.2 5.9 3.4 5.9c1.2 0 2.2-1 3.2-2.4l2.6 2.4c-1.2 2.9-3.3 4.7-6.6 4.7z"/></g><path style="fill:none;stroke:#000" d="M174.7 388.1h224.6v41.8H174.7z"/></svg>