<svg version="1.1" id="Layer_1" xmlns="http://www.w3.org/2000/svg" x="0" y="0" width="610.5" height="197.5" style="enable-background:new 0 0 610.5 197.5" xml:space="preserve"><style>.st0{fill:#011e41}.st1{opacity:.6}.st2{fill:#3640b5}</style><path class="st0" d="M167.3 71.8h42v7.8h-16.6v45.9h-8.8V79.7h-16.6v-7.9zM235.2 71.8h35.1v7.8H244v14.9h21.7v7.6H244v15.6h27.2v7.8h-36V71.8zM304.3 108.1c.3 3.2 1.5 5.7 3.9 7.6 2.3 1.9 5.4 2.9 9.1 2.9 3.3 0 5.9-.7 8-2.1 2-1.4 3-3.4 3-5.9 0-1.8-.6-3.2-1.7-4.3-1.1-1-2.6-1.9-4.5-2.4-1.9-.6-4.6-1.2-8-1.8-3.5-.6-6.5-1.4-8.9-2.4-2.5-1-4.5-2.5-6.1-4.6-1.6-2-2.3-4.7-2.3-8.1 0-3.1.8-5.8 2.4-8.2 1.6-2.4 3.9-4.3 6.8-5.6 2.9-1.3 6.2-2 9.9-2 3.8 0 7.3.7 10.3 2.2 3 1.4 5.4 3.4 7.1 5.9 1.7 2.5 2.7 5.4 2.8 8.6h-8.7c-.3-2.8-1.5-5-3.6-6.7-2.1-1.7-4.8-2.5-8-2.5-3.1 0-5.6.7-7.5 2-1.9 1.4-2.8 3.3-2.8 5.7 0 1.7.5 3.1 1.7 4.1 1.1 1 2.6 1.8 4.4 2.3 1.8.5 4.5 1.1 7.9 1.7 3.5.6 6.5 1.4 9 2.5 2.5 1 4.6 2.5 6.1 4.5 1.6 2 2.4 4.6 2.4 7.9 0 3.2-.8 6-2.5 8.5s-4 4.5-7.1 5.9c-3 1.4-6.5 2.1-10.3 2.1-4.3 0-8-.8-11.2-2.3-3.2-1.5-5.7-3.7-7.6-6.4-1.8-2.7-2.8-5.9-2.8-9.4l8.8.3zM369.9 108.1c.3 3.2 1.5 5.7 3.9 7.6 2.3 1.9 5.4 2.9 9.1 2.9 3.3 0 5.9-.7 8-2.1 2-1.4 3-3.4 3-5.9 0-1.8-.6-3.2-1.7-4.3-1.1-1-2.6-1.9-4.5-2.4-1.9-.6-4.6-1.2-8-1.8-3.5-.6-6.5-1.4-8.9-2.4-2.5-1-4.5-2.5-6.1-4.6-1.6-2-2.3-4.7-2.3-8.1 0-3.1.8-5.8 2.4-8.2 1.6-2.4 3.9-4.3 6.8-5.6 2.9-1.3 6.2-2 9.9-2 3.8 0 7.3.7 10.3 2.2 3 1.4 5.4 3.4 7.1 5.9 1.7 2.5 2.7 5.4 2.8 8.6H393c-.3-2.8-1.5-5-3.6-6.7-2.1-1.7-4.8-2.5-8-2.5-3.1 0-5.6.7-7.5 2-1.9 1.4-2.8 3.3-2.8 5.7 0 1.7.5 3.1 1.7 4.1 1.1 1 2.6 1.8 4.4 2.3 1.8.5 4.5 1.1 7.9 1.7 3.5.6 6.5 1.4 9 2.5 2.5 1 4.6 2.5 6.1 4.5 1.6 2 2.4 4.6 2.4 7.9 0 3.2-.8 6-2.5 8.5s-4 4.5-7.1 5.9c-3 1.4-6.5 2.1-10.3 2.1-4.3 0-8-.8-11.2-2.3-3.2-1.5-5.7-3.7-7.6-6.4-1.8-2.7-2.8-5.9-2.8-9.4l8.8.3zM429.7 71.8h35.1v7.8h-26.3v14.9h21.7v7.6h-21.7v15.6h27.2v7.8h-36V71.8zM513.3 71.8c3.7 0 7 .7 9.8 2.1 2.8 1.4 5 3.4 6.6 6 1.6 2.6 2.3 5.6 2.3 9 0 3.6-.9 6.7-2.8 9.4s-4.4 4.6-7.6 5.8l11.4 21.4h-9.8L513 106.1h-12v19.5h-8.8V71.8h21.1zM501 98.4h11.7c3.2 0 5.7-.9 7.6-2.6 1.9-1.7 2.8-4 2.8-6.9 0-2.9-.9-5.2-2.8-6.9-1.9-1.7-4.4-2.6-7.6-2.6H501v19zM554.3 125.6l20.1-53.8h10.5l20 53.8h-9.4l-5.1-13.3h-22l-5 13.3h-9.1zm16.6-20.8H588l-8.6-23.4-8.5 23.4z"/><g><g class="st1"><path class="st2" d="M113.2 36.3 59.1 67.5l54 31.3z"/></g><path class="st2" d="m59.1 130 54-31.2-54-31.3z"/><path class="st2" d="M59.1 67.5 5 98.8 59.1 130z" style="opacity:.8"/><g class="st1"><path class="st2" d="M5 161.2 59.1 130 5 98.8z"/></g><g class="st1"><linearGradient id="SVGID_1_" gradientUnits="userSpaceOnUse" x1="86.107" y1="67.534" x2="86.107" y2="5.09"><stop offset="0" style="stop-color:#3640b5;stop-opacity:0"/><stop offset="1" style="stop-color:#3640b5"/></linearGradient><path style="fill:url(#SVGID_1_)" d="m59.1 67.5 54-31.2-54-31.2z"/></g><g class="st1"><linearGradient id="SVGID_2_" gradientUnits="userSpaceOnUse" x1="32.024" y1="192.421" x2="32.024" y2="129.977"><stop offset="0" style="stop-color:#3640b5"/><stop offset="1" style="stop-color:#3640b5;stop-opacity:0"/></linearGradient><path style="fill:url(#SVGID_2_)" d="M59.1 130 5 161.2l54.1 31.2z"/></g></g></svg>