<svg version="1.1" id="Layer_1" xmlns="http://www.w3.org/2000/svg" x="0" y="0" width="82" height="24" style="enable-background:new 0 0 82 24" xml:space="preserve"><style>.st0{fill:#231f20}</style><path class="st0" d="M29.1 9.8c.4 0 .6 0 .7-.2h.1c-.2.3-.4 1-.5 1.2 0 .1-.2.1-.2 0 0-.7 0-.8-.8-.8H28c-.3 0-.3 0-.4.4l-1.2 3.8c-.2.8-.3 1 .2 1h.3c.1.1.1.2 0 .2h-2.1c-.1 0-.1-.2 0-.2h.3c.4 0 .5-.1.8-1l1.2-3.8c.1-.4.1-.4-.2-.4h-.6c-.8 0-1 .2-1.4.8-.1 0-.2 0-.2-.1.2-.3.5-.9.6-1.1h.2c0 .2.1.2.6.2h3zM29 15c0-.3 0-.7.1-.9h.2c.1.7.4 1.2 1.1 1.2.5 0 1.1-.3 1.1-1.1 0-.6-.4-.9-.8-1.2-.4-.3-.8-.8-.8-1.3 0-.8.7-1.4 1.7-1.4.5 0 .9.2 1.1.3-.1.2-.2.6-.3.9h-.2c.1-.5 0-.9-.7-.9s-1 .5-1 1 .5.9.7 1.1c.5.4.8.8.8 1.4 0 .9-.7 1.6-1.8 1.6-.4-.2-.9-.3-1.2-.7zM34.3 11.5c.2-.7.2-.8-.2-.9h-.2v-.2H37.2c-.1.1-.2.7-.3 1 0 .1-.2.1-.2 0 0-.4.1-.6-.3-.7-.2 0-.4-.1-.8-.1h-.5c-.2 0-.2 0-.3.3l-.5 1.6c-.1.2-.1.2.1.2h.4c.7 0 .9 0 1.1-.4l.1-.2c0-.1.2 0 .2 0-.1.1-.2.5-.3.7-.1.3-.2.6-.2.7 0 .1-.2.1-.2 0v-.2c0-.4-.2-.4-.8-.4h-.4c-.2 0-.2 0-.3.2l-.3 1c-.1.4-.2.7-.1.8.1.1.2.2.9.2.8 0 1.1 0 1.6-.8h.2c-.1.2-.3.8-.5 1h-3.6c-.1 0-.1-.1 0-.2h.3c.4 0 .4-.1.7-.9l1.1-2.7zm1.5-1.4c-.1 0-.1-.1-.1-.1l1.2-.9c.1-.1.2-.1.2-.1.1 0 .1.1.2.2 0 .1.1.1.1.2s-.1.1-.2.2l-1.4.5zM41.1 12.6c.4 0 .4 0 .4-.2l.3-1c.2-.7.2-.8-.2-.9h-.2v-.2h1.8c.1 0 .1.1 0 .2H43c-.4.1-.5.1-.7.9l-.9 2.8c-.2.7-.2.9.1.9h.2v.2h-1.8c-.1 0-.1-.1 0-.2h.2c.4 0 .4-.1.7-.9l.4-1.2c.1-.2.1-.2-.3-.2H39c-.2 0-.2 0-.3.2l-.4 1.2c-.2.7-.2.9.1.9h.2v.2h-1.8c-.1 0-.1-.1 0-.2h.2c.4 0 .4-.1.7-.9l.9-2.8c.2-.7.2-.8-.2-.9h-.2v-.2H40c.1 0 .1.1 0 .2h-.2c-.4.1-.5.1-.7.9l-.3 1c-.1.2-.1.2.2.2h2.1zM48.2 12.3c0 .9-.4 1.8-1 2.4-.5.4-1.1.8-2 .8-1.3 0-1.9-1-1.9-2 0-.9.4-1.9 1.2-2.6.6-.5 1.2-.7 1.9-.7 1 0 1.9.7 1.8 2.1zm-3-1.4c-.6.5-1.2 1.6-1.3 2.9 0 .7.3 1.5 1.3 1.5.4 0 .8-.1 1.3-.6.7-.7 1-1.9 1.1-2.7 0-1-.4-1.5-1.2-1.5-.5 0-.9.2-1.2.4zM53.8 12.3c0 .9-.4 1.8-1 2.4-.5.4-1.1.8-2 .8-1.3 0-1.9-1-1.9-2 0-.9.4-1.9 1.2-2.6.6-.5 1.2-.7 1.9-.7 1 0 1.9.7 1.8 2.1zm-3-1.4c-.6.5-1.2 1.6-1.3 2.9 0 .7.3 1.5 1.3 1.5.4 0 .8-.1 1.3-.6.7-.7 1-1.9 1.1-2.7 0-1-.4-1.5-1.2-1.5-.5 0-.9.2-1.2.4zM58.9 10.4c.4 0 .5 0 .7-.2h.1c-.2.3-.4.9-.4 1.1 0 .1-.1.1-.2 0 0-.6 0-.7-.7-.7h-.5c-.2 0-.3 0-.4.3l-1.1 3.4c-.2.7-.2.9.1.9h.3c.1.1.1.2 0 .2h-1.9c-.1 0-.1-.1 0-.2h.3c.3 0 .4-.1.7-.9l1.1-3.4c.1-.3.1-.3-.2-.3h-.5c-.8 0-.9.2-1.3.7-.1 0-.2 0-.2-.1.2-.3.4-.8.6-1h.1c0 .1.1.2.6.2h2.8zM58.8 15c0-.3 0-.7.1-.9h.2c.1.7.4 1.2 1.1 1.2.5 0 1.1-.3 1.1-1.1 0-.6-.4-.9-.8-1.2-.4-.3-.8-.8-.8-1.3 0-.8.7-1.4 1.7-1.4.5 0 .9.2 1.1.3-.1.2-.2.6-.3.9H62c.1-.5 0-.9-.7-.9s-1 .5-1 1 .5.9.7 1.1c.5.4.8.8.8 1.4 0 .9-.7 1.6-1.8 1.6-.4-.2-.9-.3-1.2-.7zM67.9 12.3c0 .9-.4 1.8-1 2.4-.5.4-1.1.8-2 .8-1.3 0-1.9-1-1.9-2 0-.9.4-1.9 1.2-2.6.6-.5 1.2-.7 1.9-.7 1 0 1.8.7 1.8 2.1zm-3-1.4c-.6.5-1.2 1.6-1.3 2.9 0 .7.3 1.5 1.3 1.5.4 0 .8-.1 1.3-.6.7-.7 1-1.9 1.1-2.7 0-1-.4-1.5-1.2-1.5-.6 0-1 .2-1.2.4zM73.5 12.3c0 .9-.4 1.8-1 2.4-.5.4-1.1.8-2 .8-1.3 0-1.9-1-1.9-2 0-.9.4-1.9 1.2-2.6.6-.5 1.2-.7 1.9-.7 1 0 1.8.7 1.8 2.1zm-3-1.4c-.6.5-1.2 1.6-1.3 2.9 0 .7.3 1.5 1.3 1.5.4 0 .8-.1 1.3-.6.7-.7 1-1.9 1.1-2.7 0-1-.4-1.5-1.2-1.5-.6 0-1 .2-1.2.4zM75.3 11.5c.2-.7.2-.8-.2-.9h-.2v-.2h1.8c.1 0 .1.2 0 .2h-.2c-.4.1-.5.1-.7.9l-.8 2.8c-.2.7-.2.9.1.9h.2v.2h-1.9c-.1 0-.1-.1 0-.2h.2c.4 0 .4-.1.7-.9l1-2.8zm.6-1.4c-.1 0-.1-.1-.1-.1l1.2-.9c.1-.1.2-.1.2-.1.1 0 .1.1.2.2 0 .1.1.1.1.2s-.1.1-.2.2l-1.4.5zM24.4 16.8c.1-.3.2-.4.2-.5 0-.1 0-.1-.1-.1h-.2v-.1h.7c-.1.2 0 .4 0 .7l.1.5c0 .3.1.5.1.7.1-.2.3-.4.4-.6l.6-.8c.3-.4.3-.5.4-.6H27.2v.1h-.1c-.1 0-.2 0-.2.1-.1.1-.1.2-.2.5l-.4 1.3c-.1.3-.1.4-.1.5 0 .1 0 .1.2.1h.1v.1h-1v-.1h.1c.1 0 .2 0 .2-.1 0 0 .1-.2.2-.5l.3-1c.1-.2.1-.4.1-.5l-.3.5-.6.7c-.2.3-.4.6-.6.8h-.1c0-.1 0-.3-.1-.8l-.1-1.3c-.1.1-.1.3-.2.4l-.3.8c-.1.6-.1.8-.1.8s0 .1.1.1h.2v.1h-.8v-.1h.1c.1 0 .2 0 .2-.1.1-.1.2-.5.5-1.1l.1-.5zM30.5 17.3c0 .3-.4.5-.9.6 0 .1-.1.2-.1.3 0 .1.1.2.2.2s.2-.1.4-.2c0 0 .1 0 0 .1-.2.3-.4.3-.6.3-.2 0-.3-.2-.3-.4s.2-.7.6-1c.2-.2.3-.2.5-.2.1.1.2.2.2.3zm-.6.1c-.1.2-.2.3-.3.4.2-.1.4-.1.5-.3.1-.1.1-.2.1-.3 0 0 0-.1-.1-.1 0 .1-.1.1-.2.3zM34.4 16.4c.1-.2.1-.3 0-.3v-.2c.1 0 .3-.1.4-.1-.1.2-.1.4-.2.7-.4 1-.6 1.6-.6 1.7v.1c.1 0 .3-.2.4-.3h.1c-.1.2-.4.5-.6.5-.1 0-.1-.1-.1-.1v-.2l.1-.4c-.3.3-.5.7-.9.7-.1 0-.2-.1-.2-.3 0-.3.2-.7.5-1 .3-.2.5-.3.7-.3.1 0 .2 0 .2.1l.2-.6zm-.7 1c-.2.1-.4.5-.5.7-.2.2-.2.3-.2.3s0 .1.1.1.2-.1.5-.3c.3-.3.4-.5.5-.7 0-.2 0-.3-.1-.3s-.2.1-.3.2zM37.4 17.4c.1 0 .1-.1 0 0 0-.1-.1 0-.3.1 0 0-.1 0 0-.1.2-.2.5-.4.6-.4h.1v.2l-.4 1.1v.1c.1 0 .3-.1.4-.3 0 0 .1 0 .1.1-.1.1-.4.4-.7.4h-.1v-.1l.3-1.1zm.5-1.1c0 .1-.1.2-.2.2s-.1-.1-.1-.1c0-.1.1-.2.2-.2s.1 0 .1.1zM41.5 17.3c0 .2-.1.2-.2.2 0 0-.1 0-.1-.1s0-.2-.1-.2-.2.1-.3.3c-.1.2-.2.5-.3.8 0 .2.1.2.2.2s.3-.1.4-.2c0 0 .1 0 0 .1-.1.2-.4.4-.6.4-.1 0-.3-.1-.3-.4 0-.2.1-.7.5-1 .2-.1.3-.2.5-.2.2-.1.3 0 .3.1zM45.2 17c.1 0 .2 0 .2.1-.1.1-.4 1-.5 1.3v.1c.1 0 .2-.1.4-.3h.1c-.2.2-.4.4-.6.4-.1 0-.1-.1-.1-.1v-.1l.1-.3c-.3.3-.7.6-.8.6-.1 0-.2-.1-.2-.2s.1-.4.3-.7c.2-.2.3-.4.5-.5.1-.1.2-.1.3-.1h.1s.1 0 .1.1l.1-.3zm-.7.4c-.2.2-.5.7-.5 1 0 0 0 .1.1.1 0 0 .2 0 .4-.2.3-.3.4-.6.5-.8 0-.1-.1-.1-.2-.1-.1-.1-.1-.1-.3 0zM48.1 18.4v.1c.1 0 .3-.2.4-.4 0 0 .1 0 .1.1-.1.2-.3.5-.6.5-.1 0-.1-.1-.1-.1s0-.1.1-.3l.6-1.8c.1-.3.1-.3 0-.3h-.1v-.1c.1 0 .3-.1.5-.1 0 .1-.1.2-.2.6l-.7 1.8zM56.9 16.2c-.1.1-.1.4-.2.5h-.1c.1-.3 0-.5-.4-.5-.3 0-.6.1-1 .4-.2.2-.4.6-.4 1.1 0 .5.3.8.7.8.4 0 .6-.2.8-.5h.1c0 .1-.1.3-.2.5h-.7c-.5 0-1.1-.2-1.1-1 0-.4.2-.9.5-1.1.3-.3.8-.5 1.3-.5.4.2.6.3.7.3zM60.3 17.3c0 .3-.4.5-.9.6 0 .1-.1.2-.1.3 0 .1.1.2.2.2s.2-.1.4-.2c0 0 .1 0 0 .1-.2.3-.4.3-.6.3-.2 0-.3-.2-.3-.4s.2-.7.6-1c.2-.2.3-.2.5-.2.1.1.2.2.2.3zm-.6.1c-.1.2-.2.3-.3.4.2-.1.4-.1.5-.3.1-.1.1-.2.1-.3 0 0 0-.1-.1-.1 0 .1-.1.1-.2.3zM63.1 17.9c.3-.4.7-.8.9-.8.1 0 .2.1.2.2s0 .2-.1.3c-.1.2-.3.8-.4.8v.1c.1 0 .2-.1.4-.3.1 0 .1 0 .1.1-.1.2-.4.4-.6.4 0 0-.1 0-.1-.1 0 0 0-.1.1-.2.1-.2.2-.6.3-.7 0-.1.1-.2.1-.3 0 0 0-.1-.1-.1s-.3.2-.5.4-.4.5-.6 1h-.1s-.1 0-.1-.1l.4-1.2v-.1c-.1 0-.2.1-.3.2v-.1c.1-.2.4-.4.6-.4.1 0 .1.1.1.2l-.3.7zM67.5 17.3l-.3 1v.1c.1 0 .3-.2.4-.3 0 0 .1 0 .1.1-.2.3-.6.5-.7.5-.1 0-.1-.1-.1-.1s0-.1.1-.2l.4-1H67v-.1l.3-.1.2-.4h.1l-.1.4h.5v.1h-.5zM71.4 17.3c0 .3-.4.5-.9.6 0 .1-.1.2-.1.3 0 .1.1.2.2.2s.2-.1.4-.2c0 0 .1 0 0 .1-.2.3-.4.3-.6.3-.2 0-.3-.2-.3-.4s.2-.7.6-1c.2-.2.3-.2.5-.2.2.1.2.2.2.3zm-.6.1c-.1.2-.2.3-.3.4.2-.1.4-.1.5-.3.1-.1.1-.2.1-.3 0 0 0-.1-.1-.1.1.1 0 .1-.2.3zM74.4 17.4l-.2.5c.1-.2.3-.5.4-.6.1-.1.2-.2.3-.2.1 0 .2.1.2.2s0 .2-.1.2c0 .1-.1.1-.1 0s0-.1-.1-.1c0 0-.1 0-.1.1-.2.3-.4.8-.6 1.2H74s-.2 0-.1-.1c0-.2.3-.8.4-1.2v-.1c-.1 0-.2.1-.3.2 0 0-.1 0-.1-.1.1-.2.3-.4.4-.4.2.1.2.3.1.4z"/><path style="fill-rule:evenodd;clip-rule:evenodd;fill:#272010" d="m11.4 9.4.4-.3.8-3.9h5.3L17 9.8l-.7-2-.5 2-1.1-2.1-.1 2.3-1.7-1.8.5 2.3z"/><path style="fill-rule:evenodd;clip-rule:evenodd;fill:#e6a623" d="m5.5 14.2 1-4.4h4.3l.5-.2 1.2 1.7-2.4-.9 1.4 1.7-2.1-.3 1.7 1.3-2.2.1 1.8 1z"/><path d="m17 11.4-1.2 5.2s.6-.6 1.7-.6h4.2l1.4-6.2h-3.7c.1 0-1.9.1-2.4 1.6zm-3.3 1.8c.9-1 1.7-1.4 2.7-1.4l-1.7 7.7h-2.4l1.4-6.3zm-3.3 2.3-.8 4.1H12l1.2-5.4c-1.2-.2-1.9.2-2.8 1.3z" style="fill-rule:evenodd;clip-rule:evenodd;fill:#5bbbb7"/></svg>