<svg xmlns="http://www.w3.org/2000/svg" width="306" height="144" style="enable-background:new 0 0 306 144" xml:space="preserve"><path d="M283.8 27H15.7c-5.5 0-10 4.5-10 10v69.3c0 5.5 4.5 10 10 10h268.1c5.5 0 10-4.5 10-10V37c0-5.6-4.5-10-10-10z" style="fill:#fff"/><path d="M12.8 93v13.2c0 1.6 1.3 2.9 2.9 2.9h268.1c1.6 0 2.9-1.3 2.9-2.9V93H12.8z" style="fill:#ff4713"/><path d="M157 82.3h-13.5l17.7-42.8h15.7l17.7 42.8h-13.5l-2.7-7.5h-18.7l-2.7 7.5zm17.6-18.1-5.5-15-5.5 15h11zM273.6 43.3c0-2.1 1.7-3.9 3.9-3.9 2.1 0 3.8 1.9 3.8 4 0 2.2-1.7 3.8-3.8 3.8-2.1 0-3.9-1.7-3.9-3.9zm7.1 0c0-1.8-1.4-3.2-3.2-3.2-1.8 0-3.2 1.4-3.2 3.2 0 1.8 1.4 3.2 3.2 3.2 1.8 0 3.2-1.4 3.2-3.2zm-4 .3v2h-.7V41h1.5c.8 0 1.7.2 1.7 1.3 0 .5-.3.9-.9 1.1.6.1.7.4.8.9.1.4.1.9.3 1.3h-.9c-.1-.3-.1-.5-.2-.8-.1-.4-.1-.8-.3-1-.2-.2-.4-.2-.7-.2h-.6zm.7-.7c.7 0 .8-.3.8-.6s-.2-.5-.7-.5h-.9V43h.8zM99.4 39.5h12.3v16.3h16.1V39.5h12.4v42.8h-12.4V66.5h-16.1v15.8H99.4V66.4H81.7V55.8h17.7zM281.3 71.6v10.7h-32.6V39.5h12.4v32.1zM228.3 82.3c5.9 0 10.7-4.8 10.7-10.7V39.5h-12.4v32.1H209V39.5h-12.4v32.1c0 5.9 4.8 10.7 10.7 10.7h21z"/><path d="M283.8 27H15.7c-5.5 0-10 4.5-10 10v69.3c0 5.5 4.5 10 10 10h268.1c5.5 0 10-4.5 10-10V37c0-5.6-4.5-10-10-10zm8.2 79.2c0 4.5-3.7 8.2-8.2 8.2H15.7c-4.5 0-8.2-3.7-8.2-8.2V37c0-4.5 3.7-8.2 8.2-8.2h268.1c4.5 0 8.2 3.7 8.2 8.2v69.2z"/><path d="M73.7 39.5H60.4v31.9H33.2V39.5H19.9v31.8c0 6.1 4.9 11 11 11h31.9c6.1 0 11-4.9 11-11l-.1-31.8z"/></svg>