<svg version="1.1" id="Layer_1" xmlns="http://www.w3.org/2000/svg" x="0" y="0" width="936" height="1368" style="enable-background:new 0 0 936 1368" xml:space="preserve"><style>.st0,.st1{fill:none;stroke:#000;stroke-width:.6309;stroke-miterlimit:10}.st1{stroke-width:.5151}.st2{fill:#ec008c}.st3,.st4,.st5,.st7{fill:#ec008c;stroke:#ec008c;stroke-width:3.4681;stroke-miterlimit:10}.st4,.st5,.st7{stroke-width:4.8485}.st5,.st7{stroke:#fff;stroke-width:1.2121}.st7{stroke:#ec008c;stroke-width:2.7262}</style><circle class="st0" cx="468" cy="36" r="18"/><path class="st1" d="M432 36h72M468 72V0"/><circle class="st0" cx="468" cy="937" r="18"/><path class="st1" d="M432 937h72M468 973v-72"/><path class="st2" d="m538.8 937.9-2.6-10.1h1.4l1.2 5.1c.3 1.3.6 2.5.8 3.5.2-1 .5-2.2.8-3.5l1.3-5.1h1.4l1.2 5.1c.3 1.2.6 2.4.7 3.5.2-1.1.5-2.2.8-3.5l1.3-5.1h1.3l-2.9 10.1h-1.4l-1.3-5.3c-.3-1.3-.5-2.3-.7-3.3-.2 1-.4 2-.8 3.3l-1.4 5.3h-1.1zM549.8 927.3h1.3v4.5c.2-.4.5-.7.9-.9.4-.2.9-.4 1.4-.4 1 0 2.5.6 2.5 3.1v4.3h-1.3v-4.2c0-1.2-.4-2.2-1.7-2.2-.9 0-1.5.6-1.8 1.3-.1.2-.1.4-.1.6v4.4h-1.3v-10.5zM559.6 928.6c0 .5-.3.8-.8.8s-.8-.4-.8-.8c0-.5.3-.8.8-.8.4 0 .8.4.8.8zm-1.5 9.3v-7.3h1.3v7.3h-1.3zM563.2 928.6v2.1h1.9v1h-1.9v3.9c0 .9.3 1.4 1 1.4.3 0 .6 0 .8-.1l.1 1c-.3.1-.7.2-1.2.2-.6 0-1.1-.2-1.4-.6-.4-.4-.5-1-.5-1.9v-4h-1.1v-1h1.1v-1.7l1.2-.3zM567.2 934.6c0 1.8 1.2 2.5 2.5 2.5.9 0 1.5-.2 2-.4l.2.9c-.5.2-1.3.5-2.4.5-2.2 0-3.6-1.5-3.6-3.7s1.3-3.9 3.4-3.9c2.4 0 3 2.1 3 3.4v.6h-5.1zm3.9-1c0-.8-.3-2.1-1.8-2.1-1.3 0-1.9 1.2-2 2.1h3.8z"/><g><path class="st2" d="M315.4 433.4v30.3H296v-25.6h-25.1v96.4H296v-27.3h19.3v32.1c0 7.9-4 11.8-11.9 11.8H263c-7.7 0-11.5-4-11.5-11.8V433.4c0-8 3.8-11.9 11.5-11.9h40.4c8 0 12 4 12 11.9z"/><path class="st3" d="M547.2 327.4c-.5-1.5-1.4-2.8-2.3-4.2-.6-.9-.7-1.7 0-2.6.7-1 1.1-2.1 1.2-3.3.2-2.2.3-4.4.8-6.6.2-1.2-.5-2.3-1.6-2.8-.5-.2-.6-.3-.4-.9.7-1.7.8-3.3-1.1-4.7.7-.1 1.1-.1 1.5-.1 1.4-.1 1.6-.2 1.6-1.6v-3.8c-.3-10.6-.6-21.2-.8-31.9-.1-4.3-.1-8.6-.4-12.9-.2-2.3-.8-2.7-2.9-3.5-.8-.3-1.6-.5-2.3-.9-.8-.5-1.6-1-1.7-2-.1-1-.6-1.9-1-2.8-.2-.5-.3-.8.2-1.2 1-1 2-2.1 3-3.2 1.1-1.2 1.7-2.4 1.7-4.1 0-.9-.2-1.2-1.2-1.2-9.5 0-19 .1-28.5.3-8.9.2-17.8 0-26.7.2-11.2.3-22.4.2-33.6.1-11-.1-22-.5-33-.6-1.2 0-2.4 0-3.7-.1-7.4-.5-14.8 0-22.2-.6-1-.1-1.4.4-1.4 1.4 0 1.4-.1 2.7-.2 4.1-.2 3.7-.8 7.4-.8 11.1.1 2.5-.1 5-.4 7.6-.1 1-.6 2-.6 3 0 2.1-.2 4.2-.3 6.4l-.6 21.2c-.2 7.4-.5 14.7-.7 22.1 0 1.4-.1 2.8-.1 4.2 0 .8.3 1.2 1.1 1.2 4.4 0 8.7.6 13 .7 5.9.2 11.8.6 17.7 1 7.9.6 15.9.2 23.9.3H503c.8 0 1.2.1 1.2 1 0 .4 0 1 .6 1 2.1.1 3.5 1.6 5.4 2.1 1 .3 1.7.9 2.2 1.8.1.2.2.6.6.6 1.6-.1 3.3 0 4.3-1.7.4-.7.9-1.1 1.7-1.2 3.2-.2 6.3-.2 9.5-.2.4 0 .9 0 1.2.5.5 1 1.4 1.4 2.3 1.7 1.1.4 2.4.4 3.2 1.1 1.1 1 2.3 1.1 3.5 1.4.5.1 1.2 0 1.6.5.9 1.2 1.8 2.5 2.7 3.8.3.4.6.7.9 1 .8.6 2.5.8 3 .3.8-1.1.6-2 .3-3zm-2.8-.3c0 .1-.1.3-.2 0-.1-.1-.1-.2-.2-.3-1.4-.5-2-1.7-2.4-3-.2-.7-.9-.9-1.4-.9-2.1 0-3.8-1.1-5.7-1.8-1.4-.5-3-.8-4.1-2.1-.6-.7-1.6-.7-2.5-.7-3.4 0-6.8 0-10.1.2-.8 0-1.2.6-1.5 1.1-1.3 1.7-2.4 1.9-3.9.5-.6-.5-1.2-.9-2-1.1-.9-.2-1.7-.6-2.6-1-1.3-.6-2.6-1.2-3.1-2.8-.2-.6-.8-.9-1.6-.5-.7.3-1.7.2-2.5.2-10.3.3-20.6.1-30.9.2-14.8 0-29.7.1-44.5-.1-5.2-.1-10.3-1-15.4-1-6.1-.1-12.1-.7-18.1-.9-1.7-.1-1.6-.1-1.6-1.9.2-5.9.4-11.9.6-17.8.3-10 .5-19.9 1-29.9.2-3.7.8-7.4 1.2-11.2.4-4.1.5-8.2.6-12.4 0-1.8.2-3.6.2-5.5 0-.6.2-.8.8-.7 2.7.3 5.3.2 8.3.2 6.8.1 13.8.2 20.8.4 21.2.7 42.5.7 63.8.5 11.7-.1 23.4-.1 35.1-.3 5.3-.1 10.7-.4 16-.3h.7c.7.1 1.6-.2 1.8.4.3.6-.4 1.4-.8 1.9-1.1 1.2-2.2 2.4-3.2 3.7-.8.9-1.2 1.8-.4 3 .4.7.7 1.5.8 2.3.2 1.7 1.4 2.5 2.8 3.2.5.2 1.1.5 1.6.7 1.9.6 2.5 1.8 2.6 3.7.4 9.1.4 18.1.7 27.2.2 6.4.4 12.8.4 19.2 0 .9-.3 1.2-1.1 1.2-.6 0-1.3-.1-1.5.6-.2.8-.3 1.6.5 2.3.8.6.8 1.3.5 2.1-.7 1.6-.4 2.4 1 3.3.5.3.7.7.6 1.2-.1 2.6-.4 5.1-.7 7.7-.1.9-.7 1.7-1.2 2.5-.8 1.5-.7 2.6.4 4 .4.5 1 1 1.3 1.7.2.8-.9.5-.9 1z"/><path class="st2" d="M550.5 685s0-.1 0 0v-.1c-.2-.9 0-1.7-.2-2.6-.2-1-.7-1.8-1.7-2.3-1.2-.7-2.5-1.4-3.6-2.3-1.2-.9-1-.6-1-1.9v-.2c-.1-.9-.4-1.8-1.1-2.4-.3-.3-.7-.5-1-.7-1-.6-2-1.3-2.8-2.2-.2-.2-.3-.4-.4-.7-.1-.6-.2-1.1-.3-1.7-.2-1.1-.5-2.2-1.2-3.2-.4-.6-.9-1-1.5-1.2-.6-.2-1.1-.4-1.6-.7-.8-.5-1.8-.6-2.8-.4-.6.1-1.1 0-1.6-.4-.2-.2-.4-.3-.6-.3-.8-.2-1.2-.8-1.4-1.6-.1-.6-.2-1.2-.4-1.8-.3-.9-.8-1.8-1.2-2.7-.3-.5-.4-1-.4-1.5.1-1-.1-1.8-.6-2.7-.6-1-.4-1.8.4-2.6.6-.6 1.2-1.3 1.4-2.1.5-1.6.6-3.2-.8-4.6-.8-.8-1.4-1.7-1.7-2.8-.4-1.3-1.2-2.2-2.5-2.7-.9-.3-1.7-.4-2.7-.4H399.8c-3 0-5.9 0-8.8-.2h-1.1c-.1.1-.2 0-.4 0-.3 0-.6.1-.9.3-.6.4-1.1.9-1.2 1.7-.3 1-.1 2 .4 2.9.5 1 .7 2.1.8 3.3.2 1.8.5 3.5 1.6 5 .1.2.1.4 0 .6-.3.7-.5 1.4-.8 2.1-.4 1.4-.7 2.9-1.1 4.3-.4 1.4-.9 2.7-1.8 3.8-.4.4-.7.9-.8 1.5v1.4c.1 0 .1.1.2.2.2.6.6 1 1.1 1.3.3.2.6.4 1 .6.4.3.8.6.7 1.1 0 .2.1.4.1.6.1.4.2.7.2 1.1 0 .4 0 .8.1 1.2.4 1.1 1.2 1.8 2.3 2.1.3.1.4.3.4.6 0 .5 0 1-.1 1.5-.1 1.3.2 2.6 1.1 3.6.3.4.4.6.2 1-.6 1.3-.4 2.5.7 3.5.9.8.9.8.9 2v.2c0 .8.2 1.5.7 2.1.3.4.7.7 1 1.1.4.4.9.8 1.5.9.2.1.3.2.3.4.1.6.2 1.1.2 1.7.2 1.3.6 2.4 1.5 3.3.1.1.1.1.1.2 0 .7.1 1.4-.3 2-.4.8-.7 1.6-.7 2.4 0 1.1.4 2.1 1.2 2.9.4.4 1 .8 1.2 1.3.4.9.9 1.6 1.6 2.3.1.1.1.3 0 .4-.6 1.4-.4 2.8.6 3.9.1.2.2.3.2.5-.1.8-.1 1.5.1 2.3.3 1 .7 1.8 1.1 2.7.1.4.2.8-.1 1.3-.5 1-.4 1.9.2 2.8.3.4.4.8.4 1.3 0 .8 0 1.5.3 2.2.2.4.2.7 0 1.1-.4 1.4-.6 2.8-.4 4.2.2 1.5.7 2.8 2 3.6.1.1.2.1.2.3.1.4.4.8.5 1.2.6 1.3 1.5 1.8 2.9 1.7l6-.3c1.7-.1 3.3-.1 5-.1h4.3c3.3 0 6.5 0 9.8.1h4.6c1 0 2 0 3-.1 2.1-.1 4.3-.2 6.5-.2 1.2 0 2.4-.1 3.6-.1 2-.1 4-.1 6-.1h38.5c2.7 0 5.3-.2 8 0 2.1.1 3.9 1 5.2 2.7.3.3.5.6.9.7.6.2.9.6 1.2 1.1.2.4.5.8.6 1.3.2.5.5.9 1 1.2.3.2.7.3 1 .5h1.1c.2 0 .5 0 .7-.1.7-.3 1.2-.8 1.6-1.4.8-1.1.8-2.3.4-3.6-.1-.5-.3-1-.4-1.5-.1-.3 0-.4.3-.5.5-.2 1.1-.4 1.6-.6 2-.6 3.4-1.9 4.4-3.7.7-1.2 1.1-2.4 1.5-3.7.2-.7.4-1.5 1-2 .1 0 .1-.1.2-.2.8-1.4 1.6-2.9 2-4.5.3-1.1.2-2.3-.3-3.4-.3-.8-.9-1.5-1.4-2.1-.5-.6-1.1-1.2-1.7-1.9-.4-.5-.5-.9-.2-1.5.1-.2.2-.4.2-.6.2-.6.4-1.1.8-1.6.5-.8 1.2-1.4 2.2-1.6.8-.2 1.6-.2 2.3 0 1.1.2 2.2 0 3.2-.4.9-.4 1.7-.8 2.6-1.1 2-.7 3.8-1.6 5.3-3 1.9-1.7 3.1-3.8 3.5-6.3.1-.5.3-.9.7-1.3l.3-.3c.4-.4.9-.8 1.3-1.3.8-1 1-2.2.9-3.4-.1-.6.1-1.2.2-1.7v-2zm-3.9 1.5c-.3.8-.3 1.6-.2 2.4 0 .3 0 .6-.3.9-.6.7-1.3 1.3-1.9 2-.5.6-.8 1.2-.8 1.9-.4 2.8-2 4.8-4.5 6-1.1.6-2.3.9-3.4 1.4-.2.1-.5.2-.7.3-.6.3-1.3.4-2 .4-2.1-.3-4.1 0-5.9 1.2-1.6 1.1-2.6 2.6-3.2 4.4-.2.5-.4 1.1-.7 1.6-.6 1.5-.1 2.8.8 4.1.7 1 1.5 1.8 2.3 2.7.7.7.8 1.5.5 2.4-.3.8-.6 1.5-1 2.2-.2.4-.6.7-.9 1-.3.3-.4.6-.6 1-.5 1.4-.8 2.9-1.5 4.2-.6 1.3-1.6 2-3 2.3-1 .3-2.1.6-2.9 1.3-.8.7-1.1 1.6-1.1 2.7v.8c-.4-.4-.9-.7-1.3-.9-.3-.1-.4-.4-.5-.5-1.8-1.9-4-2.9-6.6-3.3-2-.3-4.1-.1-6.1-.1h-3.6c-5.1.1-10.2.1-15.4 0h-13.8c-1.2 0-2.4-.1-3.6 0-2.1.1-4.3 0-6.4 0-1.7 0-3.5 0-5.2.1-2.1.1-4.2.1-6.3.2-4.8.3-9.7.2-14.5.2h-4.6c-.1-.1-.2-.1-.4-.1h-6.9c-.1 0-.2 0-.3.1h-2c-1.4 0-2.7.1-4.1.1-.8.1-1.6.1-2.4.2-.2 0-.3-.1-.3-.2-.1-.2-.2-.5-.3-.7-.2-.7-.6-1.2-1.3-1.5-.2-.1-.3-.2-.4-.5-.3-1.1-.1-2.2.2-3.3.3-1.1.4-2.2-.2-3.3-.1-.2-.1-.5-.1-.7 0-1-.1-2-.5-2.9 0-.1-.1-.2 0-.3.4-1.4.2-2.8-.3-4.1-.3-.6-.6-1.3-.8-1.9-.1-.4-.1-.7.1-1.1.4-.9.2-2-.6-2.6l-.2-.2c-.3-.2-.4-.4-.2-.8.5-1 .3-2-.2-3-.2-.4-.4-.8-.7-1.1-.4-.4-.7-.8-.8-1.3-.1-.3-.3-.6-.6-.9l-1.4-1.4c-.2-.2-.2-.4-.1-.6.1-.4.3-.8.5-1.1.3-.4.4-.9.3-1.4 0-.8.1-1.6-.1-2.4-.2-.9-.5-1.7-1.2-2.3-.3-.2-.3-.6-.4-.9-.1-.9-.2-1.9-.5-2.8-.4-1.2-1.1-2-2.4-2.4l-.6-.3c-.3-.2-.5-.5-.4-.9.1-1-.1-2-.7-2.9-.2-.3-.4-.5-.6-.7-.2-.2-.3-.4-.2-.7.5-1.1.4-2.2-.2-3.2-.2-.3-.4-.5-.6-.7-.3-.3-.4-.6-.4-1 0-.9.1-1.7 0-2.6-.2-1.6-.9-2.8-2.5-3.4-.3-.1-.2-.3-.3-.5-.1-1.1-.4-2.1-.8-3.2-.3-.8-.9-1.4-1.6-1.9-.3-.2-.3-.3-.1-.6 1.1-1.6 1.7-3.5 2.1-5.4.5-1.9.9-3.7 1.7-5.5.3-.7.4-1.5.2-2.2-.1-.5-.3-.9-.7-1.3-.7-.7-.9-1.6-1-2.5-.2-1.3-.2-2.6-.6-3.9-.2-.7-.2-.7.5-.7 41.6.3 83.1 0 124.7.1 1 0 2-.1 3 .1.3 0 .5.1.6.5.4 1.4 1.2 2.6 2.1 3.6.6.7.7 1-.1 1.6-1.2.9-1.6 2.1-1.8 3.4-.2 1.3 0 2.6.7 3.8.2.3.3.6.2 1-.1 1.2.1 2.4.9 3.4.2.2.1.5.3.7.6 1 .8 2 1 3.1.4 1.5 1.2 2.6 2.5 3.5.1 0 .1.1.2.1.7.2 1.3.6 1.9.9 1.1.6 2.2.4 3.3.4.2 0 .4 0 .5.1.4.4.9.6 1.4.7.3.1.4.2.5.5.3 1 .4 2 .6 3 .2 1 .6 1.8 1.4 2.6 1.1 1.1 2.2 2 3.5 2.8.2.1.3.3.3.5 0 1 .1 2 .7 2.9.4.7 1.1 1.1 1.7 1.6 1.1.8 2.2 1.6 3.4 2.2.5.3.7.6.7 1.1 0 .5.1 1 .2 1.5 0 .2 0 .6-.1.9zM636.1 421.5H689v17.2h-33.6V477h28.7v16.8h-28.7v57.4h-19.3z"/><path class="st2" d="M735.3 219.1C663.9 147.7 569 108.3 468 108.3S272.1 147.6 200.7 219C129.3 290.5 90 385.4 90 486.3s39.3 195.9 110.7 267.3S367 864.3 468 864.3 663.9 825 735.3 753.6 846 587.3 846 486.3s-39.3-195.8-110.7-267.2zM468 831.6c-190.7 0-345.3-154.6-345.3-345.3S277.3 141.1 468 141.1s345.3 154.6 345.3 345.3S658.7 831.6 468 831.6z"/><path class="st2" d="M315.4 433.4v30.3H296v-25.6h-25.1v96.4H296v-27.3h19.3v32.1c0 7.9-4 11.8-11.9 11.8H263c-7.7 0-11.5-4-11.5-11.8V433.4c0-8 3.8-11.9 11.5-11.9h40.4c8 0 12 4 12 11.9z"/><path class="st3" d="M547.2 327.4c-.5-1.5-1.4-2.8-2.3-4.2-.6-.9-.7-1.7 0-2.6.7-1 1.1-2.1 1.2-3.3.2-2.2.3-4.4.8-6.6.2-1.2-.5-2.3-1.6-2.8-.5-.2-.6-.3-.4-.9.7-1.7.8-3.3-1.1-4.7.7-.1 1.1-.1 1.5-.1 1.4-.1 1.6-.2 1.6-1.6v-3.8c-.3-10.6-.6-21.2-.8-31.9-.1-4.3-.1-8.6-.4-12.9-.2-2.3-.8-2.7-2.9-3.5-.8-.3-1.6-.5-2.3-.9-.8-.5-1.6-1-1.7-2-.1-1-.6-1.9-1-2.8-.2-.5-.3-.8.2-1.2 1-1 2-2.1 3-3.2 1.1-1.2 1.7-2.4 1.7-4.1 0-.9-.2-1.2-1.2-1.2-9.5 0-19 .1-28.5.3-8.9.2-17.8 0-26.7.2-11.2.3-22.4.2-33.6.1-11-.1-22-.5-33-.6-1.2 0-2.4 0-3.7-.1-7.4-.5-14.8 0-22.2-.6-1-.1-1.4.4-1.4 1.4 0 1.4-.1 2.7-.2 4.1-.2 3.7-.8 7.4-.8 11.1.1 2.5-.1 5-.4 7.6-.1 1-.6 2-.6 3 0 2.1-.2 4.2-.3 6.4l-.6 21.2c-.2 7.4-.5 14.7-.7 22.1 0 1.4-.1 2.8-.1 4.2 0 .8.3 1.2 1.1 1.2 4.4 0 8.7.6 13 .7 5.9.2 11.8.6 17.7 1 7.9.6 15.9.2 23.9.3H503c.8 0 1.2.1 1.2 1 0 .4 0 1 .6 1 2.1.1 3.5 1.6 5.4 2.1 1 .3 1.7.9 2.2 1.8.1.2.2.6.6.6 1.6-.1 3.3 0 4.3-1.7.4-.7.9-1.1 1.7-1.2 3.2-.2 6.3-.2 9.5-.2.4 0 .9 0 1.2.5.5 1 1.4 1.4 2.3 1.7 1.1.4 2.4.4 3.2 1.1 1.1 1 2.3 1.1 3.5 1.4.5.1 1.2 0 1.6.5.9 1.2 1.8 2.5 2.7 3.8.3.4.6.7.9 1 .8.6 2.5.8 3 .3.8-1.1.6-2 .3-3zm-2.8-.3c0 .1-.1.3-.2 0-.1-.1-.1-.2-.2-.3-1.4-.5-2-1.7-2.4-3-.2-.7-.9-.9-1.4-.9-2.1 0-3.8-1.1-5.7-1.8-1.4-.5-3-.8-4.1-2.1-.6-.7-1.6-.7-2.5-.7-3.4 0-6.8 0-10.1.2-.8 0-1.2.6-1.5 1.1-1.3 1.7-2.4 1.9-3.9.5-.6-.5-1.2-.9-2-1.1-.9-.2-1.7-.6-2.6-1-1.3-.6-2.6-1.2-3.1-2.8-.2-.6-.8-.9-1.6-.5-.7.3-1.7.2-2.5.2-10.3.3-20.6.1-30.9.2-14.8 0-29.7.1-44.5-.1-5.2-.1-10.3-1-15.4-1-6.1-.1-12.1-.7-18.1-.9-1.7-.1-1.6-.1-1.6-1.9.2-5.9.4-11.9.6-17.8.3-10 .5-19.9 1-29.9.2-3.7.8-7.4 1.2-11.2.4-4.1.5-8.2.6-12.4 0-1.8.2-3.6.2-5.5 0-.6.2-.8.8-.7 2.7.3 5.3.2 8.3.2 6.8.1 13.8.2 20.8.4 21.2.7 42.5.7 63.8.5 11.7-.1 23.4-.1 35.1-.3 5.3-.1 10.7-.4 16-.3h.7c.7.1 1.6-.2 1.8.4.3.6-.4 1.4-.8 1.9-1.1 1.2-2.2 2.4-3.2 3.7-.8.9-1.2 1.8-.4 3 .4.7.7 1.5.8 2.3.2 1.7 1.4 2.5 2.8 3.2.5.2 1.1.5 1.6.7 1.9.6 2.5 1.8 2.6 3.7.4 9.1.4 18.1.7 27.2.2 6.4.4 12.8.4 19.2 0 .9-.3 1.2-1.1 1.2-.6 0-1.3-.1-1.5.6-.2.8-.3 1.6.5 2.3.8.6.8 1.3.5 2.1-.7 1.6-.4 2.4 1 3.3.5.3.7.7.6 1.2-.1 2.6-.4 5.1-.7 7.7-.1.9-.7 1.7-1.2 2.5-.8 1.5-.7 2.6.4 4 .4.5 1 1 1.3 1.7.2.8-.9.5-.9 1z"/><path class="st2" d="M550.5 685s0-.1 0 0v-.1c-.2-.9 0-1.7-.2-2.6-.2-1-.7-1.8-1.7-2.3-1.2-.7-2.5-1.4-3.6-2.3-1.2-.9-1-.6-1-1.9v-.2c-.1-.9-.4-1.8-1.1-2.4-.3-.3-.7-.5-1-.7-1-.6-2-1.3-2.8-2.2-.2-.2-.3-.4-.4-.7-.1-.6-.2-1.1-.3-1.7-.2-1.1-.5-2.2-1.2-3.2-.4-.6-.9-1-1.5-1.2-.6-.2-1.1-.4-1.6-.7-.8-.5-1.8-.6-2.8-.4-.6.1-1.1 0-1.6-.4-.2-.2-.4-.3-.6-.3-.8-.2-1.2-.8-1.4-1.6-.1-.6-.2-1.2-.4-1.8-.3-.9-.8-1.8-1.2-2.7-.3-.5-.4-1-.4-1.5.1-1-.1-1.8-.6-2.7-.6-1-.4-1.8.4-2.6.6-.6 1.2-1.3 1.4-2.1.5-1.6.6-3.2-.8-4.6-.8-.8-1.4-1.7-1.7-2.8-.4-1.3-1.2-2.2-2.5-2.7-.9-.3-1.7-.4-2.7-.4H399.8c-3 0-5.9 0-8.8-.2h-1.1c-.1.1-.2 0-.4 0-.3 0-.6.1-.9.3-.6.4-1.1.9-1.2 1.7-.3 1-.1 2 .4 2.9.5 1 .7 2.1.8 3.3.2 1.8.5 3.5 1.6 5 .1.2.1.4 0 .6-.3.7-.5 1.4-.8 2.1-.4 1.4-.7 2.9-1.1 4.3-.4 1.4-.9 2.7-1.8 3.8-.4.4-.7.9-.8 1.5v1.4c.1 0 .1.1.2.2.2.6.6 1 1.1 1.3.3.2.6.4 1 .6.4.3.8.6.7 1.1 0 .2.1.4.1.6.1.4.2.7.2 1.1 0 .4 0 .8.1 1.2.4 1.1 1.2 1.8 2.3 2.1.3.1.4.3.4.6 0 .5 0 1-.1 1.5-.1 1.3.2 2.6 1.1 3.6.3.4.4.6.2 1-.6 1.3-.4 2.5.7 3.5.9.8.9.8.9 2v.2c0 .8.2 1.5.7 2.1.3.4.7.7 1 1.1.4.4.9.8 1.5.9.2.1.3.2.3.4.1.6.2 1.1.2 1.7.2 1.3.6 2.4 1.5 3.3.1.1.1.1.1.2 0 .7.1 1.4-.3 2-.4.8-.7 1.6-.7 2.4 0 1.1.4 2.1 1.2 2.9.4.4 1 .8 1.2 1.3.4.9.9 1.6 1.6 2.3.1.1.1.3 0 .4-.6 1.4-.4 2.8.6 3.9.1.2.2.3.2.5-.1.8-.1 1.5.1 2.3.3 1 .7 1.8 1.1 2.7.1.4.2.8-.1 1.3-.5 1-.4 1.9.2 2.8.3.4.4.8.4 1.3 0 .8 0 1.5.3 2.2.2.4.2.7 0 1.1-.4 1.4-.6 2.8-.4 4.2.2 1.5.7 2.8 2 3.6.1.1.2.1.2.3.1.4.4.8.5 1.2.6 1.3 1.5 1.8 2.9 1.7l6-.3c1.7-.1 3.3-.1 5-.1h4.3c3.3 0 6.5 0 9.8.1h4.6c1 0 2 0 3-.1 2.1-.1 4.3-.2 6.5-.2 1.2 0 2.4-.1 3.6-.1 2-.1 4-.1 6-.1h38.5c2.7 0 5.3-.2 8 0 2.1.1 3.9 1 5.2 2.7.3.3.5.6.9.7.6.2.9.6 1.2 1.1.2.4.5.8.6 1.3.2.5.5.9 1 1.2.3.2.7.3 1 .5h1.1c.2 0 .5 0 .7-.1.7-.3 1.2-.8 1.6-1.4.8-1.1.8-2.3.4-3.6-.1-.5-.3-1-.4-1.5-.1-.3 0-.4.3-.5.5-.2 1.1-.4 1.6-.6 2-.6 3.4-1.9 4.4-3.7.7-1.2 1.1-2.4 1.5-3.7.2-.7.4-1.5 1-2 .1 0 .1-.1.2-.2.8-1.4 1.6-2.9 2-4.5.3-1.1.2-2.3-.3-3.4-.3-.8-.9-1.5-1.4-2.1-.5-.6-1.1-1.2-1.7-1.9-.4-.5-.5-.9-.2-1.5.1-.2.2-.4.2-.6.2-.6.4-1.1.8-1.6.5-.8 1.2-1.4 2.2-1.6.8-.2 1.6-.2 2.3 0 1.1.2 2.2 0 3.2-.4.9-.4 1.7-.8 2.6-1.1 2-.7 3.8-1.6 5.3-3 1.9-1.7 3.1-3.8 3.5-6.3.1-.5.3-.9.7-1.3l.3-.3c.4-.4.9-.8 1.3-1.3.8-1 1-2.2.9-3.4-.1-.6.1-1.2.2-1.7v-2zm-3.9 1.5c-.3.8-.3 1.6-.2 2.4 0 .3 0 .6-.3.9-.6.7-1.3 1.3-1.9 2-.5.6-.8 1.2-.8 1.9-.4 2.8-2 4.8-4.5 6-1.1.6-2.3.9-3.4 1.4-.2.1-.5.2-.7.3-.6.3-1.3.4-2 .4-2.1-.3-4.1 0-5.9 1.2-1.6 1.1-2.6 2.6-3.2 4.4-.2.5-.4 1.1-.7 1.6-.6 1.5-.1 2.8.8 4.1.7 1 1.5 1.8 2.3 2.7.7.7.8 1.5.5 2.4-.3.8-.6 1.5-1 2.2-.2.4-.6.7-.9 1-.3.3-.4.6-.6 1-.5 1.4-.8 2.9-1.5 4.2-.6 1.3-1.6 2-3 2.3-1 .3-2.1.6-2.9 1.3-.8.7-1.1 1.6-1.1 2.7v.8c-.4-.4-.9-.7-1.3-.9-.3-.1-.4-.4-.5-.5-1.8-1.9-4-2.9-6.6-3.3-2-.3-4.1-.1-6.1-.1h-3.6c-5.1.1-10.2.1-15.4 0h-13.8c-1.2 0-2.4-.1-3.6 0-2.1.1-4.3 0-6.4 0-1.7 0-3.5 0-5.2.1-2.1.1-4.2.1-6.3.2-4.8.3-9.7.2-14.5.2h-4.6c-.1-.1-.2-.1-.4-.1h-6.9c-.1 0-.2 0-.3.1h-2c-1.4 0-2.7.1-4.1.1-.8.1-1.6.1-2.4.2-.2 0-.3-.1-.3-.2-.1-.2-.2-.5-.3-.7-.2-.7-.6-1.2-1.3-1.5-.2-.1-.3-.2-.4-.5-.3-1.1-.1-2.2.2-3.3.3-1.1.4-2.2-.2-3.3-.1-.2-.1-.5-.1-.7 0-1-.1-2-.5-2.9 0-.1-.1-.2 0-.3.4-1.4.2-2.8-.3-4.1-.3-.6-.6-1.3-.8-1.9-.1-.4-.1-.7.1-1.1.4-.9.2-2-.6-2.6l-.2-.2c-.3-.2-.4-.4-.2-.8.5-1 .3-2-.2-3-.2-.4-.4-.8-.7-1.1-.4-.4-.7-.8-.8-1.3-.1-.3-.3-.6-.6-.9l-1.4-1.4c-.2-.2-.2-.4-.1-.6.1-.4.3-.8.5-1.1.3-.4.4-.9.3-1.4 0-.8.1-1.6-.1-2.4-.2-.9-.5-1.7-1.2-2.3-.3-.2-.3-.6-.4-.9-.1-.9-.2-1.9-.5-2.8-.4-1.2-1.1-2-2.4-2.4l-.6-.3c-.3-.2-.5-.5-.4-.9.1-1-.1-2-.7-2.9-.2-.3-.4-.5-.6-.7-.2-.2-.3-.4-.2-.7.5-1.1.4-2.2-.2-3.2-.2-.3-.4-.5-.6-.7-.3-.3-.4-.6-.4-1 0-.9.1-1.7 0-2.6-.2-1.6-.9-2.8-2.5-3.4-.3-.1-.2-.3-.3-.5-.1-1.1-.4-2.1-.8-3.2-.3-.8-.9-1.4-1.6-1.9-.3-.2-.3-.3-.1-.6 1.1-1.6 1.7-3.5 2.1-5.4.5-1.9.9-3.7 1.7-5.5.3-.7.4-1.5.2-2.2-.1-.5-.3-.9-.7-1.3-.7-.7-.9-1.6-1-2.5-.2-1.3-.2-2.6-.6-3.9-.2-.7-.2-.7.5-.7 41.6.3 83.1 0 124.7.1 1 0 2-.1 3 .1.3 0 .5.1.6.5.4 1.4 1.2 2.6 2.1 3.6.6.7.7 1-.1 1.6-1.2.9-1.6 2.1-1.8 3.4-.2 1.3 0 2.6.7 3.8.2.3.3.6.2 1-.1 1.2.1 2.4.9 3.4.2.2.1.5.3.7.6 1 .8 2 1 3.1.4 1.5 1.2 2.6 2.5 3.5.1 0 .1.1.2.1.7.2 1.3.6 1.9.9 1.1.6 2.2.4 3.3.4.2 0 .4 0 .5.1.4.4.9.6 1.4.7.3.1.4.2.5.5.3 1 .4 2 .6 3 .2 1 .6 1.8 1.4 2.6 1.1 1.1 2.2 2 3.5 2.8.2.1.3.3.3.5 0 1 .1 2 .7 2.9.4.7 1.1 1.1 1.7 1.6 1.1.8 2.2 1.6 3.4 2.2.5.3.7.6.7 1.1 0 .5.1 1 .2 1.5 0 .2 0 .6-.1.9zM655.4 438.7V477h28.7v16.8h-28.7v57.4h-19.3V421.5H689v17.2z"/><path class="st4" d="m332.3 622.1 271.4-271.5M603.7 622.1 332.3 350.6"/><path class="st2" d="M315.4 463.8v-30.3c0-8-4-11.9-11.9-11.9h-40.4c-7.7 0-11.5 4-11.5 11.9v105.9c0 7.9 3.8 11.8 11.5 11.8h40.4c7.9 0 11.9-4 11.9-11.8v-32.1H296v27.3h-25.1v-96.4H296v25.6h19.4zM689 438.7v-17.2h-52.9v129.7h19.4v-57.3h28.7V477h-28.7v-38.4H689z"/><g><path class="st5" d="M516 740.3c-.3-.2-.7-.3-1-.5-.4-.3-.8-.7-1-1.2-.2-.4-.4-.9-.6-1.3-.3-.5-.6-1-1.2-1.1-.4-.1-.7-.4-.9-.7-1.3-1.7-3.1-2.5-5.2-2.7-2.6-.2-5.3 0-8 0h-38.5c-2 0-4 0-6 .1-1.2 0-2.4 0-3.6.1-2.2 0-4.3.1-6.5.2-1 0-2 .1-3 .1-1.5 0-3.1.1-4.6 0-3.3-.1-6.5-.1-9.8-.1h-4.3c-1.7 0-3.3 0-5 .1l-6 .3c-1.4.1-2.3-.5-2.9-1.7-.2-.4-.4-.8-.5-1.2 0-.1-.1-.2-.2-.3-1.4-.8-1.8-2.2-2-3.6-.2-1.4 0-2.8.4-4.2.1-.4.1-.7 0-1.1-.3-.7-.3-1.5-.3-2.2 0-.5-.1-.9-.4-1.3-.6-.9-.7-1.9-.2-2.8.2-.5.2-.8.1-1.3-.3-.9-.8-1.8-1.1-2.7-.2-.7-.3-1.5-.1-2.3 0-.2 0-.4-.2-.5-1-1.2-1.2-2.5-.6-3.9.1-.2.1-.3 0-.4-.6-.7-1.2-1.5-1.6-2.3-.2-.5-.8-.9-1.2-1.3-.8-.8-1.2-1.8-1.2-2.9 0-.9.3-1.7.7-2.4.4-.7.2-1.4.3-2 0-.1-.1-.2-.1-.2-.9-.9-1.4-2.1-1.5-3.3-.1-.6-.2-1.1-.2-1.7 0-.2-.1-.3-.3-.4-.6-.2-1.1-.5-1.5-.9-.3-.4-.7-.7-1-1.1-.5-.6-.8-1.3-.7-2.1v-.2c0-1.2 0-1.2-.9-2-1-1-1.3-2.1-.7-3.5.2-.4.2-.7-.2-1-1-1-1.2-2.2-1.1-3.6 0-.5.1-1 .1-1.5 0-.3-.1-.5-.4-.6-1.1-.4-1.9-1-2.3-2.1-.1-.4-.1-.8-.1-1.2 0-.4-.1-.7-.2-1.1-.1-.2-.2-.4-.1-.6 0-.6-.3-.9-.7-1.1-.3-.2-.7-.4-1-.6-.5-.3-.9-.8-1.1-1.3 0-.1 0-.2-.2-.2.2 0 .2.1.3.2.3.7.8 1.1 1.4 1.5.3.2.7.4 1 .7.2.2.4.3.4.6.2.9.5 1.9.5 2.8 0 .5.2 1 .6 1.3.4.5.9.9 1.6 1.1.5.2.6.2.6.8v1.6c-.1 1.3.2 2.5 1.2 3.4.3.3.3.6.2.9-.2.5-.4 1-.3 1.6 0 .7.3 1.3.8 1.8 1.2 1.3 1 .7 1 2.4 0 .9.3 1.6.9 2.3.7.7 1.3 1.5 2.3 1.8.2.1.3.3.3.4.1.5.1 1 .2 1.4.2 1.3.5 2.5 1.5 3.4.1.1.2.3.2.4 0 .7.1 1.4-.3 2-.4.8-.7 1.7-.7 2.7 0 .9.3 1.8 1 2.5.1.2.3.3.5.5.5.5 1 1 1.3 1.7.2.5.6.9 1 1.4.3.3.3.6.2.9-.4 1.3-.3 2.5.6 3.6.2.2.3.4.2.7-.2 1.4.2 2.7.8 3.9.2.5.4 1 .5 1.5.1.3 0 .5-.1.8-.6 1-.5 2 .2 3 .2.3.3.6.3.9 0 .9.1 1.8.4 2.7.1.3 0 .7-.1 1-.3 1-.5 2.1-.4 3.2 0 .9.2 1.8.5 2.6.3.7.7 1.2 1.3 1.6.3.2.4.4.5.7.3.7.5 1.3 1.1 1.9.5.5 1.2.7 1.9.7.5 0 1.1 0 1.6-.1 1.3-.1 2.5-.1 3.8-.2 1.5-.1 3.1 0 4.6-.1 1.5-.1 3-.1 4.4 0 3.3.1 6.5 0 9.8.1 1 0 2 .1 3.1 0 1.6-.1 3.2 0 4.8-.1 2.1-.1 4.3-.2 6.4-.2 1.1 0 2.3 0 3.4-.1 16.2-.4 32.4-.1 48.6-.2 1.3 0 2.6-.1 3.9-.1 1.4 0 2.7.3 3.9.9.8.4 1.5.9 2.1 1.7.4.5.8.9 1.4 1.1.3.1.5.3.6.5.3.5.6 1.1.9 1.6.3.8.8 1.4 1.7 1.7-.1-.2 0-.1 0 0z"/><path d="M550.5 685s0-.1 0 0v-.1c-.2-.9 0-1.7-.2-2.6-.2-1-.7-1.8-1.7-2.3-1.2-.7-2.5-1.4-3.6-2.3-1.2-.9-1-.6-1-1.9v-.2c-.1-.9-.4-1.8-1.1-2.4-.3-.3-.7-.5-1-.7-1-.6-2-1.3-2.8-2.2-.2-.2-.3-.4-.4-.7-.1-.6-.2-1.1-.3-1.7-.2-1.1-.5-2.2-1.2-3.2-.4-.6-.9-1-1.5-1.2-.6-.2-1.1-.4-1.6-.7-.8-.5-1.8-.6-2.8-.4-.6.1-1.1 0-1.6-.4-.2-.2-.4-.3-.6-.3-.8-.2-1.2-.8-1.4-1.6-.1-.6-.2-1.2-.4-1.8-.3-.9-.8-1.8-1.2-2.7-.3-.5-.4-1-.4-1.5.1-1-.1-1.8-.6-2.7-.6-1-.4-1.8.4-2.6.6-.6 1.2-1.3 1.4-2.1.5-1.6.6-3.2-.8-4.6-.8-.8-1.4-1.7-1.7-2.8-.4-1.3-1.2-2.2-2.5-2.7-.9-.3-1.7-.4-2.7-.4H399.8c-3 0-5.9 0-8.8-.2h-1.1c-.1.1-.2 0-.4 0-.3 0-.6.1-.9.3-.6.4-1.1.9-1.2 1.7-.3 1-.1 2 .4 2.9.5 1 .7 2.1.8 3.3.2 1.8.5 3.5 1.6 5 .1.2.1.4 0 .6-.3.7-.5 1.4-.8 2.1-.4 1.4-.7 2.9-1.1 4.3-.4 1.4-.9 2.7-1.8 3.8-.4.4-.7.9-.8 1.5v1.4c.1 0 .1.1.2.2.2.6.6 1 1.1 1.3.3.2.6.4 1 .6.4.3.8.6.7 1.1 0 .2.1.4.1.6.1.4.2.7.2 1.1 0 .4 0 .8.1 1.2.4 1.1 1.2 1.8 2.3 2.1.3.1.4.3.4.6 0 .5 0 1-.1 1.5-.1 1.3.2 2.6 1.1 3.6.3.4.4.6.2 1-.6 1.3-.4 2.5.7 3.5.9.8.9.8.9 2v.2c0 .8.2 1.5.7 2.1.3.4.7.7 1 1.1.4.4.9.8 1.5.9.2.1.3.2.3.4.1.6.2 1.1.2 1.7.2 1.3.6 2.4 1.5 3.3.1.1.1.1.1.2 0 .7.1 1.4-.3 2-.4.8-.7 1.6-.7 2.4 0 1.1.4 2.1 1.2 2.9.4.4 1 .8 1.2 1.3.4.9.9 1.6 1.6 2.3.1.1.1.3 0 .4-.6 1.4-.4 2.8.6 3.9.1.2.2.3.2.5-.1.8-.1 1.5.1 2.3.3 1 .7 1.8 1.1 2.7.1.4.2.8-.1 1.3-.5 1-.4 1.9.2 2.8.3.4.4.8.4 1.3 0 .8 0 1.5.3 2.2.2.4.2.7 0 1.1-.4 1.4-.6 2.8-.4 4.2.2 1.5.7 2.8 2 3.6.1.1.2.1.2.3.1.4.4.8.5 1.2.6 1.3 1.5 1.8 2.9 1.7l6-.3c1.7-.1 3.3-.1 5-.1h4.3c3.3 0 6.5 0 9.8.1h4.6c1 0 2 0 3-.1 2.1-.1 4.3-.2 6.5-.2 1.2 0 2.4-.1 3.6-.1 2-.1 4-.1 6-.1h38.5c2.7 0 5.3-.2 8 0 2.1.1 3.9 1 5.2 2.7.3.3.5.6.9.7.6.2.9.6 1.2 1.1.2.4.5.8.6 1.3.2.5.5.9 1 1.2.3.2.7.3 1 .5h.7c.1-.1.2 0 .4 0s.5 0 .7-.1c.7-.3 1.2-.8 1.6-1.4.8-1.1.8-2.3.4-3.6-.1-.5-.3-1-.4-1.5-.1-.3 0-.4.3-.5.5-.2 1.1-.4 1.6-.6 2-.6 3.4-1.9 4.4-3.7.7-1.2 1.1-2.4 1.5-3.7.2-.7.4-1.5 1-2 .1 0 .1-.1.2-.2.8-1.4 1.6-2.9 2-4.5.3-1.1.2-2.3-.3-3.4-.3-.8-.9-1.5-1.4-2.1-.5-.6-1.1-1.2-1.7-1.9-.4-.5-.5-.9-.2-1.5.1-.2.2-.4.2-.6.2-.6.4-1.1.8-1.6.5-.8 1.2-1.4 2.2-1.6.8-.2 1.6-.2 2.3 0 1.1.2 2.2 0 3.2-.4.9-.4 1.7-.8 2.6-1.1 2-.7 3.8-1.6 5.3-3 1.9-1.7 3.1-3.8 3.5-6.3.1-.5.3-.9.7-1.3l.3-.3c.4-.4.9-.8 1.3-1.3.8-1 1-2.2.9-3.4-.1-.6.1-1.2.2-1.7v-2zm-3.9 1.5c-.3.8-.3 1.6-.2 2.4 0 .3 0 .6-.3.9-.6.7-1.3 1.3-1.9 2-.5.6-.8 1.2-.8 1.9-.4 2.8-2 4.8-4.5 6-1.1.6-2.3.9-3.4 1.4-.2.1-.5.2-.7.3-.6.3-1.3.4-2 .4-2.1-.3-4.1 0-5.9 1.2-1.6 1.1-2.6 2.6-3.2 4.4-.2.5-.4 1.1-.7 1.6-.6 1.5-.1 2.8.8 4.1.7 1 1.5 1.8 2.3 2.7.7.7.8 1.5.5 2.4-.3.8-.6 1.5-1 2.2-.2.4-.6.7-.9 1-.3.3-.4.6-.6 1-.5 1.4-.8 2.9-1.5 4.2-.6 1.3-1.6 2-3 2.3-1 .3-2.1.6-2.9 1.3-.8.7-1.1 1.6-1.1 2.7v.8c-.4-.4-.9-.7-1.3-.9-.3-.1-.4-.4-.5-.5-1.8-1.9-4-2.9-6.6-3.3-2-.3-4.1-.1-6.1-.1h-3.6c-5.1.1-10.2.1-15.4 0h-13.8c-1.2 0-2.4-.1-3.6 0-2.1.1-4.3 0-6.4 0-1.7 0-3.5 0-5.2.1-2.1.1-4.2.1-6.3.2-4.8.3-9.7.2-14.5.2h-4.6c-.1-.1-.2-.1-.4-.1h-6.9c-.1 0-.2 0-.3.1h-2c-1.4 0-2.7.1-4.1.1-.8.1-1.6.1-2.4.2-.2 0-.3-.1-.3-.2-.1-.2-.2-.5-.3-.7-.2-.7-.6-1.2-1.3-1.5-.2-.1-.3-.2-.4-.5-.3-1.1-.1-2.2.2-3.3.3-1.1.4-2.2-.2-3.3-.1-.2-.1-.5-.1-.7 0-1-.1-2-.5-2.9 0-.1-.1-.2 0-.3.4-1.4.2-2.8-.3-4.1-.3-.6-.6-1.3-.8-1.9-.1-.4-.1-.7.1-1.1.4-.9.2-2-.6-2.6l-.2-.2c-.3-.2-.4-.4-.2-.8.5-1 .3-2-.2-3-.2-.4-.4-.8-.7-1.1-.4-.4-.7-.8-.8-1.3-.1-.3-.3-.6-.6-.9l-1.4-1.4c-.2-.2-.2-.4-.1-.6.1-.4.3-.8.5-1.1.3-.4.4-.9.3-1.4 0-.8.1-1.6-.1-2.4-.2-.9-.5-1.7-1.2-2.3-.3-.2-.3-.6-.4-.9-.1-.9-.2-1.9-.5-2.8-.4-1.2-1.1-2-2.4-2.4l-.6-.3c-.3-.2-.5-.5-.4-.9.1-1-.1-2-.7-2.9-.2-.3-.4-.5-.6-.7-.2-.2-.3-.4-.2-.7.5-1.1.4-2.2-.2-3.2-.2-.3-.4-.5-.6-.7-.3-.3-.4-.6-.4-1 0-.9.1-1.7 0-2.6-.2-1.6-.9-2.8-2.5-3.4-.3-.1-.2-.3-.3-.5-.1-1.1-.4-2.1-.8-3.2-.3-.8-.9-1.4-1.6-1.9-.3-.2-.3-.3-.1-.6 1.1-1.6 1.7-3.5 2.1-5.4.5-1.9.9-3.7 1.7-5.5.3-.7.4-1.5.2-2.2-.1-.5-.3-.9-.7-1.3-.7-.7-.9-1.6-1-2.5-.2-1.3-.2-2.6-.6-3.9-.2-.7-.2-.7.5-.7 41.6.3 83.1 0 124.7.1 1 0 2-.1 3 .1.3 0 .5.1.6.5.4 1.4 1.2 2.6 2.1 3.6.6.7.7 1-.1 1.6-1.2.9-1.6 2.1-1.8 3.4-.2 1.3 0 2.6.7 3.8.2.3.3.6.2 1-.1 1.2.1 2.4.9 3.4.2.2.1.5.3.7.6 1 .8 2 1 3.1.4 1.5 1.2 2.6 2.5 3.5.1 0 .1.1.2.1.7.2 1.3.6 1.9.9 1.1.6 2.2.4 3.3.4.2 0 .4 0 .5.1.4.4.9.6 1.4.7.3.1.4.2.5.5.3 1 .4 2 .6 3 .2 1 .6 1.8 1.4 2.6 1.1 1.1 2.2 2 3.5 2.8.2.1.3.3.3.5 0 1 .1 2 .7 2.9.4.7 1.1 1.1 1.7 1.6 1.1.8 2.2 1.6 3.4 2.2.5.3.7.6.7 1.1 0 .5.1 1 .2 1.5 0 .2 0 .6-.1.9z" style="fill:#ec008c;stroke:#ec008c;stroke-width:.9091;stroke-miterlimit:10"/><path class="st5" d="m517.2 740.3-.4.1c.1-.2.2-.1.4-.1zM420 729.4c-.7.1-1.3.1-2 0h2zM427.6 729.4zM427.6 729.4c-.1.1-.2.1-.3.1h-6.9c-.1 0-.1 0-.2-.1h7.4z"/><path class="st5" d="M420 729.4s0 .1 0 0c-.7 0-1.4.1-2.1 0h2.1z"/><g><path class="st7" d="M547.2 327.4c-.5-1.5-1.4-2.8-2.3-4.2-.6-.9-.7-1.7 0-2.6.7-1 1.1-2.1 1.2-3.3.2-2.2.3-4.4.8-6.6.2-1.2-.5-2.3-1.6-2.8-.5-.2-.6-.3-.4-.9.7-1.7.8-3.3-1.1-4.7.7-.1 1.1-.1 1.5-.1 1.4-.1 1.6-.2 1.6-1.6v-3.8c-.3-10.6-.6-21.2-.8-31.9-.1-4.3-.1-8.6-.4-12.9-.2-2.3-.8-2.7-2.9-3.5-.8-.3-1.6-.5-2.3-.9-.8-.5-1.6-1-1.7-2-.1-1-.6-1.9-1-2.8-.2-.5-.3-.8.2-1.2 1-1 2-2.1 3-3.2 1.1-1.2 1.7-2.4 1.7-4.1 0-.9-.2-1.2-1.2-1.2-9.5 0-19 .1-28.5.3-8.9.2-17.8 0-26.7.2-11.2.3-22.4.2-33.6.1-11-.1-22-.5-33-.6-1.2 0-2.4 0-3.7-.1-7.4-.5-14.8 0-22.2-.6-1-.1-1.4.4-1.4 1.4 0 1.4-.1 2.7-.2 4.1-.2 3.7-.8 7.4-.8 11.1.1 2.5-.1 5-.4 7.6-.1 1-.6 2-.6 3 0 2.1-.2 4.2-.3 6.4l-.6 21.2c-.2 7.4-.5 14.7-.7 22.1 0 1.4-.1 2.8-.1 4.2 0 .8.3 1.2 1.1 1.2 4.4 0 8.7.6 13 .7 5.9.2 11.8.6 17.7 1 7.9.6 15.9.2 23.9.3H503c.8 0 1.2.1 1.2 1 0 .4 0 1 .6 1 2.1.1 3.5 1.6 5.4 2.1 1 .3 1.7.9 2.2 1.8.1.2.2.6.6.6 1.6-.1 3.3 0 4.3-1.7.4-.7.9-1.1 1.7-1.2 3.2-.2 6.3-.2 9.5-.2.4 0 .9 0 1.2.5.5 1 1.4 1.4 2.3 1.7 1.1.4 2.4.4 3.2 1.1 1.1 1 2.3 1.1 3.5 1.4.5.1 1.2 0 1.6.5.9 1.2 1.8 2.5 2.7 3.8.3.4.6.7.9 1 .8.6 2.5.8 3 .3.8-1.1.6-2 .3-3zm-2.8-.3c0 .1-.1.3-.2 0-.1-.1-.1-.2-.2-.3-1.4-.5-2-1.7-2.4-3-.2-.7-.9-.9-1.4-.9-2.1 0-3.8-1.1-5.7-1.8-1.4-.5-3-.8-4.1-2.1-.6-.7-1.6-.7-2.5-.7-3.4 0-6.8 0-10.1.2-.8 0-1.2.6-1.5 1.1-1.3 1.7-2.4 1.9-3.9.5-.6-.5-1.2-.9-2-1.1-.9-.2-1.7-.6-2.6-1-1.3-.6-2.6-1.2-3.1-2.8-.2-.6-.8-.9-1.6-.5-.7.3-1.7.2-2.5.2-10.3.3-20.6.1-30.9.2-14.8 0-29.7.1-44.5-.1-5.2-.1-10.3-1-15.4-1-6.1-.1-12.1-.7-18.1-.9-1.7-.1-1.6-.1-1.6-1.9.2-5.9.4-11.9.6-17.8.3-10 .5-19.9 1-29.9.2-3.7.8-7.4 1.2-11.2.4-4.1.5-8.2.6-12.4 0-1.8.2-3.6.2-5.5 0-.6.2-.8.8-.7 2.7.3 5.3.2 8.3.2 6.8.1 13.8.2 20.8.4 21.2.7 42.5.7 63.8.5 11.7-.1 23.4-.1 35.1-.3 5.3-.1 10.7-.4 16-.3h.7c.7.1 1.6-.2 1.8.4.3.6-.4 1.4-.8 1.9-1.1 1.2-2.2 2.4-3.2 3.7-.8.9-1.2 1.8-.4 3 .4.7.7 1.5.8 2.3.2 1.7 1.4 2.5 2.8 3.2.5.2 1.1.5 1.6.7 1.9.6 2.5 1.8 2.6 3.7.4 9.1.4 18.1.7 27.2.2 6.4.4 12.8.4 19.2 0 .9-.3 1.2-1.1 1.2-.6 0-1.3-.1-1.5.6-.2.8-.3 1.6.5 2.3.8.6.8 1.3.5 2.1-.7 1.6-.4 2.4 1 3.3.5.3.7.7.6 1.2-.1 2.6-.4 5.1-.7 7.7-.1.9-.7 1.7-1.2 2.5-.8 1.5-.7 2.6.4 4 .4.5 1 1 1.3 1.7.2.8-.9.5-.9 1z"/><path class="st7" d="M547.2 327.4c-.5-1.5-1.4-2.8-2.3-4.2-.6-.9-.7-1.7 0-2.6.7-1 1.1-2.1 1.2-3.3.2-2.2.3-4.4.8-6.6.2-1.2-.5-2.3-1.6-2.8-.5-.2-.6-.3-.4-.9.7-1.7.8-3.3-1.1-4.7.7-.1 1.1-.1 1.5-.1 1.4-.1 1.6-.2 1.6-1.6v-3.8c-.3-10.6-.6-21.2-.8-31.9-.1-4.3-.1-8.6-.4-12.9-.2-2.3-.8-2.7-2.9-3.5-.8-.3-1.6-.5-2.3-.9-.8-.5-1.6-1-1.7-2-.1-1-.6-1.9-1-2.8-.2-.5-.3-.8.2-1.2 1-1 2-2.1 3-3.2 1.1-1.2 1.7-2.4 1.7-4.1 0-.9-.2-1.2-1.2-1.2-9.5 0-19 .1-28.5.3-8.9.2-17.8 0-26.7.2-11.2.3-22.4.2-33.6.1-11-.1-22-.5-33-.6-1.2 0-2.4 0-3.7-.1-7.4-.5-14.8 0-22.2-.6-1-.1-1.4.4-1.4 1.4 0 1.4-.1 2.7-.2 4.1-.2 3.7-.8 7.4-.8 11.1.1 2.5-.1 5-.4 7.6-.1 1-.6 2-.6 3 0 2.1-.2 4.2-.3 6.4l-.6 21.2c-.2 7.4-.5 14.7-.7 22.1 0 1.4-.1 2.8-.1 4.2 0 .8.3 1.2 1.1 1.2 4.4 0 8.7.6 13 .7 5.9.2 11.8.6 17.7 1 7.9.6 15.9.2 23.9.3H503c.8 0 1.2.1 1.2 1 0 .4 0 1 .6 1 2.1.1 3.5 1.6 5.4 2.1 1 .3 1.7.9 2.2 1.8.1.2.2.6.6.6 1.6-.1 3.3 0 4.3-1.7.4-.7.9-1.1 1.7-1.2 3.2-.2 6.3-.2 9.5-.2.4 0 .9 0 1.2.5.5 1 1.4 1.4 2.3 1.7 1.1.4 2.4.4 3.2 1.1 1.1 1 2.3 1.1 3.5 1.4.5.1 1.2 0 1.6.5.9 1.2 1.8 2.5 2.7 3.8.3.4.6.7.9 1 .8.6 2.5.8 3 .3.8-1.1.6-2 .3-3zm-2.8-.3c0 .1-.1.3-.2 0-.1-.1-.1-.2-.2-.3-1.4-.5-2-1.7-2.4-3-.2-.7-.9-.9-1.4-.9-2.1 0-3.8-1.1-5.7-1.8-1.4-.5-3-.8-4.1-2.1-.6-.7-1.6-.7-2.5-.7-3.4 0-6.8 0-10.1.2-.8 0-1.2.6-1.5 1.1-1.3 1.7-2.4 1.9-3.9.5-.6-.5-1.2-.9-2-1.1-.9-.2-1.7-.6-2.6-1-1.3-.6-2.6-1.2-3.1-2.8-.2-.6-.8-.9-1.6-.5-.7.3-1.7.2-2.5.2-10.3.3-20.6.1-30.9.2-14.8 0-29.7.1-44.5-.1-5.2-.1-10.3-1-15.4-1-6.1-.1-12.1-.7-18.1-.9-1.7-.1-1.6-.1-1.6-1.9.2-5.9.4-11.9.6-17.8.3-10 .5-19.9 1-29.9.2-3.7.8-7.4 1.2-11.2.4-4.1.5-8.2.6-12.4 0-1.8.2-3.6.2-5.5 0-.6.2-.8.8-.7 2.7.3 5.3.2 8.3.2 6.8.1 13.8.2 20.8.4 21.2.7 42.5.7 63.8.5 11.7-.1 23.4-.1 35.1-.3 5.3-.1 10.7-.4 16-.3h.7c.7.1 1.6-.2 1.8.4.3.6-.4 1.4-.8 1.9-1.1 1.2-2.2 2.4-3.2 3.7-.8.9-1.2 1.8-.4 3 .4.7.7 1.5.8 2.3.2 1.7 1.4 2.5 2.8 3.2.5.2 1.1.5 1.6.7 1.9.6 2.5 1.8 2.6 3.7.4 9.1.4 18.1.7 27.2.2 6.4.4 12.8.4 19.2 0 .9-.3 1.2-1.1 1.2-.6 0-1.3-.1-1.5.6-.2.8-.3 1.6.5 2.3.8.6.8 1.3.5 2.1-.7 1.6-.4 2.4 1 3.3.5.3.7.7.6 1.2-.1 2.6-.4 5.1-.7 7.7-.1.9-.7 1.7-1.2 2.5-.8 1.5-.7 2.6.4 4 .4.5 1 1 1.3 1.7.2.8-.9.5-.9 1z"/></g></g></g></svg>