<svg version="1.1" id="Layer_1" xmlns="http://www.w3.org/2000/svg" x="0" y="0" width="612" height="792" style="enable-background:new 0 0 612 792" xml:space="preserve"><style>.st1{fill:#c2c4c6}.st3{stroke:#000;stroke-width:5.6015}.st3,.st4,.st5,.st6{fill:#fdb927}.st5,.st6{stroke:#000;stroke-width:5.937}.st6{stroke-width:6.6792}.st7{fill:#fff}.st8{fill:#ffe098}.st12{fill:none;stroke:#000;stroke-width:.25}.st14{stroke:#000;stroke-width:1.0151}.st15,.st16,.st17,.st18{fill:#fdb927;stroke:#000;stroke-width:4.1551}.st16,.st17,.st18{stroke-width:3.9211}.st17,.st18{stroke-width:4.1559}.st18{stroke-width:4.6754}.st19{stroke:#000;stroke-width:1.1572}.st20,.st23,.st24,.st25{fill:#fdb927;stroke:#000;stroke-width:3.5307}.st23,.st24,.st25{stroke-width:2.7447}.st24,.st25{stroke-width:2.9091}.st25{stroke-width:3.2728}</style><path d="M469.7 133.8c-4.3-4.8-10-6.5-15.4-6.9V91.5H398.7c-6.2-3.6-17.6-10.2-17.6-10.2 6.3-5.9 9.9-12.1 10.7-13.6 0-.1 14.1-26.6 14.1-26.6s-42.5 5.1-49.4 6.4c-.2-.8 0 1-.2.3l-3.4-14.9-11.8 9.7s-1.3 1-2 1.7c-.7-2.7-1.6-5.7-1.6-5.7s-11.6 10.5-11.7 10.5c-.3-3.5-.7-7.5-.7-7.5s-13.3 14-13.8 14.5c-.4-3.9-.8-8.1-.8-8.1l-14.3 15c-.3-2.7 8.3-17.8 8.3-17.8l-30 11.6h-10.1l-12-17.1-12 16.4-12.8.1-12-13.7-12.2 14-7.9.2-34.4-16 19.8 41.9s9.7 41.8 9.2 41.9c-9.5 2-19.9 7-31.8 15.5l-9.2 6.6 2.3 11.1v.5c0 .5-.1 1.5-.5 3-5.7 20.6-22.7 60.5-50.3 118.5-3.6 7.6-6.1 13.8-7.5 18.7a28 28 0 0 0-1.1 7.7c0 7.3 3.3 12.2 5.6 14.7 3.9 4.2 11.3 8.6 24 6 7.8-1.6 16.4-5.6 26.4-12.1l6.6-4.3 1.1-7.9c.4-2.8.7-4.4 1-5.2.3-1.1 1.1-3.4 2.7-7.6 11 25 28.9 24.5 36.5 22.9 13.9-2.9 25-12.7 33.8-29.7 1.3-.7 2.6-1.6 4-2.5 3.9 1.6 8.9 2.4 15.5 1 4.7-1 9.6-2.7 14.8-5.1 0 0 9.2-4.4 9.5-4.5 3.3 1.5 7.5 2.4 13 1.8 2.7 3.6 7.3 7.5 15.2 9.7 8.1 2.2 16.5 2.4 24.8.7 9.9-2 19.4-6.3 28.1-12.6 7.6-5.5 14.4-12.3 20.3-20.2 8.6 3.3 18.2 1.4 22.5.5 12.5-2.6 24-8.4 34-17.4 10.1-9.1 17.3-20.1 21.2-32.8 1.3-4.2 1.9-8.2 1.9-12 0-3.7-.7-7.1-1.9-10.3 2-1.6 4-3.3 4-3.3 9.1-7.5 14.7-14.8 17-22.2.7-2.2 1-4.4 1-6.6.3-4.9-1.5-9.6-4.9-13.3zM319.3 84.4c.5.9 2.6 4.4 4.2 7.1h-13.7c1.9-1.5 8.3-6.3 9.5-7.1z" style="stroke:#000;stroke-width:1.4501"/><path class="st1" d="M462.8 140.1c-4.8-5.3-13.4-4.4-21.1-2.8-3.4.7-6.7 1.7-9.9 3v-15.5H445v-24h-79.5l-6.2 12.9v-12.9H191.6l8.9 32.6c-2.9-.9-3.4-.6-8.5.4-8.2 1.7-17.4 6.3-28.2 13.9l-4.2 3 1 5.1c.4 2.2.2 4.8-.6 7.9-5.9 21.1-23 61.5-50.9 120.1-3.4 7.1-5.6 12.8-6.9 17.2-1.9 7 .2 11.1 2.3 13.4 3.3 3.6 8.5 4.6 15.3 3.2 6.6-1.4 14.2-4.9 23.2-10.8l3-2 .5-3.6c.4-2.7.8-4.9 1.2-6.5 1-3.5 4.2-12.3 13.4-33.8 1.2 7.1 2.8 13.6 4.8 19.6 7.5 22.2 19.5 24.7 28.2 22.9 11.6-2.4 21-11.4 28.7-27.3 2.7-1.4 5.6-3.2 8.6-5.5l2-1.5c3.1 3.4 7.8 4.4 14 3.1 3.9-.8 8.2-2.3 12.7-4.4l4.4-2.1.1-4.9c0-1.2.2-2.3.4-3.1 1-3.1 3.1-8.1 7.8-15.9-.4 1.1-.8 2.2-1.1 3.2-.8 2.6-1.2 4.9-1.2 7.1 0 3.4 1 6.3 3.1 8.5 2.2 2.4 6.4 4.9 13.9 3.4 1.4-.3 2.8-.7 4.2-1.2.3 1.5.8 2.8 1.3 3.8 2 3.7 5.7 6.2 11.1 7.7 6.7 1.8 13.6 2 20.5.6 8.6-1.8 16.8-5.5 24.5-11 7.5-5.4 14.1-12.2 19.8-20.2 1.1-1.5 2.2-3.3 3.5-5.5l.9 1.2c5.3 5.8 14.6 4.8 22.2 3.3 10.9-2.2 20.8-7.4 29.6-15.2 8.8-7.9 15.1-17.5 18.5-28.6 1-3.3 1.5-6.4 1.5-9.2 0-4.5-1.2-8.4-3.7-11.7l-.5-.7-8.4-7.2-.2-.2c0-.1 0-.2.1-.3 1.4-4.6 3.4-5.7 4.7-6.1.3.4.7 1.1 1.2 2.2l4.1 9.9 8.3-6.8c7.7-6.3 12.2-12.1 13.9-17.7 1.6-4.2.8-8.2-1.8-11zm-46.3 9.4c-.7.6-1.5 1.2-2.2 1.9-.2.1-.3.3-.4.4l-6.8-2.3H416.5zm-216.6 65.2c8.2-9.6 14.7-17.9 20-24.7 6.1-7.8 11-14 15.1-18 1.6-1.6 3.9-3.7 6.7-6-1 2.1-1.6 3.7-2 4.9-.4 1.3-.6 2.5-.6 3.6 0 2.5.9 4.3 1.7 5.6-2.8 1.1-5.7 2.5-8.9 4.3l-4.5 2.5.5 5.2v.7c0 1.1-.2 2.2-.6 3.4-1.8 5.8-6.4 16.2-13.6 30.8-3.2 6.4-5.8 11.9-8 16.8-2.1-6.6-4.1-15.8-5.8-29.1zm8.9-64.3c.1-.3.2-.6.2-.9h15.8c-7.9 7.2-16.8 15.6-26.3 25.3 7.8-16.9 9.6-22 10.3-24.4zm127 91.5c-2.6 2.8-5.4 4.5-8.4 5.1-2.1.4-3.8.8-5.2-2.1 1.8.2 3.8.1 6.2-.3 2.4-.5 4.8-1.4 7.4-2.7zm-.5-66.8c-.5.6-.9 1.1-1.4 1.7.2-3.3-.4-7.1-3.2-10.2-2.3-2.5-6.7-5.2-14.6-3.5-6 1.2-12.4 5.1-19.5 11.7-.3-.3-.5-.7-.8-1-2-2.2-5.9-4.6-13-3.2-3.4.7-7.2 2.1-11.7 4.3 3-4.9 4.8-8.4 5.6-11 .6-1.8.8-3.4.8-4.8 0-3.4-1.4-5.8-2.7-7.3-.9-1-1.9-1.8-3.1-2.3h101.9l2.1-5.4h3.7l2.1 5.4h6c-1.8.7-3.5 1.6-5 2.6-3.8-1-8-1.1-12.6-.1-12 2.5-23.6 10.2-34.6 23.1z"/><path class="st1" d="M374.6 77c8.8-6.5 14.1-17.6 14.3-18l5.2-10.2-12.1 2.1-24.9 3.7s-4.1 4.2-4.1 3.7c0-2.7-2.4-13.9-2.4-13.9l-13.1 13.1c-.4-.3-.1.3-.6 0l-1.7-6.5-14.8 14.9-.7-7.1-14.6 15.9-.9-8.9-9.3 10.2-5.7 6.3-.7-6.9-9.3 10.2-12.9 14.1-.8 8.8c-.3 3.9 1.7 7.2 5.5 8.9 0 0 .3.1.7.2-.2 1.2-.1 2.5.3 3.8.8 2.5 2.7 4.5 5.5 5.6l8.8 3.5 33.5-6.9-6.3-3.8 22.7-4.7-8-4.9 21.9-4.5-6.4-3.9 24-5-7.8-4.7 21.6-4.4-12.1-7.3s4.3-2.5 5.2-3.4z"/><path d="M355.7 63.7c6.8-1.4 23.8-4.2 23.8-4.2s-4.4 8.5-12.4 14c0 0-5 5.1-11.1 5.9 0 0-15.4.5-11.7-3.9 0 0 4.6-10.4 11.4-11.8z" style="fill:#fdb927;stroke:#000;stroke-width:5.9358"/><path class="st3" d="m345.3 90.3 16.6-3.3s-6.6-3.8-14.1-5.1c0 0-5.4-1.8-9.6-.8 0 0-3.9 5 .5 6.6l6.6 2.6zM332.3 98.7l16.6-3.3s-6.6-3.8-14.1-5.1c0 0-5.4-1.8-9.6-.8 0 0-3.9 5 .5 6.6l6.6 2.6zM315.5 106.7l16.6-3.3s-6.6-3.8-14.1-5.1c0 0-5.4-1.8-9.6-.8 0 0-3.9 5 .5 6.6l6.6 2.6zM286.8 122.9l16.6-3.3s-6.6-3.8-14.1-5.1c0 0-5.4-1.8-9.6-.8 0 0-3.9 5 .5 6.6l6.6 2.6z"/><path class="st3" d="m332.5 71.3 11-11.6s.7 7-1.5 13.5c0 0-.8 5.1-3.7 7.9 0 0-6.7.7-6.4-3.5l.6-6.3zM318.1 77.7l11-11.6s.7 7-1.5 13.5c0 0-.8 5.1-3.7 7.9 0 0-6.7.7-6.4-3.5l.6-6.3zM302.4 87.1l11-11.6s.7 7-1.5 13.5c0 0-.8 5.1-3.7 7.9 0 0-6.7.7-6.3-3.5l.5-6.3zM287.8 93.6l11-11.6s.7 7-1.5 13.5c0 0-.8 5.1-3.7 7.9 0 0-6.7.7-6.4-3.5l.6-6.3z"/><path class="st4" d="m345.3 90.3 16.6-3.3s-6.6-3.8-14.1-5.1c0 0-5.4-1.8-9.6-.8 0 0-3.9 5 .5 6.6l6.6 2.6zM332.3 98.7l16.6-3.3s-5.6-2.9-14.1-5.1c0 0-5.4-1.8-9.6-.8 0 0-3.9 5 .5 6.6l6.6 2.6zM316.6 106.3l15.5-2.9s-6.4-3.4-14.1-5.1c0 0-5.4-1.8-9.6-.8 0 0-3.9 5 .5 6.6l7.7 2.2zM279.7 113.8s-3.9 5 .5 6.6"/><path class="st5" d="M235.8 191.3c5.5-3 10.2-5 14.1-5.8 5.3-1.1 7.3.7 5.8 5.3-.6 2.1-1.8 4.7-3.4 7.8-13.9 27.1-22.3 45.4-25.2 54.9-1.4 4.6-1.5 8.2-.4 10.9-5 3.8-9.4 6-13.2 6.8-6.9 1.4-9.2-1.5-6.9-8.7 1.9-6.3 6.6-16.9 14.1-32 7.5-15 12.2-25.7 14.1-32 .9-2.5 1.2-4.9 1-7.2zm28.5-20.2c-4.4 2.8-8.2 4.5-11.3 5.2-4.7 1-6.6 0-5.7-3 .3-1 .9-2.5 1.9-4.6 1-2.1 1.6-3.6 1.9-4.6.2-.7.2-1.5.1-2.3 5.1-2.8 9.2-4.5 12.4-5.2 5.1-1.1 7 .6 5.7 5.1-.7 1.9-2.3 5-5 9.4zM278.7 209.5c16.2-23.7 29.2-36.6 39-38.6 7.4-1.5 9.8 2 7.2 10.5-1.9 6.1-6 15.5-12.4 28.3S302 232 300.1 238.1c-1.5 4.9-1.7 8.7-.6 11.4-5 3.8-9.4 6-13.4 6.8-6.6 1.4-8.8-1.6-6.6-8.9 1.7-5.4 4.4-12.2 8.3-20.4 9.8-20.7 15-32.1 15.6-34.1.7-2.2.4-3.2-.8-2.9-2.3.5-9.7 9.3-22.2 26.6-12.5 17.2-20.1 30.2-22.8 38.8-.5 1.5-.7 3.3-.8 5.3-3.9 1.9-7.6 3.1-10.9 3.8-6 1.2-8.3-.6-6.8-5.6.8-2.6 2.2-5.9 4.3-10l5.1-10c12.3-24.8 19.7-41.2 22.2-49.3.7-2.2 1-4.2.8-6 5.2-2.8 9.6-4.6 13-5.3 5.4-1.1 7.3.9 5.7 5.9-.8 3-4.7 11.4-11.5 25.3zM342.1 216.9c-2.2.4-2.6-1.6-1.2-6.1 2.8-9.2 6.6-17.6 11.5-25.3 4.8-7.7 9.5-12 14-12.9 4.3-.9 7.4 1.4 9.2 7-16.4 23.7-27.6 36.1-33.5 37.3zM300 258.6c-1.2 4 .9 6.7 6.4 8.2 5.5 1.5 11.1 1.6 16.8.5 7.5-1.5 14.7-4.8 21.5-9.7 6.8-4.9 12.8-11 17.9-18.3 5.1-7.3 13.7-24.8 25.6-52.6 5.6-13.2 10.9-23.1 15.7-29.8-3.6-1.2-7.3-1.4-11.1-.6-3.8.8-6.7 2.5-8.8 5.2-3.3-2.1-7.5-2.6-12.6-1.6-10.3 2.1-20.3 8.9-30.1 20.4-9.8 11.5-16.8 24-20.9 37.4-4.5 14.6-2.4 21 6.3 19.2 8.7-1.8 20.9-12.4 36.6-31.8-10.8 24.2-18.1 38.3-21.8 42.3-3.8 4-8 6.5-12.6 7.5-7.9 1.6-13.1-1.9-15.5-10.5-7.3 4.5-11.8 9.2-13.4 14.2zM392.9 212.2c-.2 8.7 2.8 12.3 9.2 11 6.5-1.3 10.9-5.8 13.3-13.5 1.2-4-2-9.4-9.6-16.1-2.4-3.3-2.7-7.7-1-13.4 2.7-8.9 7.7-16.6 14.8-23 7.1-6.4 15-10.5 23.7-12.3 10.8-2.2 15.5-1 14 3.7-1.3 4.1-5.1 8.7-11.4 13.9-2.3-5.6-5.5-7.9-9.4-7.1-5.6 1.1-9.4 5-11.4 11.7-1.1 3.5-.2 6.5 2.5 8.9 2.5 2.2 5.1 4.4 7.7 6.6 2.5 3.3 2.8 8 1 13.9-3 9.7-8.4 18.1-16.2 25-7.8 7-16.4 11.4-25.9 13.4-12.2 2.5-17.3.5-15.2-6.1 1.5-4.9 6.1-10.4 13.9-16.6z"/><path class="st6" d="M203.3 108.8h12.3l4.5 18.1 6.4-18.1h12.2l6.5 18.3 4.5-18.3H262l-9.3 32.7H240l-7.4-20.6-7.3 20.6h-12.7l-9.3-32.7z"/><path class="st7" d="M203.3 108.8h12.3l4.5 18.1 6.4-18.1h12.2l6.5 18.3 4.5-18.3H262l-9.3 32.7H240l-7.4-20.6-7.3 20.6h-12.7l-9.3-32.7z"/><path class="st5" d="M138.8 300.4c-8.1 5.3-14.9 8.5-20.5 9.6-7.2 1.5-10-.7-8.3-6.7 1.1-4 3.2-9.3 6.4-15.9 28.2-59.3 45.4-99.7 51.4-121.3 1.2-4.4 1.5-8.3.8-11.7 9.8-7 18.2-11.2 25.3-12.6 6.5-1.3 8.9.9 7.3 6.6-1 3.5-4.7 12.3-11.3 26.3l-18.2 42.5c45.6-56.7 86.1-82.6 94.9-95.8 1.6-2.4 1.8 2.2-2.4 9.6-3.9 7-19.2 17.7-34.7 33.9-16.6 17.4-29.2 33.9-40.3 50.4-.8 19.7 15.6 54.1 28.6 51.4.3-.1.5-.1.9-.2-7.1 17.4-15.7 27.2-26 29.3-8.1 1.7-14.4-4.2-19-17.7s-6.9-29.9-6.9-49.5c-15.6 35.5-24.4 56.9-26.4 64.2-.7 2-1.2 4.5-1.6 7.6z"/><path class="st4" d="M235.8 191.3c5.5-3 10.2-5 14.1-5.8 5.3-1.1 7.3.7 5.8 5.3-.6 2.1-1.8 4.7-3.4 7.8-13.9 27.1-22.3 45.4-25.2 54.9-1.4 4.6-1.5 8.2-.4 10.9-5 3.8-9.4 6-13.2 6.8-6.9 1.4-9.2-1.5-6.9-8.7 1.9-6.3 6.6-16.9 14.1-32 7.5-15 12.2-25.7 14.1-32 .9-2.5 1.2-4.9 1-7.2zm28.5-20.2c-4.4 2.8-8.2 4.5-11.3 5.2-4.7 1-6.6 0-5.7-3 .3-1 .9-2.5 1.9-4.6 1-2.1 1.6-3.6 1.9-4.6.2-.7.2-1.5.1-2.3 5.1-2.8 9.2-4.5 12.4-5.2 5.1-1.1 7 .6 5.7 5.1-.7 1.9-2.3 5-5 9.4zM278.7 209.5c16.2-23.7 29.2-36.6 39-38.6 7.4-1.5 9.8 2 7.2 10.5-1.9 6.1-6 15.5-12.4 28.3S302 232 300.1 238.1c-1.5 4.9-1.7 8.7-.6 11.4-5 3.8-9.4 6-13.4 6.8-6.6 1.4-8.8-1.6-6.6-8.9 1.7-5.4 4.4-12.2 8.3-20.4 9.8-20.7 15-32.1 15.6-34.1.7-2.2.4-3.2-.8-2.9-2.3.5-9.7 9.3-22.2 26.6-12.5 17.2-20.1 30.2-22.8 38.8-.5 1.5-.7 3.3-.8 5.3-3.9 1.9-7.6 3.1-10.9 3.8-6 1.2-8.3-.6-6.8-5.6.8-2.6 2.2-5.9 4.3-10l5.1-10c12.3-24.8 19.7-41.2 22.2-49.3.7-2.2 1-4.2.8-6 5.2-2.8 9.6-4.6 13-5.3 5.4-1.1 7.3.9 5.7 5.9-.8 3-4.7 11.4-11.5 25.3zM342.1 216.9c-2.2.4-2.6-1.6-1.2-6.1 2.8-9.2 6.6-17.6 11.5-25.3 4.8-7.7 9.5-12 14-12.9 4.3-.9 7.4 1.4 9.2 7-16.4 23.7-27.6 36.1-33.5 37.3zM300 258.6c-1.2 4 .9 6.7 6.4 8.2 5.5 1.5 11.1 1.6 16.8.5 7.5-1.5 14.7-4.8 21.5-9.7 6.8-4.9 12.8-11 17.9-18.3 5.1-7.3 13.7-24.8 25.6-52.6 5.6-13.2 10.9-23.1 15.7-29.8-3.6-1.2-7.3-1.4-11.1-.6-3.8.8-6.7 2.5-8.8 5.2-3.3-2.1-7.5-2.6-12.6-1.6-10.3 2.1-20.3 8.9-30.1 20.4-9.8 11.5-16.8 24-20.9 37.4-4.5 14.6-2.4 21 6.3 19.2 8.7-1.8 20.9-12.4 36.6-31.8-10.8 24.2-18.1 38.3-21.8 42.3-3.8 4-8 6.5-12.6 7.5-7.9 1.6-13.1-1.9-15.5-10.5-7.3 4.5-11.8 9.2-13.4 14.2zM392.9 212.2c-.2 8.7 2.8 12.3 9.2 11 6.5-1.3 10.9-5.8 13.3-13.5 1.2-4-2-9.4-9.6-16.1-2.4-3.3-2.7-7.7-1-13.4 2.7-8.9 7.7-16.6 14.8-23 7.1-6.4 15-10.5 23.7-12.3 10.8-2.2 15.5-1 14 3.7-1.3 4.1-5.1 8.7-11.4 13.9-2.3-5.6-5.5-7.9-9.4-7.1-5.6 1.1-9.4 5-11.4 11.7-1.1 3.5-.2 6.5 2.5 8.9 2.5 2.2 5.1 4.4 7.7 6.6 2.5 3.3 2.8 8 1 13.9-3 9.7-8.4 18.1-16.2 25-7.8 7-16.4 11.4-25.9 13.4-12.2 2.5-17.3.5-15.2-6.1 1.5-4.9 6.1-10.4 13.9-16.6z"/><path class="st4" d="M138.8 300.4c-8.1 5.3-14.9 8.5-20.5 9.6-7.2 1.5-10-.7-8.3-6.7 1.1-4 3.2-9.3 6.4-15.9 28.2-59.3 45.4-99.7 51.4-121.3 1.2-4.4 1.5-8.3.8-11.7 9.8-7 18.2-11.2 25.3-12.6 6.5-1.3 8.9.9 7.3 6.6-1 3.5-4.7 12.3-11.3 26.3l-18.2 42.5c45.6-56.7 86.1-82.6 94.9-95.8 1.6-2.4 23.1-10.1 17-4.1-2.4 2.4-55.1 40.2-95.1 97.2 4.7 33.9 16.3 54.9 29.2 52.2.3-.1.5-.1.9-.2-7.1 17.4-15.7 27.2-26 29.3-8.1 1.7-14.4-4.2-19-17.7s-6.9-29.9-6.9-49.5c-15.6 35.5-24.4 56.9-26.4 64.2-.6 2-1.1 4.5-1.5 7.6z"/><path class="st8" d="M198.4 144.4s-2.7-5.4-27.3 10.2c0 0 4.1 10.1-7.7 36.1 0 0-42.9 92.4-45.3 97.8 0 0-18.3 32.7 12.6 12.9 0 0-16.6 6.8-7-11.7 0 0 58.3-120.5 56.7-131.2.1-.1-.2-9.2 18-14.1zM264.7 130l-.2-3.5s-62.1 52.7-91.8 92.7l6.3-1.6c0 .1 61.8-71.8 85.7-87.6zM400 158s-6.3-3.2-12.6 3.9c0 0 7.1-3.9 9.5.8l3.1-4.7zM185.9 218.4s-.6 26.9 18.3 48.2c0 0 17.5 11.4-10.1 24.8 0 0 18.4-17.9 9-21.5 0 0-25.1-30.2-17.2-51.5zM265.3 158.3l-10.6 4.4-1.6 5.2s1.9 2.3 12.2-9.6zM250.8 187s-10.1 2.1-12.9 5.2c.7 2.1 1.4 4.5-.7 9.1 0 0-26.7 57.4-28.1 62.3 0 0 3 2.5 4 4.9 0 0 7.7-8.7 3.8-10.3 0 0 26.5-62.6 27.4-64.4 1.5-2.6 6.5-6.8 6.5-6.8zM273.7 188.2c.6-2 .6-2.9.7-3.7 0 0 10.1-5.2 12.4-2.8 0 0-6.1.5-9.1 7.5l-28.1 61.6s-5.9 10.4 3.3 9.4c0 0-15 7-10.8-3 0-.1 26-51.5 31.6-69zM309.4 183.2s8.6-10.8 10.8-8.4c0 0-2.9 3.4-5.1 8.1l-27.8 60.8s-4 9.1 5.7 8c0 0-13.8 6.5-11.7-2.3-.1-.1 27.3-58.3 28.1-66.2z"/><path class="st8" d="M323.4 175s-7.2-12.6-37.9 27.6c0 0 17.7-19.7 23.7-19.7 0 0 4.8-.1 8.9-5.5 2.8-3.8 5.3-2.4 5.3-2.4zM383.2 162.2l-6.1 6.5s-14.5-19-49.2 38.6c0 0 20.6-52.9 55.3-45.1zM450.7 154.7s8.4-7.3 3.8-8.8c0 0-25.5-4.7-44.3 26.7 0 0 20.2-23.4 38.2-23.2-.1-.1 3.8-.3 2.3 5.3zM421.2 169.2s-4.6 9 5.7 15.8c0 0 8.6 6 3.4 14 0 0 10.5-8.9-2.6-18.7-.9-.5-4.8-1.9-6.5-11.1zM417.9 204.1s1.4 11.5-10.3 19c0 0-15.9 9.4-16.4-7.3 0 0-10.5 8.4-10.1 15.5.2 3.3 5.9.9 5.9.9s-7.2-.3 1.5-6.4c.8-.5 13.7 10 26.3-5.6-.1 0 5.2-5.3 3.1-16.1zM339.8 252.1s-8 7.5-18.3 4.9c-3.9-.9-5.9-2.8-8.9-9.6 0 0-8 4.6-8.6 12.7-.4 5.3 6.9 5 6.9 5s-4.4-3.8 0-8.1c.4-.4 4.1 3.7 11.6 4.2 5.6.2 15.3-.5 25.9-14.2 0 0 14.4-15.6 17.5-43.7 0 0-8.1 36.3-26.1 48.8z"/><path class="st8" d="M341 184.5s-29.8 43.8-15.9 47.9c0 0 5.6-1.3 12.4-6.3 0 0-9.6 3.5-9.2-5.7-.4-9.6 4-14.9 12.7-35.9zM170.3 227s1.3 67.1 18.8 63.9l3.9-8.8c0 .1-18.4-3-22.7-55.1zM340.6 253.7s19.3-24.5 25.8-50.8c0 0 5.7-7.9 12.3-16.6 0 0-18.1 49.3-30.3 60.8l-7.8 6.6zM410.7 172.7s-4.4 10.1 2.6 16.6c0 0 6.6 8.3 4.4 14 0 0-3.9-6.6-7.4-9.6-.1 0-10.2-4.8.4-21z"/><path class="st8" d="M374.3 183.7s-24.1 37.7-35.5 34.6c0 0-.9 2.6-3.1 3.5.1 0 11.9 8.3 38.6-38.1z"/><path style="stroke:#000;stroke-width:1.6532" d="M188.9 79.9H282V102h-93.1z"/><path style="fill:#fdb927;stroke:#000;stroke-width:5.0438" d="M203.5 85h54.9v12.8h-54.9z"/><path class="st4" d="M203.5 85h54.9v12.8h-54.9z"/><path class="st4" d="M190.5 85h88.6v14h-88.6zM274.6 63.3h-13.5L252.4 51l-8.2 11.7-10 .6-10.1-.6-8.2-11.7-8.7 12.3h-13.5l-18.5-7.6 15.7 26.6h86.6l15.6-26.6z"/><path class="st8" d="m218.3 63.9-3.1-8.9-6.3 10.8-17.1.2-10.2-4.2 11.1 17.6h66.8s-28-2.7-41.2-15.5z"/><path d="M196.5 89.6h1.5c.5 0 .9.1 1.1.2.2.1.3.3.3.5s-.1.4-.3.6c-.2.1-.6.2-1.1.2h-1.5v-1.5zm-3.4 6.2h5.8c.2 0 .7 0 1.5-.1.6-.1 1-.1 1.3-.3.4-.2.8-.4 1.1-.8.3-.3.4-.7.4-1.1 0-.5-.2-.9-.6-1.2-.4-.3-.9-.6-1.7-.7.5-.1.9-.3 1.2-.5.4-.3.6-.7.6-1.2s-.3-1-.8-1.4c-.6-.4-1.4-.6-2.4-.6h-6.3v7.9zm3.4-3.3h1.7c.6 0 1 .1 1.2.2.2.1.4.3.4.6 0 .2-.1.4-.4.6-.2.1-.6.2-1.2.2h-1.7v-1.6zM208.3 89.6h1.5c.6 0 1 .1 1.3.2.2.1.3.3.3.6 0 .2-.1.3-.2.5-.1.1-.3.2-.5.2-.4.1-.7.1-.9.1h-1.4v-1.6zm0 6.2v-3.1h.3c.3 0 .6.1.8.2.2.1.4.3.6.6l1.8 2.4h3.8l-1.6-2.2c-.1-.1-.2-.3-.5-.5-.2-.2-.4-.3-.5-.4-.2-.1-.5-.2-.9-.3.5-.1.9-.2 1.2-.3.4-.2.8-.4 1.1-.8.3-.3.4-.7.4-1.1 0-.5-.2-.9-.5-1.3-.3-.3-.8-.6-1.3-.7-.5-.1-1.3-.2-2.4-.2H205v7.7h3.3z"/><path d="m220.2 92.8 1.2-2.8 1.2 2.8h-2.4zm3.6 3h3.5l-4-7.7h-3.7l-4.1 7.7h3.4l.5-1.3h3.8l.6 1.3zM228.4 88h3.1l4.1 4.3V88h3.1v7.7h-3.1l-4-4.3v4.3h-3.1V88zM245.1 89.8c.9 0 1.5.2 1.9.5.4.3.6.9.6 1.7 0 .6-.1 1.1-.2 1.3-.2.3-.4.5-.7.6-.3.1-.8.2-1.5.2h-.8v-4.2h.7zm-4.1 6h5c.6 0 1.3-.1 2-.2.5-.1 1-.3 1.5-.6s.8-.7 1.1-1.1c.3-.5.4-1.1.4-1.9 0-.5-.1-1-.3-1.5-.2-.5-.5-.9-.9-1.2-.4-.4-.9-.6-1.5-.8-.6-.2-1.4-.3-2.4-.3h-5v7.6zM256.2 90.2c.4-.3.9-.5 1.6-.5.7 0 1.3.2 1.7.5.4.3.6.9.6 1.6 0 .9-.2 1.5-.6 1.8-.4.3-.9.5-1.7.5-.7 0-1.3-.2-1.7-.5-.4-.3-.6-.9-.6-1.7.1-.8.3-1.4.7-1.7zm-3.2 3.9c.5.6 1.1 1 1.9 1.3.8.3 1.8.4 3 .4s2.2-.2 3-.5c.8-.3 1.4-.8 1.8-1.4.4-.6.6-1.3.6-2.2 0-1.2-.5-2.2-1.5-2.9-1-.7-2.4-1-4.2-1-1.7 0-3.1.4-4.1 1.1-1 .7-1.5 1.7-1.5 3 .2.9.5 1.6 1 2.2zM265.3 88h3.1l4.1 4.3V88h3.1v7.7h-3.1l-4-4.3v4.3h-3.1V88z"/><path class="st8" d="m252.1 54.5-5 8.2h6.2z"/><path d="m275.7 121.4 1.3-12.1s62.9-37.5 69.5-38.6l4.4 8.8-75.2 41.9z"/><path class="st4" d="M356.7 64.1c-3.7.5-8.5 6.2-10.2 8.8-12.3 6.9-67 35.1-80.4 51.2v6.6s57.3-43.4 84.2-51.8c3.4.5 7.4-.3 7.4-.3 5.8-.9 12.5-8.4 12.5-8.4 7.5-6.3 9.3-10.2 9.3-10.2s-16.2 3.2-22.8 4.1z"/><path class="st8" d="m357.4 66 18.2-4c-9.7 6-12 7.9-16.4 10.2 0 0-7.1 3.1-11.5 4.2 0 0-.2-5.8 7.7-9.8l2-.6z"/><path class="st6" d="M268 108.8h13v11.4h14.2v-11.4h13v32.7h-13v-13.3H281v13.3h-13v-32.7zM316.7 108.8h34.7v7h-21.7v5.2h20.2v6.7h-20.2v6.5h22.4v7.4h-35.4v-32.8zM372.9 129.1l4.6-11.8 4.6 11.8h-9.2zm14 12.4h13.6l-15.7-32.7h-14.3l-15.7 32.7H368l2.1-5.4h14.6l2.2 5.4zM397.7 108.8H437v8.1h-13.2v24.7h-13v-24.7h-13.2v-8.1z"/><path class="st7" d="M268 108.8h13v11.4h14.2v-11.4h13v32.7h-13v-13.3H281v13.3h-13v-32.7zM316.7 108.8h34.7v7h-21.7v5.2h20.2v6.7h-20.2v6.5h22.4v7.4h-35.4v-32.8zM372.9 129.1l4.6-11.8 4.6 11.8h-9.2zm14 12.4h13.6l-15.7-32.7h-14.3l-15.7 32.7H368l2.1-5.4h14.6l2.2 5.4zM397.7 108.8H437v8.1h-13.2v24.7h-13v-24.7h-13.2v-8.1z"/><path class="st4" d="m332.5 71.3 11-11.6s.7 7-1.5 13.5c0 0-.8 5.1-3.7 7.9 0 0-7.3.9-7-3.3l1.2-6.5z"/><path class="st8" d="m334.2 71.7 7.6-7.7s0 2.6-2 7.3c0 0-1.1 3.6-2.9 5.8 0 0-4.2 2.3-3.5-.6l.8-4.8z"/><path class="st4" d="m318.1 77.7 11-11.6s.7 7-1.5 13.5c0 0-.8 5.1-3.7 7.9 0 0-8.6 4-8.3-.2l2.5-9.6zM302.4 87.1l11-11.6s.7 7-1.5 13.5c0 0-.8 5.1-3.7 7.9 0 0-7.7 3.3-7.3-.9l1.5-8.9zM287.8 93.6l11-11.6s.7 7-1.5 13.5c0 0-1.4 8.4-3.4 8.8 0 0-7.3-.3-6.9-4.5l.8-6.2z"/><path class="st8" d="m319.8 78.6 7.2-8.2s-1 4-3 8.7c0 0-1.1 3.6-2.9 5.8 0 0-2.6.8-1.9-2.1l.6-4.2zM303.9 87.9l7.6-8.3s-.6 3.5-2.6 8.2c0 0-1.1 3.6-2.9 5.9 0 0-2.5.7-2.6-1.5l.5-4.3zM289.3 94.8l7.7-8.4s-.2 3-2.1 7.7c0 0-1.1 3.6-2.9 5.8 0 0-2.9 2.1-3.1-.8l.4-4.3z"/><path class="st4" d="m289.5 101.9 3.5 1.6-2.2 5.8-3 2z"/><g><path d="M456.8 723.4v-.6c.6-.1 1-.1 1.2-.3.2-.1.4-.4.5-.9h.6v6.3h-.8v-4.5h-1.5zM461.3 727.9c0-.5.1-1 .3-1.4.2-.4.6-.8 1.1-1.1l.8-.5c.4-.2.6-.4.8-.6.2-.2.4-.5.4-.8 0-.4-.1-.7-.3-.9s-.5-.3-.9-.3c-.5 0-.9.2-1.1.6-.1.2-.2.5-.2.9h-.8c0-.6.1-1 .3-1.3.3-.6 1-.9 1.8-.9.7 0 1.3.2 1.6.6.3.4.5.8.5 1.3s-.2.9-.5 1.3c-.2.2-.6.5-1.1.8l-.6.3c-.3.2-.5.3-.7.5-.3.3-.5.5-.6.9h3.5v.8h-4.3v-.2zM468.3 728.1c-.7 0-1.3-.2-1.6-.6-.3-.4-.5-.9-.5-1.5h.8c0 .4.1.7.2.9.2.3.6.5 1.1.5.4 0 .8-.1 1-.3.3-.2.4-.5.4-.9s-.1-.7-.4-.9c-.3-.2-.6-.3-1.1-.3h-.4v-.7h.4c.3 0 .5 0 .7-.1.3-.2.5-.5.5-.9 0-.3-.1-.6-.3-.7-.2-.2-.5-.3-.8-.3-.5 0-.9.2-1.1.5-.1.2-.2.5-.2.8h-.8c0-.5.1-.9.3-1.2.3-.6.9-.9 1.7-.9.6 0 1.1.1 1.5.4s.5.7.5 1.2c0 .4-.1.7-.3.9-.1.2-.3.3-.5.4.3.1.6.3.8.5.2.3.3.6.3 1 0 .6-.2 1.1-.6 1.5-.3.5-.8.7-1.6.7zM473.4 723c.5 0 1 .1 1.3.4.3.3.5.7.6 1.3h-.8c0-.3-.2-.5-.3-.7s-.4-.3-.8-.3c-.5 0-.9.2-1.1.7-.1.3-.2.7-.2 1.2s.1.9.3 1.2c.2.3.5.5.9.5.3 0 .6-.1.8-.3.2-.2.3-.5.4-.8h.8c-.1.6-.3 1.1-.7 1.4s-.8.4-1.4.4c-.6 0-1.1-.2-1.5-.7-.4-.5-.6-1-.6-1.7 0-.8.2-1.5.6-1.9.6-.4 1.1-.7 1.7-.7z"/></g><g><path d="M497.2 721.9c.7 0 1.3.2 1.7.6.4.4.6.8.7 1.3h-.8c-.1-.4-.3-.7-.5-.9-.3-.2-.6-.3-1.1-.3-.6 0-1 .2-1.4.6-.3.4-.5 1-.5 1.8 0 .7.2 1.2.5 1.6.3.4.8.6 1.4.6.6 0 1-.2 1.3-.7.2-.2.3-.5.4-.9h.8c-.1.6-.3 1.1-.7 1.5-.5.5-1.1.7-1.8.7s-1.2-.2-1.7-.6c-.6-.5-.9-1.3-.9-2.4 0-.8.2-1.5.7-2.1.4-.5 1-.8 1.9-.8zM502.1 723.4c.5 0 1 .2 1.4.5.4.4.6.9.6 1.6 0 .7-.2 1.2-.5 1.7-.3.4-.8.7-1.5.7-.6 0-1-.2-1.4-.6-.3-.4-.5-.9-.5-1.6 0-.7.2-1.3.5-1.7.3-.3.8-.6 1.4-.6zm0 3.9c.5 0 .8-.2 1-.5.2-.3.3-.7.3-1.2 0-.4-.1-.7-.2-.9-.2-.4-.5-.6-1-.6-.4 0-.7.2-.9.5-.2.3-.3.7-.3 1.2 0 .4.1.8.3 1.1 0 .2.3.4.8.4zM506.5 723.4c.5 0 1 .2 1.4.5.4.4.6.9.6 1.6 0 .7-.2 1.2-.5 1.7-.3.4-.8.7-1.5.7-.6 0-1-.2-1.4-.6-.3-.4-.5-.9-.5-1.6 0-.7.2-1.3.5-1.7.3-.3.8-.6 1.4-.6zm0 3.9c.5 0 .8-.2 1-.5.2-.3.3-.7.3-1.2 0-.4-.1-.7-.2-.9-.2-.4-.5-.6-1-.6-.4 0-.7.2-.9.5-.2.3-.3.7-.3 1.2 0 .4.1.8.3 1.1 0 .2.3.4.8.4zM509.3 722h.7v5.7h-.7V722zM515.7 721.9c.5 0 1 .1 1.4.3.6.3.9.8 1 1.6h-.8c-.1-.4-.3-.7-.6-.9-.3-.2-.7-.3-1.1-.3-.5 0-1 .2-1.3.6-.4.4-.5 1-.5 1.8 0 .7.1 1.2.4 1.7.3.4.8.6 1.5.6.5 0 .9-.1 1.3-.4.3-.3.5-.8.5-1.4h-1.8v-.6h2.5v3h-.5l-.2-.7c-.3.3-.5.5-.7.6-.3.2-.8.3-1.3.3-.7 0-1.3-.2-1.7-.7-.5-.5-.8-1.3-.8-2.3 0-1 .3-1.7.8-2.3.5-.6 1.2-.9 1.9-.9zM519.4 723.6h.7v.7c.1-.1.2-.3.4-.5s.5-.3.7-.3H521.5v.7h-.2c-.4 0-.6.1-.8.3-.2.2-.3.5-.3.8v2.4h-.7v-4.1zM523.7 723.5c.3 0 .6.1.9.2.3.1.5.3.6.5.1.2.2.5.3.7 0 .2.1.5.1.9h-3c0 .4.1.8.3 1 .2.3.5.4.9.4s.7-.1.9-.4c.1-.1.2-.3.3-.5h.7c0 .2-.1.3-.2.5s-.2.3-.3.5c-.2.2-.5.3-.8.4-.2 0-.4.1-.6.1-.5 0-1-.2-1.3-.6-.4-.4-.5-.9-.5-1.6 0-.7.2-1.2.5-1.6.2-.3.6-.5 1.2-.5zm1.1 1.8c0-.3-.1-.5-.2-.7-.2-.3-.5-.5-1-.5-.3 0-.6.1-.8.3-.2.2-.3.5-.3.9h2.3zM529 723.6h.8c-.1.3-.3.9-.7 1.8-.3.7-.5 1.3-.6 1.7-.4 1.1-.7 1.7-.9 1.9-.2.2-.4.3-.9.3h-.4v-.6c.1 0 .2.1.3.1h.1c.1 0 .2 0 .3-.1.1 0 .1-.1.2-.2 0 0 .1-.1.1-.3.1-.2.1-.3.2-.4l-1.5-4.3h.8l1.1 3.4 1.1-3.3zM534.7 727.7v-1.4h-2.4v-.7l2.5-3.5h.6v3.6h.8v.6h-.8v1.4h-.7zm0-1.9v-2.5l-1.8 2.5h1.8zM538.6 723.4c.5 0 .8.1 1.1.3.3.2.5.6.5 1.2h-.7c0-.3-.1-.5-.3-.6-.1-.2-.4-.3-.7-.3-.4 0-.8.2-1 .7-.1.3-.2.6-.2 1s.1.8.3 1c.2.3.5.4.8.4.3 0 .5-.1.7-.3.2-.2.3-.4.4-.7h.7c-.1.5-.3 1-.6 1.2-.3.3-.7.4-1.2.4s-1-.2-1.3-.6c-.3-.4-.5-.9-.5-1.5 0-.7.2-1.3.5-1.7.5-.2.9-.5 1.5-.5z"/></g><g><path d="M388.6 722.2h2.7c.5 0 1 .2 1.3.5.3.3.5.7.5 1.3 0 .5-.1.9-.4 1.2-.3.3-.7.5-1.4.5h-1.9v2.5h-.8v-6zm3.7 1.7c0-.4-.2-.7-.5-.9-.2-.1-.4-.1-.7-.1h-1.6v2.1h1.6c.4 0 .7-.1.9-.2.2-.2.3-.5.3-.9zM394 723.8h.7v.8c.1-.1.2-.3.4-.5s.5-.3.8-.3H396.2v.8h-.2c-.4 0-.7.1-.9.4-.2.2-.3.5-.3.8v2.5h-.8v-4.5zM398.6 723.7c.6 0 1 .2 1.4.6.4.4.6.9.6 1.7 0 .7-.2 1.3-.5 1.8s-.9.7-1.6.7c-.6 0-1.1-.2-1.4-.6-.4-.4-.5-1-.5-1.6 0-.7.2-1.3.6-1.8.3-.6.8-.8 1.4-.8zm0 4c.5 0 .8-.2 1-.6.2-.4.3-.8.3-1.2 0-.4-.1-.7-.2-1-.2-.4-.6-.6-1.1-.6-.5 0-.8.2-1 .5-.2.3-.3.8-.3 1.2 0 .5.1.9.3 1.2.2.4.5.5 1 .5zM403.2 723.7c.5 0 .9.1 1.2.4.3.2.5.7.6 1.2h-.7c0-.3-.1-.5-.3-.7-.2-.2-.4-.3-.8-.3-.5 0-.8.2-1 .7-.1.3-.2.7-.2 1.1 0 .4.1.8.3 1.1.2.3.5.5.9.5.3 0 .5-.1.7-.3.2-.2.3-.4.4-.8h.7c-.1.6-.3 1-.6 1.3-.3.3-.7.4-1.3.4-.6 0-1-.2-1.4-.6-.3-.4-.5-.9-.5-1.6 0-.8.2-1.4.6-1.8.3-.4.8-.6 1.4-.6zM407.5 723.7c.3 0 .6.1.9.2.3.1.5.3.7.6.1.2.2.5.3.8 0 .2.1.5.1 1h-3.2c0 .4.1.8.3 1.1.2.3.5.4.9.4s.7-.1.9-.4c.1-.1.2-.3.3-.5h.7c0 .2-.1.3-.2.5s-.2.4-.4.5c-.2.2-.5.4-.8.4-.2 0-.4.1-.6.1-.5 0-1-.2-1.4-.6-.4-.4-.6-1-.6-1.7s.2-1.3.6-1.7c.4-.5.9-.7 1.5-.7zm1.2 1.9c0-.3-.1-.6-.2-.8-.2-.4-.5-.5-1-.5-.3 0-.6.1-.9.4s-.4.6-.4.9h2.5zM410.8 726.8c0 .2.1.4.2.6.2.2.5.4 1 .4.3 0 .5-.1.7-.2.2-.1.3-.3.3-.6 0-.2-.1-.3-.3-.4-.1-.1-.3-.1-.6-.2l-.6-.1c-.4-.1-.7-.2-.8-.3-.3-.2-.5-.5-.5-.8 0-.4.1-.8.4-1 .3-.3.7-.4 1.2-.4.7 0 1.1.2 1.4.6.2.2.3.5.3.8h-.7c0-.2-.1-.3-.2-.5-.2-.2-.5-.3-.9-.3-.3 0-.5.1-.6.2-.1.1-.2.2-.2.4s.1.3.3.5c.1.1.3.1.5.2l.5.1c.5.1.9.3 1.1.4.3.2.4.5.4.9s-.1.7-.4 1c-.3.3-.7.4-1.4.4s-1.1-.1-1.4-.4c-.3-.3-.4-.7-.4-1.1h.7zM415 726.8c0 .2.1.4.2.6.2.2.5.4 1 .4.3 0 .5-.1.7-.2.2-.1.3-.3.3-.6 0-.2-.1-.3-.3-.4-.1-.1-.3-.1-.6-.2l-.6-.1c-.4-.1-.7-.2-.8-.3-.3-.2-.5-.5-.5-.8 0-.4.1-.8.4-1 .3-.3.7-.4 1.2-.4.7 0 1.1.2 1.4.6.2.2.3.5.3.8h-.7c0-.2-.1-.3-.2-.5-.2-.2-.5-.3-.9-.3-.3 0-.5.1-.6.2-.1.1-.2.2-.2.4s.1.3.3.5c.1.1.3.1.5.2l.5.1c.5.1.9.3 1.1.4.3.2.4.5.4.9s-.1.7-.4 1c-.3.3-.7.4-1.4.4s-1.1-.1-1.4-.4c-.3-.3-.4-.7-.4-1.1h.7zM421.2 722.2h2.6c.7 0 1.2.2 1.5.6.2.2.3.5.3.9s-.1.7-.3.9c-.1.1-.3.2-.5.4.3.1.5.3.7.4.3.3.4.6.4 1.1 0 .4-.1.7-.4 1.1-.4.5-.9.7-1.7.7h-2.5v-6.1zm2.3 2.5c.3 0 .6 0 .8-.1.3-.2.5-.4.5-.8s-.2-.7-.5-.8c-.2-.1-.4-.1-.8-.1H422v1.9h1.5zm.3 2.8c.5 0 .9-.1 1.1-.4.1-.2.2-.4.2-.7 0-.4-.2-.7-.6-.9-.2-.1-.5-.1-.8-.1H422v2.1h1.8zM426.7 722.2h.7v6h-.7v-6zM430.9 725.5c.2 0 .3-.1.3-.2v-.3c0-.3-.1-.4-.3-.5-.2-.1-.4-.2-.8-.2s-.7.1-.8.3c-.1.1-.1.3-.2.5h-.7c0-.5.2-.9.5-1.1.3-.2.7-.3 1.2-.3s.9.1 1.3.3c.3.2.5.5.5.9v2.7s.1.1.2.1h.2v.5c-.1 0-.2.1-.3.1h-.2c-.3 0-.4-.1-.6-.3-.1-.1-.1-.2-.1-.4-.2.2-.4.4-.6.5-.3.1-.6.2-.9.2-.4 0-.7-.1-1-.4-.3-.2-.4-.6-.4-.9 0-.4.1-.7.4-.9.3-.2.6-.4 1-.4l1.3-.2zm-1.7 1.5c0 .2.1.4.2.5.2.1.3.2.6.2s.5-.1.8-.2c.4-.2.6-.5.6-1v-.5c-.1.1-.2.1-.3.1-.1 0-.3.1-.4.1l-.4.1c-.3 0-.5.1-.6.2-.4 0-.5.2-.5.5zM435 723.7c.5 0 .9.1 1.2.4.3.2.5.7.6 1.2h-.8c0-.3-.1-.5-.3-.7-.2-.2-.4-.3-.8-.3-.5 0-.8.2-1 .7-.1.3-.2.7-.2 1.1 0 .4.1.8.3 1.1.2.3.5.5.9.5.3 0 .5-.1.7-.3.2-.2.3-.4.4-.8h.7c-.1.6-.3 1-.6 1.3-.3.3-.7.4-1.3.4-.6 0-1-.2-1.4-.6-.3-.4-.5-.9-.5-1.6 0-.8.2-1.4.6-1.8.4-.4.9-.6 1.5-.6zM437.5 722.2h.7v3.5l1.9-1.9h.9l-1.7 1.6 1.8 2.8h-.9l-1.4-2.2-.6.6v1.7h-.7v-6.1z"/></g><g><path d="m561.3 722.4 1 4.5 1.2-4.5h.8l1.2 4.5 1-4.5h.8l-1.4 5.5h-.8l-1.3-4.5-1.3 4.5h-.8l-1.4-5.5h1zM568.1 722.3h.7v2l.4-.4c.2-.1.5-.2.8-.2.6 0 1 .2 1.2.6.1.2.2.5.2.9v2.6h-.7v-2.5c0-.3 0-.5-.1-.6-.1-.2-.4-.3-.7-.3-.3 0-.5.1-.8.3-.2.2-.3.6-.3 1.1v2.1h-.7v-5.6zM572.3 722.4h.7v.8h-.7v-.8zm0 1.5h.7v4h-.7v-4zM574.2 722.7h.7v1.1h.6v.5h-.6v2.6c0 .1 0 .2.1.3h.5v.5h-.5c-.3 0-.5-.1-.6-.2-.1-.2-.2-.4-.2-.6v-2.6h-.5v-.5h.5v-1.1zM577.8 723.8c.3 0 .6.1.8.2s.5.3.6.5c.1.2.2.4.3.7 0 .2.1.5.1.9h-2.9c0 .4.1.7.3 1 .2.2.5.4.8.4.4 0 .6-.1.8-.3.1-.1.2-.3.3-.5h.7c0 .1-.1.3-.2.5s-.2.3-.3.4c-.2.2-.5.3-.8.4-.2 0-.3.1-.5.1-.5 0-.9-.2-1.3-.5-.3-.4-.5-.9-.5-1.5s.2-1.2.5-1.6c.3-.5.8-.7 1.3-.7zm1.1 1.7c0-.3-.1-.5-.2-.7-.2-.3-.5-.5-.9-.5-.3 0-.6.1-.8.3s-.3.5-.3.8h2.2z"/></g><path d="M388.6 691.3H440V716h-51.4z"/><g><path d="M351.4 724.3v-.6c.6-.1 1-.1 1.2-.3.2-.1.4-.4.5-.9h.6v6.3h-.8v-4.5h-1.5zM358.6 728.8v-1.5h-2.8v-.8l2.9-4h.7v4.1h.9v.7h-.9v1.5h-.8zm0-2.2v-2.9l-2 2.9h2zM361.5 724.3v-.6c.6-.1 1-.1 1.2-.3.2-.1.4-.4.5-.9h.6v6.3h-.8v-4.5h-1.5zM368.1 724c.5 0 1 .1 1.3.4.3.3.5.7.6 1.3h-.8c0-.3-.2-.5-.3-.7-.2-.2-.4-.3-.8-.3-.5 0-.9.2-1.1.7-.1.3-.2.7-.2 1.2s.1.9.3 1.2c.2.3.5.5.9.5.3 0 .6-.1.8-.3.2-.2.3-.5.4-.8h.8c-.1.6-.3 1.1-.7 1.4-.4.3-.8.4-1.4.4-.6 0-1.1-.2-1.5-.7-.4-.5-.6-1-.6-1.7 0-.8.2-1.5.6-1.9.5-.5 1-.7 1.7-.7z"/></g><path class="st8" d="M337.4 692.5h51.4v24.8h-51.4z"/><path class="st4" d="M439.8 691.3h51.4V716h-51.4z"/><path style="fill:#b1b3b6" d="M490.9 691.3h51.4V716h-51.4z"/><path class="st7" d="M542.1 691.3h51.4V716h-51.4z"/><path class="st12" d="M388.9 716.1h204.6M593.5 691.3H388.9"/><path style="fill:none;stroke:#000;stroke-width:.5452" d="M338.5 691.8h254.9v43.1H338.5z"/><path d="m387.4 264.1 2.1-5.5h2v7.4h-1.3v-6l-2.3 6h-.9l-2.3-6v6h-1.3v-7.4h2l2 5.5zm-5.5-4.4h-2.3v6.3h-1.3v-6.3H376v-1.1h5.9v1.1z"/><g><path class="st14" d="M289.5 430.6c-3-3.4-7-4.6-10.8-4.9v-24.8h-39c-4.4-2.5-12.3-7.2-12.3-7.2 4.4-4.2 6.9-8.5 7.5-9.5l9.9-18.6s-29.7 3.6-34.6 4.5c-.1-.6 0 .7-.1.2l-2.4-10.4-8.2 6.8s-.9.7-1.4 1.2c-.5-1.9-1.1-4-1.1-4s-8.1 7.4-8.2 7.4c-.2-2.4-.5-5.2-.5-5.2s-9.3 9.8-9.7 10.2c-.3-2.7-.6-5.7-.6-5.7l-10 10.5c-.2-1.9 5.8-12.5 5.8-12.5l-21 8.1h-7.1l-8.4-11.9-8.4 11.5-8.9.1-8.4-9.6-8.5 9.8-5.5.2-24.1-11.2 13.9 29.3s6.8 29.2 6.4 29.3c-6.6 1.4-13.9 4.9-22.2 10.8l-6.5 4.6 1.6 7.8v.3c0 .4-.1 1.1-.4 2.1-4 14.4-15.9 42.3-35.2 83-2.5 5.3-4.2 9.6-5.2 13.1-.5 2-.8 3.8-.8 5.4 0 5.1 2.3 8.5 3.9 10.3 2.7 2.9 7.9 6.1 16.8 4.2 5.5-1.1 11.5-3.9 18.5-8.5l4.6-3 .8-5.5c.3-2 .5-3.1.7-3.7.2-.8.7-2.3 1.9-5.3 7.7 17.5 20.3 17.1 25.6 16 9.7-2 17.5-8.9 23.7-20.8.9-.5 1.8-1.1 2.8-1.7 2.7 1.1 6.2 1.7 10.9.7 3.3-.7 6.8-1.9 10.4-3.6 0 0 6.5-3 6.6-3.1 2.3 1 5.3 1.7 9.1 1.3 1.9 2.5 5.1 5.3 10.6 6.8 5.7 1.5 11.5 1.7 17.4.5 6.9-1.4 13.5-4.4 19.7-8.8 5.3-3.8 10.1-8.6 14.2-14.1 6 2.3 12.7 1 15.7.3 8.8-1.8 16.8-5.9 23.8-12.2 7.1-6.3 12.1-14.1 14.8-23 .9-2.9 1.4-5.8 1.4-8.4 0-2.6-.5-5-1.3-7.2 1.4-1.2 2.8-2.3 2.8-2.3 6.4-5.2 10.3-10.3 11.9-15.5.5-1.5.7-3.1.7-4.6 0-3.6-1.3-6.9-3.6-9.5zM184.2 396c.4.6 1.8 3.1 3 5h-9.6c1.2-1 5.7-4.4 6.6-5z"/><path class="st1" d="M284.6 435c-3.4-3.7-9.4-3.1-14.8-2-2.4.5-4.7 1.2-6.9 2.1v-10.8h9.2v-16.8h-55.6l-4.3 9v-9H94.9l6.2 22.8c-2-.6-2.4-.4-5.9.3-5.7 1.2-12.2 4.4-19.8 9.8l-3 2.1.7 3.6c.3 1.5.2 3.4-.4 5.6-4.1 14.8-16.1 43-35.6 84-2.4 5-4 8.9-4.8 12.1-1.4 4.9.1 7.8 1.6 9.4 2.3 2.5 5.9 3.2 10.7 2.3 4.6-1 9.9-3.4 16.2-7.5l2.1-1.4.3-2.5c.3-1.9.5-3.4.9-4.5.7-2.4 3-8.6 9.4-23.7.8 4.9 1.9 9.5 3.4 13.7 5.3 15.5 13.6 17.3 19.7 16 8.1-1.7 14.7-8 20.1-19.1 1.9-1 3.9-2.2 6-3.8l1.4-1.1c2.1 2.3 5.4 3.1 9.8 2.2 2.8-.6 5.7-1.6 8.9-3.1l3.1-1.5.1-3.4c0-.9.1-1.6.3-2.2.7-2.2 2.2-5.7 5.4-11.1-.3.8-.5 1.5-.7 2.2-.6 1.8-.8 3.4-.8 4.9 0 2.4.7 4.4 2.1 6 1.5 1.7 4.5 3.5 9.7 2.4 1-.2 1.9-.5 2.9-.8.2 1.1.6 2 .9 2.7 1.4 2.6 4 4.4 7.8 5.4 4.7 1.3 9.5 1.4 14.3.4 6-1.2 11.8-3.8 17.2-7.7 5.2-3.8 9.9-8.5 13.8-14.1.7-1 1.5-2.3 2.4-3.9.2.3.4.6.6.8 3.7 4.1 10.3 3.4 15.5 2.3 7.6-1.6 14.6-5.1 20.8-10.7 6.2-5.5 10.5-12.3 12.9-20 .7-2.3 1.1-4.5 1.1-6.5 0-3.1-.9-5.9-2.6-8.2l-.4-.5-5.8-5-.1-.1c0-.1 0-.1.1-.2 1-3.2 2.4-4 3.3-4.3.2.3.5.7.8 1.6l2.9 6.9 5.8-4.8c5.4-4.4 8.6-8.5 9.8-12.4 1-3.1.5-5.9-1.4-7.9zm-32.4 6.6c-.5.4-1 .9-1.5 1.3l-.3.3-4.7-1.6h6.5zm-151.6 45.7c5.7-6.8 10.3-12.6 14-17.3 4.3-5.5 7.7-9.8 10.6-12.6 1.1-1.1 2.8-2.6 4.7-4.2-.7 1.5-1.1 2.6-1.4 3.4-.3.9-.4 1.8-.4 2.5 0 1.7.6 3 1.2 3.9-1.9.8-4 1.8-6.2 3l-3.2 1.8.3 3.6v.5c0 .7-.1 1.5-.4 2.4-1.3 4.1-4.5 11.3-9.5 21.6-2.2 4.5-4.1 8.3-5.6 11.7-1.5-4.6-2.9-11.1-4.1-20.3zm6.2-45.1c.1-.2.1-.4.2-.6h11c-5.6 5-11.7 10.9-18.4 17.7 5.5-11.8 6.7-15.4 7.2-17.1zm88.9 64.1c-1.8 2-3.8 3.2-5.9 3.6-1.4.3-2.6.5-3.6-1.5 1.2.1 2.7.1 4.3-.2 1.7-.4 3.4-1 5.2-1.9zm-.3-46.8c-.3.4-.7.8-1 1.2.1-2.3-.3-5-2.3-7.1-1.6-1.8-4.7-3.6-10.2-2.5-4.2.9-8.7 3.5-13.6 8.2-.2-.2-.4-.5-.5-.7-1.4-1.6-4.2-3.2-9.1-2.2-2.4.5-5.1 1.5-8.2 3 2.1-3.4 3.4-5.9 3.9-7.7.4-1.3.6-2.4.6-3.4 0-2.4-1-4.1-1.9-5.1-.6-.7-1.3-1.2-2.2-1.6h71.3s1.5-3.7 1.5-3.8h2.6l1.5 3.8h4.2c-1.3.5-2.4 1.1-3.5 1.8-2.7-.7-5.6-.7-8.8-.1-8.5 1.8-16.6 7.2-24.3 16.2z"/><path class="st1" d="M222.9 390.8c6.2-4.6 9.9-12.3 10-12.6l3.7-7.2-8.5 1.5-17.4 2.6s-2.9 3-2.9 2.6c0-1.9-1.7-9.7-1.7-9.7l-9.2 9.1c-.3-.2 0 .2-.4 0l-1.2-4.6-10.4 10.5-.5-4.9-10.2 11.2-.6-6.2-6.5 7.2-4 4.4-.5-4.9-6.5 7.2-9 9.8-.6 6.2c-.2 2.8 1.2 5.1 3.9 6.2 0 0 .2.1.5.2-.1.8-.1 1.7.2 2.7.5 1.8 1.9 3.2 3.8 3.9l6.2 2.4 23.4-4.8-4.4-2.7 15.9-3.3-5.6-3.4 15.4-3.2-4.5-2.7 16.8-3.5-5.5-3.3 15.1-3.1-8.5-5.1c0-.1 3.1-1.8 3.7-2.5z"/><path class="st15" d="M209.7 381.5c4.7-1 16.7-2.9 16.7-2.9s-3.1 5.9-8.7 9.8c0 0-3.5 3.6-7.8 4.2 0 0-10.8.4-8.2-2.7 0-.1 3.2-7.4 8-8.4z"/><path class="st16" d="m202.4 400.1 11.6-2.3s-4.6-2.7-9.9-3.6c0 0-3.8-1.2-6.7-.5 0 0-2.7 3.5.3 4.7l4.7 1.7zM193.3 406l11.6-2.3s-4.6-2.7-9.9-3.6c0 0-3.8-1.2-6.7-.5 0 0-2.7 3.5.3 4.7l4.7 1.7zM181.6 411.6l11.6-2.3s-4.6-2.7-9.9-3.6c0 0-3.8-1.2-6.7-.5 0 0-2.7 3.5.3 4.7l4.7 1.7zM161.4 423l11.6-2.3s-4.6-2.7-9.9-3.6c0 0-3.8-1.2-6.7-.5 0 0-2.7 3.5.3 4.7l4.7 1.7z"/><path class="st16" d="m193.4 386.9 7.7-8.1s.5 4.9-1.1 9.5c0 0-.6 3.6-2.6 5.5 0 0-4.7.5-4.5-2.4l.5-4.5zM183.4 391.3l7.7-8.1s.5 4.9-1.1 9.5c0 0-.6 3.6-2.6 5.5 0 0-4.7.5-4.4-2.4l.4-4.5zM172.3 397.9l7.7-8.1s.5 4.9-1.1 9.5c0 0-.6 3.6-2.6 5.5 0 0-4.7.5-4.4-2.4l.4-4.5zM162.1 402.4l7.7-8.1s.5 4.9-1.1 9.5c0 0-.6 3.6-2.6 5.5 0 0-4.7.5-4.4-2.4l.4-4.5z"/><path class="st4" d="m202.4 400.1 11.6-2.3s-4.6-2.7-9.9-3.6c0 0-3.8-1.2-6.7-.5 0 0-2.7 3.5.3 4.7l4.7 1.7zM193.3 406l11.6-2.3s-3.9-2-9.9-3.6c0 0-3.8-1.2-6.7-.5 0 0-2.7 3.5.3 4.7l4.7 1.7zM182.3 411.3l10.9-2s-4.5-2.4-9.9-3.6c0 0-3.8-1.2-6.7-.5 0 0-2.7 3.5.3 4.7l5.4 1.4zM156.4 416.6s-2.7 3.5.3 4.7"/><path class="st17" d="M125.7 470.9c3.8-2.1 7.1-3.5 9.9-4 3.7-.8 5.1.5 4.1 3.7-.4 1.5-1.2 3.3-2.4 5.5-9.7 19-15.6 31.8-17.6 38.4-1 3.2-1.1 5.7-.3 7.6-3.5 2.6-6.6 4.2-9.2 4.8-4.8 1-6.4-1.1-4.9-6.1 1.4-4.4 4.6-11.9 9.9-22.4 5.2-10.5 8.5-18 9.9-22.4.5-1.8.7-3.5.6-5.1zm20-14.2c-3.1 2-5.7 3.2-7.9 3.6-3.3.7-4.6 0-4-2.1.2-.7.7-1.8 1.3-3.2.7-1.4 1.1-2.5 1.3-3.2.1-.5.2-1 0-1.6 3.6-2 6.5-3.2 8.7-3.6 3.6-.7 4.9.4 4 3.6-.4 1.3-1.6 3.5-3.4 6.5zM155.8 483.6c11.3-16.6 20.4-25.6 27.3-27 5.2-1.1 6.9 1.4 5 7.4-1.3 4.3-4.2 10.9-8.7 19.8-4.5 9-7.4 15.6-8.7 19.9-1.1 3.4-1.2 6.1-.4 8-3.5 2.6-6.6 4.2-9.3 4.8-4.6 1-6.2-1.1-4.6-6.2 1.2-3.8 3.1-8.5 5.8-14.3 6.8-14.5 10.5-22.4 10.9-23.8.5-1.5.3-2.2-.5-2-1.6.3-6.8 6.5-15.6 18.6-8.8 12.1-14.1 21.1-16 27.2-.3 1.1-.5 2.3-.6 3.7-2.8 1.3-5.3 2.2-7.6 2.7-4.2.9-5.8-.4-4.7-3.9.6-1.8 1.6-4.1 3-7l3.6-7c8.6-17.3 13.8-28.8 15.5-34.5.5-1.5.7-2.9.6-4.2 3.7-2 6.7-3.2 9.1-3.7 3.8-.8 5.1.6 4 4.2-.7 1.7-3.4 7.5-8.1 17.3zM200.1 488.8c-1.5.3-1.8-1.1-.8-4.2 2-6.4 4.7-12.3 8-17.7 3.4-5.4 6.6-8.4 9.8-9.1 3-.6 5.2 1 6.4 4.9-11.4 16.5-19.2 25.2-23.4 26.1zm-29.4 29.1c-.9 2.8.6 4.7 4.5 5.7s7.8 1.2 11.8.3c5.3-1.1 10.3-3.3 15-6.8 4.8-3.4 8.9-7.7 12.5-12.8 3.6-5.1 9.6-17.4 17.9-36.8 4-9.2 7.6-16.2 11-20.9-2.5-.8-5.1-1-7.7-.5-2.7.5-4.7 1.8-6.2 3.6-2.3-1.5-5.3-1.8-8.8-1.1-7.2 1.5-14.2 6.3-21.1 14.3-6.9 8.1-11.7 16.8-14.6 26.2-3.1 10.2-1.7 14.7 4.4 13.4 6.1-1.2 14.6-8.7 25.7-22.2-7.6 16.9-12.7 26.8-15.3 29.6-2.6 2.8-5.6 4.6-8.8 5.2-5.6 1.1-9.2-1.3-10.8-7.4-5.3 3.4-8.4 6.8-9.5 10.2zM235.7 485.5c-.2 6.1 2 8.6 6.4 7.7 4.5-.9 7.6-4.1 9.3-9.4.9-2.8-1.4-6.6-6.7-11.3-1.7-2.3-1.9-5.4-.7-9.4 1.9-6.2 5.4-11.6 10.4-16.1 5-4.5 10.5-7.3 16.6-8.6 7.5-1.6 10.8-.7 9.8 2.6-.9 2.8-3.5 6.1-8 9.7-1.6-3.9-3.8-5.6-6.6-5-3.9.8-6.5 3.5-8 8.2-.8 2.5-.2 4.5 1.8 6.2 1.8 1.5 3.6 3.1 5.4 4.6 1.7 2.3 2 5.6.7 9.7-2.1 6.8-5.9 12.6-11.3 17.5s-11.5 8-18.2 9.4c-8.5 1.8-12.1.3-10.7-4.3 1.1-3.3 4.4-7.2 9.8-11.5z"/><path class="st18" d="M103 413.1h8.6l3.1 12.7 4.5-12.7h8.5l4.6 12.8 3.1-12.8h8.6l-6.5 22.9h-8.9l-5.2-14.4-5.1 14.4h-8.9l-6.4-22.9z"/><path class="st7" d="M103 413.1h8.6l3.1 12.7 4.5-12.7h8.5l4.6 12.8 3.1-12.8h8.6l-6.5 22.9h-8.9l-5.2-14.4-5.1 14.4h-8.9l-6.4-22.9z"/><path class="st17" d="M57.8 547.2c-5.7 3.7-10.4 5.9-14.3 6.7-5.1 1-7-.5-5.8-4.7.8-2.8 2.3-6.5 4.5-11.2 19.8-41.5 31.8-69.8 36-84.9.8-3.1 1-5.8.5-8.2 6.9-4.9 12.8-7.8 17.7-8.8 4.5-.9 6.2.6 5.1 4.6-.7 2.4-3.3 8.6-7.9 18.4l-12.7 29.7c31.9-39.7 60.3-57.8 66.4-67 1.1-1.7 1.3 1.6-1.7 6.7-2.8 4.9-13.5 12.4-24.3 23.7-11.6 12.2-20.4 23.7-28.2 35.3-.6 13.8 10.9 37.9 20 36 .2 0 .4-.1.6-.1-5 12.2-11 19-18.2 20.5-5.7 1.2-10.1-2.9-13.3-12.4-3.2-9.4-4.8-21-4.9-34.6-10.9 24.9-17.1 39.8-18.5 44.9-.3 1.5-.7 3.2-1 5.4z"/><path class="st4" d="M125.7 470.9c3.8-2.1 7.1-3.5 9.9-4 3.7-.8 5.1.5 4.1 3.7-.4 1.5-1.2 3.3-2.4 5.5-9.7 19-15.6 31.8-17.6 38.4-1 3.2-1.1 5.7-.3 7.6-3.5 2.6-6.6 4.2-9.2 4.8-4.8 1-6.4-1.1-4.9-6.1 1.4-4.4 4.6-11.9 9.9-22.4 5.2-10.5 8.5-18 9.9-22.4.5-1.8.7-3.5.6-5.1zm20-14.2c-3.1 2-5.7 3.2-7.9 3.6-3.3.7-4.6 0-4-2.1.2-.7.7-1.8 1.3-3.2.7-1.4 1.1-2.5 1.3-3.2.1-.5.2-1 0-1.6 3.6-2 6.5-3.2 8.7-3.6 3.6-.7 4.9.4 4 3.6-.4 1.3-1.6 3.5-3.4 6.5zM155.8 483.6c11.3-16.6 20.4-25.6 27.3-27 5.2-1.1 6.9 1.4 5 7.4-1.3 4.3-4.2 10.9-8.7 19.8-4.5 9-7.4 15.6-8.7 19.9-1.1 3.4-1.2 6.1-.4 8-3.5 2.6-6.6 4.2-9.3 4.8-4.6 1-6.2-1.1-4.6-6.2 1.2-3.8 3.1-8.5 5.8-14.3 6.8-14.5 10.5-22.4 10.9-23.8.5-1.5.3-2.2-.5-2-1.6.3-6.8 6.5-15.6 18.6-8.8 12.1-14.1 21.1-16 27.2-.3 1.1-.5 2.3-.6 3.7-2.8 1.3-5.3 2.2-7.6 2.7-4.2.9-5.8-.4-4.7-3.9.6-1.8 1.6-4.1 3-7l3.6-7c8.6-17.3 13.8-28.8 15.5-34.5.5-1.5.7-2.9.6-4.2 3.7-2 6.7-3.2 9.1-3.7 3.8-.8 5.1.6 4 4.2-.7 1.7-3.4 7.5-8.1 17.3zM200.1 488.8c-1.5.3-1.8-1.1-.8-4.2 2-6.4 4.7-12.3 8-17.7 3.4-5.4 6.6-8.4 9.8-9.1 3-.6 5.2 1 6.4 4.9-11.4 16.5-19.2 25.2-23.4 26.1zm-29.4 29.1c-.9 2.8.6 4.7 4.5 5.7s7.8 1.2 11.8.3c5.3-1.1 10.3-3.3 15-6.8 4.8-3.4 8.9-7.7 12.5-12.8 3.6-5.1 9.6-17.4 17.9-36.8 4-9.2 7.6-16.2 11-20.9-2.5-.8-5.1-1-7.7-.5-2.7.5-4.7 1.8-6.2 3.6-2.3-1.5-5.3-1.8-8.8-1.1-7.2 1.5-14.2 6.3-21.1 14.3-6.9 8.1-11.7 16.8-14.6 26.2-3.1 10.2-1.7 14.7 4.4 13.4 6.1-1.2 14.6-8.7 25.7-22.2-7.6 16.9-12.7 26.8-15.3 29.6-2.6 2.8-5.6 4.6-8.8 5.2-5.6 1.1-9.2-1.3-10.8-7.4-5.3 3.4-8.4 6.8-9.5 10.2zM235.7 485.5c-.2 6.1 2 8.6 6.4 7.7 4.5-.9 7.6-4.1 9.3-9.4.9-2.8-1.4-6.6-6.7-11.3-1.7-2.3-1.9-5.4-.7-9.4 1.9-6.2 5.4-11.6 10.4-16.1 5-4.5 10.5-7.3 16.6-8.6 7.5-1.6 10.8-.7 9.8 2.6-.9 2.8-3.5 6.1-8 9.7-1.6-3.9-3.8-5.6-6.6-5-3.9.8-6.5 3.5-8 8.2-.8 2.5-.2 4.5 1.8 6.2 1.8 1.5 3.6 3.1 5.4 4.6 1.7 2.3 2 5.6.7 9.7-2.1 6.8-5.9 12.6-11.3 17.5s-11.5 8-18.2 9.4c-8.5 1.8-12.1.3-10.7-4.3 1.1-3.3 4.4-7.2 9.8-11.5z"/><path class="st4" d="M57.8 547.2c-5.7 3.7-10.4 5.9-14.3 6.7-5.1 1-7-.5-5.8-4.7.8-2.8 2.3-6.5 4.5-11.2 19.8-41.5 31.8-69.8 36-84.9.8-3.1 1-5.8.5-8.2 6.9-4.9 12.8-7.8 17.7-8.8 4.5-.9 6.2.6 5.1 4.6-.7 2.4-3.3 8.6-7.9 18.4l-12.7 29.7c31.9-39.7 60.3-57.8 66.4-67 1.1-1.7 16.1-7.1 11.9-2.8-1.7 1.7-38.6 28.1-66.5 68.1 3.3 23.8 11.4 38.4 20.5 36.5.2 0 .4-.1.6-.1-5 12.2-11 19-18.2 20.5-5.7 1.2-10.1-2.9-13.3-12.4-3.2-9.4-4.8-21-4.9-34.6-10.9 24.9-17.1 39.8-18.5 44.9-.4 1.4-.8 3.1-1.1 5.3z"/><path class="st8" d="M99.6 438s-1.9-3.8-19.1 7.1c0 0 2.9 7.1-5.4 25.2 0 0-30.1 64.7-31.7 68.4 0 0-12.8 22.9 8.8 9 0 0-11.6 4.8-4.9-8.2 0 0 40.8-84.4 39.7-91.8 0 .2-.2-6.2 12.6-9.7zM146 428l-.1-2.5s-43.5 36.9-64.3 64.9l4.4-1.1s43.3-50.3 60-61.3zM240.6 447.6s-4.4-2.2-8.8 2.8c0 0 5-2.8 6.6.6l2.2-3.4zM90.8 489.8s-.5 18.8 12.8 33.7c0 0 12.3 8-7.1 17.4 0 0 12.9-12.5 6.3-15.1 0 .1-17.6-21.1-12-36zM146.4 447.8l-7.4 3.1-1.1 3.7c-.1-.1 1.3 1.5 8.5-6.8zM136.2 467.8s-7.1 1.5-9 3.6c.5 1.5 1 3.1-.5 6.4 0 0-18.7 40.2-19.7 43.6 0 0 2.1 1.7 2.8 3.4 0 0 5.4-6.1 2.6-7.2 0 0 18.5-43.8 19.2-45.1 1.2-1.7 4.6-4.7 4.6-4.7zM152.3 468.7c.4-1.4.4-2.1.5-2.6 0 0 7-3.6 8.7-2 0 0-4.3.3-6.4 5.3l-19.7 43.1s-4.1 7.3 2.3 6.6c0 0-10.5 4.9-7.5-2.1-.1-.1 18.1-36 22.1-48.3zM177.2 465.2s6-7.6 7.5-5.9c0 0-2 2.4-3.5 5.7l-19.5 42.6s-2.8 6.4 4 5.6c0 0-9.7 4.6-8.2-1.6 0-.1 19.2-40.9 19.7-46.4z"/><path class="st8" d="M187.1 459.5s-5-8.9-26.6 19.3c0 0 12.4-13.8 16.6-13.8 0 0 3.3-.1 6.2-3.9 2-2.6 3.8-1.6 3.8-1.6zM228.9 450.5l-4.3 4.6s-10.1-13.3-34.4 27c0 0 14.4-37.1 38.7-31.6zM276.1 445.2s5.9-5.1 2.6-6.2c0 0-17.9-3.3-31 18.7 0 0 14.1-16.4 26.7-16.2.1-.1 2.8-.2 1.7 3.7zM255.5 455.4s-3.2 6.3 4 11c0 0 6 4.2 2.4 9.8 0 0 7.4-6.2-1.8-13.1-.7-.3-3.4-1.3-4.6-7.7zM253.2 479.8s1 8-7.2 13.3c0 0-11.2 6.6-11.5-5.1 0 0-7.4 5.9-7.1 10.8.2 2.3 4.1.7 4.1.7s-5-.2 1-4.5c.5-.4 9.6 7 18.4-3.9 0 0 3.7-3.7 2.3-11.3zM198.5 513.4s-5.6 5.3-12.8 3.4c-2.7-.6-4.1-2-6.2-6.7 0 0-5.6 3.2-6 8.9-.3 3.7 4.8 3.5 4.8 3.5s-3.1-2.6 0-5.7c.2-.2 2.8 2.6 8.1 3 3.9.2 10.7-.3 18.2-10 0 0 10.1-10.9 12.3-30.6-.1.1-5.8 25.4-18.4 34.2z"/><path class="st8" d="M199.4 466.1s-20.8 30.7-11.2 33.5c0 0 3.9-.9 8.7-4.4 0 0-6.7 2.5-6.4-4-.3-6.7 2.8-10.4 8.9-25.1zM79.9 495.9s.9 46.9 13.2 44.7l2.8-6.1c-.1 0-13-2.2-16-38.6zM199.1 514.6s13.5-17.2 18.1-35.6c0 0 4-5.5 8.6-11.6 0 0-12.7 34.5-21.2 42.5l-5.5 4.7zM248.1 457.8s-3.1 7.1 1.8 11.6c0 0 4.6 5.8 3.1 9.8 0 0-2.8-4.6-5.2-6.7 0 .1-7-3.3.3-14.7z"/><path class="st8" d="M222.7 465.5s-16.9 26.4-24.8 24.2c0 0-.6 1.8-2.1 2.5-.1 0 8.2 5.8 26.9-26.7z"/><path class="st19" d="M92.9 392.9H158v15.5H92.9z"/><path class="st20" d="M103.1 396.4h38.4v8.9h-38.4z"/><path class="st4" d="M103.1 396.4h38.4v8.9h-38.4z"/><path class="st4" d="M94 396.4h62v9.8H94zM152.9 381.3h-9.5l-6.1-8.6-5.7 8.1-7 .4-7-.4-5.8-8.1-6.1 8.6h-9.5l-12.9-5.4 11 18.7H154.9l11-18.7z"/><path class="st8" d="m113.5 381.6-2.2-6.3-4.4 7.6-12 .2-7.1-3 7.8 12.3h46.8c-.1.1-19.7-1.8-28.9-10.8z"/><path d="M98.2 399.6h1c.4 0 .6 0 .7.1.1.1.2.2.2.4s-.1.3-.2.4c-.1.1-.4.1-.8.1h-1v-1zm-2.3 4.4h4c.2 0 .5 0 1.1-.1.4 0 .7-.1.9-.2.3-.1.6-.3.7-.5.2-.2.3-.5.3-.8 0-.3-.1-.6-.4-.9-.3-.2-.7-.4-1.2-.5.4-.1.6-.2.8-.4.3-.2.4-.5.4-.8 0-.4-.2-.7-.6-1-.4-.3-1-.4-1.7-.4h-4.4v5.6zm2.3-2.3h1.2c.4 0 .7 0 .9.1.2.1.2.2.2.4s-.1.3-.2.4c-.2.1-.4.2-.8.2h-1.2v-1.1zM106.4 399.6h1c.4 0 .7 0 .9.1.2.1.2.2.2.4 0 .1 0 .2-.1.3-.1.1-.2.1-.4.2-.3.1-.5.1-.6.1h-1v-1.1zm0 4.4v-2.2h.2c.2 0 .4 0 .6.1.1.1.3.2.4.4l1.2 1.7h2.6l-1.1-1.6-.3-.3c-.2-.1-.3-.2-.4-.3-.1-.1-.3-.1-.6-.2.3-.1.6-.1.8-.2.3-.1.6-.3.7-.5.2-.2.3-.5.3-.8 0-.3-.1-.6-.4-.9-.2-.2-.5-.4-.9-.5-.4-.1-.9-.1-1.7-.1h-3.9v5.4h2.5zM114.8 401.9l.8-1.9.8 1.9h-1.6zm2.5 2.1h2.4l-2.8-5.4h-2.6l-2.8 5.4h2.4l.4-.9h2.6l.4.9zM120.5 398.5h2.2l2.8 3v-3h2.2v5.4h-2.2l-2.8-3v3h-2.2v-5.4zM132.3 399.8c.6 0 1 .1 1.3.3.3.2.4.6.4 1.2 0 .4-.1.7-.2.9-.1.2-.3.3-.5.4-.2.1-.6.1-1 .1h-.6v-3h.6zm-3 4.2h3.5c.4 0 .9 0 1.4-.1.4-.1.7-.2 1.1-.4.3-.2.6-.5.8-.8.2-.3.3-.8.3-1.3 0-.4-.1-.7-.2-1-.1-.3-.3-.6-.6-.9-.3-.3-.6-.4-1-.6-.4-.1-1-.2-1.7-.2h-3.5v5.3zM140 400.1c.3-.2.7-.4 1.1-.4.5 0 .9.1 1.2.4.3.2.4.6.4 1.1 0 .6-.1 1-.4 1.3-.3.2-.7.4-1.2.4s-.9-.1-1.2-.4c-.3-.2-.4-.6-.4-1.2.1-.6.2-1 .5-1.2zm-2.2 2.7c.3.4.8.7 1.4.9.6.2 1.3.3 2.1.3s1.5-.1 2.1-.3c.6-.2 1-.5 1.3-1 .3-.4.4-.9.4-1.6 0-.9-.3-1.6-1-2-.7-.5-1.7-.7-2.9-.7s-2.2.2-2.9.7c-.7.5-1 1.2-1 2.1-.1.7.1 1.2.5 1.6zM146.3 398.5h2.2l2.8 3v-3h2.2v5.4h-2.2l-2.8-3v3h-2.2v-5.4z"/><path class="st8" d="m137.1 375.1-3.5 5.7h4.4z"/><path d="m153.7 421.9.9-8.5s44-26.2 48.6-27l3.1 6.2-52.6 29.3z"/><path class="st4" d="M210.4 381.8c-2.6.4-5.9 4.3-7.2 6.1-8.6 4.8-46.9 24.5-56.3 35.8v4.6s40.1-30.4 58.9-36.3c2.4.4 5.2-.2 5.2-.2 4.1-.6 8.8-5.9 8.8-5.9 5.2-4.4 6.5-7.1 6.5-7.1s-11.4 2.4-15.9 3z"/><path class="st8" d="m210.9 383.2 12.8-2.8c-6.8 4.2-8.4 5.5-11.5 7.2 0 0-5 2.2-8 3 0 0-.1-4.1 5.4-6.9l1.3-.5z"/><path class="st18" d="M148.3 413.1h9.1v8h9.9v-8h9.1V436h-9.1v-9.3h-9.9v9.3h-9.1v-22.9zM182.4 413.1h24.3v4.9h-15.2v3.6h14.2v4.7h-14.2v4.5h15.7v5.2h-24.8v-22.9zM221.7 427.3l3.2-8.3 3.2 8.3h-6.4zm9.8 8.7h9.5l-11-22.9h-10L209 436h9.3l1.5-3.8H230l1.5 3.8zM239 413.1h27.6v5.7h-9.2V436h-9.1v-17.3H239v-5.6z"/><path class="st7" d="M148.3 413.1h9.1v8h9.9v-8h9.1V436h-9.1v-9.3h-9.9v9.3h-9.1v-22.9zM182.4 413.1h24.3v4.9h-15.2v3.6h14.2v4.7h-14.2v4.5h15.7v5.2h-24.8v-22.9zM221.7 427.3l3.2-8.3 3.2 8.3h-6.4zm9.8 8.7h9.5l-11-22.9h-10L209 436h9.3l1.5-3.8H230l1.5 3.8zM239 413.1h27.6v5.7h-9.2V436h-9.1v-17.3H239v-5.6z"/><path class="st4" d="m193.4 386.9 7.7-8.1s.5 4.9-1.1 9.5c0 0-.6 3.6-2.6 5.5 0 0-5.1.6-4.9-2.3l.9-4.6z"/><path class="st8" d="m194.6 387.2 5.3-5.4s0 1.8-1.4 5.1c0 0-.7 2.5-2 4.1 0 0-3 1.6-2.5-.4l.6-3.4z"/><path class="st4" d="m183.4 391.3 7.7-8.1s.5 4.9-1.1 9.5c0 0-.6 3.6-2.6 5.5 0 0-6.1 2.8-5.8-.1l1.8-6.8zM172.3 397.9l7.7-8.1s.5 4.9-1.1 9.5c0 0-.6 3.6-2.6 5.5 0 0-5.4 2.3-5.1-.6l1.1-6.3zM162.1 402.4l7.7-8.1s.5 4.9-1.1 9.5c0 0-1 5.9-2.4 6.2 0 0-5.1-.2-4.9-3.1l.7-4.5z"/><path class="st8" d="m184.5 392 5.1-5.7s-.7 2.8-2.1 6.1c0 0-.7 2.5-2 4.1 0 0-1.8.6-1.3-1.4l.3-3.1zM173.4 398.5l5.3-5.8s-.4 2.5-1.8 5.8c0 0-.7 2.5-2 4.1 0 0-1.8.5-1.9-1.1l.4-3zM163.2 403.3l5.4-5.9s-.1 2.1-1.5 5.4c0 0-.7 2.5-2 4.1 0 0-2 1.5-2.2-.6l.3-3z"/><path class="st4" d="m163.3 408.3 2.4 1.1-1.5 4-2.1 1.5z"/></g><path d="m231.8 521.8 1.5-3.8h1.4v5.2h-.9V519l-1.6 4.2h-.6L230 519v4.2h-.9V518h1.4l1.3 3.8zm-3.8-3h-1.6v4.4h-.9v-4.4h-1.6v-.8h4.1v.8z"/><g><path class="st14" d="M566.2 441.3c-3-3.4-7-4.6-10.8-4.9v-24.8h-39c-4.4-2.5-12.3-7.2-12.3-7.2 4.4-4.2 6.9-8.5 7.5-9.5l9.9-18.6s-29.7 3.6-34.6 4.5c-.1-.6 0 .7-.1.2l-2.4-10.4-8.2 6.8s-.9.7-1.4 1.2c-.5-1.9-1.1-4-1.1-4s-8.1 7.4-8.2 7.4c-.2-2.4-.5-5.2-.5-5.2s-9.3 9.8-9.7 10.2c-.3-2.7-.6-5.7-.6-5.7l-10 10.5c-.2-1.9 5.8-12.5 5.8-12.5l-21 8.1h-7.1l-8.4-11.9-8.4 11.5-8.9.1-8.4-9.6-8.5 9.8-5.5.2-24.1-11.2 13.9 29.3s6.8 29.2 6.4 29.3c-6.6 1.4-13.9 4.9-22.2 10.8l-6.5 4.6 1.6 7.8v.3c0 .4-.1 1.1-.4 2.1-4 14.4-15.9 42.3-35.2 83-2.5 5.3-4.2 9.6-5.2 13.1-.5 2-.8 3.8-.8 5.4 0 5.1 2.3 8.5 3.9 10.3 2.7 2.9 7.9 6.1 16.8 4.2 5.5-1.1 11.5-3.9 18.5-8.5l4.6-3 .8-5.5c.3-2 .5-3.1.7-3.7.2-.8.7-2.3 1.9-5.3 7.7 17.5 20.3 17.1 25.6 16 9.7-2 17.5-8.9 23.7-20.8.9-.5 1.8-1.1 2.8-1.7 2.7 1.1 6.2 1.7 10.9.7 3.3-.7 6.8-1.9 10.4-3.6 0 0 6.5-3 6.7-3.1 2.3 1 5.3 1.7 9.1 1.3 1.9 2.5 5.1 5.3 10.6 6.8 5.7 1.5 11.5 1.7 17.4.5 6.9-1.4 13.5-4.4 19.7-8.8 5.3-3.8 10.1-8.6 14.2-14.1 6 2.3 12.7 1 15.7.3 8.8-1.8 16.8-5.9 23.8-12.2 7.1-6.3 12.1-14.1 14.8-23 .9-2.9 1.4-5.8 1.4-8.4 0-2.6-.5-5-1.3-7.2 1.4-1.2 2.8-2.3 2.8-2.3 6.4-5.2 10.3-10.3 11.9-15.5.5-1.5.7-3.1.7-4.6-.1-3.5-1.3-6.9-3.7-9.5zm-105.3-34.5c.4.6 1.8 3.1 3 5h-9.6c1.3-1.1 5.8-4.4 6.6-5z"/><path class="st1" d="M561.3 445.8c-3.4-3.7-9.4-3.1-14.8-2-2.4.5-4.7 1.2-6.9 2.1v-10.8h9.2v-16.8h-55.6l-4.3 9v-9H371.5l6.2 22.8c-2-.6-2.4-.4-5.9.3-5.7 1.2-12.2 4.4-19.8 9.8l-3 2.1.7 3.6c.3 1.5.2 3.4-.4 5.6-4.1 14.8-16.1 43-35.6 84-2.4 5-4 8.9-4.8 12.1-1.4 4.9.1 7.8 1.6 9.4 2.3 2.5 5.9 3.2 10.7 2.3 4.6-1 9.9-3.4 16.2-7.5l2.1-1.4.3-2.5c.3-1.9.5-3.4.9-4.5.7-2.4 3-8.6 9.4-23.7.8 4.9 1.9 9.5 3.4 13.7 5.3 15.5 13.6 17.3 19.7 16 8.1-1.7 14.7-8 20.1-19.1 1.9-1 3.9-2.2 6-3.8l1.4-1.1c2.1 2.3 5.4 3.1 9.8 2.2 2.8-.6 5.7-1.6 8.9-3.1l3.1-1.5.1-3.4c0-.9.1-1.6.3-2.2.7-2.2 2.2-5.7 5.4-11.1-.3.8-.5 1.5-.7 2.2-.6 1.8-.8 3.4-.8 4.9 0 2.4.7 4.4 2.1 6 1.5 1.7 4.5 3.5 9.7 2.4 1-.2 1.9-.5 2.9-.8.2 1.1.6 2 .9 2.7 1.4 2.6 4 4.4 7.8 5.4 4.7 1.3 9.5 1.4 14.3.4 6-1.2 11.8-3.8 17.2-7.7 5.2-3.8 9.9-8.5 13.8-14.1.7-1 1.5-2.3 2.4-3.9.2.3.4.6.6.8 3.7 4.1 10.3 3.4 15.5 2.3 7.6-1.6 14.6-5.1 20.8-10.7 6.2-5.5 10.5-12.3 12.9-20 .7-2.3 1.1-4.5 1.1-6.5 0-3.1-.9-5.9-2.6-8.2l-.4-.5-5.8-5-.1-.1c0-.1 0-.1.1-.2 1-3.2 2.4-4 3.3-4.3.2.3.5.7.8 1.6l2.9 6.9 5.8-4.8c5.4-4.4 8.6-8.5 9.8-12.4 1.1-3.1.6-5.9-1.3-7.9zm-32.4 6.6c-.5.4-1 .9-1.5 1.3l-.3.3-4.7-1.6h6.5zM377.4 498c5.7-6.8 10.3-12.6 14-17.3 4.3-5.5 7.7-9.8 10.6-12.6 1.1-1.1 2.8-2.6 4.7-4.2-.7 1.5-1.1 2.6-1.4 3.4-.3.9-.4 1.8-.4 2.5 0 1.7.6 3 1.2 3.9-1.9.8-4 1.8-6.2 3l-3.2 1.8.3 3.6v.5c0 .7-.1 1.5-.4 2.4-1.3 4.1-4.5 11.3-9.5 21.6-2.2 4.5-4.1 8.3-5.6 11.7-1.6-4.5-3-11-4.1-20.3zm6.1-45c.1-.2.1-.4.2-.6h11c-5.6 5-11.7 10.9-18.4 17.7 5.5-11.8 6.8-15.4 7.2-17.1zm88.9 64.1c-1.8 2-3.8 3.2-5.9 3.6-1.4.3-2.6.5-3.6-1.5 1.2.1 2.7.1 4.3-.2 1.7-.4 3.5-1 5.2-1.9.1-.1.1 0 0 0zm-.3-46.8c-.3.4-.7.8-1 1.2.1-2.3-.3-5-2.3-7.1-1.6-1.8-4.7-3.6-10.2-2.5-4.2.9-8.7 3.5-13.6 8.2-.2-.2-.4-.5-.5-.7-1.4-1.6-4.2-3.2-9.1-2.2-2.4.5-5.1 1.5-8.2 3 2.1-3.4 3.4-5.9 3.9-7.7.4-1.3.6-2.4.6-3.4 0-2.4-1-4.1-1.9-5.1-.6-.7-1.3-1.2-2.2-1.6h71.3s1.5-3.7 1.5-3.8h2.6l1.5 3.8h4.2c-1.3.5-2.4 1.1-3.5 1.8-2.7-.7-5.6-.7-8.8-.1-8.5 1.8-16.6 7.2-24.3 16.2z"/><path class="st1" d="M499.6 401.6c6.2-4.6 9.9-12.3 10-12.6l3.7-7.2-8.5 1.5-17.4 2.6s-2.9 3-2.9 2.6c0-1.9-1.7-9.7-1.7-9.7l-9.2 9.1c-.3-.2 0 .2-.4 0l-1.2-4.6-10.3 10.5-.5-4.9L451 400l-.6-6.2-6.5 7.2-4 4.4-.5-4.9-6.5 7.2-9 9.8-.6 6.2c-.2 2.8 1.2 5.1 3.9 6.2 0 0 .2.1.5.2-.1.8-.1 1.7.2 2.7.5 1.8 1.9 3.2 3.8 3.9l6.2 2.4 23.4-4.8-4.4-2.7 15.9-3.3-5.6-3.4 15.4-3.2-4.5-2.7 16.8-3.5-5.5-3.3 15.1-3.1-8.5-5.1c-.1 0 3-1.8 3.6-2.4z"/><path class="st15" d="M486.4 392.3c4.7-1 16.7-2.9 16.7-2.9s-3.1 5.9-8.7 9.8c0 0-3.5 3.6-7.8 4.2 0 0-10.8.4-8.2-2.7 0-.1 3.3-7.4 8-8.4z"/><path class="st16" d="m479.1 410.9 11.6-2.3s-4.6-2.7-9.9-3.6c0 0-3.8-1.2-6.7-.6 0 0-2.7 3.5.3 4.7l4.7 1.8zM470 416.8l11.6-2.3s-4.6-2.7-9.9-3.6c0 0-3.8-1.2-6.7-.5 0 0-2.7 3.5.3 4.7l4.7 1.7zM458.3 422.4l11.6-2.3s-4.6-2.7-9.9-3.6c0 0-3.8-1.2-6.7-.5 0 0-2.7 3.5.3 4.7l4.7 1.7zM438.1 433.8l11.6-2.3s-4.6-2.7-9.9-3.6c0 0-3.8-1.2-6.7-.5 0 0-2.7 3.5.3 4.7l4.7 1.7z"/><path class="st16" d="m470.2 397.7 7.7-8.1s.5 4.9-1.1 9.5c0 0-.6 3.6-2.6 5.5 0 0-4.7.5-4.5-2.4l.5-4.5zM460.1 402.1l7.7-8.1s.5 4.9-1.1 9.5c0 0-.6 3.6-2.6 5.5 0 0-4.7.5-4.4-2.4l.4-4.5zM449.1 408.7l7.7-8.1s.5 4.9-1.1 9.5c0 0-.6 3.6-2.6 5.6 0 0-4.7.5-4.4-2.4l.4-4.6zM438.8 413.2l7.7-8.1s.5 4.9-1.1 9.5c0 0-.6 3.6-2.6 5.5 0 0-4.7.5-4.4-2.4l.4-4.5z"/><path class="st4" d="m479.1 410.9 11.6-2.3s-4.6-2.7-9.9-3.6c0 0-3.8-1.2-6.7-.6 0 0-2.7 3.5.3 4.7l4.7 1.8zM470 416.8l11.6-2.3s-3.9-2-9.9-3.6c0 0-3.8-1.2-6.7-.5 0 0-2.7 3.5.3 4.7l4.7 1.7zM459 422.1l10.9-2s-4.5-2.4-9.9-3.6c0 0-3.8-1.2-6.7-.5 0 0-2.7 3.5.3 4.7l5.4 1.4zM433.2 427.4s-2.7 3.5.3 4.7"/><path class="st17" d="M402.4 481.7c3.8-2.1 7.1-3.5 9.9-4 3.7-.8 5.1.5 4.1 3.7-.4 1.5-1.2 3.3-2.4 5.5-9.7 19-15.6 31.8-17.6 38.4-1 3.2-1.1 5.7-.3 7.6-3.5 2.6-6.6 4.2-9.2 4.8-4.8 1-6.4-1.1-4.9-6.1 1.4-4.4 4.6-11.9 9.9-22.4 5.2-10.5 8.5-18 9.9-22.4.6-1.9.8-3.5.6-5.1zm20-14.2c-3.1 2-5.7 3.2-7.9 3.6-3.3.7-4.6 0-4-2.1.2-.7.7-1.8 1.3-3.2.7-1.4 1.1-2.5 1.3-3.2.1-.5.2-1 0-1.6 3.6-2 6.5-3.2 8.7-3.6 3.6-.7 4.9.4 4 3.6-.4 1.2-1.5 3.4-3.4 6.5zM432.5 494.3c11.3-16.6 20.4-25.6 27.3-27 5.2-1.1 6.9 1.4 5 7.4-1.3 4.3-4.2 10.9-8.7 19.8-4.5 9-7.4 15.6-8.7 19.9-1.1 3.4-1.2 6.1-.4 8-3.5 2.6-6.6 4.2-9.3 4.8-4.6 1-6.2-1.1-4.6-6.2 1.2-3.8 3.1-8.5 5.8-14.3 6.8-14.5 10.5-22.4 10.9-23.8.5-1.5.3-2.2-.5-2-1.6.3-6.8 6.5-15.6 18.6-8.8 12.1-14.1 21.1-16 27.2-.3 1.1-.5 2.3-.6 3.7-2.8 1.3-5.3 2.2-7.6 2.7-4.2.9-5.8-.4-4.7-3.9.6-1.8 1.6-4.1 3-7l3.6-7c8.6-17.3 13.8-28.8 15.5-34.5.5-1.5.7-2.9.6-4.2 3.7-2 6.7-3.2 9.1-3.7 3.8-.8 5.1.6 4 4.2-.7 1.8-3.3 7.6-8.1 17.3zM476.9 499.6c-1.5.3-1.8-1.1-.8-4.2 2-6.4 4.7-12.3 8-17.7 3.4-5.4 6.6-8.4 9.8-9.1 3-.6 5.2 1 6.4 4.9-11.5 16.5-19.3 25.2-23.4 26.1zm-29.5 29.1c-.9 2.8.6 4.7 4.5 5.7s7.8 1.2 11.8.3c5.3-1.1 10.3-3.3 15-6.8 4.8-3.4 8.9-7.7 12.5-12.8 3.6-5.1 9.6-17.4 17.9-36.8 4-9.2 7.6-16.2 11-20.9-2.5-.8-5.1-1-7.7-.5-2.7.5-4.7 1.8-6.2 3.6-2.3-1.5-5.3-1.8-8.8-1.1-7.2 1.5-14.2 6.3-21.1 14.3-6.9 8.1-11.7 16.8-14.6 26.2-3.1 10.2-1.7 14.7 4.4 13.4 6.1-1.2 14.6-8.7 25.7-22.2-7.6 16.9-12.7 26.8-15.3 29.6-2.6 2.8-5.6 4.6-8.8 5.2-5.6 1.1-9.2-1.3-10.8-7.4-5.2 3.4-8.4 6.7-9.5 10.2zM512.5 496.3c-.2 6.1 2 8.6 6.4 7.7 4.5-.9 7.6-4.1 9.3-9.4.9-2.8-1.4-6.6-6.7-11.3-1.7-2.3-1.9-5.4-.7-9.4 1.9-6.2 5.4-11.6 10.4-16.1 5-4.5 10.5-7.3 16.6-8.6 7.5-1.6 10.8-.7 9.8 2.6-.9 2.8-3.5 6.1-8 9.7-1.6-3.9-3.8-5.6-6.6-5-3.9.8-6.5 3.5-8 8.2-.8 2.5-.2 4.5 1.8 6.2 1.8 1.5 3.6 3.1 5.4 4.6 1.7 2.3 2 5.6.7 9.7-2.1 6.8-5.9 12.6-11.3 17.5s-11.5 8-18.2 9.4c-8.5 1.8-12.1.3-10.7-4.3 1-3.4 4.3-7.2 9.8-11.5z"/><path class="st18" d="M379.7 423.9h8.6l3.1 12.7 4.5-12.7h8.5l4.6 12.8 3.2-12.8h8.6l-6.5 22.9h-8.9l-5.2-14.4-5.1 14.4h-8.9l-6.5-22.9z"/><path class="st7" d="M379.7 423.9h8.6l3.1 12.7 4.5-12.7h8.5l4.6 12.8 3.2-12.8h8.6l-6.5 22.9h-8.9l-5.2-14.4-5.1 14.4h-8.9l-6.5-22.9z"/><path class="st17" d="M334.5 558c-5.7 3.7-10.4 5.9-14.3 6.7-5.1 1-7-.5-5.8-4.7.8-2.8 2.3-6.5 4.5-11.2 19.8-41.5 31.8-69.8 36-84.9.8-3.1 1-5.8.5-8.2 6.9-4.9 12.8-7.8 17.7-8.8 4.5-.9 6.2.6 5.1 4.6-.7 2.4-3.3 8.6-7.9 18.4l-12.7 29.7c31.9-39.7 60.3-57.8 66.4-67 1.1-1.7 1.3 1.6-1.7 6.7-2.8 4.9-13.5 12.4-24.3 23.7-11.6 12.2-20.4 23.7-28.2 35.3-.6 13.8 10.9 37.9 20 36 .2 0 .4-.1.6-.1-5 12.2-11 19-18.2 20.5-5.7 1.2-10.1-2.9-13.3-12.4-3.2-9.4-4.8-21-4.9-34.6-10.9 24.9-17.1 39.8-18.5 44.9-.3 1.5-.7 3.2-1 5.4z"/><path class="st4" d="M402.4 481.7c3.8-2.1 7.1-3.5 9.9-4 3.7-.8 5.1.5 4.1 3.7-.4 1.5-1.2 3.3-2.4 5.5-9.7 19-15.6 31.8-17.6 38.4-1 3.2-1.1 5.7-.3 7.6-3.5 2.6-6.6 4.2-9.2 4.8-4.8 1-6.4-1.1-4.9-6.1 1.4-4.4 4.6-11.9 9.9-22.4 5.2-10.5 8.5-18 9.9-22.4.6-1.9.8-3.5.6-5.1zm20-14.2c-3.1 2-5.7 3.2-7.9 3.6-3.3.7-4.6 0-4-2.1.2-.7.7-1.8 1.3-3.2.7-1.4 1.1-2.5 1.3-3.2.1-.5.2-1 0-1.6 3.6-2 6.5-3.2 8.7-3.6 3.6-.7 4.9.4 4 3.6-.4 1.2-1.5 3.4-3.4 6.5zM432.5 494.3c11.3-16.6 20.4-25.6 27.3-27 5.2-1.1 6.9 1.4 5 7.4-1.3 4.3-4.2 10.9-8.7 19.8-4.5 9-7.4 15.6-8.7 19.9-1.1 3.4-1.2 6.1-.4 8-3.5 2.6-6.6 4.2-9.3 4.8-4.6 1-6.2-1.1-4.6-6.2 1.2-3.8 3.1-8.5 5.8-14.3 6.8-14.5 10.5-22.4 10.9-23.8.5-1.5.3-2.2-.5-2-1.6.3-6.8 6.5-15.6 18.6-8.8 12.1-14.1 21.1-16 27.2-.3 1.1-.5 2.3-.6 3.7-2.8 1.3-5.3 2.2-7.6 2.7-4.2.9-5.8-.4-4.7-3.9.6-1.8 1.6-4.1 3-7l3.6-7c8.6-17.3 13.8-28.8 15.5-34.5.5-1.5.7-2.9.6-4.2 3.7-2 6.7-3.2 9.1-3.7 3.8-.8 5.1.6 4 4.2-.7 1.8-3.3 7.6-8.1 17.3zM476.9 499.6c-1.5.3-1.8-1.1-.8-4.2 2-6.4 4.7-12.3 8-17.7 3.4-5.4 6.6-8.4 9.8-9.1 3-.6 5.2 1 6.4 4.9-11.5 16.5-19.3 25.2-23.4 26.1zm-29.5 29.1c-.9 2.8.6 4.7 4.5 5.7s7.8 1.2 11.8.3c5.3-1.1 10.3-3.3 15-6.8 4.8-3.4 8.9-7.7 12.5-12.8 3.6-5.1 9.6-17.4 17.9-36.8 4-9.2 7.6-16.2 11-20.9-2.5-.8-5.1-1-7.7-.5-2.7.5-4.7 1.8-6.2 3.6-2.3-1.5-5.3-1.8-8.8-1.1-7.2 1.5-14.2 6.3-21.1 14.3-6.9 8.1-11.7 16.8-14.6 26.2-3.1 10.2-1.7 14.7 4.4 13.4 6.1-1.2 14.6-8.7 25.7-22.2-7.6 16.9-12.7 26.8-15.3 29.6-2.6 2.8-5.6 4.6-8.8 5.2-5.6 1.1-9.2-1.3-10.8-7.4-5.2 3.4-8.4 6.7-9.5 10.2zM512.5 496.3c-.2 6.1 2 8.6 6.4 7.7 4.5-.9 7.6-4.1 9.3-9.4.9-2.8-1.4-6.6-6.7-11.3-1.7-2.3-1.9-5.4-.7-9.4 1.9-6.2 5.4-11.6 10.4-16.1 5-4.5 10.5-7.3 16.6-8.6 7.5-1.6 10.8-.7 9.8 2.6-.9 2.8-3.5 6.1-8 9.7-1.6-3.9-3.8-5.6-6.6-5-3.9.8-6.5 3.5-8 8.2-.8 2.5-.2 4.5 1.8 6.2 1.8 1.5 3.6 3.1 5.4 4.6 1.7 2.3 2 5.6.7 9.7-2.1 6.8-5.9 12.6-11.3 17.5s-11.5 8-18.2 9.4c-8.5 1.8-12.1.3-10.7-4.3 1-3.4 4.3-7.2 9.8-11.5z"/><path class="st4" d="M334.5 558c-5.7 3.7-10.4 5.9-14.3 6.7-5.1 1-7-.5-5.8-4.7.8-2.8 2.3-6.5 4.5-11.2 19.8-41.5 31.8-69.8 36-84.9.8-3.1 1-5.8.5-8.2 6.9-4.9 12.8-7.8 17.7-8.8 4.5-.9 6.2.6 5.1 4.6-.7 2.4-3.3 8.6-7.9 18.4l-12.7 29.7c31.9-39.7 60.3-57.8 66.4-67 1.1-1.7 16.1-7.1 11.9-2.8-1.7 1.7-38.6 28.1-66.5 68.1 3.3 23.8 11.4 38.4 20.5 36.5.2 0 .4-.1.6-.1-5 12.2-11 19-18.2 20.5-5.7 1.2-10.1-2.9-13.3-12.4-3.2-9.4-4.8-21-4.9-34.6-10.9 24.9-17.1 39.8-18.5 44.9-.4 1.4-.8 3.1-1.1 5.3z"/><path class="st8" d="M376.3 448.8s-1.9-3.8-19.1 7.1c0 0 2.9 7.1-5.4 25.2 0 0-30.1 64.7-31.7 68.4 0 0-12.8 22.9 8.8 9 0 0-11.6 4.8-4.9-8.2 0 0 40.8-84.4 39.7-91.8 0 .1-.2-6.3 12.6-9.7zM422.7 438.8l-.1-2.5s-43.5 36.9-64.3 64.9l4.4-1.1s43.3-50.3 60-61.3zM517.4 458.3s-4.4-2.2-8.8 2.8c0 0 5-2.8 6.6.6l2.2-3.4zM367.5 500.6s-.5 18.8 12.8 33.7c0 0 12.3 8-7.1 17.4 0 0 12.9-12.5 6.3-15.1.1.1-17.5-21.1-12-36zM423.1 458.5l-7.4 3.1-1.1 3.7s1.3 1.5 8.5-6.8zM412.9 478.6s-7.1 1.5-9 3.6c.5 1.5 1 3.1-.5 6.4 0 0-18.7 40.2-19.7 43.6 0 0 2.1 1.7 2.8 3.4 0 0 5.4-6.1 2.6-7.2 0 0 18.5-43.8 19.2-45.1 1.2-1.7 4.6-4.7 4.6-4.7zM429 479.4c.4-1.4.4-2.1.5-2.6 0 0 7-3.6 8.7-2 0 0-4.3.3-6.4 5.3l-19.7 43.1s-4.1 7.3 2.3 6.6c0 0-10.5 4.9-7.5-2.1 0 0 18.2-36 22.1-48.3zM453.9 476s6-7.6 7.5-5.9c0 0-2 2.4-3.5 5.7l-19.5 42.6s-2.8 6.4 4 5.6c0 0-9.7 4.6-8.2-1.6.1-.1 19.2-40.9 19.7-46.4z"/><path class="st8" d="M463.8 470.2s-5-8.9-26.6 19.3c0 0 12.4-13.8 16.6-13.8 0 0 3.3-.1 6.2-3.9 2-2.5 3.8-1.6 3.8-1.6zM505.6 461.2l-4.3 4.6s-10.1-13.3-34.4 27c0 0 14.4-37 38.7-31.6zM552.9 456s5.9-5.1 2.6-6.2c0 0-17.9-3.3-31 18.7 0 0 14.1-16.4 26.7-16.2 0-.1 2.8-.2 1.7 3.7zM532.2 466.2s-3.2 6.3 4 11c0 0 6 4.2 2.4 9.8 0 0 7.4-6.2-1.8-13.1-.6-.4-3.4-1.3-4.6-7.7zM529.9 490.6s1 8-7.2 13.3c0 0-11.2 6.6-11.5-5.1 0 0-7.4 5.9-7.1 10.8.2 2.3 4.1.7 4.1.7s-5-.2 1-4.5c.5-.4 9.6 7 18.4-3.9.1 0 3.8-3.8 2.3-11.3zM475.3 524.2s-5.6 5.3-12.8 3.4c-2.7-.6-4.1-2-6.2-6.7 0 0-5.6 3.2-6 8.9-.3 3.7 4.8 3.5 4.8 3.5s-3.1-2.6 0-5.7c.2-.2 2.8 2.6 8.1 3 3.9.2 10.7-.3 18.2-10 0 0 10.1-10.9 12.3-30.6-.2 0-5.9 25.4-18.4 34.2z"/><path class="st8" d="M476.1 476.9s-20.8 30.7-11.2 33.5c0 0 3.9-.9 8.7-4.4 0 0-6.7 2.5-6.4-4-.3-6.7 2.8-10.4 8.9-25.1zM356.6 506.6s.9 46.9 13.2 44.7l2.8-6.1c-.1 0-13-2.1-16-38.6zM475.8 525.3s13.5-17.2 18.1-35.6c0 0 4-5.5 8.6-11.6 0 0-12.7 34.5-21.2 42.5l-5.5 4.7zM524.9 468.6s-3.1 7.1 1.8 11.6c0 0 4.6 5.8 3.1 9.8 0 0-2.8-4.6-5.2-6.7-.1 0-7.1-3.3.3-14.7z"/><path class="st8" d="M499.4 476.3s-16.9 26.4-24.8 24.2c0 0-.6 1.8-2.1 2.5-.1-.1 8.2 5.8 26.9-26.7z"/><path class="st19" d="M369.6 403.6h65.1v15.5h-65.1z"/><path class="st20" d="M379.9 407.2h38.4v8.9h-38.4z"/><path class="st4" d="M379.9 407.2h38.4v8.9h-38.4z"/><path class="st4" d="M370.7 407.2h62v9.8h-62zM429.6 392.1h-9.5l-6-8.7-5.8 8.2-7 .4-7-.4-5.8-8.2-6 8.7H373l-13-5.4 11 18.6H431.6l11-18.6z"/><path class="st8" d="m390.2 392.4-2.2-6.3-4.4 7.6-12 .2-7.1-3 7.8 12.3h46.8c-.1.1-19.6-1.8-28.9-10.8z"/><path d="M374.9 410.4h1c.4 0 .6 0 .8.1.1.1.2.2.2.4s-.1.3-.2.4c-.1.1-.4.1-.8.1h-1v-1zm-2.3 4.3h4c.2 0 .5 0 1.1-.1.4 0 .7-.1.9-.2.3-.1.6-.3.7-.5.2-.2.3-.5.3-.8 0-.3-.1-.6-.4-.9-.3-.2-.7-.4-1.2-.5.4-.1.6-.2.8-.4.3-.2.4-.5.4-.8 0-.4-.2-.7-.6-1-.4-.3-.9-.4-1.7-.4h-4.4v5.6zm2.3-2.2h1.2c.4 0 .7 0 .9.1.2.1.2.2.2.4s-.1.3-.2.4c-.2.1-.4.2-.8.2H375v-1.1zM383.2 410.4h1c.4 0 .7 0 .9.1.2.1.2.2.2.4 0 .1 0 .2-.1.3-.1.1-.2.1-.4.2-.3.1-.5.1-.6.1h-1v-1.1zm0 4.3v-2.2h.2c.2 0 .4 0 .6.1.1.1.3.2.4.4l1.2 1.7h2.6l-1.1-1.6-.3-.3c-.2-.1-.3-.2-.4-.3-.1-.1-.3-.1-.6-.2.3-.1.6-.1.8-.2.3-.1.6-.3.7-.5.2-.2.3-.5.3-.8 0-.3-.1-.6-.4-.9-.2-.2-.5-.4-.9-.5-.4-.1-.9-.1-1.7-.1h-3.9v5.4h2.5zM391.5 412.7l.8-1.9.8 1.9h-1.6zm2.5 2h2.4l-2.8-5.4H391l-2.8 5.4h2.4l.4-.9h2.6l.4.9zM397.2 409.3h2.2l2.8 3v-3h2.2v5.4h-2.2l-2.8-3v3h-2.2v-5.4zM409 410.6c.6 0 1 .1 1.3.3.3.2.4.6.4 1.2 0 .4-.1.7-.2.9-.1.2-.3.3-.5.4-.2.1-.6.1-1 .1h-.6v-3h.6zm-2.9 4.1h3.5c.4 0 .9 0 1.4-.2.4-.1.7-.2 1.1-.4.3-.2.6-.5.8-.8.2-.3.3-.8.3-1.3 0-.4-.1-.7-.2-1.1-.1-.3-.3-.6-.6-.9-.3-.3-.6-.4-1-.6-.4-.1-1-.2-1.7-.2h-3.5v5.5zM416.7 410.9c.3-.2.7-.4 1.1-.4.5 0 .9.1 1.2.4.3.2.4.6.4 1.1 0 .6-.1 1-.4 1.3-.3.2-.7.4-1.2.4s-.9-.1-1.2-.4c-.3-.2-.4-.6-.4-1.2.1-.6.2-1 .5-1.2zm-2.2 2.7c.3.4.8.7 1.4.9.6.2 1.3.3 2.1.3s1.5-.1 2.1-.3c.6-.2 1-.5 1.3-.9.3-.4.4-.9.4-1.6 0-.9-.3-1.6-1-2-.7-.5-1.7-.7-2.9-.7s-2.2.2-2.9.7c-.7.5-1 1.2-1 2.1 0 .6.1 1.1.5 1.5zM423.1 409.3h2.2l2.8 3v-3h2.2v5.4h-2.2l-2.8-3v3h-2.2v-5.4z"/><path class="st8" d="m413.9 385.9-3.6 5.7h4.4z"/><path d="m430.4 432.7.9-8.5s44-26.2 48.6-27l3.1 6.2-52.6 29.3z"/><path class="st4" d="M487.1 392.6c-2.6.4-5.9 4.3-7.2 6.1-8.6 4.8-46.9 24.6-56.3 35.8v4.6s40.1-30.4 58.9-36.3c2.4.4 5.2-.2 5.2-.2 4.1-.6 8.8-5.9 8.8-5.9 5.2-4.4 6.5-7.1 6.5-7.1s-11.3 2.4-15.9 3z"/><path class="st8" d="m487.6 394 12.8-2.8c-6.8 4.2-8.4 5.5-11.5 7.2 0 0-5 2.2-8 3 0 0-.1-4.1 5.4-6.9l1.3-.5z"/><path class="st18" d="M425 423.9h9.1v8h9.9v-8h9.1v22.9H444v-9.3h-9.9v9.3H425v-22.9zM459.1 423.9h24.3v4.9h-15.2v3.6h14.2v4.7h-14.2v4.5h15.7v5.2h-24.8v-22.9zM498.5 438.1l3.2-8.3 3.2 8.3h-6.4zm9.8 8.7h9.5l-11-22.9h-10l-11 22.9h9.3l1.5-3.8h10.2l1.5 3.8zM515.8 423.9h27.6v5.7h-9.2v17.3H525v-17.3h-9.2v-5.7z"/><path class="st7" d="M425 423.9h9.1v8h9.9v-8h9.1v22.9H444v-9.3h-9.9v9.3H425v-22.9zM459.1 423.9h24.3v4.9h-15.2v3.6h14.2v4.7h-14.2v4.5h15.7v5.2h-24.8v-22.9zM498.5 438.1l3.2-8.3 3.2 8.3h-6.4zm9.8 8.7h9.5l-11-22.9h-10l-11 22.9h9.3l1.5-3.8h10.2l1.5 3.8zM515.8 423.9h27.6v5.7h-9.2v17.3H525v-17.3h-9.2v-5.7z"/><path class="st4" d="m470.2 397.7 7.7-8.1s.5 4.9-1.1 9.5c0 0-.6 3.6-2.6 5.5 0 0-5.1.6-4.9-2.3l.9-4.6z"/><path class="st8" d="m471.3 397.9 5.3-5.4s0 1.8-1.4 5.1c0 0-.7 2.5-2 4.1 0 0-3 1.6-2.5-.4l.6-3.4z"/><path class="st4" d="m460.1 402.1 7.7-8.1s.5 4.9-1.1 9.5c0 0-.6 3.6-2.6 5.5 0 0-6 2.8-5.8-.1l1.8-6.8zM449.1 408.7l7.7-8.1s.5 4.9-1.1 9.5c0 0-.6 3.6-2.6 5.6 0 0-5.4 2.3-5.1-.6l1.1-6.4zM438.8 413.2l7.7-8.1s.5 4.9-1.1 9.5c0 0-1 5.9-2.4 6.2 0 0-5.1-.2-4.9-3.1l.7-4.5z"/><path class="st8" d="m461.2 402.7 5.1-5.7s-.7 2.8-2.1 6.1c0 0-.7 2.5-2 4.1 0 0-1.8.6-1.3-1.4l.3-3.1zM450.2 409.2l5.3-5.8s-.4 2.5-1.8 5.8c0 0-.7 2.5-2 4.1 0 0-1.8.5-1.9-1.1l.4-3zM439.9 414.1l5.4-5.9s-.1 2.1-1.5 5.4c0 0-.7 2.5-2 4.1 0 0-2 1.5-2.2-.6l.3-3z"/><path class="st4" d="m440 419.1 2.5 1.1-1.6 4-2 1.4z"/></g><path d="m508.6 532.6 1.5-3.8h1.4v5.2h-.9v-4.2L509 534h-.6l-1.6-4.2v4.2h-.9v-5.2h1.4l1.3 3.8zm-3.8-3.1h-1.6v4.4h-.9v-4.4h-1.6v-.8h4.1v.8z"/><g><path d="M275.8 643.7c-2.1-2.4-4.9-3.2-7.5-3.4V623H241c-3.1-1.8-8.6-5-8.6-5 3.1-2.9 4.9-5.9 5.2-6.7l6.9-13s-20.8 2.5-24.2 3.2c-.1-.4 0 .5-.1.1l-1.6-7.3-5.8 4.8s-.6.5-1 .8c-.4-1.3-.8-2.8-.8-2.8l-5.7 5.2c-.2-1.7-.4-3.7-.4-3.7s-6.5 6.8-6.8 7.1c-.2-1.9-.4-4-.4-4l-7 7.4c-.1-1.3 4.1-8.7 4.1-8.7l-14.7 5.7h-5l-5.9-8.4-5.9 8.1-6.3.1-5.9-6.7-6 6.9-3.9.1-16.8-7.8 9.7 20.5s4.7 20.5 4.5 20.5c-4.6 1-9.7 3.4-15.6 7.6l-4.5 3.2 1.1 5.4v.2c0 .3 0 .7-.3 1.5-2.8 10.1-11.1 29.6-24.7 58.1-1.8 3.7-3 6.7-3.7 9.2-.4 1.4-.5 2.6-.5 3.8 0 3.6 1.6 6 2.8 7.2 1.9 2.1 5.5 4.2 11.8 2.9 3.8-.8 8.1-2.7 12.9-5.9l3.3-2.1.5-3.8c.2-1.4.4-2.2.5-2.6.1-.5.5-1.6 1.3-3.7 5.4 12.3 14.2 12 17.9 11.2 6.8-1.4 12.2-6.2 16.6-14.6.6-.4 1.3-.8 1.9-1.2 1.9.8 4.4 1.2 7.6.5 2.3-.5 4.7-1.3 7.3-2.5 0 0 4.5-2.1 4.7-2.2 1.6.7 3.7 1.2 6.4.9 1.3 1.8 3.6 3.7 7.4 4.7 4 1.1 8.1 1.2 12.2.4 4.8-1 9.5-3.1 13.8-6.2 3.7-2.7 7.1-6 9.9-9.9 4.2 1.6 8.9.7 11 .2 6.1-1.3 11.7-4.1 16.7-8.5s8.5-9.9 10.4-16.1c.6-2 1-4 1-5.9 0-1.8-.3-3.5-.9-5.1l2-1.6c4.5-3.7 7.2-7.2 8.3-10.9.3-1.1.5-2.2.5-3.2.1-2.5-.8-4.9-2.4-6.7zM202 619.5c.3.4 1.3 2.2 2.1 3.5h-6.7c.9-.7 4.1-3.1 4.6-3.5z" style="stroke:#000;stroke-width:.7105"/><path class="st1" d="M272.4 646.8c-2.4-2.6-6.6-2.1-10.3-1.4-1.7.3-3.3.8-4.8 1.5v-7.6h6.5v-11.8h-39l-3 6.3v-6.3h-82.3l4.4 16c-1.4-.4-1.7-.3-4.1.2-4 .8-8.5 3.1-13.8 6.8l-2.1 1.5.5 2.5c.2 1.1.1 2.4-.3 3.9-2.9 10.3-11.3 30.1-24.9 58.8-1.7 3.5-2.8 6.3-3.4 8.4-1 3.4.1 5.5 1.1 6.6 1.6 1.7 4.1 2.3 7.5 1.6 3.2-.7 7-2.4 11.4-5.3l1.5-1 .2-1.8c.2-1.3.4-2.4.6-3.2.5-1.7 2.1-6 6.6-16.6.6 3.5 1.4 6.7 2.3 9.6 3.7 10.9 9.5 12.1 13.8 11.2 5.7-1.2 10.3-5.6 14.1-13.4 1.3-.7 2.7-1.6 4.2-2.7l1-.7c1.5 1.6 3.8 2.2 6.8 1.5 1.9-.4 4-1.1 6.2-2.2l2.2-1 .1-2.4c0-.6.1-1.1.2-1.5.5-1.5 1.5-4 3.8-7.8-.2.5-.4 1.1-.5 1.5-.4 1.3-.6 2.4-.6 3.5 0 1.7.5 3.1 1.5 4.2 1.1 1.2 3.1 2.4 6.8 1.7.7-.1 1.4-.3 2.1-.6.1.8.4 1.4.7 1.9 1 1.8 2.8 3.1 5.4 3.8 3.3.9 6.7 1 10 .3 4.2-.9 8.3-2.7 12-5.4 3.7-2.6 6.9-6 9.7-9.9.5-.7 1.1-1.6 1.7-2.7.2.2.3.4.5.6 2.6 2.9 7.2 2.4 10.9 1.6 5.3-1.1 10.2-3.6 14.5-7.5 4.3-3.9 7.4-8.6 9-14 .5-1.6.7-3.1.7-4.5 0-2.2-.6-4.1-1.8-5.8l-.3-.4-4.1-3.5-.1-.1v-.1c.7-2.2 1.6-2.8 2.3-3 .1.2.3.5.6 1.1l2 4.8 4-3.3c3.7-3.1 6-5.9 6.8-8.7.8-1.8.4-3.8-.8-5.2zm-22.7 4.6c-.4.3-.7.6-1.1.9l-.2.2-3.3-1.1h4.6zm-106.1 32c4-4.7 7.2-8.8 9.8-12.1 3-3.8 5.4-6.8 7.4-8.8.8-.8 1.9-1.8 3.3-2.9-.5 1-.8 1.8-1 2.4-.2.6-.3 1.2-.3 1.8 0 1.2.4 2.1.8 2.7-1.4.5-2.8 1.2-4.3 2.1l-2.2 1.2.2 2.5v.4c0 .5-.1 1.1-.3 1.7-.9 2.9-3.1 7.9-6.7 15.1-1.5 3.1-2.8 5.8-3.9 8.2-1-3.3-2-7.8-2.8-14.3zm4.3-31.5c0-.2.1-.3.1-.5h7.7c-3.9 3.5-8.2 7.6-12.9 12.4 3.9-8.2 4.8-10.7 5.1-11.9zm62.2 44.8c-1.3 1.4-2.6 2.2-4.1 2.5-1 .2-1.8.4-2.5-1 .9.1 1.9.1 3-.2 1.2-.2 2.4-.6 3.6-1.3zm-.2-32.7c-.2.3-.5.5-.7.8.1-1.6-.2-3.5-1.6-5-1.1-1.2-3.3-2.5-7.1-1.7-2.9.6-6.1 2.5-9.5 5.8-.1-.2-.2-.3-.4-.5-1-1.1-2.9-2.3-6.4-1.5-1.6.3-3.5 1-5.7 2.1 1.5-2.4 2.4-4.1 2.7-5.4.3-.9.4-1.7.4-2.4 0-1.7-.7-2.8-1.3-3.6-.4-.5-.9-.9-1.5-1.1H228.6l1-2.6h1.8l1 2.6h2.9c-.9.3-1.7.8-2.4 1.3-1.9-.5-3.9-.5-6.2-.1-5.7 1.2-11.4 5-16.8 11.3z"/><path class="st1" d="M229.1 615.9c4.3-3.2 6.9-8.6 7-8.8l2.6-5-6 1-12.2 1.8s-2 2.1-2 1.8c0-1.3-1.2-6.8-1.2-6.8l-6.4 6.4c-.2-.2 0 .1-.3 0l-.8-3.2-7.2 7.3-.3-3.5-7.1 7.8-.4-4.4-4.6 5-2.8 3.1-.3-3.4-4.6 5-6.3 6.9-.4 4.3c-.2 1.9.8 3.5 2.7 4.3 0 0 .1.1.3.1-.1.6-.1 1.2.1 1.9.4 1.2 1.3 2.2 2.7 2.8l4.3 1.7 16.4-3.4-3.1-1.9 11.1-2.3-3.9-2.4 10.8-2.2-3.1-1.9 11.8-2.4-3.8-2.3 10.6-2.2-5.9-3.6c-.2.2 1.9-1 2.3-1.5z"/><path d="M219.9 609.4c3.3-.7 11.7-2.1 11.7-2.1s-2.1 4.1-6.1 6.9c0 0-2.4 2.5-5.4 2.9 0 0-7.6.3-5.7-1.9-.1 0 2.2-5.1 5.5-5.8z" style="fill:#fdb927;stroke:#000;stroke-width:2.9085"/><path class="st23" d="m214.8 622.4 8.1-1.6s-3.2-1.9-6.9-2.5c0 0-2.7-.9-4.7-.4 0 0-1.9 2.4.2 3.3l3.3 1.2zM208.4 626.5l8.1-1.6s-3.2-1.9-6.9-2.5c0 0-2.7-.9-4.7-.4 0 0-1.9 2.4.2 3.3l3.3 1.2zM200.2 630.5l8.1-1.6s-3.2-1.9-6.9-2.5c0 0-2.7-.9-4.7-.4 0 0-1.9 2.4.2 3.3l3.3 1.2zM186.1 638.4l8.1-1.6s-3.2-1.9-6.9-2.5c0 0-2.7-.9-4.7-.4 0 0-1.9 2.4.2 3.3l3.3 1.2zM208.5 613.1l5.4-5.7s.3 3.4-.8 6.6c0 0-.4 2.5-1.8 3.9 0 0-3.3.4-3.1-1.7l.3-3.1zM201.5 616.3l5.4-5.7s.3 3.4-.8 6.6c0 0-.4 2.5-1.8 3.9 0 0-3.3.4-3.1-1.7l.3-3.1zM193.8 620.9l5.4-5.7s.3 3.4-.8 6.6c0 0-.4 2.5-1.8 3.9 0 0-3.3.4-3.1-1.7l.3-3.1zM186.6 624l5.4-5.7s.3 3.4-.8 6.6c0 0-.4 2.5-1.8 3.9 0 0-3.3.4-3.1-1.7l.3-3.1z"/><path class="st4" d="m214.8 622.4 8.1-1.6s-3.2-1.9-6.9-2.5c0 0-2.7-.9-4.7-.4 0 0-1.9 2.4.2 3.3l3.3 1.2zM208.4 626.5l8.1-1.6s-2.8-1.4-6.9-2.5c0 0-2.7-.9-4.7-.4 0 0-1.9 2.4.2 3.3l3.3 1.2zM200.7 630.3l7.6-1.4s-3.1-1.7-6.9-2.5c0 0-2.7-.9-4.7-.4 0 0-1.9 2.4.2 3.3l3.8 1zM182.6 633.9s-1.9 2.4.2 3.3"/><path class="st24" d="M161.1 671.9c2.7-1.5 5-2.4 6.9-2.8 2.6-.5 3.6.3 2.9 2.6-.3 1-.9 2.3-1.6 3.8-6.8 13.3-10.9 22.3-12.3 26.9-.7 2.2-.8 4-.2 5.3-2.4 1.8-4.6 3-6.5 3.3-3.4.7-4.5-.7-3.4-4.3.9-3.1 3.3-8.3 6.9-15.7 3.7-7.4 6-12.6 6.9-15.7.4-1.1.5-2.2.4-3.4zm14-9.9c-2.2 1.4-4 2.2-5.5 2.5-2.3.5-3.2 0-2.8-1.5.2-.5.5-1.2.9-2.3.5-1 .8-1.8.9-2.3.1-.3.1-.7 0-1.1 2.5-1.4 4.5-2.2 6.1-2.5 2.5-.5 3.4.3 2.8 2.5-.3 1-1.1 2.6-2.4 4.7zM182.2 680.8c7.9-11.6 14.3-17.9 19.1-18.9 3.6-.8 4.8 1 3.5 5.2-.9 3-2.9 7.6-6.1 13.9-3.1 6.3-5.2 10.9-6.1 13.9-.7 2.4-.8 4.3-.3 5.6-2.4 1.8-4.6 3-6.5 3.4-3.2.7-4.3-.8-3.2-4.3.8-2.6 2.2-6 4.1-10 4.8-10.1 7.3-15.7 7.6-16.7.3-1.1.2-1.6-.4-1.4-1.1.2-4.8 4.6-10.9 13-6.1 8.4-9.9 14.8-11.2 19-.2.7-.4 1.6-.4 2.6-1.9.9-3.7 1.5-5.3 1.9-3 .6-4.1-.3-3.3-2.7.4-1.3 1.1-2.9 2.1-4.9l2.5-4.9c6-12.1 9.6-20.2 10.9-24.1.3-1.1.5-2.1.4-2.9 2.6-1.4 4.7-2.3 6.3-2.6 2.6-.5 3.6.4 2.8 2.9-.4 1.1-2.3 5.2-5.6 12zM213.2 684.5c-1.1.2-1.3-.8-.6-3 1.4-4.5 3.3-8.6 5.6-12.4 2.4-3.8 4.6-5.9 6.9-6.3 2.1-.4 3.6.7 4.5 3.4-8 11.6-13.5 17.7-16.4 18.3zm-20.6 20.4c-.6 1.9.5 3.3 3.2 4 2.7.7 5.4.8 8.2.2 3.7-.8 7.2-2.3 10.5-4.7 3.3-2.4 6.3-5.4 8.8-9 2.5-3.6 6.7-12.2 12.5-25.8 2.8-6.5 5.3-11.3 7.7-14.6-1.8-.6-3.6-.7-5.4-.3-1.9.4-3.3 1.2-4.3 2.5-1.6-1-3.7-1.3-6.1-.8-5 1-9.9 4.4-14.8 10-4.8 5.6-8.2 11.8-10.2 18.3-2.2 7.1-1.2 10.3 3.1 9.4 4.3-.9 10.2-6.1 18-15.6-5.3 11.8-8.9 18.8-10.7 20.7-1.8 2-3.9 3.2-6.2 3.7-3.9.8-6.4-.9-7.6-5.2-3.7 2.4-5.9 4.7-6.7 7.2zM238.1 682.2c-.1 4.2 1.4 6 4.5 5.4 3.2-.7 5.3-2.9 6.5-6.6.6-2-1-4.6-4.7-7.9-1.2-1.6-1.3-3.8-.5-6.6 1.3-4.4 3.8-8.1 7.3-11.3 3.5-3.1 7.4-5.1 11.6-6 5.3-1.1 7.6-.5 6.9 1.8-.6 2-2.5 4.3-5.6 6.8-1.1-2.7-2.7-3.9-4.6-3.5-2.7.6-4.6 2.5-5.6 5.7-.5 1.7-.1 3.2 1.2 4.3 1.2 1.1 2.5 2.1 3.8 3.2 1.2 1.6 1.4 3.9.5 6.8-1.5 4.8-4.1 8.8-7.9 12.3-3.8 3.4-8.1 5.6-12.7 6.5-6 1.2-8.5.2-7.5-3 .7-2.2 3-4.9 6.8-7.9z"/><path class="st25" d="M145.2 631.5h6l2.2 8.9 3.2-8.9h6l3.2 8.9 2.2-8.9h6l-4.5 16h-6.2l-3.6-10.1-3.6 10.1h-6.2l-4.7-16z"/><path class="st7" d="M145.2 631.5h6l2.2 8.9 3.2-8.9h6l3.2 8.9 2.2-8.9h6l-4.5 16h-6.2l-3.6-10.1-3.6 10.1h-6.2l-4.7-16z"/><path class="st24" d="M113.6 725.4c-4 2.6-7.3 4.1-10 4.7-3.5.7-4.9-.4-4.1-3.3.5-2 1.6-4.6 3.1-7.8 13.8-29 22.2-48.9 25.2-59.5.6-2.1.7-4 .4-5.7 4.8-3.4 8.9-5.5 12.4-6.2 3.2-.7 4.4.4 3.6 3.2-.5 1.7-2.3 6-5.5 12.9l-8.9 20.8c22.3-27.8 42.2-40.5 46.5-46.9.8-1.2.9 1.1-1.2 4.7-1.9 3.4-9.4 8.7-17 16.6-8.1 8.5-14.3 16.6-19.7 24.7-.4 9.7 7.7 26.5 14 25.2.1 0 .3-.1.4-.1-3.5 8.5-7.7 13.3-12.7 14.3-4 .8-7.1-2.1-9.3-8.7-2.2-6.6-3.4-14.7-3.4-24.2-7.6 17.4-12 27.9-13 31.4-.4 1.1-.6 2.4-.8 3.9z"/><path class="st4" d="M161.1 671.9c2.7-1.5 5-2.4 6.9-2.8 2.6-.5 3.6.3 2.9 2.6-.3 1-.9 2.3-1.6 3.8-6.8 13.3-10.9 22.3-12.3 26.9-.7 2.2-.8 4-.2 5.3-2.4 1.8-4.6 3-6.5 3.3-3.4.7-4.5-.7-3.4-4.3.9-3.1 3.3-8.3 6.9-15.7 3.7-7.4 6-12.6 6.9-15.7.4-1.1.5-2.2.4-3.4zm14-9.9c-2.2 1.4-4 2.2-5.5 2.5-2.3.5-3.2 0-2.8-1.5.2-.5.5-1.2.9-2.3.5-1 .8-1.8.9-2.3.1-.3.1-.7 0-1.1 2.5-1.4 4.5-2.2 6.1-2.5 2.5-.5 3.4.3 2.8 2.5-.3 1-1.1 2.6-2.4 4.7zM182.2 680.8c7.9-11.6 14.3-17.9 19.1-18.9 3.6-.8 4.8 1 3.5 5.2-.9 3-2.9 7.6-6.1 13.9-3.1 6.3-5.2 10.9-6.1 13.9-.7 2.4-.8 4.3-.3 5.6-2.4 1.8-4.6 3-6.5 3.4-3.2.7-4.3-.8-3.2-4.3.8-2.6 2.2-6 4.1-10 4.8-10.1 7.3-15.7 7.6-16.7.3-1.1.2-1.6-.4-1.4-1.1.2-4.8 4.6-10.9 13-6.1 8.4-9.9 14.8-11.2 19-.2.7-.4 1.6-.4 2.6-1.9.9-3.7 1.5-5.3 1.9-3 .6-4.1-.3-3.3-2.7.4-1.3 1.1-2.9 2.1-4.9l2.5-4.9c6-12.1 9.6-20.2 10.9-24.1.3-1.1.5-2.1.4-2.9 2.6-1.4 4.7-2.3 6.3-2.6 2.6-.5 3.6.4 2.8 2.9-.4 1.1-2.3 5.2-5.6 12zM213.2 684.5c-1.1.2-1.3-.8-.6-3 1.4-4.5 3.3-8.6 5.6-12.4 2.4-3.8 4.6-5.9 6.9-6.3 2.1-.4 3.6.7 4.5 3.4-8 11.6-13.5 17.7-16.4 18.3zm-20.6 20.4c-.6 1.9.5 3.3 3.2 4 2.7.7 5.4.8 8.2.2 3.7-.8 7.2-2.3 10.5-4.7 3.3-2.4 6.3-5.4 8.8-9 2.5-3.6 6.7-12.2 12.5-25.8 2.8-6.5 5.3-11.3 7.7-14.6-1.8-.6-3.6-.7-5.4-.3-1.9.4-3.3 1.2-4.3 2.5-1.6-1-3.7-1.3-6.1-.8-5 1-9.9 4.4-14.8 10-4.8 5.6-8.2 11.8-10.2 18.3-2.2 7.1-1.2 10.3 3.1 9.4 4.3-.9 10.2-6.1 18-15.6-5.3 11.8-8.9 18.8-10.7 20.7-1.8 2-3.9 3.2-6.2 3.7-3.9.8-6.4-.9-7.6-5.2-3.7 2.4-5.9 4.7-6.7 7.2zM238.1 682.2c-.1 4.2 1.4 6 4.5 5.4 3.2-.7 5.3-2.9 6.5-6.6.6-2-1-4.6-4.7-7.9-1.2-1.6-1.3-3.8-.5-6.6 1.3-4.4 3.8-8.1 7.3-11.3 3.5-3.1 7.4-5.1 11.6-6 5.3-1.1 7.6-.5 6.9 1.8-.6 2-2.5 4.3-5.6 6.8-1.1-2.7-2.7-3.9-4.6-3.5-2.7.6-4.6 2.5-5.6 5.7-.5 1.7-.1 3.2 1.2 4.3 1.2 1.1 2.5 2.1 3.8 3.2 1.2 1.6 1.4 3.9.5 6.8-1.5 4.8-4.1 8.8-7.9 12.3-3.8 3.4-8.1 5.6-12.7 6.5-6 1.2-8.5.2-7.5-3 .7-2.2 3-4.9 6.8-7.9z"/><path class="st4" d="M113.6 725.4c-4 2.6-7.3 4.1-10 4.7-3.5.7-4.9-.4-4.1-3.3.5-2 1.6-4.6 3.1-7.8 13.8-29 22.2-48.9 25.2-59.5.6-2.1.7-4 .4-5.7 4.8-3.4 8.9-5.5 12.4-6.2 3.2-.7 4.4.4 3.6 3.2-.5 1.7-2.3 6-5.5 12.9l-8.9 20.8c22.3-27.8 42.2-40.5 46.5-46.9.8-1.2 11.3-4.9 8.3-2-1.2 1.2-27 19.7-46.6 47.6 2.3 16.6 8 26.9 14.3 25.6.1 0 .3-.1.4-.1-3.5 8.5-7.7 13.3-12.7 14.3-4 .8-7.1-2.1-9.3-8.7-2.2-6.6-3.4-14.7-3.4-24.2-7.6 17.4-12 27.9-13 31.4-.3 1.1-.5 2.4-.7 3.9z"/><path class="st8" d="M142.8 649s-1.3-2.7-13.4 5c0 0 2 5-3.8 17.7 0 0-21 45.3-22.2 47.9 0 0-8.9 16 6.2 6.3 0 0-8.1 3.3-3.4-5.7 0 0 28.6-59.1 27.8-64.3 0-.1-.1-4.5 8.8-6.9zM175.3 641.9l-.1-1.7s-30.4 25.8-45 45.4l3.1-.8s30.3-35.2 42-42.9zM241.6 655.6s-3.1-1.5-6.2 1.9c0 0 3.5-1.9 4.6.4l1.6-2.3zM136.7 685.2s-.3 13.2 9 23.6c0 0 8.6 5.6-4.9 12.2 0 0 9-8.7 4.4-10.5-.1 0-12.4-14.9-8.5-25.3zM175.6 655.8l-5.2 2.1-.8 2.6s1 1.1 6-4.7zM168.5 669.8s-4.9 1-6.3 2.5c.3 1 .7 2.2-.3 4.5 0 0-13.1 28.1-13.8 30.5 0 0 1.5 1.2 2 2.4 0 0 3.8-4.3 1.8-5.1 0 0 13-30.7 13.4-31.6.8-1.1 3.2-3.2 3.2-3.2zM179.7 670.4c.3-1 .3-1.4.3-1.8 0 0 4.9-2.5 6.1-1.4 0 0-3 .2-4.5 3.7L167.9 701s-2.9 5.1 1.6 4.6c0 0-7.3 3.4-5.3-1.5 0 .1 12.8-25.1 15.5-33.7zM197.2 668s4.2-5.3 5.3-4.1c0 0-1.4 1.7-2.5 4l-13.6 29.8s-1.9 4.5 2.8 3.9c0 0-6.8 3.2-5.7-1.1-.1-.1 13.3-28.7 13.7-32.5z"/><path class="st8" d="M204.1 664s-3.5-6.2-18.6 13.5c0 0 8.7-9.7 11.6-9.7 0 0 2.3-.1 4.3-2.7 1.4-1.8 2.7-1.1 2.7-1.1zM233.3 657.6l-3 3.2s-7.1-9.3-24.1 18.9c.1.1 10.1-25.8 27.1-22.1zM266.4 654s4.1-3.6 1.8-4.3c0 0-12.5-2.3-21.7 13.1 0 0 9.9-11.5 18.7-11.4.1-.1 2-.1 1.2 2.6zM252 661.1s-2.3 4.4 2.8 7.7c0 0 4.2 2.9 1.7 6.8 0 0 5.2-4.4-1.3-9.2-.5-.1-2.4-.8-3.2-5.3zM250.3 678.2s.7 5.6-5.1 9.3c0 0-7.8 4.6-8-3.6 0 0-5.2 4.1-4.9 7.6.1 1.6 2.9.5 2.9.5s-3.5-.1.7-3.1c.4-.3 6.7 4.9 12.9-2.8 0 0 2.6-2.6 1.5-7.9zM212.1 701.7s-3.9 3.7-9 2.4c-1.9-.4-2.9-1.4-4.4-4.7 0 0-3.9 2.3-4.2 6.2-.2 2.6 3.4 2.4 3.4 2.4s-2.1-1.8 0-4c.2-.2 2 1.8 5.7 2.1 2.8.1 7.5-.2 12.7-7 0 0 7-7.7 8.6-21.4 0 .1-4 17.9-12.8 24z"/><path class="st8" d="M212.7 668.6s-14.6 21.5-7.8 23.5c0 0 2.7-.6 6.1-3.1 0 0-4.7 1.7-4.5-2.8-.2-4.7 1.9-7.3 6.2-17.6zM129 689.4s.7 32.9 9.2 31.3l1.9-4.3c.1.1-8.9-1.4-11.1-27zM212.5 702.5s9.4-12 12.7-24.9c0 0 2.8-3.9 6-8.2 0 0-8.9 24.2-14.8 29.8l-3.9 3.3zM246.8 662.8s-2.1 4.9 1.3 8.2c0 0 3.2 4.1 2.1 6.9 0 0-1.9-3.2-3.6-4.7 0-.1-4.9-2.4.2-10.4z"/><path class="st8" d="M229 668.2s-11.8 18.5-17.4 17c0 0-.4 1.3-1.5 1.7 0-.1 5.8 4 18.9-18.7z"/><path style="stroke:#000;stroke-width:.8101" d="M138.1 617.3h45.6v10.8h-45.6z"/><path style="fill:#fdb927;stroke:#000;stroke-width:2.4715" d="M145.3 619.8h26.9v6.3h-26.9z"/><path class="st4" d="M145.3 619.8h26.9v6.3h-26.9z"/><path class="st4" d="M138.9 619.8h43.4v6.9h-43.4zM180.2 609.2h-6.7l-4.2-6-4.1 5.7-4.9.3-4.9-.3-4-5.7-4.3 6h-6.6l-9.1-3.7 7.7 13h42.4l7.7-13z"/><path class="st8" d="m152.6 609.5-1.5-4.4-3.1 5.3-8.4.1-5-2.1 5.4 8.6h32.7c0 .1-13.7-1.2-20.1-7.5z"/><path d="M141.9 622.1h.7c.2 0 .4 0 .5.1.1.1.2.1.2.3 0 .1-.1.2-.2.3-.1.1-.3.1-.5.1h-.7v-.8zm-1.7 3h2.8c.1 0 .4 0 .7-.1.3 0 .5-.1.6-.1.2-.1.4-.2.5-.4.1-.2.2-.3.2-.5s-.1-.4-.3-.6c-.2-.2-.5-.3-.8-.3.2-.1.4-.1.6-.3.2-.2.3-.4.3-.6 0-.3-.1-.5-.4-.7-.3-.2-.7-.3-1.2-.3h-3.1v3.9zm1.7-1.6h.8c.3 0 .5 0 .6.1.1.1.2.2.2.3 0 .1-.1.2-.2.3-.1.1-.3.1-.6.1h-.8v-.8zM147.6 622.1h.7c.3 0 .5 0 .6.1.1.1.2.2.2.3 0 .1 0 .2-.1.2-.1.1-.2.1-.3.1-.2 0-.4.1-.4.1h-.7v-.8zm0 3v-1.5h.1c.1 0 .3 0 .4.1.1 0 .2.1.3.3l.9 1.2h1.9l-.8-1.1c0-.1-.1-.1-.2-.2s-.2-.2-.3-.2c-.1 0-.2-.1-.4-.1.2 0 .4-.1.6-.1.2-.1.4-.2.5-.4.1-.2.2-.3.2-.5s-.1-.4-.2-.6-.4-.3-.6-.3c-.3-.1-.7-.1-1.2-.1H146v3.8h1.6z"/><path d="m153.5 623.7.6-1.4.6 1.4h-1.2zm1.7 1.4h1.7l-2-3.8h-1.8l-2 3.8h1.7l.3-.6h1.8l.3.6zM157.5 621.3h1.5l2 2.1v-2.1h1.5v3.8H161l-2-2.1v2.1h-1.5v-3.8zM165.7 622.2c.4 0 .7.1.9.2.2.1.3.4.3.8 0 .3 0 .5-.1.7l-.3.3c-.1.1-.4.1-.7.1h-.4v-2.1h.3zm-2 2.9h2.4c.3 0 .6 0 1-.1.3 0 .5-.1.7-.3.2-.2.4-.3.5-.6.1-.2.2-.5.2-.9 0-.3 0-.5-.1-.7-.1-.2-.2-.4-.4-.6-.2-.2-.4-.3-.7-.4-.3-.1-.7-.1-1.2-.1h-2.4v3.7zM171.1 622.4c.2-.2.5-.3.8-.3.3 0 .6.1.8.2.2.2.3.4.3.8s-.1.7-.3.9c-.2.2-.5.2-.8.2-.3 0-.6-.1-.8-.3-.2-.2-.3-.4-.3-.8 0-.3.1-.5.3-.7zm-1.6 1.9c.2.3.6.5.9.6.4.1.9.2 1.5.2s1.1-.1 1.5-.2c.4-.2.7-.4.9-.7.2-.3.3-.6.3-1.1 0-.6-.2-1.1-.7-1.4-.5-.3-1.2-.5-2-.5-.9 0-1.5.2-2 .5s-.7.8-.7 1.4c0 .6.1.9.3 1.2zM175.6 621.3h1.5l2 2.1v-2.1h1.5v3.8h-1.5l-2-2.1v2.1h-1.5v-3.8z"/><path class="st8" d="m169.1 604.9-2.5 4h3.1z"/><path d="m180.7 637.7.6-5.9s30.8-18.4 34-18.9l2.2 4.3-36.8 20.5z"/><path class="st4" d="M220.4 609.6c-1.8.3-4.1 3-5 4.3-6 3.4-32.8 17.2-39.4 25.1v3.2s28.1-21.3 41.2-25.4c1.6.2 3.6-.2 3.6-.2 2.9-.4 6.1-4.1 6.1-4.1 3.7-3.1 4.5-5 4.5-5s-7.8 1.7-11 2.1z"/><path class="st8" d="m220.7 610.6 8.9-1.9c-4.7 2.9-5.9 3.9-8 5 0 0-3.5 1.5-5.6 2.1 0 0-.1-2.9 3.8-4.8l.9-.4z"/><path class="st25" d="M176.9 631.5h6.4v5.6h6.9v-5.6h6.4v16h-6.4V641h-6.9v6.5h-6.4v-16zM200.8 631.5h17v3.4h-10.6v2.5h9.9v3.3h-9.9v3.2h11v3.6h-17.3v-16zM228.3 641.5l2.2-5.8 2.2 5.8h-4.4zm6.9 6h6.6l-7.7-16h-7l-7.7 16h6.5l1-2.6h7.2l1.1 2.6zM240.5 631.5h19.3v4h-6.5v12.1h-6.4v-12.1h-6.5v-4z"/><path class="st7" d="M176.9 631.5h6.4v5.6h6.9v-5.6h6.4v16h-6.4V641h-6.9v6.5h-6.4v-16zM200.8 631.5h17v3.4h-10.6v2.5h9.9v3.3h-9.9v3.2h11v3.6h-17.3v-16zM228.3 641.5l2.2-5.8 2.2 5.8h-4.4zm6.9 6h6.6l-7.7-16h-7l-7.7 16h6.5l1-2.6h7.2l1.1 2.6zM240.5 631.5h19.3v4h-6.5v12.1h-6.4v-12.1h-6.5v-4z"/><path class="st4" d="m208.5 613.1 5.4-5.7s.3 3.4-.8 6.6c0 0-.4 2.5-1.8 3.9 0 0-3.6.4-3.4-1.6l.6-3.2z"/><path class="st8" d="m209.4 613.3 3.7-3.8s0 1.3-1 3.6c0 0-.5 1.7-1.4 2.9 0 0-2.1 1.1-1.7-.3l.4-2.4z"/><path class="st4" d="m201.5 616.3 5.4-5.7s.3 3.4-.8 6.6c0 0-.4 2.5-1.8 3.9 0 0-4.2 2-4-.1l1.2-4.7zM193.8 620.9l5.4-5.7s.3 3.4-.8 6.6c0 0-.4 2.5-1.8 3.9 0 0-3.8 1.6-3.6-.4l.8-4.4zM186.6 624l5.4-5.7s.3 3.4-.8 6.6c0 0-.7 4.1-1.7 4.3 0 0-3.6-.1-3.4-2.2l.5-3z"/><path class="st8" d="m202.3 616.7 3.5-4s-.5 2-1.5 4.3c0 0-.5 1.7-1.4 2.9 0 0-1.3.4-.9-1l.3-2.2zM194.5 621.3l3.7-4.1s-.3 1.7-1.3 4c0 0-.5 1.7-1.4 2.9 0 0-1.2.4-1.3-.7l.3-2.1zM187.3 624.7l3.8-4.1s-.1 1.5-1 3.8c0 0-.5 1.7-1.4 2.9 0 0-1.4 1-1.5-.4l.1-2.2z"/><path class="st4" d="m187.4 628.1 1.7.8-1 2.8-1.5 1z"/></g><path d="m235.4 707.6 1-2.7h1v3.6h-.6v-3l-1.1 3h-.4l-1.1-3v3h-.6v-3.6h1l.8 2.7zm-2.7-2.1h-1.1v3.1h-.6v-3.1h-1.1v-.5h2.9v.5z"/></svg>