<svg version="1.1" id="Layer_1" xmlns="http://www.w3.org/2000/svg" xmlns:xlink="http://www.w3.org/1999/xlink" x="0" y="0" width="630" height="810" style="enable-background:new 0 0 630 810" xml:space="preserve"><style>.st0,.st1,.st2{clip-path:url(#SVGID_2_)}.st0{fill-rule:evenodd;clip-rule:evenodd;fill:#fffeee}.st1,.st2{fill:none;stroke:#000;stroke-width:6.0001;stroke-linejoin:round;stroke-miterlimit:10}.st2{stroke-width:4}.st3{fill-rule:evenodd;clip-rule:evenodd;fill:#b75106}.st3,.st4,.st6{clip-path:url(#SVGID_2_)}.st6{fill-rule:evenodd;clip-rule:evenodd;fill:#bcbdc0}</style><defs><path id="SVGID_1_" d="M-9 9h630v810H-9z"/></defs><clipPath id="SVGID_2_"><use xlink:href="#SVGID_1_" style="overflow:visible"/></clipPath><path class="st0" d="m197.9 301.1 108-21.6 108 21.6V371l-108 21.6-108-21.6z"/><path class="st1" d="m197.9 301.1 108-21.6 108 21.6V371l-108 21.6-108-21.6z"/><path class="st0" d="M209.5 309.7h193.2l-.2 53.3H209.4z"/><path class="st2" d="M209.5 309.7h193.2l-.2 53.3H209.4z"/><path class="st3" d="m250 301 56.3-11.3 56.4 11.3zM250 371l56.3 11.3 56.4-11.3z"/><path class="st4" d="M278.5 323.1v-5.9H295v5.9h-5.4v33h-5.7v-33h-5.4zm-6.6 4.5c0-1.3-.1-2.7-.4-3.8-.4-1.1-1-1.8-1.8-1.8-1.5.1-2 1.6-2 3.9 0 1.3.6 2.7 1.4 4.2.8 1.5 2 3 3.1 4.6 1.3 2 2.6 4 3.6 5.9 1 2 1.7 4 1.7 6.1 0 2.6-.4 5-1.6 6.8-1.2 1.8-3.2 3-6.3 3-3.6 0-5.7-1.4-6.9-3.5-1.2-2.1-1.4-4.9-1.4-7.8l5.6-.5c0 1.6.1 3.3.5 4.5.4 1.3 1 2.1 2.2 2.1 1.7 0 2.3-1.8 2.3-4.3 0-1.3-.6-2.7-1.5-4.3-.5-.7-1-1.5-1.5-2.3-1.1-1.6-2.3-3.4-3.6-5.3-1.3-2-2.2-4-2.8-6-.3-1-.5-2.1-.5-3.1 0-2.1.5-4.4 1.7-6.1 1.2-1.7 3.1-2.9 5.8-3 3.4-.1 5.4 1.4 6.5 3.4 1.1 2.1 1.4 4.7 1.4 6.9l-5.5.4zm-25.7-10.4h13v5.9h-7.3v10.2h5.3v6.2h-5.3v10.7h7.3v5.9h-13v-38.9zM227.7 356h-4.4l-5.2-38.8h5.3l2.3 20.2.1 1.3h.4l.2-1.3 2.4-20.2h4.1l2.4 20.2.2 1.3h.4l.1-1.3 2.3-20.2h5.3l-5.2 38.8H234l-2.6-18.4-.3-2.3h-.2l-.3 2.3-2.9 18.4z"/><path d="m383.3 335.8-.5-1.8h-.3v22h-5.2v-38.8h5.1l5.5 20.2.5 1.8h.3v-22h5.2V356h-5.1l-5.5-20.2zm-17.7-6-.2-1h-.3l-.2 1-1.6 12.3h3.9l-1.6-12.3zm-9.7 26.2 5.9-38.8h7l5.9 38.8h-5.5l-1.1-7.9h-5.5l-1.1 7.9h-5.6zm-11.9-5.6c.5 0 1.6.1 2.5-.6 1-.7 1.7-2.2 1.7-5.4s-.7-4.7-1.7-5.4c-1-.7-2.1-.6-2.5-.6v12zm0-17.2c.5 0 1.6.1 2.5-.6 1-.6 1.7-1.9 1.7-4.6 0-2.7-.7-4-1.7-4.6-1-.6-2.1-.6-2.5-.6v10.4zm-5.7 22.8v-38.8h5c3.4 0 6 .6 7.8 2.3 1.7 1.6 2.6 4.2 2.6 8 0 1.8-.2 3.2-.7 4.5-.6 1.3-1.5 2.3-2.8 3.5 1.4.8 2.5 2.3 3.3 4.8.4 1.2.6 2.8.6 4.8 0 2.9-.5 5.5-1.8 7.5s-3.6 3.3-7 3.5h-7zm-13.4-21.6c.8 0 1.8-.1 2.7-.8.8-.7 1.5-2.2 1.5-4.9s-.7-4.2-1.5-5c-.8-.7-1.9-.8-2.7-.8v11.5zm4.5 21.6-3-16.4h-1.5V356h-5.7v-38.8h5.7c6.8 0 9.7 3.9 9.7 11.2 0 3.9-1 7.3-3.2 8.8L335 356h-5.6zM315 317.2V348c-.1 1.6-.4 3-1 4.2-.5 1.1-1.2 2.1-2.3 2.9-1.1.8-2.5 1.3-4.4 1.3-1.9 0-3.4-.5-4.4-1.3-1.1-.8-1.7-1.8-2.2-2.9-.6-1.2-.9-2.6-1-4.2v-30.8h5.7V348c0 1.1.3 1.8.8 2.4.3.3.6.4 1.1.4 1 0 1.5-.6 1.7-1.4.2-.4.2-.8.2-1.4v-30.8h5.8z" style="clip-path:url(#SVGID_2_);fill:#b75106"/><path class="st3" d="m198.1 457 108-21.6 108 21.6v69.9l-108 21.6-108-21.6z"/><path class="st1" d="m198.1 457 108-21.6 108 21.6v69.9l-108 21.6-108-21.6z"/><path class="st3" d="M209.8 465.6H403l-.2 53.3H209.7z"/><path class="st2" d="M209.8 465.6H403l-.2 53.3H209.7z"/><path class="st6" d="m250.3 456.9 56.3-11.3 56.4 11.3zM250.3 527l56.3 11.2L363 527z"/><path class="st4" d="M278.8 479v-5.9h16.5v5.9h-5.4v33h-5.7v-33h-5.4zm-6.6 4.5c0-1.3-.1-2.7-.4-3.8-.4-1.1-1-1.8-1.8-1.8-1.5.1-2 1.6-2 3.9 0 1.3.6 2.7 1.4 4.2.8 1.5 2 3 3.1 4.6 1.3 2 2.6 4 3.6 5.9 1 2 1.7 4 1.7 6.1 0 2.6-.4 5-1.6 6.8-1.2 1.8-3.2 3-6.3 3-3.6 0-5.7-1.4-6.9-3.5-1.2-2.1-1.4-4.9-1.4-7.8l5.6-.5c0 1.6.1 3.3.5 4.5.4 1.3 1 2.1 2.2 2.1 1.7 0 2.3-1.8 2.3-4.3 0-1.3-.6-2.7-1.5-4.3-.5-.7-1-1.5-1.5-2.3-1.1-1.6-2.3-3.4-3.6-5.3-1.3-2-2.2-4-2.8-6-.3-1-.5-2.1-.5-3.1 0-2.1.5-4.4 1.7-6.1 1.2-1.7 3.1-2.9 5.8-3 3.4-.1 5.4 1.4 6.5 3.4 1.1 2.1 1.4 4.7 1.4 6.9l-5.5.4zm-25.7-10.4h13v5.9h-7.3v10.2h5.3v6.2h-5.3v10.7h7.3v5.9h-13v-38.9zM228 512h-4.4l-5.2-38.8h5.3l2.3 20.2.1 1.3h.4l.2-1.3 2.4-20.2h4.1l2.4 20.2.2 1.3h.4l.1-1.3 2.3-20.2h5.3l-5.2 38.8h-4.4l-2.6-18.4-.3-2.3h-.2l-.3 2.3L228 512z"/><path d="m383.6 491.7-.5-1.8h-.3v22h-5.2v-38.8h5.1l5.5 20.2.5 1.8h.3v-22h5.2V512h-5.1l-5.5-20.3zm-17.7-5.9-.2-1h-.3l-.2 1-1.6 12.3h3.9l-1.6-12.3zm-9.7 26.2 5.9-38.8h7L375 512h-5.5l-1.1-7.9h-5.5l-1.1 7.9h-5.6zm-11.9-5.7c.5 0 1.6.1 2.5-.6 1-.7 1.7-2.2 1.7-5.4s-.7-4.7-1.7-5.4c-1-.7-2.1-.6-2.5-.6v12zm0-17.2c.5 0 1.6.1 2.5-.6 1-.6 1.7-1.9 1.7-4.6 0-2.7-.7-4-1.7-4.6-1-.6-2.1-.6-2.5-.6v10.4zm-5.7 22.9v-38.8h5c3.4 0 6 .6 7.8 2.3 1.7 1.6 2.6 4.2 2.6 8 0 1.8-.2 3.2-.7 4.5-.6 1.3-1.5 2.3-2.8 3.5 1.4.8 2.5 2.3 3.3 4.8.4 1.2.6 2.8.6 4.8 0 2.9-.5 5.5-1.8 7.5s-3.6 3.3-7 3.5h-7zm-13.4-21.7c.8 0 1.8-.1 2.7-.8.8-.7 1.5-2.2 1.5-4.9s-.7-4.2-1.5-5c-.8-.7-1.9-.8-2.7-.8v11.5zm4.5 21.7-3-16.4h-1.5V512h-5.7v-38.8h5.7c6.8 0 9.7 3.9 9.7 11.2 0 3.9-1 7.3-3.2 8.8l3.6 18.8h-5.6zm-14.4-38.9V504c-.1 1.6-.4 3-1 4.2-.5 1.1-1.2 2.1-2.3 2.9-1.1.8-2.5 1.3-4.4 1.3-1.9 0-3.4-.5-4.4-1.3-1.1-.8-1.7-1.8-2.2-2.9-.6-1.2-.9-2.6-1-4.2v-30.8h5.7V504c0 1.1.3 1.8.8 2.4.3.3.6.4 1.1.4 1 0 1.5-.6 1.7-1.4.2-.4.2-.8.2-1.4v-30.8h5.8z" style="clip-path:url(#SVGID_2_);fill:#bcbdc0"/></svg>