<svg version="1.1" id="Layer_1" xmlns="http://www.w3.org/2000/svg" x="0" y="0" width="558" height="108" style="enable-background:new 0 0 558 108" xml:space="preserve"><style>.st0,.st1{fill-rule:evenodd;clip-rule:evenodd;fill:#422e32}.st1{fill:#ba6429}</style><path class="st0" d="M3.2 5.2c.3 0 .6-.1.9-.1h120c8.6.2 16.3 3 22.9 8.4.5.4.9.8 1.4 1.2.1.1.3.1.4 0 .3-.1.5-.3.7-.5 5-4.2 10.7-6.8 17.1-8.2 5.5-1.2 11.1-1.5 16.7-1 1.8.2 3.7.3 5.5.6 10 1.4 19.1 5.1 27.1 11.3 2 1.6 4 3.2 6 4.7.3.2.6.5.8.8.1.1.2.5.1.6-.3.5-.6 1-1 1.5l-12.6 17.7c-.4.6-.9 1.3-1.3 1.9.2.2.2.5.4.6.5.4 1 .7 1.5 1.1 2.5 1.8 4.8 3.9 6.6 6.4 3.1 4.2 4.9 8.9 5.4 14 .3 2.9.3 5.8-.1 8.8-1.2 8.9-5.2 16.1-12.4 21.6-3.6 2.7-7.6 4.7-11.9 6-4.5 1.4-9.1 2.2-13.8 2.3-1.5 0-3.1.1-4.6.1h-51.9c-.8 0-1.7.1-2.5-.1-.6-.5-.9-1.3-1.3-1.9-3.8-6.9-7.5-13.7-11.3-20.6-.7-1.3-1.5-2.7-2.2-4-.2-.4-.5-.8-.8-1.1-1.1-.2-2.1-.1-3-.1-.4 0-.7.3-.7.8v24c0 3.5.4 3.1-3 3.1h-33c-.8 0-1.5 0-2.3-.1-.4 0-.7-.3-.7-.8v-6.5c0-.8 0-1.5-.1-2.3 0-.1-.1-.1-.1-.2-.2-.1-.3-.1-.4.1-.4.6-.8 1.1-1.2 1.7-3.1 4.2-7.3 6.9-12.4 7.7-11.9 1.9-20.4-6.3-22.3-14.8-.3-1.2-.4-2.4-.5-3.7v-44c0-.3-.3-.6-.6-.6-.5 0-.9-.1-1.4-.1h-6c-2.2 0-4.4-.3-6.6-1.2-6.2-2.4-10-6.9-11.5-13.4C3 25.5 3 24 3 22.5V5.9c.1-.2.2-.4.2-.7zm66.7 9H15.2c-.8 0-1.5 0-2.3.1-.5 0-.9.4-.9.9V24c.5 4.3 3.2 7.1 6.6 8.1 1 .3 2 .3 3 .3h15.7c.7 0 1 .3 1.1 1v50.3c0 1.2.1 2.4.3 3.7 1 6.3 7.6 9.7 12.8 8.3 4-1.1 6.5-3.6 7.6-7.6.4-1.3.4-2.7.4-4.1V33.5c0-.6.2-1 1-1h14.2c.5 0 .9.4.9.9 0 .8.1 1.7.1 2.5v58.6c0 .3.1.6.1.9 0 .3.4.6.6.6.6 0 1.2.1 1.8.1h17.3c.5 0 .9-.4.9-.9V71c0-.8.1-1.5.1-2.3 0-.3.3-.6.6-.6s.6-.1.9-.1h15.2c.3 0 .6 0 .9.1.2.1.4.2.6.4.2.3.4.6.6 1 2.4 4.4 4.9 8.9 7.3 13.3 2.1 3.8 4.1 7.6 6.2 11.3 1.2 2.1 1 2 3.4 2h48c4 0 8-.4 11.9-1.3 3.9-.9 7.5-2.4 10.8-4.6 4.6-3.1 7.7-7.3 9.2-12.6 1.1-3.8 1.3-7.7.7-11.6-.5-3-1.6-5.8-3.4-8.2-1.1-1.6-2.5-2.9-4.1-4-2.3-1.7-4.8-3-7.4-4.1-4.5-1.9-9.2-3.1-13.9-4.2-2.9-.7-5.8-1.3-8.7-2.3-1.2-.4-2.3-.9-3.3-1.5-1.5-.9-2.3-2.2-2.2-4V37c0-1 .5-1.8 1.1-2.5.9-.9 2-1.5 3.2-1.8 1.8-.4 3.6-.6 5.5-.4.5.1 1.1.2 1.6.2 2.8.3 5.4 1 8.1 1.9 3.2 1.2 6.2 2.7 9.1 4.5.5.3.9.6 1.4.8.1.1.3 0 .4-.1.2-.1.4-.3.5-.5 3.3-4.6 6.6-9.3 9.9-13.9.1-.1.2-.3.2-.4 0-.1 0-.3-.1-.4-.1-.2-.3-.4-.5-.5-3.7-2.8-7.7-5-12.1-6.6-4.9-1.8-10.1-2.8-15.3-3.1-3.7-.2-7.4-.2-11 .3-4.3.7-8.4 1.9-12.2 4-4.3 2.5-7.7 5.9-9.8 10.4l-.6 1.2c-.1.2-.5.2-.6.1-.2-.4-.5-.8-.7-1.2-1.3-2.6-3-4.8-5-6.9-4.9-4.9-10.9-7.4-17.8-7.7-1.4-.1-2.8 0-4.2 0-17-.2-34-.2-51-.2z"/><path class="st1" d="M464.1 54.8v10.1c0 .6 0 1.2-.1 1.8 0 .4-.4.7-.8.7h-5.5c-.4 0-.7-.4-.7-.8 0-.7-.1-1.4-.1-2.1V55c0-.4-.1-.8-.1-1.1 0 0-.1-.1-.2-.1h-.2c-.3.3-.5.5-.7.9-1.4 2.2-2.9 4.4-4.3 6.6-.3.4-.5.7-.8 1.1-.1.2-.5.2-.6 0-.3-.4-.6-.9-.9-1.3-1.4-2.1-2.7-4.1-4.1-6.2-.2-.3-.5-.6-.8-.8-.1 0-.3 0-.4.1-.3.3-.2.7-.2 1.1V66.2c0 .2-.1.5-.1.7 0 .3-.3.6-.6.6-1.6 0-3.2.1-4.8.1-.2 0-.5 0-.7-.1-.4 0-.7-.4-.7-.8V44.1c0-2.2 0-2.2 2.2-2.2 1.3 0 2.6.1 3.9 0 1.1-.1 1.8.4 2.4 1.4 1.1 1.9 2.2 3.7 3.4 5.5 2 3.2 1.7 3.3 3.7.1l3.9-6.3c.3-.4.6-.7 1.1-.7h6c.5 0 .8.4.8.9v12z"/><path class="st0" d="M326.5 5.1c1.3 1.3 2.3 2.8 3.4 4.2 1.2 1.4 2.3 2.9 3.4 4.4l3.3 4.2c.2-.2.5-.3.5-.5.1-.5.1-1.1.1-1.6v-9c0-.5-.1-1.1.3-1.6.5 0 1-.1 1.5-.1h4.6c.3 0 .6.3.6.6 0 .5.1.9.1 1.4V30.2c0 .4-.3.7-.8.7h-4.8c-.4 0-.7-.2-1-.5-.3-.4-.6-.7-.9-1.1-2.7-3.5-5.4-6.9-8.1-10.4-.3-.4-.7-.8-1.1-1.2h-.2c-.2 0-.3.1-.3.3 0 .6-.1 1.2-.1 1.8V29c0 .5-.1.9-.1 1.4 0 .1-.2.2-.3.3-.1.1-.3.1-.4.1h-5.5c-.4 0-.7-.3-.7-.7V7c0-.5 0-.9.1-1.4 0-.3.3-.5.6-.6h.2c1.8.1 3.8.1 5.6.1z"/><path class="st1" d="M500.4 54.6V42.8c0-.5.3-.9.8-.9h5.3c.4 0 .7.2 1 .5.4.5.9 1.1 1.3 1.6l7.2 9.3c.3.4.6 1.1 1.3 1 .5-.4.3-1 .3-1.5V44c0-2.2 0-2.2 2.1-2.2h3.9c.6 0 .9.3 1 1v22.4c0 .5 0 1.1-.1 1.6 0 .2-.3.6-.6.6-.2 0-.3.1-.5.1H519c-.5 0-.9-.2-1.2-.6-.5-.6-1-1.2-1.4-1.8-2.5-3.2-4.9-6.3-7.4-9.5-.3-.4-.7-.8-1-1.2-.1-.1-.3-.2-.4 0-.1 0-.1.1-.1.2 0 .5-.1.9-.1 1.4V66.6c0 .6-.3 1-1 1h-5.3c-.4 0-.8-.4-.8-.7v-1.8c.1-3.5.1-7 .1-10.5zM233.7 54.8V44.4c0-.6.1-1.2.1-1.8 0-.2.4-.6.6-.6.2 0 .5-.1.7-.1h11.5c1.4 0 2.8.1 4.1.6 1 .3 1.9.7 2.7 1.4 1.4 1.1 2.4 2.4 2.8 4.1.4 1.5.5 3 .2 4.6-.3 2-1.3 3.6-2.9 4.8-.5.4-1 .7-1.5 1-.3.2-.4.6-.2.8.3.5.7 1 1 1.5 1.2 1.7 2.3 3.4 3.5 5.1.3.4.5.8.7 1.2.1.2-.1.5-.3.5-.1 0-.2.1-.2.1H250c-.5 0-.9-.2-1.2-.6-1.1-1.6-2.1-3.2-3.2-4.8-.4-.6-.8-1.1-1.2-1.7-.2-.3-.5-.6-1-.6h-1.8c-.2 0-.6.4-.6.6 0 .5-.1 1.1-.1 1.6v4.4c0 .7-.3 1.1-.9 1.1h-5.5c-.3 0-.6-.3-.6-.6 0-.7-.1-1.4-.1-2.1-.1-3.4-.1-6.7-.1-10.1zm10.3-.6h1.6c.5 0 .9-.1 1.4-.1 1.5-.3 2.4-1.4 2.4-2.9 0-.2 0-.5-.1-.7-.1-.8-.6-1.4-1.3-1.8-.6-.3-1.3-.5-2-.6h-2.7c-2.5 0-2.4-.1-2.4 2.4v.7c0 3.3-.3 3 3.1 3z"/><path class="st0" d="M279.6 21.9c.1.8.5 1.2.8 1.6 1.3 2 2.7 3.9 4 5.9.2.3.4.7.5 1 0 .1-.1.3-.2.4-.1.1-.3.1-.4.1h-6.5c-.2 0-.5-.1-.7-.1-.6-.5-1-1.2-1.4-1.8-1.2-1.7-2.3-3.4-3.5-5.2-.3-.5-.8-.7-1.3-.7h-1.4c-.4 0-.7.3-.7.7v4.1c0 3.2.2 2.9-2.8 2.9h-3.7c-.4 0-.7-.3-.7-.7V6.1c0-.8.2-1 1.1-1h11.5c1.7 0 3.4.3 5 .9 1.9.7 3.3 1.9 4.3 3.7.8 1.5 1 3.2.9 4.9-.2 2.8-1.4 5-3.8 6.5-.2.3-.6.5-1 .8zM269 14.4v2.3c0 .4.3.8.7.8 1.4 0 2.8.1 4.1 0 .5 0 1.1-.2 1.6-.3 1.3-.4 2.1-1.6 2-3-.1-1.3-1-2.3-2.3-2.6-.1 0-.3-.1-.5-.1-1.7-.2-3.4-.2-5.1 0-.3 0-.6.3-.6.6.1.8.1 1.5.1 2.3zM389.9 5.3c.3.3.3.7.3 1.1v6.2c0 .5 0 1.1.1 1.6 0 .3.3.6.6.6H398.5c.4 0 .7-.3.7-.7V8.6c0-.9 0-1.8.1-2.8 0-.3.3-.6.6-.6h6c.3 0 .5.3.6.6 0 .5.1.9.1 1.4v21.7c0 .5 0 .9-.1 1.4 0 .3-.3.6-.6.6-.2 0-.5.1-.7.1h-5.1c-.5 0-.8-.4-.8-.9v-6c0-3.2.3-2.8-2.8-2.8h-4.6c-.4 0-.8 0-1.1.1-.2 0-.4.2-.4.5 0 .5-.1 1.1-.1 1.6v6c0 .4-.1.8-.1 1.1 0 .1-.2.2-.3.3-.1 0-.1.1-.2.1h-5.8c-.4 0-.7-.3-.7-.7V7.2c0-.5 0-1.1.1-1.6 0-.1.2-.2.3-.3.1-.1.3-.1.4-.1h5.5c.1 0 .2 0 .4.1zM461.5 5.3c.3.6.2 1.2.2 1.8 0 1.3.2 2.6-.2 4-.5 0-1.1.1-1.6.1h-10.8c-.7 0-1 .3-1 1 0 3.2-.4 2.9 2.8 2.9h8.7c.4 0 .7.3.8.7v2.5c0 2.6 0 2.4-2.4 2.4h-8.1c-.5 0-.9 0-1.4.1-.2 0-.4.3-.4.4v3c0 .2.2.4.5.4.7 0 1.4.1 2.1.1h9.4c.5 0 1.1-.1 1.6.3.2.9.1 1.9.1 2.9 0 3.1.3 2.9-2.8 2.9h-16.1c-.5 0-1.1-.1-1.6-.1-.1 0-.2-.2-.3-.3-.1-.1-.1-.3-.1-.4V5.8c0-.4.3-.7.7-.7h18c.7 0 1.3-.1 1.9.2zM310.9 20.7c-.6 0-1.2.1-1.8.1h-8.3c-.5 0-.9 0-1.4.1-.2 0-.4.2-.4.5v2.8c0 .4.4.7.8.7H311.9c.4 0 .7.3.7.7v4.6c0 .4-.4.7-.8.7h-18.3c-.5 0-.9 0-1.4-.1-.2 0-.4-.2-.5-.4-.1-.5-.1-1.1-.1-1.6V6.9c0-.5 0-.9.1-1.4 0-.1.2-.3.3-.3.2-.1.5-.1.7-.1H311c.2 0 .5 0 .7.1.2.1.4.3.4.5.1.6.1 1.2.1 1.8v2.8c0 .7-.3.9-1 .9H300.6c-.5 0-.9 0-1.4.1-.2 0-.4.2-.5.5-.2.9-.1 1.8 0 2.7 0 .3.3.5.6.6.6 0 1.2.1 1.8.1h7.8c.5 0 .9 0 1.4.1.2 0 .4.3.4.4v4.6c.5.1.3.2.2.4z"/><path class="st1" d="M482.5 41.9h8.1c.5 0 1.1 0 1.6.1.4 0 .7.3.7.8v4.4c0 .5-.4.8-.9.8H480.2c-.4 0-.8.3-.8.7 0 .6-.1 1.2-.1 1.8 0 .9.3 1.2 1.3 1.2h7.8c3.4 0 3.1-.3 3.1 3.1 0 2.7.2 2.6-2.6 2.6h-7.4c-.5 0-1.1 0-1.6.1-.2 0-.4.2-.5.4-.2 1-.2 2 0 3 0 .1.2.3.3.3.3.1.6.1.9.2H491.2c.4 0 .8 0 1.1.1.3 0 .5.3.6.6V66.7c0 .4-.3.7-.7.8-.5 0-.9.1-1.4.1h-16.6c-2.3 0-2.2-.1-2.2-2.2V42.5c0-.4.3-.7.8-.7h.9c3.1.1 6 .1 8.8.1z"/><path class="st0" d="M289.8 91.4V80.6c0-.5.1-.9.1-1.4 0-.3.2-.4.4-.5.2-.1.5-.1.7-.1h18.4c.2 0 .5 0 .7.1.1 0 .2.2.3.3 0 .1.1.1.1.2V84c0 .3-.3.6-.6.6-.5 0-1.1.1-1.6.1h-9.4c-2 0-2 .1-2 2.1 0 .4.1.8.1 1.1 0 .3.3.5.6.5h10.9c.4 0 .7.3.7.7v4.1c0 .4-.3.7-.7.7H297.7c-.2 0-.6.3-.6.6-.1 1-.2 2 0 3 .1.3.3.4.5.4.6.1 1.2.1 1.8.1h9.7c.4 0 .8 0 1.1.1.2 0 .4.2.4.5v4.8c0 .3-.3.6-.5.6-.3 0-.6.1-.9.1h-18c-.3 0-.6 0-.9-.1-.2-.1-.4-.3-.4-.5-.1-.6-.1-1.2-.1-1.8V91.4z"/><path class="st1" d="M408.5 54.7V43.6c0-1.5.2-1.7 1.7-1.7h17.3c1.6 0 1.7.1 1.7 1.7 0 1.2 0 2.5-.1 3.7 0 .3-.3.6-.6.6-.7 0-1.4.1-2.1.1h-8.8c-.5 0-.9 0-1.4.1-.3 0-.6.3-.6.6V51c0 .4.3.7.7.8.5 0 .9.1 1.4.1h7.6c.6 0 1.2 0 1.8.1.3 0 .6.3.6.6V57c0 .2-.4.6-.6.6-.6 0-1.2.1-1.8.1h-8.5c-.9 0-1.2.4-1.2 1.3v.5c0 2.1 0 2.2 2.2 2.2h10.6c.5 0 .9.3.9.8v2.3c0 3.1.2 2.9-2.9 2.9h-15.2c-.7 0-1.4 0-2.1-.1-.4 0-.7-.4-.7-.8v-1.6c.1-3.6.1-7 .1-10.5zM263.9 54.6V43.1c0-.9.3-1.1 1.1-1.2h18.7c.6 0 .9.3.9.8 0 .8.1 1.5.1 2.3 0 3.2.2 2.9-2.8 2.9h-8.3c-.6 0-1.2 0-1.8.1-.3 0-.6.3-.6.6v2.5c0 .3.3.6.6.6.6 0 1.2.1 1.8.1h7.8c.5 0 .9 0 1.4.1.2 0 .4.2.5.4.1.1.1.3.1.4v.9c-.1 4.3.7 3.8-3.8 3.8h-6.7c-.5 0-.9.1-1.4.2-.2 0-.4.3-.4.5-.2.9-.2 1.8 0 2.7 0 .3.3.5.6.6.6 0 1.2.1 1.8.1h10.3c.5 0 .8.4.8.9v4.4c0 .3-.3.6-.6.6s-.6.1-.9.1h-17.8c-.3 0-.6-.1-.9-.1-.3 0-.6-.3-.6-.6 0-.7-.1-1.4-.1-2.1.2-3.3.2-6.7.2-10.1zM358.9 63.1H355c-.6 0-1 .3-1.2.9l-1.2 3c-.2.4-.5.6-.9.6h-6c-.3 0-.6-.4-.5-.6.1-.4.2-.7.4-1.1 3.2-7.6 6.4-15.2 9.6-22.7l.3-.6c.2-.5.6-.7 1.1-.7h5.5c.3 0 .6.2.7.5.2.3.3.5.4.8 3.3 7.7 6.5 15.4 9.8 23.2l.3.9c.1.2-.1.5-.4.5-.2 0-.5.1-.7.1h-5.5c-.5 0-.9-.3-1.1-.7-.4-.9-.7-1.7-1-2.6-.3-1-1-1.3-1.9-1.2-1.4-.3-2.6-.3-3.8-.3zm-.1-5.6v-.1h2.1c.4 0 .7-.4.6-.8-.1-.2-.1-.4-.2-.7l-1.8-4.5c-.1-.1-.1-.3-.2-.4 0-.1-.1-.1-.2-.1s-.3 0-.4.1c-.9 1.8-1.6 3.8-2.3 5.7-.1.2.1.5.3.5.8.2 1.5.3 2.1.3z"/><path class="st0" d="M441.1 96c.6.4 1.3.8 1.9 1.2 2.1 1.2 4.4 1.8 6.8 1.6.5 0 1.1-.2 1.5-.4.9-.5 1-1.7.2-2.3-.3-.2-.6-.4-1-.6-.9-.3-1.8-.6-2.6-.8-1.2-.3-2.4-.6-3.6-1-1-.3-2-.7-3-1.3-2.2-1.3-3.3-3.2-3.3-5.7 0-2.9 1.1-5.2 3.5-6.8 1-.7 2.2-1.1 3.4-1.4l1.8-.3c3.8-.2 7.3.4 10.6 2.5.3.2.5.4.7.5.3.2.4.6.2.8-1 1.4-1.9 2.8-2.9 4.1-.2.2-.6.3-.8.2-.5-.3-1.1-.6-1.6-.9-1.4-.7-2.9-1.1-4.4-1.3-.8-.1-1.5 0-2.3.3-.1.1-.3.1-.4.2-.7.6-.8 1.5 0 2.2.3.3.8.5 1.2.7.7.3 1.5.4 2.2.6 1.5.4 3 .7 4.4 1.3.8.4 1.7.7 2.5 1.2 2.1 1.3 3.1 3.1 3.1 5.6 0 3.5-1.5 6-4.7 7.5-1.1.5-2.3.9-3.5 1-3.3.3-6.4 0-9.5-1.2-1.4-.6-2.8-1.3-4-2.3-.2-.2-.5-.4-.5-.7.8-1.2 2.5-3.3 3.4-4.3.3-.1.5-.1.7-.2zM243.5 104.8c-3.9 0-7.4-1-10.6-3.3-.2-.2-.5-.4-.7-.6-.2-.2-.2-.6 0-.8.1-.2.3-.4.4-.5.7-.8 1.4-1.6 2.1-2.5 1-1.2 1-1.3 2.4-.4 1.2.8 2.5 1.4 4 1.8 1.3.4 2.6.4 3.9.3.5 0 .9-.2 1.3-.4.9-.6 1-1.9 0-2.5-.6-.3-1.2-.6-1.9-.8l-3.3-.9c-1-.3-1.9-.6-2.8-.9-.6-.2-1.3-.5-1.9-.9-2.2-1.3-3.2-3.1-3.3-5.7-.1-3.3 1.7-6.2 4.9-7.6 1.6-.7 3.2-.9 4.9-1 2 0 4 .3 5.9.9 1.5.5 2.8 1.1 4.1 2.1.5.4.6.7.3 1.2-.9 1.3-1.9 2.6-2.8 3.9-.2.2-.6.3-.8.2-.5-.3-.9-.5-1.4-.8-1.4-.8-3-1.2-4.6-1.4-.8-.1-1.5 0-2.3.3-.5.2-.9.6-.9 1.2s.2 1.1.7 1.4c.5.3 1 .5 1.5.6l3.6.9c1.3.3 2.7.7 3.9 1.3.8.4 1.5.8 2.1 1.3 1.3 1.2 2.1 2.6 2.2 4.4 0 .8 0 1.7-.1 2.5-.4 2.1-1.6 3.8-3.5 4.9-1.5.9-3.2 1.4-5 1.6-.9.3-1.6.2-2.3.2zM503.2 104.8c-4 .1-7.6-1-10.8-3.3-.2-.2-.5-.4-.7-.6-.2-.2-.2-.6 0-.8.1-.2.3-.4.4-.5.6-.8 1.3-1.5 1.9-2.3 1.2-1.4 1.1-1.5 2.7-.4 2.2 1.5 4.7 2.2 7.4 2 .6 0 1.2-.2 1.7-.6.7-.5.7-1.7 0-2.2-.4-.3-.8-.5-1.2-.7-.9-.3-1.8-.5-2.7-.8-1.2-.3-2.4-.6-3.5-1-1.1-.3-2.2-.8-3.1-1.5-1.8-1.2-2.8-3-2.9-5.2-.2-3.7 1.7-7.2 6.5-8.3 4.7-1.1 9.2-.4 13.2 2.3.1.1.2.2.4.3.2.2.4.6.2.8-1 1.4-1.9 2.8-2.9 4.2-.2.2-.6.3-.8.2-.5-.3-.9-.5-1.4-.8-1.4-.8-3-1.2-4.6-1.4-.9-.1-1.7 0-2.5.4s-1 1.8-.2 2.3c.4.3.9.6 1.4.7 1.3.4 2.5.7 3.8 1 1.3.3 2.7.7 3.9 1.3.8.4 1.5.8 2.1 1.3 1.3 1.2 2.1 2.6 2.2 4.4 0 .8 0 1.7-.1 2.5-.4 2.1-1.6 3.8-3.5 4.9-1.5.9-3.2 1.4-5 1.6-.7.2-1.3.2-1.9.2zM381.1 99.9c-.2 0-.4-.1-.5-.1h-8.3c-.6 0-1 .3-1.2.9l-.9 2.4-.6 1.2c-.3.1-.5.2-.7.2h-6c-.5 0-.7-.3-.5-.8.1-.4.3-.7.4-1.1.9-2.2 1.8-4.4 2.8-6.6 2.2-5.1 4.3-10.2 6.5-15.3.2-.6.5-1.1.8-1.7.1-.3.4-.5.7-.5 2.1 0 4.1-.1 6.1 0 .6.4.7 1.1 1 1.6 1.9 4.5 3.8 9 5.7 13.6l3.9 9.3c.1.3.2.6.2.9 0 .1-.1.3-.2.3-.1.1-.3.1-.4.1h-5.8c-.6 0-1-.2-1.3-.8-.4-.9-.7-1.9-1.1-2.8-.2-.2-.5-.5-.6-.8zm-2.3-5.8c0-.2.1-.4 0-.5-.7-2-1.5-4-2.3-5.9-.1 0-.2.1-.3.1-.1 0-.1.1-.2.1-.8 1.9-1.5 3.8-2.3 5.7v.5c1.8.2 3.4.2 5.1 0zM506.3 31.3c-3.9-.1-7.6-1-10.8-3.4-.2-.2-.5-.4-.7-.6-.1-.2-.1-.5 0-.6 1.1-1.3 2.1-2.6 3.2-3.9.2-.2.6-.3.8-.2.4.2.8.5 1.2.7 1.6 1 3.3 1.6 5.2 1.9 1.2.2 2.5.3 3.6-.3.5-.3.8-.7.8-1.3 0-.5-.1-.9-.6-1.2-.5-.3-1.1-.6-1.7-.8l-3.3-.9c-1-.3-2.1-.6-3.1-.9-.9-.3-1.8-.8-2.6-1.4-1.7-1.2-2.5-2.8-2.6-4.9 0-.9 0-1.8.2-2.7.6-2.2 2-3.8 3.9-4.9 1.2-.6 2.4-1 3.7-1.2 4.2-.5 8.1.2 11.7 2.6.3.2.5.4.7.6.1.1.1.3.1.4l-.3.6c-.7.9-1.3 1.9-2 2.8-1 1.4-1 1.3-2.4.5-1.2-.7-2.5-1.2-3.9-1.5-.8-.2-1.7-.2-2.5-.2-.5 0-.9.2-1.3.5-.8.5-.8 1.8-.1 2.4.6.4 1.2.6 1.9.8 1.3.3 2.5.6 3.8 1 1.3.3 2.5.8 3.7 1.3.8.4 1.6.9 2.2 1.6 1.1 1.1 1.7 2.4 1.8 3.9.1.9.1 1.8-.2 2.8-.5 2.2-1.8 3.9-3.8 5-1.6.9-3.4 1.3-5.3 1.5-.3.1-.8 0-1.3 0zM485.3 13c-.6-.3-1.1-.6-1.7-.9-1.2-.6-2.4-1.1-3.7-1.3-.7-.1-1.5-.1-2.3-.1-.5 0-.9.2-1.3.5-.8.5-.8 1.9 0 2.4.5.3.9.5 1.4.7.8.3 1.6.4 2.5.6 1.4.4 2.8.6 4.2 1.3.8.4 1.7.8 2.4 1.3 1.8 1.2 2.8 3 2.8 5.2.1 3-1.2 6.2-5 7.8-1.3.5-2.6.8-4 .9-3.7.2-7.2-.4-10.5-2.2-.9-.5-1.7-1.1-2.5-1.7-.3-.2-.3-.6-.2-.8 1.1-1.3 2.2-2.6 3.2-3.9.2-.2.6-.3.8-.1.4.2.8.5 1.2.7 1.6 1 3.3 1.6 5.2 1.9.7.1 1.4.1 2.1.1.5 0 1-.2 1.5-.4s.8-.7.8-1.3c0-.5-.2-.9-.6-1.2-.5-.3-1.1-.6-1.7-.8l-3.3-.9c-1.4-.4-2.8-.8-4.1-1.4-.8-.4-1.6-.9-2.3-1.5-1.1-1.1-1.7-2.3-1.9-3.9-.1-1.1-.1-2.2.2-3.2.5-1.8 1.6-3.3 3.2-4.4 1.5-1 3.2-1.5 5-1.7 2.8-.3 5.5 0 8.2 1 .8.3 1.5.7 2.3 1.1 2 1.2 1.8 1.1.6 2.9-.6.9-1.2 1.8-1.9 2.6-.1.3-.4.5-.6.7zM261.3 91.6V81.2c0-.6 0-1.2.1-1.8 0-.4.4-.7.8-.7H272.6c1.6 0 3.2.3 4.8.8 1 .3 1.8.8 2.6 1.4 1.7 1.3 2.7 2.9 3 5 .2 1.3.2 2.6 0 3.9-.4 2.3-1.6 4.1-3.5 5.4-1.7 1.1-3.6 1.7-5.6 1.8-1.3.1-2.6 0-3.9.1-.3 0-.6 0-.9.1-.1 0-.3.2-.3.3-.1.3-.1.6-.1.9V103.7c0 .3-.3.6-.5.6h-6c-.3 0-.6-.3-.6-.6 0-.6-.1-1.2-.1-1.8-.2-3.4-.2-6.9-.2-10.3zm7.4-3.6c-.1 0-.1 0 0 0-.1 1 0 2 0 3 0 .1.2.2.3.3H272.4c.8 0 1.5-.3 2.2-.7 1.1-.8 1.5-1.9 1.3-3.2-.2-1.3-1-2.2-2.3-2.6-1.4-.4-2.9-.3-4.3-.2-.3 0-.6.3-.6.6-.1 1 0 1.9 0 2.8z"/><path class="st1" d="M292.1 54.9V44.8c0-.7 0-1.4.1-2.1 0-.4.4-.7.8-.7h10.3c1.5 0 2.9.1 4.3.6 1.1.4 2.1.9 3.1 1.6 1.8 1.4 2.8 3.3 3.1 5.5.2 1.6.1 3.2-.5 4.8-.7 1.9-1.9 3.3-3.6 4.3-1.3.8-2.8 1.3-4.3 1.4-1.5.2-2.9.3-4.4.3-1.5 0-1.7.2-1.7 1.7v3.9c0 .4 0 .8-.1 1.1 0 .2-.3.3-.5.5H293c-.4 0-.7-.3-.7-.7v-1.8c-.2-3.6-.2-6.9-.2-10.3zm7-3.7c0 .9.1 1.8.1 2.7 0 .3.3.6.6.6 1.4.2 2.7.2 4.1 0 1.7-.3 2.7-1.5 2.6-3.2 0-.3 0-.6-.1-.9-.1-.6-.4-1.1-.9-1.5-.5-.4-1-.7-1.6-.8-1.4-.2-2.7-.2-4.1 0-.3 0-.6.3-.6.6 0 .8 0 1.6-.1 2.5z"/><path class="st0" d="M375.9 9.9c-.9 1-3.1 2.7-5 4-.6-.1-.9-.6-1.3-.9-.8-.7-1.7-1.2-2.8-1.6-2-.7-4.9 0-6.5 2.3-1.8 2.5-1.7 6.4.1 8.9 2 2.6 5.7 3.1 8.4 1.1.7-.5 1.3-1.1 1.9-1.6.2 0 .4 0 .5.1 2 1.2 3.8 2.6 4.8 3.6 0 .1 0 .3-.1.4-2.3 3.2-5.4 4.9-9.3 5.3-2.2.2-4.4 0-6.6-.8-4.9-1.9-8.2-6.4-8.4-11.6-.2-3.2.5-6.1 2.4-8.7 2.5-3.5 5.9-5.3 10.1-5.6 1.6-.1 3.2 0 4.8.4 2.7.7 4.9 2.1 6.6 4.3.3 0 .3.3.4.4zM336.1 95.5c.2 0 .4 0 .5.1 1.5 1.1 3 2.1 4.5 3.2.3.2.3.5.1.8-2.4 3.2-5.5 5-9.6 5.3-1.8.1-3.7.1-5.5-.5-6.1-1.9-9-7.1-9.2-11.5-.1-2.1 0-4.2.8-6.1 1.8-4.5 5-7.2 9.7-8.3 2.8-.6 5.5-.4 8.2.5 2.2.8 4 2.2 5.5 4.1.2.2.1.6-.1.8-1.6 1.2-3.1 2.5-4.8 3.7-.3-.2-.6-.4-.8-.6-.5-.4-1-.9-1.6-1.3-2.5-1.7-6.9-1.5-8.8 2.5-1 2-1 4.2-.1 6.3 1.6 4.2 6.3 4.9 9.4 2.6.4-.3.8-.7 1.2-1.1.2-.1.4-.3.6-.5z"/><path class="st1" d="M377.1 55c0-6.5 4-11.7 9.9-13.2 2.9-.7 5.8-.6 8.6.3 2.2.8 4.1 2.1 5.5 4 .2.3.2.7-.2 1-1.3 1-2.7 2.1-4 3.1-.6.5-.8.4-1.4-.1l-.8-.8c-1.2-1-2.6-1.5-4.3-1.5-2 0-3.5.9-4.7 2.5-1.9 2.6-1.8 6.6.3 9 1 1.2 2.4 1.9 4 2.1 2 .2 3.8-.4 5.2-1.9 1.2-1.2 1.2-1.1 2.5-.2 1.1.8 2.3 1.6 3.4 2.4.3.3.4.7.2 1-2.1 2.8-4.9 4.5-8.5 5-2.3.3-4.6.2-6.8-.5-4.5-1.6-7.3-4.7-8.5-9.3-.2-.9-.5-2-.4-2.9zM542.8 41.9h8.8c.6 0 1.2 0 1.8.1.4 0 .7.4.7.8v2.1c0 3.8.4 3.3-3.3 3.3h-3.5c-.6 0-.9.3-1 1v16.2c0 .6-.1 1.2-.1 1.8 0 .1-.2.3-.3.3-.2.1-.4.2-.7.2h-5.1c-.8 0-1-.3-1.1-1.2V50.3c0-2.2 0-2.2-2.2-2.2h-4.4c-.7 0-1-.3-1-.9v-4.6c0-.2.4-.6.6-.6.6 0 1.2-.1 1.8-.1h9z"/><path class="st0" d="M243.7 5.1h10.6c.2 0 .4.2.5.4 0 .1.1.3.1.4v4.4c0 .2 0 .3-.1.5 0 .3-.4.6-.6.6h-6.3c-.4 0-.7.3-.7.7v16.6c0 .5-.1 1.1-.1 1.6 0 .1-.2.2-.3.3-.1.1-.3.1-.4.1h-5.5c-.1 0-.3 0-.4-.1-.1-.1-.3-.2-.3-.3-.1-.6-.1-1.2-.1-1.8V12.3c0-.7-.3-1-1-1h-6c-.4 0-.7-.4-.7-.8V5.7c0-.3.3-.6.6-.6.5 0 1.1-.1 1.6-.1 3 .1 6.1.1 9.1.1zM475.7 78.6h9c.5 0 1.1 0 1.6.1.3 0 .6.3.6.6V84c0 .8-.2 1-1.2 1h-4.8c-.4 0-.8 0-1.1.1-.2 0-.4.2-.4.5 0 .7-.1 1.4-.1 2.1v16.2c0 .3-.3.6-.5.6h-6c-.3 0-.5-.3-.6-.6V87.5c0-.6 0-1.2-.1-1.8 0-.2-.2-.4-.4-.5-.4-.1-.8-.1-1.1-.1h-4.4c-.4 0-.8 0-1.1-.1-.2 0-.3-.3-.5-.4v-5c0-.4.3-.7.8-.7h1.8c2.7-.3 5.6-.3 8.5-.3z"/><path class="st1" d="M320.4 54.7V43.6c0-1.6.1-1.7 1.7-1.7h3.9c.3 0 .6 0 .9.1.3 0 .6.3.6.6 0 .7.1 1.4.1 2.1v14.1c0 .7 0 1.4.1 2.1 0 .3.3.6.6.6.7 0 1.4.1 2.1.1h7.8c.5 0 .9.1 1.4.1.1 0 .2.2.3.3 0 .1.1.1.1.2V67c0 .3-.3.6-.6.6-.4 0-.8.1-1.1.1h-16.2c-.4 0-.8-.1-1.1-.1-.2 0-.6-.4-.6-.6 0-.5 0-1.1-.1-1.6v-6.5c.1-1.5.1-2.9.1-4.2z"/><path class="st0" d="M414.6 17.9V7.1c0-.5 0-.9.1-1.4 0-.2.3-.3.4-.5 0 0 .1-.1.2-.1h5.8c.4 0 .7.3.7.7v17.6c0 1 .2 1.1 1.3 1.2h9.2c.5 0 .9 0 1.4.1.2 0 .3.3.5.4 0 0 .1.1.1.2v4.8c0 .4-.3.7-.7.7h-18.3c-.4 0-.7-.4-.7-.8V17.9zM406.6 104.4h-7.8c-.5 0-.9 0-1.4-.1-.2 0-.4-.3-.4-.4-.1-.3-.1-.6-.1-.9V80.2c0-.3 0-.6.1-.9 0-.3.2-.4.4-.5h6c.3 0 .6.3.6.6 0 .7.1 1.4.1 2.1v14.1c0 .7 0 1.4.1 2.1 0 .3.3.6.6.6.6 0 1.2.1 1.8.1h7.6c.5 0 1.1 0 1.6.1.3 0 .6.3.6.6v5.1c0 .3-.4.6-.6.6h-1.6c-2.5-.4-5-.4-7.6-.4zM423.3 91.7V79.5c0-.5.4-.8.9-.8h5.5c.1 0 .3.1.4.1.1.1.3.2.3.3.1.5.1.9.1 1.4v23c0 .7-.3.9-1 .9h-5.6c-.4 0-.7-.3-.7-.8v-1.8c.1-3.4.1-6.8.1-10.1zM348.5 91.4V80.8c0-.5.1-1.1.1-1.6 0-.3.2-.4.4-.5h6c.4 0 .7.4.7.8V102.6c0 .5 0 .9-.1 1.4 0 .2-.2.4-.4.5-.1 0-.1.1-.2.1h-5.8c-.4 0-.7-.3-.7-.7V91.4z"/><path class="st1" d="M69.9 14.2h55.2c6.9.3 12.8 2.9 17.8 7.7 2 2 3.8 4.3 5 6.9.2.4.5.8.7 1.2.1.2.5.1.6-.1l.6-1.2c2.2-4.5 5.5-7.9 9.8-10.4 3.8-2.2 7.9-3.4 12.2-4 3.7-.6 7.4-.5 11-.3 5.2.3 10.4 1.3 15.3 3.1 4.4 1.6 8.4 3.9 12.1 6.6.2.1.3.3.5.5.1.1.1.3.1.4 0 .1-.1.3-.2.4-3.3 4.6-6.6 9.3-9.9 13.9-.1.2-.3.3-.5.5-.1.1-.3.1-.4.1-.5-.2-.9-.5-1.4-.8-2.9-1.8-5.9-3.3-9.1-4.5-2.6-1-5.3-1.6-8.1-1.9-.5-.1-1.1-.2-1.6-.2-1.9-.2-3.7 0-5.5.4-1.2.3-2.3.9-3.2 1.8-.7.7-1.1 1.5-1.1 2.5v.7c-.1 1.8.7 3.1 2.2 4 1 .7 2.2 1.1 3.3 1.5 2.8 1 5.8 1.7 8.7 2.3 4.7 1.1 9.4 2.3 13.9 4.2 2.6 1.1 5.2 2.4 7.4 4.1 1.5 1.2 2.9 2.5 4.1 4 1.8 2.5 2.9 5.2 3.4 8.2.7 3.9.4 7.8-.7 11.6-1.5 5.3-4.6 9.5-9.2 12.6-3.3 2.2-6.9 3.7-10.8 4.6-3.9.9-7.9 1.3-11.9 1.3h-48c-2.4 0-2.2.1-3.4-2-2.1-3.8-4.1-7.6-6.2-11.3-2.4-4.5-4.9-8.9-7.3-13.3-.2-.3-.4-.7-.6-1-.1-.2-.4-.3-.6-.4-.3-.1-.6-.1-.9-.1H98c-.3 0-.6 0-.9.1-.3 0-.6.3-.6.6 0 .8-.1 1.5-.1 2.3V95c0 .5-.4.8-.9.9H78.2c-.6 0-1.2-.1-1.8-.1-.3 0-.6-.3-.6-.6s-.1-.6-.1-.9V35.7c0-.8 0-1.7-.1-2.5 0-.5-.4-.8-.9-.9H60.5c-.7 0-1 .4-1 1v50.5c0 1.4 0 2.8-.4 4.1-1.1 4-3.7 6.4-7.6 7.6-5.1 1.4-11.7-2-12.8-8.3-.2-1.2-.3-2.4-.3-3.7V33.2c0-.6-.4-.9-1.1-1H21.6c-1 0-2-.1-3-.3-3.4-1-6.1-3.7-6.6-8.1V15c0-.5.4-.9.9-.9.8 0 1.5-.1 2.3-.1h36.9c5.9.2 11.9.2 17.8.2zM164 77.7h19.6c1.2 0 2.3-.3 3.4-.6.8-.3 1.6-.7 2.2-1.2 1.8-1.5 2.5-4.9.3-6.9-.6-.5-1.2-1-1.9-1.3-1.3-.5-2.5-1.1-3.9-1.5-2.4-.8-4.9-1.4-7.4-1.9-3.8-.9-7.6-1.9-11.3-3.2-2.2-.8-4.4-1.7-6.5-2.9-3.3-1.8-6.1-4.1-8.2-7.3-.2-.3-.4-.5-.6-.7-.1-.1-.5-.1-.6.1-.1.3-.3.5-.4.8-1.9 4.6-4.8 8.4-8.8 11.4-.6.5-1.2.9-1.9 1.3-.4.3-.8.5-1.1.8-.4.3-.5.8-.3 1.2.2.4.4.8.7 1.2.4.7.8 1.3 1.1 2 1.4 2.5 2.9 5.1 4.3 7.6.4.8 1 1.1 1.9 1.1H164zm-54.6-45.3H99.1c-.6 0-1.2 0-1.8.1-.3 0-.6.3-.6.6s-.1.6-.1.9v14.8c0 .3.1.6.1.9 0 .3.4.6.6.6.7 0 1.4.1 2.1.1H121.1c1.4-.1 2.7-.4 4-1.1 3.6-1.9 5.7-6.6 4.1-10.9-.6-1.7-1.7-3.1-3.1-4.2-1.6-1.2-3.4-1.7-5.4-1.7-3.9-.1-7.6-.1-11.3-.1z"/><path class="st0" d="M164 77.7h-19.3c-.9 0-1.4-.3-1.9-1.1-1.4-2.6-2.9-5.1-4.3-7.6-.4-.7-.8-1.3-1.1-2-.2-.4-.4-.8-.7-1.2-.2-.5-.1-.9.3-1.2.4-.3.8-.5 1.1-.8.6-.4 1.3-.9 1.9-1.3 3.9-3 6.9-6.8 8.8-11.4.1-.3.3-.5.4-.8.1-.2.5-.2.6-.1.2.2.4.4.6.7 2 3.2 4.9 5.5 8.2 7.3 2.1 1.1 4.3 2.1 6.5 2.9 3.7 1.3 7.5 2.3 11.3 3.2 2.5.6 4.9 1.1 7.4 1.9 1.3.4 2.6 1 3.9 1.5.7.3 1.3.8 1.9 1.3 2.2 2 1.6 5.5-.3 6.9-.7.5-1.4.9-2.2 1.2-1.1.3-2.2.6-3.4.6H164zM109.4 32.4h11.1c2 0 3.8.6 5.4 1.7 1.5 1.1 2.5 2.5 3.1 4.2 1.6 4.3-.5 9-4.1 10.9-1.2.7-2.6 1-4 1.1H99.2c-.7 0-1.4 0-2.1-.1-.3 0-.6-.3-.6-.6s-.1-.6-.1-.9V33.9c0-.3.1-.6.1-.9 0-.3.4-.6.6-.6.6 0 1.2-.1 1.8-.1h8.5c.7.1 1.4.1 2 .1z"/></svg>