<svg version="1.1" id="Tommy_Guns" xmlns="http://www.w3.org/2000/svg" x="0" y="0" width="1224" height="792" style="enable-background:new 0 0 1224 792" xml:space="preserve"><style>.st0{fill:#fff}</style><path class="st0" d="m94.2 420.2 1 6.8 8.8 1 1 15.6H52.2l1-15.6 8.8-1 1-6.8v-78.3H46l-8.9 1.1-1 9.7-15.6 1-1-27.4h118.2l-1 27.4-15.6-1-1-9.7-8.9-1.1h-17v78.3zM213.5 364.8c9.9 8.9 14.1 21.9 14.1 34.9 0 30.6-20.1 45.9-49.4 45.9-29.2 0-49.3-15.2-49.3-45.9 0-30.6 20.1-45.9 49.3-45.9 12.6 0 25.6 2.6 35.3 11zm-48 14.3c-2.6 5.8-3.4 14.3-3.4 20.6 0 7 1 15.9 4.4 22.2 2.3 4.4 6.6 8.1 11.7 8.1 5.5 0 10.1-4.2 12.3-8.9 2.9-6.2 3.9-14.6 3.9-21.4 0-7.1-1-15.9-4.4-22.2-2.3-4.4-6.6-8.1-11.8-8.1-5.9-.1-10.4 4.6-12.7 9.7zM272.7 420.2l1 6.8 4.9 1 1 15.6h-44.7l1-15.6 6.8-1 1-6.8V378l-1-5.8-6.8-1-1-15.6 37.9-1-1.9 17.5h1.9c6.8-10.7 17.7-18.5 30.6-18.5 11.7 0 20.6 6.6 22.2 18.5h1.9c6.6-10.7 17.5-18.5 30.5-18.5 6 0 12.2 1.9 16.5 6.2 6 6.2 5.8 12.2 5.8 20.1v40.2l1 6.8 6.8 1 1 15.6h-44.7l1-15.6 4.9-1 1-6.8V388c0-6.5-.6-12.8-8.8-12.8-7 0-12.3 7-15.9 12.3v32.7l1 6.8 4.9 1 1 15.6h-42.8l1-15.6 4.9-1 1-6.8V388c0-6.5-.6-12.8-8.8-12.8-7 0-12.3 7-15.9 12.3v32.7zM443.9 420.2l1 6.8 4.9 1 1 15.6H406l1-15.6 6.8-1 1-6.8V378l-1-5.8-6.8-1-1-15.6 37.9-1-1.9 17.5h1.9c6.8-10.7 17.7-18.5 30.6-18.5 11.7 0 20.6 6.6 22.2 18.5h1.9c6.6-10.7 17.5-18.5 30.5-18.5 6 0 12.2 1.9 16.5 6.2 6 6.2 5.8 12.2 5.8 20.1v40.2l1 6.8 6.8 1 1 15.6h-44.7l1-15.6 4.9-1 1-6.8V388c0-6.5-.6-12.8-8.8-12.8-7 0-12.3 7-15.9 12.3v32.7l1 6.8 4.9 1 1 15.6h-42.8l1-15.6 4.9-1 1-6.8V388c0-6.5-.6-12.8-8.8-12.8-7 0-12.3 7-15.9 12.3v32.7zM609.1 441.6l-32.6-66-2.1-3.4-4.9-1-1-15.6H616l-1 15.6-4.9 1 17 35.2 17-35.2-4.9-1-1-15.6h30.2l-1 15.6-4.9 1-5.2 8.6-45.7 94h-28.4l25.9-33.2zM790.7 411.3l-1-6.8-6.8-1-1-15.6h48.8l-1 15.6-6.8 1-1 6.8V442c-14.9 2.3-28.4 4.5-42 4.5-38.3 0-63.6-22.7-63.6-61.4 0-16.9 5.5-34.9 18-46.5 13.1-12.3 31.1-15.1 48.6-15.1 13.3 0 26.9 1.3 39.9 4.4l-1 26.4-15.6-1-1-9.2c-7.5-3.4-15.7-5-23.7-5-26.6 0-32.1 23-32.1 44.9 0 22.4 6.3 47 33.6 47 2.4 0 5-.3 7.5-1v-18.7zM903.4 427h-1.9c-5.7 11.5-15.2 18.5-28.4 18.5-7.5 0-13.6-1.6-19.1-7-6.5-6.3-7.3-13.6-7.3-22.4V378l-1-5.8-6.8-1-1-15.6 41-1-1 23.3v35.2c0 2.6-.2 5.8 1.3 8.1 1.5 1.8 3.7 2.8 6 2.8 7 0 12.6-7 16.2-12.3V378l-1-5.8-6.8-1-1-15.6 41-1-1 23.3v42.2l1 6.8 6.6 1 1 15.6-39.9 1 2.1-17.5zM998.5 372.2h1.9c5.7-11.5 15.2-18.5 28.4-18.5 7.5 0 13.6 1.6 19.1 7 6.5 6.3 7.3 13.6 7.3 22.4v37.1l1 6.8 6.8 1 1 15.6h-48.8l1-15.6 6.8-1 1-6.8V386c0-2.6.2-6-1.5-8.1-1.3-1.8-3.6-2.8-5.8-2.8-7 0-12.6 7-16.2 12.3v32.7l1 6.8 6.8 1 1 15.6h-48.8l1-15.6 6.8-1 1-6.8v-42.2l-1-5.8-6.8-1-1-15.6 40-1-2 17.7zM1065.9 361.6c3.9 0 6.8-1 8.8-2.9 1.9-1.9 2.9-4.9 2.9-8.8h-11.7v-31.3h31.3V339c0 10.5-.8 19.9-9.4 27.1-6.2 5-14.1 7.3-21.9 7.1v-11.6zM1149.3 373.2c-4.1-2.4-8.6-3.9-13.1-3.9-4.7 0-11.5 1.6-11.5 7.5 0 2.8 1.1 4.5 3.2 6.2 2.8 2.1 10.5 4.7 13.9 5.8 13.1 4.7 31.3 10.5 31.3 27.4 0 21.1-22.4 29.3-40.4 29.3-10.4 0-30-1.8-39.7-5.8l1-22 15.6 1 1 6c6.3 3.2 11.5 5.3 18.6 5.3 4.7 0 12.6-.8 12.6-7.1 0-2.8-1.3-4.4-3.4-6-3.4-2.4-11.2-5.5-15.4-7.1-12.8-5.2-28.5-11.4-28.5-27.9 0-23 23-28 41.7-28 10.2 0 20.6 1.3 30.6 3.9l-1 22.4-15.6-1-.9-6z"/><g><path class="st0" d="M150.9 523c0 11.9-7.9 19.4-20.2 19.4-12.4 0-20.3-7.6-20.3-19.4 0-5.9 2.1-11.2 5.9-14.7 3.5-3.2 8.4-4.8 14.6-4.8 12.1 0 20 7.6 20 19.5zm-28.4-.2c0 8.6 3 13.5 8.2 13.5 5.1 0 8.1-4.9 8.1-13.2 0-8.6-3-13.5-8.3-13.5-5 0-8 5-8 13.2zM183.5 510c3.7-4.9 5.8-6.3 9.6-6.3 4.6 0 7.7 3.3 7.7 8.2 0 4.3-2.4 7-6.1 7-3.2 0-5.7-2.3-5.7-5.4 0-1.5.5-2.6 2-4.6-4.2 0-7.1 5.4-7.1 13.3v9.1c0 2.5.7 3.4 2.7 3.4h4.4v6.2h-24.6v-6.2h3.4c2.1 0 2.8-.9 2.8-3.4v-17.2c0-2.5-.7-3.4-2.8-3.4h-3.4v-6.2h17.5l-.4 5.5zM233.2 531.5c0 2.5.7 3.4 2.7 3.4h3.3v6.2h-23.3v-6.2h3.3c2.1 0 2.8-.9 2.8-3.4v-17.2c0-2.5-.7-3.4-2.8-3.4h-3.3v-6.2h17.4v26.8zm.2-36.8c0 3.6-2.8 6.4-6.4 6.4-3.5 0-6.3-2.8-6.3-6.4 0-3.5 2.9-6.3 6.5-6.3 3.4-.1 6.2 2.8 6.2 6.3zM260.2 529c-3.7-2.1-5.5-5.7-5.5-10.6 0-9.5 6.4-14.9 17.7-14.9 4.8 0 7.7.8 11.6 3.3 2.5-3.1 4.9-4.4 8.2-4.4 4 0 6.9 2.5 6.9 6 0 3.1-2.1 5.4-5 5.4-2.4 0-4.1-1.7-4.1-3.9 0-1.1.3-1.8 1.3-3.1-.5-.2-.9-.2-1.1-.2-1.3 0-2.7.9-3.7 2.4 2.1 2.3 3.1 4.8 3.1 8.5 0 5.7-2.3 9.6-6.9 12.1-2.9 1.5-6.7 2.4-10.5 2.4-3.4 0-6.2-.5-8.6-1.4-1.4.7-2 1.5-2 2.7 0 1.8 1.4 2.8 4.2 2.8h.7l15.5-.5h1c5.3 0 8 .5 9.9 2.1 2.1 1.6 3.1 4.1 3.1 7.2 0 4.2-2.3 7.6-6.3 9.3-4.1 1.7-8.8 2.4-17.1 2.4-13.8 0-19.1-1.9-19.1-6.9 0-2.8 1.5-4.3 5.1-5.7-3.4-.9-5-3.1-5-6.4 0-3.7 1.5-5.7 5.7-8l.9-.6zm3.8 15.6c-1.5.8-2.1 1.8-2.1 3.1 0 2.8 3.3 4.1 10.3 4.1 4.6 0 9.1-.4 11-1 1.5-.5 2.3-1.5 2.3-2.9 0-1.5-1.1-2.5-2.9-2.9-1.5-.2-3.1-.3-6.3-.3H264zm1.6-27.2c0 6 2.4 9.8 6.3 9.8 3.7 0 6.3-3.8 6.3-9.5 0-2.5-.7-5.1-1.8-7-1.1-1.7-2.6-2.5-4.7-2.5-3.6 0-6.1 3.8-6.1 9.2zM329.6 531.5c0 2.5.7 3.4 2.7 3.4h3.3v6.2h-23.3v-6.2h3.3c2.1 0 2.8-.9 2.8-3.4v-17.2c0-2.5-.7-3.4-2.8-3.4h-3.3v-6.2h17.4v26.8zm.3-36.8c0 3.6-2.8 6.4-6.4 6.4-3.5 0-6.3-2.8-6.3-6.4 0-3.5 2.9-6.3 6.5-6.3 3.3-.1 6.2 2.8 6.2 6.3zM367 510.1c4.5-5.1 7.5-6.7 12.9-6.7 7.3 0 11.9 4.1 11.9 10.9v17.1c0 2.5.7 3.4 2.8 3.4h3.2v6.2h-22.2v-6.2h2.1c2.1 0 2.8-.9 2.8-3.4V518c0-5.3-1.5-7.3-5.6-7.3-2.4 0-4.8 1.1-5.9 2.9-.8 1.3-1.2 3.3-1.2 6.3v11.6c0 2.5.7 3.4 2.8 3.4h1.9v6.2h-21.8v-6.2h3.1c2.1 0 2.8-.9 2.8-3.4v-17.2c0-2.5-.7-3.4-2.8-3.4h-3.1v-6.2h16.6l-.3 5.4zM454.6 527.6v4.4c0 7.1-3.1 10.4-9.6 10.4-5.2 0-8-1.7-9.7-5.6-3.1 3.8-7 5.6-12.1 5.6-6.7 0-10.9-3.9-10.9-10.1 0-4.7 2.2-8 6.2-9.4 2-.7 2.1-.8 9.4-2.4 5.5-1.2 7.1-2.6 7.1-5.7 0-3.7-3.1-5.8-8.6-5.8-2.1 0-3 .2-4.5.9 2.4 1 3.5 2.3 3.5 4.5 0 3-2.4 5.3-5.5 5.3-3.6 0-6.3-2.7-6.3-6.4 0-4.1 2.6-7.3 7.1-8.8 1.9-.6 4.7-1 8.2-1 12.3 0 17.2 3.5 17.2 12.4v17c0 1.9.5 2.6 1.5 2.6 1.3 0 1.8-.9 1.8-3.4v-4.4h5.2zm-19.7-3.6c-4.7 1.7-4.9 1.8-6.3 2.1-4 1.2-4.9 2.1-4.9 4.9 0 2.5 1.8 4.2 4.3 4.2 3.6 0 6.9-2.7 6.9-5.6V524zM485.7 531.5c0 2.5.7 3.4 2.8 3.4h3.4v6.2h-23.5v-6.2h3.3c2.1 0 2.8-.9 2.8-3.4v-31.7c0-2.5-.7-3.4-2.8-3.4h-3.3v-6.2h17.4v41.3zM553.4 508.8c3.5-3.9 6.5-5.4 11.1-5.4 9.7 0 15.6 7.1 15.6 19.1 0 12.3-6.2 19.8-16.4 19.8-5.9 0-9.9-2.1-12.2-6.6l-2.1 5.3H542v-41.4c0-2.5-.7-3.4-2.8-3.4h-3.1V490h17.2v18.8zm-.2 14.6c0 7.8 2.6 12.1 7.3 12.1 4.7 0 7.4-4.6 7.4-12.6 0-7.8-2.6-12.2-7.3-12.2-4.5 0-7.4 4.9-7.4 12.7zM637.7 527.6v4.4c0 7.1-3.1 10.4-9.6 10.4-5.2 0-8-1.7-9.7-5.6-3.1 3.8-7 5.6-12.1 5.6-6.7 0-10.9-3.9-10.9-10.1 0-4.7 2.2-8 6.2-9.4 2-.7 2.1-.8 9.4-2.4 5.5-1.2 7.1-2.6 7.1-5.7 0-3.7-3.1-5.8-8.6-5.8-2.1 0-3 .2-4.5.9 2.4 1 3.5 2.3 3.5 4.5 0 3-2.4 5.3-5.5 5.3-3.6 0-6.3-2.7-6.3-6.4 0-4.1 2.6-7.3 7.1-8.8 1.9-.6 4.7-1 8.2-1 12.3 0 17.2 3.5 17.2 12.4v17c0 1.9.5 2.6 1.5 2.6 1.3 0 1.8-.9 1.8-3.4v-4.4h5.2zM618 524c-4.7 1.7-4.9 1.8-6.3 2.1-4 1.2-4.9 2.1-4.9 4.9 0 2.5 1.8 4.2 4.3 4.2 3.6 0 6.9-2.7 6.9-5.6V524zM668.5 510c3.7-4.9 5.8-6.3 9.6-6.3 4.6 0 7.7 3.3 7.7 8.2 0 4.3-2.4 7-6.1 7-3.2 0-5.7-2.3-5.7-5.4 0-1.5.5-2.6 2-4.6-4.2 0-7.1 5.4-7.1 13.3v9.1c0 2.5.7 3.4 2.7 3.4h4.4v6.2h-24.6v-6.2h3.4c2.1 0 2.8-.9 2.8-3.4v-17.2c0-2.5-.7-3.4-2.8-3.4h-3.4v-6.2h17.5l-.4 5.5zM717.1 508.8c3.5-3.9 6.5-5.4 11.1-5.4 9.7 0 15.6 7.1 15.6 19.1 0 12.3-6.2 19.8-16.4 19.8-5.9 0-9.9-2.1-12.2-6.6l-2.1 5.3h-7.4v-41.4c0-2.5-.7-3.4-2.8-3.4h-3.1V490H717v18.8zm-.2 14.6c0 7.8 2.6 12.1 7.3 12.1 4.7 0 7.4-4.6 7.4-12.6 0-7.8-2.6-12.2-7.3-12.2-4.5 0-7.4 4.9-7.4 12.7zM771.2 524.3c.6 7.9 3.6 11.5 9.5 11.5 4.4 0 7.6-2.6 9-7.3h7.3c-1.1 8.7-7.8 13.9-18 13.9-11.9 0-19.5-7.5-19.5-19.2 0-12.2 7.3-19.7 19-19.7 11.5 0 19 7.3 19 18.4 0 .5 0 1.4-.1 2.4h-26.2zm14.7-6.4c0-4.9-3-8.3-7.2-8.3-4.6 0-7.1 3.1-7.4 8.8h14.6v-.5zM830.2 510c3.7-4.9 5.8-6.3 9.6-6.3 4.6 0 7.7 3.3 7.7 8.2 0 4.3-2.4 7-6.1 7-3.2 0-5.7-2.3-5.7-5.4 0-1.5.5-2.6 2-4.6-4.2 0-7.1 5.4-7.1 13.3v9.1c0 2.5.7 3.4 2.7 3.4h4.4v6.2h-24.6v-6.2h3.4c2.1 0 2.8-.9 2.8-3.4v-17.2c0-2.5-.7-3.4-2.8-3.4h-3.4v-6.2h17.5l-.4 5.5zM895.4 517.5h-6.1c-1.9-5.3-5.7-8-11.2-8-3.3 0-5.5 1.4-5.5 3.4 0 1.3.9 2.3 2.8 2.9 2.3.8 2.3.8 10.2 2.5 7.6 1.8 11.2 5.5 11.2 11.8 0 7.9-5.4 12.3-15.1 12.3-5.4 0-8.8-1.2-12.5-4.5l-.7 3.2h-5.8v-13.8h5.8c.8 2.7 1.5 3.9 2.4 5 2 2.4 5.8 4 9.8 4 3.5 0 5.8-1.5 5.8-3.8s-1.8-3.1-12.9-5.8c-4.8-1.2-7-2.2-8.7-4.1-1.5-1.8-2.3-4.2-2.3-6.9 0-7.7 5.4-12.2 14.6-12.2 5.1 0 8.7 1.1 12.1 3.9l.7-2.8h5.4v12.9zM929.7 509.2c3.4-4.1 7-5.7 12.2-5.7 4.8 0 8.6 1.6 10.5 4.5 1.1 1.8 1.6 4.3 1.6 8.2v15.3c0 2.5.7 3.4 2.8 3.4h3.2v6.2h-22.3v-6.2h2.3c2.1 0 2.8-.9 2.8-3.4V518c0-3.2-.4-4.5-1.5-5.7-1.1-1-2.6-1.6-4.3-1.6-2.8 0-5.3 1.5-6.3 3.9-.5 1.1-.8 2.8-.8 5.7v11.2c0 2.6.7 3.4 2.8 3.4h2v6.2h-22.1v-6.2h3.2c2.1 0 2.8-.9 2.8-3.4v-31.7c0-2.5-.7-3.4-2.8-3.4h-3.2v-6.2h17.3v19zM1015.5 523c0 11.9-7.9 19.4-20.2 19.4-12.4 0-20.3-7.6-20.3-19.4 0-5.9 2.1-11.2 5.9-14.7 3.5-3.2 8.4-4.8 14.6-4.8 12.1 0 20 7.6 20 19.5zm-28.4-.2c0 8.6 3 13.5 8.2 13.5 5.1 0 8.1-4.9 8.1-13.2 0-8.6-3-13.5-8.3-13.5-5 0-8 5-8 13.2zM1048 509c3.1-3.9 6.6-5.6 11.5-5.6 9.6 0 15.1 6.8 15.1 18.7 0 12.9-5.8 20.3-16 20.3-4.4 0-7.6-1.4-10.6-4.5v8.9c0 2.5.7 3.4 2.8 3.4h3.7v6.2H1031v-6.2h3.1c2.1 0 2.8-.9 2.8-3.4v-32.6c0-2.5-.7-3.4-2.8-3.4h-3.1v-6.2h17.2l-.2 4.4zm0 14.5c0 7.9 2.4 11.9 7.3 11.9 4.8 0 7.3-4.4 7.3-12.9 0-7.8-2.4-11.9-7.3-11.9-4.6.1-7.3 4.6-7.3 12.9z"/></g><path d="M85 474.5h480.9l10.7-13.4H85v13.4zm548.1-13.4-5.9 13.4h483.6v-13.4H633.1z" style="fill:#ef3b42"/><g><path class="st0" d="M1199.7 370c0 5.1-4 9-9.1 9s-9.2-4-9.2-9c0-4.9 4.1-8.9 9.2-8.9 5.2 0 9.1 4 9.1 8.9zm-16 0c0 4 2.9 7.1 7 7.1 3.9 0 6.8-3.2 6.8-7.1 0-4-2.9-7.2-6.8-7.2-4.1.1-7 3.3-7 7.2zm5.5 4.7h-2.1v-8.9c.8-.2 2-.3 3.4-.3 1.7 0 2.4.3 3.1.7.5.4.9 1.1.9 2 0 1-.8 1.7-1.8 2.1v.1c.9.3 1.4 1 1.6 2.2.3 1.4.4 1.9.7 2.2h-2.2c-.3-.3-.4-1.1-.7-2.2-.2-1-.7-1.4-1.8-1.4h-1v3.5zm0-5.1h1c1.1 0 2.1-.4 2.1-1.3 0-.8-.6-1.4-1.9-1.4-.5 0-.9.1-1.1.1v2.6z"/></g></svg>