<svg version="1.1" id="Layer_1" xmlns="http://www.w3.org/2000/svg" x="0" y="0" width="360" height="216" style="enable-background:new 0 0 360 216" xml:space="preserve"><style>.st1{fill:#123f6d}</style><path d="M291.9 190.9c-.2.2-.4.5-.4.9 0 .3.1.6.4.9.2.2.5.4.9.4s.7-.1.9-.4c.2-.2.4-.5.4-.9s-.1-.6-.4-.9c-.2-.2-.5-.4-.9-.4-.4.1-.7.2-.9.4m-9.8-10.5c.4.1.9.2 1.4.5.5.2.9.5 1.3.9 1 1 1.6 2.2 1.6 3.8 0 1.6-.5 2.9-1.5 3.9-.3.3-.7.6-1 .8-.4.2-.9.4-1.4.5-.6.1-1.4.2-2.4.2h-2.6v-10.7h2.6c.8 0 1.5 0 2 .1zm-2.3 12.5c1.3 0 2.1 0 2.6-.1s1-.2 1.5-.4c.9-.4 1.7-.9 2.4-1.6.7-.7 1.2-1.4 1.6-2.3.4-.9.6-1.8.6-2.8 0-1.3-.3-2.6-1-3.7s-1.6-2-2.7-2.6c-1.1-.6-2.7-.9-4.7-.9h-4.9v14.4h4.6zm-21.1-12.6h4.9v12.6h2.1v-12.6h5v-1.8h-12v1.8zm-9.5 12.6h8.6V191h-6.5v-12.5h-2.1v14.4zm-16-3.2-9.7-11.2h-1.7v14.4h1.9v-11.1l9.6 11.1h1.8v-14.4h-2v11.2zm-20.3-7.9c1.1 1 1.6 2.3 1.6 3.9s-.5 2.9-1.6 3.9c-1.1 1.1-2.4 1.6-4 1.6s-2.9-.5-4-1.5-1.6-2.3-1.6-3.9.5-2.9 1.6-4c1.1-1 2.4-1.5 4.1-1.5 1.5-.1 2.8.4 3.9 1.5zm-9.6-1.4c-1.5 1.4-2.2 3.2-2.2 5.3 0 2.1.7 3.8 2.2 5.2 1.4 1.4 3.3 2.1 5.4 2.1 2.3 0 4.2-.7 5.7-2.1 1.5-1.4 2.2-3.2 2.2-5.3 0-2.1-.7-3.9-2.2-5.3-1.5-1.4-3.3-2.1-5.6-2.1-2.2.1-4 .8-5.5 2.2zm-9.3 12.5h2.1v-14.4H194v14.4zm-7.6-3.2-9.7-11.2H175v14.4h1.9v-11.1l9.6 11.1h1.8v-14.4h-2v11.2zm-19-3c0 1.1-.1 1.9-.3 2.4-.2.5-.5.9-.9 1.2-.8.6-1.8 1-3 1-.9 0-1.6-.2-2.2-.5-.6-.3-1.1-.7-1.4-1.3-.3-.5-.5-1.5-.5-2.8v-8.2H157v8.2c0 1.2.1 2 .2 2.6.2.5.4 1 .6 1.4.2.4.5.7.9 1 1.1 1 2.6 1.5 4.5 1.5 1.8 0 3.3-.5 4.5-1.5.3-.3.6-.6.9-1 .2-.4.4-.8.6-1.4.2-.6.2-1.4.2-2.5v-8.2h-2.1v8.1zm-35-6.4h4.9v12.6h2.1v-12.6h5v-1.8h-12v1.8zm-6.5 12.6h2.1v-14.4h-2.1v14.4zm-11.6-12.5c.4.1.9.2 1.4.5.5.2.9.5 1.3.9 1 1 1.6 2.2 1.6 3.8 0 1.6-.5 2.9-1.5 3.9-.3.3-.7.6-1 .8-.4.2-.9.4-1.4.5-.6.1-1.4.2-2.4.2h-2.6v-10.7h2.6c.8 0 1.5 0 2 .1zm-2.3 12.5c1.3 0 2.1 0 2.6-.1s1-.2 1.5-.4c.9-.4 1.7-.9 2.4-1.6.7-.7 1.2-1.4 1.6-2.3.4-.9.6-1.8.6-2.8 0-1.3-.3-2.6-1-3.7s-1.6-2-2.7-2.6c-1.1-.6-2.7-.9-4.7-.9h-4.9v14.4h4.6zm-17.6 0h8.4V191h-6.3v-4.5h5.9v-1.8h-5.9v-4.4h6.1v-1.8h-8.2v14.4zM84 180.4c.4.1.8.4 1 .8.2.4.4.8.4 1.2 0 .5-.1.9-.3 1.2-.2.4-.5.6-.9.8-.4.2-1.1.3-2.2.3h-.8v-4.6h.6c1 .1 1.7.2 2.2.3zm-2.8 12.5v-6.3h.5c.7 0 1.2.1 1.4.2.3.2.6.4 1 .8s.7.8 1.2 1.4l.7 1.1.6 1.1.4.6c.1.1.1.1.1.2l.6 1h2.5l-.8-1c-.3-.4-.7-1-1.2-1.8-.8-1.3-1.4-2.2-1.9-2.7-.4-.5-.9-.9-1.4-1.2.8-.3 1.4-.8 1.8-1.4.4-.6.6-1.3.6-2.2 0-1.2-.4-2.2-1.3-2.9-.9-.7-2-1.1-3.5-1.1h-3.6v14.4h2.3zm-12.4-1.7c-1.7 0-3-.5-4.1-1.5-1.1-1-1.6-2.3-1.6-3.9s.5-2.9 1.6-3.9 2.5-1.6 4.1-1.6c1.6 0 3.3.5 4.9 1.4v-2.2c-1.8-.8-3.5-1.2-5-1.2-2.2 0-4 .7-5.5 2.1-1.5 1.4-2.2 3.2-2.2 5.3 0 1.3.3 2.5 1 3.7.7 1.1 1.5 2 2.7 2.7 1.1.6 2.5 1 4.1 1 2 0 3.7-.4 5.2-1.2v-2.3c-1.7 1-3.4 1.6-5.2 1.6z" style="fill:#3e7195"/><path class="st1" d="M162.1 53.1c-.2.7-.4 1.6-.4 2.4.1.2.2.4.4.4.2-.9.2-2.1 0-2.8m10.9-.7c.1 2.5.4 6.2.1 9.2l2.1.9c.6-.1 1.3.7 1.8 0 0-1.5-2.2-1.8-2.2-3.3 0-2.2-.3-4.7-.7-6.8-.2.1-.6-.1-1.1 0zm5.8-.1c.1 3.1-.2 7.2.3 10.3 1.9-.2 3.5-1.3 5.3-1.9l.1-.5h-.2c-.1.2-.2.3-.4.5-.3.1-.6.3-.9 0 0-2.7-.5-5.9-.8-8.4-1.2 0-2.3.1-3.4 0zm-13.1.2-.2 5.3c.6 1.4 2.3 1.1 3.3 2 .5.1 1.2.8 1.8.4-.3-2.4-.8-5.4-1.2-7.8-.8 0-3.7.1-3.7.1zm-8.7-.3c.2.3 1.3 1.4 1.9 1.4.2-.1-.1-1-.1-1.2-.1-.4-.9-.2-1.8-.2zm29.9.1-.4.3c-.6 2.3-1.5 4.9-.6 7.4 1.7-.6 3.2-1.8 4.9-2.5.7-.6 1.8-.9 2.1-1.9-.3-1.1-.1-2.5-.8-3.3h-5.2zm-40.8-.1s13.1 9 22.4 9.4c-.7-.6-1.8-.6-2.5-1.3-2 .2-3-2.1-4.7-2.5l-.7 1c-.8.1-1.4-.8-1.8-1.3.1-.9.4-1.5 0-2.1-1.3-1-2.9-2.2-3.9-3.2h-8.8zm53.8-.1-2.7 2.7c-1 1.1.1 2.7-.9 3.8-.9.2-.9-.7-1.3-1l-.8 1c-.7.3-.8-.6-1.4-.5-1.8 1.3-3.7 2.2-5.6 3.3 0 0 16.1-2.3 21.8-9.4h-9.1zm-26.3-4.7c-.3.9-.7 2.2-.4 3.1.2 0 .6.1.7 0 0-.9.1-2.1-.1-3.1h-.2zm-4.8-4.7-1.1 1.4c-.7.5-1.3-.4-1.9-.5l.1 6.7c1.5 0 2.1.1 3.1 0 .2-2.5 0-5.1-.2-7.6zm10-1.4c-.4 2.8 0 6.4 0 9.2.5.2 1 0 1.5-.1-.4-.4-.3-.8-.4-1.3.3-2.5 1.1-5.2 1.1-7.8-.8-.1-1.6-.1-2.2 0zm-26 0c0 3.4 1.3 6.2 2.7 9.1.9.1 2.1 0 3.2 0-.1-4-.6-6.4-1.3-9.2.1 0-3.2-.2-4.6.1zm-13.2-.1c.3 3.4 1.9 6.7 4.1 9.1l10.1.1s-3-5-2.9-9.2h-11.3zm49.1-.1c-.3.1-.3.3-.4.5.2 3 1 6.1.7 9 .5-.1 1.1.2 1.5-.2.7-2.8 2.3-5.3 1.8-8.4-.3 0-.5 0-.7.2-1.3.5-2.1-.6-2.9-1.1zm10.5-.2c0 .9-.9 1.7-1 2.6.4 1.7.9 3.4 1.5 4.9 1.7-1.9 2-5 2.1-7.7-.8 0-1.6.2-2.6.2zm4.6-.1s-1.2 6.6-2.8 9.4c3.4 0 6.8.2 10.1.2 1.3-1.3 4.3-7.9 4-9.5h-11.3zm-16.1-3v.7c.1.2.2.7.6.7 0-.1.2-.2.2-.3 0-.6-.6-.9-.8-1.1zm-6.5-.5c-.9.3-2.1 1.2-2.5 2.1 1 .1 1.6-.2 2.3-.1.7-.1.4-.8.5-1.2l-.3-.8zm-17.6-5.2c2.7.8 2 4.2 3.2 6.2h.3c.9-1.4 1.5-3 1.9-4.7 0-1.1 1.2-2.5.5-3.6-1.3.1-4.2-.1-5.4.1-.6.3-.7.9-.5 2zm-4.6-1.9c-.8-.2-2.4-.2-3.2.3-1.7 1.6-3.4 6.8-3.4 8.7 1.4-.1 3.8.2 5-.1 1.1-2.2.9-6.1 3.8-6.8-1.1-.4-1.2-1.9-2.2-2.1zm-14.5 0c-1.8.8-4.6 5.8-4.7 9.1.2.1 11 .1 11 .1s1.7-7.4 3-9.1c-3-.3-6.2-.1-9.3-.1zm44-.3c.5 3.1 1.7 6.2 2.7 9 1-.4 1.7-1.3 2.8-1.6-.3-.7-1.2-.8-1.6-1.4-.3-1 0-1.9.4-2.7.7-.6 1.4-1.6 2.5-1.5 1.3.1 2.3 1.2 2.7 2.4.4 1.5-1.1 2.2-1.6 3.4.3.1.4.5.8.5.9 1.5 3.1.8 4.5.9.2-1-1.8-7.4-3.6-9h-9.6zm11.7-.1c2.3 3 3 4.6 3.5 9.1h11.5c-.1-3.1-1.9-6.4-4.1-9.1h-10.9zm-12.5-8.3c.3 1.1.4 2.3-.1 3.3-.7 1.3-1.5 1.9-2.8 2.2 1.2.5 2.1.7 3.2 1.2l8.7.1c.3-.1-4.6-5.1-9-6.8zm-1.3-2.8s9.5 4.9 12.8 9.3h10.1c-4.8-3.9-17.2-9-22.9-9.3zm-40.1 9.5c3 .2 6.2.1 9.3.1.9-1.3 6-6.5 12.8-9.7-2.6.6-18.4 5.5-22.1 9.6zm32.1-10.9-.1 9.2 1.3 1.5c1.6 1.2 2.4-.9 3.7-1.2-.9-.2-1.2-1.2-1.1-2.1.5-1.8.5-3.4 3.3-4.5-1.3-1.5-5.6-2.8-7.1-2.9zM158 28.2c.3 0 .7.1 1 0 .3-.7.9-1.6 1.8-1.4 2.3-.1 1.9.9 2.6 1.7 0 0 5 .3 6.3 0 .4-2.5 3-2 4.5-2.5-.6-.1-1.1-.5-1.4-.9-.2-1.8-1.1-3.7-.3-5.4.7-.5 1.6-1 2.5-.7.4.3 1 .4 1.1 1.1.8 2 .6 4.5-.9 6 .6 0 1.1.3 1.5.2l.1-8.9c-3.9-.1-16.8 7.6-18.8 10.8zm-16.9 21.7v.7c.9 3.7 2.1 7.2 3 10.9.7 1.7 2.6 2.4 3.8 3.7 3.5 2.6 6.8 5.6 10.6 7.6l-7.4-7.5c-.7-1.1-1-2.5-.6-3.8.6-1.3 2.1-2.1 3.4-2.3-.7-.5-1.5-1-2.4-1.2-3.8-1.8-7.5-4.8-10.4-8.1zm72.8-.3c-2 2.7-6.8 7.1-11.8 9.1 1 1.2 2.4 1.7 2.8 3.2.2 1.1 0 2.2-.6 3-2.3 2.4-4.8 4.8-7 7.4.8-.3 1.7-1 2.6-1.5 2.6-1.9 4.8-3.9 7.5-5.6 1-1 2.7-1.3 3-3 1-4.3 2.6-8.3 3.5-12.6zm-11.7-27.9c6.8 2.9 14 9 14.7 17.2-.1 1.6-.5 5.3-.5 5.3 1.2-.6 2.5-1.6 4.1-1.1 2.1 1.6 0 4.2.4 6.5l-2.3 20c-.6 3-3.5 4.4-5.4 6.4-2.7 2.2-9.7 8.5-10.6 9.4-1.4 1.2-2.9 2.5-2.4 4.5 1.8 4.9 5.6 15.1 5.6 15.1h-22.2c-.6-1-2.4-16.4-3.5-22.9-.3-6.9 6.1-10 9.9-14.2 2.5-2.1 5-4.6 7.2-7-3.1.6-6.1 2-9.3 2.5-4 .4-7.8 2.3-11.9 1.6-1.7-.5-3.4-.5-5.1-.8-4.8-.7-9.3-2.3-13.9-3.7 0 0 10.5 9 15.5 14.1 4.6 4.6 1.7 11.6 1.3 17.2l-2 13.2h-22.4c-.5-1.1 4-11.1 5.6-15.2.6-1.4-.6-2.4-1.3-3.3-5.4-4.2-10.4-9.2-15.6-13.9-1.4-1.2-1.6-3.2-1.9-5-1-7.4-1.5-15.1-2.7-22.3.1-.6.4-1.3 1.1-1.6 1.3-.2 3.2-.2 4.2.7 0 0-.6-1.9-.7-2.9-.9-8.2 5.4-14.8 11.7-18.2 1.4-.7 9.1-4.2 10.1-4.1 2.6-1.2 5.5-1.5 8.3-2.3 3.1-.8 6.3-1.4 9.7-1.4h1.7c7.4.4 18.1 4.4 22.6 6.2zM211.2 100.7c-.1-.1-.4-.1-.7-.1h-.5v1.2h.5c.2 0 .4 0 .5-.1.2-.1.3-.3.3-.5.1-.3 0-.5-.1-.5m-.6-.6c.4 0 .7 0 .9.1.3.1.5.4.5.8 0 .3-.1.5-.3.6-.1.1-.3.1-.4.2.2 0 .4.1.5.3.1.2.2.3.2.5V103.2h-.5v-.2c0-.4-.1-.6-.3-.8-.1-.1-.3-.1-.6-.1h-.6v1.3h-.5v-3.3h1.1zm-1.7-.1c-.5.5-.7 1.1-.7 1.8s.2 1.3.7 1.8c.5.5 1.1.8 1.7.8.7 0 1.3-.3 1.7-.8.5-.5.7-1.1.7-1.8s-.2-1.3-.7-1.8c-.5-.5-1.1-.8-1.7-.8-.7 0-1.2.3-1.7.8zm3.7 3.9c-.6.6-1.2.9-2 .9s-1.5-.3-2-.9c-.5-.6-.8-1.3-.8-2.1s.3-1.5.8-2.1c.6-.6 1.2-.9 2-.9s1.5.3 2 .9c.6.6.8 1.3.8 2.1.1.8-.2 1.5-.8 2.1zM54.5 119.2c.9.3.4 1 0 1.5-2.8 1.3-7.3.4-8.4 4.2-.2 2.7.4 5.8.4 8.1.4 1.7.3 3.6.7 5.1.4 4.6 1.3 9.4 1.8 14.2l.7 1c6.6-7 12.8-15.1 18.8-22.4-.4-2.8.5-7.2-2.5-8.9-.9-1.2-5.8.6-3.9-2.4l2.2-.4 28.7.2c.9.3.6 1.3.4 1.8-2.2 1.2-5.5-.3-7.3 1.5-1.3.3-1.8 1.5-2.5 2.4.1 7 1.1 15 1.8 21.9.4 2.7.7 5 1.2 7 7.5-8.4 14.6-18.2 21.3-26.9.9-1.2 1.3-3.4-.3-4.2-1.6-1-4.9-.4-4.8-3.3 7-.4 14.2-.3 21-.1.9 1.5-.7 2.1-1.8 2.2-8.7 2.7-13.1 11.5-18.8 17.6-8.1 10.1-16.1 20-24.3 29.8-1.5.6-3.6.3-5.1.1-1.6-11.2-2.3-21.9-3.9-32.7l-.6-.6c-10 10.7-18.7 22.5-28.5 33.4-1.4.1-4.2.5-4.5-.7-2.1-14.8-4.6-29-6.2-43.8-.9-4-5.5-2.8-8.2-4.2-.3-.3-.2-.7-.2-1.2l1-.4 31.8.2zM199.5 128.1c-.6 3.4-3.3 6.8-4.5 10.4 2.9.3 5.9-.1 8.6.3.3 1-.7 1.9-.9 2.8-3.1 1.3-9.1-1.3-10.7 2.4-3.9 6.3-6.9 13-9.8 19.7.6.9 2.1.6 2.8.1 3.4-1.4 5.8-3.7 8.4-6 .9.3 2.1-.4 2.5.6-4.3 6.1-11 9.6-18.2 10.7-3 .6-6.5-.3-7.9-2.1-.7-1.1 0-2.2 0-2.2 4-7.3 7.5-14.9 11-22.5-2.1-.7-4.6-.1-6.7-.6-.3-.9.3-1.8.9-2.7 2.4-.9 5.1-.3 7.6-.4 2.7-2.2 2.2-7.8 7-7.3 3.1-.3 6-2.4 9-3.4l.9.2zM172.5 142.3c.6 1.9-1 3-2.4 3.7-2.8.7-6.5.6-8.5-1-1.8-1.6-.6-4.6-3.4-5.4-2.9-.6-7.2-.3-8.4 2.7-.1 4.3 8.7 6.6 13 10.6 2.4 1.2 3.9 3.4 4.5 6 .1 2.4-.7 4.3-2.1 6-4.2 3.9-11.8 4.6-17.5 4.6-1.5-.1-3-.1-5.7-.4-3.9-.7-9.6-.7-12.2-5.2-.3-2.1 1-2.7 2.4-3.7 1.8-.6 6.4-1.3 8.8.9 2.7 3.4 6.4 8.2 11.5 6.4 1.9-.9 3.9-2.1 4.6-4.3.4-5.7-10.9-7.8-14.9-11.9-2.2-1.6-3.4-4.3-2.7-6.7 2.5-5.7 11-7 15.7-7 2.9 0 14.5-.3 17.3 4.7M313.9 139.8C303 140.7 293 155 292 160c-.4 2.4-.1 4.2 1.6 5.5 1.8.7 4.5.7 6.1 0 8.1-4.2 15.5-11.8 18.5-20.4.3-1.6.1-2.7-.9-4-.9-1-2.2-1.2-3.4-1.3m15.9-2c1 .3 3.3-.7 3.1.9-3.6 8.4-8.2 16.3-11.9 24.5-.4.8-.2 1.5.7 1.3 3.8.1 6.5-3.7 9.6-6.3.9-.4 1.3.6 1.8.6-4.2 5.8-11.5 11-19.1 10.6-2.1-.1-3.1-1-4.2-2.7-.3-2.1.2-4 .4-5.8-5.5 6.4-14.4 9.6-23.1 8.1-3.1.2-6.6-2.7-7.3-4.9-1.8-7.2 4.9-14 10.9-18.2 7.2-5.2 15.8-8.5 25.1-8.1 4.6.3 10 4.4 14 0zM117.9 141c-4.3 3.6-7.2 8.1-9 13 6.4-1.2 13-3.7 16.7-9.1.5-.9.6-2.7-.3-3.4-1.4-2.2-5.4-1.7-7.4-.5m19.9 1.8c.5 6-7.5 7.3-11.8 9.7-4 1-8.1 2.2-11.9 3.3-2.1.5-4.1.7-6.3 1-1.2 2.1-3.1 4.9-1.3 7.3 8.1 4.9 15.8-2.4 22.4-6.7 1-.1 2.1.3 2.5 1.2-6.7 7.3-16.6 11.8-26.3 10.7-2.2-.2-2.9-.3-5-.9-3.4-1-4.9-3-6.1-5-2.4-6.6 2.7-11.9 7-16.4 6.6-5.5 14-8.4 22.1-9.3 3.5 0 12.7-.4 14.7 5.1z"/><path class="st1" d="M264.8 141.9c-7.8 2.8-11.9 10.6-16.3 17.3-.9 1.8-1.6 3.7-1.6 5.8.3 1.3 1.3 1.9 2.5 2.4 5.1.7 9-1.1 13-6.3 3.4-4.3 10.2-12.7 8.5-17.9-1.2-1.8-3.9-2-6.1-1.3m-42.4-1.5c-8.8 5.7-14.2 18-14 24.5.7 2.2 2.2 2.5 3.8 2.6 7.5-.2 12.8-11.5 16-19.1.7-2.4 1.6-4.6.7-6.9-1.5-2.3-5.7-1.8-6.5-1.1zm45.3-21.4c-3.3 8.1-7 16.1-10.9 24 3-2.1 7-4 10.7-5.2 4.8-.8 12.1-.3 15.2 4.8 1.5 4 .6 8.8-1.9 12.1-7.8 9.7-20 14.7-31.3 14.9-3 0-5.2-.1-7.7-.8-2.4-1-4.2-1.7-5.2-4.7-.3-1.2-.3-2.4.3-3.9l-.6-.6c-6 7.3-16 10.3-25.1 9.8-4.6-.6-9.6-2.4-12.1-6.7-3-5.5-1-11.8 2.8-16.1 7.8-8.2 19.4-11.2 30.1-7.5 3.7 1.6 6.7 5.2 7.5 9.3.2 1.6.7 3.4.1 5.5l1.7-3.5c4.8-9 8.4-18.5 13.1-27.5.1-.7-.4-1.3-1.2-1.8-1.5-.1-2.8-.6-4-1-.5-.7.6-1.3 1.2-1.3 6.2.1 11.8-.1 17.3.2z"/></svg>