<svg version="1.1" id="Layer_1" xmlns="http://www.w3.org/2000/svg" x="0" y="0" width="612" height="792" style="enable-background:new 0 0 612 792" xml:space="preserve"><style>.st1{fill:#008457}.st3{fill:#f8991d}.st4{fill:#d73648}</style><path d="M213.9 373.9c0 2.1 0 2.7 2.4 2.7v.5h-7.1v-.5c2.4 0 2.4-.6 2.4-2.7v-12.3h-2.5c-2.1 0-2.7 1.3-2.8 2.8h-.5l.2-3.9h13.5l.2 3.9h-.5c-.1-1.6-.8-2.8-2.8-2.8h-2.5v12.3zM223.9 367.9c.6-.9 1.6-2.4 2.9-2.4.8 0 1.6.6 1.6 1.4 0 .6-.5 1.1-1.1 1.1-.8 0-1.2-.8-1.8-.8-.6 0-1.4 1.4-1.6 1.9v4.7c0 2 0 2.8 2.1 2.8v.5h-5.8v-.5c1.2 0 1.7-.2 1.7-1.7v-6.1c0-1.7-.5-1.7-.9-1.7-.3 0-.6.1-.9.2l-.2-.4 3.4-1.4h.6v2.4zM233.2 374.9c0 1.5.6 1.7 1.7 1.7v.5h-5.5v-.5c1.2 0 1.7-.2 1.7-1.7v-6.1c0-1.7-.5-1.7-.9-1.7-.3 0-.6.1-.9.2l-.2-.4 3.4-1.4h.6v9.4zm-1.1-15.2c.7 0 1.2.6 1.2 1.2 0 .7-.6 1.2-1.2 1.2-.7 0-1.2-.6-1.2-1.2 0-.7.6-1.2 1.2-1.2zM243.2 370.4v1.9h-6.3v-1.9h6.3zM260 365.7h-.4c-.8-2.8-2.5-4.8-5.6-4.8-3.3 0-5.8 2.6-5.8 8.1 0 5.6 3.3 7.3 6.2 7.3 2.7 0 4-1.3 5.5-3.4l.4.3c-1.5 2.8-3.6 4.3-6.9 4.3-4.8 0-8-3.7-8-8.3 0-4.9 3.4-9 8.5-9 1.3 0 2.4.3 3.5.9.2.1.5.3.7.3.6 0 .9-.6 1-1.2h.4l.5 5.5zM273.3 371.2c0 2.6-1.6 6.2-5.6 6.2-3.2 0-5.3-2.8-5.3-5.8 0-3.1 2.2-6.1 5.4-6.1s5.5 2.6 5.5 5.7zm-8.6-.7c0 2.2.8 6.1 3.6 6.1 2.3 0 2.7-2.6 2.7-4.3 0-2.2-.8-5.9-3.5-5.9-1.3-.1-2.8.9-2.8 4.1zM285.1 374.1c0 1.7.5 1.7.9 1.7.3 0 .6-.1.9-.2l.2.4-3.4 1.4h-.6V375c-1.1 1.2-2.2 2.4-3.8 2.4-1.9 0-2.9-1.6-2.9-3.7v-5.5c0-1.5-.2-1.9-1.9-2v-.5h3.9v7.8c0 1.4.6 2.3 1.9 2.3 1 0 2.1-.9 2.8-1.6v-6c0-1.5-.2-1.9-1.9-2v-.5h3.9v8.4zM291.4 367.8c1.4-1.6 2.4-2.4 3.8-2.4 2 0 2.8 1.9 2.8 3.8v5.6c0 1.5.6 1.7 1.7 1.7v.5h-5.5v-.5c1.2 0 1.7-.2 1.7-1.7v-5.2c0-2.5-1-2.7-1.8-2.7-1.2 0-2 .8-2.8 1.6v6.3c0 1.5.6 1.7 1.7 1.7v.5h-5.5v-.5c1.2 0 1.7-.2 1.7-1.7v-6.1c0-1.7-.5-1.7-.9-1.7-.3 0-.6.1-.9.2l-.2-.4 3.4-1.4h.6v2.4zM306.8 365.8v.9h-2.6v6.9c0 1 0 2.2 1.2 2.2.6 0 1.1-.5 1.3-1h.5c-.5 1.2-1.5 2.4-2.9 2.4-.8 0-2.1-.5-2.1-2.7v-7.8h-1.8v-.5c1.4-.6 2.5-1.8 3.4-4.1h.4v3.7h2.6zM309.8 368.4c-.4-.9-1-2-2.1-2.1v-.5h5.2v.5c-.8 0-1.4.1-1.4.9 0 .4.4 1.1.5 1.5l2.6 5.4 2.4-5.9c.2-.5.3-.8.3-1.3 0-.6-.5-.6-1.1-.6v-.5h3.7v.5c-.8 0-1.2.6-1.5 1.3l-4.8 11.7c-1 2.4-2.8 3.1-3.7 3.1-.8 0-1.7-.5-1.7-1.4 0-.8.6-1.1 1.3-1.1.8 0 1.2.5 1.7.5 1 0 1.5-1.4 1.8-2.1l.7-1.7-3.9-8.2zM332.2 367.9h3.3c2 0 2.8-.2 2.9-2.4h.5v5.8h-.5c-.2-2.2-.9-2.5-2.9-2.5h-3.3v6.1c0 1 .3 1.3 1.4 1.3h3.4c2.2 0 3-1 4.3-3.3h.5l-1.4 4.2h-12.8v-.5c2.4 0 2.4-.6 2.4-2.7v-10.2c0-2.1 0-2.7-2.4-2.7v-.5h12.7l.2 3.6h-.5c-.5-2.5-1.2-2.7-3.5-2.7h-4.2v6.5zM347.3 374.9c0 1.5.6 1.7 1.7 1.7v.5h-5.5v-.5c1.2 0 1.7-.2 1.7-1.7V363c0-1.7-.5-1.7-.9-1.7-.3 0-.6.1-.9.2l-.2-.4 3.4-1.4h.6v15.2zM352.5 370.1c0 2.5 1.3 5.3 4 5.3 1.8 0 2.8-1.1 3.4-2.7l.4.3c-.4 2.3-2.1 4.4-4.6 4.4-2.7 0-4.9-2.3-4.9-5.8 0-3.2 1.6-6.1 5.2-6.1 2.6 0 4.3 1.9 4.3 4.6h-7.8zm5.2-.8c0-1.6-.8-2.9-2.6-2.9-1.5 0-2.5 1.5-2.6 2.9h5.2zM371.7 372.8c-.4 2.3-2.1 4.6-4.7 4.6-2.8 0-4.8-2.6-4.8-6 0-3.6 2.6-5.9 5.4-5.9 1.5 0 3.8 1 3.8 2.7 0 .7-.5 1-1.1 1-1 0-1.3-.5-1.4-1.4-.1-1-.7-1.5-1.7-1.5-2.2 0-3 2.2-3 4 0 2.2 1.1 5.1 3.7 5.1 1.8 0 2.9-1.3 3.5-2.9l.3.3zM379.5 365.8v.9h-2.6v6.9c0 1 0 2.2 1.2 2.2.6 0 1.1-.5 1.3-1h.5c-.5 1.2-1.5 2.4-2.9 2.4-.8 0-2.1-.5-2.1-2.7v-7.8h-1.8v-.5c1.4-.6 2.5-1.8 3.4-4.1h.4v3.7h2.6zM384.3 367.9c.6-.9 1.6-2.4 2.9-2.4.8 0 1.6.6 1.6 1.4 0 .6-.5 1.1-1.1 1.1-.8 0-1.2-.8-1.8-.8-.6 0-1.4 1.4-1.6 1.9v4.7c0 2 0 2.8 2.1 2.8v.5h-5.8v-.5c1.2 0 1.7-.2 1.7-1.7v-6.1c0-1.7-.5-1.7-.9-1.7-.3 0-.6.1-.9.2l-.2-.4 3.4-1.4h.6v2.4zM393.5 374.9c0 1.5.6 1.7 1.7 1.7v.5h-5.5v-.5c1.2 0 1.7-.2 1.7-1.7v-6.1c0-1.7-.5-1.7-.9-1.7-.3 0-.6.1-.9.2l-.2-.4 3.4-1.4h.6v9.4zm-1-15.2c.7 0 1.2.6 1.2 1.2 0 .7-.6 1.2-1.2 1.2-.7 0-1.2-.6-1.2-1.2 0-.7.5-1.2 1.2-1.2zM406.5 372.8c-.4 2.3-2.1 4.6-4.7 4.6-2.8 0-4.8-2.6-4.8-6 0-3.6 2.6-5.9 5.4-5.9 1.5 0 3.8 1 3.8 2.7 0 .7-.5 1-1.1 1-1 0-1.3-.5-1.4-1.4-.1-1-.7-1.5-1.7-1.5-2.2 0-3 2.2-3 4 0 2.2 1.1 5.1 3.7 5.1 1.8 0 2.9-1.3 3.5-2.9l.3.3z"/><g><path d="M209 388.2v10.7c0 2.1 0 2.7 2.4 2.7v.5h-5.8v-.5c2.4 0 2.4-.6 2.4-2.7v-10.2c0-2-.3-2.7-2.4-2.7v-.5h4.7l6 13 5.9-13h4.7v.5c-2.4 0-2.4.6-2.4 2.7v10.2c0 2.1 0 2.7 2.4 2.7v.5h-7.1v-.5c2.4 0 2.4-.6 2.4-2.7v-10.7l-6.3 13.9h-.4l-6.5-13.9zM230.3 395.1c0 2.5 1.3 5.3 4 5.3 1.8 0 2.8-1.1 3.4-2.7l.4.3c-.4 2.3-2.1 4.4-4.6 4.4-2.7 0-4.9-2.3-4.9-5.8 0-3.2 1.6-6.1 5.2-6.1 2.6 0 4.3 1.9 4.3 4.6h-7.8zm5.2-.7c0-1.6-.8-2.9-2.6-2.9-1.5 0-2.5 1.5-2.6 2.9h5.2zM243.2 392.9c1.1-1.1 2.2-2.4 3.9-2.4 1.4 0 2.6 1 2.8 2.4 1.1-1.3 2.1-2.4 3.9-2.4 2.2 0 3 1.9 3 3.8v5.6c0 1.5.6 1.7 1.7 1.7v.5H253v-.5c1.2 0 1.7-.2 1.7-1.7v-5c0-1.4-.1-3-1.9-3-1.2 0-2.1.7-2.9 1.5v6.4c0 1.5.6 1.7 1.7 1.7v.5h-5.5v-.5c1.2 0 1.7-.2 1.7-1.7v-5c0-1.4 0-3-1.9-3-1.2 0-2.1.7-2.9 1.5v6.4c0 1.5.6 1.7 1.7 1.7v.5h-5.5v-.5c1.2 0 1.7-.2 1.7-1.7v-6.1c0-1.7-.5-1.7-.9-1.7-.3 0-.6.1-.9.2l-.2-.4 3.4-1.4h.6v2.6zM262.9 392.8c.9-1.2 2-2.3 3.6-2.3 1.9 0 4.3 1.7 4.3 5.5 0 4.7-3.7 6.4-5.7 6.4-1.5 0-2.9-.6-4.1-1.4v-13c0-1.7-.5-1.7-.9-1.7-.3 0-.6.1-.9.2l-.2-.4 3.4-1.4h.6v8.1zm0 7.5c.7.7 1.7 1.2 2.6 1.2 1.5 0 3.1-1.7 3.1-4.8 0-2.3-1.2-4.4-3.2-4.4-1 0-1.9.6-2.5 1.3v6.7zM274.4 395.1c0 2.5 1.3 5.3 4 5.3 1.8 0 2.8-1.1 3.4-2.7l.4.3c-.4 2.3-2.1 4.4-4.6 4.4-2.7 0-4.9-2.3-4.9-5.8 0-3.2 1.6-6.1 5.2-6.1 2.6 0 4.3 1.9 4.3 4.6h-7.8zm5.2-.7c0-1.6-.8-2.9-2.6-2.9-1.5 0-2.5 1.5-2.6 2.9h5.2zM287.4 392.9c.6-.9 1.6-2.4 2.9-2.4.8 0 1.6.6 1.6 1.4 0 .6-.5 1.1-1.1 1.1-.8 0-1.2-.8-1.8-.8-.6 0-1.4 1.4-1.6 1.9v4.7c0 2 0 2.8 2.1 2.8v.5h-5.8v-.5c1.2 0 1.7-.2 1.7-1.7v-6.1c0-1.7-.5-1.7-.9-1.7-.3 0-.6.1-.9.2l-.2-.4 3.4-1.4h.6v2.4zM300.1 394.4h-.5c-.4-1.7-1.1-3.1-3-3.1-.9 0-1.9.5-1.9 1.5 0 2.7 6.2 2.4 6.2 6.3 0 2.1-1.9 3.4-3.8 3.4-.7 0-1.5-.2-2.3-.4-.2 0-.5-.1-.6-.1-.2 0-.4.1-.5.3h-.5v-4h.5c.2 1.8 1.6 3.4 3.4 3.4 1 0 1.9-.6 1.9-1.7 0-2.9-5.8-2.5-5.8-6.1 0-2.1 1.5-3.4 3.5-3.4.5 0 .9.1 1.4.3.3.1.6.2.9.2.3 0 .4-.2.5-.5h.5v3.9zM312.8 399.9c0 1.5.6 1.7 1.7 1.7v.5H309v-.5c1.2 0 1.7-.2 1.7-1.7v-5.2c0-2.5-1-2.7-1.8-2.7-1.2 0-2 .8-2.8 1.6v6.3c0 1.5.6 1.7 1.7 1.7v.5h-5.5v-.5c1.2 0 1.7-.2 1.7-1.7V388c0-1.7-.5-1.7-.9-1.7-.3 0-.6.1-.9.2l-.2-.4 3.4-1.4h.6v8.2c1.4-1.6 2.4-2.4 3.8-2.4 2 0 2.8 1.9 2.8 3.8v5.6zM319.6 399.9c0 1.5.6 1.7 1.7 1.7v.5h-5.5v-.5c1.2 0 1.7-.2 1.7-1.7v-6.1c0-1.7-.5-1.7-.9-1.7-.3 0-.6.1-.9.2l-.2-.4 3.4-1.4h.6v9.4zm-1-15.2c.7 0 1.2.6 1.2 1.2s-.6 1.2-1.2 1.2c-.7 0-1.2-.6-1.2-1.2s.5-1.2 1.2-1.2zM324.1 393.8c0-1.7-.5-1.7-.9-1.7-.3 0-.6.1-.9.2l-.2-.4 3.4-1.4h.6v2.6c.7-1.3 1.8-2.6 3.5-2.6 2.9 0 4.2 3 4.2 5.5 0 3.1-1.7 6.4-5.2 6.4-1 0-1.9-.3-2.6-1v3.9c0 1.5.5 1.7 1.9 1.7v.5H322v-.5c1.5 0 1.9-.2 1.9-1.7v-11.5zm2.1 4.8c0 .9 0 1.7.8 2.4.5.5 1.2.7 1.9.7 2.3 0 3-2.7 3-4.5 0-1.8-.7-4.9-3.1-4.9-1.2 0-1.9.9-2.6 1.7v4.6zM357.2 390.8h-.4c-.8-2.8-2.5-4.8-5.6-4.8-3.3 0-5.8 2.6-5.8 8.1 0 5.6 3.3 7.3 6.2 7.3 2.7 0 4-1.3 5.5-3.4l.4.3c-1.5 2.8-3.6 4.3-6.9 4.3-4.8 0-8-3.7-8-8.3 0-4.9 3.4-9 8.5-9 1.3 0 2.4.3 3.5.9.2.1.5.3.7.3.6 0 .9-.6 1-1.2h.4l.5 5.5zM370.5 396.2c0 2.6-1.6 6.2-5.6 6.2-3.2 0-5.3-2.8-5.3-5.8 0-3.1 2.2-6.1 5.4-6.1s5.5 2.7 5.5 5.7zm-8.5-.7c0 2.2.8 6.1 3.6 6.1 2.3 0 2.7-2.6 2.7-4.3 0-2.2-.8-5.9-3.5-5.9-1.3 0-2.8.9-2.8 4.1zM375.8 392.9c.6-.9 1.6-2.4 2.9-2.4.8 0 1.6.6 1.6 1.4 0 .6-.5 1.1-1.1 1.1-.8 0-1.2-.8-1.8-.8-.6 0-1.4 1.4-1.6 1.9v4.7c0 2 0 2.8 2.1 2.8v.5H372v-.5c1.2 0 1.7-.2 1.7-1.7v-6.1c0-1.7-.5-1.7-.9-1.7-.3 0-.6.1-.9.2l-.2-.4 3.4-1.4h.6v2.4z"/><path d="M382.2 393.8c0-1.7-.5-1.7-.9-1.7-.3 0-.6.1-.9.2l-.2-.4 3.4-1.4h.6v2.6c.7-1.3 1.8-2.6 3.5-2.6 2.9 0 4.2 3 4.2 5.5 0 3.1-1.7 6.4-5.2 6.4-1 0-1.9-.3-2.6-1v3.9c0 1.5.5 1.7 1.9 1.7v.5h-5.9v-.5c1.5 0 1.9-.2 1.9-1.7v-11.5zm2 4.8c0 .9 0 1.7.8 2.4.5.5 1.2.7 1.9.7 2.3 0 3-2.7 3-4.5 0-1.8-.7-4.9-3.1-4.9-1.2 0-1.9.9-2.6 1.7v4.6zM404.9 396.2c0 2.6-1.6 6.2-5.6 6.2-3.2 0-5.3-2.8-5.3-5.8 0-3.1 2.2-6.1 5.4-6.1 3.3 0 5.5 2.7 5.5 5.7zm-8.5-.7c0 2.2.8 6.1 3.6 6.1 2.3 0 2.7-2.6 2.7-4.3 0-2.2-.8-5.9-3.5-5.9-1.3 0-2.8.9-2.8 4.1zM410.2 392.9c.6-.9 1.6-2.4 2.9-2.4.8 0 1.6.6 1.6 1.4 0 .6-.5 1.1-1.1 1.1-.8 0-1.2-.8-1.8-.8-.6 0-1.4 1.4-1.6 1.9v4.7c0 2 0 2.8 2.1 2.8v.5h-5.8v-.5c1.2 0 1.7-.2 1.7-1.7v-6.1c0-1.7-.5-1.7-.9-1.7-.3 0-.6.1-.9.2l-.2-.4 3.4-1.4h.6v2.4zM423.9 398.9c0 1.1 0 1.9.6 1.9.4 0 1-.7 1.3-1v.7c-.6.8-1.6 1.8-2.6 1.8-1.1 0-1.4-.9-1.4-1.8-1.1.8-2 1.8-3.5 1.8-1.7 0-2.7-1.3-2.7-2.9 0-2.8 4.2-3.8 6.2-4.7 0-1.9-.1-3.5-2.1-3.5-.8 0-1.7.5-1.7 1.5 0 1.2-.3 1.8-1 1.8s-1-.6-1-1.2c0-.7.7-2.8 4.1-2.8 3.7 0 3.7 2.3 3.7 3v5.4zm-2-3.4c-1.7.7-4.2 1.6-4.2 3.5 0 1 .7 2.1 1.8 2.1.8 0 1.8-.8 2.4-1.2v-4.4zM432.9 390.9v.9h-2.6v6.9c0 1 0 2.2 1.2 2.2.6 0 1.1-.5 1.3-1h.5c-.5 1.2-1.5 2.4-2.9 2.4-.8 0-2.1-.5-2.1-2.7v-7.8h-1.8v-.5c1.4-.6 2.5-1.8 3.4-4.1h.4v3.7h2.6zM438.2 399.9c0 1.5.6 1.7 1.7 1.7v.5h-5.5v-.5c1.2 0 1.7-.2 1.7-1.7v-6.1c0-1.7-.5-1.7-.9-1.7-.3 0-.6.1-.9.2l-.2-.4 3.4-1.4h.6v9.4zm-1-15.2c.7 0 1.2.6 1.2 1.2s-.6 1.2-1.2 1.2-1.2-.6-1.2-1.2.5-1.2 1.2-1.2zM452.6 396.2c0 2.6-1.6 6.2-5.6 6.2-3.2 0-5.3-2.8-5.3-5.8 0-3.1 2.2-6.1 5.4-6.1s5.5 2.7 5.5 5.7zm-8.6-.7c0 2.2.8 6.1 3.6 6.1 2.3 0 2.7-2.6 2.7-4.3 0-2.2-.8-5.9-3.5-5.9-1.3 0-2.8.9-2.8 4.1zM457.8 392.9c1.4-1.6 2.4-2.4 3.8-2.4 2 0 2.8 1.9 2.8 3.8v5.6c0 1.5.6 1.7 1.7 1.7v.5h-5.5v-.5c1.2 0 1.7-.2 1.7-1.7v-5.2c0-2.5-1-2.7-1.8-2.7-1.2 0-2 .8-2.8 1.6v6.3c0 1.5.6 1.7 1.7 1.7v.5h-5.5v-.5c1.2 0 1.7-.2 1.7-1.7v-6.1c0-1.7-.5-1.7-.9-1.7-.3 0-.6.1-.9.2l-.2-.4 3.4-1.4h.6v2.4z"/></g><path d="M196.1 408.7c1.3 0 2.2-1 2.2-2.3 0-1.2-1-2.2-2.2-2.2-1.3 0-2.2 1-2.2 2.3 0 1.2 1 2.2 2.2 2.2zm0-.3c-1.1 0-2-.9-2-2s.9-2 2-2 2 .9 2 2c0 1.2-.8 2-2 2zm-.4-1.9h.1c.5 0 .5.2.6.6.2.6.3.6.7.6h.2v-.1c-.5 0-.4-1-1-1.1.4 0 .7-.3.7-.7 0-.6-.6-.7-1-.7h-1v.1c.1 0 .3 0 .3.2v2c0 .2-.1.2-.3.2v.1h1v-.1c-.3 0-.3 0-.3-.4v-.7zm0-.2v-.9c0-.3 0-.3.3-.3.4 0 .6.1.6.6 0 .6-.4.6-.9.6z" style="fill-rule:evenodd;clip-rule:evenodd"/><g><path class="st1" d="M197.1 367.9c-5.2 0-10.2.4-14.4 3.2-3.7-1-8.2-1.2-11.8 0-2.6.8-5.1 1.9-7.6 3l-.1-.1-.1-2.1v-.1l-19.3 7.7h-.1c0-1.2.2-2.4.5-3.6.2-.1 0-.2 0-.4 1.8-8.3 7.9-16.3 16.1-19.8 8.4-4.1 20.1-3.1 27.7 2.3 3.7 2.5 7 6 9.1 9.9z"/><path class="st1" d="M197.6 368.9c-.6.3-1.3.3-2 .5-3 .6-5.8 1.7-8.3 3.7-5.1-.9-9.9.3-14.1 2.6l-9.9 5.2c0 .1-.1 0-.1 0 0-.6 0-1.2-.1-1.8l-.1-.1-8.1 3.4c-3.6 1.6-7.2 3.2-10.9 4.6-.4-2-.6-4.1-.5-6.2l.8-.3 14.4-4h.2c.1.9 0 1.6.1 2.5l.1.1 13.8-6c3.5-1.6 8.1-1.6 12-.6h.1c3.5-2.9 7.7-3.6 12.2-3.8l.4.2zM198.3 370.2c-2 1-4.3 2.1-5.6 4.2-.7-.1-1.5-.3-2.3-.5-.1-.2.2-.5.3-.7 2-2.1 4.6-2.8 7.2-3.5.2.1.3.3.4.5z"/><path class="st1" d="M199.2 372.4c-.9 1.2-1.8 2.5-2.1 4-2.3-.3-4.8-.7-7.2-.7-7.1-.4-12.7 3.7-18.3 7.3l-8 5.5c0 .1-.1 0-.1 0-.1-.8 0-1.6-.1-2.3l-.3.1-16.5 7.7c-.9-1.8-1.7-3.8-2.1-5.8l14.8-4.5h.1l.1 2.7c.2.1.3-.1.5-.1l14.5-8.1c4.5-2.4 9.2-4.6 14.7-3.8 2.1.2 4 .7 5.9 1.2.3-.5.5-1 .8-1.5.7-1.1 1.8-2.1 3-2.7.1.2.1.7.3 1z"/><path class="st1" d="M200.6 378.5c-3.2-.5-6.8-.8-9.9.1-5.6 1.7-10.4 5.9-15 9.8-2 1.8-4.1 3.8-5.9 5.6-.1.1-.1.4 0 .5l.3.2h4.6c.4 0 .8-.3 1.1-.7 4.5-5 9.5-10.4 15.5-13.5 2.8-1.3 6.1-1.8 9.4-1.2.2.1.1.4.1.5-4.8.3-8.9 2.9-12.2 6.4-2.3 2.4-4 5.1-5.7 7.8-.1.2 0 .4.2.5 1.4.1 2.9 0 4.4 0 .4-.1.7-.5.9-.8 2.4-4.5 5.2-9.5 10.1-12.2.7-.4 1.5-.6 2.3-.8l.1.1c.3 11.3-6 21.6-16.2 26.4-6.5 3.3-15.6 3.7-22.6.9-6.2-2.3-11.8-7.2-15-13.3l.2-.1 12-3.7.1.1c0 1.2 0 2.4.1 3.5l8.7-5.9 9.9-6.7c4.9-3 9.9-6 16.1-5.4 1.7.1 3.4.5 5.1.7.2-.5.2-1.1.4-1.7l.3-.9c.3 1.4.5 2.6.6 3.8z"/></g><g><path d="M304.9 415.3c-.1-.2-.2-.4-.4-.4h-2.1c-.2 0-.3 0-.4.2l-.6 1.3c0 .1-.1.2-.1.3 0 .7.7.4.7.6 0 .2-.1.1-.3.1h-1.6c-.1 0-.1 0-.1-.1 0-.2.4 0 .7-.6l2.2-4.8c.6-1.2.6-1.3.7-1.3.1 0 .2.3.2.3l2 4.8c.1.3.3.7.5 1.1.3.4.8.2.8.5 0 .1-.1.1-.1.1h-2c-.1 0-.2 0-.2-.1 0-.2.6-.1.6-.5 0-.2-.2-.6-.3-.9l-.2-.6zm-2.6-.9c-.1.1 0 .2.1.2h1.9c.2 0 .2-.1.2-.2l-.9-2.3c0-.1-.1-.1-.2 0l-1.1 2.3zM312.6 411.9c0-.1 0-.4-.1-.4H311c-.6 0-.6.1-.8.7 0 .1 0 .2-.2.2-.1 0-.1-.1-.1-.1l.1-.9c0-.1 0-.4.2-.4h5.5c.2 0 .3.1.3.3v.8c0 .1 0 .2-.1.2-.3 0 .2-.7-.8-.7h-1.3c-.4 0-.4 0-.4.5v4.8c0 .8.8.5.8.8 0 0 0 .1-.1.1H312c-.1 0-.1 0-.1-.1 0-.2.7-.1.7-.7v-5.1zM315.5 415.7c0-1.2.9-2.1 2.1-2.1.7 0 2 .3 2 2.1 0 1.2-.9 2-2 2-1.2 0-2.1-.8-2.1-2zm3.5.1c0-1-.4-2-1.5-2-.9 0-1.3.8-1.3 1.6 0 .9.4 2.1 1.5 2.1.8 0 1.3-.6 1.3-1.7zM323.4 414.2c0-.4-.5-.1-.5-.4 0-.1.1-.1.2-.1.3 0 .4 0 .5-.1h.3s.2 0 .2.2v3.3c0 .2.6.1.6.3 0 .1-.2.1-.3.1h-.5c-.1 0-.2.1-.3.1-.1 0-.1-.1-.1-.1v-.5c-.3.4-.8.7-1.3.7-.8 0-1.4-.5-1.4-1.3v-2.2c0-.4-.5-.1-.5-.4 0-.1.1-.1.2-.1.3 0 .4 0 .5-.1h.3s.2 0 .2.2v2.4c0 1 .8 1.1.9 1.1.5 0 1-.4 1-.7v-2.4zM325.2 415.7c0-1.2.9-2.1 2.1-2.1.5 0 1.1.1 1.1.3v.6c0 .1 0 .2-.1.2s-.2-.2-.2-.2c-.3-.4-.7-.6-1.2-.6-.8 0-1.1.8-1.1 1.5 0 1 .6 1.9 1.7 1.9.7 0 1.1-.5 1.3-.5 0 0 .1 0 .1.1 0 .2-.6 1-1.9 1-1-.2-1.8-1.2-1.8-2.2zM330.7 414.2c.4-.3.8-.7 1.4-.7 1.2 0 1.6 1 1.6 1.9v1.6c0 .5.8.3.8.5 0 .1-.1.1-.2.1h-1.6c-.1 0-.2 0-.2-.1s.5-.1.5-.5v-1.7c0-1.2-.8-1.4-1.1-1.4-.4 0-1.1.4-1.1.8v2c0 .8.8.5.8.7 0 .1 0 .1-.2.1h-1.9c-.1 0-.1 0-.1-.1 0-.2.6-.1.6-.5v-5.3c0-.6-.7-.3-.7-.5 0-.1 0-.1.1-.1.7-.1 1-.5 1.2-.5.1 0 .1.1.1.2v3.5zM335 414.6c0-.8.6-1.1 1.3-1.1.2 0 .8.1.9.2.1.1 0 .4 0 .5 0 .3 0 .4-.1.4s-.2-.8-1-.8c-.4 0-.7.2-.7.6 0 .3.2.5 1.2.9.5.2.8.5.8 1.1 0 .7-.6 1.3-1.3 1.3-.7 0-.8-.3-1.1-.3-.2 0-.2 0-.2-.8 0-.2 0-.5.1-.5.2 0 .1 1.2 1.1 1.2.5 0 .8-.3.8-.8s-.5-.6-.9-.8c-.3-.1-.9-.4-.9-1.1zM338.6 414c-.4 0-.5 0-.5-.1s.2-.2.7-.8c.2-.2.3-.4.4-.4.1 0 .1.2.1.9h1c.2 0 .3-.2.4-.2 0 0 .1 0 .1.1 0 0 0 .1-.1.1l-.2.3h-1.2v2.7c0 .4.3.6.7.6.5 0 .6-.2.8-.2 0 0 .1 0 .1.1s-.5.5-1.2.5c-.4 0-1.1-.1-1.1-1.1V414zM341.4 415.7c0-1.2.9-2.1 2.1-2.1.7 0 2 .3 2 2.1 0 1.2-.9 2-2 2-1.2 0-2.1-.8-2.1-2zm3.5.1c0-1-.4-2-1.5-2-.9 0-1.3.8-1.3 1.6 0 .9.4 2.1 1.5 2.1.8 0 1.3-.6 1.3-1.7zM347.4 416.8c0 .6.8.4.8.6 0 .1-.1.1-.2.1H346.3c-.1 0-.2 0-.2-.1 0-.2.6 0 .6-.6v-2.3c0-.6-.7-.3-.7-.5 0-.1 0-.1.1-.1.8-.2 1-.5 1.2-.5.1 0 .1.1.1.2v.6c0 .1.5-.7 1.4-.7 1.3 0 1.5 1 1.5 1.8v1.6c0 .6.7.4.7.6 0 .1-.1.1-.2.1h-1.5c-.1 0-.2 0-.2-.1 0-.2.4 0 .4-.6v-1.8c0-.5-.3-1.2-1.1-1.2s-1.1.6-1.1.7v2.2zM352.3 415.2c0 1.6.9 2 1.5 2 .8 0 1.1-.5 1.3-.5v.1c0 .2-.8.9-1.7.9-1.4 0-1.9-1.3-1.9-1.9 0-1.2.7-2.2 1.8-2.2 1.2 0 1.7 1.1 1.7 1.5 0 .2-.1.2-.3.2h-2.4zm1.8-.3c.1 0 .2 0 .2-.2 0-.5-.5-1-1-1-.6 0-1 .7-1 1.2h1.8zM359.8 413.7c0 .3 0 .3.4.3h1c1 0 .7-.8.9-.8.1 0 .1.1.1.2v1.6c0 .1 0 .1-.1.1-.3 0 0-.8-.8-.8H360c-.2 0-.2.2-.2.3v1.7c0 .6-.1.8.7.8 2.2 0 2.5-1 2.6-1 .1 0 .1.1.1.1 0 .3-.2.7-.5.9-.3.3-.5.3-.9.3-.7 0-1.4-.1-2.1 0h-1.1c-.1 0-.1 0-.1-.1s.1-.1.4-.2c.2-.1.3-.4.3-.8V412c0-.4 0-.9-.5-.9-.1 0-.3 0-.3-.2 0-.1.1-.1.3-.1h4c.1 0 .1.1.1.2 0 1-.1 1.1-.2 1.1-.2 0-.1-.5-.2-.7-.2-.3-1.2-.3-1.6-.3-.9 0-.9 0-.9.6v2zM365 416.8c0 .6.8.4.8.6 0 .1-.1.1-.2.1H363.9c-.1 0-.2 0-.2-.1 0-.2.6 0 .6-.6v-2.3c0-.6-.7-.3-.7-.5 0-.1 0-.1.1-.1.8-.2 1-.5 1.2-.5.1 0 .1.1.1.2v.6c0 .1.5-.7 1.4-.7 1.3 0 1.5 1 1.5 1.8v1.6c0 .6.7.4.7.6 0 .1-.1.1-.2.1h-1.5c-.1 0-.2 0-.2-.1 0-.2.4 0 .4-.6v-1.8c0-.5-.3-1.2-1.1-1.2s-1.1.6-1.1.7v2.2zM369.8 415.2c0 1.6.9 2 1.5 2 .8 0 1.1-.5 1.3-.5v.1c0 .2-.8.9-1.7.9-1.4 0-1.9-1.3-1.9-1.9 0-1.2.7-2.2 1.8-2.2 1.2 0 1.7 1.1 1.7 1.5 0 .2-.1.2-.3.2h-2.4zm1.8-.3c.1 0 .2 0 .2-.2 0-.5-.5-1-1-1-.6 0-1 .7-1 1.2h1.8zM374.6 416.8c0 .9.8.4.8.7 0 .1 0 .1-.2.1h-1.8c-.1 0-.1 0-.1-.1 0-.2.5-.2.5-.5v-2.4c0-.6-.7-.3-.7-.5 0-.1.1-.1.1-.1.7-.2.9-.5 1.1-.5.1 0 .1.1.1.2v.7c.2-.3.5-.8.9-.8.2 0 .6.2.6.4 0 .1-.2.4-.3.4-.2 0-.3-.2-.6-.2-.4 0-.6.4-.6.6v2zM379.7 413.9c.5 0 .5-.6.6-.6.1 0 .1.1.1.2 0 .7-.1.8-.5 1 0 .2.1.3.1.5 0 .9-.7 1.4-1.6 1.4-.5 0-.5-.1-.6-.1-.2 0-.5.3-.5.5 0 .1-.1.5 1.1.5.8 0 1.9-.1 1.9.8 0 .6-.5 1.4-2.1 1.4-.6 0-1.6-.2-1.6-1 0-.4.4-.7.7-.8-.3-.1-.4-.4-.4-.7 0-.4.5-.8.5-.8-.4-.2-.6-.7-.6-1.2 0-.9.7-1.5 1.5-1.5s1.1.4 1.4.4zm-1.5 5.3c1.3 0 1.6-.6 1.6-.9 0-.4-.3-.4-1.3-.4-.8 0-.9-.1-1-.1-.3 0-.5.4-.5.7.1.6.7.7 1.2.7zm.2-5.5c-.7 0-.9.5-.9 1.2 0 .6.3 1.3 1 1.3s.9-.5.9-1.1c-.1-.7-.3-1.4-1-1.4zM382.4 419.4h-.3c-.1 0-.3 0-.3-.1 0-.2.9-.9.9-1.6 0-.2-.1-.4-.2-.6l-1.2-3c-.1-.2-.4-.2-.4-.3 0-.1.1-.1.2-.1h1.4c.1 0 .2 0 .2.1 0 .2-.5 0-.5.4v.2l1 2.6.7-2.1c.1-.3.1-.4.1-.5 0-.5-.6-.4-.6-.6 0-.1.1-.1.3-.1h1c.1 0 .2 0 .2.1 0 .2-.3 0-.5.5l-2 5.1zM385 413.3c0-.9.7-1.7 1.7-1.7.9 0 1.7.7 1.7 1.7s-.7 1.7-1.7 1.7c-.9-.1-1.7-.8-1.7-1.7zm3.2 0c0-.8-.7-1.5-1.5-1.5-.9 0-1.5.7-1.5 1.5s.7 1.5 1.5 1.5c.9 0 1.5-.7 1.5-1.5zm-1.8.5c0 .3 0 .3.2.3v.1h-.8v-.1c.2 0 .2 0 .2-.1v-1.5c0-.1-.1-.1-.2-.1v-.1h.8c.3 0 .8 0 .8.5 0 .3-.3.5-.5.5.4.1.4.9.8.9v.1h-.1c-.3 0-.4 0-.5-.4-.1-.3-.1-.5-.5-.5h-.1v.4zm.1-.6c.3 0 .6 0 .6-.4 0-.3-.2-.4-.5-.4-.2 0-.2 0-.2.2l.1.6zM394.6 410.8c1.8 0 2.3.7 2.5.7.1 0 .1-.1.2-.1s.1.2.1.8c0 .5.1.8-.1.8-.1 0-.2-.2-.2-.3-.6-1-1.3-1.6-2.5-1.6-1.8 0-2.7 1.2-2.7 3 0 1.6.9 3.3 2.7 3.3 1.5 0 2.4-.9 2.5-1.4 0-.1.1-.1.1-.1l.1.1-.2.9s-.7.7-2.8.7c-1.9 0-3.3-1.3-3.3-3.3s1.6-3.5 3.6-3.5zM398.2 415.7c0-1.2.9-2.1 2.1-2.1.7 0 2 .3 2 2.1 0 1.2-.9 2-2 2-1.2 0-2.1-.8-2.1-2zm3.5.1c0-1-.4-2-1.5-2-.9 0-1.3.8-1.3 1.6 0 .9.4 2.1 1.5 2.1.8 0 1.3-.6 1.3-1.7zM403 415.7c0-1.2.9-2.1 2.1-2.1.7 0 2 .3 2 2.1 0 1.2-.9 2-2 2-1.2 0-2.1-.8-2.1-2zm3.5.1c0-1-.4-2-1.5-2-.9 0-1.3.8-1.3 1.6 0 .9.4 2.1 1.5 2.1.8 0 1.3-.6 1.3-1.7zM409 418.8c0 .6.9.4.9.6 0 .1-.1.1-.2.1H408c-.1 0-.1 0-.1-.1 0-.2.5-.1.5-.7v-4.2c0-.6-.6-.3-.6-.5 0-.1 0-.1.1-.1.7-.2.9-.5 1.1-.5.1 0 .1.1.1.2v.5c.6-.5 1-.6 1.3-.6 1.1 0 1.7.9 1.7 1.9 0 .9-.5 2.2-2 2.2-.3 0-.7-.1-1-.3v1.5zm0-2.2c0 .5.6.9 1.2.9.9 0 1.2-.8 1.2-1.6 0-.9-.4-1.9-1.4-1.9-1 0-1 .7-1 .7v1.9zM413.4 415.2c0 1.6.9 2 1.5 2 .8 0 1.1-.5 1.3-.5v.1c0 .2-.8.9-1.7.9-1.4 0-1.9-1.3-1.9-1.9 0-1.2.7-2.2 1.8-2.2 1.2 0 1.7 1.1 1.7 1.5 0 .2-.1.2-.3.2h-2.4zm1.9-.3c.1 0 .2 0 .2-.2 0-.5-.5-1-1-1-.6 0-1 .7-1 1.2h1.8zM418.3 416.8c0 .9.8.4.8.7 0 .1 0 .1-.2.1h-1.8c-.1 0-.1 0-.1-.1 0-.2.5-.2.5-.5v-2.4c0-.6-.7-.3-.7-.5 0-.1.1-.1.1-.1.7-.2.9-.5 1.1-.5.1 0 .1.1.1.2v.7c.2-.3.5-.8.9-.8.2 0 .6.2.6.4 0 .1-.2.4-.3.4-.2 0-.3-.2-.6-.2-.4 0-.6.4-.6.6v2zM422.7 414.6c0-.5-.4-.8-1-.8-.5 0-.8 0-.8.6 0 .1.1.3.1.4 0 .1 0 .2-.2.2s-.4-.1-.4-.3c0-.4.5-1.1 1.6-1.1.6 0 1.5.2 1.5 1v1.9c0 .3-.1.9.4.9h.2s.1 0 .1.1c0 .2-.4.2-.5.2-.4 0-.6-.2-.7-.5-.4.3-.9.5-1.4.5-.6 0-1-.2-1-.9 0-.5.2-1.1 2.4-1.5v-.7zm0 .9c-.6.1-1.7.3-1.7 1.1 0 .5.3.7.8.7.3 0 1-.3 1-.8v-1zM425.1 414c-.4 0-.5 0-.5-.1s.2-.2.7-.8c.2-.2.3-.4.4-.4.1 0 .1.2.1.9h1c.2 0 .3-.2.4-.2 0 0 .1 0 .1.1 0 0 0 .1-.1.1l-.2.4h-1.2v2.7c0 .4.3.6.7.6.5 0 .6-.2.8-.2 0 0 .1 0 .1.1s-.5.5-1.2.5c-.4 0-1.1-.1-1.1-1.1V414zM428.6 414.5c0-.6-.5-.3-.5-.5 0-.1 0-.1.1-.1.6-.2.8-.5 1-.5.1 0 .1.1.1.2v3.4c0 .5.7.3.7.5 0 .1-.1.1-.2.1h-1.5c-.1 0-.1 0-.1-.1 0-.2.4.1.4-.7v-2.3zm.7-2.4c0 .1-.3.5-.4.5-.1 0-.4-.4-.4-.5 0-.1.3-.5.4-.5.1 0 .4.4.4.5zM432.8 416.8l.6-1.4c.2-.4.4-.8.4-1.2 0-.5-.6-.3-.6-.5 0-.1.1-.1.2-.1h1.1c.1 0 .3 0 .3.1s-.3.1-.5.3l-1.4 3c-.2.4-.2.5-.3.5-.1 0-.2-.2-.2-.2l-1.4-3.2c-.2-.4-.5-.3-.5-.5 0-.1 0-.1.2-.1h1.4c.1 0 .2 0 .2.1 0 .2-.5.1-.5.3 0 0 0 .2.2.5l.8 2.4zM436.1 415.2c0 1.6.9 2 1.5 2 .8 0 1.1-.5 1.3-.5v.1c0 .2-.8.9-1.7.9-1.4 0-1.9-1.3-1.9-1.9 0-1.2.7-2.2 1.8-2.2 1.2 0 1.7 1.1 1.7 1.5 0 .2-.1.2-.3.2h-2.4zm1.9-.3c.1 0 .2 0 .2-.2 0-.5-.5-1-1-1-.6 0-1 .7-1 1.2h1.8z"/><path d="M457.6 410c-.6 0-2.1-.7-2.7-.4l-.5.8c0 .4.1.5.1 1.1-.5 1.4.6 1.7-.3 3.1.2.2 0 1.2 0 1.4-.1 0-.3.4-.4.3-.3-1-.3-2.6-.5-4l-.2-.1c-.1.6-.2 1.3-.2 1.7.5.8-.2 1.8-.4 2h-.1c-.3-1.1-.1-2.3-.4-3.4-.1-.5.2-1.2.2-1.8 0-.3-.2-.6-.3-.9 0-.9-.6-.5-1-.2-.6.2-.8-.4-1.6.5 0-.1-.5-.3-.7-.3.6-.4 1.4-1.1 2.1-1.1.7-.6 1.7-.6 2.6-.7 0-.4.1.4-.3-.3 0 0-.3.1-.3 0-.1-.4 0-.7-.1-.9.2-.7.8-.3.9-.6l.3.1c.2.4.2 1-.4 1.4l-.1.3c.6.3.9-.3 1.7.4.5.2.7.3 1 .8.9-.3 1.5.6 2 .6l-.4.2z" style="fill:#005a9c"/><path class="st3" d="M464.1 412.3c-.1 0-.1.2-.2.1v.5c-.5-.1-1.3.5-1.4-.3.1-.5.4-.7.9-1 .3.2.8.2.7.7z"/><path class="st3" d="M457.2 414.9c1.2-.1.6-.6 2-1.2.5 0 1.1-1.1 1.1-1.1s-.1-.3-.4-.6c-.8-.6-.3-.2-.8-.9-.1-.5-1.1-1-1.2-1.1.8-.7.8.4 1.5.3.6.6 1.5.9 1.9 1.2 1.2.5.7 1.1 1.5 1.1 0 .5-.3.5.1 1 .4.3.3 1 .4 1.7.2.6.8 2.8.4 2.7-.3-.3-.7-1.1-.7-1.7-1.5-.7-.2-2.6-2.1-1l-.3.5c-.6.9-1.2 1.1-2.1 1.5-.3-.1-.5.3-.7.4-.7.3-.7-.1-1.3.3-.2-.9.8-1.1 1.3-1.5 1.2-.2.7-.5 1.3-.7.7-.9.1-.6-.1-.5l-1.5.6c-1.2.4-1.7.8-1.7.8h-.5c.8-1.9 1.3-1 1.9-1.8z"/><path class="st4" d="M448.4 409.9c-.1-.1-.5.2-.9.7-.1.5-.9 1.1-1.2 1.4-.2 1.1 1.5 1.4 1.6 1.6l1.7 1c1.1 1.3.5.6 1.6 2 .1.2 0 .4-.2.4h-.4c0-.3-.4-.5-.7-.6v-.1c-.2 0 .1.1-1.1-.4.2-.7-1.1-.8-1.3-.8.4 1.1 1.6 2 2.5 2.9l-.2.4c-1.9-.2-1.7-1-3.1-1.4-.2-.3-.5-.9-.9-1.1.2-.9-1.1-.6-1.2-.8-.7-.7-.5 1-.9 1.1-.4.5-.5.9-.6 1.6-.2.2-.2.5-.6.5.1-.9-.1-1.1.1-1.7v-.3c-.1-.6.2-.7.1-.7.4-.4.4-1 .3-1.3.3-.2.9-1.2.6-1.5 1.1 0 1.4-1.6 2.5-1.8.7-.7 1.2-1.2 2.1-1.2l.2.1z"/><path class="st4" d="M443.4 412.6c-.2-.2-.6.1-.8-.2-.1-.2-.2-.4-.2-.6.2-.2.2-.7.8-.7l.2.1c.3-.3.2.3.5.3.3.4.3 1.4-.5 1.1z"/><path class="st1" d="M456.4 419.4c1.7 0 3.2.4 4.7 1v.2c-.3.1-.7 0-1-.1-3.5-.5-7.2-1-10.7 0-1.9-.3-2.9 1.2-3.3.6 0-.1 0-.3-.1-.3h-.5c.5-.9 1.7-.4 2.7-1.2.1.2.4 0 .5-.1 2.6-.4 4.8-.8 7.7-.1z"/></g></svg>