<svg version="1.1" id="Layer_1" xmlns="http://www.w3.org/2000/svg" x="0" y="0" width="792" height="612" style="enable-background:new 0 0 792 612" xml:space="preserve"><style>.st0{fill:#fff}</style><path d="M27.9 35.4h-2.3v-6.9h-1.9v-2h6.1v2h-1.9v6.9zM34.2 35.4h-2.3v-6.9H30v-2h6.1v2h-1.9v6.9zM44.6 26.5v5c0 1.1 0 2.3-.9 3.1-.7.7-1.9 1-2.9 1s-2.2-.3-2.9-1c-.9-.9-.9-2-.9-3.1v-5h2.3v4.7c0 1.2.1 2.4 1.6 2.4s1.6-1.3 1.6-2.4v-4.7h2.1zM57.5 35.4h-2.9L52.5 32v3.4h-2.3v-8.9h3.5c1.8 0 3.1.8 3.1 2.7 0 1.2-.7 2.3-1.9 2.5l2.6 3.7zm-5-4.9h.2c.8 0 1.6-.1 1.6-1.1s-.8-1.1-1.6-1.1h-.2v2.2zM60.5 28.5V30h2.6v2h-2.6v1.5h2.7v2h-5.1v-8.9h5.1v2h-2.7zM71 29.5c-.5-.6-1.2-1-2-1-1.4 0-2.4 1.1-2.4 2.5s1 2.4 2.4 2.4c.8 0 1.5-.4 2-.9v2.8c-.8.2-1.3.4-2 .4-1.2 0-2.4-.5-3.3-1.3-1-.9-1.4-2-1.4-3.4 0-1.2.5-2.4 1.3-3.3.9-.9 2.1-1.4 3.4-1.4.7 0 1.4.2 2.1.4v2.8zM81.3 28.8c-.4-.4-1-.6-1.5-.6-.4 0-1 .2-1 .7 0 .5.6.7 1 .8l.6.2c1.2.4 2.2 1 2.2 2.4 0 .9-.2 1.8-.9 2.4-.7.6-1.6.8-2.5.8-1.1 0-2.2-.4-3.1-1l1-1.9c.6.5 1.3.9 2 .9.5 0 1.1-.3 1.1-.9 0-.6-.9-.9-1.4-1-1.4-.4-2.4-.8-2.4-2.5 0-1.8 1.3-3 3.1-3 .9 0 2 .3 2.8.7l-1 2zM83.7 26.5h3.5c1.9 0 3.2.9 3.2 2.9 0 2.1-1.1 3-3.1 3H86v2.9h-2.3v-8.8zm2.3 4.1h.4c.8 0 1.7 0 1.7-1.1s-.8-1.1-1.7-1.1H86v2.2zM100.9 30.8c0 2.9-2.1 4.9-4.9 4.9-2.9 0-4.9-2-4.9-4.9 0-2.7 2.4-4.6 4.9-4.6 2.5 0 4.9 1.9 4.9 4.6zm-7.5 0c0 1.5 1.1 2.7 2.5 2.7s2.5-1.1 2.5-2.7c0-1.2-1.1-2.3-2.5-2.3-1.3 0-2.5 1.1-2.5 2.3zM109.3 35.4h-2.9l-2.2-3.4v3.4h-2.3v-8.9h3.5c1.8 0 3.1.8 3.1 2.7 0 1.2-.7 2.3-1.9 2.5l2.7 3.7zm-5.1-4.9h.2c.8 0 1.6-.1 1.6-1.1s-.8-1.1-1.6-1.1h-.2v2.2zM113.5 35.4h-2.3v-6.9h-1.9v-2h6.1v2h-1.9v6.9zM121.1 28.8c-.4-.4-1-.6-1.5-.6-.4 0-1 .2-1 .7 0 .5.6.7 1 .8l.6.2c1.2.4 2.2 1 2.2 2.4 0 .9-.2 1.8-.9 2.4-.7.6-1.6.8-2.5.8-1.1 0-2.2-.4-3.1-1l1-1.9c.6.5 1.3.9 2 .9.5 0 1.1-.3 1.1-.9 0-.6-.9-.9-1.4-1-1.4-.4-2.4-.8-2.4-2.5 0-1.8 1.3-3 3.1-3 .9 0 2 .3 2.8.7l-1 2zM127.5 26.5h3.5c1.9 0 3.2.9 3.2 2.9 0 2.1-1.1 3-3.1 3h-1.3v2.9h-2.3v-8.8zm2.3 4.1h.4c.8 0 1.7 0 1.7-1.1s-.8-1.1-1.7-1.1h-.4v2.2zM136.7 33.9l-.6 1.5h-2.5l3.4-8.9h2.5l3.3 8.9h-2.5l-.6-1.5h-3zm1.6-4.6-1 2.8h1.9l-.9-2.8zM143.6 26.5h3.3c2.5 0 4.5 1.9 4.5 4.4 0 2.5-2 4.4-4.5 4.4h-3.3v-8.8zm2.3 6.9h.5c1.4 0 2.6-.8 2.6-2.5 0-1.6-1-2.5-2.5-2.5h-.5v5zM154.8 28.5V30h2.5v2h-2.5v3.5h-2.3v-8.9h5.1v2h-2.8zM168.3 30.8c0 2.9-2.1 4.9-4.9 4.9-2.9 0-4.9-2-4.9-4.9 0-2.7 2.4-4.6 4.9-4.6 2.5 0 4.9 1.9 4.9 4.6zm-7.5 0c0 1.5 1.1 2.7 2.5 2.7s2.5-1.1 2.5-2.7c0-1.2-1.1-2.3-2.5-2.3-1.3 0-2.5 1.1-2.5 2.3zM171.6 33.4h2.8v2h-5.1v-8.9h2.3v6.9zM177.5 35.4h-2.3v-8.9h2.3v8.9zM188.3 30.8c0 2.9-2.1 4.9-4.9 4.9-2.9 0-4.9-2-4.9-4.9 0-2.7 2.4-4.6 4.9-4.6 2.6 0 4.9 1.9 4.9 4.6zm-7.4 0c0 1.5 1.1 2.7 2.5 2.7s2.5-1.1 2.5-2.7c0-1.2-1.1-2.3-2.5-2.3-1.3 0-2.5 1.1-2.5 2.3zM194.3 28.8c-.4-.4-1-.6-1.5-.6-.4 0-1 .2-1 .7 0 .5.6.7 1 .8l.6.2c1.2.4 2.2 1 2.2 2.4 0 .9-.2 1.8-.9 2.4-.7.6-1.6.8-2.5.8-1.1 0-2.2-.4-3.1-1l1-1.9c.6.5 1.3.9 2 .9.5 0 1.1-.3 1.1-.9 0-.6-.9-.9-1.4-1-1.4-.4-2.4-.8-2.4-2.5 0-1.8 1.3-3 3.1-3 .9 0 2 .3 2.8.7l-1 2zM200.8 29.1c.1-.9.5-1.6 1-2.1.6-.5 1.4-.8 2.3-.8 1.6 0 2.8.9 2.8 2.6 0 .7-.3 1.5-.9 1.8.9.2 1.4 1.3 1.4 2.2 0 1.9-1.7 2.9-3.5 2.9-1 0-1.9-.3-2.7-1-.5-.5-1-1.5-1-2.2h2.4c0 .7.5 1.3 1.2 1.3s1.2-.5 1.2-1.2-.6-1.2-1.2-1.2c-.1 0-.3 0-.4.1V30h.2c.6 0 1-.4 1-1 0-.5-.4-.9-.9-.9-.6 0-1 .4-.9 1h-2zM211.6 28.5l-.2 1 .7-.1c1.8-.1 3.1 1.3 3.1 3.2 0 .9-.4 1.8-1.1 2.4-.7.6-1.7.7-2.6.7-1 0-2-.2-2.9-.8l.3-2.2c.7.6 1.6 1 2.5 1 .7 0 1.4-.5 1.4-1.3 0-1.1-1-1.5-1.9-1.5-.6 0-1.2.1-1.7.4l.8-4.8h4.6v2h-3zM217 28.5v-2h7.3l-5.1 8.9h-2.5l4.1-6.9H217zM231.8 33.4v2h-7.1l3.6-3.9c.5-.6 1-1.4 1-2.2 0-.6-.4-1.2-1-1.2s-1 .5-1 1.1v.4h-2.5c.1-2 1.4-3.4 3.5-3.4 1.9 0 3.4 1.2 3.4 3.2 0 1.3-.5 2-1.4 2.8l-1.4 1.3h2.9zM238.5 26.5l-2.5 3c.4-.2.8-.3 1.2-.3 1.7 0 2.9 1.5 2.9 3.1 0 2.2-1.8 3.4-3.8 3.4-.9 0-1.8-.2-2.5-.8-.7-.6-1.2-1.5-1.2-2.4 0-1.3.7-2.5 1.4-3.5l1.9-2.5h2.6zm-.8 6c0-.8-.6-1.4-1.4-1.4-.8 0-1.5.6-1.5 1.4 0 .8.7 1.5 1.5 1.5.8-.1 1.4-.7 1.4-1.5zM27.2 46.6l-.2 1 .7-.1c1.8-.1 3.1 1.3 3.1 3.2 0 .9-.4 1.8-1.1 2.4-.7.6-1.7.7-2.6.7-1 0-2-.2-2.9-.8l.3-2.2c.7.6 1.6 1 2.5 1 .7 0 1.4-.5 1.4-1.3 0-1.1-1-1.5-1.9-1.5-.6 0-1.2.1-1.7.4l.8-4.8h4.6v2h-3zM35.9 44.6l-2.2 3.9h-1.4l1.5-3.9h2.1zm3 0-2.2 3.9h-1.4l1.5-3.9h2.1zM47 50.4l1.9-5.7h1.8l1.7 5.7 1.7-5.7h2.4l-2.8 8.9h-2.4l-1.6-5.1-1.7 5h-2.3L43 44.6h2.4l1.6 5.8zM60.9 44.6h2.8l1.4 2.3 1.4-2.3h2.8l-2.8 4.1 3.3 4.7H67l-1.9-2.9-2 2.9h-2.8l3.5-4.7-2.9-4.1zM74.6 46.6v-2h7.3l-5.1 8.9h-2.5l4.1-6.9h-3.8zM86 44.6l-2.2 3.9h-1.4l1.5-3.9H86zm3 0-2.2 3.9h-1.4l1.5-3.9H89zM99.6 48v-3.4h2.3v8.9h-2.3v-3.6h-3.3v3.6H94v-8.9h2.3V48h3.3zM24.4 71.6v-8.9h3.3c1.6 0 2.6.6 2.6 2.3 0 .8-.3 1.4-1 1.8 1.3.2 1.8 1 1.8 2.3 0 1.9-1.6 2.5-3.2 2.5h-3.5zm2.3-5.4h.3c.6 0 1.2-.1 1.2-.9s-.7-.9-1.3-.9h-.2v1.8zm0 3.6h.3c.7 0 1.8 0 1.8-.9 0-1.1-1.1-1-1.9-1h-.2v1.9zM34.7 69.6h2.8v2h-5.1v-8.9h2.3v6.9z"/><path d="m40.5 70.1-.6 1.5h-2.5l3.4-8.9h2.5l3.3 8.9h-2.5l-.6-1.5h-3zm1.6-4.6-1 2.8H43l-.9-2.8zM53.7 65.7c-.5-.6-1.2-1-2-1-1.4 0-2.4 1.1-2.4 2.5s1 2.4 2.4 2.4c.8 0 1.5-.4 2-.9v2.8c-.8.2-1.3.4-2 .4-1.2 0-2.4-.5-3.3-1.3-1-.9-1.4-2-1.4-3.4 0-1.2.5-2.4 1.3-3.3.9-.9 2.1-1.4 3.4-1.4.7 0 1.4.2 2.1.4v2.8zM60.3 62.7h2.9l-3.5 4.2 3.9 4.7h-3l-3-3.9v3.9h-2.3v-8.9h2.3v3.7l2.7-3.7zM68.1 62.7h3.5c1.9 0 3.2.9 3.2 2.9 0 2.1-1.1 3-3.1 3h-1.3v2.9h-2.3v-8.8zm2.3 4.1h.4c.8 0 1.7 0 1.7-1.1s-.8-1.1-1.7-1.1h-.4v2.2zM77.3 70.1l-.6 1.5h-2.5l3.4-8.9h2.5l3.3 8.9h-2.5l-.6-1.5h-3zm1.6-4.6-1 2.8h1.9l-.9-2.8zM84.2 62.7h3.3c2.5 0 4.5 1.9 4.5 4.4 0 2.5-2 4.4-4.5 4.4h-3.3v-8.8zm2.4 6.9h.5c1.4 0 2.6-.8 2.6-2.5 0-1.6-1-2.5-2.5-2.5h-.5v5zM95.4 64.7v1.5h2.5v2h-2.5v3.5h-2.3v-8.9h5.1v2h-2.8zM108.9 67c0 2.9-2.1 4.9-4.9 4.9-2.9 0-4.9-2-4.9-4.9 0-2.7 2.4-4.6 4.9-4.6 2.5 0 4.9 1.9 4.9 4.6zm-7.5 0c0 1.5 1.1 2.7 2.5 2.7s2.5-1.1 2.5-2.7c0-1.2-1.1-2.3-2.5-2.3-1.3 0-2.5 1.1-2.5 2.3zM112.2 69.6h2.8v2h-5.1v-8.9h2.3v6.9zM118.1 71.6h-2.3v-8.9h2.3v8.9zM129 67c0 2.9-2.1 4.9-4.9 4.9-2.9 0-4.9-2-4.9-4.9 0-2.7 2.4-4.6 4.9-4.6 2.5 0 4.9 1.9 4.9 4.6zm-7.5 0c0 1.5 1.1 2.7 2.5 2.7s2.5-1.1 2.5-2.7c0-1.2-1.1-2.3-2.5-2.3-1.3 0-2.5 1.1-2.5 2.3zM134.9 65c-.4-.4-1-.6-1.5-.6-.4 0-1 .2-1 .7 0 .5.6.7 1 .8l.6.2c1.2.4 2.2 1 2.2 2.4 0 .9-.2 1.8-.9 2.4-.7.6-1.6.8-2.5.8-1.1 0-2.2-.4-3.1-1l1-1.9c.6.5 1.3.9 2 .9.5 0 1.1-.3 1.1-.9 0-.6-.9-.9-1.4-1-1.4-.4-2.4-.8-2.4-2.5 0-1.8 1.3-3 3.1-3 .9 0 2 .3 2.8.7l-1 2zM24.4 80.8h3.3c2.5 0 4.5 1.9 4.5 4.4 0 2.5-2 4.4-4.5 4.4h-3.3v-8.8zm2.3 7h.5c1.4 0 2.6-.8 2.6-2.5 0-1.6-1-2.5-2.5-2.5h-.5v5zM35.6 82.8v1.5h2.6v2h-2.6v1.5h2.7v2h-5.1v-8.9h5.1v2h-2.7zM39.7 89.7v-8.9H43c1.6 0 2.6.6 2.6 2.3 0 .8-.3 1.4-1 1.8 1.3.2 1.8 1 1.8 2.3 0 1.9-1.6 2.5-3.2 2.5h-3.5zm2.3-5.4h.3c.6 0 1.2-.1 1.2-.9s-.7-.9-1.3-.9H42v1.8zm0 3.6h.3c.7 0 1.8 0 1.8-.9 0-1.1-1.1-1-1.9-1H42v1.9zM57.1 85.1c0 2.9-2.1 4.9-4.9 4.9-2.9 0-4.9-2-4.9-4.9 0-2.7 2.4-4.6 4.9-4.6 2.5 0 4.9 1.9 4.9 4.6zm-7.4 0c0 1.5 1.1 2.7 2.5 2.7s2.5-1.1 2.5-2.7c0-1.2-1.1-2.3-2.5-2.3s-2.5 1.1-2.5 2.3zM63 83.1c-.4-.4-1-.6-1.5-.6-.4 0-1 .2-1 .7 0 .5.6.7 1 .8l.6.2c1.2.4 2.2 1 2.2 2.4 0 .9-.2 1.8-.9 2.4-.7.6-1.6.8-2.5.8-1.1 0-2.2-.4-3.1-1l1-1.9c.6.5 1.3.9 2 .9.5 0 1.1-.3 1.1-.9 0-.6-.9-.9-1.4-1-1.4-.4-2.4-.8-2.4-2.5 0-1.8 1.3-3 3.1-3 .9 0 2 .3 2.8.7l-1 2zM70.3 83.1c-.4-.4-1-.6-1.5-.6-.4 0-1 .2-1 .7 0 .5.6.7 1 .8l.6.2c1.2.4 2.2 1 2.2 2.4 0 .9-.2 1.8-.9 2.4-.7.6-1.6.8-2.5.8-1.1 0-2.2-.4-3.1-1l1-1.9c.6.5 1.3.9 2 .9.5 0 1.1-.3 1.1-.9 0-.6-.9-.9-1.4-1-1.4-.4-2.4-.8-2.4-2.5 0-1.8 1.3-3 3.1-3 .9 0 2 .3 2.8.7l-1 2zM75 82.8v1.5h2.6v2H75v1.5h2.7v2h-5.1v-8.9h5.1v2H75zM79.1 80.8h3.3c2.5 0 4.5 1.9 4.5 4.4 0 2.5-2 4.4-4.5 4.4h-3.3v-8.8zm2.3 7h.6c1.4 0 2.6-.8 2.6-2.5 0-1.6-1-2.5-2.5-2.5h-.5v5zM94.3 89.7H92v-8.9h2.3v8.9zM96.8 80.8h2.3l1.8 4.7 1.9-4.7h2.3l1.3 8.9h-2.3l-.6-5.1-2.1 5.1h-.9l-2-5.1-.7 5.1h-2.3l1.3-8.9zM107.4 80.8h3.5c1.9 0 3.2.9 3.2 2.9 0 2.1-1.1 3-3.1 3h-1.3v2.9h-2.3v-8.8zm2.3 4.1h.4c.8 0 1.7 0 1.7-1.1s-.8-1.1-1.7-1.1h-.4v2.2zM122.6 89.7h-2.9l-2.2-3.4v3.4h-2.3v-8.9h3.5c1.8 0 3.1.8 3.1 2.7 0 1.2-.7 2.3-1.9 2.5l2.7 3.7zm-5.1-4.9h.2c.8 0 1.6-.1 1.6-1.1s-.8-1.1-1.6-1.1h-.2v2.2zM125.5 89.7h-2.3v-8.9h2.3v8.9zM127 80.8h2.3l4.2 5.4v-5.4h2.3v8.9h-2.3l-4.2-5.4v5.4H127v-8.9zM140.9 89.7h-2.3v-6.9h-1.9v-2h6.1v2h-1.9v6.9z"/><g><path class="st0" d="M691.7 219.5V98.7h-341v120.8h87.2v-31.3h32.8v38.5H402v69.2h53.9v-17h14.8V399h-35.2v106H607V399h-35.2V278.8h14.8v17h53.9v-69.2h-68.7v-38.5h32.8v31.3h87.1zm-94.3 189v87H444.9v-87h35.2V278.8h4.7v134.5h-35.2v77.5l21.2-21.2v8.4h100.6v-43.6l21.2-21.2h-35.1l-10.9 11.2V278.8h15.6v129.8h35.2zm33.5-172.4v50.2H596v-17.1h-58.8v164.7H562v34.6h-81.6v-34.6h24.9V269.3h-58.8v17.1h-34.9v-50.2h219.3zm-68.7-57.4v47.9h-41v-83.2L484.9 174v52.7h-4.7v-47.9h-51.7V210h-68.3V108.2h322V210h-68.3v-31.3h-51.7z"/><path class="st0" d="M677.4 113H364.9v92.3l29.4-29.4v-32.4h253.8zM618.7 205.3l29.4-29.4v-32.4L618.7 174zM557.2 438.7h-24.5l-11.5 12.5h23.5zM510 438.7h-24.9v25.1l12.5-12.6h23.6V252.7L510 264.5z"/><path class="st0" d="M428.9 252.7h184.5l12.5-11.8H416.2v40.7l12.7-12.3zM600.7 281.6l12.7-12.3v-16.6l-12.7 12.1z"/><g><path d="M341.2 89.2V229h51.3v76.3h68.7v84.3H426v124.9h190.4V389.6h-35.2v-84.3h68.7V229h51.3V89.2h-360zm350.5 130.3h-87.2v-31.3h-32.8v38.5h68.7v69.2h-53.9v-17h-14.8V399h35.2v106H435.4V399h35.2V278.8h-14.8v17H402v-69.2h68.7v-38.5h-32.8v31.3h-87.2V98.7h341v120.8z"/><path d="M428.4 178.7h51.7v47.9h4.8V174l36.3-30.5H394.3v32.4l-29.4 29.4V113h312.5l-29.3 30.5v32.4l-29.4 29.4V174l29.4-30.5H521.2v83.1h41v-47.9h51.7V210h68.3V108.2H360.1V210h68.3zM562.2 278.8h-15.6v145.6l10.9-11.1h35.2l-21.2 21.2V478H470.9v-8.4l-21.2 21.2v-77.5h35.2V278.8h-4.8v129.7h-35.2v87h152.5v-87h-35.2zM636.8 491.2c-6.4 0-11.6 5.2-11.6 11.6 0 6.4 5.2 11.6 11.6 11.6s11.6-5.2 11.6-11.6c0-6.4-5.2-11.6-11.6-11.6zm0 20.8c-5 0-9.1-4.1-9.1-9.1 0-5.1 4.1-9.1 9.1-9.1s9.1 4.1 9.1 9.1c.1 5-4 9.1-9.1 9.1z"/><path d="M641.6 500.2c0-2.2-1.8-3.9-3.9-3.9h-5.6v13.3h2.5v-5.4h1.8l2.5 5.4h2.8l-2.6-5.6c1.4-.7 2.5-2.1 2.5-3.8zm-3.9 1.4h-3.1v-2.9h3.1c.8 0 1.5.6 1.5 1.4-.1.9-.7 1.5-1.5 1.5zM411.5 286.3h34.9v-17.1h58.8v164.7h-24.9v34.6H562v-34.6h-24.9V269.3h58.8v17.1h34.9v-50.2H411.5v50.1zm4.7-45.4h209.7l-12.5 11.8v16.6l-12.7 12.3v-16.8l12.7-12.1h-92.2v198.5l11.6-12.5h24.5l-12.5 12.5h-47l-12.6 12.5v-25.1H510V264.5l11.2-11.8H429v16.6l-12.7 12.3v-40.7z"/></g></g></svg>