<svg version="1.1" id="Layer_1" xmlns="http://www.w3.org/2000/svg" x="0" y="0" width="612" height="792" style="enable-background:new 0 0 612 792" xml:space="preserve"><style>.st0{fill:#0054a4}</style><path class="st0" d="M112.1 341.8h14.5L132 363l7.7-21.2h14.4l7.7 21.3 5.2-21.3h14.5l-10.9 38.1h-15l-8.7-24-8.7 24h-15l-11.1-38.1zM188.5 341.8h41.1v8.2h-25.8v6h23.9v7.8h-23.9v7.5h26.5v8.6h-41.8v-38.1zM238.1 367.1l14.6-.7c.3 1.8 1 3.2 1.9 4.1 1.6 1.5 3.8 2.3 6.8 2.3 2.2 0 3.9-.4 5.1-1.2 1.2-.8 1.8-1.7 1.8-2.7 0-1-.6-1.9-1.7-2.7-1.1-.8-3.7-1.5-7.9-2.2-6.7-1.2-11.5-2.7-14.4-4.6-2.9-1.9-4.3-4.4-4.3-7.4 0-2 .7-3.8 2.2-5.5 1.5-1.7 3.7-3.1 6.7-4.1 3-1 7-1.5 12.2-1.5 6.3 0 11.2.9 14.5 2.7 3.3 1.8 5.3 4.7 5.9 8.6l-14.5.6c-.4-1.7-1.2-3-2.4-3.7-1.2-.8-2.9-1.2-5.1-1.2-1.8 0-3.1.3-4 .9-.9.6-1.3 1.3-1.3 2.1 0 .6.4 1.2 1.1 1.6.7.5 2.4 1 5.1 1.4 6.7 1.1 11.5 2.2 14.4 3.4 2.9 1.1 5 2.5 6.3 4.2 1.3 1.7 2 3.6 2 5.6 0 2.4-.9 4.7-2.6 6.8-1.8 2.1-4.2 3.6-7.4 4.7s-7.1 1.6-12 1.6c-8.4 0-14.3-1.2-17.5-3.7-3.2-2.4-5-5.5-5.5-9.4zM291.2 341.8h22.7c4.5 0 8.1.5 10.8 1.4 2.8.9 5 2.3 6.8 4 1.8 1.7 3.1 3.8 3.9 6.1.8 2.3 1.2 4.8 1.2 7.4 0 4.1-.6 7.2-1.8 9.5-1.2 2.2-2.9 4.1-5 5.6s-4.4 2.5-6.9 3c-3.3.7-6.4 1-9.1 1h-22.7v-38zm15.3 8.6v20.9h3.7c3.2 0 5.4-.3 6.7-.8 1.3-.5 2.4-1.5 3.1-2.9.8-1.4 1.1-3.6 1.1-6.6 0-4-.8-6.8-2.5-8.3-1.7-1.5-4.5-2.2-8.4-2.2h-3.7zM344.4 360.8c0-6.2 2.3-11.1 6.8-14.5 4.5-3.5 10.8-5.2 18.8-5.2 8.2 0 14.6 1.7 19.1 5.1 4.5 3.4 6.7 8.2 6.7 14.3 0 4.5-1 8.1-2.9 11-1.9 2.9-4.8 5.1-8.4 6.7-3.7 1.6-8.3 2.4-13.8 2.4-5.6 0-10.2-.7-13.9-2.1-3.7-1.4-6.6-3.5-8.9-6.5-2.4-3-3.5-6.7-3.5-11.2zm15.3 0c0 3.9.9 6.6 2.8 8.3 1.9 1.7 4.4 2.5 7.6 2.5 3.3 0 5.8-.8 7.6-2.5 1.8-1.6 2.7-4.6 2.7-8.9 0-3.6-.9-6.2-2.8-7.9-1.9-1.7-4.4-2.5-7.7-2.5-3.1 0-5.6.8-7.4 2.5-1.9 1.9-2.8 4.7-2.8 8.5zM405 341.8h20.2l7.7 23.2 7.7-23.2h20.1v38.1h-12.6v-29.1l-9.7 29.1h-11.3l-9.7-29.1v29.1H405v-38.1zM473.2 341.8h41.1v8.2h-25.8v6h23.9v7.8h-23.9v7.5H515v8.6h-41.8v-38.1zM112 232.4h402.5V278H112z"/><path style="fill:#ffd24f" d="M112 286.8h402.5v45.6H112z"/></svg>