<svg version="1.1" id="Layer_1" xmlns="http://www.w3.org/2000/svg" x="0" y="0" width="864" height="648" style="enable-background:new 0 0 864 648" xml:space="preserve"><style>.st8{fill:#fffcdb}.st14{fill:#ffe694}.st17{fill:#b38f19}</style><path d="M247.4 386.8h12.8c.7 0 1.5-.5 2.1-.9 10.2-8.2 19.1-17.6 26-28.7 1.1-1.8 2.2-2.6 4.3-2.5 5.5.1 11 0 16.7 0 .1 1 .3 1.8.2 2.5-1 4.3-.6 8.4.9 12.5 2 5.5 3.7 11.1 1.7 17.2 6.1.3 11.9.5 18.3.8-1.1 1.1-1.5 1.9-2.3 2.4-5.9 3.5-11.7 7.3-18.8 8.3-.9.1-1.8.3-2.7.3h-30.7c-.6 0-1.1-.1-2.2-.1 2-3.7 3.9-7.2 5.8-10.7 3.1-.2 6.2-.5 9.3-.7 3.1-.3 4.6-1.7 4.8-4.7.1-.9.1-1.9-.1-2.7-.8-2.6-1.8-5.2-2.8-8.2-3.1 2.8-6 5.3-8.8 7.9-3.4 3.2-6.6 6.7-10.2 9.7-5.2 4.4-11.4 7.5-18.1 8.8-3.8.8-7.7.7-11.6.7-3.2 0-6-1.5-8.3-3.7-2.1-2-4-2.2-6.4-.6-1.5 1-3.3 1.7-4.9 2.5-7.7 3.6-15.4 3.9-23.2-.1-.7-.4-1.7-.5-2.5-.3-8.3 2.2-16.8 2.3-25.3 2.2-4.8-.1-8.8-1.5-11.3-5.9-.5-.8-1.1-1.5-1.8-2.5-3.3 1.8-6.6 3.3-9.6 5.2-3.6 2.3-7.3 3.3-11.7 3.2-7.6-.2-15.2.2-22.8.1-4.1-.1-8.2-.7-12.3-1.3-12.3-1.7-13.9-11.2-10.4-20.3 2.5-6.4 7.6-10.7 13.3-14 7.5-4.3 15.8-5.5 24.3-3.9 2 .4 4 1.1 5.8 2.1 5.6 3.1 6.2 8.6 2.3 13.3-2 2.4-4.7 4.5-7.5 5.9-4.6 2.2-9.6 3.7-14.4 5.6-.6.2-1.2.5-1.9 1.3H134.1c1.5 0 2.9-.3 4.2-1.2 4.3-2.8 8.8-5.4 13.4-8.2-3.6-6.5-7.1-12.8-10.8-19.4h21.4c1.7 3 3.4 6 5.3 9.3 4.7-2.7 9.2-5.1 13.5-7.7 2-1.2 4.1-1.8 6.5-1.8 5.9.1 11.7 0 17.6 0 1 0 2 .1 3.1.7-11.3 7.1-22.6 14.3-34.1 21.6 1.4 2.2 2.7 4.1 3.8 5.9h15.7c.8-11.6 8.1-18.4 17.5-23.4 9.5-5.1 19.3-6.1 29.3-.6.6-.9 1.2-1.7 1.7-2.6h18.5c-4.4 8.9-9.4 17.2-13.3 26.7zm-18.7-15.2c-3.6-.2-6.6 1-8.9 3.7-1.8 2.1-3.5 4.2-4.8 6.6-1.6 2.9-.2 5 3.1 5.1 1.5 0 3-.2 4.4-.7 4.2-1.4 7.3-4.3 9.9-7.7 1.2-1.6 2-3.5.9-5.5-1-1.8-3-1.4-4.6-1.5zm-118.4 5.9c1.9-.5 3.2-.7 4.4-1.3 2.9-1.3 5.9-2.5 8.1-5.1 1.1-1.3.7-2.5-1-2.6-.8-.1-1.6.1-2.4.3-4 1.4-7.3 3.7-9.1 8.7zM421.5 335.9h19.7c-10.9 21.2-21.7 41.9-32.6 62.7h-21.2c4.1-7.5 8-14.8 12.1-22.5-1.1-.1-1.8-.3-2.5-.3-4.3 0-8.5.1-12.8 0-1.8 0-2.9.5-3.8 2.2-3.4 6.1-7.1 12.1-10.5 18.2-1.1 1.9-2.3 2.8-4.6 2.7-4.7-.2-9.4 0-14.1-.1-.8 0-1.6-.1-2.8-.2 4.2-7.7 8.2-15.1 12.3-22.7-3.5-1.3-6.8.1-10.5-.3 2.5-4.1 4.8-7.9 7.2-11.7.3-.5 1.3-.9 2-.9 1.6-.1 3.2-.2 4.8 0 2 .2 3.2-.5 4.1-2.3 4.1-7.4 8.3-14.8 12.4-22.3.9-1.7 1.9-2.5 4-2.5 5.6.2 11.3.1 17.1.1.2 1.8-1 3.1-1.7 4.4-3.4 6.4-7 12.7-10.4 19-.5 1-.9 2-1.5 3.3h18.5c4.9-8.9 9.9-17.9 14.8-26.8zM571.4 427.7c2.4-4.5 4.4-8.3 6.5-12.3 4.6 0 9.2-.3 13.8.1 3.7.3 6-1.4 7.6-4.2 2.2-3.8 4-7.8 5.9-11.7.4-.8.7-1.7 1.3-3-1.5.5-2.7 1-4 1.3-5.3 1.3-10.7 1.2-16.1.6-3.4-.4-6.4-1.8-7.7-5.5-.7-1.9-.6-3.5.4-5.3 4.1-7.8 8.2-15.7 12.3-23.5.8-1.6 1.7-3.2 2.6-4.8h19c-1.6 2.8-2.9 5.3-4.3 7.8-2.7 4.8-5.5 9.5-8.2 14.4-.7 1.2-2 2.7-.8 4.1 1.1 1.3 2.7 1.1 4.4.9 5.2-.4 9.1-3 12-7.1 4.5-6.5 8.8-13.2 13.3-20h16.8c-.9 1.8-1.6 3.3-2.4 4.8-7.9 15-15.9 30-23.7 45.1-2.4 4.6-5.3 8.8-9.1 12.5-3.8 3.7-8.3 5.7-13.6 5.9-5.5.3-11 .4-16.5.5-3-.1-5.8-.4-9.5-.6zM132.4 295.5v-2.8h659.9c.1.5.3.9.3 1.3s-.1.9-.2 1.5h-660z"/><path d="M676.1 315.9h115.6c.7 2.8.9 111.4.3 115.9-2.5.7-112 .8-115.7.2-.8-2.5-1-111.7-.2-116.1zm111.2 4.8H680.7v106.6h106.6V320.7z" style="fill:#949494"/><path d="M499 336.1h17.5c-3.7 8.9-8.3 17.1-12.2 26.2 1.4-.4 2.4-.6 3.4-1 4.5-1.6 9-1.6 13.5-.6 3.1.7 5.8 2.3 7.5 5 1.2 1.9 1.7 3.8 1.2 6.2-1.1 5.1-2.8 9.9-5.8 14.2-4 5.7-9.2 9.6-15.9 11.3-8.7 2.3-17.4 2.6-26.1 0-4.8-1.5-7.6-4.9-7.9-9.7-.2-2.7.5-5.7 1.5-8.3 1.6-4 3.6-7.9 5.7-11.8 5.8-10.5 11.7-20.9 17.6-31.5zm6.5 35.1c-2 0-5.1 1-7.3 3.5-2.2 2.6-4.1 5.5-5.6 8.5-1.4 2.8-.2 4.6 2.9 5 .8.1 1.6.1 2.4 0 4.9-.8 12-6.6 12.5-13.1.3-3.2-.4-3.9-4.9-3.9zM552.3 336.2h17.6c-4.2 8.7-8.1 17.1-12.5 26.1 1.6-.5 2.6-.7 3.6-1 4.7-1.6 9.5-1.5 14.2-.4 2.5.6 4.6 2 6.3 4 1.6 2.1 2.4 4.3 1.8 7-1.5 6.9-4.2 13.1-9.1 18.2-4.8 4.9-10.7 7.3-17.3 8.4-5.5.9-11 .9-16.4.2-.7-.1-1.4-.2-2-.4-9.5-2.2-12.8-8-9.7-17.5 1.8-5.4 4.6-10.5 7.3-15.5 5-9.3 10.2-18.5 15.3-27.7.2-.5.6-1 .9-1.4zm-3 52c5.9-.1 12.2-5.2 13.8-10.7.5-1.8 1.5-4 0-5.6-1.5-1.5-3.7-.9-5.6-.5-5.3 1.2-11.4 7.8-12.2 13.2-.2 1.4.4 2.3 1.5 2.8.9.6 2.1.7 2.5.8zM75.6 398.7H53.9c9-16.6 18.2-32.7 27.3-49.2-1-.2-1.7-.4-2.4-.4H61.9c-1.5 0-3-.1-4.5-.2.1-2.4 2.2-7.4 5.4-12.7h69.9c-.6 1.3-1 2.4-1.6 3.5-1.3 2.4-2.8 4.7-4.1 7.2-.9 1.6-2.1 2.1-3.9 2.1-5.4-.1-10.8 0-16.2-.1-2.2-.1-3.5.5-4.7 2.5-5.5 10.2-11.3 20.2-17 30.3-2.9 5.1-5.7 10.2-8.6 15.3-.2.6-.6 1.1-1 1.7zM276.8 201.7c-.4 5.6-.7 11.2-1.1 16.7-.4 7.2-.9 14.4-1.3 21.6-.1 1.6-.1 3.2-.1 4.8 0 3.3 1.2 4.7 4.5 5.5 1.1.2 2.1.5 3.4 1.5-.5.4-1.1 1-1.6 1-6 .1-12 .1-17.9 0-.5 0-.9-.7-1.8-1.4 1.6-.4 2.7-.9 3.8-1 3-.2 4.3-2.1 4.7-4.7.4-2.4.6-4.8.8-7.2l2.1-33.3c.1-2.4.3-4.8.2-7.2-.1-2.8-1.1-3.9-3.9-4.5-1-.2-2.1 0-2.2-1.9 2.5-.5 5-.2 7.4-.2 2.5-.1 5 0 7.7 0 7.8 16.4 15.6 32.6 23.7 49.4 8-16.8 15.7-32.9 23.4-49.2h15.3c-.9 1-1.2 1.7-1.7 1.8-5.2 1.1-5.3 1.1-5 6.4.6 9.3 1.4 18.5 2 27.8.4 5.1.6 10.3 1 15.5v1c.9 5.3.9 6.3 6.7 6.7.4 0 .9.1 2 .3-.8.8-1.1 1.5-1.6 1.7-.6.2-1.4.1-2 .1H326c-1.2 0-2.6.4-2.9-1.7 1.3-.3 2.5-.6 3.7-.8 4-.8 5.5-2.6 5.3-6.7-.6-9.6-1.4-19.2-2-28.8-.3-4.4-.5-8.9-1.4-13.4-1.4 3-2.9 5.9-4.3 8.9l-18.3 39.3c-.6 1.2-.7 3.2-2.7 3.2-1.9 0-2.1-1.9-2.7-3.2-7-14.5-13.8-29-20.8-43.5-.7-1.5-1.6-3-2.3-4.6-.4 0-.6 0-.8.1zM473.2 251.9c-.5.3-1 .9-1.5.9-6.5.1-13.1 0-19.5 0-.8-1.4-.3-1.8.8-2.2 5.2-1.7 5.5-2.1 5.8-7.4.3-5.2.4-10.3.4-15.5 0-1.9-.4-3.9-1.1-5.7-1.4-4.2-5.3-6.3-9.5-5.1-2.6.7-5.1 2-7.6 3.1-1.7.7-2.3 1.9-2.2 3.8.1 6.9 0 13.8.1 20.7 0 4.5.6 5.2 5.1 6.3.5.1 1 .3 1.9.6-.6.6-.8 1.2-1.3 1.4-.5.2-1.1.1-1.7.1h-32.8c-.9 0-1.9.2-2.3-1.4.7-.3 1.4-.9 2.2-1 3.1-.5 4.6-2.3 4.8-5.4.1-1.8.6-3.6.6-5.5.1-4.7 0-9.4 0-14.1 0-1-.1-2.1-.3-3.1-1.1-4.5-5.1-7.1-9.4-5.5-3.5 1.3-6.7 3.4-10 5.3-.6.3-.9 1.6-.9 2.4-.1 6.6-.1 13.1 0 19.7 0 1 .3 2 .5 3 .3 1.6 1.3 2.6 2.9 3 1.1.2 2.1.6 3.4.9-.4.7-.6 1.3-.8 1.3-6.2.1-12.4.1-18.6 0-.2 0-.4-.7-.8-1.2.8-.4 1.3-.8 1.9-.9 3.5-.6 4.7-3.2 4.8-6.2.2-6.9.1-13.8 0-20.7-.1-3.3-.6-3.8-3.9-4.6-.9-.2-1.8-.6-2.8-1 1.5-1.9 8.3-4.7 13-5.5v7.3c1.1-.5 1.8-.7 2.4-1 2.7-1.5 5.4-3.1 8.1-4.5 1.6-.8 3.4-1.5 5.2-1.7 3.9-.6 8.7 1.1 10.4 5.6.8 2.1 1.6 4.4 1.6 6.6 0 6.3-.3 12.6-.5 18.9 0 .7 0 1.4-.1 2.1-.3 3.2.7 4.6 3.9 4.9 3.3.3 5.5-.8 6.3-4 .3-1 .2-2.1.2-3.1v-45.9c0-4.3 0-4.3-4.1-5.1-.7-.1-1.3-.2-1.9-.3-.7-1.3-.1-1.9.8-2.3 3.8-1.3 7.6-2.6 11.6-4 .8 3.8.3 7.3.4 10.8.1 3.4 0 6.9 0 10.3v11.2c1.6-.8 2.8-1.3 3.9-1.9 3.1-1.7 6.3-3.2 9.9-3.8 7.5-1.1 12.2 2.2 13 9.7.5 5.3.1 10.7.1 16.1 0 2.9-.1 5.7-.1 8.6 0 2 1.3 2.8 3 3.3 1.4.4 2.9.6 4.3.9.3.3.4.6.4.8zM454.4 358.5c4.3-.2 8.5.5 12.5 2.5 8.5 4.3 11.2 12.5 6.3 20.8-5.4 9-13.3 14.7-23.7 16.7-6 1.1-12.1 1.1-18.1-.5-7.5-2-11.5-8.5-10.2-16.3 1.6-9.5 7.6-15.4 15.7-19.6 5.4-2.7 11.3-3.8 17.5-3.6zm-3.5 12.4c-2.3-.3-4.6.6-6.3 2.3-2 2-3.8 4.3-5 6.9-2 4.1.2 7 4.8 6.8 5.4-.2 11.1-5.4 11.7-10.8.5-3.6-1-5.1-5.2-5.2zM548.2 251.3c-.5.7-.8 1.4-1.1 1.5-.8.2-1.6.1-2.4.1h-34.8c-1.2 0-2.9.7-3.3-1.8 1.3-.3 2.5-.5 3.7-.8 2.9-.6 4.5-2.3 4.6-5.2.1-7.6.1-15.2 0-22.8 0-1.9-.9-3-2.8-3.3-1.5-.3-3.1-.7-4.8-1 .2-.7.1-1.2.4-1.5 1.7-1.3 11.4-4.3 14.1-4.3v3.6c0 9.4.4 18.9-.1 28.3-.3 5.9 5.9 7.7 9.9 5.7 2.1-1 2.7-3 2.6-5.2v-21.7c0-3.1-.3-3.4-3.4-4.1-.9-.2-1.8-.3-3.1-.5.4-.8.5-1.8 1-1.9 3.9-1.5 7.9-2.8 12.4-4.4v8c1.4-.8 2.4-1.4 3.3-1.9 3.6-2.2 7.3-4.3 11.6-5.2 5.5-1.3 9.3.6 11.7 5.8l.7 1.4c2.8-1.6 5.4-3.3 8.1-4.6 2.2-1.1 4.6-2 7-2.6 5-1.2 9.2 1.2 10.7 6.1.7 2.4 1.2 4.9 1.2 7.4 0 6.2-.2 12.4-.4 18.6-.1 3.5 1.1 5.1 4.5 5.8 1.2.2 2.4.3 3.6.4.3 1.9-.9 1.8-1.9 1.8h-17.9c-.5 0-1 0-1.3-.2-.4-.3-.5-.8-.9-1.5 1.3-.3 2.2-.6 3.2-.7 2.5-.3 3.7-1.8 3.8-4.1.2-5 .4-10.1.5-15.1 0-2.9 0-5.8-.5-8.6-.9-5-4.1-6.8-9-5.8-3.7.7-6.8 2.8-9.9 4.6-.5.3-.9 1.1-.9 1.7 0 7.5.1 14.9.2 22.4 0 3.2 1.6 4.9 4.8 5.2.3 0 .6.2.9.3.5 1.3-.1 1.8-1.2 1.8h-18.1c-.9-1.3-.5-1.8.6-2.2 5.8-2 6.3-2.8 6.4-8.8v-15.5c0-.8.1-1.6-.1-2.4-.8-6-4.8-8.5-10.5-6.8-1.4.4-2.8 1-4.2 1.6-1.9 1-3.7 2.2-5.7 3.4 0 8-.1 15.9 0 23.9 0 2.8 1.1 3.7 3.9 4.3.6.2 1.5.4 2.9.8z"/><path d="M356.2 222.3c-2.1 1-4 2-6.2 3.1-.3-.6-.7-1.2-.6-1.6 1.9-5.2 5.9-8.3 10.8-10.5 4.2-1.8 8.1-.7 11.7 1.8 2.7 1.9 4.1 4.4 4.1 7.9-.1 7.3.1 14.7.2 22 0 .7 0 1.4.2 2 .3 1.5 1.3 2.2 2.8 1.9 1.4-.4 2.8-1 4.7-1.7-.4 1-.5 1.8-.9 2.1-1.5 1.2-3.1 2.3-4.8 3.3-4.5 2.6-7.3 1.4-8.6-3.8-1.5-.3-2.2 1-3.1 1.7-2.9 2-5.8 3.7-9.5 3.3-3.8-.3-7-2.6-7.7-5.8-1-4.1.5-7.6 4.3-9.5 2.4-1.1 4.9-1.8 7.4-2.7.6-.2 1.3-.3 2-.5 6.4-2.2 6.4-2.2 6.4-8.9 0-1.4.1-2.8-.1-4.1-.4-3.5-3.2-6.4-6.4-6.6-4.3-.4-6.9 2.1-6.7 6.6zm13 12.5c-2.7 1.1-5 2-7.3 3-1.6.7-3.1 1.4-4.5 2.4-2 1.4-2.6 4.1-1.7 6.5.8 2.2 3.1 3.8 5.4 3.5 3.1-.3 5.4-2.3 7.7-4.2.3-.2.4-.8.4-1.2v-10zM505.8 242.6c.1.7.6 1.5.3 1.8-4.5 5.1-9.5 9.4-16.8 9.5-6.7.1-11.6-3.2-14.6-8.7-4.3-7.9-4.1-16.1.6-23.9 4-6.7 12.4-10.6 21.6-8 2.9.8 5 2.8 6.6 5.3 1.3 2.1 2.4 4.4 3.5 6.7.3.6.1 1.3.2 2.3H479c-2.3 6.7.5 14.7 6.2 18.7 6 4.2 11.9 3.2 20.6-3.7zm-26.6-18h19.3c-1.3-6.2-4.8-10-9.3-10.1-4.9-.1-8.7 3.6-10 10.1zM521.7 193.4c.1 2.3-1.6 4-4.1 4-2.4 0-4.4-1.7-4.4-3.8 0-1.9 1.9-3.8 4-3.9 2.5-.1 4.4 1.5 4.5 3.7zM784 351.9c-4.6-.6-8.6-1.4-12.5-1.6-1.9-.1-4 .8-5.8 1.6-1.6.7-3 1.7-4.4 2.7-3.5 2.5-7.3 4.2-11.8 5 0 4.2.1 8.3-.1 12.4-.1 1.8-.7 3.6-1.4 5.2-3.2 6.7-5.2 13.7-5.7 21.1-.2 3.8-1.8 5.4-5.5 5.6-1.5.1-3 .1-4.5 0-4.4-.1-5.7-1.6-6.3-6-.5-4-1.3-7.9-2.2-11.8-.4-1.9-1-3.8-2-5.5-3.7-6.6-3.9-13.7-3-21.3-5.9-.9-10.9-3.9-15.7-7.3-4.1-2.9-8.6-2.8-13.2-1.6-1.6.4-3.3.8-5.4 1.4 5.9-5.2 15.4-6.4 22.1-3.4 3.5 1.6 7.2 2.9 10.9 4.1 2.1.7 4.1.8 6.1-.8 2.1-1.6 4.8-1.7 7.3-1.2 2.2.5 4.3.5 6.5 0 2.8-.6 5.5-.3 7.9 1.5 1.6 1.3 3.4 1.4 5.1.8 3.3-1.1 6.6-2.1 9.6-3.6 8.5-4.1 16.1-1.9 24 2.7zm-43.5 27.2c-.7-2.5-1.3-4.6-1.9-6.4 1.7-1.4 3.1-2.6 5-4.1-2.6-.2-4.5-.4-6.5-.6-.4-1-.7-2-1.1-2.9-.4-.9-.8-1.8-1.4-3.3-1 2.5-1.8 4.4-2.6 6.2-2.2.2-4.1.4-6.6.6 2.1 1.7 3.6 2.9 5 4.1-.4 2-.8 3.8-1.3 6.2 2.2-1.3 3.8-2.2 5.5-3.2 1.9 1.1 3.6 2.1 5.9 3.4z"/><path d="M740.5 379.1c-2.2-1.3-4-2.3-5.8-3.4-1.7 1-3.3 1.9-5.5 3.2.5-2.4.9-4.2 1.3-6.2-1.5-1.2-2.9-2.4-5-4.1 2.5-.2 4.4-.4 6.6-.6.7-1.8 1.6-3.7 2.6-6.2.6 1.4 1 2.3 1.4 3.3.4 1 .7 1.9 1.1 2.9 2 .2 3.9.3 6.5.6-1.8 1.5-3.3 2.7-5 4.1.5 1.9 1 3.9 1.8 6.4z" style="fill:#fff"/><path d="M139.9 215.3c0 28.8 23.4 52.2 52.2 52.2 28.8 0 52.2-23.4 52.2-52.2 0-28.8-23.4-52.2-52.2-52.2-28.9 0-52.2 23.4-52.2 52.2z" style="fill:#6e420b"/><path d="M138.7 214.1c0 28.8 23.4 52.2 52.2 52.2 28.8 0 52.2-23.4 52.2-52.2 0-28.8-23.4-52.2-52.2-52.2-28.8.1-52.2 23.4-52.2 52.2z" style="fill:#fffde9"/><linearGradient id="SVGID_1_" gradientUnits="userSpaceOnUse" x1="153.306" y1="179.711" x2="228.596" y2="248.454"><stop offset="0" style="stop-color:#ffeea2"/><stop offset=".354" style="stop-color:#efb733"/><stop offset=".503" style="stop-color:#f0ba2f"/><stop offset=".63" style="stop-color:#f5c322"/><stop offset=".73" style="stop-color:#fed301"/><stop offset="1" style="stop-color:#93540b"/></linearGradient><path d="M139.5 214.7c0 28.8 23.4 52.2 52.2 52.2 28.8 0 52.2-23.4 52.2-52.2 0-28.8-23.4-52.2-52.2-52.2-28.9 0-52.2 23.4-52.2 52.2z" style="fill:url(#SVGID_1_)"/><linearGradient id="SVGID_2_" gradientUnits="userSpaceOnUse" x1="156.895" y1="162.2" x2="234.49" y2="279.45"><stop offset="0" style="stop-color:#cb962f"/><stop offset=".096" style="stop-color:#f2df8a"/><stop offset=".466" style="stop-color:#edad1f"/><stop offset=".742" style="stop-color:#f6c76d"/><stop offset="1" style="stop-color:#ce8a2d"/></linearGradient><path d="M141.8 214.7c0 27.5 22.3 49.8 49.8 49.8 27.5 0 49.8-22.3 49.8-49.8 0-27.5-22.3-49.8-49.8-49.8-27.5 0-49.8 22.3-49.8 49.8z" style="fill:url(#SVGID_2_);stroke:#fed301;stroke-width:.7611"/><path d="M191.6 169.6c-24.9 0-45.2 20.2-45.2 45.2 0 24.9 20.2 45.2 45.2 45.2 24.9 0 45.2-20.2 45.2-45.2 0-25-20.3-45.2-45.2-45.2zm0 85.2c-22.1 0-40.1-17.9-40.1-40.1 0-22.1 18-40.1 40.1-40.1 20.5 0 40.1 18.8 40.1 40.1 0 22.2-18 40.1-40.1 40.1z" style="stroke:#f1e9b6;stroke-width:1.2244"/><linearGradient id="SVGID_3_" gradientUnits="userSpaceOnUse" x1="206.337" y1="163.485" x2="177.07" y2="265.627"><stop offset=".006" style="stop-color:#916e18"/><stop offset=".04" style="stop-color:#ae8e30"/><stop offset=".08" style="stop-color:#c9ae4a"/><stop offset=".124" style="stop-color:#e0c962"/><stop offset=".175" style="stop-color:#f2df73"/><stop offset=".236" style="stop-color:#ffee7e"/><stop offset=".343" style="stop-color:#fff682"/><stop offset=".388" style="stop-color:#feeb7d"/><stop offset=".435" style="stop-color:#efd871"/><stop offset=".483" style="stop-color:#dabd5f"/><stop offset=".531" style="stop-color:#c09a46"/><stop offset=".58" style="stop-color:#a1732b"/><stop offset=".628" style="stop-color:#7f4b0f"/><stop offset=".635" style="stop-color:#7a460b"/><stop offset=".832" style="stop-color:#eac35c"/><stop offset="1" style="stop-color:#a2761d"/></linearGradient><path d="M191.7 159.3c-30.6 0-55.4 24.8-55.4 55.4 0 30.6 24.8 55.4 55.4 55.4 30.6 0 55.4-24.8 55.4-55.4-.1-30.6-24.9-55.4-55.4-55.4zm0 104.2c-26.9 0-48.7-21.8-48.7-48.7 0-26.9 21.8-48.7 48.7-48.7 26.9 0 48.7 21.8 48.7 48.7 0 26.8-21.8 48.7-48.7 48.7z" style="fill:url(#SVGID_3_);stroke:#9e6606;stroke-width:.7921"/><path class="st8" d="M220.4 186.9c7.2 7.2 12.7 16.7 12.7 27.7 0 7.1-4.4 14.7-7.6 20.5 3.3-5.8 6.7-13.6 6.7-20.7 0-10.9-5.5-20.5-12.7-27.7l.9.2zM214.5 247.2s-1.2.7-1.2 1c-6.3 4.2-13.1 5.9-21.3 5.9 10.9 1 18.3-2.9 20.2-4.3 2-1.5 2.3-2.6 2.3-2.6z"/><radialGradient id="SVGID_4_" cx="-2507.469" cy="-2713.476" r="14.079" gradientTransform="translate(12368.58 13425.087) scale(4.8563)" gradientUnits="userSpaceOnUse"><stop offset="0" style="stop-color:#003265"/><stop offset=".104" style="stop-color:#003568"/><stop offset=".242" style="stop-color:#003d6f"/><stop offset=".4" style="stop-color:#1f4c7c"/><stop offset=".572" style="stop-color:#43628f"/><stop offset=".756" style="stop-color:#6f85ac"/><stop offset=".947" style="stop-color:#aeb9d2"/><stop offset="1" style="stop-color:#c4cbde"/></radialGradient><path d="M191.6 251.5c-20.5 0-37.2-16.6-37.2-37.2 0-20.5 16.7-37.2 37.2-37.2 18.6 0 37.5 17.6 37.5 37.2 0 23.7-21.2 37.2-37.5 37.2z" style="fill:url(#SVGID_4_)"/><path d="M227.5 204.9c-1.3-4.8-3.5-9.3-6.4-13.1-4.3-5.7-10.3-10.1-17.1-12.5-3.9-1.4-8.1-2.1-12.4-2.1-2.7 0-5.3.3-7.8.8-5.9 1.3-11.3 3.9-15.8 7.6-8.3 6.8-13.6 17.2-13.6 28.8 0 4.8.9 9.4 2.6 13.7-.8-3-1.2-6.2-1.2-9.4 0-10.4 4.3-19.8 11.2-26.6-1.6 10.2-4.1 27.2-5.4 44.3 3.4 4.6 7.8 8.4 12.9 11v.1c.5-7.7 1.6-23.8 3.6-44.2 0 0 5.8 28.6 11.8 47.3h8.2c7.7-22.6 12.8-46.8 12.8-46.8 1.8 17.5 2.2 32.2 2.7 40.7 5-3.9 11.2-12.1 13.6-18.1-1.2-12.6-2.2-20-3.5-28.4 1.8 2.6 2.5 3.8 3.8 6.9zm-33.1 10.5s-4.3-13.6-9.2-33.2c2.6-.6 5-.9 7.7-.9 3.5 0 6.9.5 10.2 1.4-4.8 19.3-8.7 32.7-8.7 32.7z" style="fill:#003265"/><linearGradient id="SVGID_5_" gradientUnits="userSpaceOnUse" x1="159.342" y1="247.867" x2="220.509" y2="184.972"><stop offset="0" style="stop-color:#ebd47a"/><stop offset=".096" style="stop-color:#fffde7"/><stop offset=".466" style="stop-color:#e6903b"/><stop offset=".742" style="stop-color:#fff4c1"/><stop offset="1" style="stop-color:#b56323"/></linearGradient><path d="M191.6 165.3c-27.3 0-49.4 22.1-49.4 49.4 0 27.3 22.1 49.4 49.4 49.4 27.3 0 49.4-22.1 49.4-49.4 0-26.3-24.1-49.4-49.4-49.4zm0 86.2c-20.6 0-37.2-16.6-37.2-37.2s16.6-37.2 37.2-37.2c18.7 0 37.4 16.4 37.5 37.2.2 23.8-21.1 37.2-37.5 37.2z" style="fill:url(#SVGID_5_);stroke:#65501b;stroke-width:1.4395"/><linearGradient id="SVGID_6_" gradientUnits="userSpaceOnUse" x1="192.196" y1="245.415" x2="192.196" y2="209.124"><stop offset="0" style="stop-color:#af8718"/><stop offset=".242" style="stop-color:#dbc142"/><stop offset=".579" style="stop-color:#f4d793"/><stop offset="1" style="stop-color:#9a8016"/></linearGradient><path d="M196.9 249c5.9-17.4 13.7-46.1 13.7-46.1 3.1 28.9 4.2 49.1 4.2 49.1l10.7-17.1c.1-2.5.4-4.6.4-4.6-1.3-11.9-3-29.1-4.3-37.2 0 0-1.9-5.1-2.5-6.7-1-3 .7-4.6.7-4.6l-14.6-8.4c-5.9 23.7-11.5 40.8-11.5 40.8s-5.1-14.9-10.5-36l-2.1-2.2-14.9 5.4s-5.6 27.9-7.7 55.7l11.5 10 2.4-1c.5-7.8 1.7-23.7 3.9-43.8 0 0 6.2 29 12.1 46.4l8.5.3z" style="fill:url(#SVGID_6_)"/><linearGradient id="SVGID_7_" gradientUnits="userSpaceOnUse" x1="183.43" y1="163.046" x2="202.15" y2="274.306"><stop offset=".056" style="stop-color:#efbf5f"/><stop offset=".253" style="stop-color:#f4d767"/><stop offset=".466" style="stop-color:#dfad3f"/><stop offset=".646" style="stop-color:#bf851a"/><stop offset=".888" style="stop-color:#f6d459"/><stop offset="1" style="stop-color:#c28031"/></linearGradient><path d="M192.1 166.7c-26.3 0-47.6 21.3-47.6 47.6s21.3 47.6 47.6 47.6 47.6-21.3 47.6-47.6c0-25.3-23.3-47.6-47.6-47.6zm40.1 47.6c0 7.1-3.4 14.9-6.7 20.7 0-.3-.4 1-.4.8-1.6-18.4-4.8-40.5-6.4-49.8-.1-.5.8 1.1.8.7 7.1 7.1 12.7 16.7 12.7 27.6zm-29-38.1 1 .4c-6.5 21.1-11.9 40-11.9 40s-5.7-18.2-11.4-40.3c3.5-1 7.2-1.6 11.1-1.6 3.9-.1 7.7.4 11.2 1.5zM164 186.3l1.1-.8c-1.6 9.4-5.2 31.5-6.8 50.2-3.2-5.8-5.9-14.3-5.9-21.4 0-10.9 4.4-20.9 11.6-28zm6 61c.4-7 1.8-25.9 4.2-47.6 0 0 9 30.5 14.9 47.9h6.9c7.6-23.7 14.3-47.5 14.3-47.5 2.2 20 2.3 36.8 2.8 44.6 0 .4 1.4 2.4 1.4 2.4s-1.2.7-1.2 1c-6.3 4.2-13.1 5.9-21.3 5.9-8.1 0-15.7-2.5-22-6.7z" style="fill:url(#SVGID_7_)"/><path class="st14" d="M158.3 235.7c2-20.3 5.6-42.5 6.8-50.2l-1.8 4.9c-1.6 9.2-3.9 24.1-5.4 39.8l.4 5.5z"/><path d="M174.2 199.7s9 30.5 14.9 47.9l-.7 1.3c-4.3-12.6-9.9-31.6-12.7-41.1-.6-2.4-1-4.7-1-4.7l-.5-3.4z" style="fill:#f7eab1"/><path class="st14" d="M192.4 216.5s5.9-18.2 11.9-40l-1.7 2.2c-4.1 15.8-8 28.1-9.6 33.1l-.6 4.7zM210.3 200.1c2.4 21.7 3.8 40.1 4.3 47.1l-1.4-2.4c-.5-7.7-1.6-21.4-3.4-38.5l.5-6.2z"/><path d="M204.2 176.5c-2.6-1.2-6.8-2.6-12.6-2.4-3.9.1-6.5.4-10.6 2.1 3.5-1 7.2-1.6 11.1-1.6 3.8 0 8.6.9 12.1 1.9z" style="fill:#fffcd7"/><path class="st8" d="m159.2 233.6-.9 2.1c2-20.3 5.6-42.5 6.8-50.2 0 0-1.7 16.5-5.9 48.1zM175.9 206.1l12.7 40.3c-2.8-15.4-12.7-40.3-12.7-40.3zM211.1 206.1c1.6 16.2 3.3 38.9 3.3 38.9.9-19.5-3.3-38.9-3.3-38.9zM145.9 201.7s.3.2 0 0c5-12.1 8.8-16.8 15.8-23.7l-2 1.6c-10.2 8.3-13.3 19.3-13.8 22.1-.4 2.8 0 0 0 0zM204.1 178c-1.4 11.8-11.8 38.5-11.8 38.5l11.8-38.5z"/><path class="st17" d="M170.3 245.1c.9-14.6 3.5-41.2 3.5-41.2-4.2 26.1-3.5 41.2-3.5 41.2zM224.8 235c-2.3-28.4-4.4-38.5-4.4-38.5s2.4 28 2.8 31.1c.5 3 1.6 7.4 1.6 7.4zM195.9 247.6c3-9 12.9-41.3 12.9-41.3-8.6 24.2-12.9 41.3-12.9 41.3z"/><linearGradient id="SVGID_8_" gradientUnits="userSpaceOnUse" x1="138.869" y1="185.02" x2="250.098" y2="247.805"><stop offset="0" style="stop-color:#d09f43"/><stop offset=".208" style="stop-color:#fffabe"/><stop offset=".466" style="stop-color:#f0b944"/><stop offset=".742" style="stop-color:#fff9ba"/><stop offset="1" style="stop-color:#d39542"/></linearGradient><path d="M191.7 160.7c-29.7 0-53.7 24.2-53.7 54.1 0 29.9 24.1 54.1 53.7 54.1 29.7 0 53.7-24.2 53.7-54.1 0-29.8-24.1-54.1-53.7-54.1zm0 104.7c-27.8 0-50.3-22.6-50.3-50.6 0-27.9 22.5-50.6 50.3-50.6 27.8 0 50.3 22.6 50.3 50.6-.1 28-22.6 50.6-50.3 50.6z" style="fill:url(#SVGID_8_);stroke:#fed301;stroke-width:.755"/><linearGradient id="SVGID_9_" gradientUnits="userSpaceOnUse" x1="137.799" y1="190.235" x2="189.812" y2="190.235"><stop offset="0" style="stop-color:#f3df80"/><stop offset=".018" style="stop-color:#f3e086"/><stop offset=".133" style="stop-color:#f7e9a9"/><stop offset=".243" style="stop-color:#faf0c5"/><stop offset=".348" style="stop-color:#fdf7da"/><stop offset=".444" style="stop-color:#fffce8"/><stop offset=".522" style="stop-color:#fffded"/><stop offset=".587" style="stop-color:#fffae7"/><stop offset=".668" style="stop-color:#fef3d8"/><stop offset=".758" style="stop-color:#fceac2"/><stop offset=".855" style="stop-color:#fadda3"/><stop offset=".956" style="stop-color:#f7ce7f"/><stop offset="1" style="stop-color:#f6c76d"/></linearGradient><path d="M188.9 160.4c-14.6.9-28 7.5-37.6 18.6-9.7 11.1-14.4 24.8-13.5 39.5 0 .2.2 1.7.4 1.7s.1-1.1.1-1.2c-.9-14.6 3.9-28.6 13.4-39.5 9.6-10.9 22.7-17.8 37.2-18.7.2 0 .9 0 .9-.2 0-.3-.7-.3-.9-.2z" style="fill:url(#SVGID_9_)"/><linearGradient id="SVGID_10_" gradientUnits="userSpaceOnUse" x1="-7409.974" y1="-7585.137" x2="-7362.947" y2="-7585.137" gradientTransform="rotate(180 -3584.005 -3673.464)"><stop offset="0" style="stop-color:#f3df80"/><stop offset=".018" style="stop-color:#f3e086"/><stop offset=".133" style="stop-color:#f7e9a9"/><stop offset=".243" style="stop-color:#faf0c5"/><stop offset=".348" style="stop-color:#fdf7da"/><stop offset=".444" style="stop-color:#fffce8"/><stop offset=".522" style="stop-color:#fffded"/><stop offset=".587" style="stop-color:#fffae7"/><stop offset=".668" style="stop-color:#fef3d8"/><stop offset=".758" style="stop-color:#fceac2"/><stop offset=".855" style="stop-color:#fadda3"/><stop offset=".956" style="stop-color:#f7ce7f"/><stop offset="1" style="stop-color:#f6c76d"/></linearGradient><path d="M195.8 265.2c13.2-.8 25.3-6.8 34-16.8s13-22.4 12.2-35.7c0-.2-.2-1.5-.4-1.5s-.1 1-.1 1.1c.8 13.2-3.5 25.9-12.2 35.8-8.6 9.9-20.6 16.1-33.6 16.9-.2 0-.8 0-.8.1 0 .2.7.1.9.1z" style="fill:url(#SVGID_10_)"/><linearGradient id="SVGID_11_" gradientUnits="userSpaceOnUse" x1="194.755" y1="240.237" x2="245.211" y2="240.237"><stop offset=".096" style="stop-color:#f2df8a"/><stop offset=".466" style="stop-color:#a26611"/><stop offset="1" style="stop-color:#f6c76d"/></linearGradient><path d="M245 211.5c-.2 0-.2.4-.2.6.9 14.2-3.8 27.9-13.2 38.5-9.4 10.7-22.3 17.1-36.4 18-.2 0-.4.1-.4.3 0 .2.2.2.4.2 14.3-.9 27.4-7.2 36.9-18s14-24.7 13.1-39.1c0-.3 0-.5-.2-.5z" style="fill:url(#SVGID_11_)"/><linearGradient id="SVGID_12_" gradientUnits="userSpaceOnUse" x1="-7064.77" y1="238.818" x2="-7012.748" y2="238.818" gradientTransform="rotate(-87.008 -3434.738 -3555.467)"><stop offset="0" style="stop-color:#f3df80"/><stop offset=".018" style="stop-color:#f3e086"/><stop offset=".133" style="stop-color:#f7e9a9"/><stop offset=".243" style="stop-color:#faf0c5"/><stop offset=".348" style="stop-color:#fdf7da"/><stop offset=".444" style="stop-color:#fffce8"/><stop offset=".522" style="stop-color:#fffded"/><stop offset=".587" style="stop-color:#fffae7"/><stop offset=".668" style="stop-color:#fef3d8"/><stop offset=".758" style="stop-color:#fceac2"/><stop offset=".855" style="stop-color:#fadda3"/><stop offset=".956" style="stop-color:#f7ce7f"/><stop offset="1" style="stop-color:#f6c76d"/></linearGradient><path d="M137.7 215.1c.1 14.6 6 28.3 16.6 38.6 10.5 10.2 24 15.7 38.8 15.5.2 0 1.7-.2 1.7-.3 0-.2-1.1-.1-1.2-.1-14.6.1-28.4-5.4-38.8-15.5-10.4-10.1-16.6-23.6-16.8-38.1 0-.2.1-.9-.1-.9-.2-.1-.2.6-.2.8z" style="fill:url(#SVGID_12_)"/><linearGradient id="SVGID_13_" gradientUnits="userSpaceOnUse" x1="-737.146" y1="-8087.678" x2="-694.053" y2="-8087.678" gradientTransform="rotate(100.451 -3693.602 -3559.865)"><stop offset="0" style="stop-color:#f3df80"/><stop offset=".018" style="stop-color:#f3e086"/><stop offset=".133" style="stop-color:#f7e9a9"/><stop offset=".243" style="stop-color:#faf0c5"/><stop offset=".348" style="stop-color:#fdf7da"/><stop offset=".444" style="stop-color:#fffce8"/><stop offset=".522" style="stop-color:#fffded"/><stop offset=".587" style="stop-color:#fffae7"/><stop offset=".668" style="stop-color:#fef3d8"/><stop offset=".758" style="stop-color:#fceac2"/><stop offset=".855" style="stop-color:#fadda3"/><stop offset=".956" style="stop-color:#f7ce7f"/><stop offset="1" style="stop-color:#f6c76d"/></linearGradient><path d="M242 214.8c.2-11.5-3.6-22.7-11-31.9-8.4-10.5-20.1-17.1-33.6-18.7-.2 0-1.6-.1-1.6.1s1 .3 1.1.3c13.3 1.7 25.3 8.3 33.6 18.7 7.4 9.2 11.5 20.5 11.2 32 0 1.4.3 1.1.3-.5z" style="fill:url(#SVGID_13_)"/><linearGradient id="SVGID_14_" gradientUnits="userSpaceOnUse" x1="-7131.117" y1="224.482" x2="-7085.42" y2="224.482" gradientTransform="rotate(-83.944 -3462.19 -3811.137)"><stop offset=".096" style="stop-color:#f2df8a"/><stop offset=".466" style="stop-color:#a26611"/><stop offset="1" style="stop-color:#f6c76d"/></linearGradient><path d="M141.8 214.7c-.6 13.2 3.9 25.3 13 35.1 9 9.8 20.9 15.3 34.3 15.9.2 0 1.5-.1 1.5-.2 0-.2-.9-.2-1.1-.2-13.2-.6-25.3-6.2-34.3-15.9-8.9-9.6-13.9-21.6-13.4-34.7 0-.1 0-.1 0 0z" style="fill:url(#SVGID_14_)"/><linearGradient id="SVGID_15_" gradientUnits="userSpaceOnUse" x1="-7115.302" y1="201.454" x2="-7064.85" y2="201.454" gradientTransform="rotate(-88.693 -3444.202 -3544.071)"><stop offset=".096" style="stop-color:#f2df8a"/><stop offset=".466" style="stop-color:#a26611"/><stop offset="1" style="stop-color:#f6c76d"/></linearGradient><path d="M189 160.6c0 .2.4.2.6.2 14.2-.6 27.8 4.4 38.2 14.1 10.4 9.6 16.6 22.6 17.1 36.8 0 .2.1.4.3.4.2 0 .2-.2.2-.4-.6-14.4-6.6-27.6-17.1-37.3-10.6-9.8-24.4-14.6-38.8-14-.2 0-.5 0-.5.2z" style="fill:url(#SVGID_15_)"/><path d="M184 264.7c-26.6-4.1-44.9-31-40.9-57.6 4.1-26.6 29.6-46.5 56.2-42.4-27.4-4.2-53.1 14.7-57.4 42.4-4.1 27.6 14.7 53.4 42.1 57.6z" style="fill:#9e6606"/><path d="M241.4 222.5c4.2-27.6-14.5-53.4-42-57.6 26.6 4.1 45 30.8 40.9 57.4-4.1 26.6-29.7 46.7-56.3 42.6 27.5 4.1 53.1-14.8 57.4-42.4z" style="fill:#fffbca"/><linearGradient id="SVGID_16_" gradientUnits="userSpaceOnUse" x1="670.821" y1="-1073.225" x2="717.856" y2="-1073.225" gradientTransform="rotate(14.295 -4585.616 -2529.473)"><stop offset=".096" style="stop-color:#f2df8a"/><stop offset=".466" style="stop-color:#a26611"/><stop offset="1" style="stop-color:#f6c76d"/></linearGradient><path d="M199.9 164.8c-13-2.5-26.2.3-37.1 7.9-10.9 7.5-18.1 18.5-20.6 31.6 0 .1-.2 1.5 0 1.6.2 0 .3-.9.4-1.1 2.5-13 9.8-24.2 20.6-31.6 10.8-7.5 23.9-10.5 36.8-8.1.2 0 .8.2.8.1 0-.3-.7-.4-.9-.4z" style="fill:url(#SVGID_16_)"/></svg>