<svg xmlns="http://www.w3.org/2000/svg" width="1500" height="1085.4" style="enable-background:new 0 0 1500 1085.4" xml:space="preserve"><path d="m1476 97.9-.1-.2C1439.8 35.6 1366.4 0 1290.5 0c-93.8 0-187 51.8-231 112.8C1043.1 49.1 979.2 0 907 0c-83.8 0-196.5 67.5-219.1 167L623.1 34.5H418.6l345.6 744.4-47 116.1h-94.6L204.5 34.5H0l488 1050.9 245.9-.1 80.7-198.2 92.1 198.3 245.9-.1 332.1-816c29.4-73.4 10.9-134.9-8.7-171.4zM865.8 525.8l-123-274.2C750 234.8 792.3 145 878.6 145c35.8 0 70.4 16.5 87.4 45.4l.1.1c9.3 17 18 45.5 4 79.6L865.8 525.8zm502.1-210L1135.4 895h-100.7L923.6 628.6l137.3-334.5s56-149.2 184-149.2c48.2 0 94.7 22.6 117.6 61.9l.1.1c12.3 23.3 24.1 62.3 5.3 108.9z" style="fill:#fff"/></svg>