<svg version="1.1" id="Layer_1" xmlns="http://www.w3.org/2000/svg" x="0" y="0" width="612" height="792" style="enable-background:new 0 0 612 792" xml:space="preserve"><style>.st2{fill:#0075c9}</style><path d="M275.1 396c0 26.3-21.3 47.6-47.6 47.6s-47.6-21.3-47.6-47.6 21.3-47.6 47.6-47.6 47.6 21.3 47.6 47.6" style="fill:#fff"/><path d="M243.7 372.7c-1.8 0-3.3.6-4.6 1.8-1.3 1.2-1.9 2.7-1.9 4.6 0 3.3 3.8 6.5 11.4 9.7 10.4 4.5 17.4 8.6 21 12.4 1.8 1.9 3.2 4.2 4.1 6.8 1-3.8 1.5-7.8 1.5-11.9 0-8.7-2.3-16.8-6.4-23.8l-15.5 8.3c-2.7-5.3-5.8-7.9-9.6-7.9" style="fill:#a8ad00"/><path class="st2" d="m214.2 424 16.8-7.8c2.3 4.1 4.1 6.7 5.3 7.8 2.4 2.2 5.2 3.3 8.6 3.3 6.6 0 10-3 10-9.1 0-3.5-2.6-6.7-7.7-9.8-2-1-4-2-5.9-2.9-2-.9-4-1.9-6-2.9-5.7-2.8-9.7-5.6-12.1-8.4-3-3.5-4.5-8.1-4.5-13.7 0-7.4 2.5-13.5 7.6-18.4 5.2-4.8 11.5-7.2 18.9-7.2 3.1 0 6 .5 8.7 1.4-7.5-5-16.6-7.9-26.3-7.9-26.3 0-47.6 21.3-47.6 47.6s21.3 47.6 47.6 47.6c2 0 4-.1 6-.4-8.6-2.8-15.1-9.2-19.4-19.2M304.9 380.5l-2.5 2.2c-.9-1.2-1.7-1.8-2.6-1.8-.4 0-.8.1-1.1.3-.3.2-.4.5-.4.8 0 .3.1.6.3.8.3.3 1.1 1.1 2.4 2.2 1.3 1.1 2 1.7 2.3 2 .7.7 1.1 1.3 1.4 2 .3.6.4 1.3.4 2 0 1.4-.5 2.6-1.5 3.5-1 .9-2.3 1.4-3.9 1.4-1.2 0-2.3-.3-3.2-.9-.9-.6-1.7-1.6-2.4-2.9l2.8-1.7c.8 1.5 1.8 2.3 2.9 2.3.6 0 1.1-.2 1.4-.5.4-.3.6-.7.6-1.2 0-.4-.1-.8-.4-1.2-.3-.4-.9-1-1.9-1.8-1.9-1.5-3.1-2.7-3.7-3.6-.6-.8-.8-1.7-.8-2.5 0-1.2.5-2.3 1.4-3.1.9-.9 2.1-1.3 3.4-1.3.9 0 1.7.2 2.5.6.8.6 1.7 1.4 2.6 2.4M311.5 378.2h9.6v3.2h-3.2v14.2h-3.3v-14.2h-3.1zM328.3 378.2h9.5v3.2h-6.2v3.2h6.2v3.1h-6.2v4.6h6.2v3.3h-9.5zM345.9 378.2h3.5c1.9 0 3.3.2 4.1.5.8.3 1.5.9 2 1.7.5.8.8 1.7.8 2.8 0 1.1-.3 2.1-.8 2.9-.5.8-1.4 1.4-2.5 1.7l4.1 7.8h-3.6l-3.9-7.4h-.3v7.4H346v-17.4zm3.4 6.8h1c1.1 0 1.8-.1 2.2-.4.4-.3.6-.7.6-1.4 0-.4-.1-.7-.3-1-.2-.3-.5-.5-.8-.6-.3-.1-.9-.2-1.8-.2h-.9v3.6zM364.6 378.2h3.4v14.2h4.8v3.2h-8.2zM379.9 378.2h3.3v17.4h-3.3zM391.8 378.2h3.2l7.5 11.4v-11.4h3.3v17.4h-3.2l-7.4-11.4v11.4h-3.4zM430.8 381l-2.3 2.3c-1.5-1.6-3.2-2.3-5.2-2.3-1.7 0-3.1.6-4.3 1.7-1.2 1.1-1.7 2.5-1.7 4.2 0 1.7.6 3.1 1.8 4.3 1.2 1.2 2.7 1.8 4.5 1.8 1.2 0 2.1-.2 2.9-.7.8-.5 1.4-1.2 1.9-2.3h-5v-3.1h8.8v.7c0 1.5-.4 3-1.2 4.3-.8 1.4-1.8 2.4-3.1 3.1-1.3.7-2.7 1.1-4.4 1.1-1.8 0-3.4-.4-4.8-1.2-1.4-.8-2.5-1.9-3.4-3.4-.8-1.5-1.2-3-1.2-4.7 0-2.3.8-4.3 2.3-6 1.8-2 4.2-3 7.1-3 1.5 0 2.9.3 4.3.8.8.4 1.9 1.3 3 2.4M349.1 403.3l5 10.7h-1.2l-1.7-3.5h-4.6l-1.7 3.5h-1.2l5.1-10.7h.3zm-.2 2.2-1.8 3.9h3.7l-1.9-3.9zM357.6 404.3v-1h5.9v1h-2.4v9.7H360v-9.7zM367.6 414l1.5-10.7h.2l4.3 8.8 4.3-8.8h.2l1.5 10.7h-1l-1.1-7.7-3.8 7.7h-.2l-3.9-7.7-1 7.7z"/></svg>