<svg version="1.1" id="Layer_1" xmlns="http://www.w3.org/2000/svg" xmlns:xlink="http://www.w3.org/1999/xlink" x="0" y="0" width="520" height="336.7" style="enable-background:new 0 0 520 336.7" xml:space="preserve"><style>.st3,.st4{clip-path:url(#SVGID_2_);fill:#231f20}.st4{fill:#fff}</style><defs><path id="SVGID_1_" d="M0 0h520v336.7H0z"/></defs><clipPath id="SVGID_2_"><use xlink:href="#SVGID_1_" style="overflow:visible"/></clipPath><path d="M248.5 104.5c96.1-21.2 179.6-14 185.9 16.2 6.3 30.1-66.9 72-163 93.2-96.1 21.2-179.6 14-185.9-16.2-6.3-30.1 66.9-72 163-93.2" style="clip-path:url(#SVGID_2_);fill-rule:evenodd;clip-rule:evenodd;fill:#87caef"/><path d="M249.9 109.7c77.1-17 143.8-8.5 148.5 18.9 4.7 27.4-54.4 63.6-131.5 80.6-77.1 17-143.8 8.5-148.5-18.9-4.7-27.4 54.4-63.6 131.5-80.6" style="clip-path:url(#SVGID_2_);fill-rule:evenodd;clip-rule:evenodd;fill:#fff"/><path d="M382.1 132c0-9.6-13-14.7-25.9-14.7-9 0-18 2.4-22.7 7.2-.9-1-1.9-1.9-3-2.7-3.4-2.4-7.7-3.6-12.9-3.6h-78c-1.5 0-2.9.4-4.1 1.1-1.1-.7-2.4-1.1-3.8-1.1h-87.6c-3.4 0-6.1 1.8-7.3 5-4.1 11.3-4.1 11.3-4.1 12.4 0 3.7 2.9 6.5 6.7 6.5h17.5c-20.1 54.5-20.1 54.5-20.1 55.7 0 3.7 2.8 6.5 6.6 6.5h32.9c3.3 0 6-1.9 7.2-5l21.1-57.1h20.9c-5.5 15-9.9 26.8-13.1 35.5-7 19.1-7 19.1-7 20.2 0 3.7 2.9 6.5 6.7 6.5h32.6c3.4 0 6.1-1.8 7.3-5l11.1-29.9c.9.4 1.8.6 2.9.6h34.6c8.2 0 15.4-2.2 21.7-6.7-12.1 32.6-12.3 33.4-12.2 34.7.1 3.6 2.9 6.3 6.6 6.3h32.8c3.3 0 6.1-1.9 7.2-5 17.6-47.6 17.9-48.4 17.9-50 0-2.2-1.1-4-2.7-5.2 5.8-2.6 10.2-6.6 10.2-12.2m-99.8 13.9h-10.8l1.4-3.8h14.8c.5 0 .9 0 1.2.1-.3.7-.8 1.6-2.5 2.6-1.3.7-2.6 1.1-4.1 1.1m54.6-3.8c.4.3.9.5 1.4.8h-1.5c0-.3.1-.5.1-.8" style="clip-path:url(#SVGID_2_);fill:#d1d3d4"/><path class="st3" d="M377.5 123.8c0-9.6-13-14.7-25.9-14.7-9 0-18 2.4-22.7 7.2-.9-1-1.9-1.9-3-2.7-3.4-2.4-7.7-3.6-12.9-3.6h-78c-1.5 0-2.9.4-4.1 1.1-1.1-.7-2.4-1.1-3.8-1.1h-87.6c-3.4 0-6.1 1.8-7.3 5-4.1 11.3-4.1 11.3-4.1 12.4 0 3.7 2.9 6.5 6.7 6.5h17.5c-20.1 54.5-20.1 54.5-20.1 55.7 0 3.7 2.8 6.5 6.6 6.5h32.9c3.3 0 6-1.9 7.2-5L200 134h20.9c-5.5 15-9.9 26.8-13.1 35.5-7 19.1-7 19.1-7 20.2 0 3.7 2.9 6.5 6.7 6.5H240c3.3 0 6.1-1.9 7.3-5l11.1-29.9c.9.4 1.8.6 2.9.6h34.6c8.2 0 15.4-2.2 21.7-6.7-12.1 32.6-12.3 33.4-12.2 34.7.1 3.6 2.9 6.3 6.6 6.3h32.8c3.3 0 6.1-1.9 7.2-5 17.6-47.6 17.9-48.4 17.9-50 0-2.2-1.1-4-2.7-5.2 6-2.7 10.3-6.7 10.3-12.2m-99.7 13.8H267l1.4-3.8h14.8c.5 0 .9 0 1.2.1-.3.7-.8 1.6-2.5 2.6-1.4.7-2.7 1.1-4.1 1.1m54.5-3.7c.4.3.9.5 1.3.8h-1.5c.1-.3.2-.6.2-.8"/><path class="st4" d="M224.6 127c2.5-6.9 3.8-10.5 3.8-10.6 0-.7-.4-1-1.2-1h-87.6c-1.1 0-1.8.5-2.2 1.4-2.5 6.9-3.8 10.4-3.8 10.5 0 .7.4 1 1.3 1h25.3c-15 40.6-22.5 61-22.5 61.1 0 .7.4 1 1.1 1h32.9c1 0 1.7-.5 2.1-1.4l22.4-60.7h26.2c1.1 0 1.8-.4 2.2-1.3M321 144.2c4.4-5.2 6.5-10.6 6.5-16.2 0-4.4-1.6-7.7-4.7-10-2.5-1.8-5.7-2.6-9.7-2.6h-78c-1.1 0-1.8.5-2.2 1.4-17.9 48.3-26.8 72.5-26.8 72.6 0 .7.4 1 1.3 1H240c1.1 0 1.8-.5 2.2-1.4l22.4-60.7h18.6c4.5 0 6.8 1.6 6.8 4.9 0 .7-.2 1.5-.5 2.4-.8 2.3-2.5 4.2-5 5.6-2.2 1.2-4.4 1.9-6.8 1.9H266c-1.1 0-1.9.5-2.2 1.4l-3.7 10.2c-.1.1-.1.2-.1.4 0 .7.4 1 1.2 1h34.6c10.1 0 18.5-4 25.2-11.9M363.2 140.1h-32.9c-1 0-1.7.5-2.1 1.4-17.9 48.3-17.5 47.8-17.5 47.9 0 .7.4 1 1.2 1h32.8c1 0 1.7-.5 2.1-1.4 17.9-48.3 17.5-47.8 17.5-47.9 0-.7-.4-1-1.1-1M351.6 114.6c-11.2 0-20.4 4.1-20.4 9.2s9.2 9.2 20.4 9.2 20.4-4.1 20.4-9.2-9.1-9.2-20.4-9.2"/><path class="st3" d="m120.4 238 .9-5.2 2.9.5-.8 5.1c0 .2.3.3 1 .4l2 .3c.6.1.9.1 1-.1l.8-5.1 2.9.5-.9 5.2c-.1.5-.2.8-.4.9-.6.4-1.5.5-2.8.3l-3.7-.6c-1.3-.2-2.2-.6-2.6-1.2-.3-.2-.3-.6-.3-1M131.5 241.5l.6-5.6c0-.4.3-.7.7-1 .5-.3 1.1-.3 1.8-.3.3 0 .6.1 1 .2.8.2 1.3.6 1.5 1.2l1.6 4.2.6-5.1 2.8.3-.6 5.8c0 .4-.3.6-.8.8-.5.2-1 .3-1.7.2-1.3-.1-2.1-.6-2.4-1.5l-1.6-4.2-.5 5.1-3-.1z"/><path transform="matrix(.07144 -.9974 .9974 .07144 -104.33 366.486)" class="st3" d="M141.2 237.8h7v2.9h-7z"/><path class="st3" d="M148.2 242.6c-.4-.2-.6-.6-.6-1l.2-4c0-1 1.1-1.5 3.1-1.4l3.5.1c2 .1 3 .6 3 1.6l-.1 4c0 .4-.2.7-.5.9-.4.3-.9.5-1.5.5l2 1.2-4.1-.2-1.9-1.1h-.6c-.4 0-.8-.1-1.3-.2l-1.2-.4m3.3-.9 1.8.1c.4 0 .6 0 .8-.1.2-.1.2-.2.2-.3l.1-3.1c0-.2-.1-.3-.2-.4-.1-.1-.4-.1-.8-.1l-1.8-.1c-.4 0-.6 0-.8.1-.1.1-.2.2-.2.4l-.1 3c0 .2.1.3.2.4.2 0 .5 0 .8.1M158.9 241.7v-5.3h2.9v5.2c.1.2.4.3 1 .3h2c.6 0 .9-.1 1-.3v-5.3h2.9v5.3c0 .5-.1.8-.3 1-.5.5-1.4.8-2.7.8h-3.8c-1.3 0-2.3-.3-2.8-.8-.1-.2-.2-.5-.2-.9M170.4 241.8l-.1-4c0-.1 0-.2.1-.3.2-.8 1.1-1.2 2.7-1.3l6-.2v1.5l-5.3.1h-.2c-.3.1-.5.2-.5.4v.8l6-.2v1.5l-6 .2v.8c0 .3.3.4.8.4l5.2-.1v1.5l-5.6.2c-2 .2-3.1-.3-3.1-1.3M186.3 241.3l-.2-4v-.3c.2-.8 1.1-1.3 2.7-1.4l6-.4.1 1.5-5.3.3h-.2c-.3.1-.5.2-.5.4v.8l5.9-.4.1 1.5-5.9.4v.8c0 .3.3.4.8.4l5.2-.3.1 1.5-5.6.3c-2.1.3-3.2-.1-3.2-1.1M195.7 235.2l3.1-.3 3.3 4.7 2.6-5.2 3.1-.3-3.5 6.5c-.3.6-1 .9-1.9 1-1 .1-1.7-.2-2.1-.7l-4.6-5.7zM209 239.6l-.4-4v-.3c.2-.8 1-1.3 2.6-1.5l6-.6.2 1.5-5.2.6h-.2c-.3.1-.5.2-.5.5l.1.8 5.9-.6.2 1.5-5.9.6.1.8c0 .3.3.4.8.4l5.2-.5.2 1.5-5.6.6c-2.3.1-3.4-.3-3.5-1.3M219.6 239.9l-.7-5.6c-.1-.4.1-.8.5-1.1.4-.4 1-.6 1.7-.7.3 0 .6-.1 1 0 .8 0 1.4.3 1.7.8l2.6 3.8-.7-5.1 2.8-.4.7 5.7c0 .4-.1.7-.5 1-.4.3-1 .5-1.6.6-1.3.2-2.2-.1-2.7-.9l-2.6-3.7.7 5.1-2.9.5zM229.8 233.1l-.2-1.5 8.6-1.3.3 1.5-2.9.4.8 5.4-2.9.5-.8-5.5zM244.6 230.6v-.4c.2-.7 1-1.2 2.5-1.5l5.8-1.1.3 1.5-5.1.9c-.3.1-.5.2-.6.3v.2l.1.5v.1c.1.2.3.2.8.2h.2l2.1-.4c1.5-.3 2.4-.1 2.8.6.1.1.1.2.1.3l.3 1.4c.1.5-.1.9-.6 1.2-.5.4-1.1.6-2 .8l-5.7 1.1-.3-1.5 5-.9.2-.1c.3-.1.5-.3.4-.5l-.1-.5c0-.2-.3-.3-.7-.2l-2.4.4c-1 .2-1.8.1-2.4-.2-.3-.2-.5-.4-.6-.7l-.1-1.5zM254.7 228.8v-.4c.1-.4.3-.8.8-1.1.4-.3 1-.5 1.9-.7l3.4-.7c2-.4 3.1-.1 3.3.9l.8 3.9c.2 1-.7 1.7-2.7 2.1l-3.4.7c-.9.2-1.5.2-2 .2-.5-.1-.9-.3-1.1-.7-.1-.1-.1-.2-.1-.3l-.9-3.9zm3.5 2.9c.1.3.4.4 1 .3l1.7-.4c.3-.1.6-.1.7-.2.1-.1.2-.2.1-.4l-.6-3c0-.2-.1-.3-.3-.3-.2 0-.4 0-.8.1l-1.8.4c-.4.1-.6.2-.7.3-.1.1-.2.2-.1.4l.8 2.8zM266.4 230.2l-1.2-5.1 2.8-.7 1.2 5c0 .2.3.3.8.1l5-1.2.3 1.5-5.3 1.2c-.2 0-.4.1-.5.1-1 .2-1.8.2-2.3 0-.4 0-.7-.3-.8-.9M276.3 227.8l-1.3-5.1 2.8-.7 1.3 5c.1.2.4.2 1 0l1.9-.5c.6-.2.9-.3.9-.5v-.1l-1.3-5 2.8-.7 1.3 5.1c.1.4.1.8 0 1-.4.6-1.2 1.1-2.5 1.4l-3.6 1c-1.3.3-2.3.3-2.9-.1-.1 0-.3-.3-.4-.8M286.1 221.4l-.5-1.4 8.4-2.5.4 1.5-2.8.8 1.6 5.3-2.8.8-1.6-5.3z"/><path transform="rotate(-16.824 297.704 220.06)" class="st3" d="M296.2 216.6h2.9v7h-2.9z"/><path class="st3" d="M300.2 217.2v-.4c0-.4.3-.8.7-1.1.4-.3 1-.6 1.8-.8l3.3-1c1.9-.6 3.1-.4 3.4.5l1.2 3.8c.3 1-.5 1.7-2.5 2.3l-3.3 1c-.9.3-1.5.4-2 .4s-.9-.2-1.2-.6c-.1-.1-.2-.2-.2-.3l-1.2-3.8zm3.8 2.5c.1.3.4.4 1.1.2l1.7-.5c.3-.1.6-.2.7-.3.1-.1.2-.2.1-.4l-.9-2.9c-.1-.2-.2-.3-.3-.3-.2 0-.4 0-.8.1l-1.7.5c-.4.1-.6.2-.7.3-.1.1-.1.2-.1.4l.9 2.9zM312.6 219.1l-1.7-5.3c-.1-.4 0-.8.3-1.2.3-.4.9-.7 1.6-1 .3-.1.6-.2 1-.2.8-.1 1.4.1 1.9.5l3.2 3.2-1.5-4.9 2.6-.8 1.7 5.5c.1.3 0 .7-.4 1.1-.4.4-.8.7-1.5.9-1.2.4-2.2.3-2.8-.4l-3.2-3.2 1.5 4.9-2.7.9zM321.8 210.3c0-.1-.1-.2 0-.4.1-.8.9-1.4 2.2-1.8l5.6-1.8.5 1.4-4.9 1.6c-.3.1-.4.2-.5.4v.2l.1.4v.1c.1.1.4.2.8.1h.2l2-.7c1.4-.5 2.4-.4 2.9.2.1.1.1.2.1.3l.4 1.3c.1.4 0 .9-.4 1.3s-1 .8-1.9 1l-5.5 1.8-.5-1.4 4.9-1.6.2-.1c.3-.2.4-.3.4-.5l-.2-.5c-.1-.2-.3-.2-.7-.1l-2.3.7c-.9.3-1.7.3-2.4.1-.4-.1-.6-.3-.7-.6l-.3-1.4z"/></svg>