<svg version="1.1" id="Layer_1" xmlns="http://www.w3.org/2000/svg" x="0" y="0" width="842" height="446" style="enable-background:new 0 0 842 446" xml:space="preserve"><style>.st0{fill:#52b848}.st1{fill:#c32026}.st8{fill:#fff}</style><path class="st0" d="M226 325.1h2.7c2.4 6.9 6.5 10.5 12.1 10.5 4.6 0 8.1-3 8.1-6.9 0-2.3-1.2-4.4-3.5-6.2-1.6-1.2-1.9-1.4-8-4.6-3.8-2-5.8-3.3-7.5-5.1-2.2-2.2-3.5-5.2-3.5-8.1 0-6.7 5.9-11.4 14.3-11.4 2.5 0 6.5.7 9.7 1.6.5.1.8.2 1.1.2.5 0 .8-.1 1.4-.7h1.5l1.3 11.3h-2.8c-1.4-5.6-6-9.3-11.4-9.3-3.9 0-6.9 2.1-6.9 4.8 0 2.5 1.8 4.6 6.3 6.9 5.7 3 6.6 3.6 9.2 5.3 5.6 3.7 8 7.6 8 12.5 0 7.3-6.7 13-15.2 13-3.1 0-4.4-.3-10.7-2.1-.4-.1-.8-.2-1-.2-.6 0-1.1.4-1.4 1.1H228l-2-12.6zM273.5 335.2h1.7c2.7 0 3.9-.3 5-1.4.9-.8 1.1-1.8 1.1-4.8v-31H274c-6.3 0-7.1.8-8.4 8.3h-2.9l1.2-13.1h2.3c1.2 1.2 1.2 1.2 5.1 1.2h31.5c2.4 0 2.9-.2 3.6-1.2h2.2l1.2 13.1h-2.7c-1.5-7.5-2.3-8.3-7.7-8.3H291v31.1c0 3.2.3 4.2 1.4 5 1 .8 2.2 1.1 4.6 1.1h1.7v2.7h-25.2v-2.7zM310.9 335.2h2.3c2.7 0 3.9-.3 5-1.4.9-.8 1.1-1.8 1.1-4.8v-25.8c0-3.2-.3-4.2-1.4-5.1-1-.8-2.2-1-4.6-1h-.7v-2.7h38.6l.8 10.1h-2.7c-.3-2.5-.7-3.8-1.4-4.8-.9-1.2-1.6-1.4-4.6-1.4H329v16h10.3c3.5 0 4.8-.5 5.6-1.9.4-.7.5-1.3.7-3.1h2.9v13.9h-2.8v-.7c0-3.3-1.6-4.4-6.3-4.4H329v9.9c0 6.2 0 6.2 3.8 6.2h9.4c4.7 0 6.2-.6 7.6-2.9.7-1.2 1.2-2.4 1.6-4.2h2.6l-.9 11h-42.2v-2.9zM357.7 335.2c5-.1 5.6-.9 6-7.4l1.6-25.4c.1-.7.1-1.2.1-1.7 0-2.6-1.2-3.5-4.7-3.7v-2.7h14.8l13.7 29.5 13.1-29.5h15.1v2.7l-.8.1c-3.7.3-4.4.6-4.3 3.3l.1 2 1.7 25.8c.4 6.1.7 6.5 6.2 6.9v2.7H398v-2.7h1.2c4.4 0 5.4-.9 5.4-4.7 0-.6 0-.6-.2-3.1l-1.6-24.9L387 338h-1.7l-16.1-34.7-1.6 25-.1 2.2c-.1 3.6 1.4 4.7 5.8 4.7v2.7h-15.6v-2.7z"/><path class="st1" d="M440.1 335.2h.7c2.1 0 3.6-.5 4.4-1.6.6-.8.7-1.3.7-4.1v-30.9c-1.3-.9-3.5-1.5-5.6-1.5v-2.7h14.5l28.6 29.8v-21.1c0-5-1-6-6.6-6h-.8v-2.7h18v2.7h-.8c-2 0-3.9.4-4.6.9-1 .7-1.1 1.2-1.1 4.7v35.6h-3.8L450 303.1V329c0 3.7.5 4.8 2.6 5.7 1 .4 2.2.6 4.4.6v2.7h-16.9v-2.8zM524.3 336c5 0 8.8-2.1 11.3-6.1 1.9-3.1 3.1-7.8 3.1-12.2 0-6.1-1.8-11.6-5-16-2.7-3.6-6.7-5.6-11.3-5.6-8.9 0-14.6 6.9-14.6 17.5 0 13.3 6.7 22.4 16.5 22.4zm-19.1-36.6c4.6-4 11.8-6.4 18.9-6.4 14.8 0 25.1 9.2 25.1 22.3 0 13.8-11.1 23.7-26.5 23.7-15 0-25.4-9.3-25.4-22.7 0-6.4 2.9-12.5 7.9-16.9zM552.5 335.2h.9c2.7 0 3.9-.3 5-1.4.9-.8 1.1-1.8 1.1-4.8v-25.8c0-3.2-.3-4.2-1.4-5.1-1-.8-2.2-1-4.6-1h-.8v-2.7h23.8v2.7h-1.2c-2.7 0-3.9.3-5 1.4-.9.9-1.1 1.8-1.1 4.8v26.2c0 4.3.3 4.6 3.6 4.6h7.5c3.6 0 5.3-.5 6.8-1.9 1.4-1.4 3.8-4.2 5.4-6.4h2.8l-5.1 12.2h-37.7v-2.8zM622.7 317.8l-6.5-16.3-5.8 16.3h12.3zM594 335.2h1c3.5 0 5.1-1.5 6.9-6.5l12-33.5-.7-2h10.3l14.1 35.6c1.8 4.6 3.5 6 7.1 6.3v2.7h-22.9v-2.7h2.4c3 0 4.3-.8 4.3-2.7 0-.6-.3-1.6-.9-3l-3.2-7.8h-15.2l-2.9 8.3c-.4 1.2-.7 2.1-.7 2.6 0 .8.4 1.5 1.1 1.9.8.4 3.1.7 5.1.7h.9v2.7H594v-2.6z"/><path d="M402 157.5c4.8-1.8 10.7 1.3 11.9 6.3 1.4 4.8-1.9 10.3-6.8 11.3-4.7 1.2-10-2.1-11-6.8-1.1-4.5 1.6-9.4 5.9-10.8z"/><defs><filter id="Adobe_OpacityMaskFilter" filterUnits="userSpaceOnUse" x="394.9" y="155.9" width="20.4" height="20.4"><feColorMatrix values="1 0 0 0 0 0 1 0 0 0 0 0 1 0 0 0 0 0 1 0"/></filter></defs><mask maskUnits="userSpaceOnUse" x="394.9" y="155.9" width="20.4" height="20.4" id="path-9-outside-1_1_"><path style="fill:#fff;filter:url(#Adobe_OpacityMaskFilter)" d="M393.2 155.3h22.7V178h-22.7z"/><path d="M402 157.5c4.8-1.8 10.7 1.3 11.9 6.3 1.4 4.8-1.9 10.3-6.8 11.3-4.7 1.2-10-2.1-11-6.8-1.1-4.5 1.6-9.4 5.9-10.8z"/></mask><path d="M402 157.5c4.8-1.8 10.7 1.3 11.9 6.3 1.4 4.8-1.9 10.3-6.8 11.3-4.7 1.2-10-2.1-11-6.8-1.1-4.5 1.6-9.4 5.9-10.8z" style="mask:url(#path-9-outside-1_1_);fill:none;stroke:#fff;stroke-width:2"/><path d="M445.5 178.4c3.7-1.4 8.1 1 8.9 4.9 1 3.6-1.5 7.6-5.2 8.3-3.5.8-7.3-1.5-8.1-4.9-1-3.3 1.1-7.2 4.4-8.3z"/><defs><filter id="Adobe_OpacityMaskFilter_1_" filterUnits="userSpaceOnUse" x="439.9" y="177.1" width="15.8" height="15.8"><feColorMatrix values="1 0 0 0 0 0 1 0 0 0 0 0 1 0 0 0 0 0 1 0"/></filter></defs><mask maskUnits="userSpaceOnUse" x="439.9" y="177.1" width="15.8" height="15.8" id="path-10-outside-2_1_"><path style="fill:#fff;filter:url(#Adobe_OpacityMaskFilter_1_)" d="M438.2 175.8h18.7v18.7h-18.7z"/><path d="M445.5 178.4c3.7-1.4 8.1 1 8.9 4.9 1 3.6-1.5 7.6-5.2 8.3-3.5.8-7.3-1.5-8.1-4.9-1-3.3 1.1-7.2 4.4-8.3z"/></mask><path d="M445.5 178.4c3.7-1.4 8.1 1 8.9 4.9 1 3.6-1.5 7.6-5.2 8.3-3.5.8-7.3-1.5-8.1-4.9-1-3.3 1.1-7.2 4.4-8.3z" style="mask:url(#path-10-outside-2_1_);fill:none;stroke:#fff;stroke-width:2"/><path d="M421.8 144.1c.3-1.9 1.4-3.9 3.2-4.6 1.2-.5 2.2.7 2.5 1.8.7 2.6.4 5.3.4 7.9 0 31.4 0 62.9.1 94.3h2.5v-74.7c.1-1.3 0-3.2 1.5-3.9 1.8-.1 2.8 1.8 3.1 3.3 1.2 6.1 2.2 12.3 3.4 18.4.6 3.2 2.8 6.1 5.9 7.3 3.7 1.5 7.7.6 11.5.1 3.6-.4 7.1-1 10.7-1.2 1.3-.2 2.8.6 2.9 2 .1 1.3-1.1 2.3-2.2 2.5l-17.7 4.8c-3.7.9-7 3.3-9 6.5-.9 1.2-.8 2.7-.5 4.1 1.4 10.5 2.7 21 4.1 31.5 23.6 2 47 7.9 68.1 18.8 7.8 4.1 15.3 8.8 22.1 14.5-20.2-9.4-41.9-15.3-63.9-18.6-32.8-4.8-66.5-4.3-99.1 1.8-18.4 3.5-36.5 8.9-53.5 17 15-12.3 32.9-20.8 51.4-26.3 13-3.9 26.3-6.2 39.8-7.4 1.3-12.8 2.6-25.6 3.9-38.3.2-2.2.7-4.6-.2-6.7-1.6-3.9-4.9-7.2-9-8.4-8.3-2.7-16.6-5.3-24.9-8-1.6-.4-3.1-2-2.7-3.8.4-1.9 2.6-2.4 4.3-2.1 6.7.7 13.5 1.6 20.2 2.4 4.4.5 9.4-.2 12.7-3.4 2.6-2.3 3.9-5.7 4.4-9.1 1.3-7.5 2.7-15 4-22.5z"/><defs><filter id="Adobe_OpacityMaskFilter_2_" filterUnits="userSpaceOnUse" x="317.1" y="138.4" width="217.8" height="140.3"><feColorMatrix values="1 0 0 0 0 0 1 0 0 0 0 0 1 0 0 0 0 0 1 0"/></filter></defs><mask maskUnits="userSpaceOnUse" x="317.1" y="138.4" width="217.8" height="140.3" id="path-11-outside-3_1_"><path style="fill:#fff;filter:url(#Adobe_OpacityMaskFilter_2_)" d="M316.4 137.8h220v141.3h-220z"/><path d="M421.8 144.1c.3-1.9 1.4-3.9 3.2-4.6 1.2-.5 2.2.7 2.5 1.8.7 2.6.4 5.3.4 7.9 0 31.4 0 62.9.1 94.3h2.5v-74.7c.1-1.3 0-3.2 1.5-3.9 1.8-.1 2.8 1.8 3.1 3.3 1.2 6.1 2.2 12.3 3.4 18.4.6 3.2 2.8 6.1 5.9 7.3 3.7 1.5 7.7.6 11.5.1 3.6-.4 7.1-1 10.7-1.2 1.3-.2 2.8.6 2.9 2 .1 1.3-1.1 2.3-2.2 2.5l-17.7 4.8c-3.7.9-7 3.3-9 6.5-.9 1.2-.8 2.7-.5 4.1 1.4 10.5 2.7 21 4.1 31.5 23.6 2 47 7.9 68.1 18.8 7.8 4.1 15.3 8.8 22.1 14.5-20.2-9.4-41.9-15.3-63.9-18.6-32.8-4.8-66.5-4.3-99.1 1.8-18.4 3.5-36.5 8.9-53.5 17 15-12.3 32.9-20.8 51.4-26.3 13-3.9 26.3-6.2 39.8-7.4 1.3-12.8 2.6-25.6 3.9-38.3.2-2.2.7-4.6-.2-6.7-1.6-3.9-4.9-7.2-9-8.4-8.3-2.7-16.6-5.3-24.9-8-1.6-.4-3.1-2-2.7-3.8.4-1.9 2.6-2.4 4.3-2.1 6.7.7 13.5 1.6 20.2 2.4 4.4.5 9.4-.2 12.7-3.4 2.6-2.3 3.9-5.7 4.4-9.1 1.3-7.5 2.7-15 4-22.5z"/></mask><path d="M421.8 144.1c.3-1.9 1.4-3.9 3.2-4.6 1.2-.5 2.2.7 2.5 1.8.7 2.6.4 5.3.4 7.9 0 31.4 0 62.9.1 94.3h2.5v-74.7c.1-1.3 0-3.2 1.5-3.9 1.8-.1 2.8 1.8 3.1 3.3 1.2 6.1 2.2 12.3 3.4 18.4.6 3.2 2.8 6.1 5.9 7.3 3.7 1.5 7.7.6 11.5.1 3.6-.4 7.1-1 10.7-1.2 1.3-.2 2.8.6 2.9 2 .1 1.3-1.1 2.3-2.2 2.5l-17.7 4.8c-3.7.9-7 3.3-9 6.5-.9 1.2-.8 2.7-.5 4.1 1.4 10.5 2.7 21 4.1 31.5 23.6 2 47 7.9 68.1 18.8 7.8 4.1 15.3 8.8 22.1 14.5-20.2-9.4-41.9-15.3-63.9-18.6-32.8-4.8-66.5-4.3-99.1 1.8-18.4 3.5-36.5 8.9-53.5 17 15-12.3 32.9-20.8 51.4-26.3 13-3.9 26.3-6.2 39.8-7.4 1.3-12.8 2.6-25.6 3.9-38.3.2-2.2.7-4.6-.2-6.7-1.6-3.9-4.9-7.2-9-8.4-8.3-2.7-16.6-5.3-24.9-8-1.6-.4-3.1-2-2.7-3.8.4-1.9 2.6-2.4 4.3-2.1 6.7.7 13.5 1.6 20.2 2.4 4.4.5 9.4-.2 12.7-3.4 2.6-2.3 3.9-5.7 4.4-9.1 1.3-7.5 2.7-15 4-22.5z" style="mask:url(#path-11-outside-3_1_);fill:none;stroke:#fff;stroke-width:2"/><path class="st0" d="M408.9 244.2c-12 1.4-26.8 3.5-39.8 7.4-18.5 5.5-36.4 14-51.4 26.3 17-8 35.1-13.5 53.5-17 32.6-6.1 66.3-6.7 99.1-1.8 22 3.3 43.7 9.2 63.9 18.6-6.8-5.7-14.3-10.4-22.1-14.5-21.1-10.9-44.5-16.6-68.1-18.8-1.9-.3-10.8-.5-19.2-.5-7.8-.2-15 0-15.9.3zM371.3 140.9c0 7.8-6.3 14.1-14.1 14.1s-14.1-6.3-14.1-14.1 6.3-14.1 14.1-14.1c7.8-.1 14.1 6.3 14.1 14.1z"/><path class="st8" d="M355.6 144.7c-.2-.3-.6-.4-.9-.5-.4-.1-.8-.1-1.2-.1-.9 0-1.7 0-2.6.1h-1.3c-.1 0-.2.1-.2.2s.1.2.2.2h2.3c.7 0 1.4-.1 2.1 0 .4 0 1.1.4 1.2.5l.1.1c.1 0 .2 0 .3-.1.1-.2.1-.3 0-.4z"/><path class="st8" d="M367.4 139.3v-5l-.1-.1s-.1 0-.1-.1c-.2-.1-.4 0-.5 0v-.8c0-.1-.1-.3-.3-.3h-.4c-1.1 0-2.3 0-3.4-.1h-1.9c-.7 0-1.3 0-2 .2-.3.1-.6.2-.9.4-.2.1-.5.3-.7.5l-.3-.3-.2-.2c-.6-.4-1.4-.6-2.1-.6h-1.8c-.7 0-1.5 0-2.2.1h-2.6c-.2 0-.3.1-.3.3v.8h-.5c-.1.1-.3.2-.3.3v.4c0 1.4-.1 4.5 0 4.5v8.4c0 .2.1.3.3.4h6.9c.2-.1.3-.3.5-.5l1-1s-.1 0-.2-.1c-.7-.1-1.5-.1-2.2-.1-1.6 0-3.2.1-4.8.1V133.5h3c1.1 0 2.1-.1 3.2 0 .2 0 .5 0 .7.1h.1c.5.1 1 .3 1.4.7.1.1.2.1.2.2v13c-.1-.1-.2-.1-.3-.2-.3-.2-.7-.3-1-.4l-1.2 1.2c-.1.1-.2.1-.2.2h1.4s.1 0 .1.1c.1.2.3.3.5.4.4.1.8.2 1.1.2.4 0 .8-.1 1.2-.2.2-.1.4-.2.4-.4h1.5s0-.1-.1-.1l-1.4-1.4c-.1 0-.2 0-.3.1-.4.1-.7.3-1 .5V134.6l.3-.3.1-.1h.1c.3-.2.6-.3.9-.4.6-.1 1.2-.2 1.8-.2H366.2v13.2c-1.5 0-3 0-4.6-.1-.8 0-1.6 0-2.3.1-.1 0-.2 0-.3.1l1.4 1.4H367.1c.2 0 .5-.2.5-.4V139.4c-.2 0-.2 0-.2-.1z"/><path class="st8" d="M351.8 135.3c.7 0 1.3-.1 2 0 .5 0 1 .1 1.4.3.2.1.3.2.5.4.1.1.1.2 0 .3-.1.1-.2.1-.3 0-.1-.1-.3-.2-.4-.3-.3-.1-.6-.2-.9-.2h-4.4c-.2 0-.3-.2-.2-.3 0-.1.1-.1.2-.1h1.9c.1-.1.2-.1.2-.1zM360.2 135.3c1-.1 2.1 0 3.1 0h1.3c.1 0 .2.1.2.2s-.1.2-.2.2c-.8 0-1.6 0-2.3-.1h-1.8c-.5 0-.9.1-1.3.4-.1.1-.1.2-.3.2-.1 0-.3-.1-.3-.2s.1-.2.2-.3c.4-.3.9-.4 1.4-.4zM352 137c.6 0 1.2-.1 1.9 0 .4 0 .8.1 1.1.2.3.1.5.3.7.5.1.1 0 .4-.2.4-.1 0-.2-.1-.3-.2-.3-.3-.7-.4-1.1-.4-.6-.1-1.2 0-1.8 0-.8 0-1.6.1-2.4.1-.1 0-.2-.1-.2-.2s.1-.2.2-.2h1.3c.2-.2.5-.2.8-.2zM360.2 137h1.3c.8 0 1.6.1 2.4.1h.7c.1 0 .2.1.2.2s-.1.2-.2.2c-.8 0-1.7 0-2.5-.1-.7 0-1.4-.1-2 0-.4.1-.8.2-1 .5-.1.1-.2.1-.3 0-.1-.1-.1-.2 0-.3.3-.3.7-.5 1.1-.6h.3zM355.7 139.5c-.2-.2-.4-.4-.7-.5-.6-.2-1.2-.2-1.8-.2-.7 0-1.5 0-2.2.1l.4.4h1.9c.5 0 1.1 0 1.6.2h.2c.2.1.3.2.4.3.1.1.2 0 .3-.1-.1-.1-.1-.1-.1-.2zM362.1 138.8h-1.8c-.5 0-1 .2-1.4.5-.1.1-.2.2-.2.3 0 .1 0 .1.1.2h.1s.2 0 .2-.1c.2-.2.4-.3.6-.4.4-.1.8-.2 1.2-.2h2.2l.3-.3.1-.1c-.5.1-1 .1-1.4.1zM349.5 139.1c0-.1.1-.2.2-.2h1.2l.4.4h-1.5c-.1 0-.3-.1-.3-.2z"/><path class="st8" d="M363.5 138.8h1.1c.1 0 .3.1.2.2 0 .1-.1.2-.2.2h-1.5s0-.1.1-.1c0-.1.1-.2.3-.3zM352.6 140.5h.2c.5 0 1 0 1.6.1.5.1.9.3 1.2.6.1.1.1.2 0 .3-.1.1-.2.1-.3 0-.2-.2-.4-.3-.7-.4-.5-.1-1.1-.1-1.6-.1-.1-.2-.2-.3-.4-.5zM359.7 140.6c.5-.1 1.1-.1 1.7-.1h.3c-.1.2-.3.3-.4.4-.5 0-1.1 0-1.6.2-.2.1-.5.2-.7.4-.1.1-.2.1-.2.1-.1 0-.2-.2-.1-.4.2-.3.6-.5 1-.6zM349.7 140.6c.8 0 1.6 0 2.4-.1h.4l.4.4h-3.2c-.1 0-.2-.1-.2-.2 0 0 .1-.1.2-.1z"/><path class="st8" d="M361.8 140.5c.9 0 1.9.1 2.8.1.1 0 .2.1.2.1.1.1 0 .3-.2.3-1.1 0-2.2-.1-3.2-.1 0 0 0-.1.1-.1 0-.1.1-.2.3-.3zM352.8 142.3h1.4c.3 0 .6.1.8.2.2.1.5.3.6.4.1.1.1.2 0 .3-.1.1-.2.1-.3 0-.1-.1-.3-.3-.4-.3-.3-.1-.6-.2-.9-.2-.8-.1-1.5 0-2.3 0h-2c-.1 0-.2-.1-.2-.2s.1-.2.2-.2h3.1zM360.7 142.3h1.4c.8 0 1.7.1 2.5.1.1 0 .2.1.2.2.1.1-.1.3-.2.3-.9 0-1.9 0-2.8-.1h-1.1c-.4 0-.8 0-1.2.2-.2.1-.3.2-.5.3-.1.1-.1.1-.2.1s-.2-.2-.1-.3c.3-.4.8-.6 1.2-.6.3-.2.5-.2.8-.2zM364.6 144.1c-1 0-2-.1-3-.1-.6 0-1.3 0-1.9.1-.4.1-.8.3-1 .6 0 0 0 .1-.1.1 0 .1.1.2.2.2s.1 0 .2-.1c.2-.2.4-.3.7-.4.3-.1.5-.1.8-.1h1.7c.8 0 1.6.1 2.3.1.1 0 .2-.1.2-.1.1-.1 0-.3-.1-.3z"/><path class="st0" d="M390.6 165c0 5.7-4.7 10.4-10.4 10.4s-10.4-4.7-10.4-10.4 4.7-10.4 10.4-10.4c5.8 0 10.4 4.7 10.4 10.4z"/><path class="st8" d="M382.1 168.8c-.1 0-.2 0-.3.1-.2 0-.4.1-.5.1h-.3c-.2 0-.4.1-.6.1-.1 0-.2 0-.3.1-.2 0-.4.1-.6.1h-.3c-.2 0-.4.1-.5.1-.1 0-.2 0-.3.1-.2 0-.4.1-.6.1-.1 0-.3.1-.4.1 0 .1.1.2.1.2.1.1.1.2.2.3v.1h.2c.2 0 .4-.1.5-.1.1 0 .2 0 .3-.1.2 0 .4-.1.7-.1.1 0 .2 0 .3-.1.2 0 .4-.1.5-.1.1 0 .3-.1.4-.1.2 0 .4-.1.6-.1.1 0 .2 0 .3-.1.3-.1.6-.1.8-.2.1-.1 0-.3 0-.5h-.2zm-.7-1c-.1 0-.3 0-.4.1h-.2c-.2 0-.3 0-.5.1h-.3c-.2 0-.3 0-.5.1-.1 0-.2 0-.4.1-.2 0-.3 0-.5.1-.2 0-.3.1-.5.1h-.3c-.2 0-.3 0-.4.1-.1.2-.1.3-.1.5v.1c.2 0 .3-.1.5-.1h.3c.2 0 .3 0 .5-.1h.3c.2 0 .4 0 .5-.1h.2c.2 0 .4-.1.6-.1h.4c.2 0 .3 0 .5-.1h.3c.3 0 .5-.1.8-.1-.1-.1-.2-.3-.3-.4-.2-.3-.3-.3-.5-.3zm-2.7-5.9h-.1c-.2 0-.4 0-.6.1-.2 0-.3 0-.5.1.1.1.1.2.2.2l.2.2h.4c.2 0 .4-.1.7-.1 1.1-.1 2.1-.3 3.2-.4.1-.2.1-.4.2-.6-1.3.1-2.5.3-3.7.5zm2.6-1.9h-.2c-.2 0-.4.1-.6.1-.1 0-.2 0-.3.1-.2 0-.4.1-.6.1-.1 0-.2 0-.2.1-.2 0-.4.1-.6.1h-.3c-.2 0-.4.1-.7.1-.1 0-.2.1-.3.1h-.2v.4c.2 0 .4 0 .5-.1.1 0 .2 0 .4-.1.2 0 .4-.1.5-.1h.2c.2 0 .4-.1.6-.1.1 0 .2 0 .2-.1.2 0 .4-.1.6-.1.1 0 .2 0 .3-.1l1.5-.3c-.1-.2-.2-.4-.4-.6-.1.5-.2.5-.4.5zm.2-2.1h.4c.1 0 .2.1.3.2 0 0 .1 0 .1.1.4.4.8.8 1.1 1.4.4.6.6 1.4.5 2.1v.1c0 .3-.1.5-.2.8-.1.3-.3.6-.5.9-.3.5-.7.9-1.2 1.2-.4.3-.8.6-1.2.8-.2.1-.4.2-.5.4-.4.3-.9.6-1.3.9-.4.3-.8.6-1.1.9.3 0 .6-.1.8-.1H380.1c.3 0 .7-.1 1-.1-.2-.2-.3-.3-.5-.4l-.1-.1c-.1-.1-.1-.1-.2-.1l.9-.6c.1-.1.3-.2.4-.3l.1.1.1.1.2.2.2.2.1.1c.1.1.1.2.2.2l.1.1c.1.1.1.2.2.2l.1.1c.1.1.1.2.2.3l.1.1c0 .1.1.2.1.3 0 .1.1.1.1.2s.1.2.1.3c0 .1 0 .1.1.2 0 .1 0 .2.1.3v.7c0 .1 0 .2-.1.3 0 .4-.3.7-.7.8h-.3c-.1 0-.2-.1-.3-.2l-.1-.1c-.1-.1-.1-.2-.1-.3v-.1c-.1 0-.1 0-.2.1-.2 0-.4.1-.6.2-.1 0-.2.1-.3.1-.2.1-.4.1-.7.2-.1 0-.2.1-.4.1-.2.1-.4.1-.6.2-.1 0-.2.1-.3.1-.3.1-.6.2-.9.2.1.2.1.4.1.6-.1.3-.3.6-.6.7h-.4c-.1 0-.1 0-.2-.1-.1 0-.2-.1-.2-.2l-.1-.1c-.1-.1-.2-.2-.2-.3l-.1-.1c-.1-.1-.1-.2-.2-.2 0-.1-.1-.1-.1-.2-.1-.1-.1-.2-.1-.2s0-.1-.1-.1c-.1-.1-.1-.2-.2-.3-.1-.1-.1-.3-.1-.4V169c0-.1 0-.2.1-.3.1-.5.3-1 .7-1.4.4-.5.8-.9 1.3-1.3.7-.5 1.4-1 2.2-1.5l1.2-.9c.2-.1.3-.3.5-.4-1.1.1-2.1.2-3.2.3.2.2.5.4.7.6-.2.1-.3.2-.5.3-.2.1-.4.3-.7.4-.1 0-.1.1-.2.1l-.2-.2-.1-.1c-.1-.1-.2-.2-.3-.2l-.1-.1c-.1-.1-.2-.2-.2-.3l-.1-.1c-.1-.1-.2-.2-.2-.3 0 0 0-.1-.1-.1 0-.1-.1-.1-.1-.2 0 0 0-.1-.1-.1 0 0 0-.1-.1-.1-.1-.1-.1-.2-.2-.3 0-.1-.1-.1-.1-.2s-.1-.2-.1-.3c0-.1 0-.1-.1-.2 0-.1-.1-.2-.1-.4v-1.3c0-.1 0-.2.1-.3.1-.1.2-.2.2-.3.1-.1.3-.1.5-.1.1 0 .2 0 .2.1.1 0 .1.1.2.1l.2.2c0 .1.1.1.1.2v.2c.1 0 .2-.1.3-.1.1 0 .2-.1.4-.1s.4-.1.5-.1c.2-.1.5-.1.7-.2.1 0 .2-.1.3-.1.1 0 .2-.1.3-.1.5-.1 1-.3 1.5-.4-.2-.2-.3-.6-.2-.9.3-.4.5-.6.7-.6z"/><path class="st0" d="M402.9 144.9c0 5.7-4.7 10.4-10.4 10.4s-10.4-4.7-10.4-10.4 4.7-10.4 10.4-10.4 10.4 4.7 10.4 10.4z"/><path class="st8" d="M391.7 148.4h2V147h-2v1.4zm0-5.6h2v-1.4h-2v1.4zm-3.5-1.7c.7-.2 1.4-.2 2.1-.2h3.9v2.3h-4.6c-.9 0-1.7.7-1.7 1.7 0 .9.9 1.6 1.7 1.6h4.6v2.3h-4.7c-1 0-2.1-.4-2.8-1.1-.9-.9-1.4-2.3-1.2-3.5.1-1.4 1.3-2.7 2.7-3.1zM395.2 142.9c.6-.6 1.2-1.2 1.9-1.8.4.3.8.7 1.2 1 .5-.2 1-.4 1.6-.6-.6.6-1.1 1.2-1.7 1.9-.4-.4-.7-.8-1.1-1.1-.7.1-1.3.3-1.9.6zM395.2 148.4l1.8-1.8c.4.3.8.7 1.3 1 .5-.2 1.1-.4 1.6-.6-.6.6-1.2 1.2-1.7 1.9-.4-.4-.8-.8-1.2-1.1l-1.8.6z"/><path class="st0" d="M341.2 152.9c0 5.7-4.7 10.4-10.4 10.4s-10.4-4.7-10.4-10.4 4.7-10.4 10.4-10.4 10.4 4.7 10.4 10.4z"/><path class="st8" d="M325.5 147.6c.2 0 .3.1.5.1.1.2-.2.5-.2.7l-.6 1.8c-.2-.1-.3-.1-.5-.2-.1-.1.7-2.1.8-2.4zM326 148c.3 0 2.1.7 2.1.7l-.3.9c-.1.4-.3.7-.4 1.1-.1.1 0 .4-.2.3-.7-.2-1.3-.4-2-.7.2-.6.4-1.2.6-1.7.1-.3.2-.5.2-.6z"/><path class="st8" d="M328.1 149c.8.2 1.6.5 2.4.8.8.3 1.5.5 2.3.8l.9.3c0 .2-.1.3-.1.5.4.2.8.3 1.1.4.7.2 1.4.5 2.1.7.1-.2.3-.1.4-.1.1-.1.1-.3-.1-.3 0-.4.4-.7.8-.4.1.2.2.4 0 .7-.3-.1-.3.4 0 .3-.1.3-.2.7-.3 1-.3-.1-.7-.2-1-.3 0-.1 0-.1-.1-.1v-.1l-2.7-.9c-.2-.1-.3-.1-.5-.2-.1.2-.1.4-.2.5-.2-.1-.4-.1-.6-.2-.1-.3-.9-.6-1-.5-.2 0-.3.1-.5.1-.9-.3-1.8-.6-2.8-.9-.2-.1-.5-.2-.7-.2 0 0 0-.1-.1-.1.1-.3.3-.7.3-1 .3-.4.4-.6.4-.8z"/><path class="st8" d="M331.2 153c-.2-.4-.1-.9.4-1h.4c.2 0 .4.2.5.5v.3c0 .1-.1.2-.1.3-.1.1-.2.2-.3.2h-.3c-.3-.1-.5-.2-.6-.3zM331.2 153.5h.3c-.4 1.6-.9 3.2-1.4 4.8h-.3c.4-1.6.9-3.2 1.4-4.8zM331.7 153.5h.2c.1 1.6 0 3.2 0 4.8h-.3v-1.4c0-.5.1-1 0-1.5.1-.7.1-1.3.1-1.9zM332.2 153.5h.3c0 .1.1.2.1.2.4 1.5.9 3 1.3 4.5h-.3c-.2-.7-.8-2.7-.8-2.7-.2-.7-.4-1.3-.6-2z"/><path class="st0" d="M520 154c0 5.7-4.7 10.4-10.4 10.4s-10.4-4.7-10.4-10.4 4.7-10.4 10.4-10.4c5.8 0 10.4 4.6 10.4 10.4z"/><path class="st8" d="M514.1 158.7c-.7.8-1.7 1.3-2.7 1.6.5-.7 1-1.6 1.3-2.5h2.2c-.3.3-.6.6-.8.9zm-9.7-.9h2.1c.3.9.7 1.7 1.2 2.5-1-.3-1.8-.8-2.5-1.5-.3-.4-.5-.7-.8-1zm.8-8c.7-.7 1.6-1.2 2.5-1.5-.5.7-.9 1.6-1.2 2.5h-2.1c.3-.4.5-.7.8-1zm9.6.9h-2.2c-.3-.9-.7-1.8-1.3-2.5 1 .3 2 .9 2.7 1.6.3.3.6.6.8.9zm-1.6 3.3c0-1-.2-1.9-.4-2.8h2.4c.5.8.8 1.8.8 2.8h-2.8zm0 .5h2.7c0 1-.3 2-.8 2.9h-2.3c.2-1 .3-1.9.4-2.9zm-3.3 2.8v-2.8h2.8c0 1-.2 1.9-.4 2.8h-2.4zm0 .5h2.2c-.4 1-.9 1.9-1.5 2.7-.3 0-.5.1-.8.1v-2.8zm-3.5-3.3h3v2.8h-2.5c-.3-.9-.5-1.8-.5-2.8zm-.5-.5h-2.6c0-1 .3-2 .8-2.8h2.2c-.2.9-.3 1.8-.4 2.8zm3.5-2.8v2.8h-3c0-1 .2-1.9.4-2.8h2.6zm0-.5H507c.4-1 .8-1.9 1.4-2.6.3-.1.6-.1 1-.1v2.7zm2.9.5c.3.9.4 1.8.4 2.8h-2.8v-2.8h2.4zm-2.4-.5V148c.3 0 .5 0 .8.1.6.8 1.1 1.7 1.5 2.7h-2.3zm-6.5 3.8h2.6c0 1 .2 1.9.4 2.8h-2.2c-.5-.8-.8-1.8-.8-2.8zm5 5.9c-.6-.8-1.1-1.6-1.4-2.6h2.4v2.7c-.3 0-.7 0-1-.1zm1.2-12.9c-3.7 0-6.8 3-6.8 6.8s3 6.8 6.8 6.8c3.7 0 6.8-3 6.8-6.8s-3-6.8-6.8-6.8z"/><path class="st0" d="M384.2 193c0 5.7-4.7 10.4-10.4 10.4s-10.4-4.7-10.4-10.4 4.7-10.4 10.4-10.4 10.4 4.7 10.4 10.4z"/><path class="st8" d="M380.9 193.9c0 .2-.2.2-.4.2-.2-.1-.2-.4 0-.5.3-.2.5.1.4.3zm-6.3-.6c-.3-.2-.3-.7.1-.8.3-.1.7.1.6.4 0 .4-.4.6-.7.4zm-.4-7.1c-.1-.1-.1-.4.1-.4.2-.1.5.2.4.4-.1.1-.3.1-.5 0zm-3.4 12.9c-.1.2-.4.2-.5 0-.1-.1 0-.3.2-.4.2-.1.4.2.3.4zm-1.1-5.3c0 .2-.3.2-.4.1-.2-.1-.1-.4.1-.5.2 0 .4.2.3.4zm10.8-.7c-.5-.2-1 .1-1.2.4-.5-.1-1.2-.2-1.7-.2-.6-.1-1.2-.2-1.9-.2-.2-.6-.7-1.2-1.4-1.4v-4.2c.3-.2.6-.6.6-1 0-.6-.5-1.1-1.1-1.1-.6 0-1.2.6-1.1 1.2 0 .4.3.6.6.8v4.2c-.7.2-1.3.8-1.4 1.6-.7.1-1.4.2-2 .3-.2-.2-.5-.5-.8-.5-.5 0-1.1.4-1.1.9-.1.6.4 1.3 1.1 1.2.5 0 .9-.3 1.1-.8.7-.1 1.3-.2 2-.3l.3.6c-.8 1.1-1.5 2.2-2.3 3.4-.3 0-.7 0-.9.3-.4.4-.5 1.1-.1 1.5.4.5 1.2.5 1.6 0 .3-.3.3-.9.1-1.3.7-1.1 1.5-2.2 2.3-3.4.4.1.7.1 1.1 0 .6-.2 1.1-.7 1.3-1.3 1 .1 1.9.3 2.9.4.2 0 .4 0 .6.1.1.3.3.5.6.6.5.3 1.3 0 1.5-.6.2-.3-.1-1-.7-1.2z"/><path class="st0" d="M475.9 167.6c0 5.7-4.7 10.4-10.4 10.4s-10.4-4.7-10.4-10.4 4.7-10.4 10.4-10.4c5.8 0 10.4 4.6 10.4 10.4z"/><path class="st8" d="M463.8 173.3c0-.8.5-1.3 1.2-1.3s1.2.5 1.2 1.3c0 .7-.5 1.3-1.2 1.3s-1.2-.6-1.2-1.3zm.5-2.9v-.5c-.1-1.1.2-2.3 1.3-3.6.9-1.1 1.4-1.9 1.4-2.8 0-1.1-.7-1.7-2-1.8-.7 0-1.6.2-2.1.6l-.5-1.3c.7-.5 1.9-.8 2.9-.8 2.4 0 3.4 1.5 3.4 3 0 1.4-.8 2.4-1.8 3.6-.9 1.1-1.2 2-1.2 3v.5h-1.4z"/><path class="st0" d="M441.9 129.3c0 5.7-4.7 10.4-10.4 10.4s-10.4-4.7-10.4-10.4 4.7-10.4 10.4-10.4c5.8 0 10.4 4.6 10.4 10.4z"/><path class="st8" d="M428.1 124.2h6.9v2.4h-.6c-.2-.5-.3-1.2-.7-1.6-.2-.2-.6-.3-.9-.3h-3.1c.9 1.3 1.7 2.6 2.6 3.9.1.2.1.3.1.5-1 1.4-2 2.8-3.1 4.2h3.5c.3 0 .8 0 1-.3.4-.4.4-.9.5-1.4h.7c-.1.9-.1 1.8-.2 2.7h-7.1c0-.2.1-.4.2-.5 1.1-1.5 2.2-3 3.2-4.4-1-1.6-2-3.1-3-4.7.1-.1.1-.3 0-.5z"/><path class="st0" d="M463.4 146.6c0 5.7-4.7 10.4-10.4 10.4s-10.4-4.7-10.4-10.4 4.7-10.4 10.4-10.4 10.4 4.6 10.4 10.4z"/><path class="st8" d="M459.2 140.1h.6c0 .6-.1 1.3-.4 1.8-.3.4-.7.7-1.2.8-.5.1-1.1.1-1.6.1-.1 1.8-.1 3.5-.1 5.3 0 .9 0 1.7.1 2.6 0 .4.1.7.4 1 .2.2.5.2.8.2.3-.1.6-.3.8-.6.2-.4.3-.8.4-1.3.1-.4.1-.8.1-1.2h.7c0 .8 0 1.6-.3 2.4-.2.5-.4 1-.8 1.4-.5.4-1 .5-1.6.5-.6 0-1.2-.1-1.7-.4-.4-.3-.7-.7-.8-1.1-.2-.7-.3-1.4-.4-2.2-.1-1.1-.1-2.2 0-3.3 0-1.1.1-2.2.1-3.3-1.1-.1-2.3-.1-3.4-.1 0 1.7 0 3.5-.2 5.2-.1.8-.1 1.6-.3 2.5-.1.6-.3 1.2-.7 1.8-.3.4-.7.8-1.2.9-.4.1-.9.1-1.3-.2-.4-.2-.6-.6-.7-1.1-.2-.7-.2-1.5-.2-2.3h.6c0 .4.1.8.3 1.1.2.3.6.4.9.3.4 0 .7-.3.9-.5.3-.5.5-1 .6-1.5.2-.9.2-1.8.3-2.7.1-1.1.1-2.3.1-3.4-.7 0-1.4 0-2.1.3-.4.2-.7.6-.8 1.1h-.6c0-.8.2-1.6.7-2.2.4-.5.9-.7 1.5-.9 1-.2 2-.2 2.9-.2 1.9.1 3.9.2 5.8.2.4 0 .8 0 1.2-.1.2-.1.4-.1.6-.3v-.6z"/><path class="st0" d="M471.5 114.7c0 7.8-6.3 14.1-14.1 14.1s-14.1-6.3-14.1-14.1 6.3-14.1 14.1-14.1c7.8-.1 14.1 6.3 14.1 14.1z"/><path class="st8" d="M457.2 117.8v1.2h1.6v-1.2h-1.6zm-2.4 0v1.2h1.6v-1.2h-1.6zm-2 0v1.2h1.2v-1.2h-1.2zm6.7-1.9v3.2h1.2v-3.2c-.4 0-.8-.1-1.2 0zm-2.3 0v1.2h1.6v-1.2h-1.6zm-2.4 0v1.2h1.6v-1.2h-1.6zm-2 0v1.2h1.2v-1.2h-1.2zm6.7-2v1.2h1.2v-1.2h-1.2zm-2.3 0v1.2h1.6v-1.2h-1.6zm-2.4 0v1.2h1.6v-1.2h-1.6zm-2 0v1.2h1.2v-1.2h-1.2zm0-3.6v2.4h7.9v-2.4h-7.9zm-.5-1.1h8.8c.3 0 .6.1.9.3.2.2.3.6.3.9v8.5c0 .3 0 .6-.2.9-.1.2-.3.4-.6.4-.3.1-.6 0-.9.1h-8.2c-.3 0-.7-.1-.9-.3-.2-.2-.3-.6-.3-.9v-8.5c0-.3 0-.7.3-.9.2-.4.5-.5.8-.5z"/><path class="st0" d="M497.7 141.3c0 7.8-6.3 14.1-14.1 14.1s-14.1-6.3-14.1-14.1 6.3-14.1 14.1-14.1 14.1 6.3 14.1 14.1z"/><path class="st8" d="M486.6 131.1c0-.1.2-.1.2-.1.6.3 1.1.7 1.7 1 .1 0 .1.1.1.2-.1.2-.2.3-.3.5-.1.1-.2 0-.3 0-.4.7-.8 1.5-1.3 2.2.2.1.4.2.4.4.1.2-.1.4-.2.5-.3.6-.7 1.2-1 1.8-.4-.2-.8-.3-1.3-.3-.6.1-1.2.5-1.5 1.1-.3.5-.3 1.1-.1 1.7.2.4.5.8.9 1-.5.9-1 1.7-1.5 2.6-.9-.5-1.8-1-2.7-1.6 1.6-2.7 3.1-5.4 4.7-8.1.1-.1.2-.2.3-.2.2 0 .3.1.5.2.4-.7.8-1.5 1.3-2.2-.1 0-.2-.1-.2-.2.1-.2.2-.4.3-.5z"/><path class="st8" d="M484.6 137.9c.7-.2 1.5.2 1.8.9.3.7 0 1.5-.7 1.8-.6.3-1.5.1-1.9-.5-.4-.6-.3-1.5.2-1.9l.6-.3zM487 139.7c1 1 1.6 2.3 1.8 3.7.2 1.4-.1 2.8-.7 4-.3.7-.8 1.3-1.3 1.8h1.3c.4 0 .7.4.8.8v1.1h-11.4V150c0-.4.4-.8.8-.8h3.9c1.1 0 2.3-.4 3.1-1.2 1-.9 1.6-2.2 1.7-3.5.1-1.2-.4-2.5-1.2-3.4.6-.2 1.1-.7 1.2-1.4z"/><path class="st8" d="M478.5 142.2h.2c1.5.8 2.9 1.7 4.4 2.5.2.1 0 .3 0 .4-.1.1-.1.3-.2.2-.1 0-.1-.1-.2-.1-1.4-.8-2.9-1.7-4.3-2.5-.1 0-.1-.1-.1-.2s.1-.2.2-.3zM477.8 144.8c.2-.4.5-.8.7-1.2.4.2.8.5 1.2.7-.2.4-.5.8-.7 1.2 0 .1-.1.1-.2.1-.3-.2-.6-.4-1-.6 0 0-.1-.1 0-.2zM480 146.1c.2-.4.5-.8.7-1.2.4.2.8.5 1.2.7-.2.4-.5.8-.7 1.2 0 .1-.1.1-.2.1-.3-.2-.6-.4-1-.6v-.2z"/><path class="st0" d="M509.6 178.9c0 7.8-6.3 14.1-14.1 14.1s-14.1-6.3-14.1-14.1 6.3-14.1 14.1-14.1c7.8-.1 14.1 6.3 14.1 14.1z"/><path class="st8" d="M500.5 172c-.2-.1-.4-.3-.7-.4l-.3.3c-.2 0-.3 0-.5-.1.2 0 .4.1.6.1-.8 1.4-1.6 2.7-2.4 4.1 1 .6 1.7 1.8 1.7 3h5.1c.1-2.8-1.3-5.5-3.5-7zM486.9 179c0-3 1.7-5.9 4.3-7.4l.1.1s.1.1.1.2c.8 1.4 1.6 2.7 2.4 4.1-1 .6-1.7 1.8-1.7 3h-5.2zM495.1 177.1c1-.2 2.1.5 2.3 1.5.2 1-.5 2-1.5 2.2-1 .2-2.1-.5-2.2-1.5-.3-1 .4-2 1.4-2.2zM493.8 181.9c1 .6 2.4.6 3.5 0 .8 1.5 1.7 3 2.6 4.5-2.6 1.5-6 1.5-8.6 0 .8-1.5 1.6-3 2.5-4.5z"/><path class="st8" d="M495.5 169.5c-5.1 0-9.3 4.2-9.3 9.3 0 5.1 4.2 9.3 9.3 9.3 5.1 0 9.3-4.2 9.3-9.3 0-5.1-4.2-9.3-9.3-9.3zm0 19.9c-5.9 0-10.6-4.8-10.6-10.6 0-5.9 4.8-10.6 10.6-10.6 5.9 0 10.6 4.8 10.6 10.6 0 5.9-4.7 10.6-10.6 10.6z"/><path class="st0" d="M399.4 113.9c0 7.8-6.3 14.1-14.1 14.1s-14.1-6.3-14.1-14.1 6.3-14.1 14.1-14.1c7.8-.1 14.1 6.3 14.1 14.1z"/><path class="st8" d="M379.4 107.8c0-.3.2-.6.5-.6h4.1c.3 0 .6.4.5.7 0 .2-.3.3-.5.5v1.6c-.1 1 .3 2 1.1 2.7.5.5 1 1.2 1.3 1.9v.2c-.1.3-.2.6-.4.9-.1-1-.7-1.9-1.4-2.6-.6-.6-1-1.5-1.2-2.3v-2.5h-2.9v2.4c0 .6-.3 1.2-.6 1.8-.3.5-.7.8-1.1 1.3-.5.6-.8 1.3-.9 2.1 0 1 .4 2.1 1.1 2.8.7.8 1.7 1.2 2.8 1.2.9 0 1.8-.3 2.6-.8-.1.3-.2.6-.2.9-.9.5-1.9.6-2.8.5-1.2-.2-2.4-.8-3.2-1.9-.7-1-1-2.3-.8-3.5.2-.8.6-1.5 1.2-2.2.3-.3.6-.6.8-1 .2-.5.5-1 .5-1.5v-2.1c-.2-.1-.5-.2-.5-.5z"/><path class="st8" d="M388 111.1c-.1.8 0 1.7 0 2.5-.1.8-.3 1.6-.6 2.3-.6 1.3-1.3 2.6-1.9 3.9h7.1c-.6-1.4-1.3-2.8-2-4.2-.3-.7-.4-1.4-.5-2.1v-2.4H388zm-1.2-.3c-.1-.3.2-.7.5-.7h3.4c.3 0 .6.4.5.7-.1.2-.3.3-.5.4 0 1-.1 2.1.1 3.1.1.8.5 1.5.9 2.3l1.2 2.4c.1.3.3.6.4.9 0 .4-.3.6-.7.6h-6.9c-.3 0-.7-.1-.8-.4-.1-.4.1-.7.3-1.1.6-1.2 1.2-2.4 1.7-3.6.3-.7.5-1.5.4-2.3v-1.9c-.2-.1-.4-.2-.5-.4zM382 110.7c.4-.1.8.2.7.6-.1.4-.7.5-.9.2-.2-.3-.2-.8.2-.8zM381.1 112.4c.6-.2 1.3.3 1.3.9 0 .6-.5 1.1-1 1-.6 0-1.1-.5-1-1 0-.4.3-.8.7-.9z"/><path class="st8" d="M388.7 113.8c.3-.1.6.1.6.4 0 .3-.2.5-.5.5-.5 0-.5-.8-.1-.9zM378.7 115.5c.1-.3.2-.6.4-.9 1.2.3 2.5.5 3.8.4.7 0 1.4-.2 2.1-.3.3.5.5 1 .4 1.6-.1 1-.6 2-1.5 2.6-1.3.8-3.2.6-4.3-.5-.8-.8-1.1-1.9-.9-2.9zM388.9 115.5c.2 0 .5 0 .6.1.3.2.3.6.2.9-.2.4-.9.5-1.2.2-.2-.4-.1-1.1.4-1.2zM387.4 117.5c.7.1 1.4.2 2.1.1.4 0 .8-.1 1.1-.1.3.6.7 1.2.9 1.8h-5.1c.3-.7.6-1.3 1-1.8zM359.8 176.4c0 7.5-6.1 13.6-13.6 13.6s-13.6-6.1-13.6-13.6 6.1-13.6 13.6-13.6 13.6 6.1 13.6 13.6z"/><path class="st0" d="M343.4 171.9c-.1.8-.2 1.5-.3 2.3.9-.5 1.8-.9 2.8-1.3-.9-.4-1.7-.7-2.5-1zM349.6 171.4c-.2-1.4-.6-2.8-1.2-4.1-.3-.6-.6-1.1-1.2-1.5-.4-.3-.9-.3-1.3-.1-.6.3-.9.9-1.2 1.4-.7 1.3-1 2.8-1.3 4.2 1 .4 2.1.8 3.1 1.2 1-.3 2.1-.7 3.1-1.1zM349.9 174.2c0-.8-.1-1.5-.3-2.3-.8.3-1.6.6-2.4 1 .9.4 1.8.8 2.7 1.3zM348.7 184.2c-.8-.3-1.5-.6-2.2-.9-.9.4-1.8.7-2.7 1.1-.2 0-.3.1-.4.1 0 .2.1.3.1.5.2 1.1.5 2.1.9 3.1.1.3.2.5.4.7.1.3.3.6.5.8.2.2.5.5.8.6.3.1.7.1 1-.1.2-.1.4-.3.6-.5.2-.3.4-.5.6-.8.1-.2.2-.3.3-.5v-.1c.2-.5.4-.9.5-1.4.2-.7.4-1.5.5-2.2v-.1l-.9-.3zM344 179.2c-.3-.1-.6-.3-.9-.5 0 .8.1 1.5.2 2.3.9-.2 1.7-.6 2.5-1-.6-.2-1.2-.5-1.8-.8zM348.5 180.6c.2.1.4.1.5.2.2.1.4.1.6.2.2-.8.2-1.5.3-2.3-.9.5-1.8.9-2.8 1.3.5.3.9.5 1.4.6zM340.6 181.5c-.1.1-.2.2-.2.3.2.1.3-.1.4-.2.1-.2-.1-.2-.2-.1zM338.9 170c-.1.1-.2.2-.2.3.2.3.6-.5.2-.3z"/><path class="st0" d="M339.7 176.8c-1.3.8-2.5 1.7-3.6 2.8-.4.4-.8.9-1 1.5-.1.3 0 .8.3 1 .4.3 1 .4 1.6.4 1 0 2.1-.2 3.1-.4 0-.2.1-.5.2-.6.3-.3.9-.3 1.2 0 .1.1.1.2.2.2.2 0 .4-.1.5-.2.2 0 .4-.1.6-.2-.2-1-.3-1.9-.3-2.9-1-.5-1.9-1-2.8-1.6zM338.9 171.2c-.3-.1-.5-.3-.6-.6-.9-.1-1.8-.2-2.6.1-.4.1-.8.6-.6 1 .2.7.7 1.3 1.2 1.8 1 1 2.2 1.9 3.4 2.6.9-.6 1.8-1.1 2.7-1.6.1-1 .1-1.9.3-2.9-1-.3-1.9-.6-2.9-.8-.1.4-.5.6-.9.4zM340.2 176.5c.7.5 1.5.9 2.2 1.3v-2.7c-.8.5-1.5.9-2.2 1.4zM345.9 175.3c-.3.1-.6.4-.4.7.3.1.6-.2.7-.5 0-.1-.2-.2-.3-.2zM352.8 176.5c-.7-.5-1.5-.9-2.3-1.3.1.9 0 1.8 0 2.7.8-.5 1.6-.9 2.3-1.4zM357.6 170.8c-.7-.4-1.5-.3-2.3-.3 0 .4-.3.7-.7.7-.4.1-.8-.2-.9-.5-1.2.2-2.3.6-3.5 1 .2.9.3 1.9.3 2.8 1 .5 1.9 1.1 2.8 1.6 1.2-.7 2.3-1.5 3.3-2.5.5-.5 1.1-1.1 1.4-1.8.1-.3 0-.8-.4-1z"/><path class="st0" d="M357.1 179.1c.5.5 1 1.1 1.3 1.7.2.4.3.9.1 1.3-.2.4-.7.6-1.2.7-.9.2-1.7.1-2.6 0-.1 0-.2 0-.4-.1-.7-.1-1.4-.3-2-.4-.1.1-.3.3-.5.4h-.6c-.3-.2-.5-.5-.5-.8-.2-.1-.4-.1-.6-.2 0 .2-.1.5-.1.7-.1.6-.3 1.2-.5 1.8-.1.4-.3.8-.4 1.1v.1c-.4.8-.8 1.6-1.5 2.1-.4.3-.8.4-1.3.3-.6-.1-1.1-.5-1.5-1l-.1-.1c-.2-.3-.4-.6-.6-1l-.3-.6c-.2-.5-.4-1-.5-1.6-.1-.4-.2-.8-.3-1.3-.1-.2-.1-.4-.1-.7h-.1c-.2.1-.3.1-.5.2s-.3.1-.5.1c-.1.3-.3.6-.6.7h-.4c-.2-.1-.3-.2-.5-.3-1.3.3-2.6.5-3.9.4-.6 0-1.1-.2-1.6-.6-.3-.3-.4-.8-.2-1.2.3-.8.9-1.5 1.5-2.1 1-1 2.1-1.8 3.3-2.6-1.1-.8-2.3-1.6-3.3-2.5-.7-.7-1.4-1.4-1.5-2.4v-.3c.1-.5.5-.9 1-1 1-.3 2-.2 3-.1.2-.3.5-.6.9-.5.4 0 .7.4.8.8 1 .2 1.9.5 2.8.8.3-1.4.6-2.9 1.3-4.2.4-.7.8-1.3 1.4-1.7.5-.3 1.2-.3 1.7 0 .6.3 1 .9 1.3 1.5.8 1.4 1.2 2.9 1.5 4.4 1.2-.4 2.3-.7 3.5-.9.1-.4.4-.7.8-.7.3 0 .6.2.8.5.8-.1 1.6-.1 2.3.2.4.1.9.4 1 .9v.5c-.2.6-.5 1.2-.9 1.7-1.1 1.3-2.4 2.2-3.8 3.1 1 1.1 2.1 1.9 3.1 2.9zm-10.6-17.4c-8.2 0-14.8 6.6-14.8 14.8 0 8.2 6.6 14.8 14.8 14.8 8.2 0 14.8-6.6 14.8-14.8 0-8.2-6.6-14.8-14.8-14.8z"/><path class="st0" d="M345.4 176.7c.1.2.4-.1.4-.3-.2-.1-.4.1-.4.3zM350.5 178.4c-.1.9-.1 1.9-.3 2.8.2.1.4.1.6.2.3-.4 1-.4 1.4 0 .1.1.1.3.1.5.3.1.6.2.9.2h.1c.3.1.7.1 1 .2.8.2 1.7.3 2.5.2.4-.1.8-.2 1.1-.5.2-.3.2-.7 0-1-.2-.5-.6-.9-1-1.4-1.1-1.1-2.3-2-3.6-2.8-.9.6-1.8 1.1-2.8 1.6z"/><path class="st0" d="M348.3 176.5c0 .5-.3 1.1-.8 1.4-.6.4-1.3.4-1.9 0-.6-.4-.9-1.1-.8-1.7.1-.7.6-1.3 1.2-1.4.5-.1 1.1-.1 1.5.2.5.3.8.9.8 1.5zm-1.8-3.3c-1.2.5-2.3 1.1-3.5 1.6-.1.8-.1 1.7-.1 2.5 0 .3 0 .6.1.8 1.1.6 2.2 1.1 3.4 1.6 1.2-.5 2.3-1 3.4-1.7 0-1.1.1-2.2 0-3.3-1-.4-2.1-1-3.3-1.5zM354.5 170c-.1-.1-.1-.1-.2 0s-.2.2-.2.3c.2.1.4-.1.4-.3zM351.3 181.4c-.1 0-.3.4-.1.3.2 0 .4-.5.1-.3z"/><path class="st8" d="m343.1 181.2.1.4c0 .2.1.4.1.6.1.5.2.9.3 1.2.1.5.3 1 .5 1.5l.3.6.6.9.1.1c.4.5.8.8 1.3.9.5.1.8-.1 1.1-.3.7-.5 1.1-1.3 1.4-2v-.1c.1-.3.3-.7.4-1.1.2-.6.3-1.2.4-1.8 0-.2.1-.3.1-.5l.1-.6.4.1c.2.1.4.1.6.2l.2.1v.2c0 .2.1.4.3.5h.4c.1 0 .2-.2.3-.3l.1-.1.2.1c.6.2 1.3.3 2 .4l.4.1c1.1.1 1.8.1 2.5 0 .3-.1.8-.2.9-.6.2-.3.1-.7-.1-1-.3-.6-.7-1.1-1.2-1.6-.8-.9-1.9-1.7-3.2-2.6l-.4-.3.4-.3c1.3-.9 2.7-1.8 3.7-3.1.5-.6.8-1 .9-1.5v-.4c-.1-.3-.6-.5-.7-.6-.6-.2-1.4-.2-2.2-.1h-.2l-.1-.2c-.1-.1-.2-.3-.5-.3h-.1c-.2 0-.4.2-.5.5l-.1.2h-.2c-1 .2-2.1.5-3.5.9l-.4.1-.1-.4c-.3-1.4-.6-3-1.4-4.3-.4-.7-.8-1.1-1.2-1.4-.4-.2-1-.2-1.4 0-.6.4-1 1-1.3 1.6-.7 1.4-1.1 2.9-1.3 4.1l-.1.4-.4-.1c-.9-.3-1.9-.6-2.8-.8l-.2-.1v-.2c0-.2-.2-.5-.4-.5l-.1-.3v.3c-.2 0-.4.2-.5.3l-.1.2h-.2c-1.2-.1-2.1-.1-2.8.1-.3.1-.7.3-.8.7v.2c.1.8.8 1.6 1.5 2.2 1 1 2.1 1.8 3.2 2.5l.4.3-.4.3c-1.1.7-2.2 1.5-3.2 2.5-.6.6-1.1 1.2-1.4 1.9-.1.3-.1.6.1.9.3.4.9.4 1.3.5 1.2.1 2.5-.2 3.8-.4h.2l.1.1c.1.1.2.2.3.2H340.9c.2-.1.3-.4.3-.5v-.2l1.9-.3zm3.4 7h-.3c-.6-.1-1.2-.5-1.7-1.1l-.1-.1c-.2-.3-.4-.6-.6-1-.1-.2-.2-.4-.3-.7-.2-.5-.4-1-.5-1.6-.1-.4-.2-.8-.3-1.3 0-.1 0-.2-.1-.3-.1 0-.1 0-.2.1l-.5.1c-.1.4-.5.7-.8.8H340.5c-.2-.1-.3-.2-.5-.3-1.3.3-2.5.5-3.8.4-.6 0-1.3-.2-1.8-.7-.4-.4-.5-1-.3-1.6.3-.9.9-1.6 1.5-2.2.9-.9 1.9-1.7 2.9-2.3-1-.7-2-1.4-2.9-2.3-.7-.7-1.5-1.5-1.6-2.6v-.3c.1-.6.6-1.1 1.2-1.3.8-.3 1.7-.3 2.9-.1.3-.4.7-.6 1.1-.5.5 0 .9.4 1 .9.8.2 1.5.4 2.3.6.2-1.2.6-2.6 1.3-3.9.3-.6.8-1.4 1.6-1.8.6-.4 1.4-.4 2.1 0 .6.3 1 .8 1.5 1.6.8 1.3 1.2 2.8 1.4 4.2 1.1-.3 2.1-.6 3-.8.2-.4.5-.7 1-.7h.1c.3 0 .6.2.9.5.8-.1 1.6 0 2.3.2.6.2 1.1.6 1.2 1.1v.6c-.2.9-.7 1.5-1 1.9-1 1.2-2.3 2.1-3.5 2.9 1.2.8 2.1 1.6 2.9 2.4.5.5 1 1.1 1.3 1.8.3.6.3 1.1 0 1.5-.2.5-.7.8-1.4.9-.4.1-.8.1-1.2.1-.4 0-.9 0-1.5-.1l-.4-.1c-.6-.1-1.3-.2-1.9-.4-.1.1-.3.2-.5.3-.3.1-.5 0-.7 0h-.1c-.4-.2-.6-.5-.7-.8 0 .1 0 .2-.1.3-.1.6-.3 1.2-.5 1.8-.1.4-.3.8-.4 1.1v.1c-.3.7-.8 1.6-1.6 2.3-.3.2-.7.4-1.1.4z"/><path class="st8" d="M338.8 170.7v-.5c0 .1.1.1.2.1v-.3h-.2.2v-.4c.2 0 .4.2.4.4s-.2.4-.2.5c-.1.1-.3.2-.4.2zM340.5 182.2h-.2l-.2-.1v-.2c0-.2.1-.5.3-.6.1-.1.2-.1.3-.1h.2l.2.2c0 .1.1.2 0 .4-.1.1-.3.4-.6.4z"/><path class="st8" d="M339.7 177.2c-1.1.7-2.3 1.6-3.3 2.6-.4.4-.8.8-.9 1.4-.1.2 0 .5.2.6.4.3.9.3 1.4.3 1 0 1.9-.2 2.8-.4 0-.2.1-.4.3-.6.4-.4 1.2-.5 1.6-.1l.1.1c.1 0 .2-.1.3-.1.1 0 .3-.1.4-.1-.1-.7-.2-1.6-.2-2.5-1.1-.3-1.9-.7-2.7-1.2zm-2.8 5.6c-.5 0-1.2 0-1.7-.4-.4-.3-.6-.9-.4-1.4.2-.7.7-1.2 1.1-1.6 1.2-1.2 2.5-2.1 3.6-2.9l.2-.1.2.1c.8.6 1.7 1 2.5 1.5l.4.2v.2c0 1 .2 2 .3 2.8v.3l-.3.1c-.1 0-.1 0-.2.1-.1 0-.3.1-.4.1-.1.1-.3.1-.5.2l-.2.1-.3-.4c-.1-.1-.2-.1-.3-.1-.1 0-.2 0-.4.1-.1.1-.1.3-.2.5v.2l-.2.1c-1 .1-2.1.3-3.2.3z"/><path class="st8" d="M340.8 176.5c.4.3.9.5 1.3.7v-1.5c-.5.3-.9.5-1.3.8zm2 1.9-.5-.3c-.7-.4-1.5-.8-2.3-1.3l-.4-.3.4-.3c.6-.4 1.4-.9 2.3-1.4l.5-.3V178.4z"/><path class="st8" d="M337 170.8c-.5 0-.8.1-1.2.2-.3.1-.5.3-.4.6.1.7.7 1.2 1.1 1.7.8.8 1.8 1.6 3.2 2.5.8-.5 1.6-1 2.4-1.4v-.2c.1-.7.1-1.5.3-2.2-.9-.3-1.7-.5-2.4-.7-.3.3-.8.4-1.2.3-.3-.1-.5-.3-.7-.6-.3-.1-.7-.2-1.1-.2zm2.8 5.8-.2-.1c-1.5-.9-2.6-1.8-3.5-2.7-.5-.5-1.1-1.1-1.3-2-.1-.6.3-1.2.9-1.4.4-.1.9-.2 1.4-.2.5 0 1 .1 1.4.1h.2l.1.2c0 .1.2.4.3.4h.2c.2 0 .3-.1.5-.2l.1-.2h.2c.9.2 1.8.4 2.9.8l.3.1-.1.3c-.2.8-.2 1.6-.3 2.4v.6l-.2.1c-.9.5-1.8 1-2.7 1.6l-.2.2zM348 172.9c.5.2 1 .5 1.5.7 0-.5-.1-.9-.1-1.3-.5.2-.9.4-1.4.6zm2.3 1.9-.5-.3c-.7-.4-1.5-.8-2.2-1.1l-1.2-.5.7-.3c.8-.3 1.6-.7 2.5-1l.4-.1.1.4c.2.7.2 1.4.3 2.3l-.1.6z"/><path class="st8" d="M343.8 171.2c1 .3 1.8.7 2.7 1 .9-.4 1.8-.7 2.7-1-.2-1.1-.5-2.5-1.1-3.8-.2-.5-.6-1-1.1-1.3-.3-.2-.7-.2-1-.1-.5.3-.8.8-1.1 1.3-.5 1.3-.9 2.6-1.1 3.9zm2.7 1.8-.1-.1c-1-.4-2-.8-3.1-1.2l-.3-.1v-.3c.3-1.4.6-2.9 1.3-4.3.3-.6.7-1.2 1.4-1.6.5-.3 1.2-.2 1.6.1.6.4 1 1.1 1.3 1.6.7 1.4 1 3 1.2 4.2v.3l-.3.1c-1 .3-2 .7-3.1 1.1l.1.2z"/><path class="st8" d="M343.6 172.4c-.1.4-.1.9-.2 1.3.5-.3 1-.5 1.6-.8-.5-.2-.9-.4-1.4-.5zm-.9 2.4v-.6c.1-.7.1-1.5.3-2.3l.1-.4.4.1c.8.2 1.6.6 2.6 1l.7.3-.7.3c-.8.3-1.5.7-2.3 1.1l-1.1.5zM343.5 179.3c0 .4.1.8.1 1.3.5-.2.9-.3 1.4-.5l-.6-.3-.6-.3c-.1 0-.2-.1-.3-.2zm-.4 2.2-.1-.4c-.2-.9-.2-1.6-.2-2.3v-.6l.5.3c.3.2.5.3.8.4l.6.3c.4.2.8.4 1.3.6l.8.3-.9.4c-.8.3-1.6.7-2.4.9l-.4.1z"/><path class="st8" d="M346.4 187c.2 0 .4 0 .6-.1.1-.1.3-.2.5-.4s.4-.5.5-.8l.1-.1c.1-.1.1-.2.2-.4v-.1c.2-.4.4-.9.5-1.4.2-.7.3-1.4.5-2.1-.2-.1-.4-.1-.6-.2l-.3-.1c-.6-.2-1.2-.5-1.9-.8-.8.4-1.6.7-2.6 1h-.2v.2c.2 1.1.5 2.1.8 3l.1.1c.1.2.2.4.3.5v.1c.1.2.3.4.4.7l.1.1c.2.2.4.4.6.4l.4.4zm.1.7c-.2 0-.3 0-.5-.1l-.3-.1c-.3-.1-.5-.3-.7-.5l-.1-.2c-.2-.3-.4-.5-.5-.8l-.3-.6-.1-.1c-.3-.6-.5-1.3-.6-2l-.1.1-.2-1.3c0-.2 0-.3-.1-.5l-.1-.3.4-.1.2-.4.1.4h.1c1-.3 1.8-.7 2.6-1l.1-.1.1.1c.8.4 1.5.7 2.2.9l.2.1c.2.1.4.1.6.2l.2.1v.5c-.1.7-.3 1.5-.5 2.2-.1.5-.3 1-.5 1.4l-.1.2c-.1.1-.2.3-.2.5l-.2.4c-.1.2-.3.4-.4.6-.2.2-.5.4-.7.6-.2-.3-.4-.2-.6-.2z"/><path class="st8" d="M348 180.1c.2.1.4.2.7.3.2.1.4.1.5.2.1 0 .1 0 .2.1.1-.4.1-.8.2-1.3-.6.2-1.1.4-1.6.7zm1.9 1.4-.4-.1c-.2-.1-.4-.1-.6-.2-.2-.1-.4-.1-.6-.2-.5-.2-1-.4-1.4-.6l-.7-.3.7-.3c1-.4 1.9-.8 2.7-1.3l.5-.3v.6c-.1.9-.1 1.7-.3 2.3l.1.4z"/><path class="st8" d="M343.4 177.9c1 .6 2.1 1 3.1 1.5 1-.5 2.1-.9 3.1-1.5v-.5c0-.8.1-1.6 0-2.4-1-.5-2-1-3.1-1.5-1.1.5-2.2 1-3.2 1.5-.1.7 0 1.3 0 2v.5c0 .2.1.3.1.4zm3.1 2.2-.2-.1.1-.3-.2.3c-1.1-.5-2.3-1-3.4-1.6l-.1-.1v-.1c-.1-.2-.1-.5-.1-.7v-.5c0-.7 0-1.5.1-2.3v-.2l.2-.1c1-.5 2.2-1.2 3.5-1.7l.1-.1.1.1c1.3.6 2.4 1.1 3.4 1.7l.2.1v.2c.1.9.1 1.8 0 2.7v.8l-.2.1c-1.1.7-2.3 1.2-3.5 1.7v.1zM354.2 170.7c-.1 0-.2 0-.2-.1l-.1-.1v-.2c-.1-.2.1-.5.3-.7.2-.2.4-.2.7 0l.1.1v.1c-.2.5-.5.9-.8.9zM351.2 182.1c-.2 0-.4-.1-.4-.3 0-.3.2-.6.4-.7h.2c.2 0 .4.2.4.4s-.3.5-.6.6z"/><path class="st8" d="M353.4 181.8c.1 0 .3.1.4.1.2 0 .4.1.5.1 1 .2 1.7.2 2.4.2.4-.1.7-.2.9-.4.2-.2 0-.6 0-.7-.2-.5-.6-.9-.9-1.3-1-1-2.2-1.9-3.4-2.6-.8.5-1.6 1-2.5 1.4-.1.8-.1 1.6-.3 2.4h.1c.5-.4 1.3-.3 1.7.2v.1c.1.1.1.2.1.4.2.1.4.1.6.1h.4zm2.7 1c-.6 0-1.1-.1-1.8-.2-.2 0-.4-.1-.6-.1-.1 0-.3-.1-.4-.1l-.2-.1c-.3-.1-.6-.1-.9-.2l-.2-.1v-.2c0-.1 0-.2-.1-.3-.2-.2-.6-.2-.8 0l-.1.2-.2-.1c-.2-.1-.4-.1-.6-.2l-.3-.1.1-.3c.2-.9.3-1.8.3-2.7v-.2l.2-.1c.9-.5 1.9-1 2.8-1.6l.2-.1.2.1c1.2.8 2.5 1.7 3.6 2.8.4.4.8.9 1.1 1.5.2.5.2 1 0 1.4-.3.5-.9.6-1.3.6-.5.1-.8.1-1 .1z"/><path class="st8" d="M350.9 175.7v1.5c.5-.3.9-.5 1.3-.8-.4-.2-.9-.5-1.3-.7zm-.7 2.7V174.6l.5.3c.7.4 1.4.8 2.3 1.4l.4.3-.4.3c-.7.4-1.4.8-2.3 1.3l-.5.2z"/><path class="st8" d="M350.8 174.3c.8.4 1.6.9 2.5 1.5 1-.6 2.1-1.4 3.1-2.3.5-.5 1-1 1.3-1.7.1-.2 0-.5-.2-.7-.3-.2-.7-.3-1.3-.3h-.6c-.2.4-.5.7-.9.8h-.2c-.4 0-.7-.2-.9-.5-1 .2-2 .5-2.9.8 0 .8.1 1.6.1 2.4zm2.5 2.3-.2-.1c-.9-.6-1.9-1.1-2.8-1.6l-.2-.1v-.2c0-1-.1-1.9-.3-2.8l-.1-.3.3-.1c1.1-.4 2.3-.7 3.5-1l.3-.1.1.2c.1.2.3.4.6.3.3 0 .4-.3.4-.5v-.3h1.1c.5 0 1.1 0 1.6.4.5.3.7.9.5 1.5-.3.8-.9 1.4-1.4 2-1.1 1-2.3 1.8-3.4 2.5v.2z"/><path class="st0" d="M364.3 110.6c0 5.7-4.7 10.4-10.4 10.4s-10.4-4.7-10.4-10.4 4.7-10.4 10.4-10.4c5.8 0 10.4 4.7 10.4 10.4z"/><path class="st0" d="m358 107.1.4-.4 1.4 1.4-.4.4c-.4-.5-.9-.9-1.4-1.4zM357.3 108.6c.3-.3.5-.6.9-.8-.2.5-.7.5-1 1 .3.1.5.5.2.8-.2.3-.5.6-.8.7-.3.1-.6-.3-.5-.6.3-.5.8-.8 1.2-1.1zM350.9 115c1.7-1.6 3.3-3.3 5-4.9-.3.7-.9 1.1-1.4 1.6-1.2 1.1-2.3 2.4-3.6 3.5l.2.3c-.6.5-1 1.1-1.7 1.5.2-.8.7-1.4.9-2.2.2 0 .5.1.6.2zM351.9 110.5c.5.2 1 .5 1.5.8l-.7.7c-.3-.5-.6-1-.8-1.5z"/><path class="st8" d="M351.9 110.5c.2.5.5 1 .8 1.5l.7-.7c-.5-.3-.9-.6-1.5-.8zm-1.1 4.5c-.1 0-.3-.2-.5-.2-.2.7-.7 1.4-.9 2.2.7-.4 1.1-1.1 1.7-1.5l-.2-.3c1.3-1.1 2.4-2.4 3.6-3.5.5-.5 1.1-.9 1.4-1.6-1.7 1.6-3.4 3.3-5.1 4.9zm5.3-5.3c-.1.3.2.7.5.6.3-.2.6-.5.8-.7.3-.3.1-.7-.2-.8-.3 0-.8.4-1.1.9zm1.9-2.6c.5.5 1 .9 1.4 1.4l.4-.4c-.5-.5-.9-1-1.4-1.4l-.4.4zm-10.9-1.5c2.5 1.5 5.1 3 7.6 4.4 1.5-1.4 2.8-3 4.4-4.3.6.5 1.2 1 1.7 1.7-2.7 2.8-5.5 5.5-8.3 8.3-.2.2-.4.4-.7.5-1 .5-2 .9-3 1.4.5-1 .9-2.1 1.4-3.1.3-.5.8-.9 1.2-1.3-1.3-2.5-2.9-5-4.3-7.6zM356.1 112.9c.4-.4.8-.8 1.2-1.3 1.1.6 2.2 1.3 3.4 2-2.3 1.3-4.6 2.7-6.9 3.9l-.9-1.5 1.2-1.2c.6.5 1.2-.1 1.7-.4.3-.3.9-.4 1.1-.8 0-.4-.5-.5-.8-.7z"/><path class="st0" d="M407.6 85.5c0 5.7-4.7 10.4-10.4 10.4s-10.4-4.7-10.4-10.4 4.7-10.4 10.4-10.4 10.4 4.7 10.4 10.4z"/><path class="st8" d="M394.2 81.2c-.5.3-.9.7-1.2 1.1v.1c-.2.3-.3.7-.3 1.1V84.6c0 .1 0 .2.1.2v.1c0 .1.1.2.1.2s0 .1.1.1l.1.1c0 .1.1.2.1.2l.1.1s0 .1.1.1l.2.2.2.2.1.1c.1 0 .1.1.2.1 0 0 .1 0 .1.1.1 0 .1.1.2.1h.1c.1 0 .2.1.2.1H395c.3.1.6.1.9 0 .1 0 .3 0 .4-.1.1 0 .1 0 .2-.1.3-.1.6-.2.8-.4l.2-.2h.1l.2-.2.1-.1.2-.2c.2-.2.3-.5.4-.8 0-.1 0-.1.1-.2.1-.3.1-.6.1-.9v-.8c0-.1-.1-.2-.1-.3v-.1c0-.1-.1-.1-.1-.2 0 0 0-.1-.1-.1 0 0 0-.1-.1-.1 0-.1-.1-.1-.1-.2l-.2-.2-.2-.2s-.1 0-.1-.1c-.1-.1-.1-.1-.2-.1 0 0-.1 0-.1-.1-.1 0-.1-.1-.2-.1 0 0-.1 0-.1-.1-.1 0-.1-.1-.2-.1h-.1c-.1 0-.1 0-.2-.1H395.7c-.6.3-1.1.4-1.5.7zm.5-2.2c.3 0 .5-.1.8-.1h.3c.4 0 .7.1 1.1.1.1 0 .2.1.3.1.1 0 .2.1.3.1h.1c.1 0 .1 0 .2.1h.2c.1.1.2.1.3.2 0 0 .1 0 .1.1.1 0 .1.1.2.1s.1.1.2.1l.1.1.2.2.1.1.2.2.1.1.2.2v.1l.2.2s0 .1.1.1c0 .1.1.1.1.2s.1.1.1.2v.1s0 .1.1.1c0 0 0 .1.1.1 0 0 0 .1.1.1 0 0 0 .1.1.1 0 .1.1.1.1.2s.1.3.1.4v.4c0 .1.1.3.1.4V85.1c0 .2-.1.4-.2.6v.1c-.1.2-.1.3-.2.5 0 .1-.1.1-.1.2v.1c0 .1 0 .1.1.2v.1l.1.1.1.1.1.1.2.2.1.1.1.1.1.1.1.1.2.2.1.1.1.1.1.1.1.1.2.2.1.1.1.1.1.1.2.2.1.1.1.1.1.1.2.2.1.1.1.1.1.1.1.1c.1.1.1.3.1.4v.2c0 .2-.1.5-.2.7l-.2.2c-.2.1-.4.2-.6.2h-.2c-.2 0-.3-.1-.4-.1-.1-.1-.2-.2-.3-.2 0 0 0-.1-.1-.1l-.1-.1-.1-.1-.1-.1-.2-.2-.1-.1-.2-.2-.1-.1-.2-.2-.1-.1-.2-.2-.1-.1-.2-.2-.1-.1-.1-.1-.1-.1-.1-.1-.2-.2-.1-.1-.1-.1-.1-.1-.1-.1-.2-.2h-.1c-.1 0-.1-.1-.2-.1h-.1c-.1 0-.1 0-.2.1-.2.1-.3.1-.5.2h-.1c-.2.1-.4.1-.6.2-.1 0-.3.1-.4.1h-1.1c-.2 0-.3 0-.5-.1h-.4c-.1 0-.3-.1-.4-.1-.1 0-.1 0-.2-.1s-.2-.1-.4-.2h-.1c-.1 0-.1-.1-.2-.1 0 0-.1 0-.1-.1-.1 0-.1-.1-.2-.1l-.1-.1-.2-.2-.2-.2-.1-.1-.2-.2-.1-.1-.2-.2-.1-.1c0-.1-.1-.1-.1-.2s-.1-.1-.1-.2c0 0 0-.1-.1-.1 0 0 0-.1-.1-.1l-.1-.1V85.9c0-.1 0-.1-.1-.2-.1-.2-.1-.4-.2-.6-.1-.4-.2-.8-.2-1.1v-.3c0-.3 0-.5.1-.8 0-.1.1-.3.1-.4 0-.2.1-.3.2-.5 0-.1.1-.2.1-.2 0-.1.1-.2.2-.3.1-.2.2-.4.4-.6.2-.3.5-.6.9-.9.2-.1.4-.3.6-.4.1 0 .2-.1.2-.1h.1c.1 0 .1-.1.2-.1.2-.1.3-.1.5-.2 0-.1.2-.2.3-.2z"/><path class="st0" d="M435.3 102.8c0 7.8-6.3 14.1-14.1 14.1s-14.1-6.3-14.1-14.1 6.3-14.1 14.1-14.1c7.7-.1 14.1 6.3 14.1 14.1z"/><path class="st8" d="M423.5 101.3c1.7-.6 3.6.4 4.2 2.1.6 1.7-.4 3.6-2.1 4.2-1.7.6-3.6-.4-4.2-2.1-.6-1.8.3-3.7 2.1-4.2zm-3.4.2c.2.2.2.8.1.9-.1.2-.4.2-.7.2-.3-.1-.6.2-.7.6-.1.4.1.8.4.9.3.1.5.6.6.7 0 .2-.2.4-.5.5-.3.1-.4.5-.3.9.1.4.5.6.8.6.3-.1.6 0 .7.1.1.2.2.7 0 .9-.2.2-.1.6.2.9.3.3.7.3.9.1.2-.2.8-.2.9-.1.2.1.2.4.2.7-.1.3.2.6.6.7.4.1.8-.1.9-.4.1-.3.6-.5.7-.6.2 0 .4.2.5.5.1.3.5.4.9.3.4-.1.6-.5.6-.8-.1-.3.2-.8.4-.9.1-.1.4 0 .7.2.2.2.6.1.9-.2.3-.3.3-.7.1-.9-.2-.2-.2-.8-.1-.9.1-.2.4-.2.7-.2.3.1.6-.2.7-.6.1-.4-.1-.8-.4-.9-.3-.1-.5-.6-.6-.7 0-.2.2-.4.5-.5.3-.1.4-.5.3-.9-.1-.4-.5-.6-.8-.6-.3.1-.8-.2-.9-.4-.1-.1 0-.4.2-.7.2-.2.1-.6-.2-.9-.3-.3-.7-.3-.9-.1-.2.2-.8.2-.9.1-.2-.1-.2-.4-.2-.7.1-.3-.2-.6-.6-.7-.4-.1-.8.1-.9.4-.1.3-.6.5-.7.6-.2 0-.4-.2-.5-.5-.1-.3-.5-.4-.9-.3-.4.1-.6.5-.6.8.1.3-.2.8-.4.9-.1.1-.4 0-.7-.2-.2-.2-.6-.1-.9.2-.3.4-.3.8-.1 1z"/><path class="st8" d="M416.3 97.1c1.1-.4 2.3.3 2.7 1.4.4 1.1-.3 2.3-1.4 2.7-1.1.4-2.3-.3-2.7-1.4-.3-1.2.3-2.4 1.4-2.7zm-2.1.1c.1.1.1.5.1.6 0 .1-.2.2-.4.1-.2 0-.4.1-.5.4-.1.3.1.5.2.6.2 0 .3.4.4.5 0 .1-.1.3-.3.3-.2.1-.3.3-.2.6.1.3.3.4.5.4.2-.1.4 0 .4.1.1.1.1.5 0 .6-.1.1-.1.4.1.6.2.2.5.2.6.1.1-.1.5-.1.6-.1.1 0 .2.2.1.4 0 .2.1.4.4.5.3.1.5-.1.6-.2 0-.2.4-.3.5-.4s.3.1.3.3c.1.2.3.3.6.2.3-.1.4-.3.4-.5-.1-.2.1-.5.2-.5.1-.1.3 0 .4.1.1.1.4.1.6-.1.2-.2.2-.5.1-.6-.1-.1-.1-.5-.1-.6 0-.1.2-.2.4-.1.2 0 .4-.1.5-.4.1-.3-.1-.5-.2-.6-.2 0-.3-.4-.4-.5 0-.1.1-.3.3-.3.2-.1.3-.3.2-.6-.1-.3-.3-.4-.5-.4-.2.1-.5-.1-.6-.2-.1-.1 0-.3.1-.4.1-.1.1-.4-.1-.6-.2-.2-.5-.2-.6-.1-.1.1-.5.1-.6.1-.1 0-.2-.2-.1-.4 0-.2-.1-.4-.4-.4-.3-.1-.5.1-.6.2 0 .2-.4.3-.5.4-.1 0-.3-.1-.3-.3-.1-.2-.3-.3-.6-.2-.3.1-.4.3-.4.5.1.2-.1.5-.2.5-.1.1-.3 0-.4-.1-.1-.1-.4-.1-.6.1-.2 0-.2.3 0 .4z"/><path class="st8" d="M415.7 104c.9-.3 1.8.2 2.1 1.1.3.9-.2 1.8-1.1 2.1-.9.3-1.8-.2-2.1-1.1-.3-.9.2-1.8 1.1-2.1zm-1.7.1c.1.1.1.4.1.5 0 .1-.2.1-.3.1s-.3.1-.3.3c0 .2 0 .4.2.4.1 0 .3.3.3.4 0 .1-.1.2-.2.2s-.2.2-.1.4.2.3.4.3c.1 0 .3 0 .3.1s.1.3 0 .5c-.1.1-.1.3.1.5.2.1.4.2.5 0 .1-.1.4-.1.5-.1.1 0 .1.2.1.3 0 .1.1.3.3.3.2 0 .4 0 .4-.2 0-.1.3-.3.4-.3.1 0 .2.1.2.2s.2.2.4.1.3-.2.3-.4c0-.1.1-.4.2-.4s.2 0 .3.1c.1.1.3.1.5-.1.1-.2.2-.4 0-.5-.1-.1-.1-.4-.1-.5 0-.1.2-.1.3-.1.1 0 .3-.1.3-.3 0-.2 0-.4-.2-.4-.1 0-.3-.3-.3-.4 0-.1.1-.2.2-.2s.2-.2.1-.4-.2-.3-.4-.3c-.1 0-.4-.1-.4-.2-.1-.1 0-.2.1-.3.1-.1.1-.3-.1-.5-.2-.1-.4-.2-.5 0-.1.1-.4.1-.5.1-.1 0-.1-.2-.1-.3 0-.1-.1-.3-.3-.3-.2 0-.4 0-.4.2 0 .1-.3.3-.4.3-.1 0-.2-.1-.2-.2s-.2-.2-.4-.1-.3.2-.3.4-.1.4-.2.4c-.1.1-.2 0-.3-.1s-.3-.1-.5.1c-.1.1-.1.3 0 .4z"/><path class="st0" d="M455.9 86.8c0 5.7-4.7 10.4-10.4 10.4s-10.4-4.7-10.4-10.4 4.7-10.4 10.4-10.4 10.4 4.7 10.4 10.4z"/><path class="st8" d="M447.6 89c0 1.3.5 2.3 1.4 2.3.9 0 1.3-1 1.3-2.4 0-1.3-.4-2.3-1.3-2.3-1 0-1.4 1-1.4 2.4zm3.8-.1c0 2.2-1.2 3.3-2.5 3.3s-2.4-1-2.4-3.1 1.1-3.3 2.5-3.3 2.4 1.1 2.4 3.1zm-9.4 3.3 6.1-10.7h.9l-6.1 10.7h-.9zm-1.2-7.5c0 1.3.5 2.3 1.3 2.3.9 0 1.3-1 1.3-2.4 0-1.3-.4-2.3-1.3-2.3-.8 0-1.3 1-1.3 2.4zm3.8-.1c0 2.2-1.2 3.3-2.5 3.3s-2.4-1-2.4-3.1 1.1-3.2 2.5-3.2c1.5-.1 2.4 1 2.4 3z"/><path class="st0" d="M498.2 112c0 5.7-4.7 10.4-10.4 10.4s-10.4-4.7-10.4-10.4 4.7-10.4 10.4-10.4 10.4 4.7 10.4 10.4z"/><path class="st8" d="M494.7 113.5s-.7.8-1.2.8h-3.3v-1.6l-1.6 3.1 1.6 3.1v-1.6h1.6c.1.1 1.5.5 2.9-3.8z"/><path class="st8" d="m490.4 110.3 2.6-1.5 1.6 2.7s.6 1.2-.5 2-2.1-.4-2.1-.4l-1.6-2.8zM483.3 116.7s-.3-1-.1-1.5c.2-.5 1.6-2.8 1.6-2.8l1.3.8-1.9-2.9-3.5-.2 1.4.8-.8 1.4c.1 0-1 1.1 2 4.4z"/><path class="st8" d="M488.4 114.6v3h-3.1s-1.4-.1-1.5-1.4c-.1-1.3 1.4-1.6 1.4-1.6h3.2zM486.3 105.2s1.1.3 1.3.6c.2.4 1.6 2.8 1.6 2.8l-1.3.8 3.5-.2 1.9-2.9-1.4.8-.8-1.4c-.1 0-.3-1.1-4.8-.5zM485.5 112.5l-2.6-1.5 1.6-2.7s.7-1.1 2-.6c1.2.6.6 2 .6 2l-1.6 2.8z"/></svg>