<svg version="1.1" id="Layer_1" xmlns="http://www.w3.org/2000/svg" xmlns:xlink="http://www.w3.org/1999/xlink" x="0" y="0" width="353" height="129" style="enable-background:new 0 0 353 129" xml:space="preserve"><style>.st0{clip-path:url(#SVGID_2_);fill:#002f87}</style><defs><path id="SVGID_1_" d="M0 0h353v129H0z"/></defs><clipPath id="SVGID_2_"><use xlink:href="#SVGID_1_" style="overflow:visible"/></clipPath><path class="st0" d="m252.2 51.9-9-16.8c-.7.9-1.4 1.8-2.1 2.8 6.4 1.1 12.9 2.2 19.3 3.4l12.3 2.1c1.6.3 4.3 1.3 6 .9 1.5-.4 2.9-2.6 3.9-3.6 3.1-3.1 6.1-6.2 9.2-9.3 4.5-4.6 9.1-9.2 13.6-13.8-1-.3-2.1-.6-3.1-.8.9 6.1 1.8 12.2 2.7 18.2.6 4.2 1.2 8.4 1.9 12.5.3 1.7.1 4.6 1 6.2.8 1.3 3.4 2 4.6 2.6 3.9 1.9 7.9 3.9 11.8 5.8 5.9 2.9 11.7 5.8 17.6 8.7v-3.2c-5.5 2.7-11.1 5.4-16.6 8.1-3.8 1.9-7.6 3.7-11.4 5.6-1.6.8-4.3 1.5-5.6 2.8-1.1 1.1-.9 3.8-1.1 5.1-.6 4.3-1.2 8.6-1.9 12.9-.9 6.4-1.8 12.8-2.8 19.2 1-.3 2.1-.6 3.1-.8l-13.7-14c-2.9-3-5.8-5.9-8.8-8.9-1.1-1.1-2.7-3.7-4.4-4.1-1.5-.4-3.9.5-5.3.7l-13 2.2c-6.4 1.1-12.9 2.1-19.3 3.2.7.9 1.4 1.8 2.1 2.8 1.3-2.4 2.6-4.9 3.9-7.3 1.1-2.1-2.1-4-3.2-1.9-1.3 2.4-2.6 4.9-3.9 7.3-.8 1.5.5 3 2.1 2.8 12.2-2 24.4-4 36.6-6.1-1.7.3-2.2-.9-.7.7 1 1 2 2 2.9 3 3 3 6 6.1 8.9 9.1 4.3 4.4 8.7 8.8 13 13.3.9.9 2.9.6 3.1-.8 1.8-12.1 3.5-24.3 5.3-36.4-.2 1.2-1.2 1.3.6.4 1.3-.6 2.5-1.2 3.8-1.8 3.8-1.9 7.6-3.7 11.4-5.6 5.6-2.7 11.1-5.4 16.6-8.1 1.2-.6 1.2-2.6 0-3.2-11.1-5.5-22.2-10.9-33.3-16.4 1.2.6.9 1.5.6-.5l-.6-4.1c-.6-4.2-1.2-8.4-1.9-12.5-.9-6.1-1.8-12.2-2.7-18.2-.2-1.4-2.2-1.7-3.1-.8L277 41c1-1 2.6-.3.2-.7-1.4-.2-2.8-.5-4.2-.7-4.2-.7-8.4-1.5-12.6-2.2l-18.3-3.2c-1.6-.3-2.9 1.2-2.1 2.8l9 16.8c1.1 2.1 4.4.2 3.2-1.9M52.9 54l-6.1 6c-3.8-4.1-8.3-6.1-13.4-6.1-4.5 0-8.2 1.5-11.2 4.4-3 3-4.5 6.6-4.5 10.8 0 4.4 1.6 8.1 4.7 11.1s7 4.6 11.6 4.6c3 0 5.5-.6 7.5-1.9 2-1.3 3.7-3.2 4.9-5.9H33.3v-8.1h22.8l.1 1.9c0 4-1 7.7-3.1 11.3-2.1 3.6-4.7 6.3-8 8.1C41.8 92.1 38 93 33.6 93c-4.7 0-8.9-1-12.6-3.1-3.7-2-6.6-5-8.7-8.7-2.1-3.8-3.2-7.9-3.2-12.2 0-6 2-11.2 5.9-15.6 4.7-5.3 10.8-7.9 18.4-7.9 3.9 0 7.6.7 11.1 2.2 2.8 1.2 5.7 3.3 8.4 6.3M87.9 58.4h8.4v33.5h-8.4v-3.5c-1.6 1.6-3.3 2.7-4.9 3.4-1.7.7-3.4 1-5.4 1-4.3 0-8.1-1.7-11.2-5-3.2-3.4-4.7-7.5-4.7-12.5 0-5.2 1.5-9.4 4.6-12.7 3.1-3.3 6.8-5 11.1-5 2 0 3.9.4 5.7 1.1 1.8.8 3.4 1.9 4.9 3.4v-3.7zm-8.8 6.9c-2.6 0-4.8.9-6.5 2.8-1.7 1.8-2.6 4.2-2.6 7.1 0 2.9.9 5.3 2.6 7.1 1.8 1.9 3.9 2.8 6.5 2.8s4.8-.9 6.6-2.8c1.7-1.8 2.6-4.2 2.6-7.2 0-2.9-.9-5.3-2.6-7.1-1.8-1.8-4-2.7-6.6-2.7M105.8 46.1h8.4v12.3h5v7.2h-5v26.3h-8.4V65.6h-4.3v-7.2h4.3zM139.5 57.5c3.2 0 6.1.8 8.9 2.4 2.8 1.6 5 3.7 6.5 6.4 1.6 2.7 2.3 5.6 2.3 8.8 0 3.2-.8 6.1-2.4 8.9-1.6 2.8-3.7 4.9-6.4 6.5-2.7 1.6-5.7 2.3-9 2.3-4.8 0-8.9-1.7-12.3-5.1-3.4-3.4-5.1-7.6-5.1-12.5 0-5.2 1.9-9.6 5.8-13.1 3.4-3 7.3-4.6 11.7-4.6m.1 8c-2.6 0-4.8.9-6.5 2.7-1.7 1.8-2.6 4.1-2.6 7 0 2.9.9 5.3 2.6 7.1 1.7 1.8 3.9 2.7 6.5 2.7s4.8-.9 6.6-2.7c1.7-1.8 2.6-4.2 2.6-7.1 0-2.9-.9-5.2-2.6-7-1.7-1.8-3.9-2.7-6.6-2.7M162.1 58.4h7.2v4.2c.8-1.7 1.8-2.9 3.1-3.8 1.3-.9 2.7-1.3 4.3-1.3 1.1 0 2.2.3 3.4.9l-2.6 7.2c-1-.5-1.8-.7-2.4-.7-1.3 0-2.4.8-3.3 2.4-.9 1.6-1.3 4.7-1.3 9.4v15.2h-8.3V58.4zM181.8 46.6h8.4l6.6 28.9 8.1-28.9h7.1l8.3 28.9 6.4-28.9h8.5L225 91.9h-8.3l-8.3-29.3-8.2 29.3H192z"/><path class="st0" d="M271.6 77.6h-27c.4 2.4 1.4 4.3 3.1 5.7 1.7 1.4 3.9 2.1 6.5 2.1 3.1 0 5.8-1.1 8.1-3.3l7.1 3.3c-1.8 2.5-3.9 4.4-6.3 5.6-2.5 1.2-5.4 1.8-8.8 1.8-5.3 0-9.5-1.7-12.8-5-3.3-3.3-5-7.5-5-12.5 0-5.1 1.6-9.4 4.9-12.7 3.3-3.4 7.4-5.1 12.4-5.1 5.3 0 9.6 1.7 12.9 5.1 3.3 3.4 5 7.8 5 13.4l-.1 1.6zm-8.4-6.6c-.6-1.9-1.7-3.4-3.3-4.6-1.6-1.2-3.5-1.8-5.7-1.8-2.3 0-4.4.7-6.2 2-1.1.8-2.1 2.3-3.1 4.3h18.3zM277.5 45.5h8.4v46.4h-8.4zM292.6 45.5h8.4v46.4h-8.4zM31.7 38.5V20.7h2.8c1.6 0 2.8.1 3.6.3 1.1.3 1.9.8 2.5 1.6.6.8.9 1.7.9 2.7 0 .7-.1 1.3-.4 1.8-.3.6-.8 1.1-1.4 1.6 1.1.5 1.9 1.1 2.4 1.9.5.8.7 1.7.7 2.7 0 1-.3 1.9-.8 2.7-.5.8-1.2 1.4-2 1.8-.8.4-1.9.6-3.4.6h-4.9zM35 24v3.7h.7c.8 0 1.4-.2 1.8-.5.4-.3.6-.8.6-1.4 0-.6-.2-1-.6-1.3-.4-.3-1-.5-1.7-.5H35zm0 6.7v4.6h.8c1.4 0 2.4-.2 2.8-.5.5-.4.7-.9.7-1.5 0-.8-.3-1.4-.9-1.8-.6-.4-1.5-.7-2.9-.7H35zM58.8 32.9H48.2c.2.9.6 1.7 1.2 2.2s1.5.8 2.5.8c1.2 0 2.3-.4 3.2-1.3l2.8 1.3c-.7 1-1.5 1.7-2.5 2.2-1 .5-2.1.7-3.4.7-2.1 0-3.7-.6-5-2-1.3-1.2-2-2.8-2-4.8s.6-3.7 1.9-5c1.3-1.3 2.9-2 4.9-2 2.1 0 3.8.7 5.1 2 1.3 1.3 1.9 3.1 1.9 5.3v.6zm-3.3-2.6c-.2-.7-.6-1.3-1.3-1.8-.6-.5-1.4-.7-2.2-.7-.9 0-1.7.3-2.4.8-.4.3-.8.9-1.2 1.7h7.1zM67.4 20.7h3.4l2.5 11.4 3.2-11.4h2.8l3.2 11.4 2.6-11.4h3.3l-4 17.8h-3.2L77.9 27l-3.2 11.5h-3.2zM103.9 32.9H93.3c.2.9.6 1.7 1.2 2.2s1.5.8 2.5.8c1.2 0 2.3-.4 3.2-1.3L103 36c-.7 1-1.5 1.7-2.5 2.2-1 .5-2.1.7-3.4.7-2.1 0-3.7-.6-5-2-1.3-1.3-1.9-2.9-1.9-4.9 0-2 .6-3.7 1.9-5 1.3-1.3 2.9-2 4.9-2 2.1 0 3.8.7 5.1 2 1.3 1.3 1.9 3.1 1.9 5.3l-.1.6zm-3.3-2.6c-.2-.7-.6-1.3-1.3-1.8-.6-.5-1.4-.7-2.2-.7-.9 0-1.7.3-2.4.8-.4.3-.8.9-1.2 1.7h7.1zM106.2 20.3h3.3v18.2h-3.3zM112.1 20.3h3.3v18.2h-3.3zM120.2 35.1c.5 0 1 .2 1.3.6.4.4.6.8.6 1.3s-.2 1-.6 1.3c-.4.4-.8.6-1.3.6s-1-.2-1.3-.6c-.4-.4-.6-.8-.6-1.3s.2-1 .6-1.3c.3-.5.8-.6 1.3-.6M132.6 20.7h4c2.6 0 4.5.3 5.8 1s2.3 1.7 3.1 3.1c.8 1.4 1.2 3.1 1.2 5.1 0 1.4-.2 2.6-.7 3.8-.5 1.1-1.1 2.1-1.9 2.9-.8.8-1.7 1.3-2.6 1.6-.9.3-2.6.4-4.9.4h-4.1V20.7zM136 24v11.2h1.6c1.5 0 2.7-.2 3.4-.5.7-.4 1.3-1 1.7-1.8.4-.8.7-1.9.7-3.1 0-1.9-.5-3.4-1.6-4.4-1-.9-2.5-1.4-4.6-1.4H136zM155.7 25c1.2 0 2.4.3 3.5.9 1.1.6 1.9 1.5 2.6 2.5.6 1.1.9 2.2.9 3.4 0 1.2-.3 2.4-.9 3.5-.6 1.1-1.5 1.9-2.5 2.5-1.1.6-2.2.9-3.5.9-1.9 0-3.5-.7-4.8-2-1.3-1.3-2-3-2-4.9 0-2.1.8-3.8 2.3-5.1 1.2-1.1 2.7-1.7 4.4-1.7m.1 3.1c-1 0-1.9.4-2.6 1.1-.7.7-1 1.6-1 2.7s.3 2.1 1 2.8c.7.7 1.5 1.1 2.6 1.1s1.9-.4 2.6-1.1c.7-.7 1-1.6 1-2.8 0-1.1-.3-2-1-2.7-.7-.7-1.6-1.1-2.6-1.1M171.4 20.7h3.3l2.5 11.4 3.2-11.4h2.8l3.3 11.4 2.5-11.4h3.3l-4 17.8h-3.2L181.8 27l-3.2 11.5h-3.2zM207.8 32.9h-10.6c.2.9.6 1.7 1.2 2.2.7.6 1.5.8 2.5.8 1.2 0 2.3-.4 3.2-1.3l2.8 1.3c-.7 1-1.5 1.7-2.5 2.2-1 .5-2.1.7-3.4.7-2.1 0-3.7-.6-5-2-1.3-1.3-1.9-2.9-1.9-4.9 0-2 .6-3.7 1.9-5 1.3-1.3 2.9-2 4.9-2 2.1 0 3.8.7 5.1 2 1.3 1.3 1.9 3.1 1.9 5.3l-.1.7zm-3.3-2.6c-.2-.7-.6-1.3-1.3-1.8-.6-.5-1.4-.7-2.2-.7-.9 0-1.7.3-2.4.8-.4.3-.8.9-1.2 1.7h7.1zM210.1 20.3h3.3v18.2h-3.3zM216 20.3h3.3v18.2H216zM224.1 35.1c.5 0 1 .2 1.3.6.4.4.6.8.6 1.3s-.2 1-.6 1.3c-.4.4-.8.6-1.3.6s-1-.2-1.3-.6c-.4-.4-.6-.8-.6-1.3s.2-1 .6-1.3c.3-.5.8-.6 1.3-.6M26.7 100.9v4.4H31v-4.4h2.6v11.5H31v-4.8h-4.3v4.8h-2.6v-11.5zM37.8 109c.1 1.1 1.1 1.6 2.4 1.6.9 0 1.6-.1 2.3-.3l.3 1.8c-.9.3-1.9.5-3 .5-2.8 0-4.5-1.6-4.5-4.3 0-2.1 1.3-4.5 4.2-4.5 2.7 0 3.7 2.1 3.7 4.2 0 .4-.1.8-.1 1h-5.3zm3-1.7c0-.6-.3-1.7-1.5-1.7-1.1 0-1.5 1-1.6 1.7h3.1zM49.5 112.4l-.2-.8h-.1c-.5.7-1.4 1-2.4 1-1.7 0-2.7-1.2-2.7-2.6 0-2.2 1.9-3.2 4.9-3.2v-.1c0-.4-.2-1.1-1.5-1.1-.9 0-1.8.3-2.3.6l-.5-1.7c.6-.3 1.7-.7 3.2-.7 2.8 0 3.7 1.6 3.7 3.6v2.9c0 .8 0 1.6.1 2h-2.2zm-.3-4c-1.4 0-2.4.3-2.4 1.3 0 .7.4 1 1 1s1.2-.4 1.3-1c0-.1.1-.3.1-.4v-.9zM53.8 100.3h2.6v12.1h-2.6zM61.4 101.7v2.4h1.9v1.9h-1.9v3c0 1 .2 1.5 1 1.5.3 0 .6 0 .8-.1v2c-.3.1-1 .2-1.7.2-.8 0-1.5-.3-1.9-.7-.5-.5-.7-1.3-.7-2.5V106h-1.1v-2h1.1v-1.8l2.5-.5zM64.8 100.3h2.6v4.8c.3-.4.6-.6 1-.9.4-.2.9-.3 1.3-.3 1.7 0 2.9 1.1 2.9 3.7v4.9H70v-4.6c0-1.1-.4-1.8-1.3-1.8-.7 0-1.1.4-1.3.9-.1.2-.1.4-.1.6v5h-2.6v-12.3zM78.3 101c.8-.1 1.9-.2 3.5-.2s2.7.3 3.5.9c.7.6 1.2 1.5 1.2 2.7s-.4 2.1-1.1 2.7c-.9.8-2.2 1.2-3.7 1.2-.3 0-.6 0-.9-.1v4.1h-2.6V101zm2.6 5.3c.2.1.5.1.9.1 1.4 0 2.2-.7 2.2-1.9 0-1.1-.7-1.7-2-1.7-.5 0-.9.1-1.1.1v3.4zM88 106.8c0-1.2 0-2-.1-2.7h2.2l.1 1.5h.1c.4-1.2 1.5-1.7 2.3-1.7h.5v2.4c-.2 0-.4-.1-.7-.1-1 0-1.6.5-1.8 1.3 0 .2-.1.4-.1.6v4.2H88v-5.5zM102.6 108.1c0 3.1-2.2 4.5-4.4 4.5-2.4 0-4.3-1.6-4.3-4.3 0-2.7 1.8-4.4 4.5-4.4 2.5 0 4.2 1.7 4.2 4.2m-6 .1c0 1.4.6 2.5 1.7 2.5 1 0 1.7-1 1.7-2.5 0-1.2-.5-2.5-1.7-2.5-1.3 0-1.7 1.3-1.7 2.5M104.2 106.7c0-1 0-1.9-.1-2.7h2.2l.1 1.1h.1c.4-.5 1.1-1.3 2.5-1.3 1.1 0 1.9.5 2.3 1.4.3-.4.7-.8 1.1-1 .5-.3 1-.4 1.6-.4 1.6 0 2.8 1.1 2.8 3.6v4.9h-2.5v-4.5c0-1.2-.4-1.9-1.2-1.9-.6 0-1 .4-1.2.9-.1.2-.1.5-.1.7v4.9h-2.5v-4.7c0-1.1-.4-1.8-1.2-1.8-.7 0-1.1.5-1.2.9-.1.2-.1.4-.1.6v4.9h-2.5v-5.6zM127.1 108.1c0 3.1-2.2 4.5-4.4 4.5-2.4 0-4.3-1.6-4.3-4.3 0-2.7 1.8-4.4 4.5-4.4 2.5 0 4.2 1.7 4.2 4.2m-6 .1c0 1.4.6 2.5 1.7 2.5 1 0 1.7-1 1.7-2.5 0-1.2-.5-2.5-1.7-2.5s-1.7 1.3-1.7 2.5M131.7 101.7v2.4h1.9v1.9h-1.9v3c0 1 .2 1.5 1 1.5.3 0 .6 0 .8-.1v2c-.3.1-1 .2-1.7.2-.8 0-1.5-.3-1.9-.7-.5-.5-.7-1.3-.7-2.5V106H128v-2h1.1v-1.8l2.6-.5zM137.7 101.7c0 .7-.5 1.3-1.4 1.3-.8 0-1.4-.6-1.3-1.3 0-.8.5-1.3 1.4-1.3s1.3.6 1.3 1.3M135 104h2.6v8.3H135V104zM147.9 108.1c0 3.1-2.2 4.5-4.4 4.5-2.4 0-4.3-1.6-4.3-4.3 0-2.7 1.8-4.4 4.5-4.4 2.5 0 4.2 1.7 4.2 4.2m-6 .1c0 1.4.6 2.5 1.7 2.5 1 0 1.7-1 1.7-2.5 0-1.2-.5-2.5-1.7-2.5s-1.7 1.3-1.7 2.5M149.6 106.7c0-1 0-1.9-.1-2.7h2.3l.1 1.1h.1c.3-.5 1.2-1.3 2.6-1.3 1.7 0 3 1.1 3 3.6v5H155v-4.6c0-1.1-.4-1.8-1.3-1.8-.7 0-1.1.5-1.3 1-.1.2-.1.4-.1.6v4.8h-2.6v-5.7zM163.2 109.7c.7.4 1.8.7 2.9.7 1.2 0 1.8-.5 1.8-1.2s-.5-1.1-1.9-1.6c-1.9-.7-3.2-1.7-3.2-3.4 0-2 1.6-3.5 4.4-3.5 1.3 0 2.3.3 2.9.6l-.6 2.1c-.5-.2-1.3-.5-2.4-.5s-1.7.5-1.7 1.1c0 .7.6 1.1 2.1 1.6 2 .8 3 1.8 3 3.4 0 1.9-1.5 3.6-4.6 3.6-1.3 0-2.6-.3-3.3-.7l.6-2.2zM174.4 109c.1 1.1 1.1 1.6 2.4 1.6.9 0 1.6-.1 2.3-.3l.3 1.8c-.9.3-1.9.5-3 .5-2.8 0-4.5-1.6-4.5-4.3 0-2.1 1.3-4.5 4.2-4.5 2.7 0 3.7 2.1 3.7 4.2 0 .4-.1.8-.1 1h-5.3zm3-1.7c0-.6-.3-1.7-1.5-1.7-1.1 0-1.5 1-1.6 1.7h3.1zM181.4 106.8c0-1.2 0-2-.1-2.7h2.2l.1 1.5h.1c.4-1.2 1.5-1.7 2.3-1.7h.5v2.4c-.2 0-.4-.1-.7-.1-1 0-1.6.5-1.8 1.3 0 .2-.1.4-.1.6v4.2h-2.6v-5.5zM190.1 104l1.1 3.9c.2.7.4 1.4.5 2h.1c.1-.7.3-1.3.5-2l1.1-3.9h2.7l-3.1 8.3h-2.6l-3-8.3h2.7zM199.9 101.7c0 .7-.5 1.3-1.4 1.3-.8 0-1.4-.6-1.3-1.3 0-.8.5-1.3 1.4-1.3.8 0 1.3.6 1.3 1.3m-2.7 2.3h2.6v8.3h-2.6V104zM208.2 112.2c-.5.2-1.3.4-2.3.4-2.7 0-4.4-1.6-4.4-4.3 0-2.4 1.7-4.4 4.8-4.4.7 0 1.4.1 2 .3l-.4 1.9c-.3-.1-.8-.3-1.5-.3-1.4 0-2.3 1-2.2 2.3 0 1.5 1 2.3 2.3 2.3.6 0 1.1-.1 1.5-.3l.2 2.1zM211.4 109c.1 1.1 1.1 1.6 2.4 1.6.9 0 1.6-.1 2.3-.3l.3 1.8c-.9.3-1.9.5-3 .5-2.8 0-4.5-1.6-4.5-4.3 0-2.1 1.3-4.5 4.2-4.5 2.7 0 3.7 2.1 3.7 4.2 0 .4-.1.8-.1 1h-5.3zm3.1-1.7c0-.6-.3-1.7-1.5-1.7-1.1 0-1.5 1-1.6 1.7h3.1zM218.4 110.1c.5.3 1.5.6 2.2.6.8 0 1.1-.3 1.1-.7 0-.4-.3-.6-1.2-1-1.7-.6-2.4-1.5-2.4-2.5 0-1.6 1.3-2.7 3.4-2.7 1 0 1.8.2 2.4.5l-.5 1.8c-.4-.2-1.1-.5-1.8-.5-.6 0-1 .3-1 .7 0 .4.3.6 1.3 1 1.6.5 2.3 1.3 2.3 2.6 0 1.6-1.2 2.7-3.6 2.7-1.1 0-2.1-.2-2.7-.6l.5-1.9z"/></svg>