<svg version="1.1" id="Layer_1" xmlns="http://www.w3.org/2000/svg" x="0" y="0" width="792" height="1049.9" style="enable-background:new 0 0 792 1049.9" xml:space="preserve"><style>.st0{fill-rule:evenodd;clip-rule:evenodd}</style><linearGradient id="SVGID_1_" gradientUnits="userSpaceOnUse" x1="324" y1="684" x2="324.707" y2="683.293"><stop offset="0" style="stop-color:#20ac4b"/><stop offset=".983" style="stop-color:#19361a"/></linearGradient><path class="st0" d="M360.6 135C354.9 78 349 24.3 301.5 9.8c-41.2-12.6-70.9 13.6-84.2 41.1-13.8 28.4-12.6 68.2-17 106.2-6 51.5-11 110-16 162.3-2.8 29.2-1.9 56.5-9 79.2-18.3-129-38.6-254.4-57.7-382.6-30.8 0-66.8-.5-93.5-.3C35 111.8 51.4 211 67 313.4c7.1 46.9 14.3 97.4 22 148.3 7.7 50.6 12.9 101 53.1 118.3 51.7 22.2 95.1-17.1 104.2-58.1 5.7-25.8 5.3-55.9 8-85.2 7.6-82.5 13.8-183.5 23-256.5 12 86.4 19.9 183.7 31.1 270.6 3.8 29.5 4 64.8 14 88.2 6.6 15.4 22.4 33.9 36.1 41.1 34.4 18 77.3-3.5 92.2-26.1 20.1-30.4 21.5-83.8 28.1-128.3 20.4-137.6 42.3-280 60.1-409.9h-94.2c-13.3 93.5-28.9 190.7-42.1 283.6-3.5 24.5-6.8 49.2-10 71.2-1.1 7.5.3 16.6-5 23-8.3-74-19-178.1-27-258.6zM556 196.2h212.4v-16H557c-2.3 3.3-.3 10.9-1 16z"/><path d="m233.6 609.5-43 103.9H153L125.6 640l-26.5 73.4H62.6L20 609.5h33.8l27.6 77.6 27.2-77.6h35.2l29.2 78.4 26.5-78.4h34.1zM346.7 713.4h-30.9l-10.4-23.6h-51.1l-11.1 23.6h-30.6l50.7-103.9h30.2l53.2 103.9zm-51-41.8-16.8-36.5-16.3 36.5h33.1zM489.8 681c0 9.1-3.6 16.8-10.8 23-7.2 6.2-16.3 9.3-27.4 9.3h-87.5v-18.6h72.1c4.8 0 8.9-.9 12.2-2.8 3.8-2.2 5.7-5.2 5.7-9 0-8.9-7.4-13.3-22.3-13.3h-36.4c-10.5 0-19.7-2.7-27.6-8.2-7.9-5.4-11.8-12.4-11.8-20.7 0-9.3 3.9-16.8 11.6-22.6 7.7-5.8 17.9-8.7 30.5-8.7h83.6v17.8H408c-3.3 0-6.6 1.2-10 3.5-3.4 2.3-5 5.1-5 8.2 0 3.6 1.6 6.5 4.9 8.9 3.2 2.4 7.2 3.6 11.8 3.6h40.1c12.5 0 22.3 2.7 29.4 8.1 7 5.5 10.6 12.6 10.6 21.5zM540.4 713.4H513V609.5h27.4v103.9zm88.1-103.9-55 51.2 53.2 52.7h-38.4l-47-52.8 48.8-51h38.4zM769.3 661.3c0 20.2-6.7 34.7-20 43.4-10.8 7.1-26.6 10.6-47.4 10.6-23 0-40-4.1-50.9-12.2-12-8.9-18-23.3-18-43 0-16.2 5.4-28.8 16.1-37.8 11.7-9.8 29.1-14.7 52.3-14.7 25.6 0 43.6 4.7 54.1 14.1 9.2 8.3 13.8 21.5 13.8 39.6zm-31.5-.6c0-10.2-2.9-18.4-8.7-24.4-6.5-6.7-16.1-10.1-28.8-10.1-12.5 0-21.9 3.6-28.3 10.9-5.3 6.1-8 13.9-8 23.7 0 11.2 2.1 19.5 6.4 24.9 5.9 7.4 16.8 11.2 32.7 11.2 13.4 0 22.9-3.6 28.3-10.9 4.3-5.8 6.4-14.2 6.4-25.3zM596.9 155c-4.6 0-9.3-.9-13.9-2.6-8.8-3.6-15.9-12-21-24.8-4.6-11.6-7-25.4-7-40.9 0-15 2.1-28.4 6.2-39.9 4.5-12.7 11.1-21.6 19.5-26.2 6.5-3.6 13.3-5.4 20.1-5.4h41.7v27.2h-43.3c-6.9 0-11.9 5.1-15 15.2-2.4 7.9-3.7 18.4-3.7 31.2 0 10.8 1.6 20.1 4.7 27.6 3.6 8.8 8.7 13.2 15.2 13.2h42.4V155h-45.9z"/><path d="M642.3 15.4v26.7h-43.1c-7 0-12.1 5.1-15.2 15.4-2.5 8-3.7 18.4-3.7 31.3 0 10.9 1.6 20.1 4.7 27.7 3.6 8.9 8.8 13.4 15.4 13.4h42.2v24.9h-45.7c-4.6 0-9.2-.9-13.8-2.6-8.8-3.6-15.7-11.8-20.9-24.7-4.6-11.7-7-25.3-7-40.8 0-15 2.1-28.3 6.2-39.8 4.5-12.7 11-21.4 19.4-26.1 6.5-3.6 13.2-5.4 20-5.4h41.5m.5-.5h-41.9c-6.9 0-13.7 1.8-20.2 5.4-8.5 4.7-15.1 13.6-19.6 26.4-4.1 11.5-6.2 25-6.2 40 0 15.5 2.4 29.3 7 41 5.2 13 12.3 21.4 21.1 25 4.6 1.7 9.3 2.6 14 2.6h46.2v-25.9h-42.7c-6.4 0-11.4-4.4-14.9-13.1-3.1-7.5-4.7-16.7-4.7-27.5 0-12.8 1.2-23.3 3.7-31.2 3.1-10 8-15 14.8-15H643V14.9h-.2zM712.5 157.6c-18.2 0-31.9-5.5-40.6-16.5-9.5-12-14.4-31.4-14.4-57.9 0-21.7 4.3-38.8 12.8-50.9 9.3-13.2 23.3-19.9 41.7-19.9 20.3 0 34.8 6.4 43.1 19.1 7.3 11.2 11 29.1 11 53.3 0 27.1-5.4 46.8-15.9 58.5-8.5 9.5-21.2 14.3-37.7 14.3zM711.3 38c-9.8 0-17.2 4.9-22.2 14.5-4.2 8.1-6.3 18.7-6.3 31.7 0 15 1.7 26.2 5 33.3 4.6 9.9 13.3 14.9 25.7 14.9 10.5 0 18-4.9 22.2-14.4 3.3-7.5 5-18.9 5-33.7 0-13.6-2.3-24.6-6.8-32.7-5-9.1-12.7-13.6-22.6-13.6z"/><path d="M712.1 12.8c20.3 0 34.6 6.3 42.9 19 7.3 11.2 10.9 28.9 10.9 53.1 0 27.2-5.3 46.6-15.9 58.3-8.6 9.5-21.1 14.2-37.6 14.2-18.2 0-31.7-5.5-40.4-16.4-9.5-12-14.3-31.2-14.3-57.7 0-21.7 4.3-38.6 12.8-50.7 9.4-13.2 23.2-19.8 41.6-19.8m1.4 119.7c10.7 0 18.1-4.9 22.5-14.6 3.4-7.6 5-18.9 5-33.8 0-13.7-2.3-24.7-6.9-32.8-5.1-9.1-12.8-13.6-22.9-13.6-9.9 0-17.4 4.9-22.4 14.6-4.2 8.1-6.3 18.7-6.3 31.8 0 15.1 1.7 26.2 5 33.4 4.8 10 13.4 15 26 15m-1.4-120.2c-18.5 0-32.6 6.7-41.9 20-8.5 12.1-12.8 29.3-12.8 51 0 26.5 4.8 46 14.4 58 8.8 11 22.5 16.6 40.8 16.6 16.5 0 29.3-4.8 37.9-14.3 10.6-11.8 16-31.5 16-58.7 0-24.2-3.7-42.2-11-53.4-8.4-12.8-23-19.2-43.4-19.2zm1.4 119.7c-12.4 0-20.9-4.9-25.5-14.7-3.3-7.1-5-18.2-5-33.2 0-12.9 2.1-23.5 6.3-31.6 4.9-9.5 12.3-14.3 22-14.3 9.9 0 17.4 4.5 22.4 13.3 4.5 8 6.8 19 6.8 32.5 0 14.8-1.7 26.1-5 33.6-4.2 9.6-11.6 14.4-22 14.4zM20.7 782.9H33v28.4h21.1v-28.4h12.3v73.9H54.1V826H33v30.8H20.7v-73.9zM110.1 811.9v13.7H89.4V843h23v13.8H77.1v-73.9h34.2v13.8H89.4v15.2h20.7zM149.9 837.5h-16.1l-4 19.3H117l17-73.9h16.2l17.4 73.9h-13.4l-4.3-19.3zM135.7 825H148c-3.2-14.4-5.3-24.3-6.3-29.7h-.2l-2.5 14-3.3 15.7zM178.3 856.8V797h-15v-14.1H206V797h-15.3v59.8h-12.4zM212.4 782.9h12.3v73.9h-12.3v-73.9zM246.8 856.8h-11.4v-73.9H250l12.9 30.2c2.5 5.9 5.1 13.4 7.8 22.4h.2c-.6-7.8-1-17.9-1-30.5v-22.2h11.4v73.9h-13.1c-9.1-21.8-14.5-34.9-16.3-39.3-1.8-4.5-3.6-9.7-5.5-15.7h-.3c.4 9.3.6 20 .6 32.1v23zM338.6 814.3v38.9c-6.5 2.9-12.7 4.3-18.7 4.3-10.1 0-17.7-3.4-22.7-10.3-5.1-6.9-7.6-15.7-7.6-26.6 0-11.7 2.9-21.1 8.7-28.1 5.8-7 13.4-10.5 22.9-10.5 6.5 0 11.7 1.2 15.6 3.7l-2.6 13.4c-3.6-2.2-8-3.3-13.2-3.3-5.6 0-10.1 2.1-13.4 6.3-3.3 4.2-5 10-5 17.5 0 7.3 1.6 13.2 4.9 17.6 3.2 4.4 7.5 6.6 12.9 6.6 3 0 5.1-.4 6.4-1.1v-15.4h-8.7v-13.2h20.5zM414.2 856.8h-14.3c-1.2-1.5-2.4-3.3-3.7-5.4-4.1 4.4-9.2 6.6-15.1 6.6-6 0-10.7-2-14.1-6-3.4-4-5.1-9-5.1-14.9 0-9.3 3.5-16.4 10.4-21.3v-.4c-2.8-4.3-4.1-9-4.1-14 0-5.3 1.5-9.9 4.5-13.8 3-3.9 7-5.8 12-5.8 4.4 0 7.9 1.6 10.7 4.8 2.8 3.2 4.2 7.4 4.2 12.5 0 7.8-3.6 14.1-10.7 19l-.1.3 9.1 13.7c2.3-4.9 3.9-11 4.9-18.2h11c-1.6 12.2-4.6 21.6-9.2 28.3 4.1 6.4 7.3 11.3 9.6 14.6zM378 823.9c-2.9 2.9-4.4 6.3-4.4 10.3 0 3.3.8 6 2.5 8.2 1.7 2.2 3.9 3.3 6.6 3.3 3.1 0 5.6-1.2 7.6-3.7-2.6-3.5-6.7-9.5-12.3-18.1zm5.1-13.7c2.1-1.9 3.7-3.7 4.6-5.3.9-1.6 1.4-3.4 1.4-5.4 0-2-.4-3.7-1.3-5.1-.9-1.4-2-2.1-3.5-2.1s-2.7.7-3.6 2.2c-.9 1.4-1.4 3.2-1.4 5.3 0 3.3 1.3 6.8 3.8 10.4zM475.5 841.4l1.9 13.2c-3.7 2.3-8.5 3.4-14.4 3.4-9 0-16.2-3.4-21.3-10.2-5.2-6.8-7.7-15.8-7.7-27 0-11.8 2.8-21.3 8.4-28.5 5.6-7.1 12.9-10.7 21.7-10.7 6 0 10.6 1.1 13.9 3.4l-2.5 13.4c-3.3-2-6.9-3-10.8-3-5.4 0-9.7 2.2-12.9 6.5-3.2 4.3-4.8 10.3-4.8 17.9 0 7.4 1.6 13.3 4.8 17.6 3.2 4.3 7.5 6.5 13.1 6.5 3.9 0 7.5-.8 10.6-2.5zM534.3 819.2c0 11.7-2.5 21.1-7.5 28.2-5 7.1-11.6 10.6-19.7 10.6-7.9 0-14.3-3.5-19.1-10.6-4.8-7-7.2-16.1-7.2-27.1 0-11.3 2.5-20.5 7.6-27.8 5-7.3 11.5-10.9 19.5-10.9s14.4 3.5 19.3 10.5c4.7 7.1 7.1 16.1 7.1 27.1zm-40.6.7c0 7.2 1.3 13.2 3.8 17.8 2.5 4.6 5.8 6.9 9.9 6.9 4.2 0 7.5-2.3 10-6.9 2.5-4.6 3.7-10.6 3.7-18 0-7.2-1.3-13.1-3.8-17.7s-5.8-7-9.9-7c-4.1 0-7.5 2.3-10 7s-3.7 10.7-3.7 17.9zM593.6 819.2c0 11.7-2.5 21.1-7.5 28.2-5 7.1-11.6 10.6-19.7 10.6-7.9 0-14.3-3.5-19.1-10.6-4.8-7-7.2-16.1-7.2-27.1 0-11.3 2.5-20.5 7.6-27.8 5-7.3 11.5-10.9 19.5-10.9s14.4 3.5 19.3 10.5c4.6 7.1 7.1 16.1 7.1 27.1zm-40.6.7c0 7.2 1.3 13.2 3.8 17.8 2.5 4.6 5.8 6.9 9.9 6.9 4.2 0 7.5-2.3 10-6.9 2.5-4.6 3.7-10.6 3.7-18 0-7.2-1.3-13.1-3.8-17.7s-5.8-7-9.9-7c-4.1 0-7.5 2.3-10 7s-3.7 10.7-3.7 17.9zM601.8 856.8v-73.9h12.3v59.7h22.2v14.3h-34.5zM643.6 782.9H656v73.9h-12.3v-73.9zM678 856.8h-11.4v-73.9h14.6l12.9 30.2c2.5 5.9 5.1 13.4 7.8 22.4h.2c-.6-7.8-1-17.9-1-30.5v-22.2h11.4v73.9h-13.1c-9.1-21.8-14.5-34.9-16.3-39.3-1.8-4.5-3.6-9.7-5.5-15.7h-.3c.4 9.3.6 20 .6 32.1v23zM769.8 814.3v38.9c-6.5 2.9-12.7 4.3-18.7 4.3-10.1 0-17.7-3.4-22.7-10.3-5.1-6.9-7.6-15.7-7.6-26.6 0-11.7 2.9-21.1 8.7-28.1 5.8-7 13.4-10.5 22.9-10.5 6.5 0 11.7 1.2 15.6 3.7l-2.6 13.4c-3.6-2.2-8-3.3-13.2-3.3-5.6 0-10.1 2.1-13.4 6.3-3.3 4.2-5 10-5 17.5 0 7.3 1.6 13.2 4.9 17.6 3.2 4.4 7.5 6.6 12.9 6.6 3 0 5.1-.4 6.4-1.1v-15.4h-8.7v-13.2h20.5zM74.6 888.2v20.7H43.5l-1.7 15.9c2.3-.2 4.1-.3 5.4-.3 9.2 0 16.7 2.9 22.3 8.8 5.6 5.9 8.4 14.5 8.4 26 0 10.4-3.1 19.2-9.3 26.5-6.2 7.3-14.4 10.9-24.7 10.9-8.6 0-16.1-2.1-22.4-6.2l3.5-19c5.6 3.7 11.6 5.6 18.1 5.6 4.5 0 8.2-1.4 11.3-4.3 3-2.9 4.6-6.8 4.6-11.8 0-11.8-7.5-17.7-22.4-17.7-3 0-6.6.3-10.9 1l5.1-55.9h43.8zM148.1 941.2c0 17.3-2.6 30.9-7.9 40.7-5.3 9.8-12.7 14.7-22.2 14.7-9.4 0-16.8-4.9-22-14.8-5.2-9.8-7.9-23.2-7.9-40 0-16.3 2.6-29.7 7.7-40 5.2-10.3 12.7-15.5 22.5-15.5 9.5 0 16.8 4.9 22 14.8 5.2 9.9 7.8 23.2 7.8 40.1zm-41.6.3c0 11.8 1 20.8 3 27.1 2 6.2 4.9 9.3 8.5 9.3 3.7 0 6.6-3.1 8.6-9.3 2-6.2 3-15.2 3-27.1 0-24.1-3.8-36.1-11.4-36.1-3.7 0-6.6 3.1-8.6 9.3-2.1 6.2-3.1 15.1-3.1 26.8zM158 888.2h56.2v15.7l-32.7 90.9h-19.8l32.8-85.6v-.3H158v-20.7zM223.4 943.6h32v16.7h-32v-16.7zM263.8 988.7l3.8-18.9c6.5 4.5 12.8 6.7 18.8 6.7 4.5 0 8.1-1.3 10.6-3.8s3.8-5.9 3.8-10.1c0-4.6-1.5-8.3-4.4-11-3-2.7-6.7-4.1-11.3-4.1H277v-18.2h7.7c3.8 0 7.1-1.1 9.8-3.2 2.7-2.2 4-5.1 4-8.9 0-3.3-1-6-3.1-8-2-2-4.9-3-8.6-3-5.8 0-11.4 2.2-16.9 6.7l-3.9-18.2c6.8-5.6 15.1-8.4 24.9-8.4 8 0 14.4 2.5 19.2 7.5 4.8 5 7.1 11.4 7.1 19.2 0 11.9-4.8 20.1-14.4 24.8v.3c5.2 1.3 9.4 4.3 12.5 9 3.1 4.7 4.7 10.3 4.7 16.8 0 9.6-2.9 17.5-8.8 23.5-5.9 6.1-13.7 9.1-23.4 9.1-9.8.1-17.7-2.5-24-7.8zM345 939.8c-7.6-5.4-11.4-13.1-11.4-23.3 0-9 2.6-16.2 7.9-21.8 5.3-5.6 11.9-8.4 19.8-8.4 8.3 0 14.8 2.7 19.5 8s7 11.8 7 19.4c0 10.4-3.8 18.2-11.4 23.5v.5c4.6 2.3 8.1 5.8 10.7 10.4 2.6 4.6 3.8 10 3.8 16 0 9.6-2.8 17.4-8.3 23.5-5.6 6-12.9 9-22.1 9-9.1 0-16.3-2.9-21.5-8.7-5.2-5.8-7.9-12.8-7.9-21 0-12.2 4.7-21 14-26.6v-.5zm4.8 24.5c0 3.9 1.1 7.4 3.2 10.3 2.1 3 4.8 4.4 8 4.4 3.3 0 6-1.2 8-3.7s3.1-5.6 3.1-9.4c0-3-.5-5.7-1.5-8s-2.9-4.4-5.5-6.3c-2.6-1.8-4.5-2.7-5.6-2.7-.6 0-1.9.6-3.7 1.9-1.8 1.3-3.3 3.1-4.3 5.5-1.1 2.3-1.7 5-1.7 8zm12.7-34.3c2.4-1 4.4-2.7 5.9-5.2s2.2-5.2 2.2-8.2c0-3.8-.9-6.9-2.6-9.4-1.7-2.5-4.1-3.7-7.1-3.7s-5.4 1.1-7.1 3.4c-1.7 2.3-2.6 5.2-2.6 8.7-.1 6.5 3.7 11.3 11.3 14.4zM405.7 996.3v-19.5c1.1.2 2.3.2 3.5.2 17 0 27.1-8.8 30.5-26.5l-.2-.2c-3.7 5.2-9.1 7.9-16.2 7.9s-13-3.1-17.7-9.3c-4.7-6.2-7.1-14.3-7.1-24.1 0-10.7 2.8-19.7 8.5-27.2s12.8-11.2 21.3-11.2c9.4 0 16.8 4.2 22.1 12.7 5.3 8.5 8 19.6 8 33.4 0 10.1-1 19-3.1 26.8-2 7.8-4.9 14.3-8.5 19.4-3.6 5.2-7.9 9.1-12.7 11.9-4.8 2.8-10.2 4.5-16.1 5.3-1.9.2-6 .4-12.3.4zm33.9-68.9c0-6.7-1-12.1-3.1-16.3-2-4.1-4.9-6.2-8.7-6.2-3.2 0-5.9 1.7-7.9 5.2-2.1 3.4-3.1 7.8-3.1 13.2 0 4.9 1 9 3.1 12.1 2 3.2 4.8 4.8 8.4 4.8 2.4 0 4.5-.6 6.3-1.9 1.8-1.3 3.1-2.7 3.9-4.4.7-1.7 1.1-3.8 1.1-6.5zM466.1 943.6h32v16.7h-32v-16.7zM512.6 996.3v-19.5c1.1.2 2.3.2 3.5.2 17 0 27.1-8.8 30.5-26.5l-.2-.2c-3.7 5.2-9.1 7.9-16.2 7.9s-13-3.1-17.7-9.3c-4.7-6.2-7.1-14.3-7.1-24.1 0-10.7 2.8-19.7 8.5-27.2s12.8-11.2 21.3-11.2c9.4 0 16.8 4.2 22.1 12.7 5.3 8.5 8 19.6 8 33.4 0 10.1-1 19-3.1 26.8-2 7.8-4.9 14.3-8.5 19.4-3.6 5.2-7.9 9.1-12.7 11.9-4.8 2.8-10.2 4.5-16.1 5.3-1.8.2-5.9.4-12.3.4zm34-68.9c0-6.7-1-12.1-3.1-16.3-2-4.1-4.9-6.2-8.7-6.2-3.2 0-5.9 1.7-7.9 5.2-2.1 3.4-3.1 7.8-3.1 13.2 0 4.9 1 9 3.1 12.1 2 3.2 4.8 4.8 8.4 4.8 2.4 0 4.5-.6 6.3-1.9 1.8-1.3 3.1-2.7 3.9-4.4.7-1.7 1.1-3.8 1.1-6.5zM587.6 939.8c-7.6-5.4-11.4-13.1-11.4-23.3 0-9 2.6-16.2 7.9-21.8 5.3-5.6 11.9-8.4 19.8-8.4 8.3 0 14.8 2.7 19.5 8s7 11.8 7 19.4c0 10.4-3.8 18.2-11.4 23.5v.5c4.6 2.3 8.1 5.8 10.7 10.4 2.6 4.6 3.8 10 3.8 16 0 9.6-2.8 17.4-8.3 23.5-5.6 6-12.9 9-22.1 9-9.1 0-16.3-2.9-21.5-8.7-5.2-5.8-7.9-12.8-7.9-21 0-12.2 4.7-21 14-26.6v-.5zm4.9 24.5c0 3.9 1.1 7.4 3.2 10.3 2.1 3 4.8 4.4 8 4.4 3.3 0 6-1.2 8-3.7s3.1-5.6 3.1-9.4c0-3-.5-5.7-1.5-8s-2.9-4.4-5.5-6.3c-2.6-1.8-4.5-2.7-5.6-2.7-.6 0-1.9.6-3.7 1.9-1.8 1.3-3.3 3.1-4.3 5.5-1.2 2.3-1.7 5-1.7 8zm12.6-34.3c2.4-1 4.4-2.7 5.9-5.2s2.2-5.2 2.2-8.2c0-3.8-.9-6.9-2.6-9.4-1.7-2.5-4.1-3.7-7.1-3.7s-5.4 1.1-7.1 3.4c-1.7 2.3-2.6 5.2-2.6 8.7 0 6.5 3.8 11.3 11.3 14.4zM695.6 888.2v20.7h-31.1l-1.7 15.9c2.3-.2 4.1-.3 5.4-.3 9.2 0 16.7 2.9 22.3 8.8 5.6 5.9 8.4 14.5 8.4 26 0 10.4-3.1 19.2-9.3 26.5-6.2 7.3-14.4 10.9-24.7 10.9-8.6 0-16.1-2.1-22.4-6.2l3.5-19c5.6 3.7 11.6 5.6 18.1 5.6 4.5 0 8.2-1.4 11.3-4.3 3-2.9 4.6-6.8 4.6-11.8 0-11.8-7.5-17.7-22.4-17.7-3 0-6.6.3-10.9 1l5.1-55.9h43.8zM763.4 888.2v20.7h-31.1l-1.7 15.9c2.3-.2 4.1-.3 5.4-.3 9.2 0 16.7 2.9 22.3 8.8 5.6 5.9 8.4 14.5 8.4 26 0 10.4-3.1 19.2-9.3 26.5-6.2 7.3-14.4 10.9-24.7 10.9-8.6 0-16.1-2.1-22.4-6.2l3.5-19c5.6 3.7 11.6 5.6 18.1 5.6 4.5 0 8.2-1.4 11.3-4.3 3-2.9 4.6-6.8 4.6-11.8 0-11.8-7.5-17.7-22.4-17.7-3 0-6.6.3-10.9 1l5.1-55.9h43.8z"/><path class="st0" d="M15.4 746.2h756.1v18.3H15.4zM16.4 1015.9h756.1v18.3H16.4z"/></svg>