<svg version="1.1" id="Layer_1" xmlns="http://www.w3.org/2000/svg" x="0" y="0" width="216" height="216" style="enable-background:new 0 0 216 216" xml:space="preserve"><style>.st0{fill:#233d62}</style><path class="st0" d="M115.1 99.6c-4.3 2.1-9 3.2-14 3.2-12.4 0-23.5-7-28.9-18.1L43.4 25.5H70c.7 0 1.3.4 1.6 1 3.4 7 23.5 48.3 23.8 48.6C102 87 108.5 96 115.1 99.6"/><path d="M132.4 25.5c-.7 0-1.3.4-1.6 1L108.2 73c-2.5 4-4.7 4.8-7.6 4.3 5.5 9.2 15.8 13.6 20.7 14.6 1.3.3 2.9.1 4-1.4 4.4-5.8 33.7-65 33.7-65h-26.6z" style="fill:#a3cf62"/><path class="st0" d="M198.6 164.9h-1v-.5h2.5v.5h-1v2.7h-.6v-2.7zm2.2-.5h.9l.9 2.5.9-2.5h.9v3.2h-.6v-2.7l-.9 2.7h-.5l-.9-2.7v2.7h-.6v-3.2zM7.6 135.6h6.9l8.3 20.9c.2.5.9.5 1.1 0l8.4-20.9h6.9L27.6 165c-.7 1.8-2.4 3-4.3 3s-3.7-1.2-4.3-3.1L7.6 135.6zm51.2 0h6.7v32.5h-6.7v-32.5zm43.1 0c2 0 3.9 1.3 4.6 3.2l12.3 29.3h-7l-3.4-7.3H95.3l-3.4 7.3h-7l12.4-29.3c.7-2 2.6-3.2 4.6-3.2m-.5 10.6-3.5 8h7.8l-3.3-8c-.1-.5-.8-.5-1 0m75.8-10.6H205v6.6h-10.6v25.9h-6.8v-25.9h-10.4v-6.6zm-44.4-.1h6.4l13.7 18.3c.4.6 1.4.3 1.4-.4v-17.8h6.7v32.5h-6.5l-13.6-18.2c-.4-.6-1.4-.3-1.4.4v17.8h-6.7v-32.6z"/></svg>