<svg version="1.1" id="Layer_1" xmlns="http://www.w3.org/2000/svg" x="0" y="0" width="432" height="432" style="enable-background:new 0 0 432 432" xml:space="preserve"><style>.st0{fill:#ed1c24}</style><path d="M290 294.2v-3.9h2.6c1.3 0 2.7.3 2.7 1.9 0 1.9-1.4 2.1-3 2.1H290m0 1.6h2.2l3.3 5.5h2.1l-3.6-5.5c1.8-.2 3.2-1.2 3.2-3.5 0-2.5-1.5-3.6-4.4-3.6H288v12.6h1.9v-5.5zm2.3 10c5.9 0 11-4.6 11-10.9 0-6.3-5.1-10.9-11-10.9-6 0-11.1 4.6-11.1 10.9 0 6.3 5.1 10.9 11.1 10.9zm-8.9-10.9c0-5.2 3.9-9.1 8.9-9.1 4.9 0 8.8 3.9 8.8 9.1 0 5.3-3.9 9.1-8.8 9.1-5 0-8.9-3.9-8.9-9.1z"/><path class="st0" d="M294.5 187.7h-65.9l14.9-61.6h65.8zM290.2 205.5l-24.1 100.4h-65.9l24.1-100.4z"/><path d="M203.3 244.6h-65.9l-14.7 61.3h65.8zM207.6 226.8l24.2-100.7H166l-24.3 100.7zM0-28h18v18H0z"/><path class="st0" d="M94.7-28h18v18h-18z"/><path d="M23.8-22.4h.9v3.2c.2-.3.4-.5.5-.7l2.1-2.5h1.1L26-19.5l2.6 3.9h-1L25.3-19l-.6.7v2.6h-.9v-6.7zM28.8-19.1v-.6H34v.6h-5.2zm0 2v-.6H34v.6h-5.2zM36.7-21.4l-1.1.6-.2-.7 1.4-.8h.7v6.5h-.8v-5.6zM44.3-19c0 2.2-.8 3.4-2.3 3.4-1.3 0-2.1-1.2-2.1-3.3 0-2.2.9-3.4 2.3-3.4 1.3 0 2.1 1.2 2.1 3.3zm-3.5.1c0 1.7.5 2.6 1.3 2.6.9 0 1.3-1 1.3-2.7 0-1.6-.4-2.6-1.3-2.6-.8 0-1.3.9-1.3 2.7zM49.4-19c0 2.2-.8 3.4-2.3 3.4-1.3 0-2.1-1.2-2.1-3.3 0-2.2.9-3.4 2.3-3.4 1.3 0 2.1 1.2 2.1 3.3zm-3.5.1c0 1.7.5 2.6 1.3 2.6.9 0 1.3-1 1.3-2.7 0-1.6-.4-2.6-1.3-2.6-.8 0-1.3.9-1.3 2.7z"/><g><path d="M123.2-15.9c-.3.2-1 .3-1.8.3-1.9 0-3.3-1.2-3.3-3.4 0-2.1 1.4-3.5 3.5-3.5.8 0 1.4.2 1.6.3l-.2.7c-.3-.2-.8-.3-1.4-.3-1.6 0-2.6 1-2.6 2.8 0 1.6.9 2.7 2.6 2.7.5 0 1.1-.1 1.4-.3l.2.7zM123.9-19.1v-.6h5.2v.6h-5.2zm0 2v-.6h5.2v.6h-5.2zM134.3-19c0 2.2-.8 3.4-2.3 3.4-1.3 0-2.1-1.2-2.1-3.3 0-2.2.9-3.4 2.3-3.4 1.3 0 2.1 1.2 2.1 3.3zm-3.6.1c0 1.7.5 2.6 1.3 2.6.9 0 1.3-1 1.3-2.7 0-1.6-.4-2.6-1.3-2.6-.7 0-1.3.9-1.3 2.7zM143.2-18.7c0-.9-.1-2.1-.1-2.9-.2.8-.5 1.6-.8 2.6l-1.2 3.3h-.7l-1.1-3.2c-.3-.9-.6-1.8-.8-2.6 0 .8-.1 2-.1 3l-.2 2.9h-.8l.5-6.7h1.1l1.1 3.3c.3.8.5 1.6.7 2.3.2-.7.4-1.4.7-2.3l1.2-3.3h1.1l.4 6.7h-.8l-.2-3.1zM145.2-19.1v-.6h5.2v.6h-5.2zm0 2v-.6h5.2v.6h-5.2zM153.1-21.4l-1.1.6-.2-.7 1.4-.8h.7v6.5h-.8v-5.6zM160.6-19c0 2.2-.8 3.4-2.3 3.4-1.3 0-2.1-1.2-2.1-3.3 0-2.2.9-3.4 2.3-3.4s2.1 1.2 2.1 3.3zm-3.5.1c0 1.7.5 2.6 1.3 2.6.9 0 1.3-1 1.3-2.7 0-1.6-.4-2.6-1.3-2.6-.7 0-1.3.9-1.3 2.7zM165.8-19c0 2.2-.8 3.4-2.3 3.4-1.3 0-2.1-1.2-2.1-3.3 0-2.2.9-3.4 2.3-3.4 1.3 0 2.1 1.2 2.1 3.3zm-3.6.1c0 1.7.5 2.6 1.3 2.6.9 0 1.3-1 1.3-2.7 0-1.6-.4-2.6-1.3-2.6-.7 0-1.3.9-1.3 2.7zM170-15.7v-2.9l-2.1-3.9h1l.9 1.9c.3.5.5.9.7 1.4.2-.4.4-.9.7-1.4l1-1.9h1l-2.3 3.9v2.9h-.9zM173.6-19.1v-.6h5.2v.6h-5.2zm0 2v-.6h5.2v.6h-5.2zM181.5-21.4l-1.1.6-.2-.7 1.4-.8h.7v6.5h-.8v-5.6zM189.1-19c0 2.2-.8 3.4-2.3 3.4-1.3 0-2.1-1.2-2.1-3.3 0-2.2.9-3.4 2.3-3.4 1.3 0 2.1 1.2 2.1 3.3zm-3.6.1c0 1.7.5 2.6 1.3 2.6.9 0 1.3-1 1.3-2.7 0-1.6-.4-2.6-1.3-2.6-.7 0-1.3.9-1.3 2.7zM194.2-19c0 2.2-.8 3.4-2.3 3.4-1.3 0-2.1-1.2-2.1-3.3 0-2.2.9-3.4 2.3-3.4 1.3 0 2.1 1.2 2.1 3.3zm-3.5.1c0 1.7.5 2.6 1.3 2.6.9 0 1.3-1 1.3-2.7 0-1.6-.4-2.6-1.3-2.6-.8 0-1.3.9-1.3 2.7zM197.4-22.4h.9v3.2c.2-.3.4-.5.5-.7l2.1-2.5h1.1l-2.4 2.9 2.6 3.9h-1l-2.2-3.3-.6.7v2.6h-.9v-6.8zM202.5-19.1v-.6h5.2v.6h-5.2zm0 2v-.6h5.2v.6h-5.2zM212.8-19c0 2.2-.8 3.4-2.3 3.4-1.3 0-2.1-1.2-2.1-3.3 0-2.2.9-3.4 2.3-3.4 1.3 0 2.1 1.2 2.1 3.3zm-3.5.1c0 1.7.5 2.6 1.3 2.6.9 0 1.3-1 1.3-2.7 0-1.6-.4-2.6-1.3-2.6-.8 0-1.3.9-1.3 2.7z"/></g></svg>