<svg xmlns="http://www.w3.org/2000/svg" width="1008" height="792" style="enable-background:new 0 0 1008 792" xml:space="preserve"><path d="M424.6 366.1c1.2-2.4 2.3-5 2.7-7.8.3-2-.5-3.8-1.4-5.5-2-4-1.4-8-.1-12 .3-.9 1.1-1.7 1.8-2.4.7-.6.9-1.2.8-2.1-.2-1.8-.9-3.2-2.5-4.2-3.1-1.8-6.3-3.4-9.7-4.8-1.3-.6-2.4-.4-3.6.5-2.1 1.7-4.1 3.3-6.4 4.8-1.3.9-2.9 1.6-4.4 2.1-3.5 1.1-6.7-.9-7.7-4.4-.8-3.1.2-5.8 1.3-8.5.6-1.6 1.2-3.1 1.7-4.8.6-2.1.6-4.2-.3-6.2-1.5-3.4.3-7.4 2.9-9.5 1.8-1.3 3.9-1.8 5.9-2.4 4.6-1.4 9.3-2.8 13.9-4.3 1-.3 1.9-.9 2.8-1.5 3.7-2.3 7.7-3.7 11.9-4.5l3-.6c3-.5 5.7.6 8.4 1.5s5.3 1.9 7.9 2.9c1.5.6 3.1.5 4.6.2 3.7-.7 7.3-1.5 10.9-2.1 5-.8 10.1-1.3 15.1.1 3.9 1 7.9 1.7 11.8 2.6 5.2 1.2 10.4 2 15.7 1.5 2.1-.2 4.3-.4 6.4-.8.8-.1 1.6-.5 2.3-.9 2-1 4.3-1.4 6.5-1.8 2.4-.5 4.7-.6 7.1-.5 1.3 0 2.7.3 4 .5 1.3.1 2.5.2 3.7-.5 2.6-1.6 5.5-2.3 8.5-2.5 1.2-.1 2.5.1 3.7.4 3.1.6 6.3 1.4 9.4 2.1 1.3.3 2.5.4 3.8-.3l11.1-5.4c.7-.3 1.3-.9 1.8-1.5 2.4-2.7 5.1-4.8 8.5-5.9 1.8-.6 3.8-.7 5.5 0 3 1.2 5.8 2.8 8.6 4.3 2.4 1.3 4.7 2.7 6.9 4.2 3.9 2.6 7.9 4.9 11.4 8.1.5.4.8.9 1.2 1.4.7 1 .7 2 0 3-1.4 2-3.1 3.7-5.2 5-1.7 1-3.6 1.2-5.6.5-1.2-.4-2.5-.8-3.7-1.1-1.3-.4-1.8-.2-2.6.9-1.4 2-1.9 4.2-1.9 6.5 0 1.7 0 3.5-.2 5.2-.5 4.1-2.6 7.4-5.1 10.5-2.2 2.7-4.8 4.9-8.2 6.1-1.2.4-2.3 1.2-3.2 2.1-1.2 1-1.2 1.9-.4 3.3.7 1.3 1.4 2.7 2 4.1.9 2.3.8 4.7.6 7-.2 2.6-.6 5.3-1.5 7.8-.2.5-.2 1.2 0 1.8.7 2.3 1.4 4.5 2.2 6.7.1.4.5.7.8 1.3.6-.7 1.2-1.2 1.7-1.8 1.7-2.2 3.7-4 6.3-5 1.1-.4 2.4-.7 3.6-.7 3.5 0 6.8 1 10 2.3 4.3 1.8 7.9 4.5 11 8 2.9 3.3 5.1 6.9 5.9 11.2.1.7.5 1.4.5 2.1 0 2.6-.9 4.8-2.5 6.8l-3.6 4.5c-.4.5-.6 1.1-.9 1.6.6 1.1 1.3 2.2 1.8 3.3.6 1.4 1.2 2.9 1.5 4.5.2 1.3.1 2.7-.3 4-1.5 4.8-3.7 9.3-6.5 13.5-1.4 2.2-3.2 4.1-5.3 5.7-3.5 2.7-7.2 5-11.4 6.6-.9.3-3.1 1.4-4 .8-.2-.1-.5-1-.6-1.3-1.1-2.1-1.8-3.1-3.7-4.5-2.3-1.7-6.6-1.9-9.2.4-2.1 1.8-2.9 3.1-2.7 6.8 0 1 .6 3.2 0 3.9-.6.8-3.3.3-4.1.2-.2 0-.4-.1-.7-.2-.8-.2-1.4 0-2 .6-1.6 1.5-3.2 3-4.9 4.4-1.9 1.6-4.1 2.7-6.4 3.6-.6.2-1.3.4-2 .7.2 1.5.4 2.9.5 4.3.1 1.3.1 2.6-.1 3.8-.3 1.5-.9 1.9-2.4 1.6-1.7-.4-3.4-.8-5.1-1.3-2.5-.9-4.9-1.9-7.4-2.9-1-.4-2-.6-3.1-.4-2.4.5-4.8.9-7.1 1.3-.3 0-.5.2-.9.3-.6 2.3-1.1 4.7-1.8 7s-1.6 4.6-2.6 6.8c-.4.9-1 1.6-1.6 2.3-1.1 1.3-2.3 1.5-3.8.7-2-.9-3.7-2.3-5.2-3.9-2.3-2.4-4.5-4.9-6.7-7.4-.5-.5-.9-1-1.6-1.1-3.1-.4-6.3-.8-9.4-1.2-.3 0-.7 0-1.1.1-1.2 1.4-2.5 2.8-3.7 4.3-2.5 2.7-5.1 5.3-8.2 7.3-2.5 1.6-4.5 1.3-6.2-1-.5-.7-1-1.5-1.3-2.3-1.4-2.9-2.1-6.1-2.7-9.2-.1-.3-.1-.5-.3-1-1.1-.3-2.3-.6-3.5-.9-2.6-.6-5.1-1.3-7.7-1.9-.9-.2-1.7-.1-2.6.4-2.3 1.3-4.6 2.4-6.9 3.5-.8.4-1.7.5-2.6.7-1.7.3-2.8-.4-3.5-2-.5-1.3-.8-2.6-.7-4 .1-1.2.2-2.4.4-3.7-1.6-.7-3.2-1.4-4.9-2.1-3-1.4-5.9-3-8.5-5.2-.6-.5-1.4-.8-2.1-1.1-.9-.4-1.8-.7-2.7-1.1-2.1-1-3.7-2.5-4.3-4.9-.5-1.8-1.8-3.2-3-4.7-.5.2-.9.4-1.3.6-2.6 1.6-5.3 2.8-8.2 3.6-2.4.6-4.7.5-6.9-.5-2.8-1.2-5.4-2.6-7.7-4.5-4.5-3.5-8.7-7.3-11.7-12.3-1.7-2.9-2.8-6-2.7-9.5.1-1.7.1-3.4.3-5.1.3-2 1.1-3.9 2.5-5.5.1-.2.2-.4.4-.7-.3-.3-.6-.7-.9-1.1-1.9-1.9-3.8-3.9-5.1-6.2-1.7-3-2.2-6.1-1.3-9.4 2.5-9.1 8.2-15.1 17.1-18.1 2-.7 4.1-1.2 6.2-1.7 2.5-.6 4.9-.2 7.3.8 3 1.3 5.6 3.2 7.7 5.7.5.6 1 1 1.8.6zm1-56c.5.3 1 .5 1.4.8 2.7 1.7 5.6 2.7 8.8 2.4h.7c2 .2 3 1.2 2.9 3.2-.1 1.6.3 3.1.9 4.6.8 2 1.1 4.2.6 6.7l-.5-1c-.4-1-.8-2-1.3-2.9-.5-1-1.3-1.7-2.6-2-1.6-.4-3.2-.8-4.7-1.5-2.5-1.2-5-.9-7.6-.5-1.1.2-2.2.2-3.3.1-1.2-.1-2.3-.3-3.5-.5-.3.5-.6 1-.8 1.4-.2.4-.4.9-.6 1.3.3.3.5.5.8.6l6.9 3.6c3.1 1.5 5.6 3.7 7.2 6.8.1.2.3.4.5.9 1-1.3 1.8-2.4 2.7-3.6.1.6-.1 1.1-.3 1.6-.7 1.6-1.7 3.1-2.2 4.7-1 3.1-1.9 6.3-2.7 9.4-.6 2.4-.4 4.7 1.4 6.5 1.9 1.9 3.9 3.6 5.8 5.4 1 .9 2 1.7 2.9 2.6.5.5.9 1 .8 2.1-2.2-2.8-5.3-3.6-7.9-5.2-1.1 4.8-2.1 9.3-3.2 14 .7.1 1.3.3 1.9.4 2.3.3 4.6.4 6.9.7 1.3.2 2.3-.1 3.3-.8 5.9-4 12.1-7.6 18.5-10.8 2-1 2.9-2.7 4.1-4.6-2 .4-3.5 0-4.7-1.3-.6-.7-1.2-1.4-1.6-2.1-.9-1.8-1.7-3.7-1.4-5.7.5-.4.8-.7 1.4-1.2-.2-.5-.4-1.1-.7-1.4-1.4-1.6-2.8-3.2-4.4-4.7-1.1-1.1-2.5-1.9-3.7-2.9-.6-.5-1.4-1-1.4-2 .7-1 1.9-1.2 3-1.3 6.3-.6 12.6-1.2 18.9-.7 6.9.6 13.5 2.4 19.9 5.2l1.5.6c.5-.4.8-.8 1.2-1.1 1.3-1.3 2.7-2.2 4.4-2.8 5.8-2.3 11.7-2.8 17.8-1.4 3.7.8 7.2 2.1 9.8 5 .1.1.3.2.4.2 2.4-.9 4.8-1.9 7.3-2.8 5.7-2.1 11.6-3.1 17.6-3.2 5-.1 9.9.1 14.9.2.6 0 1.1 0 1.7.1.6.2 1.2.5 1.9.7-.2.5-.2 1-.5 1.2-.6.7-1.2 1.3-1.8 2-2.2 2.2-4.5 4.3-6.6 6.5-.6.6-1 1.4-1.6 2.2.6.5 1 1 1.6 1.4.1 2.4-.7 4.6-2.1 6.6-1.3 1.9-3 3-5.4 2.5-.1 0-.3.1-.6.1.6.8 1.3 1.5 1.7 2.3.7 1.3 1.8 2.1 3.1 2.7 6.1 3 12.1 6.4 17.8 10.1.9.6 1.7.8 2.7.7 3-.3 6-.6 8.9-1 .6-.1 1.1-.3 1.8-.5-.4-1.7-.9-3.1-1.2-4.6-.4-1.5-.7-3-1-4.5-.2-1.5-.3-3-.5-4.7-2.9 2.1-6.2 2.9-8.5 5.5.3-.8.7-1.6 1.2-2.2.7-.8 1.6-1.4 2.4-2.2 1.8-1.7 3.6-3.4 5.3-5.2.6-.7 1.2-1.6 1.4-2.5.7-2.6 1-5.3.7-8.1-.1-.9-.4-1.9-.9-2.6-1.9-2.4-3.3-5.1-4.5-7.9-.2-.5-.4-1-.5-1.6 1.4 1.5 2.3 3.4 3.9 5 1.2-2.6 3.2-4 5.5-5 2.6-1.2 4.8-3 6.4-5.3 2.9-4.1 4.9-8.3 4-13.6-.5-3.1.1-6.1 1.7-8.8.1-.2.2-.5.3-1-1.2-.2-2.3-.5-3.2-.6-.3.2-.4.3-.5.3-1 2.5-2.2 4.9-3.1 7.5-.5 1.4-.9 2.8-1.8 4-1.5 2.1-3.4 3.8-5.6 5-2.5 1.4-5.1 2.2-7.9 2-.9-.1-1.8-.1-2.2-1.1 0-1.4 1.5-2.3 1.1-4-1-.3-2.1-.5-3.5-.9 1.3-1.3 2.4-2.5 3.6-3.6 4-3.8 8.6-7 13.4-9.8 1.8-1.1 3.7-1.6 5.8-1.4 4.8.4 9.5 1.4 14.2 2.5.8.2 1.8.4 2.5.1 2.1-.8 3.5-2.3 4.7-4.3-.9-.6-1.6-1.2-2.4-1.7-2.4-1.5-4.8-3-7.3-4.3-4.8-2.6-9.7-5-14.6-7.5-2.1-1.1-4.2-.9-6 .6-1.3 1-2.6 2.1-3.6 3.3-1.3 1.6-2.9 2.9-4.7 3.8-2.6 1.3-5.2 2.5-7.8 3.6-2 .8-4.1 1.5-6.3 2.3 1 .7 1.9 1.2 2.7 1.8-.5.1-.9 0-1.2-.1-1.2-.5-2.4-1.3-3.7-1.6-2.1-.4-4.3-.8-6.5-.8-4.9 0-9.8.2-14.7.4-2.6.1-5.1.6-7.6 1.5-5.4 2.1-10.9 4.2-16.3 6.2-2.9 1.1-5.8 2-9 2.5-5.2.7-10.2-.1-15.3-1-.5-.1-.9-.3-1.3-.4 5.2 0 10.3.5 15.4-.5 4-.8 12.5-4.6 13.9-6.2-.2 0-.4-.1-.5-.1-3.7.9-7.4 1.5-11.2 1.7-2.6.2-5.3.2-7.9-.1-2.9-.3-5.8-1.1-8.6-1.8-4.8-1.1-9.6-2.6-14.6-2.7-4.1-.1-8.2-.1-12.4.1-2.9.1-5.7.6-8.6 1-.9.1-1.8.8-2.7.8-2.4.1-4.8 0-7.1-.9-2-.9-4.1-1.7-6.1-2.4-3.2-1.2-6.4-1.5-9.5.1-.1.1-.2.1-.3.1-1.8.8-3.8 1.2-5.4 2.3-2.2 1.6-4.6 2.9-7 4-4.3 2-8.5 3.8-13.2 4.6-1.1.2-2.3.7-3.4 1.1-1.2.5-1.7 1.4-1.7 2.8 0 3-.2 6.1-.4 9.1-.2 2-.8 4-1.8 5.8l-1.2 2.4c-.3.7-.4 1.4.2 2.2 1.5 1.2 3.1.5 4.5-.3 5-2.6 9.3-6.2 12-11.4.4-.7.8-1.3 1.4-1.9 1.6-2.3 4.6-4 8-5.4zm52.6 93.4c-.9.1-1.7.1-2.6.2-4.1.5-8.3 1-12.4 1.5-5.7.7-11.3 1.3-17 2.1-5.5.8-9.6 3.5-11.2 9.1-.4 1.3-1.1 2.5-1.9 3.5-.6.9-.8 1.5-.2 2.4 3 5.4 6.5 10.4 11.2 14.5 7.1 6.3 15.4 8.4 24.5 6.5 7.3-1.5 11.5-7.9 10.6-14.8-.3-2.2-.9-4.4-1.4-6.6-.8-3.8-1.4-7.7-.6-11.6.1-.4.2-.7.3-1 .2 1.1 0 2.1 0 3.1 0 4.1 1 8.1 2.4 11.9.6 1.7 1.7 3.4 3.5 4.2 1.4.6 3 1 4.6 1.1 3.6.2 7.1.2 10.7 0 1.5 0 3-.4 4.5-.9 1.4-.4 2.7-1.1 4-1.7.9-.4 1.6-.5 2.4.1 2.6 2 5.6 2.8 8.8 3 2.9.2 5.8.1 8.4-1.3 1.4-.8 2.8-1 4.4-.8.9.1 1.8.2 2.8.4 1-3.2 2.1-6.3 3-9.4.9-3.2 1.1-6.5.9-9.8.3 1.1.5 2.2.6 3.3.3 4.5-.8 8.9-2 13.1-.3 1-.7 2-.7 2.9-.4 6.8 3.1 12.8 10.9 14.3 7.7 1.4 14.8 0 21.2-4.7 5.2-3.8 9.1-8.7 12.4-14.1.5-.8.9-1.7 1.3-2.7-2.2-1.9-3.1-4.6-4.1-7.2-.7-2-2-3.6-3.8-4.9-2.6-1.9-5.6-2.6-8.7-3-8.7-1.1-17.5-2.2-26.2-3.2-1.3-.2-2.5-.3-3.8-.4-1.3 3.5-3 4.7-6.7 4.8-2.2.1-4.4-.3-6.5-1-.3-.1-.6-.3-1.2-.5 2.2.2 4 .6 5.9.6 1.4 0 2.9-.2 4.3-.7 1.4-.4 2.2-1.4 2.2-3s-1-2.2-2.1-2.7c-2.1-.9-4.3-1.7-6.7-1.9-5.3-.4-10.7-.9-16-1-6.8-.2-13.5-.2-20.3-.2-1.8 0-3.6.5-5.3 1-1.6.5-2 1.4-2 3.2 0 1.5.8 2.1 2 2.6l2.1.6c3.3.5 6.6.2 9.7-1 3.4-1.3 6.8-1.7 10.3-1.4 2.3.2 4.6.5 6.8 1.3-.3.1-.5 0-.8 0-2.8-.1-5.5-.3-8.3-.3-2.4 0-4.6.6-6.7 1.6-3.6 1.7-7.4 2.4-11.3 2.1-2.4 0-4.7-.7-6.2-3.2zm-23.3-29.9c2.8-6.9 8.1-10.3 15.4-11.3-.3-2.4.9-4.1 2.7-5.4 1.1-.8 2.4-1.6 3.6-2.2 4-2 8.3-2.9 12.6-3.6h.7c-1.9.8-3.9 1.3-5.7 2.1-3.6 1.3-6.9 3-9.7 5.7-.7.7-1.4 1.4-1.3 2.8.6.5 1.2 1.2 2 1.6 3.6 1.9 6.1 4.8 8.5 7.8.2.3.3.6.4 1.1-1.7-1.5-3.2-2.8-4.9-4.1-2.1-1.6-4.4-3.1-7.2-2.9-3.7.2-7.4 1-10.8 2.7-2.4 1.2-4.2 3-5.6 5.6.7.1 1.1.1 1.6.2 3.3.1 6.7.1 10 .4 3.4.3 6.6 1.3 8.9 4.3 1.3 1.7 3 2.8 5 3.4 6.9 2.1 13.8 2.6 20.9.7.8-.2 1.6-.3 2.3-.4.4-.1.7-.2 1.2-.3 0-3.2-.1-6.3 0-9.4.2-4.9.9-7.9 1.8-9.2-.5 6.3 0 12.5 1.3 18.4 1.9.5 3.6 1 5.4 1.4.8.2 1.7.3 2.5.3 2.4 0 4.8.1 7.1 0 3.5-.2 6.9-.9 10.2-2.3 1-.4 1.9-1 2.5-2 .3-.5.8-1 1.1-1.5 1.4-1.8 3.3-2.8 5.6-3.3 2.4-.5 4.9-.7 7.4-.7 2 .1 3.9-.2 5.9-.3.4 0 .7-.2 1.1-.3-.8-1.9-2.5-3.7-4.5-4.8-3.2-1.8-6.7-2.6-10.3-2.9-1.6-.2-3.1.4-4.5 1.1-2.4 1.3-4.5 3.1-6.3 5-.3.3-.7.6-1 .8 1.6-3.4 4.8-6.7 7.8-8.6.8-.5 1.4-1.1 2-1.8.6-.6.7-1.4.1-2.2-.4-.6-.9-1.1-1.5-1.6-2.8-2.6-6.1-4.3-9.6-5.6-1.6-.6-3.3-1.2-4.9-1.7.7-.2 1.4-.3 2-.1 2.7.7 5.5 1.4 8.1 2.4 2.7.9 5.1 2.3 7.2 4.3 1.2 1.2 2.1 2.5 1.9 4.3 0 .2.1.4.2.6 6.8.9 11.6 4.4 14.3 10.7 2.8-.2 5.5 0 8.6-.5-.8-.6-1.2-.9-1.7-1.2-4.4-2.8-8.8-5.5-13.2-8.2-1-.6-1.7-1.3-2.2-2.2-1.9-3.5-4.5-6.4-7.6-8.8-4.3-3.3-9-5.9-14.2-7.8-1.2-.4-2.4-.6-3.5-.9-.2-.7-.3-1.3-.6-1.9-1-2.2-2.8-3.5-5-4.3-2.5-.9-5.2-1.2-7.8-1.2-4.3 0-8.7 0-13 .2-1.2 0-2.5.3-3.6.8-3.1 1.1-5.4 3.1-5.9 6.6-3.7.6-7.2 1.9-10.5 3.5-6.1 3-11.1 7.4-14.5 13.3-.7 1.2-1.5 2-2.7 2.7-4.7 3-9.4 6-14.1 9.1-.4.3-1 .4-1 1.2 3.1.1 5.9.3 9 .4zm146.5 25.5c.4-.6.5-.9.7-1.1.2-.3.4-.5.6-.8 1.9-2.2 4.3-3.6 7-4.5 2.7-.9 5.4-1.8 7.7-3.4 2.2-1.4 3.8-3.3 4.5-5.9.8-3.2-.2-5.9-2.1-8.4-3.4-4.5-8-7.4-13.1-9.5-3.7-1.4-6.9-.7-9.7 1.9-1.6 1.5-3.2 3-4.7 4.6-1.1 1.1-2.2 1.9-3.7 2.2-2.8.4-5.6 1-8.4 1.1-7 .4-14 .7-21 1-4.8.2-9.7.3-14.6.4-3.3.1-5.9 1.8-7.2 4.9-1.2 3-2.3 6-3.8 8.8-1.2 2.3-2.1 4.5-1.1 7v.3c.2 1.3.8 2.1 2.1 2.3 1.3.2 2.6.3 3.9.4 6.5.6 13 1.2 19.5 1.9 3.1.3 6.3.6 9.4 1 7 1 12 4.5 14.3 11.5.4 1.1 1.1 2.2 1.9 3.1 2.6 2.9 5.7 5.3 9.2 7.1 1.1.6 2.4 1.1 3.6 1.5 1.5.5 2.9.3 4.3-.4 2.4-1.2 4.5-2.8 6.5-4.5 3.5-2.9 6.6-6.2 9-10 .8-1.3 1.5-2.7 1.5-4.3-.1-4.1-2-7.4-4-10.7-2.1.7-4 1.3-5.7 2.5-.3.2-.6.4-.9.4-1.7 0-3.6-.2-5.7-.4zm-202.1-2.2c-.2.2-.4.3-.6.5-1.3 2.1-2.4 4.3-3.2 6.7-1 3-.6 5.7 1.3 8.2 1 1.3 1.9 2.7 3 3.9 3.3 3.9 7.1 7.2 11.5 9.9 2.2 1.3 4.3 1.3 6.6.3 3.1-1.3 5.8-3.2 8.4-5.3 2.5-2 4.6-4.4 5.7-7.6 1.1-3.3 3.4-5.8 6.6-7.5 2.4-1.3 5-2 7.7-2.3 3.8-.4 7.6-.7 11.5-1 4.9-.4 9.9-.9 14.8-1.3 1.7-.2 3.3-.4 4.9-.6.2-1 .3-1.8.7-2.4 1.2-1.7 1.2-3.6 1.7-5.4.2-.8 0-1.4-.4-2-.7-.9-1.2-1.9-1.7-2.9-1.1-2.5-2.2-4.9-3.2-7.5-.4-1.1-1.1-2-2.2-2.4-1.1-.4-2.2-.9-3.4-1-2.4-.2-4.9-.1-7.3-.2-5.9-.2-11.8-.4-17.8-.6-5.8-.2-11.6-.5-17.4-1.3-2.6-.4-4.9-1.1-6.6-3.3-.5-.7-1.1-1.3-1.8-1.8-1.4-1.2-2.7-2.5-4.2-3.6-1.8-1.3-3.9-1.7-6.1-1.1-2.7.7-5.2 1.9-7.5 3.4-3.4 2.1-6.4 4.7-8.3 8.2-1.8 3.3-1.7 6.5.5 9.6 1.3 1.8 3.1 3 5 3.9 2.4 1.1 4.9 1.9 7.4 2.9 1.4.6 2.7 1.3 3.8 2.6-.6 1.7-.9 3.5-1.9 5.2-2.8-2.6-3.6-3-7.5-4.2zm134.5 35.7c-17.5 2.8-35 3-52.5 1.1-.7 1.7-1.1 3.4-1.9 4.9-.8 1.5-1.7 2.9-2.8 4.2-1 1.3-2.3 2.3-3.5 3.6 3.9 1.1 9.2 1.7 10.2 1.3 0-3.2.2-4.2 1.2-5.8 3.1-5.1 9.2-6.8 14.6-4 2.9 1.5 4.3 3.9 4.3 7.1 0 1.5-.3 2.9-.4 4.4 1 .7 2.1.3 3.2.3 1.1.1 2.3.1 3.4 0s2.2.3 3.3-.3c-.1-1.7-.3-3.3-.3-4.9 0-2.6 1.1-4.8 3.3-6.1 3.8-2.3 7.8-2.8 11.7-.3 3.3 2 5.4 4.8 5 8.9 0 .3.1.6.1 1.1 3.4-.3 6.7-.9 10-1.7-2.1-2.1-4.1-4-6-6-1.6-2.2-2.3-4.9-2.9-7.8zm-6.2 32.3c.2-.6.4-.9.5-1.2.7-3.3 1.6-6.6 2.2-9.9.4-2.2.5-4.4.6-6.6 0-.8-.3-1.8-.7-2.6-2.3-4.1-5.8-5.2-9.9-4.4-3.6.7-5.3 2.9-5.3 6.6 0 2.1.6 4 1.8 5.7 2.7 4 5.9 7.6 9.2 11 .5.5 1 .9 1.6 1.4zm-39.1-.1c.5-.3.7-.4.9-.5 4.1-3.9 7.7-8.1 10.7-12.8 1.2-1.9 1.4-4 1.1-6.2-.2-1.4-.8-2.7-2-3.6-2.5-1.7-5.3-2.1-8.1-1.2-4.2 1.4-6.2 4.5-5.6 9 .6 4.3 1.5 8.7 2.3 13 0 .7.3 1.4.7 2.3zm.7-72.2c.7.8 1.4.6 2 .5 6.9-.5 13.8-.1 20.6.7 2.6.3 5.3.7 7.9 1.1.9.1 1.7-.1 2.2-.9.3-.4.6-.8.8-1.3.8-1.8 1.6-3.7 2.4-5.6 0-.1-.1-.3-.1-.3-2.9.2-5.7.5-8.5.6-1.7.1-3.4-.3-4.9-1-1.3-.7-2.6-1.1-4-.6-.4.1-.9-.1-1.3 0-1.1.1-2.2.3-3.3.5-.7.1-1.3.5-1.9.7-2.5.7-5.2.5-7.7.3-2.2-.2-4.4-.6-6.9-1 .6 1.5 1.1 2.8 1.5 3.9 3-.3 5.7-.8 8.3-.8 2.9 0 5.8.5 8.7.8.6.1 1.3.1 1.8-.1 1.3-.4 2.5-.5 3.6.5 1.1-.2 2.1-.6 3.2-.7 1.1-.1 2.1.3 3.2.7-.6.1-1.2 0-1.8 0-.8 0-1.6 0-2.3.3-1.4.5-2.8.8-4-.1-1.3.3-2.4.6-3.5.6-2.6 0-5.2-.4-7.8-.3-2.3.1-4.6.6-6.9.9-.3.1-.7.4-1.3.6zm-25-57.5c0 1.2-.1 2.2 0 3.2.4 3.9 3.2 6.6 7 7.4 2.9.6 7.5-1 9.8-5.9-.9-.6-1.8-1.1-2.7-1.7-.9 1-1.5 1.9-2.2 2.6-2.5 2.5-6.6 1.8-8.3-1.6 1-.4 2.5.4 3.2-1.1-.3-.2-.4-.3-.6-.4-1-.1-2-.2-3.1-.3 0-.7-.1-1.4-.1-2.2h-3zm68.9 4.6c2.4 4.8 6.9 7 11.1 5.7 4.8-1.5 6.5-6.8 5.7-10.3-.9-.2-1.9-.3-2.8.1-.1 1.2-.1 2.4-.4 3.4-1.2 3.7-5.9 4.7-8.7 2-.7-.7-1.4-1.6-2.2-2.6-.8.6-1.7 1.2-2.7 1.7zm-5.5 47.3c-.6.6-1.1.9-1.4 1.3-1.3 2.3-2.5 4.6-3.7 7 1.3.3 2.6.6 3.9 1 1.3.4 2.5.8 4.1 1.3-.6-3.8-1-7.2-2.9-10.6zm30 60.2h-3.7c-1.2 0-2.5-.2-3.7-.2-1.1 0-2.2-.5-3.4-.2 3.5 2.5 7 4.8 11.2 6.5.1-2.2.1-4.1-.4-6.1zm-88.2-.3c-3.8.4-7.3.7-10.8 1.1-.6 1.7-.6 3.9 0 5.2 3.7-1.7 7.2-3.8 10.8-6.3zm12.3-52.1c2.3-.5 4.4-1 6.7-1.5-1.6-2.2-2.1-4.7-3.7-6.7-1.5.7-2.8 4.2-3 8.2zm49.7-3.2c1.3-1.9 3-6.7 2.9-8-1.8.7-3.5 1.5-5.2 2.2.8 2 1.5 3.8 2.3 5.8zm-53.6-8.9c.2 2.2 1.8 6.1 2.8 7 .7-1.4 1.4-2.9 2.1-4.3 0 0 0-.1-.1-.1-1.4-1-3-1.8-4.8-2.6zm64-44.6c-1.4-1-2.7-.9-4 0 1.1 1.3 3 1.2 4 0zm38.8 97.8c0-.5.1-.8.1-1.1 0-.2-.2-.4-.3-.8-.5.5-.8.9-1.2 1.4.5.2.8.3 1.4.5z"/><path d="M501.4 329.2c-1-3.3-3.1-5.3-6.1-6.1-1.7-.4-3.6-.4-5.4-.1-5.7.9-11.4 1.2-17.2 1.2-2.2 0-4.2-.4-6.3-1.1-3-1-6-2-9.1-2.7-1.6-.4-3.3-.3-4.9-.2-2.9.2-5.2 2.2-5.8 5.3-.6 2.6-.8 5.3-1.1 8-.1.5-.1 1-.1 1.5-.1 0-.2.1-.3.1-.2-.3-.4-.7-.5-1-.3-3.5-.4-7 .4-10.4.9-3.6 3.5-5.7 7.1-6.5 3.7-.8 7.3-.4 10.9.5 1.8.5 3.6 1.1 5.3 1.8 2.6 1.1 5.4 1.3 8.1 1.4 4.8.2 9.6.2 14.4.2 2.2 0 4.4.2 6.4 1.4 1.8 1 3 2.5 4 4.3.3.6.5 1.4.2 2.4zM512.1 328.9c-.3-1.9.8-3.3 2-4.6.5-.6 1.3-1.1 2-1.5 2.9-1.7 6.1-2.5 9.4-3 5.4-.9 10.7-2.4 15.8-4.4 1-.4 2-1 2.9-1.7 4.1-2.9 8.6-5 13.6-5.6 3.2-.4 6.1.3 8.4 2.7 1 1.1 1.8 2.4 2.2 3.7.8 2.4 1.3 4.9 1.9 7.4.2.7.3 1.5-.3 2.5-.2-.8-.4-1.3-.5-1.8-.9-2.5-1.8-5.1-2.9-7.6-1.5-3.2-4.1-4.4-7.6-3.9-3 .5-5.6 1.8-8.1 3.3-1.6.9-3.1 2.1-4.7 2.9-1.4.7-2.8 1.4-4.3 1.8-5.4 1.5-11 2.5-16.6 2.8-2.2.1-4.4.5-6.5 1-3.5.9-5.6 2.9-6.7 6zM528.3 311.6c-.4.1-.7.3-1.1.4-3.8 1.2-7.4 2.7-10.5 5.3-1.9 1.6-4.2 2.8-6.6 3.7-2.9 1.2-5.6.9-8.3-.7-1.5-.8-2.7-2-4.2-2.9-4.7-3.1-9.8-5.6-15.5-6.3-.8-.1-1.7 0-2.5 0 0-.1 0-.2-.1-.4.7-.2 1.5-.4 2.2-.5 3.8-.3 7.4.4 11 1.4 3.7 1 7.1 2.5 10.3 4.6 2.7 1.8 5.3 1.9 8.2.7 1.7-.7 3.4-1.4 5-2.4 2-1.1 4.2-2 6.4-2.5 1.8-.4 3.5-.7 5.3-1.1.3.4.3.6.4.7zM554 407.1c-.6 3.4-1.8 6.4-4 8.9-1.1 1.3-1.9 2.8-2.3 4.4-.6 2.5-1.2 4.9-1.6 7.4-.4 2.7-.1 5.4.9 8.1-.3-.3-.6-.5-.8-.8-1.7-2.6-2.2-5.5-2.4-8.5-.1-2.3 0-4.6.9-6.8.8-2 1.9-3.7 3.6-5 2-1.7 3.5-3.8 4.8-6.1.2-.6.6-1.1.9-1.6zM466.4 435.9c2.8-5.9 1.4-11.4-.4-16.9-.3-.9-1-1.8-1.6-2.5-1.9-2.2-3.2-4.8-4.3-7.5-.1-.3-.2-.7 0-1.2.2.3.5.6.7 1 1.3 2.4 3.1 4.4 5.2 6.2 2.8 2.4 4.3 5.4 4.3 9.2 0 3-.4 6-1.6 8.7-.5 1-1 2.1-2.3 3zM503.6 355.4c.6-2.1 2.9-3.9 1.3-6.5-1.6-.5-2.8.2-4 1.1-1.3 1-1 2.6-1.4 3.9-1.6.8-3 .4-4.1-.7-1.5-1.4-2.4-3.1-2.9-5.1-.2-.9-.1-2 .3-2.8 1.7-3.4 4.3-5.6 8.3-5.6 1.4 0 2.8.2 4.2.4 1.3.3 2.4.2 3.7 0 1.4-.3 2.9-.4 4.4-.4 4.1-.2 7.4 3.1 8.4 6 .2.7.3 1.5.1 2.1-.5 2-1.4 3.8-3 5.2-1.1 1-2.4 1.4-4 .8-.5-1.7-.4-3.8-2.5-4.7-1-.4-2-.9-3.1-.4-.6 1.3-.6 2.6.1 3.9.2.4.4.7.6 1 .9 1.7.8 2.2-.9 3.1-2.2 1.3-4 .8-5.5-1.3zM490.4 372.6c-.6.5-1 .9-1.4 1-.6.1-.9-.3-1-.9-.1-.6.3-1 .9-1 .4.1.8.5 1.5.9zM485.4 361.5c.7.1 1.2.4 1.1 1.1-.1.3-.5.8-.7.8-.4 0-.9-.2-1.1-.5-.3-.6.1-1.1.7-1.4zM498.8 360.2c.5.6.9 1 1 1.4.1.6-.3 1-.9 1-.6 0-1-.3-.9-.9 0-.5.4-.9.8-1.5zM524.5 378c.8.2 1.2.6.9 1.3-.1.3-.6.6-.9.6-.4-.1-.8-.4-.9-.8-.2-.6.4-.9.9-1.1zM529.2 362.5c-.2.7-.6 1.2-1.3.9-.3-.1-.7-.6-.7-.8 0-.4.4-.8.7-1 .7-.3 1.1.3 1.3.9zM501.4 367.8c.1.8-.2 1.3-1 1.2-.3 0-.7-.3-.8-.6-.1-.3.1-.8.3-1 .6-.5 1.2-.1 1.5.4zM514.4 368.1c-.5.9-.9 1.3-1.5.9-.3-.2-.5-.7-.5-1.1 0-.3.6-.7.8-.7.4.2.8.6 1.2.9zM524.8 374.1c-.5-.6-.9-1-1-1.3-.1-.6.3-1 .9-1 .6-.1 1 .4 1 .9-.1.3-.4.7-.9 1.4zM514.8 362.9c-.4-.7-.8-1.1-.8-1.5-.1-.6.4-.9 1-.9s1 .4.8 1c-.1.5-.5.8-1 1.4zM522.2 365c-.2.7-.6 1.2-1.3.9-.3-.1-.6-.5-.6-.8 0-.3.3-.7.6-.9.7-.3 1.1.1 1.3.8zM516.8 376.1c-.1.8-.4 1.3-1.2 1.1-.3-.1-.7-.5-.7-.8 0-.3.2-.8.5-.9.7-.4 1.1 0 1.4.6zM489.2 378.1c.8.3 1.1.8.7 1.5-.1.3-.6.5-.9.4-.3-.1-.6-.4-.7-.7-.2-.8.2-1.1.9-1.2zM492.8 364.1c.2.3.5.6.6 1 .1.6-.4 1-1 .8-.3-.1-.7-.5-.8-.9-.1-.5.3-.9 1.2-.9zM499 376.5c-.3.2-.6.6-1 .7-.6.1-1-.5-.9-1 .1-.3.5-.8.9-.9.5-.1.8.4 1 1.2zM587.8 386.4c-.8.7-1.3.4-1.6-.1-.4-.5-.7-1-1.2-1.4-1-1.1-2.3-1.2-3.8-1.2v4.7c1.5.2 1.7-.9 2.2-1.8.3 0 .6 0 1.1-.1.2 2 .1 3.9.1 6h-1.2c-.9-1.7-.9-1.7-2.2-2-.1 1.8-.1 3.6-.1 5.3 2 .6 3.7-.1 4.9-2 .4-.7.7-1.3 1.8-.8.2 1.7-.5 3.4-.9 5.1-.4 0-.6.1-.8.1-3.5-.1-6.9-.3-10.3-.4-.7-1.2.5-1.4.8-2v-11.5c-.4-.6-1.5-.9-.8-2.1 3.6-.3 7.2.1 11.1-.3.4 1.5.7 3 .9 4.5zM598.4 382.2c.2 1.3.4 2.7.6 4.2-.4.2-.7.3-1.1.5-.4-.6-.7-1.2-1.1-1.8-.6-.9-1.5-1.6-2.6-1.8-.8-.2-1.6.2-1.8.9-.3.7-.1 1.4.6 1.8.9.5 1.8.9 2.7 1.4 1.3.6 2.5 1.2 3.3 2.5 1.2 1.9 1.1 4.7-.4 6.5-1.4 1.8-3.4 2.1-5.5 1.6-1.1-.2-2.1-.8-3.5 0-.3-1.8-.5-3.5-.7-5.1.4-.2.7-.3 1.1-.4.4.6.7 1.3 1.1 1.8.8 1.1 1.6 2 3 2.2 1.5.2 2-.2 2.5-1.8-.3-1.5-1.5-2-2.7-2.6-1-.5-2.1-.9-3-1.6-2.3-1.6-2.2-4.2-1.3-6.4.8-1.9 3.1-2.8 5.5-2.3 1 .2 2 .2 3.3.4zM539.8 397.9c-.3-1.9-.5-3.4-.7-4.9.7-.7 1.2-.7 1.6 0 .3.4.5.9.7 1.3 1.1 1.6 2.5 2.6 4.6 1.9 1.2-1.5 1.2-2.5-.4-3.4-1.1-.7-2.4-1.1-3.5-1.7-2.9-1.6-3.2-3.7-2.3-6.6.7-2.1 3-3.2 5.2-2.8.6.1 1.2.4 1.8.4.5 0 1.1-.1 1.8-.2.2 1.5.4 2.9.7 4.4-.4.2-.7.3-1.1.5-.5-.7-.8-1.3-1.3-1.9-.7-.9-1.6-1.6-2.8-1.7-.7 0-1.2.3-1.5.9-.3.6-.1 1.3.4 1.7.9.5 1.8 1 2.7 1.4 1.4.7 2.8 1.3 3.5 2.7 1.1 2 .9 4.7-.6 6.5-1.4 1.6-3.4 1.9-5.4 1.4-1-.1-2-.7-3.4.1zM554.6 382h4.1c.6 2 1.1 3.9 1.7 5.8.6 2 1.1 3.9 1.6 5.9.3 1 .4 2 1.3 2.7.2.2.2.8.2 1.1-1.8.4-4.9.4-6.4-.1.3-.6.6-1.2 1-1.9-.2-.6-.4-1.4-.6-2.3h-3.9c-.1.8-.2 1.6-.3 2.2.5.9 1.8 1 1.2 2.3-1.3.2-2.6.1-4 0-.3-.7-.3-1.1.3-1.7.5-.4.8-1.1 1-1.7 1-3.2 1.9-6.4 2.8-9.6.1-.7 0-1.6 0-2.7zm1.3 5.1h-.5c-.5 1.3-.9 2.6-1 4.1h2.5c-.4-1.5-.7-2.8-1-4.1z"/><path d="M569.7 396c2.4-.1 2.8-.4 4.6-3.5.3 0 .7.1 1.2.2-.1 1.9-.6 3.6-1 5.2h-10c-.8-1.2 0-1.6.7-2V384c-.3-.5-1.6-.7-.9-2h6.2c.3 1.1.3 1.1-.9 1.9V396zM416.1 388.4h3.4c.4-1.5.1-2.9.2-4.3-.3-.8-1.7-.9-.9-2.2h6.1c.1.2.2.4.3.5v.6c-.1.1-.3.3-.5.4-.2.1-.4.2-.6.4v11.7c.9 1 .9 1 1 1.9-1.1.4-4.5.5-6.3.1-.6-1 .3-1.4 1-1.9 0-1.7.1-3.4 0-5.2h-3.5c0 .9-.1 1.7-.1 2.5v2.5c.3.8 1.6 1 .9 2.3-2 0-4.1.1-6-.1-.7-1.3.4-1.5.8-2.1V384c-.2-.7-1.7-.8-.8-2.1h6c.8 1.1-.2 1.4-.8 1.9v4.6zM467.6 390.4h-3.5v5.3c.4.5 1.6.7.9 1.8-1.8.4-5.1.3-6.3-.1 0-1 0-1 1-1.8v-11.7c-.4-.6-1.6-.7-.8-2 1.9-.2 4 0 5.9-.1 1 1.2-.1 1.5-.7 2.1v4.5h3.5v-4.6c-.2-.5-1.5-.7-.7-1.9h6.1c.4 1 .4 1-.8 2v11.7c.4.5 1.5.8.8 2.1-2 .1-4.1.1-6 0-.7-1.2.3-1.5.8-2.1v-5.2zM446.3 386.6c-.4.1-.8.2-1.1.3-1.1-.8-.9-2.8-2.9-3-.1 4 0 7.8 0 11.7.6.6 1.6.8.9 2H437c-.7-1.1.2-1.4.9-1.9.1-3.9.1-7.8 0-11.9-1.9.4-1.8 2.2-2.9 3.1-.3-.1-.5-.2-.9-.4.2-1.5.5-3.1.8-4.7h10.6c.1 1.6.4 3.2.8 4.8z"/><path d="M446.2 386.7c.3-.5.6-.9.9-1.4 1.3-2.3 3.1-3.8 5.9-3.8.4 0 .8.1 1.2.2.9.1 1.8.2 3 .4.5 1.3.6 2.9.6 4.5-.6.6-1.1.5-1.4-.1-.4-.6-.6-1.2-1-1.7-.9-1.1-2-2-3.6-1.3-.9.8-1.1 1.9-1.2 2.9-.1 2.3 0 4.5.7 6.7.4 1.1 1 2.1 2.2 2.3 1.3.2 2.1-.5 2.8-1.5.2-.3.5-.6.8-1 .3.2.6.5.9.6-.5 3.3-4.8 5.5-8 4-1.1-.5-2-1.4-2.5-2.4-1.1-2-1.7-4.2-1.3-6.5v-1.9zM432 395.7c.6.4 1.7.5 1.1 1.7-1.2.4-5 .5-6.6.1-.2-1-.2-1 1-1.9v-11.7c-.4-.3-.8-.6-1.3-.9.1-.3.1-.7.2-1.1h6.5c.1.4.2.8.2 1.2-.4.2-.8.5-1.3.7v11.9zM589.7 440.9c-1.8 0-3.3-.6-4.5-1.8-1.2-1.2-1.8-2.7-1.8-4.5 0-1.8.6-3.3 1.8-4.5 1.2-1.2 2.7-1.8 4.5-1.8 1.8 0 3.3.6 4.5 1.8 1.2 1.2 1.8 2.7 1.8 4.5 0 1.8-.6 3.3-1.8 4.5-1.2 1.2-2.7 1.8-4.5 1.8zm0-11.4c-1.4 0-2.5.5-3.4 1.5-.9 1-1.4 2.2-1.4 3.7s.5 2.7 1.4 3.7c.9 1 2.1 1.5 3.4 1.5 1.4 0 2.5-.5 3.4-1.5.9-1 1.4-2.2 1.4-3.7s-.5-2.7-1.4-3.7c-.9-1-2-1.5-3.4-1.5zm.2 8.6c-1 0-1.8-.3-2.4-.9-.6-.6-.9-1.5-.9-2.5 0-1.1.3-1.9.9-2.6.6-.6 1.4-.9 2.4-.9.8 0 1.4.2 2 .7.5.4.7.9.9 1.6h-1.1c-.1-.3-.3-.6-.5-.8-.3-.2-.7-.3-1.2-.3-.6 0-1.1.2-1.5.7-.3.4-.5 1-.5 1.8 0 .7.2 1.3.5 1.7.4.4.8.7 1.4.7.4 0 .8-.1 1.1-.4.3-.2.5-.5.6-.8h1.1c-.2.7-.5 1.2-.9 1.6-.5.2-1.1.4-1.9.4z"/><g><path d="M443.1 510.3v6c0 .7.6 1.3 1.3 1.3h122.7c.7 0 1.3-.6 1.3-1.3v-6H443.1z" style="fill:#ff4713"/><path d="M509.1 505.4h-6.2l8.1-19.6h7.2l8.1 19.6h-6.2l-1.2-3.4h-8.6l-1.2 3.4zm8.1-8.3-2.5-6.9-2.5 6.9h5zM562.5 487.6c0-1 .8-1.8 1.8-1.8s1.8.9 1.8 1.8c0 1-.8 1.7-1.8 1.7-1 .1-1.8-.7-1.8-1.7zm3.3 0c0-.8-.7-1.5-1.5-1.5s-1.5.7-1.5 1.5.7 1.5 1.5 1.5 1.5-.7 1.5-1.5zm-1.9.1v.9h-.3v-2.1h.7c.4 0 .8.1.8.6 0 .2-.1.4-.4.5.3.1.3.2.4.4 0 .2.1.4.1.6h-.4c0-.1-.1-.2-.1-.4s0-.3-.1-.4c-.1-.1-.2-.1-.3-.1h-.4zm.4-.3c.3 0 .4-.1.4-.3 0-.2-.1-.2-.3-.2h-.4v.5h.3zM482.7 485.8h5.7v7.5h7.3v-7.5h5.7v19.6h-5.7v-7.2h-7.3v7.2h-5.7v-7.2h-8v-4.9h8zM566 500.5v4.9h-14.9v-19.6h5.7v14.7zM541.7 505.4c2.7 0 4.9-2.2 4.9-4.9v-14.7H541v14.7h-8.1v-14.7h-5.7v14.7c0 2.7 2.2 4.9 4.9 4.9h9.6zM471 485.8h-6.1v14.6h-12.5v-14.6h-6.1v14.6c0 2.8 2.3 5 5 5H466c2.8 0 5-2.3 5-5v-14.6z"/><g><path d="M567.3 480.5c2.2 0 4.1 1.8 4.1 4.1v31.8c0 2.2-1.8 4.1-4.1 4.1h-123c-2.2 0-4.1-1.8-4.1-4.1v-31.8c0-2.2 1.8-4.1 4.1-4.1h123m0-1.4h-123c-3 0-5.5 2.5-5.5 5.5v31.8c0 3 2.5 5.5 5.5 5.5h123c3 0 5.5-2.5 5.5-5.5v-31.8c.1-3-2.4-5.5-5.5-5.5z"/></g></g></svg>