<svg version="1.1" id="Layer_1" xmlns="http://www.w3.org/2000/svg" x="0" y="0" width="612" height="792" style="enable-background:new 0 0 612 792" xml:space="preserve"><style>.st3{fill:#ff671d}</style><path style="fill:#fff" d="M247.6 314.8h18.7v18.7h-18.7z"/><defs><filter id="Adobe_OpacityMaskFilter" filterUnits="userSpaceOnUse" x="180.4" y="303.8" width="252" height="184.8"><feFlood style="flood-color:white;flood-opacity:1" result="back"/><feBlend in="SourceGraphic" in2="back"/></filter></defs><mask maskUnits="userSpaceOnUse" x="180.4" y="303.8" width="252" height="184.8" id="SVGID_1_"/><g style="mask:url(#SVGID_1_)"><path d="M207.9 457.9h.2l4.4-12c.7-1.9.3-3-.8-3h-.8c-.3 0-.3-.2-.3-.4v-1.2c0-.3.2-.4.4-.4.3 0 2 .2 4.2.2 2.3 0 3.3-.2 4-.2.3 0 .4.2.4.4v1.2c0 .3-.1.4-.4.4h-1.4c-.7 0-1.4.4-1.8.9-.7 1.1-7.6 18.4-8.3 20.1-.2.6-.6.7-1 .7s-.8-.4-1-1.1l-5.3-15.5h-.3l-6.7 15.7c-.3.6-.7.9-1.1.9-.4 0-.7-.4-.9-1.1l-7.1-19.2c-.4-1-1-1.5-2.3-1.5h-1.2c-.3 0-.4-.2-.4-.5v-1c0-.3 0-.4.3-.4.8 0 1.9.2 5 .2 2.4 0 3.8-.2 4.6-.2.3 0 .4.1.4.4v1.1c0 .3 0 .4-.4.4h-.5c-.6 0-1 .5-.6 1.5l4.3 14.4h.2l5.6-13.3c-.1-.9-.2-1.3-.5-1.7-.3-.4-.7-.6-1.5-.6h-.8c-.3 0-.4-.1-.4-.4v-1.2c0-.3.2-.4.5-.4.4 0 2.2.2 4.9.2 2.5 0 3.7-.2 4.1-.2.4 0 .5.1.5.4v1.1c0 .3-.1.4-.4.4h-1.1c-.5 0-1 .6-.8 1.4l4.1 13.5zM232.5 434.1c0-3.3-.7-3.9-2.6-4.6l-.9-.3c-.3-.1-.4-.2-.4-.3v-.5c0-.2.2-.3.6-.6l5.7-3c.4-.2.8-.4 1.3-.4.3 0 .6.4.4 1.4-.1.9-.2 12-.2 14.7v3.5h.3c1.9-2.3 5.1-3.6 7.5-3.6 2.3 0 3.9.7 5.4 2.2 2.5 2.3 2.3 5.1 2.3 8v3.1c0 3 .1 6.4.1 7.5 0 .6.8.8 2 .8h.9c.4 0 .6.1.6.5v.8c0 .4-.1.6-.4.6-.4 0-2.1-.2-5.2-.2-2.7 0-4.6.2-5.1.2-.4 0-.5-.2-.5-.6v-.9c0-.3.1-.4.4-.4h1.3c.9 0 2-.1 2.1-1 .1-.8 0-3.7 0-5.4v-4.4c0-3.1-.2-5.2-1.8-6.7-1.1-1.1-2.2-1.5-3.6-1.5-1.6 0-3.5.5-5.1 2.3-.5.6-1.1 1.7-1.1 2.7v11.9c0 1.7.2 2.2 1.2 2.2h1.6c.4 0 .6.1.6.4v.9c0 .4-.1.6-.4.6-.4 0-2.7-.2-5.2-.2-2.7 0-4.8.2-5.3.2-.2 0-.4-.2-.4-.5v-1c0-.4.2-.4.8-.4h1.2c.9 0 1.7-.2 1.8-.9.2-1 .2-7 .2-10.6v-16.5zM270.7 448c0-1.9-.3-2.8-3.1-3.3-.4-.1-.5-.1-.5-.4v-.5c0-.2.1-.3.4-.4 1.7-.6 3.8-1.5 5.9-2.6.4-.2.7-.4 1.1-.4.3 0 .3.3.3.7-.1.9-.1 4.4-.1 8.9v5.9c0 2.1 0 4.1.1 4.7.1 1 .3 1.4.9 1.4h2.5c.4 0 .5.1.5.5v.9c0 .4-.1.5-.5.5s-2.9-.2-5.2-.2c-3.2 0-5.3.2-5.9.2-.3 0-.4-.1-.4-.4v-1.1c0-.3.1-.4.5-.4h2.7c.6 0 .8-.2.9-1.1.1-1.6.1-3.3.1-5V448zm-2.5-16.6c0-1.4 1.1-2.9 3.3-2.9 1.9 0 2.8 1.5 2.8 2.7 0 1.4-1 3-3.2 3-1.1 0-2.9-1.1-2.9-2.8M297.5 457c0 4.1 1.9 4.8 2.8 4.8 1.3 0 2.8-.2 3.6-.7.3-.2.5-.1.7.1l.3.5c.2.2 0 .4-.1.6-.6.6-2.8 2.2-6.1 2.2-2.7 0-5.3-2.6-5.3-4.6 0-2.2.1-7 .1-7.8v-1.2c0-1 .1-4.7.1-6.9h-3.3c-.5 0-.8-.2-.8-.6 0-.4.3-.6 1-1 1.3-.8 5.5-5 6.2-6.9.2-.4.4-.6.8-.6s.6.4.6.8l-.3 5.4h7.6c.3 0 .5.3.4.5l-.6 1.9c0 .3-.1.4-.5.4h-7c-.1 2.5-.2 5.1-.2 7.6v5.5zM332.9 457.4c0 3.1.7 4.1 1.6 4.1.9 0 1.6-.4 1.9-.8.2-.3.3-.4.5-.2l.6.4c.2.2.3.4 0 1-.4.8-1.5 2.7-4.3 2.7-2 0-3.4-1.4-3.9-3.7h-.1c-1.2 1.4-2.9 2.5-5.4 3.3-1 .3-2 .3-3.2.3-1.3 0-3.3-1.1-3.3-4.5 0-2.5 1.2-4.7 5.5-6.6 2.5-1.1 5.3-2.4 6.2-3.2v-3.5c-.1-.9-.2-2.3-.8-3.1-.6-.7-1.7-1.2-3.3-1.2-1.1 0-2.8.4-3.6 1.1-.8.7-.3 1.5-.3 2.5 0 1.9-.7 3.1-2.9 3.1-.9 0-1.3-.5-1.3-1.7 0-1.8 1.5-3.8 3.8-5.1 2.3-1.4 4.2-1.9 6.6-1.9 2.6 0 3.6.8 4.4 1.5 1.1 1.1 1.2 2.4 1.2 3.9v11.6zm-4-5.5c-2 1.5-7.3 2.6-7.3 7.1 0 2 1.2 3 2.8 3 1.6 0 4.5-1.9 4.5-3.4v-6.7zM350.1 432.6c0-2.2-.2-3.2-2.8-3.9-.6-.2-.8-.2-.8-.4v-.5c0-.2.2-.3.7-.5l5.6-2.4c.5-.2.9-.4 1.2-.4.3 0 .4.3.3.9-.3 2.6-.3 10.6-.3 17.1v8.6c.7 0 2.1-.2 2.6-.6 1-.7 5.3-5.4 5.8-6 .3-.6.3-1.1 0-1.3-.4-.3-1.1-.3-1.4-.3-.4 0-.4-.2-.4-.5v-1c0-.3.1-.4.4-.4.3 0 2.3.2 5.1.2 2.7 0 4-.2 4.4-.2.2 0 .3.2.3.6v1c0 .3-.1.4-.4.4h-.4c-1.1 0-2.7.5-3.8 1.3-.8.4-5.3 4.6-7.2 6.4 1.1 1.1 10.2 10.3 11.2 10.7 1 .5 2.2.8 2.8.8.3 0 .4.1.4.5v1c0 .3-.1.5-.5.5s-2-.2-4.5-.2c-3.2 0-5.5.2-5.9.2-.3 0-.4-.2-.4-.5v-.9c0-.3.1-.4.6-.4h.4c.4 0 .8-.4.6-.9-.2-.4-6.4-7-7.2-7.9-.6-.5-1.6-.6-2.4-.6v2.4c0 1.9 0 3.8.1 5.7.1.8.3 1.1 1.1 1.1h1.6c.4 0 .5.1.5.4v.9c0 .4-.1.6-.4.6-.3 0-2.1-.2-4.8-.2-2.9 0-4.9.2-5.2.2-.1 0-.3-.2-.3-.5v-.9c0-.4.2-.5.6-.5h2c.7 0 1-.6 1-1.3.1-2.4.1-5.4.1-10.2v-18.1zM387.5 449.3c-.1.5-.2 1.4-.2 2.6 0 5.3 3.4 9.4 7.7 9.4 3.3 0 5.7-1.9 6.6-3.7.1-.2.3-.3.5-.3l.7.4c.2.1.3.2 0 .8-1 2.2-3.8 5.9-8.6 5.9-3.1 0-6.6-.9-8.6-3.9-1.9-2.8-2.4-4.8-2.4-8.6 0-2.1.5-5.8 3.4-8.7 2.3-2.4 5.1-2.9 7.8-2.9 6.3 0 8 5.9 8 8 0 .8-.6.9-1.5.9h-13.4zm8.7-1.6c1 0 1.5-.3 1.5-.8 0-1.3-.7-4.9-4.2-4.9-2.4 0-4.7 1.6-5.7 5.6h8.4zM418.8 449.3c0-2.8-.4-3.3-2-4.1l-1-.6c-.3-.1-.4-.1-.4-.4v-.3c0-.2.1-.3.4-.5l5.4-2.8c.3-.2.6-.2.8-.2.3 0 .4.4.4.7l.3 3.8h.2c1.6-2.5 4.2-4.8 6.6-4.8 1.8 0 2.8 1.1 2.8 2.4 0 1.6-1.3 2.7-2.3 2.7-.6 0-1.1-.2-1.6-.4-.4-.3-1.1-.4-1.8-.4-.9 0-2.3.6-3.2 2.3-.3.6-.6 1.6-.6 1.7v11.5c0 1.7.4 2.2 1.5 2.2h2.6c.3 0 .4.1.4.5v1c0 .3 0 .5-.3.5s-2.8-.2-5.8-.2c-3.4 0-5.7.2-6 .2-.2 0-.3-.1-.3-.5v-.9c0-.4.1-.5.6-.5h2.1c.8 0 1.2-.3 1.2-1 .1-1.8.1-3.7.1-6.5v-5.4zM192.9 484.3c-.7 2.5-2.9 4.3-5.7 4.3-3.7 0-6-2.8-6-6 0-3.3 2.6-6 5.9-6 2.7 0 5.1 1.7 5.8 4.4h-2.2c-.6-1.5-2-2.4-3.5-2.4-1.2 0-2 .3-2.8 1.1-.7.7-1.1 1.7-1.1 2.9 0 2.3 1.7 4 3.9 4 1.9 0 3.1-1.2 3.5-2.3h2.2zM201.1 482.6c0-3 2.2-6 6-6s6 2.9 6 6c0 3-2.2 6-6 6s-6-2.9-6-6zm2.2 0c0 2.2 1.7 3.9 3.9 3.9 2.1 0 3.9-1.7 3.9-4 0-2.2-1.7-3.9-3.9-3.9-2.2.1-3.9 1.8-3.9 4zM222.1 477h2v1.7c.5-1.2 1.8-2.1 3.8-2.1 3.6 0 4.6 2.6 4.6 5v6.6h-2.2v-6.1c0-2-.8-3.5-3-3.5-2.1 0-3.1 1.4-3.1 3.3v6.3H222V477zM247.1 479.9c0-.9-.6-1.5-1.6-1.5-1.1 0-1.6.7-1.6 1.5 0 .9.8 1.3 2 1.6 1.7.5 3.6 1 3.7 3.4 0 2.2-1.8 3.7-4 3.7-1.8 0-4-1-4.1-3.6h2.1c.1 1.4 1.2 1.8 2 1.8 1 0 1.9-.7 1.9-1.7 0-1.1-.9-1.5-2.9-2.2-1.6-.5-2.8-1.2-2.8-2.9 0-2.1 1.7-3.4 3.8-3.4 1.5 0 3.6.8 3.8 3.3h-2.3zM259.3 478.7h-2V477h2v-4.1h2.2v4.1h2.1v1.7h-2.1v9.6h-2.2zM272 477h2v1.7c.7-1.3 1.8-2 3.4-2v2.2h-.1c-2 0-3.1 1.1-3.1 3.4v6.1H272V477zM296.3 488.3h-2v-1.7c-.5 1.2-1.8 2.1-3.8 2.1-3.6 0-4.6-2.7-4.6-5V477h2.2v6.1c0 2 .8 3.5 3 3.5 2.1 0 3.1-1.4 3.1-3.3V477h2.2v11.3zM317 484.3c-.7 2.5-2.9 4.3-5.7 4.3-3.7 0-6.1-2.8-6.1-6 0-3.3 2.6-6 5.9-6 2.7 0 5.1 1.7 5.8 4.4h-2.2c-.6-1.5-2-2.4-3.5-2.4-1.1 0-2 .3-2.8 1.1-.7.7-1.1 1.7-1.1 2.9 0 2.3 1.7 4 3.9 4 1.9 0 3.1-1.2 3.5-2.3h2.3zM326.6 478.7h-2V477h2v-4.1h2.2v4.1h2.2v1.7h-2.2v9.6h-2.2zM339.3 472.9h2.1v2.3h-2.1v-2.3zm0 4.1h2.1v11.3h-2.1V477zM350.5 482.6c0-3 2.2-6 6-6s6 2.9 6 6c0 3-2.2 6-6 6s-6-2.9-6-6zm2.1 0c0 2.2 1.7 3.9 3.9 3.9s3.9-1.7 3.9-4c0-2.2-1.7-3.9-3.9-3.9-2.2.1-3.9 1.8-3.9 4zM371.4 477h2v1.7c.6-1.2 1.8-2.1 3.8-2.1 3.6 0 4.6 2.6 4.6 5v6.6h-2.2v-6.1c0-2-.8-3.5-3-3.5-2.1 0-3.1 1.4-3.1 3.3v6.3h-2.2V477zM410.2 484.3c-.7 2.5-2.9 4.3-5.7 4.3-3.7 0-6-2.8-6-6 0-3.3 2.5-6 5.9-6 2.7 0 5.1 1.7 5.8 4.4H408c-.6-1.5-2-2.4-3.5-2.4-1.2 0-2 .3-2.8 1.1-.7.7-1.1 1.7-1.1 2.9 0 2.3 1.7 4 3.9 4 1.9 0 3.1-1.2 3.5-2.3h2.2zM415.8 482.6c0-3 2.2-6 6-6s6 2.9 6 6c0 3-2.2 6-6 6s-6-2.9-6-6zm2.2 0c0 2.2 1.7 3.9 3.9 3.9s3.9-1.7 3.9-4c0-2.2-1.7-3.9-3.9-3.9s-3.9 1.8-3.9 4zM430.1 485.6h2.3v2.7h-2.3z"/><g><path d="M243.8 311v26.3h26.3V311h-26.3zm22.4 22.4h-18.5v-18.5h18.5v18.5z"/><path class="st3" d="m310.4 344.8-5.2 14.6-7.1 19.8v-71.8h-.9l-23.7 50.2-7 14.7v-27.6h-29.1v8.3H251v48.7h12l16.9-35.7 7-14.7v50.4H300l20.1-47.5 1-2.2h17.5l-4.9 6c-10.2 12.4-10 30.5-5.1 43.8h25l3.5-9.1H340l-.9-2.2c-3-7.3-1.9-26 6-37l1.1-1.5h12.1l-1.6 4.8-3.3 9.8h12.7l7.7-21.8h-63.4z"/><path d="m368.6 370.2 10.4-29.1h-71.1l-6.1 17v-54.3h-6.9l-24.7 52.3v-14.9h-36.4v15.6h13.6v48.7h18l17.9-37.8v37.8h19.2l21-49.7h7.3c-12.1 14.6-10.7 35.7-4.7 49.7h30l6.3-16.4h-20c-2.4-5.7-1.8-23.1 5.6-33.4h5.2l-5 14.6h20.4zM346.2 352l-1.1 1.5c-7.9 11-9.1 29.7-6 37l.9 2.2h17.1l-3.5 9.1h-25c-4.9-13.3-5.2-31.4 5.1-43.8l4.9-6h-17.5l-1 2.2-20.1 47.6h-13.1v-50.4l-7 14.7-16.9 35.7h-12v-48.7h-13.5v-8.3h29.1v27.6l7-14.7 23.7-50.2h.9v71.8l7.1-19.8 5.2-14.6h63.4l-7.7 21.8h-12.7l3.3-9.8 1.6-4.8h-12.2z"/><path class="st3" d="M251 318.2h11.9v11.9H251z"/></g></g></svg>