<svg version="1.1" id="Layer_1" xmlns="http://www.w3.org/2000/svg" x="0" y="0" width="1000" height="1000" style="enable-background:new 0 0 1000 1000" xml:space="preserve"><style>.st0{fill:#c00}</style><path class="st0" d="m158.3 493.5.3-1 .3 1h21.7l-12-39.3h-18.8l-12.9 39.3zM125.2 493.5l-10.5-39.3H89.9l11.7 39.3zM215.9 493.5l12.6-39.3h-24.7l-11.5 39.3zM189.4 503.3l-2.8 9.8-3-9.8H162l13.2 42h24.2l13.4-42zM133.7 503.3l-3.2 9.8-2.6-9.8h-23.3l12.5 42h24.1l13.8-42z"/><path d="M238 454.2h23.7v39.3H238zM238 503.3h23.7v42H238zM302.3 493.5c1-4.2 2.8-7.7 5.7-10.7 4.8-5.1 10.8-7.6 18-7.6 8.2 0 15.1 3.3 20.5 10v-28.4c-7.8-3.1-14.9-4.6-21.4-4.6-7.9 0-15.5 1.9-22.7 5.7-7.9 4.1-14 9.7-18.5 17-3.5 5.7-5.7 11.9-6.6 18.6h25zM326 524.8c-6.1 0-11.5-2-16.4-6.1-4.6-3.9-7.3-9-7.9-15.4h-24.8c.4 7.4 2.3 14.1 5.7 20.2 4.2 7.5 10.4 13.5 18.6 18 7.7 4.2 15.7 6.3 24.1 6.3 3.3 0 6.3-.3 8.9-.8 2.6-.6 6.7-1.8 12.3-3.6v-28c-6 6.2-12.9 9.4-20.5 9.4z"/><path class="st0" d="M398 545.3v-91.1h23.7l43.6 55.7v-55.7H489v91.1h-23.7l-43.6-55.8v55.8H398zM563.6 529.4h-32.7l-6.3 15.9h-25l35-91.1h25.8l34.3 91.1h-25.3l-5.8-15.9zm-6.4-18-9.8-29-9.9 29h19.7zM634.4 474.2v71.1h-23.7v-71.1h-19.3v-20H654v20h-19.6zM688.1 454.2v91.1h-23.7v-91.1h23.7zM753.6 451.4c15.2 0 27.7 5.1 37.3 15.3 8.8 9.2 13.2 20.3 13.2 33.2 0 8.9-2.2 17.1-6.6 24.6-4.7 8.1-11.2 14.3-19.6 18.5-7.2 3.6-15.4 5.5-24.7 5.5-15 0-27.3-5.1-36.8-15.2-8.8-9.3-13.2-20.6-13.2-34.2 0-8.5 2.2-16.4 6.6-23.8 4.9-8.3 11.5-14.4 19.6-18.5 7.3-3.5 15.4-5.4 24.2-5.4zm0 23c-7.1 0-13.1 2.5-18 7.5-5 5.1-7.5 11-7.5 17.8 0 7.2 2.5 13.4 7.5 18.4 4.9 5 11 7.5 18.1 7.5 7.1 0 13.1-2.5 18.2-7.5 5-5 7.5-11.1 7.5-18.2 0-7.2-2.5-13.2-7.5-18.1-5.2-4.9-11.3-7.4-18.3-7.4zM819.1 545.3v-91.1h23.7l43.6 55.7v-55.7h23.7v91.1h-23.7l-43.6-55.8v55.8h-23.7z"/></svg>