<svg version="1.1" id="Layer_1" xmlns="http://www.w3.org/2000/svg" xmlns:xlink="http://www.w3.org/1999/xlink" x="0" y="0" width="792" height="612" style="enable-background:new 0 0 792 612" xml:space="preserve"><style>.st1,.st2{clip-path:url(#SVGID_2_)}.st2{fill:#6d6e71}</style><path style="fill:#298ec1" d="M404.9 325.2h.1l-.1-.2z"/><defs><path id="SVGID_1_" d="M264.3 189.8h263.2v232.7H264.3z"/></defs><clipPath id="SVGID_2_"><use xlink:href="#SVGID_1_" style="overflow:visible"/></clipPath><path class="st1" d="m445 265.3 8.5 23.3 13.3 36.5 2.6-7.2L516 189.8c-30.6.6-63.8 22.3-80.1 51.1.3.5.5.9.8 1.4l8.3 23z"/><path class="st2" d="m376.4 288.6-8.5-23.3-8.4-23c-16.1-29.5-49.8-52-80.9-52.6l46.6 128.1 2.7 7.3h61.8l-13.3-36.5z"/><path style="clip-path:url(#SVGID_2_);fill:#0c426a" d="m466.8 325.2-.1-.2v.2z"/><path class="st2" d="m453.5 288.6-8.5-23.3-8.4-23c-.3-.5-.5-.9-.8-1.4-16.4-28.8-49.5-50.6-80.1-51.1l46.6 128.1 2.6 7.2v.1h61.7v-.1l-13.1-36.5z"/><path class="st1" d="M301.4 375.9h-.9c-8.5-22-9.6-25-10.6-27.9-.9 2.9-2.1 6-11 27.9h-.9l-7.1-24.5c-3.3-11.3-3.5-12.1-6.6-12.1v-1.1c1.8 0 3.4.1 5.8.1s4.4 0 7-.1v1.1c-4.9 0-4.8.8-2.2 10 3.2 11.2 3.8 13.7 4.5 16.4 1-2.8 1.7-4.6 6.1-16.1 1.1-2.8 2.7-6.4 4.2-10.5h.8c1.6 4 3.1 7.7 4.1 10.4 4.2 11.3 4.9 13.1 5.8 16.1h.1c.7-2.8 1.3-5.2 4.4-16.3 2.6-9.2 2.8-10-2.2-10v-1.1c2.7 0 4.6.1 7 .1 2.4 0 3.6 0 5.3-.1v1.1c-3 0-3.2.8-6.5 12.1l-7.1 24.5zM318 365.9c-3.1 7.8-3.4 8.5.3 8.5v1c-1.5 0-3.4-.1-5.4-.1-2.1 0-3.7 0-4.6.1v-1c2.4 0 2.8-.7 7.1-11.2l8.3-20.8h.8l8 20.8c4.1 10.6 4.4 11.2 6.8 11.2v1c-.9 0-2.4-.1-4.6-.1-2.2 0-4.4 0-5.7.1v-1c3.6 0 3.3-.6.3-8.5H318zm10.2-3v-.1c-3.9-10.7-4.2-11.5-4.4-12.3-.2.7-.5 1.6-4.6 12.3v.1h9zM346.5 346h-5.8c-3.2 0-3.9.8-4.2 4.3h-.9v-7.4h25.6v7.4h-.9c-.2-3.6-.9-4.3-4-4.3h-5.9v17.2c0 10.6 0 11.2 3.7 11.2v1c-1.5 0-3.5-.1-5.6-.1-2.1 0-4.3 0-5.7.1v-1c3.7 0 3.7-.6 3.7-11.2V346zM366.9 354.4c0-9.9 0-10.6-3.1-10.6v-1c1.9 0 4.6.1 8.2.1 3.9 0 8 0 10.8-.1-.2 2.3-.3 4.7-.3 7.2h-.9c-.2-3.4-.8-4-4.3-4h-6.5v11.2h4.8c3.7 0 4.7-.1 5-2.1h.9c-.1 1.1-.2 2.3-.2 3.5 0 1.5.1 2.8.2 4.1h-.9c-.2-2.3-1.2-2.4-4.9-2.4h-4.9v10.1c0 1.6.1 1.7 1.7 1.7h6.2c2.3 0 3.5-.3 3.9-3.7h.9c-.1 2-.3 4.6-.3 7-2.9 0-7.1-.1-10.9-.1-3.8 0-6.7 0-8.7.1v-1c3.3 0 3.3-.7 3.3-11.2v-8.8zM391.4 354.4c0-9.9 0-10.6-3.4-10.6v-.9h4.7c.7 0 1.6 0 2.4-.1h2.5c2.1 0 4.2.3 5.5.8 3.1 1.2 5.3 4 5.3 8.3 0 3.4-1.7 6-3.4 7.4-1 .8-2.2 1.4-3.2 1.7v.1c1.6 2.2 2.9 4.1 7.5 10.6 1.3 1.7 2.6 2.7 4.4 2.7v.9h-5.5c-.9 0-1.6-.4-2.1-1.1-2.8-4.2-5.4-8.2-8.2-12.4h-2.8v2.5c0 9.5 0 10.1 3.3 10.1v1c-1.7 0-3.2-.1-5.1-.1-1.9 0-3.5 0-5.4.1v-1c3.4 0 3.4-.7 3.4-11.2v-8.8zm13-2.3c0-3.6-2.1-6.2-6.6-6.2-1 0-2.1.1-2.7.1v12.7c.7 0 1.2.1 2 .1 1.8 0 3.3-.4 4.5-1.2 1.6-.9 2.8-2.9 2.8-5.5zM429.3 375.9h-.9l-9.9-24.5c-4.6-11.4-5.2-12.1-8.2-12.1v-1.1c1.3 0 3.5.1 5.9.1 2.3 0 4.9 0 6.8-.1v1.1c-4.8 0-4.4.8-.3 10.8 3.4 8.6 5.1 13 6.3 16.5h.1c1.1-3.5 2.8-7.9 6.2-16.4 4.1-10.2 4.4-10.9-.1-10.9v-1.1c2 0 4.4.1 6.5.1 2.1 0 4.2 0 5.3-.1v1.1c-2.8 0-3.2.8-7.8 12.1l-9.9 24.5zM454.4 363.2c0 10.6 0 11.2 3.7 11.2v1c-1.5 0-3.5-.1-5.6-.1-2.2 0-3.9 0-5.6.1v-1c3.6 0 3.6-.7 3.6-11.2v-8.8c0-9.9 0-10.6-3.5-10.6v-1c1.6 0 3.4.1 5.4.1 2 0 4.2 0 5.4-.1v1c-3.4 0-3.4.7-3.4 10.5v8.9zM464.8 354.4c0-9.9 0-10.6-3.1-10.6v-1c1.9 0 4.6.1 8.2.1 3.9 0 8 0 10.8-.1-.2 2.3-.3 4.7-.3 7.2h-.9c-.2-3.4-.8-4-4.3-4h-6.5v11.2h4.8c3.7 0 4.7-.1 5-2.1h.9c-.1 1.1-.2 2.3-.2 3.5 0 1.5.1 2.8.2 4.1h-.9c-.2-2.3-1.2-2.4-4.9-2.4h-4.9v10.1c0 1.6.1 1.7 1.7 1.7h6.2c2.3 0 3.5-.3 3.9-3.7h.9c-.1 2-.3 4.6-.3 7-2.9 0-7.1-.1-10.9-.1-3.8 0-6.7 0-8.7.1v-1c3.3 0 3.3-.7 3.3-11.2v-8.8zM515.6 375.9h-.7c-7.4-19.3-8.4-21.9-9.3-24.4-.8 2.5-1.9 5.2-9.6 24.4h-.8l-6.2-21.5c-2.9-9.9-3-10.6-5.8-10.6v-1c1.6 0 3 .1 5.1.1 2.1 0 3.9 0 6.1-.1v1c-4.3 0-4.2.7-2 8.8 2.8 9.8 3.3 12 3.9 14.4.9-2.5 1.5-4.1 5.3-14.1 1-2.4 2.3-5.6 3.7-9.2h.7c1.4 3.5 2.7 6.7 3.6 9.1 3.7 9.9 4.3 11.5 5.1 14.1h.1c.6-2.4 1.1-4.5 3.9-14.2 2.3-8 2.4-8.8-2-8.8v-1c2.4 0 4 .1 6.1.1 2.1 0 3.2 0 4.6-.1v1c-2.6 0-2.8.7-5.7 10.6l-6.1 21.4zM288.4 390.7c0-4.6 3.7-7.1 8.2-7.1.6 0 1.2 0 1.7.1.5 0 1.1.1 1.6.2-.1 1.3-.1 2.1-.1 4.1h-.5c-.1-.9-.4-1.3-.7-1.6-.4-.3-1.2-.5-2.2-.5-2.7 0-5 1.8-5 4.8s2.1 4.9 4.8 4.9c.9 0 1.7-.2 2.2-.5.4-.3.8-.7.9-1.5h.5v3.8c-.3.1-.8.2-1.4.3-.7.1-1.4.2-2.3.2-4.4-.1-7.7-2.8-7.7-7.2zM310.9 394.7c-.8 2-.9 2.4.5 2.4v.5H306v-.5c1.1 0 1.3-.4 3.3-5.1l3.6-8.5h.5l3.5 8.5c1.9 4.7 2.2 5.1 3.2 5.1v.5h-5.5v-.5c1.4 0 1.3-.4.5-2.4h-4.2zm3.4-2c-1-2.9-1.2-3.5-1.3-3.8-.1.3-.3.9-1.4 3.8v.1h2.7zM333.8 393.8c0 2.3-1.8 4-4.7 4-1.3 0-2.5-.3-3.2-.6.1-.9.1-2.2.1-3.9h.5c0 .9.3 1.5.8 1.8.4.4 1 .5 1.6.5 1.2 0 2-.6 2-1.6 0-.7-.3-1.2-1-1.7-.4-.3-.9-.6-1.5-1-1.7-1.1-2.4-2.3-2.4-3.7 0-2.3 1.8-3.9 4.5-3.9.9 0 2 .2 2.5.4-.1 1.2-.1 2.6-.1 3.8h-.5c0-.7-.2-1.2-.6-1.5-.3-.3-.8-.4-1.4-.4-1.1 0-1.8.6-1.8 1.5 0 .6.3 1 .9 1.5.5.4 1 .7 1.8 1.3 1.6.8 2.5 1.9 2.5 3.5zM344.6 392c0 4.7 0 5.1 1.7 5.1v.5h-6v-.5c1.6 0 1.6-.4 1.6-5.1v-3c0-4.4 0-4.8-1.6-4.8v-.5h5.8v.5c-1.5 0-1.5.4-1.5 4.8v3zM365.2 397.8h-.5l-6-6c-.7-.8-1.6-1.6-2.5-2.8v2.9c0 4.7 0 5.1 1.5 5.1v.5h-5.5v-.5c1.6 0 1.6-.5 1.6-5.2v-8.3h.5c2.9 2.9 4.7 4.8 5.9 6 .9.9 1.5 1.6 2.6 2.9h.1v-3.5c0-4.4 0-4.8-1.6-4.8v-.5H366.6v.5c-1.4 0-1.4.5-1.4 4.8v8.9zM387.8 390.6c0 4.2-3.3 7.4-7.6 7.4-4.1 0-7.4-3-7.4-7.1 0-4.4 3.4-7.3 7.6-7.3 4.2-.1 7.4 2.7 7.4 7zm-2.9.1c0-2.7-1.9-4.9-4.4-4.9-2.8 0-4.6 2.2-4.6 4.9s1.9 4.8 4.5 4.8c2.6.1 4.5-2 4.5-4.8zM402.2 397.8c-2.6 0-4.3-1.6-4.3-3.8 0-1.7 1.2-3 2.7-4-.2-.2-.5-.7-.7-1-.3-.5-.6-1.2-.6-2.1 0-1.9 1.6-3.4 3.7-3.4 1.8 0 3.3 1.2 3.3 3.1 0 .9-.4 1.8-1.1 2.5-.3.4-1.1.9-1.6 1.2.7.8 1.7 2 2.4 2.8h.1c.4-.5.6-1.1.8-1.6.1-.4.2-.8.3-1.1h3.4v.5c-.8 0-1.1.4-1.5 1.3-.4.9-.8 1.7-1.5 2.5.5.5 1 1.1 1.6 1.6.5.4.9.7 1.5.7v.5c-.3 0-1-.1-1.6-.1-.6 0-1.1.1-1.4.1-.3 0-.5-.2-.7-.4-.3-.3-.7-.6-.9-1h-.1c-1 1.1-2.3 1.7-3.8 1.7zm.1-2c.9 0 1.6-.4 2.2-1-.9-.9-2.1-2.3-2.8-3.1-.8.6-1.4 1.3-1.4 2.3.1 1 .8 1.8 2 1.8zm.6-10.2c-.6 0-1.2.6-1.2 1.3 0 .4.1.7.3 1.1.1.2.3.5.5.9.4-.2.8-.6 1.1-.9.3-.4.5-.8.5-1.2 0-.7-.4-1.2-1.2-1.2zM432.3 392c0 4.7 0 5.1 1.7 5.1v.5h-6v-.5c1.7 0 1.7-.4 1.7-4.2v-1.3h-6v1.3c0 3.7 0 4.2 1.7 4.2v.5h-6v-.5c1.6 0 1.6-.4 1.6-5.1v-3c0-4.4 0-4.8-1.6-4.8v-.5h5.8v.5c-1.5 0-1.5.4-1.5 4.2v1h6v-1.1c0-3.8 0-4.2-1.5-4.2v-.5h5.5v.5c-1.4 0-1.4.4-1.4 4.8v3.1zM455 390.6c0 4.2-3.3 7.4-7.6 7.4-4.1 0-7.4-3-7.4-7.1 0-4.4 3.4-7.3 7.6-7.3 4.2-.1 7.4 2.7 7.4 7zm-2.9.1c0-2.7-1.9-4.9-4.4-4.9-2.8 0-4.6 2.2-4.6 4.9s1.8 4.8 4.5 4.8c2.6.1 4.5-2 4.5-4.8zM465.6 385.8h-2.2c-1.3 0-1.7.5-1.8 1.8h-.5v-3.9h11.7v3.9h-.5c-.1-1.4-.5-1.8-1.8-1.8h-2.2v6.2c0 4.7 0 5.1 1.7 5.1v.5h-6v-.5c1.6 0 1.6-.4 1.6-5.1v-6.2zM480.3 389c0-4.4 0-4.8-1.4-4.8v-.5h9c-.1 1-.1 2.2-.1 3.8h-.5c-.1-1.4-.5-1.7-1.9-1.7h-2.5v3.8h1.7c1.5 0 1.9-.1 2-.9h.5c0 .6-.1 1.2-.1 1.8 0 .7 0 1.4.1 2.1h-.5c-.1-.9-.5-1-2-1h-1.7v3.1c0 .7.1.7.7.7h2.3c1 0 1.6-.3 1.7-1.5h.5c-.1 1.6-.1 2.7-.1 3.7h-9.3v-.5c1.5 0 1.5-.4 1.5-5.1v-3zM496.7 389c0-4.4 0-4.8-1.6-4.8v-.5h5.8v.5c-1.5 0-1.5.4-1.5 4.8V394.8c0 .4.1.6.6.6h2.4c.6 0 1-.1 1.3-.4.2-.2.4-.7.4-1.2h.5c-.1 1.6-.1 2.8-.1 3.8h-9.3v-.5c1.5 0 1.5-.4 1.5-5.1v-3zM332.4 420.9h-.2l-2.9-7.1c-1.3-3.3-1.5-3.5-2.4-3.5v-.3h3.7v.3c-1.4 0-1.3.2-.1 3.2 1 2.5 1.5 3.8 1.8 4.8.3-1 .8-2.3 1.8-4.8 1.2-3 1.3-3.2 0-3.2v-.3h3.5v.3c-.8 0-.9.2-2.3 3.5l-2.9 7.1zM343.1 416.7c0 3.5 0 3.8 1.2 3.8v.3h-3.8v-.3c1.2 0 1.2-.2 1.2-3.7v-2.9c0-3.3 0-3.5-1.2-3.5v-.3h3.6v.3c-1.1 0-1.1.2-1.1 3.5v2.8zM348 415.4c0-3.6 2.8-5.5 6.1-5.5.5 0 1 0 1.4.1.3 0 .8.1 1.2.2-.1 1-.1 1.5-.1 2.5h-.3c0-.7-.2-1-.5-1.3-.3-.3-1-.4-1.8-.4-2.7 0-4.6 1.7-4.6 4.4s2 4.4 4.5 4.4c.6 0 1.3-.2 1.6-.4.3-.2.6-.5.7-1.3h.3v2.3c-.2.1-.5.2-.8.2-.6.1-1.1.2-1.8.2-3.4.1-5.9-2-5.9-5.4zM362 413.8c0-3.3 0-3.5-1.2-3.5v-.3h3.6v.3c-1.1 0-1.1.2-1.1 3.4v1.3l2.2-2.6c1.5-1.8 1.6-2 .6-2v-.3h3.3v.3c-.8 0-.9.2-2.6 2.1l-2.4 2.8 2.9 3.3c1.6 1.9 1.9 2.1 2.6 2.1v.3h-3.7v-.3c1.2 0 .9-.3-.5-2l-2.5-2.9v1.4c0 3.3 0 3.6 1.2 3.6v.3h-3.7v-.3c1.2 0 1.2-.2 1.2-3.8v-3.2zM378.9 418c0 1.6-1.2 2.9-3.4 2.9-.9 0-1.8-.2-2.3-.5.1-.6.1-1.5.1-2.5h.3c0 .7.2 1.2.6 1.5.3.3.8.4 1.3.4 1.2 0 2-.7 2-1.7 0-.6-.2-1.1-.8-1.6-.4-.3-.8-.6-1.4-1-1.1-.8-1.8-1.6-1.8-2.9 0-1.6 1.3-2.8 3.2-2.8.7 0 1.4.1 1.9.3-.1.8-.1 1.6-.1 2.4h-.3c0-.7-.1-1-.4-1.3-.3-.2-.7-.3-1.1-.3-1 0-1.8.6-1.8 1.6 0 .6.3 1.1.7 1.5.4.3.8.6 1.5 1.1.9.7 1.8 1.5 1.8 2.9zM389.8 417.8c0 1-.5 1.8-1.1 2.3-.7.5-1.6.7-2.8.7h-3.1v-.3c1.2 0 1.2-.2 1.2-3.8v-2.9c0-3.3 0-3.5-1-3.5v-.3h3c.6 0 1.1.1 1.6.2 1 .3 1.8 1.1 1.8 2.5 0 1.3-1 2.3-2 2.5 1.4.1 2.4 1.2 2.4 2.6zm-1.8-5c0-1.2-.8-1.8-2-1.8h-.8v3.7h.4c.3 0 .7 0 1-.1.7-.2 1.4-.7 1.4-1.8zm.5 4.9c0-1.1-.8-1.6-1.4-1.8-.3-.1-.8-.2-1.3-.2h-.6v3.4c0 .4 0 .5.2.5.2.1.5.1.7.1.4 0 1-.1 1.2-.3.7-.2 1.2-.7 1.2-1.7zM394.8 413.8c0-3.3 0-3.5-1.1-3.5v-.3h3.7v.3c-1.2 0-1.2.2-1.2 3.5v2.6c0 1.3.3 2 .9 2.6.5.5 1.2.7 2 .7.7 0 1.5-.3 1.9-.8.6-.6.8-1.3.8-2.5v-2.6c0-3.3 0-3.5-1.2-3.5v-.3h3.5v.3c-1.1 0-1.1.2-1.1 3.5v2.6c0 1.7-.4 2.8-1.2 3.4-.6.6-1.6 1.1-2.9 1.1-1.4 0-2.5-.4-3.2-1.2-.7-.8-1.1-1.8-1.1-3.2v-2.7zM409 413.8c0-3.3 0-3.5-1.1-3.5v-.3h3.2c.7 0 1.4.1 1.8.3 1 .4 1.8 1.3 1.8 2.8 0 1.1-.6 2-1.1 2.5-.3.3-.7.5-1.1.6l2.5 3.5c.4.6.9.9 1.5.9v.3h-1.8c-.3 0-.5-.1-.7-.4-.9-1.4-1.8-2.7-2.7-4.1h-.9v.8c0 3.2 0 3.4 1.1 3.4v.3H408v-.3c1.1 0 1.1-.2 1.1-3.8v-3zm4.3-.8c0-1.2-.7-2.1-2.2-2.1h-.9v4.2h.7c.6 0 1.1-.1 1.5-.4.5-.1.9-.8.9-1.7zM419.3 415.4c0-3.6 2.8-5.5 6.1-5.5.5 0 1 0 1.5.1.3 0 .8.1 1.2.2-.1 1-.1 1.5-.1 2.5h-.3c0-.7-.2-1-.5-1.3-.3-.2-1-.4-1.8-.4-2.8 0-4.6 1.7-4.6 4.4 0 2.8 2 4.5 4.5 4.5.7 0 1.2-.1 1.6-.2v-1.6c0-1.8-.1-2.1-1.2-2.1v-.3c.5 0 1.1.1 1.8.1.6 0 1.2 0 1.7-.1v.3c-1 0-1 .2-1 2.2v.6c0 .7 0 1.5.1 1.9-.8.2-1.7.3-2.9.3-3.7-.1-6.1-2.1-6.1-5.6zM433.7 419.3c.4 0 .8.4.8 1s-.3 1.1-.5 1.4c-.2.3-.6.6-.9.8l-.2-.2c.1-.1.2-.3.4-.5.2-.3.3-.6.3-.8 0-.1 0-.1-.1-.1-.3-.1-.5-.3-.5-.7-.1-.5.3-.9.7-.9zM446.7 409.9h.2c3.5 7 3.8 7.5 4.2 8.5.4-1 .7-1.5 4.3-8.5h.3l.8 6.8c.4 3.5.5 3.8 1.5 3.8v.3h-3.7v-.3c1.3 0 1.3-.2.9-3.1-.3-2.6-.4-3.4-.4-4.2-.5 1.2-.9 1.9-1.9 4.1-.4.8-1 1.9-1.7 3.3h-.2c-.7-1.4-1.3-2.5-1.7-3.3-1-2.1-1.4-2.9-1.9-4.1 0 .8-.1 1.6-.4 4.2-.3 2.8-.3 3.1 1 3.1v.3h-3.5v-.3c1 0 1.1-.2 1.5-3.7l.7-6.9zM467 418c0 1.6-1.2 2.9-3.4 2.9-.9 0-1.8-.2-2.3-.5.1-.6.1-1.5.1-2.5h.3c0 .7.2 1.2.6 1.5.3.3.8.4 1.3.4 1.2 0 2-.7 2-1.7 0-.6-.2-1.1-.8-1.6-.4-.3-.8-.6-1.4-1-1.1-.8-1.8-1.6-1.8-2.9 0-1.6 1.3-2.8 3.2-2.8.7 0 1.4.1 1.9.3-.1.8-.1 1.6-.1 2.4h-.3c0-.7-.1-1-.4-1.3-.2-.2-.7-.3-1.1-.3-1 0-1.8.6-1.8 1.6 0 .6.3 1.1.7 1.5.4.3.8.6 1.5 1.1 1 .7 1.8 1.5 1.8 2.9z"/></svg>