<svg version="1.1" id="Layer_1" xmlns="http://www.w3.org/2000/svg" x="0" y="0" width="272" height="134" style="enable-background:new 0 0 272 134" xml:space="preserve"><style>.st0{fill-rule:evenodd;clip-rule:evenodd}.st0,.st1{fill:#fff}</style><path class="st0" d="M65 60.6c5.2-.5 7.9 3.1 13.1 3.1 6.5.1 12-3.7 12-3.7s-3.6 7.9-14.9 7.2c-5.2-.2-7.8-3.6-13.1-3.1-4.5.4-8.5 3.8-8.5 3.8s2.9-6.4 11.4-7.3zM65 69.2c5.2-.6 7.9 3.1 13.1 3.1 6.5.1 12-3.8 12-3.8s-3.6 8-14.9 7.3c-5.2-.3-7.8-3.6-13.1-3.1-4.5.4-8.5 3.8-8.5 3.8s2.9-6.4 11.4-7.3z"/><path class="st1" d="M62.4 42.1 39.2 57.9l1.7 2.5 21.5-14.6 14.1 9.5v-3.7z"/><path class="st1" d="M49.7 59.4h-3v25.3h29.5v-3H49.7z"/><path class="st0" d="M113.6 80.6c0 1.3.2 3.4-1.3 3.9v.1h5.5v-.1c-1.4-.5-1.3-2.7-1.3-3.9V69.7c0-1.3-.1-3.5 1.3-4v-.1h-5.5v.1c1.5.5 1.3 2.7 1.3 4v10.9zM119.1 65.6c1.5.6 1.2 2.7 1.2 4.1v10.9c0 1.3.2 3.4-1.2 3.9v.1h5.5v-.1c-1.5-.5-1.3-2.6-1.3-3.9V67.7c.7-.1 1.3-.2 2-.3 2-.1 3.7 1.1 3.7 3.2 0 2.7-2.7 3.8-5 4.1l2.6 4.1 3.5 4.3c.9 1.1 1.8 1.5 3.4 1.5h2.7c-1.7-1.1-3.5-2.5-4.7-4l-4.2-5.2c2.4-.6 4.6-2.6 4.6-5.1 0-2.6-2.1-4.7-6-4.7h-6.8z"/><path class="st0" d="m105 75.5 2 5.2c1 2.6 1.3 3-.5 3.8v.1h7.5v-.1c-2.1-1.1-2.7-3.1-3.6-5.2l-7.7-18.9h-5.8v.1c1.8.6 1.1 2.1.5 3.5l-6.2 15.4c-.8 2.1-2.7 4.2-4.8 5.2v.1h8v-.1c-1.8-.7-1.5-1.7-.8-3.8l6.5-17.3 4.9 12z"/><path class="st0" d="M95.3 78.2h-1.8c-.3 0-.5-.1-.7-.2-.2-.4.9-2 1.2-2.7.2 0 .4 0 .6.1.8.2 1.8.3 2.8.2 3.3-.3 6.3-2.8 6.3-2.8s-2.2 4.7-8.4 5.4zM129.8 53.5l-5.5-12.7c-.1-.4-.4-.8-.4-1.3h-5.1v.1c1.3.7 1 1.9.9 2.7l-1.6 12.1c-.2 1.6-.4 3-1.6 4v.1h4.7v-.1c-1.4-.6-1.2-1.9-.9-3.6l1.6-12.4 5.5 13c.7 1.6 1.1 2.4 2.6 3.5l6.5-16.5 1.6 13.9c0 1-.2 1.9-1.2 2.2v.1h5.6v-.1c-1.2-.8-1.3-1.6-1.5-3l-1.9-14.2c0-.7.2-1.5.9-1.7v-.1h-5c0 .6-.2 1.2-.4 1.8l-4.8 12.2zM154.9 39.6c-1.4-.4-2.8-.6-4.3-.6-3.5 0-7.2 1.4-7.2 5 0 6.1 9.9 5.3 9.9 9.8 0 2-2.5 3-4.1 3-2.3 0-4.6-.9-6.3-2.4l.8 3.6c1.6.6 3.4.8 5.2.8 4.5 0 7.7-2.9 7.7-6 0-5.3-9.9-5.3-9.9-9.2 0-2 2.1-2.6 3.7-2.6s3.4.7 4.5 1.8v-3.2zM165.2 41.5h2.6c1 0 2.1.1 2.5 1.2h.1l.9-3.5h-.1c-.4.2-.8.2-1.3.2h-11.5c-.4 0-.8 0-1.1-.2h-.1l-1 3.5h.1c.9-.8 2.2-1.2 3.5-1.2h2.5v12.9c0 1.3.2 3.4-1.3 3.9v.1h5.8v-.1c-1.6-.9-1.5-2-1.5-3.7V41.5h-.1zM172 39.4c1.5.6 1.2 2.7 1.2 4.1v10.9c0 1.3.2 3.4-1.2 3.9v.1h5.5v-.1c-1.5-.5-1.3-2.6-1.3-3.9V41.5c.7-.1 1.3-.2 2-.3 2-.1 3.7 1.2 3.7 3.2 0 2.7-2.7 3.8-5 4.1l2.7 4.1 3.5 4.3c.8 1.1 1.8 1.5 3.4 1.5h2.6c-1.6-1.1-3.5-2.5-4.7-4l-4.2-5.2c2.4-.6 4.6-2.6 4.6-5.1 0-2.6-2.1-4.7-6-4.7H172z"/><path class="st0" d="M196.9 41c4.6 0 7.3 4.1 7.3 8.3 0 4.3-2.8 7.5-7.2 7.5-4.6 0-7.4-4.1-7.4-8.2 0-4.3 2.9-7.6 7.3-7.6zm.3-2.1c-6.1-.1-10.9 4.4-10.9 9.9 0 5.9 4.8 10 10.6 10s10.6-4.3 10.6-10.2c0-5-4.3-9.7-10.3-9.7zM211.7 43.5l9.9 12.5c1.3 1.7 2.2 2.6 4.3 3.3V43.2c0-1.6 0-2.7 1.5-3.6v-.1h-5.1v.1c1.5.9 1.5 2 1.5 3.6v11l-10.6-13.3-.4-.6c-.2-.2-.3-.4-.4-.7h-4.2v.1c1.5.9 1.5 2 1.5 3.6v11.5c0 1.6 0 2.8-1.5 3.7v.1h5.1v-.1c-1.6-.9-1.5-2-1.5-3.7V43.5h-.1zM243.5 39.5c-1.5-.3-3-.5-4.5-.5-7 0-12 3.9-12 10.1 0 5.8 4.4 9.8 11.8 9.8 2.3 0 4.6-.4 6.9-.8-.2-.4-.1-.9-.1-1.3v-6.6c0-.4 0-.9.1-1.3h-4.4c1.3.5 1.3 2 1.3 3.3v4.2c-1.3.4-2.7.5-4 .5-4.6 0-8.3-3.5-8.3-8.2 0-4.7 3.4-7.6 7.9-7.6 1.8 0 3.9.4 5.1 1.7h.1v-3.3h.1zM101.6 39.4c1.5.6 1.2 2.7 1.2 4.1v10.9c0 1.3.2 3.4-1.2 3.9v.1h5.5v-.1c-1.5-.5-1.3-2.6-1.3-3.9V41.5c.7-.1 1.3-.2 2-.3 2-.1 3.7 1.2 3.7 3.2 0 2.7-2.7 3.8-5 4.1l2.7 4.1 3.5 4.3c.9 1.1 1.8 1.5 3.4 1.5h2.7c-1.7-1.1-3.5-2.5-4.7-4l-4.2-5.2c2.4-.6 4.6-2.6 4.6-5.1 0-2.6-2.1-4.7-6-4.7h-6.9z"/><path class="st0" d="m94.3 49.3 2 5.2c1 2.6 1.3 3-.5 3.8v.1h7.6v-.1c-2.1-1.1-2.8-3.1-3.6-5.2L92 34.2h-5.9v.1c1.8.6 1.1 2.1.6 3.5l-6.2 15.4c-.8 2.1-2.7 4.2-4.8 5.2v.1h8v-.1c-1.8-.7-1.5-1.7-.7-3.8l6.5-17.3 4.8 12z"/><path class="st0" d="M84.6 52h-1.8c-.3 0-.5-.1-.7-.2-.2-.4 1-2 1.2-2.7.2 0 .4 0 .6.1.8.2 1.7.3 2.8.2 3.3-.3 6.3-2.8 6.3-2.8s-2.1 4.7-8.4 5.4z"/><path class="st1" d="M135.8 67.8h.3c.3 0 .6-.1.6-.4 0-.2-.2-.4-.6-.4h-.3v.8zm0 1.5h-.6v-2.7c.2 0 .6-.1 1-.1.5 0 .7.1.9.2.2.1.3.3.3.6s-.2.5-.6.6c.3.1.4.3.5.7.1.4.1.6.2.7h-.7c-.1-.1-.1-.3-.2-.7 0-.3-.2-.4-.6-.4h-.3v1.1h.1zm.4-3.6c-1.2 0-2.1 1-2.1 2.2 0 1.2.9 2.2 2.1 2.2 1.2 0 2.1-1 2.1-2.2 0-1.2-.9-2.2-2.1-2.2zm0-.5c1.5 0 2.8 1.2 2.8 2.7 0 1.5-1.2 2.7-2.8 2.7-1.6 0-2.8-1.2-2.8-2.7 0-1.6 1.2-2.7 2.8-2.7z"/></svg>