<svg version="1.1" id="Layer_1" xmlns="http://www.w3.org/2000/svg" x="0" y="0" width="792" height="612" style="enable-background:new 0 0 792 612" xml:space="preserve"><style>.st0{fill:#4a8b2c}.st1{fill:#f1e4b2}.st2{fill:#ce0e2d}</style><path class="st0" d="M345.4 337.2c-1.1 7.3-4 12.6-6.7 17l66.7-5.8 2.5-16.6s-5.6 4.6-13.1 5.3c-5.4.5-15.5 1.3-20.9 1.8l.6-4.2 3.8-25 8.3-.7c6.1-.5 10.5 1.1 11.9 3.1l2.5-16.7-20.8 1.8 3.8-25 12.5-1.1c6.1-.5 10.5 1.1 11.9 3.1l2.5-16.7-58.4 5.1c1.6 4 2.8 8.4 1.7 16.3l-8.8 58.3zM455.2 237.2l-12.6 83.3c-2 13.2-6 21.6-12.1 25.7l50-4.4c-4.7-4.6-6.6-11.4-4.6-24.3l12.6-83.3s4.1-.5 12.5-1.1c8.4-.7 15.2.2 19.6 6.5l4.4-29.2s-98.6 8.7-100.1 8.8l-4.4 29.2c8.6-7.7 16.6-9.7 22.1-10.2 5.6-.4 12.6-1 12.6-1zM629.1 323.1l1.4-.1 1.5 2.4h1.3l-1.6-2.7c.4-.2.7-.4.9-.7.2-.3.3-.7.3-1.2 0-.7-.2-1.2-.7-1.6-.4-.4-1.1-.6-1.9-.6h-2.4v6.7h1.2v-2.2zm0-3.3h1.1c.5 0 .9.1 1.2.3.3.2.4.5.4.9s-.1.6-.3.9c-.2.2-.6.3-1.2.3h-1.1v-2.4z"/><path class="st0" d="M487.8 294.6c-4.1 29.5 13.7 47.4 40.4 44.9 28.5-2.6 50.7-20.1 55.6-53.6 4-26.9-15.2-44.4-41.4-41.9-26.4 2.4-50.1 18.5-54.6 50.6zm52.4-36c26-2.5 16.6 63.9-10 66.4-23.8 2.3-18.7-63.7 10-66.4zM188.3 260.6s4.1-.5 12.5-1.1c8.4-.7 15.2.2 19.6 6.5l4.4-29.2s-98.6 8.7-100.1 8.8l-4.4 29.2c8.6-7.7 16.6-9.7 22.1-10.2s12.5-1.1 12.5-1.1l-12.6 83.3c-2 13.2-6 21.6-12.1 25.7l50-4.4c-4.7-4.6-6.6-11.4-4.6-24.3l12.7-83.2z"/><path class="st0" d="M286.6 376.8c9.8-1.3 17.7-5 21-7.5 0 0-16.7 1.4-29.7-9.7l56.6-5L337 338s-5.6 4.6-13.1 5.3c-6.3.5-17.2 1.5-20.9 1.8l.6-4.2 3.8-25 8.3-.7c6.1-.5 10.5 1.1 11.9 3.1l2.5-16.7-20.8 1.8 3.8-25 12.5-1.1c6.1-.5 10.5 1.1 11.9 3.1l2.5-16.7-58.4 5.1c1.6 4 2.8 8.4 1.7 16.3l-8.8 58.3c-.5 3.6-1.5 6.7-2.7 9.4-.6-.9-1.3-1.9-1.9-2.9-9.8-16.8-10.3-17.5-17.5-31.9 27.7-12.2 27.5-49-4.1-46.3-30.8 2.7-43.3 3.8-43.3 3.8l-2.5.2c1.6 4 2.8 8.4 1.7 16.3l-8.8 58.3c-1.1 7.3-4 12.6-6.7 17l37.5-3.3c-1.7-4-2.7-9-1.6-16.3 1-6.9 3.2-20.8 3.2-20.8 5.4 11.9 9.4 19.9 14.2 29.9 5.6 11.7 14 17.4 22.7 19.6 4.8 1.4 13.9 1.5 21.9.4zm-57.1-62.3 4.4-29.2 4.2-.4c18.5-1.4 8 28.2-8.6 29.6zM640.3 237.3c-30.8 2.7-43.3 3.8-43.3 3.8l-2.5.2c1.6 4 2.8 8.4 1.7 16.3l-8.8 58.3c-1.1 7.3-4 12.6-6.7 17l37.5-3.3c-1.7-4-2.7-9-1.6-16.3.7-4.4 2.5-16.7 3.8-25 1.3 0 14.1-.1 24.2-4.8 27.6-12.1 27.4-48.9-4.3-46.2zm-18.8 42.8 4.4-29.2 4.2-.4c18.4-1.5 8 28.1-8.6 29.6z"/><path class="st0" d="M627.9 328c.8.3 1.6.5 2.5.5.9 0 1.7-.2 2.5-.5s1.4-.8 2-1.3c.6-.6 1-1.2 1.4-2 .3-.8.5-1.6.5-2.5 0-.9-.2-1.7-.5-2.5s-.8-1.4-1.4-2c-.6-.6-1.3-1-2-1.4-.8-.3-1.6-.5-2.5-.5s-1.7.2-2.5.5-1.4.8-2 1.3c-.6.6-1 1.2-1.4 2-.3.8-.5 1.6-.5 2.5 0 .9.2 1.7.5 2.5s.8 1.5 1.4 2c.5.6 1.2 1.1 2 1.4zm-3-5.9c0-.8.1-1.5.4-2.1.3-.7.7-1.2 1.2-1.7s1.1-.9 1.7-1.2c.7-.3 1.4-.4 2.1-.4.8 0 1.5.2 2.1.5.7.3 1.2.7 1.7 1.2s.9 1.1 1.2 1.8c.3.7.4 1.4.4 2.1 0 .7-.1 1.4-.4 2.1-.3.7-.7 1.2-1.2 1.7s-1.1.9-1.7 1.2c-.6.3-1.4.4-2.1.4-.8 0-1.5-.2-2.1-.5-.7-.3-1.2-.7-1.7-1.2s-.9-1.1-1.2-1.8c-.2-.6-.4-1.3-.4-2.1z"/><path class="st1" d="M340.8 378.4c1.2-1 2.7-1.7 4.5-1.8 1.2-.1 2.3 0 3 .2-.8-.2-1.9-.3-3.1-.2-1.7.1-3.3.8-4.4 1.8-1.5 1.3-2.5 3.5-2.5 6 0 2.2 1 3.6 2.7 4-1.7-.4-2.7-1.7-2.7-4 0-2.5.9-4.7 2.5-6zM349 377l1.1-3.3c-.2-.1-.4-.1-.7-.2.3.1.5.1.7.2L349 377zM342.4 391.7c2.2-.2 4.4-.9 5.7-1.5l1.6-9.5-1.6 9.5c-1.4.6-3.5 1.3-5.7 1.5zM360.8 380.4h-.6c-2.4.2-3.5 2.5-3.9 5l-.8 4.9-3.8.3 3.8-.3.8-4.9c.4-2.6 1.5-4.8 3.9-5h.6l.7-3.8-.7 3.8zM356.6 380c.1-.9.1-1.8.2-2.7 0 .9-.1 1.8-.2 2.7z"/><path class="st1" d="M342.9 388.4c.9-.1 1.5-.3 1.9-.5l.6-3.8-.6 3.8c-.4.3-1 .5-1.9.5-.7.1-1.3 0-1.9-.1.6.2 1.2.2 1.9.1zM334.2 385c-.1-3.3 1.2-6.3 3.5-8.4 2-1.8 4.7-3 7.8-3.3 1.7-.1 3.1 0 4 .2-.9-.2-2.3-.3-4-.2-3.1.3-5.8 1.4-7.8 3.3-2.3 2.1-3.6 5.1-3.5 8.4 0 2.3.9 4.2 2.3 5.3.7.6 1.6 1 2.6 1.2-1-.2-1.9-.6-2.6-1.2-1.5-1.1-2.3-3-2.3-5.3z"/><path class="st1" d="m349.7 380.7-6.4.6-.6 3.1.6-3.1zM349 377c-.2-.1-.4-.1-.7-.2.2 0 .5.1.7.2zM353.6 377.6l3.3-.3-3.3.3c-.1 1.1-.2 3.3-.6 5.3l-1.3 7.8 1.3-7.8c.3-2 .4-4.1.6-5.3zM356.7 380c.9-1.8 2.3-3.1 4-3.3h.7-.7c-1.7.2-3.1 1.5-4 3.3-.1 0-.1 0 0 0z"/><g><path class="st2" d="M500.7 374.9c1.1-.1 2.4-1.4 2.9-3.9l.6-3.5c-.3-.2-.9-.4-1.5-.3-2.3.2-3.8 3-3.8 5.4 0 1.5.7 2.4 1.8 2.3zM489.6 369.3c0-.6-.5-1-1.4-1-1.8.2-2.8 1.7-3 2.9 3-.2 4.5-.7 4.4-1.9zM605.1 357.8c.1-.4.1-.9.1-1.4 0-1.4-.7-2.4-2.1-2.3-1.5.1-2.7 2-2.7 3.7 0 1.4.8 2.2 2 2.1 1-.1 1.8-.7 2.3-1.3.2-.2.4-.5.4-.8zM616.9 364.8c1.8-.2 2.7-2.3 2.7-3.9 0-1.5-.9-2.3-2.1-2.2-1 .1-1.9.8-2.4 1.8-.2.3-.3.6-.3.9v.9c0 1.5.8 2.6 2.1 2.5zM573.7 361.9c0-.6-.5-1-1.4-1-1.8.2-2.8 1.7-3 2.9 3-.2 4.4-.7 4.4-1.9zM631.5 363.4c2.6-.2 3.7-6.9 3.6-9.1 0-1.2-.2-2.9-1.7-2.8-2.5.2-3.7 6.5-3.7 9 .1 1.4.3 3.1 1.8 2.9zM435.5 380.5c1.1-.1 2.1-.7 2.9-1.6 1.4-1.5 2.1-4.5 2-6.6 0-2.2-.9-4.3-3.6-4-1.2.1-2.2.7-3 1.6-1.4 1.5-2.1 4.4-2.1 6.5.1 2.5 1.2 4.3 3.8 4.1zM368.1 386.6c2-.2 3.1-3.3 3.1-5.5 0-1.2-.6-2.4-2.1-2.3-2.2.2-3.2 3.5-3.2 5.5.2 1.5.9 2.5 2.2 2.3zM404.8 376.7c0-.6-.5-1-1.4-1-1.8.2-2.8 1.7-3 2.9 3-.2 4.4-.7 4.4-1.9z"/><path class="st2" d="m664.7 338-337.2 29.6c-13.3 12.5-31.2 20.1-51 19.9-6.1-.1-12-.9-17.7-2.3 12.8 12.2 35.6 18.2 67.2 15.4l321.8-28.3c2.1-14.7 8.3-26.1 16.9-34.3zm-321.8 50.4c.9-.1 1.5-.3 1.9-.5l.6-3.8-2.7.2.6-3.1 6.4-.6-1.6 9.5c-1.3.6-3.5 1.3-5.7 1.5-2.4.2-4.4-.2-5.9-1.4-1.4-1.1-2.3-3-2.3-5.3-.1-3.3 1.2-6.3 3.5-8.4 2-1.8 4.7-3 7.8-3.3 2.3-.2 4 .1 4.7.4L349 377c-.8-.3-2.2-.5-3.8-.4-1.8.2-3.3.8-4.5 1.8-1.5 1.3-2.5 3.5-2.5 6 .1 2.9 1.9 4.3 4.7 4zm17.9-8h-.6c-2.4.2-3.5 2.5-3.9 5l-.8 4.9-3.8.3 1.3-7.8c.3-2 .5-4.2.6-5.3l3.3-.3c-.1.9-.1 1.7-.2 2.7h.1c.9-1.8 2.3-3.1 4-3.3h.7l-.7 3.8zm6.8 9.2c-3.2.3-5.5-1.7-5.5-4.9-.1-4.5 3-8.4 7.5-8.8 3.4-.3 5.5 1.9 5.5 4.8.1 4.8-3 8.5-7.5 8.9zm22.7-2.3-3.5.3-.4-4.4c-.1-1.4-.1-2.6-.2-4.1h-.1c-.7 1.9-1 2.9-1.5 4.1l-2.1 4.9-3.6.3-1.4-12.8 3.8-.3.1 5.5c0 1.5 0 2.7-.1 4.1h.1c.4-1.4 1-2.7 1.5-4.1l2.4-5.8 3.1-.3.4 5.4c.1 1.5.1 2.8.1 4.2h.1c.4-1.5.8-2.8 1.3-4.3l2.1-5.5 3.8-.3-5.9 13.1zm9.8-5.8c0 .4.2.9.4 1.3.5.6 1.4.9 2.5.8 1.4-.1 2.6-.5 3.6-1.1l.3 2.7c-1.5.9-3.3 1.3-4.8 1.4-3.6.3-5.6-1.6-5.6-5-.1-3.9 2.7-8.3 7.3-8.7 2.6-.2 4.5 1.1 4.5 3.5.1 3.3-3 4.7-8.2 5.1zm19-6.2h-.6c-2.4.2-3.5 2.5-3.9 5l-.8 4.9-3.8.3 1.3-7.8c.3-2 .5-4.2.6-5.3l3.3-.3c-.1.9-.1 1.7-.2 2.7h.1c.9-1.8 2.3-3.1 4-3.3h.7l-.7 3.8zm22.4 5.3c-1.6 1.8-3.8 2.9-6.5 3.1-4.6.4-7.2-2.6-7.3-6.8-.1-3.2 1.1-6.5 3.1-8.7 1.6-1.7 3.9-2.9 6.4-3.1 4.7-.4 7.2 2.5 7.2 6.8.1 3.2-.9 6.5-2.9 8.7zm18.1.6-3.5.3-.4-4.4c-.1-1.4-.1-2.6-.2-4.1h-.1c-.7 1.9-1 2.9-1.5 4.1l-2.1 4.9-3.6.3-1.4-12.8 3.8-.3.1 5.5c0 1.5 0 2.7-.1 4.1h.1c.4-1.4 1-2.7 1.5-4.1l2.4-5.8 3.1-.3.4 5.4c.1 1.5.1 2.8.1 4.2h.1c.4-1.5.8-2.8 1.3-4.3l2.1-5.5 3.8-.3-5.9 13.1zm19.1-9.1-1.3 7.6-3.8.3 1.2-7.3c.1-.5.1-1 .1-1.4 0-.9-.3-1.5-1.3-1.4-1.2.1-2.6 1.8-3.1 4.7l-1 5.8-3.8.3 1.5-8.8c.3-1.7.5-3.1.6-4.2l3.3-.3-.2 2.2h.1c1.2-1.8 2.7-2.7 4.4-2.8 2.1-.2 3.3 1 3.4 3.2.1.5 0 1.4-.1 2.1zm6.2 1.9c0 .4.2.9.4 1.3.5.6 1.4.9 2.5.8 1.4-.1 2.6-.5 3.6-1.1l.3 2.7c-1.5.9-3.3 1.3-4.8 1.4-3.6.3-5.6-1.6-5.6-5-.1-3.9 2.7-8.3 7.3-8.7 2.6-.2 4.5 1.1 4.5 3.5.1 3.3-3 4.8-8.2 5.1zm22.1-1.9c-.3 1.7-.5 3.5-.5 5.1l-3.5.3.2-2.1h-.1c-1.1 1.8-2.7 2.6-4.2 2.7-2.2.2-4-1.4-4-4.5-.1-4.5 3.1-8.9 7.9-9.3.5 0 1.2 0 1.8.2l1-5.9 3.7-.3-2.3 13.8zm17.8-7c2.2.9 3.5 2.2 3.6 4.4.1 4-3.2 6.3-7.1 6.6-2.5.2-4.2-.3-5.1-.8l1.2-3.2c1.1.5 2.6.9 4.2.8 1.5-.1 2.8-.9 2.8-2.3 0-1-.8-1.6-2.4-2.3-1.9-.8-3.7-2.1-3.7-4.4-.1-3.6 3-6 6.8-6.4 2.1-.2 3.4.2 4.2.5l-1.1 3.3c-.6-.3-1.8-.6-3.3-.5-1.8.2-2.7 1.1-2.7 2.1.1.9 1.1 1.5 2.6 2.2zm9.4 9.6-3.8.3 2.2-13.1 3.8-.3-2.2 13.1zm.8-14.6c-1.1.1-1.9-.6-1.9-1.7 0-1.3 1-2.2 2.1-2.4 1.1-.1 1.9.6 1.9 1.7.1 1.4-.9 2.3-2.1 2.4zm15.9 5.6-1.3 7.6-3.8.3 1.2-7.3c.1-.5.1-1 .1-1.4 0-.9-.3-1.5-1.3-1.4-1.2.1-2.6 1.8-3.1 4.7l-1 5.8-3.8.3 1.5-8.8c.3-1.7.5-3.1.6-4.3l3.3-.3-.2 2.2h.1c1.2-1.8 2.7-2.7 4.4-2.8 2.1-.2 3.3 1 3.4 3.2.1.6 0 1.6-.1 2.2zm12.6-3.4c-.4-.1-1-.2-1.7-.2-2.7.2-4.3 2.7-4.3 5.1 0 1.8 1.2 2.6 2.6 2.4 1.1-.1 1.9-.4 2.5-.8l.1 2.9c-.8.5-2.1.9-3.6 1-3.2.3-5.4-1.5-5.5-4.8-.1-4.6 3.4-8.5 8.2-8.9 1.1-.1 2 0 2.6.2l-.9 3.1zm5.5 4.4c0 .4.2.9.4 1.3.5.6 1.4.9 2.5.8 1.4-.1 2.6-.5 3.6-1.1l.3 2.7c-1.5.9-3.3 1.3-4.8 1.4-3.6.3-5.6-1.6-5.6-5-.1-3.9 2.7-8.3 7.3-8.7 2.6-.2 4.5 1.1 4.5 3.5.1 3.3-3 4.7-8.2 5.1zm22.3 3-3.6.3 2.3-13.8h-.1l-3.3 1.8-.2-2.9 4.7-2.5 3.1-.3-2.9 17.4zm13.6-3.3c-1.7 1.5-4.1 2.6-6.4 2.9-1 .1-1.5.2-2 .2l.4-3.1c.4 0 .9-.1 1.6-.1 1.2-.2 2.3-.7 3.3-1.4 1.2-.9 2.2-2.1 2.7-3.4h-.1c-.8.9-2.1 1.4-3.2 1.5-2.7.2-4.6-1.5-4.6-4.2-.1-3.7 3-7.1 6.8-7.5 3.8-.3 5.6 2.1 5.6 5.5.1 3.9-1.9 7.6-4.1 9.6zm11.9 1.3c-3.8.3-5.7-2.1-5.8-5.5-.1-3.9 1.7-7.4 4.1-9.5 1.9-1.7 4.4-2.8 6.9-3.1.7-.1 1-.1 1.4-.1l-.5 3.1c-.4 0-.8.1-1.4.2-3.1.6-5.1 2.5-6 4.6h.1c.9-.9 2.1-1.5 3.5-1.6 2.5-.2 4.4 1.6 4.4 4.4.1 3.6-2.7 7.2-6.7 7.5zm14.3-1.2c-3.6.3-5-2.3-5-5.7-.1-5.4 2.6-11.8 7.8-12.2 3.6-.3 4.9 2.4 5 5.4 0 5.3-2.5 12-7.8 12.5z"/></g></svg>