<svg version="1.1" id="Layer_1" xmlns="http://www.w3.org/2000/svg" x="0" y="0" width="434" height="384" style="enable-background:new 0 0 434 384" xml:space="preserve"><style>.st0{fill:none}.st1{fill:#1c5741}.st2{fill:#fff}.st3{fill:#272158}</style><path class="st0" d="M143.9 181.1c.2 0 .4 0 .5-.1-.8-.4-1.3-.7-1.3-.7l.8.8zM289.5 181.1c.2 0 .4 0 .6.1l.8-.8s-.5.2-1.4.7z"/><path class="st1" d="M206.5 151c2.7-14.7 7.2-32.7 10.5-44.3 3.3 11.7 7.7 29.6 10.5 44.3 5.5-6.4 11.6-14.2 13.7-19.4 5.8-14.5-12.8-64.7-24.2-105.2-11.4 40.5-30 90.7-24.2 105.2 2.1 5.3 8.2 13 13.7 19.4zM273.2 166.7c6.8-7.3 30.5-85.1 30.5-85.1s-56.6 61.6-66.1 73.8c-3.3 4.3-1.7 11.2.8 17.2 9.6-10.9 29.6-32.7 29.6-32.7s-8 26.2-12.9 38.1c.6 0 1.2.1 1.9.1 6.1-3.5 12.9-7.8 16.2-11.4zM166 139.9s20 21.8 29.6 32.7c2.5-6 4.1-12.9.8-17.2-9.4-12.2-66.1-73.8-66.1-73.8s23.7 77.8 30.5 85.1c3.3 3.6 10.1 7.9 16.2 11.4.6 0 1.3-.1 1.9-.1-4.9-12-12.9-38.1-12.9-38.1zM290.9 180.3l-.8.8c4.5.5 8.9 1.1 13.2 1.7 21.4-18.3 45.1-41.4 45.1-41.4s-44.7 23.2-72.1 38.2c4.4.4 8.8.9 13.2 1.4.9-.4 1.4-.7 1.4-.7zM143.1 180.3s.5.2 1.3.7c4.3-.5 8.7-1 13.2-1.4-27.4-15-72-38.2-72-38.2s23.6 23 45 41.3c4.4-.6 8.8-1.1 13.3-1.6l-.8-.8z"/><path class="st2" d="M257 178.1c-.6 0-1.2-.1-1.9-.1-.2.5-.4 1.1-.6 1.5.8-.4 1.6-.9 2.5-1.4zM178.9 178c-.6 0-1.3.1-1.9.1.9.5 1.7 1 2.6 1.4-.3-.4-.5-1-.7-1.5z"/><path class="st3" d="M64.1 233.4c0-3.4-.3-8.7-.5-9.2.5-.2 3.8-.8 7.2-.8 3.4 0 6.7.7 7.2.8-.2.5-.5 5.9-.5 9.2v24.1c0 19.9 7 22.3 20.1 22.3 3.4 0 5.1-.4 6.7-1v-45.4c0-3.4-.3-8.7-.5-9.2.5-.2 3.8-.8 7.2-.8 3.4 0 6.7.7 7.2.8-.2.5-.5 5.9-.5 9.2v42.3l-4.6 1.1c4.5 1.8 5.1 3 11.3 3 13.1 0 20.1-2.3 20.1-22.3v-24.1c0-3.4-.3-8.7-.5-9.2.5-.2 3.9-.8 7.2-.8 3.3 0 6.7.7 7.2.8-.2.5-.5 5.9-.5 9.2v27.1c0 19.4-10.7 31-30.2 31-6 0-10.5-1.3-16.8-2-6.3.7-10.8 2-16.8 2-19.4 0-30.2-11.6-30.2-31v-27.1zM188.9 251.8l25.1.5v-1.5c0-12.9-9.4-16.3-20.8-16.3-6.6 0-13.8 2.9-19.1 5.1l-3.8-12.9c2.4-1 14-3.9 25.7-3.9 19.4 0 31.2 8.2 31.3 27.6v30.5c0 3.2.2 7.4.5 9h-1.2c-10.9 0-30.1 1.5-37.9 1.5-15.3 0-23.5-6.2-23.5-19.3.3-13.5 8.5-20.3 23.7-20.3zm3.4 28c5 0 14.9-.8 21.8-2v-12.9l6.6-2.7h-28.8c-8.2 0-12.2 4.6-12.2 10.1 0 4.8 4.4 7.5 12.6 7.5zM240.1 233.4c0-3.3-.3-8.3-.5-9.1h1.1c10.3-.1 21.8-1.5 29.6-1.5 18.1 0 30.2 11 30.2 27.6v30.5c0 3.3.3 8.7.5 9.2-.5.2-3.9.8-7.2.8-3.4 0-6.7-.7-7.2-.8.2-.5.5-5.9.5-9.2v-25.8c0-13.4-7-20.6-20.1-20.6-6.3 0-12.8 1.2-18 3.1 1.5.4 3.1.7 4.6 1.1V281c0 3.3.3 8.7.5 9.2-.5.2-3.9.8-7.2.8-3.4 0-6.7-.7-7.2-.8.2-.5.5-5.9.5-9.2v-47.6zM331.4 251.8l25.1.5v-1.5c0-12.9-9.4-16.3-20.8-16.3-6.6 0-13.8 2.9-19.1 5.1l-3.8-12.9c2.4-1 14-3.9 25.7-3.9 19.4 0 31.2 8.2 31.3 27.6v30.5c0 3.2.2 7.4.5 9h-1.2c-10.9 0-30.1 1.5-37.9 1.5-15.3 0-23.5-6.2-23.5-19.3.2-13.5 8.4-20.3 23.7-20.3zm3.4 28c5 0 14.9-.8 21.8-2v-12.9l6.6-2.7h-28.8c-8.2 0-12.2 4.6-12.2 10.1 0 4.8 4.4 7.5 12.6 7.5zM53.7 209.2s1.2-.4 3.5-1.1c2.3-.7 5.7-1.8 10-3.1 4.4-1.3 9.6-2.8 15.7-4.4 6.1-1.6 13-3.3 20.6-4.9 3.8-.9 7.8-1.6 11.9-2.5 4.1-.8 8.4-1.6 12.8-2.3 4.4-.7 8.9-1.5 13.6-2.1 4.6-.7 9.4-1.3 14.2-1.9 9.7-1.2 19.7-2.1 29.9-2.7 2.6-.1 5.1-.3 7.7-.4l7.8-.3c2.6-.1 5.2-.2 7.8-.2 2.6 0 5.2-.1 7.9-.1 2.6 0 5.2.1 7.7.1l3.9.1 3.9.1 7.8.3c2.6.1 5.1.3 7.7.4 10.2.6 20.3 1.6 29.9 2.7 4.8.6 9.6 1.2 14.2 1.9s9.2 1.4 13.6 2.1c4.4.8 8.7 1.6 12.8 2.3 4.1.9 8.1 1.6 11.9 2.5 7.6 1.7 14.5 3.3 20.6 4.9 6.1 1.6 11.4 3.1 15.7 4.4 4.4 1.2 7.7 2.4 10 3.1 2.3.7 3.5 1.1 3.5 1.1s-1.3-.2-3.7-.5c-2.4-.3-5.9-.8-10.4-1.4-2.2-.3-4.7-.6-7.4-1s-5.6-.7-8.7-1.2c-3.1-.4-6.4-.9-9.9-1.3-3.5-.5-7.2-.9-11-1.4-7.6-.9-15.9-1.9-24.7-2.7-4.4-.4-8.9-.9-13.5-1.3-2.3-.2-4.6-.4-7-.6-2.3-.2-4.7-.4-7.1-.5-2.4-.2-4.8-.3-7.2-.5-2.4-.2-4.9-.3-7.3-.5-2.5-.1-4.9-.2-7.4-.4s-5-.3-7.5-.3c-2.5-.1-5-.2-7.6-.3-2.5-.1-5-.1-7.6-.2l-3.8-.1h-3.9c-2.6 0-5.2 0-7.7-.1l-7.6.1c-2.5 0-5.1 0-7.6.1s-5.1.1-7.6.2-5.1.2-7.6.3l-7.5.3c-2.5.1-5 .2-7.4.4-2.5.2-4.9.3-7.3.5-2.4.2-4.8.3-7.2.5-2.4.2-4.8.4-7.1.5-2.3.2-4.7.4-7 .6-4.6.4-9.1.9-13.5 1.3-8.8.9-17.1 1.8-24.7 2.7-3.8.5-7.5.9-11 1.4-3.5.4-6.8.9-9.9 1.3-3.1.4-6 .8-8.7 1.2-2.7.4-5.2.7-7.4 1-4.5.6-8 1.1-10.4 1.4-2.4.4-3.7.5-3.7.5zM69.6 313.4h16.9v3.6H73.7v10.4H85v3.6H73.7v5.5H87v3.6H69.6v-26.7zM91.5 323.6h4l-.1 3.1c1-2.2 3.1-3.4 5.6-3.4 3.6 0 6.2 2.6 6.2 7.1v9.8h-4v-9.5c0-2.4-1.1-3.7-3.4-3.7-2.6 0-4.3 1.6-4.3 4.2v8.9h-4v-16.5zM112 311.7h4v14.7c1.1-2 3-3.3 5.5-3.3 3.6 0 6.2 2.6 6.2 7.1v9.8h-4v-9.5c0-2.4-1.1-3.7-3.4-3.7-2.6 0-4.3 1.6-4.3 4.2v8.9h-4v-28.2zM139.1 326.5c-2.2 0-3.4.9-4.3 2l-2.3-2.3c1.5-1.7 3.4-2.9 6.9-2.9 4 0 6.9 2.2 6.9 7.1v9.7h-4l.1-2.4c-1.2 1.8-2.7 2.7-5.2 2.7-3.3 0-5.9-1.5-5.9-5.2 0-3.4 2.7-4.9 6.5-4.9h4.5c.1-2.7-1.1-3.8-3.2-3.8zm-.9 6.5c-1.7 0-2.9.6-2.9 2.1 0 1.4 1.1 2.2 3.1 2.2 2.3 0 4-1.1 4-2.9V333h-4.2zM151.2 323.6h4l-.1 3.1c1-2.2 3.1-3.4 5.6-3.4 3.6 0 6.2 2.6 6.2 7.1v9.8h-4v-9.5c0-2.4-1.1-3.7-3.4-3.7-2.6 0-4.3 1.6-4.3 4.2v8.9h-4v-16.5zM170.9 331.8c0-4.9 3.8-8.6 8.8-8.6 3.1 0 5.1 1.2 6.7 3.1l-2.8 2.3c-.8-1.1-2.2-1.9-3.8-1.9-2.9 0-4.7 2.2-4.7 5.1 0 2.9 1.8 5.1 4.7 5.1 2 0 3.1-.8 4-1.8l2.7 2.4c-1.6 1.8-3.6 3-6.7 3-5.2-.1-8.9-3.7-8.9-8.7zM198.4 337.1c2.2 0 3.7-.9 4.7-1.8l2.3 2.4c-1.5 1.5-3.6 2.7-6.9 2.7-5.6 0-9.3-3.6-9.3-8.6 0-4.9 3.8-8.6 8.8-8.6 5.6 0 8.8 4.2 8.5 9.9h-13.3c.5 2.4 2.2 4 5.2 4zm4-6.7c-.4-2.2-1.7-3.9-4.5-3.9-2.5 0-4.3 1.4-4.8 3.9h9.3zM228.4 331.6l-10.1-18.2h4.6l6 11c.8 1.5 1.6 3.8 1.6 3.8s.8-2.4 1.6-3.8l5.8-11h4.3l-9.7 18v8.7h-4.2v-8.5zM239.7 331.8c0-4.9 3.9-8.6 8.9-8.6s8.9 3.7 8.9 8.6c0 4.9-3.8 8.6-8.9 8.6-5 0-8.9-3.7-8.9-8.6zm13.7 0c0-3-1.8-5.1-4.8-5.1-2.9 0-4.8 2.1-4.8 5.1 0 3 1.9 5.2 4.8 5.2s4.8-2.2 4.8-5.2zM261.5 333.4v-9.8h4v9.5c0 2.4 1.1 3.7 3.4 3.7 2.6 0 4.2-1.6 4.2-4.3v-8.9h4V340h-4l.1-3c-1 2.1-3 3.4-5.5 3.4-3.7 0-6.2-2.5-6.2-7zM282 323.6h4v3.1c1.1-2.6 3-3.4 4.8-3.4 1.2 0 2 .3 2.7.7l-1.3 3.6c-.6-.3-1.3-.5-2.2-.5-2.4 0-4 1.4-4 5.1v8h-4v-16.6zM306.3 313.4h4.2v23h12.3v3.6h-16.5v-26.6zM326.5 317.2c0-1.5 1.2-2.6 2.6-2.6 1.4 0 2.6 1.1 2.6 2.6 0 1.6-1.2 2.6-2.6 2.6-1.4 0-2.6-1-2.6-2.6zm.6 6.4h4V340h-4v-16.4zM337.7 326.9H335v-3.3h2.7v-6.5c0-4 1.9-5.8 5.3-5.8 2.2 0 3.6.7 4.7 2l-2.4 2.5c-.5-.5-1-1-1.9-1-1 0-1.7.6-1.7 2.2v6.5h4.4v3.3h-4.4V340h-4v-13.1zM357.9 337.1c2.2 0 3.7-.9 4.7-1.8l2.3 2.4c-1.5 1.5-3.6 2.7-6.9 2.7-5.6 0-9.3-3.6-9.3-8.6 0-4.9 3.8-8.6 8.8-8.6 5.6 0 8.8 4.2 8.5 9.9h-13.3c.5 2.4 2.2 4 5.2 4zm4-6.7c-.4-2.2-1.7-3.9-4.5-3.9-2.5 0-4.3 1.4-4.8 3.9h9.3z"/></svg>