<svg version="1.1" id="Layer_1" xmlns="http://www.w3.org/2000/svg" x="0" y="0" width="612" height="792" style="enable-background:new 0 0 612 792" xml:space="preserve"><style>.st0{fill:#ed1c24}.st1,.st2,.st3,.st4{fill-rule:evenodd;clip-rule:evenodd}.st2,.st3,.st4{fill:#fdb525}.st3,.st4{fill:#bd1933}.st4{fill:#fff}</style><path class="st0" d="M415.6 546v-17.2h11.8v2.9h-8.3v4.1h7.2v2.9h-7.2v7.3h-3.5zM431.1 528.8h3.5v9.3c0 1.5 0 2.4.1 2.9.1.7.5 1.3 1.1 1.7s1.3.6 2.3.6c1 0 1.7-.2 2.2-.6s.8-.9.9-1.5.2-1.6.2-2.9v-9.5h3.5v9c0 2.1-.1 3.5-.3 4.4s-.5 1.6-1 2.2-1.2 1.1-2 1.4-1.9.5-3.3.5c-1.6 0-2.9-.2-3.7-.6s-1.5-.9-2-1.5-.8-1.2-1-1.9c-.2-1-.3-2.4-.3-4.4v-9.1zM449.4 546v-17h3.5v14.1h8.6v2.9h-12.1zM464.9 546v-17h3.5v14.1h8.6v2.9h-12.1zM497.5 539.7l3.4 1.1c-.5 1.9-1.4 3.3-2.6 4.2s-2.7 1.4-4.6 1.4c-2.3 0-4.2-.8-5.6-2.3s-2.2-3.7-2.2-6.4c0-2.9.7-5.1 2.2-6.7s3.4-2.4 5.8-2.4c2.1 0 3.8.6 5.1 1.9.8.7 1.4 1.8 1.8 3.2l-3.4.8c-.2-.9-.6-1.6-1.3-2.1s-1.4-.8-2.3-.8c-1.3 0-2.3.5-3.1 1.4s-1.2 2.4-1.2 4.4c0 2.2.4 3.7 1.2 4.6s1.8 1.4 3 1.4c.9 0 1.7-.3 2.4-.9s1.1-1.5 1.4-2.8zM504 537.5c0-1.8.3-3.2.8-4.4.4-.9.9-1.7 1.6-2.4s1.4-1.2 2.2-1.5c1.1-.5 2.3-.7 3.7-.7 2.5 0 4.6.8 6.1 2.4s2.3 3.8 2.3 6.6-.8 4.9-2.3 6.5-3.5 2.3-6 2.3c-2.6 0-4.6-.8-6.1-2.3s-2.3-3.7-2.3-6.5zm3.5-.1c0 1.9.4 3.4 1.3 4.4s2 1.5 3.4 1.5 2.5-.5 3.4-1.5 1.3-2.5 1.3-4.5-.4-3.4-1.3-4.4-2-1.5-3.4-1.5-2.6.5-3.5 1.5-1.2 2.5-1.2 4.5zM524.3 546v-17h3.5v14.1h8.6v2.9h-12.1zM539 537.5c0-1.8.3-3.2.8-4.4.4-.9.9-1.7 1.6-2.4s1.4-1.2 2.2-1.5c1.1-.5 2.3-.7 3.7-.7 2.5 0 4.6.8 6.1 2.4s2.3 3.8 2.3 6.6-.8 4.9-2.3 6.5-3.5 2.3-6 2.3c-2.6 0-4.6-.8-6.1-2.3s-2.3-3.7-2.3-6.5zm3.6-.1c0 1.9.4 3.4 1.3 4.4s2 1.5 3.4 1.5 2.5-.5 3.4-1.5 1.3-2.5 1.3-4.5-.4-3.4-1.3-4.4-2-1.5-3.4-1.5-2.6.5-3.5 1.5-1.2 2.5-1.2 4.5zM559.2 528.8h3.5v9.3c0 1.5 0 2.4.1 2.9.1.7.5 1.3 1.1 1.7s1.3.6 2.3.6c1 0 1.7-.2 2.2-.6s.8-.9.9-1.5.2-1.6.2-2.9v-9.5h3.5v9c0 2.1-.1 3.5-.3 4.4s-.5 1.6-1 2.2-1.2 1.1-2 1.4-1.9.5-3.3.5c-1.6 0-2.9-.2-3.7-.6s-1.5-.9-2-1.5-.8-1.2-1-1.9c-.2-1-.3-2.4-.3-4.4v-9.1zM577.4 546v-17.2h7.3c1.8 0 3.2.2 4 .5s1.5.9 2 1.6.8 1.7.8 2.7c0 1.3-.4 2.4-1.1 3.2s-1.9 1.4-3.4 1.6c.8.4 1.4.9 1.9 1.4s1.1 1.5 2 2.8l2.1 3.4h-4.1l-2.5-3.7c-.9-1.3-1.5-2.2-1.8-2.5s-.7-.6-1-.7-.9-.2-1.7-.2h-.7v7.2h-3.8zm3.5-9.9h2.6c1.7 0 2.7-.1 3.1-.2s.7-.4 1-.7.4-.8.4-1.3c0-.6-.2-1-.5-1.4s-.7-.6-1.3-.7c-.3 0-1.1-.1-2.5-.1H581v4.4zM415.7 572.8v-17h3.5v14.1h8.6v2.9h-12.1zM430.4 564.3c0-1.8.3-3.2.8-4.4.4-.9.9-1.7 1.6-2.4s1.4-1.2 2.2-1.5c1.1-.5 2.3-.7 3.7-.7 2.5 0 4.6.8 6.1 2.4s2.3 3.8 2.3 6.6-.8 4.9-2.3 6.5-3.5 2.3-6 2.3c-2.6 0-4.6-.8-6.1-2.3s-2.3-3.7-2.3-6.5zm3.6-.1c0 1.9.4 3.4 1.3 4.4s2 1.5 3.4 1.5 2.5-.5 3.4-1.5 1.3-2.5 1.3-4.5-.4-3.4-1.3-4.4-2-1.5-3.4-1.5-2.6.5-3.5 1.5-1.2 2.6-1.2 4.5zM458.6 566.5v-2.9h7.5v6.8c-.7.7-1.8 1.3-3.2 1.9s-2.8.8-4.2.8c-1.8 0-3.4-.4-4.7-1.1s-2.3-1.8-3-3.2-1-2.9-1-4.6c0-1.8.4-3.4 1.1-4.8s1.8-2.5 3.3-3.2c1.1-.6 2.5-.9 4.1-.9 2.1 0 3.8.4 5 1.3s2 2.1 2.3 3.7l-3.4.6c-.2-.8-.7-1.5-1.4-2s-1.5-.7-2.5-.7c-1.5 0-2.7.5-3.6 1.4s-1.3 2.4-1.3 4.3c0 2 .5 3.6 1.4 4.6s2.1 1.5 3.6 1.5c.7 0 1.5-.1 2.2-.4s1.4-.6 1.9-1v-2.2h-4.1zM469.4 564.3c0-1.8.3-3.2.8-4.4.4-.9.9-1.7 1.6-2.4s1.4-1.2 2.2-1.5c1.1-.5 2.3-.7 3.7-.7 2.5 0 4.6.8 6.1 2.4s2.3 3.8 2.3 6.6-.8 4.9-2.3 6.5-3.5 2.3-6 2.3c-2.6 0-4.6-.8-6.1-2.3s-2.3-3.7-2.3-6.5zm3.6-.1c0 1.9.4 3.4 1.3 4.4s2 1.5 3.4 1.5 2.5-.5 3.4-1.5 1.3-2.5 1.3-4.5-.4-3.4-1.3-4.4-2-1.5-3.4-1.5-2.6.5-3.5 1.5-1.2 2.6-1.2 4.5zM498.7 572.8l-4.1-17.2h3.6l2.6 11.8 3.1-11.8h4.1l3 12 2.6-12h3.5l-4.2 17.2h-3.7l-3.4-12.8-3.4 12.8h-3.7zM519.8 572.8v-17.2h3.5v6.8h6.8v-6.8h3.5v17.2h-3.5v-7.5h-6.8v7.5h-3.5zM537.8 572.8v-17.2h3.5v17.2h-3.5zM549.3 572.8v-14.3h-5.1v-2.9h13.7v2.9h-5.1v14.3h-3.5zM561 572.8v-17.2h12.7v2.9h-9.3v3.8h8.6v2.9h-8.6v4.7h9.6v2.9h-13zM415.6 582.5h6.9c1.4 0 2.4.1 3 .2s1.3.3 1.8.7 1 .8 1.3 1.4.5 1.3.5 2c0 .8-.2 1.5-.7 2.2s-1 1.2-1.8 1.5c1 .3 1.9.8 2.4 1.6s.8 1.6.8 2.6c0 .8-.2 1.5-.5 2.3s-.9 1.3-1.5 1.8-1.4.7-2.3.8c-.6.1-2 .1-4.2.1h-5.8v-17.2zm3.5 2.8v4h2.3c1.4 0 2.2 0 2.5-.1.6-.1 1.1-.3 1.4-.6s.5-.8.5-1.3-.1-1-.4-1.3-.7-.5-1.3-.6c-.3 0-1.3-.1-3-.1h-2zm0 6.9v4.6h3.2c1.3 0 2 0 2.4-.1.5-.1.9-.3 1.3-.7s.5-.8.5-1.5c0-.5-.1-1-.4-1.3s-.6-.6-1.1-.8-1.5-.2-3.1-.2h-2.8zM449.2 599.6h-3.8l-1.5-3.9H437l-1.4 3.9H432l6.7-17.2h3.7l6.8 17.2zm-6.3-6.8-2.4-6.4-2.3 6.4h4.7zM462.9 593.3l3.4 1.1c-.5 1.9-1.4 3.3-2.6 4.2s-2.7 1.4-4.6 1.4c-2.3 0-4.2-.8-5.6-2.3s-2.2-3.7-2.2-6.4c0-2.9.7-5.1 2.2-6.7s3.4-2.4 5.8-2.4c2.1 0 3.8.6 5.1 1.9.8.7 1.4 1.8 1.8 3.2l-3.4.8c-.2-.9-.6-1.6-1.3-2.1s-1.4-.8-2.3-.8c-1.3 0-2.3.5-3.1 1.4s-1.2 2.4-1.2 4.4c0 2.2.4 3.7 1.2 4.6s1.8 1.4 3 1.4c.9 0 1.7-.3 2.4-.9s1.1-1.5 1.4-2.8zM470.1 599.6v-17.2h3.5v7.6l7-7.6h4.7l-6.5 6.7 6.8 10.5h-4.5l-4.7-8.1-2.8 2.9v5.2h-3.5zM496.3 593.3v-2.9h7.5v6.8c-.7.7-1.8 1.3-3.2 1.9s-2.8.8-4.2.8c-1.8 0-3.4-.4-4.7-1.1s-2.3-1.8-3-3.2-1-2.9-1-4.6c0-1.8.4-3.4 1.1-4.8s1.8-2.5 3.3-3.2c1.1-.6 2.5-.9 4.1-.9 2.1 0 3.8.4 5 1.3s2 2.1 2.3 3.7l-3.4.6c-.2-.8-.7-1.5-1.4-2s-1.5-.7-2.5-.7c-1.5 0-2.7.5-3.6 1.4s-1.3 2.4-1.3 4.3c0 2 .5 3.6 1.4 4.6s2.1 1.5 3.6 1.5c.7 0 1.5-.1 2.2-.4s1.4-.6 1.9-1v-2.2h-4.1zM507.8 599.6v-17.2h7.3c1.8 0 3.2.2 4 .5s1.5.9 2 1.6.8 1.7.8 2.7c0 1.3-.4 2.4-1.1 3.2s-1.9 1.4-3.4 1.6c.8.4 1.4.9 1.9 1.4s1.1 1.5 2 2.8l2.1 3.4h-4.1l-2.5-3.7c-.9-1.3-1.5-2.2-1.8-2.5s-.7-.6-1-.7-.9-.2-1.7-.2h-.7v7.2h-3.8zm3.5-9.9h2.6c1.7 0 2.7-.1 3.1-.2s.7-.4 1-.7.4-.8.4-1.3c0-.6-.2-1-.5-1.4s-.7-.6-1.3-.7c-.3 0-1.1-.1-2.5-.1h-2.7v4.4zM525.3 591.2c0-1.8.3-3.2.8-4.4.4-.9.9-1.7 1.6-2.4s1.4-1.2 2.2-1.5c1.1-.5 2.3-.7 3.7-.7 2.5 0 4.6.8 6.1 2.4s2.3 3.8 2.3 6.6-.8 4.9-2.3 6.5-3.5 2.3-6 2.3c-2.6 0-4.6-.8-6.1-2.3s-2.3-3.8-2.3-6.5zm3.5-.2c0 1.9.4 3.4 1.3 4.4s2 1.5 3.4 1.5 2.5-.5 3.4-1.5 1.3-2.5 1.3-4.5-.4-3.4-1.3-4.4-2-1.5-3.4-1.5-2.6.5-3.5 1.5-1.2 2.6-1.2 4.5zM545.5 582.5h3.5v9.3c0 1.5 0 2.4.1 2.9.1.7.5 1.3 1.1 1.7s1.3.6 2.3.6c1 0 1.7-.2 2.2-.6s.8-.9.9-1.5.2-1.6.2-2.9v-9.5h3.5v9c0 2.1-.1 3.5-.3 4.4s-.5 1.6-1 2.2-1.2 1.1-2 1.4-1.9.5-3.3.5c-1.6 0-2.9-.2-3.7-.6s-1.5-.9-2-1.5-.8-1.2-1-1.9c-.2-1-.3-2.4-.3-4.4v-9.1zM563.7 599.6v-17.2h3.4l7 11.5v-11.5h3.2v17.2h-3.5l-6.9-11.2v11.2h-3.2zM581.8 582.5h6.3c1.4 0 2.5.1 3.3.3 1 .3 1.9.8 2.6 1.6s1.3 1.7 1.6 2.8.6 2.5.6 4.1c0 1.4-.2 2.6-.5 3.7-.4 1.3-1 2.3-1.8 3-.6.6-1.4 1-2.4 1.4-.8.2-1.8.4-3.1.4h-6.5v-17.3zm3.5 2.9v11.4h2.6c1 0 1.7-.1 2.1-.2.6-.1 1-.4 1.4-.7s.7-.9.9-1.7.4-1.8.4-3.1-.1-2.3-.4-3.1-.6-1.3-1-1.7-1-.7-1.6-.8c-.5-.1-1.4-.2-2.8-.2h-1.6z"/><path class="st1" d="M61.9 623.1v-2.4h10.8v2.4h-4v10.8h-2.9v-10.8zM76.5 620.7v5h.1c.3-.6.8-1 1.3-1.2.5-.2 1-.4 1.5-.4.7 0 1.3.1 1.7.3.4.2.8.5 1.1.8.3.4.4.8.6 1.2.1.5.1 1 .1 1.6v5.9h-2.6v-5.4c0-.8-.1-1.4-.4-1.8-.2-.4-.7-.6-1.3-.6-.7 0-1.2.2-1.5.6-.3.4-.5 1.1-.5 2.1v5H74v-13.2h2.5zM87.6 631.6c.4.4 1 .6 1.7.6.5 0 1-.1 1.4-.4.4-.3.6-.5.7-.8h2.3c-.4 1.1-.9 2-1.7 2.5-.8.5-1.7.7-2.8.7-.8 0-1.4-.1-2-.4s-1.1-.6-1.5-1c-.4-.4-.7-1-1-1.6-.2-.6-.4-1.3-.4-2s.1-1.4.4-2c.2-.6.6-1.1 1-1.6.4-.4.9-.8 1.5-1.1.6-.3 1.3-.4 2-.4.8 0 1.5.1 2.1.5.6.3 1.1.7 1.5 1.3.4.5.7 1.1.8 1.8.2.7.2 1.4.2 2.1H87c0 .8.2 1.4.6 1.8zm3-5c-.3-.4-.8-.5-1.4-.5-.4 0-.8.1-1 .2-.3.1-.5.3-.7.5-.2.2-.3.4-.4.7-.1.2-.1.4-.1.6h4.3c-.2-.7-.4-1.2-.7-1.5zM105.1 626c-.4 0-.8.1-1.1.3-.3.2-.5.4-.7.7-.2.3-.3.6-.4 1-.1.4-.1.7-.1 1.1s0 .7.1 1.1c.1.4.2.7.4 1 .2.3.4.5.7.7.3.2.6.3 1 .3.6 0 1.1-.2 1.5-.5.3-.4.5-.8.6-1.4h2.5c-.2 1.3-.7 2.2-1.5 2.9-.8.7-1.8 1-3.1 1-.7 0-1.4-.1-2-.4-.6-.2-1.1-.6-1.5-1-.4-.4-.7-.9-1-1.5-.2-.6-.4-1.2-.4-2 0-.7.1-1.4.3-2.1.2-.6.5-1.2.9-1.6.4-.5.9-.8 1.5-1.1.6-.3 1.3-.4 2.1-.4.6 0 1.1.1 1.6.2s1 .4 1.4.7c.4.3.7.7 1 1.1.3.5.4 1 .4 1.6H107c-.1-1.1-.8-1.7-1.9-1.7zM111.2 627c.2-.6.6-1.1 1-1.6.4-.4.9-.8 1.5-1 .6-.2 1.3-.4 2-.4.8 0 1.4.1 2 .4.6.2 1.1.6 1.5 1 .4.4.8 1 1 1.6.2.6.4 1.3.4 2.1s-.1 1.5-.4 2.1c-.2.6-.6 1.1-1 1.6-.4.4-.9.8-1.5 1-.6.2-1.3.4-2 .4-.8 0-1.4-.1-2-.4-.6-.2-1.1-.6-1.5-1-.4-.4-.8-1-1-1.6-.2-.6-.4-1.3-.4-2.1s.1-1.5.4-2.1zm2.4 3.2c.1.4.2.7.4 1 .2.3.4.5.7.7.3.2.7.3 1.1.3.4 0 .8-.1 1.1-.3.3-.2.5-.4.7-.7.2-.3.3-.6.4-1 .1-.4.1-.7.1-1.1 0-.4 0-.8-.1-1.1-.1-.4-.2-.7-.4-1-.2-.3-.4-.5-.7-.7-.3-.2-.7-.3-1.1-.3-.4 0-.8.1-1.1.3-.3.2-.5.4-.7.7-.2.3-.3.6-.4 1-.1.4-.1.7-.1 1.1 0 .4 0 .8.1 1.1zM124.9 624.3v1.3h.1c.3-.6.8-1 1.3-1.2.5-.2 1.1-.4 1.6-.4.7 0 1.3.1 1.7.3.4.2.8.5 1.1.8.3.4.4.8.6 1.2.1.5.1 1 .1 1.6v5.9h-2.6v-5.4c0-.8-.1-1.4-.4-1.8-.2-.4-.7-.6-1.3-.6-.7 0-1.2.2-1.5.6-.3.4-.5 1.1-.5 2.1v5h-2.6v-9.5h2.4zM135.8 624.3v1.3h.1c.3-.6.8-1 1.3-1.2.5-.2 1.1-.4 1.6-.4.7 0 1.3.1 1.7.3.4.2.8.5 1.1.8.3.4.4.8.6 1.2.1.5.1 1 .1 1.6v5.9h-2.6v-5.4c0-.8-.1-1.4-.4-1.8-.2-.4-.7-.6-1.3-.6-.7 0-1.2.2-1.5.6-.3.4-.5 1.1-.5 2.1v5h-2.6v-9.5h2.4zM147.1 631.6c.4.4 1 .6 1.7.6.5 0 1-.1 1.4-.4.4-.3.6-.5.7-.8h2.3c-.4 1.1-.9 2-1.7 2.5-.8.5-1.7.7-2.8.7-.8 0-1.4-.1-2-.4s-1.1-.6-1.5-1c-.4-.4-.7-1-1-1.6-.2-.6-.4-1.3-.4-2s.1-1.4.4-2c.2-.6.6-1.1 1-1.6.4-.4.9-.8 1.5-1.1.6-.3 1.3-.4 2-.4.8 0 1.5.1 2.1.5.6.3 1.1.7 1.5 1.3.4.5.7 1.1.8 1.8.2.7.2 1.4.2 2.1h-6.9c.1.8.3 1.4.7 1.8zm2.9-5c-.3-.4-.8-.5-1.4-.5-.4 0-.8.1-1 .2-.3.1-.5.3-.7.5-.2.2-.3.4-.4.7-.1.2-.1.4-.1.6h4.3c-.1-.7-.3-1.2-.7-1.5zM159.4 626c-.4 0-.8.1-1.1.3-.3.2-.5.4-.7.7-.2.3-.3.6-.4 1-.1.4-.1.7-.1 1.1s0 .7.1 1.1c.1.4.2.7.4 1 .2.3.4.5.7.7.3.2.6.3 1 .3.6 0 1.1-.2 1.5-.5.3-.4.5-.8.6-1.4h2.5c-.2 1.3-.7 2.2-1.5 2.9-.8.7-1.8 1-3.1 1-.7 0-1.4-.1-2-.4-.6-.2-1.1-.6-1.5-1-.4-.4-.7-.9-1-1.5-.2-.6-.4-1.2-.4-2 0-.7.1-1.4.3-2.1.2-.6.5-1.2.9-1.6.4-.5.9-.8 1.5-1.1.6-.3 1.3-.4 2.1-.4.6 0 1.1.1 1.6.2s1 .4 1.4.7c.4.3.7.7 1 1.1.3.5.4 1 .4 1.6H161c.2-1.1-.5-1.7-1.6-1.7zM170.7 624.3v1.8h-1.9v4.7c0 .4.1.7.2.9.1.1.4.2.9.2h.4c.1 0 .3 0 .4-.1v2c-.2 0-.5.1-.7.1h-.8c-.4 0-.8 0-1.1-.1-.4-.1-.7-.1-1-.3-.3-.2-.5-.4-.7-.7-.2-.3-.2-.7-.2-1.2V626h-1.6v-1.8h1.6v-2.9h2.6v2.9h1.9zM174.6 624.3v9.5H172v-9.5h2.6zm-2.6-1.5v-2.2h2.6v2.2H172zM176.8 627c.2-.6.6-1.1 1-1.6.4-.4.9-.8 1.5-1 .6-.2 1.3-.4 2-.4s1.4.1 2 .4c.6.2 1.1.6 1.5 1 .4.4.8 1 1 1.6.2.6.4 1.3.4 2.1s-.1 1.5-.4 2.1c-.2.6-.6 1.1-1 1.6-.4.4-.9.8-1.5 1-.6.2-1.3.4-2 .4-.8 0-1.4-.1-2-.4-.6-.2-1.1-.6-1.5-1-.4-.4-.8-1-1-1.6-.2-.6-.4-1.3-.4-2.1s.1-1.5.4-2.1zm2.3 3.2c.1.4.2.7.4 1 .2.3.4.5.7.7.3.2.7.3 1.1.3.4 0 .8-.1 1.1-.3.3-.2.5-.4.7-.7.2-.3.3-.6.4-1 .1-.4.1-.7.1-1.1 0-.4 0-.8-.1-1.1-.1-.4-.2-.7-.4-1-.2-.3-.4-.5-.7-.7-.3-.2-.7-.3-1.1-.3-.4 0-.8.1-1.1.3-.3.2-.5.4-.7.7-.2.3-.3.6-.4 1-.1.4-.1.7-.1 1.1 0 .4.1.8.1 1.1zM190.5 624.3v1.3h.1c.3-.6.8-1 1.3-1.2.5-.2 1.1-.4 1.6-.4.7 0 1.3.1 1.7.3.4.2.8.5 1.1.8.3.4.4.8.6 1.2.1.5.1 1 .1 1.6v5.9h-2.6v-5.4c0-.8-.1-1.4-.4-1.8-.2-.4-.7-.6-1.3-.6-.7 0-1.2.2-1.5.6-.3.4-.5 1.1-.5 2.1v5H188v-9.5h2.5zM209.3 624.3v1.8h-1.9v4.7c0 .4.1.7.2.9.1.1.4.2.9.2h.4c.1 0 .3 0 .4-.1v2c-.2 0-.5.1-.7.1h-.8c-.4 0-.8 0-1.1-.1-.4-.1-.7-.1-1-.3-.3-.2-.5-.4-.7-.7-.2-.3-.2-.7-.2-1.2V626h-1.6v-1.8h1.6v-2.9h2.6v2.9h1.9zM210.6 627c.2-.6.6-1.1 1-1.6.4-.4.9-.8 1.5-1 .6-.2 1.3-.4 2-.4.8 0 1.4.1 2 .4.6.2 1.1.6 1.5 1 .4.4.8 1 1 1.6.2.6.4 1.3.4 2.1s-.1 1.5-.4 2.1c-.2.6-.6 1.1-1 1.6-.4.4-.9.8-1.5 1-.6.2-1.3.4-2 .4-.8 0-1.4-.1-2-.4-.6-.2-1.1-.6-1.5-1-.4-.4-.8-1-1-1.6-.2-.6-.4-1.3-.4-2.1s.1-1.5.4-2.1zm2.4 3.2c.1.4.2.7.4 1 .2.3.4.5.7.7.3.2.7.3 1.1.3.4 0 .8-.1 1.1-.3.3-.2.5-.4.7-.7.2-.3.3-.6.4-1 .1-.4.1-.7.1-1.1 0-.4 0-.8-.1-1.1-.1-.4-.2-.7-.4-1-.2-.3-.4-.5-.7-.7-.3-.2-.7-.3-1.1-.3-.4 0-.8.1-1.1.3-.3.2-.5.4-.7.7-.2.3-.3.6-.4 1-.1.4-.1.7-.1 1.1-.1.4 0 .8.1 1.1zM230.4 636.7c-.5.3-1.2.5-2.1.5h-.8c-.3 0-.5 0-.8-.1v-2.2c.2 0 .5.1.8.1h.8c.4 0 .6-.2.8-.4.2-.2.2-.5.2-.8 0-.2 0-.4-.1-.6l-3.3-8.9h2.8l2.2 6.5 2.1-6.5h2.7l-4 10.7c-.4.8-.8 1.4-1.3 1.7zM236.5 627c.2-.6.6-1.1 1-1.6.4-.4.9-.8 1.5-1 .6-.2 1.3-.4 2-.4.8 0 1.4.1 2 .4.6.2 1.1.6 1.5 1 .4.4.8 1 1 1.6.2.6.4 1.3.4 2.1s-.1 1.5-.4 2.1c-.2.6-.6 1.1-1 1.6-.4.4-.9.8-1.5 1-.6.2-1.3.4-2 .4-.8 0-1.4-.1-2-.4-.6-.2-1.1-.6-1.5-1-.4-.4-.8-1-1-1.6-.2-.6-.4-1.3-.4-2.1.1-.8.2-1.5.4-2.1zm2.4 3.2c.1.4.2.7.4 1 .2.3.4.5.7.7.3.2.7.3 1.1.3.4 0 .8-.1 1.1-.3.3-.2.5-.4.7-.7.2-.3.3-.6.4-1 .1-.4.1-.7.1-1.1 0-.4 0-.8-.1-1.1-.1-.4-.2-.7-.4-1-.2-.3-.4-.5-.7-.7-.3-.2-.7-.3-1.1-.3-.4 0-.8.1-1.1.3-.3.2-.5.4-.7.7-.2.3-.3.6-.4 1-.1.4-.1.7-.1 1.1 0 .4.1.8.1 1.1zM254.2 633.9v-1.3h-.1c-.3.6-.8 1-1.3 1.2-.5.2-1.1.4-1.6.4-.7 0-1.3-.1-1.7-.3-.5-.2-.8-.4-1.1-.8-.3-.3-.4-.7-.5-1.2-.1-.5-.2-1-.2-1.6v-5.9h2.6v5.4c0 .8.1 1.4.4 1.8.2.4.7.6 1.3.6.7 0 1.2-.2 1.5-.6.3-.4.5-1.1.5-2.1v-5h2.6v9.5h-2.4zM261.2 624.3v1.8c.1-.3.3-.6.5-.8.2-.2.4-.5.7-.6.3-.2.6-.3.9-.4.3-.1.6-.1 1-.1.2 0 .4 0 .6.1v2.4c-.1 0-.3-.1-.4-.1h-.5c-.5 0-.9.1-1.2.2-.3.2-.6.4-.8.6-.2.3-.4.6-.4 1-.1.4-.1.8-.1 1.2v4.3h-2.6v-9.5h2.3zM277.3 631.6c.3 0 .6 0 .8-.1.3-.1.5-.1.7-.3.2-.1.4-.3.5-.5.1-.2.2-.5.2-.8 0-.7-.2-1.2-.6-1.5-.4-.3-.9-.4-1.5-.4h-3.2v3.6h3.1zm.2-10.9c.6 0 1.2.1 1.7.2s1 .3 1.3.5c.4.3.7.6.9 1 .2.4.3.9.3 1.5 0 .7-.1 1.2-.4 1.7-.3.4-.8.8-1.3 1.1.8.2 1.4.6 1.8 1.2.4.6.6 1.3.6 2.1 0 .7-.1 1.2-.4 1.7-.3.5-.6.9-1 1.2-.4.3-.9.5-1.5.7-.6.1-1.1.2-1.7.2h-6.4v-13.2h6.1zm-.4 5.3c.5 0 .9-.1 1.3-.4.3-.2.5-.6.5-1.2 0-.3-.1-.6-.2-.8-.1-.2-.3-.4-.4-.5-.2-.1-.4-.2-.6-.2-.2 0-.5-.1-.8-.1h-2.7v3.1h2.9zM284.1 624.6c.3-.8.7-1.6 1.3-2.2.6-.6 1.2-1.1 2-1.5.8-.4 1.7-.5 2.7-.5 1 0 1.9.2 2.7.5.8.4 1.5.8 2 1.5.6.6 1 1.4 1.3 2.2.3.8.4 1.8.4 2.7 0 1-.1 1.8-.4 2.7-.3.8-.7 1.6-1.3 2.2-.6.6-1.2 1.1-2 1.4-.8.4-1.7.5-2.7.5-1 0-1.9-.2-2.7-.5-.8-.4-1.5-.8-2-1.4-.6-.6-1-1.3-1.3-2.2-.3-.8-.4-1.7-.4-2.7 0-.9.1-1.9.4-2.7zm2.7 4.3c.1.5.3 1 .6 1.4.3.4.6.8 1.1 1 .5.3 1 .4 1.7.4.6 0 1.2-.1 1.7-.4.5-.2.8-.6 1.1-1 .3-.4.5-.9.6-1.4.1-.5.2-1.1.2-1.6 0-.6-.1-1.1-.2-1.7-.1-.5-.4-1-.6-1.5-.3-.4-.6-.8-1.1-1-.5-.2-1-.4-1.7-.4-.6 0-1.2.1-1.7.4-.5.3-.8.6-1.1 1-.3.4-.5.9-.6 1.5-.1.5-.2 1.1-.2 1.7 0 .6.1 1.1.2 1.6zM301.5 620.7v10.7h6.4v2.5h-9.3v-13.2zM315.2 620.7c.8 0 1.6.1 2.4.4.7.3 1.4.7 1.9 1.2s.9 1.2 1.3 2c.3.8.4 1.8.4 2.9 0 1-.1 1.8-.4 2.7-.2.8-.6 1.5-1.1 2.1-.5.6-1.1 1.1-1.9 1.4-.8.4-1.6.5-2.6.5h-5.7v-13.2h5.7zm-.2 10.7c.4 0 .8-.1 1.2-.2.4-.1.7-.4 1.1-.7.3-.3.6-.7.7-1.2.2-.5.3-1.1.3-1.8s-.1-1.3-.2-1.8-.4-1-.6-1.4c-.3-.4-.7-.7-1.2-.9-.5-.2-1.1-.3-1.8-.3h-2.1v8.3h2.6zM327.1 626.1v-1.8h1.6v-.7c0-.8.3-1.5.8-2.1.5-.5 1.3-.8 2.4-.8h.7c.2 0 .5 0 .7.1v2c-.3 0-.6-.1-1-.1s-.6.1-.8.2c-.2.2-.2.5-.2.8v.6h1.8v1.8h-1.8v7.8h-2.6v-7.8h-1.6zM340.7 633.9v-1.3h-.1c-.3.6-.8 1-1.3 1.2s-1.1.4-1.6.4c-.7 0-1.3-.1-1.7-.3-.5-.2-.8-.4-1.1-.8-.3-.3-.4-.7-.5-1.2-.1-.5-.2-1-.2-1.6v-5.9h2.6v5.4c0 .8.1 1.4.4 1.8.2.4.7.6 1.3.6.7 0 1.2-.2 1.5-.6.3-.4.5-1.1.5-2.1v-5h2.6v9.5h-2.4zM350.4 624.3v1.8h-1.9v4.7c0 .4.1.7.2.9.1.1.4.2.9.2h.4c.1 0 .3 0 .4-.1v2c-.2 0-.5.1-.7.1h-.8c-.4 0-.8 0-1.1-.1-.4-.1-.7-.1-1-.3-.3-.2-.5-.4-.7-.7-.2-.3-.2-.7-.2-1.2V626h-1.6v-1.8h1.6v-2.9h2.6v2.9h1.9zM358.1 633.9v-1.3h-.1c-.3.6-.8 1-1.3 1.2-.5.2-1.1.4-1.6.4-.7 0-1.3-.1-1.7-.3-.5-.2-.8-.4-1.1-.8-.3-.3-.4-.7-.5-1.2-.1-.5-.2-1-.2-1.6v-5.9h2.6v5.4c0 .8.1 1.4.4 1.8.2.4.7.6 1.3.6.7 0 1.2-.2 1.5-.6.3-.4.5-1.1.5-2.1v-5h2.6v9.5h-2.4zM365.1 624.3v1.8c.1-.3.3-.6.5-.8.2-.2.4-.5.7-.6.3-.2.6-.3.9-.4.3-.1.6-.1 1-.1.2 0 .4 0 .6.1v2.4c-.1 0-.3-.1-.4-.1h-.5c-.5 0-.9.1-1.2.2-.3.2-.6.4-.8.6-.2.3-.4.6-.4 1-.1.4-.1.8-.1 1.2v4.3h-2.6v-9.5h2.3zM372.2 631.6c.4.4 1 .6 1.7.6.5 0 1-.1 1.4-.4.4-.3.6-.5.7-.8h2.3c-.4 1.1-.9 2-1.7 2.5-.8.5-1.7.7-2.8.7-.8 0-1.4-.1-2-.4-.6-.2-1.1-.6-1.5-1-.4-.4-.7-1-1-1.6-.2-.6-.4-1.3-.4-2s.1-1.4.4-2c.2-.6.6-1.1 1-1.6.4-.4.9-.8 1.5-1.1.6-.3 1.3-.4 2-.4.8 0 1.5.1 2.1.5.6.3 1.1.7 1.5 1.3.4.5.7 1.1.8 1.8.2.7.2 1.4.2 2.1h-6.9c.1.8.3 1.4.7 1.8zm3-5c-.3-.4-.8-.5-1.4-.5-.4 0-.8.1-1 .2-.3.1-.5.3-.7.5-.2.2-.3.4-.4.7-.1.2-.1.4-.1.6h4.3c-.2-.7-.4-1.2-.7-1.5zM380.1 631h2.9v2.8h-2.9z"/><path class="st2" d="M267.4 540.5v-13.9h12.5v-5.9c0-6.7 2.1-12.3 6.3-16.6 4.2-4.3 10.6-6.5 19.1-6.5 1.9 0 3.7.1 5.6.2 1.9.1 3.7.3 5.4.4v15.6c-2.4-.3-5-.4-7.6-.4-2.8 0-4.9.7-6.1 2-1.2 1.3-1.8 3.5-1.8 6.7v4.5h14.4v13.9h-14.4v61.9H280v-61.9h-12.6z"/><path class="st2" d="M247.3 526.6h20.8v75.9h-20.8zM350.9 542.8c-3.1-1.6-7-1.6-11.6 0-3 1.1-5.3 2.5-6.9 4.2-1.6 1.7-2.7 3.6-3.4 5.5-.6 1.9-.9 3.8-.8 5.7.1 1.9.4 3.4.8 4.8l30.4-11.1c-2.5-4.5-5.3-7.5-8.5-9.1m-8 43.5c3.8 1.7 8.3 1.6 13.6-.3 3.8-1.4 6.7-3.5 8.7-6.4 2-2.9 3-5.5 2.8-7.8l16.5-6v2.3c0 8.1-1.9 14.7-5.8 19.7-4.2 5.5-10.1 9.7-17.8 12.5-4.9 1.8-9.7 2.7-14.3 2.7h-1.2c-4.9-.1-9.5-1.3-13.6-3.3-4.1-2.1-7.8-5-11.1-8.8-3.2-3.8-5.8-8.3-7.7-13.6-1.9-5.1-2.8-10.1-2.7-15.1.1-5 1-9.7 3-14 1.9-4.3 4.6-8.2 8.2-11.6 3.6-3.4 8-6 13.2-7.9 5.8-2.1 11.3-2.8 16.4-2.2 5.1.7 9.8 2.4 13.9 5.2 4.1 2.8 7.7 6.3 10.7 10.7 3 4.4 5.3 9.3 6.9 14.7L333.4 575c2.5 5.8 5.7 9.6 9.5 11.3z"/><path class="st3" d="M262.9 498.6c1.6.6 2.9 1.4 4 2.5s2 2.4 2.6 3.9c.6 1.5.9 3.2.9 5.1 0 1.9-.3 3.6-.9 5.2-.6 1.5-1.5 2.9-2.6 4s-2.4 1.9-4 2.5c-1.6.6-3.3.9-5.2.9-1.9 0-3.7-.3-5.2-.9-1.6-.6-2.9-1.4-4-2.5s-2-2.4-2.5-4c-.6-1.5-.9-3.3-.9-5.2 0-1.9.3-3.6.9-5.1.6-1.5 1.4-2.8 2.5-3.9s2.4-1.9 4-2.5c1.6-.6 3.3-.9 5.2-.9 1.9 0 3.6.3 5.2.9"/><path class="st1" d="M191.2 599.6c.3-.2.6-.4.8-.7.2-.3.4-.6.5-1 .1-.4.1-.8.1-1.2 0-.3 0-.6-.1-.9l-.3-.9c-.1-.3-.3-.5-.6-.7-.2-.2-.5-.3-.9-.3-.6 0-1.1.4-1.4 1.2-.3.8-.6 2-.9 3.5-.1.6-.3 1.2-.5 1.8-.2.6-.4 1.1-.7 1.5-.1.2-.3.3-.4.5h3.3v-2.6c.4.1.8 0 1.1-.2M193.5 602.4h1.6v-3.1c-.2.8-.5 1.6-.9 2.2-.2.4-.5.7-.7.9M182.6 533.3c0 .7.1 1.2.3 1.7.2.4.5.8.8 1.1.3.3.7.4 1.1.6.4.1.7.2 1 .2v-6.8c-1.1.2-1.9.5-2.4 1-.6.4-.8 1.2-.8 2.2M190.1 500.2c.7 0 1.2-.1 1.4-.4.2-.2.4-.7.4-1.4V497.6h-9.2v2.6h7.4z"/><path class="st3" d="M195.1 497.7v.6-.6z"/><path class="st1" d="M194.7 554.9c-.4.9-1 1.6-1.8 2.1-.7.6-1.6 1-2.6 1.3-1 .3-2 .4-3 .4s-2-.1-2.9-.4c-.9-.3-1.8-.7-2.5-1.3-.7-.6-1.3-1.3-1.7-2.1-.4-.8-.7-1.8-.7-2.9 0-.9.2-1.7.6-2.6.4-.8.9-1.4 1.7-1.9v-.1h-7.6v-4.1H195v3.9h-2v.1c.8.5 1.4 1.1 1.8 1.9.1.2.2.5.3.7v-14.5c-.1.3-.2.7-.3 1-.4 1-.9 1.8-1.6 2.4-.7.7-1.5 1.2-2.5 1.5-1 .4-2 .5-3.2.5-1.1 0-2.2-.2-3.2-.6-1-.4-1.8-.9-2.5-1.6-.7-.7-1.3-1.5-1.7-2.4-.4-.9-.6-2-.6-3.1 0-1.3.2-2.4.7-3.4.5-1 1.2-1.7 2-2.4.8-.6 1.8-1.1 2.9-1.3 1.1-.3 2.2-.4 3.4-.3v10.9c1.3-.1 2.3-.4 2.9-1 .6-.6.9-1.5.9-2.7 0-.8-.2-1.6-.6-2.2-.4-.6-.9-1-1.3-1.1v-3.7c1.8.6 3.1 1.5 3.9 2.7.4.6.7 1.3.9 2.1v-30.4c0 .3-.1.6-.1.9-.1.6-.3 1.1-.5 1.5-.3.4-.6.8-1.1 1-.5.3-1.1.4-1.8.4h-8.9v2.5H180v-2.5h-4.5V500h4.5v-2.6H62v104.8h119.4c-.3-.3-.6-.6-.9-1-.4-.6-.6-1.3-.8-2.1-.1-.8-.2-1.6-.2-2.4 0-.8.1-1.6.2-2.4.2-.8.4-1.5.8-2.1.4-.6.9-1.1 1.5-1.5.6-.4 1.4-.6 2.3-.7v3.9c-.8.1-1.3.4-1.6.9-.3.5-.4 1.2-.4 1.9v.8c0 .3.1.5.2.7.1.2.2.4.4.6.2.2.4.2.7.2.4 0 .7-.1.9-.4.2-.3.4-.6.6-1.1.1-.4.3-.9.4-1.5.1-.6.2-1.1.4-1.7.1-.6.3-1.2.5-1.8.2-.6.5-1.1.8-1.5.3-.4.7-.8 1.2-1.1.5-.3 1.1-.4 1.8-.4 1 0 1.8.2 2.5.6.7.4 1.2.9 1.6 1.6.4.6.7 1.3.8 2.1v-12.2c0 .3-.1.6-.1.9-.1.6-.3 1.1-.5 1.5-.3.4-.6.8-1.1 1-.5.3-1.1.4-1.8.4h-8.9v2.5h-2.8v-2.5h-4.5v-4.1h4.5v-3h2.8v3h7.5c.7 0 1.2-.1 1.4-.4.2-.2.4-.7.4-1.4v-.7c0-.2 0-.4-.1-.6h3.2c.1.3.1.7.1 1.1v-7.5c-.1.2-.1.3-.2.5-.3.7-.7 1.3-1.2 1.7-.5.4-1.2.7-2 .9-.8.2-1.6.2-2.6.2h-9.3V571h8.5c1.2 0 2.2-.2 2.8-.6.6-.4.9-1.1.9-2.1 0-1.1-.3-1.9-1-2.5-.7-.5-1.8-.8-3.3-.8h-7.9v-4.1H195v3.9h-2.1v.1c.9.5 1.5 1.2 1.9 2 .1.3.2.6.3.8v-14.3c-.1.8-.3 1.2-.4 1.5M179.9 512c.3-.7.7-1.3 1.3-1.7.5-.4 1.2-.7 2-.9.8-.2 1.6-.2 2.6-.2h9.3v4.1h-8.5c-1.2 0-2.2.2-2.8.6-.6.4-.9 1.1-.9 2.1 0 1.1.3 1.9 1 2.5.7.5 1.8.8 3.3.8h7.9v4.1H180v-3.9h2.1v-.1c-.9-.5-1.5-1.2-1.9-2-.4-.8-.6-1.7-.6-2.6-.2-1.2 0-2.1.3-2.8z"/><path class="st1" d="M190.7 548.1c-.5-.3-1-.5-1.6-.6-.6-.1-1.2-.2-1.8-.2s-1.2.1-1.8.2c-.6.1-1.1.3-1.5.6-.4.3-.8.6-1.1 1.1-.3.4-.4 1-.4 1.7s.1 1.3.4 1.7c.3.5.6.8 1.1 1.1.4.3 1 .5 1.5.6.6.1 1.2.2 1.8.2.6 0 1.2-.1 1.8-.2.6-.1 1.1-.4 1.6-.7.5-.3.8-.7 1.1-1.1.3-.5.4-1 .4-1.7s-.1-1.3-.4-1.7c-.2-.4-.6-.8-1.1-1M195.1 599.3c.2-.8.3-1.7.3-2.6 0-.9-.1-1.7-.2-2.5v-.1l-.1 5.2M195.1 580.9V579.5v2.3-.9M195.3 569.8c0-.6-.1-1.2-.3-1.7v4c.2-.7.3-1.4.3-2.3"/><path class="st3" d="M195.3 551.9c0-.7-.1-1.3-.3-1.9v3.9c.2-.6.3-1.3.3-2M195.3 533.2c0-.8-.1-1.6-.3-2.3v4.5c.2-.7.3-1.4.3-2.2M195.1 499.6V498.2v2.3-.9"/><path class="st4" d="M192.6 590.4c-.7-.4-1.5-.6-2.5-.6-.7 0-1.3.1-1.8.4-.5.3-.9.6-1.2 1.1-.3.4-.6 1-.8 1.5-.2.6-.4 1.2-.5 1.8-.1.6-.3 1.2-.4 1.7-.1.6-.2 1.1-.4 1.5-.1.4-.3.8-.6 1.1-.2.3-.5.4-.9.4-.3 0-.6-.1-.7-.2-.2-.2-.3-.3-.4-.6-.1-.2-.2-.5-.2-.7v-.8c0-.7.1-1.4.4-1.9.3-.5.8-.8 1.6-.9v-3.9c-.9.1-1.7.3-2.3.7-.6.4-1.1.9-1.5 1.5-.4.6-.6 1.3-.8 2.1-.2.8-.2 1.6-.2 2.4 0 .8.1 1.6.2 2.4.1.8.4 1.5.8 2.1.2.4.5.7.9 1h5.4c.1-.1.3-.3.4-.5.3-.4.5-1 .7-1.5.2-.6.3-1.2.5-1.8.3-1.5.6-2.6.9-3.5.3-.8.8-1.2 1.4-1.2.4 0 .7.1.9.3.2.2.4.4.6.7.1.3.3.6.3.9.1.3.1.6.1.9 0 .4 0 .8-.1 1.2-.1.4-.2.7-.5 1-.2.3-.5.5-.8.7-.3.2-.7.3-1.2.3v2.6h3.4c.3-.3.5-.6.7-.9.4-.6.7-1.4.9-2.2v-5.2c-.2-.8-.4-1.5-.8-2.1-.3-.9-.8-1.4-1.5-1.8M191.7 578.5c0 .2.1.4.1.6v.7c0 .7-.1 1.2-.4 1.4-.2.2-.7.4-1.4.4h-7.5v-3h-2.8v3h-4.5v4.1h4.5v2.5h2.8v-2.5h8.9c.8 0 1.4-.1 1.8-.4.5-.3.8-.6 1.1-1 .3-.4.4-.9.5-1.5 0-.3.1-.6.1-.9v-2.3c0-.4-.1-.8-.1-1.1h-3.1zM192.9 565.2l2.1-.1v-3.9h-15.1v4.1h7.9c1.5 0 2.6.3 3.3.8.7.5 1 1.3 1 2.5 0 1-.3 1.7-.9 2.1-.6.4-1.5.6-2.8.6h-8.5v4.1h9.3c.9 0 1.8-.1 2.6-.2.8-.2 1.4-.5 2-.9.5-.4 1-1 1.2-1.7.1-.2.1-.3.2-.5v-4c-.1-.3-.2-.6-.3-.8-.5-.9-1.2-1.6-2-2.1M193 547.3l1.9-.1v-3.9H174v4.1h7.6v.1c-.7.5-1.3 1.1-1.7 1.9-.4.8-.6 1.7-.6 2.6 0 1.1.2 2.1.7 2.9.4.8 1 1.5 1.7 2.1.7.6 1.6 1 2.5 1.3.9.3 1.9.4 2.9.4 1.1 0 2.1-.1 3-.4 1-.3 1.8-.7 2.6-1.3.7-.6 1.3-1.3 1.8-2.1.2-.3.3-.7.4-1V550c-.1-.3-.2-.5-.3-.7-.2-.9-.8-1.5-1.6-2m-1.2 5.2c-.3.5-.7.8-1.1 1.1-.5.3-1 .5-1.6.7-.6.1-1.2.2-1.8.2-.6 0-1.2-.1-1.8-.2-.6-.1-1.1-.3-1.5-.6-.4-.3-.8-.7-1.1-1.1-.3-.5-.4-1-.4-1.7s.1-1.2.4-1.7c.3-.4.6-.8 1.1-1.1.4-.3.9-.5 1.5-.6.6-.1 1.2-.2 1.8-.2s1.2.1 1.8.2c.6.1 1.1.3 1.6.6s.8.6 1.1 1.1c.3.5.4 1 .4 1.7 0 .6-.1 1.2-.4 1.6zM190.3 526.1v3.7c.5.1.9.5 1.3 1.1.4.6.6 1.3.6 2.2 0 1.2-.3 2.1-.9 2.7-.6.6-1.6 1-2.9 1v-10.9c-1.2-.1-2.3 0-3.4.3s-2 .7-2.9 1.3c-.8.6-1.5 1.4-2 2.4s-.7 2.1-.7 3.4c0 1.1.2 2.2.6 3.1.4.9 1 1.8 1.7 2.4.7.7 1.6 1.2 2.5 1.6 1 .4 2 .6 3.2.6 1.2 0 2.2-.2 3.2-.5 1-.4 1.8-.9 2.5-1.5.7-.7 1.2-1.5 1.6-2.4.1-.3.2-.6.3-1v-4.5c-.2-.8-.5-1.5-.9-2.1-.7-1.4-2-2.3-3.8-2.9m-4.5 10.7c-.3 0-.6-.1-1-.2s-.7-.3-1.1-.6c-.3-.3-.6-.6-.8-1.1-.2-.4-.3-1-.3-1.7 0-1 .3-1.8.8-2.3.5-.5 1.3-.8 2.4-1v6.9zM182 519.4l-2.1.1v3.9H195v-4.1h-8c-1.5 0-2.6-.3-3.3-.8-.7-.5-1-1.3-1-2.5 0-1 .3-1.7.9-2.1.6-.4 1.5-.6 2.8-.6h8.5v-4.1h-9.3c-.9 0-1.8.1-2.6.2-.8.2-1.4.5-2 .9-.5.4-1 1-1.3 1.7-.3.7-.5 1.6-.5 2.7 0 .9.2 1.7.6 2.6.6.9 1.3 1.5 2.2 2.1M175.3 500.2v4.1h4.5v2.5h2.8v-2.5h8.9c.8 0 1.4-.1 1.8-.4.5-.3.8-.6 1.1-1 .3-.4.4-.9.5-1.5 0-.3.1-.6.1-.9v-2.9h-3.2V498.4c0 .7-.1 1.2-.4 1.4-.2.2-.7.4-1.4.4h-7.5v-2.6h-2.8v2.6h-4.4z"/><path class="st2" d="M217.9 497.7v85.4h24.5v19.3h-47.6V497.7z"/><path d="m110 658.2 2.8-.4c.1.5.4.9.7 1.2s.9.4 1.5.4c.7 0 1.2-.1 1.6-.4.2-.2.4-.4.4-.7 0-.2-.1-.4-.2-.5-.1-.1-.4-.3-.9-.4-2.2-.5-3.6-.9-4.2-1.3-.8-.6-1.2-1.3-1.2-2.3 0-.9.4-1.7 1.1-2.3s1.8-.9 3.3-.9c1.4 0 2.5.2 3.2.7s1.2 1.1 1.4 2.1l-2.6.5c-.1-.4-.3-.7-.6-.9s-.8-.3-1.3-.3c-.7 0-1.2.1-1.6.3-.2.1-.3.3-.3.6 0 .2.1.4.3.5.2.2 1.1.4 2.6.8s2.5.7 3.1 1.2c.6.5.9 1.2.9 2 0 1-.4 1.8-1.2 2.5s-2 1-3.5 1c-1.4 0-2.5-.3-3.4-.9s-1.6-1.6-1.9-2.5zM126.9 650.7v2.2H125v4.2c0 .8 0 1.3.1 1.5s.1.3.2.3.3.1.5.1c.3 0 .6-.1 1.1-.3l.2 2.1c-.6.3-1.4.4-2.2.4-.5 0-.9-.1-1.3-.2s-.7-.4-.9-.6-.3-.6-.4-1.1c-.1-.3-.1-1-.1-1.9v-4.5H121v-2.2h1.3v-2.1l2.8-1.6v3.7h1.8zM135.6 661.1v-1.6c-.4.6-.9 1-1.5 1.3s-1.3.5-1.9.5c-.7 0-1.3-.2-1.9-.5s-1-.7-1.2-1.3-.4-1.3-.4-2.3v-6.6h2.7v4.8c0 1.5.1 2.4.2 2.7s.3.6.6.8.6.3 1 .3c.5 0 .9-.1 1.3-.4s.6-.6.8-1 .2-1.3.2-2.8v-4.4h2.7V661h-2.6zM150.5 661.1H148v-1.5c-.4.6-.9 1-1.5 1.3s-1.2.4-1.7.4c-1.2 0-2.2-.5-3.1-1.4s-1.3-2.3-1.3-4c0-1.8.4-3.1 1.2-4s1.9-1.4 3.1-1.4c1.2 0 2.2.5 3 1.4v-5.2h2.7v14.4zm-7.3-5.4c0 1.1.2 1.9.5 2.4.4.7 1.1 1.1 1.9 1.1.6 0 1.2-.3 1.6-.8s.7-1.3.7-2.4c0-1.2-.2-2-.6-2.6s-1-.8-1.7-.8-1.2.3-1.6.8-.8 1.3-.8 2.3zM159.2 657.8l2.7.5c-.4 1-.9 1.8-1.7 2.3s-1.7.8-2.8.8c-1.8 0-3.1-.6-4-1.8-.7-.9-1-2.1-1-3.6 0-1.7.4-3.1 1.3-4s2-1.5 3.4-1.5c1.5 0 2.8.5 3.7 1.5s1.3 2.6 1.3 4.7h-6.9c0 .8.2 1.4.7 1.9s1 .7 1.6.7c.4 0 .8-.1 1.1-.4s.5-.6.6-1.1zm.2-2.8c0-.8-.2-1.4-.6-1.8s-.9-.6-1.4-.6c-.6 0-1.1.2-1.5.7s-.6 1-.6 1.8h4.1zM173.8 661.1H171v-5.3c0-1.1-.1-1.8-.2-2.2s-.3-.6-.6-.8-.6-.3-1-.3c-.5 0-.9.1-1.3.4s-.6.6-.8 1-.2 1.2-.2 2.4v4.7h-2.7v-10.4h2.5v1.5c.9-1.2 2-1.8 3.4-1.8.6 0 1.2.1 1.7.3s.9.5 1.1.8.4.7.5 1.2.2 1 .2 1.8v6.7zM181.3 650.7v2.2h-1.9v4.2c0 .8 0 1.3.1 1.5s.1.3.2.3.3.1.5.1c.3 0 .6-.1 1.1-.3l.2 2.1c-.6.3-1.4.4-2.2.4-.5 0-.9-.1-1.3-.2s-.7-.4-.9-.6-.3-.6-.4-1.1c-.1-.3-.1-1-.1-1.9v-4.5h-1.3v-2.2h1.3v-2.1l2.8-1.6v3.7h1.9zM183.2 661.1v-14.3h2.7v14.3h-2.7zM188.8 649.3v-2.5h2.7v2.5h-2.7zm0 11.8v-10.4h2.7v10.4h-2.7zM193.1 650.7h1.5v-.7c0-.9.1-1.5.3-2s.5-.8 1-1 1.1-.4 1.9-.4c.8 0 1.5.1 2.3.4l-.4 1.9c-.4-.1-.9-.2-1.3-.2s-.7.1-.9.3-.3.5-.3 1.1v.7h2.1v2.2h-2.1v8.2h-2.7V653H193v-2.3zM207 657.8l2.7.5c-.4 1-.9 1.8-1.7 2.3s-1.7.8-2.8.8c-1.8 0-3.1-.6-4-1.8-.7-.9-1-2.1-1-3.6 0-1.7.4-3.1 1.3-4s2-1.5 3.4-1.5c1.5 0 2.8.5 3.7 1.5s1.3 2.6 1.3 4.7H203c0 .8.2 1.4.7 1.9s1 .7 1.6.7c.4 0 .8-.1 1.1-.4s.5-.6.6-1.1zm.2-2.8c0-.8-.2-1.4-.6-1.8s-.9-.6-1.4-.6c-.6 0-1.1.2-1.5.7s-.6 1-.6 1.8h4.1zM212.1 661.1v-2.7h2.7v2.7h-2.7zM224.5 661.1v-1.6c-.4.6-.9 1-1.5 1.3s-1.3.5-1.9.5c-.7 0-1.3-.2-1.9-.5s-1-.7-1.2-1.3-.4-1.3-.4-2.3v-6.6h2.7v4.8c0 1.5.1 2.4.2 2.7s.3.6.6.8.6.3 1 .3c.5 0 .9-.1 1.3-.4s.6-.6.8-1 .2-1.3.2-2.8v-4.4h2.7V661h-2.6zM229.3 655.8c0-.9.2-1.8.7-2.6s1.1-1.5 1.9-2 1.7-.7 2.8-.7c1.6 0 2.9.5 3.9 1.5s1.5 2.3 1.5 3.9-.5 2.9-1.5 3.9-2.3 1.5-3.8 1.5c-1 0-1.9-.2-2.7-.6s-1.5-1.1-2-1.9-.8-1.8-.8-3zm2.8.1c0 1 .2 1.8.7 2.4s1.1.8 1.8.8 1.3-.3 1.8-.8.7-1.3.7-2.4c0-1-.2-1.8-.7-2.3s-1.1-.8-1.8-.8-1.3.3-1.8.8-.7 1.3-.7 2.3zM241.9 661.8l3.1.4c.1.4.2.6.4.8.3.2.7.3 1.2.3.7 0 1.3-.1 1.6-.3.2-.1.4-.4.5-.7.1-.2.1-.6.1-1.3v-1.5c-.8 1.1-1.9 1.7-3.1 1.7-1.4 0-2.5-.6-3.3-1.8-.6-.9-1-2.1-1-3.5 0-1.7.4-3.1 1.3-4s1.9-1.4 3.1-1.4c1.3 0 2.3.6 3.2 1.7v-1.5h2.6v9.3c0 1.2-.1 2.1-.3 2.7s-.5 1.1-.8 1.4-.9.6-1.5.8-1.4.3-2.3.3c-1.8 0-3-.3-3.7-.9s-1.1-1.4-1.1-2.3v-.2zm2.4-6.1c0 1.1.2 1.9.6 2.4s1 .8 1.6.8c.7 0 1.2-.3 1.7-.8s.7-1.3.7-2.3c0-1.1-.2-1.9-.7-2.4s-1-.8-1.7-.8-1.2.3-1.6.8-.6 1.3-.6 2.3zM261.2 661.1v-1.6c-.4.6-.9 1-1.5 1.3s-1.3.5-1.9.5c-.7 0-1.3-.2-1.9-.5s-1-.7-1.2-1.3-.4-1.3-.4-2.3v-6.6h2.7v4.8c0 1.5.1 2.4.2 2.7s.3.6.6.8.6.3 1 .3c.5 0 .9-.1 1.3-.4s.6-.6.8-1 .2-1.3.2-2.8v-4.4h2.7V661h-2.6zM272.6 657.8l2.7.5c-.4 1-.9 1.8-1.7 2.3s-1.7.8-2.8.8c-1.8 0-3.1-.6-4-1.8-.7-.9-1-2.1-1-3.6 0-1.7.4-3.1 1.3-4s2-1.5 3.4-1.5c1.5 0 2.8.5 3.7 1.5s1.3 2.6 1.3 4.7h-6.9c0 .8.2 1.4.7 1.9s1 .7 1.6.7c.4 0 .8-.1 1.1-.4s.4-.6.6-1.1zm.1-2.8c0-.8-.2-1.4-.6-1.8s-.9-.6-1.4-.6c-.6 0-1.1.2-1.5.7s-.6 1-.6 1.8h4.1zM277.7 661.1v-14.3h2.7v14.3h-2.7zM283.1 650.7h2.6v1.5c.3-.5.8-.9 1.3-1.3s1.2-.5 1.9-.5c1.2 0 2.2.5 3.1 1.4s1.3 2.3 1.3 3.9c0 1.7-.4 3.1-1.3 4s-1.9 1.4-3.1 1.4c-.6 0-1.1-.1-1.6-.3s-1-.6-1.5-1.2v5.2h-2.7v-14.1zm2.8 5.1c0 1.2.2 2 .7 2.6s1 .8 1.7.8c.6 0 1.2-.3 1.6-.8s.6-1.3.6-2.5c0-1.1-.2-1.9-.7-2.4s-1-.8-1.6-.8c-.7 0-1.2.3-1.7.8s-.6 1.2-.6 2.3zM298.2 646.8v5.3c.9-1 1.9-1.6 3.2-1.6.6 0 1.2.1 1.7.4s.9.5 1.1.9.4.8.5 1.2.1 1.1.1 2.1v6.1h-2.7v-5.5c0-1.1-.1-1.8-.2-2.1s-.3-.5-.6-.7-.6-.3-1-.3c-.5 0-.9.1-1.2.3s-.6.6-.8 1-.2 1.1-.2 2v5.2h-2.7v-14.3h2.8zM307.7 661.1v-2.7h2.7v2.7h-2.7zM322.3 653.8l-2.7.5c-.1-.5-.3-.9-.6-1.2s-.7-.4-1.3-.4c-.7 0-1.2.2-1.6.7s-.6 1.3-.6 2.4c0 1.2.2 2.1.6 2.6s1 .8 1.7.8c.5 0 .9-.1 1.3-.4s.6-.8.7-1.5l2.7.5c-.3 1.2-.8 2.2-1.6 2.8s-1.9.9-3.2.9c-1.5 0-2.7-.5-3.6-1.4s-1.4-2.3-1.4-4c0-1.7.5-3 1.4-4s2.1-1.4 3.7-1.4c1.3 0 2.3.3 3 .8s1.1 1.2 1.5 2.3zM326.4 653.9l-2.5-.4c.3-1 .8-1.7 1.4-2.2s1.7-.7 3-.7c1.2 0 2.1.1 2.7.4s1 .7 1.3 1.1.4 1.3.4 2.5v3.2c0 .9 0 1.6.1 2s.3.9.5 1.4h-2.7c-.1-.2-.2-.5-.3-.8 0-.2-.1-.3-.1-.3-.5.5-1 .8-1.5 1s-1.1.3-1.7.3c-1.1 0-1.9-.3-2.5-.9s-.9-1.3-.9-2.2c0-.6.1-1.1.4-1.6s.7-.8 1.2-1.1 1.2-.5 2.2-.6c1.3-.2 2.2-.5 2.7-.7v-.3c0-.5-.1-.9-.4-1.1s-.8-.3-1.5-.3c-.5 0-.9.1-1.1.3s-.5.5-.7 1zm3.7 2.2c-.4.1-.9.3-1.7.4s-1.3.3-1.5.5c-.4.3-.5.6-.5 1s.1.7.4 1 .7.4 1.1.4c.5 0 1-.2 1.4-.5.3-.2.5-.5.7-.9.1-.2.1-.7.1-1.3v-.6z"/></svg>