<svg xmlns="http://www.w3.org/2000/svg" width="753.9" height="66" style="enable-background:new 0 0 753.9 66" xml:space="preserve"><path d="m11.5 42.6 3-2.6c2.2 3.4 4.5 5.2 8.4 5.2 4.1 0 7.2-3 7.2-8.8V12h4.2v24.4c0 4.3-1.3 7.5-3.3 9.6-2 2-4.8 3-8 3-5.7 0-9.2-2.7-11.5-6.4zM41.5 35.2v-.1c0-7.6 6-14.1 14.1-14.1s14 6.4 14 14v.1c0 7.6-6 14.1-14.1 14.1-8.1-.1-14-6.4-14-14zm24.1 0v-.1c0-5.8-4.3-10.5-10-10.5-5.8 0-9.9 4.8-9.9 10.4v.1c0 5.8 4.3 10.5 10 10.5 5.8-.1 9.9-4.8 9.9-10.4zM76.9 10.4h4v15.8c1.8-2.9 4.6-5.3 9.2-5.3 6.5 0 10.3 4.4 10.3 10.8v16.8h-4V32.8c0-5-2.7-8.1-7.5-8.1-4.6 0-8.1 3.4-8.1 8.5v15.5h-4V10.4zM109.1 21.5h4v4.7c1.8-2.9 4.6-5.3 9.2-5.3 6.5 0 10.3 4.4 10.3 10.8v16.8h-4V32.8c0-5-2.7-8.1-7.5-8.1-4.6 0-8.1 3.4-8.1 8.5v15.5h-4V21.5zM139 45.1l2-2.9c2.9 2.2 6.2 3.4 9.3 3.4 3.2 0 5.6-1.7 5.6-4.3v-.1c0-2.7-3.2-3.8-6.7-4.8-4.2-1.2-8.9-2.7-8.9-7.6v-.1c0-4.6 3.9-7.7 9.2-7.7 3.3 0 6.9 1.1 9.7 3l-1.8 3c-2.5-1.6-5.4-2.6-8-2.6-3.2 0-5.2 1.7-5.2 3.9v.1c0 2.6 3.3 3.5 6.9 4.6 4.2 1.3 8.7 2.9 8.7 7.7v.3c0 5.1-4.2 8.1-9.6 8.1-3.9-.1-8.1-1.6-11.2-4zM165.6 35.2v-.1c0-7.6 6-14.1 14.1-14.1s14 6.4 14 14v.1c0 7.6-6 14.1-14.1 14.1-8.1-.1-14-6.4-14-14zm24 0v-.1c0-5.8-4.3-10.5-10-10.5-5.8 0-9.9 4.8-9.9 10.4v.1c0 5.8 4.3 10.5 10 10.5 5.8-.1 9.9-4.8 9.9-10.4zM201 21.5h4v4.7c1.8-2.9 4.6-5.3 9.2-5.3 6.5 0 10.3 4.4 10.3 10.8v16.8h-4V32.8c0-5-2.7-8.1-7.5-8.1-4.6 0-8.1 3.4-8.1 8.5v15.5h-4V21.5zM249.9 12h4.1v36.5h-4.1V12zM264 21.5h4v4.7c1.8-2.9 4.6-5.3 9.2-5.3 6.5 0 10.3 4.4 10.3 10.8v16.8h-4V32.8c0-5-2.7-8.1-7.5-8.1-4.6 0-8.1 3.4-8.1 8.5v15.5h-4V21.5zM293.9 45.1l2-2.9c2.9 2.2 6.2 3.4 9.3 3.4 3.2 0 5.6-1.7 5.6-4.3v-.1c0-2.7-3.2-3.8-6.7-4.8-4.2-1.2-8.9-2.7-8.9-7.6v-.1c0-4.6 3.9-7.7 9.2-7.7 3.3 0 6.9 1.1 9.7 3l-1.8 3c-2.5-1.6-5.4-2.6-8-2.6-3.2 0-5.2 1.7-5.2 3.9v.1c0 2.6 3.3 3.5 6.9 4.6 4.2 1.3 8.7 2.9 8.7 7.7v.3c0 5.1-4.2 8.1-9.6 8.1-3.8-.1-8.1-1.6-11.2-4zM322.2 21.5h4V27c2.2-3.2 5.4-6 10.3-6 6.5 0 12.9 5.1 12.9 14v.1c0 8.8-6.4 14-12.9 14-5 0-8.2-2.7-10.3-5.7v13.5h-4V21.5zm23.1 13.6V35c0-6.4-4.4-10.4-9.5-10.4-5 0-9.8 4.2-9.8 10.4v.1c0 6.3 4.8 10.4 9.8 10.4 5.2 0 9.5-3.9 9.5-10.4zM355.2 35.1V35c0-7.8 5.5-14 12.9-14 8 0 12.6 6.4 12.6 14.3 0 .5 0 .8-.1 1.3h-21.4c.6 5.8 4.7 9.1 9.5 9.1 3.7 0 6.3-1.5 8.5-3.8l2.5 2.2c-2.7 3-6 5.1-11.1 5.1-7.4-.1-13.4-5.7-13.4-14.1zm21.4-1.6c-.4-4.9-3.2-9.2-8.6-9.2-4.7 0-8.2 3.9-8.8 9.2h17.4zM386.1 35.2v-.1c0-7.6 6-14.1 13.8-14.1 5.1 0 8.3 2.1 10.8 4.8l-2.7 2.8c-2.1-2.2-4.5-4.1-8.2-4.1-5.5 0-9.7 4.6-9.7 10.4v.1c0 5.8 4.3 10.5 9.9 10.5 3.4 0 6.1-1.7 8.2-4l2.6 2.4c-2.7 3-6 5.2-11 5.2-7.8 0-13.7-6.4-13.7-13.9zM419 41.4V25.1h-3.8v-3.5h3.8v-8.1h4v8.1h8.6v3.5H423v15.8c0 3.3 1.8 4.5 4.5 4.5 1.4 0 2.5-.3 3.9-.9v3.4c-1.4.7-2.9 1.1-4.9 1.1-4.2 0-7.5-2.1-7.5-7.6zM438.8 11.2h4.6v4.4h-4.6v-4.4zm.2 10.3h4v27h-4v-27zM450.7 35.2v-.1c0-7.6 6-14.1 14.1-14.1s14 6.4 14 14v.1c0 7.6-6 14.1-14.1 14.1-8.1-.1-14-6.4-14-14zm24 0v-.1c0-5.8-4.3-10.5-10-10.5-5.8 0-9.9 4.8-9.9 10.4v.1c0 5.8 4.3 10.5 10 10.5 5.9-.1 9.9-4.8 9.9-10.4zM486.1 21.5h4v4.7c1.8-2.9 4.6-5.3 9.2-5.3 6.5 0 10.3 4.4 10.3 10.8v16.8h-4V32.8c0-5-2.7-8.1-7.5-8.1-4.6 0-8.1 3.4-8.1 8.5v15.5h-4V21.5zM532.2 43.2l2.6-3c3.8 3.4 7.5 5.2 12.5 5.2 4.9 0 8.1-2.6 8.1-6.2V39c0-3.4-1.8-5.3-9.5-6.9-8.4-1.8-12.3-4.5-12.3-10.5v-.1c0-5.7 5.1-10 12-10 5.3 0 9.1 1.5 12.8 4.5l-2.4 3.2c-3.4-2.8-6.8-4-10.5-4-4.8 0-7.8 2.6-7.8 5.9v.1c0 3.4 1.9 5.4 9.9 7.1 8.1 1.8 11.9 4.8 11.9 10.3v.1c0 6.3-5.2 10.3-12.5 10.3-5.6 0-10.4-1.9-14.8-5.8zM565.7 35.1V35c0-7.8 5.5-14 12.9-14 8 0 12.6 6.4 12.6 14.3 0 .5 0 .8-.1 1.3h-21.4c.6 5.8 4.7 9.1 9.5 9.1 3.7 0 6.3-1.5 8.5-3.8l2.5 2.2c-2.7 3-6 5.1-11.1 5.1-7.3-.1-13.4-5.7-13.4-14.1zm21.5-1.6c-.4-4.9-3.2-9.2-8.6-9.2-4.7 0-8.2 3.9-8.8 9.2h17.4zM598.3 21.5h4v7c2-4.5 5.9-7.7 11-7.5v4.3h-.3c-5.9 0-10.7 4.2-10.7 12.4v10.8h-4v-27zM616.8 21.5h4.4l9.1 22.4 9.1-22.4h4.3L632 48.7h-3.5l-11.7-27.2zM650.2 11.2h4.6v4.4h-4.6v-4.4zm.2 10.3h4v27h-4v-27zM662.1 35.2v-.1c0-7.6 6-14.1 13.8-14.1 5.1 0 8.3 2.1 10.8 4.8l-2.7 2.8c-2.1-2.2-4.5-4.1-8.2-4.1-5.5 0-9.7 4.6-9.7 10.4v.1c0 5.8 4.3 10.5 9.9 10.5 3.4 0 6.1-1.7 8.2-4l2.6 2.4c-2.7 3-6 5.2-11 5.2-7.7 0-13.7-6.4-13.7-13.9zM691.2 35.1V35c0-7.8 5.5-14 12.9-14 8 0 12.6 6.4 12.6 14.3 0 .5 0 .8-.1 1.3h-21.4c.6 5.8 4.7 9.1 9.5 9.1 3.7 0 6.3-1.5 8.5-3.8l2.5 2.2c-2.7 3-6 5.1-11.1 5.1-7.4-.1-13.4-5.7-13.4-14.1zm21.4-1.6c-.4-4.9-3.2-9.2-8.6-9.2-4.7 0-8.2 3.9-8.8 9.2h17.4zM721.5 45.1l2-2.9c2.9 2.2 6.2 3.4 9.3 3.4 3.2 0 5.6-1.7 5.6-4.3v-.1c0-2.7-3.2-3.8-6.7-4.8-4.2-1.2-8.9-2.7-8.9-7.6v-.1c0-4.6 3.9-7.7 9.2-7.7 3.3 0 6.9 1.1 9.7 3l-1.8 3c-2.5-1.6-5.4-2.6-8-2.6-3.2 0-5.2 1.7-5.2 3.9v.1c0 2.6 3.3 3.5 6.9 4.6 4.2 1.3 8.7 2.9 8.7 7.7v.3c0 5.1-4.2 8.1-9.6 8.1-3.9-.1-8.2-1.6-11.2-4z"/></svg>