<svg version="1.1" id="Layer_1" xmlns="http://www.w3.org/2000/svg" x="0" y="0" width="484.7" height="162" style="enable-background:new 0 0 484.7 162" xml:space="preserve"><style>.st0{fill:#006548}</style><path class="st0" d="M300.2 53.7c-9-1-16.6 0-21.7 5.3-4.8 4.8-5.6 11.8-5.6 18.6v41.9h-22.5V34.2h21.5v8.5c7.2-8.6 17.8-11.8 28.3-10.1v21.1zM364.4 78.4c-4.8 3-12.1 4.5-21.3 5.5-11.1 1.2-17.9 3.5-17.9 9.8 0 4.8 5.8 8.1 14.9 8.1 13.5 0 24.4-4.5 24.4-15.4v-8zm.7 33.2c-5.8 6-14.7 9.6-27 9.6-18.6 0-35.7-9.1-35.7-27.7 0-19.2 16.6-24.2 36-25.9 14.7-1.3 25.1-3 25.1-9.9 0-4.5-6-8.1-16-8.1-8 0-17.2 3.5-19.3 10.8h-22.5C307.9 44.1 323.9 32 347 32c35.7 0 38.4 22.4 38.4 29.2v44.4c0 4.1 1.4 10.6 2.6 13.9h-20.7c-1-2.1-1.7-4.8-2.2-7.9M437.9 135.1c-8.5 22.2-22 25.2-40.5 24v-19.9c11.3.7 16.6-2 20.3-11.8l2.6-6.5-34-86.9h23.9l21.5 61.7 21-61.7h24.1l-38.9 101.1zM164.9 2.8V23h31.3v96.1h23.4V23h31.3V2.8z"/><path style="fill:#004a98" d="m109.4 69 38 14.3L123 20.1 83.8 2.7z"/><path class="st0" d="m77.1 118.2-40.5-14 70.1-27.1 38.9 14.7z"/><path style="fill:#5b6670" d="m8 32.2 16.8 43.7L60.7 91 43.5 45.9 89 28.4 56.1 13.7z"/></svg>