<svg version="1.1" id="Layer_1" xmlns="http://www.w3.org/2000/svg" x="0" y="0" width="598.3" height="189" style="enable-background:new 0 0 598.3 189" xml:space="preserve"><style>.st0{fill:#58595b}.st1{fill:red}</style><path class="st0" d="m126.4 12.4-24.5 83.5H77.3l-8.8-44.5-9.8 44.5H34.1L11.8 12.4h23.8l12 46.5 10.1-46.5h22.1l10 45.4 12.3-45.4h24.3zM183.8 95.7h-22.3c-1.1-2.1-1.9-4-2.3-5.6-4.9 4.6-11.1 6.9-18.6 6.9-6.1 0-11-1.4-14.5-4.2-4-3.1-6-7.6-6-13.6 0-6.8 3.4-11.6 10.1-14.4 2.7-1.1 9-2.5 18.9-4 6.7-1.1 10.1-2.9 10.1-5.5 0-3.6-2.8-5.4-8.5-5.4-4.5 0-7 2.5-7.5 7.6h-19.6c-.1-.6-.1-1.7-.1-3.1 0-12.4 9.1-18.6 27.3-18.6 13.1 0 21.9 2.8 26.3 8.5 3.4 4.2 5.1 11.7 5.1 22.4 0 1.6 0 4.3-.1 8-.1 3.8-.1 6.7-.1 8.8.2 6.2.7 10.2 1.8 12.2zm-24-26.1c-3.4 1-6.9 2-10.4 3-4.8 1.9-7.3 4-7.3 6.3 0 1.5.7 2.7 2 3.6 1.3.9 2.8 1.3 4.4 1.3 7.5 0 11.3-4.7 11.3-14.2zM215.6 95.7h-22V14.1h22v81.6zM248.1 95.7h-22V14.1h22v81.6zM462.4 12.4l-24.5 83.5h-24.6l-8.8-44.5-9.8 44.5H370l-22.3-83.5h23.8l12 46.5 10.1-46.5h22.1l10 45.4L438 12.4h24.4zM519.8 95.7h-22.3c-1.1-2.1-1.9-4-2.3-5.6-4.9 4.6-11.1 6.9-18.6 6.9-6.1 0-11-1.4-14.5-4.2-4-3.1-6-7.6-6-13.6 0-6.8 3.4-11.6 10.1-14.4 2.7-1.1 9-2.5 18.9-4 6.7-1.1 10.1-2.9 10.1-5.5 0-3.6-2.8-5.4-8.5-5.4-4.5 0-7 2.5-7.5 7.6h-19.6c-.1-.6-.1-1.7-.1-3.1 0-12.4 9.1-18.6 27.3-18.6 13.1 0 21.9 2.8 26.3 8.5 3.4 4.2 5.1 11.7 5.1 22.4 0 1.6 0 4.3-.1 8-.1 3.8-.1 6.7-.1 8.8.1 6.2.7 10.2 1.8 12.2zm-24.1-26.1c-3.4 1-6.9 2-10.4 3-4.8 1.9-7.3 4-7.3 6.3 0 1.5.7 2.7 2 3.6 1.3.9 2.8 1.3 4.4 1.3 7.6 0 11.3-4.7 11.3-14.2zM551.6 95.7h-22V14.1h22v81.6zM584.1 95.7h-22V14.1h22v81.6z"/><g><path class="st1" d="M343.9 111.9c-4.4 6.3-10.9 10.8-19.4 13.4-6.6 2.1-15 3.2-25.2 3.4-8.1-.2-16.2-.3-24.2-.4l36.7 25.7-15.8 22.6-77.2-54.1c.6-1 1.5-2.5 2.9-4.4 6.4-9.1 16.7-14.5 31-16 12.2 0 24.4.1 36.7.2 13.2-.1 21.9-3 25.9-8.7 2-2.9 2.3-6.1 1-9.7-1.3-3.6-3.4-6.4-6.2-8.4-8.6-6-17.3-2.7-26.1 10l-23.8-16.7c1.5-3.6 3.2-6.6 4.9-9.1 7.3-10.4 17-15.7 29.3-16.1 11.2-.4 22.1 3.2 32.8 10.6 10.2 7.1 17.1 15.8 20.8 25.9 4 11.5 2.7 22.1-4.1 31.8z"/></g><g><path class="st1" d="M376.9 121.2c0 2.7-1 5.2-3 7.4-2.1 2.3-4.4 3.5-7.1 3.5h-7.2v9.1h-8.7v-29.9h15.3c3.2 0 5.8.8 7.7 2.4 2 1.8 3 4.2 3 7.5zm-9 .5c0-2.1-1.6-3.1-4.9-3.1h-3.3v6.4h5.2c.9 0 1.6-.3 2.1-1 .6-.6.9-1.4.9-2.3zM395.6 126.9c-2.4 0-4 .2-5 .6-1.6.7-2.4 2-2.4 4v9.7h-7.9v-21h7.4l.5 2.7c1.7-1.9 3.6-2.9 5.6-2.9.7 0 1.3.1 1.7.2v6.7zM420.2 130.6c0 3.3-1.2 5.9-3.5 8-2.3 2-5.1 3.1-8.4 3.1-3.1 0-5.7-1.1-8-3.2-2.2-2.2-3.4-4.8-3.4-7.8 0-3.2 1.2-5.8 3.6-7.9 2.3-1.9 5-2.9 8.2-2.9 3.1 0 5.7 1 8 3 2.4 2 3.5 4.6 3.5 7.7zm-7.9.1c0-1.4-.3-2.6-.8-3.6-.7-1.2-1.6-1.8-2.9-1.8-2.5 0-3.7 1.8-3.7 5.5s1.3 5.5 4 5.5c1.2 0 2.1-.7 2.7-2 .4-1.1.7-2.3.7-3.6zM457.9 132v9.2h-8v-12.1c0-.7-.3-1.4-.8-1.9-.5-.6-1.1-.9-1.8-.9-.8 0-1.5.3-2 .9-.5.6-.7 1.4-.7 2.3v11.8h-7.9v-11.9c0-.8-.2-1.5-.7-2.1-.5-.6-1.1-.9-1.9-.9-1.8 0-2.7 1.1-2.7 3.2v11.8h-7.9v-21h7.6l.3 2.8c1.5-2.1 3.4-3.2 5.9-3.2 2.8 0 5 1.2 6.5 3.7 1.5-2.5 3.7-3.7 6.6-3.7 2.1 0 3.9.7 5.3 2.1 1.4 1.4 2.2 3.2 2.2 5.3v4.6zM484.2 130.6c0 3.3-1.2 5.9-3.5 8-2.3 2-5.1 3.1-8.4 3.1-3.1 0-5.7-1.1-8-3.2-2.2-2.2-3.4-4.8-3.4-7.8 0-3.2 1.2-5.8 3.6-7.9 2.3-1.9 5-2.9 8.2-2.9 3.1 0 5.7 1 8 3s3.5 4.6 3.5 7.7zm-8 .1c0-1.4-.3-2.6-.8-3.6-.6-1.2-1.6-1.8-2.8-1.8-2.5 0-3.7 1.8-3.7 5.5s1.3 5.5 4 5.5c1.2 0 2.1-.7 2.7-2 .4-1.1.6-2.3.6-3.6zM500.2 141.2c-1.7.4-3.1.5-4.2.5h-1.1c-2.3-.1-4-.7-4.8-1.7-.8-.9-1.3-2.6-1.4-5v-9.3h-2.8V121h2.8v-6.5h7.9v6.5h3.7v4.7h-3.7v7.5c0 1.5.8 2.3 2.3 2.3.4 0 .9-.1 1.4-.2v5.9zM511.1 117.5h-7.9v-5.6h7.9v5.6zm0 23.7h-7.9v-21h7.9v21zM537.3 130.6c0 3.3-1.2 5.9-3.5 8-2.3 2-5.1 3.1-8.4 3.1-3.1 0-5.7-1.1-8-3.2-2.2-2.2-3.4-4.8-3.4-7.8 0-3.2 1.2-5.8 3.6-7.9 2.3-1.9 5-2.9 8.2-2.9 3.1 0 5.7 1 8 3s3.5 4.6 3.5 7.7zm-8 .1c0-1.4-.3-2.6-.8-3.6-.7-1.2-1.6-1.8-2.9-1.8-2.5 0-3.7 1.8-3.7 5.5s1.3 5.5 4 5.5c1.2 0 2.1-.7 2.7-2 .5-1.1.7-2.3.7-3.6zM561.7 132v9.2h-7.9v-12.1c0-.7-.3-1.4-.8-1.9-.5-.6-1.1-.9-1.9-.9-.9 0-1.5.3-2 .9-.5.6-.7 1.4-.7 2.2v11.8h-7.9v-21h7.8l.1 2.3c1.5-1.8 3.4-2.7 5.6-2.7 2.1 0 3.9.7 5.3 2.1 1.4 1.4 2.2 3.2 2.3 5.3.1 1.3.1 2.9.1 4.8zM586 134.3c0 2.6-1.2 4.5-3.6 5.8-1.9 1-4.2 1.5-7.1 1.5-3 0-5.4-.6-7.2-1.7-2.2-1.4-3.3-3.4-3.3-6.2l7.7.2c.2 1.8 1.3 2.7 3.2 2.7 1.5 0 2.3-.6 2.3-1.8 0-.8-1.1-1.5-3.4-1.9-3.3-.6-5.4-1.1-6.3-1.5-2.3-1-3.4-2.5-3.4-4.7 0-2.5 1.2-4.4 3.5-5.6 1.8-.9 4.1-1.4 6.9-1.4 2.6 0 4.7.5 6.5 1.4 2.2 1.2 3.3 3 3.3 5.4H578c-.1-.7-.4-1.2-.9-1.6-.5-.4-1.1-.6-1.8-.6-1.7 0-2.5.5-2.5 1.4 0 .7 1.1 1.2 3.4 1.5 3.1.5 5.2 1 6.4 1.6 2.3 1.2 3.4 3 3.4 5.5z"/></g></svg>