<svg xmlns="http://www.w3.org/2000/svg" xmlns:xlink="http://www.w3.org/1999/xlink" width="792" height="612" style="enable-background:new 0 0 792 612" xml:space="preserve"><style>.st0{display:none}.st1{display:inline}.st9{fill:#fff}.st10{fill:#195379}.st11,.st12{display:inline;fill:#137083}.st12{fill:#1d5575}.st13,.st14,.st15{display:inline;fill:#1d5675}.st14,.st15{fill:#1d5775}.st15{fill:#1c5776}.st16,.st17,.st18{display:inline;fill:#1c5876}.st17,.st18{fill:#1c5977}.st18{fill:#1c5a77}.st19,.st20,.st21{display:inline;fill:#1c5b78}.st20,.st21{fill:#1b5b78}.st21{fill:#1b5c78}.st22,.st23,.st24{display:inline;fill:#1b5c79}.st23,.st24{fill:#1b5d79}.st24{fill:#1a5e79}.st25,.st26,.st27{display:inline;fill:#1a5e7a}.st26,.st27{fill:#1a5f7a}.st27{fill:#1a607a}.st28,.st29,.st30{display:inline;fill:#19607b}.st29,.st30{fill:#19617b}.st30{fill:#19627b}.st31,.st32,.st33{display:inline;fill:#18627c}.st32,.st33{fill:#18637c}.st33{fill:#18647c}.st34,.st35,.st36{display:inline;fill:#17647d}.st35,.st36{fill:#17657d}.st36{fill:#17667d}.st37,.st38,.st39{display:inline;fill:#16677e}.st38,.st39{fill:#16687e}.st39{fill:#15687f}.st40,.st41,.st42{display:inline;fill:#15697f}.st41,.st42{fill:#156a7f}.st42{fill:#156a80}.st43,.st44,.st45{display:inline;fill:#146b80}.st44,.st45{fill:#146c80}.st45{fill:#146c81}.st46,.st47,.st48{display:inline;fill:#146d81}.st47,.st48{fill:#146e81}.st48{fill:#146e82}.st49,.st50,.st51{display:inline;fill:#146f82}.st50,.st51{fill:#137082}.st51{fill:#137183}.st54,.st56,.st59{display:inline;fill:#127384}.st56,.st59{fill:#127585}.st59{fill:#243f6a}.st60,.st61,.st62{display:inline;fill:#24406b}.st61,.st62{fill:#24416b}.st62{fill:#24426b}.st63,.st64,.st65{display:inline;fill:#24426c}.st64,.st65{fill:#24436c}.st65{fill:#24446c}.st66,.st67,.st68{display:inline;fill:#24446d}.st67,.st68{fill:#24456d}.st68{fill:#23466d}.st69,.st70,.st71{display:inline;fill:#23466e}.st70,.st71{fill:#23476e}.st71{fill:#23486e}.st72,.st73,.st74{display:inline;fill:#23496f}.st73,.st74{fill:#234a6f}.st74{fill:#234b70}.st75,.st76,.st77{display:inline;fill:#234c70}.st76,.st77{fill:#234c71}.st77{fill:#234d71}.st78,.st79,.st80{display:inline;fill:#224e71}.st79,.st80{fill:#224f72}.st80{fill:#225072}.st81,.st82,.st83{display:inline;fill:#225173}.st82,.st83{fill:#225273}.st83{fill:#b6b4b6}.st84,.st85,.st86{display:inline;fill:#9d9c9e}.st85,.st86{fill:#9e9d9f}.st86{fill:#9f9ea0}.st87,.st88,.st89{display:inline;fill:#a1a0a2}.st88,.st89{fill:#a2a1a3}.st89{fill:#a3a2a4}.st90,.st91,.st92{display:inline;fill:#a5a3a6}.st91,.st92{fill:#a6a5a7}.st92{fill:#a7a6a8}.st93,.st94,.st95{display:inline;fill:#a9a7a9}.st94,.st95{fill:#aaa9ab}.st95{fill:#abaaac}.st96,.st97,.st98{display:inline;fill:#adabad}.st97,.st98{fill:#aeadae}.st98{fill:#afaeb0}.st100,.st101,.st99{display:inline;fill:#b1afb1}.st100,.st101{fill:#b2b0b2}.st101{fill:#b3b2b3}.st102,.st103,.st104{display:inline;fill:#b4b3b4}.st103,.st104{fill:#b7b5b7}.st104{fill:#b8b7b8}.st105,.st106,.st107{display:inline;fill:#bab8b9}.st106,.st107{fill:#bbb9ba}.st107{fill:#bcbabb}.st108,.st109,.st110{display:inline;fill:#225374}.st109,.st110{fill:#225474}.st110{fill:#225575}.st111,.st112,.st113{display:inline;fill:#215675}.st112,.st113{fill:#215776}.st113{fill:#215876}.st114,.st115,.st116{display:inline;fill:#215977}.st115,.st116{fill:#215a77}.st116{fill:#215b78}.st117,.st118,.st121{display:inline;fill:#215c78}.st118,.st121{fill:#215d79}.st121{fill:#205f7a}.st122,.st123,.st124{display:inline;fill:#20607a}.st123,.st124{fill:#20617b}.st124{fill:#20627b}.st125,.st127,.st128{display:inline;fill:#20637c}.st127,.st128{fill:#1f647c}.st128{fill:#1f657d}.st129,.st130,.st134{display:inline;fill:#1f667d}.st130,.st134{fill:#1f677e}.st134{fill:#1e697f}.st135,.st136,.st138{display:inline;fill:#1e6a7f}.st136,.st138{fill:#1e6b80}.st138{fill:#1d6c80}.st139,.st140,.st142{display:inline;fill:#1d6d81}.st140,.st142{fill:#1d6e81}.st142{fill:#1d6f82}.st143,.st145,.st146{display:inline;fill:#1d7082}.st145,.st146{fill:#1c7183}.st146{fill:#1c7283}.st147,.st150,.st151{display:inline;fill:#1c7384}.st150,.st151{fill:#1b7585}.st151{fill:#1b7685}.st153,.st154,.st156{display:inline;fill:#1a7786}.st154,.st156{fill:#1a7886}.st156{fill:#1d5474}.st157,.st158,.st159{display:inline;fill:#bdbbbd}.st158,.st159{fill:#c8c6c7}.st159{fill:#c9c7c8}.st160,.st161,.st162{display:inline;fill:#dddbdc}.st161,.st162{fill:#cac8c9}.st162{fill:#cbc9ca}.st163,.st164,.st165{display:inline;fill:#cccacb}.st164,.st165{fill:#cdcccc}.st165{fill:#cecdcd}.st166,.st167,.st168{display:inline;fill:#cfcece}.st167,.st168{fill:#d0cfcf}.st168{fill:#d1d0d0}.st169,.st170,.st171{display:inline;fill:#d2d1d2}.st170,.st171{fill:#d4d2d3}.st171{fill:#d5d3d4}.st172,.st173,.st174{display:inline;fill:#d6d4d5}.st173,.st174{fill:#d7d5d6}.st174{fill:#d8d6d7}.st175,.st176,.st177{display:inline;fill:#d9d7d8}.st176,.st177{fill:#dad8d9}.st177{fill:#dbd9da}.st179,.st180,.st181{display:inline;fill:#c0bebf}.st180,.st181{fill:#c1bfc0}.st181{fill:#bebdbe}.st182,.st183,.st184{display:inline;fill:#c2c0c1}.st183,.st184{fill:#c3c1c2}.st184{fill:#c4c3c3}.st185,.st187,.st189{display:inline;fill:#c5c4c5}.st187,.st189{fill:#24466d}.st189{fill:#234e71}.st192,.st196,.st201{display:inline;fill:#225675}.st196,.st201{fill:#215e79}.st201{fill:#1f687e}.st204,.st207,.st209{display:inline;fill:#1e6c80}.st207,.st209{fill:#1d7183}.st209{fill:#1c7484}.st213{clip-path:url(#SVGID_9_)}.st214{clip-path:url(#SVGID_11_)}.st215{clip-path:url(#SVGID_13_)}.st216{clip-path:url(#SVGID_15_)}.st217{clip-path:url(#SVGID_17_)}.st218{clip-path:url(#SVGID_19_)}.st219{clip-path:url(#SVGID_21_)}</style><g id="Layer_1"><path d="M364 248.4c-5.4.2-9.7.3-12.9.3H345c-2.9 0-7.1-.1-12.5-.3-5.4-.2-10.3-.4-14.6-.7.2 1.1.3 2.4.3 3.9s-.1 2.8-.3 3.9c1.3-.3 4-.5 7.8-.7 3.9-.2 7.7-.3 11.6-.3l6.2-.1c.3 9.7.5 21.2.5 34.7 0 9.6-.1 18.3-.2 26.1-.2 5-.3 8.5-.3 10.5-.1 2-.3 3.3-.4 4.1 1.8-.2 3.8-.3 6-.3s4.2.1 6 .3c-.2-.8-.3-2.1-.4-4.1-.1-1.9-.2-5.4-.4-10.5-.2-7.7-.2-16.5-.2-26.2 0-13.4.1-24.9.4-34.6h4.4c3.8 0 7.6.1 11.5.3 3.9.2 6.5.4 7.9.7-.2-1.1-.3-2.4-.3-3.9s.1-2.8.3-3.9c-4.1.4-8.9.6-14.3.8zM454.4 326.2c-1.7-1.9-4.7-5.6-9.2-11l-6.4-7.9c-5.5-6.9-10.3-13-14.3-18.2 5.7-1 10.6-2.8 14.7-5.4 6.4-4.1 9.6-9.5 9.6-16.1 0-6.4-2.2-11.2-6.5-14.4-4.3-3.2-10.8-4.8-19.5-4.8-1.4 0-3 0-4.7.1-1.8 0-3.8.1-5.9.2-1.3.1-3.3.1-5.7 0-2.5-.1-5.6-.2-9.2-.3.2.7.3 2.1.4 4 .1 1.9.2 5.5.4 10.5.2 7.7.2 16.4.2 26.2 0 9.6-.1 18.3-.2 26.1-.2 5.1-.3 8.6-.3 10.5-.1 2-.3 3.3-.4 4 1.8-.2 3.8-.3 6-.3s4.2.1 6 .3c-.2-.8-.3-2.1-.4-4.1-.1-1.9-.2-5.4-.4-10.5-.2-7.5-.2-16-.2-25.4h4c4 4.8 8.6 10.4 13.7 16.9l6.6 8.5c3.1 3.9 5.4 6.8 6.8 8.7 1.4 1.9 2.6 3.9 3.6 5.8 2.2-.2 4.6-.3 7.4-.3 2.8 0 5.2.1 7.4.3-.8-.2-1.8-1.4-3.5-3.4zm-46.3-41.5v-30.5c3-.2 6.3-.4 9.9-.4 6.2 0 11 1.2 14.3 3.7 3.3 2.5 5 6 5 10.6 0 5-2.2 9-6.5 12s-10.1 4.5-17.3 4.5c-1.9-.1-3.7 0-5.4.1zM522.9 289.4c-7-16.2-12.7-29.7-17.1-40.6H503c-4.3 11-10.1 24.6-17.4 40.8-4.3 9.5-8.3 18.1-12 25.8-2.6 5.3-4.4 8.9-5.4 10.8-1 2-1.7 3.2-2.1 3.8 1.4-.2 2.9-.3 4.7-.3 1.8 0 3.4.1 4.7.3.5-2.3 1.1-4.5 1.8-6.4.7-1.9 1.7-4.6 3.1-8.1 1.9-4.9 4.1-10.2 6.6-15.8 4.3-.9 9.3-1.2 14.8-1 5.5.1 10.4.4 14.7 1l6.6 15.8c1.6 3.8 2.7 6.6 3.4 8.6.7 1.9 1.3 3.9 1.8 6 1.9-.2 4-.3 6.5-.3 2.4 0 4.6.1 6.5.3l-6.9-14.6c-3.5-7.9-7.3-16.6-11.5-26.1zm-21.1 3.1c-4.2.1-8-.2-11.5-.7l1.3-3c3.7-8.6 7.2-16.4 10.4-23.4l10.2 23.5 1.2 2.8c-3.7.4-7.5.7-11.6.8zM571.4 248.4c-1.7.2-3.7.3-5.9.3s-4.3-.1-6.1-.3c.3 2.2.6 5.7.7 10.5.1 4.9.2 13.5.2 25.9l.1 12.9.2 22.5c.1 7.9-1.1 13.5-3.6 17-2.3 3.2-6 5-11 5.2l.8 4.3c7.8-.2 13.8-2.5 18-7 4.3-4.7 6.4-11.6 6.3-20.7l-.5-21.3-.2-12.9c0-12.1.1-20.6.2-25.4.1-4.9.4-8.5.8-11zM645.9 289.4c-7-16.2-12.7-29.7-17.1-40.6H626c-4.3 11-10.1 24.6-17.4 40.8-4.3 9.5-8.3 18.1-12 25.8-2.6 5.3-4.4 8.9-5.4 10.8-1 2-1.7 3.2-2.1 3.8 1.4-.2 2.9-.3 4.7-.3 1.8 0 3.4.1 4.7.3.5-2.3 1.1-4.5 1.8-6.4.7-1.9 1.7-4.6 3.1-8.1 1.9-4.9 4.1-10.2 6.6-15.8 4.3-.9 9.3-1.2 14.8-1 5.5.1 10.4.4 14.7 1l6.6 15.8c1.6 3.8 2.7 6.6 3.4 8.6.7 1.9 1.3 3.9 1.8 6 1.9-.2 4-.3 6.5-.3 2.4 0 4.6.1 6.5.3l-6.9-14.6c-3.5-7.9-7.3-16.6-11.5-26.1zm-21.1 3.1c-4.2.1-8-.2-11.5-.7l1.3-3c3.7-8.6 7.2-16.4 10.4-23.4l10.2 23.5 1.2 2.8c-3.6.4-7.5.7-11.6.8zM752.2 252.4c.1-1.9.2-3.3.4-4-1.2.2-2.6.3-4.1.3-1.5 0-2.9-.1-4.1-.3.2.7.3 2.1.4 4 .1 1.9.2 5.5.4 10.5.2 8 .2 17 .2 27l-.1 20.8-19.5-20.2c-15.7-16.5-28.5-30.4-38.6-41.8h-3.4c.2.8.3 2.1.4 4.1.1 1.9.2 5.4.4 10.5.2 7.7.2 16.3.2 25.9s-.1 18.3-.2 26.1c-.2 5-.3 8.5-.4 10.5-.1 1.9-.2 3.3-.4 4.1 1.2-.2 2.6-.3 4.1-.3s2.9.1 4.1.3c-.2-.9-.3-2.3-.4-4.2-.1-1.9-.3-5.4-.4-10.3-.2-7.7-.4-16.5-.4-26.2V269l19.6 20.4c15.7 16.5 28.5 30.4 38.6 41.8h3.2c-.4-11-.6-24.8-.6-41.2 0-10 .1-18.9.2-26.9.2-5.2.3-8.7.4-10.7zM603 376.2c-1.4-4.8-3.2-10.8-5.4-17.9l-3.7-11.5c-.8-2.4-1.3-4-1.7-4.8s-.5-1.4-.6-1.6c.8.1 1.7.1 2.8.1s2 0 2.8-.1c.1.7.2 1.4.4 2.3.2.8.6 2.2 1.1 4.1 1 3.5 2.1 7.3 3.5 11.6l3.8 11.9c1.2-3.5 2.6-7.5 4.1-12 2.4-7.2 4.3-13.2 5.7-18 .6.1 1.2.2 1.6.2s1-.1 1.6-.2c1.4 4.8 3.4 10.8 5.8 18l4.1 11.9c1.2-3.5 2.4-7.5 3.7-11.9l3.5-11.6c.5-1.5.8-2.7 1-3.6.2-.8.4-1.8.5-2.8.6.1 1.3.1 2.1.1s1.4 0 2.1-.1l-2.4 6.4c-1.2 3.4-2.6 7.2-4 11.5-2.4 7.1-4.4 13.1-5.8 17.9-.7-.1-1.3-.2-1.8-.2s-1.1.1-1.8.2c-1.4-4.8-3.2-10.8-5.5-18-1.3-4.1-2.5-7.8-3.6-11.1-1.2 3.3-2.5 7-3.9 11.1-2.5 7.2-4.5 13.2-6 18-.7-.1-1.3-.2-1.8-.2-.9.1-1.5.1-2.2.3zM667.9 360.9c-.2-3.1-1.1-5.5-2.7-7.2-1.8-2-4.5-2.9-8-2.9h-.1c-3.4 0-6.2 1.2-8.4 3.6-2.1 2.4-3.2 5.6-3.2 9.5 0 3.8 1.1 6.9 3.3 9.2 2.2 2.4 5 3.5 8.6 3.5 1.8 0 3.5-.2 5.1-.7 1.6-.5 3.1-1.2 4.4-2.1.1-.5.1-.8.2-1.2.1-.3.2-.7.3-1.1l-.5-.6c-1.2 1.3-2.4 2.3-3.8 2.9-1.4.6-2.9 1-4.5 1-2.7 0-4.8-.9-6.2-2.6-1.5-1.7-2.2-4.2-2.2-7.4v-1h8.8c1.7 0 3.4 0 5.1.1 1.7.1 2.9.2 3.7.3l.1-1.4c.1-.7.1-1.3 0-1.9zm-4.7.6h-12.8c.3-2.5.8-4.4 1.6-5.9 1.2-2 2.9-3.1 5.1-3.1 1.8 0 3.3.7 4.4 2.2 1.1 1.5 1.7 3.4 1.7 5.7v1.1zM694.8 374.7c-.2.1-.5.1-.9.1-.5 0-.9-.2-1.2-.6-.3-.4-.4-1-.4-1.9v-13.2c0-2.7-.8-4.7-2.4-6.2-1.6-1.4-3.9-2.2-6.8-2.2-1.3 0-2.7.3-4.2.8s-2.7 1.2-3.8 2.1v2.9h.6c.6-1.4 1.5-2.4 2.6-3 1.1-.7 2.5-1 4.1-1 2 0 3.5.6 4.5 1.7s1.5 2.7 1.5 4.8v.4c0 .8-.1 1.3-.4 1.6-.3.3-.8.5-1.5.7L680 363c-2.3.4-4.1 1.3-5.3 2.4-1.2 1.2-1.8 2.7-1.8 4.5 0 2 .7 3.6 2 4.8 1.3 1.2 3.1 1.9 5.2 1.9 2.3 0 4.4-.6 6.3-1.9.7-.5 1.4-1 1.9-1.5.2.8.4 1.5.7 2.1.5.9 1.3 1.3 2.3 1.3 1.5 0 2.8-.3 3.7-.8l-.2-1.1zm-6.5-3.9c-.5.7-1.2 1.4-1.9 1.9-1.2.8-2.6 1.1-4.2 1.1-1.5 0-2.6-.4-3.4-1.1-.8-.8-1.2-1.8-1.2-3.3 0-1.4.5-2.5 1.5-3.3 1-.9 2.5-1.5 4.4-1.9l4.9-.9v7.5zM702.4 371.7c.1-4.3.2-9.3.2-15l-.1-14.9c0-1.4 0-2.4-.1-2.9 0-.6-.1-1.1-.2-1.5.7.1 1.5.2 2.4.2.9 0 1.7-.1 2.4-.2-.1.3-.1.8-.2 1.4 0 .6-.1 1.6-.1 3.1-.1 4.3-.1 9.2-.1 14.9l.1 15c0 1.3 0 2.2.1 2.8 0 .6.1 1.2.2 1.7-.7-.1-1.5-.1-2.4-.1-.9 0-1.7 0-2.4.1.1-.3.1-.8.2-1.4v-3.2zM726.8 375.7c-1.2.6-2.4 1-3.8 1-2 0-3.5-.5-4.4-1.6-1-1-1.4-2.6-1.4-4.8v-16.6c-.7 0-1.4 0-2.1.1-.2 0-.4 0-.6.1l-.6.3c.1-.6.1-1.2.1-1.6 0-.5 0-1-.1-1.6l.6.3c.2.1.4.1.5.1l2.1.1V350c0-.8 0-1.5-.1-2.2-.1-.7-.2-1.3-.3-1.6 1-.3 1.8-.6 2.5-.9.7-.3 1.5-.7 2.4-1.2-.1.3-.2 1-.3 2s-.1 2-.1 3.1v2.3c1.7 0 3.1-.1 4.4-.2.2 0 .4 0 .6-.1l.6-.3c-.1.6-.1 1.2-.1 1.6 0 .5 0 1 .1 1.6-.2-.1-.3-.2-.6-.3-.2-.1-.4-.1-.6-.1-1.3-.1-2.7-.1-4.4-.2v16.7c0 1.5.3 2.6.9 3.4.6.8 1.5 1.2 2.7 1.2.7 0 1.4-.2 2.1-.6 0 .3-.1.5-.1.7-.1.2-.1.5 0 .8zM732.6 371.7c.1-4.3.2-9.3.2-15 0-5.6 0-10.6-.1-14.9-.1-1.5-.1-2.5-.1-3.1s-.1-1.1-.2-1.4c.7.1 1.5.2 2.4.2.9 0 1.7-.1 2.4-.2-.2 1.1-.4 2.4-.4 3.9-.1 1.5-.1 3.9-.1 7.2v7.1c.5-.7.9-1.3 1.5-1.9 1.8-1.9 4.1-2.9 6.9-2.9 2.6 0 4.6.8 6.1 2.4 1.5 1.6 2.3 3.7 2.3 6.4v12.1c0 .8 0 1.5.1 2.1.1.6.1 1.4.3 2.4-.7-.1-1.5-.1-2.4-.1s-1.7 0-2.4.1c.1-.4.2-1 .2-1.5.1-.6.1-1.6.1-2.9.1-2.4.1-5 .1-8v-2.4c0-2.4-.5-4.3-1.5-5.7-1-1.4-2.5-2-4.3-2-2.2 0-3.9.7-5 2.1-1.1 1.4-1.7 3.5-1.7 6.3l.1 9.8c0 1.3 0 2.2.1 2.8 0 .6.1 1.2.2 1.7-.7-.1-1.5-.1-2.4-.1-.9 0-1.7 0-2.4.1.1-.4.1-.8.2-1.4-.2-.8-.2-1.8-.2-3.2z"/><linearGradient id="SVGID_1_" gradientUnits="userSpaceOnUse" x1="338.064" y1="-765.365" x2="338.064" y2="-1048.804" gradientTransform="rotate(-3.438 437.654 505.8)"><stop offset="0" style="stop-color:#272660"/><stop offset=".782" style="stop-color:#00a69c"/></linearGradient><path d="M149.4-795.2s86.4-82.9 213-118.8c-.1-.1-118.8 57.2-213 118.8z" style="fill:url(#SVGID_1_)"/><linearGradient id="SVGID_2_" gradientUnits="userSpaceOnUse" x1="299.465" y1="-765.382" x2="299.465" y2="-1048.802" gradientTransform="rotate(-3.438 437.654 505.8)"><stop offset="0" style="stop-color:#272660"/><stop offset=".5" style="stop-color:#156a7f"/><stop offset=".939" style="stop-color:#00a69c"/></linearGradient><path d="m229.1-925.9-21.8 11.6s-7.9 25-6 65.3c8-5.5 16.8-11.1 26.3-16.8-.8-17.2-.7-37.5 1.5-60.1z" style="fill:url(#SVGID_2_)"/><linearGradient id="SVGID_3_" gradientUnits="userSpaceOnUse" x1="299.565" y1="-765.357" x2="299.565" y2="-1048.842" gradientTransform="rotate(-3.438 437.654 505.8)"><stop offset="0" style="stop-color:#272660"/><stop offset=".782" style="stop-color:#00a69c"/></linearGradient><path d="m209-795.4 26-11.3s-2.4-9.4-4.6-25.8c-8.6 4.9-17.2 9.9-25.8 15.1 1.2 7 2.6 14.4 4.4 22z" style="fill:url(#SVGID_3_)"/><linearGradient id="SVGID_4_" gradientUnits="userSpaceOnUse" x1="340.587" y1="-765.355" x2="340.587" y2="-1048.866" gradientTransform="rotate(-3.438 437.654 505.8)"><stop offset="0" style="stop-color:#808184"/><stop offset=".115" style="stop-color:#969597"/><stop offset=".297" style="stop-color:#b6b4b5"/><stop offset=".479" style="stop-color:#d1d0d0"/><stop offset=".658" style="stop-color:#e8e6e6"/><stop offset=".833" style="stop-color:#f7f7f6"/><stop offset="1" style="stop-color:#fff"/></linearGradient><path d="m251.9-799.8 24-15.4s-5-12.4-7.1-38.7c-8 4.4-16.2 8.9-24.5 13.6 1.3 12.4 3.7 26 7.6 40.5z" style="fill:url(#SVGID_4_)"/><linearGradient id="SVGID_5_" gradientUnits="userSpaceOnUse" x1="340.753" y1="-765.336" x2="340.753" y2="-1048.832" gradientTransform="rotate(-3.438 437.654 505.8)"><stop offset="0" style="stop-color:#808184"/><stop offset=".115" style="stop-color:#969597"/><stop offset=".297" style="stop-color:#b6b4b5"/><stop offset=".479" style="stop-color:#d1d0d0"/><stop offset=".658" style="stop-color:#e8e6e6"/><stop offset=".833" style="stop-color:#f7f7f6"/><stop offset="1" style="stop-color:#fff"/></linearGradient><path d="m269.7-916.8-24.3 9.4s-2.6 12.5-2.9 33c8.1-4.6 16.6-9.1 25.5-13.6.1-8.8.7-18.3 1.7-28.8z" style="fill:url(#SVGID_5_)"/><linearGradient id="SVGID_6_" gradientUnits="userSpaceOnUse" x1="377.764" y1="-765.37" x2="377.764" y2="-1048.791" gradientTransform="rotate(-3.438 437.654 505.8)"><stop offset="0" style="stop-color:#808184"/><stop offset=".115" style="stop-color:#969597"/><stop offset=".297" style="stop-color:#b6b4b5"/><stop offset=".479" style="stop-color:#d1d0d0"/><stop offset=".658" style="stop-color:#e8e6e6"/><stop offset=".833" style="stop-color:#f7f7f6"/><stop offset="1" style="stop-color:#fff"/></linearGradient><path d="M283.4-861.9c.8 10.8 2.2 23.6 4.7 38.6l20.6-11s-3.7-16.9-5.5-38.2c-6.3 3.4-13 6.9-19.8 10.6z" style="fill:url(#SVGID_6_)"/><linearGradient id="SVGID_7_" gradientUnits="userSpaceOnUse" x1="378.653" y1="-765.312" x2="378.653" y2="-1048.852" gradientTransform="rotate(-3.438 437.654 505.8)"><stop offset="0" style="stop-color:#808184"/><stop offset=".115" style="stop-color:#969597"/><stop offset=".297" style="stop-color:#b6b4b5"/><stop offset=".479" style="stop-color:#d1d0d0"/><stop offset=".658" style="stop-color:#e8e6e6"/><stop offset=".833" style="stop-color:#f7f7f6"/><stop offset="1" style="stop-color:#fff"/></linearGradient><path d="m303.7-915.8-19.4 10.3s-.7 3.3-1.2 10.1c6.3-2.9 12.8-5.8 19.5-8.6.2-4 .6-8 1.1-11.8z" style="fill:url(#SVGID_7_)"/><g><path class="st9" d="M358.6-845c.1-5.2.2-11 .2-17.4 0-9-.1-16.7-.3-23.1h-4.2c-2.6 0-5.1.1-7.7.2-2.6.1-4.3.3-5.2.5.2-.7.2-1.6.2-2.6s-.1-1.8-.2-2.6c2.9.2 6.1.3 9.7.5 3.6.1 6.4.2 8.3.2h4c2.1 0 5-.1 8.6-.2 3.6-.1 6.8-.3 9.5-.5-.2.7-.2 1.6-.2 2.6s.1 1.8.2 2.6c-.9-.2-2.7-.3-5.3-.5-2.6-.1-5.1-.2-7.6-.2h-3c-.2 6.4-.3 14.1-.3 23 0 6.5.1 12.3.2 17.4.1 3.4.2 5.7.2 7 .1 1.3.1 2.2.2 2.7-1.2-.1-2.5-.2-4-.2s-2.8.1-4 .2c.1-.5.2-1.4.3-2.7.2-1.2.3-3.5.4-6.9zM394.7-845c.1-5.2.2-11 .2-17.4 0-6.5-.1-12.3-.2-17.4-.1-3.4-.2-5.7-.3-7-.1-1.3-.1-2.2-.2-2.7 2.4.1 4.5.2 6.1.2h3.8c1.5-.1 2.8-.1 4-.2h3.2c5.8 0 10.1 1.1 13 3.2 2.9 2.1 4.3 5.3 4.3 9.6 0 4.4-2.1 8-6.4 10.7-2.7 1.7-6 2.9-9.8 3.6 2.6 3.5 5.8 7.6 9.5 12.1l4.3 5.3c3 3.6 5 6 6.1 7.3 1.1 1.3 1.8 2.1 2.1 2.4-1.4-.1-3.1-.2-4.9-.2-1.8 0-3.5.1-4.9.2-.7-1.3-1.5-2.6-2.4-3.9-.9-1.3-2.4-3.2-4.5-5.8l-4.4-5.6c-3.4-4.3-6.4-8.1-9.1-11.3h-2.7c0 6.2.1 11.9.2 16.9.1 3.4.2 5.7.3 7 .1 1.3.1 2.2.2 2.7-1.2-.1-2.5-.2-4-.2s-2.8.1-4 .2c.1-.5.2-1.4.3-2.7 0-1.3.1-3.6.2-7zm6.8-20.3c1.2-.1 2.4-.1 3.6-.1 4.8 0 8.6-1 11.5-3 2.9-2 4.3-4.6 4.3-8 0-3.1-1.1-5.4-3.3-7.1-2.2-1.6-5.4-2.5-9.5-2.5-2.4 0-4.6.1-6.6.3v20.4zM445.1-845c2.5-5.1 5.1-10.8 8-17.2 4.9-10.7 8.7-19.8 11.6-27.2h1.9c2.9 7.3 6.7 16.3 11.4 27.1 2.8 6.4 5.3 12.1 7.7 17.2l4.6 9.7c-1.3-.1-2.7-.2-4.3-.2-1.6 0-3 .1-4.3.2-.3-1.4-.7-2.7-1.2-4-.4-1.3-1.2-3.2-2.2-5.7l-4.4-10.5c-2.9-.4-6.2-.6-9.8-.7-3.7-.2-7 .1-9.9.7-1.6 3.7-3.1 7.3-4.4 10.5-.9 2.3-1.6 4.1-2.1 5.4-.4 1.3-.8 2.7-1.2 4.3-.9-.1-2-.2-3.2-.2-1.2 0-2.2.1-3.1.2.3-.4.7-1.2 1.4-2.5.6-1.2 1.7-3.6 3.5-7.1zm11.9-17.6-.8 2c2.3.4 4.9.5 7.7.5 2.7-.1 5.3-.2 7.7-.5l-.8-1.8-6.8-15.7c-2.2 4.6-4.5 9.7-7 15.5zM502.8-865.3c0-8.3 0-14-.1-17.2-.1-3.2-.2-5.6-.5-7 1.2.1 2.5.2 4 .2s2.8-.1 4-.2c-.3 1.6-.5 4.1-.6 7.3-.1 3.2-.2 8.9-.2 16.9l.1 8.6.3 14.2c.1 6.1-1.3 10.6-4.2 13.8-2.7 3-6.7 4.6-12 4.7l-.5-2.8c3.4-.2 5.8-1.3 7.3-3.5 1.6-2.3 2.4-6.1 2.4-11.3l-.1-15 .1-8.7zM527-845c2.5-5.1 5.1-10.8 8-17.2 4.9-10.7 8.7-19.8 11.6-27.2h1.9c2.9 7.3 6.7 16.3 11.4 27.1 2.8 6.4 5.3 12.1 7.7 17.2l4.6 9.7c-1.3-.1-2.7-.2-4.3-.2-1.6 0-3 .1-4.3.2-.3-1.4-.7-2.7-1.2-4-.4-1.3-1.2-3.2-2.2-5.7l-4.4-10.5c-2.9-.4-6.2-.6-9.8-.7-3.7-.2-7 .1-9.9.7-1.6 3.7-3.1 7.3-4.4 10.5-.9 2.3-1.6 4.1-2.1 5.4-.4 1.3-.8 2.7-1.2 4.3-.9-.1-2-.2-3.2-.2-1.2 0-2.2.1-3.1.2.3-.4.7-1.2 1.4-2.5.6-1.2 1.8-3.6 3.5-7.1zm12-17.6-.8 2c2.3.4 4.9.5 7.7.5 2.7-.1 5.3-.2 7.7-.5l-.8-1.8-6.8-15.7c-2.3 4.6-4.6 9.7-7 15.5zM590.1-845c.1 3.3.2 5.6.3 6.9.1 1.3.2 2.2.3 2.8-.8-.1-1.7-.2-2.7-.2s-1.9.1-2.7.2c.1-.5.2-1.4.2-2.7.1-1.3.1-3.6.3-7 .1-5.2.2-11 .2-17.4 0-6.4-.1-12.1-.2-17.2-.1-3.4-.2-5.7-.3-7-.1-1.3-.1-2.2-.2-2.7h2.4c6.7 7.6 15.3 16.9 25.7 27.8l13 13.5v-13.8c0-6.6-.1-12.6-.2-18-.1-3.4-.2-5.7-.2-7-.1-1.3-.1-2.2-.3-2.7.8.1 1.7.2 2.7.2 1 0 1.9-.1 2.7-.2-.1.5-.2 1.4-.2 2.7-.1 1.3-.1 3.6-.3 7-.1 5.3-.2 11.3-.2 17.9 0 11 .1 20.1.4 27.5h-2.2c-6.7-7.6-15.3-16.9-25.7-27.9l-13-13.6v13.4c-.1 6.5 0 12.3.2 17.5z"/></g><g><path class="st10" d="M531.3-804.4c-.9-3.2-2.1-7.2-3.6-11.9l-2.5-7.7c-.5-1.6-.9-2.6-1.1-3.2-.2-.6-.3-.9-.4-1.1.5.1 1.2.1 1.9.1s1.3 0 1.9-.1l.3 1.5c.1.6.4 1.5.8 2.7.7 2.3 1.4 4.9 2.3 7.8l2.5 7.9c.8-2.3 1.7-5 2.7-8 1.6-4.8 2.8-8.8 3.8-12 .4.1.8.1 1.1.1.3 0 .7 0 1.1-.1 1 3.2 2.2 7.2 3.8 12l2.7 8c.8-2.3 1.6-5 2.5-7.9l2.3-7.8c.3-1 .5-1.8.7-2.4.1-.6.2-1.2.3-1.9.4.1.9.1 1.4.1.5 0 1 0 1.4-.1l-1.6 4.3c-.8 2.3-1.7 4.8-2.7 7.6-1.6 4.7-2.9 8.7-3.9 11.9-.5-.1-.9-.1-1.2-.1-.3 0-.7 0-1.2.1-.9-3.2-2.2-7.2-3.7-12-.9-2.7-1.7-5.2-2.4-7.4-.8 2.2-1.7 4.6-2.6 7.4-1.7 4.8-3 8.8-4 12-.5-.1-.9-.1-1.2-.1-.6.2-1 .2-1.4.3zM567.6-804.1c-2.3 0-4.2-.8-5.7-2.4-1.5-1.6-2.2-3.6-2.2-6.1 0-2.6.7-4.7 2.1-6.3 1.4-1.6 3.3-2.4 5.6-2.4s4.1.7 5.3 2c1.1 1.2 1.7 2.8 1.8 4.8 0 .4.1.8.1 1.2v.9c-.5-.1-1.3-.1-2.5-.2-1.1-.1-2.3-.1-3.4-.1h-5.9v.6c0 2.1.5 3.8 1.5 5 1 1.2 2.4 1.7 4.2 1.7 1.1 0 2.1-.2 3-.6.9-.4 1.8-1.1 2.6-1.9l.3.4c-.1.3-.1.5-.2.8 0 .2-.1.5-.1.8-.9.6-1.9 1.1-2.9 1.4-1.3.2-2.4.4-3.6.4zm3.8-10.1v-.7c0-1.6-.4-2.8-1.1-3.8-.7-1-1.7-1.5-2.9-1.5-1.5 0-2.7.7-3.4 2-.5.9-.9 2.2-1.1 3.9h8.5zM582.6-804.1c-1.4 0-2.6-.4-3.5-1.2-.9-.8-1.3-1.9-1.3-3.2 0-1.2.4-2.2 1.2-3 .8-.8 2-1.3 3.5-1.6l4.3-.8c.5-.1.8-.3 1-.5.2-.2.3-.6.3-1.1v-.2c0-1.4-.3-2.5-1-3.2-.7-.7-1.7-1.1-3-1.1-1.1 0-2 .2-2.7.7-.7.4-1.3 1.1-1.7 2h-.4v-2c.7-.6 1.6-1.1 2.5-1.4 1-.4 1.9-.5 2.8-.5 2 0 3.5.5 4.6 1.4 1.1 1 1.6 2.3 1.6 4.1v8.8c0 .6.1 1 .3 1.3.2.3.4.4.8.4.2 0 .5 0 .6-.1l.2.8c-.6.4-1.5.6-2.5.5-.7 0-1.2-.3-1.5-.9-.2-.4-.4-.8-.5-1.4-.4.4-.8.7-1.3 1-1.4.8-2.8 1.2-4.3 1.2zm5.5-8.9-3.2.6c-1.3.3-2.3.7-2.9 1.3-.7.6-1 1.3-1 2.2 0 .9.3 1.7.8 2.2.5.5 1.3.8 2.3.8 1.1 0 2-.3 2.8-.8.5-.3.9-.8 1.3-1.3v-5zM597.5-807.4c.1-2.9.1-6.2.1-10l-.1-9.9c0-.9 0-1.6-.1-2 0-.4-.1-.7-.1-1 .5.1 1 .1 1.6.1.6 0 1.1 0 1.6-.1 0 .2-.1.5-.1.9s-.1 1.1-.1 2.1c-.1 2.8-.1 6.1-.1 9.9l.1 10c0 .8 0 1.4.1 1.8 0 .4.1.8.1 1.1-.5-.1-1-.1-1.6-.1-.6 0-1.1 0-1.6.1 0-.2.1-.5.1-.9.1-.4.1-1.1.1-2zM613.7-804.7c-.8.4-1.6.6-2.5.6-1.3 0-2.3-.3-3-1-.6-.7-1-1.8-1-3.2v-11.1c-.5 0-.9 0-1.4.1-.1 0-.2 0-.4.1-.1.1-.3.1-.4.2 0-.4.1-.8.1-1.1 0-.3 0-.7-.1-1.1.1.1.2.1.4.2.1.1.3.1.4.1l1.4.1v-.9c0-.5 0-1-.1-1.5s-.1-.8-.2-1.1c.7-.2 1.2-.4 1.7-.6.5-.2 1-.5 1.6-.8-.1.2-.1.7-.2 1.3-.1.7-.1 1.3-.1 2.1v1.6c1.1 0 2.1 0 2.9-.1.1 0 .2 0 .4-.1.1-.1.3-.1.4-.2 0 .4-.1.8-.1 1.1 0 .3 0 .7.1 1.1-.1-.1-.2-.1-.4-.2-.1-.1-.3-.1-.4-.1-.8-.1-1.8-.1-2.9-.1v11.1c0 1 .2 1.7.6 2.2.4.5 1 .8 1.8.8.5 0 .9-.1 1.4-.4v.9zM617.6-807.4c.1-2.9.1-6.2.1-10s0-7.1-.1-9.9c0-1-.1-1.7-.1-2.1 0-.4-.1-.7-.1-.9.5.1 1 .1 1.6.1s1.1 0 1.6-.1c-.1.8-.2 1.6-.3 2.6 0 1-.1 2.6-.1 4.8v4.7c.3-.5.6-.9 1-1.3 1.2-1.3 2.7-1.9 4.6-1.9 1.7 0 3.1.5 4.1 1.6 1 1.1 1.5 2.5 1.5 4.3v8.1c0 .5 0 1 .1 1.4 0 .4.1.9.2 1.6-.5-.1-1-.1-1.6-.1-.6 0-1.1 0-1.6.1.1-.3.1-.6.1-1s.1-1 .1-1.9c0-1.6.1-3.4.1-5.3v-1.6c0-1.6-.3-2.9-1-3.8-.7-.9-1.6-1.4-2.9-1.4-1.5 0-2.6.5-3.3 1.4-.7.9-1.1 2.3-1.1 4.2l.1 6.5c0 .8 0 1.4.1 1.8 0 .4.1.8.1 1.1-.5-.1-1-.1-1.6-.1-.6 0-1.1 0-1.6.1 0-.2.1-.6.1-.9-.1-.5-.1-1.2-.1-2.1z"/></g></g><g id="Layer_6"><defs><path id="SVGID_8_" d="M107.1 294.5V309.3c.4-.3.8-.5 1.2-.8.4-.3.8-.6 1.2-.8.4-.3.8-.5 1.2-.8.5-.3 1-.7 1.5-1l.9-.6 1.8-1.2c.2-.1.4-.3.7-.4.7-.5 1.4-.9 2.1-1.4.1-.1.3-.2.4-.3.8-.5 1.6-1 2.4-1.6l.1-.1c.8-.6 1.7-1.1 2.6-1.7l.1-.1c.8-.5 1.6-1 2.4-1.6.1-.1.3-.2.4-.3.7-.5 1.4-.9 2.2-1.4.2-.2.5-.3.7-.5.6-.4 1.3-.8 1.9-1.2.3-.2.7-.4 1-.6.5-.3 1.1-.7 1.6-1 .4-.3.9-.5 1.3-.8.5-.3.9-.6 1.3-.8.5-.3 1.1-.7 1.6-1 .4-.2.7-.4 1.1-.7.6-.4 1.3-.8 1.9-1.2.3-.2.5-.3.8-.5.7-.5 1.5-.9 2.2-1.4.2-.1.3-.2.5-.3.7-.4 1.4-.8 2.1-1.3v-.4c0-.5 0-1-.1-1.5v-.1c0-.5 0-1-.1-1.4v-.2c0-.4 0-.8-.1-1.3v-48.2c0-.5 0-1 .1-1.5v-3c0-.5 0-.9.1-1.4v-.1c0-.5 0-1 .1-1.5v-.4c0-.4 0-.7.1-1.1v-1.5c0-.5 0-.9.1-1.4v-.1c0-.5.1-1 .1-1.5v-.4c0-.4 0-.7.1-1.1 0-.3 0-.6.1-.9v-.6c0-.5.1-.9.1-1.4v-.1c0-.5.1-1 .1-1.5h.3-.3v-.3c0-.7.1-1.3.1-2s.1-1.3.1-2 .1-1.3.2-2 .1-1.3.2-2 .1-1.3.2-2c0-.4.1-.7.1-1.1v-.1c0-.3 0-.5.1-.8.1-.7.1-1.3.2-2s.1-1.3.2-2c0-.4.1-.9.1-1.3l-2.8 1.5-4.2 2.2-4.2 2.2-.2.1-.3.1-3.7 2-4.2 2.2-4.2 2.2-4.2 2.2-3.5 2.6-.4.2s0 .1-.1.2c0 .1-.1.2-.1.4-.1.3-.2.7-.3 1.2 0 .1-.1.2-.1.4-.1.4-.3.9-.4 1.5v.1c-.1.4-.2.9-.4 1.4 0 .2-.1.4-.2.6-.1.3-.1.6-.2.9-.1.4-.2.7-.3 1.1 0 .1-.1.3-.1.4l-.3 1.5v.1c-.1.5-.2.9-.3 1.4 0 .2-.1.4-.1.6-.1.3-.1.6-.2.9-.1.4-.1.7-.2 1.1 0 .1-.1.3-.1.4l-.3 1.5v.1c-.1.5-.2.9-.3 1.4 0 .2-.1.4-.1.6-.1.3-.1.6-.2.9-.1.4-.1.7-.2 1.1 0 .1-.1.3-.1.4l-.3 1.5v.1c-.1.5-.2 1-.2 1.5 0 .2-.1.4-.1.5-.1.3-.1.6-.2 1-.1.3-.1.7-.2 1 0 .2 0 .3-.1.5-.1.5-.2 1-.2 1.5-.1.5-.1 1-.2 1.5v.2c-.1.4-.1.9-.2 1.3v.4c-.1.4-.1.8-.2 1.2 0 .2 0 .3-.1.5 0 .3-.1.7-.1 1 0 .2-.1.5-.1.7 0 .3-.1.5-.1.8 0 .3-.1.6-.1.8 0 .2-.1.4-.1.7 0 .3-.1.7-.1 1 0 .2 0 .3-.1.5 0 .4-.1.8-.1 1.2v.3c0 .4-.1.9-.1 1.3v.2c-.1.5-.1 1-.2 1.5s-.1 1-.2 1.5v.2c0 .4-.1.9-.1 1.3v.3c0 .4-.1.8-.1 1.2v.5c0 .3-.1.7-.1 1 0 .2 0 .4-.1.7 0 .3 0 .6-.1.9 0 .3 0 .5-.1.8 0 .2 0 .5-.1.7 0 .3 0 .7-.1 1v.5c0 .4-.1.8-.1 1.1v.4c0 .4-.1.9-.1 1.3v.2c0 .5-.1 1-.1 1.5s-.1 1-.1 1.5v.1c0 .5-.1.9-.1 1.4v.3c0 .4 0 .8-.1 1.2v19.5c-.2.7-.2 1-.2 1.3z"/></defs><use xlink:href="#SVGID_8_" style="overflow:visible"/><clipPath id="SVGID_9_"><use xlink:href="#SVGID_8_" style="overflow:visible"/></clipPath><path class="st213" d="m149.3 231.8-39.8-3.9 3.3-34.1h36.5z"/><path class="st213" d="m149.3 233.3-40-3.9.2-1.5 39.8 3.9z"/><path class="st213" d="m149.3 234.8-40.1-3.9.1-1.5 40 3.9z"/><path class="st213" d="m149.3 236.4-40.3-4 .2-1.5 40.1 3.9zM149.3 237.9l-40.4-3.9.1-1.6 40.3 4z"/><path class="st213" d="m149.3 239.4-40.6-3.9.2-1.5 40.4 3.9zM149.3 241l-40.7-4 .1-1.5 40.6 3.9z"/><path class="st213" d="m149.3 242.5-40.9-4 .2-1.5 40.7 4z"/><path class="st213" d="m149.3 244.1-41-4.1.1-1.5 40.9 4z"/><path class="st213" d="m149.3 245.6-41.2-4 .2-1.6 41 4.1z"/><path class="st213" d="m149.3 247.1-41.3-4 .1-1.5 41.2 4z"/><path class="st213" d="m149.3 248.7-41.5-4.1.2-1.5 41.3 4z"/><path class="st213" d="m149.3 250.2-41.6-4.1.1-1.5 41.5 4.1z"/><path class="st213" d="m149.3 251.7-41.8-4.1.2-1.5 41.6 4.1zM149.3 253.3l-41.9-4.1.1-1.6 41.8 4.1z"/><path class="st213" d="m149.3 254.8-42.1-4.1.2-1.5 41.9 4.1zM149.3 256.3l-42.2-4.1v-.3l.1-1.2 42.1 4.1z"/><path class="st213" d="m149.3 257.9-42.2-4.1v-1.6l42.2 4.1z"/><path class="st213" d="m149.3 259.4-42.2-4.1v-1.5l42.2 4.1z"/><path class="st213" d="m149.3 260.9-42.2-4.1v-1.5l42.2 4.1z"/><path class="st213" d="m149.3 262.5-42.2-4.1v-1.6l42.2 4.1z"/><path class="st213" d="m149.3 264-42.2-4.1v-1.5l42.2 4.1zM149.3 265.6l-42.2-4.2v-1.5l42.2 4.1z"/><path class="st213" d="m149.3 267.1-42.2-4.1v-1.6l42.2 4.2z"/><path class="st213" d="m149.3 268.6-42.2-4.1V263l42.2 4.1z"/><path class="st213" d="m149.3 270.2-42.2-4.2v-1.5l42.2 4.1z"/><path class="st213" d="m149.3 271.7-42.2-4.1V266l42.2 4.2z"/><path class="st213" d="m149.3 273.2-42.2-4.1v-1.5l42.2 4.1zM149.3 274.8l-42.2-4.2v-1.5l42.2 4.1z"/><path class="st213" d="m149.3 276.3-42.2-4.1v-1.6l42.2 4.2z"/><path class="st213" d="m149.3 277.8-42.2-4.1v-1.5l42.2 4.1z"/><path class="st213" d="m149.3 279.4-42.2-4.1v-1.6l42.2 4.1z"/><path class="st213" d="m149.3 280.9-42.2-4.1v-1.5l42.2 4.1z"/><path class="st213" d="m149.3 281.4-.1 1-42.1-4.1v-1.5l42.2 4.1zM149.2 282.4l-.2 1.6-41.9-4.1v-1.6z"/><path class="st213" d="m149 284-.1 1.5-41.8-4.1v-1.5z"/><path class="st213" d="m148.9 285.5-.2 1.5-41.6-4.1v-1.5zM148.7 287l-.1 1.5-41.5-4v-1.6z"/><path class="st213" d="m148.6 288.5-.2 1.5-41.3-4v-1.5z"/><path class="st213" d="m148.4 290-.1 1.6-41.2-4.1V286z"/><path class="st213" d="m148.3 291.6-.2 1.5-41-4v-1.6zM148.1 293.1l-.1 1.5-40.9-4v-1.5z"/><path class="st213" d="m148 294.6-.2 1.5-40.7-4v-1.5z"/><path class="st213" d="m147.8 296.1-.1 1.6-40.6-4v-1.6z"/><path class="st213" d="m147.7 297.7-.2 1.5-40.4-4v-1.5z"/><path class="st213" d="m147.5 299.2-.1 1.5-40.3-3.9v-1.6z"/><path class="st213" d="m147.4 300.7-.2 1.5-40.1-3.9v-1.5zM147.2 302.2l-.1 1.5-40-3.9v-1.5z"/><path class="st213" d="m147.1 303.7-.2 1.6-39.8-3.9v-1.6z"/><path class="st213" d="m146.9 305.3-.1 1.5-39.7-3.9v-1.5z"/><path class="st213" d="m146.8 306.8-.2 1.5-39.5-3.9v-1.5z"/><path class="st213" d="m146.6 308.3-.1 1h-5.4l-34-3.3v-1.6z"/><path class="st213" d="m125.4 309.3-18.3-1.8V306l34 3.3zM109.8 309.3l-2.7-.3v-1.5l18.3 1.8z"/><path class="st213" d="m107.1 309 2.7.3h-2.7z"/><g><defs><path id="SVGID_10_" d="M157.9 371.6c-.1-.4-.2-.9-.3-1.5-.1-.4-.2-.9-.3-1.5l-.3-1.5-.3-1.5-.3-1.5-.3-1.5-.3-1.5-.3-1.5-.3-1.5-.3-1.5-.3-1.5-.3-1.5-.3-1.5-.3-1.5c-.1-.5-.2-1-.2-1.5-.1-.5-.2-1-.2-1.5-.1-.5-.2-1-.2-1.5-.1-.5-.2-1-.2-1.5-.1-.5-.2-1-.2-1.5-.1-.5-.1-1-.2-1.5s-.1-1-.2-1.5-.1-1-.2-1.5-.1-1-.2-1.5-.1-1-.2-1.5-.1-1-.2-1.5c0-.2 0-.3-.1-.5-.3.2-.6.3-.9.5-1 .6-1.9 1.1-2.9 1.7-1 .6-1.9 1.1-2.9 1.7-1 .6-1.9 1.1-2.9 1.7-1 .6-1.9 1.1-2.9 1.7-1 .6-1.9 1.1-2.9 1.7-1 .6-1.9 1.1-2.9 1.7-1 .6-1.9 1.1-2.9 1.7-.9.6-1.9 1.1-2.8 1.7-.9.6-1.9 1.1-2.8 1.7-.9.6-1.9 1.1-2.8 1.7-.9.6-1.9 1.1-2.8 1.7-.9.6-1.9 1.1-2.8 1.7-.9.6-1.9 1.1-2.8 1.7l-.6.3c.1.4.1.8.2 1.2l.3 1.5.3 1.5.3 1.5.3 1.5.3 1.5.3 1.5.3 1.5.3 1.5.3 1.5.3 1.5.3 1.5.3 1.5.3 1.5.3 1.5.3 1.5.3 1.5.3 1.5.3 1.5.3 1.5.3 1.5.3 1.5c.1.2.1.5.2.7l2-.9 4-1.7 4-1.7 4-1.7 4-1.7 4-1.7 4-1.7 4-1.7 4-1.7 4-1.7.9-.4c-.2-.6-.3-.9-.5-1.7z"/></defs><use xlink:href="#SVGID_10_" style="overflow:visible"/><clipPath id="SVGID_11_"><use xlink:href="#SVGID_10_" style="overflow:visible"/></clipPath><path class="st214" d="M158.2 334h-.2.2zM158.2 335.5l-15.9-1.5H158.2z"/><path class="st214" d="m158.2 337.1-31.6-3.1h15.7l15.9 1.5zM158.2 338.6l-45.5-4.4v-.2h13.9l31.6 3.1z"/><path class="st214" d="m158.2 340.2-45.6-4.5.1-1.5 45.5 4.4zM158.2 341.7l-45.7-4.5v-1.1l.1-.4 45.6 4.5z"/><path class="st214" d="m158.2 343.2-45.7-4.4v-1.6l45.7 4.5z"/><path class="st214" d="m158.2 344.8-45.7-4.5v-1.5l45.7 4.4z"/><path class="st214" d="m158.2 346.3-45.7-4.5v-1.5l45.7 4.5z"/><path class="st214" d="m158.2 347.8-45.7-4.4v-1.6l45.7 4.5z"/><path class="st214" d="m158.2 349.4-45.7-4.5v-1.5l45.7 4.4z"/><path class="st214" d="m158.2 350.9-45.7-4.5v-1.5l45.7 4.5z"/><path class="st214" d="m158.2 352.4-45.7-4.4v-1.6l45.7 4.5z"/><path class="st214" d="m158.2 354-45.7-4.5V348l45.7 4.4z"/><path class="st214" d="m158.2 355.5-45.7-4.5v-1.5l45.7 4.5z"/><path class="st214" d="m158.2 357-45.7-4.4V351l45.7 4.5z"/><path class="st214" d="m158.2 358.6-45.7-4.5v-1.5l45.7 4.4z"/><path class="st214" d="m158.2 360.1-45.7-4.5v-1.5l45.7 4.5z"/><path class="st214" d="m158.2 361.7-45.7-4.5v-1.6l45.7 4.5z"/><path class="st214" d="m158.2 363.2-45.7-4.5v-1.5l45.7 4.5z"/><path class="st214" d="m158.2 364.7-45.7-4.4v-1.6l45.7 4.5z"/><path class="st214" d="m158.2 366.3-45.7-4.5v-1.5l45.7 4.4z"/><path class="st214" d="m158.2 367.8-45.7-4.5v-1.5l45.7 4.5z"/><path class="st214" d="m158.2 369.3-45.7-4.4v-1.6l45.7 4.5z"/><path class="st214" d="m158.2 370.9-45.7-4.5v-1.5l45.7 4.4z"/><path class="st214" d="m158.2 372.4-45.7-4.5v-1.5l45.7 4.5z"/><path class="st214" d="m158.2 373.9-45.7-4.4v-1.6l45.7 4.5z"/><path class="st214" d="m158.2 375.5-45.7-4.5v-1.5l45.7 4.4z"/><path class="st214" d="m158.2 377-45.7-4.5V371l45.7 4.5z"/><path class="st214" d="m158.2 378.6-45.7-4.5v-1.6l45.7 4.5z"/><path class="st214" d="m158.2 380.1-45.7-4.5v-1.5l45.7 4.5z"/><path class="st214" d="m158.2 381.6-45.7-4.5v-1.5l45.7 4.5z"/><path class="st214" d="m158.2 383.2-45.7-4.5v-1.6l45.7 4.5z"/><path class="st214" d="m158.2 384.7-45.7-4.5v-1.5l45.7 4.5z"/><path class="st214" d="m158.2 386.2-45.7-4.4v-1.6l45.7 4.5z"/><path class="st214" d="m158.2 387.8-45.7-4.5v-1.5l45.7 4.4z"/><path class="st214" d="m158.2 389.3-45.7-4.5v-1.5l45.7 4.5z"/><path class="st214" d="m146.5 389.7-34-3.3v-1.6l45.7 4.5v.4z"/><path class="st214" d="m130.8 389.7-18.3-1.8v-1.5l34 3.3zM115.1 389.7l-2.6-.3v-1.5l18.3 1.8z"/><path class="st214" d="m112.5 389.4 2.6.3h-2.6z"/></g><g><defs><path id="SVGID_12_" d="M219 358.8c-.1-.4-.3-.8-.5-1.3-.1-.4-.3-.9-.5-1.5 0-.1-.1-.2-.1-.3-.1-.4-.2-.7-.3-1.1-.1-.5-.3-1-.4-1.5-.1-.2-.1-.4-.2-.6l-.3-.9c-.1-.5-.3-1-.4-1.5-.1-.3-.1-.5-.2-.8-.1-.2-.1-.5-.2-.7-.1-.5-.2-1-.4-1.5-.1-.3-.2-.7-.2-1 0-.2-.1-.3-.1-.5l-.3-1.5c-.1-.4-.2-.8-.3-1.3 0-.1 0-.2-.1-.2l-.3-1.5-.3-1.5-.3-1.5-.3-1.5v-.2c-.1-.4-.2-.8-.2-1.3l-.3-1.5c0-.1-.1-.3-.1-.4-.1-.3-.1-.7-.2-1l-.3-1.5c0-.2-.1-.4-.1-.7 0-.3-.1-.5-.1-.8-.1-.5-.2-1-.2-1.5 0-.3-.1-.6-.1-.9 0-.2-.1-.4-.1-.6-.1-.5-.2-1-.2-1.5-.1-.4-.1-.7-.2-1.1 0-.1 0-.2-.1-.4-.1-.5-.1-1-.2-1.5-.1-.4-.1-.9-.2-1.3v-.1c-.1-.5-.1-1-.2-1.5s-.1-1-.2-1.5v-.1c-.1-.5-.1-.9-.2-1.4-.1-.5-.1-1-.2-1.5v-.3c0-.4-.1-.8-.1-1.2-.1-.5-.1-1-.2-1.5 0-.2 0-.4-.1-.5 0-.3-.1-.6-.1-1-.1-.5-.1-1-.2-1.5 0-.3 0-.5-.1-.8 0-.2 0-.5-.1-.7 0-.5-.1-1-.1-1.5 0-.3-.1-.7-.1-1v-.5c0-.5-.1-1-.1-1.5 0-.2 0-.4-.1-.6-.4.2-.8.4-1.2.7-1 .6-2 1.1-3.1 1.7-.3.2-.7.4-1 .6-.7.4-1.4.7-2 1.1-1 .6-2 1.1-3.1 1.7-.5.3-1 .5-1.5.8-.5.3-1 .6-1.6.9-1 .6-2 1.1-3 1.7-.6.4-1.3.7-1.9 1.1-.4.2-.7.4-1.1.6-1 .6-2 1.1-3 1.7-.8.4-1.6.9-2.4 1.3-.2.1-.4.2-.6.4-1 .6-2 1.1-3 1.7-.9.5-1.9 1.1-2.8 1.6-.1 0-.1.1-.2.1-1 .6-2 1.1-3 1.7-.7.4-1.5.8-2.2 1.3v.5h.1c.1.4.1.9.2 1.4.1.5.1 1 .2 1.5v.4c0 .4.1.7.1 1.1.1.5.1 1 .2 1.5 0 .2 0 .4.1.6 0 .3.1.6.1.9.1.5.1 1 .2 1.5 0 .3.1.5.1.8 0 .2.1.4.1.7.1.5.1 1 .2 1.5.1.3.1.7.1 1 0 .1 0 .3.1.4.1.5.2 1 .2 1.5.1.4.1.8.2 1.3v.2c.1.5.2 1 .2 1.5.1.5.2 1 .2 1.5.1.5.2 1 .2 1.5l.3 1.5v.2c.1.4.1.8.2 1.3l.3 1.5c0 .2.1.3.1.5.1.3.1.7.2 1l.3 1.5c0 .2.1.5.1.7 0 .3.1.5.2.8l.3 1.5c.1.3.1.6.2.9 0 .2.1.4.1.6l.3 1.5c.1.4.1.8.2 1.1 0 .1 0 .2.1.4l.3 1.5c.1.4.2.9.3 1.4v.1l.3 1.5.3 1.5v.1c.1.5.2.9.3 1.4l.3 1.5c0 .1.1.2.1.3l.3 1.2c.1.5.2 1 .4 1.5 0 .2.1.4.1.5.1.3.1.6.2.9.1.5.2 1 .4 1.5.1.3.1.5.2.8.1.2.1.5.2.7.1.5.3 1 .4 1.5.1.3.2.7.3 1 0 .2.1.3.1.5.1.5.3 1 .4 1.5l.3 1.2c0 .1 0 .2.1.3.1.5.3 1 .4 1.5.1.3.2.7.3 1l1.7-1.1 2.6-1.7.5-.3 2.1-1.4 2.6-1.7.8-.5 1.7-1.1 2.6-1.7 1.2-.8 1.3-.9 2.6-1.7 1.6-1 1-.6 2.6-1.7 2-1.3.6-.4 2.6-1.7 2.4-1.5.2-.1 2.6-1.7.7-.5s-.1-.4-.4-1c-.2-.3-.2-.4-.2-.4z"/></defs><use xlink:href="#SVGID_12_" style="overflow:visible"/><clipPath id="SVGID_13_"><use xlink:href="#SVGID_12_" style="overflow:visible"/></clipPath><path class="st215" d="m219.4 303-47.5-.3v-.8h47.5z"/><path class="st215" d="m219.4 305.4-47.5-.3v-2.4l47.5.3z"/><path class="st215" d="m219.4 307.7-47.5-.3v-2.3l47.5.3zM219.4 310.1l-47.5-.3v-2.4l47.5.3z"/><path class="st215" d="m219.4 312.4-47.5-.3v-2.3l47.5.3zM219.4 314.8l-47.5-.4v-2.3l47.5.3z"/><path class="st215" d="m219.4 317.1-47.5-.3v-2.4l47.5.4z"/><path class="st215" d="m219.4 319.5-47.5-.4v-2.3l47.5.3z"/><path class="st215" d="m219.4 321.8-47.5-.3v-2.4l47.5.4z"/><path class="st215" d="m219.4 324.2-47.5-.4v-2.3l47.5.3z"/><path class="st215" d="m219.4 326.5-47.5-.3v-2.4l47.5.4z"/><path class="st215" d="m219.4 328.9-47.5-.4v-2.3l47.5.3z"/><path class="st215" d="m219.4 331.2-47.5-.3v-2.4l47.5.4zM219.4 333.6l-47.5-.4v-2.3l47.5.3z"/><path class="st215" d="m219.4 335.9-47.5-.3v-2.4l47.5.4zM219.4 338.3l-47.5-.4v-2.3l47.5.3z"/><path class="st215" d="m219.4 340.6-47.5-.3v-2.4l47.5.4z"/><path class="st215" d="m219.4 343-47.5-.4v-2.3l47.5.3z"/><path class="st215" d="m219.4 345.3-47.5-.3v-2.4l47.5.4z"/><path class="st215" d="m219.4 347.7-47.5-.4V345l47.5.3z"/><path class="st215" d="m219.4 350-47.5-.3v-2.4l47.5.4z"/><path class="st215" d="m219.4 352.4-47.5-.4v-2.3l47.5.3z"/><path class="st215" d="m219.4 354.7-47.5-.3V352l47.5.4z"/><path class="st215" d="m219.4 357-47.5-.3v-2.3l47.5.3z"/><path class="st215" d="m219.4 359.4-47.5-.3v-2.4l47.5.3z"/><path class="st215" d="m219.4 361.7-47.5-.3v-2.3l47.5.3zM219.4 364.1l-47.5-.3v-2.4l47.5.3z"/><path class="st215" d="m219.4 366.4-47.5-.3v-2.3l47.5.3zM219.4 368.8l-47.5-.3v-2.4l47.5.3z"/><path class="st215" d="m219.4 371.1-47.5-.3v-2.3l47.5.3z"/><path class="st215" d="m219.4 373.5-47.5-.4v-2.3l47.5.3z"/><path class="st215" d="m219.4 375.8-47.5-.3v-2.4l47.5.4z"/><path class="st215" d="m219.4 378.2-47.5-.4v-2.3l47.5.3z"/><path class="st215" d="m219.4 380.5-47.5-.3v-2.4l47.5.4z"/><path class="st215" d="m219.4 382.9-47.5-.4v-2.3l47.5.3z"/><path class="st215" d="m171.9 382.5 47.5.4v.2h-47.5z"/></g><g><defs><path id="SVGID_14_" d="M173.7 268.5c.5-.3.9-.5 1.4-.8.5-.3 1.1-.6 1.6-.9 1-.6 2-1.1 3.1-1.7.6-.3 1.3-.7 1.9-1 .4-.2.8-.4 1.2-.7 1-.6 2.1-1.1 3.1-1.7.8-.4 1.6-.9 2.4-1.3.3-.1.5-.3.8-.4 1.1-.6 2.1-1.1 3.2-1.7 1-.5 2-1 3-1.6.1 0 .2-.1.3-.1 1.1-.6 2.2-1.1 3.3-1.7 1.1-.6 2.2-1.1 3.3-1.7.1 0 .1-.1.2-.1 1-.5 2.1-1.1 3.1-1.6.6-.3 1.3-.6 1.9-1v-5.2c0-.5 0-1 .1-1.5v-1.5c0-.5 0-1 .1-1.5v-1.5c0-.5 0-1 .1-1.5 0-.4 0-.8.1-1.2v-.3c0-.5 0-1 .1-1.5 0-.5.1-1 .1-1.5s.1-1 .1-1.5.1-1 .1-1.5v-.2c0-.4.1-.9.1-1.3 0-.5.1-1 .1-1.5v-.4c0-.4 0-.7.1-1.1 0-.5.1-1 .1-1.5v-.6c0-.3 0-.6.1-.9 0-.5.1-1 .1-1.5 0-.3 0-.6.1-.9v-.6c0-.5.1-1 .1-1.5 0-.4.1-.7.1-1.1v-.4c0-.5.1-1 .1-1.5 0-.4.1-.9.1-1.3v-.2c0-.5.1-1 .1-1.5 0-.3 0-.5.1-.8 0-.3 0-.5.1-.8.1-1.1.2-2.2.3-3.2h-.1l-10 3.8-.5.2-4.3 1.7-4.6 1.8-.5.2-4.1 1.6-4.6 1.8-1.2.5-3.4 1.3-3.1 1.2s0 .2-.1.5c0 .2-.1.4-.1.6 0 .3-.1.5-.2.9s-.2.9-.3 1.5c0 .3-.1.6-.1.9 0 .2-.1.4-.1.7-.1.5-.2 1-.2 1.5-.1.4-.1.7-.2 1.1 0 .1 0 .3-.1.4-.1.5-.1 1-.2 1.5-.1.4-.1.9-.2 1.3v.2c-.1.5-.1 1-.2 1.5s-.1 1-.2 1.5-.1 1-.2 1.5-.1 1-.2 1.5v.3c0 .4-.1.8-.1 1.2-.1.5-.1 1-.2 1.5v.5c0 .3-.1.7-.1 1 0 .5-.1 1-.1 1.5 0 .2 0 .5-.1.7 0 .3 0 .5-.1.8 0 .5-.1 1-.1 1.5 0 .3 0 .6-.1 1v.6c0 .5-.1 1-.1 1.5 0 .4-.1.8-.1 1.2v.3c0 .5-.1 1-.1 1.5s-.1.9-.1 1.4v.1c0 .5-.1 1-.1 1.5s-.1 1-.1 1.5v.1c0 .5 0 .9-.1 1.4 0 .5 0 1-.1 1.5v6.8h-.1V271c.5-.3.9-.5 1.4-.8 1.1-.5 2.1-1.1 3.1-1.7z"/></defs><use xlink:href="#SVGID_14_" style="overflow:visible"/><clipPath id="SVGID_15_"><use xlink:href="#SVGID_14_" style="overflow:visible"/></clipPath><path class="st216" d="m210.2 227.8-40.9-.2v-20.1h40.9z"/><path class="st216" d="m210.2 230.2-40.9-.3v-2.3l40.9.2zM210.2 232.5l-40.9-.2v-2.4l40.9.3z"/><path class="st216" d="m210.2 234.9-40.9-.3v-2.3l40.9.2z"/><path class="st216" d="m210.2 237.2-40.9-.3v-2.3l40.9.3z"/><path class="st216" d="m210.2 239.6-40.9-.3v-2.4l40.9.3z"/><path class="st216" d="m210.2 241.9-40.9-.3v-2.3l40.9.3z"/><path class="st216" d="m210.2 244.3-40.9-.3v-2.4l40.9.3z"/><path class="st216" d="m210.2 246.6-40.9-.3V244l40.9.3z"/><path class="st216" d="m210.2 249-40.9-.3v-2.4l40.9.3z"/><path class="st216" d="m210.2 251.3-40.9-.3v-2.3l40.9.3z"/><path class="st216" d="m210.2 253.7-40.9-.3V251l40.9.3z"/><path class="st216" d="m210.2 256-40.9-.3v-2.3l40.9.3z"/><path class="st216" d="m210.2 258.4-40.9-.3v-2.4l40.9.3z"/><path class="st216" d="m210.2 260.7-40.9-.3v-2.3l40.9.3zM210.2 263.1l-40.9-.3v-2.4l40.9.3z"/><path class="st216" d="m210.2 265.4-40.9-.3v-2.3l40.9.3zM210.2 267.8l-40.9-.3v-2.4l40.9.3z"/><path class="st216" d="m210.2 270.1-40.9-.3v-2.3l40.9.3z"/><path class="st216" d="m169.3 269.8 40.9.3v.9h-40.9z"/></g><g><defs><path id="SVGID_16_" d="M268.4 330c-.1-.3-.1-.7-.2-1.1-.1-.4-.2-.9-.3-1.5 0-.2-.1-.4-.1-.7-.1-.3-.1-.5-.2-.8l-.3-1.5c-.1-.3-.1-.6-.2-.9 0-.2-.1-.4-.1-.6l-.3-1.5c-.1-.4-.1-.7-.2-1.1 0-.1 0-.3-.1-.4l-.3-1.5c-.1-.4-.2-.9-.2-1.3v-.2l-.3-1.5c-.1-.5-.2-1-.2-1.5v-.1c-.1-.5-.2-.9-.2-1.4-.1-.5-.2-1-.2-1.5v-.3c-.1-.4-.1-.8-.2-1.2-.1-.5-.2-1-.2-1.5 0-.2-.1-.3-.1-.5 0-.3-.1-.6-.1-1-.1-.5-.1-1-.2-1.5 0-.2-.1-.5-.1-.7 0-.2-.1-.5-.1-.7-.1-.5-.1-1-.2-1.5 0-.3-.1-.6-.1-1 0-.2 0-.3-.1-.5-.1-.5-.1-1-.2-1.5-.1-.4-.1-.8-.2-1.2v-.3c-.1-.5-.1-1-.2-1.5s-.1-.9-.2-1.4v-.1c-.1-.5-.1-1-.2-1.5s-.1-1-.2-1.5v-.2c-.1-.4-.1-.9-.2-1.3-.1-.5-.1-1-.2-1.5v-.4c0-.4-.1-.7-.1-1.1-.1-.5-.1-1-.2-1.5 0-.2 0-.4-.1-.6 0-.3-.1-.6-.1-.9-.1-.5-.1-1-.2-1.5 0-.3-.1-.6-.1-.8 0-.2 0-.4-.1-.7 0-.5-.1-1-.1-1.5 0-.3-.1-.7-.1-1.1v-.4c0-.5-.1-1-.1-1.5 0-.4-.1-.9-.1-1.3v-.2c0-.4-.1-.8-.1-1.2-.9.5-1.8.9-2.6 1.4-.2.1-.3.2-.5.2-.9.5-1.8 1-2.8 1.5-1.1.6-2.1 1.1-3.2 1.7-.3.2-.6.3-.9.5-.8.4-1.5.8-2.3 1.2-1.1.6-2.1 1.1-3.2 1.7-.5.2-.9.5-1.4.8l-1.8.9c-1.1.6-2.1 1.1-3.2 1.7-.6.3-1.3.7-1.9 1-.4.2-.9.5-1.3.7-1 .6-2.1 1.1-3.2 1.7-.6.3-1.1.6-1.7.9v.7h.1c0 .5.1 1 .1 1.5 0 .4.1.9.1 1.3v.2c0 .5.1 1 .1 1.5s.1 1 .1 1.5v.1c0 .5.1.9.1 1.4 0 .5.1 1 .1 1.5v.3c0 .4.1.8.1 1.2 0 .5.1 1 .1 1.5 0 .2 0 .3.1.5 0 .3.1.6.1 1 0 .5.1 1 .1 1.5 0 .2 0 .5.1.7 0 .2.1.5.1.7.1.5.1 1 .2 1.5 0 .3.1.6.1 1 0 .2 0 .3.1.5.1.5.1 1 .2 1.5 0 .4.1.8.1 1.2v.3c.1.5.1 1 .2 1.5s.1.9.2 1.4v.1c.1.5.1 1 .2 1.5s.1 1 .2 1.5v.2c.1.4.1.9.2 1.3.1.5.1 1 .2 1.5v.4c0 .4.1.7.1 1.1.1.5.1 1 .2 1.5 0 .2.1.4.1.6 0 .3.1.6.1.9.1.5.1 1 .2 1.5 0 .3.1.6.1.8 0 .2.1.4.1.7.1.5.1 1 .2 1.5.1.4.1.7.2 1.1 0 .1 0 .3.1.4.1.5.1 1 .2 1.5.1.4.1.9.2 1.3v.2c.1.5.2 1 .2 1.5.1.5.2 1 .2 1.5.1.5.1 1 .2 1.5s.2 1 .2 1.5v.2c.1.4.1.8.2 1.2.1.5.2 1 .2 1.5 0 .2.1.3.1.5.1.3.1.7.2 1 .1.5.2 1 .2 1.5 0 .2.1.4.1.7l1.4-.7 3.2-1.7 2.2-1.2 1-.5 3.2-1.7 2.7-1.4.5-.3 3.2-1.7 3.1-1.7 3.2-1.7 3.2-1.7.4-.2 2.7-1.5.9-.5s-.1-.4-.2-1.1c.3 0 .3-.2.2-.3z"/></defs><use xlink:href="#SVGID_16_" style="overflow:visible"/><clipPath id="SVGID_17_"><use xlink:href="#SVGID_16_" style="overflow:visible"/></clipPath><path class="st217" d="m238.7 274.1-8 .2v-.2z"/><path class="st217" d="m268.7 274.9-38 1.2v-1.8l8-.2h30z"/><path class="st217" d="m268.7 276.7-38 1.2v-1.8l38-1.2z"/><path class="st217" d="m268.7 278.4-38 1.2v-1.7l38-1.2z"/><path class="st217" d="m268.7 280.2-38 1.2v-1.8l38-1.2z"/><path class="st217" d="m268.7 282-38 1.2v-1.8l38-1.2z"/><path class="st217" d="m268.7 283.7-38 1.2v-1.7l38-1.2z"/><path class="st217" d="m268.7 285.5-38 1.2v-1.8l38-1.2z"/><path class="st217" d="m268.7 287.3-38 1.2v-1.8l38-1.2z"/><path class="st217" d="m268.7 289-38 1.2v-1.7l38-1.2z"/><path class="st217" d="m268.7 290.8-38 1.2v-1.8l38-1.2z"/><path class="st217" d="m268.7 292.6-38 1.2V292l38-1.2z"/><path class="st217" d="m268.7 294.3-38 1.2v-1.7l38-1.2z"/><path class="st217" d="m268.7 296.1-38 1.2v-1.8l38-1.2z"/><path class="st217" d="m268.7 297.9-38 1.2v-1.8l38-1.2zM268.7 299.6l-38 1.2v-1.7l38-1.2z"/><path class="st217" d="m268.7 301.4-38 1.2v-1.8l38-1.2z"/><path class="st217" d="m268.7 303.2-38 1.2v-1.8l38-1.2z"/><path class="st217" d="m268.7 304.9-38 1.2v-1.7l38-1.2z"/><path class="st217" d="m268.7 306.7-38 1.2v-1.8l38-1.2z"/><path class="st217" d="m268.7 308.5-38 1.2v-1.8l38-1.2z"/><path class="st217" d="m268.7 310.2-38 1.2v-1.7l38-1.2z"/><path class="st217" d="m268.7 312-38 1.2v-1.8l38-1.2z"/><path class="st217" d="m268.7 313.8-38 1.2v-1.8l38-1.2z"/><path class="st217" d="m268.7 315.5-38 1.2V315l38-1.2z"/><path class="st217" d="m268.7 317.3-38 1.2v-1.8l38-1.2z"/><path class="st217" d="m268.7 319.1-38 1.2v-1.8l38-1.2z"/><path class="st217" d="m268.7 320.8-38 1.2v-1.7l38-1.2z"/><path class="st217" d="m268.7 322.6-38 1.2V322l38-1.2z"/><path class="st217" d="m268.7 324.4-38 1.2v-1.8l38-1.2zM268.7 326.1l-38 1.2v-1.7l38-1.2z"/><path class="st217" d="m268.7 327.9-38 1.2v-1.8l38-1.2z"/><path class="st217" d="m268.7 329.7-38 1.2v-1.8l38-1.2z"/><path class="st217" d="m268.7 331.4-38 1.2v-1.7l38-1.2z"/><path class="st217" d="m268.7 333.2-38 1.2v-1.8l38-1.2z"/><path class="st217" d="m268.7 335-38 1.2v-1.8l38-1.2z"/><path class="st217" d="m268.7 336.7-38 1.2v-1.7l38-1.2z"/><path class="st217" d="m230.7 337.9 38-1.2v11.2h-38z"/></g><g><defs><path id="SVGID_18_" d="M234.1 237.9c1.3-.6 2.5-1.2 3.8-1.7 1.1-.5 2.1-1 3.2-1.4.2-.1.5-.2.7-.3 1.3-.6 2.6-1.2 3.9-1.7 1.3-.6 2.6-1.1 3.9-1.7h.1c1.3-.6 2.7-1.2 4-1.7 1.4-.6 2.7-1.2 4.1-1.8.2-.1.3-.1.5-.2.5-.2.9-.4 1.4-.6 0-.3 0-.5.1-.8 0-.5.1-1 .1-1.5v-.4c0-.4 0-.7.1-1.1 0-.5.1-1 .1-1.5 0-.2 0-.4.1-.6 0-.3 0-.6.1-.9 0-.5.1-1 .1-1.5 0-.3.1-.6.1-.9 0-.2 0-.4.1-.6.1-.5.1-1 .2-1.5 0-.4.1-.7.1-1.1v-.4c.1-.5.1-1 .2-1.5 0-.2.1-.5.1-.7 0-.2.1-.4.1-.6.1-.7.2-1.3.3-2l-4.1 2.2-.8.4-2.1 1.1-3.2 1.7-.9.5-2.5.9-3.2 1.7-1.3.7-1.9 1-3.2 1.7-1.8 1-1.4.7-3 1.6v.1c0 .2-.1.5-.2 1.1 0 .1 0 .3-.1.4-.1.4-.2.9-.2 1.5-.1.4-.1.8-.2 1.3v.2c-.1.5-.1 1-.2 1.5s-.1 1-.2 1.5-.1 1-.2 1.5-.1 1-.2 1.5v.3c0 .4-.1.8-.1 1.2 0 .5-.1 1-.1 1.5v.5c0 .3-.1.6-.1 1 .8-.4 1.6-.7 2.4-1.1.4-.1.8-.3 1.3-.5z"/></defs><use xlink:href="#SVGID_18_" style="overflow:visible"/><clipPath id="SVGID_19_"><use xlink:href="#SVGID_18_" style="overflow:visible"/></clipPath><path class="st218" d="m261.4 215.1-31 .9v-7.1h31z"/><path class="st218" d="m261.4 216.8-31 1V216l31-.9z"/><path class="st218" d="m261.4 218.6-31 1v-1.8l31-1zM261.4 220.4l-31 .9v-1.7l31-1z"/><path class="st218" d="m261.4 222.1-31 1v-1.8l31-.9z"/><path class="st218" d="m261.4 223.9-31 1v-1.8l31-1z"/><path class="st218" d="m261.4 225.7-31 .9v-1.7l31-1z"/><path class="st218" d="m261.4 227.4-31 1v-1.8l31-.9z"/><path class="st218" d="m261.4 229.2-31 1v-1.8l31-1zM261.4 231l-31 .9v-1.7l31-1z"/><path class="st218" d="m261.4 232.7-31 1v-1.8l31-.9z"/><path class="st218" d="m261.4 234.5-31 1v-1.8l31-1zM261.4 236.3l-31 .9v-1.7l31-1z"/><path class="st218" d="m261.4 238-31 1v-1.8l31-.9zM230.4 239l31-1v1.6h-31z"/></g><g><defs><path id="SVGID_20_" d="M349.6 211.4c-2 .6-4 1.2-6 1.7-2.1.6-4.2 1.2-6.3 1.9-2 .6-4.1 1.2-6.1 1.9-1.9.6-3.9 1.2-5.8 1.9-1.9.6-3.7 1.2-5.6 1.8-1.8.6-3.7 1.2-5.5 1.8-1.8.6-3.5 1.2-5.2 1.8L304 226c-1.7.6-3.3 1.2-5 1.8l-4.8 1.8-4.8 1.8c-1.5.6-3.1 1.2-4.6 1.8l-4.5 1.8c-1.5.6-2.9 1.2-4.4 1.8-1.5.6-2.9 1.2-4.3 1.8l-4.2 1.8-4.2 1.8c-1.4.6-2.7 1.2-4.1 1.8-1.3.6-2.7 1.2-4 1.7-1.3.6-2.6 1.2-4 1.7-1.3.6-2.6 1.2-3.9 1.7-1.3.6-2.6 1.2-3.8 1.7-1.3.6-2.5 1.2-3.8 1.7-1.2.6-2.5 1.1-3.7 1.7-1.2.6-2.4 1.1-3.7 1.7-1.2.6-2.4 1.1-3.6 1.7-1.2.6-2.4 1.1-3.6 1.7-1.2.6-2.3 1.1-3.5 1.7-1.2.6-2.3 1.1-3.5 1.7-1.1.6-2.3 1.1-3.4 1.7-1.1.6-2.3 1.1-3.4 1.7-1.1.6-2.2 1.1-3.3 1.7-1.1.6-2.2 1.1-3.3 1.7-1.1.6-2.2 1.1-3.2 1.7-1.1.6-2.2 1.1-3.2 1.7-1.1.6-2.1 1.1-3.2 1.7-1.1.6-2.1 1.1-3.2 1.7-1 .6-2.1 1.1-3.1 1.7-1 .6-2.1 1.1-3.1 1.7-1 .6-2 1.1-3 1.7-1 .6-2 1.1-3 1.7-1 .6-2 1.1-3 1.7-1 .6-2 1.1-2.9 1.7-1 .6-2 1.1-2.9 1.7-1 .6-1.9 1.1-2.9 1.7-1 .6-1.9 1.1-2.9 1.7-.9.6-1.9 1.1-2.8 1.7-.9.6-1.9 1.1-2.8 1.7-.9.6-1.9 1.1-2.8 1.7-.9.6-1.8 1.1-2.8 1.7-.9.6-1.8 1.1-2.7 1.7-.9.6-1.8 1.1-2.7 1.7-.9.6-1.8 1.1-2.7 1.7-.9.6-1.8 1.1-2.7 1.7-.9.6-1.8 1.1-2.7 1.7-.9.6-1.7 1.1-2.6 1.7-.9.6-1.7 1.1-2.6 1.7-.9.6-1.7 1.1-2.6 1.7-.9.6-1.7 1.1-2.6 1.7-.8.6-1.7 1.1-2.5 1.7-.8.6-1.7 1.1-2.5 1.7-.8.6-1.7 1.1-2.5 1.7-.8.6-1.7 1.1-2.5 1.7-.8.6-1.6 1.1-2.5 1.7-.8.6-1.6 1.1-2.4 1.6-.8.6-1.6 1.1-2.4 1.6-.8.6-1.6 1.1-2.4 1.6-.8.5-1.6 1.1-2.4 1.6-.8.6-1.6 1.1-2.4 1.6-.8.5-1.6 1.1-2.4 1.6-.8.6-1.5 1.1-2.3 1.6-.8.5-1.6 1.1-2.3 1.6-.8.6-1.5 1.1-2.3 1.6-.8.5-1.5 1.1-2.3 1.6-.8.6-1.5 1.1-2.3 1.6-.8.5-1.5 1.1-2.2 1.6-.8.6-1.5 1.1-2.2 1.6-.7.5-1.5 1.1-2.2 1.6-.7.6-1.5 1.1-2.2 1.6-.7.5-1.5 1.1-2.2 1.6-.7.6-1.4 1.1-2.2 1.6-.7.5-1.4 1.1-2.2 1.6-.7.6-1.4 1.1-2.1 1.6-.7.5-1.4 1.1-2.1 1.6-.7.5-1.4 1.1-2.1 1.6-.7.5-1.4 1.1-2.1 1.6-.7.5-1.4 1.1-2.1 1.6-.7.6-1.4 1.1-2.1 1.6-.7.5-1.4 1.1-2 1.6-.7.5-1.4 1.1-2 1.6-.7.5-1.3 1.1-2 1.6s-1.3 1.1-2 1.6c-.7.6-1.3 1.1-2 1.6s-1.3 1.1-2 1.6-1.3 1.1-1.9 1.6c-.7.6-1.3 1.1-1.9 1.6-.7.6-1.3 1.1-1.9 1.6-.7.6-1.3 1.1-1.9 1.6-.6.6-1.3 1.1-1.9 1.6-.6.6-1.3 1.1-1.9 1.6-.6.6-1.3 1.1-1.8 1.6-.6.6-1.2 1.1-1.8 1.6-.6.6-1.2 1.1-1.8 1.6-.6.6-1.2 1.1-1.8 1.6-.2.2-.4.4-.6.5-.2.2-.3.3-.5.4-.2.2-.5.4-.7.6-.7.6-1.2 1.1-1.5 1.4l-.2.2-.1.1.1-.1c.8-.6 1.7-1.1 2.5-1.7.8-.6 1.7-1.1 2.5-1.7.9-.6 1.7-1.1 2.6-1.7.9-.6 1.7-1.1 2.6-1.7.9-.6 1.7-1.1 2.6-1.7.9-.6 1.7-1.1 2.6-1.7.9-.6 1.7-1.1 2.6-1.7.9-.6 1.7-1.1 2.6-1.7.9-.6 1.8-1.1 2.6-1.7.9-.6 1.8-1.1 2.6-1.7.9-.6 1.8-1.1 2.6-1.7.9-.6 1.8-1.1 2.7-1.7.9-.6 1.8-1.1 2.7-1.7.9-.6 1.8-1.1 2.7-1.7.9-.6 1.8-1.1 2.7-1.7.9-.6 1.8-1.1 2.7-1.7.9-.6 1.8-1.1 2.7-1.7.8-.5 1.5-.9 2.3-1.4.1-.1.3-.2.4-.3.2-.1.4-.2.6-.4.7-.4 1.5-.9 2.2-1.3.9-.6 1.8-1.1 2.7-1.7.9-.6 1.8-1.1 2.7-1.7.9-.6 1.8-1.1 2.8-1.7.7-.4 1.4-.8 2-1.2.2-.1.4-.3.7-.4l.9-.6c.6-.4 1.3-.8 1.9-1.1.9-.6 1.9-1.1 2.8-1.7.9-.6 1.9-1.1 2.8-1.7.9-.6 1.9-1.1 2.8-1.7l1.5-.9c.4-.2.8-.5 1.2-.7.5-.3 1.1-.6 1.6-.9.4-.3.9-.5 1.3-.8.8-.4 1.5-.9 2.3-1.3.2-.1.3-.2.5-.3.5-.3.9-.5 1.4-.8.4-.2.8-.5 1.2-.7.1-.1.2-.1.3-.2.4-.2.8-.4 1.1-.7.6-.3 1.2-.7 1.8-1 .2-.1.4-.2.6-.4.7-.4 1.4-.8 2.1-1.3.5-.3 1-.6 1.6-.9.1-.1.3-.2.4-.3.3-.2.6-.4.9-.5.3-.2.6-.4 1-.6.6-.4 1.2-.7 1.8-1.1 1-.6 1.9-1.1 2.9-1.7 1-.6 1.9-1.1 2.9-1.7 1-.6 1.9-1.1 2.9-1.7 1-.6 1.9-1.1 2.9-1.7 1-.6 1.9-1.1 2.9-1.7 1-.6 1.9-1.1 2.9-1.7 1-.6 2-1.1 2.9-1.7 1-.6 2-1.1 2.9-1.7 1-.6 2-1.1 2.9-1.7 1-.6 2-1.1 3-1.7 1-.6 2-1.1 3-1.7 1-.6 2-1.1 3-1.7 1-.6 2-1.1 3-1.7 1-.6 2-1.1 3-1.7 1-.6 2-1.1 3-1.7 1-.6 2-1.1 3-1.7.1-.1.2-.1.3-.2.7-.4 1.5-.8 2.2-1.2l.6-.3c.7-.4 1.4-.8 2.1-1.1.3-.2.6-.4 1-.5 1-.6 2-1.1 3-1.7 1-.6 2-1.1 3-1.7 1-.6 2-1.1 3-1.7 1-.6 2-1.1 3.1-1.7 1-.6 2-1.1 3.1-1.7 1-.6 2-1.1 3.1-1.7 1-.6 2.1-1.1 3.1-1.7 1-.6 2.1-1.1 3.1-1.7 1-.6 2.1-1.1 3.1-1.7 1-.6 2.1-1.1 3.1-1.7 1-.6 2.1-1.1 3.1-1.7 1-.6 2.1-1.1 3.1-1.7 1-.6 2.1-1.1 3.1-1.7 1-.6 2.1-1.1 3.1-1.7 1.1-.6 2.1-1.1 3.1-1.7 1.1-.6 2.1-1.1 3.1-1.7 1.1-.6 2.1-1.1 3.2-1.7 1.1-.6 2.1-1.1 3.2-1.7 1.1-.6 2.1-1.1 3.2-1.7 1.1-.6 2.1-1.1 3.2-1.7 1.1-.6 2.1-1.1 3.2-1.7 1.1-.6 2.1-1.1 3.2-1.7 1.1-.6 2.1-1.1 3.2-1.7 1.1-.6 2.1-1.1 3.2-1.7 1.1-.6 2.2-1.1 3.2-1.7 1.1-.6 2.2-1.1 3.2-1.7 1.1-.6 2.2-1.1 3.2-1.7 1.1-.6 2.2-1.1 3.2-1.7 1.1-.6 2.2-1.1 3.3-1.7 1.1-.6 2.2-1.1 3.3-1.7 1.1-.6 2.2-1.1 3.3-1.7 1.1-.6 2.2-1.1 3.3-1.7 1.1-.6 2.2-1.1 3.3-1.7 1.1-.6 2.2-1.1 3.3-1.7 1.1-.6 2.2-1.1 3.3-1.7 1.1-.6 2.2-1.1 3.3-1.7 1.1-.6 2.2-1.1 3.3-1.7 1.1-.6 2.2-1.1 3.3-1.7 1.1-.6 2.2-1.1 3.3-1.7 1.1-.6 2.2-1.1 3.3-1.7 1.1-.6 2.3-1.1 3.4-1.7 1.1-.6 2.3-1.1 3.4-1.7 1.1-.6 2.3-1.1 3.4-1.7 1.2-.6 2.3-1.2 3.4-1.7 1.2-.6 2.3-1.2 3.4-1.7 1.2-.6 2.3-1.2 3.4-1.7 1.2-.6 2.3-1.2 3.4-1.7 1.2-.6 2.3-1.2 3.4-1.7l3.4-1.7c1.2-.6 2.4-1.2 3.5-1.7 1.3-.6 2.4-1.2 3.5-1.7 1.4-.7 2.5-1.2 3.5-1.7 2.1-1 3.2-1.6 3.2-1.6h-.1c.4 1.8.6 1.8.6 1.8z"/></defs><use xlink:href="#SVGID_20_" style="overflow:visible"/><clipPath id="SVGID_21_"><use xlink:href="#SVGID_20_" style="overflow:visible"/></clipPath><path class="st219" d="m29.6 363.4 13.3-7.3L55 378.2l-21.3 11.7h-4.1z"/><path transform="rotate(-28.854 50.035 366.531)" class="st219" d="M48.8 353.9h2.5v25.2h-2.5z"/><path transform="rotate(-28.854 52.191 365.343)" class="st219" d="M51 352.8h2.5V378H51z"/><path transform="rotate(-28.854 54.347 364.155)" class="st219" d="M53.1 351.6h2.5v25.2h-2.5z"/><path transform="rotate(-28.854 56.503 362.967)" class="st219" d="M55.3 350.4h2.5v25.2h-2.5z"/><path transform="rotate(-28.854 58.659 361.78)" class="st219" d="M57.4 349.2h2.5v25.2h-2.5z"/><path transform="rotate(-28.854 60.815 360.591)" class="st219" d="M59.6 348h2.5v25.2h-2.5z"/><path transform="rotate(-28.854 62.971 359.404)" class="st219" d="M61.7 346.8h2.5V372h-2.5z"/><path transform="rotate(-28.854 65.127 358.216)" class="st219" d="M63.9 345.6h2.5v25.2h-2.5z"/><path transform="rotate(-28.854 67.283 357.028)" class="st219" d="M66.1 344.4h2.5v25.2h-2.5z"/><path transform="rotate(-28.854 69.439 355.84)" class="st219" d="M68.2 343.3h2.5v25.2h-2.5z"/><path transform="rotate(-28.854 71.595 354.652)" class="st219" d="M70.4 342.1h2.5v25.2h-2.5z"/><path transform="rotate(-28.854 73.75 353.464)" class="st219" d="M72.5 340.9H75v25.2h-2.5z"/><path transform="rotate(-28.854 75.907 352.276)" class="st219" d="M74.7 339.7h2.5v25.2h-2.5z"/><path transform="rotate(-28.854 78.063 351.088)" class="st219" d="M76.8 338.5h2.5v25.2h-2.5z"/><path transform="rotate(-28.854 80.219 349.9)" class="st219" d="M79 337.3h2.5v25.2H79z"/><path transform="rotate(-28.854 82.374 348.712)" class="st219" d="M81.1 336.1h2.5v25.2h-2.5z"/><path transform="rotate(-28.854 84.53 347.524)" class="st219" d="M83.3 334.9h2.5v25.2h-2.5z"/><path transform="rotate(-28.854 86.686 346.337)" class="st219" d="M85.5 333.7H88v25.2h-2.5z"/><path transform="rotate(-28.854 88.842 345.149)" class="st219" d="M87.6 332.6h2.5v25.2h-2.5z"/><path transform="rotate(-28.854 90.998 343.96)" class="st219" d="M89.8 331.4h2.5v25.2h-2.5z"/><path transform="rotate(-28.854 93.154 342.773)" class="st219" d="M91.9 330.2h2.5v25.2h-2.5z"/><path transform="rotate(-28.854 95.31 341.585)" class="st219" d="M94.1 329h2.5v25.2h-2.5z"/><path transform="rotate(-28.854 97.466 340.397)" class="st219" d="M96.2 327.8h2.5V353h-2.5z"/><path transform="rotate(-28.854 99.622 339.21)" class="st219" d="M98.4 326.6h2.5v25.2h-2.5z"/><path transform="rotate(-28.854 101.778 338.021)" class="st219" d="M100.5 325.4h2.5v25.2h-2.5z"/><path transform="rotate(-28.854 103.934 336.833)" class="st219" d="M102.7 324.2h2.5v25.2h-2.5z"/><path transform="rotate(-28.854 106.09 335.645)" class="st219" d="M104.9 323.1h2.5v25.2h-2.5z"/><path transform="rotate(-28.854 108.246 334.457)" class="st219" d="M107 321.9h2.5v25.2H107z"/><path transform="rotate(-28.854 110.402 333.27)" class="st219" d="M109.2 320.7h2.5v25.2h-2.5z"/><path transform="rotate(-28.854 112.558 332.082)" class="st219" d="M111.3 319.5h2.5v25.2h-2.5z"/><path transform="rotate(-28.854 114.714 330.894)" class="st219" d="M113.5 318.3h2.5v25.2h-2.5z"/><path transform="rotate(-28.854 116.87 329.706)" class="st219" d="M115.6 317.1h2.5v25.2h-2.5z"/><path transform="rotate(-28.854 119.026 328.518)" class="st219" d="M117.8 315.9h2.5v25.2h-2.5z"/><path transform="rotate(-28.854 121.181 327.33)" class="st219" d="M120 314.7h2.5v25.2H120z"/><path transform="rotate(-28.854 123.338 326.142)" class="st219" d="M122.1 313.6h2.5v25.2h-2.5z"/><path transform="rotate(-28.854 125.493 324.954)" class="st219" d="M124.3 312.4h2.5v25.2h-2.5z"/><path transform="rotate(-28.854 127.65 323.766)" class="st219" d="M126.4 311.2h2.5v25.2h-2.5z"/><path transform="rotate(-28.854 129.805 322.578)" class="st219" d="M128.6 310h2.5v25.2h-2.5z"/><path transform="rotate(-28.854 131.961 321.39)" class="st219" d="M130.7 308.8h2.5V334h-2.5z"/><path transform="rotate(-28.854 134.117 320.203)" class="st219" d="M132.9 307.6h2.5v25.2h-2.5z"/><path transform="rotate(-28.854 136.273 319.015)" class="st219" d="M135 306.4h2.5v25.2H135z"/><path transform="rotate(-28.854 138.429 317.827)" class="st219" d="M137.2 305.2h2.5v25.2h-2.5z"/><path transform="rotate(-28.854 140.585 316.639)" class="st219" d="M139.4 304.1h2.5v25.2h-2.5z"/><path transform="rotate(-28.854 142.741 315.451)" class="st219" d="M141.5 302.9h2.5v25.2h-2.5z"/><path transform="rotate(-28.854 144.897 314.263)" class="st219" d="M143.7 301.7h2.5v25.2h-2.5z"/><path transform="rotate(-28.854 147.053 313.075)" class="st219" d="M145.8 300.5h2.5v25.2h-2.5z"/><path transform="rotate(-28.854 149.209 311.887)" class="st219" d="M148 299.3h2.5v25.2H148z"/><path transform="rotate(-28.854 151.365 310.7)" class="st219" d="M150.1 298.1h2.5v25.2h-2.5z"/><path transform="rotate(-28.854 153.52 309.511)" class="st219" d="M152.3 296.9h2.5v25.2h-2.5z"/><path transform="rotate(-28.854 155.677 308.323)" class="st219" d="M154.5 295.7h2.5v25.2h-2.5z"/><path transform="rotate(-28.854 157.833 307.135)" class="st219" d="M156.6 294.5h2.5v25.2h-2.5z"/><path transform="rotate(-28.854 159.988 305.948)" class="st219" d="M158.8 293.4h2.5v25.2h-2.5z"/><path transform="rotate(-28.854 162.145 304.76)" class="st219" d="M160.9 292.2h2.5v25.2h-2.5z"/><path transform="rotate(-28.854 164.3 303.572)" class="st219" d="M163.1 291h2.5v25.2h-2.5z"/><path transform="rotate(-28.854 166.456 302.384)" class="st219" d="M165.2 289.8h2.5V315h-2.5z"/><path transform="rotate(-28.854 168.612 301.196)" class="st219" d="M167.4 288.6h2.5v25.2h-2.5z"/><path transform="rotate(-28.854 170.768 300.008)" class="st219" d="M169.5 287.4h2.5v25.2h-2.5z"/><path transform="rotate(-28.854 172.924 298.82)" class="st219" d="M171.7 286.2h2.5v25.2h-2.5z"/><path transform="rotate(-28.854 175.08 297.632)" class="st219" d="M173.9 285h2.5v25.2h-2.5z"/><path transform="rotate(-28.854 177.236 296.444)" class="st219" d="M176 283.9h2.5v25.2H176z"/><path transform="rotate(-28.854 179.392 295.256)" class="st219" d="M178.2 282.7h2.5v25.2h-2.5z"/><path transform="rotate(-28.854 181.548 294.069)" class="st219" d="M180.3 281.5h2.5v25.2h-2.5z"/><path transform="rotate(-28.854 183.704 292.88)" class="st219" d="M182.5 280.3h2.5v25.2h-2.5z"/><path transform="rotate(-28.854 185.86 291.693)" class="st219" d="M184.6 279.1h2.5v25.2h-2.5z"/><path transform="rotate(-28.854 188.016 290.505)" class="st219" d="M186.8 277.9h2.5v25.2h-2.5z"/><path transform="rotate(-28.854 190.172 289.317)" class="st219" d="M188.9 276.7h2.5v25.2h-2.5z"/><path transform="rotate(-28.854 192.328 288.129)" class="st219" d="M191.1 275.5h2.5v25.2h-2.5z"/><path transform="rotate(-28.854 194.484 286.941)" class="st219" d="M193.3 274.4h2.5v25.2h-2.5z"/><path transform="rotate(-28.854 196.64 285.753)" class="st219" d="M195.4 273.2h2.5v25.2h-2.5z"/><path transform="rotate(-28.854 198.796 284.565)" class="st219" d="M197.6 272h2.5v25.2h-2.5z"/><path transform="rotate(-28.854 200.952 283.377)" class="st219" d="M199.7 270.8h2.5V296h-2.5z"/><path transform="rotate(-28.854 203.107 282.19)" class="st219" d="M201.9 269.6h2.5v25.2h-2.5z"/><path transform="rotate(-28.854 205.263 281.002)" class="st219" d="M204 268.4h2.5v25.2H204z"/><path transform="rotate(-28.854 207.42 279.814)" class="st219" d="M206.2 267.2h2.5v25.2h-2.5z"/><path transform="rotate(-28.854 209.575 278.626)" class="st219" d="M208.4 266h2.5v25.2h-2.5z"/><path transform="rotate(-28.854 211.731 277.438)" class="st219" d="M210.5 264.8h2.5V290h-2.5z"/><path transform="rotate(-28.854 213.887 276.25)" class="st219" d="M212.7 263.7h2.5v25.2h-2.5z"/><path transform="rotate(-28.854 216.043 275.062)" class="st219" d="M214.8 262.5h2.5v25.2h-2.5z"/><path transform="rotate(-28.854 218.199 273.874)" class="st219" d="M217 261.3h2.5v25.2H217z"/><path transform="rotate(-28.854 220.355 272.686)" class="st219" d="M219.1 260.1h2.5v25.2h-2.5z"/><path transform="rotate(-28.854 222.511 271.498)" class="st219" d="M221.3 258.9h2.5v25.2h-2.5z"/><path transform="rotate(-28.854 224.667 270.31)" class="st219" d="M223.4 257.7h2.5v25.2h-2.5z"/><path transform="rotate(-28.854 226.823 269.122)" class="st219" d="M225.6 256.5h2.5v25.2h-2.5z"/><path transform="rotate(-28.854 228.979 267.935)" class="st219" d="M227.8 255.3h2.5v25.2h-2.5z"/><path transform="rotate(-28.854 231.135 266.747)" class="st219" d="M229.9 254.2h2.5v25.2h-2.5z"/><path transform="rotate(-28.854 233.29 265.559)" class="st219" d="M232.1 253h2.5v25.2h-2.5z"/><path transform="rotate(-28.854 235.447 264.37)" class="st219" d="M234.2 251.8h2.5V277h-2.5z"/><path transform="rotate(-28.854 237.603 263.183)" class="st219" d="M236.4 250.6h2.5v25.2h-2.5z"/><path transform="rotate(-28.854 239.758 261.995)" class="st219" d="M238.5 249.4h2.5v25.2h-2.5z"/><path transform="rotate(-28.854 241.914 260.807)" class="st219" d="M240.7 248.2h2.5v25.2h-2.5z"/><path transform="rotate(-28.854 244.07 259.62)" class="st219" d="M242.8 247h2.5v25.2h-2.5z"/><path transform="rotate(-28.854 246.226 258.431)" class="st219" d="M245 245.8h2.5V271H245z"/><path transform="rotate(-28.854 248.382 257.243)" class="st219" d="M247.2 244.7h2.5v25.2h-2.5z"/><path transform="rotate(-28.854 250.538 256.055)" class="st219" d="M249.3 243.5h2.5v25.2h-2.5z"/><path transform="rotate(-28.854 252.694 254.867)" class="st219" d="M251.5 242.3h2.5v25.2h-2.5z"/><path transform="rotate(-28.854 254.85 253.68)" class="st219" d="M253.6 241.1h2.5v25.2h-2.5z"/><path transform="rotate(-28.854 257.006 252.492)" class="st219" d="M255.8 239.9h2.5v25.2h-2.5z"/><path transform="rotate(-28.854 259.162 251.304)" class="st219" d="M257.9 238.7h2.5v25.2h-2.5z"/><path transform="rotate(-28.854 261.318 250.116)" class="st219" d="M260.1 237.5h2.5v25.2h-2.5z"/><path transform="rotate(-28.854 263.474 248.928)" class="st219" d="M262.3 236.3h2.5v25.2h-2.5z"/><path transform="rotate(-28.854 265.63 247.74)" class="st219" d="M264.4 235.1h2.5v25.2h-2.5z"/><path transform="rotate(-28.854 267.786 246.552)" class="st219" d="M266.6 234h2.5v25.2h-2.5z"/><path transform="rotate(-28.854 269.942 245.364)" class="st219" d="M268.7 232.8h2.5V258h-2.5z"/><path transform="rotate(-28.854 272.098 244.176)" class="st219" d="M270.9 231.6h2.5v25.2h-2.5z"/><path transform="rotate(-28.854 274.254 242.988)" class="st219" d="M273 230.4h2.5v25.2H273z"/><path transform="rotate(-28.854 276.41 241.8)" class="st219" d="M275.2 229.2h2.5v25.2h-2.5z"/><path transform="rotate(-28.854 278.566 240.613)" class="st219" d="M277.3 228h2.5v25.2h-2.5z"/><path transform="rotate(-28.854 280.721 239.425)" class="st219" d="M279.5 226.8h2.5V252h-2.5z"/><path class="st219" d="m275.7 227.8 29.9-16.4h44v4.5l-61.7 34z"/></g></g></svg>