<svg version="1.1" id="Layer_1" xmlns="http://www.w3.org/2000/svg" x="0" y="0" width="521.3" height="144" style="enable-background:new 0 0 521.3 144" xml:space="preserve"><style>.st1{fill:#003a5d}</style><g id="Artwork_2_1_"><path d="M514.9 114.6c-10.9-2.2-22.4-4.3-34.6-6.2l4.7 15.9h33.5l-3.6-9.7zm-483.6 9.7h36.1l5.4-17.2c-15.8 2.3-30.6 4.9-44.3 7.7l2.8 9.5zm381.4-7-10.8-18.2c-11.4-1-23.1-1.8-35.1-2.5l16.7 27.9 33.4-.3h25.7L449 104c-9.7-1.2-19.8-2.3-30.1-3.3l-6.2 16.6zm-223.9-13.7c-5.7 0-12.4-1.2-15-6.7-11.1.7-21.9 1.5-32.5 2.4 6.3 24.2 34.2 27.5 44.8 27.5 22.3 0 46.1-8 48.3-32.4-10.9.2-21.6.6-32.2 1.1-1 6.6-8.4 8.1-13.4 8.1m69.6-9.6v30.3h32.3V94c-6.1-.1-12.3-.1-18.5-.1-4.6 0-9.2.1-13.8.1m66.4 30.3h32.3V96.1c-10.6-.6-21.4-1-32.3-1.4v29.6zm-220.9 0h32.3V99.7c-11.1 1-21.8 2.1-32.3 3.3v21.3z" style="fill:#61a60e"/><path class="st1" d="M103.9 89.8c10.3-2.1 21.1-4 32.3-5.7V19.5h-32.3v70.3zM464.7 54.6l12.7 44c13 3.6 25 7.5 35.9 11.7l-33-90.7h-31.6L424 86.7c9.9 1.7 19.4 3.6 28.6 5.7l11.8-37.8h.3zM50 83.1h-.3L32.6 19.5H0l27.5 92.1c14.2-5.8 30.6-11 48.7-15.6l23.9-76.5H66.9L50 83.1zM205 60.5c-14.8-4.1-29.8-5.7-30.4-13.2 0-5.9 7.2-7 11.6-7 3.2 0 6.9.7 9.5 2.6 1.4.9 2.5 2.1 3.2 3.5h30.7c-3.1-21.8-22-29.4-43.3-29.4-21.6 0-42.3 10.4-42.3 34.6 0 17.6 13.1 23.7 27.1 27.9 18.9-2 38.6-3.5 59-4.3-5.4-8-15.2-12-25.1-14.7M406.3 28.2c-6.3-5.8-14.8-7.9-22.8-8.4-1.7-.1-3.5-.1-5.2-.1h-9.6c-1.3-.1-2.7-.2-4.1-.2h-39.8v56.2c25.7 1.4 50.4 3.7 73.5 6.9 2.9-1.3 5.7-2.9 8.1-5.2 6.5-6 9.3-15.6 9.3-24.6s-2.8-18.5-9.4-24.6m-32.8 36.3h-16.4v-20h14.7c12 0 15.6 3.7 15.6 10-.1 9-8.1 10-13.9 10M230.3 46.4h28.2v28.1c4.6-.1 9.2-.1 13.8-.1 6.2 0 12.4.1 18.5.2V46.4H319V19.5h-88.6v26.9z"/></g></svg>