<svg version="1.1" id="Layer_1" xmlns="http://www.w3.org/2000/svg" x="0" y="0" width="792" height="432" style="enable-background:new 0 0 792 432" xml:space="preserve"><style>.st3,.st4{fill:#fff}.st4{fill-rule:evenodd;clip-rule:evenodd}</style><ellipse cx="395.9" cy="215.4" rx="369.6" ry="193.3" style="fill:none;stroke:#db1f26;stroke-width:35.9515;stroke-miterlimit:10"/><ellipse cx="395.9" cy="215.4" rx="369.6" ry="193.3" style="fill:#db1f26;stroke:#fff;stroke-width:17.2567;stroke-miterlimit:10"/><ellipse cx="395.9" cy="215.4" rx="369.6" ry="193.3" style="fill:#db1f26"/><path class="st3" d="M383 106.3c3 .1 6.4.1 9.4 0 5.2-16 10.2-32.1 15.3-48.3-3.2-.1-6.6 0-9.7.1-.6.9-.7 1.9-1 2.9-4 13.1-8.2 26.2-12.2 39.3-.6 2-1.4 4-1.8 6zM349.1 106.2c1.3 0 3.8.4 4.7-.2.4-.2.7-1.3.9-2 1.4-4.6 2.8-9 4.2-13.4.2-.7.4-1.5.9-2.1 1.4-.1 3-.2 4.4-.1.9 4.4 1.6 9 2.5 13.4.3 1.5.5 3 1 4.3 2.9.1 6.3.2 9-.1 0-1.6-.3-3.1-.6-4.6-.8-4.6-1.7-9-2.5-13.6 4.2-1.5 7.9-3.3 10-7.2 2-3.7 3.6-8.7 2.7-14.1-.3-1.8-1.1-3.4-2-4.6-1-1.3-2.5-2.5-4.1-3.1-1.8-.7-3.7-1-6.1-1.1-3.3-.1-7.2-.2-10.6-.2-1.3 0-3.4-.4-4.2.1-.4.3-.8 2.1-1.1 2.9-4.8 15.2-9.6 30.4-14.1 45.4 1.6.4 3.2.3 5 .3zm17-38.4c1.7-.3 3.8 0 5.5-.2 4-.5 5.6 2.4 4.6 6.2-.3 1.2-1.3 2.8-2.1 3.5-1 .9-3 2-4.7 2.1-2 .2-4.4 0-6.7.1 1-4 2.3-7.8 3.4-11.7zM411.5 106.5c2.6-8 5.3-16.3 7.8-24.4.1-.2.3-1.6.6-1.5.3 0 .4 1.4.4 1.5 1 6.1 2.2 12.1 3.3 18 .4 2.2.7 4.4 1.3 6.5 2.3.2 5.1.1 7.5.1 3.9-12 7.6-24.1 11.5-36.1 1.3-4 2.7-8 3.7-12.2-3.2 0-6.8 0-9.9.2-.7 1.6-1.2 3.5-1.8 5.3-1.4 4.5-2.8 9.2-4.1 13.6-.4 1.5-.6 3.1-1.7 3.8-1.5-7.5-2.6-15.4-4.1-22.9-2.9 0-6.3-.3-9 .1-.8 1.9-1.3 4-1.9 5.9-4.4 14-8.8 28.2-13.1 42.2 3.2-.2 6.3 0 9.5-.1zM441.7 106.5c3.2.1 6.8 0 10.1.1.7-.9.9-2.1 1.2-3.1l2.1-6.6c.4-1.1.6-2.3 1.2-3.2.3-.4.8-.9 1.1-1.3 2.5-2.9 5.1-5.7 7.5-8.5.1-.1.3-.6.6-.5.2 7.8.2 15.7.6 23.3 1.5.1 3.2 0 4.9 0 1.7 0 3.4.2 4.7-.3.2-10.2-.6-21.2-.6-31.6 0-.8-.2-1.6-.1-2.1s1.1-1.4 1.5-1.9c2.8-3.2 5.4-6.1 8.1-9.1.8-.9 1.6-2 2.5-2.7.3-.2.9-.4.7-1-.1 0-.1 0-.1-.1-2.7.1-6 .1-8.9.1-.9 0-2.3-.2-2.9 0-.5.2-1.1 1.3-1.5 1.7-3.5 3.9-6.7 7.7-10.1 11.5-.2.3-.5.7-1 .7.4-2.1 1.1-4.2 1.8-6.2.3-1 .7-2 1-3 .3-1 .5-2.1.9-3.1.2-.5.7-.8.7-1.4-2.4-.1-5.5-.1-8.1 0-.9 0-2.1-.1-2.6.2-.5.3-.8 2-1.1 2.9-4.5 14.1-8.9 28.3-13.3 42.2-.4.9-.9 1.9-.9 3zM317.5 105.9c2.6 0 4.8.1 6.9-.3 2-.4 3.7-.9 5.5-1.7 3.1-1.5 5.6-4.1 7.7-6.7 1-1.3 2-2.8 2.8-4.4.8-1.6 1.7-3.2 2.3-4.9 1-2.5 1.7-5.3 2.3-8.1.3-1.4.7-2.9.8-4.4.1-1.7.1-3.5 0-5.3-.1-3.1-1.3-5.6-2.7-7.7-1.5-2.2-3.2-3.7-5.9-4.6-1.4-.4-3.2-.3-5.1-.4-4.5-.2-9.3 0-13.7 0-5 16.2-10.1 32.3-15 48.6 4.7.1 9.5-.1 14.1-.1zm.5-13.5c2.2-7.1 4.7-14.1 6.9-21.4.3-1.1.7-2.3 1.3-3.4 1.6.1 5.1-.3 6.6.3 3.1 1.3 3.1 7.1 2.2 11-.6 2.7-1.7 6-2.9 8.4-1.2 2.5-2.8 5.2-4.6 6.7-.7.7-1.9 1.4-2.9 1.8-2.2.8-5.5.4-7.7.3.1-1.3.7-2.5 1.1-3.7z"/><g><path class="st3" d="M376.7 316.8c-10.5-.2-21.3-.2-32-.3-3.3 0-7.8-.2-10.8 0-.2.1 0 .4.1.7v1c0 20.3-.4 41.2-.3 61.2 14.2-.2 28.5-.3 42.5-.7-.1-4.7.2-9.5-.1-14.1-8.8 0-18 .1-26.8.2.1-4.1 0-8.3.2-12.3 5.6.1 11.3 0 16.9.2.1-3.3 0-6.8 0-10.3 0-.7.2-2.9-.1-3.4-.2-.3-1.1-.1-1.9-.1-4.4 0-8.9-.2-13.2-.2-.7 0-1.5.1-2.1-.2-.1-2.6-.1-5.7.2-8.2 9.2-.1 18.5.2 27.4 0 0-4.5.4-9.3 0-13.5zM411.3 316.8c-3.6 0-7.1 0-10.6-.2-.1 0-.1.1-.2.1l-.6 62.5c3.4.3 6.9.3 10.4.3 10.6 0 21.4.4 31.8.2.3-1.1.2-2.3.2-3.5.1-2.4.2-4.8.2-7.2 0-1.2.2-2.4-.1-3.5-8.7-.4-18.1-.2-26.8-.5 0-3.9 0-8.3.3-12 5.6-.1 11.3.2 17 .2 0-4.5-.1-9-.1-13.6-3.7 0-8.5-.3-12.6-.3-.8 0-3.6.2-4.1-.2-.3-.3-.2-1.5-.2-2.1.1-2.2.1-4.3.3-6.2 1-.4 2.1-.2 3.2-.2 3.4 0 6.8.1 10.2.1 4.5 0 9.1.4 13.3-.1.4-2 .2-4.4.3-6.7.1-2.3.1-4.7-.1-6.9-10.3-.1-21.2-.2-31.8-.2zM502.5 355.5c.1-.4.9-1 1.3-1.4 3.3-3.3 5.7-7.3 6.3-13.2.7-7.6-1.7-13.3-5-17.2-3.4-4-8.3-6.4-15.5-6.9-6.2-.4-13.1.1-19.4-.1-.9 0-2-.1-2.8 0-.7.1-.6.9-.6 1.7 0 20.4-.8 41.1-.6 61.1 1.2.3 2.5.2 3.8.2 3.9 0 7.9.2 11.7 0 .1-6.7.1-13.6.4-20.2 2.1.1 4.3-.3 6.1.2 1.3 3.3 2.3 6.7 3.5 10 1.2 3.3 2.3 6.7 3.7 9.9 5.1.1 10.4.1 15.4.1-2.5-7.4-5.2-15.1-7.9-22.6-.1-.6-.5-1.2-.4-1.6zm-11.2-10.7c-1.3.8-3.2.7-5.6.7-1 0-2.6.3-3-.3-.4-.5-.2-2.5-.2-3.4v-7.1c0-1.5-.4-3.7.7-4 .6-.2 2.1-.1 3-.1 2 0 3.7-.1 5 .6 2 1 3.5 3.5 3.7 6.1.2 3.4-1.4 6.2-3.6 7.5zM306.9 345.7c3.2-3.3 6.2-7.5 5.5-14.1-.6-5.6-3.7-9.7-7.4-12.3-2-1.4-4.2-2.4-6.8-3.1-2.7-.7-5.8-.7-9.1-.7h-19.8c-.1 0-.1.1-.1.2v64.2h21.5c1.9 0 3.5.1 5.1-.1 4.7-.5 8.4-2.4 11.2-4.9 3.8-3.3 6.8-7.9 6.8-14.7.1-6.8-3.2-11.1-6.9-14.5zm-22.3-11.5v-4.3s0-.2.1-.2c2.2 0 4.6 0 6.8.1 1.3.1 2.2-.1 3 .4.7.4 1.5 1.4 1.8 2.3.8 2.4-.2 5.4-2.3 5.9-.6.1-1.4 0-2.3 0h-4.8c-.7 0-1.8 0-2.1-.2-.4-.4-.2-3-.2-4zm11.1 29.5c-1.9 1.5-4.7 1.4-8 1.4-.9 0-1.9.1-2.8-.2-.2-3.8-.3-8.3-.1-12.2 1-.3 2.8-.1 4.4-.1 1.8 0 3.8-.2 5 .3.9.4 1.8 1.2 2.4 2 1.8 2.6 1.5 6.9-.9 8.8z"/></g><g><path class="st3" d="m687.3 257.7-1.2 6.9 1.2.2.5-2.7 1 .2c.6.1 1.1.3 1.3.5.4.3.5.9.4 1.7l-.1.5v.4l1.2.2v-.5c0-.2 0-.4.1-.5l.1-.5c.1-.3 0-.7-.2-1.1-.2-.4-.5-.7-1.1-.9.4 0 .8 0 1.1-.2.5-.2.8-.6.9-1.2.2-.9-.1-1.5-.8-1.9-.4-.2-1-.4-1.9-.6l-2.5-.5m3.8 2.8c-.1.5-.4.8-.9.9-.3.1-.7 0-1.2-.1l-1.1-.2.4-2.5 1 .2c.7.1 1.2.3 1.4.5.4.4.5.8.4 1.2zm4.4 2.2c.3-1.7 0-3.3-1.1-4.8-1-1.4-2.4-2.3-4.1-2.6-1.7-.3-3.3 0-4.8 1.1-1.5 1-2.3 2.4-2.6 4.1-.3 1.8 0 3.4 1 4.8 1 1.5 2.4 2.3 4.2 2.6 1.7.3 3.4 0 4.8-1.1 1.5-.9 2.3-2.3 2.6-4.1zm-5.3-6.5c1.5.3 2.7 1 3.6 2.3.9 1.3 1.2 2.6.9 4.1-.3 1.5-1 2.7-2.3 3.6-1.2.9-2.6 1.2-4.2.9-1.5-.3-2.7-1-3.6-2.3-.9-1.3-1.2-2.6-.9-4.2.3-1.5 1-2.7 2.3-3.6 1.3-.8 2.7-1.1 4.2-.8z"/><g id="Utica_Club_1_color_red_28_"><path class="st4" d="m421.3 229.8-13.2 9.8c-23 12.6-12.7-3.2-12.7-3.2l26.2-41.1h-18.2l-3.4 4.3c-4.7-11.8-21-6.3-21-6.3-17 3.8-41.7 32.8-41.7 32.8-15.3 12.9-26.9 15.7-26.9 15.7-18.3 5.1-13.5-11.8-13.5-11.8 8.5-24.2 27.1-26.7 27.1-26.7 11.4-1 5.8 11.3 5.8 11.3 22.9-10.4 15.7-19.7 11.2-22.2s-15.6-6-36.5 8.1c-21 14.1-32.2 35.1-32.2 35.1-4.6 4-10.9 6.1-10.9 6.1-14.1 2.9-5-11.3-5-11.3l20.8-34h-20L239 224.5c-9 14-20 16.7-20 16.7-22.5 4.6-11.3-14.1-11.3-14.1l26-41.4c1.4 1 16.7-.3 41.7-6.6 25-6.3 35.3-1.3 35.3-1.3l11.3-13.9c-6.4-1.8-13-2-45.8 6.1-28.8 7.1-35.9 5.9-35.9 5.9l17.9-29.2-20.7 4.1-16.3 24.5c-1.3 0-9.3-3-9.3-3l-3.9 7.6c1.8 1.5 8.3 3.3 8.3 3.3l-23.6 36.2s-7.9 13.7-27.9 18c-20 4.3-1.5-23.9-1.5-23.9l47.5-72.9-23.3 4.1-39.5 60.2s-18.2 29-34.1 34.3c-19 6.3-5.7-14.8-5.7-14.8l34.9-54.7c12.8-19.3 10.3-29.5 5.1-34.8-4.7-5.8-17.1-5.9-19.7-5.9-36.7.8-50.9 23.4-55.1 34.3-1 2.7-2.1 8.2-1.6 11.3.8 4.9 2.3 11.5 13.2 11.1 16.6-.6 18.1-14.1 18.1-14.1-10 2.3-10-3.5-10-3.5-.1-15.1 10.9-21.4 18.8-24 4.5-1.5 12.2-2.6 15.9-.1 8.6 5-.9 19.5-.9 19.5l-55 86.2s-14.8 23.8 8.9 20.2c18.5-2.9 39.7-21.5 39.7-21.5-3.5 9.6.3 20.8 11.2 19.1 21.6-3.3 45.5-23.8 45.5-23.8-15 21.7-.4 22.2 2.7 22.7 14.7 2 42.3-15.9 42.3-15.9-3.5 6.3-3.7 18.6 10.7 16.1 19-3.3 31.6-15.4 31.6-15.4-.6 10.8 6.2 19.5 19.7 16.3 19.8-4.6 42.5-21.5 42.5-21.5-4.2 8.8.3 14.4.3 14.4 7.6 14.3 39.4-8.1 39.4-8.1-3.9 13.4 11.8 12.6 11.8 12.6 22.3-2.8 47.6-26.5 47.6-26.5l-4.5-8.6zm-34.1-9.8c-10.5 17.1-22 21.4-22 21.4-20.5 1.5 4.9-27.7 4.9-27.7 4.9-5.1 11.2-12.1 19.4-9.6 8.1 2.5-2.3 15.9-2.3 15.9zM613.7 129.2s-61.4-23.9-129.6 37.8c-12.5 11.3-59.4 65.3-35 102 0 0 21.9 35 79 17.5l-2.6-7.6s-57.9 15.2-58.7-29.1c-.8-42.3 55.3-98.1 92-110 31.4-10.2 61.5-3.9 40.3 18.8 0 0 9.4 8.5 21.4-6.3 0 0 10.5-15.4-6.8-23.1z"/><path class="st4" d="M711.5 211.7c4.9-10.2 7-20.8-4-23-3.2-.8-8.5-.2-11.5.8-3.5 1.3-9.5 4-18.9 10.1l35.6-55.7-22.9 3.3-48.4 76.4s-8.1 10.3-22.9 16.2c0 0-15.2 5.5-1.8-16.4l19-29.5-19.1-.7-20.8 32.3s-9.2 13.6-22.7 16.7c0 0-11.6 2.4-4.1-11.8l23.3-36.1-19.9-.7-17.3 27.5s-14.3 19.2-30 22.5c0 0-9.8 1.6.4-15.6l41.2-66.5-19.1 2-50.1 77.6s-16.3 25.1 4.6 25.4c0 0 12-.5 35.2-18.4 0 0-6.4 22.9 16.6 16.1 0 0 12.5-3 25.9-14.2 0 0-9.2 19.6 12.4 16.3 0 0 12.7-1.5 39.1-24.2 0 0-14 21.9 7.8 23.4 17.3 1.2 34-9.2 48.5-22.7 3.9-3.7 16-15 23.9-31.1zm-44.7 31.2s-18.4 11.6-11.8-8c0 0 5.3-8.1 9.1-13.1 0 0 15-22.6 25.2-14.4 9.2 7.5-15.2 31.2-22.5 35.5zM297.6 149.4c-1 5.8-6.7 10.5-12.7 10.5-6 0-10-4.7-9-10.5s6.7-10.5 12.7-10.5c6.1 0 10.1 4.7 9 10.5z"/></g></g></svg>