<svg version="1.1" id="Layer_1" xmlns="http://www.w3.org/2000/svg" x="0" y="0" width="792" height="1224" style="enable-background:new 0 0 792 1224" xml:space="preserve"><style>.st0{fill:#006940}</style><path class="st0" d="M300.4 573.8h3.6l1.2 5.4 1.6-5.4h4.1l1.6 5.4 1.2-5.4h3.3l-2.1 8.6h-4.6l-1.6-5.3-1.6 5.3h-4.7l-2-8.6zM321.1 573.8h4.6l4.5 8.6h-4.1l-.6-1.4H321l-.7 1.4h-3.6l4.4-8.6zm3.5 5.3-1.4-3-1.4 3h2.8zM334.2 579.7c0 .5.1.8.3 1.1.2.2.6.3 1.1.3.8 0 1.6-.2 1.6-.9 0-.1-.1-.3-.2-.4-.5-.5-4.7-1-5.9-2-.5-.4-.6-1-.6-1.5 0-1.9 1.8-2.7 5.3-2.7 3.7 0 4.9 1 4.9 2.8h-3.6c0-.5-.2-.8-.5-1-.3-.2-.6-.2-1.1-.2-.8 0-1.2.3-1.2.7 0 .1 0 .3.1.4.6.5 4.6.9 5.8 1.9.3.3.7.8.7 1.6 0 1.7-1.5 2.8-5.5 2.8-4.8 0-5-1.4-5.1-3h3.9zM344.8 575.9H342v-2.1h9.4v2.1h-2.9v6.5h-3.7v-6.5zM352.7 573.8h8.4v1.8h-4.8v1.6h4.5v1.8h-4.5v1.6h4.9v1.8h-8.4v-8.6zM367.9 573.8h5.6l1.8 5.8 1.8-5.8h5.6v8.6h-3.4V576l-2.4 6.5h-3.6L371 576v6.5h-3.1v-8.7zM388 573.8h4.6l4.5 8.6H393l-.6-1.4h-4.5l-.7 1.4h-3.6l4.4-8.6zm3.5 5.3-1.4-3-1.4 3h2.8zM397.8 573.8h5.4l3 5.8v-5.8h3.2v8.6h-5.2l-3.1-6.1v6.1h-3.2v-8.6zM414.7 573.8h4.6l4.5 8.6h-4.1l-.7-1.4h-4.5l-.7 1.4h-3.6l4.5-8.6zm3.5 5.3-1.4-3-1.4 3h2.8zM431.3 576.5c-.1-.2-.2-.5-.5-.7-.3-.2-.7-.3-1.2-.3-1.6 0-2.5 1-2.5 2.6 0 1.7.8 2.9 2.6 2.9.8 0 1.4-.1 1.7-.3v-1.3h-2.1v-1.8h5.8v4.6c-1.7.4-4 .7-5.9.7-4.4 0-5.8-1.9-5.8-4.4 0-3.2 2.3-4.7 6.2-4.7 3.2 0 5.5.7 5.5 2.9h-3.8zM437.1 573.8h8.4v1.8h-4.8v1.6h4.5v1.8h-4.5v1.6h4.9v1.8h-8.4v-8.6zM447.2 573.8h5.6l1.8 5.8 1.8-5.8h5.6v8.6h-3.4V576l-2.4 6.5h-3.6l-2.3-6.5v6.5h-3.1v-8.7zM464.1 573.8h8.4v1.8h-4.8v1.6h4.5v1.8h-4.5v1.6h4.9v1.8h-8.4v-8.6zM474.1 573.8h5.4l2.9 5.8v-5.8h3.2v8.6h-5.2l-3.1-6.1v6.1h-3.2v-8.6zM489.5 575.9h-2.9v-2.1h9.4v2.1h-2.9v6.5h-3.7v-6.5zM286.7 506.7h24l7.8 36.3h.2l11-36.3h27.6l10.8 36.3h.2l7.7-36.3h22.2l-13.9 58.1h-31.2l-10.5-35.3h-.2l-10.6 35.3h-31.5l-13.6-58.1z"/><path d="M398.4 506.7h31.4l10.6 35.3h.2l10.5-35.3h31.2l13.9 58.1H474l-7.7-36.2h-.2l-10.8 36.2h-27.6l-11-36.2h-.2l-7.8 36.2h-24l13.7-58.1z" style="fill:#eeb111"/><path class="st0" d="M498.8 561.3c0-1.7 1.3-2.9 2.9-2.9 1.6 0 2.9 1.3 2.9 2.9 0 1.7-1.3 2.9-2.9 2.9-1.7 0-2.9-1.2-2.9-2.9zm2.9 3.5c1.9 0 3.6-1.5 3.6-3.5s-1.7-3.5-3.6-3.5c-2 0-3.6 1.5-3.6 3.5-.1 2 1.6 3.5 3.6 3.5zm-.8-3.2h.7l1.1 1.8h.7l-1.2-1.8c.6-.1 1.1-.4 1.1-1.1 0-.8-.5-1.2-1.4-1.2h-1.6v4.1h.6v-1.8zm0-.5v-1.3h.8c.4 0 .9.1.9.6 0 .6-.5.7-1 .7h-.7z"/></svg>