<svg version="1.1" id="Layer_1" xmlns="http://www.w3.org/2000/svg" xmlns:xlink="http://www.w3.org/1999/xlink" x="0" y="0" width="252" height="162" style="enable-background:new 0 0 252 162" xml:space="preserve"><style>.st21{fill:#bbbdbf}</style><defs><path id="SVGID_1_" d="m99 72-1.9 1.4-17.6-17.5 11.8 9.5-7-13.1 10.1 15.9-8.8-16.8z"/></defs><clipPath id="SVGID_2_"><use xlink:href="#SVGID_1_" style="overflow:visible"/></clipPath><radialGradient id="SVGID_3_" cx="-51.34" cy="333.878" r=".566" gradientTransform="scale(17.8584 -17.8584) rotate(11.46 1658 445.836)" gradientUnits="userSpaceOnUse"><stop offset="0" style="stop-color:#127ca3"/><stop offset=".247" style="stop-color:#127ca3"/><stop offset="1" style="stop-color:#2da9e1"/></radialGradient><path style="clip-path:url(#SVGID_2_);fill:url(#SVGID_3_)" d="m75.3 52.3 22.9-4.6 5.1 24.8-23 4.6z"/><defs><path id="SVGID_4_" d="m95 73.5-.8 2.2-24.4-3.8 15.1.8-12.2-4.5L89 73.1l-15.7-6.4z"/></defs><clipPath id="SVGID_5_"><use xlink:href="#SVGID_4_" style="overflow:visible"/></clipPath><radialGradient id="SVGID_6_" cx="-50.9" cy="334.174" r=".566" gradientTransform="matrix(16.9226 -3.4308 -3.4308 -16.9226 2089.997 5552)" gradientUnits="userSpaceOnUse"><stop offset="0" style="stop-color:#127ca3"/><stop offset=".247" style="stop-color:#127ca3"/><stop offset="1" style="stop-color:#2da9e1"/></radialGradient><path style="clip-path:url(#SVGID_5_);fill:url(#SVGID_6_)" d="m68 67.1 26-5.3 2.7 13.6-25.9 5.2z"/><defs><path id="SVGID_7_" d="m95.5 77.2.6 2.3-22.7 9.8 13.2-7.4-13.4 3L90.3 80l-17.4 3.3z"/></defs><clipPath id="SVGID_8_"><use xlink:href="#SVGID_7_" style="overflow:visible"/></clipPath><radialGradient id="SVGID_9_" cx="-50.725" cy="334.774" r=".566" gradientTransform="scale(15.8346 -15.8346) rotate(11.46 1671.6 444.11)" gradientUnits="userSpaceOnUse"><stop offset="0" style="stop-color:#127ca3"/><stop offset=".247" style="stop-color:#127ca3"/><stop offset="1" style="stop-color:#2da9e1"/></radialGradient><path style="clip-path:url(#SVGID_8_);fill:url(#SVGID_9_)" d="m70.5 77.7 24.7-5.1 3.3 16.2-24.7 5z"/><defs><path id="SVGID_10_" d="m96 81 1.8 1.5-12.5 21.4 6.3-13.8-8.2 9.2 10.1-12.9-11.2 11.8z"/></defs><clipPath id="SVGID_11_"><use xlink:href="#SVGID_10_" style="overflow:visible"/></clipPath><radialGradient id="SVGID_12_" cx="-51.077" cy="335.156" r=".566" gradientTransform="scale(17.1043 -17.1043) rotate(11.461 1674.04 445.724)" gradientUnits="userSpaceOnUse"><stop offset="0" style="stop-color:#127ca3"/><stop offset=".247" style="stop-color:#127ca3"/><stop offset="1" style="stop-color:#2da9e1"/></radialGradient><path style="clip-path:url(#SVGID_11_);fill:url(#SVGID_12_)" d="M77.8 81.9 97.2 78l5.1 25-19.4 3.9z"/><defs><path id="SVGID_13_" d="M99.1 80.8h2.4l3.6 24.5-3.7-14.7-1 14.1.1-18.2-1.7 18.1z"/></defs><clipPath id="SVGID_14_"><use xlink:href="#SVGID_13_" style="overflow:visible"/></clipPath><radialGradient id="SVGID_15_" cx="-51.467" cy="335.34" r=".565" gradientTransform="scale(16.4215 -16.4215) rotate(11.46 1676.569 451.711)" gradientUnits="userSpaceOnUse"><stop offset="0" style="stop-color:#127ca3"/><stop offset=".247" style="stop-color:#127ca3"/><stop offset="1" style="stop-color:#2da9e1"/></radialGradient><path style="clip-path:url(#SVGID_14_);fill:url(#SVGID_15_)" d="m94 81.7 10.9-2.2 5 24.8-10.8 2.2z"/><defs><path id="SVGID_16_" d="m102.5 82.1 1.9-1.3 16.9 18-11.4-9.9 6.8 12-9.8-14.9 8.4 15.7z"/></defs><clipPath id="SVGID_17_"><use xlink:href="#SVGID_16_" style="overflow:visible"/></clipPath><radialGradient id="SVGID_18_" cx="-51.987" cy="335.273" r=".566" gradientTransform="scale(17.0462 -17.0462) rotate(11.461 1674.38 456.731)" gradientUnits="userSpaceOnUse"><stop offset="0" style="stop-color:#127ca3"/><stop offset=".247" style="stop-color:#127ca3"/><stop offset="1" style="stop-color:#2da9e1"/></radialGradient><path style="clip-path:url(#SVGID_17_);fill:url(#SVGID_18_)" d="m98.4 81.6 22.1-4.5 4.9 23.8-22.2 4.5z"/><g><defs><path id="SVGID_19_" d="m105.5 80.3.9-2.1 24 6.1-15-2.2 11.9 5.8-15.9-6.6 15.1 8z"/></defs><clipPath id="SVGID_20_"><use xlink:href="#SVGID_19_" style="overflow:visible"/></clipPath><radialGradient id="SVGID_21_" cx="-52.383" cy="334.965" r=".565" gradientTransform="scale(17.4676 -17.4676) rotate(11.461 1670.011 459.806)" gradientUnits="userSpaceOnUse"><stop offset="0" style="stop-color:#127ca3"/><stop offset=".247" style="stop-color:#127ca3"/><stop offset="1" style="stop-color:#2da9e1"/></radialGradient><path style="clip-path:url(#SVGID_20_);fill:url(#SVGID_21_)" d="m103.3 78.6 26.1-5.3 3.2 15.6-26.1 5.3z"/></g><g><defs><path id="SVGID_22_" d="m105.3 76.8-.6-2.3 22.9-9.4-13.3 7.2 14.1-2.2-17.8 4 18-2.4z"/></defs><clipPath id="SVGID_23_"><use xlink:href="#SVGID_22_" style="overflow:visible"/></clipPath><radialGradient id="SVGID_24_" cx="-52.352" cy="334.444" r=".566" gradientTransform="scale(15.8046 -15.8046) rotate(11.461 1666.302 462.534)" gradientUnits="userSpaceOnUse"><stop offset="0" style="stop-color:#127ca3"/><stop offset=".247" style="stop-color:#127ca3"/><stop offset="1" style="stop-color:#2da9e1"/></radialGradient><path style="clip-path:url(#SVGID_23_);fill:url(#SVGID_24_)" d="m102.5 65.6 25.2-5.1 3.2 15.8-25.2 5.2z"/></g><g><defs><path id="SVGID_25_" d="m105.5 72.8-1.5-1.5 12.5-18.5-6.5 12.1 9.8-9.7-11.7 12.9 12.7-11.8z"/></defs><clipPath id="SVGID_26_"><use xlink:href="#SVGID_25_" style="overflow:visible"/></clipPath><radialGradient id="SVGID_27_" cx="-52.227" cy="333.987" r=".566" gradientTransform="scale(16.262 -16.262) rotate(16.367 1151.89 370.6)" gradientUnits="userSpaceOnUse"><stop offset="0" style="stop-color:#127ca3"/><stop offset=".247" style="stop-color:#127ca3"/><stop offset="1" style="stop-color:#2da9e1"/></radialGradient><path style="clip-path:url(#SVGID_26_);fill:url(#SVGID_27_)" d="m98.5 54.4 21-6.2 6.7 23-20.9 6.1z"/></g><g><defs><path id="SVGID_28_" d="m101.7 72.8-2.3-.3-.8-24.8 2 15.1 2.5-14-2.1 18.1 3.7-17.8z"/></defs><clipPath id="SVGID_29_"><use xlink:href="#SVGID_28_" style="overflow:visible"/></clipPath><radialGradient id="SVGID_30_" cx="-51.846" cy="333.871" r=".566" gradientTransform="scale(16.8951 -16.8951) rotate(11.46 1658.37 453.539)" gradientUnits="userSpaceOnUse"><stop offset="0" style="stop-color:#127ca3"/><stop offset=".247" style="stop-color:#127ca3"/><stop offset="1" style="stop-color:#2da9e1"/></radialGradient><path style="clip-path:url(#SVGID_29_);fill:url(#SVGID_30_)" d="m93.8 48.7 10.7-2.2 5.1 25.3L98.9 74z"/></g><g><defs><path id="SVGID_31_" d="m99.2 67.8.5 1.9-.6-1.9-7.4-27.7 4.6 21.3-7.4-26.5 6.8 26.7L89 40.8l7.4 27.6.5 1.9-.6-1.8-6.4-20 5.4 20.2 1.2 4.2 4.9-1.2-1.1-4.2-5.5-20.1z"/></defs><clipPath id="SVGID_32_"><use xlink:href="#SVGID_31_" style="overflow:visible"/></clipPath><radialGradient id="SVGID_33_" cx="-52.575" cy="334.167" r=".565" gradientTransform="matrix(54.3221 -10.1945 -11.8458 -54.629 6914.972 17795.31)" gradientUnits="userSpaceOnUse"><stop offset="0" style="stop-color:#f2f2f2"/><stop offset=".173" style="stop-color:#f2f2f2"/><stop offset=".223" style="stop-color:#e2ecec"/><stop offset=".453" style="stop-color:#9cd5d8"/><stop offset=".62" style="stop-color:#6bc9cd"/><stop offset=".705" style="stop-color:#54c4c8"/><stop offset=".958" style="stop-color:#54c4c8"/><stop offset="1" style="stop-color:#54c4c8"/></radialGradient><path style="clip-path:url(#SVGID_32_);fill:url(#SVGID_33_)" d="m80.9 36.4 20-3.8 8.4 38.8-20 3.8z"/></g><g><defs><path id="SVGID_34_" d="m105.4 69-.9 1.8.8-1.8 11.9-26.1-10 19.4 11.1-25.2-11.7 25 8.1-20.3-11.9 26.1-.9 1.8.8-1.8 7.7-19.4-8.7 19-1.8 4 4.6 1.9 1.9-4 8.6-19z"/></defs><clipPath id="SVGID_35_"><use xlink:href="#SVGID_34_" style="overflow:visible"/></clipPath><radialGradient id="SVGID_36_" cx="-52.604" cy="334.156" r=".566" gradientTransform="matrix(55.0016 -12.1119 -9.9851 -53.6634 6330.228 17370.807)" gradientUnits="userSpaceOnUse"><stop offset="0" style="stop-color:#f2f2f2"/><stop offset=".173" style="stop-color:#f2f2f2"/><stop offset=".223" style="stop-color:#e2ecec"/><stop offset=".453" style="stop-color:#9cd5d8"/><stop offset=".62" style="stop-color:#6bc9cd"/><stop offset=".705" style="stop-color:#54c4c8"/><stop offset=".958" style="stop-color:#54c4c8"/><stop offset="1" style="stop-color:#54c4c8"/></radialGradient><path style="clip-path:url(#SVGID_35_);fill:url(#SVGID_36_)" d="m93.4 38.6 24.2-5.4 7.2 38.7-24.2 5.4z"/></g><g><defs><path id="SVGID_37_" d="m109.2 72.8-2 1.1 2-1.2 27.4-17-21.5 12 26.2-16.6-26.5 16.1 20.3-13.9-27.4 17-1.9 1.2 1.8-1.3L127.1 57l-20 12.3-4.2 2.6 2.7 4.3 4.2-2.5 19.9-12.4z"/></defs><clipPath id="SVGID_38_"><use xlink:href="#SVGID_37_" style="overflow:visible"/></clipPath><radialGradient id="SVGID_39_" cx="-52.632" cy="334.149" r=".566" gradientTransform="matrix(60.3064 -14.7386 -8.7691 -55.6469 6204.137 17894.912)" gradientUnits="userSpaceOnUse"><stop offset="0" style="stop-color:#f2f2f2"/><stop offset=".173" style="stop-color:#f2f2f2"/><stop offset=".223" style="stop-color:#e2ecec"/><stop offset=".453" style="stop-color:#9cd5d8"/><stop offset=".62" style="stop-color:#6bc9cd"/><stop offset=".705" style="stop-color:#54c4c8"/><stop offset=".958" style="stop-color:#54c4c8"/><stop offset="1" style="stop-color:#54c4c8"/></radialGradient><path style="clip-path:url(#SVGID_38_);fill:url(#SVGID_39_)" d="m99.1 52.1 40.8-10 5.2 33.2-40.8 9.9z"/></g><g><defs><path id="SVGID_40_" d="m108.8 78.6-1.9-.2 1.9.1 26.4.5-20.1-1.5 25.5.2-25.5-.8 20.2-.7-26.5-.5-1.8-.1h1.8l19.3-.6-19.3-.5h-4l-.1 5 4 .2 19.3.3z"/></defs><clipPath id="SVGID_41_"><use xlink:href="#SVGID_40_" style="overflow:visible"/></clipPath><radialGradient id="SVGID_42_" cx="-52.558" cy="334.146" r=".565" gradientTransform="matrix(50.3086 -12.9067 -12.0402 -53.8461 6767.833 17390.611)" gradientUnits="userSpaceOnUse"><stop offset="0" style="stop-color:#f2f2f2"/><stop offset=".173" style="stop-color:#f2f2f2"/><stop offset=".223" style="stop-color:#e2ecec"/><stop offset=".453" style="stop-color:#9cd5d8"/><stop offset=".62" style="stop-color:#6bc9cd"/><stop offset=".705" style="stop-color:#54c4c8"/><stop offset=".958" style="stop-color:#54c4c8"/><stop offset="1" style="stop-color:#54c4c8"/></radialGradient><path style="clip-path:url(#SVGID_41_);fill:url(#SVGID_42_)" d="m103.5 74.8 35.1-9 3.1 13.9-35 9z"/></g><g><defs><path id="SVGID_43_" d="m106.9 83.2-1.7-1.4 1.8 1.4 25 19.5L113.7 87l24.2 18.5-23.9-19 19.7 14-25-19.6-1.7-1.3 1.8 1.3 18.8 13.4L109.5 80l-3.9-2.9-3.1 4 3.8 3 18.2 14.2z"/></defs><clipPath id="SVGID_44_"><use xlink:href="#SVGID_43_" style="overflow:visible"/></clipPath><radialGradient id="SVGID_45_" cx="-52.589" cy="334.166" r=".566" gradientTransform="matrix(57.6568 -8.3559 -14.9617 -57.3586 8131.763 18803.49)" gradientUnits="userSpaceOnUse"><stop offset="0" style="stop-color:#f2f2f2"/><stop offset=".173" style="stop-color:#f2f2f2"/><stop offset=".223" style="stop-color:#e2ecec"/><stop offset=".453" style="stop-color:#9cd5d8"/><stop offset=".62" style="stop-color:#6bc9cd"/><stop offset=".705" style="stop-color:#54c4c8"/><stop offset=".958" style="stop-color:#54c4c8"/><stop offset="1" style="stop-color:#54c4c8"/></radialGradient><path style="clip-path:url(#SVGID_44_);fill:url(#SVGID_45_)" d="m95.4 78.1 41.2-5.9 8.4 32.3-41.2 5.9z"/></g><g><defs><path id="SVGID_46_" d="m101.9 84.7-.6-1.9.7 1.8 9.3 25.1-6-19.3 9.2 24-8.7-24.2 8.2 18.9-9.3-25.1-.7-1.7.8 1.7 7.7 18-6.7-18.3-1.5-3.8-4.8 1.2 1.4 3.8 6.8 18.3z"/></defs><clipPath id="SVGID_47_"><use xlink:href="#SVGID_46_" style="overflow:visible"/></clipPath><radialGradient id="SVGID_48_" cx="-52.564" cy="334.19" r=".565" gradientTransform="matrix(54.5828 -7.8795 -12.8463 -50.0352 7262.493 16383.283)" gradientUnits="userSpaceOnUse"><stop offset="0" style="stop-color:#f2f2f2"/><stop offset=".173" style="stop-color:#f2f2f2"/><stop offset=".223" style="stop-color:#e2ecec"/><stop offset=".453" style="stop-color:#9cd5d8"/><stop offset=".62" style="stop-color:#6bc9cd"/><stop offset=".705" style="stop-color:#54c4c8"/><stop offset=".958" style="stop-color:#54c4c8"/><stop offset="1" style="stop-color:#54c4c8"/></radialGradient><path style="clip-path:url(#SVGID_47_);fill:url(#SVGID_48_)" d="m91 81.1 23-3.3 9.1 35.4-23.1 3.3z"/></g><g><defs><path id="SVGID_49_" d="m96.4 84 .7-1.7-.6 1.8-9.8 25.5 8.5-19.1-9.2 24.6 9.7-24.5-6.4 19.7 9.8-25.6.7-1.7-.6 1.8-6.1 18.8 7.2-18.6 1.4-3.9-4.8-1.2-1.6 3.9-7 18.6z"/></defs><clipPath id="SVGID_50_"><use xlink:href="#SVGID_49_" style="overflow:visible"/></clipPath><radialGradient id="SVGID_51_" cx="-52.603" cy="334.17" r=".571" gradientTransform="matrix(55.5151 -12.826 -9.0771 -50.0106 6054.173 16113.486)" gradientUnits="userSpaceOnUse"><stop offset="0" style="stop-color:#f2f2f2"/><stop offset=".173" style="stop-color:#f2f2f2"/><stop offset=".223" style="stop-color:#e2ecec"/><stop offset=".453" style="stop-color:#9cd5d8"/><stop offset=".62" style="stop-color:#6bc9cd"/><stop offset=".705" style="stop-color:#54c4c8"/><stop offset=".958" style="stop-color:#54c4c8"/><stop offset="1" style="stop-color:#54c4c8"/></radialGradient><path style="clip-path:url(#SVGID_50_);fill:url(#SVGID_51_)" d="m79.9 81.3 21.2-4.9 6.7 37.3-21.1 4.9z"/></g><g><defs><path id="SVGID_52_" d="m92.3 80.9 1.9-1.3-1.8 1.4L67 100.4l20-13.9-24.2 18.9L87.4 87l-18.7 15.7 25.4-19.5 1.7-1.3-1.6 1.4-17.9 15 18.5-14.1 3.8-3-3-4-3.9 2.9-18.5 14.2z"/></defs><clipPath id="SVGID_53_"><use xlink:href="#SVGID_52_" style="overflow:visible"/></clipPath><radialGradient id="SVGID_54_" cx="-52.644" cy="334.13" r=".565" gradientTransform="matrix(59.3014 -14.8532 -8.5527 -56.1496 6080.482 18054.953)" gradientUnits="userSpaceOnUse"><stop offset="0" style="stop-color:#f2f2f2"/><stop offset=".173" style="stop-color:#f2f2f2"/><stop offset=".223" style="stop-color:#e2ecec"/><stop offset=".453" style="stop-color:#9cd5d8"/><stop offset=".62" style="stop-color:#6bc9cd"/><stop offset=".705" style="stop-color:#54c4c8"/><stop offset=".958" style="stop-color:#54c4c8"/><stop offset="1" style="stop-color:#54c4c8"/></radialGradient><path style="clip-path:url(#SVGID_53_);fill:url(#SVGID_54_)" d="m58.6 78.2 38.7-9.7 5.5 35.9-38.7 9.7z"/></g><g><defs><path id="SVGID_55_" d="M92.5 75.4h1.8l-1.8.1-26.3 1.3 20 .1L61 78.4l25.3-.9-20 2.1 26.3-1.3 1.8-.1-1.8.2-19.1 1.9 19.1-.8 4-.3-.2-5-4 .1-19.1 1z"/></defs><clipPath id="SVGID_56_"><use xlink:href="#SVGID_55_" style="overflow:visible"/></clipPath><radialGradient id="SVGID_57_" cx="-52.56" cy="334.16" r=".566" gradientTransform="matrix(50.317 -10.9845 -10.2622 -54.2651 6174.41 17631.867)" gradientUnits="userSpaceOnUse"><stop offset="0" style="stop-color:#f2f2f2"/><stop offset=".173" style="stop-color:#f2f2f2"/><stop offset=".223" style="stop-color:#e2ecec"/><stop offset=".453" style="stop-color:#9cd5d8"/><stop offset=".62" style="stop-color:#6bc9cd"/><stop offset=".705" style="stop-color:#54c4c8"/><stop offset=".958" style="stop-color:#54c4c8"/><stop offset="1" style="stop-color:#54c4c8"/></radialGradient><path style="clip-path:url(#SVGID_56_);fill:url(#SVGID_57_)" d="m59.9 74.4 35.3-7.7 2.6 13.4-35.4 7.7z"/></g><g><defs><path id="SVGID_58_" d="m93.6 70.4 1.8 1.2-1.8-1.2-26.3-16.5 19.4 13.5-25.4-15.7 25.1 16.2-20.6-11.6 26.3 16.5 1.8 1.2-1.9-1.1-19.6-11.2 19 12.1 4.1 2.5 2.6-4.3-3.9-2.6-19.1-12z"/></defs><clipPath id="SVGID_59_"><use xlink:href="#SVGID_58_" style="overflow:visible"/></clipPath><radialGradient id="SVGID_60_" cx="-52.613" cy="334.185" r=".565" gradientTransform="matrix(57.4565 -8.9906 -14.0507 -56.1964 7819.242 18383.076)" gradientUnits="userSpaceOnUse"><stop offset="0" style="stop-color:#f2f2f2"/><stop offset=".173" style="stop-color:#f2f2f2"/><stop offset=".223" style="stop-color:#e2ecec"/><stop offset=".453" style="stop-color:#9cd5d8"/><stop offset=".62" style="stop-color:#6bc9cd"/><stop offset=".705" style="stop-color:#54c4c8"/><stop offset=".958" style="stop-color:#54c4c8"/><stop offset="1" style="stop-color:#54c4c8"/></radialGradient><path style="clip-path:url(#SVGID_59_);fill:url(#SVGID_60_)" d="m55.4 52.7 41.4-6.5 7.3 29.2-41.4 6.4z"/></g><g><defs><path id="SVGID_61_" d="M99.3 70.5c-3.3.7-5.4 3.8-4.7 7.1.7 3.3 3.8 5.4 7.1 4.7 3.3-.7 5.4-3.8 4.7-7.1-.6-2.9-3.1-4.8-5.9-4.8-.4 0-.8 0-1.2.1"/></defs><clipPath id="SVGID_62_"><use xlink:href="#SVGID_61_" style="overflow:visible"/></clipPath><radialGradient id="SVGID_63_" cx="-52.581" cy="334.162" r=".567" gradientTransform="scale(55.371 -55.371) rotate(11.461 1646.501 437.419)" gradientUnits="userSpaceOnUse"><stop offset="0" style="stop-color:#f2f2f2"/><stop offset=".173" style="stop-color:#f2f2f2"/><stop offset=".238" style="stop-color:#e8eeef"/><stop offset=".347" style="stop-color:#cfe5e8"/><stop offset=".487" style="stop-color:#a4d6de"/><stop offset=".651" style="stop-color:#61c5d0"/><stop offset=".705" style="stop-color:#40bfcc"/><stop offset=".743" style="stop-color:#4ac1cd"/><stop offset=".79" style="stop-color:#60c6d1"/><stop offset=".841" style="stop-color:#7eced7"/><stop offset=".895" style="stop-color:#a2dae1"/><stop offset=".951" style="stop-color:#cfebee"/><stop offset="1" style="stop-color:#fff"/></radialGradient><path style="clip-path:url(#SVGID_62_);fill:url(#SVGID_63_)" d="m91.5 70.9 15.1-3.1 2.9 14.7-15 3z"/></g><g><path class="st21" d="M127.8 53.1h4.3L162.6 87h.3V53.1h3.4v47.5h-1.8l-33-37.7h-.2v36.6h-3.5zM44.7 53.1 62.2 90l16.3-36.9h3.7l-21.1 47.5h-2L36.5 53.1zM193.5 53.1l21.9 47.5h-7.9l-7.1-15.5h-19.9l-7.3 15.5h-3.9l22.4-47.5h1.8zm-11.7 29h17.1l-8.4-18.4-8.7 18.4z"/></g><g><path class="st21" d="M50.1 119.1c-.4-.5-1-.8-1.7-.8-1.5 0-2.6 1.3-2.6 3 0 1.6 1 2.9 2.6 2.9.8 0 1.4-.4 1.8-1l.8.6c-.2.3-1 1.3-2.6 1.3-2.2 0-3.5-2-3.5-3.8 0-2.3 1.5-3.9 3.6-3.9.9 0 1.9.4 2.4 1.1l-.8.6zM56.3 117.5h.8l2.9 7.4h-1l-.7-1.8H55l-.7 1.8h-1.1l3.1-7.4zm1.6 4.6-1.3-3.4-1.3 3.4h2.6zM63.2 123.3c.3.5.9.8 1.5.8s1.4-.4 1.4-1.2c0-1.7-3.4-.6-3.4-3.5 0-.9.7-2.1 2.3-2.1.7 0 1.5.2 2 .8l-.8.7c-.2-.4-.7-.6-1.2-.6-1 0-1.3.7-1.3 1.1 0 1.9 3.4.8 3.4 3.4 0 1.4-1.1 2.3-2.4 2.3-.9 0-1.7-.3-2.2-1l.7-.7zM70.4 117.5h4.4v.9h-3.5v2.2h3.3v.9h-3.3v2.4H75v.9h-4.6v-7.3zM82.9 117.5h1.4l2.2 5.6 2.2-5.6h1.4v7.4h-.9v-6.1l-2.3 6.1h-.6l-2.3-6.1v6.1h-.9v-7.4zM95.9 117.5h.8l2.9 7.4h-1.1L98 123h-3.3l-.7 1.8h-1.1l3-7.3zm1.7 4.6-1.3-3.4-1.3 3.4h2.6zM102.6 117.5h1.2l3.8 6.1v-6.1h.9v7.4h-1.2l-3.8-6.1v6.1h-.9v-7.4zM114.5 117.5h.8l2.9 7.4h-1.1l-.7-1.8h-3.3l-.7 1.8h-1.1l3.2-7.4zm1.7 4.6-1.3-3.4-1.3 3.4h2.6zM127 120.7v3.6c-.7.4-1.8.7-2.6.7-2.3 0-3.7-1.8-3.7-3.9 0-2.2 1.5-3.9 3.6-3.9 1.3 0 2 .4 2.6 1l-.7.8c-.6-.6-1.2-.8-1.9-.8-1.6 0-2.6 1.3-2.6 2.9 0 1.7 1.2 2.9 2.7 2.9.7 0 1.3-.1 1.7-.4v-2.1h-1.5v-.9h2.4zM130.7 117.5h4.4v.9h-3.5v2.2h3.3v.9h-3.3v2.4h3.7v.9h-4.6v-7.3zM138.6 117.5h1.4l2.2 5.6 2.2-5.6h1.4v7.4h-.9v-6.1l-2.3 6.1h-.6l-2.3-6.1v6.1h-.9v-7.4zM149.5 117.5h4.4v.9h-3.5v2.2h3.3v.9h-3.3v2.4h3.7v.9h-4.6v-7.3zM157.4 117.5h1.2l3.8 6.1v-6.1h.9v7.4h-1.2l-3.8-6.1v6.1h-.9v-7.4zM168.6 118.4h-2.2v-.9h5.4v.9h-2.2v6.5h-.9v-6.5zM174 126.2h-.8l.7-2.6h.9l-.8 2.6zM183 117.5h.9v7.4h-.9v-7.4zM187.7 117.5h1.2l3.8 6.1v-6.1h.9v7.4h-1.2l-3.8-6.1v6.1h-.9v-7.4zM202.3 119.1c-.4-.5-1-.8-1.7-.8-1.5 0-2.6 1.3-2.6 3 0 1.6 1 2.9 2.6 2.9.8 0 1.4-.4 1.8-1l.8.6c-.2.3-1 1.3-2.6 1.3-2.2 0-3.5-2-3.5-3.8 0-2.3 1.5-3.9 3.6-3.9.9 0 1.9.4 2.4 1.1l-.8.6zM206.1 124.2c0-.4.3-.7.6-.7.4 0 .6.3.6.7 0 .4-.3.7-.6.7s-.6-.3-.6-.7z"/></g></svg>