<svg version="1.1" id="Layer_1" xmlns="http://www.w3.org/2000/svg" x="0" y="0" width="612" height="792" style="enable-background:new 0 0 612 792" xml:space="preserve"><style>.st0{fill-rule:evenodd;clip-rule:evenodd;fill:#056ab2}</style><path class="st0" d="M411.3 377.5c.6-1.3 3.3-4.7 5.5-4.6.1 1-.1 1.1-.8 1.7-.4.4-.8.8-1.3 1.1-.9.8-2.1 1.5-3.4 1.8zm-28.2 0c.7-1.4 3.6-4.9 5.5-4.5.2 1.4-1.2 2.1-2.1 2.7-.9.8-2 1.4-3.4 1.8zm-42.8-2.9c-2.5.1-3.4.6-5.3 2.9-4.9 6-1.6 11.3 4.1 7.5 2.7-1.8 6.7-5.4 9-7.8.5-.5.7-.9 1.2-1.5l6.8-7.3c-2.2 6.6-7.7 10.6-8.1 13-.1.7 1.1 8.2 5 3.4l6.3-7.4c.9-.9 1.3-1.7 2.1-2.4l7.4-6.2c-.4.4-1.3 1.9-1.9 2.7-1.9 2.7-4.7 6.8-4.7 10.4 0 4.3 2.9 6.7 7.9 4.3 3.7-1.8 7.3-5.6 8.1-6 .2 4.4 2.7 7.1 7.6 6.1 4.2-.9 6.5-3.5 8.5-5.4-.2 1-.5 1.7-.5 2.9 0 5.1 6.5 2.5 9.6.3.8-.6 2.3-2 3-2.2 1.6 7.4 10.5 5.4 16.7-2.1 1.4-1.7 1.1-3.1 6.2-3.3-.9 1.1-2.6 3-3.1 4.9-1.3 4.7 4.5 7.7 10.7-.1 1-1.3 1.3-.9.9-3-1 .5-1 1.1-3.1 2.5-1.1.7-2.7 1.7-4 .8-.9-2.9 2-4.1 3.1-5.3.8-.8 1.5-1.6 1.1-3.2-.6-2.8-4.8-1.4-8.2-.9 1.3-3.8-2.5-1.3-3.7.1-3.4 4.1-1.4 4.5-.8 5.6-1.5 2.5-10.3 8.7-11.5 2.3 2.7-.5 10.1-3.3 10.2-7.1.1-4.3-9.3-3.2-13.3 3-.5.8-.8 2.1-1.3 2.6-.9.9-5.2 4.2-7.6 3.7-.7-3.1 2-5.9 2.7-8.1 3.3.2 6.1.1 7.2-4.9l-2.5-.2c.1-.2 2.3-2.7.2-3.5-.9-.4-2.1.1-2.8.6-1.4 1-1.2 1.5-2.4 2.9-2.1 0-3.8.3-4.9 1.3-.7.6-2.1 2.7-2.4 4l3.7-.3c-.7 2.2-4.5 5.4-6.6 6.7-2.4 1.5-7.6 4.3-8.4-.5 2.3-.6 6.4-2.3 7.9-3.5 5.7-4.7-.2-8.9-7.5-4.2-2.2 1.4-4.3 4.6-6.2 6-.8.6-1.5 1.2-2.3 1.8-1.1.9-3.7 2.8-5.5 2.4-4.5-2.1 6.1-14.1 7.8-16.4.8-1 3.5-3.7 2.8-5.3-.3-.7-1.5-1.9-2.1-2.3-2-1.2-3.6.9-6.6 3.4-.5.4-.6.7-1.1 1.1-1.6 1.3-3.1 2.7-4.6 4l-1.1 1.1c-.5.4-.8.6-1.2 1-1 .9-1.4 1.4-2.6 2.1.9-2.3 2.3-3.2 3.9-8.3.6-1.9 1-2.8-.3-4.2-.7-.7-2.6-2.1-4.2-2-1.2 1.4-2 3-3.1 4.5-3.1 4.2-6.2 8.1-9.6 12l-1.1 1.1c-.7.7-1.1 1.4-1.8 2.1-1.2 1.3-5 4.9-6.1 5.6-3.5 2-2.7-1.3-1.6-3.3 1.3-2.2 2.7-3.1 4-4.5zM265.6 382.5c-.3-4.6 4.8-6.3 8.7-7.2-1.1 2.1-6.3 7.1-8.7 7.2zm24.2-4.3c.7-1.9 3.5-4.5 5.9-4.9-.6 2-3.6 4.1-5.9 4.9zm-13.3-6.6c-2.1-.7-2.6-1.5-6.7.4-3.1 1.4-5.8 2.9-7.6 5.7-.9 1.4-.4 1.4-1.8 2.5s-3.6 3.3-5.8 2.7c-.8-2.3 2.1-4.8 3.1-5.6 2.1-1.7 2.8-3.1.8-6-2.1-.3-4.7.4-6.9.5V370c-3.1-.8-8.4 5.3-6.7 7.8l.6.8c-1.1.7-2.5 3-4.2 4-1.8 1.1-5.2 1.8-4.9-1.4.4-.5 1.4-1.3 1.9-1.6.8-.7 1.3-1 2-1.8 6.8-7.5-1.7-8.1-6.4-.7-2 3.1-3 9.3.6 11.1 3.8 1.9 9-3.1 10.7-5.3 1.2-1.5.6-1.3 1.6-2.2 2-1.7 1.3-2.3 3-2.8.9-.2 2.1-.4 3.1-.6-1 1.4-2.3 2.8-3.1 4.7-1 2.3-.5 4.8 1.2 5.9 3.2 2.1 8.9-4.1 10.1-5.1 2.5 9.4 7.8 1.8 11.1-.4-1.2 12.7 9.3 2.3 11.9.2.9 9.2 8.9 6.5 14.1 2.3l2.1-1.7c.2 5.8 3.4 5.7 6.2 2.2 1.9-2.4 4.1-5 6.4-6.6-.9 1.5-2.3 3.3-2.9 5.4-.7 2.5.6 5.2 3.5 4.5 3.8-1 7.4-5.8 9.9-7.4 0-.9-.1-2.1-.6-2.7-1.1.8-2 1.7-3.2 2.5-3.7 2.7-3.4 1.9-3.5 1.9h-.2c-1.3-.2.7-3 .9-3.2 2.5-3.3 6.2-4.7 2.8-8.9-2.4-.1-7.8 4.5-9.8 6.1-.6.5-1.1 1-1.7 1.5-.9.8-2.2 2.8-3.4 3.2.4-1.3 2.4-3 3.3-4 1-1.2 3.4-3.2 1.9-4.5-.8-.7-2.8-.5-3.8-.1-1.3.6-3.4 3.4-4.1 4.8-1.2 2.3-5.1 4.8-7.5 5.9-2 .9-6.2 1.2-5.3-2.1.4-.7 6.2-1.7 9.5-5.3 3.7-4 .8-7.5-5.5-5.3-6.7 2.3-7.1 7-9.4 8.8-.8.6-1.3.9-2.1 1.5-1.1.8-3.1 2.7-4.8 2.5-1.7-3.4 1.9-7.8 3.3-9.9 1.9-2.9 3.9-5.7 5.6-8.6 3-5.1-1-7-4-2.8-1.4 1.6-4.6 6.6-5.3 9z"/><path class="st0" d="M174 383.7c.9 3.6 8.4-1.2 10.4-2.8l3.1-3.2c.4-.5.9-1.2 1.3-1.6 0 6-6.4 16.6-9.1 19.8-2.3 2.7-4.5 4.8-7.8 6.9-2.8 1.8-4.4 2.3-7.4 3.4-.9.3-2.2.4-2.5 1.3 0 2.2 12.4-3 13.3-3.4 4.9-2.4 7-5.8 10.7-7.8 4.8-2.6 10.6-2.1 16.5-2.1h221c8.1 0 8.7-.3 13.4-5-.6 1.8-1.6 3.3-2.6 4.8-2 3-1.7 2-3.5 4-3.2 3.5-8.1 4.7-8.7 6.1 1.8.7 5.8-1.4 7.3-2.2 5.9-3.2 6.6-6.6 16.5-9.2 1.3-.4 3.3-.4 3.9-1.3-1.6-1.2-6.2.4-8 1.1-3.5 1.3-4.8 2.6-6.9 3.6.8-2 2.4-3.1 4.6-9.2.6-1.6 1.3-3.5 2-5 .7-1.3 2.4-3.4 2.3-4.6-1.7 0-2.6 2.5-3.9 4.7-2.1 3.5-4.5 7.4-8.2 9.3-2.5 1.3-4.6 1.2-7.6 1.2H212.8c-5.8 0-11.7.1-17.5 0-3.1-.1-5.4-.1-8 1-2.3.9-3.8 2.2-5.7 3.2.4-.8.7-.9 1.3-1.6 5.8-7.6 7.4-16.8 10-21.7 2.1-4 4.7-5.3 5-6.5-5.5.3-9.3 5.7-11.6 8.7-2.7 3.4-5.9 8-12.3 8.1z"/><path class="st0" d="M203.5 373.8c1.6.2 3.8-1.6 8.4-2.4 1.2-.2 1.9-.3 2.1-1.3-.8-.9-2.4-.6-3.9-.6 1.3-1.7 7.8-5.1 10.5-6.2-2.7 6.1-12.3 17.4-7.7 23.5 4.2 5.5 7.7.2 9.8-2.1.8-.9 1.8-2.1 2.6-3.2 3.2-4.2 13.5-16.9 11.2-21.8-2.8-.4-5.2 3.8-5.8 5.7-.5 1.6.1 1.7-.9 3.2-2.3 3.3-4.2 6.3-6.6 9.5-1.1 1.5-2.4 3.1-3.5 4.4-1.6 1.6-4 2.6-2.9-1.5 1.2-4.3 6-11.4 8.5-15.5.7-1.2 2.8-4.2 2.9-5 .4-2.2-1.5-4.4-3.5-4.3-2.5.1-19.2 7.2-21 11.2-1.1 2-1.4 4.6-.2 6.4zM315.5 403.2l-.1-1.6-1.7-.1v11.3l2 .1c0-3.4-1.1-9.8 2.7-9.9 3.8 0 1.7 7 2.5 9.9h1.7c.9-3.2-1.5-9.5 2.5-9.9 3.8-.4 2.6 6.8 2.6 9.8l2 .1c0-2.8.4-7.7-.7-9.8-1.1-2-4-2.6-6.5.1-.3.3-.1.2-.4.4-.7-2.1-3.1-2.7-5.1-1.7-.4.2-.5.3-.8.6-.2.2-.2.3-.4.4l-.3.3zM400.4 403.2l-.1-1.7h-1.7v11.3h2c0-3.1-1.2-9.7 2.6-9.9 3.9-.2 2.2 7 2.5 9.8l1.9.1c.7-3.1-1.4-9.6 2.6-9.9 3.8-.2 2.6 6.9 2.6 9.9h2c0-4 1.3-12.2-4.4-11.5-.8.1-1.4.4-1.9.8-.3.2-.3.3-.6.6 0 0-.4.3-.4.4l-.4.4c-.5-1.2-1.5-2.2-3.3-2.1-1.8-.1-2.5.9-3.4 1.8zM233 412.8c2.3 0 1.6-.4 2.9-4.2.6-1.7 1-3 1.4-4.7l1.5 4.5c.8 2.2.8 5 2.9 4.4.7-.2.8-1.4 1.2-2.5.3-.9.6-1.9 1-2.9.5-1.5 1.6-4.5 1.8-5.9h-1.9l-2.6 9.2c-1-3-1.7-6.4-2.8-9.2h-1.6c-.5 1.1-1 3-1.4 4.3l-1 3.3-.2.6c-.2.5-.2.4-.3.6-.5-.8-1.9-7.1-2.4-8.8h-1.9c.1 1.4 1.2 4.3 1.6 5.8.1 1.1.8 4.9 1.8 5.5zM215.7 412.8c1.9 0 1.5 0 1.9-.9l2.6-8.1 2.6 9h2l3.5-11.3h-2l-2.5 8.9-2.8-8.9h-1.7l-2.9 9.2-2.4-9.2h-2c.2.9 3 10.7 3.7 11.3zM279.6 403.1c4.9-1.5 5.3 7.2 1.8 8.2-4.9 1.4-5.9-7-1.8-8.2zm4-.3c-3.6-3.5-8.6-.8-8.5 4.6.1 6.1 6.6 7.4 8.7 3.5.3 2.3-.6 1.9 1.9 1.9l-.1-16.6h-2v6.6zM198.7 412.8l1.4-.1c.9-2.3 2-7.1 2.9-8.6l2.1 6.6c.6 1.9.2 2 1.7 2s1.9-3.4 2.5-5.5c.5-1.5 1.7-4.5 1.8-5.8h-1.9l-2.6 9.2-2.7-9.2h-1.7c-1.2 2.7-1.8 6.3-3 9.2l-2.3-9.2h-2l2.9 10.1c.5 1.4.6 1.2.9 1.3zM315.6 427.7c.9.5 1.6 1 2.1 2.1.6 1.2.4 2.8-.8 3.1-2.8.8-2.7-3.9-1.3-5.2zm1.9-2c-5.5-2.5-.3-7.1.5-3.1.2 1.1-.1 2.2-.5 3.1zm-2.7 1.4c-1.1 1-3 1.4-2.5 3.9.7 3.8 7.5 3.3 8.1-.5.5-2.8-1.5-3.2-2.2-4.5 6.8-5-5.1-8.5-5.8-2.8-.1 2.1 1.4 3.3 2.4 3.9zM265.3 425.2c0-1.3-.1-3.6 1-4 1.7-.6 1.7 1.8 1.7 3.1 0 1.8.4 8.2-.8 8.7-2.6 1-1.9-6-1.9-7.8zm.4-4.6c-2.6.9-3.5 4-3.2 7.5.2 2.9 1.9 6.5 5.2 5.4 4.9-1.7 3.7-14.8-2-12.9zM350.4 429.5c0-2.2-.3-6.9.7-8.3 2.7-.4 1.9 3.3 1.9 8.1 0 2 .3 3.9-2 3.6-.4-.9-.6-2.2-.6-3.4zm.5-8.9c-2.6.8-3.5 4.1-3.2 7.5.2 2.8 1.8 6.5 5.2 5.4 4.7-1.7 3.7-14.7-2-12.9zM387.1 408.4c-1.2-6.1 5.7-7.7 6.7-2.4 1.1 6.1-5.7 7.5-6.7 2.4zm2.3-7c-7.3 1.6-5.1 13.2 2.4 11.5 6.6-1.5 5.2-13.1-2.4-11.5zM334.5 406.1c.6-4.5 5.6-4.6 5.9 0h-5.9zm7.2 6.1-.2-1.2c-3.8.5-6.6 1.2-7-3.4h7.9c1.4-6.6-7.1-8.6-9.3-3.1-3.1 7.5 5.2 10.4 8.6 7.7zM290.2 406.1c.2-1.8 1.1-3.2 3-3.3 2.2-.1 2.8 1.3 2.9 3.3h-5.9zm7.3 6.1-.3-1.2c-1.7.2-3.2.8-4.9.1-1.2-.5-2.2-1.7-2-3.5h7.8c.4-7.9-7.4-7.9-9.4-2.9-1.1 2.7-.5 5.6 1.2 7.1 1.4 1.2 5.6 2.1 7.6.4zM353.7 406.1c.4-4.2 5.6-4.7 5.9 0h-5.9zm7.2 6.1-.3-1.3c-1.6.4-3.3.9-4.9.2-1.2-.5-2.3-1.9-2-3.6h7.8c.5-7.4-7-8.1-9.3-3.2-1.3 2.7-.6 5.6 1.1 7.3 1.7 1.6 5.7 2.1 7.6.6zM302.7 403.3l-.2-1.7h-1.7v11.3l1.9.1c.7-3.3-1.4-9.5 2.8-9.9 3.9-.3 2.8 6.6 2.8 9.9h2c0-2.7.5-8.1-.8-10-.7-.9-1.9-1.7-3.5-1.6-1.7 0-2.5 1-3.3 1.9zM276.1 424.2l.5 4.4H273l3.1-4.4zm-4.2 6.3 4.7.1.1 2.9 2.6-.1.1-2.8h1.1c0-2.4.2-1.9-1.1-1.9v-8.2c-1.3-.1-1-.2-1.6.5l-4.6 6.2c-1.2 1.3-1.3 1-1.3 3.3zM358.1 428.6c.4-.9 1.2-1.8 1.9-2.6.5-.7 1.5-1.8 1.8-2.3v5l-3.7-.1zm-1 1.9h4.7l.1 2.9 2.6-.1c0-.5-.1-1.7 0-2 .1-1.2-.1-.9 1.2-.9 0-1.8.5-1.9-1.1-1.9v-8.1c-1.6-.3-1.7.6-2.5 1.6l-3.7 4.9c-1.4 1.7-1.3 1.3-1.3 3.6zM303.5 428.6c.4-.9 1.9-2.8 2.7-3.9.4-.6.5-.6 1-1v4.9h-3.7zm-1 1.8 4.7.2.1 2.8 2.6.1.1-2.9c1 0 .6.1 1.1-.3 0-2.1 0-1.6-1.1-1.6v-8.2c-1.6 0-1.2.1-2.5 1.8l-3.7 4.9c-1.2 1.2-1.3 1.2-1.3 3.2zM252.9 424c.6-.3.1 0 .7-.5s1.4-1.4 2.8-.7c2.8 1.4-.2 5.8-1.4 7.4-.5.7-2.1 2.5-2.4 3.2h7.5l.7-3.7c-1.8.8 1 1.3-5.3 1.1.9-1.6 5.6-4.7 4.4-8.2-.7-2.7-5.7-3.6-7 1.4zM328.5 423.6s2.8-2.7 4.2-.6c.5.7.4 1.8-.1 2.6-.6.9-1.1.7-1.9 1.3 1.3.9 2.2.9 3 2.1.9 1.5.7 2.8-.5 3.6-2.5.5-2.7-1.9-4.9-1.3-1 3.4 4.8 2.5 6.5 1 2.2-2 2.2-5.3-.7-6.6.4-.5 1.5-1.1 1.5-2.7-.1-3.2-5.7-3.9-7.1.6zM254.8 412.8c2.1 0 1.7.1 3.8-5.5.6-1.5 2-4.5 2.2-5.9h-2l-3.1 9-3.2-9.1h-2.1c.1 1 2.9 7.9 3.6 9.9.3 1.1.2 1.2.8 1.6zM345.4 401.5h-1.7v1.6h1.7c0 2.1-.2 5.5.1 7.3.3 2.3 2.4 3.4 4.7 2.3v-1.4c-2.5.3-2.7-.2-2.8-2.6v-5.6h2.9v-1.6h-2.9v-2.6c-2.4.3-2 .4-2 2.6z"/><path class="st0" d="m383.5 412.5-.3-1.5c-1.7.3-3.2.9-4.7-.2-2.6-1.8-2.2-6.1.3-7.4 1.9-1 2.8-.1 4.4-.1l.3-1.5c-11.6-3.6-12 14.6 0 10.7zM293 424.5c.8-.3.7-1 2.4-1.3 1.1-.2 2.6-.1 3.8-.1l-3.4 10.5c2.2 0 1.4 0 3.4-5.9.7-2.1 1.9-5 2.3-7.1H294l-1 3.9zM338 424.6c2.3-1.5.6-1.4 6.1-1.4l-3.3 10.4 1.5.1 4.2-13h-7.6l-.9 3.9zM281.4 437.1c2.7-.1 5.3-4.5 5.4-8.1.1-4.2-2.3-7.7-5.4-8.6.3 1-.1.1.5.7.4.4.3.1.8.7 2 2.5 1.9 9.4 1 12-.8 2.3-1.4 2-2.3 3.3zM252 437.2c-.5-1.4-1.4-.8-2.2-3.3-.9-2.6-.9-7.4-.1-10.1.7-2.4 1.8-2.2 2.3-3.4-2.9.9-5.4 4.4-5.4 8.4s2.4 7.5 5.4 8.4zM270.3 403.6l-.2-2h-1.7v11.3l1.9.1c.9-4.2-1.9-9.4 3.7-9.7 0-1.5.3-2.5-1.7-1.6-1.2.3-1.4.9-2 1.9zM366.1 403.5l-.1-2h-1.7v11.3h2c.5-3.9-1.2-8.6 2.3-9.5.1 0 .5-.1.6-.1l.8-.3-.1-1.6c-2.6-.1-2.8 1-3.8 2.2zM243.9 365.7c-4.4 1.8-3 6.6.3 5.3 4-1.7 3.8-7-.3-5.3zM262.9 412.8l1.9.1.1-11.4h-2v11.3zM321.7 429l.1.9h5.3l.1-.9v-1h-5.5v1z"/><path style="fill-rule:evenodd;clip-rule:evenodd;fill:#fff" d="M273 428.6h3.7l-.6-4.4-3.1 4.4z"/><path class="st0" d="M247.2 410.3c-1.9.9-.8 3.4 1 2.6 1.5-.6.6-3.4-1-2.6zM371.1 410.3c-1.9.9-.8 3.4 1 2.6 1.4-.6.6-3.4-1-2.6zM264.7 399.3c1-1.9-.4-3.1-1.7-2.1-1 .7-.5 2.7 1.7 2.1z"/></svg>