<svg version="1.1" id="Layer_1" xmlns="http://www.w3.org/2000/svg" xmlns:xlink="http://www.w3.org/1999/xlink" x="0" y="0" width="360" height="360" style="enable-background:new 0 0 360 360" xml:space="preserve"><style>.st1{opacity:.1}.st6{fill:#fff}.st7{fill:#6d6e71}</style><linearGradient id="SVGID_1_" gradientUnits="userSpaceOnUse" x1="0" y1="360" x2=".707" y2="359.293"><stop offset="0" style="stop-color:#30b356"/><stop offset=".983" style="stop-color:#17381c"/></linearGradient><image style="overflow:visible;opacity:.5" width="896" height="896" xlink:href="7C01477F.png" transform="matrix(.24 0 0 .24 65.527 32.249)"/><linearGradient id="SVGID_2_" gradientUnits="userSpaceOnUse" x1="237.318" y1="75.462" x2="108.74" y2="204.04"><stop offset="0" style="stop-color:#fff"/><stop offset=".138" style="stop-color:#f7f8f8"/><stop offset=".318" style="stop-color:#e9eaeb"/><stop offset=".522" style="stop-color:#d3d4d6"/><stop offset=".743" style="stop-color:#b3b5b8"/><stop offset=".977" style="stop-color:#8e9092"/><stop offset="1" style="stop-color:#8a8c8e"/></linearGradient><path d="M263.9 139.7c0 50.2-40.7 90.9-90.9 90.9s-90.9-40.7-90.9-90.9 40.7-90.9 90.9-90.9 90.9 40.7 90.9 90.9z" style="fill:url(#SVGID_2_)"/><path d="M82.1 139.7c0 50.2 40.7 90.9 90.9 90.9 26.9 0 51-11.7 67.7-30.2-16.1 14.4-37.4 23.2-60.7 23.2-50.2 0-90.9-40.7-90.9-90.9 0-23.3 8.8-44.6 23.2-60.7-18.5 16.7-30.2 40.9-30.2 67.7z" style="fill:#414042" class="st1"/><path d="M246.9 139.7c0 40.8-33.1 73.9-73.9 73.9-40.8 0-73.9-33.1-73.9-73.9 0-40.8 33.1-73.9 73.9-73.9 40.8.1 73.9 33.2 73.9 73.9z" style="fill:#0064a4"/><radialGradient id="SVGID_3_" cx="162.542" cy="-454.615" r="30.853" gradientTransform="translate(-216.145 1228.234) scale(2.3943)" gradientUnits="userSpaceOnUse"><stop offset="0" style="stop-color:#fff"/><stop offset=".45" style="stop-color:#fcfcfc"/><stop offset=".627" style="stop-color:#f4f5f5"/><stop offset=".755" style="stop-color:#eaebec"/><stop offset=".861" style="stop-color:#dcddde"/><stop offset=".95" style="stop-color:#c9cbcd"/><stop offset="1" style="stop-color:#bcbec0"/></radialGradient><path d="M246.9 139.7c0 40.8-33.1 73.9-73.9 73.9-40.8 0-73.9-33.1-73.9-73.9 0-40.8 33.1-73.9 73.9-73.9 40.8.1 73.9 33.2 73.9 73.9z" style="opacity:.6;fill:url(#SVGID_3_)"/><g class="st1"><path d="M246.9 139.7c0-40.8-33.1-73.9-73.9-73.9-21.8 0-41.5 9.5-55 24.6 13.1-11.7 30.4-18.9 49.3-18.9 40.8 0 73.9 33.1 73.9 73.9 0 18.9-7.1 36.2-18.9 49.3 15.1-13.5 24.6-33.1 24.6-55z" style="fill:#939598"/></g><g><image style="overflow:visible;opacity:.6" width="537" height="476" xlink:href="7C01477D.png" transform="matrix(.24 0 0 .24 109.3 93.732)"/><path class="st6" d="M207.8 136h-33.9l16.4-28.4h34zM156.8 107.6h-33.7L173 194l16.9-29.2z"/></g><g><path class="st7" d="M61.6 259.6H72l-13.6 39.2h-10L35 259.6h10.4l8.1 27.9 8.1-27.9zM75.4 259.6h29v7.6H85.1v7.1H103v7.4H85.1v9.3h21v7.7H75.4v-39.1zM113 259.6h17.7c4.1.1 9.2.1 12.8 4 1.8 2.1 3.1 5.2 3.1 8.7 0 7.9-5.4 9.8-8.1 10.8l9.1 15.7h-10.8l-7.8-14h-6.2v14H113v-39.2zm9.8 7.3v10.6h8.1c1.4-.1 5.9-.2 5.9-5.4 0-5-3.6-5.2-5.7-5.2h-8.3zM163.9 259.6v39.2h-9.8v-39.2h9.8zM177.5 287c1 1.1 1.8 2 3.8 3.1 2.6 1.4 5.3 1.9 7.6 1.9 3.9 0 7.2-1.8 7.2-4.6 0-3.1-3.9-3.6-6.8-4-2.2-.3-4.3-.6-6.4-1-2.4-.5-10.6-2.2-10.6-10.7 0-10.1 9-13.1 15.8-13.1 9.1 0 13.9 4.4 17.3 7.4l-7.2 5.2c-1.2-1.2-2.3-2.3-3.9-3.2-1.4-.8-3.9-1.7-6.4-1.7-3.9 0-5.8 2.2-5.8 4.1 0 3 3.3 3.4 5 3.7 4.2.5 9.8 1.6 12 2.3 4.5 1.7 6.8 5.2 6.8 9.6 0 2.8-1.1 5.9-3.1 8.3-3.6 4.1-9.2 5.3-14.7 5.3-11.1 0-15.5-5.1-17.9-7.9l7.3-4.7zM223.1 259.6v39.2h-9.8v-39.2h9.8zM259 295.2c-1.6 1.5-4.9 4.6-11.6 4.6-10.9 0-17.7-8.9-17.7-20.5 0-12.6 8.2-21 19.3-21 10.4 0 15.4 6.7 17.3 9.1l-7.4 4.5c-1.4-2.1-3.7-5.6-9.1-5.6-7.4 0-10.3 6.2-10.3 12.7 0 4.4 1.2 8.1 3.1 10 1.5 1.6 4.2 2.8 7.2 2.8 1.8 0 3.8-.4 5.4-1.5 2.6-1.7 2.9-3.8 3.2-5.8h-8.8V277h17.1v21.8H259v-3.6z"/></g><g><path class="st7" d="M274.8 259.6h9.6l8.5 14.4c3.1 5.5 4.1 7.3 5.9 10.7l-.4-25.2h9.4v39.2h-9.6l-7.3-12.4c-3.6-5.8-4.2-7.1-6.9-12.3l.3 24.7h-9.4v-39.1zM318.5 268.2c-2.3 0-4.1-1.8-4.1-4.1s1.8-4.1 4.1-4.1 4.1 1.8 4.1 4c.1 2.4-1.7 4.2-4.1 4.2zm0-7.8c-2 0-3.7 1.7-3.7 3.7 0 2.1 1.6 3.7 3.7 3.7 2 0 3.7-1.6 3.7-3.6 0-2.2-1.6-3.8-3.7-3.8zm.8 6.2-.7-2h-.7v2h-1.1v-5.2h1.7c.4 0 .9 0 1.3.2.4.3.7.8.7 1.4 0 .7-.3 1.1-.9 1.4l.9 2.1h-1.2zm-.7-4.2h-.7v1.3h.7c.6 0 .8-.2.8-.7 0-.4-.3-.6-.8-.6z"/></g></svg>