<svg version="1.1" id="Layer_1" xmlns="http://www.w3.org/2000/svg" xmlns:xlink="http://www.w3.org/1999/xlink" x="0" y="0" width="732" height="152.7" style="enable-background:new 0 0 732 152.7" xml:space="preserve"><style>.st3{fill:#231f20}</style><defs><path id="SVGID_1_" d="M0 0h732v152.6H0z"/></defs><clipPath id="SVGID_2_"><use xlink:href="#SVGID_1_" style="overflow:visible"/></clipPath><path style="clip-path:url(#SVGID_2_);fill:#fff" d="M0 0h732v152.6H0z"/><path style="fill:#ed1c24" d="M31 31.4h89v89.2H31z"/><path d="M109 42.5H42v5h59.3L90.3 58c-4.1-3.4-9.3-5.5-15.1-5.5-13 0-23.5 10.5-23.5 23.5 0 5.4 1.8 10.4 4.9 14.3L42 104.5v5h67v-5H49.1L60.2 94c4.1 3.4 9.4 5.5 15.1 5.5 12.3 0 22.4-9.5 23.4-21.5H85.2l-5.3 5h12.5c-2.8 6.7-9.4 11.5-17.1 11.5-4.3 0-8.3-1.5-11.5-4l26.5-25.2c1.1 1.5 1.9 3.2 2.5 4.9H98c-.8-3.1-2.2-6-4.1-8.4l15-14.3v-5M56.9 76c0-10.2 8.3-18.5 18.5-18.5 4.3 0 8.3 1.5 11.4 4L60.4 86.9c-2.2-3.1-3.5-6.8-3.5-10.9z" style="fill:#fff"/><path class="st3" d="M192.4 99.1h-36.1v-5.8l24-31.4h-23.4v-7.8h35V61l-22.6 30.3h23.1v7.8M233 99.1h-34.4v-45h34.2v8.2h-25v10.2h23.1v8.1h-23.1v10.3H233v8.2M272 99.1h-32.5v-45h9.2v36.8H272v8.2M311.4 99.1h-32.5v-45h9.2v36.8h23.3v8.2M352.4 99.1h-34.3v-45h34.2v8.2h-25v10.2h23v8.1h-23v10.3h25.1v8.2M388 99.1l-14.9-16.6h-4.8v16.6h-9.2v-45h21.7c9.7 0 16.2 5.7 16.2 14.3 0 7.5-5.1 12.9-13 14.1l15.2 16.8H388m-7.2-25c4.3 0 7.1-2.4 7.1-6s-2.8-6-7.1-6h-12.5v12h12.5zM429.1 80.5v11.9h-7.8V80.5h-11.6v-7.8h11.6V60.9h7.8v11.8h11.6v7.8h-11.6M499.9 72.4c.1 1.5.2 2.8.2 3.9 0 13.4-9.6 23.4-22.9 23.4-13.5 0-24-10.3-24-23.6 0-13.2 10.5-23.6 23.7-23.6 9.5 0 18.5 4.4 21.7 13.6l-8.2 2.9c-3.3-6.3-8.6-7.9-13.5-7.9-8.1 0-14.4 6.5-14.4 14.9 0 8.5 6.5 15 15 15 6.9 0 12-4 13.6-10.4h-15.9v-8.3h24.7M556.9 99.1H548V73.2l-14.2 25.9h-4.1l-14.2-25.9v25.9h-8.9v-45h8l17.1 31.1 17.2-31.1h8v45M597.9 99.1h-34.3v-45h34.2v8.2h-25.1v10.2h23.1v8.1h-23.1v10.3h25.2v8.2M637.1 99.1h-32.5v-45h9.2v36.8h23.3v8.2M643.8 54.1h9.2v45.1h-9.2zM701.6 99.1h-7.7l-25.1-28.9v28.9h-9.1v-45h7.6l25.1 29.7V54.1h9.2v45"/></svg>