<svg xmlns="http://www.w3.org/2000/svg" width="432" height="432" style="enable-background:new 0 0 432 432" xml:space="preserve"><path d="M121.7 196.1c-7.3-6.6-7.9-9.1.4-18.3 6.2-6.9 4.4-13.2 3.3-17.4 4.5 3.2 7.3 6.3 7.6 10.4.1 1.4.2 3.1-.3 4.8-.7 2.6-2.3 5.1-3.7 6.6-4 4.1-6.7 7.7-7.2 10.2-.1.6-.2 1.3-.2 1.9 0 .8.1 1.8.1 1.8z"/><path d="M115 187.7c-4.7-5.6-5.9-9.1-1.9-13.2 2.6-2.7 2-6.5-.2-9 8.1 3.6 10.1 9.5 6.3 13.7-1.9 2.1-3.1 3.8-3.7 5.5-.2.7-.3 1.2-.4 1.8-.2.8-.1 1.2-.1 1.2zM126.4 203.3c-4.5-6.4-5.6-11.6 3.7-19.7 2.4-2.1 4.3-3.9 5.5-6 2.3-4 2.4-8 1.9-10.8 4.1 3.7 4.6 7.2 4.5 11.4 0 1.4-.5 3-1.1 4.6-1 2.5-3 4.7-4.5 6.1-1.9 1.8-4.8 4-6.2 6-3.2 4.4-3.8 8.4-3.8 8.4zM119.2 208.4c-7.9-11.8-28.2-12-28.2-12L85 186c26.7 1.7 32 11.4 34.2 22.4zM133.1 208.4c7.9-11.8 28.2-12 28.2-12l6-10.4c-26.8 1.7-32 11.4-34.2 22.4z"/><path d="M125 271.8c-3.1-67.9-5.7-68.9-33.5-73.7 20.1 6.7 21.8 28.3 25 73.7h8.5zM127.2 271.8h8.6c3.1-45.4 4.8-67 25-73.7-27.9 4.8-30.5 5.8-33.6 73.7z"/><g><path d="M186.3 189v18.6H183V189h-5.9v-2.9h15.2v2.9h-6zM207.9 207.6l-4.5-9.1h-4.1v9.1H196V186h8.4c4.1 0 6.7 2.6 6.7 6.3 0 3.1-1.9 5.1-4.3 5.7l5 9.5h-3.9zm-3.8-18.6h-4.8v6.8h4.8c2.2 0 3.7-1.2 3.7-3.4 0-2.1-1.5-3.4-3.7-3.4zM215.9 207.6V186h3.3v21.6h-3.3zM238 207.6l-10-15.2v15.2h-3.3V186h3l10 15.2V186h3.3v21.6h-3zM246.6 207.6V186h3.3v21.6h-3.3zM262.9 189v18.6h-3.3V189h-5.9v-2.9h15.2v2.9h-6zM279.6 198.8v8.9h-3.3v-8.9l-6.5-12.7h3.6l4.5 9.5 4.5-9.5h3.6l-6.4 12.7zM198.8 239.6H196l-4.4-15.1-4.4 15.1h-2.8l-5.6-21.6h3.5l3.8 15.4 4.3-15.4h2.6l4.3 15.4L201 218h3.5l-5.7 21.6zM207.6 239.6V218h13.8v2.9h-10.5v6.3h9v2.9h-9v6.5h10.5v2.9h-13.8zM231.6 239.8c-3.2 0-5.6-.8-7.6-2.8l2.2-2.2c1.6 1.6 3.3 2.1 5.5 2.1 2.8 0 4.5-1.2 4.5-3.3 0-.9-.3-1.7-.8-2.2-.5-.5-1.1-.7-2.4-.9l-2.5-.4c-1.8-.2-3.2-.8-4.1-1.7-1.1-1-1.6-2.4-1.6-4.1 0-3.8 2.7-6.3 7.2-6.3 2.8 0 4.8.7 6.7 2.5l-2.1 2.1c-1.3-1.3-2.9-1.7-4.7-1.7-2.5 0-3.9 1.5-3.9 3.4 0 .8.2 1.5.8 2 .5.5 1.4.8 2.4 1l2.5.4c2 .3 3.1.8 4 1.6 1.2 1 1.8 2.6 1.8 4.4-.2 3.7-3.4 6.1-7.9 6.1zM251 221v18.6h-3.3V221h-5.9v-3H257v2.9h-6zM260.7 239.6V218h13.8v2.9H264v6.3h9v2.9h-9v6.5h10.5v2.9h-13.8zM290.9 239.6l-4.5-9.1h-4.1v9.1H279V218h8.4c4.1 0 6.7 2.6 6.7 6.3 0 3.1-1.9 5.1-4.3 5.7l5 9.5h-3.9zm-3.8-18.6h-4.8v6.8h4.8c2.2 0 3.7-1.2 3.7-3.4 0-2.1-1.5-3.4-3.7-3.4zM312.1 239.6l-10-15.2v15.2h-3.3V218h3l10 15.2V218h3.3v21.6h-3zM190.7 271.8c-4.4 0-7.7-3-7.7-7.5V250h3.3v14.1c0 2.9 1.8 4.7 4.5 4.7s4.5-1.8 4.5-4.7V250h3.3v14.3c-.1 4.5-3.5 7.5-7.9 7.5zM217 271.6l-10-15.2v15.2h-3.3V250h3l10 15.2V250h3.3v21.6h-3zM225.7 271.6V250h3.3v21.6h-3.3zM241.5 271.6H239l-7.1-21.6h3.4l5 15.7 5-15.7h3.5l-7.3 21.6zM251.7 271.6V250h13.8v2.9H255v6.3h9v2.9h-9v6.5h10.5v2.9h-13.8zM281.9 271.6l-4.5-9.1h-4.1v9.1H270V250h8.4c4.1 0 6.7 2.6 6.7 6.3 0 3.1-1.9 5.1-4.3 5.7l5 9.5h-3.9zm-3.8-18.6h-4.8v6.8h4.8c2.2 0 3.7-1.2 3.7-3.4-.1-2.2-1.6-3.4-3.7-3.4zM295.5 271.8c-3.2 0-5.6-.8-7.6-2.8l2.2-2.2c1.6 1.6 3.3 2.1 5.5 2.1 2.8 0 4.5-1.2 4.5-3.3 0-.9-.3-1.7-.8-2.2-.5-.5-1.1-.7-2.4-.9l-2.5-.4c-1.8-.2-3.1-.8-4.1-1.7-1.1-1-1.6-2.4-1.6-4.1 0-3.8 2.7-6.3 7.2-6.3 2.9 0 4.8.7 6.7 2.5l-2.1 2.1c-1.3-1.3-2.9-1.7-4.7-1.7-2.5 0-3.9 1.5-3.9 3.4 0 .8.2 1.5.8 2 .5.5 1.4.9 2.4 1l2.5.4c2 .3 3.1.8 4 1.6 1.2 1 1.8 2.6 1.8 4.4-.1 3.7-3.4 6.1-7.9 6.1zM307.7 271.6V250h3.3v21.6h-3.3zM323.9 253v18.6h-3.3V253h-5.9v-3h15.1v2.9h-5.9zM340.6 262.7v8.9h-3.3v-8.9l-6.5-12.7h3.6l4.5 9.5 4.5-9.5h3.6l-6.4 12.7z"/></g></svg>