<svg version="1.1" id="Layer_1" xmlns="http://www.w3.org/2000/svg" x="0" y="0" width="144" height="54" style="enable-background:new 0 0 144 54" xml:space="preserve"><style>.st0{fill-rule:evenodd;clip-rule:evenodd}.st1{fill:none;stroke:#000;stroke-width:3.000000e-04;stroke-miterlimit:2.6131}</style><path class="st0" d="m48 29.8-3.1.3v.8l1.9.2v7.6c0 2.7 1.3 4.2 3.5 4.2 1.3 0 3-1 4.3-2.3v2h3.9v-1l-1.2-.1-.5-.4V29.8h-1l-3.1.3v.8l1.9.2v7.5c0 1.2-2.5 2.8-3.5 2.8-1.8 0-2.1-1.2-2.1-3.1v-8.5h-1zm22.4-5.5c-2.2 0-4.2.8-5.8 2.3-1.7 1.7-2.7 4.1-2.7 7 0 2.9.9 5.3 2.7 7.1 1.5 1.5 3.5 2.3 5.7 2.3s4.2-.8 5.7-2.3c1.8-1.8 2.7-4.2 2.7-7.1 0-2.9-.9-5.3-2.7-7-1.5-1.5-3.4-2.3-5.6-2.3zm0 1.1c3.3 0 5.6 3.1 5.6 8.3 0 5.2-2.3 8.3-5.6 8.3s-5.6-3.1-5.6-8.3c0-5.3 2.3-8.3 5.6-8.3zm11.7 5.8V40c0 1.9.7 2.7 2.4 2.8 1.1 0 2.2-.2 3.2-.8l-.2-1c-2.7 1.5-3.1.2-3.1-2.7v-7.2h2.9v-1.3h-2.9v-3.3l-1.3.5c-.3 2-1 3.1-2.7 3.3v.8h1.7v.1zm22.4 9.6.2 1.2c.2 1.3 2.9.7 4 .2v-.8c-.9 0-1.9.1-1.9-.5v-7.3c0-2.8-1.4-3.8-4.3-3.8-3.4 0-4.7 1.4-5.1 2.6-.2.6.4 1.4 1.1 1.4.6 0 1-.1 1.4-.6.4-.6.2-1.4.6-2 .5-.7 1.1-.7 1.7-.7 2 0 2.2.9 2.2 3.1v.9c-1.1.8-2.9.8-4.1 1.1-2.7.7-3.9 1.9-3.9 3.9s1.3 3.5 3.5 3.5c1.4-.2 3.3-.8 4.6-2.2zm0-2.2c0 1.8-2.3 2.9-3.4 2.9-1.4 0-2.2-1.1-2.2-2.5 0-1.2.7-1.9 2.2-2.6.9-.4 2.4-.5 3.4-1.1v3.3zm3.4-8.5v1l.9.1c.3 0 .6.3.7.6l3.2 10.9h1.5l3.2-9.9 2.7 9.9h1.5l3.7-11c.1-.2.2-.4.3-.4l1.2-.3v-.8h-5v.8l1.8.3c.1 0 .2.3.2.4l-2.6 8.5-2.6-9.5h-1.5l-3.2 9.5-2.3-8.5c0-.2.1-.4.3-.4l1.3-.1v-1h-5.3v-.1zM90 31.2V40c0 1.9.7 2.7 2.4 2.8 1.1 0 2.2-.2 3.2-.8l-.2-1c-2.7 1.5-3.1.2-3.1-2.7v-7.2h2.9v-1.3h-2.9v-3.3L91 27c-.3 2-1 3.1-2.7 3.3v.8H90v.1zm44.6 9.6.2 1.2c.2 1.3 2.9.7 4 .2v-.8c-.9 0-1.9.1-1.9-.5v-7.3c0-2.8-1.4-3.8-4.3-3.8-3.4 0-4.7 1.4-5.1 2.6-.2.6.4 1.4 1.1 1.4.6 0 1-.1 1.4-.6.4-.6.2-1.4.6-2 .5-.7 1.1-.7 1.7-.7 2 0 2.2.9 2.2 3.1v.9c-1.1.8-2.9.8-4.1 1.1-2.7.7-3.9 1.9-3.9 3.9s1.3 3.5 3.5 3.5c1.5-.2 3.4-.8 4.6-2.2zm0-2.2c0 1.8-2.3 2.9-3.4 2.9-1.4 0-2.2-1.1-2.2-2.5 0-1.2.7-1.9 2.2-2.6.9-.4 2.4-.5 3.4-1.1v3.3z"/><path class="st1" d="m48 29.8-3.1.3v.8l1.9.2v7.6c0 2.7 1.3 4.2 3.5 4.2 1.3 0 3-1 4.3-2.3v2h3.9v-1l-1.2-.1-.5-.4V29.8h-1l-3.1.3v.8l1.9.2v7.5c0 1.2-2.5 2.8-3.5 2.8-1.8 0-2.1-1.2-2.1-3.1v-8.5h-1zm22.4-5.5c-2.2 0-4.2.8-5.8 2.3-1.7 1.7-2.7 4.1-2.7 7 0 2.9.9 5.3 2.7 7.1 1.5 1.5 3.5 2.3 5.7 2.3s4.2-.8 5.7-2.3c1.8-1.8 2.7-4.2 2.7-7.1 0-2.9-.9-5.3-2.7-7-1.5-1.5-3.4-2.3-5.6-2.3zm0 1.1c3.3 0 5.6 3.1 5.6 8.3 0 5.2-2.3 8.3-5.6 8.3s-5.6-3.1-5.6-8.3c0-5.3 2.3-8.3 5.6-8.3zm11.7 5.8V40c0 1.9.7 2.7 2.4 2.8 1.1 0 2.2-.2 3.2-.8l-.2-1c-2.7 1.5-3.1.2-3.1-2.7v-7.2h2.9v-1.3h-2.9v-3.3l-1.3.5c-.3 2-1 3.1-2.7 3.3v.8h1.7v.1zm22.4 9.6.2 1.2c.2 1.3 2.9.7 4 .2v-.8c-.9 0-1.9.1-1.9-.5v-7.3c0-2.8-1.4-3.8-4.3-3.8-3.4 0-4.7 1.4-5.1 2.6-.2.6.4 1.4 1.1 1.4.6 0 1-.1 1.4-.6.4-.6.2-1.4.6-2 .5-.7 1.1-.7 1.7-.7 2 0 2.2.9 2.2 3.1v.9c-1.1.8-2.9.8-4.1 1.1-2.7.7-3.9 1.9-3.9 3.9s1.3 3.5 3.5 3.5c1.4-.2 3.3-.8 4.6-2.2zm0-2.2c0 1.8-2.3 2.9-3.4 2.9-1.4 0-2.2-1.1-2.2-2.5 0-1.2.7-1.9 2.2-2.6.9-.4 2.4-.5 3.4-1.1v3.3zm3.4-8.5v1l.9.1c.3 0 .6.3.7.6l3.2 10.9h1.5l3.2-9.9 2.7 9.9h1.5l3.7-11c.1-.2.2-.4.3-.4l1.2-.3v-.8h-5v.8l1.8.3c.1 0 .2.3.2.4l-2.6 8.5-2.6-9.5h-1.5l-3.2 9.5-2.3-8.5c0-.2.1-.4.3-.4l1.3-.1v-1h-5.3v-.1zM90 31.2V40c0 1.9.7 2.7 2.4 2.8 1.1 0 2.2-.2 3.2-.8l-.2-1c-2.7 1.5-3.1.2-3.1-2.7v-7.2h2.9v-1.3h-2.9v-3.3L91 27c-.3 2-1 3.1-2.7 3.3v.8H90v.1zm44.6 9.6.2 1.2c.2 1.3 2.9.7 4 .2v-.8c-.9 0-1.9.1-1.9-.5v-7.3c0-2.8-1.4-3.8-4.3-3.8-3.4 0-4.7 1.4-5.1 2.6-.2.6.4 1.4 1.1 1.4.6 0 1-.1 1.4-.6.4-.6.2-1.4.6-2 .5-.7 1.1-.7 1.7-.7 2 0 2.2.9 2.2 3.1v.9c-1.1.8-2.9.8-4.1 1.1-2.7.7-3.9 1.9-3.9 3.9s1.3 3.5 3.5 3.5c1.5-.2 3.4-.8 4.6-2.2zm0-2.2c0 1.8-2.3 2.9-3.4 2.9-1.4 0-2.2-1.1-2.2-2.5 0-1.2.7-1.9 2.2-2.6.9-.4 2.4-.5 3.4-1.1v3.3z"/><path class="st0" d="M8.3 39.7H33v1.1H8.3v-1.1z"/><path class="st1" d="M8.3 39.7H33v1.1H8.3v-1.1z"/><path class="st0" d="M7.7 41.2h25.9v1H7.7v-1z"/><path class="st1" d="M7.7 41.2h25.9v1H7.7v-1z"/><path class="st0" d="m8 24.2 12.7-4.6 12.7 4.6-.6 1.7-12.1-4.4-12.1 4.4-.6-1.7z"/><path class="st1" d="m8 24.2 12.7-4.6 12.7 4.6-.6 1.7-12.1-4.4-12.1 4.4-.6-1.7z"/><path class="st0" d="M8.8 14.2h3.7c1.8-2.6 4.8-4.2 8.2-4.2 3.4 0 6.4 1.7 8.2 4.2h3.7v2.1h3.8V46H5V16.3h3.8v-2.1zm-2 3.8h3.8v-1.7h2.7c1.4-2.7 4.1-4.5 7.3-4.5s5.9 1.8 7.3 4.5h2.7V18h3.8v26H6.8V18z"/><path class="st1" d="M8.8 14.2h3.7c1.8-2.6 4.8-4.2 8.2-4.2 3.4 0 6.4 1.7 8.2 4.2h3.7v2.1h3.8V46H5V16.3h3.8v-2.1zm-2 3.8h3.8v-1.7h2.7c1.4-2.7 4.1-4.5 7.3-4.5s5.9 1.8 7.3 4.5h2.7V18h3.8v26H6.8V18z"/><path class="st0" d="M9.2 37.2h.8v-5.9c0-1 .1-2.1.1-3.1h-.3v-.3h-.2v-.2h-.2v-.4h-.2v-1.2h22.9v1.2h-.2v.4h-.2v.2h-.2v.3h-.4c.1 1 .1 2.1.1 3.1v5.9h.9v1.7H9.2v-1.7zm3 0h2.6v-5.9c0-1 .1-2.1.1-3.1h-.4v-.3h-.2v-.2h-.2v-.4h-1.3v.4h-.2v.2h-.2v.3H12c.1 1 .1 2.1.1 3.1v5.9h.1zm4.8 0h2.6v-5.9c0-1 .1-2.1.1-3.1h-.4v-.3h-.2v-.2h-.2v-.4h-1.3v.4h-.2v.2h-.2v.3h-.4c.1 1 .1 2.1.1 3.1v5.9h.1zm4.8 0h2.5v-5.9c0-1 .1-2.1.1-3.1H24v-.3h-.2v-.2h-.2v-.4h-1.1v.4h-.2v.2H22v.3h-.4c.1 1 .1 2.1.1 3.1v5.9h.1zm4.7 0h2.6v-5.9c0-1 .1-2.1.1-3.1h-.4v-.3h-.2v-.2h-.2v-.4h-1.3v.4h-.2v.2h-.2v.3h-.4c.1 1 .1 2.1.1 3.1v5.9h.1z"/><path class="st1" d="M9.2 37.2h.8v-5.9c0-1 .1-2.1.1-3.1h-.3v-.3h-.2v-.2h-.2v-.4h-.2v-1.2h22.9v1.2h-.2v.4h-.2v.2h-.2v.3h-.4c.1 1 .1 2.1.1 3.1v5.9h.9v1.7H9.2v-1.7zm3 0h2.6v-5.9c0-1 .1-2.1.1-3.1h-.4v-.3h-.2v-.2h-.2v-.4h-1.3v.4h-.2v.2h-.2v.3H12c.1 1 .1 2.1.1 3.1v5.9h.1zm4.8 0h2.6v-5.9c0-1 .1-2.1.1-3.1h-.4v-.3h-.2v-.2h-.2v-.4h-1.3v.4h-.2v.2h-.2v.3h-.4c.1 1 .1 2.1.1 3.1v5.9h.1zm4.8 0h2.5v-5.9c0-1 .1-2.1.1-3.1H24v-.3h-.2v-.2h-.2v-.4h-1.1v.4h-.2v.2H22v.3h-.4c.1 1 .1 2.1.1 3.1v5.9h.1zm4.7 0h2.6v-5.9c0-1 .1-2.1.1-3.1h-.4v-.3h-.2v-.2h-.2v-.4h-1.3v.4h-.2v.2h-.2v.3h-.4c.1 1 .1 2.1.1 3.1v5.9h.1z"/></svg>