<svg xmlns="http://www.w3.org/2000/svg" width="216" height="71.7" style="enable-background:new 0 0 216 71.7" xml:space="preserve"><path d="M83.2 37.8h132.1v.4H83.2zM87 30.2c0 .7-.1 1.6-.7 1.9h-.1v.2H90V32c-.9-.5-.9-1.2-.9-2.1v-8.3h1.5c.6 0 1.2.1 1.5.7v.1h.2L93 20h-.2c-.2.1-.4.1-.8.1h-7.2c-.2 0-.5-.1-.7-.1h-.2l-.7 2.4h.2c.5-.5 1.3-.7 2.1-.7H87v8.5zM95.5 26c0-2.8 1.9-4.7 4.5-4.7 2.9 0 4.5 2.6 4.5 5.1 0 2.7-1.8 4.6-4.4 4.6-2.9.1-4.6-2.6-4.6-5m-.4-4.3c-1.2 1.2-1.9 2.8-1.9 4.4 0 3.7 2.9 6.4 6.7 6.4 3.8 0 6.8-2.9 6.8-6.5 0-1.6-.7-3.2-1.8-4.4-1.2-1.2-2.9-1.9-4.8-1.9-1.9.1-3.7.7-5 2M111.4 29.9v-7.3c0-.8 0-1.9.7-2.2h.1v-.2h-3.7v.2h.1c.8.3.8 1.4.8 2.2v7.3c0 .8 0 1.9-.8 2.2h-.1v.2h3.7v-.2h-.1c-.7-.4-.7-1.4-.7-2.2"/><path d="M119.4 32c-1-.5-1.6-1-2.1-1.7 0 0-3.2-4.2-3.6-4.7.1-.1 3.9-5 4.3-5.5h-3.6v.2h.1c.3.1.4.3.5.5.1.4-.3 1-.7 1.6l-.3.4-2.4 3.2 4.1 5.5c.4.5 1.2.8 2.1.8h1.8l-.2-.3zM120.1 20.1v.2h.1c.8.3.7 1.3.7 2.1v7.4c0 .8 0 1.9-.7 2.2h-.1v.2h3.7V32h-.1c-.8-.3-.7-1.4-.7-2.2v-7.3c0-.8 0-1.9.7-2.2h.1v-.2h-3.7zM185.6 20.1v.2h.1c.8.3.7 1.3.7 2.1v7.4c0 .8 0 1.9-.7 2.2h-.1v.2h3.7V32h-.1c-.8-.3-.7-1.4-.7-2.2v-7.3c0-.8 0-1.9.7-2.2h.1v-.2h-3.7zM127.9 26c0-2.8 1.9-4.7 4.5-4.7 2.9 0 4.5 2.6 4.5 5.1 0 2.7-1.8 4.6-4.4 4.6-2.9.1-4.6-2.6-4.6-5m-.4-4.3c-1.2 1.2-1.9 2.8-1.9 4.4 0 3.7 2.9 6.4 6.7 6.4 3.8 0 6.8-2.9 6.8-6.5 0-1.6-.6-3.2-1.8-4.4-1.2-1.2-2.9-1.9-4.8-1.9-1.9.1-3.7.7-5 2M157 21.3l1.2 8.9c.1.8.2 1.3.9 1.8v.2h-3.7V32h.1c.6-.2.7-.6.7-1.3 0 0-.9-7.6-1-8.3-.3.7-4 10.2-4 10.2l-.1-.1c-.9-.7-1.2-1.2-1.6-2.2 0 0-3-7.2-3.3-7.8-.1.7-1 7.5-1 7.5-.1.4-.1.7-.1 1 0 .5.1.9.6 1.1h.1v.2h-3.2v-.2c.7-.6.8-1.4 1-2.4v-.1l1-7.6v-.1c.1-.5.2-1.1-.5-1.4h-.1v-.2h3.4c0 .3.1.5.2.9 0 0 3.1 7.3 3.3 7.8.2-.4 2.9-7.5 2.9-7.5.1-.4.3-.7.3-1.1v-.1h3.4v.2c-.4-.1-.6.4-.5.8M165.9 22c.2.4 1.5 3.9 1.6 4.2h-3.3c.2-.2 1.6-3.7 1.7-4.2m1.3-1.9h-3v.2h.1c.2.1.4.2.4.3.1.3 0 .7-.2 1.1l-3.2 7.9c-.4.9-.7 1.8-1.6 2.3h-.1v.2h3.6v-.2h-.1c-.3-.1-.5-.2-.5-.4 0-.1-.1-.2-.1-.3 0-.3.1-.6.3-1.1 0 0 .8-2.1.9-2.5h4.4l1 2.7c.2.5.3.8.3 1 0 .2-.2.4-.6.6h-.1v.2h3.9v-.2h-.1c-.9-.5-1.3-1.3-1.6-2.3l-3.7-9.5zM176.6 21.6c.4-.1.8-.1 1.1-.1.7 0 1.3.2 1.7.6.4.3.6.8.6 1.3 0 1.8-1.9 2.3-3.1 2.5h-.2l1.8 2.7 2.2 2.8c.6.7 1.2.9 2.2.9h2l-.3-.2c-1.1-.7-2.2-1.7-2.9-2.5 0 0-2.1-2.6-2.5-3.2 1.4-.4 2.8-1.6 2.8-3.3 0-1.8-1.5-3-3.9-3h-4.4v.2h.1c.8.3.7 1.3.7 2.1v7.4c0 .8 0 1.9-.7 2.1h-.1v.2h3.7V32h-.1c-.7-.2-.8-1.1-.8-1.9l.1-8.5zM204.3 20.1v.2c-.9.5-.9 1.2-.9 2.2v10.3h-.1c-1.4-.5-1.9-1.1-2.7-2.1 0 0-5.7-7.2-6-7.7v6.8c0 1 0 1.6.9 2.1h.1v.2H192v-.2h.1c.9-.5.9-1.2.9-2.2v-7.3c0-1 0-1.7-.9-2.2h-.1V20h2.8c0 .2.3.6.5.9 0 0 6.1 7.7 6.5 8.2v-6.7c0-1 0-1.6-.9-2.1h-.1v-.2h3.5zM212.5 20.1h-5.9v.2h.1c.8.3.8 1.4.8 2.2v7.3c0 .8 0 1.9-.8 2.2h-.1v.2h7.8l.9-2.6h-.3c-.9.8-2.1 1.2-3.3 1.1 0 0-2-.2-2.2-.2v-4.1h1.3c.5 0 1.2 0 1.5.5v.1h.2v-2.1h-.2c-.2.1-.5.1-.8.1h-2.1v-3.2c.6-.1 1.2-.1 1.8-.1.8 0 1.5.1 2.1.7h.2V20h-.2c-.2.2-.5.1-.8.1M91.6 42.6c.8.3.8 1.3.8 2.2v2.4H86V44.9c0-.8 0-1.9.7-2.2h.1v-.2h-3.7v.2h.1c.8.2.8 1.3.8 2.1v7.4c0 .8 0 1.9-.7 2.1h-.1v.2h3.7v-.2h-.1c-.8-.3-.8-1.4-.8-2.2V48.7h6.3v3.5c0 .8 0 1.8-.7 2.1h-.1v.2h3.7v-.2h-.1c-.8-.3-.8-1.4-.7-2.1v-7.4c0-.8 0-1.9.7-2.1h.1v-.2h-3.7v.1zM109.5 52c-.9.5-2.3 1.1-3.8 1.1-2.6 0-4.5-2.1-4.5-4.9 0-2.6 1.7-4.4 4.1-4.4 1.1 0 2.3.4 3.3 1l.2.1v-2.4h-.1c-1.3-.3-2.4-.5-3.3-.5-3.8 0-6.5 2.6-6.5 6.4 0 3.9 2.7 6.4 7 6.4 1.1 0 2-.2 2.8-.6l1-2.3-.2.1zM123.7 52c-.9.5-2.3 1.1-3.8 1.1-2.6 0-4.5-2.1-4.5-4.9 0-2.6 1.7-4.4 4.1-4.4 1.1 0 2.3.4 3.3 1l.2.1v-2.4h-.1c-1.3-.3-2.4-.5-3.3-.5-3.8 0-6.5 2.6-6.5 6.4 0 3.9 2.7 6.4 7 6.4 1.1 0 2-.2 2.8-.6l1-2.3h-.2z"/><g><path d="M13.4 60.5C15 62.3 16.8 64 19 65c4 2 8.4 3.2 13 3.5v-.1c-3.3-1.1-8.5-7-13.7-15.5-1.4-2.3-2.9-4.9-4.2-7.5-1.3-2.6-2.5-5.2-3.6-7.6C6.2 27.5 4.8 22 5.3 18.6l-.1-.2c-2.4 4-3.9 8.5-4.4 13.4C.4 35 2.3 42.4 6.1 49.9c2.3 4.5 5.1 8 7.3 10.6"/><path d="M23.8 3.6c-3.6 1.1-6.9 2.9-9.8 5-.5.4-.6.7-.7.9-.7 1.8-.5 5 .5 9.1-2.7-2.1-4.8-3-6.3-2.5-1.1.3-1 2.1-.9 3.2.1 1.9.6 4.8 2.4 9.4 3.9 2.1 8.9 7.2 14.9 15.1 3.6 6.6 7.4 12.3 10.8 16.5C38 64 40.9 66.5 43 67c.3.1.7.1 1.1 0 3.7-1.2 7-3 10-5.3l-.1-.1c-2.1.1-5.2-2.3-8.8-6.6-3.9-4.6-8.3-11.4-12.4-19.2-4-7.9-6.9-15.4-8.4-21.2-1.2-5.5-1.4-9.2-.6-10.9v-.1zM62.6 36c1.5-1.3 2.7-2.8 3.8-4.6 4.7-8.3 1.8-18.8-6.5-23.5-3-1.7-6.4-2.4-9.6-2.2-.7 0-1.1 1.4-1.1 2.7 0 3.9 2.7 11.5 4.9 15.7 2 4.3 5.1 8.4 8.5 11.9"/><path d="M66.7 40.5c-.1.1-.2.3-.4.3-1 .5-2.6-.4-4.4-2.2-.5-.5-1-1-1.5-1.6-1-1.3-2-2.5-2.9-3.7-1.6-2.2-3.2-4.8-4.6-7.6-2.9-5.7-4.8-11.3-5.4-15-.4-2.5 0-4.5 1-5.1l.1-.1c-3-1.5-6.2-2.5-9.6-3-.2 0-.5-.1-.7-.1-.5 0-.7 0-1 .2-1.3.7-1.6 3-1.1 6.4-4.6-4.2-7.9-6.1-10.2-6-1.6.1-1.4 5.6.9 13.2 1.6.9 3.4 2.3 5.5 4.1.3-1.9 1-3.7 2-5.4.7-1.2 1.4-2.2 2.3-3.2.1.5.3 1.1.4 1.7-.1.2-.3.4-.3.4-1.4 2.3-2.4 5.2-2.6 8.2-.3 6.3 2.8 12.6 8.7 15.9 2 1.1 4.2 1.8 6.3 2.1 1.9 2.7 3.8 5.1 5.5 7 2.4 2.8 4.6 4.6 6.3 5 .9.2 1.7 0 2.3-1.1 1.7-3.2 2.9-6.7 3.4-10.4z"/></g></svg>