<svg xmlns="http://www.w3.org/2000/svg" width="360" height="288" style="enable-background:new 0 0 360 288" xml:space="preserve"><path d="m49.5 80.6 9.7-25.2c.6-1.5 1.1-3.5 1.1-3.5s.5 2 1 3.5l9.5 25.2h.6l11.7-35.8h-3.8l-7.4 23.6c-.5 1.5-1 3.9-1 3.9s-.6-2.3-1.1-3.9l-9.2-23.9H60l-9.2 23.9c-.6 1.5-1.1 3.9-1.1 3.9s-.5-2.3-1-3.9l-7.4-23.6h-4L49 80.6h.5zM89.9 44.9h3.8v35.4h-3.8zM107.1 56.4c0-1.5-.3-4-.3-4s1.5 2.1 2.4 3.3l21.1 25h.6V44.9h-3.5v23.9c0 1.5.3 4 .3 4s-1.5-2.1-2.4-3.3l-21.1-25h-.6v35.8h3.5V56.4zM168.4 62.6c0-10.7-7.3-17.7-19.2-17.7h-8.6v35.4h8.6c11.9 0 19.2-7 19.2-17.7zm-24 14.3V48.2h4.6c10.5 0 15.5 5.9 15.5 14.3s-5 14.3-15.5 14.3h-4.6zM183.7 80.3h3.9V69l13.1-24.2h-3.9l-9.6 17.6c-.7 1.4-1.5 3.6-1.5 3.6s-.7-2.2-1.5-3.6l-9.6-17.6h-4.2l13.4 24.3v11.2zM232.7 80.7c6.3 0 11.5-2.7 14.6-7.3l-2.9-2c-2.6 3.7-6.5 5.9-11.7 5.9-8.3 0-14.3-6.3-14.3-14.7s6-14.7 14.3-14.7c5.1 0 8.9 2.2 11.2 5.6l2.9-2.1c-3-4.5-7.8-6.9-14.1-6.9-10 0-18.2 7.4-18.2 18.1s8.2 18.1 18.2 18.1zM254.5 44.9h3.8v35.4h-3.8zM275.9 80.3h3.8V48.2h10.8v-3.3H265v3.3h10.9zM308.1 80.3h3.9V69l13-24.1h-3.9l-9.6 17.6c-.7 1.4-1.5 3.6-1.5 3.6s-.7-2.2-1.5-3.6l-9.6-17.6h-4.2l13.4 24.3v11.1zM47.4 89.5v112.2h64.8v-10.6H59.3V89.5zM121.6 89.5h12v112.2h-12zM188.5 202.9l46.7-113.3h-12l-30.7 76.1c-2.3 5.6-4.8 15.2-4.8 15.2s-2.5-9.6-4.8-15.2L152 89.5h-12.9l47.4 113.3h2zM311.7 100.1V89.5h-68.3v112.2H314v-10.6h-58.7v-28h50.3v-10.4h-50.3v-52.6zM41.7 204.3h276.7v3.7H41.7zM357 210.7H3v4.3h31v4h57.8c4.1 9.9 18.7 17.1 36 17.1 2.3 0 4.6-.1 6.8-.4 4.3 12.8 22.9 22.4 45 22.4 22.4 0 41-9.8 45.1-22.7 2.9.4 5.9.7 9 .7 17.4 0 32-7.3 36-17.1h55.8v-4H357v-4.3z"/></svg>