<svg version="1.1" id="Layer_1" xmlns="http://www.w3.org/2000/svg" x="0" y="0" width="612" height="792" style="enable-background:new 0 0 612 792" xml:space="preserve"><style>.st0{fill:#b22526}.st1{fill:#2874b0}</style><g id="XMLID_44_"><g id="XMLID_256_"><path id="XMLID_275_" class="st0" d="M183.6 411.5h2.1v-21.3h-2.1v-7.1h18.6c6 0 9 3.3 9 9.9 0 1.9-.3 3.4-.9 4.6-.6 1.2-1.6 2.2-2.9 2.9.4.2.6.4.9.5l.6.3c.2.1.3.2.4.3.1.1.2.2.4.3 1.5 1.2 2.3 3.5 2.3 6.6 0 6.7-2.7 10-8.1 10h-20.1v-7zm13.9-14.3c1.9 0 2.8-1.1 2.8-3.4 0-1.1-.2-2-.7-2.6-.5-.6-1.2-.9-2.1-.9h-1.6v6.9h1.6zm.6 14.3c.9 0 1.6-.3 2-.9.4-.6.6-1.6.6-3.1 0-1.2-.2-2.1-.6-2.6-.4-.5-1-.7-2-.7h-2.2v7.3h2.2z"/><path id="XMLID_272_" class="st0" d="M239.2 412.2c-.5 1.6-1.3 2.9-2.4 4-2.2 2-5.6 3-10.3 3-4.7 0-8.1-1-10.3-3-1.1-1-1.9-2.3-2.4-3.9s-.7-3.8-.7-6.4V396c0-2.6.2-4.7.7-6.4.5-1.6 1.3-2.9 2.4-4 2.1-2 5.6-3 10.3-3 4.6 0 8.1 1 10.3 3 1.1 1 1.9 2.3 2.4 3.9s.7 3.8.7 6.4v9.9c.1 2.7-.2 4.8-.7 6.4zm-14.5-1.6c.4.5 1 .7 1.8.7s1.4-.3 1.7-.8c.3-.5.5-1.4.5-2.6v-14.2c0-1.2-.2-2.1-.5-2.6-.4-.5-1-.7-1.8-.7s-1.4.3-1.8.8c-.4.5-.5 1.4-.5 2.6V408c.1 1.2.3 2.1.6 2.6z"/><path id="XMLID_269_" class="st0" d="M268.2 412.2c-.5 1.6-1.3 2.9-2.4 4-2.2 2-5.6 3-10.3 3-4.7 0-8.1-1-10.3-3-1.1-1-1.9-2.3-2.4-3.9s-.7-3.8-.7-6.4V396c0-2.6.2-4.7.7-6.4.5-1.6 1.3-2.9 2.4-4 2.1-2 5.6-3 10.3-3 4.6 0 8.1 1 10.3 3 1.1 1 1.9 2.3 2.4 3.9s.7 3.8.7 6.4v9.9c.1 2.7-.2 4.8-.7 6.4zm-14.5-1.6c.4.5 1 .7 1.8.7s1.4-.3 1.7-.8c.3-.5.5-1.4.5-2.6v-14.2c0-1.2-.2-2.1-.5-2.6-.4-.5-1-.7-1.8-.7s-1.4.3-1.8.8c-.4.5-.5 1.4-.5 2.6V408c.1 1.2.2 2.1.6 2.6z"/><path id="XMLID_267_" class="st0" d="M276.4 411.5h2.7v-21H277v5.9h-7.4v-13.3h29.2v13.3h-7.3v-5.9h-1.9v21h2.7v7.1h-16v-7.1z"/><path id="XMLID_265_" class="st0" d="M321.9 383.1h8.8v13.3h-9.2V394c0-1-.2-1.8-.7-2.4-.4-.5-1.1-.8-1.9-.8-1.1 0-1.8.4-2.1 1.3-.1.2-.2.5-.2.9v15.6c0 .3.1.6.2.9.2.4.4.6.7.8.3.2.7.3 1.1.3.8 0 1.3-.3 1.6-.8.3-.5.5-1.5.5-2.8v-3.9H331v6.1c0 6.6-4 9.9-12 9.9-2.4 0-4.4-.2-6.1-.7-1.7-.5-3-1.2-4.1-2.2-1.1-1-1.8-2.3-2.3-4-.5-1.6-.7-3.6-.7-5.9v-12.6c0-1.4.1-2.6.3-3.7.2-1 .4-2 .8-2.8.6-1.5 1.7-2.7 3.2-3.5 1.5-.9 3.3-1.3 5.3-1.3 1.4 0 2.6.2 3.7.7 1 .4 2 1.2 3 2.2v-2.2z"/><path id="XMLID_262_" class="st0" d="M331.8 411.5h2.3l5.6-28.4h14.2l6.1 28.4h2.3v7.1H347v-7.1h2.4l-.8-3.6h-6.3l-.8 3.6h2.6v7.1h-12.3v-7.1zm15.4-10.3-1.9-8.7-1.7 8.7h3.6z"/><path id="XMLID_260_" class="st0" d="M362.1 411.5h2v-21.3h-2v-7.1h16.1l2.8 16.8 3.2-16.8h15.3v7.1h-2v21.3h2v7.1h-13.9v-7.1h1.7v-16l-4.4 23.1h-7.7l-3.9-23v16h1.7v7.1h-11v-7.2z"/><path id="XMLID_257_" class="st0" d="M402.1 411.5h2v-21.3h-2v-7.1h17c1.8 0 3.3.1 4.4.3 1.1.2 2 .6 2.7 1.1 2.3 1.6 3.5 4.8 3.5 9.7 0 1.2-.1 2.3-.2 3.3-.2 1-.4 1.9-.7 2.8-.3 1-.8 1.8-1.4 2.5-.6.7-1.3 1.2-2.1 1.5-.6.2-1.3.4-2 .5s-1.8.1-3.3.1h-5.4v6.6h3v7.1h-15.5v-7.1zm12.5-13.5h1.2c1 0 1.7-.2 2-.5.3-.2.5-.7.7-1.3.2-.6.2-1.4.2-2.2 0-1.4-.2-2.3-.6-2.9-.4-.5-1.2-.8-2.3-.8h-1.2v7.7z"/></g></g><g id="XMLID_24_"><g id="XMLID_208_"><path id="XMLID_225_" class="st1" d="M205.5 351v8.9h-6.2v9h4v8.9h-19.5v-8.9h2.6v-26.8h-2.6v-9h32.7v16.1h-11.2v-7.1h-6v8.9h6.2z"/><path id="XMLID_223_" class="st1" d="M217.2 368.9h2.6v-26.8h-2.6v-9h18.5v9H233v26.8h2.7v8.9h-18.5v-8.9z"/><path id="XMLID_221_" class="st1" d="M245 368.9h3.4v-26.4h-2.6v7.4h-9.3v-16.8h36.8v16.8h-9.2v-7.4h-2.4v26.4h3.4v8.9H245v-8.9z"/><path id="XMLID_217_" class="st1" d="M282 368.9h2.6v-26.8H282v-9h23.4c7.6 0 11.4 4.2 11.4 12.5 0 2.4-.4 4.3-1.1 5.8-.8 1.5-2 2.7-3.7 3.7.4.3.8.5 1.1.6.3.2.5.3.7.4.2.1.3.3.5.4.1.1.3.2.5.4 1.9 1.6 2.8 4.4 2.8 8.4 0 8.4-3.4 12.6-10.3 12.6H282v-9zm17.5-18.1c2.3 0 3.5-1.4 3.5-4.3 0-1.4-.3-2.5-.9-3.3-.6-.8-1.5-1.1-2.6-1.1h-2v8.7h2zm.8 18.1c1.2 0 2-.4 2.5-1.1.5-.7.7-2 .7-3.9 0-1.6-.2-2.7-.7-3.3-.5-.6-1.3-.9-2.5-.9h-2.8v9.2h2.8z"/><path id="XMLID_214_" class="st1" d="M352.6 369.8c-.6 2-1.6 3.7-3 5-2.7 2.5-7.1 3.8-13 3.8s-10.3-1.3-13-3.8c-1.4-1.3-2.4-2.9-3-4.9-.6-2-.9-4.7-.9-8.1v-12.5c0-3.3.3-6 .9-8 .6-2 1.6-3.7 3-5 2.7-2.5 7-3.8 13-3.8 5.8 0 10.2 1.3 13 3.8 1.4 1.3 2.4 2.9 3 4.9.6 2 .9 4.7.9 8.1v12.5c.1 3.3-.2 5.9-.9 8zm-18.2-2.1c.5.6 1.2.9 2.3.9 1 0 1.8-.3 2.2-1 .4-.6.6-1.7.6-3.2v-17.9c0-1.6-.2-2.7-.7-3.3-.4-.6-1.2-.9-2.3-.9-1 0-1.8.3-2.2 1-.4.6-.7 1.7-.7 3.2v17.9c.1 1.6.3 2.7.8 3.3z"/><path id="XMLID_211_" class="st1" d="M358 368.9v-26.8h-2.6v-9H377c2.9 0 5.3.3 7 1 1.7.7 3.1 1.8 4.3 3.4 1.8 2.4 2.8 5.9 3 10.7.1 1.3.1 2.6.2 4v4.9c0 2.2 0 4-.1 5.5s-.2 2.8-.3 3.9c-.1 1.1-.3 2.1-.6 2.9-.3.8-.6 1.7-1 2.5-.8 1.7-1.7 2.9-3 3.8-1 .8-2.2 1.4-3.5 1.7-1.3.3-3.1.5-5.5.5h-22.1V369h2.6zm13.3 0h2.7c.8 0 1.4-.1 1.8-.2.4-.1.7-.3.9-.6.3-.4.5-.8.5-1.4.1-.6.1-1.6.1-3v-17.2c0-1.8-.2-3-.7-3.6-.4-.6-1.3-.9-2.7-.9h-2.7v26.9z"/><path id="XMLID_209_" class="st1" d="M391.9 333.1h19.3v9h-2.9l4.3 8.9 4.5-8.9h-2.7v-9h15.1v9h-2.4l-9.9 19.4v7.4h3.6v8.9h-20.1v-8.9h3.2V362l-9.6-19.9h-2.4v-9z"/></g></g><g id="XMLID_3_"><g id="XMLID_158_"><path id="XMLID_170_" d="M182.6 430.5h9.5l3.4 16.4 5-16.4h9.4l5 16.4 3.4-16.4h9.4l-7.1 29.3h-9.8l-5.7-18.5-5.6 18.5h-9.8l-7.1-29.3z"/><path id="XMLID_168_" d="M229.4 430.5h10v29.3h-10v-29.3z"/><path id="XMLID_166_" d="M244.6 430.5h10v22.1h15.6v7.2h-25.5v-29.3z"/><path id="XMLID_164_" d="M268.1 430.5h30.3v7.2h-10.2v22.1h-10v-22.1H268v-7.2z"/><path id="XMLID_161_" d="M298.2 445.2c0-4.8 1.5-8.5 4.4-11.2 2.9-2.7 7-4 12.3-4 5.4 0 9.5 1.3 12.4 3.9 2.9 2.6 4.4 6.3 4.4 11 0 3.4-.6 6.2-1.9 8.4s-3.1 3.9-5.5 5.1c-2.4 1.2-5.4 1.8-9 1.8-3.6 0-6.7-.5-9-1.6-2.4-1.1-4.3-2.7-5.8-5-1.6-2.1-2.3-5-2.3-8.4zm10 0c0 3 .6 5.1 1.8 6.4 1.2 1.3 2.9 1.9 4.9 1.9 2.1 0 3.8-.6 5-1.9 1.2-1.3 1.8-3.5 1.8-6.8 0-2.8-.6-4.8-1.8-6.1-1.2-1.3-2.9-1.9-5-1.9-2 0-3.6.6-4.8 1.9-1.3 1.4-1.9 3.5-1.9 6.5z"/><path id="XMLID_159_" d="M335.1 430.5h9.3l12.2 16.2v-16.2h9.4v29.3h-9.4l-12.1-16.1v16.1h-9.4v-29.3z"/></g></g></svg>