<svg version="1.1" id="Layer_1" xmlns="http://www.w3.org/2000/svg" x="0" y="0" width="612" height="792" style="enable-background:new 0 0 612 792" xml:space="preserve"><style>.st1{fill:#666}</style><path style="fill:#c2a204" d="m168.5 204.7-5.2 6.2-5.2-6.2h-19l24.2 28.5 24.2-28.5z"/><path d="m165.4 204.7-2.1-2.5-2.1 2.5 2.1 2.5zM223.4 215.2c.1-.3.3-.8.3-1.2 0-.5-.6-.6-1-.6-.2 0-1 .1-1-.3 0-.3.3-.3.5-.3.6 0 1.3.1 2 .1.6 0 1.3-.1 1.9-.1.2 0 .3.1.3.3 0 .3-.3.3-.6.3s-.7.1-.9.3c-.4.3-.7 1-.9 1.5l-4.7 11.5c0 .1-.2.6-.4.6s-.3-.5-.4-.6l-4.9-11.8c-.3-.8-.6-1.5-1.7-1.5-.2 0-.6 0-.6-.3s.3-.3.5-.3c.8 0 1.6.1 2.4.1.7 0 1.4-.1 2.1-.1.2 0 .4 0 .4.3s-.3.3-.5.3-1.1 0-1.1.4c0 .3.2.6.3.9l4.1 9.8 3.9-9.3zM242.2 217.9c0 1.1.2 1.1 1.1 1.1.7 0 1.9 0 2.8-.1.6-.1.7-.9.8-1.6 0-.1.1-.4.3-.4.1 0 .3 0 .3.2 0 .6-.1 1.3-.1 2s.1 1.4.1 2.2c0 .4-.1.4-.3.4-.2 0-.3-.3-.3-.4-.1-.7-.3-1.4-.8-1.5-.9-.2-2.1-.2-2.8-.2-.9 0-1.1 0-1.1.8v4c0 2.1 1 2.1 2.8 2.1 2 0 3.2 0 4-2.1.1-.2.2-.8.5-.8.2 0 .2.1.2.3 0 .2 0 .4-.1.6l-.3 2.4c0 .2-.1.1-.3.1H238.6c-.2 0-.4-.1-.4-.3 0-.3.4-.3.6-.3 1.6 0 1.5-.5 1.5-1.9v-9.4c0-1.4.1-1.9-1.5-1.9-.2 0-.6 0-.6-.3 0-.2.2-.3.4-.3 1.4 0 2.9.1 4.3.1 2 0 3.9-.1 5.9-.1.4 0 .3.6.3.9v2c0 .1 0 .5-.2.5s-.3-.3-.4-.5l-.3-.6c-.3-.7-.7-1.1-1.4-1.4-.8-.2-1.7-.2-2.5-.2-.4 0-1.4 0-1.7.1-.4.2-.4.7-.4 1.1v3.4zM269.7 224.7c0 1.5-.1 1.9 1.5 1.9.2 0 .6 0 .6.3s-.2.3-.4.3c-.9 0-1.7-.1-2.6-.1-.9 0-1.7.1-2.6.1-.2 0-.4 0-.4-.3s.4-.3.6-.3c1.6 0 1.5-.5 1.5-1.9v-10.6c0-.8-.3-.7-1-.7-2.1 0-2.9.2-4 2-.1.2-.3.6-.5.6s-.2-.1-.2-.3c0-.2.1-.4.1-.6l.9-3c0-.2.1-.3.3-.3.1 0 .2.1.2.3 0 .2 0 .3.2.5.3.3.8.2 1.2.2h8.3c.6 0 1.2.1 1.4-.5.1-.2.1-.4.3-.4.3 0 .2.7.2.8l-.1 2.8c0 .2 0 .4-.3.4-.2 0-.2-.2-.3-.3-.2-.5-.3-1.1-.7-1.6-.5-.6-1.1-.6-1.9-.6h-1.3c-1 0-1 0-1 1.1v10.2zM294.6 224.7c0 1.5-.1 1.9 1.5 1.9.2 0 .6 0 .6.3s-.2.3-.4.3c-.9 0-1.7-.1-2.6-.1s-1.7.1-2.6.1c-.2 0-.4 0-.4-.3s.4-.3.6-.3c1.6 0 1.5-.5 1.5-1.9v-10.6c0-.8-.3-.7-1-.7-2.1 0-2.9.2-4 2-.1.2-.3.6-.5.6s-.2-.1-.2-.3c0-.2.1-.4.1-.6l.9-3c0-.2.1-.3.3-.3.1 0 .2.1.2.3 0 .2 0 .3.2.5.3.3.8.2 1.1.2h8.3c.6 0 1.2.1 1.4-.5.1-.2.1-.4.3-.4.3 0 .2.7.2.8l-.1 2.8c0 .2 0 .4-.3.4-.2 0-.2-.2-.3-.3-.2-.5-.3-1.1-.7-1.6-.5-.6-1.1-.6-1.9-.6h-1.3c-1 0-1 0-1 1.1v10.2zM316.3 217.9c0 1.1.2 1.1 1.1 1.1.7 0 1.9 0 2.8-.1.6-.1.7-.9.8-1.6 0-.1.1-.4.3-.4.1 0 .3 0 .3.2 0 .6-.1 1.3-.1 2s.1 1.4.1 2.2c0 .4-.1.4-.3.4-.2 0-.3-.3-.3-.4-.1-.7-.3-1.4-.8-1.5-.9-.2-2.1-.2-2.8-.2-.9 0-1.1 0-1.1.8v4c0 2.1 1 2.1 2.8 2.1 2 0 3.2 0 4-2.1.1-.2.2-.8.5-.8.2 0 .2.1.2.3 0 .2 0 .4-.1.6l-.3 2.4c0 .2-.1.1-.3.1H312.7c-.2 0-.4-.1-.4-.3 0-.3.4-.3.6-.3 1.6 0 1.5-.5 1.5-1.9v-9.4c0-1.4.1-1.9-1.5-1.9-.2 0-.6 0-.6-.3 0-.2.2-.3.4-.3 1.4 0 2.9.1 4.3.1 2 0 3.9-.1 5.9-.1.4 0 .3.6.3.9v2c0 .1 0 .5-.2.5s-.3-.3-.4-.5l-.3-.6c-.3-.7-.7-1.1-1.4-1.4-.8-.2-1.7-.2-2.5-.2-.4 0-1.4 0-1.7.1-.4.2-.4.7-.4 1.1v3.4zM338.8 215.3c0-1.5.1-1.9-1.5-1.9-.2 0-.6 0-.6-.3s.2-.3.4-.3c.7 0 1.5.1 2.3.1 1.3 0 2.6-.1 3.9-.1 2.2 0 4.3 1.1 4.3 3.5 0 2.1-1.7 3.3-3.6 3.6.7.1 1.1.9 1.4 1.5l1.9 3.6c.4.8.8 1.7 1.8 1.7.2 0 .6 0 .6.3 0 .2-.2.3-.4.3h-2.4c-.5 0-.6-.4-.8-.8l-2.3-4.5c-.8-1.6-.8-1.8-2.6-1.8-.2 0-.4 0-.5.1-.1.2-.1.7-.1.9v3.5c0 1.5-.1 1.9 1.5 1.9.2 0 .6 0 .6.3s-.2.3-.4.3c-.9 0-1.7-.1-2.6-.1s-1.7.1-2.6.1c-.2 0-.4 0-.4-.3s.4-.3.6-.3c1.6 0 1.5-.5 1.5-1.9v-9.4zm1.8 3.9c0 .6.8.4 1.2.4 1.1 0 2-.1 2.9-.8.8-.6 1.1-1.4 1.1-2.3 0-2.1-1.3-3.3-3.3-3.3-1.7 0-1.8.2-1.8 1.8v4.2z"/><path class="st1" d="M365.6 220c-1.7-.7-3.3-1.7-3.3-3.7 0-2.4 2.2-3.9 4.4-3.9.9 0 2.2.2 3.1.5.4.2.4.4.4.9 0 .6.1 1.2.1 1.8 0 .2-.1.3-.3.3-.3 0-.3-.4-.4-.5-.5-1.6-1.2-2.4-3-2.4-1.5 0-3 .8-3 2.5 0 2 2.5 2.8 4 3.4.8.3 1.7.8 2.3 1.4.7.7 1.1 1.7 1.1 2.7 0 1.3-.6 2.4-1.6 3.3-1 .9-2.3 1.2-3.7 1.2-1.1 0-2.5-.3-3.5-.9-.4-.3-.3-.9-.3-1.3 0-.6 0-1.2.1-1.8 0-.2.1-.5.3-.5.3 0 .3.6.3.8.2 2 1.3 3.2 3.4 3.2 1.7 0 3.4-1.2 3.4-3s-1.2-2.7-2.8-3.4l-1-.6zM391.2 224.7c0 1.5-.1 1.9 1.5 1.9.2 0 .6 0 .6.3s-.2.3-.4.3c-.9 0-1.7-.1-2.6-.1-.9 0-1.7.1-2.6.1-.2 0-.4 0-.4-.3s.4-.3.6-.3c1.6 0 1.5-.5 1.5-1.9v-10.6c0-.8-.3-.7-1-.7-2.1 0-2.9.2-4 2-.1.2-.3.6-.5.6s-.2-.1-.2-.3c0-.2.1-.4.1-.6l.9-3c0-.2.1-.3.3-.3.1 0 .2.1.2.3 0 .2 0 .3.2.5.3.3.8.2 1.2.2h8.3c.6 0 1.2.1 1.4-.5.1-.2.1-.4.3-.4.3 0 .2.7.2.8l-.1 2.8c0 .2 0 .4-.3.4-.2 0-.2-.2-.3-.3-.2-.5-.3-1.1-.7-1.6-.5-.6-1.1-.6-1.9-.6h-1.3c-1 0-1 0-1 1.1v10.2zM417.3 212.4c4.4 0 8 3 8 7.5 0 4.4-3.6 7.5-8 7.5-4.1 0-8-3.3-8-7.5s3.8-7.5 8-7.5zm4.4 2.7c-1.1-1.3-2.6-2.1-4.3-2.1-1.8 0-3.4.8-4.6 2.2-1.1 1.3-1.4 3-1.4 4.7 0 1.7.4 3.5 1.5 4.8 1.1 1.3 2.7 2 4.5 2 1.8 0 3.3-.9 4.4-2.2 1.1-1.4 1.4-2.9 1.4-4.6 0-1.8-.4-3.4-1.5-4.8zM450.9 215.3c0-1.4.1-1.9-1.5-1.9-.2 0-.6 0-.6-.3s.2-.4.4-.4c.7 0 1.3.1 2 .1s1.3-.1 2-.1c.2 0 .4.1.4.4 0 .3-.4.3-.6.3-1.6 0-1.5.5-1.5 1.9V227c0 .1 0 .4-.2.4-.3 0-.5-.4-.6-.6l-9.7-12.6v10.4c0 1.4-.1 1.9 1.5 1.9.2 0 .6-.1.6.2 0 .3-.2.3-.4.3-.7 0-1.3-.1-2-.1-.6 0-1.3.1-2 .1-.2 0-.4-.1-.4-.3 0-.3.4-.2.6-.2 1.6 0 1.5-.5 1.5-1.9v-9.4c0-1.4.1-1.9-1.5-1.9-.2 0-.6 0-.6-.3s.3-.4.6-.4h2.9c.5.1.7.4.9.8l8.1 10.6v-8.7zM469.9 217.9c0 1.1.2 1.1 1.2 1.1.7 0 1.9 0 2.8-.1.6-.1.7-.9.8-1.6 0-.1.1-.4.3-.4.1 0 .3 0 .3.2 0 .6-.1 1.3-.1 2s.1 1.4.1 2.2c0 .4-.1.4-.3.4-.2 0-.3-.3-.3-.4-.1-.7-.3-1.4-.8-1.5-.9-.2-2.1-.2-2.8-.2-.9 0-1.2 0-1.2.8v4c0 2.1 1 2.1 2.8 2.1 2 0 3.2 0 4-2.1.1-.2.2-.8.5-.8.2 0 .2.1.2.3 0 .2 0 .4-.1.6l-.3 2.4c0 .2-.1.1-.3.1H466.3c-.2 0-.4-.1-.4-.3 0-.3.4-.3.6-.3 1.6 0 1.5-.5 1.5-1.9v-9.4c0-1.4.1-1.9-1.5-1.9-.2 0-.6 0-.6-.3 0-.2.2-.3.4-.3 1.4 0 2.9.1 4.3.1 2 0 3.9-.1 5.9-.1.4 0 .3.6.3.9v2c0 .1 0 .5-.2.5s-.3-.3-.4-.5l-.2-.5c-.3-.7-.7-1.1-1.4-1.4-.8-.2-1.7-.2-2.5-.2-.4 0-1.4 0-1.7.1-.4.2-.4.7-.4 1.1v3.3z"/></svg>