<svg version="1.1" id="Layer_1" xmlns="http://www.w3.org/2000/svg" x="0" y="0" width="360" height="360" style="enable-background:new 0 0 360 360" xml:space="preserve"><style>.st2{fill:#104b86}</style><path style="fill:#f5831f" d="m98.4 169 22.1 3.1-22.1 3.2-22.2-3.2z"/><path d="m120.5 169.4-22.1-9.8-22.2 9.8 22.2-4.6 22.1 4.6zm-22.1 10.1 22.1-4.6-22.1 9.8-22.2-9.8 22.2 4.6z" style="fill:#1383c6"/><path class="st2" d="m120.5 166.7-22.1-16.5-22.2 16.5 22.2-11.6 22.1 11.6zm-22.1 22.4 22.1-11.6L98.4 194l-22.2-16.5 22.2 11.6zM211.7 171.4c1.2 0 2.1-.2 2.8-.6.1-.1 1.8-.9 1.8-3.2 0-3.5-2.5-4.2-4.6-4.2h-3.4v8h3.4zm10 13.3h-5.6l-7.7-9.6v9.6h-4.7v-25.1h7.3s4.7-.3 7.1 1.7c1.3 1 2.7 3.2 2.7 6.1 0 2.8-1.4 5-2.7 6.1-1.1.8-2.5 1.3-4.2 1.5l7.8 9.7zM141.8 171l7.5 14h.4l7.3-25.4h-4.9l-4.4 14.3-5.6-11.9h-.4l-5.7 11.9-4.4-14.3h-4.8l7.3 25.4h.4l7.3-14zm92.9 4.5c0-3.3-1.5-5.9-4.4-5.9-2.9 0-4.4 2.5-4.4 5.9 0 3.4 1.5 5.9 4.4 5.9 2.9 0 4.4-2.5 4.4-5.9m4.8 0c0 5.9-3.7 9.5-9.2 9.5-5.5 0-9.2-3.6-9.2-9.5s3.7-9.5 9.2-9.5c5.5 0 9.2 3.6 9.2 9.5m-71.6-2c0-2.3-1.2-4.3-3.9-4.3s-4 2.1-4.2 4.3h8.1zm4.5 3.1H160c.1 3.1 2 4.8 4.9 4.8 2.9 0 5-1.5 5.4-1.9l1.6 2.9s-2.4 2.6-7.6 2.6c-5.2 0-9.1-3.4-9.1-9.5s3.9-9.5 9-9.5 8.1 3.8 8.1 9.2v1.4zm95.8-3 6.9-7.2h-5.5l-6.5 7.3v-14.1h-4.7v25.1h4.7V179l2-2 5.1 7.7h5.4l-7.4-11.1zm-17.8 7.4c-2.7 0-5-1.7-5-5.6 0-3.9 2.4-5.5 4.9-5.5 2.6 0 4.3 2 4.3 2l2.2-2.9c-.2-.3-2.4-3-7-3s-9.1 3.3-9.1 9.5 4.1 9.5 8.9 9.5c4.8 0 6.9-2.5 7.3-2.9l-2-3.1s-1.8 2-4.5 2m-54-19.4h-4.5v4.8h-2.7v3.5h2.5v9.2c0 2.1.3 3.6 1.4 4.7 1.1 1 2.5 1.4 4.1 1.4 1.4 0 3-.3 3.9-.6l-.5-3.4c-.6.2-1.3.3-2.1.3s-1.4-.4-1.7-.8c-.3-.5-.5-1.3-.5-2.4V170h4.7v-3.5h-4.8v-4.9zm-7.8 17.4c0 2.1-1 3.5-1.9 4.3-.9.8-2.5 1.8-5.8 1.8s-6.3-1.8-7.5-3.1l2.3-2.9c1.3 1.4 3.8 2.4 5.4 2.4 1.6 0 2.9-.4 2.9-1.7 0-1.3-1.9-1.8-2.9-2.1-1-.3-1.9-.6-2.9-1s-3.9-1.4-3.9-4.9c0-3.5 2.9-5.7 7.2-5.7 4.3 0 6.9 2.5 6.9 2.5l-1.8 3c-1.5-1.2-3.4-2-5-2-1.5 0-2.8.4-2.8 1.6 0 1.3 1.5 1.6 2.8 2 1.4.4 2.9.9 3.4 1.2.6.1 3.6 1.3 3.6 4.6"/></svg>