<svg version="1.1" id="Layer_1" xmlns="http://www.w3.org/2000/svg" x="0" y="0" width="216" height="216" style="enable-background:new 0 0 216 216" xml:space="preserve"><style>.st0{fill:#00833e}.st3{display:inline}.st4{fill-rule:evenodd;clip-rule:evenodd}.st4,.st5{fill:#f4dea8}</style><path class="st0" d="M160.3 135.1H51.9L82.6 94h61.2zM13.1 109.3l18.6 9.5 3.7-7.3-18.6-9.5 3.8-7.3-6.2-3.2-.6 1.1-10.5 20.8v.1l6.1 3.1 3.7-7.3zM53.3 86.8l-5.5-4.3L38.6 94l-3.3-2.6 8.1-10.1-5.3-4.2-8.1 10-2.3-1.8 8.8-11-.9-.8-4.4-3.5-13.9 17.3L39 104.7l14.3-17.9zM72 72.6 67.8 67 56 75.9l-2.5-3.3 10.3-7.8-4.1-5.4-10.3 7.8-1.8-2.4 11.2-8.5-.7-1-3.4-4.5L37 64.3l16.8 22.1L72 72.6zM64.6 54.7c.5 1.3 1.2 2.4 2.1 3.2.9.8 2.1 1.4 3.3 1.6.6.1 1.2.2 2 .2 1.3 0 2.9-.2 4.7-.5l3-.5c1.1-.2 2.1-.3 2.8-.3h.8c.3 0 .5.1.6.2.1.1.2.2.3.4.1.2.1.5.1.6 0 .2-.1.5-.2.7-.1.3-.4.6-.8.9-.5.4-1.4.9-2.6 1.4-1.1.4-2 .6-2.7.6-.6 0-1-.1-1.3-.3-.4-.2-.9-.7-1.4-1.6l-.5-.9-1 .4-6.3 2.4.4 1.1c.5 1.4 1.3 2.6 2.3 3.5 1 .9 2.2 1.6 3.6 2 1 .3 2 .4 3 .4 2 0 4.1-.5 6.4-1.3 3.4-1.3 6-3.1 7.4-5.6.9-1.4 1.3-2.9 1.3-4.5 0-1-.2-2-.6-3-.5-1.2-1.1-2.2-1.9-3-.8-.8-1.8-1.4-3-1.7-.8-.2-1.7-.3-2.6-.3-.9 0-1.9.1-2.9.2l-4.9.9c-1.4.2-2.5.3-3.1.3h-.3c-.3 0-.5-.1-.6-.2-.1-.1-.2-.2-.3-.4-.1-.2-.1-.4-.1-.5 0-.3.1-.5.4-.9.5-.6 1.3-1.2 2.5-1.7 1-.4 1.9-.6 2.6-.6h.3c.6 0 1 .2 1.3.4.3.2.6.6.9 1.1l.5 1 7.4-2.8-.5-1.2c-.6-1.4-1.4-2.5-2.4-3.4-1-.9-2.3-1.5-3.6-1.9-1-.2-2-.4-3-.4-1.8 0-3.6.4-5.4 1.1-1.7.6-3.2 1.4-4.4 2.3-1.2.9-2.2 1.9-2.8 3.1-.8 1.3-1.2 2.8-1.2 4.2-.2 1.2 0 2.3.4 3.3zM65.1 47.4zM91.3 55.9v.1-.1zM105.2 63.2l3.2-14.2 2.9 14.2 7.7.3 8.4-26.3-8.4-.9-3.5 13.8-3.1-14.1h-8l-2.9 13.9L98 36.4l-8.2.6 7.9 26.6 7.5-.4zM129 66.4l3.5-4.1 7.8 3v5.2l7.9 3.9.2-30.2-7.4-3.1-.7.8-19.4 21.8 8.1 2.7zm8.1-9.5 3.5-4.1-.2 5.4-3.3-1.3zM156.1 80.6l12-16.6 6.7 4.8 4-5.7-1-.7-19-13.6-4 5.6 6.6 4.8-12 16.5 6.7 4.9zM176.8 102.8l5.3-4.5-9.7-11.3 3.2-2.7 8.4 9.8 5.2-4.4-8.4-9.8L183 78l9.2 10.7.9-.8 4.3-3.7L183 67.4l-21.1 18 14.9 17.4zM205.6 116.1zM180.9 110.8l8.8-4.6 2 3.9c.5 1 .7 1.8.7 2.1v.2c0 .1-.1.3-.4.6-.3.3-.8.6-1.4 1l-2.1 1.1c-.7.4-1.4.8-2 1.4-.3.3-.7.6-1.1 1l-.6.6 3.9 7.4 2.3-1.2v-.7c0-.2 0-.3.1-.4.1-.1.1-.2.3-.3.1-.1.3-.2.6-.4s.7-.4 1.2-.7l1.5-.8c1.7-.9 2.9-1.8 3.6-3 .3-.5.5-1 .6-1.6.8.4 1.6.6 2.5.6h.3c1.4 0 2.7-.3 3.9-.9 1-.5 1.9-1.2 2.5-2 .6-.8 1.1-1.6 1.4-2.6.3-.9.5-1.8.5-2.8v-.9c-.1-1.3-.7-2.8-1.6-4.5l-6.6-12.7-24.6 12.9 3.7 7.3zm21.7-3.3c0 .4-.1.6-.3.9-.2.3-.5.6-1.1.9-.5.3-.9.3-1.1.3-.3 0-.5-.1-.9-.3-.3-.2-.8-.8-1.3-1.9l-2.3-4.4 3.9-2.1 2.4 4.5c.5 1 .7 1.8.7 2.1zM22.4 158.9c-.3 1.2-.8 2-1.1 2.5-.4.5-.8.8-1.4 1-.6.2-1.2.4-2.1.4-.8 0-1.5-.1-2.1-.4-.6-.3-1.1-.7-1.7-1.3-.5-.6-.9-1.3-1.1-2.2-.3-.9-.4-2.1-.4-3.4 0-2.7.6-4.6 1.5-5.9.5-.6 1-1.1 1.6-1.4.6-.3 1.3-.5 2.1-.5.9 0 1.6.1 2.2.3.6.2 1 .5 1.4.9.4.4.8 1.2 1.1 2.3l.3.9h7.7l-.1-1.3c-.1-1.9-.8-3.7-2.1-5.4-1.1-1.6-2.7-2.8-4.5-3.5-1.8-.8-3.9-1.1-6.2-1.1-3.6 0-6.7 1.2-9 3.5-1.4 1.3-2.4 2.9-3.1 4.8-.7 1.9-1 4-1 6.3 0 2.2.3 4.1.9 5.9.6 1.8 1.5 3.3 2.7 4.6 1.2 1.3 2.7 2.3 4.3 2.9 1.7.7 3.5 1 5.5 1 3.3 0 6.1-.9 8.4-2.9 2.2-1.9 3.5-4.4 4.1-7.4l.2-1.4h-7.9l-.2.8zm175.5 3.1v-4.2h12.6v-6.7h-12.6v-3h13.7v-6.9H190V169h22.3v-7h-14.4zm-33.5-20.8v6.9h8V169h8v-20.9h8v-6.9h-24zm-15.2 16.6h12.6v-6.7h-12.6v-3H163v-6.9h-21.6V169h22.3v-7h-14.4v-4.2h-.1zm-13-13.8c-.8-.9-1.8-1.6-3-2.1s-2.7-.7-4.6-.7h-14V169h7.8v-9.9h4.3c.7 0 1.3.1 1.7.2.4.1.6.2.7.3.1.1.2.3.3.7.1.4.2 1 .2 1.7v2.3c0 .8.1 1.6.2 2.4.1.4.2.9.4 1.5l.3.9h8.2v-2.6l-.6-.3c-.1-.1-.2-.1-.3-.2-.1-.1-.1-.2-.2-.4 0-.1-.1-.3-.1-.7V161.8c0-1.9-.2-3.4-.9-4.6-.3-.5-.7-.9-1.2-1.3.7-.5 1.3-1.2 1.7-2 .7-1.3 1.1-2.7 1.1-4.1 0-1.1-.2-2.2-.6-3.2-.2-1-.8-1.8-1.4-2.6zm-13.7 3.9h5c1 0 1.7.2 2 .3.3.2.5.3.6.6.2.3.3.8.3 1.4 0 .6-.1 1-.2 1.2-.1.3-.3.4-.6.6-.3.2-1.1.3-2.2.3h-4.8v-4.4h-.1zm-18 11c-.3 1.2-.8 2-1.1 2.5-.4.5-.8.8-1.4 1-.6.2-1.2.4-2.1.4-.8 0-1.4-.1-2.1-.4-.6-.3-1.1-.7-1.7-1.3-.5-.6-.9-1.3-1.1-2.2-.3-.9-.4-2.1-.4-3.4 0-2.7.6-4.6 1.5-5.9.5-.6 1-1.1 1.6-1.4.6-.3 1.3-.5 2.1-.5.9 0 1.6.1 2.2.3.6.2 1 .5 1.4.9.4.4.8 1.2 1.1 2.3l.3.9h7.7l-.1-1.3c-.1-1.9-.8-3.7-2.1-5.4-1.1-1.6-2.7-2.8-4.5-3.5-1.8-.8-3.9-1.1-6.2-1.1-3.6 0-6.7 1.2-9 3.5-1.4 1.3-2.4 2.9-3.1 4.8-.7 1.9-1 4-1 6.3 0 2.2.3 4.1.9 5.9.6 1.8 1.5 3.3 2.7 4.6 1.2 1.3 2.7 2.3 4.3 2.9 1.7.7 3.5 1 5.5 1 3.3 0 6.1-.9 8.3-2.9 2.2-1.9 3.5-4.4 4.1-7.4l.2-1.4h-7.9l-.1.8zm-27-3.2-8.6-14.5h-7.7V169h7.6v-14.8l8.9 14.8h7.4v-27.8h-7.6v14.5zm-22.6-12c-1.2-1.1-2.6-2-4.1-2.5-1.6-.5-3.4-.8-5.4-.8-2 0-3.8.3-5.4.8-1.6.5-3 1.4-4.1 2.5-1.5 1.3-2.6 2.9-3.3 4.8-.7 1.9-1.1 4.1-1.1 6.5 0 2.4.4 4.6 1.1 6.5.7 1.9 1.8 3.5 3.3 4.9 1.1 1.1 2.5 1.9 4.1 2.5 1.6.5 3.4.8 5.4.8 2 0 3.8-.3 5.4-.8 1.6-.5 3-1.4 4.1-2.5 1.5-1.3 2.6-3 3.3-4.9.7-1.9 1.1-4.1 1.1-6.5 0-2.4-.4-4.6-1.1-6.5-.7-1.9-1.8-3.5-3.3-4.8zm-9.5 19.2c-1 0-1.8-.2-2.5-.5s-1.3-.8-1.9-1.4c-.5-.6-1-1.4-1.2-2.4-.3-1-.4-2.1-.4-3.5 0-1.3.2-2.5.4-3.5.3-1 .7-1.8 1.2-2.4.6-.7 1.2-1.1 1.9-1.4.7-.3 1.5-.5 2.5-.5s1.8.2 2.5.5 1.3.8 1.8 1.4c1.1 1.3 1.7 3.2 1.7 5.9s-.6 4.6-1.7 5.9c-.5.6-1.1 1.1-1.8 1.4-.8.3-1.6.5-2.5.5z"/><path d="m201.6 137-38.6-6.9 16.1-4.3-16.9-2.6 20-9.6-30.3-5.1 15.3-8.1-15.5-.4 10.4-11.6-17.1 5.8 5.8-14.3-12.3 8.5.1-19.2L121.7 88l-4.4-18.6-9.6 18.6-11.2-21-2 21L83 80.7l.5 9.2L65.4 81l8.9 19.1-12.6-3.4 3.9 11.8-25.4-3.1 19.1 12.1-19.9 2.5 14.2 8.4-39.1 8.6h187.1zM69.3 116.9l1.5-2.1 9.8 10-1.6 2.4-9.4-4 7.1 7.5-1.6 2.4-13.1-5.5 1.5-2.2 8.9 4.1-6.9-7.1 1.8-2.6 9 3.9-7-6.8zm85.3 7.5c1.8 3 0 4.8-3.6 7.1-1.8 1.1-5.8 3.9-8.1 0l-2.2-3.7 11.7-7.2 2.2 3.8zm-5.1 4.8c2.2-1.3 4.1-2.5 3.1-4l-.7-1.2-8.1 5 .7 1.1c.8 1.3 2.1.9 5-.9zm-6.5-4.9c-.7.6-2.6 2.3-2.9 2.9l-1.7-2c.4-.8 1.2-1.4 1.8-1.9 1.2-1.1 2.4-1.9 1.1-3.4l-.4-.5-4.3 3.7-1.7-2 10.4-8.9 3.2 3.7c1.2 1.4 1 3.1-.8 4.6-1.3 1.1-2.7 1.5-4.1.4.3.4 1.3 1.8-.6 3.4zm2.5-8.8-2.9 2.5.8.9c.7.8 1.7.3 2.4-.3 1-.9 1-1.6.5-2.2l-.8-.9zm-10.6 5.3-2.2-1.7 1.3-2.8-2.8-2.2-2.4 1.9-2-1.6 11.3-8.6 2.7 2.2-5.9 12.8zm-1.9-8.1 2 1.6 2.7-5.4-4.7 3.8zm-3.4-12.1 2.4 1.1-5.6 12.5-2.4-1.1 2.5-5.6-2.8-1.2-2.5 5.6-2.4-1.1 5.6-12.5 2.4 1.1-2.2 5 2.8 1.2 2.2-5zm-18.1 1.2 2.3-5.7 2.7.1-4 8.8-.2 4.7-2.6-.1.2-4.8-2.9-9.1 2.9.1 1.6 6zm-8.6 1.7c.6-.1 2.3-.3 2.8 2.1.2.9.8 3.4 1.2 3.9l-2.5.6c-.5-.7-.6-1.7-.8-2.5-.4-1.6-.5-3-2.5-2.6l-.7.1 1.2 5.6-2.6.6-3-13.4 4.8-1c1.8-.4 3.2.6 3.7 2.9.3 1.6 0 3-1.6 3.7zm-1.9-.7c1-.2 1.1-1.4.9-2.3-.3-1.3-.9-1.7-1.7-1.5l-1.2.3.8 3.7 1.2-.2zm-13.1-1.4c3.1-1.6 4.8.3 6.8 4.1 1 1.9 3.5 6-.5 8.1l-3.8 2-6.4-12.1 3.9-2.1zm5 10.5c1.4-.8 1.1-2.1-.5-5.1-1.2-2.2-2.2-4.2-3.8-3.3l-1.2.6 4.5 8.4 1-.6zm-10 7.4 3.2-3 1.5 1.5-5.1 4.9-9.5-9.9 5-4.8 1.5 1.5-3.1 2.9 2.3 2.4 2.8-2.7 1.5 1.5-2.8 2.7 2.7 3z" style="fill:#ffcd00"/></svg>