<svg version="1.1" id="Layer_1" xmlns="http://www.w3.org/2000/svg" x="0" y="0" width="511.9" height="236" style="enable-background:new 0 0 511.9 236" xml:space="preserve"><style>.st0{fill:#959ba0}.st1{fill:#007dc2}</style><path class="st0" d="M100 118.2c-.1-4-2.4-7.2-5.2-7.2-2.8.1-5.1 3.4-5 7.4.1 4 2.4 7.2 5.3 7.2 2.8-.1 5-3.4 4.9-7.4zM83.1 130.4c-.6-3.7.6-7 2.8-7.4 2.2-.4 4.5 2.3 5.2 6 .6 3.7-.6 7-2.8 7.4-2.2.4-4.5-2.3-5.2-6zM83.6 137.7c-1-3.3-3-5.6-4.6-5.1-1.6.5-2.1 3.5-1.1 6.8s3 5.6 4.6 5.1c1.5-.5 2-3.6 1.1-6.8zM90.5 106.3c-.1-3.6-1.8-6.5-3.9-6.5-2.1 0-3.8 3-3.7 6.6.1 3.6 1.8 6.5 3.9 6.5 2.1-.1 3.8-3 3.7-6.6zM82.9 96.6c-.1-3.2-1.5-5.8-3.2-5.8-1.7 0-3.1 2.7-3 5.9.1 3.2 1.5 5.8 3.2 5.8 1.8 0 3.1-2.6 3-5.9z"/><path class="st1" d="M129.1 119.5c-.1-5.1-4.3-9.2-9.5-9.1-5.1.1-9.2 4.3-9.1 9.5.1 5.1 4.3 9.2 9.5 9.1 5.1-.2 9.2-4.4 9.1-9.5zM101.2 127.1c2.9-1.8 7.3.1 9.8 4.2 2.5 4.1 2.2 8.8-.7 10.6-2.9 1.8-7.3-.1-9.8-4.2-2.5-4.1-2.2-8.8.7-10.6zM92.3 137.5c2.5-1 5.8 1.4 7.4 5.3 1.6 4 1 8-1.5 9-2.4 1-5.8-1.4-7.4-5.3-1.6-4-1-8 1.5-9zM84.2 145.5c1.7-.7 4.2 1.9 5.6 5.7 1.4 3.8 1.2 7.3-.6 8-1.7.6-4.2-1.9-5.6-5.7-1.4-3.8-1.1-7.4.6-8zM108.2 95.5c3.3 1 4.8 5.5 3.5 10.1-1.3 4.6-5.1 7.6-8.3 6.6-3.3-1-4.8-5.4-3.5-10.1 1.3-4.6 5-7.6 8.3-6.6zM96.4 84.9c2.6.7 3.7 4.6 2.6 8.7s-4.1 6.9-6.7 6.2c-2.6-.7-3.7-4.6-2.6-8.7 1.1-4.2 4.2-7 6.7-6.2zM87.4 76.8c1.8.4 2.6 3.9 1.7 7.8-.8 3.9-3 6.8-4.7 6.4-1.8-.4-2.6-3.9-1.7-7.8.8-4 3-6.8 4.7-6.4zM180.2 108.9h-15.1v26h-8.4v-26h-14.9V102h38.4v6.9zM220.8 134.9h-32.6V102h32.6v6.9h-24.2v6.3h21.3v6.5h-21.3v6.5h24.2v6.7zM271 134.9h-8.9l-3.2-6.7h-20l-3.3 6.7h-8.7l16.9-32.9h10.4l16.8 32.9zm-15.2-12.7-6.9-13.2-7 13.2h13.9zM306 134.9h-29.7V102h8.4v25.6H306v7.3zM321.3 134.9h-8.4V102h8.4v32.9zM369.8 121.2c0 10.9-5.1 14.3-20.2 14.3s-19.7-2.9-19.7-14.3V102h8.2v18.6c0 7 4 7.7 11.5 7.7 7.1 0 11.9-1.2 11.9-7.7V102h8.3v19.2zM430.9 134.9h-9l-4-25.6-10.3 25.6h-9.5L388 109.4l-4.1 25.6h-8.7l5.8-33h12.4l9.3 24.1 9.9-24.1H425l5.9 32.9zM435.1 101.8c0 1.2-1 2.2-2.2 2.2-1.2 0-2.2-1-2.2-2.2 0-1.2 1-2.2 2.2-2.2 1.3 0 2.2 1 2.2 2.2m-3.9 0c0 1 .7 1.7 1.7 1.7.9 0 1.6-.8 1.6-1.7 0-1-.7-1.7-1.7-1.7-.9-.1-1.6.7-1.6 1.7m1.4 1.1h-.5v-2.2c.2 0 .5-.1.8-.1.4 0 .6.1.8.2.1.1.2.3.2.5s-.2.4-.4.5c.2.1.3.2.4.5.1.3.1.5.2.5h-.5c-.1-.1-.1-.3-.2-.5 0-.2-.2-.3-.4-.3h-.2v.9zm0-1.2h.2c.3 0 .5-.1.5-.3 0-.2-.1-.3-.5-.3h-.3v.6z"/></svg>