<svg version="1.1" id="Ubisoft_Mark" xmlns="http://www.w3.org/2000/svg" x="0" y="0" width="1190.5" height="841.9" style="enable-background:new 0 0 1190.5 841.9" xml:space="preserve"><style>.st0{fill:#1d1d1b}</style><path id="SWIRL" class="st0" d="M754.8 350.1c-3.4-167.6-226.1-230.1-311.8-73 3.8 2.7 9 6.5 12.8 9.2-6.6 13.8-10.9 27.8-13.3 41.8-1.7 9.2-2.5 18.6-2.5 28.3 0 87 70.5 157.5 157.5 157.5S755 443.4 755 356.4c0-2.1-.1-4.2-.2-6.3zm-276 28.2c-2.1 17.1-.8 22.4-.8 24.4l-3.8 1.4c-1.4-2.8-5.1-12.7-6.7-26-4.1-50.7 30.5-96.4 83.1-104.9 48.3-7.1 94.4 22.9 105.2 64.8l-3.8 1.4c-1.1-1.2-3.1-4.6-10.4-12-58.2-58.6-149.6-31.8-162.8 50.9zm149.9 28.3c-7.8 11.2-20.7 18.5-35.3 18.5-23.7 0-43-19.2-43-43 0-22.7 17.6-41.3 39.8-42.8 13.9-.6 26.8 6.9 32.9 19.1 6.6 13.1 4.2 29.3-6.1 40.2 4 2.6 7.8 5.3 11.7 8zm89.6 1.7c-22.7 51.6-69.5 78.6-119.4 78-95.8-4.8-123.7-115.4-59.7-155.3l2.8 2.8c-1.1 1.4-4.8 4.4-10.8 16.2-7 14.2-9.1 28.4-8.3 37.3 5 77.3 113.2 93.1 150.5 16.6 47.4-104.9-78.3-211.4-190-130l-2.6-2.6c29.4-46.1 86.7-66.7 141.6-52.9 83.8 20.9 128.8 108.3 95.9 189.9z"/><path id="UBISOFT" class="st0" d="M427.8 543.3v53.9c0 21.4-13.1 37.5-37.1 37.5s-37.1-16-37.1-37.5v-53.9h19.5v52.3c0 13.1 6.2 20.5 17.6 20.5 11.4 0 17.6-7.4 17.6-20.5v-52.3h19.5zm72.5 63.1c0 15.5-12.2 26.7-31.8 26.7h-31v-89.8h29.9c17.3 0 28.7 8.3 28.7 21.7 0 10.1-4.7 16.3-11.8 19.2 9.4 3.6 16 10.2 16 22.2zm-43.4-45.9v19h10.3c6 0 10.1-3.5 10.1-9.5s-4.1-9.5-10.1-9.5h-10.3zm10.8 55.4c8.3 0 13.1-3.8 13.1-11.3 0-7.4-4.7-11.3-13.1-11.3h-10.8v22.6h10.8zm40.1-72.6h19.5v89.8h-19.5v-89.8zm66.6 36.3c15.4 5.4 23.3 12.3 23.3 26.2 0 18.6-14.2 28.9-31 28.9-15.5 0-27.4-6.9-32.4-19.8l15.5-11.5c2.8 8.1 10.1 13.1 17.4 13.1 6.4 0 11-3.5 11-9.2 0-5.4-3.5-8.7-16.3-13.3-13.9-5-24.1-11.9-24.1-26.8 0-14.4 11.9-25.3 29.2-25.3 13.7 0 24.4 5.5 29.4 16.4L581 569c-2.9-6.7-7.6-10.4-14.6-10.4-5.9 0-10.3 3.2-10.3 7.8 0 5.3 4.9 8.5 18.3 13.2zm120.1 8.6c0 26.4-19 46.4-45.7 46.4-27.3 0-45.7-19.6-45.7-43.4 0-15.4 6-26.5 14.9-33.9l-3.1-3.1c6.8-7.1 19.2-12.6 33.9-12.6 26.7.2 45.7 20.4 45.7 46.6zm-19.7 0c0-16.2-10.3-28-25.9-28-9.1 0-15.9 3.5-20 8l3.1 3.1c-4.7 4-9 9.5-9 19.4 0 13.6 9.6 25.5 25.9 25.5 15.6 0 25.9-11.8 25.9-28zm47.1-26.4v20.8H760v14.9h-38.1v35.7h-19.5v-89.8h61.4v18.5h-41.9zm119.4 0h-25.1v71.3h-19.5v-71.3h-25.3v-18.5h69.9v18.5z"/></svg>