<svg version="1.1" id="Layer_1" xmlns="http://www.w3.org/2000/svg" x="0" y="0" width="792" height="612" style="enable-background:new 0 0 792 612" xml:space="preserve"><style>.st1{fill:#d9272d}.st2{fill:#fff}</style><path style="fill:#051c2c" d="M0 0h792v612H0z"/><path class="st1" d="M108.3 315.8h281.2V344H108.3z"/><path class="st2" d="M513.6 300.5v44.3h-31.4v-43.5l-51.5-93.6h31.6l35.6 61.5 34.8-61.5h31.6l-50.7 92.8zM639.6 318.1h-64.2l-10.9 26.6h-32.3l60.2-137.1h32.3L684 344.8h-33.5l-10.9-26.7zm-10.1-24.9-21.8-53.3-22 53.3h43.8z"/><path class="st1" d="M220.2 261.2h169.4v28.2H220.2zM220.2 206.6h169.4v28.2H220.2z"/><path class="st2" d="m149.4 207.2-41.2 34.9v47.6h83.1v-47.6l-41.9-34.9zm16.9 44.2c-1.1 1.1-7.3 7-7.3 7s1.5 9 1.7 10.3 0 1.7 0 1.7-.9 0-1.8-.5c-.7-.3-6.8-3.6-9.3-4.9-2.5 1.3-8.6 4.5-9.3 4.9-.9.4-1.8.5-1.8.5s-.2-.4 0-1.7 1.7-10.3 1.7-10.3-6.1-5.9-7.3-7c-1.1-1.1-1.2-1.8-1.2-1.8s.3-.3 1.9-.6c1.8-.3 10.1-1.4 10.1-1.4s4-8.2 4.7-9.4c.4-.7.8-1.1 1.1-1.4.3.2.7.7 1.1 1.4.7 1.3 4.7 9.4 4.7 9.4s8.3 1.1 10.1 1.4c1.6.3 1.9.6 1.9.6s.1.7-1 1.8zM553.4 395.8h11.3v-2.2h-11.3v-6.9h11.3v-2.2H551v20.6h14.1v-2.2h-11.7zM614.2 384.5h-2.4v20.6h12.3v-2.2h-9.9zM634 386.7h6.8v18.4h2.5v-18.4h6.9v-2.2H634zM679.3 384.5l-6.8 9.6-6.8-9.6h-2.5l8.1 12.3v8.3h2.4v-8.4l8-12.2zM587.1 384.5l-9.5 20.6h2.6l2.2-4.8h11.9l2.2 4.8h2.6l-9.4-20.6h-2.6zm-3.8 13.7 5-11.1 5 11.1h-10zM536.5 390.8c0-5.1-4.4-6.3-7.3-6.3H521v20.6h2.4v-8.3h5l5.8 8.3h2.7l-5.9-8.5c0 .1 5.5-.7 5.5-5.8zm-13.1 3.9v-8h5.7c2.4 0 4.8 1.4 4.8 3.9 0 2-1.8 4-5.4 4s-5.1.1-5.1.1zM118 393.9l-6.5-9.4H108l8.3 12.6v8h3.5V397l8.2-12.5h-3.5zM155.1 385.6c-1.7-.9-3.5-1.4-5.6-1.4s-3.9.5-5.6 1.4c-1.7.9-3 2.2-4 3.8-1 1.6-1.4 3.4-1.4 5.3 0 2 .5 3.7 1.4 5.4 1 1.6 2.3 2.9 4 3.8 1.7.9 3.5 1.4 5.6 1.4s3.9-.5 5.6-1.4 3-2.2 4-3.8c1-1.6 1.4-3.4 1.4-5.4 0-1.9-.5-3.7-1.4-5.3-1-1.6-2.3-2.9-4-3.8zm.8 12.9c-.7 1.2-1.6 2-2.7 2.7-1.1.7-2.4 1-3.7 1-1.3 0-2.6-.3-3.7-1-1.2-.7-2-1.6-2.7-2.7-.7-1.2-1-2.4-1-3.7 0-1.4.3-2.6 1-3.7s1.6-2 2.7-2.7c1.2-.6 2.4-1 3.7-1 1.3 0 2.6.3 3.7 1s2 1.6 2.7 2.7c.6 1.1 1 2.4 1 3.7 0 1.3-.3 2.6-1 3.7zM188.9 396.7c0 1.7-.5 3.1-1.5 4.1-1 1-2.3 1.5-4 1.5-1.7 0-3.1-.5-4.1-1.5-1-1-1.5-2.3-1.5-4.1v-12.2h-3.5v12.2c0 1.8.4 3.3 1.1 4.6.7 1.3 1.8 2.3 3.2 3 1.4.7 3 1.1 4.8 1.1 1.8 0 3.5-.4 4.8-1.1s2.4-1.7 3.1-3c.7-1.3 1.1-2.8 1.1-4.6v-12.2h-3.5v12.2zM222.5 399.4 211 384.5h-3.5v20.6h3.6v-14.8l11.4 14.8h3.6v-20.6h-3.6zM250.1 394v3h6.5v3.2c-1.9 1.7-3.4 2.1-5 2.1-2.1 0-3.8-.8-5.3-2.2-1.5-1.4-2.2-3.2-2.2-5.2s.8-3.9 2.2-5.3c1.4-1.4 3.1-2.1 5.2-2.1 2.3 0 4.4 1 5.8 2.8l2.7-2.2c-1.1-1.3-2.7-2.4-4.1-2.9-1.4-.5-2.9-.8-4.3-.8-3.1 0-5.9 1.1-7.8 3-2.2 2.1-3.2 4.6-3.2 7.5 0 3 1 5.4 3.1 7.4s4.6 3.2 7.7 3.2c1.4 0 2.6-.2 4.1-.7 1.4-.5 3.5-1.8 4.7-3.3V394h-10.1zM298.6 384.5l-9.1 20.7h3.6l2-4.7h10.4l2 4.7h3.7l-9-20.7h-3.6zm-2.2 12.9 3.9-9.2 3.9 9.2h-7.8zM334.8 398.3l-6.4-13.8h-4.6v20.6h3.1V389l7.4 15.9h1l7.3-15.9v16.1h3.2v-20.6h-4.6zM364.8 396.3h10.1v-3.1h-10.1v-5.6h10.7v-3.1h-14.1v20.6h14.4V402h-11zM421.1 384.5h3.5v20.7h-3.5zM478.3 384.5l-9.1 20.7h3.6l2-4.7h10.4l2 4.7h3.7l-9-20.7h-3.6zm-2.2 12.9 3.9-9.2 3.9 9.2h-7.8zM406.3 390.7c0-3.6-2.8-6.2-7.4-6.2h-8.6v20.7h3.5v-8h4.3l4.7 8h4l-5.2-8.4c.5-.2 4.7-1.7 4.7-6.1zm-8.6 3.6h-4v-7.1h4.4c2.1 0 4.7.8 4.7 3.5v.2c0 2.7-2.7 3.5-4.7 3.5-.2-.1-.3-.1-.4-.1zM453.2 401.3c-1.1.6-2.4 1-3.7 1-1.3 0-2.6-.3-3.7-1-1.2-.7-2-1.6-2.7-2.7-.7-1.1-1-2.4-1-3.7 0-1.4.4-2.6 1-3.7.7-1.2 1.6-2 2.7-2.7 1.1-.7 2.4-1 3.7-1 1.3 0 2.6.3 3.7 1 .9.5 1.6 1.2 2.2 2l3-1.8c-.9-1.2-2-2.2-3.3-2.9-1.7-.9-3.5-1.4-5.6-1.4s-3.9.5-5.6 1.4-3 2.2-4 3.8c-1 1.6-1.4 3.4-1.4 5.4 0 1.9.5 3.7 1.4 5.3 1 1.6 2.3 2.9 4 3.8 1.7.9 3.5 1.4 5.6 1.4s3.9-.5 5.6-1.4c1.4-.7 2.5-1.7 3.4-2.9l-3-1.8c-.7.7-1.4 1.3-2.3 1.9z"/></svg>