<svg version="1.1" id="Layer_1" xmlns="http://www.w3.org/2000/svg" x="0" y="0" width="792" height="612" style="enable-background:new 0 0 792 612" xml:space="preserve"><style>.st0{fill:#ed1c24}</style><path class="st0" d="M210.8 285.1v66.4h-16.5v-66.4h-26.2v-16.3h71v16.3zM422.7 268.8h-25.9v49.7h-.1c0 3.7-2.2 5.1-5.1 5.1v.1H347l-5.5 15.7h50.9v-.1c13.1 0 20-3.9 21-14.2V285h8.7c17.5 0 24.7 8.4 24.7 25.3 0 15.1-7.9 25.3-25.3 25.3h-7.3l-9.8 16.1h17.1c21.3 0 42.3-12.3 42.3-41.3 0-30.5-17.5-41.6-41.1-41.6M606.8 295c0-17.6-12.9-26.2-28.5-26.2h-38.5v66.5h-51.3v-16H518v-16.1h-29.5V285h39.6v-16.2h-56.2l.1 82.6h72.7c6.6-.1 11.5-2.4 11.6-8.6v-21.3H573c0 .1.1.1.1.2l14.8 29.8h19L591 319.3c10.5-4.1 15.8-11.9 15.8-24.3m-25 11.2h-24.3v-21.1h21.6c7.3 0 11.8 3.1 11.8 10.5 0 6.3-3.1 10.5-9.1 10.6"/><path class="st0" d="M363.4 268.8H352c-4 .1-7.3 2.4-8.9 5.7l-31.6 75-14.8-30.2c10.5-4.1 15.8-11.9 15.8-24.3 0-17.6-12.9-26.2-28.5-26.2h-38.5v82.6H262v-29.9h16.5c0 .1.1.1.1.2l14.8 29.8h34.9l26.1-65.8 14.9 31.7h19l-24.9-48.6zm-77.1 37.1H262v-21.1h21.6c7.3 0 11.8 3.1 11.8 10.5 0 6.4-2.8 10.5-9.1 10.6M611.5 271v5.8h-.4V271h-2.2v-.3h4.7v.3zM620.2 276.8v-5.6l-2.4 5.6h-.4l-2.4-5.6v5.6h-.4v-6.1h.6l2.4 5.6 2.4-5.6h.6v6.1zM615 284.8v-5.6l-2.4 5.6h-.4l-2.4-5.6v5.6h-.4v-6.1h.6l2.4 5.6 2.4-5.6h.6v6.1zM621.4 280.2c-.5-.8-1.2-1.2-2-1.2-1.3 0-2.4.9-2.4 2.7 0 2 1.1 2.8 2.4 2.8.8 0 1.6-.4 2.1-1.3l.4.2c-.4 1-1.3 1.5-2.4 1.5-1.5 0-2.8-.9-2.8-3.2 0-2.1 1.4-3.1 2.8-3.1 1 0 1.8.4 2.3 1.3l-.4.3z"/></svg>