<svg xmlns="http://www.w3.org/2000/svg" width="612" height="792" style="enable-background:new 0 0 612 792" xml:space="preserve"><path d="M169.2 296.9v-2c-10.2-4.9-17.8-14.3-17.8-26.5 0-13.9 9-25.6 21.3-29.6l-7.1-7.2c-11.4 4.4-21.8 15.6-21.8 29.7 0 3.6.6 7.1 1.7 10.3h-1.1c-3.2-5-5-10.9-5-17.3 0-13.3 8-24.8 19.4-29.6l-7.2-7.4c-12.1 6-20.4 18.7-20.5 33.4-.1 25.7 30.6 43.5 38.1 46.2M245.4 283v-30c0-.5-.2-.7-.6-.7h-9.1c-.7 0-1-.3-1-1v-4.5c0-.7.2-1 1-1h28c.7 0 1 .3 1 1v4.5c0 .7-.3 1-1 1h-9c-.4 0-.6.2-.6.7v30c0 .7-.3 1-1 1h-6.7c-.7 0-1-.3-1-1M266.9 265.6c0-12.9 6.8-20.5 20.3-20.5 2.9 0 5.8.6 8.2 1.4 1.3.5 1.5.8 1.5 1.8v4.4c0 .9-.2 1.1-.8 1.1-.9 0-3.9-2.4-8.7-2.4-7 0-11.5 4.6-11.5 13.8 0 8.2 4 13.1 11.5 13.1 5.4 0 7.7-2.5 8.8-2.5.5 0 .7.3.7.9v4.3c0 1.1-.4 1.7-2.1 2.3-1.9.8-5.3 1.3-9 1.3-12.9.1-18.9-7.4-18.9-19M314.5 283v-36c0-.7.3-1 1-1H337c.7 0 1 .3 1 1v4.3c0 .7-.3 1-1 1h-13.2c-.4 0-.6.2-.6.7v7.7c0 .5.2.7.6.7h10.6c.7 0 1 .3 1 .9v4.3c0 .7-.3 1-1 1h-10.6c-.4 0-.6.2-.6.7v8.9c0 .5.2.7.7.7h14.4c.7 0 .9.3.9 1v4.3c0 .6-.2.9-.9.9h-22.7c-.8-.1-1.1-.4-1.1-1.1M344.7 283v-27.2c0-.7.3-1 1-1h6.2c.6 0 .8.3.8.7 0 .3.1.6.6.6 1.4 0 3.9-2.1 8.2-2.1 7.9 0 10 4.2 10 12.2V283c0 .7-.4 1-1 1h-6.2c-.6 0-1-.3-1-1v-16.2c0-4.7-.9-7-5.3-7-2.5 0-5.1.8-5.1 3.3v20c0 .6-.3 1-1 1h-6.2c-.6-.1-1-.4-1-1.1M396.3 266.1c.6 0 .7-.2.7-.7 0-2.9-1.5-6.2-5.8-6.2-4.2 0-6.1 3.4-6.1 6.2 0 .5.1.7.7.7h10.5zm-19.7 3.3c0-10.3 5.8-15.4 14.7-15.4 9.2 0 13.7 5.3 13.7 15.9 0 .9-.2 1.2-1 1.2h-18.1c-.7 0-.9.3-.9 1.1 0 4.9 4.1 6.6 8.9 6.6 4.9 0 7.4-1.8 8.6-1.8.6 0 .8.4.8 1.1v3.3c0 .7-.2 1.1-1.3 1.6-1.8.8-5.1 1.4-8.9 1.4-10.6 0-16.5-4.4-16.5-15zM409.9 283v-27.3c0-.7.3-1 .9-1h6.2c.7 0 .9.2.9.9 0 .5 0 .8.6.8 1.4 0 3.1-2.2 6.9-2.2 2.1 0 2.5.6 2.5 1.5v4.3c0 .6-.2 1-.8 1-.8 0-1.7-.2-3.4-.2-3.7 0-5.5 1.7-5.5 4.7V283c0 .6-.3 1-.9 1h-6.5c-.5 0-.9-.3-.9-1M450.5 274.6v-11.7c0-2.3-2.2-3.4-5-3.4-4.3 0-7.5 2.6-7.5 9.8 0 5.7 2 9.1 7.1 9.1 2.6.1 5.4-.8 5.4-3.8m-17.4 20.7c-1.5-.6-1.8-1.1-1.8-2.3v-3.2c0-.9.3-1.3 1-1.3 1.3 0 4.2 2.3 9.9 2.3 2.5 0 4.7-.5 6.3-1.5 1.5-1 2.1-2.7 2.1-4.8V283c0-.5-.1-.7-.5-.7-.9 0-2.7 1.8-7.5 1.8-8.2 0-12.9-5.5-12.9-14.7 0-10 5.7-15.4 13.4-15.4 4.5 0 5.9 1.9 7.3 1.9.3 0 .5-.1.6-.5 0-.4.2-.6.6-.6h6.1c.6 0 .9.3.9 1v27.1c0 4.6-.5 7.5-2.6 9.8-2.9 3.1-7.8 4.2-12.9 4.2-4.7-.1-8.2-.9-10-1.6zM466.3 295.3v-3.5c0-.9.3-1.2 1-1.2.3 0 .7.1 1.7.1 1.5 0 2.5-.4 3.2-1.8.6-1.3.9-2.1.9-2.7 0-.3-.1-.9-.3-1.5l-9.6-28.2c-.2-.5-.3-.7-.3-1 0-.4.3-.7.9-.7h6.5c.6 0 .9.2 1.1.7l6 20.6c.1.3.2.5.5.5s.3-.2.5-.5l5.8-20.6c.1-.6.6-.7 1.1-.7h5.4c.5 0 .7.3.7.6s-.1.6-.2 1.1l-10.6 32.1c-1.8 5.8-5.3 8.2-10.5 8.2-3.2 0-3.8-.4-3.8-1.5"/><path d="M172.6 217.4v2c10.2 4.9 17.8 14.3 17.8 26.5 0 13.9-9 25.6-21.3 29.6l7.1 7.2c11.4-4.4 21.8-15.6 21.8-29.7 0-3.6-.6-7.1-1.7-10.3h1.1c3.2 5 5 10.9 5 17.3 0 13.3-8 24.8-19.4 29.6l7.2 7.4c12.1-6 20.4-18.7 20.5-33.4.1-25.7-30.5-43.5-38.1-46.2z"/></svg>