<svg version="1.1" id="Layer_1" xmlns="http://www.w3.org/2000/svg" x="0" y="0" width="330" height="442" style="enable-background:new 0 0 330 442" xml:space="preserve"><style>.st1{fill:#fff}.st2{fill:#e65525}</style><path style="fill:#5b2d82" d="M51.2 63.5h225.6v322.9H51.2z"/><path class="st1" d="M95.7 311.3H64.2l-.9 9.2h11.8l-4.7 48.4h7.7l4.8-48.4h11.9zM107.8 310.8l-18.6 58.1h8.1l4.6-15.4h11.6l1.9 15.4h7.6l-7.5-58.1h-7.7zm4.8 34.9h-8.4l6.1-21.3 2.3 21.3zM149.1 311.3l-9.2 20.4-5.8-20.4h-7.9l9.1 31-2.7 26.6h7.7l2.6-26.5 14.7-31.1zM168 311.3h-7.7l-5.7 57.6h24.6l.9-8.7H163zM214.1 313.8c-2.6-2.1-5.6-3.2-8.9-3.2-3 0-5.9.9-8.5 2.6-2.6 1.7-5 4.2-6.9 7.4-1.9 3.2-3.5 6.8-4.5 10.9-1.1 4.1-1.6 8.3-1.6 12.7 0 4.8.7 9.1 2.2 13 1.4 3.9 3.5 7 6.1 9.1 2.7 2.2 5.7 3.3 9 3.3 3.9 0 7.6-1.5 10.9-4.4 3.2-2.9 5.8-7 7.6-12.2 1.8-5.1 2.7-11 2.7-17.3 0-4.8-.7-9.1-2.1-12.9-1.4-3.8-3.4-6.8-6-9zM201 360.2c-1.9 0-3.5-.6-4.9-1.9-1.4-1.3-2.6-3.1-3.4-5.5-.8-2.4-1.2-5.2-1.2-8.4 0-4.3.7-8.4 1.9-12.4 1.3-3.9 3-6.9 5-9 2-2 4.2-3.1 6.5-3.1 1.8 0 3.5.6 4.9 1.9 1.4 1.3 2.5 3.1 3.3 5.4.8 2.3 1.2 5.1 1.2 8.1 0 4.5-.6 8.7-1.8 12.6-1.2 3.9-2.9 6.9-4.9 9.1-2.1 2.2-4.3 3.2-6.6 3.2zM249.7 348.5c-.5-1.5-1-2.8-1.6-3.9-.5-1-1.1-1.8-1.8-2.4 2.5-1 4.6-2.7 6.1-5.3 1.6-2.7 2.4-5.9 2.4-9.4 0-2.1-.2-4.1-.7-6-.5-1.9-1.3-3.7-2.4-5.2-1.1-1.5-2.6-2.7-4.3-3.6-1.8-.9-4-1.4-6.5-1.4h-10.5l-5.7 57.6h7.8l2.3-24.1h1.5c.9 0 1.7.1 2.2.3.5.2 1 .6 1.5 1.2s1 1.5 1.5 2.7c.5 1.2 1.4 3.5 2.6 7l4.3 12.9h8.3l-7-20.4zm-12.4-28.2h3.1c2.1 0 3.7.6 4.8 1.8 1.1 1.2 1.6 3 1.6 5.4 0 1.8-.3 3.3-1 4.6-.6 1.3-1.6 2.3-2.8 3-1.2.7-2.7 1.1-4.5 1.1h-2.8l1.6-15.9z"/><path class="st2" d="M61.9 77.1h204.3v213H61.9z"/><path class="st1" d="M67 83.2h194V284H67z"/><path class="st2" d="M125.6 152.7h13l3-10.4h-13.3l6.8-25.7h-25.7s-2.9 10.6-7.1 25.7h-13l-3 10.4h13.1c-9.5 34.6-22.9 83.3-25.9 94-4.7 17.2 8 24.3 14.2 24.3h19.2l4.1-12.1h-8c-5.3 0-3.5-7.4-3.5-7.4l26.1-98.8zM195.2 142.4H164c-8.5 0-11.4 13-11.4 13s-23.4 87.5-25.4 94.6c-2.1 7.1-5.8 9.2-13.3 9.2L110 271h26.3c5.3 0 10.9-.6 14.2-12.7 3.3-12.1 24.5-90.8 26-97.3s4.7-7.1 8.6-7.1h6.5l3.6-11.5zM228 99.5c-5.6 0-8.9 6.5-10.1 10.6-.4 1.3-3.8 14.4-8.4 32.3h-10.8l-3.6 11.5h11.4c-10.6 41.1-25 96.6-25.9 100-1.5 5.3-4.4 5.6-7.1 5.6h-7.7L162 271h28.1c5.9 0 13.6-4.7 16.9-17.7 2.1-8.6 16.1-62.3 25.6-99.4h14.1l2.6-11.5h-13.7c3.4-13.3 5.8-22.7 6.1-24.2 1.2-5.6 5.4-9.3 10.7-9.3h9.3v-9.5c0 .1-28.1.1-33.7.1z"/></svg>