<svg version="1.1" id="Layer_1" xmlns="http://www.w3.org/2000/svg" x="0" y="0" width="612" height="792" style="enable-background:new 0 0 612 792" xml:space="preserve"><style>.st1{fill:#fff}</style><path style="fill:#2b3990" d="M241 368.3h130.3v53.3H241z"/><path class="st1" d="M255 382s-.6-.5-.6-1c0-1.1.6-1.1.9-1.1.6 0 1.4 1 1.4 1-.1-.2-.3-.6-.3-.7 0 0 0-.1-.1-.2-.1-.2-.2-.6 0-1 .1-.4.4-.6.7-.9l.4-.4.4.4c.2.3.6.5.7.9.2.5.1.8 0 1 0 .1-.1.1-.1.2s-.2.5-.3.7c0 0 .8-1 1.4-1 .3 0 .9-.1.9 1.1 0 .5-.6 1-.6 1s-.1-.4-.7-.4c-.4 0-.7.4-.7.9 0 .4.1.7.2.8 0 0-.4.3-.6.4-.1.1-.7.8-.7.8s-.6-.7-.7-.8c-.1-.1-.6-.4-.6-.4.1 0 .2-.4.2-.8 0-.5-.3-.9-.7-.9-.5 0-.5.4-.5.4zM262.9 411.1c-.6 0-2-.5-2.1-2.7-.1-1.6.4-2 .4-2l.9 1.6c0 2.3 1.6 2.3 1.6 2.3 0 .9-.8.8-.8.8zM267.2 408.4c-.1 2.2-1.5 2.7-2.1 2.7 0 0-.8 0-.8-.9 0 0 1.6 0 1.6-2.3l.9-1.6c0 .1.5.5.4 2.1z"/><path class="st1" d="M265.1 406c-.1.5-.3 1.2-.3 2.2 0 .9-.5 1.1-.7 1.2v2.3h-.4v-2.3c-.2-.1-.7-.3-.7-1.2 0-1-.1-1.8-.3-2.2-.1-.5-1-1-1-1 .9-.9 1.6.3 1.6.2-.1-.3.1-.8.2-1.1.1-.3.4-.6.4-.6s.3.3.4.6c.1.3.3.8.2 1.1 0 .2.7-1.1 1.6-.2 0 0-.8.5-1 1zM268.4 381.7l.6-.3-1.4-.8.2-.1-.5-1h1.1v-.2l1.4.8v-1.6l.1.1.6-.9.6.9.1-.1v1.6l1.4-.8v.2h1.1l-.5 1 .2.1-1.4.8.6.3-.2.1.5 1h-1.1v.2l-1-.6v2.1h-.6v-2.1l-1 .6v-.2h-1.1l.5-1z"/><path class="st1" d="M264 416.6c-23.1-9-15.9-39.7-15.9-39.7 4.2-2.2 13.6-3 15.9-3 2.3 0 11.7.8 15.9 3 0 0 7.2 30.7-15.9 39.7zm-14.5-17.1c1 3.3 2.6 6.6 5.1 9.5l-1.9-10.5c-1.4.4-2.5.8-3.2 1zm2.5-5c.6-.1 1.2-.3 1.7-.4h.1c.2-.1.5-.1.7-.2h.2c.3-.1.6-.1.9-.2 1.1-.2 2.1-.4 3.1-.5v-.1l.2-1.3c-1.2.1-2.4.3-3.7.6-1.3.2-2.5.5-3.8.9-1.2.3-2.3.7-3.4 1 0 .3.1.8.2 1.3 1.4-.5 2.6-.8 3.8-1.1zm4.4 3.1.7 4.5.9-4.8c-.4.1-1 .2-1.6.3zm-.6-3.5c-.3.1-.6.1-1 .2h-.1c-.3.1-.6.1-.9.2h-.1c-.6.1-1.2.3-1.8.4-1.1.3-2.2.6-3.4 1 0 .2.1.5.1.8v.2c0 .2.1.3.1.5 1-.4 2.2-.7 3.3-1.1.3-.1.6-.2.9-.2.3-.1.6-.2.9-.2h.1c.3-.1.6-.1.9-.2h.1c.3-.1.7-.1 1-.2.8-.2 1.7-.3 2.5-.4l.3-1.4c-.9 0-1.9.2-2.9.4zm-.6 2h-.1c-.9.2-1.8.4-2.7.7-1.1.3-2.3.7-3.3 1.1l.3 1.2c1.9-.7 5-1.7 8.8-2.2l.3-1.4c-.8.1-1.6.3-2.4.4-.3.1-.6.1-.9.2zm-3.6-3.4-2.7-14.8s-1.7 7.4-.6 15.8c1.1-.4 2.2-.7 3.3-1zm13.3-1.8-.9-4.5-.9 4.5h1.8zm.4 1.9c0-.2-.2-1.2-.3-1.4h-2c0 .2-.2 1.2-.3 1.4h2.6zm-3 1.8h3.3l-.3-1.4h-2.8l-.2 1.4zm1.7.5h-1.7l-.3 1.4c.7 0 1.4-.1 2-.1.6 0 1.3 0 2 .1l-.3-1.4H264zm11.9-.2c-.6-.2-1.2-.3-1.8-.4h-.1c-.3-.1-.5-.1-.8-.2h-.2c-.3-.1-.6-.1-.9-.2-1-.2-2-.4-3-.5l.3 1.4c.8.1 1.6.3 2.4.4 1.2.3 2.5.6 3.8.9 1.1.3 2.2.7 3.3 1h.1l.3-1.5h-.1c-1-.2-2.1-.5-3.3-.9zm-.3 1.9c-.3-.1-.6-.2-.9-.2-.3-.1-.6-.2-.9-.2-.6-.2-1.3-.3-2-.4-.8-.2-1.6-.3-2.3-.4l.3 1.4c.5.1 1.1.2 1.8.3.1 0 .2 0 .3.1h.4c.3.1.6.1.9.2.1 0 .2 0 .3.1.4.1.7.2.9.2h.1c.2.1.4.1.7.2h.2c1.1.3 2.1.6 3.1 1h.1l.3-1.2h-.1c-1-.4-2.1-.8-3.2-1.1zm-5.7.6.9 4.8.7-4.5c-.5-.2-1.1-.3-1.6-.3zm5.4 1.1-1.9 10.5c2.5-2.8 4.1-6.1 5.1-9.4-1.1-.4-2.1-.8-3.2-1.1zm3.7-20.6-2.7 14.8c1.1.3 2.3.6 3.3 1 1.2-8.4-.6-15.8-.6-15.8zm-19.7 13.3 3.1-16c-2.3.2-6.2.6-9.5 1.4l2.6 15.2c1.2-.3 2.5-.5 3.8-.6zm6.8 5.8c-.7 0-1.4-.1-2.1-.1-.7 0-1.3 0-2.1.1l-3.2 15.7c1.5 1.1 3.3 2 5.3 2.8 2-.8 3.7-1.7 5.3-2.8l-3.2-15.7zm-.5-21.8 3.1 16c1.2.1 2.5.3 3.8.6l2.6-15.2c-3.2-.8-7.1-1.2-9.5-1.4zm10.6 17.9c-.3-.1-.5-.1-.8-.2h-.1c-.9-.2-1.9-.5-2.9-.6-1.2-.2-2.5-.4-3.7-.6 0 .2.2 1.2.2 1.4 1 .1 2.1.3 3.1.5.3.1.6.1.9.2h.2c.3.1.6.1.9.2.3.1.5.1.9.2l.2.1c.2.1.4.1.6.2h.1c1.1.3 2.3.6 3.3 1 .1-.4.1-.9.2-1.3-.8-.4-1.9-.8-3.1-1.1z"/><path class="st1" d="M282.4 387.2c0-1.8-.1-3.6-.3-5.3-.3-3.1-.8-5-.8-5.3l-.1-.4-.1-.2-.2-.1-.4-.2c-1.1-.6-2.5-1.1-4.2-1.5-1.4-.4-3.1-.7-4.9-1-3.3-.5-6.3-.7-7.4-.7-1.1 0-4.1.2-7.4.7-1.8.3-3.5.6-4.9 1-1.7.4-3.2.9-4.2 1.5l-.4.2-.2.1-.1.2-.1.4c-.1.2-.5 2.2-.8 5.3-.2 1.8-.3 3.6-.3 5.3 0 2.2.1 4.3.4 6.4.7 5.3 2.2 10 4.6 13.8 3 4.9 7.4 8.4 12.9 10.6l.4.1.2.1.2-.1.4-.1c5.6-2.2 9.9-5.7 12.9-10.6 2.4-3.8 3.9-8.5 4.6-13.8.1-2.1.2-4.2.2-6.4zm-.8 6.3c-.6 5.2-2.2 9.8-4.5 13.6-3 4.8-7.2 8.3-12.7 10.4l-.4.1-.4-.1c-5.5-2.1-9.7-5.6-12.7-10.4-2.4-3.8-3.9-8.4-4.5-13.6-1.1-8.9.7-16.5.7-16.8l.1-.4.4-.2c4.4-2.3 14.1-3.1 16.3-3.1 2.2 0 11.9.8 16.3 3.1l.4.2.1.4c.2.3 1.9 8 .9 16.8z"/><g><path class="st1" d="M298.7 390.5c0 1.8-1.1 3-2.9 3-1.8 0-2.9-1.2-2.9-3v-8.6h-1.7v8.7c0 2.6 1.9 4.5 4.6 4.5 2.7 0 4.6-1.9 4.6-4.5v-8.7h-1.7v8.6zM304.5 389.4c0-1.4.7-2.2 2-2.2s2 .8 2 2.2v5.6h1.6v-5.8c0-1.1-.3-1.9-1-2.6-.6-.6-1.4-.9-2.4-.9-.9 0-1.7.3-2.3.8v-.7h-1.6v9.1h1.6v-5.5zM312.5 381.9h1.8v1.8h-1.8zM312.6 385.9h1.6v9.1h-1.6zM320.3 394.9l3.4-9h-1.8l-2.2 6.6-2.3-6.6h-1.8l3.4 9zM328.1 385.8c-2.4 0-3.8 1.7-3.8 4.7s1.4 4.7 4 4.7c1.6 0 2.5-.5 3.3-1.4l.1-.1-1.1-1-.1.1c-.7.7-1.3.9-2.2.9-1.5 0-2.4-1-2.4-2.7h5.9v-.8c.1-2.8-1.4-4.4-3.7-4.4zm-2.1 3.8c0-.6.1-.8.2-1.2.3-.8 1-1.2 1.9-1.2.9 0 1.6.5 1.9 1.2.2.4.2.7.2 1.2H326zM337.9 385.8c-.9 0-1.7.3-2.3.9v-.8H334v9.1h1.6v-5.5c0-1.3.8-2.2 1.9-2.2.6 0 .9.1 1.4.6l.1.1 1.2-1.2-.1-.1c-.6-.7-1.3-.9-2.2-.9zM347.9 392.2c0-2-1.6-2.4-2.7-2.5l-1.4-.1c-1.2-.1-1.4-.6-1.4-1.1 0-.8.6-1.3 1.8-1.3.9 0 1.7.2 2.2.7l.1.1 1.1-1.1-.1-.1c-.8-.6-1.9-1-3.3-1-2 0-3.4 1.1-3.4 2.7 0 1.5.9 2.4 2.8 2.5l1.4.1c1.2.1 1.3.7 1.3 1.1 0 1.2-1.4 1.4-2.2 1.4-1.1 0-2-.3-2.6-1l-.1-.1-1.1 1.1.1.1c.9.9 2.1 1.3 3.7 1.3 2.3.1 3.8-1.1 3.8-2.8zM349.6 381.9h1.8v1.8h-1.8zM349.6 385.9h1.6v9.1h-1.6zM354.1 392.4c0 1.5.9 2.5 2.4 2.5h1.1v-1.4h-.8c-.7 0-1-.4-1-1.1v-5.2h1.9v-1.3h-1.9v-2.7h-1.6v2.7H353v1.3h1.1v5.2zM362.7 397l4.1-11.1H365l-2.3 6.7-2.3-6.7h-1.7l3.2 8.7-.6 1.7c-.3.7-.5 1-1.3 1h-.6v1.5h.7c.7 0 1.4-.2 1.8-.6.4-.4.6-.7.8-1.2zM293.6 405.1c-.7 0-1.3.2-1.8.7-.7.7-.8 1.6-.8 2.4 0 .8.1 1.8.8 2.4.5.5 1.1.7 1.8.7s1.3-.2 1.8-.7c.7-.7.8-1.6.8-2.4 0-.8-.1-1.8-.8-2.4-.5-.5-1.1-.7-1.8-.7zm1 4.8c-.2.2-.6.4-1 .4s-.7-.1-.9-.4c-.4-.4-.4-1-.4-1.7s.1-1.3.4-1.7c.2-.2.6-.4.9-.4.4 0 .7.1 1 .4.4.4.4 1.1.4 1.7 0 .7-.1 1.4-.4 1.7zM297.7 404.3v.9h-.7v1h.7v5.2h1.2v-5.2h1.2v-1h-1.2v-.9c0-.5.2-.7.6-.7h.6v-1.1h-.8c-1 0-1.6.7-1.6 1.8zM313.5 408.1l-2.7-9.8h-1.5l-2.6 9.8-2.4-9.8h-1.8l3.4 13h1.5l2.7-9.7 2.7 9.7h1.5l3.3-13h-1.8zM318.9 402.3h1.6v9.1h-1.6zM318.9 398.3h1.8v1.8h-1.8zM327.2 402.1c-.9 0-1.7.3-2.3.8v-.7h-1.6v9.1h1.6v-5.6c0-1.4.7-2.2 2-2.2s2 .8 2 2.2v5.6h1.6v-5.8c0-1.1-.3-1.9-1-2.6-.6-.5-1.4-.8-2.3-.8zM338.3 403c-.7-.7-1.5-.9-2.3-.9-.9 0-1.7.3-2.3.8-1 1-1.1 2.7-1.1 3.8 0 1.2.1 2.8 1.1 3.8.5.5 1.4.8 2.3.8.7 0 1.6-.1 2.3-.9v.8h1.6v-13h-1.6v4.8zm-2 7c-1.8 0-2-1.6-2-3.2s.2-3.2 2-3.2 2 1.5 2 3.2c0 1.6-.2 3.2-2 3.2zM346.5 406.1l-1.4-.1c-1.2-.1-1.4-.6-1.4-1.1 0-.8.6-1.3 1.8-1.3.9 0 1.7.2 2.2.7l.1.1 1.1-1.1-.1-.1c-.8-.6-1.9-1-3.3-1-2 0-3.4 1.1-3.4 2.7 0 1.5.9 2.4 2.8 2.5l1.4.1c1.2.1 1.3.7 1.3 1.1 0 1.2-1.4 1.4-2.2 1.4-1.1 0-2-.3-2.6-1l-.1-.1-1.1 1.1.1.1c.9.9 2.1 1.3 3.7 1.3 2.3 0 3.7-1.1 3.7-2.8.2-2-1.4-2.4-2.6-2.5zM354.5 402.1c-1 0-1.9.4-2.6 1-1 1-1.1 2.4-1.1 3.6 0 1.2.1 2.6 1.1 3.6.7.7 1.6 1 2.6 1s1.9-.4 2.6-1c1-1 1.1-2.4 1.1-3.6 0-1.2-.1-2.6-1.1-3.6-.6-.6-1.5-1-2.6-1zm1.5 7.3c-.4.4-.9.6-1.5.6s-1.1-.2-1.5-.6c-.6-.6-.7-1.6-.7-2.6s.1-2 .7-2.6c.4-.4.9-.6 1.5-.6s1.1.2 1.5.6c.6.6.6 1.6.6 2.6.1.9 0 2-.6 2.6zM366.6 403c-.6-.6-1.3-.9-2.2-.9-.9 0-1.7.3-2.3.9v-.8h-1.6v9.1h1.6v-5.5c0-1.3.8-2.2 1.9-2.2.6 0 .9.1 1.4.6l.1.1 1.2-1.2-.1-.1z"/></g></svg>