<svg version="1.1" id="Layer_1" xmlns="http://www.w3.org/2000/svg" x="0" y="0" width="330.8" height="53.3" style="enable-background:new 0 0 330.8 53.3" xml:space="preserve"><style>.st0{fill:#101010}</style><path class="st0" d="M70.6 2.7c10-.7 9.9-.7 15 7.1l12 18.3c.7 1.1 1.5 2 3 4V2.8h9.3v46.7c-1.8 0-3.7-.2-5.6 0-2.6.3-4.2-.6-5.6-2.9-5-7.8-10.4-15.4-15.6-23.1-.7-1-1.5-2-2.9-3.8v29.6h-9.4c-.2-15.4-.2-30.8-.2-46.6z"/><path d="M240.6 49c-7.9 2.5-12.6-.2-15-7.3-.7-2-2-3.8-3-5.7-2.3-4.3-2.4-4.2-8.2-3.5v16.9h-9.9V2.5c8.9.3 17.8-1 26.5 1.2 5 1.3 8.5 4.7 9.1 10.1.6 5.8.4 11.4-5.4 14.9-1.1.7-2.3 1.3-3.8 2.2 3.2 6.1 6.4 12.1 9.7 18.1zm-26.1-38.1v12.6c3.6 0 6.9.2 10.1 0 3.5-.2 5.4-2.4 5.5-5.8.1-3.7-1.2-5.7-4.8-6.2-3.5-.5-6.9-.4-10.8-.6z" style="fill:#121313"/><path d="M247 2.7h10.2v26.6c0 1.8.1 3.7.5 5.4 1.2 5.4 3.9 7.4 9.1 7 4.8-.3 7.4-2.7 7.6-8.1.3-8.2.1-16.3.1-24.5V2.5h10.2c.1 1.2.3 2.5.3 3.8 0 8 .1 16 0 24 0 2.6-.3 5.3-.9 7.9-1.3 5.2-4.4 8.9-9.5 10.7-5.7 2-11.4 2-17.1 0-6.8-2.4-10-7.7-10.2-14.5-.5-10.4-.3-20.9-.3-31.7z" style="fill:#151616"/><path d="M321.2 16.6c-3.4-4.3-7.3-6.8-12.6-6.5-3.3.1-5.3 1.4-5.7 3.7-.5 2.6.5 4.2 3.7 5.6 2 .8 4.1 1.3 6.1 2.1 3.3 1.2 6.7 2.1 9.7 3.8 8.5 4.5 9.1 15.8 1.3 21.4-9 6.6-27.3 5.1-33-7.8 2.2-1.4 4.6-2.8 7.2-4.5 1 1.2 2 2.4 3.1 3.5 3.8 3.8 8.3 5.2 13.6 3.7 2.3-.6 4-1.7 4.3-4.2.4-2.8-1.2-4.4-3.5-5.4-2.4-1-5-1.7-7.5-2.6-2.7-.9-5.4-1.7-8-2.8-5-2-7.6-5.9-7.5-11.2.1-5.6 2.8-9.7 8-12.1 8.9-4.2 22.5-1.2 27.5 7.8-2 1.8-4.2 3.5-6.7 5.5z" style="fill:#111212"/><path d="M197 41.2v7.9h-32.6V2.8h31.3v8.5h-21.2v9.8h20.6v8.1h-20.5v11.9c7.4.1 14.7.1 22.4.1z" style="fill:#050505"/><path class="st0" d="M116 2.7h10.5c3.4 10.8 6.9 21.7 10.7 33.6 3.9-11.9 7.5-22.7 11.1-33.6h9.7c-3.8 11.3-7.6 22.3-11.4 33.4-1.2 3.4-2.6 6.8-3.5 10.3-.7 2.6-2 3.3-4.5 3.3-6.6 0-6.6.1-8.6-6-4.6-13.6-9.2-27.2-14-41z"/><path d="M30 21.3V2.8h31.7v8.6H40.2v9.9H30z" style="fill:#121312"/><path d="M30 21.3h30.8v8.6H40.5c-3.5 0-7-.1-10.5-.1H20v-8.5h10z" style="fill:#58b948"/><path d="M39.7 41.7h23v7.6H40.3c-.2-2.5-.3-5.1-.5-7.7l-.1.1z" style="fill:#070707"/><path d="M30 41.4v7.8H14.4v-7.7c5.2-.2 10.5 0 15.6-.1z" style="fill:#aad370"/><path d="M30 29.8c3.5 0 7 .1 10.5.1-.3 3.9-.5 7.9-.8 11.8l.1-.1c-3.3-.1-6.6-.1-9.8-.2l.1.1c0-4-.1-7.8-.1-11.7z" style="fill:#0e120e"/><path d="M2.3 21.6h9.5v7.6H2.3v-7.6z" style="fill:#a9d26d"/><path d="M214.5 10.9c3.9.2 7.4.1 10.8.6 3.6.5 5 2.5 4.8 6.2-.1 3.3-2 5.5-5.5 5.8-3.3.2-6.6 0-10.1 0V10.9z" style="fill:#f6f5f4"/></svg>