<svg version="1.1" id="Layer_1" xmlns="http://www.w3.org/2000/svg" x="0" y="0" width="612" height="792" style="enable-background:new 0 0 612 792" xml:space="preserve"><style>.st0{fill-rule:evenodd;clip-rule:evenodd;fill:#e31937}.st1{stroke:#000;stroke-width:.4631}</style><path class="st0" d="M213.3 343.4h94.9c-3.2 7.6-6.9 14.8-10.2 22.2h-27.2c-8.3 13.9-14.5 29.9-23.3 43.4-1.9-9.3-4.9-17.5-6.7-26.8-8 5.7-17.6 13.2-26.1 20.1-1 .8-1.8 2.6-3.2 2.1 6.4-12.7 12.6-25.5 18.7-38.4-8.6-.8-18.4-.6-27.6-.8 3.8-7.2 6.7-14.7 10.7-21.8z"/><path class="st0" d="M222.4 370.2c-8.1 17.8-16.8 34.9-25.4 52.2 13.6-8.9 27.6-22.3 40.9-31.4 2.7 10.8 5.7 21.3 8.1 32.5 9.7-17 18.4-35 27.2-52.9h22.2c-10 23-21.2 44.9-31.4 67.7-30.9.8-65.2.1-95.6.4 4.2-11.5 10-22.8 15.5-34.2 5.5-11.4 10.5-23.1 16.6-33.9 6.7-.8 14.7-.2 21.9-.4z"/><path class="st1" d="M312.9 343.4h16.2l-1.8 3.8h-5.7l-10.4 22.2h-4.9l10.4-22.2H311l1.9-3.8zM343.7 343.4h4.9l-8.5 18.1c-2.7 5.8-5.8 8.5-12.2 8.5-6.4 0-7-2.7-4.3-8.5l8.5-18.1h4.9l-8.3 17.7c-1.2 2.5-2.2 5 1.1 5 3.2 0 4.5-2.5 5.7-5l8.2-17.7zM341.1 369.4l12.1-26h4.9l-10.4 22.2h9l-1.8 3.8h-13.8zM375.9 351.3c1.1-2.3 2-4.6-.7-4.6-1.6 0-3 .7-3.8 2.4-.9 2 0 2.7 1 3.7 1.1 1 3.2 3 3.9 4.3.9 1.6.7 3.2-.4 5.4-2.3 4.9-6.8 7.5-11.5 7.5-5.8 0-6.4-3.3-4.2-7.9l.9-1.9h4.9l-.7 1.5c-1.3 2.5-1.4 4.4 1 4.4 2 0 3.5-1.1 4.4-3.1.7-1.5.5-2.6-.3-3.4-1.6-2-4.1-3.4-4.9-6-.2-1.2 0-2.6.6-4 2.1-4.4 5.7-6.9 10.8-6.9 7.7 0 4.7 6 3.6 8.5h-4.6zM375.7 369.4l18.3-26h6.6l-6.2 26h-5.2l1.8-6.6h-5.7l-4.4 6.6h-5.2zm12.1-10.4h4.2l2.1-7.4c.3-1.2.8-2.4 1.2-3.6.2-.6.4-1.2.6-1.7h-.1c-.3.6-.7 1.1-1 1.7-.7 1.2-1.4 2.4-2.2 3.6l-4.8 7.4zM307.4 390.8c-.7 2.6-2 5.9-3.2 9.3h.1c.4-.6.7-1.3 1-1.9 1.2-2.2 2.5-4.4 3.8-6.7l8.6-14.2h5l-17 26h-5.8l2.8-10.3c.8-2.7 1.9-5.5 2.8-8.3h-.1c-1.6 2.8-3.1 5.6-4.9 8.3l-6.5 10.3h-5.8l7.2-26h5l-4.4 14.2c-.7 2.2-1.5 4.4-2.4 6.7-.2.6-.5 1.2-.7 1.9h.1c1.9-3.3 3.7-6.7 5.4-9.3l8.6-13.5h4l-3.6 13.5zM313.6 403.4l12.1-26h13.7l-1.8 3.8h-8.8l-3.1 6.6h8.1l-1.8 3.8h-8l-3.7 8h8.8l-1.8 3.8h-13.7zM331.1 403.4l12.1-26h4.9l-10.4 22.2h9l-1.8 3.8h-13.8zM348.6 403.4l12.1-26h10.1c1.2 0 3.3.5 3.7 2.9.3 1.8-.8 4.7-2.8 9-2.4 5.1-5.2 11.1-10.2 13.4-1.4.6-2.7.7-3.9.7h-9zm8.7-3.8c4.3 0 5.7-2.3 9.2-9.8 2.9-6.1 3.4-8.6.5-8.6h-3.2l-8.6 18.4h2.1zM369.7 403.4l12.1-26h4.9l-12.1 26h-4.9zM403.1 377.4h4.9l-12.1 26h-5.1l.5-9.3c.2-3.1.6-6.2 1.3-10.3h-.1c-.8 2.2-1.9 4.8-2.9 7.4-1.1 2.6-2.2 5.2-3.2 7.3l-2.3 4.9h-4.9l12.1-26h5l-.6 9.5c-.2 3-.6 6.1-1.4 10.3h.1c.9-2.4 1.9-4.9 3-7.4 1-2.5 2.1-5 3.2-7.3l2.5-5.1zM407.1 388.3c3.3-6.6 6.1-11.6 13.9-11.6 4.1 0 6.5 1.1 5.5 5.6-.2 1-.8 2.1-1.2 3.2h-4.9c1.2-2.6 2-4.7-1.3-4.9-3.8 0-5.6 4.5-6.6 6.6l-3.4 7.2c-1 2.2-2.5 5.7.9 5.7 2.8 0 5.1-3 6.8-6.9h-3.4l1.8-3.8h8.1l-6.5 14h-3.6l1.4-3h-.1c-2.2 2.7-4.4 3.5-6.3 3.6-8 0-6.1-5.1-2.9-12l1.8-3.7z"/><g><path class="st1" d="M287 419.2c1.1-2.3 2-4.6-.7-4.6-1.6 0-3 .7-3.8 2.4-.9 2 0 2.7 1 3.7 1.1 1 3.2 3 3.9 4.3.9 1.6.7 3.2-.4 5.4-2.3 4.9-6.8 7.5-11.5 7.5-5.8 0-6.4-3.3-4.2-7.9l.9-1.9h4.9l-.7 1.5c-1.3 2.5-1.4 4.4 1 4.4 2 0 3.5-1.1 4.4-3.1.7-1.5.5-2.6-.3-3.4-1.6-2-4.1-3.4-4.9-6-.2-1.2 0-2.6.6-4 2.1-4.4 5.7-6.9 10.8-6.9 7.7 0 4.7 6 3.6 8.5H287zM307.6 428.1c-.3.5-.5 1-.8 1.5-2.5 4.8-5.8 8.4-11.2 8.4-8 0-6.1-5.1-2.9-12l1.7-3.7c3.3-6.6 6.1-11.6 13.9-11.6 4.3.1 5.7 2.3 4 6.7-.2.7-.5 1.3-.8 2h-4.8c.6-1.7 2.2-4.8-.2-4.8-3.8 0-5.6 4.5-6.6 6.6l-3.4 7.2c-1 2.2-2.5 5.7.9 5.7 2.7 0 4.4-4.3 5.2-6h5zM307.2 437.3l12.1-26h4.9l-4.8 10.3h6.8l4.8-10.3h4.9l-12.1 26h-4.9l5.5-11.9h-6.8l-5.6 11.9h-4.8zM335.2 422.2c3.3-6.6 6.1-11.6 13.9-11.6 7.8 0 6 4.9 3.1 11.6l-1.7 3.7c-3.2 6.9-6.1 12-14.1 12s-6.1-5.1-2.9-12l1.7-3.7zm2.1 6.2c-1 2.2-2.5 5.7.9 5.7 3.5 0 5.2-3.6 6.3-6.1l3.1-6.7c1-2.1 3.2-6.7-.4-6.7-3.8 0-5.6 4.5-6.6 6.6l-3.3 7.2zM356.4 422.2c3.3-6.6 6.1-11.6 13.9-11.6 7.8 0 6 4.9 3.1 11.6l-1.7 3.7c-3.2 6.9-6.1 12-14.1 12s-6.1-5.1-2.9-12l1.7-3.7zm2.1 6.2c-1 2.2-2.5 5.7.9 5.7 3.5 0 5.2-3.6 6.3-6.1l3.1-6.7c1-2.1 3.2-6.7-.4-6.7-3.8 0-5.6 4.5-6.6 6.6l-3.3 7.2zM370.8 437.3l12.1-26h4.9l-10.4 22.2h9l-1.8 3.8h-13.8z"/></g><g><path d="M406.5 416.6c0 3.3-2.7 5.9-6 5.9-3.4 0-6.1-2.6-6.1-5.9 0-3.3 2.7-5.9 6.1-5.9 3.3 0 6 2.6 6 5.9zm-10.6 0c0 2.6 2 4.7 4.6 4.7 2.6 0 4.5-2.1 4.5-4.7s-1.9-4.7-4.6-4.7c-2.5 0-4.5 2.1-4.5 4.7zm3.6 3h-1.4v-5.9c.5-.1 1.3-.2 2.3-.2 1.1 0 1.6.2 2 .5.4.3.6.7.6 1.3 0 .7-.5 1.2-1.2 1.4v.1c.6.2.9.6 1 1.4.2.9.3 1.2.4 1.4h-1.4c-.2-.2-.3-.7-.5-1.4-.1-.6-.5-.9-1.2-.9h-.6v2.3zm0-3.3h.6c.8 0 1.4-.3 1.4-.9 0-.5-.4-.9-1.3-.9-.4 0-.6 0-.8.1v1.7z"/></g></svg>