<svg version="1.1" id="Layer_1" xmlns="http://www.w3.org/2000/svg" x="0" y="0" width="612" height="792" style="enable-background:new 0 0 612 792" xml:space="preserve"><style>.st0,.st1{fill-rule:evenodd;clip-rule:evenodd;fill:#0054a4}.st1{fill:#fff}.st3{fill:#0054a4}</style><path class="st0" d="m262 80.4 3.9-.2.2-.1.1-.2v-.1l.1-.2.1-.2.1-.2V79l.1-.2V78.5l.1-.2v-.2l13.4-.2h7.5l.1-.1h.1v-.1h.1v-.2h-.1l-.2-.1-40.6-.3V76.8l.1-.1V76.4l.1-.2V75.9l.1-.1v-.2l.1-.1v-.2l19.9.1.1-.1.1-.2V75l.1-.2v-.2l.1-.2v-.1l.1-.2.1-.2v-.1l.2-.2v-.2l20.8-.1h.1v-.1h.1v-.4l.1-.1v-.1l-.4-.1-40.4-.2-.1-.1V71.9l.1-.1v-.2l.1-.1V71.2l.1-.1V71h19.8l.2-.1.1-.2.1-.3v-.2l.1-.3v-.2l.1-.2.1-.2.1-.2.2-.1.2-.1h.3l20.3.1.1-.1V68.6h.1V68.3l-.3-.1-40.8-.2v-.4l.2-.5.2-.2.2-.1.4-.1h.7l.5.1h1.3l.3-.1h16.5l.1-.2.1-.2.1-.2v-.2l.1-.2.1-.2v-.2l.1-.2v-.2l.1-.2v-.2l.1-.2 15.1-.1h6.1v-.1l.1-.1v-.5l-.1-.1-41-.4.4-1.3 12.7.1h7.2l.2-.2.1-.1v-.2l.1-.2.1-.1v-.5l.1-.1v-.2l.1-.2v-.4l7.5-.1 13.7.1h.1v-.1h.1V59l-.2-.1-40.9-.3v-.1l.1-.2V58l.1-.2v-.2l.1-.1v-.1l.1-.1v-.1h19.9l.8-2.3 15.4-.1h5.9v-.2h.1V54.3h.1v-.4l-.2-.2-29.9.1-11.3.1.4-1.6 20.1-.1.1-.2.1-.1v-.2l.1-.2v-.2l.1-.1.1-.2v-.3l.1-.1v-.2l.1-.2V50l7-.1 14.3-.1v-.1h.1v-.1l.1-.1v-.2l.1-.1v-.1l-.1-.1-.3-.2-41.1.4.1-.1v-.5l.1-.1v-.2l.1-.2V47.8l20.2-.4.1-.1v-.2l.1-.1.1-.2v-.1l.1-.2V46.2l.1-.2v-.5h3.5l17.9-.2.1-.1.1-.1V45l.1-.1v-.4l-1.5-.1-34.6.1-5.3.1v-.4l.1-.2v-.4l.1-.1.1-.1v-.1h.1l.1-.1 19.9-.1.1-.2.1-.2v-.2l.1-.2v-.2l.1-.2v-.2l.1-.2v-.2l.1-.2v-.5l21.5-.1h.1v-.1l.1-.1v-.4l.1-.1v-.1l-.4-.1h-41.2l.1-.1V39l.1-.1V38.6l.1-.1v-.1l.1-.1.1-.1 19.9-.1.2-.1.1-.2v-.2l.1-.3.1-.2v-.4l.1-.2v-.2l.1-.2v-.2l.1-.2h21.5l.1-.1v-.1h.1v-.4l.1-.1v-.1l-.4-.2-30.2.1-11.1.1v-.2l.1-.1V34.3l.1-.2V33.8l.1-.2-.1-.1v-.1h13.1l7.2-.1.1-.1v-.1l.1-.1V32.7l.1-.1v-.2l.1-.1v-.1l35.5-.1h12.6l.1.4.1.4.1.4.1.4.1.4.1.5.1.4v2.2l-.3.5-.2.5-.1.5-.1.5v2.1l.1.5v.5l.1.5.1.5-.1.6-.1.7-.2.7-.1.6-.2.6-.2.6-.2.7-.2.6-.2.6-.3.6-.2.6-.2.5v.3l.1.1.1.2.1.1.1.1.2.1.1.1h.2l.2.1.2.1h.2l.1.1.3.2.2.2.1.2.2.2.1.3.1.2.1.3.1.2.1.3.2.2.2.1.4.1.1.1h.2l.2.1.2.1.1.1.1.1.1.1.2.2v.1l.1.2.1.1.1.2.4.1.4.2h.9l.5.1.5-.1h.9l.5-.1h.4l.5-.1h.5l.3.1.4.1.3.2.3.2.3.3.3.3.3.2.3.2.4.2.3.1.4.2h.4l.8.1h.9l.8.1.9-.1H345.1l.8-.1h3.5l.9.1.3.2.5.2.4.2.4.2.5.2.4.2.4.1.5.1h.9l.4-.1.6-.1.3-.2.3-.2.4-.2.4-.2.4-.1.3-.2.4-.1h.8l.3.1.4.2.4.2.5.1.5-.1.5-.1.4-.2.4-.2.4-.2.4-.2.5-.3.4-.1.4-.2.6-.1h.5l.7.2.8.2.7.2.8.3.7.2.8.3.7.4.7.4.6.4.6.5.6.6.5.6.1.4.1.4v1l-.1.3-.1.3-.1.4-.1.4-.1.3-.1.3v.3l-.2.3-.1.2-.2.2-.1.3-.2.2-.1.3-.1.2-.1.3v.8l.1.2.3.3.2.2.1.3.2.2.1.3.1.3.1.3v1.2l-.1.3-.2.5-.2.4-.2.4-.2.5-.2.4-.1.5-.1.4-.1.5v.5l.1.4.2.5.3.4-.1.3-.1.3v.5l.1.2.1.3.1.2v.2l.1.3v.8l.1.3.2.3.1.2.2.3.2.2.2.3.1.3.2.3.1.2.1.3.1.4v.3l.1.5v1.1l-.1.4-.2.3-.1.4-.3.3-.1.4-.2.3-.2.3-.2.3-.1.3v.2l.1.3v.2l.1.2.1.3.1.2.1.3v.4l-.1.3-.1.2-.2.3-.1.2-.2.2-.2.2-.3.2-.3.1-.2.1-.3.1-.3.1H370.3l-.1.2V93l.1.1v.2l.1.1.1.1v.1l.1.2v.1l-.1.1-.1.1v.5l-.1.2v.2l-.1.2v.3l-.1.2v.2l-.1.2v.7l-.1.4V99.1l-.1.3-.1.3-.1.3-.1.4-.3.2-.3.3-.3.2-.4.2-.3.2-.4.2-.3.1-.4.1-.3.2-.5.1-.3.1-.4.2-.3.1h-.3l-.3.1h-.7l-.3.1-.3.1h-.2l-.2.2-.2.1-.1.3-.1.2-.2.2-.1.1-.1.2-.1.1v.4l-.1.1v.2l-.1.2v.1l-.1.2v.1l-.2.3-.2.2-.1.2-.2.2-.2.2-.2.2-.2.2-.2.2-.2.2-.1.2-.1.2-.1.2-.2.2-.1.1-.2.1-.2.1h-.2l-.2.1-.2.1h-.2l-.2.1h-.2l-.2.1h-.2l-3 2.7-.6.1-.4.1-.5.2-.5.3-.4.2-.4.3-.4.3-.5.2-.4.3-.5.2-.5.1-.5.1-.1.1h-.1l-.1.1-.1.1-.1.1-.1.1v.2l-.1.1V115.2l-.4.2-.3.1-.3.1-.3.2-.3.2-.3.2-.3.2-.2.2-.3.2-.3.2-.3.2-.2.2-.5.1-.4.1-.5.2-.4.2-.3.2-.4.2-.4.2-.4.3-.3.2-.4.3-.4.2-.3.3-.4.2-.4.1-.4.1-.3.2-.4.1-.3.2-.3.1-.4.2-.4.2-.3.2-.3.2-.3.2-.2.3-.2.2-.1.3-.1.3-.1.3-.1.3-.1.3-.1.2-.1.3-.2.2-.2.3-.3.1-2.5 1.3-.3.3-.4.3-.3.3-.3.4-.3.3-.3.4-.3.3-.2.4-.3.4-.2.3-.3.4-.3.3-.1.3v.6l.2.2.1.3.2.2.1.2.2.3.1.3v.5l-.1.3.1.2v.5l-.1.1-.2.2-.1.2-.3.1-.2.1-.2.2-.3.1-.1.1-.2.1-.1.2v.1l-.1.2-.1.2-.1.1-.1.1v.2l-.1.1V137l.1.2.2.1v.1l.1.1v.1h.1v.2l.1.1v.6l-.1.1h-.1l-.1.1-.1.1-.1.1h-.1v.1l-.1.1v.4l.1.3.1.3.1.3.1.3v.7l.1.3v.3l.1.3.1.3.2.3.3.2-.1.3-.2.2-.1.2-.1.2-.2.2-.2.2-.2.2-.1.2-.2.2-.1.2-.1.3-.1.2-.1.1-.1.1h-.4v-.1H324.7l-.2-.1-.6.2h-.5l-.6.1H321l-.5-.1-.6-.1-.5-.2-.5-.2-.6-.2-.4-.3-.2-.1h-.3l-.2-.1h-.3l-.3-.1-.2-.1-.3-.1-.2-.1-.2-.1-.3-.2-.2-.1-.1-.2-.2-.2-.1-.2-.1-.2-.1-.3-.1-.2-.1-.2-.1-.3-.1-.2-.1-.2-.2-.2-.2-.2-.1-.2-.5.1-.5.1h-1.9l-.5-.1-.4-.2-.4-.1-.4-.3-.4-.3-.2-.4-.3-.1-.3-.1-.3-.1-.3-.1-.2-.2-.3-.1-.2-.2-.3-.1-.1-.2-.2-.2-.1-.3-.1-.3v-.1l-.1-.2V136.7l.1-.2-.1-.2v-.3l-.1-.2-.1-.2-.1-.2-.2.2-.1.2-.2.2-.1.2-.2.2-.1.2-.1.2-.1.2-.1.2-.1.2-.1.2v.2l-39.5.2-.1-.1v-.1l-.1-.1v-.2l-.1-.1V137.1l-.1-.1v-.4l15.8-.2 2.9-.1.1-.1v-1.1l-.1-.1v-.5l21.9-.2v-.7h-.1V133.3h-18.6l-7.3.1h-14.9l-.1-1.2 18-.3.2-.1v-.2l.1-.1v-.5l-.1-.2v-.8l16.1-.2 5.5-.1h.1v-.7h-.1V128.7l-15-.1-25.4.3-.1-.1v-.1l-.1-.2v-.1l-.1-.1v-.1l-.1-.2v-.1l-.1-.1v-.4l18.2-.3.1-.1v-.7l-.1-.1h-.2H280.8V124.9h22.3v-.1h.1v-.4l-.1-.1v-.2l.1-.1-.2-.1-23.4-.1-18.1.1v-.1h-.1v-.1l-.1-.1v-.1l-.1-.1v-.2l-.1-.2v-.2l-.1-.2 18.5-.3V121.4l-.1-.2v-.4l-.1-.2v-.2l9.2-.1 13.3-.2h.1l.1-.1v-.2l-.1-.1v-.1l-.1-.1h-.1v-.2l-.2-.2h-19.4l-22.3.1-.8-1.7 17.7-.3.1-.1v-.4l-.1-.1v-.1l-.1-.1v-.2l-.1-.1V115.8l20.4.1h1.1l.2-.1h.4l.2-.1h.2v-.2l-.1-.1v-.1l-.1-.1v-.2h-.2v-.1l-.1-.1-.1-.1H283l-23.5.1-.2-.1h-1.1l-.3.1-.2-.1h-.3l-.2-.1-.2-.2-.2-.2-.1-.3-.3-.1h-.5l-.3.1-.3.1-.2.1-.2.2-.3.1-.2.2-.3.1h-.6l-.4-.1-.4-.1-.4-.1-.4-.2-.4-.2-.4-.2-.3-.2-.4-.3-.2-.3-.3-.3-.2-.4-.2-.4h.8l.7-.1h7.4l-.7 1.5.2.2 14.5-.2v-.1l.1-.1v-.1l-.1-.1v-.2l-.1-.1-.1-.1-.1-.1v-.1l-.1-.1-.1-.2-.1-.1-.1-.2-.2-.1-.1-.2-.1-.1-.1-.2-.2-.1-.2-.1-.1-.1-.2-.2-22.7.2-.2-.1-.2-.1-.2-.1-.1-.1-.2-.1-.2-.2-.2-.1-.1-.2-.2-.1-.2-.2-.2-.1-.2-.2-19.1.1-.9-2.1v-.1h7l31.4-.3-.1 1.3-.3.6v.2l.4.1 2.9-.1.2-.2-.8-3v-.1h-.1l-.1-.1-17.5.2h-23.3l-.1-.1-.2-1.2.5-.1 18.5-.3.1-.1v-1.4l21.2-.4.2-.1v-.8l-.2-.2-40.7.3-.6-1.6h1.4l1.1-.1H236.8l2.4-.1h2.7l.2-.2-.4-1.7 1.8-.1 19.8-.2.3-.2-.2-.7-.2-.1-41.3-.1-.9-1.3 1.4-.1 17.1-.1.1-.1-.6-1.4.2-.2 21.4-.1.2-.1-.1-.5-.5-.4H219.4l-1-1.6 16.2-.1.2.1h1l.2-.1H237.4l.2-.2-.5-1.8 21.7-.2.1-.2-.2-.6-.4-.3-41.9-.2-.5-1.1v-.2l18.5-.1.1-.2-.2-1.3 21.7-.1v-.4l-.4-.7-.4-.2h-40.1l-.4-1.6v-.2l47.3-.2z"/><path class="st0" d="m240.5 110.8-.3.4-.3.3-.3.3-.2.3-.3.3-.4.3-.3.3-.3.3-.3.3-.3.2-.4.3-.3.2-6.5-.2-.2-.2-.2-.3-.3-.3-.3-.2-.2-.3-.3-.3-.2-.3-.2-.2-.3-.3-.2-.3-.2-.3-.2-.3H240.5zM284.6 142.1v1.3l-.1.4v.9l-.1.3-.1.4-.2.4-.2.3-.3.2-.5.2-.3.2-.4.1h-.4l-.4.1h-.8l-.4.1h-2.2l-.6-.1-.6-.2-.5-.3-.6-.2-.5-.3-.5-.4-.5-.3-.6-.4-.5-.4-.4-.4-.5-.4-.5-.5v-.1l-.1-.1V142.1l-.1-.1 12.9.1z"/><path class="st1" d="m283.1 110.2 13-.1.1.1h.1v.1l.1.1v.4h-1.2l-1.1.1H282.6v-.1l.1-.1v-.1l.1-.1.1-.1v-.1h.1v-.1h.1z"/><path class="st0" d="m303.8 139 .1.3v1.4l-.1.3v.8l.1.3.1.3-11.8-.1-.4-.4-.5-.3-.6-.2-.5-.1H288.9l-.6.1-.5-.1h-.7l-.5-.1-.5-.3-.5-.4h-.1l-.1-.1-.1-.1-.1-.1-.2-.2-.1-.1-.1-.1-.1-.1-.1-.1-.1-.2-.1-.2-.1-.1 13.9-.2 5.6.1z"/><path class="st1" d="m287.3 105.4 6.8-.1v.1l.1.1h.1v.1h.1l.1.1v.1h.1v.4l-.6.1h-6.6l-.6-.1.1-.1v-.1l.1-.1v-.2h.1l.1-.1v-.1h.1v-.1z"/><path class="st0" d="M304.1 143.6v.4l.1.2V144.8l.1.2-.1.2V145.5l-.1.2-.1.2-.3.2-.3.1-.4.1H301.7l-.3-.1h-.3l-.4.1h-.3l-.4.1h-1l-.6-.1-.5-.1-.5-.1-.6-.1-.4-.2-.5-.4-.4-.3-.4-.3-.3-.5-.2-.6v-.1h9.5z"/><path class="st1" d="m321.9 78.8 8.1-17.6.2-.1 1.5 12.8v.7l.1.3v.4l.1.4v.4l.1.4v.5l.1.4v.4l.1.5.1.3.6.2 17.4-.1.1.1-2.1 1.7-14.6 10.6 2.1 18.2v.1H335.5v-.1h-.1v-.1L324 98.3l-.8.4-14.8 10.8h-.2l.3-.8 7.9-17.6-1-1-1-1-1-1-1-1-1-1-1.1-1-1.1-1-1-1.1-1-1-1-.9-.9-1.1-.9-1 17.5-.2z"/><path style="fill-rule:evenodd;clip-rule:evenodd;fill:none" d="M211.1 25.6h165.5v124.5H211.1V25.6z"/><path class="st3" d="M267.8 165.8v6.1h-.6c-.4-1.4-.8-2.4-1.2-3-.5-.6-1.1-1.1-1.9-1.5-.4-.2-1.2-.3-2.3-.3h-1.7v17.3c0 1.2.1 1.9.2 2.2.1.3.4.5.8.8.4.2.9.3 1.6.3h.8v.6h-12.2v-.6h.8c.7 0 1.2-.1 1.6-.4.3-.2.5-.4.7-.8.1-.3.2-1 .2-2.1v-17.3h-1.7c-1.6 0-2.7.3-3.4 1-1 .9-1.6 2.2-1.9 3.8h-.6v-6.1h20.8zM276.7 170.8v7.6h.4c1.2 0 2-.4 2.6-1.1.5-.7.9-1.8 1-3.3h.5v9.7h-.5c-.1-1.1-.3-1.9-.7-2.6-.4-.7-.8-1.1-1.2-1.4-.5-.2-1.1-.4-2-.4v5.2c0 1 0 1.6.1 1.9.1.2.2.4.5.6.2.2.6.2 1.2.2h1.1c1.7 0 3.1-.4 4.2-1.2 1-.8 1.8-2 2.3-3.7h.5l-.8 5.9h-16v-.5h.6c.5 0 1-.1 1.3-.3.2-.1.4-.3.5-.7.1-.2.2-.8.2-1.7v-12.2c0-.8 0-1.4-.1-1.5-.1-.3-.3-.6-.5-.7-.3-.3-.8-.4-1.4-.4h-.6v-.5h15.5v5.5h-.5c-.3-1.3-.6-2.3-1.1-2.9-.5-.6-1.2-1-2-1.3-.5-.2-1.5-.2-2.9-.2h-2.2zM299.6 177.4l5.1 7.6c.8 1.3 1.5 2 1.8 2.3.4.3.8.4 1.3.5v.5h-9.1v-.5c.7 0 1.2-.2 1.4-.3.2-.2.3-.4.3-.6 0-.2 0-.3-.1-.4-.1-.3-.5-.8-1-1.5l-2.7-4-2.8 3.4c-.9 1-1.3 1.8-1.3 2.1 0 .3.1.5.3.7.2.2.5.4 1 .5.2.1.6.1 1.2.1v.5h-7.1v-.5c.8-.1 1.5-.3 1.9-.7.6-.4 1.5-1.3 2.6-2.6l3.7-4.5-4.7-7c-.8-1.1-1.2-1.8-1.3-1.9-.2-.3-.5-.5-.7-.7-.2-.1-.6-.2-1-.3v-.5h9.2v.5h-.5c-.5 0-.9.1-1.1.3-.2.2-.3.4-.3.6 0 .2 0 .4.1.5l.9 1.4 2.3 3.4 1.9-2.3c1-1.2 1.5-2.1 1.5-2.6 0-.2-.1-.5-.2-.7-.1-.2-.3-.4-.6-.5-.3-.1-.7-.2-1.2-.2v-.5h6.8v.5c-.5 0-1 .1-1.3.2-.3.1-.7.4-1.1.7-.2.2-.8.9-1.8 2l-3.4 4.5zM319.6 183h-6.5l-.8 1.8c-.3.6-.4 1.1-.4 1.5 0 .5.2.9.6 1.2.2.2.8.3 1.8.3v.5h-6.2v-.5c.7-.1 1.2-.4 1.6-.8.4-.5 1-1.4 1.6-2.8l6.6-14.8h.3l6.7 15.2c.6 1.4 1.2 2.3 1.6 2.7.3.3.8.4 1.3.5v.5h-9v-.5h.4c.7 0 1.2-.1 1.5-.3.2-.1.3-.4.3-.6 0-.2 0-.3-.1-.5 0-.1-.2-.4-.4-1l-.9-2.4zm-.4-1-2.8-6.4-2.9 6.4h5.7zM341.4 169.3l.1 6.2h-.5c-.3-1.5-.9-2.8-2-3.7-1-.9-2.2-1.4-3.4-1.4-.9 0-1.7.3-2.2.8-.5.5-.8 1.1-.8 1.7 0 .4.1.8.3 1.1.3.4.7.9 1.3 1.3.4.3 1.4.8 3 1.6 2.2 1.1 3.7 2.1 4.4 3 .8.9 1.1 2 1.1 3.2 0 1.5-.6 2.9-1.8 4-1.2 1.1-2.7 1.7-4.6 1.7-.6 0-1.1-.1-1.7-.2-.5-.1-1.2-.3-2-.7-.4-.2-.8-.3-1.1-.3-.2 0-.5.1-.8.3-.3.2-.5.5-.6.8h-.5v-7h.5c.4 2 1.2 3.5 2.3 4.5 1.1 1 2.4 1.5 3.7 1.5 1 0 1.8-.3 2.4-.8.6-.6.9-1.2.9-1.9 0-.4-.1-.9-.4-1.3-.2-.4-.6-.8-1.1-1.2-.5-.4-1.3-.9-2.5-1.4-1.7-.8-2.9-1.5-3.7-2.1-.7-.6-1.3-1.2-1.7-2-.4-.7-.6-1.5-.6-2.4 0-1.5.5-2.7 1.6-3.8 1.1-1 2.5-1.6 4.1-1.6.6 0 1.2.1 1.8.2.4.1 1 .3 1.6.6.6.3 1 .4 1.3.4.2 0 .4-.1.6-.2.1-.1.3-.5.4-1.1h.6zM200.1 199.4v6.1h-.6c-.4-1.4-.8-2.4-1.2-3-.4-.6-1-1.1-1.8-1.5-.4-.2-1.2-.3-2.3-.3h-1.7V218c0 1.2.1 1.9.2 2.2.1.3.4.5.8.8.4.2.9.3 1.5.3h.8v.6h-12v-.6h.8c.7 0 1.2-.1 1.6-.4.3-.2.5-.4.7-.8.1-.3.2-1 .2-2.1v-17.3h-1.7c-1.6 0-2.7.3-3.4 1-1 .9-1.6 2.2-1.9 3.8h-.6v-6.1h20.6zM208.8 213.5v5.2c0 1 .1 1.6.2 1.9.1.3.3.5.7.6.3.2.9.2 1.7.2v.5h-9.5v-.5c.9 0 1.4-.1 1.8-.2.3-.2.5-.4.6-.6.1-.3.2-.9.2-1.9v-12.1c0-1-.1-1.6-.2-1.9-.1-.3-.3-.5-.7-.6-.3-.1-.9-.2-1.7-.2v-.5h8.6c2.3 0 3.9.1 4.9.5 1 .3 1.9.9 2.5 1.7.7.8 1 1.8 1 2.9 0 1.4-.5 2.5-1.5 3.4-.6.6-1.5 1-2.6 1.3l4.5 6.3c.6.8 1 1.3 1.3 1.5.4.3.8.4 1.3.5v.5H216l-6-8.5h-1.2zm0-9.2v8.1h.8c1.3 0 2.2-.1 2.8-.4.6-.2 1.1-.6 1.5-1.3.4-.6.5-1.4.5-2.4 0-1.4-.3-2.5-1-3.1-.7-.7-1.7-1-3.2-1h-1.4z"/><path class="st3" d="M233.2 216.6h-6.5l-.8 1.8c-.3.6-.4 1.1-.4 1.5 0 .5.2.9.6 1.2.2.1.8.3 1.8.3v.5h-6.2v-.5c.7-.1 1.2-.4 1.6-.8.4-.4 1-1.4 1.6-2.8l6.6-14.8h.3l6.7 15.2c.6 1.5 1.2 2.4 1.6 2.7.3.3.8.4 1.3.5v.5h-9v-.5h.4c.7 0 1.2-.1 1.5-.3.2-.1.3-.4.3-.6 0-.2 0-.3-.1-.5 0-.1-.2-.4-.4-1l-.9-2.4zm-.4-1-2.8-6.4-2.9 6.4h5.7zM248.8 203.4l9.2 11.5v-8c0-1.1-.2-1.9-.5-2.3-.4-.5-1.2-.8-2.2-.8v-.5h6.1v.5c-.8.1-1.3.2-1.6.4-.3.2-.5.4-.6.8-.2.4-.2 1-.2 1.9v15.4h-.5l-12.6-15.5v11.8c0 1.1.2 1.8.7 2.2.5.4 1 .6 1.7.6h.4v.5h-6.6v-.5c1 0 1.7-.2 2.1-.6.4-.4.6-1.1.6-2.1v-13.1l-.4-.5c-.4-.5-.7-.8-1-1-.3-.2-.7-.2-1.3-.3v-.5h6.7zM275.2 202.9l.2 6.2h-.6c-.3-1.5-.9-2.8-2-3.7-1-.9-2.2-1.4-3.4-1.4-.9 0-1.7.2-2.2.7-.5.5-.8 1.1-.8 1.7 0 .4.1.8.3 1.1.3.4.7.9 1.3 1.3.4.3 1.4.8 3 1.6 2.2 1.1 3.6 2.1 4.4 3 .8.9 1.1 2 1.1 3.3 0 1.5-.6 2.9-1.8 4-1.2 1.1-2.7 1.7-4.6 1.7-.6 0-1.1-.1-1.7-.2-.5-.1-1.2-.3-2-.7-.4-.2-.8-.3-1.1-.3-.2 0-.5.1-.8.3-.3.2-.5.5-.6.8h-.5v-7h.5c.4 2 1.2 3.5 2.3 4.5 1.1 1 2.4 1.5 3.7 1.5 1 0 1.8-.3 2.4-.8.6-.6.9-1.2.9-1.9 0-.4-.1-.9-.3-1.3-.2-.4-.6-.8-1.1-1.2-.5-.4-1.3-.9-2.5-1.4-1.7-.8-2.9-1.5-3.6-2.1-.7-.6-1.3-1.2-1.7-2-.4-.7-.6-1.5-.6-2.4 0-1.5.5-2.7 1.6-3.8 1.1-1 2.5-1.6 4.1-1.6.6 0 1.2.1 1.8.2.4.1 1 .3 1.6.6.6.3 1 .4 1.3.4.2 0 .4-.1.6-.2.1-.2.3-.5.4-1.1h.4zM285.7 200.8v9.1h.4c1.3 0 2.2-.4 2.7-1.3.6-.9.9-2.2 1.1-4h.5v11.8h-.5c-.1-1.3-.4-2.3-.7-3.2-.4-.8-.8-1.4-1.3-1.6-.5-.3-1.2-.4-2.2-.4v6.3c0 1.2.1 2 .1 2.3.1.3.3.5.5.7.3.2.7.3 1.2.3h1.2c1.8 0 3.3-.5 4.4-1.5 1.1-1 1.9-2.5 2.4-4.4h.5l-.9 7.1h-17v-.6h.7c.6 0 1-.1 1.4-.4.3-.1.4-.4.6-.8.1-.3.2-1 .2-2.1v-14.8c0-1 0-1.6-.1-1.9-.1-.4-.3-.7-.5-.9-.4-.3-.9-.5-1.5-.5h-.7v-.6h16.5v6.6h-.5c-.3-1.6-.7-2.8-1.2-3.5-.5-.7-1.2-1.2-2.2-1.6-.5-.2-1.6-.3-3.1-.3h-2zM309.1 216.6h-6.5l-.8 1.8c-.3.6-.4 1.1-.4 1.5 0 .5.2.9.6 1.2.2.1.9.3 1.8.3v.5h-6.2v-.5c.7-.1 1.2-.4 1.6-.8.4-.4 1-1.4 1.6-2.8l6.6-14.8h.3l6.7 15.2c.6 1.5 1.2 2.4 1.6 2.7.3.3.8.4 1.3.5v.5h-9v-.5h.4c.7 0 1.2-.1 1.5-.3.2-.1.3-.4.3-.6 0-.2 0-.3-.1-.5 0-.1-.2-.4-.4-1l-.9-2.4zm-.4-1-2.8-6.4-2.8 6.4h5.6zM330.9 202.9l.2 6.2h-.6c-.3-1.5-.9-2.8-2-3.7-1-.9-2.2-1.4-3.4-1.4-.9 0-1.7.2-2.2.7-.5.5-.8 1.1-.8 1.7 0 .4.1.8.3 1.1.3.4.7.9 1.3 1.3.4.3 1.4.8 3 1.6 2.2 1.1 3.6 2.1 4.4 3 .7.9 1.1 2 1.1 3.3 0 1.5-.6 2.9-1.8 4-1.2 1.1-2.7 1.7-4.6 1.7-.6 0-1.1-.1-1.7-.2-.5-.1-1.2-.3-2-.7-.4-.2-.8-.3-1.1-.3-.2 0-.5.1-.8.3-.3.2-.5.5-.6.8h-.5v-7h.5c.4 2 1.2 3.5 2.3 4.5 1.1 1 2.4 1.5 3.7 1.5 1 0 1.8-.3 2.4-.8.6-.6.9-1.2.9-1.9 0-.4-.1-.9-.4-1.3-.2-.4-.6-.8-1.1-1.2-.5-.4-1.3-.9-2.5-1.4-1.7-.8-2.9-1.5-3.6-2.1-.7-.6-1.3-1.2-1.7-2-.4-.7-.6-1.5-.6-2.4 0-1.5.5-2.7 1.6-3.8 1.1-1 2.5-1.6 4.1-1.6.6 0 1.2.1 1.8.2.4.1 1 .3 1.6.6.6.3 1 .4 1.3.4.2 0 .4-.1.6-.2.1-.2.3-.5.4-1.1h.5zM351 203.4v5h-.5c-.3-1.2-.6-2-1-2.5s-.8-.9-1.5-1.2c-.4-.2-1-.2-1.8-.2h-1.4v14.3c0 1 0 1.5.1 1.8.1.2.3.4.6.6.3.2.7.3 1.3.3h.6v.5h-9.7v-.5h.6c.5 0 1-.1 1.3-.3.2-.1.4-.4.6-.7.1-.2.2-.8.2-1.7v-14.3h-1.3c-1.3 0-2.2.3-2.7.8-.8.7-1.3 1.8-1.5 3.2h-.5v-5H351zM359.6 204.4v7.6h.4c1.2 0 2-.4 2.6-1.1.5-.7.9-1.8 1-3.3h.5v9.7h-.5c-.1-1.1-.3-1.9-.7-2.6-.4-.7-.8-1.1-1.2-1.4-.5-.2-1.1-.3-2-.3v5.2c0 1 0 1.6.1 1.9.1.2.2.4.5.6.2.1.6.2 1.1.2h1.1c1.7 0 3.1-.4 4.2-1.2 1-.8 1.8-2 2.3-3.7h.5l-.8 5.9h-16v-.5h.6c.5 0 1-.1 1.3-.3.2-.1.4-.4.6-.7.1-.2.1-.8.1-1.7v-12.2c0-.8 0-1.4-.1-1.5-.1-.3-.3-.6-.5-.7-.3-.3-.8-.4-1.4-.4h-.6v-.5h15.5v5.5h-.5c-.3-1.3-.6-2.3-1.1-2.9-.5-.6-1.2-1-2-1.3-.5-.2-1.5-.2-2.9-.2h-2.1zM378.1 213.5v5.2c0 1 .1 1.6.2 1.9.1.3.3.5.7.6.3.2.9.2 1.7.2v.5h-9.5v-.5c.9 0 1.4-.1 1.8-.2.3-.2.5-.4.6-.6.1-.3.2-.9.2-1.9v-12.1c0-1-.1-1.6-.2-1.9-.1-.3-.3-.5-.7-.6-.3-.1-.9-.2-1.7-.2v-.5h8.6c2.2 0 3.9.1 4.9.5 1 .3 1.9.9 2.5 1.7.7.8 1 1.8 1 2.9 0 1.4-.5 2.5-1.5 3.4-.6.6-1.5 1-2.6 1.3l4.4 6.3c.6.8 1 1.3 1.3 1.5.4.3.8.4 1.3.5v.5h-5.9l-6-8.5h-1.1zm0-9.2v8.1h.8c1.3 0 2.2-.1 2.8-.4.6-.2 1.1-.6 1.5-1.3.4-.6.5-1.4.5-2.4 0-1.4-.3-2.5-1-3.1-.7-.7-1.7-1-3.2-1h-1.4zM397.9 203.4l9.2 11.5v-8c0-1.1-.2-1.9-.5-2.3-.4-.5-1.2-.8-2.2-.8v-.5h6.1v.5c-.8.1-1.3.2-1.6.4-.3.2-.5.4-.6.8-.2.4-.2 1-.2 1.9v15.4h-.5L395 206.9v11.8c0 1.1.2 1.8.7 2.2.5.4 1 .6 1.7.6h.4v.5h-6.6v-.5c1 0 1.7-.2 2.1-.6.4-.4.6-1.1.6-2.1v-13.1l-.4-.5c-.4-.5-.7-.8-1-1-.3-.2-.7-.2-1.3-.3v-.5h6.7z"/></svg>