<svg xmlns="http://www.w3.org/2000/svg" xmlns:xlink="http://www.w3.org/1999/xlink" width="2592" height="2592" style="enable-background:new 0 0 2592 2592" xml:space="preserve"><defs><path id="a" d="M0 1296c0 715.8 580.2 1296 1296 1296s1296-580.2 1296-1296S2011.8 0 1296 0 0 580.2 0 1296"/></defs><use xlink:href="#a" style="overflow:visible;fill:none;stroke:#000;stroke-miterlimit:10"/><path d="M157.4 1285.1c1 1 2 1.9 3.1 2.9.1-2.6.1-5.2.2-7.8-1.1 1.7-2.1 3.3-3.3 4.9M2430.8 1247.5c-.6-.6-1.3-1.2-1.9-1.8.2 2.8.3 5.6.5 8.4.9.4 1.9.8 2.8 1.2.8-4.6 0-6.5-1.4-7.8"/><path d="M2280.4 1143c-8.2-6.4-14.6-7.3-23-2-7.8 4.8-17.1 7.7-23.9 13.5-43.9 37.6-98.8 55.3-148.1 83.2-9.3 5.3-14.7 5.3-23.2-3.6-7.2-7.5-19.9-10.7-30.8-13.4-10.1-2.5-21-1.9-34.7-2.8 28.9-25.8 69.5-28.3 90.8-62.7-29.8-1.4-42.2-26.4-62.2-40.7-79.8-57.1-131.5-140.5-198.5-209.3-27.7-28.4-58.1-54.3-86.4-82.2-9.9-9.7-18.6-21.4-25.1-33.6-9.1-17-15-35.7-23.7-52.9-4.5-8.8-11.1-17.5-18.9-23.4-4.4-3.3-13.9-2.9-19.5-.5-3.8 1.6-7.6 10.3-6.6 14.7 4.6 18.9-3.1 33-12.7 48.2-17.7 28-33.3 57.3-50 85.9-13.8 23.7-11.7 33.4 14.6 46.2 14.7 7.1 21.4 19 31.4 35.6-36.5-11.9-61.8 8.1-89 20.2-8 3.6-11.8 1.9-16.1-4.7-11.7-17.8-23.8-35.2-35.8-52.8h-4.6c-3.5 13.4-7.3 26.6-10.4 40.1-4.7 20.4-4.7 21.5-25 17.2-19.9-4.2-31.7.8-42.8 19.3-21.2 35.6-47.4 68.3-68.9 103.8-8.8 14.5-13.1 32.7-15.8 49.8-3 18.3-16.7 27.7-28.9 34.9-33.7 19.8-69.4 36.3-104.4 54-1.7.8-3.7 1.1-5.5 1.7-1.3-1-2.6-2-3.8-3 5.2-7.2 9.5-15.3 15.9-21.3 8.9-8.3 21-13.6 28.6-22.8 25.5-30.8 49.8-62.6 74-94.4 3-3.9 2.6-10.3.7-17.5-16.1 14.5-32.6 28.4-48 43.6-9.1 8.9-18.5 13.8-31.3 11.8-14.8-2.3-26.2 5.2-38.4 12.1-15.3 8.7-31 17.4-47.6 22.9-15.6 5.2-28.8 11.9-39 25-6.7 8.6-14.8 16.2-22.2 24.2-1.5-.8-2.9-1.5-4.4-2.3 1-4.7.9-10.2 3.3-14.1 8.9-13.9 16.1-27.4 1.3-44 17.9-7.5 33.4-14.6 49.4-20.7 36.3-13.8 68.1-34.6 96.1-61.1 4.3-4.1 5.5-11.5 8.1-17.3-1.1-.8-2.2-1.5-3.4-2.3-3.1 1.2-6.6 1.8-9.3 3.6-7.5 4.9-11.2 2-15.9-4.7-14.5-20.7-22.5-23.4-44.8-11.9-14.6 7.5-26 4.1-38.4-3.4-36.5-22.3-72.9-44.8-110-66.1-15.8-9.1-32.7-16.9-50.1-22.5-23.3-7.5-39.7-23.2-53.3-41.7-18.1-24.7-42.6-16.3-65.7-15.5-2.4.1-6.4 4.2-6.8 6.9-2.7 15.4-4.5 30.9-6.7 46.4 1.4 1 2.9 2.1 4.3 3.1 12.6-10.2 25.2-20.3 38-30.6 11.4 16.9 23.5 33.2 33.7 50.7 3 5.2 1.7 13.8.4 20.4-4.7 22.9-9 46-16.1 68.2-3.7 11.5-13.5 20.9-19.9 31.7-8.2 13.8-18.7 27.1-22.8 42.1-6.4 23.1-21 39-36.7 55.1-14.9 15.3-27.8 32.8-43.7 46.8-17.8 15.7-37.9 28.8-57.2 42.7-13.6 9.8-27.6 19-43.7 30 1.3-6.2 1.1-12.2 3.6-16.7 5.3-9.2 12.7-17.3 18-26.5 4.5-7.7 10.1-16.4 10.2-24.7.1-17.1 6.6-29.9 17.2-42.6 5-6 6-15.5 8.1-23.5 1-3.8-.1-8.2.5-12.2 1.2-7.9 6.7-18.2 3.6-23-4.7-7.3-14.9-11.9-23.7-15.3-4.6-1.8-12.7-.7-16.4 2.4-25.1 20.8-47.8 12.7-70.2-4.3-13.1-10-24.8-23.9-44.4-17.2-3.8 1.3-8.4 1.3-11.7 3.4-26.5 17.3-54.5 13.3-80.7 2-23-9.9-42.5-3.2-63.1 3.8-.1 2.4-.9 4.4-.2 5.2 17.5 20.1 8 39.2-2.8 57.6-2.1 3.6-8 7.1-12.1 7.1-20.9-.2-41.8-2.6-62.7-2.1-8.4.2-20.6 3.5-24.2 9.5-18.7 31.3-51.9 42.9-79.5 62.1-17.5 12.2-34.3 25.6-51.4 38.4-4.3 3.2-8.7 6.3-13.1 9.4-.5-.5-1-.9-1.5-1.4-.2 8.7-.3 17.5-.3 26.3 0 627.1 508.3 1135.4 1135.4 1135.4S2431 1941.3 2431 1314.3c0-20.2-.5-40.2-1.6-60.1-4.1-1.7-8.3-3.3-11.7-5.9-46-34.9-91.9-69.8-137.3-105.3" style="fill:#fff"/><path d="M2267.5 1095c-11.5-10.9-20.7-8.5-32.2-.8-14.2 9.6-29.4 17.7-44.3 26.1-9.3 5.2-19.7 8.7-28.3 14.7-11.5 8-22.3 11.1-35.2 3.9-4.2-2.3-10-4-14.6-3.2-18.6 3.6-32.4-4.2-44.8-16.5-18.1-17.9-36.7-35.4-54.1-54-77.3-83-156.5-164-243.7-236.7-16.3-13.6-30.1-28.5-39.7-47.6-8-15.9-18.5-30.6-26-46.7-13.5-28.8-36.8-49.8-56.8-73.3-11.9-13.9-19.9-13.5-31 .5-21.2 26.7-42 53.8-62.2 81.4-24.1 32.9-46.6 67-71.6 99.2-7.2 9.2-20.7 19.5-31.1 19.2-46.1-1.1-72.2 20.4-84.7 63.3-2.6 8.9-10.8 20.8-18.5 22.7-22.3 5.5-35.5 23.9-50.3 36.7-18.4 15.9-37.5 24.6-59 32-10.9 3.7-19.5 1.5-30.2-2.6-24.4-9.2-49.9-11.8-75.1-.3-3.4 1.5-10 .6-12.8-1.9-28.8-25.6-62.9-40.9-98.3-54.6-28.3-10.9-57-20.1-80.8-41.6-30.2-27.3-64.1-50.5-95.7-76.3-26.1-21.3-41.9-11.3-51.5 16.7-9.8 28.5-27.3 50.7-51.7 68.1-10.3 7.3-19.5 16.3-28.4 25.3-12.6 12.6-23.2 27.5-37 38.6-24.2 19.4-49.5 37.5-75.5 54.4-27.3 17.8-55.5 34.9-90.8 25.7-9.9-2.6-19.7-6-29.7-7-14.2-1.5-28.9-2.8-42.9-.9-11.2 1.5-22 7.7-32.6 12.5-8.2 3.7-18.2 6.6-23.6 13.1-19 23-41.9 39.6-69.3 51.2-10.2 4.3-19.5 11.1-28.7 17.5-4 2.7-8.4 6.6-9.8 10.9-6.3 19.7-21.1 32-36.1 44.4-22 18.1-44.3 36.1-65.7 54.9-4.9 4.4-8.4 10.4-12.1 16.1-.1 2.6-.1 5.2-.2 7.8.5.5 1 .9 1.5 1.4 4.4-3.1 8.8-6.2 13.1-9.4 17.1-12.8 33.9-26.2 51.4-38.4 27.6-19.2 60.7-30.8 79.5-62.1 3.6-6 15.9-9.3 24.2-9.5 20.9-.5 41.8 1.9 62.7 2.1 4.1 0 10-3.5 12.1-7.1 10.9-18.5 20.4-37.5 2.8-57.6-.7-.8.1-2.9.2-5.2 20.7-7 40.1-13.7 63.1-3.8 26.2 11.3 54.1 15.3 80.7-2 3.2-2.1 7.8-2.1 11.7-3.4 19.6-6.6 31.3 7.2 44.4 17.2 22.4 17.1 45.1 25.1 70.2 4.4 3.8-3.1 11.9-4.2 16.4-2.4 8.8 3.5 19 8.1 23.7 15.3 3.1 4.8-2.4 15.1-3.6 23-.6 4 .5 8.3-.5 12.2-2.1 8.1-3.1 17.6-8.1 23.5-10.6 12.7-17.1 25.5-17.2 42.6-.1 8.3-5.7 17-10.2 24.7-5.3 9.2-12.7 17.2-18 26.5-2.6 4.4-2.4 10.4-3.6 16.7 16.1-11 30.1-20.2 43.7-30 19.3-13.9 39.4-27 57.2-42.7 15.9-14.1 28.8-31.5 43.7-46.8 15.7-16.2 30.3-32.1 36.7-55.1 4.2-15 14.7-28.4 22.8-42.1 6.4-10.8 16.2-20.2 19.9-31.7 7.2-22.2 11.4-45.3 16.1-68.2 1.4-6.6 2.6-15.2-.4-20.4-10.2-17.5-22.3-33.9-33.7-50.7-12.8 10.3-25.4 20.5-38 30.6-1.4-1-2.9-2.1-4.3-3.1 2.1-15.5 4-31 6.7-46.4.5-2.7 4.4-6.8 6.8-6.9 23.2-.7 47.7-9.1 65.7 15.5 13.5 18.5 29.9 34.2 53.3 41.7 17.3 5.6 34.3 13.4 50.1 22.5 37.1 21.3 73.5 43.9 110 66.1 12.4 7.6 23.8 11 38.4 3.4 22.3-11.5 30.3-8.9 44.8 11.9 4.7 6.7 8.5 9.6 15.9 4.7 2.7-1.8 6.2-2.4 9.3-3.6 1.1.8 2.2 1.5 3.4 2.3-2.6 5.9-3.8 13.2-8.1 17.3-28 26.5-59.8 47.3-96.1 61.1-16 6.1-31.6 13.2-49.4 20.7 14.8 16.6 7.5 30.2-1.3 44-2.5 3.8-2.3 9.3-3.3 14.1 1.5.8 2.9 1.5 4.4 2.3 7.5-8 15.5-15.6 22.2-24.2 10.2-13.1 23.4-19.8 39-25 16.6-5.6 32.3-14.2 47.6-22.9 12.1-6.9 23.6-14.4 38.4-12.1 12.7 2 22.2-2.9 31.3-11.8 15.4-15.2 32-29.1 48-43.6 1.8 7.2 2.2 13.6-.7 17.5-24.2 31.8-48.5 63.6-74 94.4-7.6 9.2-19.8 14.4-28.6 22.8-6.4 6-10.7 14.1-15.9 21.3 1.3 1 2.6 2 3.8 3 1.8-.5 3.8-.8 5.5-1.7 34.9-17.7 70.7-34.1 104.4-54 12.2-7.2 26-16.5 28.9-34.9 2.8-17.1 7-35.3 15.8-49.8 21.6-35.4 47.7-68.1 68.9-103.8 11-18.5 22.9-23.5 42.8-19.3 20.3 4.3 20.3 3.2 25-17.2 3.1-13.4 6.9-26.7 10.4-40.1h4.6c12 17.6 24.1 35 35.8 52.8 4.3 6.6 8.1 8.3 16.1 4.7 27.2-12.1 52.6-32 89-20.2-10-16.6-16.7-28.5-31.4-35.6-26.2-12.8-28.3-22.5-14.6-46.2 16.7-28.6 32.3-57.9 50-85.9 9.6-15.2 17.4-29.4 12.7-48.2-1.1-4.4 2.8-13.1 6.6-14.7 5.6-2.4 15.1-2.8 19.5.5 7.8 5.9 14.4 14.6 18.9 23.4 8.7 17.2 14.6 35.9 23.7 52.9 6.6 12.2 15.3 23.9 25.1 33.6 28.3 27.9 58.6 53.8 86.4 82.2 67.1 68.9 118.7 152.2 198.5 209.3 20 14.3 32.4 39.3 62.2 40.7-21.3 34.4-62 36.9-90.8 62.7 13.7 1 24.6.3 34.7 2.8 10.9 2.7 23.6 5.9 30.8 13.4 8.5 8.9 13.9 8.8 23.2 3.6 49.3-27.9 104.2-45.6 148.1-83.2 6.8-5.8 16.1-8.7 23.9-13.5 8.4-5.2 14.8-4.4 23 2 45.4 35.5 91.4 70.4 137.3 105.2 3.4 2.6 7.6 4.2 11.7 5.9-.1-2.8-.3-5.6-.5-8.4-53.9-50-108-99.9-161.5-150.5M1094.3 2225.9c4.8-27.6 9.6-55.3 14.5-82.9.3-1.8 1.2-3.1 2.6-4.1 1.4-1 3-1.3 4.8-1 7.7 1.3 15.4 2.5 23.2 3.6.8.1 1.5.5 2 1.2s.7 1.5.6 2.3c-.3 2.1-.6 4.2-.9 6.2-.1.8-.5 1.5-1.2 2s-1.5.7-2.3.6c-5.7-.8-11.5-1.7-17.2-2.7-1.6 9.7-3.2 19.5-4.7 29.2 5.9 1 11.8 1.9 17.7 2.7.9.1 1.6.5 2.1 1.2s.7 1.4.6 2.3c-.3 2.1-.6 4.2-.9 6.2-.1.9-.6 1.6-1.3 2.1-.7.5-1.5.7-2.4.6-6-.9-11.9-1.8-17.9-2.8-1.6 9.8-3.2 19.5-4.8 29.3 6.1 1 12.2 1.9 18.3 2.8.9.1 1.6.5 2.2 1.2.6.7.8 1.5.7 2.4-.3 2-.6 4.1-.9 6.1-.1.9-.6 1.6-1.3 2.1-.7.5-1.6.7-2.5.6-8.4-1.2-16.8-2.6-25.2-4-1.9-.3-3.4-1.2-4.5-2.7-1.1-1.2-1.6-2.8-1.3-4.5M1140.8 2216.7c.3-2.2.6-4.3.9-6.5.1-.8.5-1.5 1.3-2 .7-.5 1.6-.8 2.5-.6 2.2.3 4.4.6 6.6.8.9.1 1.6.5 2.2 1.2.6.7.8 1.5.7 2.3-.3 2.2-.5 4.4-.8 6.5-.3 2.7.4 5.2 2.3 7.4 1.8 2.2 4.3 3.5 7.2 3.8 2.9.3 5.6-.4 7.9-2.1 2.3-1.7 3.6-4 3.9-6.7.2-1.6.1-2.7-.3-3.3-8.3-12.9-16.4-25.9-24.3-39.1-2-3.5-3.1-5.7-3.4-6.8-.3-1.1-.2-3.1.2-6.2.8-6.1 3.8-11.1 8.7-14.9 5-3.8 10.5-5.4 16.7-4.7 6.2.7 11.2 3.4 15.2 8.3 4 4.8 5.8 10.3 5.2 16.5l-.6 6.6c-.1.8-.5 1.5-1.2 2.1-.7.6-1.5.8-2.3.7-2.1-.2-4.3-.4-6.4-.6-.9-.1-1.7-.5-2.2-1.2-.6-.7-.8-1.5-.7-2.3.2-2.2.5-4.4.7-6.5.3-2.7-.5-5.2-2.3-7.3-1.8-2.2-4.1-3.4-6.8-3.7-2.8-.3-5.2.4-7.4 2.1-2.2 1.7-3.5 3.9-3.8 6.6-.2 1.7-.2 2.8.2 3.4 7.9 13 16 26 24.4 38.8 2.2 3.4 3.4 5.6 3.8 6.7.3 1 .3 3.1 0 6.2-.6 6.1-3.4 11.2-8.7 15.1-5.2 3.9-11.2 5.5-18 4.8-6.7-.8-12.2-3.7-16.4-8.7-4.1-5-5.8-10.6-5-16.7M1201.3 2158.2c.2-2.1.4-4.2.5-6.3.1-.8.4-1.5 1.1-2.1.6-.6 1.4-.8 2.3-.8 10 .9 20.1 1.5 30.1 2.1.8 0 1.5.4 2.1 1.1.6.7.9 1.4.8 2.2l-.3 6.3c0 .8-.4 1.5-1 2.1-.6.6-1.4.8-2.3.8-3-.2-5.9-.3-8.9-.5-1.7 27-3.4 53.9-5.1 80.9 0 .8-.4 1.5-1.2 2.1-.7.6-1.6.9-2.5.8-2.3-.1-4.5-.3-6.8-.5-.9-.1-1.7-.5-2.3-1.2-.6-.7-.9-1.5-.9-2.2 2-27 4.1-53.9 6.1-80.9-3-.2-5.9-.5-8.9-.7-.9-.1-1.6-.4-2.2-1.1-.4-.5-.6-1.2-.6-2.1M1242.7 2245.2l.6-12.9c0-.9.4-1.6 1.1-2.2.7-.6 1.5-.8 2.5-.8 2.3.1 4.5.2 6.8.3.9 0 1.6.4 2.3 1 .6.6.9 1.4.9 2.3-.1 4.3-.3 8.6-.4 12.9 0 .9-.4 1.6-1.1 2.2-.7.6-1.5.9-2.4.8l-6.9-.3c-1 0-1.8-.4-2.4-1.1-.7-.6-1-1.3-1-2.2M1269.6 2162c0-2.1.1-4.2.1-6.3 0-.8.3-1.6 1-2.2.6-.6 1.4-.9 2.3-.9 5.5.1 11 .2 16.5.2 1.7 0 3.2.6 4.5 1.9 1.2 1.2 1.9 2.7 1.9 4.4 0 29.1.1 58.2.1 87.3 0 .8-.4 1.5-1.1 2.1-.7.7-1.5 1-2.3 1h-6.9c-.9 0-1.7-.4-2.3-1-.7-.7-1-1.4-1-2.2l.9-81.1c-3.5 0-6.9-.1-10.4-.2-.9 0-1.7-.3-2.3-1-.7-.5-1-1.2-1-2M1313.2 2226.7c0-.8.3-1.5.9-2.2.6-.6 1.4-.9 2.4-.9 2.2 0 4.5-.1 6.7-.1 1 0 1.7.2 2.4.8.6.6 1 1.3 1 2.2.1 2.8 1.2 5.2 3.4 7.1 2.2 1.9 4.8 2.9 7.7 2.7 3-.1 5.5-1.2 7.6-3.3 2.1-2.1 3-4.5 2.9-7.3-.3-7.3-.7-14.5-1-21.8-3.9 1.8-7.4 2.7-10.5 2.8-6.5.2-12.2-1.8-16.9-6.2-4.7-4.3-7.1-9.7-7.2-15.9 0-3.1-.1-6.2-.2-9.3-.1-6.2 2.1-11.5 6.4-16 4.4-4.5 9.6-6.9 15.8-7.1 6.3-.2 11.7 1.7 16.4 5.9 4.7 4.2 7.3 9.3 7.6 15.5 1 17.1 2 34.3 3 51.4.4 6.2-1.7 11.7-6.3 16.4-4.6 4.7-10.3 7.2-17.1 7.4-6.7.2-12.6-1.8-17.5-6.2s-7.4-9.7-7.5-15.9m12.2-42.4c.1 2.8 1.2 5.2 3.3 7.1 2.1 1.9 4.6 2.9 7.5 2.8 2.8-.1 5.3-1.2 7.3-3.3 2-2.1 2.9-4.5 2.8-7.3-.1-3.1-.3-6.2-.4-9.3-.1-2.7-1.3-5-3.4-6.9-2.1-1.9-4.6-2.8-7.3-2.7-2.8.1-5.1 1.2-7.1 3.2s-2.9 4.4-2.8 7.1c-.1 3 0 6.1.1 9.3M1378.7 2223.8c-1.3-17.1-2.5-34.3-3.8-51.4-.4-6.2 1.4-11.6 5.6-16.4 4.1-4.8 9.3-7.4 15.5-8 6.2-.6 11.7 1.1 16.6 5 4.9 3.9 7.7 8.9 8.4 15 .1.9-.1 1.7-.7 2.3-.5.7-1.2 1.1-2.1 1.2-2.1.2-4.3.5-6.4.7-.9.1-1.7-.1-2.4-.7-.7-.5-1.1-1.2-1.2-2.1-.3-2.7-1.5-5-3.7-6.7-2.2-1.8-4.6-2.5-7.4-2.2-2.8.3-5.2 1.5-7 3.6-1.9 2.1-2.7 4.6-2.5 7.3.3 4.1.7 8.2 1 12.3 3.3-1.9 6.7-3 10.3-3.3 6.4-.6 12 1 17 4.9 5 3.9 7.9 8.9 8.6 15.1.7 6.3 1.5 12.6 2.2 19 .7 6.2-1 11.8-5.3 16.7-4.3 4.9-9.8 7.8-16.5 8.4-6.8.6-12.8-1.1-18-5.1-4.9-4.3-7.7-9.4-8.2-15.6m13.4-1.1c.2 2.8 1.5 5.1 3.8 6.9 2.3 1.8 5 2.6 8 2.3 2.9-.3 5.4-1.5 7.3-3.7 1.9-2.2 2.7-4.7 2.4-7.5-.7-6.3-1.3-12.7-2-19-.3-2.7-1.5-5-3.8-6.7-2.2-1.8-4.8-2.5-7.6-2.2-2.9.3-5.3 1.5-7.2 3.6-1.9 2.1-2.8 4.6-2.5 7.3.5 6.3 1.1 12.7 1.6 19M1446.8 2236.5c-.8-6.3-1.7-12.6-2.5-18.9-.4-3.1-.5-5.2-.2-6.3.3-1.1 1.5-3.4 3.5-6.9 7.9-13.2 15.5-26.5 23-39.9.3-.6.3-1.7 0-3.4-.4-2.7-1.8-4.9-4.1-6.5-2.3-1.6-4.9-2.2-7.7-1.8-2.7.4-5 1.7-6.7 4-1.7 2.2-2.4 4.7-2 7.4.3 2.2.6 4.5 1 6.7.1.8-.1 1.5-.6 2.3-.5.8-1.2 1.2-2.1 1.3-2.2.3-4.3.6-6.5.9-.9.1-1.7-.1-2.4-.7s-1.2-1.2-1.3-2c-.3-2.2-.6-4.5-.9-6.7-.8-6.1.8-11.7 4.6-16.6 3.8-5 8.8-7.9 14.9-8.9 6.2-.9 11.8.4 17 4 5.1 3.6 8.3 8.4 9.4 14.5.6 3.2.7 5.3.5 6.4-.2 1.1-1.3 3.3-3.2 6.7-7.4 13.6-15 27-22.8 40.4-.4.5-.5 1.6-.3 3.2.5 3.2.9 6.4 1.4 9.6 10.6-1.5 21.2-3.2 31.7-5 .9-.2 1.7 0 2.5.5s1.2 1.2 1.4 2c.4 2 .7 4.1 1.1 6.1.1.8-.1 1.5-.6 2.3-.5.8-1.3 1.2-2.1 1.4-14 2.4-28.1 4.6-42.2 6.5-.9.1-1.7-.1-2.5-.7-.7-.5-1.2-1.2-1.3-1.9M189.4 1069.5l-23.8-6.6 28.2-101.4 23.8 6.6-10.1 36.4 97.3 27-7.9 28.6-97.3-27-10.2 36.4zM235 854l27.2-54.5c13-26.1 37.4-36.6 59.5-25.6 15 7.5 22.4 23.6 19.8 40.6l56.5-5.8-14.8 29.7-50.4 2.5-11.4 22.9 39.4 19.6-13.3 26.6L235 854zm33.3-16.6 34.3 17.1 11.8-23.7c6.2-12.5 4.1-25.4-6-30.4-11.1-5.5-22.1.8-28.3 13.3l-11.8 23.7zM469 703.4l-17.4 24-101.8-73.8 17.4-24L469 703.4zM567.8 539.4l-63-64.2 20.2-19.8 88.1 89.7-23.7 23.3-98.6-28.9 62.8 64-20 19.7-88.1-89.7 23.7-23.3 98.6 29.2zM718.8 465.3l-24.4 16.9L622.7 379l24.4-16.9 71.7 103.2zM752.4 325.6l-10.8-22.2 94.7-45.9 10.8 22.2-34 16.5 44.1 90.9-26.7 13-44.1-90.9-34 16.4zM932.9 220.6l30.3-8.3 41.6 46.5 11.1-60.8 30.8-8.4-20.7 90.6 11.5 42.3-28.6 7.8-11.5-42.3-64.5-67.4zM1467.3 174.7l29.9 2.7-45.2 122.2-42.6-3.8-13.3-90.4-29.3 86.5-42.7-3.9-22.8-128.3 30.1 2.7 17.4 103.3 34.4-98.7 32.7 3 15.7 103.2 35.7-98.5zM1669 333.2l-7.4 22.6-85.6-28.1 39.2-119.5 83.9 27.6-7.4 22.6-56.7-18.6-8.4 25.7 50 16.4-6.5 19.8-50-16.4-9.4 28.7 58.3 19.2zM1765.7 355.8l23.3 12.9c-6.6 11.9-.6 26.3 14.2 34.5 12.8 7.1 24.1 5 28.4-2.9 12.9-23.3-66.3-41.4-42.1-85.2 12-21.6 38.5-26.3 65.1-11.6 26.7 14.8 37.2 41.5 25 63.6l-22.6-12.5c6.1-10.7.7-23.8-12.6-31.2-12.2-6.7-23.6-5.5-27.8 2.2-12.4 22.4 66.8 40.9 42.5 85-12.1 22-39.4 27.2-67.4 11.8-28-15.5-38.8-43.4-26-66.6z"/><g><path d="m1972.8 412.7 15.7-19.1 81.4 66.7-15.7 19.1-29.2-24-64.1 78.1-22.9-18.8 64.1-78.1-29.3-23.9z"/></g><g><path d="m2131.1 675.5-18.2 15.4-58.3-68.7 95.8-81.4 57.1 67.3-18.2 15.4-38.6-45.5-20.6 17.5 34.1 40.1-15.9 13.5-34.1-40.1-23 19.5 39.9 47z"/></g><g><path d="m2278.1 708.2 29.8 53.1c14.2 25.4 9.2 51.5-12.3 63.6-14.6 8.2-32.1 5.2-44.7-6.5l-27 50-16.2-29 26.3-43.1-12.5-22.3-38.4 21.5-14.5-25.9 109.5-61.4zm-5 36.9-33.4 18.7 13 23.1c6.8 12.2 18.6 17.7 28.5 12.2 10.8-6 11.8-18.7 4.9-30.9l-13-23.1z"/></g><g><path d="m2320.8 1025.5 85.7-27 8.5 26.9-119.9 37.8-10-31.7 70.5-74.8-85.6 27-8.4-26.8 119.9-37.8 10 31.7-70.7 74.7z"/></g><g><path d="m599 1619.6 14-3.7c10-2.4 20.4-4.1 31-5.1 10.6-1.1 20.4-.3 29.5 2.3 10.7 2.9 19.2 7.6 25.5 14 6.3 6.4 11.2 13.3 14.5 20.7 6.5 15.1 8.3 30.9 5.4 47.4-2.9 16.5-8.7 32.7-17.5 48.5-7.9 13.7-17.6 27.1-29.2 40.2-11.6 13.1-25 25.2-40.2 36.2-15.3 11.1-32.1 20.8-50.4 29.2-18.4 8.4-38.2 14.7-59.3 18.7-11.7 2.2-23.2 3.4-34.5 3.5-11.3.1-21.8-1-31.6-3.2-9.8-2.3-18.5-5.7-26.3-10.3-7.8-4.6-14-10.5-18.6-17.6-4.6-6.9-7.6-14.4-8.9-22.3-1.4-7.9-1.6-15.9-.7-24.2.9-8.2 2.8-16.5 5.8-24.8s6.5-16.3 10.6-24c7.9-15 18-29.5 30.3-43.5 12.2-14 26.3-27.1 42.4-39.3 8.2-6.6 17-12.7 26.2-18.4 9.2-5.7 19.1-10.8 29.7-15.5 9.9-4.5 19.8-7.6 29.7-9.3 6.1-.7 11.8-.8 17.1-.4l5.5.9zm10.7 40.3c4.6 1.9 8.5 4.5 11.5 7.6 3.1 3.1 5.3 6.5 6.9 10.1 1.5 3.6 2.5 7.5 2.9 11.5.4 4 .4 7.9-.3 11.5-1.9 15.8-10.2 30.6-24.9 44.6-6.7 6.3-14.9 11.8-24.6 16.5-9.8 4.7-19.8 7.9-30.1 9.7-10.3 1.8-20.3 1.8-30 0-9.7-1.7-17.7-5.8-24.2-12.1-5.6-5.2-9-11.1-10.3-17.6-1.2-6.5-1.3-13.3 0-20.5-8.5 12.1-15.9 24.6-22.1 37.5-6.2 12.9-10 25.1-11.4 36.4-1.9 14.1-.3 25.3 4.8 33.8 5.1 8.5 12.3 14.3 21.8 17.3 9.4 3.1 20.6 3.5 33.5 1.4 12.9-2.1 26.3-6.8 40.3-13.9 14-7.1 28.1-16.7 42.2-28.8 14.1-12 27.1-26.4 38.9-43 5.1-7.5 10.2-15.9 15.3-25.3 5.1-9.3 9.6-18.8 13.5-28.3 3.9-9.6 7-19 9.3-28.4 2.3-9.4 3.3-17.8 3-25.2-.3-7.4-2.2-13.6-5.8-18.5-3.6-4.9-9-7.8-16.4-8.8-13.1-1.8-26.8 0-41 5.6-14.2 5.5-27.4 13.1-39.7 22.6-12.3 9.5-22.9 20.1-31.8 31.7-8.9 11.6-14.8 22.6-17.8 32.9-.8 2.8-.9 5.8-.5 9.1.5 3.3 1.7 6.1 3.6 8.4 1.9 2.4 4.6 3.9 8 4.7 3.4.8 7.8-.1 13.2-2.7 9-4.1 17.3-9.8 24.8-17 7.5-7.2 13.9-14.7 19.3-22.4 5.4-7.8 9.6-15.3 12.6-22.6 3.3-7.5 5-13.4 5.5-17.8z"/></g><g><path d="M947.4 1636.8c-3.2 7.1-6.9 14.7-11.1 22.5-4.2 7.9-8.5 15.9-12.8 24-4.3 8.1-8.5 16.3-12.7 24.6-4.1 8.3-7.4 16.4-9.8 24.3-3.5 12.2-2.8 20 2.1 23.4 4.9 3.4 11.1 3 18.4-1.3 6.2-3.6 12.4-8.4 18.6-14.5s12.1-12.7 17.8-19.9c5.6-7.2 10.9-14.5 15.7-21.8 4.8-7.3 8.9-14.2 12.2-20.5 4.2-2.1 7.6-3.2 10.2-3.1 2.6 0 4.6 1.8 5.9 5.2-7.7 14.3-15.6 27.6-23.7 39.8-8.1 12.2-17.9 24.1-29.4 35.7-4.9 5.1-11.1 10.1-18.5 15s-15.2 8.9-23.5 11.9-16.6 4.5-24.9 4.5c-8.4 0-16-2.5-22.8-7.5-7.6-5.3-12.2-11.4-13.9-18.3-1.7-7-1.6-14.2.2-21.7-6 8.1-12.4 16.3-19.3 24.6s-14.3 15.7-22.3 22.1c-7.9 6.4-16.1 11.4-24.4 14.9-8.3 3.5-16.8 4.5-25.2 3.1-7.5-1.4-13.2-3.8-17.2-7.4-4-3.6-6.8-7.7-8.6-12.4-1.7-4.7-2.4-9.6-2.2-14.9.3-5.3 1-10.2 2-14.8 2.7-11.6 6.8-23.2 12.4-34.9 5.6-11.6 12.4-23 20.4-34.1 1.8-2.5 4.1-5.6 6.8-9.3 2.7-3.7 5.8-7.3 9.2-10.9 3.4-3.6 6.9-7 10.6-10.2 3.6-3.2 7.3-5.6 10.9-7.2 5.4-2.4 10.6-3.9 15.6-4.7 4.9-.7 9.4-.9 13.4-.5s7.6 1.1 10.7 2c3.1.9 5.6 1.8 7.4 2.8-4 4.7-8.2 10.1-12.6 16.2s-8.9 12.4-13.5 19.1c-4.6 6.7-9 13.4-13.3 20.2-4.3 6.8-8.2 13.3-12 19.5-9.4 15.7-14.7 27.3-15.9 34.6-1.2 7.3-.1 11.5 3.4 12.5 3.5 1.1 8.6-.5 15.3-4.6 6.7-4.1 13.5-9.8 20.3-17 5.2-5.4 10-10.7 14.3-16.2 4.4-5.4 8.8-10.9 13.2-16.6 9.9-13 18.6-26.3 26-39.8 7.4-13.5 15.4-27.3 24.2-41.4 2.3-3.5 4.8-6.3 7.5-8.5s6.8-3.2 12.4-3.2c15.1.1 24.8 1.4 29 3.8 4.4 2.6 5.5 6.2 3.5 10.9z"/></g><path d="M977.6 1604.2c8.4-.8 16.9-2.1 25.5-4 8.6-1.9 17.5-4.2 26.5-6.8l2.6-4.1c4.1-7.8 8.1-15.5 12.2-23.1 4.1-7.7 8.1-15.4 12.2-23.1 1.7-2.9 3.2-5.9 4.4-8.9 1.2-3 3.4-5.7 6.5-8.3 2.3-1.8 5.4-2.8 9.5-3.2 4-.4 8-.3 11.8.1 3.9.4 7.3 1.2 10.3 2.4 3 1.2 5 2.3 5.8 3.4 1.8 2.7 2.3 5.1 1.4 7.4-.9 2.2-2 4.8-3.4 7.7l-12 26.8-2.1 4.3c3.4-1.1 6.6-2.1 9.5-3 2.9-.9 5.9-1.9 9-2.9 9-2.8 18.6-5.7 28.8-8.6 10.3-2.9 20.9-5.6 31.8-8.2l12.8-19.8c4.3-6.5 8.8-13 13.4-19.6 4.6-6.6 10.2-12.5 16.6-18 4.8-4 9.9-7.4 15.2-10.2 5.4-2.8 10.5-5 15.4-6.6 4.9-1.6 9.4-2.6 13.4-3 4-.4 7.4-.2 10.2.6-2.2 2.4-5 6.3-8.5 11.6-3.5 5.4-7.4 11.4-11.7 18.1-4.3 6.7-8.5 13.6-12.7 20.6-4.2 7-7.8 13.1-10.7 18.3 4.9.1 9.6.4 13.9.9 4.3.5 8.4 1.2 12.2 2.2 3.5 1.1 6.4 2.5 8.7 4.3s2.9 4.1 1.8 6.7c-.8 2.6-2.1 3.8-3.9 3.7-1.8-.1-5 .1-9.5.6-5.8.7-11.3 1.9-16.5 3.6-5.3 1.7-10.5 3.4-15.7 5l-6.9 2.3-9.6 18.8c2.6 9.9 3.6 20.2 3.1 30.9s-1.7 21.3-3.6 31.9c-5.2 25.4-13.1 50.2-23.8 74.5-5.5 12.2-11.8 24.2-19 36.2-7.2 12-15.9 23.5-26.2 34.7-4.6 5-10 9.9-16.3 14.6-6.3 4.7-13.7 7.7-22.3 9-5.7.9-11.1.9-16.2.1-5.1-.9-9.2-2.7-12.4-5.6-4.3-3.7-7-8.1-8-13.3-1-5.1-1-10.5 0-16.2 1-5.6 2.6-11.2 4.8-16.8 2.2-5.5 4.1-10.7 5.8-15.3 1.7-4.7 3.6-9.4 5.6-14.1s4-9.5 6.1-14.2c-1.9 1.9-3.9 3.6-5.9 5.2-2 1.6-4.1 3.2-6.5 4.7-6.6 5-14.7 9.2-24.3 12.6-9.7 3.4-19.4 5.2-29.2 5.4-7.1.3-13.4-.8-18.9-3.5-5.4-2.6-9.4-6.1-11.9-10.4-2.8-4.4-4.5-9.2-5-14.4s-.2-10.4.8-15.8c1.1-5.4 2.6-10.8 4.5-16.1 1.9-5.3 3.9-10.4 5.8-15.3 4-9.7 8.4-19.3 13.3-28.7 4.9-9.4 10-18.8 15.4-28.1l-8.9-.2c-6.3-.5-11.9-1.4-16.7-2.6-4.8-1.2-8.3-3.1-10.5-5.8-.9-1.3-1.5-3.1-1.8-5.4.2-2.2 1.4-4.2 4-6zm104.5 93.7c6.7-7.4 12.7-14.9 17.7-22.4 6.1-12.3 12.5-24.4 19.2-36.4 6.7-12 13.4-24.1 20.2-36.3l4.7-8.8c-12 3.9-24.2 7.5-36.5 10.9-12.3 3.4-24.6 6.5-36.8 9.3-4.1 9.1-8.4 18.1-12.9 27-4.5 8.9-8.8 17.8-13 26.7-.9 1.9-2.7 5.5-5.3 10.7-2.6 5.2-5.2 10.9-8 17.1-5.4 12.6-7.5 21.5-6.3 26.9 1.2 5.3 4.6 7.8 10 7.3 5.5-.4 12.4-3.5 20.8-9.1 8.6-5.7 17.2-13.3 26.2-22.9zm55.1 55.1c13.6-20.9 24.5-42.4 32.6-64.5 4.4-11.1 7.9-22.1 10.5-32.9 2.6-10.8 4.2-21.8 4.6-32.7.3-1.8.4-3.5.2-5.3-.2-1.7-.3-3.4-.3-5.2-8.7 16.1-17.7 31.9-27.1 47.6-9.4 15.7-18.4 31.5-27.1 47.6-4.6 8.1-9.1 16.3-13.4 24.5-4.3 8.2-8.4 16.5-12.3 24.9-1.8 4.3-3.6 8.6-5.3 13-1.8 4.4-3.3 8.9-4.7 13.5-1.8 6-2.2 9.7-1.3 11.2.9 1.4 2.5 1.6 4.8.5s5-3 8.2-5.9c3.2-2.8 6.2-5.6 9-8.3 4-4.5 7.8-9.1 11.3-13.8 3.5-4.7 6.9-9.4 10.3-14.2z"/><g><path d="M1340.8 1540.9c-3.2 3.7-6.8 8.6-10.8 14.9-4 6.2-7.8 12.6-11.5 19.2-3.6 6.6-7 12.9-10.3 19-3.2 6.1-5.6 11-7.2 14.8-3.1 7.4-6.1 14.7-8.9 22-2.8 7.3-5.2 14.6-7 21.9-1.3 6.8-1.5 12.2-.5 16.3 1 4.1 3.3 6.4 7 6.9 3.7.6 8.7-.8 14.9-4.1 6.2-3.3 14-9 23.2-17.1 8.9-8.1 17.1-16.6 24.4-25.7 7.4-9.1 13.5-18.2 18.2-27.4 8-4.4 13.4-3.7 16.1 2-5.5 10.2-12 20.6-19.4 31.1-7.4 10.5-16 20.5-25.6 30-14.7 15.3-28.5 26.3-41.5 32.8-13 6.6-24.8 9.4-35.5 8.5-11.3-.8-19.4-4.2-24.4-10-4.9-5.9-7.9-12.3-9-19.3-1.9-13.1-1-26.6 2.8-40.5 3.8-13.9 9.4-27.4 16.6-40.3 4.4-7.8 9.2-15.9 14.7-24.1 5.4-8.3 12.1-15.7 20-22.2 2.8-2.3 6.5-4.4 11.1-6.3 4.5-1.9 9.4-3.3 14.7-4.2 5.2-.9 10.3-1.3 15.3-1.2 5.1 0 9.3 1 12.6 3zm-6.3-29.4c-7.2-.1-13.8-1.7-19.6-4.8-5.9-3.1-8.6-7.7-8.2-13.9.3-5.3 1.4-10.5 3.5-15.7 2.1-5.2 7-9.1 14.7-11.7 4.3-1.3 8.7-2.1 13-2.6 4.3-.4 8.7-.5 13-.3 9.9.2 16.5 1.9 19.9 4.9 3.4 3 5.4 5.4 6.1 7 1.5 4.1 1.7 8.3.8 12.6-1 4.3-3.3 8.4-7.2 12.2-4.4 4.1-9.9 7.2-16.4 9.3-6.5 2-13 3-19.6 3z"/></g><path d="M1491.3 1452.3c1.8 2.7 2.3 5.1 1.5 7.4-.9 2.2-2 4.8-3.4 7.7l-2.1 4.3c11.6-2.9 24-6 37.3-9.2 13.3-3.2 26.4-6.2 39.3-8.9l11.3-22.5c1.7-3 3.2-5.9 4.4-8.9 1.2-3 3.4-5.7 6.5-8.3 2.3-1.8 5.4-2.8 9.5-3.2 4-.4 8-.3 11.8.1 3.9.4 7.3 1.2 10.3 2.4 3 1.1 5 2.3 5.8 3.4 1.8 2.7 2.3 5.1 1.5 7.4-.9 2.2-2 4.8-3.4 7.7-1.2 2.2-2.3 4.4-3.1 6.5-.9 2.1-1.8 4.3-2.7 6.4 10.3-1 19.1-.8 26.4.5 7.3 1.3 12.7 3.9 16.1 7.7 2.2 2.6 2.8 4.6 1.9 5.8-.9 1.3-3.4 2.4-7.4 3.4-8.1 2.1-16.5 4.2-25.1 6.4-8.6 2.3-17.1 4.5-25.5 6.9l-14.3 29.6-29.6 61.7c-.9 1.9-2.7 5.5-5.3 10.7-2.6 5.2-5.2 10.9-7.9 17.1-5.4 12.6-7.5 21.6-6.2 26.9 1.2 5.3 4.6 7.7 10.1 7.3 5.5-.4 12.4-3.5 20.8-9.2 8.4-5.7 17-13.3 26-22.9 6.2-6.9 11.7-13.9 16.5-21.1 4.8-7.2 9.4-15.2 13.9-24.1 8.8-5.2 14.3-4.6 16.6 1.9-3.8 7.3-7.9 14.6-12.4 22s-9.5 14.7-15.1 21.9c-5.6 7.2-11.7 14.2-18.2 21.1-6.5 6.8-13.8 13.1-21.8 18.9-6.6 5-14.7 9.2-24.3 12.7-9.7 3.4-19.4 5.3-29.2 5.5-7.2.3-13.4-.8-18.9-3.4-5.4-2.6-9.4-6.1-11.9-10.4-3.2-4.4-4.9-9.6-5.1-15.6-5.2 6.7-10.9 13.1-17.1 19.2s-13 11.9-20.4 17.3c-6.6 5-14.7 9.2-24.3 12.7s-19.4 5.3-29.2 5.5c-7.1.3-13.4-.8-18.9-3.4-5.4-2.6-9.4-6.1-11.9-10.4-2.9-4.4-4.5-9.2-5.1-14.3-.5-5.1-.3-10.4.8-15.8s2.5-10.8 4.4-16.1c1.9-5.3 3.8-10.4 5.8-15.4 5.3-12.8 11.4-25.5 18.3-38.1 6.9-12.6 13.9-25.2 21.2-38l-41.4 12.1c-1.1-7 .1-13.2 3.4-18.6 3.3-5.4 8.1-10.3 14.3-14.6 6.2-4.3 13.3-8.1 21.4-11.4 8-3.3 16.5-6.4 25.5-9.3l10.2-20.3c1.7-3 3.2-5.9 4.4-8.9 1.2-3 3.4-5.7 6.5-8.3 2.3-1.8 5.4-2.8 9.5-3.2 4-.4 8-.3 11.8.1 3.9.4 7.3 1.2 10.3 2.4 3.1.9 5 2.1 5.9 3.2zm5.6 127.5c6.5-15.2 13.8-30.2 21.9-44.8 8.1-14.7 16.4-29.4 25-44.1-12.7 3.6-25.2 7.1-37.5 10.6-12.3 3.4-24.5 6.9-36.6 10.4-1.7 3.2-3.2 6.2-4.6 9.2-1.4 3-2.7 6-4.1 9.1l-29.6 61.7c-.9 1.9-2.7 5.5-5.3 10.7-2.6 5.2-5.2 10.9-7.9 17.1-5.4 12.6-7.5 21.6-6.2 26.9 1.2 5.3 4.6 7.7 10.1 7.3 5.5-.4 12.4-3.5 20.8-9.2 8.4-5.7 17-13.3 26-22.9 10.2-11.2 18.8-23.3 25.7-36.5l2.3-5.5z"/><g><path d="M1698.3 1553.4c-3.4.9-7 1.7-10.6 2.3-3.7.6-7.3 1.1-10.8 1.3-3.3 12.9-3.1 22.8.8 29.9 3.9 7.1 10.3 11.2 19.2 12.5 8.9 1.3 19.9-.4 32.7-4.9 12.9-4.5 26.8-11.9 41.9-22.1 12-8.7 22.5-18.5 31.3-29.3s16-21.3 21.5-31.6c3.3-1.5 6.5-2.5 9.5-3s5.2 1.2 6.7 5c-5.4 10.7-13.1 22-23 34s-21.2 23.5-33.7 34.5c-20.2 17.1-41 29.9-62.2 38.6-21.3 8.6-40.4 11.1-57.6 7.6-13.1-3-23.7-8.3-31.9-15.7-8.2-7.4-12.9-15.9-14.2-25.4-1.4-8.9-.8-18.2 2-28s7.2-19.6 13.1-29.2c5.9-9.7 13.3-18.9 22-27.7s18.5-16.5 29.4-23c10.8-6.5 23.7-12.5 38.5-17.8 14.8-5.4 29.1-8.2 42.8-8.6 6.8-.3 12.7.5 17.7 2.2 4.9 1.7 8.8 4.1 11.5 7.2 2.7 3 4.3 6.6 4.8 10.6s0 8.3-1.4 12.7c-3.5 10.5-10.5 20.2-21 29-10.5 8.9-22.2 16.4-35.1 22.7-14.2 7.2-28.9 12.6-43.9 16.2zm28.7-68.4c-10.3 9-19.5 18.8-27.4 29.3-7.9 10.5-14.2 21.1-19 31.9 4.6-1.8 9.7-4 15.4-6.7 9-4.2 17.6-8.8 25.8-13.8s15.4-10.5 21.8-16.6c5.6-5 10.5-10.6 14.9-16.7s5.6-12.1 3.8-18.1c-.7-3.3-2.6-4.9-5.9-4.7-3.2.2-6.8 1.3-10.7 3.1-3.9 1.9-7.6 4-11 6.4-3.5 2.6-6.1 4.5-7.7 5.9z"/></g><g><path d="M1776.2 1576.5c16.3-18.5 30.5-37.7 42.6-57.7 12.1-19.9 21.6-40.6 28.4-62-4.8-4.1-7.3-8.5-7.6-13.5-.3-4.9.6-9.5 2.9-13.7 2.3-4.2 5.6-7.4 10.1-9.9 4.4-2.4 9.2-3 14.4-1.9 5.8 1.2 8.7 4.1 8.6 8.6-.1 4.5-1 9.1-2.7 13.8 2.4.4 5.1.3 8.1-.3s5.6-1.1 7.8-1.6c8.1-2.1 15.5-4.5 22.2-7.4 3.6-5.1 7.1-8.8 10.6-11.1 3.5-2.3 8.2-2.6 14.1-.7 13.9 4 22.3 8.6 25.2 14 2.9 5.4 1.2 11.4-5 17.8-9.9 12.7-19.4 26-28.4 40s-15.3 26.6-19 37.8c-2.6 8.2-3.2 14.4-1.6 18.8 1.5 4.4 4.5 6.8 8.9 7.4 4.4.5 9.8-.7 16.2-3.7 6.4-3 13.3-7.8 20.5-14.2 8.1-7.3 16.3-16.3 24.6-27.1s15.3-21.8 21-32.9c4.1-2.6 7.6-3.4 10.6-2.6 3 .8 4.8 2.4 5.6 4.6-6.4 12.4-13.2 24-20.3 34.8-7.2 10.8-16.1 21.5-26.8 32.2-8.8 8.7-18 15.8-27.8 21.1-9.8 5.3-19.3 9.2-28.7 11.5-9.4 2.3-18.1 3-26.2 2-8.1-1-14.8-3.5-20.2-7.5-5.4-4-9-9.6-10.8-16.8-1.8-7.2-.9-15.9 2.6-26.2 4.1-12.4 9.8-24.9 17-37.7 7.3-12.8 14.6-23.8 21.9-33.1-2.5.5-4.3.8-5.3.7-2.9.4-6.6.6-11.2.8-4.6.2-9.2 0-13.9-.3-2.3 6.8-5.2 14.8-8.9 24.2-3.7 9.3-8.3 19.1-13.8 29.4-4.5 8.7-9.2 16.9-14.1 24.4s-10.1 14-15.5 19.5c-5.5 5.5-11.2 9.9-17.3 13.3-6.1 2.8-12.4 4.7-18.8 5.2z"/></g><g><path d="M2139.6 1351.8c-3.3 4.6-6.1 10.6-8.2 18-2.1 7.4-3.2 15.3-3.3 23.7-.1 8.4-.1 17.1.1 26.1s.2 18.1.1 27.4c-.1 9.3-1.2 18.4-3.4 27.3 6.8-.3 13.2-1.6 19.2-3.9 5.9-2.3 11.2-5 15.8-8.3 4.6-3.2 8.6-6.7 11.9-10.6 3.3-3.8 5.9-7.7 7.8-11.5 8-4.2 13.4-3.6 16.2 2-4.1 7.4-8.9 14.8-14.5 22.3-5.5 7.5-13.5 14.1-23.9 19.7-6.5 3.7-13.3 6.7-20.3 9-7.1 2.3-14.4 4.1-22.1 5.4-6.5 10-14.4 18.9-23.7 26.7-8.7 7.4-20.1 14.3-34.3 20.6-14.2 6.3-28.5 10.8-43.1 13.4-14.6 2.6-28 2.6-40.2-.1-12.2-2.7-20.8-9.4-26-20.1-2.2-4.6-3.2-9.3-2.9-14.3.3-5 1.7-9.9 4.1-14.9 2.4-5 5.8-9.7 9.9-14.3 4.2-4.5 9.2-8.7 15-12.5 10.8-6.7 22.8-11.5 36.1-14.1 5.2-6.9 10.6-14.1 16.3-21.6 5.7-7.5 11.4-14.9 17.2-22.4 5.7-7.5 11.2-14.8 16.5-21.9 5.3-7.2 10.3-13.8 14.9-20 1.4-2.9 3.2-5.9 5.6-9 2.1-2.8 5.1-5.6 9.1-8.4 4-2.8 8.6-5.3 13.8-7.5 5.1-2.2 10.8-4 16.9-5.2 6.3-.9 12.7-1.4 19.4-1zm-86.8 163.2c3.2-3.9 5.7-8.3 7.7-13.3-7.9-.1-16.1-.8-24.5-1.9-4.4-.4-9.2-.8-14.5-1-5.3-.2-10.6 0-15.9.7-5.3.7-10.2 2.1-14.7 3.9-4.5 1.9-8.4 4.6-11.7 8.1-2.1 2.6-3.6 5.5-4.4 8.6-.9 3.1-.7 6.1.6 8.9 2.5 5.8 7 9.7 13.4 11.5 6.5 1.9 13.6 2.1 21.3.6 7.8-1.4 15.5-4.4 23.3-8.9 7.7-4.5 14.2-10.2 19.4-17.2zm16.4-97c-5.7 7.5-11.8 15.4-18.1 23.7-6.4 8.4-12.7 16.5-18.9 24.6 6.2-.2 12.6-.1 19.2 0l19.1 1.7c.9-8.5 1-16.9.1-25.2-1-8.3-1.4-16.6-1.4-24.8z"/></g></svg>