<svg xmlns="http://www.w3.org/2000/svg" width="612" height="792" style="enable-background:new 0 0 612 792" xml:space="preserve"><path d="m246.7 166.4-.4 1.7c-.3 1.4-.1 2.6 1.7 2.6 1.3 0 2.1-1.2 2.4-2.4.4-2-1.1-2.7-2.3-3.6-1.5-1-2.7-1.9-3.5-3.1-.8-1.2-1-2.6-.6-4.7.9-4.4 4.1-6.7 8.4-6.7 4.8 0 6.6 3.2 5.4 7.7h-5.1c.2-1.4.7-3.3-1.1-3.4-1.1-.1-1.9.5-2.3 1.6-.5 1.4.1 2.1 1.1 2.9 1.8 1.3 3.4 2.1 4.5 3.3 1 1.2 1.5 2.8.8 5.6-1 4.5-4 7.1-8.6 7.1-5.1 0-6.6-2.8-5.9-6l.5-2.5h5zM257.9 160.3l.8-3.6h2l1.1-5h5l-1.1 5h2.4l-.8 3.6h-2.4l-2 9.3c-.2 1 .2 1.2.8 1.2.6-.1.8-.1 1.3-.1l-.8 3.5c-1.1.2-2.2.3-3.3.3-2.7 0-3.9-1.4-3.3-4.1l2.2-10.2h-1.9zM272.3 163l.2-1.2c.3-1.2.8-2.4 2.3-2.4 1.3 0 1.5 1.2 1.3 1.8l-.4 1.7h-3.4zm7.8 3.3 1.1-5c.8-3.8-2.2-5.1-5.7-5.1-3.9 0-7.1 1.5-8 6l-1.5 7.2c-.9 4 2 5.5 5.6 5.5 4.4-.1 7.3-2.1 8-6.7h-5c-.4 1.5-.6 3.2-2.4 3.1-1.1-.1-1.4-.9-1.1-1.9l.7-3.1h8.3zM287.5 163l.2-1.2c.3-1.2.8-2.4 2.3-2.4 1.3 0 1.5 1.2 1.3 1.8l-.4 1.7h-3.4zm7.7 3.3 1.1-5c.8-3.8-2.2-5.1-5.7-5.1-3.9 0-7.1 1.5-8 6l-1.5 7.2c-.9 4 2 5.5 5.6 5.5 4.4-.1 7.3-2.1 8-6.7h-5c-.4 1.5-.6 3.2-2.4 3.1-1.1-.1-1.4-.9-1.1-1.9l.7-3.1h8.3zM295.2 174.3l5-23.6h5l-5 23.6h-5zM318.6 154.9c2.7.1 3.6.2 3 3l-1.6 7.7c-.6 3.2-.9 4.7-4.6 4.4l3.2-15.1zm-2.2 19.4c1.7 0 3.5-.2 5.1-1.1 1.8-1 2.9-2.7 3.4-5.1l2.2-10.5c.5-2.3.6-4.6-1.2-5.8-1.6-1-4-1.1-6-1.1h-6l-5 23.6h7.5zM332 168l4.2-11.4h4.9l-6.4 15.1c-2.3 4.8-3 8.5-8.5 8.5-.9 0-1.4-.2-2-.2l.8-3.7c.3 0 .6.1.9.1.5.1 1.6-.2 1.7-.9.2-.8.1-2.2.1-3l-.1-16h5L332 168zM347 156.6l-.5 2.2h.1c.8-1.4 2.5-2.7 4.1-2.7 2.4 0 4.2 1.3 3.7 3.7l-3.1 14.5h-5l2.7-12.6c.1-.8-.1-1.5-1-1.4-.9 0-1.5.5-1.7 1.4l-2.7 12.6h-5l3.8-17.6h4.6zM362.9 168.5c-.3 1.1-.9 2.7-2.4 2.7-1.2 0-1.7-.8-1.5-1.9.3-1.2.9-1.8 1.6-2.3.7-.5 1.7-.8 2.8-1.3l-.5 2.8zm-.7 5.8h4.9c-.1-.6-.1-1.3 0-2l2.3-10.8c.8-3.9-.7-5.4-5.6-5.4-4 0-7.3 1.7-8.1 6.1h5c.4-1.5.7-2.7 2.5-2.7 1 0 1.4.9 1.2 1.8-.4 1.9-2.6 2.1-4.9 2.8-2.4.7-4.8 2-5.7 6-.6 2.8.8 4.7 3.6 4.7 2 0 3.2-.8 4.8-2.1v1.6zM376.3 156.6l-.4 2h.1c1.2-1.6 2.9-2.5 4.3-2.6 1.6-.1 3 .9 3.2 2.3h.1c1.2-1.6 2.7-2.3 4.1-2.3 2.4 0 4.2 1.3 3.7 3.7l-3.1 14.5h-5l2.7-12.6c.1-.8-.1-1.5-1-1.4-.9 0-1.5.5-1.7 1.4l-2.7 12.6h-5l2.7-12.6c0-.8 0-1.4-.9-1.4-1 0-1.5.5-1.8 1.4l-2.7 12.6h-5l3.8-17.6h4.6zM390 174.3l3.8-17.6h5l-3.8 17.6h-5zm4.2-19.4.9-4.3h5l-.9 4.3h-5zM407.7 163.2v-.3c0-.7.2-1.4.2-2-.1-.7-.4-1.1-1.1-1.1-1.3 0-1.7 1-2 2.1l-1.5 7.3c-.2 1.1-.1 2 1.2 2 1.9 0 2.1-2.8 2.4-4.1h4.9c-.2 1-.8 3.2-1.3 4.2-1.1 2.2-3.2 3.2-5.5 3.4-.5 0-.9.1-1.7.1-3.6 0-5.9-1.4-5-5.5l1.5-7.2c1-4.5 3.6-6 7.5-6 4.9.1 6.4 2.2 5.1 7.1h-4.7zM422 161.9c.1-1.2.5-2.4-1.2-2.4-1 0-1.8.4-2 1.5-.2.9.5 1.4 1.2 1.8 2.9 1.5 6.2 2.3 5.4 6.5-.8 3.9-4.2 5.6-7.9 5.6-4 0-6.4-1.7-5.3-6h4.8c-.3 1.2-.3 2.6 1.2 2.6 1.1 0 1.9-.5 2.2-1.7.1-.5 0-1-.4-1.4-1.8-1.1-4.4-1.8-5.6-3.6-.6-1-.8-2-.6-3.3.8-3.8 4.2-5.4 7.7-5.4 3.7 0 6.2 1.8 5.2 5.7H422zM166.6 170.7l1.3 1.2c1 1 2.2 1.6 3.5.3.9-.9.4-2.2-.5-3.1-1.5-1.5-3.2-.9-4.9-.5-1.9.5-3.6.8-5.2.7-1.6-.2-3.1-.8-4.7-2.4-3.4-3.3-3.2-6.9-.3-9.9 3.3-3.4 7.5-2.7 10.7.7l-3.5 3.6c-1.1-1-2.5-2.4-3.8-1.2-.9.7-.8 1.7-.1 2.5 1 1.2 2 1.2 3.4 1 2.4-.5 4.3-1.1 6.1-1.2 1.8 0 3.5.6 5.7 2.8 3.4 3.4 3.6 7 .4 10.3-3.5 3.6-7.1 3-9.5.7l-1.9-1.9 3.3-3.6zM168.9 151c1.9-1.9 2.7-2.4 4.8-.4l5.9 5.7c2.5 2.3 3.6 3.4.8 5.9L168.9 151zm16.1 13.1c1.2-1.2 2.3-2.6 2.6-4.3.3-1.9-.5-3.7-2.2-5.5l-8-7.8c-1.7-1.7-3.7-3.2-6.1-2.6-2 .5-3.8 2.2-5.2 3.6l-4.2 4.2 17.9 17.6 5.2-5.2zM191.1 157.7l-17.9-17.6 3.8-3.9 17.9 17.6-3.8 3.9z"/><path style="fill:#bf2f38" d="M181.2 129.7h21.6l33.1 32.7-33 34h-21.7l33.2-33.4z"/><path d="M428.7 157.8c0-1.9 1.2-4 4-4 2.6 0 4 1.9 4 4 0 2.2-1.6 4-4 4-2.8 0-4-2.1-4-4zm1 0c0 1.8 1.2 3.1 3 3.1s3.1-1.3 3.1-3.1-1.3-3-3.1-3-3 1.2-3 3zm2.1 2.2h-1v-4.4h2.4c.9 0 1.5.4 1.5 1.3 0 .8-.4 1.1-1.2 1.2l1.1 1.8h-1.1l-1-1.7h-.7v1.8zm1.2-2.5c.5 0 .7-.1.7-.6s-.5-.5-.9-.5h-1.1v1.1h1.3z"/></svg>