<svg version="1.1" id="Layer_1" xmlns="http://www.w3.org/2000/svg" x="0" y="0" width="750" height="181" style="enable-background:new 0 0 750 181" xml:space="preserve"><style>.st0{fill:#242929}.st1{fill:#ff671d}</style><path class="st0" d="m631.8 8.8-21.4 21.4 21.4 21.4 21.3-21.4-21.3-21.4"/><path class="st1" d="m610.4 90.5 21.4-21.4 21.3 21.4-21.3 21.4-21.4-21.4M640.5 60.3 661.9 39l21.4 21.3-21.4 21.4-21.4-21.4"/><path class="st0" d="m610.4 150.8 21.4 21.4 21.3-21.4-21.3-21.4-21.4 21.4"/><path class="st1" d="m640.5 120.6 21.4-21.3 21.4 21.3-21.4 21.4-21.4-21.4M670.7 90.5l21.4-21.4 21.3 21.4-21.3 21.4-21.4-21.4M105.5 126.3H88.9c-1.1 0-2-.3-2.6-.8-.7-.5-1.2-1.1-1.6-1.9l-14.3-25c-.3.7-.6 1.3-.9 1.9l-13.4 23.2c-.5.7-1 1.3-1.6 1.8-.6.6-1.4.8-2.4.8H36.6l23-36.8-22.2-34.8H54c1.1 0 1.9.1 2.4.4s1 .7 1.4 1.4L72 80.6l.6-1.2c.2-.4.5-.8.7-1.2l12.5-21.4c.5-.7.9-1.2 1.4-1.6.5-.3 1.1-.5 1.9-.5H105l-22.4 34 22.9 37.6"/><path class="st0" d="M161 108.7c.8 0 1.5.3 2.1.9l5.8 6.2c-2.9 3.7-6.5 6.4-10.7 8.3-4.3 1.9-9.4 2.8-15.3 2.8-5.3 0-10.1-.9-14.4-2.7-4.3-1.8-7.9-4.3-10.9-7.6-3-3.2-5.3-7.1-6.9-11.5-1.6-4.5-2.4-9.3-2.4-14.6 0-3.5.4-6.9 1.2-10.1.8-3.2 1.9-6.1 3.4-8.8 1.5-2.7 3.2-5.1 5.3-7.3 2.1-2.2 4.4-4 7-5.5s5.5-2.7 8.6-3.5c3.1-.8 6.4-1.2 9.9-1.2 2.6 0 5.1.2 7.4.7 2.3.5 4.5 1.1 6.6 1.9 2 .8 3.9 1.8 5.6 3 1.7 1.2 3.3 2.4 4.6 3.8l-5 6.8c-.3.4-.7.8-1.1 1.1-.5.3-1.1.5-1.9.5-.8 0-1.6-.3-2.4-.8-.8-.6-1.8-1.2-2.9-1.9-1.2-.7-2.6-1.3-4.4-1.9-1.7-.6-4-.8-6.7-.8-3 0-5.7.5-8.2 1.6-2.5 1.1-4.6 2.6-6.4 4.7-1.8 2-3.2 4.6-4.2 7.5-1 3-1.5 6.4-1.5 10.2 0 3.8.5 7.2 1.6 10.2 1.1 3 2.5 5.5 4.4 7.6 1.8 2.1 4 3.6 6.5 4.7s5.1 1.6 7.9 1.6c1.7 0 3.2-.1 4.5-.2 1.4-.2 2.6-.4 3.8-.8 1.2-.4 2.3-.9 3.3-1.5s2.1-1.4 3.1-2.4c.4-.3.7-.5 1.1-.7.7-.2 1.1-.3 1.6-.3M192 66.6v18.3h23.8V96H192v18.7h30.5v11.6h-45.3V55h45.3v11.6H192M275.8 114.3v12h-42.3V55h14.8v59.3h27.5M299.6 66.6v18.3h23.8V96h-23.8v18.7h30.6v11.6h-45.4V55h45.4v11.6h-30.6M363.5 88.8c2.4 0 4.4-.3 6.2-.9 1.7-.6 3.2-1.4 4.3-2.5 1.1-1.1 1.9-2.3 2.5-3.8.5-1.4.8-3 .8-4.7 0-3.4-1.1-6-3.4-7.9-2.2-1.9-5.7-2.8-10.2-2.8H356v22.5h7.5m34.5 37.6h-13.3c-2.5 0-4.3-1-5.4-2.9l-13.6-21.9c-.6-.8-1.2-1.5-1.8-1.9-.7-.4-1.7-.6-3-.6h-5v27.2h-14.7V55h22.4c5 0 9.2.5 12.8 1.5 3.5 1 6.4 2.5 8.7 4.3 2.3 1.8 3.9 4 5 6.6 1 2.5 1.6 5.3 1.6 8.4 0 2.4-.3 4.6-1 6.7-.7 2.1-1.6 4-2.9 5.8-1.3 1.7-2.8 3.3-4.7 4.6-1.9 1.3-4 2.4-6.4 3.2.9.5 1.8 1.2 2.6 1.9s1.6 1.6 2.2 2.6l16.5 25.7zM447.5 99.2l-7.7-21.8c-.5-1.1-.9-2.5-1.4-4-.5-1.5-1-3.2-1.4-5-.5 1.8-.9 3.5-1.4 5.1-.5 1.6-1 2.9-1.4 4.1l-7.7 21.7h21m24.8 27h-11.4c-1.3 0-2.3-.3-3.1-.9-.8-.6-1.4-1.4-1.8-2.3l-4.8-13.6h-28.4l-4.8 13.6c-.3.8-.9 1.6-1.7 2.2-.8.7-1.8 1-3.1 1h-11.5L429.4 55h15.1l27.8 71.3zM522.3 66.9h-20.8v59.4h-14.8V66.9h-20.8V55h56.4v11.9M546 66.6v18.3h23.8V96H546v18.7h30.6v11.6h-45.4V55h45.4v11.6H546M392.7 143.2c-.1.2-.2.3-.4.4-.1.1-.3.1-.5.1s-.4-.1-.7-.3c-.2-.2-.5-.3-.9-.5s-.8-.4-1.3-.6c-.5-.2-1.1-.3-1.7-.3-.6 0-1.2.1-1.6.2-.5.2-.9.4-1.2.6-.3.3-.6.6-.7 1-.2.4-.2.8-.2 1.2 0 .6.1 1 .4 1.4.3.4.7.7 1.2 1 .5.3 1 .5 1.7.7.6.2 1.3.4 1.9.6.7.2 1.3.5 1.9.8.6.3 1.2.7 1.7 1.1.5.4.9 1 1.2 1.6.3.6.5 1.4.5 2.3 0 1-.2 1.9-.5 2.8-.3.9-.8 1.6-1.5 2.3-.6.6-1.4 1.1-2.4 1.5-.9.4-2 .6-3.2.6-.7 0-1.4-.1-2.1-.2-.7-.1-1.3-.3-1.9-.6-.6-.3-1.2-.6-1.7-.9-.5-.4-1-.8-1.4-1.2l1-1.7c.1-.1.2-.3.4-.3.1-.1.3-.1.5-.1s.5.1.8.3c.3.2.6.5 1 .7.4.3.9.5 1.5.7.6.2 1.3.3 2.1.3 1.3 0 2.3-.3 3-1 .7-.6 1.1-1.5 1.1-2.6 0-.6-.1-1.1-.5-1.5-.3-.4-.7-.7-1.2-1-.5-.3-1-.5-1.7-.7-.6-.2-1.3-.4-1.9-.6-.6-.2-1.3-.5-1.9-.7-.6-.3-1.2-.7-1.7-1.1-.5-.5-.9-1-1.2-1.7-.3-.7-.4-1.5-.4-2.5 0-.8.2-1.6.5-2.3.3-.8.8-1.4 1.4-2 .6-.6 1.3-1 2.2-1.4.9-.3 1.9-.5 3-.5 1.3 0 2.4.2 3.5.6 1.1.4 2 1 2.8 1.7l-.9 1.8M418.2 150.5c0-1.3-.2-2.4-.5-3.4s-.8-1.9-1.5-2.6c-.6-.7-1.4-1.3-2.3-1.6-.9-.4-1.9-.6-3.1-.6-1.1 0-2.2.2-3.1.6-.9.4-1.7.9-2.4 1.6-.6.7-1.1 1.6-1.5 2.6-.4 1-.5 2.2-.5 3.4 0 1.3.2 2.4.5 3.5.4 1 .8 1.9 1.5 2.6.6.7 1.4 1.2 2.4 1.6.9.4 1.9.6 3.1.6 1.1 0 2.2-.2 3.1-.6.9-.4 1.7-.9 2.3-1.6.6-.7 1.1-1.6 1.5-2.6.4-1.1.5-2.2.5-3.5m3.7 0c0 1.6-.3 3.2-.8 4.6-.5 1.4-1.3 2.6-2.3 3.6-1 1-2.1 1.8-3.5 2.4-1.4.6-2.9.8-4.6.8-1.7 0-3.2-.3-4.5-.8-1.4-.6-2.5-1.4-3.5-2.4s-1.7-2.2-2.3-3.6c-.5-1.4-.8-2.9-.8-4.6 0-1.7.3-3.2.8-4.6.5-1.4 1.3-2.6 2.3-3.6 1-1 2.1-1.8 3.5-2.4 1.4-.6 2.9-.8 4.5-.8 1.7 0 3.2.3 4.6.8 1.4.6 2.5 1.4 3.5 2.4s1.7 2.2 2.3 3.6c.6 1.4.8 3 .8 4.6M441.8 158.6v3H429v-22.2h3.6v19.2h9.2M456.1 158.7c.9 0 1.6-.1 2.3-.4.7-.3 1.2-.7 1.7-1.2s.8-1.1 1.1-1.9c.2-.7.4-1.5.4-2.4v-13.4h3.6v13.4c0 1.3-.2 2.5-.6 3.6-.4 1.1-1 2.1-1.8 2.9-.8.8-1.7 1.4-2.9 1.9-1.1.5-2.4.7-3.8.7s-2.7-.2-3.8-.7c-1.1-.5-2.1-1.1-2.8-1.9-.8-.8-1.4-1.8-1.8-2.9-.4-1.1-.6-2.3-.6-3.6v-13.4h3.6v13.4c0 .9.1 1.7.4 2.4.2.7.6 1.3 1.1 1.9.5.5 1 .9 1.7 1.2s1.3.4 2.2.4M488.5 142.4h-6.9v19.2H478v-19.2h-7v-3h17.5v3M494.7 139.4h3.6v22.2h-3.6zM523.9 150.5c0-1.3-.2-2.4-.5-3.4s-.8-1.9-1.5-2.6c-.6-.7-1.4-1.3-2.3-1.6-.9-.4-1.9-.6-3.1-.6-1.1 0-2.2.2-3.1.6-.9.4-1.7.9-2.4 1.6-.6.7-1.1 1.6-1.5 2.6-.3 1-.5 2.2-.5 3.4 0 1.3.2 2.4.5 3.5.4 1 .8 1.9 1.5 2.6.6.7 1.4 1.2 2.4 1.6.9.4 1.9.6 3.1.6 1.1 0 2.2-.2 3.1-.6.9-.4 1.7-.9 2.3-1.6.6-.7 1.1-1.6 1.5-2.6.3-1.1.5-2.2.5-3.5m3.7 0c0 1.6-.3 3.2-.8 4.6-.5 1.4-1.3 2.6-2.3 3.6-1 1-2.1 1.8-3.5 2.4-1.4.6-2.9.8-4.5.8-1.7 0-3.2-.3-4.5-.8-1.4-.6-2.5-1.4-3.5-2.4s-1.7-2.2-2.3-3.6c-.5-1.4-.8-2.9-.8-4.6 0-1.7.3-3.2.8-4.6.5-1.4 1.3-2.6 2.3-3.6 1-1 2.1-1.8 3.5-2.4 1.4-.6 2.9-.8 4.5-.8 1.7 0 3.2.3 4.5.8 1.4.6 2.5 1.4 3.5 2.4s1.7 2.2 2.3 3.6c.5 1.4.8 3 .8 4.6M553 139.4v22.2h-1.8c-.3 0-.5-.1-.7-.1-.2-.1-.4-.3-.6-.5l-12.2-15.7c0 .3.1.6.1.9v15.4h-3.2v-22.2h2.3c.1 0 .2 0 .3.1.1 0 .2.1.3.2l.3.3 12.2 15.7c0-.3-.1-.6-.1-.9v-15.4h3.1M573 143.2c-.1.2-.2.3-.4.4-.1.1-.3.1-.5.1s-.4-.1-.7-.3c-.2-.2-.5-.3-.9-.5s-.8-.4-1.3-.6c-.5-.2-1.1-.3-1.7-.3-.6 0-1.2.1-1.6.2-.5.2-.9.4-1.2.6-.3.3-.6.6-.7 1-.2.4-.2.8-.2 1.2 0 .6.1 1 .4 1.4.3.4.7.7 1.2 1 .5.3 1 .5 1.7.7.6.2 1.3.4 1.9.6.7.2 1.3.5 1.9.8.6.3 1.2.7 1.7 1.1.5.4.9 1 1.2 1.6.3.6.5 1.4.5 2.3 0 1-.2 1.9-.5 2.8-.3.9-.8 1.6-1.5 2.3-.6.6-1.4 1.1-2.4 1.5-.9.4-2 .6-3.2.6-.7 0-1.4-.1-2.1-.2-.7-.1-1.3-.3-1.9-.6-.6-.3-1.2-.6-1.7-.9-.5-.4-1-.8-1.4-1.2l1-1.7c.1-.1.2-.3.4-.3.1-.1.3-.1.5-.1s.5.1.8.3c.3.2.6.5 1 .7.4.3.9.5 1.5.7.6.2 1.3.3 2.1.3 1.3 0 2.3-.3 3-1 .7-.6 1.1-1.5 1.1-2.6 0-.6-.1-1.1-.5-1.5-.3-.4-.7-.7-1.2-1-.5-.3-1-.5-1.7-.7-.6-.2-1.3-.4-1.9-.6-.6-.2-1.3-.5-1.9-.7-.6-.3-1.2-.7-1.7-1.1-.5-.5-.9-1-1.2-1.7-.3-.7-.4-1.5-.4-2.5 0-.8.2-1.6.5-2.3.3-.8.8-1.4 1.4-2 .6-.6 1.3-1 2.2-1.4.9-.3 1.9-.5 3-.5 1.3 0 2.4.2 3.5.6 1.1.4 2 1 2.8 1.7l-.9 1.8"/></svg>