<svg xmlns="http://www.w3.org/2000/svg" width="612" height="792" style="enable-background:new 0 0 612 792" xml:space="preserve"><path d="M124.7 437.3c-1.3 7.8-4 15.2-7.9 21.7-.3.4-.8 1.3-.8 1.3-.7 1.3-1 2.8-1 4.3 0 5.4 4.3 9.7 9.7 9.7h.4c5.4 0 9.7-4.3 9.7-9.7 0-1.6-.4-3-1-4.3 0 0-.5-.9-.8-1.3-3.9-6.6-6.6-13.9-7.9-21.7 0-.1 0-.3-.1-.4h-.1c-.1.1-.1.2-.2.4zM123.5 341.1l-47.4 55.4c2.7-1 5.4-2.1 7.9-3.4 2.8-1.4 5.4-2.9 8-4.6 8.9-5.9 16.5-13.7 22.2-22.8.1-.1.1-.2.2-.3-1.4 6.8-2.2 13.9-2.2 21.2v1.1c0 2 .1 4 .2 6 1 14.3 4.9 27.8 11.2 39.9v-14.5l-.1-78zM64 345.5c1.5.8 3 1.6 4.6 2.2 6.3 2.7 13.3 4.1 20.5 4.1 4.4 0 8.6-.5 12.7-1.5-12.6 9.8-22 23.5-26.4 39.3-.5 1.8-.9 3.7-1.3 5.5l47.7-55.8-57.8 6.2zM95.3 320.7c3.2 5.8 8 10.5 13.9 13.5.3.2.6.3.9.4-2.8-.3-5.6-.5-8.5-.6h-1c-12.9 0-25 3.2-35.7 8.9l56.3-6-25.9-16.2zM116.8 328.8l-.3-.3c-5.4-4.7-11.9-8-19.2-9.5l25.1 15.9c-1.7-2.2-3.5-4.3-5.6-6.1zM126.2 341.1l47.4 55.4c-2.7-1-5.4-2.1-7.9-3.4-2.8-1.4-5.4-2.9-8-4.6-8.9-5.9-16.5-13.7-22.2-22.8-.1-.1-.1-.2-.2-.3 1.4 6.8 2.2 13.9 2.2 21.2v1.1c0 2-.1 4-.2 6-1 14.3-4.9 27.8-11.2 39.9v-14.5l.1-78zM185.7 345.5c-1.5.8-3 1.6-4.6 2.2-6.3 2.7-13.3 4.1-20.5 4.1-4.4 0-8.6-.5-12.7-1.5 12.6 9.8 22 23.5 26.4 39.3.5 1.8.9 3.7 1.3 5.5l-47.7-55.8 57.8 6.2zM154.4 320.7c-3.2 5.8-8 10.5-13.9 13.5-.3.2-.6.3-.9.4 2.8-.3 5.6-.5 8.5-.6h1c12.9 0 25 3.2 35.7 8.9l-56.3-6 25.9-16.2zM132.9 328.8l.3-.3c5.4-4.7 11.9-8 19.2-9.5l-25.1 15.9c1.7-2.2 3.5-4.3 5.6-6.1zM261.6 358.3c4.9 0 7.1 7.4 7 16l-15.1.5c-.1-8.1 2.4-16.5 8.1-16.5zm7.6 37.8c-9.1-.1-15.5-6.5-15.7-20.5l24.3-.1.9-.8c.1-9.2-4.2-17.5-15.7-17.5-11.4 0-19.7 9.4-19.7 22.8 0 15.3 8.3 22.3 21.7 21.5 4.5-1.4 9.6-3.8 14-6.2l-.3-1c-3.2 1.4-5.9 1.9-9.5 1.8zM492.2 388.9v-19.6c0-4.7.1-9.4.3-11.3l-.4-.5c-1.8.6-14.8 4.1-17.6 4.8l.1.6 5.6 1.4c1.5 1.7 1.8 5.7 1.8 10.2v14.3c0 8.7-1.7 10.4-7.8 10.9v.7c4.1-.2 8.7-.3 13.2-.3 4.3 0 7.9.1 12.3.3v-.7c-6.4-.5-7.5-2.2-7.5-10.8zM365.1 396c-5.6 0-9.8-2.5-9.8-12v-21.5l12.9.2 1-4.4-13.9.5c0-4.5.2-8.3.6-11.3l-1-.4c-3.1 5.1-9.2 11.3-16 14.6l.1.7h6.1v21.3c0 13.7 3 17.6 16.3 17.4 3.5-1.6 6.7-3.4 10.2-5.5l-.2-.5c-1.9.7-4.3.9-6.3.9zM394.8 400.5c-7.7 0-10.3-9.2-10.3-21.3 0-12 2.7-21 10.3-21 7.6 0 10.3 9 10.3 21 0 12.1-2.8 21.3-10.3 21.3zm0-43.3c-13.8 0-21.7 9.2-21.7 22 0 12.9 7.9 22.3 21.7 22.3 13.8 0 21.8-9.4 21.8-22.3 0-12.7-8.1-22-21.8-22zM328.3 389.3v-15.5c0-11.8-4.6-16.1-12.6-16.1-2.1 0-4.2.5-5.8.9-2.9 1.7-6.5 4.4-9.1 6.5 0-1.4.2-5.3.5-7.1l-.5-.5c-2.3.8-15.2 4.2-17.5 4.8l.1.6 5.6 1.4c1.2 1.6 1.8 4.9 1.8 10.3v14.5c0 7.3-1.8 10.1-7.5 10.6v.7c4.2-.2 7.7-.3 12-.3 4.2 0 6.9.1 11.6.3v-.7c-5.5-.6-6-3.4-6-10.7v-23.3c2.1-1 4.7-1.8 6.7-2.3 7.3 0 10.4 3 10.4 11.8V389c0 7.1-.9 10.1-6.3 10.7v.7c4.2-.2 8-.3 12.1-.3 4.3 0 7.6.1 11.1.3v-.7c-5.2-.5-6.6-3.3-6.6-10.4zM528.3 391.4c0 2.7-3.5 5.2-6.7 5.3-3 .2-5.5-2-5.7-6.7-.2-3.7 1.1-7.2 3-8.7 2.4-1.2 6-2.5 9.6-3.7-.1 5.7-.1 11.1-.2 13.8zm18.6 5.1h-3.2c-3.8 0-5.1-3-5.2-8.9 0-4.1.2-11.1.2-16 0-10.7-5.3-14.2-12-14.2-3.1 0-7.5 1.1-10.7 2.6-4.7 2.3-7.8 4.1-7.8 7.2 0 2.6 1.8 4.6 5.3 4.6.8 0 1.8-.1 2.5-.3l1.1-.8c-.5-2.9-.5-6.6-.1-9.7l.6-.6c.9-.2 2.1-.2 3-.2 2.9.2 4.9 1.2 6.2 3.9 1 1.9 1.6 4.7 1.7 8.8v3.8c-5.7 1.4-12.1 3-16.9 4.7-3.4 2.1-5.7 5.4-5.5 10.7.1 5.8 4.4 9.3 10.2 9.2 6-.1 9.4-3 12.5-7.5 0 2.4.8 4.1 1.8 5.1 1.2 1.5 2.7 2.1 4.5 2.5L547 397l-.1-.5zM486 350.3c3.8 0 6.6-2.8 6.6-6.4 0-3.5-2.8-6.4-6.6-6.4-3.7 0-6.6 2.9-6.6 6.4.1 3.6 2.9 6.4 6.6 6.4zM209.1 399.1c3.4-5.4 7.8-12.1 12-18.2 5.5-8 10.1-14.3 15.5-21.5v-1c-6.9.2-11.5.3-18 .3-5.8 0-9.6-.1-16.4-.3-1.1 1.1-1.9 3.7-2.4 6.8l-.9 6.5h.9c3.3-8 7.3-11.9 24.8-11.9-3.3 5.3-8.4 12.6-12.7 18.6-5.3 7.6-10.1 14.4-15 21.1v1c8.7-.2 11.3-.2 18.5-.2 6.4 0 11.2.1 18 .2 1.8-1.6 2.6-4.2 3.2-7.8l1.4-7.9h-.9c-4.8 11.4-10.6 14.3-28 14.3zM446.8 400.2c-5.7 0-8.5-4.6-8.5-11.5v-22.9c1.9-1 4.2-1.7 6.6-2.3 8-.2 12.5 5.5 12.5 16.5-.1 11.5-3.3 20.2-10.6 20.2zm5.9-42.4c-2.2 0-3.9.3-5.5.8-2.7 1.6-6.9 4.7-9.1 6.5 0-.7.2-5.3.5-7.1l-.5-.5c-2.4.8-14.9 4.1-17.5 4.8l.1.6 5.6 1.4c1.2 1.6 1.8 4.9 1.8 10.3v35.7c0 7.8-.7 11-8 11.6v.7c4.9-.2 9.3-.3 13.7-.3 4.3 0 9.1.1 13.9.3v-.7c-8.1-.6-9.3-3.3-9.3-11.7v-11.4c2 1.6 5 2.5 8.6 2.5 11.2 0 21.2-6.8 21.2-23.4-.2-13.7-7.7-20.1-15.5-20.1z"/></svg>