<svg xmlns="http://www.w3.org/2000/svg" width="398.3" height="351.1" style="enable-background:new 0 0 398.3 351.1" xml:space="preserve"><style>.st0{fill:#b30838}.st1{fill:#5f6062}</style><g id="Layer_2"><path class="st0" d="m186.4 135.7-20 41.6H156l-19.4-41.6H148l13.4 31.6 13.6-31.6zM224.3 177.2h-20.2c-3.1 0-6.1-.7-9-2.1-3.1-1.5-5.5-4-7.2-7.3-1.6-3.4-2.5-7.1-2.5-11.1s.8-7.6 2.4-10.8c1.7-3.5 4.2-6.1 7.2-7.7 1.7-.9 3.3-1.5 4.9-1.8 1.6-.4 3.4-.5 5.4-.5h18.8v7.4h-17.3c-1.5 0-2.8.2-3.9.6-1 .4-2.1 1.1-3.1 2.2-1 1-1.7 2.1-2.1 3.1-.4 1-.6 2.2-.6 3.7h27.3v7.4H197c0 1.3.2 2.5.5 3.5.4 1 1 2 1.9 3.1.9 1.1 1.9 1.9 2.9 2.4 1 .6 2.2.8 3.6.8h18.3v7.1zM262 177.2h-18.3c-1.9 0-3.7-.3-5.5-.8-3.5-1.1-6.3-3.5-8.4-7.3-1.9-3.5-2.8-7.5-2.8-12.2 0-4.5.8-8.4 2.5-11.9 1.8-3.8 4.4-6.4 7.8-7.8 2.6-1.1 5.3-1.6 8-1.6h16.6v8h-17.3c-2.8 0-4.8 1.5-6.1 4.6-1 2.4-1.5 5.5-1.5 9.3 0 3.2.6 6 1.9 8.3 1.5 2.7 3.5 4 6.2 4H262v7.4z"/><path class="st0" d="M295.8 143.6h-15.5v33.7h-9.6v-33.7h-15.3v-7.9h40.4zM342.2 156.4c0 8.1-2.2 13.9-6.7 17.4-3.6 2.8-8.9 4.2-15.9 4.2-7.7 0-13.4-1.6-17.1-4.9-4-3.6-6.1-9.3-6.1-17.2 0-6.5 1.8-11.5 5.4-15.1 3.9-3.9 9.8-5.9 17.6-5.9 8.6 0 14.6 1.9 18.2 5.6 3.1 3.4 4.6 8.7 4.6 15.9m-10.6-.3c0-4.1-1-7.3-2.9-9.8-2.2-2.7-5.4-4-9.7-4-4.2 0-7.4 1.4-9.5 4.3-1.8 2.4-2.7 5.6-2.7 9.5 0 4.5.7 7.8 2.1 9.9 2 3 5.6 4.5 11 4.5 4.5 0 7.7-1.4 9.5-4.3 1.5-2.3 2.2-5.6 2.2-10.1M389.3 177.2h-11.7L366.8 161h-11.2v16.2h-9.9v-41.5h30.4c3.4 0 6.3 1.3 8.5 4 2.3 2.7 3.4 5.8 3.4 9.4 0 2.9-1 5.3-2.9 7.3s-4.4 3.3-7.4 3.8l11.6 17zm-13.2-28.5c0-1.9-.7-3.4-2.2-4.5-1.4-1-3.4-1.6-5.8-1.6h-12.5v11.6h12.8c1.9 0 3.5-.4 5-1.2 1.8-1 2.7-2.4 2.7-4.3"/><path class="st1" d="M166.3 190.8c0 2-.8 3.8-2.4 5.2-1.6 1.4-3.4 2.1-5.6 2.1h-9.8v8H143v-22.9h15.7c2.5 0 4.4.8 5.8 2.5 1.2 1.4 1.8 3.1 1.8 5.1m-6.4-.3c0-1-.4-1.8-1.2-2.5-.8-.7-1.7-1-2.8-1h-7.3v7.1h7.5c1.1 0 2-.3 2.7-1 .8-.7 1.1-1.6 1.1-2.6M193 206.1h-6.5l-6-9h-6.2v9H169v-22.9h16.8c1.9 0 3.5.7 4.7 2.2 1.2 1.5 1.9 3.2 1.9 5.2 0 1.6-.5 2.9-1.6 4.1-1.1 1.1-2.4 1.8-4.1 2.1l6.3 9.3zm-7.3-15.7c0-1.1-.4-1.9-1.2-2.5-.8-.6-1.9-.9-3.2-.9h-6.9v6.4h7.1c1 0 1.9-.2 2.8-.7.9-.5 1.4-1.3 1.4-2.3M218.8 194.6c0 4.5-1.2 7.7-3.7 9.6-2 1.6-4.9 2.3-8.8 2.3-4.3 0-7.4-.9-9.5-2.7-2.2-2-3.3-5.1-3.3-9.5 0-3.6 1-6.4 3-8.3 2.2-2.2 5.4-3.3 9.7-3.3 4.7 0 8.1 1 10 3.1 1.7 1.9 2.6 4.8 2.6 8.8m-5.8-.1c0-2.3-.5-4.1-1.6-5.4-1.2-1.5-3-2.2-5.3-2.2s-4.1.8-5.3 2.4c-1 1.3-1.5 3.1-1.5 5.2 0 2.5.4 4.3 1.2 5.5 1.1 1.6 3.1 2.5 6.1 2.5 2.5 0 4.2-.8 5.3-2.4.7-1.3 1.1-3.2 1.1-5.6M250.3 206.1h-5v-17.5l-6.5 17.5h-5.9l-6.7-17.9v17.9h-4.8v-22.9h7.7l6.7 18.1 6.5-18.1h8zM278.3 194.6c0 4.5-1.2 7.7-3.7 9.6-2 1.6-4.9 2.3-8.8 2.3-4.3 0-7.4-.9-9.4-2.7-2.2-2-3.3-5.1-3.3-9.5 0-3.6 1-6.4 3-8.3 2.2-2.2 5.4-3.3 9.7-3.3 4.7 0 8.1 1 10 3.1 1.6 1.9 2.5 4.8 2.5 8.8m-5.9-.1c0-2.3-.5-4.1-1.6-5.4-1.2-1.5-3-2.2-5.3-2.2s-4.1.8-5.3 2.4c-1 1.3-1.5 3.1-1.5 5.2 0 2.5.4 4.3 1.2 5.5 1.1 1.6 3.1 2.5 6.1 2.5 2.5 0 4.2-.8 5.3-2.4.7-1.3 1.1-3.2 1.1-5.6M301.4 187.1h-8.5v19.1h-5.4v-19.1h-8.4v-3.9h22.3zM303.1 183.2h6.1v22.9h-6.1zM337.2 194.6c0 4.5-1.2 7.7-3.7 9.6-2 1.6-4.9 2.3-8.8 2.3-4.3 0-7.4-.9-9.5-2.7-2.2-2-3.3-5.1-3.3-9.5 0-3.6 1-6.4 3-8.3 2.2-2.2 5.4-3.3 9.7-3.3 4.7 0 8.1 1 10 3.1 1.7 1.9 2.6 4.8 2.6 8.8m-5.8-.1c0-2.3-.5-4.1-1.6-5.4-1.2-1.5-3-2.2-5.3-2.2s-4.1.8-5.3 2.4c-1 1.3-1.5 3.1-1.5 5.2 0 2.5.4 4.3 1.2 5.5 1.1 1.6 3.1 2.5 6.1 2.5 2.5 0 4.2-.8 5.3-2.4.7-1.3 1.1-3.2 1.1-5.6M363.7 206.1h-7.3l-11.1-17v17h-5.5v-22.9h7.4l10.9 17.2v-17.2h5.6zM391.2 199c0 2-.7 3.7-2 5.1-1.3 1.4-3 2.1-5.1 2.1h-16.2V202h13.4c.9 0 1.7-.2 2.3-.6.7-.5 1.1-1.1 1.1-2 0-2-1.4-2.9-4.1-2.9h-6.8c-1.9 0-3.7-.6-5.1-1.8-1.5-1.2-2.2-2.7-2.2-4.6 0-2.1.7-3.7 2.1-5 1.4-1.3 3.3-1.9 5.7-1.9h15.5v3.9H376c-.6 0-1.2.3-1.9.8-.6.5-.9 1.1-.9 1.8 0 .8.3 1.4.9 2 .6.5 1.3.8 2.2.8h7.4c2.3 0 4.1.6 5.5 1.8 1.3 1.1 2 2.7 2 4.7M51.8 140.3v34.2L85.7 141l-24.9-.1 31.6-9.2c-18.9-13.4-41.2-22.3-59.1-22.3-28 0-34.6 21.6-14.8 48.3 2.8 3.7 5.9 7.3 9.3 10.8v-28.2h24z"/><path class="st0" d="m114.4 151.2 24.8-24.7-13.3 3.9-68.3 68H29v8.1h29.8l9.8-9.7c12.6 5.7 25.3 9.1 36.4 9.1 28 0 34.6-21.6 14.8-48.3-1.7-2.2-3.5-4.3-5.4-6.4"/></g></svg>