<svg version="1.1" id="Art" xmlns="http://www.w3.org/2000/svg" x="0" y="0" width="792" height="612" style="enable-background:new 0 0 792 612" xml:space="preserve"><style>.st0{fill:#54c0e8}</style><path class="st0" d="M502.2 253c-.4-12.2-3.3-23.7-6-28.5-2.7-4.8-3.9-5.6-3.9-5.6s3-5.2 3.5-6.1c.4-1 .2-1.9-.1-2.2-.3-.3-15.1-16.1-22.8-25.3-7.7-9.1-17.4-19.7-28-25.3-10.5-5.7-18.7-7.7-18.7-7.7s-4.1-6.6-10.9-8.6c-6.8-2-11.4-.3-11.4-.3s-.1 1.3 2.4 3.1c2.6 1.8 13.4 7 15.1 8.2 1.7 1.2 7.5 7.2 14 11.6 6.4 4.4 9 4.5 9 4.5s4.9 6.1 8.3 11.4c3.4 5.3 3.6 8 3.6 8s7.5 1 10.9 4c0 0 3.6 4.9 3.4 14.7s-1.9 12.1-4.1 18.2c-2.2 6.1-5.6 18.3-6.3 27.3-.8 9-.8 9.7-1.3 11.7-.6 2-1.2 2.9-1.2 2.9s5.5-1.4 7.9-11.2c2.4-9.8 2.4-16.1 5.6-23.5 3.3-7.4 8.8-7.8 10.9-8.2 0 0-1.1 3.4-.5 6.9.3 1.9 1.1 3.9 2.3 5.6-4.9-.2-9.3 2.3-9.3 7.1.1 4.9 5 9.6 5.4 10.2.4.6.1 1.2-2.2 4.6-2.3 3.4-5.4 8-5.4 9s3.9 6.8 4.1 10.5c.2 3.6-1 5.9-3.5 5.6-2.6-.3-15.5-7-25.5-15.1s-18.6-16-18.6-16 2-3.4 1.5-8.4c-.6-4.9-3.3-7.6-3.3-7.6l-1 1.3c-.8 1.1-5.8 9.2-7.7 12.2-.6-5.3-1.9-10.5-4.1-14.9-3.3-6.6-6.2-12.8-6.4-14.7-.2-1.9 1.7-8.4.4-18.6-1.3-10.2-8.2-17.6-8.2-17.6s.3-3.4.1-7.9c-.2-4.5-1-9-1-9s1.7-.8 4.3-3.6c2.6-2.7 3.4-4.9 3.4-4.9s-4.3.3-10.5-.1c-6.1-.4-9.2-3.1-9.4-5-.3-1.9 1.7-6.3.9-12.1-.8-5.7-5.1-7.9-8.8-7-3.7.9-6.3 4.5-6.3 10.6s3.1 10.6 3.4 12.1c.3 1.5-1 5.3-5.3 7.7-4.3 2.4-8.9 1.7-10 1-1.1-.6-1-3.1-.3-4.1.8-1.1 1.1-2.2.8-2.9-.3-.6-1.7-1.4-4.1.6-2.4 2-4.5 4.5-4.5 6.3s2.2 2.8 6.1 6.1c3.9 3.3 4.4 6.6 4.4 6.6s-.1.3-1.6.6-4.2.4-10.7-.3c-6.4-.6-14.7-.9-16.8-.3-2 .6-3.8 4.6-5.2 15.8-1.3 11.2-3.8 18.4-4.8 20.2s-1.9 2.2-3.5.7c-1.7-1.5-3.4-3.2-5-5.7-1.5-2.6-3.7-2.1-3.7-2.1s.6 3 4.1 8.5c3.6 5.5 8.4 6.4 11.5 5.9 3.1-.4 4.5-3.7 5-3.8.2-.1.7 0 1.1.1-.3 1.4-.4 3.9-.8 6.2-.4 2.7-1.6 8.6-4 14.2-2.4 5.7-5.2 9.9-5.2 9.9s-.6-3.8-4.2-5.9c-3.6-2.1-7.7-1.7-9.6 1.9-2 3.6-.3 7.7.4 11.1.7 3.4.8 5.1.4 5.6-.4.4-7.5 0-8 0-.6 0-1.7.9-3.5 5.9s-1.2 12.3-1.3 13.1c-.1.8-1.8 2.1-3.6 4.9-1.9 2.7-4.7 8.2-4.7 17.9s2.3 18.2 2.7 18.3c.4.1 2.4-.6 2.9-1.7.4-1 .8-3.4 0-6.3-.8-2.8-.8-6.4-.8-7.5 0-1.1.7-1.9 1.6-2.6.9-.7 1.5-2 3.3-6.8 1.7-4.8 3.8-9.1 4.5-9.8.7-.8 2.7-2.6 3.3-2.3.6.3 1.3 2.2 4 9s7 18.8 9.4 23.6c2.4 4.8 4 6.4 8.7 9.3 4.7 2.9 7.7 5.5 12.1 9.3 4.3 3.8 9.8 7 14.3 8.4 4.5 1.4 10.2.3 11.8.2 1.6-.1 2.5.1 4 1.4 1.5 1.3 5.4 5.5 6.8 5.9s2.5-.3 2.2-2.5c-.3-2.2-1.2-4.3-5-6.3s-8.4-2.7-11.3-4c-2.9-1.3-4.2-6.4-4.2-7.2s2.1.3 5-.6c2.9-.9 4.5-2.4 6.9-7.7 2.4-5.3 10.5-25 15.1-36.8 4.6-11.8 10-23.6 10-23.6s.6.9 1.9 3.1c1.3 2.2 1.9 3.6 1.8 4.5-.1.9-3.4 4.7-5 12.8-1.5 8-1.6 22.7 1.3 32.9 2.9 10.2 9.1 19 9.6 19.6.6.6 1.1 1 1 1.7-.1.6-2.1 3.9-3 5.5-.9 1.6-1.3 2.2-1 2.1.3-.1 1.2-.8 4-1.2 2.7-.4 6.1-.9 9.2-.9 3.1 0 4.2.7 6.1 1.8 1.9 1.1 3.9 1.9 3.9 1.9.6.3.7-2.2-2.6-4.3-3.4-2.1-5.1-4-4.8-4.8.3-.8 6.5-7.8 8.8-19.9 2.3-12.2 2.1-26.5-1.8-35.4-3.9-8.9-9.1-11.3-9.1-11.3s.7-5 1.1-12.9v-.5c.5.2 1 .3 1.6.5 3.2.6 4.9-.3 4.9-.3s4.9 7.1 9.1 11.6c4.3 4.5 11.1 6.2 11.1 6.2s.2.9 4.4 6.2S465 299 465 299s-.4.8-3.8 7.1-11.9 18.6-17.7 27.1c-5.7 8.5-9.3 16.5-9.3 16.5s1.3.6 4.4 0c3.1-.6 6.6-3.9 7.5-6 .9-2.1.6-4.5.6-4.5s4.9-5.2 15.8-14.8c11-9.6 16.5-12.4 16.5-12.4s.1.9-.4 2.1c-.4 1.2-1 1.9-1.5 3.6-.5 1.7.4 3.2.8 3.1.4-.1 4.4-4.3 8.5-15.1 4.1-10.7 5.9-20.2 5.7-31.3-.2-11.1-4-19.7-4-19.7.9-1.9 4-5.6 4-9.4 0-1.3-.4-2.5-1.1-3.6.7-.3 1-.9 1.1-1.5 0 0 3.3 4.9 4.3 8.7 1.1 3.8 1.1 11.2.2 17.6s-2 7.6-2 7.8 5.9 6.1 6.5 6.2c.7.6 1.6-15.3 1.1-27.5zm-150 73.5c-.1 0-3.1-.9-6-4.4-2.9-3.5-2.7-4.9-2.5-4.9 0 0 2.3 0 5 2s3.4 4.7 3.8 5.8c.4 1.1-.1 1.5-.3 1.5zm41.8-96.2c-1.5 6.3-3.1 13.7-2.9 16.8.2 3.1.7 4.9.7 4.9s-1-1.3-5.1-3.3c-4.1-2-7.5-1.7-7.5-1.7s-.6 1 .3 3.6c1 2.6 3.9 6.2 5.7 8.5 1.8 2.3 2.4 4.5 2.4 4.5s-.5 1.3-1.1 2.8c-.6 1.5-6.6 15.6-11 24.7-4.5 9.1-9.4 13-11 14s-3.9 3.1-4.4 3.1-1.9-.6-2.5-2.5c-.6-1.9-.4-5.3-.4-5.8-.1-.5-2.5-1.9-4.1-2.1-1.6-.3-3.8-.4-4.3-1s-.1-1.5.4-2.6c.6-1.1 2-3.5 1.1-8.8-.9-5.3-4.9-9.3-8.2-9.4-3.4-.1-6.7.9-6.3 7.3.4 6.4 3.4 9.1 4.5 13 1 3.9 1.3 12.3 1 13.7-.3 1.4-.6 2.2-1.5 2.1-.9-.1-7.8-4-8.5-4.7-.7-.6-1.7-2.2-2.2-4.9-.4-2.7-1.1-4.7-1.7-11.7-.6-7 .4-14.7 3-26.8 2.6-12.1 6.8-29.2 7.1-30.8.4-1.5 1.3-1.9 3.1-5.3s2.4-5.3 2.6-6c.3-.7-.4-2.9-1.1-3.7-.7-.8-1-1.4-1.1-1.6-.1-.2-.6-1.9-.5-2.6.1-.7 1.9-2.7 1.2-3.1-.6-.3-1.5-.5-2 0-.4.5-1.2 2.5-2.9 5.6-1.7 3-2.2 2.7-2.6 3.8-.6-.5-1.5-1.1-1.3-2 .3-1.3 1.3-4.9 3.3-9.4 1.9-4.5 2.9-8.5 3-10.2.1-1.7.2-3.3.4-3.3.3 0 .5.1 3.1 1.3 2.6 1.1 7.3 2.4 12.4 1.6 5.1-.8 10.8-7.9 15.8-11.8 5-4 10.7-6.1 13-6.1 2.3 0 3.9.5 5.4 2.2s3.8 6.3 3.8 6.3-2.9 4.1-3.1 13.5c-.1 9.3 3.6 18.2 4.1 19.3.5.9 1.3 2.3-.1 8.6zm24.3 75.9c.8-3.3.4-4.3.4-6.6s.4-3.4.4-3.4 3.5 6.5 2.3 22.4c-1.2 15.9-7.5 22.3-7.5 22.3-2.5-2.6-7.7-10.1-9.8-20.5-2.1-10.4-.4-18.4 0-20.2.4-1.8.8-4 .8-4s.9.5.8 1.7c-.1 1.2-.1 1.7 0 5.7s2.9 7.7 6.1 8c3.2.5 5.8-2.2 6.5-5.4zM159.8 387.2v11.3c0 .6.1 1.1.3 1.6.2.4.4.9.8 1.3s.8.6 1.2.8.9.3 1.4.3v.8h-14.8v-.9h2l.1.1H151.1l-2-.1c.1 0 .1.1.2.1s.1 0 .2-.1c.4 0 .7-.1 1-.3.3-.1.6-.3.9-.6s.5-.6.7-1.1c.2-.5.2-1.1.2-1.8v-26.4c0-.6-.1-1.1-.2-1.5-.2-.4-.4-.8-.7-1-.3-.3-.6-.5-.9-.7-.3-.2-.6-.3-1-.4h-.5s-.1 0-.1-.1h-.2v-.9h22c1 .1 2 .3 2.9.5.9.3 1.6.7 2.3 1.3.7.6 1.2 1.2 1.5 1.9.3.7.5 1.5.5 2.3 0 .4-.1.9-.2 1.3s-.3.9-.5 1.4c-.1.3-.2.5-.3.7-.1.2-.3.5-.4.7-.1.3-.3.5-.5.7-.2.2-.4.5-.6.7-.6.8-1.4 1.5-2.4 2.2-1 .7-2.1 1.4-3.4 2.1-1.3.7-2.7 1.3-4.3 2-1.7.7-3.6 1.3-5.5 1.8zm.6-3.8c.2-.1.4-.2.7-.3.1 0 .2-.1.3-.1.1-.1.2-.1.3-.1 1-.4 1.9-.9 2.8-1.5.9-.6 1.8-1.2 2.6-1.8.8-.6 1.4-1.3 1.8-2.1.4-.7.6-1.5.6-2.4 0-.2 0-.4-.1-.6 0-.2-.1-.4-.2-.6-.1-.2-.2-.4-.3-.7-.1-.2-.2-.5-.4-.7-.2-.3-.5-.5-.8-.7-.4-.2-.8-.4-1.3-.5-.4-.1-.9-.3-1.3-.3-.4-.1-.9-.1-1.4-.2-.5 0-.9.1-1.4.2-.4.1-.9.3-1.3.4-.5.2-.9.5-1.2.9-.3.4-.4.9-.4 1.4v9.8c.6 0 .8 0 1-.1zM189.4 380.1s0-.1 0 0c.4-.4.8-.7 1.2-1 .4-.3.8-.6 1.2-.8.3-.2.5-.3.8-.5.3-.1.6-.3.9-.4.3-.1.5-.3.8-.4.3-.1.5-.2.8-.3.6-.2 1.1-.3 1.6-.4.5-.1 1-.1 1.5-.1l2-.1c.8 0 1.6.2 2.3.5.7.3 1.3.7 1.8 1.2.6.5 1 1.2 1.3 2 .3.8.4 1.7.4 2.8v15.6c0 1 .1 1.8.2 2.4.2.6.4 1 .7 1.2.3.3.7.4 1.1.5.4.1.8.2 1.2.2v.8h-13.6v-.9c.4.1.8.1 1.1 0 .4-.1.7-.2 1-.4.3-.2.6-.6.8-1.2.2-.6.3-1.4.3-2.5v-13.7c0-.7-.1-1.4-.3-1.9-.2-.6-.4-1-.7-1.4-.2-.2-.4-.4-.7-.6-.3-.2-.5-.3-.8-.3l-.1.1h-.1c-.1 0-.2.1-.3.1-.1 0-.2 0-.3.1-.1 0-.3.1-.4.1-.1 0-.2.1-.3.1-.6.3-1.3.7-1.9 1.1-.6.5-1.2 1-1.8 1.6-.6.6-1 1.3-1.4 1.9-.3.6-.5 1.3-.6 2l-.1.3V399c0 .7.1 1.3.2 1.7.2.4.4.8.7 1 .3.3.7.4 1.1.5.4.1.8.2 1.2.2v.8h-13.6v-.9c.4.1.8.1 1.1 0 .4-.1.7-.2 1-.5.3-.2.6-.5.8-1 .2-.5.3-1.1.3-1.8v-26.8c0-.7-.1-1.3-.2-1.7-.2-.5-.4-.8-.6-1-.3-.2-.6-.4-1-.6-.4-.2-.8-.3-1.3-.4v-.9l8.4-1.3h2l.3 13.8c-.1 0 0 0 0 0zM212.8 405.3h2l.8.4V406.3c0 .8 0 1.5.2 2.1.1.6.3 1.1.6 1.4l.5.5c.2.2.3.3.5.3.4-.2.9-.5 1.3-.9s.8-.9 1.2-1.5c.4-.6.7-1.3.9-2 .2-.8.3-1.6.4-2.5 0-.3 0-.6-.1-.9 0-.3-.1-.6-.2-1 0-.3-.1-.7-.2-1-.1-.3-.2-.7-.4-1l-7.6-20c-.1-.3-.2-.5-.4-.8-.2-.3-.4-.6-.6-.8-.2-.3-.5-.5-.8-.6-.3-.1-.6-.2-1-.2l-.1-1h12.4v.9c-.2.1-.5.1-.7.2l-.6.3c-.1.1-.2.3-.3.5-.1.2-.1.4-.1.7V379.6c0 .1 0 .2.1.2l4.7 13.2 4.9-13.3.1-.3.1-.3c0-.2-.1-.4-.2-.6-.1-.2-.2-.4-.4-.6-.2-.2-.4-.3-.7-.4-.3-.1-.5-.2-.9-.2v-1h10v.9c-.3.2-.6.4-.9.5-.3.2-.6.4-.8.6-.2.2-.4.5-.6.8-.2.3-.3.7-.4 1.1L225.1 408c-.4 1.1-.9 2.1-1.5 3-.6.8-1.2 1.5-1.8 2-.7.5-1.4.9-2.2 1.1-.7.3-1.5.4-2.3.4H215c-.1 0-.2 0-.3-.1h-.6c-.2 0-.4-.1-.6-.1-.2 0-.4-.1-.6-.1l-.9-.3c-.3-.1-.6-.2-.9-.4l-.6-.3c-.2-.1-.3-.2-.5-.3-.1-.1-.2-.1-.3-.2-.1 0-.2-.1-.3-.2h-.1l3.5-7.2zM261.1 385l-.8.4h-2V385.1c0-.8-.2-1.6-.5-2.2-.3-.7-.8-1.2-1.5-1.7s-1.4-.9-2.1-1.2c-.7-.3-1.5-.6-2.3-.8-.2-.1-.5-.1-.7-.1-.2 0-.5 0-.7-.1h-.4c-.1 0-.3.1-.4.1-.2 0-.3 0-.4.1-.3 0-.5.1-.7.2l-.6.3c-.1.1-.3.2-.4.3-.1.1-.2.3-.3.5-.1.1-.1.3-.2.5 0 .2-.1.3-.1.5V382.1c0 .1 0 .2.1.3 0 .1.1.2.1.2.1.3.3.6.5.9.2.3.5.5.9.8.3.3.7.5 1.2.7.5.2 1 .4 1.6.6 1.9.5 3.6 1 5 1.6 1.4.6 2.7 1.2 3.7 2 1 .7 1.8 1.5 2.4 2.4.5.9.8 1.9.8 3 0 .4 0 .7-.1 1.2-.1.4-.2.8-.3 1.3-.1.4-.3.9-.5 1.3s-.4.9-.7 1.3c-.4.8-.9 1.5-1.5 2-.6.6-1.4 1-2.3 1.4-.9.3-1.8.5-2.8.7-1 .2-2 .3-3.1.3H249.4c-.1 0-.3-.1-.4-.1h-.3c-.2 0-.5-.1-.7-.1h-.6c-.2 0-.3-.1-.5-.1s-.4-.1-.5-.1c-.2 0-.3-.1-.5-.1s-.3-.1-.5-.1c-.3 0-.7-.1-1-.2-.3-.1-.7-.2-1-.3-.2-.1-.4-.1-.6-.2-.2-.1-.4-.1-.6-.1h-.1l-.1-.1h-.2.2c-.1 0-.3.1-.4.2-.2.1-.3.1-.4.2l-2-.1-.4-10.6.8-.4h2c.1 1.5.3 2.8.8 3.8.5 1.1 1.1 2 2 2.7.9.7 1.8 1.3 2.8 1.7 1 .4 2 .7 3 .8h.2l.1.1h.7c.1 0 .2-.1.3-.1.1 0 .2 0 .3-.1.4-.1.7-.2 1.1-.3.4-.1.7-.3 1-.4l.9-.6c.3-.2.4-.5.6-.7.2-.3.3-.6.4-.9.1-.3.1-.6.1-.9v-.2s-.1 0-.1-.1V396.4l-.1-.1v-.1c-.1-.4-.3-.8-.5-1.1-.2-.3-.5-.7-.8-1-.3-.4-.7-.7-1.1-.9-.4-.3-.9-.5-1.5-.6-1.8-.4-3.4-.9-4.9-1.4-1.5-.5-2.8-1.1-4-1.7-1.1-.6-2-1.4-2.6-2.5-.6-1-.9-2.3-.9-3.8 0-.9.2-1.7.6-2.6.4-.8 1-1.6 1.8-2.3.8-.8 1.8-1.3 3-1.7 1.2-.4 2.5-.6 3.9-.6l2-.1c.3 0 .5.1.8.1.3 0 .6 0 .9.1.3 0 .6.1.9.1.3 0 .6.1.9.2.2 0 .4.1.6.1.2 0 .4.1.6.1.1 0 .2.1.3.1h.3c.1 0 .2.1.3.1h.3c.3.1.5.1.8.2.3.1.5.1.8.2h.1c.1 0 .1-.1.1-.1s0-.1.1-.1l.1-.1v-.2h2l.5 8.3zM276.3 398.5c0 .7.1 1.3.2 1.8s.3.9.5 1.2c.2.3.6.6 1 .7.4.1.9.2 1.5.2v.8H266v-.9c.5.1.9 0 1.3-.1s.7-.3 1-.6c.3-.3.5-.7.6-1.2.2-.5.2-1.1.2-1.9v-17c0-.7-.1-1.2-.3-1.7-.2-.4-.4-.8-.7-1-.3-.2-.7-.4-1-.5-.3-.1-.7-.3-1.1-.4l-.1-.1h.1v-.8l8.4-.9h2v22.4zm-8-31.1c.2-.4.5-.8.8-1.1.4-.3.7-.6 1.1-.7.4-.2.8-.3 1.2-.3l2-.1h.2c.4 0 .9.1 1.3.3.4.1.8.4 1.1.7.4.3.6.7.8 1.2.2.5.3 1 .3 1.6v.4c0 .7-.1 1.3-.3 1.8-.2.5-.4.9-.8 1.2-.3.3-.7.6-1.1.7-.4.1-.8.2-1.2.2l-2-.1h-.2c-.5 0-.9 0-1.4-.2-.4-.2-.8-.5-1.2-.8-.4-.4-.7-.8-.9-1.3-.2-.5-.3-1.1-.3-1.8v-.1c.3-.7.4-1.2.6-1.6zM307.5 384.2l-.8.4h-2c-.1-.7-.4-1.4-.9-2.1-.5-.7-1.1-1.3-1.9-1.9-.7-.5-1.4-.9-2.2-1.2-.8-.3-1.5-.5-2.4-.6-.8.1-1.5.4-2.2.8-.7.4-1.4.8-2.1 1.5-.8.8-1.4 1.8-1.8 3.1-.4 1.3-.6 2.9-.6 4.8v.3l.1.3v.6c.1 1.6.4 3 .9 4.2.5 1.3 1.3 2.4 2.3 3.3 1 1 2 1.7 3.1 2.3 1.1.6 2.2.9 3.3 1 .6-.1 1.2-.2 1.7-.4.6-.2 1.2-.5 1.7-.9.7-.5 1.3-1.1 1.9-1.8.5-.8 1-1.6 1.4-2.7l2-.1.8.4-2.8 8.5h-2l-.7-.3h-.2c-.1 0-.1 0-.2.1h-.4c-.4 0-.7.1-1.1.1h-3.1c-2.4 0-4.6-.3-6.5-.8-1.9-.6-3.5-1.4-4.9-2.6-1.4-1.2-2.5-2.6-3.3-4.2-.8-1.6-1.4-3.5-1.6-5.6 0-.1-.1-.3-.1-.4V389c0-1.7.2-3.3.7-4.8.5-1.5 1.2-2.9 2.1-4.2 1-1.4 2.2-2.4 3.5-3.1 1.4-.7 3-1 4.8-1l2-.1h.3l.1.1H297l.1.1H297.4c.8.1 1.6.1 2.3.2s1.2.1 1.7.2H302.9c.1 0 .2-.1.3-.1.1-.1.2-.1.2-.2l.2-.3s.1 0 .1-.1c.1-.1.1-.1.2-.1v-.1h2l1.6 8.7zM329.4 384.8l.1-.2v-.4c0-.9-.1-1.6-.4-2.3-.3-.7-.7-1.2-1.2-1.6-.4-.3-.8-.6-1.3-.8-.5-.2-1-.4-1.5-.4h-.4c-.1 0-.3.1-.4.1-.1 0-.3 0-.4.1-.1 0-.3.1-.4.1-.1 0-.3.1-.4.1-.7.3-1.5.6-2.2 1-.7.4-1.5.9-2.1 1.5-.7.6-1.3 1.2-1.8 1.9s-1 1.5-1.3 2.4l-2-.1.8-8.9h2c.1.1.1.2.2.3l.2.2.1.1.1.1h.1c.1 0 .1-.1.2-.1s.1 0 .2-.1c.3-.1.6-.3.9-.5.4-.2.7-.3 1.1-.5.4-.1.8-.3 1.3-.4.5-.1 1-.3 1.5-.4.6-.1 1.2-.3 1.8-.3.7-.1 1.4-.1 2.2-.1l2-.1c1.2 0 2.3.2 3.3.5s2 .8 2.8 1.4c.9.6 1.5 1.3 2 2.1.4.8.6 1.8.6 2.8V397c0 .7.1 1.3.2 1.8s.3 1 .5 1.3c.2.4.4.7.7.9.3.3.5.5.8.6.1.1.3.1.4.2.1.1.2.1.4.1.1 0 .3.1.4.1h.3v.8h-9.2l-.1-.1-.1-.1c-.1-.3-.3-.5-.4-.8-.1-.3-.3-.5-.4-.8 0-.1-.1-.1-.1-.2v-.2s-.1-.1-.1-.2 0-.1-.1-.2c-.3.3-.6.6-.9.8-.3.3-.7.5-1.1.6-.7.4-1.5.8-2.3 1l-2.4.6c-.2 0-.3.1-.5.1h-.8c-.1 0-.2 0-.2.1h-2.5c-.8 0-1.6-.1-2.4-.2-.8-.1-1.5-.3-2.2-.6-.7-.3-1.2-.7-1.7-1.1-.5-.5-.8-1-1-1.6l-.3-.9c-.1-.3-.2-.6-.2-.8 0-.3-.1-.6-.1-.8 0-.3-.1-.5-.1-.8 0-1.5.4-2.8 1.2-4 .8-1.2 2.1-2.3 3.7-3.2 1.7-.9 3.6-1.8 5.8-2.6 2.1-.8 4.5-1.5 7.2-2.2v.4-.2zm.1 3.3c-1 .4-2 .7-2.9 1.1-.9.4-1.7.8-2.4 1.3-.9.6-1.8 1.2-2.4 1.9-.7.6-1.2 1.3-1.6 1.9l-.3.6c-.1.2-.2.4-.2.6-.1.2-.1.4-.2.6 0 .2-.1.4-.1.6 0 .2 0 .4.1.6 0 .2.1.4.2.6l.3.6c.1.2.2.4.4.5.2.3.4.5.7.7.3.2.6.4.9.5.2.1.3.1.5.2.2 0 .3.1.5.1h.2c.1 0 .1 0 .2-.1h.2c.8-.2 1.5-.6 2.2-1.2.7-.6 1.4-1.3 2-2.2.6-.9 1.1-2 1.4-3.3.3-1.3.5-2.8.5-4.4v-1c-.2 0-.2-.1-.2-.2zM350.2 366.4h2V399c0 .7.1 1.2.2 1.7.1.4.3.7.6.9.3.2.6.4.9.5.3.1.7.3 1.1.3h.1v.8h-13.2v-.9h2l.1.1h-2l.1-.1c.4 0 .7-.1 1.1-.3.3-.1.6-.3.9-.5.3-.2.5-.5.6-.9.1-.4.2-.9.2-1.6v-27.6c0-.5-.1-.9-.3-1.2-.2-.3-.4-.6-.7-.9-.3-.2-.7-.4-1-.5-.3-.1-.7-.2-1.1-.2l-.1-.1h-.1v-.9l8.6-1.2zM383 371.5c-.8.3-1.6.5-2.3.8-.9.4-1.7 1.1-2.4 2-.7 1-1.4 2.2-2 3.6l-2-.1-.8-.5 2.4-10.6h2c.2.1.4.3.6.3.2.1.4.1.6.2.2 0 .3.1.5.1.2.1.3.1.5.1.1 0 .3.1.4.1.1 0 .3 0 .4.1h.4l16.9-.1c.4.1.8.1 1.1.1.4 0 .7 0 1-.1.3 0 .6-.1.8-.2.2-.1.5-.3.7-.5l2-.1 2.4 11-.8.4h-2c-.3-1.2-.8-2.3-1.4-3.2-.6-.9-1.5-1.7-2.4-2.4-.7-.5-1.6-.9-2.6-1.2-1-.3-2-.5-3.2-.6V399c0 .7.1 1.2.2 1.7.2.4.4.7.7.9.3.2.6.3 1 .5.4.1.7.3 1.1.4h.2v.8h-14.4v-.9c.5 0 1-.1 1.3-.3.4-.2.7-.4 1-.6.3-.3.5-.7.6-1.1.2-.4.2-1 .2-1.6V371c-1 0-1.9.2-2.7.5zM417.5 380.1s0-.1 0 0c.4-.4.8-.7 1.2-1 .4-.3.8-.6 1.2-.8.3-.2.5-.3.8-.5.3-.1.6-.3.9-.4.3-.1.5-.3.8-.4.3-.1.5-.2.8-.3.6-.2 1.1-.3 1.6-.4.5-.1 1-.1 1.5-.1l2-.1c.8 0 1.6.2 2.3.5.7.3 1.3.7 1.8 1.2.6.5 1 1.2 1.3 2 .3.8.4 1.7.4 2.8v15.6c0 1 .1 1.8.2 2.4.2.6.4 1 .7 1.2.3.3.7.4 1.1.5.4.1.8.2 1.2.2v.8h-13.6v-.9c.4.1.8.1 1.1 0 .4-.1.7-.2 1-.4.3-.2.6-.6.8-1.2.2-.6.3-1.4.3-2.5v-13.7c0-.7-.1-1.4-.3-1.9-.2-.6-.4-1-.7-1.4-.2-.2-.4-.4-.7-.6-.3-.2-.5-.3-.8-.3l-.1.1h-.1c-.1 0-.2.1-.3.1-.1 0-.2 0-.3.1-.1 0-.3.1-.4.1-.1 0-.2.1-.3.1-.6.3-1.3.7-1.9 1.1s-1.2 1-1.8 1.6c-.6.6-1 1.3-1.4 1.9-.3.6-.5 1.3-.6 2l-.1.3V399c0 .7.1 1.3.2 1.7.2.4.4.8.7 1 .3.3.7.4 1.1.5.4.1.8.2 1.2.2v.8H407v-.9c.4.1.8.1 1.1 0 .4-.1.7-.2 1-.5.3-.2.6-.5.8-1 .2-.5.3-1.1.3-1.8v-26.8c0-.7-.1-1.3-.2-1.7-.2-.5-.4-.8-.6-1-.3-.2-.6-.4-1-.6-.4-.2-.8-.3-1.3-.4v-.9l8.4-1.3h2v13.8c-.1 0 0 0 0 0zM450.2 395.7c.7 1.2 1.4 2.2 2.4 3 .8.7 1.6 1.3 2.5 1.7.9.4 1.7.7 2.6.9.7-.1 1.5-.3 2.2-.6.7-.3 1.4-.7 2-1.2.8-.6 1.5-1.4 2.2-2.3.6-.9 1.2-2 1.6-3.2l2-.1.8.4-2.8 9.3h-2l-.1-.1c-.1 0-.3.1-.4.1-.2 0-.3.1-.4.1-.1 0-.3 0-.4.1-.2 0-.3.1-.4.1-.5.1-1.1.1-1.6.2s-1.1.1-1.6.1h-2.2c-1.8 0-3.6-.3-5.3-.8-1.7-.5-3.4-1.3-4.9-2.3-1.6-1-2.8-2.4-3.8-4s-1.6-3.5-1.9-5.7c0-.2-.1-.3-.1-.5v-1.4c0-2 .3-3.8 1-5.4.7-1.6 1.7-3 3.1-4.2 1.4-1.2 2.8-2.1 4.4-2.7 1.5-.6 3.1-1 4.8-1l2-.1h.6c1.3 0 2.5.2 3.7.6 1.2.4 2.4.9 3.5 1.7 1.1.8 2.1 1.7 2.9 2.9.8 1.2 1.4 2.6 1.8 4.2l-19.6 5.9c.2 1.6.8 3.1 1.4 4.3zm9.5-11.1c-.3-.9-.6-1.6-1-2.3-.4-.7-.9-1.2-1.5-1.7-.4-.4-.9-.7-1.4-.9-.5-.2-1-.4-1.5-.5-.6.1-1.3.3-1.9.7-.6.4-1.2.8-1.8 1.5-.7.8-1.3 1.7-1.6 2.8-.4 1.1-.5 2.3-.5 3.7V388.2l11.2-3.6zM481.1 379.4c.4-.4.8-.7 1.2-1.1.5-.4 1-.7 1.6-1.1.6-.3 1.3-.6 2.1-.8.8-.2 1.7-.3 2.7-.3l2-.1h.5l.2.1h.3l-1.2 6.3h-2c-.2-.2-.4-.4-.7-.5-.2-.2-.5-.3-.8-.5-.1-.1-.3-.1-.4-.2-.2 0-.3-.1-.5-.1-.5.1-1 .4-1.5.8s-.9.8-1.4 1.5c-.5.6-.9 1.5-1.1 2.4-.2 1-.4 2.2-.4 3.5v10.5c0 .5.1.9.2 1.2.1.3.3.5.5.7.2.2.4.3.7.4.3.1.5.2.7.2h.8v.8h-13.2v-.9c.4.1.8.1 1.1 0 .3-.1.6-.2.9-.5.3-.2.5-.5.6-.8.1-.3.2-.7.2-1.1v-18.7c0-.5-.1-.9-.3-1.2-.2-.4-.4-.7-.7-.9-.3-.2-.7-.4-1-.5-.3-.1-.7-.2-1.1-.2l-.1-.1h-.1v-.9l7.1-.9h2c.2.3.3.5.4.7l.3.6c.1.3.2.5.2.7 0 .2.1.4.1.6.1.3.1.3.1.4zM510.4 384.8l.1-.2v-.4c0-.9-.1-1.6-.4-2.3-.3-.7-.7-1.2-1.2-1.6-.4-.3-.8-.6-1.3-.8-.5-.2-1-.4-1.5-.4h-.4c-.1 0-.3.1-.4.1-.1 0-.3 0-.4.1-.1 0-.3.1-.4.1-.1 0-.3.1-.4.1-.7.3-1.5.6-2.2 1-.7.4-1.5.9-2.1 1.5-.7.6-1.3 1.2-1.8 1.9s-1 1.5-1.3 2.4l-2-.1.8-8.9h2c.1.1.1.2.2.3l.2.2.1.1.1.1h.1c.1 0 .1-.1.2-.1s.1 0 .2-.1c.3-.1.6-.3.9-.5.4-.2.7-.3 1.1-.5.4-.1.8-.3 1.3-.4.5-.1 1-.3 1.5-.4.6-.1 1.2-.3 1.8-.3.7-.1 1.4-.1 2.2-.1l2-.1c1.2 0 2.3.2 3.3.5s2 .8 2.8 1.4c.9.6 1.5 1.3 2 2.1.4.8.6 1.8.6 2.8V397c0 .7.1 1.3.2 1.8s.3 1 .5 1.3c.2.4.4.7.7.9.3.3.5.5.8.6.1.1.3.1.4.2.1.1.2.1.4.1.1 0 .3.1.4.1h.3v.8h-9.2l-.1-.1-.1-.1c-.1-.3-.3-.5-.4-.8-.1-.3-.3-.5-.4-.8 0-.1-.1-.1-.1-.2v-.2s-.1-.1-.1-.2 0-.1-.1-.2c-.3.3-.6.6-.9.8-.3.3-.7.5-1.1.6-.7.4-1.5.8-2.3 1l-2.4.6c-.2 0-.3.1-.5.1h-.8c-.1 0-.2 0-.2.1h-2.5c-.8 0-1.6-.1-2.4-.2-.8-.1-1.5-.3-2.2-.6-.7-.3-1.2-.7-1.7-1.1-.5-.5-.8-1-1-1.6l-.3-.9c-.1-.3-.2-.6-.2-.8 0-.3-.1-.6-.1-.8 0-.3-.1-.5-.1-.8 0-1.5.4-2.8 1.2-4 .8-1.2 2.1-2.3 3.7-3.2 1.7-.9 3.6-1.8 5.8-2.6 2.1-.8 4.5-1.5 7.2-2.2v.4-.2zm.1 3.3c-1 .4-2 .7-2.9 1.1-.9.4-1.7.8-2.4 1.3-.9.6-1.8 1.2-2.4 1.9-.7.6-1.2 1.3-1.6 1.9l-.3.6c-.1.2-.2.4-.2.6-.1.2-.1.4-.2.6v1.2c0 .2.1.4.2.6l.3.6c.1.2.2.4.4.5.2.3.4.5.7.7.3.2.6.4.9.5.2.1.3.1.5.2.2 0 .3.1.5.1h.2s.1 0 .2-.1h.2c.8-.2 1.5-.6 2.2-1.2.7-.6 1.4-1.3 2-2.2.6-.9 1.1-2 1.4-3.3.3-1.3.5-2.8.5-4.4v-1c-.2 0-.2-.1-.2-.2zM533.2 410.4v.2c0 .4.1.8.2 1.1.1.4.3.7.5 1.1.2.3.5.6.8.8.4.2.8.3 1.2.3v.9h-13.6v-.9h.2c.4 0 .7-.1 1.1-.2.3-.1.7-.3 1-.6.3-.3.5-.6.7-1 .2-.4.3-1 .3-1.6V383c0-1.1-.1-2-.2-2.7-.1-.7-.3-1.2-.5-1.5-.2-.3-.5-.5-.9-.7-.4-.2-.9-.3-1.4-.5l-.1-.1v-.9h17.2c2.2.1 4.1.5 5.8 1.2 1.7.7 3.1 1.7 4.3 3.1 1.2 1.4 2.1 2.9 2.7 4.4.6 1.5 1 3.1 1 4.8v.4c0 1.7-.3 3.3-.8 4.8-.6 1.5-1.4 3-2.6 4.3-1.1 1.3-2.6 2.3-4.4 3-1.8.7-3.9 1-6.3 1H536c-.5 0-1-.1-1.5-.1h-.6c-.1 0-.2-.1-.3-.1h-.3v7zm-.4-13.1c0 .6.1 1.1.4 1.5.2.4.6.8 1 1 .4.2.8.4 1.2.5.4.1.8.2 1.3.3h.2c.2 0 .4-.1.6-.1.2-.1.4-.1.7-.1.8-.2 1.7-.6 2.4-1 .8-.5 1.5-1 2.3-1.7.7-.7 1.3-1.6 1.7-2.5.4-1 .7-2.1.8-3.3v-.3l.1-.3v-.5c0-1.7-.2-3.3-.7-4.7-.5-1.4-1.1-2.7-2-3.7-.9-1.1-1.9-1.9-2.9-2.4s-2.1-.8-3.2-.8l-3.5-.1v18.2zM556.8 405.3h2l.8.4V406.3c0 .8 0 1.5.2 2.1.1.6.3 1.1.6 1.4l.5.5c.2.2.3.3.5.3.4-.2.9-.5 1.3-.9s.8-.9 1.2-1.5c.4-.6.7-1.3.9-2 .2-.8.3-1.6.4-2.5 0-.3 0-.6-.1-.9 0-.3-.1-.6-.2-1 0-.3-.1-.7-.2-1-.1-.3-.2-.7-.4-1l-7.6-20c-.1-.3-.2-.5-.4-.8-.2-.3-.4-.6-.6-.8-.2-.3-.5-.5-.8-.6-.3-.1-.6-.2-1-.2l-.1-1h12.4v.9c-.2.1-.5.1-.7.2l-.6.3c-.1.1-.2.3-.3.5-.1.2-.1.4-.1.7V379.6c0 .1 0 .2.1.2l4.7 13.2 4.9-13.3.1-.3.1-.3c0-.2-.1-.4-.2-.6-.1-.2-.2-.4-.4-.6-.2-.2-.4-.3-.7-.4-.3-.1-.5-.2-.9-.2v-1h10v.9c-.3.2-.6.4-.9.5-.3.2-.6.4-.8.6-.2.2-.4.5-.6.8-.2.3-.3.7-.4 1.1L569.1 408c-.4 1.1-.9 2.1-1.5 3-.6.8-1.2 1.5-1.8 2-.7.5-1.4.9-2.2 1.1-.7.3-1.5.4-2.3.4H559c-.1 0-.2 0-.3-.1h-.6c-.2 0-.4-.1-.6-.1-.2 0-.4-.1-.6-.1l-.9-.3c-.3-.1-.6-.2-.9-.4l-.6-.3c-.2-.1-.3-.2-.5-.3-.1-.1-.2-.1-.3-.2-.1 0-.2-.1-.3-.2h-.1l3.5-7.2zM609.5 379.9c-.4-.3-.7-.7-.9-1-.3-.4-.5-.8-.7-1.2-.2-.4-.4-.7-.5-1.1-.1-.2-.1-.4-.2-.6-.1-.2-.1-.4-.1-.6 0-.2-.1-.4-.1-.6v-.6c0-1 .2-2 .7-2.9.4-.9 1.1-1.7 1.9-2.5.9-.8 1.8-1.4 2.9-1.8 1-.4 2.2-.6 3.4-.6l2-.1c1.3 0 2.4.2 3.5.6 1 .3 1.9.8 2.7 1.5.8.7 1.4 1.4 1.7 2.2.4.8.6 1.6.6 2.5V373.4l-.1.1v.5l-.1.1v.2c0 .1-.1.3-.1.4 0 .1-.1.2-.1.3l-.1.1v.2l-.1.1c0 .1 0 .1-.1.2 1 .6 2 1.2 2.9 1.6.9.4 1.7.8 2.5 1.1.5.2 1.1.3 1.5.5.5.1 1 .2 1.4.2.3-.1.6-.2.9-.2.3-.1.5-.2.7-.4.3-.3.5-.5.7-.8.2-.3.3-.6.4-.9v-.3l.1-.3c0-.2 0-.4-.1-.6-.1-.2-.2-.4-.4-.6 0-.1-.1-.1-.1-.2-.1-.1-.1-.1-.2-.1v.1c-.2.1-.5.2-.7.4-.2.2-.4.4-.7.6l-2-.1-.4-.5c.3-.4.5-.7.8-1l.9-.9c.3-.3.7-.5 1-.6.4-.2.7-.3 1-.4.1 0 .2-.1.3-.1h.5c.1 0 .1 0 .2-.1h.2l2-.1c.5 0 1 .1 1.4.3.4.2.9.4 1.3.8s.7.8 1 1.3c.3.5.4 1.1.6 1.8v.1s0 .1.1.1V376.9c0 .9-.2 1.7-.5 2.4-.4.8-.9 1.5-1.6 2.2-.7.7-1.5 1.2-2.3 1.5-.8.3-1.7.5-2.7.5l-2-.1c-.2 0-.4.1-.6.1-.2 0-.4 0-.5-.1-.1 0-.3-.1-.4-.1-.1 0-.2 0-.3-.1-.1 0-.1-.1-.2-.1s-.1 0-.2-.1c0 .1.1.2.1.3 0 .1 0 .2.1.3.1.3.1.5.2.8.1.3.1.6.2.9.1.3.1.7.2 1 0 .3.1.7.1 1.1v.6c0 .1-.1.2-.1.3v.3c0 .3-.1.5-.1.7 0 .2-.1.5-.1.7 1.1 1.1 2 2.1 2.8 3.1.8 1 1.4 2 2 2.9.5.9 1 1.8 1.5 2.5s.9 1.4 1.3 1.9c.1.1.1.2.2.3.1.1.2.2.3.2.1.1.1.2.2.2.1.1.2.1.2.2.2.1.3.2.5.3.2.1.4.1.6.2v.8h-14v-.9c.4-.1.8-.2 1.1-.3.3-.2.5-.3.7-.6.2-.2.3-.4.4-.7.1-.2.2-.5.2-.7v-.5c0-.1-.1-.1-.1-.2s0-.1-.1-.2c0-.2-.1-.3-.2-.5-.1-.1-.2-.3-.4-.4l-.4-.6c-.5.8-1.1 1.6-1.8 2.2-.7.6-1.5 1.2-2.4 1.7-1.2.6-2.5 1.1-3.7 1.4-1.3.3-2.6.5-4 .5H615.3c-.1 0-.1-.1-.2-.1h-1c-.7-.1-1.5-.2-2.2-.3-.7-.2-1.5-.4-2.2-.7-.7-.3-1.4-.6-2.1-1-.7-.4-1.3-.9-1.8-1.4-.6-.5-1.1-1-1.6-1.6-.4-.6-.8-1.1-1.1-1.7-.3-.6-.5-1.2-.7-1.8-.2-.6-.3-1.2-.3-1.9v-.8c0-1.2.2-2.4.6-3.5.4-1.1 1-2.2 1.8-3.3.8-1.1 1.8-2 2.8-2.7 1.1-.7 2.3-1.3 3.6-1.7v-.1c-.7.3-1.1 0-1.4-.3zm2.6 4.3c-.4.5-.8 1-1 1.6-.4.8-.7 1.5-.9 2.3-.2.8-.3 1.5-.3 2.3 0 1.2.2 2.4.6 3.5.4 1.1 1 2.2 1.7 3.2.7.9 1.4 1.6 2.2 2.1.8.5 1.7.8 2.7.9.1 0 .3 0 .4-.1.1 0 .2-.1.4-.1.8-.1 1.6-.3 2.3-.6.8-.3 1.5-.6 2.3-1.1.8-.5 1.5-1 2.1-1.7.6-.7 1.2-1.5 1.7-2.5l-12.7-11.2c-.6.5-1.1.9-1.5 1.4zm5.7-6.1c.3-.1.6-.3.8-.6.2-.2.4-.5.6-.7.3-.4.5-.9.7-1.3.2-.4.3-.9.3-1.3v-.6c0-.6-.1-1.1-.3-1.6-.2-.5-.4-1-.8-1.5-.2-.3-.5-.6-.9-.8-.3-.2-.7-.4-1.1-.5-.4.1-.8.2-1.2.4-.4.2-.7.4-.9.7-.3.3-.6.7-.8 1.1-.2.4-.3.9-.3 1.4 0 .3 0 .6.1 1 .1.3.2.7.4 1 .2.4.4.7.7 1.1.3.4.6.7 1 1.1.2.1.3.3.5.5s.4.3.6.5c.1 0 .1.1.2.1.2-.1.3-.1.4 0zm2.2 1.9 8.2 6.7v-.1c0-.3-.1-.7-.1-1-.1-.3-.1-.7-.2-1-.2-.8-.4-1.6-.7-2.4-.3-.8-.6-1.6-1-2.3-.2-.4-.5-.8-.7-1.2-.2-.4-.5-.7-.8-1l-.3.3c-.1.1-.2.2-.4.3-.3.3-.6.5-.9.6-.3.2-.6.3-.9.5-.2.1-.5.2-.7.3-.2.1-.4.2-.6.2-.2 0-.3.1-.5.1h-.4z"/><g><path class="st0" d="m119.1 438.2-.8.4h-2c-.3-1-.7-2-1.3-2.9-.6-.9-1.2-1.6-2.1-2.2-.8-.6-1.6-1.1-2.5-1.5-.8-.4-1.7-.7-2.6-.9-.1 0-.2-.1-.3-.1h-.3c-.1 0-.3-.1-.4-.1h-.6c-.4 0-.9.1-1.3.2l-1.2.3c-.5.2-1 .5-1.4.7-.4.3-.7.6-.9.9-.1.1-.2.3-.3.5-.1.2-.1.3-.2.5 0 .1-.1.3-.1.4 0 .1-.1.3-.1.4 0 .6.2 1.2.7 1.7.5.5 1.2 1 2.1 1.3 1 .4 2 .7 3 1 1 .3 2.1.7 3.3.9.4.1.8.2 1.1.3.4.1.8.2 1.1.3.4.1.7.3 1.1.4.4.1.7.2 1.1.3.7.2 1.3.5 1.9.7.6.3 1.1.5 1.5.8.8.6 1.5 1.2 2.2 1.8.6.6 1.2 1.3 1.6 2.1.5.8.8 1.5 1 2.3.2.8.3 1.6.3 2.4 0 .5 0 1-.1 1.5s-.2 1-.4 1.5c-.1.3-.2.5-.3.8-.1.3-.2.5-.4.8-.1.3-.3.6-.4.8-.1.3-.3.5-.5.8 0 .1-.1.1-.1.2-.1.1-.1.1-.1.2l-.2.2c0 .1-.1.1-.2.2s-.2.3-.3.4l-.3.3c-.8.9-1.6 1.7-2.5 2.3-.9.7-1.8 1.2-2.8 1.6-.9.4-1.9.6-2.9.8-1 .2-2 .3-3 .3h-2c-.6 0-1.1 0-1.7-.1-.6-.1-1.1-.1-1.7-.2-.3 0-.5-.1-.8-.2-.3-.1-.6-.1-.8-.2l-.9-.3c-.3-.1-.6-.2-.8-.3h-.1s-.1 0-.1-.1h-.2l-.3-.2h-1l-.1.1h-.1c-.2.1-.4.2-.5.3-.1.1-.3.3-.4.5h-2l-2.8-14 .8-.4h2c0 .3.1.6.1.9.1.3.1.6.2.9.1.3.2.6.4.9.1.3.3.6.4.9.5 1 1.1 2 1.8 2.9.8.9 1.7 1.8 2.7 2.6.9.7 1.9 1.3 2.9 1.7 1.1.4 2.2.7 3.4.7.3 0 .5 0 .8-.1.3-.1.6-.1.8-.1.5-.1 1-.2 1.5-.4l1.5-.6c.5-.2 1-.5 1.4-.9.4-.4.8-.9 1.1-1.5.3-.6.5-1.2.7-1.8.2-.6.3-1.2.3-1.9 0-.6-.1-1.2-.3-1.8-.2-.6-.4-1.1-.8-1.7-.3-.5-.8-1-1.3-1.4-.5-.4-1.2-.7-2-1l-.9-.3-.9-.3c-.1-.1-.3-.1-.5-.2-.2 0-.3-.1-.5-.2-.2 0-.3-.1-.5-.1-.2-.1-.3-.1-.5-.1-.1 0-.1-.1-.2-.1s-.1 0-.2-.1h-.2c-.1 0-.1 0-.2-.1-.1 0-.3-.1-.4-.1-.1 0-.2-.1-.3-.1-1.6-.5-3-1-4.4-1.6-1.4-.6-2.7-1.2-4-1.9-1.3-.7-2.2-1.5-2.8-2.6-.6-1-1-2.2-1-3.5v-.5c0-.2 0-.4.1-.5 0-.2.1-.4.1-.6.1-.2.1-.4.1-.6.3-1.1.8-2.1 1.5-2.9.7-.8 1.6-1.5 2.7-2s2.3-.9 3.5-1.2c1.2-.3 2.4-.4 3.7-.4l2-.1c.2 0 .4.1.6.1.2 0 .4 0 .7.1h.6c.2 0 .4 0 .6.1.4 0 .8.1 1.2.2l1.2.3.3.1.1.1h.1s0 .1.1.1h.5s.1.1.2.1h.2c.1 0 .2-.1.3-.1.1 0 .2 0 .2-.1.2-.1.4-.2.5-.3.2-.2.3-.4.4-.6v-.1h2l2.8 11.3zM136.2 470.8v.2c0 .4.1.8.2 1.1.1.4.3.7.5 1.1.2.3.5.6.8.8.4.2.8.3 1.2.3v.9h-13.5v-.9h.2c.4 0 .7-.1 1.1-.2.3-.1.7-.3 1-.6.3-.3.5-.6.7-1 .2-.4.3-1 .3-1.6v-27.5c0-1.1-.1-2-.2-2.7-.1-.7-.3-1.2-.5-1.5-.2-.3-.5-.5-.9-.7-.4-.2-.9-.3-1.4-.5l-.1-.1v-.9h17.1c2.2.1 4.1.5 5.8 1.2s3.1 1.7 4.3 3.1c1.2 1.4 2.1 2.9 2.7 4.4.6 1.5 1 3.1 1 4.8v.4c0 1.7-.3 3.3-.8 4.8-.6 1.5-1.4 3-2.6 4.3-1.1 1.3-2.6 2.3-4.4 3-1.8.7-3.9 1-6.3 1H139c-.5 0-1-.1-1.5-.1h-.6c-.1 0-.2-.1-.3-.1h-.3v7zm-.4-13.1c0 .6.1 1.1.4 1.5.2.4.6.8 1 1 .4.2.8.4 1.2.5.4.1.8.2 1.3.3h.2c.2 0 .4-.1.6-.1.2-.1.4-.1.7-.1.8-.2 1.7-.6 2.4-1 .8-.5 1.5-1 2.3-1.7.7-.7 1.3-1.6 1.7-2.5.4-1 .7-2.1.8-3.3v-.3l.1-.3v-.5c0-1.7-.2-3.3-.7-4.7-.5-1.4-1.1-2.7-2-3.7-.9-1.1-1.9-1.9-2.9-2.4s-2.1-.8-3.2-.8l-3.5-.1v18.2zM159.2 444.2c.8-1.7 1.8-3.1 3.3-4.3 1.4-1.2 2.9-2.1 4.5-2.7 1.6-.6 3.2-1 4.9-1l2-.1h.5c1.7 0 3.3.3 4.9.9 1.6.6 3 1.5 4.4 2.6 1.4 1.1 2.4 2.6 3.2 4.4.7 1.8 1.1 3.8 1.2 6.1v.4c0 2.4-.4 4.5-1.1 6.3-.7 1.8-1.8 3.3-3.2 4.4-1.5 1.2-3 2.1-4.6 2.6-1.6.6-3.2.8-5 .8H171.8c-1.8 0-3.4-.3-5-.9-1.6-.6-3.1-1.5-4.6-2.7-1.5-1.2-2.5-2.7-3.2-4.5-.7-1.8-1.1-3.9-1.1-6.3v-.1c.1-2.2.6-4.2 1.3-5.9zm19.9 1.1c-.4-1.2-1.1-2.3-1.9-3.1-.7-.7-1.4-1.3-2.2-1.7-.8-.4-1.5-.7-2.4-.9-.8.1-1.5.4-2.3.8-.7.4-1.4.9-2.1 1.6-.8.8-1.4 1.8-1.8 3-.4 1.2-.6 2.6-.6 4.2V450.7c.2 2 .5 3.7 1 5.1.5 1.4 1.1 2.6 1.8 3.4.6.7 1.3 1.2 2 1.7.7.4 1.3.7 2.1.8.8-.1 1.6-.4 2.4-.9.8-.4 1.5-1 2.2-1.8.9-.9 1.5-2 2-3.3.4-1.2.6-2.6.6-4.2v-.4c0-.1-.1-.1-.1-.2v-.7c0-.1-.1-.1-.1-.2V449.7c.1-1.7-.2-3.1-.6-4.4zM200.9 439.8c.4-.4.8-.7 1.2-1.1.5-.4 1-.7 1.6-1.1.6-.3 1.3-.6 2.1-.8.8-.2 1.7-.3 2.7-.3l2-.1h.5l.2.1h.3l-1.2 6.3h-2c-.2-.2-.4-.4-.7-.5-.2-.2-.5-.3-.8-.5-.1-.1-.3-.1-.4-.2-.2 0-.3-.1-.5-.1-.5.1-1 .4-1.5.8s-.9.8-1.4 1.5c-.5.6-.9 1.5-1.1 2.4-.2 1-.4 2.2-.4 3.5v10.5c0 .5.1.9.2 1.2.1.3.3.5.5.7.2.2.4.3.7.4.3.1.5.2.7.2h.8v.8H191v-.9c.4.1.8.1 1.1 0 .3-.1.6-.2.9-.5.3-.2.5-.5.6-.8.1-.3.2-.7.2-1.1v-18.7c0-.5-.1-.9-.3-1.2-.2-.4-.4-.7-.7-.9-.3-.2-.7-.4-1-.5-.3-.1-.7-.2-1.1-.2l-.1-.1h-.1v-.9l7.1-.9h2c.2.3.3.5.4.7l.3.6c.1.3.2.5.2.7.1.2.1.4.1.6.3.3.3.3.3.4z"/><path class="st0" d="m224.2 437.8.1.1s.1 0 .1-.1h.2l.9-.3c.3-.1.7-.3 1.1-.5l2-.1-2 4.2h-2c-.1-.1-.2-.1-.3-.2-.1-.1-.2-.1-.3-.2-.1-.1-.2-.1-.3-.2-.1 0-.2-.1-.3-.1-.2 0-.4-.1-.6-.1h-.6l-1.2-.1v15.2c0 1.1.1 2 .3 2.7.2.7.5 1.3.8 1.7.2.3.5.5.8.6.3.2.5.3.8.4l.9-.3c.3-.1.6-.3.8-.4.4-.3.7-.5 1-.8.3-.3.5-.5.6-.8l2-.1.8.3-2 4.7c-.6.2-1.1.3-1.6.4l-1.5.3c-.5.1-.9.1-1.4.2-.4.1-.8.1-1.2.1h-2c-1.4 0-2.5-.2-3.4-.6-.9-.4-1.6-1-2-1.9-.4-.8-.8-1.8-1-2.9-.2-1.1-.3-2.3-.3-3.6v-15.3h-3.2v-.9c.7-.1 1.3-.3 1.8-.7.5-.4.9-.9 1.3-1.5.3-.6.6-1.2.8-1.9.2-.7.3-1.3.4-2V432l-.1-.1v-.5s-.1-.1-.1-.2v-.2c0-.1-.1-.3-.1-.4 0-.1 0-.3-.1-.4l4.8-2.6h2v10.2h3.3zM252.9 445.4l-.8.4h-2V445.5c0-.8-.2-1.6-.5-2.2-.3-.7-.8-1.2-1.5-1.7s-1.4-.9-2.1-1.2c-.7-.3-1.5-.6-2.3-.8-.2-.1-.5-.1-.7-.1-.2 0-.5 0-.7-.1h-.4c-.1 0-.3.1-.4.1-.2 0-.3 0-.4.1-.3 0-.5.1-.7.2l-.6.3c-.1.1-.3.2-.4.3-.1.1-.2.3-.3.5-.1.1-.1.3-.2.5 0 .2-.1.3-.1.5V442.5c0 .1 0 .2.1.3 0 .1.1.2.1.2.1.3.3.6.5.9.2.3.5.5.9.8.3.3.7.5 1.2.7.5.2 1 .4 1.6.6 1.9.5 3.6 1 5 1.6 1.4.6 2.7 1.2 3.7 2 1 .7 1.8 1.5 2.4 2.4.5.9.8 1.9.8 3 0 .4 0 .7-.1 1.2-.1.4-.2.8-.3 1.3-.1.4-.3.9-.5 1.3s-.4.9-.7 1.3c-.4.8-.9 1.5-1.5 2-.6.6-1.4 1-2.3 1.4-.9.3-1.8.5-2.8.7-1 .2-2 .3-3.1.3H241.2c-.1 0-.3-.1-.4-.1h-.3c-.2 0-.5-.1-.7-.1h-.6c-.2 0-.3-.1-.5-.1s-.4-.1-.5-.1c-.2 0-.3-.1-.5-.1s-.3-.1-.5-.1c-.3 0-.7-.1-1-.2-.3-.1-.7-.2-1-.3-.2-.1-.4-.1-.6-.2-.2-.1-.4-.1-.6-.1h-.1l-.1-.1H233.5c-.1 0-.3.1-.4.2-.2.1-.3.1-.4.2l-2-.1-.4-10.6.8-.4h2c.1 1.5.3 2.8.8 3.8.5 1.1 1.1 2 2 2.7.9.7 1.8 1.3 2.8 1.7 1 .4 2 .7 3 .8h.2l.1.1h.7c.1 0 .2-.1.3-.1.1 0 .2 0 .3-.1.4-.1.7-.2 1.1-.3.4-.1.7-.3 1-.4l.9-.6c.3-.2.4-.5.6-.7.2-.3.3-.6.4-.9.1-.3.1-.6.1-.9v-.2s-.1 0-.1-.1V456.8l-.1-.1v-.1c-.1-.4-.3-.8-.5-1.1-.2-.3-.5-.7-.8-1-.3-.4-.7-.7-1.1-.9-.4-.3-.9-.5-1.5-.6-1.8-.4-3.4-.9-4.9-1.4-1.5-.5-2.8-1.1-4-1.7-1.1-.6-2-1.4-2.6-2.5-.6-1-.9-2.3-.9-3.8 0-.9.2-1.7.6-2.6.4-.8 1-1.6 1.8-2.3.8-.8 1.8-1.3 3-1.7 1.2-.4 2.5-.6 3.9-.6l2-.1c.3 0 .5.1.8.1.3 0 .6 0 .9.1.3 0 .6.1.9.1.3 0 .6.1.9.2.2 0 .4.1.6.1.2 0 .4.1.6.1.1 0 .2.1.3.1h.3c.1 0 .2.1.3.1h.3c.3.1.5.1.8.2.3.1.5.1.8.2h.1c.1 0 .1-.1.1-.1s0-.1.1-.1l.1-.1V437h2l.8 8.4zM302.7 431.5l.1-.1c0-.1.1-.1.1-.2 0 0 .1-.1.1-.2s0-.1.1-.2c0-.1.1-.1.1-.2v-.2l.1-.1v-.1c0-.1 0-.3-.1-.4-.1-.1-.1-.2-.2-.3-.1-.1-.2-.2-.4-.3-.2-.1-.4-.2-.6-.2v-.9h14.8v.8c-.4.2-.8.4-1.2.5-.4.2-.7.4-1.1.6-.3.3-.6.6-.7 1.2-.2.5-.2 1.2-.2 2v25.3c0 .7.1 1.3.2 1.8s.3 1 .6 1.4c.3.4.6.6.9.8.3.2.7.3 1.1.3v.8H302v-.9c.6 0 1.1-.2 1.5-.3.5-.2.8-.4 1.1-.7.3-.3.5-.7.7-1.2.2-.5.2-1.1.2-1.9v-22.5l-8.8 14.8h-2l-8-14.5v23.1c0 .1 0 .2.1.3 0 .1 0 .3.1.4 0 .1.1.2.1.3.1.3.2.5.3.8.2.3.3.5.6.7.2.3.5.4.8.6.4.1.8.3 1.2.3v.8h-12.4v-.9h2l.1.1h-2l.1-.1c.4 0 .8-.1 1.1-.3s.7-.3 1-.5c.3-.2.5-.5.7-.9.2-.4.3-.9.3-1.6v-25.9c0-.6-.1-1.1-.2-1.6s-.2-.8-.4-1.1c-.2-.3-.4-.5-.6-.8s-.4-.4-.6-.5c-.1 0-.1-.1-.2-.1s-.1 0-.2-.1h-.1c-.1 0-.1 0-.2-.1-.1 0-.2-.1-.3-.1-.1 0-.2-.1-.3-.1l-.2-.1-.1-.1v-.9h15.2v.8c-.1.1-.3.2-.4.2-.1.1-.2.2-.3.2 0 .1-.1.2-.1.2 0 .1-.1.2-.1.3 0 .1 0 .3.1.5 0 .2.1.4.2.6.1.2.2.4.3.7.1.2.2.5.3.7l.2.3v.2s0 .1.1.1v.2l4.2 7.8 5.6-9.3zM330 456.1c.7 1.2 1.4 2.2 2.4 3 .8.7 1.6 1.3 2.5 1.7.9.4 1.7.7 2.6.9.7-.1 1.5-.3 2.2-.6.7-.3 1.4-.7 2-1.2.8-.6 1.5-1.4 2.2-2.3.6-.9 1.2-2 1.6-3.2l2-.1.8.4-2.8 9.3h-2l-.1-.1c-.1 0-.3.1-.4.1-.2 0-.3.1-.4.1-.1 0-.3 0-.4.1-.2 0-.3.1-.4.1-.5.1-1.1.1-1.6.2s-1.1.1-1.6.1h-2.2c-1.8 0-3.6-.3-5.3-.8-1.7-.5-3.4-1.3-4.9-2.3-1.6-1-2.8-2.4-3.8-4s-1.6-3.5-1.9-5.7c0-.2-.1-.3-.1-.5v-1.4c0-2 .3-3.8 1-5.4.7-1.6 1.7-3 3.1-4.2 1.4-1.2 2.8-2.1 4.4-2.7 1.5-.6 3.1-1 4.8-1l2-.1h.6c1.3 0 2.5.2 3.7.6 1.2.4 2.4.9 3.5 1.7 1.1.8 2.1 1.7 2.9 2.9.8 1.2 1.4 2.6 1.8 4.2l-19.6 5.9c.1 1.6.7 3.1 1.4 4.3zm9.4-11.1c-.3-.9-.6-1.6-1-2.3-.4-.7-.9-1.2-1.5-1.7-.4-.4-.9-.7-1.4-.9-.5-.2-1-.4-1.5-.5-.6.1-1.3.3-1.9.7-.6.4-1.2.8-1.8 1.5-.7.8-1.3 1.7-1.6 2.8-.4 1.1-.5 2.3-.5 3.7V448.6l11.2-3.6zM378.6 459c0 .7.1 1.3.2 1.8s.3.9.6 1.2c.3.3.6.6.9.7.3.1.7.2 1.1.2v.8H365c-2.3 0-4.3-.3-6.1-1-1.8-.7-3.2-1.7-4.5-3.2-1.2-1.4-2.1-2.9-2.8-4.5-.6-1.6-.9-3.2-.9-4.9 0-1.7.3-3.4 1-4.9.6-1.6 1.6-3.1 2.9-4.5 1.3-1.4 2.9-2.5 4.9-3.2 2-.7 4.3-1.1 7-1.1l2-.1c.4 0 .8.1 1.1.1.4 0 .8 0 1.2.1h.2c.1 0 .2 0 .2.1v-3.3c0-.9-.1-1.6-.3-2.2-.2-.6-.4-1-.8-1.2-.3-.2-.7-.4-1-.5-.4-.1-.7-.2-1.1-.2v-.9l8.4-1.7h2V459zm-7.2-16.6c0-.5-.1-1-.3-1.5-.2-.4-.5-.8-.9-1.1-.3-.2-.6-.3-.9-.5-.3-.1-.7-.3-1.1-.3l-.1.1h-.2c-.1 0-.3.1-.4.1-.1 0-.2 0-.3.1-.1 0-.3.1-.4.1-.1 0-.2.1-.4.1-.8.3-1.6.6-2.4 1.2-.8.5-1.5 1.1-2.2 1.9-.7.7-1.3 1.5-1.6 2.4-.4.9-.6 1.9-.7 3.1 0 .2-.1.4-.1.6v1.6c0 1.6.1 3.1.5 4.3.4 1.2.9 2.2 1.7 3 .8.8 1.6 1.4 2.4 1.9.8.5 1.7.9 2.6 1.1.2.1.4.1.6.2.2.1.4.1.7.1.2 0 .4.1.6.1.2 0 .4.1.6.1.2 0 .5.1.7.1h.6s.1 0 .1-.1H371.6V442.4zM394.2 459c0 .7.1 1.3.2 1.8s.3.9.5 1.2c.2.3.6.6 1 .7.4.1.9.2 1.5.2v.8h-13.5v-.9c.5.1.9 0 1.3-.1s.7-.3 1-.6c.3-.3.5-.7.6-1.2.2-.5.2-1.1.2-1.9v-17c0-.7-.1-1.2-.3-1.7-.2-.4-.4-.8-.7-1-.3-.2-.7-.4-1-.5-.3-.1-.7-.3-1.1-.4l-.1-.1h-.1v-.9l8.4-.9h2V459zm-8.1-31.2c.2-.4.5-.8.8-1.1.4-.3.7-.6 1.1-.7.4-.2.8-.3 1.2-.3l2-.1h.2c.4 0 .9.1 1.3.3.4.1.8.4 1.1.7.4.3.6.7.8 1.2.2.5.3 1 .3 1.6v.4c0 .7-.1 1.3-.3 1.8-.2.5-.4.9-.8 1.2-.3.3-.7.6-1.1.7-.4.1-.8.2-1.2.2l-2-.1h-.1c-.5 0-.9 0-1.4-.2-.4-.2-.8-.5-1.2-.8-.4-.4-.7-.8-.9-1.3-.2-.5-.3-1.1-.3-1.8v-.1c.2-.7.3-1.2.5-1.6zM425.3 444.6l-.8.4h-2c-.1-.7-.4-1.4-.9-2.1-.5-.7-1.1-1.3-1.9-1.9-.7-.5-1.4-.9-2.2-1.2-.8-.3-1.5-.5-2.4-.6-.8.1-1.5.4-2.2.8-.7.4-1.4.8-2.1 1.5-.8.8-1.4 1.8-1.8 3.1-.4 1.3-.6 2.9-.6 4.8v.3l.1.3v.6c.1 1.6.4 3 .9 4.2.5 1.3 1.3 2.4 2.3 3.3 1 1 2 1.7 3.1 2.3 1.1.6 2.2.9 3.3 1 .6-.1 1.2-.2 1.7-.4.6-.2 1.2-.5 1.7-.9.7-.5 1.3-1.1 1.9-1.8.5-.8 1-1.6 1.4-2.7l2-.1.8.4-2.8 8.5h-2l-.7-.3h-.2c-.1 0-.1 0-.2.1h-.4c-.4 0-.7.1-1.1.1h-3.1c-2.4 0-4.6-.3-6.5-.8-1.9-.6-3.5-1.4-4.9-2.6-1.4-1.2-2.5-2.6-3.3-4.2-.8-1.6-1.4-3.5-1.6-5.6 0-.1-.1-.3-.1-.4v-1.3c0-1.7.2-3.3.7-4.8.5-1.5 1.2-2.9 2.1-4.2 1-1.4 2.2-2.4 3.5-3.1 1.4-.7 3-1 4.8-1l2-.1h.3l.1.1H414.8l.1.1H415.2c.8.1 1.6.1 2.3.2.7.1 1.2.1 1.7.2H420.7c.1 0 .2-.1.3-.1.1-.1.2-.1.2-.2l.2-.3s.1 0 .1-.1c.1-.1.1-.1.2-.1v-.1h2l1.6 8.7zM439.3 459c0 .7.1 1.3.2 1.8s.3.9.5 1.2c.2.3.6.6 1 .7.4.1.9.2 1.5.2v.8H429v-.9c.5.1.9 0 1.3-.1s.7-.3 1-.6c.3-.3.5-.7.6-1.2.2-.5.2-1.1.2-1.9v-17c0-.7-.1-1.2-.3-1.7-.2-.4-.4-.8-.7-1-.3-.2-.7-.4-1-.5-.3-.1-.7-.3-1.1-.4l-.1-.1h-.1v-.9l8.4-.9h2V459zm-8-31.2c.2-.4.5-.8.8-1.1.4-.3.7-.6 1.1-.7.4-.2.8-.3 1.2-.3l2-.1h.2c.4 0 .9.1 1.3.3.4.1.8.4 1.1.7.4.3.6.7.8 1.2.2.5.3 1 .3 1.6v.4c0 .7-.1 1.3-.3 1.8-.2.5-.4.9-.8 1.2-.3.3-.7.6-1.1.7-.4.1-.8.2-1.2.2l-2-.1h-.1c-.5 0-.9 0-1.4-.2-.4-.2-.8-.5-1.2-.8-.4-.4-.7-.8-.9-1.3-.2-.5-.3-1.1-.3-1.8v-.1c.1-.7.3-1.2.5-1.6zM455.7 440c.2-.1.4-.3.6-.5.2-.2.4-.3.6-.5.7-.5 1.3-.9 2-1.3l2.1-.9c.3-.1.5-.1.8-.2.3-.1.5-.1.8-.2.3-.1.5-.1.8-.1h.8l2-.1c.8 0 1.6.2 2.3.4.7.3 1.4.6 2 1.1.6.5 1 1.2 1.3 2.1.3.8.5 1.8.5 3v16.4c0 .7.1 1.3.2 1.7.2.4.4.8.7 1 .3.3.7.4 1.1.5.4.1.8.2 1.2.2v.8H462v-.9c.5.1.9 0 1.3-.1s.6-.4.8-.7c.2-.3.4-.7.5-1.2.1-.5.2-1 .2-1.7v-13.7c0-.8-.1-1.5-.3-2.1-.2-.6-.4-1.1-.7-1.4-.2-.3-.4-.5-.7-.6-.3-.2-.5-.3-.8-.4 0 0-.1 0-.2.1-.1 0-.1.1-.2.1s-.2.1-.3.1c-.1 0-.2.1-.3.1-.6.3-1.3.6-1.9 1.1-.6.5-1.2 1-1.8 1.7-.5.6-1 1.3-1.2 2-.3.7-.4 1.4-.5 2.1v10.7c0 .9.1 1.6.2 2.2.1.6.3 1 .6 1.3.3.3.6.4.9.6.3.1.7.2 1.1.2v.8h-13.6v-.9c.5.1 1 0 1.3-.1.4-.1.7-.3 1-.6.3-.3.5-.7.6-1.3.2-.6.2-1.3.2-2.1v-15c0-1.2-.1-2.2-.3-3-.2-.8-.4-1.3-.8-1.5-.3-.3-.7-.5-1-.6-.4-.1-.7-.2-1.1-.2v-1l7.2-.9h2c.2.5.4.9.6 1.3.2.4.3.8.4 1.2.1.2.1.4.2.6.3.1.3.3.3.4zM488.5 456.1c.7 1.2 1.4 2.2 2.4 3 .8.7 1.6 1.3 2.5 1.7.9.4 1.7.7 2.6.9.7-.1 1.5-.3 2.2-.6.7-.3 1.4-.7 2-1.2.8-.6 1.5-1.4 2.2-2.3.6-.9 1.2-2 1.6-3.2l2-.1.8.4-2.8 9.3h-2l-.1-.1c-.1 0-.3.1-.4.1-.2 0-.3.1-.4.1-.1 0-.3 0-.4.1-.2 0-.3.1-.4.1-.5.1-1.1.1-1.6.2s-1.1.1-1.6.1h-2.2c-1.8 0-3.6-.3-5.3-.8-1.7-.5-3.4-1.3-4.9-2.3-1.6-1-2.8-2.4-3.8-4s-1.6-3.5-1.9-5.7c0-.2-.1-.3-.1-.5v-1.4c0-2 .3-3.8 1-5.4.7-1.6 1.7-3 3.1-4.2 1.4-1.2 2.8-2.1 4.4-2.7 1.5-.6 3.1-1 4.8-1l2-.1h.6c1.3 0 2.5.2 3.7.6 1.2.4 2.4.9 3.5 1.7 1.1.8 2.1 1.7 2.9 2.9.8 1.2 1.4 2.6 1.8 4.2l-19.6 5.9c.2 1.6.7 3.1 1.4 4.3zm9.4-11.1c-.3-.9-.6-1.6-1-2.3-.4-.7-.9-1.2-1.5-1.7-.4-.4-.9-.7-1.4-.9-.5-.2-1-.4-1.5-.5-.6.1-1.3.3-1.9.7-.6.4-1.2.8-1.8 1.5-.7.8-1.3 1.7-1.6 2.8-.4 1.1-.5 2.3-.5 3.7V448.6l11.2-3.6zM556.8 464h-.4l-.1-.1h-2.6c-.1 0-.3 0-.4.1h-2.8c-.6 0-1.3 0-2-.1-.7 0-1.4-.1-2.1-.2-.7 0-1.4-.1-2.2-.2-.7-.1-1.5-.3-2.2-.5-.7-.2-1.4-.4-2.1-.7-.7-.3-1.4-.6-2.1-1-.7-.4-1.3-.8-2-1.2-.6-.5-1.3-1-1.9-1.6-.9-.8-1.7-1.7-2.4-2.7-.7-1-1.3-2-1.9-3.1-.5-1.1-1-2.3-1.3-3.4-.3-1.1-.5-2.3-.6-3.5V444c0-.6 0-1.3.1-1.9.1-.6.1-1.2.3-1.9.1-.6.3-1.2.5-1.8.2-.6.4-1.1.7-1.7.6-1.3 1.2-2.4 2-3.4.7-1 1.6-1.9 2.5-2.6.9-.8 2-1.4 3.2-1.8 1.2-.5 2.7-.8 4.3-1 .2 0 .5-.1.7-.1h1.1c.1 0 .2 0 .3-.1h.7l2-.1c.4 0 .8.1 1.2.1.4 0 .8 0 1.1.1.4 0 .7.1 1.1.1.4 0 .7 0 1 .1.3 0 .6.1.9.1.3.1.6.1.9.1h.5c.1 0 .2 0 .3-.1h.4c.3-.1.5-.2.7-.3.2-.1.4-.3.6-.4l2-.1 2.4 10.1-.8.4h-2c-.3-1.1-.8-2.1-1.5-3-.7-.9-1.5-1.6-2.5-2.3-.9-.6-1.8-1-2.7-1.3-.9-.3-1.9-.5-2.9-.6-1.2.1-2.5.4-3.6 1-1.2.5-2.3 1.3-3.4 2.3-1.1 1.1-2 2.5-2.6 4.2-.6 1.7-.9 3.7-.9 6.1v.5c.1 2.4.5 4.6 1.2 6.5.8 1.9 1.9 3.6 3.3 5.1 1.5 1.4 3 2.6 4.6 3.4 1.6.8 3.3 1.3 5 1.5h.1c.9-.1 1.9-.3 2.8-.5.9-.3 1.8-.7 2.6-1.3 1-.6 1.9-1.5 2.7-2.5.8-1 1.5-2.2 2.1-3.5l2-.1.8.4-4 10.6h-2c-.5-.3-.6-.3-.7-.3zM574.7 456.1c.7 1.2 1.4 2.2 2.4 3 .8.7 1.6 1.3 2.5 1.7.9.4 1.7.7 2.6.9.7-.1 1.5-.3 2.2-.6.7-.3 1.4-.7 2-1.2.8-.6 1.5-1.4 2.2-2.3.6-.9 1.2-2 1.6-3.2l2-.1.8.4-2.8 9.3h-2l-.1-.1c-.1 0-.3.1-.4.1-.2 0-.3.1-.4.1-.1 0-.3 0-.4.1-.2 0-.3.1-.4.1-.5.1-1.1.1-1.6.2s-1.1.1-1.6.1h-2.4c-1.8 0-3.6-.3-5.3-.8-1.7-.5-3.4-1.3-4.9-2.3-1.6-1-2.8-2.4-3.8-4s-1.6-3.5-1.9-5.7c0-.2-.1-.3-.1-.5v-1.4c0-2 .3-3.8 1-5.4.7-1.6 1.7-3 3.1-4.2 1.4-1.2 2.8-2.1 4.4-2.7 1.5-.6 3.1-1 4.8-1l2-.1h.6c1.3 0 2.5.2 3.7.6 1.2.4 2.4.9 3.5 1.7 1.1.8 2.1 1.7 2.9 2.9.8 1.2 1.4 2.6 1.8 4.2l-19.6 5.9c.4 1.6 1 3.1 1.6 4.3zm9.5-11.1c-.3-.9-.6-1.6-1-2.3-.4-.7-.9-1.2-1.5-1.7-.4-.4-.9-.7-1.4-.9-.5-.2-1-.4-1.5-.5-.6.1-1.3.3-1.9.7-.6.4-1.2.8-1.8 1.5-.7.8-1.3 1.7-1.6 2.8-.4 1.1-.5 2.3-.5 3.7V448.6l11.2-3.6zM606.3 440c.2-.1.4-.3.6-.5.2-.2.4-.3.6-.5.7-.5 1.3-.9 2-1.3l2.1-.9c.3-.1.5-.1.8-.2.3-.1.5-.1.8-.2.3-.1.5-.1.8-.1h.8l2-.1c.8 0 1.6.2 2.3.4.7.3 1.4.6 2 1.1.6.5 1 1.2 1.3 2.1.3.8.5 1.8.5 3v16.4c0 .7.1 1.3.2 1.7.2.4.4.8.7 1 .3.3.7.4 1.1.5.4.1.8.2 1.2.2v.8h-13.6v-.9c.5.1.9 0 1.3-.1s.6-.4.8-.7c.2-.3.4-.7.5-1.2.1-.5.2-1 .2-1.7v-13.7c0-.8-.1-1.5-.3-2.1-.2-.6-.4-1.1-.7-1.4-.2-.3-.4-.5-.7-.6-.3-.2-.5-.3-.8-.4 0 0-.1 0-.2.1-.1 0-.1.1-.2.1s-.2.1-.3.1c-.1 0-.2.1-.3.1-.6.3-1.3.6-1.9 1.1-.6.5-1.2 1-1.8 1.7-.5.6-1 1.3-1.2 2-.3.7-.4 1.4-.5 2.1v10.7c0 .9.1 1.6.2 2.2.1.6.3 1 .6 1.3.3.3.6.4.9.6.3.1.7.2 1.1.2v.8h-13.6v-.9c.5.1 1 0 1.3-.1.4-.1.7-.3 1-.6.3-.3.5-.7.6-1.3.2-.6.2-1.3.2-2.1v-15c0-1.2-.1-2.2-.3-3-.2-.8-.4-1.3-.8-1.5-.3-.3-.7-.5-1-.6-.4-.1-.7-.2-1.1-.2v-1l7.2-.9h2c.2.5.4.9.6 1.3.2.4.3.8.4 1.2.1.2.1.4.2.6.3.1.3.3.4.4zM641.4 437.8l.1.1s.1 0 .1-.1h.2l.9-.3c.3-.1.7-.3 1.1-.5l2-.1-2 4.2h-2c-.1-.1-.2-.1-.3-.2-.1-.1-.2-.1-.3-.2-.1-.1-.2-.1-.3-.2-.1 0-.2-.1-.3-.1-.2 0-.4-.1-.6-.1h-.6l-1.2-.1v15.2c0 1.1.1 2 .3 2.7.2.7.5 1.3.8 1.7.2.3.5.5.8.6.3.2.5.3.8.4l.9-.3c.3-.1.6-.3.8-.4.4-.3.7-.5 1-.8.3-.3.5-.5.6-.8l2-.1.8.3-2 4.7c-.6.2-1.1.3-1.6.4l-1.5.3c-.5.1-.9.1-1.4.2s-.8.1-1.2.1h-2c-1.4 0-2.5-.2-3.4-.6-.9-.4-1.6-1-2-1.9-.4-.8-.8-1.8-1-2.9-.2-1.1-.3-2.3-.3-3.6v-15.3h-3.2v-.9c.7-.1 1.3-.3 1.8-.7.5-.4.9-.9 1.3-1.5.3-.6.6-1.2.8-1.9.2-.7.3-1.3.4-2V432l-.1-.1v-.5s-.1-.1-.1-.2v-.2c0-.1-.1-.3-.1-.4 0-.1 0-.3-.1-.4l4.8-2.6h2v10.2h3.3zM658.2 456.1c.7 1.2 1.4 2.2 2.4 3 .8.7 1.6 1.3 2.5 1.7.9.4 1.7.7 2.6.9.7-.1 1.5-.3 2.2-.6.7-.3 1.4-.7 2-1.2.8-.6 1.5-1.4 2.2-2.3.6-.9 1.2-2 1.6-3.2l2-.1.8.4-2.8 9.3h-2l-.1-.1c-.1 0-.3.1-.4.1-.2 0-.3.1-.4.1-.1 0-.3 0-.4.1-.2 0-.3.1-.4.1-.5.1-1.1.1-1.6.2s-1.1.1-1.6.1h-2.2c-1.8 0-3.6-.3-5.3-.8-1.7-.5-3.4-1.3-4.9-2.3-1.6-1-2.8-2.4-3.8-4s-1.6-3.5-1.9-5.7c0-.2-.1-.3-.1-.5v-1.4c0-2 .3-3.8 1-5.4.7-1.6 1.7-3 3.1-4.2 1.4-1.2 2.8-2.1 4.4-2.7 1.5-.6 3.1-1 4.8-1l2-.1h.6c1.3 0 2.5.2 3.7.6 1.2.4 2.4.9 3.5 1.7 1.1.8 2.1 1.7 2.9 2.9.8 1.2 1.4 2.6 1.8 4.2l-19.6 5.9c.2 1.6.8 3.1 1.4 4.3zm9.5-11.1c-.3-.9-.6-1.6-1-2.3-.4-.7-.9-1.2-1.5-1.7-.4-.4-.9-.7-1.4-.9-.5-.2-1-.4-1.5-.5-.6.1-1.3.3-1.9.7-.6.4-1.2.8-1.8 1.5-.7.8-1.3 1.7-1.6 2.8-.4 1.1-.5 2.3-.5 3.7V448.6l11.2-3.6zM689.1 439.8c.4-.4.8-.7 1.2-1.1.5-.4 1-.7 1.6-1.1.6-.3 1.3-.6 2.1-.8.8-.2 1.7-.3 2.7-.3l2-.1h.5l.2.1h.3l-1.2 6.3h-2c-.2-.2-.4-.4-.7-.5-.2-.2-.5-.3-.8-.5-.1-.1-.3-.1-.4-.2-.2 0-.3-.1-.5-.1-.5.1-1 .4-1.5.8s-.9.8-1.4 1.5c-.5.6-.9 1.5-1.1 2.4-.2 1-.4 2.2-.4 3.5v10.5c0 .5.1.9.2 1.2.1.3.3.5.5.7.2.2.4.3.7.4.3.1.5.2.7.2h.8v.8h-13.2v-.9c.4.1.8.1 1.1 0 .3-.1.6-.2.9-.5.3-.2.5-.5.6-.8.1-.3.2-.7.2-1.1v-18.7c0-.5-.1-.9-.3-1.2-.2-.4-.4-.7-.7-.9-.3-.2-.7-.4-1-.5-.3-.1-.7-.2-1.1-.2l-.1-.1h-.1v-.9l7.1-.9h2c.2.3.3.5.4.7l.3.6c.1.3.2.5.2.7.1.2.1.4.1.6.1.3.1.3.1.4z"/></g></svg>