<svg version="1.1" id="Layer_1" xmlns="http://www.w3.org/2000/svg" x="0" y="0" width="792" height="612" style="enable-background:new 0 0 792 612" xml:space="preserve"><style>.st0{fill:#8a8c8c}.st1{fill:#50b848}</style><path class="st0" d="m352.4 325.2-3.8-6.6c1.8-3.4 1.8-7.4 1.8-12.6 0-6.6.1-11.4-3.8-15.3-2.7-2.7-6-4.2-10.4-4.2s-7.7 1.5-10.4 4.2c-3.9 3.9-3.8 8.7-3.8 15.3 0 6.6-.1 11.4 3.8 15.3 2.7 2.7 6 4.2 10.4 4.2 1.2 0 2.3-.1 3.3-.3h12.9zm-21.1-8.4c-1.5-1.6-1.8-3.4-1.8-10.8s.4-9.2 1.8-10.8c1.1-1.2 2.8-2.1 4.9-2.1 2.1 0 3.7.8 4.8 2.1 1.5 1.6 1.9 3.4 1.9 10.8s-.4 9.2-1.9 10.8c-1.1 1.2-2.8 2.1-4.8 2.1-2.1 0-3.8-.9-4.9-2.1zM440.3 325.2v-38.4h7.4v38.4h-7.4zM261.5 325.5c-5.8 0-10.3-1.2-14-5.1l4.9-4.9c2.4 2.4 5.7 3.2 9.3 3.2 4.4 0 6.8-1.7 6.8-4.8 0-1.3-.4-2.5-1.2-3.2-.8-.7-1.6-1.1-3.4-1.4l-4.6-.6c-3.3-.5-5.7-1.5-7.5-3.2-1.8-1.8-2.8-4.3-2.8-7.6 0-6.9 5.1-11.7 13.4-11.7 5.3 0 9.1 1.3 12.4 4.5l-4.8 4.7c-2.4-2.3-5.3-2.6-7.9-2.6-4 0-5.9 2.2-5.9 4.9 0 1 .3 2 1.1 2.8.8.7 2 1.3 3.6 1.5l4.5.6c3.5.5 5.7 1.5 7.3 3 2.1 1.9 3 4.8 3 8.2.1 7.5-6.1 11.7-14.2 11.7zM286.8 325.2v-38.5h25.3v6.7h-17.8v9h15.2v6.7h-15.2v9.3h17.8v6.7h-25.3zM375.8 325.5c-7.9 0-14.1-5.3-14.1-13.5v-25.3h7.5v25c0 4.4 2.6 7.1 6.6 7.1 4.1 0 6.7-2.6 6.7-7.1v-25h7.5V312c0 8.2-6.3 13.5-14.2 13.5zM425.4 321.3c-2.7 2.7-6 4.2-10.4 4.2s-7.7-1.5-10.4-4.2c-3.9-3.9-3.8-8.7-3.8-15.3 0-6.6-.1-11.4 3.8-15.3 2.7-2.7 6-4.2 10.4-4.2s7.7 1.5 10.4 4.2c3.9 3.9 3.8 8.7 3.8 15.3 0 6.6.1 11.4-3.8 15.3zm-5.6-26.1c-1.1-1.2-2.8-2.1-4.8-2.1-2.1 0-3.8.8-4.9 2.1-1.5 1.6-1.8 3.4-1.8 10.8s.4 9.2 1.8 10.8c1.1 1.2 2.8 2.1 4.9 2.1 2.1 0 3.7-.8 4.8-2.1 1.5-1.6 1.9-3.4 1.9-10.8s-.4-9.2-1.9-10.8zM483 325.2l-2.3-6.8H467l-2.3 6.8h-7.8l14-38.5h5.9l14 38.5H483zm-9-27.1-4.9 14h9.6l-4.7-14z"/><path class="st1" d="M534.9 286.8h9.6v9.6h-9.6zM510.9 317v-30.2H506v35zM514.3 320.4l-4.9 4.8h35.1v-4.8zM520.5 307.4v-20.6h-4.8v25.4zM523.9 310.8l-4.8 4.8h25.4v-4.8z"/><g><path class="st1" d="M530.1 297.8v-11h-4.8v15.8zM533.5 301.2l-4.8 4.8h15.8v-4.8z"/></g></svg>