<svg version="1.1" id="Layer_1" xmlns="http://www.w3.org/2000/svg" x="0" y="0" width="792" height="612" style="enable-background:new 0 0 792 612" xml:space="preserve"><style>.st0,.st1{fill-rule:evenodd;clip-rule:evenodd;fill:#fff}.st1{fill:#5c3021}</style><path class="st0" d="M363.6 230.3c-16.3 1.4-29.6 3.5-38 5.1-4.7.9-8.4 1.7-10.7 2.2-4.1.9-4.1 1-4.5 1.2l-.1.1-.1.1c-.8.7-.8.7-.5 7.6.1 3.5.4 9 1 15.5 1.1 11.5 3.5 28.4 9 43.5l1.5 4.3 2.1-4c1-1.8 1.8-3.7 2.5-5.5 9.8 26.8 26.9 46.7 39.8 58.9 15.2 14.3 28.1 21.4 28.2 21.5l2 1.1 2-1.1c.5-.3 49-27.5 69-80.6.1.2.2.4.2.6 1.2 3 2 4.7 2.7 5.5l2.4 2.6 1-3.4c12.1-39.6 9.1-62.2 7.6-65.7l-.4-1-1-.3c-43.5-11.2-86.9-10.6-115.7-8.2z"/><path class="st1" d="M479.1 240.5c-84.2-21.5-167.4 0-167.4 0s-.5 35.7 9.9 64.4c1.9-3.6 3.4-8 4.6-9.8 18.1 55.7 68.1 83.7 68.7 84l1 .5 1-.6c.5-.3 51.1-28.8 69.8-84.1 1.3 1.9 3.7 8.8 4.7 10 12.4-40.5 8.6-62 7.7-64.4z"/><path class="st0" d="M415.7 259.3c-7-.3-13.7-.5-20.1-.5-6.2 0-12.7.1-19.3.4 9 2.5 17.1 5.9 19.8 7.1 2.6-1.1 10.7-4.5 19.6-7zM363.6 237.1l-9.1.8-5.5 3.1-.1 11.9 5.5 1.8 15-1.3V239l-5.8-1.9zm-2.8 13.9c-1.2.1-2.4.2-3.5.3 0-3.5.1-7 .1-10.5 1.2-.1 2.4-.2 3.5-.3 0 3.5 0 7-.1 10.5zm33.1-15.1v16.8l-7.1.1-5.5-8-.1 8.2-7.9.3v-16.8l7.2-.3 5.4 7.9.1-8.1 7.9-.1zm24.6.7v16.8l-7.1-.4-5.5-8.4v8.2l-7.9-.1v-16.8l7.1.1 5.4 8.3.1-8.1 7.9.4zm12.9 1v16.8l-8.5-.7v-16.8l8.5.7zm12.8 15.1s4.8.7 7.3 1.1v3.2c-5.2-.8-15.6-2.1-15.6-2.1V238s10.4 1.3 15.6 2v3.2c-2.4-.4-7.1-1-7.1-1v3.2s4 .6 6 .8v3.2c-2-.3-6-.8-6-.8v4.1h-.2zm21.5-4.7v-2.2c-1.1-.2-2.3-.4-3.4-.7v3.4c2 .5 4 1 6.1 1.4 1.9 1.2 5.7 3.7 5.7 3.7v7.5l-14.8-3s-3.6-2.2-5.4-3.4v-2.9l8.4 1.5v2.2c1.1.2 2.3.4 3.4.7v-3.5c-2-.5-6-1.3-6-1.3l-5.8-3.4.1-5s3.7-1 5.5-1.5c2.9.5 5.9 1.1 8.8 1.7 1.9 1.2 3.7 2.4 5.6 3.7v3c-2.9-.8-5.6-1.3-8.2-1.9zm-121.6-6.7c-1.6-.5-3.2-1-4.8-1.4-4.9.8-9.9 1.6-14.8 2.5v14.3c-2.9 1.4-5.9 2.9-8.8 4.4 9.6-2 19.3-3.8 29-5.2V249c-1.6-.3-3.1-.7-4.7-1 1.3-.7 2.7-1.5 4-2.2 0-1.5 0-3 .1-4.5zm-7.9 12.7c-1.2.2-2.3.4-3.5.6v-3.8c1.1-.2 2.3-.4 3.5-.6.1 1.3.1 2.5 0 3.8zm.1-6.9c-1.1.2-2.3.4-3.5.6v-3.6c1.1-.2 2.3-.4 3.5-.6v3.6z"/><path d="M374.8 319.7c-.1.9-.1 2-.1 2.9 0 10.1 4 19.4 13.8 23.1-.1-.6-.3-1.3-.4-1.9l-.3-1.2 1.2.3c2.2.6 5 1.2 7.3 1.1 2.2.1 5.1-.5 7.2-1.1l1.2-.3-.3 1.2c-.1.6-.3 1.3-.4 1.9 9.8-3.8 13.8-13.1 13.8-23.1 0-.9 0-2-.1-2.9-1.8-2.3-3.6-4.7-5.5-7l-.2-.2v-.3c0-1.9.1-3.8.1-5.6v-.6l.6-.2c3.6-1 7.6-3.5 10.3-6.2l.3-.3.4.1c8.5 1.1 14.6 7.5 18.4 14.7l.2.3-.2.4c-10.2 20.9-25.8 37.5-45.4 50-.1.1-.3.2-.4.2l-.4.3-.4-.3c-.1-.1-.3-.2-.4-.3-19.3-12.3-34.8-28.6-45-49.1l-.2-.3.2-.3c3.7-7.6 10-14.4 18.8-15.6l.4-.1.3.3c2.7 2.7 6.6 5.2 10.3 6.2l.6.2v.6c0 1.9.1 3.8.1 5.6v.3l-.2.2c-2 2.3-3.8 4.7-5.6 7z" style="fill-rule:evenodd;clip-rule:evenodd;fill:#6f3b2d"/><path class="st0" d="M423.6 300.2c9.7 1.3 15.3 9.4 17.8 14.3-9.8 20.1-25 36.9-45.2 49.7 0 0-.2.1-.4.3-.2-.1-.4-.3-.4-.3-19.9-12.6-34.9-29.1-44.8-48.8 2.5-5.2 8.2-13.8 18.2-15.1.7.7 5 4.9 10.6 6.4 0 .4.1 5.4.1 5.6-.1.2-5.6 7.2-5.6 7.2v.1c0 .1-.2 1.2-.2 3.1 0 6.1 1.6 19.5 15.1 24.2l.5.2s-.6-2.6-.8-3.3c1.3.3 4.9 1.2 7.5 1.1 2.6.1 6.2-.8 7.5-1.1-.2.7-.8 3.3-.8 3.3l.5-.2c13.5-4.7 15.1-18.1 15.1-24.2 0-1.9-.2-3.1-.2-3.1v-.1s-5.5-7-5.6-7.2c0-.2.1-5.2.1-5.6 6-1.6 10.2-5.8 11-6.5z"/><path class="st0" d="M392.2 283.1c-9.2-8.3-18.6-9.4-18.6-9.4-11.8 6.7-19.4 25.6-19.4 25.6 1.8-3.2 12.5-4.8 12.5-4.8l-.8-5.1 8.8-.7.4-6.5 13.6 13.1.8 12.3-3.6-.1-3 17.8-4.4-4.8c-1.2 10.9 5.1 14.8 5.1 14.8l6-3-4.9-1.9c-.1-6.7 4.6-11.3 4.6-11.3 0 2.1 1.6 4.8 1.6 4.8l2.6 1-1.9-26 .6-15.8zM348.9 285.2c10.2 4.2 9.9-9.5 9.9-9.5-2.5-2.5-3.3-10-3.6-14.8-5.6.6-11.2 1.3-16.9 2.2 0 0-.1.9-.1 2.5-.2 7.2-.5 28 1.1 36.1 0 0 1.3-3.2 3.6-5.5 1 3.2 2.1 6.6 3.5 10.1-1.1-11.7 2.5-21.1 2.5-21.1z"/><path class="st0" d="M382 295.5c-.9.8-2.3.9-3.4.2s-1.6-2-1.2-3.1l-1.2-.8c-.2.2-.3.4-.4.6-1.2 1.9-.5 4.4 1.5 5.6 2 1.3 4.6.8 5.7-1.1.1-.2.2-.4.3-.7l-1.3-.7zM361.1 272.4s-3.8-7.8-3.3-13c0 0 5.5 4.1 8.6 9.4 0 0-2.7.7-5.3 3.6zM399.8 283.1c9.2-8.3 18.6-9.4 18.6-9.4 11.8 6.7 19.4 25.6 19.4 25.6-1.8-3.2-12.5-4.8-12.5-4.8l.8-5.1-8.8-.7-.4-6.5-13.6 13.1-.8 12.3 3.6-.1 3 17.8 4.4-4.8c1.2 10.9-5.1 14.8-5.1 14.8l-6-3 4.9-1.9c.1-6.7-4.6-11.3-4.6-11.3 0 2.1-1.6 4.8-1.6 4.8l-2.6 1 1.9-26-.6-15.8zM443.1 285.2c-10.2 4.2-9.9-9.5-9.9-9.5 2.5-2.5 3.3-10 3.6-14.8 5.6.6 11.2 1.3 16.9 2.2 0 0 .1.9.1 2.5.2 7.2.5 28-1.1 36.1 0 0-1.3-3.2-3.6-5.5-1 3.2-2.1 6.6-3.5 10.1 1.1-11.7-2.5-21.1-2.5-21.1z"/><path class="st0" d="M410 295.5c.9.8 2.3.9 3.4.2s1.6-2 1.2-3.1l1.2-.8c.2.2.3.4.4.6 1.2 1.9.5 4.4-1.5 5.6-2 1.3-4.6.8-5.7-1.1-.1-.2-.2-.4-.3-.7l1.3-.7zM430.9 272.4s3.8-7.8 3.3-13c0 0-5.5 4.1-8.6 9.4 0 0 2.7.7 5.3 3.6z"/><path class="st1" d="m414.8 381.7 1.6-4.1h1.5v5.6h-1v-4.6l-1.8 4.6h-.7l-1.8-4.6v4.6h-1v-5.6h1.5l1.7 4.1zm-4.1-3.4H409v4.8h-1v-4.8h-1.7v-.8h4.5v.8z"/></svg>