<svg version="1.1" id="Layer_1" xmlns="http://www.w3.org/2000/svg" x="0" y="0" width="263.5" height="263.5" style="enable-background:new 0 0 263.5 263.5" xml:space="preserve"><style>.st0{fill:none}.st1{fill:#001689}.st2{fill:#ce0e2d}</style><path class="st0" d="M132.4 216.2c-1.1 0-2.2 1.1-2.2 3.5 0 2.7 1 4.4 2.5 4.4 1.1 0 2-1 2-3.6 0-3-1-4.3-2.3-4.3zM194.9 219.3h1.3c.5 0 1.1-.1 1.5-.3.2-.1.3-.5.3-.8 0-1.2-.7-2-1.9-2-1.5 0-2.8 1.4-2.8 2.6 0 .4.5.5 1.6.5zM115.1 216.2c-1.6 0-2.8 1.6-2.8 5.5 0 3.7 1.2 6.5 3.2 6.5s2.7-2.3 2.7-5.5c0-3.5-1-6.5-3.1-6.5zM149 219.3h1.3c.5 0 1.1-.1 1.5-.3.2-.1.3-.5.3-.8 0-1.2-.7-2-1.9-2-1.5 0-2.8 1.4-2.8 2.6-.1.4.4.5 1.6.5zM151.3 30.3c-3.9 0-4.1.3-4.1 4.9v18.7c0 3.4.3 3.7 6 3.7 3.5 0 5.5-.9 7.3-2.7 1.6-1.6 3.5-4.7 3.5-10.4-.1-8.6-5.2-14.2-12.7-14.2zM151.1 187.4h1.3c.5 0 1.1-.1 1.5-.3.2-.1.3-.5.3-.8 0-1.2-.7-2-1.9-2-1.5 0-2.8 1.4-2.8 2.6 0 .4.5.5 1.6.5zM136.2 205.1c2.2 0 3.7-1.1 3.7-2.8 0-2.1-1.5-2.9-3.5-2.9H134c-1 0-1.7.2-2 .5-.4.3-.5.8-.5 1.2.1 2.4 1.9 4 4.7 4zM134.6 184.3c-1.1 0-2.2 1.1-2.2 3.5 0 2.7 1 4.4 2.5 4.4 1.1 0 2-1 2-3.6 0-3-1-4.3-2.3-4.3zM94.9 189.7c0 3.7 1.2 6.5 3.2 6.5s2.7-2.3 2.7-5.5c0-3.5-1-6.4-3.1-6.4-1.6 0-2.8 1.6-2.8 5.4zM134.1 237c2.2 0 3.7-1.1 3.7-2.8 0-2.1-1.5-2.9-3.5-2.9h-2.4c-1 0-1.7.2-2 .5-.4.3-.5.8-.5 1.2 0 2.4 1.9 4 4.7 4z"/><path class="st1" d="M95.9 91.1c15.7 0 26.3-7.7 26.3-19.5 0-10.6-8.2-16.1-14.7-19.3l-6.9-3.4c-5.2-2.5-9.5-6.5-9.5-10.9 0-4.8 3.8-8.9 10.6-8.9 7.5 0 12 7 13.8 11.9.9 1 3.5.9 4.1-.3 0-6.4-1-11.6-1.9-13.7-1.3-.2-2.2-.4-3.5-.8-4.2-1.2-8.4-1.5-11.9-1.5C87.1 24.6 77.9 32.1 78 43c0 9.5 8.2 15.3 15.7 18.7C100 64.6 108 69.2 108 77c0 4.8-3.5 9.7-11.3 9.7-8.9 0-15.8-8.8-17.9-15.1-.8-1.1-3.2-1-4 .3 0 6.5 1.4 13.4 3.3 15.6 2.2 1.1 8.2 3.6 17.8 3.6zM129.1 86l-2.6.5c-.8.5-.8 2.8 0 3.4 5-.2 9.2-.3 14-.3 4.6 0 9 .1 14.1.3.7-.6.7-2.9 0-3.4L152 86c-4.3-.8-4.9-1.4-4.9-10.3V63.9c0-1.9.2-2.1 3.6-2.1 2.4 0 3.5.9 5.1 3.4 2.9 5.1 6 9.8 9.1 14.9 3.2 5.3 7.3 8.4 13 9.6.9.2 1.8.3 2.8.4v-1.8c0-.7 0-1.5-.1-2.2V80c-.8-.9-1.6-1.9-2.4-3-3.1-4.1-6.4-9.6-10.1-17-.5-1.1-.5-1.6.5-2.1 4.4-2.2 10.2-5.9 10.2-14.4 0-6.1-2.9-10.9-8.5-14.2-3.7-2.2-10.7-3.5-18.8-3.5-9.1 0-16.6.4-23.8.9-1.2.5-1.2 2.9-.2 3.4l2.6.4c4 .6 4.2 1.6 4.2 11.2v34c-.3 8.9-.9 9.5-5.2 10.3zm18.1-50.8c0-4.6.2-4.9 4.1-4.9 7.5 0 12.6 5.6 12.6 14.2 0 5.7-1.8 8.7-3.5 10.4-1.8 1.8-3.8 2.7-7.3 2.7-5.7 0-6-.3-6-3.7V35.2z"/><path class="st1" d="M73.8 108.6c2.9-7 4.9-10.8 11.9-10.8h1.9c2.3 0 2.3.5 2.3 2.8V143c0 8.9-.6 9.8-4.9 10.3l-4.3.5c-.8.6-.8 2.8 0 3.4 6.7-.2 11.7-.3 16.3-.3 4.3 0 9.1.1 15.4.3.7-.6.7-2.8 0-3.4l-3.8-.5c-4.3-.6-4.9-1.3-4.9-10.3v-42.4c0-2.5.3-2.8 2.6-2.8h1.8c7.2 0 8.5 4.5 10.2 10.7.5.8 3.1.6 3.6-.3-.2-5.5.5-13.3 1.4-16.5-.2-.3-.9-.7-1.4-.7-.6 0-.9.1-1.3.3-.9 2-2.3 2.1-8.6 2.1H84.2c-7.3 0-7.6-.4-8.1-2-.4-.3-.9-.4-1.3-.4-.5 0-1 .2-1.3.5-.7 3.7-1.2 9.7-3.2 16.3.5 1.2 2.4 1.4 3.5.8zM126 96.4l2.7.4c4.3.6 4.9 1.4 4.9 10.4v35.7c0 8.9-.6 9.8-4.9 10.4l-2.7.4c-.8.6-.8 2.8 0 3.4 5.1-.2 10.1-.3 14.4-.3 4.6 0 9.4.1 14.5.3.8-.6.8-2.7 0-3.4l-2.7-.4c-4.3-.6-4.9-1.4-4.9-10.4v-10.1c0-5.2.1-6.5 2.3-6.5 2.1 0 3.7 2.3 7.2 7.6l5.1 7.8 5.6 8.5c.6.9.8 1.5.8 1.9 0 .4-.6.7-1.6 1l-2.4.6c-1.1.6-1.1 3 .2 3.4 5.4-.2 10.2-.3 15.1-.3 4.4 0 9 .1 13.8.3.9-.5.9-2.5.3-3.4l-3.1-.5c-2.7-.4-4.5-1.1-7.1-4.5-6.5-8.6-12.2-17.9-17-25.1-2.9-4.3-3.5-5.5-3.5-6 0-.4.3-1.2 1.2-2.2l4.4-5c6.2-7.1 10.4-10.8 14.2-12.3 2-.9 4.9-1.3 8.3-1.7.8-.8.7-3-.5-3.4-3.8.2-8.1.3-11.6.3s-7-.1-11.9-.3c-1.2.4-1.4 2.7-.4 3.4l3.4.6c1.3.2 1.6.9 1.6 1.2s-.4 1.2-1.2 2.5c-3.1 4.5-8.6 10.5-13.7 16.1-1.6 1.8-5.7 5.6-7.7 5.6-1.1 0-1.7-.4-1.7-3.6v-11.7c0-8.9.6-9.8 4.9-10.4l2.7-.4c.9-.6.9-2.8 0-3.4-5.1.2-9.9.3-14.5.3-4.8 0-9.6-.1-14.4-.3-1.1.7-1.1 3-.1 3.5zM58.9 183.5l-2.3-1.2c-1.8-.9-3.2-2.4-3.2-4.1 0-1.8 1.3-3.3 3.6-3.3 2.6 0 4.1 2.6 4.7 4.4.3.4 1.2.3 1.4-.1 0-2.4-.4-4.3-.6-5.1-.4-.1-.7-.1-1.2-.3-1.4-.4-2.9-.6-4.1-.6-5.2 0-8.3 2.8-8.3 6.8 0 3.5 2.8 5.7 5.4 7 2.1 1.1 4.8 2.8 4.8 5.7 0 1.8-1.2 3.6-3.9 3.6-3 0-5.4-3.3-6.1-5.6-.3-.4-1.1-.4-1.4.1 0 2.4.5 5 1.1 5.8.7.4 2.8 1.4 6.1 1.4 5.4 0 9-2.9 9-7.2 0-4-2.8-6.1-5-7.3zM75.5 194.9c-.4.3-1 .5-1.5.5-2.5 0-2.5-2.2-2.5-4.2v-5.3c0-.8 0-.8.5-.8h3.2c.4-.2.5-.9.5-1.2 0-.3-.1-.5-.3-.7h-3.2c-.6 0-.7 0-.7-.7v-2.7c-.2-.3-.8-.3-1.1-.2-1.1 1.6-2 2.3-2.6 2.8-.9.6-1.9 1.2-3 1.6-.3.2-.2 1 .2 1.1h1.1c.6 0 .7.1.7.8v7.9c0 2.3 1 4.1 4 4.1 2.2 0 4.1-1 5.1-2.1.1-.4-.1-.8-.4-.9zM83.9 185.7c.2 0 .5 0 1.4.7.5.4.9.6 1.4.6 1.1 0 2.3-.7 2.3-2.3 0-1.4-1-2.1-2-2.1-1.5 0-2.5 1.2-3.5 1.8-.3-.1-.4-.2-.4-.4 0-.3.1-.8.1-1.5-.1-.2-.4-.3-.6-.3-1.1.7-3.6 1.7-5.2 2.1-.3.2-.3.9 0 1.1l.5.3c.7.4.7.9.7 2.3v5.4c0 2.5-.1 2.8-1.3 2.9l-.7.1c-.3.2-.3 1 0 1.2 1.2-.1 2.7-.1 4.2-.1 1.7 0 3.1 0 4.8.1.3-.2.3-1 0-1.2l-1.1-.1c-1.2-.1-1.3-.4-1.3-2.9v-5.5c0-1.4.2-2.2.7-2.2zM89.7 190.5c0 4.9 3.7 7.3 8 7.3 4.4 0 8.2-2.5 8.2-7.7 0-5-3.8-7.6-8-7.6-4.2.1-8.2 2.9-8.2 8zm11.1.2c0 3.2-.6 5.5-2.7 5.5s-3.2-2.7-3.2-6.5c0-3.9 1.3-5.5 2.8-5.5 2 .1 3 3 3.1 6.5zM119.6 182.6c-1.6 0-3.3 1-4.1 1.4-.2.1-.6.3-.7.3-.1 0-.2-.1-.2-.3 0-.2.1-1.1.1-1.6-.1-.2-.4-.3-.6-.3-1 .6-3.6 1.6-5.3 2.1-.3.2-.3.9 0 1.1l.5.3c.7.4.7.9.7 2.3v5.4c0 2.5-.1 2.8-1.4 2.9l-.6.1c-.3.2-.3 1 0 1.2 1.2-.1 2.7-.1 4.2-.1 1.7 0 2.8 0 4 .1.3-.2.3-1 0-1.2l-.6-.1c-.9-.1-1-.4-1-2.4v-6.4c0-.6.1-1.1.3-1.3.3-.4 1-.9 2-.9 1.8 0 2.5 1.1 2.5 2.5v6c0 2-.1 2.2-1 2.4l-.6.1c-.3.2-.3 1 0 1.2 1-.1 2.4-.1 3.8-.1 1.7 0 3.2 0 4.3.1.3-.2.3-1 0-1.2l-.6-.1c-1.3-.1-1.4-.4-1.4-2.9v-6.1c.1-2.5-1.4-4.5-4.3-4.5zM144.5 184.8c0-.4-.1-.7-.3-.9H140c-1.3-.7-3.2-1.3-5.3-1.3-4.6 0-6.9 2.8-6.9 5.7 0 2.2 1.2 3.9 3 4.6.2.3 0 .5-.3.8-.2.2-1.3 1-2.3 1.7-.2.2-.3.5-.3.8 0 1.2.9 2.4 2.2 2.9.3.1.4.2 0 .5-.4.2-1 .7-1.7 1.1-.6.4-1.1.9-1.1 1.8 0 2.2 1.9 4.6 7 4.6 2.1 0 4.4-.5 6.2-1.6 1.9-1.1 3.2-3.1 3.2-5.4 0-3.6-2.8-4.3-5.5-4.3-1.7 0-3.1.1-4.3.1-1.1 0-1.8-.5-1.8-1.3 0-.4.2-.7.6-.9.4 0 .9.1 1.5.1 5.6 0 7.3-3.4 7.3-6.2 0-.6 0-.9-.1-1.2h2.6c.3-.4.5-1 .5-1.6zm-12.4 15c.3-.3 1-.5 2-.5h2.4c2 0 3.5.8 3.5 2.9 0 1.7-1.5 2.8-3.7 2.8-2.8 0-4.6-1.6-4.6-4-.1-.4 0-.9.4-1.2zm2.8-7.7c-1.4 0-2.5-1.7-2.5-4.4 0-2.4 1.1-3.5 2.2-3.5 1.3 0 2.3 1.4 2.3 4.2 0 2.7-.9 3.7-2 3.7zM150.1 188.9h6.8c1.1 0 1.3-.5 1.3-1.2 0-2.7-2-5.1-5.7-5.1-4.5 0-7.7 3.5-7.7 8 0 3.9 2.6 7.3 7.4 7.3 2.1 0 4.8-1 6.2-4.1 0-.6-.5-.9-.9-.8-1 1.6-2.3 1.9-3.3 1.9-3.3 0-5-2.6-5-5.3 0-.6.1-.7.9-.7zm2.2-4.6c1.2 0 1.9.8 1.9 2 0 .4-.1.7-.3.8-.4.3-1 .3-1.5.3h-1.3c-1.1 0-1.6 0-1.6-.5 0-1.2 1.3-2.6 2.8-2.6zM166.9 185.7c.2 0 .5 0 1.4.7.5.4.9.6 1.4.6 1.1 0 2.3-.7 2.3-2.3 0-1.4-1-2.1-2-2.1-1.5 0-2.5 1.2-3.5 1.8-.3-.1-.4-.2-.4-.4 0-.3.1-.8.1-1.5-.1-.2-.4-.3-.6-.3-1.1.7-3.6 1.7-5.2 2.1-.2.2-.2.9 0 1.1l.5.3c.7.4.7.9.7 2.3v5.4c0 2.5-.1 2.8-1.3 2.9l-.7.1c-.3.2-.3 1 0 1.2 1.2-.1 2.7-.1 4.2-.1 1.7 0 3.1 0 4.8.1.3-.2.3-1 0-1.2l-1.1-.1c-1.2-.1-1.3-.4-1.3-2.9v-5.5c.1-1.4.2-2.2.7-2.2zM102.5 207.4h2.1c2.7 0 3.2 1.7 3.8 4 .2.3 1.1.2 1.3-.1-.1-2 .2-4.9.5-6.1-.1-.1-.3-.2-.5-.2s-.3 0-.5.1c-.3.8-.9.8-3.2.8H92.8c-2.7 0-2.8-.1-3-.7-.1-.1-.3-.1-.5-.1s-.4.1-.5.2c-.3 1.4-.4 3.6-1.2 6.1.2.5.9.5 1.3.3 1.1-2.6 1.8-4 4.4-4h2.2c.9 0 .9.2.9 1v15.7c0 3.3-.2 3.6-1.8 3.8l-1.6.2c-.3.2-.3 1 0 1.2 2.5-.1 4.4-.1 6.1-.1 1.6 0 3.4 0 5.7.1.3-.2.3-1 0-1.2l-1.4-.2c-1.6-.2-1.8-.5-1.8-3.8v-15.7c-.1-1.2 0-1.3.9-1.3z"/><path class="st1" d="M115.4 214.5c-4.2 0-8.2 2.8-8.2 7.9 0 4.9 3.7 7.3 8 7.3 4.4 0 8.2-2.5 8.2-7.7-.1-4.9-3.8-7.5-8-7.5zm.1 13.6c-2.1 0-3.2-2.7-3.2-6.5 0-3.9 1.3-5.5 2.8-5.5 2 0 3 3 3.1 6.4 0 3.3-.6 5.6-2.7 5.6zM137.9 215.9c-1.3-.7-3.2-1.3-5.3-1.3-4.6 0-6.9 2.8-6.9 5.7 0 2.2 1.2 3.9 3 4.6.2.3 0 .5-.3.8-.2.2-1.3 1-2.3 1.7-.2.2-.3.5-.3.7 0 1.2.9 2.4 2.2 2.9.3.1.4.2 0 .5-.4.2-1 .7-1.7 1.1-.6.4-1.1.9-1.1 1.8 0 2.2 1.9 4.6 7 4.6 2.1 0 4.4-.5 6.2-1.6 1.9-1.1 3.2-3.1 3.2-5.4 0-3.6-2.8-4.3-5.5-4.3-1.7 0-3.1.1-4.3.1-1.1 0-1.8-.5-1.8-1.3 0-.4.2-.7.6-.9.4 0 .9.1 1.5.1 5.6 0 7.3-3.4 7.3-6.2 0-.6 0-.9-.1-1.2h2.6c.4-.2.5-.9.5-1.4 0-.4-.1-.7-.3-.9h-4.2zm-8 15.9c.3-.3 1-.5 2-.5h2.4c2 0 3.5.8 3.5 2.9 0 1.7-1.5 2.8-3.7 2.8-2.8 0-4.6-1.6-4.6-4-.1-.5.1-.9.4-1.2zm2.8-7.7c-1.4 0-2.5-1.7-2.5-4.4 0-2.4 1.1-3.5 2.2-3.5 1.3 0 2.3 1.4 2.3 4.2 0 2.6-.9 3.7-2 3.7zM155.4 224.9c-1 1.6-2.3 1.9-3.3 1.9-3.3 0-5-2.6-5-5.3 0-.6.1-.6.9-.6h6.8c1.1 0 1.3-.5 1.3-1.2 0-2.7-2-5.1-5.7-5.1-4.5 0-7.7 3.5-7.7 8 0 3.9 2.6 7.3 7.4 7.3 2.1 0 4.8-1 6.2-4.1 0-.7-.5-1-.9-.9zm-5.3-8.7c1.2 0 1.9.8 1.9 2 0 .4-.1.7-.3.8-.4.3-1 .3-1.5.3H149c-1.1 0-1.6 0-1.6-.5-.1-1.2 1.2-2.6 2.7-2.6zM167.8 226.8c-.4.3-1 .5-1.5.5-2.5 0-2.5-2.2-2.5-4.2v-5.3c0-.8 0-.8.5-.8h3.2c.4-.2.5-.9.5-1.2 0-.3-.1-.5-.3-.7h-3.2c-.6 0-.7 0-.7-.7v-2.7c-.2-.3-.8-.3-1.1-.2-1.1 1.6-2 2.3-2.6 2.8-.9.6-1.9 1.2-3 1.6-.3.2-.2 1 .2 1.1h1.1c.6 0 .7.1.7.8v7.9c0 2.3 1 4.1 4 4.1 2.2 0 4.1-1 5.1-2.1.2-.4 0-.8-.4-.9zM186.3 228.1c-1.3-.1-1.4-.4-1.4-2.9V219c0-2.5-1.5-4.5-4.5-4.5-1.8 0-3.3.9-4.1 1.4-.4.2-.5.3-.6.3-.2 0-.3-.1-.3-.4v-6.6c0-2.2 0-3.7.1-5.2-.1-.2-.4-.2-.6-.2-1.9.8-4 1.6-5.5 2-.2.2-.2.9 0 1.1l.6.4c.7.4.7.8.7 2.2v15.7c0 2.5-.1 2.8-1.3 2.9l-.6.1c-.3.2-.3 1 0 1.3 1.2-.1 2.7-.1 4.2-.1 1.7 0 2.9 0 4 .1.3-.2.3-1 0-1.3l-.6-.1c-.8-.1-1-.4-1-2.4v-6.4c0-.6.1-1.1.3-1.3.3-.4 1-.9 2-.9 1.7 0 2.5 1.1 2.5 2.4v6.2c0 2-.1 2.2-1 2.4l-.6.1c-.3.2-.3 1 0 1.3.8-.1 2.3-.1 3.9-.1 1.7 0 3.2 0 4.3.1.3-.2.3-1 0-1.3l-.5-.1zM201.3 224.9c-1 1.6-2.3 1.9-3.3 1.9-3.3 0-5-2.6-5-5.3 0-.6.1-.6.9-.6h6.8c1.1 0 1.3-.5 1.3-1.2 0-2.7-2-5.1-5.7-5.1-4.5 0-7.7 3.5-7.7 8 0 3.9 2.6 7.3 7.4 7.3 2.1 0 4.8-1 6.2-4.1.1-.7-.5-1-.9-.9zm-5.2-8.7c1.2 0 1.9.8 1.9 2 0 .4-.1.7-.3.8-.4.3-1 .3-1.5.3h-1.3c-1.1 0-1.6 0-1.6-.5 0-1.2 1.3-2.6 2.8-2.6zM213.8 214.5c-1.5 0-2.5 1.2-3.5 1.8-.3-.1-.4-.2-.4-.4 0-.3.1-.8.1-1.5-.1-.2-.4-.3-.6-.3-1.1.7-3.6 1.7-5.2 2.1-.2.2-.2.9 0 1.1l.5.3c.7.4.7.9.7 2.3v5.4c0 2.5-.1 2.8-1.3 2.9l-.7.1c-.3.2-.3 1 0 1.2 1.2-.1 2.7-.1 4.2-.1 1.7 0 3.1 0 4.8.1.3-.2.3-1 0-1.2l-1.1-.1c-1.2-.1-1.3-.4-1.3-2.9v-5.5c0-1.4.2-2.1.7-2.1.2 0 .5 0 1.4.7.5.4.9.6 1.4.6 1.1 0 2.3-.7 2.3-2.3 0-1.4-1-2.2-2-2.2z"/><path class="st2" d="M199.2 81.4c.4-.2.7-.4 1.1-.6.4-.2.7-.4 1.1-.6 1.1-.6 2.2-1.1 3.3-1.7l.7-.4c.2-.1.5-.3.7-.4l-6-5.8-.9 9.5zM189.3 72c.4-.1.8-.1 1.2-.2.8-.1 1.6-.2 2.5-.4l5.7-.8-6-5.8c-.1.1-.1.3-.2.4l-3.2 6.8zM182.7 88.3l-.4 1.1 5.2-2.4c1.2-.6 2.5-1.1 3.7-1.7l6.6-3-9.1-8.7c-.5 1.3-1.1 2.7-1.6 4l-4.4 10.7zM181.5 65.3l.7.7c2 2 4.1 3.9 6.1 5.9l3.3-6.9.1-.3c-.5 0-1 .1-1.5.1-.6 0-1.2.1-1.8.1l-3.9.3c-.5 0-1 .1-1.5.1l-.8.1c-.3-.2-.5-.1-.7-.1M206.5 78.7c-.2.1-.4.2-.7.3l-.7.4c-1.1.6-2.2 1.1-3.3 1.7-.4.2-.7.4-1.1.6-.4.2-.9.5-1.3.7l6.9 6.6v-1.6l.1-2.5v-3.1l.1-2.6v-.5M205.5 89.6l-7.1-6.7-6.9 3.2c-1.2.6-2.5 1.1-3.7 1.7l-4.3 2H205.4l.1-.2M181.5 82.9v3.3c0 .6.1 1.2.1 1.8v-.1l4.3-10.8c.6-1.5 1.2-2.9 1.8-4.4-2.1-2-4.2-4.1-6.4-6.1l-.6-.6V81.8c.8.4.8.8.8 1.1M190.6 72.8c-.4.1-.7.1-1.1.2l8.7 8.3 1-9.7-6.2.9c-.8 0-1.6.1-2.4.3"/></svg>