<svg version="1.1" id="Layer_1" xmlns="http://www.w3.org/2000/svg" x="0" y="0" width="612" height="792" style="enable-background:new 0 0 612 792" xml:space="preserve"><style>.st0{fill:#eb0045}</style><path d="M201.5 396.5c-6.8 0-9.6-3.4-7.8-10.6l7.7-31.1c1.8-7.3 6.3-10.6 13.1-10.6H253l-.7 7.9c-2.2-1.1-5.5-1.2-7.8-1.2h-23.8c-2.2 0-3.1.7-3.7 3.1l-8.2 32.7c-.6 2.4 0 3.1 2.2 3.1h16.3c1.6 0 2.6-.7 2.9-2.2l3.9-15.6h-13.5c-1.6 0-2.7.4-4.1.9l1.9-7.6h33.2c-1.4 2.5-2.1 4.7-2.7 7l-4.3 17.2c-.6 2.4-1 4.6-.8 7H230l.3-4.6h-.2c-1.4 3.4-3.1 4.6-7.8 4.6h-20.8zM297.4 387.8c-1.1 4.6-1.4 6.9-1.3 8.7h-13.2l.3-4h-.2c-2 3.1-3.6 4-6.5 4h-17.7c-6.7 0-9-2.8-6.3-13.3 2.6-10.5 6.3-13.3 13-13.3h20c1.3 0 2.2-.5 2.5-1.8l.6-2.5c.3-1.3-.3-1.8-1.6-1.8h-21.4c-2.4 0-3.9.1-7.1.8l2.5-6.5h34c6.5 0 8.9 3.2 7.1 10.3l-4.7 19.4zm-26.3-11.9c-1.9 0-2.6.7-3.1 2.8l-2.2 9c-.5 2-.1 2.8 1.8 2.8H280c1.9 0 2.6-.7 3.1-2.8l2.9-11.8h-14.9zM324.7 358.1l-.7 3.9h.2c1.7-3 3-3.9 5.4-3.9h17.5c6.5 0 8.9 3.2 7.1 10.3l-4.9 19.5c-1.1 4.6-1.4 6.9-1.3 8.7h-15.9c.9-1.8 1.8-4.1 3-8.7l5.2-20.9c.5-2 .1-2.8-1.8-2.8h-12.1c-1.9 0-2.6.7-3.2 2.8l-5.2 20.9c-1.1 4.6-1.4 6.9-1.3 8.7h-15.9c.9-1.8 1.8-4.1 3-8.7l5.3-21.1c1.1-4.6 1.4-6.9 1.3-8.7h14.3zM377.7 358.1l-.7 3.9h.2c1.7-3 3-3.9 5.4-3.9h17.5c6.5 0 8.9 3.2 7.1 10.3l-4.9 19.5c-1.1 4.6-1.4 6.9-1.3 8.7h-15.9c.9-1.8 1.8-4.1 3-8.7l5.2-20.9c.5-2 .1-2.8-1.8-2.8h-12.1c-1.9 0-2.6.7-3.1 2.8l-5.2 20.9c-1.1 4.6-1.4 6.9-1.3 8.7h-15.9c.9-1.8 1.8-4.1 3-8.7l5.3-21.1c1.1-4.6 1.4-6.9 1.3-8.7h14.2zM424.9 380.8l-1.7 6.9c-.5 2-.1 2.8 1.8 2.8h24.8c1.2 0 2.8-.2 4.6-.5l-2.8 6.5h-35.2c-6.5 0-8.9-3.2-7.1-10.3l4.4-17.8c1.8-7.1 5.7-10.3 12.2-10.3h26.7c6.5 0 8.9 3.2 7.1 10.3l-3.1 12.4h-31.7zm19-6 2-7.8c.5-2 .1-2.8-1.8-2.8h-12.6c-1.9 0-2.6.7-3.1 2.8l-2 7.8h17.5zM499.1 363.8h-13.8l-5.7 22.7c-.8 3.2 0 3.9 2.5 3.9h5.8c4 0 7.3-.4 8.2-.9l-3 7h-20.9c-5.7 0-8.5-3.4-6.6-10.9l5.4-21.8h-7.4l1.4-5.7h7.4l2-7.8 14.7-1.9-2.4 9.7h13.8l-1.4 5.7zM538.4 363.8h-13.8l-5.7 22.7c-.8 3.2 0 3.9 2.5 3.9h5.8c4 0 7.3-.4 8.2-.9l-3 7h-20.9c-5.7 0-8.5-3.4-6.6-10.9l5.4-21.8h-7.4l1.4-5.7h7.4l2-7.8 14.7-1.9-2.4 9.7h13.8l-1.4 5.7zM189.7 454.2c1.4-2.5 2.1-4.7 2.7-7l9.5-38.3c.6-2.4 1-4.6.8-7h42.9l-.7 7.9c-2.2-1.1-5.5-1.2-7.8-1.2h-19.8l-4 15.9h17.3c2.3 0 5.7-.2 8.4-1.2l-2.3 9.2c-2.2-1.1-5.5-1.2-7.8-1.2h-17.3l-4 16c-.6 2.4-1 4.6-.8 7h-17.1zM255.8 445.6c-1.1 4.6-1.4 6.9-1.3 8.7h-15.9c.9-1.8 1.8-4.1 3-8.7l8.7-35c1.1-4.6 1.4-6.9 1.3-8.7h15l-10.8 43.7zM279.5 438.5l-1.7 6.9c-.5 2-.1 2.8 1.8 2.8h24.8c1.2 0 2.8-.2 4.6-.5l-2.8 6.5H271c-6.5 0-8.9-3.2-7.1-10.3l4.4-17.8c1.8-7.1 5.7-10.3 12.2-10.3h26.7c6.5 0 8.9 3.2 7.1 10.3l-3.1 12.4h-31.7zm19-6 2-7.9c.5-2 .1-2.8-1.8-2.8h-12.6c-1.9 0-2.6.7-3.1 2.8l-2 7.9h17.5zM336.9 415.8l-.7 3.9h.2c.8-1.6 1.6-2.5 2.4-3.1.9-.6 1.8-.8 3-.8h19.6c4 0 4.7.7 4.9 3.9h-.2c2-3 3.3-3.9 5.6-3.9H388c6.5 0 8.9 3.2 7.1 10.3l-4.9 19.5c-1.1 4.6-1.4 6.9-1.3 8.7H373c.9-1.8 1.8-4.1 3-8.7l5.2-20.9c.5-2 .1-2.8-1.8-2.8h-10.9c-1.9 0-2.6.7-3.1 2.8l-5.2 20.9c-1.1 4.6-1.4 6.9-1.3 8.7H343c.9-1.8 1.8-4.1 3-8.7l5.2-20.9c.5-2 .1-2.8-1.8-2.8h-10.9c-1.9 0-2.6.7-3.1 2.8l-5.2 20.9c-1.1 4.6-1.4 6.9-1.3 8.7H313c.9-1.8 1.8-4.1 3-8.7l5.3-21.1c1.1-4.6 1.4-6.9 1.3-8.7h14.3zM420.7 415.8l-7.4 29.8c-1.1 4.6-1.4 6.9-1.3 8.7h-16c.9-1.8 1.8-4.1 3-8.7l5.3-21.1c1.1-4.6 1.4-6.9 1.3-8.7h15.1zm2.9-12.9-2.3 9.2h-13.7l2.3-9.2h13.7zM442.8 415.8l-.6 3.9h.2c1.7-3 3-3.9 5.4-3.9h17.5c6.5 0 8.9 3.2 7.1 10.3l-4.8 19.5c-1.1 4.6-1.4 6.9-1.3 8.7h-15.9c.9-1.8 1.8-4.1 3-8.7l5.2-20.9c.5-2 .1-2.8-1.8-2.8h-12.1c-1.9 0-2.6.7-3.1 2.8l-5.2 20.9c-1.1 4.6-1.4 6.9-1.3 8.7H419c.9-1.8 1.8-4.1 3-8.7l5.3-21.1c1.1-4.6 1.4-6.9 1.3-8.7h14.2zM470.6 461.8c1.4.5 4.4.9 8.4.9h19.1c2.5 0 3.5-.7 4.3-3.9l2.1-8.5h-.2c-.5.8-1.4 2.1-2.3 2.9-.9.7-1.6 1.1-4.6 1.1h-16c-6.5 0-8.9-3.2-7.1-10.3l4.4-17.8c1.8-7.1 5.7-10.3 12.2-10.3h17.8c2.1 0 3.1 1.6 3.2 3.6h.2l1.7-3.6H528c-.9 1.8-1.8 4.1-3 8.7l-8.3 33.4c-1.9 7.5-6.3 10.9-12 10.9h-35l.9-7.1zm32-13.6c1.9 0 2.6-.7 3.1-2.8l5.2-20.8c.5-2 .1-2.8-1.8-2.8h-12.6c-1.9 0-2.6.7-3.1 2.8l-5.2 20.8c-.5 2-.1 2.8 1.8 2.8h12.6z"/><path class="st0" d="m125.9 324.8-7.5 12.7 7.5 12.5 7.4-12.5z"/><path d="M81.7 358.1H170V446H81.7v-87.9zm44.2 86c23.2 0 42-18.8 42-42.1 0-23.2-18.8-42.1-42-42.1s-42 18.8-42 42.1c-.1 23.3 18.8 42.1 42 42.1z" style="stroke:#000;stroke-width:.2293;stroke-miterlimit:3.8636"/><path class="st0" d="m126 360.5-36.8 61.6 73.2-.1z"/><path d="M152.8 350.4h24.9V454h-104V350.4h24.7m27.4-.4c-16.5 0-31.2-4.9-42.2-15.4 7 14.2 23.6 23.4 42.1 23.4 18.6 0 35.4-9.2 42.4-23.4-11 10.4-25.6 15.4-42.1 15.4h-.2z" style="fill:none;stroke:#000;stroke-width:2.212;stroke-miterlimit:3.8636"/></svg>