<svg xmlns="http://www.w3.org/2000/svg" width="537" height="196" viewBox="0 0 537 195.63"><defs><linearGradient id="linear-gradient" x1="49.01" x2="128.48" y1="177.45" y2="39.8" gradientUnits="userSpaceOnUse"><stop offset=".03" stop-color="#848688"/><stop offset=".03" stop-color="#858789"/><stop offset=".07" stop-color="#aaacad"/><stop offset=".11" stop-color="#c7c9c9"/><stop offset=".15" stop-color="#dcddde"/><stop offset=".19" stop-color="#e9eaea"/><stop offset=".23" stop-color="#edeeee"/><stop offset=".29" stop-color="#c9cacc"/><stop offset=".35" stop-color="#a5a7aa"/><stop offset=".4" stop-color="#a9abae"/><stop offset=".45" stop-color="#b6b7ba"/><stop offset=".51" stop-color="#cbccce"/><stop offset=".54" stop-color="#dddedf"/><stop offset=".59" stop-color="#d9dadb"/><stop offset=".63" stop-color="#cccdce"/><stop offset=".68" stop-color="#b6b8ba"/><stop offset=".73" stop-color="#989a9d"/><stop offset=".73" stop-color="#97999c"/><stop offset=".83" stop-color="#c2c4c5"/><stop offset=".89" stop-color="#dedfe0"/><stop offset=".95" stop-color="#c4c6c8"/><stop offset="1" stop-color="#b6b8ba"/></linearGradient><style>.cls-3{fill:#003462;fill-rule:evenodd}.cls-4{fill:#b7b8ba}</style></defs><circle cx="88.74" cy="108.63" r="79.45" fill="url(#linear-gradient)"/><path fill="#003462" d="M0 108.26a87.38 87.38 0 1187.37 87.37A87.38 87.38 0 010 108.26m10.24 0a77.14 77.14 0 1077.13-77.14 77.24 77.24 0 00-77.13 77.14"/><path d="M89.88 170.39c5.17.21 13.37-5.14 14.36-5.68 3.63.14.15.88-.61 3.17-.31 2.08 1.1.25 2.64.41s2.39-1.45 3.26-2.11 1.69-.76 5.18-.54c3.23.22 1.59-.82.92-2-.6-.58-.91-.69-2.82-.11-2.92.76-2-.85-3.2-1.61-1.45-1.11 5.21-4.2 10.23-3.31 4.72.69 5.34-1.93 6.47-2.85.92-1 .46-1.85-.46-1.64s-6.52 4.13-9.19 1-3.31-16-2-15.29c2.33.78 8 1.44 17.68 4.65 10.55 2.66 12.29-.12 8.64-.6-2.85.21-7.72-4.08-9.7-6.67-2.77-2.46 3.85-2.24 7.5-1.59s7.44 1.53 7.64 0c-.15-1-3.83-4.89-12.31-5.79-8.62-.71-23.3-7.9-20.89-9.33 2.74-1.8 17.17-.75 19.19 1.45 1.9 1.13 8.06 5.77 8.11 2.55-.52-3.57-2.15-1.26-5.62-4.38-3.78-4.24.9-2.16 2.54-1.12s4.9 1.31 1.93-3.06-5.73-4.92-15-4.6-11.51.12-9.62-2.45 7.31-3 11.06-2.19 3.74 1.25 4.1-.77c-.42-2-7.89-3.49-10.67-3.28s-8.39-.49-6-2.57 21.94.11 25.78.27 3.42-.49 1.9-1.74c-1.69-1.78-5.74-4.41-12.52-5.83s-8.26.77-12.88 1.4c-4.56.21-3-.28-4.49-2.74-1.43-2.64 1.17-2.79 2-2.73.9-.17 17.91-.6 18.73-.49.73-.38 4.7 1.91 5.54 1.09 1.35-2.6-9.67-5.51-12.67-5.63-2.16.08-10-2.63-10.93-3.12-.35-.21-4.59-1.29-.77-2.68 9.28-.89 20.71 7.84 22.16 6.24s-1.64-4-2.23-4.38c-1-.44-3.57-3.77-4.23-3.66-.18-.37-3.91-1.46-4.67-2.27-1.17-.86-5-4.89-5.39-4.78-1.65.85-.19 1-1.92 2.57-2.93 2.4-6.16-3.56-6.16-3.56a.88.88 0 01-.12-1c.3-.84.46-.4 1.06-.13a3.16 3.16 0 003.73-.48c.32-.56.54-1.19 5.66 1.35 3.46 1.71 11.66-.1 14.86 0 7.59-.14.69-3.14-.43-2.71a18.47 18.47 0 01-11.88-5.6c-4.88-5-6-3.17-8.06-4.9-1.43-.82-2.82-2.51-1.77-4.32 2.11-1.74 11.81.58 15.29 1.45s4.67.36 3-2.16c-3.94-2.84-8.44-1-11.6-3-3.91-5.9-7.42-3.28-8.26-6.45s2.26-1.81 6.16-2.51c3.49-.63.93-2.3 1-2.47s-4.91-2.61-5.18-3.55c-.27.09-2.11-3.9 1.17-2.84 7.24 2.13 5.73 11.51 7.32 8.45s-1.47-4.85-1.88-7.69-6-5-6.13-6.8 1-1.73 2.11-2 4.43-.9 1.76-2.16c-2.48-1.61-1.74-1.64-4.05-4.65-2.86-3.72-3.2-3.5 0-4.78 2.06-.82-.2-3.5-2-5s.08-5.38-1.56-3.8C109.53 2.09 104 9 104.86 11a2.49 2.49 0 003.08 1.36c1.18-.09 1.91 1.38-1.75 3.89-3.93 3.63-2.86 4.24-2.28 4.84s2-1.23 2.21-1.26c0-.15 4.38 0 1.77 2.81-3.13 3.36-4.59 4.72-9.11 6.36-4.24 1.51-6 1.82-5.77 3 .9.53 6.38-.08 7-.32 1.59-.42 2.56-3.18 3.79-1.59.82 3.17-2.61 3.17-4.31 3.72-2.06.35-7.42 4.45-6.08 5.16a26.46 26.46 0 017.11-.93c3-1.53 3.51-.11 3.92.77 0 2.08-2.46 5.08-5.28 5.36-2.86.5-2.58.52-7.42 2.87-4.87 2.62-3.74 3.88-2.41 3.72s2-2.13 9.19-2.35c7.21-1.12 4.5 3.08 3.41 5.08-1.19.86-5 .07-9.77 4.38-4.72 4-1.11 3-.59 2.7.37 0 .52-.67.9-.64 1.12.07 1.55.56 3.36-.64 2.58.3 3.23 2.75-1.72 7.43-3.55 4.27-4.85 2.06-9.63 5.5s-1.77 3.28 0 2.41 7.44-1.56 9.18-2.11c2.45-1 10.84-3 9.24-1.12-2.41 3.72-5.49 4.51-8.06 5.38-2.32 1-6.78 4-5.69 5.34 1.84.65 1-1.53 4.87-1.48s5-3.5 6.21-2.87c3.54 1.2 2.41 4.81 1.46 5.06-1.24 1.13-10.21 7.11-11 8-.67.69-3.85 3.81-3.8 4.54s3.89-.55 5.13-1.84c1.39-1.91 7.85-5.55 8.83-5.71s2.36 1.31 2.46 1.94c.41.8.18 1.38.49 3 1 2-.85 1.75-.85 1.75s-6.36.11-8.16.33-7.87 3-10.65 5.82-.23 2.11.08 2 .41-1.15 2.77-1.69 2.88-.66 8.83-1.21 2.1 2.55.67 2.47c-1.93.3-8.79 4-10 4.86-1.24 1.12-3.57 1.88-5.88 4.7-2 3.34-.62 3.4.15 2.9a12.93 12.93 0 012.93-2c1.45-1 3.23-1.18 4.21-1.86 1-.94 3.56-1.55 4.87-2.73 1.36-.85 3.06-2.11 4.54-2.33a8 8 0 017.16 3.42c2.33 3.21-.49 3.61-1.28 4s-9.65.46-13.19.38a10.32 10.32 0 00-8.42 3.23c-2.1 2 .06 2.43 1 1.89a7.18 7.18 0 017.31-.91c4 1.59 9.72 1.37 11.21 1.42s4 .39 2.21 2.36c-1.64 2-7 3.77-9.39 5-1.54 1.21-10.44-.35-13.21.47-2.79 1.2-3 1.81.9 2.79 10.12.76 8.73-.31 12.21.57 3.85.93.64 3.17-.31 3.23a20.86 20.86 0 00-5.26.41c-2.16.54-5 2.27-7.11 2.76-2 .64-5 3.27-7.77 5.85-2.52 2.79-.44 4.15 0 3.28a3.43 3.43 0 013.65-1.64c1.79 0 4.3-2.23 7.54-3.12 2.88-1.36 3.19-.24 2.08.66-1.3 1-4.88 3.93-6.08 5.9-1.39 2-.9 4.27-.49 3.88.84-.15 3.47-3.41 5-3.88 2.44-.66 7.69-3.72 11.47-5.3 3.85-1.75 4.44-1.75 5.57-1s1.23 2.43.72 5.33-4.36 3.94-8.57 5.47c-1.62.5-3.68 1.29-4.05 1.37s-4.73 2.32-4.11 3.58c.63 1.08 10.07.78 10.67-.06a46.08 46.08 0 005.75-5c.77-.82 2-.27 1.59 4s-4.92 7.88-7 9.63c-2.39 1.52-4.25 1.56-7.39 3-3 1.92.11 1.64.11 1.64z" class="cls-3"/><path d="M68.1 159.42s2.08.18.07-1.09c-2.09-1-3.33-1-4.93-2-1.37-1.16-4.37-3.53-4.65-6.41s.55-3.24 1.06-2.7a31.17 31.17 0 003.83 3.32c.4.56 6.7.76 7.12 0s-2.4-2.28-2.74-2.39-1.62-.58-2.7-.91c-2.81-1-5.4-1.73-5.71-3.65s-.28-3.07.48-3.55 1.14-.47 3.71.69 6 3.09 7.64 3.54c1 .31 2.77 2.48 3.33 2.58.28.26.6-1.23-.32-2.58a21.92 21.92 0 00-4.05-3.94c-.75-.59-.53-1.34 1.38-.43 2.16.59 3.84 2.09 5 2.07a2.28 2.28 0 012.43 1.1c.3.58 1.69-.33 0-2.19-1.83-1.72-3.86-3.47-5.18-3.9s-3.3-1.47-4.74-1.84a14.3 14.3 0 00-3.5-.27c-.63 0-2.77-1.53-.2-2.15 2.31-.59 1.39.12 8.13-.38 2.6-.66 2.46-1.06.6-1.86-1.84-.55-7.78.49-8.8-.31-1.57-.8-5.16-2-6.26-3.32s.48-1.53 1.47-1.57 4.77.11 7.47-.94A4.76 4.76 0 0173 125c.62.36 2.06.09.65-1.26a6.83 6.83 0 00-5.6-2.15c-2.36 0-8.21-.09-8.79-.25s-2.41-.52-.86-2.66a5.29 5.29 0 014.77-2.28 9.28 9.28 0 013 1.55c.88.79 2.56 1.19 3.25 1.82.65.45 1.84.55 2.8 1.24a8.4 8.4 0 012 1.35c.51.33 1.4.29.1-1.94-1.54-1.87-3.09-2.38-3.91-3.13-.8-.56-5.37-3-6.65-3.24-1 0-3.52-2 .44-1.64a33.07 33.07 0 015.88.8 2.88 2.88 0 011.85 1.13c.2 0 1.9.49 0-1.37a18.32 18.32 0 00-7.09-3.88c-1.2-.14-5.44-.22-5.44-.22s-1.25.15-.57-1.16c.21-1.07.06-1.45.33-2 .07-.42 1-1.4 1.64-1.29s5 2.53 5.88 3.81c.83.85 3.39 1.68 3.42 1.22s-2.08-2.57-2.53-3-6.5-4.58-7.33-5.34c-.64-.16-1.39-2.56 1-3.37.79-.42 1.54 2 4.14 1.92s2 1.42 3.25 1c.72-.88-2.25-2.88-3.8-3.55-1.71-.59-3.76-1.11-5.37-3.59-1.07-1.23 4.53.08 6.16.75 1.16.36 5 .82 6.12 1.4s3.16.69 0-1.6-4-.82-6.41-3.67c-3.3-3.12-2.87-4.75-1.15-5a2.34 2.34 0 002.24.42c.26 0 .36.4.6.43.34.19 2.76.86-.39-1.8-3.16-2.87-5.72-2.34-6.52-2.92-.72-1.33-2.52-4.13 2.28-3.38 4.82.14 5.23 1.45 6.12 1.56s1.64-.73-1.61-2.47c-3.22-1.57-3-1.58-4.94-1.92a4.22 4.22 0 01-3.52-3.57c.27-.58.59-1.53 2.62-.51a17.15 17.15 0 014.73.62c.9-.48-2.68-3.21-4-3.44-1.25-.42-3.54-.42-2.99-2.5.82-1.06 1.47.78 2.53 1.06.43.16 4.08.57 4.68.22.13-.79-1-1-3.84-2-3-1.09-4-2-6.07-4.23-1.74-1.89 1.15-2 1.18-1.87s1 1.25 1.47.84 1.1-.81-1.53-3.23c-2.43-1.67-1.95-2.65-1.16-2.59a1.64 1.64 0 002-.91c.57-1.32-3.11-5.94-4-7.08-1.09-1.06.16 1.54-1 2.53s-2.7 2.77-1.33 3.31c2.13.86 1.9.71 0 3.19-1.54 2-1 2-2.7 3.1-1.78.84.46 1.26 1.18 1.44s1.47.13 1.4 1.33-3.81 2.64-4.09 4.53-2.31 3.09-1.25 5.13.06-4.21 4.88-5.63c2.18-.71 1 2 .78 1.89-.18.63-3.44 2.17-3.45 2.37s-1.64 1.22.68 1.64c2.6.47 4.72-.44 4.11 1.68s-2.9.36-5.51 4.29c-2.1 1.33-5.1.1-7.73 2-1.09 1.68-.3 2 2 1.44s8.79-2.13 10.19-1c.7 1.21-.22 2.34-1.18 2.88-1.38 1.15-2.12-.05-5.37 3.26a12.31 12.31 0 01-7.91 3.74c-.75-.29-5.35 1.71-.29 1.8 2.13 0 7.6 1.17 9.9 0 3.41-1.69 3.56-1.27 3.77-.89a2.11 2.11 0 002.49.31c.4-.18.5-.47.71.09a.61.61 0 01-.08.66s-2.16 4-4.11 2.36c-1.15-1-.18-1.14-1.28-1.71-.29-.07-2.82 2.62-3.59 3.19-.51.54-3 1.27-3.11 1.51-.45-.07-2.16 2.15-2.82 2.44C39 99.32 37 101 37.94 102s8.58-4.75 14.77-4.16c2.55.93-.28 1.65-.51 1.79-.65.33-5.85 2.13-7.29 2.08-2 .07-9.34 2-8.44 3.75.56.54 3.21-1 3.69-.73.55-.07 11.88.22 12.48.33s2.31.06 1.35 1.82 0 2-3 1.82c-3.08-.42-4.07-1.87-8.58-.93s-7.22 2.7-8.35 3.88c-1 .84-1.29 1.28 1.27 1.17s15.68-1.64 17.18-.18-2.23 1.94-4 1.71-6.84.87-7.11 2.19c.24 1.34.24 1 2.73.51s6.14-.22 7.37 1.45-.26 1.86-6.41 1.64-8 .15-10 3.06.12 2.81 1.28 2 4.22-2.08 1.7.75c-2.31 2.08-3.4.54-3.75 2.92 0 2.15 4.14-1 5.41-1.7 1.34-1.46 11-2.17 12.78-1 1.61.94-8.17 5.74-13.91 6.21s-8.11 3.17-8.21 3.86c.14 1 2.67.44 5.09 0s6.84-.58 5 1.06c-1.32 1.72-4.56 4.59-6.47 4.44-2.43.33-1.27 2.18 5.77.41 6.41-2.15 10.23-2.59 11.78-3.1.83-.46.41 8.11-1.37 10.18s-5.51-.53-6.12-.67-.93.43-.31 1.09 1.16 2.36 4.31 1.9c3.34-.59 7.79 1.46 6.82 2.2-.79.51-.19 1.59-2.14 1.08-1.27-.39-1.47-.32-1.88.07-.44.77-1.54 1.46.62 1.31 2.32-.15 2.87-.07 3.45.36s1.15 1.52 2.17 1.41 2 1.11 1.76-.28c-.51-1.52-2.82-2-.41-2.11.67.36 6.13 3.93 9.58 3.79z" class="cls-3"/><path d="M190.53 158.08a7 7 0 010 .71 1.84 1.84 0 01-.11.45.6.6 0 01-.18.26.46.46 0 01-.24.08h-9.49a1.19 1.19 0 01-.81-.28 1.17 1.17 0 01-.33-.93v-16.46a1.17 1.17 0 01.33-.93 1.2 1.2 0 01.81-.29h9.43a.4.4 0 01.23.08.56.56 0 01.18.25 2.24 2.24 0 01.1.47 4.84 4.84 0 010 .72 4.72 4.72 0 010 .7 2.13 2.13 0 01-.1.46.62.62 0 01-.18.25.4.4 0 01-.23.08h-6.75v4.61h5.71a.41.41 0 01.24.08.6.6 0 01.18.25 1.48 1.48 0 01.11.45 6.15 6.15 0 010 1.4 1.48 1.48 0 01-.11.44.51.51 0 01-.18.24.41.41 0 01-.24.08h-5.71v5.32H190a.46.46 0 01.24.08.66.66 0 01.18.26 2.07 2.07 0 01.11.46 7 7 0 010 .71zM217 158.24a1.46 1.46 0 01-.12.6 1.25 1.25 0 01-.31.43 1.21 1.21 0 01-.47.26 2 2 0 01-.55.08h-1.63a3.36 3.36 0 01-.89-.1 1.82 1.82 0 01-.68-.37 3.56 3.56 0 01-.61-.73c-.19-.31-.41-.71-.65-1.19l-4.7-8.83c-.28-.53-.55-1.1-.84-1.7s-.53-1.2-.76-1.78c0 .7.06 1.4.08 2.1s0 1.41 0 2.15V159a.38.38 0 01-.08.26.52.52 0 01-.28.2 1.9 1.9 0 01-.53.12 7.34 7.34 0 01-1.71 0 1.9 1.9 0 01-.52-.12.5.5 0 01-.26-.2.45.45 0 01-.08-.26v-17a1.3 1.3 0 01.4-1 1.48 1.48 0 011-.35h2.06a4 4 0 01.93.1 2 2 0 01.68.31 2.38 2.38 0 01.56.61 7.3 7.3 0 01.54.95l3.68 6.91c.21.42.43.83.64 1.23s.41.81.6 1.21.39.8.57 1.19.37.78.54 1.17c0-.68-.05-1.39-.06-2.13s0-1.45 0-2.12v-8.86a.5.5 0 01.08-.26.71.71 0 01.3-.2 1.94 1.94 0 01.54-.13h1.69a1.78 1.78 0 01.52.13.58.58 0 01.25.2.5.5 0 01.08.26zM241.12 142.27a5 5 0 010 .72 2.21 2.21 0 01-.1.48.52.52 0 01-.19.27.36.36 0 01-.24.09h-4.73v15.23a.43.43 0 01-.09.26.7.7 0 01-.32.19 2.39 2.39 0 01-.59.11 7.57 7.57 0 01-.92 0 7.88 7.88 0 01-.93 0 2.39 2.39 0 01-.59-.11.7.7 0 01-.32-.19.43.43 0 01-.09-.26v-15.23h-4.73a.37.37 0 01-.25-.09.57.57 0 01-.17-.27 1.7 1.7 0 01-.11-.48 5 5 0 010-.72 5.22 5.22 0 010-.74 1.7 1.7 0 01.11-.49.7.7 0 01.17-.27.41.41 0 01.25-.08h13.31a.41.41 0 01.24.08.62.62 0 01.19.27 2.19 2.19 0 01.1.49 5.22 5.22 0 010 .74zM262 158.08a7 7 0 010 .71 2.46 2.46 0 01-.11.45.54.54 0 01-.19.26.41.41 0 01-.24.08H252a1.06 1.06 0 01-1.14-1.21v-16.46a1.08 1.08 0 011.14-1.22h9.42a.41.41 0 01.24.08.55.55 0 01.17.25 1.71 1.71 0 01.11.47 4.84 4.84 0 010 .72 4.72 4.72 0 010 .7 1.63 1.63 0 01-.11.46.61.61 0 01-.17.25.41.41 0 01-.24.08h-6.74v4.61h5.71a.41.41 0 01.24.08.7.7 0 01.18.25 1.48 1.48 0 01.11.45 6.14 6.14 0 010 1.4 1.48 1.48 0 01-.11.44.58.58 0 01-.18.24.41.41 0 01-.24.08h-5.71v5.32h6.8a.41.41 0 01.24.08.59.59 0 01.19.26 2.84 2.84 0 01.11.46 7 7 0 01-.02.71zM286.89 159.08a.54.54 0 01-.06.27.45.45 0 01-.27.19 2.77 2.77 0 01-.65.1h-2.15a2.3 2.3 0 01-.57-.11.58.58 0 01-.3-.21 1.13 1.13 0 01-.15-.29l-1.69-4.22c-.21-.48-.41-.9-.6-1.27a3.92 3.92 0 00-.65-.93 2.4 2.4 0 00-.82-.56 2.85 2.85 0 00-1.08-.19h-1.2v7.2a.39.39 0 01-.1.26.61.61 0 01-.31.19 2.49 2.49 0 01-.58.11 7.94 7.94 0 01-.94 0 7.57 7.57 0 01-.92 0 2.58 2.58 0 01-.6-.11.62.62 0 01-.3-.19.43.43 0 01-.09-.26v-17.15a1.17 1.17 0 01.33-.93 1.2 1.2 0 01.81-.29H280.11l.88.08a7.79 7.79 0 012.05.55 5 5 0 011.55 1 4.36 4.36 0 011 1.5 5.63 5.63 0 01.33 2 5.93 5.93 0 01-.24 1.73A4.43 4.43 0 01285 149a4.72 4.72 0 01-1.16 1.06 5.89 5.89 0 01-1.56.73 5.1 5.1 0 01.8.5 4.71 4.71 0 01.7.71 7.1 7.1 0 01.62.95q.28.53.57 1.2l1.59 3.72c.14.37.24.64.29.81a1.52 1.52 0 01.04.4zm-4.95-12.81a2.84 2.84 0 00-.42-1.58 2.29 2.29 0 00-1.39-.9 4.92 4.92 0 00-.66-.12 9.31 9.31 0 00-1 0h-1.72V149h1.95a4.79 4.79 0 001.44-.19 3 3 0 001-.56 2.34 2.34 0 00.61-.85 2.82 2.82 0 00.19-1.13zM310.11 146.43a7.51 7.51 0 01-.49 2.82 5.51 5.51 0 01-1.45 2.06 6.32 6.32 0 01-2.33 1.28 10.8 10.8 0 01-3.24.44H301v6a.39.39 0 01-.1.26.61.61 0 01-.31.19 2.39 2.39 0 01-.58.11 7.94 7.94 0 01-.94 0 7.57 7.57 0 01-.92 0 2.39 2.39 0 01-.59-.11.61.61 0 01-.31-.19.43.43 0 01-.09-.26v-17a1.36 1.36 0 01.36-1 1.3 1.3 0 01.94-.35h4.45c.45 0 .87 0 1.28.06a12.64 12.64 0 011.45.21 6.74 6.74 0 011.72.62 5.3 5.3 0 011.48 1.15 4.64 4.64 0 01.93 1.62 6.18 6.18 0 01.34 2.09zm-4 .28a3.46 3.46 0 00-.35-1.64 2.5 2.5 0 00-.86-.95 2.85 2.85 0 00-1.08-.38 7.29 7.29 0 00-1.16-.08H301v6.4h1.72a4.29 4.29 0 001.54-.24 2.69 2.69 0 001-.7 2.88 2.88 0 00.59-1.06 4.24 4.24 0 00.25-1.35zM334.57 159.08a.54.54 0 01-.05.27.45.45 0 01-.28.19 2.77 2.77 0 01-.64.1h-2.16a2.29 2.29 0 01-.58-.11.58.58 0 01-.3-.21 1.13 1.13 0 01-.15-.29l-1.69-4.22a14 14 0 00-.6-1.27 3.92 3.92 0 00-.65-.93 2.31 2.31 0 00-.82-.56 2.78 2.78 0 00-1.08-.19h-1.2v7.2a.43.43 0 01-.09.26.7.7 0 01-.32.19 2.39 2.39 0 01-.58.11 7.63 7.63 0 01-.93 0 7.88 7.88 0 01-.93 0 2.39 2.39 0 01-.59-.11.61.61 0 01-.31-.19.43.43 0 01-.09-.26v-17.15a1.17 1.17 0 01.33-.93 1.2 1.2 0 01.81-.29H327.79l.87.08a7.69 7.69 0 012.05.55 4.88 4.88 0 011.55 1 4.22 4.22 0 011 1.5 5.62 5.62 0 01.34 2 5.93 5.93 0 01-.24 1.73 4.46 4.46 0 01-.71 1.39 4.67 4.67 0 01-1.15 1.06 5.81 5.81 0 01-1.57.73 4.68 4.68 0 01.8.5 4.29 4.29 0 01.7.71 7.1 7.1 0 01.62.95q.29.53.57 1.2l1.59 3.72c.15.37.24.64.29.81a1.52 1.52 0 01.07.46zm-4.94-12.81a2.77 2.77 0 00-.43-1.58 2.29 2.29 0 00-1.38-.9 5.41 5.41 0 00-.67-.12 9.2 9.2 0 00-1 0h-1.75V149h2a4.76 4.76 0 001.43-.19 2.78 2.78 0 001-.56 2.23 2.23 0 00.61-.85 2.82 2.82 0 00.19-1.13zM348.72 159.06a.39.39 0 01-.1.26.66.66 0 01-.31.19 2.49 2.49 0 01-.59.11 7.63 7.63 0 01-.93 0 7.88 7.88 0 01-.93 0 2.59 2.59 0 01-.59-.11.66.66 0 01-.31-.19.44.44 0 01-.1-.26v-17.84a.42.42 0 01.1-.26.65.65 0 01.32-.19 3.19 3.19 0 01.59-.12 10.72 10.72 0 011.85 0 3 3 0 01.59.12.66.66 0 01.31.19.37.37 0 01.1.26zM371.5 153.92a5.83 5.83 0 01-.55 2.61 5.44 5.44 0 01-1.51 1.88 6.65 6.65 0 01-2.22 1.13 9.49 9.49 0 01-2.71.38 10.36 10.36 0 01-1.82-.16 10.85 10.85 0 01-1.48-.39 6 6 0 01-1.07-.48 2.9 2.9 0 01-.62-.43 1.06 1.06 0 01-.27-.55 4.59 4.59 0 01-.08-1v-.76a2.4 2.4 0 01.09-.49.51.51 0 01.18-.27.37.37 0 01.25-.09 1.26 1.26 0 01.58.25c.25.16.57.33 1 .53a8.65 8.65 0 001.39.53 6.58 6.58 0 001.87.24 4.09 4.09 0 001.26-.17 2.86 2.86 0 00.94-.47 1.91 1.91 0 00.59-.76 2.37 2.37 0 00.21-1 1.81 1.81 0 00-.35-1.1 3.69 3.69 0 00-.92-.82 10.67 10.67 0 00-1.27-.67l-1.48-.66a13.15 13.15 0 01-1.47-.8 5.92 5.92 0 01-1.28-1.06 5.07 5.07 0 01-.91-1.47 5.35 5.35 0 01-.35-2 5.41 5.41 0 01.5-2.38 4.89 4.89 0 011.36-1.71 6 6 0 012-1 9 9 0 012.46-.33 8.76 8.76 0 011.35.1 9.17 9.17 0 011.25.28 8.16 8.16 0 011 .39 2.55 2.55 0 01.6.37.91.91 0 01.19.25.71.71 0 01.09.27 3.47 3.47 0 01.05.42v1.35a2 2 0 01-.07.48.57.57 0 01-.14.28.37.37 0 01-.26.09 1.17 1.17 0 01-.51-.21 9.57 9.57 0 00-.86-.44 8.38 8.38 0 00-1.18-.44 5.3 5.3 0 00-1.48-.2 3.54 3.54 0 00-1.09.15 2.43 2.43 0 00-.78.43 1.6 1.6 0 00-.47.65 2.15 2.15 0 00-.15.8 1.77 1.77 0 00.34 1.09 3.19 3.19 0 00.92.81 9.84 9.84 0 001.3.68c.49.2 1 .43 1.49.66a12.58 12.58 0 011.49.8 5.8 5.8 0 011.3 1.06 4.84 4.84 0 01.92 1.46 5.19 5.19 0 01.38 1.89zM393.1 158.08a4.78 4.78 0 010 .71 1.9 1.9 0 01-.1.45.54.54 0 01-.19.26.41.41 0 01-.24.08h-9.48a1.06 1.06 0 01-1.14-1.21v-16.46a1.08 1.08 0 011.14-1.22h9.42a.41.41 0 01.24.08.55.55 0 01.17.25 1.71 1.71 0 01.11.47 4.84 4.84 0 010 .72 4.72 4.72 0 010 .7 1.63 1.63 0 01-.11.46.61.61 0 01-.17.25.41.41 0 01-.24.08h-6.74v4.61h5.71a.46.46 0 01.24.08.7.7 0 01.18.25 1.48 1.48 0 01.11.45 6.14 6.14 0 010 1.4 1.48 1.48 0 01-.11.44.58.58 0 01-.18.24.46.46 0 01-.24.08h-5.71v5.32h6.8a.41.41 0 01.24.08.59.59 0 01.19.26 2.13 2.13 0 01.1.46 4.78 4.78 0 010 .71zM414.86 153.92a5.83 5.83 0 01-.55 2.61 5.53 5.53 0 01-1.5 1.88 6.84 6.84 0 01-2.22 1.13 9.56 9.56 0 01-2.72.38 10.24 10.24 0 01-1.81-.16 11 11 0 01-1.49-.39 6.4 6.4 0 01-1.07-.48 3.19 3.19 0 01-.62-.43 1.06 1.06 0 01-.27-.55 5.27 5.27 0 01-.08-1v-.76a1.82 1.82 0 01.1-.49.5.5 0 01.17-.27.39.39 0 01.26-.09 1.28 1.28 0 01.57.25c.25.16.57.33 1 .53a9 9 0 001.39.53 6.65 6.65 0 001.88.24 4.07 4.07 0 001.25-.17 2.76 2.76 0 00.94-.47 1.91 1.91 0 00.59-.76 2.37 2.37 0 00.21-1 1.81 1.81 0 00-.35-1.1 3.64 3.64 0 00-.91-.82 10.85 10.85 0 00-1.28-.67l-1.47-.66a12.45 12.45 0 01-1.48-.8 5.92 5.92 0 01-1.28-1.06 5.29 5.29 0 01-.91-1.47 5.35 5.35 0 01-.35-2 5.28 5.28 0 01.51-2.38 4.76 4.76 0 011.35-1.71 5.91 5.91 0 012-1 8.92 8.92 0 012.46-.33 8.73 8.73 0 011.34.1 8.54 8.54 0 011.25.28 8.16 8.16 0 011 .39 2.55 2.55 0 01.6.37.78.78 0 01.28.52 2.19 2.19 0 01.05.42v1.35a2.65 2.65 0 01-.08.48.57.57 0 01-.14.28.36.36 0 01-.26.09 1.27 1.27 0 01-.51-.21 9.57 9.57 0 00-.86-.44 7.93 7.93 0 00-1.18-.44 5.3 5.3 0 00-1.48-.2 3.59 3.59 0 00-1.09.15 2.43 2.43 0 00-.78.43 1.6 1.6 0 00-.47.65 2.15 2.15 0 00-.15.8 1.77 1.77 0 00.34 1.09 3.33 3.33 0 00.92.81 10 10 0 001.31.68c.48.2 1 .43 1.49.66a13.28 13.28 0 011.48.8 5.8 5.8 0 011.3 1.06 4.84 4.84 0 01.92 1.46 5 5 0 01.4 1.89zM449.88 158a7.1 7.1 0 010 .73 2 2 0 01-.11.5.68.68 0 01-.18.28.39.39 0 01-.26.09h-8.65a1.19 1.19 0 01-.81-.28 1.17 1.17 0 01-.33-.93v-17.17a.41.41 0 01.09-.26.7.7 0 01.32-.19 2.87 2.87 0 01.59-.12 8.15 8.15 0 01.93 0 7.93 7.93 0 01.93 0 2.9 2.9 0 01.58.12.7.7 0 01.32.19.41.41 0 01.09.26v15.19h5.94a.45.45 0 01.26.08.64.64 0 01.18.27 1.7 1.7 0 01.11.48 7.15 7.15 0 010 .76zM470 142.27a5 5 0 010 .72 1.7 1.7 0 01-.11.48.58.58 0 01-.18.27.36.36 0 01-.24.09h-4.73v15.23a.43.43 0 01-.09.26.7.7 0 01-.32.19 2.39 2.39 0 01-.59.11 8.58 8.58 0 01-1.85 0 2.39 2.39 0 01-.59-.11.7.7 0 01-.32-.19.43.43 0 01-.09-.26v-15.23h-4.73a.37.37 0 01-.25-.09.5.5 0 01-.17-.27 1.7 1.7 0 01-.11-.48 5 5 0 010-.72 5.22 5.22 0 010-.74 1.7 1.7 0 01.11-.49.6.6 0 01.17-.27.41.41 0 01.25-.08h13.31a.41.41 0 01.24.08.71.71 0 01.18.27 1.7 1.7 0 01.11.49 5.22 5.22 0 010 .74zM495.38 149.86a13 13 0 01-.67 4.44 7.67 7.67 0 01-1.95 3 7.77 7.77 0 01-3.09 1.71 14.9 14.9 0 01-4.33.55h-4.51a1.19 1.19 0 01-.81-.28 1.17 1.17 0 01-.32-.93v-16.44a1.17 1.17 0 01.3-.91 1.2 1.2 0 01.81-.29h4.85a13.34 13.34 0 014.28.6 7.73 7.73 0 013 1.75 7.57 7.57 0 011.83 2.86 11.68 11.68 0 01.61 3.94zm-4 .13a9.38 9.38 0 00-.31-2.49 5.18 5.18 0 00-1-2 4.5 4.5 0 00-1.78-1.32 7.1 7.1 0 00-2.85-.48h-1.94v12.84h2a7.58 7.58 0 002.65-.4 4.61 4.61 0 001.85-1.24 5.35 5.35 0 001.08-2.05 10.22 10.22 0 00.33-2.85zM509.45 157.48a2.57 2.57 0 01-.47 1.82 2.42 2.42 0 01-1.7.47 2.37 2.37 0 01-1.69-.46 2.47 2.47 0 01-.47-1.74 2.65 2.65 0 01.47-1.84 2.46 2.46 0 011.72-.47 2.36 2.36 0 011.68.46 2.5 2.5 0 01.46 1.76z" class="cls-4"/><path d="M422.17 131.17c-6.05 0-8.19-4.86-8.19-9a45.39 45.39 0 011-6.6l3.8-19.08c.11-.48.47-2.67.48-3.08a1.12 1.12 0 00-.07-.38c-1.41.53-4.86 4.18-5.6 5.35l-.47.94-1-.07c-2.33 0-3.15-3.7-3.15-4.49v-.42l.2-.38c1.7-3.2 10.86-13.27 17.47-13.27 5.23 0 8.61 3.54 8.61 9a46.53 46.53 0 01-1 6.52l-3.81 19.16c-.1.45-.37 2.64-.38 3.07a1.88 1.88 0 000 .36c1.46-.63 4.8-4.17 5.52-5.32l.48-.94 1 .07c2.33 0 3.15 3.7 3.15 4.49v.42l-.2.38c-1.76 3.41-11.26 13.27-17.84 13.27zm7.21-56.46c-4.38 0-7.68-3.52-7.68-8.2 0-5.51 4.55-10.36 9.74-10.36 4.38 0 7.69 3.48 7.69 8.1 0 5.57-4.56 10.46-9.75 10.46z"/><path d="M431.44 57.86c3.51 0 6 2.78 6 6.39 0 4.53-3.71 8.76-8 8.76-3.5 0-6-2.89-6-6.5 0-4.53 3.71-8.65 8-8.65m-4.84 24.52c4.12 0 6.91 2.58 6.91 7.31a50.14 50.14 0 01-.93 6.19L428.77 115a31.9 31.9 0 00-.42 3.4c0 .92.42 2.16 1.45 2.16 2.26 0 7-5.67 7.31-6.28.72 0 1.44 2.16 1.44 2.78-1.75 3.3-10.81 12.36-16.38 12.36-3.4 0-6.49-2.06-6.49-7.31a43.41 43.41 0 01.93-6.19l3.81-19.16a34.16 34.16 0 00.52-3.4c0-.92-.52-2.16-1.55-2.16-2.27 0-7 5.67-7.31 6.28-.72 0-1.45-2.16-1.45-2.78 1.76-3.29 10.41-12.36 16-12.36m4.84-27.93C425.24 54.45 420 60 420 66.51c0 5.56 4.13 9.91 9.39 9.91 6.1 0 11.45-5.69 11.45-12.17 0-5.59-4-9.8-9.39-9.8zM426.6 79c-7.51 0-17.05 10.53-19 14.17l-.4.75v.85c0 1.37 1.16 6.2 4.86 6.2h2.11l.86-1.73a21.37 21.37 0 011.83-2.11l-3.61 18.14a45.83 45.83 0 00-1 6.91c0 4.24 1.63 6.73 3 8.06a9.77 9.77 0 006.91 2.67c3.32 0 7.29-1.94 11.82-5.75 3.36-2.83 6.4-6.21 7.58-8.43l.4-.75v-.85c0-1.37-1.17-6.2-4.86-6.2H435l-.86 1.73a21.37 21.37 0 01-1.83 2.11l3.62-18.2a46.37 46.37 0 001-6.85c0-6.41-4.15-10.72-10.32-10.72z" class="cls-4"/><path d="M475.59 131.17c-6 0-8.2-4.86-8.2-9a44.81 44.81 0 011-6.55l2.38-12.31c.3-1.21 1.18-6.6 1.18-7.41a1.37 1.37 0 00-.05-.39c-2.15 1.12-9.3 11.31-12.13 24.14l-2.3 10.35-1 .29a35.77 35.77 0 01-6.26.69 41.94 41.94 0 01-6.5-.67l-1.56-.39 6.39-33.46c.1-.4.45-2.59.46-3a1.12 1.12 0 000-.46c-1.41.53-4.85 4.18-5.59 5.35l-.47.94-1-.07c-2.33 0-3.15-3.7-3.15-4.49v-.42l.2-.38c1.7-3.2 10.86-13.27 17.48-13.27 5.23 0 8.61 3.54 8.61 9a14.83 14.83 0 01-.15 1.77c4.16-5.5 9.7-10.79 13.89-10.79 8.09 0 9.13 5.71 9.13 10.67 0 3.16-1.13 8.81-1.81 12.19-.11.55-.21 1-.28 1.43l-2 10.44c-.08.37-.36 2.56-.36 3a1.88 1.88 0 000 .36c1.45-.63 4.8-4.17 5.52-5.32l.47-.94 1 .07c2.33 0 3.15 3.7 3.15 4.49v.42l-.2.38c-1.77 3.48-11.27 13.34-17.85 13.34z"/><path d="M478.78 82.38c5.77 0 7.42 3.09 7.42 9 0 3.51-1.54 10.61-2.06 13.29l-2 10.41c-.1.41-.41 2.88-.41 3.4 0 .92.41 2.16 1.44 2.16 2.27 0 7-5.67 7.32-6.28.72 0 1.44 2.16 1.44 2.78-1.75 3.3-10.82 12.36-16.38 12.36-3.4 0-6.49-2.06-6.49-7.31A43.41 43.41 0 01470 116l2.37-12.25a76.53 76.53 0 001.23-7.83c0-1-.51-2.17-1.65-2.17-3 0-11 12.47-13.9 25.55l-2.05 9.34a35.26 35.26 0 01-5.77.61 41.61 41.61 0 01-6.08-.61l6.08-31.84a34.21 34.21 0 00.51-3.4c0-.92-.51-2.16-1.54-2.16-2.27 0-7 5.67-7.32 6.28-.72 0-1.44-2.16-1.44-2.78 1.75-3.29 10.4-12.36 16-12.36 4.12 0 6.9 2.58 6.9 7.31a48.31 48.31 0 01-.93 6.19c-.19 1.15-.92 4.2-1 4.51 3.1-7 12.26-18 17.4-18m0-3.41c-3.89 0-8.43 3.53-12.33 7.88C465.4 82 461.63 79 456.43 79c-7.52 0-17.05 10.53-19 14.17l-.4.75v.85c0 1.37 1.17 6.2 4.86 6.2H444l.86-1.73a22 22 0 011.85-2.12l-5.9 30.88-.6 3.17 3.13.78a44.49 44.49 0 006.91.72 37.41 37.41 0 006.75-.76l1.92-.58.43-2 2.06-9.38a60.38 60.38 0 018.08-19.22c-.16.94-.32 1.75-.41 2.11v.18l-2.35 12.19a44.69 44.69 0 00-1 6.9c0 4.24 1.63 6.73 3 8.06a9.77 9.77 0 006.91 2.67c7.66 0 17.52-10.65 19.39-14.18l.4-.75v-.85c0-1.37-1.16-6.2-4.85-6.2h-2.11l-.87 1.73a21.33 21.33 0 01-1.84 2.13l1.79-9.5c.07-.37.16-.85.27-1.4.69-3.44 1.84-9.19 1.84-12.52 0-3.06 0-12.37-10.83-12.37z" class="cls-4"/><path d="M508 131c-8.36 0-13.56-6.42-13.56-16.75 0-16 14.48-33.54 27.67-33.54 6.06 0 13.14 2.93 13.14 11.19 0 5.21-3.79 10.24-10.67 14.17a39.68 39.68 0 01-13.91 4.85v1c0 3.27.8 7.16 4.58 7.16 2.22 0 5.59-2.24 9-6l.19-.21.5-.5h.71c2.65 0 3.26 4.17 3.26 4.8v.46l-.24.41C527.11 120.6 515.33 131 508 131zm10.65-43.1c-2.55 0-5.88 8.56-7.09 15 3.3-1.87 8.06-7.18 8.06-12.72 0-2.28-.62-2.28-.97-2.28z"/><path d="M522.15 82.38c5.25 0 11.44 2.27 11.44 9.48 0 10.61-18 17.41-24.42 17.41a19.08 19.08 0 00-.21 2.57c0 3.82 1.14 8.86 6.29 8.86 4.63 0 10.09-6.38 10.4-6.69.93 0 1.55 2.47 1.55 3.09-1.34 2.26-12.67 12.15-19.16 12.15-7.32 0-11.85-5.46-11.85-15 0-15.24 14.11-31.83 26-31.83m-12.67 23c4 0 11.85-7.52 11.85-15.14 0-1.85-.42-4-2.68-4-4.95 0-8.66 13.91-9.17 19.16M522.15 79c-14 0-29.37 18.44-29.37 35.24 0 11.39 5.84 18.46 15.26 18.46 8.37 0 20.52-11.16 22.1-13.84l.47-.8v-.93c0-1.74-1.17-6.51-5-6.51h-1.41l-1 1a3.46 3.46 0 00-.25.26c-3.65 4-6.45 5.43-7.74 5.43a2 2 0 01-2.06-1.19 8.83 8.83 0 01-.8-3.73 43.23 43.23 0 0013.07-4.86c7.44-4.24 11.54-9.8 11.54-15.65C537 84 531.17 79 522.15 79zm-7.68 19.29a29 29 0 013.44-7.81 13.16 13.16 0 01-3.44 7.81z" class="cls-4"/><path d="M178.63 130.69h-26.84l-.48-1c-.69-1.37 0-4.56.95-5.69l.45-.53.89-.07c3.71-.3 4.73-.77 5-1 1-1.92 1.63-5.24 2.34-9.07l7.42-37.93.3-1.6a29.76 29.76 0 00.89-7.06 14.86 14.86 0 00-4-.61l-1.42-.12-.4-.94c-.65-1.52.33-4.67 1.08-5.58l.56-.67.88.06c4.16.3 9.54.3 13.47.3 1.82 0 3.92-.06 6.13-.13 2.61-.08 5.57-.17 8.6-.17 6.64 0 12.24 2.18 15.36 6 2.64 3.22 3.48 7.36 2.49 12.33-1.38 6.9-7.13 11.55-11.2 13.86a18.59 18.59 0 016.9 5.81 15.54 15.54 0 012.62 12.3c-1.37 6.92-6.65 13.59-14.12 17.85-5.66 3.21-11.93 3.66-17.87 3.66zm-2.09-8.15a13.21 13.21 0 004.21.37c4 0 9.38-3.33 11.2-12.73 1-5.12.52-9.39-1.39-11.72-1.28-1.56-3.17-2.32-5.79-2.32h-3.54l-4.16 21.59v.25a18.77 18.77 0 00-.53 4.56zm9.05-33.83c4.15 0 7.53-4 8.84-10.58s.36-9.34-.6-10.5a3.61 3.61 0 00-3-1.16c-2.62 0-3.42.25-3.62.46a18.39 18.39 0 00-1.1 4.18c-.09.48-.2 1-.31 1.52l-3.1 16.08z"/><path d="M194.45 60.64c8.86 0 18.55 4.33 16.18 16.28-1.65 8.24-10.3 13-13.09 14-.82.31-.72.62-.61.62 4.63.62 14.11 6.59 12 17.31-1.34 6.8-6.59 12.87-13.29 16.69-5.32 3-11.15 3.43-17.06 3.43h-25.8a5.84 5.84 0 01.72-3.82c1.24-.1 5.77-.41 6.5-1.75 1.13-2.06 1.75-5.25 2.57-9.68L170 75.79c.82-4.43 1.54-7.63 1.13-9.69-.2-1.34-4.63-1.54-5.87-1.65a6.31 6.31 0 01.82-3.81c4.23.31 9.58.31 13.6.31s9.17-.31 14.73-.31m-13.8 29.78h4.94c4.74 0 9-4.23 10.51-12 1.86-9.79-.41-13.71-5.25-13.71-2.16 0-4.33.11-5 1.24s-1 3.3-1.65 6.28l-3.5 18.14m.1 34.2c4.43 0 10.82-3.5 12.88-14.12 1.55-7.72.21-16.07-8.86-16.07h-4.94l-4.43 23c-.11.62-.93 4.74-.42 6s3.3 1.24 5.77 1.24m-16.14-67.51l-1.12 1.35c-1.16 1.4-2.26 5.18-1.34 7.34l.81 1.89 2.05.17h.4c1.11.08 1.89.17 2.43.25a54.12 54.12 0 01-.86 5.4c-.1.52-.2 1.06-.31 1.62L159.27 113a46.15 46.15 0 01-1.93 8.1 20.14 20.14 0 01-3.88.58h-.19l-1.4.12-.91 1.06c-1.37 1.6-2.18 5.55-1.18 7.56l1 1.95 2.18-.06c1.06 0 3.22-.05 6.43-.05h19.27c6.17 0 12.71-.47 18.74-3.87 7.91-4.51 13.5-11.61 15-19a17.2 17.2 0 00-2.9-13.64 20 20 0 00-5-4.85c3.78-2.62 8.29-7 9.58-13.44 1.35-6.85-.8-11.26-2.85-13.75-3.45-4.2-9.53-6.61-16.68-6.61-3.06 0-6 .09-8.65.17-2.2.07-4.29.14-6.08.14-3.9 0-9.25 0-13.35-.3l-1.75-.13zm23.9 11.18a17.26 17.26 0 012.33-.11c1.22 0 1.54.39 1.67.54.37.45 1.49 2.44.23 9.11-1.11 5.56-3.92 9.17-7.16 9.17h-.8l2.71-14.07c.11-.49.21-1 .3-1.48.24-1.19.48-2.41.72-3.16zm-5.88 29.56h2.13c2.07 0 3.54.55 4.47 1.69 1.56 1.9 1.95 5.75 1 10.29-2.14 11.06-8.78 11.37-9.53 11.37-1.13 0-1.92 0-2.47-.07.07-.63.19-1.54.43-2.84v-.25l3.89-20.19z" class="cls-4"/><path d="M219.8 131.17c-6.05 0-8.2-4.86-8.2-9a45.24 45.24 0 011-6.6l8.74-44.93c.1-.61.24-1.35.39-2.08.2-1 .43-2.13.49-2.78-.38-.2-1.48-.53-4.57-.53h-.85l-.51-.68c-.92-1.22-.3-4.35.57-5.22l.44-.43.61-.06A123.84 123.84 0 00236 55.33l.76-.28.7.42c1.19.72 1.44 2.26 1.44 3.42s-1.1 6.77-1.37 8.08l-9.47 48.4c-.11.66-.38 2.7-.38 3.07a1.32 1.32 0 000 .36c1.45-.63 4.79-4.17 5.52-5.32l.47-.94 1 .07c2.32 0 3.15 3.7 3.15 4.49v.42l-.2.38c-1.75 3.41-11.24 13.27-17.82 13.27z"/><path d="M236.59 56.93c.52.31.62 1.34.62 2 0 .83-.83 5.26-1.34 7.73L226.39 115c-.1.62-.41 2.88-.41 3.4 0 .92.41 2.16 1.44 2.16 2.27 0 7-5.67 7.32-6.28.72 0 1.44 2.16 1.44 2.78-1.75 3.3-10.82 12.36-16.38 12.36-3.4 0-6.49-2.06-6.49-7.31a45 45 0 01.92-6.19l8.76-45a54.33 54.33 0 00.93-5.46c0-2-4.64-2-6.29-2a4.39 4.39 0 01.42-3 123 123 0 0018.54-3.61m.36-3.76l-1.53.56a122.36 122.36 0 01-17.68 3.41l-1.23.11-.88.88c-1.36 1.36-2.26 5.4-.73 7.45l1 1.36h1.7a25.78 25.78 0 012.63.11c-.07.4-.15.81-.22 1.16-.15.71-.29 1.44-.41 2.13l-8.73 44.9a44.83 44.83 0 00-1 6.91c0 4.24 1.63 6.73 3 8.06a9.75 9.75 0 006.91 2.67c3.31 0 7.29-1.94 11.82-5.75 3.35-2.83 6.4-6.21 7.57-8.43l.4-.75v-.85c0-1.37-1.16-6.2-4.85-6.2h-2.11l-.87 1.73a21.26 21.26 0 01-1.83 2.1l9.29-47.46s1.4-6.77 1.4-8.38c0-2.91-1.24-4.26-2.27-4.88l-1.4-.84z" class="cls-4"/><path d="M272.7 131.17c-6.05 0-8.2-4.86-8.2-9a16.9 16.9 0 01.17-1.85c-5 6.28-11.15 10.87-14.53 10.87-7.57 0-8.2-5.22-8.2-10.57 0-3.12 1.17-9.13 1.8-12.35l.19-1c.26-1.36.51-2.52.73-3.62.49-2.3.9-4.3 1.32-7.12V96.36c.1-.4.45-2.59.46-3a1.12 1.12 0 00-.07-.38c-1.41.53-4.86 4.18-5.59 5.35l-.47.94-1-.07c-2.33 0-3.15-3.7-3.15-4.49v-.42l.2-.38c1.7-3.2 10.86-13.27 17.48-13.27 5.23 0 8.61 3.54 8.61 9a48.52 48.52 0 01-1 6.52c-.2 1.19-2.29 11.8-2.37 12.25l-.22 1.24c-.27 1.53-1 5.57-1 6.27a1.49 1.49 0 000 .33c2.51-1.66 9.92-14.41 12.34-26.33l1.8-8.06 1-.29a35.67 35.67 0 016.26-.69 43.21 43.21 0 016.49.67l1.56.39-6.31 33.41c-.1.5-.38 2.69-.38 3.09a1.32 1.32 0 000 .36c1.45-.63 4.79-4.17 5.52-5.32l.47-.94 1 .07c2.32 0 3.15 3.7 3.15 4.49v.42l-.2.38c-1.79 3.41-11.28 13.27-17.86 13.27z"/><path d="M253.85 82.38c4.12 0 6.9 2.58 6.9 7.31a48.31 48.31 0 01-.93 6.19c-.2 1.23-2.37 12.26-2.37 12.26-.2 1.23-1.23 6.79-1.23 7.82s.51 2.17 1.64 2.17c3 0 11.54-15.15 14.12-27.82l1.44-7.11a36.39 36.39 0 015.77-.61 43.33 43.33 0 016.08.61l-6 31.84c-.1.51-.41 2.88-.41 3.4 0 .92.41 2.16 1.44 2.16 2.27 0 7-5.67 7.32-6.28.72 0 1.44 2.16 1.44 2.78-1.75 3.3-10.82 12.36-16.38 12.36-3.4 0-6.49-2.06-6.49-7.31a44.35 44.35 0 01.72-5.15c.41-2.17.93-4.33 1.24-5.46-3.92 8.34-13.6 17.92-18 17.92-5.26 0-6.49-2.57-6.49-8.86 0-3.3 1.44-10.3 1.95-13 .83-4.22 1.45-6.59 2.06-10.82a31.47 31.47 0 00.52-3.4c0-.92-.52-2.16-1.55-2.16-2.26 0-7 5.67-7.31 6.28-.72 0-1.44-2.16-1.44-2.78 1.75-3.29 10.4-12.36 16-12.36m0-3.41c-7.52 0-17 10.53-19 14.17l-.4.75v.85c0 1.37 1.17 6.2 4.86 6.2h2.11l.86-1.73a20.37 20.37 0 011.89-2.16c-.38 2.4-.75 4.21-1.19 6.29-.23 1.1-.47 2.27-.74 3.63l-.18 1c-.89 4.54-1.84 9.64-1.84 12.67 0 4 0 12.28 9.91 12.28 3.76 0 8.63-3.59 12.88-8.15a10 10 0 002.77 5.48 9.75 9.75 0 006.91 2.67c7.66 0 17.52-10.65 19.39-14.18l.4-.75v-.85c0-1.37-1.16-6.2-4.85-6.2h-2.11l-.87 1.73a21.62 21.62 0 01-1.84 2.12l5.8-30.92.6-3.16-3.12-.78a44.74 44.74 0 00-6.91-.72 37.31 37.31 0 00-6.75.76l-2 .59-.41 2-1.44 7.1a71.38 71.38 0 01-8 20.39c.1-.55.17-1 .22-1.26.26-1.33 2.12-10.8 2.37-12.25a46.12 46.12 0 001-6.81C264.16 83.28 260 79 253.85 79z" class="cls-4"/><path d="M305.56 131c-8.36 0-13.56-6.42-13.56-16.75 0-16 14.48-33.54 27.67-33.54 6.07 0 13.14 2.93 13.14 11.19 0 5.21-3.79 10.24-10.67 14.17a39.68 39.68 0 01-13.91 4.85v1c0 3.27.8 7.16 4.58 7.16 2.22 0 5.59-2.24 9-6l.2-.21.5-.5h.7c2.65 0 3.26 4.17 3.26 4.8v.46l-.24.41c-1.59 2.56-13.38 12.96-20.67 12.96zm10.61-43.1c-2.55 0-5.88 8.56-7.09 15 3.3-1.87 8.06-7.18 8.06-12.72 0-2.28-.65-2.28-.97-2.28z"/><path d="M319.67 82.38c5.26 0 11.44 2.27 11.44 9.48 0 10.61-18 17.41-24.42 17.41a19.19 19.19 0 00-.2 2.57c0 3.82 1.13 8.86 6.28 8.86 4.64 0 10.1-6.38 10.4-6.69.93 0 1.55 2.47 1.55 3.09-1.34 2.26-12.67 12.15-19.16 12.15-7.32 0-11.85-5.46-11.85-15 0-15.24 14.11-31.83 26-31.83m-12.67 23c4 0 11.85-7.52 11.85-15.14 0-1.85-.41-4-2.68-4-4.95 0-8.65 13.91-9.17 19.16M319.67 79c-14 0-29.37 18.44-29.37 35.24 0 11.39 5.84 18.46 15.26 18.46 8.37 0 20.52-11.16 22.1-13.84l.47-.8v-.93c0-1.74-1.17-6.51-5-6.51h-1.41l-1 1a3.46 3.46 0 00-.25.26c-3.65 4-6.45 5.43-7.74 5.43a2 2 0 01-2.06-1.19 8.83 8.83 0 01-.8-3.73 43.28 43.28 0 0013.13-4.88c7.43-4.24 11.53-9.8 11.53-15.65C334.52 84 328.69 79 319.67 79zM312 98.26a28.7 28.7 0 013.43-7.81 13.2 13.2 0 01-3.43 7.81z" class="cls-4"/><path d="M353 129.81c-.71-1.42.15-4.63 1.06-5.68l.45-.54h.7c3.86-.33 5-.93 5.19-1.07 1-1.93 1.63-5.25 2.34-9.08l7.42-37.93.3-1.59c.58-3.07 1.05-5.54.89-7.07a15 15 0 00-4-.61l-1.42-.12-.4-.94c-.65-1.52.32-4.67 1.08-5.58l.56-.67.88.06c4.16.3 9.54.3 13.47.3 1.81 0 3.9-.06 6.11-.13 2.63-.08 5.62-.17 8.72-.17 6.57 0 12.47 2.59 16.2 7.13a17.75 17.75 0 013.61 15c-2.46 12.87-15.39 19.82-26.3 19.82a9.07 9.07 0 01-5.76-1.81L384 99a4.33 4.33 0 01-1.17-1.68L379.55 114l-.3 1.62c-.59 3.08-1.06 5.56-.89 7.08a14 14 0 004.29.82l1 .08.4.95c.59 1.37-.08 4.49-1 5.57l-.59.71-.91-.11c-3.49-.39-9.38-.71-13.41-.71s-9.77.31-13.52.72l-1.18.12zm31.78-37l.27.09a7.07 7.07 0 002.55.32c3.8 0 9.48-5.26 10.69-11.4 1.08-5.66.37-10.85-1.86-13.54a4.67 4.67 0 00-3.78-1.83c-2.62 0-3.42.25-3.62.46a17.84 17.84 0 00-1.1 4.19c-.1.47-.2 1-.31 1.51L383.63 93a2 2 0 01.84-.19z"/><path d="M396.32 60.64c11.95 0 20.29 9.07 18.13 20.09-2.37 12.36-14.94 18.44-24.63 18.44a7.43 7.43 0 01-4.82-1.54 5 5 0 01-1-2.37.7.7 0 01.52-.72 8.58 8.58 0 003.09.41c4.74 0 11-6 12.36-12.78 1.75-9.16-.93-17.41-7.31-17.41-2.17 0-4.33.11-5.05 1.24s-1 3.3-1.65 6.28l-8 41.42c-.82 4.43-1.54 7.62-1.13 9.68.21 1.34 4.53 1.75 5.77 1.86a6.23 6.23 0 01-.72 3.81c-3.61-.41-9.58-.72-13.6-.72s-9.89.31-13.7.72a5.91 5.91 0 01.82-3.81c1.24-.11 5.77-.52 6.49-1.86 1.14-2.06 1.75-5.25 2.58-9.68l7.42-37.91c.82-4.43 1.54-7.63 1.13-9.69-.21-1.34-4.64-1.54-5.87-1.65a6.31 6.31 0 01.82-3.81c4.22.31 9.58.31 13.6.31s9.17-.31 14.84-.31m-29.94-3.53l-1.12 1.35c-1.17 1.39-2.27 5.18-1.34 7.34l.81 1.89 2 .17h.41c1.11.08 1.89.17 2.43.25a54.07 54.07 0 01-.87 5.4c-.09.52-.2 1.06-.3 1.62L361 113a47.15 47.15 0 01-1.94 8.13 18.68 18.68 0 01-4.06.66l-1.4.12-.91 1.07c-1.26 1.46-2.38 5.37-1.28 7.56l1.06 2.12 2.36-.26c3.7-.4 9.43-.7 13.33-.7s9.78.31 13.21.7l1.83.21 1.18-1.41c1.15-1.38 2.15-5.21 1.24-7.35l-.81-1.89-2-.17a21.69 21.69 0 01-2.74-.37 55.36 55.36 0 01.87-5.51c.1-.52.21-1.07.31-1.63l2.57-13.28a11 11 0 006 1.62c11.6 0 25.34-7.44 28-21.22a19.45 19.45 0 00-4-16.39 22.4 22.4 0 00-17.51-7.75c-3.13 0-6.14.09-8.79.17-2.19.07-4.27.14-6 .14-3.9 0-9.25 0-13.35-.3l-1.75-.13zm23.9 11.18a17.26 17.26 0 012.33-.11 3 3 0 012.47 1.21c1.88 2.27 2.46 7 1.49 12.14-1.09 5.52-6.23 10-9 10a5.41 5.41 0 01-1.87-.19l3.57-18.41c.1-.49.21-1 .3-1.47.24-1.19.48-2.42.72-3.17z" class="cls-4"/></svg>