<?xml version="1.0" encoding="UTF-8"?>
<svg width="120px" height="117px" viewBox="0 0 120 117" version="1.1" xmlns="http://www.w3.org/2000/svg" xmlns:xlink="http://www.w3.org/1999/xlink">
    <!-- Generator: sketchtool 55.2 (78181) - https://sketchapp.com -->
    <title>9AF464B9-557B-47F3-AF4D-1E1AA270AFCB</title>
    <desc>Created with sketchtool.</desc>
    <g id="v7" stroke="none" stroke-width="1" fill="none" fill-rule="evenodd">
        <g id="Mobile-Nav---Open" transform="translate(-128.000000, -58.000000)" fill="#221E1F">
            <g id="falafel-inc-logo---med" transform="translate(128.000000, 58.000000)">
                <path d="M52.4788,0.2019 L55.0558,6.0689 C55.1168,6.2049 55.2508,6.2839 55.3998,6.2679 L61.7728,5.6059 C61.9208,5.5899 62.0558,5.6689 62.1168,5.8049 C62.1758,5.9409 62.1428,6.0929 62.0328,6.1919 L57.2498,10.4559 C57.1378,10.5559 57.1048,10.7079 57.1658,10.8449 L59.7648,16.7009 C59.8258,16.8369 59.7918,16.9899 59.6808,17.0889 C59.5708,17.1879 59.4158,17.2039 59.2868,17.1289 L53.7528,13.8969 C53.6248,13.8229 53.4688,13.8379 53.3588,13.9379 L48.5918,18.2199 C48.4808,18.3189 48.3258,18.3349 48.1978,18.2609 C48.0688,18.1849 48.0058,18.0429 48.0378,17.8979 L49.4008,11.6369 C49.4328,11.4909 49.3698,11.3479 49.2408,11.2729 L43.6948,8.0629 C43.5658,7.9889 43.5018,7.8459 43.5348,7.7009 C43.5658,7.5549 43.6818,7.4509 43.8308,7.4359 L50.2058,6.7979 C50.3538,6.7839 50.4708,6.6789 50.5008,6.5329 L51.8408,0.2669 C51.8728,0.1209 51.9888,0.0169 52.1358,0.0019 C52.2848,-0.0131 52.4188,0.0659 52.4788,0.2019" id="Fill-1"></path>
                <path d="M73.0764,3.2805 L73.1024,8.4755 C73.1024,8.5965 73.1784,8.6985 73.2934,8.7355 L78.2484,10.2965 C78.3634,10.3325 78.4384,10.4345 78.43941,10.5555 C78.4404,10.6755 78.3664,10.7785 78.2524,10.8165 L73.3194,12.4475 C73.2054,12.4855 73.1314,12.5885 73.1324,12.7085 L73.1794,17.9035 C73.1804,18.0245 73.1054,18.1275 72.9914,18.1655 C72.8774,18.2035 72.7564,18.1655 72.6844,18.0685 L69.6094,13.8805 C69.5384,13.7835 69.4174,13.7445 69.3034,13.7835 L64.3774,15.4325 C64.2634,15.4705 64.1414,15.4325 64.0694,15.3355 C63.9984,15.2385 63.9984,15.1125 64.0674,15.0135 L67.1004,10.7955 C67.1714,10.6975 67.1704,10.5715 67.0974,10.4735 L64.0074,6.2985 C63.9344,6.2015 63.9334,6.0745 64.0044,5.9765 C64.0744,5.8785 64.1944,5.8385 64.3094,5.8755 L69.2594,7.4555 C69.3734,7.4925 69.4944,7.4525 69.5644,7.3535 L72.5804,3.1235 C72.6504,3.0255 72.7704,2.9855 72.8854,3.0215 C73.0004,3.0585 73.0754,3.1605 73.0764,3.2805" id="Fill-3"></path>
                <path d="M32.4436,8.2341 L33.7796,13.2551 C33.8106,13.3711 33.7646,13.4891 33.6636,13.5551 L29.2916,16.3601 C29.1896,16.4251 29.1436,16.5441 29.1736,16.6601 C29.2056,16.7761 29.3026,16.8571 29.4226,16.8631 L34.6116,17.1441 C34.7316,17.1501 34.8306,17.2311 34.8606,17.3471 L36.1776,22.3731 C36.2086,22.4891 36.3056,22.5691 36.4266,22.5761 C36.5476,22.5831 36.6536,22.5141 36.6976,22.4011 L38.5666,17.5541 C38.6106,17.4421 38.7166,17.3731 38.8386,17.3801 L44.0236,17.6811 C44.1446,17.6881 44.2516,17.6191 44.2946,17.5061 C44.3386,17.3941 44.3056,17.2721 44.2126,17.1961 L40.1796,13.9201 C40.0866,13.8431 40.0536,13.7211 40.0976,13.6091 L41.9866,8.7691 C42.0306,8.6561 41.9986,8.5341 41.9046,8.4581 C41.8106,8.3811 41.6846,8.3751 41.5836,8.4401 L37.2216,11.2621 C37.1206,11.3281 36.9936,11.3201 36.9006,11.2441 L32.8806,7.9521 C32.7876,7.8761 32.6616,7.8691 32.5596,7.9341 C32.4586,8.0001 32.4126,8.1181 32.4436,8.2341" id="Fill-5"></path>
                <path d="M88.0217,10.4323 L87.2917,14.6163 C87.2747,14.7133 87.3207,14.8073 87.4077,14.8523 L91.1687,16.8263 C91.2557,16.8713 91.3017,16.9643 91.2857,17.0613 C91.2687,17.1593 91.1937,17.2313 91.0967,17.2443 L86.8917,17.8433 C86.7937,17.8573 86.7187,17.9293 86.7027,18.0263 L85.9887,22.2133 C85.9717,22.3103 85.8977,22.3833 85.7997,22.3973 C85.7027,22.4113 85.6107,22.3623 85.5677,22.2743 L83.6997,18.4593 C83.6557,18.3713 83.5637,18.3233 83.4657,18.3373 L79.2637,18.9513 C79.1667,18.9653 79.0747,18.9173 79.0307,18.8293 C78.9877,18.7403 79.0047,18.6383 79.0757,18.5703 L82.1257,15.6143 C82.1977,15.5453 82.2147,15.4433 82.1707,15.3553 L80.2887,11.5483 C80.2447,11.4593 80.2617,11.3573 80.3327,11.2883 C80.4037,11.2203 80.5057,11.2053 80.5927,11.2513 L84.3457,13.2393 C84.4337,13.2853 84.5367,13.2703 84.6067,13.2013 L87.6457,10.2343 C87.7157,10.1653 87.8187,10.1503 87.9057,10.1963 C87.9937,10.2423 88.0387,10.3353 88.0217,10.4323" id="Fill-7"></path>
                <path d="M12.0549,45.5871 C14.1369,39.6081 17.2919,34.1311 21.2909,29.3891 L19.3419,29.6331 C18.7619,29.7051 18.1909,29.6151 17.6809,29.3931 C13.8309,34.3761 10.8309,40.0481 8.8969,46.1931 C9.0569,46.1471 9.2169,46.1031 9.3789,46.0611 L9.4379,46.0461 C10.2969,45.8411 11.1729,45.6801 12.0549,45.5871" id="Fill-9"></path>
                <path d="M26.094,42.5368 C32.983,30.6518 45.841,22.6588 60.567,22.6588 C76.175,22.6588 89.686,31.6398 96.213,44.7168 C97.202,44.4758 98.221,44.3648 99.226,44.4598 C92.437,29.9138 77.679,19.8338 60.567,19.8338 C43.382,19.8338 28.572,29.9998 21.822,44.6448 C22.316,44.3418 22.784,43.9928 23.174,43.6818 C24.028,43.0008 25.028,42.5848 26.094,42.5368" id="Fill-11"></path>
                <path d="M89.9905,20.3815 C96.7105,25.0875 102.2505,31.3605 106.0815,38.6715 C106.2655,38.4375 106.4625,38.2125 106.6715,37.9975 C107.1455,37.5075 107.6775,37.1025 108.2575,36.7835 C104.5605,29.9365 99.4325,23.9755 93.2735,19.3025 C92.8035,19.7575 92.1935,20.0685 91.5115,20.1655 L89.9905,20.3815 Z" id="Fill-13"></path>
                <path d="M20.1565,19.3249 L21.9585,23.1709 C22.0005,23.2609 21.9805,23.3619 21.9085,23.4289 L18.7975,26.3209 C18.7245,26.3869 18.7045,26.4899 18.7465,26.5779 C18.7885,26.6679 18.8795,26.7179 18.9765,26.7059 L23.1915,26.1789 C23.2895,26.1669 23.3805,26.2179 23.4215,26.3069 L25.2095,30.1599 C25.2515,30.2489 25.3415,30.2999 25.4385,30.2869 C25.5375,30.2759 25.6125,30.2049 25.6315,30.1079 L26.4335,25.9369 C26.4525,25.8399 26.5275,25.7689 26.6265,25.7579 L30.8425,25.2479 C30.9405,25.2359 31.0155,25.1649 31.0355,25.0679 C31.0535,24.9719 31.0105,24.8779 30.9235,24.8299 L27.2045,22.7789 C27.1185,22.7309 27.0745,22.6369 27.0935,22.5399 L27.9115,18.3719 C27.9295,18.2759 27.8865,18.1819 27.8005,18.1339 C27.7145,18.0859 27.6115,18.0989 27.5395,18.1659 L24.4385,21.0689 C24.3675,21.1369 24.2635,21.1489 24.1775,21.1009 L20.4675,19.0349 C20.3805,18.9869 20.2775,18.9999 20.2055,19.0669 C20.1345,19.1339 20.1145,19.2359 20.1565,19.3249" id="Fill-15"></path>
                <path d="M54.4016,74.8786 C54.3926,74.7466 54.4106,74.5916 54.4536,74.4146 C54.4996,74.2376 54.5766,74.0636 54.6926,73.8936 C54.8086,73.7206 54.9696,73.5666 55.1726,73.4286 C55.3756,73.2886 55.6326,73.1916 55.9466,73.1346 C56.1416,73.0996 56.3276,73.0886 56.5036,73.1046 C56.6786,73.1176 56.8366,73.1596 56.9726,73.2326 C57.1056,73.3036 57.2176,73.4116 57.3036,73.5526 C57.3896,73.6976 57.4406,73.8756 57.4556,74.0866 C57.4696,74.2836 57.4516,74.4796 57.4046,74.6756 C57.3566,74.8706 57.2706,75.0526 57.1466,75.2246 C57.0216,75.3926 56.8636,75.5396 56.6656,75.6646 C56.4676,75.7936 56.2266,75.8806 55.9416,75.9326 C55.4506,76.0226 55.0766,75.9676 54.8236,75.7706 C54.5716,75.5756 54.4296,75.2776 54.4016,74.8786" id="Fill-17"></path>
                <path d="M69.134,83.1965 C68.616,83.2905 68.155,83.2765 67.747,83.1515 C67.342,83.0285 66.996,82.8275 66.705,82.5475 C66.657,82.5005 66.611,82.4525 66.566,82.4025 L66.453,82.4865 C65.768,83.0025 65.339,83.3185 65.163,83.4305 C64.74,83.7115 64.476,83.8755 64.371,83.9215 C64.096,84.0635 63.807,84.1635 63.495,84.2195 C63.185,84.2765 62.91,84.0945 62.665,83.6785 C62.423,83.2625 62.269,82.6185 62.207,81.7455 C62.182,81.3995 62.178,81.0225 62.194,80.6155 C62.211,80.2095 62.238,79.7705 62.272,79.2985 L62.136,79.3225 L60.252,84.1905 C60.152,84.4525 60.036,84.6365 59.907,84.7405 C59.773,84.8505 59.614,84.9245 59.43,84.9575 C59.2,84.9995 59.01,84.9835 58.862,84.9085 C58.717,84.8345 58.598,84.7195 58.511,84.5665 C58.424,84.4095 58.359,84.2285 58.318,84.0185 C58.303,83.9415 58.289,83.8635 58.279,83.7835 C58.221,83.8395 58.162,83.8965 58.101,83.9545 C57.815,84.2265 57.506,84.4805 57.168,84.7265 C56.833,84.9715 56.49,85.1845 56.137,85.3715 C55.783,85.5565 55.443,85.6805 55.118,85.7395 C54.824,85.7935 54.577,85.7965 54.372,85.7475 C54.168,85.7015 53.999,85.6135 53.864,85.4865 C53.731,85.3625 53.628,85.1935 53.562,84.9885 C53.491,84.7845 53.448,84.5515 53.43,84.2945 C53.405,83.9335 53.415,83.5075 53.458,83.0125 C53.548,81.9865 53.61,81.4075 53.646,81.2765 C53.706,81.0185 53.821,80.4485 53.99,79.5715 C54.155,78.8465 54.252,78.3805 54.289,78.1625 C54.305,78.0145 54.373,77.8685 54.491,77.7285 C54.602,77.6015 54.725,77.4895 54.866,77.3965 C55.008,77.3015 55.157,77.2245 55.313,77.1635 C55.466,77.1035 55.609,77.0625 55.736,77.0395 C55.965,76.9975 56.126,77.0125 56.216,77.0885 C56.306,77.1645 56.355,77.2775 56.365,77.4265 C56.375,77.5555 56.359,77.7395 56.318,77.9795 C56.277,78.2205 56.23,78.4935 56.178,78.8005 C56.124,79.1075 56.042,79.5085 55.932,79.9975 C55.818,80.4875 55.748,80.9005 55.72,81.2355 C55.692,81.5705 55.648,81.9045 55.591,82.2415 C55.533,82.5785 55.514,82.8795 55.532,83.1405 C55.551,83.3985 55.594,83.5955 55.659,83.7385 C55.728,83.8775 55.845,83.9325 56.021,83.9015 C56.222,83.8645 56.441,83.7535 56.678,83.5655 C56.915,83.3765 57.154,83.1575 57.392,82.9065 C57.627,82.6595 57.859,82.4035 58.085,82.1425 L58.206,82.0025 C58.218,81.5075 58.236,80.9635 58.259,80.3705 C58.282,79.7635 58.322,79.2155 58.371,78.7225 C58.421,78.2335 58.476,77.8105 58.529,77.4555 C58.571,77.1815 58.675,76.9395 58.838,76.7285 C59,76.5185 59.236,76.3855 59.537,76.3315 C59.84,76.2765 60.056,76.3325 60.188,76.5015 C60.32,76.6715 60.395,76.9125 60.417,77.2265 C60.423,77.3145 60.423,77.4295 60.415,77.5795 C60.409,77.7295 60.401,77.8945 60.387,78.0755 C60.376,78.2555 60.361,78.4395 60.349,78.6315 C60.332,78.8215 60.322,79.0405 60.313,79.2825 C60.304,79.5245 60.297,79.7065 60.287,79.8275 C60.28,79.9475 60.276,80.0285 60.279,80.0695 L60.448,80.0385 C60.476,79.9685 60.523,79.8595 60.585,79.7055 C60.65,79.5505 60.719,79.3335 60.794,79.0525 C60.87,78.7715 60.957,78.5175 61.052,78.2935 C61.147,78.0705 61.237,77.8555 61.319,77.6545 C61.4,77.4485 61.475,77.2695 61.544,77.1105 C61.612,76.9525 61.664,76.8365 61.697,76.7595 C61.856,76.4155 62.045,76.1675 62.27,76.0105 C62.491,75.8555 62.743,75.7495 63.025,75.6985 C63.301,75.6485 63.531,75.7285 63.712,75.9395 C63.894,76.1535 63.997,76.4695 64.028,76.8945 C64.032,76.9595 64.029,77.0665 64.013,77.2215 C64.001,77.3745 63.982,77.5565 63.956,77.7715 C63.934,77.9845 63.909,78.2585 63.887,78.5955 C63.864,78.9315 63.842,79.2305 63.823,79.4975 C63.801,79.7625 63.788,80.0235 63.783,80.2795 C63.775,80.5365 63.78,80.7705 63.795,80.9845 C63.821,81.3395 63.884,81.6245 63.988,81.8415 C64.093,82.0535 64.237,82.1425 64.423,82.1095 C64.488,82.0975 64.582,82.0535 64.702,81.9815 C64.884,81.8775 64.997,81.7945 65.043,81.7355 C65.276,81.4945 65.399,81.3765 65.41,81.3805 C65.426,81.3835 65.574,81.2615 65.857,81.0135 C65.79,80.7585 65.746,80.4925 65.727,80.2155 C65.703,79.8845 65.733,79.4745 65.811,78.9885 C65.89,78.5055 65.982,78.0785 66.09,77.7055 C66.196,77.3355 66.337,76.9745 66.511,76.6255 C66.68,76.2735 66.888,75.9575 67.127,75.6705 C67.365,75.3855 67.637,75.1465 67.943,74.9485 C68.246,74.7515 68.589,74.6175 68.966,74.5495 C69.305,74.4875 69.622,74.4805 69.917,74.5285 C70.214,74.5775 70.469,74.6715 70.689,74.8125 C70.905,74.9515 71.081,75.1335 71.213,75.3595 C71.349,75.5805 71.425,75.8315 71.446,76.1135 C71.459,76.3095 71.447,76.5045 71.405,76.7055 C71.364,76.9025 71.274,77.1445 71.134,77.4285 C70.994,77.7125 70.854,77.9125 70.711,78.0305 C70.571,78.1515 70.405,78.2265 70.218,78.2595 C69.936,78.3115 69.747,78.2745 69.656,78.1455 C69.502,77.9475 69.448,77.7555 69.485,77.5765 C69.495,77.4795 69.529,77.2595 69.589,76.9135 C69.597,76.8645 69.593,76.7605 69.575,76.6005 C69.566,76.4625 69.543,76.3515 69.511,76.2645 C69.476,76.1795 69.411,76.1435 69.317,76.1605 C69.09,76.2015 68.898,76.2935 68.745,76.4335 C68.592,76.5745 68.464,76.7455 68.365,76.9475 C68.263,77.1475 68.169,77.4235 68.083,77.7745 C67.994,78.1235 67.937,78.4125 67.904,78.6445 C67.874,78.8785 67.86,79.0945 67.863,79.3015 C67.866,79.5065 67.872,79.6775 67.882,79.8155 C67.898,80.0235 67.93,80.2345 67.983,80.4505 C68.033,80.6675 68.119,80.8595 68.242,81.0275 C68.364,81.1925 68.514,81.3225 68.696,81.4145 C68.876,81.5065 69.102,81.5275 69.375,81.4775 C69.646,81.4285 69.936,81.2895 70.249,81.0645 C70.565,80.8345 70.874,80.5615 71.187,80.2435 C71.495,79.9255 71.789,79.5845 72.063,79.2235 C72.34,78.8585 72.575,78.5215 72.768,78.2075 L73.42,79.0985 C73.044,79.7875 72.626,80.4185 72.174,80.9885 C71.979,81.2345 71.769,81.4745 71.538,81.7155 C71.308,81.9525 71.065,82.1755 70.808,82.3735 C70.552,82.5735 70.284,82.7475 70.001,82.8965 C69.717,83.0435 69.43,83.1425 69.134,83.1965" id="Fill-19"></path>
                <path d="M82.2141,72.3239 C82.1761,72.8619 82.1071,73.4009 81.9851,73.9259 C81.8901,74.3299 81.7491,74.7739 81.5101,75.1179 L81.4931,75.1409 C81.3241,75.3539 81.0901,75.5149 80.8051,75.4569 C80.3921,75.3709 80.2811,74.9299 80.2401,74.5729 C80.1641,73.9249 80.1671,73.2439 80.1921,72.5919 C80.2201,71.8039 80.2861,71.0169 80.3901,70.2349 C80.4591,69.7149 80.5581,69.0129 80.7651,68.5249 C80.8441,68.3129 81.0041,68.1469 81.2371,68.1119 C81.5981,68.0589 81.8011,68.3449 81.8821,68.6479 C82.0441,69.2529 82.1471,69.8719 82.1991,70.4959 C82.2491,71.1039 82.2581,71.7159 82.2141,72.3239 L82.2141,72.3239 Z M81.9971,57.7879 C82.1271,56.9049 83.3461,51.7819 83.4971,50.9009 C83.6381,50.0889 83.8031,49.2809 83.9781,48.4749 C84.1511,47.6789 84.3541,46.8869 84.6061,46.1019 C84.7891,45.5619 85.3061,43.8929 86.1811,44.3679 C86.8571,44.7349 86.5381,46.0619 86.4081,46.6439 C86.2491,47.3539 86.0521,48.0589 85.8381,48.7549 C84.9411,51.6679 82.7161,58.1319 81.6351,60.2599 L81.9971,57.7879 Z M66.3411,56.3339 C65.9941,57.2279 65.7441,58.1619 65.5591,59.1139 C65.2901,60.3359 64.9551,61.5479 64.5391,62.7289 C64.2061,63.6719 63.8241,64.6369 63.3451,65.5159 C63.0781,66.0019 62.6441,66.7319 62.1191,66.9699 C61.2771,67.3519 60.9661,66.3379 60.8781,65.7239 C60.7561,64.8849 60.8501,63.9699 61.0021,63.1399 C61.1921,62.1099 61.4641,61.0979 61.8191,60.1129 C62.2301,58.9759 62.9151,57.2999 63.8471,56.4889 C64.4361,55.9759 65.1781,55.5569 65.9851,55.7009 L66.5481,55.8029 L66.3411,56.3339 Z M33.6631,61.1759 C33.3161,62.0699 33.0671,63.0039 32.8811,63.9549 C32.6111,65.1779 32.2771,66.3889 31.8601,67.5709 C31.5281,68.5129 31.1471,69.4799 30.6661,70.3569 C30.4011,70.8439 29.9651,71.5739 29.4411,71.8119 C28.5981,72.1939 28.2881,71.1789 28.1991,70.5659 C28.0781,69.7269 28.1711,68.8119 28.3241,67.9819 C28.5131,66.9519 28.7861,65.9399 29.1411,64.9549 C29.5521,63.8169 30.2361,62.1419 31.1691,61.3299 C31.7581,60.8179 32.5001,60.3989 33.3081,60.5429 L33.8701,60.6439 L33.6631,61.1759 Z M94.2771,57.2989 C94.3521,56.5929 94.5451,55.8599 94.7471,55.1789 C94.9971,54.3419 95.3211,53.5299 95.7241,52.7529 C96.0881,52.0499 96.5331,51.3729 97.0841,50.7999 C97.5941,50.2709 98.2331,49.9299 98.9831,50.0159 L99.0031,50.0179 L99.0231,50.0219 C99.8051,50.1819 99.7501,51.1169 99.6351,51.7169 C99.4721,52.5639 99.1421,53.3939 98.7611,54.1649 C98.3231,55.0479 97.7681,55.8589 97.1001,56.5829 C96.3001,57.4489 95.4081,58.0059 94.2371,57.6639 L94.2771,57.2989 Z M119.2261,51.8519 C119.1451,51.8059 118.8641,51.8359 118.7771,51.8489 C118.4241,51.9019 117.9691,52.0069 117.6841,52.2359 C117.3871,52.4719 117.1451,52.9889 117.0021,53.3369 C116.8191,53.8729 116.6191,54.4049 116.4071,54.9309 C116.1771,55.4989 115.9121,56.0529 115.6111,56.6009 C115.4361,56.9029 115.2451,57.1979 115.0541,57.4909 C114.8091,57.8629 114.5271,58.2089 114.2091,58.5229 C113.9131,58.8139 113.5851,59.0779 113.2211,59.2809 C112.8141,59.5079 112.3701,59.5509 111.9461,59.3499 C111.4351,59.1459 111.1681,58.7119 111.1561,58.1639 C111.1491,57.7939 111.1611,57.4219 111.2051,57.0539 C111.2751,55.9249 111.4041,54.7939 111.5631,53.6729 C111.7421,52.4029 111.9411,51.1349 112.1581,49.8709 C112.3761,48.6039 112.6111,47.3399 112.8651,46.0789 C113.0901,44.9579 113.3251,43.8339 113.6001,42.7229 C113.7401,42.1549 113.8421,41.5649 113.8531,40.9779 C113.8601,40.5699 113.8021,40.1359 113.5901,39.7779 C113.4091,39.4739 113.1491,39.2799 112.8181,39.1609 C112.3551,38.9969 111.7241,39.0689 111.2531,39.1599 C110.5511,39.2959 109.9461,39.6029 109.4481,40.1169 C108.8921,40.6909 108.4791,41.3839 108.1661,42.1279 C107.2401,45.5829 107.3141,45.4049 106.4471,48.6359 C106.1611,50.0909 105.9201,51.5529 105.7181,53.0219 C105.6201,53.7369 105.5341,54.4539 105.4631,55.1719 L105.4561,55.2419 L105.4281,55.3069 C104.8871,56.5989 104.2441,57.8539 103.4721,59.0239 C102.6621,60.2479 101.6331,61.2789 100.4231,62.1349 C99.8001,62.5419 99.1351,62.8819 98.4311,63.1219 C97.7841,63.3429 97.0981,63.4279 96.4281,63.2589 C95.7301,63.0819 95.2081,62.6159 94.8271,62.0179 C94.3321,61.2399 94.1941,60.1739 94.1651,59.2689 L94.1521,58.8549 C94.4121,58.9829 96.3601,59.7049 98.7281,58.7129 C99.4891,58.3929 100.1731,57.9299 100.7801,57.3729 C101.4241,56.7839 101.9191,56.0829 102.2821,55.2909 C102.7261,54.3229 102.9131,53.3039 102.8641,52.2409 C102.8171,51.2189 102.5651,50.2509 102.0331,49.3869 C101.5151,48.6339 100.7931,48.1459 99.9371,47.8409 C98.8421,47.4509 97.5501,47.7019 96.4701,48.0639 C95.1441,48.4649 94.0011,49.1879 93.0241,50.1659 C91.9921,51.1959 91.1301,52.3599 90.4501,53.6479 C89.7721,54.9309 89.2831,56.2899 89.0241,57.7199 L88.9771,57.9709 L88.9611,58.0139 C88.8281,58.3579 88.6971,58.7029 88.5661,59.0479 C88.3491,59.6199 88.0891,60.1759 87.8011,60.7009 C87.3861,61.5079 86.8501,62.2859 86.1441,62.8629 C85.1521,63.6739 81.3531,63.7169 82.1701,62.2649 C84.7201,57.7369 86.6511,50.6269 87.2671,48.6579 C87.6941,47.2909 88.0241,45.8829 88.1881,44.4589 C88.3151,43.3559 88.3381,42.1759 88.0991,41.0849 C87.9231,40.2939 87.5861,39.5509 86.9641,39.0109 C86.3401,38.4679 85.5171,38.3409 84.7141,38.3799 C83.8021,38.4239 83.0111,38.7569 82.3441,39.3829 C79.3751,42.1719 77.6471,52.4909 76.7911,56.4209 C76.4901,57.8069 76.2311,59.0359 76.0851,59.8209 C75.9811,60.3869 75.8801,60.9539 75.7841,61.5219 L75.7741,61.5819 L75.7491,61.6369 C75.6061,61.9529 75.4501,62.2629 75.2781,62.5769 C74.9981,63.0569 74.6901,63.5199 74.3551,63.9629 C73.9991,64.4329 73.5631,64.8189 73.0441,65.0979 C72.6631,65.3449 72.2241,65.4969 71.7671,65.3959 C71.1961,65.2689 70.9471,64.7389 70.8521,64.2109 L70.8451,64.1719 L70.8441,64.1319 C70.8371,63.4139 70.9011,62.6869 70.9881,61.9739 C71.0891,61.1709 71.2051,60.3689 71.3371,59.5699 C71.4611,58.8159 71.5851,58.0629 71.7111,57.3089 C71.8061,56.7429 71.8941,56.1619 71.9351,55.5649 C72.0241,54.8149 71.9431,54.0579 71.4821,53.4359 C71.0371,52.8359 70.2871,52.8189 69.5941,52.9439 C68.7881,53.0619 68.1461,53.5119 67.6201,54.1179 L67.3181,54.4669 L66.9641,54.1719 C66.5511,53.8279 66.0881,53.5729 65.5741,53.4129 C65.0581,53.2519 64.5271,53.1879 63.9871,53.2209 C63.4181,53.2559 62.8591,53.3659 62.3161,53.5429 C61.7701,53.7199 61.2591,53.9739 60.7811,54.3079 C60.0511,54.7989 59.3981,55.3929 58.8181,56.0539 C58.1991,56.7609 57.6411,57.5179 57.1491,58.3179 C56.6581,59.1139 56.2501,59.9549 55.9321,60.8329 C55.7881,61.2249 55.6621,61.6249 55.5541,62.0289 L55.5421,62.0729 L55.5231,62.1149 C55.4651,62.2309 55.4131,62.3489 55.3641,62.4689 C55.1811,63.0059 54.9811,63.5379 54.7691,64.0639 C54.5391,64.6319 54.2741,65.1859 53.9741,65.7329 C53.7981,66.0349 53.6081,66.3309 53.4151,66.6239 C53.1701,66.9959 52.8881,67.3419 52.5701,67.6549 C52.2761,67.9469 51.9461,68.2109 51.5831,68.4139 C51.1751,68.6409 50.7331,68.6839 50.3091,68.4829 C49.7961,68.2789 49.5291,67.8449 49.5181,67.2969 C49.5111,66.9269 49.5231,66.5539 49.5681,66.1879 C49.6361,65.0569 49.7671,63.9269 49.9251,62.8059 C50.1041,61.5349 50.3031,60.2679 50.5201,59.0039 C50.7371,57.7369 53.0561,48.6059 53.3091,47.3459 C53.5341,46.2239 53.7701,45.1009 54.0441,43.9899 C54.1841,43.4219 54.2861,42.8309 54.2961,42.2449 C54.3031,41.8359 54.2451,41.4029 54.0341,41.0449 C53.8541,40.7409 53.5931,40.5469 53.2611,40.4279 C52.7991,40.2629 52.1681,40.3369 51.6971,40.4269 C50.9951,40.5619 50.3911,40.8699 49.8921,41.3839 C48.1091,43.2249 44.5661,58.6169 44.0801,62.1549 C43.9691,62.9669 43.8731,63.7799 43.7961,64.5959 L43.7891,64.6609 L43.7671,64.7219 C43.6351,65.0619 43.5051,65.4019 43.3771,65.7429 C43.1591,66.3159 42.9001,66.8709 42.6001,67.4189 C42.3201,67.8989 42.0111,68.3619 41.6761,68.8049 C41.3201,69.2749 40.8841,69.6599 40.3661,69.9399 C39.9851,70.1869 39.5461,70.3389 39.0891,70.2379 C38.5191,70.1109 38.2701,69.5809 38.1731,69.0529 L38.1661,69.0139 L38.1661,68.9739 C38.1581,68.2559 38.2221,67.5279 38.3111,66.8169 C38.4111,66.0129 38.5261,65.2109 38.6581,64.4119 C38.7821,63.6579 38.9071,62.9049 39.0331,62.1509 C39.1271,61.5849 39.2151,61.0029 39.2571,60.4069 C39.3461,59.6569 39.2651,58.8999 38.8041,58.2779 C38.3591,57.6779 37.6091,57.6599 36.9161,57.7849 C36.1101,57.9049 35.4681,58.3529 34.9421,58.9599 L34.6401,59.3089 L34.2851,59.0129 C33.8721,58.6699 33.4091,58.4149 32.8961,58.2549 C32.3791,58.0939 31.8501,58.0299 31.3091,58.0629 C30.7391,58.0979 30.1801,58.2079 29.6381,58.3849 C29.0921,58.5619 28.5811,58.8159 28.1031,59.1499 C27.3721,59.6409 26.7191,60.2339 26.1401,60.8959 C25.5211,61.6019 24.9631,62.3609 24.4701,63.1599 C23.9811,63.9549 23.5721,64.7969 23.2531,65.6749 C22.9521,66.5029 22.7221,67.3569 22.5961,68.2189 C22.4481,69.3939 22.3961,70.5839 22.4811,71.7659 C22.5471,72.6969 22.7301,73.6629 23.1371,74.5099 C23.4621,75.1859 23.9361,75.7209 24.6021,76.0699 C25.3501,76.4619 26.2721,76.3839 27.0641,76.1929 C28.1071,75.9429 29.0151,75.4549 29.7621,74.6829 C30.5661,73.8519 31.1731,72.8609 31.6311,71.8029 L32.1741,70.5479 L32.5171,71.8719 C32.7731,72.8579 33.2651,74.1419 34.2901,74.5569 C35.2741,74.9539 36.3651,74.8719 37.3631,74.6169 C39.6611,73.9249 41.4581,72.5089 42.8681,70.5799 C42.9421,70.4799 43.0131,70.3799 43.0831,70.2789 L43.6671,69.4329 L43.9251,70.4279 C44.0531,70.9239 44.2401,71.4089 44.5131,71.8439 C44.8771,72.4239 45.3801,72.8049 46.0331,73.0079 C46.8701,73.2669 47.8701,73.1149 48.6961,72.8859 C51.0161,72.2409 52.8281,70.8289 54.2421,68.8949 C54.3561,68.7399 54.4661,68.5829 54.5721,68.4229 L55.1551,67.5579 L55.4171,68.5679 C55.5161,68.9449 55.6461,69.3159 55.8151,69.6669 C56.1411,70.3439 56.6131,70.8789 57.2801,71.2279 C58.0271,71.6189 58.9491,71.5419 59.7421,71.3519 C60.7851,71.1009 61.6931,70.6129 62.4411,69.8409 C63.2441,69.0099 63.8511,68.0189 64.3091,66.9609 L64.8521,65.7059 L65.1951,67.0299 C65.4501,68.0159 65.9431,69.2999 66.9691,69.7149 C67.9521,70.1129 69.0441,70.0299 70.0421,69.7759 C71.5941,69.3069 72.9471,68.4989 74.1191,67.3789 L75.0291,66.5079 L74.9121,67.7619 C74.8171,68.7799 74.7571,69.8029 74.7141,70.8239 C74.6521,72.3129 74.7241,73.8079 74.9761,75.2779 C75.1771,76.4509 75.5651,77.6329 76.2871,78.5939 C76.9511,79.4769 77.9341,79.6229 78.9611,79.4709 C80.2371,79.2529 81.3331,78.7019 82.0891,77.6329 C82.8451,76.5649 83.3481,75.3759 83.6281,74.0999 C83.9111,72.8089 84.0221,71.4919 83.9301,70.1719 C83.8631,69.2209 83.7481,68.0979 83.4411,67.1909 L83.2061,66.5029 L83.9311,66.5729 C84.6611,66.6429 85.3441,66.5129 85.9751,66.1349 C86.6591,65.7229 87.2401,65.1769 87.7341,64.5509 C88.0701,64.1219 88.3781,63.6709 88.6581,63.2029 L89.1151,62.4389 L89.4881,63.2479 C89.7411,63.7959 90.0841,64.2979 90.5531,64.6839 C91.3681,65.3539 92.2981,65.7829 93.3361,65.9779 C94.0831,66.1179 94.8521,66.1399 95.6091,66.0899 C96.3841,66.0379 97.1521,65.8989 97.9041,65.6479 C100.0391,65.0089 101.8571,63.7799 103.4051,62.1959 C103.8501,61.7409 104.2631,61.2569 104.6461,60.7499 L105.2741,59.9179 L105.4811,60.9389 C105.6081,61.5579 105.8141,62.1739 106.1511,62.7109 C106.5151,63.2899 107.0191,63.6729 107.6711,63.8749 C108.5081,64.1339 109.5091,63.9819 110.3341,63.7519 C112.6531,63.1079 114.4671,61.6959 115.8811,59.7609 C116.5411,58.8579 117.1051,57.8639 117.6081,56.8639 C118.1181,55.8469 118.5821,54.7919 118.9321,53.7209 C119.0271,53.3999 119.1161,53.0779 119.1991,52.7539 C119.2571,52.5299 119.3041,52.2749 119.2901,52.0429 C119.2861,51.9829 119.2761,51.8899 119.2261,51.8519 L119.2261,51.8519 Z" id="Fill-21"></path>
                <path d="M10.2893,67.7766 C10.2713,67.9436 10.2513,68.1116 10.2273,68.2776 C10.2063,68.4206 10.1853,68.5586 10.1653,68.6926 C10.0833,69.4666 9.6903,71.8776 9.2333,74.1276 L9.2253,74.1666 L9.2173,74.2066 C9.0973,74.7926 8.9733,75.3666 8.8493,75.8966 C8.7033,76.3506 8.5073,76.7046 8.2253,76.7426 C6.6713,76.9526 7.8013,74.9646 7.2913,74.2976 C6.5933,73.3796 4.9773,73.6596 4.5113,75.4016 C4.0153,77.2556 5.4403,79.0356 7.4643,79.3206 C7.5493,79.3326 7.6343,79.3426 7.7193,79.3506 C10.2653,79.5896 13.0203,78.0266 14.6933,75.8286 C15.6473,74.5746 16.2423,71.7866 16.3733,70.1796 C16.6173,67.1766 16.9813,66.6256 19.0393,66.1276 C19.7653,65.9516 20.7013,65.7816 21.9183,65.5126 C22.1673,65.4576 22.3503,65.3086 22.4913,65.1046 C22.6723,64.8456 22.7563,64.5656 22.7373,64.2496 C22.7203,63.9556 22.6323,63.6816 22.4173,63.4726 C22.2593,63.3186 22.0913,63.2356 21.8683,63.2686 C20.5733,63.4606 17.9883,64.4186 18.2783,63.1526 C18.5413,62.0096 18.8473,60.8776 19.1933,59.7566 C19.5373,58.6466 19.8023,57.5136 19.9903,56.3666 L20.0573,55.9596 L20.4693,55.9736 C21.4343,56.0036 22.3983,55.9416 23.3533,55.7996 C24.2543,55.6666 25.1233,55.3966 25.9203,54.9526 C26.6883,54.5236 27.2913,53.9136 27.7533,53.1656 C28.3153,52.2536 28.5193,51.1146 28.5683,50.0586 C28.6013,49.3086 28.5213,48.5516 28.2753,47.8396 C28.0863,47.2926 27.8083,46.7436 27.3883,46.3356 C27.0743,46.0296 26.7073,45.8086 26.2683,45.7516 C25.8453,45.6966 25.4753,45.8746 25.1483,46.1336 C23.9563,47.0856 22.5163,48.0346 21.0253,48.4326 C19.8603,48.7446 17.6263,49.0616 16.4183,49.0326 C15.2483,49.0046 15.1143,48.8036 13.9463,48.7406 C12.6193,48.6686 11.2473,48.8736 9.9673,49.1796 C8.4073,49.5816 6.9693,50.2726 5.6593,51.2116 C4.3283,52.1656 3.1863,53.3186 2.2523,54.6636 C1.3373,55.9796 0.6733,57.4226 0.2913,58.9796 C-0.0837,60.5106 -0.0947,62.0626 0.2473,63.6016 C0.4423,64.4806 0.7803,65.5126 1.4033,66.1896 C1.8403,66.6656 2.3703,67.0506 3.0113,67.1906 C3.6163,67.3216 4.2083,67.2556 4.7873,67.0386 C5.4193,66.8006 5.9713,66.4386 6.4403,65.9646 C6.7993,65.5876 7.0873,65.1576 7.3103,64.6876 C7.5213,64.2366 7.6633,63.7606 7.7033,63.2636 C7.7383,62.8136 7.6793,62.3786 7.5133,61.9596 C7.3433,61.5316 7.0473,61.1906 6.6853,60.9126 C6.2963,60.6126 5.9413,60.2656 5.6163,59.8996 C5.2483,59.4866 4.9763,59.0126 4.8243,58.4796 C4.6703,57.9416 4.6613,57.3896 4.7773,56.8416 C4.9213,56.1656 5.3723,55.6086 5.8793,55.1596 C6.3883,54.7106 6.9893,54.4236 7.6483,54.2716 C8.3543,54.1076 9.0863,54.0686 9.8093,54.1176 C10.5933,54.1726 11.3753,54.2766 12.1483,54.4146 C12.9683,54.5616 13.7813,54.7336 14.5903,54.9286 L15.5003,55.1506 L14.7783,55.7476 C13.8943,56.4806 13.1973,57.3686 12.6803,58.3936 C12.0873,59.5686 11.6643,60.8386 11.3533,62.1156 C11.2563,62.5196 11.1653,62.9246 11.0743,63.3296 C10.9803,63.7526 10.8883,64.1766 10.7983,64.6006 L10.7293,64.9186 L10.0133,65.0256 C9.7513,65.0646 9.5683,65.2066 9.4243,65.4266 C9.2413,65.7036 9.1773,66.0106 9.1963,66.3396 C9.2103,66.5846 9.2733,66.8236 9.4323,67.0156 C9.5473,67.1546 9.6813,67.2426 9.8633,67.2596 L10.3393,67.3006 L10.2893,67.7766 Z" id="Fill-23"></path>
                <path d="M84.3762,108.2868 C84.1812,108.3748 83.9512,108.3488 83.8142,108.1928 C83.6072,108.7258 83.1282,108.9578 82.5562,108.9708 C82.1312,108.9798 81.6822,108.9088 81.3402,108.6378 C81.0112,108.3748 80.6232,107.6588 80.4312,107.2848 C79.8792,106.2108 79.0362,104.1808 79.3492,102.9998 C79.5422,102.2678 80.1452,101.9838 80.8462,102.0658 L80.7912,101.9438 C80.6892,101.7188 80.5682,101.4928 80.4552,101.2728 C80.1782,100.7358 79.9112,100.1978 79.7382,99.6158 C79.6652,99.3678 79.8262,99.1068 80.0672,99.0308 C80.2942,98.9588 80.5682,99.0788 80.6452,99.3088 C80.8212,99.8428 81.0382,100.3278 81.2982,100.8268 C81.4232,101.0658 81.5432,101.3068 81.6582,101.5508 C82.6242,103.6008 83.6002,105.6468 84.6062,107.6768 C84.7202,107.9068 84.6052,108.1828 84.3762,108.2868 L84.3762,108.2868 Z M80.0602,110.2688 C79.8262,110.6428 79.1052,110.8848 78.6822,110.8468 C78.1752,110.7998 77.7542,110.2228 77.5062,109.8288 C76.8252,108.7488 76.1882,107.2228 75.8342,105.9928 C75.7202,105.5968 75.5492,104.9028 75.6492,104.4928 C75.7152,104.2248 75.8462,103.9758 76.0872,103.8278 C76.1692,103.7778 76.2722,103.7388 76.3622,103.7038 L76.5822,103.6168 C76.7252,103.5608 76.8642,103.5648 76.9992,103.6368 C77.1132,103.6338 77.3872,103.6818 77.4802,103.7188 C77.6452,103.7828 77.8312,103.9568 77.9532,104.0798 C78.5052,104.6348 79.2032,106.2228 79.5142,106.9778 C79.7562,107.5708 79.9592,108.1788 80.1052,108.8028 C80.2062,109.2338 80.3082,109.8698 80.0602,110.2688 L80.0602,110.2688 Z M75.8422,111.6788 C75.5732,112.0288 74.8312,112.1978 74.4142,112.1178 C73.9142,112.0208 73.5532,111.4058 73.3452,110.9888 C72.7742,109.8478 72.2902,108.2648 72.0602,107.0058 C71.9852,106.6008 71.8842,105.8928 72.0232,105.4958 C72.1152,105.2358 72.2712,104.9998 72.5252,104.8768 C72.6112,104.8348 72.7192,104.8068 72.8122,104.7808 L73.0392,104.7158 C73.1872,104.6738 73.3252,104.6928 73.4522,104.7768 C73.5662,104.7858 73.8332,104.8598 73.9232,104.9058 C74.0792,104.9858 74.2482,105.1778 74.3572,105.3118 C74.8532,105.9188 75.3902,107.5678 75.6242,108.3498 C75.8082,108.9638 75.9482,109.5888 76.0322,110.2238 C76.0912,110.6638 76.1292,111.3058 75.8422,111.6788 L75.8422,111.6788 Z M71.8722,113.6638 C71.6272,113.7078 71.3712,113.5638 71.3252,113.3088 L71.2642,112.9638 C70.6442,113.3698 69.5102,113.2988 69.0002,112.7618 C68.4202,112.1508 68.0502,110.2588 67.8892,109.4408 C67.7162,108.5668 67.5892,107.6808 67.4622,106.7998 C67.4242,106.5368 67.3812,106.2758 67.3372,106.0128 C67.1872,105.1148 66.9342,103.9058 67.6832,103.1998 C68.0352,102.8668 68.6392,102.7978 69.0982,102.8838 C69.7502,103.0048 70.2572,103.4178 70.5282,104.0228 C70.7502,104.5168 70.8312,105.1848 70.8782,105.7208 C70.8992,105.9788 70.6772,106.1788 70.4332,106.2078 C70.1802,106.2378 69.9452,106.0538 69.9242,105.7978 C69.8592,104.9928 69.7972,103.8568 68.7822,103.7518 C68.6522,103.7378 68.4612,103.7258 68.3562,103.8218 C67.9552,104.1908 68.1972,105.3828 68.2742,105.8468 C68.3182,106.1098 68.3622,106.3708 68.4002,106.6358 C68.5262,107.5108 68.6522,108.3908 68.8232,109.2578 C68.9382,109.8328 69.3252,111.7428 69.7252,112.1618 C69.9382,112.3848 70.7192,112.4518 70.8522,112.0718 C70.8442,112.0238 70.8422,111.9738 70.8412,111.9258 L70.8322,111.4538 C70.8152,110.6188 70.6542,109.6978 70.5212,108.8708 C70.5012,108.7488 70.4852,108.6128 70.4552,108.4918 C70.4032,108.4888 70.3542,108.4948 70.3052,108.5148 C70.2212,108.5478 70.1142,108.5868 70.0272,108.6068 C69.6732,108.6848 69.3082,108.5108 69.3622,108.0918 C69.3842,107.9208 69.4812,107.8108 69.6252,107.7218 C69.6852,107.6848 69.7482,107.6518 69.8132,107.6298 C69.9372,107.5878 70.0662,107.5558 70.1942,107.5338 C70.3112,107.5128 70.4362,107.4848 70.5542,107.4838 C70.6092,107.4828 70.6692,107.4768 70.7242,107.4818 C70.8272,107.4918 70.9392,107.5068 71.0282,107.5638 C71.1902,107.6678 71.2722,107.8308 71.3162,108.0128 C71.3412,108.0568 71.3492,108.1048 71.3572,108.1538 L71.3722,108.2348 C71.5212,109.0618 71.7362,109.8718 71.8762,110.7058 C71.9352,111.0578 71.9932,111.4088 72.0462,111.7608 C72.1162,112.2208 72.1822,112.6838 72.2632,113.1418 C72.3092,113.3958 72.1182,113.6198 71.8722,113.6638 L71.8722,113.6638 Z M63.6522,107.9558 C62.9322,107.8458 62.8292,108.4468 62.8042,109.0338 C62.7922,109.1588 62.7962,109.2848 62.7992,109.4088 C62.8202,109.6648 62.8412,109.9178 62.8482,110.1738 L62.9232,110.8008 C62.9602,111.0338 62.9942,111.2818 63.0002,111.5158 C63.0222,111.8968 63.0432,112.2768 63.0612,112.6568 C63.0682,112.8358 63.0832,113.0388 63.0722,113.2158 L63.0742,113.3058 C63.0842,113.3568 63.1072,113.4388 63.1092,113.4888 C63.1162,113.7738 63.0472,114.0018 62.7512,114.1048 C62.5982,114.1588 62.4482,114.1228 62.3132,114.0438 C62.0482,113.9048 61.9862,113.6628 62.0372,113.3798 C62.0802,113.2008 62.0842,113.1778 62.0402,112.9858 C62.0272,112.8968 62.0252,112.7878 62.0032,112.6968 C61.9782,112.4298 61.9632,112.1678 61.9682,111.8998 L61.9492,111.1618 L61.8962,110.1908 C61.8762,109.9618 61.8552,109.7328 61.8492,109.5048 C61.7922,108.7948 61.7072,108.0248 61.6892,107.3138 C61.6842,107.0598 61.8862,106.8498 62.1402,106.8438 C62.3842,106.8378 62.6352,107.0018 62.6412,107.2628 L62.6422,107.2728 C62.9872,107.0568 63.3892,107.0148 63.7942,107.0628 C64.0442,107.0998 64.2462,107.3158 64.2012,107.5758 C64.1562,107.8308 63.9062,107.9948 63.6522,107.9558 L63.6522,107.9558 Z M60.9002,111.0948 C60.8942,111.7278 60.8552,112.3828 60.7342,113.0038 C60.6672,113.4488 60.5092,114.0638 60.1192,114.3378 C59.7602,114.5908 58.9962,114.5388 58.6262,114.3318 C58.1742,114.0988 58.0152,113.3918 57.9402,112.9358 C57.7352,111.6768 57.7432,110.0218 57.8972,108.7508 C57.9472,108.3428 58.0612,107.6368 58.3132,107.2988 C58.4782,107.0778 58.6962,106.8988 58.9762,106.8568 C59.0702,106.8428 59.1822,106.8478 59.2772,106.8498 L59.5142,106.8558 C59.6672,106.8598 59.7942,106.9178 59.8902,107.0368 C59.9962,107.0788 60.2302,107.2298 60.3022,107.2998 C60.4272,107.4228 60.5312,107.6568 60.5962,107.8168 C60.8872,108.5438 60.9102,110.2778 60.9002,111.0948 L60.9002,111.0948 Z M57.7032,105.7968 L57.6882,105.9828 C57.6712,106.0398 57.6662,106.0918 57.6612,106.1508 L57.6552,106.2328 C57.6352,106.4918 57.3762,106.6438 57.1332,106.6248 C56.8812,106.6058 56.6892,106.3858 56.7072,106.1328 L56.7142,106.0508 C56.7182,105.9908 56.7252,105.9388 56.7412,105.8858 L56.7802,105.3748 C56.7362,105.1708 56.5822,104.9218 56.3742,104.8438 C56.3502,104.8308 56.3102,104.8128 56.2812,104.8238 C56.2222,104.8458 56.1672,104.9648 56.1442,105.0188 C55.9872,105.3768 55.8882,105.8858 55.8572,106.2748 C55.8392,106.5248 55.8232,106.7738 55.8152,107.0258 C55.8092,107.2688 55.7932,107.5108 55.7752,107.7538 L55.7512,108.0748 C55.9392,108.0828 56.1852,108.0598 56.3692,108.0538 C56.6132,108.0578 56.8612,108.2168 56.8762,108.4768 C56.8922,108.7378 56.6782,108.9268 56.4272,108.9508 C56.1962,108.9558 55.9172,108.9748 55.6832,108.9628 C55.5632,110.4018 55.4612,111.9108 55.5132,113.3558 C55.5102,113.6098 55.3032,113.8158 55.0472,113.810889 C54.8032,113.8068 54.5572,113.6328 54.5562,113.3718 C54.5542,112.7518 54.5362,112.1198 54.5642,111.4998 C54.5942,110.8668 54.6322,110.2278 54.6802,109.5958 L54.8252,107.6818 C54.8422,107.4578 54.8552,107.2358 54.8612,107.0128 C54.8702,106.7418 54.8882,106.4728 54.9082,106.2028 C54.9442,105.7278 55.0552,105.1068 55.2502,104.6718 C55.5252,104.0548 56.1312,103.7518 56.7682,104.0298 C57.2442,104.2368 57.6322,104.7198 57.7152,105.2328 C57.7502,105.3928 57.7242,105.6378 57.7032,105.7968 L57.7032,105.7968 Z M51.0792,106.5448 C51.0222,106.7948 50.7572,106.9268 50.5152,106.8708 C50.3672,106.8368 50.2212,106.8048 50.0712,106.7798 C49.9912,107.2118 49.8892,107.6468 49.8002,108.0778 C49.6312,108.8978 49.4102,109.6918 49.1762,110.4948 C49.0172,111.0428 48.8272,111.6408 48.7552,112.2078 C48.7222,112.4618 48.4782,112.6328 48.2272,112.5898 C47.9842,112.5488 47.7722,112.3398 47.8072,112.0828 C47.8882,111.4808 48.0782,110.8618 48.2482,110.2778 C48.4792,109.4858 48.6982,108.7018 48.8642,107.8928 C48.9532,107.4628 49.0582,107.0288 49.1362,106.5978 C48.9662,106.5678 48.7982,106.5318 48.6302,106.4928 C48.3882,106.4368 48.2082,106.2028 48.2662,105.9518 C48.3232,105.7018 48.5882,105.5688 48.8302,105.6248 C48.9872,105.6618 49.1442,105.6968 49.3032,105.7238 C49.4372,105.0238 49.7252,104.3208 49.8132,103.6138 C49.8452,103.3598 50.0912,103.1888 50.3412,103.2318 C50.5832,103.2728 50.7942,103.4808 50.7622,103.7378 C50.6702,104.4638 50.3772,105.1858 50.2382,105.9048 C50.3982,105.9318 50.5572,105.9668 50.7152,106.0038 C50.9582,106.0598 51.1372,106.2938 51.0792,106.5448 L51.0792,106.5448 Z M47.0662,105.7628 C47.0752,105.8158 47.0592,105.8508 47.0562,105.8998 C47.0502,105.9878 47.0222,106.0798 46.9992,106.1638 L46.7812,106.9478 L46.6322,107.3888 C46.4922,107.8038 46.4202,108.2318 46.2802,108.6578 C46.0972,109.2178 45.8732,109.8498 45.7732,110.4308 C45.7532,110.5498 45.7212,110.7118 45.7182,110.8378 L45.7182,110.8378 C45.8962,111.0188 46.0352,111.1018 46.0002,111.3738 C45.9672,111.6348 45.7092,111.7868 45.4602,111.7428 C45.3282,111.7198 45.2242,111.6628 45.1442,111.5548 C45.1422,111.5528 45.1402,111.5498 45.1392,111.5478 L45.1302,111.5448 L45.0882,111.4938 C45.0712,111.4738 45.0512,111.4538 45.0332,111.4328 C44.8472,111.2308 44.7812,111.0598 44.7722,110.8168 L44.7142,110.8708 C44.0952,111.4478 43.3582,111.3638 42.8502,110.6918 C42.0992,109.6998 42.8342,107.4568 43.3592,106.4478 C43.7002,105.7928 44.1862,105.0938 44.8442,104.7258 C45.6282,104.2888 46.3552,104.4668 46.9982,105.0658 C47.1592,105.2168 47.1852,105.4868 47.0502,105.6618 L47.0662,105.7628 Z M41.9152,105.6868 C41.8022,105.6358 41.6502,105.5938 41.5312,105.5498 C41.2412,105.4448 40.9562,105.3278 40.6752,105.2008 L40.6662,105.1968 L40.1352,106.5458 L40.0172,106.8078 C39.9392,106.9768 39.8412,107.1428 39.7572,107.3098 C39.5542,107.7128 39.3382,108.1268 39.1662,108.5438 C39.1562,108.5678 39.1502,108.5938 39.1442,108.6188 C39.5422,108.7968 39.9332,108.9718 40.3402,109.1298 L40.8092,109.3118 C41.0452,109.4028 41.1672,109.6818 41.0622,109.9138 C40.9552,110.1498 40.6752,110.2128 40.4472,110.1248 L39.9912,109.9488 C39.5582,109.7818 39.1102,109.6038 38.6952,109.3928 C38.4762,109.2818 38.2302,109.1188 38.1482,108.8728 C38.1012,108.7288 38.1332,108.6178 38.1832,108.4808 C38.2212,108.3758 38.2482,108.2718 38.2922,108.1668 C38.4692,107.7438 38.6832,107.3238 38.8912,106.9138 C38.9712,106.7568 39.0642,106.5998 39.1372,106.4408 L39.2562,106.1778 C39.4292,105.7948 39.5832,105.3618 39.7372,104.9688 C40.2252,103.7318 40.7232,102.4728 41.2812,101.2658 C41.4082,100.9948 41.6792,100.3568 41.9112,100.1728 C42.3642,99.8148 43.0322,100.0348 43.4942,100.2588 C43.8842,100.4478 44.2522,100.6848 44.5832,100.9638 C44.7752,101.1238 44.8282,101.4088 44.6542,101.6028 C44.4822,101.7958 44.1862,101.7988 43.9912,101.6388 C43.7152,101.4128 43.4212,101.2118 43.0992,101.0568 C42.9482,100.9848 42.7952,100.9278 42.6332,100.8908 C42.6052,100.8838 42.5762,100.8808 42.5482,100.8858 L42.5422,100.8978 L42.5362,100.9038 C42.4972,100.9438 42.4642,101.0058 42.4382,101.0558 C42.3362,101.2518 42.2442,101.4588 42.1482,101.6598 C41.8702,102.2448 41.6162,102.8438 41.3752,103.4438 L41.0032,104.3698 C41.2842,104.4978 41.5692,104.6148 41.8592,104.7208 C41.9932,104.7688 42.1552,104.8158 42.2832,104.8728 C42.5092,104.9748 42.6392,105.2418 42.5332,105.4748 C42.4272,105.7108 42.1452,105.7898 41.9152,105.6868 L41.9152,105.6868 Z M111.7192,67.0418 C110.3282,82.8208 101.8022,96.5498 89.3872,104.9838 L84.2482,97.9398 C94.4782,91.0948 101.5812,79.9418 102.9612,67.0758 C102.0062,67.7318 100.9842,68.2858 99.8972,68.7168 C98.1282,79.9458 91.6662,89.6168 82.5822,95.6558 C78.4442,98.4058 73.7642,100.4028 68.7352,101.4518 C66.0932,101.9178 63.3702,102.1458 60.6192,102.1458 C57.5572,102.1458 54.5282,101.8608 51.6072,101.2778 C46.9002,100.1958 42.5132,98.2798 38.6072,95.6928 C32.6202,91.7268 27.7672,86.1848 24.6402,79.6598 C23.4662,79.5178 22.2442,79.2838 21.2592,79.0278 C24.5262,86.7798 30.0222,93.3628 36.9412,97.9768 L31.8032,105.0208 C23.5232,99.4128 16.9682,91.4518 13.0972,82.0978 C12.1962,82.2918 11.2112,82.5008 10.2852,82.6388 C11.6222,85.9688 13.2802,89.1358 15.2212,92.1008 C19.1462,98.0948 24.2272,103.2638 30.1472,107.2908 C38.8182,113.1878 49.2902,116.6338 60.5662,116.6338 C71.8672,116.6338 82.3592,113.1728 91.0422,107.2528 C99.4352,101.5298 106.1352,93.5088 110.2382,84.0958 C112.7302,78.3808 114.2632,72.1528 114.6372,65.6138 C113.7392,66.2028 112.7672,66.6828 111.7192,67.0418 L111.7192,67.0418 Z" id="Fill-25"></path>
                <path d="M46.096,105.4943 C45.854,105.3513 45.594,105.3493 45.343,105.4943 C44.401,106.0423 43.698,107.8533 43.533,108.9063 C43.482,109.2283 43.391,109.9143 43.602,110.1983 C43.771,110.4243 43.853,110.3793 44.056,110.2073 C44.816,109.5663 45.538,108.1253 45.71,107.1423 L45.744,106.9513 C45.797,106.6453 45.853,106.3263 45.932,106.0263 C45.942,105.9883 45.949,105.9453 45.956,105.9073 C45.989,105.7563 46.01,105.6193 46.096,105.4943" id="Fill-27"></path>
                <path d="M59.6272,107.9289 L59.5812,107.9069 L59.3442,107.7559 C59.3302,107.7539 59.3212,107.7499 59.3122,107.7419 L59.1582,107.7379 C59.1342,107.7619 59.1112,107.7919 59.0852,107.8139 C58.9562,107.9849 58.8742,108.6399 58.8482,108.8529 C58.7032,110.0159 58.6672,111.6449 58.8812,112.7919 C58.9092,112.9909 58.9542,113.2309 59.0402,113.4179 C59.0582,113.4659 59.0822,113.5339 59.1182,113.5749 C59.1982,113.6039 59.2872,113.6139 59.3722,113.6159 C59.4302,113.6169 59.4972,113.6199 59.5552,113.6109 C59.5952,113.5669 59.6222,113.4889 59.6412,113.4329 C59.7182,113.2509 59.7632,113.0359 59.8012,112.8429 C60.0112,111.7929 59.9752,110.3409 59.8922,109.2649 C59.8592,108.9569 59.8132,108.4209 59.7012,108.1329 L59.6272,107.9289 Z" id="Fill-29"></path>
                <path d="M73.4661,105.7072 L73.4151,105.6992 L73.1441,105.6252 C73.1311,105.6272 73.1211,105.6262 73.1101,105.6222 L72.9621,105.6642 C72.9451,105.6942 72.9291,105.7272 72.9151,105.7582 C72.8361,105.9432 72.9611,106.6232 72.9971,106.8212 C73.2051,107.9782 73.6601,109.5312 74.1991,110.5702 C74.2921,110.7492 74.4041,110.9662 74.5361,111.1202 C74.5691,111.1582 74.6151,111.2212 74.6591,111.2482 C74.7451,111.2532 74.8331,111.2342 74.9141,111.2112 C74.9701,111.1962 75.0341,111.1792 75.0871,111.1532 C75.1101,111.1012 75.1121,111.0102 75.1161,110.9592 C75.1301,110.7572 75.1151,110.5472 75.0941,110.3462 C74.9821,109.2812 74.5241,107.9032 74.1151,106.9032 C73.9901,106.5972 73.7991,106.1442 73.5981,105.8792 L73.4661,105.7072 Z" id="Fill-31"></path>
                <path d="M77.1048,104.5607 L77.0538,104.5577 L76.7768,104.5117 C76.7638,104.5147 76.7538,104.5147 76.7418,104.5117 L76.5988,104.5677 C76.5838,104.5997 76.5718,104.6337 76.5618,104.6657 C76.5008,104.8577 76.6938,105.5217 76.7488,105.7157 C77.0708,106.8477 77.6758,108.3467 78.3148,109.3287 C78.4248,109.4977 78.5588,109.7027 78.7048,109.8417 C78.7408,109.8757 78.7928,109.9347 78.8398,109.9567 C78.9248,109.9537 79.0108,109.9267 79.0898,109.8957 C79.1428,109.8747 79.2068,109.8517 79.2558,109.8197 C79.2738,109.7667 79.2678,109.6757 79.2658,109.6237 C79.2598,109.4217 79.2238,109.2147 79.1828,109.0167 C78.9658,107.9687 78.3748,106.6417 77.8698,105.6867 C77.7148,105.3947 77.4798,104.9617 77.2528,104.7197 L77.1048,104.5607 Z" id="Fill-33"></path>
                <path d="M80.6653,102.9577 C80.4293,102.9217 80.3303,102.9507 80.2643,103.1937 C80.0253,104.0637 80.8663,106.0397 81.2793,106.8507 C81.4093,107.1037 81.5443,107.3627 81.6993,107.6007 C81.9663,108.0097 82.0693,108.0877 82.5833,108.0797 C82.6703,108.0777 82.8023,108.0597 82.8743,108.0047 C82.9133,107.9747 82.9363,107.9187 82.9453,107.8717 C82.9973,107.6317 82.9133,107.2497 82.8573,107.0147 C82.5803,105.8487 81.6453,103.6817 80.6773,102.9687 L80.6663,102.9617 L80.6653,102.9577 Z" id="Fill-35"></path>
            </g>
        </g>
    </g>
</svg>