<svg xmlns="http://www.w3.org/2000/svg" height="800" width="1200" overflow="visible" viewBox="-68.90025 -16.30275 597.1355 97.8165"><path fill="none" d="M0 0h459.335v65.211H0z"/><path d="M80.731 46.723c0 13.715 1.055 14.003 3.165 14.003h5.371v2.59h-20.62v-2.59h3.932c1.055 0 1.918-.192 1.918-.961V17.853c0-10.933-.288-12.851-2.686-12.851h-5.659v-2.59h20.62v2.59h-3.836c-1.151 0-2.206 0-2.206.959m28.772 34.048c-3.357 8.345-5.755 15.729-5.755 18.319 0 .767.096 2.397 2.398 2.397h6.234v2.59h-19.47v-2.59c4.508 0 4.795 0 5.562-1.919L122.737 1.26c2.11-.67 4.316-1.055 4.987-1.055.384 0 .576.288.576.672 0 1.151-1.63.959-1.63 2.973 0 3.837 13.523 42.393 17.071 50.833 1.343 3.165 2.589 6.042 4.699 6.042h3.549v2.59h-19.757v-2.59h4.795c1.63 0 1.822-.192 1.822-.961 0-.767-3.836-11.604-6.809-19.756M121.971 9.797c-4.987 11.509-7.864 18.416-11.221 27.047h20.045zm40.147 2.303c0-3.453-.863-7.098-4.22-7.098h-4.315v-2.59h13.811l23.114 50.449 20.715-50.449h12.468v2.59h-3.836c-1.15 0-2.206 0-2.206.959v40.762c0 13.715 1.056 14.003 3.165 14.003h5.371v2.59h-20.62v-2.59h3.932c1.056 0 1.919-.192 1.919-.961V10.757l-.192-.192-21.867 52.079c-.096.287-.287.574-.479.574-.288 0-.479-.382-.671-.862l-22.73-50.544h-.192v34.911c0 13.715 1.054 14.003 3.165 14.003h5.371v2.59H156.27v-2.59h3.932c1.055 0 1.918-.192 1.918-.961M264.067 35.31h22.346v2.591h-3.834c-1.438 0-2.207 0-2.207.958V55.93c0 2.206 1.15 1.822 1.15 2.877 0 .768-.957 1.056-1.533 1.344-6.715 2.877-16.113 4.986-23.402 4.986-18.512 0-29.156-12.948-29.156-30.882 0-21.389 17.55-33.664 37.691-33.664 5.564 0 11.605.863 16.4 3.644l-1.15 5.947c-.096.767-.191 1.726-1.15 1.726-.479 0-.863-.479-.863-.959s.191-.863.191-1.343c0-2.014-6.33-6.139-15.633-6.139-9.207 0-28.965 4.7-28.965 29.925 0 20.045 12.949 28.58 25.99 28.58 4.891 0 9.881-1.055 14.195-2.974v-6.81c0-14.288-.383-14.288-3.74-14.288h-6.33M322.036.591c19.66 0 29.826 13.139 29.826 31.362 0 17.743-12.371 33.184-31.363 33.184-19.662 0-29.826-13.139-29.826-31.362 0-17.744 12.371-33.184 31.363-33.184m-1.726 2.876c-9.496 0-23.404 6.235-23.404 28.486 0 21.579 12.756 30.307 25.32 30.307 9.494 0 23.402-6.234 23.402-28.485 0-21.58-12.756-30.308-25.318-30.308zm32.222-1.055h20.621v2.59h-3.836c-1.152 0-2.207 0-2.207.959v40.762c0 13.428.672 13.428 3.934 13.428h6.139c4.699 0 18.99 0 20.908-4.699.191-.48.381-.96 1.053-.96.385 0 .674.288.674.672 0 .574-1.152 4.123-2.398 8.152h-42.391v-2.59h3.932c1.055 0 1.916-.192 1.916-.961V17.853c0-10.933-.287-12.851-2.686-12.851h-5.658m56.64 12.851c0-10.933-.285-12.851-2.684-12.851h-5.66v-2.59h28.967c19.66 0 29.539 14.099 29.539 29.444 0 12.372-7.193 31.459-31.555 31.459h-24.457v-2.59h3.932c1.057 0 1.918-.192 1.918-.961m6.236-13.041c0 13.428.67 13.428 3.932 13.428h7.865c8.248 0 25.607-1.632 25.607-26.088 0-24.553-20.141-28.485-24.84-28.485h-9.018c-1.822 0-3.547 0-3.547.96v40.185z" fill="#A6965F"/><path fill="#A6965F" clip-rule="evenodd" fill-rule="evenodd" d="M2.431 22.512v2.736l.986-.808m1.48-1.121l-2.466-4.215v2.062l1.704 2.691m2.422-1.614l-4.126-8.118v3.453l3.184 5.247m2.556-1.524L3.104 11.254l-.673.268v.808l4.888 9.419m2.646-1.391L5.301 10.133l-1.3.717 4.933 10.047m3.05-1.48L7.543 9.147l-1.345.627 4.574 10.181m3.185-1.346L9.876 8.159l-1.436.628 4.351 10.271m3.14-1.211L12.253 7.263l-1.481.538 4.082 10.45m2.826-1.032L14.585 6.455l-1.39.494 3.587 10.629m2.736-.897L17.186 5.692l-1.659.538 3.094 10.72m2.782-.851l-1.75-11.035-1.569.405 2.332 10.943m2.96-.852l-.852-11.079-1.839.404L22.3 15.874m2.96-.718l-.135-11.078-1.615.269.762 10.988m2.916-.627l.718-10.898-1.884.178.18 10.944m4.574-11.258h-1.839l-.762 10.093s.718-.539 1.48-1.122m2.512-1.391l1.301-7.58h-1.794l-1.032 8.298"/><path d="M34.903 10.761l2.019-6.817c-.538-.09-2.377-.179-2.377-.179l-1.391 7.131c.314 0 1.749-.135 1.749-.135" fill="#A6965F"/><path d="M28.429 16.367s2.153-3.469 6.818-3.708l.015-.911s-4.126-.091-7.4 3.767c0 0-16.924 2.699-25.446 10.817v.763l.612.015c0-.001 7.52-7.632 25.401-10.743M7.977 34.666c.419-.328 2.333-1.793 3.259-2.302l.06-1.046s-3.05 1.853-3.947 2.602c0 0-.808.448-.418.927.388.477.627.149 1.046-.181" fill="#A6965F" clip-rule="evenodd" fill-rule="evenodd"/><path d="M33.871 25.517c-2.003 0-5.083.509-6.578.808-1.495.299-4.904 1.436-6.399 2.004-1.495.568-5.353 2.452-5.353 2.452-.568-.299-2.481-1.077-2.929-.837-.449.238-.987 3.408.328 6.188 1.316 2.78 2.841 4.037 3.618 4.097.777.061 1.196-.808 1.196-.808-.897-.239-1.316-1.077-1.316-1.077.958-.837 2.064-.866 3.648-.717 1.585.149 3.08.897 3.738 1.734.658.837 1.524 2.481.986 4.396-.539 1.915-1.615 2.571-3.109 3.646-1.495 1.078-4.067 1.616-4.067 1.616l10.315 2.69s.27-.478 1.615-.956c1.346-.479 2.242-.269 3.199-.149.958.119 1.615.149 2.721.18 1.106.029 1.944-1.256 2.124-1.854.179-.598-.09-2.152-.09-2.152s-1.106-.21-2.481-.568c-1.375-.358-2.333-1.166-2.392-2.063-.06-.897 1.137-1.524 2.332-2.033 1.196-.509 3.528-1.136 3.528-1.136-.748-.688-.717-2.481-.717-2.481.479-.33 1.226-1.257 1.465-2.153.239-.896-.328-1.676-1.704-2.961-1.375-1.285-2.721-3.079-3.17-3.946-.449-.867-.508-3.92-.508-3.92m-18.897 8.522l-.299-.119c.18-.18.18-1.106.061-1.466-.12-.358-.538-.837-.867-.657-.33.179-.209.957-.089 1.704.119.747 1.166 3.258 1.166 3.258l-.299.181c-1.017-.896-1.465-1.914-1.765-3.409-.298-1.494.149-2.481.838-2.631.688-.149 1.645.538 1.883 1.555s-.629 1.584-.629 1.584zm9.837-5.891l-.09-.389s1.734-.867 3.738-1.017c2.004-.149 3.588.448 4.187.808l-.179.239s-2.094-.359-4.038-.12c-1.943.241-3.618.479-3.618.479zm3.888 1.854c-1.915.03-2.99-.119-3.528-.807 0 0 .957-.598 3.258-.628 2.303-.03 3.319.149 3.379.389.06.239-1.196 1.017-3.109 1.046zm1.195 12.56l-.298-.12c.029-.748.12-2.213 1.255-4.484 1.136-2.273 2.691-3.589 2.691-3.589l.18.239c-.18.239-1.525 2.691-2.184 3.946-.657 1.256-1.644 4.008-1.644 4.008zm6.13-6.758l-.239.268c-.598-.21-1.915.419-2.212 1.018-.299.598-.03 1.435.777 1.613.807.18 2.602-.986 2.602-.986l.179.24c-.448.597-1.166 1.315-2.124 1.584-.956.269-2.003-.091-2.362-1.017-.359-.927.089-2.452 1.315-2.901 1.227-.448 2.064.181 2.064.181z" fill="#A6965F"/><path d="M8.844 43.369c-.18 1.345.657 2.332 1.136 2.928.479.6 2.691 1.587 5.263 1.976 0 0 1.764.18 3.29-1.257 1.524-1.435 2.152-2.122 2.451-2.66l.269.12s-.299 1.105-.897 1.821c-.598.719-1.166 1.318-1.166 1.318 1.375-.359 2.78-1.406 3.678-2.214.897-.808 1.166-1.675 1.136-3.378-.03-1.705-1.286-2.662-2.81-3.26-1.525-.599-3.2-.269-3.2-.269.509.179 2.033.417 2.781.747.748.329.867 1.942.598 3.139-.269 1.195-1.555 2.095-2.362 2.452-.808.358-3.05 1.077-5.113.358-2.064-.716-2.064-2.032-1.884-3.02.18-.988 2.063-2.541 2.063-2.541-4.455.419-5.054 2.394-5.233 3.74" fill="#A6965F" clip-rule="evenodd" fill-rule="evenodd"/><path d="M15.003 44.594c.897.09 2.931.06 4.396-1.018 1.465-1.075 1.256-1.883 1.226-2.6-.03-.719-.358-1.018-.658-1.106-.298-.09-1.255-.239-1.255-.239-.179.509-.748 1.165-1.734 1.435-.986.271-2.212-.747-2.212-.747-1.615 1.314-1.944 1.883-1.974 2.662-.031.776 1.314 1.524 2.211 1.613m-6.458-9.209c.329.39.926 2.362 1.017 2.93.089.568.448 1.526.448 1.526.897-.629 3.438-1.077 3.438-1.077-1.615-1.884-2.152-5.323-2.152-5.323-.748.36-2.751 1.944-2.751 1.944m26.254-10.824s.388-.18.538-.359c.15-.179.389-.508-.09-.538-.478-.029-9.807-.449-20.662 5.756 0 0 .15.045.957.434 0-.001 8.881-5.234 19.257-5.293m4.126 17.223c-2.393.417-4.456 1.585-4.456 1.585.926-.27 4.515-.21 4.515-.21.239-.866-.059-1.375-.059-1.375" fill="#A6965F" clip-rule="evenodd" fill-rule="evenodd"/><path d="M33.573 44.324c.747.958 3.977 1.676 4.425 1.704.449.031.718-.447.837-1.015.12-.569-.18-.988-.18-.988-1.554-.088-5.082.299-5.082.299" fill="#A6965F"/><path fill="#A6965F" clip-rule="evenodd" fill-rule="evenodd" d="M7.677 24.89l1.735.867-.478 2.242 1.405.867-.418 2.213 1.286-.777.418-2.003-1.465-.898.538-2.272-2.153-.808m6.489-3.229l1.644 1.375-.658 1.795 1.196.986-.478 2.004.987-.448.837-1.945-1.286-1.076.688-1.824-1.973-1.257m6.786-2.182l1.466 1.226-.867 2.033 1.166 1.197-.419 1.405 1.047-.329.478-1.285-1.166-1.406.928-1.854-1.585-1.226"/><path fill="#A6965F" d="M29.356 16.726l1.705 1.794-.688 1.166.807 1.555-.927 1.765.838-.09 1.046-1.854-.777-1.376.777-1.405-2.302-2.124"/><path d="M34.589 15.32c-.688 0-1.017 1.704-1.017 3.38 0 1.674.538 3.079 1.136 3.079.598 0 .897-1.675 1.047-3.29.15-1.614-.598-3.169-1.166-3.169m-6.698 4.456c-.897.179-1.107.866-1.017 1.404.089.538.479.928 1.375.838.896-.09 1.076-.896.987-1.376-.089-.478-.505-1.035-1.345-.866m-6.907 1.764c-1.017.329-1.136 1.166-.927 1.704.209.539.837.897 1.645.658.807-.239 1.106-1.106.926-1.585-.179-.478-.636-1.104-1.644-.777m-5.981 3.528c-.239-.418-.871-.903-1.614-.478-.419.238-.957 1.195-.449 1.764s1.077.718 1.705.329c.627-.388.598-1.196.358-1.615m-9.238 3.888c-.149.269-.658.956-.06 1.466.598.508 1.077.447 1.764.089s.329-1.346.03-1.705c-.3-.358-1.403-.447-1.734.15m-.737-1.046c0-.281-.246-.509-.55-.509-.304 0-.549.228-.549.509 0 .279.245.507.549.507.304 0 .55-.228.55-.507m.826-1.384c-.374 0-.677.303-.677.677 0 .373.303.676.677.676.374 0 .677-.303.677-.676 0-.374-.303-.677-.677-.677m.721-.351c0 .374.36.677.804.677.443 0 .803-.303.803-.677 0-.374-.359-.676-.803-.676-.444 0-.804.302-.804.676m.863.963c-.327 0-.591.266-.591.592 0 .327.264.593.591.593.328 0 .592-.266.592-.593.001-.327-.264-.592-.592-.592m2.163 2.08c0-.374-.322-.677-.719-.677-.397 0-.719.303-.719.677 0 .373.322.676.719.676.397 0 .719-.303.719-.676m-1.138 2.288c.326 0 .591-.265.591-.591 0-.327-.265-.593-.591-.593a.593.593 0 00-.593.593c.001.326.266.591.593.591m-.903.357c0-.42-.322-.761-.719-.761-.397 0-.719.341-.719.761 0 .421.322.762.719.762.396 0 .719-.341.719-.762m-2.872-2.058c.303 0 .55-.246.55-.55 0-.304-.247-.55-.55-.55-.304 0-.55.246-.55.55 0 .304.246.55.55.55m5.979-6.387c-.374 0-.676.283-.676.634 0 .351.303.635.676.635.374 0 .678-.284.678-.635 0-.351-.303-.634-.678-.634m1.317-.843c-.374 0-.677.246-.677.55 0 .304.304.55.677.55.374 0 .677-.246.677-.55 0-.304-.303-.55-.677-.55m2.152-.929c-.467 0-.845.342-.845.762s.378.761.845.761c.467 0 .846-.341.846-.761s-.378-.762-.846-.762m.347 2.167c0 .327.283.592.634.592.35 0 .634-.265.634-.592 0-.327-.284-.592-.634-.592-.35 0-.634.264-.634.592m-1.853.12c0 .257.246.465.55.465.303 0 .549-.208.549-.465 0-.258-.246-.465-.549-.465-.304 0-.55.207-.55.465m-.138 1.345c0-.374-.322-.677-.719-.677-.397 0-.719.303-.719.677 0 .373.322.676.719.676.397 0 .719-.303.719-.676m-1.688 1.704c0 .351.34.634.761.634s.761-.283.761-.634c0-.351-.34-.635-.761-.635-.42.001-.761.285-.761.635m2.331 1.816c.467 0 .846-.341.846-.762 0-.42-.378-.761-.846-.761-.467 0-.845.341-.845.761 0 .421.378.762.845.762m1.809-1.124c.35 0 .634-.188.634-.422 0-.234-.284-.424-.634-.424-.351 0-.635.19-.635.424 0 .234.285.422.635.422m1.047-1.318c.327 0 .592-.322.592-.72 0-.396-.265-.719-.592-.719-.328 0-.592.322-.592.719-.001.398.264.72.592.72m2.152-6.27c-.42 0-.761.303-.761.677 0 .374.341.677.761.677.421 0 .762-.303.762-.677 0-.374-.341-.677-.762-.677m-.235 2.949c0 .42.359.761.803.761.443 0 .804-.341.804-.761s-.361-.761-.804-.761c-.443 0-.803.341-.803.761m2.053 1.914c0-.397-.265-.719-.593-.719-.326 0-.591.321-.591.719 0 .396.265.719.591.719.329 0 .593-.322.593-.719m1.363-.329c0-.304-.246-.55-.55-.55-.303 0-.55.246-.55.55 0 .304.247.55.55.55.304 0 .55-.246.55-.55m-2.225-3.618c0 .35.322.634.719.634.397 0 .719-.284.719-.634 0-.351-.322-.635-.719-.635-.397 0-.719.284-.719.635m1.974-1.83c-.42 0-.761.283-.761.634 0 .351.341.635.761.635.421 0 .762-.284.762-.635 0-.351-.34-.634-.762-.634m1.034 1.112c0 .374.34.677.761.677s.761-.303.761-.677c0-.374-.341-.677-.761-.677s-.761.303-.761.677m1.802 2.96c0-.326-.266-.592-.592-.592-.327 0-.593.266-.593.592a.5926.5926 0 001.185 0m1.978-5.132c-.373 0-.676.303-.676.677 0 .374.303.677.676.677.375 0 .677-.303.677-.677 0-.374-.302-.677-.677-.677m1.765-.467c-.444 0-.804.379-.804.845 0 .468.36.846.804.846.443 0 .803-.378.803-.846 0-.467-.359-.845-.803-.845m1.075.725c0 .397.322.719.719.719.397 0 .718-.321.718-.719 0-.396-.321-.719-.718-.719-.397 0-.719.323-.719.719m1.048 1.287c-.281 0-.508.228-.508.507 0 .281.228.508.508.508s.507-.227.507-.508c.001-.279-.227-.507-.507-.507m-3.288 1.554c0-.396-.321-.719-.719-.719-.396 0-.718.322-.718.719 0 .397.322.72.718.72.398 0 .719-.323.719-.72m-.414 1.675c0 .327.265.593.592.593.327 0 .592-.266.592-.593a.592.592 0 00-.592-.592.592.592 0 00-.592.592m2.918-.15c0-.233-.265-.423-.592-.423-.327 0-.592.189-.592.423 0 .234.265.423.592.423.327 0 .592-.189.592-.423m.421-.717c0 .257.189.465.423.465.233 0 .423-.208.423-.465s-.19-.465-.423-.465c-.234 0-.423.208-.423.465m1.858-6.597a.676.676 0 00-.676.677c0 .373.303.676.676.676.374 0 .677-.303.677-.676-.001-.374-.303-.677-.677-.677m1.346-.698c-.397 0-.719.228-.719.507 0 .28.322.508.719.508.396 0 .718-.228.718-.508s-.322-.507-.718-.507m1.405-.952c-.397 0-.719.265-.719.591 0 .327.322.593.719.593.397 0 .719-.266.719-.593 0-.326-.322-.591-.719-.591m-.806 3.432c0-.327-.322-.592-.719-.592-.397 0-.719.265-.719.592 0 .327.322.593.719.593.397 0 .719-.266.719-.593m-.63 5.448c.304 0 .55-.283.55-.634 0-.351-.246-.635-.55-.635-.303 0-.549.284-.549.635 0 .351.246.634.549.634m1.751-.544a.465.465 0 00-.466-.465.4656.4656 0 10.466.465m-1.72-1.534c.374 0 .676-.397.676-.889 0-.489-.303-.887-.676-.887-.374 0-.677.397-.677.887-.001.492.303.889.677.889m-3.499 32.96c.12-.357-.06-.509-.627-.688-.568-.178-18.45-5.022-18.688-5.23-.239-.212-.688.029-.807.237-.169.298-.06.6.418.749.479.149 18.45 5.082 18.897 5.202.448.118.688.089.807-.27m-.509 1.675c.09-.27-.03-.419-.418-.539-.389-.118-18.778-5.112-19.017-5.171-.24-.061-.539-.12-.748.238-.129.221-.06.509.328.599.389.089 18.958 5.173 19.287 5.262.33.09.479-.12.568-.389M8.186 51.95c.299.089 19.018 5.172 19.346 5.262.33.091.449 0 .539-.208.09-.21.15-.538-.239-.658S8.694 51.202 8.516 51.144c-.179-.061-.479.029-.568.269-.09.237-.061.447.238.537m21.828 8.194s-1.121-1.504-1.57-1.705c-.448-.202-20.609-5.652-20.946-5.741-.336-.09-.964.157-1.436.202-.471.043-.807.113-.896.313-.09.202.291.921.291.921.426-.473 1.548-1.077 2.534-.853.987.224.987 1.883.987 1.883.381-.494 1.839-1.076 2.646-.897.808.181 1.009 1.749 1.009 1.749.292-.403 1.031-1.121 2.444-.852 1.413.27 1.076 2.086 1.076 2.086.314-.473 1.369-1.524 2.668-1.121 1.301.402 1.077 2.264 1.077 2.264.336-.627 1.053-1.435 2.467-1.031 1.412.404 1.211 2.04 1.211 2.04.359-.581 1.57-1.098 2.602-.738 1.031.359 1.008 1.995 1.008 1.995.945-1.123 2.828-.515 2.828-.515" fill="#A6965F" clip-rule="evenodd" fill-rule="evenodd"/><path d="M7.61 58.865C5.457 58.261.59 56.936.59 56.936v1.053s9.554 3.881 12.604 6.728h11.841s-4.62-1.86-8.208-3.005c-3.587-1.142-7.063-2.243-9.217-2.847m-7.019.066v.988c3.835 1.098 6.459 4.798 6.459 4.798h4.71c-.673-.694-4.307-2.624-5.719-3.34-1.413-.719-5.45-2.446-5.45-2.446" fill="#A6965F"/><path d="M.591 60.882v1.975c0 .561.741 1.86 1.974 1.86h3.364S3.036 61.331.591 60.882m2.893-5.404c.74-.313 1.121-.986 1.166-1.592.045-.604-.473-1.202-1.166-1.143-1.077.089-1.637.985-1.727 1.726-.089.74.987 1.324 1.727 1.009m2.332-.493c-.112.583-.044 1.614.808 1.727.852.111 1.569-.607 1.681-1.188.112-.584.019-1.439-.628-1.57-1.008-.203-1.748.447-1.861 1.031m5.495-.046c-.695-.225-1.749.494-1.974 1.009-.224.518.045 1.302.763 1.502.717.202 1.569-.11 1.816-.694.247-.582-.05-1.636-.605-1.817m1.615 1.952c-.18.605.044 1.392.739 1.569.695.18 1.525-.268 1.794-.918.269-.651-.02-1.556-.65-1.749-.874-.27-1.704.492-1.883 1.098m3.475 1.167c-.157.538.404 1.301 1.122 1.502.717.203 1.524-.381 1.727-1.054.202-.673-.193-1.604-.763-1.75-.964-.246-1.928.764-2.086 1.302m3.836 1.165c-.157.65 0 1.369.852 1.616.852.245 1.615-.584 1.793-1.189.18-.605-.313-1.48-.853-1.66-1.007-.338-1.635.583-1.792 1.233m5.539.09c-1.099-.314-1.862.493-1.997 1.056-.134.56-.157 1.143.762 1.502.92.357 1.84-.762 1.929-1.188.089-.426-.06-1.19-.694-1.37m2.556 3.723c.785.224 1.816-.741 1.906-1.19.09-.447-.413-1.021-.964-1.188-1.032-.314-1.839.583-1.951 1.054-.112.473.224 1.1 1.009 1.324" fill="#A6965F" clip-rule="evenodd" fill-rule="evenodd"/><path d="M47.282 59.111c.314 0 1.458.053 1.458-1.001 0-1.056-.942-1.198-1.48-1.22-.538-.021-3.297-.021-4.934-.067s-2.197-.379-2.22-.74c-.022-.357 1.592-.223 1.592-.223l-.269-1.1c-1.457-.023-2.152.179-2.152.179-.897.202-3.297 2.669-4.328 3.634-1.032.963-2.916 2.78-4.15 3.991-1.233 1.211-1.682 1.189-2.802 1.055-1.122-.135-1.682-1.548-1.682-1.548-.381.516-1.166.583-2.131.383-.964-.203-1.255-1.572-1.255-1.572-.359.651-1.211.83-2.266.538-1.054-.29-1.233-1.771-1.233-1.771-.269.403-1.412.784-2.467.425-1.054-.357-1.3-1.636-1.3-1.636-.314.584-1.615.897-2.556.538-.942-.359-.92-1.637-.92-1.637-.314.448-1.301.921-2.399.673-1.099-.247-1.189-1.593-1.189-1.593-.247.269-.964 1.368-2.489.808-1.525-.561-.808-2.558-.808-2.558-.875 1.032-1.548 1.346-2.378 1.459-.83.111-2.31-1.122-2.31-1.122l-.022 1.032c1.212.201 7.692 2.176 10.025 2.803 2.332.627 6.257 1.929 9.464 3.028 3.207 1.098 7.153 2.847 7.153 2.847h12.03c-.472-.257-1.445-.858-1.714-1.547-.359-.919-.404-2.242.135-3.117.538-.874 1.659-1.211 2.174-1.368.517-.156 1.077-.246 1.077-.246l.023 1.03-2.31 1.01-.03 1.951 2.333 1.66h.607l2.308-1.367.209-1.841-2.243-1.367v-1.165s1.233.156 1.906.627c.673.471 1.592 1.862 1.615 2.961.018.894-.706 2.158-1.653 2.779h4.748c.007-1.703-.231-1.942-1.256-1.942-.426 0-.785-.173-.785-.419s.516-.202.83-.202c.314 0 1.398.23 1.39-1.204-.007-1.48-1.121-1.232-1.345-1.232-.224 0-.74-.023-.74-.27 0-.247.425-.336.739-.336m-4.171 2.243l-.074.785-1.794 1.077-1.75-1.233.075-.898 1.794-.829z" fill="#A6965F"/><path d="M41.451 12.98h4.687c1.077 0 2.22-.56 2.243-1.232.022-.673-.224-.965-.74-1.48-.515-.516-3.05-3.318-3.05-3.318s-3.229 2.869-3.857 3.476c-.628.604-.718 1.144-.561 1.614.157.47.673.94 1.278.94m.112 1.885h5.226c.336 0 .56-.225.56-.472 0-.247-.022-.493-.673-.493h-5.045c-.269 0-.583.157-.583.426 0 .27.022.539.515.539m0 1.794h5.226c.336 0 .56-.225.56-.472 0-.246-.022-.494-.673-.494h-5.045c-.269 0-.583.158-.583.427 0 .271.022.539.515.539m-.717 1.547c.068.74.224 3.185.224 3.185s1.749-1.638 6.234-.987c0 0 .359-.829.381-1.614.022-.784-.179-1.278-1.099-1.301-.92-.022-5.024 0-5.024 0s-.784-.023-.716.717" fill="#A6965F" clip-rule="evenodd" fill-rule="evenodd"/><path d="M47.29 21.211c-.808-.225-1.936-.18-3.775.112s-2.983 1.75-2.983 1.75c1.009-.965 2.691-.876 3.522-.673.83.201 1.51.911 2.07 1.203.56.292 2.952.941 3.11-.27.156-1.21-1.137-1.897-1.944-2.122m-.598 2.028a.6986.6986 0 01-.698-.698c0-.385.313-.696.698-.696.384 0 .697.312.697.696 0 .386-.313.698-.697.698z" fill="#A6965F"/><path d="M44.053 23.364c-.18 1.48.538 2.399 1.076 3.162.538.763 1.727 1.436 2.22 3.408.494 1.974.045 4.574.045 4.574 1.031-1.681 1.121-3.385.695-4.978-.426-1.592-1.524-2.848-2.377-3.813-.853-.964-.808-1.861-.808-1.861-.29-.222-.851-.492-.851-.492" fill="#A6965F" clip-rule="evenodd" fill-rule="evenodd"/><path d="M42.864 30.967c1.39 1.009 2.758 3.432 2.758 3.432-.022-1.66-.964-3.298-1.637-4.082-.672-.785-1.592-1.615-2.579-2.848-.987-1.233-.583-3.478-.583-3.478l-.673.719c-.224.628-.292 2.152.135 3.162.426 1.009 1.188 2.086 2.579 3.095m2.49 11.145v-5.83c-.337-2.063-2.871-4.463-2.871-4.463v4.418c0 .963.471 1.905 1.055 3.251.582 1.346 1.816 2.624 1.816 2.624m.627 2.086c-.583-.762-2.108-2.423-2.893-3.634-.785-1.211-1.233-2.981-1.233-2.981-.875.627-.561 2.533-.045 3.633.516 1.099 1.189 1.659 2.355 2.87 1.166 1.21 2.019 4.239 2.019 4.239s.336-.876.448-1.481c.112-.605-.067-1.884-.651-2.646m-.627 9.196V48.82c-.269-2.783-2.871-5.272-2.871-5.272v4.891s.067 1.052.562 2.422c.492 1.366 2.309 2.533 2.309 2.533" fill="#A6965F"/><path d="M46.273 55.814c-.292-.985-1.996-1.994-3.364-3.432-1.369-1.435-1.458-4.013-1.458-4.013-2.153 3.633 1.031 5.853 1.031 5.853v1.592m-.493-32.495s-.241.522-.321 1.339l1.54-.389c-.077-.655-.053-1.152-.053-1.152-.516-.044-1.166.202-1.166.202" fill="#A6965F" clip-rule="evenodd" fill-rule="evenodd"/><path d="M41.675 25.742c.053.477.208.842.459 1.2l1.563-.889c-.138-.274-.241-.568-.319-.861l-1.716.402c.005.05.008.098.013.148m2.105 2.996l1.192-1.075c-.25-.267-.512-.55-.772-.87l-1.475.85c.292.309.644.657 1.055 1.095m.598.658c.112.128.228.263.348.405.142.17.269.34.39.508l1.223-.556c-.171-.584-.45-1.023-.785-1.433" fill="#A6965F"/><path d="M46.542 30.634l-.933.452c.952 1.718.91 3.154.91 3.154.232-1.194.234-2.445.023-3.606" fill="#A6965F" clip-rule="evenodd" fill-rule="evenodd"/><path d="M48.609 0H2.622C1.174 0 0 1.175 0 2.622v59.967c0 1.449 1.174 2.622 2.622 2.622h45.987c1.448 0 2.622-1.173 2.622-2.622V2.622C51.231 1.175 50.057 0 48.609 0m1.823 62.589c0 1.006-.817 1.823-1.823 1.823H2.622c-1.005 0-1.823-.817-1.823-1.823V2.622C.799 1.617 1.616.8 2.622.8h45.987c1.005 0 1.823.817 1.823 1.822z" fill="#A6965F"/></svg>