<?xml version="1.0" encoding="utf-8"?>
<!-- Generator: Adobe Illustrator 15.0.0, SVG Export Plug-In . SVG Version: 6.00 Build 0)  -->
<!DOCTYPE svg PUBLIC "-//W3C//DTD SVG 1.1//EN" "http://www.w3.org/Graphics/SVG/1.1/DTD/svg11.dtd">
<svg version="1.1" id="Layer_1" xmlns="http://www.w3.org/2000/svg" xmlns:xlink="http://www.w3.org/1999/xlink" x="0px" y="0px"
	 width="236.167px" height="159.333px" viewBox="23.333 -0.083 236.167 159.333"
	 enable-background="new 23.333 -0.083 236.167 159.333" xml:space="preserve">
<g>
	<g>
		<g>
			<defs>
				<rect id="SVGID_1_" x="22.5" y="2.833" width="237" height="98.417"/>
			</defs>
			<clipPath id="SVGID_2_">
				<use xlink:href="#SVGID_1_"  overflow="visible"/>
			</clipPath>
			<g clip-path="url(#SVGID_2_)">
				<g>
					<polygon fill="#FFFFFF" points="233.866,95.9 227.543,91.699 232.906,86.332 226.172,82.826 230.93,76.916 223.854,74.15 
						227.945,67.768 220.616,65.774 223.998,58.992 216.494,57.793 219.131,50.688 211.543,50.29 213.411,42.948 205.822,43.346 
						206.91,35.85 199.404,37.035 199.705,29.469 192.363,31.421 191.876,23.865 184.775,26.565 183.507,19.1 176.725,22.514 
						174.688,15.22 168.296,19.319 165.514,12.271 159.582,17.005 156.084,10.284 150.674,15.602 146.501,9.271 141.662,15.111 
						136.867,9.235 132.645,15.532 127.279,10.165 123.717,16.855 117.832,12.063 114.977,19.083 108.628,14.919 106.516,22.195 
						99.77,18.708 98.423,26.162 91.352,23.389 90.786,30.94 83.464,28.913 83.686,36.482 76.191,35.219 77.199,42.727 
						69.616,42.244 71.398,49.606 63.807,49.916 66.355,57.05 58.837,58.153 62.127,64.98 54.77,66.872 58.771,73.31 51.658,75.976 
						56.33,81.949 49.545,85.359 54.834,90.799 48.457,94.918 54.299,99.761 48.396,104.532 54.719,108.734 49.355,114.1 
						56.09,117.607 51.333,123.516 58.407,126.282 54.314,132.665 61.646,134.658 58.266,141.439 65.768,142.643 63.131,149.743 
						70.719,150.145 68.85,157.482 76.438,157.087 75.352,164.582 82.855,163.396 82.557,170.964 89.898,169.012 90.387,176.566 
						97.486,173.866 98.755,181.333 105.537,177.916 107.574,185.211 113.964,181.113 116.747,188.16 122.677,183.426 
						126.176,190.148 131.587,184.83 135.758,191.16 140.598,185.32 145.393,191.195 149.616,184.9 154.98,190.268 158.542,183.576 
						164.428,188.369 167.283,181.35 173.631,185.512 175.745,178.236 182.49,181.725 183.837,174.271 190.909,177.043 
						191.475,169.49 198.796,171.52 198.575,163.949 206.068,165.214 205.062,157.708 212.646,158.188 210.861,150.827 
						218.455,150.518 215.906,143.383 223.425,142.279 220.134,135.453 227.493,133.561 223.491,127.123 230.604,124.458 
						225.934,118.484 232.717,115.072 227.43,109.634 233.807,105.518 227.964,100.672 					"/>
					<polygon fill="none" stroke="#FFFFFF" stroke-width="5" stroke-miterlimit="10" points="233.866,95.9 227.543,91.699 
						232.906,86.332 226.172,82.826 230.93,76.916 223.854,74.15 227.945,67.768 220.616,65.774 223.998,58.992 216.494,57.793 
						219.131,50.688 211.543,50.29 213.411,42.948 205.822,43.346 206.91,35.85 199.404,37.035 199.705,29.469 192.363,31.421 
						191.876,23.865 184.775,26.565 183.507,19.1 176.725,22.514 174.688,15.22 168.296,19.319 165.514,12.271 159.582,17.005 
						156.084,10.284 150.674,15.602 146.501,9.271 141.662,15.111 136.867,9.235 132.645,15.532 127.279,10.165 123.717,16.855 
						117.832,12.063 114.977,19.083 108.628,14.919 106.516,22.195 99.77,18.708 98.423,26.162 91.352,23.389 90.786,30.94 
						83.464,28.913 83.686,36.482 76.191,35.219 77.199,42.727 69.616,42.244 71.398,49.606 63.807,49.916 66.355,57.05 
						58.837,58.153 62.127,64.98 54.77,66.872 58.771,73.31 51.658,75.976 56.33,81.949 49.545,85.359 54.834,90.799 48.457,94.918 
						54.299,99.761 48.396,104.532 54.719,108.734 49.355,114.1 56.09,117.607 51.333,123.516 58.407,126.282 54.314,132.665 
						61.646,134.658 58.266,141.439 65.768,142.643 63.131,149.743 70.719,150.145 68.85,157.482 76.438,157.087 75.352,164.582 
						82.855,163.396 82.557,170.964 89.898,169.012 90.387,176.566 97.486,173.866 98.755,181.333 105.537,177.916 107.574,185.211 
						113.964,181.113 116.747,188.16 122.677,183.426 126.176,190.148 131.587,184.83 135.758,191.16 140.598,185.32 
						145.393,191.195 149.616,184.9 154.98,190.268 158.542,183.576 164.428,188.369 167.283,181.35 173.631,185.512 
						175.745,178.236 182.49,181.725 183.837,174.271 190.909,177.043 191.475,169.49 198.796,171.52 198.575,163.949 
						206.068,165.214 205.062,157.708 212.646,158.188 210.861,150.827 218.455,150.518 215.906,143.383 223.425,142.279 
						220.134,135.453 227.493,133.561 223.491,127.123 230.604,124.458 225.934,118.484 232.717,115.072 227.43,109.634 
						233.807,105.518 227.964,100.672 					"/>
				</g>
				<g>
					
						<radialGradient id="SVGID_3_" cx="1167.1309" cy="464.4199" r="92.016" gradientTransform="matrix(1 0 0 -0.9966 -1026 563.0557)" gradientUnits="userSpaceOnUse">
						<stop  offset="0.6135" style="stop-color:#184377"/>
						<stop  offset="1" style="stop-color:#111518"/>
					</radialGradient>
					<polygon fill="url(#SVGID_3_)" points="233.866,95.9 227.543,91.699 232.907,86.332 226.172,82.826 230.93,76.917 
						223.854,74.15 227.945,67.768 220.615,65.774 223.998,58.992 216.494,57.793 219.132,50.69 211.543,50.29 213.411,42.948 
						205.823,43.346 206.911,35.85 199.404,37.035 199.704,29.469 192.363,31.421 191.876,23.865 184.775,26.565 183.507,19.1 
						176.725,22.514 174.688,15.22 168.296,19.319 165.514,12.271 159.583,17.005 156.084,10.284 150.674,15.602 146.502,9.271 
						141.663,15.111 136.868,9.235 132.645,15.532 127.279,10.165 123.718,16.855 117.833,12.063 114.979,19.083 108.629,14.919 
						106.516,22.195 99.77,18.708 98.423,26.162 91.352,23.388 90.786,30.94 83.465,28.913 83.686,36.482 76.193,35.219 
						77.199,42.727 69.616,42.244 71.4,49.606 63.807,49.916 66.355,57.05 58.837,58.153 62.127,64.98 54.77,66.872 58.771,73.31 
						51.658,75.976 56.33,81.948 49.545,85.359 54.834,90.799 48.457,94.918 54.299,99.761 48.396,104.532 54.719,108.734 
						49.355,114.1 56.09,117.607 51.333,123.516 58.407,126.282 54.314,132.665 61.646,134.658 58.266,141.439 65.768,142.643 
						63.131,149.743 70.719,150.145 68.85,157.482 76.439,157.087 75.352,164.581 82.855,163.396 82.557,170.965 89.898,169.012 
						90.387,176.566 97.486,173.866 98.755,181.333 105.537,177.916 107.574,185.211 113.964,181.113 116.748,188.16 
						122.678,183.426 126.177,190.148 131.587,184.83 135.759,191.16 140.598,185.32 145.393,191.195 149.616,184.9 154.98,190.268 
						158.543,183.576 164.428,188.369 167.283,181.35 173.632,185.512 175.745,178.236 182.491,181.725 183.837,174.271 
						190.909,177.043 191.475,169.49 198.796,171.521 198.575,163.949 206.068,165.214 205.062,157.706 212.646,158.188 
						210.861,150.826 218.455,150.518 215.906,143.383 223.425,142.279 220.134,135.453 227.493,133.562 223.491,127.122 
						230.604,124.457 225.934,118.484 232.717,115.072 227.43,109.634 233.807,105.518 227.964,100.672 					"/>
				</g>
			</g>
		</g>
	</g>
</g>
<g>
	<polygon fill="#FFFFFF" stroke="#FFFFFF" stroke-width="19" stroke-linejoin="round" stroke-miterlimit="10" points="224.917,79.5 
		245.501,79.5 245.501,89.667 235.834,89.667 235.834,97 243.001,97 243.001,105.917 235.834,105.917 235.834,114.167 
		246.001,114.167 246.001,123.5 224.917,123.5 	"/>
	<polygon fill="#FFFFFF" stroke="#FFFFFF" stroke-width="19" stroke-linejoin="round" stroke-miterlimit="10" points="38.167,79.5 
		48.75,79.5 48.75,94.75 58,79.5 68.281,79.5 58,98.219 70,123.5 58,123.5 51.417,110.75 48.75,114.167 48.75,137.583 
		38.167,144.916 	"/>
	<polygon fill="#FFFFFF" stroke="#FFFFFF" stroke-width="19" stroke-linejoin="round" stroke-miterlimit="10" points="
		68.916,83.312 79.499,83.312 79.499,112.75 89.499,112.75 89.499,120.75 68.916,120.75 	"/>
	<path fill="#FFFFFF" stroke="#FFFFFF" stroke-width="19" stroke-linejoin="round" stroke-miterlimit="10" d="M126.688,101.562
		c0,11.045-8.954,20-20,20s-20-8.955-20-20c0-11.047,8.954-20,20-20S126.688,90.518,126.688,101.562z M106.688,92.188
		c-5.178,0-9.375,4.197-9.375,9.375c0,5.18,4.197,9.375,9.375,9.375s9.375-4.195,9.375-9.375
		C116.063,96.385,111.865,92.188,106.688,92.188z"/>
	<polygon fill="#FFFFFF" stroke="#FFFFFF" stroke-width="19" stroke-linejoin="round" stroke-miterlimit="10" points="
		127.25,83.312 135.875,83.312 143.125,97 143.125,83.312 153.75,83.312 153.75,120.75 145.625,120.75 137.5,105.917 137.5,120.75 
		127.25,120.75 	"/>
	
		<rect x="183.832" y="83.312" fill="#FFFFFF" stroke="#FFFFFF" stroke-width="19" stroke-linejoin="round" stroke-miterlimit="10" width="9.666" height="37.438"/>
	<polygon fill="#FFFFFF" stroke="#FFFFFF" stroke-width="19" stroke-linejoin="round" stroke-miterlimit="10" points="
		195.915,83.312 206.084,83.312 206.084,96 214.667,83.312 224.417,83.312 214.667,99.334 225.702,120.75 214.667,120.75 
		208.25,109 206.084,112.75 206.084,120.75 195.915,120.75 	"/>
	<path fill="#FFFFFF" stroke="#FFFFFF" stroke-width="19" stroke-linejoin="round" stroke-miterlimit="10" d="M156.083,83.312h13.75
		c0,0,12.417,0,12.417,18.25c0,19.188-12.417,19.188-12.417,19.188h-13.75V83.312L156.083,83.312z M165.166,110.75
		c0,0,8.25,1.157,8.25-9.188c0-8.943-8.25-7.812-8.25-7.812V110.75z"/>
</g>
<g>
	<polygon fill="#063451" stroke="#063451" stroke-width="13" stroke-linejoin="round" stroke-miterlimit="10" points="224.917,79.5 
		245.501,79.5 245.501,89.667 235.834,89.667 235.834,97 243.001,97 243.001,105.917 235.834,105.917 235.834,114.167 
		246.001,114.167 246.001,123.5 224.917,123.5 	"/>
	<polygon fill="#063451" stroke="#063451" stroke-width="13" stroke-linejoin="round" stroke-miterlimit="10" points="38.167,79.5 
		48.75,79.5 48.75,94.75 58,79.5 68.281,79.5 58,98.219 70,123.5 58,123.5 51.417,110.75 48.75,114.167 48.75,137.583 
		38.167,144.916 	"/>
	<polygon fill="#063451" stroke="#063451" stroke-width="13" stroke-linejoin="round" stroke-miterlimit="10" points="
		68.916,83.312 79.499,83.312 79.499,112.75 89.499,112.75 89.499,120.75 68.916,120.75 	"/>
	<path fill="#063451" stroke="#063451" stroke-width="13" stroke-linejoin="round" stroke-miterlimit="10" d="M126.688,101.562
		c0,11.045-8.954,20-20,20s-20-8.955-20-20c0-11.047,8.954-20,20-20S126.688,90.518,126.688,101.562z M106.688,92.188
		c-5.178,0-9.375,4.197-9.375,9.375c0,5.18,4.197,9.375,9.375,9.375s9.375-4.195,9.375-9.375
		C116.063,96.385,111.865,92.188,106.688,92.188z"/>
	<polygon fill="#063451" stroke="#063451" stroke-width="13" stroke-linejoin="round" stroke-miterlimit="10" points="
		127.25,83.312 135.875,83.312 143.125,97 143.125,83.312 153.75,83.312 153.75,120.75 145.625,120.75 137.5,105.917 137.5,120.75 
		127.25,120.75 	"/>
	
		<rect x="183.832" y="83.312" fill="#063451" stroke="#063451" stroke-width="13" stroke-linejoin="round" stroke-miterlimit="10" width="9.666" height="37.438"/>
	<polygon fill="#063451" stroke="#063451" stroke-width="13" stroke-linejoin="round" stroke-miterlimit="10" points="
		195.915,83.312 206.084,83.312 206.084,96 214.667,83.312 224.417,83.312 214.667,99.334 225.702,120.75 214.667,120.75 
		208.25,109 206.084,112.75 206.084,120.75 195.915,120.75 	"/>
	<path fill="#063451" stroke="#063451" stroke-width="13" stroke-linejoin="round" stroke-miterlimit="10" d="M156.083,83.312h13.75
		c0,0,12.417,0,12.417,18.25c0,19.188-12.417,19.188-12.417,19.188h-13.75V83.312L156.083,83.312z M165.166,110.75
		c0,0,8.25,1.157,8.25-9.188c0-8.943-8.25-7.812-8.25-7.812V110.75z"/>
</g>
<g>
	<polygon fill="#8EABD3" stroke="#8EABD3" stroke-width="8" stroke-linejoin="round" stroke-miterlimit="10" points="224.917,79.5 
		245.501,79.5 245.501,89.667 235.834,89.667 235.834,97 243.001,97 243.001,105.917 235.834,105.917 235.834,114.167 
		246.001,114.167 246.001,123.5 224.917,123.5 	"/>
	<polygon fill="#8EABD3" stroke="#8EABD3" stroke-width="8" stroke-linejoin="round" stroke-miterlimit="10" points="38.167,79.5 
		48.75,79.5 48.75,94.75 58,79.5 68.281,79.5 58,98.219 70,123.5 58,123.5 51.417,110.75 48.75,114.167 48.75,137.583 
		38.167,144.916 	"/>
	<polygon fill="#8EABD3" stroke="#8EABD3" stroke-width="8" stroke-linejoin="round" stroke-miterlimit="10" points="68.916,83.312 
		79.499,83.312 79.499,112.75 89.499,112.75 89.499,120.75 68.916,120.75 	"/>
	<path fill="#8EABD3" stroke="#8EABD3" stroke-width="8" stroke-linejoin="round" stroke-miterlimit="10" d="M126.688,101.562
		c0,11.045-8.954,20-20,20s-20-8.955-20-20c0-11.047,8.954-20,20-20S126.688,90.518,126.688,101.562z M106.688,92.188
		c-5.178,0-9.375,4.197-9.375,9.375c0,5.18,4.197,9.375,9.375,9.375s9.375-4.195,9.375-9.375
		C116.063,96.385,111.865,92.188,106.688,92.188z"/>
	<polygon fill="#8EABD3" stroke="#8EABD3" stroke-width="8" stroke-linejoin="round" stroke-miterlimit="10" points="127.25,83.312 
		135.875,83.312 143.125,97 143.125,83.312 153.75,83.312 153.75,120.75 145.625,120.75 137.5,105.917 137.5,120.75 127.25,120.75 	
		"/>
	
		<rect x="183.832" y="83.312" fill="#8EABD3" stroke="#8EABD3" stroke-width="8" stroke-linejoin="round" stroke-miterlimit="10" width="9.666" height="37.438"/>
	<polygon fill="#8EABD3" stroke="#8EABD3" stroke-width="8" stroke-linejoin="round" stroke-miterlimit="10" points="
		195.915,83.312 206.084,83.312 206.084,96 214.667,83.312 224.417,83.312 214.667,99.334 225.702,120.75 214.667,120.75 
		208.25,109 206.084,112.75 206.084,120.75 195.915,120.75 	"/>
	<path fill="#8EABD3" stroke="#8EABD3" stroke-width="8" stroke-linejoin="round" stroke-miterlimit="10" d="M156.083,83.312h13.75
		c0,0,12.417,0,12.417,18.25c0,19.188-12.417,19.188-12.417,19.188h-13.75V83.312L156.083,83.312z M165.166,110.75
		c0,0,8.25,1.157,8.25-9.188c0-8.943-8.25-7.812-8.25-7.812V110.75z"/>
</g>
<g>
	<polygon fill="#063451" stroke="#063451" stroke-width="8" stroke-linejoin="round" stroke-miterlimit="10" points="225.917,80.5 
		246.501,80.5 246.501,90.667 236.834,90.667 236.834,98 244.001,98 244.001,106.917 236.834,106.917 236.834,115.167 
		247.001,115.167 247.001,124.5 225.917,124.5 	"/>
	<polygon fill="#063451" stroke="#063451" stroke-width="8" stroke-linejoin="round" stroke-miterlimit="10" points="39.167,80.5 
		49.75,80.5 49.75,95.75 59,80.5 69.281,80.5 59,99.219 71,124.5 59,124.5 52.417,111.75 49.75,115.167 49.75,138.583 
		39.167,145.916 	"/>
	<polygon fill="#063451" stroke="#063451" stroke-width="8" stroke-linejoin="round" stroke-miterlimit="10" points="69.916,84.312 
		80.499,84.312 80.499,113.75 90.499,113.75 90.499,121.75 69.916,121.75 	"/>
	<path fill="#063451" stroke="#063451" stroke-width="8" stroke-linejoin="round" stroke-miterlimit="10" d="M127.688,102.562
		c0,11.045-8.954,20-20,20s-20-8.955-20-20c0-11.047,8.954-20,20-20S127.688,91.518,127.688,102.562z M107.688,93.188
		c-5.178,0-9.375,4.197-9.375,9.375c0,5.18,4.197,9.375,9.375,9.375s9.375-4.195,9.375-9.375
		C117.063,97.385,112.865,93.188,107.688,93.188z"/>
	<polygon fill="#063451" stroke="#063451" stroke-width="8" stroke-linejoin="round" stroke-miterlimit="10" points="128.25,84.312 
		136.875,84.312 144.125,98 144.125,84.312 154.75,84.312 154.75,121.75 146.625,121.75 138.5,106.917 138.5,121.75 128.25,121.75 	
		"/>
	
		<rect x="184.832" y="84.312" fill="#063451" stroke="#063451" stroke-width="8" stroke-linejoin="round" stroke-miterlimit="10" width="9.666" height="37.438"/>
	<polygon fill="#063451" stroke="#063451" stroke-width="8" stroke-linejoin="round" stroke-miterlimit="10" points="
		196.915,84.312 207.084,84.312 207.084,97 215.667,84.312 225.417,84.312 215.667,100.334 226.702,121.75 215.667,121.75 
		209.25,110 207.084,113.75 207.084,121.75 196.915,121.75 	"/>
	<path fill="#063451" stroke="#063451" stroke-width="8" stroke-linejoin="round" stroke-miterlimit="10" d="M157.083,84.312h13.75
		c0,0,12.417,0,12.417,18.25c0,19.188-12.417,19.188-12.417,19.188h-13.75V84.312L157.083,84.312z M166.166,111.75
		c0,0,8.25,1.157,8.25-9.188c0-8.943-8.25-7.812-8.25-7.812V111.75z"/>
</g>
<g>
	<polygon fill="#FFFFFF" points="224.917,79.5 245.501,79.5 245.501,89.667 235.834,89.667 235.834,97 243.001,97 243.001,105.917 
		235.834,105.917 235.834,114.167 246.001,114.167 246.001,123.5 224.917,123.5 	"/>
	<polygon fill="#FFFFFF" points="38.167,79.5 48.75,79.5 48.75,94.75 58,79.5 68.281,79.5 58,98.219 70,123.5 58,123.5 
		51.417,109.75 48.75,114.167 48.75,137.583 38.167,144.916 	"/>
	<polygon fill="#FFFFFF" points="68.916,83.312 79.499,83.312 79.499,112.75 89.499,112.75 89.499,120.75 68.916,120.75 	"/>
	<path fill="#FFFFFF" d="M126.688,101.562c0,11.045-8.954,20-20,20s-20-8.955-20-20c0-11.047,8.954-20,20-20
		S126.688,90.518,126.688,101.562z M106.688,92.188c-5.178,0-9.375,4.197-9.375,9.375c0,5.18,4.197,9.375,9.375,9.375
		s9.375-4.195,9.375-9.375C116.063,96.385,111.865,92.188,106.688,92.188z"/>
	<polygon fill="#FFFFFF" points="127.25,83.312 135.875,83.312 143.125,97 143.125,83.312 153.75,83.312 153.75,120.75 
		145.625,120.75 137.5,105.917 137.5,120.75 127.25,120.75 	"/>
	<rect x="183.832" y="83.312" fill="#FFFFFF" width="9.667" height="37.438"/>
	<polygon fill="#FFFFFF" points="195.915,83.312 206.084,83.312 206.084,96 214.667,83.312 224.417,83.312 214.667,99.333 
		225.702,120.75 214.667,120.75 208.25,109 206.084,112.75 206.084,120.75 195.915,120.75 	"/>
	<path fill="#FFFFFF" d="M156.083,83.312h13.75c0,0,12.417,0,12.417,18.25c0,19.188-12.417,19.188-12.417,19.188h-13.75V83.312
		L156.083,83.312z M165.167,110.75c0,0,8.25,1.157,8.25-9.188c0-8.943-8.25-7.812-8.25-7.812V110.75z"/>
</g>
<g>
	<polygon fill="#CDD5E5" points="226.75,81.5 244.334,81.5 244.334,88.667 234.668,88.667 234.668,99 241.834,99 241.834,104.917 
		234.668,104.917 234.668,116.167 244.834,116.167 244.834,122.5 226.75,122.5 	"/>
	<polygon fill="#CDD5E5" points="40,81.5 47.583,81.5 47.583,99.75 59.833,81.5 66.115,81.5 56.833,98.219 67.833,122.5 
		59.833,122.5 52.25,106.75 47.583,114.167 47.583,136.583 40,141.916 	"/>
	<polygon fill="#CDD5E5" points="70.749,85.312 78.333,85.312 78.333,114.75 88.333,114.75 88.333,119.75 70.749,119.75 	"/>
	<path fill="#CDD5E5" d="M125.271,101.562c0,10.354-8.396,18.75-18.75,18.75s-17.75-8.396-17.75-18.75
		c0-9.226,7.875-17.75,17.75-17.75C116.876,83.812,125.271,91.207,125.271,101.562z M106.521,90.773
		c-6.062,0-10.789,5.227-10.789,10.789c0,7.438,6.289,10.789,10.789,10.789c7.438,0,10.789-5.039,10.789-10.789
		C117.31,95.125,112.708,90.773,106.521,90.773z"/>
	<polygon fill="#CDD5E5" points="129.083,85.312 135.708,85.312 144.958,104 144.958,85.312 152.583,85.312 152.583,119.75 
		147.458,119.75 136.333,100.917 136.333,119.75 129.083,119.75 	"/>
	<rect x="185.665" y="85.312" fill="#CDD5E5" width="6.667" height="34.438"/>
	<polygon fill="#CDD5E5" points="197.748,85.312 204.918,85.312 204.918,101 215.5,85.312 222.25,85.312 213.5,99.333 
		223.535,119.75 215.5,119.75 209.084,106 204.918,112.75 204.918,119.75 197.748,119.75 	"/>
	<path fill="#CDD5E5" d="M157.917,85.312h11.75c0,0,11.417-0.064,11.417,16.25c0,18.188-11.417,18.188-11.417,18.188h-11.75V85.312
		L157.917,85.312z M164,111.75c0,0,11.249,1,11.25-10.188C175.251,90.75,164,92.75,164,92.75V111.75z"/>
</g>
<g>
	<polygon fill="#FFFFFF" points="225.917,80.5 243.501,80.5 243.501,87.667 233.834,87.667 233.834,98 241.001,98 241.001,103.917 
		233.834,103.917 233.834,115.167 244.001,115.167 244.001,121.5 225.917,121.5 	"/>
	<polygon fill="#FFFFFF" points="39.167,80.5 46.75,80.5 46.75,98.75 59,80.5 65.281,80.5 56,97.219 67,121.5 59,121.5 
		51.417,105.75 46.75,113.167 46.75,135.583 39.167,140.916 	"/>
	<polygon fill="#FFFFFF" points="69.916,84.312 77.499,84.312 77.499,113.75 87.499,113.75 87.499,118.75 69.916,118.75 	"/>
	<path fill="#FFFFFF" d="M124.438,100.562c0,10.354-8.395,18.75-18.75,18.75s-17.75-8.396-17.75-18.75
		c0-9.226,7.875-17.75,17.75-17.75C116.043,82.812,124.438,90.207,124.438,100.562z M105.688,89.773
		c-6.062,0-10.789,5.227-10.789,10.789c0,7.438,6.289,10.789,10.789,10.789c7.438,0,10.789-5.039,10.789-10.789
		C116.477,94.125,111.875,89.773,105.688,89.773z"/>
	<polygon fill="#FFFFFF" points="128.25,84.312 134.875,84.312 144.125,103 144.125,84.312 151.75,84.312 151.75,118.75 
		146.625,118.75 135.5,99.917 135.5,118.75 128.25,118.75 	"/>
	<rect x="184.832" y="84.312" fill="#FFFFFF" width="6.666" height="34.438"/>
	<polygon fill="#FFFFFF" points="196.915,84.312 204.084,84.312 204.084,100 214.667,84.312 221.417,84.312 212.667,98.333 
		222.702,118.75 214.667,118.75 208.25,105 204.084,111.75 204.084,118.75 196.915,118.75 	"/>
	<path fill="#FFFFFF" d="M157.083,84.312h11.75c0,0,11.417-0.064,11.417,16.25c0,18.188-11.417,18.188-11.417,18.188h-11.75V84.312
		L157.083,84.312z M163.167,110.75c0,0,11.208,4,11.25-10.188c0.032-10.812-11.25-8.812-11.25-8.812V110.75z"/>
</g>
<polygon fill="#063451" points="51.417,120.75 54.813,122.562 57.875,125.75 54.646,127.732 "/>
<polygon fill="#063451" points="63.625,95.625 67,92.625 67,105 63.625,103.625 "/>
<polygon fill="#063451" points="83.75,106.625 86.688,109.625 83.75,110.75 "/>
<polygon fill="#063451" points="102.625,98.812 106.188,97 109.875,98.812 110.5,102.562 107.688,105 105,105.5 102.625,103.031 "/>
<polygon fill="#063451" points="121.5,120.312 125.438,117.875 126.688,125.125 124.094,124.5 "/>
<polygon fill="#063451" points="141.132,120.75 140,124.241 145.625,124.241 "/>
<polygon fill="#063451" points="169.167,99.333 172,100 171.5,105 168.667,105.5 "/>
<polygon fill="#063451" points="178.5,121.125 181.25,120.312 183.25,123.5 182.25,125.125 "/>
<polygon fill="#063451" points="209.375,121.75 210.809,120.312 214.667,124.5 212.021,124.5 "/>
<polygon fill="#063451" points="220.625,125.125 222.702,124.5 223.702,127.375 222.164,127.375 "/>
<polygon fill="#063451" points="219.75,98.25 222.702,94.75 222.702,105.5 219.75,104.375 "/>
<polygon fill="#063451" points="239.5,110 247.001,109 250.75,111.5 249.625,113.375 243.001,112.25 239.5,112.25 "/>
<path fill="#FFFFFF" d="M142.081,58.875c0,0,0.71,1.146,0.834,1.146c0.292,0,0.5-0.396,0.5-0.396s0.595,1.245,1,1.917
	c1.208,2,1.458,0.312,1.458,0.312s0.751,1.97,1.25,2c0.354,0.021,0.752-0.729,0.752-0.729s1.227,2.271,1.748,2.271
	c0.559,0,0.584-0.354,0.584-0.354s0.543,1.333,1.043,1.458s0.744-0.112,0.854,0.146c0.375,0.896-1.084,1.479-1.084,2.458
	c0,1.188,4.604,2.292,4.604,3.938c0,1.875-4.373,1.958-4.373,1.958s-10.438,0.958-10.438-2.646c0-2.958,1.416-3.542,1.416-3.542
	s-0.479-0.192-0.479-0.708c0-0.521,0.627-1.729,0.627-1.729s-0.625,0.25-0.625-0.25c0-0.396,0.604-1.396,0.604-1.396
	s-0.709,0.083-0.709-0.562c0-0.637,0.48-1.542,0.48-1.542s-0.743,0.484-0.743-0.266S142.081,58.875,142.081,58.875z"/>
<path fill="#FFFFFF" d="M104.062,50.625c0,0,1.296,2.031,2.044,2.841c0.742,0.803,1.643,1.283,1.998,1.889
	c0.414,0.707,0.583,3.208,0.583,3.208l1.016-0.141l0.188,1.688l0.75,0.203l0.422,1.781l0.812,0.094V63.5l0.703-0.016v1.141h0.359
	l0.016,0.766c0,0,0.406,0.268,0.387,0.406c-0.105,0.766-2.855,3.094-2.855,3.766c0,1.219,2.062,1.703,3.049,3.944
	c0.434,0.984-9.066-0.19-9.066-0.19S98.2,71.442,98.2,68.781c0-1.984,1.896-2.859,2.489-3.875c0.385-0.659-0.062-0.781,0.188-1.031
	s0.625-0.625,0.625-0.625l0.147-0.638l0.517-0.404l0.08-1.236l0.818-0.659c0,0-0.419-0.024-0.419-0.343
	c0-0.325,0.858-1.54,0.858-1.54s-0.83,0.039-0.502-0.555c0.369-0.668,1-1.344,1-1.344s-0.375-0.155-0.375-0.531
	c0-0.375,0.906-0.656,1.031-1.844c0.125-1.188-0.114-1.328-0.313-2.115C104.155,51.297,104.062,50.625,104.062,50.625z"/>
<path fill="#FFFFFF" d="M158.936,74.1c-1.441-2.502-2.394-6.891-3.762-7.302c-0.455-0.137-1.479-1.036-1.527-1.847
	c-0.58-0.098-0.521,0.43-1.203,0.235c-0.498-0.685-0.799-2.015-1.922-1.408c-0.5-0.763-1.07-1.466-1.44-2.346
	c-0.853-0.362-0.142,0.801-0.722,0.704c-0.922-0.273-1.684-1.877-1.684-1.877s-0.261,0.528-0.48,0.704
	c-0.689-1.046-1.692-3.504-1.692-3.504s-0.409,0.826-0.709,0.923c-0.53-2.062-1.978-3.111-2.403-5.396
	c-0.931-4.944,2.277-9.444,2.277-9.444s-4.25,3.667-3.792,8.958c0.292,2.833,1.694,3.249,1.25,3.958
	c-0.916,1.458-8.565,3.139-12.041,1.375c-0.256-0.13,1.56-2.229,1.488-3.675c-0.121-2.708-2.481-4.766-3.128-7.507
	c-0.151-0.652,0.057-2.485-0.215-2.485c-0.246,0-0.729,2.664-0.562,3.688c0.329,2.05,1.812,3.354,1.812,5.667
	c0,3.143-2.146,6.354-2.146,10.146c0,2.917,1.169,5.653,3.5,6.875c1.438,0.754,3.083,0.792,3.083,3.458
	c0,0.88-11.479,2.75-11.479,2.75s-2.053-1.448-2.781-1.844c-2.125-1.156-1.699-1.663-2.562-5.906
	c-0.75-3.688-1.719-3.894-1.719-5.219c0-2-0.685-0.303-0.625-1.281c0.156-2.562-1.04-0.45-0.938-1.438
	c0.344-3.312-1.094-0.125-1.062-1.281c0.068-2.546-1.017-1.229-1-1.781c0.094-3.094-0.906-1.156-0.906-1.156
	s-0.372-1.908-0.719-2.438c-0.868-1.326-2.469-1.688-3.547-3.334c-0.883-1.349-1.731-2.813-1.926-4.691
	c-0.72-6.935,4.129-14.475,9.348-17.787c3.563-2.262,8.844-3.562,14.375-3.562c5.844,0,14.477,2.688,19.812,2.688
	c2.467,0,2.227-0.281,3.938-0.281c4.781,0,6.688,2.343,11.445,2.343c2.586,0,3.994-0.767,5.898-0.843
	c4.655-0.188,9.688,2.375,10.424,3.365c2.979,4.007,7.201,4.447,5.422,6.322c-1.471,2.188-2.471,0.781-4.31,0.821
	c-1.175,0.14,1.521,0.687,1.521,1.421c0,1.007-2.353,1.421-3.211,1.726c-1.088,0.385-3.344,1.656-4.125,2.062
	c-0.772,0.402-2.004,0.398-2.533,0.439c-1.422,0.109-1.268-0.529-1.896-0.593c-0.633-0.064-2.89,2.529-5.787,2.529
	c-1.604,0-2.754-2.286-3.721-3.375c-0.969-1.093-1.926-2.519-2.904-3.594c0.625,1.906,3.193,5.779,3.193,8.147
	c-0.07,0.908-0.854,3.103-1.35,3.103c-1.656,0-1.062-4.521-1.062-4.521s-0.4,1.912-0.386,2.871c0.036,2.375,1.077,3.969,1.923,5.865
	c0.938,2.102,2.736,3.416,3.9,5.41c1.781,1.466,3.843,5.413,4.688,5.625c1.391,0.349,4.582,0.31,5.062,2.031
	c0.102,1.935-1.782,2.375-3.125,3c-1.422,0.665-3.42,1.362-4.281,2.506h-6.975V74.1H158.936z M105.816,41.217
	c-0.503,1.596,0.914,4.471,2.164,4.692c1.906,0.338,4.146-2.951,2.708-3.805c-0.71-0.422-1.901,2.312-2.946,0.989
	c-0.304-0.384,0.405-1.243-0.096-2.051C107.319,40.514,106.107,40.292,105.816,41.217z M177.689,35.587
	c0.396-0.48-2.222-2.524-2.719-1.75c-0.397,0.618,0.311,1.195,1.045,1.441C176.877,35.565,177.533,35.776,177.689,35.587z
	 M167.083,32.208c0,0.459,3.792,3.479,4.597,2.674c0.478-0.477-1.305-1.945-0.908-2.341c0.324-0.325,2.08-0.125,2.08-0.888
	C172.852,30.521,167.083,30.896,167.083,32.208z"/>
</svg>
