<svg xmlns="http://www.w3.org/2000/svg" height="800" width="1200" viewBox="-2.019087 -1.4207225 17.498754 8.524335"><path d="M.15416 5.52873h13.15261V.15416H.15416zm13.30642.15416H0V0h13.46058z" fill="#fff"/><path d="M.0769.0769h13.30643v5.52874H.0769z" fill="#1e59ae" fill-rule="evenodd"/><path d="M11.70954 3.56466c-.05045-.3369-.30127-.61842-.86007-.61842-.49953 0-.86536.21484-.86536.62794 0 .75036 1.14476.54752 1.14476.83891 0 .0956-.10301.14605-.2727.14605-.05962 0-.13123-.0148-.1792-.0455-.05469-.0434-.09314-.0885-.1076-.16263H9.9386c.01199.36054.35595.65934.88688.65934.54963 0 .93874-.22189.93874-.67592 0-.71226-1.1564-.52811-1.1564-.82444 0-.0695.06914-.11254.20567-.11254.0716 0 .1263.0169.17639.043.05045.0194.08643.0575.09102.12418zm-1.90464.31785h-.90065v.4184h.29351c-.04057.14569-.20037.2293-.33901.2293-.32985 0-.41805-.25118-.41805-.52599 0-.34643.11713-.57785.37748-.57785.16968 0 .2914.0907.3369.2533h.62371c-.08396-.48754-.46602-.73343-.94862-.73343-.64523 0-1.0467.43215-1.0467 1.05798 0 .68368.45403 1.00612.97015 1.00612.31291 0 .49212-.11218.60678-.23636l.0194.19368h.4251zm-4.08094.22472c0 .67134.34643.90311.96273.90311.66217 0 .96309-.2794.96309-.90311V3.00092h-.65476v1.17087c0 .21273-.07197.35842-.30833.35842-.26529 0-.30833-.1651-.30833-.35842V3.00092h-.6544zm-1.10913.1718c.30586 0 .35137.079.35137.33691 0 .17251.01693.2988.0335.34431h.66182v-.0621c-.07655 0-.06914-.0861-.06914-.34396 0-.39229-.12453-.4445-.33938-.51611.23637-.0695.33938-.25577.33938-.47802 0-.38241-.22014-.55915-.88406-.55915h-.94404v1.95933h.6544v-.68122zm-.19615-.82408h.30163c.15522 0 .26282.0691.26282.20284 0 .14358-.10548.19121-.30833.19121h-.25612zm-1.8923 1.5053c.6477 0 1.06575-.28434 1.06575-1.01777 0-.64769-.40393-.94156-1.04423-.94156h-.87947v1.95933zm-.2032-1.5053h.127c.34643 0 .4826.10971.4826.51364 0 .37994-.16721.53058-.4706.53058h-.139zM11.4417.72385h-.6043v1.91629h.61842v-.61172l-.02364-.43497.70238 1.04669h.59972V.72385h-.61384v.60678l.02152.43744zM9.645.66885c-.6096 0-1.03257.38946-1.03257.99377 0 .65723.42086 1.02517 1.03258 1.02517.58314 0 1.03223-.35842 1.03223-1.02023 0-.50165-.32738-.99871-1.03223-.99871m-.0074.4706c.28892-.012.3944.27235.3944.52811 0 .31997-.10548.5521-.387.5521-.3062 0-.38734-.30586-.38734-.5521 0-.23636.09102-.52811.37994-.52811M7.41052 2.64017c.63112 0 1.04423-.2794 1.04423-1.00118 0-.63571-.39194-.91511-1.03435-.91511h-.85795v1.91629zm-.20531-1.4672h.12417c.34185 0 .48013.10265.48013.50165 0 .36336-.16933.51611-.4706.51611h-.1337zM5.06385.72388h-.59973v1.91629h.61172v-.61172l-.02611-.43497.70979 1.04669h.60219V.72388h-.62124v.60678l.02152.43744zM3.2936.66888c-.60466 0-1.02765.38946-1.02765.99377 0 .65723.41346 1.02517 1.02765 1.02517.58772 0 1.0347-.35842 1.0347-1.02023 0-.50165-.32492-.99871-1.0347-.99871m-.0025.4706c.2868-.012.39193.27235.39193.52811 0 .31997-.10513.5521-.38946.5521-.30586 0-.38242-.30586-.38242-.5521 0-.23636.08572-.52811.37995-.52811M2.23736 2.6402v-.44944h-.88194V.72391H.71265V2.6402z" fill="#fff" fill-rule="evenodd"/><path d="M11.97598 2.91185c-.12841 0-.23672.10231-.23672.22331 0 .11924.1083.22013.23672.22013.11888 0 .2233-.10266.2233-.22013 0-.11889-.10442-.22331-.2233-.22331m0 .47449c-.145 0-.2674-.11501-.2674-.25118 0-.14005.11994-.254.2674-.254.13546 0 .25435.11853.25435.254 0 .1337-.11889.25118-.25435.25118" fill="#fff"/><path d="M11.90594 3.038h.07973c.03634 0 .04304.0134.04304.0363 0 .0236-.0067.0466-.04304.0466h-.07973zm-.05644.24236h.05644v-.12312h.07267c.03704 0 .06526.0145.06526.066 0 .0402.0007.0434.0011.0571h.06032c-.0035-.0166-.0035-.0497-.0035-.0663 0-.0402-.01976-.0663-.04657-.0663v-.0102c.03986-.01.04657-.0395.04657-.0695 0-.0529-.03634-.0896-.08608-.0896h-.16616z" fill="#fff" fill-rule="evenodd"/></svg>