<svg version="1.1" id="Layer_1" xmlns="http://www.w3.org/2000/svg" x="0" y="0" width="334" height="274" style="enable-background:new 0 0 334 274" xml:space="preserve"><style>.st5{fill:#a90056}.st6{fill:#7f3f98}.st7{fill:#1c75bc}.st8{fill:#006838}</style><path style="fill:#939598" d="M48.1 62.7h133.4v133.4H48.1z"/><path transform="rotate(-74.995 134.84 114.708)" style="fill:#fff200" d="M68.1 48h133.4v133.4H68.1z"/><path style="fill:#ec008c" d="M247.8 80.4 181 195.9 65.5 129.2l66.7-115.5z"/><path transform="rotate(-45.001 179.55 102.535)" style="fill:#00aeef" d="M112.8 35.8h133.4v133.4H112.8z"/><path d="M198.7 81.6C195.9 73 189.8 67 180.2 67c-13 0-20.8 12.1-20.8 35.9-.3 23.8 6.8 35.9 21.4 35.9 8.7 0 14.1-3.1 19.9-15.1l18 4.8c-6.1 17.6-19.3 26.6-37.9 26.6-25.9 0-40.9-19-40.9-52.3s14.9-52.3 40.9-52.3c19.4 0 30.7 8.7 35.5 26.8l-17.6 4.3z" style="fill:#fff"/><path class="st5" d="M41.9 242.2c-6.8 0-10.5-4.7-10.5-12.9s3.7-12.9 10.5-12.9 10.5 4.7 10.5 12.9-3.7 12.9-10.5 12.9zm0-21.7c-3.9 0-5.7 3-5.7 8.8-.1 5.9 1.8 8.8 5.7 8.8 3.9 0 5.7-3 5.7-8.8 0-5.8-1.8-8.8-5.7-8.8zM56.3 241.8v-25h5l9.8 17.1h.1v-17.1h4.5v25h-4.6L60.9 224h-.1v17.8h-4.5zM97.1 216.8v4h-6.5v21h-4.8v-21h-6.5v-4h17.8zM100.5 241.8v-25h10c5.7 0 8 3.3 8 7.4 0 3.1-1.5 5.6-4.6 6.4l5.5 11.2h-5.3l-4.7-10.2h-4.1v10.2h-4.8zm4.8-14h3.5c3.7 0 4.9-1.2 4.9-3.5 0-2.4-1.4-3.5-4.1-3.5h-4.4v7zM132.5 242.2c-6.8 0-10.5-4.7-10.5-12.9s3.7-12.9 10.5-12.9 10.5 4.7 10.5 12.9-3.7 12.9-10.5 12.9zm0-21.7c-3.9 0-5.7 3-5.7 8.8-.1 5.9 1.8 8.8 5.7 8.8 3.9 0 5.7-3 5.7-8.8 0-5.8-1.8-8.8-5.7-8.8zM146.8 241.8v-25h4.8v21h10.9v4h-15.7zM166.8 241.8v-25h7.6c6 0 8.5 2.8 8.5 7s-2.5 7-8.5 7h-5.3v11.1h-2.3zm2.3-12.9h5.3c4.3 0 6.2-1.8 6.2-5.1s-1.8-5.1-6.2-5.1h-5.3v10.2zM205.1 241.8h-2.5l-5.8-11.4h-6.5v11.4H188v-25h8.5c4.9 0 7.7 2.7 7.7 6.8 0 3.3-1.6 5.5-5.2 6.4l6.1 11.8zm-14.8-13.3h6.2c3.3 0 5.4-1.8 5.4-4.9 0-3.1-1.8-4.9-5.4-4.9h-6.2v9.8zM211.3 216.8h2.3v25h-2.3v-25zM220.8 216.8h3.8l11.9 20.9h.1v-20.9h2.3v25h-2.4l-13.4-23.2h-.1v23.2h-2.3v-25zM243.4 216.8h17.1v1.9h-7.4v23.2h-2.3v-23.2h-7.4v-1.9zM265.3 216.8h2.3v25h-2.3v-25zM274.7 216.8h3.8l11.9 20.9h.1v-20.9h2.3v25h-2.4L277 218.6v23.2h-2.3v-25zM314 224.1c-.8-3.2-2.7-5.8-6.4-5.8-4.4 0-7.3 4.2-7.3 11 0 5.4 1.6 11 8 11 3.5 0 5.9-2.7 5.9-6V232h-6.3v-1.9h8.6v11.7h-2v-2.5h-.1c-1.5 1.9-3.3 2.8-6.8 2.8-5.6 0-9.6-4.6-9.6-12.9s4.3-12.9 9.7-12.9c4.6 0 7.6 3 8.5 7.2l-2.2.6zM252.5 253.1c-.8-1.7-1.7-2.4-3.3-2.4-2.4 0-3.5 2.4-3.5 6.1 0 3.5 1.3 5.7 3.5 5.7 2.1 0 3.4-1.4 3.5-3.3h-3.2v-2.7h6.2v8.4h-2.3v-1.7c-1.3 1.5-2.6 1.9-4.3 1.9-4.5 0-6.6-3.6-6.6-8.3 0-4.3 1.6-8.8 7-8.8 3.3 0 5.3 1.8 6.1 4.3l-3.1.8zM259 264.9v-16.7h6.7c3.8 0 5.3 2.2 5.3 4.9 0 2.1-1 3.7-3.1 4.3l3.7 7.4h-3.5L265 258h-2.8v6.8H259zm3.2-9.3h2.4c2.5 0 3.3-.8 3.3-2.4 0-1.6-.9-2.4-2.7-2.4h-2.9v4.8zM280.3 265.2c-4.5 0-7-3.1-7-8.6s2.5-8.6 7-8.6c4.6 0 7 3.1 7 8.6s-2.4 8.6-7 8.6zm0-14.5c-2.6 0-3.8 2-3.8 5.9 0 3.9 1.2 5.9 3.8 5.9 2.6 0 3.8-2 3.8-5.9 0-3.9-1.2-5.9-3.8-5.9zM299.6 248.3h3.2v10.4c0 4.9-3 6.5-6.4 6.5-3.4 0-6.4-1.6-6.4-6.5v-10.4h3.2v10.6c0 2.7 1.1 3.7 3.2 3.7s3.2-.9 3.2-3.7v-10.6zM306.3 264.9v-16.7h6.1c3.6 0 5.9 1.5 5.9 5s-2.3 5-5.9 5h-2.9v6.7h-3.2zm3.2-9.3h2.5c2.4 0 3.1-.9 3.1-2.4s-.7-2.4-3.1-2.4h-2.5v4.8zM24.5 224.1c-.7-2.2-2.2-3.7-4.6-3.7-3.3 0-5.2 3-5.2 9-.1 6 1.7 9 5.4 9 2.2 0 3.5-.8 5-3.8l4.5 1.2c-1.5 4.4-4.9 6.7-9.5 6.7-6.5 0-10.3-4.8-10.3-13.1 0-8.4 3.8-13.1 10.3-13.1 4.9 0 7.7 2.2 8.9 6.7l-4.5 1.1z"/><path class="st6" d="M9.9 263.9v-6.7h1.8c1.6 0 2.3.7 2.3 2s-.8 2-2.3 2h-.6v2.7H9.9zm1.3-3.8h.7c.6 0 .9-.3.9-.9 0-.6-.3-.9-.9-.9h-.7v1.8zM18.9 263.9l-1.1-2.7h-.6v2.7h-1.3v-6.7h1.8c1.5 0 2.3.7 2.3 2 0 .8-.3 1.4-1 1.7l1.3 3h-1.4zm-1.8-3.8h.7c.6 0 .9-.3.9-.9s-.3-.9-.9-.9h-.7v1.8zM22 263.9v-6.7h1.3v6.7H22zM25.5 263.9v-6.7h1.4l1.8 3.9v-3.9h1.2v6.7h-1.2l-1.9-4.3v4.3h-1.3zM35.8 257.2v1.1h-1.5v5.5H33v-5.5h-1.5v-1.1h4.3z"/><path class="st7" d="M51.4 263.9v-6.7h1.8c1.6 0 2.3.7 2.3 2s-.8 2-2.3 2h-.6v2.7h-1.2zm1.3-3.8h.7c.6 0 .9-.3.9-.9 0-.6-.3-.9-.9-.9h-.7v1.8zM60.3 263.9l-1.1-2.7h-.6v2.7h-1.3v-6.7h1.8c1.5 0 2.3.7 2.3 2 0 .8-.3 1.4-1 1.7l1.3 3h-1.4zm-1.7-3.8h.7c.6 0 .9-.3.9-.9s-.3-.9-.9-.9h-.7v1.8zM63.3 259.3c0-1.6.9-2.2 2.1-2.2 1.2 0 2.1.6 2.1 2.2v2.4c0 1.6-.9 2.2-2.1 2.2-1.2 0-2.1-.6-2.1-2.2v-2.4zm1.3 2.6c0 .7.3.9.8.9s.8-.2.8-.9v-2.7c0-.7-.3-.9-.8-.9s-.8.2-.8.9v2.7zM69.5 263.9v-6.7h1.8l1.2 4.4 1.2-4.4h1.8v6.7h-1.1v-5.2l-1.4 5.2h-1l-1.4-5.2v5.2h-1.1zM77.4 259.3c0-1.6.9-2.2 2.1-2.2 1.2 0 2.1.6 2.1 2.2v2.4c0 1.6-.9 2.2-2.1 2.2-1.2 0-2.1-.6-2.1-2.2v-2.4zm1.3 2.6c0 .7.3.9.8.9s.8-.2.8-.9v-2.7c0-.7-.3-.9-.8-.9s-.8.2-.8.9v2.7zM87.5 257.2v1.1H86v5.5h-1.3v-5.5h-1.5v-1.1h4.3zM89.2 263.9v-6.7h1.3v6.7h-1.3zM92.5 259.3c0-1.6.9-2.2 2.1-2.2s2.1.6 2.1 2.2v2.4c0 1.6-.9 2.2-2.1 2.2s-2.1-.6-2.1-2.2v-2.4zm1.3 2.6c0 .7.3.9.8.9s.8-.2.8-.9v-2.7c0-.7-.3-.9-.8-.9s-.8.2-.8.9v2.7zM98.7 263.9v-6.7h1.4l1.8 3.9v-3.9h1.2v6.7h-1.2l-1.9-4.3v4.3h-1.3zM104.8 263.9l1.7-6.7h1.6l1.6 6.7h-1.2l-.3-1.4h-1.8l-.4 1.4h-1.2zm1.8-2.6h1.3l-.6-2.7-.7 2.7zM111.3 263.9v-6.7h1.3v5.5h2v1.1h-3.3z"/><path class="st8" d="M130.1 263.9v-6.7h3.3v1.1h-2v1.5h1.6v1.1h-1.6v2.9h-1.3zM136.5 257.2v4.7c0 .6.3 1 .9 1 .6 0 .9-.3.9-1v-4.7h1.3v4.7c0 1.5-.9 2.1-2.2 2.1-1.3 0-2.2-.6-2.2-2.1v-4.7h1.3zM141.7 263.9v-6.7h1.3v5.5h2v1.1h-3.3zM146.7 263.9v-6.7h3.3v1.1h-2v1.5h1.6v1.1H148v2.9h-1.3zM151.8 263.9v-6.7h1.3v6.7h-1.3zM155.2 263.9v-6.7h1.3v5.5h2v1.1h-3.3zM160.2 263.9v-6.7h1.3v5.5h2v1.1h-3.3zM165.3 263.9v-6.7h1.8l1.2 4.4 1.2-4.4h1.8v6.7h-1.1v-5.2l-1.4 5.2h-1l-1.4-5.2v5.2h-1.1zM173.3 263.9v-6.7h3.5v1.1h-2.2v1.5h1.7v1.1h-1.7v1.8h2.3v1.1h-3.6zM178.9 263.9v-6.7h1.4l1.8 3.9v-3.9h1.2v6.7h-1.2l-1.9-4.3v4.3h-1.3zM189.3 257.2v1.1h-1.5v5.5h-1.3v-5.5H185v-1.1h4.3z"/><path d="M204.7 257.2h1.8c1.5 0 2.3.6 2.3 2.3v2c-.1 1.7-.9 2.3-2.3 2.3h-1.8v-6.6zm1.3 5.5h.4c.7 0 1.1-.3 1.1-1.3v-1.8c0-.9-.3-1.3-1.1-1.3h-.4v4.4zM210.8 263.9v-6.7h3.5v1.1h-2.2v1.5h1.7v1.1h-1.7v1.8h2.3v1.1h-3.6zM219.1 259.1c-.2-.6-.5-.9-.9-.9-.5 0-.7.3-.7.7 0 1 2.8 1.1 2.8 3.2 0 1.1-.8 1.9-2.1 1.9-1 0-1.8-.6-2.2-1.9l1.3-.3c.1.8.6 1.1 1 1.1s.8-.3.8-.8c0-1.3-2.8-1.3-2.8-3.1 0-1.1.7-1.9 2-1.9 1.1 0 1.8.7 2 1.6l-1.2.4zM222.5 263.9v-6.7h1.3v6.7h-1.3zM229.1 263.3c-.3.4-.7.6-1.2.6-1.2 0-2.1-.6-2.1-2.2v-2.4c0-1.6.9-2.2 2.1-2.2 1.3 0 2 .7 2 2.3h-1.3c0-.9-.3-1.1-.8-1.1s-.8.2-.8.9v2.7c0 .7.3.9.8.9s.8-.4.8-.9v-.4h-.9v-1.1h2.2v3.4h-.7l-.1-.5zM232 263.9v-6.7h1.4l1.8 3.9v-3.9h1.2v6.7h-1.2l-1.9-4.3v4.3H232z"/></svg>